<?xml version="1.0" encoding="iso-8859-1"?>
<!-- Generator: Adobe Illustrator 19.1.0, SVG Export Plug-In . SVG Version: 6.00 Build 0)  -->
<!DOCTYPE svg PUBLIC "-//W3C//DTD SVG 1.1//EN" "http://www.w3.org/Graphics/SVG/1.1/DTD/svg11.dtd">
<svg version="1.1" xmlns="http://www.w3.org/2000/svg" xmlns:xlink="http://www.w3.org/1999/xlink" x="0px" y="0px"
	 viewBox="0 0 512 512" enable-background="new 0 0 512 512" xml:space="preserve">
<g id="Layer_4">
	<path fill="#FFD731" d="M431.894,191.9c-0.177-3.112-0.503-5.747-0.659-7.44c-0.077-0.845-0.177-1.54-0.231-1.989
		c-0.057-0.453-0.087-0.683-0.087-0.683c-4.364-33.744-26.232-64.405-59.969-78.23c0,0-0.215-0.088-0.637-0.261
		c-0.42-0.169-1.065-0.447-1.861-0.74c-1.594-0.591-4.054-1.59-7.014-2.569c-6.105-2.2-14.631-4.869-24.883-7.483
		c-10.248-2.61-22.181-5.111-35.069-6.938c-12.887-1.825-26.749-3.001-40.937-3.065c-14.195-0.074-28.737,0.938-43.142,3.281
		c-14.414,2.331-28.671,6.02-42.472,11.071c-13.784,5.075-27.066,11.572-39.596,19.433c-12.535,7.856-24.304,17.095-35.193,27.483
		c-10.906,10.365-20.983,21.813-30.041,34.205c-9.072,12.374-17.088,25.741-24.056,39.707
		c-6.939,14.004-12.767,28.687-17.506,43.639c-4.741,14.95-8.381,30.182-11.033,45.167c-2.594,15.06-4.313,29.726-5.212,43.538
		c-0.918,13.788-1.079,26.643-0.822,37.738c0.092,2.81,0.18,5.47,0.262,7.973c0.155,2.598,0.3,5.033,0.435,7.298
		c0.068,1.133,0.133,2.223,0.195,3.271c0.058,1.042,0.118,2.047,0.224,3.069c0.089,0.979,0.174,1.912,0.255,2.802l-4.095,5.847
		c-3.737,5.414-4.96,12.598-2.544,19.253c3.966,10.924,16.037,16.565,26.961,12.599l6.71-2.436c0.839,0.31,1.718,0.634,2.64,0.974
		c0.96,0.367,1.915,0.687,2.906,1.013c0.995,0.332,2.031,0.678,3.108,1.038c2.153,0.719,4.466,1.492,6.935,2.316
		c2.396,0.73,4.942,1.505,7.632,2.324c10.647,3.13,23.103,6.314,36.656,9.008c13.572,2.719,28.18,4.868,43.398,6.275
		c15.16,1.332,30.815,1.773,46.483,1.077c15.67-0.693,31.363-2.507,46.688-5.571c15.296-3.101,30.286-7.37,44.592-12.917
		c14.319-5.528,27.992-12.285,40.833-20.125c12.859-7.817,24.838-16.783,35.681-26.847c10.846-10.059,20.571-21.197,29.051-33.19
		c8.463-12.016,15.728-24.825,21.723-38.139c6.004-13.302,10.758-27.082,14.374-40.809c3.623-13.718,6.088-27.409,7.673-40.328
		c1.583-12.92,2.267-25.093,2.409-35.668C432.795,207.293,432.433,198.367,431.894,191.9z"/>
</g>
<g id="Layer_1">
</g>
</svg>
