<?xml version="1.0" encoding="iso-8859-1"?>
<!-- Generator: Adobe Illustrator 18.1.1, SVG Export Plug-In . SVG Version: 6.00 Build 0)  -->
<!DOCTYPE svg PUBLIC "-//W3C//DTD SVG 1.1//EN" "http://www.w3.org/Graphics/SVG/1.1/DTD/svg11.dtd">
<svg version="1.1" xmlns="http://www.w3.org/2000/svg" xmlns:xlink="http://www.w3.org/1999/xlink" x="0px" y="0px"
	 viewBox="0 0 512 512" enable-background="new 0 0 512 512" xml:space="preserve">
<g id="Layer_6">
	<path fill="#FF473E" d="M338.377,262.634c0,14.495-11.75,26.245-26.245,26.245c-14.495,0-26.245-11.75-26.245-26.245
		c0-14.495,11.75-26.245,26.245-26.245C326.627,236.39,338.377,248.14,338.377,262.634z M207.423,134.1
		c-6.677,0-12.089,5.413-12.089,12.089s5.413,12.089,12.089,12.089s12.089-5.413,12.089-12.089S214.1,134.1,207.423,134.1z
		 M187.153,380.986c-10.728,0-19.425,8.697-19.425,19.425c0,10.728,8.697,19.425,19.425,19.425c10.728,0,19.425-8.697,19.425-19.425
		C206.578,389.682,197.881,380.986,187.153,380.986z"/>
</g>
<g id="Layer_1">
</g>
</svg>
