<?xml version="1.0" encoding="iso-8859-1"?>
<!-- Generator: Adobe Illustrator 18.1.1, SVG Export Plug-In . SVG Version: 6.00 Build 0)  -->
<!DOCTYPE svg PUBLIC "-//W3C//DTD SVG 1.1//EN" "http://www.w3.org/Graphics/SVG/1.1/DTD/svg11.dtd">
<svg version="1.1" xmlns="http://www.w3.org/2000/svg" xmlns:xlink="http://www.w3.org/1999/xlink" x="0px" y="0px"
	 viewBox="0 0 512 512" enable-background="new 0 0 512 512" xml:space="preserve">
<g id="Layer_2">
	<path fill="#FCDDB1" d="M112.081,466.752c1.988,11.306-1.375,23.369-10.108,32.102c-14.228,14.228-37.296,14.228-51.523,0
		c-7.431-7.431-10.972-17.273-10.641-27.007c-9.735,0.331-19.576-3.21-27.007-10.641c-14.228-14.228-14.228-37.296,0-51.523
		c9.63-9.63,23.309-12.733,35.557-9.326c9.618,0.731,17.747,1.751,38.436-16.658l105.422-105.421
		c11.43-11.429,29.962-11.43,41.392,0c11.43,11.431,11.43,29.962,0,41.393L119.375,433.899
		C107.583,450.235,112.081,456.151,112.081,466.752z M496.776,52.755c-7.431-7.431-17.273-10.972-27.007-10.641
		c0.331-9.735-3.21-19.576-10.641-27.007c-14.228-14.228-37.296-14.228-51.523,0c-8.733,8.733-12.096,20.796-10.108,32.102
		c0,10.601,4.497,16.516-7.294,32.851L275.97,194.292c-11.43,11.43-11.43,29.962,0,41.392c5.716,5.715,13.206,8.572,20.696,8.572
		s14.981-2.857,20.696-8.573l105.381-105.381c20.713-18.44,28.852-17.429,38.476-16.698c12.248,3.407,25.927,0.304,35.557-9.326
		C511.004,90.051,511.004,66.983,496.776,52.755z"/>
</g>
<g id="Layer_1">
</g>
</svg>
