<?xml version="1.0" encoding="iso-8859-1"?>
<!-- Generator: Adobe Illustrator 18.1.1, SVG Export Plug-In . SVG Version: 6.00 Build 0)  -->
<!DOCTYPE svg PUBLIC "-//W3C//DTD SVG 1.1//EN" "http://www.w3.org/Graphics/SVG/1.1/DTD/svg11.dtd">
<svg version="1.1" xmlns="http://www.w3.org/2000/svg" xmlns:xlink="http://www.w3.org/1999/xlink" x="0px" y="0px"
	 viewBox="0 0 512 512" enable-background="new 0 0 512 512" xml:space="preserve">
<g id="Layer_2">
	<path fill="#D19B61" d="M443.461,262.755c0,53.304-9.354,50.972-48.37,80.033c-39.015,29.061-70.906,27.352-47.057,45.116
		c5.902,4.396,7.65,7.148,6.945,8.804c-0.639,10.302-13.422,20.912-49.302,20.912c-5.359,0-9.921,0.463-13.84,1.236l0.234,0.089
		c-14.433,2.251-25.202,14.247-25.159,34.247c0.056,25.867-44.043,7.794-33.392-9.73c5.271-8.672,10.719-15.507,15.585-20.739
		c6.943-9.704,19.974-21.793,41.838-21.793c24.033,0,34.042-0.674,32.132-8.509c-5.23-5.131-8.988-11.214-11.346-17.685
		c-0.326-0.408-0.64-0.805-0.979-1.225l0.664,0.336c-8.057-23.506,2.13-51.729,27.247-57.984
		c42.003-10.461,26.608-14.178,6.425-29.211C345.085,286.652,443.461,209.451,443.461,262.755z M124.163,282.918
		c5.597,21.607-4.115,37.423-31.568,44.535c-24.571,6.365-42.687,14.116-40.238,38.783l-0.016-0.004c0,0-4.351,28.257,8.001,63.861
		s50.699,10.345,30.037-12.368c-14.475-15.911-16.765-22.466-19.032-46.172c-2.185-26.283,14.859-7.191,56.627-18.01
		c41.768-10.82,46.831-4.999,75.214-53.228S124.163,282.918,124.163,282.918z"/>
</g>
<g id="Layer_1">
</g>
</svg>
