<?xml version="1.0" encoding="iso-8859-1"?>
<!-- Generator: Adobe Illustrator 19.2.1, SVG Export Plug-In . SVG Version: 6.00 Build 0)  -->
<!DOCTYPE svg PUBLIC "-//W3C//DTD SVG 1.1//EN" "http://www.w3.org/Graphics/SVG/1.1/DTD/svg11.dtd">
<svg version="1.1" xmlns="http://www.w3.org/2000/svg" xmlns:xlink="http://www.w3.org/1999/xlink" x="0px" y="0px"
	 viewBox="0 0 512 512" enable-background="new 0 0 512 512" xml:space="preserve">
<g id="Layer_4">
	<path fill="#CECECE" d="M503.859,40.27c0,0,0,26.304,0,65.76c0.024,19.728,0.053,42.744,0.084,67.404
		c0.016,12.33,0.033,25.071,0.049,38.018c-0.021,12.947-0.041,26.099-0.062,39.251c-0.063,26.304-0.125,52.608-0.184,77.268
		c-0.031,12.33-0.061,24.249-0.089,35.552c0.003,5.651,0.005,11.148,0.007,16.466c0.037,5.317,0.073,10.455,0.107,15.387
		c0.04,4.932,0.079,9.659,0.116,14.154c0.086,4.495,0.168,8.759,0.245,12.767c0.103,8.015,0.397,15.002,0.603,20.756
		c0.171,5.754,0.487,10.275,0.625,13.358c0.193,3.082,0.295,4.727,0.295,4.727c0.657,10.519-7.337,19.579-17.856,20.236
		c-10.519,0.657-19.579-7.337-20.236-17.856c-0.033-0.532-0.044-1.06-0.034-1.583l0.019-0.797c0,0,0.009-0.411,0.027-1.207
		c0.023-0.796,0.031-1.978,0.1-3.519c0.144-3.083,0.227-7.604,0.592-13.358c0.325-5.754,0.671-12.741,1.328-20.756
		c0.3-4.007,0.62-8.271,0.957-12.767c0.388-4.495,0.807-9.222,1.414-14.154c0.269-2.466,0.604-4.983,0.958-7.549
		c0.33-2.566,0.729-5.179,1.13-7.838c0.809-5.317,1.755-10.814,2.666-16.466c0.907-5.651,1.921-11.457,2.754-17.39
		c0.802-5.934,1.578-11.996,1.988-18.161c0.286-3.083,0.342-6.191,0.517-9.321c0.025-1.565,0.051-3.136,0.077-4.712
		c0.027-1.576,0.058-3.158,0.008-4.744c-0.055-3.172-0.09-6.364-0.298-9.572c-0.085-1.604-0.171-3.212-0.257-4.823
		c-0.129-1.611-0.249-3.227-0.441-4.845c-0.673-6.473-2.003-12.998-3.793-19.548c-1.79-6.55-4.175-13.126-6.692-19.702
		c-2.494-6.576-5.118-13.152-7.277-19.702c-0.585-1.638-1.036-3.274-1.558-4.908c-0.531-1.634-0.96-3.266-1.397-4.895
		c-0.926-3.259-1.65-6.509-2.306-9.745c-0.664-3.237-1.129-6.46-1.632-9.668c-0.482-3.208-1.019-6.399-1.448-9.572
		c-0.92-6.345-1.781-12.613-2.283-18.778c-0.521-6.165-0.71-12.227-0.521-18.161c0.182-5.934,0.724-11.739,1.464-17.39
		c0.749-5.651,1.725-11.148,2.787-16.466c0.258-1.329,0.513-2.647,0.766-3.954c0.27-1.306,0.585-2.601,0.871-3.884
		c0.605-2.566,1.113-5.083,1.765-7.549c2.43-9.864,5.295-18.906,8.139-26.921c2.861-8.015,5.776-15.002,8.492-20.756
		c2.702-5.754,5.117-10.275,6.919-13.358c0.922-1.541,1.608-2.723,2.105-3.519c0.517-0.796,0.783-1.207,0.783-1.207l2.836-4.372
		c2.415-3.723,7.39-4.783,11.112-2.368C502.551,35.057,503.839,37.66,503.859,40.27z"/>
</g>
<g id="Layer_1">
</g>
</svg>
