<?xml version="1.0" encoding="iso-8859-1"?>
<!-- Generator: Adobe Illustrator 19.1.0, SVG Export Plug-In . SVG Version: 6.00 Build 0)  -->
<!DOCTYPE svg PUBLIC "-//W3C//DTD SVG 1.1//EN" "http://www.w3.org/Graphics/SVG/1.1/DTD/svg11.dtd">
<svg version="1.1" xmlns="http://www.w3.org/2000/svg" xmlns:xlink="http://www.w3.org/1999/xlink" x="0px" y="0px"
	 viewBox="0 0 512 512" enable-background="new 0 0 512 512" xml:space="preserve">
<g id="Layer_5">
	<path fill="#75432E" d="M277.733,62.91c-0.023-0.911-0.046-1.819-0.069-2.723c-0.026-0.904-0.14-1.791-0.208-2.681
		c-0.177-1.771-0.28-3.544-0.531-5.251c-0.266-1.707-0.527-3.385-0.783-5.028c-0.274-1.64-0.664-3.199-0.985-4.743
		c-0.17-0.769-0.338-1.528-0.503-2.275c-0.2-0.73-0.397-1.45-0.59-2.157c-0.393-1.412-0.761-2.789-1.146-4.091
		c-0.858-2.541-1.573-4.944-2.363-6.948c-0.78-2.01-1.417-3.815-2.03-5.212c-1.205-2.823-1.894-4.436-1.894-4.436
		c-0.062-0.144-0.152-0.345-0.219-0.488c-3.522-7.5-12.457-10.724-19.957-7.201c-7.5,3.522-10.724,12.457-7.201,19.957l0.46,0.979
		c0,0,0.605,1.288,1.663,3.542c0.55,1.124,1.073,2.505,1.758,4.077c0.696,1.571,1.27,3.368,2.023,5.311
		c0.309,0.979,0.632,1.998,0.965,3.053c0.167,0.527,0.337,1.063,0.509,1.608c0.138,0.548,0.278,1.104,0.42,1.667
		c0.269,1.128,0.618,2.28,0.853,3.468c0.227,1.188,0.459,2.401,0.695,3.635c0.232,1.234,0.325,2.498,0.506,3.77
		c0.07,0.638,0.19,1.277,0.224,1.923c0.035,0.646,0.07,1.296,0.106,1.948c0.239,2.605,0.104,5.26,0.084,7.913
		c-0.253,2.651-0.372,5.308-0.879,7.911c-0.315,2.614-1.02,5.158-1.565,7.633c-0.12,0.621-0.317,1.228-0.507,1.829
		c-0.186,0.602-0.37,1.199-0.552,1.789c-0.378,1.178-0.679,2.343-1.086,3.458c-0.871,2.206-1.632,4.364-2.421,6.237
		c-0.773,1.699-1.483,3.258-2.122,4.66c-1.028,0.03-1.764,0.412-2.056,1.29c-2,6-7.145,7.182-14.145,15.35
		c-3.525,4.113,2.145,12.908,12.145,16.061c10.845,3.42,26.251,0.818,26.251-5.078c0-3.403-2.226-6.038-1.639-10.562
		c0.044-0.075,0.083-0.142,0.129-0.219c0.347-0.591,0.732-1.246,1.151-1.958c0.422-0.741,0.862-1.399,1.371-2.45
		c0.994-1.974,2.115-4.201,3.338-6.631c1.13-2.43,2.181-5.048,3.374-7.842c0.567-1.406,1.04-2.913,1.579-4.425
		c0.262-0.76,0.527-1.529,0.794-2.305c0.269-0.776,0.545-1.557,0.748-2.38c0.871-3.261,1.874-6.606,2.464-10.157
		c0.776-3.5,1.132-7.161,1.561-10.815C277.652,70.248,277.909,66.55,277.733,62.91z"/>
</g>
<g id="Layer_1">
</g>
</svg>
