<?xml version="1.0" encoding="iso-8859-1"?>
<!-- Generator: Adobe Illustrator 19.2.1, SVG Export Plug-In . SVG Version: 6.00 Build 0)  -->
<!DOCTYPE svg PUBLIC "-//W3C//DTD SVG 1.1//EN" "http://www.w3.org/Graphics/SVG/1.1/DTD/svg11.dtd">
<svg version="1.1" xmlns="http://www.w3.org/2000/svg" xmlns:xlink="http://www.w3.org/1999/xlink" x="0px" y="0px"
	 viewBox="0 0 512 512" enable-background="new 0 0 512 512" xml:space="preserve">
<g id="Layer_5">
	<path fill="#597B91" d="M239.514,91c0,2.659-2.156,5-4.815,5H188V86h46.7C237.359,86,239.514,88.341,239.514,91z M234.7,146H188v10
		h46.7c2.659,0,4.815-2.341,4.815-5C239.514,148.341,237.359,146,234.7,146z M234.7,206H188v10h46.7c2.659,0,4.815-2.341,4.815-5
		C239.514,208.341,237.359,206,234.7,206z M235,266.496V266h-47v10h47v0.125c2,0,4.815-2.156,4.815-4.815S237,266.496,235,266.496z"
		/>
</g>
<g id="Layer_1">
</g>
</svg>
