<?xml version="1.0" encoding="iso-8859-1"?>
<!-- Generator: Adobe Illustrator 18.1.1, SVG Export Plug-In . SVG Version: 6.00 Build 0)  -->
<!DOCTYPE svg PUBLIC "-//W3C//DTD SVG 1.1//EN" "http://www.w3.org/Graphics/SVG/1.1/DTD/svg11.dtd">
<svg version="1.1" xmlns="http://www.w3.org/2000/svg" xmlns:xlink="http://www.w3.org/1999/xlink" x="0px" y="0px"
	 viewBox="0 0 512 512" enable-background="new 0 0 512 512" xml:space="preserve">
<g id="Layer_2">
	<path fill="#FFD469" d="M440.246,391.463c-0.204-6.636-1.013-13.448-2.446-20.301c-1.477-6.838-3.574-13.724-6.44-20.402
		c-5.677-13.387-14.333-25.876-24.816-36.17c-5.247-5.145-10.899-9.801-16.828-13.873c-0.008-0.006-0.016-0.01-0.024-0.016
		c-18.472-38.492-55.922-66.79-101.476-71.365c0,0-0.137-0.014-0.407-0.041c-0.278-0.035-0.668-0.064-1.155-0.077
		c-0.495-0.02-1.11-0.045-1.84-0.075c-0.678,0.019-1.516-0.008-2.363,0.055c-1.236,0.038-2.585,0.175-4.05,0.376
		c3.754-61.293-66.816-45.669-66.816-45.669c37.528,1.324,51.007,43.526,27.906,67.673c-0.287,0.23-0.563,0.452-0.852,0.685
		c-1.286,0.995-2.594,2.007-3.922,3.034c-1.297,1.066-2.678,2.074-4.065,3.111c-1.382,1.046-2.782,2.106-4.2,3.18
		c-1.44,1.051-2.898,2.114-4.371,3.189c-2.912,2.202-6.008,4.304-9.081,6.563c-6.237,4.392-12.746,8.927-19.469,13.524
		c-6.762,4.532-13.704,9.191-20.828,13.758c-7.132,4.555-14.446,8.982-21.799,13.312c-7.393,4.229-14.859,8.212-22.204,12.135
		c-1.847,0.975-3.679,1.941-5.494,2.898c-1.819,0.977-3.619,1.987-5.434,2.886c-1.808,0.966-3.597,1.922-5.364,2.867
		c-1.788,0.938-3.553,1.865-5.296,2.779c-3.485,1.92-6.945,3.616-10.291,5.463c-3.359,1.771-6.643,3.479-9.816,5.209
		c-3.185,1.641-6.261,3.311-9.216,4.904c-2.964,1.51-5.787,3.153-8.479,4.56c-2.688,1.454-5.232,2.8-7.599,4.144
		c-2.368,1.324-4.57,2.463-6.567,3.629c-3.997,2.284-7.202,4.078-9.399,5.414c-1.099,0.667-1.946,1.187-2.518,1.563
		c-0.573,0.366-0.868,0.555-0.868,0.555l-4.466,2.85c-7.142,4.6-13.131,11.182-17.048,19.418
		c-11.209,23.574-1.186,51.771,22.388,62.98c0,0,0.366,0.174,1.075,0.511c0.71,0.347,1.765,0.824,3.147,1.434
		c2.763,1.178,6.842,2.978,12.096,4.732c2.629,0.924,5.554,1.887,8.758,2.852c3.202,0.94,6.681,1.849,10.428,2.836
		c1.87,0.449,3.802,0.855,5.801,1.302c2,0.451,4.061,0.881,6.182,1.295c4.24,0.81,8.71,1.484,13.409,2.18
		c4.68,0.556,9.595,1.151,14.681,1.521c5.083,0.348,10.372,0.687,15.793,0.732c10.875,0.274,22.333-0.284,34.178-1.431
		c11.833-1.214,23.979-3.274,36.32-5.761c12.315-2.579,24.75-5.814,37.078-9.614c12.27-3.942,24.422-8.458,36.127-13.598
		c11.65-5.25,22.931-10.947,33.495-17.136c10.532-6.241,20.521-12.663,29.598-19.354c9.158-6.569,17.456-13.31,24.98-19.683
		c3.709-3.257,7.283-6.354,10.591-9.405c1.642-1.54,3.242-3.041,4.797-4.5c1.541-1.474,3.091-2.847,4.474-4.306
		c0.193-0.206,0.368-0.414,0.557-0.621c0.289,0.477,0.587,0.949,0.865,1.433c4.151,7.318,6.983,15.444,8.579,23.899
		c0.806,4.223,1.263,8.538,1.436,12.848c0.161,2.153,0.114,4.317,0.133,6.465c-0.081,2.152-0.12,4.294-0.328,6.419
		c-0.553,8.528-2.23,16.752-4.138,24.4c-0.979,3.82-2.125,7.465-3.232,10.969c-0.558,1.749-1.196,3.428-1.766,5.086
		c-0.279,0.832-0.604,1.633-0.914,2.43c-0.302,0.802-0.6,1.592-0.893,2.37c-0.564,1.57-1.214,3.048-1.809,4.497
		c-0.594,1.45-1.183,2.844-1.78,4.178c-0.589,1.343-1.154,2.63-1.693,3.861c-0.578,1.219-1.13,2.382-1.653,3.486
		c-1.016,2.264-1.987,4.146-2.817,5.844c-0.417,0.855-0.767,1.632-1.156,2.378c-0.4,0.752-0.763,1.434-1.088,2.046
		c-1.269,2.47-1.946,3.788-1.946,3.788c-1.465,2.873-1.148,6.489,1.099,9.072c2.953,3.397,8.101,3.756,11.498,0.803
		c0,0,1.118-0.972,3.215-2.794c2.007-1.721,5.254-4.867,8.968-8.751c3.759-3.893,8.069-8.898,12.707-14.994
		c2.344-3.036,4.634-6.426,7.02-10.062c1.138-1.851,2.397-3.709,3.522-5.713c1.111-2.012,2.34-4.028,3.422-6.197
		c1.118-2.148,2.269-4.346,3.324-6.662c0.541-1.151,1.084-2.313,1.591-3.511c0.497-1.205,0.998-2.42,1.503-3.646
		c1.959-4.937,3.87-10.169,5.311-15.765C438.795,417.222,440.701,404.748,440.246,391.463z"/>
</g>
<g id="Layer_3">
	<path fill="#FFECC3" d="M480.846,97.01c-0.044-3.528,0.015-6.924-0.279-10.252c-0.418-6.63-0.893-12.791-1.424-18.452
		c-0.339-2.956-0.737-5.832-1.119-8.538c-0.369-2.712-0.769-5.285-1.147-7.715c-0.367-2.429-0.772-4.717-1.13-6.858
		c-0.433-1.947-0.942-3.616-1.36-5.253c-0.435-1.616-0.837-3.111-1.206-4.481c-0.396-1.371-0.756-2.616-1.078-3.731
		c-1.29-4.46-2.104-6.842-2.104-6.842c-3.425-9.88-11.014-18.428-21.489-22.606c-19.141-7.635-40.848,1.693-48.483,20.834
		c0,0-0.932,2.338-2.447,6.727c-0.378,1.097-0.8,2.323-1.265,3.671c-0.437,1.349-0.915,2.822-1.43,4.414
		c-0.513,1.57-1.065,3.352-1.652,5.079c-0.637,1.527-1.339,3.138-2.019,4.828c-1.393,3.386-2.855,7.054-4.367,11.035
		c-1.786,4.219-3.619,8.742-5.487,13.528c-0.892,2.4-2.008,4.83-3.108,7.323c-1.116,2.491-2.171,5.054-3.292,7.661
		c-0.584,1.299-1.052,2.636-1.691,3.95c-0.624,1.313-1.256,2.643-1.896,3.987c-1.27,2.683-2.499,5.427-3.776,8.207
		c-0.32,0.695-0.634,1.394-0.94,2.098c-0.35,0.691-0.703,1.386-1.057,2.085c-0.705,1.391-1.418,2.796-2.137,4.214
		c-1.388,2.824-2.802,5.701-4.241,8.627c-1.583,2.863-3.124,5.779-4.704,8.718c-0.797,1.466-1.543,2.96-2.317,4.452
		c-0.779,1.49-1.702,2.937-2.549,4.419c-1.731,2.95-3.39,5.96-5.096,8.981c-1.782,2.989-3.667,5.965-5.502,8.987
		c-0.927,1.507-1.849,3.022-2.741,4.558c-0.915,1.526-1.97,2.991-2.949,4.498c-2.015,2.985-3.94,6.04-5.895,9.101
		c-8.048,11.602-16.551,23.262-25.715,34.646c-27.634-50.771-94.608-115.841-185.502-61.487
		C11.329,210.168,54.969,280.207,68.102,258.32s91.926-76.199,136.413-72.33c32.681,2.843,67.274-6.703,74.037,54.82
		c1.71,15.554,8.407,18.588,15.614,16.864c34.529,0.66,120.577,26.35,123.007,123.783c2.582,103.516-53.838,106.434-47.029,123.944
		c6.809,17.51,120.854-61.899,96.303-187.256c-5.251-26.812-15.277-44.761-27.414-56.606c3.765-6.94,7.288-13.917,10.567-20.889
		c2.096-4.81,4.162-9.574,6.114-14.327c0.967-2.38,2.001-4.71,2.887-7.094c0.881-2.387,1.724-4.774,2.552-7.149
		c0.827-2.371,1.65-4.73,2.468-7.075c0.792-2.352,1.678-4.645,2.327-7.018c1.348-4.725,2.706-9.367,3.951-13.966
		c0.605-2.306,1.279-4.565,1.804-6.856c0.508-2.298,1.035-4.567,1.502-6.834c0.947-4.53,1.894-8.969,2.758-13.338
		c0.702-4.419,1.343-8.762,1.945-13.014c0.287-2.126,0.572-4.231,0.854-6.317c0.138-1.04,0.275-2.075,0.411-3.105
		c0.087-1.04,0.174-2.075,0.261-3.104c0.316-4.12,0.646-8.133,0.9-12.054c0.123-1.957,0.244-3.892,0.364-5.803
		c0.13-1.905,0.101-3.814,0.126-5.684C480.837,104.166,480.887,100.538,480.846,97.01z"/>
</g>
<g id="Layer_4">
	<path fill="#FFDF95" d="M427.638,252.474c1.621-2.853,3.203-5.722,4.72-8.608c6.97-13.584,12.638-27.513,17.225-41.247
		c1.052-3.468,2.061-6.915,3.042-10.328c0.479-1.711,1.015-3.392,1.436-5.1c0.4-1.713,0.798-3.417,1.193-5.112
		c0.762-3.395,1.609-6.721,2.242-10.055c0.58-3.348,1.171-6.644,1.701-9.901c0.256-1.63,0.568-3.235,0.768-4.851
		c0.185-1.617,0.368-3.222,0.55-4.814c0.343-3.186,0.711-6.311,1.005-9.388c0.163-3.09,0.323-6.129,0.48-9.111
		c0.073-1.486,0.146-2.959,0.218-4.417c0.035-0.728,0.069-1.452,0.103-2.172c-0.007-0.724-0.013-1.444-0.02-2.161
		c-0.035-2.858-0.069-5.657-0.103-8.392c-0.036-2.728-0.029-5.384-0.288-7.981c-0.196-2.587-0.386-5.107-0.571-7.557
		c-0.196-2.443-0.317-4.81-0.695-7.099c-0.65-4.576-1.195-8.836-1.824-12.752c-0.782-3.991-1.513-7.643-2.238-10.906
		c-0.356-1.628-0.692-3.168-1.009-4.618c-0.361-1.382-0.755-2.624-1.092-3.809c-0.678-2.356-1.287-4.356-1.787-5.977
		c-0.486-1.623-0.902-2.861-1.167-3.698c-0.269-0.836-0.408-1.268-0.408-1.268c-1.164-3.607-4.412-6.342-8.425-6.652
		c-5.301-0.409-9.93,3.557-10.339,8.858c0,0-0.035,0.452-0.102,1.328c-0.063,0.875-0.181,2.177-0.277,3.868
		c-0.11,1.693-0.239,3.779-0.352,6.228c-0.064,1.221-0.132,2.533-0.205,3.932c-0.132,1.318-0.273,2.718-0.422,4.197
		c-0.32,2.951-0.564,6.178-0.887,9.679c-0.509,3.59-0.924,7.447-1.436,11.545c-0.211,2.049-0.587,4.155-0.926,6.317
		c-0.343,2.156-0.697,4.373-1.059,6.649c-0.201,1.133-0.325,2.284-0.558,3.441c-0.229,1.155-0.46,2.324-0.695,3.507
		c-0.465,2.355-0.94,4.765-1.425,7.227c-0.119,0.613-0.239,1.23-0.359,1.849c-0.145,0.616-0.291,1.235-0.437,1.857
		c-0.293,1.241-0.589,2.495-0.887,3.761c-0.596,2.52-1.203,5.087-1.821,7.699c-0.758,2.581-1.46,5.21-2.204,7.867
		c-0.361,1.329-0.725,2.667-1.092,4.016c-0.369,1.346-0.851,2.677-1.274,4.028c-0.884,2.694-1.725,5.43-2.596,8.189
		c-0.932,2.743-1.986,5.483-2.972,8.268c-0.499,1.389-1,2.786-1.504,4.19c-0.505,1.402-1.122,2.776-1.679,4.174
		c-1.152,2.784-2.284,5.599-3.413,8.437c-4.958,11.194-10.501,22.505-16.819,33.611c-4.228,7.249-8.744,14.414-13.518,21.437
		C389.539,239.373,409.798,241.059,427.638,252.474z"/>
</g>
<g id="Layer_5">
	<path fill="#8E6049" d="M41.344,411.29c0,11.172-3.092,14.004-14.585,14.004s-14.585-2.832-14.585-14.004
		s3.092-14.004,14.585-14.004S41.344,400.118,41.344,411.29z"/>
</g>
<g id="Layer_6">
	<path fill="#FFDF95" d="M266.937,291.505c0,0-0.313,0.627-0.935,1.765c-0.311,0.57-0.697,1.269-1.167,2.075
		c-0.465,0.818-0.966,1.714-1.765,2.817c-0.741,1.093-1.606,2.268-2.546,3.567c-0.468,0.652-0.968,1.321-1.496,2.009
		c-0.497,0.638-1.012,1.298-1.544,1.981c-1.064,1.363-2.24,2.767-3.464,4.278c-1.234,1.506-2.586,2.948-3.973,4.535
		c-1.409,1.542-2.891,3.171-4.445,4.777c-1.583,1.582-3.22,3.218-4.902,4.9c-3.421,3.302-7.104,6.653-11.017,10.018
		c-3.951,3.291-8.051,6.692-12.401,9.885c-2.174,1.599-4.351,3.231-6.59,4.797c-2.245,1.559-4.529,3.082-6.813,4.604l-3.443,2.257
		c-1.172,0.719-2.342,1.438-3.511,2.155c-2.344,1.423-4.682,2.834-7.026,4.193c-2.37,1.336-4.755,2.61-7.105,3.871
		c-2.359,1.247-4.681,2.48-7.06,3.582c-4.723,2.238-9.288,4.342-13.825,6.082c-2.259,0.866-4.426,1.758-6.567,2.523
		c-2.182,0.728-4.291,1.447-6.335,2.066c-2.051,0.612-3.978,1.251-5.867,1.755c-1.935,0.46-3.747,0.936-5.477,1.301
		c-3.436,0.778-6.421,1.402-9.044,1.694c-5.141,0.696-8.088,0.835-8.088,0.835c-8.029,0.38-14.846-5.822-15.225-13.851
		c-0.228-4.82,1.915-9.202,5.402-12.018l1.266-1.008c0,0,2.038-1.624,5.62-4.014c0.448-0.297,0.913-0.625,1.411-0.938
		c0.495-0.308,1.013-0.652,1.555-1.052c1.077-0.786,2.262-1.571,3.512-2.431c1.245-0.871,2.6-1.711,4.003-2.638
		c1.401-0.993,2.906-1.986,4.451-3.045c1.545-1.068,3.191-2.071,4.865-3.189c1.666-1.183,3.433-2.304,5.22-3.507
		c1.779-1.229,3.672-2.301,5.548-3.622c1.881-1.286,3.828-2.544,5.81-3.816c1.991-1.24,3.999-2.589,6.044-3.916
		c2.051-1.319,4.13-2.64,6.243-3.949c2.087-1.372,4.214-2.715,6.353-4.056c2.146-1.327,4.304-2.661,6.448-4.033
		c2.157-1.348,4.314-2.694,6.493-3.993c2.163-1.33,4.318-2.655,6.456-3.969c4.332-2.553,8.536-5.156,12.721-7.53
		c2.078-1.205,4.097-2.416,6.124-3.544c2.018-1.138,3.993-2.251,5.915-3.335c3.845-2.159,7.553-4.133,10.92-5.979
		c3.451-1.795,6.526-3.453,9.329-4.875c0.704-0.351,1.385-0.69,2.043-1.018c0.598-0.311,1.184-0.604,1.76-0.877
		c1.146-0.551,2.197-1.075,3.187-1.517c0.957-0.404,1.919-0.968,2.749-1.395c0.823-0.442,1.537-0.804,2.118-1.094
		c1.162-0.582,1.8-0.873,1.8-0.873l0.059-0.027c6.219-2.835,13.558-0.091,16.393,6.128
		C268.728,284.362,268.521,288.29,266.937,291.505z"/>
</g>
</svg>
