<?xml version="1.0" encoding="iso-8859-1"?>
<!-- Generator: Adobe Illustrator 18.1.1, SVG Export Plug-In . SVG Version: 6.00 Build 0)  -->
<!DOCTYPE svg PUBLIC "-//W3C//DTD SVG 1.1//EN" "http://www.w3.org/Graphics/SVG/1.1/DTD/svg11.dtd">
<svg version="1.1" xmlns="http://www.w3.org/2000/svg" xmlns:xlink="http://www.w3.org/1999/xlink" x="0px" y="0px"
	 viewBox="0 0 512 512" enable-background="new 0 0 512 512" xml:space="preserve">
<g id="Layer_1">
</g>
<g id="Layer_2">
	<path fill="#2B3B47" d="M384.619,132.759c0,5.405-4.381,9.786-9.786,9.786c-53.909,0-100.22-33.129-119.662-80.093
		c-19.443,46.965-65.754,80.093-119.664,80.093c-5.405,0-9.786-4.381-9.786-9.786s4.381-9.786,9.786-9.786
		c60.586,0,109.877-49.291,109.877-109.877c0-5.405,4.381-9.786,9.786-9.786s9.787,4.381,9.787,9.786
		c0,60.586,49.29,109.877,109.876,109.877C380.238,122.973,384.619,127.354,384.619,132.759z"/>
</g>
<g id="Layer_3">
	<path fill="#FFB636" d="M1.265,227.373c0-66.976,54.295-121.271,121.271-121.271s121.271,54.295,121.271,121.271 M510.735,227.373
		c0-66.976-54.295-121.271-121.271-121.271s-121.271,54.295-121.271,121.271"/>
</g>
<g id="Layer_4">
	<path fill="#FFD469" d="M37.587,227.373c0-66.976,72.099-121.271,84.949-121.271S84.12,160.397,84.12,227.373 M351.048,227.373
		c0-66.976,51.266-121.271,38.416-121.271s-84.949,54.295-84.949,121.271"/>
</g>
<g id="Layer_5">
	<path fill="#A06C33" d="M122.536,250.252c-66.976,0-121.271-8.901-121.271-19.88c0-10.98,54.295-19.88,121.271-19.88
		s121.271,8.901,121.271,19.88C243.807,241.351,189.512,250.252,122.536,250.252z M510.735,230.372
		c0-10.98-54.295-19.88-121.271-19.88s-121.271,8.901-121.271,19.88c0,10.98,54.295,19.88,121.271,19.88
		S510.735,241.351,510.735,230.372z"/>
</g>
<g id="Layer_6">
	<path fill="#FFB636" d="M277.001,332.669c0,7.738-6.273,14.011-14.011,14.011s-14.011-6.273-14.011-14.011
		s6.273-14.011,14.011-14.011S277.001,324.932,277.001,332.669z M341.94,468.19c-6.828,0-12.363,5.535-12.363,12.363
		c0,6.828,5.535,12.363,12.363,12.363c6.828,0,12.363-5.535,12.363-12.363C354.303,473.726,348.768,468.19,341.94,468.19z
		 M70.596,404.686c-6.828,0-12.363,5.535-12.363,12.363c0,6.828,5.535,12.363,12.363,12.363c6.828,0,12.363-5.535,12.363-12.363
		C82.959,410.221,77.424,404.686,70.596,404.686z"/>
</g>
<g id="Layer_7">
	<path fill="#BEA4FF" d="M151.693,475.554c0,8.939-7.247,16.186-16.186,16.186c-8.939,0-16.186-7.247-16.186-16.186
		c0-8.939,7.247-16.186,16.186-16.186C144.447,459.367,151.693,466.614,151.693,475.554z M404.11,238.718
		c-5.911-6.059-14.208-10.141-23.364-11.494c-5.341-0.792-10.332,2.905-11.124,8.259c-0.791,5.353,2.906,10.333,8.259,11.124
		c4.866,0.719,9.314,2.831,12.205,5.793c1.295,1.328,3.4,4.013,2.947,7.079c-0.453,3.066-3.245,5.027-4.869,5.923
		c-3.625,2.001-8.492,2.733-13.359,2.015c-19.888-2.936-38.048,8.03-40.478,24.455c-2.428,16.424,11.779,32.179,31.67,35.12
		c0.104,0.015,0.206,0.011,0.31,0.023c9.652,1.544,15.567,7.947,14.847,12.816c-0.453,3.065-3.245,5.027-4.869,5.923
		c-3.625,2-8.492,2.736-13.359,2.015c-19.887-2.938-38.048,8.03-40.478,24.455c-2.428,16.424,11.779,32.179,31.67,35.12
		c0.485,0.071,0.968,0.106,1.445,0.106c4.776,0,8.959-3.498,9.679-8.365c0.791-5.352-2.906-10.332-8.259-11.124
		c-9.836-1.454-15.88-7.951-15.152-12.871c0.728-4.922,8.39-9.399,18.229-7.938c2.191,0.324,4.382,0.484,6.548,0.484
		c6.878,0,13.506-1.616,19.143-4.727c8.164-4.505,13.553-11.872,14.786-20.213c2.428-16.424-11.779-32.179-31.67-35.12
		c-0.131-0.019-0.26-0.024-0.391-0.038c-9.603-1.567-15.484-7.946-14.767-12.8c0.728-4.922,8.392-9.397,18.229-7.938
		c2.192,0.324,4.382,0.484,6.548,0.484c6.879,0,13.506-1.616,19.143-4.727c8.164-4.505,13.553-11.872,14.786-20.213
		C413.648,254.003,410.621,245.392,404.11,238.718z"/>
</g>
<g id="Layer_8">
	<path fill="#FF6E83" d="M288.333,433.236c0,8.939-7.247,16.186-16.186,16.186c-8.939,0-16.186-7.247-16.186-16.186
		c0-8.939,7.247-16.186,16.186-16.186C281.086,417.049,288.333,424.296,288.333,433.236z M120.579,268.85
		c-6.291-6.119-14.986-10.123-24.484-11.273c-0.133-0.016-0.264-0.017-0.396-0.028c-8.554-1.181-14.349-6.623-13.841-10.816
		c0.746-6.157-3.641-11.753-9.797-12.499c-6.151-0.74-11.753,3.641-12.499,9.797c-2.127,17.559,12.731,33.317,33.827,35.874
		c0.118,0.014,0.233,0.011,0.35,0.021c4.442,0.605,8.503,2.419,11.18,5.023c1.139,1.108,3.006,3.336,2.708,5.801
		c-0.298,2.463-2.644,4.18-4.015,4.984c-3.306,1.938-7.826,2.733-12.405,2.177c-9.5-1.153-18.898,0.659-26.468,5.099
		c-8.432,4.944-13.881,12.838-14.95,21.655c-2.128,17.56,12.73,33.317,33.826,35.875c0.459,0.056,0.915,0.083,1.366,0.083
		c5.598,0,10.443-4.182,11.133-9.879c0.747-6.157-3.64-11.753-9.796-12.499c-8.772-1.063-14.75-6.62-14.234-10.877
		c0.299-2.464,2.644-4.181,4.016-4.985c3.305-1.938,7.827-2.733,12.404-2.177c1.867,0.227,3.729,0.338,5.575,0.338
		c7.547,0,14.811-1.869,20.893-5.437c8.433-4.944,13.881-12.838,14.95-21.655C130.991,284.633,127.586,275.666,120.579,268.85z
		 M453.695,498.15c5.186-3.4,6.633-10.361,3.231-15.548c-37.634-57.386-8.78-97.837,8.458-122.005
		c2.097-2.939,4.077-5.716,5.692-8.206c3.375-5.203,1.894-12.157-3.31-15.532s-12.157-1.893-15.532,3.31
		c-1.346,2.075-3.102,4.536-5.135,7.387c-17.856,25.035-55.014,77.129-8.954,147.363c2.156,3.287,5.743,5.072,9.401,5.072
		C449.66,499.991,451.797,499.396,453.695,498.15z"/>
</g>
<g id="Layer_9">
	<path fill="#59CAFC" d="M234.634,285.982c0,6.193-5.02,11.213-11.213,11.213s-11.213-5.02-11.213-11.213s5.02-11.213,11.213-11.213
		S234.634,279.789,234.634,285.982z M473.685,267.115c-6.012,0-10.885,4.874-10.885,10.885s4.873,10.885,10.885,10.885
		c6.012,0,10.885-4.874,10.885-10.885S479.696,267.115,473.685,267.115z M161.53,431.654c1.691-1.831,3.719-3.888,5.867-6.066
		c10.897-11.054,25.822-26.191,32.28-46.893c7.758-24.87,1.097-51.3-19.8-78.557c-3.627-4.732-10.402-5.624-15.132-1.999
		c-4.73,3.627-5.625,10.401-1.999,15.132c16.61,21.665,21.95,40.963,16.325,58.995c-4.899,15.703-17.179,28.159-27.045,38.167
		c-2.274,2.307-4.422,4.485-6.352,6.574c-4.044,4.379-3.773,11.207,0.605,15.251c2.076,1.918,4.701,2.865,7.321,2.865
		C156.505,435.124,159.403,433.957,161.53,431.654z"/>
</g>
</svg>
