<?xml version="1.0" encoding="iso-8859-1"?>
<!-- Generator: Adobe Illustrator 18.1.1, SVG Export Plug-In . SVG Version: 6.00 Build 0)  -->
<!DOCTYPE svg PUBLIC "-//W3C//DTD SVG 1.1//EN" "http://www.w3.org/Graphics/SVG/1.1/DTD/svg11.dtd">
<svg version="1.1" xmlns="http://www.w3.org/2000/svg" xmlns:xlink="http://www.w3.org/1999/xlink" x="0px" y="0px"
	 viewBox="0 0 512 512" enable-background="new 0 0 512 512" xml:space="preserve">
<g id="Layer_10">
	<path fill="#D7F4F7" d="M234.442,12.492c0,0,0.598,0.061,1.718,0.173c1.137,0.188,2.681,0.083,5.002,1.036
		c1.12,0.41,2.489,0.777,3.638,1.569c1.195,0.747,2.641,1.431,3.787,2.639c0.614,0.57,1.247,1.158,1.9,1.763
		c0.645,0.62,1.119,1.401,1.708,2.141c1.245,1.463,2.025,3.278,2.933,5.158c1.481,3.834,2.559,8.36,2.036,13.19
		c-0.465,4.781-2.074,9.934-5.502,14.325c-3.307,4.462-8.59,7.811-14.15,9.086l-2.098,0.516c-0.257,0.1-1.064,0.232-1.57,0.348
		l-1.734,0.358l-1.275,0.414c-1.674,0.471-3.555,1.401-5.182,2.309c-3.27,1.957-6.125,4.627-8.11,7.923
		c-1.963,3.282-3.443,6.94-3.962,10.723c-0.555,3.756-0.534,7.54,0.186,11.006c0.722,3.459,1.94,6.631,3.539,9.303
		c1.621,2.656,3.553,4.838,5.52,6.539c1.96,1.726,4.001,2.862,5.705,3.794c1.76,0.803,3.191,1.464,4.219,1.754
		c1.018,0.36,1.561,0.552,1.561,0.552l0.139,0.049c0.737,0.261,1.124,1.07,0.863,1.806c-0.215,0.608-0.804,0.977-1.417,0.941
		c0,0-0.624-0.036-1.794-0.105c-1.18-0.048-2.906-0.271-5.095-0.773c-2.145-0.609-4.85-1.376-7.607-3.06
		c-2.782-1.602-5.747-3.893-8.288-7.044c-5.164-6.185-8.644-15.737-7.652-25.966c0.456-5.084,1.897-10.381,4.742-15.143
		c2.761-4.789,6.917-8.969,11.773-11.938c2.545-1.365,4.978-2.515,7.882-3.302l2.133-0.581l1.741-0.322
		c0.647-0.128,1.008-0.167,1.888-0.369l1.321-0.32c3.508-0.789,6.694-2.315,8.864-4.96c2.195-2.562,3.705-5.741,4.388-9.03
		c0.689-3.312,0.368-6.595-0.249-9.525c-0.461-1.416-0.834-2.841-1.544-4.014c-0.327-0.598-0.549-1.273-0.937-1.793
		c-0.395-0.525-0.778-1.034-1.15-1.528c-0.66-1.104-1.681-1.711-2.44-2.523c-0.773-0.865-1.629-1.238-2.372-1.748
		c-1.361-1.071-3.126-1.577-4.131-1.988c-1.046-0.416-1.604-0.638-1.604-0.638c-0.732-0.292-1.09-1.122-0.798-1.854
		C233.206,12.778,233.824,12.43,234.442,12.492z M151.965,65.311c-0.645-1.013-1.991-1.311-3.003-0.666c0,0-0.4,0.255-1.149,0.732
		c-0.755,0.564-1.834,0.973-3.259,2.293c-0.7,0.63-1.476,1.328-2.32,2.088c-0.73,0.825-1.518,1.715-2.361,2.667
		c-1.553,2.024-3.098,4.489-4.462,7.392c-1.196,2.949-2.278,6.299-2.712,9.991c-0.597,3.686-0.302,7.665,0.364,11.721
		c0.695,4.079,2.336,8.12,4.523,11.944c1.199,1.85,2.403,3.736,3.933,5.388c0.725,0.859,1.451,1.723,2.308,2.456l2.225,1.983
		c1.287,1.194,3.127,2.63,3.664,3.51c0.843,0.858,1.663,2.135,2.493,3.335c1.434,2.533,2.673,5.14,3.396,7.874
		c0.663,2.724,1.183,5.46,1.149,8.106c0.096,2.648-0.185,5.178-0.657,7.507c-0.343,1.119-0.489,2.294-0.857,3.326
		c-0.388,1.019-0.703,2.039-1.094,2.958c-0.418,0.924-0.81,1.788-1.172,2.589c-0.449,0.75-0.867,1.455-1.229,2.122
		c-0.693,1.366-1.525,2.222-1.955,2.962c-0.475,0.709-0.728,1.087-0.728,1.087l-0.189,0.281c-0.425,0.638-0.499,1.481-0.121,2.208
		c0.553,1.064,1.864,1.479,2.928,0.926c0,0,0.454-0.237,1.305-0.678c0.818-0.491,2.193-1.055,3.582-2.239
		c0.728-0.557,1.554-1.176,2.389-1.924c0.777-0.814,1.617-1.695,2.515-2.636c1.665-2.012,3.311-4.508,4.744-7.471
		c1.223-3.016,2.45-6.438,2.831-10.234c0.565-3.777,0.285-7.868-0.532-11.986c-0.844-4.131-2.603-8.217-4.97-11.988
		c-1.287-1.819-2.528-3.644-4.329-5.442c-1.815-2.04-3.044-2.814-4.523-4.14l-2.015-1.7c-0.62-0.429-1.123-0.976-1.639-1.512
		c-1.113-1.003-1.971-2.22-2.889-3.388c-1.614-2.481-2.972-5.134-3.843-7.92c-0.814-2.785-1.321-5.632-1.317-8.369
		c-0.149-2.754,0.277-5.355,0.775-7.75c0.572-2.38,1.351-4.524,2.232-6.364c0.473-0.913,0.917-1.767,1.327-2.557
		c0.472-0.712,0.906-1.366,1.298-1.958c0.658-1.229,1.784-2.239,2.278-2.907c0.576-0.675,0.884-1.035,0.884-1.035
		C152.388,67.186,152.492,66.137,151.965,65.311z M347.48,65.311c-0.645-1.013-1.991-1.311-3.003-0.666c0,0-0.4,0.255-1.149,0.732
		c-0.755,0.564-1.834,0.973-3.259,2.293c-0.7,0.63-1.476,1.328-2.32,2.088c-0.73,0.825-1.518,1.715-2.361,2.667
		c-1.553,2.024-3.098,4.489-4.462,7.392c-1.196,2.949-2.278,6.299-2.712,9.991c-0.597,3.686-0.302,7.665,0.364,11.721
		c0.695,4.079,2.336,8.12,4.523,11.944c1.199,1.85,2.403,3.736,3.933,5.388c0.725,0.859,1.451,1.723,2.308,2.456l2.225,1.983
		c1.287,1.194,3.127,2.63,3.664,3.51c0.843,0.858,1.663,2.135,2.493,3.335c1.434,2.533,2.673,5.14,3.396,7.874
		c0.663,2.724,1.183,5.46,1.149,8.106c0.096,2.648-0.185,5.178-0.657,7.507c-0.343,1.119-0.489,2.294-0.857,3.326
		c-0.388,1.019-0.703,2.039-1.094,2.958c-0.418,0.924-0.81,1.788-1.172,2.589c-0.449,0.75-0.867,1.455-1.229,2.122
		c-0.693,1.366-1.525,2.222-1.955,2.962c-0.475,0.709-0.728,1.087-0.728,1.087l-0.189,0.281c-0.425,0.638-0.499,1.481-0.121,2.208
		c0.553,1.064,1.864,1.479,2.928,0.926c0,0,0.454-0.237,1.305-0.678c0.818-0.491,2.193-1.055,3.582-2.239
		c0.728-0.557,1.554-1.176,2.389-1.924c0.777-0.814,1.617-1.695,2.515-2.636c1.665-2.012,3.311-4.508,4.744-7.471
		c1.223-3.016,2.45-6.438,2.831-10.234c0.565-3.777,0.285-7.868-0.532-11.986c-0.844-4.131-2.603-8.217-4.97-11.988
		c-1.287-1.819-2.528-3.644-4.329-5.442c-1.815-2.04-3.044-2.814-4.523-4.14l-2.015-1.7c-0.62-0.429-1.123-0.976-1.639-1.512
		c-1.113-1.003-1.971-2.22-2.889-3.388c-1.614-2.481-2.972-5.134-3.843-7.92c-0.814-2.785-1.321-5.632-1.317-8.369
		c-0.149-2.754,0.277-5.355,0.775-7.75c0.572-2.38,1.351-4.524,2.232-6.364c0.473-0.913,0.917-1.767,1.327-2.557
		c0.472-0.712,0.906-1.366,1.298-1.958c0.658-1.229,1.784-2.239,2.278-2.907c0.576-0.675,0.884-1.035,0.884-1.035
		C347.903,67.186,348.006,66.137,347.48,65.311z M275.66,164.286c0.609-0.437,0.749-1.287,0.312-1.897c0,0-0.173-0.241-0.496-0.691
		c-0.284-0.443-0.896-1.132-1.278-1.931c-0.489-0.753-0.967-1.77-1.479-2.94c-0.429-1.186-0.87-2.516-0.985-3.98
		c-0.241-1.44-0.082-3.001,0.271-4.54c0.351-1.547,1.067-3.085,2.077-4.51c1.01-1.42,2.284-2.774,3.838-3.92
		c0.373-0.299,0.752-0.594,1.186-0.84l1.503-0.964c1.003-0.718,1.825-1.108,3.08-2.367c2.399-2.182,3.783-4.396,5.098-6.853
		c1.272-2.416,1.953-4.984,2.434-7.454c0.485-2.479,0.47-4.925,0.308-7.202c-0.186-2.284-0.697-4.404-1.338-6.294
		c-0.65-1.887-1.518-3.529-2.39-4.889c-0.91-1.352-1.806-2.436-2.68-3.216c-0.761-0.852-1.614-1.296-2.088-1.66
		c-0.499-0.34-0.765-0.521-0.765-0.521c-0.399-0.272-0.933-0.32-1.389-0.079c-0.659,0.348-0.911,1.164-0.564,1.823l0.116,0.22
		c0,0,0.131,0.249,0.377,0.715c0.202,0.498,0.664,1.057,0.981,1.961c0.37,0.858,0.804,1.871,1.113,3.11
		c0.338,1.214,0.657,2.591,0.791,4.128c0.245,1.507,0.204,3.186,0.167,4.919c-0.037,1.746-0.379,3.553-0.74,5.382
		c-0.406,1.825-1.063,3.628-1.856,5.339c-0.781,1.625-1.966,3.424-3.033,4.412c-0.317,0.498-1.537,1.314-2.378,2.016l-0.044,0.034
		c-0.06,0.042,0.456-0.306,0.225-0.15l-0.026,0.019l-0.103,0.074l-0.204,0.148l-0.409,0.297l-0.81,0.596
		c-0.549,0.377-1.059,0.823-1.558,1.279c-2.039,1.74-3.801,3.856-5.028,6.208c-1.236,2.326-2.112,4.825-2.261,7.282
		c-0.159,2.432,0.045,4.753,0.712,6.716c0.604,1.985,1.538,3.597,2.392,4.953c0.958,1.281,1.855,2.335,2.713,3.135
		c0.825,0.864,1.471,1.21,1.913,1.589c0.441,0.336,0.676,0.516,0.676,0.516C274.503,164.613,275.162,164.644,275.66,164.286z"/>
</g>
<g id="Layer_1">
</g>
</svg>
