<?xml version="1.0" encoding="iso-8859-1"?>
<!-- Generator: Adobe Illustrator 18.1.1, SVG Export Plug-In . SVG Version: 6.00 Build 0)  -->
<!DOCTYPE svg PUBLIC "-//W3C//DTD SVG 1.1//EN" "http://www.w3.org/Graphics/SVG/1.1/DTD/svg11.dtd">
<svg version="1.1" xmlns="http://www.w3.org/2000/svg" xmlns:xlink="http://www.w3.org/1999/xlink" x="0px" y="0px"
	 viewBox="0 0 512 512" enable-background="new 0 0 512 512" xml:space="preserve">
<g id="Layer_2">
	<path fill="#0D7A7C" d="M59.006,310.554h395.988c15.613,0,28.285,10.583,28.285,23.624v106.307
		c0,13.052-12.672,23.624-28.285,23.624H59.006c-15.613,0-28.285-10.572-28.285-23.624V334.178
		C30.721,321.138,43.393,310.554,59.006,310.554z"/>
</g>
<g id="Layer_3">
	<path fill="#332A23" d="M257,30.447c14.647,0,26.959,9.405,31.605,22.447h24.512C313.117,28.101,287.999,8,257,8
		c-30.988,0-56.117,20.101-56.117,44.894h24.512C230.041,39.852,242.365,30.447,257,30.447z"/>
</g>
<g id="Layer_4">
	<path fill="#065654" d="M153.936,52.894h206.128c48.764,0,88.341,43.373,88.341,96.852v322.838
		c0,17.837-13.192,32.284-29.447,32.284H95.042c-16.255,0-29.447-14.447-29.447-32.284V149.745
		C65.595,96.267,105.142,52.894,153.936,52.894z"/>
</g>
<g id="Layer_5">
	<path fill="#0D7A7C" d="M109.765,52.894h294.469c32.524,0,58.894,31.891,58.894,71.226v71.226c0,39.335-26.37,71.244-58.894,71.244
		H109.765c-32.524,0-58.894-31.909-58.894-71.244V124.12C50.872,84.785,77.241,52.894,109.765,52.894z"/>
</g>
<g id="Layer_6">
	<path fill="#F2A74E" d="M139.212,362.087c0,0,11.352,29.447,22.542,29.447c10.881,0,21.629-29.447,21.629-29.447V52.894h-44.17
		V362.087z M330.617,52.894v309.193c0,0,11.352,29.447,22.542,29.447c10.881,0,21.629-29.447,21.629-29.447V52.894H330.617z"/>
</g>
<g id="Layer_7">
	<path fill="#332A23" d="M146.574,332.64h29.447c12.197,0,22.085-9.888,22.085-22.085v0c0-12.197-9.888-22.085-22.085-22.085
		h-29.447c-12.197,0-22.085,9.888-22.085,22.085v0C124.489,322.752,134.377,332.64,146.574,332.64z M315.894,310.554
		L315.894,310.554c0,12.197,9.888,22.085,22.085,22.085h29.447c12.197,0,22.085-9.888,22.085-22.085v0
		c0-12.197-9.888-22.085-22.085-22.085h-29.447C325.782,288.469,315.894,298.357,315.894,310.554z"/>
</g>
<g id="Layer_8">
	<path fill="#D7F4F7" d="M292.833,147.803l-23.889-23.878c-6.598-6.598-17.281-6.598-23.878,0l-23.899,23.878
		c-6.598,6.598-6.598,17.291,0,23.889l23.899,23.868c6.598,6.598,17.27,6.598,23.878,0l23.889-23.868
		C299.43,165.093,299.43,154.4,292.833,147.803z M247.006,165.063c0,2.819-2.288,5.107-5.107,5.107
		c-2.809,0-5.107-2.288-5.107-5.107V154.85c0-2.819,2.298-5.107,5.107-5.107c2.819,0,5.107,2.288,5.107,5.107V165.063z
		 M277.646,165.063c0,2.819-2.288,5.107-5.107,5.107c-2.809,0-5.107-2.288-5.107-5.107V154.85c0-2.819,2.298-5.107,5.107-5.107
		c2.819,0,5.107,2.288,5.107,5.107V165.063z"/>
</g>
</svg>
