<?xml version="1.0" encoding="iso-8859-1"?>
<!-- Generator: Adobe Illustrator 19.1.0, SVG Export Plug-In . SVG Version: 6.00 Build 0)  -->
<!DOCTYPE svg PUBLIC "-//W3C//DTD SVG 1.1//EN" "http://www.w3.org/Graphics/SVG/1.1/DTD/svg11.dtd">
<svg version="1.1" xmlns="http://www.w3.org/2000/svg" xmlns:xlink="http://www.w3.org/1999/xlink" x="0px" y="0px"
	 viewBox="0 0 512 512" enable-background="new 0 0 512 512" xml:space="preserve">
<g id="Layer_4">
	<path fill="#DEEDA2" d="M435.002,395.999c-3.182-10.937-9.603-18.091-7.613-27.79c2.244-10.944-1.215-22.454-8.688-29.746
		c-13.492-13.165-20.07-34.409-15.403-55.406c3.909-17.586,14.82-31.01,28.454-37.365c10.128-4.721,16.983-15.432,18.612-27.811
		c2.03-15.432,9.76-29.829,22.439-38.723c0.338-0.237,2.338-2.574,2.573-2.909c1.473-2.099,3.254-3.125-2.006-2.131
		c-17.075,3.227-35.16-5.876-50.921,3.288c-14.608,8.494-23.514,22.243-25.853,36.98c-1.877,11.822-9.775,22.052-21.444,26.56
		c-15.708,6.069-28.28,18.889-32.783,35.684c-5.377,20.052,2.202,40.341,17.747,52.913c8.61,6.964,12.596,17.956,10.01,28.408
		c-2.292,9.263-1.994,19.472,1.673,29.918c5.211,14.844,17.58,26.638,33.219,31.593c12.338,3.909,24.915-0.525,26.249-5.351
		S437.295,403.88,435.002,395.999z"/>
</g>
<g id="Layer_1">
</g>
</svg>
