<?xml version="1.0" encoding="iso-8859-1"?>
<!-- Generator: Adobe Illustrator 18.1.1, SVG Export Plug-In . SVG Version: 6.00 Build 0)  -->
<!DOCTYPE svg PUBLIC "-//W3C//DTD SVG 1.1//EN" "http://www.w3.org/Graphics/SVG/1.1/DTD/svg11.dtd">
<svg version="1.1" xmlns="http://www.w3.org/2000/svg" xmlns:xlink="http://www.w3.org/1999/xlink" x="0px" y="0px"
	 viewBox="0 0 512 512" enable-background="new 0 0 512 512" xml:space="preserve">
<g id="Layer_5">
	<path fill="#FFD469" d="M90.514,212.454C90.514,212.454,90.514,212.453,90.514,212.454c-11.194-2.796-15.38-15.524-8.121-28.642
		c18.508-33.03,40.886-65.119,67.021-95.575c10.247-12.121,30.784-18.009,44.404-12.831l0,0c13.65,5.17,14.749,18.641,3.663,29.767
		c-27.922,28.354-52.189,58.603-72.651,90.057C116.653,207.612,101.74,215.24,90.514,212.454z M189.193,266.414
		c22.029-13.558,45.644-25.81,70.711-36.473c14.413-6.1,20.791-18.269,12.965-27.615l0,0c-7.793-9.34-27.333-11.759-42.189-4.82
		c-25.707,11.884-49.906,25.352-72.465,40.123c-13.064,8.59-15.613,22.003-6.935,29.501l0,0
		C159.991,274.64,176.491,274.173,189.193,266.414z"/>
</g>
<g id="Layer_1">
</g>
</svg>
