<?xml version="1.0" encoding="iso-8859-1"?>
<!-- Generator: Adobe Illustrator 18.1.1, SVG Export Plug-In . SVG Version: 6.00 Build 0)  -->
<!DOCTYPE svg PUBLIC "-//W3C//DTD SVG 1.1//EN" "http://www.w3.org/Graphics/SVG/1.1/DTD/svg11.dtd">
<svg version="1.1" xmlns="http://www.w3.org/2000/svg" xmlns:xlink="http://www.w3.org/1999/xlink" x="0px" y="0px"
	 viewBox="0 0 512 512" enable-background="new 0 0 512 512" xml:space="preserve">
<g id="Layer_2">
	<path fill="#16992B" d="M168.478,104.284c0,0-0.197-0.159-0.578-0.467c-0.38-0.308-0.964-0.765-1.628-1.364
		c-0.335-0.312-0.74-0.586-1.114-1.097c-0.37-0.473-0.773-1.006-1.204-1.604c-0.922-1.249-1.672-2.536-2.613-4.152
		c-1.721-3.194-3.315-7.477-3.957-12.735c-0.661-5.233-0.325-11.42,1.306-17.731c1.622-6.264,4.469-12.673,8.164-18.404
		c1.831-2.942,3.882-5.617,6.079-8.255c2.189-2.564,4.54-5.033,6.982-7.28c4.896-4.528,10.196-8.355,15.651-11.55
		c5.449-3.199,11.099-5.706,16.686-7.772c11.204-4.139,22.305-6.358,32.652-7.176c5.187-0.392,10.155-0.478,14.887-0.301
		c4.731,0.173,9.199,0.595,13.352,1.153c4.154,0.557,7.997,1.253,11.467,1.952c3.472,0.706,6.56,1.391,9.225,2.019
		c2.75,0.602,4.91,1.076,6.383,1.398c1.595,0.336,2.446,0.515,2.446,0.515l0.37,0.078c2.919,0.615,4.808,3.44,4.301,6.355
		c0,0-0.168,0.959-0.677,2.689c-0.518,1.675-1.393,4.158-2.815,6.962c-2.761,5.756-7.726,12.96-14.203,19.884
		c-3.233,3.473-6.829,6.895-10.657,10.154c-3.826,3.267-7.91,6.364-12.08,9.284c-8.361,5.814-17.211,10.723-25.55,14.744
		c-4.188,2.001-8.195,3.849-12.068,5.312c-3.856,1.48-7.531,2.655-10.961,3.531c-1.735,0.435-3.357,0.804-4.992,1.103
		c-1.567,0.3-3.17,0.547-4.658,0.72c-3.046,0.385-5.825,0.559-8.7,0.835c-2.811,0.274-5.649,0.705-8.408,1.568
		c-2.753,0.844-5.369,2.125-7.653,3.523c-1.128,0.692-2.136,1.46-3.051,2.013c-0.455,0.3-0.881,0.6-1.272,0.889
		c-0.414,0.251-0.77,0.67-1.09,0.977c-0.623,0.641-1.175,1.135-1.534,1.468c-0.36,0.333-0.546,0.504-0.546,0.504
		C174.178,106.098,170.786,106.154,168.478,104.284z"/>
</g>
<g id="Layer_3">
	<path fill="#FF9C7F" d="M488.402,221.14c15.854,81.39-18.031,184.585-86.466,228.622c-34.524,22.216-46.798,44.193-79.658,51.351
		c-29.709,6.471-35.786-5.919-85.784-12.918C151.401,476.284,73.434,390.21,56.874,305.198
		C33.662,186.035,119.056,92.797,238.22,69.585S465.19,101.977,488.402,221.14z"/>
</g>
<g id="Layer_4">
	<path fill="#45BF53" d="M11.347,117.029c0,0,0.094-0.245,0.277-0.721c0.181-0.472,0.441-1.192,0.819-2.036
		c0.73-1.755,1.886-4.137,3.456-6.989c0.782-1.434,1.707-2.882,2.695-4.531c1.03-1.537,2.146-3.213,3.374-4.935
		c2.477-3.387,5.41-6.93,8.79-10.422c6.753-6.996,15.33-13.73,25.344-19.046c5.004-2.665,10.362-4.983,15.985-6.887
		c5.615-1.938,11.531-3.3,17.558-4.407c6.026-1.117,12.222-1.749,18.438-1.995c6.216-0.246,12.471-0.034,18.626,0.696
		c12.292,1.413,24.263,4.88,34.198,10.055c4.957,2.587,9.401,5.515,13.025,8.715c0.907,0.768,1.772,1.531,2.595,2.322
		c0.806,0.818,1.555,1.579,2.268,2.391c0.708,0.805,1.37,1.521,1.973,2.296c0.596,0.799,1.142,1.557,1.642,2.27
		c2.008,2.92,3.145,5.502,3.787,7.284c0.326,0.893,0.497,1.636,0.632,2.098c0.123,0.47,0.186,0.713,0.186,0.713
		c0.641,2.458-0.748,4.968-3.126,5.754l-1.706,0.559c0,0-1.083,0.355-2.776,0.981c-0.824,0.288-1.915,0.796-2.986,1.253
		c-0.535,0.234-1.153,0.547-1.762,0.866c-0.627,0.341-1.192,0.595-1.851,0.973c-1.299,0.737-2.625,1.559-3.992,2.423
		c-0.66,0.428-1.393,0.934-2.098,1.445c-0.341,0.237-0.688,0.478-1.041,0.724c-0.357,0.259-0.72,0.523-1.089,0.791
		c-2.87,2.08-5.854,4.402-9.003,6.784c-3.149,2.384-6.468,4.829-10,7.211c-3.533,2.387-7.269,4.697-11.237,6.89
		c-3.961,2.206-8.138,4.22-12.502,6.017c-4.364,1.798-8.891,3.465-13.576,4.786c-4.682,1.341-9.445,2.618-14.357,3.284
		c-4.899,0.72-9.895,1.047-14.919,0.976c-10.038-0.121-20.227-1.932-29.64-4.793c-4.701-1.42-9.198-3.086-13.326-4.834
		c-1.029-0.427-2.049-0.9-3.024-1.321c-0.993-0.463-1.95-0.91-2.87-1.339c-1.888-0.974-3.594-1.765-5.204-2.642
		c-1.619-0.901-3.038-1.616-4.347-2.419c-0.647-0.379-1.246-0.729-1.795-1.05c-0.562-0.35-1.073-0.668-1.531-0.953
		c-0.912-0.556-1.641-1.053-2.127-1.375c-0.491-0.34-0.744-0.515-0.744-0.515l-0.975-0.675
		C11.221,122.188,10.435,119.406,11.347,117.029z"/>
</g>
<g id="Layer_5">
	<path fill="#FFC2B6" d="M120.569,278.721c-0.311,0-0.621-0.006-0.935-0.017c-14.792-0.507-26.373-12.909-25.866-27.701
		c0.937-27.336,11.141-54.639,28.733-76.88c9.183-11.608,26.036-13.574,37.645-4.394c11.608,9.182,13.576,26.037,4.394,37.645
		c-10.546,13.333-16.656,29.479-17.204,45.464C146.84,267.317,134.945,278.721,120.569,278.721z"/>
</g>
<g id="Layer_6">
	<path fill="#FF5F5F" d="M297.654,106.912c0,0,1.182,0.511,3.36,1.528c0.544,0.255,1.151,0.54,1.82,0.854
		c0.669,0.314,1.386,0.637,2.234,1.098c1.67,0.863,3.576,1.894,5.716,3.065c2.064,1.182,4.297,2.542,6.758,4.021
		c1.197,0.785,2.443,1.601,3.735,2.449c1.289,0.856,2.64,1.729,3.975,2.709c5.446,3.797,11.306,8.493,17.43,13.976
		c6.109,5.499,12.298,11.956,18.368,19.233c1.559,1.789,2.996,3.712,4.487,5.638c0.738,0.968,1.503,1.927,2.23,2.922
		c0.719,1.002,1.442,2.01,2.168,3.024c0.724,1.017,1.467,2.03,2.173,3.076c0.689,1.058,1.381,2.121,2.076,3.19
		c0.693,1.072,1.39,2.149,2.089,3.23c0.664,1.105,1.331,2.215,2.001,3.329c0.667,1.118,1.336,2.241,2.008,3.368
		c0.624,1.155,1.251,2.315,1.88,3.478l0.943,1.751l0.473,0.878l0.236,0.44l0.366,0.75c0.54,1.092,1.081,2.189,1.624,3.288
		s1.088,2.202,1.634,3.308c0.577,1.284,1.151,2.579,1.709,3.884c0.56,1.304,1.122,2.612,1.684,3.923
		c0.525,1.292,0.994,2.554,1.493,3.838c0.491,1.28,0.984,2.563,1.477,3.848c0.485,1.288,0.902,2.601,1.355,3.905
		c0.895,2.612,1.749,5.246,2.482,7.92c0.769,2.664,1.55,5.332,2.175,8.041c0.662,2.7,1.361,5.397,1.843,8.138
		c0.529,2.731,1.095,5.456,1.482,8.208c0.42,2.746,0.89,5.483,1.169,8.239c0.316,2.751,0.641,5.496,0.794,8.248
		c0.17,2.75,0.428,5.484,0.467,8.221c0.243,5.465,0.145,10.895-0.079,16.245c-0.17,2.674-0.25,5.334-0.501,7.966
		c-0.284,2.629-0.518,5.241-0.848,7.82c-0.372,2.573-0.74,5.124-1.106,7.652c-0.449,2.515-0.954,4.995-1.426,7.448l-0.226,1.152
		l-0.195,0.835l-0.388,1.662l-0.386,1.653c-0.131,0.556-0.243,1.067-0.413,1.715c-0.318,1.231-0.634,2.454-0.948,3.669
		c-0.163,0.604-0.325,1.207-0.487,1.807c-0.172,0.573-0.342,1.145-0.513,1.714c-2.666,9.122-5.865,17.499-9.267,24.989
		c-3.406,7.491-7.015,14.095-10.487,19.753c-3.469,5.66-6.768,10.396-9.656,14.157c-0.719,0.94-1.399,1.83-2.039,2.667
		c-0.671,0.814-1.3,1.577-1.886,2.286c-1.161,1.422-2.168,2.613-3.011,3.558c-1.686,1.883-2.585,2.888-2.585,2.888
		c-3.815,4.262-10.363,4.624-14.625,0.809c-3.526-3.156-4.383-8.182-2.414-12.237l0.197-0.398c0,0,0.532-1.095,1.53-3.148
		c0.521-1.008,1.128-2.272,1.816-3.767c0.7-1.488,1.5-3.193,2.355-5.119c1.743-3.83,3.734-8.52,5.801-13.94
		c2.067-5.419,4.204-11.575,6.158-18.356c1.962-6.778,3.741-14.18,5.16-22.043l0.271-1.478l0.214-1.426
		c0.153-0.948,0.307-1.901,0.462-2.861c0.08-0.445,0.157-1.042,0.236-1.593l0.235-1.681l0.237-1.691l0.119-0.849l0.015-0.106
		c0.015-0.09-0.076,0.4-0.033,0.147l0.019-0.195l0.039-0.39c0.214-2.081,0.403-4.184,0.653-6.296
		c0.155-2.123,0.311-4.267,0.468-6.429c0.195-4.331,0.34-8.727,0.329-13.18c-0.026-4.452-0.222-8.952-0.515-13.478
		c-0.087-2.266-0.384-4.528-0.585-6.801c-0.169-2.277-0.563-4.536-0.825-6.813c-0.24-2.281-0.66-4.54-1.021-6.81
		c-0.329-2.276-0.826-4.523-1.279-6.777c-0.428-2.26-0.966-4.494-1.483-6.732c-0.477-2.249-1.102-4.455-1.705-6.663
		c-0.312-1.101-0.572-2.217-0.922-3.303l-1.016-3.265c-0.337-1.087-0.635-2.187-0.999-3.261c-0.37-1.072-0.74-2.143-1.109-3.211
		c-0.37-1.061-0.729-2.155-1.105-3.185c-0.386-0.992-0.77-1.982-1.154-2.97c-0.386-0.987-0.754-1.979-1.116-2.974
		c-0.483-1.135-0.965-2.267-1.445-3.395s-0.959-2.253-1.436-3.374l-0.089-0.21l-0.045-0.105c-0.049-0.11,0.27,0.569,0.114,0.238
		l-0.176-0.374l-0.351-0.747l-0.699-1.492c-0.464-0.994-0.927-1.985-1.388-2.972c-0.485-0.977-0.968-1.95-1.449-2.919
		c-3.881-7.741-8.123-15.027-12.534-21.722c-2.162-3.381-4.446-6.554-6.671-9.626c-1.135-1.523-2.252-3.02-3.347-4.49
		c-1.147-1.435-2.272-2.842-3.374-4.221c-1.078-1.407-2.239-2.689-3.319-4.001c-0.547-0.65-1.088-1.293-1.622-1.928
		c-0.554-0.617-1.101-1.227-1.641-1.829c-1.081-1.206-2.108-2.416-3.158-3.539c-1.058-1.12-2.085-2.208-3.081-3.263
		c-1.97-2.145-3.967-3.987-5.715-5.828c-1.83-1.75-3.511-3.358-5.03-4.811c-1.51-1.368-2.863-2.605-4.028-3.714
		c-0.555-0.546-1.192-1.073-1.754-1.551c-0.562-0.479-1.073-0.913-1.531-1.303c-1.828-1.562-2.782-2.426-2.782-2.426
		c-4.092-3.702-4.407-10.021-0.705-14.112C289.223,106.124,293.837,105.268,297.654,106.912z"/>
</g>
</svg>
