<?xml version="1.0" encoding="iso-8859-1"?>
<!-- Generator: Adobe Illustrator 18.1.1, SVG Export Plug-In . SVG Version: 6.00 Build 0)  -->
<!DOCTYPE svg PUBLIC "-//W3C//DTD SVG 1.1//EN" "http://www.w3.org/Graphics/SVG/1.1/DTD/svg11.dtd">
<svg version="1.1" xmlns="http://www.w3.org/2000/svg" xmlns:xlink="http://www.w3.org/1999/xlink" x="0px" y="0px"
	 viewBox="0 0 512 512" enable-background="new 0 0 512 512" xml:space="preserve">
<g id="Layer_6">
	<path fill="#FFB636" d="M504.003,143.275L363.519,2.792c-1.898-1.898-4.76-2.455-7.229-1.403c-2.471,1.05-4.057,3.494-4.007,6.178
		l0.016,0.836c0.007,0.323,0.018,0.765,0.001,1.337l-0.019,1.125c-0.021,1.415-0.046,3.177-0.194,5.144
		c-0.003,0.035-0.006,0.069-0.008,0.104l-0.268,4.488c-0.052,0.53-0.102,1.076-0.153,1.635c-0.1,1.089-0.204,2.232-0.331,3.383
		c-0.489,4.298-1.027,8.137-1.639,11.694l-0.293,1.68c-0.272,1.572-0.554,3.198-0.904,4.806l-0.262,1.282
		c-0.364,1.791-0.741,3.642-1.198,5.464l-0.305,1.291c-0.437,1.854-0.888,3.771-1.419,5.63l-0.495,1.828
		c-0.47,1.742-0.955,3.543-1.497,5.292c-1.423,4.734-3.027,9.507-4.775,14.202c-1.536,4.158-3.342,8.587-5.688,13.95
		c-3.965,9.102-8.291,17.79-12.856,25.821c-4.205,7.388-8.75,14.404-13.149,20.298c-4.735,6.364-8.679,10.588-10.603,12.535
		c-1.253,1.265-2.287,2.223-3.019,2.874c-0.718,0.319-1.393,0.766-1.981,1.355L43.768,403.095c-2.57,2.57-2.57,6.738,0,9.309
		l45.546,45.546c1.286,1.285,2.97,1.929,4.655,1.929s3.369-0.644,4.655-1.929l37.797-37.797c3.506,7.004,8.137,13.482,13.836,19.182
		c5.375,5.375,12.419,8.062,19.465,8.062c7.044,0,14.09-2.688,19.464-8.062c10.75-10.75,10.75-28.179,0-38.93
		c-3.521-3.521-5.461-8.203-5.461-13.183c0-4.98,1.939-9.661,5.461-13.183l127.592-127.592c3.521-3.521,8.202-5.46,13.183-5.46
		c4.979,0,9.661,1.939,13.183,5.461c10.752,10.75,28.18,10.75,38.93,0c10.75-10.75,10.75-28.179,0-38.929
		c-3.57-3.57-7.446-6.721-11.562-9.445c5.314-3.8,11.38-7.661,17.725-11.272c8.033-4.568,16.721-8.894,25.831-12.862
		c5.36-2.344,9.79-4.15,13.956-5.689c4.685-1.743,9.457-3.348,14.242-4.787c1.686-0.523,3.479-1.006,5.214-1.474l1.922-0.522
		c1.778-0.509,3.685-0.958,5.529-1.392l1.398-0.331c1.733-0.435,3.575-0.81,5.355-1.172l1.387-0.284
		c1.539-0.336,3.17-0.618,4.748-0.891l1.621-0.283c3.596-0.618,7.435-1.156,11.715-1.643c1.188-0.131,2.346-0.237,3.447-0.338
		l1.579-0.148l4.501-0.269c0.035-0.002,0.07-0.004,0.105-0.007c1.973-0.149,3.736-0.175,5.154-0.195l1.159-0.02
		c0.525-0.015,0.956-0.004,1.281,0.002l0.847,0.016c2.71,0.033,5.128-1.537,6.178-4.008
		C506.457,148.034,505.901,145.173,504.003,143.275z"/>
</g>
<g id="Layer_1">
</g>
</svg>
