<?xml version="1.0" encoding="iso-8859-1"?>
<!-- Generator: Adobe Illustrator 18.1.1, SVG Export Plug-In . SVG Version: 6.00 Build 0)  -->
<!DOCTYPE svg PUBLIC "-//W3C//DTD SVG 1.1//EN" "http://www.w3.org/Graphics/SVG/1.1/DTD/svg11.dtd">
<svg version="1.1" xmlns="http://www.w3.org/2000/svg" xmlns:xlink="http://www.w3.org/1999/xlink" x="0px" y="0px"
	 viewBox="0 0 512 512" enable-background="new 0 0 512 512" xml:space="preserve">
<g id="Layer_2">
	<path fill="#FFE1AB" d="M472.329,281.037c0,74.926-45.37,152.774-66.043,186.152c-1.531,2.472-3.65,4.61-6.17,6.356
		c0.018,0.234,0.034,0.467,0.034,0.702c0,19.299-60.577,34.945-135.303,34.945c-68.182,0-124.575-13.026-133.93-29.968l0,0
		c-13.222-21.504-73.551-111.789-73.551-198.187c0-45.729,32.71-75.532,63.504-93.46c40.154-26.246,41.539-51.408,20.774-66.724
		s123.203-18.72,123.203-18.72s143.967,3.404,123.202,18.72s-19.38,40.478,20.774,66.724l-0.002,0
		C439.618,205.505,472.329,235.307,472.329,281.037z"/>
</g>
<g id="Layer_1">
</g>
</svg>
