<?xml version="1.0" encoding="iso-8859-1"?>
<!-- Generator: Adobe Illustrator 19.1.0, SVG Export Plug-In . SVG Version: 6.00 Build 0)  -->
<!DOCTYPE svg PUBLIC "-//W3C//DTD SVG 1.1//EN" "http://www.w3.org/Graphics/SVG/1.1/DTD/svg11.dtd">
<svg version="1.1" xmlns="http://www.w3.org/2000/svg" xmlns:xlink="http://www.w3.org/1999/xlink" x="0px" y="0px"
	 viewBox="0 0 512 512" enable-background="new 0 0 512 512" xml:space="preserve">
<g id="Layer_7">
	<path fill="#F27A15" d="M112.486,287.334c-2.944,0-5.774-1.632-7.174-4.444c-1.962-3.958-0.347-8.757,3.611-10.722
		c20.247-10.049,43.372-10.354,63.434-0.826c3.99,1.896,5.688,6.674,3.792,10.66s-6.656,5.667-10.66,3.799
		c-15.597-7.417-33.618-7.16-49.455,0.701C114.892,287.07,113.681,287.334,112.486,287.334z M346.701,286.5
		c15.837-7.861,33.858-8.118,49.455-0.701c4.003,1.868,8.764,0.188,10.66-3.799c1.896-3.986,0.198-8.764-3.792-10.66
		c-20.062-9.528-43.188-9.222-63.434,0.826c-3.958,1.965-5.573,6.764-3.611,10.722c1.399,2.812,4.229,4.444,7.174,4.444
		C344.347,287.334,345.559,287.07,346.701,286.5z"/>
</g>
<g id="Layer_1">
</g>
</svg>
