<?xml version="1.0" encoding="iso-8859-1"?>
<!-- Generator: Adobe Illustrator 18.1.1, SVG Export Plug-In . SVG Version: 6.00 Build 0)  -->
<!DOCTYPE svg PUBLIC "-//W3C//DTD SVG 1.1//EN" "http://www.w3.org/Graphics/SVG/1.1/DTD/svg11.dtd">
<svg version="1.1" xmlns="http://www.w3.org/2000/svg" xmlns:xlink="http://www.w3.org/1999/xlink" x="0px" y="0px"
	 viewBox="0 0 512 512" enable-background="new 0 0 512 512" xml:space="preserve">
<g id="Layer_3">
	<path fill="#DB1414" d="M440.981,301.796c-46.557-46.557-122.04-46.557-168.597,0c-11.191,11.191-19.684,24.057-25.495,37.787
		c-5.811-13.731-14.304-26.596-25.495-37.787c-46.557-46.557-122.04-46.557-168.597,0c-46.557,46.557-46.557,122.04,0,168.597
		c46.557,46.557,122.04,46.557,168.597,0c11.191-11.191,19.684-24.057,25.495-37.787c5.811,13.731,14.304,26.596,25.495,37.787
		c46.557,46.557,122.04,46.557,168.597,0S487.537,348.353,440.981,301.796z"/>
</g>
<g id="Layer_1">
</g>
</svg>
