<?xml version="1.0" encoding="iso-8859-1"?>
<!-- Generator: Adobe Illustrator 18.1.1, SVG Export Plug-In . SVG Version: 6.00 Build 0)  -->
<!DOCTYPE svg PUBLIC "-//W3C//DTD SVG 1.1//EN" "http://www.w3.org/Graphics/SVG/1.1/DTD/svg11.dtd">
<svg version="1.1" xmlns="http://www.w3.org/2000/svg" xmlns:xlink="http://www.w3.org/1999/xlink" x="0px" y="0px"
	 viewBox="0 0 512 512" enable-background="new 0 0 512 512" xml:space="preserve">
<g id="Layer_2">
	<path fill="#BFBCAF" d="M435.527,292.935c-2.139-28.571-81.693-51.54-179.527-51.54c-87.633,0-160.592,18.43-176.394,42.806
		c-2.721,0.984-4.67,3.583-4.67,6.643v160.039c0,17.305,19.378,32.141,56.04,42.903c33.492,9.832,77.893,15.247,125.023,15.247
		s91.531-5.415,125.023-15.247c36.662-10.763,56.04-25.599,56.04-42.903V297.327C437.063,295.666,436.487,294.142,435.527,292.935z
		 M422.88,451.685l-40.201-40.201l40.244-40.244v79.644C422.923,451.149,422.906,451.417,422.88,451.685z M314.15,460.016
		l-48.532-48.532l48.532-48.532l48.532,48.532L314.15,460.016z M314.15,480.013l10.698,10.698
		c-7.574,0.979-15.533,1.81-23.863,2.467L314.15,480.013z M148.558,411.484l48.532-48.532l48.532,48.532l-48.532,48.532
		L148.558,411.484z M210.189,493.113c-8.277-0.666-16.187-1.503-23.712-2.487l10.612-10.612L210.189,493.113z M89.081,450.963
		c0-0.026-0.004-0.053-0.004-0.079v-78.883l39.483,39.483L89.081,450.963z M89.077,313.59c3.569,2.634,7.843,5.163,12.749,7.568
		l-12.749,12.749V313.59z M90.027,352.953l25.863-25.864c16.071,5.878,36.341,10.723,59.479,14.142l11.721,11.721l-48.532,48.532
		L90.027,352.953z M207.088,352.953l7.527-7.527c13.287,0.92,27.141,1.409,41.385,1.409c13.99,0,27.606-0.47,40.675-1.359
		l7.476,7.476l-48.532,48.532L207.088,352.953z M324.149,352.953l11.592-11.592c23.24-3.387,43.624-8.208,59.812-14.069l25.66,25.66
		l-48.532,48.532L324.149,352.953z M409.666,321.41c5.122-2.48,9.564-5.094,13.257-7.82v21.077L409.666,321.41z M142.327,273.945
		c31.195-8.072,71.565-12.518,113.673-12.518s82.479,4.445,113.673,12.518c29.693,7.684,41.897,16.335,45.214,20.17
		c-3.317,3.835-15.521,12.487-45.214,20.17c-31.195,8.072-71.565,12.518-113.673,12.518s-82.479-4.445-113.673-12.518
		c-29.693-7.683-41.897-16.335-45.214-20.17C100.429,290.28,112.634,281.629,142.327,273.945z M97.076,462.965l41.483-41.483
		l48.532,48.532l-17.969,17.969C133.805,481.82,108.976,472.346,97.076,462.965z M231.469,494.395l-24.381-24.381l48.532-48.532
		l48.532,48.532l-24.415,24.415c-7.656,0.303-15.571,0.464-23.736,0.464C247.55,494.894,239.373,494.719,231.469,494.395z
		 M342.23,488.096l-18.081-18.081l48.532-48.532l41.815,41.815C402.361,472.627,377.472,482.008,342.23,488.096z"/>
</g>
<g id="Layer_3">
	<path fill="#FF6F1F" d="M256,311.846c-85.311,0-154.717-69.406-154.717-154.717C101.283,71.817,170.689,2.411,256,2.411
		s154.717,69.406,154.717,154.718C410.717,242.44,341.311,311.846,256,311.846z"/>
</g>
<g id="Layer_4">
	<path fill="#844C26" d="M410.514,165.094h-89.899c3.265,37.135,29.121,67.885,63.706,78.382c-3.143,4.656-6.54,9.126-10.157,13.404
		c-38.32-13.993-66.378-49.475-69.532-91.786h-40.667v146.549c-2.639,0.134-5.294,0.203-7.966,0.203s-5.327-0.068-7.966-0.203
		V165.094h-40.906c-3.15,42.243-31.123,77.68-69.349,91.72c-3.612-4.276-7.002-8.745-10.14-13.398
		c34.486-10.555,60.247-41.258,63.506-78.322h-89.659c-0.134-2.638-0.203-5.294-0.203-7.965c0-2.672,0.068-5.328,0.203-7.966h89.659
		c-3.259-37.064-29.02-67.767-63.506-78.321c3.138-4.653,6.529-9.121,10.14-13.397c38.226,14.039,66.199,49.476,69.349,91.719
		h40.906V2.614c2.639-0.134,5.294-0.203,7.966-0.203s5.327,0.068,7.966,0.203v146.549h40.667
		c3.155-42.31,31.213-77.792,69.533-91.785c3.617,4.278,7.014,8.748,10.157,13.404c-34.586,10.497-60.441,41.246-63.706,78.381
		h89.899c0.135,2.639,0.203,5.295,0.203,7.966C410.717,159.8,410.649,162.456,410.514,165.094z"/>
</g>
</svg>
