<?xml version="1.0" encoding="iso-8859-1"?>
<!-- Generator: Adobe Illustrator 19.1.0, SVG Export Plug-In . SVG Version: 6.00 Build 0)  -->
<!DOCTYPE svg PUBLIC "-//W3C//DTD SVG 1.1//EN" "http://www.w3.org/Graphics/SVG/1.1/DTD/svg11.dtd">
<svg version="1.1" xmlns="http://www.w3.org/2000/svg" xmlns:xlink="http://www.w3.org/1999/xlink" x="0px" y="0px"
	 viewBox="0 0 512 512" enable-background="new 0 0 512 512" xml:space="preserve">
<g id="Layer_3">
	<path fill="#16992B" d="M397.562,128.093c0,0-0.113-0.135-0.331-0.396c-0.217-0.261-0.554-0.652-0.925-1.147
		c-0.799-0.986-1.789-2.476-2.997-4.219c-0.662-0.782-1.295-1.593-2.042-2.435c-0.331-0.403-0.676-0.822-1.033-1.257
		c-0.376-0.44-0.766-0.896-1.169-1.366c-0.786-0.915-1.493-1.874-2.328-2.774c-0.846-0.897-1.599-1.817-2.431-2.666
		c-1.678-1.703-3.268-3.271-4.892-4.612c-0.425-0.333-0.728-0.687-1.16-0.998c-0.42-0.314-0.777-0.636-1.134-0.951
		c-0.371-0.311-0.789-0.614-1.137-0.923l-0.519-0.465l-0.565-0.468c-1.392-1.251-2.798-2.608-4.259-4.296
		c-1.465-1.674-2.935-3.682-4.683-6.023c-1.72-2.333-3.55-4.965-5.424-7.884c-1.883-2.943-3.76-6.138-5.446-9.545
		c-1.709-3.45-3.222-7-4.407-10.673c-0.6-1.791-1.084-3.689-1.518-5.448c-0.391-1.856-0.734-3.601-0.955-5.359
		c-0.439-3.504-0.536-6.786-0.267-9.734c0.184-2.913,0.704-5.473,1.285-7.556c0.144-0.52,0.25-0.994,0.41-1.458
		c0.168-0.462,0.326-0.896,0.472-1.299c0.281-0.794,0.595-1.479,0.826-2.02c0.228-0.54,0.466-0.966,0.597-1.242
		c0.141-0.278,0.214-0.422,0.214-0.422c0.955-1.882,3.227-2.658,5.126-1.773l0.296,0.138c0,0,0.564,0.264,1.622,0.758
		c1.035,0.484,2.391,1.214,4.116,2.025c0.424,0.199,0.87,0.409,1.338,0.629c0.437,0.218,0.895,0.446,1.373,0.684
		c0.482,0.229,1.005,0.452,1.529,0.68c0.492,0.234,1.002,0.477,1.529,0.728c2.017,0.89,4.292,1.894,6.774,2.989
		c0.558,0.267,1.18,0.529,1.789,0.791c0.587,0.267,1.185,0.54,1.793,0.817c1.261,0.56,2.442,1.126,3.723,1.743
		c2.482,1.215,5.119,2.595,7.753,4.198c2.696,1.612,5.445,3.518,8.259,5.761c2.823,2.266,5.726,4.94,8.559,8.064
		c2.824,3.1,5.662,6.762,8.048,10.928c2.393,4.146,4.403,8.802,5.614,13.688c1.236,4.845,1.726,9.824,1.423,14.428
		c-0.219,4.609-1.279,8.816-2.63,12.428c-0.301,0.913-0.727,1.763-1.124,2.594c-0.388,0.828-0.805,1.624-1.218,2.386
		c-0.383,0.769-0.865,1.48-1.319,2.161c-0.442,0.683-0.93,1.332-1.374,1.952c-0.455,0.623-0.933,1.197-1.398,1.767
		c-0.49,0.58-0.953,1.128-1.417,1.641c-0.993,1.017-1.851,1.911-2.718,2.671c-0.89,0.693-1.657,1.198-2.419,1.682
		c-0.731,0.474-1.372,0.873-1.928,1.189c-0.53,0.322-0.988,0.558-1.287,0.72c-0.3,0.161-0.455,0.244-0.455,0.244
		C401.215,130.193,398.896,129.692,397.562,128.093z"/>
</g>
<g id="Layer_1">
</g>
</svg>
