<?xml version="1.0" encoding="iso-8859-1"?>
<!-- Generator: Adobe Illustrator 18.1.1, SVG Export Plug-In . SVG Version: 6.00 Build 0)  -->
<!DOCTYPE svg PUBLIC "-//W3C//DTD SVG 1.1//EN" "http://www.w3.org/Graphics/SVG/1.1/DTD/svg11.dtd">
<svg version="1.1" xmlns="http://www.w3.org/2000/svg" xmlns:xlink="http://www.w3.org/1999/xlink" x="0px" y="0px"
	 viewBox="0 0 512 512" enable-background="new 0 0 512 512" xml:space="preserve">
<g id="Layer_8">
	<path fill="#FF473E" d="M319,402.423v41.5c0,2.762-2.238,5-5,5h-34.5c-2.762,0-5-2.238-5-5v-26c0-2.762,2.238-5,5-5h16
		c2.762,0,5,2.238,5,5s-2.238,5-5,5h-11v16H309v-31.5h-46.5v36.5c0,2.762-2.238,5-5,5H201c-2.761,0-5-2.238-5-5v-41.5
		c0-2.762,2.239-5,5-5h34.5c2.761,0,5,2.238,5,5v26c0,2.762-2.239,5-5,5h-16c-2.761,0-5-2.238-5-5s2.239-5,5-5h11v-16H206v31.5h46.5
		v-36.5c0-2.762,2.239-5,5-5H314C316.762,397.423,319,399.661,319,402.423z M166.035,388.378
		c-9.223-1.043-18.627-2.728-27.952-5.007c-1.292-0.315-2.662-0.042-3.732,0.75c-1.071,0.792-1.735,2.019-1.813,3.349l-1.458,25.004
		c-0.125,2.145,1.287,4.077,3.367,4.609c4.492,1.149,9.049,2.177,13.544,3.055c2.434,0.474,4.79-1.112,5.264-3.544
		c0.475-2.433-1.112-4.79-3.544-5.265c-3.135-0.612-6.302-1.301-9.454-2.054l0.931-15.968c6.551,1.446,13.121,2.608,19.625,3.471
		l-1.775,31.354c-12.613-1.947-25.368-5.049-38.023-9.246l2.132-36.148c0.017-0.284,0-0.562-0.035-0.836
		c-0.012-0.094-0.035-0.182-0.053-0.274c-0.034-0.178-0.074-0.353-0.129-0.523c-0.032-0.1-0.07-0.197-0.109-0.294
		c-0.063-0.157-0.134-0.309-0.214-0.457c-0.048-0.09-0.096-0.178-0.15-0.264c-0.097-0.154-0.206-0.298-0.321-0.439
		c-0.054-0.066-0.102-0.136-0.16-0.199c-0.169-0.185-0.353-0.358-0.552-0.513c-0.013-0.01-0.023-0.022-0.036-0.032
		c-0.212-0.161-0.441-0.302-0.683-0.425c-0.082-0.042-0.171-0.072-0.257-0.109c-0.126-0.055-0.247-0.117-0.38-0.161
		c-15.623-5.131-31.143-11.957-46.127-20.29c-1.349-0.749-2.989-0.754-4.341-0.012c-1.353,0.742-2.229,2.128-2.32,3.669
		l-2.289,38.694c-0.1,1.697,0.767,3.305,2.24,4.153c9.451,5.442,19.197,10.348,28.969,14.578c1.345,0.582,2.888,0.471,4.134-0.296
		c1.248-0.768,2.042-2.095,2.128-3.557l1.458-24.566c0.113-1.899-0.984-3.663-2.737-4.401c-4.355-1.834-8.753-3.828-13.073-5.926
		c-2.23-1.083-4.915-0.153-5.997,2.077c-1.083,2.229-0.153,4.914,2.077,5.997c3.498,1.698,7.046,3.331,10.584,4.871l-0.886,14.935
		c-6.659-3.077-13.281-6.466-19.773-10.12l1.708-28.88c12.475,6.539,25.271,12.072,38.162,16.498l-2.131,36.137
		c-0.017,0.282,0,0.559,0.035,0.832c0.012,0.094,0.035,0.184,0.053,0.276c0.034,0.176,0.074,0.349,0.128,0.518
		c0.032,0.101,0.069,0.198,0.108,0.296c0.062,0.157,0.134,0.307,0.213,0.455c0.048,0.089,0.094,0.178,0.147,0.263
		c0.1,0.159,0.213,0.309,0.332,0.454c0.049,0.06,0.091,0.124,0.143,0.182c0.177,0.196,0.37,0.378,0.581,0.54
		c0.044,0.034,0.093,0.059,0.138,0.091c0.171,0.122,0.349,0.237,0.539,0.335c0.089,0.046,0.183,0.082,0.276,0.122
		c0.106,0.046,0.205,0.101,0.315,0.14c15.88,5.508,31.96,9.356,47.794,11.438c0.195,0.025,0.391,0.038,0.585,0.038
		c1.039,0,2.053-0.36,2.862-1.031c0.961-0.796,1.547-1.956,1.618-3.202l2.289-40.431C170.146,390.713,168.4,388.646,166.035,388.378
		z M452.062,360.961c-0.091-1.553-0.979-2.948-2.349-3.688c-1.369-0.74-3.022-0.719-4.371,0.06
		c-14.977,8.623-30.486,15.654-46.098,20.896c-0.121,0.041-0.232,0.1-0.347,0.15c-0.091,0.039-0.184,0.072-0.272,0.117
		c-0.221,0.113-0.43,0.243-0.626,0.389c-0.017,0.013-0.037,0.022-0.054,0.035c-0.213,0.163-0.406,0.347-0.585,0.543
		c-0.057,0.062-0.104,0.132-0.158,0.198c-0.115,0.141-0.224,0.285-0.32,0.439c-0.055,0.087-0.103,0.177-0.152,0.269
		c-0.079,0.146-0.149,0.296-0.211,0.451c-0.04,0.099-0.078,0.198-0.11,0.3c-0.054,0.168-0.093,0.34-0.127,0.515
		c-0.018,0.094-0.042,0.185-0.054,0.28c-0.035,0.273-0.051,0.551-0.034,0.833l2.13,36.123c-12.662,4.094-25.417,7.023-38.021,8.733
		l-1.75-30.378l-0.021-0.359c6.502-0.839,13.07-1.993,19.623-3.448l0.924,15.755c-3.139,0.727-6.29,1.384-9.407,1.962
		c-2.438,0.451-4.047,2.793-3.595,5.229c0.451,2.438,2.791,4.048,5.229,3.595c4.495-0.833,9.057-1.824,13.559-2.946
		c2.095-0.522,3.521-2.462,3.394-4.617l-1.457-24.827c-0.078-1.331-0.744-2.559-1.817-3.351c-1.075-0.79-2.444-1.062-3.738-0.743
		c-9.319,2.303-18.713,3.975-27.919,4.971c-2.377,0.258-4.135,2.333-3.998,4.72l2.289,39.738c0.071,1.23,0.645,2.377,1.586,3.172
		c0.813,0.687,1.841,1.058,2.895,1.058c0.166,0,0.332-0.009,0.499-0.027c15.841-1.772,31.94-5.409,47.852-10.811
		c0.115-0.039,0.22-0.096,0.33-0.143c0.095-0.041,0.191-0.076,0.282-0.123c0.204-0.105,0.396-0.227,0.579-0.36
		c0.032-0.023,0.068-0.04,0.099-0.064c0.212-0.163,0.405-0.346,0.583-0.542c0.055-0.06,0.1-0.128,0.152-0.191
		c0.117-0.143,0.228-0.29,0.326-0.446c0.054-0.086,0.1-0.174,0.148-0.264c0.08-0.148,0.151-0.299,0.214-0.456
		c0.039-0.098,0.076-0.195,0.109-0.296c0.054-0.169,0.094-0.342,0.128-0.519c0.018-0.092,0.041-0.182,0.053-0.276
		c0.035-0.273,0.051-0.551,0.034-0.833l-2.132-36.162c12.891-4.53,25.688-10.228,38.163-16.987l1.713,29.464
		c-6.493,3.683-13.114,7.081-19.773,10.15l-0.892-15.14c3.549-1.569,7.108-3.239,10.619-4.979c2.221-1.101,3.128-3.793,2.027-6.014
		c-1.102-2.221-3.794-3.126-6.014-2.027c-4.318,2.141-8.713,4.17-13.062,6.029c-1.74,0.744-2.826,2.5-2.715,4.39l1.457,24.744
		c0.086,1.46,0.878,2.787,2.123,3.556s2.788,0.88,4.13,0.303c9.781-4.209,19.535-9.128,28.993-14.62
		c1.464-0.851,2.324-2.451,2.227-4.141L452.062,360.961z"/>
</g>
<g id="Layer_1">
</g>
</svg>
