<?xml version="1.0" encoding="iso-8859-1"?>
<!-- Generator: Adobe Illustrator 18.1.1, SVG Export Plug-In . SVG Version: 6.00 Build 0)  -->
<!DOCTYPE svg PUBLIC "-//W3C//DTD SVG 1.1//EN" "http://www.w3.org/Graphics/SVG/1.1/DTD/svg11.dtd">
<svg version="1.1" xmlns="http://www.w3.org/2000/svg" xmlns:xlink="http://www.w3.org/1999/xlink" x="0px" y="0px"
	 viewBox="0 0 512 512" enable-background="new 0 0 512 512" xml:space="preserve">
<g id="Layer_2">
	<circle fill="#A5AAAA" cx="401.179" cy="166.092" r="109.821"/>
</g>
<g id="Layer_3">
	<path fill="#838989" d="M442.694,266.39L300.882,124.578c-6.188-6.188-6.188-16.22,0-22.408l19.102-19.102
		c6.188-6.188,16.22-6.188,22.408,0L484.203,224.88c6.188,6.188,6.188,16.22,0,22.408l-19.102,19.102
		C458.914,272.577,448.881,272.577,442.694,266.39z"/>
</g>
<g id="Layer_4">
	<path fill="#445056" d="M369.574,263.102l-65.405-65.405c-14.708-14.708-38.86-13.654-52.23,2.279L119.667,357.601
		c-4.382,5.221-7.165,11.595-8.018,18.358l-5.776,45.829c-0.765,6.069,0.049,11.892,2.065,17.131l-47.44,47.44
		c-5.637,5.637-5.637,14.777,0,20.414v0c5.637,5.637,14.777,5.637,20.414,0l47.44-47.44c5.239,2.017,11.063,2.831,17.132,2.066
		l45.829-5.776c6.763-0.852,13.136-3.636,18.358-8.017l157.624-132.272C383.228,301.962,384.282,277.81,369.574,263.102z"/>
</g>
<g id="Layer_5">
	<path fill="#00B1FF" d="M274.263,6.401v40.136c0,1.964-1.067,3.772-2.787,4.721l-28.99,16.004
		c-1.719,0.949-2.786,2.758-2.786,4.721v91.233c0,0.341-0.028,0.656-0.069,0.96c-0.507,14.7-12.575,26.464-27.399,26.464
		c-15.145,0-27.423-12.278-27.423-27.423c0-15.146,12.278-27.423,27.423-27.423c4.051,0,7.893,0.885,11.354,2.462V29.997
		c0-2.933,1.594-5.636,4.163-7.055l38.515-21.263C269.857-0.305,274.263,2.295,274.263,6.401z M156.281,137.246
		c0-3.012-1.637-5.787-4.274-7.244L56.533,77.294c-2.564-1.415-5.681-1.368-8.205,0.119c-2.521,1.488-4.067,4.198-4.067,7.125
		V192.91c-3.553-1.619-7.498-2.528-11.658-2.528c-15.552,0-28.159,12.607-28.159,28.159c0,15.552,12.607,28.159,28.159,28.159
		c15.488,0,28.052-12.506,28.154-27.97c0.032-0.295,0.051-0.595,0.051-0.899v-84.314l78.928,43.574v72.116
		c-3.542-1.606-7.47-2.507-11.612-2.507c-15.552,0-28.159,12.607-28.159,28.159s12.607,28.159,28.159,28.159
		c15.552,0,28.159-12.607,28.159-28.159c0-0.732-0.037-1.454-0.092-2.172c0.054-0.382,0.092-0.769,0.092-1.166V137.246z"/>
</g>
</svg>
