<?xml version="1.0" encoding="iso-8859-1"?>
<!-- Generator: Adobe Illustrator 19.1.0, SVG Export Plug-In . SVG Version: 6.00 Build 0)  -->
<!DOCTYPE svg PUBLIC "-//W3C//DTD SVG 1.1//EN" "http://www.w3.org/Graphics/SVG/1.1/DTD/svg11.dtd">
<svg version="1.1" xmlns="http://www.w3.org/2000/svg" xmlns:xlink="http://www.w3.org/1999/xlink" x="0px" y="0px"
	 viewBox="0 0 512 512" enable-background="new 0 0 512 512" xml:space="preserve">
<g id="Layer_6">
	<path fill="#F9F9F7" d="M259.415,302.343c-38.87-0.311-70.766-32.034-71.277-70.901c-0.394-29.951,17.538-55.752,43.292-66.918
		c14.697-6.373,27.017-17.054,36.146-30.217c17.227-24.839,46.118-40.975,78.751-40.475c50.569,0.774,91.804,42.067,92.509,92.637
		c0.733,52.524-41.625,95.333-93.981,95.333c-0.969,0-1.935-0.015-2.897-0.044c-16.161-0.49-32.273,3.084-46.301,11.124
		C284.993,298.993,272.613,302.449,259.415,302.343z M52.255,471.588l10-10c4.295-4.296,4.295-11.261,0-15.557
		c-4.296-4.295-11.261-4.295-15.557,0l-10,10c-4.295,4.296-4.295,11.261,0,15.557c2.148,2.147,4.963,3.222,7.778,3.222
		S50.107,473.735,52.255,471.588z"/>
</g>
<g id="Layer_1">
</g>
</svg>
