<?xml version="1.0" encoding="iso-8859-1"?>
<!-- Generator: Adobe Illustrator 18.1.1, SVG Export Plug-In . SVG Version: 6.00 Build 0)  -->
<!DOCTYPE svg PUBLIC "-//W3C//DTD SVG 1.1//EN" "http://www.w3.org/Graphics/SVG/1.1/DTD/svg11.dtd">
<svg version="1.1" xmlns="http://www.w3.org/2000/svg" xmlns:xlink="http://www.w3.org/1999/xlink" x="0px" y="0px"
	 viewBox="0 0 512 512" enable-background="new 0 0 512 512" xml:space="preserve">
<g id="Layer_6">
	<path fill="#E2E0D7" d="M450.471,85.435c-4.315-23.002-23.013-41.075-42.162-41.075c-0.45,0-0.897,0.01-1.347,0.03
		c-8.276,0.369-15.245,4.116-20.214,10.083c-5.674-20.949-23.233-36.843-41.191-36.844c-0.449,0-0.897,0.01-1.347,0.03
		c-8.871,0.395-16.241,4.67-21.254,11.403c-7.437-16.983-22.788-29.07-38.446-29.072c-0.449,0-0.897,0.01-1.346,0.03
		c-19.612,0.874-31.931,20.668-27.514,44.21c0.31,1.653,0.703,3.277,1.156,4.874c-1.747,0.303-3.271,0.757-4.535,1.381
		c-27.311,13.49-124.557,161.007-127.652,165.709l-0.077,0.023v175.339c0,4.073,3.889,7.018,7.809,5.911
		c48.195-13.621,303.157-86.165,303.157-96.428c0-11.027,0-131.717,0-175.004C447.449,119.186,453.844,103.412,450.471,85.435z
		 M434.234,111.54c-1.299,1.639-2.778,2.932-4.407,3.916c-24.159-21.028-117.725-62.245-160.441-66.455
		c-0.832-2.263-1.487-4.6-1.934-6.985c-1.764-9.404-0.148-18.112,4.435-23.892c3.045-3.84,7.019-5.896,11.813-6.109
		c0.271-0.012,0.54-0.018,0.811-0.018c10.519,0.001,21.806,8.999,27.448,21.881c1.716,3.919,5.387,6.628,9.638,7.113
		c0.456,0.052,0.91,0.078,1.363,0.078c3.766,0,7.349-1.774,9.629-4.837c2.121-2.848,5.951-6.302,12.158-6.578
		c0.271-0.012,0.541-0.018,0.811-0.018c12.351,0.001,25.354,12.289,29.602,27.976c1.171,4.324,4.652,7.637,9.029,8.592
		c0.852,0.186,1.71,0.277,2.562,0.277c3.521,0,6.918-1.552,9.227-4.324c3.017-3.623,6.894-5.565,11.522-5.771
		c0.271-0.012,0.541-0.018,0.812-0.018c6.135,0,12.625,3.024,18.275,8.515c6.163,5.989,10.455,14.075,12.085,22.766
		C440.434,97.052,438.817,105.76,434.234,111.54z"/>
</g>
<g id="Layer_1">
</g>
</svg>
