<?xml version="1.0" encoding="iso-8859-1"?>
<!-- Generator: Adobe Illustrator 19.1.0, SVG Export Plug-In . SVG Version: 6.00 Build 0)  -->
<!DOCTYPE svg PUBLIC "-//W3C//DTD SVG 1.1//EN" "http://www.w3.org/Graphics/SVG/1.1/DTD/svg11.dtd">
<svg version="1.1" xmlns="http://www.w3.org/2000/svg" xmlns:xlink="http://www.w3.org/1999/xlink" x="0px" y="0px"
	 viewBox="0 0 512 512" enable-background="new 0 0 512 512" xml:space="preserve">
<g id="Layer_3">
	<path fill="#75432E" d="M254.094,97.848c0,0,0.009-1.419,0.024-3.903c0.004-0.31,0.008-0.637,0.012-0.979
		c0.012-0.344,0.029-0.713-0.029-0.997c-0.076-0.605-0.158-1.26-0.246-1.96c-0.083-0.676-0.172-1.396-0.265-2.155
		c-0.155-0.819-0.318-1.68-0.488-2.578c-0.263-1.767-0.854-3.664-1.338-5.609c-0.205-0.972-0.623-1.96-0.956-2.955
		c-0.173-0.494-0.348-0.993-0.525-1.497c-0.162-0.502-0.354-1.002-0.585-1.501c-0.424-0.986-0.855-1.989-1.291-3.004
		c-0.43-1.001-1.026-1.971-1.522-2.951c-0.256-0.485-0.512-0.972-0.77-1.461l-0.893-1.412c-0.604-0.932-1.114-1.889-1.763-2.775
		c-0.646-0.871-1.291-1.742-1.934-2.61c-0.294-0.439-0.665-0.834-1.019-1.231l-1.044-1.182c-0.332-0.392-0.664-0.782-0.993-1.171
		c-0.344-0.375-0.726-0.717-1.078-1.072c-0.721-0.697-1.392-1.399-2.082-2.049c-0.73-0.6-1.449-1.19-2.152-1.768
		c-0.352-0.279-0.662-0.588-1.026-0.832c-0.361-0.242-0.719-0.482-1.071-0.718c-0.7-0.468-1.317-0.967-1.929-1.427
		c-0.673-0.388-1.3-0.772-1.852-1.187c-1.113-0.831-2.17-1.487-3.079-2.098c-0.446-0.317-0.836-0.649-1.207-0.943
		c-0.404-0.242-0.751-0.496-1.067-0.724c-0.64-0.443-1.097-0.868-1.411-1.16c-0.305-0.309-0.468-0.473-0.468-0.473l-4.392-4.437
		c-6.411-6.477-6.358-16.924,0.119-23.335c5.844-5.784,14.921-6.302,21.349-1.592c0,0,0.337,0.247,0.969,0.709
		c0.638,0.448,1.575,1.105,2.767,1.941c0.594,0.418,1.248,0.886,1.974,1.371c0.686,0.539,1.428,1.123,2.221,1.746
		c0.788,0.628,1.627,1.297,2.511,2.002c0.891,0.697,1.737,1.524,2.667,2.342c0.923,0.827,1.885,1.688,2.88,2.579
		c0.928,0.956,1.887,1.944,2.873,2.96c0.497,0.508,1.001,1.023,1.511,1.544c0.508,0.524,0.951,1.107,1.438,1.671
		c0.952,1.148,1.924,2.32,2.912,3.512c0.922,1.238,1.808,2.535,2.727,3.84c0.45,0.657,0.928,1.307,1.36,1.987
		c0.41,0.692,0.822,1.388,1.236,2.087c0.411,0.703,0.824,1.408,1.238,2.115c0.414,0.709,0.839,1.417,1.181,2.164
		c0.72,1.485,1.442,2.975,2.164,4.466c0.705,1.502,1.25,3.068,1.871,4.605c0.301,0.773,0.602,1.544,0.902,2.313
		c0.251,0.787,0.501,1.571,0.75,2.352c0.473,1.572,1.029,3.117,1.403,4.69c0.364,1.581,0.723,3.143,1.077,4.68
		c0.191,0.768,0.324,1.541,0.43,2.314c0.115,0.772,0.229,1.536,0.342,2.292c0.205,1.517,0.483,2.996,0.54,4.466
		c0.191,2.931,0.439,5.715,0.347,8.323c-0.016,1.304-0.031,2.555-0.045,3.744c-0.101,1.302-0.237,2.577-0.362,3.758
		c-0.139,1.188-0.269,2.3-0.39,3.328c-0.031,0.236-0.067,0.556-0.095,0.709c-0.029,0.172-0.057,0.341-0.084,0.506
		c-0.055,0.33-0.107,0.644-0.157,0.942c-0.397,2.386-0.624,3.749-0.624,3.749c-1.076,6.47-7.194,10.842-13.663,9.766
		c-5.838-0.971-9.968-6.048-9.928-11.783L254.094,97.848z"/>
</g>
<g id="Layer_1">
</g>
</svg>
