<?xml version="1.0" encoding="iso-8859-1"?>
<!-- Generator: Adobe Illustrator 18.1.1, SVG Export Plug-In . SVG Version: 6.00 Build 0)  -->
<!DOCTYPE svg PUBLIC "-//W3C//DTD SVG 1.1//EN" "http://www.w3.org/Graphics/SVG/1.1/DTD/svg11.dtd">
<svg version="1.1" xmlns="http://www.w3.org/2000/svg" xmlns:xlink="http://www.w3.org/1999/xlink" x="0px" y="0px"
	 viewBox="0 0 512 512" enable-background="new 0 0 512 512" xml:space="preserve">
<g id="Layer_2">
	<circle fill="#E5E4DF" cx="254.874" cy="257.739" r="228.521"/>
</g>
<g id="Layer_3">
	<path fill="#E5E4DF" d="M384.604,257.739c0,71.648-58.082,129.73-129.73,129.73s-128.388-58.095-129.73-129.73
		c-1.332-71.103,53.52-127.864,129.73-129.73C326.5,126.254,384.604,186.091,384.604,257.739z"/>
</g>
<g id="Layer_4">
	<path fill="#FF473E" d="M254.874,505.874c-136.822,0-248.135-111.313-248.135-248.135c0-136.824,111.313-248.137,248.135-248.137
		s248.135,111.313,248.135,248.137C503.009,394.561,391.696,505.874,254.874,505.874z M254.874,56.521
		c-110.952,0-201.217,90.266-201.217,201.218s90.265,201.217,201.217,201.217S456.09,368.691,456.09,257.739
		S365.825,56.521,254.874,56.521z"/>
</g>
<g id="Layer_5">
	<path fill="#FF473E" d="M254.874,407.084c-82.179,0-147.776-65.439-149.341-148.978c-1.559-83.231,62.438-147.59,148.86-149.706
		c82.218-2.061,149.827,65.771,149.827,149.339C404.22,340.088,337.224,407.084,254.874,407.084z M257.632,158.735
		c-0.771,0-1.552,0.011-2.328,0.029c-57.695,1.412-100.429,43.819-99.401,98.644c1.041,55.681,44.516,99.298,98.969,99.298
		c54.573,0,98.969-44.397,98.969-98.968C353.842,203.147,310.682,158.735,257.632,158.735z"/>
</g>
<g id="Layer_6">
	<circle fill="#FF473E" cx="254.874" cy="257.739" r="40.605"/>
</g>
<g id="Layer_7">
	<path fill="#2B3B47" d="M290.716,231.117l-10.94-10.94L249.152,250.8l0.006,0.006c-0.043,0.041-0.089,0.076-0.131,0.118
		c-3.021,3.021-3.021,7.919,0,10.94c3.021,3.021,7.919,3.021,10.94,0c0.042-0.042,0.077-0.088,0.118-0.131l0.006,0.006
		L290.716,231.117z"/>
</g>
<g id="Layer_8">
	<path fill="#0074A8" d="M437.626,73.763c37.978-82.369-34.466-112.946-46.703,24.855l-106.175,94.587
		c-0.732,0.578-1.446,1.19-2.122,1.865c-0.041,0.041-0.075,0.087-0.117,0.129l-0.081,0.072l0.008,0.008
		c-9.103,9.319-9.047,24.246,0.189,33.482c9.237,9.237,24.164,9.292,33.483,0.189l0.008,0.008l0.071-0.08
		c0.042-0.041,0.088-0.075,0.129-0.117c0.676-0.676,1.288-1.39,1.866-2.122l94.587-106.175
		C550.572,108.229,519.995,35.785,437.626,73.763z"/>
</g>
</svg>
