<?xml version="1.0" encoding="iso-8859-1"?>
<!-- Generator: Adobe Illustrator 19.1.0, SVG Export Plug-In . SVG Version: 6.00 Build 0)  -->
<!DOCTYPE svg PUBLIC "-//W3C//DTD SVG 1.1//EN" "http://www.w3.org/Graphics/SVG/1.1/DTD/svg11.dtd">
<svg version="1.1" xmlns="http://www.w3.org/2000/svg" xmlns:xlink="http://www.w3.org/1999/xlink" x="0px" y="0px"
	 viewBox="0 0 512 512" enable-background="new 0 0 512 512" xml:space="preserve">
<g id="Layer_3">
	<path fill="#F27A15" d="M289.22,503.011c17.778-10.125,16.593-70.276,16.593-70.276l3.556,61.949
		C309.368,494.684,271.442,513.136,289.22,503.011z M219.308,505.967c-17.778-10.125-16.204-70.932-16.204-70.932l-3.556,61.949
		C199.548,496.984,237.085,516.092,219.308,505.967z M339.203,85.189c-1.344-0.442-44.955-6.076-36.1-2.312
		c19.709,8.379,28.992,78.649,28.992,78.649s2.386-68.714,16.206-74.813C348.325,86.701,339.228,85.197,339.203,85.189z
		 M163.151,90.291c13.82,6.099,16.206,74.813,16.206,74.813s9.284-70.27,28.992-78.649c8.854-3.764-34.756,1.869-36.1,2.312
		C172.224,88.776,163.127,90.28,163.151,90.291z"/>
</g>
<g id="Layer_1">
</g>
</svg>
