<?xml version="1.0" encoding="iso-8859-1"?>
<!-- Generator: Adobe Illustrator 18.1.1, SVG Export Plug-In . SVG Version: 6.00 Build 0)  -->
<!DOCTYPE svg PUBLIC "-//W3C//DTD SVG 1.1//EN" "http://www.w3.org/Graphics/SVG/1.1/DTD/svg11.dtd">
<svg version="1.1" xmlns="http://www.w3.org/2000/svg" xmlns:xlink="http://www.w3.org/1999/xlink" x="0px" y="0px"
	 viewBox="0 0 512 512" enable-background="new 0 0 512 512" xml:space="preserve">
<g id="Layer_4">
	<path fill="#B1E87E" d="M76.23,194.031c0,0,0.026-0.16,0.076-0.47c0.045-0.318,0.128-0.763,0.246-1.322
		c0.235-1.121,0.618-2.693,1.21-4.497c0.149-0.449,0.306-0.923,0.47-1.419c0.18-0.467,0.368-0.957,0.565-1.467
		c0.376-1.051,0.865-2.032,1.354-3.146c1.006-2.171,2.27-4.379,3.765-6.57c2.986-4.387,6.985-8.537,11.894-11.81
		c2.439-1.665,5.158-3.013,7.953-4.322c2.807-1.286,5.682-2.549,8.642-3.652c5.893-2.256,12.035-4.045,18.032-5.274
		c5.983-1.254,11.844-1.904,17.046-2.127c1.301-0.055,2.563-0.078,3.772-0.085c1.223,0.021,2.384,0.04,3.474,0.058
		c1.113,0.061,2.155,0.117,3.118,0.17c0.982,0.089,1.885,0.17,2.7,0.244c1.65,0.185,2.975,0.384,3.892,0.545
		c0.93,0.185,1.426,0.284,1.426,0.284c3.892,0.775,6.418,4.559,5.643,8.451c-0.093,0.465-0.245,0.947-0.418,1.369
		c0,0-0.195,0.466-0.561,1.341c-0.379,0.85-0.954,2.06-1.723,3.532c-0.394,0.717-0.831,1.511-1.306,2.375
		c-0.495,0.828-1.03,1.724-1.601,2.68c-0.594,0.915-1.226,1.888-1.893,2.913c-0.681,0.998-1.406,2.032-2.178,3.08
		c-3.091,4.189-6.905,8.687-11.289,12.948c-4.37,4.286-9.285,8.38-14.45,12.007c-2.569,1.838-5.223,3.517-7.858,5.127
		c-2.647,1.587-5.284,3.089-8.028,4.181c-5.457,2.243-11.134,3.24-16.44,3.265c-2.652,0.016-5.189-0.17-7.552-0.549
		c-1.196-0.217-2.284-0.36-3.365-0.635c-0.533-0.122-1.043-0.239-1.532-0.351c-0.504-0.141-0.984-0.275-1.44-0.403
		c-1.827-0.517-3.344-1.078-4.405-1.509c-0.53-0.215-0.944-0.395-1.234-0.535c-0.285-0.132-0.432-0.2-0.432-0.2
		C78.251,205.696,75.305,199.785,76.23,194.031z M352.615,57.035c0,0,0.061,0.15,0.178,0.441c0.115,0.3,0.294,0.715,0.533,1.235
		c0.478,1.041,1.2,2.489,2.178,4.116c0.245,0.405,0.503,0.832,0.773,1.279c0.279,0.416,0.571,0.851,0.876,1.305
		c0.6,0.941,1.295,1.79,2.018,2.767c1.463,1.893,3.185,3.766,5.129,5.57c3.886,3.615,8.706,6.774,14.219,8.875
		c2.748,1.082,5.698,1.793,8.714,2.448c3.023,0.631,6.106,1.224,9.237,1.642c6.247,0.892,12.633,1.272,18.752,1.14
		c6.112-0.105,11.971-0.773,17.093-1.71c1.28-0.235,2.517-0.493,3.696-0.754c1.188-0.292,2.315-0.568,3.374-0.828
		c1.072-0.306,2.075-0.593,3.002-0.858c0.938-0.305,1.8-0.585,2.578-0.837c1.568-0.547,2.816-1.034,3.674-1.395
		c0.866-0.387,1.327-0.593,1.327-0.593c0.416-0.189,0.856-0.436,1.242-0.712c3.229-2.306,3.978-6.794,1.672-10.023
		c0,0-0.294-0.412-0.845-1.183c-0.558-0.745-1.388-1.797-2.464-3.061c-0.544-0.612-1.146-1.289-1.801-2.026
		c-0.666-0.698-1.387-1.452-2.156-2.258c-0.782-0.76-1.615-1.568-2.492-2.421c-0.886-0.822-1.822-1.67-2.808-2.52
		c-3.944-3.399-8.661-6.938-13.881-10.119c-5.212-3.209-10.914-6.11-16.754-8.5c-2.913-1.222-5.873-2.27-8.799-3.254
		c-2.933-0.96-5.838-1.838-8.756-2.295c-5.819-0.975-11.575-0.688-16.755,0.466c-2.589,0.573-5.022,1.318-7.242,2.212
		c-1.118,0.477-2.147,0.858-3.14,1.366c-0.492,0.237-0.964,0.465-1.415,0.683c-0.46,0.249-0.898,0.487-1.314,0.713
		c-1.666,0.909-3.022,1.793-3.96,2.45c-0.469,0.327-0.833,0.595-1.084,0.795c-0.248,0.192-0.377,0.291-0.377,0.291
		C352.225,45.04,350.326,51.365,352.615,57.035z"/>
</g>
<g id="Layer_1">
</g>
</svg>
