<?xml version="1.0" encoding="iso-8859-1"?>
<!-- Generator: Adobe Illustrator 19.2.1, SVG Export Plug-In . SVG Version: 6.00 Build 0)  -->
<!DOCTYPE svg PUBLIC "-//W3C//DTD SVG 1.1//EN" "http://www.w3.org/Graphics/SVG/1.1/DTD/svg11.dtd">
<svg version="1.1" xmlns="http://www.w3.org/2000/svg" xmlns:xlink="http://www.w3.org/1999/xlink" x="0px" y="0px"
	 viewBox="0 0 512 512" enable-background="new 0 0 512 512" xml:space="preserve">
<g id="Layer_2">
	<path fill="#597B91" d="M252.802,504.294c-18.883,0-34.191-15.308-34.191-34.19V351.905c0-18.883,15.308-34.19,34.191-34.19
		s34.19,15.308,34.19,34.19v118.198C286.992,488.986,271.685,504.294,252.802,504.294z"/>
</g>
<g id="Layer_3">
	<path fill="#BAC5C6" d="M357.675,280.143c0,51.164-41.494,92.641-92.679,92.641h-22.699c-51.185,0-92.679-41.477-92.679-92.641
		V100.51c0-51.164,41.494-92.641,92.679-92.641h22.699c51.185,0,92.679,41.477,92.679,92.641V280.143z"/>
</g>
<g id="Layer_4">
	<path fill="#BCCACC" d="M269.288,442.308h-31.284c-78.512,0-142.386-63.851-142.386-142.334v-71.75
		c0-8.093,6.561-14.653,14.653-14.653s14.653,6.561,14.653,14.653v71.75c0,62.323,50.727,113.027,113.079,113.027h31.284
		c62.353,0,113.079-50.704,113.079-113.027v-71.75c0-8.093,6.561-14.653,14.653-14.653s14.653,6.561,14.653,14.653v71.75
		C411.674,378.457,347.8,442.308,269.288,442.308z"/>
</g>
<g id="Layer_5">
	<path fill="#597B91" d="M337.444,142.406H168.159c-2.698,0-4.884-2.187-4.884-4.884s2.187-4.884,4.884-4.884h169.285
		c2.697,0,4.885,2.187,4.885,4.884S340.142,142.406,337.444,142.406z M228.489,164.346c0-2.698-2.187-4.884-4.884-4.884h-55.445
		c-2.698,0-4.884,2.187-4.884,4.884s2.187,4.884,4.884,4.884h55.445C226.302,169.23,228.489,167.044,228.489,164.346z
		 M215.879,191.171c0-2.698-2.187-4.884-4.884-4.884h-42.835c-2.698,0-4.884,2.187-4.884,4.884s2.187,4.884,4.884,4.884h42.835
		C213.692,196.055,215.879,193.869,215.879,191.171z M228.489,217.996c0-2.698-2.187-4.884-4.884-4.884h-55.445
		c-2.698,0-4.884,2.187-4.884,4.884s2.187,4.884,4.884,4.884h55.445C226.302,222.88,228.489,220.693,228.489,217.996z
		 M342.329,217.996c0-2.698-2.188-4.884-4.885-4.884h-55.445c-2.697,0-4.885,2.187-4.885,4.884s2.188,4.884,4.885,4.884h55.445
		C340.142,222.88,342.329,220.693,342.329,217.996z M342.329,164.346c0-2.698-2.188-4.884-4.885-4.884h-55.445
		c-2.697,0-4.885,2.187-4.885,4.884s2.188,4.884,4.885,4.884h55.445C340.142,169.23,342.329,167.044,342.329,164.346z
		 M342.329,191.171c0-2.698-2.188-4.884-4.885-4.884h-40.899c-2.697,0-4.885,2.187-4.885,4.884s2.188,4.884,4.885,4.884h40.899
		C340.142,196.055,342.329,193.869,342.329,191.171z M342.329,243.132c0-2.698-2.188-4.884-4.885-4.884H168.159
		c-2.698,0-4.884,2.187-4.884,4.884s2.187,4.884,4.884,4.884h169.285C340.142,248.016,342.329,245.83,342.329,243.132z
		 M342.329,112.636c0-2.698-2.188-4.884-4.885-4.884H168.159c-2.698,0-4.884,2.187-4.884,4.884s2.187,4.884,4.884,4.884h169.285
		C340.142,117.521,342.329,115.334,342.329,112.636z M342.329,268.519c0-2.697-2.188-4.885-4.885-4.885H168.159
		c-2.698,0-4.884,2.188-4.884,4.885s2.187,4.885,4.884,4.885h169.285C340.142,273.403,342.329,271.216,342.329,268.519z
		 M342.329,293.906c0-2.697-2.188-4.885-4.885-4.885H168.159c-2.698,0-4.884,2.188-4.884,4.885s2.187,4.885,4.884,4.885h169.285
		C340.142,298.791,342.329,296.604,342.329,293.906z"/>
</g>
<g id="Layer_6">
	<ellipse fill="#FF473E" cx="253.77" cy="192.328" rx="25.434" ry="25.423"/>
</g>
<g id="Layer_7">
	<path fill="#2B3B47" d="M197,314.61v46.192c-4-1.922-7-4.048-10-6.368V314.61c0-2.699,2.304-4.887,5-4.887
		C194.696,309.723,197,311.911,197,314.61z M217,309.723c-2.696,0-5,2.188-5,4.887v53.015c3,1.11,6,2.056,10,2.818V314.61
		C222,311.911,219.696,309.723,217,309.723z M241.5,309.723c-2.696,0-4.5,2.188-4.5,4.887v57.992c1,0.116,3.373,0.397,5.297,0.397
		H246v-58.39C246,311.911,244.196,309.723,241.5,309.723z M265.998,309.723c-2.696,0-4.998,2.188-4.998,4.887V373h3.996
		c2.074,0,4.004-0.291,6.004-0.425V314.61C271,311.911,268.698,309.723,265.998,309.723z M291,309.723c-2.7,0-5,2.188-5,4.887
		v55.732c4-0.78,7-1.743,10-2.871v-52.86C296,311.911,293.699,309.723,291,309.723z M316,309.723c-2.699,0-5,2.188-5,4.887v45.948
		c3-1.949,7-4.11,10-6.461V314.61C321,311.911,318.699,309.723,316,309.723z M187,26.219v34.356c0,2.696,2.304,4.884,5,4.884
		c2.696,0,5-2.188,5-4.884V19.852C193,21.773,190,23.899,187,26.219z M212,13.028v47.548c0,2.696,2.304,4.884,5,4.884
		c2.696,0,5-2.188,5-4.884V10.21C218,10.972,215,11.918,212,13.028z M242.297,8C240.373,8,238,7.935,237,8.051v52.525
		c0,2.696,1.804,4.884,4.5,4.884c2.696,0,4.5-2.188,4.5-4.884V8H242.297z M264.996,8H261v52.576c0,2.696,2.302,4.884,4.998,4.884
		c2.699,0,5.002-2.188,5.002-4.884V8.079C269,7.945,267.069,8,264.996,8z M286,10.312v50.264c0,2.696,2.301,4.884,5,4.884
		c2.699,0,5-2.188,5-4.884V13.183C293,12.054,290,11.092,286,10.312z M311,20.095v40.481c0,2.696,2.301,4.884,5,4.884
		s5-2.188,5-4.884v-34.02C318,24.205,314,22.044,311,20.095z"/>
</g>
</svg>
