<?xml version="1.0" encoding="iso-8859-1"?>
<!-- Generator: Adobe Illustrator 19.2.0, SVG Export Plug-In . SVG Version: 6.00 Build 0)  -->
<!DOCTYPE svg PUBLIC "-//W3C//DTD SVG 1.1//EN" "http://www.w3.org/Graphics/SVG/1.1/DTD/svg11.dtd">
<svg version="1.1" xmlns="http://www.w3.org/2000/svg" xmlns:xlink="http://www.w3.org/1999/xlink" x="0px" y="0px"
	 viewBox="0 0 512 512" enable-background="new 0 0 512 512" xml:space="preserve">
<g id="Layer_2">
	<path fill="#CCC1AC" d="M344.056,8.771L188.164,164.663c-3.493,3.493-4.946,8.255-4.357,12.803
		c0.339,2.622-1.871,4.832-4.493,4.493c-4.548-0.589-9.309,0.864-12.803,4.357L5.654,347.173c-7.538,7.538-7.538,19.76,0,27.299
		L133.382,502.2c7.538,7.538,19.76,7.538,27.299,0l160.858-160.858c3.493-3.493,4.946-8.255,4.357-12.803
		c-0.339-2.622,1.871-4.832,4.493-4.493c4.548,0.589,9.309-0.864,12.803-4.357l155.893-155.893c7.538-7.538,7.538-19.76,0-27.299
		L371.355,8.771C363.817,1.233,351.595,1.233,344.056,8.771z M317.521,298.382c2.63,2.63,2.63,6.893,0,9.522l-7.769,7.769
		c-2.63,2.63-6.893,2.629-9.522,0l-15.939-15.939c-2.63-2.63-2.63-6.893,0-9.522l7.769-7.769c2.63-2.63,6.893-2.63,9.522,0
		L317.521,298.382z M271.466,252.327c2.63,2.63,2.63,6.893,0,9.522l-7.769,7.769c-2.63,2.63-6.893,2.63-9.522,0l-15.939-15.939
		c-2.63-2.63-2.63-6.893,0-9.522l7.769-7.769c2.63-2.63,6.893-2.629,9.522,0L271.466,252.327z M225.411,206.271
		c2.63,2.63,2.63,6.893,0,9.522l-7.769,7.769c-2.63,2.63-6.893,2.63-9.522,0l-15.939-15.939c-2.629-2.629-2.63-6.893,0-9.522
		l7.769-7.769c2.63-2.63,6.893-2.629,9.522,0L225.411,206.271z"/>
</g>
<g id="Layer_3">
	<path fill="#31434F" d="M74.73,364.062c-1.598,0-3.196-0.609-4.415-1.828c-2.438-2.438-2.438-6.392,0-8.83l80.351-80.352
		c2.438-2.438,6.392-2.438,8.83,0c2.438,2.438,2.438,6.392,0,8.83l-80.351,80.352C77.926,363.453,76.328,364.062,74.73,364.062z
		 M102.103,385.192l57.471-57.471c2.438-2.438,2.438-6.392,0-8.83c-2.438-2.438-6.392-2.438-8.83,0l-57.471,57.471
		c-2.438,2.438-2.438,6.392,0,8.83c1.219,1.219,2.817,1.828,4.415,1.828S100.884,386.411,102.103,385.192z M125.061,408.149
		l80.352-80.352c2.438-2.438,2.438-6.392,0-8.83c-2.438-2.438-6.392-2.438-8.83,0l-80.352,80.352c-2.438,2.438-2.438,6.392,0,8.83
		c1.219,1.219,2.817,1.828,4.415,1.828S123.841,409.368,125.061,408.149z"/>
</g>
<g id="Layer_4">
	<path fill="#ADA392" d="M144.854,483.032c-0.957,0-1.915-0.365-2.645-1.096L25.715,365.442c-0.702-0.701-1.096-1.652-1.096-2.645
		s0.394-1.943,1.096-2.645L160,225.867c1.402-1.403,3.887-1.403,5.289,0l116.495,116.495c1.461,1.461,1.461,3.829,0,5.289
		L147.499,481.937C146.769,482.667,145.812,483.032,144.854,483.032z M33.649,362.798l111.206,111.205l128.996-128.996
		L162.645,233.801L33.649,362.798z"/>
</g>
<g id="Layer_5">
	<path fill="#ADA392" d="M340.957,285.994c-0.957,0-1.914-0.365-2.645-1.096L221.817,168.404c-0.702-0.701-1.096-1.652-1.096-2.645
		s0.394-1.943,1.096-2.645L356.103,28.829c1.402-1.403,3.887-1.403,5.289,0l116.495,116.495c1.461,1.46,1.461,3.829,0,5.289
		L343.602,284.898C342.871,285.629,341.914,285.994,340.957,285.994z M229.751,165.759l111.206,111.206l128.996-128.996
		L358.747,36.763L229.751,165.759z"/>
</g>
</svg>
