<?xml version="1.0" encoding="iso-8859-1"?>
<!-- Generator: Adobe Illustrator 18.1.1, SVG Export Plug-In . SVG Version: 6.00 Build 0)  -->
<!DOCTYPE svg PUBLIC "-//W3C//DTD SVG 1.1//EN" "http://www.w3.org/Graphics/SVG/1.1/DTD/svg11.dtd">
<svg version="1.1" xmlns="http://www.w3.org/2000/svg" xmlns:xlink="http://www.w3.org/1999/xlink" x="0px" y="0px"
	 viewBox="0 0 512 512" enable-background="new 0 0 512 512" xml:space="preserve">
<g id="Layer_11">
	<path fill="#FFFFFF" d="M211.788,118.012c9.683,0.252,17.546,9.754,17.546,21.073c0,8.392,0,16.297,0,23.713
		c0,10.003-7.863,17.992-17.546,17.677l0,0c-9.698-0.288-17.561-8.988-17.561-18.993c0-7.405,0-15.271,0-23.601
		C194.227,126.686,202.09,117.82,211.788,118.012L211.788,118.012z M211.788,336.838c-9.698-0.192-17.561,8.674-17.561,19.871
		c0,8.329,0,16.196,0,23.601c0,10.005,7.863,18.705,17.561,18.993l0,0c9.683,0.315,17.546-7.675,17.546-17.677
		c0-7.417,0-15.321,0-23.713C229.333,346.591,221.471,337.09,211.788,336.838L211.788,336.838z"/>
</g>
<g id="Layer_1">
</g>
</svg>
