<?xml version="1.0" encoding="iso-8859-1"?>
<!-- Generator: Adobe Illustrator 18.1.1, SVG Export Plug-In . SVG Version: 6.00 Build 0)  -->
<!DOCTYPE svg PUBLIC "-//W3C//DTD SVG 1.1//EN" "http://www.w3.org/Graphics/SVG/1.1/DTD/svg11.dtd">
<svg version="1.1" xmlns="http://www.w3.org/2000/svg" xmlns:xlink="http://www.w3.org/1999/xlink" x="0px" y="0px"
	 viewBox="0 0 512 512" enable-background="new 0 0 512 512" xml:space="preserve">
<g id="Layer_3">
	<path fill="#FFA1E0" d="M96.128,287.377c0,0-0.027-0.926-0.08-2.719c-0.026-0.897-0.059-2.011-0.098-3.334
		c-0.012-0.672-0.058-1.353-0.046-2.165c0.019-0.82,0.04-1.696,0.061-2.626c0.071-1.85,0.079-3.969,0.233-6.218
		c0.182-2.238,0.38-4.682,0.595-7.322c0.354-2.625,0.686-5.462,1.144-8.477c0.274-1.5,0.556-3.048,0.847-4.641
		c0.147-0.798,0.296-1.608,0.447-2.429c0.167-0.817,0.375-1.637,0.567-2.473c0.405-1.669,0.82-3.383,1.247-5.141
		c0.473-1.746,1.023-3.517,1.555-5.343c0.272-0.912,0.547-1.834,0.825-2.767c0.32-0.919,0.645-1.848,0.972-2.787
		c0.68-1.87,1.279-3.824,2.074-5.744c2.957-7.779,6.89-15.93,11.801-24.259c4.939-8.311,11.004-16.712,18.257-24.867
		c7.244-8.16,15.767-15.983,25.474-23.128c9.682-7.185,20.719-13.435,32.757-18.554c5.999-2.623,12.327-4.739,18.813-6.706
		c1.63-0.46,3.284-0.859,4.937-1.287c1.658-0.408,3.311-0.884,5.004-1.192c3.374-0.675,6.767-1.434,10.233-1.886
		c1.729-0.252,3.462-0.539,5.208-0.758c1.751-0.175,3.508-0.35,5.271-0.526l2.652-0.259l2.666-0.141
		c1.782-0.085,3.57-0.17,5.364-0.256l0.673-0.031l1.018,0l1.226,0l2.458,0l1.232,0c0.424,0.004,0.782-0.012,1.307,0.022l2.946,0.147
		c4.034,0.162,7.654,0.614,11.426,1.059c14.967,2.098,30.014,6.668,44.086,13.887c14.034,7.269,27.084,17.074,38.229,29.027
		c11.159,11.939,20.242,26.137,26.641,41.638c6.395,15.493,10.096,32.35,10.454,49.339c0.284,8.187-0.418,17.681-2.119,26.208
		c-1.731,8.679-4.455,17.18-8.094,25.271c-1.797,4.058-3.896,7.974-6.132,11.804c-1.191,1.869-2.336,3.772-3.596,5.595
		c-1.285,1.805-2.51,3.657-3.901,5.383c-5.402,7.023-11.56,13.464-18.378,19.101c-13.653,11.224-29.797,19.492-46.905,23.512
		c-8.533,2.048-17.256,3.126-25.917,3.251l-0.812,0.02l-0.406,0.009c0.315,0.009-0.906-0.004-0.885-0.004l-1.352-0.032l-2.761-0.073
		l-3.715-0.255c-0.605-0.051-1.266-0.087-1.825-0.155l-1.678-0.206c-4.48-0.492-8.898-1.414-13.245-2.518
		c-4.342-1.143-8.58-2.609-12.708-4.298c-4.092-1.767-8.111-3.688-11.906-5.967c-3.794-2.273-7.453-4.748-10.868-7.5
		c-1.743-1.332-3.366-2.802-5.012-4.236c-0.808-0.733-1.585-1.5-2.374-2.251c-0.792-0.748-1.566-1.513-2.304-2.311
		c-3.054-3.098-5.782-6.473-8.379-9.909c-2.533-3.488-4.883-7.09-6.907-10.855c-4.079-7.508-7.114-15.49-9.09-23.613
		c-0.446-2.042-0.946-4.068-1.257-6.122l-0.505-3.068l-0.367-3.076c-0.283-2.044-0.326-4.1-0.466-6.14
		c-0.053-1.021-0.039-2.04-0.057-3.058l-0.012-1.525l-0.004-0.761c-0.004-0.032,0.017-1.146,0.015-0.817l0.014-0.306l0.109-2.441
		l0.017-0.329l0.033-0.443l0.069-0.886l0.151-1.768c0.056-0.574,0.101-1.209,0.174-1.729l0.219-1.57
		c0.157-1.044,0.276-2.091,0.492-3.123c0.709-4.151,1.831-8.198,3.161-12.125c5.418-15.74,15.662-28.947,27.989-38.112
		c12.401-9.136,26.93-14.269,40.968-15.255c1.755-0.095,3.5-0.202,5.232-0.197c0.865,0.007,1.728,0.014,2.589,0.021l1.462,0.033
		l0.509,0.047l1.016,0.094c0.677,0.063,1.351,0.125,2.024,0.187l1.008,0.093l0.511,0.049l0.742,0.111
		c1.978,0.302,3.94,0.642,5.872,1.016l0.723,0.142l0.634,0.177l1.263,0.358c0.838,0.244,1.673,0.487,2.506,0.73
		c1.675,0.449,3.264,1.121,4.846,1.768c1.58,0.65,3.158,1.264,4.628,2.092c1.483,0.793,2.98,1.534,4.394,2.388
		c5.666,3.432,10.573,7.631,14.731,12.199c0.987,1.187,1.967,2.366,2.939,3.537c0.948,1.184,1.75,2.471,2.604,3.693
		c0.416,0.618,0.829,1.235,1.242,1.848c0.363,0.645,0.724,1.288,1.083,1.929c0.701,1.29,1.424,2.55,2.059,3.84
		c1.124,2.658,2.372,5.198,3.103,7.888c0.397,1.33,0.85,2.626,1.16,3.948c0.274,1.329,0.546,2.647,0.815,3.953
		c0.121,0.654,0.277,1.296,0.36,1.949c0.07,0.654,0.14,1.305,0.21,1.953c0.126,1.292,0.251,2.572,0.375,3.84
		c0.049,1.269,0.028,2.527,0.034,3.768c-0.003,0.62-0.006,1.236-0.009,1.849l-0.01,0.916c0.005-0.052-0.039,1.31-0.032,0.818
		l-0.022,0.183l-0.044,0.364c-0.118,0.971-0.235,1.931-0.351,2.882l-0.043,0.356l-0.023,0.183l-0.044,0.256l-0.18,1.017
		c-0.128,0.674-0.255,1.344-0.382,2.01c-0.137,0.661-0.273,1.319-0.409,1.973c-0.13,0.676-0.336,1.174-0.502,1.762
		c-0.359,1.125-0.715,2.238-1.066,3.338c-1.69,4.29-3.643,8.226-6.103,11.53c-1.119,1.722-2.472,3.198-3.712,4.668
		c-0.602,0.75-1.315,1.386-1.973,2.044c-0.671,0.644-1.331,1.278-1.981,1.902c-1.397,1.141-2.751,2.235-4.099,3.224
		c-1.411,0.912-2.744,1.82-4.085,2.594c-5.388,3.108-10.501,4.531-14.587,5.325c-1.029,0.173-1.997,0.336-2.905,0.489
		c-0.916,0.086-1.771,0.138-2.559,0.195c-0.786,0.048-1.51,0.092-2.17,0.132c-0.66,0.005-1.259-0.034-1.789-0.048
		c-2.112-0.091-3.202-0.137-3.202-0.137c-3.842-0.165-6.824-3.413-6.659-7.256c0.142-3.305,2.566-5.974,5.686-6.55l0.972-0.178
		c0,0,0.757-0.14,2.224-0.411c0.363-0.071,0.771-0.124,1.215-0.226c0.438-0.127,0.917-0.267,1.438-0.419
		c0.515-0.144,1.072-0.299,1.668-0.465c0.574-0.228,1.187-0.472,1.837-0.731c2.562-1.052,5.622-2.589,8.593-5.129
		c2.987-2.479,5.901-5.921,7.955-10.24c0.245-0.545,0.53-1.073,0.763-1.634c0.201-0.572,0.404-1.152,0.61-1.739
		c0.1-0.292,0.224-0.576,0.313-0.874c0.075-0.303,0.15-0.609,0.225-0.916c0.147-0.613,0.333-1.217,0.471-1.84
		c0.094-0.632,0.189-1.271,0.285-1.917c0.034-0.303,0.145-0.678,0.124-0.923l0.012-0.785l0.044-0.778l0.034-0.388l0.01-0.097
		l-0.003-0.173l-0.007-0.359c-0.019-0.958-0.039-1.925-0.059-2.903l-0.007-0.367l-0.004-0.184c0.012-0.614-0.019,0.626-0.025,0.451
		l-0.084-0.557c-0.053-0.371-0.105-0.743-0.158-1.117c-0.11-0.746-0.181-1.5-0.306-2.25c-0.182-0.738-0.366-1.483-0.552-2.236
		c-0.086-0.374-0.173-0.75-0.26-1.128c-0.094-0.375-0.259-0.735-0.382-1.105c-0.255-0.734-0.513-1.474-0.772-2.221
		c-0.276-0.738-0.675-1.439-0.994-2.167c-0.585-1.483-1.536-2.824-2.302-4.255c-0.452-0.681-0.969-1.33-1.438-2.008l-0.717-1.011
		l-0.839-0.934c-0.572-0.613-1.065-1.292-1.681-1.874c-0.627-0.572-1.246-1.152-1.858-1.742c-2.606-2.197-5.449-4.218-8.644-5.698
		c-0.795-0.37-1.641-0.642-2.45-0.989c-0.796-0.382-1.673-0.571-2.524-0.818c-0.853-0.246-1.692-0.539-2.59-0.641l-1.318-0.254
		l-0.657-0.136l-0.328-0.07l-0.261-0.009c-0.693-0.026-1.371-0.089-2.048-0.192l-0.254-0.041l-0.497-0.006l-1.012-0.009
		c-0.676-0.006-1.353-0.012-2.033-0.018l-1.021-0.009l-0.511-0.004c1.572,0.039,0.327,0.021,0.629,0.034l-0.189,0.017l-1.516,0.125
		c-1.012,0.081-2.016,0.251-3.024,0.384c-4.008,0.709-7.992,1.803-11.774,3.554c-0.961,0.396-1.87,0.921-2.81,1.377
		c-0.9,0.541-1.837,1.014-2.71,1.613c-1.791,1.112-3.491,2.398-5.111,3.789c-1.65,1.355-3.181,2.875-4.619,4.486
		c-1.453,1.598-2.77,3.335-3.961,5.16c-1.207,1.814-2.279,3.729-3.18,5.73c-0.903,1.997-1.733,4.04-2.338,6.166
		c-0.608,2.122-1.138,4.282-1.405,6.503c-0.105,0.548-0.122,1.112-0.188,1.668l-0.087,0.836c-0.032,0.283-0.017,0.458-0.032,0.691
		l-0.034,0.658l-0.023,0.329l-0.013,0.164l-0.004,0.28l-0.015,2.443c0.062,1.112,0.125,2.227,0.187,3.345
		c0.157,1.227,0.203,2.47,0.416,3.692l0.258,1.843l0.356,1.829c0.198,1.229,0.558,2.424,0.836,3.639
		c2.611,9.617,7.733,18.769,14.994,26.166c0.437,0.478,0.904,0.927,1.383,1.364c0.476,0.44,0.935,0.9,1.419,1.332
		c0.998,0.831,1.952,1.718,3.005,2.489c2.035,1.629,4.227,3.064,6.48,4.396c2.233,1.373,4.617,2.487,7.019,3.561
		c2.437,0.995,4.928,1.88,7.488,2.565c2.567,0.646,5.168,1.232,7.829,1.517l0.994,0.134c0.332,0.046,0.571,0.044,0.86,0.072
		c0.555,0.043,1.109,0.094,1.665,0.154l2.639,0.08l1.351,0.037c0.232,0.007-0.75-0.011-0.209-0.008l0.27-0.008l0.54-0.015
		c5.77-0.062,11.531-0.754,17.165-2.079c11.276-2.613,22.025-7.872,31.222-15.248c9.145-7.425,16.714-16.937,21.75-27.66
		c2.537-5.351,4.476-10.986,5.763-16.779c1.252-5.958,1.826-11.267,1.777-17.81c-0.048-6.243-0.586-12.467-1.722-18.568
		c-1.138-6.1-2.818-12.084-5.013-17.859c-4.388-11.551-10.839-22.255-18.826-31.5c-8.011-9.231-17.56-16.954-27.946-22.84
		c-10.384-5.912-21.636-9.875-33.025-11.995c-2.839-0.452-5.799-0.947-8.359-1.159l-1.984-0.228
		c-0.294-0.048-0.759-0.056-1.157-0.08l-1.23-0.062l-2.455-0.124l-1.225-0.062l-0.306-0.015c-0.454-0.009,0.273-0.007,0.1-0.006
		l-0.55,0c-1.467-0.003-2.93-0.006-4.389-0.009l-2.187-0.002l-2.174,0.108c-1.449,0.068-2.894,0.137-4.334,0.204
		c-1.436,0.108-2.862,0.278-4.289,0.41c-2.862,0.212-5.662,0.713-8.463,1.116c-1.407,0.172-2.776,0.508-4.155,0.772
		c-1.378,0.279-2.75,0.557-4.117,0.834c-5.417,1.32-10.752,2.74-15.839,4.632c-10.213,3.659-19.727,8.334-28.271,13.816
		c-17.134,10.948-30.502,24.642-40.132,38.314c-4.837,6.834-8.866,13.633-12.013,20.218c-0.843,1.622-1.496,3.286-2.234,4.877
		c-0.358,0.801-0.713,1.593-1.063,2.376c-0.311,0.799-0.619,1.589-0.923,2.37c-0.599,1.566-1.22,3.088-1.767,4.593
		c-0.505,1.521-0.997,3.004-1.476,4.448c-0.24,0.723-0.501,1.431-0.719,2.14c-0.203,0.713-0.403,1.417-0.601,2.11
		c-0.398,1.39-0.784,2.739-1.158,4.047c-0.665,2.639-1.204,5.137-1.758,7.457c-0.422,2.347-0.813,4.519-1.171,6.508
		c-0.333,1.984-0.5,3.739-0.728,5.343c-0.11,0.799-0.213,1.552-0.31,2.257c-0.094,0.714-0.127,1.462-0.187,2.111
		c-0.106,1.32-0.195,2.431-0.267,3.325c-0.143,1.789-0.217,2.712-0.217,2.712c-0.309,3.855-3.685,6.729-7.54,6.42
		C98.982,293.864,96.245,290.888,96.128,287.377z"/>
</g>
<g id="Layer_1">
</g>
</svg>
