<?xml version="1.0" encoding="iso-8859-1"?>
<!-- Generator: Adobe Illustrator 18.1.1, SVG Export Plug-In . SVG Version: 6.00 Build 0)  -->
<!DOCTYPE svg PUBLIC "-//W3C//DTD SVG 1.1//EN" "http://www.w3.org/Graphics/SVG/1.1/DTD/svg11.dtd">
<svg version="1.1" xmlns="http://www.w3.org/2000/svg" xmlns:xlink="http://www.w3.org/1999/xlink" x="0px" y="0px"
	 viewBox="0 0 512 512" enable-background="new 0 0 512 512" xml:space="preserve">
<g id="Layer_4">
	<path fill="#C4790C" d="M41.204,130.519c-13.328,0.001-26.256-7.039-33.184-19.518C-2.147,92.693,4.454,69.61,22.763,59.444
		c34.605-19.215,72.08-34.048,111.383-44.088C173.48,5.309,214.284,0.142,255.425,0c40.982-0.14,81.845,4.711,121.369,14.423
		c40.306,9.904,78.8,24.757,114.412,44.147c18.393,10.014,25.184,33.041,15.17,51.433c-10.014,18.391-33.043,25.185-51.433,15.169
		c-29.887-16.273-62.269-28.757-96.246-37.105c-33.046-8.12-67.199-12.236-101.53-12.236c-0.496,0-0.986,0.001-1.481,0.002
		c-34.903,0.121-69.481,4.494-102.772,12.998c-33.009,8.432-64.412,20.851-93.338,36.912
		C53.747,128.982,47.431,130.519,41.204,130.519z"/>
</g>
<g id="Layer_1">
</g>
</svg>
