<?xml version="1.0" encoding="iso-8859-1"?>
<!-- Generator: Adobe Illustrator 18.1.1, SVG Export Plug-In . SVG Version: 6.00 Build 0)  -->
<!DOCTYPE svg PUBLIC "-//W3C//DTD SVG 1.1//EN" "http://www.w3.org/Graphics/SVG/1.1/DTD/svg11.dtd">
<svg version="1.1" xmlns="http://www.w3.org/2000/svg" xmlns:xlink="http://www.w3.org/1999/xlink" x="0px" y="0px"
	 viewBox="0 0 512 512" enable-background="new 0 0 512 512" xml:space="preserve">
<g id="Layer_4">
	<path fill="#445056" d="M152.307,335.633h-24.163c-11.929,0-21.6-9.671-21.6-21.6V65.762c0-11.929,9.671-21.6,21.6-21.6h24.163
		c11.929,0,21.6,9.671,21.6,21.6v248.271C173.907,325.963,164.237,335.633,152.307,335.633z M289.854,314.033V65.762
		c0-11.929-9.671-21.6-21.6-21.6h-24.163c-11.929,0-21.6,9.671-21.6,21.6v248.271c0,11.929,9.671,21.6,21.6,21.6h24.163
		C280.184,335.633,289.854,325.963,289.854,314.033z M405.801,314.033V65.762c0-11.929-9.671-21.6-21.6-21.6h-24.163
		c-11.929,0-21.6,9.671-21.6,21.6v248.271c0,11.929,9.671,21.6,21.6,21.6h24.163C396.131,335.633,405.801,325.963,405.801,314.033z"
		/>
</g>
<g id="Layer_1">
</g>
</svg>
