<?xml version="1.0" encoding="iso-8859-1"?>
<!-- Generator: Adobe Illustrator 18.1.1, SVG Export Plug-In . SVG Version: 6.00 Build 0)  -->
<!DOCTYPE svg PUBLIC "-//W3C//DTD SVG 1.1//EN" "http://www.w3.org/Graphics/SVG/1.1/DTD/svg11.dtd">
<svg version="1.1" xmlns="http://www.w3.org/2000/svg" xmlns:xlink="http://www.w3.org/1999/xlink" x="0px" y="0px"
	 viewBox="0 0 512 512" enable-background="new 0 0 512 512" xml:space="preserve">
<g id="Layer_3">
	<path fill="#CED6D5" d="M251.499,22.271c0-9.369-7.622-16.991-16.991-16.991h-1.377c-9.369,0-16.99,7.622-16.99,16.991v121.688
		h-1.078l-0.023,0.991c-0.123,5.203-4.293,9.279-9.494,9.279c-5.114,0-9.372-4.163-9.493-9.279l-0.023-0.991h-0.912V22.271
		c0-9.369-7.622-16.991-16.99-16.991h-1.377c-9.369,0-16.991,7.622-16.991,16.991v121.688h-1.033l-0.006,1.009
		c-0.031,5.21-4.294,9.449-9.503,9.449s-9.472-4.239-9.503-9.449l-0.006-1.009h-0.972V22.271c0-9.369-7.622-16.991-16.99-16.991
		h-1.377c-9.369,0-16.99,7.622-16.99,16.991V188.5c0,1.028,0.107,2.029,0.283,3.007c1.804,33.68,21.681,61.988,48.903,72.91V484.38
		c0,13.737,11.137,24.874,24.875,24.874s24.875-11.137,24.875-24.874V264.416c27.222-10.922,47.1-39.23,48.903-72.91
		c0.176-0.978,0.283-1.979,0.283-3.007V22.271z"/>
</g>
<g id="Layer_1">
</g>
</svg>
