<?xml version="1.0" encoding="iso-8859-1"?>
<!-- Generator: Adobe Illustrator 18.1.1, SVG Export Plug-In . SVG Version: 6.00 Build 0)  -->
<!DOCTYPE svg PUBLIC "-//W3C//DTD SVG 1.1//EN" "http://www.w3.org/Graphics/SVG/1.1/DTD/svg11.dtd">
<svg version="1.1" xmlns="http://www.w3.org/2000/svg" xmlns:xlink="http://www.w3.org/1999/xlink" x="0px" y="0px"
	 viewBox="0 0 512 512" enable-background="new 0 0 512 512" xml:space="preserve">
<g id="Layer_9">
	<path fill="#F4F3EF" d="M379.708,234.084c-4.549,0-9.15-1.266-13.257-3.915c-11.154-7.195-54.409-30.67-142.721-30.67
		c-89.11,0-134.048,23.546-145.698,30.763c-11.503,7.125-26.603,3.576-33.729-7.927c-7.125-11.503-3.576-26.604,7.927-33.729
		C70.726,177.149,124.465,150.5,223.73,150.5c42.499,0,80.896,4.913,114.123,14.602c27.334,7.971,45.083,17.392,55.158,23.891
		c11.371,7.335,14.643,22.499,7.308,33.869C395.635,230.125,387.754,234.084,379.708,234.084z"/>
</g>
<g id="Layer_1">
</g>
</svg>
