<?xml version="1.0" encoding="iso-8859-1"?>
<!-- Generator: Adobe Illustrator 19.1.0, SVG Export Plug-In . SVG Version: 6.00 Build 0)  -->
<!DOCTYPE svg PUBLIC "-//W3C//DTD SVG 1.1//EN" "http://www.w3.org/Graphics/SVG/1.1/DTD/svg11.dtd">
<svg version="1.1" xmlns="http://www.w3.org/2000/svg" xmlns:xlink="http://www.w3.org/1999/xlink" x="0px" y="0px"
	 viewBox="0 0 512 512" enable-background="new 0 0 512 512" xml:space="preserve">
<g id="Layer_5">
	<path fill="#2B3B47" d="M453.388,261.251c15.17,5.607,22.923,22.45,17.317,37.62s-22.45,22.923-37.62,17.317
		c-15.17-5.607-22.923-22.45-17.317-37.62C421.374,263.398,438.217,255.645,453.388,261.251z M328.708,246.393
		c-5.607,15.17,2.146,32.014,17.317,37.62c15.17,5.607,32.014-2.146,37.62-17.317c5.607-15.17-2.146-32.014-17.317-37.62
		S334.315,231.223,328.708,246.393z M344.273,332.563c-5.607,15.17,2.146,32.014,17.317,37.62
		c15.17,5.607,32.014-2.146,37.62-17.317s-2.146-32.014-17.317-37.62C366.723,309.64,349.879,317.393,344.273,332.563z"/>
</g>
<g id="Layer_1">
</g>
</svg>
