<?xml version="1.0" encoding="iso-8859-1"?>
<!-- Generator: Adobe Illustrator 19.2.1, SVG Export Plug-In . SVG Version: 6.00 Build 0)  -->
<!DOCTYPE svg PUBLIC "-//W3C//DTD SVG 1.1//EN" "http://www.w3.org/Graphics/SVG/1.1/DTD/svg11.dtd">
<svg version="1.1" xmlns="http://www.w3.org/2000/svg" xmlns:xlink="http://www.w3.org/1999/xlink" x="0px" y="0px"
	 viewBox="0 0 512 512" enable-background="new 0 0 512 512" xml:space="preserve">
<g id="Layer_2">
	<path fill="#FF473E" d="M400.346,432.789c-21.184-28.088-56.086-73.222-89.859-119.481c29.698-43.61,55.086-85.358,65.372-114.153
		c16.53-46.271,9.438-99.643-18.504-139.297C333.022,25.327,295.454,5.52,254.291,5.52c-41.167,0-78.73,19.807-103.068,54.339
		c-27.942,39.654-35.034,93.026-18.504,139.297c10.259,28.72,35.677,70.462,65.386,114.06
		c-33.486,45.864-68.056,90.608-89.179,118.647c-12.828,17.029-9.636,41.168,7.119,54.351l12.525,9.855
		c16.109,12.674,39.445,9.696,51.822-6.642c16.259-21.463,44.104-57.262,73.949-97.523c29.029,39.161,56.1,74.053,72.284,95.461
		c13.216,17.483,38.189,20.657,55.413,7.106l11.421-8.986C409.7,472.707,412.789,449.287,400.346,432.789z M219.065,168.308
		c-6.456-18.074-3.6-40.433,7.11-55.633c7.231-10.262,16.691-15.464,28.116-15.464c11.421,0,20.881,5.202,28.112,15.464
		c10.709,15.2,13.566,37.554,7.11,55.633c-5.61,15.705-18.525,38.349-35.238,64.179
		C237.586,206.676,224.683,184.037,219.065,168.308z"/>
</g>
<g id="Layer_1">
</g>
</svg>
