<?xml version="1.0" encoding="iso-8859-1"?>
<!-- Generator: Adobe Illustrator 19.1.0, SVG Export Plug-In . SVG Version: 6.00 Build 0)  -->
<!DOCTYPE svg PUBLIC "-//W3C//DTD SVG 1.1//EN" "http://www.w3.org/Graphics/SVG/1.1/DTD/svg11.dtd">
<svg version="1.1" xmlns="http://www.w3.org/2000/svg" xmlns:xlink="http://www.w3.org/1999/xlink" x="0px" y="0px"
	 viewBox="0 0 512 512" enable-background="new 0 0 512 512" xml:space="preserve">
<g id="Layer_6">
	<path fill="#4C311E" d="M341.27,281.133c-1.526-2.727-2.409-5.671-2.409-8.742l7.111-57.125c0-14.073,11.406-25.479,25.479-25.479
		c14.073,0,25.479,11.406,25.479,25.479l7.111,57.125c0,4.345-1.771,8.436-4.628,12.017c-5.627-10.86-16.96-18.288-30.04-18.288
		C357.657,266.119,347.337,272.081,341.27,281.133z M389.388,333.902c-18.852,11.805-73.465,17.679-153.913,17.679
		c-12.344,0-23.49-0.139-33.591-0.416c-0.873,17.358-12.006,31.092-25.623,31.092c-14.18,0-25.678-14.905-25.678-33.287
		c0-0.473,0.012-0.941,0.028-1.409c-21.504-2.938-34.35-7.487-44.209-13.658c-5.362-3.356-12.082,1.529-10.638,7.688
		c11.953,51.115,75.512,90.119,152.135,90.119c13.516,0,26.622-1.219,39.114-3.499c-0.462-2.415-0.708-4.947-0.708-7.557
		c0-16.668,10.033-30.187,22.406-30.187c10.908,0,19.992,10.507,21.993,24.414c36.211-16.125,62.132-42.509,69.331-73.29
		C401.47,335.431,394.75,330.546,389.388,333.902z M141.816,266.119c11.979,0,22.492,6.232,28.5,15.622
		c1.744-2.896,2.774-6.048,2.774-9.35l-7.111-57.125c0-14.073-11.406-25.479-25.479-25.479c-14.073,0-25.479,11.406-25.479,25.479
		l-7.111,57.125c0,4.109,1.588,7.989,4.177,11.427C117.812,273.277,128.978,266.119,141.816,266.119z"/>
</g>
<g id="Layer_1">
</g>
</svg>
