<?xml version="1.0" encoding="iso-8859-1"?>
<!-- Generator: Adobe Illustrator 19.1.0, SVG Export Plug-In . SVG Version: 6.00 Build 0)  -->
<!DOCTYPE svg PUBLIC "-//W3C//DTD SVG 1.1//EN" "http://www.w3.org/Graphics/SVG/1.1/DTD/svg11.dtd">
<svg version="1.1" xmlns="http://www.w3.org/2000/svg" xmlns:xlink="http://www.w3.org/1999/xlink" x="0px" y="0px"
	 viewBox="0 0 512 512" enable-background="new 0 0 512 512" xml:space="preserve">
<g id="Layer_9">
	<path fill="#FFCD7D" d="M108.361,133.308l9.661,20.933c1.14,2.471,0.062,5.398-2.409,6.538c-1.443,0.666-3.066,0.563-4.374-0.121
		l-20.366-10.803c-6.198-3.288-8.558-10.978-5.27-17.176c3.288-6.198,10.978-8.558,17.176-5.27
		C105.333,128.763,107.237,130.871,108.361,133.308z M312.012,59.23c-6.198-3.288-13.888-0.928-17.176,5.27
		s-0.928,13.888,5.27,17.176l20.366,10.803c1.308,0.684,2.93,0.787,4.374,0.121c2.471-1.14,3.549-4.068,2.409-6.538l-9.661-20.933
		C316.47,62.693,314.566,60.585,312.012,59.23z M197.412,84.973c-4.024-5.748-11.946-7.145-17.694-3.12
		c-5.748,4.024-7.145,11.946-3.12,17.694l13.223,18.885c0.854,1.204,2.251,2.034,3.84,2.097c2.719,0.108,5.011-2.008,5.12-4.727
		l0.919-23.036C199.807,90.085,199.07,87.342,197.412,84.973z M430.924,141.136c3.04-6.633,0.127-14.474-6.505-17.513
		c-6.633-3.04-14.474-0.127-17.513,6.505l-7.454,16.264c-0.499,1.092-0.622,2.37-0.249,3.609c0.815,2.71,3.672,4.246,6.381,3.432
		l17.134-5.15C426.203,147.218,429.286,144.709,430.924,141.136z M242.467,194.789c-6.897-1.287-13.532,3.26-14.82,10.157
		c-1.287,6.897,3.26,13.532,10.157,14.82l22.663,4.23c1.452,0.262,3.032-0.124,4.21-1.19c2.018-1.826,2.173-4.942,0.347-6.959
		l-15.469-17.094C247.755,196.762,245.309,195.319,242.467,194.789z M364.617,214.043c2.809,6.43,10.298,9.365,16.728,6.556
		c6.43-2.809,9.365-10.298,6.556-16.728l-9.23-21.126c-0.599-1.349-1.805-2.439-3.35-2.815c-2.644-0.644-5.309,0.978-5.953,3.622
		l-5.454,22.4C363.28,208.559,363.46,211.393,364.617,214.043z M173.788,207.73c0.806-7.05-4.256-13.418-11.306-14.224
		c-7.05-0.806-13.418,4.256-14.224,11.306l-2.647,23.164c-0.126,1.149,0.224,2.362,1.068,3.281c1.551,1.689,4.178,1.8,5.867,0.249
		l17.169-15.773C171.906,213.716,173.424,210.92,173.788,207.73z M290.226,165.874c6.586,2.419,13.886-0.959,16.305-7.545
		c2.419-6.586-0.959-13.886-7.545-16.305l-21.641-7.948c-1.388-0.5-3.01-0.383-4.35,0.472c-2.294,1.464-2.966,4.51-1.502,6.804
		l12.404,19.433C285.34,163.047,287.512,164.878,290.226,165.874z"/>
</g>
<g id="Layer_1">
</g>
</svg>
