<?xml version="1.0" encoding="iso-8859-1"?>
<!-- Generator: Adobe Illustrator 19.1.0, SVG Export Plug-In . SVG Version: 6.00 Build 0)  -->
<!DOCTYPE svg PUBLIC "-//W3C//DTD SVG 1.1//EN" "http://www.w3.org/Graphics/SVG/1.1/DTD/svg11.dtd">
<svg version="1.1" xmlns="http://www.w3.org/2000/svg" xmlns:xlink="http://www.w3.org/1999/xlink" x="0px" y="0px"
	 viewBox="0 0 512 512" enable-background="new 0 0 512 512" xml:space="preserve">
<g id="Layer_3">
	<path fill="#496170" d="M440.896,344.174c0,18.972-18.896,34.357-42.197,34.357c-23.31,0-42.204-15.385-42.204-34.357
		c0-18.971,18.894-34.357,42.204-34.357C422,309.817,440.896,325.202,440.896,344.174 M327.05,126.456
		c0-23.302-18.896-42.196-42.197-42.196c-23.31,0-42.204,18.894-42.204,42.196c0,23.303,18.894,42.197,42.204,42.197
		C308.154,168.652,327.05,149.759,327.05,126.456 M79.078,79.374c14.481,10.977,35.223,17.86,58.272,17.86
		c43.77,0,79.258-24.797,79.258-55.382c0-11.204-4.778-21.624-12.965-30.34C155.549,21.761,112.57,45.826,79.078,79.374z
		 M34.035,253.015c-9.862,0-19.296,1.816-28.006,5.108c0.47,56.363,19.585,108.27,51.484,149.867
		c32.308-10.008,55.78-40.124,55.78-75.719C113.293,288.503,77.805,253.015,34.035,253.015z M208.551,501.485
		c15.363,2.952,31.22,4.516,47.445,4.516c37.879,0,73.782-8.44,105.955-23.518c-13.773-26.355-41.351-44.353-73.149-44.353
		C249.831,438.13,217.19,465.157,208.551,501.485z M242.924,228.226c-39.339,0-71.239,25.959-71.239,57.992
		c0,32.033,31.9,57.992,71.239,57.992c39.344,0,71.239-25.959,71.239-57.992C314.163,254.186,282.268,228.226,242.924,228.226z"/>
</g>
<g id="Layer_1">
</g>
</svg>
