<?xml version="1.0" encoding="iso-8859-1"?>
<!-- Generator: Adobe Illustrator 18.1.1, SVG Export Plug-In . SVG Version: 6.00 Build 0)  -->
<!DOCTYPE svg PUBLIC "-//W3C//DTD SVG 1.1//EN" "http://www.w3.org/Graphics/SVG/1.1/DTD/svg11.dtd">
<svg version="1.1" xmlns="http://www.w3.org/2000/svg" xmlns:xlink="http://www.w3.org/1999/xlink" x="0px" y="0px"
	 viewBox="0 0 512 512" enable-background="new 0 0 512 512" xml:space="preserve">
<g id="Layer_4">
	<path fill="#CE0B27" d="M214.311,99.22v28.419c0,0-11.832-23.596-91.881-23.596S30.55,131.849,30.55,131.849V99.22
		c0-12.345,10.007-22.352,22.352-22.352h139.058C204.304,76.868,214.311,86.875,214.311,99.22z M464.87,265.266H364.324
		c-12.345,0-22.352,10.007-22.352,22.352v32.629c0,0-7.424-27.806,72.625-27.806s72.625,23.596,72.625,23.596v-28.419
		C487.222,275.273,477.215,265.266,464.87,265.266z M462.566,76.868H249.621c-17.618,0-24.656,10.007-24.656,22.352v32.629
		c0,0,16.886-27.806,131.129-27.806s131.129,23.596,131.129,23.596V99.22C487.222,86.875,480.184,76.868,462.566,76.868z
		 M306.48,265.266H56.081c-17.618,0-24.656,10.007-24.656,22.352v32.629c0,0,35.613-27.806,149.855-27.806
		s149.855,23.596,149.855,23.596v-28.419C331.136,275.273,324.097,265.266,306.48,265.266z"/>
</g>
<g id="Layer_1">
</g>
</svg>
