<?xml version="1.0" encoding="iso-8859-1"?>
<!-- Generator: Adobe Illustrator 18.1.1, SVG Export Plug-In . SVG Version: 6.00 Build 0)  -->
<!DOCTYPE svg PUBLIC "-//W3C//DTD SVG 1.1//EN" "http://www.w3.org/Graphics/SVG/1.1/DTD/svg11.dtd">
<svg version="1.1" xmlns="http://www.w3.org/2000/svg" xmlns:xlink="http://www.w3.org/1999/xlink" x="0px" y="0px"
	 viewBox="0 0 512 512" enable-background="new 0 0 512 512" xml:space="preserve">
<g id="Layer_2">
	<g>
		<g>
			<path fill="#E5E4DF" d="M460.936,406.873c0,43.247-91.996,78.306-205.48,78.306c-113.483,0-205.48-35.059-205.48-78.306
				s91.996-78.306,205.48-78.306C368.94,328.566,460.936,363.625,460.936,406.873z"/>
		</g>
	</g>
</g>
<g id="Layer_3">
	<g>
		<g>
			<path fill="#D1CFC3" d="M507,365.317c0,52.942-112.62,95.861-251.544,95.861c-138.923,0-251.543-42.918-251.543-95.861
				s112.62-95.86,251.543-95.86C394.38,269.456,507,312.374,507,365.317z"/>
		</g>
	</g>
</g>
<g id="Layer_4">
	<g>
		<g>
			<path fill="#E1E1E1" d="M466.776,148.648c0,0.214-0.051,0.424-0.062,0.637c-1.329,29.579-94.446,53.454-209.184,53.454
				c-114.733,0-207.851-23.874-209.182-53.451c-0.01-0.214-0.064-0.426-0.064-0.64c0-29.875,93.685-54.093,209.247-54.093
				C373.096,94.555,466.776,118.773,466.776,148.648z"/>
		</g>
	</g>
</g>
<g id="Layer_5">
	<g>
		<g>
			<path fill="#77B708" d="M442.902,173.165c0,26.465-82.993,47.919-185.371,47.919c-102.378,0-185.371-21.454-185.371-47.919
				s82.993-47.92,185.371-47.92C359.908,125.246,442.902,146.7,442.902,173.165z"/>
		</g>
	</g>
</g>
<g id="Layer_6">
	<path fill="#E5E4DF" d="M466.778,150.273l1.255,115.605c0,0-4.108,148.501-212.71,148.501S47.027,266.107,47.027,266.107
		l1.255-115.834c0-0.335,0.046-0.655,0.064-0.985c1.332,29.577,94.45,53.451,209.182,53.451
		c114.738,0,207.856-23.875,209.184-53.454C466.733,149.615,466.778,149.936,466.778,150.273z"/>
</g>
<g id="Layer_7">
	<path fill="#D1CFC3" d="M257.528,105.574c54.99,0,106.557,5.502,145.203,15.492c42.355,10.949,52.5,23.068,53.005,27.26
		c-0.012,0.149-0.023,0.302-0.031,0.464c-0.253,5.645-14.786,17.663-53.787,27.639c-38.548,9.861-89.826,15.291-144.389,15.291
		c-54.56,0-105.838-5.43-144.385-15.291c-39.001-9.975-53.535-21.993-53.791-27.696c-0.008-0.141-0.018-0.281-0.03-0.422
		c0.526-4.205,10.697-16.309,53.006-27.245C150.974,111.076,202.542,105.574,257.528,105.574 M257.528,94.555
		c-115.561,0-209.247,24.217-209.247,54.092c0,0.214,0.054,0.426,0.064,0.64c1.332,29.578,94.45,53.451,209.182,53.451
		c114.738,0,207.856-23.875,209.184-53.454c0.011-0.214,0.062-0.424,0.062-0.637C466.774,118.772,373.095,94.555,257.528,94.555
		L257.528,94.555z"/>
</g>
</svg>
