<?xml version="1.0" encoding="iso-8859-1"?>
<!-- Generator: Adobe Illustrator 18.1.1, SVG Export Plug-In . SVG Version: 6.00 Build 0)  -->
<!DOCTYPE svg PUBLIC "-//W3C//DTD SVG 1.1//EN" "http://www.w3.org/Graphics/SVG/1.1/DTD/svg11.dtd">
<svg version="1.1" xmlns="http://www.w3.org/2000/svg" xmlns:xlink="http://www.w3.org/1999/xlink" x="0px" y="0px"
	 viewBox="0 0 512 512" enable-background="new 0 0 512 512" xml:space="preserve">
<g id="Layer_7">
	<path fill="#F9F9F7" d="M329.006,391.851c0,0.354-0.016,0.705-0.024,1.058c0.007,0.432,0.024,0.861,0.024,1.295
		c0,1.782-0.213,3.465-0.605,5.064c-2.807,17.457-15.431,33.342-34.773,45.948H68.031c-21.191-13.811-34.31-31.561-35.299-50.997
		c-0.041-0.009-0.065-0.015-0.065-0.015c0-0.443,0.017-0.88,0.023-1.321c-0.008-0.344-0.023-0.687-0.023-1.032
		c0-1.978,0.134-3.938,0.381-5.881c5.967-66.525,83.652-105.526,147.789-105.526c63.754,0,140.903,41.462,147.682,104.728
		C328.837,387.375,329.006,389.602,329.006,391.851z"/>
</g>
<g id="Layer_1">
</g>
</svg>
