<?xml version="1.0" encoding="iso-8859-1"?>
<!-- Generator: Adobe Illustrator 19.2.1, SVG Export Plug-In . SVG Version: 6.00 Build 0)  -->
<!DOCTYPE svg PUBLIC "-//W3C//DTD SVG 1.1//EN" "http://www.w3.org/Graphics/SVG/1.1/DTD/svg11.dtd">
<svg version="1.1" xmlns="http://www.w3.org/2000/svg" xmlns:xlink="http://www.w3.org/1999/xlink" x="0px" y="0px"
	 viewBox="0 0 512 512" enable-background="new 0 0 512 512" xml:space="preserve">
<g id="Layer_5">
	<path fill="#597B91" d="M337.444,142.406H168.159c-2.698,0-4.884-2.187-4.884-4.884s2.187-4.884,4.884-4.884h169.285
		c2.697,0,4.885,2.187,4.885,4.884S340.142,142.406,337.444,142.406z M228.489,164.346c0-2.698-2.187-4.884-4.884-4.884h-55.445
		c-2.698,0-4.884,2.187-4.884,4.884s2.187,4.884,4.884,4.884h55.445C226.302,169.23,228.489,167.044,228.489,164.346z
		 M215.879,191.171c0-2.698-2.187-4.884-4.884-4.884h-42.835c-2.698,0-4.884,2.187-4.884,4.884s2.187,4.884,4.884,4.884h42.835
		C213.692,196.055,215.879,193.869,215.879,191.171z M228.489,217.996c0-2.698-2.187-4.884-4.884-4.884h-55.445
		c-2.698,0-4.884,2.187-4.884,4.884s2.187,4.884,4.884,4.884h55.445C226.302,222.88,228.489,220.693,228.489,217.996z
		 M342.329,217.996c0-2.698-2.188-4.884-4.885-4.884h-55.445c-2.697,0-4.885,2.187-4.885,4.884s2.188,4.884,4.885,4.884h55.445
		C340.142,222.88,342.329,220.693,342.329,217.996z M342.329,164.346c0-2.698-2.188-4.884-4.885-4.884h-55.445
		c-2.697,0-4.885,2.187-4.885,4.884s2.188,4.884,4.885,4.884h55.445C340.142,169.23,342.329,167.044,342.329,164.346z
		 M342.329,191.171c0-2.698-2.188-4.884-4.885-4.884h-40.899c-2.697,0-4.885,2.187-4.885,4.884s2.188,4.884,4.885,4.884h40.899
		C340.142,196.055,342.329,193.869,342.329,191.171z M342.329,243.132c0-2.698-2.188-4.884-4.885-4.884H168.159
		c-2.698,0-4.884,2.187-4.884,4.884s2.187,4.884,4.884,4.884h169.285C340.142,248.016,342.329,245.83,342.329,243.132z
		 M342.329,112.636c0-2.698-2.188-4.884-4.885-4.884H168.159c-2.698,0-4.884,2.187-4.884,4.884s2.187,4.884,4.884,4.884h169.285
		C340.142,117.521,342.329,115.334,342.329,112.636z M342.329,268.519c0-2.697-2.188-4.885-4.885-4.885H168.159
		c-2.698,0-4.884,2.188-4.884,4.885s2.187,4.885,4.884,4.885h169.285C340.142,273.403,342.329,271.216,342.329,268.519z
		 M342.329,293.906c0-2.697-2.188-4.885-4.885-4.885H168.159c-2.698,0-4.884,2.188-4.884,4.885s2.187,4.885,4.884,4.885h169.285
		C340.142,298.791,342.329,296.604,342.329,293.906z"/>
</g>
<g id="Layer_1">
</g>
</svg>
