<?xml version="1.0" encoding="iso-8859-1"?>
<!-- Generator: Adobe Illustrator 18.1.1, SVG Export Plug-In . SVG Version: 6.00 Build 0)  -->
<!DOCTYPE svg PUBLIC "-//W3C//DTD SVG 1.1//EN" "http://www.w3.org/Graphics/SVG/1.1/DTD/svg11.dtd">
<svg version="1.1" xmlns="http://www.w3.org/2000/svg" xmlns:xlink="http://www.w3.org/1999/xlink" x="0px" y="0px"
	 viewBox="0 0 512 512" enable-background="new 0 0 512 512" xml:space="preserve">
<g id="Layer_4">
	<path fill="#FFDF95" d="M427.638,252.474c1.621-2.853,3.203-5.722,4.72-8.608c6.97-13.584,12.638-27.513,17.225-41.247
		c1.052-3.468,2.061-6.915,3.042-10.328c0.479-1.711,1.015-3.392,1.436-5.1c0.4-1.713,0.798-3.417,1.193-5.112
		c0.762-3.395,1.609-6.721,2.242-10.055c0.58-3.348,1.171-6.644,1.701-9.901c0.256-1.63,0.568-3.235,0.768-4.851
		c0.185-1.617,0.368-3.222,0.55-4.814c0.343-3.186,0.711-6.311,1.005-9.388c0.163-3.09,0.323-6.129,0.48-9.111
		c0.073-1.486,0.146-2.959,0.218-4.417c0.035-0.728,0.069-1.452,0.103-2.172c-0.007-0.724-0.013-1.444-0.02-2.161
		c-0.035-2.858-0.069-5.657-0.103-8.392c-0.036-2.728-0.029-5.384-0.288-7.981c-0.196-2.587-0.386-5.107-0.571-7.557
		c-0.196-2.443-0.317-4.81-0.695-7.099c-0.65-4.576-1.195-8.836-1.824-12.752c-0.782-3.991-1.513-7.643-2.238-10.906
		c-0.356-1.628-0.692-3.168-1.009-4.618c-0.361-1.382-0.755-2.624-1.092-3.809c-0.678-2.356-1.287-4.356-1.787-5.977
		c-0.486-1.623-0.902-2.861-1.167-3.698c-0.269-0.836-0.408-1.268-0.408-1.268c-1.164-3.607-4.412-6.342-8.425-6.652
		c-5.301-0.409-9.93,3.557-10.339,8.858c0,0-0.035,0.452-0.102,1.328c-0.063,0.875-0.181,2.177-0.277,3.868
		c-0.11,1.693-0.239,3.779-0.352,6.228c-0.064,1.221-0.132,2.533-0.205,3.932c-0.132,1.318-0.273,2.718-0.422,4.197
		c-0.32,2.951-0.564,6.178-0.887,9.679c-0.509,3.59-0.924,7.447-1.436,11.545c-0.211,2.049-0.587,4.155-0.926,6.317
		c-0.343,2.156-0.697,4.373-1.059,6.649c-0.201,1.133-0.325,2.284-0.558,3.441c-0.229,1.155-0.46,2.324-0.695,3.507
		c-0.465,2.355-0.94,4.765-1.425,7.227c-0.119,0.613-0.239,1.23-0.359,1.849c-0.145,0.616-0.291,1.235-0.437,1.857
		c-0.293,1.241-0.589,2.495-0.887,3.761c-0.596,2.52-1.203,5.087-1.821,7.699c-0.758,2.581-1.46,5.21-2.204,7.867
		c-0.361,1.329-0.725,2.667-1.092,4.016c-0.369,1.346-0.851,2.677-1.274,4.028c-0.884,2.694-1.725,5.43-2.596,8.189
		c-0.932,2.743-1.986,5.483-2.972,8.268c-0.499,1.389-1,2.786-1.504,4.19c-0.505,1.402-1.122,2.776-1.679,4.174
		c-1.152,2.784-2.284,5.599-3.413,8.437c-4.958,11.194-10.501,22.505-16.819,33.611c-4.228,7.249-8.744,14.414-13.518,21.437
		C389.539,239.373,409.798,241.059,427.638,252.474z"/>
</g>
<g id="Layer_1">
</g>
</svg>
