<?xml version="1.0" encoding="iso-8859-1"?>
<!-- Generator: Adobe Illustrator 18.1.1, SVG Export Plug-In . SVG Version: 6.00 Build 0)  -->
<!DOCTYPE svg PUBLIC "-//W3C//DTD SVG 1.1//EN" "http://www.w3.org/Graphics/SVG/1.1/DTD/svg11.dtd">
<svg version="1.1" xmlns="http://www.w3.org/2000/svg" xmlns:xlink="http://www.w3.org/1999/xlink" x="0px" y="0px"
	 viewBox="0 0 512 512" enable-background="new 0 0 512 512" xml:space="preserve">
<g id="Layer_11">
	<path fill="#2B3B47" d="M360.186,218.518c-8.808,0-17.412,0.683-25.74,1.973c0,0,0,0,0,0c1.287-30.576,1.998-58.582-9.117-83.6
		c-13.598-30.603-32.642-57.508-58.014-78.284C191.594-3.397,128.531,28.771,99.757,48.464c-0.548,0.375-1.06,0.725-1.539,1.054
		c-1.558,0.581-3.05,1.327-4.456,2.272c-4.721,3.174-6.884,7.419-7.32,12.19c7.578-4.363,15.462-8.554,23.503-12.566
		c3.275-0.109,6.823,0.043,10.481,0.687c24.456,4.303,68.431,39.353,97.426,64.208c36.235,31.061,39.467,78.403,39.491,140.711
		c-18.626,17.992-29.8,40.96-29.8,65.986c0,57.707,59.386,104.488,132.642,104.488s132.642-46.781,132.642-104.488
		S433.442,218.518,360.186,218.518z M328.76,221.477c-0.042,0.008-0.083,0.016-0.125,0.024
		C328.676,221.493,328.718,221.485,328.76,221.477z M306.782,227.341c-0.03,0.01-0.06,0.021-0.09,0.031
		C306.722,227.361,306.752,227.351,306.782,227.341z M301.574,229.255c-0.038,0.015-0.075,0.029-0.113,0.044
		C301.499,229.284,301.537,229.269,301.574,229.255z M282.098,238.544c-0.054,0.031-0.109,0.062-0.163,0.094
		C281.989,238.607,282.043,238.576,282.098,238.544z M277.527,241.291c-0.029,0.018-0.057,0.036-0.086,0.054
		C277.47,241.327,277.499,241.309,277.527,241.291z M261.102,253.55c-0.051,0.045-0.101,0.09-0.152,0.135
		C261,253.64,261.051,253.595,261.102,253.55z M264.943,250.293c-0.029,0.023-0.058,0.046-0.086,0.07
		C264.885,250.339,264.914,250.316,264.943,250.293z M443.007,382.963c-21.94,17.283-51.353,26.802-82.821,26.802
		s-60.881-9.518-82.821-26.802c-20.695-16.302-32.092-37.595-32.092-59.957s11.397-43.655,32.092-59.957
		c21.94-17.283,51.353-26.802,82.821-26.802s60.881,9.518,82.821,26.802c20.695,16.302,32.092,37.595,32.092,59.957
		S463.702,366.661,443.007,382.963z"/>
</g>
<g id="Layer_1">
</g>
</svg>
