<?xml version="1.0" encoding="iso-8859-1"?>
<!-- Generator: Adobe Illustrator 19.1.0, SVG Export Plug-In . SVG Version: 6.00 Build 0)  -->
<!DOCTYPE svg PUBLIC "-//W3C//DTD SVG 1.1//EN" "http://www.w3.org/Graphics/SVG/1.1/DTD/svg11.dtd">
<svg version="1.1" xmlns="http://www.w3.org/2000/svg" xmlns:xlink="http://www.w3.org/1999/xlink" x="0px" y="0px"
	 viewBox="0 0 512 512" enable-background="new 0 0 512 512" xml:space="preserve">
<g id="Layer_6">
	<path fill="#00B89C" d="M487,224.896c-24.165-13.414-59.483-18.692-90.531-18.678c-16.936,0.008-34.178,1.775-50.342,5.08
		c-12.591,2.574-24.897,5.831-37.846,7.507c-2.173,0.089-4.341,0.111-6.515,0.061c-1.499-0.233-2.98-0.505-4.445-0.819
		c-5.368-1.803-10.466-3.914-15.669-5.931c-8.338-3.231-17.069-5.757-26.05-8.14c-15.799-4.191-32.439-6.189-49.373-7.188
		c-31.978-1.887-64.945,2.933-93.377,12.617c-4.479,0.37-8.995,1.275-13.379,2.737c-29.023,9.679-53.603,25.128-70.866,43.171
		c-3.666,3.832-6.912,7.839-9.698,11.978c-6.073,9.023-11.521,18.304-6.134,28.282c10.086,18.683,40.229,25.499,67.958,21.115
		c19.126-3.024,34.04-11.309,49.039-19.147c3.76-1.782,7.652-3.408,11.757-4.802c0.456-0.097,0.911,16.816,1.37,16.728
		c3.846,2.308,7.468,4.774,11.399,7.026c6.696,3.837,13.86,7.534,21.478,10.564c15.601,6.207,34.26,10.182,52.617,10.07
		c18.755-0.114,36.667-4.046,51.466-11.551c7.884-3.999,14.351-8.716,19.348-14.46c1.829-2.102,3.409-4.279,5.139-6.4
		c1.415,0.244,12.121-13.222,15.855-11.447c9.347,4.919,18.473,10.089,28.603,14.284c14.008,5.801,30.493,9.284,47.119,9.313
		c32.013,0.058,62.214-12.071,84.44-26.363c11.469-7.375,22.195-17.164,25.349-27.702C509.89,248.84,503.933,234.296,487,224.896z
		 M159.185,246.755c6.613-1.423,13.363-2.525,20.236-3.304c9.377-0.589,18.774-0.587,28.153,0c8.802,0.995,17.406,2.512,25.77,4.568
		c6.634,2.096,12.867,21.624,19.216,24.039c-6.432,4.982-10.057,10.926-15.354,16.42c-0.269,0.182-0.547,0.359-0.824,0.536
		c-0.681,0.273-1.376,0.534-2.077,0.786c-1.295,0.264-2.603,0.494-3.925,0.696c-1.685,0.046-3.367,0.043-5.051-0.006
		c-2.536-0.375-5.025-0.845-7.483-1.399c-4.073-1.344-7.954-2.885-11.69-4.597c-6.981-3.913-13.296-8.289-20.585-11.986
		C177.699,268.517,168.762,248.359,159.185,246.755z M421.817,262.449c-5.09,2.398-10.394,4.556-16.006,6.376
		c-2.475,0.562-4.981,1.032-7.531,1.41c-1.304,0.033-2.606,0.033-3.909,0.007c-1.299-0.207-2.587-0.44-3.862-0.708
		c-4.46-1.52-8.655-3.325-12.721-5.276c-4.797-2.541-9.538-5.167-14.4-7.675c6.644-1.356,13.34-2.546,20.219-3.365
		c8.756-0.536,17.526-0.531,26.283,0.016c7.263,0.841,14.378,2.049,21.33,3.632C428.251,258.839,425.09,260.684,421.817,262.449z"/>
</g>
<g id="Layer_1">
</g>
</svg>
