<?xml version="1.0" encoding="iso-8859-1"?>
<!-- Generator: Adobe Illustrator 18.1.1, SVG Export Plug-In . SVG Version: 6.00 Build 0)  -->
<!DOCTYPE svg PUBLIC "-//W3C//DTD SVG 1.1//EN" "http://www.w3.org/Graphics/SVG/1.1/DTD/svg11.dtd">
<svg version="1.1" xmlns="http://www.w3.org/2000/svg" xmlns:xlink="http://www.w3.org/1999/xlink" x="0px" y="0px"
	 viewBox="0 0 512 512" enable-background="new 0 0 512 512" xml:space="preserve">
<g id="Layer_2">
	<path fill="#BFBCAF" d="M498.936,322.581c0,87.437-109.022,158.319-243.507,158.319S11.923,410.018,11.923,322.581
		s109.022-158.319,243.507-158.319S498.936,235.144,498.936,322.581z"/>
</g>
<g id="Layer_3">
	<path fill="#E3E8E7" d="M498.936,300.545c0,87.437-109.022,158.319-243.507,158.319S11.923,387.982,11.923,300.545
		s109.022-158.319,243.507-158.319S498.936,213.108,498.936,300.545z"/>
</g>
<g id="Layer_4">
	<path fill="#F99621" d="M441.818,300.545c0,66.928-83.449,121.183-186.389,121.183S69.04,367.473,69.04,300.545
		s83.449-121.183,186.389-121.183c46.901,0,89.751,11.266,122.511,29.859c1.523,0.773,2.979,1.625,4.353,2.555
		C418.905,233.903,441.818,265.482,441.818,300.545z"/>
</g>
<g id="Layer_5">
	<path fill="#E57917" d="M347.586,177.329c0,26.092-26.048,47.244-58.18,47.244s-58.18-21.152-58.18-47.244
		s26.048-47.244,58.18-47.244S347.586,151.236,347.586,177.329z M393.875,266.642c-16.557,0-29.98,10.899-29.98,24.344
		c0,13.445,13.422,24.344,29.98,24.344c16.557,0,29.98-10.899,29.98-24.344C423.855,277.541,410.433,266.642,393.875,266.642z
		 M317.052,355.578c-14.458,0-26.179,9.517-26.179,21.258s11.721,21.258,26.179,21.258s26.179-9.517,26.179-21.258
		S331.51,355.578,317.052,355.578z M247.216,356.73c-12.625,0-22.86,8.311-22.86,18.563c0,10.252,10.235,18.563,22.86,18.563
		c12.625,0,22.86-8.311,22.86-18.563C270.076,365.041,259.841,356.73,247.216,356.73z"/>
</g>
<g id="Layer_6">
	<path fill="#CED6D5" d="M505.097,46.903l-98.164,120.655c7.888,15.39,5.692,35.861-7.065,51.541
		c-1.217,2.61-2.91,5.367-4.989,8.179c-4.838-13.249-19.936-22.918-37.822-22.918c-21.79,0-39.454,14.344-39.454,32.038
		c0,11.447,7.398,21.485,18.519,27.151c-8.009,0.696-15.55-0.823-21.785-5.485c-27.014-20.199-8.625-63.634,19.47-92.712
		c13.609-16.727,35.003-22.804,52.326-16.341l97.369-119.678c4.854-5.964,13.622-6.863,19.583-2.013
		C509.047,32.172,509.948,40.939,505.097,46.903z"/>
</g>
<g id="Layer_7">
	<path fill="#F9F9F7" d="M348.192,266.272c0,1.83-0.219,3.558-0.622,5.201c-6.933,43.113-72.125,76.909-151.538,76.909
		c-82.571,0-149.775-36.537-152.093-82.094c-0.042-0.01-0.067-0.015-0.067-0.015c0-0.455,0.018-0.905,0.024-1.358
		c-0.008-0.353-0.024-0.705-0.024-1.059c0-1.989,0.133-3.961,0.377-5.916c6.018-68.951,85.868-116.082,151.783-116.082
		c65.506,0,144.781,49.558,151.669,115.2c0.321,2.243,0.491,4.509,0.491,6.798c0,0.363-0.016,0.724-0.025,1.085
		C348.174,265.385,348.192,265.827,348.192,266.272z"/>
</g>
<g id="Layer_8">
	<path fill="#E2E0CF" d="M213.68,222.298c0,0,0.207-0.026,0.568-0.037c0.351,0.002,0.899-0.04,1.529-0.004
		c1.28,0.047,3.018,0.236,4.931,0.695c1.915,0.456,4.012,1.174,6.079,2.185c2.075,1,4.112,2.304,6.012,3.793
		c1.889,1.504,3.64,3.193,5.116,5c1.485,1.795,2.702,3.697,3.626,5.487c0.927,1.787,1.555,3.471,1.932,4.734
		c0.197,0.619,0.3,1.176,0.393,1.526c0.083,0.362,0.113,0.576,0.113,0.576c0.719,5.258-2.912,10.111-8.126,10.942
		c0,0-0.213,0.034-0.584,0.059c-0.361,0.012-0.924,0.074-1.574,0.064c-1.319,0.005-3.112-0.11-5.09-0.481
		c-1.981-0.368-4.154-0.983-6.301-1.885c-2.156-0.89-4.28-2.079-6.265-3.452c-1.974-1.388-3.812-2.961-5.369-4.659
		c-1.566-1.686-2.859-3.486-3.849-5.188c-0.992-1.699-1.676-3.308-2.091-4.52c-0.217-0.593-0.335-1.13-0.438-1.465
		c-0.094-0.348-0.128-0.554-0.128-0.554c-1.018-6.023,3.04-11.73,9.063-12.748C213.363,222.341,213.543,222.316,213.68,222.298z
		 M149.372,252.992c1.329-5.962-2.428-11.872-8.39-13.201c0,0-0.204-0.045-0.562-0.09c-0.349-0.031-0.891-0.124-1.522-0.147
		c-1.279-0.073-3.027-0.047-4.975,0.232c-1.95,0.275-4.104,0.794-6.256,1.609c-2.16,0.802-4.309,1.911-6.339,3.216
		c-2.021,1.321-3.922,2.839-5.559,4.501c-1.645,1.649-3.035,3.429-4.122,5.125c-1.089,1.693-1.872,3.31-2.365,4.534
		c-0.254,0.598-0.409,1.143-0.534,1.482c-0.117,0.353-0.166,0.563-0.166,0.563c-1.197,5.143,1.929,10.336,7.07,11.652
		c0,0,0.209,0.053,0.576,0.113c0.358,0.046,0.913,0.16,1.561,0.211c1.312,0.128,3.108,0.181,5.113-0.004
		c2.007-0.181,4.227-0.591,6.45-1.29c2.23-0.685,4.455-1.67,6.56-2.853c2.095-1.198,4.071-2.593,5.78-4.138
		c1.716-1.533,3.171-3.204,4.316-4.806c1.146-1.599,1.977-3.138,2.503-4.305c0.271-0.57,0.439-1.094,0.573-1.418
		c0.126-0.338,0.18-0.54,0.18-0.54C149.298,253.305,149.341,253.128,149.372,252.992z M209.212,308.589
		c2.808-3.123,2.552-7.931-0.571-10.739c0,0-0.107-0.096-0.306-0.243c-0.199-0.136-0.492-0.375-0.862-0.602
		c-0.742-0.475-1.798-1.049-3.058-1.54c-1.261-0.491-2.727-0.907-4.29-1.148c-1.564-0.249-3.226-0.31-4.883-0.213
		c-1.656,0.109-3.307,0.377-4.849,0.82c-1.542,0.445-2.975,1.026-4.199,1.679c-1.224,0.646-2.238,1.351-2.946,1.918
		c-0.354,0.272-0.631,0.547-0.82,0.708c-0.189,0.172-0.289,0.281-0.289,0.281c-2.452,2.677-2.332,6.842,0.303,9.366
		c0,0,0.107,0.103,0.307,0.262c0.199,0.148,0.493,0.404,0.864,0.653c0.743,0.519,1.801,1.157,3.064,1.723
		c1.263,0.573,2.731,1.06,4.299,1.404c1.567,0.342,3.232,0.503,4.892,0.505c1.659-0.011,3.314-0.179,4.859-0.528
		c1.545-0.341,2.981-0.851,4.207-1.423c1.226-0.571,2.243-1.212,2.952-1.734c0.355-0.25,0.632-0.507,0.822-0.656
		c0.189-0.16,0.29-0.263,0.29-0.263C209.062,308.751,209.148,308.66,209.212,308.589z M163.135,191.212
		c2.808-3.123,2.552-7.931-0.571-10.739c0,0-0.107-0.096-0.306-0.243c-0.199-0.136-0.492-0.375-0.862-0.601
		c-0.742-0.475-1.797-1.049-3.058-1.54c-1.261-0.491-2.727-0.907-4.29-1.148c-1.564-0.249-3.226-0.31-4.883-0.213
		c-1.656,0.109-3.307,0.377-4.849,0.82c-1.542,0.445-2.975,1.026-4.199,1.679c-1.224,0.646-2.239,1.351-2.946,1.918
		c-0.354,0.272-0.631,0.547-0.82,0.708c-0.189,0.172-0.289,0.281-0.289,0.281c-2.452,2.677-2.332,6.842,0.303,9.366
		c0,0,0.107,0.103,0.307,0.262c0.199,0.148,0.493,0.404,0.864,0.653c0.743,0.519,1.801,1.157,3.064,1.723
		c1.263,0.573,2.731,1.06,4.299,1.404c1.567,0.342,3.232,0.503,4.892,0.505c1.659-0.011,3.314-0.179,4.859-0.528
		c1.545-0.341,2.981-0.851,4.207-1.423c1.226-0.571,2.243-1.212,2.952-1.734c0.355-0.25,0.632-0.507,0.822-0.656
		c0.189-0.16,0.29-0.263,0.29-0.263C162.985,191.374,163.071,191.283,163.135,191.212z M314.769,261.476
		c0.118-4.198-3.19-7.697-7.388-7.814c0,0-0.144-0.004-0.391,0.013c-0.24,0.025-0.618,0.033-1.047,0.1
		c-0.873,0.118-2.049,0.364-3.328,0.807c-1.278,0.442-2.665,1.074-4.013,1.903c-1.353,0.823-2.659,1.853-3.859,2.999
		c-1.191,1.156-2.276,2.429-3.164,3.765c-0.887,1.337-1.603,2.708-2.113,3.998c-0.514,1.285-0.831,2.479-1.004,3.369
		c-0.094,0.437-0.127,0.825-0.167,1.07c-0.033,0.253-0.038,0.401-0.038,0.401c-0.136,3.628,2.653,6.725,6.295,6.941
		c0,0,0.148,0.009,0.403,0.001c0.248-0.016,0.637-0.011,1.081-0.062c0.903-0.085,2.122-0.284,3.451-0.671
		c1.334-0.382,2.768-0.961,4.185-1.713c1.416-0.754,2.789-1.71,4.055-2.783c1.258-1.083,2.409-2.282,3.361-3.548
		c0.957-1.26,1.72-2.579,2.285-3.808c0.565-1.229,0.924-2.376,1.127-3.233c0.109-0.421,0.153-0.796,0.201-1.032
		c0.041-0.245,0.051-0.388,0.051-0.388C314.76,261.696,314.766,261.571,314.769,261.476z"/>
</g>
</svg>
