<?xml version="1.0" encoding="iso-8859-1"?>
<!-- Generator: Adobe Illustrator 18.1.1, SVG Export Plug-In . SVG Version: 6.00 Build 0)  -->
<!DOCTYPE svg PUBLIC "-//W3C//DTD SVG 1.1//EN" "http://www.w3.org/Graphics/SVG/1.1/DTD/svg11.dtd">
<svg version="1.1" xmlns="http://www.w3.org/2000/svg" xmlns:xlink="http://www.w3.org/1999/xlink" x="0px" y="0px"
	 viewBox="0 0 512 512" enable-background="new 0 0 512 512" xml:space="preserve">
<g id="Layer_7">
	<path fill="#77431D" d="M350.443,162.808c0,29.663-42.539,53.71-95.014,53.71c-17.339,0-33.592-2.627-47.586-7.213l0,0c0,0,0,0,0,0
		c-0.511-0.167-1.019-0.337-1.523-0.509c-13.54-3.35,4.529,37.923-21.387,37.923c-25.391,0-7.896-44.634-17.84-64.096
		c-0.699-0.995-1.343-2.005-1.938-3.028c0,0,0,0,0,0c-1.881-2.333-2.826-4.576-3.065-6.715c-1.095-3.263-1.675-6.629-1.675-10.072
		c0-29.663,42.539-53.71,95.014-53.71S350.443,133.145,350.443,162.808z"/>
</g>
<g id="Layer_1">
</g>
</svg>
