<?xml version="1.0" encoding="iso-8859-1"?>
<!-- Generator: Adobe Illustrator 18.1.1, SVG Export Plug-In . SVG Version: 6.00 Build 0)  -->
<!DOCTYPE svg PUBLIC "-//W3C//DTD SVG 1.1//EN" "http://www.w3.org/Graphics/SVG/1.1/DTD/svg11.dtd">
<svg version="1.1" xmlns="http://www.w3.org/2000/svg" xmlns:xlink="http://www.w3.org/1999/xlink" x="0px" y="0px"
	 viewBox="0 0 512 512" enable-background="new 0 0 512 512" xml:space="preserve">
<g id="Layer_3">
	<path fill="#E8E7E2" d="M281.873,390.924c0.006,0.987,0.003,1.968-0.039,2.937c-0.252,6.484-1.457,12.535-3.294,17.722
		c-0.904,2.594-1.941,4.971-3.028,7.078c-0.535,1.054-1.12,2.04-1.632,2.951c-0.58,0.912-1.061,1.749-1.604,2.506
		c-0.761,1.133-1.48,2.083-2.083,2.83c28.206,13.43,80.946,40.139,80.946,52.086c0,16.307-43.997,29.527-98.269,29.527
		s-98.269-13.22-98.269-29.527c0-11.947,52.74-38.656,80.946-52.086c-0.602-0.747-1.322-1.697-2.083-2.83
		c-0.543-0.756-1.025-1.594-1.604-2.506c-0.511-0.912-1.097-1.898-1.632-2.951c-1.087-2.107-2.124-4.485-3.028-7.078
		c-1.837-5.187-3.042-11.238-3.294-17.722c-0.021-0.479-0.02-0.965-0.026-1.449C9.465,377.01,105.055,129.299,105.055,129.299h0.22
		c-0.142,0.777-0.22,1.559-0.22,2.346c0,23.305,62.875,42.197,140.435,42.197s140.435-18.892,140.435-42.197
		c0-0.787-0.078-1.569-0.22-2.346h0.22C385.925,129.299,477.02,365.367,281.873,390.924z"/>
</g>
<g id="Layer_1">
</g>
</svg>
