<?xml version="1.0" encoding="iso-8859-1"?>
<!-- Generator: Adobe Illustrator 19.2.1, SVG Export Plug-In . SVG Version: 6.00 Build 0)  -->
<!DOCTYPE svg PUBLIC "-//W3C//DTD SVG 1.1//EN" "http://www.w3.org/Graphics/SVG/1.1/DTD/svg11.dtd">
<svg version="1.1" xmlns="http://www.w3.org/2000/svg" xmlns:xlink="http://www.w3.org/1999/xlink" x="0px" y="0px"
	 viewBox="0 0 512 512" enable-background="new 0 0 512 512" xml:space="preserve">
<g id="Layer_5">
	<path fill="#CECECE" d="M69.417,60.721c-2.48,0-4.417,1.719-5.417,4.029v78.922c0,2.281-1.719,4.13-4,4.13s-4-1.849-4-4.13V65.049
		c-1-2.46-3.094-4.328-5.681-4.328c-2.18,0-4.319,1.326-5.319,3.216v79.735c0,2.281-1.621,4.13-3.902,4.13
		c-2.169,0-3.699-1.677-3.869-3.803H37V65.981c0-2.905-2.095-5.26-5-5.26s-5,2.355-5,5.26V144h-0.284
		c-0.17,2.125-2.172,3.803-4.341,3.803c-2.281,0-4.375-1.849-4.375-4.13V63.817c0-1.824-2.612-3.096-4.744-3.096
		c-2.905,0-5.256,2.355-5.256,5.26v78.034v5.26V185h0.023c-0.005,1-0.018,0.693-0.018,0.937c0,13.789,8.419,25.753,20.387,30.813
		c0.037,4.868-0.016,10.343-0.02,16.228c-0.018,6.336-0.141,13.227-0.214,20.487c-0.147,7.26-0.301,14.93-0.461,22.85
		c-0.235,7.92-0.477,16.111-0.723,24.427c-0.106,4.158-0.308,8.353-0.476,12.56c-0.177,4.208-0.332,8.433-0.581,12.658
		c-0.423,8.448-0.963,16.897-1.519,25.214c-0.588,8.316-1.167,16.501-1.727,24.421c-0.556,7.92-1.125,15.577-1.535,22.837
		c-0.474,7.26-0.775,14.125-1.103,20.461c-0.306,6.336-0.508,12.145-0.585,17.293c-0.098,5.148-0.08,9.636-0.02,13.332
		c0.055,3.696,0.17,6.6,0.264,8.58c0.119,1.98,0.182,3.036,0.182,3.036c0.63,10.716,9.188,19.512,20.169,20.169
		c11.849,0.709,22.029-8.321,22.738-20.169c0,0,0.063-1.056,0.182-3.036c0.094-1.98,0.21-4.884,0.264-8.58
		c0.06-3.696,0.077-8.184-0.02-13.332c-0.077-5.148-0.279-10.956-0.585-17.293c-0.328-6.336-0.628-13.2-1.103-20.461
		c-0.41-7.26-0.979-14.917-1.535-22.837c-0.56-7.92-1.139-16.105-1.727-24.421c-0.556-8.316-1.096-16.765-1.519-25.213
		c-0.25-4.224-0.405-8.448-0.581-12.656c-0.169-4.208-0.37-8.399-0.476-12.557c-0.246-8.316-0.489-16.501-0.723-24.421
		c-0.16-7.92-0.315-15.577-0.461-22.837c-0.073-7.26-0.196-14.125-0.214-20.461c-0.004-5.885-0.057-11.307-0.02-16.175
		c11.968-5.06,20.387-17.129,20.387-30.918c0-0.244-0.013,0.063-0.018-0.937H75v-35.726v-5.26V65.981
		C75,63.076,72.322,60.721,69.417,60.721z"/>
</g>
<g id="Layer_1">
</g>
</svg>
