<?xml version="1.0" encoding="iso-8859-1"?>
<!-- Generator: Adobe Illustrator 19.2.1, SVG Export Plug-In . SVG Version: 6.00 Build 0)  -->
<!DOCTYPE svg PUBLIC "-//W3C//DTD SVG 1.1//EN" "http://www.w3.org/Graphics/SVG/1.1/DTD/svg11.dtd">
<svg version="1.1" xmlns="http://www.w3.org/2000/svg" xmlns:xlink="http://www.w3.org/1999/xlink" x="0px" y="0px"
	 viewBox="0 0 512 512" enable-background="new 0 0 512 512" xml:space="preserve">
<g id="Layer_2">
	<path fill="#BAC5C6" d="M401.52,485.491c0,10.929-8.86,19.789-19.789,19.789H131.148c-10.929,0-19.789-8.86-19.789-19.789V27.549
		c0-10.929,8.86-19.789,19.789-19.789h250.583c10.929,0,19.789,8.86,19.789,19.789V485.491z"/>
</g>
<g id="Layer_3">
	<path fill="#989FA0" d="M344.781,138.522c0,41.967-34.021,75.988-75.988,75.988s-75.988-34.021-75.988-75.988
		s34.021-75.988,75.988-75.988S344.781,96.555,344.781,138.522z M268.793,325.641c-41.967,0-75.988,34.021-75.988,75.988
		s34.021,75.988,75.988,75.988s75.988-34.021,75.988-75.988S310.76,325.641,268.793,325.641z"/>
</g>
<g id="Layer_4">
	<path fill="#464A4C" d="M331.1,124.841c0,41.967-34.021,75.988-75.988,75.988s-75.988-34.021-75.988-75.988
		s34.021-75.988,75.988-75.988S331.1,82.874,331.1,124.841z M255.112,311.96c-41.967,0-75.988,34.021-75.988,75.988
		s34.021,75.988,75.988,75.988s75.988-34.021,75.988-75.988S297.079,311.96,255.112,311.96z"/>
</g>
<g id="Layer_5">
	<path fill="#F4F3EF" d="M255.112,131.751c-3.816,0-6.91-3.094-6.91-6.91V48.853c0-3.816,3.094-6.91,6.91-6.91
		c3.816,0,6.91,3.094,6.91,6.91v75.988C262.021,128.658,258.928,131.751,255.112,131.751z M261.387,390.844
		c1.599-3.465,0.085-7.57-3.38-9.169l-69-31.833c-3.464-1.598-7.571-0.086-9.169,3.38c-1.599,3.465-0.085,7.57,3.38,9.169l69,31.833
		c0.938,0.433,1.921,0.638,2.89,0.638C257.72,394.861,260.22,393.372,261.387,390.844z"/>
</g>
<g id="Layer_6">
	<path fill="#8A98A0" d="M301.613,259.975h-88.341c-1.908,0-3.455-1.547-3.455-3.455c0-1.908,1.547-3.455,3.455-3.455h88.341
		c1.908,0,3.455,1.547,3.455,3.455C305.068,258.428,303.521,259.975,301.613,259.975z"/>
</g>
</svg>
