<?xml version="1.0" encoding="iso-8859-1"?>
<!-- Generator: Adobe Illustrator 18.1.1, SVG Export Plug-In . SVG Version: 6.00 Build 0)  -->
<!DOCTYPE svg PUBLIC "-//W3C//DTD SVG 1.1//EN" "http://www.w3.org/Graphics/SVG/1.1/DTD/svg11.dtd">
<svg version="1.1" xmlns="http://www.w3.org/2000/svg" xmlns:xlink="http://www.w3.org/1999/xlink" x="0px" y="0px"
	 viewBox="0 0 512 512" enable-background="new 0 0 512 512" xml:space="preserve">
<g id="Layer_7">
	<path fill="#BEA4FF" d="M151.693,475.554c0,8.939-7.247,16.186-16.186,16.186c-8.939,0-16.186-7.247-16.186-16.186
		c0-8.939,7.247-16.186,16.186-16.186C144.447,459.367,151.693,466.614,151.693,475.554z M404.11,238.718
		c-5.911-6.059-14.208-10.141-23.364-11.494c-5.341-0.792-10.332,2.905-11.124,8.259c-0.791,5.353,2.906,10.333,8.259,11.124
		c4.866,0.719,9.314,2.831,12.205,5.793c1.295,1.328,3.4,4.013,2.947,7.079c-0.453,3.066-3.245,5.027-4.869,5.923
		c-3.625,2.001-8.492,2.733-13.359,2.015c-19.888-2.936-38.048,8.03-40.478,24.455c-2.428,16.424,11.779,32.179,31.67,35.12
		c0.104,0.015,0.206,0.011,0.31,0.023c9.652,1.544,15.567,7.947,14.847,12.816c-0.453,3.065-3.245,5.027-4.869,5.923
		c-3.625,2-8.492,2.736-13.359,2.015c-19.887-2.938-38.048,8.03-40.478,24.455c-2.428,16.424,11.779,32.179,31.67,35.12
		c0.485,0.071,0.968,0.106,1.445,0.106c4.776,0,8.959-3.498,9.679-8.365c0.791-5.352-2.906-10.332-8.259-11.124
		c-9.836-1.454-15.88-7.951-15.152-12.871c0.728-4.922,8.39-9.399,18.229-7.938c2.191,0.324,4.382,0.484,6.548,0.484
		c6.878,0,13.506-1.616,19.143-4.727c8.164-4.505,13.553-11.872,14.786-20.213c2.428-16.424-11.779-32.179-31.67-35.12
		c-0.131-0.019-0.26-0.024-0.391-0.038c-9.603-1.567-15.484-7.946-14.767-12.8c0.728-4.922,8.392-9.397,18.229-7.938
		c2.192,0.324,4.382,0.484,6.548,0.484c6.879,0,13.506-1.616,19.143-4.727c8.164-4.505,13.553-11.872,14.786-20.213
		C413.648,254.003,410.621,245.392,404.11,238.718z"/>
</g>
<g id="Layer_1">
</g>
</svg>
