<?xml version="1.0" encoding="iso-8859-1"?>
<!-- Generator: Adobe Illustrator 18.1.1, SVG Export Plug-In . SVG Version: 6.00 Build 0)  -->
<!DOCTYPE svg PUBLIC "-//W3C//DTD SVG 1.1//EN" "http://www.w3.org/Graphics/SVG/1.1/DTD/svg11.dtd">
<svg version="1.1" xmlns="http://www.w3.org/2000/svg" xmlns:xlink="http://www.w3.org/1999/xlink" x="0px" y="0px"
	 viewBox="0 0 512 512" enable-background="new 0 0 512 512" xml:space="preserve">
<g id="Layer_6">
	<path fill="#A36119" d="M73.903,325.653c-2.012,0-3.933-0.336-5.75-1.084c-4.292-1.767-7.2-5.468-8.644-11
		c-0.77-2.949,0.998-5.964,3.947-6.733c2.95-0.771,5.963,0.998,6.733,3.946c0.521,2,1.25,3.204,2.166,3.581
		c4.375,1.803,16.296-5.253,24.997-10.404c12.74-7.545,23.743-14.059,32.278-10.547c2.603,1.071,6.028,3.586,7.566,9.48
		c0.77,2.949-0.998,5.964-3.947,6.733c-2.944,0.772-5.963-0.998-6.733-3.946c-0.11-0.425-0.516-1.826-1.087-2.062
		c-3.445-1.409-14.883,5.355-22.454,9.838C92.439,319.694,82.374,325.653,73.903,325.653z M204.034,447.414
		c0.77-2.949-0.998-5.964-3.947-6.733c-1.999-0.521-3.204-1.25-3.581-2.166c-1.803-4.379,5.253-16.296,10.405-24.996
		c7.544-12.741,14.059-23.744,10.547-32.278c-1.072-2.603-3.586-6.027-9.481-7.565c-2.949-0.771-5.964,0.997-6.733,3.946
		c-0.77,2.949,0.998,5.964,3.947,6.733c0.424,0.11,1.826,0.516,2.061,1.088c1.418,3.443-5.355,14.883-9.837,22.452
		c-7.72,13.038-15.011,25.354-11.114,34.821c1.767,4.293,5.468,7.201,11,8.645c0.467,0.122,0.936,0.18,1.397,0.18
		C201.148,451.54,203.386,449.896,204.034,447.414z M443.561,9.25c-4.142,4.142-5.052,9.948-2.033,12.967s8.825,2.109,12.967-2.033
		s5.052-9.948,2.033-12.967S447.703,5.108,443.561,9.25z M425.266,27.544c-4.142,4.142-5.052,9.948-2.033,12.967
		c3.019,3.019,8.825,2.109,12.967-2.033s5.052-9.948,2.033-12.967S429.409,23.402,425.266,27.544z M406.972,45.838
		c-4.142,4.142-5.052,9.948-2.033,12.967c3.019,3.019,8.825,2.109,12.967-2.033s5.052-9.948,2.033-12.967
		C416.92,40.786,411.115,41.696,406.972,45.838z M490.816,56.505c-4.142,4.142-5.052,9.948-2.033,12.967s8.825,2.109,12.967-2.033
		s5.052-9.948,2.033-12.967C500.764,51.453,494.958,52.363,490.816,56.505z M472.522,74.799c-4.142,4.142-5.052,9.948-2.033,12.967
		c3.019,3.019,8.825,2.109,12.967-2.033s5.052-9.948,2.033-12.967C482.47,69.747,476.664,70.657,472.522,74.799z M454.228,93.093
		c-4.142,4.142-5.052,9.948-2.033,12.967c3.019,3.019,8.825,2.109,12.967-2.033c4.142-4.142,5.052-9.948,2.033-12.967
		S458.37,88.951,454.228,93.093z"/>
</g>
<g id="Layer_1">
</g>
</svg>
