<?xml version="1.0" encoding="iso-8859-1"?>
<!-- Generator: Adobe Illustrator 18.1.1, SVG Export Plug-In . SVG Version: 6.00 Build 0)  -->
<!DOCTYPE svg PUBLIC "-//W3C//DTD SVG 1.1//EN" "http://www.w3.org/Graphics/SVG/1.1/DTD/svg11.dtd">
<svg version="1.1" xmlns="http://www.w3.org/2000/svg" xmlns:xlink="http://www.w3.org/1999/xlink" x="0px" y="0px"
	 viewBox="0 0 512 512" enable-background="new 0 0 512 512" xml:space="preserve">
<g id="Layer_9">
	<path fill="#8E6049" d="M112.772,29.506c0,0,2.631-0.923,7.565-2.654c2.421-0.874,5.606-1.915,9.32-3.144
		c3.72-1.265,7.973-2.563,12.743-4.048c9.569-2.886,21.269-6.219,34.94-9.348c3.418-0.78,6.949-1.581,10.618-2.295
		c1.832-0.365,3.683-0.763,5.575-1.114c1.895-0.34,3.816-0.685,5.762-1.034c1.942-0.365,3.923-0.683,5.934-0.986
		c2.01-0.308,4.044-0.62,6.102-0.936c4.141-0.529,8.366-1.138,12.728-1.547c17.39-1.85,36.623-2.486,57.11-0.39
		c10.233,1.073,20.775,2.83,31.412,5.629c10.622,2.825,21.366,6.577,31.834,11.584c5.239,2.491,10.388,5.311,15.453,8.371
		c5.014,3.137,9.987,6.455,14.721,10.151c9.508,7.333,18.334,15.778,26.207,25.048c15.817,18.547,27.77,40.151,36.569,62.396
		c8.82,22.292,14.673,45.29,18.625,67.968c3.968,22.696,6.045,45.117,7.028,66.744c0.953,21.631,0.784,42.481-0.035,62.173
		c-0.833,19.692-2.294,38.233-4.071,55.283c-3.549,34.108-8.241,62.263-11.939,81.968c-1.855,9.853-3.475,17.594-4.64,22.918
		c-0.604,2.685-1.067,4.744-1.38,6.132c-0.356,1.498-0.54,2.271-0.54,2.271c-3.226,13.568-16.84,21.953-30.408,18.727
		c-13.568-3.226-21.953-16.84-18.727-30.408c0.059-0.249,0.122-0.496,0.188-0.742l0.098-0.359c0,0,0.159-0.578,0.466-1.699
		c0.324-1.238,0.804-3.074,1.43-5.47c1.239-4.852,3.013-12.068,5.09-21.333c4.144-18.524,9.554-45.267,14.049-77.603
		c2.251-16.164,4.243-33.723,5.672-52.305c1.416-18.579,2.245-38.183,2.053-58.364c-0.219-20.17-1.438-40.933-4.327-61.623
		c-2.864-20.682-7.42-41.311-14.36-60.779c-6.922-19.451-16.333-37.7-28.529-53.047c-12.152-15.372-27.096-27.711-43.661-36.254
		c-8.258-4.312-16.902-7.679-25.637-10.338c-8.749-2.633-17.633-4.44-26.424-5.671c-17.604-2.424-34.822-2.509-50.731-1.359
		c-3.98,0.231-7.881,0.663-11.697,1.012c-1.908,0.226-3.793,0.45-5.656,0.671c-1.864,0.213-3.705,0.444-5.521,0.722
		c-1.817,0.261-3.611,0.519-5.38,0.774c-1.77,0.265-3.512,0.579-5.232,0.86c-3.442,0.545-6.777,1.183-10.009,1.804
		c-12.93,2.493-24.144,5.27-33.35,7.704c-4.595,1.26-8.719,2.363-12.216,3.421c-3.521,1.031-6.499,1.886-9.027,2.701
		c-4.991,1.56-7.652,2.392-7.652,2.392c-6.825,2.133-14.086-1.67-16.22-8.495C102.613,38.911,106.23,31.81,112.772,29.506z"/>
</g>
<g id="Layer_1">
</g>
</svg>
