<?xml version="1.0" encoding="iso-8859-1"?>
<!-- Generator: Adobe Illustrator 19.2.0, SVG Export Plug-In . SVG Version: 6.00 Build 0)  -->
<!DOCTYPE svg PUBLIC "-//W3C//DTD SVG 1.1//EN" "http://www.w3.org/Graphics/SVG/1.1/DTD/svg11.dtd">
<svg version="1.1" xmlns="http://www.w3.org/2000/svg" xmlns:xlink="http://www.w3.org/1999/xlink" x="0px" y="0px"
	 viewBox="0 0 512 512" enable-background="new 0 0 512 512" xml:space="preserve">
<g id="Layer_2">
	<path fill="#CFD3D3" d="M499.277,241.051L257.897,139.37v179.772h-25.181c-14.822,0-27.309,12.129-27.028,26.948
		c0.272,14.365,12.002,25.926,26.432,25.926h13.764c7.928,0,15.777-1.586,23.083-4.663l230.31-97.017
		C512.237,264.876,512.237,246.51,499.277,241.051z"/>
</g>
<g id="Layer_3">
	<path fill="#BCBCBC" d="M269.132,266.268h-63.449v52.874v26.437h0.009c0.013-14.585,12.374-26.437,27.024-26.437h36.417
		c14.601,0,26.437-11.836,26.437-26.437v0C295.569,278.104,283.733,266.268,269.132,266.268z"/>
</g>
<g id="Layer_4">
	<path fill="#E0E0E0" d="M243.537,33.622H22.561v232.646h213.525h33.046c14.601,0,26.437,11.836,26.437,26.437v-26.437v-63.449
		V85.654C295.569,56.918,272.274,33.622,243.537,33.622z"/>
</g>
<g id="Layer_5">
	<path fill="#597B91" d="M37.981,490.615c-11.322,0-20.5-9.178-20.5-20.5V38.73c0-11.322,9.178-20.5,20.5-20.5s20.5,9.178,20.5,20.5
		v431.385C58.481,481.438,49.303,490.615,37.981,490.615z"/>
</g>
</svg>
