<?xml version="1.0" encoding="iso-8859-1"?>
<!-- Generator: Adobe Illustrator 19.2.1, SVG Export Plug-In . SVG Version: 6.00 Build 0)  -->
<!DOCTYPE svg PUBLIC "-//W3C//DTD SVG 1.1//EN" "http://www.w3.org/Graphics/SVG/1.1/DTD/svg11.dtd">
<svg version="1.1" xmlns="http://www.w3.org/2000/svg" xmlns:xlink="http://www.w3.org/1999/xlink" x="0px" y="0px"
	 viewBox="0 0 512 512" enable-background="new 0 0 512 512" xml:space="preserve">
<g id="Layer_2">
	<path fill="#00B1FF" d="M421,435.897c0,0.879-0.046,1.736-0.166,2.582c0.121,1.589,0.239,3.189,0.239,4.809
		c0,34.439-27.947,62.357-62.385,62.357s-62.414-27.918-62.414-62.357c0-34.439,27.803-62.357,62.242-62.357
		c9.172,0,18.485,1.996,25.485,5.553V226.785l-174-96.492v186.711c0,0.673-0.205,1.336-0.276,1.991
		c-0.227,34.245-28.212,61.937-62.51,61.937c-34.439,0-62.361-27.918-62.361-62.357c0-34.439,27.909-62.357,62.348-62.357
		c9.212,0,17.799,2.013,25.799,5.599V21.829c0-6.482,3.428-12.483,9.012-15.777c5.59-3.294,12.497-3.398,18.175-0.264
		l211.399,116.721c5.841,3.225,9.414,9.371,9.414,16.041V435.897z"/>
</g>
<g id="Layer_1">
</g>
</svg>
