<?xml version="1.0" encoding="iso-8859-1"?>
<!-- Generator: Adobe Illustrator 19.1.0, SVG Export Plug-In . SVG Version: 6.00 Build 0)  -->
<!DOCTYPE svg PUBLIC "-//W3C//DTD SVG 1.1//EN" "http://www.w3.org/Graphics/SVG/1.1/DTD/svg11.dtd">
<svg version="1.1" xmlns="http://www.w3.org/2000/svg" xmlns:xlink="http://www.w3.org/1999/xlink" x="0px" y="0px"
	 viewBox="0 0 512 512" enable-background="new 0 0 512 512" xml:space="preserve">
<g id="Layer_2">
	<path fill="#ADB8BC" d="M326.962,455.032c-5.091,0-9.562-3.71-10.364-8.897c-0.739-4.783-6.76-47.281,9.452-66.193
		c5.373-6.268,12.614-9.58,20.941-9.58c5.799,0,10.5,4.701,10.5,10.5s-4.701,10.5-10.5,10.5c-2.21,0-3.611,0.63-4.998,2.248
		c-7.169,8.363-7.03,33.873-4.642,49.316c0.886,5.73-3.041,11.095-8.772,11.981C328.036,454.991,327.495,455.032,326.962,455.032z"
		/>
</g>
<g id="Layer_3">
	<path fill="#D8E9EA" d="M133.207,247.731c-3.342,0-6.511-1.983-7.863-5.265c-13.6-33.018-6.45-63.503-0.143-90.399
		c6.026-25.694,11.229-47.884,0.366-70.098c-2.062-4.217-0.316-9.308,3.901-11.37c4.217-2.063,9.308-0.315,11.37,3.901
		c13.527,27.66,7.115,55.004,0.913,81.448c-6.003,25.599-12.211,52.07-0.689,80.043c1.788,4.341-0.282,9.309-4.622,11.097
		C135.382,247.524,134.285,247.731,133.207,247.731z"/>
</g>
<g id="Layer_4">
	<path fill="#00A4DD" d="M203.007,398.587c3.844,15.023,24.638,41.194,51.891,60.406c8.318,5.864,3.618,18.872-6.529,18.084
		c-9.301-0.722-20.584-2.991-33.667-8.098c-6.061-2.366-12.89,1.661-13.469,8.141c-0.276,3.091,0.083,7.052,1.535,12.121
		c2.15,7.504-5.013,14.499-12.46,12.158c-17.755-5.583-40.212-24.139-26.607-84.29 M132.34,347.936
		c-19.011-5.201-38.92,7.019-44.468,27.295c-5.547,20.276,9.905,60.455,17.895,36.336c3.869-11.68,3.949-8.185,22.921-28.037
		C143.212,368.333,151.351,353.137,132.34,347.936z M221.767,396.644c0,0,33.345,7.67,50.093-7.471s23.776-39.243,5.809-80.419
		c-10.797-24.744-26.809-47.055-59.79-61.629"/>
</g>
<g id="Layer_5">
	<path fill="#59CAFC" d="M190.167,443.234c-25.243,4.419-93.588-38.572-105.102-104.347c-8.22-46.96,3.898-90.937,28.437-115.219
		c1.73-1.711,4.668-0.663,4.878,1.761c0.229,2.63,0.534,5.828,0.894,8.882c0.458,3.878,5.698,4.747,7.392,1.229
		c3.235-6.719,7.295-15.445,9.37-21.063c1.694-4.587,5.596-8.033,10.381-9.039c0.681-0.143,1.365-0.275,2.054-0.395
		c46.532-8.145,93.588,38.572,105.102,104.347S215.411,438.815,190.167,443.234z"/>
</g>
<g id="Layer_6">
	<path fill="#2B3B47" d="M185.49,243.455c0.879,5.021-2.476,9.811-7.514,10.693l-11.18,1.957c-5.029,0.88-9.821-2.483-10.7-7.504
		l0,0c-0.88-5.029,2.484-9.82,7.513-10.701l11.18-1.957C179.827,235.061,184.61,238.426,185.49,243.455L185.49,243.455z"/>
</g>
<g id="Layer_7">
	<path fill="#00A4DD" d="M120.549,334.047c-4.153-1.984-1.81-5.72,2.759-5.16c10.582,1.297,27.115,0.978,45.258-2.198
		c18.143-3.176,33.802-8.491,43.313-13.306c4.107-2.079,7.58,0.639,4.348,3.916c-8.325,8.442-25.331,16.456-45.797,20.039
		C149.964,340.919,131.247,339.158,120.549,334.047z M175.439,365.955c14.744-2.581,26.994-8.354,32.992-14.436
		c2.328-2.361-0.174-4.319-3.132-2.821c-6.852,3.468-18.133,7.298-31.203,9.586c-13.07,2.288-24.98,2.518-32.603,1.584
		c-3.291-0.404-4.979,2.288-1.988,3.717C147.212,367.267,160.696,368.535,175.439,365.955z"/>
</g>
<g id="Layer_8">
	<path fill="#597B91" d="M121.18,72.259c0,0,1.717-1.968,4.937-5.658c0.828-0.927,1.651-1.942,2.745-3.097
		c1.077-1.151,2.253-2.407,3.524-3.765c1.283-1.337,2.615-2.861,4.126-4.325c1.5-1.484,3.095-3.061,4.779-4.728
		c6.859-6.553,15.504-14.31,26.627-21.943c5.502-3.881,11.784-7.517,18.63-10.996c6.904-3.395,14.562-6.367,22.902-8.548
		c4.166-1.108,8.53-1.908,13.014-2.5c1.128-0.115,2.261-0.23,3.399-0.345c1.14-0.102,2.279-0.263,3.439-0.266
		c1.157-0.034,2.32-0.069,3.487-0.104l1.756-0.047l0.44-0.011c-0.249-0.011,0.588,0.01,0.572,0.01l0.197,0.008l0.79,0.033
		c1.055,0.044,2.115,0.088,3.178,0.132l1.599,0.067c0.523,0.017,1.223,0.117,1.828,0.174c1.256,0.14,2.516,0.28,3.782,0.421
		l1.896,0.229l1.792,0.328c2.389,0.456,4.822,0.831,7.191,1.507c1.193,0.308,2.39,0.618,3.592,0.928
		c1.2,0.316,2.361,0.75,3.549,1.124c9.472,3.09,18.64,7.602,27.224,13.153c8.602,5.545,16.614,12.133,24.053,19.39
		c14.893,14.535,27.581,31.624,38.614,49.818c11.003,18.233,20.362,37.629,28.452,57.449c4.056,9.909,7.711,19.957,11.115,30.034
		c3.386,10.083,6.518,20.201,9.29,30.324c2.786,10.12,5.323,20.219,7.57,30.253c2.224,10.039,4.203,20.003,5.938,29.844
		c1.688,9.848,3.165,19.566,4.39,29.112c1.177,9.552,2.212,18.917,2.932,28.067c1.51,18.292,2.065,35.686,1.947,51.771
		c-0.17,16.089-1.044,30.872-2.374,43.966c-1.322,13.095-3.109,24.498-4.91,33.857c-0.846,4.686-1.839,8.847-2.612,12.477
		c-0.885,3.616-1.632,6.694-2.28,9.184c-1.38,4.968-2.117,7.617-2.117,7.617c-2.15,7.738-10.166,12.267-17.903,10.117
		c-7.738-2.15-12.267-10.166-10.117-17.903c0.015-0.052,0.029-0.105,0.045-0.157l0.141-0.477c0,0,0.701-2.372,2.017-6.82
		c0.622-2.239,1.343-5.021,2.204-8.286c0.755-3.304,1.73-7.068,2.575-11.367c1.796-8.562,3.629-19.084,5.068-31.305
		c1.446-12.217,2.504-26.126,2.919-41.373c0.364-15.248,0.115-31.833-1.04-49.354c-0.542-8.762-1.387-17.751-2.363-26.928
		c-1.024-9.173-2.287-18.524-3.75-28.009c-1.51-9.477-3.253-19.08-5.228-28.758c-1.998-9.673-4.274-19.408-6.785-29.161
		c-2.498-9.757-5.34-19.5-8.418-29.198c-3.096-9.691-6.427-19.347-10.131-28.839c-7.383-18.986-15.948-37.476-25.922-54.641
		c-9.99-17.125-21.423-32.954-34.383-46.019c-12.899-13.089-27.551-23.133-42.689-28.333c-0.947-0.314-1.876-0.694-2.829-0.956
		c-0.953-0.261-1.902-0.522-2.849-0.781c-1.88-0.589-3.798-0.89-5.684-1.293l-1.414-0.292l-1.331-0.175
		c-0.883-0.12-1.762-0.24-2.637-0.359c-0.462-0.054-0.821-0.145-1.366-0.172l-1.598-0.093c-1.063-0.062-2.122-0.124-3.176-0.185
		l-0.79-0.046l-0.197-0.012c-0.147-0.009,0.558,0.021,0.178,0.01l-0.349,0.006l-1.391,0.021c-0.926,0.011-1.848,0.021-2.765,0.032
		c-0.919-0.025-1.831,0.104-2.741,0.17c-0.91,0.076-1.815,0.151-2.717,0.227c-3.599,0.422-7.129,0.995-10.55,1.851
		c-6.845,1.674-13.302,4.029-19.262,6.839c-5.922,2.902-11.463,5.954-16.419,9.342c-10.001,6.615-18.073,13.594-24.517,19.553
		c-1.59,1.522-3.096,2.962-4.512,4.317c-1.438,1.344-2.635,2.684-3.832,3.886c-1.178,1.213-2.267,2.335-3.266,3.364
		c-0.998,1.01-1.921,2.103-2.739,2.988c-3.28,3.636-5.03,5.575-5.03,5.575c-3.33,3.691-9.021,3.983-12.712,0.654
		c-3.652-3.294-3.977-8.9-0.758-12.594L121.18,72.259z"/>
</g>
<g id="Layer_9">
	<path fill="#00B89C" d="M428.304,282.9c0,0,0.436,3.076,1.199,8.458c0.191,1.346,0.402,2.836,0.632,4.457
		c0.207,1.708,0.432,3.556,0.672,5.53c0.463,3.95,1.058,8.457,1.485,13.234c0.235,2.403,0.481,4.907,0.735,7.498
		c0.261,2.59,0.421,5.282,0.645,8.042c0.196,2.763,0.456,5.596,0.612,8.503c0.156,2.908,0.315,5.879,0.477,8.9
		c0.19,3.018,0.255,6.1,0.354,9.217c0.074,3.119,0.237,6.268,0.239,9.458c0.021,3.188,0.043,6.401,0.064,9.626
		c0.024,3.226-0.091,6.475-0.131,9.719l-0.089,4.866c-0.067,1.624-0.134,3.246-0.201,4.864c-0.153,3.239-0.254,6.463-0.451,9.666
		c-0.226,3.205-0.45,6.385-0.671,9.526c-0.056,0.785-0.112,1.569-0.167,2.349c-0.077,0.781-0.153,1.56-0.229,2.336
		c-0.153,1.552-0.305,3.093-0.456,4.62c-0.527,6.111-1.401,12.025-2.102,17.631c-0.407,2.803-0.875,5.531-1.292,8.169
		c-0.425,2.638-0.816,5.187-1.327,7.632c-0.97,4.89-1.772,9.377-2.762,13.342c-0.95,3.967-1.665,7.432-2.498,10.27
		c-1.558,5.683-2.448,8.93-2.448,8.93c-3.406,12.422-16.237,19.732-28.659,16.326c-12.422-3.406-19.732-16.237-16.326-28.659
		c0.016-0.058,0.032-0.116,0.048-0.173l0.288-0.999c0,0,0.789-2.734,2.168-7.52c0.746-2.367,1.39-5.368,2.257-8.752
		c0.905-3.369,1.646-7.289,2.555-11.526c0.479-2.11,0.85-4.355,1.255-6.672c0.397-2.319,0.846-4.705,1.242-7.18
		c0.682-4.981,1.545-10.199,2.088-15.692c0.155-1.368,0.311-2.748,0.468-4.138c0.079-0.695,0.158-1.392,0.238-2.092
		c0.059-0.704,0.119-1.411,0.178-2.119c0.24-2.835,0.482-5.705,0.727-8.598c0.219-2.898,0.348-5.836,0.53-8.776
		c0.082-1.472,0.165-2.947,0.247-4.423l0.14-4.447c0.076-2.968,0.229-5.928,0.245-8.891c0.021-2.963,0.042-5.914,0.063-8.842
		c0.042-2.927-0.074-5.842-0.101-8.716c-0.052-2.876-0.067-5.716-0.208-8.514c-0.111-2.797-0.219-5.548-0.326-8.24
		c-0.105-2.693-0.315-5.327-0.46-7.891c-0.173-2.564-0.282-5.061-0.493-7.472c-0.203-2.412-0.399-4.742-0.587-6.979
		c-0.338-4.512-0.816-8.482-1.18-12.058c-0.189-1.787-0.367-3.46-0.53-5.007c-0.207-1.625-0.398-3.118-0.57-4.466
		c-0.688-5.393-1.081-8.474-1.081-8.474c-1.534-12.023,6.969-23.013,18.992-24.547C415.714,262.689,426.618,271.046,428.304,282.9z"
		/>
</g>
<g id="Layer_10">
	<path fill="#00B89C" d="M318.032,472.082c-1.643,0-3.309-0.387-4.864-1.201c-5.137-2.691-7.119-9.037-4.428-14.174l8.934-17.05
		c2.692-5.137,9.038-7.12,14.174-4.428c5.137,2.691,7.119,9.037,4.428,14.174l-8.934,17.05
		C325.465,470.034,321.812,472.082,318.032,472.082z"/>
</g>
<g id="Layer_11">
	<path fill="#819096" d="M386.163,438.411h-14.851c-14.538,0-26.323-11.785-26.323-26.323v-53.069
		c0-14.538,11.785-26.323,26.323-26.323h14.851c14.538,0,26.323,11.785,26.323,26.323v53.069
		C412.486,426.625,400.701,438.411,386.163,438.411z"/>
</g>
<g id="Layer_12">
	<path fill="#C4CCCE" d="M408.482,328.586c-4.541,0-8.239,3.563-8.477,8.044c-4.022-2.492-8.763-3.935-13.843-3.935h-14.851
		c-14.538,0-26.323,11.785-26.323,26.323l0,23.874c0,14.922,67.497,14.922,67.497,0v-3.81c2.675-1.432,4.497-4.251,4.497-7.497
		v-34.499C416.982,332.392,413.177,328.586,408.482,328.586z"/>
</g>
</svg>
