<?xml version="1.0" encoding="iso-8859-1"?>
<!-- Generator: Adobe Illustrator 19.1.0, SVG Export Plug-In . SVG Version: 6.00 Build 0)  -->
<!DOCTYPE svg PUBLIC "-//W3C//DTD SVG 1.1//EN" "http://www.w3.org/Graphics/SVG/1.1/DTD/svg11.dtd">
<svg version="1.1" xmlns="http://www.w3.org/2000/svg" xmlns:xlink="http://www.w3.org/1999/xlink" x="0px" y="0px"
	 viewBox="0 0 512 512" enable-background="new 0 0 512 512" xml:space="preserve">
<g id="Layer_9">
	<path fill="#2B3B47" d="M504.835,154.437c-4.108-43.672-32.804-80.19-72.104-95.562v-9.531c0-22.176-18.144-40.32-40.32-40.32
		h-2.528c-22.176,0-40.32,18.144-40.32,40.32v9.531c-39.3,15.373-67.995,51.891-72.104,95.562h-0.514v145.246
		c0,11.455,11.494,19.345,22.183,15.227l37.725-14.531c-27.2-17.291-45.53-47.288-46.63-81.638c0.002,0.004,0.004,0.008,0.006,0.011
		c-0.035-1.093-0.059-2.188-0.059-3.289c0-1.291,0.032-2.573,0.081-3.852c0.009-0.242,0.017-0.484,0.028-0.725
		c0.035-0.773,0.093-1.54,0.145-2.308H491.02c0.052,0.768,0.11,1.535,0.145,2.308c0.011,0.241,0.018,0.483,0.028,0.725
		c0.048,1.279,0.081,2.562,0.081,3.852c0,0.979-0.02,1.953-0.047,2.926c-0.011,0.369-0.026,0.738-0.041,1.106
		c-1.338,33.898-19.447,63.485-46.27,80.68l38.252,14.733c10.689,4.117,22.183-3.772,22.183-15.227V154.437H504.835z"/>
</g>
<g id="Layer_1">
</g>
</svg>
