<?xml version="1.0" encoding="utf-8"?>
<!-- Generator: Adobe Illustrator 19.1.0, SVG Export Plug-In . SVG Version: 6.00 Build 0)  -->
<!DOCTYPE svg PUBLIC "-//W3C//DTD SVG 1.1//EN" "http://www.w3.org/Graphics/SVG/1.1/DTD/svg11.dtd">
<svg version="1.1" xmlns="http://www.w3.org/2000/svg" xmlns:xlink="http://www.w3.org/1999/xlink" x="0px" y="0px"
	 viewBox="0 0 512 512" enable-background="new 0 0 512 512" xml:space="preserve">
<g id="Layer_2">
	<path fill="#BFBCAF" d="M55.083,93.197v383.382c0,6.352-5.149,11.5-11.5,11.5s-11.5-5.148-11.5-11.5V93.197
		C22.88,88.872,16.505,79.522,16.505,68.68c0-14.955,12.124-27.079,27.079-27.079c14.955,0,27.079,12.124,27.079,27.079
		C70.662,79.522,64.287,88.872,55.083,93.197z"/>
</g>
<g id="Layer_3">
	<path fill="#D1CFC3" d="M141.443,213.431c-1.15,0-2.295-0.338-3.283-1.006l-91.843-62.146c-1.654-1.119-2.624-3.003-2.573-5
		c0.051-1.997,1.115-3.829,2.824-4.862l91.843-55.548c1.809-1.095,4.066-1.128,5.907-0.09c1.841,1.038,2.98,2.988,2.98,5.102
		v117.695c0,2.167-1.197,4.157-3.111,5.173C143.327,213.204,142.384,213.431,141.443,213.431z M60.459,145.704l75.126,50.835
		v-96.273L60.459,145.704z"/>
</g>
<g id="Layer_4">
	<path fill="#D1CFC3" d="M141.443,432.256c-1.15,0-2.295-0.338-3.283-1.006l-91.843-62.146c-1.654-1.119-2.624-3.004-2.573-5
		s1.115-3.828,2.824-4.862l91.843-55.548c1.809-1.093,4.066-1.128,5.907-0.09c1.841,1.038,2.98,2.988,2.98,5.102v117.694
		c0,2.167-1.197,4.157-3.111,5.173C143.327,432.029,142.384,432.256,141.443,432.256z M60.459,364.529l75.126,50.836v-96.273
		L60.459,364.529z"/>
</g>
<g id="Layer_5">
	<path fill="#00D1AE" d="M494.005,194.254c-1.354-0.92-38.845-10.35-75.999-7.289c-37.154,1.018-73.969,14.526-73.969,12.309
		c-6.424-1.875-10.807-46.925-11.052-51.851c-0.17-4.291,1.681-30.767,4.921-47.364l-111.572,21.353
		c12.901-31.999,30.791-51.011,50.255-60.439c32.39-15.387,50.403-4.821,61.053,4.706c5.515,5.066,6.118,13.799,5.421,21.13
		c2.387,1.237,37.877-12.556,73.827-10.57c37.224-0.444,74.931,16.032,76.865,23.395c3.867,8.926,0.652,14.676-7.272,12.956
		c-1.241-0.235-2.462-0.384-3.631-0.446c-12.115-2.142-41.629,0.351-40.847,13.804c0.763,11.07,31.873,32.356,44.473,46.321
		C494.2,180.189,497.486,189.595,494.005,194.254z"/>
</g>
<g id="Layer_6">
	<path fill="#15E5C2" d="M421.628,122.601c0,64.749-52.319,77.257-143.108,91.778c-8.66,1.325-16.729,2.22-24.248,2.756
		c-37.61,4.213-75.22,3.605-112.83-10.301c0-39.232,0-78.463,0-117.695c56.932,27.723,113.863,15.313,170.795,1.503
		c0,0.046,0,0.093,0,0.139C382.133,75.124,421.628,71.822,421.628,122.601z"/>
</g>
<g id="Layer_7">
	<path fill="#5CFFE0" d="M289.526,97.005c0,21.849-15.174,44.076-34.365,50.038c-5.919,33.732-26.82,54.669-51.696,52.535
		c-29.477-0.288-53.373-43.943-53.373-84.711c0-7.492,0.843-14.338,2.407-20.838c45.668,18.201,91.336,12.191,137.005,1.962
		C289.511,96.329,289.526,96.663,289.526,97.005z"/>
</g>
<g id="Layer_8">
	<path fill="#00D1AE" d="M287.963,204.163c13.46,12.902,10.603,13.412,19.562,16.65c18.5,9.012-16.418,14.979-32.137,9.373
		c-15.719-4.68-22.832-13.836-15.887-26.592C266.446,190.642,277.659,194.459,287.963,204.163z M306.947,152.656
		c0-17.765-4.271-32.169-10.193-39.346c-2.299-2.793-5.118,0.79-3.966,4.552c2.67,8.674,4.853,22.552,4.853,38.221
		c0,15.703-2.183,29.605-4.853,38.142c-1.153,3.666,1.667,5.226,3.966,1.742C302.676,186.986,306.947,170.465,306.947,152.656z
		 M331.954,143.254c0-12.984-3.077-22.779-7.343-27.2c-1.656-1.718-3.687,0.797-2.857,3.221c1.924,5.599,3.496,15.02,3.496,26.487
		c0,11.464-1.572,22.358-3.496,29.368c-0.831,3.018,1.201,4.242,2.857,1.352C328.877,169.035,331.954,156.232,331.954,143.254z"/>
</g>
<g id="Layer_9">
	<path fill="#C048FF" d="M494.005,413.08c-1.354-0.92-38.845-10.35-75.999-7.289c-37.154,1.018-73.969,14.526-73.969,12.309
		c-6.424-1.875-10.807-46.925-11.052-51.851c-0.17-4.291,1.681-30.767,4.921-47.364l-111.572,21.353
		c12.901-31.999,30.791-51.012,50.255-60.439c32.39-15.387,50.403-4.82,61.053,4.706c5.516,5.066,6.118,13.799,5.421,21.13
		c2.387,1.237,37.877-12.556,73.827-10.57c37.224-0.444,74.931,16.032,76.865,23.395c3.867,8.926,0.652,14.676-7.272,12.956
		c-1.241-0.235-2.462-0.384-3.631-0.446c-12.115-2.142-41.629,0.351-40.847,13.804c0.763,11.07,31.873,32.357,44.473,46.321
		C494.2,399.015,497.486,408.421,494.005,413.08z"/>
</g>
<g id="Layer_10">
	<path fill="#D17BFF" d="M421.628,341.427c0,64.749-52.319,77.257-143.108,91.778c-8.66,1.325-16.729,2.22-24.248,2.756
		c-37.61,4.213-75.22,3.605-112.83-10.301c0-39.232,0-78.463,0-117.695c56.932,27.723,113.863,15.313,170.795,1.503
		c0,0.046,0,0.093,0,0.139C382.133,293.95,421.628,290.648,421.628,341.427z"/>
</g>
<g id="Layer_11">
	<path fill="#E6A4FF" d="M289.526,315.831c0,21.849-15.174,44.076-34.365,50.038c-5.919,33.732-26.82,54.669-51.696,52.535
		c-29.477-0.288-53.373-43.943-53.373-84.711c0-7.492,0.843-14.338,2.407-20.838c45.668,18.201,91.336,12.191,137.005,1.962
		C289.511,315.155,289.526,315.489,289.526,315.831z"/>
</g>
<g id="Layer_12">
	<path fill="#FFFFFF" d="M211.788,118.012c9.683,0.252,17.546,9.753,17.546,21.073c0,8.392,0,16.297,0,23.713
		c0,10.003-7.863,17.992-17.546,17.677c0,0,0,0,0,0c-9.698-0.288-17.561-8.988-17.561-18.993c0-7.405,0-15.271,0-23.601
		C194.227,126.686,202.09,117.82,211.788,118.012L211.788,118.012z M211.788,336.838c-9.698-0.192-17.561,8.674-17.561,19.871
		c0,8.329,0,16.196,0,23.601c0,10.005,7.863,18.705,17.561,18.993c0,0,0,0,0,0c9.683,0.315,17.546-7.675,17.546-17.677
		c0-7.417,0-15.321,0-23.713C229.333,346.591,221.471,337.09,211.788,336.838C211.788,336.838,211.788,336.838,211.788,336.838z"/>
</g>
<g id="Layer_13">
	<path fill="#2B3B47" d="M211.785,131.166c6.089,0.175,11.033,5.972,11.033,12.965c0,5.175,0,10.153,0,14.935
		c0,6.45-4.944,11.581-11.033,11.378c0,0,0,0,0,0c-6.098-0.2-11.042-5.708-11.042-12.149c0-4.774,0-9.739,0-14.893
		C200.743,136.446,205.687,131.003,211.785,131.166C211.785,131.166,211.785,131.166,211.785,131.166z M211.785,349.992
		c-6.098-0.164-11.042,5.279-11.042,12.235c0,5.155,0,10.119,0,14.893c0,6.442,4.944,11.949,11.042,12.149c0,0,0,0,0,0
		c6.089,0.204,11.033-4.928,11.033-11.378c0-4.782,0-9.76,0-14.935C222.818,355.965,217.874,350.168,211.785,349.992
		L211.785,349.992z"/>
</g>
<g id="Layer_14">
	<path fill="#C048FF" d="M287.963,422.99c13.46,12.903,10.603,13.412,19.562,16.65c18.5,9.012-16.418,14.979-32.137,9.373
		c-15.719-4.68-22.832-13.836-15.887-26.592C266.446,409.468,277.659,413.285,287.963,422.99z M306.947,371.482
		c0-17.765-4.271-32.169-10.193-39.346c-2.299-2.793-5.118,0.79-3.966,4.552c2.67,8.674,4.853,22.552,4.853,38.221
		c0,15.703-2.183,29.605-4.853,38.142c-1.153,3.666,1.667,5.226,3.966,1.742C302.676,405.812,306.947,389.291,306.947,371.482z
		 M324.611,395.307c-1.656,2.89-3.687,1.666-2.857-1.352c1.924-7.01,3.496-17.904,3.496-29.368c0-11.466-1.572-20.887-3.496-26.487
		c-0.831-2.424,1.201-4.939,2.857-3.221c4.266,4.421,7.343,14.216,7.343,27.2C331.954,375.058,328.877,387.861,324.611,395.307z"/>
</g>
<g id="Layer_15">
	<path fill="#FFB636" d="M141.443,217.074c-5.247,0-9.5-4.253-9.5-9.5V89.879c0-5.247,4.253-9.5,9.5-9.5s9.5,4.253,9.5,9.5v117.695
		C150.943,212.82,146.689,217.074,141.443,217.074z M150.943,426.399V308.705c0-5.247-4.253-9.5-9.5-9.5s-9.5,4.253-9.5,9.5v117.694
		c0,5.247,4.253,9.5,9.5,9.5S150.943,431.646,150.943,426.399z"/>
</g>
</svg>
