<?xml version="1.0" encoding="iso-8859-1"?>
<!-- Generator: Adobe Illustrator 19.1.0, SVG Export Plug-In . SVG Version: 6.00 Build 0)  -->
<!DOCTYPE svg PUBLIC "-//W3C//DTD SVG 1.1//EN" "http://www.w3.org/Graphics/SVG/1.1/DTD/svg11.dtd">
<svg version="1.1" xmlns="http://www.w3.org/2000/svg" xmlns:xlink="http://www.w3.org/1999/xlink" x="0px" y="0px"
	 viewBox="0 0 512 512" enable-background="new 0 0 512 512" xml:space="preserve">
<g id="Layer_2">
	<path fill="#E59328" d="M484.895,397.712c0,19.926-11.381,38.147-29.371,46.716c-33.964,16.179-98.681,37.982-200.81,37.982
		s-166.846-21.803-200.81-37.982c-17.99-8.569-29.371-26.79-29.371-46.716v0c0-28.626,23.206-51.832,51.832-51.832h356.698
		C461.689,345.88,484.895,369.086,484.895,397.712L484.895,397.712z"/>
</g>
<g id="Layer_3">
	<path fill="#7A2F18" d="M482.894,318.752c0-19.926-11.381-38.147-29.371-46.716c-33.964-16.179-98.681-37.982-200.81-37.982
		s-166.846,21.803-200.81,37.982c-17.99,8.569-29.371,26.79-29.371,46.716v0c0,0.288,0.017,0.572,0.022,0.858
		c-0.005,0.287-0.022,0.571-0.022,0.858v0c0,19.926,11.381,38.147,29.371,46.716c33.964,16.179,98.681,37.982,200.81,37.982
		s166.846-21.803,200.81-37.982c17.99-8.569,29.371-26.79,29.371-46.716v0c0-0.288-0.017-0.572-0.022-0.858
		C482.877,319.323,482.894,319.039,482.894,318.752L482.894,318.752z"/>
</g>
<g id="Layer_4">
	<ellipse fill="#DB1D1D" cx="257.839" cy="297.676" rx="211.416" ry="72.015"/>
</g>
<g id="Layer_5">
	<ellipse fill="#FF473E" cx="257.839" cy="270.261" rx="211.416" ry="72.015"/>
</g>
<g id="Layer_6">
	<path fill="#00B89C" d="M487,224.896c-24.165-13.414-59.483-18.692-90.531-18.678c-16.936,0.008-34.178,1.775-50.342,5.08
		c-12.591,2.574-24.897,5.831-37.846,7.507c-2.173,0.089-4.341,0.111-6.515,0.061c-1.499-0.233-2.98-0.505-4.445-0.819
		c-5.368-1.803-10.466-3.914-15.669-5.931c-8.338-3.231-17.069-5.757-26.05-8.14c-15.799-4.191-32.439-6.189-49.373-7.188
		c-31.978-1.887-64.945,2.933-93.377,12.617c-4.479,0.37-8.995,1.275-13.379,2.737c-29.023,9.679-53.603,25.128-70.866,43.171
		c-3.666,3.832-6.912,7.839-9.698,11.978c-6.073,9.023-11.521,18.304-6.134,28.282c10.086,18.683,40.229,25.499,67.958,21.115
		c19.126-3.024,34.04-11.309,49.039-19.147c3.76-1.782,7.652-3.408,11.757-4.802c0.456-0.097,0.911,16.816,1.37,16.728
		c3.846,2.308,7.468,4.774,11.399,7.026c6.696,3.837,13.86,7.534,21.478,10.564c15.601,6.207,34.26,10.182,52.617,10.07
		c18.755-0.114,36.667-4.046,51.466-11.551c7.884-3.999,14.351-8.716,19.348-14.46c1.829-2.102,3.409-4.279,5.139-6.4
		c1.415,0.244,12.121-13.222,15.855-11.447c9.347,4.919,18.473,10.089,28.603,14.284c14.008,5.801,30.493,9.284,47.119,9.313
		c32.013,0.058,62.214-12.071,84.44-26.363c11.469-7.375,22.195-17.164,25.349-27.702C509.89,248.84,503.933,234.296,487,224.896z
		 M159.185,246.755c6.613-1.423,13.363-2.525,20.236-3.304c9.377-0.589,18.774-0.587,28.153,0c8.802,0.995,17.406,2.512,25.77,4.568
		c6.634,2.096,12.867,21.624,19.216,24.039c-6.432,4.982-10.057,10.926-15.354,16.42c-0.269,0.182-0.547,0.359-0.824,0.536
		c-0.681,0.273-1.376,0.534-2.077,0.786c-1.295,0.264-2.603,0.494-3.925,0.696c-1.685,0.046-3.367,0.043-5.051-0.006
		c-2.536-0.375-5.025-0.845-7.483-1.399c-4.073-1.344-7.954-2.885-11.69-4.597c-6.981-3.913-13.296-8.289-20.585-11.986
		C177.699,268.517,168.762,248.359,159.185,246.755z M421.817,262.449c-5.09,2.398-10.394,4.556-16.006,6.376
		c-2.475,0.562-4.981,1.032-7.531,1.41c-1.304,0.033-2.606,0.033-3.909,0.007c-1.299-0.207-2.587-0.44-3.862-0.708
		c-4.46-1.52-8.655-3.325-12.721-5.276c-4.797-2.541-9.538-5.167-14.4-7.675c6.644-1.356,13.34-2.546,20.219-3.365
		c8.756-0.536,17.526-0.531,26.283,0.016c7.263,0.841,14.378,2.049,21.33,3.632C428.251,258.839,425.09,260.684,421.817,262.449z"/>
</g>
<g id="Layer_7">
	<path fill="#FECB21" d="M115.046,332.032c-13.421-21.71-39.22-61.729-71.453-103.39c-46.314,7.86,322.798-54.356,322.798-54.356
		c103.076,10.857,116.691,61.853,116.743,87.853c0.017,8.322-7.121,14.869-15.422,14.282
		c-220.82-15.635-303.498,33.657-330.73,58.702C130.347,341.223,119.786,339.699,115.046,332.032z"/>
</g>
<g id="Layer_8">
	<path fill="#E59328" d="M252.713,25.587c-123.195,0-230.181,77.808-230.181,171.53c0,49.971,103.055,90.48,230.181,90.48
		s230.181-40.509,230.181-90.48C482.894,106.046,375.908,25.587,252.713,25.587z"/>
</g>
<g id="Layer_9">
	<path fill="#FFCD7D" d="M108.361,133.308l9.661,20.933c1.14,2.471,0.062,5.398-2.409,6.538c-1.443,0.666-3.066,0.563-4.374-0.121
		l-20.366-10.803c-6.198-3.288-8.558-10.978-5.27-17.176c3.288-6.198,10.978-8.558,17.176-5.27
		C105.333,128.763,107.237,130.871,108.361,133.308z M312.012,59.23c-6.198-3.288-13.888-0.928-17.176,5.27
		s-0.928,13.888,5.27,17.176l20.366,10.803c1.308,0.684,2.93,0.787,4.374,0.121c2.471-1.14,3.549-4.068,2.409-6.538l-9.661-20.933
		C316.47,62.693,314.566,60.585,312.012,59.23z M197.412,84.973c-4.024-5.748-11.946-7.145-17.694-3.12
		c-5.748,4.024-7.145,11.946-3.12,17.694l13.223,18.885c0.854,1.204,2.251,2.034,3.84,2.097c2.719,0.108,5.011-2.008,5.12-4.727
		l0.919-23.036C199.807,90.085,199.07,87.342,197.412,84.973z M430.924,141.136c3.04-6.633,0.127-14.474-6.505-17.513
		c-6.633-3.04-14.474-0.127-17.513,6.505l-7.454,16.264c-0.499,1.092-0.622,2.37-0.249,3.609c0.815,2.71,3.672,4.246,6.381,3.432
		l17.134-5.15C426.203,147.218,429.286,144.709,430.924,141.136z M242.467,194.789c-6.897-1.287-13.532,3.26-14.82,10.157
		c-1.287,6.897,3.26,13.532,10.157,14.82l22.663,4.23c1.452,0.262,3.032-0.124,4.21-1.19c2.018-1.826,2.173-4.942,0.347-6.959
		l-15.469-17.094C247.755,196.762,245.309,195.319,242.467,194.789z M364.617,214.043c2.809,6.43,10.298,9.365,16.728,6.556
		c6.43-2.809,9.365-10.298,6.556-16.728l-9.23-21.126c-0.599-1.349-1.805-2.439-3.35-2.815c-2.644-0.644-5.309,0.978-5.953,3.622
		l-5.454,22.4C363.28,208.559,363.46,211.393,364.617,214.043z M173.788,207.73c0.806-7.05-4.256-13.418-11.306-14.224
		c-7.05-0.806-13.418,4.256-14.224,11.306l-2.647,23.164c-0.126,1.149,0.224,2.362,1.068,3.281c1.551,1.689,4.178,1.8,5.867,0.249
		l17.169-15.773C171.906,213.716,173.424,210.92,173.788,207.73z M290.226,165.874c6.586,2.419,13.886-0.959,16.305-7.545
		c2.419-6.586-0.959-13.886-7.545-16.305l-21.641-7.948c-1.388-0.5-3.01-0.383-4.35,0.472c-2.294,1.464-2.966,4.51-1.502,6.804
		l12.404,19.433C285.34,163.047,287.512,164.878,290.226,165.874z"/>
</g>
</svg>
