<?xml version="1.0" encoding="iso-8859-1"?>
<!-- Generator: Adobe Illustrator 19.1.0, SVG Export Plug-In . SVG Version: 6.00 Build 0)  -->
<!DOCTYPE svg PUBLIC "-//W3C//DTD SVG 1.1//EN" "http://www.w3.org/Graphics/SVG/1.1/DTD/svg11.dtd">
<svg version="1.1" xmlns="http://www.w3.org/2000/svg" xmlns:xlink="http://www.w3.org/1999/xlink" x="0px" y="0px"
	 viewBox="0 0 512 512" enable-background="new 0 0 512 512" xml:space="preserve">
<g id="Layer_7">
	<path fill="#00A4DD" d="M120.549,334.047c-4.153-1.984-1.81-5.72,2.759-5.16c10.582,1.297,27.115,0.978,45.258-2.198
		c18.143-3.176,33.802-8.491,43.313-13.306c4.107-2.079,7.58,0.639,4.348,3.916c-8.325,8.442-25.331,16.456-45.797,20.039
		C149.964,340.919,131.247,339.158,120.549,334.047z M175.439,365.955c14.744-2.581,26.994-8.354,32.992-14.436
		c2.328-2.361-0.174-4.319-3.132-2.821c-6.852,3.468-18.133,7.298-31.203,9.586c-13.07,2.288-24.98,2.518-32.603,1.584
		c-3.291-0.404-4.979,2.288-1.988,3.717C147.212,367.267,160.696,368.535,175.439,365.955z"/>
</g>
<g id="Layer_1">
</g>
</svg>
