<?xml version="1.0" encoding="iso-8859-1"?>
<!-- Generator: Adobe Illustrator 18.1.1, SVG Export Plug-In . SVG Version: 6.00 Build 0)  -->
<!DOCTYPE svg PUBLIC "-//W3C//DTD SVG 1.1//EN" "http://www.w3.org/Graphics/SVG/1.1/DTD/svg11.dtd">
<svg version="1.1" xmlns="http://www.w3.org/2000/svg" xmlns:xlink="http://www.w3.org/1999/xlink" x="0px" y="0px"
	 viewBox="0 0 512 512" enable-background="new 0 0 512 512" xml:space="preserve">
<g id="Layer_7">
	<path fill="#BEA4FF" d="M355.949,79.523c-1.34,9.065-7.197,17.072-16.07,21.968c-6.126,3.38-13.33,5.137-20.807,5.137
		c-2.354,0-4.734-0.174-7.117-0.526c-5.288-0.782-10.581,0.016-14.52,2.189c-1.766,0.974-4.8,3.105-5.293,6.438
		c-0.492,3.333,1.796,6.251,3.203,7.694c3.058,3.135,7.725,5.381,12.849,6.22c0.141,0.015,0.281,0.02,0.422,0.041
		c21.619,3.196,37.061,20.32,34.421,38.173c-1.34,9.066-7.197,17.073-16.071,21.969c-6.126,3.38-13.329,5.137-20.806,5.137
		c-2.354,0-4.734-0.174-7.117-0.526c-5.287-0.783-10.582,0.015-14.521,2.189c-1.766,0.974-4.8,3.105-5.293,6.438
		c-0.79,5.349,5.778,12.411,16.47,13.991c5.817,0.86,9.836,6.273,8.976,12.091c-0.782,5.29-5.328,9.092-10.52,9.092
		c-0.519,0-1.043-0.038-1.571-0.116c-21.619-3.196-37.06-20.321-34.421-38.173c1.34-9.066,7.197-17.073,16.071-21.969
		c8.055-4.444,17.972-6.082,27.924-4.611c5.288,0.781,10.58-0.016,14.52-2.189c1.766-0.974,4.8-3.105,5.293-6.438
		c0.777-5.262-5.577-12.171-15.963-13.898c-0.17-0.017-0.341-0.031-0.512-0.056c-9.951-1.472-18.971-5.908-25.395-12.493
		c-7.077-7.254-10.367-16.614-9.026-25.681c1.34-9.065,7.197-17.072,16.07-21.968c8.055-4.444,17.972-6.082,27.924-4.611
		c5.286,0.78,10.581-0.016,14.52-2.189c1.766-0.974,4.8-3.105,5.293-6.438c0.492-3.333-1.796-6.251-3.203-7.694
		c-3.142-3.22-7.977-5.516-13.267-6.297c-5.817-0.86-9.836-6.273-8.976-12.091c0.859-5.818,6.274-9.832,12.091-8.977
		c9.951,1.472,18.971,5.908,25.395,12.493C354,61.097,357.29,70.457,355.949,79.523z"/>
</g>
<g id="Layer_1">
</g>
</svg>
