<?xml version="1.0" encoding="iso-8859-1"?>
<!-- Generator: Adobe Illustrator 19.1.0, SVG Export Plug-In . SVG Version: 6.00 Build 0)  -->
<!DOCTYPE svg PUBLIC "-//W3C//DTD SVG 1.1//EN" "http://www.w3.org/Graphics/SVG/1.1/DTD/svg11.dtd">
<svg version="1.1" xmlns="http://www.w3.org/2000/svg" xmlns:xlink="http://www.w3.org/1999/xlink" x="0px" y="0px"
	 viewBox="0 0 512 512" enable-background="new 0 0 512 512" xml:space="preserve">
<g id="Layer_2">
	<path fill="#009E83" d="M219.271,331.09c-7.028-47.436-47.913-83.836-97.304-83.836s-90.276,36.4-97.304,83.836
		c-0.694,2.889-1.072,5.901-1.072,9.003v124.001c0,21.211,17.195,38.406,38.406,38.406h119.941
		c21.211,0,38.406-17.195,38.406-38.406V340.093C220.343,336.991,219.966,333.979,219.271,331.09z"/>
</g>
<g id="Layer_3">
	<path fill="#00D1AE" d="M166.909,437.88c-22.563,0-37.723-14.553-37.723-36.214V361.66c37.08-3.627,66.057-34.886,66.057-72.919
		c0-40.469-32.807-73.276-73.276-73.276s-73.276,32.807-73.276,73.276c0,38.033,28.977,69.292,66.057,72.919v40.006
		c0,21.661-15.16,36.214-37.723,36.214c-3.987,0-7.219,3.232-7.219,7.22v50.181c0,3.987,3.232,7.22,7.219,7.22h89.884
		c3.987,0,7.219-3.232,7.219-7.22V445.1C174.128,441.112,170.896,437.88,166.909,437.88z"/>
</g>
<g id="Layer_4">
	<circle fill="#E5E4DF" cx="121.541" cy="215.465" r="100.551"/>
</g>
<g id="Layer_5">
	<path fill="#5CFFE0" d="M66.03,372.971c0,6.049-4.904,10.953-10.953,10.953s-10.953-4.904-10.953-10.953
		c0-6.049,4.904-10.953,10.953-10.953S66.03,366.922,66.03,372.971z M44.125,444.006c-6.049,0-10.953,4.904-10.953,10.953
		c0,6.049,4.904,10.953,10.953,10.953s10.953-4.904,10.953-10.953C55.078,448.91,50.174,444.006,44.125,444.006z M177.862,400.019
		c-6.049,0-10.953,4.904-10.953,10.953c0,6.049,4.904,10.953,10.953,10.953c6.049,0,10.953-4.904,10.953-10.953
		C188.815,404.923,183.911,400.019,177.862,400.019z M202.995,362.018c-6.049,0-10.953,4.904-10.953,10.953
		c0,6.049,4.904,10.953,10.953,10.953c6.049,0,10.953-4.904,10.953-10.953C213.948,366.922,209.044,362.018,202.995,362.018z"/>
</g>
<g id="Layer_6">
	<path fill="#EF2EC2" d="M488.452,331.09c-7.028-47.436-47.913-83.836-97.304-83.836c-49.391,0-90.276,36.4-97.304,83.836
		c-0.694,2.889-1.072,5.901-1.072,9.003v124.001c0,21.211,17.195,38.406,38.406,38.406h119.941
		c21.211,0,38.406-17.195,38.406-38.406V340.093C489.524,336.991,489.146,333.979,488.452,331.09z"/>
</g>
<g id="Layer_7">
	<path fill="#FFA1E0" d="M436.09,437.88c-22.563,0-37.723-14.553-37.723-36.214V361.66c37.08-3.627,66.057-34.886,66.057-72.919
		c0-40.469-32.807-73.276-73.276-73.276c-40.469,0-73.276,32.807-73.276,73.276c0,38.033,28.977,69.292,66.057,72.919v40.006
		c0,21.661-15.16,36.214-37.723,36.214c-3.987,0-7.219,3.232-7.219,7.219v50.18c0,3.987,3.232,7.219,7.219,7.219h89.884
		c3.987,0,7.219-3.232,7.219-7.219V445.1C443.309,441.112,440.077,437.88,436.09,437.88z"/>
</g>
<g id="Layer_8">
	<circle fill="#E5E4DF" cx="390.722" cy="215.465" r="100.551"/>
</g>
<g id="Layer_9">
	<path fill="#2B3B47" d="M504.835,154.437c-4.108-43.672-32.804-80.19-72.104-95.562v-9.531c0-22.176-18.144-40.32-40.32-40.32
		h-2.528c-22.176,0-40.32,18.144-40.32,40.32v9.531c-39.3,15.373-67.995,51.891-72.104,95.562h-0.514v145.246
		c0,11.455,11.494,19.345,22.183,15.227l37.725-14.531c-27.2-17.291-45.53-47.288-46.63-81.638c0.002,0.004,0.004,0.008,0.006,0.011
		c-0.035-1.093-0.059-2.188-0.059-3.289c0-1.291,0.032-2.573,0.081-3.852c0.009-0.242,0.017-0.484,0.028-0.725
		c0.035-0.773,0.093-1.54,0.145-2.308H491.02c0.052,0.768,0.11,1.535,0.145,2.308c0.011,0.241,0.018,0.483,0.028,0.725
		c0.048,1.279,0.081,2.562,0.081,3.852c0,0.979-0.02,1.953-0.047,2.926c-0.011,0.369-0.026,0.738-0.041,1.106
		c-1.338,33.898-19.447,63.485-46.27,80.68l38.252,14.733c10.689,4.117,22.183-3.772,22.183-15.227V154.437H504.835z"/>
</g>
<g id="Layer_10">
	<path fill="#2B3B47" d="M84.421,240.397c-1.845,0-3.653-0.898-4.744-2.554c-2.209-3.357-5.922-5.361-9.931-5.361
		c-4.009,0-7.722,2.004-9.931,5.361c-1.721,2.616-5.239,3.343-7.857,1.62c-2.617-1.723-3.342-5.24-1.62-7.857
		c4.314-6.555,11.57-10.468,19.408-10.468s15.093,3.914,19.407,10.468c1.722,2.617,0.997,6.134-1.62,7.857
		C86.574,240.095,85.491,240.397,84.421,240.397z M191.123,239.463c2.617-1.723,3.342-5.24,1.62-7.857
		c-4.314-6.555-11.57-10.468-19.408-10.468s-15.093,3.914-19.407,10.468c-1.722,2.617-0.997,6.134,1.62,7.857
		c2.617,1.723,6.135,0.997,7.857-1.62c2.209-3.357,5.922-5.361,9.931-5.361c4.009,0,7.722,2.004,9.931,5.361
		c1.09,1.656,2.899,2.554,4.744,2.554C189.08,240.397,190.162,240.095,191.123,239.463z M328.997,237.843
		c2.209-3.356,5.921-5.36,9.931-5.36c4.009,0,7.722,2.004,9.931,5.361c1.723,2.618,5.241,3.343,7.857,1.62
		c2.616-1.723,3.342-5.24,1.619-7.857c-4.314-6.555-11.569-10.468-19.407-10.468c-7.839,0-15.094,3.914-19.407,10.469
		c-1.723,2.617-0.997,6.135,1.62,7.857c0.961,0.632,2.043,0.935,3.113,0.934C326.099,240.397,327.907,239.499,328.997,237.843z
		 M460.305,239.463c2.616-1.723,3.342-5.24,1.619-7.857c-4.314-6.555-11.57-10.468-19.408-10.468s-15.093,3.914-19.407,10.468
		c-1.723,2.617-0.997,6.134,1.619,7.857c2.616,1.721,6.136,0.998,7.857-1.62c2.209-3.357,5.922-5.361,9.931-5.361
		c4.01,0,7.723,2.004,9.932,5.361c1.09,1.656,2.898,2.554,4.743,2.554C458.261,240.397,459.344,240.095,460.305,239.463z"/>
</g>
<g id="Layer_11">
	<path fill="#EF2EC2" d="M133.917,286.688h-24.751c-3.987,0-7.219-3.232-7.219-7.22s3.232-7.22,7.219-7.22h24.751
		c3.987,0,7.219,3.232,7.219,7.22S137.904,286.688,133.917,286.688z M410.317,279.468c0-3.987-3.232-7.22-7.22-7.22h-24.751
		c-3.987,0-7.22,3.232-7.22,7.22s3.232,7.22,7.22,7.22h24.751C407.085,286.688,410.317,283.455,410.317,279.468z"/>
</g>
<g id="Layer_12">
	<path fill="#FFC7EF" d="M328.824,362.018c0,6.049-4.904,10.953-10.953,10.953c-6.049,0-10.953-4.904-10.953-10.953
		c0-6.049,4.904-10.953,10.953-10.953C323.92,351.065,328.824,355.969,328.824,362.018z M353.597,400.019
		c-6.049,0-10.953,4.904-10.953,10.953s4.904,10.953,10.953,10.953c6.049,0,10.953-4.904,10.953-10.953
		S359.646,400.019,353.597,400.019z M461.222,410.972c-6.049,0-10.953,4.904-10.953,10.953c0,6.049,4.904,10.953,10.953,10.953
		c6.049,0,10.953-4.904,10.953-10.953C472.175,415.875,467.272,410.972,461.222,410.972z M461.222,362.018
		c-6.049,0-10.953,4.904-10.953,10.953c0,6.049,4.904,10.953,10.953,10.953c6.049,0,10.953-4.904,10.953-10.953
		C472.175,366.922,467.272,362.018,461.222,362.018z M317.871,454.959c-6.049,0-10.953,4.904-10.953,10.953
		c0,6.049,4.904,10.953,10.953,10.953c6.049,0,10.953-4.904,10.953-10.953C328.824,459.863,323.92,454.959,317.871,454.959z"/>
</g>
<g id="Layer_13">
	<path fill="#FFA1E0" d="M349.696,51.879c0,0,0.637-0.356,1.689-0.596c1.054-0.248,2.516-0.331,4.203-0.008
		c1.683,0.346,3.591,1.103,5.559,2.384c0.979,0.673,1.991,1.368,3.018,2.074c1.017,0.773,2.066,1.465,3.086,2.329
		c1.026,0.83,2.052,1.661,3.062,2.478c1.014,0.794,1.981,1.765,2.934,2.603c0.952,0.842,1.865,1.701,2.718,2.594
		c0.854,0.887,1.676,1.635,2.409,2.488c1.482,1.6,2.698,3.06,3.543,4.114c0.835,1.117,1.313,1.755,1.313,1.755
		c4.332,5.789,3.15,13.993-2.639,18.325c-0.095,0.071-0.238,0.174-0.334,0.242c0,0-0.653,0.457-1.795,1.257
		c-1.132,0.737-2.742,1.745-4.65,2.802c-0.963,0.582-1.977,1.036-3.065,1.612c-1.089,0.582-2.225,1.113-3.392,1.616
		c-1.166,0.498-2.389,1.118-3.6,1.557c-1.215,0.461-2.449,0.93-3.683,1.398c-1.239,0.502-2.452,0.832-3.659,1.249
		c-1.197,0.35-2.375,0.695-3.515,1.028c-2.27,0.602-4.318,0.726-6.025,0.529c-1.703-0.22-3.067-0.755-3.99-1.32
		c-0.925-0.557-1.419-1.093-1.419-1.093c-12.403-13.482-11.529-34.467,1.954-46.87C345.324,54.671,347.535,53.104,349.696,51.879z
		 M445.372,97.016c8.936-15.993,3.215-36.202-12.777-45.138c0,0-0.637-0.356-1.689-0.596c-1.054-0.248-2.516-0.331-4.203-0.008
		c-1.683,0.346-3.591,1.103-5.559,2.384c-0.979,0.673-1.991,1.368-3.018,2.074c-1.017,0.773-2.066,1.465-3.086,2.329
		c-1.026,0.83-2.052,1.661-3.062,2.478c-1.014,0.794-1.981,1.765-2.934,2.603c-0.952,0.842-1.865,1.701-2.718,2.594
		c-0.854,0.887-1.676,1.635-2.409,2.488c-1.482,1.6-2.698,3.06-3.543,4.114c-0.835,1.117-1.313,1.755-1.313,1.755
		c-0.07,0.095-0.174,0.237-0.242,0.334c-4.147,5.923-2.708,14.086,3.215,18.233c0,0,0.653,0.457,1.795,1.257
		c1.132,0.737,2.742,1.745,4.65,2.802c0.963,0.582,1.977,1.036,3.065,1.612c1.089,0.582,2.225,1.113,3.392,1.616
		c1.166,0.498,2.389,1.118,3.6,1.557c1.215,0.461,2.449,0.93,3.683,1.398c1.239,0.502,2.452,0.832,3.659,1.249
		c1.197,0.35,2.375,0.695,3.515,1.028c2.27,0.602,4.318,0.726,6.025,0.529c1.703-0.22,3.067-0.755,3.99-1.32
		c0.925-0.557,1.419-1.093,1.419-1.093C442.497,101.457,444.108,99.278,445.372,97.016z"/>
</g>
<g id="Layer_14">
	<circle fill="#EF2EC2" cx="391.145" cy="85.425" r="15.91"/>
</g>
<g id="Layer_15">
	<path fill="#2B3B47" d="M235.655,154.437c-4.108-43.672-32.804-80.19-72.104-95.563v-9.531c0-22.176-18.144-40.32-40.32-40.32
		h-2.528c-22.176,0-40.32,18.144-40.32,40.32v9.531c-39.3,15.372-67.995,51.891-72.104,95.563H7.765v145.246
		c0,11.455,11.494,19.345,22.183,15.227l37.725-14.531c-27.2-17.291-45.53-47.288-46.63-81.638c0.002,0.004,0.004,0.008,0.006,0.011
		c-0.035-1.093-0.059-2.188-0.059-3.289c0-1.291,0.032-2.573,0.081-3.852c0.009-0.242,0.017-0.484,0.028-0.725
		c0.035-0.773,0.093-1.54,0.145-2.308h200.596c0.052,0.768,0.11,1.535,0.145,2.308c0.011,0.241,0.018,0.483,0.028,0.725
		c0.048,1.279,0.081,2.562,0.081,3.852c0,0.979-0.02,1.953-0.047,2.926c-0.011,0.369-0.026,0.738-0.041,1.106
		c-1.338,33.898-19.447,63.485-46.27,80.68l38.252,14.733c10.689,4.117,22.183-3.772,22.183-15.227V154.437H235.655z"/>
</g>
</svg>
