<?xml version="1.0" encoding="iso-8859-1"?>
<!-- Generator: Adobe Illustrator 18.1.1, SVG Export Plug-In . SVG Version: 6.00 Build 0)  -->
<!DOCTYPE svg PUBLIC "-//W3C//DTD SVG 1.1//EN" "http://www.w3.org/Graphics/SVG/1.1/DTD/svg11.dtd">
<svg version="1.1" xmlns="http://www.w3.org/2000/svg" xmlns:xlink="http://www.w3.org/1999/xlink" x="0px" y="0px"
	 viewBox="0 0 512 512" enable-background="new 0 0 512 512" xml:space="preserve">
<g id="Layer_5">
	<path fill="#16992B" d="M77.416,82.135c0,0,0.035-0.209,0.103-0.614c0.069-0.404,0.162-1.018,0.326-1.751
		c0.298-1.513,0.824-3.591,1.573-6.109c0.37-1.265,0.846-2.561,1.327-4.03c0.534-1.385,1.105-2.893,1.743-4.458
		c1.305-3.086,2.901-6.37,4.802-9.694c1.901-3.326,4.108-6.692,6.616-9.974c2.509-3.281,5.302-6.502,8.387-9.524
		c3.079-3.029,6.435-5.881,10.012-8.51c3.57-2.64,7.399-5,11.32-7.21c7.848-4.412,16.194-8.024,24.53-10.591
		c4.175-1.272,8.322-2.324,12.38-3.12c4.056-0.8,8.014-1.356,11.774-1.701c3.766-0.334,7.302-0.506,10.575-0.436
		c0.81,0.004,1.594,0.008,2.351,0.012c0.778,0.037,1.527,0.074,2.248,0.108c0.722,0.038,1.415,0.074,2.077,0.108
		c0.678,0.061,1.325,0.118,1.939,0.173c2.449,0.209,4.465,0.52,5.852,0.754c0.686,0.104,1.251,0.247,1.613,0.313
		c0.368,0.076,0.558,0.115,0.558,0.115c2.463,0.506,4.05,2.912,3.544,5.375c-0.014,0.071-0.035,0.156-0.052,0.225
		c0,0-0.049,0.188-0.143,0.551c-0.1,0.354-0.221,0.924-0.429,1.586c-0.401,1.349-1.009,3.296-1.898,5.587
		c-0.221,0.575-0.454,1.181-0.698,1.817c-0.26,0.61-0.533,1.247-0.817,1.912c-0.286,0.662-0.583,1.351-0.892,2.066
		c-0.329,0.681-0.671,1.387-1.023,2.116c-1.378,2.97-3.088,6.069-5.046,9.304c-1.964,3.224-4.206,6.534-6.709,9.824
		c-2.5,3.294-5.27,6.554-8.25,9.744c-5.973,6.356-12.89,12.261-20.306,17.366c-3.711,2.548-7.514,4.947-11.456,6.992
		c-3.935,2.055-7.973,3.813-12.048,5.245c-4.071,1.44-8.193,2.531-12.243,3.339c-4.051,0.807-8.044,1.308-11.867,1.551
		c-3.822,0.244-7.473,0.232-10.819,0.046c-1.687-0.115-3.292-0.266-4.77-0.397c-1.531-0.214-2.904-0.357-4.203-0.582
		c-2.59-0.435-4.687-0.877-6.178-1.276c-0.73-0.175-1.322-0.361-1.716-0.477c-0.394-0.117-0.597-0.178-0.597-0.178
		C78.469,87.01,77.001,84.582,77.416,82.135z"/>
</g>
<g id="Layer_1">
</g>
</svg>
