<?xml version="1.0" encoding="iso-8859-1"?>
<!-- Generator: Adobe Illustrator 19.1.0, SVG Export Plug-In . SVG Version: 6.00 Build 0)  -->
<!DOCTYPE svg PUBLIC "-//W3C//DTD SVG 1.1//EN" "http://www.w3.org/Graphics/SVG/1.1/DTD/svg11.dtd">
<svg version="1.1" xmlns="http://www.w3.org/2000/svg" xmlns:xlink="http://www.w3.org/1999/xlink" x="0px" y="0px"
	 viewBox="0 0 512 512" enable-background="new 0 0 512 512" xml:space="preserve">
<g id="Layer_2">
	<path fill="#FF8724" d="M155.397,497.256c-80.049,0-202.366-257.149-82.827-376.687l0.142,0.022
		c21.035-23.396,94.813-40.676,182.599-40.676c87.766,0,161.529,17.266,182.585,40.655
		c119.537,119.538,4.368,371.844-77.462,376.687l-54.654,0c-0.689,0-1.359,0.186-1.955,0.532
		c-31.819,18.466-74.475,19.09-105.164,0.973L155.397,497.256L155.397,497.256z"/>
</g>
<g id="Layer_3">
	<path fill="#F27A15" d="M289.22,503.011c17.778-10.125,16.593-70.276,16.593-70.276l3.556,61.949
		C309.368,494.684,271.442,513.136,289.22,503.011z M219.308,505.967c-17.778-10.125-16.204-70.932-16.204-70.932l-3.556,61.949
		C199.548,496.984,237.085,516.092,219.308,505.967z M339.203,85.189c-1.344-0.442-44.955-6.076-36.1-2.312
		c19.709,8.379,28.992,78.649,28.992,78.649s2.386-68.714,16.206-74.813C348.325,86.701,339.228,85.197,339.203,85.189z
		 M163.151,90.291c13.82,6.099,16.206,74.813,16.206,74.813s9.284-70.27,28.992-78.649c8.854-3.764-34.756,1.869-36.1,2.312
		C172.224,88.776,163.127,90.28,163.151,90.291z"/>
</g>
<g id="Layer_4">
	<path fill="#0B7C23" d="M249.84,100.701c-0.542,0-1.09-0.014-1.632-0.045c-15.688-0.889-34.792-7.212-33.903-22.896
		c3.243-57.382,60.417-75.181,86.431-76.573c15.521-0.917,29.083,11.191,29.924,26.882c0.833,15.59-11.049,28.924-26.597,29.906
		c-7.465,0.604-24.028,4.503-18.743,23C289.484,95.551,264.812,100.701,249.84,100.701z"/>
</g>
<g id="Layer_5">
	<path fill="#0EAA2B" d="M246.002,97.704c0,0-0.76,0.296-2.139,0.722c-0.683,0.206-1.54,0.483-2.512,0.722
		c-0.484,0.128-1.011,0.271-1.572,0.412c-0.554,0.142-1.134,0.257-1.752,0.399c-2.48,0.586-5.411,1.088-8.709,1.514
		c-3.298,0.412-6.938,0.702-10.829,0.799c-3.884,0.097-8.006-0.013-12.264-0.367c-4.264-0.348-8.651-0.98-13.109-1.83
		c-8.902-1.739-17.997-4.573-26.707-8.355c-4.355-1.887-8.625-3.974-12.696-6.357c-4.078-2.371-7.975-4.98-11.627-7.795
		c-7.311-5.623-13.656-12.039-18.726-18.442c-2.538-3.196-4.767-6.371-6.661-9.373c-1.893-2.995-3.446-5.868-4.689-8.303
		c-0.613-1.249-1.166-2.332-1.61-3.376c-0.226-0.509-0.438-0.979-0.631-1.411c-0.187-0.451-0.355-0.863-0.502-1.231
		c-0.309-0.721-0.515-1.333-0.664-1.732c-0.142-0.399-0.219-0.605-0.219-0.605c-0.986-2.718,0.289-5.714,2.84-6.938
		c0,0,0.2-0.097,0.587-0.283c0.386-0.181,0.966-0.471,1.687-0.767c0.367-0.161,0.773-0.335,1.217-0.528
		c0.445-0.174,0.922-0.361,1.443-0.561c1.043-0.432,2.203-0.811,3.511-1.275c2.603-0.863,5.72-1.823,9.173-2.622
		c3.453-0.811,7.266-1.514,11.318-2.01c8.103-1.011,17.128-1.134,26.281-0.013c4.58,0.554,9.186,1.437,13.753,2.602
		c4.573,1.16,9.089,2.667,13.515,4.374c8.857,3.421,17.321,7.774,24.89,12.786c3.774,2.519,7.344,5.147,10.629,7.885
		c3.284,2.737,6.293,5.559,8.999,8.348c2.699,2.789,5.095,5.559,7.15,8.161c2.055,2.615,3.788,5.031,5.147,7.195
		c0.341,0.528,0.676,1.018,0.973,1.507c0.296,0.496,0.573,0.966,0.831,1.398c0.522,0.85,0.94,1.649,1.282,2.274
		c0.683,1.269,1.018,2.016,1.018,2.016c3.542,7.923-0.007,17.225-7.93,20.768C246.485,97.511,246.214,97.621,246.002,97.704"/>
</g>
<g id="Layer_6">
	<path fill="#4C311E" d="M341.27,281.133c-1.526-2.727-2.409-5.671-2.409-8.742l7.111-57.125c0-14.073,11.406-25.479,25.479-25.479
		c14.073,0,25.479,11.406,25.479,25.479l7.111,57.125c0,4.345-1.771,8.436-4.628,12.017c-5.627-10.86-16.96-18.288-30.04-18.288
		C357.657,266.119,347.337,272.081,341.27,281.133z M389.388,333.902c-18.852,11.805-73.465,17.679-153.913,17.679
		c-12.344,0-23.49-0.139-33.591-0.416c-0.873,17.358-12.006,31.092-25.623,31.092c-14.18,0-25.678-14.905-25.678-33.287
		c0-0.473,0.012-0.941,0.028-1.409c-21.504-2.938-34.35-7.487-44.209-13.658c-5.362-3.356-12.082,1.529-10.638,7.688
		c11.953,51.115,75.512,90.119,152.135,90.119c13.516,0,26.622-1.219,39.114-3.499c-0.462-2.415-0.708-4.947-0.708-7.557
		c0-16.668,10.033-30.187,22.406-30.187c10.908,0,19.992,10.507,21.993,24.414c36.211-16.125,62.132-42.509,69.331-73.29
		C401.47,335.431,394.75,330.546,389.388,333.902z M141.816,266.119c11.979,0,22.492,6.232,28.5,15.622
		c1.744-2.896,2.774-6.048,2.774-9.35l-7.111-57.125c0-14.073-11.406-25.479-25.479-25.479c-14.073,0-25.479,11.406-25.479,25.479
		l-7.111,57.125c0,4.109,1.588,7.989,4.177,11.427C117.812,273.277,128.978,266.119,141.816,266.119z"/>
</g>
<g id="Layer_7">
	<path fill="#F27A15" d="M112.486,287.334c-2.944,0-5.774-1.632-7.174-4.444c-1.962-3.958-0.347-8.757,3.611-10.722
		c20.247-10.049,43.372-10.354,63.434-0.826c3.99,1.896,5.688,6.674,3.792,10.66s-6.656,5.667-10.66,3.799
		c-15.597-7.417-33.618-7.16-49.455,0.701C114.892,287.07,113.681,287.334,112.486,287.334z M346.701,286.5
		c15.837-7.861,33.858-8.118,49.455-0.701c4.003,1.868,8.764,0.188,10.66-3.799c1.896-3.986,0.198-8.764-3.792-10.66
		c-20.062-9.528-43.188-9.222-63.434,0.826c-3.958,1.965-5.573,6.764-3.611,10.722c1.399,2.812,4.229,4.444,7.174,4.444
		C344.347,287.334,345.559,287.07,346.701,286.5z"/>
</g>
</svg>
