<?xml version="1.0" encoding="iso-8859-1"?>
<!-- Generator: Adobe Illustrator 18.1.1, SVG Export Plug-In . SVG Version: 6.00 Build 0)  -->
<!DOCTYPE svg PUBLIC "-//W3C//DTD SVG 1.1//EN" "http://www.w3.org/Graphics/SVG/1.1/DTD/svg11.dtd">
<svg version="1.1" xmlns="http://www.w3.org/2000/svg" xmlns:xlink="http://www.w3.org/1999/xlink" x="0px" y="0px"
	 viewBox="0 0 512 512" enable-background="new 0 0 512 512" xml:space="preserve">
<g id="Layer_2">
	<path fill="#D19B61" d="M105.697,50.332l346.039,1.936c9.478,0.053,17.119,7.779,17.066,17.258s-7.779,17.119-17.258,17.066
		c-0.32-0.002-0.691-0.016-1.007-0.035l-345.33-22.232c-3.86-0.248-6.787-3.579-6.539-7.438
		C98.909,53.17,102.024,50.319,105.697,50.332z"/>
</g>
<g id="Layer_3">
	<path fill="#2B3B47" d="M504.99,241.57c0,115.133-47.13,270.43-244.866,270.43S7.01,345.029,7.01,241.57H504.99z"/>
</g>
<g id="Layer_4">
	<path fill="#597B91" d="M504.99,241.57c0,76.39-111.477,138.317-248.99,138.317S7.01,317.96,7.01,241.57
		S118.487,103.253,256,103.253S504.99,165.18,504.99,241.57z"/>
</g>
<g id="Layer_5">
	<path fill="#EFBD5B" d="M474.534,261.937c0,61.269-97.841,110.937-218.534,110.937S37.466,323.206,37.466,261.937
		S135.307,151,256,151S474.534,200.668,474.534,261.937z"/>
</g>
<g id="Layer_6">
	<path fill="#FFD469" d="M350.674,335.552c-1.688,0-3.377-0.027-5.071-0.082c-33.255-1.078-63.315-12.381-84.646-31.826
		c-4.897-4.465-5.248-12.055-0.783-16.953c4.466-4.898,12.057-5.247,16.953-0.783c17.11,15.6,41.705,24.683,69.253,25.575
		c24.38,0.799,48.492-5.297,62.957-15.886c18.262-13.368,12.212-26.484,10.224-30.795c-11.492-24.914-49.73-27.084-90.215-29.382
		c-31.746-1.802-64.572-3.665-90.322-16.552c-11.953-5.982-20.591-12.811-25.676-20.295c-5.882-8.658-7.03-18.196-3.234-26.857
		c5.257-11.996,19.387-20.443,38.766-23.178c18.715-2.641,40.625,0.299,61.694,8.278c6.197,2.347,9.319,9.274,6.973,15.472
		c-2.348,6.198-9.276,9.317-15.473,6.972c-38.477-14.571-66.859-5.027-69.978,2.089c-0.812,1.853,2.509,8.47,17.669,16.057
		c21.317,10.669,51.628,12.389,80.941,14.053c45.779,2.598,93.116,5.285,110.647,43.291c10.182,22.073,3.513,44.583-17.84,60.213
		C405.715,327.991,378.784,335.552,350.674,335.552z M170.743,318.428c0.444-6.612-4.556-12.333-11.168-12.777
		c-21.911-1.474-32.979-10.62-36.032-18.689c-2.308-6.101-0.462-12.607,5.196-18.323c28.778-29.068,107.147-14.382,165.515,7.026
		c6.223,2.284,13.115-0.91,15.398-7.133c2.282-6.223-0.911-13.116-7.133-15.399c-47.335-17.364-88.787-25.657-123.204-24.632
		c-37.985,1.124-57.745,13.266-67.632,23.253c-12.286,12.41-16.244,28.747-10.587,43.7c7.37,19.48,28.629,32.245,56.87,34.143
		c0.274,0.019,0.546,0.028,0.817,0.028C165.042,329.623,170.317,324.767,170.743,318.428z M80.067,243.625
		c23.056-6.52,42.642-34.492,58.214-83.139c12.913-40.339,18.793-82.399,18.793-104.408c0-20.764,8.603-30.838,12.174-32.857
		c0.789,1.439,2.17,5.072,2.17,12.857c0,12.953-2.005,28.072-4.127,44.08c-4.98,37.556-10.625,80.123,4.927,120.558
		c2.379,6.186,9.321,9.271,15.508,6.892c6.186-2.379,9.271-9.322,6.892-15.508c-13.357-34.726-8.14-74.072-3.536-108.786
		c2.23-16.815,4.336-32.698,4.336-47.235c0-10.476-1.895-18.986-5.633-25.296c-4.487-7.575-11.694-11.92-19.773-11.92
		c-17.764,0-36.938,21.875-36.938,57.216c0,20.846-6.063,60.89-17.651,97.092c-12.235,38.222-27.894,63.404-41.887,67.361
		c-6.377,1.804-10.085,8.435-8.282,14.812c1.495,5.286,6.307,8.738,11.541,8.738C77.876,244.081,78.976,243.934,80.067,243.625z"/>
</g>
<g id="Layer_7">
	<path fill="#D19B61" d="M166.481,27.082L478.675,5.934c9.457-0.641,17.644,6.507,18.284,15.964
		c0.641,9.457-6.507,17.644-15.964,18.284c-0.357,0.024-0.76,0.037-1.113,0.039l-312.908,0.852
		c-3.868,0.011-7.012-3.117-7.023-6.985C159.941,30.381,162.837,27.337,166.481,27.082z"/>
</g>
<g id="Layer_8">
	<path fill="#FF473E" d="M319,402.423v41.5c0,2.762-2.238,5-5,5h-34.5c-2.762,0-5-2.238-5-5v-26c0-2.762,2.238-5,5-5h16
		c2.762,0,5,2.238,5,5s-2.238,5-5,5h-11v16H309v-31.5h-46.5v36.5c0,2.762-2.238,5-5,5H201c-2.761,0-5-2.238-5-5v-41.5
		c0-2.762,2.239-5,5-5h34.5c2.761,0,5,2.238,5,5v26c0,2.762-2.239,5-5,5h-16c-2.761,0-5-2.238-5-5s2.239-5,5-5h11v-16H206v31.5h46.5
		v-36.5c0-2.762,2.239-5,5-5H314C316.762,397.423,319,399.661,319,402.423z M166.035,388.378
		c-9.223-1.043-18.627-2.728-27.952-5.007c-1.292-0.315-2.662-0.042-3.732,0.75c-1.071,0.792-1.735,2.019-1.813,3.349l-1.458,25.004
		c-0.125,2.145,1.287,4.077,3.367,4.609c4.492,1.149,9.049,2.177,13.544,3.055c2.434,0.474,4.79-1.112,5.264-3.544
		c0.475-2.433-1.112-4.79-3.544-5.265c-3.135-0.612-6.302-1.301-9.454-2.054l0.931-15.968c6.551,1.446,13.121,2.608,19.625,3.471
		l-1.775,31.354c-12.613-1.947-25.368-5.049-38.023-9.246l2.132-36.148c0.017-0.284,0-0.562-0.035-0.836
		c-0.012-0.094-0.035-0.182-0.053-0.274c-0.034-0.178-0.074-0.353-0.129-0.523c-0.032-0.1-0.07-0.197-0.109-0.294
		c-0.063-0.157-0.134-0.309-0.214-0.457c-0.048-0.09-0.096-0.178-0.15-0.264c-0.097-0.154-0.206-0.298-0.321-0.439
		c-0.054-0.066-0.102-0.136-0.16-0.199c-0.169-0.185-0.353-0.358-0.552-0.513c-0.013-0.01-0.023-0.022-0.036-0.032
		c-0.212-0.161-0.441-0.302-0.683-0.425c-0.082-0.042-0.171-0.072-0.257-0.109c-0.126-0.055-0.247-0.117-0.38-0.161
		c-15.623-5.131-31.143-11.957-46.127-20.29c-1.349-0.749-2.989-0.754-4.341-0.012c-1.353,0.742-2.229,2.128-2.32,3.669
		l-2.289,38.694c-0.1,1.697,0.767,3.305,2.24,4.153c9.451,5.442,19.197,10.348,28.969,14.578c1.345,0.582,2.888,0.471,4.134-0.296
		c1.248-0.768,2.042-2.095,2.128-3.557l1.458-24.566c0.113-1.899-0.984-3.663-2.737-4.401c-4.355-1.834-8.753-3.828-13.073-5.926
		c-2.23-1.083-4.915-0.153-5.997,2.077c-1.083,2.229-0.153,4.914,2.077,5.997c3.498,1.698,7.046,3.331,10.584,4.871l-0.886,14.935
		c-6.659-3.077-13.281-6.466-19.773-10.12l1.708-28.88c12.475,6.539,25.271,12.072,38.162,16.498l-2.131,36.137
		c-0.017,0.282,0,0.559,0.035,0.832c0.012,0.094,0.035,0.184,0.053,0.276c0.034,0.176,0.074,0.349,0.128,0.518
		c0.032,0.101,0.069,0.198,0.108,0.296c0.062,0.157,0.134,0.307,0.213,0.455c0.048,0.089,0.094,0.178,0.147,0.263
		c0.1,0.159,0.213,0.309,0.332,0.454c0.049,0.06,0.091,0.124,0.143,0.182c0.177,0.196,0.37,0.378,0.581,0.54
		c0.044,0.034,0.093,0.059,0.138,0.091c0.171,0.122,0.349,0.237,0.539,0.335c0.089,0.046,0.183,0.082,0.276,0.122
		c0.106,0.046,0.205,0.101,0.315,0.14c15.88,5.508,31.96,9.356,47.794,11.438c0.195,0.025,0.391,0.038,0.585,0.038
		c1.039,0,2.053-0.36,2.862-1.031c0.961-0.796,1.547-1.956,1.618-3.202l2.289-40.431C170.146,390.713,168.4,388.646,166.035,388.378
		z M452.062,360.961c-0.091-1.553-0.979-2.948-2.349-3.688c-1.369-0.74-3.022-0.719-4.371,0.06
		c-14.977,8.623-30.486,15.654-46.098,20.896c-0.121,0.041-0.232,0.1-0.347,0.15c-0.091,0.039-0.184,0.072-0.272,0.117
		c-0.221,0.113-0.43,0.243-0.626,0.389c-0.017,0.013-0.037,0.022-0.054,0.035c-0.213,0.163-0.406,0.347-0.585,0.543
		c-0.057,0.062-0.104,0.132-0.158,0.198c-0.115,0.141-0.224,0.285-0.32,0.439c-0.055,0.087-0.103,0.177-0.152,0.269
		c-0.079,0.146-0.149,0.296-0.211,0.451c-0.04,0.099-0.078,0.198-0.11,0.3c-0.054,0.168-0.093,0.34-0.127,0.515
		c-0.018,0.094-0.042,0.185-0.054,0.28c-0.035,0.273-0.051,0.551-0.034,0.833l2.13,36.123c-12.662,4.094-25.417,7.023-38.021,8.733
		l-1.75-30.378l-0.021-0.359c6.502-0.839,13.07-1.993,19.623-3.448l0.924,15.755c-3.139,0.727-6.29,1.384-9.407,1.962
		c-2.438,0.451-4.047,2.793-3.595,5.229c0.451,2.438,2.791,4.048,5.229,3.595c4.495-0.833,9.057-1.824,13.559-2.946
		c2.095-0.522,3.521-2.462,3.394-4.617l-1.457-24.827c-0.078-1.331-0.744-2.559-1.817-3.351c-1.075-0.79-2.444-1.062-3.738-0.743
		c-9.319,2.303-18.713,3.975-27.919,4.971c-2.377,0.258-4.135,2.333-3.998,4.72l2.289,39.738c0.071,1.23,0.645,2.377,1.586,3.172
		c0.813,0.687,1.841,1.058,2.895,1.058c0.166,0,0.332-0.009,0.499-0.027c15.841-1.772,31.94-5.409,47.852-10.811
		c0.115-0.039,0.22-0.096,0.33-0.143c0.095-0.041,0.191-0.076,0.282-0.123c0.204-0.105,0.396-0.227,0.579-0.36
		c0.032-0.023,0.068-0.04,0.099-0.064c0.212-0.163,0.405-0.346,0.583-0.542c0.055-0.06,0.1-0.128,0.152-0.191
		c0.117-0.143,0.228-0.29,0.326-0.446c0.054-0.086,0.1-0.174,0.148-0.264c0.08-0.148,0.151-0.299,0.214-0.456
		c0.039-0.098,0.076-0.195,0.109-0.296c0.054-0.169,0.094-0.342,0.128-0.519c0.018-0.092,0.041-0.182,0.053-0.276
		c0.035-0.273,0.051-0.551,0.034-0.833l-2.132-36.162c12.891-4.53,25.688-10.228,38.163-16.987l1.713,29.464
		c-6.493,3.683-13.114,7.081-19.773,10.15l-0.892-15.14c3.549-1.569,7.108-3.239,10.619-4.979c2.221-1.101,3.128-3.793,2.027-6.014
		c-1.102-2.221-3.794-3.126-6.014-2.027c-4.318,2.141-8.713,4.17-13.062,6.029c-1.74,0.744-2.826,2.5-2.715,4.39l1.457,24.744
		c0.086,1.46,0.878,2.787,2.123,3.556s2.788,0.88,4.13,0.303c9.781-4.209,19.535-9.128,28.993-14.62
		c1.464-0.851,2.324-2.451,2.227-4.141L452.062,360.961z"/>
</g>
</svg>
