<?xml version="1.0" encoding="iso-8859-1"?>
<!-- Generator: Adobe Illustrator 18.1.1, SVG Export Plug-In . SVG Version: 6.00 Build 0)  -->
<!DOCTYPE svg PUBLIC "-//W3C//DTD SVG 1.1//EN" "http://www.w3.org/Graphics/SVG/1.1/DTD/svg11.dtd">
<svg version="1.1" xmlns="http://www.w3.org/2000/svg" xmlns:xlink="http://www.w3.org/1999/xlink" x="0px" y="0px"
	 viewBox="0 0 512 512" enable-background="new 0 0 512 512" xml:space="preserve">
<g id="Layer_5">
	<path fill="#2B3B47" d="M138.686,308.097c5.567,15.064-2.131,31.788-17.195,37.356s-31.788-2.131-37.356-17.195
		c-5.567-15.064,2.131-31.788,17.195-37.356C116.394,285.335,133.119,293.033,138.686,308.097z M187.778,258.953
		c-15.064,5.567-22.762,22.292-17.195,37.356c5.567,15.064,22.292,22.762,37.356,17.195c15.064-5.567,22.762-22.292,17.195-37.356
		C219.566,261.085,202.842,253.386,187.778,258.953z M172.322,344.518c-15.064,5.567-22.762,22.292-17.195,37.356
		c5.567,15.064,22.292,22.762,37.356,17.195c15.064-5.567,22.762-22.292,17.195-37.356
		C204.111,346.649,187.386,338.95,172.322,344.518z"/>
</g>
<g id="Layer_1">
</g>
</svg>
