<?xml version="1.0" encoding="iso-8859-1"?>
<!-- Generator: Adobe Illustrator 19.2.1, SVG Export Plug-In . SVG Version: 6.00 Build 0)  -->
<!DOCTYPE svg PUBLIC "-//W3C//DTD SVG 1.1//EN" "http://www.w3.org/Graphics/SVG/1.1/DTD/svg11.dtd">
<svg version="1.1" xmlns="http://www.w3.org/2000/svg" xmlns:xlink="http://www.w3.org/1999/xlink" x="0px" y="0px"
	 viewBox="0 0 512 512" enable-background="new 0 0 512 512" xml:space="preserve">
<g id="Layer_2">
	<path fill="#C4F0F2" d="M322,301.232V71.413C322,34.182,292.232,4,255,4s-67,30.182-67,67.414v229.82
		c-28,20.659-46.207,53.812-46.207,91.193c0,62.631,50.664,113.403,113.294,113.403S368.24,455.056,368.24,392.426
		C368.24,355.044,350,321.891,322,301.232z"/>
</g>
<g id="Layer_3">
	<path fill="#FF473E" d="M303,332.538V172h-96v160.538c-18,14.088-28.794,35.674-28.794,59.887
		c0,42.448,34.367,76.859,76.815,76.859s76.772-34.411,76.772-76.859C331.794,368.212,321,346.626,303,332.538z"/>
</g>
<g id="Layer_4">
	<ellipse fill="#FF6E83" cx="255.107" cy="172.222" rx="48.152" ry="11.106"/>
</g>
<g id="Layer_5">
	<path fill="#597B91" d="M239.514,91c0,2.659-2.156,5-4.815,5H188V86h46.7C237.359,86,239.514,88.341,239.514,91z M234.7,146H188v10
		h46.7c2.659,0,4.815-2.341,4.815-5C239.514,148.341,237.359,146,234.7,146z M234.7,206H188v10h46.7c2.659,0,4.815-2.341,4.815-5
		C239.514,208.341,237.359,206,234.7,206z M235,266.496V266h-47v10h47v0.125c2,0,4.815-2.156,4.815-4.815S237,266.496,235,266.496z"
		/>
</g>
</svg>
