<?xml version="1.0" encoding="iso-8859-1"?>
<!-- Generator: Adobe Illustrator 18.1.1, SVG Export Plug-In . SVG Version: 6.00 Build 0)  -->
<!DOCTYPE svg PUBLIC "-//W3C//DTD SVG 1.1//EN" "http://www.w3.org/Graphics/SVG/1.1/DTD/svg11.dtd">
<svg version="1.1" xmlns="http://www.w3.org/2000/svg" xmlns:xlink="http://www.w3.org/1999/xlink" x="0px" y="0px"
	 viewBox="0 0 512 512" enable-background="new 0 0 512 512" xml:space="preserve">
<g id="Layer_4">
	<path fill="#16992B" d="M254.44,81.792c0,0,0.073-0.237,0.216-0.696c0.143-0.458,0.347-1.155,0.651-1.977
		c0.582-1.706,1.513-4.028,2.771-6.82c2.513-5.587,6.49-12.68,11.906-19.719c2.706-3.523,5.77-7.037,9.165-10.399
		c3.385-3.387,7.117-6.584,11.125-9.554c4.011-2.964,8.311-5.671,12.83-8.079c4.513-2.422,9.277-4.471,14.124-6.329
		c9.699-3.705,19.844-6.39,29.811-7.86c4.99-0.72,9.912-1.191,14.693-1.378c4.778-0.193,9.407-0.121,13.773,0.162
		c8.733,0.563,16.418,1.968,22.015,3.449c1.38,0.326,2.653,0.712,3.757,1.037c1.094,0.303,2.064,0.654,2.837,0.904
		c1.558,0.531,2.422,0.892,2.422,0.892c2.795,1.165,4.152,4.333,3.119,7.149c0,0-0.324,0.879-0.994,2.382
		c-0.342,0.736-0.745,1.686-1.267,2.694c-0.512,1.031-1.095,2.226-1.795,3.46c-2.721,5.11-6.918,11.701-12.444,18.485
		c-2.763,3.393-5.858,6.836-9.249,10.207c-3.389,3.377-7.081,6.666-11.003,9.834c-7.857,6.307-16.724,11.919-26.037,16.509
		c-4.659,2.289-9.401,4.389-14.246,6.05c-4.839,1.675-9.748,2.986-14.649,3.911c-4.904,0.918-9.786,1.481-14.571,1.659
		c-4.774,0.203-9.434,0.059-13.857-0.353c-8.844-0.817-16.749-2.725-22.554-4.683c-2.902-0.977-5.238-1.873-6.884-2.607
		c-0.81-0.336-1.46-0.661-1.892-0.867c-0.433-0.208-0.657-0.315-0.657-0.315C254.855,87.644,253.575,84.574,254.44,81.792z"/>
</g>
<g id="Layer_1">
</g>
</svg>
