<?xml version="1.0" encoding="iso-8859-1"?>
<!-- Generator: Adobe Illustrator 19.1.0, SVG Export Plug-In . SVG Version: 6.00 Build 0)  -->
<!DOCTYPE svg PUBLIC "-//W3C//DTD SVG 1.1//EN" "http://www.w3.org/Graphics/SVG/1.1/DTD/svg11.dtd">
<svg version="1.1" xmlns="http://www.w3.org/2000/svg" xmlns:xlink="http://www.w3.org/1999/xlink" x="0px" y="0px"
	 viewBox="0 0 512 512" enable-background="new 0 0 512 512" xml:space="preserve">
<g id="Layer_8">
	<path fill="#FFDF95" d="M469.49,193.647c0,0,0.621,2.883,1.249,7.87c0.082,0.624,0.171,1.281,0.241,1.968
		c0.038,0.344,0.077,0.695,0.116,1.055c0.018,0.384,0.036,0.777,0.055,1.178c0.083,1.61,0.093,3.351,0.14,5.231
		c0.023,1.867,0.03,3.903-0.022,5.984c-0.135,2.045-0.277,4.195-0.425,6.439c-0.287,4.516-1.067,9.312-1.944,14.416
		c-0.194,1.285-0.499,2.551-0.795,3.839c-0.307,1.287-0.617,2.59-0.931,3.907c-0.652,2.63-1.285,5.341-2.187,7.999
		c-0.842,2.682-1.738,5.401-2.676,8.146c-1.024,2.703-2.141,5.408-3.259,8.142c-0.589,1.352-1.107,2.749-1.768,4.076
		c-0.648,1.335-1.297,2.673-1.948,4.014c-0.664,1.335-1.33,2.673-1.996,4.012c-0.649,1.35-1.382,2.651-2.134,3.943
		c-1.474,2.6-2.985,5.179-4.501,7.739c-1.61,2.499-3.251,4.962-4.905,7.385c-1.603,2.459-3.384,4.761-5.138,7.033
		c-1.777,2.255-3.46,4.534-5.303,6.624c-3.675,4.189-7.232,8.212-10.949,11.702c-0.916,0.881-1.82,1.751-2.71,2.607
		c-0.897,0.847-1.757,1.701-2.678,2.472c-1.835,1.546-3.557,3.074-5.29,4.461c-3.371,2.862-6.709,5.206-9.663,7.258
		c-1.487,1.016-2.856,1.981-4.168,2.819c-1.339,0.811-2.564,1.552-3.696,2.192c-2.238,1.305-4.04,2.263-5.273,2.906
		c-1.236,0.64-1.91,0.959-1.91,0.959c-4.046,1.915-8.879,0.187-10.793-3.859c-1.146-2.421-0.988-5.122,0.191-7.313l0.14-0.255
		c0,0,0.342-0.626,0.984-1.8c0.655-1.156,1.62-2.838,2.905-4.891c0.63-1.04,1.354-2.158,2.139-3.371
		c0.734-1.263,1.565-2.584,2.437-4.003c1.751-2.83,3.824-5.897,5.905-9.357c1.042-1.729,2.211-3.445,3.369-5.258
		c1.13-1.835,2.268-3.743,3.482-5.66c2.484-3.794,4.854-7.935,7.463-12.07c0.675-1.019,1.279-2.095,1.897-3.171
		c0.63-1.066,1.265-2.14,1.903-3.22c0.649-1.07,1.302-2.147,1.958-3.229c0.665-1.076,1.247-2.206,1.889-3.305
		c1.24-2.225,2.56-4.421,3.843-6.647c1.214-2.262,2.444-4.524,3.711-6.765c1.308-2.222,2.403-4.543,3.621-6.796
		c1.192-2.264,2.457-4.486,3.528-6.771c1.13-2.259,2.278-4.493,3.429-6.696c1.043-2.244,2.103-4.453,3.185-6.617
		c1.122-2.153,2.05-4.33,3.039-6.444c0.5-1.057,0.994-2.103,1.482-3.136c0.508-1.029,0.999-2.052,1.423-3.078
		c0.887-2.042,1.776-4.031,2.668-5.955c0.963-1.908,1.68-3.809,2.458-5.623c0.807-1.818,1.581-3.56,2.316-5.217
		c0.738-1.637,1.309-3.168,1.962-4.631c0.653-1.455,1.23-2.836,1.836-4.112c0.149-0.321,0.295-0.635,0.438-0.943
		c0.129-0.338,0.254-0.669,0.377-0.992c0.24-0.647,0.492-1.261,0.728-1.844c1.861-4.67,3.186-7.305,3.186-7.305
		c2.038-4.053,6.975-5.687,11.028-3.649C467.447,189.192,468.975,191.319,469.49,193.647z"/>
</g>
<g id="Layer_1">
</g>
</svg>
