<?xml version="1.0" encoding="iso-8859-1"?>
<!-- Generator: Adobe Illustrator 18.1.1, SVG Export Plug-In . SVG Version: 6.00 Build 0)  -->
<!DOCTYPE svg PUBLIC "-//W3C//DTD SVG 1.1//EN" "http://www.w3.org/Graphics/SVG/1.1/DTD/svg11.dtd">
<svg version="1.1" xmlns="http://www.w3.org/2000/svg" xmlns:xlink="http://www.w3.org/1999/xlink" x="0px" y="0px"
	 viewBox="0 0 512 512" enable-background="new 0 0 512 512" xml:space="preserve">
<g id="Layer_2">
	<path fill="#D19B61" d="M443.461,262.755c0,53.304-9.354,50.972-48.37,80.033c-39.015,29.061-70.906,27.352-47.057,45.116
		c5.902,4.396,7.65,7.148,6.945,8.804c-0.639,10.302-13.422,20.912-49.302,20.912c-5.359,0-9.921,0.463-13.84,1.236l0.234,0.089
		c-14.433,2.251-25.202,14.247-25.159,34.247c0.056,25.867-44.043,7.794-33.392-9.73c5.271-8.672,10.719-15.507,15.585-20.739
		c6.943-9.704,19.974-21.793,41.838-21.793c24.033,0,34.042-0.674,32.132-8.509c-5.23-5.131-8.988-11.214-11.346-17.685
		c-0.326-0.408-0.64-0.805-0.979-1.225l0.664,0.336c-8.057-23.506,2.13-51.729,27.247-57.984
		c42.003-10.461,26.608-14.178,6.425-29.211C345.085,286.652,443.461,209.451,443.461,262.755z M124.163,282.918
		c5.597,21.607-4.115,37.423-31.568,44.535c-24.571,6.365-42.687,14.116-40.238,38.783l-0.016-0.004c0,0-4.351,28.257,8.001,63.861
		s50.699,10.345,30.037-12.368c-14.475-15.911-16.765-22.466-19.032-46.172c-2.185-26.283,14.859-7.191,56.627-18.01
		c41.768-10.82,46.831-4.999,75.214-53.228S124.163,282.918,124.163,282.918z"/>
</g>
<g id="Layer_3">
	<path fill="#AF773F" d="M462.724,262.686c-0.017-0.324-0.048-0.646-0.07-0.969c-0.044-0.611-0.09-1.218-0.153-1.797
		c-3.49-35.736-37.103-65.427-78.078-65.427c-78.424,0-112.834,20.02-142.019,20.02c-27.729,0-76.867-23.909-81.7-46.501
		c-0.098-1.168-0.224-2.328-0.388-3.475c0-0.023-0.002-0.045-0.002-0.068l-0.005,0.008c-4.161-28.822-28.953-50.971-58.928-50.971
		c-7.962,0-15.553,1.575-22.495,4.41c-0.029-0.535-0.162-1.072-0.427-1.579c0,0-0.056-0.107-0.161-0.308
		c-0.052-0.1-0.117-0.224-0.193-0.37l-0.03-0.057l-0.061-0.134c-0.042-0.09-0.085-0.184-0.13-0.28
		c-0.095-0.19-0.196-0.392-0.302-0.605c-0.111-0.21-0.227-0.431-0.349-0.663c-0.103-0.164-0.211-0.336-0.324-0.516
		c-0.225-0.353-0.473-0.744-0.734-1.09c-0.523-0.736-1.116-1.486-1.774-2.158c-0.656-0.706-1.336-1.344-2.039-1.99
		c-0.689-0.612-1.398-1.241-2.113-1.778c-1.409-1.12-2.831-2.104-3.99-3.009c-1.234-0.889-2.207-1.663-2.911-2.473
		c-0.333-0.409-0.69-0.837-0.923-1.329c-0.264-0.49-0.398-1.034-0.495-1.59c-0.059-0.55-0.1-1.122-0.076-1.649
		c0.002-0.531,0.102-1.001,0.144-1.408c0.162-0.824,0.255-1.294,0.255-1.294c0.026-0.137,0.036-0.288,0.023-0.434
		c-0.075-0.848-0.824-1.475-1.672-1.4l-0.547,0.048c0,0-0.182,0.016-0.494,0.083c-0.3,0.077-0.788,0.162-1.337,0.364
		c-0.538,0.226-1.203,0.501-1.884,0.976c-0.347,0.236-0.696,0.5-1.058,0.819c-0.35,0.33-0.699,0.694-1.054,1.112
		c-0.666,0.857-1.323,1.919-1.751,3.201c-0.449,1.269-0.678,2.73-0.648,4.188c-0.015,0.742,0.093,1.454,0.21,2.17
		c0.12,0.696,0.284,1.413,0.522,2.044c0.408,1.331,1.038,2.481,1.656,3.526c0.68,1.024,1.364,1.939,2.119,2.702
		c0.357,0.407,0.739,0.749,1.125,1.086c0.373,0.328,0.746,0.657,1.138,0.924c1.524,1.139,3.042,1.904,4.43,2.498
		c0.706,0.297,1.362,0.556,1.98,0.795c0.648,0.247,1.213,0.462,1.678,0.639c0.451,0.182,0.924,0.394,1.188,0.54
		c0.287,0.14,0.462,0.207,0.462,0.207l3.807,1.456c-18.095,10.218-30.32,29.615-30.32,51.878
		c-1.398,7.487-15.798,21.253-27.662,33.607l0.005,0.001c-4.796,4.019-7.851,10.049-7.851,16.797
		c0,11.455,8.795,20.844,19.998,21.814c0.585,0.063,1.221,0.097,1.913,0.097c0.73,0,1.475-0.042,2.229-0.112
		c0.016-0.002,0.032-0.005,0.048-0.006c11.359-1.084,25.279-9.873,37.582-18.074c3.242-2.161,7.109-3.125,10.996-2.845
		c2.222,0.16,4.507,0.094,6.834-0.228c1.554-0.215,3.067-0.555,4.542-0.986c1.799-0.602,3.41-1.229,4.857-1.856
		c1.564-0.751,3.064-1.616,4.478-2.599c0.02,0.132,0.049,0.261,0.071,0.393c6.761-3.613,8.992-6.141,13.89-1.999
		c7.495,6.338,6.466,11.186,4.449,30.053c0.058,0.031,0.114,0.067,0.172,0.098c-0.219,1.945-0.481,4.002-0.749,6.206
		c-0.039,0.145-0.073,0.293-0.111,0.438c-0.483,4.981-0.973,10.739-1.387,17.49c-0.116,1.895-0.299,3.655-0.542,5.291
		c1.589,17.901,10.327,33.734,23.33,44.659c11.784,16.127,14.383,34.3-4.916,53.599c-21.573,21.573-35.445,40.58-16.245,64.897
		c21.866,30.811,8.901,27.613,37.387,52.285c27.164,23.527,60.151-20.997,28.786-27.261c-17.789-3.553-28.85-10.404-41.608-22.188
		c-21.604-21.745,7.243-26.722,42.931-62.41c8.807-8.807,15.962-15.27,21.75-20.99c0.059,0,0.119,0.009,0.178,0.009
		c90.287,0,108.781-43.575,146.676-28.658c-15.054,13.286-20.397,41.167-14.288,65.093l-0.609-0.413
		c0.311,0.518,0.599,1.006,0.898,1.508c2.161,7.964,5.606,15.448,10.4,21.763c1.751,9.642-7.423,10.471-29.453,10.471
		c-17.418,0-28.714,11.24-35.554,22.022c-4.52,6.425-7.101,15.863-7.495,34.84c-0.607,29.202,45.12,26.716,37.493,1.999
		c-5.885-19.072-8.249-29.924,4.803-36.308c3.87-1.25,8.55-2.015,14.259-2.015c32.89,0,72.149-1.698,38.826-36.568
		c-21.359-22.351,9.758-39.392,43.134-55.52c0.396-0.191,0.778-0.391,1.169-0.585c1.95-0.822,3.848-1.848,5.692-3.046
		c26.359-15.188,39.687-39.389,39.687-87.772C462.82,264.873,462.782,263.763,462.724,262.686z"/>
</g>
<g id="Layer_4">
	<path fill="#D9DBD5" d="M318.263,497.759c0.837,19.468-43.752,11.49-42.67-1.082c0.357-4.155,1.367-18.67,1.662-21.988
		c10.222,6.507,24.059,8.457,36.796,9.219C314.431,485.187,318.202,496.337,318.263,497.759z M267.752,450.442
		c0-3.245-17.13-13.55-21.725-24.762c-2.155,2.54-11.353,13.814-14.042,17.001c-8.136,9.645,18.858,41.892,29.406,25.508
		C262.161,466.991,267.752,458.824,267.752,450.442z M176.691,463.245c-6.169,11.169-12.655,21.474-22.927,27.901
		c2.868,1.694,13.186,10.518,16.783,12.628c10.883,6.386,41.707-28.255,20.459-38.372
		C189.72,464.791,178.008,463.453,176.691,463.245z M89.625,417.045c-8.975,7.978-16.324,14.692-27.715,16.946
		c1.158,4.012,7.477,14.485,10.192,17.648c8.216,9.57,45.547-9.408,28.82-25.96C99.91,424.678,90.784,417.691,89.625,417.045z"/>
</g>
<g id="Layer_5">
	<path fill="#D9DBD5" d="M23.749,196.786c-3.182,3.298-6.469,6.637-9.583,9.879l0.005,0.001c-4.796,4.019-7.851,10.049-7.851,16.797
		c0,11.455,8.795,20.844,19.998,21.814c0.585,0.063,1.221,0.097,1.913,0.097c0.73,0,1.475-0.042,2.229-0.112
		c0.016-0.002,0.032-0.005,0.048-0.006c9.912-0.946,21.774-7.763,32.812-14.933C58.94,214.456,39.489,196.985,23.749,196.786z"/>
</g>
<g id="Layer_6">
	<path fill="#2B3B47" d="M440.466,224.23c0,0,0.182,0.101,0.534,0.297c0.176,0.098,0.395,0.22,0.655,0.364
		c0.25,0.126,0.41,0.118,0.641,0.202c0.244,0.071,0.516,0.149,0.816,0.236c0.317,0.1,0.665,0.19,1.044,0.266
		c0.747,0.166,1.61,0.269,2.563,0.301c1.899,0.071,4.231-0.266,6.894-1.18c2.658-0.931,5.648-2.477,8.636-4.693
		c1.478-1.13,2.973-2.376,4.397-3.787c1.414-1.421,2.787-2.962,4.029-4.626c0.632-0.823,1.198-1.701,1.752-2.582
		c0.553-0.877,1.085-1.768,1.544-2.688c0.94-1.831,1.663-3.732,2.175-5.602c1.038-3.771,1.098-7.354,0.236-10.784
		c-0.832-3.434-2.696-6.954-5.588-10.472c-0.718-0.879-1.501-1.75-2.338-2.608c-1.152-1.213-2.252-2.336-3.354-3.529l-0.413-0.442
		l-0.45-0.501l-0.891-1.007l-1.764-2.021c-1.14-1.352-2.207-2.71-3.284-4.073c-4.216-5.549-7.945-11.582-10.805-18.008
		c-2.856-6.425-4.81-13.298-5.455-20.082c-0.321-3.38-0.35-6.713,0.003-9.886c0.348-3.164,0.877-6.163,1.749-8.894
		c1.686-5.479,4.054-9.904,6.322-13.518c2.307-3.602,4.573-6.426,6.558-8.617c1.991-2.183,3.659-3.767,4.825-4.815
		c1.158-1.053,1.803-1.584,1.803-1.584c0.467-0.384,1.157-0.317,1.541,0.15c0.264,0.321,0.315,0.748,0.169,1.108l-0.01,0.024
		c0,0-0.314,0.77-0.957,2.157c-0.62,1.4-1.523,3.448-2.611,6.013c-1.063,2.573-2.311,5.677-3.317,9.231
		c-0.234,0.892-0.467,1.807-0.677,2.745c-0.169,0.947-0.377,1.908-0.474,2.897c-0.298,1.963-0.32,4.021-0.203,6.082
		c0.25,4.137,1.407,8.287,3.533,12.285c0.485,1.004,1.109,2.001,1.689,2.994c0.671,0.991,1.273,1.98,2.035,2.96
		c1.397,1.971,3.035,3.93,4.727,5.901c3.453,3.931,7.292,7.938,11.386,12.033c2.042,2.036,4.099,4.088,6.165,6.149
		c1.147,1.113,2.315,2.286,3.406,3.399c1.423,1.45,2.811,2.98,4.142,4.603c2.645,3.255,5.071,6.895,7.013,10.914
		c1.972,3.996,3.397,8.408,4.181,12.929c0.785,4.524,0.824,9.163,0.257,13.575c-0.597,4.409-1.786,8.605-3.432,12.391
		c-1.613,3.811-3.678,7.221-5.939,10.268c-1.123,1.532-2.315,2.96-3.531,4.319c-1.25,1.328-2.511,2.598-3.825,3.76
		c-2.599,2.354-5.313,4.383-8.106,6.068c-2.778,1.703-5.59,3.129-8.423,4.222c-5.637,2.231-11.306,3.273-16.481,3.209
		c-2.585-0.028-5.044-0.321-7.284-0.864c-2.241-0.517-4.264-1.268-5.989-2.152c-1.733-0.854-3.177-1.816-4.329-2.754
		c-0.581-0.462-1.102-0.898-1.54-1.346c-0.221-0.217-0.433-0.423-0.633-0.62c-0.21-0.225-0.409-0.438-0.597-0.639
		c-0.356-0.396-0.736-0.802-0.914-1.063c-0.163-0.249-0.301-0.458-0.411-0.627c-0.221-0.337-0.336-0.511-0.336-0.511
		c-1.593-2.424-0.918-5.681,1.506-7.273C436.718,223.324,438.815,223.318,440.466,224.23z M77.15,149.881
		c-4.321,0.314-7.569,4.071-7.255,8.392l0.984,13.528c0.314,4.321,4.071,7.569,8.392,7.255l0,0c4.321-0.314,7.569-4.071,7.255-8.392
		l-0.984-13.528C85.227,152.815,81.47,149.567,77.15,149.881L77.15,149.881z M31.285,214.579c-2.265,0.165-3.968,2.134-3.803,4.399
		l0.516,7.092c0.165,2.265,2.134,3.968,4.399,3.803l0,0c2.265-0.165,3.968-2.134,3.803-4.399l-0.516-7.092
		C35.52,216.117,33.55,214.414,31.285,214.579L31.285,214.579z M245.345,208.207l-3.693-0.537c0,0-0.816-0.118-2.345-0.341
		c-0.75-0.115-1.658-0.224-2.713-0.43c-1.045-0.166-2.223-0.372-3.508-0.665c-2.556-0.528-5.52-1.315-8.564-2.434
		c-1.524-0.609-3.065-1.2-4.596-1.959c-0.765-0.373-1.526-0.788-2.279-1.221c-0.756-0.405-1.507-0.836-2.247-1.305
		c-2.95-1.931-5.784-4.084-8.409-6.769c-1.342-1.265-2.635-2.674-3.876-4.192c-1.241-1.511-2.518-3.032-3.698-4.722
		c-2.324-3.418-4.656-7.044-6.701-11.027c-2.072-3.948-3.953-8.15-5.511-12.395l-0.574-1.588l-0.278-0.782l-0.185-0.613
		l-0.726-2.044c-0.398-0.993-0.755-1.982-1.197-2.976c-1.696-3.961-3.61-7.988-5.898-11.998c-2.324-3.997-4.954-8.025-8.056-11.919
		c-3.118-3.879-6.657-7.662-10.629-11.109c-3.987-3.425-8.374-6.502-12.918-9.068c-2.285-1.256-4.607-2.374-6.935-3.328
		c-2.344-0.917-4.657-1.726-6.962-2.312c-4.583-1.25-9.005-1.77-13.043-1.915c-4.055-0.098-7.749,0.222-11.087,0.824
		c-6.677,1.233-11.933,3.434-16.222,5.888c-0.835,0.474-1.624,0.959-2.389,1.449c-0.117-0.034-0.232-0.07-0.351-0.098
		c-0.376-0.091-0.77-0.187-1.181-0.286c-0.836-0.214-1.737-0.345-2.683-0.474c-0.962-0.146-1.969-0.186-3.015-0.241
		c-1.063-0.055-2.154-0.039-3.258,0.018c-2.247,0.104-4.541,0.401-6.879,0.847c-2.293,0.439-4.635,1.049-6.846,1.726
		c-2.228,0.68-4.388,1.463-6.393,2.255c-1.019,0.425-1.981,0.77-2.931,1.212c-0.928,0.354-1.843,0.815-2.698,1.156
		c-1.555,0.721-3.111,1.443-4.642,2.153c-1.377,0.644-2.585,1.325-3.723,1.883c-1.153,0.585-2.297,1.208-3.589,1.674
		c-1.297,0.545-2.742,0.886-4.304,1.205c-0.779,0.141-1.561,0.194-2.378,0.326c-0.823,0.123-1.579,0.073-2.387,0.155
		c-1.596,0.116-3.053,0.014-4.397,0.07c-1.282-0.05-2.388-0.067-3.173-0.065c-0.81,0.012-1.241,0.018-1.241,0.018
		s-0.008,0.436,0.049,1.221c0.059,0.783,0.177,1.928,0.479,3.328c0.161,0.696,0.401,1.422,0.67,2.242
		c0.256,0.837,0.609,1.67,1.06,2.56c0.214,0.456,0.465,0.898,0.73,1.357c0.271,0.455,0.525,0.954,0.864,1.41
		c0.661,0.924,1.388,1.901,2.266,2.84c1.783,1.838,4.051,3.713,6.895,5.1c2.808,1.467,6.144,2.425,9.581,2.828
		c3.468,0.431,6.966,0.216,10.243-0.409c1.665-0.308,3.211-0.722,4.761-1.211c1.483-0.491,2.978-1.065,4.334-1.677
		c1.887-0.846,3.62-1.797,5.236-2.8c0.732,0.52,1.575,0.908,2.505,1.119c0,0,0.205,0.047,0.602,0.137
		c0.39,0.098,0.981,0.203,1.814,0.354c1.621,0.315,3.949,0.643,6.873,1.017c1.443,0.159,3.041,0.334,4.78,0.525
		c1.719,0.188,3.552,0.306,5.473,0.502c0.95,0.099,1.931,0.201,2.94,0.307c0.986,0.09,2,0.183,3.04,0.278
		c2.052,0.207,4.158,0.483,6.263,0.825c4.224,0.618,8.434,1.545,12.352,2.976c1.959,0.727,3.861,1.562,5.695,2.6
		c1.844,1.018,3.631,2.231,5.358,3.676c3.457,2.874,6.662,6.751,9.516,11.328c1.42,2.296,2.755,4.755,3.997,7.335
		c0.677,1.419,1.356,2.841,2.035,4.264l0.64,1.307l0.628,1.232c0.418,0.818,0.852,1.628,1.29,2.436
		c3.519,6.45,7.636,12.561,12.287,18.159c4.689,5.565,9.942,10.576,15.57,14.849c5.619,4.286,11.691,7.732,17.835,10.19
		c6.128,2.486,12.308,4.013,18.072,4.603c5.764,0.615,11.075,0.452,15.655-0.164c4.586-0.622,8.452-1.595,11.547-2.56
		c3.09-0.994,5.419-1.951,6.992-2.618c1.555-0.695,2.385-1.066,2.385-1.066c2.27-1.036,4.03-3.187,4.415-5.84
		C252.37,212.662,249.495,208.81,245.345,208.207z"/>
</g>
<g id="Layer_7">
	<path fill="#FFB636" d="M225.629,204.333c-0.396-3.712-3.732-6.405-7.437-6.005l-71.482,7.611
		c8.754-40.156-7.099-78.031-41.933-98.276c-3.227-1.875-7.364-0.779-9.24,2.447c-1.875,3.228-0.78,7.364,2.447,9.24
		c8.79,5.109,16.124,11.437,21.926,18.694c-0.497,15.836-34.734,56.317-56.383,78.292c-2.004,2.034-2.514,5.108-1.273,7.68
		c1.136,2.354,3.513,3.823,6.085,3.823c0.238,0,0.478-0.013,0.718-0.038l150.567-16.031
		C223.336,211.375,226.024,208.045,225.629,204.333z M102.748,192.732c13.006-15.893,21.801-28.914,26.535-39.325
		c7.118,15.919,8.415,34.567,3.166,54.05l-46.722,4.974C90.725,206.922,96.716,200.103,102.748,192.732z"/>
</g>
<g id="Layer_8">
	<path fill="#AF773F" d="M85.283,123.527c-2.805-5.196-5.873-12.735-6.913-22.571c-0.523-3.147-0.575-5.948-0.387-8.384
		c0.014-0.025,0.003-0.055,0.001-0.098L78,92.47c0.238-2.748,0.901-5.322,1.466-7.119c0.457-1.455,2.029-2.246,3.459-1.716
		c2.386,0.884,6.06,2.549,9.329,5.305l0.032,0.002c0,0,0.19,0.174,0.264,0.23c0.118,0.108,0.226,0.208,0.347,0.303
		c2.574,2.347,13.33,12.804,17.333,25.704c0.457,1.279,0.811,2.59,1.077,3.894c0.018,0.048,0.027,0.091,0.042,0.13
		c0.017,0.104,0.011,0.172,0.024,0.267c2.314,11.764-9.991,14.676-9.991,14.676c-0.16-0.118-0.433,0.017-0.441,0.217
		c0,0-2.746,5.39-10.365-2.896l-0.013,0.004c0,0-0.259-0.275-0.66-0.782C88.067,128.563,86.449,126.198,85.283,123.527z"/>
</g>
<g id="Layer_9">
	<path fill="#E2CCFF" d="M358.25,200.192c-3.422,12.229-6.774,39.511,6.035,90.082c2.064,8.148-3.389,16.294-11.709,17.487
		l-89.967,12.904c-6.032,0.865-11.934-2.223-14.666-7.67c-9.947-19.835-30.063-67.887-10.778-100.511
		c2.086-3.529,5.608-5.968,9.642-6.699c18.822-3.41,78.633-13.907,104.583-14.432C356.076,191.257,359.513,195.68,358.25,200.192z"
		/>
</g>
<g id="Layer_10">
	<path fill="#BFBCAF" d="M344.057,165.07c-2.816-3.613-6.637-6.161-11.047-7.368c-6.387-1.748-0.78,14.361-5.998,18.429
		l-75.096,58.539l-1.562,1.214c-7.031,5.473-9.156,15.194-5.053,23.114c0,0,36.348,66.042,40.68,67.228
		c3.099,0.848,13.684-4.541,15.589-8.395c1.906-3.854-11.944-59.111-11.944-59.111l63.3-49.344
		C371.002,196.786,351.202,174.236,344.057,165.07z"/>
</g>
<g id="Layer_11">
	<path fill="#00D1AE" d="M261.05,104.505c20.579-19.005,72.744,11.176,91.619,55.668c14.225,33.533-34.221,46.152-55.667,46.848
		C275.555,207.718,240.598,123.393,261.05,104.505z"/>
</g>
<g id="Layer_12">
	<path fill="#FFD3B6" d="M274.184,51.538c-5.917-20.275-27.151-31.919-47.433-26c-20.275,5.917-32.038,20.692-26.121,40.967
		l1.496,4.774l-0.002-0.002c0.001,0,0.002,0.006,0.003,0.007l0.019,0.062c0.164,0.9-0.085,11.192-0.851,15.818
		c-0.862,5.206,2.328,5.368,7.104,4.134l2.424,7.735c0.416,1.426,4.479,0.014,5.653-1.138c0.89-0.865,2.294-0.846,3.145,0.029
		c0.86,0.876,0.849,2.284-0.03,3.145c-0.987,0.97-3.256,2.104-4.834,2.824c-0.887,0.405-1.242,1.535-0.712,2.354
		c7.324,11.325,21.573,9.803,37.74,5.085c0.322-0.094,0.63-0.197,0.944-0.297c3.333,2.79,8.286,2.84,11.678-0.098l7.151-6.196
		c3.472-3.008,4.08-8.084,1.595-11.808C281.005,74.923,274.184,51.538,274.184,51.538z"/>
</g>
<g id="Layer_13">
	<path fill="#2B3B47" d="M216.67,70.661c-0.591-1.525-2.245-2.378-3.84-1.912c-1.6,0.467-2.535,2.075-2.215,3.679l-0.037,0.011
		l1.253,4.294l0.013-0.004c0.002,0.006,0.003,0.009,0.003,0.009c0.493,1.69,2.26,2.659,3.947,2.166
		c1.686-0.492,2.655-2.26,2.163-3.946c0,0-0.008-0.004-0.01-0.01l0.006-0.002l-1.253-4.294L216.67,70.661z"/>
</g>
<g id="Layer_14">
	<path fill="#FFFFFF" d="M213.032,71.904c-0.145-0.379-0.559-0.592-0.956-0.476c-0.397,0.116-0.63,0.517-0.552,0.916l-0.008,0.002
		l0.312,1.07l0.002,0l0.001,0.003c0.123,0.42,0.563,0.661,0.983,0.539c0.419-0.122,0.661-0.563,0.539-0.983l-0.001-0.003l0,0
		l-0.312-1.07L213.032,71.904z"/>
</g>
<g id="Layer_15">
	<path fill="#68442A" d="M231.331,17.422c-14.883,4.343-34.617,13.775-35.116,14.507c-0.503,0.737,2.78,4.403,2.308,5.217
		c-0.985,1.699-1.908,3.573-2.793,5.657c-0.817,1.925,1.38,2.214,7.867,0.596c1.688-0.422,0.967,4.241,2.91,3.705
		c1.061-0.292,17.591-14.242,26.357,15.799c0.7,2.4,2.382,3.683,4.746,2.994c1.74-0.508,8.628-2.099,10.882,5.624
		c2.569,8.804,28.273,10.159,28.782,9.148c3.429-6.797,4.349-22.046,0.338-35.791C273.6,31.133,257.198,9.873,231.331,17.422z"/>
</g>
<g id="Layer_16">
	<path fill="#E5AB83" d="M205.844,63.677c0,0,0.165-0.069,0.453-0.19c0.284-0.116,0.686-0.27,1.173-0.441
		c0.486-0.172,1.061-0.355,1.683-0.532c0.627-0.169,1.298-0.34,1.993-0.46c0.688-0.133,1.402-0.212,2.085-0.239
		c0.335-0.029,0.683,0.002,1.001,0.007c0.316,0.001,0.639,0.072,0.922,0.104c0.283,0.027,0.56,0.134,0.793,0.19
		c0.236,0.055,0.441,0.144,0.609,0.227c0.333,0.158,0.523,0.249,0.523,0.249c0.552,0.263,0.787,0.924,0.524,1.476
		c-0.244,0.513-0.833,0.752-1.358,0.572l-0.24-0.082c0,0-0.11-0.037-0.301-0.103c-0.091-0.038-0.205-0.082-0.363-0.099
		c-0.156-0.017-0.304-0.079-0.512-0.076c-0.204,0-0.406-0.039-0.651-0.016c-0.242,0.021-0.487,0.011-0.759,0.061
		c-0.534,0.067-1.114,0.178-1.695,0.343c-0.581,0.15-1.16,0.351-1.7,0.546c-0.539,0.204-1.038,0.409-1.459,0.6
		c-0.422,0.189-0.769,0.357-1.004,0.476c-0.229,0.119-0.36,0.187-0.36,0.187l-0.036,0.019c-0.763,0.397-1.704,0.101-2.101-0.662
		c-0.397-0.763-0.101-1.704,0.662-2.101C205.764,63.713,205.805,63.694,205.844,63.677z"/>
</g>
<g id="Layer_17">
	<path fill="#EDC0A2" d="M243.842,82.605c-0.937,0.273-1.918-0.265-2.191-1.201c-0.273-0.937,0.264-1.918,1.201-2.191
		c3.07-0.896,4.838-4.124,3.942-7.196c-0.897-3.072-4.124-4.843-7.194-3.947c-0.937,0.273-1.918-0.265-2.191-1.201
		c-0.273-0.937,0.264-1.918,1.201-2.191c4.941-1.442,10.135,1.406,11.577,6.349C251.63,75.969,248.783,81.163,243.842,82.605z"/>
</g>
<g id="Layer_18">
	<path fill="#15E5C2" d="M295.164,109.682c-1.141-0.314-2.314-0.473-3.487-0.473c-5.888,0-11.09,3.969-12.653,9.651l-0.07,0.249
		c-0.065,0.228-0.134,0.468-0.275,1.037l-0.806,3.843c-0.261,1.41-0.491,2.762-0.719,4.113c-0.446,2.68-0.857,5.318-1.263,7.955
		c-0.695,4.541-1.411,9.392-2.314,15.693l-0.929,5.488l-2.044,14.974l-48.869,26.862c-3.865-0.119-7.239,2.521-8.111,6.292
		c-1.01,4.365,1.72,8.738,6.085,9.749l0.328,0.076l0.327-0.081c0.183-0.045,18.521-4.56,36.624-10.41
		c33.224-10.737,37.408-16.627,37.502-20.137l1.309-8.107l2.29-15.476l1.097-5.375c0.659-4.248,1.534-9.842,2.46-15.451
		c0.422-2.554,0.851-5.106,1.296-7.605c0.224-1.24,0.448-2.477,0.68-3.646l0.341-1.647l0.106-0.412v-0.083
		c0.021-0.068,0.044-0.146,0.066-0.223l0.209-0.716C306.262,118.842,302.145,111.601,295.164,109.682z"/>
</g>
<g id="Layer_19">
	<path fill="#FFD3B6" d="M222.439,209.997c1.39-4.415-1.063-9.121-5.478-10.511l-2.911-0.916c-0.968-0.313-1.947-0.591-2.922-0.883
		c-0.974-0.295-1.953-0.574-2.935-0.844c-0.979-0.278-1.965-0.537-2.955-0.784c-3.789-0.951-7.804,0.99-9.343,4.707
		c-0.114,0.275-0.208,0.553-0.29,0.832c-3.847,1.361-6.048,5.479-4.948,9.476c0.574,2.086,1.13,4.177,1.761,6.25l0.283,0.929
		c1.147,3.745,5.044,5.972,8.885,5.004c2.948-0.743,5.882-1.561,8.797-2.471c0.73-0.22,1.454-0.475,2.181-0.71
		c0.727-0.238,1.453-0.478,2.174-0.744c1.447-0.511,2.887-1.052,4.314-1.665c2.061-0.889,3.523-2.925,3.559-5.314
		c0.011-0.696-0.107-1.363-0.319-1.986C222.338,210.241,222.398,210.125,222.439,209.997z"/>
</g>
<g id="Layer_20">
	<path fill="#2B3B47" d="M319.768,330.764l-1.27-2.034c-0.1-0.159-0.226-0.289-0.364-0.401c-0.056-0.196-0.129-0.388-0.242-0.57
		l-7.836-12.546l-8.626-17.818c-0.591-1.221-2.298-1.305-3-0.144c-3.916,6.468-12.489,10.069-24.868,11.329
		c-1.239,0.126-1.938,1.49-1.311,2.566l9.148,15.686c-0.306,3.004-0.015,6.569-7.959,18.429
		c-4.761,7.109-11.101,10.905-10.119,15.471c0.17,0.789,0.749,1.988,1.448,2.778c-0.068,0.341-0.035,0.705,0.13,1.041
		c0.391,0.799,1.343,1.143,2.151,0.771c0.312-0.143,0.67-0.308,1.072-0.493c0.799-0.355,1.785-0.86,2.909-1.401
		c1.142-0.526,2.352-1.229,3.704-1.955c0.673-0.367,1.375-0.749,2.1-1.145c0.708-0.413,1.44-0.839,2.193-1.278
		c1.504-0.88,3.089-1.808,4.729-2.768l0.618-0.362l0.661-0.411c0.406-0.256,0.815-0.514,1.227-0.774
		c0.823-0.519,1.656-1.045,2.496-1.574c1.679-1.06,3.385-2.136,5.091-3.212c1.694-1.116,3.348-2.375,4.999-3.541
		c1.664-1.211,3.223-2.282,4.754-3.356c1.538-1.056,2.98-2.125,4.424-3.052c1.461-0.909,2.842-1.768,4.118-2.561
		c3.152-1.961,5.654-3.518,7.104-4.42C320.018,332.542,320.248,331.533,319.768,330.764z"/>
</g>
<g id="Layer_21">
	<path fill="#A97DFF" d="M198.81,42.802c-11.195-8.163,0.535-37.122,40.863-39.68c53.707-3.406,57.047,65.674,39.235,65.532
		c-25.491-0.204-27.813-5.319-43.784-15.94S215.063,54.652,198.81,42.802z"/>
</g>
</svg>
