<?xml version="1.0" encoding="iso-8859-1"?>
<!-- Generator: Adobe Illustrator 18.1.1, SVG Export Plug-In . SVG Version: 6.00 Build 0)  -->
<!DOCTYPE svg PUBLIC "-//W3C//DTD SVG 1.1//EN" "http://www.w3.org/Graphics/SVG/1.1/DTD/svg11.dtd">
<svg version="1.1" xmlns="http://www.w3.org/2000/svg" xmlns:xlink="http://www.w3.org/1999/xlink" x="0px" y="0px"
	 viewBox="0 0 512 512" enable-background="new 0 0 512 512" xml:space="preserve">
<g id="Layer_2">
	<path fill="#BFBCAF" d="M508.985,340.349c0,91.045-113.521,164.852-253.556,164.852S1.874,431.395,1.874,340.349
		s113.521-164.852,253.556-164.852S508.985,249.304,508.985,340.349z"/>
</g>
<g id="Layer_3">
	<path fill="#E3E8E7" d="M508.985,317.404c0,91.045-113.521,164.852-253.556,164.852S1.874,408.45,1.874,317.404
		s113.521-164.852,253.556-164.852S508.985,226.359,508.985,317.404z"/>
</g>
<g id="Layer_4">
	<path fill="#FF6E83" d="M461.982,181.202v141.751h-0.395c-6.505,69.956-95.81,125.385-205.043,125.385
		S58.006,392.908,51.501,322.952h-0.395V181.202H461.982z"/>
</g>
<g id="Layer_5">
	<path fill="#FFA9BA" d="M461.867,181.202c0,72.104,0.115,141.751-31.488,141.751c-31.603,0-19.797-20.364-48.481-13.664
		c-28.685,6.701-21.701,70.13-62.199,70.13c-40.136,0-26.373-38.367-63.269-39.053c-36.765,0.686-15.713,39.053-55.849,39.053
		c-40.498,0-40.937-63.429-69.622-70.13c-28.685-6.701-16.879,13.664-48.481,13.664c-31.603,0-31.488-69.647-31.488-141.751
		c0-51.405,130.507-2.535,205.438,29.76C331.36,178.667,461.867,129.797,461.867,181.202z"/>
</g>
<g id="Layer_6">
	<path fill="#FFBDCD" d="M461.867,181.202c0,73.768-91.978,133.568-205.438,133.568s-205.438-59.8-205.438-133.568
		S142.969,47.634,256.429,47.634S461.867,107.434,461.867,181.202z"/>
</g>
<g id="Layer_7">
	<path fill="#EBF2F2" d="M255.067,137.466c-2.477,0-4.485-2.008-4.485-4.485V83.646c0-2.477,2.008-4.485,4.485-4.485
		s4.485,2.008,4.485,4.485v49.335C259.552,135.458,257.544,137.466,255.067,137.466z M138.715,88.591V58.298
		c0-2.477-2.008-4.485-4.485-4.485s-4.485,2.008-4.485,4.485v30.293c0,2.477,2.008,4.485,4.485,4.485S138.715,91.068,138.715,88.591
		z M378.927,88.591V58.298c0-2.477-2.009-4.485-4.485-4.485s-4.485,2.008-4.485,4.485v30.293c0,2.477,2.009,4.485,4.485,4.485
		S378.927,91.068,378.927,88.591z"/>
</g>
<g id="Layer_8">
	<path fill="#D6E5E5" d="M255.067,237.202c-6.903,0-12.5-5.596-12.5-12.5V126.57c0-6.904,5.597-12.5,12.5-12.5
		c6.904,0,12.5,5.596,12.5,12.5v98.132C267.566,231.606,261.971,237.202,255.067,237.202z M146.033,180.312V89.49
		c0-6.903-5.597-12.5-12.5-12.5s-12.5,5.597-12.5,12.5v90.821c0,6.903,5.597,12.5,12.5,12.5S146.033,187.215,146.033,180.312z
		 M386.941,180.312V89.49c0-6.903-5.597-12.5-12.5-12.5s-12.5,5.597-12.5,12.5v90.821c0,6.903,5.597,12.5,12.5,12.5
		S386.941,187.215,386.941,180.312z"/>
</g>
<g id="Layer_9">
	<path fill="#FFBD03" d="M115.415,51.328c0,0-0.091-0.742-0.063-2.027c0.006-0.16,0.012-0.329,0.019-0.507
		c0.048-0.417,0.107-0.912,0.185-1.396c0.157-0.981,0.342-2.047,0.615-3.165c0.131-0.543,0.284-1.169,0.438-1.682
		c0.144-0.422,0.31-0.852,0.476-1.293c0.33-0.883,0.708-1.8,1.13-2.739c0.418-0.84,0.895-1.662,1.393-2.521
		c0.248-0.413,0.506-0.894,0.771-1.258c0.262-0.362,0.528-0.729,0.797-1.101c0.269-0.371,0.544-0.745,0.836-1.113l0.434-0.55
		l0.412-0.467c0.544-0.632,1.146-1.243,1.734-1.873c0.536-0.531,1.125-1.039,1.701-1.565l0.436-0.393
		c0.133-0.116,0.269-0.222,0.408-0.331l0.834-0.656l0.845-0.662l0.798-0.57l1.588-1.132c1.003-0.694,2.005-1.388,2.992-2.07
		c1.024-0.692,1.845-1.369,2.829-2.086c0.438-0.375,0.869-0.744,1.291-1.105c0.437-0.372,0.919-0.736,1.28-1.137
		c0.407-0.403,0.802-0.796,1.185-1.175c0.386-0.393,0.813-0.773,1.123-1.18c0.717-0.835,1.375-1.601,1.958-2.279
		c0.562-0.755,1.053-1.413,1.457-1.955c0.841-1.125,1.386-1.819,1.386-1.819l0.257-0.327c1.254-1.599,3.567-1.878,5.167-0.624
		c0.344,0.27,0.634,0.601,0.853,0.951c0,0,0.48,0.771,1.207,2.211c0.333,0.72,0.814,1.612,1.216,2.667
		c0.347,1.057,0.762,2.286,1.142,3.669c0.393,1.382,0.561,2.909,0.805,4.584c0.202,1.667,0.184,3.428,0.181,5.314
		c-0.049,0.915-0.145,1.842-0.234,2.801c-0.049,0.477-0.091,0.967-0.154,1.448c-0.081,0.465-0.162,0.932-0.244,1.401
		c-0.175,0.93-0.33,1.932-0.557,2.846c-0.229,0.911-0.46,1.825-0.69,2.739c-0.247,0.93-0.501,1.715-0.756,2.583l-0.385,1.269
		l-0.368,1.142c-0.241,0.734-0.48,1.462-0.716,2.181c-0.214,0.648-0.405,1.301-0.636,1.911c-0.152,0.528-0.278,1.056-0.447,1.54
		l-0.119,0.364c-0.027,0.108-0.035,0.197-0.054,0.295c-0.029,0.193-0.071,0.374-0.115,0.55c-0.043,0.175-0.086,0.347-0.129,0.517
		c-0.036,0.168-0.009,0.247-0.024,0.365c-0.007,0.214-0.034,0.422-0.071,0.582c0.054,0.098,0.08,0.175,0.075,0.237
		c-0.001,0.031,0.001,0.062-0.013,0.088c0.028-0.055,0.1-0.226,0.131-0.334c0.083-0.245,0.09-0.493,0.083-0.718
		c-0.002-0.106-0.026-0.239-0.048-0.309c-0.019,0.176-0.037,0.344-0.054,0.504c-0.158,1.275-0.355,1.996-0.355,1.996
		c-2.689,9.863-12.866,15.679-22.729,12.99c-7.469-2.037-12.617-8.366-13.508-15.601L115.415,51.328z M355.624,51.354
		c0.892,7.236,6.04,13.565,13.508,15.601c9.863,2.689,20.04-3.126,22.729-12.99c0,0,0.197-0.721,0.355-1.996
		c0.017-0.16,0.035-0.328,0.054-0.504c0.022,0.07,0.046,0.203,0.048,0.309c0.007,0.225,0,0.474-0.083,0.718
		c-0.031,0.108-0.104,0.278-0.131,0.334c0.014-0.025,0.012-0.056,0.013-0.088c0.005-0.062-0.021-0.138-0.075-0.237
		c0.037-0.16,0.065-0.369,0.071-0.582c0.016-0.118-0.012-0.197,0.024-0.365c0.042-0.17,0.085-0.342,0.129-0.517
		c0.044-0.176,0.086-0.357,0.115-0.55c0.019-0.098,0.027-0.187,0.054-0.295l0.119-0.364c0.169-0.484,0.295-1.012,0.447-1.54
		c0.231-0.61,0.423-1.262,0.636-1.911c0.236-0.719,0.475-1.447,0.716-2.181l0.368-1.142l0.385-1.269
		c0.256-0.868,0.51-1.654,0.757-2.583c0.23-0.914,0.46-1.829,0.69-2.739c0.227-0.914,0.382-1.916,0.557-2.846
		c0.082-0.469,0.163-0.936,0.244-1.401c0.062-0.481,0.105-0.972,0.154-1.448c0.088-0.959,0.185-1.887,0.234-2.801
		c0.003-1.885,0.021-3.646-0.181-5.314c-0.244-1.674-0.412-3.201-0.805-4.584c-0.379-1.383-0.795-2.613-1.142-3.669
		c-0.402-1.055-0.883-1.947-1.216-2.667c-0.727-1.44-1.207-2.211-1.207-2.211c-0.22-0.35-0.509-0.682-0.853-0.951
		c-1.599-1.254-3.912-0.975-5.167,0.624l-0.257,0.327c0,0-0.545,0.694-1.386,1.819c-0.404,0.542-0.894,1.2-1.457,1.955
		c-0.583,0.679-1.241,1.444-1.958,2.279c-0.31,0.407-0.737,0.788-1.123,1.18c-0.383,0.379-0.778,0.772-1.185,1.175
		c-0.361,0.401-0.843,0.766-1.28,1.137c-0.422,0.361-0.853,0.73-1.291,1.105c-0.984,0.717-1.805,1.394-2.829,2.086
		c-0.987,0.683-1.989,1.377-2.992,2.07l-1.588,1.132l-0.798,0.57l-0.846,0.662l-0.834,0.656c-0.139,0.109-0.276,0.215-0.408,0.331
		l-0.436,0.393c-0.576,0.526-1.165,1.033-1.701,1.565c-0.589,0.63-1.191,1.242-1.734,1.873l-0.412,0.467l-0.434,0.55
		c-0.292,0.368-0.567,0.742-0.836,1.113c-0.269,0.372-0.535,0.739-0.797,1.101c-0.266,0.365-0.523,0.845-0.771,1.258
		c-0.499,0.859-0.975,1.681-1.393,2.521c-0.421,0.939-0.8,1.856-1.13,2.739c-0.166,0.441-0.332,0.871-0.476,1.293
		c-0.154,0.512-0.306,1.138-0.438,1.682c-0.273,1.118-0.458,2.184-0.615,3.165c-0.079,0.484-0.138,0.979-0.185,1.396
		c-0.007,0.177-0.013,0.346-0.019,0.507c-0.027,1.285,0.063,2.027,0.063,2.027L355.624,51.354z"/>
</g>
<g id="Layer_10">
	<path fill="#FFD366" d="M235.511,85.091c0,0-0.075-0.919-0.037-2.516l0.006-0.152l0.033-0.307c0.026-0.217,0.052-0.439,0.079-0.667
		c0.058-0.455,0.117-0.933,0.198-1.428c0.16-0.991,0.341-2.065,0.597-3.193c0.067-0.325,0.115-0.436,0.175-0.664
		c0.058-0.201,0.117-0.405,0.176-0.613c0.128-0.412,0.259-0.836,0.394-1.27c0.271-0.85,0.571-1.833,0.921-2.609
		c0.333-0.829,0.712-1.681,1.105-2.559c0.383-0.89,0.822-1.619,1.259-2.466c0.892-1.712,1.849-3.168,2.893-4.78
		c1.011-1.461,2.122-3.026,3.227-4.406c0.541-0.707,1.14-1.447,1.696-2.119c0.562-0.685,1.126-1.372,1.69-2.059
		c1.116-1.33,2.232-2.66,3.33-3.969c0.53-0.646,1.065-1.29,1.618-1.926c0.517-0.635,1.027-1.262,1.529-1.879
		c1.058-1.247,1.95-2.449,2.884-3.629c0.484-0.59,0.898-1.164,1.299-1.732c0.421-0.575,0.827-1.13,1.217-1.663
		c0.794-1.081,1.432-2.1,2.058-3.037c0.648-0.935,1.134-1.773,1.545-2.482c0.851-1.418,1.403-2.286,1.403-2.286l0.204-0.321
		c1.034-1.627,3.191-2.108,4.818-1.074c0.554,0.352,0.981,0.848,1.255,1.395c0,0,0.473,0.955,1.188,2.727
		c0.328,0.884,0.815,1.99,1.119,3.256c0.167,0.643,0.345,1.328,0.532,2.05c0.173,0.727,0.413,1.518,0.514,2.31
		c0.247,1.589,0.567,3.4,0.688,5.248c0.122,1.848,0.251,3.867,0.192,5.856c-0.007,1.006-0.038,2.049-0.087,3.074
		c-0.055,1.016-0.135,2.044-0.226,3.083c-0.158,2.086-0.452,4.102-0.719,6.139c-0.318,1.972-0.611,3.984-0.965,5.805
		c-0.353,1.902-0.677,3.568-1.054,5.234c-0.291,1.538-0.695,3.097-0.925,4.314c-0.128,0.615-0.301,1.285-0.397,1.791
		c-0.093,0.516-0.183,1.01-0.3,1.473c-0.137,0.505-0.131,0.803-0.209,1.15c-0.031,0.166-0.056,0.33-0.095,0.484l-0.058,0.228
		c-0.01,0.05-0.061,0.206-0.034,0.157c0.052-0.035,0.042-0.086,0.026-0.131c-0.007-0.023-0.032-0.047-0.055-0.068l-0.039-0.032
		c-0.007,0.001-0.015-0.025-0.021,0l-0.015,0.151c-0.181,1.588-0.381,2.489-0.381,2.489l-0.024,0.109
		c-2.193,9.901-11.998,16.149-21.899,13.956C241.788,99.748,236.154,92.903,235.511,85.091z"/>
</g>
</svg>
