<?xml version="1.0" encoding="iso-8859-1"?>
<!-- Generator: Adobe Illustrator 18.1.1, SVG Export Plug-In . SVG Version: 6.00 Build 0)  -->
<!DOCTYPE svg PUBLIC "-//W3C//DTD SVG 1.1//EN" "http://www.w3.org/Graphics/SVG/1.1/DTD/svg11.dtd">
<svg version="1.1" xmlns="http://www.w3.org/2000/svg" xmlns:xlink="http://www.w3.org/1999/xlink" x="0px" y="0px"
	 viewBox="0 0 512 512" enable-background="new 0 0 512 512" xml:space="preserve">
<g id="Layer_2">
	<path fill="#E2A042" d="M368.856,279.641c-10.65-15.461-32.579,5.913-56.04-17.549c-13.55-13.55,14.116-74.896-3.927-92.939
		s-76.983-33.68-110.664,0c-33.68,33.68-13.702,65.591-71.141,62.887c-0.054-0.003-0.105-0.002-0.158-0.004
		c-34.296-2.099-67.387,8.601-91.516,32.729c-49.44,49.44-42.529,136.51,15.437,194.475
		c57.966,57.966,145.035,64.877,194.475,15.437c24.037-24.037,34.75-56.969,32.755-91.127c3.145-42.388,15.935-43.534,42.762-42.762
		C362.185,341.979,379.506,295.102,368.856,279.641z"/>
</g>
<g id="Layer_1">
</g>
</svg>
