<?xml version="1.0" encoding="iso-8859-1"?>
<!-- Generator: Adobe Illustrator 19.1.0, SVG Export Plug-In . SVG Version: 6.00 Build 0)  -->
<!DOCTYPE svg PUBLIC "-//W3C//DTD SVG 1.1//EN" "http://www.w3.org/Graphics/SVG/1.1/DTD/svg11.dtd">
<svg version="1.1" xmlns="http://www.w3.org/2000/svg" xmlns:xlink="http://www.w3.org/1999/xlink" x="0px" y="0px"
	 viewBox="0 0 512 512" enable-background="new 0 0 512 512" xml:space="preserve">
<g id="Layer_5">
	<path fill="#59CAFC" d="M190.167,443.234c-25.243,4.419-93.588-38.572-105.102-104.347c-8.22-46.96,3.898-90.937,28.437-115.219
		c1.73-1.711,4.668-0.663,4.878,1.761c0.229,2.63,0.534,5.828,0.894,8.882c0.458,3.878,5.698,4.747,7.392,1.229
		c3.235-6.719,7.295-15.445,9.37-21.063c1.694-4.587,5.596-8.033,10.381-9.039c0.681-0.143,1.365-0.275,2.054-0.395
		c46.532-8.145,93.588,38.572,105.102,104.347S215.411,438.815,190.167,443.234z"/>
</g>
<g id="Layer_1">
</g>
</svg>
