<?xml version="1.0" encoding="iso-8859-1"?>
<!-- Generator: Adobe Illustrator 18.1.1, SVG Export Plug-In . SVG Version: 6.00 Build 0)  -->
<!DOCTYPE svg PUBLIC "-//W3C//DTD SVG 1.1//EN" "http://www.w3.org/Graphics/SVG/1.1/DTD/svg11.dtd">
<svg version="1.1" xmlns="http://www.w3.org/2000/svg" xmlns:xlink="http://www.w3.org/1999/xlink" x="0px" y="0px"
	 viewBox="0 0 512 512" enable-background="new 0 0 512 512" xml:space="preserve">
<g id="Layer_2">
	<circle fill="#FFA13B" cx="249.353" cy="271.695" r="233.768"/>
</g>
<g id="Layer_3">
	<path fill="#75432E" d="M190.589,145.251c-6.489,0-12.735-3.588-15.827-9.791c-3.909-7.842-7.175-15.017-10.057-21.347
		c-12.315-27.05-17.936-39.396-48.456-53.328c-8.876-4.052-12.788-14.533-8.735-23.41c4.052-8.876,14.531-12.789,23.41-8.735
		c42.533,19.417,52.352,40.982,65.941,70.832c2.896,6.361,5.891,12.938,9.522,20.225c4.353,8.733,0.802,19.342-7.931,23.695
		C195.926,144.653,193.237,145.251,190.589,145.251z"/>
</g>
<g id="Layer_4">
	<path fill="#16992B" d="M180.012,98.513c0,0,0.044-0.262,0.13-0.771c0.086-0.507,0.203-1.278,0.41-2.197
		c0.374-1.899,1.034-4.507,1.974-7.665c1.878-6.32,5.105-14.476,9.88-22.816c2.385-4.173,5.155-8.397,8.302-12.515
		c3.132-4.143,6.664-8.143,10.524-11.951c3.864-3.801,8.075-7.38,12.564-10.679c4.48-3.313,9.284-6.274,14.205-9.047
		c9.848-5.536,20.321-10.069,30.782-13.29c5.221-1.625,10.453-2.899,15.535-3.915c5.089-1.004,10.057-1.702,14.774-2.135
		c9.434-0.867,17.87-0.67,24.079-0.043c1.526,0.114,2.945,0.307,4.174,0.467c1.216,0.137,2.306,0.345,3.169,0.48
		c1.746,0.3,2.724,0.536,2.724,0.536c3.136,0.756,5.078,3.891,4.382,7.027c0,0-0.219,0.982-0.717,2.682
		c-0.259,0.835-0.552,1.905-0.964,3.057c-0.398,1.174-0.849,2.534-1.418,3.954c-2.17,5.852-5.705,13.514-10.636,21.603
		c-2.465,4.046-5.278,8.199-8.419,12.327c-3.148,4.116-6.595,8.253-10.352,12.227c-7.496,7.975-16.175,15.385-25.481,21.792
		c-4.656,3.198-9.429,6.208-14.376,8.773c-4.938,2.579-10.004,4.785-15.118,6.582c-5.118,1.791-10.265,3.201-15.363,4.19
		c-5.083,1.013-10.095,1.641-14.892,1.946c-9.59,0.617-18.334-0.074-24.835-1.17c-3.25-0.546-5.882-1.101-7.752-1.601
		c-0.916-0.219-1.659-0.453-2.153-0.599c-0.494-0.147-0.749-0.223-0.749-0.223C181.333,104.63,179.492,101.583,180.012,98.513z"/>
</g>
<g id="Layer_5">
	<path fill="#FFC392" d="M79.704,264.558c-0.333,0-0.664-0.006-1-0.017c-15.822-0.543-28.209-13.809-27.667-29.631
		c0.998-29.106,11.862-58.177,30.593-81.856c9.821-12.417,27.849-14.521,40.266-4.699c12.417,9.822,14.521,27.85,4.699,40.266
		c-11.193,14.151-17.678,31.288-18.26,48.252C107.805,252.361,95.081,264.558,79.704,264.558z"/>
</g>
</svg>
