<?xml version="1.0" encoding="iso-8859-1"?>
<!-- Generator: Adobe Illustrator 19.1.0, SVG Export Plug-In . SVG Version: 6.00 Build 0)  -->
<!DOCTYPE svg PUBLIC "-//W3C//DTD SVG 1.1//EN" "http://www.w3.org/Graphics/SVG/1.1/DTD/svg11.dtd">
<svg version="1.1" xmlns="http://www.w3.org/2000/svg" xmlns:xlink="http://www.w3.org/1999/xlink" x="0px" y="0px"
	 viewBox="0 0 512 512" enable-background="new 0 0 512 512" xml:space="preserve">
<g id="Layer_3">
	<path fill="#00D1AE" d="M166.909,437.88c-22.563,0-37.723-14.553-37.723-36.214V361.66c37.08-3.627,66.057-34.886,66.057-72.919
		c0-40.469-32.807-73.276-73.276-73.276s-73.276,32.807-73.276,73.276c0,38.033,28.977,69.292,66.057,72.919v40.006
		c0,21.661-15.16,36.214-37.723,36.214c-3.987,0-7.219,3.232-7.219,7.22v50.181c0,3.987,3.232,7.22,7.219,7.22h89.884
		c3.987,0,7.219-3.232,7.219-7.22V445.1C174.128,441.112,170.896,437.88,166.909,437.88z"/>
</g>
<g id="Layer_1">
</g>
</svg>
