<?xml version="1.0" encoding="iso-8859-1"?>
<!-- Generator: Adobe Illustrator 18.1.1, SVG Export Plug-In . SVG Version: 6.00 Build 0)  -->
<!DOCTYPE svg PUBLIC "-//W3C//DTD SVG 1.1//EN" "http://www.w3.org/Graphics/SVG/1.1/DTD/svg11.dtd">
<svg version="1.1" xmlns="http://www.w3.org/2000/svg" xmlns:xlink="http://www.w3.org/1999/xlink" x="0px" y="0px"
	 viewBox="0 0 512 512" enable-background="new 0 0 512 512" xml:space="preserve">
<g id="Layer_2">
	<path fill="#96A9B2" d="M465.624,390.73c2.375-4.033-140.634-133.403-140.634-133.403c-17.984-15.829-29.211-16.078-53.943,0
		c0,0-199.388,129.266-198.819,133.244l-0.041,0.029c0.01,0.035,0.034,0.058,0.05,0.09c0.589,3.992,1.91,7.668,3.859,10.884
		c0.832,1.373,1.944,2.523,2.995,3.719l-0.075,0.049c0.084,0.093,0.214,0.136,0.298,0.229c4.476,4.962,10.787,8.176,18.379,9.093
		c0.119,0.015,0.203,0.078,0.322,0.093h0.47c1.16,0.113,2.224,0.398,3.438,0.398h323.456c15.927,0,31.615-10.016,40.049-24.057
		c0.087-0.105,0.202-0.18,0.284-0.287L465.624,390.73z"/>
</g>
<g id="Layer_3">
	<path fill="#B9C5C6" d="M301.505,242.48L73.339,389.467l45.592-208.232c4.444-20.296,24.496-36.747,44.792-36.747h318.472
		c20.296,0,33.145,16.45,28.701,36.747l-45.592,208.232L301.505,242.48z"/>
</g>
<g id="Layer_4">
	<path fill="#EDECE6" d="M124.015,168.458l138.552,131.427c17.707,15.585,28.761,15.831,53.112,0l195.795-131.219
		c-1.748-5.254-5.179-9.405-9.416-12.715l2.693-1.801c-4.491-5.105-10.935-8.416-18.706-9.27l-326.329,0.011
		c-8.12,0.843-16.028,4.165-22.74,9.259l1.892,1.778C133.247,159.194,128.055,163.273,124.015,168.458z"/>
</g>
<g id="Layer_5">
	<path fill="#DCE2E2" d="M123.9,168.734c-2.339,3.971,138.467,131.347,138.467,131.347c17.707,15.585,28.761,15.831,53.112,0
		c0,0,196.315-127.274,195.755-131.19l0.041-0.029c-0.01-0.034-0.033-0.057-0.049-0.089c-0.58-3.931-1.88-7.549-3.799-10.717
		c-0.819-1.352-1.914-2.484-2.949-3.662l0.074-0.049c-0.083-0.091-0.211-0.134-0.294-0.226c-4.407-4.885-10.621-8.05-18.095-8.953
		c-0.117-0.014-0.2-0.077-0.317-0.091h-0.463c-1.142-0.111-2.19-0.392-3.385-0.392H163.525c-15.682,0-31.128,9.862-39.431,23.686
		c-0.085,0.103-0.199,0.177-0.279,0.283L123.9,168.734z"/>
</g>
<g id="Layer_6">
	<path fill="#59CAFC" d="M94.447,208.62H14.44c-6.627,0-12-5.373-12-12s5.373-12,12-12h80.007c6.627,0,12,5.373,12,12
		S101.075,208.62,94.447,208.62z M81.339,278.856c0-6.627-5.373-12-12-12H14.44c-6.627,0-12,5.373-12,12s5.373,12,12,12h54.899
		C75.967,290.856,81.339,285.483,81.339,278.856z M63.124,361.093c0-6.627-5.373-12-12-12H14.44c-6.627,0-12,5.373-12,12
		s5.373,12,12,12h36.684C57.751,373.093,63.124,367.72,63.124,361.093z"/>
</g>
</svg>
