<?xml version="1.0" encoding="iso-8859-1"?>
<!-- Generator: Adobe Illustrator 19.1.0, SVG Export Plug-In . SVG Version: 6.00 Build 0)  -->
<!DOCTYPE svg PUBLIC "-//W3C//DTD SVG 1.1//EN" "http://www.w3.org/Graphics/SVG/1.1/DTD/svg11.dtd">
<svg version="1.1" xmlns="http://www.w3.org/2000/svg" xmlns:xlink="http://www.w3.org/1999/xlink" x="0px" y="0px"
	 viewBox="0 0 512 512" enable-background="new 0 0 512 512" xml:space="preserve">
<g id="Layer_11">
	<path fill="#00B89C" d="M255.712,197.157l-10.928,25.594c-0.928,2.172,0.666,4.586,3.028,4.586h1.504
		c1.655,0,3.052-1.228,3.266-2.869l1.059-8.157c0.213-1.641,1.611-2.869,3.266-2.869h7.618c1.819,0,3.293,1.474,3.293,3.293v7.309
		c0,1.819,1.474,3.293,3.293,3.293l0,0c1.819,0,3.293,1.474,3.293,3.293v5.324c0,1.819-1.474,3.293-3.293,3.293l0,0
		c-1.819,0-3.293,1.474-3.293,3.293v6.045c0,1.819-1.474,3.293-3.293,3.293h-9.128c-1.806,0-3.278-1.455-3.293-3.261
		c-0.017-2.04-0.044-4.07-0.061-6.11c-0.015-1.806-1.487-3.261-3.293-3.261h-19.143c-1.819,0-3.293-1.474-3.293-3.293v-6.586
		c0-0.447,0.091-0.889,0.267-1.3l15.559-36.223c0.688-1.602,2.506-2.39,4.146-1.797l7.517,2.72
		C255.583,193.411,256.455,195.417,255.712,197.157z"/>
</g>
<g id="Layer_1">
</g>
</svg>
