<?xml version="1.0" encoding="iso-8859-1"?>
<!-- Generator: Adobe Illustrator 19.2.1, SVG Export Plug-In . SVG Version: 6.00 Build 0)  -->
<!DOCTYPE svg PUBLIC "-//W3C//DTD SVG 1.1//EN" "http://www.w3.org/Graphics/SVG/1.1/DTD/svg11.dtd">
<svg version="1.1" xmlns="http://www.w3.org/2000/svg" xmlns:xlink="http://www.w3.org/1999/xlink" x="0px" y="0px"
	 viewBox="0 0 512 512" enable-background="new 0 0 512 512" xml:space="preserve">
<g id="Layer_2">
	<path fill="#1C4C5A" d="M369.828,192.792H141.401c-9.226,0-16.732-7.506-16.732-16.732V81.623c0-9.226,7.506-16.732,16.732-16.732
		h228.427c9.226,0,16.731,7.506,16.731,16.732v94.438C386.56,185.286,379.054,192.792,369.828,192.792z M146.044,171.417h219.14
		V86.266h-219.14V171.417z"/>
</g>
<g id="Layer_3">
	<path fill="#8F9799" d="M501.547,122.697v326.354h-0.052c-0.271,3.879-3.47,6.952-7.418,6.952H17.925
		c-3.948,0-7.147-3.072-7.418-6.952h-0.052V122.697c0-4.126,3.345-7.471,7.471-7.471h476.152
		C498.203,115.226,501.547,118.571,501.547,122.697z"/>
</g>
<g id="Layer_4">
	<path fill="#2B3B47" d="M182.707,339.749c0,41.973-34.026,75.999-75.999,75.999s-75.999-34.026-75.999-75.999
		s34.026-75.999,75.999-75.999S182.707,297.775,182.707,339.749z M405.294,263.749c-41.973,0-75.999,34.026-75.999,75.999
		s34.026,75.999,75.999,75.999s75.999-34.026,75.999-75.999S447.267,263.749,405.294,263.749z"/>
</g>
<g id="Layer_5">
	<path fill="#ADB8BC" d="M129.536,339.749c0,12.608-10.22,22.828-22.828,22.828s-22.828-10.22-22.828-22.828
		c0-12.608,10.22-22.828,22.828-22.828S129.536,327.141,129.536,339.749z M405.294,316.921c-12.608,0-22.828,10.22-22.828,22.828
		c0,12.608,10.22,22.828,22.828,22.828c12.608,0,22.828-10.22,22.828-22.828C428.122,327.141,417.901,316.921,405.294,316.921z"/>
</g>
<g id="Layer_6">
	<path fill="#FF473E" d="M109.314,168.091c0,14.929-12.102,27.032-27.032,27.032s-27.032-12.102-27.032-27.032
		c0-14.929,12.102-27.032,27.032-27.032S109.314,153.162,109.314,168.091z"/>
</g>
<g id="Layer_7">
	<path fill="#2B3B47" d="M501.546,225.789H10.453v-13.834h491.094V225.789z"/>
</g>
<g id="Layer_8">
	<path fill="#1C4C5A" d="M308.296,283.448H203.708v-18.15h104.588V283.448z"/>
</g>
<g id="Layer_9">
	<path fill="#F9F7F4" d="M299.948,384.501h-87.894c-4.61,0-8.348-3.737-8.348-8.348v-92.705h104.59v92.705
		C308.296,380.763,304.558,384.501,299.948,384.501z"/>
</g>
<g id="Layer_10">
	<path fill="#8F9799" d="M286.427,325.251v24.214c0,3.343-2.71,6.054-6.054,6.054h-24.635H231.21v-0.043
		c-3.143-0.22-5.633-2.811-5.633-6.011v-24.214c0-3.2,2.49-5.791,5.633-6.011v-0.043h24.635h24.528
		C283.717,319.197,286.427,321.908,286.427,325.251z"/>
</g>
<g id="Layer_11">
	<path fill="#2B3B47" d="M161.871,168.091c0,8.721-7.07,15.791-15.791,15.791c-8.721,0-15.791-7.07-15.791-15.791
		s7.07-15.791,15.791-15.791C154.801,152.299,161.871,159.37,161.871,168.091z"/>
</g>
<g id="Layer_12">
	<path fill="#D5DEE4" d="M461.123,178.252H223.822c-5.578,0-10.1-4.522-10.1-10.1c0-5.578,4.522-10.1,10.1-10.1h237.302
		c5.578,0,10.099,4.522,10.099,10.1C471.223,173.73,466.702,178.252,461.123,178.252z"/>
</g>
<g id="Layer_13">
	<path fill="#1C4C5A" d="M471,166v5H214v-5h13v-8h5v8h24v-8h5v8h23v-8h5v8h24v-8h5v8h23v-8h5v8h24v-8h5v8h52v-8h5v8H471z"/>
</g>
<g id="Layer_14">
	<path fill="#FF5850" d="M408.41,178.591h-11.436v-21h11.436V178.591z"/>
</g>
</svg>
