<?xml version="1.0" encoding="iso-8859-1"?>
<!-- Generator: Adobe Illustrator 19.2.0, SVG Export Plug-In . SVG Version: 6.00 Build 0)  -->
<!DOCTYPE svg PUBLIC "-//W3C//DTD SVG 1.1//EN" "http://www.w3.org/Graphics/SVG/1.1/DTD/svg11.dtd">
<svg version="1.1" xmlns="http://www.w3.org/2000/svg" xmlns:xlink="http://www.w3.org/1999/xlink" x="0px" y="0px"
	 viewBox="0 0 512 512" enable-background="new 0 0 512 512" xml:space="preserve">
<g id="Layer_2">
	<path fill="#8F9799" d="M490.757,147.873c0,1.022-0.828,1.85-1.85,1.85h-50.512h-30.997c-1.022,0-1.85-0.828-1.85-1.85V89.915
		c0-1.022,0.828-1.85,1.85-1.85h81.509c1.022,0,1.85,0.828,1.85,1.85V147.873z"/>
</g>
<g id="Layer_3">
	<path fill="#ADB8BC" d="M490.88,449.869H84.718c-10.851,0-19.647-8.796-19.647-19.647V143.442c0-10.851,8.796-19.647,19.647-19.647
		H490.88c10.851,0,19.647,8.796,19.647,19.647v286.779C510.527,441.073,501.731,449.869,490.88,449.869z"/>
</g>
<g id="Layer_4">
	<path fill="#FFFBDE" d="M488.189,191.926c0,0.617-0.657,1.117-1.468,1.117h-64.666c-0.811,0-1.468-0.5-1.468-1.117v-35.005
		c0-0.617,0.657-1.117,1.468-1.117h64.666c0.811,0,1.468,0.5,1.468,1.117V191.926z"/>
</g>
<g id="Layer_5">
	<path fill="#1C4C5A" d="M488.189,213.754c0,0.465-0.657,0.842-1.468,0.842h-64.666c-0.811,0-1.468-0.377-1.468-0.842v-26.386
		c0-0.465,0.657-0.842,1.468-0.842h64.666c0.811,0,1.468,0.377,1.468,0.842V213.754z"/>
</g>
<g id="Layer_6">
	<circle fill="#FF473E" cx="111.811" cy="310.172" r="23.34"/>
</g>
<g id="Layer_7">
	<circle fill="#1C4C5A" cx="287.799" cy="281.323" r="125.518"/>
</g>
<g id="Layer_8">
	<path fill="#F4F3EF" d="M287.799,202.474c-43.546,0-78.848,35.31-78.848,78.848c0,43.546,35.303,78.848,78.848,78.848
		s78.848-35.303,78.848-78.848C366.648,237.784,331.352,202.474,287.799,202.474z"/>
</g>
<g id="Layer_9">
	<path fill="#00BEEA" d="M287.799,222.072c-32.147,0-58.208,26.061-58.208,58.208s26.061,58.208,58.208,58.208
		s58.208-26.06,58.208-58.208S319.947,222.072,287.799,222.072z M309.303,274.154c-7.913,0-14.336-6.415-14.336-14.336
		s6.423-14.336,14.336-14.336c7.914,0,14.336,6.423,14.336,14.336C323.639,267.739,317.217,274.154,309.303,274.154z"/>
</g>
<g id="Layer_10">
	<path fill="#FFD469" d="M94.821,100.963l35.44-45.081c0.989-1.258,3.006-0.422,2.816,1.166l-6.817,56.937
		c-0.122,1.018,0.742,1.882,1.76,1.76l56.937-6.817c1.589-0.19,2.424,1.827,1.167,2.816l-45.081,35.44
		c-0.806,0.634-0.806,1.855,0,2.489l45.081,35.44c1.258,0.989,0.422,3.006-1.167,2.816l-56.937-6.817
		c-1.018-0.122-1.882,0.742-1.76,1.76l6.817,56.937c0.19,1.589-1.827,2.424-2.816,1.166l-35.44-45.081
		c-0.634-0.806-1.855-0.806-2.489,0l-35.44,45.081c-0.989,1.258-3.006,0.422-2.816-1.166l6.817-56.937
		c0.122-1.018-0.742-1.882-1.76-1.76l-56.937,6.817c-1.589,0.19-2.424-1.827-1.166-2.816l45.081-35.44
		c0.806-0.634,0.806-1.855,0-2.489l-45.081-35.44c-1.258-0.989-0.422-3.006,1.166-2.816l56.937,6.817
		c1.018,0.122,1.882-0.742,1.76-1.76l-6.817-56.937c-0.19-1.589,1.827-2.424,2.816-1.166l35.44,45.081
		C92.966,101.769,94.188,101.769,94.821,100.963z"/>
</g>
</svg>
