<?xml version="1.0" encoding="iso-8859-1"?>
<!-- Generator: Adobe Illustrator 18.1.1, SVG Export Plug-In . SVG Version: 6.00 Build 0)  -->
<!DOCTYPE svg PUBLIC "-//W3C//DTD SVG 1.1//EN" "http://www.w3.org/Graphics/SVG/1.1/DTD/svg11.dtd">
<svg version="1.1" xmlns="http://www.w3.org/2000/svg" xmlns:xlink="http://www.w3.org/1999/xlink" x="0px" y="0px"
	 viewBox="0 0 512 512" enable-background="new 0 0 512 512" xml:space="preserve">
<g id="Layer_6">
	<path fill="#819096" d="M466.655,360.316h-54.604c-2.774,0-5.022-2.248-5.022-5.022c0-2.774,2.249-5.022,5.022-5.022h54.604
		c2.774,0,5.022,2.249,5.022,5.022C471.678,358.067,469.429,360.316,466.655,360.316z M471.678,379.455
		c0-2.774-2.248-5.022-5.022-5.022h-54.604c-2.774,0-5.022,2.248-5.022,5.022c0,2.774,2.249,5.022,5.022,5.022h54.604
		C469.429,384.477,471.678,382.229,471.678,379.455z M471.678,403.616c0-2.774-2.248-5.022-5.022-5.022h-54.604
		c-2.774,0-5.022,2.249-5.022,5.022c0,2.774,2.249,5.022,5.022,5.022h54.604C469.429,408.638,471.678,406.39,471.678,403.616z
		 M471.678,427.777c0-2.774-2.248-5.022-5.022-5.022h-54.604c-2.774,0-5.022,2.248-5.022,5.022c0,2.774,2.249,5.022,5.022,5.022
		h54.604C469.429,432.8,471.678,430.551,471.678,427.777z M471.678,451.94c0-2.774-2.248-5.022-5.022-5.022h-54.604
		c-2.774,0-5.022,2.249-5.022,5.022c0,2.774,2.249,5.022,5.022,5.022h54.604C469.429,456.962,471.678,454.714,471.678,451.94z
		 M462.308,321.899c2.621-2.621,2.621-6.875,0-9.496l-36.532-36.532c-2.624-2.624-6.872-2.624-9.496,0
		c-2.621,2.621-2.621,6.875,0,9.496l36.532,36.532c1.312,1.312,3.03,1.965,4.748,1.965S460.996,323.211,462.308,321.899z"/>
</g>
<g id="Layer_1">
</g>
</svg>
