<?xml version="1.0" encoding="iso-8859-1"?>
<!-- Generator: Adobe Illustrator 18.1.1, SVG Export Plug-In . SVG Version: 6.00 Build 0)  -->
<!DOCTYPE svg PUBLIC "-//W3C//DTD SVG 1.1//EN" "http://www.w3.org/Graphics/SVG/1.1/DTD/svg11.dtd">
<svg version="1.1" xmlns="http://www.w3.org/2000/svg" xmlns:xlink="http://www.w3.org/1999/xlink" x="0px" y="0px"
	 viewBox="0 0 512 512" enable-background="new 0 0 512 512" xml:space="preserve">
<g id="Layer_2">
	<path fill="#8F9799" d="M345.744,12.715h-40.098c-3.976,0-7.2,3.224-7.2,7.2v6.956c0,3.976,3.224,7.2,7.2,7.2h40.098
		c3.976,0,7.2-3.224,7.2-7.2v-6.956C352.944,15.938,349.72,12.715,345.744,12.715z"/>
</g>
<g id="Layer_3">
	<path fill="#464A4C" d="M391.564,49.674V469.81c0,15.906-12.894,28.8-28.8,28.8H149.236c-15.906,0-28.8-12.894-28.8-28.8V49.674
		c0-15.906,12.894-28.8,28.8-28.8h213.528C378.67,20.874,391.564,33.768,391.564,49.674z"/>
</g>
<g id="Layer_4">
	<path fill="#CAD6D8" d="M371.645,67.215v349.969c0,7.953-6.447,14.4-14.4,14.4h-202.49c-7.953,0-14.4-6.447-14.4-14.4V67.215
		c0-7.953,6.447-14.4,14.4-14.4h202.49C365.198,52.815,371.645,59.262,371.645,67.215z"/>
</g>
<g id="Layer_5">
	<path fill="#F4F9F9" d="M140.355,340.662V65.235c0-6.86,5.827-12.42,13.016-12.42h157.322L140.355,340.662z"/>
</g>
<g id="Layer_6">
	<path fill="#8F9799" d="M235.283,478.024h41.434c7.158,0,12.96-5.802,12.96-12.96v-0.474c0-7.158-5.802-12.96-12.96-12.96h-41.434
		c-7.158,0-12.96,5.802-12.96,12.96v0.474C222.323,472.222,228.125,478.024,235.283,478.024z"/>
</g>
</svg>
