<?xml version="1.0" encoding="iso-8859-1"?>
<!-- Generator: Adobe Illustrator 18.1.1, SVG Export Plug-In . SVG Version: 6.00 Build 0)  -->
<!DOCTYPE svg PUBLIC "-//W3C//DTD SVG 1.1//EN" "http://www.w3.org/Graphics/SVG/1.1/DTD/svg11.dtd">
<svg version="1.1" xmlns="http://www.w3.org/2000/svg" xmlns:xlink="http://www.w3.org/1999/xlink" x="0px" y="0px"
	 viewBox="0 0 512 512" enable-background="new 0 0 512 512" xml:space="preserve">
<g id="Layer_2">
	<path fill="#BC7520" d="M485.732,57.585H361.479c-7.315,0-14.182,3.891-18.442,10.451L332.18,84.75
		c-4.261,6.56-11.127,10.451-18.442,10.451H101.364c-12.53,0-22.688,11.205-22.688,25.028v264.55
		c0,13.823,10.158,25.028,22.688,25.028H428.67c-0.636,2.845-0.982,5.799-0.982,8.835c0,22.293,18.072,40.366,40.366,40.366
		c21.259,0,38.667-16.438,40.238-37.294c0.076-0.506,0.128-1.021,0.128-1.548v-35.387V317.93V161.883V95.201V82.613
		C508.42,68.79,498.263,57.585,485.732,57.585z"/>
</g>
<g id="Layer_1">
</g>
</svg>
