<?xml version="1.0" encoding="iso-8859-1"?>
<!-- Generator: Adobe Illustrator 18.1.1, SVG Export Plug-In . SVG Version: 6.00 Build 0)  -->
<!DOCTYPE svg PUBLIC "-//W3C//DTD SVG 1.1//EN" "http://www.w3.org/Graphics/SVG/1.1/DTD/svg11.dtd">
<svg version="1.1" xmlns="http://www.w3.org/2000/svg" xmlns:xlink="http://www.w3.org/1999/xlink" x="0px" y="0px"
	 viewBox="0 0 512 512" enable-background="new 0 0 512 512" xml:space="preserve">
<g id="Layer_2">
	<path fill="#D19B61" d="M198.373,319.086v167.272c0,11.4,27.197,20.642,60.746,20.642c33.549,0,60.746-9.242,60.746-20.642V319.086
		H198.373z"/>
</g>
<g id="Layer_3">
	<path fill="#81929B" d="M500.242,181.857c0-61.435-49.803-111.238-111.238-111.238H124.036l111.238,313.834h49.692h104.038h104.038
		c3.977,0,7.2-3.224,7.2-7.2V189.057c0-0.497-0.05-0.982-0.146-1.451C500.192,185.702,500.242,183.785,500.242,181.857z"/>
</g>
<g id="Layer_4">
	<path fill="#BCC8CC" d="M124.036,70.619c-61.435,0-111.238,49.803-111.238,111.238v195.396c0,3.976,3.224,7.2,7.2,7.2h208.076
		c3.976,0,7.2-3.224,7.2-7.2V181.857C235.274,120.422,185.471,70.619,124.036,70.619z"/>
</g>
<g id="Layer_5">
	<path fill="#FF473E" d="M398.984,5.525h-58.093c-18.729,0-34.461,12.829-38.891,30.178c-1.417,3.025-2.213,6.398-2.213,9.959
		v162.843c0,12.984,10.525,23.509,23.509,23.509s23.509-10.525,23.509-23.509V85.8h52.179c22.167,0,40.138-17.97,40.138-40.137
		S421.151,5.525,398.984,5.525z"/>
</g>
</svg>
