<?xml version="1.0" encoding="iso-8859-1"?>
<!-- Generator: Adobe Illustrator 18.1.1, SVG Export Plug-In . SVG Version: 6.00 Build 0)  -->
<!DOCTYPE svg PUBLIC "-//W3C//DTD SVG 1.1//EN" "http://www.w3.org/Graphics/SVG/1.1/DTD/svg11.dtd">
<svg version="1.1" xmlns="http://www.w3.org/2000/svg" xmlns:xlink="http://www.w3.org/1999/xlink" x="0px" y="0px"
	 viewBox="0 0 512 512" enable-background="new 0 0 512 512" xml:space="preserve">
<g id="Layer_2">
	<path fill="#FF473E" d="M340.423,106.867h-32.487V14.4c0-7.953-6.447-14.4-14.4-14.4h-75.073c-7.953,0-14.4,6.447-14.4,14.4v92.467
		h-41.526c-18.147,0-26.828,22.299-13.458,34.569l93.739,86.023c7.917,7.266,20.172,6.935,27.686-0.747l84.146-86.023
		C366.977,128.088,358.05,106.867,340.423,106.867z"/>
</g>
<g id="Layer_3">
	<path fill="#8E6049" d="M447.654,512H64.346c-27.835,0-50.4-22.565-50.4-50.4V319.047c0-7.953,6.447-14.4,14.4-14.4h455.309
		c7.953,0,14.4,6.447,14.4,14.4V461.6C498.054,489.435,475.49,512,447.654,512z"/>
</g>
<g id="Layer_4">
	<path fill="#68442A" d="M13.946,446.317v25.875c0,21.985,17.823,39.808,39.808,39.808h404.493
		c21.985,0,39.808-17.823,39.808-39.808v-25.875H13.946z"/>
</g>
<g id="Layer_5">
	<path fill="#332A23" d="M350.483,304.647c0,52.182-42.302,94.483-94.483,94.483s-94.483-42.302-94.483-94.483H350.483z"/>
</g>
</svg>
