<?xml version="1.0" encoding="iso-8859-1"?>
<!-- Generator: Adobe Illustrator 19.1.0, SVG Export Plug-In . SVG Version: 6.00 Build 0)  -->
<!DOCTYPE svg PUBLIC "-//W3C//DTD SVG 1.1//EN" "http://www.w3.org/Graphics/SVG/1.1/DTD/svg11.dtd">
<svg version="1.1" xmlns="http://www.w3.org/2000/svg" xmlns:xlink="http://www.w3.org/1999/xlink" x="0px" y="0px"
	 viewBox="0 0 512 512" enable-background="new 0 0 512 512" xml:space="preserve">
<g id="Layer_3">
	<path fill="#96A9B2" d="M334.064,148.423H78.16c-7.456,0-13.5-6.044-13.5-13.5s6.044-13.5,13.5-13.5h255.904
		c7.456,0,13.5,6.044,13.5,13.5S341.521,148.423,334.064,148.423z M347.564,196.193c0-7.456-6.044-13.5-13.5-13.5H78.16
		c-7.456,0-13.5,6.044-13.5,13.5s6.044,13.5,13.5,13.5h255.904C341.521,209.693,347.564,203.649,347.564,196.193z M174.753,257.464
		c0-7.456-6.044-13.5-13.5-13.5H78.16c-7.456,0-13.5,6.044-13.5,13.5s6.044,13.5,13.5,13.5h83.093
		C168.709,270.964,174.753,264.92,174.753,257.464z M347.564,318.734c0-7.456-6.044-13.5-13.5-13.5H78.16
		c-7.456,0-13.5,6.044-13.5,13.5s6.044,13.5,13.5,13.5h255.904C341.521,332.234,347.564,326.19,347.564,318.734z M174.753,437.433
		c0-7.456-6.044-13.5-13.5-13.5H78.16c-7.456,0-13.5,6.044-13.5,13.5s6.044,13.5,13.5,13.5h83.093
		C168.709,450.933,174.753,444.889,174.753,437.433z"/>
</g>
<g id="Layer_1">
</g>
</svg>
