<?xml version="1.0" encoding="iso-8859-1"?>
<!-- Generator: Adobe Illustrator 18.1.1, SVG Export Plug-In . SVG Version: 6.00 Build 0)  -->
<!DOCTYPE svg PUBLIC "-//W3C//DTD SVG 1.1//EN" "http://www.w3.org/Graphics/SVG/1.1/DTD/svg11.dtd">
<svg version="1.1" xmlns="http://www.w3.org/2000/svg" xmlns:xlink="http://www.w3.org/1999/xlink" x="0px" y="0px"
	 viewBox="0 0 512 512" enable-background="new 0 0 512 512" xml:space="preserve">
<g id="Layer_2">
	<path fill="#96A9B2" d="M181.973,356.959c0,0-0.511,0.62-1.508,1.743c-0.98,1.14-2.471,2.758-4.361,4.826
		c-3.807,4.107-9.367,9.854-16.276,16.513c-3.457,3.327-7.235,6.898-11.301,10.605c-4.053,3.72-8.399,7.571-12.925,11.525
		c-4.549,3.931-9.25,7.993-14.026,12.12c-4.803,4.101-9.649,8.3-14.57,12.424c-4.905,4.14-9.811,8.28-14.64,12.355
		c-4.826,4.078-9.654,8.012-14.284,11.862c-2.32,1.92-4.602,3.808-6.835,5.656c-2.252,1.829-4.456,3.618-6.601,5.359
		c-4.3,3.474-8.325,6.797-12.118,9.789c-3.78,3.004-7.244,5.758-10.316,8.199c-3.094,2.418-5.792,4.526-8.013,6.261
		c-2.238,1.719-3.997,3.069-5.197,3.99c-1.208,0.912-1.852,1.399-1.852,1.399c-3.177,2.4-7.697,1.771-10.098-1.406
		c-1.987-2.63-1.892-6.185,0-8.692c0,0,0.487-0.644,1.399-1.852c0.921-1.199,2.271-2.958,3.99-5.197
		c1.736-2.221,3.844-4.919,6.261-8.013c2.441-3.071,5.195-6.536,8.199-10.316c2.991-3.793,6.315-7.818,9.789-12.118
		c1.742-2.145,3.531-4.349,5.359-6.601c1.848-2.233,3.736-4.514,5.656-6.835c3.85-4.63,7.784-9.458,11.862-14.284
		c4.075-4.829,8.215-9.734,12.355-14.64c4.124-4.921,8.323-9.767,12.424-14.57c4.127-4.776,8.189-9.477,12.12-14.026
		c3.954-4.526,7.805-8.872,11.525-12.925c3.708-4.066,7.278-7.844,10.605-11.301c6.659-6.909,12.406-12.469,16.513-16.276
		c2.068-1.89,3.686-3.381,4.826-4.361c1.123-0.997,1.743-1.508,1.743-1.508c9.17-7.56,22.733-6.255,30.293,2.915
		C188.638,337.666,188.404,349.169,181.973,356.959z"/>
</g>
<g id="Layer_3">
	<path fill="#FF473E" d="M494.299,171.479L337.16,14.34c-8.189-8.189-21.467-8.189-29.656,0l-6.559,6.559
		c-21.56,21.56-21.56,56.515,0,78.075l0,0c1.107,1.107,1.107,2.901,0,4.007l-82.228,82.228c-5.252,5.252-13.471,5.873-19.585,1.655
		c-29.012-20.016-69.057-17.127-94.871,8.687l-32.108,32.108c-17.237,17.237-17.237,45.183,0,62.42L218.56,436.485
		c17.237,17.237,45.183,17.237,62.42,0l32.108-32.108c25.815-25.815,28.703-65.859,8.687-94.871
		c-4.218-6.114-3.597-14.333,1.655-19.585l82.228-82.228c1.107-1.107,2.901-1.107,4.007,0l0,0c21.56,21.56,56.515,21.56,78.075,0
		l6.559-6.559C502.488,192.946,502.488,179.668,494.299,171.479z"/>
</g>
<g id="Layer_4">
	<path fill="#FF6E83" d="M252.285,231.708c-4.264,0-8.527-1.626-11.78-4.88c-6.506-6.506-6.506-17.055,0-23.561l65.539-65.539
		c6.506-6.507,17.055-6.507,23.561,0c6.506,6.506,6.506,17.055,0,23.561l-65.538,65.539
		C260.812,230.081,256.548,231.708,252.285,231.708z"/>
</g>
</svg>
