<?xml version="1.0" encoding="iso-8859-1"?>
<!-- Generator: Adobe Illustrator 19.1.0, SVG Export Plug-In . SVG Version: 6.00 Build 0)  -->
<!DOCTYPE svg PUBLIC "-//W3C//DTD SVG 1.1//EN" "http://www.w3.org/Graphics/SVG/1.1/DTD/svg11.dtd">
<svg version="1.1" xmlns="http://www.w3.org/2000/svg" xmlns:xlink="http://www.w3.org/1999/xlink" x="0px" y="0px"
	 viewBox="0 0 512 512" enable-background="new 0 0 512 512" xml:space="preserve">
<g id="Layer_12">
	<path fill="#00B89C" d="M319.657,202.073H304.13c-1.819,0-3.293,1.474-3.293,3.293v3.386c0,2.141,2.008,3.689,4.09,3.188
		c1.612-0.388,3.191-0.575,4.662-0.575c10.015,0,17.685,7.308,17.685,20.12c0,13.173-9.745,22.015-24.902,22.015
		c-8.199,0-14.227-2.875-18.673-7.119c-1.362-1.3-1.302-3.498,0.085-4.773l4.074-3.745c1.242-1.142,3.177-1.194,4.409-0.042
		c2.549,2.383,5.633,3.77,9.383,3.77c5.774,0,9.203-3.429,9.203-9.925c0-7.038-3.158-9.474-7.85-9.474
		c-2.039,0-3.856,0.442-6.185,1.726c-0.505,0.278-1.066,0.44-1.643,0.44h-6.474c-1.819,0-3.293-1.474-3.293-3.293v-27.068
		c0-1.819,1.474-3.293,3.293-3.293h31.677c2.014,0,3.556,1.792,3.256,3.784l-0.721,4.783
		C322.671,200.882,321.287,202.073,319.657,202.073z"/>
</g>
<g id="Layer_1">
</g>
</svg>
