<?xml version="1.0" encoding="iso-8859-1"?>
<!-- Generator: Adobe Illustrator 18.1.1, SVG Export Plug-In . SVG Version: 6.00 Build 0)  -->
<!DOCTYPE svg PUBLIC "-//W3C//DTD SVG 1.1//EN" "http://www.w3.org/Graphics/SVG/1.1/DTD/svg11.dtd">
<svg version="1.1" xmlns="http://www.w3.org/2000/svg" xmlns:xlink="http://www.w3.org/1999/xlink" x="0px" y="0px"
	 viewBox="0 0 512 512" enable-background="new 0 0 512 512" xml:space="preserve">
<g id="Layer_2">
	<path fill="#D19B61" d="M189.372,319.086v167.272c0,11.4,27.197,20.642,60.746,20.642c33.549,0,60.746-9.242,60.746-20.642V319.086
		H189.372z"/>
</g>
<g id="Layer_3">
	<path fill="#81929B" d="M491.242,181.857c0-61.435-49.803-111.238-111.238-111.238H115.036l111.238,313.834h49.692h104.038h104.038
		c3.977,0,7.2-3.224,7.2-7.2V189.057c0-0.497-0.05-0.982-0.146-1.451C491.192,185.702,491.242,183.785,491.242,181.857z"/>
</g>
<g id="Layer_4">
	<path fill="#2B3B47" d="M115.036,70.619c-61.435,0-111.238,49.803-111.238,111.238v195.396c0,3.976,3.224,7.2,7.2,7.2h208.076
		c3.976,0,7.2-3.224,7.2-7.2V181.857C226.274,120.422,176.471,70.619,115.036,70.619z"/>
</g>
<g id="Layer_5">
	<path fill="#FF473E" d="M479.107,187.213c-3.027-1.419-6.403-2.217-9.967-2.217H306.297c-12.983,0-23.509,10.525-23.509,23.509
		s10.525,23.509,23.509,23.509h122.705v52.178c0,22.167,17.971,40.138,40.138,40.138s40.138-17.971,40.138-40.138v-58.092
		C509.277,207.375,496.452,191.646,479.107,187.213z"/>
</g>
<g id="Layer_6">
	<path fill="#DCE2E2" d="M226.274,181.857c0-11.148-1.648-21.911-4.699-32.065H70.306c-12.485,0-23.063,7.851-27.264,18.857
		c-0.05,0.082-0.127,0.141-0.173,0.225l0.082,0.064c-1.17,3.161,133.133,104.57,133.133,104.57
		c16.813,12.408,25.657,12.603,42.284,0c0,0,2.935-2.217,7.906-5.986V181.857z"/>
</g>
<g id="Layer_7">
	<path fill="#B9C5C6" d="M226.274,181.857c0-11.206-1.664-22.021-4.746-32.222H70.43c-16.159,0-29.255,13.097-29.255,29.255v165.78
		l156.028-117.021l29.071,21.803V181.857z"/>
</g>
<g id="Layer_8">
	<path fill="#96A9B2" d="M226.274,245.361c-4.903-3.714-7.786-5.892-7.786-5.892c-17.077-12.602-26.059-12.8-42.946,0
		c0,0-136.206,102.913-135.06,106.079l-0.028,0.023c0.014,0.028,0.037,0.046,0.055,0.072c1.165,3.178,2.857,6.104,4.969,8.665
		c0.901,1.093,1.988,2.009,3.033,2.961l-0.051,0.039c0.083,0.074,0.194,0.109,0.277,0.183c4.429,3.95,10.013,6.509,16.217,7.239
		c0.097,0.012,0.176,0.062,0.273,0.074h0.374c0.943,0.09,1.84,0.317,2.806,0.317h157.865V245.361z"/>
</g>
<g id="Layer_9">
	<path fill="#EDECE6" d="M226.274,181.857c0-11.09-1.631-21.798-4.652-31.905l-154.313,0.005c-6.318,0.671-12.034,3.316-16.49,7.371
		l1.816,1.416c-3.905,2.599-7.328,5.846-9.64,9.975L176.21,273.352c16.813,12.408,25.657,12.603,42.284,0l7.78-6.111V181.857z"/>
</g>
</svg>
