<?xml version="1.0" encoding="iso-8859-1"?>
<!-- Generator: Adobe Illustrator 18.1.1, SVG Export Plug-In . SVG Version: 6.00 Build 0)  -->
<!DOCTYPE svg PUBLIC "-//W3C//DTD SVG 1.1//EN" "http://www.w3.org/Graphics/SVG/1.1/DTD/svg11.dtd">
<svg version="1.1" xmlns="http://www.w3.org/2000/svg" xmlns:xlink="http://www.w3.org/1999/xlink" x="0px" y="0px"
	 viewBox="0 0 512 512" enable-background="new 0 0 512 512" xml:space="preserve">
<g id="Layer_10">
	<path fill="#FF473E" d="M478.809,331.344h19.17c5.042,0,9.13-4.088,9.13-9.13v-8.683c0-5.042-4.088-9.13-9.13-9.13H192.695
		c-0.792,0-1.555,0.111-2.288,0.301c-2.259-0.182-4.536-0.301-6.843-0.301c-46.471,0-84.143,37.672-84.143,84.143
		s37.672,84.143,84.143,84.143c2.306,0,4.583-0.119,6.843-0.301c0.732,0.189,1.496,0.301,2.288,0.301h305.283
		c5.042,0,9.13-4.088,9.13-9.13v-8.683c0-5.042-4.088-9.13-9.13-9.13h-19.17c-5.042,0-9.13-4.088-9.13-9.13v-96.139
		C469.679,335.432,473.767,331.344,478.809,331.344z"/>
</g>
<g id="Layer_1">
</g>
</svg>
