<?xml version="1.0" encoding="iso-8859-1"?>
<!-- Generator: Adobe Illustrator 18.1.1, SVG Export Plug-In . SVG Version: 6.00 Build 0)  -->
<!DOCTYPE svg PUBLIC "-//W3C//DTD SVG 1.1//EN" "http://www.w3.org/Graphics/SVG/1.1/DTD/svg11.dtd">
<svg version="1.1" xmlns="http://www.w3.org/2000/svg" xmlns:xlink="http://www.w3.org/1999/xlink" x="0px" y="0px"
	 viewBox="0 0 512 512" enable-background="new 0 0 512 512" xml:space="preserve">
<g id="Layer_2">
	<path fill="#FF473E" d="M473,108.645H291.537c-16.914,0-31.096,11.667-34.956,27.391c-3.86-15.724-18.042-27.391-34.956-27.391
		H40.162c-19.882,0-36,16.118-36,36v264.657c0,19.882,16.118,36,36,36h181.463c0.201,0,0.398-0.012,0.598-0.015
		c8.445,9.075,20.655,14.78,34.237,14.78c13.586,0,25.798-5.707,34.243-14.785c0.278,0.006,0.554,0.021,0.834,0.021H473
		c19.882,0,36-16.118,36-36V144.645C509,124.763,492.882,108.645,473,108.645z"/>
</g>
<g id="Layer_1">
</g>
</svg>
