<?xml version="1.0" encoding="iso-8859-1"?>
<!-- Generator: Adobe Illustrator 18.1.1, SVG Export Plug-In . SVG Version: 6.00 Build 0)  -->
<!DOCTYPE svg PUBLIC "-//W3C//DTD SVG 1.1//EN" "http://www.w3.org/Graphics/SVG/1.1/DTD/svg11.dtd">
<svg version="1.1" xmlns="http://www.w3.org/2000/svg" xmlns:xlink="http://www.w3.org/1999/xlink" x="0px" y="0px"
	 viewBox="0 0 512 512" enable-background="new 0 0 512 512" xml:space="preserve">
<g id="Layer_2">
	<path fill="#8F9799" d="M326.754,6.046c-4.562-2.858-10.576-1.475-13.434,3.08l-50.403,80.398c-3.322,5.299-11.043,5.3-14.366,0
		L198.145,9.126c-2.858-4.555-8.87-5.938-13.435-3.08c-4.558,2.858-5.938,8.873-3.08,13.434l51.529,82.187
		c-9.924,7.174-16.388,18.839-16.388,32.021v65.579h0.101c0.523,7.482,6.694,13.409,14.309,13.409h50.168
		c7.616,0,13.786-5.927,14.309-13.409h0.101v-65.579c0-13.506-6.783-25.423-17.125-32.544l51.199-81.663
		C332.692,14.919,331.312,8.904,326.754,6.046z"/>
</g>
<g id="Layer_3">
	<path fill="#C5CFD1" d="M484.348,139.519H27.652c-4.254,0-7.702,3.449-7.702,7.702v353.608h0.054c0.28,4,3.578,7.168,7.648,7.168
		h456.696c4.071,0,7.369-3.168,7.648-7.168h0.054V147.221C492.05,142.968,488.602,139.519,484.348,139.519z"/>
</g>
<g id="Layer_4">
	<circle fill="#FF473E" cx="439.354" cy="215.13" r="27.145"/>
</g>
<g id="Layer_5">
	<path fill="#1C4C5A" d="M386.499,195.718v256.614h-0.054c-0.28,4-3.578,7.168-7.648,7.168c0,0-285.412-0.052-286.139-0.112
		c-0.364,0.053-16.508,0.112-16.508,0.112c-4.071,0-7.369-3.168-7.648-7.168h-0.054V195.718c0-4.255,3.448-7.702,7.702-7.702
		h302.647C383.05,188.016,386.499,191.463,386.499,195.718z M439.354,272.991c-14.27,0-25.838,11.568-25.838,25.838
		c0,14.27,11.568,25.838,25.838,25.838c14.27,0,25.838-11.568,25.838-25.838C465.192,284.559,453.624,272.991,439.354,272.991z"/>
</g>
<g id="Layer_6">
	<path fill="#819096" d="M466.655,360.316h-54.604c-2.774,0-5.022-2.248-5.022-5.022c0-2.774,2.249-5.022,5.022-5.022h54.604
		c2.774,0,5.022,2.249,5.022,5.022C471.678,358.067,469.429,360.316,466.655,360.316z M471.678,379.455
		c0-2.774-2.248-5.022-5.022-5.022h-54.604c-2.774,0-5.022,2.248-5.022,5.022c0,2.774,2.249,5.022,5.022,5.022h54.604
		C469.429,384.477,471.678,382.229,471.678,379.455z M471.678,403.616c0-2.774-2.248-5.022-5.022-5.022h-54.604
		c-2.774,0-5.022,2.249-5.022,5.022c0,2.774,2.249,5.022,5.022,5.022h54.604C469.429,408.638,471.678,406.39,471.678,403.616z
		 M471.678,427.777c0-2.774-2.248-5.022-5.022-5.022h-54.604c-2.774,0-5.022,2.248-5.022,5.022c0,2.774,2.249,5.022,5.022,5.022
		h54.604C469.429,432.8,471.678,430.551,471.678,427.777z M471.678,451.94c0-2.774-2.248-5.022-5.022-5.022h-54.604
		c-2.774,0-5.022,2.249-5.022,5.022c0,2.774,2.249,5.022,5.022,5.022h54.604C469.429,456.962,471.678,454.714,471.678,451.94z
		 M462.308,321.899c2.621-2.621,2.621-6.875,0-9.496l-36.532-36.532c-2.624-2.624-6.872-2.624-9.496,0
		c-2.621,2.621-2.621,6.875,0,9.496l36.532,36.532c1.312,1.312,3.03,1.965,4.748,1.965S460.996,323.211,462.308,321.899z"/>
</g>
</svg>
