<?xml version="1.0" encoding="iso-8859-1"?>
<!-- Generator: Adobe Illustrator 18.1.1, SVG Export Plug-In . SVG Version: 6.00 Build 0)  -->
<!DOCTYPE svg PUBLIC "-//W3C//DTD SVG 1.1//EN" "http://www.w3.org/Graphics/SVG/1.1/DTD/svg11.dtd">
<svg version="1.1" xmlns="http://www.w3.org/2000/svg" xmlns:xlink="http://www.w3.org/1999/xlink" x="0px" y="0px"
	 viewBox="0 0 512 512" enable-background="new 0 0 512 512" xml:space="preserve">
<g id="Layer_2">
	<path fill="#7BD873" d="M506.738,290.613c-160.397,4.842-221.783,156.007-382.18,160.85c-3.862,0.118-8.374-1.827-9.995-4.222
		C76.422,390.874,38.281,334.506,0.139,278.138c-1.623-2.398,0.26-4.338,4.123-4.457c160.397-4.842,221.783-156.007,382.18-160.85
		c3.862-0.118,8.374,1.827,9.995,4.222c38.141,56.368,76.283,112.735,114.424,169.103
		C512.483,288.554,510.6,290.495,506.738,290.613z"/>
</g>
<g id="Layer_3">
	<path fill="#597B91" d="M125.504,298.766c9.077-2.174,17.369-2.709,25.456-1.735c2.29,0.272,3.78,2.107,3.321,4.058
		c-0.783,3.308-1.582,6.593-2.398,9.853c-0.454,1.821-2.529,3.074-4.765,2.885c-8.651-0.727-16.369,0.363-24.132,3.241
		c-8.927,3.29-12.865,7.849-9.37,13.014c3.49,5.158,9.525,6.446,29.095,3.925c23.802-3.285,38.892-2.963,49.336,12.471
		c8.167,12.069,5.421,26.687-9.215,37.458c-1.45,1.055-1.801,2.736-0.88,4.096c3.252,4.806,6.504,9.612,9.756,14.418
		c1.13,1.671,0.304,3.743-1.87,4.593c-3.637,1.423-7.321,2.775-11.058,4.05c-2.233,0.763-4.981-0.006-6.112-1.676
		c-3.01-4.448-6.019-8.896-9.029-13.344c-1.018-1.505-3.38-2.311-5.544-1.884c-13.74,2.708-26.803,1.286-38.061-1.952
		c-2.683-0.774-4.922-1.435-4.064-2.967c1.863-3.35,3.672-6.78,5.429-10.286c1.159-2.32,2.917-1.669,5.336-1.112
		c10.499,2.404,20.583,2.42,30.181-0.894c10.862-3.789,14.48-10.348,10.253-16.596c-4.147-6.128-9.61-6.875-28.233-5.092
		c-29.374,2.378-45.145-4.751-53.301-16.804c-8.212-12.136-1.08-22.507,14.475-30.581c1.679-0.873,3.221-0.961,2.267-2.371
		c-2.059-3.043-8.563-12.656-10.959-16.195c-1.131-1.672,0.935-1.912,3.168-2.675c3.737-1.275,7.421-2.627,11.058-4.05
		c2.174-0.85,4.833-0.213,5.965,1.459c2.937,4.341,5.874,8.681,8.811,13.022C121.386,298.526,123.519,299.24,125.504,298.766z"/>
</g>
<g id="Layer_4">
	<path fill="#597B91" d="M354.603,352.147c-23.336,15.426-45.784,32.164-69.083,47.645c-5.437,3.617-12.534,2.576-15.776-2.217
		c-38.903-57.493-77.805-114.985-116.708-172.478c-3.243-4.793-1.405-11.523,4.032-15.14c23.299-15.48,45.747-32.219,69.083-47.645
		c5.446-3.604,12.551-2.549,15.794,2.243c38.903,57.493,77.805,114.985,116.708,172.478
		C361.897,341.827,360.049,348.543,354.603,352.147z"/>
</g>
<g id="Layer_5">
	<path fill="#C4F0F2" d="M429.453,360.41c52.053,52.053,47.581,86.628,23.217,111.36c-24.591,24.963-60.583,29.288-80.142,9.73
		c-13.484-13.484-15.612-34.779-7.454-54.765c1.583-3.878-1.086-7.18-5.027-6.169c-13.153,3.376-26.304,0.925-35.096-7.867
		c-9.943-9.943-11.773-25.462-6.237-40.253c1.435-3.835-1.237-6.999-5.112-5.999c-11.34,2.927-22.686,0.522-29.805-7.711
		c-10.256-11.862-41.865-38.984-28.377-53.471C265.215,294.746,374.023,304.98,429.453,360.41z M244.001,88.731
		C215.08,21.036,181.327,12.309,149.3,25.709c-32.326,13.524-49.745,45.317-38.878,70.752c7.492,17.536,26.463,27.442,48.049,27.314
		c4.188-0.025,6.259,3.683,3.853,6.963c-8.032,10.949-10.655,24.067-5.771,35.501c5.525,12.931,19.245,20.409,35.034,20.78
		c4.093,0.096,6.035,3.754,3.663,6.978c-6.94,9.434-8.934,20.859-3.945,30.532c7.188,13.936,20.586,53.373,39.055,46.251
		C243.771,265.609,274.798,160.817,244.001,88.731z"/>
</g>
</svg>
