<?xml version="1.0" encoding="iso-8859-1"?>
<!-- Generator: Adobe Illustrator 19.1.0, SVG Export Plug-In . SVG Version: 6.00 Build 0)  -->
<!DOCTYPE svg PUBLIC "-//W3C//DTD SVG 1.1//EN" "http://www.w3.org/Graphics/SVG/1.1/DTD/svg11.dtd">
<svg version="1.1" xmlns="http://www.w3.org/2000/svg" xmlns:xlink="http://www.w3.org/1999/xlink" x="0px" y="0px"
	 viewBox="0 0 512 512" enable-background="new 0 0 512 512" xml:space="preserve">
<g id="Layer_7">
	<path fill="#ABBDDB" d="M324.406,402.701H189.423c-6.6,0-12-5.4-12-12v-6.957c0-6.6,5.4-12,12-12h134.983c6.6,0,12,5.4,12,12v6.957
		C336.406,397.301,331.006,402.701,324.406,402.701z M317.399,452.616v-6.957c0-6.6-5.4-12-12-12H208.43c-6.6,0-12,5.4-12,12v6.957
		c0,6.6,5.4,12,12,12h96.969C311.999,464.616,317.399,459.216,317.399,452.616z"/>
</g>
<g id="Layer_1">
</g>
</svg>
