<?xml version="1.0" encoding="iso-8859-1"?>
<!-- Generator: Adobe Illustrator 18.1.1, SVG Export Plug-In . SVG Version: 6.00 Build 0)  -->
<!DOCTYPE svg PUBLIC "-//W3C//DTD SVG 1.1//EN" "http://www.w3.org/Graphics/SVG/1.1/DTD/svg11.dtd">
<svg version="1.1" xmlns="http://www.w3.org/2000/svg" xmlns:xlink="http://www.w3.org/1999/xlink" x="0px" y="0px"
	 viewBox="0 0 512 512" enable-background="new 0 0 512 512" xml:space="preserve">
<g id="Layer_2">
	<path fill="#96A9B2" d="M511.824,425.007c1.941-5.245-220.916-173.519-220.916-173.519c-27.9-20.589-42.574-20.913-70.164,0
		c0,0-222.532,168.138-220.659,173.311l-0.045,0.038c0.023,0.045,0.06,0.076,0.091,0.117c1.903,5.192,4.668,9.973,8.119,14.157
		c1.473,1.786,3.248,3.282,4.955,4.837l-0.083,0.064c0.136,0.121,0.317,0.177,0.453,0.298c7.235,6.454,16.359,10.634,26.495,11.827
		c0.159,0.019,0.287,0.102,0.446,0.121h0.612c1.541,0.147,3.006,0.517,4.584,0.517h420.721c20.717,0,38.269-13.028,45.241-31.291
		c0.083-0.136,0.211-0.234,0.287-0.374L511.824,425.007z"/>
</g>
<g id="Layer_3">
	<path fill="#B9C5C6" d="M256.133,232.176L1.216,423.364V152.515c0-26.4,21.397-47.797,47.797-47.797h414.24
		c26.4,0,47.797,21.397,47.797,47.797v270.849L256.133,232.176z"/>
</g>
<g id="Layer_4">
	<path fill="#EDECE6" d="M4.189,135.896l217.645,170.949c27.47,20.271,41.918,20.591,69.083,0L508.22,136.167
		c-3.77-6.834-9.414-12.233-15.869-16.538l2.989-2.342c-7.295-6.641-16.62-10.946-26.971-12.058l-424.455,0.015
		c-10.322,1.097-19.662,5.417-26.942,12.043l2.967,2.313C13.559,123.845,7.967,129.151,4.189,135.896z"/>
</g>
<g id="Layer_5">
	<path fill="#DCE2E2" d="M4.118,136.254C2.207,141.419,221.63,307.099,221.63,307.099c27.47,20.271,41.918,20.591,69.083,0
		c0,0,219.103-165.546,217.258-170.64l0.045-0.037c-0.022-0.045-0.059-0.074-0.089-0.115c-1.874-5.112-4.596-9.82-7.994-13.939
		c-1.45-1.759-3.198-3.231-4.878-4.763l0.082-0.063c-0.134-0.119-0.312-0.175-0.446-0.294c-7.124-6.354-16.107-10.47-26.086-11.645
		c-0.156-0.019-0.283-0.1-0.439-0.119h-0.602c-1.517-0.145-2.96-0.509-4.514-0.509H48.81c-20.398,0-37.68,12.828-44.543,30.809
		c-0.082,0.134-0.208,0.231-0.283,0.368L4.118,136.254z"/>
</g>
<g id="Layer_6">
	<path fill="#597B91" d="M291.401,154.645h-38.632c-3.399,0-6.155,2.756-6.155,6.155v21.722c0,3.399,2.756,6.155,6.155,6.155h31.415
		c3.399,0,6.155,2.756,6.155,6.155v11.616c0,3.399-2.756,6.155-6.155,6.155h-31.415c-3.399,0-6.155,2.756-6.155,6.155v23.578
		c0,3.399,2.756,6.155,6.155,6.155h41.316c3.399,0,6.155,2.756,6.155,6.155v12.441c0,3.399-2.756,6.155-6.155,6.155h-75.76
		c-3.399,0-6.155-2.756-6.155-6.155V136.461c0-3.399,2.756-6.155,6.155-6.155h74.81c3.749,0,6.627,3.322,6.092,7.033l-1.733,12.028
		C297.057,152.396,294.462,154.645,291.401,154.645z"/>
</g>
</svg>
