<?xml version="1.0" encoding="iso-8859-1"?>
<!-- Generator: Adobe Illustrator 19.1.0, SVG Export Plug-In . SVG Version: 6.00 Build 0)  -->
<!DOCTYPE svg PUBLIC "-//W3C//DTD SVG 1.1//EN" "http://www.w3.org/Graphics/SVG/1.1/DTD/svg11.dtd">
<svg version="1.1" xmlns="http://www.w3.org/2000/svg" xmlns:xlink="http://www.w3.org/1999/xlink" x="0px" y="0px"
	 viewBox="0 0 512 512" enable-background="new 0 0 512 512" xml:space="preserve">
<g id="Layer_2">
	<path fill="#DCE2E2" d="M505.751,492.072c0,8.011-6.494,14.506-14.506,14.506H20.754c-8.011,0-14.506-6.494-14.506-14.506V76.329
		c0-8.011,6.494-14.506,14.506-14.506h470.492c8.011,0,14.506,6.494,14.506,14.506V492.072z"/>
</g>
<g id="Layer_3">
	<path fill="#0096D1" d="M505.751,260.413V74.777c0-7.154-6.494-12.954-14.506-12.954H20.754c-8.011,0-14.505,5.8-14.505,12.954
		v185.636H505.751z"/>
</g>
<g id="Layer_4">
	<path fill="#FFFFFF" d="M131.004,107.585c0,12.637-10.244,22.881-22.881,22.881s-22.881-10.244-22.881-22.881
		s10.244-22.881,22.881-22.881S131.004,94.948,131.004,107.585z M391.119,84.704c-12.637,0-22.881,10.244-22.881,22.881
		s10.244,22.881,22.881,22.881S414,120.222,414,107.585S403.756,84.704,391.119,84.704z"/>
</g>
<g id="Layer_5">
	<path fill="#BFBFBB" d="M172.451,61.823h-22.214c0-19.108-15.546-34.655-34.654-34.655S80.928,42.715,80.928,61.823
		s15.546,34.655,34.655,34.655c6.134,0,11.107,4.973,11.107,11.107s-4.973,11.107-11.107,11.107
		c-31.357,0-56.869-25.511-56.869-56.869S84.226,4.955,115.583,4.955S172.451,30.466,172.451,61.823z M414.64,6.795
		c-4.678-1.221-9.521-1.84-14.396-1.84c-31.357,0-56.868,25.511-56.868,56.869s25.511,56.869,56.868,56.869
		c6.135,0,11.107-4.973,11.107-11.107s-4.973-11.107-11.107-11.107c-19.108,0-34.653-15.546-34.653-34.655
		s15.545-34.655,34.653-34.655c2.982,0,5.938,0.377,8.785,1.121c15.231,3.976,25.869,17.766,25.869,33.534h22.215
		C457.112,35.951,439.646,13.323,414.64,6.795z"/>
</g>
<g id="Layer_6">
	<path fill="#FFFFFF" d="M68.534,208.183h-16.88l-2.911,12.39H34.608l17.379-57.624h16.547l17.379,57.624H71.445L68.534,208.183z
		 M66.123,198.287l-6.07-25.444l-6.069,25.444H66.123z"/>
</g>
<g id="Layer_7">
	<path fill="#FFFFFF" d="M133.472,201.447c0,11.641-7.484,20.539-22.534,20.539s-22.452-8.398-22.452-20.539v-38.499h13.637v37.917
		c0,7.401,2.66,10.976,8.814,10.976c6.236,0,8.897-3.575,8.897-10.976v-37.917h13.637V201.447z"/>
</g>
<g id="Layer_8">
	<path fill="#FFFFFF" d="M187.597,168.603l-7.069,7.401c-3.742-3.16-6.902-4.573-11.558-4.573c-8.065,0-14.052,5.987-14.052,20.289
		c0,15.134,3.991,20.289,11.974,20.289c2.827,0,5.405-0.582,7.816-1.913V197.04h-7.484l-1.331-9.645h22.036v28.521
		c-5.905,3.825-13.388,6.07-20.954,6.07c-17.379,0-26.193-10.561-26.193-30.267c0-19.54,12.223-30.184,27.523-30.184
		C176.621,161.535,182.858,164.445,187.597,168.603z"/>
</g>
<g id="Layer_9">
	<path fill="#505A60" d="M241.958,339.052c0,30.311-15.011,53.116-75.922,108.542h79.963l-4.619,34.93H114.363v-32.332
		c65.529-64.663,80.829-82.272,80.829-106.521c0-15.877-9.815-25.403-25.115-25.403c-14.145,0-23.96,6.351-35.218,20.207
		l-27.135-21.362c15.588-20.496,37.816-33.775,66.973-33.775C218.286,283.338,241.958,308.741,241.958,339.052z"/>
</g>
<g id="Layer_10">
	<path fill="#505A60" d="M404.276,440.377h-21.939v42.147h-44.456l-0.289-42.147H255.32v-30.311l55.426-127.594l38.682,14.434
		l-47.054,109.408h35.796l4.907-46.188h39.26v46.188h21.939V440.377z"/>
</g>
</svg>
