<?xml version="1.0" encoding="iso-8859-1"?>
<!-- Generator: Adobe Illustrator 18.1.1, SVG Export Plug-In . SVG Version: 6.00 Build 0)  -->
<!DOCTYPE svg PUBLIC "-//W3C//DTD SVG 1.1//EN" "http://www.w3.org/Graphics/SVG/1.1/DTD/svg11.dtd">
<svg version="1.1" xmlns="http://www.w3.org/2000/svg" xmlns:xlink="http://www.w3.org/1999/xlink" x="0px" y="0px"
	 viewBox="0 0 72 72" enable-background="new 0 0 72 72" xml:space="preserve">
<g id="Layer_2">
	<path fill="#D1CFC3" d="M22.541,39.677c-8.687,0-16.824-3.548-21.238-9.26c-1.818-2.352-1.386-5.733,0.968-7.553
		c2.348-1.814,5.733-1.385,7.551,0.969c2.383,3.083,7.375,5.075,12.72,5.075c2.975,0,5.384,2.411,5.384,5.384
		S25.516,39.677,22.541,39.677z M70.864,30.417c1.818-2.352,1.386-5.733-0.968-7.553c-2.351-1.814-5.731-1.385-7.551,0.969
		c-2.383,3.083-7.375,5.075-12.72,5.075c-2.975,0-5.384,2.411-5.384,5.384s2.41,5.384,5.384,5.384
		C58.312,39.677,66.45,36.13,70.864,30.417z"/>
</g>
<g id="Layer_1">
</g>
</svg>
