<?xml version="1.0" encoding="iso-8859-1"?>
<!-- Generator: Adobe Illustrator 19.1.0, SVG Export Plug-In . SVG Version: 6.00 Build 0)  -->
<!DOCTYPE svg PUBLIC "-//W3C//DTD SVG 1.1//EN" "http://www.w3.org/Graphics/SVG/1.1/DTD/svg11.dtd">
<svg version="1.1" xmlns="http://www.w3.org/2000/svg" xmlns:xlink="http://www.w3.org/1999/xlink" x="0px" y="0px"
	 viewBox="0 0 512 512" enable-background="new 0 0 512 512" xml:space="preserve">
<g id="Layer_8">
	<path fill="#FFFFFF" d="M187.597,168.603l-7.069,7.401c-3.742-3.16-6.902-4.573-11.558-4.573c-8.065,0-14.052,5.987-14.052,20.289
		c0,15.134,3.991,20.289,11.974,20.289c2.827,0,5.405-0.582,7.816-1.913V197.04h-7.484l-1.331-9.645h22.036v28.521
		c-5.905,3.825-13.388,6.07-20.954,6.07c-17.379,0-26.193-10.561-26.193-30.267c0-19.54,12.223-30.184,27.523-30.184
		C176.621,161.535,182.858,164.445,187.597,168.603z"/>
</g>
<g id="Layer_1">
</g>
</svg>
