<?xml version="1.0" encoding="iso-8859-1"?>
<!-- Generator: Adobe Illustrator 18.1.1, SVG Export Plug-In . SVG Version: 6.00 Build 0)  -->
<!DOCTYPE svg PUBLIC "-//W3C//DTD SVG 1.1//EN" "http://www.w3.org/Graphics/SVG/1.1/DTD/svg11.dtd">
<svg version="1.1" xmlns="http://www.w3.org/2000/svg" xmlns:xlink="http://www.w3.org/1999/xlink" x="0px" y="0px"
	 viewBox="0 0 512 512" enable-background="new 0 0 512 512" xml:space="preserve">
<g id="Layer_5">
	<path fill="#2B3B47" d="M108.926,151.027c0,9.272-7.516,16.788-16.788,16.788s-16.788-7.516-16.788-16.788
		s7.516-16.788,16.788-16.788S108.926,141.755,108.926,151.027z M92.138,265.044c-9.272,0-16.788,7.516-16.788,16.788
		c0,9.272,7.516,16.788,16.788,16.788s16.788-7.516,16.788-16.788C108.926,272.56,101.409,265.044,92.138,265.044z M92.138,395.849
		c-9.272,0-16.788,7.516-16.788,16.788c0,9.272,7.516,16.788,16.788,16.788s16.788-7.516,16.788-16.788
		C108.926,403.365,101.409,395.849,92.138,395.849z"/>
</g>
<g id="Layer_1">
</g>
</svg>
