<?xml version="1.0" encoding="iso-8859-1"?>
<!-- Generator: Adobe Illustrator 18.1.1, SVG Export Plug-In . SVG Version: 6.00 Build 0)  -->
<!DOCTYPE svg PUBLIC "-//W3C//DTD SVG 1.1//EN" "http://www.w3.org/Graphics/SVG/1.1/DTD/svg11.dtd">
<svg version="1.1" xmlns="http://www.w3.org/2000/svg" xmlns:xlink="http://www.w3.org/1999/xlink" x="0px" y="0px"
	 viewBox="0 0 512 512" enable-background="new 0 0 512 512" xml:space="preserve">
<g id="Layer_2">
	<path fill="#7BD873" d="M504.8,447H9.528c-3.976,0-7.2-3.224-7.2-7.2V159.2c0-3.976,3.224-7.2,7.2-7.2H504.8
		c3.976,0,7.2,3.224,7.2,7.2v280.6C512,443.776,508.776,447,504.8,447z"/>
</g>
<g id="Layer_3">
	<path fill="#597B91" d="M114.699,226.939c10.64,2.155,19.368,6.518,26.86,12.798c2.123,1.78,2.375,4.985,0.58,7.096l-9.143,10.75
		c-1.7,1.999-4.649,2.337-6.775,0.798c-8.23-5.958-16.759-8.799-26.553-8.799c-11.25,0-18.334,4.792-18.334,13.334
		c0,8.75,5.208,12.292,26.668,18.959c26.251,8.334,41.252,19.376,41.252,44.794c0,20.157-12.747,35.628-34.86,41.435
		c-2.182,0.573-3.684,2.576-3.684,4.832v23.924c0,2.773-2.248,5.021-5.021,5.021H91.771c-2.773,0-5.021-2.248-5.021-5.021v-22.142
		c0-2.496-1.832-4.639-4.307-4.964c-15.707-2.062-27.913-8.012-37.059-15.647c-2.178-1.818-3.985-3.324-2.075-5.423l12.497-13.731
		c2.752-3.024,4.081-1.519,6.141,0.075c8.949,6.921,19.11,10.809,31.053,10.809c13.542,0,21.668-6.25,21.668-16.668
		c0-10-5.001-14.584-25.001-20.834c-31.251-9.584-42.294-22.501-42.294-42.919c0-20.044,14.272-34.156,35.472-38.667
		c2.29-0.487,3.905,0.077,3.905-2.264c0-5.049,0-21,0-26.874c0-2.773,2.248-2.199,5.021-2.199h13.918
		c2.773,0,5.021,2.248,5.021,5.021v21.607C110.71,224.411,112.374,226.468,114.699,226.939z"/>
</g>
<g id="Layer_4">
	<path fill="#597B91" d="M309.35,456h-102.2c-7.953,0-14.4-6.447-14.4-14.4V155.4c0-7.953,6.447-14.4,14.4-14.4h102.2
		c7.953,0,14.4,6.447,14.4,14.4v286.2C323.75,449.553,317.303,456,309.35,456z"/>
</g>
</svg>
