<?xml version="1.0" encoding="iso-8859-1"?>
<!-- Generator: Adobe Illustrator 18.1.1, SVG Export Plug-In . SVG Version: 6.00 Build 0)  -->
<!DOCTYPE svg PUBLIC "-//W3C//DTD SVG 1.1//EN" "http://www.w3.org/Graphics/SVG/1.1/DTD/svg11.dtd">
<svg version="1.1" xmlns="http://www.w3.org/2000/svg" xmlns:xlink="http://www.w3.org/1999/xlink" x="0px" y="0px"
	 viewBox="0 0 512 512" enable-background="new 0 0 512 512" xml:space="preserve">
<g id="Layer_2">
	<path fill="#0096D1" d="M178.5,450.6c-44.401,0-80.524-38.091-80.524-84.911s36.123-84.911,80.524-84.911
		s80.524,38.091,80.524,84.911S222.901,450.6,178.5,450.6z M178.5,308.826c-28.935,0-52.476,25.509-52.476,56.862
		s23.541,56.862,52.476,56.862s52.476-25.509,52.476-56.862S207.435,308.826,178.5,308.826z"/>
</g>
<g id="Layer_3">
	<path fill="#00B1FF" d="M475.934,430.287c-7.067,5.194-16.742,6.211-26.228,0.771c-36.405-20.876-341.889-76.958-395.847-87.032
		c-6.145-1.147-11.8-4.076-16.305-8.409c-12.666-12.18-36.096-40.212-36.096-80.928c0-40.424,22.407-67.965,34.754-80.072
		c4.52-4.432,10.257-7.401,16.481-8.558c54.444-10.12,360.443-66.041,396.997-86.999c9.136-5.238,18.449-4.499,25.439,0.195
		c-1.19-0.477-2.395-0.732-3.614-0.732c-21.17,0-38.333,85.719-38.333,176.428s17.162,176.428,38.333,176.428
		C473.009,431.38,474.483,431.001,475.934,430.287z"/>
</g>
<g id="Layer_4">
	<path fill="#0074A8" d="M510.667,254.952c0,92.52-19.742,179.949-44.094,179.949s-44.094-87.43-44.094-179.949
		S442.22,75.002,466.572,75.002S510.667,162.432,510.667,254.952z"/>
</g>
</svg>
