<?xml version="1.0" encoding="iso-8859-1"?>
<!-- Generator: Adobe Illustrator 19.1.0, SVG Export Plug-In . SVG Version: 6.00 Build 0)  -->
<!DOCTYPE svg PUBLIC "-//W3C//DTD SVG 1.1//EN" "http://www.w3.org/Graphics/SVG/1.1/DTD/svg11.dtd">
<svg version="1.1" xmlns="http://www.w3.org/2000/svg" xmlns:xlink="http://www.w3.org/1999/xlink" x="0px" y="0px"
	 viewBox="0 0 512 512" enable-background="new 0 0 512 512" xml:space="preserve">
<g id="Layer_13">
	<path fill="#00B89C" d="M377.463,196.326l-2.422,3.974c-0.838,1.375-2.551,1.951-4.039,1.337c-1.685-0.696-3.49-1.098-5.657-1.098
		c-4.039,0-7.257,2.19-9.268,6.492c-1.241,2.656,1.285,5.581,4.031,4.557c2.079-0.775,4.233-1.125,6.409-1.125
		c10.285,0,17.684,7.489,17.684,20.481c0,12.18-8.391,22.556-22.917,22.556c-16.691,0-24.09-11.729-24.09-29.414
		c0-20.842,10.556-34.736,27.789-34.736c4.272,0,7.987,0.882,11.012,2.247C377.806,192.416,378.497,194.629,377.463,196.326z
		 M361.374,242.223c4.692,0,6.768-4.421,6.768-11.098c0-7.398-2.075-9.834-6.496-9.834c-2.115,0-4.356,0.885-6.405,2.602
		c-0.76,0.637-1.173,1.604-1.154,2.595C354.309,237.988,356.181,242.223,361.374,242.223z"/>
</g>
<g id="Layer_1">
</g>
</svg>
