<?xml version="1.0" encoding="iso-8859-1"?>
<!-- Generator: Adobe Illustrator 18.1.1, SVG Export Plug-In . SVG Version: 6.00 Build 0)  -->
<!DOCTYPE svg PUBLIC "-//W3C//DTD SVG 1.1//EN" "http://www.w3.org/Graphics/SVG/1.1/DTD/svg11.dtd">
<svg version="1.1" xmlns="http://www.w3.org/2000/svg" xmlns:xlink="http://www.w3.org/1999/xlink" x="0px" y="0px"
	 viewBox="0 0 512 512" enable-background="new 0 0 512 512" xml:space="preserve">
<g id="Layer_2">
	<rect x="55.187" y="73" fill="#009E83" width="83.541" height="104.705"/>
</g>
<g id="Layer_3">
	<circle fill="#009E83" cx="129.088" cy="77.691" r="73.9"/>
</g>
<g id="Layer_4">
	<path fill="#009E83" d="M439.814,427.451H142.152c-20.544,0-37.199-16.654-37.199-37.199V41.24
		c0-20.544,1.004-37.199,21.549-37.199h301.431c27.106,0,49.08,21.974,49.08,49.08v337.131
		C477.013,410.797,460.358,427.451,439.814,427.451z"/>
</g>
<g id="Layer_5">
	<path fill="#DCE2E2" d="M455.931,67.945c0-21.992-20.75-39.972-46.96-41.336v-0.093H129.088c-20.407,0-36.95,12.668-36.95,28.294
		s16.543,28.294,36.95,28.294v0.485H331.89v390.972l73.882,8.673c28.693,0,50.159-56.776,50.159-84.813V69.915h-0.06
		C455.908,69.262,455.931,68.606,455.931,67.945z"/>
</g>
<g id="Layer_6">
	<path fill="#00B89C" d="M390.578,507H91.857c-20.252,0-36.669-16.417-36.669-36.669V120.259c0-20.252,53.649-36.669,73.9-36.669
		h261.49c20.252,0,36.669,16.417,36.669,36.669v350.071C427.247,490.583,410.83,507,390.578,507z"/>
</g>
<g id="Layer_7">
	<path fill="#009E83" d="M131.234,507H90.601c-19.558,0-35.414-15.855-35.414-35.414V83.59h76.046V507z"/>
</g>
<g id="Layer_8">
	<path fill="#2B3B47" d="M333.49,240.399H200.546c-7.953,0-14.4-6.447-14.4-14.4v-50.115c0-7.953,6.447-14.4,14.4-14.4H333.49
		c7.953,0,14.4,6.447,14.4,14.4v50.115C347.89,233.952,341.443,240.399,333.49,240.399z"/>
</g>
</svg>
