<?xml version="1.0" encoding="iso-8859-1"?>
<!-- Generator: Adobe Illustrator 18.1.1, SVG Export Plug-In . SVG Version: 6.00 Build 0)  -->
<!DOCTYPE svg PUBLIC "-//W3C//DTD SVG 1.1//EN" "http://www.w3.org/Graphics/SVG/1.1/DTD/svg11.dtd">
<svg version="1.1" xmlns="http://www.w3.org/2000/svg" xmlns:xlink="http://www.w3.org/1999/xlink" x="0px" y="0px"
	 viewBox="0 0 512 512" enable-background="new 0 0 512 512" xml:space="preserve">
<g id="Layer_5">
	<path fill="#597B91" d="M348.576,371.698c-1.13,0-2.238-0.024-3.326-0.072c-13.51-0.604-22.237-4.798-27.875-9.934
		c-19.207,9.371-42.187,13.168-51.84,4.363c-3.646-3.324-8.474-10.958,0.139-24.728c6.98-11.159,8.596-20.652,4.021-23.623
		c-5.534-3.594-19.407-0.151-28.546,13.417c-7.215,10.713-20.291,21.218-34.977,28.101c-7.572,3.549-26.516,11.043-38.877,4.004
		c-6.398-3.643-15.306-13.61-3.072-39.438c1.489-3.144,1.483-4.788,1.364-5.117c-2.353-2.743-22.062-1.928-42.894,9.78
		c-13.271,7.458-20.56,16.171-18.57,22.195c1.299,3.934-0.836,8.175-4.77,9.475c-3.937,1.298-8.175-0.837-9.474-4.77
		c-4.067-12.314,2.827-25.195,19.411-36.271c18.365-12.266,52.469-23.503,66.095-11.737c3.506,3.026,8.478,10.021,2.394,22.866
		c-4.848,10.233-6.078,18.263-3.062,19.979c8.7,4.959,40.956-8.093,53.991-27.447c6.122-9.09,14.594-15.913,23.857-19.215
		c9.37-3.34,18.591-2.759,25.3,1.596c9.678,6.284,14.898,21.184,0.527,44.159c-2.144,3.428-2.468,5.253-2.509,5.876
		c3.303,2.229,18.115,0.825,33.107-6.037c-2.906-8.005-2.909-17.684,0.06-27.01c3.132-9.841,8.966-17.644,15.605-20.872
		c10.473-5.092,18.629,1.841,22.433,9.324c7.173,14.11,1.809,29.42-14.717,42.004c-0.323,0.247-0.65,0.492-0.981,0.735
		c20.276,10.854,64.889-6.649,84.099-15.161c3.787-1.679,8.218,0.032,9.896,3.819s-0.032,8.218-3.819,9.896
		C391.825,365.032,367.296,371.698,348.576,371.698z M331.644,314.557c-1.332,0.248-5.402,3.743-8.013,11.238
		c-1.632,4.685-2.439,10.385-1.314,15.562c0.363-0.267,0.723-0.536,1.081-0.811c7.26-5.556,14.942-14.089,10.318-23.186
		C332.685,315.332,331.876,314.705,331.644,314.557z"/>
</g>
<g id="Layer_1">
</g>
</svg>
