<?xml version="1.0" encoding="iso-8859-1"?>
<!-- Generator: Adobe Illustrator 18.1.1, SVG Export Plug-In . SVG Version: 6.00 Build 0)  -->
<!DOCTYPE svg PUBLIC "-//W3C//DTD SVG 1.1//EN" "http://www.w3.org/Graphics/SVG/1.1/DTD/svg11.dtd">
<svg version="1.1" xmlns="http://www.w3.org/2000/svg" xmlns:xlink="http://www.w3.org/1999/xlink" x="0px" y="0px"
	 viewBox="0 0 512 512" enable-background="new 0 0 512 512" xml:space="preserve">
<g id="Layer_2">
	<path fill="#D5DEE4" d="M421.135,276.347H205.611c-19.8,0-36-16.2-36-36V47.519c0-19.8,16.2-36,36-36h215.524c19.8,0,36,16.2,36,36
		v192.829C457.135,260.147,440.935,276.347,421.135,276.347z"/>
</g>
<g id="Layer_3">
	<path fill="#8F9799" d="M62.105,507h-0.674c-31.68,0-57.6-25.92-57.6-57.6V207.836c0-31.68,25.92-57.6,57.6-57.6h0.674
		c31.68,0,57.6,25.92,57.6,57.6V449.4C119.705,481.08,93.785,507,62.105,507z"/>
</g>
<g id="Layer_4">
	<path fill="#ADB8BC" d="M449.442,507H177.305c-31.68,0-57.6-25.92-57.6-57.6V207.836c0-31.68,25.92-57.6,57.6-57.6h272.137
		c31.68,0,57.6,25.92,57.6,57.6V449.4C507.042,481.08,481.122,507,449.442,507z"/>
</g>
<g id="Layer_5">
	<path fill="#76DFFF" d="M271.955,282.928h-70.533c-23.76,0-43.2-19.44-43.2-43.2v-18.65c0-23.76,19.44-43.2,43.2-43.2h70.533
		c23.76,0,43.2,19.44,43.2,43.2v18.65C315.155,263.488,295.715,282.928,271.955,282.928z"/>
</g>
<g id="Layer_6">
	<circle fill="#1C4C5A" cx="385.596" cy="192.811" r="11.851"/>
</g>
<g id="Layer_7">
	<path fill="#819096" d="M426.344,57.652H210.11c-3.414,0-6.181-2.767-6.181-6.181v0c0-3.414,2.767-6.181,6.181-6.181h216.234
		c3.414,0,6.181,2.767,6.181,6.181v0C432.525,54.885,429.758,57.652,426.344,57.652z M321.336,87.67L321.336,87.67
		c0-3.414-2.767-6.181-6.181-6.181H210.11c-3.414,0-6.181,2.767-6.181,6.181v0c0,3.414,2.767,6.181,6.181,6.181h105.045
		C318.569,93.851,321.336,91.084,321.336,87.67z M370.904,123.87L370.904,123.87c0-3.414-2.767-6.181-6.181-6.181H210.11
		c-3.414,0-6.181,2.767-6.181,6.181v0c0,3.414,2.767,6.181,6.181,6.181h154.613C368.137,130.051,370.904,127.283,370.904,123.87z"/>
</g>
<g id="Layer_8">
	<path fill="#819096" d="M458.909,349.821h-95.922c-6.017,0-10.896-4.878-10.896-10.896v-2.933c0-6.017,4.878-10.896,10.896-10.896
		h95.922c6.017,0,10.896,4.878,10.896,10.896v2.933C469.805,344.943,464.926,349.821,458.909,349.821z M469.805,391.324v-2.933
		c0-6.017-4.878-10.896-10.896-10.896h-95.922c-6.017,0-10.896,4.878-10.896,10.896v2.933c0,6.017,4.878,10.896,10.896,10.896
		h95.922C464.926,402.22,469.805,397.341,469.805,391.324z M469.805,443.722v-2.933c0-6.017-4.878-10.896-10.896-10.896h-95.922
		c-6.017,0-10.896,4.878-10.896,10.896v2.933c0,6.017,4.878,10.896,10.896,10.896h95.922
		C464.926,454.618,469.805,449.74,469.805,443.722z M455.764,194.278v-2.933c0-6.017-4.878-10.896-10.896-10.896h-19.207
		c-6.017,0-10.896,4.878-10.896,10.896v2.933c0,6.017,4.878,10.896,10.896,10.896h19.207
		C450.885,205.173,455.764,200.295,455.764,194.278z"/>
</g>
<g id="Layer_9">
	<path fill="#F9F9F7" d="M203.472,337.459c0,9.192-7.452,16.644-16.644,16.644c-9.192,0-16.644-7.452-16.644-16.644
		c0-9.192,7.452-16.644,16.644-16.644C196.02,320.815,203.472,328.267,203.472,337.459z M236.688,320.815
		c-9.192,0-16.644,7.452-16.644,16.644c0,9.192,7.452,16.644,16.644,16.644c9.192,0,16.644-7.452,16.644-16.644
		C253.332,328.267,245.881,320.815,236.688,320.815z M286.549,320.815c-9.192,0-16.644,7.452-16.644,16.644
		c0,9.192,7.452,16.644,16.644,16.644s16.644-7.452,16.644-16.644C303.193,328.267,295.742,320.815,286.549,320.815z
		 M186.827,373.213c-9.192,0-16.644,7.452-16.644,16.644c0,9.192,7.452,16.644,16.644,16.644c9.192,0,16.644-7.452,16.644-16.644
		C203.472,380.665,196.02,373.213,186.827,373.213z M236.688,373.213c-9.192,0-16.644,7.452-16.644,16.644
		c0,9.192,7.452,16.644,16.644,16.644c9.192,0,16.644-7.452,16.644-16.644C253.332,380.665,245.881,373.213,236.688,373.213z
		 M286.549,373.213c-9.192,0-16.644,7.452-16.644,16.644c0,9.192,7.452,16.644,16.644,16.644s16.644-7.452,16.644-16.644
		C303.193,380.665,295.742,373.213,286.549,373.213z M186.827,425.612c-9.192,0-16.644,7.452-16.644,16.644
		c0,9.192,7.452,16.644,16.644,16.644c9.192,0,16.644-7.452,16.644-16.644C203.472,433.064,196.02,425.612,186.827,425.612z
		 M236.688,425.612c-9.192,0-16.644,7.452-16.644,16.644c0,9.192,7.452,16.644,16.644,16.644c9.192,0,16.644-7.452,16.644-16.644
		C253.332,433.064,245.881,425.612,236.688,425.612z M286.549,425.612c-9.192,0-16.644,7.452-16.644,16.644
		c0,9.192,7.452,16.644,16.644,16.644s16.644-7.452,16.644-16.644C303.193,433.064,295.742,425.612,286.549,425.612z
		 M455.764,269.428v-26.53c0-7.456-6.044-13.5-13.5-13.5h-55.676c-7.456,0-13.5,6.044-13.5,13.5v26.53c0,7.456,6.044,13.5,13.5,13.5
		h55.676C449.719,282.928,455.764,276.884,455.764,269.428z"/>
</g>
</svg>
