<?xml version="1.0" encoding="iso-8859-1"?>
<!-- Generator: Adobe Illustrator 19.1.0, SVG Export Plug-In . SVG Version: 6.00 Build 0)  -->
<!DOCTYPE svg PUBLIC "-//W3C//DTD SVG 1.1//EN" "http://www.w3.org/Graphics/SVG/1.1/DTD/svg11.dtd">
<svg version="1.1" xmlns="http://www.w3.org/2000/svg" xmlns:xlink="http://www.w3.org/1999/xlink" x="0px" y="0px"
	 viewBox="0 0 512 512" enable-background="new 0 0 512 512" xml:space="preserve">
<g id="Layer_5">
	<path fill="#FAAF63" d="M321.905,211.203c0.149-0.131,0.297-0.251,0.447-0.395c2.787-2.667,5.082-6.921,3.161-10.867
		c-7.879-16.176-31.97-21.308-49.524-15.951c-0.889,0.271-1.751,0.566-2.588,0.885c-9.562-5.583-21.434-6.925-32.001-3.569
		c-1.275,0.405-2.503,0.871-3.678,1.394c-5.785-3.38-12.552-5.066-19.294-4.414c-14.112,1.365-26.375,12.81-28.805,26.752
		l-1.112,0.688c9.617,15.541,34.93,60.071,36.552,79.233c2.045,24.174,0.002,89.793-0.019,90.453l11.994,0.379
		c0.086-2.723,2.086-66.978-0.019-91.844c-0.938-11.087-7.722-28.758-20.164-52.521c-5.807-11.092-11.445-20.83-14.858-26.576
		c2.36-7.646,9.61-13.848,17.586-14.619c2.429-0.235,4.893,0.037,7.251,0.729c-0.893,1.147-1.67,2.362-2.32,3.638
		c-4.047,7.935-2.356,17.898,3.933,23.176c3.725,3.125,9.137,4.276,14.127,3c4.647-1.188,8.239-4.242,9.854-8.379
		c1.451-3.718,1.328-8.01-0.367-12.756c-0.982-2.749-2.359-5.318-4.05-7.655c4.51-0.878,9.225-0.609,13.61,0.744
		c-1.715,1.975-3.027,4.173-3.89,6.556c-1.844,5.101-1.029,11.163,2.128,15.822c2.721,4.016,6.856,6.403,11.348,6.551
		c0.15,0.005,0.301,0.008,0.45,0.008c3.935,0,7.67-1.692,10.562-4.797c3.397-3.647,5.126-8.71,4.624-13.544
		c-0.319-3.073-1.412-6.079-3.172-8.867c12.236-2.223,24.205,1.911,29.383,8.186c-3.125,5.2-9.542,16.11-16.178,28.785
		c-12.441,23.764-19.227,41.435-20.164,52.521c-2.104,24.866-0.104,89.121-0.019,91.844l11.994-0.379
		c-0.021-0.66-2.064-66.275-0.019-90.453C290.127,267.71,310.781,229.915,321.905,211.203z M241.248,208.032
		c-0.279,0.716-1.331,1.035-1.647,1.116c-1.25,0.319-2.665,0.086-3.442-0.565c-2.015-1.691-2.453-5.599-0.957-8.532
		c0.463-0.908,1.087-1.774,1.85-2.583c1.611,1.828,2.892,3.926,3.707,6.208C241.424,205.536,241.602,207.125,241.248,208.032z
		 M273.438,208.686c-0.351,0.375-1.065,0.992-1.839,0.976c-0.831-0.027-1.489-0.819-1.808-1.289
		c-0.993-1.467-1.312-3.527-0.776-5.009c0.618-1.71,1.811-3.109,3.203-4.235c1.55,1.751,2.501,3.634,2.688,5.434
		C275.05,205.934,274.459,207.59,273.438,208.686z"/>
</g>
<g id="Layer_1">
</g>
</svg>
