<?xml version="1.0" encoding="iso-8859-1"?>
<!-- Generator: Adobe Illustrator 18.1.1, SVG Export Plug-In . SVG Version: 6.00 Build 0)  -->
<!DOCTYPE svg PUBLIC "-//W3C//DTD SVG 1.1//EN" "http://www.w3.org/Graphics/SVG/1.1/DTD/svg11.dtd">
<svg version="1.1" xmlns="http://www.w3.org/2000/svg" xmlns:xlink="http://www.w3.org/1999/xlink" x="0px" y="0px"
	 viewBox="0 0 72 72" enable-background="new 0 0 72 72" xml:space="preserve">
<g id="Layer_4">
	<path fill="#2B3B47" d="M29.464,22.523v3.656h-0.005c0,0.005,0.005,0.007,0.005,0.01c0,1.436-1.165,2.601-2.601,2.601
		s-2.601-1.165-2.601-2.601c0-0.003,0-0.005,0-0.01h-0.011v-3.656h0.031c0.116-1.332,1.219-2.38,2.581-2.38
		c1.359,0,2.461,1.048,2.575,2.38H29.464z M48.172,21.397c-0.181-2.103-1.921-3.758-4.066-3.758c-2.151,0-3.892,1.655-4.075,3.758
		h-0.049v5.773h0.018c0,0.009,0,0.012,0,0.016c0,2.267,1.84,4.107,4.107,4.107s4.107-1.84,4.107-4.107
		c0-0.004-0.009-0.007-0.009-0.016h0.009v-5.773H48.172z M49.779,33.911c-0.052-0.101-0.129-0.181-0.239-0.193
		c-1.108-0.11-25.417-0.106-26.522,0c-0.048,0.004-0.095,0.027-0.139,0.057c-0.006,0.004-0.014,0.003-0.02,0.008
		c-0.151,0.115-0.186,0.344-0.082,0.51l0.241,0.386c0.553,0.874,1.105,1.626,1.658,2.262c0.554,0.656,1.105,1.205,1.659,1.728
		c1.101,1.022,2.213,1.766,3.315,2.412c0.45,0.264,0.655,0.324,0.906,0.43c0.018-0.013,0.046-0.024,0.065-0.036
		c1.796,0.874,3.725,1.375,5.746,1.375c1.982,0,3.876-0.482,5.643-1.324l0.004,0.002c0.298-0.138,0.597-0.258,0.898-0.423
		c1.104-0.637,2.209-1.39,3.314-2.414c0.553-0.524,1.105-1.075,1.655-1.737c0.552-0.636,1.105-1.391,1.66-2.274l0.241-0.388
		c0.03-0.052,0.052-0.112,0.056-0.177C49.844,34.038,49.812,33.973,49.779,33.911z"/>
</g>
<g id="Layer_1">
</g>
</svg>
