<?xml version="1.0" encoding="iso-8859-1"?>
<!-- Generator: Adobe Illustrator 18.1.1, SVG Export Plug-In . SVG Version: 6.00 Build 0)  -->
<!DOCTYPE svg PUBLIC "-//W3C//DTD SVG 1.1//EN" "http://www.w3.org/Graphics/SVG/1.1/DTD/svg11.dtd">
<svg version="1.1" xmlns="http://www.w3.org/2000/svg" xmlns:xlink="http://www.w3.org/1999/xlink" x="0px" y="0px"
	 viewBox="0 0 512 512" enable-background="new 0 0 512 512" xml:space="preserve">
<g id="Layer_6">
	<path fill="#59CAFC" d="M94.447,208.62H14.44c-6.627,0-12-5.373-12-12s5.373-12,12-12h80.007c6.627,0,12,5.373,12,12
		S101.075,208.62,94.447,208.62z M81.339,278.856c0-6.627-5.373-12-12-12H14.44c-6.627,0-12,5.373-12,12s5.373,12,12,12h54.899
		C75.967,290.856,81.339,285.483,81.339,278.856z M63.124,361.093c0-6.627-5.373-12-12-12H14.44c-6.627,0-12,5.373-12,12
		s5.373,12,12,12h36.684C57.751,373.093,63.124,367.72,63.124,361.093z"/>
</g>
<g id="Layer_1">
</g>
</svg>
