<?xml version="1.0" encoding="iso-8859-1"?>
<!-- Generator: Adobe Illustrator 19.2.0, SVG Export Plug-In . SVG Version: 6.00 Build 0)  -->
<!DOCTYPE svg PUBLIC "-//W3C//DTD SVG 1.1//EN" "http://www.w3.org/Graphics/SVG/1.1/DTD/svg11.dtd">
<svg version="1.1" xmlns="http://www.w3.org/2000/svg" xmlns:xlink="http://www.w3.org/1999/xlink" x="0px" y="0px"
	 viewBox="0 0 512 512" enable-background="new 0 0 512 512" xml:space="preserve">
<g id="Layer_2">
	<path fill="#2B3B47" d="M511.801,156.812c0-62.675-50.808-113.484-113.484-113.484S284.834,94.137,284.834,156.812
		c0,10.092,1.324,19.874,3.796,29.188h-34.464c2.472-9.314,3.796-19.096,3.796-29.188c0-62.675-50.808-113.484-113.484-113.484
		S30.995,94.137,30.995,156.812c0,45.331,26.582,84.448,65.005,102.63v53.056c-22-27.23-62.862-37.472-62.862-37.472
		C21.211,263.453,1,271.905,1,288.524v119.481c0,16.619,20.211,25.07,32.138,13.497c0,0,40.862-10.241,62.862-37.472v68.185
		c0,9.842,7.511,17.785,17.353,17.785h316.928c9.842,0,17.719-7.943,17.719-17.785v-193.35
		C485.774,240.441,511.801,201.668,511.801,156.812z"/>
</g>
<g id="Layer_3">
	<path fill="#8F9799" d="M230.713,156.812c0,47.626-38.609,86.235-86.235,86.235s-86.235-38.609-86.235-86.235
		s38.609-86.235,86.235-86.235S230.713,109.186,230.713,156.812z M398.589,70.578c-47.626,0-86.235,38.609-86.235,86.235
		s38.609,86.235,86.235,86.235s86.235-38.609,86.235-86.235S446.215,70.578,398.589,70.578z"/>
</g>
<g id="Layer_4">
	<circle fill="#FF473E" cx="145.177" cy="422.029" r="16.302"/>
</g>
<g id="Layer_5">
	<path fill="#8F9799" d="M226.97,435.555h-27.906c-5.604,0-10.146-4.543-10.146-10.146v-6.759c0-5.604,4.543-10.146,10.146-10.146
		h27.906c5.604,0,10.146,4.543,10.146,10.146v6.759C237.117,431.012,232.574,435.555,226.97,435.555z"/>
</g>
<g id="Layer_6">
	<path fill="#ADB8BC" d="M341.148,363.283H202.486c-5.447,0-9.863-4.416-9.863-9.863v-77.767c0-5.447,4.416-9.863,9.863-9.863
		h138.662c5.447,0,9.863,4.416,9.863,9.863v77.767C351.011,358.867,346.595,363.283,341.148,363.283z"/>
</g>
<g id="Layer_7">
	<path fill="#132028" d="M321.904,345.313H221.731c-3.719,0-6.733-3.014-6.733-6.733v-49.862c0-3.719,3.014-6.733,6.733-6.733
		h100.173c3.719,0,6.733,3.014,6.733,6.733v49.862C328.636,342.298,325.622,345.313,321.904,345.313z"/>
</g>
<g id="Layer_8">
	<path fill="#132028" d="M173.473,156.859c0,16.145-12.849,29.28-28.994,29.28c-16.145,0-29.233-13.139-29.233-29.139H58.244
		C58.244,109,97,70.578,144,70.578v57.001C161,127.579,173.473,140.714,173.473,156.859z M389.948,142.994l-3.134-43.733
		c-0.222-3.092-3.73-4.762-6.269-2.984L344.3,121.656c-2.517,1.762-2.182,5.588,0.603,6.886l39.378,18.354
		C387.04,148.182,390.165,146.03,389.948,142.994z M379.767,161.327l-42.809-9.476c-3.027-0.67-5.628,2.216-4.649,5.157
		l13.981,41.98c0.971,2.915,4.733,3.685,6.772,1.387l28.828-32.504C383.909,165.594,382.738,161.985,379.767,161.327z
		 M460.219,151.851l-42.809,9.476c-2.972,0.658-4.143,4.267-2.123,6.544l28.828,32.504c2.039,2.298,5.801,1.528,6.772-1.387
		l13.981-41.98C465.848,154.067,463.246,151.181,460.219,151.851z M394.306,174.413l-22.517,37.584
		c-1.592,2.66,0.324,6.003,3.424,6.003h44.247c3.072,0,4.992-3.289,3.456-5.949l-21.729-37.603
		C399.663,171.812,395.869,171.801,394.306,174.413z M407.732,99.261l-3.134,43.733c-0.218,3.036,2.907,5.188,5.666,3.902
		l39.378-18.354c2.785-1.298,3.12-5.124,0.603-6.886l-36.245-25.379C411.462,94.499,407.954,96.169,407.732,99.261z"/>
</g>
<g id="Layer_9">
	
		<ellipse transform="matrix(0.7071 -0.7071 0.7071 0.7071 -64.7597 139.212)" fill="#ADB8BC" cx="135.664" cy="147.778" rx="13.04" ry="9.495"/>
</g>
</svg>
