<?xml version="1.0" encoding="iso-8859-1"?>
<!-- Generator: Adobe Illustrator 19.1.0, SVG Export Plug-In . SVG Version: 6.00 Build 0)  -->
<!DOCTYPE svg PUBLIC "-//W3C//DTD SVG 1.1//EN" "http://www.w3.org/Graphics/SVG/1.1/DTD/svg11.dtd">
<svg version="1.1" xmlns="http://www.w3.org/2000/svg" xmlns:xlink="http://www.w3.org/1999/xlink" x="0px" y="0px"
	 viewBox="0 0 512 512" enable-background="new 0 0 512 512" xml:space="preserve">
<g id="Layer_9">
	<path fill="#00B89C" d="M164.065,207.036c0,7.857-2.932,14.039-16.718,26.958c-2.181,2.044-0.747,5.704,2.242,5.704h12.04
		c2.001,0,3.54,1.77,3.261,3.752l-0.787,5.594c-0.229,1.625-1.619,2.834-3.261,2.834h-34.717c-1.819,0-3.293-1.474-3.293-3.293
		v-6.502c0-0.891,0.367-1.749,1.006-2.369c19.357-18.788,23.806-24.222,23.806-30.964c0-4.511-2.707-7.218-7.128-7.218
		c-3.391,0-6.032,1.269-8.661,3.946c-1.199,1.221-3.115,1.369-4.448,0.295l-4.205-3.389c-1.493-1.203-1.66-3.436-0.338-4.825
		c4.745-4.985,11.201-8.208,19.366-8.208C156.576,189.351,164.065,197.562,164.065,207.036z"/>
</g>
<g id="Layer_1">
</g>
</svg>
