<?xml version="1.0" encoding="iso-8859-1"?>
<!-- Generator: Adobe Illustrator 19.2.0, SVG Export Plug-In . SVG Version: 6.00 Build 0)  -->
<!DOCTYPE svg PUBLIC "-//W3C//DTD SVG 1.1//EN" "http://www.w3.org/Graphics/SVG/1.1/DTD/svg11.dtd">
<svg version="1.1" id="Layer_2" xmlns="http://www.w3.org/2000/svg" xmlns:xlink="http://www.w3.org/1999/xlink" x="0px" y="0px"
	 viewBox="0 0 512 512" enable-background="new 0 0 512 512" xml:space="preserve">
<path fill="#E3E2DD" d="M502.546,464h0.03l-0.052-0.138c-0.17-0.843-0.417-1.654-0.757-2.455l-39.921-130.433
	c10.518-26.747,16.297-55.877,16.297-86.363c0-130.257-105.467-235.849-235.566-235.849S7.011,114.357,7.011,244.614
	s105.467,235.851,235.566,235.851c43.123,0,83.534-11.611,118.301-31.867L485.701,478.5c0.831,0.295,1.685,0.492,2.55,0.611
	l0.166,0.031c0,0,0.002-0.01,0-0.019c3.919,0.486,8.006-0.839,10.915-3.94C502.244,472.081,503.276,468,502.546,464z"/>
</svg>
