<?xml version="1.0" encoding="iso-8859-1"?>
<!-- Generator: Adobe Illustrator 19.2.0, SVG Export Plug-In . SVG Version: 6.00 Build 0)  -->
<!DOCTYPE svg PUBLIC "-//W3C//DTD SVG 1.1//EN" "http://www.w3.org/Graphics/SVG/1.1/DTD/svg11.dtd">
<svg version="1.1" xmlns="http://www.w3.org/2000/svg" xmlns:xlink="http://www.w3.org/1999/xlink" x="0px" y="0px"
	 viewBox="0 0 512 512" enable-background="new 0 0 512 512" xml:space="preserve">
<g id="Layer_4">
	<path fill="#FFB636" d="M457.664,423.802c-28.418-49.564-64.06-134.453-63.719-248.085c0.178-59.233-37.774-112.245-94.395-129.642
		c-6.547-2.012-12.55-3.533-19.55-4.623V27.403c0-13.242-10.758-23.976-24-23.976s-24,10.734-24,23.976v14.053
		c-65,11.299-114.018,67.829-114.018,135.877c0,112.837-35.411,197.164-63.696,246.49c-6.696,11.678-5.426,23.588,0.968,32.289
		c-0.878-1.786-1.336-3.6-1.336-5.441c0-26.063,90.532-47.191,202.203-47.191s202.201,21.128,202.201,47.191
		c0,1.501-0.313,2.984-0.9,4.449C463.201,446.514,464.112,435.049,457.664,423.802z"/>
</g>
<g id="Layer_1">
</g>
</svg>
