<?xml version="1.0" encoding="iso-8859-1"?>
<!-- Generator: Adobe Illustrator 19.2.1, SVG Export Plug-In . SVG Version: 6.00 Build 0)  -->
<!DOCTYPE svg PUBLIC "-//W3C//DTD SVG 1.1//EN" "http://www.w3.org/Graphics/SVG/1.1/DTD/svg11.dtd">
<svg version="1.1" xmlns="http://www.w3.org/2000/svg" xmlns:xlink="http://www.w3.org/1999/xlink" x="0px" y="0px"
	 viewBox="0 0 512 512" enable-background="new 0 0 512 512" xml:space="preserve">
<g id="Layer_5">
	<path fill="#B9C5C6" d="M480.844,134.37c0,2.919-2.366,5.286-5.285,5.286s-5.286-2.366-5.286-5.286s2.366-5.285,5.286-5.285
		S480.844,131.451,480.844,134.37z M475.558,161.252c-2.919,0-5.286,2.366-5.286,5.285c0,2.919,2.366,5.286,5.286,5.286
		s5.285-2.366,5.285-5.286C480.844,163.618,478.478,161.252,475.558,161.252z M475.558,144.846c-2.919,0-5.286,2.366-5.286,5.286
		s2.366,5.285,5.286,5.285s5.285-2.366,5.285-5.285S478.478,144.846,475.558,144.846z M384.609,129.085
		c-2.919,0-5.285,2.366-5.285,5.285s2.366,5.286,5.285,5.286s5.286-2.366,5.286-5.286S387.528,129.085,384.609,129.085z
		 M384.609,161.252c-2.919,0-5.285,2.366-5.285,5.285c0,2.919,2.366,5.286,5.285,5.286s5.286-2.366,5.286-5.286
		C389.894,163.618,387.528,161.252,384.609,161.252z M384.609,144.846c-2.919,0-5.285,2.366-5.285,5.286s2.366,5.285,5.285,5.285
		s5.286-2.366,5.286-5.285S387.528,144.846,384.609,144.846z"/>
</g>
<g id="Layer_1">
</g>
</svg>
