<?xml version="1.0" encoding="iso-8859-1"?>
<!-- Generator: Adobe Illustrator 19.1.0, SVG Export Plug-In . SVG Version: 6.00 Build 0)  -->
<!DOCTYPE svg PUBLIC "-//W3C//DTD SVG 1.1//EN" "http://www.w3.org/Graphics/SVG/1.1/DTD/svg11.dtd">
<svg version="1.1" xmlns="http://www.w3.org/2000/svg" xmlns:xlink="http://www.w3.org/1999/xlink" x="0px" y="0px"
	 viewBox="0 0 512 512" enable-background="new 0 0 512 512" xml:space="preserve">
<g id="Layer_2">
	<path fill="#B1B4B5" d="M296.379,333.5c-12.684,0-22.966-10.282-22.966-22.966V176.805c0-45.072-36.669-81.741-81.741-81.741
		c-45.073,0-81.742,36.669-81.742,81.741v77.78c0,12.684-10.282,22.966-22.966,22.966s-22.965-10.282-22.965-22.966v-77.78
		c0-70.399,57.273-127.673,127.673-127.673c70.398,0,127.673,57.274,127.673,127.673v133.729
		C319.345,323.218,309.062,333.5,296.379,333.5z"/>
</g>
<g id="Layer_3">
	<path fill="#FFB636" d="M328.248,490.846H55.095c-27.835,0-50.4-22.565-50.4-50.4V285.187c0-27.835,22.565-50.4,50.4-50.4h273.153
		c27.835,0,50.4,22.565,50.4,50.4v155.259C378.648,468.282,356.083,490.846,328.248,490.846z"/>
</g>
<g id="Layer_4">
	<path fill="#FFD469" d="M50.056,452.773h-1.155c-7.789,0-14.104-6.314-14.104-14.104V286.965c0-7.789,6.314-14.104,14.104-14.104
		h1.155c7.789,0,14.104,6.314,14.104,14.104v151.704C64.16,446.458,57.846,452.773,50.056,452.773z"/>
</g>
<g id="Layer_5">
	<path fill="#E2A042" d="M378.648,440.446V285.187c0-17.573-8.999-33.037-22.634-42.057l-26.705,124.929
		c-0.484,1.871-0.204,3.857,0.78,5.52l46.975,79.452C378.098,449.009,378.648,444.792,378.648,440.446z"/>
</g>
<g id="Layer_6">
	<path fill="#353F44" d="M487.844,3.002l-130.632,0c-5.223,0-9.456,4.234-9.456,9.456v29.592
		c0,53.813,15.099,106.652,44.148,151.951c11.077,17.274,22.195,30.229,30.624,30.229s19.547-12.955,30.624-30.229
		c29.049-45.299,44.148-98.138,44.148-151.951V12.459C497.301,7.236,493.067,3.002,487.844,3.002z"/>
</g>
<g id="Layer_7">
	<path fill="#48677E" d="M507.205,327.211L473.268,168.45l-0.58-0.216c-1.17-9.327-23.292-16.765-50.422-16.765
		c-27.323,0-49.56,7.545-50.436,16.965l-0.042,0.016l0,0l-33.937,158.761c-0.484,1.871-0.204,3.857,0.78,5.52l61.836,104.588
		c2.831,4.788,10.171,2.78,10.171-2.782V333.523c0-5.063-2.633-9.698-6.852-12.497c-9.867-6.546-16.113-18.11-15.092-31.054
		c1.312-16.631,14.865-30.002,31.51-31.11c19.798-1.318,36.267,14.35,36.267,33.866c0,11.9-6.125,22.366-15.393,28.425
		c-4.17,2.726-6.66,7.391-6.66,12.373v101.012c0,5.562,7.34,7.57,10.171,2.782l61.836-104.588
		C507.409,331.068,507.689,329.082,507.205,327.211z"/>
</g>
</svg>
