<?xml version="1.0" encoding="iso-8859-1"?>
<!-- Generator: Adobe Illustrator 19.2.0, SVG Export Plug-In . SVG Version: 6.00 Build 0)  -->
<!DOCTYPE svg PUBLIC "-//W3C//DTD SVG 1.1//EN" "http://www.w3.org/Graphics/SVG/1.1/DTD/svg11.dtd">
<svg version="1.1" xmlns="http://www.w3.org/2000/svg" xmlns:xlink="http://www.w3.org/1999/xlink" x="0px" y="0px"
	 viewBox="0 0 512 512" enable-background="new 0 0 512 512" xml:space="preserve">
<g id="Layer_3">
	<path fill="#FFD469" d="M277.67,322.741c0,0-0.118,0.59-0.339,1.697c-0.242,1.093-0.596,2.696-1.048,4.736
		c-0.47,2.028-1.058,4.479-1.772,7.265c-0.716,2.785-1.53,5.922-2.487,9.3c-0.93,3.395-2.009,7.027-3.148,10.868
		c-1.171,3.822-2.408,7.85-3.76,11.97c-1.312,4.146-2.785,8.355-4.24,12.657c-1.516,4.263-3.014,8.622-4.627,12.905
		c-0.796,2.148-1.593,4.297-2.386,6.437c-0.819,2.123-1.635,4.238-2.444,6.336c-1.593,4.213-3.282,8.28-4.866,12.249
		c-3.111,7.975-6.618,15.024-10.114,20.747c-1.747,2.862-3.472,5.405-5.107,7.589c-1.624,2.192-3.173,4.015-4.49,5.491
		c-1.339,1.461-2.454,2.567-3.25,3.299c-0.799,0.729-1.265,1.092-1.265,1.092c-24.479,19.056-59.77,14.659-78.826-9.82
		c-10.992-14.12-14.108-32.117-10.14-48.241c0,0,0.144-0.573,0.49-1.598c0.349-1.023,0.913-2.489,1.711-4.303
		c0.82-1.799,1.865-3.952,3.218-6.321c1.342-2.376,2.975-4.979,4.891-7.73c3.831-5.504,8.871-11.553,14.919-17.611
		c2.995-3.048,6.038-6.231,9.253-9.386c1.595-1.586,3.202-3.184,4.816-4.788c1.64-1.588,3.285-3.181,4.931-4.775
		c3.271-3.201,6.658-6.327,9.95-9.431c3.353-3.065,6.612-6.107,9.879-8.977c3.227-2.897,6.416-5.651,9.443-8.261
		c3.058-2.59,5.948-5.04,8.681-7.258c2.707-2.236,5.251-4.244,7.511-6.02c2.263-1.775,4.27-3.3,5.937-4.547
		c1.686-1.234,3.01-2.204,3.913-2.866c0.924-0.648,1.417-0.993,1.417-0.993c12.608-8.84,29.995-5.785,38.835,6.824
		C277.692,307.743,279.078,315.558,277.67,322.741z"/>
</g>
<g id="Layer_1">
</g>
</svg>
