<?xml version="1.0" encoding="iso-8859-1"?>
<!-- Generator: Adobe Illustrator 19.2.0, SVG Export Plug-In . SVG Version: 6.00 Build 0)  -->
<!DOCTYPE svg PUBLIC "-//W3C//DTD SVG 1.1//EN" "http://www.w3.org/Graphics/SVG/1.1/DTD/svg11.dtd">
<svg version="1.1" xmlns="http://www.w3.org/2000/svg" xmlns:xlink="http://www.w3.org/1999/xlink" x="0px" y="0px"
	 viewBox="0 0 512 512" enable-background="new 0 0 512 512" xml:space="preserve">
<g id="Layer_2">
	<path fill="#8E6049" d="M446.832,512H62.835c-27.885,0-50.491-22.605-50.491-50.491V318.7c0-7.967,6.459-14.426,14.426-14.426
		h456.127c7.967,0,14.426,6.459,14.426,14.426v142.809C497.322,489.395,474.717,512,446.832,512z"/>
</g>
<g id="Layer_3">
	<path fill="#68442A" d="M12.344,446.199v25.921c0,22.025,17.855,39.879,39.879,39.879h405.219
		c22.025,0,39.879-17.855,39.879-39.879v-25.921H12.344z"/>
</g>
<g id="Layer_4">
	<path fill="#332A23" d="M420.91,394.611H88.756c-11.877,0-21.505-9.628-21.505-21.505v0c0-11.877,9.628-21.505,21.505-21.505
		H420.91c11.877,0,21.505,9.628,21.505,21.505v0C442.416,384.983,432.787,394.611,420.91,394.611z"/>
</g>
<g id="Layer_5">
	<path fill="#FFD469" d="M505.202,282.935L196.19,427.03c-3.995,1.863-8.743,0.134-10.606-3.86L41.49,114.158
		c-1.863-3.995-0.134-8.743,3.86-10.606l177.494-82.767l203.453,74.051l82.767,177.494
		C510.925,276.324,509.197,281.072,505.202,282.935z"/>
</g>
<g id="Layer_6">
	<path fill="#FF473E" d="M355.648,236.308c-20.743-11.381-41.486-22.762-62.229-34.142c12.609-36.131,23.563-72.861,28.5-110.92
		c1.63-12.565-5.519-24.976-18.527-27.516c-11.848-2.313-25.878,5.899-27.516,18.527c-4.318,33.282-13.221,65.487-23.94,97.149
		c-11.814-6.482-23.629-12.964-35.443-19.446c-16.304-8.946-32.502-20.614-51.863-19.869c-12.662,0.488-22.536,12.889-21.608,25.18
		c0.986,13.052,12.48,22.097,25.18,21.608c-2.382,0.092,4.531,2.556,4.73,2.661c3.262,1.726,6.474,3.552,9.708,5.327l22.653,12.429
		c10.18,5.585,20.36,11.171,30.54,16.756c-5.288,14.159-10.607,28.307-15.684,42.543c-7.767,21.781-14.927,43.597-12.664,67.066
		c2.891,29.98,49.697,26.592,46.788-3.572c-1.771-18.364,5.425-35.946,11.616-52.916c3.708-10.166,7.505-20.3,11.291-30.437
		l57.56,31.581C361.27,292.873,382.059,250.799,355.648,236.308z"/>
</g>
<g id="Layer_7">
	<path fill="#FFB636" d="M222.843,20.785l203.453,74.051l-109.259,50.948c-16.288,7.595-35.65,0.548-43.245-15.74L222.843,20.785z"
		/>
</g>
<g id="Layer_8">
	<rect x="172.333" y="394.611" fill="#8E6049" width="102.943" height="45.389"/>
</g>
</svg>
