<?xml version="1.0" encoding="iso-8859-1"?>
<!-- Generator: Adobe Illustrator 19.2.0, SVG Export Plug-In . SVG Version: 6.00 Build 0)  -->
<!DOCTYPE svg PUBLIC "-//W3C//DTD SVG 1.1//EN" "http://www.w3.org/Graphics/SVG/1.1/DTD/svg11.dtd">
<svg version="1.1" xmlns="http://www.w3.org/2000/svg" xmlns:xlink="http://www.w3.org/1999/xlink" x="0px" y="0px"
	 viewBox="0 0 512 512" enable-background="new 0 0 512 512" xml:space="preserve">
<g id="Layer_4">
	<path fill="#96A9B2" d="M185.956,241.78l59.726,0.008c1.287,0,2.53,0.422,3.547,1.211c4.652,3.611,17.751,15.058,20.149,31.096
		c3.493,23.367,2.858,34.602,1.834,39.808c-0.483,2.455-2.481,4.316-4.964,4.629l-70.214,8.861c-4.385,0.553-7.7-3.79-6.094-7.907
		c9.616-24.656,3.152-52.609-8.7-68.539C178.425,247.162,181.241,241.779,185.956,241.78z M282.32,251.023l83.877-1.154
		l74.812-33.294c2.45-1.09,3.553-3.961,2.463-6.412c-1.091-2.45-3.96-3.554-6.412-2.462l-72.99,32.483l-81.883,1.127
		c-2.683,0.037-4.827,2.241-4.79,4.923c0.037,2.659,2.204,4.79,4.855,4.79C282.275,251.024,282.298,251.024,282.32,251.023z
		 M292.187,278.519l96.097-4.736l68.889-30.263c2.456-1.079,3.572-3.944,2.493-6.399c-1.079-2.456-3.942-3.575-6.399-2.493
		l-67.25,29.542l-94.308,4.648c-2.679,0.132-4.743,2.411-4.611,5.09c0.128,2.598,2.274,4.617,4.847,4.617
		C292.023,278.524,292.105,278.522,292.187,278.519z"/>
</g>
<g id="Layer_1">
</g>
</svg>
