<?xml version="1.0" encoding="iso-8859-1"?>
<!-- Generator: Adobe Illustrator 19.2.0, SVG Export Plug-In . SVG Version: 6.00 Build 0)  -->
<!DOCTYPE svg PUBLIC "-//W3C//DTD SVG 1.1//EN" "http://www.w3.org/Graphics/SVG/1.1/DTD/svg11.dtd">
<svg version="1.1" xmlns="http://www.w3.org/2000/svg" xmlns:xlink="http://www.w3.org/1999/xlink" x="0px" y="0px"
	 viewBox="0 0 512 512" enable-background="new 0 0 512 512" xml:space="preserve">
<g id="Layer_5">
	<path fill="#7A5039" d="M276.124,125.461h-43.21c-4.52,0-8.184-3.664-8.184-8.184s3.664-8.184,8.184-8.184h43.21
		c4.52,0,8.184,3.664,8.184,8.184S280.644,125.461,276.124,125.461z M284.308,431.536c0-4.52-3.664-8.184-8.184-8.184h-43.21
		c-4.52,0-8.184,3.664-8.184,8.184s3.664,8.184,8.184,8.184h43.21C280.644,439.72,284.308,436.056,284.308,431.536z
		 M236.258,274.407c0-4.52-3.664-8.184-8.184-8.184h-43.21c-4.52,0-8.184,3.664-8.184,8.184s3.664,8.184,8.184,8.184h43.21
		C232.594,282.591,236.258,278.927,236.258,274.407z"/>
</g>
<g id="Layer_1">
</g>
</svg>
