<?xml version="1.0" encoding="iso-8859-1"?>
<!-- Generator: Adobe Illustrator 19.2.0, SVG Export Plug-In . SVG Version: 6.00 Build 0)  -->
<!DOCTYPE svg PUBLIC "-//W3C//DTD SVG 1.1//EN" "http://www.w3.org/Graphics/SVG/1.1/DTD/svg11.dtd">
<svg version="1.1" xmlns="http://www.w3.org/2000/svg" xmlns:xlink="http://www.w3.org/1999/xlink" x="0px" y="0px"
	 viewBox="0 0 512 512" enable-background="new 0 0 512 512" xml:space="preserve">
<g id="Layer_2">
	<path fill="#CAC7BC" d="M282.525,235.985c-74.68,0-135.221,60.613-135.221,135.384c0,17.5,3.317,34.223,9.355,49.576
		l-22.916,74.876c-0.195,0.46-0.337,0.766-0.434,1.25L133.28,497h0.017c-0.419,3,0.174,4.789,1.845,6.57
		c1.67,1.78,4.016,2.606,6.266,2.327c-0.001,0.005,0,0.053,0,0.053l0.095,0.003c0.496-0.069,0.987-0.171,1.464-0.34l71.651-17.159
		c19.957,11.627,43.154,18.295,67.908,18.295c74.68,0,135.221-60.612,135.221-135.382S357.206,235.985,282.525,235.985z"/>
</g>
<g id="Layer_3">
	<path fill="#E3E2DD" d="M193.283,40.805c-93.138,0-168.641,75.594-168.641,168.845c0,21.825,4.137,42.682,11.667,61.83
		L7.73,364.862c-0.243,0.573-0.42,1.289-0.542,1.893L7.151,367h0.021c-0.522,3,0.216,5.638,2.301,7.859
		c2.083,2.22,5.008,3.083,7.814,2.736c-0.002,0.006,0-0.017,0-0.017l0.118-0.038c0.619-0.086,1.23-0.234,1.826-0.445l89.36-21.41
		c24.889,14.501,53.819,22.811,84.691,22.811c93.138,0,168.641-75.595,168.641-168.846S286.421,40.805,193.283,40.805z"/>
</g>
<g id="Layer_4">
	<path fill="#6B8DA1" d="M504.312,314.662l-0.02-0.108c-0.078-0.563-0.206-1.12-0.398-1.662l-19.482-81.329
		c13.198-22.652,20.763-48.982,20.763-77.079c0-84.767-68.8-153.484-153.669-153.484S197.836,69.718,197.836,154.484
		s68.8,153.484,153.669,153.484c19.863,0,38.846-3.765,56.272-10.618l84.989,26.01c0.522,0.221,0.817,0.382,1.366,0.493L494,323.887
		v-0.02c3,0.475,5.488-0.197,7.509-2.094c2.021-1.896,2.984-4.558,2.668-7.112C504.183,314.663,504.312,314.662,504.312,314.662z"/>
</g>
</svg>
