<?xml version="1.0" encoding="iso-8859-1"?>
<!-- Generator: Adobe Illustrator 19.2.0, SVG Export Plug-In . SVG Version: 6.00 Build 0)  -->
<!DOCTYPE svg PUBLIC "-//W3C//DTD SVG 1.1//EN" "http://www.w3.org/Graphics/SVG/1.1/DTD/svg11.dtd">
<svg version="1.1" xmlns="http://www.w3.org/2000/svg" xmlns:xlink="http://www.w3.org/1999/xlink" x="0px" y="0px"
	 viewBox="0 0 512 512" enable-background="new 0 0 512 512" xml:space="preserve">
<g id="Layer_3">
	<path fill="#B9C5C6" d="M35.468,400.194l-20.879,81.278c-0.488,1.901,1.844,3.231,3.231,1.843l50.025-50.025
		c2.292-2.292,3.222-5.583,2.574-8.76c-1.525-7.472,0.89-15.587,7.249-21.017c8.137-6.947,20.341-6.886,28.415,0.134
		c9.653,8.394,10.035,23.043,1.146,31.932c-5.438,5.438-13.032,7.404-20.03,5.902c-3.093-0.664-6.307,0.384-8.544,2.621
		l-50.024,50.024c-1.388,1.388-0.057,3.719,1.843,3.231l81.278-20.879c1.203-0.309,2.234-1.085,2.864-2.155l56.749-87.607
		c0,0-9.871-20.844-19.823-30.796c-9.952-9.952-26.313-15.339-26.313-15.339L37.624,397.33
		C36.553,397.96,35.777,398.991,35.468,400.194z"/>
</g>
<g id="Layer_1">
</g>
</svg>
