<?xml version="1.0" encoding="iso-8859-1"?>
<!-- Generator: Adobe Illustrator 19.2.0, SVG Export Plug-In . SVG Version: 6.00 Build 0)  -->
<!DOCTYPE svg PUBLIC "-//W3C//DTD SVG 1.1//EN" "http://www.w3.org/Graphics/SVG/1.1/DTD/svg11.dtd">
<svg version="1.1" xmlns="http://www.w3.org/2000/svg" xmlns:xlink="http://www.w3.org/1999/xlink" x="0px" y="0px"
	 viewBox="0 0 512 512" enable-background="new 0 0 512 512" xml:space="preserve">
<g id="Layer_2">
	<path fill="#E8E8E8" d="M378.882,279.557H133.118c-11.909,0-21.563-9.654-21.563-21.563V30.166
		c0-11.909,9.654-21.563,21.563-21.563h245.764c11.909,0,21.563,9.654,21.563,21.563v227.828
		C400.445,269.902,390.791,279.557,378.882,279.557z"/>
</g>
<g id="Layer_3">
	<path fill="#C5CFD1" d="M460.834,503.578H51.165c-23.421,0-42.408-18.987-42.408-42.408V245.265
		c0-23.422,18.987-42.409,42.409-42.409h409.668c23.422,0,42.409,18.987,42.409,42.409v215.904
		C503.243,484.591,484.256,503.578,460.834,503.578z"/>
</g>
<g id="Layer_4">
	<circle fill="#FFFFFF" cx="431.049" cy="259.611" r="19.946"/>
</g>
<g id="Layer_5">
	<circle fill="#FF473E" cx="374.059" cy="259.611" r="19.946"/>
</g>
<g id="Layer_6">
	<path fill="#1C4C5A" d="M379.074,308H132.926C106.605,308,85,329.063,85,355.384V503h9v1h314.396l0,0H427V355.384
		C427,329.063,405.395,308,379.074,308z M104,410v-54.616C104,339.215,116.757,326,132.926,326h246.148
		C395.243,326,408,339.215,408,355.384V410H104z"/>
</g>
<g id="Layer_7">
	<path fill="#1C4C5A" d="M232.372,68.481h-79.606c-3.46,0-6.266-2.806-6.266-6.266s2.806-6.266,6.266-6.266h79.606
		c3.46,0,6.266,2.806,6.266,6.266S235.832,68.481,232.372,68.481z M370.169,62.215c0-3.46-2.805-6.266-6.266-6.266h-100.75
		c-3.461,0-6.266,2.806-6.266,6.266s2.805,6.266,6.266,6.266h100.75C367.364,68.481,370.169,65.675,370.169,62.215z
		 M357.998,158.282c0-3.46-2.805-6.266-6.266-6.266H229.863c-3.46,0-6.266,2.806-6.266,6.266s2.806,6.266,6.266,6.266h121.869
		C355.193,164.548,357.998,161.743,357.998,158.282z M328.779,110.249c0-3.46-2.805-6.266-6.266-6.266H152.765
		c-3.46,0-6.266,2.806-6.266,6.266s2.806,6.266,6.266,6.266h169.749C325.975,116.515,328.779,113.709,328.779,110.249z
		 M202.065,158.282c0-3.46-2.806-6.266-6.266-6.266h-43.034c-3.46,0-6.266,2.806-6.266,6.266s2.806,6.266,6.266,6.266h43.034
		C199.26,164.548,202.065,161.743,202.065,158.282z"/>
</g>
</svg>
