<?xml version="1.0" encoding="iso-8859-1"?>
<!-- Generator: Adobe Illustrator 19.2.0, SVG Export Plug-In . SVG Version: 6.00 Build 0)  -->
<!DOCTYPE svg PUBLIC "-//W3C//DTD SVG 1.1//EN" "http://www.w3.org/Graphics/SVG/1.1/DTD/svg11.dtd">
<svg version="1.1" xmlns="http://www.w3.org/2000/svg" xmlns:xlink="http://www.w3.org/1999/xlink" x="0px" y="0px"
	 viewBox="0 0 512 512" enable-background="new 0 0 512 512" xml:space="preserve">
<g id="Layer_8">
	<path fill="#1C4C5A" d="M273.149,316.392H154.283c-8.524,0-15.497-6.974-15.497-15.497v-8.687c0-8.524,6.974-15.497,15.497-15.497
		h118.866c8.524,0,15.497,6.974,15.497,15.497v8.687C288.646,309.418,281.672,316.392,273.149,316.392z M326.307,278.068
		c-4.945,0-8.953,4.008-8.953,8.953s4.008,8.953,8.953,8.953s8.953-4.008,8.953-8.953S331.251,278.068,326.307,278.068z
		 M335.26,94.059v-5.278c0-4.877-3.954-8.831-8.831-8.831h-138.87c-4.877,0-8.831,3.954-8.831,8.831v5.278
		c0,4.877,3.954,8.831,8.831,8.831h138.87C331.306,102.89,335.26,98.936,335.26,94.059z"/>
</g>
<g id="Layer_1">
</g>
</svg>
