<?xml version="1.0" encoding="iso-8859-1"?>
<!-- Generator: Adobe Illustrator 19.2.0, SVG Export Plug-In . SVG Version: 6.00 Build 0)  -->
<!DOCTYPE svg PUBLIC "-//W3C//DTD SVG 1.1//EN" "http://www.w3.org/Graphics/SVG/1.1/DTD/svg11.dtd">
<svg version="1.1" xmlns="http://www.w3.org/2000/svg" xmlns:xlink="http://www.w3.org/1999/xlink" x="0px" y="0px"
	 viewBox="0 0 512 512" enable-background="new 0 0 512 512" xml:space="preserve">
<g id="Layer_5">
	<path fill="#0074A8" d="M354.595,222.384c-5.045,0-10.017-2.341-13.193-6.745c-5.249-7.278-3.605-17.434,3.672-22.684l0,0
		c0.306-0.221,30.888-22.357,59.516-48.625c48.596-44.592,47.453-60.058,47.296-61.104c-0.017-0.019-0.04-0.044-0.069-0.073
		c-6.346-6.346-6.346-16.635,0-22.981c6.346-6.347,16.635-6.346,22.98,0c7.059,7.059,10.345,16.312,9.505,26.76
		c-2.314,28.776-37.272,63.114-63.365,86.439c-28.277,25.277-55.695,45.11-56.849,45.942
		C361.213,221.386,357.888,222.384,354.595,222.384z"/>
</g>
<g id="Layer_1">
</g>
</svg>
