<?xml version="1.0" encoding="iso-8859-1"?>
<!-- Generator: Adobe Illustrator 19.2.0, SVG Export Plug-In . SVG Version: 6.00 Build 0)  -->
<!DOCTYPE svg PUBLIC "-//W3C//DTD SVG 1.1//EN" "http://www.w3.org/Graphics/SVG/1.1/DTD/svg11.dtd">
<svg version="1.1" xmlns="http://www.w3.org/2000/svg" xmlns:xlink="http://www.w3.org/1999/xlink" x="0px" y="0px"
	 viewBox="0 0 512 512" enable-background="new 0 0 512 512" xml:space="preserve">
<g id="Layer_2">
	<path fill="#819096" d="M79.749,223.087c-5.523,0-10-4.477-10-10c0-42.927,9.417-74.719,27.988-94.492
		c14.667-15.616,34.491-23.533,58.922-23.533c31.007,0,52.289,13.112,72.869,25.792c21.902,13.495,42.59,26.241,76.418,26.241
		c37.646,0,49.844-13.933,55.743-24.414c8.705-15.466,10.489-37.834,10.489-66.66c0-5.523,4.478-10,10-10s10,4.477,10,10
		c0,25.772-1.009,55.06-13.062,76.471c-13.106,23.284-37.041,34.603-73.171,34.603c-39.495,0-64.685-15.521-86.91-29.214
		c-19.874-12.245-37.038-22.82-62.378-22.82c-18.689,0-33.609,5.795-44.344,17.225c-14.975,15.943-22.567,43.128-22.567,80.8
		C89.749,218.61,85.272,223.087,79.749,223.087z"/>
</g>
<g id="Layer_3">
	<path fill="#ADB8BC" d="M93.601,255.764H65.898c-7.313,0-13.241-5.928-13.241-13.241v-27.703c0-7.313,5.928-13.241,13.241-13.241
		h27.703c7.313,0,13.241,5.928,13.241,13.241v27.703C106.841,249.836,100.913,255.764,93.601,255.764z"/>
</g>
<g id="Layer_4">
	<path fill="#C5CFD1" d="M482.529,486.915H28.181c-13.353,0-24.178-10.825-24.178-24.178V256.293
		c0-13.353,10.825-24.178,24.178-24.178h454.347c13.353,0,24.178,10.825,24.178,24.178v206.443
		C506.707,476.09,495.882,486.915,482.529,486.915z"/>
</g>
<g id="Layer_5">
	<path fill="#597B91" d="M382.18,418.469v27.161c0,4.352-3.528,7.881-7.881,7.881H136.253c-4.352,0-7.881-3.528-7.881-7.881v-27.161
		c0-4.352,3.528-7.881,7.881-7.881h238.047C378.652,410.589,382.18,414.117,382.18,418.469z M93.329,340.505H66.169
		c-4.352,0-7.881,3.528-7.881,7.881v27.161c0,4.352,3.528,7.881,7.881,7.881h27.161c4.352,0,7.881-3.528,7.881-7.881v-27.161
		C101.21,344.033,97.682,340.505,93.329,340.505z M163.572,340.505h-27.161c-4.352,0-7.881,3.528-7.881,7.881v27.161
		c0,4.352,3.528,7.881,7.881,7.881h27.161c4.352,0,7.881-3.528,7.881-7.881v-27.161
		C171.452,344.033,167.924,340.505,163.572,340.505z M233.814,340.505h-27.161c-4.352,0-7.881,3.528-7.881,7.881v27.161
		c0,4.352,3.528,7.881,7.881,7.881h27.161c4.352,0,7.881-3.528,7.881-7.881v-27.161
		C241.695,344.033,238.167,340.505,233.814,340.505z M304.057,340.505h-27.161c-4.352,0-7.881,3.528-7.881,7.881v27.161
		c0,4.352,3.528,7.881,7.881,7.881h27.161c4.352,0,7.881-3.528,7.881-7.881v-27.161
		C311.937,344.033,308.409,340.505,304.057,340.505z M374.299,340.505h-27.161c-4.352,0-7.881,3.528-7.881,7.881v27.161
		c0,4.352,3.528,7.881,7.881,7.881h27.161c4.352,0,7.881-3.528,7.881-7.881v-27.161C382.18,344.033,378.652,340.505,374.299,340.505
		z M444.542,340.505h-27.161c-4.352,0-7.881,3.528-7.881,7.881v27.161c0,4.352,3.528,7.881,7.881,7.881h27.161
		c4.352,0,7.881-3.528,7.881-7.881v-27.161C452.422,344.033,448.894,340.505,444.542,340.505z M93.329,272.092H66.169
		c-4.352,0-7.881,3.528-7.881,7.881v27.161c0,4.352,3.528,7.881,7.881,7.881h27.161c4.352,0,7.881-3.528,7.881-7.881v-27.161
		C101.21,275.621,97.682,272.092,93.329,272.092z M163.572,272.092h-27.161c-4.352,0-7.881,3.528-7.881,7.881v27.161
		c0,4.352,3.528,7.881,7.881,7.881h27.161c4.352,0,7.881-3.528,7.881-7.881v-27.161
		C171.452,275.621,167.924,272.092,163.572,272.092z M233.814,272.092h-27.161c-4.352,0-7.881,3.528-7.881,7.881v27.161
		c0,4.352,3.528,7.881,7.881,7.881h27.161c4.352,0,7.881-3.528,7.881-7.881v-27.161
		C241.695,275.621,238.167,272.092,233.814,272.092z M304.057,272.092h-27.161c-4.352,0-7.881,3.528-7.881,7.881v27.161
		c0,4.352,3.528,7.881,7.881,7.881h27.161c4.352,0,7.881-3.528,7.881-7.881v-27.161
		C311.937,275.621,308.409,272.092,304.057,272.092z M374.299,272.092h-27.161c-4.352,0-7.881,3.528-7.881,7.881v27.161
		c0,4.352,3.528,7.881,7.881,7.881h27.161c4.352,0,7.881-3.528,7.881-7.881v-27.161C382.18,275.621,378.652,272.092,374.299,272.092
		z M444.542,272.092h-27.161c-4.352,0-7.881,3.528-7.881,7.881v27.161c0,4.352,3.528,7.881,7.881,7.881h27.161
		c4.352,0,7.881-3.528,7.881-7.881v-27.161C452.422,275.621,448.894,272.092,444.542,272.092z"/>
</g>
</svg>
