<?xml version="1.0" encoding="iso-8859-1"?>
<!-- Generator: Adobe Illustrator 19.2.0, SVG Export Plug-In . SVG Version: 6.00 Build 0)  -->
<!DOCTYPE svg PUBLIC "-//W3C//DTD SVG 1.1//EN" "http://www.w3.org/Graphics/SVG/1.1/DTD/svg11.dtd">
<svg version="1.1" xmlns="http://www.w3.org/2000/svg" xmlns:xlink="http://www.w3.org/1999/xlink" x="0px" y="0px"
	 viewBox="0 0 512 512" enable-background="new 0 0 512 512" xml:space="preserve">
<g id="Layer_2">
	<path fill="#2B2622" d="M74.52,467.52l-53.626,31.374c-2.595,1.518-5.928,0.645-7.446-1.949c-1.027-1.755-0.955-3.856,0-5.497
		l31.374-53.626c6.054-10.348,19.351-13.829,29.698-7.775c10.348,6.054,13.829,19.35,7.775,29.698
		C80.36,463.052,77.601,465.702,74.52,467.52z"/>
</g>
<g id="Layer_3">
	<path fill="#59CAFC" d="M363.783,154.206c-20.615-23.734-56.567-26.263-80.302-5.648c0,0-1.187,1.031-3.371,3.004
		c-2.173,1.984-5.374,4.88-9.339,8.675c-4.006,3.754-8.755,8.428-14.211,13.781c-1.025,1.015-2.078,2.066-3.145,3.135
		c-4.218,3.277-7.99,7.101-11.186,11.383c-1.206,1.243-2.424,2.503-3.665,3.792c-6.54,6.764-13.482,14.233-20.822,22.136
		c-7.335,7.909-15.106,16.212-23.238,24.708c-8.151,8.478-16.573,17.239-25.131,26.142c-8.575,8.885-17.314,17.884-25.917,27.019
		c-8.605,9.132-17.14,18.335-25.309,27.626c-8.219,9.242-16.097,18.546-23.564,27.708c-7.469,9.16-14.528,18.175-21.109,26.837
		c-3.284,4.337-6.485,8.55-9.481,12.725c-2.968,4.203-5.711,8.388-8.228,12.523c-5.004,8.3-9.117,16.381-12.344,23.963
		c-3.245,7.563-5.653,14.579-7.368,20.624c-1.701,6.059,25.891,33.651,31.95,31.95c6.045-1.716,13.06-4.123,20.624-7.368
		c7.582-3.227,15.663-7.34,23.963-12.344c4.135-2.517,8.32-5.26,12.523-8.228c4.175-2.996,8.388-6.197,12.725-9.481
		c8.662-6.581,17.677-13.641,26.837-21.109c9.162-7.467,18.467-15.346,27.708-23.564c9.291-8.169,18.494-16.704,27.626-25.309
		c9.135-8.602,18.134-17.341,27.019-25.917c8.902-8.558,17.663-16.98,26.142-25.131c8.496-8.133,16.8-15.904,24.708-23.239
		c7.064-6.56,13.777-12.801,19.953-18.722c9.794-5.317,17.905-13.328,23.37-23.029c4.157-4.238,7.841-8.01,10.904-11.278
		c3.795-3.965,6.691-7.166,8.675-9.339c1.973-2.184,3.004-3.371,3.004-3.371C382.121,207.792,382.622,175.895,363.783,154.206z"/>
</g>
<g id="Layer_4">
	<path fill="#0096D1" d="M486.692,25.649L486.692,25.649c-31.031-31.031-81.343-31.031-112.375,0L251.593,148.373
		c-0.603,0.603-1.147,1.241-1.661,1.896c-16.531,14.452-27.099,35.556-27.499,59.147c5.622-6.041,11.002-11.784,16.131-17.089
		c1.242-1.289,2.46-2.549,3.665-3.792c3.196-4.283,6.968-8.107,11.186-11.383c0.01-0.01,0.02-0.02,0.03-0.03
		c10.006-7.762,22.564-12.391,36.208-12.391c32.661,0,59.138,26.477,59.138,59.138c0,10.524-2.757,20.401-7.576,28.962
		c-0.005,0.005-0.01,0.01-0.016,0.016c-5.465,9.701-13.577,17.712-23.37,23.029c-5.078,4.869-10.534,9.966-16.235,15.266
		c0.393,0.006,0.782,0.03,1.177,0.03c28.264,0,53.103-14.602,67.432-36.661l116.489-116.489
		C517.724,106.992,517.724,56.68,486.692,25.649z"/>
</g>
<g id="Layer_5">
	<path fill="#0074A8" d="M354.595,222.384c-5.045,0-10.017-2.341-13.193-6.745c-5.249-7.278-3.605-17.434,3.672-22.684l0,0
		c0.306-0.221,30.888-22.357,59.516-48.625c48.596-44.592,47.453-60.058,47.296-61.104c-0.017-0.019-0.04-0.044-0.069-0.073
		c-6.346-6.346-6.346-16.635,0-22.981c6.346-6.347,16.635-6.346,22.98,0c7.059,7.059,10.345,16.312,9.505,26.76
		c-2.314,28.776-37.272,63.114-63.365,86.439c-28.277,25.277-55.695,45.11-56.849,45.942
		C361.213,221.386,357.888,222.384,354.595,222.384z"/>
</g>
</svg>
