<?xml version="1.0" encoding="iso-8859-1"?>
<!-- Generator: Adobe Illustrator 19.2.0, SVG Export Plug-In . SVG Version: 6.00 Build 0)  -->
<!DOCTYPE svg PUBLIC "-//W3C//DTD SVG 1.1//EN" "http://www.w3.org/Graphics/SVG/1.1/DTD/svg11.dtd">
<svg version="1.1" xmlns="http://www.w3.org/2000/svg" xmlns:xlink="http://www.w3.org/1999/xlink" x="0px" y="0px"
	 viewBox="0 0 512 512" enable-background="new 0 0 512 512" xml:space="preserve">
<g id="Layer_3">
	<path fill="#E0E0E0" d="M473.477,337.793l-45.639-127.294C415.415,184.551,387,166.517,354,162.8v-41.513
		c0-13.518-10.982-24.476-24.5-24.476S305,107.768,305,121.286V162h-98v-40.714c0-13.518-10.982-24.476-24.5-24.476
		S158,107.768,158,121.286V162.8c-33,3.717-61.415,21.751-73.838,47.7L38.595,337.793c-6.415,13.399-8.321,28.008-4.948,42.143
		C48.116,440.573,112.91,454,190.697,454h130.607c77.787,0,142.617-13.427,157.086-74.064
		C481.762,365.801,479.893,351.192,473.477,337.793z"/>
</g>
<g id="Layer_1">
</g>
</svg>
