<?xml version="1.0" encoding="iso-8859-1"?>
<!-- Generator: Adobe Illustrator 19.2.0, SVG Export Plug-In . SVG Version: 6.00 Build 0)  -->
<!DOCTYPE svg PUBLIC "-//W3C//DTD SVG 1.1//EN" "http://www.w3.org/Graphics/SVG/1.1/DTD/svg11.dtd">
<svg version="1.1" xmlns="http://www.w3.org/2000/svg" xmlns:xlink="http://www.w3.org/1999/xlink" x="0px" y="0px"
	 viewBox="0 0 512 512" enable-background="new 0 0 512 512" xml:space="preserve">
<g id="Layer_3">
	<path fill="#FF473E" d="M431.396,144.634c7.882-12.424,11.166-27.045,9.245-41.169c-2.087-15.349-10.142-28.828-22.682-37.954
		c-9.559-6.957-21.683-10.788-34.141-10.789c-19.614-0.001-37.159,9.194-46.931,24.597c-19.473,30.694-43.366,61.363-74.265,95.216
		l-3.833-5.228l-16.622-22.672c-2.582-3.522-5.116-7.136-7.799-10.963C219.67,114.706,203.01,90.942,174.57,78.99
		c-6.488-2.727-13.399-4.109-20.543-4.109c-23.657,0-45.973,15.346-54.268,37.321c-9.964,26.396,1.024,55.573,25.144,69.917
		c0.216,0.255,0.442,0.516,0.678,0.785c1.245,1.42,2.566,2.803,3.463,3.731c1.846,2.463,3.67,4.978,5.588,7.621
		c1.114,1.536,2.228,3.072,3.35,4.601l23.103,31.51l15.122,20.624l4.77,6.506c-11.727,11.539-23.668,23.341-35.342,35.169
		c-26.913,27.266-52.158,54.814-65.297,91.932c-6.383,18.033-4.078,36.197,6.489,51.148c11.164,15.794,30.315,25.606,49.979,25.606
		c11.06,0,21.546-3.132,30.326-9.058c9.605-6.483,16.897-16.168,21.088-28.008c6.909-19.518,22.962-35.448,39.959-52.313
		c1.534-1.522,3.063-3.04,4.582-4.556c5.511-5.503,11.102-11.04,16.679-16.541l43.66,59.549
		c10.809,14.742,26.158,22.86,43.221,22.86c21.497,0,42.8-13.536,53.01-33.683c9.804-19.344,7.842-41.552-5.247-59.404
		l-42.309-57.706l-10.204-13.917c17.844-18.732,32.889-35.478,46.622-51.867C398.917,191.972,416.321,168.397,431.396,144.634z"/>
</g>
<g id="Layer_1">
</g>
</svg>
