<?xml version="1.0" encoding="iso-8859-1"?>
<!-- Generator: Adobe Illustrator 19.2.0, SVG Export Plug-In . SVG Version: 6.00 Build 0)  -->
<!DOCTYPE svg PUBLIC "-//W3C//DTD SVG 1.1//EN" "http://www.w3.org/Graphics/SVG/1.1/DTD/svg11.dtd">
<svg version="1.1" xmlns="http://www.w3.org/2000/svg" xmlns:xlink="http://www.w3.org/1999/xlink" x="0px" y="0px"
	 viewBox="0 0 512 512" enable-background="new 0 0 512 512" xml:space="preserve">
<g id="Layer_2">
	<path fill="#819096" d="M165.202,362.23c-1.519,0-3.022-0.05-4.514-0.15c-16.312-1.096-31.03-8.098-43.745-20.812
		c-28.107-28.107-20.455-69.955-13.703-106.877c5.63-30.786,10.948-59.865-4.43-75.243C71.956,132.293,43.713,143.359,22.107,156
		c-4.521,2.643-10.332,1.125-12.977-3.397c-2.645-4.521-1.125-10.332,3.397-12.977c39.179-22.921,72.722-20.867,99.697,6.108
		c22.415,22.415,15.939,57.825,9.677,92.07c-6.202,33.913-12.614,68.98,8.456,90.051c17.746,17.745,39.548,20.089,66.652,7.167
		c25.739-12.271,50.959-35.934,67.69-52.665c3.704-3.703,9.71-3.703,13.414,0c3.704,3.704,3.704,9.71,0,13.414
		c-17.722,17.721-44.563,42.845-72.94,56.374C191.118,358.847,177.694,362.23,165.202,362.23z"/>
</g>
<g id="Layer_3">
	<path fill="#C5CFD1" d="M491.992,437.03H190.917c-7.953,0-14.4-6.447-14.4-14.4V272.092c0-91.093,73.845-164.938,164.938-164.938h0
		c91.093,0,164.938,73.845,164.938,164.938V422.63C506.392,430.583,499.945,437.03,491.992,437.03z"/>
</g>
<g id="Layer_4">
	<circle fill="#819096" cx="341.454" cy="272.092" r="101.576"/>
</g>
<g id="Layer_5">
	<circle fill="#1C4C5A" cx="341.454" cy="272.092" r="67.393"/>
</g>
<g id="Layer_6">
	<path fill="#ADB8BC" d="M176.711,264.127c2.223-46.75,23.907-88.401,57.134-117.031l10.541,12.342
		c5.19,6.078,4.943,15.068-0.527,20.896c-18.405,19.612-30.971,45.143-34.902,70.893c-1.199,7.851-7.995,13.611-15.934,13.378
		L176.711,264.127z M449.064,147.096l-10.503,12.331c-5.193,6.097-4.925,15.114,0.584,20.926
		c18.67,19.697,31.054,44.834,34.863,70.752c1.157,7.871,7.95,13.667,15.903,13.455l16.286-0.434
		C503.974,217.377,482.29,175.726,449.064,147.096z"/>
</g>
</svg>
