<?xml version="1.0" encoding="iso-8859-1"?>
<!-- Generator: Adobe Illustrator 19.2.0, SVG Export Plug-In . SVG Version: 6.00 Build 0)  -->
<!DOCTYPE svg PUBLIC "-//W3C//DTD SVG 1.1//EN" "http://www.w3.org/Graphics/SVG/1.1/DTD/svg11.dtd">
<svg version="1.1" xmlns="http://www.w3.org/2000/svg" xmlns:xlink="http://www.w3.org/1999/xlink" x="0px" y="0px"
	 viewBox="0 0 512 512" enable-background="new 0 0 512 512" xml:space="preserve">
<g id="Layer_7">
	<path fill="#1C4C5A" d="M370,211.088c0-8.885-7.203-16.088-16.088-16.088H51.088C42.203,195,35,202.203,35,211.088v113.823
		C35,333.797,42.203,341,51.088,341h302.824c8.885,0,16.088-7.203,16.088-16.088V211.088z M359,324.912
		c0,2.81-2.278,5.088-5.088,5.088H51.088c-2.81,0-5.088-2.278-5.088-5.088V211.088c0-2.81,2.278-5.088,5.088-5.088h302.824
		c2.81,0,5.088,2.278,5.088,5.088V324.912z"/>
</g>
<g id="Layer_1">
</g>
</svg>
