<?xml version="1.0" encoding="iso-8859-1"?>
<!-- Generator: Adobe Illustrator 19.2.0, SVG Export Plug-In . SVG Version: 6.00 Build 0)  -->
<!DOCTYPE svg PUBLIC "-//W3C//DTD SVG 1.1//EN" "http://www.w3.org/Graphics/SVG/1.1/DTD/svg11.dtd">
<svg version="1.1" xmlns="http://www.w3.org/2000/svg" xmlns:xlink="http://www.w3.org/1999/xlink" x="0px" y="0px"
	 viewBox="0 0 512 512" enable-background="new 0 0 512 512" xml:space="preserve">
<g id="Layer_2">
	<path fill="#E3E2DD" d="M267.206,8.765c-130.1,0-235.566,105.594-235.566,235.851c0,30.486,5.778,59.62,16.297,86.367
		L8.015,461.423c-0.339,0.801-0.586,1.596-0.757,2.439L7.206,464h0.03c-0.729,4,0.302,8.081,3.214,11.183
		c2.909,3.101,6.996,4.409,10.915,3.924c-0.002,0.009,0,0.027,0,0.027l0.165-0.027c0.865-0.12,1.719-0.314,2.55-0.609l124.823-29.9
		c34.767,20.256,75.178,31.867,118.301,31.867c130.1,0,235.566-105.594,235.566-235.85S397.305,8.765,267.206,8.765z"/>
</g>
<g id="Layer_1">
</g>
</svg>
