<?xml version="1.0" encoding="iso-8859-1"?>
<!-- Generator: Adobe Illustrator 19.2.0, SVG Export Plug-In . SVG Version: 6.00 Build 0)  -->
<!DOCTYPE svg PUBLIC "-//W3C//DTD SVG 1.1//EN" "http://www.w3.org/Graphics/SVG/1.1/DTD/svg11.dtd">
<svg version="1.1" xmlns="http://www.w3.org/2000/svg" xmlns:xlink="http://www.w3.org/1999/xlink" x="0px" y="0px"
	 viewBox="0 0 512 512" enable-background="new 0 0 512 512" xml:space="preserve">
<g id="Layer_8">
	<path fill="#FFFFFF" d="M360.428,306.938c2.378-1.676,5.524-2.337,8.805-1.352c4.139,1.242,6.885,5.178,6.885,9.5l0,0
		c0,0.04-0.033,0.073-0.073,0.073h-96.041c-2.143,0-3.728-2.036-3.161-4.103c1.798-6.565,7.807-11.389,14.943-11.389
		c0-7.605,6.165-13.771,13.771-13.771s13.771,6.165,13.771,13.771c0-12.174,10.248-21.955,22.588-21.187
		c10.186,0.634,18.634,8.654,19.741,18.8c0.382,3.5-0.088,6.853-1.228,9.877V306.938z M183.889,203.175
		c-2.378-1.676-5.524-2.337-8.805-1.352c-4.139,1.242-6.885,5.178-6.885,9.5l0,0c0,0.04,0.033,0.073,0.073,0.073h96.041
		c2.143,0,3.728-2.036,3.161-4.103c-1.798-6.565-7.807-11.389-14.943-11.389c0-7.605-6.165-13.771-13.771-13.771
		c-7.605,0-13.771,6.165-13.771,13.771c0-12.174-10.248-21.955-22.588-21.187c-10.186,0.634-18.634,8.654-19.741,18.8
		c-0.382,3.5,0.088,6.853,1.228,9.877V203.175z"/>
</g>
<g id="Layer_1">
</g>
</svg>
