<?xml version="1.0" encoding="iso-8859-1"?>
<!-- Generator: Adobe Illustrator 19.2.0, SVG Export Plug-In . SVG Version: 6.00 Build 0)  -->
<!DOCTYPE svg PUBLIC "-//W3C//DTD SVG 1.1//EN" "http://www.w3.org/Graphics/SVG/1.1/DTD/svg11.dtd">
<svg version="1.1" xmlns="http://www.w3.org/2000/svg" xmlns:xlink="http://www.w3.org/1999/xlink" x="0px" y="0px"
	 viewBox="0 0 512 512" enable-background="new 0 0 512 512" xml:space="preserve">
<g id="Layer_2">
	<path fill="#C6965C" d="M485.516,321.303H81.787c-4.271,0-7.733-3.462-7.733-7.733V152.612c0-4.271,3.462-7.733,7.733-7.733
		h403.729c4.271,0,7.733,3.462,7.733,7.733V313.57C493.249,317.841,489.787,321.303,485.516,321.303z"/>
</g>
<g id="Layer_3">
	<path fill="#EAC083" d="M457.864,321.303H54.136c-4.271,0-7.733-3.462-7.733-7.733V152.612c0-4.271,3.462-7.733,7.733-7.733
		h403.729c4.271,0,7.733,3.462,7.733,7.733V313.57C465.597,317.841,462.135,321.303,457.864,321.303z"/>
</g>
<g id="Layer_4">
	<path fill="#8E6049" d="M501.054,212.651h-93.177v220.458h93.177c5.965,0,10.8-4.835,10.8-10.8V223.451
		C511.854,217.486,507.019,212.651,501.054,212.651z"/>
</g>
<g id="Layer_5">
	<path fill="#F9E7C0" d="M430.213,321.303H26.484c-4.271,0-7.733-3.462-7.733-7.733V152.612c0-4.271,3.462-7.733,7.733-7.733
		h403.729c4.271,0,7.733,3.462,7.733,7.733V313.57C437.946,317.841,434.484,321.303,430.213,321.303z"/>
</g>
<g id="Layer_6">
	<path fill="#597B91" d="M401.872,188.5H55c-3.038,0-5.5-2.462-5.5-5.5s2.462-5.5,5.5-5.5h346.872c3.037,0,5.5,2.462,5.5,5.5
		S404.909,188.5,401.872,188.5z M284.546,223.083c0-3.038-2.463-5.5-5.5-5.5H55c-3.038,0-5.5,2.462-5.5,5.5s2.462,5.5,5.5,5.5
		h224.046C282.083,228.583,284.546,226.121,284.546,223.083z M384.5,263.166c0-3.037-2.463-5.5-5.5-5.5H252.998
		c-3.038,0-5.5,2.463-5.5,5.5s2.462,5.5,5.5,5.5H379C382.037,268.666,384.5,266.203,384.5,263.166z M218.989,263.166
		c0-3.037-2.462-5.5-5.5-5.5H55c-3.038,0-5.5,2.463-5.5,5.5s2.462,5.5,5.5,5.5h158.489
		C216.526,268.666,218.989,266.203,218.989,263.166z"/>
</g>
<g id="Layer_7">
	<path fill="#AF773F" d="M320.962,217.97l-41.461,57.267c-2.031,2.805-5.284,4.467-8.748,4.467h-82.211
		c-3.464,0-6.717-1.661-8.748-4.467l-41.461-57.267c-2.419-3.341-6.293-5.319-10.418-5.319l-115.053,0.054
		C5.758,212.705,0,218.463,0,225.567v196.742c0,5.965,4.835,10.8,10.8,10.8h435.574c5.965,0,10.8-4.835,10.8-10.8V225.567
		c0-7.103-5.758-12.862-12.862-12.862l-112.933-0.054C327.255,212.651,323.38,214.629,320.962,217.97z"/>
</g>
</svg>
