<?xml version="1.0" encoding="iso-8859-1"?>
<!-- Generator: Adobe Illustrator 19.2.0, SVG Export Plug-In . SVG Version: 6.00 Build 0)  -->
<!DOCTYPE svg PUBLIC "-//W3C//DTD SVG 1.1//EN" "http://www.w3.org/Graphics/SVG/1.1/DTD/svg11.dtd">
<svg version="1.1" xmlns="http://www.w3.org/2000/svg" xmlns:xlink="http://www.w3.org/1999/xlink" x="0px" y="0px"
	 viewBox="0 0 512 512" enable-background="new 0 0 512 512" xml:space="preserve">
<g id="Layer_7">
	<path fill="#445056" d="M140.779,356.585l-55.915,9.094c-0.264,0.043-0.527,0.063-0.786,0.063c-2.339,0-4.4-1.694-4.788-4.078
		c-0.431-2.647,1.366-5.143,4.014-5.573l64.692-10.521C145.992,349.396,143.595,353.082,140.779,356.585z M68.683,339.154
		c0.259,0,0.521-0.021,0.786-0.063l85.434-13.894c0.589-3.304,0.957-6.652,1.118-10.023l-88.111,14.33
		c-2.647,0.431-4.444,2.926-4.014,5.573C64.283,337.46,66.344,339.154,68.683,339.154z"/>
</g>
<g id="Layer_1">
</g>
</svg>
