<?xml version="1.0" encoding="iso-8859-1"?>
<!-- Generator: Adobe Illustrator 19.2.0, SVG Export Plug-In . SVG Version: 6.00 Build 0)  -->
<!DOCTYPE svg PUBLIC "-//W3C//DTD SVG 1.1//EN" "http://www.w3.org/Graphics/SVG/1.1/DTD/svg11.dtd">
<svg version="1.1" xmlns="http://www.w3.org/2000/svg" xmlns:xlink="http://www.w3.org/1999/xlink" x="0px" y="0px"
	 viewBox="0 0 512 512" enable-background="new 0 0 512 512" xml:space="preserve">
<g id="Layer_13">
	<path fill="#332A23" d="M264,8.761V9h-13V8.695c0,0,0.039-0.006,0.039-0.006C221.254,8.69,213,28.44,213,46.893
		c0,18.452,0,10.265,0,18.452c0,3.287,2.526,6.214,4.07,1.404c2.301-7.171,3.293-36.746,13.789-27.761
		c7.516,6.434,48.343,5.023,44.729,0.603c-1.065-1.303-2.155-2.643-3.252-4.001c17.758,8.982,21.014,27.838,22.239,30.093
		c2.343,4.311,3.426,3.345,3.426-0.546c0-9.311,0,0,0-16.858C298,31.963,291,10.148,264,8.761z"/>
</g>
<g id="Layer_1">
</g>
</svg>
