<?xml version="1.0" encoding="iso-8859-1"?>
<!-- Generator: Adobe Illustrator 19.2.0, SVG Export Plug-In . SVG Version: 6.00 Build 0)  -->
<!DOCTYPE svg PUBLIC "-//W3C//DTD SVG 1.1//EN" "http://www.w3.org/Graphics/SVG/1.1/DTD/svg11.dtd">
<svg version="1.1" xmlns="http://www.w3.org/2000/svg" xmlns:xlink="http://www.w3.org/1999/xlink" x="0px" y="0px"
	 viewBox="0 0 512 512" enable-background="new 0 0 512 512" xml:space="preserve">
<g id="Layer_12">
	<path fill="#CE8E63" d="M256.024,90.341c-0.001,0-0.003,0-0.004,0c-2.812-0.001-5.371-1.398-6.844-3.735
		c-0.488-0.774-0.256-1.798,0.518-2.286c0.773-0.488,1.798-0.257,2.286,0.518c0.863,1.369,2.374,2.187,4.04,2.187
		c0,0,0.002,0,0.003,0c1.669,0,3.183-0.818,4.049-2.189c0.49-0.774,1.514-1.005,2.287-0.516c0.774,0.489,1.005,1.513,0.516,2.287
		C261.398,88.946,258.837,90.341,256.024,90.341z M263.687,104.949c0.729-0.554,0.871-1.594,0.317-2.323
		c-0.553-0.728-1.595-0.872-2.323-0.317c-3.437,2.611-7.878,2.611-11.313,0c-0.73-0.555-1.77-0.411-2.323,0.317
		c-0.554,0.729-0.412,1.769,0.316,2.323c2.292,1.742,4.977,2.612,7.663,2.612C258.71,107.561,261.396,106.691,263.687,104.949z"/>
</g>
<g id="Layer_1">
</g>
</svg>
