<?xml version="1.0" encoding="iso-8859-1"?>
<!-- Generator: Adobe Illustrator 19.2.0, SVG Export Plug-In . SVG Version: 6.00 Build 0)  -->
<!DOCTYPE svg PUBLIC "-//W3C//DTD SVG 1.1//EN" "http://www.w3.org/Graphics/SVG/1.1/DTD/svg11.dtd">
<svg version="1.1" xmlns="http://www.w3.org/2000/svg" xmlns:xlink="http://www.w3.org/1999/xlink" x="0px" y="0px"
	 viewBox="0 0 512 512" enable-background="new 0 0 512 512" xml:space="preserve">
<g id="Layer_2">
	<path fill="#ADB8BC" d="M363.33,507.997H146.793c-4.423,0-8.008-3.585-8.008-8.008v-22.398c0-4.423,3.585-8.008,8.008-8.008H363.33
		c4.423,0,8.008,3.585,8.008,8.008v22.398C371.338,504.411,367.753,507.997,363.33,507.997z"/>
</g>
<g id="Layer_3">
	<path fill="#C5CFD1" d="M380.147,485.675H131.853c-12.192,0-22.167-9.975-22.167-22.167V29.27c0-12.192,9.975-22.167,22.167-22.167
		h248.294c12.192,0,22.167,9.975,22.167,22.167v434.238C402.314,475.7,392.339,485.675,380.147,485.675z"/>
</g>
<g id="Layer_4">
	<path fill="#819096" d="M280.864,366.929H146.567c-4.298,0-7.782-3.484-7.782-7.782v-3.115c0-4.298,3.484-7.782,7.782-7.782
		h134.297c4.298,0,7.782,3.484,7.782,7.782v3.115C288.646,363.445,285.162,366.929,280.864,366.929z M288.646,398.733v-3.115
		c0-4.298-3.484-7.782-7.782-7.782H146.567c-4.298,0-7.782,3.484-7.782,7.782v3.115c0,4.298,3.484,7.782,7.782,7.782h134.297
		C285.162,406.515,288.646,403.031,288.646,398.733z M288.646,438.319v-3.115c0-4.298-3.484-7.782-7.782-7.782H146.567
		c-4.298,0-7.782,3.484-7.782,7.782v3.115c0,4.298,3.484,7.782,7.782,7.782h134.297
		C285.162,446.101,288.646,442.617,288.646,438.319z"/>
</g>
<g id="Layer_5">
	<path fill="#FF473E" d="M371.086,296.36h-14.511c-4.546,0-8.232-3.685-8.232-8.232v-2.216c0-4.546,3.685-8.232,8.232-8.232h14.511
		c4.546,0,8.232,3.685,8.232,8.232v2.216C379.317,292.675,375.632,296.36,371.086,296.36z"/>
</g>
<g id="Layer_6">
	<path fill="#F9F9F7" d="M359.096,355.103h-22.019c-11.168,0-20.221-9.053-20.221-20.221v0c0-11.168,9.053-20.221,20.221-20.221
		h22.019c11.168,0,20.221,9.053,20.221,20.221v0C379.317,346.05,370.264,355.103,359.096,355.103z"/>
</g>
<g id="Layer_7">
	<path fill="#819096" d="M373.342,193.045v-55.893c0.202-0.558,0.33-1.151,0.33-1.779s-0.128-1.221-0.33-1.779V58.039
		c0-8.585-6.984-15.57-15.57-15.57H154.228c-8.585,0-15.57,6.984-15.57,15.57v75.556c-0.202,0.558-0.33,1.151-0.33,1.779
		s0.128,1.221,0.33,1.779v55.893c-0.202,0.558-0.33,1.151-0.33,1.779s0.128,1.221,0.33,1.779v37.48c0,8.585,6.984,15.57,15.57,15.57
		h203.543c8.586,0,15.57-6.984,15.57-15.57v-37.48c0.202-0.558,0.33-1.151,0.33-1.779S373.543,193.603,373.342,193.045z
		 M148.512,140.63h214.977v48.937H148.512V140.63z M154.228,52.322h203.543c3.152,0,5.717,2.564,5.717,5.716v72.078H148.512V58.039
		C148.512,54.887,151.076,52.322,154.228,52.322z M357.771,239.799H154.228c-3.152,0-5.716-2.564-5.716-5.716v-34.002h214.977
		v34.002C363.488,237.234,360.924,239.799,357.771,239.799z"/>
</g>
<g id="Layer_8">
	<path fill="#1C4C5A" d="M273.149,316.392H154.283c-8.524,0-15.497-6.974-15.497-15.497v-8.687c0-8.524,6.974-15.497,15.497-15.497
		h118.866c8.524,0,15.497,6.974,15.497,15.497v8.687C288.646,309.418,281.672,316.392,273.149,316.392z M326.307,278.068
		c-4.945,0-8.953,4.008-8.953,8.953s4.008,8.953,8.953,8.953s8.953-4.008,8.953-8.953S331.251,278.068,326.307,278.068z
		 M335.26,94.059v-5.278c0-4.877-3.954-8.831-8.831-8.831h-138.87c-4.877,0-8.831,3.954-8.831,8.831v5.278
		c0,4.877,3.954,8.831,8.831,8.831h138.87C331.306,102.89,335.26,98.936,335.26,94.059z"/>
</g>
</svg>
