<?xml version="1.0" encoding="iso-8859-1"?>
<!-- Generator: Adobe Illustrator 19.2.0, SVG Export Plug-In . SVG Version: 6.00 Build 0)  -->
<!DOCTYPE svg PUBLIC "-//W3C//DTD SVG 1.1//EN" "http://www.w3.org/Graphics/SVG/1.1/DTD/svg11.dtd">
<svg version="1.1" xmlns="http://www.w3.org/2000/svg" xmlns:xlink="http://www.w3.org/1999/xlink" x="0px" y="0px"
	 viewBox="0 0 512 512" enable-background="new 0 0 512 512" xml:space="preserve">
<g id="Layer_3">
	<path fill="#59CAFC" d="M490.779,433.291c-8.344,0-15.221-6.747-15.221-15.091L456.633,316h0.017l-18.658-92.761
		C435.748,212.082,423.771,203,411.241,203H27.616c-12.117,0-21.2,11.13-18.81,23.008l6.207,30.87l36.195,179.914
		C53.453,447.95,65.43,457,77.96,457h384.369c0.473,0,0.938-0.013,1.399-0.039c0.558,0.023,1.118,0.044,1.682,0.044
		c20.29,0,37.077-14.97,39.932-34.467C503.439,428.754,497.602,433.291,490.779,433.291z"/>
</g>
<g id="Layer_1">
</g>
</svg>
