<?xml version="1.0" encoding="iso-8859-1"?>
<!-- Generator: Adobe Illustrator 19.2.1, SVG Export Plug-In . SVG Version: 6.00 Build 0)  -->
<!DOCTYPE svg PUBLIC "-//W3C//DTD SVG 1.1//EN" "http://www.w3.org/Graphics/SVG/1.1/DTD/svg11.dtd">
<svg version="1.1" xmlns="http://www.w3.org/2000/svg" xmlns:xlink="http://www.w3.org/1999/xlink" x="0px" y="0px"
	 viewBox="0 0 512 512" enable-background="new 0 0 512 512" xml:space="preserve">
<g id="Layer_6">
	<path fill="#FFFFFF" d="M195.039,245.959L155.2,184.457v0l7.268-16.099l-0.073-0.073l0.155-0.155
		c0.059-0.164,0.184-0.274,0.328-0.328l8.055-8.055c0.054-0.145,0.164-0.269,0.328-0.328l0.722-0.722l0.339,0.339l15.265-6.967
		l61.502,39.839c0.752,0.442,1.296,1.166,1.513,2.011l14.658,57.059c0.343,1.334-1.294,2.268-2.268,1.294l-35.118-35.118
		c-1.57-1.57-2.306-3.827-1.84-5.998c1.055-4.913-0.325-10.244-4.143-14.062c-6.24-6.24-16.524-5.972-22.417,0.805
		c-4.928,5.668-4.971,14.235-0.094,19.948c3.812,4.464,9.509,6.16,14.754,5.089c2.23-0.455,4.54,0.198,6.149,1.807l35.118,35.118
		c0.974,0.974,0.04,2.611-1.294,2.268l-57.059-14.658C196.205,247.255,195.482,246.711,195.039,245.959z"/>
</g>
<g id="Layer_1">
</g>
</svg>
