<?xml version="1.0" encoding="iso-8859-1"?>
<!-- Generator: Adobe Illustrator 19.2.1, SVG Export Plug-In . SVG Version: 6.00 Build 0)  -->
<!DOCTYPE svg PUBLIC "-//W3C//DTD SVG 1.1//EN" "http://www.w3.org/Graphics/SVG/1.1/DTD/svg11.dtd">
<svg version="1.1" xmlns="http://www.w3.org/2000/svg" xmlns:xlink="http://www.w3.org/1999/xlink" x="0px" y="0px"
	 viewBox="0 0 512 512" enable-background="new 0 0 512 512" xml:space="preserve">
<g id="Layer_6">
	<path fill="#FFD469" d="M326.159,350.078l-139.917,53.182c-7.338,2.789-15.547-0.898-18.336-8.236l-48.454-127.478
		c-2.789-7.338,0.898-15.547,8.236-18.336l139.917-53.182c7.338-2.789,15.547,0.898,18.336,8.236l48.454,127.478
		C337.184,339.08,333.497,347.289,326.159,350.078z M211.683,439.894l136.894-53.795c1.799-0.707,2.685-2.739,1.978-4.538
		s-2.735-2.683-4.538-1.978l-136.894,53.795c-1.799,0.707-2.684,2.739-1.977,4.538c0.542,1.379,1.861,2.221,3.258,2.221
		C210.83,440.137,211.263,440.059,211.683,439.894z"/>
</g>
<g id="Layer_1">
</g>
</svg>
