<?xml version="1.0" encoding="iso-8859-1"?>
<!-- Generator: Adobe Illustrator 19.1.0, SVG Export Plug-In . SVG Version: 6.00 Build 0)  -->
<!DOCTYPE svg PUBLIC "-//W3C//DTD SVG 1.1//EN" "http://www.w3.org/Graphics/SVG/1.1/DTD/svg11.dtd">
<svg version="1.1" xmlns="http://www.w3.org/2000/svg" xmlns:xlink="http://www.w3.org/1999/xlink" x="0px" y="0px"
	 viewBox="0 0 512 512" enable-background="new 0 0 512 512" xml:space="preserve">
<g id="Layer_2">
	<path fill="#332A22" d="M406.184,440.532h-30.485l-8.162-28.437c38.799-34.725,59.212-89.603,49.113-146.445
		c-11.015-61.998-55.3-109.306-109.959-125.175l-4.371,38c38.495,13.355,69.183,47.73,77.078,92.167
		c6.473,36.435-3.785,71.784-25.069,97.558c-9.009-19.662-29.524-33.403-53.404-33.403c-16.383,0-31.178,6.474-41.768,16.881
		l-0.005-0.001l-0.05,0.057c-1.844,1.817-3.563,3.75-5.137,5.793l-73.6,83.006H91.821c-6.6,0-12,5.4-12,12v33.817
		c0,6.6,5.4,12,12,12h314.363c6.6,0,12-5.4,12-12v-33.817C418.184,445.932,412.784,440.532,406.184,440.532z"/>
</g>
<g id="Layer_3">
	<path fill="#332A22" d="M204.645,331.396l-29.401-21.825l26.325-54.864l47.971,35.611L204.645,331.396z M412.443,65.616
		l-43.136-32.021l-43.077,58.03l43.136,32.021L412.443,65.616z"/>
</g>
<g id="Layer_4">
	<path fill="#5381B9" d="M175.797,446.474l-67.64-54.124c-1.932-1.546-2.248-4.393-0.702-6.325l9.839-12.296
		c1.546-1.932,4.393-2.248,6.325-0.702l67.64,54.124c1.932,1.546,2.248,4.393,0.702,6.325l-9.839,12.296
		C180.575,447.705,177.729,448.021,175.797,446.474z M212.082,414.739l10.453-13.012c3.1-3.859,2.479-9.553-1.38-12.653
		l-95.078-76.379c-3.859-3.1-9.553-2.479-12.653,1.38l-10.453,13.012c-3.1,3.859-2.479,9.553,1.38,12.653l95.078,76.379
		C203.288,419.219,208.982,418.598,212.082,414.739z M422.419,81.682l8.29-11.168c2.459-3.312,1.76-8.034-1.552-10.492
		l-59.139-43.901c-3.312-2.459-8.034-1.76-10.492,1.552l-8.29,11.168c-2.459,3.312-1.76,8.034,1.552,10.492l59.139,43.901
		C415.238,85.693,419.96,84.995,422.419,81.682z M264.749,311.864l126.726-170.713c3.934-5.299,2.817-12.854-2.483-16.788
		l-68.935-51.172c-5.299-3.934-12.854-2.817-16.788,2.483L176.543,246.387c-3.934,5.299-2.817,12.854,2.483,16.788l68.935,51.172
		C253.26,318.281,260.815,317.164,264.749,311.864z"/>
</g>
<g id="Layer_5">
	<circle fill="#332A22" cx="352.548" cy="193.769" r="38.573"/>
</g>
</svg>
