<?xml version="1.0" encoding="iso-8859-1"?>
<!-- Generator: Adobe Illustrator 19.2.0, SVG Export Plug-In . SVG Version: 6.00 Build 0)  -->
<!DOCTYPE svg PUBLIC "-//W3C//DTD SVG 1.1//EN" "http://www.w3.org/Graphics/SVG/1.1/DTD/svg11.dtd">
<svg version="1.1" xmlns="http://www.w3.org/2000/svg" xmlns:xlink="http://www.w3.org/1999/xlink" x="0px" y="0px"
	 viewBox="0 0 512 512" enable-background="new 0 0 512 512" xml:space="preserve">
<g id="Layer_2">
	<path fill="#597B91" d="M424.08,69H321V38.684C321,19.289,305.415,4,286.021,4h-60.041C206.584,4,191,19.289,191,38.684V69H87.92
		C81.535,69,76,74.262,76,80.646v45.691C76,132.722,81.535,138,87.92,138h12.056c-0.021,0.512,0.024,1.026,0.024,1.543v334.065
		C100,493.706,116.229,510,136.327,510h239.347C395.771,510,412,493.706,412,473.608V139.543c0-0.518,0.046-1.031,0.024-1.543
		h12.056c6.384,0,11.92-5.278,11.92-11.662V80.646C436,74.262,430.465,69,424.08,69z M226,39h60v30h-60V39z"/>
</g>
<g id="Layer_3">
	<path fill="#2B3B47" d="M412.063,165.593H99.937v-26.05h312.127V165.593z M183.328,448.375V215.288c0-3.976-3.224-7.2-7.2-7.2
		h-10.248c-3.976,0-7.2,3.224-7.2,7.2v233.088c0,3.976,3.224,7.2,7.2,7.2h10.248C180.104,455.575,183.328,452.352,183.328,448.375z
		 M268.324,448.375V215.288c0-3.976-3.224-7.2-7.2-7.2h-10.248c-3.976,0-7.2,3.224-7.2,7.2v233.088c0,3.976,3.224,7.2,7.2,7.2
		h10.248C265.101,455.575,268.324,452.352,268.324,448.375z M353.321,448.375V215.288c0-3.976-3.224-7.2-7.2-7.2h-10.248
		c-3.976,0-7.2,3.224-7.2,7.2v233.088c0,3.976,3.224,7.2,7.2,7.2h10.248C350.097,455.575,353.321,452.352,353.321,448.375z"/>
</g>
</svg>
