<?xml version="1.0" encoding="iso-8859-1"?>
<!-- Generator: Adobe Illustrator 19.2.0, SVG Export Plug-In . SVG Version: 6.00 Build 0)  -->
<!DOCTYPE svg PUBLIC "-//W3C//DTD SVG 1.1//EN" "http://www.w3.org/Graphics/SVG/1.1/DTD/svg11.dtd">
<svg version="1.1" xmlns="http://www.w3.org/2000/svg" xmlns:xlink="http://www.w3.org/1999/xlink" x="0px" y="0px"
	 viewBox="0 0 512 512" enable-background="new 0 0 512 512" xml:space="preserve">
<g id="Layer_3">
	<path fill="#59CAFC" d="M363.783,154.206c-20.615-23.734-56.567-26.263-80.302-5.648c0,0-1.187,1.031-3.371,3.004
		c-2.173,1.984-5.374,4.88-9.339,8.675c-4.006,3.754-8.755,8.428-14.211,13.781c-1.025,1.015-2.078,2.066-3.145,3.135
		c-4.218,3.277-7.99,7.101-11.186,11.383c-1.206,1.243-2.424,2.503-3.665,3.792c-6.54,6.764-13.482,14.233-20.822,22.136
		c-7.335,7.909-15.106,16.212-23.238,24.708c-8.151,8.478-16.573,17.239-25.131,26.142c-8.575,8.885-17.314,17.884-25.917,27.019
		c-8.605,9.132-17.14,18.335-25.309,27.626c-8.219,9.242-16.097,18.546-23.564,27.708c-7.469,9.16-14.528,18.175-21.109,26.837
		c-3.284,4.337-6.485,8.55-9.481,12.725c-2.968,4.203-5.711,8.388-8.228,12.523c-5.004,8.3-9.117,16.381-12.344,23.963
		c-3.245,7.563-5.653,14.579-7.368,20.624c-1.701,6.059,25.891,33.651,31.95,31.95c6.045-1.716,13.06-4.123,20.624-7.368
		c7.582-3.227,15.663-7.34,23.963-12.344c4.135-2.517,8.32-5.26,12.523-8.228c4.175-2.996,8.388-6.197,12.725-9.481
		c8.662-6.581,17.677-13.641,26.837-21.109c9.162-7.467,18.467-15.346,27.708-23.564c9.291-8.169,18.494-16.704,27.626-25.309
		c9.135-8.602,18.134-17.341,27.019-25.917c8.902-8.558,17.663-16.98,26.142-25.131c8.496-8.133,16.8-15.904,24.708-23.239
		c7.064-6.56,13.777-12.801,19.953-18.722c9.794-5.317,17.905-13.328,23.37-23.029c4.157-4.238,7.841-8.01,10.904-11.278
		c3.795-3.965,6.691-7.166,8.675-9.339c1.973-2.184,3.004-3.371,3.004-3.371C382.121,207.792,382.622,175.895,363.783,154.206z"/>
</g>
<g id="Layer_1">
</g>
</svg>
