<?xml version="1.0" encoding="iso-8859-1"?>
<!-- Generator: Adobe Illustrator 19.2.0, SVG Export Plug-In . SVG Version: 6.00 Build 0)  -->
<!DOCTYPE svg PUBLIC "-//W3C//DTD SVG 1.1//EN" "http://www.w3.org/Graphics/SVG/1.1/DTD/svg11.dtd">
<svg version="1.1" xmlns="http://www.w3.org/2000/svg" xmlns:xlink="http://www.w3.org/1999/xlink" x="0px" y="0px"
	 viewBox="0 0 512 512" enable-background="new 0 0 512 512" xml:space="preserve">
<g id="Layer_10">
	<path fill="#1C4C5A" d="M252.393,133.772c-1.409,0-2.833-0.405-4.091-1.25c-3.367-2.263-4.262-6.828-1.999-10.195l10.658-15.855
		c2.264-3.367,6.825-4.262,10.194-1.999c3.367,2.263,4.262,6.828,1.999,10.195l-10.658,15.855
		C257.078,132.633,254.757,133.772,252.393,133.772z M439.615,130.523l10.657-15.855c2.263-3.367,1.368-7.931-1.999-10.194
		c-3.368-2.264-7.932-1.369-10.194,1.999l-10.657,15.855c-2.263,3.367-1.368,7.931,1.999,10.194c1.258,0.845,2.682,1.25,4.091,1.25
		C435.876,133.772,438.197,132.633,439.615,130.523z M425.002,142.254c-3.369-2.264-7.932-1.529-10.194,1.839L380.482,195h17.703
		l28.817-42.71C429.264,148.922,428.369,144.518,425.002,142.254z M242.584,142.254c-3.367-2.262-7.931-1.527-10.195,1.839
		L198.063,195h17.703l28.817-42.71C246.846,148.922,245.951,144.518,242.584,142.254z"/>
</g>
<g id="Layer_1">
</g>
</svg>
