<?xml version="1.0" encoding="iso-8859-1"?>
<!-- Generator: Adobe Illustrator 19.1.0, SVG Export Plug-In . SVG Version: 6.00 Build 0)  -->
<!DOCTYPE svg PUBLIC "-//W3C//DTD SVG 1.1//EN" "http://www.w3.org/Graphics/SVG/1.1/DTD/svg11.dtd">
<svg version="1.1" xmlns="http://www.w3.org/2000/svg" xmlns:xlink="http://www.w3.org/1999/xlink" x="0px" y="0px"
	 viewBox="0 0 512 512" enable-background="new 0 0 512 512" xml:space="preserve">
<g id="Layer_2">
	<path fill="#332A22" d="M406.184,440.532h-30.485l-8.162-28.437c38.799-34.725,59.212-89.603,49.113-146.445
		c-11.015-61.998-55.3-109.306-109.959-125.175l-4.371,38c38.495,13.355,69.183,47.73,77.078,92.167
		c6.473,36.435-3.785,71.784-25.069,97.558c-9.009-19.662-29.524-33.403-53.404-33.403c-16.383,0-31.178,6.474-41.768,16.881
		l-0.005-0.001l-0.05,0.057c-1.844,1.817-3.563,3.75-5.137,5.793l-73.6,83.006H91.821c-6.6,0-12,5.4-12,12v33.817
		c0,6.6,5.4,12,12,12h314.363c6.6,0,12-5.4,12-12v-33.817C418.184,445.932,412.784,440.532,406.184,440.532z"/>
</g>
<g id="Layer_1">
</g>
</svg>
