<?xml version="1.0" encoding="iso-8859-1"?>
<!-- Generator: Adobe Illustrator 18.1.1, SVG Export Plug-In . SVG Version: 6.00 Build 0)  -->
<!DOCTYPE svg PUBLIC "-//W3C//DTD SVG 1.1//EN" "http://www.w3.org/Graphics/SVG/1.1/DTD/svg11.dtd">
<svg version="1.1" xmlns="http://www.w3.org/2000/svg" xmlns:xlink="http://www.w3.org/1999/xlink" x="0px" y="0px"
	 viewBox="0 0 512 512" enable-background="new 0 0 512 512" xml:space="preserve">
<g id="Layer_2">
	<path fill="#2B3B47" d="M103.93,501.029l149.512-149.512c4.049-4.049,4.049-10.613,0-14.661l-65.912-65.912
		c-4.049-4.049-10.613-4.049-14.661,0L23.358,420.457c-10.552,10.552-10.552,27.661,0,38.213l42.36,42.36
		C76.27,511.582,93.378,511.582,103.93,501.029z"/>
</g>
<g id="Layer_3">
	<path fill="#9CADB5" d="M169.906,273.908L440.26,3.554c4.272-4.272,11.255-4.059,15.257,0.467
		c25.102,28.386,86.692,138.398-156.394,381.484C259.504,425.124,169.906,273.908,169.906,273.908z"/>
</g>
<g id="Layer_4">
	<path fill="#D7DFE2" d="M222.485,296.803c-5.119,0-10.237-1.952-14.142-5.857c-7.811-7.811-7.811-20.475,0-28.284l96.967-96.968
		c7.811-7.811,20.475-7.811,28.285,0c7.81,7.811,7.811,20.474,0,28.284l-96.968,96.968
		C232.722,294.85,227.604,296.803,222.485,296.803z"/>
</g>
</svg>
