<?xml version="1.0" encoding="iso-8859-1"?>
<!-- Generator: Adobe Illustrator 18.1.1, SVG Export Plug-In . SVG Version: 6.00 Build 0)  -->
<!DOCTYPE svg PUBLIC "-//W3C//DTD SVG 1.1//EN" "http://www.w3.org/Graphics/SVG/1.1/DTD/svg11.dtd">
<svg version="1.1" xmlns="http://www.w3.org/2000/svg" xmlns:xlink="http://www.w3.org/1999/xlink" x="0px" y="0px"
	 viewBox="0 0 512 512" enable-background="new 0 0 512 512" xml:space="preserve">
<g id="Layer_5">
	<path fill="#597B91" d="M511,154.03c0-56.235-45.588-101.823-101.823-101.823c-56.235,0-101.823,45.588-101.823,101.823
		c0,44.893,29.053,82.997,69.382,96.543c-0.043,2.953-0.087,5.981-0.133,9.098c-0.051,3.468-0.102,7.031-0.155,10.673
		c-0.026,1.821-0.052,3.662-0.079,5.52c-0.005,1.858-0.01,3.734-0.014,5.626c-0.02,7.567-0.04,15.387-0.06,23.333
		c-0.013,7.946,0.13,16.018,0.188,24.09c0.039,4.036,0.078,8.072,0.117,12.092c0.02,2.01,0.04,4.016,0.06,6.017
		c0.044,2,0.088,3.995,0.132,5.981c0.176,7.946,0.349,15.766,0.516,23.333c0.084,3.784,0.166,7.504,0.247,11.146
		c0.036,1.821,0.073,3.622,0.172,5.402c0.139,1.779,0.294,3.537,0.593,5.272c0.285,1.734,0.624,3.445,1.092,5.13
		c0.227,0.842,0.453,1.679,0.677,2.508c0.265,0.829,0.528,1.652,0.788,2.468c1.027,3.263,2.08,6.417,2.996,9.444
		c0.922,3.027,1.681,5.928,2.786,8.687c1.141,2.759,2.354,5.376,3.528,7.836c2.343,4.919,4.318,9.207,6.119,12.739
		c0.88,1.766,1.666,3.342,2.349,4.714c0.713,1.372,1.319,2.538,1.811,3.484c0.486,0.946,0.873,1.671,1.141,2.16
		c0.264,0.489,0.4,0.741,0.4,0.741c0.141,0.259,0.302,0.532,0.467,0.783c3.2,4.873,9.745,6.229,14.618,3.029l5.804-3.812
		c0,0,0.096-0.063,0.285-0.187c0.197-0.124,0.47-0.309,0.801-0.554c0.34-0.244,0.762-0.548,1.263-0.908
		c0.457-0.361,1.024-0.778,1.586-1.251c2.31-1.892,5.352-4.667,8.232-8.198c2.909-3.531,5.746-7.82,7.782-12.739
		c0.441-1.23,1.231-2.499,0.885-3.805c-0.259-1.307-1.563-2.651-3.152-4.03c-1.591-1.379-3.193-2.794-3.781-4.243
		c-0.334-0.724-0.341-1.457-0.367-2.198c-0.034-0.741-0.069-1.49-0.042-2.246c0.023-2.628,0.354-5.357,0.954-8.165
		c-6.199-0.944-10.953-6.281-10.953-12.744c0-6.024,4.133-11.07,9.714-12.493c0.947,0.241,1.933,0.383,2.955,0.383
		c6.601,0,11.952-5.351,11.952-11.951v-36.173c0-5.828-4.174-10.676-9.695-11.732c0-0.075,0-0.15,0.001-0.224h-2.019
		c-7.129,0-10.996-5.779-10.996-12.908c0-6.145,2.88-11.278,8.239-12.58h1.321c0.945,0,1.859-0.121,2.741-0.328h0.748
		c0-0.065,0-0.128-0.001-0.192c4.899-1.493,8.464-6.045,8.464-11.432c0-5.416-3.606-9.985-8.547-11.452
		c-0.041-5.522-0.126-10.887-0.168-16.043c-0.033-3.047-0.064-6.007-0.095-8.897C481.649,237.41,511,199.151,511,154.03z
		 M465.346,154.03H353.008c-8.109,0-14.178-7.508-12.406-15.42c7.029-31.393,35.062-54.852,68.575-54.852
		s61.547,23.459,68.575,54.852C479.524,146.523,473.455,154.03,465.346,154.03z"/>
</g>
<g id="Layer_1">
</g>
</svg>
