<?xml version="1.0" encoding="iso-8859-1"?>
<!-- Generator: Adobe Illustrator 19.2.0, SVG Export Plug-In . SVG Version: 6.00 Build 0)  -->
<!DOCTYPE svg PUBLIC "-//W3C//DTD SVG 1.1//EN" "http://www.w3.org/Graphics/SVG/1.1/DTD/svg11.dtd">
<svg version="1.1" xmlns="http://www.w3.org/2000/svg" xmlns:xlink="http://www.w3.org/1999/xlink" x="0px" y="0px"
	 viewBox="0 0 512 512" enable-background="new 0 0 512 512" xml:space="preserve">
<g id="Layer_3">
	<path fill="#C5CFD1" d="M183.85,167.182h144.3c4.79,0,8.674,3.883,8.674,8.674v3.062c0,4.79-3.883,8.674-8.674,8.674h-144.3
		c-4.79,0-8.674-3.883-8.674-8.674v-3.062C175.176,171.065,179.06,167.182,183.85,167.182z M160.331,5.982V145.08
		c0,3.304,2.678,5.982,5.982,5.982h179.374c3.304,0,5.982-2.678,5.982-5.982V5.982c0-3.304-2.678-5.982-5.982-5.982H166.313
		C163.009,0,160.331,2.678,160.331,5.982z M335.507,501.071v3.062c0,4.79,3.883,8.674,8.674,8.674h144.3
		c4.79,0,8.674-3.883,8.674-8.674v-3.062c0-4.79-3.883-8.674-8.674-8.674h-144.3C339.391,492.397,335.507,496.28,335.507,501.071z
		 M320.662,331.197v139.098c0,3.304,2.678,5.982,5.982,5.982h179.374c3.304,0,5.982-2.678,5.982-5.982V331.197
		c0-3.304-2.678-5.982-5.982-5.982H326.644C323.34,325.215,320.662,327.893,320.662,331.197z M14.845,501.071v3.062
		c0,4.79,3.883,8.674,8.674,8.674h144.3c4.79,0,8.674-3.883,8.674-8.674v-3.062c0-4.79-3.883-8.674-8.674-8.674h-144.3
		C18.729,492.397,14.845,496.28,14.845,501.071z M0,331.197v139.098c0,3.304,2.678,5.982,5.982,5.982h179.374
		c3.304,0,5.982-2.678,5.982-5.982V331.197c0-3.304-2.678-5.982-5.982-5.982H5.982C2.678,325.215,0,327.893,0,331.197z"/>
</g>
<g id="Layer_1">
</g>
</svg>
