<?xml version="1.0" encoding="iso-8859-1"?>
<!-- Generator: Adobe Illustrator 19.2.0, SVG Export Plug-In . SVG Version: 6.00 Build 0)  -->
<!DOCTYPE svg PUBLIC "-//W3C//DTD SVG 1.1//EN" "http://www.w3.org/Graphics/SVG/1.1/DTD/svg11.dtd">
<svg version="1.1" xmlns="http://www.w3.org/2000/svg" xmlns:xlink="http://www.w3.org/1999/xlink" x="0px" y="0px"
	 viewBox="0 0 512 512" enable-background="new 0 0 512 512" xml:space="preserve">
<g id="Layer_2">
	<path fill="#819096" d="M79.098,254.454h-14c0-28.365,3.564-54.231,10.307-74.802c7.534-22.984,18.618-38.782,32.946-46.954
		c21.216-12.102,43.911-3.853,59.213,5.197c5.16,3.051,8.223,2.576,10.08,1.951c10.565-3.556,20.046-26.799,29.215-49.277
		c14.515-35.585,30.967-75.918,64.396-82.662c24.648-4.969,53.613,9.605,88.564,44.556l-9.9,9.899
		c-30.942-30.943-56.468-44.65-75.896-40.732c-26.069,5.259-41.015,41.899-54.201,74.226
		c-11.307,27.718-21.071,51.656-37.712,57.257c-6.898,2.323-14.19,1.256-21.672-3.169c-17.613-10.417-32.803-12.128-45.15-5.086
		C92.964,157.591,79.098,199.585,79.098,254.454z"/>
</g>
<g id="Layer_1">
</g>
</svg>
