<?xml version="1.0" encoding="iso-8859-1"?>
<!-- Generator: Adobe Illustrator 19.1.0, SVG Export Plug-In . SVG Version: 6.00 Build 0)  -->
<!DOCTYPE svg PUBLIC "-//W3C//DTD SVG 1.1//EN" "http://www.w3.org/Graphics/SVG/1.1/DTD/svg11.dtd">
<svg version="1.1" xmlns="http://www.w3.org/2000/svg" xmlns:xlink="http://www.w3.org/1999/xlink" x="0px" y="0px"
	 viewBox="0 0 512 512" enable-background="new 0 0 512 512" xml:space="preserve">
<g id="Layer_7">
	<path fill="#48677E" d="M507.205,327.211L473.268,168.45l-0.58-0.216c-1.17-9.327-23.292-16.765-50.422-16.765
		c-27.323,0-49.56,7.545-50.436,16.965l-0.042,0.016l0,0l-33.937,158.761c-0.484,1.871-0.204,3.857,0.78,5.52l61.836,104.588
		c2.831,4.788,10.171,2.78,10.171-2.782V333.523c0-5.063-2.633-9.698-6.852-12.497c-9.867-6.546-16.113-18.11-15.092-31.054
		c1.312-16.631,14.865-30.002,31.51-31.11c19.798-1.318,36.267,14.35,36.267,33.866c0,11.9-6.125,22.366-15.393,28.425
		c-4.17,2.726-6.66,7.391-6.66,12.373v101.012c0,5.562,7.34,7.57,10.171,2.782l61.836-104.588
		C507.409,331.068,507.689,329.082,507.205,327.211z"/>
</g>
<g id="Layer_1">
</g>
</svg>
