<?xml version="1.0" encoding="iso-8859-1"?>
<!-- Generator: Adobe Illustrator 19.2.0, SVG Export Plug-In . SVG Version: 6.00 Build 0)  -->
<!DOCTYPE svg PUBLIC "-//W3C//DTD SVG 1.1//EN" "http://www.w3.org/Graphics/SVG/1.1/DTD/svg11.dtd">
<svg version="1.1" xmlns="http://www.w3.org/2000/svg" xmlns:xlink="http://www.w3.org/1999/xlink" x="0px" y="0px"
	 viewBox="0 0 512 512" enable-background="new 0 0 512 512" xml:space="preserve">
<g id="Layer_2">
	<path fill="#597B91" d="M495.864,323.559c-73.411,0-106.132-68.677-107.424-128.792c0.034-1.232,0.054-2.468,0.054-3.708
		c0-73.232-59.366-132.598-132.598-132.598s-132.598,59.366-132.598,132.598c0,2.238,0.057,4.462,0.167,6.673
		C121.398,263.263,88.64,323.559,16.17,323.559c-6.26,0-11.17,5.075-11.17,11.334v84.643C5,425.797,9.77,431,16.03,431h236.593
		c1.193,0,2.343-0.187,3.423-0.529c1.08,0.342,2.23,0.529,3.423,0.529h236.593c6.26,0,10.938-5.203,10.938-11.463v-84.643
		C507,328.634,502.124,323.559,495.864,323.559z"/>
</g>
<g id="Layer_3">
	<path fill="#E5E4DF" d="M255.897,80.809c-60.792,0-110.25,49.458-110.25,110.25c0,60.792,49.458,110.25,110.25,110.25
		c60.792,0,110.25-49.458,110.25-110.25C366.146,130.267,316.688,80.809,255.897,80.809z"/>
</g>
<g id="Layer_4">
	<path fill="#3A5D66" d="M255.906,200.92c-2.474,0-4.947-0.944-6.834-2.831c-3.774-3.774-3.774-9.895,0-13.669l60.583-60.583
		c3.773-3.774,9.895-3.774,13.668,0c3.775,3.774,3.775,9.895,0,13.669l-60.583,60.583C260.854,199.976,258.38,200.92,255.906,200.92
		z"/>
</g>
<g id="Layer_5">
	<path fill="#183F4C" d="M259.258,177.671l-28.07-48.134c-2.688-4.611-8.605-6.169-13.218-3.48
		c-4.611,2.689-6.169,8.607-3.48,13.218l28.094,48.175c-0.312,1.152-0.493,2.358-0.493,3.609c0,7.63,6.185,13.815,13.815,13.815
		s13.815-6.185,13.815-13.815C269.721,184.588,265.265,179.171,259.258,177.671z"/>
</g>
</svg>
