<?xml version="1.0" encoding="iso-8859-1"?>
<!-- Generator: Adobe Illustrator 19.2.0, SVG Export Plug-In . SVG Version: 6.00 Build 0)  -->
<!DOCTYPE svg PUBLIC "-//W3C//DTD SVG 1.1//EN" "http://www.w3.org/Graphics/SVG/1.1/DTD/svg11.dtd">
<svg version="1.1" xmlns="http://www.w3.org/2000/svg" xmlns:xlink="http://www.w3.org/1999/xlink" x="0px" y="0px"
	 viewBox="0 0 512 512" enable-background="new 0 0 512 512" xml:space="preserve">
<g id="Layer_3">
	<path fill="#2B3B47" d="M385.628,433.177c-10.004-5.866-22.731-2.878-29.164,6.568l-57.38-34.316l57.38-34.316
		c6.432,9.445,19.16,12.434,29.164,6.568c10.439-6.121,13.939-19.545,7.818-29.984c-4.278-7.296-12.125-11.187-20.025-10.788
		c4.206-6.7,4.642-15.447,0.363-22.743c-6.121-10.439-19.545-13.939-29.984-7.817c-10.439,6.121-13.939,19.545-7.817,29.984
		c0.02,0.035,0.045,0.065,0.065,0.1l-76.166,45.551l-80.053-47.876c4.459-10.052,0.764-22.064-8.947-27.759
		c-10.439-6.121-23.863-2.621-29.984,7.817c-4.278,7.296-3.843,16.043,0.363,22.743c-7.901-0.399-15.747,3.491-20.025,10.788
		c-6.121,10.439-2.621,23.863,7.818,29.984c10.439,6.121,23.863,2.621,29.984-7.818c0.19-0.325,0.344-0.66,0.516-0.991
		l61.126,36.556l-61.126,36.556c-0.172-0.33-0.325-0.666-0.516-0.991c-6.121-10.439-19.545-13.939-29.984-7.818
		c-10.439,6.121-13.939,19.545-7.818,29.984c4.278,7.296,12.125,11.187,20.025,10.788c-4.206,6.7-4.642,15.447-0.363,22.743
		c6.121,10.439,19.545,13.939,29.984,7.818c9.711-5.694,13.406-17.707,8.947-27.759l80.053-47.876l76.166,45.551
		c-0.021,0.035-0.045,0.065-0.065,0.1c-6.121,10.439-2.621,23.863,7.817,29.984c10.439,6.121,23.863,2.621,29.984-7.818
		c4.278-7.296,3.843-16.043-0.363-22.743c7.901,0.399,15.747-3.491,20.025-10.788C399.567,452.722,396.067,439.298,385.628,433.177z
		"/>
</g>
<g id="Layer_1">
</g>
</svg>
