<?xml version="1.0" encoding="iso-8859-1"?>
<!-- Generator: Adobe Illustrator 19.2.0, SVG Export Plug-In . SVG Version: 6.00 Build 0)  -->
<!DOCTYPE svg PUBLIC "-//W3C//DTD SVG 1.1//EN" "http://www.w3.org/Graphics/SVG/1.1/DTD/svg11.dtd">
<svg version="1.1" xmlns="http://www.w3.org/2000/svg" xmlns:xlink="http://www.w3.org/1999/xlink" x="0px" y="0px"
	 viewBox="0 0 512 512" enable-background="new 0 0 512 512" xml:space="preserve">
<g id="Layer_3">
	<path fill="#8E6049" d="M434.257,435.087c-3.066-2.671-3.087-7.421-0.067-10.144c8.785-7.92,14.31-19.384,14.31-32.144
		c0-12.892-5.641-24.46-14.585-32.387c-3.044-2.697-3.044-7.447,0-10.144c8.944-7.927,14.585-19.495,14.585-32.387
		c0-12.892-5.641-24.46-14.585-32.387c-3.044-2.697-3.044-7.447,0-10.144c8.944-7.927,14.585-19.495,14.585-32.387
		s-5.641-24.46-14.585-32.387c-3.044-2.697-3.044-7.447,0-10.144c8.944-7.927,14.585-19.495,14.585-32.387
		c0-12.628-5.409-23.99-14.036-31.902c-2.997-2.748-2.955-7.498,0.133-10.143c9.265-7.936,15.139-19.717,15.139-32.873
		c0-12.109-4.979-23.051-12.993-30.907c-7.856-8.015-18.798-12.993-30.907-12.993c-12.21,0-23.233,5.06-31.099,13.193
		c-3.488,3.607-9.233,3.607-12.721,0c-7.866-8.134-18.889-13.193-31.099-13.193s-23.233,5.06-31.099,13.194
		c-3.488,3.607-9.233,3.607-12.721,0C279.233,54.287,268.21,49.228,256,49.228c-12.892,0-24.46,5.641-32.387,14.585
		c-2.697,3.044-7.447,3.044-10.144,0c-7.927-8.944-19.495-14.585-32.387-14.585c-12.834,0-24.357,5.59-32.281,14.464
		c-2.598,2.91-7.08,3.098-9.863,0.364l-1.867-1.834c-8.294-8.462-20.028-13.54-32.945-12.947
		c-22.154,1.017-40.18,19.043-41.198,41.198c-0.593,12.916,4.485,24.651,12.947,32.945c0.542,0.553,1.099,1.092,1.67,1.616
		c2.993,2.747,2.946,7.494-0.14,10.137c-9.267,7.936-15.142,19.718-15.142,32.876c0,12.892,5.64,24.46,14.585,32.387
		c3.044,2.697,3.044,7.447,0,10.144c-8.944,7.927-14.585,19.495-14.585,32.387s5.64,24.46,14.585,32.387
		c3.044,2.697,3.044,7.447,0,10.144c-8.944,7.927-14.585,19.495-14.585,32.387c0,12.892,5.64,24.46,14.585,32.387
		c3.044,2.697,3.044,7.447,0,10.144c-8.944,7.927-14.585,19.495-14.585,32.387c0,12.892,5.64,24.46,14.585,32.387
		c3.044,2.697,3.044,7.447,0,10.144c-8.944,7.927-14.585,19.495-14.585,32.387c0,23.904,19.378,43.282,43.282,43.282
		c0.104,0,0.206-0.007,0.309-0.008c0.103,0.001,0.205,0.008,0.309,0.008c12.892,0,24.46-5.641,32.387-14.585
		c2.697-3.044,7.447-3.044,10.144,0c7.927,8.944,19.495,14.585,32.387,14.585s24.46-5.641,32.387-14.585
		c2.697-3.044,7.447-3.044,10.144,0c7.927,8.944,19.495,14.585,32.387,14.585c12.892,0,24.46-5.641,32.387-14.585
		c2.697-3.044,7.447-3.044,10.144,0c7.927,8.944,19.495,14.585,32.387,14.585c12.75,0,24.21-5.515,32.13-14.289
		c2.683-2.972,7.357-2.972,10.04,0c7.92,8.773,19.379,14.289,32.13,14.289c0.104,0,0.206-0.007,0.309-0.008
		c0.103,0.001,0.205,0.008,0.309,0.008c23.904,0,43.282-19.378,43.282-43.282C449.118,454.693,443.361,443.019,434.257,435.087z
		 M330.918,424.434c-16.004,0-29.97,8.693-37.459,21.609c-7.489-12.915-21.454-21.609-37.459-21.609s-29.97,8.693-37.459,21.609
		c-7.489-12.915-21.454-21.609-37.459-21.609s-29.97,8.693-37.459,21.609c-3.852-6.643-9.417-12.164-16.094-15.963
		c12.746-7.532,21.3-21.404,21.3-37.281c0-16.004-8.693-29.97-21.609-37.459c12.915-7.489,21.609-21.454,21.609-37.459
		c0-16.004-8.693-29.97-21.609-37.459c12.915-7.489,21.609-21.454,21.609-37.459s-8.693-29.97-21.609-37.459
		c12.915-7.489,21.609-21.454,21.609-37.459c0-15.75-8.414-29.531-20.991-37.104c6.74-3.761,12.367-9.27,16.274-15.916
		c7.6,12.453,21.314,20.767,36.97,20.767c16.004,0,29.97-8.693,37.459-21.609c7.489,12.915,21.454,21.609,37.459,21.609
		s29.97-8.693,37.459-21.609c7.489,12.915,21.455,21.609,37.459,21.609s29.97-8.693,37.459-21.609
		c1.97,3.397,4.384,6.502,7.17,9.233c2.566,2.618,5.457,4.913,8.615,6.815c-13.257,7.398-22.227,21.555-22.227,37.814
		c0,16.004,8.693,29.97,21.609,37.459c-12.915,7.489-21.609,21.455-21.609,37.459s8.693,29.97,21.609,37.459
		c-12.915,7.489-21.609,21.454-21.609,37.459c0,16.004,8.693,29.97,21.609,37.459c-12.915,7.489-21.609,21.454-21.609,37.459
		c0,16.004,8.693,29.97,21.609,37.459c-6.362,3.689-11.699,8.944-15.476,15.248C360.506,432.885,346.701,424.434,330.918,424.434z"
		/>
</g>
<g id="Layer_1">
</g>
</svg>
