<?xml version="1.0" encoding="iso-8859-1"?>
<!-- Generator: Adobe Illustrator 18.1.1, SVG Export Plug-In . SVG Version: 6.00 Build 0)  -->
<!DOCTYPE svg PUBLIC "-//W3C//DTD SVG 1.1//EN" "http://www.w3.org/Graphics/SVG/1.1/DTD/svg11.dtd">
<svg version="1.1" xmlns="http://www.w3.org/2000/svg" xmlns:xlink="http://www.w3.org/1999/xlink" x="0px" y="0px"
	 viewBox="0 0 512 512" enable-background="new 0 0 512 512" xml:space="preserve">
<g id="Layer_3">
	<path fill="#5A5D5E" d="M478.389,379.976c-14.469,60.637-79.299,74.105-157.086,74.105H190.697
		c-77.787,0-142.617-13.467-157.086-74.105c-3.373-14.134-1.503-28.784,4.912-42.183l45.494-127.294
		c12.423-25.948,40.811-43.983,73.694-47.7v-41.513c0-13.518,10.958-24.476,24.477-24.476s24.477,10.958,24.477,24.476v40.791
		h98.672v-40.791c0-13.518,10.959-24.476,24.477-24.476s24.477,10.958,24.477,24.476V162.8c32.882,3.717,61.271,21.751,73.694,47.7
		l45.494,127.294C479.893,351.192,481.762,365.841,478.389,379.976z"/>
</g>
<g id="Layer_1">
</g>
</svg>
