<?xml version="1.0" encoding="iso-8859-1"?>
<!-- Generator: Adobe Illustrator 18.1.1, SVG Export Plug-In . SVG Version: 6.00 Build 0)  -->
<!DOCTYPE svg PUBLIC "-//W3C//DTD SVG 1.1//EN" "http://www.w3.org/Graphics/SVG/1.1/DTD/svg11.dtd">
<svg version="1.1" xmlns="http://www.w3.org/2000/svg" xmlns:xlink="http://www.w3.org/1999/xlink" x="0px" y="0px"
	 viewBox="0 0 512 512" enable-background="new 0 0 512 512" xml:space="preserve">
<g id="Layer_2">
	<path fill="#72878E" d="M345.002,52.432c-40.323,0-117.929,3.358-121.672,69.958c1.635,20.518,14.058,37.655,14.058,37.655
		l-59.908,59.908c-19.319-19.319-38.823-13.402-54.144-0.322c-1.295,2.236-1.259,5.056,0.177,7.341
		c6.054,9.628,4.89,22.495-3.493,30.877l-8.862,8.862c-9.734,9.734-25.516,9.734-35.251,0l-8.544-8.544L17.468,208.27l-8.544-8.544
		c-9.734-9.734-9.734-25.516,0-35.251l8.862-8.862c8.369-8.369,21.209-9.543,30.832-3.521c2.886,1.806,6.657,1.289,9.068-1.115
		l19.42-19.367l75.694-75.694l22.073-22.073C254.421-45.703,386.328,52.432,345.002,52.432z"/>
</g>
<g id="Layer_3">
	<path fill="#FFB636" d="M500.171,477.943l-5.132,5.132c-15.818,15.818-41.463,15.818-57.281,0L180.89,226.207
		c-3.625-3.625-3.625-9.501,0-13.126l49.287-49.287c3.625-3.625,9.501-3.625,13.126,0l256.867,256.867
		C515.989,436.479,515.989,462.125,500.171,477.943z"/>
</g>
</svg>
