<?xml version="1.0" encoding="iso-8859-1"?>
<!-- Generator: Adobe Illustrator 18.1.1, SVG Export Plug-In . SVG Version: 6.00 Build 0)  -->
<!DOCTYPE svg PUBLIC "-//W3C//DTD SVG 1.1//EN" "http://www.w3.org/Graphics/SVG/1.1/DTD/svg11.dtd">
<svg version="1.1" xmlns="http://www.w3.org/2000/svg" xmlns:xlink="http://www.w3.org/1999/xlink" x="0px" y="0px"
	 viewBox="0 0 512 512" enable-background="new 0 0 512 512" xml:space="preserve">
<g id="Layer_2">
	<circle fill="#96A9B2" cx="222.724" cy="268.388" r="40.514"/>
</g>
<g id="Layer_3">
	<path fill="#96A9B2" d="M124.169,489.273c-1.821,0-3.672-0.364-5.45-1.133c-6.971-3.014-10.179-11.108-7.166-18.079l63.273-146.353
		c3.014-6.972,11.111-10.177,18.08-7.165c6.971,3.014,10.179,11.108,7.166,18.079l-63.273,146.353
		C134.554,486.169,129.489,489.273,124.169,489.273z M326.729,488.141c6.971-3.014,10.179-11.108,7.165-18.079l-63.272-146.353
		c-3.013-6.971-11.107-10.18-18.079-7.165c-6.971,3.014-10.179,11.108-7.166,18.079l63.273,146.353
		c2.245,5.193,7.31,8.298,12.629,8.298C323.1,489.273,324.951,488.909,326.729,488.141z M236.475,475.519V329.166
		c0-7.595-6.157-13.752-13.751-13.752s-13.751,6.157-13.751,13.752v146.353c0,7.595,6.157,13.752,13.751,13.752
		S236.475,483.113,236.475,475.519z"/>
</g>
<g id="Layer_4">
	<path fill="#FF473E" d="M242.569,209.034l22.516-54.381c3.704-8.947,13.96-13.196,22.906-9.492l184.95,76.576
		c8.947,3.704,13.196,13.96,9.492,22.906l-22.516,54.381c-3.704,8.947-13.96,13.196-22.906,9.492l-184.95-76.576
		C243.115,228.236,238.865,217.981,242.569,209.034z"/>
</g>
<g id="Layer_5">
	<path fill="#445056" d="M292.837,324.399c-2.861,2.861-6.812,4.63-11.177,4.63H163.788c-8.73,0-15.807-7.077-15.807-15.807
		c-0.001-8.73,7.077-15.807,15.807-15.807h117.872c8.73,0,15.807,7.077,15.807,15.807
		C297.467,317.587,295.698,321.538,292.837,324.399z"/>
</g>
<g id="Layer_6">
	<path fill="#EA1B1B" d="M376.283,181.678l-30.464-12.613l-35.93,86.779l30.464,12.613c6.999,2.898,20.717-14.179,30.638-38.143
		C380.913,206.351,383.282,184.576,376.283,181.678z"/>
</g>
<g id="Layer_7">
	<path fill="#FF473E" d="M350.913,160.172L67.745,42.93L24.038,148.494l283.169,117.242c8.514,3.525,25.201-17.248,37.27-46.399
		C356.546,190.186,359.428,163.697,350.913,160.172z"/>
</g>
<g id="Layer_8">
	<path fill="#EA1B1B" d="M504.086,234.631l-30.464-12.613l-35.93,86.78l30.464,12.613c6.999,2.898,20.717-14.179,30.638-38.142
		C508.716,259.305,511.085,237.529,504.086,234.631z"/>
</g>
<g id="Layer_9">
	
		<ellipse transform="matrix(0.9239 0.3825 -0.3825 0.9239 136.188 -154.1206)" fill="#FF473E" cx="455.657" cy="265.408" rx="13.717" ry="46.962"/>
</g>
<g id="Layer_10">
	<path fill="#445056" d="M134.04,70.379l-80.93-33.508C44.596,33.346,27.91,54.119,15.84,83.27
		c-12.069,29.151-14.951,55.64-6.437,59.165l80.93,33.508c8.514,3.525,25.201-17.248,37.27-46.399
		C139.673,100.393,142.555,73.904,134.04,70.379z"/>
</g>
<g id="Layer_11">
	
		<ellipse transform="matrix(0.9239 0.3825 -0.3825 0.9239 37.4036 -6.231)" fill="#B0E9FF" cx="34.371" cy="90.942" rx="11.82" ry="43.917"/>
</g>
<g id="Layer_12">
	<path fill="#708084" d="M113.816,89.227c-0.91,0-1.834-0.178-2.725-0.555L72.713,72.436c-3.56-1.506-5.226-5.614-3.719-9.174
		c1.506-3.561,5.613-5.226,9.174-3.719l38.379,16.236c3.56,1.506,5.226,5.614,3.719,9.174
		C119.137,87.623,116.544,89.227,113.816,89.227z"/>
</g>
</svg>
