<?xml version="1.0" encoding="iso-8859-1"?>
<!-- Generator: Adobe Illustrator 19.2.0, SVG Export Plug-In . SVG Version: 6.00 Build 0)  -->
<!DOCTYPE svg PUBLIC "-//W3C//DTD SVG 1.1//EN" "http://www.w3.org/Graphics/SVG/1.1/DTD/svg11.dtd">
<svg version="1.1" xmlns="http://www.w3.org/2000/svg" xmlns:xlink="http://www.w3.org/1999/xlink" x="0px" y="0px"
	 viewBox="0 0 512 512" enable-background="new 0 0 512 512" xml:space="preserve">
<g id="Layer_2">
	<path fill="#819096" d="M79.749,223.087c-5.523,0-10-4.477-10-10c0-42.927,9.417-74.719,27.988-94.492
		c14.667-15.616,34.491-23.533,58.922-23.533c31.007,0,52.289,13.112,72.869,25.792c21.902,13.495,42.59,26.241,76.418,26.241
		c37.646,0,49.844-13.933,55.743-24.414c8.705-15.466,10.489-37.834,10.489-66.66c0-5.523,4.478-10,10-10s10,4.477,10,10
		c0,25.772-1.009,55.06-13.062,76.471c-13.106,23.284-37.041,34.603-73.171,34.603c-39.495,0-64.685-15.521-86.91-29.214
		c-19.874-12.245-37.038-22.82-62.378-22.82c-18.689,0-33.609,5.795-44.344,17.225c-14.975,15.943-22.567,43.128-22.567,80.8
		C89.749,218.61,85.272,223.087,79.749,223.087z"/>
</g>
<g id="Layer_1">
</g>
</svg>
