<?xml version="1.0" encoding="iso-8859-1"?>
<!-- Generator: Adobe Illustrator 18.1.1, SVG Export Plug-In . SVG Version: 6.00 Build 0)  -->
<!DOCTYPE svg PUBLIC "-//W3C//DTD SVG 1.1//EN" "http://www.w3.org/Graphics/SVG/1.1/DTD/svg11.dtd">
<svg version="1.1" xmlns="http://www.w3.org/2000/svg" xmlns:xlink="http://www.w3.org/1999/xlink" x="0px" y="0px"
	 viewBox="0 0 512 512" enable-background="new 0 0 512 512" xml:space="preserve">
<g id="Layer_3">
	<path fill="#FFD469" d="M281.877,306.597c0,0,0.224,0.559,0.643,1.606c0.395,1.047,0.974,2.583,1.711,4.538
		c0.715,1.955,1.561,4.329,2.487,7.052c0.922,2.723,1.955,5.795,3,9.147c1.077,3.351,2.158,6.982,3.303,10.822
		c1.109,3.84,2.274,7.89,3.393,12.079c1.167,4.189,2.234,8.518,3.367,12.917c1.061,4.399,2.188,8.867,3.179,13.336
		c0.507,2.234,1.015,4.469,1.52,6.694c0.475,2.226,0.947,4.442,1.416,6.642c0.969,4.399,1.777,8.728,2.619,12.917
		c1.754,8.379,2.669,16.199,2.869,22.902c0.1,3.351,0.046,6.424-0.129,9.147c-0.162,2.723-0.463,5.097-0.759,7.052
		c-0.323,1.955-0.652,3.491-0.919,4.538c-0.271,1.047-0.463,1.606-0.463,1.606c-10.085,29.336-42.042,44.942-71.379,34.857
		c-16.922-5.817-29.368-19.186-34.857-34.857c0,0-0.192-0.559-0.463-1.606c-0.267-1.047-0.596-2.583-0.919-4.538
		c-0.296-1.955-0.598-4.329-0.759-7.052c-0.175-2.723-0.23-5.795-0.129-9.147c0.2-6.703,1.116-14.523,2.869-22.902
		c0.842-4.189,1.651-8.518,2.619-12.917c0.469-2.199,0.942-4.416,1.416-6.642c0.505-2.226,1.013-4.46,1.52-6.694
		c0.99-4.469,2.118-8.937,3.179-13.336c1.133-4.399,2.199-8.728,3.367-12.917c1.119-4.189,2.285-8.239,3.393-12.079
		c1.145-3.84,2.227-7.471,3.303-10.822c1.045-3.351,2.078-6.424,3-9.147c0.925-2.723,1.772-5.097,2.487-7.052
		c0.737-1.955,1.316-3.491,1.711-4.538c0.42-1.047,0.644-1.606,0.644-1.606c5.728-14.293,21.958-21.237,36.251-15.51
		C273.698,294.025,279.131,299.811,281.877,306.597z"/>
</g>
<g id="Layer_1">
</g>
</svg>
