<?xml version="1.0" encoding="iso-8859-1"?>
<!-- Generator: Adobe Illustrator 19.2.0, SVG Export Plug-In . SVG Version: 6.00 Build 0)  -->
<!DOCTYPE svg PUBLIC "-//W3C//DTD SVG 1.1//EN" "http://www.w3.org/Graphics/SVG/1.1/DTD/svg11.dtd">
<svg version="1.1" xmlns="http://www.w3.org/2000/svg" xmlns:xlink="http://www.w3.org/1999/xlink" x="0px" y="0px"
	 viewBox="0 0 512 512" enable-background="new 0 0 512 512" xml:space="preserve">
<g id="Layer_2">
	<path fill="#ADB8BC" d="M479.931,77.658H254.47c-9.337,0-18.039,4.723-23.128,12.551l-83.345,128.232h291.255l63.805-98.168
		C514.985,101.923,501.816,77.658,479.931,77.658z"/>
</g>
<g id="Layer_3">
	<path fill="#1C4C5A" d="M473.52,435.283H161.861c-18.29,0-33.117-14.827-33.117-33.117V228.437
		c0-18.29,14.827-33.117,33.117-33.117H473.52c18.29,0,33.117,14.827,33.117,33.117v173.729
		C506.638,420.456,491.811,435.283,473.52,435.283z"/>
</g>
<g id="Layer_4">
	<path fill="#C5CFD1" d="M402.208,435.283H41.469V229.16c0-18.69,15.151-33.841,33.841-33.841h326.899
		c18.69,0,33.841,15.151,33.841,33.841v172.283C436.048,420.132,420.897,435.283,402.208,435.283z"/>
</g>
<g id="Layer_5">
	<circle fill="#FFFFFF" cx="373.255" cy="240.607" r="15.916"/>
</g>
<g id="Layer_6">
	<circle fill="#FF473E" cx="327.779" cy="240.607" r="15.916"/>
</g>
<g id="Layer_7">
	<path fill="#1C4C5A" d="M326.595,279H130.179C109.176,279,92,296.026,92,317.029V432h7v3h250.993l0,0H365V317.029
		C365,296.026,347.598,279,326.595,279z M107,361v-43.971C107,304.127,117.277,294,130.179,294h196.416
		C339.497,294,350,304.127,350,317.029V361H107z"/>
</g>
<g id="Layer_8">
	<rect x="129.618" y="323.878" fill="#FFFFFF" width="56.318" height="36.906"/>
</g>
<g id="Layer_9">
	<path fill="#ADB8BC" d="M4.2,412.018h347.018v23.265H4.2c-3.269,0-5.919-2.65-5.919-5.919v-11.428
		C-1.719,414.668,0.931,412.018,4.2,412.018z"/>
</g>
<g id="Layer_10">
	<path fill="#1C4C5A" d="M252.393,133.772c-1.409,0-2.833-0.405-4.091-1.25c-3.367-2.263-4.262-6.828-1.999-10.195l10.658-15.855
		c2.264-3.367,6.825-4.262,10.194-1.999c3.367,2.263,4.262,6.828,1.999,10.195l-10.658,15.855
		C257.078,132.633,254.757,133.772,252.393,133.772z M439.615,130.523l10.657-15.855c2.263-3.367,1.368-7.931-1.999-10.194
		c-3.368-2.264-7.932-1.369-10.194,1.999l-10.657,15.855c-2.263,3.367-1.368,7.931,1.999,10.194c1.258,0.845,2.682,1.25,4.091,1.25
		C435.876,133.772,438.197,132.633,439.615,130.523z M425.002,142.254c-3.369-2.264-7.932-1.529-10.194,1.839L380.482,195h17.703
		l28.817-42.71C429.264,148.922,428.369,144.518,425.002,142.254z M242.584,142.254c-3.367-2.262-7.931-1.527-10.195,1.839
		L198.063,195h17.703l28.817-42.71C246.846,148.922,245.951,144.518,242.584,142.254z"/>
</g>
</svg>
