<?xml version="1.0" encoding="iso-8859-1"?>
<!-- Generator: Adobe Illustrator 19.2.1, SVG Export Plug-In . SVG Version: 6.00 Build 0)  -->
<!DOCTYPE svg PUBLIC "-//W3C//DTD SVG 1.1//EN" "http://www.w3.org/Graphics/SVG/1.1/DTD/svg11.dtd">
<svg version="1.1" xmlns="http://www.w3.org/2000/svg" xmlns:xlink="http://www.w3.org/1999/xlink" x="0px" y="0px"
	 viewBox="0 0 512 512" enable-background="new 0 0 512 512" xml:space="preserve">
<g id="Layer_3">
	<path fill="#FFFFFF" d="M46.954,243.592c0,0-0.196-0.287-0.519-0.826c-0.323-0.533-0.774-1.327-1.265-2.374
		c-0.997-2.074-2.205-5.063-3.105-8.809c-0.46-1.872-0.828-3.931-1.064-6.15c-0.249-2.213-0.323-4.597-0.25-7.084
		c0.107-2.497,0.38-5.106,0.922-7.775c0.559-2.672,1.317-5.397,2.395-8.1c1.103-2.696,2.433-5.364,4.103-7.868
		c1.684-2.496,3.592-4.836,5.78-6.835c2.163-2.003,4.496-3.705,6.879-4.98c0.597-0.317,1.174-0.637,1.763-0.914
		c0.602-0.259,1.186-0.516,1.771-0.744c1.149-0.492,2.316-0.817,3.418-1.118c2.218-0.566,4.261-0.855,6.063-0.9
		c1.792-0.109,3.349,0.085,4.6,0.226c1.254,0.178,2.229,0.452,2.885,0.626c0.657,0.184,1.003,0.309,1.003,0.309
		c2.474,0.89,3.759,3.617,2.869,6.091c-0.191,0.531-0.466,1.006-0.805,1.418l-0.327,0.391c0,0-0.207,0.249-0.595,0.716
		c-0.381,0.458-0.953,1.064-1.621,1.817c-0.641,0.808-1.454,1.62-2.22,2.65c-0.386,0.513-0.828,0.957-1.2,1.538
		c-0.379,0.564-0.832,1.031-1.183,1.649c-0.37,0.588-0.784,1.118-1.125,1.737c-0.175,0.303-0.365,0.586-0.548,0.875
		c-0.166,0.302-0.335,0.608-0.506,0.918c-0.692,1.196-1.301,2.462-1.907,3.747c-0.622,1.266-1.155,2.664-1.764,4.054
		c-0.591,1.411-1.153,2.937-1.744,4.503c-1.178,3.156-2.322,6.649-3.556,10.149c-0.591,1.763-1.232,3.502-1.849,5.217
		c-0.632,1.706-1.262,3.367-1.906,4.932c-0.64,1.566-1.273,3.031-1.879,4.355c-0.615,1.317-1.185,2.499-1.708,3.465
		c-0.508,0.961-0.965,1.745-1.288,2.287c-0.325,0.537-0.522,0.824-0.522,0.824c-1.894,2.755-5.663,3.453-8.418,1.559
		C47.898,244.739,47.363,244.187,46.954,243.592z M323.605,245.172c2.755,1.894,6.524,1.196,8.418-1.559
		c0,0,0.197-0.286,0.522-0.824c0.323-0.543,0.779-1.326,1.288-2.287c0.523-0.966,1.093-2.148,1.708-3.465
		c0.606-1.323,1.239-2.789,1.879-4.355c0.645-1.565,1.274-3.227,1.906-4.932c0.617-1.714,1.257-3.453,1.849-5.217
		c1.234-3.499,2.378-6.992,3.556-10.149c0.592-1.566,1.154-3.092,1.744-4.503c0.609-1.391,1.141-2.789,1.764-4.054
		c0.607-1.285,1.215-2.551,1.907-3.747c0.171-0.31,0.34-0.617,0.506-0.918c0.184-0.29,0.373-0.572,0.548-0.875
		c0.341-0.619,0.755-1.149,1.125-1.737c0.351-0.619,0.805-1.085,1.183-1.649c0.371-0.581,0.814-1.026,1.2-1.538
		c0.767-1.03,1.579-1.842,2.22-2.65c0.668-0.753,1.239-1.359,1.621-1.817c0.388-0.467,0.595-0.716,0.595-0.716l0.327-0.391
		c0.339-0.411,0.614-0.887,0.805-1.418c0.89-2.474-0.395-5.201-2.869-6.091c0,0-0.346-0.125-1.003-0.309
		c-0.656-0.174-1.63-0.448-2.885-0.626c-1.252-0.141-2.809-0.335-4.6-0.226c-1.802,0.045-3.845,0.334-6.063,0.9
		c-1.102,0.301-2.269,0.626-3.418,1.118c-0.585,0.228-1.169,0.485-1.771,0.744c-0.589,0.277-1.165,0.597-1.763,0.914
		c-2.383,1.274-4.716,2.976-6.879,4.98c-2.188,1.999-4.096,4.339-5.78,6.835c-1.669,2.504-3,5.172-4.103,7.868
		c-1.078,2.703-1.835,5.428-2.395,8.1c-0.541,2.669-0.815,5.277-0.922,7.775c-0.074,2.487,0.001,4.871,0.25,7.084
		c0.236,2.218,0.603,4.277,1.064,6.15c0.9,3.746,2.108,6.735,3.105,8.809c0.491,1.046,0.942,1.841,1.265,2.374
		c0.323,0.538,0.519,0.826,0.519,0.826C322.44,244.187,322.974,244.739,323.605,245.172z"/>
</g>
<g id="Layer_1">
</g>
</svg>
