<?xml version="1.0" encoding="iso-8859-1"?>
<!-- Generator: Adobe Illustrator 19.2.1, SVG Export Plug-In . SVG Version: 6.00 Build 0)  -->
<!DOCTYPE svg PUBLIC "-//W3C//DTD SVG 1.1//EN" "http://www.w3.org/Graphics/SVG/1.1/DTD/svg11.dtd">
<svg version="1.1" xmlns="http://www.w3.org/2000/svg" xmlns:xlink="http://www.w3.org/1999/xlink" x="0px" y="0px"
	 viewBox="0 0 512 512" enable-background="new 0 0 512 512" xml:space="preserve">
<g id="Layer_3">
	<path fill="#96A9B2" d="M509.175,399.037c-0.075,0.138-0.202,0.235-0.284,0.37c-6.895,18.064-24.257,30.95-44.748,30.95H47.999
		c-1.561,0-3.011-0.366-4.535-0.512h-0.605c-0.157-0.019-0.284-0.101-0.441-0.12c-10.025-1.18-19.05-5.315-26.207-11.699
		c-0.134-0.12-0.314-0.176-0.448-0.295l0.082-0.064c-1.688-1.539-3.444-3.018-4.901-4.785c-3.414-4.139-6.148-8.867-8.031-14.003
		c-0.03-0.041-0.067-0.071-0.09-0.116l0.045-0.037c-1.853-5.117,218.258-171.426,218.258-171.426
		c27.29-20.686,41.805-20.365,69.401,0c0,0,220.432,166.443,218.512,171.631L509.175,399.037z"/>
</g>
<g id="Layer_1">
</g>
</svg>
