<?xml version="1.0" encoding="iso-8859-1"?>
<!-- Generator: Adobe Illustrator 19.2.0, SVG Export Plug-In . SVG Version: 6.00 Build 0)  -->
<!DOCTYPE svg PUBLIC "-//W3C//DTD SVG 1.1//EN" "http://www.w3.org/Graphics/SVG/1.1/DTD/svg11.dtd">
<svg version="1.1" xmlns="http://www.w3.org/2000/svg" xmlns:xlink="http://www.w3.org/1999/xlink" x="0px" y="0px"
	 viewBox="0 0 512 512" enable-background="new 0 0 512 512" xml:space="preserve">
<g id="Layer_2">
	<path fill="#445056" d="M414.284,102.919c-18.72-21.553-51.368-23.849-72.921-5.129c0,0-1.078,0.936-3.061,2.728
		c-1.973,1.802-4.88,4.432-8.481,7.878c-3.638,3.409-7.95,7.654-12.905,12.515c-4.932,4.883-10.416,10.473-16.342,16.627
		c-4.558,4.714-9.334,9.809-14.322,15.167c-7.524,4.841-13.766,11.5-18.088,19.368c-2.497,2.645-5.021,5.308-7.601,8.003
		c-7.401,7.699-15.05,15.655-22.821,23.739c-7.787,8.068-15.723,16.24-23.535,24.536c-7.814,8.293-15.565,16.65-22.983,25.087
		c-7.463,8.392-14.618,16.842-21.398,25.162c-6.782,8.318-13.193,16.505-19.169,24.371c-2.982,3.939-5.889,7.764-8.61,11.556
		c-2.695,3.817-5.187,7.618-7.472,11.372c-4.544,7.537-8.279,14.875-11.209,21.761c-2.947,6.868-5.133,13.239-6.691,18.728
		c-6.877,17.521,11.299,30.555,29.013,29.013c5.489-1.558,11.86-3.744,18.728-6.691c6.885-2.93,14.224-6.665,21.76-11.209
		c3.755-2.286,7.555-4.777,11.372-7.472c3.791-2.721,7.617-5.628,11.556-8.61c7.866-5.976,16.052-12.387,24.371-19.169
		c8.32-6.781,16.769-13.935,25.162-21.398c8.437-7.418,16.794-15.169,25.087-22.983c8.296-7.812,16.467-15.747,24.536-23.535
		c8.084-7.772,16.04-15.42,23.739-22.821c1.514-1.449,3.015-2.875,4.514-4.298c11.46-4.944,20.846-13.766,26.525-24.812
		c4.021-3.759,7.874-7.396,11.5-10.901c6.155-5.926,11.744-11.41,16.627-16.342c4.861-4.954,9.106-9.267,12.515-12.905
		c3.446-3.601,6.076-6.508,7.878-8.481c1.792-1.983,2.728-3.061,2.728-3.061C430.936,151.581,431.392,122.615,414.284,102.919z"/>
</g>
<g id="Layer_1">
</g>
</svg>
