<?xml version="1.0" encoding="iso-8859-1"?>
<!-- Generator: Adobe Illustrator 18.1.1, SVG Export Plug-In . SVG Version: 6.00 Build 0)  -->
<!DOCTYPE svg PUBLIC "-//W3C//DTD SVG 1.1//EN" "http://www.w3.org/Graphics/SVG/1.1/DTD/svg11.dtd">
<svg version="1.1" xmlns="http://www.w3.org/2000/svg" xmlns:xlink="http://www.w3.org/1999/xlink" x="0px" y="0px"
	 viewBox="0 0 512 512" enable-background="new 0 0 512 512" xml:space="preserve">
<g id="Layer_2">
	<path fill="#597B91" d="M106.796,465.429c-3.52,0-7.039-1.343-9.724-4.028L33.8,398.128c-5.371-5.37-5.371-14.077,0-19.447
		c5.37-5.371,14.077-5.371,19.447,0l63.273,63.272c5.371,5.37,5.371,14.077,0,19.447
		C113.835,464.086,110.316,465.429,106.796,465.429z"/>
</g>
<g id="Layer_3">
	<path fill="#445056" d="M419.31,448.606h-36.781c-2.982-8.255-7.036-15.997-11.994-23.059
		c21.597-16.999,38.983-39.271,49.834-64.775c19.628-46.132,16.912-99.912-7.264-143.865
		c-13.173-23.948-32.347-44.114-55.107-58.794c0.131-0.123,0.271-0.232,0.399-0.361l79.266-79.266
		c6.847-6.847,6.847-17.948,0-24.795L420.91,36.939c-6.847-6.847-17.948-6.847-24.795,0l-79.266,79.266
		c-5.996,5.996-6.74,15.255-2.234,22.062c-5.549-1.618-11.192-2.954-16.914-3.969c-16.682-2.967-32.605,8.161-35.565,24.843
		c-2.961,16.681,8.162,32.604,24.843,35.565c30.458,5.406,57.512,24.76,72.37,51.771c15.173,27.584,16.88,61.332,4.565,90.275
		c-9.226,21.683-26.006,39.638-46.699,50.682c-8.675-2.5-17.841-3.844-27.321-3.844c-42.637,0-78.941,27.101-92.636,65.015h-71.638
		c-1.983-12.702-12.97-22.421-26.228-22.421c-14.663,0-26.549,11.886-26.549,26.549c0,2.892,0.469,5.674,1.324,8.28
		c-3.789,5.103-6.033,11.423-6.033,18.268c0,16.942,13.734,30.677,30.676,30.677h320.5c16.942,0,30.677-13.734,30.677-30.677
		S436.252,448.606,419.31,448.606z"/>
</g>
<g id="Layer_4">
	<path fill="#6FBAD8" d="M195.925,334.671l-55.995-55.995c-6.847-6.847-6.847-17.948,0-24.795L317.482,76.328
		c6.847-6.847,17.948-6.847,24.795,0l55.995,55.995c6.847,6.847,6.847,17.948,0,24.795L220.72,334.671
		C213.873,341.518,202.772,341.518,195.925,334.671z M466.771,88.621l1.433-1.433c6.847-6.847,6.847-17.948,0-24.795L412.209,6.397
		c-6.847-6.847-17.948-6.847-24.795,0L385.98,7.83c-6.847,6.847-6.847,17.948,0,24.795l55.995,55.995
		C448.822,95.468,459.924,95.468,466.771,88.621z M212.207,449.281c9.088-9.088,9.088-23.823,0-32.912L89.5,293.662
		c-9.087-9.088-23.823-9.088-32.911,0c-9.088,9.088-9.088,23.823,0,32.912l122.708,122.708c4.544,4.544,10.5,6.816,16.455,6.816
		C201.708,456.097,207.664,453.826,212.207,449.281z"/>
</g>
<g id="Layer_5">
	
		<rect x="150.754" y="251.47" transform="matrix(0.7071 0.7071 -0.7071 0.7071 249.4865 -68.8736)" fill="#597B91" width="114.255" height="30.501"/>
</g>
</svg>
