<?xml version="1.0" encoding="iso-8859-1"?>
<!-- Generator: Adobe Illustrator 19.2.1, SVG Export Plug-In . SVG Version: 6.00 Build 0)  -->
<!DOCTYPE svg PUBLIC "-//W3C//DTD SVG 1.1//EN" "http://www.w3.org/Graphics/SVG/1.1/DTD/svg11.dtd">
<svg version="1.1" xmlns="http://www.w3.org/2000/svg" xmlns:xlink="http://www.w3.org/1999/xlink" x="0px" y="0px"
	 viewBox="0 0 512 512" enable-background="new 0 0 512 512" xml:space="preserve">
<g id="Layer_2">
	<path fill="#B9C5C6" d="M256.131,219.866L3.988,397.307V129.405c0-26.113,21.164-47.277,47.277-47.277h409.733
		c26.113,0,47.277,21.164,47.277,47.277v267.902L256.131,219.866z"/>
</g>
<g id="Layer_3">
	<path fill="#96A9B2" d="M509.175,399.037c-0.075,0.138-0.202,0.235-0.284,0.37c-6.895,18.064-24.257,30.95-44.748,30.95H47.999
		c-1.561,0-3.011-0.366-4.535-0.512h-0.605c-0.157-0.019-0.284-0.101-0.441-0.12c-10.025-1.18-19.05-5.315-26.207-11.699
		c-0.134-0.12-0.314-0.176-0.448-0.295l0.082-0.064c-1.688-1.539-3.444-3.018-4.901-4.785c-3.414-4.139-6.148-8.867-8.031-14.003
		c-0.03-0.041-0.067-0.071-0.09-0.116l0.045-0.037c-1.853-5.117,218.258-171.426,218.258-171.426
		c27.29-20.686,41.805-20.365,69.401,0c0,0,220.432,166.443,218.512,171.631L509.175,399.037z"/>
</g>
<g id="Layer_4">
	<path fill="#DCE2E2" d="M17.593,93.57c6.367-5.657,18.419-10.827,28.628-11.912l419.838-0.015c10.239,1.1,18.626,0,28.658,11.927
		c10.031,11.927,10.76,18.675,10.76,18.675L290.538,281.066c-26.869,20.367-41.161,20.051-68.331,0L6.929,111.977
		C6.929,111.977,11.226,99.227,17.593,93.57z"/>
</g>
<g id="Layer_5">
	<path fill="#FDB436" d="M295.895,240.586L112.79,347.925c-2.841,1.666-5.959-1.696-4.084-4.404l60.487-87.346
		c1.261-1.821,0.241-4.338-1.932-4.768l-83.364-16.484c-2.762-0.546-3.399-4.208-0.984-5.655l183.823-110.151
		c2.917-1.748,6.095,1.832,4.013,4.521L201.5,213.07c-1.41,1.821-0.392,4.488,1.872,4.907l91.527,16.931
		C297.7,235.426,298.353,239.145,295.895,240.586z"/>
</g>
</svg>
