<?xml version="1.0" encoding="iso-8859-1"?>
<!-- Generator: Adobe Illustrator 19.2.1, SVG Export Plug-In . SVG Version: 6.00 Build 0)  -->
<!DOCTYPE svg PUBLIC "-//W3C//DTD SVG 1.1//EN" "http://www.w3.org/Graphics/SVG/1.1/DTD/svg11.dtd">
<svg version="1.1" xmlns="http://www.w3.org/2000/svg" xmlns:xlink="http://www.w3.org/1999/xlink" x="0px" y="0px"
	 viewBox="0 0 512 512" enable-background="new 0 0 512 512" xml:space="preserve">
<g id="Layer_3">
	<path fill="#FF473E" d="M214.135,226.93c-19.933,0-39.866-7.587-55.041-22.762c-30.349-30.35-30.349-79.732,0-110.082
		l68.928-68.927c14.701-14.702,34.249-22.798,55.041-22.798c20.791,0,40.339,8.097,55.041,22.798
		c30.349,30.35,30.349,79.732,0,110.081l-68.928,68.928C254.001,219.342,234.068,226.93,214.135,226.93z M283.062,37.715
		c-11.349,0-22.017,4.419-30.041,12.443l-68.928,68.927c-16.564,16.565-16.564,43.518,0,60.083
		c8.024,8.024,18.693,12.443,30.041,12.443c11.348,0,22.017-4.419,30.041-12.443l68.928-68.928
		c16.564-16.564,16.564-43.517,0-60.082C305.079,42.135,294.41,37.715,283.062,37.715z"/>
</g>
<g id="Layer_1">
</g>
</svg>
