<?xml version="1.0" encoding="iso-8859-1"?>
<!-- Generator: Adobe Illustrator 19.2.0, SVG Export Plug-In . SVG Version: 6.00 Build 0)  -->
<!DOCTYPE svg PUBLIC "-//W3C//DTD SVG 1.1//EN" "http://www.w3.org/Graphics/SVG/1.1/DTD/svg11.dtd">
<svg version="1.1" xmlns="http://www.w3.org/2000/svg" xmlns:xlink="http://www.w3.org/1999/xlink" x="0px" y="0px"
	 viewBox="0 0 512 512" enable-background="new 0 0 512 512" xml:space="preserve">
<g id="Layer_4">
	<path fill="#819096" d="M280.864,366.929H146.567c-4.298,0-7.782-3.484-7.782-7.782v-3.115c0-4.298,3.484-7.782,7.782-7.782
		h134.297c4.298,0,7.782,3.484,7.782,7.782v3.115C288.646,363.445,285.162,366.929,280.864,366.929z M288.646,398.733v-3.115
		c0-4.298-3.484-7.782-7.782-7.782H146.567c-4.298,0-7.782,3.484-7.782,7.782v3.115c0,4.298,3.484,7.782,7.782,7.782h134.297
		C285.162,406.515,288.646,403.031,288.646,398.733z M288.646,438.319v-3.115c0-4.298-3.484-7.782-7.782-7.782H146.567
		c-4.298,0-7.782,3.484-7.782,7.782v3.115c0,4.298,3.484,7.782,7.782,7.782h134.297
		C285.162,446.101,288.646,442.617,288.646,438.319z"/>
</g>
<g id="Layer_1">
</g>
</svg>
