<?xml version="1.0" encoding="iso-8859-1"?>
<!-- Generator: Adobe Illustrator 19.2.0, SVG Export Plug-In . SVG Version: 6.00 Build 0)  -->
<!DOCTYPE svg PUBLIC "-//W3C//DTD SVG 1.1//EN" "http://www.w3.org/Graphics/SVG/1.1/DTD/svg11.dtd">
<svg version="1.1" xmlns="http://www.w3.org/2000/svg" xmlns:xlink="http://www.w3.org/1999/xlink" x="0px" y="0px"
	 viewBox="0 0 512 512" enable-background="new 0 0 512 512" xml:space="preserve">
<g id="Layer_2">
	<path fill="#E3E2DD" d="M193.283,126.96c-93.138,0-168.641,75.594-168.641,168.845c0,21.825,4.137,42.682,11.667,61.83
		L7.73,451.016c-0.243,0.573-0.42,1.212-0.542,1.815L7.151,453h0.021c-0.522,3,0.216,5.716,2.301,7.936
		c2.083,2.22,5.008,3.122,7.814,2.774c-0.002,0.006,0,0.002,0,0.002l0.118-0.028c0.619-0.086,1.23-0.229,1.826-0.44l89.36-21.407
		c24.889,14.501,53.819,22.812,84.691,22.812c93.138,0,168.641-75.595,168.641-168.845S286.421,126.96,193.283,126.96z"/>
</g>
<g id="Layer_1">
</g>
</svg>
