<?xml version="1.0" encoding="iso-8859-1"?>
<!-- Generator: Adobe Illustrator 19.1.0, SVG Export Plug-In . SVG Version: 6.00 Build 0)  -->
<!DOCTYPE svg PUBLIC "-//W3C//DTD SVG 1.1//EN" "http://www.w3.org/Graphics/SVG/1.1/DTD/svg11.dtd">
<svg version="1.1" xmlns="http://www.w3.org/2000/svg" xmlns:xlink="http://www.w3.org/1999/xlink" x="0px" y="0px"
	 viewBox="0 0 512 512" enable-background="new 0 0 512 512" xml:space="preserve">
<g id="Layer_4">
	<path fill="#5381B9" d="M175.797,446.474l-67.64-54.124c-1.932-1.546-2.248-4.393-0.702-6.325l9.839-12.296
		c1.546-1.932,4.393-2.248,6.325-0.702l67.64,54.124c1.932,1.546,2.248,4.393,0.702,6.325l-9.839,12.296
		C180.575,447.705,177.729,448.021,175.797,446.474z M212.082,414.739l10.453-13.012c3.1-3.859,2.479-9.553-1.38-12.653
		l-95.078-76.379c-3.859-3.1-9.553-2.479-12.653,1.38l-10.453,13.012c-3.1,3.859-2.479,9.553,1.38,12.653l95.078,76.379
		C203.288,419.219,208.982,418.598,212.082,414.739z M422.419,81.682l8.29-11.168c2.459-3.312,1.76-8.034-1.552-10.492
		l-59.139-43.901c-3.312-2.459-8.034-1.76-10.492,1.552l-8.29,11.168c-2.459,3.312-1.76,8.034,1.552,10.492l59.139,43.901
		C415.238,85.693,419.96,84.995,422.419,81.682z M264.749,311.864l126.726-170.713c3.934-5.299,2.817-12.854-2.483-16.788
		l-68.935-51.172c-5.299-3.934-12.854-2.817-16.788,2.483L176.543,246.387c-3.934,5.299-2.817,12.854,2.483,16.788l68.935,51.172
		C253.26,318.281,260.815,317.164,264.749,311.864z"/>
</g>
<g id="Layer_1">
</g>
</svg>
