<?xml version="1.0" encoding="iso-8859-1"?>
<!-- Generator: Adobe Illustrator 19.2.0, SVG Export Plug-In . SVG Version: 6.00 Build 0)  -->
<!DOCTYPE svg PUBLIC "-//W3C//DTD SVG 1.1//EN" "http://www.w3.org/Graphics/SVG/1.1/DTD/svg11.dtd">
<svg version="1.1" xmlns="http://www.w3.org/2000/svg" xmlns:xlink="http://www.w3.org/1999/xlink" x="0px" y="0px"
	 viewBox="0 0 512 512" enable-background="new 0 0 512 512" xml:space="preserve">
<g id="Layer_2">
	<path fill="#000000" d="M386.855,241.607l0.504-4.313c0-1.685-0.043-3.36-0.107-5.03c0.07-1.01,0.107-2.114,0.107-3.313c0-5.99,0-8.843,0-10.101
		c0-0.026,0-0.263,0-0.881c0-2.096,0-8.638,0-26.716c0-50.027-20.382-116.93-104.559-121.112v-0.207h-39.474
		c-91.277,0-116.76,60.526-116.76,117.073c0,26.56,0,32.028,0,32.959c0-0.009,0,0.031,0,0.17c0,0.538,0,2.603,0,9.455
		c0,4.233,1.373,8.263,3.313,10.429l0.192,1.638c0,0-0.001,0-0.002,0c-12.448,2.428-21.851,13.402-21.851,26.564
		c0,14.942,12.118,27.064,27.053,27.064c0.364,0,0.717-0.04,1.078-0.054l1.183,10.098c0,36.647,16.3,69.485,42.042,91.664
		c21.208,18.436,48.905,29.603,79.214,29.603c66.698,0,120.797-54.083,120.797-120.791l0.32-4.773l0.681-5.823
		c0.495,0.027,0.984,0.075,1.486,0.075c14.935,0,27.053-12.122,27.053-27.064C409.125,254.917,399.506,243.871,386.855,241.607z"/>
</g>
<g id="Layer_1">
</g>
</svg>
