<?xml version="1.0" encoding="iso-8859-1"?>
<!-- Generator: Adobe Illustrator 18.1.1, SVG Export Plug-In . SVG Version: 6.00 Build 0)  -->
<!DOCTYPE svg PUBLIC "-//W3C//DTD SVG 1.1//EN" "http://www.w3.org/Graphics/SVG/1.1/DTD/svg11.dtd">
<svg version="1.1" xmlns="http://www.w3.org/2000/svg" xmlns:xlink="http://www.w3.org/1999/xlink" x="0px" y="0px"
	 viewBox="0 0 512 512" enable-background="new 0 0 512 512" xml:space="preserve">
<g id="Layer_4">
	<path fill="#FFB636" d="M437.138,227.796c-10.033,10.033-52.44-16.109-94.721-58.39s-68.422-84.688-58.39-94.721
		c10.033-10.033,52.44,16.109,94.721,58.39S447.17,217.764,437.138,227.796z M418.015,108.338l47.959-47.959
		c3.962-3.962,3.962-10.387,0-14.349c-3.963-3.962-10.387-3.962-14.35,0l-47.959,47.959c-3.962,3.962-3.962,10.387,0,14.349
		c1.981,1.981,4.578,2.972,7.175,2.972S416.033,110.319,418.015,108.338z M370.855,64.404V12.47c0-5.604-4.543-10.146-10.146-10.146
		s-10.146,4.543-10.146,10.146v51.934c0,5.604,4.543,10.146,10.146,10.146S370.855,70.007,370.855,64.404z M509.5,151.368
		c0-5.604-4.543-10.146-10.146-10.146h-54.491c-5.604,0-10.146,4.543-10.146,10.146s4.543,10.146,10.146,10.146h54.491
		C504.957,161.515,509.5,156.972,509.5,151.368z"/>
</g>
<g id="Layer_1">
</g>
</svg>
