<?xml version="1.0" encoding="iso-8859-1"?>
<!-- Generator: Adobe Illustrator 18.1.1, SVG Export Plug-In . SVG Version: 6.00 Build 0)  -->
<!DOCTYPE svg PUBLIC "-//W3C//DTD SVG 1.1//EN" "http://www.w3.org/Graphics/SVG/1.1/DTD/svg11.dtd">
<svg version="1.1" xmlns="http://www.w3.org/2000/svg" xmlns:xlink="http://www.w3.org/1999/xlink" x="0px" y="0px"
	 viewBox="0 0 512 512" enable-background="new 0 0 512 512" xml:space="preserve">
<g id="Layer_30">
	<path fill="#E5E5E5" d="M276.162,424.426c-0.654-0.743-0.596-1.869,0.136-2.534c0.278-0.252,0.597-0.542,0.953-0.865
		c0.738-0.653,1.549-1.46,2.525-2.376c0.985-0.893,2.007-2.019,3.157-3.2c0.571-0.594,1.167-1.214,1.783-1.854
		c0.602-0.664,1.225-1.351,1.865-2.056c1.278-1.414,2.626-2.905,4.02-4.447l0.525-0.581l0.066-0.073l0.033-0.036l0.017-0.018
		c0.015-0.017-0.073,0.081-0.028,0.031l0.128-0.151l0.256-0.303c0.342-0.405,0.687-0.813,1.035-1.224
		c0.694-0.821,1.397-1.653,2.105-2.491c1.416-1.676,2.855-3.379,4.294-5.081c1.395-1.72,2.636-3.497,3.94-5.211
		c1.254-1.702,2.623-3.462,3.906-5.14c1.302-1.669,2.514-3.337,3.75-4.823c1.255-1.466,2.441-2.853,3.536-4.132
		c2.694-3.148,4.837-5.65,6.088-7.112c0.668-0.78,1.846-0.846,2.601-0.149l1.948,1.798c0.736,0.679,0.785,1.823,0.105,2.557
		c-1.283,1.385-3.496,3.775-6.284,6.785c-1.128,1.218-2.35,2.537-3.643,3.932c-1.27,1.41-2.495,2.97-3.826,4.545
		c-1.319,1.592-2.669,3.188-4.089,4.965c-1.421,1.724-2.816,3.549-4.296,5.234c-1.505,1.645-3.009,3.291-4.491,4.91
		c-0.741,0.81-1.475,1.613-2.201,2.407c-0.363,0.397-0.724,0.791-1.082,1.183l-0.585,0.631l-0.553,0.566
		c-1.469,1.502-2.888,2.954-4.235,4.331c-0.674,0.687-1.331,1.356-1.965,2.003c-0.658,0.634-1.294,1.246-1.905,1.833
		c-1.229,1.168-2.314,2.271-3.378,3.165c-1.04,0.904-1.944,1.731-2.692,2.342c-0.374,0.314-0.708,0.594-0.999,0.838
		C277.927,425.253,276.812,425.164,276.162,424.426L276.162,424.426z"/>
</g>
<g id="Layer_1">
</g>
</svg>
