<?xml version="1.0" encoding="iso-8859-1"?>
<!-- Generator: Adobe Illustrator 18.1.1, SVG Export Plug-In . SVG Version: 6.00 Build 0)  -->
<!DOCTYPE svg PUBLIC "-//W3C//DTD SVG 1.1//EN" "http://www.w3.org/Graphics/SVG/1.1/DTD/svg11.dtd">
<svg version="1.1" xmlns="http://www.w3.org/2000/svg" xmlns:xlink="http://www.w3.org/1999/xlink" x="0px" y="0px"
	 viewBox="0 0 512 512" enable-background="new 0 0 512 512" xml:space="preserve">
<g id="Layer_19">
	<path fill="#76DFFF" d="M309.907,358.648c-3.442-3.177-6.734-5.536-9.516-4.731c2.957,5.21,2.43,11.913-1.849,16.551
		c-2.241,2.428-5.133,3.889-8.16,4.369c0.229-3.946-0.423-8.137-4.58-6.772c-13.381,4.395-1.378,6.171-2.702,19.699
		c-0.398,3.111-1.378,7.382-3.461,13.604c-3.525,10.533-10.705,16.829-4.24,21.732c0,0,7.753-7.281,13.763-13.793
		c6.01-6.512,11.046-8.853,15.227-16.498c2.803-5.126,19.413-21.337,19.413-21.337S314.279,362.683,309.907,358.648z"/>
</g>
<g id="Layer_1">
</g>
</svg>
