<?xml version="1.0" encoding="iso-8859-1"?>
<!-- Generator: Adobe Illustrator 18.1.1, SVG Export Plug-In . SVG Version: 6.00 Build 0)  -->
<!DOCTYPE svg PUBLIC "-//W3C//DTD SVG 1.1//EN" "http://www.w3.org/Graphics/SVG/1.1/DTD/svg11.dtd">
<svg version="1.1" xmlns="http://www.w3.org/2000/svg" xmlns:xlink="http://www.w3.org/1999/xlink" x="0px" y="0px"
	 viewBox="0 0 512 512" enable-background="new 0 0 512 512" xml:space="preserve">
<g id="Layer_11">
	<path fill="#DC9A70" d="M125.036,172.325c0,0-0.244,0.036-0.672,0.1c-0.419,0.067-1.005,0.171-1.704,0.318
		c-0.699,0.145-1.509,0.34-2.373,0.575c-0.863,0.249-1.781,0.527-2.689,0.882c-0.91,0.336-1.811,0.753-2.64,1.21
		c-0.418,0.205-0.808,0.491-1.18,0.724c-0.374,0.228-0.705,0.542-1.017,0.782c-0.316,0.234-0.567,0.559-0.803,0.792
		c-0.24,0.233-0.419,0.486-0.559,0.704c-0.281,0.426-0.441,0.669-0.441,0.669c-0.465,0.707-0.27,1.657,0.437,2.122
		c0.657,0.433,1.524,0.294,2.017-0.295l0.225-0.269c0,0,0.103-0.123,0.283-0.338c0.08-0.111,0.184-0.244,0.359-0.376
		c0.173-0.131,0.303-0.312,0.552-0.456c0.242-0.146,0.453-0.337,0.759-0.485c0.302-0.149,0.584-0.336,0.942-0.472
		c0.68-0.303,1.447-0.587,2.253-0.808c0.795-0.238,1.625-0.415,2.403-0.57c0.784-0.144,1.522-0.258,2.157-0.335
		c0.635-0.079,1.166-0.128,1.53-0.155c0.357-0.023,0.56-0.036,0.56-0.036l0.056-0.004c1.188-0.076,2.089-1.1,2.013-2.288
		c-0.076-1.188-1.1-2.089-2.288-2.013C125.156,172.309,125.093,172.316,125.036,172.325z"/>
</g>
<g id="Layer_1">
</g>
</svg>
