<?xml version="1.0" encoding="iso-8859-1"?>
<!-- Generator: Adobe Illustrator 18.1.1, SVG Export Plug-In . SVG Version: 6.00 Build 0)  -->
<!DOCTYPE svg PUBLIC "-//W3C//DTD SVG 1.1//EN" "http://www.w3.org/Graphics/SVG/1.1/DTD/svg11.dtd">
<svg version="1.1" xmlns="http://www.w3.org/2000/svg" xmlns:xlink="http://www.w3.org/1999/xlink" x="0px" y="0px"
	 viewBox="0 0 512 512" enable-background="new 0 0 512 512" xml:space="preserve">
<g id="Layer_2">
	<path fill="#BFBCAF" d="M441.276,100.448c-28.214-71.68-86.782-71.68-114.997,0l-80,203.245
		c-19.919,50.605-59.515,73.103-85.143,31.875l-11.683-18.794c-38.421-61.808-101.264-61.872-139.738-0.198v173.041
		c0,6.6,5.4,12,12,12h467.234c6.6,0,12-5.4,12-12V252.056L441.276,100.448z"/>
</g>
<g id="Layer_3">
	<path fill="#A39F90" d="M9.716,431.61v58.007c0,6.6,5.4,12,12,12h467.234c6.6,0,12-5.4,12-12V431.61H9.716z"/>
</g>
<g id="Layer_4">
	<path fill="#EDC0A2" d="M317.19,254.706c0,0-0.189,0.621-0.543,1.786c-0.356,1.164-0.864,2.876-1.559,5.039
		c-0.686,2.166-1.519,4.796-2.475,7.812c-0.938,3.022-2.063,6.41-3.293,10.105c-1.225,3.696-2.553,7.701-3.957,11.936
		c-1.377,4.245-2.952,8.68-4.542,13.281c-1.596,4.599-3.246,9.351-4.922,14.18c-0.838,2.414-1.683,4.848-2.531,7.291
		c-0.918,2.487-1.84,4.984-2.762,7.481c-3.615,9.738-7.231,19.475-10.62,28.604c-3.493,9.093-6.753,17.58-9.547,24.854
		c-1.381,3.643-2.743,6.949-3.9,9.896c-1.17,2.943-2.19,5.509-3.03,7.622l-2.597,6.384c-1.235,3.037-4.525,4.871-7.686,4.001
		c-2.98-0.82-4.8-3.518-4.723-6.347l0.051-1.675c0,0,0.02-0.68,0.058-1.955c0.078-1.261,0.117-3.137,0.304-5.477
		c0.09-1.171,0.189-2.468,0.298-3.88c0.099-1.415,0.228-2.938,0.398-4.553c0.151-1.622,0.331-3.342,0.544-5.147
		c0.196-1.811,0.422-3.708,0.685-5.677c0.247-1.975,0.516-4.029,0.832-6.142c0.304-2.117,0.611-4.307,0.982-6.54
		c0.692-4.483,1.523-9.176,2.409-14.021c0.466-2.415,0.939-4.87,1.418-7.355c0.517-2.472,1.04-4.974,1.568-7.496
		c0.509-2.529,1.121-5.043,1.686-7.584c0.57-2.54,1.151-5.086,1.786-7.614l0.93-3.798l0.464-1.897l0.232-0.947l0.116-0.473
		c-0.023,0.062,0.072-0.223-0.048,0.125l0.014-0.059l0.027-0.119l0.055-0.237c0.583-2.532,1.163-5.054,1.739-7.556
		c1.214-4.983,2.449-9.874,3.764-14.567c1.303-4.697,2.645-9.21,4.008-13.459c1.349-4.254,2.722-8.243,4.052-11.905
		c1.325-3.663,2.632-6.99,3.827-9.927c0.617-1.462,1.195-2.83,1.729-4.095c0.571-1.253,1.095-2.404,1.568-3.443
		c0.919-2.088,1.758-3.69,2.301-4.791c0.268-0.552,0.498-0.967,0.649-1.248c0.151-0.281,0.229-0.426,0.229-0.426l0.878-1.631
		c3.996-7.425,13.117-10.779,20.748-7.194C316.067,239.283,319.413,247.41,317.19,254.706z"/>
</g>
<g id="Layer_5">
	<path fill="#DEE254" d="M195.362,416.302c5.367,1.839,7.055,2.765,22.634,6.4c22.531,5.257,16.825,1.884,46.931,8.908"/>
</g>
<g id="Layer_6">
	<path fill="#FFB636" d="M230.15,403.192"/>
</g>
<g id="Layer_7">
	<path fill="#76DFFF" d="M268.641,402.585c-3.072,5.142-9.162,7.993-15.307,6.56c-3.217-0.751-5.916-2.545-7.827-4.941
		c3.545-1.748,6.869-4.384,3.629-7.325c-10.427-9.469-6.047,1.847-18.467,7.372c-2.902,1.189-7.101,2.445-13.54,3.704
		c-10.9,2.132-19.92-1.005-20.994,7.038c0,0,10.159,3.149,18.789,5.163c8.63,2.013,13.151,5.238,21.863,5.101
		c5.842-0.092,28.138,6.354,28.138,6.354s2.944-12.62,4.296-18.414C270.286,408.635,270.714,404.607,268.641,402.585z"/>
</g>
<g id="Layer_8">
	<path fill="#FF473E" d="M131.323,408.637c-1.082,0-2.181-0.235-3.222-0.732c-3.739-1.782-5.325-6.258-3.542-9.997l49.29-103.387
		l-12.45-11.981c-2.205-2.122-2.899-5.37-1.755-8.208c1.144-2.838,3.896-4.696,6.956-4.696h143.847c2.724,0,5.233,1.477,6.556,3.857
		l68.893,124c1.291,2.323,1.256,5.155-0.092,7.446c-1.348,2.29-3.807,3.696-6.464,3.696h-83.893c-1.939,0-3.804-0.751-5.2-2.096
		L185.239,305.483l-47.141,98.879C136.812,407.06,134.125,408.637,131.323,408.637z M298.468,393.635h68.123l-60.559-109H195.178
		l-3.136,6.578L298.468,393.635z"/>
</g>
<g id="Layer_9">
	<path fill="#00B1FF" d="M236.361,405.126c0.934,0.218,1.515,1.152,1.297,2.086s-1.152,1.515-2.086,1.297
		c-0.934-0.218-1.515-1.152-1.297-2.086C234.493,405.488,235.427,404.908,236.361,405.126z M239.129,404.287
		c-0.238,1.021,0.397,2.043,1.418,2.281c1.021,0.238,2.043-0.397,2.281-1.418c0.238-1.021-0.397-2.043-1.418-2.281
		S239.368,403.266,239.129,404.287z M253.369,426.198l11.77,4.5c0.699-2.995,2.95-12.645,4.083-17.502
		c0.072-0.307,0.14-0.611,0.205-0.913C261.838,412.943,255.194,418.376,253.369,426.198z M268.986,401.846
		c-0.706-0.518-1.699-0.366-2.218,0.34c-3.063,4.17-8.182,6.011-13.357,4.804c-2.548-0.594-4.754-1.848-6.447-3.573
		c-0.947,0.56-1.978,1.055-2.959,1.473c2.179,2.532,5.169,4.37,8.684,5.19c6.433,1.501,12.807-0.805,16.636-6.016
		C269.84,403.359,269.692,402.364,268.986,401.846z"/>
</g>
<g id="Layer_10">
	<path fill="#FFFFFF" d="M235.01,399.691c0.096-0.202,0.273-0.364,0.504-0.436c3.235-0.991,5.917,4.484,6.213,5.111
		c0.193,0.412,0.015,0.903-0.395,1.097c-0.412,0.194-0.904,0.017-1.098-0.395c-0.745-1.578-2.759-4.689-4.237-4.236
		c-0.436,0.134-0.897-0.112-1.03-0.547C234.903,400.081,234.924,399.871,235.01,399.691z M229.952,402.385
		c0.134,0.436,0.595,0.681,1.03,0.547c1.477-0.453,3.493,2.659,4.237,4.237c0.194,0.412,0.685,0.588,1.098,0.395
		c0.412-0.194,0.588-0.685,0.395-1.097c-0.296-0.627-2.978-6.102-6.213-5.112c-0.231,0.071-0.408,0.234-0.504,0.436
		C229.911,401.97,229.89,402.18,229.952,402.385z M227.824,424.097c1.003,0.273,2.023,0.515,3.093,0.704
		c1.625-7.04-0.73-14.075-5.571-18.78c-1.13,0.334-2.361,0.658-3.715,0.967C226.713,410.863,229.355,417.481,227.824,424.097z"/>
</g>
<g id="Layer_11">
	<path fill="#E5E5E5" d="M195.359,416.31c0.323-0.936,1.331-1.441,2.271-1.132c0.357,0.117,0.766,0.252,1.223,0.402
		c0.932,0.319,2.034,0.627,3.313,1.023c1.263,0.416,2.747,0.75,4.341,1.166c0.799,0.204,1.631,0.416,2.493,0.635
		c0.875,0.196,1.779,0.399,2.709,0.607c1.861,0.414,3.823,0.85,5.852,1.302l0.764,0.17l0.096,0.021l0.048,0.011l0.024,0.005
		c0.022,0.005-0.107-0.023-0.041-0.009l0.195,0.037l0.39,0.073c0.522,0.098,1.047,0.196,1.575,0.296
		c1.057,0.198,2.127,0.399,3.205,0.601c2.157,0.405,4.348,0.816,6.538,1.227c2.184,0.365,4.342,0.566,6.477,0.855
		c2.099,0.25,4.306,0.572,6.398,0.861c2.094,0.308,4.143,0.539,6.046,0.881c1.894,0.368,3.686,0.715,5.339,1.036
		c4.067,0.79,7.301,1.418,9.19,1.785c1.008,0.196,1.647,1.189,1.413,2.189l-0.602,2.581c-0.228,0.975-1.198,1.583-2.173,1.353
		c-1.838-0.432-5.009-1.177-9.003-2.116c-1.616-0.38-3.366-0.792-5.218-1.227c-1.853-0.408-3.814-0.704-5.841-1.085
		c-2.036-0.362-4.09-0.748-6.336-1.106c-2.201-0.385-4.477-0.697-6.672-1.154c-2.174-0.497-4.347-0.993-6.487-1.482
		c-1.07-0.244-2.131-0.487-3.18-0.727c-0.524-0.12-1.045-0.239-1.563-0.357l-0.837-0.197l-0.765-0.202
		c-2.031-0.536-3.995-1.054-5.857-1.546c-0.931-0.247-1.836-0.488-2.711-0.721c-0.876-0.26-1.722-0.511-2.535-0.752
		c-1.623-0.493-3.118-0.892-4.42-1.376c-1.3-0.458-2.465-0.837-3.366-1.186c-0.458-0.171-0.867-0.323-1.222-0.455
		C195.511,418.253,195.038,417.24,195.359,416.31L195.359,416.31z"/>
</g>
<g id="Layer_12">
	<path fill="#0074A8" d="M270.323,219.273c-2.689-0.101-5.062,1.84-5.41,4.561l-9.277,74.41c-0.368,2.88,1.668,5.514,4.548,5.882
		l39.187,5.014c2.88,0.369,5.514-1.668,5.882-4.548l3.865-31.921L270.323,219.273z"/>
</g>
<g id="Layer_13">
	<path fill="#464A4C" d="M131.328,487.635c-47.696,0-86.5-38.804-86.5-86.5s38.804-86.5,86.5-86.5s86.5,38.804,86.5,86.5
		S179.024,487.635,131.328,487.635z M131.328,335.635c-36.117,0-65.5,29.383-65.5,65.5s29.383,65.5,65.5,65.5s65.5-29.383,65.5-65.5
		S167.445,335.635,131.328,335.635z"/>
</g>
<g id="Layer_14">
	<path fill="#464A4C" d="M379.338,487.635c-47.696,0-86.5-38.804-86.5-86.5s38.804-86.5,86.5-86.5s86.5,38.804,86.5,86.5
		S427.034,487.635,379.338,487.635z M379.338,335.635c-36.117,0-65.5,29.383-65.5,65.5s29.383,65.5,65.5,65.5s65.5-29.383,65.5-65.5
		S415.455,335.635,379.338,335.635z"/>
</g>
<g id="Layer_15">
	<path fill="#FFD3B6" d="M330.849,233.976l-65.833,88.146l0.46-19.152l41.603,61.674c3.332,4.94,2.029,11.646-2.911,14.978
		c-4.479,3.021-10.41,2.232-13.962-1.624l-1.12-1.216l-51.041-55.307c-4.508-4.885-4.749-12.19-0.905-17.328l1.365-1.824
		l65.833-88.146c5.468-7.321,15.835-8.823,23.155-3.355C334.814,216.288,336.316,226.655,330.849,233.976z"/>
</g>
<g id="Layer_16">
	<path fill="#464A4C" d="M347.445,285.606h-64.999c-9.941,0-18-8.059-18-18s8.059-18,18-18h64.999c9.941,0,18,8.059,18,18
		S357.387,285.606,347.445,285.606z M175.598,277.135c0-1.653-0.446-3.203-1.224-4.534h1.318c4.971,0,9-4.029,9-9s-4.029-9-9-9
		h-50.849c-3.327,0-6.383,1.835-7.945,4.772c-1.563,2.938-1.377,6.497,0.481,9.257c1.207,1.791,12.844,17.505,49.218,17.505
		C171.569,286.135,175.598,282.105,175.598,277.135z M131.328,395.963c-2.856,0-5.172,2.315-5.172,5.172s2.315,5.172,5.172,5.172
		c2.856,0,5.172-2.315,5.172-5.172S134.185,395.963,131.328,395.963z M379.338,395.963c-2.856,0-5.172,2.315-5.172,5.172
		s2.315,5.172,5.172,5.172c2.856,0,5.172-2.315,5.172-5.172S382.195,395.963,379.338,395.963z"/>
</g>
<g id="Layer_17">
	<path fill="#00B1FF" d="M276.317,308.289c3.218,2.615,8.366,2.383,12.06-0.543l54.407-43.083
		c11.347-9.115,5.734-33.793-5.984-39.738l-16.458-8.351c-0.27-0.219,4.734,8.62,4.537,8.351l-50.071,26.744
		c-0.236,0.551-0.582,1.089-1.052,1.588l-22.669,22.409c-3.707,3.664-3.801,9.041-0.211,11.958L276.317,308.289z"/>
</g>
<g id="Layer_18">
	<path fill="#DEE254" d="M276.157,424.42c4.249-3.761,5.887-4.771,16.736-16.527c15.692-17.002,9.942-13.703,30.909-36.421"/>
</g>
<g id="Layer_19">
	<path fill="#76DFFF" d="M309.907,358.648c-3.442-3.177-6.734-5.536-9.516-4.731c2.957,5.21,2.43,11.913-1.849,16.551
		c-2.241,2.428-5.133,3.889-8.16,4.369c0.229-3.946-0.423-8.137-4.58-6.772c-13.381,4.395-1.378,6.171-2.702,19.699
		c-0.398,3.111-1.378,7.382-3.461,13.604c-3.525,10.533-10.705,16.829-4.24,21.732c0,0,7.753-7.281,13.763-13.793
		c6.01-6.512,11.046-8.853,15.227-16.498c2.803-5.126,19.413-21.337,19.413-21.337S314.279,362.683,309.907,358.648z"/>
</g>
<g id="Layer_20">
	<path fill="#597B91" d="M335.642,215.3c-0.174-0.248-0.366-0.48-0.575-0.699l-65.677-79.785
		c-8.611-12.306-30.913-11.561-49.813,1.664c-18.9,13.225-18.629,27.896-10.018,40.202l52.065,88.377
		c0.244,0.498,0.526,0.979,0.849,1.44c5.393,7.707,19.46,7.171,42.044-8.631S341.035,223.007,335.642,215.3z"/>
</g>
<g id="Layer_21">
	<path fill="#FFD3B6" d="M249.478,74.522c-4.192-22.966-26.21-38.19-49.185-33.996c-22.966,4.192-37.584,19.096-33.392,42.062
		l1.101,5.419L168,88.004c0.001,0.001,0.002,0.007,0.003,0.008l0.014,0.071c0.077,1.011-1.37,12.296-2.74,17.294
		c-1.541,5.625,1.948,6.167,7.339,5.356l1.783,8.781c0.295,1.615,4.922,0.527,6.345-0.606c1.078-0.849,2.619-0.668,3.455,0.391
		c0.846,1.061,0.673,2.608-0.391,3.455c-1.196,0.954-3.82,1.942-5.637,2.554c-1.022,0.344-1.54,1.546-1.051,2.507
		c5.709,11.22,17.892,12.931,32.572,11.178l2.846,4.068c3.156,4.51,9.37,5.607,13.879,2.452l8.569-5.996
		c4.019-2.812,5.319-8.05,3.323-12.349C255.723,108.758,249.478,74.522,249.478,74.522z"/>
</g>
<g id="Layer_22">
	<path fill="#FFD3B6" d="M265.302,180.523c-5.921,4.143-13.848,5.043-20.814,1.668c-1.374-0.665-2.63-1.472-3.781-2.38
		c-0.137,0.949-0.277,1.899-0.413,2.848l-2.437,17.324l-2.365,17.33v0l-55.094,30.283c-0.977-0.077-1.935,0.048-2.832,0.335
		c-0.826-0.626-1.764-1.131-2.809-1.46l-3.218-1.013c-1.07-0.346-2.153-0.653-3.23-0.976c-1.076-0.326-2.159-0.635-3.244-0.933
		c-1.083-0.307-2.172-0.593-3.266-0.866c-4.188-1.051-8.626,1.095-10.327,5.203c-0.126,0.304-0.23,0.611-0.32,0.92
		c-4.253,1.505-6.685,6.057-5.47,10.474c0.634,2.306,1.249,4.617,1.947,6.908l0.312,1.027c1.268,4.14,5.575,6.601,9.821,5.532
		c3.259-0.821,6.502-1.725,9.724-2.731c0.807-0.243,1.607-0.525,2.411-0.785c0.803-0.263,1.606-0.528,2.403-0.822
		c1.599-0.564,3.191-1.162,4.768-1.84c2.034-0.877,3.531-2.768,3.859-5.042c14.192-3.62,77.966-20.507,77.966-31.686l1.461-9.054
		l0,0l2.547-17.19l2.617-17.175c0.357-2.3,0.718-4.598,1.081-6.895C266.177,179.875,265.748,180.211,265.302,180.523z"/>
</g>
<g id="Layer_23">
	<path fill="#2B3B47" d="M184.063,88.987c-0.476-1.744-2.197-2.87-4.004-2.541c-1.812,0.331-3.024,1.993-2.855,3.793l-0.042,0.008
		l0.888,4.864l0.015-0.003c0.001,0.007,0.002,0.01,0.002,0.01c0.349,1.914,2.182,3.181,4.092,2.832
		c1.91-0.349,3.177-2.181,2.828-4.092c0,0-0.008-0.005-0.01-0.012l0.007-0.001l-0.888-4.864L184.063,88.987z"/>
</g>
<g id="Layer_24">
	<path fill="#FFFFFF" d="M179.921,89.938c-0.116-0.434-0.547-0.715-0.996-0.633c-0.45,0.082-0.752,0.497-0.711,0.944l-0.009,0.002
		l0.221,1.212l0.002,0l0.001,0.003c0.087,0.476,0.543,0.791,1.019,0.704c0.475-0.087,0.791-0.543,0.704-1.019l-0.001-0.003l0,0
		l-0.221-1.212L179.921,89.938z"/>
</g>
<g id="Layer_25">
	<path fill="#68442A" d="M206.254,32.125c-16.859,3.078-39.632,11.197-40.263,11.944c-0.637,0.753,2.554,5.158,1.942,5.999
		c-1.276,1.755-2.506,3.711-3.716,5.901c-1.118,2.023,1.265,2.592,8.581,1.552c1.904-0.271,0.579,4.773,2.777,4.406
		c1.2-0.2,20.965-13.652,27.177,20.377c0.496,2.718,2.199,4.321,4.876,3.833c1.97-0.36,9.725-1.324,11.322,7.425
		c1.82,9.972,29.926,14.394,30.601,13.341c4.545-7.081,7.297-23.742,4.454-39.312C251.164,52.021,235.555,26.776,206.254,32.125z"/>
</g>
<g id="Layer_26">
	<path fill="#E5AB83" d="M172.956,80.074c0,0,0.189-0.057,0.52-0.157c0.325-0.095,0.785-0.219,1.34-0.351
		c0.554-0.134,1.206-0.269,1.911-0.393c0.708-0.114,1.466-0.226,2.244-0.279c0.772-0.067,1.565-0.073,2.32-0.025
		c0.372,0.006,0.751,0.08,1.099,0.121c0.348,0.037,0.694,0.152,1.001,0.219c0.308,0.062,0.6,0.211,0.85,0.299
		c0.253,0.087,0.468,0.209,0.644,0.319c0.348,0.212,0.547,0.333,0.547,0.333c0.577,0.352,0.76,1.105,0.407,1.683
		c-0.327,0.536-1.001,0.732-1.558,0.474l-0.254-0.117c0,0-0.116-0.054-0.319-0.148c-0.096-0.053-0.216-0.113-0.388-0.15
		c-0.17-0.036-0.325-0.122-0.554-0.142c-0.225-0.023-0.442-0.089-0.714-0.092c-0.269-0.005-0.536-0.044-0.842-0.02
		c-0.595,0.013-1.246,0.068-1.903,0.183c-0.655,0.099-1.316,0.254-1.931,0.407c-0.616,0.163-1.188,0.332-1.673,0.493
		c-0.485,0.159-0.886,0.304-1.158,0.409c-0.265,0.105-0.417,0.165-0.417,0.165l-0.041,0.016c-0.884,0.35-1.885-0.083-2.234-0.968
		c-0.35-0.884,0.083-1.885,0.968-2.234C172.864,80.104,172.912,80.087,172.956,80.074z"/>
</g>
<g id="Layer_27">
	<path fill="#EDC0A2" d="M212.575,105.218c-1.061,0.194-2.079-0.51-2.272-1.571s0.509-2.079,1.571-2.272
		c3.478-0.635,5.79-3.982,5.155-7.462c-0.635-3.48-3.981-5.795-7.459-5.16c-1.061,0.194-2.079-0.51-2.272-1.571
		c-0.194-1.061,0.509-2.079,1.571-2.272c5.597-1.022,10.982,2.702,12.004,8.301S218.172,104.196,212.575,105.218z"/>
</g>
<g id="Layer_28">
	<path fill="#00B1FF" d="M286.67,383.246c0.651-0.705,1.749-0.749,2.454-0.098c0.705,0.651,0.749,1.749,0.098,2.454
		s-1.749,0.749-2.454,0.098S286.019,383.951,286.67,383.246z M287.307,380.424c0.771,0.711,1.972,0.663,2.684-0.108
		c0.711-0.771,0.663-1.972-0.108-2.684c-0.771-0.711-1.972-0.663-2.684,0.108C286.488,378.511,286.536,379.713,287.307,380.424z
		 M309.907,358.648c-0.232-0.214-0.463-0.423-0.693-0.629c-3.171,6.927-1.725,15.386,4.177,20.834l9.723-8.016
		C320.874,368.77,313.581,362.04,309.907,358.648z M302.015,354.051c-0.359-0.795-1.297-1.157-2.097-0.799
		c-0.799,0.358-1.157,1.297-0.799,2.097c2.115,4.722,1.19,10.082-2.414,13.987c-1.775,1.923-3.953,3.222-6.289,3.844
		c0.02,1.1-0.058,2.241-0.179,3.3c3.278-0.645,6.351-2.339,8.8-4.992C303.517,366.635,304.658,359.953,302.015,354.051z"/>
</g>
<g id="Layer_29">
	<path fill="#FFFFFF" d="M281.276,381.739c-0.128-0.183-0.182-0.417-0.13-0.653c0.735-3.302,6.82-2.933,7.512-2.881
		c0.454,0.035,0.792,0.432,0.759,0.885c-0.035,0.454-0.431,0.794-0.885,0.76c-1.74-0.131-5.44,0.085-5.775,1.594
		c-0.099,0.445-0.54,0.725-0.985,0.626C281.563,382.024,281.391,381.902,281.276,381.739z M281.123,387.467
		c0.445,0.099,0.886-0.181,0.985-0.626c0.335-1.508,4.036-1.725,5.776-1.594c0.454,0.034,0.85-0.306,0.885-0.76
		c0.035-0.454-0.305-0.849-0.759-0.885c-0.692-0.052-6.777-0.421-7.512,2.881c-0.052,0.236,0.002,0.47,0.13,0.653
		C280.742,387.298,280.914,387.42,281.123,387.467z M298.957,400.033c0.732-0.737,1.446-1.505,2.138-2.343
		c-5.321-4.888-12.602-6.312-19.083-4.424c-0.267,1.147-0.593,2.378-0.992,3.708C286.898,394.468,293.958,395.437,298.957,400.033z"
		/>
</g>
<g id="Layer_30">
	<path fill="#E5E5E5" d="M276.162,424.426c-0.654-0.743-0.596-1.869,0.136-2.534c0.278-0.252,0.597-0.542,0.953-0.865
		c0.738-0.653,1.549-1.46,2.525-2.376c0.985-0.893,2.007-2.019,3.157-3.2c0.571-0.594,1.167-1.214,1.783-1.854
		c0.602-0.664,1.225-1.351,1.865-2.056c1.278-1.414,2.626-2.905,4.02-4.447l0.525-0.581l0.066-0.073l0.033-0.036l0.017-0.018
		c0.015-0.017-0.073,0.081-0.028,0.031l0.128-0.151l0.256-0.303c0.342-0.405,0.687-0.813,1.035-1.224
		c0.694-0.821,1.397-1.653,2.105-2.491c1.416-1.676,2.855-3.379,4.294-5.081c1.395-1.72,2.636-3.497,3.94-5.211
		c1.254-1.702,2.623-3.462,3.906-5.14c1.302-1.669,2.514-3.337,3.75-4.823c1.255-1.466,2.441-2.853,3.536-4.132
		c2.694-3.148,4.837-5.65,6.088-7.112c0.668-0.78,1.846-0.846,2.601-0.149l1.948,1.798c0.736,0.679,0.785,1.823,0.105,2.557
		c-1.283,1.385-3.496,3.775-6.284,6.785c-1.128,1.218-2.35,2.537-3.643,3.932c-1.27,1.41-2.495,2.97-3.826,4.545
		c-1.319,1.592-2.669,3.188-4.089,4.965c-1.421,1.724-2.816,3.549-4.296,5.234c-1.505,1.645-3.009,3.291-4.491,4.91
		c-0.741,0.81-1.475,1.613-2.201,2.407c-0.363,0.397-0.724,0.791-1.082,1.183l-0.585,0.631l-0.553,0.566
		c-1.469,1.502-2.888,2.954-4.235,4.331c-0.674,0.687-1.331,1.356-1.965,2.003c-0.658,0.634-1.294,1.246-1.905,1.833
		c-1.229,1.168-2.314,2.271-3.378,3.165c-1.04,0.904-1.944,1.731-2.692,2.342c-0.374,0.314-0.708,0.594-0.999,0.838
		C277.927,425.253,276.812,425.164,276.162,424.426L276.162,424.426z"/>
</g>
</svg>
