<?xml version="1.0" encoding="iso-8859-1"?>
<!-- Generator: Adobe Illustrator 18.1.1, SVG Export Plug-In . SVG Version: 6.00 Build 0)  -->
<!DOCTYPE svg PUBLIC "-//W3C//DTD SVG 1.1//EN" "http://www.w3.org/Graphics/SVG/1.1/DTD/svg11.dtd">
<svg version="1.1" xmlns="http://www.w3.org/2000/svg" xmlns:xlink="http://www.w3.org/1999/xlink" x="0px" y="0px"
	 viewBox="0 0 512 512" enable-background="new 0 0 512 512" xml:space="preserve">
<g id="Layer_2">
	<path fill="#C3CCD1" d="M504.79,171.574c-0.136-2.87-0.248-5.863-0.364-8.948c-1.148-30.431-2.721-72.107-29.12-98.508
		c-27.57-27.57-60.066-39.92-93.985-35.719c-29.462,3.651-58.425,19.247-86.119,46.355C239.99,31.689,166.996,22.42,104.107,46.917
		c-9.664,3.764-15.216,11.011-16.988,19.364c16.28-6.094,79.699,39.713,146.323,106.337
		c63.805,63.805,108.51,124.665,106.827,144.001c7.36-2.384,13.624-7.829,17.012-16.526
		c24.493-62.874,15.238-135.847-27.802-191.053c19.557-19.022,39.499-30.275,57.802-32.543c19.079-2.363,36.66,4.798,53.756,21.892
		c12.956,12.956,14.114,43.652,14.959,66.065c0.115,3.038,0.227,5.99,0.357,8.831v145.977c0,13.383,10.85,24.232,24.232,24.232
		s24.232-10.85,24.232-24.232V172.719L504.79,171.574z"/>
</g>
<g id="Layer_3">
	<path fill="#8299A3" d="M233.441,172.617c69.986,69.986,117.003,136.438,105.017,148.424
		c-11.987,11.987-78.439-35.031-148.424-105.017S73.03,79.587,85.017,67.6S163.455,102.631,233.441,172.617z M382.4,155.819
		c-1.94-34.966-16.645-67.858-41.404-92.618c-24.761-24.76-57.653-39.465-92.619-41.405c-12.484-0.692-24.16,5.81-30.223,16.549
		c34.897,7.826,68.064,25.312,95.229,52.477c27.163,27.163,44.647,60.326,52.472,95.219
		C376.592,179.978,383.093,168.306,382.4,155.819z"/>
</g>
<g id="Layer_4">
	<path fill="#31CAFF" d="M145.174,392.59l52.678-52.679c5.001-5.001,5.001-13.11,0-18.111c-5.001-5.002-13.11-5.002-18.111,0
		l-52.678,52.679c-5.001,5.001-5.001,13.11,0,18.111c2.5,2.501,5.778,3.751,9.056,3.751S142.674,395.091,145.174,392.59z
		 M118.835,249.073l36.148-36.148c5.001-5.001,5.001-13.11,0-18.111c-5.001-5.002-13.11-5.002-18.111,0l-36.148,36.148
		c-5.001,5.001-5.001,13.11,0,18.111c2.5,2.501,5.778,3.751,9.056,3.751S116.335,251.574,118.835,249.073z M48.325,237.194
		l96.849-96.849c5.001-5.001,5.001-13.11,0-18.111c-5.001-5.002-13.11-5.002-18.111,0l-96.849,96.849
		c-5.001,5.001-5.001,13.11,0,18.111c2.5,2.501,5.778,3.751,9.056,3.751S45.825,239.695,48.325,237.194z M178.997,265.603
		l52.678-52.678c5.001-5.001,5.001-13.11,0-18.111c-5.001-5.002-13.11-5.002-18.111,0l-52.678,52.678
		c-5.001,5.001-5.001,13.11,0,18.111c2.5,2.501,5.778,3.751,9.056,3.751S176.497,268.104,178.997,265.603z M24.056,344.619
		l52.678-52.678c5.001-5.001,5.001-13.11,0-18.111c-5.001-5.002-13.11-5.002-18.111,0L5.944,326.508
		c-5.001,5.001-5.001,13.11,0,18.111c2.5,2.501,5.778,3.751,9.056,3.751S21.555,347.12,24.056,344.619z M61.013,387.925
		l84.161-84.162c5.001-5.001,5.001-13.11,0-18.111c-5.001-5.002-13.11-5.002-18.111,0l-84.161,84.162
		c-5.001,5.001-5.001,13.11,0,18.111c2.5,2.501,5.778,3.751,9.056,3.751S58.513,390.426,61.013,387.925z M212.81,305.502
		c-3.277,0-6.555-1.25-9.056-3.751c-5.001-5.001-5.001-13.11,0-18.111l36.148-36.148c5.001-5.002,13.11-5.002,18.111,0
		c5.002,5.001,5.002,13.11,0,18.111l-36.148,36.148C219.365,304.252,216.087,305.502,212.81,305.502z"/>
</g>
</svg>
