<?xml version="1.0" encoding="iso-8859-1"?>
<!-- Generator: Adobe Illustrator 18.1.1, SVG Export Plug-In . SVG Version: 6.00 Build 0)  -->
<!DOCTYPE svg PUBLIC "-//W3C//DTD SVG 1.1//EN" "http://www.w3.org/Graphics/SVG/1.1/DTD/svg11.dtd">
<svg version="1.1" xmlns="http://www.w3.org/2000/svg" xmlns:xlink="http://www.w3.org/1999/xlink" x="0px" y="0px"
	 viewBox="0 0 512 512" enable-background="new 0 0 512 512" xml:space="preserve">
<g id="Layer_2">
	<path fill="#8299A3" d="M166.794,505.096c-11.369,0-20.585-9.216-20.585-20.585v-37.876c0-11.369,9.216-20.585,20.585-20.585
		s20.585,9.216,20.585,20.585v37.876C187.379,495.88,178.163,505.096,166.794,505.096z M427.813,484.511v-37.876
		c0-11.369-9.216-20.585-20.585-20.585s-20.585,9.216-20.585,20.585v37.876c0,11.369,9.216,20.585,20.585,20.585
		S427.813,495.88,427.813,484.511z M455.572,253.958c0-6.943-5.629-12.572-12.572-12.572h-23.863
		c-6.943,0-12.572,5.629-12.572,12.572s5.629,12.572,12.572,12.572H443C449.943,266.53,455.572,260.901,455.572,253.958z"/>
</g>
<g id="Layer_1">
</g>
</svg>
