<?xml version="1.0" encoding="iso-8859-1"?>
<!-- Generator: Adobe Illustrator 18.1.1, SVG Export Plug-In . SVG Version: 6.00 Build 0)  -->
<!DOCTYPE svg PUBLIC "-//W3C//DTD SVG 1.1//EN" "http://www.w3.org/Graphics/SVG/1.1/DTD/svg11.dtd">
<svg version="1.1" xmlns="http://www.w3.org/2000/svg" xmlns:xlink="http://www.w3.org/1999/xlink" x="0px" y="0px"
	 viewBox="0 0 512 512" enable-background="new 0 0 512 512" xml:space="preserve">
<g id="Layer_2">
	<path fill="#E5E4DF" d="M256,512C115.506,512,1.206,397.7,1.206,257.206C1.206,116.711,115.506,2.411,256,2.411
		s254.794,114.3,254.794,254.795C510.794,397.7,396.494,512,256,512z"/>
</g>
<g id="Layer_3">
	<path fill="#BFBCAF" d="M450.86,421.17c-7.246,8.598-15.04,16.72-23.345,24.293c-38.51-54.771-59.258-119.919-59.258-188.258
		c0-68.339,20.748-133.486,59.258-188.257c8.305,7.573,16.098,15.695,23.344,24.293c-32.273,48.129-49.612,104.713-49.612,163.964
		C401.247,316.456,418.586,373.041,450.86,421.17z M61.141,93.241c32.273,48.129,49.613,104.713,49.613,163.964
		c0,59.251-17.34,115.836-49.613,163.965c7.246,8.598,15.04,16.72,23.344,24.293c38.51-54.771,59.259-119.919,59.259-188.258
		c0-68.339-20.749-133.486-59.259-188.257C76.18,76.521,68.387,84.643,61.141,93.241z"/>
</g>
<g id="Layer_4">
	<path fill="#FF473E" d="M82.685,144.808c-8.167,0-16.314-2.194-23.677-6.613c-5.849-3.51-7.745-11.097-4.234-16.946
		c3.51-5.85,11.097-7.745,16.946-4.234c7.474,4.487,16.401,4.074,23.879-1.103c7.479-5.176,11.008-13.386,9.442-21.96
		c-1.226-6.71,3.221-13.144,9.932-14.369c6.706-1.225,13.143,3.221,14.369,9.932c3.309,18.118-4.234,36.016-19.684,46.709
		C101.411,141.931,92.035,144.808,82.685,144.808z M125.087,203.505c17.826-5.944,30.075-21.017,31.967-39.337
		c0.701-6.785-4.231-12.854-11.017-13.555c-6.779-0.705-12.854,4.231-13.555,11.017c-0.896,8.67-6.582,15.564-15.209,18.442
		c-8.627,2.875-17.313,0.776-23.233-5.622c-4.634-5.007-12.448-5.308-17.455-0.676c-5.006,4.633-5.309,12.448-0.676,17.455
		c8.93,9.649,21.087,14.808,33.798,14.808C114.801,206.035,119.986,205.206,125.087,203.505z M163.04,324.426
		c3.794-5.669,2.275-13.34-3.394-17.134c-5.668-3.796-13.34-2.275-17.134,3.394c-4.848,7.244-13.095,10.679-22.071,9.182
		c-8.971-1.494-15.664-7.416-17.903-15.84c-1.752-6.592-8.518-10.52-15.109-8.764c-6.593,1.752-10.517,8.517-8.765,15.109
		c4.731,17.799,19.184,30.773,37.718,33.86c2.737,0.456,5.456,0.679,8.142,0.679C140.027,344.912,154.308,337.472,163.04,324.426z
		 M139.895,405.613c5.229-4.381,5.917-12.171,1.536-17.399c-4.382-5.229-12.172-5.916-17.4-1.536
		c-6.681,5.599-15.563,6.586-23.758,2.641c-8.195-3.944-12.964-11.502-12.757-20.216c0.162-6.819-5.234-12.479-12.054-12.642
		c-0.1-0.003-0.199-0.004-0.299-0.004c-6.685,0-12.182,5.339-12.342,12.058c-0.438,18.412,9.808,34.912,26.739,43.062
		c6.726,3.238,13.823,4.828,20.821,4.828C120.997,416.404,131.386,412.742,139.895,405.613z M128.902,272.014
		c18.651-2.281,33.652-14.618,39.15-32.195c2.036-6.511-1.591-13.439-8.101-15.475c-6.513-2.038-13.439,1.591-15.475,8.101
		c-2.602,8.319-9.545,13.945-18.573,15.049c-9.03,1.104-17.123-2.684-21.652-10.13c-3.545-5.827-11.143-7.678-16.972-4.133
		c-5.828,3.545-7.678,11.144-4.133,16.971c8.528,14.02,23.375,22.182,39.704,22.182
		C124.848,272.384,126.869,272.262,128.902,272.014z M452.573,138.195c5.85-3.51,7.745-11.097,4.235-16.946
		c-3.511-5.849-11.099-7.745-16.946-4.234c-7.474,4.486-16.401,4.074-23.88-1.103c-7.479-5.176-11.009-13.386-9.442-21.96
		c1.226-6.71-3.221-13.144-9.932-14.369c-6.699-1.221-13.143,3.22-14.369,9.932c-3.309,18.117,4.233,36.016,19.684,46.709
		c8.248,5.708,17.622,8.585,26.974,8.585C437.062,144.808,445.212,142.614,452.573,138.195z M435.673,191.228
		c4.633-5.007,4.33-12.821-0.677-17.455c-5.005-4.632-12.819-4.329-17.454,0.676c-5.919,6.397-14.604,8.5-23.233,5.622
		c-8.628-2.877-14.313-9.771-15.209-18.442c-0.701-6.786-6.759-11.728-13.556-11.017c-6.785,0.701-11.718,6.77-11.017,13.555
		c1.893,18.32,14.142,33.394,31.967,39.337c5.102,1.701,10.285,2.53,15.381,2.53C414.585,206.035,426.743,200.876,435.673,191.228z
		 M395.198,344.234c18.535-3.088,32.988-16.062,37.719-33.861c1.753-6.593-2.171-13.357-8.764-15.109
		c-6.6-1.757-13.357,2.172-15.109,8.764c-2.239,8.424-8.933,14.346-17.904,15.84c-8.977,1.494-17.222-1.939-22.07-9.182
		c-3.794-5.669-11.466-7.191-17.134-3.394c-5.669,3.794-7.188,11.465-3.395,17.134c8.733,13.047,23.011,20.486,38.517,20.486
		C389.741,344.912,392.464,344.689,395.198,344.234z M422.022,411.576c16.931-8.148,27.177-24.649,26.739-43.061
		c-0.162-6.819-5.832-12.25-12.641-12.055c-6.82,0.162-12.217,5.821-12.055,12.641c0.207,8.715-4.562,16.271-12.757,20.217
		c-8.198,3.944-17.076,2.957-23.76-2.641c-5.228-4.379-13.02-3.692-17.399,1.536c-4.381,5.229-3.693,13.019,1.536,17.399
		c8.51,7.13,18.896,10.792,29.515,10.791C408.198,416.404,415.297,414.813,422.022,411.576z M428.434,250.202
		c3.546-5.828,1.695-13.426-4.133-16.971c-5.825-3.543-13.425-1.695-16.971,4.133c-4.53,7.446-12.625,11.237-21.652,10.129
		c-9.028-1.104-15.972-6.73-18.573-15.049c-2.036-6.511-8.968-10.136-15.475-8.101c-6.511,2.036-10.138,8.964-8.102,15.475
		c5.497,17.577,20.499,29.914,39.15,32.195c2.034,0.248,4.053,0.37,6.052,0.37C405.058,272.384,419.906,264.221,428.434,250.202z"/>
</g>
</svg>
