<?xml version="1.0" encoding="iso-8859-1"?>
<!-- Generator: Adobe Illustrator 19.1.0, SVG Export Plug-In . SVG Version: 6.00 Build 0)  -->
<!DOCTYPE svg PUBLIC "-//W3C//DTD SVG 1.1//EN" "http://www.w3.org/Graphics/SVG/1.1/DTD/svg11.dtd">
<svg version="1.1" xmlns="http://www.w3.org/2000/svg" xmlns:xlink="http://www.w3.org/1999/xlink" x="0px" y="0px"
	 viewBox="0 0 512 512" enable-background="new 0 0 512 512" xml:space="preserve">
<g id="Layer_2">
	<path fill="#FF6E83" d="M462.555,51.464c-27.492-27.492-58.857-40.701-70.055-29.503l-75.72,75.72l99.558,99.558l75.72-75.72
		C503.256,110.321,490.047,78.957,462.555,51.464z"/>
</g>
<g id="Layer_3">
	<path fill="#BFBCAF" d="M414.557,99.462c-31.367-31.367-67.151-46.437-79.927-33.661l-77.54,77.54L370.678,256.93l77.54-77.54
		C460.994,166.614,445.924,130.829,414.557,99.462z"/>
</g>
<g id="Layer_4">
	<path fill="#2B2622" d="M115.545,449.979L47.25,479.683c-4.97,2.162-10.752-0.115-12.913-5.085c-1.125-2.587-1.034-5.426,0-7.828
		l29.705-68.295c8.622-19.823,31.681-28.903,51.504-20.281c19.823,8.622,28.903,31.681,20.281,51.504
		C131.725,439.127,124.277,446.16,115.545,449.979z"/>
</g>
<g id="Layer_5">
	<path fill="#FFD469" d="M403.416,223.955c0.073-0.104,0.147-0.208,0.216-0.315c9.851-14.117-5.223-48.099-35.188-78.064
		c-29.966-29.966-63.949-45.039-78.065-35.187c-0.105,0.068-0.208,0.141-0.311,0.213c-0.127,0.094-0.259,0.183-0.383,0.281
		c-0.348,0.268-0.688,0.551-1.007,0.87l-0.161,0.161c0,0,0,0-0.001,0s0,0,0,0.001L108.477,291.954c0,0-50.978,126.152-31.77,145.359
		s145.359-31.77,145.359-31.77l180.2-180.2c0.319-0.319,0.603-0.659,0.871-1.008C403.234,224.212,403.322,224.081,403.416,223.955z"
		/>
</g>
<g id="Layer_6">
	<path fill="#E5AA6E" d="M108.477,291.954l-4.002,24.94c-0.589,3.668,2.588,6.835,6.254,6.237l17.873-2.919
		c3.53-0.576,6.647,2.349,6.296,5.908l-1.99,20.174c-0.349,3.542,2.737,6.461,6.253,5.915l18.063-2.802
		c3.693-0.573,6.853,2.66,6.195,6.339l-3.09,17.282c-0.636,3.559,2.309,6.739,5.906,6.376l20.33-2.05
		c3.43-0.346,6.314,2.542,5.963,5.971l-2.096,20.51c-0.361,3.529,2.696,6.455,6.206,5.941l25.871-3.79L76.709,466.995
		c11.631-11.631-18.485-41.748-30.117-30.117L108.477,291.954z"/>
</g>
<g id="Layer_7">
	<path fill="#FFB636" d="M145.892,298.543c-1.738,0-3.476-0.663-4.801-1.989c-2.651-2.651-2.651-6.95,0-9.602l150.356-150.356
		c2.65-2.651,6.951-2.651,9.602,0c2.652,2.652,2.652,6.951,0,9.603L150.693,296.554C149.368,297.88,147.63,298.543,145.892,298.543z
		 M189.103,334.964l150.355-150.356c2.652-2.652,2.652-6.951,0-9.603c-2.65-2.651-6.951-2.651-9.602,0L179.5,325.362
		c-2.651,2.651-2.651,6.95,0,9.602c1.326,1.326,3.063,1.989,4.801,1.989S187.777,336.29,189.103,334.964z M227.513,373.373
		l150.355-150.355c2.652-2.652,2.652-6.951,0-9.603c-2.65-2.651-6.951-2.651-9.602,0L217.91,363.771
		c-2.651,2.651-2.651,6.95,0,9.602c1.326,1.326,3.063,1.989,4.801,1.989S226.187,374.699,227.513,373.373z"/>
</g>
</svg>
