<?xml version="1.0" encoding="iso-8859-1"?>
<!-- Generator: Adobe Illustrator 19.1.0, SVG Export Plug-In . SVG Version: 6.00 Build 0)  -->
<!DOCTYPE svg PUBLIC "-//W3C//DTD SVG 1.1//EN" "http://www.w3.org/Graphics/SVG/1.1/DTD/svg11.dtd">
<svg version="1.1" xmlns="http://www.w3.org/2000/svg" xmlns:xlink="http://www.w3.org/1999/xlink" x="0px" y="0px"
	 viewBox="0 0 512 512" enable-background="new 0 0 512 512" xml:space="preserve">
<g id="Layer_7">
	<path fill="#FFB636" d="M145.892,298.543c-1.738,0-3.476-0.663-4.801-1.989c-2.651-2.651-2.651-6.95,0-9.602l150.356-150.356
		c2.65-2.651,6.951-2.651,9.602,0c2.652,2.652,2.652,6.951,0,9.603L150.693,296.554C149.368,297.88,147.63,298.543,145.892,298.543z
		 M189.103,334.964l150.355-150.356c2.652-2.652,2.652-6.951,0-9.603c-2.65-2.651-6.951-2.651-9.602,0L179.5,325.362
		c-2.651,2.651-2.651,6.95,0,9.602c1.326,1.326,3.063,1.989,4.801,1.989S187.777,336.29,189.103,334.964z M227.513,373.373
		l150.355-150.355c2.652-2.652,2.652-6.951,0-9.603c-2.65-2.651-6.951-2.651-9.602,0L217.91,363.771
		c-2.651,2.651-2.651,6.95,0,9.602c1.326,1.326,3.063,1.989,4.801,1.989S226.187,374.699,227.513,373.373z"/>
</g>
<g id="Layer_1">
</g>
</svg>
