<?xml version="1.0" encoding="utf-8"?>
<!-- Generator: Adobe Illustrator 18.0.0, SVG Export Plug-In . SVG Version: 6.00 Build 0)  -->
<!DOCTYPE svg PUBLIC "-//W3C//DTD SVG 1.1 Tiny//EN" "http://www.w3.org/Graphics/SVG/1.1/DTD/svg11-tiny.dtd">
<svg version="1.1" baseProfile="tiny" id="Layer_1" xmlns="http://www.w3.org/2000/svg" xmlns:xlink="http://www.w3.org/1999/xlink"
	 x="0px" y="0px" width="511.9px" height="511.9px" viewBox="0 0 511.9 511.9" xml:space="preserve">
<path fill="#00BEEA" d="M273.2,44.5c-0.5-0.7-1.4-1.1-2.2-1.1h-30.9c-0.9,0-1.7,0.4-2.2,1.1c-0.5,0.7-0.7,1.6-0.5,2.5l15.4,55.5
	c0.3,1.2,1.4,2.1,2.7,2.1c1.3,0,2.4-0.8,2.7-2.1L273.6,47C273.9,46.1,273.7,45.2,273.2,44.5z"/>
<path fill="#00BEEA" d="M354.5,82.7l-21.8-21.8c-0.6-0.6-1.5-0.9-2.4-0.8c-0.9,0.1-1.6,0.6-2.1,1.4l-28.3,50.2
	c-0.6,1.1-0.4,2.5,0.5,3.4c0.5,0.5,1.3,0.8,2,0.8c0.5,0,0.9-0.1,1.4-0.4l50.2-28.3c0.8-0.4,1.3-1.2,1.4-2.1
	C355.4,84.2,355.1,83.4,354.5,82.7z"/>
<path fill="#00BEEA" d="M212,111.7l-28.3-50.2c-0.4-0.8-1.2-1.3-2.1-1.4c-0.9-0.1-1.7,0.2-2.4,0.8l-21.8,21.8
	c-0.6,0.6-0.9,1.5-0.8,2.4s0.6,1.6,1.4,2.1l50.2,28.3c0.4,0.2,0.9,0.4,1.4,0.4c0.7,0,1.4-0.3,2-0.8
	C212.4,114.2,212.6,112.8,212,111.7z"/>
</svg>
