<?xml version="1.0" encoding="utf-8"?>
<!-- Generator: Adobe Illustrator 18.0.0, SVG Export Plug-In . SVG Version: 6.00 Build 0)  -->
<!DOCTYPE svg PUBLIC "-//W3C//DTD SVG 1.1 Tiny//EN" "http://www.w3.org/Graphics/SVG/1.1/DTD/svg11-tiny.dtd">
<svg version="1.1" baseProfile="tiny" id="Layer_1" xmlns="http://www.w3.org/2000/svg" xmlns:xlink="http://www.w3.org/1999/xlink"
	 x="0px" y="0px" width="511.9px" height="511.9px" viewBox="0 0 511.9 511.9" xml:space="preserve">
<path fill="#597B91" d="M321.6,298.6l-10.1-129c0-14.5-13.9-26.8-33.4-31.7v7.8c0.2,0.6,0.3,1.1,0.3,1.7c0,5.3-8.6,9.6-19.2,9.6
	c-10.6,0-19.2-4.3-19.2-9.6v-8.8c-14.4,5.3-19.9,17.2-19.9,31l-3.9,49.4l7.9,6.5l4.9-5.3l14.9-16c2.1-2.2,4.2-4.5,6.3-6.7
	c0.5,2.5,1.4,4.9,2.7,7.3c4.6,8.3,13.1,13,22,13.2c-2.6,2.7-5.2,5.4-7.8,8.1l-15,15.7l-14.9,15.8l0,0l-1.7,1.6
	c-5.9,5.4-15.1,5.1-20.5-0.8c0,0-0.1-0.1-0.1-0.1l-1.5-1.7l-3.2,40.9c-0.1,0.7-0.2,1.4-0.2,2.1c0,11.8,14.8,21.3,49.3,21.3
	c34.5,0,62.5-9.5,62.5-21.3C321.7,299.3,321.7,299,321.6,298.6z"/>
</svg>
