<?xml version="1.0" encoding="utf-8"?>
<!-- Generator: Adobe Illustrator 18.0.0, SVG Export Plug-In . SVG Version: 6.00 Build 0)  -->
<!DOCTYPE svg PUBLIC "-//W3C//DTD SVG 1.1 Tiny//EN" "http://www.w3.org/Graphics/SVG/1.1/DTD/svg11-tiny.dtd">
<svg version="1.1" baseProfile="tiny" id="Layer_1" xmlns="http://www.w3.org/2000/svg" xmlns:xlink="http://www.w3.org/1999/xlink"
	 x="0px" y="0px" width="511.9px" height="511.9px" viewBox="0 0 511.9 511.9" xml:space="preserve">
<path fill="#00B1FF" d="M435.1,447c-11.7-36.1-40.7-130.7-40.7-178.3c0-31.6,2.4-49.1,4.7-77.4c0.2-2.1-0.5-4.1-1.9-5.7
	c-18-21-29-48.2-29-78c0-23.2,6.6-44.9,18.1-63.3c1.9-3.1,1.6-7.1-1-9.7c-11.3-11.5-29.5-22.6-58.8-29.4c-4.6-1.1-9,2-9.6,6.7
	c-4,31.9-29.7,56.5-60.9,56.5c-31.2,0-56.9-24.6-60.9-56.5c-0.6-4.7-5-7.7-9.6-6.7c-29.7,7-48,18.2-59.3,29.9
	c-2.5,2.6-2.7,6.5-0.9,9.6c11.3,18.3,17.8,39.8,17.8,62.9c0,29.5-10.7,56.4-28.4,77.3c-1.3,1.6-2,3.6-1.8,5.6
	c2.3,28.7,4.8,46.2,4.8,78.1c0,47.5-29,142.2-40.7,178.3c-3.8,11.7,0.4,24.6,10.6,31.4c22.8,15.1,73.3,33.5,165.8,33.5
	c0.9,0,1.7,0,2.6,0c0.9,0,1.7,0,2.6,0c92.5,0,142.9-18.4,165.8-33.5C434.7,471.6,438.8,458.7,435.1,447z"/>
<path fill="#0396D0" d="M332.5,6.8c-1.9-0.5-3.8-1.1-5.9-1.5c-0.5-0.1-0.9,0-1.4,0c0,0,0-0.1,0-0.1c0,0-2.5-0.5-7.3-1.2v1.2
	c0,36.3-27.7,65.9-61.8,65.9s-61.8-29.6-61.8-65.9V3.9c-4.8,0.7-7.3,1.2-7.3,1.2c0,0,0,0.1,0,0.1c-0.5,0-0.9-0.1-1.4,0
	c-2,0.5-3.9,1-5.9,1.5c0.9,43.6,34.7,78.8,76.3,78.8C297.7,85.6,331.6,50.4,332.5,6.8z"/>
<path fill="#15E5C2" d="M105,349.9c-7.2,29.9-16.1,60-22.8,81.3c98.5-68,216.8-156.8,312.9-248.2c-11.8-14.5-20.3-31.8-24.3-50.7
	C291.8,210.1,193.5,286.8,105,349.9z"/>
<path fill="#0074A8" d="M194.4,3.9v1.2c0,36.3,27.7,65.9,61.8,65.9c34.1,0,61.8-29.6,61.8-65.9V3.9c-10.6-1.5-32.2-3.9-62-3.9
	c-29.9,0-51.4,2.4-61.8,3.9C194.2,3.9,194.3,3.9,194.4,3.9z"/>
</svg>
