<?xml version="1.0" encoding="utf-8"?>
<!-- Generator: Adobe Illustrator 18.0.0, SVG Export Plug-In . SVG Version: 6.00 Build 0)  -->
<!DOCTYPE svg PUBLIC "-//W3C//DTD SVG 1.1 Tiny//EN" "http://www.w3.org/Graphics/SVG/1.1/DTD/svg11-tiny.dtd">
<svg version="1.1" baseProfile="tiny" id="Layer_1" xmlns="http://www.w3.org/2000/svg" xmlns:xlink="http://www.w3.org/1999/xlink"
	 x="0px" y="0px" width="511.9px" height="511.9px" viewBox="0 0 511.9 511.9" xml:space="preserve">
<path fill="#2B3B47" d="M226.9,65c-0.2-2.3-2.1-4-4.4-4c-2.3,0-4.2,1.8-4.4,4h-0.1v6.2h0c0,0,0,0,0,0c0,2.4,2,4.4,4.4,4.4
	c2.4,0,4.4-2,4.4-4.4c0,0,0,0,0,0h0L226.9,65L226.9,65z"/>
<path fill="#2B3B47" d="M129.6,476.7c-4.1,0-8.3-1.3-11.9-4c-6.7-4.8-9.8-12.8-8-20.7c0.2-1.1,1.3-1.7,2.4-1.5
	c1.1,0.2,1.7,1.3,1.5,2.4c-1.4,6.3,1,12.7,6.4,16.6c5.4,3.9,12.2,4.2,17.7,0.9c0.9-0.6,2.2-0.3,2.7,0.7c0.6,0.9,0.3,2.2-0.7,2.7
	C136.6,475.7,133.1,476.7,129.6,476.7z"/>
<path fill="#2B3B47" d="M106.7,461.9c-0.5,0-1-0.4-1-1c-0.1-2.2-0.9-6.7-2.8-6.9c-0.6-0.1-1-0.6-0.9-1.1c0.1-0.6,0.6-1,1.1-0.9
	c4.2,0.4,4.7,8,4.7,8.9C107.8,461.4,107.3,461.9,106.7,461.9C106.7,461.9,106.7,461.9,106.7,461.9z"/>
<path fill="#2B3B47" d="M99.9,461.9c-0.5,0-1-0.4-1-1c-0.1-2.2-0.9-6.7-2.8-6.9c-0.6-0.1-1-0.6-0.9-1.1c0.1-0.6,0.6-1,1.1-0.9
	c4.2,0.4,4.7,8,4.7,8.9C101,461.4,100.5,461.8,99.9,461.9C99.9,461.9,99.9,461.9,99.9,461.9z"/>
<path fill="#2B3B47" d="M436.1,423.1c-0.3,0-0.6-0.1-0.8-0.3c-2.9-3.1,1.9-9.1,2.4-9.8c0.4-0.4,1-0.5,1.5-0.1c0.4,0.4,0.5,1,0.1,1.5
	c-1.4,1.7-3.8,5.6-2.5,7.1c0.4,0.4,0.4,1.1-0.1,1.5C436.6,423,436.4,423.1,436.1,423.1z"/>
<path fill="#2B3B47" d="M441.2,427.6c-0.3,0-0.6-0.1-0.8-0.3c-2.9-3.1,1.9-9.1,2.4-9.8c0.4-0.4,1-0.5,1.5-0.1s0.5,1,0.1,1.5
	c-1.4,1.7-3.8,5.6-2.5,7.1c0.4,0.4,0.4,1.1-0.1,1.5C441.7,427.5,441.4,427.6,441.2,427.6z"/>
<path fill="#2B3B47" d="M429.4,418.6c-0.6,0-1.2-0.3-1.6-0.8c-0.6-0.9-0.4-2.1,0.5-2.8c5.3-3.8,7.7-10.1,6.3-16.6
	s-6.2-11.3-12.6-12.5c-1.1-0.2-1.8-1.2-1.6-2.3c0.2-1.1,1.3-1.8,2.3-1.6c7.9,1.5,14,7.5,15.7,15.6c1.8,8.1-1.3,16-7.9,20.7
	C430.2,418.4,429.8,418.6,429.4,418.6z"/>
</svg>
