<?xml version="1.0" encoding="utf-8"?>
<!-- Generator: Adobe Illustrator 18.0.0, SVG Export Plug-In . SVG Version: 6.00 Build 0)  -->
<!DOCTYPE svg PUBLIC "-//W3C//DTD SVG 1.1 Tiny//EN" "http://www.w3.org/Graphics/SVG/1.1/DTD/svg11-tiny.dtd">
<svg version="1.1" baseProfile="tiny" id="Layer_1" xmlns="http://www.w3.org/2000/svg" xmlns:xlink="http://www.w3.org/1999/xlink"
	 x="0px" y="0px" width="511.9px" height="511.9px" viewBox="0 0 511.9 511.9" xml:space="preserve">
<path fill="#FFD3B6" d="M302.3,101.7c-6.3-1.2-33.4-11.9-33.4-23.3c0-11.1-9.8-11.7-12.3-11.7c-3.4,0-5.1-2.4-5.1-5.8
	c0-43.3-27.4-31.2-28.9-31.2c-2.8,0,0-6-2.4-6c-0.8,0-1.5-0.1-2.2-0.1c-6.8,7.2-10.7,17.2-10.7,29.7l0.1,6.9l0,0c0,0,0,0,0,0l0,0.1
	c-0.1,1.3-4.5,14.8-7.3,20.7c-3.2,6.6,1,8,7.8,8.2l0.2,11.2c0,2.1,5.9,1.8,7.9,0.7c1.5-0.8,3.4-0.2,4.2,1.3c0.8,1.5,0.2,3.4-1.3,4.2
	c-1.7,0.9-5.1,1.5-7.5,1.9c-1.3,0.2-2.2,1.6-1.9,2.9c3.9,13.1,15.4,18.5,30.4,20.4v15.8c0,5.3,8.6,9.6,19.2,9.6
	c10.6,0,19.2-4.3,19.2-9.6c0-0.6-0.1-1.2-0.3-1.7v-17.4C289.9,122.8,297.5,112.6,302.3,101.7z"/>
<path fill="#FFD3B6" d="M253,204.9c-1.3-2.3-2.2-4.8-2.7-7.3c-2.1,2.2-4.2,4.5-6.3,6.7l-14.9,16l-4.9,5.3l-47.1-38.7
	c0.7-1.8,1-3.8,0.7-5.9l-0.6-4.2c-0.2-1.4-0.4-2.8-0.7-4.2c-0.2-1.4-0.5-2.8-0.7-4.2c-0.2-1.4-0.5-2.8-0.8-4.2
	c-1.1-5.3-6-9.1-11.5-8.8c-0.4,0-0.8,0.1-1.2,0.1c-4-4-10.5-4.2-14.8-0.4c-2.2,2-4.5,3.9-6.7,6l-1,0.9c-4,3.7-4.4,9.9-0.8,14.1
	c2.7,3.2,5.5,6.4,8.4,9.4c0.7,0.8,1.5,1.5,2.2,2.3c0.7,0.8,1.5,1.5,2.2,2.3c1.5,1.5,3.1,3,4.7,4.4c0.6,0.5,1.3,0.9,2,1.2l56.4,62.7
	c0,0,0.1,0.1,0.1,0.1c5.4,5.9,14.6,6.3,20.5,0.8l1.7-1.6l0,0l14.9-15.8l15-15.7c2.6-2.7,5.2-5.4,7.8-8.1
	C266.1,218,257.6,213.2,253,204.9z"/>
<path fill="#FFD3B6" d="M357.9,196.5l-1.7-1L320,176.3l-8.3-4.5l2.6,33.6l18.7,9.7l-14.2,47.8l2.8,35.8c0.1,0.4,0.1,0.8,0.1,1.1
	c0,2.5-1.3,4.9-3.6,7.1l2.7,6.8c1.6-1.1,3-2.7,3.9-4.7l8.8-20.5c0.6-1.5,1-3.3,1-5c0-2.1-0.5-4.1-1.4-5.8l29.8-64.9
	C365.6,207,363.5,199.9,357.9,196.5z"/>
<path fill="#FFD3B6" d="M182.5,362.6c-0.9,1.1-1.7,2.3-2.6,3.4c-1.9,2.6-3.8,5.2-5.7,7.8l-0.2,0.2l-0.1,0.1l0,0.1
	c0.3-0.3,0.1-0.1,0.1-0.1l-0.4,0.5l-0.7,1l-1.5,2l-2.9,3.9c-2,2.6-3.9,5.2-5.8,7.9c-1.9,2.6-3.8,5.2-5.7,7.9
	c-1.8,2.6-3.7,5.3-5.5,7.9c-1.8,2.6-3.5,5.2-5.2,7.8c-3.4,5.1-6.7,10.1-9.7,15c-1.5,2.4-3,4.8-4.3,7c-1.4,2.3-2.7,4.5-4,6.7
	c-1.3,2.1-2.5,4.2-3.6,6.2c-1.1,2-2.2,3.9-3.2,5.7c-1,1.8-1.9,3.5-2.7,5c-0.8,1.6-1.6,3-2.2,4.3c-0.4,0.7-0.7,1.4-1,2.1
	c1.1,1.7,2.6,3.3,4.3,4.6c4.6,3.3,10.3,4.1,15.3,2.1c0.9-1,1.9-1.9,3-3c2.8-2.8,6-6,9.4-9.5c6.8-7,14.7-15.2,23.2-23.9
	c8.4-8.8,17.3-18.3,26.3-27.7c2.3-2.4,4.6-4.8,6.9-7.3c2.2-2.4,4.3-4.8,6.5-7.2c0.7-0.8,1.4-1.5,2-2.2L182.5,362.6z"/>
<path fill="#FFD3B6" d="M425.4,408.6c1.4-4.5,5.1-3.4,8.5-1.1c1-2.8,1.3-6,0.6-9.2c-1.4-6.5-6.2-11.3-12.6-12.5
	c-0.7-0.1-1.2-0.6-1.4-1.2l-75,7.7l-4.7-9.9c-0.1,0-0.2,0.1-0.2,0.1l-38.9,14l12.5,26.7l1.2,2.6c3.4,7.3,11.6,11.3,19.7,9.2
	l89.5-23.3C424.7,410.9,425,409.8,425.4,408.6z"/>
</svg>
