<?xml version="1.0" encoding="utf-8"?>
<!-- Generator: Adobe Illustrator 18.0.0, SVG Export Plug-In . SVG Version: 6.00 Build 0)  -->
<!DOCTYPE svg PUBLIC "-//W3C//DTD SVG 1.1 Tiny//EN" "http://www.w3.org/Graphics/SVG/1.1/DTD/svg11-tiny.dtd">
<svg version="1.1" baseProfile="tiny" id="Layer_1" xmlns="http://www.w3.org/2000/svg" xmlns:xlink="http://www.w3.org/1999/xlink"
	 x="0px" y="0px" width="512px" height="511.9px" viewBox="0 0 512 511.9" xml:space="preserve">
<path fill="#597B91" d="M329.9,187.2c-3.8,0-7.5-1.4-10.4-4.3c-5.7-5.7-5.7-15,0-20.7l92.4-92.3c22.1-22.1,60.7-22.1,82.9,0
	c22.8,22.9,22.8,60,0,82.9c-5.7,5.7-15,5.7-20.7,0c-5.7-5.7-5.7-15,0-20.7c11.4-11.4,11.4-30,0-41.4c-11-11-30.3-11.1-41.4,0
	l-92.4,92.3C337.4,185.8,333.7,187.2,329.9,187.2z"/>
</svg>
