<?xml version="1.0" encoding="utf-8"?>
<!-- Generator: Adobe Illustrator 18.1.0, SVG Export Plug-In . SVG Version: 6.00 Build 0)  -->
<!DOCTYPE svg PUBLIC "-//W3C//DTD SVG 1.0//EN" "http://www.w3.org/TR/2001/REC-SVG-20010904/DTD/svg10.dtd">
<svg version="1.0" id="Layer_1" xmlns="http://www.w3.org/2000/svg" xmlns:xlink="http://www.w3.org/1999/xlink" x="0px" y="0px"
	 width="72px" height="72px" viewBox="0 0 72 72" enable-background="new 0 0 72 72" xml:space="preserve">
<path fill="#2B3B47" d="M26.3,39.2v3.5h0c0,0,0,0,0,0c0,1.4-1.1,2.5-2.5,2.5s-2.5-1.1-2.5-2.5c0,0,0,0,0,0h0v-3.5h0
	c0.1-1.3,1.2-2.3,2.5-2.3C25.1,36.9,26.1,37.9,26.3,39.2L26.3,39.2z"/>
<path fill="#2B3B47" d="M50.7,39.2c-0.1-1.3-1.2-2.3-2.5-2.3c-1.3,0-2.4,1-2.5,2.3h0v3.5h0c0,0,0,0,0,0c0,1.4,1.1,2.5,2.5,2.5
	c1.4,0,2.5-1.1,2.5-2.5c0,0,0,0,0,0l0,0L50.7,39.2L50.7,39.2z"/>
<path fill="#2B3B47" d="M36,58.8c-3.6,0-6.8-1.8-8.6-4.9c-0.3-0.4-0.3-1,0-1.4c0.2-0.4,0.7-0.7,1.2-0.7h14.9c0.5,0,0.9,0.3,1.2,0.7
	c0.2,0.4,0.2,1,0,1.4C42.8,56.9,39.6,58.8,36,58.8z"/>
</svg>
