<?xml version="1.0" encoding="utf-8"?>
<!-- Generator: Adobe Illustrator 18.1.0, SVG Export Plug-In . SVG Version: 6.00 Build 0)  -->
<!DOCTYPE svg PUBLIC "-//W3C//DTD SVG 1.0//EN" "http://www.w3.org/TR/2001/REC-SVG-20010904/DTD/svg10.dtd">
<svg version="1.0" id="Layer_1" xmlns="http://www.w3.org/2000/svg" xmlns:xlink="http://www.w3.org/1999/xlink" x="0px" y="0px"
	 width="72px" height="72px" viewBox="0 0 72 72" enable-background="new 0 0 72 72" xml:space="preserve">
<path fill="#2B3B47" d="M42.1,9.8c0-0.3-0.2-0.5-0.5-0.6c-0.3,0-0.5,0.1-0.6,0.4l0,0l-0.1,0.8l0,0c0,0,0,0,0,0
	c0,0.3,0.2,0.6,0.5,0.6c0.3,0,0.6-0.2,0.6-0.5c0,0,0,0,0,0l0,0L42.1,9.8L42.1,9.8z"/>
<path fill="#2B3B47" d="M47.5,10.7c0-0.3-0.2-0.5-0.5-0.6c-0.3,0-0.5,0.1-0.6,0.4l0,0l-0.1,0.8l0,0c0,0,0,0,0,0
	c0,0.3,0.2,0.6,0.5,0.6c0.3,0,0.6-0.2,0.6-0.5c0,0,0,0,0,0l0,0L47.5,10.7L47.5,10.7z"/>
</svg>
