<?xml version="1.0" encoding="iso-8859-1"?>
<!-- Generator: Adobe Illustrator 18.1.0, SVG Export Plug-In . SVG Version: 6.00 Build 0)  -->
<!DOCTYPE svg PUBLIC "-//W3C//DTD SVG 1.1//EN" "http://www.w3.org/Graphics/SVG/1.1/DTD/svg11.dtd">
<svg version="1.1" xmlns="http://www.w3.org/2000/svg" xmlns:xlink="http://www.w3.org/1999/xlink" x="0px" y="0px"
	 viewBox="0 0 72 72" enable-background="new 0 0 72 72" xml:space="preserve">
<g id="Layer_6">
	<path fill="#FF473E" d="M26.123,44.902c-0.003-0.002-0.007-0.003-0.01-0.005l0.001,0c0.003-0.001,0.007-0.002,0.01-0.004
		c-0.987-0.691-2.141-0.468-3.359-0.318l-0.003,0l-0.003,0c-1.217-0.15-2.372-0.373-3.359,0.318
		c0.004,0.002,0.007,0.003,0.011,0.004c-0.003,0.002-0.007,0.003-0.011,0.005c1.102,0.491,2.204,0.724,3.305,0.73
		c0.018,0,0.036,0.003,0.053,0.003l0.003,0l0.003,0c0.018,0,0.036-0.003,0.053-0.003C23.919,45.626,25.021,45.393,26.123,44.902
		L26.123,44.902L26.123,44.902z"/>
</g>
<g id="Layer_1">
</g>
</svg>
