<?xml version="1.0" encoding="iso-8859-1"?>
<!-- Generator: Adobe Illustrator 19.1.0, SVG Export Plug-In . SVG Version: 6.00 Build 0)  -->
<!DOCTYPE svg PUBLIC "-//W3C//DTD SVG 1.1//EN" "http://www.w3.org/Graphics/SVG/1.1/DTD/svg11.dtd">
<svg version="1.1" xmlns="http://www.w3.org/2000/svg" xmlns:xlink="http://www.w3.org/1999/xlink" x="0px" y="0px"
	 viewBox="0 0 511.92 513.326" enable-background="new 0 0 511.92 513.326" xml:space="preserve">
<g id="Layer_10">
	<path fill="#E5AB83" d="M160.766,113.31c-0.003,0-0.006,0-0.008,0c-3.47-0.002-6.627-1.727-8.445-4.612
		c-0.599-0.95-0.314-2.206,0.636-2.804c0.95-0.599,2.207-0.315,2.804,0.636c1.07,1.697,2.942,2.711,5.008,2.713
		c0.002,0,0.003,0,0.005,0c2.07,0,3.947-1.015,5.022-2.716c0.6-0.949,1.856-1.232,2.806-0.632c0.949,0.6,1.232,1.856,0.632,2.806
		C167.4,111.588,164.238,113.31,160.766,113.31z M182.837,69.528c-0.901,0.675-1.084,1.952-0.409,2.852
		c0.675,0.901,1.952,1.084,2.852,0.409c0,0,0.19-0.142,0.523-0.39c0.19-0.152,0.308-0.202,0.484-0.32
		c0.15-0.112,0.398-0.231,0.659-0.365c0.253-0.149,0.565-0.24,0.876-0.38c0.326-0.097,0.667-0.235,1.036-0.306
		c0.366-0.095,0.75-0.16,1.144-0.204c0.392-0.045,0.797-0.066,1.196-0.056l0.6,0.026l0.584,0.086
		c0.387,0.059,0.757,0.165,1.11,0.276c0.7,0.24,1.312,0.572,1.787,0.932c0.259,0.155,0.436,0.369,0.624,0.527
		c0.191,0.156,0.327,0.324,0.438,0.463c0.231,0.274,0.364,0.431,0.364,0.431l0.104,0.124c0.35,0.415,0.962,0.517,1.431,0.216
		c0.511-0.327,0.659-1.006,0.332-1.517c0,0-0.145-0.227-0.4-0.624c-0.126-0.201-0.282-0.444-0.507-0.691
		c-0.222-0.247-0.442-0.561-0.761-0.825c-0.593-0.577-1.389-1.153-2.324-1.61c-0.467-0.219-0.968-0.428-1.487-0.578
		c-0.262-0.072-0.526-0.144-0.791-0.217l-0.809-0.141c-0.542-0.082-1.09-0.122-1.627-0.129c-0.539-0.007-1.068,0.017-1.577,0.08
		c-0.513,0.04-0.998,0.157-1.464,0.242c-0.456,0.13-0.899,0.216-1.289,0.373c-0.394,0.141-0.752,0.263-1.102,0.442
		c-0.331,0.158-0.672,0.32-0.818,0.413c-0.361,0.206-0.567,0.323-0.567,0.323C182.981,69.429,182.901,69.48,182.837,69.528z
		 M135.514,72.928c0.977,0.558,2.222,0.218,2.779-0.76s0.218-2.222-0.76-2.779c0,0-0.206-0.118-0.567-0.323
		c-0.146-0.093-0.487-0.255-0.818-0.413c-0.351-0.179-0.708-0.301-1.102-0.442c-0.39-0.157-0.834-0.243-1.289-0.373
		c-0.466-0.085-0.951-0.201-1.464-0.242c-0.509-0.063-1.039-0.087-1.577-0.08c-0.537,0.006-1.085,0.047-1.627,0.129l-0.809,0.141
		c-0.265,0.073-0.529,0.145-0.791,0.217c-0.519,0.15-1.02,0.359-1.487,0.578c-0.935,0.457-1.731,1.033-2.324,1.61
		c-0.319,0.264-0.539,0.578-0.761,0.825c-0.226,0.247-0.381,0.49-0.507,0.691c-0.255,0.397-0.4,0.624-0.4,0.624
		c-0.293,0.457-0.21,1.072,0.216,1.431c0.463,0.391,1.156,0.333,1.547-0.131l0.104-0.124c0,0,0.132-0.157,0.364-0.431
		c0.112-0.139,0.247-0.307,0.438-0.463c0.188-0.157,0.365-0.372,0.624-0.527c0.474-0.359,1.087-0.692,1.787-0.932
		c0.353-0.111,0.722-0.217,1.11-0.276l0.584-0.086l0.6-0.026c0.399-0.01,0.804,0.011,1.196,0.056
		c0.394,0.044,0.778,0.109,1.144,0.204c0.369,0.072,0.71,0.209,1.036,0.306c0.312,0.14,0.623,0.231,0.876,0.38
		c0.261,0.134,0.509,0.253,0.659,0.365c0.176,0.117,0.294,0.168,0.484,0.32c0.333,0.248,0.523,0.39,0.523,0.39
		C135.366,72.836,135.444,72.888,135.514,72.928z"/>
</g>
<g id="Layer_1">
</g>
</svg>
