<?xml version="1.0" encoding="utf-8"?>
<!-- Generator: Adobe Illustrator 18.0.0, SVG Export Plug-In . SVG Version: 6.00 Build 0)  -->
<!DOCTYPE svg PUBLIC "-//W3C//DTD SVG 1.1 Tiny//EN" "http://www.w3.org/Graphics/SVG/1.1/DTD/svg11-tiny.dtd">
<svg version="1.1" baseProfile="tiny" id="Layer_1" xmlns="http://www.w3.org/2000/svg" xmlns:xlink="http://www.w3.org/1999/xlink"
	 x="0px" y="0px" width="512.4px" height="511.9px" viewBox="0 0 512.4 511.9" xml:space="preserve">
<path fill="#EDECE6" d="M95.8,363.3h48.6c8.7,0,15.7-7,15.7-15.7V331c0-8.7-7-15.7-15.7-15.7H95.8c-8.7,0-15.7,7-15.7,15.7v16.6
	C80.1,356.3,87.1,363.3,95.8,363.3z M352.3,331v16.6c0,8.7,7,15.7,15.7,15.7h48.6c8.7,0,15.7-7,15.7-15.7V331
	c0-8.7-7-15.7-15.7-15.7H368C359.3,315.3,352.3,322.3,352.3,331z"/>
</svg>
