<?xml version="1.0" encoding="iso-8859-1"?>
<!-- Generator: Adobe Illustrator 19.1.0, SVG Export Plug-In . SVG Version: 6.00 Build 0)  -->
<!DOCTYPE svg PUBLIC "-//W3C//DTD SVG 1.1//EN" "http://www.w3.org/Graphics/SVG/1.1/DTD/svg11.dtd">
<svg version="1.1" xmlns="http://www.w3.org/2000/svg" xmlns:xlink="http://www.w3.org/1999/xlink" x="0px" y="0px"
	 viewBox="0 0 511.92 513.326" enable-background="new 0 0 511.92 513.326" xml:space="preserve">
<g id="Layer_15">
	<path fill="#FFFFFF" d="M311.008,99.596v1.729l0,0v0.005c0,0.678-0.551,1.229-1.228,1.229c-0.678,0-1.228-0.55-1.228-1.229v-0.005
		h-0.003v-1.729h0.012c0.057-0.628,0.577-1.124,1.219-1.124c0.641,0,1.164,0.496,1.215,1.124H311.008z M371.106,99.596
		c-0.051-0.628-0.575-1.124-1.215-1.124c-0.642,0-1.162,0.496-1.219,1.124h-0.012v1.729h0.003v0.005c0,0.678,0.55,1.229,1.228,1.229
		c0.677,0,1.228-0.55,1.228-1.229v-0.005l0,0v-1.729H371.106z M129.668,85.733c-0.052-0.633-0.579-1.133-1.225-1.133
		c-0.647,0-1.172,0.5-1.229,1.133h-0.012v1.743h0.003v0.005c0,0.684,0.555,1.239,1.239,1.239c0.683,0,1.239-0.555,1.239-1.239
		v-0.005l0,0v-1.743H129.668z M190.273,85.733c-0.052-0.633-0.579-1.133-1.225-1.133c-0.647,0-1.172,0.5-1.229,1.133h-0.012v1.743
		h0.003v0.005c0,0.684,0.555,1.239,1.239,1.239c0.683,0,1.239-0.555,1.239-1.239v-0.005l0,0v-1.743H190.273z"/>
</g>
<g id="Layer_1">
</g>
</svg>
