<?xml version="1.0" encoding="utf-8"?>
<!-- Generator: Adobe Illustrator 18.1.0, SVG Export Plug-In . SVG Version: 6.00 Build 0)  -->
<!DOCTYPE svg PUBLIC "-//W3C//DTD SVG 1.0//EN" "http://www.w3.org/TR/2001/REC-SVG-20010904/DTD/svg10.dtd">
<svg version="1.0" id="Layer_1" xmlns="http://www.w3.org/2000/svg" xmlns:xlink="http://www.w3.org/1999/xlink" x="0px" y="0px"
	 width="72px" height="72px" viewBox="0 0 72 72" enable-background="new 0 0 72 72" xml:space="preserve">
<path fill="#FF473E" d="M11.8,7.3c-0.3-0.4-0.9-0.6-1.4-0.3C4.2,10.5,0,17.2,0,24.8c0,3.1,0.7,6.1,1.9,8.7c0.5,1,5.1,10.4,5.1,28.2
	c0,1,4.2,1,4.2,0c0,0,0.1-9.7,0.1-16.2s1.9-8.4,3.5-8.4s8.3,13.2,12,17.7s8.8,8.8,26,8.8s18.9-3.9,18.9-5.4s-2.2-5.6-18-9.8
	C36.9,44,32.7,40.2,23.5,25.6C16.4,14.4,13,9.1,11.8,7.3z"/>
<path fill="#D32A2A" d="M25.2,32.2C21.6,25.4,12.6,8.4,12.6,8.4c1.2,1.8,4.1,6,11.1,17.2c8.6,13.6,12.8,17.8,27.1,21.9c0,0,0,0,0,0
	c4.8,1.4,4,3.6-6.2,2.9C35.4,49.8,28.8,39.1,25.2,32.2z M9,60.9c-0.7,0-1.3-0.1-1.9-0.2c0,0.4,0,0.7,0,1.1c0,1,4.2,1,4.2,0
	c0,0,0-0.4,0-1.1C10.5,60.8,9.8,60.9,9,60.9z"/>
</svg>
