<?xml version="1.0" encoding="utf-8"?>
<!-- Generator: Adobe Illustrator 18.1.0, SVG Export Plug-In . SVG Version: 6.00 Build 0)  -->
<!DOCTYPE svg PUBLIC "-//W3C//DTD SVG 1.0//EN" "http://www.w3.org/TR/2001/REC-SVG-20010904/DTD/svg10.dtd">
<svg version="1.0" id="Layer_1" xmlns="http://www.w3.org/2000/svg" xmlns:xlink="http://www.w3.org/1999/xlink" x="0px" y="0px"
	 width="72px" height="72px" viewBox="0 0 72 72" enable-background="new 0 0 72 72" xml:space="preserve">
<path fill="#E5AB83" d="M36,47.8C36,47.8,36,47.8,36,47.8c-1.4,0-2.7-0.7-3.4-1.9c-0.3-0.4-0.1-0.9,0.3-1.2c0.4-0.3,0.9-0.1,1.2,0.3
	c0.4,0.7,1.2,1.1,2,1.1h0c0.8,0,1.6-0.4,2-1.1c0.3-0.4,0.8-0.5,1.2-0.3c0.4,0.3,0.5,0.8,0.3,1.2C38.7,47.1,37.4,47.8,36,47.8z"/>
</svg>
