<?xml version="1.0" encoding="utf-8"?>
<!-- Generator: Adobe Illustrator 18.0.0, SVG Export Plug-In . SVG Version: 6.00 Build 0)  -->
<!DOCTYPE svg PUBLIC "-//W3C//DTD SVG 1.1 Tiny//EN" "http://www.w3.org/Graphics/SVG/1.1/DTD/svg11-tiny.dtd">
<svg version="1.1" baseProfile="tiny" id="Layer_1" xmlns="http://www.w3.org/2000/svg" xmlns:xlink="http://www.w3.org/1999/xlink"
	 x="0px" y="0px" width="511.9px" height="511.9px" viewBox="0 0 511.9 511.9" xml:space="preserve">
<path fill="#2B3B47" d="M360.5,105c-3.3,0-6.1-2.6-6.2-6c-0.7-17.1-7.8-33.7-20.2-46.8c-12.4-13.1-28.6-21-45.7-22.5
	c-3.4-0.3-6-3.3-5.7-6.7s3.3-6,6.7-5.7c20.1,1.7,39.1,11.1,53.6,26.3c14.5,15.2,22.8,34.7,23.6,54.9c0.1,3.4-2.5,6.3-6,6.5
	C360.6,105,360.6,105,360.5,105z"/>
<path fill="#2B3B47" d="M330.3,104.7c-3,0-5.7-2.2-6.1-5.3c-2.9-19-17.9-35.2-36.5-39.2c-3.4-0.7-5.5-4-4.8-7.4
	c0.7-3.4,4-5.5,7.4-4.8c23.5,5.1,42.5,25.5,46.2,49.5c0.5,3.4-1.8,6.6-5.2,7.1C330.9,104.7,330.6,104.7,330.3,104.7z"/>
<path fill="#2B3B47" d="M95.9,396c-0.2,0-0.4,0-0.5,0c-20.1-1.7-39.1-11.1-53.6-26.3c-14.5-15.2-22.8-34.7-23.6-54.9
	c-0.1-3.4,2.5-6.3,6-6.5c3.4-0.1,6.3,2.5,6.5,6c0.7,17.1,7.8,33.7,20.2,46.8c12.4,13.1,28.6,21,45.7,22.5c3.4,0.3,6,3.3,5.7,6.7
	C101.8,393.5,99.1,396,95.9,396z"/>
<path fill="#2B3B47" d="M95.9,365.4c-0.4,0-0.9,0-1.3-0.1c-23.5-5.1-42.5-25.5-46.2-49.5c-0.5-3.4,1.8-6.6,5.2-7.1
	c3.4-0.5,6.6,1.8,7.1,5.2c2.9,19,17.9,35.2,36.5,39.2c3.4,0.7,5.5,4,4.8,7.4C101.4,363.4,98.8,365.4,95.9,365.4z"/>
<path fill="#FFD3B6" d="M502.1,373.1L481,352c12.3-15.5,17.1-34.9,14.3-53.5c0-0.3-0.1-0.5-0.1-0.8c-0.1-0.5-0.2-1-0.3-1.5
	c-0.1-1.4-0.6-3.7-1.6-6.6c-0.4-1.4-0.9-2.8-1.4-4.2c-9.9-29.1-40.7-103.8-35.3-177.4c0.1-16.5-10.9-31.4-26.5-30.5
	c-15.6,0.9-44.1,9-45.6,82.7c-0.3,13.6-2.1,20.2-1.6,31.4l-178-178c-11.6-11.6-30-11.8-41.6-0.2c-11.6,11.6-11.6,30.4-0.1,41.9
	l105.4,105.4c0.1,0.1,0.2,0.2,0.3,0.3c9.8,9.8-2.1,23.4-12.4,17.5L130.3,52.2c-11.5-11.5-30-11.8-41.6-0.2
	C77.1,63.6,77,82.4,88.6,93.9L215,220.3c6.1,9.3-5.6,20.4-14.7,13L89.9,122.9c-11.5-11.5-30-11.8-41.6-0.2
	c-11.6,11.6-11.7,30.4-0.1,41.9l108.7,108.7c0.1,0.2,0.3,0.5,0.7,0.9c9.5,9.5-1.8,22.5-11.8,17.1l-77.8-77.8
	c-11.5-11.5-30-11.8-41.6-0.2c-11.6,11.6-11.7,30.4-0.1,41.9l183.1,183.1c0,0,0,0,0,0c37.2,37.2,91.1,47.4,137.5,30.7l29.8,29.8
	c11.6,11.6,30.3,11.6,41.9,0l83.7-83.7C513.7,403.4,513.7,384.6,502.1,373.1z"/>
<path fill="#F2C7AA" d="M481,352c-1.3,1.6-2.6,3.2-4.1,4.7c-0.4,0.4-0.8,0.8-1.1,1.2l-63.7,63.7l0-0.3l-17,17
	c-14.1,14.1-30.7,24.4-48.3,30.7l26.5,26.5c5.8-1.8,10.7-4.2,13.8-7.3l104.7-104.7c3-3,5.6-7.6,7.7-12.9L481,352z"/>
</svg>
