<?xml version="1.0" encoding="utf-8"?>
<!-- Generator: Adobe Illustrator 18.1.0, SVG Export Plug-In . SVG Version: 6.00 Build 0)  -->
<!DOCTYPE svg PUBLIC "-//W3C//DTD SVG 1.0//EN" "http://www.w3.org/TR/2001/REC-SVG-20010904/DTD/svg10.dtd">
<svg version="1.0" id="Layer_1" xmlns="http://www.w3.org/2000/svg" xmlns:xlink="http://www.w3.org/1999/xlink" x="0px" y="0px"
	 width="72px" height="72px" viewBox="0 0 72 72" enable-background="new 0 0 72 72" xml:space="preserve">
<path fill="#CE8E63" d="M55.1,21C55,21,55,21,55.1,21c-0.4,0-0.8-0.2-1-0.5c-0.1-0.1,0-0.3,0.1-0.3c0.1-0.1,0.3,0,0.3,0.1
	c0.1,0.2,0.3,0.3,0.6,0.3c0,0,0,0,0,0c0.2,0,0.5-0.1,0.6-0.3c0.1-0.1,0.2-0.1,0.3-0.1c0.1,0.1,0.1,0.2,0.1,0.3
	C55.8,20.8,55.5,21,55.1,21z M57.7,15.6c-0.1,0.1-0.1,0.2-0.1,0.3c0.1,0.1,0.2,0.1,0.3,0.1c0,0,0,0,0.1,0c0,0,0.1-0.1,0.2-0.1
	c0.1-0.1,0.3-0.1,0.5-0.1c0.1,0,0.2,0,0.3,0c0.1,0,0.1,0.1,0.2,0.1c0.1,0,0.1,0.1,0.1,0.1c0,0,0,0,0,0l0,0c0,0,0.1,0.1,0.2,0
	c0.1,0,0.1-0.1,0-0.2c0,0,0,0-0.1-0.1c0,0-0.1-0.1-0.1-0.2c-0.1-0.1-0.2-0.1-0.3-0.2c-0.1-0.1-0.2-0.1-0.4-0.1c-0.3,0-0.5,0-0.7,0.1
	C57.9,15.5,57.8,15.5,57.7,15.6C57.8,15.6,57.7,15.6,57.7,15.6C57.7,15.6,57.7,15.6,57.7,15.6z M52.2,16c0.1,0.1,0.3,0,0.3-0.1
	s0-0.3-0.1-0.3c0,0,0,0-0.1,0c0,0-0.1-0.1-0.2-0.1c-0.2-0.1-0.5-0.1-0.7-0.1c-0.1,0-0.3,0.1-0.4,0.1c-0.1,0-0.2,0.1-0.3,0.2
	c-0.1,0.1-0.1,0.1-0.1,0.2c0,0-0.1,0.1-0.1,0.1c0,0.1,0,0.1,0,0.2c0.1,0,0.1,0,0.2,0l0,0c0,0,0,0,0,0c0,0,0.1-0.1,0.1-0.1
	c0.1,0,0.1-0.1,0.2-0.1c0.1,0,0.2,0,0.3,0c0.2,0,0.4,0,0.5,0.1C52,15.9,52,15.9,52.2,16C52.1,16,52.1,16,52.2,16
	C52.1,16,52.1,16,52.2,16z M24.2,20.5c0.1-0.1,0-0.3-0.1-0.3c-0.1-0.1-0.3,0-0.3,0.1c-0.1,0.2-0.3,0.3-0.6,0.3c0,0,0,0,0,0
	c-0.2,0-0.5-0.1-0.6-0.3c-0.1-0.1-0.2-0.1-0.3-0.1c-0.1,0.1-0.1,0.2-0.1,0.3c0.2,0.3,0.6,0.5,1,0.5c0,0,0,0,0,0
	C23.6,21,24,20.8,24.2,20.5z M25.8,15.6c-0.1,0.1-0.1,0.2-0.1,0.3c0.1,0.1,0.2,0.1,0.3,0.1c0,0,0,0,0.1,0c0,0,0.1-0.1,0.2-0.1
	c0.1-0.1,0.3-0.1,0.5-0.1c0.1,0,0.2,0,0.3,0c0.1,0,0.1,0.1,0.2,0.1c0.1,0,0.1,0.1,0.1,0.1c0,0,0,0,0,0l0,0c0,0,0.1,0.1,0.2,0
	c0.1,0,0.1-0.1,0-0.2c0,0,0,0-0.1-0.1c0,0-0.1-0.1-0.1-0.2c-0.1-0.1-0.2-0.1-0.3-0.2c-0.1-0.1-0.2-0.1-0.4-0.1c-0.3,0-0.5,0-0.7,0.1
	C26,15.5,26,15.5,25.8,15.6C25.9,15.6,25.9,15.6,25.8,15.6C25.9,15.6,25.8,15.6,25.8,15.6z M20.3,16c0.1,0.1,0.3,0,0.3-0.1
	s0-0.3-0.1-0.3c0,0,0,0-0.1,0c0,0-0.1-0.1-0.2-0.1c-0.2-0.1-0.5-0.1-0.7-0.1c-0.1,0-0.3,0.1-0.4,0.1c-0.1,0-0.2,0.1-0.3,0.2
	c-0.1,0.1-0.1,0.1-0.1,0.2c0,0-0.1,0.1-0.1,0.1c0,0.1,0,0.1,0,0.2c0.1,0,0.1,0,0.2,0l0,0c0,0,0,0,0,0c0,0,0.1-0.1,0.1-0.1
	c0.1,0,0.1-0.1,0.2-0.1c0.1,0,0.2,0,0.3,0c0.2,0,0.4,0,0.5,0.1C20.1,15.9,20.2,15.9,20.3,16C20.2,16,20.3,16,20.3,16
	C20.3,16,20.3,16,20.3,16z"/>
</svg>
