<?xml version="1.0" encoding="utf-8"?>
<!-- Generator: Adobe Illustrator 18.1.0, SVG Export Plug-In . SVG Version: 6.00 Build 0)  -->
<!DOCTYPE svg PUBLIC "-//W3C//DTD SVG 1.0//EN" "http://www.w3.org/TR/2001/REC-SVG-20010904/DTD/svg10.dtd">
<svg version="1.0" id="Layer_1" xmlns="http://www.w3.org/2000/svg" xmlns:xlink="http://www.w3.org/1999/xlink" x="0px" y="0px"
	 width="72px" height="72px" viewBox="0 0 72 72" enable-background="new 0 0 72 72" xml:space="preserve">
<path fill="#FFD3B6" d="M35,41.7c0.1-1.1-2-8.2-0.4-14.6c0.2-1.2-0.4-2.5-1.6-2.6s-3.4,0.1-4.5,5.6c-0.2,1-0.4,1.5-0.5,2.3L17,16.7
	c-0.7-1-2.1-1.3-3.1-0.6c-1,0.7-1.3,2.1-0.6,3.1l6.5,9.3c0,0,0,0,0,0c0.6,0.9-0.5,1.8-1.2,1.1l-7.7-11c-0.7-1-2.1-1.3-3.1-0.6
	c-1,0.7-1.3,2.1-0.6,3.1L15,32.3c0.4,0.8-0.7,1.6-1.3,0.8l-6.8-9.7c-0.7-1-2.1-1.3-3.1-0.6c-1,0.7-1.3,2.1-0.6,3.1l6.7,9.6
	c0,0,0,0,0,0c0.6,0.9-0.5,1.7-1.2,1.1l-4.8-6.8c-0.7-1-2.1-1.3-3.1-0.6c-1,0.7-1.3,2.1-0.6,3.1l11.3,16.1c2.3,3.3,6.2,4.7,9.9,4.1
	l1.8,2.6c0.7,1,2.1,1.3,3.1,0.6l7.4-5.2c1-0.7,1.3-2.1,0.6-3.1l-1.3-1.9c1-0.9,1.6-2,1.7-3.3C35,42.2,35,41.9,35,41.7
	C35,41.7,35,41.7,35,41.7C35,41.7,35,41.7,35,41.7z"/>
<path fill="#FFD3B6" d="M70.9,29.3c-1-0.7-2.4-0.5-3.1,0.6l-4.8,6.8c-0.7,0.6-1.8-0.2-1.2-1.1c0,0,0,0,0,0l6.7-9.6
	c0.7-1,0.5-2.4-0.6-3.1c-1-0.7-2.4-0.5-3.1,0.6L58.2,33c-0.6,0.8-1.7,0-1.3-0.8l7.7-11.1c0.7-1,0.5-2.4-0.6-3.1
	c-1-0.7-2.4-0.5-3.1,0.6l-7.7,11c-0.7,0.7-1.8-0.2-1.2-1.1c0,0,0,0,0,0l6.5-9.3c0.7-1,0.5-2.4-0.6-3.1c-1-0.7-2.4-0.5-3.1,0.6
	l-11,15.7c-0.1-0.8-0.3-1.3-0.5-2.3c-1.1-5.5-3.3-5.7-4.5-5.6s-1.8,1.4-1.6,2.6c1.6,6.3-0.4,13.4-0.4,14.6c0,0,0,0,0,0c0,0,0,0,0,0
	c0,0.2,0,0.5,0.1,0.7c0.2,1.2,0.7,2.4,1.7,3.3l-1.3,1.9c-0.7,1-0.5,2.4,0.6,3.1l7.4,5.2c1,0.7,2.4,0.5,3.1-0.6l1.8-2.6
	c3.7,0.6,7.6-0.8,9.9-4.1l11.3-16.1C72.2,31.4,72,30,70.9,29.3z"/>
<path fill="#F2C7AA" d="M33.2,45.7c-0.1,0.1-0.3,0.3-0.4,0.4L27.1,50l0,0l-1.5,1c-1.2,0.9-2.6,1.4-4,1.7l1.6,2.3
	c0.5-0.1,0.9-0.2,1.1-0.4l9.2-6.5c0.3-0.2,0.5-0.5,0.7-0.9L33.2,45.7C33.2,45.7,33.2,45.7,33.2,45.7z"/>
<path fill="#F2C7AA" d="M46.3,51l-1.5-1l0,0l-5.6-3.9c-0.1-0.1-0.3-0.2-0.4-0.4c0,0,0,0,0,0l-1.2,1.7c0.2,0.4,0.5,0.7,0.7,0.9
	l9.2,6.5c0.3,0.2,0.7,0.3,1.1,0.4l1.6-2.3C48.9,52.4,47.5,51.9,46.3,51z"/>
</svg>
