<?xml version="1.0" encoding="utf-8"?>
<!-- Generator: Adobe Illustrator 18.1.0, SVG Export Plug-In . SVG Version: 6.00 Build 0)  -->
<!DOCTYPE svg PUBLIC "-//W3C//DTD SVG 1.0//EN" "http://www.w3.org/TR/2001/REC-SVG-20010904/DTD/svg10.dtd">
<svg version="1.0" id="Layer_1" xmlns="http://www.w3.org/2000/svg" xmlns:xlink="http://www.w3.org/1999/xlink" x="0px" y="0px"
	 width="72px" height="72px" viewBox="0 0 72 72" enable-background="new 0 0 72 72" xml:space="preserve">
<path fill="#68442A" d="M43.8,34.2c-0.1,3-0.4,5.8-0.7,8c-0.5,4.6-1,5.7-1,5.7c0,1.1-4.6,1.8-10.4,2.1v0c2-0.9,3.8-2.3,5.3-3.9l0,0
	c0.3-0.3,0.6-0.7,0.9-1.1c0,0,0,0,0-0.1c0.2-0.3,0.5-0.7,0.7-1c0.1-0.1,0.1-0.2,0.1-0.2c0.2-0.3,0.4-0.6,0.5-0.9
	c0-0.1,0.1-0.2,0.1-0.3c0.2-0.4,0.4-0.8,0.5-1.2c0,0,0,0,0,0c0.2-0.4,0.3-0.8,0.4-1.3c0-0.1,0.1-0.2,0.1-0.3c0.1-0.3,0.2-0.7,0.2-1
	c0-0.1,0.1-0.3,0.1-0.4c0.1-0.3,0.1-0.6,0.1-1c0-0.1,0-0.3,0-0.4c0-0.5,0.1-0.9,0.1-1.4l0-0.5c0.2,0,0.3,0,0.5,0
	c0.2,0,0.4,0,0.6-0.1c0,0,0.1,0,0.1,0c0.2,0,0.3-0.1,0.5-0.1c0,0,0,0,0,0C43.2,34.6,43.5,34.5,43.8,34.2z M44.1,19.2
	c0-10.5-9-18.4-19.5-18.4C14.2,0.8,6.3,8.7,6.3,19.2l0.4,5.4L6.7,36c0,0,0,0,0,0c0.1,5.8,1.5,11.9,1.5,11.9c0,1.1,4.4,1.8,10,2.1
	v-0.2c-3.9-1.9-6.9-5.4-8.2-9.5l0,0c-0.1-0.3-0.2-0.6-0.2-0.8c0,0,0-0.1,0-0.1c-0.1-0.3-0.1-0.6-0.2-0.9c0,0,0-0.1,0-0.1
	c-0.1-0.6-0.2-1.3-0.2-1.9c0-2.3,0-5.1,0-7.7c0.5-2.4,5.2-9.4,9.1-15c0.1,0.1,0.1,0.2,0.2,0.2c6.6,6.6,18.7,9.8,23.3,10.2l-0.2,3.7
	c0.2,0,0.4,0,0.6,0.1c0.1,0,0.2,0,0.2,0.1c0.1,0,0.2,0.1,0.3,0.1c0.1,0,0.2,0.1,0.3,0.1c0.1,0,0.2,0.1,0.3,0.1
	c0.1,0.1,0.2,0.1,0.2,0.2c0.1,0.1,0.2,0.2,0.3,0.3C44.2,23.6,44.1,19.2,44.1,19.2z"/>
</svg>
