<?xml version="1.0" encoding="iso-8859-1"?>
<!-- Generator: Adobe Illustrator 19.1.0, SVG Export Plug-In . SVG Version: 6.00 Build 0)  -->
<!DOCTYPE svg PUBLIC "-//W3C//DTD SVG 1.1//EN" "http://www.w3.org/Graphics/SVG/1.1/DTD/svg11.dtd">
<svg version="1.1" xmlns="http://www.w3.org/2000/svg" xmlns:xlink="http://www.w3.org/1999/xlink" x="0px" y="0px"
	 viewBox="0 0 511.92 513.326" enable-background="new 0 0 511.92 513.326" xml:space="preserve">
<g id="Layer_17">
	<path fill="#68442A" d="M183.598,42.273c-1.396,11.736-10.064,22.077-29.566,22.077c-30.029,0-37.313,14.444-40.852,24.094
		l-1.828-27.338l3.047,45.569c0,16.238,8.353,30.517,20.992,38.799h-6.95h-9.457c0,0-1.912,0.004-4.417-1.07
		c-1.058-0.454-2.044-7.558-3.214-8.478c-1.025-0.805-2.233,4.638-3.201,3.358c-2.906-3.84-5.258-21.588-5.258-31.669
		c0-23.696,1.233-39.753,2.936-50.638C107.008,27.802,129.579,6,159.149,6c25.643,0,34.203,13.716,34.203,13.716
		s22.402,4.13,22.402,39.661c0,0,0.065,12.11-0.299,27.442c-1.581-0.827-3.377-1.301-5.286-1.301c-0.556,0-1.098,0.053-1.632,0.13
		l1.638-24.541l-1.555,23.3c-0.045-0.279-0.074-0.565-0.074-0.864C208.547,71.329,196.46,45.998,183.598,42.273z M210.171,108.325
		c-1.067,0-2.095-0.157-3.075-0.431c-0.408,15.729-8.637,29.507-20.957,37.58h24.037c0,0,0.043-0.113,0.121-0.371
		c2.322-7.096,3.659-22.17,4.429-37.727C213.33,107.983,211.791,108.325,210.171,108.325z"/>
</g>
<g id="Layer_1">
</g>
</svg>
