<?xml version="1.0" encoding="utf-8"?>
<!-- Generator: Adobe Illustrator 18.1.0, SVG Export Plug-In . SVG Version: 6.00 Build 0)  -->
<!DOCTYPE svg PUBLIC "-//W3C//DTD SVG 1.0//EN" "http://www.w3.org/TR/2001/REC-SVG-20010904/DTD/svg10.dtd">
<svg version="1.0" id="Layer_1" xmlns="http://www.w3.org/2000/svg" xmlns:xlink="http://www.w3.org/1999/xlink" x="0px" y="0px"
	 width="72px" height="72px" viewBox="0 0 72 72" enable-background="new 0 0 72 72" xml:space="preserve">
<path fill="#8E6049" d="M47.3,30.3c0,0,0.1-0.1,0.3-0.2c0.1,0,0.2-0.1,0.4-0.2c0.2-0.1,0.4-0.1,0.5-0.2c0.8-0.3,1.9-0.4,3-0.3
	c1.1,0.1,2.1,0.7,2.7,1.3c0.2,0.1,0.3,0.3,0.4,0.4c0.1,0.1,0.2,0.2,0.3,0.3c0.1,0.2,0.2,0.3,0.2,0.3c0.2,0.3,0.1,0.6-0.2,0.8
	c-0.2,0.1-0.5,0.1-0.7-0.1l-0.1-0.1c0,0-0.1-0.1-0.2-0.2c-0.1-0.1-0.1-0.2-0.2-0.2c-0.1-0.1-0.2-0.2-0.3-0.3c-0.5-0.4-1.2-0.7-2-0.7
	c-0.8,0-1.6,0.2-2.1,0.5c-0.1,0.1-0.3,0.1-0.3,0.2c-0.1,0.1-0.1,0.1-0.2,0.2C48.5,32,48.4,32,48.4,32c-0.4,0.3-1.1,0.2-1.4-0.2
	c-0.3-0.4-0.2-1.1,0.2-1.4C47.2,30.4,47.3,30.4,47.3,30.3z M23.7,32.1c0.5,0.3,1.1,0.1,1.4-0.4c0.3-0.5,0.1-1.1-0.4-1.4
	c0,0-0.1-0.1-0.3-0.2c-0.1,0-0.2-0.1-0.4-0.2c-0.2-0.1-0.4-0.1-0.5-0.2c-0.8-0.3-1.9-0.4-3-0.3c-1.1,0.1-2.1,0.7-2.7,1.3
	c-0.2,0.1-0.3,0.3-0.4,0.4c-0.1,0.1-0.2,0.2-0.3,0.3C17,31.7,17,31.8,17,31.8c-0.1,0.2-0.1,0.5,0.1,0.7c0.2,0.2,0.6,0.2,0.8-0.1
	l0.1-0.1c0,0,0.1-0.1,0.2-0.2c0.1-0.1,0.1-0.2,0.2-0.2c0.1-0.1,0.2-0.2,0.3-0.3c0.5-0.4,1.2-0.7,2-0.7c0.8,0,1.6,0.2,2.1,0.5
	c0.1,0.1,0.3,0.1,0.3,0.2c0.1,0.1,0.1,0.1,0.2,0.2c0.2,0.1,0.3,0.2,0.3,0.2C23.6,32,23.6,32.1,23.7,32.1z"/>
</svg>
