<?xml version="1.0" encoding="utf-8"?>
<!-- Generator: Adobe Illustrator 18.1.0, SVG Export Plug-In . SVG Version: 6.00 Build 0)  -->
<!DOCTYPE svg PUBLIC "-//W3C//DTD SVG 1.0//EN" "http://www.w3.org/TR/2001/REC-SVG-20010904/DTD/svg10.dtd">
<svg version="1.0" id="Layer_1" xmlns="http://www.w3.org/2000/svg" xmlns:xlink="http://www.w3.org/1999/xlink" x="0px" y="0px"
	 width="72px" height="72px" viewBox="0 0 72 72" enable-background="new 0 0 72 72" xml:space="preserve">
<path fill="#D7DDDD" d="M66,26.6C66,13.1,55.3,2.2,42,1.8C49.3,3.3,52,7.4,52.2,7.7c-9.2,7.8-23.9,7.6-32.9-0.4
	c3.1-2.7,7-4.6,11.3-5.5C17.1,1.9,6.1,13,6.1,26.6c0,0.6,0,1.2,0.1,1.7c0,0.2-0.1,0.4-0.1,0.6v36c0,1.6,1.3,2.9,2.9,2.9l17,0
	c-2.7-1.6-5.1-3.7-6.9-6.3c0,0.1,0.1,0.1,0.1,0.2h-2.3h-2.5c-1.3,0-2.4-0.8-2.8-2c-1.2-3.1-3.2-9.5-3.2-16.1c0-10.6,1.5-17.8,3-22.4
	c1-5,3.4-9.4,6.8-12.8c4.9,4.4,11.4,6.6,17.9,6.6c6.6,0,13.1-2.2,18-6.7c3,1.4,8.8,5.7,8.8,18.1c0,0,0,7.3-0.2,15.3
	c0.6,0.8,0.9,1.8,0.9,2.8c0,1.2-0.4,2.3-1.1,3.1c0,0,0,0,0,0c-0.3,4.7-0.6,9-1.2,11.6c-0.3,1.4-1.5,2.4-3,2.4h-0.1h-3.5
	c0,0,0-0.1,0.1-0.1c-1.8,2.5-4.2,4.7-7,6.3l15.3,0c1.6,0,2.9-1.3,2.9-2.9V28.9c0,0,0,0,0,0C66,28.1,66,27.4,66,26.6z"/>
</svg>
