<?xml version="1.0" encoding="utf-8"?>
<!-- Generator: Adobe Illustrator 18.1.0, SVG Export Plug-In . SVG Version: 6.00 Build 0)  -->
<!DOCTYPE svg PUBLIC "-//W3C//DTD SVG 1.0//EN" "http://www.w3.org/TR/2001/REC-SVG-20010904/DTD/svg10.dtd">
<svg version="1.0" id="Layer_1" xmlns="http://www.w3.org/2000/svg" xmlns:xlink="http://www.w3.org/1999/xlink" x="0px" y="0px"
	 width="72px" height="72px" viewBox="0 0 72 72" enable-background="new 0 0 72 72" xml:space="preserve">
<path fill="#00D1AE" d="M47.6,31.7c0,0,1.9-8.6,3.9-14.5c0.1-0.4,0.2-0.7,0.2-1c0.1-0.7,0.2-1.4,0.2-2.2c0-2.8-3.3-6.7-5.5-6.7
	c-2.7,0-6.1,2.3-8.6,4.4c-0.5,0.4-1.1,0.4-1.6,0c-2.4-2.1-5.6-4.4-8.6-4.4c-2.2,0-5.5,3.9-5.5,6.7c0,1.9,0.3,3.4,0.9,4.6
	c1.8,5.6,3.2,12.7,3.3,13.1c0,0,0,0,0,0c-3.5,3.6-12.6,34.7-12.6,34.7s2.5,3.3,12.4,4.9l0.1-0.9l2.1,0.3l-0.1,0.9
	c2.5,0.3,5.4,0.5,8.8,0.5c3.4,0,6.3-0.2,8.8-0.5l-0.1-0.9l2.1-0.3l0.1,0.9c10-1.5,12.4-4.9,12.4-4.9C60.3,66.4,50.9,35,47.6,31.7z"
	/>
<path fill="#00B89C" d="M37,33.5c-7.4,0-10.8-1.1-11-1.2c-0.7-0.2-0.5-2.9,0.2-2.7l0,0c0,0,3.8,1.1,10.8,1.1c7,0,10.5-1,10.5-1
	c0.7-0.2,1,2.4,0.3,2.7C47.7,32.4,44.5,33.5,37,33.5z M31.3,43.6c-0.8,0-5.2,27.6-5.2,27.6l2.1,0.2C28.2,71.4,32.1,43.6,31.3,43.6z
	 M42.7,43.6c0.8,0,5.2,27.6,5.2,27.6l-2.1,0.2C45.8,71.4,41.9,43.6,42.7,43.6z M46.8,7.3V1.9c0-0.8,0.6-1.4,1.4-1.4s1.4,0.6,1.4,1.4
	v7.3C48.7,8.2,47.7,7.5,46.8,7.3z M24.5,9.1V1.9c0-0.8,0.6-1.4,1.4-1.4s1.4,0.6,1.4,1.4v5.4C26.4,7.4,25.3,8.1,24.5,9.1z"/>
</svg>
