<?xml version="1.0" encoding="utf-8"?>
<!-- Generator: Adobe Illustrator 18.0.0, SVG Export Plug-In . SVG Version: 6.00 Build 0)  -->
<!DOCTYPE svg PUBLIC "-//W3C//DTD SVG 1.1 Tiny//EN" "http://www.w3.org/Graphics/SVG/1.1/DTD/svg11-tiny.dtd">
<svg version="1.1" baseProfile="tiny" id="Layer_1" xmlns="http://www.w3.org/2000/svg" xmlns:xlink="http://www.w3.org/1999/xlink"
	 x="0px" y="0px" width="511.9px" height="512.2px" viewBox="0 0 511.9 512.2" xml:space="preserve">
<path fill="#FFD469" d="M315,369.3l96.9-17.1c6.1-1.1,8.1-8.7,3.4-12.7l-70-59.2c-3.1-2.6-5-6.4-5.3-10.4c-0.3-4,1-8,3.7-11.1
	l49.4-56.1c1.9-2.2-0.6-5.5-3.2-4.2l-65.7,32.2c-4.7,2.3-10.4,2-14.8-0.9c-4.5-2.9-7.1-7.8-6.9-13.1l1.3-47.3c0.1-4.2-5.3-6-7.7-2.5
	l-26.7,39c-2.7,3.9-7,6.3-11.7,6.6c-4.6,0.2-9.3-1.8-12.3-5.4L139.9,81.4c-2.1-2.5-6.1-0.5-5.4,2.7l39,181.5
	c1.7,7.7-2.9,15.4-10.5,17.7l-42.2,12.4c-5,1.5-5,8.5,0,9.9l42.2,12.4c4,1.2,7.3,4,9.2,7.7c1.9,3.7,2.1,8,0.7,12L132.8,449
	c-1.7,4.6,3.4,8.8,7.6,6.3l108.9-64.4c6.8-4,15.6-2.1,20.2,4.5l28.7,41.9c1.8,2.6,5.9,1.3,5.8-1.9l-1.4-50.8
	C302.3,377.1,307.6,370.6,315,369.3z"/>
</svg>
