<?xml version="1.0" encoding="iso-8859-1"?>
<!-- Generator: Adobe Illustrator 18.1.0, SVG Export Plug-In . SVG Version: 6.00 Build 0)  -->
<!DOCTYPE svg PUBLIC "-//W3C//DTD SVG 1.1//EN" "http://www.w3.org/Graphics/SVG/1.1/DTD/svg11.dtd">
<svg version="1.1" xmlns="http://www.w3.org/2000/svg" xmlns:xlink="http://www.w3.org/1999/xlink" x="0px" y="0px"
	 viewBox="0 0 72 72" enable-background="new 0 0 72 72" xml:space="preserve">
<g id="Layer_9">
	<path fill="#68442A" d="M41.312,15.23c-0.085-0.416-0.196-0.82-0.31-1.224c-0.038-0.153-0.079-0.306-0.116-0.459
		c-0.025-0.104-0.062-0.196-0.093-0.295c-0.01-0.029-0.018-0.059-0.028-0.088c-0.051-0.154-0.109-0.302-0.175-0.443
		c-2.687-7.305-10.08-12.32-18.39-12.32c-10.452,0-18.366,7.916-18.366,18.366L4.2,24.216l0.077,11.394
		c0.003,0,0.006,0.001,0.01,0.001c0.1,5.827,1.469,11.88,1.469,11.88c0,0.84,4.102,1.781,10.009,2.587v-0.713
		c-3.898-1.907-6.902-5.35-8.222-9.542c-0.231-0.734-0.41-1.491-0.535-2.266c-0.004-0.026-0.01-0.051-0.014-0.077
		c-0.054-0.344-0.092-0.693-0.123-1.044c-0.005-0.058-0.015-0.115-0.019-0.174C6.845,36.176,6.847,36.087,6.842,36
		c0-2.274,0-5.11,0-7.637c0.473-2.348,5.132-9.367,9.117-15.057c0.076,0.081,0.142,0.162,0.224,0.244
		c6.556,6.556,18.682,9.81,23.282,10.219l-0.245,3.675c0.232,0.001,0.458,0.027,0.677,0.071c0.155,0.031,0.302,0.082,0.448,0.133
		c0.055,0.019,0.113,0.031,0.166,0.052c0.189,0.077,0.371,0.169,0.543,0.276c0.004,0.002,0.008,0.004,0.011,0.006
		c0.178,0.112,0.346,0.238,0.502,0.378c0.727,0.651,1.193,1.586,1.193,2.638c0,1.144-0.55,2.152-1.39,2.802
		c-0.136,0.105-0.282,0.198-0.432,0.284c-0.034,0.019-0.068,0.038-0.103,0.056c-0.13,0.069-0.264,0.13-0.403,0.182
		c-0.085,0.032-0.174,0.056-0.262,0.081c-0.104,0.031-0.208,0.063-0.316,0.084c-0.211,0.039-0.426,0.065-0.648,0.065
		c-0.157,0-0.306-0.026-0.457-0.046l-0.036,0.535c0,0.465-0.025,0.923-0.065,1.378c-0.012,0.138-0.031,0.274-0.046,0.411
		c-0.036,0.323-0.081,0.643-0.136,0.96c-0.025,0.143-0.051,0.286-0.08,0.429c-0.068,0.335-0.147,0.665-0.236,0.992
		c-0.028,0.103-0.052,0.207-0.081,0.308c-0.128,0.436-0.271,0.865-0.434,1.284c-0.004,0.01-0.008,0.019-0.012,0.028
		c-0.159,0.405-0.336,0.801-0.527,1.189c-0.043,0.088-0.089,0.173-0.133,0.26c-0.164,0.319-0.337,0.632-0.521,0.938
		c-0.049,0.082-0.098,0.165-0.149,0.246c-0.219,0.35-0.45,0.693-0.695,1.024c-0.015,0.02-0.028,0.04-0.042,0.06
		c-0.279,0.374-0.574,0.736-0.885,1.084c-1.46,1.636-3.25,2.973-5.268,3.9v1.912c8.114,0.573,16.583,0.785,22.306,0.308
		c0.779-0.065-0.846-2.244-0.167-2.335c0.624-0.084,2.076,1.922,2.603,1.815c1.825-0.371,3.036-0.888,3.397-1.575
		C57.542,49.659,45.832,32.176,41.312,15.23z"/>
</g>
<g id="Layer_1">
</g>
</svg>
