<?xml version="1.0" encoding="utf-8"?>
<!-- Generator: Adobe Illustrator 18.0.0, SVG Export Plug-In . SVG Version: 6.00 Build 0)  -->
<!DOCTYPE svg PUBLIC "-//W3C//DTD SVG 1.1 Tiny//EN" "http://www.w3.org/Graphics/SVG/1.1/DTD/svg11-tiny.dtd">
<svg version="1.1" baseProfile="tiny" id="Layer_1" xmlns="http://www.w3.org/2000/svg" xmlns:xlink="http://www.w3.org/1999/xlink"
	 x="0px" y="0px" width="511.9px" height="511.9px" viewBox="0 0 511.9 511.9" xml:space="preserve">
<path fill="#FFFFFF" d="M355.7,264.7c-11.4,2.3-22.6,5.9-33.4,10.9c-15.4,7.2-29.1,16.8-40.8,28.4c-30-11.3-53.9-33.4-67.5-62.5
	c-8-17.1-11.8-35.4-11.4-53.7c-7.6-0.8-15.3-2.4-22.9-4.7c-1.1,23.2,3.4,46.5,13.5,68.2c15,32.1,40.6,57.1,72.7,71.3
	c-4.9,6.8-9.1,14-12.8,21.7l1,0.5c1.8,0.8,3.6,1.6,5.4,2.4c4.9,2.1,9.8,4.3,14.7,6.4c12.2-25,32.4-45,58-56.9
	c13.6-6.4,28-10.1,42.6-11.1C367.6,277.9,361.3,271.1,355.7,264.7z"/>
</svg>
