<?xml version="1.0" encoding="utf-8"?>
<!-- Generator: Adobe Illustrator 18.1.0, SVG Export Plug-In . SVG Version: 6.00 Build 0)  -->
<!DOCTYPE svg PUBLIC "-//W3C//DTD SVG 1.0//EN" "http://www.w3.org/TR/2001/REC-SVG-20010904/DTD/svg10.dtd">
<svg version="1.0" id="Layer_1" xmlns="http://www.w3.org/2000/svg" xmlns:xlink="http://www.w3.org/1999/xlink" x="0px" y="0px"
	 width="72px" height="72px" viewBox="0 0 72 72" enable-background="new 0 0 72 72" xml:space="preserve">
<path fill="#E2AF8D" d="M29.7,21.3l0.1-0.5C29.8,13.2,23.6,7,16,7C8.4,7,2.3,13.2,2.3,20.8l0.1,0.5c0,0,0,0,0,0
	C1,21.5,0,22.7,0,24.1C0,25.7,1.3,27,2.9,27c0,0,0.1,0,0.1,0L3.1,28c0,7.1,5.8,12.9,12.9,12.9c7.1,0,12.9-5.8,12.9-12.9l0.1-1.1
	c0.1,0,0.1,0,0.2,0c1.6,0,2.9-1.3,2.9-2.9C32.1,22.7,31.1,21.5,29.7,21.3z"/>
</svg>
