<?xml version="1.0" encoding="iso-8859-1"?>
<!-- Generator: Adobe Illustrator 19.1.0, SVG Export Plug-In . SVG Version: 6.00 Build 0)  -->
<!DOCTYPE svg PUBLIC "-//W3C//DTD SVG 1.1//EN" "http://www.w3.org/Graphics/SVG/1.1/DTD/svg11.dtd">
<svg version="1.1" xmlns="http://www.w3.org/2000/svg" xmlns:xlink="http://www.w3.org/1999/xlink" x="0px" y="0px"
	 viewBox="0 0 511.92 513.326" enable-background="new 0 0 511.92 513.326" xml:space="preserve">
<g id="Layer_2">
	<path fill="#597B91" d="M316.671,495.106c0,0-1.41,1.13-3.525,2.825c-2.373,1.788-4.286,5.047-6.453,6.858
		c-3.595,3.195-6.244,5.039-6.244,5.039c-6.106,4.252-14.797,1.988-19.412-5.058c-3.507-5.354-3.651-11.928-0.837-16.642
		c0,0,9.014-15.517,10.816-17.299c1.874-1.99,3.124-3.317,3.124-3.317c6.061-6.436,16.368-5.797,23.021,1.428
		c6.653,7.225,7.133,18.299,1.071,24.736c-0.442,0.47-0.907,0.902-1.391,1.296L316.671,495.106z M365.66,495.106
		c0,0,1.41,1.13,3.525,2.825c2.373,1.788,4.286,5.047,6.453,6.858c3.595,3.195,6.244,5.039,6.244,5.039
		c6.106,4.252,14.797,1.988,19.412-5.058c3.507-5.354,3.651-11.928,0.837-16.642c0,0-9.014-15.517-10.816-17.299
		c-1.874-1.99-3.124-3.317-3.124-3.317c-6.061-6.436-16.368-5.797-23.021,1.428c-6.653,7.225-7.133,18.299-1.071,24.736
		c0.442,0.47,0.907,0.902,1.391,1.296L365.66,495.106z"/>
</g>
<g id="Layer_1">
</g>
</svg>
