<?xml version="1.0" encoding="utf-8"?>
<!-- Generator: Adobe Illustrator 18.1.0, SVG Export Plug-In . SVG Version: 6.00 Build 0)  -->
<!DOCTYPE svg PUBLIC "-//W3C//DTD SVG 1.0//EN" "http://www.w3.org/TR/2001/REC-SVG-20010904/DTD/svg10.dtd">
<svg version="1.0" id="Layer_1" xmlns="http://www.w3.org/2000/svg" xmlns:xlink="http://www.w3.org/1999/xlink" x="0px" y="0px"
	 width="72px" height="72px" viewBox="0 0 72 72" enable-background="new 0 0 72 72" xml:space="preserve">
<path fill="#C49270" d="M47.9,37.8c-2,2-5.1,8.2-5.1,8.2l5.1,1.4"/>
<path fill="#C49270" d="M30.8,18.7C27.6,19.9,13.6,37,13.6,37l4.4,2.8"/>
<path fill="#E5AB83" d="M70.6,53.6c0,0-0.3,0.1-0.8,0.1c-0.6,0.1-1.4,0.2-2.5,0.4c-1,0.2-2.3,0.3-3.7,0.4c-1.4,0.2-1,0.2-2.8,0.4
	C59,54.9,57,55,55,55c-2-0.1-4.2,0-6.4-0.2c-2.3-0.2-4.4-0.2-7.2-0.9c-2.5-0.7-4.9-1.8-7.1-3.2c-4.2-2.7-7.5-5.8-11-8
	c-3.4-2.2-6.9-3.6-10.1-4.4C10,37.4,7.3,37.1,5.3,37c-1.9-0.1-3.1-0.2-3.1-0.2c-1.2,0-1.7,0.3-1.4-1.1c0.6-2.4,0.5-2.6,1.4-3.1
	c0.8-0.5,8.5-0.7,12.3-0.3c3.8,0.5,8.2,1.8,12.5,4c2.1,1.1,4.3,2.3,6.2,3.6c1.9,1.3,3.7,2.5,5.4,3.4c1.7,0.9,3.3,1.5,4.9,1.8
	c1,0.2,3.7,0.3,5.6,0.5c2,0.2,4,0.1,5.9,0.2c1.9,0,3.6-0.1,5.3-0.2c11.6,0,12.3,2.5,11.5,4.6C71.3,51.2,71.5,53.4,70.6,53.6z"/>
<path fill="#A57656" d="M72,49c-0.3,1.5-7.3,2.7-10.5,2.7c-1.5,0-3.4,0-5.6,0l2.5-9.7c0.4-1.5-0.5-3-2-3.4L50.5,37
	c-1.5-0.4-3,0.5-3.4,2l-3,11.7c0,0.1,0,0.1,0,0.2L44,51c-2-0.6-4-1.3-6-2.4c-3.5-1.8-7-4.2-10.9-6.4l12.1-15.8
	c0.9-1.2,0.7-3-0.5-3.9l-4.8-3.7c-1.2-0.9-3-0.7-3.9,0.5l-4.2,5.5L8.5,14.9c-1.3-0.8-3-0.3-3.8,1l-1.6,2.7c-0.8,1.3-0.3,3,1,3.8
	l16.3,9.3l-4.2,5.4c-1.2-0.4-2.3-0.8-3.4-1.2c-3.6-1.1-6.6-1.6-9.2-1.9c-2.5-0.4-1.5-1.4-1.5-1.4C-0.4,34-1.4,52.4,3.4,53
	c4.8,0.6,30.8,3.6,43,3.6c18.5,0,23.2-1.1,24.6-2.3C72.2,53.3,72,49,72,49z"/>
<path fill="#FFB636" d="M18.6,19.2C18.6,19.2,18.6,19.2,18.6,19.2L16,17.8c-0.7-0.4-1.4-0.6-2.1-0.6h0c-1.6,0-3.1,0.9-3.8,2.2
	L8.6,22c-1.2,2.1-0.5,4.8,1.6,6c0,0,0.1,0,0.1,0l2.6,1.3c0.7,0.4,1.4,0.6,2.1,0.6c1.6,0,3.1-0.9,3.8-2.2l1.4-2.5
	C21.5,23.1,20.7,20.4,18.6,19.2z M18.7,24.3l-0.6,1c0,0,0,0,0,0l-2.6-1.4c-0.4-0.2-0.8-0.1-1,0.3c-0.2,0.4-0.1,0.8,0.3,1l2.6,1.4
	c0,0,0,0,0,0l-0.2,0.3c-0.5,0.8-1.3,1.3-2.2,1.3c-0.4,0-0.9-0.1-1.3-0.3l-2.6-1.3c-1.2-0.7-1.7-2.3-1-3.5l1.4-2.5
	c0.5-0.8,1.3-1.3,2.2-1.3c0.4,0,0.9,0.1,1.3,0.3l2.6,1.3C19,21.5,19.4,23.1,18.7,24.3z"/>
</svg>
