<?xml version="1.0" encoding="utf-8"?>
<!-- Generator: Adobe Illustrator 18.1.0, SVG Export Plug-In . SVG Version: 6.00 Build 0)  -->
<!DOCTYPE svg PUBLIC "-//W3C//DTD SVG 1.0//EN" "http://www.w3.org/TR/2001/REC-SVG-20010904/DTD/svg10.dtd">
<svg version="1.0" id="Layer_1" xmlns="http://www.w3.org/2000/svg" xmlns:xlink="http://www.w3.org/1999/xlink" x="0px" y="0px"
	 width="72px" height="72px" viewBox="0 0 72 72" enable-background="new 0 0 72 72" xml:space="preserve">
<path fill="#2B3B47" d="M46.6,69.4c0,0-0.2,0.2-0.5,0.4c-0.3,0.3-0.6,0.7-0.9,1c-0.5,0.5-0.9,0.7-0.9,0.7c-0.9,0.6-2.1,0.3-2.8-0.7
	c-0.5-0.8-0.5-1.7-0.1-2.4c0,0,1.3-2.2,1.6-2.5c0.3-0.3,0.4-0.5,0.4-0.5c0.9-0.9,2.4-0.8,3.3,0.2c1,1,1,2.6,0.2,3.6
	C46.8,69.2,46.7,69.3,46.6,69.4L46.6,69.4z M53.6,69.4c0,0,0.2,0.2,0.5,0.4c0.3,0.3,0.6,0.7,0.9,1c0.5,0.5,0.9,0.7,0.9,0.7
	c0.9,0.6,2.1,0.3,2.8-0.7c0.5-0.8,0.5-1.7,0.1-2.4c0,0-1.3-2.2-1.6-2.5c-0.3-0.3-0.4-0.5-0.4-0.5c-0.9-0.9-2.4-0.8-3.3,0.2
	c-1,1-1,2.6-0.2,3.6C53.5,69.2,53.5,69.3,53.6,69.4L53.6,69.4z M30.9,42.5H14.4L15,65.9l0,0v0c0,1.3,1.1,2.4,2.4,2.4
	s2.4-1.1,2.4-2.4v0l0,0l0.6-13c0-1.2,1-2.2,2.2-2.2c1.2,0,2.2,1,2.2,2.2l0.6,13l0,0v0c0,1.3,1.1,2.4,2.4,2.4s2.4-1.1,2.4-2.4v0l0,0
	L30.9,42.5z"/>
</svg>
