<?xml version="1.0" encoding="utf-8"?>
<!-- Generator: Adobe Illustrator 18.0.0, SVG Export Plug-In . SVG Version: 6.00 Build 0)  -->
<!DOCTYPE svg PUBLIC "-//W3C//DTD SVG 1.1 Tiny//EN" "http://www.w3.org/Graphics/SVG/1.1/DTD/svg11-tiny.dtd">
<svg version="1.1" baseProfile="tiny" id="Layer_1" xmlns="http://www.w3.org/2000/svg" xmlns:xlink="http://www.w3.org/1999/xlink"
	 x="0px" y="0px" width="511.9px" height="511.9px" viewBox="0 0 511.9 511.9" xml:space="preserve">
<path fill="#FFE0CF" d="M208.5,395.3c-3.6,0-7.3-1.1-10.4-3.5c-12.7-9.8-19.4-26.5-19.4-38c0-9.4,7.6-17.1,17.1-17.1
	c9.4,0,17,7.6,17.1,16.9c0.2,2.1,2.4,8.2,6,11c7.5,5.7,8.9,16.5,3.2,23.9C218.7,393,213.7,395.3,208.5,395.3z"/>
<path fill="#FFE0CF" d="M208.5,269.8c-9.4,0-17.1-7.6-17.1-17.1V140.6c0-9.4,7.6-17.1,17.1-17.1s17.1,7.6,17.1,17.1v112.1
	C225.6,262.1,218,269.8,208.5,269.8z"/>
</svg>
