<?xml version="1.0" encoding="utf-8"?>
<!-- Generator: Adobe Illustrator 18.1.0, SVG Export Plug-In . SVG Version: 6.00 Build 0)  -->
<!DOCTYPE svg PUBLIC "-//W3C//DTD SVG 1.0//EN" "http://www.w3.org/TR/2001/REC-SVG-20010904/DTD/svg10.dtd">
<svg version="1.0" id="Layer_1" xmlns="http://www.w3.org/2000/svg" xmlns:xlink="http://www.w3.org/1999/xlink" x="0px" y="0px"
	 width="72px" height="72px" viewBox="0 0 72 72" enable-background="new 0 0 72 72" xml:space="preserve">
<path fill="#FF473E" d="M50.7,30c-3.6-4.2-9.9-4.4-13.8-0.6c0,0,0,0,0,0c-0.5,0.5-1.4,0.5-1.9,0c0,0,0,0,0,0
	c-3.7-3.7-9.6-3.7-13.2,0c-3.1,3.1-3.6,8.1-1.2,11.8c0.8,1.2,1.7,2,2.7,2.7l12,9.7c0.4,0.3,1,0.3,1.5,0l12-9.8
	c1-0.7,1.9-1.5,2.6-2.6C53.7,37.8,53.4,33.2,50.7,30z"/>
</svg>
