<?xml version="1.0" encoding="utf-8"?>
<!-- Generator: Adobe Illustrator 18.1.0, SVG Export Plug-In . SVG Version: 6.00 Build 0)  -->
<!DOCTYPE svg PUBLIC "-//W3C//DTD SVG 1.0//EN" "http://www.w3.org/TR/2001/REC-SVG-20010904/DTD/svg10.dtd">
<svg version="1.0" id="Layer_1" xmlns="http://www.w3.org/2000/svg" xmlns:xlink="http://www.w3.org/1999/xlink" x="0px" y="0px"
	 width="72px" height="72px" viewBox="0 0 72 72" enable-background="new 0 0 72 72" xml:space="preserve">
<path fill="#68442A" d="M24.8,0.9C24.4,0.7,25.4,0.1,25,0c-0.4-0.1-2.3,0.1-2.7,0.1C21.8,0,21.4,0,20.9,0C15.4,0,13,4.2,13,7.3v3.9
	c1.1,0,1.7-0.8,2.1-3.2c0.7-4.6,6.4-2.5,6.4-2.5l0,0c1.1,0.5,2.5,1.1,3.1,1.2c0.5,0.1-1.5-1.5-0.9-1.4c1.4,0.4,2.7,1.5,3.2,2.9
	c0.7,1.8,0.8,2.7,1.9,2.7V7.3C28.8,5.1,27.5,2.3,24.8,0.9z"/>
</svg>
