<?xml version="1.0" encoding="utf-8"?>
<!-- Generator: Adobe Illustrator 18.1.0, SVG Export Plug-In . SVG Version: 6.00 Build 0)  -->
<!DOCTYPE svg PUBLIC "-//W3C//DTD SVG 1.0//EN" "http://www.w3.org/TR/2001/REC-SVG-20010904/DTD/svg10.dtd">
<svg version="1.0" id="Layer_1" xmlns="http://www.w3.org/2000/svg" xmlns:xlink="http://www.w3.org/1999/xlink" x="0px" y="0px"
	 width="72px" height="72px" viewBox="0 0 72 72" enable-background="new 0 0 72 72" xml:space="preserve">
<path fill="#BFBCAF" d="M9.7,31.1c0.4,3.8,1.1,10.2-1.9,7.7c-3.2-2.6-5.1-6.6-5.5-10.9c-0.1-0.6-0.1-1.1-0.1-1.7
	c0-6.9,4.2-12.9,10.1-15.6c-2,3.3-3.2,7.3-3.2,12.1l0.4,6.4h0c0,0,0,0,0,0L9.7,31.1z M70.4,26.2c0-7.2-4.5-13.3-10.8-15.8
	c2.4,3.3,3.8,7.4,3.8,12.3l-0.9,13.4c0,0,0.1,0,0.1,0c0,2.5,0.4,4.2,2.2,2.7c3.1-2.6,5.1-6.6,5.5-10.9
	C70.3,27.3,70.4,26.8,70.4,26.2z"/>
</svg>
