<?xml version="1.0" encoding="utf-8"?>
<!-- Generator: Adobe Illustrator 18.1.0, SVG Export Plug-In . SVG Version: 6.00 Build 0)  -->
<!DOCTYPE svg PUBLIC "-//W3C//DTD SVG 1.0//EN" "http://www.w3.org/TR/2001/REC-SVG-20010904/DTD/svg10.dtd">
<svg version="1.0" id="Layer_1" xmlns="http://www.w3.org/2000/svg" xmlns:xlink="http://www.w3.org/1999/xlink" x="0px" y="0px"
	 width="72px" height="72px" viewBox="0 0 72 72" enable-background="new 0 0 72 72" xml:space="preserve">
<path fill="#2B3B47" d="M40.2,65.6c0,0-0.2,0.1-0.5,0.3c-0.3,0.2-1.7,1.6-2,1.8c-0.5,0.3-0.8,0.5-0.8,0.5c-0.8,0.4-1.8,0-2.2-0.9
	c-0.3-0.7-0.2-1.5,0.2-2c0,0,2.4-2.8,2.7-3C37.8,62.1,38,62,38,62c0.8-0.7,2-0.4,2.7,0.6c0.7,1,0.5,2.3-0.3,3
	C40.3,65.5,40.3,65.6,40.2,65.6L40.2,65.6z M63.1,69c0,0-0.1-0.2-0.1-0.5c-0.1-0.3,0-1.4-0.1-1.7c-0.1-0.6-0.2-0.9-0.2-0.9
	c-0.3-0.8-1.3-1.3-2.2-0.9c-0.7,0.3-1.2,0.9-1.3,1.5c0,0-0.2,2.7-0.2,3C59,69.8,59,70,59,70c0.1,1.1,1.2,1.7,2.3,1.5
	c1.2-0.2,2-1.2,1.9-2.3C63.2,69.2,63.2,69.1,63.1,69L63.1,69z M8.4,65.6c0.1,0,0.1-0.1,0.2-0.1c0.8-0.7,1-2,0.3-3
	c-0.7-1-1.9-1.2-2.7-0.6c0,0-0.2,0.1-0.4,0.3c-0.2,0.2-2.7,3-2.7,3c-0.4,0.5-0.5,1.3-0.2,2c0.4,0.9,1.4,1.3,2.2,0.9
	c0,0,0.3-0.2,0.8-0.5c0.3-0.2,1.7-1.6,2-1.8C8.1,65.7,8.3,65.6,8.4,65.6L8.4,65.6z M31.3,69c0,0-0.1-0.2-0.1-0.5
	c-0.1-0.3,0-1.4-0.1-1.7c-0.1-0.6-0.2-0.9-0.2-0.9c-0.3-0.8-1.3-1.3-2.2-0.9c-0.7,0.3-1.2,0.9-1.3,1.5c0,0-0.2,2.7-0.2,3
	c0,0.3,0.1,0.5,0.1,0.5c0.1,1.1,1.2,1.7,2.3,1.5c1.2-0.2,2-1.2,1.9-2.3C31.3,69.2,31.3,69.1,31.3,69L31.3,69z"/>
<path fill="#2B3B47" d="M61.5,12.2c0.4,0.8,0.6,1.7,0.5,2.6c-0.1-0.9-0.5-1.6-1-2.3c-0.5-0.7-1-1.3-1.6-1.9
	c-0.2-0.2-0.4-0.3-0.7-0.5c-0.4-0.1-0.7-0.3-1-0.6c-0.1,0-0.2-0.1-0.4-0.1C57,9.2,56.5,9.1,56.1,9L56,9l0,0l0,0l-0.1,0l-0.3,0
	l-0.6,0l0,0l-0.6,0c-0.2,0-0.4,0-0.6,0.1c-0.4,0.1-0.8,0.2-1.2,0.3c0,0-0.1,0-0.1,0c-0.3,0.4-0.8,0.6-1.3,0.7
	c-0.2,0.1-0.4,0.3-0.6,0.5c-0.6,0.5-1.2,1.2-1.6,1.9c-0.5,0.7-0.8,1.5-1,2.3c-0.1-0.9,0.2-1.8,0.5-2.6c0.4-0.8,0.9-1.6,1.5-2.2
	c0,0,0,0,0.1,0c0,0,0,0-0.1,0c-0.2-0.1-0.3-0.2-0.4-0.3c0,0-0.6-0.5-1-1.3c-0.5-0.8-0.8-1.9-0.9-3.1c-0.1-1.2,0.1-2.4,0.5-3.4
	c0.3-1,0.9-1.7,0.9-1.7s0.8,0.4,1.5,1.1c0.8,0.7,1.5,1.7,2,2.8c0.5,1.1,0.7,2.2,0.6,3.1c0,0.4-0.1,0.7-0.1,1
	c0.2-0.1,0.3-0.1,0.5-0.2C53.8,8,54.1,8,54.3,8l0.2,0V7.9l0.5,0l0.7,0L56,8l0.1,0l0.1,0l0.1,0l0.2,0c0.2,0.1,0.5,0.1,0.7,0.2
	c-0.1-0.3-0.1-0.6-0.2-1c-0.1-0.9,0.1-2.1,0.6-3.1C58,3,58.7,2,59.5,1.3c0.7-0.7,1.5-1.1,1.5-1.1s0.5,0.7,0.9,1.7
	c0.4,1,0.6,2.2,0.5,3.4c-0.1,1.2-0.4,2.3-0.9,3.1c-0.5,0.8-1,1.3-1,1.3c-0.2,0.1-0.4,0.3-0.6,0.3c0,0,0,0,0,0
	C60.6,10.6,61.1,11.4,61.5,12.2z M28.1,10C28.1,10,28.1,10,28.1,10c0.2-0.1,0.4-0.2,0.6-0.3c0,0,0.6-0.5,1-1.3
	c0.5-0.8,0.8-1.9,0.9-3.1c0.1-1.2-0.1-2.4-0.5-3.4c-0.3-1-0.9-1.7-0.9-1.7s-0.8,0.4-1.5,1.1c-0.8,0.7-1.5,1.7-2,2.8
	C25.2,5.2,25,6.3,25,7.3c0,0.4,0.1,0.7,0.2,1c-0.2-0.1-0.4-0.1-0.7-0.2l-0.2,0l-0.1,0l-0.1,0l-0.1,0l-0.3,0l-0.7,0l-0.5,0V8l-0.2,0
	c-0.2,0-0.4,0-0.7,0.1c-0.2,0-0.3,0.1-0.5,0.2c0.1-0.3,0.1-0.6,0.1-1c0.1-0.9-0.1-2.1-0.6-3.1c-0.5-1.1-1.2-2.1-2-2.8
	c-0.7-0.7-1.5-1.1-1.5-1.1s-0.5,0.7-0.9,1.7c-0.4,1-0.6,2.2-0.5,3.4c0.1,1.2,0.4,2.3,0.9,3.1c0.5,0.8,1,1.3,1,1.3
	c0.1,0.1,0.3,0.2,0.4,0.3c0,0,0,0,0.1,0c0,0,0,0-0.1,0c-0.6,0.7-1.1,1.4-1.5,2.2c-0.4,0.8-0.6,1.7-0.5,2.6c0.1-0.9,0.5-1.6,1-2.3
	c0.5-0.7,1-1.3,1.6-1.9c0.2-0.2,0.4-0.3,0.6-0.5c0.5-0.1,1-0.3,1.3-0.7c0,0,0.1,0,0.1,0c0.4-0.1,0.8-0.2,1.2-0.3
	c0.2,0,0.4,0,0.6-0.1l0.6,0l0,0l0.6,0L24,9l0.1,0l0,0l0,0l0.1,0c0.4,0.1,0.8,0.2,1.2,0.3c0.1,0,0.2,0.1,0.4,0.1
	c0.3,0.3,0.6,0.5,1,0.6c0.2,0.2,0.5,0.3,0.7,0.5c0.6,0.5,1.2,1.2,1.6,1.9c0.5,0.7,0.8,1.5,1,2.3c0.1-0.9-0.2-1.8-0.5-2.6
	C29.2,11.4,28.7,10.6,28.1,10z"/>
<path fill="#FF6E83" d="M50.3,9.5c0,0-0.1-0.1-0.2-0.2C50,9.1,49.8,9,49.7,8.7c-0.3-0.5-0.5-1.1-0.6-1.8c-0.1-0.7,0-1.5,0.2-2.1
	c0.2-0.6,0.5-1,0.5-1s0.5,0.2,0.9,0.7c0.5,0.4,0.9,1,1.2,1.7c0.3,0.7,0.4,1.3,0.4,1.9c0,0.3-0.1,0.5-0.1,0.7C52.1,8.9,52,9,52,9
	c-0.3,0.6-1,0.8-1.5,0.6C50.5,9.5,50.4,9.5,50.3,9.5z M58.2,9.2c0.4,0.5,1.1,0.6,1.6,0.3c0,0,0.1-0.1,0.2-0.2
	c0.1-0.1,0.3-0.3,0.4-0.5c0.3-0.5,0.5-1.1,0.6-1.8c0.1-0.7,0-1.5-0.2-2.1c-0.2-0.6-0.5-1-0.5-1S59.9,4,59.4,4.5
	c-0.5,0.4-0.9,1-1.2,1.7c-0.3,0.7-0.4,1.3-0.4,1.9c0,0.3,0.1,0.5,0.1,0.7C58,8.9,58,9,58,9C58.1,9.1,58.1,9.1,58.2,9.2z M18.7,9.6
	c0.6,0.3,1.3,0,1.5-0.6c0,0,0-0.1,0.1-0.3c0-0.2,0.1-0.4,0.1-0.7c0-0.6-0.1-1.2-0.4-1.9c-0.3-0.7-0.7-1.3-1.2-1.7
	c-0.4-0.4-0.9-0.7-0.9-0.7s-0.3,0.4-0.5,1c-0.2,0.6-0.3,1.3-0.2,2.1c0.1,0.7,0.3,1.4,0.6,1.8C18,9,18.1,9.1,18.3,9.3
	c0.1,0.1,0.2,0.2,0.2,0.2C18.5,9.5,18.6,9.5,18.7,9.6z M26.3,9.2c0.4,0.5,1.1,0.6,1.6,0.3c0,0,0.1-0.1,0.2-0.2
	c0.1-0.1,0.3-0.3,0.4-0.5c0.3-0.5,0.5-1.1,0.6-1.8c0.1-0.7,0-1.5-0.2-2.1c-0.2-0.6-0.5-1-0.5-1S28,4,27.6,4.5
	c-0.5,0.4-0.9,1-1.2,1.7C26.1,6.8,26,7.5,26,8c0,0.3,0.1,0.5,0.1,0.7c0,0.2,0.1,0.3,0.1,0.3C26.2,9.1,26.2,9.1,26.3,9.2z"/>
<path fill="#EDC0A2" d="M68.6,35.8C68.6,35.8,68.6,35.8,68.6,35.8L64,40.4c-0.1,0.6-0.3,1.2-0.4,1.9c-0.1,0.4-0.1,0.7-0.2,1.1
	c0,0.4-0.1,0.7-0.1,1.1c-0.1,0.6-0.6,1-1.1,0.9c-0.1,0-0.2,0-0.2-0.1c0,0.6,0,1.5,0.1,2.4c0.3,3.6-1.2,4.8-0.4,7.1
	c1.8,5.4,0.6,11.6,0.6,11.6c0,0,0,0,0,0c0,0.6-0.4,1-1,1c-0.6,0-1-0.4-1-1l0,0L55.5,49c-0.5,0.5-1.2,1.1-2,2
	c-2.4,2.8-4.2,2.6-5.3,4.7c-2.6,5-8.8,8.6-8.8,8.6l0,0c-0.4,0.2-0.9,0.1-1.3-0.2c-0.5-0.5-0.5-1.2,0-1.6l12.4-19.3l4.6,4.4l-0.9-3.3
	l7-0.2c0-0.3,0.1-0.7,0.1-1c0.1-0.4,0.1-0.8,0.2-1.1c0-0.3,0.1-0.6,0.2-0.8l-0.9,0.1c-0.4,0-0.8-0.3-0.8-0.7c0-0.3,0.2-0.7,0.5-0.8
	l1.9-0.7l2.7-3.8l-2.3-1.6l-1.8-1.2c-0.3-0.2-0.5-0.3-0.8-0.5c-0.1,0-0.2-0.1-0.2-0.1c-1.4,0.4-3.1,0.6-5,0.6
	c-1.6,0-2.9-0.2-3.9-0.4c-0.1,0.1-0.2,0.3-0.2,0.4c-0.2,0.3-0.3,0.6-0.4,0.9c-0.1,0.3-0.3,0.7-0.5,1c-0.2,0.4-0.3,0.8-0.5,1.2
	c-0.4,0.9-0.8,1.8-1.1,2.8c-1.3,3.2-2.4,6.4-2.8,7.4c0,0.2,0,0.3-0.1,0.5c-0.1,0.3-0.4,0.5-0.7,0.5l-2.1,0.4
	c-0.4,0.1-0.8-0.2-0.9-0.6c0,0,0,0,0,0c-0.4,0-0.9,0-1.3,0.1l0,0c-0.5,0.1-1-0.3-1.1-0.9c-0.1-0.5,0.3-1,0.9-1.1l0,0
	c0.7-0.1,1.4-0.1,2.2-0.1c0.4,0,0.7,0,1.1,0.1c0,0,0.1,0,0.1,0c0.3-1.4,0.9-4.3,1.7-7.2c0.2-1,0.5-2,0.8-3c0.1-0.5,0.2-0.9,0.4-1.4
	c0.1-0.5,0.3-0.9,0.4-1.3c0.1-0.4,0.2-0.8,0.4-1.1c0.1-0.3,0.2-0.5,0.3-0.8c0.2-0.4,0.3-0.7,0.3-0.7c0.2-0.5,0.6-0.9,1.1-1.1
	c0.8-0.5,2.1-0.9,3.7-1.1v-1.7c-1.8-0.9-3.1-2.7-3.1-4.8c-0.1,0-0.2,0.1-0.4,0.1c-0.7,0-1.3-0.6-1.3-1.3c0-0.7,0.6-1.3,1.3-1.3
	c0.1,0,0.1,0,0.2,0L49.2,15c0-3.2,2.4-4.9,5.6-4.9c3.2,0,6,1.7,6,4.9l-0.2,2.9c0.1,0,0.1,0,0.2,0c0.7,0,1.3,0.6,1.3,1.3
	c0,0.7-0.6,1.3-1.3,1.3c-0.1,0-0.2,0-0.4-0.1c0,2.1-1.3,3.9-3.1,4.8v1.6c0,0,0,0.1,0,0.2c0.9,0.1,1.8,0.2,2.6,0.4
	c0.5-0.1,1,0,1.4,0.2c0.1,0,0.2,0.1,0.2,0.2c0.3,0.2,0.6,0.4,0.9,0.7c0.3,0.3,0.7,0.5,0.9,0.8l1.7,1.4l3.2,2.9l0.2,0.1
	C69.1,34.3,69.1,35.2,68.6,35.8z M36.6,33.8l-0.2-0.1l-3.2-2.9l-1.7-1.4c-0.3-0.2-0.6-0.5-0.9-0.8c-0.3-0.3-0.6-0.5-0.9-0.7
	c-0.1-0.1-0.2-0.1-0.2-0.2c-0.5-0.3-1-0.3-1.4-0.2c-0.8-0.2-1.6-0.4-2.6-0.4c0-0.1,0-0.1,0-0.2v-1.6c1.8-0.9,3.1-2.7,3.1-4.8
	c0.1,0,0.2,0.1,0.4,0.1c0.7,0,1.3-0.6,1.3-1.3c0-0.7-0.6-1.3-1.3-1.3c-0.1,0-0.1,0-0.2,0L29,15c0-3.2-2.8-4.9-6-4.9
	c-3.2,0-5.6,1.7-5.6,4.9l0.2,2.9c-0.1,0-0.1,0-0.2,0c-0.7,0-1.3,0.6-1.3,1.3c0,0.7,0.6,1.3,1.3,1.3c0.1,0,0.2,0,0.4-0.1
	c0,2.1,1.3,4,3.1,4.8V27c-1.7,0.2-2.9,0.6-3.7,1.1c-0.5,0.2-0.9,0.6-1.1,1.1c0,0-0.1,0.2-0.3,0.7c-0.1,0.2-0.2,0.5-0.3,0.8
	c-0.1,0.3-0.2,0.7-0.4,1.1c-0.1,0.4-0.3,0.8-0.4,1.3c-0.2,0.5-0.3,0.9-0.4,1.4c-0.3,1-0.5,2-0.8,3c-0.7,2.9-1.3,5.8-1.7,7.2
	c0,0-0.1,0-0.1,0c-0.4,0-0.8-0.1-1.1-0.1c-0.7,0-1.4,0.1-2.2,0.1l0,0c-0.5,0.1-0.9,0.6-0.9,1.1c0.1,0.5,0.6,0.9,1.1,0.9l0,0
	c0.4,0,0.9-0.1,1.3-0.1c0,0,0,0,0,0c0.1,0.4,0.5,0.7,0.9,0.6l2.1-0.4c0.3-0.1,0.5-0.2,0.7-0.5c0.1-0.2,0.1-0.3,0.1-0.5
	c0.3-1,1.5-4.2,2.8-7.4c0.4-1,0.8-1.9,1.1-2.8c0.2-0.4,0.4-0.9,0.5-1.2c0.2-0.4,0.3-0.7,0.5-1c0.2-0.3,0.3-0.6,0.4-0.9
	c0.1-0.2,0.2-0.3,0.2-0.4c1.1,0.3,2.4,0.4,3.9,0.4c1.9,0,3.6-0.2,5-0.6c0.1,0,0.2,0.1,0.2,0.1c0.3,0.2,0.5,0.3,0.8,0.5l1.8,1.2
	l2.3,1.6L30.5,39l-1.9,0.7c-0.3,0.1-0.5,0.4-0.5,0.8c0,0.4,0.4,0.7,0.8,0.7l0.9-0.1c-0.1,0.3-0.1,0.6-0.2,0.8
	c-0.1,0.4-0.1,0.8-0.2,1.1c0,0.3-0.1,0.7-0.1,1l-7,0.2l0.9,3.3l-4.6-4.4L6.3,62.4c-0.5,0.5-0.4,1.2,0,1.6c0.3,0.3,0.8,0.4,1.3,0.2
	l0,0c0,0,6.3-3.6,8.8-8.6c1.1-2.1,2.9-1.9,5.3-4.7c0.8-0.9,1.5-1.6,2-2l4.6,17.4l0,0c0,0.6,0.5,1,1,1c0.6,0,1-0.5,1-1c0,0,0,0,0,0
	c0,0,1.2-6.2-0.6-11.6c-0.7-2.3,0.7-3.4,0.4-7.1c-0.1-0.9-0.1-1.8-0.1-2.4c0.1,0,0.1,0.1,0.2,0.1c0.6,0.1,1.1-0.4,1.1-0.9
	c0-0.4,0.1-0.7,0.1-1.1c0-0.4,0.1-0.7,0.2-1.1c0.1-0.6,0.2-1.2,0.4-1.9l4.5-4.5c0,0,0,0,0.1-0.1C37.3,35.2,37.2,34.3,36.6,33.8z"/>
<path fill="#2B3B47" d="M61.8,44.7c0,0.4-0.1,0.7-0.4,1l-5.8,3.9c-0.3,0.2-0.8,0.2-1.1,0l-5.3-3.2c-0.3-0.2-0.5-0.5-0.5-0.9
	c0-1.2,0.1-4.1,1-5.4c0.2-0.3,0.3-1.4,0.2-1.7c-0.1-1-0.3-2.4-0.8-3.8c-0.3-0.5-0.4-1.1-0.4-1.9c0-0.5,0.2-1,0.5-1.5l1.8-4
	c0.1-0.3,0.4-0.4,0.7-0.2c0.3,0.1,0.4,0.4,0.2,0.7L50.9,30c1.6,0,3.2,1.3,4.2,2.2c1-0.9,2.8-2.2,4.2-2.2l-1.1-2.3
	c-0.1-0.3,0-0.6,0.2-0.7c0.3-0.1,0.6,0,0.7,0.2l1.9,4c0.3,0.5,0.5,1,0.5,1.4c0,0.3,0,0.6-0.1,0.8c0,0.1,0,0.2-0.1,0.3
	c0,0,0,0.1,0,0.1c0,0.2-0.1,0.3-0.2,0.4c-0.5,1.4-0.8,3-0.9,4c0,0.4,0.1,1.5,0.3,1.8C61.3,41.4,61.6,43.6,61.8,44.7z M28.7,40.2
	c-0.2-0.3-0.3-1.4-0.3-1.8c0.1-1.1,0.4-2.6,0.9-4c0.1-0.1,0.1-0.3,0.2-0.4c0,0,0-0.1,0-0.1c0-0.1,0.1-0.2,0.1-0.3
	c0-0.3,0.1-0.5,0.1-0.8c0-0.5-0.2-1-0.5-1.4l-1.9-4c-0.1-0.3-0.4-0.4-0.7-0.2c-0.3,0.1-0.4,0.4-0.2,0.7l1.1,2.3
	c-1.4,0-3.2,1.3-4.2,2.2c-1-0.9-2.6-2.2-4.2-2.2l1.1-2.3c0.1-0.3,0-0.6-0.2-0.7c-0.3-0.1-0.6,0-0.7,0.2l-1.8,4
	c-0.3,0.5-0.5,1-0.5,1.5c0,0.8,0.2,1.4,0.4,1.9c0.4,1.4,0.7,2.8,0.8,3.8c0,0.3,0,1.4-0.2,1.7c-0.9,1.3-1,4.2-1,5.4
	c0,0.4,0.2,0.7,0.5,0.9l5.3,3.2c0.3,0.2,0.8,0.2,1.1,0l5.8-3.9c0.3-0.2,0.5-0.6,0.4-1C29.8,43.6,29.4,41.4,28.7,40.2z"/>
<path fill="#CE8E63" d="M60.5,20.1l0,0.3c0,3-2.4,5.4-5.4,5.4c-1.5,0-2.9-0.6-3.8-1.6c1,0.6,2.1,1,3.4,1
	C57.6,25.2,60.1,23,60.5,20.1z M22.7,25.2c-1.2,0-2.4-0.4-3.4-1c1,1,2.3,1.6,3.8,1.6c3,0,5.4-2.4,5.4-5.4l0-0.3
	C28.2,23,25.7,25.2,22.7,25.2z"/>
<path fill="#CE8E63" d="M55.1,21C55,21,55,21,55.1,21c-0.4,0-0.8-0.2-1-0.5c-0.1-0.1,0-0.3,0.1-0.3c0.1-0.1,0.3,0,0.3,0.1
	c0.1,0.2,0.3,0.3,0.6,0.3c0,0,0,0,0,0c0.2,0,0.5-0.1,0.6-0.3c0.1-0.1,0.2-0.1,0.3-0.1c0.1,0.1,0.1,0.2,0.1,0.3
	C55.8,20.8,55.5,21,55.1,21z M57.7,15.6c-0.1,0.1-0.1,0.2-0.1,0.3c0.1,0.1,0.2,0.1,0.3,0.1c0,0,0,0,0.1,0c0,0,0.1-0.1,0.2-0.1
	c0.1-0.1,0.3-0.1,0.5-0.1c0.1,0,0.2,0,0.3,0c0.1,0,0.1,0.1,0.2,0.1c0.1,0,0.1,0.1,0.1,0.1c0,0,0,0,0,0l0,0c0,0,0.1,0.1,0.2,0
	c0.1,0,0.1-0.1,0-0.2c0,0,0,0-0.1-0.1c0,0-0.1-0.1-0.1-0.2c-0.1-0.1-0.2-0.1-0.3-0.2c-0.1-0.1-0.2-0.1-0.4-0.1c-0.3,0-0.5,0-0.7,0.1
	C57.9,15.5,57.8,15.5,57.7,15.6C57.8,15.6,57.7,15.6,57.7,15.6C57.7,15.6,57.7,15.6,57.7,15.6z M52.2,16c0.1,0.1,0.3,0,0.3-0.1
	s0-0.3-0.1-0.3c0,0,0,0-0.1,0c0,0-0.1-0.1-0.2-0.1c-0.2-0.1-0.5-0.1-0.7-0.1c-0.1,0-0.3,0.1-0.4,0.1c-0.1,0-0.2,0.1-0.3,0.2
	c-0.1,0.1-0.1,0.1-0.1,0.2c0,0-0.1,0.1-0.1,0.1c0,0.1,0,0.1,0,0.2c0.1,0,0.1,0,0.2,0l0,0c0,0,0,0,0,0c0,0,0.1-0.1,0.1-0.1
	c0.1,0,0.1-0.1,0.2-0.1c0.1,0,0.2,0,0.3,0c0.2,0,0.4,0,0.5,0.1C52,15.9,52,15.9,52.2,16C52.1,16,52.1,16,52.2,16
	C52.1,16,52.1,16,52.2,16z M24.2,20.5c0.1-0.1,0-0.3-0.1-0.3c-0.1-0.1-0.3,0-0.3,0.1c-0.1,0.2-0.3,0.3-0.6,0.3c0,0,0,0,0,0
	c-0.2,0-0.5-0.1-0.6-0.3c-0.1-0.1-0.2-0.1-0.3-0.1c-0.1,0.1-0.1,0.2-0.1,0.3c0.2,0.3,0.6,0.5,1,0.5c0,0,0,0,0,0
	C23.6,21,24,20.8,24.2,20.5z M25.8,15.6c-0.1,0.1-0.1,0.2-0.1,0.3c0.1,0.1,0.2,0.1,0.3,0.1c0,0,0,0,0.1,0c0,0,0.1-0.1,0.2-0.1
	c0.1-0.1,0.3-0.1,0.5-0.1c0.1,0,0.2,0,0.3,0c0.1,0,0.1,0.1,0.2,0.1c0.1,0,0.1,0.1,0.1,0.1c0,0,0,0,0,0l0,0c0,0,0.1,0.1,0.2,0
	c0.1,0,0.1-0.1,0-0.2c0,0,0,0-0.1-0.1c0,0-0.1-0.1-0.1-0.2c-0.1-0.1-0.2-0.1-0.3-0.2c-0.1-0.1-0.2-0.1-0.4-0.1c-0.3,0-0.5,0-0.7,0.1
	C26,15.5,26,15.5,25.8,15.6C25.9,15.6,25.9,15.6,25.8,15.6C25.9,15.6,25.8,15.6,25.8,15.6z M20.3,16c0.1,0.1,0.3,0,0.3-0.1
	s0-0.3-0.1-0.3c0,0,0,0-0.1,0c0,0-0.1-0.1-0.2-0.1c-0.2-0.1-0.5-0.1-0.7-0.1c-0.1,0-0.3,0.1-0.4,0.1c-0.1,0-0.2,0.1-0.3,0.2
	c-0.1,0.1-0.1,0.1-0.1,0.2c0,0-0.1,0.1-0.1,0.1c0,0.1,0,0.1,0,0.2c0.1,0,0.1,0,0.2,0l0,0c0,0,0,0,0,0c0,0,0.1-0.1,0.1-0.1
	c0.1,0,0.1-0.1,0.2-0.1c0.1,0,0.2,0,0.3,0c0.2,0,0.4,0,0.5,0.1C20.1,15.9,20.2,15.9,20.3,16C20.2,16,20.3,16,20.3,16
	C20.3,16,20.3,16,20.3,16z"/>
<path fill="#FF473E" d="M57,22.5c0,0-0.6,0.9-1.9,1c-1.3,0-1.9-1-1.9-1s0.2,0,0.6-0.1s0.6-0.3,0.9-0.3c0.2,0,0.4,0.1,0.4,0.1
	c0,0,0.2-0.1,0.4-0.1c0.3,0,0.6,0.2,0.9,0.3C56.8,22.5,57,22.5,57,22.5z M24.6,22.4c-0.3-0.1-0.6-0.3-0.9-0.3
	c-0.2,0-0.3,0.1-0.4,0.1c0,0-0.2-0.1-0.4-0.1c-0.3,0-0.6,0.2-0.9,0.3s-0.6,0.1-0.6,0.1s0.6,0.9,1.9,1c1.3,0,1.9-1,1.9-1
	S24.9,22.5,24.6,22.4z"/>
<path fill="#2B3B47" d="M52.1,17.9v0.9v0c0,0,0,0,0,0c0,0.3-0.3,0.6-0.6,0.6c-0.3,0-0.6-0.3-0.6-0.6c0,0,0,0,0,0h0v-0.9h0
	c0-0.3,0.3-0.6,0.6-0.6C51.8,17.3,52,17.5,52.1,17.9L52.1,17.9z M59.2,17.9c0-0.3-0.3-0.6-0.6-0.6c-0.3,0-0.6,0.2-0.6,0.6h0v0.9h0
	c0,0,0,0,0,0c0,0.3,0.3,0.6,0.6,0.6c0.3,0,0.6-0.3,0.6-0.6c0,0,0,0,0,0v0L59.2,17.9L59.2,17.9z M20.2,17.9c0-0.3-0.3-0.6-0.6-0.6
	c-0.3,0-0.6,0.2-0.6,0.6h0v0.9h0c0,0,0,0,0,0c0,0.3,0.3,0.6,0.6,0.6c0.3,0,0.6-0.3,0.6-0.6c0,0,0,0,0,0v0L20.2,17.9L20.2,17.9z
	 M27.3,17.9c0-0.3-0.3-0.6-0.6-0.6c-0.3,0-0.6,0.2-0.6,0.6h0v0.9h0c0,0,0,0,0,0c0,0.3,0.3,0.6,0.6,0.6c0.3,0,0.6-0.3,0.6-0.6
	c0,0,0,0,0,0v0L27.3,17.9L27.3,17.9z"/>
<path fill="#959DA3" d="M51.4,17.8V18l0,0v0c0,0.1-0.1,0.1-0.1,0.1c-0.1,0-0.1-0.1-0.1-0.1v0h0v-0.2h0c0-0.1,0.1-0.1,0.1-0.1
	C51.3,17.7,51.4,17.8,51.4,17.8L51.4,17.8z M58.5,17.8c0-0.1-0.1-0.1-0.1-0.1c-0.1,0-0.1,0.1-0.1,0.1h0V18h0v0
	c0,0.1,0.1,0.1,0.1,0.1c0.1,0,0.1-0.1,0.1-0.1v0l0,0L58.5,17.8L58.5,17.8z M19.5,17.8c0-0.1-0.1-0.1-0.1-0.1c-0.1,0-0.1,0.1-0.1,0.1
	h0V18h0v0c0,0.1,0.1,0.1,0.1,0.1c0.1,0,0.1-0.1,0.1-0.1v0l0,0L19.5,17.8L19.5,17.8z M26.7,17.8c0-0.1-0.1-0.1-0.1-0.1
	c-0.1,0-0.1,0.1-0.1,0.1h0V18h0v0c0,0.1,0.1,0.1,0.1,0.1c0.1,0,0.1-0.1,0.1-0.1v0l0,0L26.7,17.8L26.7,17.8z"/>
<path fill="#68442A" d="M62,15c0,1.3,0,2.4-0.1,3.4c-0.2-0.3-0.6-0.6-1.1-0.6c-0.1,0-0.1,0-0.2,0l0.1-2.1l-2.3-4.2
	c0,2.5-7.1,3.7-9.2,3.9l0.2,2.4c-0.1,0-0.1,0-0.2,0c-0.5,0-1,0.3-1.2,0.8c-0.1-1-0.1-2.2-0.1-3.6c0-0.2,0-0.3,0-0.4
	c0.1-1.8,1.7-4.4,3.9-5.5c0.3-0.2,1.7-0.6,2.1-0.6c0.3,0,0.7-0.1,1.1-0.1v0c0,0,0,0,0,0c0,0,0.7,0,1.1,0.1c0.3,0,1.7,0.5,2.1,0.6
	c2.2,1.1,3.8,3.7,3.9,5.5C62,14.8,62,14.9,62,15z M60.5,20.5c0,1.4-0.6,2.7-1.5,3.7c1,0,1.7,0,1.7,0s0.7-0.8,1.1-4
	c-0.2,0.2-0.6,0.4-0.9,0.4C60.7,20.5,60.6,20.5,60.5,20.5z M49.2,20.5c-0.5,0-0.9-0.3-1.1-0.6c0.4,3.4,1.1,4.2,1.1,4.2s0.9,0,1.9,0
	c-0.9-1-1.5-2.2-1.5-3.7C49.5,20.5,49.4,20.5,49.2,20.5z M30.1,14.6c-0.1-1.8-1.7-4.4-3.9-5.5c-0.3-0.2-1.7-0.6-2.1-0.6
	c-0.3,0-1.1-0.1-1.1-0.1c0,0,0,0,0,0v0c-0.4,0-0.7,0-1.1,0.1c-0.3,0-1.7,0.5-2.1,0.6c-2.2,1.1-3.8,3.7-3.9,5.5c0,0.1,0,0.2,0,0.4
	c0,1.4,0,2.6,0.1,3.6c0.2-0.5,0.7-0.8,1.2-0.8c0.1,0,0.1,0,0.2,0l-0.2-2.4c2.1-0.3,9.2-1.4,9.2-3.9l2.3,4.2l-0.1,2.1
	c0.1,0,0.1,0,0.2,0c0.5,0,0.8,0.2,1.1,0.6c0.1-1,0.1-2.1,0.1-3.4C30.2,14.9,30.2,14.8,30.1,14.6z M28.6,20.5c0,1.4-0.6,2.7-1.5,3.7
	c1,0,1.7,0,1.7,0s0.7-0.8,1.1-4c-0.2,0.2-0.6,0.4-0.9,0.4C28.9,20.5,28.7,20.5,28.6,20.5z M17.4,20.5c-0.5,0-0.9-0.3-1.1-0.6
	c0.4,3.4,1.1,4.2,1.1,4.2s0.9,0,1.9,0c-0.9-1-1.5-2.2-1.5-3.7C17.6,20.5,17.5,20.5,17.4,20.5z"/>
</svg>
