<?xml version="1.0" encoding="utf-8"?>
<!-- Generator: Adobe Illustrator 18.1.0, SVG Export Plug-In . SVG Version: 6.00 Build 0)  -->
<!DOCTYPE svg PUBLIC "-//W3C//DTD SVG 1.0//EN" "http://www.w3.org/TR/2001/REC-SVG-20010904/DTD/svg10.dtd">
<svg version="1.0" id="Layer_1" xmlns="http://www.w3.org/2000/svg" xmlns:xlink="http://www.w3.org/1999/xlink" x="0px" y="0px"
	 width="72px" height="72px" viewBox="0 0 72 72" enable-background="new 0 0 72 72" xml:space="preserve">
<path fill="#E5AB83" d="M36.9,52C36.9,52,36.8,52,36.9,52c-1.6,0-3.1-0.8-4-2.2c-0.3-0.4-0.1-1,0.3-1.3c0.5-0.3,1-0.1,1.3,0.3
	c0.5,0.8,1.4,1.3,2.4,1.3c0,0,0,0,0,0c1,0,1.9-0.5,2.4-1.3c0.3-0.4,0.9-0.6,1.3-0.3c0.4,0.3,0.6,0.9,0.3,1.3
	C40,51.2,38.5,52,36.9,52z M47.3,32.4c-0.4,0.3-0.5,0.9-0.2,1.3s0.9,0.5,1.3,0.2c0,0,0.1-0.1,0.2-0.2c0.1-0.1,0.1-0.1,0.2-0.2
	c0.1-0.1,0.2-0.1,0.3-0.2c0.5-0.3,1.3-0.5,2-0.4c0.8,0,1.5,0.3,1.9,0.6c0.1,0.1,0.2,0.2,0.3,0.2c0.1,0.1,0.2,0.2,0.2,0.2
	c0.1,0.1,0.2,0.2,0.2,0.2l0,0.1c0.2,0.2,0.5,0.2,0.7,0.1c0.2-0.2,0.3-0.5,0.2-0.7c0,0-0.1-0.1-0.2-0.3c-0.1-0.1-0.1-0.2-0.2-0.3
	c-0.1-0.1-0.2-0.3-0.4-0.4c-0.6-0.6-1.5-1.1-2.6-1.2c-1-0.2-2.1,0-2.8,0.3c-0.2,0.1-0.4,0.1-0.5,0.2c-0.2,0.1-0.3,0.2-0.4,0.2
	c-0.2,0.1-0.3,0.2-0.3,0.2C47.4,32.4,47.3,32.4,47.3,32.4z M24.9,34c0.5,0.3,1.1,0.1,1.3-0.4c0.3-0.5,0.1-1.1-0.4-1.3
	c0,0-0.1-0.1-0.3-0.2c-0.1,0-0.2-0.1-0.4-0.2c-0.2-0.1-0.3-0.1-0.5-0.2c-0.7-0.3-1.8-0.4-2.8-0.3c-1,0.1-2,0.7-2.6,1.2
	c-0.2,0.1-0.3,0.3-0.4,0.4c-0.1,0.1-0.2,0.2-0.2,0.3c-0.1,0.2-0.2,0.3-0.2,0.3c-0.1,0.2-0.1,0.5,0.1,0.7c0.2,0.2,0.5,0.2,0.7-0.1
	l0-0.1c0,0,0.1-0.1,0.2-0.2c0.1-0.1,0.1-0.1,0.2-0.2c0.1-0.1,0.2-0.2,0.3-0.2c0.4-0.3,1.2-0.6,1.9-0.6c0.8,0,1.5,0.2,2,0.4
	c0.1,0.1,0.2,0.1,0.3,0.2c0.1,0.1,0.1,0.1,0.2,0.2c0.2,0.1,0.2,0.2,0.2,0.2C24.8,34,24.9,34,24.9,34z"/>
</svg>
