<?xml version="1.0" encoding="utf-8"?>
<!-- Generator: Adobe Illustrator 18.1.0, SVG Export Plug-In . SVG Version: 6.00 Build 0)  -->
<!DOCTYPE svg PUBLIC "-//W3C//DTD SVG 1.0//EN" "http://www.w3.org/TR/2001/REC-SVG-20010904/DTD/svg10.dtd">
<svg version="1.0" id="Layer_1" xmlns="http://www.w3.org/2000/svg" xmlns:xlink="http://www.w3.org/1999/xlink" x="0px" y="0px"
	 width="72px" height="72px" viewBox="0 0 72 72" enable-background="new 0 0 72 72" xml:space="preserve">
<path fill="#2B3B47" d="M24.2,44.8c-0.1-1.2-1.1-2.1-2.3-2.1c-1.2,0-2.2,0.9-2.3,2.1h0V48h0c0,0,0,0,0,0c0,1.3,1,2.3,2.3,2.3
	s2.3-1,2.3-2.3c0,0,0,0,0,0h0L24.2,44.8L24.2,44.8z"/>
<path fill="#2B3B47" d="M51.5,44.8c-0.1-1.2-1.1-2.1-2.3-2.1c-1.2,0-2.2,0.9-2.3,2.1h0V48h0c0,0,0,0,0,0c0,1.3,1,2.3,2.3,2.3
	c1.3,0,2.3-1,2.3-2.3c0,0,0,0,0,0l0,0L51.5,44.8L51.5,44.8z"/>
</svg>
