<?xml version="1.0" encoding="iso-8859-1"?>
<!-- Generator: Adobe Illustrator 19.1.0, SVG Export Plug-In . SVG Version: 6.00 Build 0)  -->
<!DOCTYPE svg PUBLIC "-//W3C//DTD SVG 1.1//EN" "http://www.w3.org/Graphics/SVG/1.1/DTD/svg11.dtd">
<svg version="1.1" xmlns="http://www.w3.org/2000/svg" xmlns:xlink="http://www.w3.org/1999/xlink" x="0px" y="0px"
	 viewBox="0 0 511.92 513.326" enable-background="new 0 0 511.92 513.326" xml:space="preserve">
<g id="Layer_8">
	<path fill="#E5AB83" d="M341.84,128.793c-0.004,0-0.006,0-0.009,0c-3.48-0.003-6.647-1.732-8.471-4.626
		c-0.626-0.995-0.328-2.309,0.666-2.936c0.995-0.626,2.308-0.328,2.936,0.666c1.04,1.651,2.861,2.637,4.872,2.639
		c0.002,0,0.004,0,0.005,0c2.015,0,3.842-0.987,4.888-2.642c0.628-0.994,1.941-1.29,2.937-0.662
		c0.993,0.628,1.289,1.943,0.661,2.936C348.493,127.065,345.321,128.793,341.84,128.793z M364.448,87.016
		c-0.75,0.55-0.912,1.603-0.362,2.353c0.55,0.75,1.603,0.912,2.353,0.362c0,0,0.19-0.139,0.522-0.382
		c0.185-0.146,0.32-0.205,0.507-0.325c0.165-0.117,0.42-0.235,0.69-0.368c0.263-0.148,0.582-0.238,0.903-0.376
		c0.335-0.095,0.685-0.23,1.063-0.299c0.375-0.091,0.767-0.152,1.17-0.192c0.401-0.04,0.814-0.056,1.222-0.04l0.613,0.035
		l0.597,0.096c0.395,0.066,0.772,0.18,1.132,0.299c0.713,0.256,1.336,0.606,1.816,0.98c0.262,0.163,0.441,0.383,0.63,0.547
		c0.192,0.162,0.329,0.335,0.441,0.478c0.231,0.282,0.364,0.443,0.364,0.443l0.084,0.103c0.29,0.351,0.805,0.436,1.196,0.181
		c0.42-0.274,0.538-0.837,0.264-1.257c0,0-0.143-0.219-0.394-0.603c-0.124-0.194-0.277-0.429-0.498-0.666
		c-0.218-0.238-0.432-0.541-0.744-0.794c-0.578-0.554-1.353-1.106-2.261-1.541c-0.454-0.208-0.94-0.407-1.444-0.549
		c-0.254-0.068-0.51-0.136-0.767-0.204l-0.785-0.131c-0.525-0.076-1.057-0.11-1.578-0.113c-0.522-0.003-1.035,0.024-1.529,0.089
		c-0.497,0.043-0.966,0.16-1.416,0.245c-0.44,0.13-0.869,0.216-1.245,0.371c-0.38,0.139-0.725,0.26-1.057,0.432
		c-0.315,0.153-0.635,0.304-0.784,0.402c-0.355,0.208-0.559,0.326-0.559,0.326C364.546,86.948,364.494,86.982,364.448,87.016z
		 M317.383,89.827c0.803,0.469,1.834,0.199,2.303-0.604c0.469-0.803,0.199-1.834-0.604-2.303c0,0-0.203-0.119-0.559-0.326
		c-0.149-0.097-0.469-0.248-0.784-0.402c-0.331-0.172-0.677-0.293-1.057-0.432c-0.376-0.155-0.805-0.241-1.245-0.371
		c-0.451-0.085-0.919-0.203-1.416-0.245c-0.493-0.065-1.006-0.092-1.529-0.089c-0.521,0.002-1.053,0.037-1.578,0.113l-0.785,0.131
		c-0.257,0.068-0.513,0.136-0.767,0.204c-0.504,0.142-0.99,0.34-1.444,0.549c-0.908,0.435-1.682,0.987-2.261,1.541
		c-0.312,0.253-0.526,0.556-0.744,0.794c-0.221,0.237-0.374,0.472-0.498,0.666c-0.251,0.384-0.394,0.603-0.394,0.603
		c-0.248,0.383-0.176,0.902,0.184,1.198c0.388,0.318,0.96,0.262,1.278-0.126l0.082-0.099c0,0,0.132-0.161,0.364-0.443
		c0.112-0.143,0.248-0.316,0.441-0.478c0.19-0.163,0.368-0.384,0.63-0.547c0.48-0.375,1.103-0.724,1.816-0.98
		c0.359-0.119,0.737-0.233,1.132-0.299l0.597-0.096l0.613-0.035c0.408-0.016,0.821,0,1.222,0.04c0.403,0.04,0.795,0.1,1.17,0.192
		c0.378,0.068,0.728,0.203,1.063,0.299c0.321,0.138,0.641,0.228,0.903,0.376c0.27,0.133,0.525,0.252,0.69,0.368
		c0.187,0.12,0.323,0.179,0.507,0.325c0.332,0.243,0.522,0.382,0.522,0.382C317.282,89.763,317.334,89.798,317.383,89.827z"/>
</g>
<g id="Layer_1">
</g>
</svg>
