<?xml version="1.0" encoding="utf-8"?>
<!-- Generator: Adobe Illustrator 18.0.0, SVG Export Plug-In . SVG Version: 6.00 Build 0)  -->
<!DOCTYPE svg PUBLIC "-//W3C//DTD SVG 1.1 Tiny//EN" "http://www.w3.org/Graphics/SVG/1.1/DTD/svg11-tiny.dtd">
<svg version="1.1" baseProfile="tiny" id="Layer_1" xmlns="http://www.w3.org/2000/svg" xmlns:xlink="http://www.w3.org/1999/xlink"
	 x="0px" y="0px" width="511.9px" height="511.9px" viewBox="0 0 511.9 511.9" xml:space="preserve">
<path fill="#FF7DDA" d="M488.8,26c-28.7-33.4-79-34.5-109.3-3.9c0,0-0.1,0.1-0.1,0.1c-4.2,4.3-10.8,4.3-15.1,0.1
	c0,0-0.1-0.1-0.1-0.1c-29.2-28.8-76.1-28.4-104.9,0.7c-24.5,24.8-28.2,64.4-8.9,93.4c6,9.1,13.5,16.1,21.8,21.4l95.9,76.3
	c3.4,2.7,8.3,2.7,11.7-0.1l94-78.1c7.9-5.3,15-12.3,20.8-21.1C512.4,87.4,510,50.7,488.8,26z"/>
</svg>
