<?xml version="1.0" encoding="utf-8"?>
<!-- Generator: Adobe Illustrator 18.0.0, SVG Export Plug-In . SVG Version: 6.00 Build 0)  -->
<!DOCTYPE svg PUBLIC "-//W3C//DTD SVG 1.1 Tiny//EN" "http://www.w3.org/Graphics/SVG/1.1/DTD/svg11-tiny.dtd">
<svg version="1.1" baseProfile="tiny" id="Layer_1" xmlns="http://www.w3.org/2000/svg" xmlns:xlink="http://www.w3.org/1999/xlink"
	 x="0px" y="0px" width="511.9px" height="511.9px" viewBox="0 0 511.9 511.9" xml:space="preserve">
<path fill="#D8B09A" d="M442.3,391.6l-2.3-2.3l-16.6-16.6c11.1-13.9,15.3-31.4,12.8-48.1c0-0.3-0.1-0.6-0.2-0.9
	c-0.1-0.4-0.1-0.7-0.2-1.1c-0.1-1.3-0.6-3.3-1.4-5.9c-0.4-1.3-0.8-2.5-1.2-3.8c-8.9-26.1-36.5-93.1-31.7-159.1
	c0.1-14.8-9.8-28.2-23.8-27.4c-14,0.8-39.5,8.1-40.9,74.1c-0.2,12.2-1.9,18.1-1.4,28.1L175.7,68.9c-10.4-10.4-26.9-10.6-37.3-0.2
	c-10.4,10.4-10.4,27.3-0.1,37.6l94.5,94.5c0.1,0.1,0.1,0.2,0.2,0.2c8.8,8.8-1.8,21-11.1,15.7L108.8,103.7
	c-10.4-10.4-26.9-10.6-37.3-0.2C61.1,114,61,130.8,71.4,141.2l113.4,113.4c5.5,8.3-5,18.3-13.2,11.6l-99-99
	c-10.4-10.4-26.9-10.6-37.3-0.2c-10.4,10.4-10.5,27.2-0.1,37.6l97.5,97.5c0.1,0.2,0.3,0.5,0.6,0.8c8.5,8.5-1.6,20.2-10.6,15.3
	l-69.8-69.8c-10.4-10.4-26.9-10.6-37.3-0.2c-10.4,10.4-10.5,27.2-0.1,37.6L179.6,450c33.4,33.4,81.7,42.5,123.3,27.5l5.1,5.1
	l21.6,21.6c10.4,10.4,27.2,10.4,37.6,0l75.1-75.1C452.7,418.8,452.7,401.9,442.3,391.6z"/>
</svg>
