<?xml version="1.0" encoding="utf-8"?>
<!-- Generator: Adobe Illustrator 18.1.0, SVG Export Plug-In . SVG Version: 6.00 Build 0)  -->
<!DOCTYPE svg PUBLIC "-//W3C//DTD SVG 1.0//EN" "http://www.w3.org/TR/2001/REC-SVG-20010904/DTD/svg10.dtd">
<svg version="1.0" id="Layer_1" xmlns="http://www.w3.org/2000/svg" xmlns:xlink="http://www.w3.org/1999/xlink" x="0px" y="0px"
	 width="72px" height="72px" viewBox="0 0 72 72" enable-background="new 0 0 72 72" xml:space="preserve">
<path fill="#FFE0CF" d="M58.2,40.9L59,29.3C59,16.4,47.8,9.7,34.9,9.7c-12.9,0-22.7,6.7-22.7,19.6l0.8,11.6
	c-2.8,0.2-5.1,2.5-5.1,5.4c0,3,2.4,5.4,5.4,5.4c0.1,0,0.2,0,0.4,0C14,63.4,23.7,71.9,35.6,71.9c11.9,0,21.5-8.5,21.9-20.2
	c0,0,0.1,0,0.1,0c3,0,5.4-2.4,5.4-5.4C63,43.5,60.9,41.2,58.2,40.9z"/>
</svg>
