<?xml version="1.0" encoding="utf-8"?>
<!-- Generator: Adobe Illustrator 18.0.0, SVG Export Plug-In . SVG Version: 6.00 Build 0)  -->
<!DOCTYPE svg PUBLIC "-//W3C//DTD SVG 1.1 Tiny//EN" "http://www.w3.org/Graphics/SVG/1.1/DTD/svg11-tiny.dtd">
<svg version="1.1" baseProfile="tiny" id="Layer_1" xmlns="http://www.w3.org/2000/svg" xmlns:xlink="http://www.w3.org/1999/xlink"
	 x="0px" y="0px" width="511.9px" height="511.9px" viewBox="0 0 511.9 511.9" xml:space="preserve">
<path fill="#FFB636" d="M171.9,451.6l-69.1,26.4c-3.2,1.2-6.5-1.2-6.4-4.6l3.8-73.9c0.1-1.2-0.3-2.3-1-3.2l-46.5-57.5
	c-2.1-2.6-0.8-6.6,2.4-7.5l71.4-19.2c1.1-0.3,2.1-1,2.7-2l40.3-62c1.9-2.8,6-2.8,7.9,0l40.3,62c0.6,1,1.6,1.7,2.7,2l71.4,19.2
	c3.3,0.9,4.6,4.8,2.4,7.5l-46.5,57.5c-0.7,0.9-1.1,2-1,3.2l3.8,73.9c0.2,3.4-3.2,5.8-6.4,4.6l-69.1-26.4
	C174.2,451.2,173,451.2,171.9,451.6z"/>
</svg>
