<?xml version="1.0" encoding="utf-8"?>
<!-- Generator: Adobe Illustrator 18.0.0, SVG Export Plug-In . SVG Version: 6.00 Build 0)  -->
<!DOCTYPE svg PUBLIC "-//W3C//DTD SVG 1.1 Tiny//EN" "http://www.w3.org/Graphics/SVG/1.1/DTD/svg11-tiny.dtd">
<svg version="1.1" baseProfile="tiny" id="Layer_1" xmlns="http://www.w3.org/2000/svg" xmlns:xlink="http://www.w3.org/1999/xlink"
	 x="0px" y="0px" width="511.9px" height="512.2px" viewBox="0 0 511.9 512.2" xml:space="preserve">
<path fill="#FF473E" d="M320.8,512.2c-4.9,0-9.6-2.4-12.5-6.6l-55.8-81.5l-145.4,86c-5.5,3.2-12.4,2.7-17.3-1.4
	c-4.9-4.1-6.7-10.8-4.6-16.8l53.9-149.4l-92.9-27.4c-6.4-1.9-10.8-7.8-10.8-14.5c0-6.7,4.4-12.6,10.8-14.5l94.9-27.9L89.5,18.5
	C88,11.7,91.4,4.8,97.6,1.8c6.2-3.1,13.7-1.4,18.2,3.9l139.9,166.8l52.6-76.7c3.8-5.5,10.8-7.9,17.1-5.8c6.4,2.1,10.6,8.1,10.4,14.8
	l-2.4,87.9l122.9-60.2c4.5-2.2,9.9-2.5,14.3,0c9,5.2,10.3,16.4,4.2,23.3l-98.1,111.5l94.6,80.1c4.5,3.8,6.4,9.8,4.8,15.5
	c-1.5,5.7-6.2,9.9-12,10.9l-131.1,23.1l2.7,97.6c0.2,0.9,0.2,1.7,0.2,2.6c0,8.3-6.7,15.1-15.1,15.1
	C320.9,512.2,320.8,512.2,320.8,512.2z M120.8,295.7c-5,1.5-5,8.5,0,9.9l42.2,12.4c4,1.2,7.3,4,9.2,7.7c1.9,3.7,2.1,8,0.7,12
	L132.8,449c-1.7,4.6,3.4,8.8,7.6,6.3l108.9-64.4c6.8-4,15.6-2.1,20.2,4.5l28.7,41.9c1.8,2.6,5.9,1.3,5.8-1.9l-1.4-50.8
	c-0.2-7.5,5.1-14,12.5-15.3l96.9-17.1c6.1-1.1,8.1-8.7,3.4-12.7l-70-59.2c-3.1-2.6-5-6.4-5.3-10.4c-0.3-4,1-8,3.7-11.1l49.4-56.1
	c1.9-2.2-0.6-5.5-3.2-4.2l-65.7,32.2c-4.7,2.3-10.4,2-14.8-0.9c-4.5-2.9-7.1-7.8-6.9-13.1l1.3-47.3c0.1-4.2-5.3-6-7.7-2.5l-26.7,39
	c-2.7,3.9-7,6.3-11.7,6.6c-4.6,0.2-9.3-1.8-12.3-5.4L139.9,81.4c-2.1-2.5-6.1-0.5-5.4,2.7l39,181.5c1.7,7.7-2.9,15.4-10.5,17.7
	L120.8,295.7z"/>
<path fill="#FFD469" d="M315,369.3l96.9-17.1c6.1-1.1,8.1-8.7,3.4-12.7l-70-59.2c-3.1-2.6-5-6.4-5.3-10.4c-0.3-4,1-8,3.7-11.1
	l49.4-56.1c1.9-2.2-0.6-5.5-3.2-4.2l-65.7,32.2c-4.7,2.3-10.4,2-14.8-0.9c-4.5-2.9-7.1-7.8-6.9-13.1l1.3-47.3c0.1-4.2-5.3-6-7.7-2.5
	l-26.7,39c-2.7,3.9-7,6.3-11.7,6.6c-4.6,0.2-9.3-1.8-12.3-5.4L139.9,81.4c-2.1-2.5-6.1-0.5-5.4,2.7l39,181.5
	c1.7,7.7-2.9,15.4-10.5,17.7l-42.2,12.4c-5,1.5-5,8.5,0,9.9l42.2,12.4c4,1.2,7.3,4,9.2,7.7c1.9,3.7,2.1,8,0.7,12L132.8,449
	c-1.7,4.6,3.4,8.8,7.6,6.3l108.9-64.4c6.8-4,15.6-2.1,20.2,4.5l28.7,41.9c1.8,2.6,5.9,1.3,5.8-1.9l-1.4-50.8
	C302.3,377.1,307.6,370.6,315,369.3z"/>
<path fill="#FFFFFF" d="M253.4,346.5l-49.5,29.3c-3.5,2.1-7.7-1.4-6.3-5.2l18.2-50.5c0.9-2.4-0.5-5-2.9-5.7l-33-9.7
	c-1.8-0.5-1.8-3.1,0-3.6l33.8-9.9c2.1-0.6,3.4-2.7,3.1-4.9l-11-64.2c-0.7-4.2,4.3-6.8,7.4-3.8l40.1,39.5c1.9,1.9,5.1,1.6,6.7-0.6
	L279,229c1.1-1.5,3.5-0.8,3.4,1.1l-0.9,31.9c-0.1,3.3,3.3,5.5,6.3,4l43.8-21.4c1.8-0.9,3.6,1.4,2.2,2.9l-34.4,39.1
	c-1.6,1.8-1.4,4.6,0.5,6.2l32.3,27.4c2.8,2.4,1.6,7-2.1,7.6l-45.1,7.9c-2.1,0.4-3.7,2.3-3.6,4.4l1,35.3c0.1,1.9-2.4,2.7-3.4,1.1
	l-19.8-28.9C257.9,345.8,255.4,345.3,253.4,346.5z"/>
</svg>
