<?xml version="1.0" encoding="utf-8"?>
<!-- Generator: Adobe Illustrator 18.0.0, SVG Export Plug-In . SVG Version: 6.00 Build 0)  -->
<!DOCTYPE svg PUBLIC "-//W3C//DTD SVG 1.1 Tiny//EN" "http://www.w3.org/Graphics/SVG/1.1/DTD/svg11-tiny.dtd">
<svg version="1.1" baseProfile="tiny" id="Layer_1" xmlns="http://www.w3.org/2000/svg" xmlns:xlink="http://www.w3.org/1999/xlink"
	 x="0px" y="0px" width="511.9px" height="511.9px" viewBox="0 0 511.9 511.9" xml:space="preserve">
<ellipse fill="#2B3B47" cx="284.7" cy="281.3" rx="11" ry="11"/>
<ellipse fill="#2B3B47" cx="326.8" cy="281.3" rx="11" ry="11"/>
<ellipse fill="#2B3B47" cx="368.9" cy="281.3" rx="11" ry="11"/>
<path fill="none" stroke="#2B3B47" stroke-width="22.4447" stroke-linecap="round" stroke-miterlimit="10" d="M235.7,281.3"/>
<path fill="none" stroke="#2B3B47" stroke-width="22.4447" stroke-linecap="round" stroke-miterlimit="10" d="M89,281.3"/>
<path fill="#2A3B46" d="M421.5,215.4H89.2c-6.2,0-11.3-5.1-11.3-11.3v0c0-6.2,5.1-11.3,11.3-11.3h332.3c6.2,0,11.3,5.1,11.3,11.3v0
	C432.8,210.3,427.7,215.4,421.5,215.4z"/>
<path fill="#2A3B46" d="M235.5,292.6H89.2c-6.2,0-11.3-5.1-11.3-11.3v0c0-6.2,5.1-11.3,11.3-11.3h146.3c6.2,0,11.3,5.1,11.3,11.3v0
	C246.8,287.5,241.7,292.6,235.5,292.6z"/>
</svg>
