<?xml version="1.0" encoding="utf-8"?>
<!-- Generator: Adobe Illustrator 18.0.0, SVG Export Plug-In . SVG Version: 6.00 Build 0)  -->
<!DOCTYPE svg PUBLIC "-//W3C//DTD SVG 1.1 Tiny//EN" "http://www.w3.org/Graphics/SVG/1.1/DTD/svg11-tiny.dtd">
<svg version="1.1" baseProfile="tiny" id="Layer_1" xmlns="http://www.w3.org/2000/svg" xmlns:xlink="http://www.w3.org/1999/xlink"
	 x="0px" y="0px" width="511.9px" height="511.9px" viewBox="0 0 511.9 511.9" xml:space="preserve">
<path fill="#FFB636" d="M447.6,181.8c0-72.5-42.7-170.2-170.7-170.2c0,0-13.7,8.3-32.1,20.8c-7.1-12.8-11.4-20.8-11.4-20.8
	c-128,0-169.1,84.9-169.1,164.2c0,55.7,1.9,76.1,3.8,84.4c3.2,13.8,9.3,6.5,12.3-1.8c11.2-30.4,20.8-155.2,65.9-116.6
	c32.3,27.7,214.1,67.4,198.6,48.4c-2.6-3.2-5.2-6.5-7.9-10c61,27.3,87.2,67.1,90.9,75.7c3.5,8.2,11.1,15.2,14.2-2.2
	C447.8,221,447.6,207.1,447.6,181.8z"/>
</svg>
