<?xml version="1.0" encoding="utf-8"?>
<!-- Generator: Adobe Illustrator 18.1.0, SVG Export Plug-In . SVG Version: 6.00 Build 0)  -->
<!DOCTYPE svg PUBLIC "-//W3C//DTD SVG 1.0//EN" "http://www.w3.org/TR/2001/REC-SVG-20010904/DTD/svg10.dtd">
<svg version="1.0" id="Layer_1" xmlns="http://www.w3.org/2000/svg" xmlns:xlink="http://www.w3.org/1999/xlink" x="0px" y="0px"
	 width="72px" height="72px" viewBox="0 0 72 72" enable-background="new 0 0 72 72" xml:space="preserve">
<path fill="#2B3B47" d="M43.2,64c-0.6,2.2,1.5,1.9,4.8,2.8c3.2,0.9,6.3-0.2,6.9-2.5c0.1-0.5,0.1-1.1,0-1.6c2.5,1.3,5.1,1.4,6.8-0.1
	c2.3-2.1,1.7-6.6-1.4-9.9c-0.3-0.4-0.7-0.7-1.1-1c2.7,0.6,5.3,0.2,7.1-1.4c3.5-3.2,2.5-10-2.2-15.1c-0.8-0.9-1.6-1.6-2.5-2.2
	c2-0.7,3.5-2.1,4-3.9c0.7-2.8-1.3-5.9-4.8-7.8c2-2,2.9-4.4,2.2-6.6c-1.2-3.8-6.5-5.4-12-3.7c-0.2,0.1-0.4,0.1-0.6,0.2
	c1-3.3,0.3-6.5-2-7.7c-2.2-1.2-5.2,0-7.4,2.6c-0.6-3.4-2.7-5.8-5.2-5.9c-2.4,0-4.5,2.2-5.3,5.2c-2.1-2.2-4.8-3.1-6.8-2
	c-2.3,1.2-3,4.4-2,7.7c-0.2-0.1-0.4-0.1-0.6-0.2c-5.4-1.7-10.8,0-12,3.7c-0.7,2.2,0.2,4.7,2.2,6.6C8,23.1,6,26.2,6.7,29
	c0.5,1.8,2,3.1,4,3.9c-0.9,0.6-1.7,1.4-2.5,2.2C3.5,40.2,2.5,46.9,6,50.2c1.8,1.6,4.4,2.1,7.1,1.4c-0.4,0.3-0.7,0.6-1.1,1
	c-3.1,3.3-3.7,7.8-1.4,9.9c1.6,1.5,4.3,1.5,6.8,0.1c-0.2,0.5-0.2,1.1,0,1.6c0.6,2.2,3.7,3.3,6.9,2.5c3.2-0.9,5.4-0.5,4.8-2.8"/>
<path fill="#FF473E" d="M58.3,30c0-12.4-10-22.4-22.4-22.4c-12.4,0-22.4,10-22.4,22.4c0,0-3.4,42,23.1,42S58.3,30,58.3,30z
	 M31.8,48.8c0.3-0.8,1.1-1.2,1.9-0.9l2.1,0.7l2.6-0.7c0.8-0.2,1.6,0.2,1.8,1c0.2,0.8-0.2,1.6-1,1.8l-3,0.9c-0.1,0-0.3,0.1-0.4,0.1
	c0,0,0,0,0,0c0,0,0,0,0,0c0,0,0,0,0,0c-0.2,0-0.3,0-0.5-0.1l-2.6-0.9C31.9,50.4,31.5,49.5,31.8,48.8z M18.3,44.2
	C18.3,44.1,18.3,44.1,18.3,44.2L18.3,44.2l0-6h0c0.2-2.2,2-3.9,4.2-3.9c2.2,0,4,1.7,4.2,3.9h0v5.9v0c0,0,0,0,0,0
	c0,2.3-1.9,4.2-4.2,4.2C20.1,48.4,18.3,46.5,18.3,44.2z M49.7,58.9c-2.8,2.5-8,4.1-13.7,4.1c-5.7,0-10.9-1.5-13.7-4.1
	c-0.4-0.4-0.4-0.8,0-1.2c0.4-0.4,1.1-0.6,1.9-0.6h23.7c0.8,0,1.5,0.2,1.9,0.6C50.1,58.1,50.1,58.6,49.7,58.9z M53.3,44.1L53.3,44.1
	C53.3,44.1,53.3,44.1,53.3,44.1c0,2.3-1.9,4.2-4.2,4.2c-2.3,0-4.2-1.9-4.2-4.2c0,0,0,0,0,0h0v-5.9h0.1c0.2-2.2,2-3.9,4.2-3.9
	c2.2,0,4,1.7,4.2,3.9h0V44.1z"/>
<path fill="#FFB636" d="M28.9,57.2v1.6c0,0.5-0.4,0.8-0.8,0.8s-0.8-0.4-0.8-0.8v-1.6H28.9z M31.1,57.2v2.5c0,0.7,0.6,1.3,1.3,1.3
	c0.7,0,1.3-0.6,1.3-1.3v-2.5H31.1z M39.4,57.2v2.5c0,0.7,0.6,1.3,1.3,1.3c0.7,0,1.3-0.6,1.3-1.3v-2.5H39.4z M44.1,57.1v1.7
	c0,0.5,0.4,0.9,0.9,0.9c0.5,0,0.9-0.4,0.9-0.9v-1.7H44.1z M25.3,25c1-1.3,0.7-3.2-0.6-4.1c-4.3-3.2-7.1-7.9-7.8-13.1
	c-0.2-1.6-1.7-2.8-3.3-2.6c-1.6,0.2-2.8,1.7-2.6,3.3c0.9,6.8,4.6,13,10.2,17.1c0.5,0.4,1.1,0.6,1.7,0.6C23.8,26.2,24.7,25.7,25.3,25
	z M50,25.6c5.6-4.1,9.3-10.3,10.2-17.1c0.2-1.6-0.9-3.1-2.6-3.3C56,5,54.5,6.1,54.3,7.7c-0.7,5.2-3.5,9.9-7.8,13.1
	c-1.3,1-1.6,2.8-0.6,4.1c0.6,0.8,1.5,1.2,2.4,1.2C48.9,26.2,49.5,26,50,25.6z"/>
</svg>
