<?xml version="1.0" encoding="utf-8"?>
<!-- Generator: Adobe Illustrator 18.1.0, SVG Export Plug-In . SVG Version: 6.00 Build 0)  -->
<!DOCTYPE svg PUBLIC "-//W3C//DTD SVG 1.0//EN" "http://www.w3.org/TR/2001/REC-SVG-20010904/DTD/svg10.dtd">
<svg version="1.0" id="Layer_1" xmlns="http://www.w3.org/2000/svg" xmlns:xlink="http://www.w3.org/1999/xlink" x="0px" y="0px"
	 width="72px" height="72px" viewBox="0 0 72 72" enable-background="new 0 0 72 72" xml:space="preserve">
<path fill="#68442A" d="M62.6,41.8c-0.2-0.2-0.3-0.4-0.5-0.6c0-0.1-0.1-0.1-0.1-0.2c-0.1-0.1-0.2-0.2-0.3-0.3
	c-0.7,1.2-2.2,1.3-2.2-0.6c0-0.1,0-0.3,0-0.4c0,0,0,0-0.1,0l0-0.5c-0.3-6.3-3.2-18.4-18.4-19.8c-2.7,3.6-7,7-13.1,9.2
	C18.3,32.2,16,40.2,14.7,45.5l0.2,3.3c0,0.5,0,1.1,0.1,1.6c0,0.2,0,0.3,0.1,0.5c0,0.4,0.1,0.7,0.1,1.1c0,0.2,0.1,0.4,0.1,0.6
	c0.1,0.4,0.1,0.7,0.2,1.1c0,0.2,0.1,0.3,0.1,0.5c0.7,2.7,1.9,5.3,3.5,7.5h-2.3h-2.5c-1.3,0-2.4-0.8-2.8-2c-1.2-3.1-3.2-9.5-3.2-16.1
	c0-10.6,1.5-17.8,3-22.4c2.3-11.7,12.2-20,24.7-20c12.1,0,16.2,6.5,16.2,6.5s10.6,2,10.6,18.8C62.9,26.5,62.9,33.8,62.6,41.8z
	 M61.6,48.5c-0.1,0.1-0.2,0.2-0.3,0.2c-0.2,0.1-0.4,0.2-0.6,0.3c-0.1,0-0.2,0.1-0.2,0.1c-0.2,0.1-0.5,0.2-0.7,0.3c0,0-0.1,0-0.1,0
	c-0.3,0.1-0.6,0.1-0.9,0.1c-0.2,4.5-1.7,8.7-4.2,12.1h3.5h0.1c1.4,0,2.7-1,3-2.4c0.6-2.6,1-6.9,1.2-11.6c-0.1,0.2-0.3,0.3-0.4,0.5
	C61.8,48.3,61.7,48.4,61.6,48.5z"/>
</svg>
