<?xml version="1.0" encoding="utf-8"?>
<!-- Generator: Adobe Illustrator 18.1.0, SVG Export Plug-In . SVG Version: 6.00 Build 0)  -->
<!DOCTYPE svg PUBLIC "-//W3C//DTD SVG 1.0//EN" "http://www.w3.org/TR/2001/REC-SVG-20010904/DTD/svg10.dtd">
<svg version="1.0" id="Layer_1" xmlns="http://www.w3.org/2000/svg" xmlns:xlink="http://www.w3.org/1999/xlink" x="0px" y="0px"
	 width="72px" height="72px" viewBox="0 0 72 72" enable-background="new 0 0 72 72" xml:space="preserve">
<path fill="#FFD3B6" d="M61.3,35.7c-0.2,0-0.4,0-0.6,0l0.7-11.1c0-14.1-12.1-21.3-26.2-21.3c-14.1,0-24.7,7.3-24.7,21.3l0.7,11.1
	c-0.2,0-0.4,0-0.6,0c-3.1,0-5.5,2.5-5.5,5.5c0,3.1,2.5,5.5,5.5,5.5c0.4,0,0.9-0.1,1.3-0.2l0.1,1.5C12.1,61.3,22.8,72,36,72
	c13.2,0,23.9-10.7,23.9-23.9l0.1-1.5c0.4,0.1,0.8,0.2,1.3,0.2c3.1,0,5.5-2.5,5.5-5.5C66.8,38.2,64.3,35.7,61.3,35.7z"/>
</svg>
