<?xml version="1.0" encoding="utf-8"?>
<!-- Generator: Adobe Illustrator 18.1.0, SVG Export Plug-In . SVG Version: 6.00 Build 0)  -->
<!DOCTYPE svg PUBLIC "-//W3C//DTD SVG 1.0//EN" "http://www.w3.org/TR/2001/REC-SVG-20010904/DTD/svg10.dtd">
<svg version="1.0" id="Layer_1" xmlns="http://www.w3.org/2000/svg" xmlns:xlink="http://www.w3.org/1999/xlink" x="0px" y="0px"
	 width="72px" height="72px" viewBox="0 0 72 72" enable-background="new 0 0 72 72" xml:space="preserve">
<path fill="#FFD3B6" d="M61.3,35.7c-0.2,0-0.4,0-0.6,0l0.7-11.1c0-14.1-12.1-21.3-26.2-21.3c-14.1,0-24.7,7.3-24.7,21.3l0.7,11.1
	c-0.2,0-0.4,0-0.6,0c-3.1,0-5.5,2.5-5.5,5.5c0,3.1,2.5,5.5,5.5,5.5c0.4,0,0.9-0.1,1.3-0.2l0.1,1.5C12.1,61.3,22.8,72,36,72
	c13.2,0,23.9-10.7,23.9-23.9l0.1-1.5c0.4,0.1,0.8,0.2,1.3,0.2c3.1,0,5.5-2.5,5.5-5.5C66.8,38.2,64.3,35.7,61.3,35.7z"/>
<path fill="#EDC0A2" d="M33.9,69.5c-5.5,0-10.5-1.7-14.7-4.5c4.3,4.3,10.3,7,16.9,7c13.2,0,23.9-10.7,23.9-23.9l0.1-1.2
	C58.1,59.7,47.2,69.5,33.9,69.5z"/>
<path fill="#E5AB83" d="M36,50.6C36,50.6,36,50.6,36,50.6c-1.7,0-3.2-0.8-4.1-2.3c-0.3-0.5-0.2-1.1,0.3-1.4c0.5-0.3,1.1-0.2,1.4,0.3
	c0.5,0.8,1.4,1.3,2.4,1.3c0,0,0,0,0,0c1,0,1.9-0.5,2.4-1.3c0.3-0.5,0.9-0.6,1.4-0.3c0.5,0.3,0.6,0.9,0.3,1.4
	C39.2,49.7,37.7,50.6,36,50.6z"/>
<path fill="#FF929D" d="M36,62.8C36,62.8,36,62.8,36,62.8c-2.8,0-5.2-1.4-6.6-3.7c-0.3-0.6-0.1-1.4,0.4-1.7c0.6-0.3,1.4-0.1,1.7,0.4
	c0.9,1.6,2.6,2.5,4.4,2.5c0,0,0,0,0,0c1.9,0,3.5-0.9,4.5-2.5c0.3-0.6,1.1-0.8,1.7-0.4c0.6,0.3,0.8,1.1,0.4,1.7
	C41.2,61.4,38.7,62.8,36,62.8z"/>
<path fill="#2B3B47" d="M23.4,37.3C23.3,36,22.2,35,20.9,35c-1.3,0-2.4,1-2.5,2.3l0,3.5h0c0,0,0,0,0,0c0,1.4,1.1,2.5,2.5,2.5
	c1.4,0,2.5-1.1,2.5-2.5c0,0,0,0,0,0h0L23.4,37.3z"/>
<path fill="#2B3B47" d="M53.5,37.3C53.4,36,52.3,35,51,35c-1.3,0-2.4,1-2.5,2.3l0,3.5h0c0,0,0,0,0,0c0,1.4,1.1,2.5,2.5,2.5
	c1.4,0,2.5-1.1,2.5-2.5c0,0,0,0,0,0l0,0L53.5,37.3z"/>
<path fill="#959DA3" d="M20.4,37.5c0-0.3-0.3-0.6-0.6-0.6c-0.3,0-0.6,0.3-0.6,0.6h0v0.9h0v0c0,0.3,0.3,0.6,0.6,0.6
	c0.3,0,0.6-0.3,0.6-0.6v0l0,0L20.4,37.5L20.4,37.5z"/>
<path fill="#959DA3" d="M50.7,37.5c0-0.3-0.3-0.6-0.6-0.6c-0.3,0-0.6,0.3-0.6,0.6h0v0.9h0v0c0,0.3,0.3,0.6,0.6,0.6
	c0.3,0,0.6-0.3,0.6-0.6v0l0,0L50.7,37.5L50.7,37.5z"/>
<path fill="#68442A" d="M48.7,2.9c-1.3-0.7,2.1-2.4,0.6-2.8c-1.3-0.4-7.5,0.5-8.9,0.3c-1.4-0.2-3.6-0.3-5.1-0.3c0,0,0,0,0,0
	c0,0-0.1,0-0.1,0C17.8,0.6,10.2,14,10.2,23.9v11.7c0,0.6,0.6,1.1,1.2,1c2.7-0.6,4.5-3.4,5.6-10.2c2-12.5,16.1-10.5,20.4-8.6
	c0,0,0,0,0,0c3.5,1.7,8.7,4,10.9,4.4c1.7,0.2-4.9-5-3-4.4c4.7,1.4,8.7,4.9,10.4,9.5c1.9,5.3,2.5,8.6,5.2,9.2
	c0.4,0.1,0.9-0.3,0.9-0.7V23.9C61.8,16.6,57.7,7.4,48.7,2.9z"/>
</svg>
