<?xml version="1.0" encoding="utf-8"?>
<!-- Generator: Adobe Illustrator 18.1.0, SVG Export Plug-In . SVG Version: 6.00 Build 0)  -->
<!DOCTYPE svg PUBLIC "-//W3C//DTD SVG 1.1//EN" "http://www.w3.org/Graphics/SVG/1.1/DTD/svg11.dtd">
<svg version="1.1" id="Layer_1" xmlns="http://www.w3.org/2000/svg" xmlns:xlink="http://www.w3.org/1999/xlink" x="0px" y="0px"
	 width="72px" height="72px" viewBox="0 0 72 72" enable-background="new 0 0 72 72" xml:space="preserve">
<path fill="#E5E4DF" d="M65.5,42.1L67,29.7C67,13.3,53.7,0,37.3,0C20.9,0,7.6,13.3,7.6,29.7L9,42.1c-1.1,1.8-1.7,4-1.7,6.3
	C7.4,55.3,13,61,20,61c1.2,0,2.3-0.2,3.4-0.5v2.2c0,2.4,1.9,4.3,4.3,4.3h19.8c2.4,0,4.3-1.9,4.3-4.3v-2.1c0.9,0.2,1.8,0.3,2.8,0.3
	c7,0,12.6-5.7,12.6-12.6C67.2,46.1,66.6,43.9,65.5,42.1z"/>
</svg>
