<?xml version="1.0" encoding="utf-8"?>
<!-- Generator: Adobe Illustrator 18.0.0, SVG Export Plug-In . SVG Version: 6.00 Build 0)  -->
<!DOCTYPE svg PUBLIC "-//W3C//DTD SVG 1.1 Tiny//EN" "http://www.w3.org/Graphics/SVG/1.1/DTD/svg11-tiny.dtd">
<svg version="1.1" baseProfile="tiny" id="Layer_1" xmlns="http://www.w3.org/2000/svg" xmlns:xlink="http://www.w3.org/1999/xlink"
	 x="0px" y="0px" width="511.9px" height="511.9px" viewBox="0 0 511.9 511.9" xml:space="preserve">
<path fill="#E5E4DF" d="M256,0c141.4,0,256,114.6,256,256c0,141.4-114.6,256-256,256S0,397.3,0,256C0,114.6,114.6,0,256,0z"/>
<path fill="#00B1FF" d="M256,80c97.2,0,176,78.8,176,176c0,97.2-78.8,176-176,176s-176-78.8-176-176C80,158.8,158.8,80,256,80z"/>
<path fill="#2B3B47" d="M256,160c53,0,96,43,96,96s-43,96-96,96s-96-43-96-96S203,160,256,160z"/>
<path fill="#D4EDF6" d="M327.9,160c22.1,0,40,17.9,40,40s-17.9,40-40,40s-40-17.9-40-40S305.9,160,327.9,160z"/>
<path fill="#D6DBDE" d="M349.2,233.7c-6.5-27.3-24.5-50-48.7-62.7c-7.7,7.3-12.6,17.5-12.6,29c0,22.1,17.9,40,40,40
	C335.8,239.9,343.1,237.6,349.2,233.7z"/>
</svg>
