<?xml version="1.0" encoding="utf-8"?>
<!-- Generator: Adobe Illustrator 18.1.0, SVG Export Plug-In . SVG Version: 6.00 Build 0)  -->
<!DOCTYPE svg PUBLIC "-//W3C//DTD SVG 1.0//EN" "http://www.w3.org/TR/2001/REC-SVG-20010904/DTD/svg10.dtd">
<svg version="1.0" id="Layer_1" xmlns="http://www.w3.org/2000/svg" xmlns:xlink="http://www.w3.org/1999/xlink" x="0px" y="0px"
	 width="72px" height="72px" viewBox="0 0 72 72" enable-background="new 0 0 72 72" xml:space="preserve">
<path fill="#B0E9FF" d="M52.1,7.3c1.9,0.5,3.4,2,3.9,3.9c0,0.2,0.3,0.2,0.3,0c0.5-1.9,2-3.4,3.9-3.9c0.2,0,0.2-0.3,0-0.3
	c-1.9-0.5-3.4-2-3.9-3.9c0-0.2-0.3-0.2-0.3,0C55.4,5,54,6.5,52.1,7C51.9,7,51.9,7.3,52.1,7.3z"/>
<path fill="#B0E9FF" d="M9.3,12c3.3,0.8,6,3.5,6.8,6.8c0.1,0.3,0.5,0.3,0.6,0c0.8-3.3,3.5-6,6.8-6.8c0.3-0.1,0.3-0.5,0-0.6
	c-3.3-0.8-6-3.5-6.8-6.8c-0.1-0.3-0.5-0.3-0.6,0c-0.8,3.3-3.5,6-6.8,6.8C9,11.5,9,12,9.3,12z"/>
</svg>
