<?xml version="1.0" encoding="utf-8"?>
<!-- Generator: Adobe Illustrator 18.1.0, SVG Export Plug-In . SVG Version: 6.00 Build 0)  -->
<!DOCTYPE svg PUBLIC "-//W3C//DTD SVG 1.0//EN" "http://www.w3.org/TR/2001/REC-SVG-20010904/DTD/svg10.dtd">
<svg version="1.0" id="Layer_1" xmlns="http://www.w3.org/2000/svg" xmlns:xlink="http://www.w3.org/1999/xlink" x="0px" y="0px"
	 width="72px" height="72px" viewBox="0 0 72 72" enable-background="new 0 0 72 72" xml:space="preserve">
<path fill="#FFA1E0" d="M55.6,67.5c0,4.9-8.5,4.5-19.1,4.5s-19.1,0.5-19.1-4.5s8.5-9,19.1-9S55.6,62.6,55.6,67.5z"/>
<path fill="#EDC0A2" stroke="#FFD3B6" stroke-width="5.52" stroke-linecap="round" stroke-linejoin="round" stroke-miterlimit="10" d="
	M61.7,19.5"/>
<path fill="#FFD3B6" d="M53.3,33.8l0.5-8.1c0-9.4-8.1-14.2-17.5-14.2c-9.4,0-16.5,4.9-16.5,14.2l0.5,8.1c-1.9,0.1-3.3,1.6-3.3,3.5
	c0,2,1.6,3.6,3.6,3.6c0.1,0,0.2,0,0.3,0l0,0.5c0,6.3,3.7,11.7,9,14.3v7c0,1.9,3.1,3.4,6.9,3.4s6.9-1.5,6.9-3.4c0-0.2,0-0.4-0.1-0.6
	v-6.2c5.5-2.5,9.3-8.1,9.3-14.5l0-0.5c0.2,0,0.3,0,0.5,0c2,0,3.6-1.6,3.6-3.6C56.8,35.4,55.2,33.8,53.3,33.8z"/>
<path fill="#68442A" d="M55.4,40.1c-0.1,3-0.4,5.8-0.7,8c-0.5,4.6-1,5.7-1,5.7c0,1.1-4.6,1.8-10.4,2.1v0c2-0.9,3.8-2.3,5.3-3.9l0,0
	c0.3-0.3,0.6-0.7,0.9-1.1c0,0,0,0,0,0c0.3-0.3,0.5-0.7,0.7-1c0-0.1,0.1-0.2,0.1-0.2c0.2-0.3,0.4-0.6,0.5-0.9c0-0.1,0.1-0.2,0.1-0.3
	c0.2-0.4,0.4-0.8,0.5-1.2c0,0,0,0,0,0c0.2-0.4,0.3-0.9,0.4-1.3c0-0.1,0.1-0.2,0.1-0.3c0.1-0.3,0.2-0.7,0.2-1c0-0.1,0.1-0.3,0.1-0.4
	c0.1-0.3,0.1-0.6,0.1-1c0-0.1,0-0.3,0-0.4c0-0.5,0.1-0.9,0.1-1.4l0-0.5c0.2,0,0.3,0,0.5,0c0.2,0,0.4,0,0.6-0.1c0,0,0.1,0,0.1,0
	c0.2,0,0.3-0.1,0.5-0.1c0,0,0,0,0,0C54.8,40.5,55.1,40.4,55.4,40.1z M55.7,25.1c0-10.5-9-18.4-19.5-18.4c-10.5,0-18.4,7.9-18.4,18.4
	l0.4,5.4l0.1,11.4c0,0,0,0,0,0c0.1,5.8,1.5,11.9,1.5,11.9c0,1.1,4.4,1.8,10,2.1v-0.2c-3.9-1.9-6.9-5.4-8.2-9.6
	c-0.2-0.7-0.4-1.5-0.5-2.3c0,0,0,0,0-0.1c-0.1-0.3-0.1-0.7-0.1-1c0,0,0-0.1,0-0.1c0-2.3,0-5.3,0-7.9c0.5-2.4,5.1-9.4,9.1-15
	c0.1,0.1,0.1,0.2,0.2,0.2c6.6,6.6,18.7,9.8,23.3,10.2l-0.2,3.7c0.2,0,0.4,0,0.6,0.1c0.1,0,0.2,0,0.2,0.1c0.1,0,0.2,0.1,0.3,0.1
	c0.1,0,0.2,0.1,0.3,0.1c0.1,0,0.2,0.1,0.3,0.1c0.1,0.1,0.2,0.1,0.3,0.2c0.1,0.1,0.2,0.2,0.3,0.3C55.7,29.5,55.7,25.1,55.7,25.1z"/>
<path fill="#EDC0A2" d="M35.4,55.7c-3.6,0-7-1.1-9.8-3c2.9,2.9,6.9,4.7,11.3,4.7c8.8,0,16-7.1,16-16l0.1-0.8
	C51.6,49.1,44.3,55.7,35.4,55.7z"/>
<path fill="#E5AB83" d="M36.8,44C36.8,44,36.8,44,36.8,44c-1.2,0-2.3-0.6-2.9-1.6c-0.2-0.3-0.1-0.8,0.2-1c0.3-0.2,0.8-0.1,1,0.2
	c0.4,0.6,1,0.9,1.7,0.9c0,0,0,0,0,0c0.7,0,1.4-0.3,1.7-0.9c0.2-0.3,0.6-0.4,1-0.2c0.3,0.2,0.4,0.6,0.2,1C39.1,43.5,38,44,36.8,44z
	 M44,29.8c-0.4,0.2-0.5,0.7-0.2,1.1c0.2,0.4,0.7,0.5,1.1,0.2c0,0,0.1-0.1,0.2-0.1c0.1,0,0.1-0.1,0.2-0.2c0.1-0.1,0.2-0.1,0.3-0.1
	c0.1,0,0.2-0.1,0.3-0.1c0.1,0,0.3-0.1,0.4-0.1c0.1,0,0.3-0.1,0.4-0.1c0.2,0,0.3,0,0.5,0l0.5,0c0.2,0,0.3,0.1,0.4,0.1
	c0.1,0,0.3,0.1,0.4,0.2c0.1,0.1,0.2,0.1,0.3,0.2c0.1,0,0.2,0.1,0.2,0.2c0.1,0.1,0.1,0.1,0.2,0.2c0.1,0.1,0.2,0.2,0.2,0.2l0.1,0.1
	c0.1,0.1,0.4,0.2,0.5,0c0.2-0.1,0.2-0.4,0.1-0.6c0,0-0.1-0.1-0.2-0.2c-0.1-0.1-0.1-0.2-0.2-0.3c-0.1-0.1-0.2-0.2-0.3-0.3
	c-0.1-0.1-0.3-0.2-0.4-0.3c-0.1-0.1-0.3-0.2-0.5-0.3c-0.2-0.1-0.4-0.2-0.6-0.2c-0.2,0-0.4-0.1-0.6-0.1c-0.2,0-0.4,0-0.6,0
	c-0.2,0-0.4,0-0.6,0c-0.2,0-0.4,0-0.6,0.1c-0.2,0.1-0.4,0.1-0.5,0.2c-0.2,0.1-0.3,0.1-0.4,0.2c-0.1,0.1-0.2,0.1-0.3,0.1
	C44.2,29.8,44.1,29.8,44,29.8C44.1,29.8,44.1,29.8,44,29.8z M28.7,31.2c0.4,0.2,0.9,0,1.1-0.3c0.2-0.4,0-0.9-0.3-1.1
	c0,0-0.1,0-0.2-0.1c-0.1,0-0.2-0.1-0.3-0.1c-0.1-0.1-0.2-0.1-0.4-0.2c-0.2-0.1-0.3-0.1-0.5-0.2c-0.2,0-0.4-0.1-0.6-0.1
	c-0.2,0-0.4,0-0.6,0c-0.2,0-0.4,0-0.6,0c-0.2,0-0.4,0.1-0.6,0.1c-0.2,0-0.4,0.2-0.6,0.2c-0.2,0.1-0.4,0.2-0.5,0.3
	c-0.1,0.1-0.3,0.2-0.4,0.3c-0.1,0.1-0.2,0.2-0.3,0.3c-0.1,0.1-0.1,0.2-0.2,0.3c-0.1,0.1-0.2,0.2-0.2,0.2c-0.1,0.2-0.1,0.4,0,0.5
	c0.2,0.2,0.4,0.2,0.6,0l0.1-0.1c0,0,0.1-0.1,0.2-0.2c0,0,0.1-0.1,0.2-0.2c0.1-0.1,0.1-0.2,0.2-0.2c0.1-0.1,0.2-0.1,0.3-0.2
	c0.1-0.1,0.2-0.1,0.4-0.2c0.1,0,0.3-0.1,0.4-0.1l0.5,0c0.2,0,0.3,0,0.5,0c0.2,0,0.3,0,0.4,0.1c0.1,0,0.3,0.1,0.4,0.1
	c0.1,0,0.2,0.1,0.3,0.1c0.1,0,0.2,0.1,0.3,0.1c0.1,0.1,0.2,0.1,0.2,0.2C28.6,31.1,28.7,31.1,28.7,31.2
	C28.7,31.2,28.7,31.2,28.7,31.2z"/>
<path fill="#FFD3B6" d="M22.4,23.2c-0.3-2.5-0.3-4.8,0.4-7.8c1.2-5.2,4.2-2,6.2-3.7c1.8-1.5,0.8-2-3.5-3c-0.3-0.1,2.9-8.5,2.9-8.5
	s-5.6,0-6.7,0c-0.9,0-2.2,8.2-2.8,8.6c-2.4,6-0.7,12.1,0.8,16.9C20.3,27.5,22.8,26.4,22.4,23.2z"/>
<path fill="#2B3B47" d="M49.5,36.2c0,0.1,0,0.1,0,0.2c-0.5,1.1-1.5,1.8-2.7,1.8s-2.2-0.7-2.7-1.8c0-0.1,0-0.1,0-0.2
	c-0.1-0.3-0.1-0.7,0.2-0.9c0.3-0.3,0.8-0.2,1.1,0.1c0.8,0.8,2.2,0.8,3,0c0.3-0.3,0.7-0.3,1.1-0.1C49.6,35.6,49.7,35.9,49.5,36.2z
	 M29.3,35.3c-0.3-0.3-0.8-0.2-1.1,0.1c-0.4,0.4-0.9,0.7-1.5,0.7c0,0,0,0,0,0c-0.6,0-1.1-0.2-1.5-0.7c-0.3-0.3-0.7-0.3-1.1-0.1
	c-0.3,0.2-0.3,0.6-0.2,0.9c0,0.1,0,0.1,0,0.2c0.5,1.1,1.5,1.8,2.7,1.8c1.1,0,2.2-0.7,2.7-1.8c0-0.1,0-0.1,0-0.2
	C29.6,35.9,29.6,35.6,29.3,35.3z M41.4,49.4c0.3-0.2,0.4-0.7,0.2-1c-0.2-0.3-0.7-0.4-1-0.2c0,0-1.5,1-3.9,1c-2.4,0-3.9-1-3.9-1
	c-0.3-0.2-0.8-0.2-1,0.2c-0.2,0.3-0.2,0.8,0.2,1c0.1,0.1,1.9,1.3,4.8,1.3C39.6,50.7,41.4,49.4,41.4,49.4z"/>
<path fill="#FFD3B6" d="M50.3,23.2c0.3-2.5,0.3-4.8-0.4-7.8c-1.2-5.2-4.2-2-6.2-3.7c-1.8-1.5-0.8-2,3.5-3c0.3-0.1-2.9-8.5-2.9-8.5
	s5.6,0,6.7,0c0.9,0,2.2,8.2,2.8,8.6c2.4,6,0.7,12.1-0.8,16.9C52.4,27.5,49.9,26.4,50.3,23.2z"/>
</svg>
