<?xml version="1.0" encoding="iso-8859-1"?>
<!-- Generator: Adobe Illustrator 19.2.0, SVG Export Plug-In . SVG Version: 6.00 Build 0)  -->
<!DOCTYPE svg PUBLIC "-//W3C//DTD SVG 1.1//EN" "http://www.w3.org/Graphics/SVG/1.1/DTD/svg11.dtd">
<svg version="1.1" xmlns="http://www.w3.org/2000/svg" xmlns:xlink="http://www.w3.org/1999/xlink" x="0px" y="0px"
	 viewBox="0 0 512 512" enable-background="new 0 0 512 512" xml:space="preserve">
<g id="Layer_2">
	<path fill="#FF473E" d="M505.041,249.364c-4.85-4.922-14.117-6.782-19.544-9.102c-22.788-9.743-30.049-21.518-50.242-35.927
		c-21.834-15.572-40.243-35.495-64.437-47.729c-23.592-11.93-49.984-13.992-75.085-5.611c-12.208,4.077-23.663,10.153-34.388,17.242
		c-3.337,2.206-7.562,2.49-11.117,0.653c-10.285-5.315-30.049-16.652-33.772-17.895c-59.036-19.713-95.972,22.279-139.522,53.34
		c-20.194,14.409-27.454,26.184-50.242,35.927c-5.789,2.475-14.988,4.072-19.598,8.96c-3.594,3.827-3.466,7.153-3.466,11.118
		c0,26.401,68.929,142.389,252.052,142.389S508.042,286.43,508.042,260.876C508.042,259.335,508.385,252.757,505.041,249.364z"/>
</g>
<g id="Layer_1">
</g>
</svg>
