<?xml version="1.0" encoding="iso-8859-1"?>
<!-- Generator: Adobe Illustrator 19.1.0, SVG Export Plug-In . SVG Version: 6.00 Build 0)  -->
<!DOCTYPE svg PUBLIC "-//W3C//DTD SVG 1.1//EN" "http://www.w3.org/Graphics/SVG/1.1/DTD/svg11.dtd">
<svg version="1.1" id="Layer_1" xmlns="http://www.w3.org/2000/svg" xmlns:xlink="http://www.w3.org/1999/xlink" x="0px" y="0px"
	 viewBox="0 0 511.92 511.92" enable-background="new 0 0 511.92 511.92" xml:space="preserve">
<path fill="#FFD3B6" d="M476.715,251.098c-10.115-9.01-32.509-21.494-78.537,22.719c-7.692,7.388-12.646,10.491-18.347,16.3
	c8.478-96.624,43.285-216.191,43.285-216.191c7.01-15.402,0.356-27.454-13.527-30.645c-13.846-3.182-22.225,5.263-30.831,19.2
	c0,0-51.572,131.371-51.64,131.475c-5.198,7.907-13.5,5.5-9.699-2.903l57.238-144.184c3.168-13.783-5.114-27.435-18.997-30.626
	c-13.846-3.182-27.66,5.404-30.825,19.175c0,0-62.691,149.425-65.407,156.049c-2.716,6.623-6.487,9.058-10.933-1.071
	c-4.446-10.128-64.604-152.612-64.604-152.612c-2.664-13.89-15.751-23.038-29.741-20.355c-13.952,2.676-23.127,16.107-20.465,29.984
	l54.813,143.267c-0.079,0.19-0.316,0.533-0.127,0.948c4.415,9.661-2.523,14.328-9.689,3.238L138.085,87.109
	c-5.167-15.567-11.13-25.593-25.375-25.593c-14.207,0-30.257,7.098-25.746,25.593c18.389,75.394,33.46,144.729,33.46,249.772
	c0,55.356,26.765,90.245,65.423,105.262v34.217c0,14.155,11.489,25.644,25.644,25.644h102.576c14.155,0,25.644-11.489,25.644-25.644
	v-25.894c16.999-1.928,31.849-10.926,41.498-24.023c0.14-0.19,0.273-0.383,0.409-0.575c0.263-0.365,0.528-0.729,0.782-1.1
	c0.813-0.924,1.839-2.634,3.094-5.024c0.618-1.125,1.195-2.274,1.742-3.442c11.753-23.86,38.693-88.505,87.007-130.288
	C484.381,275.971,486.831,260.108,476.715,251.098z"/>
<path fill="#F2C7AA" d="M334.299,450.861c-0.485,0.023-0.959,0.036-1.42,0.036h-78.006l0.16-0.206h-20.799
	c-17.304,0-33.701-2.843-48.386-8.547v30.242c4.667,2.436,9.116,3.949,12.925,3.949h128.309c3.718,0,8.078-1.218,12.63-3.18v-22.688
	C337.927,450.669,336.127,450.818,334.299,450.861z"/>
</svg>
