<?xml version="1.0" encoding="iso-8859-1"?>
<!-- Generator: Adobe Illustrator 19.1.0, SVG Export Plug-In . SVG Version: 6.00 Build 0)  -->
<!DOCTYPE svg PUBLIC "-//W3C//DTD SVG 1.1//EN" "http://www.w3.org/Graphics/SVG/1.1/DTD/svg11.dtd">
<svg version="1.1" xmlns="http://www.w3.org/2000/svg" xmlns:xlink="http://www.w3.org/1999/xlink" x="0px" y="0px"
	 viewBox="0 0 511.92 512.062" enable-background="new 0 0 511.92 512.062" xml:space="preserve">
<g id="Layer_2">
	<path fill="#464A4C" d="M482.551,200.759H233.743c8.228-7.42,11.434-13.186,20.665-22.796
		c49.178-51.197,35.292-76.106,25.271-87.357c-10.022-11.251-27.666-8.527-38.837,2.75
		C185.949,156.83,95.569,187.139,86.381,195.618c-8.993,5.927-16.442,16.352-21.533,27.17H21.38
		c-11.509,0-20.839,9.33-20.839,20.839v131.946c0,11.509,9.33,20.839,20.839,20.839h56.455
		c16.524,20.154,41.614,33.016,69.709,33.016h10.792h174.733h2.756c15.945,0,28.88-13.022,28.88-29.053
		c0-7.479-2.799-14.194-7.397-19.24c-0.098-0.245-0.372-0.566-0.78-0.974c-5.429-5.429-5.853-10.971-0.579-16.651
		c5.398-5.281,8.757-12.659,8.757-20.823c0-7.532-2.837-14.293-7.494-19.351c-0.126-0.249-0.342-0.537-0.683-0.878
		c-5.623-5.623-5.625-11.11-0.736-16.485c5.489-5.29,8.914-12.731,8.914-20.973c0-7.532-2.837-14.293-7.494-19.351
		c-0.126-0.249-0.342-0.537-0.683-0.878c-2.138-2.138-3.455-4.257-4.01-6.357h130.034c15.959,0,28.909-13.022,28.909-29.053
		C511.46,213.289,498.525,200.759,482.551,200.759z"/>
</g>
<g id="Layer_1">
</g>
</svg>
