<?xml version="1.0" encoding="iso-8859-1"?>
<!-- Generator: Adobe Illustrator 19.1.0, SVG Export Plug-In . SVG Version: 6.00 Build 0)  -->
<!DOCTYPE svg PUBLIC "-//W3C//DTD SVG 1.1//EN" "http://www.w3.org/Graphics/SVG/1.1/DTD/svg11.dtd">
<svg version="1.1" xmlns="http://www.w3.org/2000/svg" xmlns:xlink="http://www.w3.org/1999/xlink" x="0px" y="0px"
	 viewBox="0 0 511.92 512.062" enable-background="new 0 0 511.92 512.062" xml:space="preserve">
<g id="Layer_2">
	<path d="M360.588,195.882c0.328-7.773,0.474-15.27,0.14-23.033c-1.234-28.659-50.068-12.232-50.068-12.232L298.273,288.09h-78.723
		l-9,24.701l61.497,12.493l24.059-14.903l-1.085,11.168c49.265,13.649,56.869,0.633,62.163-46.647
		c3.179-28.385,2-39.031,4.273-57.019C363.068,205.143,360.208,204.883,360.588,195.882z"/>
</g>
<g id="Layer_3">
	<path fill="#464A4C" d="M234.642,307.611c0-3.015,1.198-5.906,3.33-8.038l0,0c1.433-3.875,7.175-2.848,7.175,1.284l11.88,59.796
		c2.939,20.022,16.628,34.495,36.597,31.217h0c19.496-3.2,32.827-21.439,29.958-40.987c0,0-1.521-19.306-3.535-68.842
		c-2.014-49.535,54.042-166.149,19.43-206.328c-15.604-18.113-27.558-23.787-27.558-37.566v0c0-18.136-12.146-26.214-29.734-30.64
		c-6.002-1.511-13.132-2.458-21.577-2.458c-41.609,0-47.848,18.759-47.848,18.759l-51.61,158.491c0,0-7.637,8.656-7.637,39.407
		c0,103.455,24.852,266.495,24.852,266.495c0,10.865,1.802,19.672,12.666,19.672h2.433c27.671,0,41.179-34.664,41.179-63.836
		c0-55.28-2.573-64.784-2.573-90.939L234.642,307.611z"/>
</g>
</svg>
