<?xml version="1.0" encoding="iso-8859-1"?>
<!-- Generator: Adobe Illustrator 19.2.0, SVG Export Plug-In . SVG Version: 6.00 Build 0)  -->
<!DOCTYPE svg PUBLIC "-//W3C//DTD SVG 1.1//EN" "http://www.w3.org/Graphics/SVG/1.1/DTD/svg11.dtd">
<svg version="1.1" xmlns="http://www.w3.org/2000/svg" xmlns:xlink="http://www.w3.org/1999/xlink" x="0px" y="0px"
	 viewBox="0 0 511.92 511.92" enable-background="new 0 0 511.92 511.92" xml:space="preserve">
<g id="Layer_2">
	<path fill="#EDC0A2" d="M163.122,457.654c1.678,0,3.381-0.103,5.084-0.361c19.872-2.761,33.731-21.137,30.944-41.009
		l-31.873-227.909l-9.394-129.917c-1.471-20.027-19.098-35.383-38.867-33.602c-20.027,1.445-26.324,16.956-25.498,40.905
		s-5.875,28.504-4.76,43.792c1.115,15.287,3.803,68.525,6.309,86.486c2.506,17.962,32.131,230.309,32.131,230.309
		C129.726,444.518,145.289,457.654,163.122,457.654z"/>
</g>
<g id="Layer_3">
	<path fill="#F2C7AA" d="M185.162,475.126c2.013,0,4.026-0.155,6.065-0.49c19.795-3.329,33.137-22.066,29.834-41.86l-37.292-222.309
		c2.684-10.323,8.723-31.847,18.375-55.358c17.291-42.118,34.97-105.012,35.718-107.67c5.42-19.33-5.884-39.383-25.188-44.802
		c-19.253-5.342-27.198,9.658-34.841,26.376c-6.917,15.131-19.786,28.974-23.647,41.783c-6.435,21.347-9.481,32.86-19.272,56.7
		c-15.949,38.867-23.12,65.315-25.214,80.701s39.667,236.607,39.667,236.607C152.36,462.557,167.741,475.126,185.162,475.126z"/>
</g>
<g id="Layer_4">
	<path fill="#FFD3B6" d="M403.135,347.48c-24.905-12.026-54.997-1.548-67.023,23.459c-13.704,28.44-45.912,43.073-76.365,34.892
		c-35.073-9.42-55.926-45.602-46.506-80.701c8.852-32.879,45.112-64.055,78.146-58.687l53.525,42.118
		c23.485,14.839,57.578,14.814,72.366-8.594c14.84-23.434-1.182-37.046-11.723-47.188c-11.397-10.965-17.401-26.456-24.15-35.062
		c-11.362-14.49-42.944-33.034-61.423-36.028c-30.415-4.928-59.914-6.764-87.527,0.515c3.454-4.514,6.554-8.347,9.096-11.328
		l41.576-39.833l49.578-47.5c15.794-15.149,16.336-40.234,1.187-56.055c-15.149-15.769-37.275,2.091-51.59,10.145
		c-15.001,8.441-24.657,8.015-40.783,23.466c-16.126,15.451-56.177,53.826-56.177,53.826c-0.852,0.826-1.677,1.677-2.452,2.581
		c-9.084,10.426-88.831,104.522-88.831,194.488c0,4.347,0.225,8.628,0.637,12.847c-0.778,6.406-1.173,12.847-1.179,19.284
		c-0.052,44.028,7.499,94.773,38.484,125.758c34.987,34.987,76.49,40.445,145.862,40.523c0.026,0,0.026,0,0.052,0
		c33.972,0,80.116-21.868,107.619-52.751c9.998-11.227,10.55-35.881,17.343-49.99C414.903,382.682,428.117,359.506,403.135,347.48z"
		/>
</g>
</svg>
