<?xml version="1.0" encoding="iso-8859-1"?>
<!-- Generator: Adobe Illustrator 19.2.0, SVG Export Plug-In . SVG Version: 6.00 Build 0)  -->
<!DOCTYPE svg PUBLIC "-//W3C//DTD SVG 1.1//EN" "http://www.w3.org/Graphics/SVG/1.1/DTD/svg11.dtd">
<svg version="1.1" xmlns="http://www.w3.org/2000/svg" xmlns:xlink="http://www.w3.org/1999/xlink" x="0px" y="0px"
	 viewBox="0 0 511.92 511.92" enable-background="new 0 0 511.92 511.92" xml:space="preserve">
<g id="Layer_5">
	<g id="Layer_4">
		<path fill="#FFD3B6" d="M403.135,347.48c-24.905-12.026-54.997-1.548-67.023,23.459c-13.704,28.44-45.912,43.073-76.365,34.892
			c-35.073-9.42-55.926-45.602-46.506-80.701c8.852-32.879,45.112-64.055,78.146-58.687l53.525,42.118
			c23.485,14.839,57.578,14.814,72.366-8.594c14.84-23.434-1.182-37.046-11.723-47.188c-11.397-10.965-17.401-26.456-24.15-35.062
			c-11.362-14.49-42.944-33.034-61.423-36.028c-30.415-4.928-59.914-6.764-87.527,0.515c3.454-4.514,6.554-8.347,9.096-11.328
			l41.576-39.833l49.578-47.5c15.794-15.149,16.336-40.234,1.187-56.055c-15.149-15.769-37.275,2.091-51.59,10.145
			c-15.001,8.441-24.657,8.015-40.783,23.466c-16.126,15.451-56.177,53.826-56.177,53.826c-0.852,0.826-1.677,1.677-2.452,2.581
			c-9.084,10.426-88.831,104.522-88.831,194.488c0,4.347,0.225,8.628,0.637,12.847c-0.778,6.406-1.173,12.847-1.179,19.284
			c-0.052,44.028,7.499,94.773,38.484,125.758c34.987,34.987,76.49,40.445,145.862,40.523c0.026,0,0.026,0,0.052,0
			c33.972,0,80.116-21.868,107.619-52.751c9.998-11.227,10.55-35.881,17.343-49.99C414.903,382.682,428.117,359.506,403.135,347.48z
			"/>
	</g>
</g>
<g id="Layer_1">
</g>
</svg>
