<?xml version="1.0" encoding="iso-8859-1"?>
<!-- Generator: Adobe Illustrator 19.2.0, SVG Export Plug-In . SVG Version: 6.00 Build 0)  -->
<!DOCTYPE svg PUBLIC "-//W3C//DTD SVG 1.1//EN" "http://www.w3.org/Graphics/SVG/1.1/DTD/svg11.dtd">
<svg version="1.1" xmlns="http://www.w3.org/2000/svg" xmlns:xlink="http://www.w3.org/1999/xlink" x="0px" y="0px"
	 viewBox="0 0 511.92 511.92" enable-background="new 0 0 511.92 511.92" xml:space="preserve">
<g id="Layer_3">
	<path fill="#F2C7AA" d="M185.162,475.126c2.013,0,4.026-0.155,6.065-0.49c19.795-3.329,33.137-22.066,29.834-41.86l-37.292-222.309
		c2.684-10.323,8.723-31.847,18.375-55.358c17.291-42.118,34.97-105.012,35.718-107.67c5.42-19.33-5.884-39.383-25.188-44.802
		c-19.253-5.342-27.198,9.658-34.841,26.376c-6.917,15.131-19.786,28.974-23.647,41.783c-6.435,21.347-9.481,32.86-19.272,56.7
		c-15.949,38.867-23.12,65.315-25.214,80.701s39.667,236.607,39.667,236.607C152.36,462.557,167.741,475.126,185.162,475.126z"/>
</g>
<g id="Layer_1">
</g>
</svg>
