<?xml version="1.0" encoding="iso-8859-1"?>
<!-- Generator: Adobe Illustrator 19.1.0, SVG Export Plug-In . SVG Version: 6.00 Build 0)  -->
<!DOCTYPE svg PUBLIC "-//W3C//DTD SVG 1.1//EN" "http://www.w3.org/Graphics/SVG/1.1/DTD/svg11.dtd">
<svg version="1.1" xmlns="http://www.w3.org/2000/svg" xmlns:xlink="http://www.w3.org/1999/xlink" x="0px" y="0px"
	 viewBox="0 0 511.92 512.062" enable-background="new 0 0 511.92 512.062" xml:space="preserve">
<g id="Layer_2">
	<path fill="#464A4C" d="M29.449,200.759h248.808c-8.228-7.42-11.434-13.186-20.665-22.796
		c-49.178-51.197-35.292-76.106-25.271-87.357c10.022-11.251,27.666-8.527,38.837,2.75
		c54.893,63.474,145.273,93.784,154.461,102.262c8.993,5.927,16.442,16.352,21.533,27.17h43.469c11.509,0,20.839,9.33,20.839,20.839
		v131.946c0,11.509-9.33,20.839-20.839,20.839h-56.455c-16.524,20.154-41.614,33.016-69.709,33.016h-10.792H178.931h-2.756
		c-15.945,0-28.88-13.022-28.88-29.053c0-7.479,2.799-14.194,7.397-19.24c0.098-0.245,0.372-0.566,0.78-0.974
		c5.429-5.429,5.853-10.971,0.579-16.651c-5.398-5.281-8.757-12.659-8.757-20.823c0-7.532,2.837-14.293,7.494-19.351
		c0.126-0.249,0.342-0.537,0.683-0.878c5.623-5.623,5.625-11.11,0.736-16.485c-5.489-5.29-8.914-12.731-8.914-20.973
		c0-7.532,2.837-14.293,7.494-19.351c0.126-0.249,0.342-0.537,0.683-0.878c2.138-2.138,3.455-4.257,4.01-6.357H29.449
		c-15.959,0-28.909-13.022-28.909-29.053C0.54,213.289,13.475,200.759,29.449,200.759z"/>
</g>
<g id="Layer_1">
</g>
</svg>
