<?xml version="1.0" encoding="iso-8859-1"?>
<!-- Generator: Adobe Illustrator 19.1.0, SVG Export Plug-In . SVG Version: 6.00 Build 0)  -->
<!DOCTYPE svg PUBLIC "-//W3C//DTD SVG 1.1//EN" "http://www.w3.org/Graphics/SVG/1.1/DTD/svg11.dtd">
<svg version="1.1" xmlns="http://www.w3.org/2000/svg" xmlns:xlink="http://www.w3.org/1999/xlink" x="0px" y="0px"
	 viewBox="0 0 511.92 511.92" enable-background="new 0 0 511.92 511.92" xml:space="preserve">
<g id="Layer_2">
	<path fill="#FFD3B6" d="M457.439,76.528c-14.245,0-20.208,10.026-25.375,25.593l-38.793,97.749
		c-2.779,9.43-17.695,8.351-17.695-3.238c0-0.456-0.048-0.758-0.127-0.948l14.85-143.409c0-14.13-11.54-25.593-25.747-25.593
		c-14.245,0-25.375,11.45-25.375,25.593L315.451,195.4c-1.029,10.155-14.997,10.511-16.938,1.071L276.7,26.682
		c0-14.13-11.54-25.593-25.747-25.593c-14.245,0-25.375,11.45-25.375,25.593l12.942,169.374c-2.716,9.956-15.36,11.955-18.327-3.138
		c-0.024-0.121-0.008-0.219-0.014-0.323L175.087,66.755c-5.265-15.51-11.54-25.618-25.747-25.618
		c-14.245,0-28.731,9.038-25.349,25.618c0,0,37.52,143.572,49.988,226.284c-4.865-4.576-9.496-7.76-16.218-14.217
		c-46.028-44.213-68.422-31.729-78.537-22.719c-10.115,9.01-7.666,24.872,2.472,34.916c57.066,49.351,84.315,130.606,91.938,138.866
		c8.746,13.268,28.375,22.809,42.594,25.342v26.137c0,14.155,11.488,25.644,25.644,25.644h102.576
		c14.155,0,25.644-11.488,25.644-25.644v-34.217c38.658-15.017,65.424-49.906,65.424-105.262
		c0-54.549,47.669-239.764,47.669-239.764C483.185,87.991,471.646,76.528,457.439,76.528z"/>
</g>
<g id="Layer_3">
	<path fill="#F2C7AA" d="M321.706,455.695h-20.799l0.16,0.206h-78.006c-2.056,0-4.365-0.234-6.832-0.674v22.931
		c4.552,1.962,8.911,3.18,12.63,3.18h128.309c3.808,0,8.257-1.513,12.924-3.949v-30.242
		C355.407,452.852,339.01,455.695,321.706,455.695z"/>
</g>
</svg>
