<?xml version="1.0" encoding="iso-8859-1"?>
<!-- Generator: Adobe Illustrator 19.2.0, SVG Export Plug-In . SVG Version: 6.00 Build 0)  -->
<!DOCTYPE svg PUBLIC "-//W3C//DTD SVG 1.1//EN" "http://www.w3.org/Graphics/SVG/1.1/DTD/svg11.dtd">
<svg version="1.1" xmlns="http://www.w3.org/2000/svg" xmlns:xlink="http://www.w3.org/1999/xlink" x="0px" y="0px"
	 viewBox="0 0 512 512" enable-background="new 0 0 512 512" xml:space="preserve">
<g id="Layer_3">
	<path fill="#FFFFFF" d="M16.278,261.791c5.345,0.192,10.608,0.396,16.023,0.019l16.045-0.536c5.315-0.069,10.563-0.529,16.014-0.87
		l16.159-0.908c5.372-0.322,10.614-0.842,15.91-1.251c5.279-0.447,10.554-0.791,15.819-1.372c5.257-0.569,10.542-0.939,15.756-1.665
		c5.232-0.695,10.425-1.261,15.676-2.086l15.946-2.179c5.383-0.687,11.092-1.386,16.851-1.72l4.371-0.219l2.188-0.107l1.094-0.053
		l0.547-0.026l0.137-0.006l0.912,0.02l0.253,0.009l8.083,0.284c1.193-0.03,3.057,0.273,4.738,0.507
		c1.707,0.239,3.414,0.51,5.109,0.808c3.468,0.566,5.972,1.497,8.998,2.252c2.809,0.808,5.171,1.651,7.779,2.476l6.895,2.106
		l6.657,1.505c2.26,0.396,4.596,0.596,6.881,0.923c2.24,0.401,4.708,0.403,7.131,0.482l3.635,0.124l1.816,0.066l0.908,0.034
		l0.454,0.017l0.114,0.004l0.057,0.002c-1.298,0.133,2.986-0.295-2.896,0.299l0.246-0.044l1.307-0.236l1.648-0.063
		c3.833-0.147,11-0.116,14.951-0.711l6.426-0.856l6.662-1.509l6.872-2.075c2.597-0.827,5.008-1.667,7.756-2.482
		c5.632-1.697,11.927-3.058,18.28-3.6l9.395-0.352l0.586-0.018l0.949,0.031l1.01,0.052l2.02,0.104l4.041,0.208
		c5.245,0.275,11.86,1.045,17.082,1.716l15.971,2.171c5.256,0.826,10.456,1.401,15.693,2.095c5.218,0.737,10.51,1.102,15.772,1.674
		c5.258,0.589,10.572,0.924,15.885,1.373c10.607,0.99,21.305,1.585,32.031,2.165l8.044,0.542l2.013,0.135l0.503,0.034
		c-0.212,0.019,0.232,0.014,0.316,0.022l1.014,0.03l4.058,0.119l16.235,0.534c5.487,0.377,10.688,0.18,16.004-0.012
		c5.364-0.005,5.778,1.72,0.464,2.585c-5.38,0.958-10.882,1.864-16.218,2.21l-16.136,1.368l-4.035,0.327l-1.009,0.082l-1.204,0.062
		l-2.036,0.088l-8.149,0.351c-10.869,0.419-21.76,0.709-32.709,0.657c-5.473,0.071-10.943,0.001-16.429-0.254
		c-5.479-0.248-10.986-0.291-16.462-0.711c-10.931-0.579-22.052-1.636-32.466-2.679c-5.461-0.459-9.565-0.853-15.098-0.963
		l-4.049-0.056l-2.025-0.028l-1.012-0.014l-0.253-0.003l-0.127-0.002l-0.063-0.001c-0.414-0.006,0.492,0.007,0.38,0.008
		l-0.424,0.036l-6.759,0.518c-2.232,0.197-4.253,0.808-6.408,1.1c-2.127,0.364-4.308,1.19-6.467,1.738
		c-2.268,0.701-4.755,1.599-7.121,2.388l-8.13,2.569l-8.817,2.119c-3.096,0.541-6.325,0.941-9.496,1.375
		c-3.403,0.538-5.839,0.51-8.581,0.668l-4.041,0.191l-2.02,0.095l-1.01,0.048l-1.155,0.026l-0.503-0.043l2.952-0.299l-0.247,0.041
		c-5.923,0.599-1.682,0.164-3.022,0.297l-0.069-0.003l-0.139-0.006l-0.556-0.024l-1.111-0.048l-2.222-0.099l-4.442-0.206
		c-2.961-0.143-5.9-0.211-8.937-0.736c-3.006-0.446-6.036-0.786-9.007-1.355l-8.804-2.119l-8.069-2.574
		c-2.355-0.779-4.869-1.704-7.093-2.366c-2.089-0.524-4.486-1.429-6.309-1.684c-0.935-0.155-1.858-0.338-2.78-0.552
		c-0.952-0.197-1.691-0.491-3.213-0.531l-8.053-0.586l-6.658,0.093c-5.001,0.099-10.006,0.515-15.288,0.988
		c-10.409,1.05-21.519,2.072-32.435,2.665c-5.47,0.413-10.969,0.463-16.441,0.71c-5.467,0.264-10.964,0.309-16.458,0.246
		c-11.038,0.055-21.82-0.233-32.596-0.658c-5.332-0.251-10.869-0.379-16.33-0.903l-16.289-1.368
		c-5.397-0.345-10.821-1.251-16.16-2.205C10.543,263.514,10.829,261.758,16.278,261.791z"/>
</g>
<g id="Layer_1">
</g>
</svg>
