<?xml version="1.0" encoding="utf-8"?>
<!-- Generator: Adobe Illustrator 18.0.0, SVG Export Plug-In . SVG Version: 6.00 Build 0)  -->
<!DOCTYPE svg PUBLIC "-//W3C//DTD SVG 1.1 Tiny//EN" "http://www.w3.org/Graphics/SVG/1.1/DTD/svg11-tiny.dtd">
<svg version="1.1" baseProfile="tiny" id="Layer_1" xmlns="http://www.w3.org/2000/svg" xmlns:xlink="http://www.w3.org/1999/xlink"
	 x="0px" y="0px" width="511.9px" height="511.9px" viewBox="0 0 511.9 511.9" xml:space="preserve">
<path fill="#FFD469" d="M255.9,35.3C134,35.3,35.2,134.1,35.2,256c0,3.3,0.1,6.6,0.2,9.9c-12.8,1.7-22.8,12.6-22.8,25.9
	c0,14.5,11.7,26.2,26.2,26.2h5.2c26.8,91.7,111.4,158.7,211.7,158.7c121.8,0,220.6-98.8,220.6-220.6
	C476.5,134.1,377.7,35.3,255.9,35.3z"/>
<path fill="#FFB636" d="M476.2,265.8c0.1-3.3,0.2-6.6,0.2-9.9c0-58.9-23.1-112.5-60.8-152c21.3,34.5,33.6,75.2,33.6,118.8
	c0,125.2-101.5,226.7-226.7,226.7c-43.6,0-84.2-12.3-118.8-33.6c39.6,37.7,93.1,60.8,152,60.8c100.3,0,185-67,211.7-158.7h5.2
	c14.5,0,26.2-11.7,26.2-26.2C499,278.4,489.1,267.5,476.2,265.8z"/>
<path display="none" fill="#2B3B47" d="M283.8,371.2c0,0-10.5,0.5-27.9,0.5s-27.9-0.5-27.9-0.5s1.5-25.1,27.9-25.1
	S283.8,371.2,283.8,371.2z"/>
<path fill="#2B3B47" d="M255.8,383c-17.5,0-28-0.5-28.5-0.5c-3-0.1-5.8-1.5-7.9-3.7c-2-2.2-3.1-5.2-2.9-8.2
	c0.9-14.4,12-35.7,39.2-35.7c27.2,0,38.3,21.3,39.2,35.7c0.2,3-0.9,6-2.9,8.2c-2,2.2-4.8,3.6-7.9,3.7
	C283.9,382.5,273.3,383,255.8,383z"/>
<path fill="#2B3B47" d="M171,260.1h-51.9c-6.8,0-12.4-5.5-12.4-12.4c0-6.8,5.5-12.4,12.4-12.4H171c6.8,0,12.4,5.5,12.4,12.4
	C183.4,254.6,177.9,260.1,171,260.1z"/>
<path fill="#2B3B47" d="M392.6,260.1h-51.9c-6.8,0-12.4-5.5-12.4-12.4c0-6.8,5.5-12.4,12.4-12.4h51.9c6.8,0,12.4,5.5,12.4,12.4
	C405,254.6,399.4,260.1,392.6,260.1z"/>
<path fill="#00BEEA" d="M114.2,70.3l26.3,66.2c6.3,20.9-5.5,42.9-26.3,49.3c-20.9,6.3-42.9-5.5-49.3-26.3c-2.4-7.8-2.2-15.7,0-22.9
	l26.3-66.2c1.9-6.4,8.6-9.9,15-8C110.1,63.5,113,66.6,114.2,70.3z"/>
</svg>
