<?xml version="1.0" encoding="utf-8"?>
<!-- Generator: Adobe Illustrator 18.0.0, SVG Export Plug-In . SVG Version: 6.00 Build 0)  -->
<!DOCTYPE svg PUBLIC "-//W3C//DTD SVG 1.1//EN" "http://www.w3.org/Graphics/SVG/1.1/DTD/svg11.dtd">
<svg version="1.1" id="Layer_1" xmlns="http://www.w3.org/2000/svg" xmlns:xlink="http://www.w3.org/1999/xlink" x="0px" y="0px"
	 width="511.9px" height="511.9px" viewBox="0 0 511.9 511.9" enable-background="new 0 0 511.9 511.9" xml:space="preserve">
<path fill="#2B3B47" d="M135.4,223.5c14.5,0,26.3-8.8,26.3,5.7v52.1c0,14.5-11.8,26.3-26.3,26.3l0,0c-14.5,0-26.3-11.8-26.3-26.3
	v-58.9c0-14.5,11.8-12.4,26.3-12.4V223.5z"/>
<path fill="#2B3B47" d="M374.1,216.7c14.5,0,26.3-8.8,26.3,5.7v58.9c0,14.5-11.8,26.3-26.3,26.3l0,0c-14.5,0-26.3-11.8-26.3-26.3
	v-45.3C347.8,221.4,359.6,216.7,374.1,216.7L374.1,216.7z"/>
<path fill="#2B3B47" d="M253.9,403.5c-17.7,0-35.5-3.9-51.6-11.8c-6-3-8.5-10.2-5.5-16.2c3-6,10.2-8.4,16.2-5.5
	c33.3,16.4,75.4,11,102.2-13.3c5-4.5,12.6-4.1,17.1,0.9c4.5,5,4.1,12.6-0.9,17.1C310.5,393.6,282.3,403.5,253.9,403.5z"/>
</svg>
