<?xml version="1.0" encoding="utf-8"?>
<!-- Generator: Adobe Illustrator 18.1.0, SVG Export Plug-In . SVG Version: 6.00 Build 0)  -->
<!DOCTYPE svg PUBLIC "-//W3C//DTD SVG 1.0//EN" "http://www.w3.org/TR/2001/REC-SVG-20010904/DTD/svg10.dtd">
<svg version="1.0" id="Layer_1" xmlns="http://www.w3.org/2000/svg" xmlns:xlink="http://www.w3.org/1999/xlink" x="0px" y="0px"
	 width="72px" height="72px" viewBox="0 0 72 72" enable-background="new 0 0 72 72" xml:space="preserve">
<path fill="#357BA8" d="M66.7,44.5c-0.3-0.5-0.6-0.9-1-1.3c-3.5-3.5-10.8-1.7-16.4,3.9c-5.6,5.6-7.4,13-3.9,16.4
	c0.3,0.3,0.5,0.5,0.8,0.7l7.8,7.8h17.8L72,49.8L66.7,44.5z"/>
<path fill="#357BA8" d="M22.6,47.1c-5.6-5.6-13-7.4-16.4-3.9c-0.4,0.4-0.7,0.8-1,1.3l-5.3,5.3L0,72h17.8l7.8-7.8
	c0.3-0.2,0.6-0.4,0.8-0.7C30,60,28.2,52.7,22.6,47.1z"/>
</svg>
