<?xml version="1.0" encoding="utf-8"?>
<!-- Generator: Adobe Illustrator 18.0.0, SVG Export Plug-In . SVG Version: 6.00 Build 0)  -->
<!DOCTYPE svg PUBLIC "-//W3C//DTD SVG 1.1 Tiny//EN" "http://www.w3.org/Graphics/SVG/1.1/DTD/svg11-tiny.dtd">
<svg version="1.1" baseProfile="tiny" id="Layer_1" xmlns="http://www.w3.org/2000/svg" xmlns:xlink="http://www.w3.org/1999/xlink"
	 x="0px" y="0px" width="511.9px" height="511.9px" viewBox="0 0 511.9 511.9" xml:space="preserve">
<path fill="#F2A74E" d="M402.6,152.4c-2.1,0-4.2-0.9-5.7-2.6c-13.2-14.9-31.5-19.1-47.9-11c-3.8,1.9-8.3,0.3-10.2-3.4
	c-1.9-3.8-0.3-8.3,3.4-10.2c22.8-11.3,48.1-5.7,66,14.5c2.8,3.1,2.5,8-0.7,10.7C406.2,151.8,404.4,152.4,402.6,152.4z"/>
<path fill="#F2A74E" d="M116.9,152.4c-1.8,0-3.6-0.6-5-1.9c-3.1-2.8-3.4-7.6-0.7-10.7c18-20.3,43.3-25.8,66-14.5
	c3.8,1.9,5.3,6.4,3.4,10.2c-1.9,3.8-6.4,5.3-10.2,3.4c-16.3-8.1-34.7-3.9-47.9,11C121.1,151.5,119,152.4,116.9,152.4z"/>
<path fill="#F2A74E" d="M344.5,275.5c-2.8,0-5.5-1.5-6.8-4.2c-1.9-3.8-0.3-8.3,3.4-10.2c16.1-8,34.5-8.2,50.5-0.7
	c3.8,1.8,5.4,6.3,3.6,10.1c-1.8,3.8-6.3,5.4-10.1,3.6c-11.7-5.6-25.3-5.4-37.2,0.5C346.8,275.2,345.6,275.5,344.5,275.5z"/>
<path fill="#F2A74E" d="M125.9,275.5c-2.8,0-5.5-1.5-6.8-4.2c-1.9-3.8-0.3-8.3,3.4-10.2c16.1-8,34.5-8.2,50.5-0.7
	c3.8,1.8,5.4,6.3,3.6,10.1c-1.8,3.8-6.3,5.4-10.1,3.6c-11.7-5.6-25.3-5.4-37.2,0.5C128.2,275.2,127.1,275.5,125.9,275.5z"/>
</svg>
