<?xml version="1.0" encoding="utf-8"?>
<!-- Generator: Adobe Illustrator 18.0.0, SVG Export Plug-In . SVG Version: 6.00 Build 0)  -->
<!DOCTYPE svg PUBLIC "-//W3C//DTD SVG 1.1 Tiny//EN" "http://www.w3.org/Graphics/SVG/1.1/DTD/svg11-tiny.dtd">
<svg version="1.1" baseProfile="tiny" id="Layer_1" xmlns="http://www.w3.org/2000/svg" xmlns:xlink="http://www.w3.org/1999/xlink"
	 x="0px" y="0px" width="511.9px" height="511.9px" viewBox="0 0 511.9 511.9" xml:space="preserve">
<path fill="#FFB636" d="M476.7,282c0.1-3.2,0.2-6.4,0.2-9.6c0-58.6-23-111.9-60.5-151.2c21.2,34.4,33.5,74.8,33.5,118.2
	c0,124.5-101,225.5-225.5,225.5c-43.3,0-83.8-12.2-118.2-33.4c39.4,37.5,92.6,60.5,151.2,60.5c99.8,0,184-66.6,210.6-157.9h4.7
	c14.5,0,26.2-11.7,26.2-26.2C498.9,294.7,489.3,283.9,476.7,282z"/>
</svg>
