<?xml version="1.0" encoding="utf-8"?>
<!-- Generator: Adobe Illustrator 18.1.0, SVG Export Plug-In . SVG Version: 6.00 Build 0)  -->
<!DOCTYPE svg PUBLIC "-//W3C//DTD SVG 1.0//EN" "http://www.w3.org/TR/2001/REC-SVG-20010904/DTD/svg10.dtd">
<svg version="1.0" id="Layer_1" xmlns="http://www.w3.org/2000/svg" xmlns:xlink="http://www.w3.org/1999/xlink" x="0px" y="0px"
	 width="72px" height="72px" viewBox="0 0 72 72" enable-background="new 0 0 72 72" xml:space="preserve">
<g>
	<path fill="#2B3B47" d="M32.9,45.7c0,0,0.4,0,1,0c0.6,0,1.3,0,2.1,0c0.8,0,1.5,0,2.1,0c0.6,0,1-0.1,1-0.1c1.2-0.1,2.3,0.8,2.4,2.1
		c0.1,0.6-0.2,1.3-0.6,1.7l-1.9,2.1c0,0-0.4,0.4-1,0.7c-0.3,0.2-0.6,0.3-1,0.4c-0.2,0.1-0.4,0.1-0.6,0.1c-0.2,0-0.4,0-0.6,0
		c-0.2,0-0.4,0-0.6,0c-0.2,0-0.4-0.1-0.6-0.1c-0.2,0-0.4-0.1-0.5-0.2c-0.2,0-0.3-0.1-0.5-0.2c-0.6-0.3-1-0.6-1-0.6l-1.8-1.8
		c-0.9-0.9-0.9-2.4,0-3.3C31.6,45.9,32.3,45.6,32.9,45.7z"/>
</g>
<path fill="#2B3B47" d="M57.3,20.1c3.6-8,10-11.5,11.5-12.3c0,0,0-0.1,0-0.1c-0.1,0-0.2,0-0.3,0c-0.1,0-0.3,0-0.4,0
	c-0.2,0-0.4,0-0.6,0c-0.1,0-0.1,0-0.2,0c-5.1,0.4-9.5,3.3-12.3,8.1c-0.4,0.6-0.7,1.3-1,1.9C55.2,18.5,56.3,19.2,57.3,20.1z"/>
<path fill="#2B3B47" d="M14.7,20.1c1.1-0.9,2.3-1.8,3.6-2.5c-0.2-0.7-0.5-1.3-0.9-1.8c-3.1-5.2-8.6-8.1-14.2-8.1
	c-0.1,0-0.1,0.1,0,0.2C4.7,8.5,11.1,12.1,14.7,20.1z"/>
<path fill="#2B3B47" d="M40.2,58.2c-0.2-1.1-1.2-3-4.2-3c-3.1,0-4.1,2.1-4.2,3.2c0,0.2,0.1,0.5,0.3,0.6c0.2,0.1,0.4,0.1,0.6,0
	c0,0,1.3-0.6,3.3-0.6c2,0,3.2,0.6,3.3,0.6c0.1,0,0.2,0.1,0.3,0.1c0,0,0,0,0,0c0.4,0,0.7-0.3,0.7-0.7C40.2,58.4,40.2,58.3,40.2,58.2z
	"/>
<path fill="#2B3B47" d="M22.1,42.7c0-0.1-0.1-0.2-0.1-0.4c-0.9-2-2.7-3.3-4.8-3.3s-3.9,1.3-4.8,3.3c-0.1,0.1-0.1,0.2-0.1,0.4
	c-0.3,0.6-0.2,1.3,0.4,1.8c0.3,0.3,0.6,0.4,1,0.4c0.4,0,0.8-0.2,1.1-0.5c0.6-0.7,1.5-1.1,2.4-1.1c0,0,0,0,0,0c0.9,0,1.8,0.4,2.4,1.1
	c0.6,0.6,1.5,0.7,2.1,0.1C22.3,44,22.4,43.3,22.1,42.7z"/>
<path fill="#2B3B47" d="M59.6,42.7c0-0.1-0.1-0.2-0.1-0.4c-0.9-2-2.7-3.3-4.8-3.3c0,0,0,0,0,0c-2.1,0-3.9,1.3-4.8,3.3
	c-0.1,0.1-0.1,0.2-0.1,0.4c-0.3,0.6-0.2,1.3,0.4,1.8c0.6,0.6,1.6,0.5,2.1-0.1c0.6-0.7,1.5-1.1,2.4-1.1c0,0,0,0,0,0
	c0.9,0,1.8,0.4,2.4,1.1c0.3,0.3,0.7,0.5,1.1,0.5c0.4,0,0.7-0.1,1-0.4C59.8,44,59.9,43.3,59.6,42.7z"/>
</svg>
