<?xml version="1.0" encoding="iso-8859-1"?>
<!-- Generator: Adobe Illustrator 19.1.0, SVG Export Plug-In . SVG Version: 6.00 Build 0)  -->
<!DOCTYPE svg PUBLIC "-//W3C//DTD SVG 1.1//EN" "http://www.w3.org/Graphics/SVG/1.1/DTD/svg11.dtd">
<svg version="1.1" xmlns="http://www.w3.org/2000/svg" xmlns:xlink="http://www.w3.org/1999/xlink" x="0px" y="0px"
	 viewBox="0 0 511.92 511.92" enable-background="new 0 0 511.92 511.92" xml:space="preserve">
<g id="Layer_6">
	<path fill="#D32A2A" d="M480.098,57.126c-0.434-4.309-0.741-7.779-1.33-10.73c-1.438-6.025-2.397-9.054-2.397-9.054
		c-0.624-1.965-1.903-3.746-3.759-4.968c-4.298-2.829-10.076-1.639-12.905,2.659l-1.52,2.309c0,0-1.316,1.999-3.619,5.498
		c-1.232,1.638-3.115,3.617-4.926,5.626c-2.058,2.042-4.618,4.248-7.258,6.416c-3.11,2.176-5.825,4.409-9.576,6.482
		c-1.746,1.005-3.541,2.037-5.374,3.092c-1.933,0.93-3.908,1.88-5.917,2.847c-3.889,1.867-8.328,3.422-12.489,4.875
		c-4.43,1.291-8.621,2.592-13.068,3.301c-3.68,0.841-7.478,1.151-11.03,1.439c11.295,8.162,21.769,17.382,31.314,27.488
		c20.268,34.006,32.927,76.009,32.927,118.323c0,125.107-101.431,226.506-226.543,226.506c-43.534,0-84.187-12.284-118.723-33.601
		c39.556,37.664,93.043,60.821,151.954,60.821c121.781,0,220.497-98.723,220.497-220.508c0-38.026-10.107-74.843-27.396-106.811
		c0.709,1.281,1.423,2.559,2.107,3.855c2.084-3.157,4.065-6.352,5.843-9.651c3.679-6.154,6.656-12.71,9.497-18.93
		c2.639-6.462,5.101-12.594,6.931-18.874c0.881-3.088,1.747-6.124,2.595-9.096c0.726-3.039,1.315-6.067,1.891-8.923
		c1.264-5.583,1.657-11.468,2.2-16.363C480.258,65.911,480.331,61.273,480.098,57.126z"/>
</g>
<g id="Layer_1">
</g>
</svg>
