<?xml version="1.0" encoding="utf-8"?>
<!-- Generator: Adobe Illustrator 18.0.0, SVG Export Plug-In . SVG Version: 6.00 Build 0)  -->
<!DOCTYPE svg PUBLIC "-//W3C//DTD SVG 1.1 Tiny//EN" "http://www.w3.org/Graphics/SVG/1.1/DTD/svg11-tiny.dtd">
<svg version="1.1" baseProfile="tiny" id="Layer_1" xmlns="http://www.w3.org/2000/svg" xmlns:xlink="http://www.w3.org/1999/xlink"
	 x="0px" y="0px" width="511.9px" height="511.9px" viewBox="0 0 511.9 511.9" xml:space="preserve">
<path fill="#E583C9" d="M425.2,451.7c-11.4-36.3-43.4-104.8-117.4-104.8c-19.2,0-34.8,17.6-34.8,39.4c0,4.6,0.7,9.1,2,13.2h-27.3
	c1.3-4.1,2-8.6,2-13.2c0-21.7-15.6-39.4-34.8-39.4c-74,0-106,68.5-117.4,104.8c-4.2,13.3,19.9,24.4,38.5,26c0,0.2,0,0.3,0,0.5
	c0,0.5,0,1,0.1,1.4l-0.1,2.3h0.8c6.8,16.9,59.5,30.1,123.5,30.1c64,0,116.7-13.2,123.5-30.1h0.8l-0.1-2.3c0.1-0.5,0.1-0.9,0.1-1.4
	c0-0.1,0-0.2,0-0.4C403.4,477,429.6,465.5,425.2,451.7z"/>
</svg>
