<?xml version="1.0" encoding="utf-8"?>
<!-- Generator: Adobe Illustrator 18.0.0, SVG Export Plug-In . SVG Version: 6.00 Build 0)  -->
<!DOCTYPE svg PUBLIC "-//W3C//DTD SVG 1.1 Tiny//EN" "http://www.w3.org/Graphics/SVG/1.1/DTD/svg11-tiny.dtd">
<svg version="1.1" baseProfile="tiny" id="Layer_1" xmlns="http://www.w3.org/2000/svg" xmlns:xlink="http://www.w3.org/1999/xlink"
	 x="0px" y="0px" width="511.9px" height="511.9px" viewBox="0 0 511.9 511.9" xml:space="preserve">
<path fill="#FFFFFF" d="M311.7,282.3c-0.3-0.3-0.6-0.7-1-1c-0.9-1-1.9-2-2.9-3c-0.7-0.7-1.5-1.5-2.3-2.2c-1-0.9-2.1-1.8-3.1-2.7
	c-0.8-0.7-1.7-1.4-2.5-2c-1.1-0.8-2.2-1.6-3.4-2.4c-0.9-0.6-1.8-1.2-2.7-1.8c-1.2-0.7-2.4-1.4-3.6-2.1c-1-0.5-1.9-1.1-3-1.6
	c-1.3-0.6-2.6-1.2-4-1.7c-1-0.4-2-0.9-3.1-1.3c-1.4-0.5-2.9-0.9-4.4-1.3c-1.1-0.3-2.1-0.7-3.2-0.9c-1.6-0.4-3.4-0.6-5.1-0.9
	c-1-0.2-2-0.4-3-0.5c-2.5-0.3-5-0.4-7.6-0.4c-0.3,0-0.6-0.1-0.9-0.1c-24.3,0-42.8,11.5-56.1,26.3c13.3,1,31.9,1,56.5,1
	C280.3,283.7,298.5,283.3,311.7,282.3z"/>
</svg>
