<?xml version="1.0" encoding="utf-8"?>
<!-- Generator: Adobe Illustrator 18.0.0, SVG Export Plug-In . SVG Version: 6.00 Build 0)  -->
<!DOCTYPE svg PUBLIC "-//W3C//DTD SVG 1.1 Tiny//EN" "http://www.w3.org/Graphics/SVG/1.1/DTD/svg11-tiny.dtd">
<svg version="1.1" baseProfile="tiny" id="Layer_1" xmlns="http://www.w3.org/2000/svg" xmlns:xlink="http://www.w3.org/1999/xlink"
	 x="0px" y="0px" width="511.9px" height="511.9px" viewBox="0 0 511.9 511.9" xml:space="preserve">
<path fill="#FF473E" d="M202.2,225.1c4.3-3.6,8-8.3,10.6-14.1c5.7-13,3.3-28.5-5.9-39.2c-15.9-18.3-43.4-17.2-57.9,0.7
	c-1.3,1.6-2.4,3.3-3.4,5c-1.3-1.5-2.7-2.9-4.3-4.2c-8.1-6.5-18-9.2-27.6-8.2c-11.7,1.2-22.8,7.9-29.2,19.6
	c-6.2,11.4-5.9,25.6,0.8,36.8c4,6.8,9.4,11.5,15.4,14.5l48.5,31.4c4,2.6,9.2,2,12.6-1.4L202.2,225.1z"/>
<path fill="#FF473E" d="M306.9,225.1c-4.3-3.6-8-8.3-10.6-14.1c-5.7-13-3.3-28.5,5.9-39.2c15.9-18.3,43.4-17.2,57.9,0.7
	c1.3,1.6,2.4,3.3,3.4,5c1.3-1.5,2.7-2.9,4.3-4.2c8.1-6.5,18-9.2,27.6-8.2c11.7,1.2,22.8,7.9,29.2,19.6c6.2,11.4,5.9,25.6-0.8,36.8
	c-4,6.8-9.4,11.5-15.4,14.5l-48.5,31.4c-4,2.6-9.2,2-12.6-1.4L306.9,225.1z"/>
<path fill="#FFFFFF" d="M178.2,316.6c10.6,1,23,2.8,36.3,3.5c13.3,0.9,27.4,1.1,41.6,1.3c14.1-0.2,28.3-0.4,41.6-1.3
	c13.3-0.7,25.6-2.5,36.3-3.5c10.6-1,19.5-3.1,25.6-4c4.9-0.9,8.1-1.7,9.2-2c-6.2-0.4-12.4-0.8-18.6-1.2l-31.4-1.2
	c-20.9-0.7-41.9-0.6-62.8-1c-20.9,0.4-41.9,0.3-62.8,1l-31.4,1.2c-6.1,0.4-12.3,0.8-18.4,1.2c1.1,0.3,4.3,1.1,9.2,2
	C158.7,313.5,167.6,315.6,178.2,316.6z"/>
<path fill="#FF473E" d="M310,382c0.1,0,0.1,0,0.2-0.1c-15.9-11.2-34.6-7.5-54.2-5.1l-0.1,0l-0.1,0c-19.6-2.4-38.3-6-54.2,5.1
	c0.1,0,0.1,0,0.2,0.1c-0.1,0-0.1,0-0.2,0.1c17.8,7.9,35.6,11.7,53.3,11.8c0.3,0,0.6,0,0.9,0l0.1,0l0.1,0c0.3,0,0.6,0,0.9,0
	c17.8-0.1,35.6-3.9,53.3-11.8C310.1,382.1,310.1,382.1,310,382z"/>
</svg>
