<?xml version="1.0" encoding="utf-8"?>
<!-- Generator: Adobe Illustrator 16.0.4, SVG Export Plug-In . SVG Version: 6.00 Build 0)  -->
<!DOCTYPE svg PUBLIC "-//W3C//DTD SVG 1.1//EN" "http://www.w3.org/Graphics/SVG/1.1/DTD/svg11.dtd">
<svg version="1.1" id="Layer_1" xmlns="http://www.w3.org/2000/svg" xmlns:xlink="http://www.w3.org/1999/xlink" x="0px" y="0px"
	 width="500px" height="500px" viewBox="0 0 500 500" enable-background="new 0 0 500 500" xml:space="preserve">
<path fill="#ECA4C9" d="M250.1,30c-121.5,0-220,98.5-220,220c0,3.5,0.1,7,0.3,10.5C17.4,262.1,7.4,273,7.4,286.3
	c0,14.4,11.7,26.1,26.1,26.1h5.5C66,403.5,150.3,470,250.1,470c121.5,0,220-98.5,220-220C470.1,128.5,371.6,30,250.1,30"/>
<path fill="#D278B1" d="M167.7,173.6c-2.1,0-4.2-0.9-5.7-2.6c-5.8-6.5-14.1-10.2-22.8-10.2h0c-8.8,0-17.1,3.7-22.9,10.2
	c-2.8,3.1-7.6,3.4-10.7,0.6c-3.1-2.8-3.4-7.6-0.6-10.7c8.6-9.8,21.1-15.3,34.2-15.3h0c13.1,0,25.6,5.6,34.2,15.3
	c2.8,3.1,2.5,7.9-0.6,10.7C171.3,173,169.5,173.6,167.7,173.6"/>
<path fill="#D278B1" d="M330.4,173.6c-1.8,0-3.6-0.6-5-1.9c-3.1-2.8-3.4-7.6-0.6-10.7c8.6-9.8,21.1-15.3,34.2-15.3h0
	c13.1,0,25.6,5.6,34.2,15.3c2.8,3.1,2.5,7.9-0.7,10.7c-3.1,2.8-7.9,2.5-10.7-0.6c-5.8-6.5-14.1-10.2-22.8-10.2h0
	c-8.8,0-17.1,3.7-22.9,10.2C334.6,172.8,332.5,173.6,330.4,173.6"/>
<path fill="#2C3C48" d="M250.1,369.8c-32.8,0-65.6-11.3-90.6-33.9c-4.8-4.4-5.2-11.8-0.8-16.7c4.4-4.8,11.8-5.2,16.7-0.8
	c41.2,37.3,108.3,37.3,149.5,0c4.8-4.4,12.3-4,16.7,0.8c4.4,4.8,4,12.3-0.8,16.7C315.8,358.5,282.9,369.8,250.1,369.8"/>
<path fill="#2C3C48" d="M171.4,227c-6-13.6-18.4-22.1-32.2-22.1c-13.8,0-26.2,8.5-32.2,22.1c-0.4,0.9-0.6,1.8-0.7,2.8
	c-1.7,3.9-0.9,8.7,2.5,11.7c4.2,3.7,10.7,3.3,14.4-0.9c4.1-4.6,9.9-7.2,16.1-7.2h0c6.2,0,12.1,2.6,16.1,7.2c2,2.3,4.8,3.4,7.6,3.4
	c2.4,0,4.8-0.8,6.8-2.6c3.4-3,4.2-7.7,2.5-11.6C172,228.8,171.8,227.9,171.4,227"/>
<path fill="#2C3C48" d="M392,229.7c-0.1-0.9-0.3-1.9-0.7-2.8c-6.1-13.6-18.4-22.1-32.2-22.1c-13.8,0-26.2,8.5-32.2,22.1
	c-0.4,0.9-0.6,1.8-0.7,2.8c-1.7,3.9-0.9,8.6,2.5,11.6c4.2,3.7,10.7,3.3,14.4-0.9c4.1-4.6,9.9-7.2,16.1-7.2h0
	c6.2,0,12.1,2.6,16.2,7.2c2,2.3,4.8,3.4,7.6,3.4c2.4,0,4.8-0.8,6.7-2.6C392.9,238.4,393.7,233.7,392,229.7"/>
<path fill="#D985B8" d="M469.8,259.8c0.1-3.3,0.2-6.5,0.2-9.8c0-58.8-23.1-112.1-60.7-151.6c21.3,34.4,33.5,75,33.5,118.4
	c0,124.8-101.2,226-226,226c-43.4,0-84-12.3-118.4-33.5c39.5,37.6,92.8,60.6,151.6,60.6c100.1,0,184.4-66.8,211.1-158.2h5.2
	c14.4,0,26.1-11.7,26.1-26.1C492.5,272.4,482.6,261.5,469.8,259.8"/>
</svg>
