<?xml version="1.0" encoding="utf-8"?>
<!-- Generator: Adobe Illustrator 18.0.0, SVG Export Plug-In . SVG Version: 6.00 Build 0)  -->
<!DOCTYPE svg PUBLIC "-//W3C//DTD SVG 1.1 Tiny//EN" "http://www.w3.org/Graphics/SVG/1.1/DTD/svg11-tiny.dtd">
<svg version="1.1" baseProfile="tiny" id="Layer_1" xmlns="http://www.w3.org/2000/svg" xmlns:xlink="http://www.w3.org/1999/xlink"
	 x="0px" y="0px" width="511.9px" height="511.9px" viewBox="0 0 511.9 511.9" xml:space="preserve">
<path fill="#FFD469" d="M255.9,24c-128.1,0-232,103.9-232,232c0,3.4,0.1,6.9,0.2,10.3C10.6,268,0.2,279.5,0.2,293.5
	c0,15.2,12.3,27.6,27.6,27.6h5.4c28.2,96.4,117.2,166.8,222.7,166.8c128.1,0,232-103.8,232-232C487.8,127.8,384,24,255.9,24z"/>
<path fill="#2B3B47" d="M371.4,175.5c14.1,0,25.5,11.4,25.5,25.5v57.1c0,14.1-11.4,0.2-25.5,0.2l0,0c-14.1,0-25.5,13.9-25.5-0.2V201
	C345.9,186.9,357.3,175.5,371.4,175.5L371.4,175.5z"/>
<path fill="#F2A74E" d="M348.2,272.2c-2.9,0-5.8-1.6-7.2-4.4c-2-4-0.3-8.8,3.6-10.7c17-8.4,36.4-8.7,53.3-0.7
	c4,1.9,5.7,6.7,3.8,10.7c-1.9,4-6.7,5.7-10.7,3.8c-12.4-5.9-26.7-5.7-39.3,0.6C350.6,271.9,349.4,272.2,348.2,272.2z"/>
<path fill="#2B3B47" d="M140.5,175.5c14.1,0,25.5,11.4,25.5,25.5v57.1c0,14.1-11.4,0.2-25.5,0.2l0,0c-14.1,0-25.5,13.9-25.5-0.2V201
	C115,186.9,126.4,175.5,140.5,175.5L140.5,175.5z"/>
<path fill="#F2A74E" d="M117.3,272.2c-2.9,0-5.8-1.6-7.2-4.4c-2-4-0.3-8.8,3.6-10.7c17-8.4,36.4-8.7,53.3-0.7
	c4,1.9,5.7,6.7,3.8,10.7c-1.9,4-6.7,5.7-10.7,3.8c-12.4-5.9-26.7-5.7-39.3,0.6C119.7,271.9,118.5,272.2,117.3,272.2z"/>
<path fill="#FFB636" d="M487.6,266.2c0.1-3.4,0.2-6.8,0.2-10.3c0-62-24.3-118.3-64-159.8c22.4,36.3,35.4,79.1,35.4,124.9
	c0,131.6-106.7,238.3-238.3,238.3c-45.8,0-88.6-13-124.9-35.4c41.6,39.6,97.9,63.9,159.9,63.9c105.5,0,194.6-70.4,222.7-166.8h5.4
	c15.2,0,27.6-12.3,27.6-27.6C511.5,279.5,501.1,268,487.6,266.2z"/>
<path fill="#2B3B47" d="M253.9,382.3c-18.1,0-35.2-7.3-46.8-20.1c-4-4.4-3.6-11.1,0.8-15.1c4.4-4,11.1-3.6,15.1,0.8
	c7.6,8.3,18.8,13.1,31,13.1c0.1,0,0.2,0,0.3,0c12.2-0.1,23.4-4.9,30.9-13.4c3.9-4.4,10.6-4.8,15.1-0.9c4.4,3.9,4.8,10.6,0.9,15.1
	c-11.5,13-28.5,20.5-46.7,20.6C254.1,382.3,254,382.3,253.9,382.3z"/>
</svg>
