<?xml version="1.0" encoding="utf-8"?>
<!-- Generator: Adobe Illustrator 18.0.0, SVG Export Plug-In . SVG Version: 6.00 Build 0)  -->
<!DOCTYPE svg PUBLIC "-//W3C//DTD SVG 1.1//EN" "http://www.w3.org/Graphics/SVG/1.1/DTD/svg11.dtd">
<svg version="1.1" id="Layer_1" xmlns="http://www.w3.org/2000/svg" xmlns:xlink="http://www.w3.org/1999/xlink" x="0px" y="0px"
	 width="511.9px" height="511.9px" viewBox="0 0 511.9 511.9" enable-background="new 0 0 511.9 511.9" xml:space="preserve">
<path fill="#FFD469" d="M255.9,35.3C134,35.3,35.2,134.1,35.2,256c0,3.3,0.1,6.6,0.2,9.9c-12.8,1.7-22.8,12.6-22.8,25.9
	c0,14.5,11.7,26.2,26.2,26.2h5.2c26.8,91.7,111.4,158.7,211.7,158.7c121.8,0,220.6-98.8,220.6-220.6
	C476.5,134.1,377.7,35.3,255.9,35.3z"/>
<path fill="#2B3B47" d="M416.9,312.8c-5.5-0.5-10.9-0.9-16.4-1.2c-1.5,0.4-5.6,1.4-11.8,2.6c-7.9,1.1-19.3,3.9-32.9,5.2
	c-13.6,1.2-29.5,3.6-46.5,4.4c-17,1.2-35.1,1.4-53.3,1.7c-18.1-0.3-36.3-0.5-53.3-1.7c-17-0.9-32.9-3.2-46.5-4.4
	c-13.6-1.3-24.9-4-32.9-5.1c-6.3-1.2-10.4-2.2-11.8-2.5c-5.6,0.4-11.1,0.7-16.7,1.2c-0.7,0-1.3,0.3-1.9,0.7c-1.8,1.3-2.3,4-1,5.9
	l2.9,4.5c6.7,10.1,13.4,18.9,20.1,26.2c6.7,7.6,13.4,14,20.1,20c13.4,11.8,26.8,20.6,40.3,27.9c3.7,1.9,7.3,3.4,11,5
	c20.4-14.3,44.1,5,69.5,5c25.4,0,49.2-19.2,69.6-4.8c3.6-1.6,7.3-3,10.9-4.9c13.4-7.4,26.8-16.1,40.3-28
	c6.7-6.1,13.4-12.5,20.1-20.1c6.7-7.4,13.4-16.1,20.1-26.3l2.9-4.5c0.4-0.6,0.6-1.3,0.7-2.1C420.7,315.1,419.1,313,416.9,312.8z"/>
<path fill="#FFFFFF" d="M156.2,319.3c13.6,1.2,29.5,3.6,46.5,4.4c17,1.2,35.1,1.4,53.3,1.7c18.1-0.3,36.3-0.5,53.3-1.7
	c17-0.8,32.9-3.2,46.5-4.4c13.6-1.2,24.9-4,32.9-5.2c6.3-1.2,10.4-2.2,11.8-2.6c-8-0.5-15.9-1-23.8-1.5l-40.3-1.6
	c-26.8-0.9-53.7-0.8-80.5-1.3c-26.9,0.5-53.7,0.4-80.5,1.3l-40.3,1.5c-7.9,0.6-15.7,1-23.6,1.5c1.5,0.4,5.6,1.4,11.8,2.5
	C131.3,315.3,142.6,318,156.2,319.3z"/>
<path fill="#FF473E" d="M325.3,403.2c0.1,0,0.1-0.1,0.2-0.1c-20.4-14.3-44.3-9.7-69.5-6.6l-0.1,0l-0.1,0
	c-25.2-3.1-49.1-7.7-69.5,6.6c0.1,0,0.1,0.1,0.2,0.1c-0.1,0-0.1,0.1-0.2,0.1c22.8,10.2,45.6,15,68.4,15.1c0.4,0,0.7,0.1,1.1,0.1
	l0.1,0l0.1,0c0.4,0,0.7-0.1,1.1-0.1c22.8-0.1,45.6-4.9,68.4-15.1C325.4,403.2,325.4,403.2,325.3,403.2z"/>
<path fill="#FFB636" d="M476.2,265.8c0.1-3.3,0.2-6.6,0.2-9.9c0-58.9-23.1-112.5-60.8-152c21.3,34.5,33.6,75.2,33.6,118.8
	c0,125.2-101.5,226.7-226.7,226.7c-43.6,0-84.2-12.3-118.8-33.6c39.6,37.7,93.1,60.8,152,60.8c100.3,0,185-67,211.7-158.7h5.2
	c14.5,0,26.2-11.7,26.2-26.2C499,278.4,489.1,267.5,476.2,265.8z"/>
<path fill="#F2A74E" d="M337.1,140.8c-1.8,0-3.6-0.6-5-1.9c-3.1-2.8-3.4-7.6-0.6-10.7c8.7-9.8,21.2-15.4,34.3-15.4c0,0,0,0,0,0
	c13.1,0,25.6,5.6,34.3,15.4c2.8,3.1,2.5,8-0.7,10.7c-3.1,2.8-7.9,2.5-10.7-0.7c-5.8-6.5-14.1-10.3-22.9-10.3c0,0,0,0,0,0
	c-8.8,0-17.1,3.7-22.9,10.3C341.3,140,339.2,140.8,337.1,140.8z"/>
<path fill="#2B3B47" d="M365.7,166.7c13.4,0,24.2,10.8,24.2,24.2v54.3c0,13.4-10.8,24.2-24.2,24.2l0,0c-13.4,0-24.2-10.8-24.2-24.2
	v-54.3C341.5,177.6,352.4,166.7,365.7,166.7L365.7,166.7z"/>
<path fill="#F2A74E" d="M117.5,140.8c-1.8,0-3.6-0.6-5-1.9c-3.1-2.8-3.4-7.6-0.6-10.7c8.7-9.8,21.2-15.4,34.3-15.4c0,0,0,0,0,0
	c13.1,0,25.6,5.6,34.3,15.4c2.8,3.1,2.5,8-0.7,10.7c-3.1,2.8-8,2.5-10.7-0.7c-5.8-6.5-14.1-10.3-22.9-10.3c0,0,0,0,0,0
	c-8.8,0-17.1,3.7-22.9,10.3C121.7,140,119.6,140.8,117.5,140.8z"/>
<path fill="#2B3B47" d="M146.1,166.7c13.4,0,24.2,10.8,24.2,24.2v54.3c0,13.4-10.8,24.2-24.2,24.2l0,0c-13.4,0-24.2-10.8-24.2-24.2
	v-54.3C121.9,177.6,132.7,166.7,146.1,166.7L146.1,166.7z"/>
</svg>
