<?xml version="1.0" encoding="utf-8"?>
<!-- Generator: Adobe Illustrator 18.0.0, SVG Export Plug-In . SVG Version: 6.00 Build 0)  -->
<!DOCTYPE svg PUBLIC "-//W3C//DTD SVG 1.1 Tiny//EN" "http://www.w3.org/Graphics/SVG/1.1/DTD/svg11-tiny.dtd">
<svg version="1.1" baseProfile="tiny" id="Layer_1" xmlns="http://www.w3.org/2000/svg" xmlns:xlink="http://www.w3.org/1999/xlink"
	 x="0px" y="0px" width="511.9px" height="511.9px" viewBox="0 0 511.9 511.9" xml:space="preserve">
<path fill="#2B3B47" d="M282.5,344.6c-0.1-0.5-0.5-1.2-1-1.6c-1.2-1-1.8-0.8-2.5-0.9c-1.2-0.1-11.5-3.8-14.9-3.8
	c-1.5,0-2.9,0.3-4.2,0.6c-2.4,0.5-4.8,0.5-7.2,0c-1.3-0.3-2.7-0.6-4.2-0.6c-3.4,0-14.2,3.8-14.2,3.8c-0.6,0.1-0.9-0.1-2.4,0.4
	c-0.1-0.2-1.8,1.3-1.8,1.9l0,0.1c0.1-0.8-0.2,1.1-0.1,0.9l0,0.1l0,0.2c0.1,0.5,0.2,0.9,0.4,1.4c0.3,1,0.7,1.1,1.1,1.7
	c2.9,3.4,6.1,4.5,9.2,6.2c1,0.4,2,0.7,3,1.1c3,2.4,7.4,3.9,12.6,3.9c5,0,9.3-1.4,12.3-3.6c1.9-0.7,3.8-1.3,5.3-2.2
	c1.9-0.9,3.6-2,4.9-3c0.7-0.6,1.2-1.1,1.8-1.6c0.7-0.8,1.2-1.6,1.5-2.3c0.3-0.9,0.3-1.1,0.4-1.2l0.1-0.7
	C282.6,345.3,282.7,345.1,282.5,344.6z M235.8,345C235.8,345,235.8,345,235.8,345C235.8,345,235.7,344.9,235.8,345z"/>
</svg>
