<?xml version="1.0" encoding="utf-8"?>
<!-- Generator: Adobe Illustrator 18.0.0, SVG Export Plug-In . SVG Version: 6.00 Build 0)  -->
<!DOCTYPE svg PUBLIC "-//W3C//DTD SVG 1.1 Tiny//EN" "http://www.w3.org/Graphics/SVG/1.1/DTD/svg11-tiny.dtd">
<svg version="1.1" baseProfile="tiny" id="Layer_1" xmlns="http://www.w3.org/2000/svg" xmlns:xlink="http://www.w3.org/1999/xlink"
	 x="0px" y="0px" width="511.9px" height="511.9px" viewBox="0 0 511.9 511.9" xml:space="preserve">
<path fill="#AF773F" d="M494.6,226.6c0-37.9-30.7-68.6-68.6-68.6c-7,0-13.8,1.1-20.2,3c-18.5-18.8-44.2-30.5-72.7-30.5
	c-23,0-44.1,7.6-61.1,20.4c-10.9,8.2-25.6,8.3-36.5,0c-19.6-14.8-44.7-22.7-71.8-19.9c-23.4,2.4-46.2,12.8-63,28.6
	C96,158.6,91,158,85.9,158c-37.9,0-68.6,30.7-68.6,68.6c0,37.5,30.1,68,67.5,68.5c27.3,83.3,99.9,115,169.7,115
	c76.7,0,148.3-33.6,172.1-114.9C464.2,294.8,494.6,264.3,494.6,226.6z"/>
</svg>
