<?xml version="1.0" encoding="utf-8"?>
<!-- Generator: Adobe Illustrator 18.0.0, SVG Export Plug-In . SVG Version: 6.00 Build 0)  -->
<!DOCTYPE svg PUBLIC "-//W3C//DTD SVG 1.1 Tiny//EN" "http://www.w3.org/Graphics/SVG/1.1/DTD/svg11-tiny.dtd">
<svg version="1.1" baseProfile="tiny" id="Layer_1" xmlns="http://www.w3.org/2000/svg" xmlns:xlink="http://www.w3.org/1999/xlink"
	 x="0px" y="0px" width="511.9px" height="511.9px" viewBox="0 0 511.9 511.9" xml:space="preserve">
<path fill="#68442A" d="M348.5,175.8c0-64.4-55.6-113.1-119.9-113.1c-64.4,0-113.1,48.7-113.1,113.1l2.2,33.5l0.5,70.2
	c0,0,0,0,0.1,0c1.1,35.9,15.5,73.2,15.5,73.2c0,6.4,24.7,10.6,56.9,12.5c-25.1-11.6-44.5-33.6-52.7-60.4c-0.1-0.4-0.2-0.7-0.3-1.1
	c-0.2-0.7-0.4-1.3-0.6-2c-0.1-0.4-0.2-0.9-0.3-1.3c-0.2-0.6-0.3-1.2-0.4-1.8c-0.1-0.5-0.2-1-0.3-1.5c-0.1-0.4-0.2-0.9-0.3-1.3
	c-0.3-1.4-0.5-2.8-0.8-4.2c0-0.1,0-0.2-0.1-0.4c-0.1-0.8-0.2-1.7-0.3-2.5c0-0.2,0-0.4-0.1-0.6c-0.1-0.9-0.2-1.7-0.3-2.6
	c0-0.1,0-0.2,0-0.3c-0.1-0.9-0.2-1.8-0.2-2.7c0-15.9,0-36.4,0-53.5c1.8-26.9,12.6-85.4,57.5-85.4c41.1,41.1,98.1,66.5,143,69
	l-4.2,63.4c0,1.4,0,2.9-0.1,4.3c0,0.4,0,0.9-0.1,1.3c-0.1,1-0.1,2-0.2,3c0,0.5-0.1,1-0.1,1.4c-0.1,1-0.2,2-0.4,3
	c-0.1,0.4-0.1,0.8-0.2,1.2c-0.2,1.4-0.4,2.8-0.7,4.1c0,0,0,0.1,0,0.1c-0.3,1.3-0.5,2.6-0.8,3.9c-0.1,0.4-0.2,0.8-0.3,1.1
	c-0.2,1-0.5,2-0.8,2.9c-0.1,0.4-0.2,0.8-0.3,1.2c-0.3,1-0.6,2.1-1,3.1c-0.1,0.3-0.2,0.6-0.3,0.9c-0.9,2.6-1.9,5.2-3,7.7
	c-0.1,0.3-0.3,0.6-0.4,0.8c-0.4,1-0.9,2-1.4,2.9c-0.1,0.3-0.3,0.6-0.4,0.9c-0.5,1.1-1.1,2.1-1.7,3.2c-0.1,0.1-0.2,0.3-0.2,0.4
	c-1.4,2.4-2.8,4.8-4.4,7.1c-0.1,0.2-0.3,0.4-0.4,0.6c-0.7,1-1.3,1.9-2,2.8c-0.2,0.2-0.3,0.4-0.5,0.6c-0.8,1-1.6,2.1-2.4,3.1
	c0,0-0.1,0.1-0.1,0.1c-0.9,1.1-1.8,2.2-2.8,3.3h0c-9.1,10.3-20.4,18.6-33.1,24.4c35.7-1.7,64.3-6,64.3-12.9c0,0,3.1-6.5,5.9-34.9
	C349,270.8,348.5,175.8,348.5,175.8z"/>
</svg>
