<?xml version="1.0" encoding="utf-8"?>
<!-- Generator: Adobe Illustrator 18.0.0, SVG Export Plug-In . SVG Version: 6.00 Build 0)  -->
<!DOCTYPE svg PUBLIC "-//W3C//DTD SVG 1.1 Tiny//EN" "http://www.w3.org/Graphics/SVG/1.1/DTD/svg11-tiny.dtd">
<svg version="1.1" baseProfile="tiny" id="Layer_1" xmlns="http://www.w3.org/2000/svg" xmlns:xlink="http://www.w3.org/1999/xlink"
	 x="0px" y="0px" width="511.9px" height="511.9px" viewBox="0 0 511.9 511.9" xml:space="preserve">
<path fill="#FFD469" d="M255.9,35.3C134,35.3,35.2,134.1,35.2,256c0,3.3,0.1,6.6,0.2,9.9c-12.8,1.7-22.8,12.6-22.8,25.9
	c0,14.5,11.7,26.2,26.2,26.2h5.2c26.8,91.7,111.4,158.7,211.7,158.7c121.8,0,220.6-98.8,220.6-220.6
	C476.5,134.1,377.7,35.3,255.9,35.3z"/>
<path fill="#FFB636" d="M476.2,265.8c0.1-3.3,0.2-6.6,0.2-9.9c0-58.9-23.1-112.5-60.8-152c21.3,34.5,33.6,75.2,33.6,118.8
	c0,125.2-101.5,226.7-226.7,226.7c-43.6,0-84.2-12.3-118.8-33.6c39.6,37.7,93.1,60.8,152,60.8c100.3,0,185-67,211.7-158.7h5.2
	c14.5,0,26.2-11.7,26.2-26.2C499,278.4,489.1,267.5,476.2,265.8z"/>
<path fill="#FFFFFF" d="M312,360.3c0,26.6-25.1-20.2-56.1-20.2s-56.1,46.8-56.1,20.2s25.1-48.1,56.1-48.1S312,333.8,312,360.3z"/>
<path fill="#2B3B47" d="M293.5,324.2h-75.1c-11.9,9.5-19.6,23.2-19.6,38.7c0,19.2,11.7,35.7,28.9,44.6c8.4-4.3,17.9-3,28.3-3
	c10.3,0,19.9-1.4,28.3,3c17.2-8.9,28.9-25.5,28.9-44.6C313.1,347.4,305.4,333.7,293.5,324.2z"/>
<path fill="#FF473E" d="M227.6,407.6c8.4,4.3,17.9,7,28.3,7c10.3,0,19.9-2.7,28.3-7c-8.4-4.3-17.9-3-28.3-3
	C245.6,404.6,236,403.2,227.6,407.6z"/>
<path fill="#F2A74E" d="M402.2,164.5c-2.1,0-4.2-0.9-5.8-2.6c-13.2-14.9-31.6-19.2-48-11c-3.8,1.9-8.4,0.3-10.3-3.5
	c-1.9-3.8-0.3-8.4,3.5-10.3c22.9-11.4,48.3-5.8,66.4,14.6c2.8,3.2,2.5,8-0.7,10.9C405.8,163.8,404,164.5,402.2,164.5z"/>
<path fill="#F2A74E" d="M115,164.5c-1.8,0-3.6-0.6-5.1-1.9c-3.2-2.8-3.5-7.7-0.7-10.9c18.1-20.4,43.5-26,66.4-14.6
	c3.8,1.9,5.4,6.5,3.5,10.3c-1.9,3.8-6.5,5.4-10.3,3.5c-16.4-8.1-34.8-3.9-48,11C119.3,163.6,117.1,164.5,115,164.5z"/>
<path fill="#2B3B47" d="M365.7,189.3c13.4,0,24.2,10.8,24.2,24.2v54.3c0,13.4-10.8,3-24.2,3l0,0c-13.4,0-24.2,10.3-24.2-3v-54.3
	C341.5,200.2,352.4,189.3,365.7,189.3L365.7,189.3z"/>
<path fill="#F2A74E" d="M343.7,281.3c-2.8,0-5.6-1.6-6.9-4.3c-1.9-3.8-0.3-8.4,3.5-10.3c16.2-8,34.7-8.3,50.8-0.7
	c3.8,1.8,5.5,6.4,3.6,10.2c-1.8,3.8-6.4,5.5-10.2,3.6c-11.8-5.6-25.4-5.4-37.3,0.5C346,281.1,344.9,281.3,343.7,281.3z"/>
<path fill="#2B3B47" d="M146.1,189.3c13.4,0,24.2,10.8,24.2,24.2v54.3c0,13.4-10.8,3-24.2,3l0,0c-13.4,0-24.2,10.3-24.2-3v-54.3
	C121.9,200.2,132.7,189.3,146.1,189.3L146.1,189.3z"/>
<path fill="#F2A74E" d="M124.1,281.3c-2.8,0-5.6-1.6-6.9-4.3c-1.9-3.8-0.3-8.4,3.5-10.3c16.2-8.1,34.7-8.3,50.8-0.7
	c3.8,1.8,5.5,6.4,3.6,10.2c-1.8,3.8-6.4,5.5-10.3,3.6c-11.8-5.6-25.4-5.4-37.3,0.5C126.4,281.1,125.2,281.3,124.1,281.3z"/>
</svg>
