<?xml version="1.0" encoding="utf-8"?>
<!-- Generator: Adobe Illustrator 18.0.0, SVG Export Plug-In . SVG Version: 6.00 Build 0)  -->
<!DOCTYPE svg PUBLIC "-//W3C//DTD SVG 1.1 Tiny//EN" "http://www.w3.org/Graphics/SVG/1.1/DTD/svg11-tiny.dtd">
<svg version="1.1" baseProfile="tiny" id="Layer_1" xmlns="http://www.w3.org/2000/svg" xmlns:xlink="http://www.w3.org/1999/xlink"
	 x="0px" y="0px" width="513px" height="511.9px" viewBox="0 0 513 511.9" xml:space="preserve">
<path fill="#FFD3B6" d="M401.2,201.9l2.6-15.8c0-80.5-65.3-134.2-145.8-134.2c-80.5,0-145.8,53.7-145.8,134.2l2.6,15.8
	c-14.8,2.8-25.9,15.8-25.9,31.4c0,17.7,14.3,32,32,32c0.9,0,1.9,0,2.8-0.1c12.1,60,67.6,94.2,134.3,94.2
	c66.7,0,122.2-34.2,134.3-94.2c0.9,0.1,1.9,0.1,2.8,0.1c17.6,0,32-14.3,32-32C427.2,217.7,416,204.7,401.2,201.9z"/>
<path fill="#FFD3B6" d="M508.5,387.3c-8.8-19-31.3-27.3-50.3-18.6l-0.4,0.2c0,0-22.1,10.2-44.2,20.4c-2.8,1.3-5.5,2.5-8.3,3.8
	c-2.7,1.2-5.5,2.6-7.9,3.6c-5,2.1-9.7,4.1-13.7,5.8c-8.1,3.4-13.5,5.7-13.5,5.7l-0.8,0.4c-0.2,0.1-0.4,0.2-0.6,0.3
	c-3.4-0.8-6.9-0.8-10.3,0l-3.7,0.9c0,0-36.3,6.2-66.4,16.5c-18.1,6.2-26.4,8.7-30.3,13.9c-3.9-5.2-12.2-7.7-30.3-13.9
	c-30.1-10.3-66.4-16.5-66.4-16.5l-3.7-0.9c-4.1-1-8.5-0.7-12.5,0.7c-0.6-0.3-1.2-0.6-1.9-0.9l-0.8-0.3c0,0-5.4-2.3-13.5-5.7
	c-4-1.7-8.7-3.7-13.7-5.8c-2.4-1-5.2-2.3-7.9-3.6c-2.7-1.3-5.5-2.5-8.3-3.8c-22.1-10.2-44.2-20.4-44.2-20.4l-0.6-0.3
	c-3.5-1.6-7.2-2.7-11.2-3.1C22.3,363,3.4,377.9,1,398.7c-2.5,20.8,12.4,39.7,33.2,42.2c0,0,24.2,2.9,48.5,5.8c3,0.4,6.1,0.7,9,1.1
	c3,0.3,5.8,0.7,8.9,1c6,0.5,11.5,1.1,16.3,1.5c9.5,0.8,15.8,1.4,15.8,1.4c2.1,0.2,4.3,0,6.3-0.4c5,3.7,11.5,8,19.7,12.6
	c22,12.2,39.1,16.3,43.7,10.2c5.7-7.7,1-9.9-6.6-15.5l39,6.2c8.6,2.1,18.6-0.9,23.5-7c4.9,6.1,14.9,9.1,23.5,7l39-6.2
	c-7.7,5.7-12.3,7.9-6.6,15.5c4.6,6.1,21.7,2,43.7-10.2c7.9-4.4,14.3-8.6,19.2-12.2c1.1,0.1,2.2,0.1,3.4,0c0,0,6.3-0.6,15.8-1.4
	c4.8-0.4,10.3-0.9,16.3-1.5c3.1-0.2,5.9-0.6,8.9-1c3-0.4,6-0.7,9-1.1c24.2-2.9,48.5-5.8,48.5-5.8c3.8-0.5,7.7-1.5,11.4-3.2
	C509,428.8,517.3,406.3,508.5,387.3z"/>
</svg>
