<?xml version="1.0" encoding="utf-8"?>
<!-- Generator: Adobe Illustrator 18.0.0, SVG Export Plug-In . SVG Version: 6.00 Build 0)  -->
<!DOCTYPE svg PUBLIC "-//W3C//DTD SVG 1.1 Tiny//EN" "http://www.w3.org/Graphics/SVG/1.1/DTD/svg11-tiny.dtd">
<svg version="1.1" baseProfile="tiny" id="Layer_1" xmlns="http://www.w3.org/2000/svg" xmlns:xlink="http://www.w3.org/1999/xlink"
	 x="0px" y="0px" width="511.9px" height="511.9px" viewBox="0 0 511.9 511.9" xml:space="preserve">
<path fill="#FFD469" d="M255.9,35.3C134,35.3,35.2,134.1,35.2,256c0,3.3,0.1,6.6,0.2,9.9c-12.8,1.7-22.8,12.6-22.8,25.9
	c0,14.5,11.7,26.2,26.2,26.2h5.2c26.8,91.7,111.4,158.7,211.7,158.7c121.8,0,220.6-98.8,220.6-220.6
	C476.5,134.1,377.7,35.3,255.9,35.3z"/>
<path fill="#FFB636" d="M476.2,265.8c0.1-3.3,0.2-6.6,0.2-9.9c0-58.9-23.1-112.5-60.8-152c21.3,34.5,33.6,75.2,33.6,118.8
	c0,125.2-101.5,226.7-226.7,226.7c-43.6,0-84.2-12.3-118.8-33.6c39.6,37.7,93.1,60.8,152,60.8c100.3,0,185-67,211.7-158.7h5.2
	c14.5,0,26.2-11.7,26.2-26.2C499,278.4,489.1,267.5,476.2,265.8z"/>
<path fill="#F2A74E" d="M400.2,226.1c-2.5,0-4.9-1.2-6.4-3.4c-4.8-7.2-12.6-12.1-21.2-13.3c-8.7-1.2-17.4,1.3-24,7
	c-3.2,2.8-8.1,2.4-10.8-0.8c-2.8-3.2-2.4-8.1,0.8-10.8c9.9-8.5,23.1-12.4,36.1-10.5c13,1.8,24.7,9.1,31.9,20
	c2.4,3.5,1.4,8.3-2.1,10.7C403.2,225.7,401.7,226.1,400.2,226.1z"/>
<path fill="#F2A74E" d="M104.3,226.1c-1.5,0-2.9-0.4-4.3-1.3c-3.5-2.4-4.5-7.1-2.1-10.7c7.3-10.9,18.9-18.2,31.9-20
	c13-1.8,26.2,2,36.1,10.5c3.2,2.8,3.6,7.6,0.8,10.8c-2.8,3.2-7.6,3.6-10.8,0.8c-6.6-5.6-15.4-8.2-24-7c-8.7,1.2-16.4,6-21.2,13.3
	C109.2,224.9,106.8,226.1,104.3,226.1z"/>
<path fill="#2B3B47" d="M298.1,374.3c-4.1-8.6-17.6-23.1-42.5-23.1c-24.8,0-38.4,14.5-42.5,23.1c-1.6,3.4-1.6,7.3,0,10.7
	c1.6,3.4,4.6,5.9,8.2,6.9c1.2,0.3,12.3,3.1,32.7,3.1c20.4,0,34.6-2.8,35.2-2.9c3.8-0.8,7-3.2,8.8-6.7
	C299.8,381.9,299.8,377.8,298.1,374.3z"/>
<path fill="#2B3B47" d="M396.1,248.4c-4.3-3.8-10.8-3.4-14.6,0.9c-4.1,4.7-10.1,7.3-16.4,7.3c-6.3,0-12.2-2.7-16.4-7.3
	c-3.8-4.3-10.3-4.7-14.6-0.9c-3.4,3-4.2,7.8-2.5,11.8c0.1,0.9,0.3,1.9,0.7,2.8c6.1,13.8,18.7,22.4,32.7,22.4
	c14,0,26.6-8.6,32.7-22.4c0.4-0.9,0.6-1.9,0.7-2.8C400.3,256.3,399.5,251.5,396.1,248.4z"/>
<path fill="#2B3B47" d="M170.3,248.4c-4.3-3.8-10.8-3.4-14.6,0.9c-4.1,4.7-10.1,7.3-16.4,7.3h0c-6.3,0-12.2-2.7-16.4-7.3
	c-3.8-4.3-10.3-4.7-14.6-0.9c-3.4,3-4.2,7.8-2.5,11.8c0.1,0.9,0.3,1.9,0.7,2.8c6.1,13.8,18.7,22.4,32.7,22.4
	c14,0,26.6-8.6,32.7-22.4c0.4-0.9,0.6-1.9,0.7-2.8C174.6,256.3,173.8,251.5,170.3,248.4z"/>
<path fill="#00BEEA" d="M346.6,329.1l65.4,28.2c19.2,10.3,26.5,34.2,16.2,53.5C418,430.1,394,437.3,374.8,427
	c-7.2-3.8-12.7-9.5-16.2-16.2l-28.2-65.4c-3.1-5.9-0.9-13.1,4.9-16.3C338.9,327.2,343.2,327.3,346.6,329.1z"/>
</svg>
