<?xml version="1.0" encoding="utf-8"?>
<!-- Generator: Adobe Illustrator 18.0.0, SVG Export Plug-In . SVG Version: 6.00 Build 0)  -->
<!DOCTYPE svg PUBLIC "-//W3C//DTD SVG 1.1 Tiny//EN" "http://www.w3.org/Graphics/SVG/1.1/DTD/svg11-tiny.dtd">
<svg version="1.1" baseProfile="tiny" id="Layer_1" xmlns="http://www.w3.org/2000/svg" xmlns:xlink="http://www.w3.org/1999/xlink"
	 x="0px" y="0px" width="511.9px" height="511.9px" viewBox="0 0 511.9 511.9" xml:space="preserve">
<path fill="#FFA1E0" d="M255.9,35.3C134,35.3,35.2,134.1,35.2,256c0,3.3,0.1,6.6,0.2,9.9c-12.8,1.7-22.8,12.6-22.8,25.9
	c0,14.5,11.7,26.2,26.2,26.2h5.2c26.8,91.7,111.4,158.7,211.7,158.7c121.8,0,220.6-98.8,220.6-220.6
	C476.5,134.1,377.7,35.3,255.9,35.3z"/>
<path fill="#E274C8" d="M394.3,172.3c-0.3,0-0.6,0-0.9-0.1l-57.2-6.8c-4.2-0.5-7.2-4.3-6.7-8.4c0.5-4.2,4.2-7.2,8.4-6.7l57.2,6.8
	c4.2,0.5,7.2,4.3,6.7,8.4C401.4,169.5,398.1,172.3,394.3,172.3z"/>
<path fill="#E274C8" d="M117.6,171.6c-3.8,0-7.1-2.8-7.5-6.7c-0.5-4.2,2.5-8,6.7-8.4l57.2-6.8c4.2-0.5,8,2.5,8.4,6.7
	c0.5,4.2-2.5,8-6.7,8.4l-57.2,6.8C118.2,171.6,117.9,171.6,117.6,171.6z"/>
<path fill="#2B3B47" d="M221.5,322c0,0,4.3-2.3,10.8-3.9c1.6-0.4,3.4-0.9,5.2-1.2c1.9-0.3,3.8-0.8,5.8-0.9c4-0.6,8.4-0.8,12.7-0.9
	c2.2-0.1,4.3,0.1,6.4,0.2c2.1,0,4.2,0.3,6.2,0.6c4,0.4,7.8,1.2,11.1,2.1c6.5,1.7,10.8,4,10.8,4l3.2,1.8c3.2,1.8,4.4,5.9,2.6,9.1
	c-1.2,2.2-3.5,3.5-5.9,3.5h-69.1c-3.7,0-6.7-3-6.7-6.7c0-2.6,1.5-4.8,3.6-6L221.5,322z"/>
<path fill="#2B3B47" d="M146.1,189.5c13.4,0,24.2,10.8,24.2,24.2v54.3c0,5.5-48.5,5.5-48.5,0v-54.3
	C121.9,200.4,132.7,189.5,146.1,189.5L146.1,189.5z"/>
<path fill="#E274C8" d="M124.1,281.4c-2.8,0-5.5-1.5-6.8-4.2c-1.9-3.8-0.3-8.3,3.4-10.2c16.2-8,34.7-8.3,50.7-0.7
	c3.8,1.8,5.4,6.3,3.6,10.1c-1.8,3.8-6.3,5.4-10.1,3.6c-11.8-5.6-25.5-5.4-37.4,0.5C126.4,281.2,125.2,281.4,124.1,281.4z"/>
<path fill="#2B3B47" d="M341.5,268.1v-54.3c0-13.4,10.8-24.2,24.2-24.2l0,0c13.4,0,24.2,10.8,24.2,24.2v54.3"/>
<path fill="#E274C8" d="M343.7,281.4c-2.8,0-5.5-1.5-6.8-4.2c-1.9-3.8-0.3-8.3,3.4-10.2c16.2-8,34.7-8.3,50.7-0.7
	c3.8,1.8,5.4,6.3,3.6,10.1c-1.8,3.8-6.3,5.4-10.1,3.6c-11.8-5.6-25.4-5.4-37.4,0.5C346,281.2,344.9,281.4,343.7,281.4z"/>
<path fill="#E583C9" d="M476.2,265.8c0.1-3.3,0.2-6.6,0.2-9.9c0-58.9-23.1-112.5-60.8-152c21.3,34.5,33.6,75.2,33.6,118.8
	c0,125.2-101.5,226.7-226.7,226.7c-43.6,0-84.2-12.3-118.8-33.6c39.6,37.7,93.1,60.8,152,60.8c100.3,0,185-67,211.7-158.7h5.2
	c14.5,0,26.2-11.7,26.2-26.2C499,278.4,489.1,267.5,476.2,265.8z"/>
</svg>
