<?xml version="1.0" encoding="iso-8859-1"?>
<!-- Generator: Adobe Illustrator 19.1.0, SVG Export Plug-In . SVG Version: 6.00 Build 0)  -->
<!DOCTYPE svg PUBLIC "-//W3C//DTD SVG 1.1//EN" "http://www.w3.org/Graphics/SVG/1.1/DTD/svg11.dtd">
<svg version="1.1" xmlns="http://www.w3.org/2000/svg" xmlns:xlink="http://www.w3.org/1999/xlink" x="0px" y="0px"
	 viewBox="0 0 511.92 511.92" enable-background="new 0 0 511.92 511.92" xml:space="preserve">
<g id="Layer_2">
	<path fill="#FF473E" d="M476.474,255.827c0,121.851-98.769,220.627-220.616,220.627c-121.845,0-220.614-98.776-220.614-220.627
		c0-121.825,98.769-220.603,220.614-220.603C377.704,35.224,476.474,134.001,476.474,255.827z"/>
</g>
<g id="Layer_3">
	<path fill="#2B3B47" d="M144.731,221.982c13.373,0,24.214-8.152,24.214,5.22v48.04c0,13.372-10.841,24.212-24.214,24.212l0,0
		c-13.373,0-24.214-10.84-24.214-24.212v-54.281c0-13.372,10.841-11.46,24.214-11.46V221.982z M364.787,215.741
		c-13.373,0-24.214,4.329-24.214,17.701v41.8c0,13.372,10.841,24.212,24.214,24.212l0,0c13.373,0,24.214-10.84,24.214-24.212
		v-54.281C389.001,207.589,378.16,215.741,364.787,215.741L364.787,215.741z M325.42,361.318c4.573-4.128,4.926-11.18,0.804-15.747
		c-4.129-4.561-11.174-4.926-15.748-0.804c-24.742,22.348-63.481,27.383-94.209,12.227c-5.523-2.71-12.204-0.457-14.932,5.066
		c-2.725,5.523-0.457,12.209,5.067,14.931c14.886,7.344,31.276,10.906,47.602,10.906
		C280.144,387.898,306.116,378.752,325.42,361.318z"/>
</g>
<g id="Layer_4">
	<path fill="#D32A2A" d="M335.066,236.446c-3.331,0-6.461-2.043-7.691-5.346c-1.577-4.247,0.585-8.969,4.829-10.55l63.837-23.736
		c4.257-1.571,8.976,0.588,10.553,4.832c1.577,4.247-0.585,8.969-4.829,10.55l-63.837,23.736
		C336.984,236.282,336.016,236.446,335.066,236.446z M184.339,231.1c1.577-4.247-0.585-8.969-4.832-10.55l-63.834-23.736
		c-4.235-1.568-8.967,0.585-10.55,4.832c-1.577,4.247,0.585,8.969,4.832,10.55l63.834,23.736c0.941,0.35,1.909,0.515,2.859,0.515
		C179.976,236.446,183.109,234.403,184.339,231.1z"/>
</g>
<g id="Layer_5">
	<path fill="#D32A2A" d="M38.379,105.534c1.83,6.28,4.292,12.412,6.931,18.874c2.841,6.22,5.818,12.776,9.497,18.93
		c1.778,3.299,3.759,6.495,5.843,9.651c15.933-30.177,38.653-56.212,66.137-76.073c-3.552-0.288-7.349-0.598-11.029-1.439
		c-4.448-0.71-8.638-2.01-13.068-3.301c-4.161-1.453-8.601-3.008-12.489-4.875c-2.009-0.966-3.984-1.917-5.917-2.847
		c-1.834-1.055-3.628-2.087-5.374-3.092c-3.75-2.072-6.466-4.306-9.576-6.482c-2.64-2.168-5.2-4.374-7.258-6.416
		c-1.811-2.009-3.694-3.988-4.926-5.626c-2.303-3.499-3.619-5.498-3.619-5.498l-1.525-2.317c-1.134-1.722-2.845-3.08-4.964-3.752
		c-4.905-1.554-10.142,1.163-11.696,6.069c0,0-0.959,3.029-2.397,9.054c-0.589,2.952-0.895,6.421-1.329,10.73
		c-0.233,4.148-0.16,8.786,0.074,14.027c0.544,4.895,0.937,10.779,2.2,16.363c0.576,2.856,1.165,5.885,1.89,8.923
		C36.632,99.41,37.498,102.446,38.379,105.534z"/>
</g>
<g id="Layer_6">
	<path fill="#D32A2A" d="M480.098,57.126c-0.434-4.309-0.741-7.779-1.33-10.73c-1.438-6.025-2.397-9.054-2.397-9.054
		c-0.624-1.965-1.903-3.746-3.759-4.968c-4.298-2.829-10.076-1.639-12.905,2.659l-1.52,2.309c0,0-1.316,1.999-3.619,5.498
		c-1.232,1.638-3.115,3.617-4.926,5.626c-2.058,2.042-4.618,4.248-7.258,6.416c-3.11,2.176-5.825,4.409-9.576,6.482
		c-1.746,1.005-3.541,2.037-5.374,3.092c-1.933,0.93-3.908,1.88-5.917,2.847c-3.889,1.867-8.328,3.422-12.489,4.875
		c-4.43,1.291-8.621,2.592-13.068,3.301c-3.68,0.841-7.478,1.151-11.03,1.439c11.295,8.162,21.769,17.382,31.314,27.488
		c20.268,34.006,32.927,76.009,32.927,118.323c0,125.107-101.431,226.506-226.543,226.506c-43.534,0-84.187-12.284-118.723-33.601
		c39.556,37.664,93.043,60.821,151.954,60.821c121.781,0,220.497-98.723,220.497-220.508c0-38.026-10.107-74.843-27.396-106.811
		c0.709,1.281,1.423,2.559,2.107,3.855c2.084-3.157,4.065-6.352,5.843-9.651c3.679-6.154,6.656-12.71,9.497-18.93
		c2.639-6.462,5.101-12.594,6.931-18.874c0.881-3.088,1.747-6.124,2.595-9.096c0.726-3.039,1.315-6.067,1.891-8.923
		c1.264-5.583,1.657-11.468,2.2-16.363C480.258,65.911,480.331,61.273,480.098,57.126z"/>
</g>
</svg>
