<?xml version="1.0" encoding="utf-8"?>
<!-- Generator: Adobe Illustrator 18.1.0, SVG Export Plug-In . SVG Version: 6.00 Build 0)  -->
<!DOCTYPE svg PUBLIC "-//W3C//DTD SVG 1.0//EN" "http://www.w3.org/TR/2001/REC-SVG-20010904/DTD/svg10.dtd">
<svg version="1.0" id="Layer_1" xmlns="http://www.w3.org/2000/svg" xmlns:xlink="http://www.w3.org/1999/xlink" x="0px" y="0px"
	 width="72px" height="72px" viewBox="0 0 72 72" enable-background="new 0 0 72 72" xml:space="preserve">
<path fill="#E2A042" d="M60.2,60c0,0-0.6-0.8-1.5-1.9c-0.2-0.3-0.5-0.6-0.7-0.9c-0.2-0.2-0.5-0.5-0.7-0.8c-0.5-0.5-1.1-1.1-1.6-1.7
	c-0.6-0.5-1.2-1.1-1.7-1.6c-0.1,0-0.1-0.1-0.1-0.1c2.7-4.8,0.3-8.3-2.2-10.8c-0.8-0.8-2-0.8-2.8,0c-0.6,0.6-0.7,1.6-0.3,2.4
	l-2.6-2.6c-2.6-2.6-6.8-2.8-9.7-0.5c-2.8-2.3-7-2.1-9.7,0.5L24,44.5c0.4-0.7,0.3-1.7-0.3-2.4c-0.8-0.8-2-0.8-2.8,0
	c-1.6,1.6-3.2,3.6-3.4,6.2c-0.1,1.2,0.2,2.4,0.7,3.7c-0.6,0.5-1.2,1.1-1.8,1.7c-1.1,1.1-2.2,2.2-3,3.2c-0.2,0.3-0.4,0.5-0.6,0.7
	c-0.2,0.2-0.3,0.4-0.5,0.6c-0.3,0.4-0.4,0.6-0.4,0.6l-0.7,1c-0.5,0.7-0.8,1.5-1,2.3c-1,4,1.4,8,5.4,8.9s8-1.4,8.9-5.4
	c0,0,0-0.1,0-0.2c0-0.1,0.1-0.2,0.1-0.3c0-0.1,0.1-0.3,0.2-0.4c0.3-0.7,1-1.7,1.6-2.8c0.7-1.1,1.4-2.1,2-2.9
	c0.1-0.2,0.3-0.4,0.4-0.5c1.2-0.3,2.3-0.9,3.2-1.9l4.2-4.2l4.2,4.2c0.5,0.5,1,0.8,1.5,1.2c0.2,0.3,0.3,0.6,0.5,0.8l0,0
	c0,0,0.4,0.6,1.1,1.4c0.2,0.2,0.3,0.4,0.5,0.7c0.1,0.2,0.3,0.4,0.4,0.7c0.3,0.5,0.6,1,1,1.5c0.3,0.5,0.6,1,0.9,1.5
	c0.1,0.2,0.3,0.5,0.4,0.7c0.1,0.2,0.1,0.3,0.2,0.5c0.3,0.6,0.4,1,0.4,1l0.3,0.7c0.2,0.3,0.4,0.7,0.6,1c2.3,3.2,6.9,4,10.1,1.6
	C61.8,67.8,62.5,63.3,60.2,60z"/>
</svg>
