<?xml version="1.0" encoding="utf-8"?>
<!-- Generator: Adobe Illustrator 18.0.0, SVG Export Plug-In . SVG Version: 6.00 Build 0)  -->
<!DOCTYPE svg PUBLIC "-//W3C//DTD SVG 1.1 Tiny//EN" "http://www.w3.org/Graphics/SVG/1.1/DTD/svg11-tiny.dtd">
<svg version="1.1" baseProfile="tiny" id="Layer_1" xmlns="http://www.w3.org/2000/svg" xmlns:xlink="http://www.w3.org/1999/xlink"
	 x="0px" y="0px" width="511.9px" height="511.9px" viewBox="0 0 511.9 511.9" xml:space="preserve">
<path fill="#FFD3B6" d="M334.5,212.9C334.5,212.9,334.5,212.9,334.5,212.9l2.2-33.4c0-57.8-50-87.7-107.8-87.7
	c-57.8,0-101.6,29.9-101.6,87.7l3.3,49.8c-11.5,0.7-20.6,10.2-20.6,21.9c0,12.1,9.8,21.9,21.9,21.9c0.6,0,1.1,0,1.6-0.1l0.2,3.1
	c0,38.8,22.5,72.4,55.2,88.3v48c0,11.7,19,21.2,42.3,21.2c23.4,0,42.3-9.5,42.3-21.2c0-1.3-0.3-2.6-0.7-3.9v-43.2
	c33.8-15.5,57.3-49.7,57.3-89.3l1.1-16.1c1,0.1,2.1,0.2,3.2,0.2c13.1,0,23.6-10.6,23.6-23.7S347.6,212.9,334.5,212.9z"/>
<path fill="#FFD3B6" d="M445,18.6c-4.2,0-7.5,3.4-7.5,7.5v30.3h-5.1V13.9c0-4.2-3.4-7.5-7.6-7.5c-4.2,0-7.5,3.4-7.5,7.5v42.5h-5v-48
	c0-4.2-3.4-7.5-7.6-7.5c-4.2,0-7.5,3.4-7.5,7.5v48h-5.5V14.8c0-4.2-3.4-7.6-7.6-7.6c-4.2,0-7.5,3.4-7.5,7.6v75.1c-3.2-2-6.5-4-9-5.5
	c-18-8.7-24-0.4-24-0.4c-2.1,3.7-0.8,8.3,2.7,10.5c19.6,9.9,29.6,20,31.8,22.4c2.2,3.3,6.3,6.7,9.9,8.2
	c-2.8,53.9-4.5,127.2-4.5,127.2c-0.5,16.3,12.1,27.5,29.6,32.9c15.6,4.8,27.7-5.2,28.3-21.4c0-1,0-2,0-2.9l-9.1-137.6
	c11.9-5.1,20.3-17,20.3-30.8V26.2C452.6,22,449.2,18.6,445,18.6z"/>
</svg>
