<?xml version="1.0" encoding="utf-8"?>
<!-- Generator: Adobe Illustrator 18.0.0, SVG Export Plug-In . SVG Version: 6.00 Build 0)  -->
<!DOCTYPE svg PUBLIC "-//W3C//DTD SVG 1.1//EN" "http://www.w3.org/Graphics/SVG/1.1/DTD/svg11.dtd">
<svg version="1.1" id="Layer_1" xmlns="http://www.w3.org/2000/svg" xmlns:xlink="http://www.w3.org/1999/xlink" x="0px" y="0px"
	 width="511.9px" height="511.9px" viewBox="0 0 511.9 511.9" enable-background="new 0 0 511.9 511.9" xml:space="preserve">
<path fill="#2B3B47" d="M393.4,258.1c-4.2-3.7-10.7-3.3-14.4,0.9c-4.1,4.6-10,7.2-16.2,7.2c-6.2,0-12.1-2.6-16.2-7.2
	c-3.7-4.2-10.2-4.6-14.4-0.9c-3.4,3-4.2,7.7-2.5,11.7c0.1,0.9,0.3,1.9,0.7,2.8c6.1,13.6,18.4,22.1,32.3,22.1
	c13.9,0,26.2-8.5,32.3-22.1c0.4-0.9,0.6-1.8,0.7-2.8C397.6,265.9,396.8,261.1,393.4,258.1z"/>
<path fill="#2B3B47" d="M173.1,258.1c-4.2-3.7-10.7-3.3-14.4,0.9c-4.1,4.6-10,7.2-16.2,7.2h0c-6.2,0-12.1-2.6-16.2-7.2
	c-3.7-4.2-10.2-4.6-14.4-0.9c-3.4,3-4.2,7.7-2.5,11.7c0.1,0.9,0.3,1.9,0.7,2.8c6.1,13.6,18.4,22.1,32.3,22.1
	c13.9,0,26.3-8.5,32.3-22.1c0.4-0.9,0.6-1.8,0.7-2.8C177.3,265.9,176.5,261.1,173.1,258.1z"/>
<path fill="#2B3B47" d="M294.9,379c0,19.2-22,34.7-41.2,34.7s-41.2-15.5-41.2-34.7s22-19.9,41.2-19.9S294.9,359.8,294.9,379z"/>
</svg>
