<?xml version="1.0" encoding="utf-8"?>
<!-- Generator: Adobe Illustrator 18.0.0, SVG Export Plug-In . SVG Version: 6.00 Build 0)  -->
<!DOCTYPE svg PUBLIC "-//W3C//DTD SVG 1.1 Tiny//EN" "http://www.w3.org/Graphics/SVG/1.1/DTD/svg11-tiny.dtd">
<svg version="1.1" baseProfile="tiny" id="Layer_1" xmlns="http://www.w3.org/2000/svg" xmlns:xlink="http://www.w3.org/1999/xlink"
	 x="0px" y="0px" width="511.9px" height="511.9px" viewBox="0 0 511.9 511.9" xml:space="preserve">
<path fill="#FFFFFF" d="M146.1,128.7c13.4,0,24.2,10.8,24.2,24.2v54.3c0,13.4-10.8,24.2-24.2,24.2l0,0c-13.4,0-24.2-10.8-24.2-24.2
	v-54.3C121.9,139.6,132.8,128.7,146.1,128.7L146.1,128.7z"/>
<path fill="#FFFFFF" d="M365.8,128.7c13.4,0,24.2,10.8,24.2,24.2v54.3c0,13.4-10.8,24.2-24.2,24.2l0,0c-13.4,0-24.2-10.8-24.2-24.2
	v-54.3C341.5,139.6,352.4,128.7,365.8,128.7L365.8,128.7z"/>
<path fill="#FFFFFF" d="M309.1,268c-12.8-19.7-31.9-32.1-53.2-32.1s-40.3,12.5-53.2,32.1H309.1z"/>
</svg>
