<?xml version="1.0" encoding="iso-8859-1"?>
<!-- Generator: Adobe Illustrator 19.1.0, SVG Export Plug-In . SVG Version: 6.00 Build 0)  -->
<!DOCTYPE svg PUBLIC "-//W3C//DTD SVG 1.1//EN" "http://www.w3.org/Graphics/SVG/1.1/DTD/svg11.dtd">
<svg version="1.1" xmlns="http://www.w3.org/2000/svg" xmlns:xlink="http://www.w3.org/1999/xlink" x="0px" y="0px"
	 viewBox="0 0 511.92 511.92" enable-background="new 0 0 511.92 511.92" xml:space="preserve">
<g id="Layer_4">
	<path fill="#2B3B47" d="M255.941,376.045c-32.889,0-65.769-11.314-90.8-33.955c-4.845-4.383-5.221-11.862-0.838-16.707
		c4.383-4.845,11.862-5.221,16.707-0.838c41.322,37.368,108.553,37.355,149.882,0c4.852-4.39,12.344-4,16.707,0.838
		c4.383,4.852,4.007,12.331-0.838,16.707C321.716,364.724,288.824,376.045,255.941,376.045z M177.036,232.863
		c-6.063-13.647-18.446-22.126-32.315-22.126c-0.003,0-0.003,0-0.003,0c-13.872,0-26.255,8.476-32.322,22.126
		c-0.402,0.904-0.613,1.836-0.741,2.769c-1.722,3.949-0.935,8.67,2.464,11.681c4.218,3.736,10.677,3.35,14.417-0.878
		c4.073-4.601,9.968-7.241,16.172-7.245h0.003c6.208,0,12.11,2.644,16.189,7.248c2.017,2.277,4.825,3.439,7.647,3.439
		c2.406,0,4.825-0.845,6.769-2.568c3.397-3.01,4.182-7.729,2.461-11.677C177.649,234.699,177.438,233.767,177.036,232.863z
		 M398.105,235.639c-0.127-0.937-0.338-1.872-0.742-2.78c-6.066-13.648-18.45-22.123-32.318-22.123
		c-13.875,0-26.259,8.476-32.325,22.123c-0.403,0.907-0.615,1.842-0.742,2.778c-1.718,3.947-0.929,8.668,2.471,11.674
		c4.225,3.749,10.68,3.337,14.416-0.878c4.066-4.601,9.961-7.241,16.166-7.245c0,0,0,0,0.007,0c6.205,0,12.106,2.644,16.185,7.248
		c2.02,2.277,4.825,3.439,7.651,3.439c2.402,0,4.819-0.845,6.766-2.568C399.034,244.302,399.823,239.586,398.105,235.639z"/>
</g>
<g id="Layer_1">
</g>
</svg>
