<?xml version="1.0" encoding="utf-8"?>
<!-- Generator: Adobe Illustrator 18.0.0, SVG Export Plug-In . SVG Version: 6.00 Build 0)  -->
<!DOCTYPE svg PUBLIC "-//W3C//DTD SVG 1.1 Tiny//EN" "http://www.w3.org/Graphics/SVG/1.1/DTD/svg11-tiny.dtd">
<svg version="1.1" baseProfile="tiny" id="Layer_1" xmlns="http://www.w3.org/2000/svg" xmlns:xlink="http://www.w3.org/1999/xlink"
	 x="0px" y="0px" width="511.9px" height="511.9px" viewBox="0 0 511.9 511.9" xml:space="preserve">
<path fill="#2B3B47" d="M322.7,340.4c-4-3.1-9.8-2.2-12.9,1.8c-5.6,7.5-14.1,11.8-23.3,11.8c-9.2,0-17.7-4.3-23.3-11.8
	c-9.1-12.1-23-19.1-38-19.1c-15,0-28.8,7-38,19.1c-3.1,4.1-2.2,9.8,1.8,12.9c4.1,3.1,9.8,2.2,12.9-1.8c5.6-7.5,14.1-11.8,23.3-11.8
	c9.2,0,17.7,4.3,23.3,11.8c0,0,0,0,0,0c9.1,12.1,23,19.1,38,19.1c0,0,0,0,0,0c15,0,28.8-7,38-19.1
	C327.5,349.2,326.7,343.5,322.7,340.4z"/>
<path fill="#2B3B47" d="M146.1,184.6c13.4,0,24.2,10.8,24.2,24.2v54.3c0,13.4-10.8,8.3-24.2,8.3l0,0c-13.4,0-24.2,5.1-24.2-8.3
	v-54.3C121.9,195.5,132.7,184.6,146.1,184.6L146.1,184.6z"/>
<path fill="#2B3B47" d="M399.3,251c-0.1-0.9-0.3-1.9-0.7-2.8c-6.1-13.7-18.5-22.1-32.3-22.1c-13.9,0-26.3,8.5-32.3,22.1
	c-0.4,0.9-0.6,1.8-0.7,2.8c-1.7,4-0.9,8.7,2.5,11.7c4.2,3.7,10.7,3.4,14.4-0.9c4.1-4.6,10-7.2,16.2-7.2c0,0,0,0,0,0
	c6.2,0,12.1,2.6,16.2,7.2c2,2.3,4.8,3.4,7.7,3.4c2.4,0,4.8-0.8,6.8-2.6C400.2,259.6,401,254.9,399.3,251z"/>
</svg>
