<?xml version="1.0" encoding="utf-8"?>
<!-- Generator: Adobe Illustrator 18.0.0, SVG Export Plug-In . SVG Version: 6.00 Build 0)  -->
<!DOCTYPE svg PUBLIC "-//W3C//DTD SVG 1.1 Tiny//EN" "http://www.w3.org/Graphics/SVG/1.1/DTD/svg11-tiny.dtd">
<svg version="1.1" baseProfile="tiny" id="Layer_1" xmlns="http://www.w3.org/2000/svg" xmlns:xlink="http://www.w3.org/1999/xlink"
	 x="0px" y="0px" width="511.9px" height="511.9px" viewBox="0 0 511.9 511.9" xml:space="preserve">
<path fill="#2B3B47" d="M146.1,155.9c13.4,0,24.2,10.8,24.2,24.2v54.3c0,13.4-10.8,24.2-24.2,24.2l0,0c-13.4,0-24.2-10.8-24.2-24.2
	v-54.3C121.9,166.8,132.8,155.9,146.1,155.9L146.1,155.9z"/>
<path fill="#2B3B47" d="M365.8,155.9c13.4,0,24.2,10.8,24.2,24.2v54.3c0,13.4-10.8,24.2-24.2,24.2l0,0c-13.4,0-24.2-10.8-24.2-24.2
	v-54.3C341.5,166.8,352.4,155.9,365.8,155.9L365.8,155.9z"/>
<path fill="#2B3B47" d="M341.4,354c-3.2-30.3-27.2-72.5-82.8-72.5c-57.6,0-81.3,45.3-83.1,75.7c-0.5,8.1,3.3,15.8,9.8,20.7
	c6.5,4.8,15.2,5.9,22.8,3c0.2-0.1,16.6-6.2,47.4-6.2c32.4,0,55.1,6.7,55.3,6.8c2.3,0.7,4.6,1,7,1c0,0,0.1,0,0.1,0
	c13.2,0,23.9-10.7,23.9-23.9C341.8,357.1,341.7,355.5,341.4,354z"/>
</svg>
