<?xml version="1.0" encoding="utf-8"?>
<!-- Generator: Adobe Illustrator 18.1.0, SVG Export Plug-In . SVG Version: 6.00 Build 0)  -->
<!DOCTYPE svg PUBLIC "-//W3C//DTD SVG 1.0//EN" "http://www.w3.org/TR/2001/REC-SVG-20010904/DTD/svg10.dtd">
<svg version="1.0" id="Layer_1" xmlns="http://www.w3.org/2000/svg" xmlns:xlink="http://www.w3.org/1999/xlink" x="0px" y="0px"
	 width="72px" height="72px" viewBox="0 0 72 72" enable-background="new 0 0 72 72" xml:space="preserve">
<path fill="#CB65CE" d="M38.4,37.7c0,0-0.3,0.4-0.9,0.8C37,38.8,36.4,39,35.7,39c-0.7,0-1.4-0.2-1.9-0.6c-0.5-0.3-0.9-0.8-0.9-0.8
	c-0.1-0.1-0.1-0.2,0-0.3c0,0,0.3-0.4,0.9-0.8c0.5-0.3,1.2-0.6,1.9-0.6c0.7,0,1.4,0.2,1.9,0.6c0.5,0.3,0.9,0.8,0.9,0.8
	C38.5,37.5,38.5,37.6,38.4,37.7z"/>
</svg>
