<?xml version="1.0" encoding="iso-8859-1"?>
<!-- Generator: Adobe Illustrator 19.1.0, SVG Export Plug-In . SVG Version: 6.00 Build 0)  -->
<!DOCTYPE svg PUBLIC "-//W3C//DTD SVG 1.1//EN" "http://www.w3.org/Graphics/SVG/1.1/DTD/svg11.dtd">
<svg version="1.1" xmlns="http://www.w3.org/2000/svg" xmlns:xlink="http://www.w3.org/1999/xlink" x="0px" y="0px"
	 viewBox="0 0 511.92 511.92" enable-background="new 0 0 511.92 511.92" xml:space="preserve">
<g id="Layer_3">
	<path fill="#E274C8" d="M173.32,179.415c-2.102,0-4.192-0.865-5.697-2.561c-5.773-6.518-14.116-10.255-22.896-10.258h-0.007
		c-8.783,0-17.133,3.739-22.915,10.261c-2.786,3.135-7.588,3.429-10.736,0.644c-3.142-2.786-3.429-7.594-0.644-10.736
		c8.667-9.773,21.166-15.377,34.295-15.377c0,0,0.007,0,0.01,0c13.129,0.003,25.622,5.611,34.279,15.38
		c2.782,3.145,2.492,7.951-0.65,10.736C176.911,178.785,175.112,179.415,173.32,179.415z M342.133,176.854
		c5.782-6.518,14.126-10.258,22.912-10.258h0.007c8.779,0.003,17.123,3.739,22.899,10.258c2.786,3.149,7.598,3.429,10.733,0.65
		c3.142-2.786,3.432-7.591,0.647-10.736c-8.654-9.769-21.15-15.377-34.279-15.38h-0.007c-13.129,0-25.632,5.604-34.292,15.38
		c-2.786,3.142-2.495,7.948,0.647,10.733c1.446,1.284,3.248,1.914,5.043,1.914C338.542,179.415,340.628,178.55,342.133,176.854z"/>
</g>
<g id="Layer_1">
</g>
</svg>
