<?xml version="1.0" encoding="utf-8"?>
<!-- Generator: Adobe Illustrator 18.0.0, SVG Export Plug-In . SVG Version: 6.00 Build 0)  -->
<!DOCTYPE svg PUBLIC "-//W3C//DTD SVG 1.1 Tiny//EN" "http://www.w3.org/Graphics/SVG/1.1/DTD/svg11-tiny.dtd">
<svg version="1.1" baseProfile="tiny" id="Layer_1" xmlns="http://www.w3.org/2000/svg" xmlns:xlink="http://www.w3.org/1999/xlink"
	 x="0px" y="0px" width="511.9px" height="511.9px" viewBox="0 0 511.9 511.9" xml:space="preserve">
<path fill="#2B3B47" d="M147.3,170.4c13.2,0,24,10.7,24,24V248c0,13.2-10.7,24-24,24l0,0c-13.2,0-24-10.7-24-24v-53.7
	C123.3,181.1,134,170.4,147.3,170.4L147.3,170.4z"/>
<path fill="#2B3B47" d="M364.5,170.4c13.2,0,24,10.7,24,24V248c0,13.2-10.7,24-24,24l0,0c-13.2,0-24-10.7-24-24v-53.7
	C340.5,181.1,351.2,170.4,364.5,170.4L364.5,170.4z"/>
<path fill="#2B3B47" d="M407.3,314.4c-0.6-1.1-1.4-2-2.7-2.2c-12.4-1.2-284-1.2-296.3,0c-0.5,0-1.1,0.3-1.6,0.6
	c-0.1,0-0.2,0-0.2,0.1c-1.7,1.3-2.1,3.8-0.9,5.7l2.7,4.3c6.2,9.8,12.3,18.2,18.5,25.3c6.2,7.3,12.3,13.5,18.5,19.3
	c12.3,11.4,24.7,19.8,37,26.9c3.3,1.8,6.7,3.2,10.1,4.8c0.2-0.1,0.5-0.3,0.7-0.4c20.1,9.8,41.6,15.4,64.2,15.4
	c22.1,0,43.3-5.4,63-14.8l0,0c3.3-1.5,6.7-2.9,10-4.7c12.3-7.1,24.7-15.5,37-27c6.2-5.9,12.3-12,18.5-19.4
	c6.2-7.1,12.3-15.5,18.5-25.4l2.7-4.3c0.3-0.6,0.6-1.2,0.6-2C408,315.9,407.7,315.1,407.3,314.4z"/>
</svg>
