<?xml version="1.0" encoding="utf-8"?>
<!-- Generator: Adobe Illustrator 18.0.0, SVG Export Plug-In . SVG Version: 6.00 Build 0)  -->
<!DOCTYPE svg PUBLIC "-//W3C//DTD SVG 1.1 Tiny//EN" "http://www.w3.org/Graphics/SVG/1.1/DTD/svg11-tiny.dtd">
<svg version="1.1" baseProfile="tiny" id="Layer_1" xmlns="http://www.w3.org/2000/svg" xmlns:xlink="http://www.w3.org/1999/xlink"
	 x="0px" y="0px" width="513px" height="511.9px" viewBox="0 0 513 511.9" xml:space="preserve">
<path fill="#68442A" d="M258.3,28.8L258.3,28.8L258.3,28.8C153,16.9,109.5,101.8,109.5,166c0,49.7,6.7,54.7,11.5,54.7
	s2.7-11.3,7.8-18.2c9.8-13.2,27-38.5,32.4-44.6c10.6-11.9,37.5-0.7,94.6,15.1c1.9,0.5,3.7,0.9,5.4,1l57.1,22.7
	c9.7,0-4-27.1,4.9-20.3c23.1,17.5,64.1,23.2,72,44.6c2.7,7.3,11.9-14.9,11.9-55C407.1,125.9,363.2,16.9,258.3,28.8z"/>
</svg>
