<?xml version="1.0" encoding="utf-8"?>
<!-- Generator: Adobe Illustrator 16.0.4, SVG Export Plug-In . SVG Version: 6.00 Build 0)  -->
<!DOCTYPE svg PUBLIC "-//W3C//DTD SVG 1.1//EN" "http://www.w3.org/Graphics/SVG/1.1/DTD/svg11.dtd">
<svg version="1.1" id="Layer_1" xmlns="http://www.w3.org/2000/svg" xmlns:xlink="http://www.w3.org/1999/xlink" x="0px" y="0px"
	 width="500px" height="500px" viewBox="0 0 500 500" enable-background="new 0 0 500 500" xml:space="preserve">
<path fill="#D278B1" d="M165.2,171.3c-2.2,0-4.3-0.9-5.9-2.6c-5.9-6.7-14.5-10.5-23.5-10.5h0c-9,0-17.6,3.8-23.6,10.5
	c-2.9,3.2-7.8,3.5-11,0.7c-3.2-2.9-3.5-7.8-0.7-11c8.9-10.1,21.8-15.8,35.3-15.8h0c13.5,0,26.3,5.8,35.2,15.8
	c2.9,3.2,2.6,8.2-0.7,11C168.9,170.6,167,171.3,165.2,171.3"/>
<path fill="#D278B1" d="M332.9,171.3c-1.8,0-3.7-0.7-5.2-2c-3.2-2.9-3.5-7.8-0.7-11c8.9-10.1,21.8-15.8,35.3-15.8h0
	c13.5,0,26.3,5.8,35.2,15.8c2.9,3.2,2.6,8.2-0.7,11c-3.2,2.9-8.2,2.6-11-0.7c-5.9-6.7-14.5-10.5-23.5-10.5h0
	c-9,0-17.6,3.8-23.6,10.5C337.2,170.4,335.1,171.3,332.9,171.3"/>
</svg>
