<?xml version="1.0" encoding="utf-8"?>
<!-- Generator: Adobe Illustrator 18.0.0, SVG Export Plug-In . SVG Version: 6.00 Build 0)  -->
<!DOCTYPE svg PUBLIC "-//W3C//DTD SVG 1.1 Tiny//EN" "http://www.w3.org/Graphics/SVG/1.1/DTD/svg11-tiny.dtd">
<svg version="1.1" baseProfile="tiny" id="Layer_1" xmlns="http://www.w3.org/2000/svg" xmlns:xlink="http://www.w3.org/1999/xlink"
	 x="0px" y="0px" width="511.9px" height="511.9px" viewBox="0 0 511.9 511.9" xml:space="preserve">
<path fill="#FFD469" d="M255.9,35.3C134,35.3,35.2,134.1,35.2,256c0,3.3,0.1,6.6,0.2,9.9c-12.8,1.7-22.8,12.6-22.8,25.9
	c0,14.5,11.7,26.2,26.2,26.2h5.2c26.8,91.7,111.4,158.7,211.7,158.7c121.8,0,220.6-98.8,220.6-220.6
	C476.5,134.1,377.7,35.3,255.9,35.3z"/>
<path fill="#FFB636" d="M476.2,265.8c0.1-3.3,0.2-6.6,0.2-9.9c0-58.9-23.1-112.5-60.8-152c21.3,34.5,33.6,75.2,33.6,118.8
	c0,125.2-101.5,226.7-226.7,226.7c-43.6,0-84.2-12.3-118.8-33.6c39.6,37.7,93.1,60.8,152,60.8c100.3,0,185-67,211.7-158.7h5.2
	c14.5,0,26.2-11.7,26.2-26.2C499,278.4,489.1,267.5,476.2,265.8z"/>
<path fill="#F2A74E" d="M254,428.1c-11.6,0-23.1-2.5-33.9-7.6c-3.8-1.8-5.4-6.3-3.6-10.1c1.8-3.8,6.3-5.4,10.1-3.6
	c17.9,8.5,38.6,8.2,56.7-0.8c3.8-1.9,8.3-0.3,10.2,3.4c1.9,3.8,0.3,8.3-3.4,10.2C278.6,425.3,266.2,428.1,254,428.1z"/>
<path fill="#FF473E" d="M202.2,225.1c4.3-3.6,8-8.3,10.6-14.1c5.7-13,3.3-28.5-5.9-39.2c-15.9-18.3-43.4-17.2-57.9,0.7
	c-1.3,1.6-2.4,3.3-3.4,5c-1.3-1.5-2.7-2.9-4.3-4.2c-8.1-6.5-18-9.2-27.6-8.2c-11.7,1.2-22.8,7.9-29.2,19.6
	c-6.2,11.4-5.9,25.6,0.8,36.8c4,6.8,9.4,11.5,15.4,14.5l48.5,31.4c4,2.6,9.2,2,12.6-1.4L202.2,225.1z"/>
<path fill="#FF473E" d="M306.9,225.1c-4.3-3.6-8-8.3-10.6-14.1c-5.7-13-3.3-28.5,5.9-39.2c15.9-18.3,43.4-17.2,57.9,0.7
	c1.3,1.6,2.4,3.3,3.4,5c1.3-1.5,2.7-2.9,4.3-4.2c8.1-6.5,18-9.2,27.6-8.2c11.7,1.2,22.8,7.9,29.2,19.6c6.2,11.4,5.9,25.6-0.8,36.8
	c-4,6.8-9.4,11.5-15.4,14.5l-48.5,31.4c-4,2.6-9.2,2-12.6-1.4L306.9,225.1z"/>
<path fill="#2B3B47" d="M381.4,311.6c-4.3-0.4-8.5-0.7-12.8-1c-1.2,0.3-4.3,1.1-9.2,2c-6.2,0.9-15,3-25.6,4c-10.6,1-23,2.8-36.3,3.5
	c-13.3,0.9-27.4,1.1-41.6,1.3c-14.1-0.2-28.3-0.4-41.6-1.3c-13.3-0.7-25.6-2.5-36.3-3.5c-10.6-1-19.5-3.1-25.6-4
	c-4.9-0.9-8.1-1.7-9.2-2c-4.3,0.3-8.7,0.6-13,1c-0.5,0-1,0.2-1.5,0.6c-1.4,1-1.8,3.1-0.8,4.6l2.3,3.5c5.2,7.9,10.5,14.7,15.7,20.4
	c5.3,5.9,10.5,10.9,15.7,15.6c10.4,9.2,20.9,16,31.4,21.8c2.9,1.5,5.7,2.6,8.6,3.9c15.9-11.2,34.4,3.9,54.2,3.9
	c19.8,0,38.3-15,54.3-3.8c2.8-1.3,5.7-2.3,8.5-3.8c10.5-5.8,20.9-12.6,31.4-21.8c5.2-4.7,10.5-9.7,15.7-15.7
	c5.2-5.7,10.5-12.6,15.7-20.5l2.3-3.5c0.3-0.5,0.5-1,0.5-1.6C384.4,313.4,383.1,311.7,381.4,311.6z"/>
<path fill="#FFFFFF" d="M178.2,316.6c10.6,1,23,2.8,36.3,3.5c13.3,0.9,27.4,1.1,41.6,1.3c14.1-0.2,28.3-0.4,41.6-1.3
	c13.3-0.7,25.6-2.5,36.3-3.5c10.6-1,19.5-3.1,25.6-4c4.9-0.9,8.1-1.7,9.2-2c-6.2-0.4-12.4-0.8-18.6-1.2l-31.4-1.2
	c-20.9-0.7-41.9-0.6-62.8-1c-20.9,0.4-41.9,0.3-62.8,1l-31.4,1.2c-6.1,0.4-12.3,0.8-18.4,1.2c1.1,0.3,4.3,1.1,9.2,2
	C158.7,313.5,167.6,315.6,178.2,316.6z"/>
<path fill="#FF473E" d="M310,382c0.1,0,0.1,0,0.2-0.1c-15.9-11.2-34.6-7.5-54.2-5.1l-0.1,0l-0.1,0c-19.6-2.4-38.3-6-54.2,5.1
	c0.1,0,0.1,0,0.2,0.1c-0.1,0-0.1,0-0.2,0.1c17.8,7.9,35.6,11.7,53.3,11.8c0.3,0,0.6,0,0.9,0l0.1,0l0.1,0c0.3,0,0.6,0,0.9,0
	c17.8-0.1,35.6-3.9,53.3-11.8C310.1,382.1,310.1,382.1,310,382z"/>
</svg>
