<?xml version="1.0" encoding="utf-8"?>
<!-- Generator: Adobe Illustrator 18.0.0, SVG Export Plug-In . SVG Version: 6.00 Build 0)  -->
<!DOCTYPE svg PUBLIC "-//W3C//DTD SVG 1.1 Tiny//EN" "http://www.w3.org/Graphics/SVG/1.1/DTD/svg11-tiny.dtd">
<svg version="1.1" baseProfile="tiny" id="Layer_1" xmlns="http://www.w3.org/2000/svg" xmlns:xlink="http://www.w3.org/1999/xlink"
	 x="0px" y="0px" width="511.9px" height="511.9px" viewBox="0 0 511.9 511.9" xml:space="preserve">
<path fill="#2B3B47" d="M371.4,182.7c14.1,0,25.5,11.4,25.5,25.5v57.1c0,14.1-11.4-0.3-25.5-0.3l0,0c-14.1,0-25.5,14.4-25.5,0.3
	v-57.1C345.9,194.1,357.3,182.7,371.4,182.7L371.4,182.7z"/>
<path fill="#2B3B47" d="M140.5,182.7c14.1,0,25.5,11.4,25.5,25.5v57.1c0,14.1-11.4-0.3-25.5-0.3l0,0c-14.1,0-25.5,14.4-25.5,0.3
	v-57.1C115,194.1,126.4,182.7,140.5,182.7L140.5,182.7z"/>
<path fill="#2B3B47" d="M215,375.1c-2.5,0-5-0.9-7.1-2.7c-4.4-3.9-4.8-10.6-0.9-15.1c11.5-13,28.5-20.5,46.7-20.6c0.1,0,0.3,0,0.4,0
	c18.1,0,35.2,7.3,46.8,20.1c4,4.4,3.6,11.1-0.8,15.1c-4.4,4-11.1,3.6-15.1-0.8c-7.6-8.3-18.8-13.1-31-13.1c-0.1,0-0.2,0-0.3,0
	c-12.2,0.1-23.4,4.9-30.9,13.4C220.9,373.9,218,375.1,215,375.1z"/>
</svg>
