<?xml version="1.0" encoding="utf-8"?>
<!-- Generator: Adobe Illustrator 18.0.0, SVG Export Plug-In . SVG Version: 6.00 Build 0)  -->
<!DOCTYPE svg PUBLIC "-//W3C//DTD SVG 1.1 Tiny//EN" "http://www.w3.org/Graphics/SVG/1.1/DTD/svg11-tiny.dtd">
<svg version="1.1" baseProfile="tiny" id="Layer_1" xmlns="http://www.w3.org/2000/svg" xmlns:xlink="http://www.w3.org/1999/xlink"
	 x="0px" y="0px" width="511.9px" height="511.9px" viewBox="0 0 511.9 511.9" xml:space="preserve">
<path fill="#E576CB" d="M271.8,272.4c0,0-2.3,2.9-5.6,5c-4.2,2.9-9.2,4.7-12.4,3.7c-4.5-0.1-9-1.5-12.4-3.7c-3.4-2.1-5.6-5-5.6-5
	c-0.5-0.7-0.5-1.6,0-2.2c0,0,2.3-2.9,5.6-5c3.4-2.2,7.9-3.7,12.4-3.7c4.5,0.1,9,1.5,12.4,3.7c3.4,2.1,5.6,5,5.6,5
	C272.4,270.8,272.3,271.8,271.8,272.4z"/>
</svg>
