<?xml version="1.0" encoding="iso-8859-1"?>
<!-- Generator: Adobe Illustrator 19.1.0, SVG Export Plug-In . SVG Version: 6.00 Build 0)  -->
<!DOCTYPE svg PUBLIC "-//W3C//DTD SVG 1.1//EN" "http://www.w3.org/Graphics/SVG/1.1/DTD/svg11.dtd">
<svg version="1.1" xmlns="http://www.w3.org/2000/svg" xmlns:xlink="http://www.w3.org/1999/xlink" x="0px" y="0px"
	 viewBox="0 0 511.92 511.92" enable-background="new 0 0 511.92 511.92" xml:space="preserve">
<g id="Layer_2">
	<path fill="#FFA1E0" d="M255.65,35.344c-121.8,0-220.532,98.746-220.532,220.531c0,3.545,0.102,7.066,0.267,10.571
		c-12.848,1.682-22.803,12.553-22.803,25.859c0,14.471,11.731,26.202,26.202,26.202h5.409
		c26.994,91.291,111.42,157.922,211.457,157.922c121.796,0,220.529-98.744,220.529-220.554
		C476.179,134.09,377.446,35.344,255.65,35.344z"/>
</g>
<g id="Layer_3">
	<path fill="#2B3B47" d="M395.874,246.967c-0.128,0.931-0.339,1.861-0.74,2.764c-6.065,13.646-18.448,22.124-32.314,22.124
		c-13.867,0-26.249-8.478-32.315-22.124c-0.401-0.901-0.612-1.83-0.74-2.76c-1.727-3.95-0.941-8.673,2.456-11.684
		c4.238-3.742,10.679-3.343,14.415,0.871c4.079,4.607,9.98,7.247,16.191,7.247c6.204-0.003,12.098-2.643,16.177-7.244
		c3.729-4.218,10.184-4.617,14.415-0.878C396.815,238.295,397.601,243.019,395.874,246.967z M173.114,235.283
		c-4.231-3.736-10.686-3.346-14.415,0.878c-4.072,4.6-9.966,7.24-16.171,7.244h-0.003c-6.211,0-12.111-2.643-16.191-7.247
		c-3.746-4.224-10.194-4.61-14.415-0.871c-3.399,3.011-4.182,7.735-2.456,11.684c0.128,0.93,0.339,1.86,0.74,2.761
		c6.062,13.646,18.444,22.124,32.314,22.124c13.871,0,26.252-8.478,32.315-22.124c0.401-0.901,0.612-1.83,0.739-2.76
		C177.3,243.021,176.514,238.296,173.114,235.283z M253.732,336.242c-19.164,0-41.185,0.709-41.185,19.874s22.021,34.7,41.185,34.7
		s41.185-15.536,41.185-34.7S272.896,336.242,253.732,336.242z"/>
</g>
<g id="Layer_4">
	<path fill="#E583C9" d="M475.767,242.946c-3.117-53.791-25.503-102.381-60.396-139.023c21.309,34.516,33.618,75.175,33.618,118.727
		c0,125.133-101.443,226.553-226.577,226.553c-43.541,0-84.199-12.286-118.739-33.607c39.56,37.671,93.054,60.833,151.977,60.833
		c108.424,0,198.504-78.275,216.992-181.39h0.063c14.47,0,26.201-11.73,26.201-26.2C498.906,255.416,488.776,244.48,475.767,242.946
		z"/>
</g>
<g id="Layer_5">
	<path fill="#E583C9" d="M403.061,202.159c-3.28,0-6.31-2.138-7.287-5.442c-2.442-8.23-8.349-15.048-16.19-18.708
		c-7.854-3.66-16.87-3.802-24.764-0.383c-3.855,1.67-8.336-0.102-9.999-3.95c-1.67-3.855,0.099-8.333,3.954-10.003
		c11.867-5.148,25.45-4.944,37.238,0.554c11.788,5.501,20.659,15.765,24.335,28.16c1.195,4.026-1.096,8.26-5.122,9.455
		C404.499,202.057,403.773,202.159,403.061,202.159z M111.691,196.721c2.452-8.24,8.359-15.062,16.213-18.721
		c7.848-3.65,16.864-3.792,24.731-0.376c3.855,1.67,8.329-0.096,10.003-3.944c1.673-3.855-0.092-8.333-3.944-10.003
		c-11.857-5.155-25.417-4.953-37.215,0.538c-11.791,5.498-20.672,15.765-24.361,28.17c-1.198,4.026,1.096,8.26,5.118,9.455
		c0.723,0.218,1.452,0.32,2.171,0.32C107.685,202.159,110.711,200.021,111.691,196.721z"/>
</g>
<g id="Layer_6">
	<path fill="#FFD469" d="M253.738,121.525c-75.024,0-202.005-12.377-202.005-58.756C51.734,16.379,178.714,4,253.738,4
		c75.026,0,202.007,12.379,202.007,58.769C455.745,109.147,328.764,121.525,253.738,121.525z M253.738,29.185
		c-109.984,0-173.586,21.994-176.845,33.787c3.27,11.383,66.883,33.368,176.845,33.368s173.577-21.985,176.848-33.78
		C427.327,51.178,363.726,29.185,253.738,29.185z"/>
</g>
<g id="Layer_7">
	<path fill="#FFB636" d="M76.78,62.972c9.988-15.377,77.615-33.787,177.605-33.787c98.946,0,161.801,16.365,177.197,33.133
		c0,0,29.779-58.317-177.197-58.317S76.78,62.972,76.78,62.972z"/>
</g>
</svg>
