<?xml version="1.0" encoding="utf-8"?>
<!-- Generator: Adobe Illustrator 18.0.0, SVG Export Plug-In . SVG Version: 6.00 Build 0)  -->
<!DOCTYPE svg PUBLIC "-//W3C//DTD SVG 1.1 Tiny//EN" "http://www.w3.org/Graphics/SVG/1.1/DTD/svg11-tiny.dtd">
<svg version="1.1" baseProfile="tiny" id="Layer_1" xmlns="http://www.w3.org/2000/svg" xmlns:xlink="http://www.w3.org/1999/xlink"
	 x="0px" y="0px" width="511.9px" height="511.9px" viewBox="0 0 511.9 511.9" xml:space="preserve">
<path fill="#F2A74E" d="M408.5,190.1c-2.8,0-5.5-1.5-6.9-4.2c-7.2-14.2-24.9-20.7-39.5-14.3c-3.9,1.7-8.4-0.1-10.1-4
	c-1.7-3.9,0.1-8.4,4-10.1c21.9-9.5,48.5,0.2,59.3,21.5c1.9,3.8,0.4,8.4-3.4,10.3C410.9,189.8,409.7,190.1,408.5,190.1z"/>
<path fill="#F2A74E" d="M106.6,184.5c-1.6,0-3.2-0.5-4.6-1.6c-3.4-2.6-4.1-7.4-1.5-10.8c12.7-16.8,35.9-23,55.1-14.8
	c3.9,1.7,5.7,6.2,4,10.1c-1.7,3.9-6.2,5.7-10.1,4c-12.8-5.5-28.3-1.3-36.8,9.9C111.3,183.4,109,184.5,106.6,184.5z"/>
</svg>
