<?xml version="1.0" encoding="utf-8"?>
<!-- Generator: Adobe Illustrator 18.0.0, SVG Export Plug-In . SVG Version: 6.00 Build 0)  -->
<!DOCTYPE svg PUBLIC "-//W3C//DTD SVG 1.1//EN" "http://www.w3.org/Graphics/SVG/1.1/DTD/svg11.dtd">
<svg version="1.1" id="Layer_1" xmlns="http://www.w3.org/2000/svg" xmlns:xlink="http://www.w3.org/1999/xlink" x="0px" y="0px"
	 width="511.9px" height="511.9px" viewBox="0 0 511.9 511.9" enable-background="new 0 0 511.9 511.9" xml:space="preserve">
<path fill="#FFFFFF" d="M156.2,312.5c13.6,1.2,29.5,3.6,46.5,4.4c17,1.2,35.1,1.4,53.3,1.7c18.1-0.3,36.3-0.5,53.3-1.7
	c17-0.8,32.9-3.2,46.5-4.4c13.6-1.2,24.9-4,32.9-5.2c6.3-1.2,10.4-2.2,11.8-2.6c-8-0.5-15.9-1-23.8-1.5l-40.3-1.6
	c-26.8-0.9-53.7-0.8-80.5-1.3c-26.9,0.5-53.7,0.4-80.5,1.3l-40.3,1.5c-7.9,0.6-15.7,1-23.6,1.5c1.5,0.4,5.6,1.4,11.8,2.5
	C131.3,308.5,142.6,311.2,156.2,312.5z"/>
</svg>
