<?xml version="1.0" encoding="iso-8859-1"?>
<!-- Generator: Adobe Illustrator 19.1.0, SVG Export Plug-In . SVG Version: 6.00 Build 0)  -->
<!DOCTYPE svg PUBLIC "-//W3C//DTD SVG 1.1//EN" "http://www.w3.org/Graphics/SVG/1.1/DTD/svg11.dtd">
<svg version="1.1" xmlns="http://www.w3.org/2000/svg" xmlns:xlink="http://www.w3.org/1999/xlink" x="0px" y="0px"
	 viewBox="0 0 511.92 511.92" enable-background="new 0 0 511.92 511.92" xml:space="preserve">
<g id="Layer_2">
	<path fill="#FFD3B6" d="M387.792,344.021c0-62.092-33.526-83.255-33.526-103.038s0-204.178,0-204.178
		c0-17.869-14.017-32.339-31.999-32.339c-17.933,0-32.5,14.486-32.5,32.339v150.147c-5.9-7.294-14.898-11.944-25.161-11.944
		c-9.881,0-18.747,4.343-24.784,11.207c-4.573,3.844-8.379,3.834-13.236-0.543c-5.889-6.554-14.42-10.665-24.07-10.665
		c-9.959,0-18.885,4.411-24.922,11.369c-4.692,3.853-8.599,3.58-13.704-1.329c-5.86-6.183-14.131-10.04-23.464-10.04
		c-18.164,0-32.918,14.656-32.918,32.722v51.434v14.017c0,9.132,3.898,17.316,10.166,22.904v64.925c0,0.002,0,0.003,0,0.005
		c0,28.646,13.114,54.228,33.663,71.076v58.582c0,11.735,9.513,21.248,21.248,21.248h134.533c11.735,0,21.248-9.513,21.248-21.248
		v-45.595c36.483-14.703,59.426-49.099,59.426-93.805c0-2.263-0.066-4.493-0.182-6.698
		C387.68,344.392,387.747,344.209,387.792,344.021z"/>
</g>
<g id="Layer_1">
</g>
</svg>
