<?xml version="1.0" encoding="utf-8"?>
<!-- Generator: Adobe Illustrator 18.0.0, SVG Export Plug-In . SVG Version: 6.00 Build 0)  -->
<!DOCTYPE svg PUBLIC "-//W3C//DTD SVG 1.1 Tiny//EN" "http://www.w3.org/Graphics/SVG/1.1/DTD/svg11-tiny.dtd">
<svg version="1.1" baseProfile="tiny" id="Layer_1" xmlns="http://www.w3.org/2000/svg" xmlns:xlink="http://www.w3.org/1999/xlink"
	 x="0px" y="0px" width="511.9px" height="511.9px" viewBox="0 0 511.9 511.9" xml:space="preserve">
<path fill="#FFD469" d="M255.9,24c-128.1,0-232,103.9-232,232c0,3.4,0.1,6.9,0.2,10.3C10.6,268,0.2,279.5,0.2,293.5
	c0,15.2,12.3,27.6,27.6,27.6h5.4c28.2,96.4,117.2,166.8,222.7,166.8c128.1,0,232-103.8,232-232C487.8,127.8,384,24,255.9,24z"/>
<path fill="#FFB636" d="M487.6,266.2c0.1-3.4,0.2-6.8,0.2-10.3c0-62-24.3-118.3-64-159.8c22.4,36.3,35.4,79.1,35.4,124.9
	c0,131.6-106.7,238.3-238.3,238.3c-45.8,0-88.6-13-124.9-35.4c41.6,39.6,97.9,63.9,159.9,63.9c105.5,0,194.6-70.4,222.7-166.8h5.4
	c15.2,0,27.6-12.3,27.6-27.6C511.5,279.5,501.1,268,487.6,266.2z"/>
<path fill="#F2A74E" d="M97.4,175.4c-1.2,0-2.4-0.3-3.6-0.8c-4-2-5.6-6.8-3.6-10.7c6.1-12.3,17.3-21.4,30.7-25
	c13.3-3.6,27.6-1.3,39,6.3c3.7,2.4,4.7,7.4,2.3,11.1c-2.4,3.7-7.4,4.7-11.1,2.3c-7.6-5-17.1-6.6-26.1-4.2
	c-8.9,2.4-16.4,8.5-20.5,16.7C103.2,173.7,100.3,175.4,97.4,175.4z"/>
<path fill="#F2A74E" d="M414.3,175.4c-2.9,0-5.8-1.6-7.2-4.4c-4.1-8.2-11.6-14.3-20.5-16.7c-8.9-2.4-18.4-0.9-26.1,4.2
	c-3.7,2.4-8.6,1.4-11.1-2.3c-2.4-3.7-1.4-8.6,2.3-11.1c11.5-7.6,25.7-9.9,39-6.3c13.3,3.6,24.5,12.7,30.7,25c2,4,0.4,8.8-3.6,10.7
	C416.7,175.1,415.5,175.4,414.3,175.4z"/>
<path fill="#2B3B47" d="M172.8,238.8c-6.4-14.4-19.4-23.3-34-23.3c-14.6,0-27.6,8.9-34,23.3c-0.4,0.8-0.6,1.7-0.8,2.5
	c-2,4.2-1.1,9.4,2.6,12.7c4.4,3.9,11.2,3.5,15.2-0.9c4.3-4.8,10.5-7.6,17-7.6c0,0,0,0,0,0c6.5,0,12.7,2.8,17,7.6
	c2.1,2.4,5.1,3.6,8,3.6c2.5,0,5.1-0.9,7.1-2.7c3.7-3.3,4.6-8.5,2.6-12.7C173.5,240.5,173.2,239.6,172.8,238.8z"/>
<path fill="#2B3B47" d="M405.4,241.3c-0.1-0.9-0.4-1.7-0.8-2.5c-6.4-14.4-19.4-23.3-34-23.3s-27.6,8.9-34,23.3
	c-0.4,0.8-0.6,1.7-0.8,2.5c-2,4.2-1.1,9.4,2.6,12.7c4.4,3.9,11.2,3.5,15.2-0.9c4.3-4.8,10.5-7.6,17-7.6c0,0,0,0,0,0
	c6.5,0,12.7,2.8,17,7.6c2.1,2.4,5.1,3.6,8,3.6c2.5,0,5.1-0.9,7.1-2.7C406.5,250.7,407.4,245.5,405.4,241.3z"/>
<path fill="#2B3B47" d="M257.9,395.4c-24.3,0-46.5-11.4-59.3-30.5c-3.3-4.9-2-11.5,2.9-14.8c4.9-3.3,11.5-2,14.8,2.9
	c8.8,13.2,24.3,21.1,41.5,21.1c17.2,0,32.7-7.9,41.5-21.1c3.3-4.9,9.9-6.2,14.8-2.9s6.2,9.9,2.9,14.8
	C304.3,384,282.2,395.4,257.9,395.4z"/>
</svg>
