<?xml version="1.0" encoding="iso-8859-1"?>
<!-- Generator: Adobe Illustrator 19.1.0, SVG Export Plug-In . SVG Version: 6.00 Build 0)  -->
<!DOCTYPE svg PUBLIC "-//W3C//DTD SVG 1.1//EN" "http://www.w3.org/Graphics/SVG/1.1/DTD/svg11.dtd">
<svg version="1.1" xmlns="http://www.w3.org/2000/svg" xmlns:xlink="http://www.w3.org/1999/xlink" x="0px" y="0px"
	 viewBox="0 0 511.92 511.92" enable-background="new 0 0 511.92 511.92" xml:space="preserve">
<g id="Layer_4">
	<path fill="#FFFFFF" d="M371.392,175.54c14.07,0,25.475,11.406,25.475,25.475v57.112c0,14.07-11.406,0.167-25.475,0.167l0,0
		c-14.07,0-25.475,13.903-25.475-0.167v-57.112C345.917,186.945,357.323,175.54,371.392,175.54L371.392,175.54z M140.478,175.54
		c-14.07,0-25.475,11.406-25.475,25.475v57.112c0,14.07,11.406,0.167,25.475,0.167l0,0c14.07,0,25.475,13.903,25.475-0.167v-57.112
		C165.953,186.945,154.548,175.54,140.478,175.54L140.478,175.54z M254.258,382.26c18.224-0.104,35.258-7.605,46.734-20.58
		c3.902-4.412,3.489-11.151-0.923-15.054c-4.413-3.903-11.152-3.49-15.054,0.923c-7.461,8.435-18.716,13.312-30.879,13.381
		c-0.088,0.001-0.176,0.001-0.264,0.001c-12.129,0-23.397-4.773-30.951-13.119c-3.953-4.367-10.697-4.705-15.064-0.751
		c-4.367,3.952-4.704,10.696-0.751,15.063c11.594,12.811,28.619,20.137,46.767,20.137
		C254.001,382.261,254.131,382.261,254.258,382.26z"/>
</g>
<g id="Layer_1">
</g>
</svg>
