<?xml version="1.0" encoding="iso-8859-1"?>
<!-- Generator: Adobe Illustrator 19.1.0, SVG Export Plug-In . SVG Version: 6.00 Build 0)  -->
<!DOCTYPE svg PUBLIC "-//W3C//DTD SVG 1.1//EN" "http://www.w3.org/Graphics/SVG/1.1/DTD/svg11.dtd">
<svg version="1.1" xmlns="http://www.w3.org/2000/svg" xmlns:xlink="http://www.w3.org/1999/xlink" x="0px" y="0px"
	 viewBox="0 0 512 512" enable-background="new 0 0 512 512" xml:space="preserve">
<g id="Layer_2">
	<path fill="#FFD3B6" d="M429.66,272.791c0-1.707-0.036-3.396-0.09-5.076c-0.451-75.602-36.637-82.715-36.637-107.076
		c0-24.514,0-66.195,0-66.195c0-22.142-17.369-40.073-39.652-40.073c-10.252,0-19.602,3.836-26.715,10.124
		c-0.26,0.194-0.567,0.465-0.939,0.837c-0.097,0.097-0.19,0.183-0.285,0.276c-0.125,0.12-0.25,0.239-0.373,0.36
		c-6.571,6.12-8.493,0.699-14.339-7.663c-0.04-0.057-0.078-0.104-0.118-0.157c-7.134-10.859-19.339-18.009-33.501-18.009
		c-12.238,0-23.217,5.375-30.694,13.873c-5.704,4.803-10.445,4.765-16.514-0.748c-7.29-8.068-17.82-13.125-29.732-13.125
		c-17.064,0-31.691,10.442-37.773,25.246c-0.005,0.012-0.011,0.021-0.016,0.033c-0.167,0.399-0.325,0.803-0.476,1.206
		c-0.024,0.065-0.049,0.129-0.073,0.193c-2.439,6.595-3.069,13.2-9.534,7.109c-7.26-7.659-17.505-12.44-29.068-12.44
		c-22.508,0-40.792,18.161-40.792,40.548v10.8v52.935v10.254c0,11.316,4.831,21.457,12.598,28.382v80.455c0,0.002,0,0.003,0,0.005
		c0,35.498,16.25,67.198,41.714,88.075v72.593c0,14.542,11.788,26.33,26.33,26.33h166.709c14.542,0,26.33-11.788,26.33-26.33v-56.5
		C401.229,370.812,429.66,328.189,429.66,272.791z"/>
</g>
<g id="Layer_1">
</g>
</svg>
