<?xml version="1.0" encoding="utf-8"?>
<!-- Generator: Adobe Illustrator 18.1.0, SVG Export Plug-In . SVG Version: 6.00 Build 0)  -->
<!DOCTYPE svg PUBLIC "-//W3C//DTD SVG 1.0//EN" "http://www.w3.org/TR/2001/REC-SVG-20010904/DTD/svg10.dtd">
<svg version="1.0" id="Layer_1" xmlns="http://www.w3.org/2000/svg" xmlns:xlink="http://www.w3.org/1999/xlink" x="0px" y="0px"
	 width="72px" height="72px" viewBox="0 0 72 72" enable-background="new 0 0 72 72" xml:space="preserve">
<path fill="#FFD3B6" d="M53.3,0.3c-2.5-0.4-4.8,1.3-5.2,3.8L45,23.6v0c-0.3,1.6-1.4,1.9-1.7,0.4c0-0.1,0-0.1,0-0.1
	c-1.2-8.4-2.7-19.3-2.7-19.3c-0.3-2.5-2.6-4.2-5.1-3.9c-2.5,0.3-4.2,2.6-3.9,5.1l2.7,19.4c0.2,1.7-1.2,2.2-2.6,0.8
	c-0.8-0.9-2-1.4-3.3-1.4c-1.4,0-2.6,0.6-3.4,1.5c-0.7,0.6-1.3,0.6-2.1-0.1c-0.8-0.9-2-1.4-3.3-1.4c-2.6,0-4.6,2.1-4.6,4.6v7.2v2
	c0,1.3,0.6,2.4,1.4,3.2v9.2c0,4,1.8,7.6,4.7,10V69c0,1.7,1.3,3,3,3h18.9c1.7,0,3-1.3,3-3v-6.4c5.1-2.1,8.4-6.9,8.4-13.2
	c0-0.3,0-0.6,0-0.9c0,0,0-0.1,0-0.1c0-8.7-1.7-11.7-1.7-14.5s4.3-28.4,4.3-28.4C57.5,3,55.8,0.7,53.3,0.3z"/>
<path fill="#F2C7AA" d="M40.3,63.7H29.8c0,0-0.1,0-0.1,0c-0.1,0-0.1,0-0.2,0c-3.1,0-6-1.1-8.2-2.9v0c0,3.1,2.5,5.6,5.6,5.6h17
	c1.3,0,2.3-1,2.3-2.3v-1.6C44.4,63.3,42.4,63.7,40.3,63.7z"/>
<path fill="#F2C8AB" d="M48.5,37.5c0.3,0.2,0.5,0.3,0.8,0.5C49,37.9,48.7,37.7,48.5,37.5c-1.3-0.8-2.6-1.5-4.1-2.1
	c-0.7-0.2-1.5-0.5-2.3-0.6c-0.8-0.1-1.6-0.2-2.3-0.2l-4.6-0.1c-0.5,0-1.1,0.1-1.6,0.2c0,0,0,0,0,0c0.1-3.1,0.2-6.1,0.2-6.1
	c0-0.4-0.3-0.6-0.6-0.6s-0.6,0.3-0.6,0.6v1.5v9c-0.3,1.9-2,3.4-4,3.4c-1.8,0-3.3-1.2-3.8-2.9v-9.5v-1.6c0-0.4-0.3-0.6-0.6-0.6
	s-0.6,0.3-0.6,0.6v2.4v9c-0.7,1.5-2.2,2.6-4,2.6c-1.1,0-2.1-0.4-2.8-1.1v1.2c0.9,0.7,1.9,1.1,3.1,1.1c1.7,0,3.2-0.8,4.2-2.1
	c0,0,0.1,0,0.1,0c0,0,0.1,0,0.1,0c0.9,1.4,2.5,2.4,4.3,2.4c1.3,0,2.4-0.5,3.3-1.2c0.4,0.4,0.9,0.7,1.4,0.9c0.2,0.1,0.4,0.1,0.7,0.2
	c0.2,0,0.5,0.1,0.7,0.1c0.5,0,0.8,0,1.2,0c0.8,0,1.5,0,2.2,0.1c0.7,0.1,1.5,0.2,1.8,0.4c0.2,0.1,0.2,0.2,0.3,0.5
	c0,0.1,0,0.2,0.1,0.4l0,0.3c0,0,0,0.1,0,0.2c0,0.2-0.1,0.5-0.3,0.7c-0.1,0.2-0.4,0.4-0.6,0.5l-0.1,0l0,0l-0.7,0.5l-0.6,0.6
	c-0.4,0.4-0.7,0.8-1,1.3c-0.3,0.5-0.6,1-0.8,1.5c-0.2,0.5-0.4,1-0.5,1.6c-0.1,0.5-0.2,1.1-0.3,1.6c0,0.6,0,1.1,0,1.7
	c0.1,0.6,0.2,1.1,0.3,1.6l0.3,0.8l0.3,0.7c0.1,0.3,0.5,0.5,0.8,0.3c0.3-0.1,0.5-0.5,0.4-0.8L37,58l-0.2-0.7
	c-0.1-0.5-0.2-0.9-0.2-1.4c0-0.5,0-0.9,0-1.4c0.1-0.5,0.1-0.9,0.3-1.4c0.1-0.5,0.3-0.9,0.5-1.3c0.2-0.4,0.4-0.8,0.7-1.2
	c0.3-0.4,0.6-0.7,0.9-1.1l0.5-0.5l0.6-0.4l-0.1,0.1c0.5-0.3,0.8-0.6,1.1-1c0.3-0.4,0.5-0.9,0.6-1.4c0-0.1,0-0.2,0-0.4l0-0.3
	c0-0.2,0-0.5-0.1-0.7c-0.1-0.5-0.5-1.1-0.9-1.4c-0.5-0.3-0.9-0.4-1.3-0.5c-0.4-0.1-0.8-0.1-1.2-0.2c-0.8-0.1-1.6-0.1-2.3-0.1
	c-0.4,0-0.8,0-1.1,0c-0.2,0-0.3,0-0.5-0.1c-0.1,0-0.3-0.1-0.4-0.1c-0.3-0.1-0.7-0.3-0.9-0.6c0.1-0.2,0.2-0.3,0.3-0.5c0,0,0,0,0,0
	c0.2-0.6,0.3-2.7,0.4-5.1c0.5-0.2,1.1-0.4,1.7-0.4l4.6,0c0.9,0,1.8,0,2.7,0l0.5,0.1c1.4,0.2,2.5,0.5,3.6,1.1l2.4,0.7
	c-0.4-0.3-0.7-0.5-1.1-0.7C48,37.3,48.3,37.4,48.5,37.5z M32.3,42.5C32.3,42.5,32.3,42.5,32.3,42.5C32.3,42.5,32.3,42.5,32.3,42.5z"
	/>
</svg>
