<?xml version="1.0" encoding="iso-8859-1"?>
<!-- Generator: Adobe Illustrator 19.1.0, SVG Export Plug-In . SVG Version: 6.00 Build 0)  -->
<!DOCTYPE svg PUBLIC "-//W3C//DTD SVG 1.1//EN" "http://www.w3.org/Graphics/SVG/1.1/DTD/svg11.dtd">
<svg version="1.1" xmlns="http://www.w3.org/2000/svg" xmlns:xlink="http://www.w3.org/1999/xlink" x="0px" y="0px"
	 viewBox="0 0 512 512" enable-background="new 0 0 512 512" xml:space="preserve">
<g id="Layer_3">
	<path fill="#EDC0A2" d="M383.014,166.588c-16.871-11.861-32.144-19.5-56.136-22.324V84.373c0-3.099-2.513-5.611-5.611-5.611
		s-5.611,2.513-5.611,5.611v58.961c-3.761-0.195-7.712-0.299-11.906-0.299c-0.24,0-0.476,0.02-0.708,0.05
		c-1.341-0.041-2.662-0.083-3.998-0.099l-40.354-0.707c-3.375-0.05-6.755,0.224-10.146,0.841V84.373
		c0-3.099-2.513-5.611-5.611-5.611s-5.611,2.513-5.611,5.611v62.378c0,0,0.001,0,0.001,0c-0.368,0.18-0.743,0.34-1.106,0.532
		c-1.764,0.935-3.481,1.991-5.087,3.209c-1.621,1.195-3.143,2.533-4.543,3.984c-1.416,1.437-2.699,3-3.856,4.64
		c-1.17,1.634-2.195,3.36-3.085,5.143c-3.561,7.152-4.977,15.1-4.523,22.871c0.408,6.814,2.251,13.596,5.654,19.699
		c-5.939,4.39-13.295,6.99-21.256,6.99c-15.969,0-29.107-10.387-33.543-24.73V98.7c0-3.099-2.512-5.611-5.611-5.611
		s-5.611,2.513-5.611,5.611v12.395c-0.258,0.838-0.397,1.728-0.397,2.65v68.08c0,2.036,0.141,4.048,0.397,6.032v3.082
		c-5.826,13.453-19.284,22.88-34.938,22.88c-9.64,0-18.308-3.558-24.877-9.415v11.001c7.838,6.093,17.451,9.404,27.634,9.404
		c15.742,0,29.638-7.971,37.855-20.065c1.91,3.316,4.243,6.406,6.984,9.189c8.49,8.614,19.89,13.359,32.101,13.359
		c11.056,0,21.206-3.93,29.117-10.458c0.573,0.528,1.147,1.055,1.753,1.548c3.166,2.588,6.793,4.67,10.629,6.083
		c1.912,0.728,3.88,1.273,5.858,1.677c1.986,0.427,3.92,0.641,6.121,0.794c0.501,0.032,0.863,0.03,1.301,0.045l0.63,0.017
		l0.807,0.01l2.508,0.005l5.006,0.029c6.655,0.066,13.297,0.185,19.687,0.671c3.184,0.249,6.307,0.605,9.158,1.181
		c2.826,0.569,5.4,1.437,6.858,2.469c0.742,0.514,1.216,1.005,1.619,1.622c0.4,0.616,0.743,1.436,1.002,2.511
		c0.259,1.064,0.429,2.354,0.512,3.736c0.039,0.738,0.058,1.278,0.065,2.204l-0.021,0.772c-0.031,0.266-0.032,0.538-0.074,0.801
		c-0.26,2.11-1.075,4.122-2.475,6.02c-0.69,0.946-1.527,1.851-2.451,2.685c-0.462,0.416-0.951,0.813-1.447,1.178
		c-0.248,0.183-0.497,0.357-0.741,0.518l-0.531,0.336l-0.797,0.49l-2.947,2.226l-2.845,2.353l-2.737,2.476l-2.624,2.593
		c-0.85,0.888-1.672,1.803-2.507,2.705c-0.808,0.926-1.583,1.88-2.373,2.82c-0.766,0.96-1.498,1.946-2.246,2.919
		c-0.723,0.992-1.411,2.008-2.115,3.011c-0.678,1.022-1.322,2.065-1.982,3.098c-0.632,1.05-1.231,2.118-1.846,3.178l-1.707,3.252
		l-1.566,3.319l-1.423,3.381l-1.278,3.437l-1.131,3.486l-0.982,3.529l-0.827,3.568l-0.664,3.6l-0.511,3.624l-0.356,3.641
		l-0.201,3.653c-0.016,1.22-0.048,2.438-0.044,3.657c0.037,1.219,0.055,2.438,0.113,3.655c0.09,1.216,0.159,2.433,0.27,3.646
		c0.142,1.211,0.263,2.424,0.428,3.631c0.195,1.203,0.378,2.408,0.601,3.606c0.253,1.192,0.485,2.388,0.761,3.574
		c0.305,1.179,0.591,2.363,0.917,3.535c0.357,1.164,0.697,2.333,1.072,3.49l1.227,3.443l1.422,3.484l1.422,3.08
		c1.262,2.725,4.469,3.994,7.263,2.825c2.859-1.197,4.207-4.485,3.01-7.344l-1.31-3.129l-1.032-2.841l-0.943-2.984l-0.811-3.027
		l-0.676-3.058c-0.199-1.025-0.357-2.057-0.541-3.083l-0.408-3.102c-0.114-1.036-0.188-2.078-0.287-3.115
		c-0.068-1.04-0.098-2.083-0.151-3.124l-0.016-3.127l0.118-3.124l0.252-3.116l0.384-3.102l0.515-3.081l0.645-3.056l0.762-3.027
		l0.887-2.992l1.012-2.951l1.135-2.904l1.256-2.851l1.375-2.793l1.492-2.73l1.606-2.662l1.718-2.588l1.826-2.509
		c0.647-0.807,1.275-1.629,1.932-2.426l2.033-2.337l2.122-2.255l2.217-2.158l2.309-2.057l2.397-1.953l2.22-1.651l0.376-0.222
		l0.718-0.447c0.461-0.298,0.904-0.602,1.336-0.913c0.864-0.623,1.688-1.281,2.483-1.981c1.586-1.402,3.065-2.961,4.379-4.716
		c2.642-3.473,4.571-7.843,5.159-12.416c0.086-0.568,0.119-1.139,0.173-1.709c0.032-0.588,0.046-1.093,0.059-1.749
		c0.002-0.756-0.018-1.897-0.066-2.839c-0.111-1.973-0.314-4.04-0.854-6.246c-0.53-2.19-1.406-4.556-2.842-6.764
		c-1.419-2.213-3.383-4.133-5.421-5.508c-2.045-1.394-4.128-2.324-6.113-3.024c-1.995-0.705-3.916-1.176-5.793-1.563
		c-3.746-0.746-7.323-1.126-10.843-1.399c-7.027-0.52-13.845-0.619-20.64-0.678l-5.083-0.02l-2.536-0.001h-0.273
		c-0.017,0-0.029-0.001-0.023-0.001l-0.158-0.004l-0.63-0.016c-0.402-0.014-0.882-0.015-1.22-0.036
		c-1.151-0.09-2.573-0.2-3.879-0.479c-1.318-0.253-2.607-0.592-3.842-1.05c-4.966-1.763-9.216-5.173-12.237-9.705
		c-6.104-9.042-7.057-22.146-2.226-32.011c2.355-4.956,6.126-9.038,10.908-11.675c4.758-2.677,10.541-3.871,16.453-3.929
		l40.36-0.135l3.953-0.051c0.273,0.041,0.55,0.069,0.834,0.069c35.684,0,52.517,7.244,72.81,21.513
		c0.981,0.689,2.107,1.021,3.223,1.021c1.766,0,3.503-0.831,4.596-2.385C386.159,171.871,385.549,168.371,383.014,166.588z"/>
</g>
<g id="Layer_1">
</g>
</svg>
