<?xml version="1.0" encoding="utf-8"?>
<!-- Generator: Adobe Illustrator 18.0.0, SVG Export Plug-In . SVG Version: 6.00 Build 0)  -->
<!DOCTYPE svg PUBLIC "-//W3C//DTD SVG 1.1 Tiny//EN" "http://www.w3.org/Graphics/SVG/1.1/DTD/svg11-tiny.dtd">
<svg version="1.1" baseProfile="tiny" id="Layer_1" xmlns="http://www.w3.org/2000/svg" xmlns:xlink="http://www.w3.org/1999/xlink"
	 x="0px" y="0px" width="511.9px" height="511.9px" viewBox="0 0 511.9 511.9" xml:space="preserve">
<path fill="#FF473E" d="M476.6,133c-53.7-63.5-148.7-66.5-206.3-9.1c-0.1,0.1-0.1,0.1-0.2,0.2c-8,8-20.5,8-28.4,0
	c-0.1-0.1-0.1-0.1-0.2-0.2c-54.6-54.8-143.3-55-198.1-0.4C-3.2,169.8-10.9,244.6,25,299.7c11.2,17.3,25.3,30.6,40.9,40.7l180,145.7
	c6.4,5.2,15.6,5.2,22.1,0l178.8-145.9c15-10,28.6-23,39.5-39.5C520.4,249.4,516.4,180,476.6,133z"/>
</svg>
