<?xml version="1.0" encoding="iso-8859-1"?>
<!-- Generator: Adobe Illustrator 18.1.1, SVG Export Plug-In . SVG Version: 6.00 Build 0)  -->
<!DOCTYPE svg PUBLIC "-//W3C//DTD SVG 1.1//EN" "http://www.w3.org/Graphics/SVG/1.1/DTD/svg11.dtd">
<svg version="1.1" xmlns="http://www.w3.org/2000/svg" xmlns:xlink="http://www.w3.org/1999/xlink" x="0px" y="0px"
	 viewBox="0 0 512 512" enable-background="new 0 0 512 512" xml:space="preserve">
<g id="Layer_2">
	<path fill="#FF473E" d="M497.638,77.757c-159.163-39.106-318.326,43.539-477.489,8.034C10.319,83.599,1,91.122,1,101.194v97.741
		c0,37.862,0,75.724,0,113.586v101.445c0,7.251,4.94,13.588,11.981,15.318c159.163,39.106,318.326-43.539,477.489-8.034
		c9.83,2.193,19.149-5.331,19.149-15.403V312.52c0-37.862,0-75.724,0-113.586V93.075C509.619,85.825,504.68,79.487,497.638,77.757z"
		/>
</g>
<g id="Layer_3">
	<path fill="#FFD469" d="M65.274,198.432l-20.177,10.608c-2.992,1.573-6.489-0.968-5.918-4.299l3.853-22.467
		c0.227-1.323-0.212-2.673-1.173-3.61l-16.323-15.911c-2.421-2.36-1.085-6.47,2.26-6.957l22.558-3.278
		c1.328-0.193,2.477-1.027,3.071-2.231l10.088-20.441c1.496-3.031,5.819-3.031,7.315,0l10.088,20.441
		c0.594,1.204,1.742,2.038,3.071,2.231l22.558,3.278c3.345,0.486,4.681,4.597,2.26,6.957l-16.323,15.911
		c-0.961,0.937-1.4,2.287-1.173,3.61l3.853,22.467c0.571,3.332-2.926,5.872-5.918,4.299L69.07,198.432
		C67.882,197.807,66.463,197.807,65.274,198.432z M159.532,131.374l5.24,2.755c0.777,0.408,1.685-0.251,1.537-1.116l-1.001-5.834
		c-0.059-0.344,0.055-0.694,0.305-0.937l4.239-4.132c0.629-0.613,0.282-1.68-0.587-1.807l-5.858-0.851
		c-0.345-0.05-0.643-0.267-0.797-0.579l-2.62-5.308c-0.388-0.787-1.511-0.787-1.899,0l-2.62,5.308
		c-0.154,0.313-0.452,0.529-0.797,0.579l-5.858,0.851c-0.869,0.126-1.216,1.194-0.587,1.807l4.239,4.132
		c0.25,0.243,0.364,0.594,0.305,0.937l-1.001,5.834c-0.148,0.865,0.76,1.525,1.537,1.116l5.24-2.755
		C158.855,131.212,159.224,131.212,159.532,131.374z M190.999,163.898l5.24,2.755c0.777,0.408,1.685-0.251,1.537-1.116l-1.001-5.834
		c-0.059-0.344,0.055-0.694,0.305-0.937l4.239-4.132c0.629-0.613,0.282-1.68-0.587-1.807l-5.858-0.851
		c-0.345-0.05-0.643-0.267-0.797-0.579l-2.62-5.308c-0.389-0.787-1.511-0.787-1.899,0l-2.62,5.308
		c-0.154,0.313-0.452,0.529-0.797,0.579l-5.858,0.851c-0.869,0.126-1.216,1.194-0.587,1.807l4.239,4.132
		c0.25,0.243,0.364,0.594,0.305,0.937l-1.001,5.834c-0.148,0.865,0.76,1.525,1.537,1.116l5.24-2.755
		C190.321,163.736,190.69,163.736,190.999,163.898z M190.999,211.421l5.24,2.755c0.777,0.408,1.685-0.251,1.537-1.116l-1.001-5.834
		c-0.059-0.344,0.055-0.694,0.305-0.937l4.239-4.132c0.629-0.613,0.282-1.68-0.587-1.807l-5.858-0.851
		c-0.345-0.05-0.643-0.267-0.797-0.579l-2.62-5.308c-0.389-0.787-1.511-0.787-1.899,0l-2.62,5.308
		c-0.154,0.313-0.452,0.529-0.797,0.579l-5.858,0.851c-0.869,0.126-1.216,1.194-0.587,1.807l4.239,4.132
		c0.25,0.243,0.364,0.594,0.305,0.937l-1.001,5.834c-0.148,0.865,0.76,1.525,1.537,1.116l5.24-2.755
		C190.321,211.259,190.69,211.259,190.999,211.421z M159.532,243.945l5.24,2.755c0.777,0.408,1.685-0.251,1.537-1.116l-1.001-5.834
		c-0.059-0.344,0.055-0.694,0.305-0.937l4.239-4.132c0.629-0.613,0.282-1.68-0.587-1.807l-5.858-0.851
		c-0.345-0.05-0.643-0.267-0.797-0.579l-2.62-5.308c-0.388-0.787-1.511-0.787-1.899,0l-2.62,5.308
		c-0.154,0.313-0.452,0.529-0.797,0.579l-5.858,0.851c-0.869,0.126-1.216,1.194-0.587,1.807l4.239,4.132
		c0.25,0.243,0.364,0.594,0.305,0.937l-1.001,5.834c-0.148,0.865,0.76,1.525,1.537,1.116l5.24-2.755
		C158.855,243.783,159.224,243.783,159.532,243.945z"/>
</g>
</svg>
