<?xml version="1.0" encoding="iso-8859-1"?>
<!-- Generator: Adobe Illustrator 19.1.0, SVG Export Plug-In . SVG Version: 6.00 Build 0)  -->
<!DOCTYPE svg PUBLIC "-//W3C//DTD SVG 1.1//EN" "http://www.w3.org/Graphics/SVG/1.1/DTD/svg11.dtd">
<svg version="1.1" xmlns="http://www.w3.org/2000/svg" xmlns:xlink="http://www.w3.org/1999/xlink" x="0px" y="0px"
	 viewBox="0 0 512 512" enable-background="new 0 0 512 512" xml:space="preserve">
<g id="Layer_2">
	<path fill="#333333" d="M192.249,157.749c11.4-2.7,29.7-4.5,47.701-4.5c26.1,0,42.9,4.5,55.2,14.7
		c10.5,7.8,17.101,19.8,17.101,35.7c0,19.8-13.2,36.9-34.2,44.401v0.9c19.2,4.5,41.7,20.4,41.7,50.4c0,17.4-6.9,30.9-17.4,40.5
		c-13.8,12.9-36.601,18.9-69.601,18.9c-18,0-31.8-1.2-40.5-2.399V157.749z M218.349,240.55h23.7c27.301,0,43.501-14.7,43.501-34.2
		c0-23.4-17.7-33-44.101-33c-12,0-18.9,0.9-23.101,1.8V240.55z M218.349,337.151c5.4,0.899,12.601,1.199,21.9,1.199
		c27,0,51.9-9.899,51.9-39.3c0-27.3-23.7-39-52.2-39h-21.601V337.151z"/>
</g>
<g id="Layer_1">
</g>
</svg>
