<?xml version="1.0" encoding="iso-8859-1"?>
<!-- Generator: Adobe Illustrator 19.1.0, SVG Export Plug-In . SVG Version: 6.00 Build 0)  -->
<!DOCTYPE svg PUBLIC "-//W3C//DTD SVG 1.1//EN" "http://www.w3.org/Graphics/SVG/1.1/DTD/svg11.dtd">
<svg version="1.1" xmlns="http://www.w3.org/2000/svg" xmlns:xlink="http://www.w3.org/1999/xlink" x="0px" y="0px"
	 viewBox="0 0 512 512" enable-background="new 0 0 512 512" xml:space="preserve">
<g id="Layer_2">
	<path fill="#333333" d="M190.149,158.349c13.2-2.4,32.4-4.2,50.1-4.2c27.9,0,46.201,5.4,58.501,16.5c9.9,9,15.9,22.8,15.9,38.701
		c0,26.4-16.801,44.101-37.801,51.3v0.9c15.3,5.4,24.601,19.8,29.4,40.8c6.601,28.201,11.4,47.701,15.601,55.5H294.85
		c-3.3-6-7.8-23.101-13.2-48.3c-6-27.9-17.1-38.4-40.8-39.301h-24.601v87.601h-26.1V158.349z M216.249,250.45h26.7
		c27.9,0,45.601-15.3,45.601-38.4c0-26.101-18.9-37.5-46.5-37.5c-12.601,0-21.301,0.9-25.801,2.1V250.45z"/>
</g>
<g id="Layer_1">
</g>
</svg>
