<?xml version="1.0" encoding="iso-8859-1"?>
<!-- Generator: Adobe Illustrator 18.1.1, SVG Export Plug-In . SVG Version: 6.00 Build 0)  -->
<!DOCTYPE svg PUBLIC "-//W3C//DTD SVG 1.1//EN" "http://www.w3.org/Graphics/SVG/1.1/DTD/svg11.dtd">
<svg version="1.1" xmlns="http://www.w3.org/2000/svg" xmlns:xlink="http://www.w3.org/1999/xlink" x="0px" y="0px"
	 viewBox="0 0 512 512" enable-background="new 0 0 512 512" xml:space="preserve">
<g id="Layer_3">
	<path fill="#FF473E" d="M510.762,98.788c0-8.886-7.209-18.204-16.101-20.266c-1.034-0.241-2.069-0.456-3.103-0.686L313.881,186.038
		V74.79c-39,4.683-78,11.11-117,15.793v94.236L44.97,92.309c-9.623-1.421-19.246-3.217-28.869-5.457C7.209,84.79,0,89.89,0,98.788
		c0,6.924,0,13.848,0,20.772l127.983,77.94H0c0,39,0,78,0,117h133.876L0,396.029c0,5.728,0,11.455,0,17.183
		c0,8.887,7.209,18.204,16.101,20.266c2.979,0.693,5.957,1.332,8.935,1.944L196.881,330.77v106.44c39-4.683,78-11.11,117-15.793
		v-91.865l146.866,89.439c11.305,1.514,22.609,3.526,33.914,6.158c8.892,2.061,16.101-3.038,16.101-11.937
		c0-6.134,0-12.267,0-18.401L378.885,314.5h131.877c0-39,0-78,0-117H384.779l125.983-76.722
		C510.762,113.448,510.762,106.118,510.762,98.788z"/>
</g>
<g id="Layer_1">
</g>
</svg>
