<svg xmlns="http://www.w3.org/2000/svg" viewBox="0 0 512 512" enable-background="new 0 0 512 512"><path fill="#65CE65" d="M173.527 242.16c0-2.17-.623-3.983-1.608-5.36.068-1.214.108-2.452.108-3.726V198.24c0-6.726-7.542-9.128-10.444-3.333-11.766 23.493-31.487 60.154-48.622 78.963-3.935 4.32-.802 11.976 4.55 11.296 6.328-.804 13.336-2.23 20.162-4.677-12.296 21.622-26.165 43.408-38.908 57.395-4.98 5.467-1.015 15.16 5.76 14.298 7.452-.947 15.65-2.573 23.713-5.29-14.26 24.784-30.1 49.332-44.706 65.365-5.995 6.58-1.22 18.247 6.932 17.21 34.785-4.42 83.06 16.868 83.06-41.44v-91c0-1.085-.134-2.09-.37-3.02.24-2.485.37-5.066.37-7.76v-44.09z"/></svg>