<?xml version="1.0" encoding="iso-8859-1"?>
<!-- Generator: Adobe Illustrator 19.1.0, SVG Export Plug-In . SVG Version: 6.00 Build 0)  -->
<!DOCTYPE svg PUBLIC "-//W3C//DTD SVG 1.1//EN" "http://www.w3.org/Graphics/SVG/1.1/DTD/svg11.dtd">
<svg version="1.1" xmlns="http://www.w3.org/2000/svg" xmlns:xlink="http://www.w3.org/1999/xlink" x="0px" y="0px"
	 viewBox="0 0 512 512" enable-background="new 0 0 512 512" xml:space="preserve">
<g id="Layer_11">
	<path fill="#2B3B47" d="M493.637,169.439c0-21.259-26.165-39.374-75.668-52.387c-45.259-11.897-105.284-18.45-169.019-18.45
		s-123.76,6.552-169.019,18.45c-49.503,13.014-75.668,31.128-75.668,52.387c0,0.397,0.035,0.784,0.086,1.167
		c-0.051,0.383-0.086,0.771-0.086,1.167c0,21.258,26.165,39.374,75.668,52.387c45.259,11.898,105.284,18.45,169.019,18.45
		s123.76-6.552,169.019-18.45c49.503-13.013,75.668-31.128,75.668-52.387c0-0.397-0.035-0.784-0.086-1.167
		C493.602,170.224,493.637,169.836,493.637,169.439z M413.476,207.069c-43.835,11.523-102.264,17.869-164.525,17.869
		s-120.69-6.346-164.525-17.869c-46.123-12.125-62.489-26.591-62.489-35.295c0-0.397-0.035-0.784-0.086-1.167
		c0.051-0.383,0.086-0.771,0.086-1.167c0-8.704,16.366-23.17,62.489-35.295c43.834-11.523,102.264-17.869,164.525-17.869
		s120.691,6.346,164.525,17.869c46.123,12.125,62.489,26.591,62.489,35.295c0,0.397,0.035,0.784,0.086,1.167
		c-0.051,0.383-0.086,0.771-0.086,1.167C475.965,180.478,459.599,194.944,413.476,207.069z"/>
</g>
<g id="Layer_1">
</g>
</svg>
