<?xml version="1.0" encoding="iso-8859-1"?>
<!-- Generator: Adobe Illustrator 19.1.0, SVG Export Plug-In . SVG Version: 6.00 Build 0)  -->
<!DOCTYPE svg PUBLIC "-//W3C//DTD SVG 1.1//EN" "http://www.w3.org/Graphics/SVG/1.1/DTD/svg11.dtd">
<svg version="1.1" xmlns="http://www.w3.org/2000/svg" xmlns:xlink="http://www.w3.org/1999/xlink" x="0px" y="0px"
	 viewBox="0 0 512 512" enable-background="new 0 0 512 512" xml:space="preserve">
<g id="Layer_7">
	<path fill="#374954" d="M180.42,420.027v56.881c0,1.988-1.612,3.6-3.6,3.6h-29.299c-1.988,0-3.6-1.612-3.6-3.6v-56.881
		c0-10.079,8.171-18.25,18.25-18.25S180.42,409.948,180.42,420.027z M222.378,401.777c-10.079,0-18.25,8.171-18.25,18.25v56.881
		c0,1.988,1.612,3.6,3.6,3.6h29.299c1.988,0,3.6-1.612,3.6-3.6v-56.881C240.628,409.948,232.457,401.777,222.378,401.777z
		 M282.585,401.777c-10.079,0-18.25,8.171-18.25,18.25v56.881c0,1.988,1.612,3.6,3.6,3.6h29.299c1.988,0,3.6-1.612,3.6-3.6v-56.881
		C300.835,409.948,292.664,401.777,282.585,401.777z M342.793,401.777c-10.079,0-18.25,8.171-18.25,18.25v56.881
		c0,1.988,1.612,3.6,3.6,3.6h29.299c1.988,0,3.6-1.612,3.6-3.6v-56.881C361.042,409.948,352.872,401.777,342.793,401.777z
		 M170.437,212.626c-13.669,0-24.749,11.081-24.749,24.749v55.844c0,1.988,1.612,3.6,3.6,3.6h42.299c1.988,0,3.6-1.612,3.6-3.6
		v-55.844C195.187,223.707,184.106,212.626,170.437,212.626z M253.365,174.871c-13.669,0-24.749,11.081-24.749,24.749v93.598
		c0,1.988,1.612,3.6,3.6,3.6h42.299c1.988,0,3.6-1.612,3.6-3.6V199.62C278.114,185.952,267.034,174.871,253.365,174.871z
		 M336.293,212.626c-13.669,0-24.749,11.081-24.749,24.749v55.844c0,1.988,1.612,3.6,3.6,3.6h42.299c1.988,0,3.6-1.612,3.6-3.6
		v-55.844C361.042,223.707,349.962,212.626,336.293,212.626z"/>
</g>
<g id="Layer_1">
</g>
</svg>
