<?xml version="1.0" encoding="iso-8859-1"?>
<!-- Generator: Adobe Illustrator 19.1.0, SVG Export Plug-In . SVG Version: 6.00 Build 0)  -->
<!DOCTYPE svg PUBLIC "-//W3C//DTD SVG 1.1//EN" "http://www.w3.org/Graphics/SVG/1.1/DTD/svg11.dtd">
<svg version="1.1" xmlns="http://www.w3.org/2000/svg" xmlns:xlink="http://www.w3.org/1999/xlink" x="0px" y="0px"
	 viewBox="0 0 512 512" enable-background="new 0 0 512 512" xml:space="preserve">
<g id="Layer_4">
	<path fill="#597B91" d="M50.523,141.302c-2.277,0-4.124-1.846-4.124-4.124V38.612c0-2.277,1.847-4.124,4.124-4.124
		s4.124,1.846,4.124,4.124v98.566C54.647,139.456,52.8,141.302,50.523,141.302z M448.436,137.178V38.612
		c0-2.277-1.847-4.124-4.124-4.124s-4.124,1.846-4.124,4.124v98.566c0,2.277,1.847,4.124,4.124,4.124
		S448.436,139.456,448.436,137.178z M246.239,107.903V9.336c0-2.277-1.847-4.124-4.124-4.124s-4.124,1.846-4.124,4.124v98.566
		c0,2.277,1.847,4.124,4.124,4.124S246.239,110.18,246.239,107.903z"/>
</g>
<g id="Layer_1">
</g>
</svg>
