<?xml version="1.0" encoding="iso-8859-1"?>
<!-- Generator: Adobe Illustrator 19.1.0, SVG Export Plug-In . SVG Version: 6.00 Build 0)  -->
<!DOCTYPE svg PUBLIC "-//W3C//DTD SVG 1.1//EN" "http://www.w3.org/Graphics/SVG/1.1/DTD/svg11.dtd">
<svg version="1.1" xmlns="http://www.w3.org/2000/svg" xmlns:xlink="http://www.w3.org/1999/xlink" x="0px" y="0px"
	 viewBox="0 0 512 512" enable-background="new 0 0 512 512" xml:space="preserve">
<g id="Layer_13">
	<path fill="#2B3B47" d="M493.637,314.171c0-12.084-8.466-23.15-24.855-32.843v21.422c4.996,4.31,7.183,8.25,7.183,11.422
		c0,0.319,0.019,0.634,0.052,0.944c-0.033,0.31-0.052,0.625-0.052,0.944c0,8.704-16.366,23.17-62.489,35.295
		c-32.688,8.593-73.494,14.306-117.951,16.656v-25.403c0-6.332-5.133-11.466-11.466-11.466h-70.217
		c-6.332,0-11.466,5.133-11.466,11.466v25.403c-44.457-2.351-85.263-8.063-117.951-16.656
		c-46.123-12.125-62.489-26.591-62.489-35.295c0-0.319-0.019-0.634-0.052-0.944c0.033-0.31,0.052-0.625,0.052-0.944
		c0-3.172,2.188-7.111,7.183-11.421v-21.422c-16.389,9.693-24.855,20.759-24.855,32.843c0,0.319,0.019,0.634,0.052,0.944
		c-0.033,0.31-0.052,0.625-0.052,0.944c0,21.259,26.165,39.374,75.668,52.388c34.032,8.946,76.415,14.869,122.444,17.257v39.634
		h93.148v-39.634c46.03-2.388,88.412-8.311,122.445-17.257c49.503-13.014,75.668-31.129,75.668-52.388
		c0-0.319-0.019-0.634-0.052-0.944C493.618,314.805,493.637,314.49,493.637,314.171z"/>
</g>
<g id="Layer_1">
</g>
</svg>
