<?xml version="1.0" encoding="iso-8859-1"?>
<!-- Generator: Adobe Illustrator 19.1.0, SVG Export Plug-In . SVG Version: 6.00 Build 0)  -->
<!DOCTYPE svg PUBLIC "-//W3C//DTD SVG 1.1//EN" "http://www.w3.org/Graphics/SVG/1.1/DTD/svg11.dtd">
<svg version="1.1" xmlns="http://www.w3.org/2000/svg" xmlns:xlink="http://www.w3.org/1999/xlink" x="0px" y="0px"
	 viewBox="0 0 512 512" enable-background="new 0 0 512 512" xml:space="preserve">
<g id="Layer_6">
	<path fill="#FFDA70" d="M126.148,155.753l5.448,11.04l12.183,1.77l-8.816,8.593l2.081,12.134l-10.897-5.729l-10.897,5.729
		l2.081-12.134l-8.816-8.593l12.183-1.77L126.148,155.753z M278.552,172.887l-12.183,1.77l8.816,8.593l-2.081,12.134L284,189.656
		l10.897,5.729l-2.081-12.134l8.816-8.593l-12.183-1.77L284,161.847L278.552,172.887z M176.936,53.491l-15.88,2.307L172.547,67
		l-2.713,15.816l14.203-7.467l14.203,7.467L195.528,67l11.491-11.201l-15.88-2.307l-7.102-14.389L176.936,53.491z M437.644,126.429
		l-15.88,2.307l11.491,11.201l-2.713,15.816l14.203-7.467l14.203,7.467l-2.713-15.816l11.491-11.201l-15.88-2.307l-7.102-14.39
		L437.644,126.429z"/>
</g>
<g id="Layer_1">
</g>
</svg>
