<svg xmlns="http://www.w3.org/2000/svg" viewBox="0 0 512 512" enable-background="new 0 0 512 512"><path fill="#D1552A" d="M455.237 501.617V331.89c0-1.79 1.45-3.243 3.242-3.243h42.47v160.97c0 6.6-5.4 12-12 12h-33.713zm-392-231.174H9.717v219.174c0 6.6 5.4 12 12 12h44.762V273.685c0-1.79-1.452-3.242-3.243-3.242zm367.73-66.59H293.093c-2.306 0-4.176 1.87-4.176 4.177v293.588h146.226V208.03c0-2.306-1.868-4.176-4.174-4.176zm-197.65 108.038h-87.85c-1.468 0-2.66 1.192-2.66 2.662v187.066h93.17V314.55c.002-1.468-1.19-2.66-2.66-2.66z"/></svg>