<?xml version="1.0" encoding="iso-8859-1"?>
<!-- Generator: Adobe Illustrator 19.1.0, SVG Export Plug-In . SVG Version: 6.00 Build 0)  -->
<!DOCTYPE svg PUBLIC "-//W3C//DTD SVG 1.1//EN" "http://www.w3.org/Graphics/SVG/1.1/DTD/svg11.dtd">
<svg version="1.1" xmlns="http://www.w3.org/2000/svg" xmlns:xlink="http://www.w3.org/1999/xlink" x="0px" y="0px"
	 viewBox="0 0 512 512" enable-background="new 0 0 512 512" xml:space="preserve">
<g id="Layer_3">
	<path fill="#F05A28" d="M17.164,351.639H0.258v18.594H70.82v61.993h33.229v-61.993h305.163v61.993h33.325v-61.993H512v-18.594
		h-14.772v-45.567c4.879,3.027,9.677,5.962,14.772,8.638v-9.775c-32.534-17.5-57.336-44.751-68.945-77.675l-0.518,0.263v-0.493
		h-33.325v0.231l-0.388-0.098c-20.817,59.002-81.94,90.08-152.016,90.08c-70.205,0-131.296-31.078-152.144-89.981l-0.615,0.263
		v-0.493H70.82v1.281C58.698,261.394,33.324,288.858,0,306.204v9.626c6.076-2.826,11.603-6.308,17.164-9.889V351.639z
		 M466.683,281.039c7.822,8.213,16.388,15.802,25.987,22.339v48.26h-25.987V281.039z M442.537,248.45
		c5.204,9.888,12.121,18.989,19.587,27.465v75.724h-19.587V248.45z M387.62,278.082c8.338-8.574,15.773-18.068,21.591-29.107
		v102.664H387.62V278.082z M350.641,305.054c11.863-5.914,22.854-13.24,32.324-22.078v68.662h-32.324V305.054z M313.761,318.787
		c11.249-2.957,22.109-6.571,32.194-11.301v44.153h-32.194V318.787z M276.752,324.798c11.118-0.755,21.85-2.431,32.322-4.862v31.703
		h-32.322V324.798z M239.903,324.93c5.559,0.525,11.118,0.886,16.904,0.886c5.173,0,10.247-0.361,15.419-0.624v26.446h-32.323
		V324.93z M202.892,319.542c10.505,2.431,21.108,4.237,32.323,5.255v26.841h-32.323V319.542z M165.914,306.697
		c10.085,5.027,21.075,8.607,32.324,11.564v33.378h-32.324V306.697z M129.034,281.302c9.471,9.1,20.331,16.689,32.324,22.832v47.505
		h-32.324V281.302z M104.048,248.45c5.56,10.382,12.477,19.514,20.331,27.858v75.331h-20.331V248.45z M52.267,275.915
		c7.079-8.082,13.51-16.427,18.553-25.659v101.383H52.267V275.915z M21.721,303.378c9.6-6.537,18.166-14.258,26.02-22.471v70.731
		h-26.02V303.378z"/>
</g>
<g id="Layer_1">
</g>
</svg>
