<svg xmlns="http://www.w3.org/2000/svg" viewBox="0 0 512 512" enable-background="new 0 0 512 512"><path fill="#ED8135" d="M25.246 334.437h-8.44c-1.292 0-2.34-1.048-2.34-2.34V306.19c0-1.293 1.048-2.34 2.34-2.34h8.44c1.292 0 2.34 1.047 2.34 2.34v25.907c0 1.293-1.048 2.34-2.34 2.34zm27.053-2.34V306.19c0-1.292-1.05-2.34-2.34-2.34h-8.44c-1.293 0-2.34 1.048-2.34 2.34v25.908c0 1.292 1.047 2.34 2.34 2.34h8.44c1.29 0 2.34-1.048 2.34-2.34zm-24.714 48.13V354.32c0-1.292-1.048-2.34-2.34-2.34h-8.44c-1.292 0-2.34 1.048-2.34 2.34v25.908c0 1.292 1.048 2.34 2.34 2.34h8.44c1.292 0 2.34-1.048 2.34-2.34zm24.713 0V354.32c0-1.292-1.05-2.34-2.34-2.34h-8.44c-1.293 0-2.34 1.048-2.34 2.34v25.908c0 1.292 1.047 2.34 2.34 2.34h8.44c1.29 0 2.34-1.048 2.34-2.34zm-24.714 47.036v-25.908c0-1.292-1.048-2.34-2.34-2.34h-8.44c-1.292 0-2.34 1.048-2.34 2.34v25.908c0 1.292 1.048 2.34 2.34 2.34h8.44c1.292 0 2.34-1.048 2.34-2.34zm24.713 0v-25.908c0-1.292-1.05-2.34-2.34-2.34h-8.44c-1.293 0-2.34 1.048-2.34 2.34v25.908c0 1.292 1.047 2.34 2.34 2.34h8.44c1.29 0 2.34-1.048 2.34-2.34zm-24.714 48.13v-25.908c0-1.292-1.048-2.34-2.34-2.34h-8.44c-1.292 0-2.34 1.048-2.34 2.34v25.908c0 1.292 1.048 2.34 2.34 2.34h8.44c1.292 0 2.34-1.048 2.34-2.34zm24.713 0v-25.908c0-1.292-1.05-2.34-2.34-2.34h-8.44c-1.293 0-2.34 1.048-2.34 2.34v25.908c0 1.292 1.047 2.34 2.34 2.34h8.44c1.29 0 2.34-1.048 2.34-2.34zm300.916-192.125v-33.37c0-1.665-1.35-3.015-3.014-3.015h-10.87c-1.665 0-3.015 1.35-3.015 3.014v33.37c0 1.665 1.35 3.015 3.014 3.015h10.872c1.664 0 3.014-1.35 3.014-3.014zm31.83 0v-33.37c0-1.665-1.348-3.015-3.013-3.015h-10.87c-1.665 0-3.015 1.35-3.015 3.014v33.37c0 1.665 1.35 3.015 3.014 3.015h10.87c1.666 0 3.015-1.35 3.015-3.014zm31.832 0v-33.37c0-1.665-1.35-3.015-3.014-3.015h-10.87c-1.665 0-3.015 1.35-3.015 3.014v33.37c0 1.665 1.348 3.015 3.013 3.015h10.87c1.666 0 3.015-1.35 3.015-3.014zm-63.662 61.994v-33.37c0-1.665-1.35-3.015-3.014-3.015h-10.87c-1.665 0-3.015 1.35-3.015 3.014v33.372c0 1.664 1.35 3.014 3.014 3.014h10.872c1.664 0 3.014-1.35 3.014-3.014zm31.83 0v-33.37c0-1.665-1.348-3.015-3.013-3.015h-10.87c-1.665 0-3.015 1.35-3.015 3.014v33.372c0 1.664 1.35 3.014 3.014 3.014h10.87c1.666 0 3.015-1.35 3.015-3.014zm31.832 0v-33.37c0-1.665-1.35-3.015-3.014-3.015h-10.87c-1.665 0-3.015 1.35-3.015 3.014v33.372c0 1.664 1.348 3.014 3.013 3.014h10.87c1.666 0 3.015-1.35 3.015-3.014zm-63.662 60.583v-33.37c0-1.665-1.35-3.015-3.014-3.015h-10.87c-1.665 0-3.015 1.35-3.015 3.014v33.37c0 1.665 1.35 3.015 3.014 3.015h10.872c1.664 0 3.014-1.35 3.014-3.015zm31.83 0v-33.37c0-1.665-1.348-3.015-3.013-3.015h-10.87c-1.665 0-3.015 1.35-3.015 3.014v33.37c0 1.665 1.35 3.015 3.014 3.015h10.87c1.666 0 3.015-1.35 3.015-3.015zm-31.83 61.994v-33.372c0-1.664-1.35-3.014-3.014-3.014h-10.87c-1.665 0-3.015 1.35-3.015 3.014v33.37c0 1.665 1.35 3.015 3.014 3.015h10.872c1.664 0 3.014-1.35 3.014-3.014zm31.83 0v-33.372c0-1.664-1.348-3.014-3.013-3.014h-10.87c-1.665 0-3.015 1.35-3.015 3.014v33.37c0 1.665 1.35 3.015 3.014 3.015h10.87c1.666 0 3.015-1.35 3.015-3.014z"/></svg>