<?xml version="1.0" encoding="iso-8859-1"?>
<!-- Generator: Adobe Illustrator 19.1.0, SVG Export Plug-In . SVG Version: 6.00 Build 0)  -->
<!DOCTYPE svg PUBLIC "-//W3C//DTD SVG 1.1//EN" "http://www.w3.org/Graphics/SVG/1.1/DTD/svg11.dtd">
<svg version="1.1" xmlns="http://www.w3.org/2000/svg" xmlns:xlink="http://www.w3.org/1999/xlink" x="0px" y="0px"
	 viewBox="0 0 509.04 509.04" enable-background="new 0 0 509.04 509.04" xml:space="preserve">
<g id="Layer_12">
	<path fill="#FF473E" d="M229.041,228.627h-4.394c-8.384,0-15.645,4.485-19.738,11.138c-5.447-0.063-13.173-0.152-22.43-0.26
		c-9.358-0.006-20.276-0.013-31.974-0.02c-11.708,0.18-24.208,0.398-36.742,1.28c-6.274,0.47-12.531,1.084-18.66,1.905
		c-6.078,0.809-12.06,1.605-17.85,2.376c-5.756,0.664-11.446,1.64-16.893,2.499c-5.389,1.033-10.454,2.369-15.064,3.774
		c-4.579,1.559-8.779,3.012-12.348,4.767c-3.662,1.505-6.633,3.389-9.165,4.742c-4.87,2.999-7.773,5.551-7.594,5.41
		c-1.858,1.683,4.236,8.411,6.094,6.728c0.164-0.148,1.879-1.829,6.17-4.77c2.229-1.292,4.794-3.106,8.115-4.621
		c3.19-1.746,7.036-3.246,11.245-4.882c4.254-1.487,8.969-2.944,14.035-4.135c5.099-1.008,10.497-2.208,16.333-3.047
		c5.767-0.954,11.727-1.941,17.783-2.943c6.007-1,12.132-1.797,18.273-2.453c12.305-1.259,24.727-1.872,36.376-2.42
		c11.668-0.363,22.559-0.701,31.893-0.991c9.516-0.192,17.41-0.35,22.873-0.46l55.157,55.157c6.903,1.008,14.592,1.629,23.468,1.629
		c1.077,0,7.266-0.129,15.049-0.391L229.041,228.627z"/>
</g>
<g id="Layer_1">
</g>
</svg>
