<svg xmlns="http://www.w3.org/2000/svg" viewBox="0 0 512 512" enable-background="new 0 0 512 512"><path fill="#2B3B47" d="M371.636 202.087H232.943c-2.32 0-4.2 1.88-4.2 4.2v295.33h147.094v-295.33c0-2.32-1.88-4.2-4.2-4.2zm-163.157-28.04c2.868 0 5.193-2.325 5.193-5.194V156.29c0-2.87-2.325-5.194-5.194-5.194H32.705c-2.87 0-5.194 2.325-5.194 5.194v12.563c0 2.87 2.325 5.194 5.194 5.194h2.456v79.925h-2.456c-2.87 0-5.194 2.326-5.194 5.194v12.563c0 2.868 2.325 5.193 5.194 5.193h2.456v144.43h-2.456c-2.87 0-5.194 2.325-5.194 5.194v12.563c0 2.87 2.325 5.194 5.194 5.194h2.456v57.312h172.135v-57.312h1.18c2.87 0 5.195-2.326 5.195-5.194v-12.563c0-2.87-2.325-5.194-5.194-5.194h-1.18v-144.43h1.18c2.87 0 5.194-2.326 5.194-5.194v-12.564c0-2.87-2.325-5.194-5.194-5.194h-1.18v-79.925h1.18zm280.47 327.57h-85.735v-143.8c0-.26.043-.504.104-.743-.328-.305-.586-.687-.735-1.13l-4.938-14.674c-.6-1.782.726-3.627 2.606-3.627H500.95v151.973c0 6.6-5.4 12-12 12z"/></svg>