<?xml version="1.0" encoding="iso-8859-1"?>
<!-- Generator: Adobe Illustrator 19.1.0, SVG Export Plug-In . SVG Version: 6.00 Build 0)  -->
<!DOCTYPE svg PUBLIC "-//W3C//DTD SVG 1.1//EN" "http://www.w3.org/Graphics/SVG/1.1/DTD/svg11.dtd">
<svg version="1.1" xmlns="http://www.w3.org/2000/svg" xmlns:xlink="http://www.w3.org/1999/xlink" x="0px" y="0px"
	 viewBox="0 0 509.04 509.04" enable-background="new 0 0 509.04 509.04" xml:space="preserve">
<g id="Layer_2">
	<path fill="#332A23" d="M278.304,493.843c-0.447-0.364-0.875-0.762-1.283-1.195c-5.589-5.935-5.147-16.148,0.988-22.81
		c6.135-6.662,15.639-7.252,21.228-1.316c0,0,1.152,1.223,2.88,3.059c1.662,1.643,9.974,15.952,9.974,15.952
		c2.594,4.347,2.462,10.409-0.772,15.346c-4.255,6.497-12.27,8.585-17.901,4.664c0,0-2.442-1.701-5.757-4.647
		c-1.999-1.67-3.762-4.675-5.951-6.324c-1.95-1.563-3.25-2.605-3.25-2.605L278.304,493.843z M233.443,493.843
		c0.447-0.364,0.875-0.762,1.283-1.195c5.589-5.935,5.147-16.148-0.988-22.81c-6.135-6.662-15.639-7.252-21.228-1.316
		c0,0-1.152,1.223-2.88,3.059c-1.662,1.643-9.974,15.952-9.974,15.952c-2.594,4.347-2.462,10.409,0.772,15.346
		c4.255,6.497,12.27,8.585,17.901,4.664c0,0,2.442-1.701,5.757-4.647c1.999-1.67,3.762-4.675,5.951-6.324
		c1.95-1.563,3.25-2.605,3.25-2.605L233.443,493.843z"/>
</g>
<g id="Layer_1">
</g>
</svg>
