<?xml version="1.0" encoding="iso-8859-1"?>
<!-- Generator: Adobe Illustrator 19.1.0, SVG Export Plug-In . SVG Version: 6.00 Build 0)  -->
<!DOCTYPE svg PUBLIC "-//W3C//DTD SVG 1.1//EN" "http://www.w3.org/Graphics/SVG/1.1/DTD/svg11.dtd">
<svg version="1.1" xmlns="http://www.w3.org/2000/svg" xmlns:xlink="http://www.w3.org/1999/xlink" x="0px" y="0px"
	 viewBox="0 0 509.04 509.04" enable-background="new 0 0 509.04 509.04" xml:space="preserve">
<g id="Layer_6">
	<path fill="#BFBCAF" d="M291.656,490.127c-27.584-0.374-3.958-39.514-2.85-43.111c0.418-5.566-2.878-5.559,2.737-8.042
		c7.388-3.267,15.02-11.435,22.088-1.088c7.068,10.347-1.29,18.394-1.198,25.218C312.586,474.41,301.119,490.255,291.656,490.127z
		 M179.204,487.958c-0.128,0.535-0.221,1.087-0.276,1.655c-0.747,7.786,5.944,15.62,14.945,17.497
		c9.001,1.878,16.904-2.911,17.651-10.697c0,0,0.154-1.605,0.385-4.012c0.298-2.219-1.995-18.134-1.995-18.134
		c-0.642-4.873-4.51-9.595-10.14-11.712c-7.408-2.786-15.06-0.006-17.091,6.209c0,0-1.761,12.638-2.473,15.153
		c-0.576,2.315-0.96,3.858-0.96,3.858L179.204,487.958z"/>
</g>
<g id="Layer_1">
</g>
</svg>
