<?xml version="1.0" encoding="iso-8859-1"?>
<!-- Generator: Adobe Illustrator 19.1.0, SVG Export Plug-In . SVG Version: 6.00 Build 0)  -->
<!DOCTYPE svg PUBLIC "-//W3C//DTD SVG 1.1//EN" "http://www.w3.org/Graphics/SVG/1.1/DTD/svg11.dtd">
<svg version="1.1" xmlns="http://www.w3.org/2000/svg" xmlns:xlink="http://www.w3.org/1999/xlink" x="0px" y="0px"
	 viewBox="0 0 509.04 509.04" enable-background="new 0 0 509.04 509.04" xml:space="preserve">
<g id="Layer_9">
	<path fill="#BFBCAF" d="M505.052,194.119h-30.377v-4.152c0-2.425-1.966-4.39-4.39-4.39h-44.617c-2.425,0-4.39,1.966-4.39,4.39v8.62
		v15.392c-57.288-28.648-139.521-34.171-139.521-26.037c0,10.759,10.058,29.087-2.407,40.685h-54.703
		c-8.852,0-16.457,4.995-20.398,12.268c-13.714,0.684-32.421,1.072-58.681,1.072c-79.431,0-121.416,28.532-121.416,28.532v9.567
		H8.773c-1.143,0-2.069,0.926-2.069,2.069v13.929c0,1.143,0.926,2.069,2.069,2.069h30.284c1.143,0,2.069-0.927,2.069-2.069V281.18
		h1.181c0,0,100.99,0,140.706,0c39.715,0,53.332,17.851,100.99,17.851c2.804,0,40.199-0.867,50.495-2.722
		c22.03-3.972,10.024-16.516,65.821-16.516l21.613,0.399c0.783,1.295,2.19,2.169,3.813,2.169h79.306
		c2.468,0,4.468-2.001,4.468-4.468v-79.306C509.52,196.119,507.519,194.119,505.052,194.119z"/>
</g>
<g id="Layer_1">
</g>
</svg>
