<?xml version="1.0" encoding="iso-8859-1"?>
<!-- Generator: Adobe Illustrator 19.1.0, SVG Export Plug-In . SVG Version: 6.00 Build 0)  -->
<!DOCTYPE svg PUBLIC "-//W3C//DTD SVG 1.1//EN" "http://www.w3.org/Graphics/SVG/1.1/DTD/svg11.dtd">
<svg version="1.1" xmlns="http://www.w3.org/2000/svg" xmlns:xlink="http://www.w3.org/1999/xlink" x="0px" y="0px"
	 viewBox="0 0 509.04 509.04" enable-background="new 0 0 509.04 509.04" xml:space="preserve">
<g id="Layer_7">
	<path fill="#FFD3B6" d="M226.031,197.482c-0.018,0-0.033,0.002-0.051,0.002c0.077-0.038,0.15-0.08,0.227-0.118l-4.528-9.786
		l-2.014-4.347l-2.096-4.314l-4.213-8.619l-8.426-17.237l0.398,1.114l-4.06-10.487l-4.077-10.482l-4.158-10.457
		c-1.369-3.491-2.795-6.964-4.236-10.433l-8.603-20.824l-4.479-10.356l-2.242-5.177l-0.738-1.64
		c0.265-0.408,0.568-0.848,0.844-1.324c0.306-0.541,0.638-1.127,0.988-1.747c0.331-0.616,0.643-1.258,0.97-1.928
		c0.326-0.666,0.603-1.354,0.961-2.045c0.321-0.694,0.654-1.391,1.002-2.086c0.678-1.374,1.356-2.748,1.992-4.036
		c0.624-1.255,1.206-2.427,1.705-3.431c0.462-0.949,0.846-1.741,1.116-2.294c0.057-0.125,0.107-0.237,0.151-0.334
		c0.028-0.056,0.051-0.104,0.071-0.142c0.056-0.13,0.086-0.199,0.086-0.199l0.114-0.263c3.018-7.003-0.169-15.143-7.159-18.229
		c-7.028-3.102-15.241,0.08-18.343,7.109c0,0-0.059,0.135-0.171,0.387c-0.11,0.275-0.271,0.678-0.475,1.192
		c-0.336,0.93-0.764,2.212-1.153,3.745c-0.217,0.764-0.372,1.604-0.566,2.482c-0.189,0.879-0.343,1.812-0.493,2.778
		c-0.121,0.974-0.277,1.966-0.349,2.995c-0.099,1.021-0.166,2.062-0.199,3.11c-0.083,2.087-0.043,4.187,0.107,6.157
		c0.055,0.978,0.209,1.941,0.371,2.845c0.152,0.901,0.359,1.755,0.597,2.545c0.228,0.787,0.489,1.5,0.723,2.13
		c0.264,0.634,0.519,1.179,0.74,1.625c0.23,0.446,0.413,0.792,0.563,1.026c0.141,0.234,0.216,0.359,0.216,0.359
		c0.016,0.026,0.039,0.05,0.056,0.077l0.62,4.053l0.962,5.579c0.308,1.864,0.68,3.707,1.027,5.559l1.056,5.55l2.288,11.044
		c0.759,3.682,1.638,7.327,2.451,10.993l1.243,5.491l1.328,5.464l2.677,10.922c0.432,1.825,0.93,3.629,1.405,5.44l1.437,5.43
		l2.873,10.86l0.004,0.012l0.395,1.102l3.228,9.015l1.614,4.508c0.542,1.501,1.061,3.011,1.645,4.495l3.419,8.938l1.72,4.465
		l1.803,4.432c1.217,2.948,2.37,5.922,3.639,8.85l3.798,8.786l1.984,4.359c0.666,1.451,1.308,2.912,2.012,4.347l2.076,4.322
		l0.617,1.214v16.583C218.229,248.633,229.584,197.482,226.031,197.482z"/>
</g>
<g id="Layer_1">
</g>
</svg>
