<?xml version="1.0" encoding="iso-8859-1"?>
<!-- Generator: Adobe Illustrator 19.1.0, SVG Export Plug-In . SVG Version: 6.00 Build 0)  -->
<!DOCTYPE svg PUBLIC "-//W3C//DTD SVG 1.1//EN" "http://www.w3.org/Graphics/SVG/1.1/DTD/svg11.dtd">
<svg version="1.1" xmlns="http://www.w3.org/2000/svg" xmlns:xlink="http://www.w3.org/1999/xlink" x="0px" y="0px"
	 viewBox="0 0 509.04 509.04" enable-background="new 0 0 509.04 509.04" xml:space="preserve">
<g id="Layer_23">
	<path fill="#008E76" d="M253.664,190.208c0,0-0.351-0.186-1.009-0.535c-0.665-0.34-1.605-0.881-2.812-1.577
		c-1.198-0.707-2.689-1.511-4.305-2.564c-1.624-1.044-3.457-2.222-5.456-3.507c-2.008-1.278-4.081-2.791-6.314-4.342
		c-2.193-1.601-4.51-3.282-6.855-5.084c-2.337-1.81-4.764-3.664-7.123-5.667c-1.197-0.984-2.394-1.977-3.553-3.038
		c-1.157-1.027-2.361-2.107-3.526-3.228c-2.288-2.239-4.531-4.453-6.659-6.734c-2.122-2.274-4.21-4.512-6.23-6.677
		c-1.994-2.188-3.954-4.267-5.721-6.329c-1.764-2.063-3.431-4.014-4.971-5.815c-1.523-1.816-2.933-3.464-4.11-4.997
		c-1.197-1.511-2.22-2.849-3.05-3.959c-0.841-1.099-1.445-2.018-1.848-2.642c-0.385-0.651-0.552-1.001-0.552-1.001
		s0.211,0.332,0.657,0.916c0.471,0.566,1.17,1.388,2.106,2.393c1.86,2.021,4.588,4.843,7.911,8.179
		c6.66,6.658,15.645,15.437,24.985,23.832c2.334,2.1,4.746,4.111,7.094,6.119c2.36,1.995,4.683,3.957,6.931,5.857
		c4.509,3.784,8.754,7.272,12.432,10.212c3.676,2.943,6.78,5.344,8.966,7.007c2.193,1.654,3.447,2.599,3.447,2.599
		c0.159,0.12,0.191,0.347,0.071,0.506c-0.108,0.144-0.304,0.184-0.458,0.102L253.664,190.208z"/>
</g>
<g id="Layer_1">
</g>
</svg>
