<?xml version="1.0" encoding="iso-8859-1"?>
<!-- Generator: Adobe Illustrator 19.1.0, SVG Export Plug-In . SVG Version: 6.00 Build 0)  -->
<!DOCTYPE svg PUBLIC "-//W3C//DTD SVG 1.1//EN" "http://www.w3.org/Graphics/SVG/1.1/DTD/svg11.dtd">
<svg version="1.1" xmlns="http://www.w3.org/2000/svg" xmlns:xlink="http://www.w3.org/1999/xlink" x="0px" y="0px"
	 viewBox="0 0 509.04 509.04" enable-background="new 0 0 509.04 509.04" xml:space="preserve">
<g id="Layer_6">
	<path fill="#8E6049" d="M167.487,390.713c-1.265,0-2.525-0.514-3.442-1.525l-18.192-20.084c-1.721-1.9-1.576-4.836,0.324-6.557
		c1.9-1.721,4.835-1.576,6.557,0.324l18.192,20.084c1.721,1.9,1.576,4.836-0.324,6.557
		C169.713,390.316,168.598,390.713,167.487,390.713z M488.435,389.188l18.192-20.084c1.721-1.9,1.576-4.836-0.324-6.557
		c-1.899-1.721-4.835-1.578-6.557,0.324l-18.192,20.084c-1.721,1.9-1.576,4.836,0.324,6.557c0.889,0.805,2.003,1.201,3.115,1.201
		C486.258,390.713,487.519,390.199,488.435,389.188z M417.36,389.188l18.192-20.084c1.721-1.9,1.576-4.836-0.324-6.557
		c-1.899-1.721-4.835-1.578-6.557,0.324l-18.192,20.084c-1.721,1.9-1.576,4.836,0.324,6.557c0.889,0.805,2.003,1.201,3.115,1.201
		C415.184,390.713,416.444,390.199,417.36,389.188z"/>
</g>
<g id="Layer_1">
</g>
</svg>
