<svg xmlns="http://www.w3.org/2000/svg" viewBox="0 0 512 512" enable-background="new 0 0 512 512"><path fill="#0096D1" d="M88.1 292.798H34.56c-3.975 0-7.2-3.224-7.2-7.2v-42.12c0-3.975 3.225-7.2 7.2-7.2H88.1c3.975 0 7.2 3.225 7.2 7.2v42.12c0 3.977-3.225 7.2-7.2 7.2zm7.2 87.837v-42.12c0-3.975-3.225-7.2-7.2-7.2H34.56c-3.975 0-7.2 3.225-7.2 7.2v42.12c0 3.976 3.225 7.2 7.2 7.2H88.1c3.975 0 7.2-3.223 7.2-7.2zm390.42-95.037v-42.12c0-3.975-3.225-7.2-7.2-7.2h-53.54c-3.975 0-7.2 3.225-7.2 7.2v42.12c0 3.976 3.225 7.2 7.2 7.2h53.54c3.976 0 7.2-3.223 7.2-7.2zm0 95.037v-42.12c0-3.975-3.225-7.2-7.2-7.2h-53.54c-3.975 0-7.2 3.225-7.2 7.2v42.12c0 3.976 3.225 7.2 7.2 7.2h53.54c3.976 0 7.2-3.223 7.2-7.2z"/></svg>