<?xml version="1.0" encoding="iso-8859-1"?>
<!-- Generator: Adobe Illustrator 19.1.0, SVG Export Plug-In . SVG Version: 6.00 Build 0)  -->
<!DOCTYPE svg PUBLIC "-//W3C//DTD SVG 1.1//EN" "http://www.w3.org/Graphics/SVG/1.1/DTD/svg11.dtd">
<svg version="1.1" xmlns="http://www.w3.org/2000/svg" xmlns:xlink="http://www.w3.org/1999/xlink" x="0px" y="0px"
	 viewBox="0 0 509.04 509.04" enable-background="new 0 0 509.04 509.04" xml:space="preserve">
<g id="Layer_15">
	<path fill="#FFD3B6" d="M124.515,38.29c0,0,0.137,0.017,0.394,0.048l0.05,0.006c0.029,0.003,0.035,0.004-0.023,0
		c-0.076-0.002-0.157-0.005-0.241-0.007c-0.169,0.002-0.354,0.017-0.549,0.054c-0.097,0.018-0.197,0.042-0.297,0.072
		c-0.029,0.01-0.02,0.009-0.032,0.015c-0.014,0.01-0.028,0.024-0.04,0.042c-0.036,0.047,0.099,0.001,0.159,0.018
		c0.118-0.028,0.267-0.064,0.445-0.117c0.383-0.139,0.872-0.328,1.458-0.633c2.347-1.163,5.756-3.554,8.821-6.227
		c3.093-2.671,5.89-5.697,7.494-8.032c0.409-0.581,0.744-1.116,1.005-1.58c0.144-0.236,0.249-0.449,0.347-0.645
		c0.103-0.198,0.196-0.38,0.254-0.532c0.147-0.32,0.233-0.551,0.278-0.699c0.057-0.155,0.087-0.238,0.087-0.238l0.223-0.605
		c0.669-1.819,2.685-2.751,4.504-2.082c1.557,0.572,2.463,2.134,2.273,3.712c0,0-0.023,0.187-0.065,0.539
		c-0.038,0.362-0.115,0.869-0.255,1.47c-0.061,0.315-0.149,0.636-0.249,0.981c-0.097,0.351-0.206,0.728-0.342,1.102
		c-0.259,0.772-0.586,1.601-0.978,2.463c-1.552,3.474-4.135,7.495-7.101,11.209c-2.98,3.725-6.254,7.144-9.436,9.601
		c-0.784,0.616-1.613,1.175-2.414,1.666c-0.422,0.247-0.842,0.476-1.254,0.685c-0.485,0.215-0.835,0.397-1.337,0.568
		c-0.246,0.08-0.479,0.156-0.698,0.227c-0.114,0.034-0.225,0.067-0.333,0.098c-0.202,0.04-0.397,0.078-0.584,0.114
		c-0.38,0.064-0.736,0.105-1.062,0.13c-0.236,0.012-0.451,0.024-0.643,0.034c-0.259,0.015-0.397,0.024-0.397,0.024
		c-3.737,0.221-6.946-2.628-7.167-6.365c-0.221-3.737,2.628-6.946,6.365-7.167c0.405-0.024,0.803-0.012,1.192,0.033L124.515,38.29z"
		/>
</g>
<g id="Layer_1">
</g>
</svg>
