<svg xmlns="http://www.w3.org/2000/svg" viewBox="0 0 512 512" enable-background="new 0 0 512 512"><path fill="#F9F9F7" d="M399.106 139.784c-5.404 0-8.01-6.668-4.006-10.3 10.93-9.914 25.43-15.96 41.35-15.96 15.92 0 30.42 6.045 41.35 15.96 4.003 3.632 1.398 10.3-4.006 10.3h-74.688zm-287.11 0c5.403 0 8.008-6.668 4.005-10.3-10.928-9.914-25.43-15.96-41.35-15.96s-30.42 6.045-41.35 15.96c-4 3.632-1.397 10.3 4.007 10.3h74.688zm360.825 209c5.405 0 8.01-6.667 4.007-10.298-10.93-9.915-25.43-15.96-41.35-15.96s-30.42 6.044-41.35 15.96c-4.002 3.63-1.398 10.3 4.006 10.3h74.688zm-361.798 0c5.404 0 8.01-6.667 4.006-10.298-10.93-9.915-25.43-15.96-41.35-15.96s-30.42 6.044-41.35 15.96c-4.002 3.63-1.398 10.3 4.006 10.3h74.688zM292.67 48.363c5.404 0 8.01-6.668 4.006-10.3-10.93-9.914-25.43-15.96-41.35-15.96s-30.42 6.045-41.35 15.96c-4.002 3.632-1.398 10.3 4.006 10.3h74.688z"/></svg>