<?xml version="1.0" encoding="iso-8859-1"?>
<!-- Generator: Adobe Illustrator 19.1.0, SVG Export Plug-In . SVG Version: 6.00 Build 0)  -->
<!DOCTYPE svg PUBLIC "-//W3C//DTD SVG 1.1//EN" "http://www.w3.org/Graphics/SVG/1.1/DTD/svg11.dtd">
<svg version="1.1" xmlns="http://www.w3.org/2000/svg" xmlns:xlink="http://www.w3.org/1999/xlink" x="0px" y="0px"
	 viewBox="0 0 512 512" enable-background="new 0 0 512 512" xml:space="preserve">
<g id="Layer_9">
	<path fill="#FF473E" d="M334.084,160.717h-158.74c-5.639,0-10.21-4.571-10.21-10.21v0c0-5.639,4.571-10.21,10.21-10.21h158.74
		c5.639,0,10.21,4.571,10.21,10.21v0C344.294,156.146,339.723,160.717,334.084,160.717z M334.084,178.353h-158.74
		c-5.639,0-10.21,4.571-10.21,10.21v0c0,5.639,4.571,10.21,10.21,10.21h69.16v37.569c0,5.639,4.571,10.21,10.21,10.21h0
		c5.639,0,10.21-4.571,10.21-10.21v-37.569h69.16c5.639,0,10.21-4.571,10.21-10.21v0
		C344.294,182.924,339.723,178.353,334.084,178.353z"/>
</g>
<g id="Layer_1">
</g>
</svg>
