<?xml version="1.0" encoding="iso-8859-1"?>
<!-- Generator: Adobe Illustrator 19.1.0, SVG Export Plug-In . SVG Version: 6.00 Build 0)  -->
<!DOCTYPE svg PUBLIC "-//W3C//DTD SVG 1.1//EN" "http://www.w3.org/Graphics/SVG/1.1/DTD/svg11.dtd">
<svg version="1.1" xmlns="http://www.w3.org/2000/svg" xmlns:xlink="http://www.w3.org/1999/xlink" x="0px" y="0px"
	 viewBox="0 0 509.04 509.04" enable-background="new 0 0 509.04 509.04" xml:space="preserve">
<g id="Layer_7">
	<path fill="#464A4C" d="M160.608,226.869H10.389c-2.452,0-4.439-1.987-4.439-4.439v-10.737c0-2.452,1.987-4.439,4.439-4.439
		h150.219c2.452,0,4.439,1.987,4.439,4.439v10.737C165.047,224.882,163.06,226.869,160.608,226.869z M165.047,310.351v-10.737
		c0-2.452-1.987-4.439-4.439-4.439H10.389c-2.452,0-4.439,1.987-4.439,4.439v10.737c0,2.452,1.987,4.439,4.439,4.439h150.219
		C163.06,314.79,165.047,312.803,165.047,310.351z M165.047,453.399v-10.737c0-2.452-1.987-4.439-4.439-4.439H10.389
		c-2.452,0-4.439,1.987-4.439,4.439v10.737c0,2.452,1.987,4.439,4.439,4.439h150.219
		C163.06,457.838,165.047,455.851,165.047,453.399z"/>
</g>
<g id="Layer_1">
</g>
</svg>
