<?xml version="1.0" encoding="iso-8859-1"?>
<!-- Generator: Adobe Illustrator 19.1.0, SVG Export Plug-In . SVG Version: 6.00 Build 0)  -->
<!DOCTYPE svg PUBLIC "-//W3C//DTD SVG 1.1//EN" "http://www.w3.org/Graphics/SVG/1.1/DTD/svg11.dtd">
<svg version="1.1" xmlns="http://www.w3.org/2000/svg" xmlns:xlink="http://www.w3.org/1999/xlink" x="0px" y="0px"
	 viewBox="0 0 512 512" enable-background="new 0 0 512 512" xml:space="preserve">
<g id="Layer_4">
	<path fill="#E2AF8D" d="M210.583,508.027h-0.121c-3.316,0-6.005-2.688-6.005-6.005v-19.96c0-3.316,2.688-6.005,6.005-6.005h0.121
		c3.316,0,6.005,2.688,6.005,6.005v19.96C216.587,505.338,213.899,508.027,210.583,508.027z M151.892,502.022v-19.96
		c0-3.316-2.688-6.005-6.005-6.005h-0.121c-3.316,0-6.005,2.688-6.005,6.005v19.96c0,3.316,2.688,6.005,6.005,6.005h0.121
		C149.203,508.027,151.892,505.338,151.892,502.022z"/>
</g>
<g id="Layer_1">
</g>
</svg>
