<?xml version="1.0" encoding="iso-8859-1"?>
<!-- Generator: Adobe Illustrator 19.1.0, SVG Export Plug-In . SVG Version: 6.00 Build 0)  -->
<!DOCTYPE svg PUBLIC "-//W3C//DTD SVG 1.1//EN" "http://www.w3.org/Graphics/SVG/1.1/DTD/svg11.dtd">
<svg version="1.1" xmlns="http://www.w3.org/2000/svg" xmlns:xlink="http://www.w3.org/1999/xlink" x="0px" y="0px"
	 viewBox="0 0 512 512" enable-background="new 0 0 512 512" xml:space="preserve">
<g id="Layer_3">
	<path fill="#FFA9BA" d="M85.884,45.345v16.811v9.104v3.793c0-2.095-1.698-3.793-3.793-3.793h-4.742H46.712V37.879h31.706
		C82.542,37.879,85.884,41.222,85.884,45.345z M270.013,8.606h-31.706v33.381h30.637h4.742c2.095,0,3.793,1.698,3.793,3.793v-3.793
		v-9.104V16.071C277.479,11.948,274.136,8.606,270.013,8.606z M472.21,37.881h-31.706v33.381h30.637h4.742
		c2.095,0,3.793,1.698,3.793,3.793v-3.793v-9.104V45.347C479.676,41.223,476.334,37.881,472.21,37.881z"/>
</g>
<g id="Layer_1">
</g>
</svg>
