<svg xmlns="http://www.w3.org/2000/svg" viewBox="0 0 512 512" enable-background="new 0 0 512 512"><path fill="#2B3B47" d="M131.554 411.24h-77.19c-3.977 0-7.2-3.225-7.2-7.2v-31.58c0-3.977 3.223-7.2 7.2-7.2h77.19c3.976 0 7.2 3.223 7.2 7.2v31.58c0 3.976-3.223 7.2-7.2 7.2zm7.2 63.264v-31.58c0-3.976-3.224-7.2-7.2-7.2H53.966c-3.976 0-7.2 3.224-7.2 7.2v31.58c0 3.976 3.224 7.2 7.2 7.2h77.588c3.977 0 7.2-3.224 7.2-7.2zm266.253-79.698h-131.18V512h131.18V394.806zM114.155 223.84v34.46c0 2.932-2.377 5.31-5.31 5.31h-32.17c-2.933 0-5.31-2.378-5.31-5.31v-34.458c0-2.932-2.377-5.31-5.31-5.31H52.99c-2.932 0-5.31 2.378-5.31 5.31v111.562c0 2.932 2.378 5.31 5.31 5.31h13.07c2.93 0 5.308-2.378 5.308-5.31v-42.8c0-2.933 2.377-5.31 5.31-5.31h32.172c2.932 0 5.31 2.377 5.31 5.31v42.8c0 2.932 2.376 5.31 5.308 5.31h13.07c2.93 0 5.308-2.378 5.308-5.31V223.84c0-2.93-2.377-5.308-5.31-5.308h-13.068c-2.934 0-5.31 2.377-5.31 5.31z"/></svg>