<svg xmlns="http://www.w3.org/2000/svg" viewBox="0 0 512 512" enable-background="new 0 0 512 512"><path fill="#2B3B47" d="M459.23 91.79c-2.485 0-4.5-2.014-4.5-4.5V28.103c0-2.485 2.015-4.5 4.5-4.5s4.5 2.015 4.5 4.5v59.19c0 2.484-2.014 4.5-4.5 4.5zm-402.12-4.5V28.103c0-2.485-2.016-4.5-4.5-4.5s-4.5 2.015-4.5 4.5v59.19c0 2.484 2.014 4.5 4.5 4.5s4.5-2.016 4.5-4.5zm12.293 145.846v-19.188c0-3.976-3.224-7.2-7.2-7.2H43.015c-3.976 0-7.2 3.224-7.2 7.2v19.188c0 3.976 3.224 7.2 7.2 7.2h19.188c3.976 0 7.2-3.223 7.2-7.2zm0 51.726v-19.188c0-3.976-3.224-7.2-7.2-7.2H43.015c-3.976 0-7.2 3.224-7.2 7.2v19.188c0 3.976 3.224 7.2 7.2 7.2h19.188c3.976 0 7.2-3.223 7.2-7.2zm406.782-51.726v-19.188c0-3.976-3.224-7.2-7.2-7.2h-19.188c-3.976 0-7.2 3.224-7.2 7.2v19.188c0 3.976 3.224 7.2 7.2 7.2h19.188c3.977 0 7.2-3.223 7.2-7.2zm0 51.726v-19.188c0-3.976-3.224-7.2-7.2-7.2h-19.188c-3.976 0-7.2 3.224-7.2 7.2v19.188c0 3.976 3.224 7.2 7.2 7.2h19.188c3.977 0 7.2-3.223 7.2-7.2zM131.67 405.874v-40.77c0-6.07-4.92-10.99-10.99-10.99h-.96c-6.07 0-10.99 4.92-10.99 10.99v40.77c0 .994.806 1.8 1.8 1.8h19.34c.995 0 1.8-.806 1.8-1.8zm39.922 0v-40.77c0-6.07-4.92-10.99-10.99-10.99h-.96c-6.07 0-10.99 4.92-10.99 10.99v40.77c0 .994.805 1.8 1.8 1.8h19.34c.995 0 1.8-.806 1.8-1.8zm190.71 0v-40.77c0-6.07-4.92-10.99-10.99-10.99h-.96c-6.07 0-10.99 4.92-10.99 10.99v40.77c0 .994.805 1.8 1.8 1.8h19.34c.994 0 1.8-.806 1.8-1.8zm39.922 0v-40.77c0-6.07-4.92-10.99-10.99-10.99h-.96c-6.07 0-10.99 4.92-10.99 10.99v40.77c0 .994.805 1.8 1.8 1.8h19.34c.994 0 1.8-.806 1.8-1.8z"/></svg>