<?xml version="1.0" encoding="iso-8859-1"?>
<!-- Generator: Adobe Illustrator 19.1.0, SVG Export Plug-In . SVG Version: 6.00 Build 0)  -->
<!DOCTYPE svg PUBLIC "-//W3C//DTD SVG 1.1//EN" "http://www.w3.org/Graphics/SVG/1.1/DTD/svg11.dtd">
<svg version="1.1" xmlns="http://www.w3.org/2000/svg" xmlns:xlink="http://www.w3.org/1999/xlink" x="0px" y="0px"
	 viewBox="0 0 509.04 509.04" enable-background="new 0 0 509.04 509.04" xml:space="preserve">
<g id="Layer_18">
	<path fill="#FFD3B6" d="M183.534,42.115c0,6.279-2.012,8.111-4.495,8.111c-2.256,0-4.29-1.629-4.644-6.637
		c-0.502,4.163-2.255,5.474-4.346,5.474c-2.01,0-3.919-1.194-4.574-4.98c-0.388,4.697-2.216,6.142-4.416,6.142
		c-2.482,0-4.495-1.832-4.495-8.111s2.012-7.321,4.495-7.321c1.994,0,3.682,0.678,4.27,4.196c0.453-4.527,2.526-5.358,4.72-5.358
		c2.267,0,4.136,0.882,4.445,5.813c0.543-3.985,2.448-4.651,4.545-4.651C181.522,34.794,183.534,35.835,183.534,42.115z
		 M169.272,61.402c-0.462-0.007-0.932,0.033-1.405,0.124c-3.742,0.717-6.195,4.331-5.478,8.074c0.717,3.742,4.331,6.195,8.074,5.478
		c0,0,0.119-0.023,0.343-0.066c-0.039-0.001,0.633-0.093,1.153-0.22c0.256-0.06,0.635-0.156,0.837-0.228
		c0.176-0.067,0.364-0.138,0.562-0.214c0.809-0.313,1.523-0.701,2.278-1.155c0.732-0.452,1.462-0.966,2.178-1.532
		c1.432-1.135,2.88-2.48,4.281-3.991c1.402-1.511,2.784-3.167,4.049-4.919c1.266-1.751,2.436-3.572,3.408-5.403
		c0.974-1.827,1.758-3.651,2.286-5.34c0.265-0.844,0.464-1.655,0.605-2.398c0.132-0.752,0.227-1.415,0.252-1.998
		c0.047-0.565,0.032-1.039,0.021-1.359c-0.011-0.318-0.017-0.488-0.017-0.488c-0.014-0.375-0.116-0.764-0.315-1.114
		c-0.661-1.165-2.142-1.574-3.308-0.912l-3.569,2.026c-0.018,0.01-0.038,0.268-0.211,0.8c-0.068,0.257-0.208,0.598-0.37,0.985
		c-0.174,0.393-0.398,0.843-0.684,1.34c-0.573,0.994-1.399,2.162-2.417,3.362c-1.015,1.203-2.237,2.43-3.521,3.584
		c-2.561,2.305-5.495,4.298-7.479,5.226c-0.492,0.236-0.91,0.395-1.222,0.488c-0.294,0.079-0.519,0.116-0.516,0.06l-0.007-0.025
		c0.022-0.016,0.225-0.085,0.322-0.106c0.199-0.06,0.601-0.071,0.334-0.069c-0.228-0.005-0.349-0.007-0.349-0.007L169.272,61.402z"
		/>
</g>
<g id="Layer_1">
</g>
</svg>
