<?xml version="1.0" encoding="iso-8859-1"?>
<!-- Generator: Adobe Illustrator 19.1.0, SVG Export Plug-In . SVG Version: 6.00 Build 0)  -->
<!DOCTYPE svg PUBLIC "-//W3C//DTD SVG 1.1//EN" "http://www.w3.org/Graphics/SVG/1.1/DTD/svg11.dtd">
<svg version="1.1" xmlns="http://www.w3.org/2000/svg" xmlns:xlink="http://www.w3.org/1999/xlink" x="0px" y="0px"
	 viewBox="0 0 509.04 509.04" enable-background="new 0 0 509.04 509.04" xml:space="preserve">
<g id="Layer_19">
	<path fill="#E5AB83" d="M264.391,95.803c-0.72,0-1.447-0.093-2.168-0.282c-2.792-0.733-4.969-2.786-5.823-5.49
		c-0.301-0.953,0.228-1.968,1.18-2.27c0.96-0.3,1.969,0.229,2.27,1.18c0.479,1.514,1.709,2.666,3.293,3.082
		c1.587,0.417,3.229,0.017,4.392-1.07c0.729-0.682,1.875-0.642,2.556,0.087c0.682,0.73,0.643,1.875-0.087,2.556
		C268.461,95.035,266.462,95.803,264.391,95.803z M269.682,110.139c0.739-0.737,0.742-1.933,0.006-2.672
		c-0.737-0.74-1.935-0.742-2.672-0.005c-2.21,2.201-5.386,3.031-8.497,2.213c-3.108-0.815-5.469-3.093-6.313-6.093
		c-0.284-1.004-1.326-1.587-2.331-1.307c-1.004,0.283-1.589,1.327-1.307,2.331c1.212,4.304,4.574,7.565,8.992,8.724
		c1.113,0.292,2.231,0.435,3.335,0.435C264.175,113.765,267.31,112.502,269.682,110.139z M250.856,60.058
		c0.046,0.022,0.094,0.043,0.142,0.062c0.934,0.359,1.981-0.107,2.34-1.04c0.359-0.934-0.107-1.981-1.04-2.34
		c0,0-0.186-0.072-0.511-0.197c-0.32-0.119-0.772-0.278-1.32-0.452c-1.094-0.351-2.573-0.752-4.126-0.984
		c-0.771-0.125-1.569-0.19-2.333-0.198c-0.374-0.022-0.763,0.024-1.117,0.04c-0.353,0.012-0.712,0.101-1.027,0.146
		c-0.315,0.039-0.622,0.168-0.882,0.238c-0.262,0.069-0.489,0.176-0.676,0.274c-0.368,0.189-0.579,0.297-0.579,0.297
		c-0.571,0.292-0.848,0.971-0.621,1.589c0.245,0.667,0.984,1.009,1.651,0.764l0.281-0.103c0,0,0.118-0.043,0.326-0.12
		c0.098-0.044,0.221-0.095,0.393-0.117c0.171-0.022,0.33-0.095,0.559-0.097c0.225-0.005,0.445-0.054,0.715-0.035
		c0.268,0.016,0.536-0.002,0.839,0.046c0.591,0.059,1.236,0.165,1.883,0.331c1.294,0.31,2.586,0.782,3.529,1.179
		c0.473,0.197,0.861,0.373,1.125,0.499c0.256,0.125,0.403,0.197,0.403,0.197L250.856,60.058z M289.879,66.611
		c-0.999-0.058-1.855,0.705-1.912,1.704s0.705,1.855,1.704,1.912l0.045,0.003c0,0,0.163,0.009,0.448,0.026
		c0.292,0.02,0.717,0.057,1.225,0.117c1.017,0.116,2.374,0.339,3.654,0.703c0.646,0.173,1.259,0.396,1.803,0.635
		c0.287,0.107,0.512,0.254,0.753,0.371c0.245,0.116,0.413,0.267,0.606,0.381c0.199,0.114,0.302,0.255,0.44,0.359
		c0.139,0.104,0.222,0.209,0.285,0.295c0.143,0.168,0.225,0.264,0.225,0.264l0.194,0.228c0.416,0.488,1.141,0.601,1.689,0.238
		c0.593-0.392,0.755-1.191,0.363-1.783c0,0-0.131-0.197-0.359-0.542c-0.114-0.177-0.26-0.382-0.455-0.57
		c-0.192-0.188-0.396-0.451-0.652-0.64c-0.253-0.194-0.521-0.447-0.824-0.631c-0.301-0.187-0.617-0.418-0.954-0.583
		c-0.67-0.368-1.397-0.702-2.13-0.971c-1.466-0.559-2.953-0.934-4.078-1.165c-0.563-0.117-1.035-0.2-1.372-0.253
		c-0.345-0.05-0.542-0.079-0.542-0.079C289.986,66.619,289.931,66.614,289.879,66.611z"/>
</g>
<g id="Layer_1">
</g>
</svg>
