<?xml version="1.0" encoding="iso-8859-1"?>
<!-- Generator: Adobe Illustrator 19.1.0, SVG Export Plug-In . SVG Version: 6.00 Build 0)  -->
<!DOCTYPE svg PUBLIC "-//W3C//DTD SVG 1.1//EN" "http://www.w3.org/Graphics/SVG/1.1/DTD/svg11.dtd">
<svg version="1.1" xmlns="http://www.w3.org/2000/svg" xmlns:xlink="http://www.w3.org/1999/xlink" x="0px" y="0px"
	 viewBox="0 0 509.04 509.04" enable-background="new 0 0 509.04 509.04" xml:space="preserve">
<g id="Layer_18">
	<path fill="#68442A" d="M303.246,23.353c-1.881-1.661,4.467-2.945,2.137-4.333c-1.897-1.128-12.387-2.411-14.586-3.321
		c-2.164-0.892-4.495-1.679-6.976-2.329c-29.098-7.624-47.776,11.268-52.081,27.702l-5.465,20.86
		c5.613,1.471,10.666-10.071,15.984-22.149c5.445-12.382,15.768-12.529,24.316-9.899c6.773,4.956,22.395,16.169,24.955,16.065
		c19.856-0.802,13.358,35.265,18.961,36.732l5.143-19.63C318.74,51.198,315.957,34.562,303.246,23.353z"/>
</g>
<g id="Layer_1">
</g>
</svg>
