<svg xmlns="http://www.w3.org/2000/svg" viewBox="0 0 512 512" enable-background="new 0 0 512 512"><path fill="#D17BFF" d="M397.666 215.457c20.91-16.333 45.803-33.11 65.666-11.1 12.684 14.053 13.994 36.003 9.66 53.822-5.21 21.42-25.952 39.264-25.08 61.957.62 16.205 11.01 21.96 22.962 30.878 6.012 4.487 7.92 13.082 8.527 18.086.147 1.207-1.34 1.875-2.162.98-4.197-4.55-13.94-13.532-30.338-20.085-11.505-4.598-14.95-17.492-16.306-29.566-3.043-27.117 17.547-47.606 18.116-73.678.558-14.173-5.41-27.964-22.692-23.908-6.52 1.53-17.492 11.675-21.43 6.867-6.418-7.832-.506-6.42-6.922-14.253z"/></svg>