<?xml version="1.0" encoding="iso-8859-1"?>
<!-- Generator: Adobe Illustrator 19.1.0, SVG Export Plug-In . SVG Version: 6.00 Build 0)  -->
<!DOCTYPE svg PUBLIC "-//W3C//DTD SVG 1.1//EN" "http://www.w3.org/Graphics/SVG/1.1/DTD/svg11.dtd">
<svg version="1.1" xmlns="http://www.w3.org/2000/svg" xmlns:xlink="http://www.w3.org/1999/xlink" x="0px" y="0px"
	 viewBox="0 0 509.04 509.04" enable-background="new 0 0 509.04 509.04" xml:space="preserve">
<g id="Layer_9">
	<path fill="#FFD3B6" d="M302.732,123.304c-0.079,0-0.156,0.01-0.234,0.012l0.16-1.367c0-24.962-20.236-45.202-45.206-45.202
		c-24.962,0-45.198,20.24-45.198,45.202l0.159,1.359c-0.029,0-0.056-0.004-0.085-0.004c-5.471,0-9.91,4.44-9.91,9.914
		s4.439,9.914,9.91,9.914c0.82,0,1.611-0.11,2.373-0.298l0.349,2.974c0,17.488,10.586,32.501,25.697,38.987v16.057
		c0,4.602,7.461,8.332,16.664,8.332c9.203,0,16.664-3.73,16.664-8.332c0-0.509-0.106-1.005-0.28-1.488V184.95
		c15.31-6.399,26.073-21.513,26.073-39.143l0.352-3.01c0.804,0.21,1.643,0.334,2.513,0.334c5.471,0,9.91-4.44,9.91-9.914
		S308.202,123.304,302.732,123.304z"/>
</g>
<g id="Layer_1">
</g>
</svg>
