<?xml version="1.0" encoding="iso-8859-1"?>
<!-- Generator: Adobe Illustrator 19.1.0, SVG Export Plug-In . SVG Version: 6.00 Build 0)  -->
<!DOCTYPE svg PUBLIC "-//W3C//DTD SVG 1.1//EN" "http://www.w3.org/Graphics/SVG/1.1/DTD/svg11.dtd">
<svg version="1.1" xmlns="http://www.w3.org/2000/svg" xmlns:xlink="http://www.w3.org/1999/xlink" x="0px" y="0px"
	 viewBox="0 0 512 512" enable-background="new 0 0 512 512" xml:space="preserve">
<g id="Layer_3">
	<path fill="#C2F4FF" d="M188.825,132.463c0,10.73-8.699,19.537-19.429,19.537H91.298c-8.189,0-14.827-6.746-14.827-14.935
		s6.638-14.935,14.827-14.935c1.235,0,2.429,0.168,3.576,0.452c-0.258-1.117-0.408-2.276-0.408-3.471
		c0-8.497,6.888-15.386,15.386-15.386c3.225,0,6.216,0.996,8.689,2.692c2.885-11.122,12.99-19.334,25.014-19.334
		c14.272,0,25.842,11.57,25.842,25.842C180.127,112.926,188.825,121.733,188.825,132.463z M425.103,87.241
		c-1.851,0-3.648,0.229-5.368,0.654c0.384-1.674,0.594-3.414,0.594-5.204c0-12.807-10.382-23.19-23.19-23.19
		c-4.861,0-9.37,1.498-13.097,4.054c-4.35-16.761-19.579-29.137-37.701-29.137c-21.511,0-38.949,17.438-38.949,38.949
		c-16.173,0-29.284,13.143-29.284,29.316c0,16.173,13.111,29.316,29.284,29.316h117.712c12.342,0,22.347-10.038,22.347-22.38
		C447.45,97.279,437.445,87.241,425.103,87.241z"/>
</g>
<g id="Layer_1">
</g>
</svg>
