<svg xmlns="http://www.w3.org/2000/svg" viewBox="0 0 512 512" enable-background="new 0 0 512 512"><path fill="#FFD3B6" d="M251.09 176.475c5.93 3.202 8.14 10.604 4.938 16.533-3.202 5.93-10.604 8.14-16.533 4.937-5.93-3.202-8.14-10.604-4.937-16.533 3.203-5.93 10.605-8.14 16.533-4.937zm2.03-29.427c-3.203 5.93-.993 13.33 4.936 16.533 5.93 3.203 13.33.993 16.533-4.936 3.2-5.93.99-13.33-4.938-16.533-5.928-3.2-13.33-.99-16.533 4.938zm65.604-94.607c-4.726 4.804-4.665 12.53.138 17.255s12.527 4.665 17.254-.138c4.726-4.803 4.665-12.528-.138-17.254-4.803-4.726-12.528-4.665-17.254.138zm27.395-27.836c-4.727 4.803-4.666 12.528.137 17.254 4.803 4.726 12.527 4.665 17.254-.138 4.727-4.803 4.666-12.528-.137-17.254-4.803-4.727-12.528-4.665-17.254.138zm-178.76 266.27c-3.96 5.453-2.752 13.083 2.7 17.043 5.452 3.96 13.082 2.75 17.042-2.7 3.96-5.453 2.75-13.083-2.7-17.043-5.452-3.96-13.082-2.75-17.043 2.7zm22.954-31.598c-3.96 5.452-2.75 13.082 2.7 17.042 5.453 3.96 13.083 2.75 17.043-2.7s2.75-13.083-2.7-17.043c-5.453-3.96-13.083-2.75-17.043 2.7z"/></svg>