<svg xmlns="http://www.w3.org/2000/svg" viewBox="0 0 512 512" enable-background="new 0 0 512 512"><path fill="#597B91" d="M505.69 39.035H235.182c-3.976 0-7.2-3.224-7.2-7.2V26.37c0-3.976 3.224-7.2 7.2-7.2H505.69c3.976 0 7.2 3.224 7.2 7.2v5.465c0 3.976-3.224 7.2-7.2 7.2zm-39.735 365.652H82.315c-4.592 0-8.315 3.723-8.315 8.316v17.682c0 4.593 3.723 8.316 8.316 8.316h41.02v71.828h9V439H268.83v71.827h9V439h136.49v71.827h9V439h42.636c4.593 0 8.316-3.723 8.316-8.316v-17.682c0-4.592-3.724-8.315-8.317-8.315z"/></svg>