<?xml version="1.0" encoding="iso-8859-1"?>
<!-- Generator: Adobe Illustrator 19.1.0, SVG Export Plug-In . SVG Version: 6.00 Build 0)  -->
<!DOCTYPE svg PUBLIC "-//W3C//DTD SVG 1.1//EN" "http://www.w3.org/Graphics/SVG/1.1/DTD/svg11.dtd">
<svg version="1.1" xmlns="http://www.w3.org/2000/svg" xmlns:xlink="http://www.w3.org/1999/xlink" x="0px" y="0px"
	 viewBox="0 0 509.04 509.04" enable-background="new 0 0 509.04 509.04" xml:space="preserve">
<g id="Layer_19">
	<path fill="#597B91" d="M421.279,214.919c-15.236,0-30.101,5.209-41.985,14.67c-1.419-0.301-2.939-0.562-4.537-0.891
		c-2.635-0.497-5.509-1.111-8.534-1.512c-3.006-0.19-6.177-0.391-9.456-0.598c-3.176-0.226-6.808-0.464-10.236-0.36
		c-3.451,0.014-6.956,0.028-10.461,0.042c-14.021,0.114-28.043-0.04-38.559,0.368c-10.516,0.355-17.527,1.114-17.527,1.114
		c-0.102,0.011-0.186,0.091-0.197,0.197c-0.013,0.122,0.075,0.232,0.197,0.245c0,0,7.011,0.759,17.527,1.114
		c10.516,0.409,24.537,0.254,38.559,0.368c3.505,0.014,7.011,0.028,10.461,0.042c3.479-0.075,6.623,0.174,10.003,0.433
		c3.278,0.234,6.447,0.46,9.452,0.674c2.905,0.5,5.651,0.972,8.186,1.408c2.529,0.463,4.875,0.722,6.902,1.337
		c2.041,0.524,3.82,0.981,5.285,1.357c2.927,0.761,4.508,1.356,4.508,1.356c0.805,0.303,1.711-0.091,2.034-0.894
		c0.327-0.814-0.067-1.739-0.881-2.066l-0.035-0.014c0,0-1.694-0.681-4.685-1.534c-1.18-0.333-2.567-0.723-4.12-1.161
		c10.98-8.091,24.382-12.52,38.101-12.52c35.432,0,64.261,28.829,64.261,64.264h3.182
		C488.721,245.171,458.463,214.919,421.279,214.919z"/>
</g>
<g id="Layer_1">
</g>
</svg>
