<?xml version="1.0" encoding="iso-8859-1"?>
<!-- Generator: Adobe Illustrator 19.1.0, SVG Export Plug-In . SVG Version: 6.00 Build 0)  -->
<!DOCTYPE svg PUBLIC "-//W3C//DTD SVG 1.1//EN" "http://www.w3.org/Graphics/SVG/1.1/DTD/svg11.dtd">
<svg version="1.1" xmlns="http://www.w3.org/2000/svg" xmlns:xlink="http://www.w3.org/1999/xlink" x="0px" y="0px"
	 viewBox="0 0 509.04 509.04" enable-background="new 0 0 509.04 509.04" xml:space="preserve">
<g id="Layer_19">
	<path fill="#FF473E" d="M316.544,222.454l-0.545-0.031l-10.992-0.623c4.496-5.515,7.296-12.479,7.544-20.126
		c0.603-18.603-13.989-34.173-32.592-34.776l-0.441-0.014l-87.841-2.847c-0.576-0.016-1.278-0.023-1.86-0.012
		c-13.655,0.264-25.386,8.1-31.265,19.425l10.796-25.288c2.205-5.165-0.194-11.142-5.363-13.35
		c-5.162-2.187-11.138,0.194-13.35,5.363l-0.399,0.935c0.824-2.361,1.277-4.896,1.277-7.538c0-12.641-10.247-22.888-22.888-22.888
		v45.777c8.908,0,16.622-5.093,20.404-12.522l-37.531,87.91c-2.205,5.165,0.194,11.141,5.363,13.35
		c1.303,0.555,2.655,0.818,3.99,0.818c3.952,0,7.71-2.316,9.36-6.181l26.235-61.452c-1.316,3.857-1.996,8.004-1.913,12.315
		c0.384,19.87,16.803,35.668,36.673,35.284l0.471-0.009l64.45-1.244c-1.753,3.608-2.681,7.681-2.537,11.969
		c0.475,14.058,12.256,25.07,26.314,24.595l0.582-0.02l35.514-1.199c12.152-0.449,22.292-10.089,22.994-22.474
		C339.738,234.458,329.687,223.199,316.544,222.454z"/>
</g>
<g id="Layer_1">
</g>
</svg>
