<?xml version="1.0" encoding="iso-8859-1"?>
<!-- Generator: Adobe Illustrator 19.1.0, SVG Export Plug-In . SVG Version: 6.00 Build 0)  -->
<!DOCTYPE svg PUBLIC "-//W3C//DTD SVG 1.1//EN" "http://www.w3.org/Graphics/SVG/1.1/DTD/svg11.dtd">
<svg version="1.1" xmlns="http://www.w3.org/2000/svg" xmlns:xlink="http://www.w3.org/1999/xlink" x="0px" y="0px"
	 viewBox="0 0 512 512" enable-background="new 0 0 512 512" xml:space="preserve">
<g id="Layer_6">
	<path fill="#009AAF" d="M88.827,355.213H49.671c-3.976,0-7.2-3.224-7.2-7.2v-12.58c0-3.976,3.224-7.2,7.2-7.2h39.156
		c3.976,0,7.2,3.224,7.2,7.2v12.58C96.027,351.989,92.803,355.213,88.827,355.213z M96.027,401.91v-12.58c0-3.976-3.224-7.2-7.2-7.2
		H49.671c-3.976,0-7.2,3.224-7.2,7.2v12.58c0,3.976,3.224,7.2,7.2,7.2h39.156C92.803,409.11,96.027,405.887,96.027,401.91z
		 M96.027,455.808v-12.58c0-3.976-3.224-7.2-7.2-7.2H49.671c-3.976,0-7.2,3.224-7.2,7.2v12.58c0,3.976,3.224,7.2,7.2,7.2h39.156
		C92.803,463.008,96.027,459.784,96.027,455.808z M461.689,348.013v-12.58c0-3.976-3.224-7.2-7.2-7.2h-39.156
		c-3.976,0-7.2,3.224-7.2,7.2v12.58c0,3.976,3.224,7.2,7.2,7.2h39.156C458.466,355.213,461.689,351.989,461.689,348.013z
		 M461.689,401.91v-12.58c0-3.976-3.224-7.2-7.2-7.2h-39.156c-3.976,0-7.2,3.224-7.2,7.2v12.58c0,3.976,3.224,7.2,7.2,7.2h39.156
		C458.466,409.11,461.689,405.887,461.689,401.91z M461.689,455.808v-12.58c0-3.976-3.224-7.2-7.2-7.2h-39.156
		c-3.976,0-7.2,3.224-7.2,7.2v12.58c0,3.976,3.224,7.2,7.2,7.2h39.156C458.466,463.008,461.689,459.784,461.689,455.808z"/>
</g>
<g id="Layer_1">
</g>
</svg>
