<?xml version="1.0" encoding="iso-8859-1"?>
<!-- Generator: Adobe Illustrator 19.1.0, SVG Export Plug-In . SVG Version: 6.00 Build 0)  -->
<!DOCTYPE svg PUBLIC "-//W3C//DTD SVG 1.1//EN" "http://www.w3.org/Graphics/SVG/1.1/DTD/svg11.dtd">
<svg version="1.1" xmlns="http://www.w3.org/2000/svg" xmlns:xlink="http://www.w3.org/1999/xlink" x="0px" y="0px"
	 viewBox="0 0 509.04 509.04" enable-background="new 0 0 509.04 509.04" xml:space="preserve">
<g id="Layer_2">
	<path fill="#BFBCAF" d="M484.785,215.417H353.282c-2.124,0-3.845,1.722-3.845,3.845v167.926c0,2.124,1.722,3.845,3.845,3.845
		h131.503c2.124,0,3.845-1.722,3.845-3.845V219.262C488.63,217.138,486.909,215.417,484.785,215.417z"/>
</g>
<g id="Layer_3">
	<path fill="#A8A8A8" d="M323.43,136.439H152.171c-2.363,0-4.278,1.915-4.278,4.278v246.038c0,2.363,1.915,4.278,4.278,4.278H323.43
		c2.363,0,4.278-1.915,4.278-4.278V140.717C327.708,138.355,325.793,136.439,323.43,136.439z"/>
</g>
<g id="Layer_4">
	<path fill="#8E6049" d="M487.908,392.44c-1.42,0-2.57-1.15-2.57-2.57v-72.498c0-1.42,1.15-2.57,2.57-2.57s2.57,1.15,2.57,2.57
		v72.498C490.478,391.29,489.328,392.44,487.908,392.44z M172.19,386.473v-71.729c0-4.357-3.532-7.89-7.889-7.89
		s-7.889,3.532-7.889,7.89v71.729c0,4.357,3.532,7.89,7.889,7.89S172.19,390.831,172.19,386.473z"/>
</g>
<g id="Layer_5">
	<path fill="#597B91" d="M131.65,239.588c0-2.111-1.711-3.822-3.822-3.822H8.642c-2.111,0-3.822,1.711-3.822,3.822v73.901
		c0,0.531,0.108,1.572,0.304,2.833c-0.195,0.459-0.304,0.964-0.304,1.495v69.395c0,2.111,1.711,3.822,3.822,3.822h119.186
		c2.111,0,3.822-1.711,3.822-3.822v-69.395c0-0.531-0.109-1.036-0.304-1.495c0.196-1.261,0.304-2.302,0.304-2.833V239.588z"/>
</g>
<g id="Layer_6">
	<path fill="#2B3B47" d="M390.579,306.192h-15.218c-3.885,0-7.035-3.15-7.035-7.035v-31.946c0-3.885,3.15-7.035,7.035-7.035h15.218
		c3.885,0,7.035,3.15,7.035,7.035v31.946C397.614,303.043,394.464,306.192,390.579,306.192z M468.996,299.158v-31.946
		c0-3.885-3.15-7.035-7.035-7.035h-15.218c-3.885,0-7.035,3.15-7.035,7.035v31.946c0,3.885,3.15,7.035,7.035,7.035h15.218
		C465.847,306.192,468.996,303.043,468.996,299.158z M221.59,260.827v-50.121c0-6.096-4.941-11.037-11.037-11.037h-23.877
		c-6.096,0-11.037,4.941-11.037,11.037v50.121c0,6.096,4.941,11.037,11.037,11.037h23.877
		C216.649,271.863,221.59,266.922,221.59,260.827z M294.179,322.368h-52.1v68.586h52.1V322.368z M108.356,300.339v-30.544
		c0-3.715-3.011-6.726-6.726-6.726H87.079c-3.715,0-6.726,3.011-6.726,6.726v30.544c0,3.715,3.011,6.726,6.726,6.726h14.551
		C105.345,307.065,108.356,304.054,108.356,300.339z M108.356,363.928v-30.544c0-3.715-3.011-6.726-6.726-6.726H87.079
		c-3.715,0-6.726,3.011-6.726,6.726v30.544c0,3.715,3.011,6.726,6.726,6.726h14.551
		C105.345,370.654,108.356,367.643,108.356,363.928z M5.882,244.375h124.705c3.871,0,5.388-5.023,2.163-7.166l-62.352-28.057
		c-1.311-0.871-3.016-0.871-4.326,0L3.719,237.209C0.494,239.351,2.011,244.375,5.882,244.375z"/>
</g>
<g id="Layer_7">
	<path fill="#8E7B70" d="M363.926,303.125v1.046c0-3.216,2.607-5.823,5.823-5.823h26.443c3.216,0,5.823,2.607,5.823,5.823v-1.046
		c0,3.216-2.607,5.823-5.823,5.823h-26.443C366.533,308.948,363.926,306.341,363.926,303.125z M442.62,308.948h24.954
		c3.216,0,5.823-2.607,5.823-5.823v1.046c0-3.216-2.607-5.823-5.823-5.823H442.62c-3.216,0-5.823,2.607-5.823,5.823v-1.046
		C436.797,306.341,439.404,308.948,442.62,308.948z"/>
</g>
<g id="Layer_8">
	<path fill="#597B91" d="M346.578,225.093h144.911c5.368,0,6.865-7.368,1.922-9.462l-72.561-35.453
		c-1.228-0.521-2.616-0.521-3.844,0l-72.349,35.453C339.713,217.725,341.21,225.093,346.578,225.093z"/>
</g>
<g id="Layer_9">
	<path fill="#FF473E" d="M133.957,136.043l97.125-64.523c2.042-1.356,4.698-1.356,6.739,0l97.125,64.523
		c5.023,3.337,2.66,11.162-3.37,11.162H137.327C131.297,147.205,128.934,139.38,133.957,136.043z M299.944,335.626
		c4.701,0,8.061-4.421,7.004-9.001c-4.08-17.668-19.911-30.839-38.819-30.839s-34.739,13.171-38.819,30.839
		c-1.058,4.581,2.302,9.001,7.004,9.001H299.944z"/>
</g>
<g id="Layer_10">
	<path fill="#009E83" d="M441.081,391.034h-44.095v-51.823c0-4.275,3.466-7.741,7.741-7.741h28.612c4.275,0,7.741,3.466,7.741,7.741
		V391.034z M487.908,334.58c-10.597,0-19.188,8.591-19.188,19.188c0,10.597,8.591,19.188,19.188,19.188
		c10.597,0,19.188-8.591,19.188-19.188C507.096,343.171,498.505,334.58,487.908,334.58z M487.908,302.496
		c-7.141,0-12.93,5.789-12.93,12.93c0,7.141,5.789,12.93,12.93,12.93c7.141,0,12.93-5.789,12.93-12.93
		C500.837,308.285,495.049,302.496,487.908,302.496z M165.675,265.918c-2.379-0.759-4.923,0.555-5.681,2.934
		c0,0-0.449,1.41-1.236,3.876c-0.404,1.233-0.839,2.731-1.364,4.449c-0.528,1.718-1.104,3.656-1.706,5.77
		c-0.603,2.114-1.291,4.405-1.956,6.828c-0.666,2.423-1.369,4.978-2.096,7.621c-0.746,2.643-1.417,5.374-2.154,8.149
		c-0.715,2.775-1.479,5.594-2.174,8.413c-0.694,2.819-1.389,5.638-2.072,8.413c-0.677,2.775-1.376,5.506-1.97,8.149
		c-1.224,5.286-2.366,10.219-3.345,14.448c-1.007,4.229-1.148,7.753-0.921,10.219c0.209,2.467,0.773,3.876,0.773,3.876
		c2.602,6.446,7.762,11.943,14.726,14.726c13.547,5.413,28.917-1.18,34.33-14.726c0,0,0.563-1.41,0.773-3.876
		c0.227-2.467,0.087-5.991-0.921-10.219c-0.979-4.229-2.121-9.162-3.345-14.448c-0.594-2.643-1.292-5.374-1.97-8.149
		c-0.684-2.775-1.378-5.594-2.072-8.413c-0.695-2.819-1.459-5.638-2.174-8.413c-0.736-2.775-1.408-5.506-2.154-8.149
		c-0.727-2.643-1.43-5.198-2.096-7.621c-0.665-2.423-1.352-4.713-1.956-6.828c-0.602-2.114-1.178-4.053-1.706-5.77
		c-0.525-1.718-0.96-3.216-1.364-4.449c-0.786-2.467-1.236-3.876-1.236-3.876C168.173,267.516,167.115,266.377,165.675,265.918z"/>
</g>
<g id="Layer_11">
	<path fill="#76DFFF" d="M43.018,341.478h-0.384c-10.502,0-19.016,8.514-19.016,19.016v30.54h38.416v-30.54
		C62.034,349.992,53.52,341.478,43.018,341.478z"/>
</g>
<g id="Layer_12">
	<circle fill="#FFFFFF" cx="407.114" cy="366.651" r="3.596"/>
</g>
</svg>
