<?xml version="1.0" encoding="iso-8859-1"?>
<!-- Generator: Adobe Illustrator 19.1.0, SVG Export Plug-In . SVG Version: 6.00 Build 0)  -->
<!DOCTYPE svg PUBLIC "-//W3C//DTD SVG 1.1//EN" "http://www.w3.org/Graphics/SVG/1.1/DTD/svg11.dtd">
<svg version="1.1" xmlns="http://www.w3.org/2000/svg" xmlns:xlink="http://www.w3.org/1999/xlink" x="0px" y="0px"
	 viewBox="0 0 509.04 509.04" enable-background="new 0 0 509.04 509.04" xml:space="preserve">
<g id="Layer_10">
	<path fill="#009E83" d="M441.561,391.514h-44.095v-51.823c0-4.275,3.466-7.741,7.741-7.741h28.612c4.275,0,7.741,3.466,7.741,7.741
		V391.514z M488.388,335.06c-10.597,0-19.188,8.591-19.188,19.188s8.591,19.188,19.188,19.188s19.188-8.591,19.188-19.188
		S498.985,335.06,488.388,335.06z M488.388,302.976c-7.141,0-12.93,5.789-12.93,12.93c0,7.141,5.789,12.93,12.93,12.93
		s12.93-5.789,12.93-12.93C501.317,308.765,495.529,302.976,488.388,302.976z M166.155,266.398
		c-2.379-0.759-4.923,0.555-5.681,2.934c0,0-0.449,1.41-1.236,3.876c-0.404,1.233-0.839,2.731-1.364,4.449
		c-0.528,1.718-1.104,3.656-1.706,5.77c-0.603,2.114-1.29,4.405-1.956,6.828c-0.666,2.423-1.369,4.978-2.096,7.621
		c-0.746,2.643-1.417,5.374-2.154,8.149c-0.715,2.775-1.479,5.594-2.174,8.413c-0.694,2.819-1.389,5.638-2.072,8.413
		c-0.677,2.775-1.376,5.506-1.97,8.149c-1.224,5.286-2.366,10.219-3.345,14.448c-1.007,4.229-1.148,7.753-0.921,10.219
		c0.209,2.467,0.773,3.876,0.773,3.876c2.602,6.446,7.762,11.943,14.726,14.726c13.547,5.413,28.917-1.18,34.33-14.726
		c0,0,0.563-1.41,0.773-3.876c0.227-2.467,0.087-5.991-0.921-10.219c-0.979-4.229-2.121-9.162-3.345-14.448
		c-0.594-2.643-1.292-5.374-1.97-8.149c-0.684-2.775-1.378-5.594-2.072-8.413c-0.695-2.819-1.459-5.638-2.174-8.413
		c-0.736-2.775-1.408-5.506-2.154-8.149c-0.727-2.643-1.43-5.198-2.096-7.621c-0.665-2.423-1.352-4.713-1.956-6.828
		c-0.602-2.114-1.178-4.053-1.706-5.77c-0.525-1.718-0.96-3.216-1.364-4.449c-0.786-2.467-1.236-3.876-1.236-3.876
		C168.653,267.996,167.596,266.857,166.155,266.398z"/>
</g>
<g id="Layer_1">
</g>
</svg>
