<svg xmlns="http://www.w3.org/2000/svg" viewBox="0 0 512 512" enable-background="new 0 0 512 512"><path fill="#FF473E" d="M451.39 353.97h-3.37c-2.682 0-5.328-.62-7.732-1.81l-176.573-87.47c-4.857-2.405-10.558-2.413-15.422-.02L70.388 352.18c-2.392 1.177-5.023 1.79-7.69 1.79H60.5c-18.28 0-24.22-24.564-7.96-32.917L247.79 220.75c4.99-2.565 10.913-2.567 15.907-.006l195.64 100.305c16.274 8.34 10.34 32.92-7.947 32.92zM342.012 158.335l-77.91-57.075c-4.91-3.598-11.585-3.595-16.49.007l-77.755 57.075c-10.86 7.972-5.222 25.184 8.25 25.184h3.728c2.897 0 5.722-.902 8.083-2.582l58.032-41.287c4.81-3.422 11.254-3.444 16.087-.056l59.05 41.4c2.345 1.643 5.14 2.525 8.004 2.525h2.68c13.48 0 19.116-17.225 8.242-25.19z"/></svg>