<?xml version="1.0" encoding="iso-8859-1"?>
<!-- Generator: Adobe Illustrator 19.1.0, SVG Export Plug-In . SVG Version: 6.00 Build 0)  -->
<!DOCTYPE svg PUBLIC "-//W3C//DTD SVG 1.1//EN" "http://www.w3.org/Graphics/SVG/1.1/DTD/svg11.dtd">
<svg version="1.1" xmlns="http://www.w3.org/2000/svg" xmlns:xlink="http://www.w3.org/1999/xlink" x="0px" y="0px"
	 viewBox="0 0 512 512" enable-background="new 0 0 512 512" xml:space="preserve">
<g id="Layer_8">
	<path fill="#FF6E83" d="M456.072,86.882c-2.907,4.248-6.455,7.627-10.368,10.223l-48.259,39.365
		c-1.732,1.412-4.216,1.417-5.953,0.011l-48.561-39.308c-4.047-2.633-7.72-6.075-10.693-10.487
		c-9.859-14.63-8.309-34.45,3.828-47.253c14.721-15.529,39.244-15.757,54.253-0.705c0.018,0.018,0.037,0.037,0.055,0.055
		c2.145,2.162,5.521,2.166,7.674,0.011c0.015-0.015,0.029-0.029,0.044-0.044c15.543-15.498,41.184-14.677,55.671,2.45
		C464.659,54.081,465.6,72.956,456.072,86.882z M116.677,90.479c-8.431-9.967-23.354-10.445-32.399-1.426
		c-0.008,0.008-0.017,0.017-0.025,0.025c-1.253,1.254-3.217,1.252-4.466-0.007c-0.011-0.011-0.021-0.021-0.032-0.032
		c-8.735-8.76-23.007-8.627-31.574,0.41c-7.063,7.451-7.966,18.986-2.228,27.5c1.73,2.568,3.868,4.571,6.223,6.103l28.261,22.876
		c1.011,0.818,2.457,0.816,3.465-0.007l28.085-22.909c2.278-1.511,4.342-3.477,6.034-5.949
		C123.566,108.961,123.019,97.976,116.677,90.479z"/>
</g>
<g id="Layer_1">
</g>
</svg>
