<?xml version="1.0" encoding="iso-8859-1"?>
<!-- Generator: Adobe Illustrator 19.1.0, SVG Export Plug-In . SVG Version: 6.00 Build 0)  -->
<!DOCTYPE svg PUBLIC "-//W3C//DTD SVG 1.1//EN" "http://www.w3.org/Graphics/SVG/1.1/DTD/svg11.dtd">
<svg version="1.1" xmlns="http://www.w3.org/2000/svg" xmlns:xlink="http://www.w3.org/1999/xlink" x="0px" y="0px"
	 viewBox="0 0 512 512" enable-background="new 0 0 512 512" xml:space="preserve">
<g id="Layer_3">
	<path fill="#F9F9F7" d="M292.027,215.004h-17.022l-6.693-113.514h0.074V73.426c0-3.976-3.224-7.2-7.2-7.2h-1.128L259.381,35
		c-0.042-1.798-1.492-3.269-3.308-3.308c-1.867-0.041-3.414,1.441-3.455,3.308l-0.677,31.226h-1.054c-3.976,0-7.2,3.224-7.2,7.2
		v28.064l-6.693,113.514h-17.022c-3.976,0-7.2,3.224-7.2,7.2v58.024c0,3.976,3.224,7.2,7.2,7.2h72.053c3.976,0,7.2-3.224,7.2-7.2
		v-58.024C299.227,218.227,296.003,215.004,292.027,215.004z"/>
</g>
<g id="Layer_1">
</g>
</svg>
