<?xml version="1.0" encoding="iso-8859-1"?>
<!-- Generator: Adobe Illustrator 18.1.0, SVG Export Plug-In . SVG Version: 6.00 Build 0)  -->
<!DOCTYPE svg PUBLIC "-//W3C//DTD SVG 1.1//EN" "http://www.w3.org/Graphics/SVG/1.1/DTD/svg11.dtd">
<svg version="1.1" xmlns="http://www.w3.org/2000/svg" xmlns:xlink="http://www.w3.org/1999/xlink" x="0px" y="0px"
	 viewBox="0 0 512 512" enable-background="new 0 0 512 512" xml:space="preserve">
<g id="Layer_2_1_">
	<path fill="#597B91" d="M481.191,100.512c-0.661,0-1.329-0.051-2.003-0.155L38.835,32.228c-7.095-1.098-11.957-7.74-10.859-14.835
		c1.098-7.096,7.743-11.959,14.835-10.859l440.353,68.129c7.096,1.098,11.958,7.739,10.859,14.835
		C493.029,95.919,487.494,100.512,481.191,100.512z"/>
</g>
<g id="Layer_3_1_">
	<path fill="#BCC4C9" d="M311.729,33.966l-12.303-2.277c-0.36-10.818-8.117-20.351-19.194-22.516l-27.139-5.304
		c-11.336-2.213-22.358,4.026-26.56,14.331l-6.27-1.16c-11.614-2.151-22.777,5.524-24.927,17.142
		c-2.15,11.617,5.524,22.777,17.142,24.927l38.357,7.098v116.57h22.538v-112.4l30.571,5.658c1.315,0.244,2.625,0.361,3.917,0.361
		c10.111,0,19.104-7.202,21.01-17.503C331.021,47.276,323.347,36.116,311.729,33.966z"/>
</g>
<g id="Layer_4_1_">
	<path fill="#2B3B47" d="M294.227,199.375h-63.459c-13.127,0-23.769-10.642-23.769-23.769s10.642-23.769,23.769-23.769h63.459
		c13.127,0,23.769,10.642,23.769,23.769S307.354,199.375,294.227,199.375z"/>
</g>
<g id="Layer_5_1_">
	<path fill="#FFB636" d="M378.789,512H146.205c-11.929,0-21.6-9.671-21.6-21.6V197.207c0-11.929,9.671-21.6,21.6-21.6h232.583
		c11.929,0,21.6,9.671,21.6,21.6V490.4C400.389,502.329,390.718,512,378.789,512z"/>
</g>
<g id="Layer_6_1_">
	<path fill="#597B91" d="M230.768,397.443V241.08c0-11.929-9.671-21.6-21.6-21.6h-84.562v199.563h84.562
		C221.097,419.043,230.768,409.372,230.768,397.443z"/>
</g>
<g id="Layer_7_1_">
	<path fill="#597B91" d="M315.826,419.043h84.562V219.48h-84.562c-11.929,0-21.6,9.671-21.6,21.6v156.363
		C294.226,409.372,303.897,419.043,315.826,419.043z"/>
</g>
<g id="Layer_8_1_">
	<path fill="#45565B" d="M229.485,51.169c0,10.311-8.358,18.669-18.669,18.669s-18.669-8.358-18.669-18.669
		S200.506,32.5,210.816,32.5S229.485,40.858,229.485,51.169z M308.183,51.936c-10.311,0-18.669,8.358-18.669,18.669
		s8.358,18.669,18.669,18.669s18.669-8.358,18.669-18.669C326.852,60.295,318.493,51.936,308.183,51.936z M230.768,241.08
		c0-11.929-9.671-21.6-21.6-21.6h-84.562v90.426h106.162V241.08z M294.226,309.906h106.162V219.48h-84.562
		c-11.929,0-21.6,9.671-21.6,21.6L294.226,309.906L294.226,309.906z"/>
</g>
<g id="Layer_9_1_">
	<rect x="124.605" y="442.317" fill="#FFE1AB" width="275.783" height="27.334"/>
</g>
</svg>
