<svg xmlns="http://www.w3.org/2000/svg" viewBox="0 0 512 512" enable-background="new 0 0 512 512"><path fill="#9BA5A8" d="M340.96 40.128c.11-.022.215-.048.323-.07.456-.1.906-.215 1.35-.348.09-.027.184-.05.275-.08.473-.15.936-.322 1.392-.508.15-.06.297-.124.445-.188.432-.19.858-.39 1.272-.613.14-.075.277-.16.416-.238.3-.17.596-.35.886-.538.165-.107.33-.21.493-.324.347-.24.685-.495 1.014-.758.182-.146.36-.296.535-.45.21-.18.412-.366.613-.556.266-.25.522-.51.773-.775.17-.18.337-.36.498-.548.172-.2.342-.398.506-.604.24-.3.47-.607.69-.922 2.08-2.98 3.308-6.596 3.308-10.504s-1.23-7.525-3.31-10.504c-.22-.315-.45-.62-.688-.922-.164-.206-.334-.406-.506-.604-.162-.187-.33-.368-.498-.55-.25-.265-.507-.523-.773-.774-.2-.19-.404-.376-.613-.557-.176-.15-.353-.302-.535-.448-.33-.264-.667-.517-1.014-.758-.162-.112-.328-.217-.494-.324-.29-.188-.586-.367-.887-.538-.14-.08-.275-.163-.416-.24-.414-.22-.84-.422-1.272-.612-.147-.065-.295-.128-.445-.188-.456-.186-.918-.36-1.392-.51-.09-.028-.184-.05-.276-.078-.443-.133-.893-.247-1.35-.347-.107-.023-.213-.05-.322-.07-.515-.103-1.038-.182-1.567-.24-.115-.013-.23-.022-.345-.032-.554-.05-1.113-.085-1.68-.085h-122.19c-.57 0-1.127.034-1.682.085-.115.01-.23.02-.345.032-.528.058-1.05.137-1.566.24-.11.02-.215.047-.323.07-.455.1-.905.215-1.348.348-.092.027-.185.05-.276.08-.473.15-.936.322-1.392.508-.15.06-.297.124-.445.188-.433.19-.86.392-1.273.614-.14.076-.277.16-.416.24-.3.17-.595.35-.884.537-.166.108-.333.213-.495.325-.346.24-.683.494-1.012.758-.182.146-.36.297-.535.45-.21.18-.412.366-.612.555-.265.25-.522.51-.772.776-.17.18-.337.362-.5.55-.17.197-.34.397-.504.602-.24.3-.47.608-.69.924-2.08 2.978-3.308 6.595-3.308 10.502s1.228 7.524 3.307 10.502c.22.316.452.623.69.924.165.206.334.405.506.603.16.188.328.37.498.55.25.266.507.525.773.776.2.19.404.376.613.556.176.152.353.303.535.45.33.263.666.516 1.013.757.163.11.33.216.496.323.29.187.585.367.885.538.14.08.276.164.417.24.414.222.84.423 1.272.613.146.065.294.128.444.188.456.187.918.36 1.392.51.09.03.184.052.276.08.443.132.892.246 1.35.346.107.023.214.05.322.072.515.102 1.038.18 1.567.24.116.012.23.02.346.03.554.05 1.113.086 1.68.086h39.553l21.73 25.41-34.43 40.255c-.57.666-1.065 1.37-1.524 2.09h48.11l26-30.4c5.884-6.88 5.884-17.017 0-23.896l-11.51-13.46h34.26c.567 0 1.125-.035 1.68-.086.115-.01.23-.02.345-.032.532-.057 1.055-.136 1.57-.238z"/></svg>