<svg xmlns="http://www.w3.org/2000/svg" viewBox="0 0 512 512" enable-background="new 0 0 512 512"><path fill="#68442A" d="M216.73 70.153C230.4 71.607 249.1 76.74 249.65 77.3c.554.564-1.735 4.278-1.195 4.915 1.126 1.328 2.226 2.82 3.325 4.498 1.015 1.552-.857 2.15-6.772 1.755-1.54-.103-.178 3.853-1.958 3.69-.972-.087-17.587-9.666-20.52 17.927-.235 2.204-1.502 3.588-3.672 3.358-1.598-.17-7.86-.478-8.613 6.617-.86 8.086-23.078 13.304-23.682 12.503-4.06-5.393-7.257-18.556-5.914-31.18s12.32-33.756 36.08-31.23z"/></svg>