<?xml version="1.0" encoding="iso-8859-1"?>
<!-- Generator: Adobe Illustrator 19.1.0, SVG Export Plug-In . SVG Version: 6.00 Build 0)  -->
<!DOCTYPE svg PUBLIC "-//W3C//DTD SVG 1.1//EN" "http://www.w3.org/Graphics/SVG/1.1/DTD/svg11.dtd">
<svg version="1.1" xmlns="http://www.w3.org/2000/svg" xmlns:xlink="http://www.w3.org/1999/xlink" x="0px" y="0px"
	 viewBox="0 0 512 512" enable-background="new 0 0 512 512" xml:space="preserve">
<g id="Layer_5">
	<path fill="#FFD469" d="M276,340c0,11.046-8.954,20-20,20c-11.046,0-20-8.954-20-20s8.954-20,20-20
		C267.046,320,276,328.954,276,340z M179,336c-6.627,0-12,5.373-12,12s5.373,12,12,12s12-5.373,12-12S185.627,336,179,336z M331,336
		c-6.627,0-12,5.373-12,12s5.373,12,12,12s12-5.373,12-12S337.627,336,331,336z"/>
</g>
<g id="Layer_1">
</g>
</svg>
