<?xml version="1.0" encoding="iso-8859-1"?>
<!-- Generator: Adobe Illustrator 18.1.1, SVG Export Plug-In . SVG Version: 6.00 Build 0)  -->
<!DOCTYPE svg PUBLIC "-//W3C//DTD SVG 1.1//EN" "http://www.w3.org/Graphics/SVG/1.1/DTD/svg11.dtd">
<svg version="1.1" xmlns="http://www.w3.org/2000/svg" xmlns:xlink="http://www.w3.org/1999/xlink" x="0px" y="0px"
	 viewBox="0 0 512 512" enable-background="new 0 0 512 512" xml:space="preserve">
<g id="Layer_7">
	<path fill="#FFB636" d="M132.146,342.003H45.175c-6.151,0-11.137-4.986-11.137-11.137v-26.104c0-6.891,6.194-12.128,12.989-10.982
		l83.074,14.006c4.1,0.691,7.474,3.609,8.749,7.567l3.897,12.098C145.064,334.641,139.701,342.003,132.146,342.003z
		 M379.141,342.003h88.391c5.944,0,10.763-4.819,10.763-10.763v-26.946c0-6.65-5.971-11.709-12.531-10.617l-84.749,14.114
		c-4.106,0.684-7.449,3.674-8.586,7.678l-3.642,12.832C366.837,335.172,371.998,342.003,379.141,342.003z"/>
</g>
<g id="Layer_1">
</g>
</svg>
