<svg xmlns="http://www.w3.org/2000/svg" viewBox="0 0 512 512" enable-background="new 0 0 512 512"><path fill="#00B1FF" d="M509 283.758v14.135c-113.053-6.653-273.18-5.073-440.392 16.48-6.84-9.556-11.21-21.6-12.277-35.566 71.167-7.106 220.54-15.182 452.67 4.95zM156.648 116.125c.868.28 1.768.444 2.697.444H294.52c5.036 0 9.523-4.417 11.192-11.015l13.086-51.732c2.71-10.715-3.014-21.936-11.19-21.936h-47.7c-4.847 3.014-9.7 6.33-14.684 9.982-35.86 26.27-65.515 52.944-88.576 74.255zM509 54.547H400.438c-8.58 0-15.533 6.954-15.533 15.533v24.683c0 8.58 6.954 15.533 15.533 15.533H509v-55.75z"/></svg>