<?xml version="1.0" encoding="iso-8859-1"?>
<!-- Generator: Adobe Illustrator 19.1.0, SVG Export Plug-In . SVG Version: 6.00 Build 0)  -->
<!DOCTYPE svg PUBLIC "-//W3C//DTD SVG 1.1//EN" "http://www.w3.org/Graphics/SVG/1.1/DTD/svg11.dtd">
<svg version="1.1" xmlns="http://www.w3.org/2000/svg" xmlns:xlink="http://www.w3.org/1999/xlink" x="0px" y="0px"
	 viewBox="0 0 512 512" enable-background="new 0 0 512 512" xml:space="preserve">
<g id="Layer_2">
	<path fill="#132028" d="M400,471.417c-9.6,5.449-20.339,8.583-32,8.583s-22.4-3.134-32-8.583V360.583
		c9.6-5.449,20.339-8.583,32-8.583s22.4,3.134,32,8.583V471.417z M176,360.583c-9.6-5.449-20.339-8.583-32-8.583
		s-23.467,3.134-32,8.583v110.833c8.533,5.449,20.339,8.583,32,8.583s22.4-3.134,32-8.583V360.583z M128,113.583
		c-9.6-5.449-20.339-8.583-32-8.583s-23.467,3.134-32,8.583v78.833C72.533,197.866,84.339,201,96,201s22.4-3.134,32-8.583V113.583z
		 M448,113.583c-9.6-5.449-20.339-8.583-32-8.583s-23.467,3.134-32,8.583v78.833c8.533,5.449,20.339,8.583,32,8.583
		s22.4-3.134,32-8.583V113.583z"/>
</g>
<g id="Layer_3">
	<rect x="96" y="64" fill="#FF473E" width="320" height="368"/>
</g>
<g id="Layer_4">
	<rect x="104" y="72" fill="#F9F9F7" width="304" height="224"/>
</g>
<g id="Layer_5">
	<path fill="#FFD469" d="M184,348c0,11.046-8.954,20-20,20s-20-8.954-20-20s8.954-20,20-20S184,336.954,184,348z M348,328
		c-11.046,0-20,8.954-20,20s8.954,20,20,20s20-8.954,20-20S359.046,328,348,328z"/>
</g>
<g id="Layer_6">
	<path fill="#132028" d="M396,280H116V136h280V280z M353,88H161v32h192V88z"/>
</g>
<g id="Layer_7">
	<path fill="#D32A2A" d="M140,324c0,6.627-5.373,12-12,12c-6.627,0-12-5.373-12-12s5.373-12,12-12C134.627,312,140,317.373,140,324z
		 M385,312c-6.627,0-12,5.373-12,12s5.373,12,12,12s12-5.373,12-12S391.627,312,385,312z"/>
</g>
</svg>
