<?xml version="1.0" encoding="iso-8859-1"?>
<!-- Generator: Adobe Illustrator 18.1.1, SVG Export Plug-In . SVG Version: 6.00 Build 0)  -->
<!DOCTYPE svg PUBLIC "-//W3C//DTD SVG 1.1//EN" "http://www.w3.org/Graphics/SVG/1.1/DTD/svg11.dtd">
<svg version="1.1" xmlns="http://www.w3.org/2000/svg" xmlns:xlink="http://www.w3.org/1999/xlink" x="0px" y="0px"
	 viewBox="0 0 512 512" enable-background="new 0 0 512 512" xml:space="preserve">
<g id="Layer_2">
	<path fill="#0084B2" d="M58.68,456.625h444.814c3.04,0,5.505-2.627,5.505-5.867v-44.467c0-3.24-2.465-5.867-5.505-5.867H77.54
		c-2.163,0-4.125,1.35-5.016,3.451l-18.859,44.467C52.017,452.225,54.682,456.625,58.68,456.625z"/>
</g>
<g id="Layer_3">
	<path fill="#D6D7D8" d="M501.8,473.527H60.33c-3.976,0-7.2-3.224-7.2-7.2v-14.316H509v14.316
		C509,470.303,505.776,473.527,501.8,473.527z"/>
</g>
<g id="Layer_4">
	<path fill="#EBECED" d="M509,414.124V39.527c-192.913,0-206.95-15.888-285.908,75.703c-37.498,43.498-91.122,68.995-126.178,84.727
		c-158.8,71.265-79.358,214.167,27.837,214.167C256.01,414.124,509,414.124,509,414.124z"/>
</g>
<g id="Layer_5">
	<path fill="#D6D7D8" d="M223.092,115.23c-19.437,22.547-43.205,40.247-66.476,54.268c117.012,0.399,185.082,1.11,352.384,1.216
		V39.527C316.087,39.527,302.05,23.639,223.092,115.23z"/>
</g>
<g id="Layer_6">
	<path fill="#00B1FF" d="M62.694,218.719c13.706,19.98,22.524,51.165,22.524,86.21c0,37.564-10.13,70.695-25.553,90.343
		C0.897,358.418-21.743,275.462,62.694,218.719z M238.052,414.124c127.052,0,270.948,0,270.948,0V308.729H350.255
		c-11.254,0-21.986,4.745-29.56,13.068l-77.222,84.868C241.318,409.034,239.519,411.535,238.052,414.124z"/>
</g>
<g id="Layer_7">
	<path fill="#0084B2" d="M307.117,153.186c5.154,0,9.747-3.254,11.456-8.117l13.396-38.128c2.775-7.897-3.085-16.168-11.456-16.168
		h-75.359c-6.865,7.153-14.136,15.262-22.062,24.457c-12.562,14.572-26.937,27.115-41.814,37.956H307.117z"/>
</g>
<g id="Layer_8">
	<path fill="#FFB636" d="M108.403,244.145l11.834-15.061c1.382-1.759,3.495-2.786,5.731-2.786h20.403
		c26.463,0,15.878,29.639-6.351,29.639h-25.886C108.052,255.937,104.645,248.928,108.403,244.145z"/>
</g>
</svg>
