<?xml version="1.0" encoding="iso-8859-1"?>
<!-- Generator: Adobe Illustrator 19.1.0, SVG Export Plug-In . SVG Version: 6.00 Build 0)  -->
<!DOCTYPE svg PUBLIC "-//W3C//DTD SVG 1.1//EN" "http://www.w3.org/Graphics/SVG/1.1/DTD/svg11.dtd">
<svg version="1.1" xmlns="http://www.w3.org/2000/svg" xmlns:xlink="http://www.w3.org/1999/xlink" x="0px" y="0px"
	 viewBox="0 0 512 512" enable-background="new 0 0 512 512" xml:space="preserve">
<g id="Layer_3">
	<path fill="#575A5B" d="M360,424c0,26.51-21.49,48-48,48s-48-21.49-48-48 M376,424c0,26.51,21.49,48,48,48s48-21.49,48-48"/>
</g>
<g id="Layer_4">
	<polygon fill="#FF473E" points="511.693,448 512,64 118.892,64 16,448 	"/>
</g>
<g id="Layer_5">
	<polygon fill="#F9F9F7" points="91.416,352 168.586,64 118.892,64 41.723,352 37.766,352 16,448 65.693,448 512,448 512,352 	"/>
</g>
<g id="Layer_6">
	<polygon fill="#F4F3EF" points="65.693,448 168.586,64 118.892,64 16,448 	"/>
</g>
<g id="Layer_7">
	<polygon fill="#F4F3EF" points="151.095,112 142.863,160 512,160 512,112 	"/>
</g>
<g id="Layer_8">
	<path fill="#132028" d="M512,496H0v-32h512V496z M89.416,352l77.169-288h-49.693L39.723,352H89.416z"/>
</g>
<g id="Layer_9">
	<path fill="#132028" d="M512,160H368H256h-74.931l-36.563,170.937l-10.895,40.661L206.746,352H256v88h112v-88h144V160z M360,424
		h-96v-32h96V424z"/>
</g>
<g id="Layer_10">
	<polygon fill="#FF473E" points="134.208,371.438 216.586,64 166.892,64 89.723,352 39.416,352 26.555,400 27.618,400 	"/>
</g>
<g id="Layer_11">
	<path fill="#FFD469" d="M37.212,360.409c6.402,1.715,10.201,8.295,8.485,14.697c-1.715,6.402-8.295,10.201-14.697,8.485"/>
</g>
<g id="Layer_12">
	<path fill="#575A5B" d="M256,352h-4V160h4V352z M372,160h-4v192h4V160z"/>
</g>
</svg>
