<?xml version="1.0" encoding="iso-8859-1"?>
<!-- Generator: Adobe Illustrator 18.1.1, SVG Export Plug-In . SVG Version: 6.00 Build 0)  -->
<!DOCTYPE svg PUBLIC "-//W3C//DTD SVG 1.1//EN" "http://www.w3.org/Graphics/SVG/1.1/DTD/svg11.dtd">
<svg version="1.1" xmlns="http://www.w3.org/2000/svg" xmlns:xlink="http://www.w3.org/1999/xlink" x="0px" y="0px"
	 viewBox="0 0 512 512" enable-background="new 0 0 512 512" xml:space="preserve">
<g id="Layer_3">
	<rect x="192.215" y="224.33" fill="#D5DEE4" width="128.251" height="198.565"/>
</g>
<g id="Layer_4">
	<path fill="#597B91" d="M320.466,432.5c5.305,0,9.604-4.3,9.604-9.604V224.331c0-5.305-4.3-9.605-9.604-9.605h-52.919v-42.131
		c0-6.188-5.018-11.206-11.206-11.206s-11.206,5.017-11.206,11.206v42.131h-52.92c-5.305,0-9.605,4.3-9.605,9.605v198.565
		c0,5.305,4.3,9.604,9.605,9.604h52.92v27.112h-34.831c-14.238,0-25.779,11.542-25.779,25.779V501.8c0,3.976,3.224,7.2,7.2,7.2
		h128.503c3.976,0,7.2-3.224,7.2-7.2v-16.409c0-14.238-11.542-25.779-25.779-25.779h-34.103V432.5H320.466z M201.82,413.291V233.936
		h109.041v179.355H201.82z"/>
</g>
<g id="Layer_5">
	<circle fill="#FFB636" cx="256.341" cy="101.438" r="99.438"/>
</g>
<g id="Layer_6">
	<path fill="#F4F3EF" d="M322.426,117.845H190.255c-3.381,0-6.122-2.741-6.122-6.122V91.152c0-3.381,2.741-6.122,6.122-6.122
		h132.171c3.381,0,6.122,2.741,6.122,6.122v20.571C328.548,115.104,325.807,117.845,322.426,117.845z"/>
</g>
<g id="Layer_7">
	<path fill="#597B91" d="M260.246,267.01h-40.554c-2.652,0-4.802-2.15-4.802-4.803s2.15-4.803,4.802-4.803h40.554
		c2.652,0,4.803,2.15,4.803,4.803S262.898,267.01,260.246,267.01z M287.46,286.753c0-2.652-2.15-4.803-4.803-4.803h-62.965
		c-2.652,0-4.802,2.15-4.802,4.803s2.15,4.803,4.802,4.803h62.965C285.31,291.556,287.46,289.405,287.46,286.753z M278.922,311.299
		c0-2.652-2.15-4.803-4.803-4.803h-54.427c-2.652,0-4.802,2.15-4.802,4.803s2.15,4.803,4.802,4.803h54.427
		C276.771,316.102,278.922,313.951,278.922,311.299z M265.049,335.845c0-2.652-2.15-4.803-4.803-4.803h-40.554
		c-2.652,0-4.802,2.15-4.802,4.803s2.15,4.803,4.802,4.803h40.554C262.898,340.647,265.049,338.497,265.049,335.845z M287.46,360.39
		c0-2.652-2.15-4.803-4.803-4.803h-62.965c-2.652,0-4.802,2.15-4.802,4.803s2.15,4.803,4.802,4.803h62.965
		C285.31,365.192,287.46,363.042,287.46,360.39z M294.931,384.936c0-2.652-2.15-4.803-4.803-4.803h-70.436
		c-2.652,0-4.802,2.15-4.802,4.803s2.15,4.803,4.802,4.803h70.436C292.78,389.738,294.931,387.588,294.931,384.936z"/>
</g>
</svg>
