<?xml version="1.0" encoding="iso-8859-1"?>
<!-- Generator: Adobe Illustrator 18.1.1, SVG Export Plug-In . SVG Version: 6.00 Build 0)  -->
<!DOCTYPE svg PUBLIC "-//W3C//DTD SVG 1.1//EN" "http://www.w3.org/Graphics/SVG/1.1/DTD/svg11.dtd">
<svg version="1.1" xmlns="http://www.w3.org/2000/svg" xmlns:xlink="http://www.w3.org/1999/xlink" x="0px" y="0px"
	 viewBox="0 0 512 512" enable-background="new 0 0 512 512" xml:space="preserve">
<g id="Layer_2">
	<path fill="#FF473E" d="M245.313,85.704h-46.952c-3.976,0-7.2,3.224-7.2,7.2v43.293c0,3.976,3.224,7.2,7.2,7.2h46.952V85.704z"/>
</g>
<g id="Layer_3">
	<path fill="#65BBF2" d="M244.751,143.242h44.637c3.976,0,7.2-3.224,7.2-7.2V93.059c0-3.976-3.224-7.2-7.2-7.2h-44.637V143.242z"/>
</g>
<g id="Layer_4">
	<path fill="#DEE1E2" d="M10.391,378.041v-113.86c0-13.343,8.218-25.672,21.556-32.339l25.547-12.771
		c3.316-1.658,6.362-3.691,9.058-6.046l91.506-79.928c5.485-5.431,13.408-8.547,21.737-8.547h280.448
		c23.797,0,43.089,16.716,43.089,37.335v216.155c0,20.62-19.292,37.335-43.089,37.335H53.48
		C29.683,415.376,10.391,398.661,10.391,378.041z"/>
</g>
<g id="Layer_5">
	<path fill="#9BA5A8" d="M49.653,414.451c0-33.938,27.513-61.451,61.451-61.451s61.451,27.513,61.451,61.451 M450.546,414.451
		c0-33.938-27.513-61.451-61.451-61.451s-61.451,27.513-61.451,61.451"/>
</g>
<g id="Layer_6">
	<path fill="#2B3B47" d="M155.983,414.451c0,24.786-20.093,44.879-44.879,44.879s-44.879-20.093-44.879-44.879
		c0-24.786,20.093-44.879,44.879-44.879S155.983,389.665,155.983,414.451z M389.095,369.572c-24.786,0-44.879,20.093-44.879,44.879
		c0,24.786,20.093,44.879,44.879,44.879c24.786,0,44.879-20.093,44.879-44.879C433.974,389.665,413.881,369.572,389.095,369.572z"/>
</g>
<g id="Layer_7">
	<path fill="#00B1FF" d="M177.236,154.656h57.391c4.19,0,7.586,3.397,7.586,7.586v67.609c0,4.19-3.397,7.586-7.586,7.586H106.488
		c-6.842,0-10.188-8.344-5.241-13.071l70.748-67.609C173.406,155.409,175.284,154.656,177.236,154.656z"/>
</g>
<g id="Layer_8">
	<path fill="#FF473E" d="M440.326,193.702v33.618c0,1.193-0.967,2.16-2.16,2.16h-32.072v32.072c0,1.193-0.967,2.16-2.16,2.16
		h-33.618c-1.193,0-2.16-0.967-2.16-2.16v-32.072h-32.072c-1.193,0-2.16-0.967-2.16-2.16v-33.618c0-1.193,0.967-2.16,2.16-2.16
		h32.072v-32.072c0-1.193,0.967-2.16,2.16-2.16h33.618c1.193,0,2.16,0.967,2.16,2.16v32.072h32.072
		C439.359,191.542,440.326,192.509,440.326,193.702z M503.333,303.492H10.391v39.617h492.942V303.492z"/>
</g>
<g id="Layer_9">
	<path fill="#9BA5A8" d="M131.555,414.451c0,11.295-9.156,20.451-20.451,20.451s-20.451-9.156-20.451-20.451
		c0-11.295,9.156-20.451,20.451-20.451S131.555,403.156,131.555,414.451z M389.095,394c-11.295,0-20.451,9.156-20.451,20.451
		c0,11.295,9.156,20.451,20.451,20.451s20.451-9.156,20.451-20.451C409.546,403.156,400.39,394,389.095,394z"/>
</g>
</svg>
