<?xml version="1.0" encoding="iso-8859-1"?>
<!-- Generator: Adobe Illustrator 18.1.1, SVG Export Plug-In . SVG Version: 6.00 Build 0)  -->
<!DOCTYPE svg PUBLIC "-//W3C//DTD SVG 1.1//EN" "http://www.w3.org/Graphics/SVG/1.1/DTD/svg11.dtd">
<svg version="1.1" xmlns="http://www.w3.org/2000/svg" xmlns:xlink="http://www.w3.org/1999/xlink" x="0px" y="0px"
	 viewBox="0 0 512 512" enable-background="new 0 0 512 512" xml:space="preserve">
<g id="Layer_12">
	<path fill="#0074A8" d="M157.93,269.212c0,0-1.194-0.7-3.184-2.034c-1.001-0.66-2.206-1.474-3.555-2.445
		c-1.365-0.952-2.885-2.049-4.516-3.275c-3.266-2.448-6.994-5.393-10.89-8.657c-1.947-1.633-3.935-3.347-5.938-5.107
		c-1.991-1.773-4.011-3.578-5.994-5.423c-2.001-1.826-3.959-3.698-5.894-5.532c-1.92-1.852-3.802-3.681-5.598-5.481
		c-1.797-1.798-3.522-3.549-5.133-5.237c-1.619-1.679-3.125-3.293-4.503-4.798c-1.388-1.493-2.609-2.917-3.715-4.154
		c-1.111-1.231-2.025-2.365-2.804-3.27c-1.534-1.835-2.371-2.928-2.371-2.928c-0.444-0.579-0.333-1.409,0.246-1.852
		c0.449-0.344,1.051-0.353,1.504-0.071c0,0,1.166,0.73,3.137,2.086c0.974,0.69,2.188,1.494,3.518,2.485
		c1.335,0.985,2.868,2.067,4.484,3.309c1.627,1.23,3.376,2.578,5.199,4.033c1.832,1.445,3.737,2.999,5.696,4.619
		c1.96,1.619,3.958,3.322,5.982,5.059c2.008,1.755,4.056,3.529,6.061,5.349c2.023,1.801,4.009,3.643,5.961,5.459
		c1.94,1.829,3.833,3.648,5.641,5.433c3.615,3.573,6.897,7.008,9.64,10.03c1.373,1.509,2.608,2.919,3.684,4.189
		c1.092,1.252,2.016,2.375,2.767,3.31c1.515,1.857,2.324,2.98,2.324,2.98c0.429,0.595,0.294,1.426-0.301,1.855
		C158.939,269.461,158.37,269.469,157.93,269.212z M350.867,268.738c0.371,0.633,1.185,0.845,1.818,0.474c0,0,1.194-0.7,3.184-2.034
		c1.001-0.66,2.206-1.474,3.555-2.445c1.365-0.952,2.885-2.049,4.516-3.275c3.266-2.448,6.994-5.393,10.89-8.657
		c1.947-1.633,3.935-3.347,5.938-5.107c1.991-1.773,4.011-3.578,5.994-5.423c2.001-1.826,3.959-3.698,5.894-5.532
		c1.92-1.852,3.802-3.681,5.598-5.481c1.797-1.798,3.522-3.549,5.133-5.237c1.619-1.679,3.125-3.293,4.503-4.798
		c1.388-1.493,2.609-2.917,3.715-4.154c1.111-1.231,2.025-2.365,2.804-3.27c1.534-1.835,2.371-2.928,2.371-2.928
		c0.324-0.425,0.371-1.025,0.071-1.504c-0.387-0.618-1.203-0.806-1.821-0.419c0,0-1.166,0.73-3.137,2.086
		c-0.974,0.69-2.188,1.494-3.518,2.485c-1.335,0.985-2.868,2.067-4.484,3.309c-1.627,1.23-3.376,2.578-5.199,4.033
		c-1.832,1.445-3.737,2.999-5.696,4.619c-1.96,1.619-3.958,3.322-5.982,5.059c-2.008,1.755-4.056,3.529-6.061,5.349
		c-2.023,1.801-4.009,3.643-5.961,5.459c-1.94,1.829-3.833,3.648-5.641,5.433c-3.615,3.573-6.897,7.008-9.64,10.03
		c-1.373,1.509-2.608,2.919-3.684,4.189c-1.092,1.252-2.016,2.375-2.767,3.31c-1.515,1.857-2.324,2.98-2.324,2.98
		C350.638,267.703,350.592,268.271,350.867,268.738z"/>
</g>
<g id="Layer_1">
</g>
</svg>
