<?xml version="1.0" encoding="iso-8859-1"?>
<!-- Generator: Adobe Illustrator 18.1.1, SVG Export Plug-In . SVG Version: 6.00 Build 0)  -->
<!DOCTYPE svg PUBLIC "-//W3C//DTD SVG 1.1//EN" "http://www.w3.org/Graphics/SVG/1.1/DTD/svg11.dtd">
<svg version="1.1" xmlns="http://www.w3.org/2000/svg" xmlns:xlink="http://www.w3.org/1999/xlink" x="0px" y="0px"
	 viewBox="0 0 512 512" enable-background="new 0 0 512 512" xml:space="preserve">
<g id="Layer_13">
	<path fill="#2B3B47" d="M171.158,288.83h169.808c9.626,0,11.791,20.705,2.641,25.282c-21.542,10.775-46.554,20.91-87.545,20.91
		s-66.003-10.135-87.545-20.91C159.367,309.535,161.533,288.83,171.158,288.83z M272.436,187.02
		c-3.846-4.798-9.746-7.877-16.373-7.877c-6.627,0-12.527,3.08-16.373,7.877H272.436z M334.78,400.356v-5.876
		c0-2.578-2.09-4.669-4.669-4.669H180.504c-2.578,0-4.669,2.09-4.669,4.669v5.876c0,11.045,8.953,19.998,19.998,19.998h118.949
		C325.827,420.354,334.78,411.401,334.78,400.356z"/>
</g>
<g id="Layer_1">
</g>
</svg>
