<?xml version="1.0" encoding="iso-8859-1"?>
<!-- Generator: Adobe Illustrator 18.1.0, SVG Export Plug-In . SVG Version: 6.00 Build 0)  -->
<!DOCTYPE svg PUBLIC "-//W3C//DTD SVG 1.1//EN" "http://www.w3.org/Graphics/SVG/1.1/DTD/svg11.dtd">
<svg version="1.1" xmlns="http://www.w3.org/2000/svg" xmlns:xlink="http://www.w3.org/1999/xlink" x="0px" y="0px"
	 viewBox="0 0 512 512" enable-background="new 0 0 512 512" xml:space="preserve">
<g id="Layer_2">
	<path fill="#2B3B47" d="M132.593,386.123c-65.893,0-119.5-53.607-119.5-119.5v-22.158c0-65.893,53.607-119.5,119.5-119.5h246.814
		c65.893,0,119.5,53.607,119.5,119.5v22.158c0,65.893-53.607,119.5-119.5,119.5H132.593z"/>
</g>
<g id="Layer_3">
	<circle fill="#FF473E" cx="399.492" cy="255.544" r="62.541"/>
</g>
<g id="Layer_4">
	<circle fill="#FFB636" cx="255.56" cy="255.544" r="62.541"/>
</g>
<g id="Layer_5">
	<circle fill="#009E83" cx="111.629" cy="255.544" r="62.541"/>
</g>
<g id="Layer_6">
	<path fill="#D32A2A" d="M399.492,211.852c31.337,0,57.288,23.048,61.833,53.117c0.465-3.074,0.708-6.221,0.708-9.424
		c0-34.541-28.001-62.541-62.541-62.541s-62.541,28.001-62.541,62.541c0,3.204,0.243,6.35,0.708,9.424
		C342.203,234.9,368.155,211.852,399.492,211.852z"/>
</g>
<g id="Layer_7">
	<path fill="#E2A042" d="M255.56,211.852c31.337,0,57.288,23.048,61.833,53.117c0.465-3.074,0.708-6.221,0.708-9.424
		c0-34.541-28.001-62.541-62.541-62.541s-62.541,28.001-62.541,62.541c0,3.204,0.243,6.35,0.708,9.424
		C198.272,234.9,224.223,211.852,255.56,211.852z"/>
</g>
<g id="Layer_8">
	<path fill="#007F67" d="M111.629,211.852c31.337,0,57.288,23.048,61.833,53.117c0.465-3.074,0.708-6.221,0.708-9.424
		c0-34.541-28.001-62.541-62.541-62.541s-62.541,28.001-62.541,62.541c0,3.204,0.243,6.35,0.708,9.424
		C54.34,234.9,80.292,211.852,111.629,211.852z"/>
</g>
<g id="Layer_9">
	<path fill="#BFBCAF" d="M379.407,136.465c59.647,0,108,48.353,108,108v22.158c0,59.647-48.353,108-108,108H132.593
		c-59.647,0-108-48.353-108-108v-22.158c0-59.647,48.353-108,108-108H379.407 M379.407,113.465H132.593
		c-34.991,0-67.888,13.626-92.631,38.369c-24.743,24.743-38.369,57.64-38.369,92.631v22.158c0,34.991,13.626,67.888,38.369,92.631
		c24.743,24.743,57.64,38.369,92.631,38.369h246.814c34.991,0,67.888-13.626,92.631-38.369
		c24.743-24.743,38.369-57.64,38.369-92.631v-22.158c0-34.991-13.626-67.888-38.369-92.631
		C447.296,127.091,414.398,113.465,379.407,113.465L379.407,113.465z"/>
</g>
</svg>
