<svg xmlns="http://www.w3.org/2000/svg" viewBox="0 0 512 512" enable-background="new 0 0 512 512"><path fill="#45565B" d="M85.562 393.39H1V205.492h84.562c11.93 0 21.6 9.67 21.6 21.6V371.79c0 11.928-9.67 21.6-21.6 21.6zm342.876 0H513V205.492h-84.562c-11.93 0-21.6 9.67-21.6 21.6V371.79c0 11.928 9.67 21.6 21.6 21.6zm-188.702-41.574V227.093c0-11.93-9.67-21.6-21.6-21.6H161.69c-11.93 0-21.6 9.67-21.6 21.6v124.723c0 11.93 9.67 21.6 21.6 21.6h56.446c11.93 0 21.6-9.67 21.6-21.6zm134.175 0V227.093c0-11.93-9.67-21.6-21.6-21.6h-56.446c-11.93 0-21.6 9.67-21.6 21.6v124.723c0 11.93 9.67 21.6 21.6 21.6h56.447c11.93 0 21.6-9.67 21.6-21.6z"/></svg>