<?xml version="1.0" encoding="iso-8859-1"?>
<!-- Generator: Adobe Illustrator 18.1.0, SVG Export Plug-In . SVG Version: 6.00 Build 0)  -->
<!DOCTYPE svg PUBLIC "-//W3C//DTD SVG 1.1//EN" "http://www.w3.org/Graphics/SVG/1.1/DTD/svg11.dtd">
<svg version="1.1" xmlns="http://www.w3.org/2000/svg" xmlns:xlink="http://www.w3.org/1999/xlink" x="0px" y="0px"
	 viewBox="0 0 512 512" enable-background="new 0 0 512 512" xml:space="preserve">
<g id="Layer_2">
	<path fill="#EBECED" d="M510,411.428v-388.4c0,0-236.649,3.508-323.74,3.508c-103.09,0-191.947,384.892-154.661,384.892
		C167.694,411.428,510,411.428,510,411.428z"/>
</g>
<g id="Layer_3">
	<path fill="#BFBCAF" d="M502.8,487.285H44.532c-3.976,0-7.2-3.224-7.2-7.2v-15.108H510v15.108
		C510,484.061,506.776,487.285,502.8,487.285z"/>
</g>
<g id="Layer_4">
	<path fill="#FFB636" d="M14.32,397.223H503.94c3.347,0,6.06,3.543,6.06,7.913v59.971c0,4.37-2.713,7.913-6.06,7.913H35.079
		c-2.381,0-4.541-1.821-5.522-4.654L8.798,408.395C6.985,403.157,9.918,397.223,14.32,397.223z"/>
</g>
<g id="Layer_5">
	<path fill="#FF473E" d="M52.335,359.201v-21.029c0-4.935,4.001-8.936,8.936-8.936H99.53c34.733,0,30.388,38.901,1.212,38.901
		H61.271C56.336,368.137,52.335,364.136,52.335,359.201z"/>
</g>
<g id="Layer_6">
	<path fill="#2B3B47" d="M510,334.667H275.959c-25.962,0-45.005-24.407-38.693-49.589l31.463-125.515
		c4.448-17.746,20.398-30.191,38.693-30.191H510V334.667z M186.26,26.535c-62.652,0-120.044,142.155-147.062,253.681
		c52.437,8.436,107.206-2.442,115.348-41.138c6.877-32.681,6.134-21.056,17.021-63.046c10.886-41.99,24.626-88.646,82.168-88.646
		c50.974,0,78.943-17.109,84.668-62.092C280.243,25.971,221.209,26.535,186.26,26.535z"/>
</g>
<g id="Layer_7">
	<path fill="#00B1FF" d="M510,310.034H286.918c-15.047,0-26.085-14.146-22.426-28.742l27.521-109.79
		c2.578-10.285,11.823-17.498,22.426-17.498H510V310.034z M53.073,249.272l6.415,0.805c29.794,3.739,57.932-14.585,66.563-43.346
		l18.303-60.993c7.972-26.567-2.881-54.298-24.844-68.894c-29.546,43.615-54.933,109.519-72.334,171.38
		C49.105,248.657,51.066,249.02,53.073,249.272z"/>
</g>
</svg>
