<svg xmlns="http://www.w3.org/2000/svg" viewBox="0 0 512 512" enable-background="new 0 0 512 512"><path fill="#132028" d="M489.353 339.586H294.27v-36.582h195.083v36.582zM111.17 52L94.206 89.463h96.758L174 52h-62.83zm215.473 362.954c-7.192 0-13.023 5.83-13.023 13.023S319.45 441 326.643 441c7.192 0 13.023-5.83 13.023-13.023s-5.83-13.023-13.023-13.023zm108.046 0c-7.193 0-13.024 5.83-13.024 13.023S427.496 441 434.69 441s13.022-5.83 13.022-13.023-5.83-13.023-13.023-13.023zM103.75 444.827c-4.08 0-7.39 3.308-7.39 7.39s3.31 7.388 7.39 7.388 7.39-3.308 7.39-7.39-3.31-7.388-7.39-7.388zm58.57 0c-4.082 0-7.39 3.308-7.39 7.39s3.308 7.388 7.39 7.388 7.388-3.308 7.388-7.39-3.308-7.388-7.39-7.388z"/></svg>