<svg xmlns="http://www.w3.org/2000/svg" viewBox="0 0 512 512" enable-background="new 0 0 512 512"><path fill="#8A8D8E" d="M256.047 179.803l1.605-.174c1.047-.104 2.583-.304 4.537-.47 1.954-.167 4.327-.413 7.05-.6 2.723-.2 5.794-.462 9.145-.64 3.35-.19 6.98-.453 10.82-.595 3.84-.15 7.89-.39 12.08-.49l12.916-.353 13.338-.154c4.47-.09 8.938.018 13.337.017 2.2.02 4.382.008 6.538.052l6.38.15 6.172.145c2.017.082 3.99.16 5.91.24l5.596.23 5.23.297c1.676.097 3.283.19 4.81.28l4.34.326c2.723.19 5.098.41 7.054.594 1.956.165 3.493.362 4.54.473l1.607.18.425.046c1.91.212 3.285 1.933 3.072 3.843-.2 1.78-1.723 3.094-3.472 3.093l-22.345-.09-49.158.04-49.157.302-22.344.236c-1.922.02-3.497-1.522-3.517-3.444-.02-1.803 1.336-3.3 3.09-3.497l.404-.04z"/></svg>