<?xml version="1.0" encoding="iso-8859-1"?>
<!-- Generator: Adobe Illustrator 18.1.1, SVG Export Plug-In . SVG Version: 6.00 Build 0)  -->
<!DOCTYPE svg PUBLIC "-//W3C//DTD SVG 1.1//EN" "http://www.w3.org/Graphics/SVG/1.1/DTD/svg11.dtd">
<svg version="1.1" xmlns="http://www.w3.org/2000/svg" xmlns:xlink="http://www.w3.org/1999/xlink" x="0px" y="0px"
	 viewBox="0 0 512 512" enable-background="new 0 0 512 512" xml:space="preserve">
<g id="Layer_2">
	<path fill="#597B91" d="M500.697,323.496l-42.742-86.915c-8.369-17.018-32.632-17.018-41.001,0l-42.742,86.915
		c-7.465,15.18,3.583,32.927,20.5,32.927h12.962c-21.53,51.593-68.678,89.919-125.465,99.001V262.535h71.595
		c14.359,0,26-11.641,26-26s-11.641-26-26-26h-71.595v-26.33c38.75-11.281,67.149-47.111,67.149-89.453
		c0-51.363-41.787-93.15-93.15-93.15c-51.363,0-93.15,41.787-93.15,93.15c0,42.342,28.4,78.172,67.15,89.453v26.329h-71.595
		c-14.359,0-26,11.641-26,26s11.641,26,26,26h71.595v192.889c-56.787-9.082-103.935-47.408-125.465-99.001h12.962
		c16.917,0,27.966-17.746,20.5-32.927l-42.742-86.915c-8.369-17.018-32.632-17.018-41.001,0L11.72,323.496
		c-7.465,15.18,3.583,32.927,20.5,32.927h17.22c10.172,33.556,28.51,64.299,54.004,89.793
		c40.805,40.804,95.058,63.276,152.764,63.276s111.959-22.473,152.764-63.276c25.494-25.495,43.832-56.238,54.004-89.793h17.22
		C497.114,356.423,508.162,338.677,500.697,323.496z M215.058,94.752c0-22.69,18.46-41.15,41.15-41.15
		c22.69,0,41.15,18.46,41.15,41.15c0,22.69-18.46,41.15-41.15,41.15C233.518,135.902,215.058,117.442,215.058,94.752z"/>
</g>
<g id="Layer_1">
</g>
</svg>
