<svg xmlns="http://www.w3.org/2000/svg" viewBox="0 0 512 512" enable-background="new 0 0 512 512"><path fill="#593D33" d="M61.054 430.588c-1.568 0-3.13-.637-4.265-1.89l-22.54-24.885c-2.134-2.354-1.955-5.99.4-8.124s5.99-1.953 8.124.4l22.54 24.884c2.132 2.354 1.953 5.99-.402 8.124-1.1.997-2.483 1.488-3.86 1.488zm397.647-3.004l22.54-24.885c2.135-2.356 1.954-5.993-.4-8.126-2.354-2.132-5.992-1.952-8.123.4l-22.54 24.886c-2.133 2.355-1.952 5.992.4 8.125 1.103.997 2.483 1.488 3.86 1.488 1.568 0 3.13-.636 4.265-1.89zm-88.056 3.342l22.54-24.885c2.133-2.352 1.952-5.99-.4-8.122-2.356-2.132-5.994-1.952-8.125.4l-22.54 24.886c-2.134 2.354-1.953 5.99.4 8.124 1.102.997 2.482 1.488 3.86 1.488 1.566 0 3.13-.636 4.264-1.89z"/></svg>