<svg xmlns="http://www.w3.org/2000/svg" viewBox="0 0 512 512" enable-background="new 0 0 512 512"><path fill="#10867C" d="M500.95 152.004l-113.3 9.55c-5.005-12.002-11.54-23.564-20.093-33.976l90.916-117.194h-27.43L322.873 94.3c-10.322-4.41-21.948-7.79-35.064-9.882l-9.35-74.036h-38.656l-9.236 73.146c-13.782 1.783-26.037 5.065-36.943 9.527L87.055 10.383H59.723l88.844 114.523c-9.84 11.088-17.418 23.558-23.256 36.447l-107.97-9.1c-2.5-4.734-5.058-9.47-7.624-14.22v351.584c0 6.6 5.4 12 12 12h411.73l-22.68-57.634c-.913-2.318.006-4.985 2.194-6.173 6.693-3.634 18.068-13.904 2.486-38.056-16.78-26.01-19.446-79.504-7.02-89.404 1.13-.9 1.597-4.807 1.227-10.876l91.298 7.696v-26.722l-97.243-33.308c-.323-10.29-1.057-21.936-2.72-34.175l99.964-34.24v-26.72zM44.886 239.548c-.03-19.495-4.973-37.69-12.258-55.4l77.762 26.634c-2.696 14.937-3.825 28.702-4.297 39.618l-57.36 19.647c-2.752-11.392-3.834-21.748-3.848-30.5zm16.218 64.222l40.513-3.415c.42 9.54 2.88 16.674 7.614 20.026 9.966 7.058 6.03 28.717 12.166 54.933-29.884-23.388-48.772-48.33-60.293-71.543z"/></svg>