<?xml version="1.0" encoding="iso-8859-1"?>
<!-- Generator: Adobe Illustrator 18.1.1, SVG Export Plug-In . SVG Version: 6.00 Build 0)  -->
<!DOCTYPE svg PUBLIC "-//W3C//DTD SVG 1.1//EN" "http://www.w3.org/Graphics/SVG/1.1/DTD/svg11.dtd">
<svg version="1.1" xmlns="http://www.w3.org/2000/svg" xmlns:xlink="http://www.w3.org/1999/xlink" x="0px" y="0px"
	 viewBox="0 0 512 512" enable-background="new 0 0 512 512" xml:space="preserve">
<g id="Layer_2">
	<path fill="#597B91" d="M500.951,39.183c0-15.84-12.96-28.8-28.8-28.8H35.636c-14.256,0-25.92,11.664-25.92,25.92v439.394
		c0,14.256,11.664,25.92,25.92,25.92h436.514c15.84,0,28.8-12.96,28.8-28.8V39.183z"/>
</g>
<g id="Layer_3">
	<path fill="#F9F9F7" d="M347.526,113.781l-15.75,26.069c-3.403,5.632-10.462,7.767-16.471,5.086
		c-10.78-4.81-22.188-7.644-35.297-7.644c-29.297,0-50.579,19.729-60.683,56.998c-3,11.063,8.863,20.174,18.887,14.613
		c14.686-8.146,30.27-11.717,46.252-11.717c54.944,0,96.028,40.094,96.028,110.878c0,67.813-46.034,122.757-121.272,122.757
		c-89.593,0-127.707-64.843-127.707-161.366c0-113.353,55.439-188.591,146.516-188.591c25.466,0,47.094,5.758,64.369,14.702
		C349.05,99.01,351.401,107.367,347.526,113.781z M259.712,373.897c28.215,0,41.579-25.74,41.579-64.844
		c0-43.064-13.859-57.419-39.104-57.419c-15.827,0-31.242,7.437-44.356,21.178c-2.354,2.466-3.654,5.769-3.6,9.178
		C215.266,348.467,227.364,373.897,259.712,373.897z"/>
</g>
<g id="Layer_4">
	<path fill="#2B5770" d="M475.031,10.383h-0.149v453.166c0,6.6-5.4,12-12,12H9.716v0.149c0,14.256,11.664,25.92,25.92,25.92h439.394
		c14.256,0,25.92-11.664,25.92-25.92V36.303C500.951,22.047,489.287,10.383,475.031,10.383z"/>
</g>
</svg>
