<?xml version="1.0" encoding="iso-8859-1"?>
<!-- Generator: Adobe Illustrator 18.1.1, SVG Export Plug-In . SVG Version: 6.00 Build 0)  -->
<!DOCTYPE svg PUBLIC "-//W3C//DTD SVG 1.1//EN" "http://www.w3.org/Graphics/SVG/1.1/DTD/svg11.dtd">
<svg version="1.1" xmlns="http://www.w3.org/2000/svg" xmlns:xlink="http://www.w3.org/1999/xlink" x="0px" y="0px"
	 viewBox="0 0 512 512" enable-background="new 0 0 512 512" xml:space="preserve">
<g id="Layer_3">
	<path fill="#F9F9F7" d="M280.905,116.699l-67.46,156.443c-3.689,8.555,2.584,18.092,11.901,18.092h29.111
		c6.594,0,12.136-4.951,12.878-11.502l6.305-55.699c0.742-6.552,6.284-11.502,12.878-11.502h43.773c7.158,0,12.96,5.802,12.96,12.96
		v52.783c0,7.158,5.802,12.96,12.96,12.96h11.699c7.158,0,12.96,5.802,12.96,12.96v33.479c0,7.158-5.802,12.96-12.96,12.96H356.21
		c-7.158,0-12.96,5.802-12.96,12.96v45.853c0,7.158-5.802,12.96-12.96,12.96h-51.794c-7.158,0-12.96-5.802-12.96-12.96v-45.853
		c0-7.158-5.802-12.96-12.96-12.96H136.93c-7.158,0-12.96-5.802-12.96-12.96v-37.305c0-1.78,0.367-3.541,1.077-5.173l89.08-204.607
		c2.74-6.294,9.912-9.359,16.355-6.991l42.994,15.807C280.456,101.97,283.85,109.87,280.905,116.699z"/>
</g>
<g id="Layer_1">
</g>
</svg>
