<?xml version="1.0" encoding="iso-8859-1"?>
<!-- Generator: Adobe Illustrator 18.1.1, SVG Export Plug-In . SVG Version: 6.00 Build 0)  -->
<!DOCTYPE svg PUBLIC "-//W3C//DTD SVG 1.1//EN" "http://www.w3.org/Graphics/SVG/1.1/DTD/svg11.dtd">
<svg version="1.1" xmlns="http://www.w3.org/2000/svg" xmlns:xlink="http://www.w3.org/1999/xlink" x="0px" y="0px"
	 viewBox="0 0 512 512" enable-background="new 0 0 512 512" xml:space="preserve">
<g id="Layer_5">
	<path fill="#FFFFFF" d="M451.329,362.499L385.555,257.37c-1.54-2.461-1.451-5.607,0.226-7.977l58.429-82.597
		c3.373-4.769-0.037-11.358-5.878-11.358h-37.026c-2.387,0-4.62,1.183-5.959,3.159l-43.745,64.519
		c-3.981,5.872-13.159,3.054-13.159-4.041v-56.438c0-3.976-3.224-7.2-7.2-7.2h-38.153c-3.976,0-7.2,3.224-7.2,7.2v203.679
		c0,3.976,3.224,7.2,7.2,7.2h38.153c3.976,0,7.2-3.224,7.2-7.2v-66.438c0-7.318,9.649-9.969,13.389-3.68l43.88,73.798
		c1.298,2.183,3.649,3.52,6.189,3.52h43.327C450.882,373.517,454.33,367.294,451.329,362.499z"/>
</g>
<g id="Layer_1">
</g>
</svg>
