<?xml version="1.0" encoding="iso-8859-1"?>
<!-- Generator: Adobe Illustrator 18.1.1, SVG Export Plug-In . SVG Version: 6.00 Build 0)  -->
<!DOCTYPE svg PUBLIC "-//W3C//DTD SVG 1.1//EN" "http://www.w3.org/Graphics/SVG/1.1/DTD/svg11.dtd">
<svg version="1.1" xmlns="http://www.w3.org/2000/svg" xmlns:xlink="http://www.w3.org/1999/xlink" x="0px" y="0px"
	 viewBox="0 0 512 512" enable-background="new 0 0 512 512" xml:space="preserve">
<g id="Layer_2">
	<path fill="#FF473E" d="M509.167,31.832c0-16.316-13.35-29.666-29.666-29.666H29.866c-14.685,0-26.699,12.015-26.699,26.699
		v452.602c0,14.685,12.015,26.699,26.699,26.699h449.635c16.316,0,29.666-13.35,29.666-29.666V31.832z"/>
</g>
<g id="Layer_3">
	<path fill="#D32A2A" d="M479.501,488.082H29.866c-14.684,0-26.699-12.015-26.699-26.699v20.085
		c0,14.685,12.015,26.699,26.699,26.699h449.635c16.316,0,29.666-13.35,29.666-29.666v-20.085
		C509.167,474.732,495.817,488.082,479.501,488.082z"/>
</g>
<g id="Layer_4">
	<path fill="#FFFFFF" d="M158.015,194.371l-9.791,11.297c-2.4,2.77-6.485,3.209-9.493,1.115
		c-9.749-6.783-19.855-10.101-31.359-10.101c-13.775,0-22.475,5.8-22.475,16.192c0,10.633,6.525,14.742,32.625,22.958
		c31.658,10.15,49.784,23.441,49.784,54.375c0,31.176-25.134,52.926-66.942,52.926c-25.237,0-44.252-8.053-57.84-18.903
		c-3.234-2.582-3.599-7.369-0.825-10.44l10.798-11.955c2.494-2.761,6.689-3.174,9.658-0.931
		c10.623,8.028,22.648,12.504,37.001,12.504c16.434,0,26.342-7.491,26.342-20.3c0-12.325-6.284-17.642-30.451-25.134
		c-37.7-11.6-51.233-27.066-51.233-51.958c0-29.725,25.617-48.817,60.659-48.817c22.433,0,38.936,5.931,52.591,16.818
		C160.264,186.57,160.696,191.278,158.015,194.371z"/>
</g>
<g id="Layer_5">
	<path fill="#FFFFFF" d="M332.124,255.166c0,54.859-28.274,87.968-75.642,87.968c-47.125,0-75.4-32.142-75.4-87.968
		c0-54.617,28.275-87.967,75.4-87.967C303.85,167.199,332.124,199.1,332.124,255.166z M222.89,255.166
		c0,42.292,11.842,58.726,33.592,58.726c22.475,0,33.833-16.434,33.833-58.726c0-42.05-11.358-58.483-33.833-58.483
		C234.49,196.683,222.89,213.117,222.89,255.166z"/>
</g>
<g id="Layer_6">
	<path fill="#FFFFFF" d="M462.279,194.371l-9.791,11.298c-2.4,2.77-6.485,3.209-9.493,1.115
		c-9.749-6.783-19.856-10.101-31.359-10.101c-13.775,0-22.476,5.8-22.476,16.192c0,10.633,6.525,14.742,32.626,22.958
		c31.658,10.15,49.783,23.441,49.783,54.375c0,31.176-25.133,52.926-66.942,52.926c-25.237,0-44.251-8.053-57.84-18.903
		c-3.234-2.582-3.599-7.369-0.825-10.44l10.798-11.955c2.494-2.761,6.689-3.174,9.657-0.931
		c10.623,8.028,22.648,12.504,37.001,12.504c16.434,0,26.342-7.491,26.342-20.3c0-12.325-6.283-17.642-30.45-25.134
		c-37.7-11.6-51.233-27.066-51.233-51.958c0-29.725,25.616-48.817,60.658-48.817c22.434,0,38.936,5.931,52.592,16.818
		C464.528,186.57,464.96,191.278,462.279,194.371z"/>
</g>
</svg>
