<?xml version="1.0" encoding="iso-8859-1"?>
<!-- Generator: Adobe Illustrator 18.1.1, SVG Export Plug-In . SVG Version: 6.00 Build 0)  -->
<!DOCTYPE svg PUBLIC "-//W3C//DTD SVG 1.1//EN" "http://www.w3.org/Graphics/SVG/1.1/DTD/svg11.dtd">
<svg version="1.1" xmlns="http://www.w3.org/2000/svg" xmlns:xlink="http://www.w3.org/1999/xlink" x="0px" y="0px"
	 viewBox="0 0 512 512" enable-background="new 0 0 512 512" xml:space="preserve">
<g id="Layer_2">
	<path fill="#FF473E" d="M509.334,32.666C509.334,16.35,495.985,3,479.668,3H30.033C15.349,3,3.334,15.015,3.334,29.699v452.602
		C3.334,496.985,15.349,509,30.033,509h449.635c16.316,0,29.666-13.35,29.666-29.666V32.666z"/>
</g>
<g id="Layer_3">
	<path fill="#D32A2A" d="M479.668,488.915H30.033c-14.684,0-26.699-12.015-26.699-26.699v20.085
		C3.334,496.985,15.349,509,30.033,509h449.635c16.316,0,29.666-13.35,29.666-29.666v-20.085
		C509.334,475.565,495.985,488.915,479.668,488.915z"/>
</g>
<g id="Layer_4">
	<path fill="#FFFFFF" d="M405.067,251.91c0,108.281-55.81,173.63-149.303,173.63c-93.016,0-148.826-63.442-148.826-173.63
		c0-107.803,55.81-173.63,148.826-173.63C349.258,78.28,405.067,141.244,405.067,251.91z M189.461,251.91
		c0,83.476,23.373,115.913,66.304,115.913c44.361,0,66.78-32.437,66.78-115.913c0-82.999-22.419-115.436-66.78-115.436
		C212.357,136.474,189.461,168.911,189.461,251.91z"/>
</g>
</svg>
