<?xml version="1.0" encoding="iso-8859-1"?>
<!-- Generator: Adobe Illustrator 18.1.1, SVG Export Plug-In . SVG Version: 6.00 Build 0)  -->
<!DOCTYPE svg PUBLIC "-//W3C//DTD SVG 1.1//EN" "http://www.w3.org/Graphics/SVG/1.1/DTD/svg11.dtd">
<svg version="1.1" xmlns="http://www.w3.org/2000/svg" xmlns:xlink="http://www.w3.org/1999/xlink" x="0px" y="0px"
	 viewBox="0 0 512 512" enable-background="new 0 0 512 512" xml:space="preserve">
<g id="Layer_2">
	<path fill="#597B91" d="M508.333,32.666C508.333,16.35,494.984,3,478.668,3H29.032C14.348,3,2.333,15.015,2.333,29.699v452.602
		C2.333,496.985,14.348,509,29.032,509h449.635c16.316,0,29.666-13.35,29.666-29.666V32.666z"/>
</g>
<g id="Layer_3">
	<path fill="#2B5770" d="M478.668,488.915H29.032c-14.684,0-26.699-12.015-26.699-26.699v20.085
		C2.333,496.985,14.348,509,29.032,509h449.635c16.316,0,29.666-13.35,29.666-29.666v-20.085
		C508.333,475.565,494.984,488.915,478.668,488.915z"/>
</g>
<g id="Layer_4">
	<path fill="#FFFFFF" d="M254.596,264.32c0,71.434-36.819,114.547-98.498,114.547c-61.364,0-98.183-41.854-98.183-114.547
		c0-71.12,36.819-114.547,98.183-114.547C217.778,149.774,254.596,191.312,254.596,264.32z M112.357,264.32
		c0,55.071,15.42,76.469,43.742,76.469c29.266,0,44.056-21.399,44.056-76.469c0-54.756-14.79-76.155-44.056-76.155
		C127.462,188.166,112.357,209.564,112.357,264.32z"/>
</g>
<g id="Layer_5">
	<path fill="#FFFFFF" d="M451.329,362.499L385.555,257.37c-1.54-2.461-1.451-5.607,0.226-7.977l58.429-82.597
		c3.373-4.769-0.037-11.358-5.878-11.358h-37.026c-2.387,0-4.62,1.183-5.959,3.159l-43.745,64.519
		c-3.981,5.872-13.159,3.054-13.159-4.041v-56.438c0-3.976-3.224-7.2-7.2-7.2h-38.153c-3.976,0-7.2,3.224-7.2,7.2v203.679
		c0,3.976,3.224,7.2,7.2,7.2h38.153c3.976,0,7.2-3.224,7.2-7.2v-66.438c0-7.318,9.649-9.969,13.389-3.68l43.88,73.798
		c1.298,2.183,3.649,3.52,6.189,3.52h43.327C450.882,373.517,454.33,367.294,451.329,362.499z"/>
</g>
</svg>
