<?xml version="1.0" encoding="iso-8859-1"?>
<!-- Generator: Adobe Illustrator 18.1.1, SVG Export Plug-In . SVG Version: 6.00 Build 0)  -->
<!DOCTYPE svg PUBLIC "-//W3C//DTD SVG 1.1//EN" "http://www.w3.org/Graphics/SVG/1.1/DTD/svg11.dtd">
<svg version="1.1" xmlns="http://www.w3.org/2000/svg" xmlns:xlink="http://www.w3.org/1999/xlink" x="0px" y="0px"
	 viewBox="0 0 512 512" enable-background="new 0 0 512 512" xml:space="preserve">
<g id="Layer_6">
	<path fill="#FFFFFF" d="M462.279,194.371l-9.791,11.298c-2.4,2.77-6.485,3.209-9.493,1.115
		c-9.749-6.783-19.856-10.101-31.359-10.101c-13.775,0-22.476,5.8-22.476,16.192c0,10.633,6.525,14.742,32.626,22.958
		c31.658,10.15,49.783,23.441,49.783,54.375c0,31.176-25.133,52.926-66.942,52.926c-25.237,0-44.251-8.053-57.84-18.903
		c-3.234-2.582-3.599-7.369-0.825-10.44l10.798-11.955c2.494-2.761,6.689-3.174,9.657-0.931
		c10.623,8.028,22.648,12.504,37.001,12.504c16.434,0,26.342-7.491,26.342-20.3c0-12.325-6.283-17.642-30.45-25.134
		c-37.7-11.6-51.233-27.066-51.233-51.958c0-29.725,25.616-48.817,60.658-48.817c22.434,0,38.936,5.931,52.592,16.818
		C464.528,186.57,464.96,191.278,462.279,194.371z"/>
</g>
<g id="Layer_1">
</g>
</svg>
