<?xml version="1.0" encoding="iso-8859-1"?>
<!-- Generator: Adobe Illustrator 18.1.1, SVG Export Plug-In . SVG Version: 6.00 Build 0)  -->
<!DOCTYPE svg PUBLIC "-//W3C//DTD SVG 1.1//EN" "http://www.w3.org/Graphics/SVG/1.1/DTD/svg11.dtd">
<svg version="1.1" xmlns="http://www.w3.org/2000/svg" xmlns:xlink="http://www.w3.org/1999/xlink" x="0px" y="0px"
	 viewBox="0 0 512 512" enable-background="new 0 0 512 512" xml:space="preserve">
<g id="Layer_2">
	<path fill="#FF473E" d="M509.334,32.666C509.334,16.35,495.985,3,479.668,3H30.033C15.349,3,3.334,15.015,3.334,29.699v452.602
		C3.334,496.985,15.349,509,30.033,509h449.635c16.316,0,29.666-13.35,29.666-29.666V32.666z"/>
</g>
<g id="Layer_3">
	<path fill="#D32A2A" d="M479.668,488.915H30.033c-14.684,0-26.699-12.015-26.699-26.699v20.085
		C3.334,496.985,15.349,509,30.033,509h449.635c16.316,0,29.666-13.35,29.666-29.666v-20.085
		C509.334,475.565,495.985,488.915,479.668,488.915z"/>
</g>
<g id="Layer_4">
	<path fill="#FFFFFF" d="M251.143,376.321h-45.719c-3.342,0-6.245-2.3-7.009-5.554l-9.544-40.632
		c-0.764-3.254-3.667-5.554-7.009-5.554h-58.387c-3.342,0-6.245,2.3-7.009,5.554l-9.544,40.632
		c-0.764,3.254-3.667,5.554-7.009,5.554H55.594c-4.831,0-8.292-4.664-6.891-9.288l68.558-226.242
		c0.92-3.036,3.718-5.112,6.891-5.112h58.759c3.176,0,5.976,2.081,6.893,5.121l68.232,226.242
		C259.43,371.664,255.97,376.321,251.143,376.321z M175.397,274.052l-15.848-66.915c-1.753-7.399-12.288-7.383-14.018,0.022
		l-15.628,66.915c-1.055,4.516,2.373,8.837,7.011,8.837h31.476C173.038,282.911,176.468,278.574,175.397,274.052z"/>
</g>
<g id="Layer_5">
	<path fill="#FFFFFF" d="M346.597,135.679c64.587,0,104.521,16.321,104.521,61.463c0,21.951-11.037,36.194-25.395,44.471
		c-5.225,3.012-4.603,10.658,0.985,12.928c19.02,7.726,34.481,22.44,34.481,51.637c0,54.865-44.447,70.143-105.216,70.143h-70.93
		c-3.976,0-7.2-3.224-7.2-7.2V142.879c0-3.976,3.224-7.2,7.2-7.2H346.597z M335.832,183.507v41.159c0,3.976,3.224,7.2,7.2,7.2
		h13.287c23.613,0,36.114-9.028,36.114-29.168c0-19.446-12.849-26.391-40.281-26.391h-9.12
		C339.056,176.307,335.832,179.531,335.832,183.507z M335.832,327.451c0,3.976,3.224,7.2,7.2,7.2h13.287
		c26.738,0,45.142-5.556,45.142-31.6c0-24.307-16.321-33.335-40.975-33.335h-17.454c-3.976,0-7.2,3.224-7.2,7.2V327.451z"/>
</g>
</svg>
