<?xml version="1.0" encoding="iso-8859-1"?>
<!-- Generator: Adobe Illustrator 18.1.1, SVG Export Plug-In . SVG Version: 6.00 Build 0)  -->
<!DOCTYPE svg PUBLIC "-//W3C//DTD SVG 1.1//EN" "http://www.w3.org/Graphics/SVG/1.1/DTD/svg11.dtd">
<svg version="1.1" xmlns="http://www.w3.org/2000/svg" xmlns:xlink="http://www.w3.org/1999/xlink" x="0px" y="0px"
	 viewBox="0 0 512 512" enable-background="new 0 0 512 512" xml:space="preserve">
<g id="Layer_4">
	<path fill="#FFFFFF" d="M231.962,369.225h-50.399c-3.014,0-5.709-1.878-6.754-4.705L137.49,263.496
		c-2.864-7.753-14.395-5.368-13.94,2.884c0.475,8.63,0.769,17.97,0.769,28.064v67.581c0,3.976-3.224,7.2-7.2,7.2H87.303
		c-3.976,0-7.2-3.224-7.2-7.2v-191.25c0-3.976,3.224-7.2,7.2-7.2h49.252c2.994,0,5.676,1.853,6.735,4.654l38.273,101.244
		c2.909,7.696,14.345,5.284,13.923-2.932c-0.34-6.61-0.539-13.545-0.539-20.765v-75.001c0-3.976,3.224-7.2,7.2-7.2h29.816
		c3.976,0,7.2,3.224,7.2,7.2v191.25C239.162,366.002,235.939,369.225,231.962,369.225z"/>
</g>
<g id="Layer_1">
</g>
</svg>
