<?xml version="1.0" encoding="iso-8859-1"?>
<!-- Generator: Adobe Illustrator 18.1.1, SVG Export Plug-In . SVG Version: 6.00 Build 0)  -->
<!DOCTYPE svg PUBLIC "-//W3C//DTD SVG 1.1//EN" "http://www.w3.org/Graphics/SVG/1.1/DTD/svg11.dtd">
<svg version="1.1" xmlns="http://www.w3.org/2000/svg" xmlns:xlink="http://www.w3.org/1999/xlink" x="0px" y="0px"
	 viewBox="0 0 512 512" enable-background="new 0 0 512 512" xml:space="preserve">
<g id="Layer_2">
	<path fill="#FFB636" d="M509.334,32.666C509.334,16.35,495.985,3,479.668,3H30.033C15.349,3,3.334,15.015,3.334,29.699v452.602
		C3.334,496.985,15.349,509,30.033,509h449.635c16.316,0,29.666-13.35,29.666-29.666V32.666z"/>
</g>
<g id="Layer_3">
	<path fill="#ED9B43" d="M479.668,488.915H30.033c-14.684,0-26.699-12.015-26.699-26.699v20.085
		C3.334,496.985,15.349,509,30.033,509h449.635c16.316,0,29.666-13.35,29.666-29.666v-20.085
		C509.334,475.565,495.985,488.915,479.668,488.915z"/>
</g>
<g id="Layer_4">
	<path fill="#FFFFFF" d="M193.606,382.443h-57.254c-3.208,0-6.028-2.122-6.918-5.204L67.748,163.498
		c-1.329-4.604,2.126-9.196,6.918-9.196h42.639c3.353,0,6.263,2.315,7.016,5.583l34.3,148.809
		c1.726,7.489,12.413,7.426,14.051-0.083l32.417-148.643c0.721-3.308,3.649-5.666,7.035-5.666h40.7c4.76,0,8.209,4.536,6.939,9.122
		l-59.218,213.742C199.68,380.284,196.842,382.443,193.606,382.443z"/>
</g>
<g id="Layer_5">
	<path fill="#FFFFFF" d="M423.574,183.36l-16.566,19.115c-2.46,2.838-6.677,3.287-9.712,1.074
		c-13.823-10.083-28.109-15.009-44.47-15.009c-18.765,0-30.616,7.901-30.616,22.057c0,14.485,8.889,20.082,44.443,31.275
		c43.126,13.827,67.816,31.933,67.816,74.072c0,42.468-34.237,72.097-91.19,72.097c-35.841,0-62.47-11.923-81.114-27.657
		c-3.089-2.606-3.35-7.28-0.641-10.28l18.168-20.115c2.543-2.816,6.831-3.165,9.807-0.812c14.893,11.774,31.798,18.37,52.133,18.37
		c22.387,0,35.884-10.205,35.884-27.653c0-16.789-8.56-24.032-41.48-34.237c-51.356-15.802-69.792-36.872-69.792-70.78
		c0-40.493,34.896-66.5,82.632-66.5c31.825,0,54.888,8.762,73.933,24.788C425.868,175.738,426.192,180.339,423.574,183.36z"/>
</g>
</svg>
