<?xml version="1.0" encoding="iso-8859-1"?>
<!-- Generator: Adobe Illustrator 18.1.1, SVG Export Plug-In . SVG Version: 6.00 Build 0)  -->
<!DOCTYPE svg PUBLIC "-//W3C//DTD SVG 1.1//EN" "http://www.w3.org/Graphics/SVG/1.1/DTD/svg11.dtd">
<svg version="1.1" xmlns="http://www.w3.org/2000/svg" xmlns:xlink="http://www.w3.org/1999/xlink" x="0px" y="0px"
	 viewBox="0 0 512 512" enable-background="new 0 0 512 512" xml:space="preserve">
<g id="Layer_2">
	<path fill="#597B91" d="M508.333,32.666C508.333,16.35,494.984,3,478.668,3H29.032C14.348,3,2.333,15.015,2.333,29.699v452.602
		C2.333,496.985,14.348,509,29.032,509h449.635c16.316,0,29.666-13.35,29.666-29.666V32.666z"/>
</g>
<g id="Layer_3">
	<path fill="#2B5770" d="M478.668,488.915H29.032c-14.684,0-26.699-12.015-26.699-26.699v20.085
		C2.333,496.985,14.348,509,29.032,509h449.635c16.316,0,29.666-13.35,29.666-29.666v-20.085
		C508.333,475.565,494.984,488.915,478.668,488.915z"/>
</g>
<g id="Layer_4">
	<path fill="#FFFFFF" d="M215.328,286.532c0,38.748-25.008,68.153-74.749,68.153c-50.016,0-74.749-27.756-74.749-68.153V166.77
		c0-3.976,3.224-7.2,7.2-7.2h31.494c3.976,0,7.2,3.224,7.2,7.2v118.113c0,24.183,8.519,36,28.855,36s28.855-11.817,28.855-36V166.77
		c0-3.976,3.224-7.2,7.2-7.2h31.494c3.976,0,7.2,3.224,7.2,7.2V286.532z"/>
</g>
<g id="Layer_5">
	<path fill="#FFFFFF" d="M285.901,350.014h-31.493c-3.976,0-7.2-3.224-7.2-7.2V166.77c0-3.976,3.224-7.2,7.2-7.2h54.907
		c49.466,0,79.695,20.336,79.695,62.107c0,44.244-31.328,65.13-75.573,65.13h-13.136c-3.976,0-7.2,3.224-7.2,7.2v48.806
		C293.101,346.79,289.877,350.014,285.901,350.014z M309.59,253.831c20.336,0,32.428-8.52,32.428-32.153
		c0-20.062-11.268-29.68-33.253-29.68h-8.464c-3.976,0-7.2,3.224-7.2,7.2v47.433c0,3.976,3.224,7.2,7.2,7.2H309.59z"/>
</g>
<g id="Layer_6">
	<path fill="#FFFFFF" d="M452.766,329.678c0,13.74-10.992,25.008-25.008,25.008s-25.008-11.268-25.008-25.008
		s10.992-25.008,25.008-25.008S452.766,315.938,452.766,329.678z M438.483,279.662h-21.71c-3.848,0-7.016-3.026-7.192-6.871
		L404.743,167.1c-0.188-4.101,3.087-7.529,7.192-7.529h31.627c4.112,0,7.389,3.438,7.192,7.546l-5.079,105.692
		C445.491,276.645,442.326,279.662,438.483,279.662z"/>
</g>
</svg>
