<?xml version="1.0" encoding="iso-8859-1"?>
<!-- Generator: Adobe Illustrator 18.1.1, SVG Export Plug-In . SVG Version: 6.00 Build 0)  -->
<!DOCTYPE svg PUBLIC "-//W3C//DTD SVG 1.1//EN" "http://www.w3.org/Graphics/SVG/1.1/DTD/svg11.dtd">
<svg version="1.1" xmlns="http://www.w3.org/2000/svg" xmlns:xlink="http://www.w3.org/1999/xlink" x="0px" y="0px"
	 viewBox="0 0 512 512" enable-background="new 0 0 512 512" xml:space="preserve">
<g id="Layer_2">
	<path fill="#FF473E" d="M501.039,343.664c-28.601,118.577-161.232,188.305-296.24,155.741S-16.47,344.316,12.131,225.739
		S173.363,37.434,308.371,69.998S529.64,225.086,501.039,343.664z"/>
</g>
<g id="Layer_3">
	<path fill="#2BA52E" d="M361.189,121.157c-1.252,0.274-2.497,0.09-3.562-0.439l-0.749-0.373c0,0-0.533-0.265-1.471-0.804
		c-0.916-0.553-2.334-1.315-3.992-2.383c-0.418-0.265-0.87-0.536-1.317-0.838c-0.226-0.147-0.458-0.298-0.694-0.452
		c-0.233-0.119-0.471-0.241-0.713-0.365c-0.98-0.484-1.962-1.037-3.023-1.587c-1.093-0.539-2.04-1.186-3.294-1.746
		c-1.219-0.575-2.426-1.212-3.693-1.834c-0.648-0.291-1.224-0.686-1.901-0.947c-0.657-0.274-1.327-0.553-2.009-0.837
		c-0.682-0.272-1.333-0.581-1.999-0.879c-0.33-0.149-0.663-0.3-0.998-0.452c-0.334-0.149-0.703-0.244-1.053-0.368
		c-1.425-0.461-2.784-1.008-4.175-1.513c-1.456-0.402-2.886-0.824-4.309-1.249l-1.063-0.32c-0.372-0.08-0.754-0.145-1.12-0.235
		c-0.731-0.167-1.467-0.335-2.208-0.505c-0.741-0.159-1.439-0.369-2.201-0.493c-0.759-0.129-1.521-0.259-2.287-0.39
		c-0.749-0.136-1.502-0.273-2.256-0.411l-0.561-0.104l-0.6-0.056l-1.182-0.154l-2.345-0.319c-0.783-0.102-1.524-0.251-2.373-0.269
		c-0.815-0.083-1.628-0.154-2.432-0.253c-0.797-0.13-1.598-0.222-2.38-0.391c-1.608-0.27-3.299-0.477-4.898-0.91
		c-0.816-0.168-1.597-0.465-2.416-0.665c-0.834-0.231-1.672-0.415-2.497-0.69c-1.661-0.48-3.283-1.131-4.924-1.74
		c-1.681-0.595-3.349-1.164-4.994-1.777c-1.645-0.615-3.256-1.25-4.903-1.731c-2.282-0.709-4.471-1.414-6.596-2.112
		c-0.546,0.639-1.093,1.269-1.652,1.876c-0.968,0.981-1.628,2.024-2.457,2.95c-0.785,0.939-1.494,1.827-2.219,2.635
		c-0.632,0.831-1.219,1.587-1.771,2.249c-0.501,0.633-0.963,1.176-1.353,1.631c-0.444,1.131-0.941,2.337-1.498,3.625
		c-0.832,1.919-1.792,3.98-2.856,6.159c-0.258,0.548-0.546,1.087-0.824,1.636c-0.271,0.563-0.562,1.124-0.857,1.688
		c-0.583,1.123-1.202,2.274-1.834,3.437c-1.268,2.318-2.64,4.695-4.082,7.068c-2.861,4.76-6.015,9.547-9.231,14.012
		c-1.618,2.229-3.24,4.383-4.882,6.405c-1.612,2.031-3.221,3.939-4.766,5.69c-3.086,3.503-5.943,6.372-8.076,8.346
		c-1.044,0.995-1.984,1.74-2.564,2.263c-0.292,0.264-0.551,0.445-0.711,0.578c-0.161,0.12-0.244,0.182-0.244,0.182l-0.787,0.586
		c-4.625,3.446-11.168,2.49-14.613-2.135c-0.751-1.008-1.302-2.147-1.642-3.285c0,0-0.129-0.439-0.372-1.261
		c-0.196-0.793-0.573-1.979-0.882-3.438c-0.34-1.469-0.685-3.232-1.003-5.239c-0.322-2.008-0.605-4.255-0.817-6.686
		c-0.21-2.43-0.362-5.05-0.39-7.792c-0.066-2.754,0.008-5.625,0.184-8.581c0.178-2.954,0.484-5.986,0.901-9.05
		c0.418-3.066,0.97-6.16,1.646-9.238c0.676-3.082,1.459-6.148,2.409-9.146c0.356-1.131,0.728-2.252,1.121-3.364
		c-1.113,0.191-2.23,0.384-3.354,0.574c-3.645,0.692-7.34,1.483-11.068,2.32c-3.733,0.858-7.48,1.83-11.237,2.8
		c-3.733,1.054-7.482,2.079-11.174,3.161c-3.662,1.133-7.339,2.178-10.838,3.339c-3.547,1.09-6.925,2.257-10.2,3.303
		c-3.337,1.138-6.396,2.18-9.108,3.105c-1.374,0.508-2.699,0.979-3.983,1.387c-1.271,0.413-2.305,0.807-3.397,1.133
		c-1.049,0.344-2.013,0.625-2.937,1.021c-0.889,0.365-1.676,0.649-2.318,0.878c-1.278,0.461-2.007,0.668-2.007,0.668
		c-3.522,1.002-7.189-1.04-8.191-4.562c-0.215-0.754-0.286-1.542-0.237-2.282c0,0,0.054-0.756,0.242-2.101
		c0.092-0.674,0.21-1.503,0.384-2.448c0.099-0.482,0.133-0.972,0.315-1.555c0.169-0.568,0.349-1.172,0.539-1.809
		c0.371-1.279,0.878-2.734,1.43-4.2c0.543-1.466,1.195-3.021,1.933-4.679c0.772-1.618,1.654-3.314,2.63-5.094
		c1.009-1.738,2.138-3.532,3.371-5.382c2.535-3.607,5.537-7.392,9.13-10.977c3.545-3.658,7.695-7.079,12.249-10.311
		c4.584-3.179,9.637-6.055,15.035-8.487c5.427-2.37,11.176-4.335,17.114-5.736c5.963-1.318,12.08-2.132,18.174-2.302
		c4.266-0.08,8.5,0.134,12.633,0.646c-0.642-1.202-1.449-2.519-2.483-3.966c-0.546-0.801-1.224-1.63-1.865-2.516
		c-0.745-0.838-1.446-1.702-2.257-2.613c-1.56-1.782-3.349-3.607-5.102-5.431c-1.892-1.903-3.681-3.703-5.333-5.364
		c-1.733-1.752-3.386-3.426-4.876-4.985c-1.474-1.567-2.755-2.952-3.826-4.211c-1.168-1.206-2.042-2.324-2.656-3.012
		c-0.307-0.344-0.53-0.659-0.685-0.852c-0.154-0.198-0.233-0.3-0.233-0.3l-0.497-0.641c-2.01-2.593-1.538-6.325,1.056-8.335
		c0.623-0.483,1.341-0.829,2.055-1.03c0,0,0.457-0.126,1.302-0.32c0.84-0.175,2.091-0.502,3.646-0.777
		c1.619-0.24,3.652-0.589,5.919-0.773c1.142-0.102,2.357-0.211,3.638-0.326c1.292-0.089,2.633-0.084,4.059-0.125
		c1.422-0.028,2.922,0.013,4.486,0.028c1.565,0.03,3.18,0.208,4.867,0.326c3.371,0.386,6.986,0.901,10.815,1.932
		c3.82,0.979,7.88,2.353,12.001,4.421c4.14,2.009,8.325,4.704,12.307,8.058c0.986,0.854,1.972,1.725,2.95,2.616
		c0.943,0.931,1.882,1.881,2.813,2.848c0.903,0.986,1.798,1.994,2.684,3.016c0.891,1.021,1.677,2.095,2.506,3.164
		c1.912,2.598,3.629,5.293,5.079,8.014c1.308-1.298,2.662-2.563,4.11-3.716c2.393-2.08,5.01-3.823,7.657-5.563
		c1.35-0.794,2.71-1.584,4.089-2.342c1.368-0.794,2.794-1.38,4.201-2.06c5.664-2.55,11.53-4.412,17.309-5.416
		c5.776-1.043,11.472-1.453,16.869-1.174c5.402,0.237,10.524,0.995,15.228,2.226c4.711,1.164,9.005,2.811,12.813,4.592
		c3.805,1.844,7.127,3.803,9.907,5.875c1.385,1.036,2.67,1.957,3.788,3.004c1.129,1.003,2.125,1.865,3.075,2.852
		c0.931,0.924,1.726,1.761,2.379,2.52c0.538,0.724,0.98,1.377,1.337,1.91c0.363,0.519,0.621,0.964,0.802,1.246
		c0.179,0.287,0.272,0.435,0.272,0.435c1.908,3.053,0.981,7.074-2.072,8.983c-0.672,0.42-1.42,0.707-2.154,0.86
		c0,0-0.171,0.035-0.503,0.103c-0.329,0.063-0.83,0.183-1.456,0.278c-0.632,0.109-1.41,0.238-2.307,0.348
		c-0.811,0.217-1.7,0.434-2.653,0.662c-0.92,0.248-2.06,0.482-3.239,0.753c-0.595,0.145-1.194,0.266-1.816,0.395
		c-0.622,0.147-1.267,0.3-1.932,0.457c-2.621,0.6-5.499,1.32-8.491,2.053c-3.005,0.786-6.135,1.563-9.316,2.484
		c-1.588,0.427-3.185,0.887-4.782,1.365c0.206,0.107,0.413,0.215,0.62,0.322c2.293,1.111,4.513,2.596,6.688,3.995
		c1.076,0.704,2.148,1.406,3.214,2.104c1.042,0.743,2.043,1.591,3.041,2.375c0.984,0.798,1.962,1.59,2.933,2.377
		c0.479,0.397,0.96,0.778,1.424,1.182c0.449,0.43,0.896,0.859,1.341,1.286c1.753,1.73,3.51,3.331,5.053,5.072
		c1.489,1.806,2.907,3.564,4.254,5.262c0.331,0.43,0.683,0.833,0.983,1.274c0.296,0.442,0.591,0.881,0.883,1.316
		c0.578,0.872,1.153,1.715,1.679,2.574c0.526,0.848,1.044,1.681,1.552,2.499c0.515,0.805,0.894,1.67,1.326,2.47
		c0.826,1.628,1.625,3.151,2.322,4.629c0.359,0.72,0.668,1.482,0.958,2.227c0.29,0.734,0.571,1.448,0.844,2.139
		c0.53,1.379,1.039,2.637,1.444,3.827c0.103,0.295,0.205,0.583,0.304,0.865c0.07,0.269,0.139,0.532,0.207,0.789
		c0.131,0.513,0.257,1.002,0.375,1.466c0.49,1.847,0.802,3.347,1.047,4.348c0.222,1.016,0.341,1.558,0.341,1.558
		C365.96,117.633,364.11,120.519,361.189,121.157z"/>
</g>
<g id="Layer_4">
	<path fill="#FF8888" d="M436.213,277.861c-12.422,0-23.878-8.112-27.568-20.633c-9.414-31.943-26.264-58.173-47.444-73.857
		c-12.762-9.45-15.447-27.457-5.996-40.219c9.45-12.763,27.457-15.447,40.219-5.997c31.169,23.081,55.455,59.95,68.384,103.816
		c4.489,15.232-4.22,31.22-19.452,35.709C441.643,277.48,438.904,277.861,436.213,277.861z"/>
</g>
</svg>
