<?xml version="1.0" encoding="iso-8859-1"?>
<!-- Generator: Adobe Illustrator 18.1.1, SVG Export Plug-In . SVG Version: 6.00 Build 0)  -->
<!DOCTYPE svg PUBLIC "-//W3C//DTD SVG 1.1//EN" "http://www.w3.org/Graphics/SVG/1.1/DTD/svg11.dtd">
<svg version="1.1" xmlns="http://www.w3.org/2000/svg" xmlns:xlink="http://www.w3.org/1999/xlink" x="0px" y="0px"
	 viewBox="0 0 512 512" enable-background="new 0 0 512 512" xml:space="preserve">
<g id="Layer_2">
	<path fill="#D32A2A" d="M409.409,353.092c-4.1-0.09-8.028,2.355-9.45,5.884l-18.783,46.613c-2.206,5.474-9.889,7.703-14.481,4.217
		c-25.257-19.174-47.271-78.237-61.161-116.871c-16.56-46.06-24.322-82.328-24.747-104.473c-0.088-4.596,2.298-8.482,6.027-9.823
		l50.833-18.276l30.668-11.026c4.262-1.532,8.217,3.086,8.177,8.159c-0.145,18.62,31.099,139.559,85.616,183.168
		c5.67,4.535,0.181,13.592-7.856,13.415L409.409,353.092z"/>
</g>
<g id="Layer_3">
	<path fill="#3A3831" d="M321.976,177.266c-4.334,0-8.397-2.685-9.948-6.997l-22.877-63.631c-1.975-5.494,0.878-11.548,6.371-13.523
		c5.493-1.972,11.548,0.876,13.523,6.371l22.877,63.631c1.975,5.494-0.878,11.548-6.371,13.523
		C324.369,177.064,323.162,177.266,321.976,177.266z"/>
</g>
<g id="Layer_4">
	<path fill="#B1E87E" d="M76.23,194.031c0,0,0.026-0.16,0.076-0.47c0.045-0.318,0.128-0.763,0.246-1.322
		c0.235-1.121,0.618-2.693,1.21-4.497c0.149-0.449,0.306-0.923,0.47-1.419c0.18-0.467,0.368-0.957,0.565-1.467
		c0.376-1.051,0.865-2.032,1.354-3.146c1.006-2.171,2.27-4.379,3.765-6.57c2.986-4.387,6.985-8.537,11.894-11.81
		c2.439-1.665,5.158-3.013,7.953-4.322c2.807-1.286,5.682-2.549,8.642-3.652c5.893-2.256,12.035-4.045,18.032-5.274
		c5.983-1.254,11.844-1.904,17.046-2.127c1.301-0.055,2.563-0.078,3.772-0.085c1.223,0.021,2.384,0.04,3.474,0.058
		c1.113,0.061,2.155,0.117,3.118,0.17c0.982,0.089,1.885,0.17,2.7,0.244c1.65,0.185,2.975,0.384,3.892,0.545
		c0.93,0.185,1.426,0.284,1.426,0.284c3.892,0.775,6.418,4.559,5.643,8.451c-0.093,0.465-0.245,0.947-0.418,1.369
		c0,0-0.195,0.466-0.561,1.341c-0.379,0.85-0.954,2.06-1.723,3.532c-0.394,0.717-0.831,1.511-1.306,2.375
		c-0.495,0.828-1.03,1.724-1.601,2.68c-0.594,0.915-1.226,1.888-1.893,2.913c-0.681,0.998-1.406,2.032-2.178,3.08
		c-3.091,4.189-6.905,8.687-11.289,12.948c-4.37,4.286-9.285,8.38-14.45,12.007c-2.569,1.838-5.223,3.517-7.858,5.127
		c-2.647,1.587-5.284,3.089-8.028,4.181c-5.457,2.243-11.134,3.24-16.44,3.265c-2.652,0.016-5.189-0.17-7.552-0.549
		c-1.196-0.217-2.284-0.36-3.365-0.635c-0.533-0.122-1.043-0.239-1.532-0.351c-0.504-0.141-0.984-0.275-1.44-0.403
		c-1.827-0.517-3.344-1.078-4.405-1.509c-0.53-0.215-0.944-0.395-1.234-0.535c-0.285-0.132-0.432-0.2-0.432-0.2
		C78.251,205.696,75.305,199.785,76.23,194.031z M352.615,57.035c0,0,0.061,0.15,0.178,0.441c0.115,0.3,0.294,0.715,0.533,1.235
		c0.478,1.041,1.2,2.489,2.178,4.116c0.245,0.405,0.503,0.832,0.773,1.279c0.279,0.416,0.571,0.851,0.876,1.305
		c0.6,0.941,1.295,1.79,2.018,2.767c1.463,1.893,3.185,3.766,5.129,5.57c3.886,3.615,8.706,6.774,14.219,8.875
		c2.748,1.082,5.698,1.793,8.714,2.448c3.023,0.631,6.106,1.224,9.237,1.642c6.247,0.892,12.633,1.272,18.752,1.14
		c6.112-0.105,11.971-0.773,17.093-1.71c1.28-0.235,2.517-0.493,3.696-0.754c1.188-0.292,2.315-0.568,3.374-0.828
		c1.072-0.306,2.075-0.593,3.002-0.858c0.938-0.305,1.8-0.585,2.578-0.837c1.568-0.547,2.816-1.034,3.674-1.395
		c0.866-0.387,1.327-0.593,1.327-0.593c0.416-0.189,0.856-0.436,1.242-0.712c3.229-2.306,3.978-6.794,1.672-10.023
		c0,0-0.294-0.412-0.845-1.183c-0.558-0.745-1.388-1.797-2.464-3.061c-0.544-0.612-1.146-1.289-1.801-2.026
		c-0.666-0.698-1.387-1.452-2.156-2.258c-0.782-0.76-1.615-1.568-2.492-2.421c-0.886-0.822-1.822-1.67-2.808-2.52
		c-3.944-3.399-8.661-6.938-13.881-10.119c-5.212-3.209-10.914-6.11-16.754-8.5c-2.913-1.222-5.873-2.27-8.799-3.254
		c-2.933-0.96-5.838-1.838-8.756-2.295c-5.819-0.975-11.575-0.688-16.755,0.466c-2.589,0.573-5.022,1.318-7.242,2.212
		c-1.118,0.477-2.147,0.858-3.14,1.366c-0.492,0.237-0.964,0.465-1.415,0.683c-0.46,0.249-0.898,0.487-1.314,0.713
		c-1.666,0.909-3.022,1.793-3.96,2.45c-0.469,0.327-0.833,0.595-1.084,0.795c-0.248,0.192-0.377,0.291-0.377,0.291
		C352.225,45.04,350.326,51.365,352.615,57.035z"/>
</g>
<g id="Layer_5">
	<path fill="#6DBA31" d="M137.048,24.856c0,0-0.658,1.739-1.892,4.999c-0.617,1.63-1.378,3.641-2.273,6.004
		c-0.221,0.589-0.45,1.2-0.687,1.832c-0.212,0.614-0.431,1.25-0.657,1.906c-0.452,1.311-0.933,2.705-1.441,4.177
		c-2.072,5.812-4.409,13.214-6.979,21.659c-1.208,4.261-2.603,8.75-3.876,13.559c-0.64,2.403-1.296,4.868-1.967,7.391
		c-0.336,1.261-0.676,2.537-1.019,3.827c-0.317,1.3-0.637,2.613-0.961,3.941c-1.297,5.309-2.676,10.829-3.919,16.602
		c-0.636,2.882-1.316,5.801-1.947,8.784c-0.612,2.988-1.233,6.022-1.863,9.098c-0.314,1.538-0.631,3.086-0.95,4.644
		c-0.293,1.566-0.588,3.141-0.885,4.727c-0.594,3.17-1.196,6.378-1.804,9.622c-0.559,3.256-1.124,6.547-1.695,9.87
		c-0.58,3.32-1.144,6.677-1.656,10.076c-0.53,3.394-1.065,6.817-1.604,10.264c-0.493,3.457-0.989,6.939-1.489,10.443
		c-0.249,1.752-0.498,3.509-0.748,5.27c-0.228,1.767-0.457,3.538-0.686,5.314c-0.456,3.552-0.914,7.121-1.374,10.705
		c-1.721,14.358-3.297,28.972-4.626,43.624c-1.3,14.656-2.49,29.326-3.391,43.801c-0.505,7.23-0.862,14.421-1.281,21.515
		c-0.343,7.104-0.731,14.115-0.998,21.024c-0.618,13.808-1.01,27.174-1.355,39.848c-0.294,12.679-0.525,24.669-0.625,35.744
		c-0.129,11.073-0.158,21.228-0.159,30.23c0.003,9.003,0.035,16.852,0.094,23.319C82.474,481.609,82.552,489,82.552,489l0.001,0.133
		c0.12,11.263-8.913,20.492-20.177,20.612c-11.263,0.12-20.492-8.913-20.612-20.177c-0.002-0.158,0-0.411,0.002-0.568
		c0,0,0.129-7.481,0.354-20.573c0.122-6.546,0.311-14.498,0.562-23.619c0.254-9.121,0.571-19.412,1.015-30.641
		c0.415-11.227,0.988-23.392,1.645-36.256c0.709-12.865,1.486-26.43,2.506-40.46c0.468-7.015,1.061-14.145,1.612-21.362
		c0.627-7.216,1.196-14.521,1.915-21.879c1.329-14.72,2.959-29.663,4.705-44.593c1.775-14.93,3.804-29.843,5.978-44.505
		c0.574-3.663,1.146-7.311,1.714-10.941c0.286-1.815,0.571-3.625,0.856-5.43c0.307-1.803,0.613-3.601,0.919-5.394
		c0.613-3.584,1.223-7.147,1.829-10.684c0.653-3.532,1.301-7.039,1.944-10.516c0.625-3.479,1.302-6.923,1.995-10.331
		c0.684-3.409,1.361-6.785,2.032-10.125c0.721-3.333,1.435-6.631,2.139-9.888c0.353-1.628,0.703-3.247,1.051-4.855
		c0.375-1.604,0.747-3.199,1.116-4.782c0.741-3.166,1.472-6.288,2.192-9.364c0.74-3.072,1.53-6.089,2.274-9.059
		c1.457-5.946,3.052-11.66,4.556-17.147c0.376-1.372,0.748-2.729,1.115-4.072c0.396-1.338,0.788-2.66,1.175-3.968
		c0.775-2.615,1.532-5.169,2.269-7.659c1.47-4.98,3.064-9.664,4.455-14.085c0.687-2.212,1.44-4.335,2.154-6.386
		c0.713-2.051,1.401-4.027,2.061-5.927c1.272-3.785,2.658-7.318,3.845-10.489c0.6-1.587,1.167-3.088,1.701-4.501
		c0.267-0.706,0.526-1.39,0.776-2.052c0.257-0.631,0.505-1.241,0.745-1.829c0.96-2.338,1.777-4.326,2.439-5.939
		c1.325-3.225,2.031-4.944,2.031-4.944c2.889-7.033,10.932-10.392,17.964-7.503c6.908,2.837,10.271,10.647,7.652,17.588
		L137.048,24.856z M454.984,18.643c-0.648-7.575-7.314-13.191-14.889-12.543c0,0-2.306,0.197-6.631,0.565
		c-1.081,0.092-2.288,0.195-3.617,0.308c-1.36,0.133-2.982,0.367-4.66,0.574c-3.382,0.443-7.334,0.887-11.512,1.688
		c-2.115,0.374-4.344,0.769-6.681,1.182c-2.322,0.512-4.752,1.048-7.285,1.607c-2.544,0.516-5.15,1.239-7.86,1.97
		c-2.709,0.733-5.53,1.442-8.383,2.402c-11.496,3.516-24.246,8.433-37.44,15.261c-13.189,6.815-26.819,15.512-40.039,26.139
		c-1.625,1.359-3.261,2.726-4.908,4.103c-0.821,0.692-1.644,1.385-2.47,2.081c-0.8,0.723-1.603,1.448-2.408,2.175
		c-1.608,1.458-3.226,2.925-4.853,4.4c-1.57,1.53-3.149,3.068-4.737,4.615c-0.792,0.776-1.585,1.554-2.381,2.335
		c-0.768,0.804-1.539,1.61-2.311,2.419c-1.54,1.621-3.088,3.251-4.643,4.888c-2.976,3.381-6.09,6.718-8.964,10.279
		c-11.802,14.032-22.507,29.593-32.202,45.976c-4.782,8.225-9.361,16.635-13.638,25.215c-4.22,8.599-8.324,17.296-12.014,26.136
		c-3.737,8.823-7.257,17.725-10.473,26.675c-3.27,8.936-6.246,17.917-9.032,26.867c-2.818,8.944-5.303,17.889-7.705,26.739
		c-2.316,8.866-4.519,17.644-6.463,26.318c-3.959,17.336-7.115,34.208-9.765,50.25c-2.607,16.047-4.64,31.274-6.241,45.357
		c-3.177,28.17-4.587,51.763-5.278,68.314c-0.354,8.274-0.487,14.795-0.59,19.24c-0.068,4.451-0.104,6.825-0.104,6.825
		c-0.001,0.118-0.003,0.338-0.002,0.456c0.08,11.263,9.275,20.329,20.539,20.25c11.263-0.08,20.329-9.275,20.249-20.539L195.592,489
		c0,0-0.016-2.255-0.046-6.484c0.004-4.233-0.009-10.444,0.153-18.363c0.306-15.831,1.152-38.507,3.596-65.609
		c1.234-13.546,2.857-28.195,5.01-43.615c2.194-15.411,4.85-31.61,8.252-48.204c1.666-8.307,3.575-16.694,5.584-25.162
		c2.092-8.44,4.255-16.975,6.727-25.475c2.442-8.51,5.056-17.036,7.938-25.489c2.831-8.475,5.939-16.871,9.237-25.174
		c3.255-8.327,6.885-16.465,10.606-24.51c3.774-8.016,7.813-15.839,12.02-23.471c8.534-15.177,17.918-29.482,28.192-42.259
		c2.501-3.258,5.209-6.269,7.79-9.354c1.349-1.483,2.691-2.96,4.026-4.429c0.669-0.734,1.336-1.466,2.001-2.196
		c0.689-0.705,1.376-1.407,2.061-2.108c1.372-1.4,2.737-2.793,4.094-4.178c1.405-1.33,2.801-2.653,4.19-3.968
		c0.694-0.658,1.386-1.314,2.076-1.968c0.712-0.626,1.422-1.25,2.13-1.872c1.418-1.242,2.827-2.477,4.226-3.703
		c11.382-9.57,23.071-17.396,34.413-23.588c11.345-6.2,22.351-10.735,32.354-14.039c2.475-0.906,4.942-1.573,7.306-2.271
		c2.365-0.695,4.639-1.392,6.874-1.889c2.223-0.545,4.355-1.067,6.393-1.566c2.062-0.411,4.027-0.802,5.893-1.174
		c3.764-0.815,6.999-1.23,9.846-1.681c1.44-0.213,2.694-0.442,3.985-0.598c1.326-0.143,2.531-0.273,3.609-0.389
		c4.315-0.465,6.616-0.713,6.616-0.713C450.154,32.695,455.623,26.109,454.984,18.643z"/>
</g>
<g id="Layer_6">
	<path fill="#50891D" d="M112.91,105.812c-2.101,0-4.236-0.393-6.306-1.22l-22.658-9.063c-8.714-3.485-12.953-13.375-9.467-22.089
		c3.486-8.715,13.376-12.954,22.089-9.467l22.658,9.063c8.714,3.485,12.953,13.375,9.467,22.089
		C126.036,101.769,119.655,105.812,112.91,105.812z M104.298,272.101c1.495-9.265-4.804-17.988-14.069-19.484l-32.017-5.167
		c-9.271-1.497-17.989,4.804-19.484,14.07c-1.495,9.265,4.804,17.988,14.069,19.483l32.017,5.167c0.917,0.148,1.828,0.22,2.728,0.22
		C95.734,286.39,102.951,280.449,104.298,272.101z M99.918,427.782c0.515-9.371-6.664-17.386-16.035-17.9l-35.078-1.929
		c-9.369-0.521-17.386,6.663-17.901,16.035c-0.515,9.371,6.664,17.386,16.035,17.9l35.078,1.929
		c0.318,0.018,0.633,0.026,0.948,0.026C91.923,443.844,99.42,436.836,99.918,427.782z M331.481,89.434
		c6.181-7.063,5.465-17.799-1.599-23.979l-18.127-15.861c-7.063-6.181-17.8-5.464-23.979,1.599
		c-6.181,7.063-5.465,17.799,1.599,23.979l18.127,15.861c3.224,2.821,7.212,4.205,11.184,4.205
		C323.416,95.238,328.122,93.273,331.481,89.434z M248.099,231.265c2.274-9.105-3.263-18.331-12.369-20.606l-29.75-7.432
		c-9.108-2.274-18.331,3.263-20.606,12.369c-2.274,9.105,3.263,18.331,12.369,20.606l29.75,7.432
		c1.383,0.345,2.768,0.511,4.131,0.511C239.24,244.145,246.169,238.988,248.099,231.265z M212.961,427.727
		c0.484-9.373-6.722-17.364-16.095-17.849l-37.344-1.928c-9.37-0.49-17.363,6.722-17.848,16.094
		c-0.484,9.373,6.722,17.364,16.095,17.848l37.344,1.929c0.298,0.016,0.595,0.023,0.891,0.023
		C204.988,443.844,212.493,436.801,212.961,427.727z"/>
</g>
<g id="Layer_7">
	<path fill="#FFB636" d="M277.517,198.696c-4.877,0-9.45-3.021-11.195-7.874c-2.223-6.183,0.987-12.996,7.17-15.219l96.196-34.586
		c6.183-2.224,12.995,0.988,15.219,7.169c2.223,6.183-0.987,12.996-7.17,15.219l-96.196,34.586
		C280.211,198.469,278.852,198.696,277.517,198.696z"/>
</g>
<g id="Layer_8">
	<path fill="#B1E87E" d="M71.863,162.558c0,0-0.16-0.026-0.47-0.076c-0.318-0.045-0.763-0.128-1.322-0.246
		c-1.121-0.235-2.693-0.618-4.497-1.21c-0.449-0.149-0.923-0.306-1.419-0.47c-0.467-0.18-0.957-0.368-1.467-0.565
		c-1.051-0.376-2.032-0.865-3.146-1.354c-2.171-1.006-4.379-2.27-6.57-3.765c-4.387-2.986-8.537-6.985-11.81-11.894
		c-1.665-2.439-3.013-5.158-4.322-7.953c-1.286-2.807-2.549-5.682-3.652-8.642c-2.256-5.893-4.045-12.035-5.274-18.032
		c-1.254-5.983-1.904-11.844-2.127-17.046c-0.055-1.301-0.078-2.563-0.085-3.772c0.021-1.223,0.04-2.383,0.058-3.474
		c0.061-1.113,0.117-2.155,0.17-3.118c0.089-0.982,0.17-1.885,0.244-2.7c0.185-1.65,0.384-2.975,0.545-3.892
		c0.185-0.93,0.284-1.426,0.284-1.426c0.775-3.892,4.559-6.418,8.451-5.643c0.465,0.093,0.947,0.245,1.369,0.418
		c0,0,0.466,0.195,1.341,0.561c0.85,0.379,2.06,0.954,3.532,1.723c0.717,0.394,1.511,0.831,2.375,1.306
		c0.828,0.495,1.724,1.03,2.68,1.601c0.915,0.594,1.888,1.226,2.913,1.893c0.998,0.681,2.032,1.406,3.08,2.178
		c4.189,3.091,8.687,6.905,12.948,11.289c4.286,4.37,8.38,9.285,12.007,14.45c1.838,2.569,3.517,5.223,5.127,7.858
		c1.587,2.647,3.088,5.284,4.181,8.028c2.243,5.457,3.24,11.134,3.265,16.44c0.016,2.652-0.17,5.189-0.549,7.552
		c-0.217,1.196-0.36,2.284-0.635,3.365c-0.122,0.533-0.239,1.043-0.351,1.532c-0.141,0.504-0.275,0.984-0.403,1.44
		c-0.517,1.827-1.078,3.344-1.509,4.405c-0.215,0.53-0.395,0.944-0.535,1.234c-0.132,0.285-0.2,0.432-0.2,0.432
		C83.528,160.537,77.617,163.483,71.863,162.558z"/>
</g>
</svg>
