<?xml version="1.0" encoding="iso-8859-1"?>
<!-- Generator: Adobe Illustrator 18.1.1, SVG Export Plug-In . SVG Version: 6.00 Build 0)  -->
<!DOCTYPE svg PUBLIC "-//W3C//DTD SVG 1.1//EN" "http://www.w3.org/Graphics/SVG/1.1/DTD/svg11.dtd">
<svg version="1.1" xmlns="http://www.w3.org/2000/svg" xmlns:xlink="http://www.w3.org/1999/xlink" x="0px" y="0px"
	 viewBox="0 0 512 512" enable-background="new 0 0 512 512" xml:space="preserve">
<g id="Layer_8">
	<path fill="#0074A8" d="M437.626,73.763c37.978-82.369-34.466-112.946-46.703,24.855l-106.175,94.587
		c-0.732,0.578-1.446,1.19-2.122,1.865c-0.041,0.041-0.075,0.087-0.117,0.129l-0.081,0.072l0.008,0.008
		c-9.103,9.319-9.047,24.246,0.189,33.482c9.237,9.237,24.164,9.292,33.483,0.189l0.008,0.008l0.071-0.08
		c0.042-0.041,0.088-0.075,0.129-0.117c0.676-0.676,1.288-1.39,1.866-2.122l94.587-106.175
		C550.572,108.229,519.995,35.785,437.626,73.763z"/>
</g>
<g id="Layer_1">
</g>
</svg>
