<svg xmlns="http://www.w3.org/2000/svg" viewBox="0 0 512 512" enable-background="new 0 0 512 512"><path fill="#FFD469" d="M54.183 339.285H45.79c-1.286 0-2.328-1.042-2.328-2.327V311.19c0-1.285 1.042-2.327 2.327-2.327h8.39c1.286 0 2.328 1.042 2.328 2.327v25.768c0 1.285-1.043 2.327-2.328 2.327zm26.906-1.778V311.74c0-1.286-1.045-2.328-2.33-2.328h-8.394c-1.285 0-2.327 1.042-2.327 2.327v25.765c0 1.285 1.042 2.327 2.327 2.327h8.394c1.286 0 2.328-1.042 2.328-2.327zm24.576 0V311.74c0-1.286-1.042-2.328-2.327-2.328h-8.394c-1.285 0-2.327 1.042-2.327 2.327v25.765c0 1.285 1.04 2.327 2.326 2.327h8.394c1.287 0 2.33-1.042 2.33-2.327zm24.58 0V311.74c0-1.286-1.043-2.328-2.328-2.328h-8.395c-1.285 0-2.327 1.042-2.327 2.327v25.765c0 1.285 1.04 2.327 2.326 2.327h8.394c1.285 0 2.327-1.042 2.327-2.327zm24.578 0V311.74c0-1.286-1.042-2.328-2.327-2.328h-8.395c-1.285 0-2.327 1.042-2.327 2.327v25.765c0 1.285 1.042 2.327 2.327 2.327h8.394c1.284 0 2.326-1.042 2.326-2.327zm-98.316-86.42v-25.77c0-1.284-1.043-2.326-2.328-2.326h-8.39c-1.286 0-2.328 1.045-2.328 2.33v25.768c0 1.285 1.042 2.327 2.327 2.327h8.39c1.286 0 2.328-1.042 2.328-2.327zm24.58 0v-25.77c0-1.284-1.044-2.326-2.33-2.326h-8.393c-1.285 0-2.327 1.045-2.327 2.33v25.768c0 1.285 1.043 2.327 2.328 2.327h8.394c1.285 0 2.327-1.042 2.327-2.327zm24.577 0v-25.77c0-1.284-1.042-2.326-2.327-2.326h-8.393c-1.285 0-2.327 1.045-2.327 2.33v25.768c0 1.285 1.042 2.327 2.327 2.327h8.394c1.286 0 2.33-1.042 2.33-2.327zm24.58 0v-25.77c0-1.284-1.043-2.326-2.328-2.326h-8.395c-1.285 0-2.327 1.045-2.327 2.33v25.768c0 1.285 1.04 2.327 2.326 2.327h8.395c1.285 0 2.327-1.042 2.327-2.327zm24.578 0v-25.77c0-1.284-1.042-2.326-2.327-2.326H144.1c-1.284 0-2.326 1.045-2.326 2.33v25.768c0 1.285 1.042 2.327 2.327 2.327h8.395c1.284 0 2.326-1.042 2.326-2.327zM56.51 385.377v-25.77c0-1.285-1.042-2.327-2.327-2.327H45.79c-1.286 0-2.328 1.043-2.328 2.328v25.768c0 1.285 1.042 2.327 2.327 2.327h8.39c1.286 0 2.328-1.042 2.328-2.327zm24.58 0v-25.77c0-1.285-1.043-2.327-2.328-2.327h-8.394c-1.285 0-2.327 1.043-2.327 2.328v25.768c0 1.285 1.045 2.327 2.33 2.327h8.394c1.285 0 2.327-1.042 2.327-2.327zm24.578 0v-25.77c0-1.285-1.042-2.327-2.327-2.327h-8.39c-1.285 0-2.327 1.043-2.327 2.328v25.768c0 1.285 1.043 2.327 2.328 2.327h8.395c1.286 0 2.328-1.042 2.328-2.327zm24.58 0v-25.77c0-1.285-1.043-2.327-2.328-2.327h-8.394c-1.285 0-2.327 1.043-2.327 2.328v25.768c0 1.285 1.04 2.327 2.324 2.327h8.394c1.284 0 2.326-1.042 2.326-2.327zm24.578 0v-25.77c0-1.285-1.042-2.327-2.327-2.327h-8.397c-1.285 0-2.327 1.043-2.327 2.328v25.768c0 1.285 1.042 2.327 2.327 2.327h8.394c1.284 0 2.326-1.042 2.326-2.327zm254.712-31.31V336.03c0-1.87-1.516-3.384-3.385-3.384h-12.21c-1.87 0-3.386 1.516-3.386 3.385v18.037c0 1.87 1.516 3.385 3.385 3.385h12.21c1.87 0 3.386-1.514 3.386-3.384zm31.474 0V336.03c0-1.87-1.516-3.384-3.385-3.384h-12.21c-1.87 0-3.386 1.516-3.386 3.385v18.037c0 1.87 1.52 3.385 3.388 3.385h12.21c1.87 0 3.386-1.514 3.386-3.384zm31.475 0V336.03c0-1.87-1.516-3.384-3.385-3.384h-12.21c-1.87 0-3.386 1.516-3.386 3.385v18.037c0 1.87 1.516 3.385 3.385 3.385h12.214c1.87 0 3.385-1.514 3.385-3.384zM241.224 371.89v-33.76c0-4.107-3.328-7.435-7.434-7.435h-16.083c-4.106 0-7.434 3.328-7.434 7.434v33.76c0 4.103 3.328 7.43 7.434 7.43h16.083c4.105 0 7.434-3.327 7.434-7.433z"/></svg>