<?xml version="1.0" encoding="iso-8859-1"?>
<!-- Generator: Adobe Illustrator 18.1.1, SVG Export Plug-In . SVG Version: 6.00 Build 0)  -->
<!DOCTYPE svg PUBLIC "-//W3C//DTD SVG 1.1//EN" "http://www.w3.org/Graphics/SVG/1.1/DTD/svg11.dtd">
<svg version="1.1" xmlns="http://www.w3.org/2000/svg" xmlns:xlink="http://www.w3.org/1999/xlink" x="0px" y="0px"
	 viewBox="0 0 512 512" enable-background="new 0 0 512 512" xml:space="preserve">
<g id="Layer_4">
	<path fill="#2B3B47" d="M293.372,244.201c8.489-9.122,13.695-21.338,13.695-34.752c0-28.159-22.909-51.067-51.067-51.067
		c-28.159,0-51.067,22.909-51.067,51.067c0,13.414,5.207,25.629,13.695,34.752c-14.428,11.189-23.741,28.674-23.741,48.304
		c0,33.697,27.415,61.113,61.113,61.113c33.697,0,61.113-27.416,61.113-61.113C317.113,272.875,307.8,255.39,293.372,244.201z
		 M256,187.618c12.038,0,21.831,9.794,21.831,21.832s-9.793,21.832-21.831,21.832s-21.832-9.793-21.832-21.832
		S243.962,187.618,256,187.618z M256,324.382c-17.577,0-31.877-14.3-31.877-31.877s14.3-31.878,31.877-31.878
		s31.877,14.301,31.877,31.878S273.577,324.382,256,324.382z"/>
</g>
<g id="Layer_1">
</g>
</svg>
