<svg xmlns="http://www.w3.org/2000/svg" viewBox="0 0 512 512" enable-background="new 0 0 512 512"><path fill="#D38E3C" d="M440.172 346.505h-17.61c-3.977 0-7.2-3.224-7.2-7.2v-46.828c0-3.976 3.223-7.2 7.2-7.2h17.61c3.976 0 7.2 3.224 7.2 7.2v46.828c0 3.977-3.224 7.2-7.2 7.2zm53.345-7.2v-46.828c0-3.976-3.224-7.2-7.2-7.2h-17.61c-3.977 0-7.2 3.224-7.2 7.2v46.828c0 3.976 3.223 7.2 7.2 7.2h17.61c3.977 0 7.2-3.223 7.2-7.2zm-440.145 0v-46.828c0-3.976-3.224-7.2-7.2-7.2h-17.61c-3.977 0-7.2 3.224-7.2 7.2v46.828c0 3.976 3.223 7.2 7.2 7.2h17.61c3.976 0 7.2-3.223 7.2-7.2zm46.145 0v-46.828c0-3.976-3.224-7.2-7.2-7.2h-17.61c-3.976 0-7.2 3.224-7.2 7.2v46.828c0 3.976 3.224 7.2 7.2 7.2h17.61c3.977 0 7.2-3.223 7.2-7.2zm-46.145 55.7V379.36c0-3.976-3.224-7.2-7.2-7.2h-17.61c-3.977 0-7.2 3.224-7.2 7.2v15.642c0 3.976 3.223 7.2 7.2 7.2h17.61c3.976 0 7.2-3.224 7.2-7.2zm46.145 0V379.36c0-3.976-3.224-7.2-7.2-7.2h-17.61c-3.976 0-7.2 3.224-7.2 7.2v15.642c0 3.976 3.224 7.2 7.2 7.2h17.61c3.977 0 7.2-3.224 7.2-7.2zm-46.145 54.034v-15.643c0-3.976-3.224-7.2-7.2-7.2h-17.61c-3.977 0-7.2 3.224-7.2 7.2v15.642c0 3.975 3.223 7.2 7.2 7.2h17.61c3.976 0 7.2-3.224 7.2-7.2zm46.145 0v-15.643c0-3.976-3.224-7.2-7.2-7.2h-17.61c-3.976 0-7.2 3.224-7.2 7.2v15.642c0 3.975 3.224 7.2 7.2 7.2h17.61c3.977 0 7.2-3.224 7.2-7.2zm347.855-54.036v-15.642c0-3.976-3.224-7.2-7.2-7.2h-17.61c-3.977 0-7.2 3.224-7.2 7.2v15.642c0 3.976 3.223 7.2 7.2 7.2h17.61c3.976 0 7.2-3.224 7.2-7.2zm46.145 0v-15.642c0-3.976-3.224-7.2-7.2-7.2h-17.61c-3.977 0-7.2 3.224-7.2 7.2v15.642c0 3.976 3.223 7.2 7.2 7.2h17.61c3.977 0 7.2-3.224 7.2-7.2zm-46.145 54.035v-15.643c0-3.976-3.224-7.2-7.2-7.2h-17.61c-3.977 0-7.2 3.224-7.2 7.2v15.642c0 3.975 3.223 7.2 7.2 7.2h17.61c3.976 0 7.2-3.224 7.2-7.2zm46.145 0v-15.643c0-3.976-3.224-7.2-7.2-7.2h-17.61c-3.977 0-7.2 3.224-7.2 7.2v15.642c0 3.975 3.223 7.2 7.2 7.2h17.61c3.977 0 7.2-3.224 7.2-7.2z"/></svg>