<?xml version="1.0" encoding="iso-8859-1"?>
<!-- Generator: Adobe Illustrator 18.1.1, SVG Export Plug-In . SVG Version: 6.00 Build 0)  -->
<!DOCTYPE svg PUBLIC "-//W3C//DTD SVG 1.1//EN" "http://www.w3.org/Graphics/SVG/1.1/DTD/svg11.dtd">
<svg version="1.1" xmlns="http://www.w3.org/2000/svg" xmlns:xlink="http://www.w3.org/1999/xlink" x="0px" y="0px"
	 viewBox="0 0 512 512" enable-background="new 0 0 512 512" xml:space="preserve">
<g id="Layer_4">
	<path fill="#FFFFFF" d="M432.402,205.491c0-34.323-27.824-62.147-62.147-62.147c-21.453,0-40.366,10.87-51.534,27.402
		c-1.299-43.607-37.054-78.56-80.977-78.56c-44.744,0-81.017,36.273-81.017,81.017c0,33.496,20.329,62.243,49.321,74.58
		c-0.052,0.283-0.107,0.565-0.153,0.85H178.95c-8.293,0-15.015,6.722-15.015,15.015v39.55l-18.641-9.069l0,0l-23.133-11.254v0
		l-19.247-9.363c-10.275-4.999-23.316,1.036-23.316,10.789v97.03c0,9.754,13.041,15.788,23.316,10.789l19.247-9.364v0l23.133-11.254
		l0,0l18.641-9.069v39.551c0,8.293,6.722,15.015,15.015,15.015h206.732c8.293,0,15.015-6.722,15.015-15.015V263.648
		c0-1.279-0.177-2.514-0.478-3.7C419.404,249.369,432.402,228.949,432.402,205.491z"/>
</g>
<g id="Layer_1">
</g>
</svg>
