<?xml version="1.0" encoding="iso-8859-1"?>
<!-- Generator: Adobe Illustrator 18.1.1, SVG Export Plug-In . SVG Version: 6.00 Build 0)  -->
<!DOCTYPE svg PUBLIC "-//W3C//DTD SVG 1.1//EN" "http://www.w3.org/Graphics/SVG/1.1/DTD/svg11.dtd">
<svg version="1.1" xmlns="http://www.w3.org/2000/svg" xmlns:xlink="http://www.w3.org/1999/xlink" x="0px" y="0px"
	 viewBox="0 0 512 512" enable-background="new 0 0 512 512" xml:space="preserve">
<g id="Layer_4">
	<path fill="#D1CFC3" d="M331.637,230.908l-17.801-17.802l16.687-16.687c4.348-4.348,4.348-11.396,0-15.743
		c-4.346-4.347-11.396-4.347-15.742,0l-16.688,16.688l-17.62-17.62c-4.347-4.347-11.396-4.348-15.742,0
		c-4.348,4.347-4.348,11.396,0,15.743l17.62,17.62l-29.282,29.282l-17.62-17.62c-4.348-4.347-11.396-4.347-15.743,0
		c-4.347,4.348-4.347,11.396,0,15.743l17.62,17.62l-29.282,29.282l-17.62-17.62c-4.348-4.348-11.396-4.348-15.743,0
		c-4.347,4.347-4.347,11.396,0,15.742l17.62,17.62l-12.595,12.595c-4.347,4.347-4.347,11.396,0,15.742
		c2.174,2.174,5.022,3.261,7.872,3.261s5.698-1.087,7.872-3.261l12.594-12.594l17.801,17.801c2.174,2.174,5.022,3.261,7.872,3.261
		s5.698-1.087,7.872-3.261c4.347-4.347,4.347-11.396,0-15.742l-17.802-17.802l29.282-29.282l17.802,17.801
		c2.173,2.174,5.022,3.261,7.871,3.261s5.698-1.087,7.871-3.261c4.348-4.347,4.348-11.396,0-15.742l-17.801-17.802l29.282-29.282
		l17.802,17.802c2.174,2.174,5.021,3.26,7.871,3.26c2.849,0,5.698-1.087,7.871-3.26
		C335.984,242.304,335.984,235.256,331.637,230.908z"/>
</g>
<g id="Layer_1">
</g>
</svg>
