<?xml version="1.0" encoding="iso-8859-1"?>
<!-- Generator: Adobe Illustrator 18.1.1, SVG Export Plug-In . SVG Version: 6.00 Build 0)  -->
<!DOCTYPE svg PUBLIC "-//W3C//DTD SVG 1.1//EN" "http://www.w3.org/Graphics/SVG/1.1/DTD/svg11.dtd">
<svg version="1.1" xmlns="http://www.w3.org/2000/svg" xmlns:xlink="http://www.w3.org/1999/xlink" x="0px" y="0px"
	 viewBox="0 0 512 512" enable-background="new 0 0 512 512" xml:space="preserve">
<g id="Layer_2">
	<path fill="#00B89C" d="M421.287,505.078H104.795c-19.51,0-35.326-15.816-35.326-35.326V211.48h387.143v258.273
		C456.613,489.262,440.797,505.078,421.287,505.078z"/>
</g>
<g id="Layer_3">
	<path fill="#B9C5C6" d="M456.613,302.624H69.47v-93.295h387.143V302.624z M412.79,7.549L42.356,120.061l27.113,89.268
		L439.903,96.818L412.79,7.549z"/>
</g>
<g id="Layer_4_1_">
	<path fill="#445056" d="M136.719,302.624H69.47v-30.041l37.866-63.254h85.234L136.719,302.624z M195.399,302.624h85.233
		l55.85-93.295H251.25L195.399,302.624z M339.313,302.624h85.233l32.067-53.566v-39.729h-61.449L339.313,302.624z M300.381,41.691
		l80.553,73.037l58.969-17.911l-11.459-37.727l-46.509-42.17L300.381,41.691z M243.232,156.552l81.554-24.77l-80.553-73.037
		l-81.554,24.77L243.232,156.552z M187.085,173.606l-80.553-73.037L42.356,120.06l8.817,29.031l54.357,49.285L187.085,173.606z"/>
</g>
</svg>
