<?xml version="1.0" encoding="iso-8859-1"?>
<!-- Generator: Adobe Illustrator 18.1.1, SVG Export Plug-In . SVG Version: 6.00 Build 0)  -->
<!DOCTYPE svg PUBLIC "-//W3C//DTD SVG 1.1//EN" "http://www.w3.org/Graphics/SVG/1.1/DTD/svg11.dtd">
<svg version="1.1" xmlns="http://www.w3.org/2000/svg" xmlns:xlink="http://www.w3.org/1999/xlink" x="0px" y="0px"
	 viewBox="0 0 512 512" enable-background="new 0 0 512 512" xml:space="preserve">
<g id="Layer_2">
	<path fill="#D8E9EA" d="M21.716,501.617h467.234c6.6,0,12-5.4,12-12V206.55C295.832,242.028,75.632,350.452,9.716,384.626v104.991
		C9.716,496.217,15.116,501.617,21.716,501.617z"/>
</g>
<g id="Layer_3">
	<path fill="#FF473E" d="M414.256,373.283L158.781,476.788c-12.071,4.891-25.822-0.93-30.712-13.002l-8.862-21.874
		c-4.891-12.071,0.93-25.822,13.002-30.712l255.475-103.505c12.071-4.891,25.822,0.93,30.712,13.002l8.862,21.874
		C432.149,354.642,426.328,368.393,414.256,373.283z"/>
</g>
<g id="Layer_4">
	<path fill="#2B3B47" d="M300.873,374.42c0,0-12.408-15.629-14.54-17.342l10.528-35.007c5.426-12.863,3.082-27.684-6.024-38.266
		c-1.417-1.647-2.567-2.951-3.203-3.658l-75.66-80.355L139.3,270.956l53.912,65.806c3.806,4.645,6.774,9.917,8.774,15.579
		l-11.708,52.973c0,0,0.003,0.003,0.003,0.003c-1.358,5.042-0.032,10.914,4.083,15.62c0,0,1.344,1.537,3.36,3.843
		c1.807,2.191,17.43,14.453,17.43,14.453c4.747,3.801,11.299,4.953,16.578,2.431c6.946-3.318,9.057-11.74,4.715-18.811
		c0,0-1.883-3.067-5.13-7.366c-1.842-2.57-5.124-5.165-6.947-7.94c-0.549-0.793-1.03-1.488-1.444-2.086
		c0,0,19.908-57.16,9.171-80.812c-8.885-19.573-14.426-29.505-11.563-31.371c3.843-2.504,14.447-0.245,27.567,5.958
		c9.577,4.528,16.857,12.806,20.149,22.875l-8.447,39.325c-4.223,8.44,0.194,16.759,7.482,22.993
		c0.532,0.455,1.074,0.867,1.625,1.237l0.191,0.125c0,0,1.598,1.058,3.995,2.644c2.66,1.658,5.283,4.939,7.76,6.643
		c4.158,3.032,7.086,4.72,7.086,4.72c6.752,3.893,14.164,0.54,16.556-7.49C306.316,386.206,304.711,379.16,300.873,374.42z"/>
</g>
<g id="Layer_5">
	<path fill="#FFD3B6" d="M100.255,323.255c-0.505-0.694-0.843-1.199-1.226-1.779c-0.367-0.562-0.724-1.123-1.066-1.689
		c-0.688-1.13-1.339-2.278-1.956-3.458c-1.233-2.359-2.34-4.836-3.238-7.532c-0.226-0.671-0.433-1.363-0.628-2.064
		c-0.186-0.712-0.376-1.416-0.521-2.164c-0.162-0.731-0.281-1.501-0.399-2.267c-0.093-0.79-0.188-1.571-0.221-2.399
		c-0.056-0.808-0.042-1.665-0.015-2.517l0.09-1.303l0.177-1.332c0.152-0.894,0.325-1.797,0.609-2.705
		c0.25-0.906,0.611-1.806,0.985-2.694l0,0l8.008-14.757l6.328,13.467l5.998,12.763c1.417,3.016,0.121,6.61-2.895,8.028
		c-2.394,1.125-5.158,0.532-6.902-1.265l-9.808-10.133l14.336-1.29l0,0c-0.052,0.176-0.141,0.331-0.185,0.534
		c-0.071,0.182-0.1,0.413-0.146,0.644l-0.053,0.37l-0.026,0.412c-0.001,0.292-0.022,0.583,0.009,0.918
		c0.006,0.318,0.059,0.673,0.092,1.022c0.063,0.366,0.11,0.729,0.2,1.117c0.068,0.378,0.183,0.779,0.283,1.176
		c0.114,0.402,0.232,0.809,0.373,1.223c0.548,1.654,1.306,3.379,2.196,5.079c0.445,0.85,0.924,1.697,1.427,2.523
		c0.25,0.415,0.51,0.82,0.768,1.217c0.246,0.377,0.552,0.821,0.721,1.053l0.043,0.06c2.693,3.687,1.888,8.859-1.799,11.552
		c-3.687,2.693-8.859,1.888-11.552-1.799L100.255,323.255z M317.018,249.633l0.009,0.01c2.983,3.212,8.004,3.398,11.216,0.415
		s3.398-8.004,0.415-11.216c-0.579-0.624-1.012-1.054-1.507-1.541c-0.482-0.468-0.963-0.927-1.453-1.372
		c-0.978-0.893-1.98-1.753-3.02-2.586c-2.079-1.664-4.297-3.226-6.765-4.622c-0.614-0.35-1.252-0.685-1.9-1.011
		c-0.66-0.318-1.314-0.639-2.016-0.924c-0.683-0.298-1.413-0.562-2.137-0.823c-0.752-0.241-1.496-0.484-2.297-0.673
		c-0.777-0.209-1.614-0.359-2.447-0.494c-0.847-0.125-1.714-0.212-2.612-0.242c-0.897-0.022-1.807-0.026-2.741,0.077
		c-0.927,0.07-1.867,0.25-2.799,0.444l0,0l-15.305,4.744l11.445,8.524l11.375,8.472c1.955,1.452,4.703,1.565,6.799,0.082
		c2.608-1.846,3.226-5.457,1.379-8.065l-8.195-11.577l-3.859,13.269l0,0c0.201-0.021,0.391-0.082,0.617-0.088
		c0.211-0.037,0.461-0.021,0.714-0.021l0.399,0.021l0.433,0.057c0.302,0.057,0.607,0.096,0.942,0.194
		c0.656,0.158,1.371,0.401,2.114,0.721c0.368,0.144,0.75,0.338,1.129,0.517c0.382,0.193,0.767,0.393,1.155,0.615
		c1.551,0.874,3.125,1.968,4.646,3.188c0.761,0.609,1.511,1.252,2.237,1.915c0.365,0.33,0.718,0.668,1.064,1.004
		c0.329,0.321,0.71,0.709,0.916,0.931L317.018,249.633z"/>
</g>
<g id="Layer_6">
	<path fill="#FFB636" d="M303.627,213.923c-31.567-20.225-40.434-34.961-46.908-45.721c-3.741-6.217-7.599-12.607-14.19-17.788
		c-8.51-8.256-26.594-16.682-46.604-17.105c-7.941-1.81-17.011-2.138-26.43-0.622c-14.007,2.254-26.008,8.13-33.923,15.714
		c-2.613,1.582-4.893,3.798-6.575,6.599l-0.44,0.732c0,0-0.017,0.029-0.028,0.046c-0.099,0.147-0.668,0.873-1.62,1.955
		c-1.945,2.227-5.441,5.879-9.713,10.44c-4.277,4.586-9.364,10.116-14.598,16.63c-2.615,3.265-5.267,6.782-7.842,10.633
		c-2.57,3.856-5.075,8.039-7.279,12.772c-2.186,4.724-4.117,10.073-4.992,16.314c-0.198,1.575-0.349,3.174-0.375,4.845
		c-0.025,0.825-0.012,1.67,0.024,2.521l0.044,0.985l0.042,0.737c0.107,1.944,0.212,3.865,0.315,5.754
		c0.397,7.528,0.714,14.621,0.976,20.686c0.477,12.136,0.795,20.226,0.795,20.226c0.359,8.735,7.512,15.791,16.353,15.878
		c9.128,0.089,16.599-7.238,16.689-16.365l0.007-0.664c0,0,0.08-8.212,0.201-20.529c0.014-3.081,0.028-6.419,0.044-9.949
		c-0.002-3.544-0.004-7.28-0.006-11.146c-0.011-1.932-0.023-3.897-0.034-5.885l-0.005-0.739l-0.004-0.392l0.018-0.069
		c0.016-0.086,0.029-0.181,0.059-0.3c0.034-0.216,0.114-0.512,0.185-0.831c0.347-1.339,1.137-3.476,2.451-5.868
		c1.294-2.395,3.016-5.019,4.959-7.63c0.896-1.206,1.843-2.411,2.817-3.609l2.932,51.698l0.744-0.12
		c4.877,9.409,30.814,13.16,60.805,8.334c29.991-4.826,53.443-16.523,55.122-26.987l0.019-0.003l-0.011-0.039
		c0.118-0.764,0.131-1.523,0.011-2.27c-0.201-1.252-0.753-2.417-1.591-3.501l-11.98-43.757c8.273,12.148,21.96,27.968,51.337,46.79
		c2.817,1.805,5.969,2.667,9.083,2.667c5.556,0,10.996-2.744,14.216-7.769C313.754,229.379,311.469,218.948,303.627,213.923z
		 M128.458,155.893c0.014-0.02,0.028-0.042,0.042-0.064c-0.032,0.053-0.075,0.125-0.134,0.224
		C128.239,156.271,128.383,156.006,128.458,155.893z"/>
</g>
<g id="Layer_7">
	<path fill="#00B1FF" d="M130.686,122.75c16.694,14.977,48.241,15.668,74.676-9.906c28.225-27.306,66.727-46.122,111.155-40.856
		c-2.686,15.746-5.371,31.493-8.057,47.239C270.464,112.662,167.764,219.899,130.686,122.75z"/>
</g>
<g id="Layer_8">
	<path fill="#FFD3B6" d="M217.887,70.391c-0.908-5.644-6.222-9.486-11.863-8.579c-0.082,0.013-0.159,0.036-0.24,0.051l-0.062-1.436
		c-4.141-25.74-28.366-43.254-54.115-39.111c-25.74,4.141-43.248,28.37-39.107,54.11l0.39,1.375
		c-0.029,0.005-0.059,0.005-0.088,0.01c-5.641,0.908-9.482,6.223-8.574,11.867c0.908,5.644,6.222,9.486,11.863,8.579
		c0.845-0.136,1.643-0.381,2.398-0.701l0.853,3.009c3.886,24.151,26.612,40.582,50.759,36.697
		c24.153-3.886,40.588-26.618,36.702-50.769l-0.136-3.162c0.864,0.083,1.749,0.071,2.646-0.073
		C214.955,81.35,218.796,76.035,217.887,70.391z"/>
</g>
<g id="Layer_9">
	<path fill="#E5AB83" d="M162.553,98.792c-2.605,0-5.073-1.09-6.806-3.059c-0.701-0.796-0.624-2.009,0.173-2.71
		c0.796-0.702,2.009-0.623,2.71,0.173c1.186,1.347,2.984,1.977,4.813,1.684c1.831-0.293,3.346-1.457,4.054-3.113
		c0.416-0.976,1.543-1.43,2.52-1.011c0.975,0.417,1.428,1.545,1.011,2.52c-1.229,2.875-3.837,4.893-6.977,5.396
		C163.549,98.752,163.048,98.792,162.553,98.792z"/>
</g>
<g id="Layer_10">
	<path fill="#FF929D" d="M164.658,117.415c-4.225,0-8.176-1.82-10.887-5.104c-0.818-0.99-0.678-2.456,0.312-3.273
		c0.99-0.818,2.456-0.678,3.273,0.312c2.155,2.609,5.499,3.838,8.945,3.282c3.449-0.554,6.242-2.769,7.472-5.924
		c0.466-1.196,1.815-1.789,3.01-1.322c1.196,0.466,1.788,1.814,1.322,3.01c-1.835,4.708-5.972,8.008-11.066,8.827
		C166.24,117.352,165.444,117.415,164.658,117.415z"/>
</g>
<g id="Layer_11">
	<path fill="#68442A" d="M203.478,39.816c-2.163-13.446-12.46-29.111-30.414-34.801c-2.658-0.844,3.22-4.999,0.228-5.365
		c-2.435-0.295-13.676,3.109-16.32,3.171c-2.601,0.064-5.323,0.311-8.138,0.764c-33.006,5.31-43.515,32.901-40.516,51.542
		l3.807,23.662c6.367-1.024,9.533-6.395,9.519-21.061c-0.041-28.528,36.374-21.582,36.374-21.582l-0.001-0.003
		c6.924,2.008,16.267,4.479,20.129,4.42c3.141-0.047-10.477-7.759-6.85-7.315c9.068,1.114,17.528,6.431,21.974,14.383
		c5.831,10.444,7.437,15.475,13.792,14.452L203.478,39.816z"/>
</g>
<g id="Layer_12">
	<path fill="#2B3B47" d="M209.135,67.718c-2.099-13.043-14.373-21.915-27.416-19.817l-50.689,8.156
		c-13.043,2.099-21.915,14.373-19.817,27.416c2.099,13.043,14.373,21.915,27.416,19.817c16.958-2.728,17.072-14.54,23.495-15.574
		s11.467,9.948,27.194,7.418C202.362,93.035,211.234,80.761,209.135,67.718z"/>
</g>
<g id="Layer_13">
	<path fill="#D8E9EA" d="M198.38,69.448c-1.143-7.103-7.827-11.935-14.93-10.792l-50.689,8.156
		c-7.103,1.143-11.934,7.827-10.792,14.93c1.143,7.103,7.827,11.934,14.93,10.792c14.2-2.285,16.579-13.58,23.671-14.721
		s16.53,8.253,27.018,6.565C194.691,83.235,199.522,76.551,198.38,69.448z"/>
</g>
<g id="Layer_14">
	<path fill="#EDC0A2" d="M165.242,132.236c-9.993,1.608-19.764,0.066-28.306-3.889c9.18,6.625,20.885,9.753,32.946,7.812
		c24.137-3.884,40.566-26.606,36.682-50.746l-0.208-2.235C206.738,107.107,189.559,128.324,165.242,132.236z"/>
</g>
</svg>
