<svg xmlns="http://www.w3.org/2000/svg" viewBox="0 0 512 512" enable-background="new 0 0 512 512"><path fill="#FFA9BA" d="M147.596 41.32s.496.124 1.386.394c.877.275 2.242.657 3.848 1.227l2.737.936c.957.363 2 .76 3.13 1.186 2.275.85 4.805 1.86 7.504 3.047 10.876 4.715 24.84 12.095 38.626 22.177 13.83 10.062 27.473 22.827 39.067 37.748 5.817 7.453 11.15 15.432 15.86 23.832 4.744 8.385 8.827 17.207 12.343 26.262 3.485 9.067 6.43 18.357 8.692 27.763 2.297 9.393 3.888 18.91 4.886 28.347.987 9.44 1.303 18.827 1.06 27.95-.124 4.564-.39 9.063-.784 13.47-.186 2.2-.453 4.396-.706 6.548-.223 2.14-.543 4.283-.858 6.38-2.487 16.776-6.803 31.68-10.828 42.524-.52 1.362-1.014 2.652-1.48 3.866-.513 1.235-.995 2.392-1.444 3.468-.856 2.137-1.743 4.02-2.442 5.538-1.412 3.043-2.354 4.743-2.354 4.743-6.248 11.283-19.383 16.34-31.263 12.862 0 0-1.864-.546-5.008-1.714-1.565-.587-3.52-1.3-5.632-2.216l-3.467-1.448-3.772-1.707c-10.49-4.872-24.044-12.422-37.616-22.59-1.7-1.27-3.435-2.567-5.1-3.93-1.696-1.35-3.432-2.724-5.11-4.156-3.38-2.856-6.736-5.865-10.035-9.02-6.595-6.31-12.977-13.203-18.92-20.604-5.93-7.404-11.498-15.287-16.475-23.577-5.01-8.277-9.458-16.95-13.362-25.844-3.874-8.908-7.18-18.05-9.71-27.345-2.566-9.282-4.392-18.704-5.504-28.092-2.262-18.76-1.554-37.43 1.193-54.31C98.754 98.174 103.484 83.1 107.89 72.1c1.083-2.742 2.17-5.24 3.19-7.444.5-1.098.963-2.115 1.39-3.046l1.287-2.59c.74-1.534 1.442-2.766 1.87-3.58.444-.817.708-1.254.708-1.254 6.626-10.938 19.477-15.806 31.266-12.862z"/></svg>