<?xml version="1.0" encoding="iso-8859-1"?>
<!-- Generator: Adobe Illustrator 18.1.1, SVG Export Plug-In . SVG Version: 6.00 Build 0)  -->
<!DOCTYPE svg PUBLIC "-//W3C//DTD SVG 1.1//EN" "http://www.w3.org/Graphics/SVG/1.1/DTD/svg11.dtd">
<svg version="1.1" xmlns="http://www.w3.org/2000/svg" xmlns:xlink="http://www.w3.org/1999/xlink" x="0px" y="0px"
	 viewBox="0 0 512 512" enable-background="new 0 0 512 512" xml:space="preserve">
<g id="Layer_12">
	<path fill="#FFD3B6" d="M274.184,51.538c-5.917-20.275-27.151-31.919-47.433-26c-20.275,5.917-32.038,20.692-26.121,40.967
		l1.496,4.774l-0.002-0.002c0.001,0,0.002,0.006,0.003,0.007l0.019,0.062c0.164,0.9-0.085,11.192-0.851,15.818
		c-0.862,5.206,2.328,5.368,7.104,4.134l2.424,7.735c0.416,1.426,4.479,0.014,5.653-1.138c0.89-0.865,2.294-0.846,3.145,0.029
		c0.86,0.876,0.849,2.284-0.03,3.145c-0.987,0.97-3.256,2.104-4.834,2.824c-0.887,0.405-1.242,1.535-0.712,2.354
		c7.324,11.325,21.573,9.803,37.74,5.085c0.322-0.094,0.63-0.197,0.944-0.297c3.333,2.79,8.286,2.84,11.678-0.098l7.151-6.196
		c3.472-3.008,4.08-8.084,1.595-11.808C281.005,74.923,274.184,51.538,274.184,51.538z"/>
</g>
<g id="Layer_1">
</g>
</svg>
