<?xml version="1.0" encoding="iso-8859-1"?>
<!-- Generator: Adobe Illustrator 18.1.1, SVG Export Plug-In . SVG Version: 6.00 Build 0)  -->
<!DOCTYPE svg PUBLIC "-//W3C//DTD SVG 1.1//EN" "http://www.w3.org/Graphics/SVG/1.1/DTD/svg11.dtd">
<svg version="1.1" xmlns="http://www.w3.org/2000/svg" xmlns:xlink="http://www.w3.org/1999/xlink" x="0px" y="0px"
	 viewBox="0 0 512 512" enable-background="new 0 0 512 512" xml:space="preserve">
<g id="Layer_6">
	<path fill="#C6B793" d="M358.889,11.925c25.428,0,49.893,2.351,68.888,6.619c17.396,3.909,25.317,8.304,28.108,10.679
		c-2.791,2.374-10.712,6.77-28.108,10.679c-18.996,4.268-43.461,6.619-68.888,6.619c-25.427,0-49.892-2.351-68.888-6.619
		c-17.396-3.909-25.317-8.304-28.108-10.679c2.791-2.374,10.712-6.77,28.108-10.679C308.996,14.276,333.461,11.925,358.889,11.925
		 M358.889,1.133c-60.014,0-108.664,12.577-108.664,28.091c0,15.514,48.651,28.09,108.664,28.09
		c60.014,0,108.664-12.577,108.664-28.09C467.553,13.709,418.902,1.133,358.889,1.133L358.889,1.133z"/>
</g>
<g id="Layer_1">
</g>
</svg>
