<?xml version="1.0" encoding="iso-8859-1"?>
<!-- Generator: Adobe Illustrator 18.1.1, SVG Export Plug-In . SVG Version: 6.00 Build 0)  -->
<!DOCTYPE svg PUBLIC "-//W3C//DTD SVG 1.1//EN" "http://www.w3.org/Graphics/SVG/1.1/DTD/svg11.dtd">
<svg version="1.1" xmlns="http://www.w3.org/2000/svg" xmlns:xlink="http://www.w3.org/1999/xlink" x="0px" y="0px"
	 viewBox="0 0 512 512" enable-background="new 0 0 512 512" xml:space="preserve">
<g id="Layer_4">
	<path fill="#FECB21" d="M85.216,292.175L48.005,106.123c-2.392-11.962,5.365-23.598,17.327-25.991l0,0
		c11.962-2.392,23.598,5.365,25.99,17.327l37.211,186.053c2.392,11.962-5.365,23.598-17.327,25.991h0
		C99.245,311.894,87.608,304.137,85.216,292.175z M411.503,281.394L411.503,281.394c11.821,3.011,23.845-4.13,26.857-15.952
		l46.838-183.865c3.011-11.821-4.13-23.845-15.951-26.856l0,0c-11.821-3.011-23.845,4.13-26.857,15.952l-46.838,183.865
		C392.54,266.358,399.682,278.382,411.503,281.394z M204.448,383.907L204.448,383.907c12.014,2.117,23.469-5.906,25.585-17.92
		l32.923-186.859c2.117-12.014-5.906-23.468-17.92-25.585l0,0c-12.014-2.117-23.469,5.906-25.585,17.92l-32.923,186.859
		C184.412,370.335,192.435,381.79,204.448,383.907z M314.961,361.8L314.961,361.8c12.186-0.566,21.605-10.903,21.04-23.088
		l-8.8-189.533c-0.566-12.185-10.903-21.605-23.088-21.039l0,0c-12.186,0.566-21.605,10.903-21.04,23.088l8.8,189.533
		C292.439,352.946,302.776,362.365,314.961,361.8z M154.903,311.223L154.903,311.223c12.141,1.182,22.942-7.702,24.124-19.843
		l18.387-188.844c1.182-12.141-7.702-22.942-19.843-24.124h0c-12.141-1.182-22.942,7.702-24.124,19.843L135.06,287.099
		C133.877,299.24,142.761,310.04,154.903,311.223z M387.346,283.53L387.346,283.53c12.044-1.937,20.238-13.27,18.301-25.314
		L375.524,70.885c-1.937-12.044-13.27-20.237-25.314-18.301l0,0c-12.044,1.937-20.238,13.27-18.301,25.314l30.123,187.331
		C363.968,277.273,375.302,285.467,387.346,283.53z"/>
</g>
<g id="Layer_1">
</g>
</svg>
