<?xml version="1.0" encoding="iso-8859-1"?>
<!-- Generator: Adobe Illustrator 18.1.1, SVG Export Plug-In . SVG Version: 6.00 Build 0)  -->
<!DOCTYPE svg PUBLIC "-//W3C//DTD SVG 1.1//EN" "http://www.w3.org/Graphics/SVG/1.1/DTD/svg11.dtd">
<svg version="1.1" xmlns="http://www.w3.org/2000/svg" xmlns:xlink="http://www.w3.org/1999/xlink" x="0px" y="0px"
	 viewBox="0 0 512 512" enable-background="new 0 0 512 512" xml:space="preserve">
<g id="Layer_7">
	<path fill="#FFFFFF" d="M447.831,331.906h-22.503c-3.711,0-6.765-2.921-6.93-6.628l-2.401-54.02
		c-0.015-0.369-0.031-0.739-0.046-1.109c-0.335-8.12-11.951-9.154-13.703-1.218l-9.085,41.137c-0.702,3.178-3.519,5.441-6.773,5.441
		H362.19c-3.219,0-6.014-2.214-6.752-5.347l-9.518-40.428c-1.851-7.864-13.356-6.753-13.681,1.32
		c-0.009,0.217-0.018,0.435-0.027,0.653l-2.399,53.573c-0.166,3.707-3.219,6.626-6.93,6.626h-22.279
		c-4.035,0-7.219-3.431-6.917-7.455l10.639-141.792c0.272-3.619,3.287-6.417,6.917-6.417h34.936c3.256,0,6.074,2.265,6.774,5.446
		l14.924,67.813c1.61,7.314,12.064,7.239,13.569-0.097l13.871-67.619c0.662-3.226,3.501-5.543,6.795-5.543h35.077
		c3.63,0,6.645,2.798,6.917,6.417l10.64,141.792C455.05,328.475,451.867,331.906,447.831,331.906z"/>
</g>
<g id="Layer_1">
</g>
</svg>
