<?xml version="1.0" encoding="iso-8859-1"?>
<!-- Generator: Adobe Illustrator 18.1.1, SVG Export Plug-In . SVG Version: 6.00 Build 0)  -->
<!DOCTYPE svg PUBLIC "-//W3C//DTD SVG 1.1//EN" "http://www.w3.org/Graphics/SVG/1.1/DTD/svg11.dtd">
<svg version="1.1" xmlns="http://www.w3.org/2000/svg" xmlns:xlink="http://www.w3.org/1999/xlink" x="0px" y="0px"
	 viewBox="0 0 512 512" enable-background="new 0 0 512 512" xml:space="preserve">
<g id="Layer_6">
	<path fill="#9D5F48" d="M183.543,76.601c0,0,0.261-0.184,0.751-0.53c0.505-0.318,1.163-0.84,2.302-1.371
		c1.119-0.585,2.41-1.13,3.944-1.709c0.763-0.272,1.585-0.534,2.46-0.806c0.868-0.248,1.791-0.478,2.76-0.712
		c1.928-0.422,4.04-0.794,6.27-1.01c1.112-0.106,2.267-0.231,3.432-0.254c1.17-0.051,2.37-0.108,3.578-0.069
		c2.431-0.009,4.916,0.194,7.442,0.434c2.514,0.302,5.057,0.699,7.57,1.25c5.03,1.077,9.96,2.686,14.403,4.789
		c1.109,0.513,2.185,1.101,3.237,1.647c1.047,0.579,2.048,1.197,3.023,1.804c1.934,1.264,3.704,2.584,5.261,3.984
		c0.78,0.673,1.492,1.446,2.167,2.112c0.657,0.77,1.265,1.427,1.806,2.175c0.528,0.741,1.014,1.416,1.409,2.148
		c0.197,0.357,0.385,0.683,0.553,1.018c0.162,0.355,0.309,0.692,0.437,1.014c0.271,0.615,0.455,1.248,0.573,1.798
		c0.06,0.267,0.116,0.515,0.167,0.741c0.036,0.238,0.053,0.468,0.073,0.663c0.069,0.789,0.055,1.187,0.055,1.187
		c-0.044,1.247-1.09,2.222-2.337,2.178c-0.485-0.017-0.929-0.186-1.288-0.459l-0.741-0.563c0,0-0.22-0.167-0.537-0.439
		c-0.081-0.068-0.158-0.141-0.26-0.22c-0.118-0.076-0.247-0.16-0.386-0.25c-0.273-0.17-0.532-0.369-0.933-0.571
		c-0.187-0.1-0.372-0.207-0.558-0.319c-0.217-0.105-0.444-0.214-0.681-0.328c-0.436-0.232-0.982-0.466-1.55-0.7
		c-0.528-0.259-1.22-0.479-1.845-0.742c-0.696-0.244-1.374-0.509-2.149-0.755c-0.755-0.266-1.546-0.517-2.391-0.773
		c-0.81-0.287-1.716-0.508-2.601-0.79c-1.81-0.519-3.718-1.079-5.738-1.593c-4.009-1.08-8.34-2.196-12.705-3.245
		c-2.178-0.545-4.372-1.028-6.531-1.525c-2.158-0.489-4.294-0.948-6.36-1.371c-2.07-0.444-4.071-0.802-5.978-1.182
		c-0.955-0.183-1.877-0.316-2.782-0.506c-0.898-0.152-1.766-0.275-2.61-0.442c-0.833-0.122-1.637-0.232-2.412-0.373
		c-0.762-0.098-1.492-0.188-2.188-0.302c-1.368-0.161-2.561-0.302-3.543-0.418c-0.932-0.136-1.861-0.176-2.445-0.197
		c-0.598-0.045-0.917-0.069-0.917-0.069c-1.321-0.098-2.313-1.248-2.215-2.569C182.589,77.646,182.985,77.001,183.543,76.601z
		 M317.577,68.113c-0.876,0.994-0.78,2.509,0.214,3.385c0,0,0.24,0.212,0.689,0.609c0.453,0.369,1.169,0.961,1.829,1.633
		c0.713,0.686,1.578,1.518,2.571,2.474c0.486,0.511,1.013,1.024,1.562,1.562c0.532,0.58,1.106,1.153,1.697,1.754
		c0.572,0.643,1.189,1.265,1.813,1.929c0.606,0.698,1.261,1.361,1.911,2.084c1.29,1.455,2.668,2.949,4.05,4.553
		c1.391,1.586,2.816,3.241,4.24,4.935c1.42,1.701,2.877,3.411,4.283,5.16c2.844,3.473,5.621,6.979,8.164,10.261
		c1.299,1.629,2.482,3.229,3.61,4.736c0.535,0.759,1.124,1.482,1.596,2.201c0.519,0.715,0.998,1.393,1.439,2.06
		c0.469,0.664,0.85,1.285,1.257,1.9c0.34,0.586,0.758,1.18,1.022,1.706c0.311,0.53,0.605,1.046,0.812,1.495
		c0.12,0.234,0.235,0.458,0.344,0.673c0.08,0.201,0.163,0.399,0.252,0.591c0.197,0.403,0.284,0.718,0.399,1.018
		c0.056,0.156,0.109,0.3,0.157,0.432c0.034,0.124,0.051,0.229,0.074,0.332c0.088,0.408,0.162,0.674,0.162,0.674l0.25,0.896
		c0.121,0.434,0.373,0.837,0.749,1.144c0.967,0.788,2.39,0.643,3.178-0.324c0,0,0.252-0.309,0.673-0.98
		c0.102-0.167,0.227-0.36,0.342-0.572c0.096-0.211,0.201-0.442,0.315-0.692c0.238-0.51,0.474-1.125,0.63-1.779
		c0.093-0.334,0.18-0.692,0.265-1.072c0.068-0.368,0.116-0.741,0.174-1.145c0.128-0.822,0.148-1.653,0.175-2.563
		c0.021-0.923-0.067-1.814-0.125-2.824c-0.136-0.938-0.236-1.985-0.452-2.992c-0.395-2.056-1.008-4.178-1.785-6.353
		c-0.41-1.073-0.835-2.169-1.319-3.263c-0.508-1.071-1.01-2.189-1.584-3.268c-2.27-4.36-5.228-8.62-8.586-12.517
		c-1.67-1.957-3.456-3.81-5.277-5.569c-1.867-1.718-3.726-3.38-5.668-4.842c-0.939-0.76-1.93-1.44-2.893-2.106
		c-0.942-0.685-1.939-1.283-2.888-1.871c-1.908-1.175-3.815-2.155-5.607-2.983c-0.913-0.399-1.788-0.773-2.629-1.1
		c-0.861-0.312-1.675-0.599-2.447-0.843c-1.572-0.465-2.93-0.811-4.175-1.02c-1.229-0.265-2.068-0.246-2.662-0.298
		c-0.599-0.02-0.919-0.031-0.919-0.031C318.771,67.283,318.066,67.557,317.577,68.113z"/>
</g>
<g id="Layer_1">
</g>
</svg>
