<?xml version="1.0" encoding="iso-8859-1"?>
<!-- Generator: Adobe Illustrator 18.1.0, SVG Export Plug-In . SVG Version: 6.00 Build 0)  -->
<!DOCTYPE svg PUBLIC "-//W3C//DTD SVG 1.1//EN" "http://www.w3.org/Graphics/SVG/1.1/DTD/svg11.dtd">
<svg version="1.1" xmlns="http://www.w3.org/2000/svg" xmlns:xlink="http://www.w3.org/1999/xlink" x="0px" y="0px"
	 viewBox="0 0 512 512" enable-background="new 0 0 512 512" xml:space="preserve">
<g id="Layer_2">
	<path fill="#FF6F1F" d="M65.626,275.915c24.73-40.567,95.993-45.316,95.993-45.316l0,0.001c0,0,59.854,38.435,61.967,85.899
		c2.376,53.333-29.429,108.345-69.039,142.152c6.61-5.615,18.958-16.081-0.312,0.293c-4.655,3.934-3.429,2.886-0.512,0.407
		c-11.274,9.489-32.144,22.034-46.151,30.076c-7.985,4.585-18.175,2.029-23.042-5.787c-8.621-13.846-21.22-35.069-26.552-48.888
		c1.361,3.578,1.93,5.087-0.253-0.604c-8.99-23.635-3.217-8.513-0.132-0.407C39.185,385.027,37.837,321.499,65.626,275.915z
		 M363.131,364.059c-10.768-4.832-30.875-13.827,0.519,0.265c7.576,3.376,5.577,2.471,0.824,0.338
		c18.428,8.167,50.973,16.465,72.592,21.493c12.204,2.838,24.468-4.508,27.74-16.603c5.74-21.217,13.751-53.369,15.468-73.349
		c-0.422,5.192-0.593,7.38,0.101-0.885c2.786-34.299,0.975-12.346,0.018-0.582c5.583-70.645-16.747-154.184-70.353-203.218
		c-47.705-43.639-142.283-23.028-142.283-23.028l-0.001-0.001c0,0-64.003,73.142-48.764,135.975
		C236.116,275.064,298.543,334.898,363.131,364.059z"/>
</g>
<g id="Layer_3">
	<path fill="#F4580B" d="M197.335,356.174c-1.342,0.793-2.815,1.171-4.269,1.171c-2.874,0-5.673-1.475-7.241-4.128l-32.904-55.658
		l-15.782,61.568l25.186,42.602c2.362,3.995,1.038,9.148-2.957,11.51c-1.342,0.793-2.815,1.171-4.269,1.171
		c-2.874,0-5.673-1.475-7.241-4.128l-16.624-28.119l-15.836,61.78c-0.973,3.795-4.388,6.318-8.134,6.318
		c-0.69,0-1.393-0.086-2.092-0.266c-4.496-1.152-7.206-5.73-6.053-10.227l15.856-61.858L86.77,394.586
		c-1.342,0.793-2.815,1.171-4.269,1.171c-2.874,0-5.673-1.475-7.241-4.128c-2.362-3.995-1.038-9.147,2.957-11.51l42.657-25.218
		l15.764-61.499l-55.627,32.885c-1.342,0.793-2.815,1.171-4.269,1.171c-2.874,0-5.673-1.475-7.241-4.128
		c-2.362-3.995-1.038-9.148,2.957-11.51l70.078-41.428l20.175-78.707c1.153-4.495,5.732-7.203,10.226-6.053
		c4.496,1.152,7.206,5.73,6.053,10.226l-20.165,78.666l41.466,70.141C202.654,348.659,201.33,353.812,197.335,356.174z
		 M433.105,232.477l-65.229-16.759l-44.058-74.429l85.219,21.895c0.955,0.245,1.912,0.362,2.854,0.362
		c5.095,0,9.741-3.43,11.067-8.592c1.571-6.116-2.113-12.349-8.229-13.92l-107.394-27.592l-56.292-95.098
		c-3.217-5.434-10.231-7.233-15.665-4.015c-5.435,3.217-7.232,10.23-4.015,15.665l56.322,95.149l-27.567,107.296
		c-1.571,6.117,2.113,12.349,8.229,13.921c0.955,0.245,1.912,0.362,2.854,0.362c5.095,0,9.741-3.43,11.067-8.592l21.883-85.171
		l44.009,74.347l-16.781,65.313c-1.571,6.116,2.113,12.349,8.229,13.921c0.955,0.245,1.912,0.362,2.854,0.362
		c5.095,0,9.741-3.43,11.067-8.592l11.096-43.188l44.266,74.781c2.135,3.607,5.942,5.612,9.851,5.612
		c1.98,0,3.986-0.515,5.813-1.597c5.435-3.217,7.232-10.23,4.016-15.664l-44.21-74.687l43.054,11.062
		c0.955,0.245,1.912,0.362,2.854,0.362c5.095,0,9.741-3.43,11.067-8.592C442.906,240.281,439.222,234.049,433.105,232.477z"/>
</g>
</svg>
