<?xml version="1.0" encoding="iso-8859-1"?>
<!-- Generator: Adobe Illustrator 18.1.1, SVG Export Plug-In . SVG Version: 6.00 Build 0)  -->
<!DOCTYPE svg PUBLIC "-//W3C//DTD SVG 1.1//EN" "http://www.w3.org/Graphics/SVG/1.1/DTD/svg11.dtd">
<svg version="1.1" xmlns="http://www.w3.org/2000/svg" xmlns:xlink="http://www.w3.org/1999/xlink" x="0px" y="0px"
	 viewBox="0 0 512 512" enable-background="new 0 0 512 512" xml:space="preserve">
<g id="Layer_3">
	<path fill="#2B3B47" d="M150.723,286.966h-0.03c0,0.03,0.03,0.041,0.03,0.056c0,7.946-6.447,14.394-14.394,14.394
		s-14.394-6.447-14.394-14.394c0-0.016,0-0.026,0-0.056h-0.062l0.173-20.234c0.642-7.371,6.743-13.171,14.282-13.171
		c7.518,0,13.619,5.8,14.252,13.171L150.723,286.966z M322.919,266.731c-0.633-7.371-6.743-13.171-14.282-13.171
		c-7.509,0-13.619,5.8-14.252,13.171l-0.174,20.234h0.062c0,0.03,0,0.041,0,0.056c0,7.946,6.447,14.394,14.364,14.394
		c7.947,0,14.394-6.447,14.394-14.394c0-0.016,0-0.026,0-0.056l0,0L322.919,266.731z"/>
</g>
<g id="Layer_1">
</g>
</svg>
