<svg xmlns="http://www.w3.org/2000/svg" viewBox="0 0 512 512" enable-background="new 0 0 512 512"><path fill="#F4580B" d="M477.708 280.09c-10.91-2.153-28.504-6.24-26.553-9.883 0 0 8.642-49.927 11.543-66.746.465-2.694-1.9-4.95-4.593-4.474l-66.358 11.746c-3.268 1.76-6.746-14.547-8.612-24.992-.628-3.512-4.902-4.855-7.428-2.336-10 9.973-24.305 24.267-39.21 39.428 1.096-58.606 1.568-120.438 1.715-143.423.025-3.92-4.326-6.22-7.58-4.038-10.18 6.824-27.073 17.35-28.393 12.99 0 0-32.173-45.637-43.018-61.004-1.738-2.463-5.34-2.38-7.068.09L209.6 88.31c-1.176 3.917-16.593-6.08-26.188-12.765-3.226-2.248-7.603.036-7.608 3.968-.03 23.193-.036 85.472.64 144.273-15.24-15.515-29.937-30.2-40.147-40.382-2.526-2.52-6.8-1.176-7.428 2.337-1.87 10.447-5.347 26.753-8.614 24.994L53.9 198.984c-2.695-.477-5.06 1.78-4.594 4.476 2.9 16.82 11.543 66.746 11.543 66.746 1.95 3.645-15.646 7.73-26.555 9.882-3.49.688-4.805 4.956-2.274 7.455 29.904 29.52 99.524 97.073 114.283 104.934 13.252 7.06 29.12 7.58 43.714 5.51L164.8 423.2c-5.44 5.44-.048 14.546 7.336 12.395l82.796-24.126c1.35-.396 2.786-.398 4.138-.008l75.674 24.287c7.646 2.202 12.94-7.527 6.94-12.75l-18.53-24.854c14.268 1.877 29.645 1.202 42.544-5.67 14.76-7.86 84.38-75.412 114.282-104.933 2.533-2.5 1.217-6.767-2.272-7.455z"/></svg>