<?xml version="1.0" encoding="iso-8859-1"?>
<!-- Generator: Adobe Illustrator 18.1.1, SVG Export Plug-In . SVG Version: 6.00 Build 0)  -->
<!DOCTYPE svg PUBLIC "-//W3C//DTD SVG 1.1//EN" "http://www.w3.org/Graphics/SVG/1.1/DTD/svg11.dtd">
<svg version="1.1" xmlns="http://www.w3.org/2000/svg" xmlns:xlink="http://www.w3.org/1999/xlink" x="0px" y="0px"
	 viewBox="0 0 512 512" enable-background="new 0 0 512 512" xml:space="preserve">
<g id="Layer_4">
	<path fill="#45BF53" d="M11.347,117.029c0,0,0.094-0.245,0.277-0.721c0.181-0.472,0.441-1.192,0.819-2.036
		c0.73-1.755,1.886-4.137,3.456-6.989c0.782-1.434,1.707-2.882,2.695-4.531c1.03-1.537,2.146-3.213,3.374-4.935
		c2.477-3.387,5.41-6.93,8.79-10.422c6.753-6.996,15.33-13.73,25.344-19.046c5.004-2.665,10.362-4.983,15.985-6.887
		c5.615-1.938,11.531-3.3,17.558-4.407c6.026-1.117,12.222-1.749,18.438-1.995c6.216-0.246,12.471-0.034,18.626,0.696
		c12.292,1.413,24.263,4.88,34.198,10.055c4.957,2.587,9.401,5.515,13.025,8.715c0.907,0.768,1.772,1.531,2.595,2.322
		c0.806,0.818,1.555,1.579,2.268,2.391c0.708,0.805,1.37,1.521,1.973,2.296c0.596,0.799,1.142,1.557,1.642,2.27
		c2.008,2.92,3.145,5.502,3.787,7.284c0.326,0.893,0.497,1.636,0.632,2.098c0.123,0.47,0.186,0.713,0.186,0.713
		c0.641,2.458-0.748,4.968-3.126,5.754l-1.706,0.559c0,0-1.083,0.355-2.776,0.981c-0.824,0.288-1.915,0.796-2.986,1.253
		c-0.535,0.234-1.153,0.547-1.762,0.866c-0.627,0.341-1.192,0.595-1.851,0.973c-1.299,0.737-2.625,1.559-3.992,2.423
		c-0.66,0.428-1.393,0.934-2.098,1.445c-0.341,0.237-0.688,0.478-1.041,0.724c-0.357,0.259-0.72,0.523-1.089,0.791
		c-2.87,2.08-5.854,4.402-9.003,6.784c-3.149,2.384-6.468,4.829-10,7.211c-3.533,2.387-7.269,4.697-11.237,6.89
		c-3.961,2.206-8.138,4.22-12.502,6.017c-4.364,1.798-8.891,3.465-13.576,4.786c-4.682,1.341-9.445,2.618-14.357,3.284
		c-4.899,0.72-9.895,1.047-14.919,0.976c-10.038-0.121-20.227-1.932-29.64-4.793c-4.701-1.42-9.198-3.086-13.326-4.834
		c-1.029-0.427-2.049-0.9-3.024-1.321c-0.993-0.463-1.95-0.91-2.87-1.339c-1.888-0.974-3.594-1.765-5.204-2.642
		c-1.619-0.901-3.038-1.616-4.347-2.419c-0.647-0.379-1.246-0.729-1.795-1.05c-0.562-0.35-1.073-0.668-1.531-0.953
		c-0.912-0.556-1.641-1.053-2.127-1.375c-0.491-0.34-0.744-0.515-0.744-0.515l-0.975-0.675
		C11.221,122.188,10.435,119.406,11.347,117.029z"/>
</g>
<g id="Layer_1">
</g>
</svg>
