<svg xmlns="http://www.w3.org/2000/svg" viewBox="0 0 512 512" enable-background="new 0 0 512 512"><path fill="#2BA52E" d="M425.273 383.185c-.04-.68-.038-1.3-.13-1.855-.1-.534-.192-1.018-.275-1.452-.34-1.74-.597-2.71-.597-2.71-.024-.095-.055-.195-.09-.288-.6-1.604-2.385-2.418-3.99-1.82 0 0-.937.352-2.553 1.083-1.673.886-3.827 1.46-6.502 2.393-2.697.884-5.837 1.724-9.16 2.33-3.33.612-6.85.957-10.467 1.07-3.63.113-7.342.036-11.303-.105-3.986-.16-8.136-.3-12.697-.412-4.544-.13-9.407-.137-14.642-.007-5.208.154-10.802.455-16.672 1.09-5.884.61-12.08 1.56-18.53 3.085-6.453 1.55-13.16 3.656-19.986 6.735-6.606 2.982-13.37 6.952-19.53 12.19v-93.184c0-12.23-9.915-22.146-22.146-22.146s-22.145 9.915-22.145 22.146v93.763l-.023-.023c-6.273-5.49-13.23-9.62-20.012-12.704-6.814-3.095-13.512-5.21-19.946-6.767-6.433-1.532-12.606-2.484-18.465-3.096-5.842-.634-11.41-.937-16.585-1.09-5.205-.132-10.033-.128-14.547.004-4.525.108-8.65.252-12.61.413-3.93.137-7.626.216-11.24.1-3.605-.114-7.116-.463-10.437-1.077-3.31-.61-6.45-1.446-9.14-2.33-2.664-.926-4.82-1.504-6.49-2.382-1.612-.727-2.55-1.075-2.55-1.075-.087-.032-.183-.063-.275-.088-1.657-.445-3.36.538-3.805 2.195 0 0-.26.965-.603 2.7l-.278 1.45c-.097.55-.094 1.17-.137 1.846l-.07 2.22c-.007.82.045 1.568.08 2.443.085 3.48.796 7.64 2.337 12.35 1.554 4.687 4.09 9.837 7.71 14.867 3.604 5.03 8.27 9.927 13.613 14.22 5.327 4.283 11.327 8.024 17.49 11.073 6.166 3.103 12.543 5.54 18.787 7.49 6.272 1.958 12.4 3.41 18.247 4.54 2.92.57 5.743 1.06 8.498 1.465 2.718.41 5.374.748 7.878 1.017 5.012.535 9.53.835 13.33.955 3.823.115 6.874.02 9.356-.295 2.474-.288 4.49-.89 6.8-1.04 2.327-.2 4.9.342 7.48 1.57 2.56 1.216 5 3.007 7.033 4.778 2.05 1.755 3.722 3.44 4.912 4.634 1.172 1.197 1.91 1.886 1.91 1.886l.586.55.117.104c.33.294.683.546 1.046.774v17.03c0 12.23 9.915 22.147 22.146 22.147s22.145-9.915 22.145-22.146v-17.696c.094-.08.19-.153.28-.238l.564-.527s.736-.69 1.91-1.893c1.19-1.196 2.86-2.887 4.916-4.642 2.036-1.77 4.48-3.56 7.047-4.76 2.577-1.22 5.158-1.73 7.488-1.528 2.316.155 4.35.746 6.873 1.022 2.518.302 5.623.39 9.49.272 3.842-.123 8.4-.423 13.447-.957 2.52-.268 5.194-.607 7.926-1.015 2.77-.404 5.605-.892 8.54-1.46 5.87-1.128 12.023-2.578 18.314-4.53 6.266-1.947 12.66-4.374 18.847-7.468 6.18-3.035 12.204-6.77 17.557-11.04 5.368-4.277 10.068-9.173 13.705-14.2 3.653-5.03 6.222-10.188 7.8-14.885 1.57-4.72 2.298-8.896 2.396-12.39.04-.876.093-1.63.09-2.448-.012-.813-.035-1.556-.064-2.236z"/></svg>