<?xml version="1.0" encoding="iso-8859-1"?>
<!-- Generator: Adobe Illustrator 18.1.1, SVG Export Plug-In . SVG Version: 6.00 Build 0)  -->
<!DOCTYPE svg PUBLIC "-//W3C//DTD SVG 1.1//EN" "http://www.w3.org/Graphics/SVG/1.1/DTD/svg11.dtd">
<svg version="1.1" xmlns="http://www.w3.org/2000/svg" xmlns:xlink="http://www.w3.org/1999/xlink" x="0px" y="0px"
	 viewBox="0 0 512 512" enable-background="new 0 0 512 512" xml:space="preserve">
<g id="Layer_6">
	<path fill="#2B3B47" d="M440.466,224.23c0,0,0.182,0.101,0.534,0.297c0.176,0.098,0.395,0.22,0.655,0.364
		c0.25,0.126,0.41,0.118,0.641,0.202c0.244,0.071,0.516,0.149,0.816,0.236c0.317,0.1,0.665,0.19,1.044,0.266
		c0.747,0.166,1.61,0.269,2.563,0.301c1.899,0.071,4.231-0.266,6.894-1.18c2.658-0.931,5.648-2.477,8.636-4.693
		c1.478-1.13,2.973-2.376,4.397-3.787c1.414-1.421,2.787-2.962,4.029-4.626c0.632-0.823,1.198-1.701,1.752-2.582
		c0.553-0.877,1.085-1.768,1.544-2.688c0.94-1.831,1.663-3.732,2.175-5.602c1.038-3.771,1.098-7.354,0.236-10.784
		c-0.832-3.434-2.696-6.954-5.588-10.472c-0.718-0.879-1.501-1.75-2.338-2.608c-1.152-1.213-2.252-2.336-3.354-3.529l-0.413-0.442
		l-0.45-0.501l-0.891-1.007l-1.764-2.021c-1.14-1.352-2.207-2.71-3.284-4.073c-4.216-5.549-7.945-11.582-10.805-18.008
		c-2.856-6.425-4.81-13.298-5.455-20.082c-0.321-3.38-0.35-6.713,0.003-9.886c0.348-3.164,0.877-6.163,1.749-8.894
		c1.686-5.479,4.054-9.904,6.322-13.518c2.307-3.602,4.573-6.426,6.558-8.617c1.991-2.183,3.659-3.767,4.825-4.815
		c1.158-1.053,1.803-1.584,1.803-1.584c0.467-0.384,1.157-0.317,1.541,0.15c0.264,0.321,0.315,0.748,0.169,1.108l-0.01,0.024
		c0,0-0.314,0.77-0.957,2.157c-0.62,1.4-1.523,3.448-2.611,6.013c-1.063,2.573-2.311,5.677-3.317,9.231
		c-0.234,0.892-0.467,1.807-0.677,2.745c-0.169,0.947-0.377,1.908-0.474,2.897c-0.298,1.963-0.32,4.021-0.203,6.082
		c0.25,4.137,1.407,8.287,3.533,12.285c0.485,1.004,1.109,2.001,1.689,2.994c0.671,0.991,1.273,1.98,2.035,2.96
		c1.397,1.971,3.035,3.93,4.727,5.901c3.453,3.931,7.292,7.938,11.386,12.033c2.042,2.036,4.099,4.088,6.165,6.149
		c1.147,1.113,2.315,2.286,3.406,3.399c1.423,1.45,2.811,2.98,4.142,4.603c2.645,3.255,5.071,6.895,7.013,10.914
		c1.972,3.996,3.397,8.408,4.181,12.929c0.785,4.524,0.824,9.163,0.257,13.575c-0.597,4.409-1.786,8.605-3.432,12.391
		c-1.613,3.811-3.678,7.221-5.939,10.268c-1.123,1.532-2.315,2.96-3.531,4.319c-1.25,1.328-2.511,2.598-3.825,3.76
		c-2.599,2.354-5.313,4.383-8.106,6.068c-2.778,1.703-5.59,3.129-8.423,4.222c-5.637,2.231-11.306,3.273-16.481,3.209
		c-2.585-0.028-5.044-0.321-7.284-0.864c-2.241-0.517-4.264-1.268-5.989-2.152c-1.733-0.854-3.177-1.816-4.329-2.754
		c-0.581-0.462-1.102-0.898-1.54-1.346c-0.221-0.217-0.433-0.423-0.633-0.62c-0.21-0.225-0.409-0.438-0.597-0.639
		c-0.356-0.396-0.736-0.802-0.914-1.063c-0.163-0.249-0.301-0.458-0.411-0.627c-0.221-0.337-0.336-0.511-0.336-0.511
		c-1.593-2.424-0.918-5.681,1.506-7.273C436.718,223.324,438.815,223.318,440.466,224.23z M77.15,149.881
		c-4.321,0.314-7.569,4.071-7.255,8.392l0.984,13.528c0.314,4.321,4.071,7.569,8.392,7.255l0,0c4.321-0.314,7.569-4.071,7.255-8.392
		l-0.984-13.528C85.227,152.815,81.47,149.567,77.15,149.881L77.15,149.881z M31.285,214.579c-2.265,0.165-3.968,2.134-3.803,4.399
		l0.516,7.092c0.165,2.265,2.134,3.968,4.399,3.803l0,0c2.265-0.165,3.968-2.134,3.803-4.399l-0.516-7.092
		C35.52,216.117,33.55,214.414,31.285,214.579L31.285,214.579z M245.345,208.207l-3.693-0.537c0,0-0.816-0.118-2.345-0.341
		c-0.75-0.115-1.658-0.224-2.713-0.43c-1.045-0.166-2.223-0.372-3.508-0.665c-2.556-0.528-5.52-1.315-8.564-2.434
		c-1.524-0.609-3.065-1.2-4.596-1.959c-0.765-0.373-1.526-0.788-2.279-1.221c-0.756-0.405-1.507-0.836-2.247-1.305
		c-2.95-1.931-5.784-4.084-8.409-6.769c-1.342-1.265-2.635-2.674-3.876-4.192c-1.241-1.511-2.518-3.032-3.698-4.722
		c-2.324-3.418-4.656-7.044-6.701-11.027c-2.072-3.948-3.953-8.15-5.511-12.395l-0.574-1.588l-0.278-0.782l-0.185-0.613
		l-0.726-2.044c-0.398-0.993-0.755-1.982-1.197-2.976c-1.696-3.961-3.61-7.988-5.898-11.998c-2.324-3.997-4.954-8.025-8.056-11.919
		c-3.118-3.879-6.657-7.662-10.629-11.109c-3.987-3.425-8.374-6.502-12.918-9.068c-2.285-1.256-4.607-2.374-6.935-3.328
		c-2.344-0.917-4.657-1.726-6.962-2.312c-4.583-1.25-9.005-1.77-13.043-1.915c-4.055-0.098-7.749,0.222-11.087,0.824
		c-6.677,1.233-11.933,3.434-16.222,5.888c-0.835,0.474-1.624,0.959-2.389,1.449c-0.117-0.034-0.232-0.07-0.351-0.098
		c-0.376-0.091-0.77-0.187-1.181-0.286c-0.836-0.214-1.737-0.345-2.683-0.474c-0.962-0.146-1.969-0.186-3.015-0.241
		c-1.063-0.055-2.154-0.039-3.258,0.018c-2.247,0.104-4.541,0.401-6.879,0.847c-2.293,0.439-4.635,1.049-6.846,1.726
		c-2.228,0.68-4.388,1.463-6.393,2.255c-1.019,0.425-1.981,0.77-2.931,1.212c-0.928,0.354-1.843,0.815-2.698,1.156
		c-1.555,0.721-3.111,1.443-4.642,2.153c-1.377,0.644-2.585,1.325-3.723,1.883c-1.153,0.585-2.297,1.208-3.589,1.674
		c-1.297,0.545-2.742,0.886-4.304,1.205c-0.779,0.141-1.561,0.194-2.378,0.326c-0.823,0.123-1.579,0.073-2.387,0.155
		c-1.596,0.116-3.053,0.014-4.397,0.07c-1.282-0.05-2.388-0.067-3.173-0.065c-0.81,0.012-1.241,0.018-1.241,0.018
		s-0.008,0.436,0.049,1.221c0.059,0.783,0.177,1.928,0.479,3.328c0.161,0.696,0.401,1.422,0.67,2.242
		c0.256,0.837,0.609,1.67,1.06,2.56c0.214,0.456,0.465,0.898,0.73,1.357c0.271,0.455,0.525,0.954,0.864,1.41
		c0.661,0.924,1.388,1.901,2.266,2.84c1.783,1.838,4.051,3.713,6.895,5.1c2.808,1.467,6.144,2.425,9.581,2.828
		c3.468,0.431,6.966,0.216,10.243-0.409c1.665-0.308,3.211-0.722,4.761-1.211c1.483-0.491,2.978-1.065,4.334-1.677
		c1.887-0.846,3.62-1.797,5.236-2.8c0.732,0.52,1.575,0.908,2.505,1.119c0,0,0.205,0.047,0.602,0.137
		c0.39,0.098,0.981,0.203,1.814,0.354c1.621,0.315,3.949,0.643,6.873,1.017c1.443,0.159,3.041,0.334,4.78,0.525
		c1.719,0.188,3.552,0.306,5.473,0.502c0.95,0.099,1.931,0.201,2.94,0.307c0.986,0.09,2,0.183,3.04,0.278
		c2.052,0.207,4.158,0.483,6.263,0.825c4.224,0.618,8.434,1.545,12.352,2.976c1.959,0.727,3.861,1.562,5.695,2.6
		c1.844,1.018,3.631,2.231,5.358,3.676c3.457,2.874,6.662,6.751,9.516,11.328c1.42,2.296,2.755,4.755,3.997,7.335
		c0.677,1.419,1.356,2.841,2.035,4.264l0.64,1.307l0.628,1.232c0.418,0.818,0.852,1.628,1.29,2.436
		c3.519,6.45,7.636,12.561,12.287,18.159c4.689,5.565,9.942,10.576,15.57,14.849c5.619,4.286,11.691,7.732,17.835,10.19
		c6.128,2.486,12.308,4.013,18.072,4.603c5.764,0.615,11.075,0.452,15.655-0.164c4.586-0.622,8.452-1.595,11.547-2.56
		c3.09-0.994,5.419-1.951,6.992-2.618c1.555-0.695,2.385-1.066,2.385-1.066c2.27-1.036,4.03-3.187,4.415-5.84
		C252.37,212.662,249.495,208.81,245.345,208.207z"/>
</g>
<g id="Layer_1">
</g>
</svg>
