<?xml version="1.0" encoding="utf-8"?>
<!-- Generator: Adobe Illustrator 18.0.0, SVG Export Plug-In . SVG Version: 6.00 Build 0)  -->
<!DOCTYPE svg PUBLIC "-//W3C//DTD SVG 1.1 Tiny//EN" "http://www.w3.org/Graphics/SVG/1.1/DTD/svg11-tiny.dtd">
<svg version="1.1" baseProfile="tiny" id="Layer_1" xmlns="http://www.w3.org/2000/svg" xmlns:xlink="http://www.w3.org/1999/xlink"
	 x="0px" y="0px" width="511.9px" height="511.9px" viewBox="0 0 511.9 511.9" xml:space="preserve">
<path fill="#68442A" d="M267,0c-21.5,0-51.3,4.9-52.3,5.7c-1,0.8,2,6.9,1,7.8c-2,1.9-3.9,4-5.9,6.4c-1.8,2.2,1,3.5,10.2,3.8
	c2.4,0.1-0.4,6,2.4,6c1.5,0,28.9-12.1,28.9,31.2c0,3.4,1.6,5.6,4.8,5.8c0.4-0.7,1.2-1.2,2.1-1.2c7.1,0,12.9,5.8,12.9,12.9
	c0,1.7-0.3,3.3-0.9,4.8c6.5,10.7,32.2,19.5,33.2,18.5c7.2-7.7,14.3-27.6,14.3-47.4C317.9,34.6,304.3,0,267,0z"/>
</svg>
