<?xml version="1.0" encoding="iso-8859-1"?>
<!-- Generator: Adobe Illustrator 18.1.1, SVG Export Plug-In . SVG Version: 6.00 Build 0)  -->
<!DOCTYPE svg PUBLIC "-//W3C//DTD SVG 1.1//EN" "http://www.w3.org/Graphics/SVG/1.1/DTD/svg11.dtd">
<svg version="1.1" xmlns="http://www.w3.org/2000/svg" xmlns:xlink="http://www.w3.org/1999/xlink" x="0px" y="0px"
	 viewBox="0 0 512 512" enable-background="new 0 0 512 512" xml:space="preserve">
<g id="Layer_2">
	<path fill="#E2AF8D" d="M322.973,257.089c-0.065-0.721-0.132-1.461-0.203-2.241c-0.415-4.419-0.879-9.777-1.552-15.912
		c-0.68-6.135-1.478-13.05-2.404-20.593c-0.474-3.771-0.934-7.701-1.511-11.764c-0.591-4.063-1.203-8.264-1.831-12.583
		c-1.295-8.638-2.743-17.75-4.378-27.19c-0.788-4.724-1.807-9.51-2.786-14.371c-0.504-2.429-1.099-4.865-1.668-7.319
		c-0.582-2.453-1.162-4.922-1.83-7.393c-2.607-9.903-5.549-19.939-8.922-30.174c-0.83-2.564-1.725-5.138-2.667-7.743
		c-0.895-2.614-1.871-5.259-2.972-7.953c-1.139-2.693-2.293-5.463-3.793-8.417c-0.756-1.476-1.597-2.997-2.633-4.613
		c-1.044-1.615-2.263-3.332-3.985-5.2l-0.323-0.347l-0.498-0.521l-0.083-0.079l-0.332-0.317l-0.696-0.663l-1.329-1.185
		c-0.443-0.384-0.934-0.805-1.26-1.043c-1.475-1.138-2.887-2.198-4.289-3.09c-2.794-1.83-5.458-3.321-8.045-4.703
		c-2.592-1.372-5.077-2.651-7.56-3.777c-2.469-1.158-4.885-2.277-7.282-3.276c-2.398-1.018-4.764-1.968-7.107-2.845
		c-2.358-0.845-4.678-1.625-6.982-2.364c-4.612-1.407-9.159-2.436-13.594-3.188c-4.436-0.748-8.761-1.208-12.914-1.698
		c-2.076-0.219-4.116-0.434-6.119-0.646c-2.004-0.138-3.971-0.273-5.898-0.406c-3.851-0.22-7.521-0.479-11.026-0.539
		c-3.503-0.067-6.82-0.102-9.933-0.115c-5.647,0.087-10.618,0.233-14.832,0.515l-2.208-1.825c-1.921-1.587-3.927-3.062-6.057-4.263
		c-2.11-1.237-4.309-2.237-6.519-3.051c-2.214-0.8-4.446-1.413-6.654-1.818c-1.108-0.232-2.197-0.344-3.292-0.494
		c-1.083-0.099-2.168-0.192-3.233-0.227c-2.127-0.059-4.22-0.005-6.23,0.218c-2.026,0.191-3.971,0.538-5.86,0.963
		c-3.776,0.858-7.277,2.108-10.519,3.604c-1.617,0.753-3.178,1.559-4.674,2.421c-1.493,0.864-2.94,1.766-4.314,2.723
		c-0.701,0.467-1.373,0.956-2.031,1.455c-0.664,0.494-1.327,0.986-1.952,1.508c-1.285,1.015-2.488,2.085-3.682,3.153
		c-1.155,1.097-2.308,2.186-3.379,3.325c-1.104,1.115-2.113,2.288-3.131,3.443l-1.47,1.765c-0.486,0.582-0.997,1.254-1.489,1.876
		l-0.739,0.95c-0.239,0.311-0.39,0.552-0.59,0.832l-1.129,1.623c-2.932,4.216-2.807,10.041,0.668,14.146
		c4.147,4.898,11.478,5.507,16.376,1.36l1.509-1.277c0.243-0.201,0.521-0.453,0.736-0.612l0.628-0.454l1.263-0.915l1.36-0.948
		c0.92-0.596,1.819-1.214,2.751-1.739c0.915-0.562,1.851-1.044,2.768-1.539c0.934-0.45,1.853-0.906,2.78-1.284
		c0.458-0.211,0.923-0.379,1.382-0.552c0.458-0.181,0.915-0.349,1.373-0.489c0.909-0.314,1.814-0.559,2.699-0.775
		c0.451-0.108,0.897-0.201,1.338-0.284c0.051,0.22,0.101,0.44,0.162,0.659c2.215,7.921,10.432,12.546,18.353,10.33l17.774-4.971
		c1.177-0.328,2.321-0.791,3.409-1.383c3.84,1.17,8.344,2.459,13.379,3.986c2.884,0.837,5.942,1.747,9.147,2.732
		c3.189,0.97,6.542,1.99,10.041,3.055c3.447,1.092,7.038,2.229,10.754,3.407c3.684,1.175,7.44,2.492,11.242,3.796
		c1.898,0.652,3.81,1.33,5.716,2.019c1.919,0.656,3.821,1.351,5.726,2.059c3.803,1.335,7.6,2.75,11.126,4.296
		c1.788,0.724,3.498,1.485,5.096,2.261c1.596,0.775,3.099,1.566,4.331,2.348c1.235,0.774,2.248,1.541,2.766,2.09
		c0.279,0.275,0.374,0.477,0.336,0.55c0.086,0.084-0.194-0.1-0.369-0.234c-0.186-0.141-0.363-0.294-0.529-0.457l0.541,0.636
		l0.299,0.349l0.075,0.087c0.196,0.208-1.292-1.347-0.709-0.732l-0.168-0.155c-0.884-0.867-1.141-1.176-1.266-1.177
		c-0.111,0.001-0.055,0.299,0.039,0.741c0.202,0.889,0.564,2.356,0.902,3.999c0.702,3.339,1.349,7.427,1.842,11.68
		c1.027,8.555,1.61,17.836,2.383,27.009c0.374,4.635,0.746,9.233,1.113,13.776c0.452,4.563,0.748,9.114,1.208,13.587
		c0.426,4.477,0.814,8.9,1.171,13.241c0.173,2.174,0.343,4.324,0.512,6.448c0.193,2.127,0.384,4.228,0.572,6.3
		c0.351,4.158,0.692,8.202,1.022,12.115c0.31,3.919,0.71,7.704,1.02,11.346c0.483,5.821,1.018,11.249,1.498,16.223
		c-5.131,2.005-10.297,4.66-15.358,7.918l-11.29-11.29c-0.076-0.076-0.16-0.14-0.237-0.214c10.738-22.731,6.72-50.701-12.075-69.495
		l-3.201-4.048c0.187-0.168,0.379-0.326,0.559-0.505c5.349-5.349,5.348-14.032-0.004-19.384c-4.766-4.766-12.168-5.277-17.51-1.557
		l-1.364-1.725c-25.496-25.496-66.839-25.501-92.345,0.004c-25.496,25.496-25.492,66.839,0.005,92.336l1.747,1.38
		c0,0,0,0-0.001,0.001c-3.589,5.328-3.026,12.627,1.688,17.341c5.352,5.352,14.035,5.353,19.384,0.004
		c0.13-0.13,0.243-0.271,0.367-0.406l4.041,3.193c18.278,18.278,45.227,22.576,67.598,12.927c0.233,0.264,0.458,0.533,0.71,0.786
		l11.35,11.35c-14.801,23.184-16.781,48.554-2.999,62.337l96.771,115.526l114.987-114.987L322.973,257.089z"/>
</g>
<g id="Layer_1">
</g>
</svg>
