<?xml version="1.0" encoding="iso-8859-1"?>
<!-- Generator: Adobe Illustrator 18.1.1, SVG Export Plug-In . SVG Version: 6.00 Build 0)  -->
<!DOCTYPE svg PUBLIC "-//W3C//DTD SVG 1.1//EN" "http://www.w3.org/Graphics/SVG/1.1/DTD/svg11.dtd">
<svg version="1.1" xmlns="http://www.w3.org/2000/svg" xmlns:xlink="http://www.w3.org/1999/xlink" x="0px" y="0px"
	 viewBox="0 0 512 512" enable-background="new 0 0 512 512" xml:space="preserve">
<g id="Layer_9">
	<path fill="#597B91" d="M240.064,269.17h-24.595c-4.249,0-7.694-3.445-7.694-7.694s3.445-7.694,7.694-7.694h24.595
		c4.249,0,7.694,3.445,7.694,7.694S244.313,269.17,240.064,269.17z M311.431,261.476c0-4.249-3.445-7.694-7.694-7.694h-24.595
		c-4.249,0-7.694,3.445-7.694,7.694s3.445,7.694,7.694,7.694h24.595C307.985,269.17,311.431,265.725,311.431,261.476z
		 M180.791,274.432c-18.891,0-34.206,15.314-34.206,34.206c0,18.891,15.315,34.206,34.206,34.206s34.206-15.315,34.206-34.206
		C214.996,289.747,199.682,274.432,180.791,274.432z M333.546,274.432c-18.891,0-34.206,15.314-34.206,34.206
		c0,18.891,15.315,34.206,34.206,34.206c18.891,0,34.206-15.315,34.206-34.206C367.752,289.747,352.438,274.432,333.546,274.432z
		 M92.079,216.955H65.427c-3.104,0-5.62,3.406-5.62,7.608v18.704c0,4.202,2.516,7.608,5.62,7.608h26.652
		c1.362,0,2.678-0.67,3.703-1.884l7.89-9.352c2.557-3.031,2.557-8.417,0-11.447l-7.89-9.352
		C94.756,217.625,93.441,216.955,92.079,216.955z M136.75,208.132V181.48c0-3.104-3.406-5.62-7.608-5.62h-18.704
		c-4.202,0-7.608,2.516-7.608,5.62v26.652c0,1.362,0.67,2.678,1.884,3.703l9.352,7.89c3.031,2.557,8.417,2.557,11.447,0l9.352-7.89
		C136.08,210.81,136.75,209.494,136.75,208.132z M147.501,252.418h26.652c3.104,0,5.62-3.406,5.62-7.608v-18.704
		c0-4.202-2.516-7.608-5.62-7.608h-26.652c-1.362,0-2.678,0.67-3.703,1.884l-7.891,9.352c-2.557,3.031-2.557,8.417,0,11.447
		l7.891,9.352C144.823,251.748,146.139,252.418,147.501,252.418z M102.83,261.241v26.652c0,3.104,3.406,5.62,7.608,5.62h18.704
		c4.202,0,7.608-2.516,7.608-5.62v-26.652c0-1.362-0.67-2.678-1.884-3.703l-9.352-7.89c-3.031-2.557-8.417-2.557-11.447,0
		l-9.352,7.89C103.499,258.564,102.83,259.879,102.83,261.241z"/>
</g>
<g id="Layer_1">
</g>
</svg>
