<?xml version="1.0" encoding="iso-8859-1"?>
<!-- Generator: Adobe Illustrator 18.1.1, SVG Export Plug-In . SVG Version: 6.00 Build 0)  -->
<!DOCTYPE svg PUBLIC "-//W3C//DTD SVG 1.1//EN" "http://www.w3.org/Graphics/SVG/1.1/DTD/svg11.dtd">
<svg version="1.1" xmlns="http://www.w3.org/2000/svg" xmlns:xlink="http://www.w3.org/1999/xlink" x="0px" y="0px"
	 viewBox="0 0 512 512" enable-background="new 0 0 512 512" xml:space="preserve">
<g id="Layer_2">
	<path fill="#2BA52E" d="M258.156,106.085c0,0-0.929-0.055-2.59-0.035c-0.833,0.007-1.856,0.02-3.026,0.087
		c-1.289,0.165-2.763,0.43-4.431,0.78c-1.739,0.339-3.417,0.762-5.297,1.288c-1.902,0.502-3.881,1.164-5.961,1.965
		c-4.213,1.555-8.723,3.745-13.434,6.559c-1.207,0.679-2.316,1.486-3.516,2.266c-1.183,0.793-2.398,1.61-3.562,2.507
		c-2.333,1.792-4.765,3.685-7.05,5.844c-2.385,2.146-4.714,4.499-6.968,7.038c-0.487-0.402-0.969-0.809-1.464-1.203
		c-0.841-0.651-1.695-1.286-2.558-1.91c0.031-0.883,0.061-1.766,0.087-2.658c-0.03-1.185,0.042-2.368,0.067-3.557
		c0.036-1.189,0.05-2.383,0.146-3.571c0.086-1.188,0.148-2.383,0.169-3.589c0.077-1.202,0.155-2.4,0.232-3.594
		c0.054-1.203,0.196-2.39,0.298-3.584c0.092-1.198,0.128-2.409,0.264-3.596c0.244-2.405,0.484-4.78,0.721-7.117
		c0.501-4.717,1.112-9.346,1.735-13.818c0.331-2.23,0.627-4.433,0.986-6.561c0.314-2.149,0.653-4.231,1.005-6.243
		c0.164-1.018,0.324-2.015,0.48-2.989c0.157-0.98,0.371-1.91,0.513-2.859c0.308-1.885,0.632-3.676,0.946-5.373
		c0.297-1.699,0.611-3.319,0.847-4.805c0.257-1.46,0.513-2.81,0.703-4.073c0.107-0.631,0.185-1.217,0.305-1.797
		c0.114-0.596,0.221-1.154,0.32-1.673c0.196-1.041,0.363-1.926,0.498-2.644c0.145-0.711,0.212-1.287,0.274-1.664
		c0.057-0.38,0.087-0.576,0.087-0.576l0.124-0.821c0.249-1.673-0.114-3.44-1.155-4.939c-2.168-3.122-6.457-3.894-9.578-1.726
		c0,0-0.62,0.43-1.781,1.237c-0.573,0.409-1.279,0.914-2.11,1.507c-0.414,0.297-0.86,0.617-1.335,0.958
		c-0.467,0.357-0.973,0.789-1.505,1.22c-1.071,0.886-2.257,1.866-3.548,2.934c-1.297,1.07-2.55,2.275-3.977,3.556
		c-2.807,2.576-5.938,5.577-9.089,9.094c-3.237,3.468-6.578,7.411-9.875,11.803c-1.645,2.197-3.309,4.494-4.978,6.884
		c-1.654,2.399-3.246,4.914-4.792,7.532c-0.87,1.447-1.733,2.929-2.589,4.432c-0.229-0.875-0.464-1.748-0.716-2.615
		c-0.751-3.273-1.72-6.489-2.435-9.727c-0.412-1.617-0.821-3.22-1.226-4.808c-0.356-1.601-0.771-3.189-1.15-4.767
		c-0.821-3.15-1.479-6.273-2.276-9.325c-0.732-3.055-1.434-6.053-2.171-8.972c-0.346-1.466-0.686-2.906-1.02-4.321
		c-0.349-1.42-0.733-2.821-1.035-4.194c-0.644-2.748-1.333-5.408-1.955-7.952c-0.605-2.542-1.235-4.978-1.83-7.282
		c-0.559-2.299-1.117-4.472-1.668-6.499c-0.544-2.013-1.043-3.862-1.494-5.533c-0.979-3.339-1.678-6.209-2.255-8.088
		c-0.57-1.903-0.926-2.926-0.926-2.926c-0.268-0.776-0.761-1.482-1.464-2.015c-1.891-1.432-4.584-1.06-6.016,0.831
		c0,0-0.654,0.864-1.783,2.498c-1.111,1.662-2.735,3.966-4.532,7.263c-0.871,1.626-1.93,3.461-2.912,5.449
		c-0.984,1.979-2.012,4.139-3.072,6.468c-1.033,2.331-2.043,4.835-3.096,7.497c-1.036,2.663-1.982,5.489-2.992,8.46
		c-0.956,2.973-1.839,6.096-2.742,9.349c-0.799,3.258-1.649,6.647-2.344,10.158c-0.355,1.756-0.677,3.541-0.995,5.354
		c-0.34,1.811-0.627,3.654-0.863,5.521c-0.245,1.867-0.525,3.761-0.745,5.675c-0.177,1.923-0.356,3.864-0.536,5.821
		c-0.344,3.917-0.466,7.939-0.582,12.01c-0.038,2.04-0.014,4.1,0.025,6.168c0.022,1.568,0.057,3.149,0.13,4.736
		c-1.445,0.04-2.881,0.078-4.302,0.153c-3.758,0.112-7.428,0.485-10.981,0.794c-3.556,0.375-7,0.846-10.315,1.34
		c-1.658,0.27-3.285,0.562-4.877,0.863c-1.593,0.303-3.148,0.558-4.672,0.92c-3.047,0.682-5.947,1.351-8.691,2.092
		c-2.746,0.766-5.331,1.516-7.747,2.28c-2.417,0.814-4.663,1.597-6.726,2.355c-2.07,0.787-3.997,1.6-5.698,2.287
		c-1.707,0.726-3.224,1.404-4.465,2.025c-1.261,0.648-2.333,1.199-3.203,1.646c-1.737,0.932-2.661,1.473-2.661,1.473
		c-0.754,0.441-1.381,1.119-1.753,1.983c-0.927,2.152,0.065,4.649,2.218,5.576c0,0,0.983,0.424,2.821,1.137
		c0.918,0.337,2.05,0.753,3.381,1.242c1.349,0.431,2.815,1.023,4.449,1.626c1.621,0.581,3.415,1.223,5.368,1.923
		c1.966,0.708,4.078,1.438,6.316,2.195c2.24,0.77,4.608,1.613,7.085,2.429c2.477,0.826,5.064,1.763,7.745,2.626
		c5.278,1.795,10.995,3.74,17.042,5.797c1.483,0.512,2.985,1.031,4.507,1.556c1.522,0.489,3.046,1.027,4.58,1.582
		c1.533,0.562,3.088,1.059,4.647,1.593c1.548,0.576,3.107,1.143,4.68,1.681c0.738,0.257,1.479,0.516,2.222,0.775
		c-2.252,0.627-4.476,1.282-6.637,1.99c-5.84,1.835-11.305,4.07-16.365,6.294c-1.251,0.593-2.485,1.179-3.7,1.755
		c-1.209,0.577-2.399,1.125-3.537,1.77c-2.287,1.246-4.487,2.399-6.542,3.636c-4.15,2.336-7.777,4.794-10.912,7.025
		c-1.563,1.142-3.021,2.129-4.34,3.188c-1.322,1.063-2.536,2.039-3.633,2.921c-0.536,0.438-1.043,0.853-1.52,1.244
		c-0.431,0.405-0.835,0.784-1.211,1.137c-0.751,0.709-1.389,1.312-1.907,1.8c-1.033,0.983-1.573,1.535-1.573,1.535
		c-1.058,1.082-1.781,2.513-1.97,4.132c-0.453,3.887,2.331,7.406,6.218,7.859l0.809,0.094c0,0,0.203,0.024,0.595,0.069
		c0.391,0.041,0.98,0.126,1.726,0.183c0.751,0.069,1.676,0.15,2.748,0.208c0.537,0.032,1.114,0.067,1.73,0.104
		c0.592,0.041,1.194,0.109,1.84,0.169c1.291,0.144,2.676,0.232,4.167,0.353c1.529,0.156,3.179,0.236,4.915,0.372
		c1.717,0.123,3.545,0.255,5.471,0.393c1.901,0.123,3.876,0.254,5.926,0.431c2.036,0.13,4.14,0.296,6.294,0.479
		c2.126,0.172,4.324,0.349,6.584,0.531c4.476,0.417,9.088,0.813,13.766,1.33c2.342,0.258,4.692,0.538,7.051,0.77
		c1.175,0.161,2.357,0.323,3.546,0.486c0.591,0.078,1.181,0.116,1.772,0.186l1.772,0.236c3.973,0.52,7.924,1.14,11.841,1.776
		c-5.694,3.416-10.813,7.206-15.233,11.262c-2.367,2.068-4.484,4.309-6.49,6.46c-1.005,1.073-1.934,2.204-2.836,3.306
		c-0.891,1.12-1.799,2.146-2.591,3.283c-3.251,4.422-5.862,8.702-7.811,12.747c-0.995,1.994-1.843,3.9-2.524,5.746
		c-0.703,1.821-1.284,3.451-1.787,5.15c-0.508,1.626-0.912,3.069-1.2,4.336c-0.178,1.158-0.289,2.176-0.375,3.004
		c-0.178,1.652-0.212,2.582-0.212,2.582c-0.025,0.798,0.056,1.653,0.263,2.465c1.185,4.646,5.911,7.451,10.557,6.266l0.005-0.001
		c0,0,0.902-0.23,2.48-0.753c0.792-0.259,1.763-0.583,2.858-1.001c1.063-0.244,2.214-0.534,3.447-0.851
		c1.194-0.285,2.683-0.672,4.184-1.093c0.745-0.208,1.52-0.425,2.324-0.649c0.823-0.202,1.654-0.419,2.494-0.649
		c3.355-0.922,7.107-1.829,10.982-2.809c1.92-0.457,3.92-0.932,5.99-1.424c2.062-0.435,4.094-0.962,6.21-1.382
		c4.169-0.95,8.463-1.77,12.711-2.546c4.244-0.834,8.496-1.383,12.6-1.968c4.127-0.578,8.117-0.901,11.96-1.141l1.438-0.097
		c0.481-0.041,0.958-0.089,1.422-0.071c0.935,0.001,1.87-0.047,2.808-0.106c1.822,0.065,3.687-0.095,5.46,0.016
		c1.826-0.047,3.561,0.156,5.37,0.168c0.89,0.075,1.775,0.15,2.653,0.225c0.442,0.044,0.899,0.048,1.349,0.077
		c0.442,0.061,0.882,0.121,1.32,0.182c0.875,0.14,1.8,0.167,2.699,0.285c0.874,0.181,1.773,0.319,2.688,0.439
		c0.453,0.07,0.92,0.11,1.368,0.201c0.452,0.096,0.902,0.192,1.349,0.288c0.904,0.189,1.813,0.376,2.754,0.521
		c1.606,0.436,3.264,0.815,4.919,1.232c0.373,0.305,0.751,0.6,1.145,0.868c2.325,1.673,4.572,3.196,6.733,4.554
		c2.243,1.246,4.383,2.354,6.409,3.325c0.504,0.241,1,0.479,1.488,0.712c0.489,0.231,1.005,0.4,1.491,0.595
		c0.976,0.38,1.928,0.724,2.842,1.044c1.821,0.645,3.505,1.181,5.041,1.612c1.566,0.376,2.966,0.679,4.208,0.893
		c1.22,0.24,2.281,0.395,3.139,0.512c1.711,0.24,2.655,0.292,2.655,0.292c0.765,0.038,1.589-0.024,2.372-0.206
		c1.746-0.407,3.233-1.334,4.345-2.576c1.981-1.462,3.307-3.773,3.414-6.424c0,0,0.038-0.945-0.038-2.671
		c-0.035-0.865-0.088-1.936-0.211-3.174c-0.095-1.257-0.262-2.679-0.487-4.274c-0.283-1.57-0.655-3.297-1.124-5.172
		c-0.23-0.94-0.482-1.92-0.768-2.928c-0.148-0.502-0.267-1.033-0.45-1.541c-0.186-0.508-0.375-1.024-0.567-1.549
		c-0.773-2.109-1.672-4.346-2.698-6.697c-1.146-2.28-2.448-4.663-3.891-7.136c-0.229-0.418-0.487-0.823-0.755-1.223
		c-0.256-1.687-0.475-3.374-0.757-5.014c-0.054-0.951-0.153-1.874-0.256-2.791c-0.052-0.454-0.105-0.911-0.158-1.371
		c-0.048-0.455-0.043-0.923-0.069-1.381c-0.032-0.922-0.084-1.83-0.18-2.718c-0.032-0.906,0.03-1.829-0.027-2.714
		c-0.018-0.442-0.037-0.886-0.055-1.332c0.014-0.451,0.054-0.906,0.052-1.351c0.01-0.881,0.02-1.769,0.029-2.662
		c0.161-1.802,0.123-3.549,0.345-5.362c0.058-1.776,0.396-3.617,0.505-5.437c0.148-0.928,0.285-1.854,0.373-2.785
		c0.027-0.463,0.12-0.933,0.207-1.408l0.234-1.422c0.606-3.802,1.307-7.744,2.277-11.796c0.974-4.03,1.926-8.21,3.161-12.355
		c1.178-4.154,2.404-8.35,3.748-12.41c0.619-2.066,1.338-4.039,1.968-6.05c0.688-2.014,1.352-3.959,1.989-5.827
		c1.345-3.764,2.606-7.412,3.844-10.663c0.309-0.815,0.605-1.622,0.884-2.421c0.3-0.779,0.59-1.53,0.868-2.251
		c0.562-1.454,1.089-2.899,1.487-4.061c0.433-1.197,0.832-2.315,1.176-3.35c0.521-1.05,0.936-1.986,1.269-2.75
		c0.671-1.521,0.986-2.396,0.986-2.396l0.018-0.043c0.266-0.752,0.432-1.554,0.481-2.391
		C266.594,110.474,262.942,106.366,258.156,106.085z"/>
</g>
<g id="Layer_1">
</g>
</svg>
