<?xml version="1.0" encoding="iso-8859-1"?>
<!-- Generator: Adobe Illustrator 18.1.1, SVG Export Plug-In . SVG Version: 6.00 Build 0)  -->
<!DOCTYPE svg PUBLIC "-//W3C//DTD SVG 1.1//EN" "http://www.w3.org/Graphics/SVG/1.1/DTD/svg11.dtd">
<svg version="1.1" xmlns="http://www.w3.org/2000/svg" xmlns:xlink="http://www.w3.org/1999/xlink" x="0px" y="0px"
	 viewBox="0 0 512 512" enable-background="new 0 0 512 512" xml:space="preserve">
<g id="Layer_3">
	<path fill="#FFD45F" d="M414.663,118.482c-18.056,10.997-59.638,28.947-138.544,28.947c-3.16,0-6.378-0.029-9.659-0.088
		c-57.915-1.044-110.913-11.577-141.77-28.173c-12.519-6.734-17.209-22.341-10.475-34.86c0.937-1.742,2.051-3.327,3.3-4.757
		c3.351-4.418,8.143-7.795,13.92-9.321c42.987-11.351,87.403-17.227,132.013-17.464c46.337-0.243,94.393,5.587,142.777,17.339
		c6.014,1.461,11.015,4.925,14.47,9.509c0.934,1.076,1.795,2.24,2.561,3.497C430.651,95.252,426.804,111.088,414.663,118.482z"/>
</g>
<g id="Layer_1">
</g>
</svg>
