<?xml version="1.0" encoding="iso-8859-1"?>
<!-- Generator: Adobe Illustrator 18.1.1, SVG Export Plug-In . SVG Version: 6.00 Build 0)  -->
<!DOCTYPE svg PUBLIC "-//W3C//DTD SVG 1.1//EN" "http://www.w3.org/Graphics/SVG/1.1/DTD/svg11.dtd">
<svg version="1.1" xmlns="http://www.w3.org/2000/svg" xmlns:xlink="http://www.w3.org/1999/xlink" x="0px" y="0px"
	 viewBox="0 0 512 512" enable-background="new 0 0 512 512" xml:space="preserve">
<g id="Layer_3">
	<path fill="#F0F3CD" d="M255.569,87.829c0,0,1.622,0.385,4.615,1.2c0.749,0.211,1.581,0.418,2.504,0.699
		c0.927,0.321,1.939,0.672,3.032,1.05c1.104,0.391,2.291,0.811,3.557,1.259c1.22,0.511,2.517,1.054,3.887,1.628
		c5.511,2.291,12.012,5.606,19.088,10.145c7.065,4.541,14.719,10.314,22.286,17.536c7.575,7.207,15.09,15.825,21.991,25.753
		c1.794,2.444,3.362,5.07,5.055,7.682c0.855,1.303,1.598,2.674,2.41,4.025c0.393,0.682,0.787,1.367,1.182,2.053l0.593,1.032
		l0.297,0.518c0.304,0.655,0.121,0.251,0.206,0.428l0.064,0.121l0.129,0.242c0.688,1.29,1.38,2.587,2.076,3.891
		c0.698,1.329,1.364,2.529,2.093,4.141c0.714,1.528,1.43,3.064,2.15,4.606c0.35,0.77,0.739,1.557,1.058,2.32l0.945,2.281
		c5.136,12.167,9.231,25.272,11.972,38.881c2.695,13.615,4.103,27.71,4.14,41.815c0.037,1.763-0.066,3.526-0.094,5.288
		c-0.058,1.762-0.068,3.525-0.171,5.283l-0.339,5.271l-0.189,2.631l-0.276,2.623c-0.186,1.747-0.372,3.492-0.557,5.235
		c-0.195,1.742-0.5,3.47-0.747,5.2l-0.392,2.591l-0.197,1.293l-0.105,0.659l-0.056,0.294l-0.111,0.589
		c-0.302,1.569-0.603,3.134-0.904,4.697l-0.232,1.17c-0.073,0.379-0.154,0.779-0.262,1.238l-0.6,2.637
		c-0.405,1.752-0.809,3.499-1.213,5.243c-0.459,1.658-0.916,3.312-1.373,4.961c-0.454,1.648-0.904,3.291-1.436,4.909
		c-1.021,3.245-2.059,6.457-3.245,9.599c-0.581,1.574-1.124,3.151-1.754,4.694c-0.637,1.538-1.272,3.071-1.904,4.597
		c-5.113,12.175-11.358,23.384-18.247,33.308c-6.876,9.935-14.391,18.582-21.982,25.798c-0.948,0.899-1.887,1.789-2.815,2.669
		c-0.97,0.838-1.93,1.666-2.878,2.485c-0.949,0.81-1.887,1.612-2.813,2.403l-0.346,0.295c0.042-0.048-0.154,0.149-0.164,0.152
		l-0.084,0.066l-0.167,0.132l-0.671,0.521c-0.448,0.344-0.893,0.686-1.335,1.026c-3.847,2.963-7.452,5.557-11.021,7.802
		c-7.089,4.524-13.612,7.802-19.105,10.121c-1.362,0.598-2.687,1.097-3.908,1.594c-1.234,0.477-2.415,0.874-3.494,1.265
		c-2.178,0.75-4.044,1.327-5.572,1.748c-1.509,0.456-2.705,0.711-3.491,0.915c-0.793,0.187-1.203,0.284-1.203,0.284
		c-1.01,0.238-2.023-0.387-2.261-1.398c-0.167-0.709,0.091-1.418,0.608-1.861l0.04-0.034c0,0,1.243-1.059,3.574-3.045
		c1.158-0.984,2.553-2.234,4.184-3.674c1.606-1.484,3.447-3.158,5.434-5.094c3.972-3.872,8.604-8.666,13.443-14.446
		c2.398-2.899,4.957-5.998,7.342-9.303c0.331-0.449,0.664-0.901,1-1.356l0.508-0.681l0.128-0.17l0.064-0.085
		c0.04-0.046-0.109,0.098-0.019-0.002l0.228-0.33c0.606-0.877,1.22-1.765,1.84-2.663c0.621-0.89,1.248-1.79,1.883-2.701
		c0.598-0.937,1.203-1.884,1.814-2.841c4.899-7.614,9.623-16.139,13.891-25.432c4.279-9.285,8.104-19.342,11.202-29.98
		c0.385-1.329,0.772-2.663,1.16-4.002c0.373-1.343,0.695-2.71,1.06-4.064c0.338-1.364,0.746-2.708,1.033-4.096
		c0.311-1.379,0.622-2.762,0.935-4.149c0.344-1.377,0.608-2.78,0.878-4.184c0.275-1.401,0.55-2.807,0.826-4.215
		c0.225-1.347,0.451-2.697,0.677-4.05l0.346-2.026c0.06-0.317,0.114-0.7,0.167-1.106l0.161-1.182
		c0.223-1.576,0.447-3.155,0.671-4.736l0.086-0.593l0.043-0.297c0.056-0.357-0.052,0.319-0.036,0.201l0.014-0.136l0.114-1.085
		l0.23-2.171c0.147-1.449,0.328-2.895,0.452-4.35c0.116-1.456,0.232-2.913,0.348-4.372l0.178-2.188l0.095-2.197l0.224-4.395
		c0.087-2.934,0.142-5.873,0.155-8.81c-0.013-11.754-0.843-23.508-2.462-34.981c-1.676-11.462-4.133-22.629-7.237-33.258
		l-0.573-1.994l-0.594-1.883c-0.393-1.248-0.785-2.491-1.174-3.727c-0.326-1.173-0.928-2.653-1.414-4.023
		c-0.503-1.389-1.003-2.772-1.501-4.146l-0.093-0.258l-0.047-0.129c0.047,0.095-0.171-0.394,0.093,0.18l-0.185-0.462l-0.369-0.922
		c-0.245-0.615-0.49-1.229-0.734-1.84c-0.492-1.222-0.918-2.473-1.455-3.66c-0.519-1.199-1.034-2.391-1.547-3.575
		c-0.493-1.198-1.024-2.367-1.577-3.516c-4.283-9.277-9.031-17.812-13.942-25.44c-4.913-7.627-9.962-14.372-14.821-20.123
		c-1.201-1.454-2.371-2.871-3.581-4.149c-1.204-1.286-2.318-2.605-3.448-3.807c-2.293-2.355-4.397-4.59-6.412-6.482
		c-1.002-0.966-1.951-1.881-2.843-2.741c-0.908-0.824-1.759-1.597-2.551-2.316c-0.803-0.731-1.545-1.408-2.226-2.027
		c-0.705-0.623-1.39-1.168-1.979-1.667c-2.381-1.988-3.624-3.099-3.624-3.099c-0.779-0.696-0.847-1.891-0.151-2.67
		C254.2,87.874,254.917,87.676,255.569,87.829z M219.573,86.336c-0.886,0.651-1.076,1.897-0.425,2.783c0,0,0.222,0.303,0.653,0.889
		c0.218,0.29,0.488,0.651,0.809,1.079c0.329,0.431,0.702,0.921,1.046,1.467c0.357,0.54,0.756,1.142,1.195,1.805
		c0.427,0.686,0.894,1.435,1.398,2.244c0.971,1.637,2.037,3.524,3.132,5.667c2.188,4.288,4.428,9.653,6.543,15.933
		c1.037,3.154,2.056,6.542,3.041,10.141c0.488,1.801,0.969,3.661,1.446,5.566c0.463,1.945,0.936,3.935,1.419,5.968
		c0.464,2.099,0.873,3.951,1.315,6.116c0.435,2.103,0.866,4.248,1.283,6.431c0.835,4.366,1.609,8.895,2.341,13.557
		c1.455,9.328,2.697,19.206,3.713,29.477l0.196,1.928c-0.066-0.4-0.012-0.038-0.023-0.094l0.011,0.127l0.022,0.255l0.045,0.51
		l0.09,1.022c0.125,1.363,0.25,2.732,0.376,4.105c0.311,2.831,0.432,5.299,0.628,7.89c0.097,1.295,0.221,2.554,0.299,3.885
		c0.078,1.331,0.157,2.667,0.235,4.005c0.089,1.336,0.178,2.676,0.267,4.018c0.063,1.345,0.126,2.693,0.189,4.044
		c0.546,10.798,0.817,21.774,0.81,32.753c0.028,21.958-1.103,43.923-3.089,64.51c-0.219,2.58-0.542,5.118-0.782,7.654l-0.195,1.895
		l-0.049,0.472l-0.024,0.236c-0.008,0.06,0.028-0.11,0.006,0.021l-0.015,0.123l-0.123,0.985c-0.148,1.269-0.294,2.531-0.44,3.786
		c-0.134,1.179-0.283,2.375-0.451,3.593c-0.159,1.208-0.316,2.41-0.473,3.604c-0.321,2.388-0.686,4.733-1.031,7.053
		c-1.438,9.266-3.144,17.961-5.061,25.941c-0.471,1.998-0.973,3.946-1.471,5.85c-0.125,0.477-0.249,0.951-0.372,1.422l-0.046,0.177
		l-0.023,0.088c-0.015,0.046,0.051-0.087,0.01,0.013l-0.108,0.372l-0.215,0.741c-0.272,0.957-0.541,1.903-0.807,2.837
		c-0.991,3.54-2.078,7.022-3.116,10.182c-1.038,3.189-2.186,6.08-3.225,8.798c-1.089,2.675-2.187,5.107-3.235,7.286
		c-1.055,2.179-2.106,4.068-3.035,5.741c-0.976,1.62-1.823,3.033-2.57,4.133c-0.724,1.131-1.338,1.952-1.74,2.53
		c-0.404,0.581-0.612,0.88-0.612,0.88l-0.08,0.115c-0.374,0.541-0.469,1.258-0.189,1.906c0.432,0.999,1.593,1.459,2.592,1.027
		c0,0,0.355-0.154,1.042-0.451c0.674-0.318,1.739-0.73,3.007-1.441c2.603-1.339,6.343-3.579,10.595-7.104
		c2.17-1.728,4.378-3.826,6.74-6.179c2.348-2.356,4.677-5.074,7.102-8.025c0.593-0.746,1.195-1.504,1.806-2.274
		c0.586-0.784,1.181-1.579,1.784-2.387c1.197-1.622,2.372-3.297,3.583-5.113c0.572-0.857,1.151-1.725,1.737-2.604l0.424-0.644
		l0.213-0.324c-0.014,0.043,0.079-0.148,0.089-0.161l0.054-0.087l0.109-0.175c0.291-0.467,0.583-0.937,0.878-1.409
		c1.195-1.886,2.326-3.861,3.478-5.885c4.579-8.109,8.852-17.269,12.563-27.206c0.942-2.48,1.824-5.016,2.683-7.591
		c0.878-2.595,1.679-5.14,2.48-7.905c0.379-1.301,0.76-2.608,1.143-3.923l0.267-0.956l0.282-1.099l0.522-2.025
		c0.68-2.71,1.448-5.44,2.035-8.222c2.572-11.098,4.619-22.715,5.928-34.605c1.329-11.888,2-24.04,2-36.195
		c-0.02-12.155-0.729-24.311-2.092-36.205c-0.174-1.486-0.349-2.969-0.522-4.449c-0.208-1.476-0.416-2.949-0.623-4.419
		c-0.22-1.467-0.439-2.93-0.657-4.389c-0.219-1.459-0.499-2.97-0.746-4.444c-0.531-2.942-1.057-5.984-1.633-8.588
		c-0.29-1.348-0.579-2.692-0.867-4.03l-0.22-1.002l-0.11-0.5l-0.055-0.25l-0.027-0.125c-0.025-0.14,0.017,0.138-0.063-0.346
		l-0.488-2.089c-2.621-11.109-5.836-21.74-9.536-31.614c-1.842-4.939-3.813-9.686-5.885-14.209
		c-1.045-2.259-2.068-4.476-3.165-6.618c-1.047-2.095-2.216-4.382-3.3-6.334c-0.539-0.953-1.072-1.897-1.6-2.83
		c0.019,0.061-0.082-0.181-0.091-0.191l-0.053-0.092l-0.107-0.185l-0.213-0.369l-0.429-0.731c-0.286-0.485-0.57-0.967-0.853-1.446
		c-1.156-1.912-2.288-3.772-3.477-5.552c-2.353-3.568-4.711-6.883-7.145-9.865c-4.831-5.985-9.629-10.76-13.994-14.187
		c-2.164-1.729-4.182-3.15-6-4.281c-0.921-0.559-1.742-1.08-2.534-1.53c-0.817-0.431-1.56-0.823-2.225-1.174
		c-0.663-0.363-1.227-0.618-1.721-0.812c-0.494-0.207-0.909-0.382-1.243-0.523c-0.674-0.275-1.021-0.417-1.021-0.417
		C220.885,85.847,220.15,85.912,219.573,86.336z M141.634,431.974c0.696-0.779,0.628-1.975-0.151-2.67c0,0-1.243-1.111-3.624-3.099
		c-0.59-0.499-1.274-1.044-1.979-1.667c-0.68-0.62-1.423-1.296-2.226-2.027c-0.792-0.719-1.643-1.491-2.551-2.316
		c-0.893-0.86-1.841-1.775-2.843-2.741c-2.015-1.892-4.119-4.127-6.412-6.482c-1.13-1.201-2.244-2.52-3.447-3.807
		c-1.21-1.279-2.38-2.695-3.581-4.149c-4.858-5.751-9.907-12.496-14.821-20.123c-4.911-7.628-9.659-16.163-13.942-25.44
		c-0.552-1.149-1.084-2.318-1.577-3.516c-0.512-1.184-1.028-2.376-1.547-3.575c-0.537-1.186-0.964-2.438-1.455-3.66
		c-0.244-0.612-0.488-1.225-0.734-1.84l-0.369-0.922l-0.185-0.462c0.264,0.573,0.046,0.085,0.093,0.18l-0.047-0.129l-0.093-0.258
		c-0.498-1.375-0.998-2.757-1.501-4.146c-0.487-1.37-1.088-2.85-1.414-4.023c-0.39-1.237-0.781-2.479-1.174-3.727l-0.594-1.883
		l-0.573-1.994c-3.104-10.629-5.561-21.796-7.237-33.258c-1.618-11.473-2.448-23.227-2.462-34.981
		c0.013-2.937,0.068-5.877,0.155-8.81l0.224-4.394l0.095-2.197l0.178-2.188c0.116-1.459,0.232-2.916,0.348-4.372
		c0.124-1.455,0.305-2.901,0.452-4.35l0.23-2.171l0.114-1.085l0.014-0.136c0.016-0.118-0.093,0.558-0.036,0.201l0.043-0.297
		l0.086-0.593c0.224-1.582,0.447-3.16,0.671-4.736l0.161-1.182c0.053-0.405,0.107-0.788,0.167-1.106l0.346-2.026
		c0.226-1.353,0.452-2.703,0.677-4.05c0.276-1.409,0.552-2.814,0.826-4.215c0.27-1.404,0.534-2.807,0.878-4.184
		c0.313-1.387,0.624-2.77,0.935-4.149c0.287-1.388,0.695-2.732,1.033-4.096c0.364-1.355,0.687-2.721,1.06-4.064
		c0.388-1.339,0.775-2.674,1.16-4.002c3.098-10.638,6.923-20.695,11.202-29.98c4.269-9.292,8.992-17.818,13.891-25.432
		c0.611-0.957,1.216-1.904,1.814-2.841c0.635-0.91,1.263-1.811,1.883-2.701c0.621-0.898,1.234-1.786,1.84-2.663l0.228-0.33
		c0.09-0.1-0.059,0.044-0.019-0.002l0.064-0.085l0.128-0.17l0.508-0.681c0.335-0.455,0.669-0.907,1-1.356
		c2.385-3.305,4.944-6.404,7.342-9.303c4.838-5.78,9.471-10.574,13.443-14.446c1.987-1.937,3.828-3.611,5.434-5.094
		c1.631-1.44,3.026-2.691,4.184-3.674c2.331-1.986,3.574-3.045,3.574-3.045l0.04-0.034c0.518-0.443,0.776-1.153,0.608-1.861
		c-0.238-1.01-1.251-1.636-2.261-1.398c0,0-0.409,0.097-1.203,0.284c-0.787,0.204-1.982,0.458-3.491,0.915
		c-1.528,0.421-3.393,0.998-5.572,1.748c-1.079,0.392-2.26,0.788-3.494,1.265c-1.221,0.497-2.546,0.996-3.908,1.594
		c-5.492,2.319-12.016,5.597-19.105,10.121c-3.569,2.245-7.174,4.839-11.021,7.802c-0.442,0.34-0.887,0.682-1.335,1.026
		l-0.671,0.521l-0.167,0.132l-0.084,0.066c-0.01,0.003-0.206,0.2-0.164,0.152l-0.346,0.295c-0.926,0.791-1.864,1.593-2.813,2.403
		c-0.949,0.819-1.908,1.647-2.878,2.485c-0.928,0.88-1.867,1.77-2.815,2.669c-7.591,7.216-15.106,15.863-21.982,25.798
		c-6.889,9.924-13.134,21.132-18.247,33.308c-0.632,1.526-1.267,3.058-1.904,4.597c-0.629,1.542-1.172,3.12-1.754,4.694
		c-1.186,3.142-2.225,6.354-3.245,9.599c-0.532,1.617-0.982,3.26-1.436,4.909c-0.456,1.649-0.914,3.303-1.373,4.961
		c-0.403,1.743-0.808,3.491-1.213,5.243l-0.6,2.637c-0.108,0.459-0.189,0.858-0.262,1.238l-0.232,1.17
		c-0.301,1.563-0.602,3.129-0.904,4.697l-0.111,0.589l-0.056,0.294l-0.105,0.659l-0.197,1.293l-0.392,2.591
		c-0.247,1.73-0.552,3.458-0.747,5.2c-0.186,1.743-0.371,3.488-0.557,5.235l-0.276,2.623l-0.189,2.631l-0.339,5.271
		c-0.103,1.759-0.112,3.522-0.171,5.283c-0.029,1.762-0.131,3.525-0.094,5.288c0.037,14.105,1.445,28.2,4.14,41.815
		c2.741,13.609,6.836,26.714,11.972,38.881l0.945,2.281c0.319,0.764,0.708,1.551,1.058,2.32c0.72,1.542,1.437,3.078,2.15,4.606
		c0.729,1.612,1.395,2.812,2.093,4.141c0.695,1.304,1.387,2.601,2.076,3.891l0.129,0.242l0.064,0.121
		c0.085,0.177-0.098-0.226,0.206,0.428l0.297,0.518l0.593,1.032c0.395,0.686,0.789,1.37,1.182,2.053
		c0.812,1.351,1.555,2.722,2.41,4.025c1.693,2.612,3.261,5.238,5.055,7.682c6.901,9.928,14.416,18.546,21.991,25.753
		c7.567,7.222,15.221,12.995,22.286,17.536c7.076,4.539,13.576,7.854,19.087,10.145c1.37,0.574,2.667,1.117,3.887,1.628
		c1.266,0.448,2.453,0.868,3.557,1.259c1.094,0.379,2.105,0.729,3.032,1.05c0.923,0.28,1.755,0.488,2.504,0.699
		c2.992,0.816,4.615,1.2,4.615,1.2C140.44,432.707,141.156,432.509,141.634,431.974z M175.784,434.047
		c0.886-0.651,1.076-1.897,0.425-2.783c0,0-0.222-0.303-0.653-0.889c-0.218-0.29-0.488-0.651-0.809-1.079
		c-0.329-0.431-0.702-0.921-1.046-1.467c-0.357-0.54-0.756-1.142-1.195-1.805c-0.427-0.686-0.894-1.435-1.398-2.244
		c-0.971-1.637-2.037-3.524-3.132-5.667c-2.188-4.288-4.428-9.653-6.543-15.933c-1.037-3.154-2.056-6.542-3.041-10.141
		c-0.488-1.801-0.969-3.661-1.446-5.566c-0.463-1.945-0.936-3.935-1.419-5.968c-0.464-2.099-0.873-3.951-1.315-6.116
		c-0.435-2.103-0.866-4.248-1.283-6.431c-0.835-4.366-1.609-8.895-2.341-13.557c-1.455-9.328-2.697-19.206-3.713-29.477
		l-0.196-1.928c0.066,0.4,0.012,0.038,0.023,0.094l-0.011-0.127l-0.022-0.255l-0.045-0.51l-0.09-1.022
		c-0.125-1.363-0.25-2.732-0.376-4.105c-0.311-2.831-0.432-5.299-0.628-7.89c-0.097-1.295-0.221-2.554-0.299-3.885
		c-0.078-1.331-0.157-2.667-0.235-4.005c-0.089-1.336-0.178-2.676-0.267-4.018c-0.063-1.345-0.126-2.693-0.189-4.044
		c-0.546-10.798-0.817-21.774-0.81-32.753c-0.028-21.958,1.103-43.923,3.089-64.51c0.219-2.58,0.542-5.118,0.782-7.654l0.195-1.895
		l0.049-0.472l0.024-0.236c0.008-0.06-0.028,0.11-0.006-0.021l0.015-0.123l0.123-0.985c0.148-1.269,0.294-2.531,0.44-3.786
		c0.134-1.179,0.283-2.375,0.451-3.593c0.159-1.208,0.316-2.41,0.473-3.604c0.321-2.388,0.686-4.733,1.031-7.053
		c1.438-9.266,3.144-17.961,5.061-25.941c0.471-1.998,0.973-3.946,1.471-5.85c0.125-0.477,0.249-0.951,0.372-1.422l0.046-0.177
		l0.023-0.088c0.015-0.046-0.051,0.087-0.01-0.013l0.108-0.372l0.215-0.741c0.272-0.957,0.541-1.903,0.807-2.837
		c0.991-3.54,2.078-7.022,3.116-10.182c1.038-3.189,2.186-6.08,3.225-8.798c1.089-2.675,2.187-5.107,3.235-7.286
		c1.055-2.179,2.106-4.068,3.035-5.741c0.976-1.62,1.823-3.033,2.57-4.133c0.724-1.131,1.338-1.952,1.74-2.53
		c0.404-0.581,0.612-0.88,0.612-0.88l0.08-0.115c0.374-0.541,0.469-1.258,0.189-1.906c-0.432-0.999-1.593-1.459-2.592-1.027
		c0,0-0.355,0.154-1.042,0.451c-0.674,0.318-1.739,0.73-3.007,1.441c-2.603,1.339-6.343,3.579-10.595,7.104
		c-2.17,1.728-4.378,3.826-6.74,6.179c-2.348,2.356-4.677,5.074-7.102,8.025c-0.593,0.746-1.195,1.504-1.806,2.274
		c-0.586,0.784-1.181,1.579-1.784,2.387c-1.197,1.622-2.372,3.297-3.583,5.113c-0.572,0.857-1.151,1.725-1.737,2.604l-0.424,0.644
		l-0.213,0.324c0.014-0.043-0.079,0.148-0.089,0.161l-0.054,0.087l-0.109,0.175c-0.291,0.467-0.583,0.937-0.878,1.409
		c-1.195,1.886-2.326,3.861-3.478,5.885c-4.579,8.109-8.852,17.269-12.563,27.206c-0.942,2.48-1.824,5.016-2.683,7.591
		c-0.878,2.595-1.679,5.14-2.48,7.905c-0.379,1.301-0.76,2.608-1.143,3.923l-0.267,0.956l-0.282,1.099l-0.522,2.025
		c-0.68,2.71-1.448,5.44-2.035,8.222c-2.572,11.098-4.619,22.715-5.928,34.605c-1.329,11.888-2,24.04-2,36.195
		c0.02,12.155,0.729,24.311,2.092,36.205c0.174,1.486,0.349,2.969,0.522,4.449c0.208,1.476,0.416,2.949,0.623,4.419
		c0.22,1.467,0.439,2.93,0.657,4.389c0.219,1.459,0.499,2.97,0.746,4.444c0.531,2.942,1.057,5.984,1.633,8.588
		c0.29,1.348,0.579,2.692,0.867,4.03l0.22,1.002l0.11,0.5l0.055,0.25l0.027,0.125c0.025,0.14-0.017-0.138,0.063,0.346l0.488,2.089
		c2.621,11.109,5.836,21.74,9.536,31.614c1.842,4.939,3.813,9.686,5.885,14.209c1.045,2.259,2.068,4.476,3.165,6.618
		c1.047,2.095,2.216,4.382,3.3,6.334c0.539,0.953,1.072,1.897,1.6,2.83c-0.019-0.061,0.082,0.181,0.091,0.191l0.053,0.093
		l0.107,0.185l0.213,0.369l0.429,0.731c0.286,0.485,0.57,0.967,0.853,1.446c1.156,1.912,2.288,3.772,3.477,5.552
		c2.352,3.568,4.711,6.883,7.145,9.865c4.831,5.985,9.629,10.76,13.994,14.187c2.164,1.729,4.182,3.15,6,4.281
		c0.921,0.559,1.742,1.08,2.534,1.53c0.817,0.431,1.56,0.823,2.225,1.174c0.663,0.363,1.227,0.618,1.721,0.812
		c0.494,0.207,0.909,0.382,1.243,0.523c0.674,0.275,1.021,0.417,1.021,0.417C174.472,434.536,175.206,434.471,175.784,434.047z
		 M198.405,85.637c-0.985-0.316-2.039,0.226-2.355,1.211c0,0-0.436,1.36-1.132,3.909c-0.717,2.549-1.668,6.288-2.773,11.047
		c-0.578,2.379-1.101,5.014-1.736,7.882c-0.602,2.868-1.184,5.97-1.844,9.284c-1.245,6.628-2.493,14.106-3.671,22.264
		c-2.362,16.316-4.388,35.351-5.676,55.746c-1.303,20.395-1.815,42.149-1.62,63.904c0.106,10.877,0.35,21.755,0.749,32.462
		c0.422,10.707,0.993,21.245,1.706,31.442c1.412,20.395,3.442,39.43,5.705,55.746c1.135,8.158,2.289,15.636,3.478,22.264
		c0.574,3.314,1.123,6.416,1.697,9.284c0.277,1.434,0.543,2.81,0.797,4.124c0.276,1.315,0.539,2.568,0.789,3.758
		c0.985,4.759,1.885,8.498,2.512,11.047c0.631,2.549,1.018,3.909,1.018,3.909c0.171,0.595,0.637,1.094,1.276,1.276
		c0.985,0.28,2.01-0.291,2.29-1.276c0,0,0.387-1.36,1.018-3.909c0.627-2.549,1.527-6.288,2.512-11.047
		c0.25-1.19,0.513-2.443,0.789-3.758c0.254-1.315,0.52-2.69,0.797-4.124c0.574-2.868,1.124-5.97,1.697-9.284
		c1.189-6.628,2.343-14.106,3.478-22.264c2.263-16.316,4.293-35.351,5.705-55.746c0.713-10.197,1.284-20.735,1.706-31.442
		c0.4-10.707,0.644-21.585,0.749-32.462c0.195-21.755-0.318-43.509-1.62-63.904c-1.288-20.395-3.314-39.43-5.676-55.746
		c-1.178-8.158-2.426-15.636-3.671-22.264c-0.66-3.314-1.241-6.416-1.844-9.284c-0.634-2.868-1.158-5.502-1.736-7.882
		c-1.105-4.759-2.056-8.498-2.773-11.047c-0.696-2.549-1.132-3.909-1.132-3.909C199.436,86.298,198.999,85.828,198.405,85.637z"/>
</g>
<g id="Layer_1">
</g>
</svg>
