<?xml version="1.0" encoding="iso-8859-1"?>
<!-- Generator: Adobe Illustrator 18.1.1, SVG Export Plug-In . SVG Version: 6.00 Build 0)  -->
<!DOCTYPE svg PUBLIC "-//W3C//DTD SVG 1.1//EN" "http://www.w3.org/Graphics/SVG/1.1/DTD/svg11.dtd">
<svg version="1.1" xmlns="http://www.w3.org/2000/svg" xmlns:xlink="http://www.w3.org/1999/xlink" x="0px" y="0px"
	 viewBox="0 0 512 512" enable-background="new 0 0 512 512" xml:space="preserve">
<g id="Layer_4">
	<path fill="#FFE1AB" d="M141.802,269.559L123.5,287.861c-2.658,2.658-6.968,2.658-9.626,0l-1.637-1.637
		c-2.658-2.658-2.658-6.968,0-9.626l18.302-18.302c2.658-2.658,6.968-2.658,9.626,0l1.637,1.637
		C144.46,262.592,144.46,266.901,141.802,269.559z M186.201,215.535l-1.637-1.637c-2.658-2.658-6.968-2.658-9.626,0L156.637,232.2
		c-2.658,2.658-2.658,6.968,0,9.626l1.637,1.637c2.658,2.658,6.968,2.658,9.626,0l18.302-18.302
		C188.859,222.502,188.859,218.193,186.201,215.535z M230.6,171.136l-1.637-1.637c-2.658-2.658-6.968-2.658-9.626,0l-18.302,18.302
		c-2.658,2.658-2.658,6.968,0,9.626l1.637,1.637c2.658,2.658,6.968,2.658,9.626,0l18.302-18.302
		C233.258,178.103,233.258,173.794,230.6,171.136z"/>
</g>
<g id="Layer_1">
</g>
</svg>
