<?xml version="1.0" encoding="iso-8859-1"?>
<!-- Generator: Adobe Illustrator 18.1.1, SVG Export Plug-In . SVG Version: 6.00 Build 0)  -->
<!DOCTYPE svg PUBLIC "-//W3C//DTD SVG 1.1//EN" "http://www.w3.org/Graphics/SVG/1.1/DTD/svg11.dtd">
<svg version="1.1" xmlns="http://www.w3.org/2000/svg" xmlns:xlink="http://www.w3.org/1999/xlink" x="0px" y="0px"
	 viewBox="0 0 512 512" enable-background="new 0 0 512 512" xml:space="preserve">
<g id="Layer_2">
	<path fill="#2B3B47" d="M502.26,469.727c-12.14,32.202-48.087,48.466-80.29,36.326c-17.365-6.547-30.185-20.254-36.326-36.326
		c0,0-1.307-3.466-3.991-9.132c-0.683-1.405-1.439-2.96-2.262-4.654c-0.858-1.658-1.76-3.478-2.772-5.374
		c-2.02-3.796-4.345-8.032-7.003-12.533c-5.268-9.048-11.81-19.209-19.242-29.671c-4.532-6.396-9.419-12.885-14.508-19.342
		c-34.406,23.97-76.226,38.037-121.337,38.037C97.152,427.057,2,331.905,2,214.529S97.152,2,214.529,2
		s212.529,95.152,212.529,212.529c0,47.023-15.283,90.471-41.137,125.672c6.228,4.893,12.482,9.596,18.649,13.966
		c10.463,7.432,20.623,13.975,29.671,19.243c4.501,2.657,8.737,4.983,12.533,7.003c1.896,1.012,3.716,1.914,5.374,2.772
		c1.693,0.823,3.249,1.579,4.654,2.262c5.667,2.684,9.132,3.991,9.132,3.991C498.136,401.577,514.4,437.524,502.26,469.727z"/>
</g>
<g id="Layer_3">
	<path fill="#597B91" d="M396.456,214.529c0,100.476-81.452,181.927-181.927,181.927S32.602,315.004,32.602,214.529
		S114.053,32.602,214.529,32.602S396.456,114.053,396.456,214.529z"/>
</g>
<g id="Layer_4">
	<path fill="#F9F9F7" d="M288.302,192.93c-9.137,15.943-13.199,34.254-12.642,52.622c0.033,1.093,0.05,2.191,0.05,3.292
		c0,59.504-48.653,107.645-108.348,106.812c-57.474-0.802-104.405-47.666-105.284-105.139
		c-0.567-37.088,17.771-69.923,46.001-89.502c14.96-10.376,27.1-24.377,34.343-41.081c12.691-29.27,42.015-49.65,76.054-49.203
		c44.174,0.581,80.227,36.832,80.581,81.008C299.176,166.74,295.248,180.809,288.302,192.93z"/>
</g>
<g id="Layer_5">
	<path fill="#FFA41F" d="M223.509,248.844c0,30.167-24.455,54.622-54.622,54.622s-54.622-24.455-54.622-54.622
		c0-30.167,24.455-54.622,54.622-54.622S223.509,218.677,223.509,248.844z"/>
</g>
</svg>
