<svg xmlns="http://www.w3.org/2000/svg" viewBox="0 0 512 512" enable-background="new 0 0 512 512"><path fill="#FF473E" d="M290 364.802H.14v-69.605H290v69.605zM103.615 23.495c-12.304 0-21.997 5.006-29.174 12.976-1.4 1.557-1.24 3.96.398 5.267l7.258 5.79c1.47 1.175 3.6 1.01 4.882-.37 4.463-4.798 8.7-7.023 14.455-7.023 7.23 0 11.73 4.5 11.73 11.865 0 11.186-7.06 19.576-36.976 49.127-.685.676-1.075 1.604-1.075 2.566V114c0 1.988 1.612 3.6 3.6 3.6h53.408c1.798 0 3.32-1.326 3.566-3.107l1.323-9.575c.298-2.164-1.383-4.093-3.567-4.093h-24.41c-3.26 0-4.847-3.995-2.465-6.223 23.12-21.632 28.962-31.662 28.962-44.785 0-14.32-11.184-26.322-31.915-26.322zm82.893 5.098l-11.79-4.335c-1.79-.658-3.783.194-4.544 1.942l-24.53 56.344c-.198.453-.3.943-.3 1.437v10.244c0 1.988 1.612 3.6 3.6 3.6h31.807c1.99 0 3.6 1.612 3.6 3.6V114c0 1.988 1.613 3.6 3.6 3.6h14.212c1.988 0 3.6-1.612 3.6-3.6v-12.576c0-1.988 1.612-3.6 3.6-3.6h3.166c1.988 0 3.6-1.612 3.6-3.6v-9.166c0-1.988-1.612-3.6-3.6-3.6h-3.166c-1.988 0-3.6-1.612-3.6-3.6V63.374c0-1.988-1.612-3.6-3.6-3.6h-12.006c-1.832 0-3.37 1.375-3.577 3.195l-1.732 15.294c-.206 1.82-1.746 3.195-3.577 3.195h-7.95c-2.587 0-4.33-2.65-3.305-5.026l18.557-43.036c.817-1.898-.126-4.092-2.064-4.805z"/></svg>