<?xml version="1.0" encoding="iso-8859-1"?>
<!-- Generator: Adobe Illustrator 18.1.1, SVG Export Plug-In . SVG Version: 6.00 Build 0)  -->
<!DOCTYPE svg PUBLIC "-//W3C//DTD SVG 1.1//EN" "http://www.w3.org/Graphics/SVG/1.1/DTD/svg11.dtd">
<svg version="1.1" xmlns="http://www.w3.org/2000/svg" xmlns:xlink="http://www.w3.org/1999/xlink" x="0px" y="0px"
	 viewBox="0 0 512 512" enable-background="new 0 0 512 512" xml:space="preserve">
<g id="Layer_5">
	<path fill="#C6B793" d="M145.811,297.858c20.897,0,41.003,1.932,56.614,5.44c14.297,3.212,20.806,6.825,23.1,8.776
		c-2.294,1.951-8.803,5.564-23.1,8.776c-15.611,3.508-35.717,5.44-56.614,5.44c-20.897,0-41.003-1.932-56.614-5.44
		c-14.297-3.212-20.806-6.825-23.1-8.776c2.294-1.951,8.803-5.564,23.1-8.776C104.808,299.79,124.914,297.858,145.811,297.858
		 M145.811,288.988c-49.321,0-89.303,10.336-89.303,23.085s39.982,23.085,89.303,23.085c49.321,0,89.303-10.336,89.303-23.085
		S195.132,288.988,145.811,288.988L145.811,288.988z"/>
</g>
<g id="Layer_1">
</g>
</svg>
