<?xml version="1.0" encoding="iso-8859-1"?>
<!-- Generator: Adobe Illustrator 18.1.1, SVG Export Plug-In . SVG Version: 6.00 Build 0)  -->
<!DOCTYPE svg PUBLIC "-//W3C//DTD SVG 1.1//EN" "http://www.w3.org/Graphics/SVG/1.1/DTD/svg11.dtd">
<svg version="1.1" xmlns="http://www.w3.org/2000/svg" xmlns:xlink="http://www.w3.org/1999/xlink" x="0px" y="0px"
	 viewBox="0 0 512 512" enable-background="new 0 0 512 512" xml:space="preserve">
<g id="Layer_7">
	<path fill="#A36119" d="M463.443,6.731c2.598,2.598,1.815,7.594-1.749,11.158c-3.564,3.564-8.56,4.348-11.158,1.749
		s-1.815-7.594,1.749-11.158C455.849,4.916,460.844,4.133,463.443,6.731z M436.542,24.222c-3.564,3.564-4.348,8.56-1.749,11.158
		s7.594,1.815,11.158-1.749s4.348-8.56,1.749-11.158C445.103,19.875,440.107,20.658,436.542,24.222z M420.801,39.964
		c-3.564,3.564-4.348,8.56-1.749,11.158c2.598,2.598,7.594,1.815,11.158-1.749c3.564-3.564,4.348-8.56,1.749-11.158
		C429.361,35.616,424.365,36.4,420.801,39.964z M492.947,49.143c-3.564,3.564-4.348,8.56-1.749,11.158
		c2.598,2.598,7.594,1.815,11.158-1.749c3.564-3.564,4.348-8.56,1.749-11.158S496.511,45.579,492.947,49.143z M477.205,64.885
		c-3.564,3.564-4.348,8.56-1.749,11.158s7.594,1.815,11.158-1.749c3.564-3.564,4.348-8.56,1.749-11.158
		C485.765,60.537,480.77,61.321,477.205,64.885z M461.463,80.627c-3.564,3.564-4.348,8.56-1.749,11.158
		c2.598,2.598,7.594,1.815,11.158-1.749s4.348-8.56,1.749-11.158C470.023,76.279,465.028,77.062,461.463,80.627z"/>
</g>
<g id="Layer_1">
</g>
</svg>
