<?xml version="1.0" encoding="utf-8"?>
<!-- Generator: Adobe Illustrator 18.0.0, SVG Export Plug-In . SVG Version: 6.00 Build 0)  -->
<!DOCTYPE svg PUBLIC "-//W3C//DTD SVG 1.1 Tiny//EN" "http://www.w3.org/Graphics/SVG/1.1/DTD/svg11-tiny.dtd">
<svg version="1.1" baseProfile="tiny" id="Layer_1" xmlns="http://www.w3.org/2000/svg" xmlns:xlink="http://www.w3.org/1999/xlink"
	 x="0px" y="0px" width="511.9px" height="511.9px" viewBox="0 0 511.9 511.9" xml:space="preserve">
<path fill="#E5AB83" d="M215.3,51.5c0,0,0.2,0,0.7-0.1c0.4,0,1-0.1,1.7-0.1c0.7,0,1.5-0.1,2.4-0.1c0.9,0,1.9,0.1,2.8,0.2
	c1,0.1,1.9,0.3,2.9,0.5c0.5,0.1,0.9,0.3,1.3,0.4c0.4,0.1,0.8,0.3,1.2,0.5c0.4,0.1,0.7,0.4,1,0.6c0.3,0.2,0.5,0.4,0.7,0.5
	c0.4,0.3,0.6,0.5,0.6,0.5c0.6,0.6,0.7,1.5,0.1,2.2c-0.5,0.6-1.4,0.7-2,0.2l-0.3-0.2c0,0-0.1-0.1-0.4-0.3c-0.1-0.1-0.2-0.2-0.4-0.3
	c-0.2-0.1-0.4-0.2-0.7-0.3c-0.3-0.1-0.5-0.2-0.9-0.3c-0.3-0.1-0.7-0.2-1-0.2c-0.7-0.1-1.5-0.2-2.4-0.2c-0.8,0-1.7,0-2.5,0.1
	c-0.8,0.1-1.5,0.1-2.2,0.2c-0.6,0.1-1.2,0.2-1.5,0.2c-0.4,0.1-0.6,0.1-0.6,0.1l-0.1,0c-1.2,0.2-2.3-0.5-2.5-1.7
	c-0.2-1.2,0.5-2.3,1.7-2.5C215.1,51.5,215.2,51.5,215.3,51.5z"/>
</svg>
