<?xml version="1.0" encoding="iso-8859-1"?>
<!-- Generator: Adobe Illustrator 18.1.1, SVG Export Plug-In . SVG Version: 6.00 Build 0)  -->
<!DOCTYPE svg PUBLIC "-//W3C//DTD SVG 1.1//EN" "http://www.w3.org/Graphics/SVG/1.1/DTD/svg11.dtd">
<svg version="1.1" xmlns="http://www.w3.org/2000/svg" xmlns:xlink="http://www.w3.org/1999/xlink" x="0px" y="0px"
	 viewBox="0 0 512 512" enable-background="new 0 0 512 512" xml:space="preserve">
<g id="Layer_2">
	<path fill="#FFC9AB" d="M366.462,320.88l-0.367,6.718c0,79.189-64.221,143.389-143.395,143.389
		c-79.205,0-143.395-64.2-143.395-143.389l-0.393-6.718c-16.595-1.017-29.753-14.807-29.753-31.664
		c0-15.59,11.255-28.552,26.073-31.219l-3.342-57.114c0-84.396,61.902-136.479,146.314-136.479
		c84.391,0,154.81,52.083,154.81,136.479l-3.116,57.07c14.941,2.565,26.324,15.586,26.324,31.264
		C396.221,306.075,383.06,319.866,366.462,320.88z"/>
</g>
<g id="Layer_3">
	<path fill="#2B3B47" d="M150.723,286.966h-0.03c0,0.03,0.03,0.041,0.03,0.056c0,7.946-6.447,14.394-14.394,14.394
		s-14.394-6.447-14.394-14.394c0-0.016,0-0.026,0-0.056h-0.062l0.173-20.234c0.642-7.371,6.743-13.171,14.282-13.171
		c7.518,0,13.619,5.8,14.252,13.171L150.723,286.966z M322.919,266.731c-0.633-7.371-6.743-13.171-14.282-13.171
		c-7.509,0-13.619,5.8-14.252,13.171l-0.174,20.234h0.062c0,0.03,0,0.041,0,0.056c0,7.946,6.447,14.394,14.364,14.394
		c7.947,0,14.394-6.447,14.394-14.394c0-0.016,0-0.026,0-0.056l0,0L322.919,266.731z"/>
</g>
<g id="Layer_4">
	<path fill="#FFFFFF" d="M133.245,267.519v5.043l0,0v0.014c0,1.979-1.608,3.584-3.584,3.584c-1.979,0-3.584-1.605-3.584-3.584
		v-0.014h-0.008v-5.043h0.036c0.165-1.831,1.684-3.279,3.556-3.279c1.869,0,3.396,1.448,3.546,3.279H133.245z M306.604,267.519
		c-0.15-1.831-1.677-3.279-3.546-3.279c-1.872,0-3.391,1.448-3.556,3.279h-0.036v5.043h0.008v0.014c0,1.979,1.605,3.584,3.584,3.584
		c1.976,0,3.584-1.605,3.584-3.584v-0.014l0,0v-5.043H306.604z"/>
</g>
<g id="Layer_5">
	<path fill="#A9B5B4" d="M152.166,242.078c0,0-0.116-0.029-0.333-0.083c-0.252-0.056-0.622-0.138-1.093-0.242
		c-0.967-0.205-2.392-0.481-4.113-0.757c-3.44-0.561-8.094-1.094-12.579-1.11c-1.12-0.005-2.225,0.024-3.296,0.085
		c-1.064,0.069-2.104,0.155-3.067,0.292c-0.486,0.064-0.96,0.131-1.402,0.219c-0.457,0.074-0.887,0.163-1.291,0.262
		c-0.421,0.085-0.801,0.192-1.165,0.298c-0.379,0.095-0.71,0.211-1.027,0.322c-0.331,0.102-0.621,0.217-0.882,0.333
		c-0.272,0.11-0.535,0.211-0.739,0.327c-0.212,0.112-0.435,0.204-0.607,0.304c-0.168,0.101-0.323,0.194-0.462,0.278
		c-0.301,0.157-0.444,0.318-0.593,0.405c-0.136,0.092-0.209,0.142-0.209,0.142l-0.972,0.66c-2.884,1.959-6.81,1.209-8.769-1.675
		c-1.729-2.546-1.345-5.904,0.751-8.004c0,0,0.162-0.162,0.464-0.466c0.308-0.287,0.748-0.781,1.351-1.26
		c0.303-0.246,0.638-0.519,1.003-0.816c0.369-0.285,0.774-0.549,1.209-0.852c0.436-0.311,0.901-0.583,1.396-0.869
		c0.496-0.298,1.018-0.586,1.562-0.846c0.546-0.278,1.118-0.557,1.704-0.796c0.59-0.258,1.2-0.512,1.821-0.729
		c0.626-0.238,1.266-0.459,1.916-0.654c0.655-0.216,1.317-0.399,1.989-0.577c1.349-0.366,2.726-0.659,4.123-0.925
		c1.393-0.256,2.801-0.468,4.199-0.636c5.594-0.673,11.052-0.703,15.144-0.552c2.047,0.074,3.754,0.189,4.972,0.293
		c0.621,0.058,1.109,0.104,1.442,0.135c0.367,0.042,0.562,0.064,0.562,0.064l0.14,0.016c4.865,0.557,8.357,4.952,7.8,9.817
		s-4.952,8.357-9.817,7.8C152.927,242.24,152.518,242.163,152.166,242.078z M290.018,224.67c-0.359,0.044-0.719,0.11-1.079,0.199
		c-4.752,1.181-7.647,5.99-6.467,10.742c1.181,4.752,5.99,7.647,10.742,6.467c0,0,0.116-0.029,0.333-0.083
		c0.252-0.056,0.622-0.138,1.093-0.242c0.967-0.205,2.392-0.481,4.113-0.757c3.44-0.561,8.094-1.094,12.579-1.11
		c1.12-0.005,2.225,0.024,3.296,0.085c1.064,0.069,2.104,0.155,3.067,0.292c0.486,0.064,0.96,0.131,1.402,0.219
		c0.457,0.074,0.887,0.163,1.291,0.262c0.421,0.085,0.801,0.192,1.165,0.298c0.379,0.095,0.71,0.211,1.027,0.322
		c0.331,0.102,0.621,0.217,0.882,0.333c0.272,0.11,0.535,0.211,0.739,0.327c0.212,0.112,0.435,0.204,0.607,0.304
		c0.168,0.101,0.323,0.194,0.462,0.278c0.301,0.157,0.444,0.318,0.593,0.405c0.136,0.092,0.209,0.142,0.209,0.142l0.974,0.663
		c2.453,1.669,5.823,1.419,8.002-0.754c2.469-2.461,2.476-6.459,0.014-8.928c0,0-0.162-0.162-0.464-0.466
		c-0.308-0.287-0.748-0.781-1.351-1.26c-0.303-0.246-0.638-0.519-1.003-0.816c-0.369-0.285-0.774-0.549-1.209-0.852
		c-0.436-0.311-0.901-0.583-1.396-0.869c-0.496-0.298-1.018-0.586-1.562-0.846c-0.546-0.278-1.118-0.557-1.704-0.796
		c-0.59-0.258-1.2-0.512-1.821-0.729c-0.626-0.238-1.266-0.459-1.916-0.654c-0.655-0.216-1.317-0.399-1.989-0.577
		c-1.349-0.366-2.726-0.659-4.123-0.925c-1.393-0.256-2.801-0.468-4.199-0.636c-5.594-0.673-11.052-0.703-15.144-0.552
		c-2.047,0.074-3.754,0.189-4.972,0.293c-0.621,0.058-1.109,0.104-1.442,0.135c-0.367,0.042-0.562,0.064-0.562,0.064L290.018,224.67
		z"/>
</g>
<g id="Layer_6">
	<path fill="#E0A882" d="M222.445,340.36c-0.005,0-0.01,0-0.015,0c-9.736-0.005-18.594-4.84-23.694-12.933
		c-1.732-2.75-0.908-6.383,1.841-8.116c2.749-1.734,6.383-0.909,8.116,1.841c2.934,4.656,8.072,7.437,13.743,7.44
		c0.003,0,0.006,0,0.009,0c5.679,0,10.826-2.783,13.771-7.445c1.736-2.748,5.371-3.569,8.117-1.833
		c2.748,1.735,3.569,5.37,1.833,8.117C241.052,335.527,232.184,340.36,222.445,340.36z M303.422,383.394
		c7.923-6.019,9.463-17.321,3.444-25.241c-6.015-7.92-17.321-9.47-25.241-3.444c-35.983,27.336-82.477,27.339-118.45,0
		c-7.917-6.019-19.219-4.476-25.242,3.442c-6.019,7.923-4.479,19.224,3.443,25.243c24.231,18.416,52.621,27.622,81.02,27.622
		C250.788,411.016,279.192,401.805,303.422,383.394z"/>
</g>
<g id="Layer_7">
	<path fill="#DEE2E2" d="M375.02,194.516c0-57.594-33.936-135.252-135.696-135.252c0,0-8.624,5.232-20.895,13.441
		c-8.409-8.383-13.691-13.441-13.691-13.441c-101.759,0-134.378,67.477-134.378,130.518c0,63.041,8.077,162.331,8.077,190.304
		c0,95.848,59.149,129.46,145.134,129.46s145.134-38.56,145.134-129.46c0-1.903-0.011-3.777-0.031-5.623
		c0.033-0.288,0.05-0.639,0.05-1.057C368.726,341.595,375.02,252.109,375.02,194.516z M246.591,392.239
		c-7.601,2.057-15.558,3.426-23.847,3.426c-10.396,0-17.458-1.097-22.635-2.865c-1.872-0.639-1.946-3.237-0.167-4.041
		c0.378-0.162,0.764-0.327,1.134-0.485c0.774-0.329,1.537-0.66,2.287-0.992s1.487-0.664,2.21-0.997
		c2.167-0.996,4.201-1.988,6.048-2.939c1.232-0.634,2.38-1.249,3.43-1.835c0.525-0.293,1.025-0.579,1.499-0.856
		c0.944-0.534,1.815-1.113,2.6-1.559c0.774-0.451,1.433-0.856,1.966-1.224c0.003-0.002,0.006-0.004,0.009-0.006
		c0.128-0.083,0.249-0.162,0.361-0.236c0.668-0.44,1.516-0.476,2.22-0.095c0.084,0.046,0.173,0.093,0.266,0.143
		c1.045,0.619,2.687,1.346,4.571,2.367c1.908,0.939,4.219,2.051,6.862,3.222c2.63,1.159,5.559,2.441,8.679,3.706
		c0.902,0.377,1.819,0.754,2.749,1.133C248.768,388.894,248.607,391.694,246.591,392.239z M320.569,366.266
		c-0.687,0.115-1.382-0.145-1.866-0.646c-0.164-0.17-0.328-0.341-0.493-0.513c-4.206-4.292-8.971-8.139-13.93-11.566
		c-4.978-3.337-10.266-6-15.631-7.556c-5.368-1.575-10.723-1.986-15.798-2.045c-1.259,0.009-2.507,0.018-3.743,0.027
		c-1.241,0.025-2.435,0.121-3.63,0.18c-2.389,0.088-4.681,0.397-6.906,0.628c-2.219,0.282-4.348,0.638-6.398,0.994
		c-2.034,0.428-4.003,0.78-5.858,1.271c-3.72,0.887-7.067,1.941-10,2.942c-2.921,1.023-5.461,2.051-7.549,2.956
		c-2.112,0.956-3.61,1.705-4.705,2.305c-0.133,0.069-0.258,0.136-0.374,0.198c-0.701,0.375-1.543,0.332-2.21-0.103
		c-0.139-0.09-0.289-0.187-0.451-0.29c-0.268-0.182-0.568-0.373-0.898-0.574c-0.33-0.201-0.69-0.412-1.078-0.635
		c-0.383-0.223-0.803-0.475-1.259-0.734s-0.947-0.526-1.474-0.778c-1.044-0.544-2.204-1.08-3.474-1.675
		c-1.261-0.539-2.631-1.152-4.098-1.708c-2.945-1.157-6.305-2.259-10.044-3.204c-3.738-0.963-7.861-1.735-12.312-2.227
		c-2.237-0.229-4.527-0.418-6.925-0.471c-1.189-0.058-2.405-0.087-3.638-0.089c-1.234-0.002-2.485,0.023-3.745,0.074
		c-0.634,0.029-1.272,0.066-1.913,0.112c-1.282,0.093-2.576,0.222-3.88,0.397c-3.259,0.435-6.577,1.148-9.901,2.257
		c-1.328,0.445-2.652,0.947-3.971,1.5c-1.319,0.553-2.631,1.158-3.934,1.81c-2.605,1.304-5.172,2.796-7.672,4.44
		c-3.551,2.412-6.999,5.048-10.226,7.904c-1.297,1.148-2.567,2.322-3.78,3.546c-0.004,0.004-0.008,0.008-0.012,0.013
		c-0.06,0.062-0.12,0.122-0.18,0.184c-0.576,0.589-1.436,0.795-2.224,0.555c-15.977-4.873-20.477-31.9-28.753-48.438c0,0,0,0,0,0
		c2.787-16.393-10.693-144.806,2.98-167.966c7.485-12.678,24.317,8.306,37.002,19.164c16.619,14.226,83.017,10.377,124.454,1.797
		c66.413-0.505,91.44,14.893,91.44,147.004c0,0,0,0,0,0C342.868,334.578,338.347,363.295,320.569,366.266z"/>
</g>
<g id="Layer_8">
	<path fill="#FF473E" d="M223.614,189.097c-85.662,0-130.48,22.732-144.394,31.35c-5.329,3.301-12.242,3.116-17.172-0.754
		c-3.18-2.497-5.116-5.948-5.041-9.74C59.68,73.381,148.329-0.331,292.94-0.331c100.602,0,180.163,49.134,180.163,102.587
		c0,6.94,0-22.579-49.529-22.579c-33.07,0-35.32,68.68-35.473,130.97c-0.008,3.11-1.369,5.971-3.651,8.251
		c-4.983,4.977-12.889,5.501-18.807,1.683C351.837,211.676,308.467,189.097,223.614,189.097z"/>
</g>
<g id="Layer_9">
	<path fill="#F4F3EF" d="M379.708,234.084c-4.549,0-9.15-1.266-13.257-3.915c-11.154-7.195-54.409-30.67-142.721-30.67
		c-89.11,0-134.048,23.546-145.698,30.763c-11.503,7.125-26.603,3.576-33.729-7.927c-7.125-11.503-3.576-26.604,7.927-33.729
		C70.726,177.149,124.465,150.5,223.73,150.5c42.499,0,80.896,4.913,114.123,14.602c27.334,7.971,45.083,17.392,55.158,23.891
		c11.371,7.335,14.643,22.499,7.308,33.869C395.635,230.125,387.754,234.084,379.708,234.084z"/>
</g>
<g id="Layer_10">
	<path fill="#DEE2E2" d="M500.885,108.694c0,18.364-14.887,33.252-33.252,33.252s-33.252-14.887-33.252-33.252
		s14.887-33.252,33.252-33.252S500.885,90.329,500.885,108.694z"/>
</g>
</svg>
