<?xml version="1.0" encoding="iso-8859-1"?>
<!-- Generator: Adobe Illustrator 18.1.1, SVG Export Plug-In . SVG Version: 6.00 Build 0)  -->
<!DOCTYPE svg PUBLIC "-//W3C//DTD SVG 1.1//EN" "http://www.w3.org/Graphics/SVG/1.1/DTD/svg11.dtd">
<svg version="1.1" xmlns="http://www.w3.org/2000/svg" xmlns:xlink="http://www.w3.org/1999/xlink" x="0px" y="0px"
	 viewBox="0 0 512 512" enable-background="new 0 0 512 512" xml:space="preserve">
<g id="Layer_3">
	<path fill="#E59328" d="M401.39,118.289c-50.359-52.251-134.073-54.711-187.431-5.528c-14.173,13.064-24.882,28.461-32.098,45.049
		c-4.035,9.277-11.671,16.426-21.192,19.843c-17.026,6.11-33.093,15.785-47.06,29.069c-52.582,50.013-55.626,133.708-6.796,187.39
		c50.461,55.475,136.371,58.77,190.925,7.689c13.862-12.979,24.348-28.21,31.432-44.596c3.931-9.094,11.455-16.139,20.788-19.464
		c16.815-5.992,32.702-15.455,46.564-28.434C451.074,258.226,453.43,172.284,401.39,118.289z"/>
</g>
<g id="Layer_1">
</g>
</svg>
