<?xml version="1.0" encoding="iso-8859-1"?>
<!-- Generator: Adobe Illustrator 18.1.1, SVG Export Plug-In . SVG Version: 6.00 Build 0)  -->
<!DOCTYPE svg PUBLIC "-//W3C//DTD SVG 1.1//EN" "http://www.w3.org/Graphics/SVG/1.1/DTD/svg11.dtd">
<svg version="1.1" xmlns="http://www.w3.org/2000/svg" xmlns:xlink="http://www.w3.org/1999/xlink" x="0px" y="0px"
	 viewBox="0 0 512 512" enable-background="new 0 0 512 512" xml:space="preserve">
<g id="Layer_5">
	<path fill="#FF473E" d="M471.338,193.541l0.148-0.035l-0.202,1.21c-0.573,11.531-2.464,22.78-5.56,33.649
		c-0.09,0.317-0.163,0.638-0.218,0.963l-34.338,205.727c-3.005,18.002-14.06,33.671-30.069,42.433
		C373.655,492.508,324.408,512,253.646,512l0,0h0c-68.839,0-117.316-18.447-145.166-33.278
		c-17.412-9.273-29.441-26.205-32.689-45.664L41.821,229.543c-0.078-0.469-0.184-0.932-0.313-1.389
		c-3.06-10.804-4.93-21.983-5.5-33.439l-0.202-1.21l0.148,0.035c-0.087-2.088-0.148-4.182-0.148-6.288
		c0,33.713,58.554,45.896,80.727,49.3c4.945,0.759,9.075,4.155,10.748,8.87c7.838,22.082,37.654,83.687,126.364,83.687h0l0,0
		c91.8,0,120.532-65.97,127.105-85.845c1.123-3.397,4.081-5.852,7.623-6.358c19.982-2.856,83.112-14.649,83.112-49.654
		C471.485,189.358,471.425,191.452,471.338,193.541z"/>
</g>
<g id="Layer_1">
</g>
</svg>
