<svg xmlns="http://www.w3.org/2000/svg" viewBox="0 0 512 512" enable-background="new 0 0 512 512"><path fill="#3BCCFF" d="M167.935 31.49c9.308-3.637 18.888-6.728 28.715-9.205 10.943-2.758 22.182-4.77 33.66-5.98 2.23 9.985 1.835 12.318-1.22 29.602-2.442-4.684-4.41-9.71-7.46-13.957-5.145-7.163-12.118-5.83-15.672 2.568-3.185 7.527-11.048 12.758-18.467 11.89-1.667-.194-4.413-1.53-4.582-2.653-1.535-10.205-8.126-11.47-14.972-12.265zM314.66 46.278l-.433-.437.47.446c-2.97-3.778-6.282-7.34-8.83-11.385-3.387-5.375-6.37-11.005-9.45-16.575-5.278-.887-10.61-1.61-15.997-2.15 2.39 17.648 12.33 26.364 34.24 30.104zm-67.99 91.825c3.038-.46 5.776-2.62 8.786-3.613 3.766-1.243 10.388 3.164 10.892-3.463.243-3.193-4.578-7.377-7.936-10.08-3.918-3.15-8.664-5.343-13.266-7.493-.643-.3-3.7 2.907-3.637 2.99 4.685 6.248 1.08 11.974-2.015 19.283 2.706.97 5.094 2.69 7.175 2.376zM498.05 257c0 133.68-108.37 242.05-242.05 242.05S13.95 390.68 13.95 257c0-56.103 19.102-107.737 51.137-148.784 5.392 3.867 10.79 7.725 16.47 11.11 6.49 3.868 8.533 9.077 8.22 16.11-.257 5.81-1.044 11.863.198 17.406 1.783 7.957 3.14 17.514 8.308 22.92 14.362 15.027 25.697 32.07 37.467 48.925 4.35 6.23 6.707 4.11 8.16-2.244.453-1.98 2.634-3.566 4.023-5.333 1.305 1.21 3.138 2.17 3.835 3.664 9.982 21.378 26.65 33.883 49.666 38.594 3.19.653 7.693 3.277 8.45 5.897 2.596 8.967 8.734 10.285 16.43 9.787 7.066-.457 12.6 1.408 15.35 8.827 3.677 9.92 9.965 15.42 21.695 15.42 8.137-.003 9.23 3.55 6.606 11.676-.984 3.052-2.158 6.046-3.057 9.12-6.49 22.2-4.677 42.16 15.39 57.278 3.085 2.325 5.8 5.144 8.676 7.748 8.642 7.827 12.63 17.512 12.657 29.23.03 13.656-1.055 27.02-6.232 39.826-2.946 7.29-6.076 15.99.933 21.324 6.74 5.132 14.87.63 21.634-3.427 2.748-1.648 5.06-4.01 7.646-5.946 9.812-7.347 19.354-15.11 29.57-21.847 10.528-6.943 18.674-15.4 24.29-26.847 6.046-12.32 14.278-22.955 27.6-28.684 13.632-5.862 19.446-18.478 24.56-31.038 3.443-8.455 1.813-17.093-6.333-22.345-6.885-4.44-14.388-8.46-22.178-10.81-7.823-2.36-12.822-5.94-17.25-13.198-12.444-20.404-30.284-33.004-55.43-32.486-4.513.093-9.548 1.017-13.46-.59-12.01-4.934-21.706-2.2-32.488 4.516-13.16 8.197-21.322 2.923-22.406-12.796-.374-5.425-.504-11.582-6.2-12.93-11.93-2.82-17.914-7.177-10.138-19.83.724-1.178-2.44-6.836-4.184-7.035-4.732-.54-10.113-.274-14.4 1.594-3.894 1.698-6.464 6.21-10.025 8.958-4.19 3.234-14.296 1-17.063-3.358-7.4-11.656-4.608-32.06 5.71-38.974 10.363-6.942 22.24-5.43 33.827-5.118 6.936.187 9.398 5.595 12.828 10.362 3.9 5.42 6.96 14.32 15.613 11.407 7.558-2.543 7.897-10.997 8.656-18.116.068-.638.056-1.3-.026-1.938-1.768-13.682 5.967-22.9 14.187-32.45 8.785-10.202 17.33-18.8 32.6-16.04 3.314.6 7.467-3.46 11.233-5.374-1.88-2.99-3.096-6.972-5.777-8.77-5.662-3.794-2.972-6.72.86-7.708 5.927-1.53 11.738-2.86 17.903 2.415 7.647 6.543 14.06 5.18 17.522-1.164 4.146-7.59 1.958-14.85-5.527-19.388-21.44-13-42.813-26.108-64.212-39.174-5.354-1.635-10.788-1.366-13.978 3.403-2.295 3.43-2.957 8.08-3.818 12.294-.503 2.46.293 5.156.054 7.704-.475 5.092-5.725 8.4-9.38 5.11-9.307-8.384-19.117-11.405-31.642-8.873-4.05.82-10.086-2.542-10.146-9.39-.06-6.77 2.507-11.64 9.83-11.513 8.79.15 14.25-2.125 16.153-12.025.954-4.957 14.368-7.618 18.644-2.772 7.475 8.47 18.066 8.388 26.704 13.155 4.46.462 8.928 1.393 13.374 1.287 8.81-.21 9.727-2.307 6.215-12.466-.408-1.184-.9-2.34-1.354-3.508l.03.032.414.417-.003-.005c0 .002.004.003.005.005l-.14-.145-.31-.315c21.27 8.955 43.963 14.55 59.807 34.09 11.696 14.423 29.82 12.387 41.99-2.18-3.31-3.735-6.21-7.985-9.82-11.334 43.95 36.327 74.862 87.873 84.644 146.57 2.177 13.043 3.31 26.434 3.31 40.09z"/></svg>