<?xml version="1.0" encoding="iso-8859-1"?>
<!-- Generator: Adobe Illustrator 18.1.1, SVG Export Plug-In . SVG Version: 6.00 Build 0)  -->
<!DOCTYPE svg PUBLIC "-//W3C//DTD SVG 1.1//EN" "http://www.w3.org/Graphics/SVG/1.1/DTD/svg11.dtd">
<svg version="1.1" xmlns="http://www.w3.org/2000/svg" xmlns:xlink="http://www.w3.org/1999/xlink" x="0px" y="0px"
	 viewBox="0 0 512 512" enable-background="new 0 0 512 512" xml:space="preserve">
<g id="Layer_2">
	<path fill="#F2A74E" d="M429.01,434.037h-59.559c-31.505,0-57.137-25.632-57.137-57.137V231.269
		c0-31.505,25.632-57.137,57.137-57.137h59.559c31.505,0,57.137,25.631,57.137,57.137V376.9
		C486.146,408.405,460.515,434.037,429.01,434.037z M369.451,216.405c-8.195,0-14.863,6.667-14.863,14.863V376.9
		c0,8.195,6.668,14.863,14.863,14.863h59.559c8.195,0,14.863-6.668,14.863-14.863V231.269c0-8.196-6.668-14.863-14.863-14.863
		H369.451z"/>
</g>
<g id="Layer_1">
</g>
</svg>
