<?xml version="1.0" encoding="iso-8859-1"?>
<!-- Generator: Adobe Illustrator 18.1.1, SVG Export Plug-In . SVG Version: 6.00 Build 0)  -->
<!DOCTYPE svg PUBLIC "-//W3C//DTD SVG 1.1//EN" "http://www.w3.org/Graphics/SVG/1.1/DTD/svg11.dtd">
<svg version="1.1" xmlns="http://www.w3.org/2000/svg" xmlns:xlink="http://www.w3.org/1999/xlink" x="0px" y="0px"
	 viewBox="0 0 512 512" enable-background="new 0 0 512 512" xml:space="preserve">
<g id="Layer_9">
	<path fill="#59CAFC" d="M234.634,285.982c0,6.193-5.02,11.213-11.213,11.213s-11.213-5.02-11.213-11.213s5.02-11.213,11.213-11.213
		S234.634,279.789,234.634,285.982z M473.685,267.115c-6.012,0-10.885,4.874-10.885,10.885s4.873,10.885,10.885,10.885
		c6.012,0,10.885-4.874,10.885-10.885S479.696,267.115,473.685,267.115z M161.53,431.654c1.691-1.831,3.719-3.888,5.867-6.066
		c10.897-11.054,25.822-26.191,32.28-46.893c7.758-24.87,1.097-51.3-19.8-78.557c-3.627-4.732-10.402-5.624-15.132-1.999
		c-4.73,3.627-5.625,10.401-1.999,15.132c16.61,21.665,21.95,40.963,16.325,58.995c-4.899,15.703-17.179,28.159-27.045,38.167
		c-2.274,2.307-4.422,4.485-6.352,6.574c-4.044,4.379-3.773,11.207,0.605,15.251c2.076,1.918,4.701,2.865,7.321,2.865
		C156.505,435.124,159.403,433.957,161.53,431.654z"/>
</g>
<g id="Layer_1">
</g>
</svg>
