<?xml version="1.0" encoding="iso-8859-1"?>
<!-- Generator: Adobe Illustrator 18.1.1, SVG Export Plug-In . SVG Version: 6.00 Build 0)  -->
<!DOCTYPE svg PUBLIC "-//W3C//DTD SVG 1.1//EN" "http://www.w3.org/Graphics/SVG/1.1/DTD/svg11.dtd">
<svg version="1.1" xmlns="http://www.w3.org/2000/svg" xmlns:xlink="http://www.w3.org/1999/xlink" x="0px" y="0px"
	 viewBox="0 0 512 512" enable-background="new 0 0 512 512" xml:space="preserve">
<g id="Layer_7">
	<path fill="#332A23" d="M146.574,332.64h29.447c12.197,0,22.085-9.888,22.085-22.085v0c0-12.197-9.888-22.085-22.085-22.085
		h-29.447c-12.197,0-22.085,9.888-22.085,22.085v0C124.489,322.752,134.377,332.64,146.574,332.64z M315.894,310.554
		L315.894,310.554c0,12.197,9.888,22.085,22.085,22.085h29.447c12.197,0,22.085-9.888,22.085-22.085v0
		c0-12.197-9.888-22.085-22.085-22.085h-29.447C325.782,288.469,315.894,298.357,315.894,310.554z"/>
</g>
<g id="Layer_1">
</g>
</svg>
