<svg xmlns="http://www.w3.org/2000/svg" viewBox="0 0 512 512" enable-background="new 0 0 512 512"><path fill="#F4580B" d="M197.335 356.174c-1.342.793-2.815 1.17-4.27 1.17-2.873 0-5.672-1.474-7.24-4.127L152.92 297.56l-15.78 61.567 25.185 42.602c2.362 3.993 1.038 9.146-2.957 11.51-1.342.79-2.815 1.17-4.27 1.17-2.873 0-5.672-1.476-7.24-4.13l-16.624-28.12-15.836 61.78c-.973 3.797-4.388 6.32-8.134 6.32-.69 0-1.393-.086-2.092-.266-4.496-1.152-7.206-5.73-6.053-10.227l15.854-61.858-28.205 16.675c-1.343.793-2.816 1.17-4.27 1.17-2.874 0-5.673-1.474-7.24-4.127-2.363-3.996-1.04-9.148 2.956-11.51l42.657-25.22 15.764-61.498-55.627 32.885c-1.34.793-2.814 1.17-4.268 1.17-2.874 0-5.673-1.474-7.24-4.127-2.363-3.995-1.04-9.148 2.956-11.51l70.078-41.428 20.175-78.707c1.155-4.495 5.734-7.203 10.228-6.053 4.496 1.152 7.206 5.73 6.053 10.226l-20.164 78.666 41.466 70.14c2.364 3.995 1.04 9.148-2.955 11.51zm235.77-123.697l-65.23-16.76-44.057-74.428 85.22 21.893c.954.245 1.91.362 2.853.362 5.097 0 9.743-3.43 11.07-8.592 1.57-6.116-2.114-12.35-8.23-13.92L307.335 113.44l-56.292-95.097c-3.217-5.434-10.23-7.233-15.665-4.015-5.436 3.216-7.233 10.23-4.016 15.664l56.322 95.15-27.567 107.295c-1.57 6.116 2.112 12.348 8.23 13.92.953.245 1.91.362 2.852.362 5.096 0 9.742-3.43 11.068-8.593l21.883-85.17 44.01 74.346-16.78 65.313c-1.572 6.115 2.112 12.348 8.228 13.92.956.245 1.913.362 2.855.362 5.095 0 9.74-3.43 11.067-8.592l11.095-43.188 44.266 74.78c2.136 3.608 5.943 5.613 9.852 5.613 1.98 0 3.986-.514 5.813-1.596 5.435-3.217 7.232-10.23 4.016-15.664l-44.21-74.687 43.055 11.062c.954.244 1.91.36 2.853.36 5.094 0 9.74-3.43 11.066-8.59 1.57-6.12-2.115-12.35-8.23-13.923z"/></svg>