<?xml version="1.0" encoding="iso-8859-1"?>
<!-- Generator: Adobe Illustrator 18.1.1, SVG Export Plug-In . SVG Version: 6.00 Build 0)  -->
<!DOCTYPE svg PUBLIC "-//W3C//DTD SVG 1.1//EN" "http://www.w3.org/Graphics/SVG/1.1/DTD/svg11.dtd">
<svg version="1.1" xmlns="http://www.w3.org/2000/svg" xmlns:xlink="http://www.w3.org/1999/xlink" x="0px" y="0px"
	 viewBox="0 0 512 512" enable-background="new 0 0 512 512" xml:space="preserve">
<g id="Layer_2">
	<path fill="#CCD3D6" d="M365.746,478.751c0,16.706-45.072,30.249-100.672,30.249c-55.6,0-100.672-13.543-100.672-30.249
		c0-12.072,52.557-38.853,81.721-52.785V303.686L78.461,111.171c29.919,22.139,102.192,37.752,186.613,37.752
		s156.693-15.613,186.613-37.752L284.025,303.685v122.281C313.19,439.898,365.746,466.679,365.746,478.751z"/>
</g>
<g id="Layer_3">
	<path fill="#DEE1E2" d="M402.006,132.773L287.355,264.418c-11.777,13.523-32.786,13.523-44.563,0L128.141,132.773
		C88.528,121.724,63.73,105.946,63.73,88.425c0-33.412,90.145-60.499,201.344-60.499s201.344,27.086,201.344,60.499
		C466.418,105.946,441.62,121.724,402.006,132.773z"/>
</g>
<g id="Layer_4">
	<path fill="#8E6049" d="M301.385,162.939l74.762-151.474c2.813-5.7,9.715-8.04,15.415-5.227c5.7,2.813,8.04,9.715,5.227,15.415
		c-0.136,0.276-0.295,0.565-0.45,0.825l-86.877,144.866c-1.308,2.181-4.135,2.888-6.316,1.58
		C301.078,167.686,300.343,165.065,301.385,162.939z"/>
</g>
<g id="Layer_5">
	<path fill="#65BA24" d="M347.264,134.515c9.243,26.104,0.717,52.938-19.042,59.934c-19.76,6.996-43.271-8.494-52.513-34.598
		c-9.243-26.104-0.717-52.938,19.042-59.934C314.51,92.92,338.021,108.41,347.264,134.515z"/>
</g>
<g id="Layer_6">
	<path fill="#8E6049" d="M260.204,239.519l38.143-78.236c1.953-4.006,6.783-5.67,10.789-3.717s5.67,6.783,3.717,10.789
		c-0.107,0.219-0.23,0.443-0.353,0.648l-45.128,74.426c-1.17,1.93-3.683,2.545-5.613,1.375
		C259.942,243.702,259.298,241.394,260.204,239.519z"/>
</g>
<g id="Layer_7">
	<path fill="#FFFFFF" d="M265.854,149.319c-64.827,0-124.581-9.013-163.941-24.729c-4.112-1.642-6.115-6.307-4.473-10.419
		c1.641-4.112,6.306-6.114,10.419-4.473c36.988,14.768,96.051,23.585,157.995,23.585c61.875,0,118.918-8.382,156.502-22.999
		c4.132-1.603,8.774,0.44,10.379,4.566c1.605,4.127-0.439,8.774-4.566,10.379C388.802,140.539,329.641,149.319,265.854,149.319z"/>
</g>
</svg>
