<?xml version="1.0" encoding="iso-8859-1"?>
<!-- Generator: Adobe Illustrator 18.1.1, SVG Export Plug-In . SVG Version: 6.00 Build 0)  -->
<!DOCTYPE svg PUBLIC "-//W3C//DTD SVG 1.1//EN" "http://www.w3.org/Graphics/SVG/1.1/DTD/svg11.dtd">
<svg version="1.1" xmlns="http://www.w3.org/2000/svg" xmlns:xlink="http://www.w3.org/1999/xlink" x="0px" y="0px"
	 viewBox="0 0 512 512" enable-background="new 0 0 512 512" xml:space="preserve">
<g id="Layer_2">
	<path fill="#8E6049" d="M16.076,450.918c0,0-0.049-0.261-0.146-0.775c-0.091-0.508-0.258-1.297-0.404-2.264
		c-0.158-0.979-0.354-2.195-0.587-3.639c-0.257-1.469-0.462-3.077-0.693-4.897c-1.05-7.405-2.165-17.842-2.786-30.327
		c-0.633-12.497-0.789-27.058-0.011-42.805c0.103-1.963,0.175-3.989,0.307-5.988c0.148-1.983,0.299-3.995,0.452-6.037
		c0.167-2.027,0.276-4.145,0.497-6.18c0.211-2.046,0.424-4.12,0.64-6.221c0.832-8.437,2.04-16.974,3.499-25.683
		c2.942-17.396,7.125-35.246,12.705-52.969c5.566-17.738,12.564-35.314,20.975-52.326c8.373-17.049,18.222-33.47,29.347-49.038
		c11.139-15.554,23.582-30.228,37.105-43.822c13.514-13.603,28.131-26.103,43.641-37.286c15.507-11.186,31.902-21.061,48.919-29.466
		c16.971-8.451,34.571-15.426,52.294-21.006c17.719-5.584,35.578-9.758,52.993-12.681c8.717-1.452,17.271-2.643,25.713-3.47
		c4.22-0.414,8.281-0.869,12.423-1.116c2.048-0.147,4.066-0.291,6.055-0.434c1.979-0.152,4.03-0.199,5.993-0.302
		c15.779-0.745,30.377-0.554,42.908,0.114c12.521,0.657,22.98,1.795,30.418,2.877c3.609,0.431,6.627,1.013,8.565,1.31
		c0.97,0.15,1.762,0.318,2.272,0.412c0.516,0.099,0.778,0.149,0.778,0.149c23.012,4.407,39.993,22.532,44.206,44.206
		c0,0,0.05,0.262,0.149,0.778c0.094,0.511,0.262,1.302,0.412,2.272c0.297,1.939,0.878,4.956,1.31,8.565
		c1.082,7.437,2.22,17.897,2.877,30.418c0.668,12.531,0.859,27.129,0.114,42.908c-0.103,1.963-0.15,4.014-0.302,5.993
		c-0.143,1.988-0.287,4.007-0.434,6.055c-0.247,4.142-0.702,8.203-1.116,12.423c-0.827,8.442-2.018,16.996-3.47,25.713
		c-2.923,17.414-7.097,35.273-12.681,52.993c-5.581,17.723-12.556,35.323-21.006,52.294c-8.405,17.017-18.279,33.412-29.466,48.919
		c-11.184,15.509-23.683,30.127-37.286,43.641c-13.594,13.523-28.268,25.966-43.822,37.105
		c-15.569,11.125-31.989,20.974-49.038,29.347c-17.012,8.411-34.588,15.409-52.326,20.975c-17.723,5.581-35.573,9.764-52.969,12.705
		c-8.71,1.459-17.247,2.667-25.683,3.499c-2.101,0.216-4.175,0.43-6.221,0.64c-2.035,0.222-4.153,0.33-6.18,0.497
		c-2.042,0.153-4.054,0.303-6.037,0.452c-1.999,0.132-4.025,0.204-5.988,0.307c-15.747,0.777-30.309,0.622-42.805-0.011
		c-12.485-0.621-22.922-1.737-30.327-2.786c-1.819-0.23-3.428-0.436-4.897-0.693c-1.445-0.233-2.66-0.429-3.639-0.587
		c-0.967-0.146-1.756-0.312-2.264-0.404c-0.514-0.097-0.775-0.146-0.775-0.146C37.241,490.782,20.227,472.632,16.076,450.918z"/>
</g>
<g id="Layer_1">
</g>
</svg>
