<svg xmlns="http://www.w3.org/2000/svg" viewBox="0 0 512 512" enable-background="new 0 0 512 512"><path fill="#132028" d="M500.95 28.833c-32.822 7.964-59.667 23.208-82.855 43.662-.604-1.607-1.546-3.116-2.85-4.4-4.803-4.725-12.528-4.664-17.254.14-4.725 4.802-4.664 12.526.14 17.253 1.154 1.136 2.48 1.99 3.89 2.572-13.65 14.445-26.062 30.777-37.828 48.466 1.196-4.16.135-8.828-3.167-12.078-4.803-4.726-12.528-4.665-17.254.138-4.725 4.803-4.664 12.527.14 17.254 4.504 4.433 11.58 4.654 16.34.7-7.617 11.782-14.985 24.117-22.27 36.864-.3-4.006-2.562-7.78-6.36-9.83-5.928-3.203-13.33-.993-16.532 4.936-3.202 5.93-.992 13.33 4.937 16.533 3.652 1.972 7.86 1.885 11.303.147-6.756 12.1-13.484 24.514-20.318 37.127-3.397 6.27-6.817 12.575-10.268 18.904-.558-3.652-2.75-7.01-6.25-8.903-5.93-3.202-13.332-.992-16.534 4.937-3.202 5.93-.992 13.33 4.937 16.533 3.453 1.865 7.4 1.883 10.732.41-7.532 13.647-15.3 27.393-23.48 41.172-.154-3.592-1.877-7.08-5.01-9.358-5.453-3.96-13.083-2.75-17.043 2.7s-2.75 13.083 2.7 17.043c3.74 2.717 8.506 3 12.408 1.15-8.48 13.878-17.425 27.772-27.05 41.617-4.107 5.906-8.305 11.356-12.587 16.38 2.25-5.137.72-11.323-4.005-14.755-5.452-3.96-13.082-2.75-17.042 2.7-3.96 5.453-2.75 13.083 2.7 17.043 4.045 2.938 9.285 3.025 13.34.652-24.92 26.837-52.654 39.178-82.726 36.697-43.33-3.564-83.698-36.46-109.932-63.43-5.445-5.597-10.855-11.548-16.18-17.766v34.113c19.207 19.7 38.816 35.583 58.288 47.202 22.415 13.374 44.6 21.046 65.938 22.8 3.262.27 6.49.402 9.697.402 42.135 0 79.573-23.145 111.392-68.912 30.09-43.28 53.53-86.54 76.197-128.376 28.805-53.162 56.012-103.375 90.347-138.43 23.542-24.037 49.46-39.87 79.372-48.197V28.833z"/></svg>