<?xml version="1.0" encoding="iso-8859-1"?>
<!-- Generator: Adobe Illustrator 18.1.1, SVG Export Plug-In . SVG Version: 6.00 Build 0)  -->
<!DOCTYPE svg PUBLIC "-//W3C//DTD SVG 1.1//EN" "http://www.w3.org/Graphics/SVG/1.1/DTD/svg11.dtd">
<svg version="1.1" xmlns="http://www.w3.org/2000/svg" xmlns:xlink="http://www.w3.org/1999/xlink" x="0px" y="0px"
	 viewBox="0 0 512 512" enable-background="new 0 0 512 512" xml:space="preserve">
<g id="Layer_7">
	<path fill="#DEE2E2" d="M375.02,194.516c0-57.594-33.936-135.252-135.696-135.252c0,0-8.624,5.232-20.895,13.441
		c-8.409-8.383-13.691-13.441-13.691-13.441c-101.759,0-134.378,67.477-134.378,130.518c0,63.041,8.077,162.331,8.077,190.304
		c0,95.848,59.149,129.46,145.134,129.46s145.134-38.56,145.134-129.46c0-1.903-0.011-3.777-0.031-5.623
		c0.033-0.288,0.05-0.639,0.05-1.057C368.726,341.595,375.02,252.109,375.02,194.516z M246.591,392.239
		c-7.601,2.057-15.558,3.426-23.847,3.426c-10.396,0-17.458-1.097-22.635-2.865c-1.872-0.639-1.946-3.237-0.167-4.041
		c0.378-0.162,0.764-0.327,1.134-0.485c0.774-0.329,1.537-0.66,2.287-0.992s1.487-0.664,2.21-0.997
		c2.167-0.996,4.201-1.988,6.048-2.939c1.232-0.634,2.38-1.249,3.43-1.835c0.525-0.293,1.025-0.579,1.499-0.856
		c0.944-0.534,1.815-1.113,2.6-1.559c0.774-0.451,1.433-0.856,1.966-1.224c0.003-0.002,0.006-0.004,0.009-0.006
		c0.128-0.083,0.249-0.162,0.361-0.236c0.668-0.44,1.516-0.476,2.22-0.095c0.084,0.046,0.173,0.093,0.266,0.143
		c1.045,0.619,2.687,1.346,4.571,2.367c1.908,0.939,4.219,2.051,6.862,3.222c2.63,1.159,5.559,2.441,8.679,3.706
		c0.902,0.377,1.819,0.754,2.749,1.133C248.768,388.894,248.607,391.694,246.591,392.239z M320.569,366.266
		c-0.687,0.115-1.382-0.145-1.866-0.646c-0.164-0.17-0.328-0.341-0.493-0.513c-4.206-4.292-8.971-8.139-13.93-11.566
		c-4.978-3.337-10.266-6-15.631-7.556c-5.368-1.575-10.723-1.986-15.798-2.045c-1.259,0.009-2.507,0.018-3.743,0.027
		c-1.241,0.025-2.435,0.121-3.63,0.18c-2.389,0.088-4.681,0.397-6.906,0.628c-2.219,0.282-4.348,0.638-6.398,0.994
		c-2.034,0.428-4.003,0.78-5.858,1.271c-3.72,0.887-7.067,1.941-10,2.942c-2.921,1.023-5.461,2.051-7.549,2.956
		c-2.112,0.956-3.61,1.705-4.705,2.305c-0.133,0.069-0.258,0.136-0.374,0.198c-0.701,0.375-1.543,0.332-2.21-0.103
		c-0.139-0.09-0.289-0.187-0.451-0.29c-0.268-0.182-0.568-0.373-0.898-0.574c-0.33-0.201-0.69-0.412-1.078-0.635
		c-0.383-0.223-0.803-0.475-1.259-0.734s-0.947-0.526-1.474-0.778c-1.044-0.544-2.204-1.08-3.474-1.675
		c-1.261-0.539-2.631-1.152-4.098-1.708c-2.945-1.157-6.305-2.259-10.044-3.204c-3.738-0.963-7.861-1.735-12.312-2.227
		c-2.237-0.229-4.527-0.418-6.925-0.471c-1.189-0.058-2.405-0.087-3.638-0.089c-1.234-0.002-2.485,0.023-3.745,0.074
		c-0.634,0.029-1.272,0.066-1.913,0.112c-1.282,0.093-2.576,0.222-3.88,0.397c-3.259,0.435-6.577,1.148-9.901,2.257
		c-1.328,0.445-2.652,0.947-3.971,1.5c-1.319,0.553-2.631,1.158-3.934,1.81c-2.605,1.304-5.172,2.796-7.672,4.44
		c-3.551,2.412-6.999,5.048-10.226,7.904c-1.297,1.148-2.567,2.322-3.78,3.546c-0.004,0.004-0.008,0.008-0.012,0.013
		c-0.06,0.062-0.12,0.122-0.18,0.184c-0.576,0.589-1.436,0.795-2.224,0.555c-15.977-4.873-20.477-31.9-28.753-48.438c0,0,0,0,0,0
		c2.787-16.393-10.693-144.806,2.98-167.966c7.485-12.678,24.317,8.306,37.002,19.164c16.619,14.226,83.017,10.377,124.454,1.797
		c66.413-0.505,91.44,14.893,91.44,147.004c0,0,0,0,0,0C342.868,334.578,338.347,363.295,320.569,366.266z"/>
</g>
<g id="Layer_1">
</g>
</svg>
