<svg xmlns="http://www.w3.org/2000/svg" viewBox="0 0 512 512" enable-background="new 0 0 512 512"><path fill="#597B91" d="M273.496 269.592H238.06c-3.977 0-7.2-3.224-7.2-7.2v-44.54c0-3.976 3.223-7.2 7.2-7.2h35.436c3.976 0 7.2 3.224 7.2 7.2v44.54c0 3.977-3.224 7.2-7.2 7.2zm94.363-7.2v-44.54c0-3.976-3.225-7.2-7.2-7.2H325.22c-3.976 0-7.2 3.224-7.2 7.2v44.54c0 3.976 3.224 7.2 7.2 7.2h35.437c3.975 0 7.2-3.223 7.2-7.2zm-87.164 94.462v-44.54c0-3.976-3.224-7.2-7.2-7.2H238.06c-3.977 0-7.2 3.224-7.2 7.2v44.54c0 3.976 3.223 7.2 7.2 7.2h35.436c3.976 0 7.2-3.224 7.2-7.2zm87.163 0v-44.54c0-3.976-3.225-7.2-7.2-7.2H325.22c-3.976 0-7.2 3.224-7.2 7.2v44.54c0 3.976 3.224 7.2 7.2 7.2h35.437c3.975 0 7.2-3.224 7.2-7.2zm-174.327-94.462v-44.54c0-3.976-3.224-7.2-7.2-7.2h-35.437c-3.976 0-7.2 3.224-7.2 7.2v44.54c0 3.976 3.224 7.2 7.2 7.2h35.437c3.976 0 7.2-3.223 7.2-7.2zm0 94.462v-44.54c0-3.976-3.224-7.2-7.2-7.2h-35.437c-3.976 0-7.2 3.224-7.2 7.2v44.54c0 3.976 3.224 7.2 7.2 7.2h35.437c3.976 0 7.2-3.224 7.2-7.2zm148.48 59.5c0-5.442-4.41-9.854-9.853-9.854H179.388c-5.442 0-9.854 4.412-9.854 9.854v8.122h172.48v-8.122z"/></svg>