<?xml version="1.0" encoding="iso-8859-1"?>
<!-- Generator: Adobe Illustrator 18.1.1, SVG Export Plug-In . SVG Version: 6.00 Build 0)  -->
<!DOCTYPE svg PUBLIC "-//W3C//DTD SVG 1.1//EN" "http://www.w3.org/Graphics/SVG/1.1/DTD/svg11.dtd">
<svg version="1.1" xmlns="http://www.w3.org/2000/svg" xmlns:xlink="http://www.w3.org/1999/xlink" x="0px" y="0px"
	 viewBox="0 0 512 512" enable-background="new 0 0 512 512" xml:space="preserve">
<g id="Layer_2">
	<path fill="#C6B793" d="M202.721,446.218v38.183c0,11.978-25.479,21.688-56.91,21.688c-31.43,0-56.91-9.71-56.91-21.688v-38.183
		H202.721z"/>
</g>
<g id="Layer_3">
	<path fill="#E2D6C0" d="M224.373,305.628c5.084-2.204,10.742,1.598,10.742,7.139c0,0-4.768,54.361-8.877,107.721
		c-4.108,53.36-30.728,75.144-79.582,75.144h-1.786c-48.801,0-74.807-22.067-79.485-75.046
		c-4.678-52.979-8.877-107.818-8.877-107.818c0-5.541,5.658-9.343,10.742-7.139c15.112,6.55,44.626,10.393,78.562,10.393
		C179.747,316.021,209.261,312.179,224.373,305.628z M358.889,41.293c-41.293,0-77.206-7.208-95.594-19.495
		c-6.186-4.134-13.07,2.998-13.07,13.391c0,0,36.733,69.805,36.733,116.291c0,25.685-38.351,88.197-39.173,192.657
		c-0.666,84.593,23.279,160.728,112.131,160.728c86.178,0,111.154-80.1,111.819-160.728
		c0.867-105.156-39.619-163.289-39.619-190.841c0-48.678,35.437-118.107,35.437-118.107c0-10.393-6.884-17.525-13.07-13.391
		C436.095,34.086,400.182,41.293,358.889,41.293z"/>
</g>
<g id="Layer_4">
	<path fill="#EDE6D9" d="M145.811,330.724c-23.49,0-45.522-2.351-62.036-6.62c-18.06-4.669-22.831-9.911-22.831-12.03
		c0-2.12,4.771-7.362,22.831-12.03c16.515-4.269,38.547-6.621,62.036-6.621c23.491,0,45.523,2.351,62.037,6.621
		c18.06,4.668,22.831,9.91,22.831,12.03c0,2.119-4.771,7.361-22.831,12.03C191.332,328.373,169.3,330.724,145.811,330.724z
		 M434.376,43.862c21.975-5.681,27.781-12.06,27.781-14.638c0-2.58-5.806-8.959-27.781-14.64
		c-20.095-5.194-46.903-8.055-75.486-8.055c-28.583,0-55.391,2.861-75.488,8.055c-21.975,5.681-27.781,12.06-27.781,14.64
		c0,2.578,5.806,8.958,27.781,14.638c20.096,5.195,46.904,8.055,75.488,8.055C387.472,51.917,414.281,49.057,434.376,43.862z"/>
</g>
<g id="Layer_5">
	<path fill="#C6B793" d="M145.811,297.858c20.897,0,41.003,1.932,56.614,5.44c14.297,3.212,20.806,6.825,23.1,8.776
		c-2.294,1.951-8.803,5.564-23.1,8.776c-15.611,3.508-35.717,5.44-56.614,5.44c-20.897,0-41.003-1.932-56.614-5.44
		c-14.297-3.212-20.806-6.825-23.1-8.776c2.294-1.951,8.803-5.564,23.1-8.776C104.808,299.79,124.914,297.858,145.811,297.858
		 M145.811,288.988c-49.321,0-89.303,10.336-89.303,23.085s39.982,23.085,89.303,23.085c49.321,0,89.303-10.336,89.303-23.085
		S195.132,288.988,145.811,288.988L145.811,288.988z"/>
</g>
<g id="Layer_6">
	<path fill="#C6B793" d="M358.889,11.925c25.428,0,49.893,2.351,68.888,6.619c17.396,3.909,25.317,8.304,28.108,10.679
		c-2.791,2.374-10.712,6.77-28.108,10.679c-18.996,4.268-43.461,6.619-68.888,6.619c-25.427,0-49.892-2.351-68.888-6.619
		c-17.396-3.909-25.317-8.304-28.108-10.679c2.791-2.374,10.712-6.77,28.108-10.679C308.996,14.276,333.461,11.925,358.889,11.925
		 M358.889,1.133c-60.014,0-108.664,12.577-108.664,28.091c0,15.514,48.651,28.09,108.664,28.09
		c60.014,0,108.664-12.577,108.664-28.09C467.553,13.709,418.902,1.133,358.889,1.133L358.889,1.133z"/>
</g>
</svg>
