<?xml version="1.0" encoding="iso-8859-1"?>
<!-- Generator: Adobe Illustrator 18.1.1, SVG Export Plug-In . SVG Version: 6.00 Build 0)  -->
<!DOCTYPE svg PUBLIC "-//W3C//DTD SVG 1.1//EN" "http://www.w3.org/Graphics/SVG/1.1/DTD/svg11.dtd">
<svg version="1.1" xmlns="http://www.w3.org/2000/svg" xmlns:xlink="http://www.w3.org/1999/xlink" x="0px" y="0px"
	 viewBox="0 0 512 512" enable-background="new 0 0 512 512" xml:space="preserve">
<g id="Layer_6">
	<path fill="#F9F8F2" d="M111.61,435.36l3.092-7.395c0.326-0.78,1.499-0.399,1.304,0.424l-1.845,7.8
		c-0.141,0.594,0.505,1.063,1.027,0.746l6.848-4.165c0.722-0.439,1.447,0.558,0.806,1.109l-6.078,5.226
		c-0.463,0.398-0.216,1.157,0.392,1.207l7.989,0.655c0.842,0.069,0.842,1.302,0,1.371l-7.989,0.655
		c-0.609,0.05-0.855,0.809-0.392,1.207l6.078,5.226c0.641,0.551-0.084,1.548-0.806,1.109l-6.848-4.165
		c-0.522-0.317-1.167,0.152-1.027,0.746l1.845,7.8c0.195,0.822-0.978,1.203-1.304,0.424l-3.092-7.395
		c-0.236-0.563-1.034-0.563-1.269,0l-3.092,7.395c-0.326,0.78-1.499,0.399-1.304-0.424l1.845-7.8
		c0.141-0.594-0.505-1.063-1.027-0.746l-6.848,4.165c-0.722,0.439-1.447-0.558-0.806-1.109l6.078-5.226
		c0.463-0.398,0.216-1.157-0.392-1.207l-7.989-0.655c-0.842-0.069-0.842-1.302,0-1.371l7.989-0.655
		c0.609-0.05,0.855-0.809,0.392-1.207l-6.078-5.226c-0.641-0.551,0.084-1.548,0.806-1.109l6.848,4.165
		c0.522,0.317,1.167-0.152,1.027-0.746l-1.845-7.8c-0.195-0.822,0.978-1.203,1.304-0.424l3.092,7.395
		C110.576,435.923,111.375,435.923,111.61,435.36z M66.244,143.301l-3.092-7.395c-0.326-0.78-1.499-0.399-1.304,0.424l1.845,7.8
		c0.141,0.594-0.505,1.063-1.027,0.746l-6.848-4.165c-0.722-0.439-1.447,0.558-0.806,1.109l6.078,5.226
		c0.463,0.398,0.216,1.157-0.392,1.207l-7.989,0.655c-0.842,0.069-0.842,1.302,0,1.371l7.989,0.655
		c0.609,0.05,0.855,0.809,0.392,1.207l-6.078,5.226c-0.641,0.551,0.084,1.548,0.806,1.109l6.848-4.165
		c0.522-0.317,1.167,0.152,1.027,0.746l-1.845,7.8c-0.195,0.822,0.978,1.203,1.304,0.424l3.092-7.395
		c0.236-0.563,1.034-0.563,1.269,0l3.092,7.395c0.326,0.78,1.499,0.399,1.304-0.424l-1.845-7.8
		c-0.141-0.594,0.505-1.063,1.027-0.746l6.848,4.165c0.722,0.439,1.447-0.558,0.806-1.109l-6.078-5.226
		c-0.463-0.398-0.216-1.157,0.392-1.207l7.989-0.655c0.842-0.069,0.842-1.302,0-1.371l-7.989-0.655
		c-0.609-0.05-0.855-0.809-0.392-1.207l6.078-5.226c0.641-0.551-0.084-1.548-0.806-1.109l-6.848,4.165
		c-0.522,0.317-1.167-0.152-1.027-0.746l1.845-7.8c0.195-0.822-0.978-1.203-1.304-0.424l-3.092,7.395
		C67.278,143.864,66.48,143.864,66.244,143.301z M338.104,44.914l-2.065-4.939c-0.421-1.006-1.934-0.514-1.683,0.547l1.232,5.21
		c0.181,0.767-0.652,1.372-1.325,0.963l-4.574-2.782c-0.931-0.567-1.867,0.72-1.04,1.431l4.059,3.49
		c0.597,0.514,0.279,1.493-0.506,1.558l-5.336,0.438c-1.087,0.089-1.087,1.68,0,1.769l5.336,0.438
		c0.785,0.064,1.103,1.044,0.506,1.558l-4.059,3.49c-0.827,0.711,0.108,1.998,1.04,1.431l4.574-2.782
		c0.673-0.409,1.506,0.196,1.325,0.963l-1.232,5.21c-0.251,1.061,1.262,1.553,1.683,0.547l2.065-4.939
		c0.304-0.727,1.334-0.727,1.638,0l2.065,4.939c0.421,1.006,1.934,0.514,1.683-0.547l-1.232-5.21
		c-0.181-0.767,0.652-1.372,1.325-0.963l4.574,2.782c0.931,0.567,1.867-0.72,1.04-1.431l-4.059-3.49
		c-0.597-0.514-0.279-1.493,0.506-1.558l5.336-0.438c1.087-0.089,1.087-1.68,0-1.769l-5.336-0.438
		c-0.785-0.064-1.103-1.044-0.506-1.558l4.059-3.49c0.827-0.711-0.108-1.998-1.04-1.431l-4.574,2.782
		c-0.673,0.409-1.506-0.196-1.325-0.963l1.232-5.21c0.251-1.061-1.262-1.553-1.683-0.547l-2.065,4.939
		C339.438,45.641,338.408,45.641,338.104,44.914z"/>
</g>
<g id="Layer_1">
</g>
</svg>
