<svg xmlns="http://www.w3.org/2000/svg" viewBox="0 0 512 512" enable-background="new 0 0 512 512"><path fill="#FFD469" d="M242.408 173.306c-12.6-3.147-17.31-17.473-9.14-32.237 20.83-37.178 46.018-73.294 75.434-107.574 11.533-13.642 34.648-20.27 49.978-14.442 15.363 5.82 16.6 20.98 4.123 33.503-31.427 31.913-58.74 65.96-81.77 101.36-9.205 13.94-25.99 22.524-38.625 19.388zm111.065 60.733c24.794-15.26 51.373-29.05 79.586-41.054 16.22-6.866 23.4-20.562 14.59-31.082-8.77-10.512-30.763-13.235-47.483-5.425-28.934 13.375-56.17 28.533-81.56 45.16-14.705 9.666-17.574 24.763-7.807 33.202 9.806 8.455 28.377 7.93 42.673-.804z"/></svg>