<?xml version="1.0" encoding="iso-8859-1"?>
<!-- Generator: Adobe Illustrator 18.1.1, SVG Export Plug-In . SVG Version: 6.00 Build 0)  -->
<!DOCTYPE svg PUBLIC "-//W3C//DTD SVG 1.1//EN" "http://www.w3.org/Graphics/SVG/1.1/DTD/svg11.dtd">
<svg version="1.1" xmlns="http://www.w3.org/2000/svg" xmlns:xlink="http://www.w3.org/1999/xlink" x="0px" y="0px"
	 viewBox="0 0 512 512" enable-background="new 0 0 512 512" xml:space="preserve">
<g id="Layer_2">
	<path fill="#445056" d="M458.043,505.825H54.303c-26.486,0-47.957-21.471-47.957-47.957V54.132
		c0-26.486,21.471-47.957,47.957-47.957h403.74C484.529,6.175,506,27.646,506,54.132v403.736
		C506,484.354,484.529,505.825,458.043,505.825z"/>
</g>
<g id="Layer_3">
	<path fill="#F4F3EF" d="M110.171,468.114H55.075c-11.929,0-21.6-9.671-21.6-21.6V95.264h76.697c11.929,0,21.6,9.671,21.6,21.6
		v329.651C131.771,458.444,122.101,468.114,110.171,468.114z M247.588,446.514V116.864c0-11.929-9.671-21.6-21.6-21.6h-55.097
		c-11.929,0-21.6,9.671-21.6,21.6v329.651c0,11.929,9.671,21.6,21.6,21.6h55.097C237.917,468.114,247.588,458.444,247.588,446.514z
		 M363.405,446.514V116.864c0-11.929-9.671-21.6-21.6-21.6h-55.097c-11.929,0-21.6,9.671-21.6,21.6v329.651
		c0,11.929,9.671,21.6,21.6,21.6h55.097C353.734,468.114,363.405,458.444,363.405,446.514z M479.221,446.514V95.264h-76.697
		c-11.929,0-21.6,9.671-21.6,21.6v329.651c0,11.929,9.671,21.6,21.6,21.6h55.097C469.551,468.114,479.221,458.444,479.221,446.514z"
		/>
</g>
<g id="Layer_4">
	<path fill="#445056" d="M152.307,335.633h-24.163c-11.929,0-21.6-9.671-21.6-21.6V65.762c0-11.929,9.671-21.6,21.6-21.6h24.163
		c11.929,0,21.6,9.671,21.6,21.6v248.271C173.907,325.963,164.237,335.633,152.307,335.633z M289.854,314.033V65.762
		c0-11.929-9.671-21.6-21.6-21.6h-24.163c-11.929,0-21.6,9.671-21.6,21.6v248.271c0,11.929,9.671,21.6,21.6,21.6h24.163
		C280.184,335.633,289.854,325.963,289.854,314.033z M405.801,314.033V65.762c0-11.929-9.671-21.6-21.6-21.6h-24.163
		c-11.929,0-21.6,9.671-21.6,21.6v248.271c0,11.929,9.671,21.6,21.6,21.6h24.163C396.131,335.633,405.801,325.963,405.801,314.033z"
		/>
</g>
</svg>
