<?xml version="1.0" encoding="iso-8859-1"?>
<!-- Generator: Adobe Illustrator 18.1.1, SVG Export Plug-In . SVG Version: 6.00 Build 0)  -->
<!DOCTYPE svg PUBLIC "-//W3C//DTD SVG 1.1//EN" "http://www.w3.org/Graphics/SVG/1.1/DTD/svg11.dtd">
<svg version="1.1" xmlns="http://www.w3.org/2000/svg" xmlns:xlink="http://www.w3.org/1999/xlink" x="0px" y="0px"
	 viewBox="0 0 512 512" enable-background="new 0 0 512 512" xml:space="preserve">
<g id="Layer_10">
	<path fill="#85DBF9" d="M344.121,145.933c-4.019,0-7.808-2.439-9.336-6.415c-1.981-5.155,0.591-10.941,5.746-12.922l92.407-35.523
		c5.152-1.981,10.94,0.59,12.922,5.746s-0.591,10.941-5.746,12.922l-92.407,35.523C346.527,145.717,345.314,145.933,344.121,145.933
		z M410.171,169.8l92.407-35.523c5.155-1.981,7.728-7.767,5.746-12.922c-1.982-5.155-7.77-7.727-12.922-5.746l-92.407,35.523
		c-5.155,1.981-7.728,7.767-5.746,12.922c1.528,3.975,5.317,6.415,9.336,6.415C407.778,170.469,408.991,170.254,410.171,169.8z
		 M399.755,222.353l72.88-28.016c5.155-1.981,7.728-7.767,5.746-12.922c-1.982-5.156-7.769-7.726-12.922-5.746l-72.88,28.016
		c-5.155,1.981-7.728,7.767-5.746,12.922c1.528,3.975,5.317,6.415,9.336,6.415C397.362,223.022,398.575,222.807,399.755,222.353z"/>
</g>
<g id="Layer_1">
</g>
</svg>
