<svg xmlns="http://www.w3.org/2000/svg" viewBox="0 0 512 512" enable-background="new 0 0 512 512"><path fill="#2B3B47" d="M311.232 303.92c-2.378 0-4.64-1.212-5.94-3.285-.134-.205-5.277-8.068-13.174-9.576-.918-.176-1.88-.265-2.856-.265-6.798 0-12.833 4.248-12.89 4.29-2.414 1.788-5.696 1.844-8.166.138-2.47-1.705-3.582-4.794-2.765-7.683 3.29-11.63 13.968-19.755 25.967-19.755 1.695 0 3.405.163 5.084.483 13.84 2.644 23.18 15.265 21.723 29.357-.31 2.984-2.48 5.442-5.406 6.116-.525.122-1.052.18-1.575.18zm128.156 23.993c2.925-.674 5.098-3.132 5.406-6.116 1.456-14.093-7.882-26.714-21.722-29.357-1.68-.32-3.39-.483-5.084-.483-12 0-22.677 8.124-25.966 19.755-.817 2.89.294 5.978 2.765 7.683 2.47 1.707 5.752 1.65 8.165-.137.058-.043 6.093-4.29 12.89-4.29.98 0 1.94.088 2.857.263 7.895 1.51 13.04 9.372 13.172 9.577 1.302 2.073 3.563 3.286 5.94 3.286.524 0 1.05-.06 1.576-.18zm-57.07 94.227c9.714 6.686 22.617-1.99 19.867-13.46-5.007-20.873-20.74-46.1-53.564-52.368-32.998-6.3-57.182 11.88-69.483 29.642-6.65 9.6 1.893 22.428 13.28 19.835 13.083-2.98 30.206-4.88 48.247-1.434 17.14 3.274 31.267 10.637 41.653 17.784zM82.184 164.05c.048-.08 5.06-8.096 13.017-9.733.988-.203 2.026-.306 3.088-.306 6.782 0 12.687 4.09 12.714 4.11 1.224.88 2.66 1.32 4.098 1.32h.02c3.875 0 7.016-3.14 7.016-7.016 0-.916-.175-1.79-.495-2.593-3.578-11.102-14.04-18.802-25.658-18.802-1.816 0-3.647.187-5.44.556-13.807 2.84-22.982 15.594-21.343 29.663.348 2.982 2.554 5.413 5.49 6.046.493.106.99.158 1.48.158 2.426.002 4.726-1.26 6.013-3.4zm126.202-25.942c.05-.08 5.1-8.133 13.037-9.767.988-.202 2.027-.305 3.088-.305 6.782 0 12.688 4.09 12.714 4.108 1.224.88 2.66 1.32 4.098 1.32h.02c3.875 0 7.016-3.14 7.016-7.015 0-.916-.175-1.79-.495-2.593-3.58-11.103-14.04-18.803-25.658-18.803-1.816 0-3.646.187-5.44.556-13.806 2.84-22.98 15.594-21.342 29.663.346 2.968 2.543 5.373 5.46 6.02.503.112 1.01.167 1.51.167 2.403 0 4.694-1.245 5.992-3.35zm-78.758 74.005c-11.533-2.472-20.147 10.474-13.227 20.024 12.595 17.38 36.765 34.694 69.498 27.958 32.907-6.772 48.32-32.808 52.91-53.92 2.48-11.41-10.31-20.007-19.845-13.264-10.956 7.75-26.058 16.04-44.048 19.74-17.094 3.52-32.96 2.105-45.288-.537z"/></svg>