<svg xmlns="http://www.w3.org/2000/svg" viewBox="0 0 512 512" enable-background="new 0 0 512 512"><path fill="#597B91" d="M169.89 188.888v280.048c0 2.23-1.808 4.04-4.04 4.04H32.438c-2.23 0-4.04-1.81-4.04-4.04V188.888c0-2.23 1.81-4.04 4.04-4.04H165.85c2.232 0 4.04 1.808 4.04 4.04zm323.924 124.787v-8.408c0-1.92-1.556-3.476-3.476-3.476H372.705c-1.92 0-3.476 1.56-3.476 3.48v8.407c0 1.92 1.553 3.476 3.473 3.476h117.633c1.92 0 3.476-1.555 3.476-3.475zm0 68.85v-8.41c0-1.92-1.556-3.475-3.476-3.475H372.705c-1.92 0-3.476 1.556-3.476 3.476v8.408c0 1.92 1.553 3.476 3.473 3.476h117.633c1.92 0 3.476-1.556 3.476-3.476zm-203.696 12.72h-35.094v46.198h35.094v-46.198zm-96.627-92.69h117.306c1.14 0 2.154-.728 2.518-1.81l4.77-14.176c.58-1.725-.7-3.507-2.517-3.507H188.72c-1.817 0-3.097 1.782-2.518 3.504l4.77 14.176c.365 1.08 1.378 1.81 2.52 1.81z"/></svg>