<svg xmlns="http://www.w3.org/2000/svg" viewBox="0 0 512 512" enable-background="new 0 0 512 512"><path fill="#00B89C" d="M194.836 250.92c-41.694-17.61-77.172-49.704-98.847-85.267-10.83-17.796-18.698-35.324-23.54-49.142-4.948-13.565-6.897-23.37-6.897-23.37.004 0 8.407-5.236 21.617-10.917 13.31-5.906 31.377-12.142 51.722-16.506 40.638-8.61 88.45-5.26 130.094 12.466 41.695 17.607 77.17 49.703 98.848 85.266 10.828 17.795 18.696 35.324 23.54 49.14 4.948 13.57 6.896 23.373 6.896 23.373s-8.403 5.235-21.617 10.917c-13.31 5.905-31.376 12.14-51.72 16.506-40.64 8.61-88.453 5.26-130.097-12.466zm15.67 174.116c-8.416 12.948-14.654 25.69-18.562 35.764-3.975 9.908-5.654 17.06-5.654 17.06s6.157 4.137 15.865 8.683c9.782 4.73 23.1 9.832 38.112 13.522 30.022 7.355 65.487 5.66 96.637-6.91 31.185-12.48 58.087-35.752 74.953-61.56 8.416-12.948 14.653-25.688 18.56-35.763 3.975-9.905 5.653-17.058 5.653-17.058l.002-.003c-.003 0-6.16-4.135-15.865-8.68-9.782-4.733-23.1-9.833-38.112-13.523-30.02-7.355-65.487-5.66-96.637 6.908-31.184 12.483-58.086 35.755-74.953 61.562z"/></svg>