<?xml version="1.0" encoding="iso-8859-1"?>
<!-- Generator: Adobe Illustrator 18.1.1, SVG Export Plug-In . SVG Version: 6.00 Build 0)  -->
<!DOCTYPE svg PUBLIC "-//W3C//DTD SVG 1.1//EN" "http://www.w3.org/Graphics/SVG/1.1/DTD/svg11.dtd">
<svg version="1.1" xmlns="http://www.w3.org/2000/svg" xmlns:xlink="http://www.w3.org/1999/xlink" x="0px" y="0px"
	 viewBox="0 0 512 512" enable-background="new 0 0 512 512" xml:space="preserve">
<g id="Layer_5">
	<path fill="#FFA9BA" d="M461.867,181.202c0,72.104,0.115,141.751-31.488,141.751c-31.603,0-19.797-20.364-48.481-13.664
		c-28.685,6.701-21.701,70.13-62.199,70.13c-40.136,0-26.373-38.367-63.269-39.053c-36.765,0.686-15.713,39.053-55.849,39.053
		c-40.498,0-40.937-63.429-69.622-70.13c-28.685-6.701-16.879,13.664-48.481,13.664c-31.603,0-31.488-69.647-31.488-141.751
		c0-51.405,130.507-2.535,205.438,29.76C331.36,178.667,461.867,129.797,461.867,181.202z"/>
</g>
<g id="Layer_1">
</g>
</svg>
