<?xml version="1.0" encoding="iso-8859-1"?>
<!-- Generator: Adobe Illustrator 18.1.0, SVG Export Plug-In . SVG Version: 6.00 Build 0)  -->
<!DOCTYPE svg PUBLIC "-//W3C//DTD SVG 1.1//EN" "http://www.w3.org/Graphics/SVG/1.1/DTD/svg11.dtd">
<svg version="1.1" xmlns="http://www.w3.org/2000/svg" xmlns:xlink="http://www.w3.org/1999/xlink" x="0px" y="0px"
	 viewBox="0 0 512 512" enable-background="new 0 0 512 512" xml:space="preserve">
<g id="Layer_2">
	<path fill="#E5AA6E" d="M255.956,508c-25.731,0-46.587-3.885-46.587-37.562l8.532-307.898c0-33.677,12.324-60.975,38.055-60.975
		s38.055,27.298,38.055,60.975l8.532,307.898C302.543,504.115,281.687,508,255.956,508z"/>
</g>
<g id="Layer_3">
	<path fill="#AF773F" d="M252.725,478.299c-14.513,0-29.057-0.802-43.146-2.386c-0.133-1.735-0.21-3.55-0.21-5.475l0.773-27.908
		c12.788,1.534,26.985,2.433,42.583,2.433c18.267,0,34.614-1.232,49.022-3.275l0.797,28.75c0,1.637-0.064,3.183-0.161,4.683
		C286.287,477.23,269.486,478.299,252.725,478.299z M212.214,367.746l-0.924,33.333c13.554,1.458,27.508,2.195,41.434,2.195
		c16.143,0,32.324-0.989,47.876-2.946l-0.925-33.379c-13.899,1.871-29.553,2.989-46.951,2.989
		C237.964,369.938,224.459,369.133,212.214,367.746z M214.287,292.948l-0.923,33.321c12.902,1.314,26.144,1.981,39.361,1.981
		c15.427,0,30.889-0.906,45.804-2.694l-0.924-33.361c-13.378,1.707-28.34,2.719-44.879,2.719
		C238.791,294.914,225.979,294.194,214.287,292.948z M216.36,218.14l-0.923,33.314c12.245,1.178,24.778,1.771,37.288,1.771
		c14.714,0,29.459-0.824,43.731-2.451l-0.924-33.345c-12.845,1.55-27.118,2.459-42.807,2.459
		C239.612,219.889,227.488,219.254,216.36,218.14z"/>
</g>
<g id="Layer_4">
	<path fill="#1B871B" d="M440.128,23.229c0,0-0.909-0.408-2.611-1.093c-1.723-0.664-4.14-1.662-7.474-2.641
		c-1.645-0.471-3.508-1.069-5.504-1.574c-1.989-0.507-4.151-1.023-6.473-1.54c-2.319-0.491-4.794-0.933-7.419-1.39
		c-2.623-0.44-5.382-0.772-8.282-1.141c-2.894-0.32-5.912-0.548-9.053-0.779c-3.128-0.134-6.383-0.295-9.724-0.3
		c-1.672-0.007-3.366,0.017-5.083,0.05c-1.72,0.012-3.46,0.079-5.214,0.192c-1.755,0.105-3.54,0.185-5.334,0.318
		c-1.794,0.174-3.606,0.35-5.432,0.527c-3.654,0.362-7.362,0.949-11.118,1.535c-1.878,0.315-3.763,0.688-5.654,1.072
		c-1.893,0.376-3.803,0.75-5.703,1.238c-1.904,0.473-3.815,0.948-5.732,1.424c-1.914,0.532-3.817,1.125-5.736,1.691
		c-0.958,0.292-1.92,0.563-2.878,0.875l-2.86,1c-1.905,0.687-3.823,1.313-5.724,2.062c-3.776,1.557-7.587,3.04-11.287,4.896
		c-3.742,1.683-7.382,3.763-10.988,5.751c-7.199,4.169-13.978,9.122-20.033,14.707c-5.798,5.569-10.929,11.633-15.001,18.103
		c-4.216-6.657-9.568-12.869-15.674-18.443c-6.163-5.504-13.161-10.133-20.347-14.304c-3.642-1.922-7.279-4-11.042-5.634
		c-1.875-0.836-3.732-1.78-5.629-2.52l-5.694-2.265c-7.629-2.793-15.31-5.23-22.948-6.898c-0.952-0.221-1.9-0.46-2.849-0.664
		c-0.952-0.185-1.902-0.37-2.85-0.555c-1.896-0.355-3.774-0.74-5.648-1.058c-3.763-0.537-7.452-1.168-11.111-1.486
		c-1.823-0.199-3.631-0.375-5.423-0.525c-1.796-0.111-3.566-0.246-5.324-0.322c-3.504-0.23-6.948-0.215-10.278-0.255
		c-3.338,0.02-6.581,0.139-9.707,0.281c-1.565,0.095-3.103,0.21-4.61,0.336c-1.507,0.128-2.977,0.214-4.425,0.4
		c-2.892,0.336-5.647,0.666-8.265,1.077c-2.62,0.433-5.09,0.862-7.405,1.319c-2.319,0.502-4.477,0.991-6.463,1.47
		c-1.994,0.504-3.852,1.048-5.495,1.499c-3.33,0.941-5.748,1.886-7.47,2.52c-1.702,0.655-2.611,1.04-2.611,1.04
		c-0.753,0.321-1.401,0.918-1.766,1.722c-0.776,1.708-0.02,3.721,1.688,4.496c0,0,0.898,0.408,2.584,1.106
		c0.843,0.333,1.882,0.744,3.104,1.228c1.24,0.435,2.591,1.018,4.101,1.618c3.003,1.133,6.654,2.629,10.821,4.16
		c4.102,1.556,8.731,3.311,13.78,5.226c2.494,0.947,5.07,1.978,7.731,2.945c2.634,1.025,5.357,2.084,8.157,3.173
		c1.384,0.546,2.788,1.1,4.209,1.661c1.423,0.529,2.848,1.106,4.28,1.698c1.432,0.597,2.887,1.144,4.347,1.721
		c1.447,0.616,2.904,1.227,4.377,1.814c1.475,0.583,2.947,1.208,4.417,1.839c1.471,0.619,2.953,1.243,4.443,1.871
		c1.47,0.643,2.949,1.29,4.436,1.94c1.484,0.65,2.975,1.28,4.437,1.969c1.474,0.666,2.939,1.364,4.426,2.001
		c1.451,0.694,2.906,1.39,4.365,2.087l2.186,1.025l2.143,1.078c1.419,0.729,2.874,1.412,4.276,2.138
		c5.634,2.912,11.023,5.938,16.121,9.014c2.446,1.62,5,3.091,7.241,4.756c2.396,1.541,4.51,3.179,6.783,4.635
		c1.054,0.778,2.092,1.546,3.167,2.273c0.518,0.376,1.102,0.711,1.583,1.095c0.49,0.382,0.992,0.75,1.494,1.116
		c0.498,0.37,1.013,0.722,1.522,1.079c0.253,0.18,0.512,0.353,0.775,0.523l0.711,0.547c0.933,0.739,1.891,1.45,2.881,2.131
		c0.518,0.332,0.913,0.722,1.374,1.07c0.458,0.355,0.912,0.707,1.363,1.056c0.453,0.353,0.911,0.701,1.39,1.034
		c0.49,0.331,0.857,0.711,1.293,1.062c0.844,0.713,1.739,1.393,2.61,2.088c0.875,0.684,1.605,1.427,2.451,2.118
		c3.341,2.781,6.244,5.695,9.039,8.538c0.779,0.687,1.296,1.441,1.961,2.142c0.626,0.712,1.25,1.412,1.881,2.097
		c0.317,0.347,0.627,0.686,0.931,1.018c0.273,0.348,0.541,0.689,0.802,1.021c0.556,0.684,1.086,1.335,1.59,1.954
		c1.064,1.251,1.97,2.431,2.763,3.491c0.449,0.955,0.876,1.778,1.23,2.469c0.473,0.915,0.868,1.601,1.152,2.061
		c0.274,0.457,0.416,0.693,0.416,0.693c0.233,0.386,0.549,0.746,0.932,1.033c0.899,0.674,2.007,0.849,3.02,0.602
		c1.34,0.146,2.711-0.431,3.501-1.635c0,0,0.155-0.236,0.455-0.693c0.312-0.46,0.731-1.147,1.254-2.065
		c0.628-1.152,1.491-2.671,2.314-4.566c0.365-0.467,0.742-0.945,1.112-1.444c1.845-2.582,4.321-5.436,6.887-8.383
		c2.729-2.908,5.611-5.898,8.964-8.743c0.833-0.715,1.594-1.46,2.464-2.166c0.883-0.707,1.792-1.396,2.646-2.121
		c0.444-0.356,0.818-0.74,1.316-1.075c0.485-0.338,0.955-0.687,1.416-1.043c0.46-0.352,0.924-0.706,1.391-1.063
		c0.474-0.348,0.883-0.737,1.409-1.069c1.003-0.688,2-1.383,2.953-2.119l0.728-0.544l0.799-0.511
		c0.515-0.354,1.034-0.71,1.555-1.068c1.993-1.469,4.308-2.828,6.438-4.343c4.528-2.887,9.31-5.872,14.338-8.988
		c5.162-2.955,10.538-5.987,16.211-8.785c5.684-2.799,11.475-5.609,17.414-8.174c2.919-1.378,5.941-2.536,8.863-3.875
		c2.99-1.177,5.895-2.535,8.853-3.661c1.469-0.609,2.925-1.214,4.368-1.812c1.461-0.555,2.902-1.156,4.337-1.726
		c2.856-1.195,5.708-2.228,8.47-3.373c5.625-2.193,10.943-4.265,15.852-6.179c2.504-0.973,4.904-1.906,7.186-2.793
		c2.298-0.869,4.491-1.745,6.563-2.567c2.074-0.789,4.026-1.559,5.841-2.301c1.805-0.729,3.464-1.399,4.961-2.004
		c2.983-1.274,5.537-2.235,7.202-2.967c1.685-0.728,2.583-1.159,2.583-1.159c0.703-0.338,1.3-0.919,1.645-1.686
		C442.626,26.034,441.855,24.005,440.128,23.229z"/>
</g>
<g id="Layer_5">
	<path fill="#2BA52E" d="M501.531,208.776c-0.01-1.158-0.023-2.587-0.038-4.267c0.025-0.808-0.108-1.83-0.193-2.857
		c-0.11-1.045-0.227-2.155-0.35-3.328c-0.131-1.186-0.269-2.436-0.414-3.747c-0.187-1.273-0.422-2.567-0.651-3.947
		c-0.453-2.752-0.98-5.749-1.818-8.861c-0.395-1.576-0.803-3.203-1.222-4.878c-0.42-1.684-1.014-3.342-1.544-5.096
		c-0.551-1.743-1.121-3.542-1.776-5.352c-0.708-1.789-1.432-3.62-2.171-5.489c-0.376-0.94-0.755-1.89-1.138-2.849
		c-0.409-0.945-0.859-1.877-1.297-2.834c-0.893-1.913-1.803-3.863-2.729-5.846c-0.975-1.96-2.089-3.877-3.177-5.869
		c-0.552-0.993-1.109-1.994-1.669-3.002c-0.586-0.991-1.215-1.96-1.831-2.954c-4.814-8.052-10.78-16.038-17.653-23.818
		c-1.761-1.918-3.536-3.851-5.324-5.799c-1.899-1.857-3.811-3.727-5.735-5.609l-1.459-1.415c-0.493-0.466-1.014-0.899-1.523-1.352
		c-1.027-0.897-2.057-1.796-3.09-2.697c-1.049-0.889-2.1-1.781-3.154-2.675c-1.071-0.874-2.195-1.686-3.299-2.534
		c-1.114-0.84-2.231-1.681-3.349-2.524c-1.124-0.84-2.236-1.707-3.425-2.468c-2.36-1.569-4.727-3.143-7.099-4.719l-0.448-0.295
		c-0.372-0.184,0.674,0.308-0.862-0.431l-0.098-0.059l-0.195-0.118l-0.78-0.472l-1.562-0.944l-3.127-1.891
		c-1.779-1.194-4.923-2.694-7.674-4.072l-4.244-2.09c-0.73-0.371-1.37-0.623-2.048-0.923l-2.015-0.87l-4.046-1.73
		c-1.351-0.578-2.703-1.157-4.091-1.649c-2.778-1.019-5.551-2.036-8.316-3.05c-2.822-0.88-5.665-1.712-8.511-2.539
		c-0.713-0.202-1.421-0.423-2.138-0.606l-2.167-0.502c-1.45-0.329-2.896-0.658-4.339-0.985c-1.453-0.286-2.893-0.622-4.356-0.85
		c-1.469-0.211-2.935-0.422-4.395-0.631c-1.468-0.202-2.931-0.404-4.39-0.604c-1.456-0.203-2.942-0.21-4.409-0.311
		c-1.471-0.085-2.939-0.151-4.402-0.181c-1.465-0.029-2.917-0.115-4.385-0.035c-11.681,0.173-23.106,2.611-33.431,6.398
		c-2.58,1.007-5.126,1.873-7.547,3.106c-2.429,1.197-4.816,2.355-7.098,3.605c-1.154,0.576-2.25,1.34-3.337,2.031
		c-1.083,0.711-2.16,1.4-3.203,2.117c-1.033,0.724-2.057,1.441-3.071,2.152c-0.978,0.791-1.926,1.598-2.864,2.385
		c-0.942,0.78-1.841,1.596-2.732,2.388c-0.885,0.804-1.775,1.548-2.581,2.414c-1.628,1.709-3.147,3.437-4.597,5.111
		c-0.355,0.426-0.707,0.849-1.057,1.27l-0.519,0.628l-0.257,0.312c-0.135,0.114,0.212-0.144-0.319,0.274l-0.044,0.068l-0.087,0.135
		c-0.234,0.355-0.455,0.724-0.677,1.086c-0.242,0.38-0.38,0.667-0.777,1.182c-0.663,0.911-1.379,1.892-1.899,2.746
		c-0.536,0.862-1.062,1.702-1.526,2.578c-0.994,1.725-1.871,3.435-2.647,5.117c-0.177-0.32-0.356-0.637-0.557-0.977
		c-0.31-0.494-0.622-0.992-0.936-1.493l-0.5-0.736c-0.151-0.228-0.379-0.538-0.452-0.681c-0.21-0.353-0.421-0.708-0.634-1.065
		l-0.339-0.519l-0.17-0.261c-0.555-0.546-0.191-0.197-0.331-0.34l-0.064-0.08l-0.128-0.161c-0.346-0.425-0.683-0.869-1.048-1.288
		c-2.889-3.396-6.157-6.807-9.81-10.035c-3.626-3.324-7.676-6.333-12.004-9.336c-2.191-1.418-4.449-2.797-6.797-4.123
		c-2.327-1.387-4.75-2.589-7.25-3.732c-2.508-1.115-5.029-2.362-7.666-3.262c-2.641-0.913-5.31-1.88-8.03-2.728
		c-2.749-0.702-5.528-1.401-8.337-2.073c-1.407-0.348-2.832-0.546-4.26-0.782c-1.429-0.226-2.86-0.468-4.303-0.672
		c-11.54-1.57-23.466-1.436-35.208-0.135c-2.927,0.414-5.851,0.862-8.767,1.314c-0.728,0.12-1.46,0.214-2.184,0.358l-2.166,0.461
		l-4.324,0.921c-1.437,0.319-2.884,0.58-4.305,0.955l-4.251,1.163c-2.839,0.794-5.569,1.494-8.655,2.589l-4.481,1.518l-2.225,0.771
		l-1.108,0.388l-0.847,0.363c-2.226,0.965-4.449,1.93-6.668,2.892l-0.832,0.361c0.145-0.046-1.617,0.549-0.929,0.325l-0.121,0.058
		l-0.242,0.117l-0.484,0.234l-1.929,0.936c-1.276,0.636-2.55,1.271-3.823,1.905c-2.562,1.219-4.996,2.657-7.421,4.058
		C76.814,86,68.015,92.54,60.193,99.444c-0.981,0.854-1.959,1.705-2.932,2.552c-0.93,0.895-1.856,1.787-2.777,2.674
		c-1.825,1.787-3.677,3.484-5.327,5.367c-1.655,1.855-3.293,3.691-4.911,5.504c-1.603,1.81-3.039,3.748-4.516,5.571
		c-0.727,0.92-1.449,1.834-2.166,2.741c-0.706,0.915-1.347,1.879-2.012,2.804c-1.311,1.867-2.611,3.683-3.824,5.511
		c-1.133,1.887-2.246,3.742-3.339,5.562c-0.538,0.906-1.07,1.804-1.598,2.693c-0.503,0.905-0.964,1.829-1.437,2.726
		c-0.928,1.795-1.836,3.552-2.724,5.269c-0.867,1.719-1.595,3.479-2.317,5.165c-0.704,1.701-1.438,3.313-2.042,4.941
		c-0.577,1.635-1.137,3.224-1.679,4.763c-0.514,1.545-1.1,2.98-1.489,4.457c-0.421,1.459-0.799,2.872-1.149,4.227
		c-0.348,1.349-0.683,2.644-1.002,3.881c-0.26,1.299-0.508,2.537-0.743,3.713c-0.225,1.162-0.439,2.262-0.639,3.297
		c-0.17,1.017-0.401,2.034-0.44,2.839c-0.154,1.672-0.285,3.094-0.391,4.246c-0.189,2.313-0.29,3.547-0.29,3.547
		c-0.174,2.204,0.788,4.451,2.73,5.81c2.919,2.043,6.942,1.333,8.985-1.586l0.331-0.473c0,0,0.182-0.26,0.534-0.763
		c0.346-0.505,0.893-1.244,1.528-2.232c0.647-0.984,1.446-2.198,2.385-3.625c0.453-0.767,1.02-1.327,1.563-2.047
		c0.535-0.689,1.104-1.421,1.706-2.195c0.591-0.767,1.228-1.557,1.843-2.394c0.71-0.848,1.453-1.735,2.227-2.66
		c0.777-0.916,1.571-1.866,2.362-2.856c0.772-0.998,1.756-1.941,2.659-2.953c0.937-0.996,1.863-2.034,2.805-3.096
		c0.967-1.049,2.066-2.063,3.123-3.127c1.101-1.038,2.093-2.172,3.253-3.234c1.159-1.049,2.344-2.122,3.555-3.218
		c0.596-0.544,1.197-1.093,1.805-1.648c0.635-0.529,1.277-1.064,1.925-1.604c1.28-1.068,2.585-2.156,3.912-3.263
		c1.415-1.02,2.784-2.103,4.182-3.179c0.705-0.533,1.38-1.098,2.116-1.612c0.742-0.505,1.489-1.013,2.242-1.525
		c5.844-4.236,12.378-8.073,19.147-11.658c1.724-0.853,3.412-1.773,5.165-2.592c1.747-0.811,3.507-1.627,5.278-2.449
		c1.781-0.78,3.629-1.438,5.434-2.174c1.778-0.799,3.637-1.412,5.48-2.06c1.842-0.651,3.667-1.349,5.567-1.826l2.814-0.81
		l1.392-0.442l0.348-0.111l0.174-0.056l0.087-0.028c0.777-0.259-0.964,0.322-0.742,0.252l0.874-0.227
		c2.332-0.606,4.669-1.213,7.007-1.82l0.866-0.222l0.632-0.093l1.259-0.192l2.5-0.41c1.532-0.376,3.55-0.599,5.43-0.874
		c0.95-0.123,1.888-0.307,2.829-0.469c0.941-0.157,1.892-0.206,2.835-0.319c1.892-0.13,3.759-0.592,5.639-0.655
		c1.878-0.097,3.743-0.351,5.61-0.533c5.671-0.392,11.277-0.614,16.804-0.623c-4.705,1.087-9.338,2.513-13.839,4.28
		c-9.667,3.792-18.796,9.017-27.133,15.81c-2.106,1.671-4.111,3.513-6.104,5.423c-0.991,0.951-1.985,1.936-2.937,2.962l-1.432,1.563
		l-1.642,1.863c-0.323,0.364-0.414,0.496-0.578,0.7l-0.458,0.579l-0.229,0.29l-0.057,0.072c0.043-0.045-0.557,0.625-0.341,0.39
		l-0.159,0.2l-0.629,0.804c-0.818,1.081-1.677,2.157-2.437,3.245c-0.758,1.089-1.514,2.177-2.269,3.263
		c-0.707,1.09-1.401,2.184-2.074,3.287c-5.334,8.78-8.968,17.669-11.57,26.282c-1.312,4.306-2.277,8.575-3.1,12.737
		c-0.758,4.178-1.328,8.261-1.674,12.243c-0.696,7.962-0.575,15.496,0.082,22.394c0.688,6.908,1.948,13.185,3.528,18.647
		c1.571,5.464,3.488,10.106,5.356,13.793c0.88,1.85,1.879,3.453,2.689,4.826c0.841,1.419,1.721,2.671,2.347,3.593
		c1.295,1.529,2.036,2.329,2.036,2.329c1.133,1.222,2.69,2.077,4.473,2.308c4.05,0.526,7.759-2.33,8.285-6.38l0.001-0.006
		c0,0,0.14-1.081,0.31-3.078c0.158-0.869,0.409-1.812,0.629-3.004c0.237-1.249,0.552-2.654,0.898-4.22
		c1.448-6.247,4.018-14.881,7.926-24.628c1.979-4.871,4.243-10.018,6.844-15.224c0.651-1.301,1.302-2.611,2.013-3.907
		c0.654-1.316,1.396-2.604,2.106-3.909c1.455-2.589,2.975-5.167,4.559-7.677c1.622-2.487,3.238-4.95,4.956-7.263
		c0.863-1.138,1.712-2.296,2.609-3.354c0.849-1.116,1.752-2.126,2.635-3.135c0.458-0.478,0.898-0.967,1.326-1.463l1.329-1.364
		c0.437-0.46,0.896-0.837,1.333-1.265l0.323-0.318l0.08-0.08c0.255-0.282-0.305,0.341-0.22,0.252l0.067-0.064l0.267-0.255
		l0.535-0.509c0.168-0.158,0.403-0.394,0.425-0.38c0.14-0.085,0.274-0.172,0.404-0.263l0.669-0.513c0.47-0.336,0.9-0.716,1.39-1.068
		c0.941-0.728,1.973-1.413,2.999-2.146c4.17-2.856,8.847-5.563,13.495-7.828c4.663-2.279,9.31-4.087,13.69-5.459
		c4.393-1.356,8.512-2.273,12.499-2.759c3.98-0.472,7.91-0.529,11.883-0.012c3.955,0.515,7.945,1.584,11.655,3.003
		c3.728,1.386,7.131,3.119,10.054,4.669c1.488,0.76,2.74,1.564,3.948,2.214c1.155,0.69,2.161,1.298,3.009,1.787
		c1.635,1.021,2.611,1.555,2.611,1.555l0.549,0.302c1.036,0.562,2.218,0.892,3.478,0.919c0.654,0.014,1.287-0.063,1.896-0.204
		c1.767,0.411,3.684,0.206,5.4-0.734l0.518-0.284c0,0,0.976-0.534,2.611-1.555c0.848-0.488,1.854-1.097,3.009-1.787
		c1.208-0.65,2.46-1.454,3.948-2.214c2.922-1.55,6.326-3.284,10.054-4.669c3.71-1.419,7.699-2.488,11.655-3.003
		c3.973-0.517,7.902-0.461,11.883,0.012c3.987,0.486,8.106,1.403,12.499,2.759c4.381,1.372,9.027,3.18,13.69,5.459
		c4.648,2.265,9.324,4.972,13.495,7.828c1.026,0.733,2.058,1.418,2.999,2.146c0.49,0.352,0.92,0.731,1.39,1.068l0.669,0.513
		c0.13,0.091,0.265,0.179,0.404,0.263c0.022-0.014,0.257,0.222,0.425,0.38l0.535,0.509l0.267,0.255l0.067,0.064
		c0.085,0.09-0.475-0.534-0.22-0.252l0.08,0.08l0.323,0.318c0.437,0.427,0.896,0.804,1.333,1.265l1.329,1.364
		c0.428,0.496,0.868,0.985,1.326,1.463c0.883,1.009,1.786,2.019,2.635,3.135c0.897,1.059,1.746,2.216,2.609,3.354
		c1.718,2.313,3.334,4.776,4.956,7.263c1.583,2.509,3.104,5.088,4.559,7.677c0.71,1.305,1.452,2.593,2.106,3.909
		c0.711,1.297,1.362,2.607,2.013,3.907c2.601,5.206,4.866,10.353,6.844,15.224c3.909,9.747,6.478,18.38,7.926,24.628
		c0.346,1.565,0.662,2.971,0.898,4.22c0.22,1.192,0.471,2.135,0.629,3.004c0.17,1.997,0.31,3.078,0.31,3.078l0.002,0.014
		c0.216,1.653,0.989,3.243,2.307,4.464c2.996,2.775,7.675,2.595,10.449-0.401c0,0,0.741-0.8,2.036-2.329
		c0.626-0.922,1.506-2.174,2.347-3.593c0.81-1.373,1.809-2.976,2.689-4.826c1.868-3.687,3.785-8.329,5.356-13.793
		c1.58-5.461,2.84-11.739,3.528-18.647c0.657-6.898,0.778-14.432,0.082-22.394c-0.346-3.981-0.916-8.065-1.674-12.243
		c-0.823-4.162-1.788-8.431-3.1-12.737c-2.602-8.614-6.237-17.502-11.57-26.282c-0.673-1.102-1.367-2.197-2.074-3.287
		c-0.755-1.086-1.512-2.173-2.269-3.263c-0.76-1.088-1.619-2.164-2.437-3.245l-0.629-0.804l-0.159-0.2
		c0.215,0.235-0.384-0.435-0.341-0.39l-0.057-0.072l-0.229-0.29l-0.458-0.579c-0.164-0.205-0.255-0.336-0.578-0.7l-1.642-1.863
		l-1.432-1.563c-0.952-1.026-1.946-2.012-2.937-2.962c-1.992-1.91-3.998-3.752-6.104-5.423c-8.337-6.792-17.466-12.018-27.133-15.81
		c-8.81-3.46-18.114-5.648-27.509-6.406c0.394-0.009,0.786-0.018,1.182-0.026c0.847-0.024,1.7-0.047,2.557-0.071
		c0.428-0.006,0.847-0.043,1.284-0.026l1.314,0.066c1.756,0.107,3.49,0.108,5.249,0.204c1.782,0.188,3.562,0.38,5.338,0.536
		c3.583,0.403,7.173,0.919,10.808,1.599c0.906,0.166,1.814,0.306,2.723,0.429c0.909,0.14,1.821,0.389,2.733,0.571
		c0.913,0.17,1.828,0.341,2.746,0.512c0.916,0.16,1.834,0.327,2.752,0.557c0.918,0.207,1.837,0.415,2.759,0.623l2.781,0.542
		c1.834,0.517,3.698,0.925,5.566,1.353c0.938,0.192,1.865,0.454,2.794,0.714l2.798,0.76c0.909,0.253,1.947,0.446,2.771,0.703
		l2.46,0.75c1.72,0.497,3.106,0.693,5.635,1.737l3.406,1.281l1.701,0.64l0.85,0.32l0.212,0.08l0.106,0.04
		c-1.505-0.719-0.368-0.178-0.682-0.329l0.34,0.148c1.812,0.798,3.641,1.569,5.497,2.299c0.938,0.344,1.822,0.802,2.721,1.229
		c0.901,0.43,1.8,0.859,2.698,1.287c0.896,0.437,1.815,0.833,2.695,1.298c0.874,0.481,1.745,0.96,2.615,1.438
		c0.885,0.464,1.768,0.927,2.649,1.389c0.439,0.235,0.891,0.451,1.32,0.701l1.272,0.771c1.71,1.026,3.409,2.046,5.096,3.058
		c1.616,1.118,3.281,2.173,4.919,3.253c1.682,1.031,3.192,2.244,4.759,3.381c1.538,1.168,3.16,2.243,4.614,3.468
		c1.499,1.197,2.983,2.381,4.448,3.551c1.409,1.232,2.769,2.487,4.183,3.682c0.694,0.608,1.408,1.197,2.08,1.812
		c0.651,0.634,1.298,1.263,1.94,1.887c1.301,1.257,2.582,2.495,3.841,3.712c1.21,1.274,2.399,2.527,3.566,3.756
		c0.584,0.621,1.185,1.227,1.745,1.849c0.53,0.638,1.076,1.261,1.617,1.88c1.089,1.248,2.156,2.469,3.199,3.663
		c1.006,1.223,1.905,2.467,2.874,3.648c0.928,1.198,1.928,2.34,2.747,3.52c0.821,1.179,1.628,2.331,2.443,3.443
		c0.781,1.124,1.654,2.185,2.294,3.282c0.672,1.087,1.356,2.131,2.027,3.138c0.659,1.007,1.324,1.989,1.91,2.918
		c0.535,0.919,1.045,1.796,1.529,2.628c0.493,0.848,0.96,1.651,1.399,2.407c0.446,0.78,0.93,1.42,1.284,2.231
		c0.752,1.526,1.391,2.824,1.909,3.877c0.508,1.055,0.947,1.853,1.224,2.395c0.282,0.541,0.428,0.82,0.428,0.82l0.236,0.455
		c1.073,2.047,3.227,3.434,5.697,3.412c3.515-0.031,6.34-2.906,6.309-6.422C501.562,212.329,501.551,211.093,501.531,208.776z
		 M255.468,153.647c0.39-0.071,0.773-0.176,1.145-0.315c-0.229,0.442-0.444,0.878-0.656,1.314
		C255.794,154.313,255.64,153.984,255.468,153.647z"/>
</g>
</svg>
