<svg xmlns="http://www.w3.org/2000/svg" viewBox="0 0 512 512" enable-background="new 0 0 512 512"><path fill="#00B1FF" d="M174.33 160.643h-21.992c-3.976 0-7.2-3.224-7.2-7.2V83.99c0-3.977 3.224-7.2 7.2-7.2h21.992c3.976 0 7.2 3.223 7.2 7.2v69.453c0 3.976-3.224 7.2-7.2 7.2zm70.847-7.2V83.99c0-3.977-3.224-7.2-7.2-7.2h-21.992c-3.976 0-7.2 3.223-7.2 7.2v69.453c0 3.976 3.224 7.2 7.2 7.2h21.992c3.977 0 7.2-3.224 7.2-7.2zm63.648 0V83.99c0-3.977-3.224-7.2-7.2-7.2h-21.992c-3.976 0-7.2 3.223-7.2 7.2v69.453c0 3.976 3.224 7.2 7.2 7.2h21.992c3.977 0 7.2-3.224 7.2-7.2zm63.648 0V83.99c0-3.977-3.224-7.2-7.2-7.2H343.28c-3.975 0-7.2 3.223-7.2 7.2v69.453c0 3.976 3.225 7.2 7.2 7.2h21.993c3.976 0 7.2-3.224 7.2-7.2zm-190.943 70.82v-21.79c0-3.976-3.224-7.2-7.2-7.2h-21.992c-3.976 0-7.2 3.224-7.2 7.2v21.79c0 3.976 3.224 7.2 7.2 7.2h21.992c3.976 0 7.2-3.224 7.2-7.2zm63.647 0v-21.79c0-3.976-3.224-7.2-7.2-7.2h-21.992c-3.976 0-7.2 3.224-7.2 7.2v21.79c0 3.976 3.224 7.2 7.2 7.2h21.992c3.977 0 7.2-3.224 7.2-7.2zm63.648 0v-21.79c0-3.976-3.224-7.2-7.2-7.2h-21.992c-3.976 0-7.2 3.224-7.2 7.2v21.79c0 3.976 3.224 7.2 7.2 7.2h21.992c3.977 0 7.2-3.224 7.2-7.2zm-63.648 69.818v-21.79c0-3.975-3.224-7.2-7.2-7.2h-21.992c-3.976 0-7.2 3.225-7.2 7.2v21.79c0 3.977 3.224 7.2 7.2 7.2h21.992c3.977 0 7.2-3.222 7.2-7.2zm63.648 0v-21.79c0-3.975-3.224-7.2-7.2-7.2h-21.992c-3.976 0-7.2 3.225-7.2 7.2v21.79c0 3.977 3.224 7.2 7.2 7.2h21.992c3.977 0 7.2-3.222 7.2-7.2zm-63.648 69.82v-21.79c0-3.976-3.224-7.2-7.2-7.2h-21.992c-3.976 0-7.2 3.224-7.2 7.2v21.79c0 3.976 3.224 7.2 7.2 7.2h21.992c3.977 0 7.2-3.223 7.2-7.2zm63.648 0v-21.79c0-3.976-3.224-7.2-7.2-7.2h-21.992c-3.976 0-7.2 3.224-7.2 7.2v21.79c0 3.976 3.224 7.2 7.2 7.2h21.992c3.977 0 7.2-3.223 7.2-7.2zm63.648-139.637v-21.79c0-3.976-3.224-7.2-7.2-7.2H343.28c-3.975 0-7.2 3.224-7.2 7.2v21.79c0 3.976 3.225 7.2 7.2 7.2h21.993c3.976 0 7.2-3.224 7.2-7.2zM181.53 294.08v-21.79c0-3.975-3.224-7.2-7.2-7.2h-21.992c-3.976 0-7.2 3.225-7.2 7.2v21.79c0 3.977 3.224 7.2 7.2 7.2h21.992c3.976 0 7.2-3.222 7.2-7.2zm190.943 0v-21.79c0-3.975-3.224-7.2-7.2-7.2H343.28c-3.975 0-7.2 3.225-7.2 7.2v21.79c0 3.977 3.225 7.2 7.2 7.2h21.993c3.976 0 7.2-3.222 7.2-7.2zM181.53 363.9v-21.79c0-3.976-3.224-7.2-7.2-7.2h-21.992c-3.976 0-7.2 3.224-7.2 7.2v21.79c0 3.976 3.224 7.2 7.2 7.2h21.992c3.976 0 7.2-3.223 7.2-7.2zm190.943 0v-21.79c0-3.976-3.224-7.2-7.2-7.2H343.28c-3.975 0-7.2 3.224-7.2 7.2v21.79c0 3.976 3.225 7.2 7.2 7.2h21.993c3.976 0 7.2-3.223 7.2-7.2z"/></svg>