<?xml version="1.0" encoding="iso-8859-1"?>
<!-- Generator: Adobe Illustrator 18.1.1, SVG Export Plug-In . SVG Version: 6.00 Build 0)  -->
<!DOCTYPE svg PUBLIC "-//W3C//DTD SVG 1.1//EN" "http://www.w3.org/Graphics/SVG/1.1/DTD/svg11.dtd">
<svg version="1.1" xmlns="http://www.w3.org/2000/svg" xmlns:xlink="http://www.w3.org/1999/xlink" x="0px" y="0px"
	 viewBox="0 0 512 512" enable-background="new 0 0 512 512" xml:space="preserve">
<g id="Layer_2">
	<path fill="#2BA52E" d="M488.076,370.127c0,0-0.089-0.406-0.262-1.194c-0.178-0.784-0.416-1.965-0.786-3.466
		c-0.625-1.755-1.709-4.35-2.927-7.021c-0.603-1.263-1.257-2.64-2.002-4.102c-0.746-1.461-1.676-2.894-2.626-4.49
		c-0.941-1.616-2.067-3.168-3.254-4.853c-1.173-1.718-2.512-3.364-3.941-5.11c-2.831-3.537-6.287-6.899-10.125-10.389
		c-0.961-0.887-1.959-1.673-2.979-2.535c-1.021-0.834-2.069-1.735-3.143-2.55c-2.145-1.593-4.412-3.37-6.757-4.901
		c-1.176-0.791-2.374-1.607-3.612-2.391c-1.235-0.735-2.486-1.478-3.751-2.231c-2.564-1.554-5.164-2.869-7.893-4.335
		c-10.823-5.456-22.896-10.117-35.563-13.712c-1.582-0.448-3.181-0.916-4.799-1.35c-1.603-0.398-3.216-0.798-4.839-1.201
		c-1.636-0.412-3.27-0.793-4.902-1.147c-1.644-0.362-3.298-0.726-4.961-1.093c-3.285-0.655-6.679-1.368-10.025-1.887
		c-1.687-0.277-3.381-0.556-5.084-0.836c-1.693-0.249-3.394-0.499-5.102-0.749c-1.72-0.26-3.427-0.482-5.14-0.697
		c-1.715-0.223-3.448-0.443-5.176-0.623c-3.428-0.335-6.934-0.716-10.395-0.981c-1.741-0.14-3.488-0.281-5.239-0.422
		c-1.743-0.117-3.491-0.234-5.243-0.352c-3.516-0.218-6.993-0.316-10.528-0.462c-11.52-0.414-23.098-0.327-34.609,0.061
		c0.006-0.134,0.012-0.266,0.018-0.4c0.151-3.61,0.125-7.238,0.182-10.858c0.014-1.808,0.028-3.619,0.041-5.434
		c-0.041-1.81-0.081-3.623-0.122-5.438c-0.093-3.623-0.168-7.249-0.306-10.855c-0.138-3.608-0.338-7.215-0.452-10.804
		c-0.124-3.588-0.401-7.167-0.607-10.735c-0.83-14.257-2.76-28.373-6.014-41.925c-0.396-1.691-0.791-3.379-1.185-5.063
		c-0.442-1.676-0.93-3.341-1.392-4.998c-0.916-3.315-1.927-6.594-2.958-9.827c-1.098-3.208-2.189-6.396-3.273-9.561
		c-1.113-3.147-2.381-6.227-3.602-9.269c-4.794-12.185-10.169-23.534-15.327-34.033c-2.755-5.21-5.114-10.293-7.779-15.066
		c-2.634-4.78-5.057-9.38-7.661-13.676c-2.543-4.313-4.93-8.417-7.408-12.22c-2.451-3.811-4.635-7.438-7.033-10.699
		c-2.332-3.294-4.451-6.326-6.506-9.149c-2.124-2.843-4.035-5.435-5.814-7.732c-0.892-1.139-1.734-2.247-2.527-3.221
		c-0.795-0.925-1.539-1.793-2.232-2.6c-1.387-1.614-2.566-2.986-3.523-4.099c-1.95-2.21-2.99-3.389-2.99-3.389
		c-2.487-2.808-6.019-4.75-10.046-5.157c-8.5-0.858-16.086,5.337-16.944,13.837l-0.275,2.729c0,0-0.042,0.421-0.125,1.238
		c-0.063,0.808-0.156,2.007-0.277,3.571c-0.079,1.546-0.177,3.453-0.292,5.695c-0.056,1.12-0.059,2.301-0.094,3.573
		c-0.066,1.231-0.191,2.481-0.296,3.822c-0.214,2.664-0.321,5.529-0.526,8.633c-0.056,0.793-0.113,1.602-0.171,2.427
		c-0.045,0.825-0.091,1.666-0.138,2.522c-0.1,1.71-0.197,3.471-0.26,5.268c-0.116,3.592-0.406,7.427-0.583,11.384
		c-0.095,1.98-0.127,3.983-0.298,6.06c-0.115,2.05-0.232,4.147-0.352,6.288c-0.366,8.488-1.021,17.575-2.373,27.058
		c-0.368,2.375-0.8,4.776-1.205,7.184c-0.419,2.41-0.794,4.827-1.345,7.274c-0.511,2.424-1.027,4.874-1.548,7.348
		c-0.237,1.225-0.576,2.462-0.858,3.692c-0.287,1.226-0.575,2.458-0.864,3.695c-0.602,2.467-1.05,4.922-1.726,7.391
		c-0.563,2.46-1.157,4.922-1.65,7.375c-1.174,4.906-2.066,9.801-2.976,14.663c-1.663,9.74-2.894,19.388-3.603,29.02
		c-0.651,9.648-1.473,19.197-1.934,28.704c-0.425,9.525-0.748,18.958-0.852,28.35c-0.05,2.338-0.01,4.705-0.069,7.028
		c-0.049,2.339-0.098,4.656-0.147,6.948c0.042,2.346-0.085,4.607-0.156,6.885c-0.04,1.142-0.081,2.277-0.12,3.405
		c-0.033,1.136-0.077,2.264-0.176,3.361c-0.301,4.431-0.488,8.874-0.993,13.069c-0.083,0.763-0.156,1.526-0.231,2.288
		c-2.743,2.27-5.365,4.633-7.815,7.135c-3.852,3.886-7.367,7.965-10.543,12.166c-3.165,4.219-5.988,8.563-8.489,12.912
		c-5.013,8.674-8.663,17.476-11.236,25.388c-0.655,1.945-1.199,3.945-1.715,5.788c-0.256,0.922-0.504,1.816-0.744,2.68
		c-0.213,0.911-0.419,1.79-0.618,2.638c-0.396,1.696-0.758,3.257-1.029,4.797c-0.28,1.523-0.559,2.839-0.738,4.162
		c-0.405,2.548-0.639,4.612-0.781,6.027c-0.118,1.455-0.179,2.206-0.179,2.206l-0.597,7.322
		c-0.726,8.801,5.272,16.925,14.141,18.654c0,0,0.474,0.092,1.391,0.271c0.894,0.144,2.222,0.359,3.953,0.638
		c3.437,0.528,8.36,1.135,14.42,1.66c6.053,0.512,13.268,0.979,21.255,1.101c7.998,0.141,16.813,0.017,26.19-0.465
		c2.329-0.145,4.706-0.293,7.129-0.445c2.39-0.206,4.824-0.416,7.301-0.63c4.921-0.421,10.008-0.857,15.237-1.305
		c10.43-0.844,21.464-1.316,32.596-2.138c11.118-0.89,22.347-2.046,33.244-4.498c10.926-2.38,21.631-5.677,32.14-9.539
		c10.507-3.898,20.936-7.633,31.136-11.248c10.177-3.537,20.132-7.014,29.612-10.057c4.766-1.568,9.361-2.936,13.891-4.353
		c1.119-0.324,2.232-0.646,3.339-0.966l1.667-0.507l1.629-0.461c2.17-0.611,4.313-1.214,6.428-1.81
		c1.069-0.315,2.105-0.591,3.126-0.849c1.034-0.267,2.06-0.533,3.078-0.796c2.005-0.473,3.979-0.939,5.921-1.397
		c3.931-1.011,7.523-1.592,11.093-2.313c1.697-0.285,3.508-0.661,5.111-0.855c0.834-0.117,1.659-0.233,2.474-0.347
		c0.776-0.066,1.575-0.191,2.369-0.293c0.401-0.053,0.799-0.107,1.195-0.159c0.381-0.037,0.759-0.073,1.135-0.109
		c0.766-0.069,1.522-0.138,2.266-0.205c1.48-0.082,2.917-0.162,4.309-0.24c5.561-0.196,10.478,0.208,14.711,0.988
		c2.126,0.377,3.982,0.913,5.725,1.381c0.469,0.135,0.77,0.195,1.12,0.281c0.351,0.083,0.687,0.163,1.008,0.239
		c0.341,0.079,0.666,0.154,0.976,0.225c0.159,0.038,0.313,0.076,0.464,0.112c0.151,0.035,0.294,0.057,0.48,0.19
		c1.375,0.843,2.497,1.446,3.227,1.868c0.737,0.418,1.118,0.634,1.118,0.634l1.591,0.902c3.229,1.824,7.116,2.511,11.023,1.653
		C484.598,386.874,489.925,378.548,488.076,370.127z"/>
</g>
<g id="Layer_3">
	<path fill="#F8A106" d="M503.388,55.528c0,0-0.122,3.092-0.72,8.518c-0.567,5.458-1.6,13.261-3.389,22.718
		c-1.786,9.46-4.306,20.597-7.741,32.826c-0.878,3.038-1.737,6.221-2.747,9.371c-0.989,3.172-1.97,6.471-3.099,9.735
		c-2.167,6.62-4.593,13.431-7.274,20.39c-10.7,27.858-25.525,58.019-44.331,87.411c-9.389,14.71-19.72,29.281-30.906,43.4
		c-11.154,14.15-23.167,27.843-35.764,40.952c-6.317,6.536-12.738,12.968-19.354,19.154c-6.617,6.186-13.375,12.18-20.256,17.951
		c-13.751,11.553-28.066,22.141-42.585,31.72c-14.525,9.574-29.301,18.094-43.993,25.493c-14.684,7.407-29.271,13.705-43.326,18.93
		c-14.046,5.233-27.58,9.372-40.046,12.571c-12.463,3.202-23.862,5.459-33.572,6.995c-9.717,1.529-17.698,2.384-23.376,2.731
		c-2.767,0.245-5.029,0.293-6.51,0.368c-0.739,0.04-1.329,0.039-1.717,0.047c-0.389,0.006-0.587,0.009-0.587,0.009
		c-19.585,0.307-35.711-15.321-36.019-34.906c-0.005-0.319-0.003-0.795,0-1.112c0,0,0.003-0.198,0.009-0.587
		c0.008-0.387,0.007-0.978,0.047-1.717c0.075-1.481,0.123-3.743,0.368-6.51c0.347-5.678,1.202-13.659,2.731-23.376
		c1.536-9.71,3.793-21.109,6.995-33.572c3.199-12.465,7.338-25.999,12.571-40.046c5.225-14.054,11.524-28.642,18.93-43.326
		c7.399-14.692,15.919-29.468,25.493-43.993c9.579-14.52,20.167-28.834,31.72-42.585c5.771-6.881,11.765-13.64,17.951-20.256
		c6.186-6.616,12.618-13.037,19.154-19.354c13.109-12.597,26.802-24.61,40.952-35.764c14.119-11.186,28.689-21.517,43.4-30.906
		c29.393-18.806,59.553-33.63,87.411-44.331c6.959-2.681,13.77-5.107,20.39-7.274c3.264-1.129,6.563-2.11,9.735-3.099
		c3.151-1.01,6.333-1.869,9.371-2.747c12.229-3.435,23.366-5.955,32.826-7.741c9.457-1.789,17.261-2.822,22.718-3.389
		c5.427-0.598,8.518-0.72,8.518-0.72c19.14-0.753,35.266,14.153,36.019,33.293C503.423,53.692,503.419,54.653,503.388,55.528z"/>
</g>
<g id="Layer_4">
	<path fill="#55B755" d="M389.463,426.506c-0.142-2.839-0.494-5.744-0.936-8.759c-0.268-1.503-0.539-3.023-0.813-4.56
		c-0.307-1.531-0.641-3.091-0.998-4.681c-1.481-6.308-3.709-12.746-6.414-19.277c-0.349-0.816-0.698-1.635-1.05-2.457
		c-0.372-0.801-0.745-1.606-1.12-2.414c-0.387-0.812-0.775-1.628-1.165-2.446c-0.408-0.796-0.818-1.595-1.229-2.397
		c-0.834-1.611-1.68-3.258-2.578-4.831c-0.892-1.595-1.814-3.234-2.772-4.784c-7.656-12.676-17.202-24.716-27.78-35.434
		c-1.337-1.376-2.655-2.643-4.015-3.98c-1.363-1.338-2.708-2.623-4.112-3.858l-1.05-0.939l-0.528-0.47l-0.264-0.235l-0.132-0.118
		c0.169,0.05-1.98-0.876-1.113-0.529l-1.511-1.566l-0.379-0.392l-0.189-0.196c-0.035-0.034-0.055-0.062-0.103-0.101l-0.226-0.148
		l-1.82-1.175c-1.212-0.762-2.427-1.524-3.643-2.288c-8.083-5.227-16.784-9.686-25.793-13.11c-9.025-3.44-18.343-5.929-27.735-7.469
		c-4.69-0.707-9.409-1.333-14.098-1.563c-2.352-0.143-4.695-0.257-7.034-0.284c-2.348-0.033-4.658,0.035-6.998,0.073
		c-18.599,0.625-36.527,4.845-52.752,11.479c-9.302,3.82-18.029,8.485-26.068,13.783c5.622-11.635,9.593-24.196,12.351-37.132
		c2.86-13.337,3.972-27.189,3.461-41.073c-0.361-6.965-0.951-13.899-2.189-20.832c-0.144-0.864-0.269-1.725-0.432-2.586
		l-0.523-2.593c-0.361-1.725-0.687-3.442-1.092-5.15c-0.853-3.452-1.664-6.829-2.719-10.233c-4.065-13.521-9.618-26.683-16.47-38.98
		c-3.456-6.18-7.191-12.134-11.196-17.843c-4.082-5.731-8.385-11.164-12.986-16.309c-1.132-1.278-2.373-2.552-3.544-3.784
		c-0.593-0.613-1.184-1.223-1.773-1.831c-0.626-0.604-1.249-1.206-1.87-1.806c-1.245-1.199-2.411-2.364-3.696-3.508
		c-1.289-1.144-2.569-2.257-3.837-3.339c-1.259-1.083-2.661-2.131-3.967-3.149c-0.662-0.503-1.322-1.004-1.978-1.503
		c-0.686-0.489-1.369-0.976-2.048-1.46c-1.371-0.958-2.683-1.897-4.062-2.783c-1.409-0.879-2.804-1.726-4.181-2.541
		c-1.342-0.83-2.842-1.557-4.236-2.288c-1.421-0.721-2.782-1.428-4.239-2.047c-1.427-0.638-2.835-1.248-4.22-1.829
		c-1.401-0.566-2.847-1.044-4.233-1.528c-2.743-1.016-5.567-1.698-8.215-2.386c-1.332-0.33-2.684-0.543-3.987-0.78
		c-1.313-0.208-2.582-0.469-3.852-0.581c-1.265-0.134-2.512-0.223-3.731-0.287c-0.606-0.032-1.207-0.063-1.803-0.094
		c-0.594-0.018-1.182,0.004-1.762,0.008c-1.163,0.028-2.3,0.09-3.403,0.147c-1.107,0.045-2.171,0.134-3.21,0.313
		c-1.029,0.161-2.037,0.319-3.024,0.473c-0.978,0.147-1.927,0.339-2.827,0.594c-1.809,0.459-3.502,0.954-5.076,1.459
		c-1.545,0.559-2.973,1.192-4.294,1.748c-0.665,0.29-1.281,0.58-1.908,0.876c-0.653,0.326-1.277,0.622-1.868,0.956
		c-1.183,0.647-2.247,1.253-3.201,1.811c-0.237,0.14-0.469,0.276-0.695,0.409l-0.332,0.198c-0.082,0.063-0.155,0.136-0.23,0.205
		c-0.299,0.277-0.583,0.54-0.851,0.788c-0.536,0.498-1.01,0.937-1.418,1.317c-0.404,0.406-0.744,0.747-1.018,1.023
		c-0.275,0.27-0.481,0.488-0.618,0.639c-0.138,0.148-0.208,0.223-0.208,0.223l-3.181,3.422c-1.753,1.881-2.983,4.287-3.417,7.017
		c-1.16,7.302,3.819,14.162,11.121,15.322c0,0,0.342,0.054,1.005,0.16c0.664,0.114,1.646,0.262,2.919,0.411
		c1.48,0.1,2.327,0.522,3.613,0.873c0.307,0.099,0.619,0.168,0.939,0.252c0.358,0.108,0.729,0.22,1.112,0.336
		c0.765,0.225,1.567,0.496,2.395,0.696c0.789,0.286,1.62,0.588,2.491,0.905c0.434,0.131,0.848,0.345,1.269,0.521
		c0.418,0.176,0.845,0.355,1.281,0.538c0.215,0.088,0.432,0.176,0.651,0.266c0.207,0.112,0.416,0.225,0.627,0.339
		c0.419,0.226,0.839,0.462,1.267,0.671c0.213,0.104,0.436,0.189,0.645,0.307c0.205,0.125,0.411,0.251,0.619,0.379
		c0.411,0.242,0.829,0.488,1.253,0.738c0.426,0.23,0.804,0.58,1.213,0.855c0.396,0.307,0.824,0.536,1.21,0.872
		c0.76,0.698,1.585,1.246,2.307,2.054c1.536,1.39,2.911,3.215,4.215,5.193c1.314,1.973,2.48,4.351,3.507,6.922
		c1.028,2.598,1.883,5.538,2.638,8.626c0.75,3.122,1.227,6.556,1.602,10.096c0.337,3.589,0.462,7.36,0.496,11.219
		c0.003,7.788-0.753,16.03-1.847,24.418c-1.069,8.372-2.506,16.916-4.117,25.372c-0.118,0.596-0.224,1.192-0.334,1.787
		c-20.37,65.223-86.24,153.283-45.734,222.697l-2.378,2.378c-10.588,10.589-10.588,27.757,0,38.346
		c5.294,5.294,12.234,7.941,19.173,7.941s13.878-2.647,19.173-7.941l2.216-2.216c47.682,28.338,93.427-5.44,139.406-33.176
		c0.119-0.072,0.228-0.151,0.345-0.224c3.605-1.795,7.226-3.538,10.813-5.221c6.148-2.882,12.249-5.564,18.244-8.077
		c6-2.507,11.889-4.884,17.703-7.1c2.892-1.145,5.796-2.157,8.649-3.24c2.833-1.01,5.677-2.025,8.522-3.039
		c2.815-0.951,5.617-2.003,8.411-2.92c2.791-0.951,5.596-1.922,8.406-2.765c1.419-0.461,2.821-0.846,4.262-1.291
		c1.443-0.433,2.844-0.718,4.31-1.082c0.286-0.118,0.406-0.281,0.631-0.429l0.311-0.233l0.04-0.03
		c0.033-0.001,0.084,0.007,0.125,0.009l0.261,0.024l0.521,0.048l2.078,0.191c0.68,0.273-0.779-0.358-0.594-0.293l0.1,0.003
		l0.201,0.007l0.401,0.013l0.804,0.027c2.165,0.063,4.304,0.086,6.405,0.184c8.424,0.337,16.27,1.112,23.263,2.693
		c7.016,1.549,13.1,3.983,18.157,7.318c0.628,0.432,1.25,0.859,1.865,1.281c0.575,0.468,1.144,0.931,1.707,1.389
		c1.082,0.959,2.178,1.937,3.139,2.981c2.009,2.059,3.658,4.315,5.022,6.635c0.747,1.14,1.294,2.336,1.931,3.489
		c0.533,1.181,1.109,2.337,1.56,3.497c0.467,1.162,0.964,2.287,1.396,3.412c0.44,1.121,0.915,2.206,1.245,3.272
		c0.358,1.063,0.841,2.089,1.147,3.077c0.166,0.498,0.327,0.98,0.483,1.446c0.181,0.476,0.355,0.936,0.523,1.38
		c0.338,0.884,0.559,1.662,0.869,2.427c0.286,0.77,0.579,1.433,0.781,2.128c0.861,2.817,1.495,4.353,1.495,4.353
		c0.12,0.284,0.276,0.59,0.448,0.858c1.619,2.526,4.979,3.261,7.505,1.642l1.169-0.75c0,0,1.698-1.089,4.319-3.238
		c1.225-1.171,2.812-2.853,4.372-4.865c1.538-1.967,3.141-4.325,4.625-7.16c1.509-2.825,2.808-6.124,3.862-9.895
		c0.503-1.88,0.895-3.893,1.296-6.007c0.3-2.125,0.695-4.364,0.855-6.725C389.696,437.378,389.757,432.171,389.463,426.506z"/>
</g>
<g id="Layer_5">
	<path fill="#FAC33A" d="M350.849,258.982c-4.834,0-9.668-1.844-13.356-5.532l-10.609-10.609
		c-7.377-7.376-7.377-19.336-0.001-26.713c7.377-7.377,19.337-7.377,26.714,0l10.609,10.609c7.377,7.376,7.377,19.336,0.001,26.713
		C360.518,257.139,355.683,258.982,350.849,258.982z M430.033,127.673c7.376-7.377,7.376-19.337-0.001-26.713l-10.609-10.609
		c-7.377-7.377-19.337-7.376-26.714,0c-7.376,7.377-7.376,19.337,0.001,26.713l10.609,10.609c3.688,3.688,8.522,5.532,13.356,5.532
		S426.345,131.362,430.033,127.673z M328.135,128.772c7.376-7.377,7.376-19.337-0.001-26.713L317.524,91.45
		c-7.377-7.377-19.337-7.376-26.714,0c-7.376,7.377-7.376,19.337,0.001,26.713l10.609,10.609c3.688,3.688,8.522,5.532,13.356,5.532
		S324.446,132.461,328.135,128.772z M381.79,178.795c7.376-7.377,7.376-19.337-0.001-26.713l-10.609-10.609
		c-7.377-7.377-19.337-7.376-26.714,0c-7.376,7.377-7.376,19.337,0.001,26.713l10.609,10.609c3.688,3.688,8.522,5.532,13.356,5.532
		S378.102,182.483,381.79,178.795z M302.027,196.7c7.376-7.377,7.376-19.337-0.001-26.713l-10.609-10.609
		c-7.377-7.377-19.337-7.376-26.714,0c-7.376,7.377-7.376,19.337,0.001,26.713l10.609,10.609c3.688,3.688,8.522,5.532,13.356,5.532
		S298.339,200.389,302.027,196.7z M224.02,228.439c7.376-7.377,7.376-19.337,0-26.714l-10.609-10.609
		c-7.377-7.377-19.337-7.377-26.714,0c-7.376,7.377-7.376,19.337,0,26.714l10.609,10.609c3.688,3.688,8.523,5.532,13.357,5.532
		S220.331,232.127,224.02,228.439z M277.676,278.461c7.376-7.377,7.376-19.337-0.001-26.713l-10.609-10.609
		c-7.377-7.377-19.337-7.376-26.713,0c-7.377,7.377-7.376,19.337,0,26.713l10.609,10.609c3.688,3.688,8.522,5.532,13.356,5.532
		S273.987,282.149,277.676,278.461z M248.371,119.964l-6.846-6.846c-2.857,2.168-5.703,4.361-8.526,6.597
		c-7.093,5.591-14.07,11.398-20.918,17.387l9.576,9.576c3.688,3.688,8.523,5.532,13.357,5.532s9.668-1.844,13.357-5.532
		C255.748,139.301,255.748,127.341,248.371,119.964z M335.416,56.504c0.764,3.348,2.43,6.532,5.038,9.14l10.609,10.609
		c3.688,3.688,8.522,5.532,13.356,5.532s9.668-1.844,13.356-5.532c7.377-7.377,7.377-19.337,0-26.714l-7.477-7.477
		c-2.148,0.786-4.307,1.586-6.489,2.418C354.563,48.031,345.059,52.048,335.416,56.504z M442,33.064l-6.656-6.657
		c-0.805-0.805-1.672-1.506-2.574-2.135c-8.141,1.62-17.39,3.765-27.402,6.521c-3.866,7.157-2.785,16.279,3.261,22.326l6.656,6.657
		c3.688,3.689,8.522,5.533,13.357,5.533c4.834,0,9.668-1.844,13.355-5.531C449.376,52.401,449.377,40.441,442,33.064z"/>
</g>
</svg>
