<?xml version="1.0" encoding="iso-8859-1"?>
<!-- Generator: Adobe Illustrator 18.1.1, SVG Export Plug-In . SVG Version: 6.00 Build 0)  -->
<!DOCTYPE svg PUBLIC "-//W3C//DTD SVG 1.1//EN" "http://www.w3.org/Graphics/SVG/1.1/DTD/svg11.dtd">
<svg version="1.1" xmlns="http://www.w3.org/2000/svg" xmlns:xlink="http://www.w3.org/1999/xlink" x="0px" y="0px"
	 viewBox="0 0 512 512" enable-background="new 0 0 512 512" xml:space="preserve">
<g id="Layer_8">
	<path fill="#D7F4F7" d="M292.833,147.803l-23.889-23.878c-6.598-6.598-17.281-6.598-23.878,0l-23.899,23.878
		c-6.598,6.598-6.598,17.291,0,23.889l23.899,23.868c6.598,6.598,17.27,6.598,23.878,0l23.889-23.868
		C299.43,165.093,299.43,154.4,292.833,147.803z M247.006,165.063c0,2.819-2.288,5.107-5.107,5.107
		c-2.809,0-5.107-2.288-5.107-5.107V154.85c0-2.819,2.298-5.107,5.107-5.107c2.819,0,5.107,2.288,5.107,5.107V165.063z
		 M277.646,165.063c0,2.819-2.288,5.107-5.107,5.107c-2.809,0-5.107-2.288-5.107-5.107V154.85c0-2.819,2.298-5.107,5.107-5.107
		c2.819,0,5.107,2.288,5.107,5.107V165.063z"/>
</g>
<g id="Layer_1">
</g>
</svg>
