<svg xmlns="http://www.w3.org/2000/svg" viewBox="0 0 512 512" enable-background="new 0 0 512 512"><path fill="#F4580B" d="M500.95 362.382c-10.426-4.212-21.196-9.36-32.285-15.437-31.775-17.416-65.308-42.21-96.974-71.703-47.376-44.126-80.862-89.62-93.856-118.534v-21.175c0-12.426-10.074-22.5-22.5-22.5s-22.5 10.074-22.5 22.5v21.172c-12.994 28.915-46.48 74.41-93.858 118.536-31.666 29.494-65.2 54.288-96.974 71.704-11.088 6.077-21.858 11.224-32.285 15.437v72.12h223.117v67.117h45V434.5H500.95v-72.118zM90.5 389.5H30.296c9.03-3.96 18.22-8.494 27.566-13.616 10.752-5.893 21.672-12.557 32.638-19.897V389.5zm75 0h-42v-57.547c12.823-10.095 25.544-20.993 37.966-32.562 1.352-1.258 2.692-2.53 4.034-3.803V389.5zm67.333 0H198.5V261.916c0-.023-.003-.046-.003-.07 12.672-13.99 24.283-28.147 34.337-41.885V389.5zm80.806 0h-35.806V219.962c10.44 14.264 22.565 28.978 35.805 43.49V389.5zm75 0h-42v-92.525c.853.805 1.702 1.616 2.56 2.416 12.898 12.013 26.118 23.3 39.44 33.716V389.5zm33-32.54c10.47 6.952 20.893 13.294 31.164 18.924 9.346 5.122 18.537 9.657 27.566 13.616h-58.73v-32.54z"/></svg>