<svg xmlns="http://www.w3.org/2000/svg" viewBox="0 0 512 512" enable-background="new 0 0 512 512"><path fill="#597B91" d="M456.36 117.07l-38.403 38.403-27.625-27.625-5.656 5.657L412.3 161.13l-32.716 32.715v-42.458h-28v69.708l-37.122 37.123-6.296-6.297-5.656 5.658 6.296 6.296-48.544 48.545 5.656 5.655 48.545-48.544 37.122 37.123v17.188l-37.123 37.124-45.544-45.544-5.656 5.656 45.544 45.544-33.998 33.998v-63.53h-28v90.78l-35.84 35.84-48.544-48.543-3.704 3.703-3.704-3.703-9.604 9.604h-3.382v3.38l-35.56 35.56-41.215-41.22v-34.492h-28v6.242L9.715 366.7v11.314l27.54 27.54v24.876l-27.54 27.54v11.313l27.54-27.54v55.24l-27.54-27.538v11.313l20.86 20.858h34.68v-67.814l35.56 35.56-32.252 32.254h11.313l26.596-26.596 26.596 26.596h36.962v-67.532l35.28 35.28-32.253 32.252h11.313l26.596-26.596 26.597 26.596h37.244v-66.25l33.998 33.997-32.253 32.253h11.313l26.597-26.597 26.597 26.596h38.525v-64.97l32.716 32.717-32.252 32.253h11.313l26.598-26.597 26.597 26.596h11.313l-32.253-32.253 32.748-32.747v65h28V51.628h-28v65.44zM142.033 499.265l-29.902-29.902 29.902-29.902v59.804zm14.695-74.498l1.994-1.994 1.995 1.994h-3.988zm90.082 74.78l-30.185-30.184 30.184-30.185v60.37zm104.775 1.282l-31.466-31.466 31.465-31.466v62.932zm0-74.244l-37.123 37.122-39.654-39.653V411.93l39.654-39.654 37.123 37.123v17.186zm0-28.5L320.12 366.62l31.465-31.466v62.932zm0-102.745l-31.466-31.465 31.465-31.466v62.93zm28-64.18l32.716 32.715-32.715 32.716v-65.43zm0 102.743L412.3 366.62l-32.715 32.715v-65.432zm76.776 91.402l-38.403 38.403-38.373-38.372V410.65l38.373-38.374 38.404 38.404v14.625zm0-25.938l-32.747-32.748 32.748-32.75v65.497zm0-76.807l-38.403 38.404-38.373-38.373v-14.686l38.373-38.372 38.404 38.404v14.624zm0-25.938l-32.746-32.747 32.747-32.747v65.494zm0-76.808l-38.403 38.404-38.373-38.373v-14.687l38.373-38.372 38.404 38.404v14.624zm0-25.938l-32.746-32.747 32.747-32.748v65.494z"/></svg>