<?xml version="1.0" encoding="iso-8859-1"?>
<!-- Generator: Adobe Illustrator 18.1.1, SVG Export Plug-In . SVG Version: 6.00 Build 0)  -->
<!DOCTYPE svg PUBLIC "-//W3C//DTD SVG 1.1//EN" "http://www.w3.org/Graphics/SVG/1.1/DTD/svg11.dtd">
<svg version="1.1" xmlns="http://www.w3.org/2000/svg" xmlns:xlink="http://www.w3.org/1999/xlink" x="0px" y="0px"
	 viewBox="0 0 512 512" enable-background="new 0 0 512 512" xml:space="preserve">
<g id="Layer_4">
	<path fill="#FF473E" d="M158.098,201.245c5.864,21.884-7.123,44.379-29.007,50.242s-44.379-7.123-50.242-29.007
		c-5.864-21.884,7.123-44.379,29.007-50.242C129.74,166.374,152.235,179.361,158.098,201.245z M204.223,105.77
		c5.068-1.358,8.076-6.567,6.718-11.635l-2.535-9.462c-1.358-5.068-6.567-8.079-11.635-6.718c-5.068,1.358-8.076,6.567-6.718,11.635
		l2.535,9.462c1.137,4.245,4.976,7.044,9.17,7.044C202.572,106.096,203.399,105.99,204.223,105.77z M355.135,201.245
		c-5.864,21.884,7.123,44.379,29.007,50.242c21.884,5.864,44.379-7.123,50.242-29.007c5.864-21.884-7.123-44.379-29.008-50.242
		C383.493,166.374,360.999,179.361,355.135,201.245z M320.646,99.052l2.535-9.462c1.357-5.068-1.65-10.277-6.718-11.635
		c-5.07-1.358-10.277,1.65-11.636,6.718l-2.535,9.462c-1.357,5.068,1.65,10.277,6.718,11.635c0.824,0.221,1.65,0.326,2.465,0.326
		C315.67,106.096,319.509,103.296,320.646,99.052z"/>
</g>
<g id="Layer_1">
</g>
</svg>
