<svg xmlns="http://www.w3.org/2000/svg" viewBox="0 0 512 512" enable-background="new 0 0 512 512"><path fill="#FF473E" d="M110.224 154.508c4.354 0 7.685 3.957 6.86 8.23-3.842 19.932-21.38 34.987-42.433 34.987S36.06 182.67 32.218 162.74c-.824-4.276 2.508-8.232 6.86-8.232h71.147zm289.68 209c-4.354 0-7.685 3.957-6.86 8.23 3.843 19.932 21.38 34.987 42.433 34.987s38.59-15.055 42.434-34.986c.825-4.276-2.507-8.232-6.86-8.232h-71.146zM219.754 63.085c-4.355 0-7.686 3.957-6.862 8.23 3.843 19.932 21.38 34.987 42.434 34.987s38.59-15.055 42.434-34.986c.824-4.275-2.508-8.23-6.86-8.23h-71.147z"/></svg>