<?xml version="1.0" encoding="utf-8"?>
<!-- Generator: Adobe Illustrator 18.0.0, SVG Export Plug-In . SVG Version: 6.00 Build 0)  -->
<!DOCTYPE svg PUBLIC "-//W3C//DTD SVG 1.1 Tiny//EN" "http://www.w3.org/Graphics/SVG/1.1/DTD/svg11-tiny.dtd">
<svg version="1.1" baseProfile="tiny" id="Layer_1" xmlns="http://www.w3.org/2000/svg" xmlns:xlink="http://www.w3.org/1999/xlink"
	 x="0px" y="0px" width="511.9px" height="512px" viewBox="0 0 511.9 512" xml:space="preserve">
<path fill="#FFB636" d="M252.5,381l-128,49c-5.9,2.2-12.1-2.3-11.8-8.6l7-136.9c0.1-2.1-0.6-4.2-1.9-5.9L31.6,172
	c-4-4.9-1.6-12.2,4.5-13.9l132.4-35.6c2.1-0.6,3.9-1.9,5-3.7L248.3,4c3.4-5.3,11.2-5.3,14.6,0l74.8,114.9c1.2,1.8,3,3.1,5,3.7
	l132.4,35.6c6.1,1.6,8.5,9,4.5,13.9l-86.1,106.6c-1.3,1.7-2,3.8-1.9,5.9l7,136.9c0.3,6.3-5.9,10.8-11.8,8.6l-128-49
	C256.7,380.3,254.5,380.3,252.5,381z"/>
<path fill="#FFD469" d="M456.1,51.7l-41-41c-1.2-1.2-2.8-1.7-4.4-1.5c-1.6,0.2-3.1,1.2-3.9,2.6l-42.3,83.3c-1.2,2.1-0.8,4.6,0.9,6.3
	c1,1,2.4,1.5,3.7,1.5c0.9,0,1.8-0.2,2.6-0.7L454.9,60c1.4-0.8,2.4-2.2,2.6-3.9C457.8,54.5,457.2,52.9,456.1,51.7z"/>
<path fill="#FFD469" d="M149.1,95.2l-42.3-83.3c-0.8-1.4-2.2-2.4-3.9-2.6c-1.6-0.2-3.3,0.3-4.4,1.5l-41,41c-1.2,1.2-1.7,2.8-1.5,4.4
	c0.2,1.6,1.2,3.1,2.6,3.9l83.3,42.3c0.8,0.5,1.7,0.7,2.6,0.7c1.4,0,2.7-0.5,3.7-1.5C149.9,99.8,150.2,97.2,149.1,95.2z"/>
<path fill="#FFD469" d="M289.8,505.2l-29-88.8c-0.2-0.9-0.7-1.7-1.3-2.3c-1-1-2.3-1.5-3.7-1.5c-2.4,0-4.4,1.6-5.1,3.9l-29,88.8
	c-0.4,1.6-0.1,3.3,0.9,4.6c1,1.3,2.5,2.1,4.2,2.1h57.9c1.6,0,3.2-0.8,4.2-2.1C290,508.5,290.3,506.8,289.8,505.2z"/>
</svg>
