<svg xmlns="http://www.w3.org/2000/svg" viewBox="0 0 512 512" enable-background="new 0 0 512 512"><path fill="#D5DEE4" d="M484.085 151.188H333.872c-6.12 0-11.565 2.9-15.033 7.4-2 2.593-5.873 2.593-7.872 0-3.468-4.5-8.912-7.4-15.033-7.4H26.45c-13.208 0-23.915 10.707-23.915 23.915v223.794c0 13.208 10.707 23.915 23.915 23.915h269.484c6.12 0 11.565-2.9 15.033-7.4 2-2.593 5.872-2.593 7.87 0 3.47 4.5 8.913 7.4 15.034 7.4h150.214c13.208 0 23.915-10.707 23.915-23.915V175.103c0-13.208-10.707-23.915-23.915-23.915zm-154.033 230.47c0 4.607-3.735 8.342-8.342 8.342h-13.613c-4.607 0-8.342-3.735-8.342-8.342V353.73c0-4.607 3.735-8.342 8.342-8.342h13.613c4.607 0 8.342 3.735 8.342 8.342v27.928zm0-80.694c0 4.607-3.735 8.342-8.342 8.342h-13.613c-4.607 0-8.342-3.735-8.342-8.342v-27.927c0-4.607 3.735-8.342 8.342-8.342h13.613c4.607 0 8.342 3.735 8.342 8.342v27.927zm0-80.695c0 4.606-3.735 8.34-8.342 8.34h-13.613c-4.607 0-8.342-3.734-8.342-8.34V192.34c0-4.607 3.735-8.342 8.342-8.342h13.613c4.607 0 8.342 3.735 8.342 8.342v27.927z"/></svg>