<svg xmlns="http://www.w3.org/2000/svg" viewBox="0 0 512 512" enable-background="new 0 0 512 512"><path fill="#FFD469" d="M255.326 463.586c-3.223 0-5.835-2.613-5.835-5.836V53.85c0-3.222 2.614-5.834 5.836-5.834s5.836 2.613 5.836 5.835v403.9c0 3.223-2.613 5.836-5.836 5.836zm-139.11-61.04l285.598-285.6c2.28-2.28 2.28-5.974 0-8.253-2.277-2.278-5.975-2.278-8.252 0l-285.6 285.6c-2.28 2.278-2.28 5.974 0 8.252 1.14 1.14 2.633 1.71 4.126 1.71s2.988-.57 4.127-1.71zM462.49 255.18c0-3.223-2.612-5.835-5.835-5.835h-403.9c-3.222 0-5.834 2.613-5.834 5.835 0 3.223 2.613 5.835 5.835 5.835h403.9c3.222 0 5.834-2.612 5.834-5.835zm-60.678 146.49c2.28-2.28 2.28-5.975 0-8.253l-285.6-285.602c-2.278-2.278-5.973-2.278-8.252 0-2.28 2.28-2.28 5.974 0 8.253l285.6 285.6c1.14 1.14 2.633 1.71 4.126 1.71s2.988-.57 4.126-1.71z"/></svg>