<?xml version="1.0" encoding="iso-8859-1"?>
<!-- Generator: Adobe Illustrator 18.1.1, SVG Export Plug-In . SVG Version: 6.00 Build 0)  -->
<!DOCTYPE svg PUBLIC "-//W3C//DTD SVG 1.1//EN" "http://www.w3.org/Graphics/SVG/1.1/DTD/svg11.dtd">
<svg version="1.1" xmlns="http://www.w3.org/2000/svg" xmlns:xlink="http://www.w3.org/1999/xlink" x="0px" y="0px"
	 viewBox="0 0 512 512" enable-background="new 0 0 512 512" xml:space="preserve">
<g id="Layer_8">
	<path fill="#D6E5E5" d="M255.067,237.202c-6.903,0-12.5-5.596-12.5-12.5V126.57c0-6.904,5.597-12.5,12.5-12.5
		c6.904,0,12.5,5.596,12.5,12.5v98.132C267.566,231.606,261.971,237.202,255.067,237.202z M146.033,180.312V89.49
		c0-6.903-5.597-12.5-12.5-12.5s-12.5,5.597-12.5,12.5v90.821c0,6.903,5.597,12.5,12.5,12.5S146.033,187.215,146.033,180.312z
		 M386.941,180.312V89.49c0-6.903-5.597-12.5-12.5-12.5s-12.5,5.597-12.5,12.5v90.821c0,6.903,5.597,12.5,12.5,12.5
		S386.941,187.215,386.941,180.312z"/>
</g>
<g id="Layer_1">
</g>
</svg>
