<?xml version="1.0" encoding="iso-8859-1"?>
<!-- Generator: Adobe Illustrator 18.1.1, SVG Export Plug-In . SVG Version: 6.00 Build 0)  -->
<!DOCTYPE svg PUBLIC "-//W3C//DTD SVG 1.1//EN" "http://www.w3.org/Graphics/SVG/1.1/DTD/svg11.dtd">
<svg version="1.1" xmlns="http://www.w3.org/2000/svg" xmlns:xlink="http://www.w3.org/1999/xlink" x="0px" y="0px"
	 viewBox="0 0 512 512" enable-background="new 0 0 512 512" xml:space="preserve">
<g id="Layer_2">
	<path fill="#BFBCAF" d="M508.985,316.047c0,91.045-113.521,164.852-253.556,164.852S1.874,407.093,1.874,316.047
		s113.521-164.852,253.556-164.852S508.985,225.002,508.985,316.047z"/>
</g>
<g id="Layer_3">
	<path fill="#E3E8E7" d="M508.985,293.102c0,91.045-113.521,164.852-253.556,164.852S1.874,384.148,1.874,293.102
		S115.394,128.25,255.429,128.25S508.985,202.057,508.985,293.102z"/>
</g>
<g id="Layer_4">
	<path fill="#F2A74E" d="M437.125,302.096c0,64.842-80.849,117.407-180.581,117.407S75.963,366.938,75.963,302.096
		s80.849-117.407,180.581-117.407S437.125,237.254,437.125,302.096z"/>
</g>
<g id="Layer_5">
	<path fill="#8E6049" d="M385.605,300.429c0,46.343-57.783,83.911-129.061,83.911s-129.061-37.568-129.061-83.911
		s57.783-83.911,129.061-83.911S385.605,254.087,385.605,300.429z"/>
</g>
<g id="Layer_6">
	<path fill="#FFD45F" d="M380.485,289.887c0,44.504-55.49,80.582-123.941,80.582s-123.941-36.078-123.941-80.582
		c0-0.337,0.007-0.697,0.021-1.079c0.059-2.918,0.354-5.798,0.878-8.633c4.834-34.561,27.581-125.152,27.581-125.152l70.392-13.488
		l-0.814-9.763l25.738,4.987l26.028-4.987l-0.823,9.872l67.798,13.138c0,0,24.005,87.784,29.822,123.61
		C380.049,282.146,380.485,285.983,380.485,289.887z"/>
</g>
<g id="Layer_7">
	<path fill="#77431D" d="M350.443,162.808c0,29.663-42.539,53.71-95.014,53.71c-17.339,0-33.592-2.627-47.586-7.213l0,0c0,0,0,0,0,0
		c-0.511-0.167-1.019-0.337-1.523-0.509c-13.54-3.35,4.529,37.923-21.387,37.923c-25.391,0-7.896-44.634-17.84-64.096
		c-0.699-0.995-1.343-2.005-1.938-3.028c0,0,0,0,0,0c-1.881-2.333-2.826-4.576-3.065-6.715c-1.095-3.263-1.675-6.629-1.675-10.072
		c0-29.663,42.539-53.71,95.014-53.71S350.443,133.145,350.443,162.808z"/>
</g>
<g id="Layer_8">
	<path fill="#BC7A4D" d="M233.536,199.76c-0.312,0-0.625-0.018-0.942-0.053c-27.479-3.094-45.953-13.567-53.426-30.287
		c-1.877-4.2,0.005-9.127,4.206-11.004c4.201-1.878,9.127,0.007,11.004,4.206c3.439,7.694,13.184,17.501,40.081,20.53
		c4.572,0.515,7.86,4.638,7.346,9.21C241.325,196.616,237.719,199.76,233.536,199.76z"/>
</g>
</svg>
