<svg xmlns="http://www.w3.org/2000/svg" viewBox="0 0 512 512" enable-background="new 0 0 512 512"><path fill="#2BA52E" d="M500.216 29.35l-.26-.18c-6.913-4.92-16.5-10.585-27.577-15.387-22.158-9.584-49.685-12.91-75.31-7.3-25.64 5.536-49.393 19.94-65.75 37.608-8.17 8.87-14.637 17.868-18.96 25.114-1.196 1.95-2.225 3.757-3.097 5.363-1.5.636-3.02 1.32-4.527 2.106-5.98 2.97-12.223 6.708-18.178 11.42-5.984 4.674-11.79 10.167-17.205 16.305-5.447 6.122-10.313 12.985-14.81 20.17-4.528 7.18-8.398 14.822-11.884 22.585l-2.544 5.85-2.288 5.91-1.14 2.953-1.016 2.972-2.018 5.925c-.632 1.976-1.195 3.957-1.79 5.923-.563 1.97-1.223 3.92-1.695 5.882l-.35 1.356c-2.978-4.44-6.187-8.573-9.603-12.303-3.898-4.252-8-8.037-12.17-11.383-8.353-6.688-17.02-11.458-25.013-14.84-4.566-1.89-8.91-3.31-12.94-4.4l.057-.2v-.002s-3.875-2.796-10.026-5.933c-6.197-3.26-14.66-6.83-24.25-9.532-19.172-5.387-42.046-5.064-62.377 2.355-20.352 7.36-38.18 21.764-49.6 38.016-5.7 8.156-9.99 16.225-12.726 22.627l-.082.188c-2.706 6.174-.128 13.414 5.87 16.492l.23.12c6.197 3.257 14.66 6.83 24.25 9.532 19.172 5.386 42.046 5.063 62.377-2.356 20.352-7.362 38.18-21.765 49.6-38.018 2.55-3.65 4.802-7.273 6.775-10.746 2.932.797 6.128 1.87 9.494 3.312 5.337 2.362 11.128 5.64 16.684 10.225 2.77 2.295 24.52 25.017 24.52 51.223.827 4.38 1.266 8.916 1.224 13.53l-.12 17.4c-.082 11.737-.167 23.66-.252 35.583-.68 95.385-1.357 190.768-1.357 190.768v.28c.077 10.78 39.11 10.5 39.033-.28 0 0-.68-95.382-1.357-190.765-.03-4.67-.065-9.34-.1-14 .19-.99.286-2.016.274-3.064l-.12-11.02-.023-2.754c.017-.92.03-1.887.048-2.893.03-2.014.062-4.192.1-6.52 0-2.317.135-4.834.25-7.478.13-2.643.2-5.434.396-8.325.21-2.89.43-5.9.66-9.018.243-3.114.636-6.305.96-9.604.74-6.577 1.705-13.48 2.98-20.545l.46-2.67.553-2.658 1.116-5.38c.34-1.82.856-3.584 1.28-5.396.452-1.8.872-3.626 1.355-5.43l1.556-5.404.78-2.716.89-2.673 1.782-5.37 2.002-5.275c2.744-6.994 5.805-13.852 9.404-20.2 3.57-6.36 7.425-12.415 11.73-17.737 4.28-5.345 8.845-10.094 13.525-14.137 4.656-4.083 9.52-7.294 14.17-9.9 1.727-1.022 3.474-1.84 5.163-2.63 6.662 4.506 15.33 9.458 25.182 13.73 22.154 9.583 49.682 12.91 75.307 7.3 25.64-5.538 49.392-19.943 65.75-37.61 8.17-8.87 14.636-17.865 18.96-25.11l.13-.214c4.257-6.977 2.337-16.088-4.368-20.76z"/></svg>