<?xml version="1.0" encoding="iso-8859-1"?>
<!-- Generator: Adobe Illustrator 18.1.1, SVG Export Plug-In . SVG Version: 6.00 Build 0)  -->
<!DOCTYPE svg PUBLIC "-//W3C//DTD SVG 1.1//EN" "http://www.w3.org/Graphics/SVG/1.1/DTD/svg11.dtd">
<svg version="1.1" xmlns="http://www.w3.org/2000/svg" xmlns:xlink="http://www.w3.org/1999/xlink" x="0px" y="0px"
	 viewBox="0 0 512 512" enable-background="new 0 0 512 512" xml:space="preserve">
<g id="Layer_4">
	<path fill="#FFC136" d="M220.566,306.892h-22.779c-2.028,0-3.672-1.644-3.672-3.672v-22.779c0-2.028,1.644-3.672,3.672-3.672
		h22.779c2.028,0,3.672,1.644,3.672,3.672v22.779C224.238,305.248,222.594,306.892,220.566,306.892z M276.183,251.275v-22.779
		c0-2.028-1.644-3.672-3.672-3.672h-22.779c-2.028,0-3.672,1.644-3.672,3.672v22.779c0,2.028,1.644,3.672,3.672,3.672h22.779
		C274.539,254.947,276.183,253.303,276.183,251.275z M256.482,439.353v-22.779c0-2.028-1.644-3.672-3.672-3.672h-22.779
		c-2.028,0-3.672,1.644-3.672,3.672v22.779c0,2.028,1.644,3.672,3.672,3.672h22.779
		C254.838,443.025,256.482,441.381,256.482,439.353z M308.427,387.409V364.63c0-2.028-1.644-3.672-3.672-3.672h-22.779
		c-2.028,0-3.672,1.644-3.672,3.672v22.779c0,2.028,1.644,3.672,3.672,3.672h22.779
		C306.783,391.081,308.427,389.437,308.427,387.409z M360.372,335.464v-22.779c0-2.028-1.644-3.672-3.672-3.672h-22.779
		c-2.028,0-3.672,1.644-3.672,3.672v22.779c0,2.028,1.644,3.672,3.672,3.672H356.7C358.728,339.136,360.372,337.492,360.372,335.464
		z M412.316,283.519V260.74c0-2.028-1.644-3.672-3.672-3.672h-22.779c-2.028,0-3.672,1.644-3.672,3.672v22.779
		c0,2.028,1.644,3.672,3.672,3.672h22.779C410.672,287.191,412.316,285.547,412.316,283.519z M242.702,373.629V350.85
		c0-2.028-1.644-3.672-3.672-3.672h-22.779c-2.028,0-3.672,1.644-3.672,3.672v22.779c0,2.028,1.644,3.672,3.672,3.672h22.779
		C241.058,377.301,242.702,375.657,242.702,373.629z M294.647,321.684v-22.779c0-2.028-1.644-3.672-3.672-3.672h-22.779
		c-2.028,0-3.672,1.644-3.672,3.672v22.779c0,2.028,1.644,3.672,3.672,3.672h22.779
		C293.003,325.356,294.647,323.712,294.647,321.684z M346.592,269.739V246.96c0-2.028-1.644-3.672-3.672-3.672h-22.779
		c-2.028,0-3.672,1.644-3.672,3.672v22.779c0,2.028,1.644,3.672,3.672,3.672h22.779
		C344.948,273.411,346.592,271.767,346.592,269.739z M392.615,471.597v-22.779c0-2.028-1.644-3.672-3.672-3.672h-22.779
		c-2.028,0-3.672,1.644-3.672,3.672v22.779c0,2.028,1.644,3.672,3.672,3.672h22.779
		C390.971,475.269,392.615,473.625,392.615,471.597z M444.56,419.652v-22.779c0-2.028-1.644-3.672-3.672-3.672h-22.779
		c-2.028,0-3.672,1.644-3.672,3.672v22.779c0,2.028,1.644,3.672,3.672,3.672h22.779C442.916,423.324,444.56,421.68,444.56,419.652z
		 M326.891,457.817v-22.779c0-2.028-1.644-3.672-3.672-3.672H300.44c-2.028,0-3.672,1.644-3.672,3.672v22.779
		c0,2.028,1.644,3.672,3.672,3.672h22.779C325.247,461.489,326.891,459.845,326.891,457.817z M378.835,405.872v-22.779
		c0-2.028-1.644-3.672-3.672-3.672h-22.779c-2.028,0-3.672,1.644-3.672,3.672v22.779c0,2.028,1.644,3.672,3.672,3.672h22.779
		C377.191,409.544,378.835,407.9,378.835,405.872z M430.78,353.927v-22.779c0-2.028-1.644-3.672-3.672-3.672h-22.779
		c-2.028,0-3.672,1.644-3.672,3.672v22.779c0,2.028,1.644,3.672,3.672,3.672h22.779C429.136,357.599,430.78,355.955,430.78,353.927z
		 M452.602,287.034v14.948c0,2.028,1.644,3.672,3.672,3.672h8.944C461.596,299.184,457.389,292.953,452.602,287.034z
		 M466.382,344.928v22.779c0,2.028,1.644,3.672,3.672,3.672h12.068c0.053-10.107-1.038-20.217-3.271-30.123h-8.797
		C468.026,341.256,466.382,342.9,466.382,344.928z M336.998,497.091h-22.779c-2.028,0-3.672,1.644-3.672,3.672v2.679
		c9.87,2.623,19.981,4.09,30.123,4.409v-7.088C340.67,498.735,339.026,497.091,336.998,497.091z M372.086,221.466h16.002
		c-6.145-6.11-12.74-11.493-19.674-16.157v12.485C368.414,219.822,370.058,221.466,372.086,221.466z M298.005,182.784v16.547
		c0,2.028,1.644,3.672,3.672,3.672h22.779c2.028,0,3.672-1.644,3.672-3.672v-12.222
		C318.255,184.516,308.144,183.074,298.005,182.784z M168.622,328.714h-11.4c0.665,10.175,2.494,20.287,5.484,30.123h5.916
		c2.028,0,3.672-1.644,3.672-3.672v-22.779C172.294,330.358,170.65,328.714,168.622,328.714z"/>
</g>
<g id="Layer_1">
</g>
</svg>
