<?xml version="1.0" encoding="iso-8859-1"?>
<!-- Generator: Adobe Illustrator 18.1.0, SVG Export Plug-In . SVG Version: 6.00 Build 0)  -->
<!DOCTYPE svg PUBLIC "-//W3C//DTD SVG 1.1//EN" "http://www.w3.org/Graphics/SVG/1.1/DTD/svg11.dtd">
<svg version="1.1" id="Layer_1" xmlns="http://www.w3.org/2000/svg" xmlns:xlink="http://www.w3.org/1999/xlink" x="0px" y="0px"
	 viewBox="0 0 512 512" enable-background="new 0 0 512 512" xml:space="preserve">
<g id="Layer_2">
	<path fill="#00B89C" d="M355.074,370.512c-15.472-16.2-29.694-49.052-37.645-69.73c-3.475-9.036,3.015-20.297,12.577-21.825
		c21.882-3.497,57.421-7.627,79.099-2.074c37.13,9.51,69.773,41.445,86.522,74.031c-2.777-5.432-7.948-15.576,0.15,0.262
		c1.942,3.822,1.422,2.813,0.196,0.415c4.785,9.464,10.115,26.081,13.322,36.781c1.695,5.655-1.56,11.344-7.299,12.767
		c-10.938,2.712-28.145,6.609-38.773,7.204c2.689-0.138,3.823-0.193-0.458,0.038c-17.765,0.913,5.78-0.213-0.302,0.001
		C424.149,409.728,381.007,397.666,355.074,370.512z M208.92,307.179c3.133-6.461-8.682,18.713,0.166-0.316
		c2.12-4.591,1.552-3.379,0.213-0.498c5.242-11.411,10.671-31.515,13.877-44.425c1.682-6.774-2.454-13.327-9.286-14.7
		c-12.926-2.599-33.194-6.271-45.701-6.538c3.176,0.053,4.515,0.072-0.541-0.026c-20.982-0.353-7.553-0.111-0.357,0.011
		c-43.218-0.635-94.526,15.662-124.925,49.092c-17.749,19.518-33.049,58.864-41.473,83.62c-3.681,10.818,4.48,23.838,15.819,25.234
		c25.948,3.194,68.049,6.611,93.476-0.522C152.811,386.153,189.188,347.873,208.92,307.179z"/>
</g>
<g id="Layer_3">
	<path fill="#FF929D" d="M449.95,201.206c-13.858-47.642-26.576-85.831-74.218-71.973c-0.873,0.254-1.747,0.534-2.623,0.835
		c-6.66,2.157-12.906,5.021-18.675,8.489c-3.981,2.393-8.768-1.295-7.581-5.786c1.939-7.335,2.973-15.038,2.973-22.983
		c0-49.616-40.222-51.161-89.838-51.161c-49.616,0-89.838,1.545-89.838,51.161c0,0.908,0.024,1.826,0.07,2.75
		c0.166,5.491,0.822,10.858,1.928,16.057c0.922,4.332-3.66,7.784-7.508,5.59c-5.412-3.086-11.228-5.653-17.409-7.608
		c-47.307-14.961-60.908,22.923-75.87,70.23c-14.961,47.307-25.617,86.123,21.69,101.084c0.866,0.274,1.748,0.527,2.643,0.763
		c4.508,1.278,9.036,2.187,13.553,2.744c4.297,0.53,6.033,5.818,2.894,8.8c-3.942,3.746-7.599,7.903-10.902,12.47
		c-29.076,40.204,2.611,65.027,42.816,94.102c40.204,29.075,73.702,51.394,102.777,11.19c0.533-0.737,1.051-1.495,1.557-2.271
		c0.018-0.026,0.035-0.052,0.053-0.078c2.148-3.174,6.895-3.111,8.755,0.24c0.486,0.875,0.988,1.744,1.508,2.608
		c25.599,42.503,60.851,23.074,103.354-2.524c42.503-25.599,76.161-47.674,50.562-90.177c-0.469-0.778-0.963-1.551-1.479-2.32
		c-4.695-7.289-10.279-13.679-16.525-19.115c-3.641-3.168-1.364-9.171,3.461-9.02c9.175,0.286,18.549-0.841,27.841-3.544
		C473.559,287.9,463.808,248.847,449.95,201.206z"/>
</g>
<g id="Layer_4">
	<path fill="#F8BBC6" d="M350.536,207.093c0,0-0.14-0.091-0.41-0.268c-0.275-0.189-0.67-0.436-1.17-0.715
		c-0.505-0.292-1.127-0.653-1.859-1.076c-0.709-0.361-1.539-0.817-2.432-1.229c-0.895-0.418-1.891-0.892-2.936-1.302
		c-1.064-0.463-2.178-0.862-3.365-1.279c-2.377-0.844-4.978-1.576-7.726-2.129c-5.498-1.111-11.567-1.466-17.645-0.684
		c-3.043,0.38-6.075,1.08-9.087,1.98c-3.018,0.873-6.032,1.9-9.017,3.008c-0.109-2.984-0.289-5.964-0.603-8.894
		c-0.308-3.128-0.809-6.199-1.61-9.16c-1.579-5.921-4.207-11.404-7.318-16.071c-1.553-2.334-3.216-4.464-4.898-6.344
		c-0.835-0.94-1.627-1.82-2.458-2.63c-0.775-0.812-1.591-1.553-2.317-2.224c-0.719-0.671-1.456-1.266-2.059-1.785
		c-0.669-0.517-1.239-0.956-1.701-1.313c-0.448-0.357-0.826-0.629-1.105-0.812c-0.266-0.183-0.404-0.278-0.404-0.278
		c-9.056-6.214-21.484-6.089-30.479,1.152c0,0-0.13,0.105-0.382,0.307c-0.265,0.203-0.621,0.503-1.04,0.893
		c-0.433,0.39-0.968,0.871-1.597,1.437c-0.562,0.563-1.251,1.212-1.918,1.935c-0.673,0.723-1.431,1.524-2.142,2.392
		c-0.768,0.87-1.491,1.807-2.253,2.808c-1.535,2.002-3.032,4.251-4.404,6.696c-2.75,4.889-4.956,10.554-6.084,16.578
		c-0.575,3.012-0.843,6.112-0.914,9.255c-0.098,3.144-0.05,6.332,0.086,9.516c0.006,0.124,0.019,0.248,0.025,0.372
		c-2.948-0.748-5.912-1.418-8.866-1.947c-3.089-0.58-6.178-0.96-9.244-1.02c-6.126-0.143-12.126,0.844-17.477,2.524
		c-2.675,0.837-5.186,1.837-7.462,2.924c-1.137,0.538-2.203,1.052-3.213,1.624c-0.996,0.517-1.937,1.092-2.784,1.601
		c-0.845,0.503-1.623,1.043-2.29,1.476c-0.684,0.498-1.265,0.921-1.736,1.265c-0.468,0.33-0.835,0.616-1.089,0.833
		c-0.25,0.204-0.38,0.31-0.38,0.31c-8.502,6.952-11.863,18.918-7.431,29.581c0,0,0.064,0.154,0.188,0.452
		c0.121,0.311,0.309,0.737,0.566,1.249c0.253,0.525,0.565,1.173,0.932,1.935c0.383,0.697,0.813,1.541,1.321,2.383
		c0.506,0.849,1.063,1.8,1.696,2.727c0.62,0.981,1.317,1.938,2.064,2.949c1.492,2.034,3.232,4.102,5.194,6.104
		c3.923,4.009,8.743,7.714,14.21,10.483c2.73,1.396,5.632,2.521,8.629,3.469c0.835,0.272,1.689,0.513,2.536,0.766
		c-0.512,0.72-1.037,1.435-1.528,2.164c-1.78,2.591-3.375,5.263-4.67,8.043c-2.607,5.546-4.129,11.432-4.756,17.006
		c-0.316,2.785-0.416,5.486-0.341,8.007c0.033,1.257,0.072,2.44,0.186,3.595c0.07,1.12,0.216,2.213,0.339,3.193
		c0.118,0.976,0.298,1.906,0.425,2.691c0.179,0.826,0.331,1.529,0.455,2.099c0.112,0.561,0.226,1.013,0.322,1.333
		c0.086,0.312,0.13,0.472,0.13,0.472c2.922,10.587,12.509,18.498,24.053,18.754c0,0,0.167,0.004,0.49,0.011
		c0.333,0.015,0.799,0.015,1.371-0.013c0.583-0.019,1.302-0.043,2.147-0.071c0.792-0.069,1.738-0.121,2.714-0.245
		c0.981-0.119,2.076-0.244,3.18-0.449c1.148-0.171,2.305-0.421,3.532-0.696c2.464-0.542,5.058-1.298,7.682-2.283
		c5.253-1.967,10.59-4.879,15.333-8.76c2.381-1.933,4.582-4.132,6.661-6.49c0.587-0.654,1.152-1.338,1.726-2.01
		c0.452,0.759,0.894,1.529,1.361,2.273c1.651,2.675,3.449,5.215,5.469,7.522c4.019,4.626,8.787,8.398,13.632,11.225
		c2.42,1.415,4.849,2.598,7.186,3.549c1.163,0.478,2.261,0.92,3.364,1.283c1.053,0.389,2.112,0.697,3.058,0.98
		c0.941,0.286,1.864,0.498,2.633,0.7c0.828,0.17,1.533,0.315,2.104,0.432c0.559,0.124,1.018,0.203,1.349,0.244
		c0.32,0.047,0.485,0.072,0.485,0.072c10.865,1.606,21.976-3.964,26.876-14.42c0,0,0.071-0.151,0.208-0.444
		c0.148-0.299,0.337-0.725,0.543-1.259c0.218-0.541,0.487-1.208,0.803-1.992c0.257-0.753,0.592-1.639,0.873-2.581
		c0.287-0.945,0.616-1.998,0.874-3.09c0.308-1.119,0.546-2.278,0.791-3.512c0.5-2.473,0.857-5.151,1.017-7.95
		c0.324-5.6-0.182-11.659-1.814-17.565c-0.806-2.959-1.927-5.861-3.243-8.716c-1.292-2.867-2.736-5.71-4.257-8.512
		c-1.251-2.286-2.603-4.51-3.989-6.693c2.487-0.708,4.976-1.47,7.43-2.345c2.999-1.081,5.968-2.243,8.84-3.525
		c2.881-1.256,5.649-2.678,8.219-4.352c5.147-3.325,9.555-7.513,13.037-11.911c1.742-2.196,3.257-4.434,4.528-6.613
		c0.637-1.084,1.23-2.109,1.745-3.149c0.534-0.988,0.988-1.992,1.402-2.889c0.416-0.891,0.756-1.775,1.064-2.508
		c0.285-0.796,0.528-1.473,0.725-2.022c0.202-0.536,0.344-0.979,0.432-1.301c0.092-0.31,0.14-0.47,0.14-0.47
		C364.141,225.207,360.195,213.421,350.536,207.093z"/>
</g>
<g id="Layer_5">
	<path fill="#FF473E" d="M244.546,249.384c0,0-0.004-0.105-0.012-0.307c-0.006-0.239-0.024-0.44-0.046-0.697
		c-0.054-0.622-0.133-1.535-0.234-2.696c-0.142-1.265-0.297-2.824-0.562-4.633c-0.132-0.906-0.273-1.871-0.422-2.887
		c-0.18-1.021-0.369-2.094-0.566-3.214c-0.355-2.24-0.95-4.664-1.47-7.225c-0.318-1.274-0.644-2.584-0.977-3.922
		c-0.333-1.338-0.662-2.705-1.09-4.076c-0.402-1.375-0.812-2.773-1.226-4.189c-0.4-1.418-0.937-2.816-1.402-4.244
		c-0.497-1.419-0.935-2.869-1.483-4.287c-0.553-1.415-1.108-2.835-1.662-4.255c-1.035-2.869-2.401-5.595-3.585-8.341
		c-0.31-0.68-0.593-1.37-0.921-2.033c-0.338-0.658-0.674-1.314-1.008-1.965c-0.665-1.302-1.321-2.589-1.967-3.854
		c-0.325-0.631-0.632-1.264-0.963-1.877c-0.352-0.601-0.7-1.196-1.045-1.785c-0.686-1.178-1.357-2.33-2.011-3.451
		c-0.672-1.109-1.237-2.241-1.939-3.239c-0.675-1.014-1.327-1.993-1.953-2.933c-0.623-0.941-1.22-1.842-1.788-2.699
		c-0.568-0.856-1.085-1.683-1.663-2.396c-1.106-1.457-2.07-2.728-2.864-3.774c-1.578-2.094-2.48-3.291-2.48-3.291l-0.644-0.854
		c-6.078-8.064-4.468-19.528,3.596-25.606s19.528-4.468,25.606,3.596c0.165,0.219,0.362,0.496,0.516,0.72
		c0,0,1.042,1.531,2.865,4.211c0.907,1.341,2.008,2.968,3.27,4.836c0.653,0.919,1.245,1.961,1.891,3.046
		c0.643,1.086,1.319,2.228,2.024,3.42c0.702,1.192,1.434,2.434,2.191,3.719c0.781,1.271,1.419,2.677,2.165,4.072
		c0.723,1.407,1.466,2.852,2.225,4.328c0.378,0.738,0.76,1.485,1.146,2.238c0.363,0.764,0.701,1.549,1.056,2.333
		c0.701,1.571,1.415,3.169,2.136,4.786c0.359,0.808,0.721,1.622,1.084,2.439c0.352,0.822,0.656,1.667,0.987,2.506
		c1.268,3.375,2.703,6.746,3.782,10.24c0.573,1.734,1.146,3.467,1.716,5.194c0.561,1.729,1.007,3.485,1.508,5.208
		c0.469,1.733,1.006,3.43,1.401,5.145c0.406,1.711,0.806,3.401,1.201,5.063c0.416,1.655,0.73,3.308,1.045,4.922
		c0.312,1.614,0.617,3.194,0.914,4.732c0.476,3.108,1.012,6.013,1.312,8.757c0.166,1.366,0.325,2.674,0.476,3.919
		c0.118,1.258,0.229,2.45,0.334,3.571c0.206,2.246,0.307,4.238,0.399,5.894c0.032,0.84,0.06,1.591,0.085,2.244
		c0.009,0.355,0.017,0.683,0.025,0.984c0.005,0.32,0.009,0.61,0.013,0.87c0.003,0.48,0.005,0.847,0.006,1.095
		c-0.002,0.203-0.004,0.308-0.004,0.308c-0.097,8.559-7.115,15.419-15.674,15.322c-8.276-0.094-14.963-6.657-15.309-14.829
		L244.546,249.384z"/>
</g>
<g id="Layer_6">
	<path fill="#FFE564" d="M241.891,133.805l0.001-0.001l-0.017-0.017c-0.592-0.66-1.219-1.287-1.878-1.878l-15.395-15.395
		c-4.459-4.971-10.929-8.1-18.132-8.1c-13.45,0-24.353,10.903-24.353,24.353c0,7.847,3.715,14.822,9.478,19.276l12.874,12.874
		c4.454,5.763,11.429,9.477,19.275,9.477c13.45,0,24.353-10.903,24.353-24.353C248.096,143.802,245.748,138.114,241.891,133.805z"/>
</g>
</svg>
