<?xml version="1.0" encoding="iso-8859-1"?>
<!-- Generator: Adobe Illustrator 18.1.1, SVG Export Plug-In . SVG Version: 6.00 Build 0)  -->
<!DOCTYPE svg PUBLIC "-//W3C//DTD SVG 1.1//EN" "http://www.w3.org/Graphics/SVG/1.1/DTD/svg11.dtd">
<svg version="1.1" xmlns="http://www.w3.org/2000/svg" xmlns:xlink="http://www.w3.org/1999/xlink" x="0px" y="0px"
	 viewBox="0 0 512 512" enable-background="new 0 0 512 512" xml:space="preserve">
<g id="Layer_7">
	<path fill="#FF6E83" d="M66.03,372.971c0,6.049-4.904,10.953-10.953,10.953s-10.953-4.904-10.953-10.953
		c0-6.049,4.904-10.953,10.953-10.953S66.03,366.922,66.03,372.971z M44.125,444.006c-6.049,0-10.953,4.904-10.953,10.953
		c0,6.049,4.904,10.953,10.953,10.953s10.953-4.904,10.953-10.953C55.078,448.91,50.174,444.006,44.125,444.006z M177.862,400.019
		c-6.049,0-10.953,4.904-10.953,10.953c0,6.049,4.904,10.953,10.953,10.953c6.049,0,10.953-4.904,10.953-10.953
		C188.815,404.923,183.911,400.019,177.862,400.019z M202.995,362.018c-6.049,0-10.953,4.904-10.953,10.953
		c0,6.049,4.904,10.953,10.953,10.953c6.049,0,10.953-4.904,10.953-10.953C213.948,366.922,209.044,362.018,202.995,362.018z"/>
</g>
<g id="Layer_1">
</g>
</svg>
