<svg xmlns="http://www.w3.org/2000/svg" viewBox="0 0 512 512" enable-background="new 0 0 512 512"><path fill="#DEE2E2" d="M500.95 483.988H337.108c-6.228 8.153-16.047 13.418-27.1 13.418h-95.413c-.113 1.432-.323 2.835-.607 4.212H21.718c-6.6 0-12-5.4-12-12v-81.043c10.426-17.114 29.262-28.542 50.77-28.542 22.646 0 42.33 12.676 52.353 31.317 5.347-2.26 11.22-3.51 17.39-3.51 10.874 0 20.84 3.89 28.584 10.35.056-22.86 18.602-41.374 41.475-41.374 17.106 0 31.79 10.358 38.13 25.143 6.4-9.094 16.97-15.04 28.934-15.04 12.862 0 24.118 6.866 30.31 17.13 7.564-5.883 17.065-9.397 27.39-9.397 0-32.81 26.6-59.41 59.41-59.41 27.642 0 50.872 18.878 57.507 44.443 5.686-3.9 12.564-6.184 19.978-6.184 19.535 0 35.372 15.836 35.372 35.372 0 2.73-.32 5.384-.907 7.937 1.476-.363 2.992-.62 4.536-.79v67.966zm0-319.05c-4.71 1.8-8.745 4.968-11.62 9.018-4.592-10.44-15.02-17.735-27.157-17.735-16.356 0-29.618 13.24-29.658 29.59-5.54-4.62-12.665-7.4-20.44-7.4-17.642 0-31.942 14.3-31.942 31.94s14.3 31.94 31.94 31.94h88.878v-77.35zM87.437 266.974c-2.02 0-3.98.25-5.855.713.42-1.825.648-3.723.648-5.676 0-13.97-11.324-25.292-25.294-25.292-8.52 0-16.052 4.218-20.635 10.674-4.52-10.274-14.693-17.485-26.583-17.713v86.045h77.72c13.462 0 24.375-10.913 24.375-24.375 0-13.46-10.91-24.374-24.373-24.374z"/></svg>