<?xml version="1.0" encoding="utf-8"?>
<!-- Generator: Adobe Illustrator 18.0.0, SVG Export Plug-In . SVG Version: 6.00 Build 0)  -->
<!DOCTYPE svg PUBLIC "-//W3C//DTD SVG 1.1 Tiny//EN" "http://www.w3.org/Graphics/SVG/1.1/DTD/svg11-tiny.dtd">
<svg version="1.1" baseProfile="tiny" id="Layer_1" xmlns="http://www.w3.org/2000/svg" xmlns:xlink="http://www.w3.org/1999/xlink"
	 x="0px" y="0px" width="512px" height="512px" viewBox="0 0 512 512" xml:space="preserve">
<path fill="#FF473E" d="M505,249.4c-4.9-4.9-14.1-6.8-19.5-9.1c-22.8-9.7-30-21.5-50.2-35.9c-21.8-15.6-40.2-35.5-64.4-47.7
	c-23.6-11.9-50-14-75.1-5.6c-12.2,4.1-23.7,10.2-34.4,17.2c-3.3,2.2-7.6,2.5-11.1,0.7c-10.3-5.3-30-16.7-33.8-17.9
	c-59-19.7-96,22.3-139.5,53.3c-20.2,14.4-27.5,26.2-50.2,35.9c-5.8,2.5-15,4.1-19.6,9c-3.6,3.8-3.5,7.2-3.5,11.1
	c0,26.4,68.9,142.4,252.1,142.4S508,286.4,508,260.9C508,259.3,508.4,252.8,505,249.4z"/>
<path fill="#FF929D" stroke="#FF929D" stroke-width="22.6509" stroke-linecap="round" stroke-linejoin="round" stroke-miterlimit="10" d="
	M255.7,186.1"/>
</svg>
