<?xml version="1.0" encoding="utf-8"?>
<!-- Generator: Adobe Illustrator 18.1.0, SVG Export Plug-In . SVG Version: 6.00 Build 0)  -->
<!DOCTYPE svg PUBLIC "-//W3C//DTD SVG 1.0//EN" "http://www.w3.org/TR/2001/REC-SVG-20010904/DTD/svg10.dtd">
<svg version="1.0" id="Layer_1" xmlns="http://www.w3.org/2000/svg" xmlns:xlink="http://www.w3.org/1999/xlink" x="0px" y="0px"
	 width="72px" height="72px" viewBox="0 0 72 72" enable-background="new 0 0 72 72" xml:space="preserve">
<path fill="#FF473E" d="M46.3,34.6c-5.8-5.9-15.2-5.5-20.5,0.7c0,0,0,0,0,0c-0.7,0.8-2,0.9-2.8,0.2c0,0,0,0,0,0
	c-5.8-5-14.6-4.4-19.6,1.4c-4.3,4.9-4.5,12.4-0.5,17.6c1.2,1.6,2.7,2.8,4.4,3.7l18.9,13.1c0.7,0.5,1.6,0.4,2.2-0.2l16.6-15.8
	c1.4-1.1,2.7-2.5,3.6-4.2C51.5,45.8,50.6,39,46.3,34.6z"/>
<path fill="#FF7DDA" d="M70.4,7c-3.3-5.2-10.2-6.3-15-2.7c0,0,0,0,0,0c-0.7,0.5-1.6,0.4-2.1-0.3c0,0,0,0,0,0
	c-3.5-4.5-9.9-5.4-14.5-2C35,5,33.7,10.4,35.8,14.8c0.7,1.4,1.5,2.5,2.6,3.4l11.7,12.4c0.4,0.4,1.1,0.5,1.6,0.2l14.5-8.9
	c1.2-0.6,2.3-1.4,3.3-2.5C72.5,15.9,72.8,10.8,70.4,7z"/>
</svg>
