<svg xmlns="http://www.w3.org/2000/svg" viewBox="0 0 512 512" enable-background="new 0 0 512 512"><path fill="#D6D3C5" d="M85.928 216.42l-6.395 20.516-.314-.078c-.746-.18-1.488-.356-2.23-.526l-.735-.167c-.332-.075-.662-.144-.994-.217l6.39-20.494c1.435.305 2.863.627 4.277.967zm-20.656-3.484l-6.344 20.352c.304.032.607.06.913.096.275.03.55.062.824.095.68.08 1.362.162 2.048.253l.63.087 6.362-20.405c-1.485-.188-2.963-.348-4.43-.48zm35.57 7.82c-1.16-.4-2.35-.79-3.56-1.174l-6.408 20.555c.79.252 1.58.512 2.37.776.183.06.365.12.547.182.41.14.82.284 1.23.426l6.41-20.556c-.196-.068-.39-.14-.587-.207zm-52.37-7.783l-6.14 19.704c.135-.006.27-.012.406-.016.584-.02 1.172-.034 1.764-.045.27-.005.542-.007.813-.01.537-.004 1.076-.006 1.618-.003l6.233-19.996c-1.605.07-3.173.19-4.693.37zm116.923 63.14l-3.04 9.755c.296.362.598.72.89 1.087l.046.06c.8 1.008 1.573 2.032 2.33 3.064l2.46-7.89c-.864-2.092-1.757-4.122-2.684-6.08zm-8.388-14.818c-1.04-1.538-2.11-3.005-3.195-4.44l-4.766 15.29c1.214 1.066 2.395 2.16 3.56 3.266l4.4-14.114zm-13.148-15.65c-1.17-1.123-2.35-2.216-3.554-3.258l-5.89 18.56c1.267.85 2.524 1.71 3.76 2.595l5.682-17.898zM28.85 222.072l-3.605 11.563c-.004.504.003 1.015.028 1.54.354-.098.707-.195 1.066-.288.227-.06.455-.12.687-.177.483-.118.973-.23 1.467-.34.247-.055.496-.108.746-.16.143-.03.288-.056.43-.085l5.387-17.28c-2.495 1.365-4.595 3.094-6.208 5.228zm101.375 12.692c-1.262-.833-2.536-1.634-3.822-2.404l-6.37 20.013c1.313.694 2.614 1.41 3.907 2.138l6.285-19.744zm-14.108-7.87c-1.33-.625-2.668-1.227-4.013-1.805l-6.5 20.477c1.35.564 2.694 1.145 4.033 1.744l6.48-20.416z"/></svg>