<svg xmlns="http://www.w3.org/2000/svg" viewBox="0 0 512 512" enable-background="new 0 0 512 512"><path fill="#CCC9C4" d="M380.26 208.526l1.022-2.025c.19-.332.394-.694.61-1.077.226-.376.43-.79.707-1.175l.814-1.2.965-1.2c.34-.393.74-.77 1.1-1.137.43-.346.81-.697 1.27-.985l.68-.412c.233-.125.49-.223.72-.325.23-.108.48-.178.728-.238.243-.062.47-.13.713-.145.47-.07.913-.05 1.3-.016.39.06.72.134.99.234.273.096.47.19.627.276.13.07.273.163.273.163.608.377.796 1.176.42 1.784-.378.608-1.177.796-1.785.42-.006-.003.038.046-.036.057-.045.023-.15.048-.263.1-.115.043-.254.13-.386.216-.137.116-.266.234-.386.402-.056.062-.117.175-.17.266-.053.09-.102.176-.154.305-.05.12-.094.213-.14.337-.04.13-.084.264-.127.4-.08.255-.152.61-.216.89-.057.365-.115.676-.155 1.035l-.094 1.095-.03 1.126c-.024.35.03.7.043 1.012l.066.864.026 2.423c.03 2.843-2.25 5.17-5.093 5.2-2.843.03-5.17-2.25-5.2-5.092-.01-.846.186-1.647.54-2.355l.62-1.222zm31.27-3.415c-.716.306-1.374.78-1.91 1.414-1.833 2.168-1.56 5.41.606 7.242s5.41 1.56 7.242-.607l.436-.517c.14-.164.307-.364.5-.592.19-.226.44-.51.56-.694l.51-.71c.177-.265.447-.516.69-.8.256-.29.523-.562.803-.825.282-.28.574-.552.873-.795.304-.268.61-.504.925-.725.32-.247.628-.422.95-.625.63-.358 1.27-.663 1.823-.83.285-.102.538-.155.774-.21.232-.048.436-.08.6-.098.154-.016.275-.03.358-.037.09 0 .072-.036.072-.036.6.388 1.403.216 1.792-.386.388-.6.216-1.403-.386-1.792l-.238-.154c-.136-.085-.306-.18-.535-.293-.225-.115-.497-.23-.81-.348-.314-.107-.673-.234-1.063-.32-.785-.206-1.703-.31-2.688-.35-.486 0-1-.02-1.504.032-.51.03-1.027.078-1.53.164-.515.063-1.016.16-1.503.276-.495.1-.975.218-1.424.36-.455.14-.898.24-1.317.404l-1.188.435c-.39.14-.663.26-.924.37l-.67.282-.586.246-1.238.52zm22.384 19.388c-.67-.11-1.374-.088-2.075.09-2.723.69-4.37 3.455-3.68 6.176.69 2.72 3.455 4.368 6.176 3.678l.736-.186c.234-.06.52-.13.845-.214.292-.08.786-.187.964-.26.26-.09.544-.185.84-.287.31-.128.67-.162 1.05-.243l.594-.112.566-.06.603-.06c.194-.01.37-.002.568-.005.19.003.406-.01.59.007l.554.06c.404.026.698.142 1.08.22.308.122.677.227.95.397.314.147.56.34.818.522.47.387.822.806 1.037 1.117l.223.35c.05.095.07.07.07.08-.008.715.564 1.302 1.28 1.312.716.01 1.303-.563 1.313-1.28l.005-.293c.004-.17-.012-.39-.034-.677-.06-.556-.21-1.335-.55-2.227-.19-.432-.392-.913-.69-1.37-.26-.487-.636-.917-1-1.394-.415-.408-.82-.9-1.31-1.256-.477-.392-.976-.77-1.508-1.07-.263-.156-.525-.328-.793-.47-.27-.13-.54-.257-.81-.384l-.805-.37c-.27-.095-.535-.19-.796-.28-.527-.177-1.026-.383-1.54-.49l-1.44-.347c-.475-.122-.78-.15-1.11-.213-.317-.054-.592-.1-.818-.14l-.712-.12-1.186-.203zm-28.23-124.194c1.677 2.614 5.156 3.373 7.77 1.696 2.615-1.68 3.374-5.158 1.697-7.773l-8.804-13.72c-.192-.297-.53-.492-.91-.483-.58.014-1.04.495-1.026 1.076l.384 16.3c.026.988.315 2.008.89 2.903zm28.453-7.76c1.105 2.932 4.378 4.415 7.31 3.31 2.934-1.103 4.417-4.377 3.313-7.31l-5.187-13.776c-.12-.31-.385-.567-.733-.655-.568-.144-1.145.2-1.288.77l-3.606 14.27c-.276 1.086-.234 2.263.19 3.39zm-22.01-42.14c-4.565.364-7.97 4.36-7.604 8.924.365 4.564 4.36 7.968 8.925 7.603l.033-.002.828-.066c.13-.01.277-.02.435-.034l.12-.01c.026-.005-.012-.02-.016-.03-.023-.023-.046-.05-.068-.078-.044-.06-.08-.13-.11-.216-.012-.043-.022-.09-.03-.138 0-.02-.014-.058.004-.068l.073-.012c.2-.02.43-.106.727-.093.3.054.637.038 1.014.16.373.128.788.21 1.206.425.423.184.868.386 1.303.65.447.24.885.525 1.32.82.445.28.853.614 1.27.92.817.633 1.57 1.28 2.196 1.864.627.58 1.14 1.093 1.487 1.454l.533.558.116.122c.306.318.75.5 1.224.457.836-.073 1.454-.81 1.38-1.646l-.078-.884c-.05-.553-.14-1.332-.282-2.276-.14-.944-.346-2.047-.63-3.243-.158-.593-.296-1.22-.505-1.853-.194-.634-.403-1.286-.666-1.94-.235-.656-.537-1.315-.858-1.97-.288-.66-.71-1.306-1.084-1.94-.376-.637-.893-1.247-1.335-1.83-.48-.58-1.065-1.118-1.574-1.613-.2-.23-.696-.533-1.046-.77-.38-.247-.755-.47-1.115-.673-.18-.1-.357-.195-.526-.287l-.236-.124-.1-.07-.363-.243-.69-.463c-1.496-1.007-3.34-1.537-5.28-1.382zm19.33-11.618c-1.37-.63-2.93-.89-4.534-.664-4.46.626-7.57 4.748-6.946 9.208.625 4.46 4.747 7.57 9.207 6.946 0 0 .35-.05.965-.135l1.106-.155c.15-.016.116-.027.133-.043l.037-.053.117-.156c.06-.046.094-.17.22-.182l.4-.053c.143-.017.314-.06.475-.06.16.013.323.027.49.043.375-.01.724.14 1.137.264.424.11.793.402 1.248.617.384.317.845.594 1.224.99.392.378.793.773 1.13 1.22.373.42.676.885.984 1.327.302.446.553.897.8 1.315.218.426.445.822.604 1.183.17.36.315.68.422.943.21.513.328.806.328.806l.092.227c.183.44.575.786 1.08.888.804.164 1.59-.356 1.752-1.162l.06-.294.146-.767c.062-.33.12-.727.18-1.188.072-.465.102-.985.157-1.566.025-.578.066-1.213.054-1.894-.018-.68-.024-1.41-.123-2.176-.06-.77-.208-1.57-.387-2.403-.155-.833-.476-1.68-.752-2.552-.396-.842-.723-1.74-1.264-2.563-.53-.828-1.052-1.674-1.752-2.388-.332-.37-.67-.733-1.01-1.086-.352-.334-.736-.62-1.104-.917-.372-.292-.743-.573-1.11-.84-.36-.27-.86-.493-1.276-.716-.435-.22-.863-.42-1.276-.603l-1.094-.466-1.016-.464-.885-.406-.02-.015zm-19.652 316.36c-.744-.27-1.562-.37-2.402-.264-2.82.36-4.816 2.936-4.457 5.757.36 2.82 2.935 4.815 5.756 4.456l2.404-.306c.263-.05.55-.106.85-.165.308-.05.65-.143 1-.16l1.122-.1c.362-.01.73-.02 1.098-.032.36 0 .676.02 1.046.035.285.03.647.06.91.11.14.03.277.056.41.082.13.03.227.063.352.1.133.035.225.074.32.116.097.042.216.09.284.138.18.1.313.215.444.34.102.12.204.248.26.357.063.106.1.21.128.25.02.07.063.023.062.03-.304.647-.026 1.42.622 1.723.648.303 1.42.025 1.724-.623 0 0 .076-.153.13-.29.067-.166.137-.374.2-.656.07-.278.103-.615.12-1.01-.012-.387-.043-.83-.166-1.287-.043-.24-.137-.457-.225-.693-.088-.237-.187-.48-.32-.693-.13-.22-.256-.462-.407-.68l-.488-.625c-.34-.422-.732-.762-1.126-1.147-.407-.316-.826-.67-1.256-.963l-1.303-.82c-.438-.23-.87-.454-1.287-.672-.414-.23-.85-.386-1.25-.566l-1.14-.482-2.13-.782-1.285-.472zm8.295 31.14c-.385-.675-.93-1.274-1.623-1.734-2.365-1.568-5.554-.923-7.123 1.442s-.924 5.554 1.44 7.123l.564.374c.18.12.397.263.646.43.247.162.557.377.755.473l.763.427c.283.143.564.382.874.592.32.22.62.454.914.7.313.248.617.507.89.776.303.27.573.55.83.835.28.29.49.575.73.872.427.582.804 1.184 1.035 1.714.133.27.216.514.298.743.074.225.13.424.166.584.033.152.06.27.08.352.01.09.042.066.042.066-.316.642-.052 1.42.59 1.735s1.42.053 1.735-.59l.126-.254c.068-.145.144-.325.23-.565.085-.235.17-.52.248-.844.07-.324.156-.694.195-1.092.115-.804.112-1.728.04-2.71-.06-.483-.1-.998-.208-1.49-.088-.506-.197-1.012-.34-1.503-.123-.502-.28-.99-.45-1.46-.156-.48-.328-.942-.52-1.372-.192-.437-.344-.865-.555-1.262l-.57-1.13c-.183-.37-.336-.627-.474-.874l-.36-.634-.31-.552-.66-1.172zm-16.667 24.477c.033-.68-.07-1.375-.33-2.05-1-2.624-3.936-3.94-6.56-2.94-2.622 1-3.938 3.937-2.938 6.56l.27.71.31.814c.112.28.277.76.37.928l.382.802c.163.29.24.647.363 1.014.06.19.12.38.18.577l.123.555.13.592c.032.192.045.368.07.563.02.188.056.4.063.585l.005.556c.023.405-.06.71-.09 1.1-.088.318-.15.697-.287.987-.11.33-.273.595-.425.873-.33.51-.705.91-.99 1.16l-.322.262c-.088.06-.06.076-.07.08-.712.072-1.23.71-1.156 1.42s.71 1.23 1.42 1.157l.293-.03c.17-.016.385-.057.667-.11.546-.126 1.303-.365 2.15-.804.406-.24.86-.495 1.28-.843.454-.317.837-.738 1.27-1.156.355-.457.797-.917 1.094-1.446.334-.518.653-1.058.888-1.62.126-.28.266-.56.377-.842.094-.284.19-.567.285-.848l.274-.843.186-.822c.114-.545.26-1.064.307-1.588l.178-1.47c.067-.486.06-.794.084-1.128.017-.32.03-.598.043-.828l.038-.72.067-1.203z"/></svg>