<?xml version="1.0" encoding="utf-8"?>
<!-- Generator: Adobe Illustrator 18.1.0, SVG Export Plug-In . SVG Version: 6.00 Build 0)  -->
<!DOCTYPE svg PUBLIC "-//W3C//DTD SVG 1.1//EN" "http://www.w3.org/Graphics/SVG/1.1/DTD/svg11.dtd">
<svg version="1.1" id="Layer_1" xmlns="http://www.w3.org/2000/svg" xmlns:xlink="http://www.w3.org/1999/xlink" x="0px" y="0px"
	 width="72px" height="72px" viewBox="0 0 72 72" enable-background="new 0 0 72 72" xml:space="preserve">
<path fill="#2B3B47" d="M26.3,33.4c-1.3-3.5-5-5.6-8.7-4.6c-3.7,1-5.9,4.6-5.3,8.4l-0.1,0l2.7,9.9l0,0c0,0,0,0,0,0
	c1,3.9,5.1,6.2,9,5.2s6.2-5.1,5.2-9c0,0,0,0,0,0l0,0L26.3,33.4L26.3,33.4z"/>
<path fill="#2B3B47" d="M61.6,37.1c0.7-3.7-1.6-7.4-5.3-8.4c-3.7-1-7.5,1.1-8.7,4.6l-0.1,0l-2.7,9.9l0,0c0,0,0,0,0,0
	c-1,3.9,1.3,7.9,5.2,9c3.9,1,7.9-1.3,9-5.2c0,0,0,0,0,0l0,0L61.6,37.1L61.6,37.1z"/>
<path fill="#2B3B47" d="M37,64.5c-3.2,0-6-1.6-7.6-4.3c-0.2-0.4-0.2-0.8,0-1.2c0.2-0.4,0.6-0.6,1.1-0.6h13.2c0.4,0,0.8,0.2,1.1,0.6
	c0.2,0.4,0.2,0.8,0,1.2C43,62.9,40.1,64.5,37,64.5z"/>
</svg>
