<?xml version="1.0" encoding="utf-8"?>
<!-- Generator: Adobe Illustrator 18.1.0, SVG Export Plug-In . SVG Version: 6.00 Build 0)  -->
<!DOCTYPE svg PUBLIC "-//W3C//DTD SVG 1.0//EN" "http://www.w3.org/TR/2001/REC-SVG-20010904/DTD/svg10.dtd">
<svg version="1.0" id="Layer_1" xmlns="http://www.w3.org/2000/svg" xmlns:xlink="http://www.w3.org/1999/xlink" x="0px" y="0px"
	 width="72px" height="72px" viewBox="0 0 72 72" enable-background="new 0 0 72 72" xml:space="preserve">
<path fill="#E5AB83" d="M35.7,54.7C35.7,54.7,35.7,54.7,35.7,54.7c-1.6,0-3-0.8-3.8-2.1c-0.3-0.4-0.1-1,0.3-1.3
	c0.4-0.3,1-0.1,1.3,0.3c0.5,0.8,1.3,1.2,2.3,1.2c0,0,0,0,0,0c0.9,0,1.8-0.5,2.3-1.2c0.3-0.4,0.8-0.6,1.3-0.3
	c0.4,0.3,0.6,0.8,0.3,1.3C38.7,53.9,37.3,54.7,35.7,54.7z"/>
<path fill="#E5AB83" d="M46,35.6c0,0,0.1-0.1,0.3-0.1c0.1,0,0.2-0.1,0.4-0.2c0.2-0.1,0.3-0.1,0.5-0.2c0.7-0.3,1.7-0.4,2.7-0.3
	c1,0.1,1.9,0.6,2.4,1.1c0.1,0.1,0.2,0.3,0.3,0.4c0.1,0.1,0.2,0.2,0.2,0.3c0.1,0.2,0.2,0.3,0.2,0.3c0.1,0.2,0.1,0.5-0.1,0.7
	c-0.2,0.1-0.5,0.1-0.6-0.1l0-0.1c0,0-0.1-0.1-0.2-0.2c-0.1-0.1-0.1-0.1-0.2-0.2c-0.1-0.1-0.2-0.2-0.3-0.2c-0.4-0.3-1.1-0.6-1.8-0.6
	c-0.7,0-1.4,0.2-1.9,0.4c-0.1,0.1-0.2,0.1-0.3,0.2c-0.1,0.1-0.1,0.1-0.2,0.1C47.1,37,47,37.1,47,37.1c-0.4,0.3-1,0.2-1.3-0.2
	C45.4,36.5,45.5,35.9,46,35.6C45.9,35.6,45.9,35.6,46,35.6z"/>
<path fill="#E5AB83" d="M24.4,37.1c0,0-0.1-0.1-0.2-0.2c-0.1-0.1-0.1-0.1-0.2-0.1c-0.1-0.1-0.2-0.1-0.3-0.2
	c-0.5-0.2-1.2-0.4-1.9-0.4c-0.7,0-1.4,0.3-1.8,0.6c-0.1,0.1-0.2,0.2-0.3,0.2c-0.1,0.1-0.1,0.1-0.2,0.2c-0.1,0.1-0.2,0.2-0.2,0.2
	l0,0.1c-0.2,0.2-0.5,0.2-0.7,0.1c-0.2-0.2-0.2-0.4-0.1-0.6c0,0,0.1-0.1,0.2-0.3c0.1-0.1,0.1-0.2,0.2-0.3c0.1-0.1,0.2-0.3,0.3-0.4
	c0.5-0.5,1.5-1,2.4-1.1c1-0.1,2,0,2.7,0.3c0.2,0.1,0.3,0.1,0.5,0.2c0.1,0.1,0.3,0.1,0.4,0.2c0.2,0.1,0.3,0.1,0.3,0.1
	c0.4,0.3,0.6,0.8,0.3,1.3C25.5,37.3,25,37.4,24.4,37.1C24.5,37.1,24.5,37.1,24.4,37.1z"/>
</svg>
