<?xml version="1.0" encoding="iso-8859-1"?>
<!-- Generator: Adobe Illustrator 18.1.1, SVG Export Plug-In . SVG Version: 6.00 Build 0)  -->
<!DOCTYPE svg PUBLIC "-//W3C//DTD SVG 1.1//EN" "http://www.w3.org/Graphics/SVG/1.1/DTD/svg11.dtd">
<svg version="1.1" xmlns="http://www.w3.org/2000/svg" xmlns:xlink="http://www.w3.org/1999/xlink" x="0px" y="0px"
	 viewBox="0 0 512 512" enable-background="new 0 0 512 512" xml:space="preserve">
<g id="Layer_2">
	<rect x="55.187" y="73" fill="#597B91" width="83.541" height="104.705"/>
</g>
<g id="Layer_3">
	<path fill="#799EB2" d="M390.578,507H91.857c-20.252,0-36.669-16.417-36.669-36.669V120.259c0-20.252,53.649-36.669,73.9-36.669
		h261.49c20.252,0,36.669,16.417,36.669,36.669v350.071C427.247,490.583,410.83,507,390.578,507z"/>
</g>
<g id="Layer_4">
	<path fill="#597B91" d="M427.932,4.041H134.917c-1.925-0.15-3.865-0.25-5.829-0.25c-40.814,0-73.901,33.086-73.901,73.9
		c0,1.988,0.105,3.95,0.26,5.898h-0.26v387.997c0,19.558,15.855,35.414,35.414,35.414h40.633V83.59h259.344
		c20.252,0,36.669,16.417,36.669,36.669v307.192h12.567c20.544,0,37.199-16.654,37.199-37.199V53.121
		C477.013,26.015,455.039,4.041,427.932,4.041z"/>
</g>
<g id="Layer_5">
	<path fill="#2B3B47" d="M108.926,151.027c0,9.272-7.516,16.788-16.788,16.788s-16.788-7.516-16.788-16.788
		s7.516-16.788,16.788-16.788S108.926,141.755,108.926,151.027z M92.138,265.044c-9.272,0-16.788,7.516-16.788,16.788
		c0,9.272,7.516,16.788,16.788,16.788s16.788-7.516,16.788-16.788C108.926,272.56,101.409,265.044,92.138,265.044z M92.138,395.849
		c-9.272,0-16.788,7.516-16.788,16.788c0,9.272,7.516,16.788,16.788,16.788s16.788-7.516,16.788-16.788
		C108.926,403.365,101.409,395.849,92.138,395.849z"/>
</g>
<g id="Layer_6">
	<path fill="#96A9B2" d="M102.638,153.592c0,26.581-21.625,48.205-48.205,48.205S6.228,180.172,6.228,153.592
		s21.625-48.205,48.205-48.205v19c-16.104,0-29.205,13.102-29.205,29.205s13.102,29.205,29.205,29.205s29.205-13.102,29.205-29.205
		c0-5.247,4.253-9.5,9.5-9.5S102.638,148.345,102.638,153.592z M93.138,272.332c-5.247,0-9.5,4.253-9.5,9.5
		c0,16.104-13.102,29.205-29.205,29.205s-29.205-13.102-29.205-29.205s13.102-29.205,29.205-29.205v-19
		c-26.581,0-48.205,21.625-48.205,48.205c0,26.58,21.625,48.205,48.205,48.205s48.205-21.625,48.205-48.205
		C102.638,276.585,98.384,272.332,93.138,272.332z M93.138,405.572c-5.247,0-9.5,4.253-9.5,9.5
		c0,16.104-13.102,29.205-29.205,29.205s-29.205-13.102-29.205-29.205s13.102-29.205,29.205-29.205v-19
		c-26.581,0-48.205,21.625-48.205,48.205s21.625,48.205,48.205,48.205s48.205-21.625,48.205-48.205
		C102.638,409.825,98.384,405.572,93.138,405.572z"/>
</g>
<g id="Layer_7">
	<path fill="#DCE2E2" d="M455.931,67.945c0-21.992-20.75-39.972-46.96-41.336v-0.093H129.088c-20.407,0-36.95,12.668-36.95,28.294
		s16.543,28.294,36.95,28.294v0.485H331.89h58.688c20.252,0,36.669,16.417,36.669,36.669v350.071c0,0.717-0.026,1.427-0.067,2.134
		c17.323-17.841,28.75-53.588,28.75-74.043V69.915h-0.06C455.908,69.262,455.931,68.606,455.931,67.945z"/>
</g>
</svg>
