<?xml version="1.0" encoding="utf-8"?>
<!-- Generator: Adobe Illustrator 18.1.0, SVG Export Plug-In . SVG Version: 6.00 Build 0)  -->
<!DOCTYPE svg PUBLIC "-//W3C//DTD SVG 1.0//EN" "http://www.w3.org/TR/2001/REC-SVG-20010904/DTD/svg10.dtd">
<svg version="1.0" id="Layer_1" xmlns="http://www.w3.org/2000/svg" xmlns:xlink="http://www.w3.org/1999/xlink" x="0px" y="0px"
	 width="72px" height="72px" viewBox="0 0 72 72" enable-background="new 0 0 72 72" xml:space="preserve">
<path fill="#68442A" d="M48.7,2.9c-1.3-0.7,2.1-2.4,0.6-2.8c-1.3-0.4-7.5,0.5-8.9,0.3c-1.4-0.2-3.6-0.3-5.1-0.3c0,0,0,0,0,0
	c0,0-0.1,0-0.1,0C17.8,0.6,10.2,14,10.2,23.9v11.7c0,0.6,0.6,1.1,1.2,1c2.7-0.6,4.5-3.4,5.6-10.2c2-12.5,16.1-10.5,20.4-8.6
	c0,0,0,0,0,0c3.5,1.7,8.7,4,10.9,4.4c1.7,0.2-4.9-5-3-4.4c4.7,1.4,8.7,4.9,10.4,9.5c1.9,5.3,2.5,8.6,5.2,9.2
	c0.4,0.1,0.9-0.3,0.9-0.7V23.9C61.8,16.6,57.7,7.4,48.7,2.9z"/>
</svg>
