<svg xmlns="http://www.w3.org/2000/svg" viewBox="0 0 512 512" enable-background="new 0 0 512 512"><path fill="#2B3B47" d="M251.973 169.313c-3.2.386-6.302.604-9.347.604-28.108 0-77.916-24.235-82.814-47.135-.1-1.184-.227-2.36-.394-3.523l-.002-.07-.005.01C155.195 89.98 130.064 67.53 99.68 67.53c-6.88 0-13.48 1.167-19.637 3.29-.616.21-1.223.442-1.83.673-.29.11-.584.213-.872.328-13.38 5.335-24.4 15.315-31.07 27.948-.696-.036-1.39-.09-2.086-.176-3.484-.408-6.866-1.38-9.712-2.866-2.882-1.407-5.18-3.308-6.988-5.17-.89-.953-1.627-1.942-2.297-2.88-.343-.462-.6-.967-.876-1.428-.27-.466-.523-.914-.74-1.376-.457-.902-.816-1.746-1.075-2.595-.272-.83-.515-1.566-.68-2.27-.305-1.42-.425-2.58-.484-3.375-.056-.796-.05-1.238-.05-1.238l1.26-.018c.796-.003 1.917.015 3.216.065 1.363-.057 2.84.046 4.457-.07.82-.084 1.586-.033 2.42-.158.828-.134 1.62-.188 2.41-.33 1.584-.324 3.048-.67 4.363-1.222 1.31-.472 2.47-1.104 3.638-1.696 1.153-.566 2.378-1.257 3.773-1.91.354-.197.69-.285 1.074-.503.373-.2.756-.365 1.14-.525.8-.415 1.606-.732 2.49-1.154.86-.366 1.8-.804 2.737-1.17.963-.45 1.938-.8 2.97-1.23 2.033-.802 4.222-1.596 6.48-2.285 2.24-.686 4.616-1.304 6.94-1.75 2.308-.44 4.574-.733 6.795-.846.617 2.854 1.392 5.452 2.24 7.82.165-.156.315-.303.485-.46l2.192-1.944c.78-.634 1.594-1.31 2.466-1.95 1.74-1.313 3.673-2.622 5.85-3.85 4.346-2.488 9.675-4.72 16.443-5.97 3.382-.61 7.126-.934 11.237-.834 4.094.147 8.576.673 13.22 1.94 2.338.594 4.683 1.414 7.058 2.344 2.36.967 4.713 2.1 7.03 3.373 4.605 2.6 9.052 5.72 13.093 9.192 4.026 3.493 7.614 7.327 10.774 11.26 3.144 3.946 5.81 8.03 8.166 12.08 2.32 4.066 4.26 8.148 5.98 12.163.448 1.008.81 2.01 1.213 3.017l.736 2.072.187.62.28.794.582 1.61c1.58 4.3 3.486 8.56 5.586 12.563 2.085 4.023 4.415 7.74 6.817 11.15 1.215 1.682 2.46 3.29 3.725 4.813 1.258 1.54 2.57 2.967 3.93 4.25 2.66 2.722 5.533 4.905 8.523 6.862.75.473 1.51.91 2.277 1.32.764.44 1.535.86 2.31 1.238 1.552.77 3.113 1.368 4.66 1.985 3.084 1.134 6.09 1.933 8.68 2.468 1.303.298 2.497.507 3.556.675 1.07.21 1.99.32 2.75.437l2.377.346 3.743.544c3.197.46 5.643 2.827 6.367 5.783zm256.872-29.85c-.794-4.583-2.24-9.055-4.238-13.105-1.97-4.074-4.427-7.763-7.11-11.063-1.348-1.645-2.754-3.196-4.197-4.666-1.105-1.13-2.29-2.318-3.452-3.447-2.094-2.088-4.18-4.17-6.25-6.232-4.15-4.15-8.04-8.212-11.54-12.196-1.715-1.998-3.376-3.984-4.792-5.98-.773-.994-1.383-1.996-2.063-3-.588-1.008-1.22-2.02-1.713-3.036-2.155-4.053-3.328-8.26-3.58-12.454-.12-2.09-.097-4.175.205-6.165.1-1.003.31-1.977.48-2.937.214-.95.45-1.88.687-2.783 1.02-3.6 2.284-6.747 3.362-9.356 1.103-2.6 2.018-4.675 2.646-6.095.65-1.408.97-2.188.97-2.188l.01-.024c.148-.366.097-.8-.17-1.125-.39-.473-1.09-.54-1.563-.152 0 0-.654.54-1.828 1.607-1.184 1.062-2.875 2.667-4.893 4.88-2.012 2.22-4.31 5.083-6.647 8.735-2.298 3.662-4.698 8.15-6.407 13.702-.884 2.768-1.42 5.808-1.773 9.015-.358 3.215-.328 6.594-.003 10.02.654 6.877 2.635 13.844 5.53 20.356 2.898 6.513 6.677 12.628 10.95 18.253 1.093 1.38 2.174 2.757 3.33 4.13l1.788 2.047.903 1.022.456.506.418.447c1.117 1.21 2.232 2.348 3.4 3.577.848.87 1.643 1.752 2.37 2.643 2.932 3.567 4.82 7.134 5.664 10.615.873 3.477.813 7.108-.24 10.93-1.01 3.81-3.056 7.63-5.545 11.02-1.257 1.688-2.65 3.25-4.082 4.69-1.443 1.43-2.96 2.693-4.457 3.84-3.027 2.245-6.06 3.813-8.753 4.756-1.765.606-3.37.94-4.818 1.094 3.89 5.137 7.064 10.73 9.42 16.64 4.51-.255 9.302-1.292 14.076-3.18 2.872-1.11 5.722-2.555 8.537-4.28 2.832-1.71 5.582-3.765 8.217-6.152 1.33-1.178 2.61-2.465 3.876-3.81 1.237-1.375 2.45-2.818 3.595-4.368 2.29-3.093 4.364-6.56 6.006-10.42 1.668-3.836 2.873-8.09 3.48-12.56.575-4.47.536-9.173-.26-13.76z"/></svg>