<?xml version="1.0" encoding="utf-8"?>
<!-- Generator: Adobe Illustrator 18.1.0, SVG Export Plug-In . SVG Version: 6.00 Build 0)  -->
<!DOCTYPE svg PUBLIC "-//W3C//DTD SVG 1.0//EN" "http://www.w3.org/TR/2001/REC-SVG-20010904/DTD/svg10.dtd">
<svg version="1.0" id="Layer_1" xmlns="http://www.w3.org/2000/svg" xmlns:xlink="http://www.w3.org/1999/xlink" x="0px" y="0px"
	 width="72px" height="72px" viewBox="0 0 72 72" enable-background="new 0 0 72 72" xml:space="preserve">
<path fill="#8E6049" d="M38.3,42.8c-0.6-0.3-3.2-1.1-3.8-1.2c-0.6-0.1-1.3-0.1-2-0.1c-8.2,0-11.8,6.2-11.8,10.9v5.9
	c1.6,0,2.5-1.2,3.1-4.7c0.4-2.8,3.9-5.8,3.9-5.8l4,2.6c0.3,0.2,0.7,0,0.7-0.4l0-0.7c1.5,0.7,4.5,2.1,5.6,2.3
	c0.8,0.1,2.6,0.2,3.4,2.3c1,2.7,1.2,4,2.8,4v-5.5C44.3,49,42.4,44.8,38.3,42.8z"/>
</svg>
