<svg xmlns="http://www.w3.org/2000/svg" viewBox="0 0 512 512" enable-background="new 0 0 512 512"><path fill="#A9B8C2" d="M398.116 429.875c.65 2.372 1.004 4.866 1.004 7.444 0 15.52-12.582 18.333-28.102 18.333s-28.102-2.815-28.102-18.335 12.582-28.103 28.102-28.103c1.872 0 3.7.187 5.47.536 1.054-13.854-.994-30.923-12.284-46.47-16.394-22.577-57.49-107.496-14.36-144.74l86.377 22.07c-4.5 61.438-45.042 87.124-27.137 142.71 4.955 15.385-6.617 29.726-10.966 46.554zm-115.713-11.848c-3.51-16.42-11.692-51.07-22.46-73.53l-36.812-76.79-39.66 28.594c30.42 41.447 50.434 79.337 67.815 115.03-10.214 4.208-17.406 14.257-17.406 25.99 0 15.52 12.58 18.334 28.1 18.334s28.103-2.815 28.103-18.335c0-7.47-2.922-14.258-7.68-19.29z"/></svg>