<?xml version="1.0" encoding="iso-8859-1"?>
<!-- Generator: Adobe Illustrator 18.1.1, SVG Export Plug-In . SVG Version: 6.00 Build 0)  -->
<!DOCTYPE svg PUBLIC "-//W3C//DTD SVG 1.1//EN" "http://www.w3.org/Graphics/SVG/1.1/DTD/svg11.dtd">
<svg version="1.1" xmlns="http://www.w3.org/2000/svg" xmlns:xlink="http://www.w3.org/1999/xlink" x="0px" y="0px"
	 viewBox="0 0 512 512" enable-background="new 0 0 512 512" xml:space="preserve">
<g id="Layer_8">
	<path fill="#BFBFBB" d="M415.415,6.795L415.415,6.795C415.415,6.795,415.414,6.795,415.415,6.795
		c-4.68-1.221-9.523-1.84-14.396-1.84c-31.357,0-56.869,25.511-56.869,56.869s25.512,56.869,56.869,56.869
		c6.135,0,11.107-4.973,11.107-11.107s-4.973-11.107-11.107-11.107c-19.108,0-34.654-15.546-34.654-34.655
		s15.546-34.655,34.654-34.655c2.981,0,5.937,0.377,8.785,1.12l0,0c15.231,3.976,25.869,17.766,25.869,33.534h22.215
		C457.888,35.951,440.422,13.323,415.415,6.795z"/>
</g>
<g id="Layer_1">
</g>
</svg>
