<?xml version="1.0" encoding="iso-8859-1"?>
<!-- Generator: Adobe Illustrator 18.1.1, SVG Export Plug-In . SVG Version: 6.00 Build 0)  -->
<!DOCTYPE svg PUBLIC "-//W3C//DTD SVG 1.1//EN" "http://www.w3.org/Graphics/SVG/1.1/DTD/svg11.dtd">
<svg version="1.1" xmlns="http://www.w3.org/2000/svg" xmlns:xlink="http://www.w3.org/1999/xlink" x="0px" y="0px"
	 viewBox="0 0 512 512" enable-background="new 0 0 512 512" xml:space="preserve">
<g id="Layer_2">
	<rect x="215.5" y="343.369" fill="#ADB8BC" width="81" height="135.144"/>
</g>
<g id="Layer_3">
	<path fill="#C5CFD1" d="M63.044,449.745h385.911c11.532,0,20.88,9.348,20.88,20.88v7.37c0,11.532-9.348,20.88-20.88,20.88H63.044
		c-11.532,0-20.88-9.348-20.88-20.88v-7.37C42.164,459.093,51.513,449.745,63.044,449.745z"/>
</g>
<g id="Layer_4">
	<path fill="#C5CFD1" d="M20.828,47.298h470.343c7.953,0,14.4,6.447,14.4,14.4v334.843c0,7.953-6.447,14.4-14.4,14.4H20.828
		c-7.953,0-14.4-6.447-14.4-14.4V61.698C6.428,53.745,12.875,47.298,20.828,47.298z"/>
</g>
<g id="Layer_5">
	<path fill="#00B1FF" d="M62.768,93.087h386.463c7.953,0,14.4,6.447,14.4,14.4v243.265c0,7.953-6.447,14.4-14.4,14.4H62.768
		c-7.953,0-14.4-6.447-14.4-14.4V107.487C48.368,99.534,54.815,93.087,62.768,93.087z"/>
</g>
<g id="Layer_6">
	<circle fill="#D7F4F7" cx="428.681" cy="388.046" r="12.319"/>
</g>
<g id="Layer_7">
	<path fill="#8F9799" d="M365.016,397.127h28.187c5.016,0,9.082-4.066,9.082-9.082v0c0-5.016-4.066-9.082-9.082-9.082h-28.187
		c-5.016,0-9.082,4.066-9.082,9.082v0C355.935,393.061,360.001,397.127,365.016,397.127z"/>
</g>
</svg>
