<svg xmlns="http://www.w3.org/2000/svg" viewBox="0 0 512 512" enable-background="new 0 0 512 512"><path fill="#F9E7C0" d="M456.277 23.89c-17.004-3.034-73.198 16.638-112.37 70.597-26.9-12.134-56.967-19.096-88.84-19.096-31.56 0-61.347 6.838-88.047 18.755-39.16-53.7-95.154-73.28-112.122-70.253-16.694 2.98-55.89 103.225-5.65 180.984-12.872 23.23-20.21 49.955-20.21 78.397 0 89.478 72.536 162.013 162.013 162.013 6.45 0 12.81-.39 19.063-1.125 13.617 7.635 29.318 11.993 46.04 11.993 16.703 0 32.39-4.35 45.996-11.968 6.187.72 12.477 1.102 18.86 1.102 89.475 0 162.01-72.535 162.01-162.012 0-28.737-7.49-55.723-20.61-79.122 49.525-77.657 10.51-177.29-6.13-180.26z"/></svg>