<?xml version="1.0" encoding="utf-8"?>
<!-- Generator: Adobe Illustrator 18.1.0, SVG Export Plug-In . SVG Version: 6.00 Build 0)  -->
<!DOCTYPE svg PUBLIC "-//W3C//DTD SVG 1.0//EN" "http://www.w3.org/TR/2001/REC-SVG-20010904/DTD/svg10.dtd">
<svg version="1.0" id="Layer_1" xmlns="http://www.w3.org/2000/svg" xmlns:xlink="http://www.w3.org/1999/xlink" x="0px" y="0px"
	 width="72px" height="72px" viewBox="0 0 72 72" enable-background="new 0 0 72 72" xml:space="preserve">
<path fill="#FFA1E0" d="M5.3,71.7h19.8l20-0.1c0,0,2.2-18.2-20.7-18.2S5.3,71.7,5.3,71.7z"/>
<path fill="#FFD3B6" d="M67.7,39.6c-2.4,0.7-4,1.1-7.2,0.9c-3.1-0.3,3.7,0.3,2.9-2.2c-0.3-1.1-8.3-1.1-12-0.4
	c-2.3,0.5-3.4,1.6-3.5,2.8c-0.1,0.2-0.2,0.5-0.2,0.8l-3.2,30.3h9.5c0,0-1.4-19.1-0.9-27.5c6.2,1.3,13.8-0.7,17-2.8
	C71.8,40.4,70.1,38.9,67.7,39.6z"/>
<path fill="#FFD3B6" d="M41.7,27.9l0.5-8.1c0-9.4-8.1-14.2-17.5-14.2c-9.4,0-16.5,4.9-16.5,14.2l0.5,8.1c-1.9,0.1-3.3,1.6-3.3,3.5
	C5.4,33.4,7,35,9,35c0.1,0,0.2,0,0.3,0l0,0.5c0,6.3,3.7,11.7,9,14.3v7c0,1.9,3.1,3.4,6.9,3.4c3.8,0,6.9-1.5,6.9-3.4
	c0-0.2,0-0.4-0.1-0.6V50c5.5-2.5,9.3-8.1,9.3-14.5l0-0.5c0.2,0,0.3,0,0.5,0c2,0,3.6-1.6,3.6-3.6C45.2,29.5,43.6,27.9,41.7,27.9z"/>
<path fill="#EDC0A2" d="M23.8,49.8c-3.6,0-7-1.1-9.8-3c2.9,2.9,6.9,4.7,11.3,4.7c8.8,0,16-7.1,16-16l0.1-0.8
	C40,43.2,32.7,49.8,23.8,49.8z"/>
<path fill="#2B3B47" d="M16.5,28.6v2.5v0c0,0,0,0,0,0c0,1-0.8,1.8-1.8,1.8c-1,0-1.8-0.8-1.8-1.8c0,0,0,0,0,0h0v-2.5h0
	c0.1-0.9,0.8-1.6,1.8-1.6C15.7,27,16.4,27.7,16.5,28.6L16.5,28.6z M37.4,28.6c-0.1-0.9-0.8-1.6-1.8-1.6c-0.9,0-1.7,0.7-1.8,1.6h0
	v2.5h0c0,0,0,0,0,0c0,1,0.8,1.8,1.8,1.8c1,0,1.8-0.8,1.8-1.8c0,0,0,0,0,0v0L37.4,28.6L37.4,28.6z M28.5,41.6
	c-1.1,0.1-2.2,0.1-3.3,0.1c-1.1,0-2.2,0-3.3-0.1c-1.1-0.1-2-0.2-2.9-0.3c-0.7-0.1-1.3-0.2-1.8-0.3c0,0.1,0,0.1,0,0.2l0.1,0.2
	c0.3,0.5,0.6,0.9,1,1.3c0.3,0.4,0.6,0.7,1,1c0.6,0.6,1.3,1,1.9,1.3c0.2,0.1,0.4,0.2,0.5,0.2c1-0.7,2.1-0.5,3.4-0.3l0,0l0,0
	c1.2-0.1,2.4-0.4,3.4,0.3c0,0,0,0,0,0c0,0,0,0,0,0l0,0c0.2-0.1,0.4-0.1,0.5-0.2c0.6-0.4,1.3-0.8,1.9-1.4c0.3-0.3,0.6-0.6,1-1
	c0.3-0.4,0.6-0.8,1-1.3l0.1-0.2c0,0,0-0.1,0-0.1c0,0,0-0.1,0-0.1c-0.5,0.1-1.1,0.2-1.8,0.3C30.5,41.4,29.6,41.6,28.5,41.6z"/>
<path fill="#959DA3" d="M14.5,28.5v0.6l0,0v0c0,0.2-0.2,0.4-0.4,0.4c-0.2,0-0.4-0.2-0.4-0.4v0h0v-0.6h0c0-0.2,0.2-0.4,0.4-0.4
	C14.3,28.1,14.5,28.3,14.5,28.5L14.5,28.5z M35.4,28.5c0-0.2-0.2-0.4-0.4-0.4c-0.2,0-0.4,0.2-0.4,0.4h0v0.6h0v0
	c0,0.2,0.2,0.4,0.4,0.4c0.2,0,0.4-0.2,0.4-0.4v0l0,0L35.4,28.5L35.4,28.5z"/>
<path fill="#FFFFFF" d="M33,41c-0.6-0.1-1.3-0.1-1.9-0.1l-1.9-0.1c-1.3,0-2.6,0-3.9-0.1c-1.3,0-2.6,0-3.9,0.1l-1.9,0.1
	c-0.6,0-1.3,0.1-1.9,0.1c0,0-0.1,0-0.1,0c0,0,0,0.1-0.1,0.1c0.5,0.1,1.1,0.2,1.8,0.3c0.8,0.1,1.8,0.2,2.9,0.3
	c1.1,0.1,2.2,0.1,3.3,0.1c1.1,0,2.2,0,3.3-0.1c1.1-0.1,2-0.2,2.9-0.3c0.7-0.1,1.3-0.2,1.8-0.3C33.1,41,33.1,41,33,41z"/>
<path fill="#E5AB83" d="M25.1,37.5C25.1,37.5,25.1,37.5,25.1,37.5c-1.2,0-2.3-0.6-2.9-1.6c-0.2-0.3-0.1-0.8,0.2-1
	c0.3-0.2,0.8-0.1,1,0.2c0.4,0.6,1,0.9,1.7,0.9c0,0,0,0,0,0c0.7,0,1.4-0.3,1.7-0.9c0.2-0.3,0.6-0.4,1-0.2c0.3,0.2,0.4,0.6,0.2,1
	C27.4,36.9,26.3,37.5,25.1,37.5z M33.3,24.1C33,24.3,33,24.7,33.2,25c0.2,0.3,0.6,0.4,0.9,0.1c0,0,0.1,0,0.2-0.1
	c0.1-0.1,0.2-0.1,0.4-0.2c0.3-0.2,0.9-0.3,1.4-0.3c0.5,0,1,0.2,1.3,0.4c0.2,0.1,0.3,0.2,0.3,0.3c0.1,0.1,0.1,0.1,0.1,0.1l0,0
	c0.1,0.1,0.3,0.2,0.5,0.1c0.2-0.1,0.2-0.3,0.1-0.5c0,0,0-0.1-0.1-0.2c-0.1-0.1-0.2-0.3-0.4-0.5c-0.4-0.4-1.1-0.7-1.8-0.8
	c-0.7-0.1-1.4,0-1.9,0.2c-0.2,0.1-0.5,0.2-0.6,0.3C33.5,24,33.4,24,33.3,24.1C33.4,24,33.4,24,33.3,24.1z M16,25.2
	c0.3,0.2,0.7,0.1,0.9-0.2s0.1-0.7-0.2-0.9c0,0-0.1,0-0.2-0.1c-0.1-0.1-0.4-0.2-0.6-0.3c-0.5-0.2-1.2-0.3-1.9-0.2
	c-0.7,0.1-1.4,0.5-1.8,0.8c-0.2,0.2-0.3,0.4-0.4,0.5c-0.1,0.1-0.1,0.2-0.1,0.2c-0.1,0.1-0.1,0.3,0.1,0.5c0.2,0.1,0.4,0.1,0.5,0l0,0
	c0,0,0-0.1,0.1-0.1c0.1-0.1,0.2-0.2,0.3-0.3c0.3-0.2,0.8-0.4,1.3-0.4c0.5,0,1,0.1,1.4,0.3c0.2,0.1,0.3,0.1,0.4,0.2
	C15.9,25.1,15.9,25.1,16,25.2C16,25.1,16,25.2,16,25.2z"/>
<path fill="#FF473E" d="M28.6,45.3C28.6,45.3,28.6,45.3,28.6,45.3L28.6,45.3C28.6,45.3,28.6,45.3,28.6,45.3c-1-0.7-2.1-0.5-3.4-0.3
	l0,0l0,0c-1.2-0.1-2.4-0.4-3.4,0.3c0,0,0,0,0,0c0,0,0,0,0,0c1.1,0.5,2.2,0.7,3.3,0.7c0,0,0,0,0.1,0l0,0l0,0c0,0,0,0,0.1,0
	C26.4,46.1,27.5,45.8,28.6,45.3L28.6,45.3L28.6,45.3z"/>
<path fill="#68442A" d="M43.8,34.2c-0.1,3-0.4,5.8-0.7,8c-0.5,4.6-1,5.7-1,5.7c0,1.1-4.6,1.8-10.4,2.1v0c2-0.9,3.8-2.3,5.3-3.9l0,0
	c0.3-0.3,0.6-0.7,0.9-1.1c0,0,0,0,0-0.1c0.2-0.3,0.5-0.7,0.7-1c0.1-0.1,0.1-0.2,0.1-0.2c0.2-0.3,0.4-0.6,0.5-0.9
	c0-0.1,0.1-0.2,0.1-0.3c0.2-0.4,0.4-0.8,0.5-1.2c0,0,0,0,0,0c0.2-0.4,0.3-0.8,0.4-1.3c0-0.1,0.1-0.2,0.1-0.3c0.1-0.3,0.2-0.7,0.2-1
	c0-0.1,0.1-0.3,0.1-0.4c0.1-0.3,0.1-0.6,0.1-1c0-0.1,0-0.3,0-0.4c0-0.5,0.1-0.9,0.1-1.4l0-0.5c0.2,0,0.3,0,0.5,0
	c0.2,0,0.4,0,0.6-0.1c0,0,0.1,0,0.1,0c0.2,0,0.3-0.1,0.5-0.1c0,0,0,0,0,0C43.2,34.6,43.5,34.5,43.8,34.2z M44.1,19.2
	c0-10.5-9-18.4-19.5-18.4C14.2,0.8,6.3,8.7,6.3,19.2l0.4,5.4L6.7,36c0,0,0,0,0,0c0.1,5.8,1.5,11.9,1.5,11.9c0,1.1,4.4,1.8,10,2.1
	v-0.2c-3.9-1.9-6.9-5.4-8.2-9.5l0,0c-0.1-0.3-0.2-0.6-0.2-0.8c0,0,0-0.1,0-0.1c-0.1-0.3-0.1-0.6-0.2-0.9c0,0,0-0.1,0-0.1
	c-0.1-0.6-0.2-1.3-0.2-1.9c0-2.3,0-5.1,0-7.7c0.5-2.4,5.2-9.4,9.1-15c0.1,0.1,0.1,0.2,0.2,0.2c6.6,6.6,18.7,9.8,23.3,10.2l-0.2,3.7
	c0.2,0,0.4,0,0.6,0.1c0.1,0,0.2,0,0.2,0.1c0.1,0,0.2,0.1,0.3,0.1c0.1,0,0.2,0.1,0.3,0.1c0.1,0,0.2,0.1,0.3,0.1
	c0.1,0.1,0.2,0.1,0.2,0.2c0.1,0.1,0.2,0.2,0.3,0.3C44.2,23.6,44.1,19.2,44.1,19.2z"/>
</svg>
