<svg xmlns="http://www.w3.org/2000/svg" viewBox="0 0 512 512" enable-background="new 0 0 512 512"><path fill="#E8EBED" d="M88.503 271.766l-1.664 1.06-2.396 1.56c-1.02.69-2.11 1.282-3.305 1.943-1.197.654-2.56 1.31-3.993 1.95l-2.24.926c-.77.293-1.57.556-2.372.832-.798.29-1.628.498-2.456.73-.83.237-1.665.45-2.508.615-1.684.39-3.368.628-5.034.87-1.654.162-3.297.342-4.87.387-1.585.1-3.098.074-4.562.082-1.453-.027-2.84-.078-4.145-.14l-3.635-.25c-2.228-.2-4.065-.38-5.34-.542l-2.003-.233c-2.678-.313-4.597-2.737-4.286-5.415.234-2.008 1.655-3.59 3.48-4.124l.13-.035 1.852-.54c1.183-.33 2.847-.85 4.817-1.48l3.128-1.073c1.09-.403 2.223-.835 3.37-1.296 1.127-.49 2.305-.962 3.41-1.526 1.14-.52 2.198-1.14 3.26-1.716 1.006-.636 2.008-1.242 2.884-1.915.458-.313.88-.654 1.278-.997.402-.34.812-.648 1.163-1.008.36-.35.72-.67 1.05-1.007l.936-1.013c.587-.684 1.12-1.315 1.59-1.953.465-.64.914-1.22 1.16-1.69.295-.494.47-.8.904-1.41l1.122-1.626c4.45-6.442 13.282-8.055 19.724-3.604 6.442 4.45 8.055 13.282 3.604 19.724-1.096 1.586-2.457 2.88-3.982 3.86l-.075.05z"/></svg>