<?xml version="1.0" encoding="utf-8"?>
<!-- Generator: Adobe Illustrator 18.1.0, SVG Export Plug-In . SVG Version: 6.00 Build 0)  -->
<!DOCTYPE svg PUBLIC "-//W3C//DTD SVG 1.0//EN" "http://www.w3.org/TR/2001/REC-SVG-20010904/DTD/svg10.dtd">
<svg version="1.0" id="Layer_1" xmlns="http://www.w3.org/2000/svg" xmlns:xlink="http://www.w3.org/1999/xlink" x="0px" y="0px"
	 width="72px" height="72px" viewBox="0 0 72 72" enable-background="new 0 0 72 72" xml:space="preserve">
<path fill="#FFE0CF" d="M62.5,36.1l0.9-13.4C63.3,7.7,50.4,0,35.4,0C20.5,0,9.1,7.7,9.1,22.7L10,36.1c-3.3,0.2-5.9,2.9-5.9,6.2
	c0,3.5,2.8,6.3,6.3,6.3c0.1,0,0.3,0,0.4,0C11.3,62.2,22.5,72,36.2,72c13.7,0,24.9-9.8,25.4-23.4c0,0,0.1,0,0.1,0
	c3.5,0,6.3-2.8,6.3-6.3C68,39.1,65.6,36.5,62.5,36.1z"/>
</svg>
