<svg xmlns="http://www.w3.org/2000/svg" viewBox="0 0 512 512" enable-background="new 0 0 512 512"><path fill="#E5E4DF" d="M408.922 304.064c0 4.79-3.884 8.675-8.675 8.675-4.79 0-8.675-3.886-8.675-8.677m17.35 0c0 4.79 3.884 8.675 8.675 8.675 4.79 0 8.675-3.885 8.675-8.676m0 0c0 4.79 3.884 8.675 8.675 8.675 4.79 0 8.675-3.885 8.675-8.676m0 0c0 4.79 3.884 8.676 8.675 8.676 4.79 0 8.675-3.885 8.675-8.676m0 0c0 4.79 3.884 8.675 8.675 8.675 4.79 0 8.675-3.885 8.675-8.676m0 0c0 4.79 3.885 8.674 8.676 8.674 4.79 0 8.675-3.885 8.675-8.676"/></svg>