<svg xmlns="http://www.w3.org/2000/svg" viewBox="0 0 512 512" enable-background="new 0 0 512 512"><path fill="#E5E4DF" d="M409.61 226.238c31.38-17.03 52.692-50.27 52.692-88.47 0-55.56-45.053-100.593-100.593-100.593-34.418 0-64.813 17.283-82.967 43.638-7.995-1.442-16.228-2.198-24.638-2.198-7.854 0-15.552.667-23.047 1.928-18.17-26.204-48.467-43.37-82.765-43.37C92.733 37.173 47.7 82.21 47.7 137.77c0 37.88 20.95 70.877 51.9 88.034-42.723 18.07-72.696 60.373-72.696 109.682 0 65.75 53.29 119.038 119.038 119.038 68.376 0 70.374 20.304 105.74 20.304s42.21-20.304 110.584-20.304c65.75 0 119.062-53.287 119.062-119.038 0-48.924-29.52-90.94-71.717-109.246z"/></svg>