<?xml version="1.0" encoding="utf-8"?>
<!-- Generator: Adobe Illustrator 18.1.0, SVG Export Plug-In . SVG Version: 6.00 Build 0)  -->
<!DOCTYPE svg PUBLIC "-//W3C//DTD SVG 1.0//EN" "http://www.w3.org/TR/2001/REC-SVG-20010904/DTD/svg10.dtd">
<svg version="1.0" id="Layer_1" xmlns="http://www.w3.org/2000/svg" xmlns:xlink="http://www.w3.org/1999/xlink" x="0px" y="0px"
	 width="72px" height="72px" viewBox="0 0 72 72" enable-background="new 0 0 72 72" xml:space="preserve">
<path fill="#EDC0A2" d="M54.6,16.5l0,0.3c0,3.6-2.9,6.5-6.5,6.5c-1.8,0-3.4-0.7-4.6-1.9c1.1,0.8,2.5,1.2,4,1.2
	C51.1,22.6,54.1,19.9,54.6,16.5z M22,20.6c-1.5,0-2.9-0.5-4-1.2c1.2,1.2,2.8,1.9,4.6,1.9c3.6,0,6.5-2.9,6.5-6.5l0-0.3
	C28.7,18,25.7,20.6,22,20.6z"/>
</svg>
