<svg xmlns="http://www.w3.org/2000/svg" viewBox="0 0 512 512" enable-background="new 0 0 512 512"><path fill="#7C5028" d="M306.208 144.927c-1.085 1.617-3.626.528-3.166-1.364 2.407-9.89-10.858-24.842-27.94-34.8-2.302 6.67-7.374 13.284-9.858 16.43-.675.853-1.937.37-1.993-.718-.47-9.227-9.29-26.075-21.254-26.075-27.904 0-50.525-22.62-50.525-50.525 0-27.904 22.62-43.426 50.526-43.426 9.495 0 18.374 1.8 25.962 5.27 41.427 15.787 84.738 65.967 38.25 135.206zM155.264 75.51c-3.93-4.314-8.202-7.637-12.395-10.217-.075-.01-.1-.065-.17-.122l-.038.02c-9.605-5.766-18.516-7.63-21.214-8.065-.052-.11-.18-.343-.18-.343s-.188.177-.29.29c-.127-.03-.397-.086-.397-.086s.037.273.07.393c-2.33 2.36-10.79 11.73-14.812 26.05l-.065.052s-.117.522-.185.71c-.075.326-.14.623-.24.936-1.476 6.418-6.31 32.063 2.635 53.693 10.29-24.877 26.665-46.603 47.28-63.31zm248.75 63.314c8.946-21.63 4.112-47.277 2.636-53.696-.1-.313-.165-.61-.24-.935-.07-.19-.185-.71-.185-.71l-.065-.054c-4.025-14.32-12.484-23.69-14.812-26.05.032-.12.07-.395.07-.395s-.27.055-.397.086c-.1-.113-.29-.29-.29-.29s-.127.234-.18.345c-2.696.434-11.607 2.298-21.212 8.064l-.038-.018c-.07.057-.096.112-.17.122-4.193 2.58-8.467 5.905-12.4 10.222 20.616 16.704 36.992 38.43 47.284 63.307z"/></svg>