<svg xmlns="http://www.w3.org/2000/svg" viewBox="0 0 512 512" enable-background="new 0 0 512 512"><path fill="#2B3B47" d="M233.476 433.41l1.91.122c1.216.053 2.952.165 5.036.235 2.084.06 4.515.15 7.12.206l8.162.083c2.778.03 5.557-.047 8.162-.063 2.605-.003 5.036-.137 7.12-.196 2.084-.053 3.82-.195 5.036-.252 1.216-.07 1.91-.135 1.91-.135 9.036-.836 17.04 5.812 17.875 14.85.443 4.784-1.214 9.28-4.212 12.575l-13.663 14.89-.128.14c-.084.09-.21.235-.372.385-.326.307-.803.802-1.41 1.306-.61.52-1.347 1.08-2.193 1.675-.85.57-1.804 1.16-2.846 1.71-1.042.544-2.17 1.058-3.364 1.507-1.193.45-2.452.81-3.754 1.13-2.605.608-5.383.817-8.162.72-1.39-.056-2.778-.177-4.146-.368-1.367-.18-2.713-.486-4.016-.81-.65-.137-1.292-.367-1.918-.55-.627-.178-1.24-.407-1.837-.635-.597-.21-1.178-.446-1.74-.706-.56-.24-1.103-.486-1.624-.76-.52-.26-1.02-.514-1.495-.796-.475-.266-.925-.524-1.348-.804-.847-.527-1.585-1.047-2.192-1.517-.608-.45-1.085-.9-1.41-1.163-.327-.287-.5-.465-.5-.465l-13.224-13.588c-6.527-6.706-6.38-17.434.325-23.96 3.553-3.46 8.304-5.04 12.895-4.767zm-80.1-196.972c-14.74 0-26.69 11.95-26.69 26.69v39.725c0 14.74 11.95 26.69 26.69 26.69 14.74 0 26.69-11.95 26.69-26.69v-39.726c0-14.74-11.95-26.69-26.69-26.69zm207.975 0c-14.74 0-26.687 11.95-26.687 26.69v39.725c0 14.74 11.95 26.69 26.69 26.69 14.74 0 26.688-11.95 26.688-26.69v-39.726c0-14.74-11.95-26.69-26.69-26.69zm13.28-111.882c12.884-62.767 49.64-100.64 58.988-109.428.515-.484-.033-1.357-.71-1.156-43.59 12.92-78.916 47.635-92.126 94.12 12.172 4.486 23.394 10.007 33.85 16.464zm-242.003 2.557c10.427-6.806 21.623-12.657 33.776-17.453-12.855-47.272-48.48-82.623-92.558-95.69-.677-.2-1.225.673-.71 1.157 9.472 8.908 47.1 47.69 59.492 111.986z"/></svg>