<?xml version="1.0" encoding="utf-8"?>
<!-- Generator: Adobe Illustrator 18.1.0, SVG Export Plug-In . SVG Version: 6.00 Build 0)  -->
<!DOCTYPE svg PUBLIC "-//W3C//DTD SVG 1.0//EN" "http://www.w3.org/TR/2001/REC-SVG-20010904/DTD/svg10.dtd">
<svg version="1.0" id="Layer_1" xmlns="http://www.w3.org/2000/svg" xmlns:xlink="http://www.w3.org/1999/xlink" x="0px" y="0px"
	 width="72px" height="72px" viewBox="0 0 72 72" enable-background="new 0 0 72 72" xml:space="preserve">
<path fill="#C4C43B" d="M29,19.8c-0.8,0-1.4-0.6-1.4-1.4V5.7c0-0.8,0.6-1.4,1.4-1.4s1.4,0.6,1.4,1.4v12.8
	C30.3,19.2,29.7,19.8,29,19.8z M43.6,18.4V5.6c0-0.8-0.6-1.4-1.4-1.4s-1.4,0.6-1.4,1.4v12.8c0,0.8,0.6,1.4,1.4,1.4
	S43.6,19.2,43.6,18.4z M35.6,35.4C19.7,35.4,6.9,33,6.9,30v3c0,3,12.9,5.4,28.7,5.4c15.9,0,28.7-2.4,28.7-5.4v-3
	C64.3,33,51.4,35.4,35.6,35.4z"/>
</svg>
