<?xml version="1.0" encoding="iso-8859-1"?>
<!-- Generator: Adobe Illustrator 18.1.1, SVG Export Plug-In . SVG Version: 6.00 Build 0)  -->
<!DOCTYPE svg PUBLIC "-//W3C//DTD SVG 1.1//EN" "http://www.w3.org/Graphics/SVG/1.1/DTD/svg11.dtd">
<svg version="1.1" xmlns="http://www.w3.org/2000/svg" xmlns:xlink="http://www.w3.org/1999/xlink" x="0px" y="0px"
	 viewBox="0 0 512 512" enable-background="new 0 0 512 512" xml:space="preserve">
<g id="Layer_4">
	<path fill="#8E9DA5" d="M155.301,402.765H52.981c-7.92,0-14.4-6.48-14.4-14.4v-14.47c0-7.92,6.48-14.4,14.4-14.4h102.32
		c7.92,0,14.4,6.48,14.4,14.4v14.47C169.701,396.285,163.221,402.765,155.301,402.765z M375.934,385.682v-9.105
		c0-9.395-7.687-17.082-17.082-17.082H228.783c-9.395,0-17.082,7.687-17.082,17.082v9.105c0,9.395,7.687,17.082,17.082,17.082
		h130.068C368.247,402.765,375.934,395.078,375.934,385.682z"/>
</g>
<g id="Layer_1">
</g>
</svg>
