<?xml version="1.0" encoding="utf-8"?>
<!-- Generator: Adobe Illustrator 18.1.0, SVG Export Plug-In . SVG Version: 6.00 Build 0)  -->
<!DOCTYPE svg PUBLIC "-//W3C//DTD SVG 1.0//EN" "http://www.w3.org/TR/2001/REC-SVG-20010904/DTD/svg10.dtd">
<svg version="1.0" id="Layer_1" xmlns="http://www.w3.org/2000/svg" xmlns:xlink="http://www.w3.org/1999/xlink" x="0px" y="0px"
	 width="72px" height="72px" viewBox="0 0 72 72" enable-background="new 0 0 72 72" xml:space="preserve">
<path fill="#FFD3B6" d="M36.6,43c-0.4,0-1.8,0-3.6,0.3c-3.6,0.5-4.9-0.9-7.1,0c-5.3,2.1-12.3,0.6-12.3,0.6l0,0
	c-0.4-0.1-0.8-0.5-0.8-1c0-0.6,0.4-1.2,1.1-1.2L36,35.3L36.6,43z M50.9,54.8c-0.7-2.3,0.7-3.4,0.4-7.1c-0.1-1.8,0-3.2,0-3.6
	l-7.7,0.2l5.9,22.1l0,0c0,0.6,0.5,1,1,1c0.6,0,1-0.5,1-1c0,0,0,0,0,0C51.4,66.3,52.6,60.1,50.9,54.8z M59.1,26.1L59,26l-3.8-2.9
	l-1.9-1.5l-1.9-1.4c-0.1,0-0.1-0.1-0.2-0.1c-0.4-0.2-0.9-0.3-1.4-0.2c-0.8-0.2-1.7-0.4-2.7-0.5V17c0-0.1,0-0.2,0-0.4
	c1.3-0.6,2.3-1.8,2.6-3.3c0.1,0.1,0.2,0.1,0.3,0.1c0.6,0.1,1.3-0.3,1.4-0.9c0.1-0.6-0.3-1.3-0.9-1.4c-0.1,0-0.1,0-0.2,0l0.7-2.5
	c0.6-2.8-1.6-4.8-4.4-5.3c-2.8-0.6-5.2,0.4-5.8,3.2l-0.6,4.7c-0.5,2.3,0.8,4.6,2.8,5.4c0,0.1,0,0.2,0,0.3v2.4
	c-1.8,0.2-3.2,0.6-4,1.1c-0.5,0-1.2-0.1-2.1-0.2c-0.9-0.1-1.9-0.2-3-0.4c-0.5-0.1-1.1-0.2-1.5-0.3l0,0l0,0l0,0c0.1,0,0.1,0,0.1,0.1
	l0,0l-0.1-0.1c0,0,0,0,0,0l0,0l0,0c0,0-0.1,0-0.1-0.1c-0.1-0.1-0.3-0.3-0.5-0.5C31,18.1,30.4,17,29.9,16c-0.5-1-0.9-2-1.3-2.8
	c-0.5-1.3-0.9-2.2-1.1-2.6c0-0.1,0-0.2,0.1-0.3c0-0.2,0-0.4,0-0.6c0-0.4,0-0.8-0.1-1.1c-0.1-0.7-0.2-1.4-0.4-2.1l0,0
	c-0.1-0.5-0.7-0.9-1.2-0.8c-0.5,0.1-0.9,0.7-0.8,1.2l0,0c0.1,0.6,0.3,1.3,0.3,1.9c0,0,0,0.1,0,0.1l-0.2-0.1
	c-0.3-0.2-0.6-0.2-0.9,0.1c-0.3,0.3-0.3,0.7-0.1,1l1.2,1.4c0.1,0.4,0.4,1.4,0.8,2.8c0.3,0.9,0.6,1.9,1.1,3c0.4,1.1,0.9,2.3,1.6,3.5
	c0.2,0.3,0.4,0.6,0.7,0.9c0.1,0.1,0.1,0.2,0.2,0.2l0.1,0.1l0.2,0.2c0.1,0.1,0.3,0.2,0.3,0.2l0.1,0.1l0,0l0.1,0.1l0.1,0
	c0.7,0.4,1.3,0.6,1.9,0.8c1.2,0.4,2.3,0.6,3.2,0.9c1.8,0.4,3.1,0.7,3.1,0.7l0,0c0.1,0,0.2,0,0.3,0c0.4,0,0.8-0.1,1.2-0.3
	c1.1,0.3,2.5,0.4,4.1,0.4c1.9,0,3.6-0.2,5-0.6l1.4,0.8l2,1.1l2.5,1.4l-3.5,3.9c0,0,0,0,0,0l-1.6,1.2c-0.3,0.2-0.4,0.6-0.3,0.9
	c0.2,0.4,0.6,0.6,1,0.4l0.2-0.1c0,0.1-0.1,0.2-0.1,0.4c-0.1,0.4-0.1,0.8-0.2,1.1c0,0.4-0.1,0.8-0.1,1.1l0,0
	c-0.1,0.6,0.4,1.1,0.9,1.1c0.6,0.1,1.1-0.4,1.1-0.9c0-0.4,0.1-0.7,0.1-1.1c0-0.4,0.1-0.7,0.2-1.1c0.1-0.6,0.2-1.2,0.4-1.8l5.4-4.5
	c0.1-0.1,0.2-0.2,0.2-0.2C59.9,27.5,59.8,26.6,59.1,26.1z"/>
</svg>
