<?xml version="1.0" encoding="utf-8"?>
<!-- Generator: Adobe Illustrator 18.1.0, SVG Export Plug-In . SVG Version: 6.00 Build 0)  -->
<!DOCTYPE svg PUBLIC "-//W3C//DTD SVG 1.0//EN" "http://www.w3.org/TR/2001/REC-SVG-20010904/DTD/svg10.dtd">
<svg version="1.0" id="Layer_1" xmlns="http://www.w3.org/2000/svg" xmlns:xlink="http://www.w3.org/1999/xlink" x="0px" y="0px"
	 width="72px" height="72px" viewBox="0 0 72 72" enable-background="new 0 0 72 72" xml:space="preserve">
<path fill="#FF473E" d="M61.2,23.8L61.2,23.8C59.4,11.3,48.6,1.8,35.6,1.8c-13,0-23.8,9.6-25.6,22.1l0,0c-0.3,0.3-0.5,0.6-0.5,0.9
	c0,2.7,11.7,4.9,26.1,4.9c14.4,0,26.1-2.2,26.1-4.9C61.7,24.4,61.5,24.1,61.2,23.8z M60.7,23.4C60.7,23.4,60.7,23.4,60.7,23.4
	C60.7,23.4,60.7,23.4,60.7,23.4z M56.9,21.9C56.9,21.9,56.9,21.9,56.9,21.9C56.9,21.9,56.9,21.9,56.9,21.9z M55.5,21.5
	C55.5,21.5,55.5,21.5,55.5,21.5C55.5,21.5,55.5,21.5,55.5,21.5z M52.4,20.9C52.4,20.9,52.4,20.9,52.4,20.9
	C52.4,20.9,52.4,20.9,52.4,20.9z M50.7,20.7c-0.1,0-0.1,0-0.2,0C50.6,20.7,50.6,20.7,50.7,20.7z M48.8,20.5c-0.1,0-0.1,0-0.2,0
	C48.7,20.5,48.7,20.5,48.8,20.5z M46.8,20.3c0,0-0.1,0-0.1,0C46.7,20.3,46.7,20.3,46.8,20.3z M44.7,20.1c0,0-0.1,0-0.1,0
	C44.7,20.1,44.7,20.1,44.7,20.1z M42.7,20c-0.1,0-0.2,0-0.3,0C42.5,20,42.6,20,42.7,20z M40.4,19.9c-0.1,0-0.2,0-0.3,0
	C40.2,19.9,40.3,19.9,40.4,19.9z M38.1,19.8c-0.1,0-0.2,0-0.3,0C37.9,19.8,38,19.8,38.1,19.8z M10.5,23.4
	C10.5,23.4,10.5,23.4,10.5,23.4C10.5,23.4,10.5,23.4,10.5,23.4z M15.7,21.5C15.7,21.5,15.7,21.5,15.7,21.5
	C15.7,21.5,15.7,21.5,15.7,21.5z M14.4,21.9C14.4,21.9,14.3,21.9,14.4,21.9C14.3,21.9,14.4,21.9,14.4,21.9z M18.8,20.9
	C18.8,20.9,18.9,20.9,18.8,20.9C18.9,20.9,18.8,20.9,18.8,20.9z M20.5,20.7c0.1,0,0.1,0,0.2,0C20.6,20.7,20.6,20.7,20.5,20.7z
	 M22.4,20.5c0.1,0,0.1,0,0.2,0C22.5,20.5,22.5,20.5,22.4,20.5z M24.4,20.3c0,0,0.1,0,0.1,0C24.5,20.3,24.5,20.3,24.4,20.3z
	 M26.5,20.1c0,0,0.1,0,0.1,0C26.5,20.1,26.5,20.1,26.5,20.1z M28.5,20c0.1,0,0.2,0,0.3,0C28.7,20,28.6,20,28.5,20z M30.8,19.9
	c0.1,0,0.2,0,0.3,0C31,19.9,30.9,19.9,30.8,19.9z M33.1,19.8c0.1,0,0.2,0,0.3,0C33.3,19.8,33.2,19.8,33.1,19.8z"/>
</svg>
