<svg xmlns="http://www.w3.org/2000/svg" viewBox="0 0 512 512" enable-background="new 0 0 512 512"><path fill="#047F67" d="M292.544 135.026v-.18c-.07 0-.135.017-.205.017-.07 0-.136-.018-.206-.018v.036c-.306 0-.624.058-.93.06-.306 0-.625-.06-.93-.06v-.034c-.07 0-.135.018-.205.018-.07 0-.206.163-.206.163-70.275 1.536-158.84 65.657-158.84 150.74 0 11.52 14.406 71.956 158.842 72.733v.07c.072 0 .132-.004.204-.004s.132.005.204.005v-.01c.33 0 .605-.024.932-.024.327 0 .602.025.93.025v.01c.073 0 .132-.003.204-.003.072 0 .132.005.204.005v-.07c144.435-.778 158.843-61.213 158.843-72.735-.002-85.082-88.568-149.203-158.843-150.74zm-72.85 136.862c-9.417 59.56-36.173 29.1-43.987 23.085-7.814-6.015-14.88-20.238 2.376-55.12 23.996-48.505 61.32-71.515 69.135-65.5s-13.107 6.364-27.523 97.535zm71.51 48.003c-11.672 0-31.082 4.248-31.082-39.473 0-43.72 19.41-107 31.083-107 11.673 0 31.083 63.28 31.083 107s-19.41 39.475-31.083 39.475zm115.5-24.916c-7.815 6.015-34.57 36.475-43.99-23.085-14.415-91.17-35.335-91.52-27.52-97.536s45.138 16.996 69.134 65.5c17.255 34.883 10.19 49.105 2.375 55.12z"/></svg>