<?xml version="1.0" encoding="iso-8859-1"?>
<!-- Generator: Adobe Illustrator 18.1.0, SVG Export Plug-In . SVG Version: 6.00 Build 0)  -->
<!DOCTYPE svg PUBLIC "-//W3C//DTD SVG 1.1//EN" "http://www.w3.org/Graphics/SVG/1.1/DTD/svg11.dtd">
<svg version="1.1" xmlns="http://www.w3.org/2000/svg" xmlns:xlink="http://www.w3.org/1999/xlink" x="0px" y="0px"
	 viewBox="0 0 72 72" enable-background="new 0 0 72 72" xml:space="preserve">
<g id="Layer_7">
	<path fill="#FFFFFF" d="M30.54,40.532c-0.649-0.063-1.297-0.088-1.945-0.133l-1.945-0.075c-1.297-0.043-2.595-0.039-3.892-0.061
		c-1.298,0.022-2.595,0.019-3.89,0.062l-1.946,0.074c-0.648,0.046-1.298,0.072-1.946,0.133c-0.032,0.002-0.065,0.013-0.093,0.036
		c-0.033,0.024-0.047,0.063-0.061,0.1c0.468,0.081,1.069,0.209,1.778,0.275c0.841,0.076,1.822,0.22,2.873,0.274
		c1.051,0.073,2.172,0.087,3.293,0.105c1.121-0.018,2.242-0.029,3.293-0.103c1.051-0.052,2.032-0.199,2.873-0.275
		c0.699-0.064,1.294-0.191,1.759-0.272C30.666,40.6,30.617,40.539,30.54,40.532z"/>
</g>
<g id="Layer_1">
</g>
</svg>
