<?xml version="1.0" encoding="utf-8"?>
<!-- Generator: Adobe Illustrator 18.0.0, SVG Export Plug-In . SVG Version: 6.00 Build 0)  -->
<!DOCTYPE svg PUBLIC "-//W3C//DTD SVG 1.1 Tiny//EN" "http://www.w3.org/Graphics/SVG/1.1/DTD/svg11-tiny.dtd">
<svg version="1.1" baseProfile="tiny" id="Layer_1" xmlns="http://www.w3.org/2000/svg" xmlns:xlink="http://www.w3.org/1999/xlink"
	 x="0px" y="0px" width="511.9px" height="511.9px" viewBox="0 0 511.9 511.9" xml:space="preserve">
<path fill="#E5E5E5" d="M494.7,459.1c0,0-7.9-1.8-21.7-4.9c-1.7-0.4-3.6-0.8-5.5-1.2c-1.9-0.5-4-0.9-6.1-1.4c-2.1-0.5-4.3-1-6.6-1.6
	c-2.3-0.6-4.6-1.2-7.1-1.8c-4.9-1.3-10.1-2.6-15.5-4.2c-2.7-0.8-5.5-1.6-8.3-2.4c-1.4-0.4-2.9-0.8-4.3-1.2c-1.4-0.4-2.9-0.9-4.4-1.3
	c-5.9-1.8-12-3.7-18.3-5.6c-6.3-2-12.8-4.1-19.4-6.3c-3.3-1.1-6.7-2.2-10.1-3.3c-3.4-1.1-6.8-2.3-10.3-3.5c-7-2.3-14.1-4.7-21.3-7.2
	c-1.8-0.6-3.6-1.2-5.4-1.8c-1-0.3-1.9-0.7-2.9-1c-0.9-0.3-1.8-0.6-2.7-1c-3.6-1.3-7.3-2.6-11-3.9c-7.4-2.6-14.8-5.3-22.3-7.9
	c-3.8-1.3-7.5-2.7-11.3-4c-1.9-0.6-3.8-1.4-5.7-2.2c-1.9-0.7-3.8-1.5-5.7-2.2c-7.7-3-15.4-6-23.1-9c-1.9-0.8-3.9-1.5-5.8-2.3
	l-5.7-2.4c-3.8-1.6-7.6-3.2-11.3-4.9c-3.8-1.6-7.5-3.2-11.3-4.8c-3.7-1.7-7.3-3.3-11-5c-14.7-6.7-28.8-12.8-42.5-18.9
	c-6.9-2.8-13.7-5.6-20.4-8.4c-3.3-1.4-6.6-2.7-9.9-4c-1.6-0.7-3.2-1.3-4.8-2c-1.6-0.6-3.3-1.2-4.9-1.8c-12.9-4.9-25.1-9.5-36.4-13.7
	c-2.8-1.1-5.6-2.1-8.3-3.1c-2.7-1-5.4-1.9-8-2.8c-5.2-1.8-10.1-3.6-14.8-5.2c-9.3-3.3-17.3-6.1-24-8.4C13.2,287.7,5.6,285,5.6,285
	l15.8-43.4c0,0,7.6,3,20.8,8.3c6.6,2.6,14.7,5.8,23.9,9.5c4.6,1.8,9.5,3.8,14.7,5.8c2.6,1,5.2,2.1,8,3.2c2.7,1.1,5.5,2.3,8.3,3.5
	c11.3,4.8,23.6,10,36.5,15.4c1.6,0.7,3.3,1.4,4.9,2.1c1.6,0.7,3.3,1.5,4.9,2.2c3.3,1.5,6.6,3,10,4.6c6.8,3.1,13.7,6.2,20.7,9.4
	c13.8,6.8,28.2,13.8,42.3,20.9c3.6,1.8,7.1,3.6,10.7,5.3c3.6,1.7,7.1,3.4,10.7,5.1c3.6,1.7,7.2,3.4,10.8,5.1l5.4,2.6
	c1.8,0.8,3.6,1.6,5.4,2.4c7.3,3.2,14.6,6.3,21.8,9.5c1.8,0.8,3.6,1.6,5.4,2.4c1.8,0.8,3.6,1.6,5.5,2.3c3.7,1.5,7.4,3,11.2,4.5
	c7.4,3,14.8,5.9,22,8.8c3.6,1.5,7.2,2.9,10.8,4.3l2.7,1.1l1.3,0.5l1.1,0.4c1.8,0.7,3.6,1.4,5.3,2c7.1,2.7,14,5.3,20.8,7.9
	c3.4,1.3,6.8,2.6,10.1,3.8c3.3,1.2,6.6,2.4,9.9,3.6c6.5,2.4,12.8,4.7,18.9,7c6.1,2.1,12,4.2,17.7,6.2c1.4,0.5,2.8,1,4.2,1.5
	c1.4,0.5,2.8,0.9,4.1,1.4c2.7,0.9,5.4,1.8,8,2.6c5.2,1.8,10.1,3.2,14.7,4.6c2.3,0.7,4.5,1.4,6.7,2c2.2,0.6,4.3,1.2,6.3,1.8
	c2,0.6,4,1.1,5.8,1.6c1.9,0.5,3.7,1,5.4,1.4c13.7,3.7,21.5,5.8,21.5,5.8L494.7,459.1z"/>
<path fill="#2B3B47" d="M497.3,449.3c0,0-2-0.4-5.7-1c-1.9-0.3-4.2-0.8-6.9-1.2c-2.7-0.5-5.8-1.2-9.3-1.9c-1.8-0.4-3.6-0.7-5.5-1.1
	c-1.9-0.5-3.9-1-6-1.5c-2.1-0.5-4.3-1.1-6.5-1.6c-2.3-0.5-4.6-1.3-6.9-1.9c-4.8-1.4-9.9-2.8-15.2-4.5c-2.6-0.8-5.4-1.7-8.1-2.6
	c-2.8-0.9-5.6-1.8-8.5-2.8c-5.8-2-11.8-4-18-6.1c-6.2-2.2-12.6-4.4-19.2-6.7c-13.2-4.6-27-9.6-41.3-14.6c-1.8-0.6-3.6-1.3-5.4-1.9
	c-1.9-0.7-3.6-1.3-5.5-2c-3.6-1.3-7.3-2.7-10.9-4c-7.3-2.7-14.8-5.5-22.2-8.2c-3.7-1.4-7.5-2.8-11.3-4.2c-1.9-0.7-3.8-1.4-5.6-2.2
	c-1.9-0.8-3.8-1.5-5.6-2.3c-7.5-3-15.1-6.1-22.6-9.1c-1.9-0.8-3.8-1.5-5.7-2.3l-5.6-2.5c-3.7-1.6-7.4-3.3-11.1-4.9
	c-3.7-1.6-7.4-3.3-11.1-4.9c-3.6-1.7-7.3-3.4-10.9-5.1c-14.5-6.8-28.7-13.3-42.5-19.6c-7-3-13.8-5.9-20.5-8.7
	c-3.4-1.4-6.7-2.8-9.9-4.2c-1.6-0.7-3.3-1.4-4.9-2.1c-1.6-0.6-3.3-1.3-4.9-1.9c-12.9-5.1-25.2-9.9-36.5-14.3
	c-2.8-1.1-5.6-2.2-8.3-3.2c-2.7-1-5.4-2-8-2.9c-5.2-1.9-10.1-3.7-14.8-5.4c-9.3-3.4-17.3-6.4-24-8.8C19,271.8,11.4,269,11.4,269
	l4.1-11.3c0,0,7.6,2.9,20.9,7.9c6.6,2.5,14.7,5.6,23.9,9.1c4.6,1.8,9.5,3.6,14.7,5.6c2.6,1,5.3,2,8,3c2.7,1.1,5.5,2.2,8.3,3.4
	c11.3,4.6,23.5,9.6,36.5,14.8c1.6,0.7,3.2,1.3,4.9,2c1.6,0.7,3.3,1.4,4.9,2.2c3.3,1.4,6.6,2.9,10,4.4c6.7,3,13.6,6,20.6,9.1
	c13.8,6.5,28.1,13.2,42.4,20.2c3.6,1.7,7.2,3.5,10.8,5.2c3.6,1.7,7.3,3.3,10.9,5c3.7,1.7,7.3,3.4,11,5l5.5,2.5
	c1.8,0.8,3.7,1.6,5.6,2.4c7.4,3.1,14.9,6.2,22.3,9.3c1.9,0.8,3.7,1.6,5.6,2.3c1.8,0.8,3.7,1.6,5.6,2.3c3.7,1.4,7.5,2.9,11.2,4.3
	c7.4,2.9,14.8,5.7,22.1,8.5c3.6,1.4,7.3,2.8,10.9,4.2c1.8,0.7,3.6,1.4,5.3,2c1.8,0.7,3.6,1.3,5.4,2c14.3,5.3,28,10.4,41.1,15.1
	c6.5,2.4,12.9,4.7,19.1,6.9c6.2,2.2,12.1,4.3,17.8,6.3c2.9,1,5.7,2,8.4,2.9c2.7,0.9,5.4,1.8,8.1,2.7c5.2,1.8,10.2,3.2,14.9,4.7
	c2.4,0.7,4.6,1.4,6.8,2c2.2,0.6,4.3,1.1,6.4,1.7c2.1,0.5,4,1,5.9,1.5c1.9,0.4,3.7,0.8,5.4,1.2c3.4,0.7,6.5,1.5,9.2,2
	c2.7,0.5,5,1,6.9,1.3c3.7,0.7,5.7,1.1,5.7,1.1L497.3,449.3z"/>
<path fill="#FFB636" d="M338.1,228.5"/>
<path fill="#DEE254" d="M398.4,309.3c-34.1-33.2-54.7-57.5-67.6-76.2l0,0C277,150,348.7,98.4,247.6,114.6c-31.4,5-21.6,34.3-7,59
	c-21.2,7-44.7,7.2-67.3-1c-43.1-15.7-68.9-57.2-67.1-100.8c-20.7,4.1-34.1,30.3-45.7,62.3c-10.2,28-28.6,78.6-39.1,107.5
	c0,0,7.6,3,20.8,8.3c6.6,2.6,14.7,5.8,23.9,9.5c4.6,1.8,9.5,3.8,14.7,5.8c2.6,1,5.2,2.1,8,3.2c2.7,1.1,5.5,2.3,8.3,3.5
	c11.3,4.8,23.6,10,36.5,15.4c1.6,0.7,3.3,1.4,4.9,2.1c1.6,0.7,3.3,1.5,4.9,2.2c3.3,1.5,6.6,3,10,4.6c6.8,3.1,13.7,6.2,20.7,9.4
	c13.8,6.8,28.2,13.8,42.3,20.9c3.6,1.8,7.1,3.6,10.7,5.3c3.6,1.7,7.1,3.4,10.7,5.1c3.6,1.7,7.2,3.4,10.8,5.1l5.4,2.6
	c1.8,0.8,3.6,1.6,5.4,2.4c7.3,3.2,14.6,6.3,21.8,9.5c1.8,0.8,3.6,1.6,5.4,2.4c1.8,0.8,3.6,1.6,5.5,2.3c3.7,1.5,7.4,3,11.2,4.5
	c7.4,3,14.8,5.9,22,8.8c3.6,1.5,7.2,2.9,10.8,4.3l2.7,1.1l1.3,0.5l1.1,0.4c1.8,0.7,3.6,1.4,5.3,2c7.1,2.7,14,5.3,20.8,7.9
	c3.4,1.3,6.8,2.6,10.1,3.8c3.3,1.2,6.6,2.4,9.9,3.6c6.5,2.4,12.8,4.7,18.9,7c6.1,2.1,12,4.2,17.7,6.2c1.4,0.5,2.8,1,4.2,1.5
	c1.4,0.5,2.8,0.9,4.1,1.4c2.7,0.9,5.4,1.8,8,2.6c5.2,1.8,10.1,3.2,14.7,4.6c2.3,0.7,4.5,1.4,6.7,2c2.2,0.6,4.3,1.2,6.3,1.8
	c2,0.6,4,1.1,5.8,1.6c1.9,0.5,3.7,1,5.4,1.4c10,2.7,16.8,4.5,19.8,5.3C522,381.9,455.6,364.9,398.4,309.3z"/>
<circle fill="#CCC727" cx="288.3" cy="227.5" r="12.6"/>
<circle fill="#CCC727" cx="266.1" cy="194.8" r="13.8"/>
<path fill="#2B3B47" d="M266.1,200.8c-2,0-4-1-5.1-2.9c-1.7-2.8-0.9-6.5,2-8.2c4.3-2.6,42.4-25.3,58.1-6.4c2.1,2.5,1.8,6.3-0.8,8.4
	c-2.5,2.1-6.3,1.8-8.4-0.8c-7.2-8.6-31.8,2.3-42.6,9C268.3,200.5,267.2,200.8,266.1,200.8z"/>
<path fill="#2B3B47" d="M288.3,233.5c-2,0-4-1-5.1-2.9c-1.7-2.8-0.9-6.5,2-8.2c4.3-2.6,42.4-25.3,58.1-6.4c2.1,2.5,1.8,6.3-0.8,8.4
	c-2.5,2.1-6.3,1.8-8.4-0.8c-7.2-8.6-31.8,2.3-42.6,9C290.4,233.2,289.3,233.5,288.3,233.5z"/>
<path fill="#CCC727" d="M62.9,127.7c-0.8,2.1-1.6,4.3-2.4,6.4c-10.2,28-28.6,78.6-39.1,107.5c0,0,7.6,3,20.8,8.3
	c6.6,2.6,14.7,5.8,23.9,9.5c4.6,1.8,9.5,3.8,14.7,5.8c2.6,1,5.2,2.1,8,3.2c2.7,1.1,5.5,2.3,8.3,3.5c2.8,1.2,5.6,2.4,8.5,3.6
	C125.1,220.8,106.2,161.7,62.9,127.7z"/>
<path fill="#2B3B47" d="M234.8,163.1c-17.2,3.8-35.6,2.6-53.4-3.9c-36.3-13.2-60.1-44.8-62.2-82.3c-0.4-6.4-5.8-11.2-12.2-10.9
	c-6.4,0.4-11.2,5.8-10.9,12.2c2.6,46.9,32.2,86.3,77.4,102.7c13.8,5,27.9,7.5,41.7,7.5c10.9,0,21.6-1.5,31.9-4.5
	C242.7,177.4,238.4,170.3,234.8,163.1z"/>
<path fill="#FFFFFF" d="M355.7,264.7c-11.4,2.3-22.6,5.9-33.4,10.9c-15.4,7.2-29.1,16.8-40.8,28.4c-30-11.3-53.9-33.4-67.5-62.5
	c-8-17.1-11.8-35.4-11.4-53.7c-7.6-0.8-15.3-2.4-22.9-4.7c-1.1,23.2,3.4,46.5,13.5,68.2c15,32.1,40.6,57.1,72.7,71.3
	c-4.9,6.8-9.1,14-12.8,21.7l1,0.5c1.8,0.8,3.6,1.6,5.4,2.4c4.9,2.1,9.8,4.3,14.7,6.4c12.2-25,32.4-45,58-56.9
	c13.6-6.4,28-10.1,42.6-11.1C367.6,277.9,361.3,271.1,355.7,264.7z"/>
</svg>
