<?xml version="1.0" encoding="utf-8"?>
<!-- Generator: Adobe Illustrator 18.1.0, SVG Export Plug-In . SVG Version: 6.00 Build 0)  -->
<!DOCTYPE svg PUBLIC "-//W3C//DTD SVG 1.0//EN" "http://www.w3.org/TR/2001/REC-SVG-20010904/DTD/svg10.dtd">
<svg version="1.0" id="Layer_1" xmlns="http://www.w3.org/2000/svg" xmlns:xlink="http://www.w3.org/1999/xlink" x="0px" y="0px"
	 width="72px" height="72px" viewBox="0 0 72 72" enable-background="new 0 0 72 72" xml:space="preserve">
<path fill="#2B3B47" d="M22.4,36.4v4v0c0,0,0,0,0,0c0,1.6-1.3,2.8-2.8,2.8c-1.6,0-2.8-1.3-2.8-2.8c0,0,0,0,0,0h0v-4h0
	c0.1-1.5,1.3-2.6,2.8-2.6C21,33.8,22.2,34.9,22.4,36.4L22.4,36.4z M55.6,36.4c-0.1-1.5-1.3-2.6-2.8-2.6c-1.5,0-2.7,1.1-2.8,2.6h0v4
	h0c0,0,0,0,0,0c0,1.6,1.3,2.8,2.8,2.8c1.6,0,2.8-1.3,2.8-2.8c0,0,0,0,0,0v0L55.6,36.4L55.6,36.4z"/>
</svg>
