<svg xmlns="http://www.w3.org/2000/svg" viewBox="0 0 512 512" enable-background="new 0 0 512 512"><path fill="#CAD3D8" d="M442.585 273.41c.48-2.546 2.365-14.132 2.98-17.41 0 0-.028-9.724-.002-14.847.072-13.993-2.378-25.876-6.572-35.73 10.01-9.98 27.857-28.088 27.874-48.29.008-9.423-3.795-18.01-11.304-25.518-2.807-2.807-7.356-2.807-10.164 0-2.806 2.806-2.806 7.357 0 10.163 4.78 4.78 7.1 9.797 7.095 15.34-.01 12.83-12.17 26.483-20.833 35.3-11.513-15.824-28.586-23.546-45.052-23.63-28.668-.147-49.803 14.413-102.36 14.144-40.82-.21-70.88.142-91.522-15.836-14.032-10.86-40.676-16.52-53.578-4.337-11.046 10.426-20.82 27.26-20.958 54.196-.157 30.684 21.898 70.306 55.448 84.974l-2.333.227c14.52 55.09 27.42 78.003 24.23 107.96-2.263-.587-4.635-.9-7.08-.9-15.52 0-28.103 12.58-28.103 28.1s12.58 18.336 28.1 18.336 28.1-2.815 28.1-18.335c0-1.454-.11-2.883-.32-4.277 2.84-11.19 8.586-35.99 8.586-53.676 0-18.605 2.312-59.626 3.275-75.9 44.725-10.51 59.29-24.2 82.428-30.433 14.08-3.792 29.017 1.34 38.05 12.785 13.342 16.902 30.1 62.377 47.708 67.69 25.996 7.846 35.84 38.07 39.424 55.726-15.28.28-27.58 12.745-27.58 28.09 0 15.52 12.583 18.335 28.103 18.335s28.102-2.815 28.102-18.335c0-5.598-1.643-10.81-4.464-15.19-1.82-94.375-29.503-68.628-17.274-148.72z"/></svg>