<?xml version="1.0" encoding="utf-8"?>
<!-- Generator: Adobe Illustrator 18.0.0, SVG Export Plug-In . SVG Version: 6.00 Build 0)  -->
<!DOCTYPE svg PUBLIC "-//W3C//DTD SVG 1.1 Tiny//EN" "http://www.w3.org/Graphics/SVG/1.1/DTD/svg11-tiny.dtd">
<svg version="1.1" baseProfile="tiny" id="Layer_1" xmlns="http://www.w3.org/2000/svg" xmlns:xlink="http://www.w3.org/1999/xlink"
	 x="0px" y="0px" width="511.9px" height="511.9px" viewBox="0 0 511.9 511.9" xml:space="preserve">
<path fill="#E5C591" d="M132.4,352.3c-5.3-56.6-11.8-85.2-12.7-191.9c-0.2-22.7,18.3-41.2,41-41.2h240.8c63.8,0,81.2,24.7,89,68.2
	c0-3.5-0.2-6.6-0.6-9C474,78.3,376.6,72.9,327.2,73c-77.1,0-84,0-161,0C19.3,73,17,230.2,2,320.6c-9.9,59.5,16.6,114,64.3,114
	c5.4,0,9.7,0,13.2,0C96.2,431.7,138.6,417.6,132.4,352.3z"/>
</svg>
