<?xml version="1.0" encoding="iso-8859-1"?>
<!-- Generator: Adobe Illustrator 18.1.1, SVG Export Plug-In . SVG Version: 6.00 Build 0)  -->
<!DOCTYPE svg PUBLIC "-//W3C//DTD SVG 1.1//EN" "http://www.w3.org/Graphics/SVG/1.1/DTD/svg11.dtd">
<svg version="1.1" xmlns="http://www.w3.org/2000/svg" xmlns:xlink="http://www.w3.org/1999/xlink" x="0px" y="0px"
	 viewBox="0 0 512 512" enable-background="new 0 0 512 512" xml:space="preserve">
<g id="Layer_3">
	<path fill="#FF473E" d="M295.519,368.407c-15.319,0-29.476-7.641-37.868-20.439l-1.598-2.437l-1.648,2.403
		c-8.442,12.311-22.403,19.661-37.345,19.661c-8.989,0-17.694-2.653-25.175-7.672c-9.919-6.656-16.645-16.908-18.938-28.87
		c-2.318-12.095,0.314-24.808,7.221-34.88l3.047-4.443l-1.774-0.466c-12.375-3.25-22.933-11.496-28.967-22.625
		c-5.983-11.034-7.101-23.674-3.147-35.591c6.147-18.53,23.396-30.98,42.92-30.98c3.87,0,7.743,0.501,11.511,1.491l7.886,2.071
		v-8.153c0-24.95,20.298-45.249,45.249-45.249c1.096,0,2.207,0.04,3.305,0.119c23.52,1.684,41.944,21.798,41.944,45.79v7.217
		l7.609-2.035c3.832-1.025,7.772-1.545,11.713-1.545c19.432,0,36.653,12.374,42.854,30.79c4.006,11.898,2.945,24.542-2.987,35.603
		c-5.983,11.155-16.504,19.449-28.863,22.756l-3.406,0.91l3.895,5.939c13.837,21.101,8.225,49.419-12.51,63.127
		C313.016,365.811,304.396,368.407,295.519,368.407z M256.133,315.034c7.645,0,14.711,3.816,18.903,10.208l5.192,7.92
		c3.386,5.163,9.102,8.245,15.29,8.245c3.566,0,7.037-1.048,10.036-3.031c8.362-5.527,10.525-17.101,4.822-25.797l-7.23-11.026
		c-3.967-6.05-4.795-13.696-2.216-20.455c2.578-6.758,8.29-11.907,15.276-13.776l9.284-2.482c5.259-1.406,9.536-4.757,12.046-9.435
		c2.369-4.418,2.793-9.47,1.192-14.225c-2.498-7.42-9.437-12.405-17.266-12.405c-1.585,0-3.179,0.211-4.735,0.628l-13.144,3.515
		c-1.916,0.513-3.887,0.772-5.857,0.772c-5.944,0-11.564-2.303-15.825-6.484c-4.359-4.279-6.761-10.005-6.761-16.124v-12.945
		c0-9.897-7.412-18.182-16.873-18.859c-10.636-0.757-19.625,7.683-19.625,18.199v13.854c0,12.465-10.131,22.607-22.583,22.608
		c-1.937,0-3.875-0.25-5.761-0.746l-13.399-3.519c-1.53-0.402-3.097-0.605-4.654-0.605c-7.867,0-14.817,5.016-17.293,12.481
		c-1.58,4.763-1.134,9.812,1.256,14.22c2.53,4.666,6.824,7.997,12.09,9.38l7.816,2.053c7.105,1.867,12.878,7.091,15.441,13.976
		c2.563,6.884,1.613,14.61-2.541,20.67l-6.581,9.596c-2.859,4.169-3.942,9.464-2.971,14.528c0.925,4.827,3.576,8.923,7.463,11.531
		c3.016,2.023,6.52,3.093,10.132,3.093c6.036,0,11.672-2.965,15.078-7.932l5.356-7.811
		C241.709,318.706,248.677,315.034,256.133,315.034z"/>
</g>
<g id="Layer_1">
</g>
</svg>
