<svg xmlns="http://www.w3.org/2000/svg" viewBox="0 0 512 512" enable-background="new 0 0 512 512"><path fill="#FF6E83" d="M60.68 166.337C39.48 139.813 37.035 107 40.138 80.28c3.402-29.297 30.75-47.423 54.412-15.5 3.035 4.095 7.612 19.435 11.183 38.06-19.265 18.41-34.663 40.066-45.053 63.495zm388.8.064c21.248-26.533 23.7-59.38 20.593-86.12-3.402-29.296-30.75-47.42-54.412-15.498-3.037 4.1-7.62 19.473-11.194 38.13 19.25 18.414 34.638 40.065 45.014 63.49zM258.023 449.48c-7.744 13.798-21.354 23.857-37.452 26.796 10.57 2.368 22.836 4.143 35.938 4.143 13.688 0 26.475-1.934 37.358-4.46-15.395-3.3-28.36-13.145-35.844-26.48z"/></svg>