<?xml version="1.0" encoding="utf-8"?>
<!-- Generator: Adobe Illustrator 18.1.0, SVG Export Plug-In . SVG Version: 6.00 Build 0)  -->
<!DOCTYPE svg PUBLIC "-//W3C//DTD SVG 1.0//EN" "http://www.w3.org/TR/2001/REC-SVG-20010904/DTD/svg10.dtd">
<svg version="1.0" id="Layer_1" xmlns="http://www.w3.org/2000/svg" xmlns:xlink="http://www.w3.org/1999/xlink" x="0px" y="0px"
	 width="72px" height="72px" viewBox="0 0 72 72" enable-background="new 0 0 72 72" xml:space="preserve">
<path fill="#68442A" d="M54.5,17.6c-1-3.3-0.7-7-2.8-11.7c-0.1-0.3-0.2-0.5-0.4-0.8c0,0,0-0.1-0.1-0.1c0,0,0-0.1-0.1-0.1
	c-0.5-0.8-1.1-1.5-1.8-2c-0.3-0.2-1.4-0.7-1.7-0.8c-0.3-0.1-0.9-0.2-0.9-0.2c0,0,0,0,0,0l0,0c-0.3-0.1-0.7-0.1-1-0.1
	c-0.3,0-1.6,0.2-1.9,0.3c-2.1,0.7-3.9,2.8-4.2,4.4c0,0.1-0.1,0.2-0.1,0.3c-1,6.7,0.7,11.5,0.7,11.5c0.4,0.4,1.5,0.6,2.5,0.4V17
	c0-0.1,0-0.2,0-0.3c-2.1-0.9-3.3-3.1-2.8-5.4l0.4-2.7c1.9,0,6.3-0.4,6.6-2.4c0,0,1.3,5.3,3.6,5.3c0.1,0,0.1,0,0.2,0
	c0.3,0.3,0.5,0.7,0.4,1.1c-0.1,0.6-0.8,1.1-1.4,0.9c-0.1,0-0.2-0.1-0.3-0.1c-0.3,1.5-1.3,2.7-2.6,3.3c0,0.1,0,0.2,0,0.4v1.6
	C50.2,19.3,55.2,19.9,54.5,17.6z"/>
</svg>
