<?xml version="1.0" encoding="iso-8859-1"?>
<!-- Generator: Adobe Illustrator 18.1.1, SVG Export Plug-In . SVG Version: 6.00 Build 0)  -->
<!DOCTYPE svg PUBLIC "-//W3C//DTD SVG 1.1//EN" "http://www.w3.org/Graphics/SVG/1.1/DTD/svg11.dtd">
<svg version="1.1" xmlns="http://www.w3.org/2000/svg" xmlns:xlink="http://www.w3.org/1999/xlink" x="0px" y="0px"
	 viewBox="0 0 512 512" enable-background="new 0 0 512 512" xml:space="preserve">
<g id="Layer_2">
	<path fill="#FFB636" d="M509.334,32.666C509.334,16.35,495.985,3,479.668,3H30.033C15.349,3,3.334,15.015,3.334,29.699v452.602
		C3.334,496.985,15.349,509,30.033,509h449.635c16.316,0,29.666-13.35,29.666-29.666V32.666z"/>
</g>
<g id="Layer_3">
	<path fill="#ED9B43" d="M479.668,488.915H30.033c-14.684,0-26.699-12.015-26.699-26.699v20.085
		C3.334,496.985,15.349,509,30.033,509h449.635c16.316,0,29.666-13.35,29.666-29.666v-20.085
		C509.334,475.565,495.985,488.915,479.668,488.915z"/>
</g>
<g id="Layer_4">
	<path fill="#FFFFFF" d="M273.277,75.119h-7.535v-0.736c0-3.051-2.474-5.525-5.525-5.525h-30.768c-3.051,0-5.525,2.474-5.525,5.525
		v0.736H109.433c-12.205,0-22.099,9.894-22.099,22.099v322.378c0,12.205,9.894,22.099,22.099,22.099h163.844
		c12.205,0,22.099-9.894,22.099-22.099V97.218C295.376,85.013,285.482,75.119,273.277,75.119z M271.946,359.933
		c0,5.252-4.493,9.51-10.035,9.51H120.799c-5.542,0-10.035-4.258-10.035-9.51V128.816c0-5.252,4.493-9.51,10.035-9.51h141.112
		c5.542,0,10.035,4.258,10.035,9.51V359.933z"/>
</g>
<g id="Layer_5">
	<path fill="#FFB636" d="M165.514,405.772v-0.364c0-5.492,4.452-9.944,9.944-9.944h31.793c5.492,0,9.944,4.452,9.944,9.944v0.364
		c0,5.492-4.452,9.944-9.944,9.944h-31.793C169.966,415.716,165.514,411.264,165.514,405.772z M351.632,151.615H259.82v191.374
		h91.811V151.615z"/>
</g>
<g id="Layer_6">
	<path fill="#FFFFFF" d="M264.385,245.789c0,41.288-21.281,66.206-56.93,66.206c-35.468,0-56.748-24.19-56.748-66.206
		c0-41.105,21.28-66.206,56.748-66.206C243.104,179.583,264.385,203.591,264.385,245.789z M182.172,245.789
		c0,31.83,8.912,44.198,25.282,44.198c16.915,0,25.464-12.368,25.464-44.198c0-31.647-8.549-44.016-25.464-44.016
		C190.903,201.773,182.172,214.141,182.172,245.789z"/>
</g>
<g id="Layer_7">
	<path fill="#FFFFFF" d="M349.251,204.319h-31.266c-3.181,0-5.76,2.579-5.76,5.76v21.584c0,3.181,2.579,5.76,5.76,5.76h25.22
		c3.181,0,5.76,2.579,5.76,5.76v10.124c0,3.181-2.579,5.76-5.76,5.76h-25.22c-3.181,0-5.76,2.579-5.76,5.76v38.316
		c0,3.181-2.579,5.76-5.76,5.76H287.61c-3.181,0-5.76-2.579-5.76-5.76V188.617c0-3.181,2.579-5.76,5.76-5.76h63.073
		c3.508,0,6.201,3.109,5.701,6.581l-1.432,9.942C354.543,202.215,352.114,204.319,349.251,204.319z"/>
</g>
<g id="Layer_8">
	<path fill="#FFFFFF" d="M437.832,204.319h-31.266c-3.181,0-5.76,2.579-5.76,5.76v21.584c0,3.181,2.579,5.76,5.76,5.76h25.22
		c3.181,0,5.76,2.579,5.76,5.76v10.124c0,3.181-2.579,5.76-5.76,5.76h-25.22c-3.181,0-5.76,2.579-5.76,5.76v38.316
		c0,3.181-2.579,5.76-5.76,5.76h-18.855c-3.181,0-5.76-2.579-5.76-5.76V188.617c0-3.181,2.579-5.76,5.76-5.76h63.073
		c3.508,0,6.201,3.109,5.701,6.581l-1.432,9.942C443.124,202.215,440.695,204.319,437.832,204.319z"/>
</g>
</svg>
