<svg xmlns="http://www.w3.org/2000/svg" viewBox="0 0 512 512" enable-background="new 0 0 512 512"><path fill="#A9B8C2" d="M509.507 277.512c-.132-6.324-.47-12.764-1.04-19.213-.632-6.448-1.428-12.905-2.614-19.246-1.206-6.336-2.63-12.568-4.475-18.537-1.87-5.96-3.99-11.684-6.497-16.98-.594-1.332-1.306-2.607-1.944-3.884l-.975-1.893-1.06-1.824c-.71-1.2-1.387-2.395-2.104-3.543l-2.23-3.322c-.705-1.1-1.51-2.11-2.28-3.11-.78-.995-1.507-1.99-2.287-2.914l-2.35-2.653-1.13-1.268-1.18-1.164c-1.56-1.52-2.988-2.98-4.48-4.16-1.474-1.22-2.713-2.35-4.16-3.325-1.087-.78-2.094-1.49-3-2.118-17.823-20.005-42.043-32.73-73.6-32.262-65.69.978-93.65 12.662-135.098-21.204-18.746-41.433-58.357-72.003-117.605-57.28-88.93 22.098-122.057 45.4-128.777 94.133-1.177 3.953-1.833 8.13-1.86 12.463l-.058 9.042-.018 2.794-.056 2.945c-.038 1.238-.08 2.662-.13 4.256-.217 6.425-.762 15.903-1.466 27.59-.686 11.68-1.51 25.55-1.832 40.698-.166 7.57-.185 15.47.016 23.568.214 8.102.645 16.406 1.457 24.8.798 8.392 1.978 16.873 3.64 25.29 1.69 8.415 3.835 16.766 6.67 24.84 2.778 8.07 6.28 15.85 10.322 23.028 4.088 7.17 8.782 13.704 13.74 19.314 4.985 5.6 10.21 10.248 15.127 13.945 4.91 3.723 9.528 6.466 13.38 8.522l2.747 1.44c.873.414 1.693.8 2.456 1.16 1.526.725 2.832 1.31 3.903 1.732l3.275 1.336c7.498 3.063 16.404.77 21.39-6.07 5.868-8.047 4.1-19.328-3.946-25.196l-4.27-3.112-1.968-1.435c-.647-.447-1.408-1.05-2.277-1.77l-1.4-1.138-1.507-1.362c-2.102-1.915-4.49-4.328-6.8-7.322-2.325-2.974-4.593-6.483-6.567-10.503-1.953-4.048-3.62-8.6-4.9-13.612-1.24-5.053-2.144-10.52-2.576-16.423-.47-5.864-.484-12.145-.174-18.62.17-3.342.436-6.743.782-10.183 2.13-5.07 4.632-11.54 7.39-19.014 2.704.653 5.46 1.06 8.26 1.23l.002.014c7.48 1.072 23.013 9.41 23.51 16.948 2.443 37.036 15.236 59.378 26.407 72.06 10.126 11.492 16.998 25.48 20.297 40.437 7.742 35.107.006 76.796 46.07 76.796s20.08-48.647 34.932-78.646c14.85-30 51.293-24 51.293-24 32.974 0 47.557 10.897 55.47 25.767 10.23 19.23-3.268 76.88 47.38 76.88 49.846 0 35.89-67.9 50.29-86.76 18.117-23.725 41.402-51.33 54.37-84.85-.154 2.272-.32 4.482-.492 6.602-.397 4.603-.794 8.822-1.227 12.556-.387 3.738-.84 6.987-1.168 9.668l-1.175 8.41-.013.09c-.468 3.384 1.82 6.558 5.213 7.158 3.472.613 6.783-1.704 7.397-5.175 0 0 .55-3.12 1.516-8.58.435-2.74 1.02-6.058 1.557-9.888.583-3.823 1.15-8.152 1.73-12.882.558-4.734 1.1-9.874 1.552-15.33.2-2.73.46-5.532.603-8.408l.254-4.357.18-4.45c.247-5.99.283-12.198.184-18.52z"/></svg>