<?xml version="1.0" encoding="utf-8"?>
<!-- Generator: Adobe Illustrator 18.1.0, SVG Export Plug-In . SVG Version: 6.00 Build 0)  -->
<!DOCTYPE svg PUBLIC "-//W3C//DTD SVG 1.0//EN" "http://www.w3.org/TR/2001/REC-SVG-20010904/DTD/svg10.dtd">
<svg version="1.0" id="Layer_1" xmlns="http://www.w3.org/2000/svg" xmlns:xlink="http://www.w3.org/1999/xlink" x="0px" y="0px"
	 width="72px" height="72px" viewBox="0 0 72 72" enable-background="new 0 0 72 72" xml:space="preserve">
<path fill="#009E83" d="M48.3,29c0-0.4,0.1-0.7,0.1-1.2c0.1-1.5-0.1-3.4-0.6-5.3c-0.5-1.9-1.3-4-2.1-6.1c-1.7-4.1-4-8.2-6.1-11.3
	c-1-1.4-1.8-2.5-2.5-3.4c-0.5,0-1-0.1-1.5-0.1c-0.5,0-1,0-1.5,0.1c-0.7,0.9-1.5,2-2.5,3.4c-2.1,3.1-4.4,7.2-6.1,11.3
	c-0.9,2.1-1.6,4.1-2.1,6.1c-0.5,1.9-0.6,3.7-0.6,5.3c0,0.4,0.1,0.8,0.1,1.2c3.8,0.4,8.1,0.6,12.7,0.6C40.2,29.7,44.6,29.4,48.3,29z"
	/>
</svg>
