<svg xmlns="http://www.w3.org/2000/svg" viewBox="0 0 512 512" enable-background="new 0 0 512 512"><path fill="#2B3B47" d="M75.73 121.24c3.43-.248 6.414 2.33 6.663 5.76l.78 10.742c.25 3.43-2.328 6.414-5.76 6.663-3.43.25-6.413-2.33-6.662-5.76l-.78-10.74c-.25-3.43 2.33-6.415 5.76-6.664zm-58.525 24.88c-1.686.123-2.954 1.59-2.832 3.276l.384 5.28c.123 1.686 1.59 2.954 3.276 2.832 1.686-.123 2.954-1.59 2.832-3.275l-.384-5.28c-.12-1.687-1.59-2.955-3.274-2.832M201.67 440.47h-23.735c.083 4.514.02 8.93-.296 12.496-.315 3.52 2.424 6.557 5.957 6.557h15.317c3.93 0 6.794-3.714 5.79-7.512-.846-3.2-1.9-7.202-3.036-11.54zm45.72 0h-23.734c.083 4.514.02 8.93-.296 12.496-.313 3.52 2.426 6.557 5.96 6.557h15.316c3.93 0 6.794-3.714 5.79-7.512-.846-3.2-1.9-7.202-3.036-11.54zm157.306 0c-1.638 4.255-3.18 8.364-4.41 12.09-1.33 4.027 1.267 8.33 5.02 8.33h12.806c2.03 0 3.882-1.315 4.795-3.395 1.567-3.57 4.103-9.694 6.554-17.022h-24.763zm-60.946 0c-1.638 4.256-3.18 8.364-4.41 12.09-1.33 4.027 1.267 8.33 5.02 8.33h12.806c2.03 0 3.882-1.315 4.795-3.395 1.764-4.016 4.123-9.997 6.467-17.022H343.75z"/></svg>