<svg xmlns="http://www.w3.org/2000/svg" viewBox="0 0 512 512" enable-background="new 0 0 512 512"><path fill="#FFEDCA" d="M119.076 294.917l.04.136c-14.65-12.76-28.023-29.428-39.17-43.17-6.256 4.17-19.15 8.727-45.597.898-.388-.11-.75-.23-1.12-.35h-.252c-.856.004-1.724.005-2.618.005-.643 0-1.27-.047-1.89-.117-17.668-.845-23.65-6.528-23.65-20.447 0-4.753 6.197-4.975 13.385-4.364.798-.154 1.667-.245 2.633-.245 2.24 0 4.76-.385 7.443-1v-31.666c0-7.373 5.978-13.35 13.35-13.35 7.373 0 13.35 5.978 13.35 13.35v19.292c0 1.038-.13 2.044-.353 3.014 1.77-.363 3.402-.56 4.82-.56 29.082 0 33.222 14.254 30.46 14.254-10.98 0 4.982 3.177 2.946 6.102-.296.426-3.352 1.247-6.25 2.074 9.586 11.69 20.916 24.953 32.58 35.1-1.58 5.112-2.01 10.663-1.013 16.295l.01.047.24 1.372c.08.447.178 1 .29 1.648l.187 1.045.18.64zm170.558 12.85l-1.58-5.793-1.65-5.79c-.555-1.93-1.084-3.86-1.663-5.79l-.56-1.89c-15.352 1.26-31.565 2.577-51.36 3.575l-3.58 17.164c-.514 2.31-1.07 4.777-1.645 7.362 27.96 1.343 45.68 2.75 64.67.916l-1.05-3.965-1.58-5.794z"/></svg>