<?xml version="1.0" encoding="utf-8"?>
<!-- Generator: Adobe Illustrator 18.1.0, SVG Export Plug-In . SVG Version: 6.00 Build 0)  -->
<!DOCTYPE svg PUBLIC "-//W3C//DTD SVG 1.0//EN" "http://www.w3.org/TR/2001/REC-SVG-20010904/DTD/svg10.dtd">
<svg version="1.0" id="Layer_1" xmlns="http://www.w3.org/2000/svg" xmlns:xlink="http://www.w3.org/1999/xlink" x="0px" y="0px"
	 width="72px" height="72px" viewBox="0 0 72 72" enable-background="new 0 0 72 72" xml:space="preserve">
<path fill="#FF6F1F" d="M68.1,46.9L61.8,9.9c-0.2-1.1-0.7-2.1-1.5-2.8l-6.6-6.6c-0.3-0.3-0.9-0.3-1.2,0L37.3,14.3
	c-0.3,0.3-0.6,0.6-0.9,1c-0.2-0.4-0.5-0.7-0.9-1L20.3,0.4c-0.3-0.3-0.9-0.3-1.2,0l-6.6,6.6c-0.8,0.8-1.3,1.8-1.5,2.8L4.7,46.9
	c-0.2,1.4,0.5,2.9,1.9,3.4c1.5,0.6,3.8,1.3,6.9,1.3c5.9,0,8.8-1.5,8.8-1.5c0.3,0,0.6,0,0.9-0.1v17.4c0,1.4,4.7,4.5,13.3,4.5
	s13.4-3.1,13.4-4.5V50.1c0.2,0,0.4,0.1,0.7,0.1c0,0,2.9,1.5,8.8,1.5c3,0,5.3-0.6,6.9-1.3C67.6,49.8,68.4,48.4,68.1,46.9z"/>
</svg>
