<?xml version="1.0" encoding="utf-8"?>
<!-- Generator: Adobe Illustrator 18.1.0, SVG Export Plug-In . SVG Version: 6.00 Build 0)  -->
<!DOCTYPE svg PUBLIC "-//W3C//DTD SVG 1.0//EN" "http://www.w3.org/TR/2001/REC-SVG-20010904/DTD/svg10.dtd">
<svg version="1.0" id="Layer_1" xmlns="http://www.w3.org/2000/svg" xmlns:xlink="http://www.w3.org/1999/xlink" x="0px" y="0px"
	 width="72px" height="72px" viewBox="0 0 72 72" enable-background="new 0 0 72 72" xml:space="preserve">
<path fill="#FFB636" d="M65.2,60.6h-5l-1.5-1.5h1.7c0.9,0,1.6-0.7,1.6-1.6s-0.7-1.6-1.6-1.6h-5l-8.1-8.1c-0.6-0.6-1.7-0.6-2.3,0
	c-0.6,0.6-0.6,1.7,0,2.3l8.1,8.1v5c0,0.9,0.7,1.6,1.6,1.6s1.6-0.7,1.6-1.6v-1.7l1.5,1.5v5c0,0.9,0.7,1.6,1.6,1.6s1.6-0.7,1.6-1.6v-4
	h4c0.9,0,1.6-0.7,1.6-1.6S66.1,60.6,65.2,60.6z"/>
<path fill="#FFB636" d="M14,18.7c0.6-0.8,1.2-1.5,2-2.1c-0.1-0.2-0.2-0.5-0.4-0.6L5.9,6.2h3.9c0.9,0,1.6-0.7,1.6-1.6S10.8,3,9.9,3H2
	c0,0,0,0,0,0H1.9C1,3,0.3,3.7,0.3,4.6v8c0,0.9,0.7,1.6,1.6,1.6s1.6-0.7,1.6-1.6V8.5l9.8,9.8C13.5,18.5,13.8,18.6,14,18.7z"/>
</svg>
