<?xml version="1.0" encoding="utf-8"?>
<!-- Generator: Adobe Illustrator 18.1.0, SVG Export Plug-In . SVG Version: 6.00 Build 0)  -->
<!DOCTYPE svg PUBLIC "-//W3C//DTD SVG 1.0//EN" "http://www.w3.org/TR/2001/REC-SVG-20010904/DTD/svg10.dtd">
<svg version="1.0" id="Layer_1" xmlns="http://www.w3.org/2000/svg" xmlns:xlink="http://www.w3.org/1999/xlink" x="0px" y="0px"
	 width="72px" height="72px" viewBox="0 0 72 72" enable-background="new 0 0 72 72" xml:space="preserve">
<path fill="#FFD3B6" d="M59.9,37.3l0.1-0.8c0-13.4-10.8-24.2-24.2-24.2c-13.4,0-24.2,10.8-24.2,24.2l0.1,0.8c0,0,0,0,0,0
	c-2.3,0.5-4.1,2.5-4.1,5c0,2.8,2.3,5.1,5.1,5.1c0.1,0,0.1,0,0.2,0l0.2,1.9C13.1,61.8,23.2,72,35.8,72c12.5,0,22.7-10.2,22.7-22.7
	l0.2-1.9c0.1,0,0.2,0,0.3,0c2.8,0,5.1-2.3,5.1-5.1C64,39.8,62.2,37.7,59.9,37.3z"/>
<path fill="#2B3B47" d="M23.8,38.8v3.4h0c0,0,0,0,0,0c0,1.3-1.1,2.4-2.4,2.4s-2.4-1.1-2.4-2.4c0,0,0,0,0,0h0v-3.4h0
	c0.1-1.2,1.1-2.2,2.4-2.2C22.6,36.6,23.6,37.5,23.8,38.8L23.8,38.8z M52.6,38.8c-0.1-1.2-1.1-2.2-2.4-2.2c-1.3,0-2.3,1-2.4,2.2h0
	v3.4h0c0,0,0,0,0,0c0,1.3,1.1,2.4,2.4,2.4c1.3,0,2.4-1.1,2.4-2.4c0,0,0,0,0,0l0,0L52.6,38.8L52.6,38.8z M32.7,57.1c0,0,0.1,0,0.1,0
	c1,0,1.8-0.9,1.7-1.8c0-1-0.9-1.8-1.8-1.7c0,0-0.1,0-0.1,0c-0.1,0-0.3,0-0.4,0c-0.4,0-0.9,0.1-1.4,0.2c-0.6,0.1-1.3,0.2-2,0.4
	c-0.7,0.2-1.5,0.4-2.2,0.8c-0.7,0.3-1.5,0.7-2.1,1.1c-0.3,0.2-0.6,0.4-0.9,0.6c-0.3,0.2-0.5,0.4-0.8,0.6c-0.2,0.2-0.4,0.4-0.6,0.6
	c-0.2,0.2-0.3,0.4-0.4,0.5c-0.2,0.3-0.4,0.4-0.4,0.4c-0.4,0.5-0.4,1.2,0.1,1.7c0.5,0.5,1.3,0.5,1.8,0l0.1-0.1c0,0,0.1-0.1,0.3-0.3
	c0.1-0.1,0.2-0.2,0.3-0.4c0.1-0.1,0.3-0.3,0.5-0.4c0.2-0.2,0.4-0.3,0.6-0.4c0.2-0.2,0.5-0.3,0.7-0.4c0.5-0.3,1.1-0.5,1.7-0.7
	c0.6-0.2,1.2-0.4,1.9-0.5c0.6-0.1,1.2-0.2,1.7-0.2c0.5,0,0.9,0,1.2,0c0.1,0,0.2,0,0.3,0C32.6,57.1,32.6,57.1,32.7,57.1L32.7,57.1z
	 M38.4,53.6c-1,0.1-1.7,0.9-1.7,1.9c0.1,1,0.9,1.7,1.9,1.7l0,0c0,0,0,0,0.1,0c0.1,0,0.2,0,0.3,0c0.3,0,0.7,0,1.2,0
	c0.5,0,1.1,0.1,1.7,0.2c0.6,0.1,1.2,0.3,1.9,0.5c0.6,0.2,1.2,0.4,1.7,0.7c0.3,0.1,0.5,0.3,0.7,0.4c0.2,0.2,0.4,0.3,0.6,0.4
	c0.2,0.1,0.4,0.3,0.5,0.4c0.1,0.1,0.2,0.3,0.3,0.4c0.2,0.2,0.3,0.3,0.3,0.3l0.1,0.1c0.5,0.5,1.2,0.5,1.7,0.1
	c0.5-0.4,0.6-1.2,0.2-1.8c0,0-0.1-0.2-0.4-0.4c-0.1-0.1-0.3-0.3-0.4-0.5c-0.2-0.2-0.4-0.4-0.6-0.6c-0.2-0.2-0.5-0.4-0.8-0.6
	c-0.3-0.2-0.6-0.4-0.9-0.6c-0.6-0.4-1.4-0.8-2.1-1.1c-0.7-0.3-1.5-0.6-2.2-0.8c-0.7-0.2-1.4-0.3-2-0.4c-0.6-0.1-1.1-0.1-1.4-0.2
	c-0.2,0-0.3,0-0.4,0c-0.1,0-0.1,0-0.1,0C38.5,53.6,38.4,53.6,38.4,53.6z"/>
<path fill="#959DA3" d="M20.8,38.9v0.8l0,0v0c0,0.3-0.3,0.6-0.6,0.6c-0.3,0-0.6-0.3-0.6-0.6v0h0v-0.8h0c0-0.3,0.3-0.5,0.6-0.5
	C20.6,38.3,20.8,38.6,20.8,38.9L20.8,38.9z M49.8,38.9c0-0.3-0.3-0.5-0.6-0.5c-0.3,0-0.6,0.2-0.6,0.5h0v0.8h0v0
	c0,0.3,0.3,0.6,0.6,0.6c0.3,0,0.6-0.3,0.6-0.6v0l0,0L49.8,38.9L49.8,38.9z"/>
<path fill="#EDC0A2" d="M33.8,69.7c-5.2,0-10-1.6-14-4.3c4.1,4.1,9.8,6.6,16,6.6c12.5,0,22.7-10.2,22.7-22.7l0.1-1.1
	C56.8,60.3,46.4,69.7,33.8,69.7z"/>
<path fill="#FDD3B7" d="M18.2,44.6c1.4-2.3,4.8-2.3,6.3,0"/>
<path fill="#FDD3B7" d="M47,44.6c1.4-2.3,4.8-2.3,6.3,0"/>
<path fill="#E5AB83" d="M35.8,52.1C35.8,52.1,35.8,52.1,35.8,52.1c-1.6,0-3.1-0.8-4-2.2c-0.3-0.5-0.2-1.1,0.3-1.4
	c0.5-0.3,1.1-0.2,1.4,0.3c0.5,0.8,1.3,1.2,2.3,1.2c0,0,0,0,0,0c0.9,0,1.8-0.5,2.3-1.2c0.3-0.5,0.9-0.6,1.4-0.3
	c0.5,0.3,0.6,0.9,0.3,1.4C38.9,51.3,37.4,52.1,35.8,52.1z M40.2,60.5c0.4-0.3,0.5-0.9,0.2-1.4c-0.3-0.4-0.9-0.5-1.4-0.2
	c-2,1.5-4.5,1.5-6.5,0c-0.4-0.3-1.1-0.2-1.4,0.2c-0.3,0.4-0.2,1.1,0.2,1.4c1.3,1,2.9,1.5,4.4,1.5C37.3,62,38.9,61.5,40.2,60.5z
	 M25,45.4c0.5-0.3,0.6-0.9,0.3-1.4c-0.9-1.4-2.3-2.2-4-2.2c0,0,0,0,0,0c-1.6,0-3.1,0.8-4,2.2c-0.3,0.5-0.2,1.1,0.3,1.4
	c0.5,0.3,1.1,0.2,1.4-0.3c0.5-0.8,1.4-1.2,2.3-1.2c0,0,0,0,0,0c0.9,0,1.8,0.5,2.3,1.2c0.2,0.3,0.5,0.5,0.8,0.5
	C24.7,45.5,24.8,45.5,25,45.4z M53.8,45.4c0.5-0.3,0.6-0.9,0.3-1.4c-0.9-1.4-2.3-2.2-4-2.2c0,0,0,0,0,0c-1.6,0-3.1,0.8-4,2.2
	c-0.3,0.5-0.2,1.1,0.3,1.4c0.5,0.3,1.1,0.2,1.4-0.3c0.5-0.8,1.4-1.2,2.3-1.2c0,0,0,0,0,0c0.9,0,1.8,0.5,2.3,1.2
	c0.2,0.3,0.5,0.5,0.8,0.5C53.5,45.5,53.7,45.5,53.8,45.4z"/>
<path fill="#68442A" d="M47.8,6c-1.3-0.6-6.7-2.3-8-2.4c-1.3-0.2-2.7-0.3-4.2-0.3c-17.3,0-24.9,13.2-24.9,23v12.4
	c3.3,0,3.7-2.5,4.9-10c0.9-5.9,10-12.2,10-12.2L34,22c0.7,0.4,1.6,0,1.6-0.9l0-1.4c3.2,1.6,9.5,4.5,11.9,4.9c1.6,0.2,6.4,0.4,8,4.8
	c2.1,5.8,1.6,8.5,4.9,8.5V26.3C60.4,19.2,56.5,10.4,47.8,6z"/>
<path fill="#FF473E" d="M61.2,23.8L61.2,23.8C59.4,11.3,48.6,1.8,35.6,1.8c-13,0-23.8,9.6-25.6,22.1l0,0c-0.3,0.3-0.5,0.6-0.5,0.9
	c0,2.7,11.7,4.9,26.1,4.9c14.4,0,26.1-2.2,26.1-4.9C61.7,24.4,61.5,24.1,61.2,23.8z M60.7,23.4C60.7,23.4,60.7,23.4,60.7,23.4
	C60.7,23.4,60.7,23.4,60.7,23.4z M56.9,21.9C56.9,21.9,56.9,21.9,56.9,21.9C56.9,21.9,56.9,21.9,56.9,21.9z M55.5,21.5
	C55.5,21.5,55.5,21.5,55.5,21.5C55.5,21.5,55.5,21.5,55.5,21.5z M52.4,20.9C52.4,20.9,52.4,20.9,52.4,20.9
	C52.4,20.9,52.4,20.9,52.4,20.9z M50.7,20.7c-0.1,0-0.1,0-0.2,0C50.6,20.7,50.6,20.7,50.7,20.7z M48.8,20.5c-0.1,0-0.1,0-0.2,0
	C48.7,20.5,48.7,20.5,48.8,20.5z M46.8,20.3c0,0-0.1,0-0.1,0C46.7,20.3,46.7,20.3,46.8,20.3z M44.7,20.1c0,0-0.1,0-0.1,0
	C44.7,20.1,44.7,20.1,44.7,20.1z M42.7,20c-0.1,0-0.2,0-0.3,0C42.5,20,42.6,20,42.7,20z M40.4,19.9c-0.1,0-0.2,0-0.3,0
	C40.2,19.9,40.3,19.9,40.4,19.9z M38.1,19.8c-0.1,0-0.2,0-0.3,0C37.9,19.8,38,19.8,38.1,19.8z M10.5,23.4
	C10.5,23.4,10.5,23.4,10.5,23.4C10.5,23.4,10.5,23.4,10.5,23.4z M15.7,21.5C15.7,21.5,15.7,21.5,15.7,21.5
	C15.7,21.5,15.7,21.5,15.7,21.5z M14.4,21.9C14.4,21.9,14.3,21.9,14.4,21.9C14.3,21.9,14.4,21.9,14.4,21.9z M18.8,20.9
	C18.8,20.9,18.9,20.9,18.8,20.9C18.9,20.9,18.8,20.9,18.8,20.9z M20.5,20.7c0.1,0,0.1,0,0.2,0C20.6,20.7,20.6,20.7,20.5,20.7z
	 M22.4,20.5c0.1,0,0.1,0,0.2,0C22.5,20.5,22.5,20.5,22.4,20.5z M24.4,20.3c0,0,0.1,0,0.1,0C24.5,20.3,24.5,20.3,24.4,20.3z
	 M26.5,20.1c0,0,0.1,0,0.1,0C26.5,20.1,26.5,20.1,26.5,20.1z M28.5,20c0.1,0,0.2,0,0.3,0C28.7,20,28.6,20,28.5,20z M30.8,19.9
	c0.1,0,0.2,0,0.3,0C31,19.9,30.9,19.9,30.8,19.9z M33.1,19.8c0.1,0,0.2,0,0.3,0C33.3,19.8,33.2,19.8,33.1,19.8z"/>
<path fill="#009E83" d="M48.3,29c0-0.4,0.1-0.7,0.1-1.2c0.1-1.5-0.1-3.4-0.6-5.3c-0.5-1.9-1.3-4-2.1-6.1c-1.7-4.1-4-8.2-6.1-11.3
	c-1-1.4-1.8-2.5-2.5-3.4c-0.5,0-1-0.1-1.5-0.1c-0.5,0-1,0-1.5,0.1c-0.7,0.9-1.5,2-2.5,3.4c-2.1,3.1-4.4,7.2-6.1,11.3
	c-0.9,2.1-1.6,4.1-2.1,6.1c-0.5,1.9-0.6,3.7-0.6,5.3c0,0.4,0.1,0.8,0.1,1.2c3.8,0.4,8.1,0.6,12.7,0.6C40.2,29.7,44.6,29.4,48.3,29z"
	/>
<circle fill="#FFB636" cx="35.6" cy="19.1" r="4.7"/>
<ellipse fill="#2B3B47" cx="35.6" cy="2.2" rx="3.6" ry="2.2"/>
<path fill="#2B3B47" d="M35.6,29.7c-14.4,0-26.1-2.2-26.1-4.9v5.6c0,2.7,11.7,4.9,26.1,4.9c14.4,0,26.1-2.2,26.1-4.9v-5.6
	C61.7,27.5,50,29.7,35.6,29.7z"/>
</svg>
