<?xml version="1.0" encoding="utf-8"?>
<!-- Generator: Adobe Illustrator 18.1.0, SVG Export Plug-In . SVG Version: 6.00 Build 0)  -->
<!DOCTYPE svg PUBLIC "-//W3C//DTD SVG 1.0//EN" "http://www.w3.org/TR/2001/REC-SVG-20010904/DTD/svg10.dtd">
<svg version="1.0" id="Layer_1" xmlns="http://www.w3.org/2000/svg" xmlns:xlink="http://www.w3.org/1999/xlink" x="0px" y="0px"
	 width="72px" height="72px" viewBox="0 0 72 72" enable-background="new 0 0 72 72" xml:space="preserve">
<path fill="#EDC0A2" d="M36.2,51.4C36.2,51.4,36.2,51.4,36.2,51.4c-1.9,0-3.6-0.9-4.6-2.5c-0.3-0.5-0.2-1.2,0.3-1.5
	c0.5-0.3,1.2-0.2,1.5,0.3c0.6,0.9,1.6,1.5,2.7,1.5c0,0,0,0,0,0c1.1,0,2.2-0.6,2.8-1.5c0.3-0.5,1-0.7,1.5-0.3c0.5,0.3,0.7,1,0.3,1.5
	C39.9,50.4,38.1,51.4,36.2,51.4z M42.2,58.7c0.5-0.6,0.5-1.5-0.1-2.1c-0.6-0.5-1.5-0.5-2.1,0.1c-0.8,0.8-2.2,1.3-3.8,1.3
	c0,0,0,0,0,0c-1.6,0-3-0.5-3.7-1.3c-0.5-0.6-1.5-0.6-2.1-0.1c-0.6,0.5-0.6,1.5-0.1,2.1c1.3,1.5,3.5,2.3,5.9,2.3c0,0,0,0,0,0
	C38.6,61,40.8,60.1,42.2,58.7z M24.2,30.3c0.3-0.7-0.1-1.5-0.8-1.7l0,0c0,0-0.1,0-0.3-0.1c-0.2-0.1-0.4-0.2-0.9-0.3
	c-0.2-0.1-0.5-0.1-0.7-0.2c-0.3-0.1-0.5-0.1-0.8-0.1c-0.3,0-0.6-0.1-0.9-0.1c-0.3,0-0.6,0-0.9,0c-0.3,0.1-0.6,0.1-0.9,0.2
	c-0.3,0.1-0.6,0.2-0.9,0.3c-0.3,0.1-0.5,0.2-0.8,0.4c-0.2,0.1-0.4,0.3-0.6,0.4c-0.2,0.1-0.3,0.3-0.5,0.4c-0.1,0.1-0.3,0.2-0.4,0.3
	c-0.2,0.2-0.3,0.3-0.3,0.3c-0.6,0.5-0.6,1.3-0.2,1.9c0.5,0.6,1.3,0.7,1.9,0.2l0.2-0.1c0,0,0.1-0.1,0.2-0.2c0.1-0.1,0.2-0.1,0.2-0.2
	c0.1-0.1,0.2-0.2,0.3-0.3c0.1-0.1,0.3-0.1,0.4-0.2c0.1-0.1,0.3-0.2,0.5-0.2c0.2-0.1,0.3-0.1,0.5-0.2c0.2,0,0.4-0.1,0.6-0.1
	c0.2,0,0.4,0,0.6,0c0.2,0,0.4,0,0.6,0c0.2,0,0.4,0,0.5,0.1c0.2,0,0.3,0.1,0.5,0.1c0.3,0.1,0.6,0.2,0.8,0.3c0.2,0.1,0.3,0.1,0.3,0.1
	C23.1,31.4,23.9,31,24.2,30.3z M48.7,28.6c0,0,0.1,0,0.3-0.1c0.2-0.1,0.4-0.2,0.9-0.3c0.2-0.1,0.5-0.1,0.7-0.2
	c0.3-0.1,0.5-0.1,0.8-0.1c0.3,0,0.6-0.1,0.9-0.1c0.3,0,0.6,0,0.9,0c0.3,0.1,0.6,0.1,0.9,0.2c0.3,0.1,0.6,0.2,0.9,0.3
	c0.3,0.1,0.5,0.2,0.8,0.4c0.2,0.1,0.4,0.3,0.6,0.4c0.2,0.1,0.3,0.3,0.5,0.4c0.1,0.1,0.3,0.2,0.4,0.3c0.2,0.2,0.3,0.3,0.3,0.3
	c0.6,0.5,0.6,1.3,0.2,1.9c-0.5,0.6-1.3,0.6-1.9,0.2l-0.2-0.1c0,0-0.1-0.1-0.2-0.2c-0.1-0.1-0.2-0.1-0.2-0.2
	c-0.1-0.1-0.2-0.2-0.3-0.3c-0.1-0.1-0.3-0.1-0.4-0.2c-0.1-0.1-0.3-0.2-0.5-0.2c-0.2-0.1-0.3-0.1-0.5-0.2c-0.2,0-0.4-0.1-0.6-0.1
	c-0.2,0-0.4,0-0.6,0c-0.2,0-0.4,0-0.6,0c-0.2,0-0.4,0-0.5,0.1c-0.2,0-0.3,0.1-0.5,0.1c-0.3,0.1-0.6,0.2-0.8,0.3
	c-0.2,0.1-0.3,0.1-0.3,0.1c-0.7,0.3-1.5-0.1-1.7-0.8C47.6,29.6,48,28.8,48.7,28.6L48.7,28.6z"/>
</svg>
