<svg xmlns="http://www.w3.org/2000/svg" viewBox="0 0 512 512" enable-background="new 0 0 512 512"><path fill="#D19B61" d="M508.18 343.384c.008-4.71-3.707-8.645-8.457-8.843-4.87-.2-8.982 3.58-9.185 8.45v.024l-.035.806c-.033.527-.028 1.326-.116 2.34-.13 2.04-.435 5.012-1.242 8.58-.854 3.512-2.214 7.72-4.755 11.424-2.5 3.708-6.165 6.774-10.536 7.548-2.185.375-4.563.237-7.047-.61-2.47-.878-5.042-2.377-7.41-4.606-4.788-4.396-8.714-11.227-11.248-19.06-2.6-7.843-3.9-16.704-4.26-25.838-.186-4.573-.107-9.232.167-13.92.05-1.172.15-2.348.242-3.524.09-1.178.18-2.358.307-3.5.127-1.167.217-2.265.37-3.492l.47-3.697.475-3.84.378-4c.187-2.677.322-5.36.33-8.052.028-5.38-.328-10.775-1.123-16.093-1.604-10.634-5.012-20.93-9.962-30.015-4.9-9.12-11.28-16.966-18.15-23.385-6.898-6.414-14.297-11.408-21.52-15.203-.503-.264-1.005-.508-1.507-.76-11.423-20.07-30.804-29.817-49.418-29.912-28.973-.148-50.333 14.566-103.45 14.294-41.254-.213-100.127-3.82-113.078-26.803-1.996-3.542-3.998-5.91-6.024-7.356-.68-4.72-2.02-9.32-3.926-13.677 5.564-8.095 7.693-17.73 8.407-25.49.752-8.193-6.438-14.885-14.573-13.66-7.5 1.132-16.66 3.808-24.314 9.873-5.27-1.954-10.928-3.05-16.846-3.05-28.882 0-43.733 16.996-43.733 44.406 0 2.358-32.817 30.21-26.164 40.096.14 11.315 4.516 16.902 16.524 18.765.978 4.83 2.41 8.934 6.537 8.934 19.727 0 33.474-8.764 42.318-11.563.89 2.455 2.165 5.078 3.893 7.892 18.28 29.772 11.037 91.742 60.777 106.495 15.06 52.928 26.813 73.583 18.02 108.68-4.49-1.08-8.885-1.673-12.21-1.673-9.144 0-13.1 11.332-13.1 11.332-4.89 6.72.078 16.163 8.39 16.163h27.71c6.174 0 10.5-5.21 10.314-10.646h.77s10.25-36.454 10.25-60.2c0-14.74 1.437-43.4 2.527-63.022 50.033-7.37 84.73-23.473 108.35-29.835 14.23-3.833 18.975 9.06 28.106 20.63 13.483 17.08 16.508 40.724 34.303 46.095 28.313 8.544 37.672 43.367 40.582 60.237.343 1.988.855 3.934 1.502 5.83-3.097-.696-6.03-1.07-8.364-1.07-8.084 0-11.582 11.33-11.582 11.33-4.324 6.72.07 16.165 7.417 16.165h24.5c3.956 0 7.04-2.746 8.383-6.322 1.192-.9 1.92-2.986 1.92-6.75 0-107.33-30.33-76.695-17.554-160.37.483-2.572 2.39-14.28 3.01-17.594 0 0-.028-9.827 0-15.004.004-.965-.024-1.902-.04-2.847 3.12 3.337 5.99 7.07 8.42 11.215 3.765 6.33 6.5 13.594 7.997 21.48.735 3.947 1.158 8.043 1.285 12.232.07 2.094.034 4.214-.036 6.346l-.192 3.213-.314 3.47-.322 3.716-.288 4.078c-.106 1.395-.158 2.732-.21 4.07-.058 1.338-.118 2.674-.13 4.022-.114 5.368-.01 10.757.4 16.138.823 10.75 2.712 21.494 6.468 31.716 1.875 5.102 4.185 10.07 7.138 14.73 2.92 4.655 6.472 9.018 10.746 12.722 4.23 3.718 9.314 6.714 14.845 8.468 5.54 1.748 11.56 2.057 17.02.92 5.47-1.137 10.275-3.624 13.993-6.605 3.78-2.964 6.512-6.393 8.64-9.687 4.208-6.67 5.854-12.893 6.906-17.862.957-5 1.192-8.875 1.274-11.49.062-1.314.028-2.306.043-2.98v-1.02z"/></svg>