<?xml version="1.0" encoding="utf-8"?>
<!-- Generator: Adobe Illustrator 18.1.0, SVG Export Plug-In . SVG Version: 6.00 Build 0)  -->
<!DOCTYPE svg PUBLIC "-//W3C//DTD SVG 1.0//EN" "http://www.w3.org/TR/2001/REC-SVG-20010904/DTD/svg10.dtd">
<svg version="1.0" id="Layer_1" xmlns="http://www.w3.org/2000/svg" xmlns:xlink="http://www.w3.org/1999/xlink" x="0px" y="0px"
	 width="72px" height="72px" viewBox="0 0 72 72" enable-background="new 0 0 72 72" xml:space="preserve">
<path fill="#FF473E" d="M45.2,14.6c0,0-0.7,0.8-1.8,0.6c-1.1-0.2-1.5-1.1-1.5-1.1s0.2,0,0.5,0s0.6-0.2,0.8-0.2
	c0.2,0,0.3,0.2,0.4,0.2c0,0,0.2-0.1,0.4-0.1c0.3,0.1,0.5,0.3,0.8,0.4C45,14.6,45.2,14.6,45.2,14.6z M13.6,43.8L13.6,43.8
	c-0.4-0.2-0.8-0.5-0.8-1c0-0.6,0.4-1.2,1.1-1.2l0.9-0.2c-0.2-0.1-0.4-0.2-0.7-0.2c0,0-0.2,0-0.5,0c-0.3,0-4,0.4-4,0.4
	c-0.6,0.1-1.2,0.6-1.5,1.4c-0.3,1,0.2,1.9,1,2.2c0,0,0.4,0.1,0.9,0.2c0.3,0.1,2.3-0.1,2.7,0c0.3,0.1,0.5,0.1,0.5,0.1l0,0
	c0.1,0,0.1,0,0.2,0c0.8,0,1.6-0.5,1.9-1.2C14.3,44,13.6,43.8,13.6,43.8z M52.4,69.3c0-0.1,0-0.2,0-0.2l0,0c0,0-0.1-0.2-0.1-0.5
	c-0.1-0.3,0-1.4-0.1-1.7c-0.1-0.6-0.2-0.9-0.2-0.9c-0.1-0.2-0.2-0.4-0.3-0.5c-0.1,0.6-0.1,1-0.1,1c0,0,0,0,0,0c0,0.6-0.4,1-1,1
	c-0.6,0-1-0.4-1-1l0,0l-0.3-1.1c-0.4,0.3-0.7,0.8-0.7,1.2c0,0-0.2,2.7-0.2,3c0,0.3,0.1,0.5,0.1,0.5c0.1,1.1,1.2,1.7,2.3,1.5
	C51.7,71.4,52.6,70.3,52.4,69.3z M53.1,36.2c0,0.2,0,0.4-0.1,0.6c-0.1,0.6-0.6,1-1.1,0.9c-0.6-0.1-1-0.6-0.9-1.1l0,0
	c0-0.4,0.1-0.8,0.1-1.1c0.1-0.4,0.1-0.8,0.2-1.1c0-0.1,0-0.2,0.1-0.3c0,0,0,0,0,0L51.2,34c-0.4,0.2-0.8,0-1-0.4
	c-0.1-0.3,0-0.6,0.1-0.8c-0.1-0.1-0.2-0.2-0.2-0.2c-0.2-0.3-0.3-1.4-0.3-1.8c0.1-1.1,0.4-2.6,0.9-4c0.1-0.1,0.1-0.3,0.2-0.4
	c0,0,0-0.1,0-0.1c0-0.1,0.1-0.2,0.1-0.3c0-0.3,0.1-0.5,0.1-0.8c0-0.7-0.5-1.5-1-2v-2.9c0-0.4-0.3-0.8-0.8-0.8s-0.8,0.3-0.8,0.8v2.2
	c-1.6,0-5.9,0-7.7,0l-0.2-2.2c0-0.4-0.4-0.7-0.8-0.7c-0.4,0-0.7,0.4-0.7,0.8l0.2,2.7c-0.6,0.6-1.2,1.4-1.2,2.2
	c0,0.8,0.2,1.4,0.4,1.9c0.4,1.4,0.7,2.8,0.8,3.8c0,0.3,0,1.4-0.2,1.7c0,0,0,0.1-0.1,0.1c-6.4,4.3-14.3,0.2-13.9,4
	c0.4,3.2,2.3,3.7,6.2,5.8c5.2,2.8,0,8.8,6.7,9.1c6.7,0.3,3.7-5.2,8.7-4.2c5.1,1.1,7,6.2,11,2.3C60.8,47.3,56.4,40.5,53.1,36.2z"/>
</svg>
