<?xml version="1.0" encoding="iso-8859-1"?>
<!-- Generator: Adobe Illustrator 18.1.0, SVG Export Plug-In . SVG Version: 6.00 Build 0)  -->
<!DOCTYPE svg PUBLIC "-//W3C//DTD SVG 1.1//EN" "http://www.w3.org/Graphics/SVG/1.1/DTD/svg11.dtd">
<svg version="1.1" xmlns="http://www.w3.org/2000/svg" xmlns:xlink="http://www.w3.org/1999/xlink" x="0px" y="0px"
	 viewBox="0 0 512 512" enable-background="new 0 0 512 512" xml:space="preserve">
<g id="Layer_2">
	<path fill="#59CAFC" d="M343.584,287.292c-10.541-5.107-52.581-8.666-52.489-5.421c0.001,0.151-11.067,0.396-17.856,1.154
		c-1.112-1.206-2.757-1.28-5.179,0.253c-20.722,13.115-249.839,19.166-216.703,21.586c33.135,2.421,48.735,8.471,116.568,8.471
		c21.007,0,38.812,0.329,52.122,0.696c14.369,0.396,26.584,10.429,29.994,24.393c1.08,4.421,2.438,8.682,4.128,11.969
		c1.48,2.907,3.096,5.76,4.958,8.46c1.801,2.724,4.023,5.224,6.199,7.634c4.485,4.765,9.663,8.815,14.854,11.984
		c2.576,1.593,5.201,2.946,7.724,4.068c2.35,1.191,4.699,2.108,6.743,2.82c1.885,0.776,3.793,1.214,4.967,1.563
		c1.204,0.338,1.846,0.518,1.846,0.518c3.377,0.946,7.105-0.44,8.975-3.601c0,0,0.339-0.574,0.976-1.65
		c0.607-1.064,1.683-2.7,2.509-4.563c0.984-1.927,2.048-4.214,2.923-6.699c0.374-0.91,0.641-1.984,0.987-2.951
		c-1.204-0.489-2.445-1.035-3.695-1.669c-2.523-1.122-5.148-2.475-7.724-4.068c-5.191-3.169-10.37-7.218-14.854-11.984
		c-2.177-2.41-4.398-4.91-6.199-7.634c-1.863-2.699-3.478-5.552-4.958-8.46c-1.69-3.287-3.049-7.548-4.128-11.969
		c-1-4.095-1.075-9.797-0.988-15.617c6.546-0.477,16.756-3.311,16.747-3.052c52.877-7.434,64.09,45.547,64.09,56.398
		c0,14.463-5.124,27.692-13.602,38.082c9.677-2.324,18.589-7.27,25.179-14.902c9.13-10.572,14.653-24.339,14.653-39.411
		C382.351,317.95,367.362,298.813,343.584,287.292z"/>
</g>
<g id="Layer_3">
	<path fill="#00B1FF" d="M427.133,104.478c6.816-24.205,18.671-51.283,28.713-72.077c7.656-15.854-5.019-34.166-22.521-32.264
		c-63.415,6.892-97.462,29.54-114.68,46.853c-1.571,1.579-2.745,3.361-3.737,5.21c-17.014-5.176-35.059-7.982-53.765-7.982
		c-96.162,0-175.105,73.576-183.695,167.498c-8.436,28.997-31.311,44.773-51.37,55.633c-21.904,11.858-8.41,34.162,23.321,37.33
		c-16.897-2.13,134.535-6.753,195.464-15.758c-3.421,19.389,3.6,43.04,5.178,49.501c1.08,4.421,2.438,8.682,4.128,11.969
		c1.48,2.907,3.096,5.76,4.958,8.46c1.801,2.724,4.023,5.224,6.199,7.634c4.485,4.765,9.663,8.815,14.854,11.984
		c2.576,1.593,5.201,2.946,7.724,4.068c2.35,1.191,4.699,2.108,6.743,2.82c1.885,0.776,3.793,1.214,4.967,1.563
		c1.204,0.338,1.846,0.518,1.846,0.518c3.377,0.946,7.105-0.44,8.975-3.601c0,0,0.339-0.574,0.976-1.65
		c0.607-1.064,1.683-2.7,2.509-4.563c0.984-1.927,2.048-4.214,2.923-6.699c1.048-2.554,2.009-5.347,2.769-8.278
		c1.561-5.879,2.504-12.384,2.451-18.928c-0.093-3.245-0.215-6.588-0.797-9.801c-0.52-3.238-1.325-6.417-2.265-9.54
		c-0.663-2.237-1.447-4.421-2.323-6.548c-0.985-2.391-2.087-4.71-3.293-6.932c-0.325-0.6-0.658-1.193-0.997-1.779
		c0,0,0-0.001,0-0.001c-0.08-0.138-0.13-0.277-0.191-0.416c-0.059-0.147-0.125-0.324-0.195-0.523
		c-0.471-1.649,0.233-3.267,1.506-4.181c-0.988-0.21-2.006-0.384-3.038-0.54c-1.844-5.689-4.968-14.658-9.846-22.807
		c13.028,0.282,35.624,3.086,42.961,6.641c23.778,11.521,38.767,30.659,38.767,56.398c0,15.073-5.523,28.839-14.653,39.411
		c-6.577,7.617-15.465,12.557-25.119,14.887c-0.367,0.451-0.732,0.905-1.112,1.345c-9.761,11.303-24.57,16.861-39.498,16.449
		c-0.028-0.001-0.055-0.001-0.082-0.002c-2.637-0.153-5.439-0.094-8.348-0.622c-2.899-0.469-5.943-0.281-9.003-1.021
		c-3.062-0.616-6.251-0.703-9.402-1.566c-3.166-0.704-6.429-1.146-9.611-2.175c-3.26-0.668-6.44-1.753-9.647-2.728
		c-3.259-0.824-6.277-2.301-9.469-3.184c-2.98-1.36-6.141-2.264-8.949-3.593c-2.874-1.208-5.7-2.293-8.236-3.49
		c-5.123-2.301-9.55-4.347-12.639-5.8c-1.554-0.795-2.798-1.228-3.52-1.548c-0.76-0.266-1.389-0.679-1.35-0.631
		c-1.829-1.133-4.043-1.689-6.348-1.432c-5.469,0.609-9.409,5.535-8.801,11.004l0.315,2.83c0.053,0.037,0.051,0.452,0.602,1.62
		c0.552,1.15,1.242,2.809,2.235,4.599c0.989,1.902,54.284,35.078,21.766,86.963c-1.898,3.028-2.027,5.4-2.027,5.4
		c-0.286,1.004-0.375,2.119-0.199,3.218c0.644,4.018,4.423,6.753,8.441,6.109l0.164-0.026c0,0,2.106-0.337,5.494-1.306
		c3.412-0.934,8.095-2.469,13.415-4.609c10.647-4.272,23.497-11.343,35.123-19.528c5.876-3.998,11.454-8.283,16.489-12.394
		c2.525-1.964,4.907-4.135,7.087-5.999c2.184-1.828,4.249-3.904,6.014-5.474c0.888-0.843,1.763-1.621,2.54-2.469
		c0.671-0.719,1.308-1.4,1.906-2.041c1.106-1.057,1.566-2.283,2.779-3.295c0.307-0.248,0.613-0.505,0.916-0.767
		c3.802-3.286,8.482-5.313,13.414-6.276c90.971-17.762,159.629-97.883,159.629-194.053
		C492.667,193.123,467.359,140.674,427.133,104.478z"/>
</g>
<g id="Layer_4">
	<path fill="#2B3B47" d="M167.933,172.646c9.525,0,17.26,7.718,17.26,17.275v21.209c0,9.54-7.735,17.276-17.26,17.276l0,0
		c-9.54,0-17.275-7.736-17.275-17.276v-21.209C150.658,180.365,158.393,172.646,167.933,172.646L167.933,172.646z"/>
</g>
</svg>
