<?xml version="1.0" encoding="iso-8859-1"?>
<!-- Generator: Adobe Illustrator 18.1.1, SVG Export Plug-In . SVG Version: 6.00 Build 0)  -->
<!DOCTYPE svg PUBLIC "-//W3C//DTD SVG 1.1//EN" "http://www.w3.org/Graphics/SVG/1.1/DTD/svg11.dtd">
<svg version="1.1" xmlns="http://www.w3.org/2000/svg" xmlns:xlink="http://www.w3.org/1999/xlink" x="0px" y="0px"
	 viewBox="0 0 512 512" enable-background="new 0 0 512 512" xml:space="preserve">
<g id="Layer_2">
	<path fill="#ADB8BC" d="M276.666,473.233c0.007,0.178,0.02,0.356,0.02,0.534c0,20.563-49.116,37.233-109.704,37.233
		c-60.588,0-109.704-16.67-109.704-37.233c0-0.179,0.013-0.356,0.02-0.534c-0.759-3.345-1.159-7.642-1.159-13.089
		c0-61.217,49.626-110.843,110.843-110.843s110.843,49.626,110.843,110.843C277.825,465.59,277.425,469.888,276.666,473.233z"/>
</g>
<g id="Layer_3">
	<path fill="#C5CFD1" d="M255.296,226.867c69.528,69.528,166.832,84.952,104.321,147.462S190.068,431.15,120.54,361.622
		s-75.217-176.567-12.706-239.077S185.768,157.338,255.296,226.867z"/>
</g>
<g id="Layer_4">
	<path fill="#6C7B7F" d="M309.824,172.339c69.528,69.528,96.116,155.668,59.385,192.399s-122.871,10.143-192.399-59.385
		s-96.116-155.668-59.385-192.399S240.296,102.811,309.824,172.339z"/>
</g>
<g id="Layer_5">
	<path fill="#C5CFD1" d="M368.513,165.432c-10.408,10.408-25.522,13.232-38.492,8.488L216.213,287.728
		c-3.007,3.007-6.949,4.511-10.889,4.511c-3.941,0-7.882-1.503-10.889-4.511c-6.014-6.014-6.014-15.764,0-21.777l113.808-113.808
		c-4.745-12.97-1.921-28.084,8.487-38.492c14.299-14.299,37.483-14.299,51.782,0S382.812,151.133,368.513,165.432z"/>
</g>
<g id="Layer_6">
	<path fill="#FFB636" d="M414.738,161.526c-0.641,0-1.289-0.051-1.941-0.158c-6.542-1.064-10.981-7.23-9.918-13.771
		c1.438-8.842,0.854-18.042-1.689-26.607c-8.347-28.107-37.607-46.425-66.625-41.707c-6.538,1.062-12.706-3.375-13.771-9.917
		c-1.063-6.542,3.376-12.707,9.918-13.771c19.83-3.226,40.305,0.974,57.656,11.825c17.383,10.87,30.107,27.469,35.83,46.738
		c3.566,12.009,4.386,24.905,2.371,37.293C425.61,157.34,420.517,161.526,414.738,161.526z M476.801,149.246
		c3.027-18.598,1.797-37.958-3.558-55.989c-8.583-28.901-27.684-53.808-53.785-70.13c-26.06-16.296-56.795-22.605-86.54-17.766
		c-6.542,1.064-10.981,7.23-9.918,13.771c1.065,6.542,7.233,10.979,13.771,9.917c23.995-3.905,48.842,1.219,69.962,14.426
		c21.137,13.218,36.587,33.324,43.502,56.613c4.332,14.586,5.327,30.25,2.878,45.301c-1.065,6.542,3.375,12.708,9.916,13.772
		c0.653,0.106,1.302,0.158,1.942,0.158C470.75,159.319,475.843,155.134,476.801,149.246z"/>
</g>
<g id="Layer_7">
	<path fill="#6C7B7F" d="M276.666,473.232c0.007,0.178,0.02,0.356,0.02,0.534c0,20.563-49.116,37.233-109.704,37.233
		c-60.588,0-109.704-16.67-109.704-37.233c0-0.179,0.013-0.356,0.02-0.534c-0.759-3.345-1.159-7.642-1.159-13.089
		c0-3.62,0.179-7.197,0.518-10.728c0.171,1.347,0.386,2.575,0.641,3.697c-0.007,0.178-0.02,0.356-0.02,0.534
		c0,3.486,1.416,6.86,4.055,10.06c4.094,4.962,11.142,9.505,20.459,13.398c20.114,8.404,50.802,13.776,85.19,13.776
		c34.388,0,65.076-5.372,85.19-13.776c9.317-3.893,16.365-8.435,20.459-13.398c2.64-3.2,4.055-6.574,4.055-10.06
		c0-0.179-0.013-0.356-0.02-0.534c0.255-1.122,0.469-2.351,0.641-3.697c0.339,3.531,0.518,7.108,0.518,10.728
		C277.825,465.59,277.425,469.888,276.666,473.232z"/>
</g>
</svg>
