<?xml version="1.0" encoding="iso-8859-1"?>
<!-- Generator: Adobe Illustrator 18.1.0, SVG Export Plug-In . SVG Version: 6.00 Build 0)  -->
<!DOCTYPE svg PUBLIC "-//W3C//DTD SVG 1.1//EN" "http://www.w3.org/Graphics/SVG/1.1/DTD/svg11.dtd">
<svg version="1.1" xmlns="http://www.w3.org/2000/svg" xmlns:xlink="http://www.w3.org/1999/xlink" x="0px" y="0px"
	 viewBox="0 0 512 512" enable-background="new 0 0 512 512" xml:space="preserve">
<g id="Layer_2">
	<path fill="#D19B61" d="M202.873,256.889c-28.77,48.887-33.902,42.987-76.24,53.954c-42.338,10.967-59.615-8.386-57.4,18.256
		c2.298,24.029,4.619,30.674,19.292,46.802c20.944,23.022-17.926,48.626-30.447,12.537s-8.11-64.733-8.11-64.733l0.016,0.005
		c-2.483-25.003,15.881-32.86,40.787-39.312c27.828-7.209,37.672-23.241,31.999-45.143
		C122.771,239.255,231.643,208.002,202.873,256.889z M346.707,243.04c20.458,15.239,36.064,19.007-6.512,29.61
		c-25.46,6.341-35.786,34.948-27.619,58.775l-0.673-0.34c0.344,0.426,0.662,0.828,0.992,1.242c2.39,6.56,6.199,12.725,11.501,17.926
		c1.936,7.942-8.209,8.625-32.57,8.625c-22.162,0-35.371,12.254-42.409,22.091c-4.932,5.303-10.455,12.231-15.798,21.022
		c-10.796,17.763,33.905,36.083,33.848,9.863c-0.044-20.273,10.872-32.432,25.502-34.714l-0.237-0.09
		c3.973-0.784,8.597-1.253,14.029-1.253c36.37,0,49.328-10.755,49.975-21.197c0.714-1.678-1.058-4.468-7.04-8.924
		c-24.174-18.006,8.152-16.274,47.699-45.732c39.548-29.458,49.03-27.093,49.03-81.125
		C446.425,164.786,346.707,243.04,346.707,243.04z"/>
</g>
<g id="Layer_3">
	<path fill="#2B3B47" d="M251.973,169.313c-3.2,0.386-6.302,0.604-9.347,0.604c-28.108,0-77.916-24.235-82.814-47.135
		c-0.099-1.184-0.227-2.359-0.394-3.523c0-0.023-0.002-0.046-0.002-0.068l-0.005,0.008c-4.218-29.216-29.349-51.666-59.732-51.666
		c-6.878,0-13.48,1.167-19.637,3.289c-0.616,0.212-1.223,0.443-1.83,0.674c-0.29,0.111-0.584,0.213-0.872,0.328
		c-13.38,5.335-24.4,15.315-31.072,27.948c-0.695-0.037-1.391-0.091-2.085-0.177c-3.484-0.408-6.866-1.379-9.712-2.866
		c-2.883-1.406-5.182-3.307-6.989-5.17c-0.89-0.952-1.627-1.941-2.297-2.878c-0.343-0.463-0.601-0.968-0.876-1.429
		c-0.269-0.466-0.523-0.914-0.74-1.376c-0.457-0.902-0.816-1.746-1.075-2.595c-0.272-0.83-0.515-1.566-0.679-2.272
		c-0.306-1.419-0.426-2.579-0.485-3.373c-0.057-0.796-0.049-1.238-0.049-1.238s0.438-0.006,1.258-0.018
		c0.796-0.002,1.917,0.016,3.216,0.066c1.363-0.057,2.839,0.046,4.457-0.071c0.819-0.083,1.586-0.032,2.42-0.157
		c0.828-0.134,1.621-0.188,2.41-0.331c1.584-0.323,3.048-0.669,4.363-1.221c1.309-0.472,2.47-1.104,3.638-1.696
		c1.153-0.565,2.378-1.256,3.773-1.908c0.354-0.198,0.69-0.286,1.074-0.504c0.372-0.2,0.755-0.365,1.14-0.525
		c0.8-0.415,1.605-0.732,2.491-1.154c0.858-0.365,1.799-0.803,2.735-1.17c0.963-0.448,1.938-0.798,2.971-1.229
		c2.032-0.802,4.221-1.596,6.48-2.285c2.24-0.686,4.615-1.304,6.939-1.749c2.308-0.441,4.574-0.734,6.795-0.847
		c0.616,2.855,1.391,5.453,2.24,7.82c0.164-0.155,0.314-0.302,0.484-0.459c0.694-0.616,1.425-1.264,2.192-1.944
		c0.779-0.634,1.595-1.31,2.467-1.951c1.739-1.312,3.673-2.621,5.849-3.85c4.347-2.487,9.676-4.718,16.444-5.968
		c3.383-0.61,7.127-0.935,11.238-0.835c4.094,0.148,8.576,0.674,13.221,1.942c2.337,0.593,4.682,1.413,7.057,2.343
		c2.36,0.967,4.713,2.1,7.029,3.373c4.606,2.601,9.053,5.72,13.094,9.192c4.026,3.494,7.614,7.328,10.774,11.26
		c3.144,3.947,5.811,8.03,8.166,12.082c2.319,4.065,4.26,8.147,5.979,12.162c0.449,1.008,0.81,2.011,1.214,3.017l0.736,2.072
		l0.187,0.621l0.281,0.793l0.581,1.61c1.579,4.302,3.486,8.561,5.586,12.564c2.084,4.024,4.414,7.741,6.816,11.149
		c1.215,1.684,2.459,3.293,3.725,4.815c1.257,1.539,2.568,2.967,3.928,4.25c2.661,2.722,5.534,4.905,8.524,6.862
		c0.75,0.474,1.511,0.912,2.277,1.322c0.764,0.438,1.535,0.859,2.31,1.237c1.552,0.769,3.113,1.368,4.659,1.985
		c3.085,1.134,6.09,1.933,8.681,2.468c1.303,0.297,2.497,0.506,3.556,0.674c1.069,0.208,1.989,0.319,2.75,0.436
		c1.55,0.225,2.377,0.345,2.377,0.345l3.743,0.544C248.803,163.989,251.249,166.357,251.973,169.313z M508.845,139.463
		c-0.794-4.583-2.239-9.055-4.238-13.105c-1.969-4.074-4.427-7.763-7.109-11.063c-1.349-1.645-2.755-3.196-4.198-4.666
		c-1.105-1.128-2.29-2.316-3.452-3.445c-2.094-2.088-4.18-4.169-6.249-6.232c-4.15-4.151-8.041-8.213-11.541-12.197
		c-1.715-1.998-3.376-3.984-4.792-5.981c-0.773-0.993-1.383-1.995-2.063-3c-0.588-1.007-1.221-2.018-1.713-3.035
		c-2.155-4.052-3.328-8.259-3.581-12.453c-0.119-2.09-0.096-4.175,0.206-6.165c0.099-1.003,0.31-1.977,0.481-2.937
		c0.213-0.951,0.449-1.879,0.686-2.783c1.02-3.602,2.284-6.748,3.362-9.357c1.103-2.6,2.018-4.675,2.646-6.095
		c0.651-1.406,0.97-2.186,0.97-2.186l0.01-0.024c0.148-0.365,0.097-0.798-0.171-1.124c-0.39-0.473-1.089-0.541-1.562-0.152
		c0,0-0.654,0.539-1.828,1.606c-1.182,1.063-2.873,2.668-4.891,4.881c-2.012,2.221-4.309,5.083-6.647,8.735
		c-2.299,3.662-4.699,8.149-6.408,13.702c-0.884,2.768-1.42,5.808-1.773,9.015c-0.358,3.216-0.328,6.595-0.003,10.021
		c0.654,6.877,2.635,13.844,5.529,20.356c2.899,6.514,6.678,12.629,10.952,18.254c1.092,1.381,2.173,2.758,3.329,4.129l1.788,2.049
		l0.903,1.021l0.456,0.507l0.418,0.448c1.117,1.209,2.232,2.348,3.4,3.577c0.848,0.87,1.643,1.752,2.37,2.643
		c2.932,3.567,4.821,7.134,5.664,10.615c0.873,3.477,0.813,7.108-0.239,10.931c-1.012,3.81-3.057,7.63-5.546,11.02
		c-1.259,1.687-2.651,3.249-4.084,4.689c-1.443,1.43-2.959,2.693-4.457,3.839c-3.028,2.246-6.06,3.814-8.754,4.757
		c-1.765,0.606-3.369,0.94-4.818,1.094c3.891,5.137,7.065,10.731,9.421,16.641c4.509-0.256,9.302-1.293,14.076-3.182
		c2.872-1.109,5.722-2.554,8.537-4.28c2.832-1.708,5.582-3.764,8.217-6.151c1.332-1.178,2.61-2.465,3.877-3.811
		c1.237-1.374,2.451-2.817,3.595-4.367c2.289-3.093,4.362-6.559,6.004-10.419c1.668-3.837,2.873-8.091,3.479-12.56
		C509.68,148.752,509.641,144.049,508.845,139.463z"/>
</g>
<g id="Layer_4">
	<path fill="#AF773F" d="M466.049,222.153c0-1.248-0.037-2.435-0.102-3.575c-0.002-0.042-0.005-0.084-0.008-0.126
		c-0.056-0.946-0.134-1.856-0.233-2.73c-3.654-36.126-37.675-66.099-79.125-66.099c-79.494,0-114.374,20.293-143.957,20.293
		c-28.108,0-77.916-24.235-82.814-47.135c-0.099-1.184-0.227-2.359-0.394-3.523c0-0.023-0.002-0.046-0.002-0.068l-0.005,0.008
		c-3.813-26.41-24.716-47.287-51.138-51.055c-4.305-12.572-14.659-22.659-17.194-24.971c-0.123-0.097-0.232-0.198-0.352-0.308
		c-0.076-0.056-0.268-0.233-0.268-0.233l-0.032-0.002c-3.314-2.794-7.038-4.481-9.456-5.377c-1.449-0.537-3.044,0.265-3.506,1.74
		c-0.572,1.822-1.244,4.431-1.486,7.216l-0.014,0.004c0.002,0.044,0.013,0.074-0.001,0.099c-0.19,2.468-0.138,5.308,0.392,8.498
		c0.659,6.234,2.122,11.558,3.821,15.961c-23.764,8.112-40.862,30.615-40.862,57.126c-1.417,7.589-16.014,21.543-28.04,34.065
		l0.005,0.001c-4.862,4.074-7.958,10.186-7.958,17.026c0,11.612,8.915,21.128,20.271,22.112c0.593,0.064,1.238,0.098,1.939,0.098
		c0.74,0,1.495-0.042,2.259-0.114c0.016-0.002,0.033-0.005,0.049-0.006c11.514-1.099,25.624-10.008,38.095-18.32
		c3.286-2.19,7.206-3.168,11.146-2.883c2.252,0.162,4.568,0.096,6.927-0.231c1.575-0.218,3.109-0.563,4.604-1
		c1.823-0.61,3.457-1.245,4.923-1.881c1.586-0.761,3.106-1.639,4.539-2.635c0.021,0.134,0.05,0.264,0.072,0.398
		c6.854-3.662,9.114-6.224,14.08-2.026c7.598,6.424,6.555,11.339,4.509,30.464c0.059,0.031,0.115,0.068,0.174,0.099
		c-0.222,1.971-0.487,4.056-0.759,6.291c-0.04,0.147-0.074,0.297-0.113,0.444c-0.489,5.049-0.987,10.885-1.406,17.729
		c-0.118,1.921-0.304,3.705-0.55,5.363c1.61,18.145,10.468,34.195,23.649,45.268c11.945,16.346,14.579,34.768-4.983,54.33
		c-21.867,21.867-35.928,41.133-16.467,65.783c22.164,31.231,9.022,27.99,37.897,52.999c27.535,23.848,60.972-21.283,29.179-27.633
		c-18.032-3.602-29.243-10.546-42.176-22.491c-21.898-22.041,7.342-27.087,43.517-63.262c8.927-8.927,16.18-15.478,22.047-21.277
		c0.06,0,0.12,0.009,0.181,0.009c91.519,0,110.266-44.17,148.677-29.049c-15.259,13.468-20.675,41.729-14.483,65.981l-0.617-0.419
		c0.315,0.525,0.607,1.019,0.91,1.528c2.191,8.072,5.682,15.659,10.542,22.06c1.775,9.773-7.525,10.614-29.855,10.614
		c-17.656,0-29.106,11.393-36.039,22.322c-4.582,6.513-7.197,16.079-7.597,35.316c-0.615,29.6,45.736,27.081,38.005,2.026
		c-5.965-19.332-8.362-30.332,4.868-36.803c3.923-1.268,8.666-2.043,14.454-2.043c33.339,0,73.133-1.721,39.356-37.067
		c-21.65-22.656,9.891-39.93,43.723-56.278c0.401-0.194,0.788-0.396,1.184-0.592c1.977-0.834,3.901-1.873,5.771-3.088
		C452.539,295.728,466.049,271.197,466.049,222.153z"/>
</g>
<g id="Layer_5">
	<path fill="#D9DBD5" d="M261.87,427.053c-10.692,16.608-38.054-16.079-29.807-25.856c2.726-3.231,12.05-14.659,14.234-17.233
		c4.658,11.365,22.022,21.811,22.022,25.1C268.319,417.561,262.651,425.84,261.87,427.053z M20.987,151.948
		c-3.226,3.343-6.558,6.727-9.714,10.014l0.005,0.001c-4.862,4.074-7.958,10.186-7.958,17.026c0,11.612,8.915,21.128,20.271,22.112
		c0.593,0.064,1.238,0.098,1.939,0.098c0.74,0,1.495-0.043,2.259-0.114c0.016-0.002,0.033-0.005,0.049-0.006
		c10.048-0.959,22.072-7.869,33.26-15.137C56.657,169.859,36.941,152.149,20.987,151.948z M176.015,422.043
		c-6.253,11.321-12.828,21.767-23.24,28.282c2.907,1.717,13.366,10.661,17.012,12.801c11.031,6.473,42.276-28.641,20.739-38.896
		C189.223,423.61,177.35,422.253,176.015,422.043z M87.762,375.213c-9.097,8.087-16.547,14.892-28.093,17.178
		c1.174,4.067,7.579,14.683,10.331,17.889c8.328,9.7,46.169-9.536,29.213-26.315C98.187,382.949,88.937,375.867,87.762,375.213z
		 M315.25,442.988c-12.911-0.773-26.937-2.749-37.298-9.345c-0.299,3.363-1.322,18.076-1.684,22.288
		c-1.096,12.743,44.101,20.83,43.253,1.096C319.458,455.586,315.635,444.284,315.25,442.988z"/>
</g>
<g id="Layer_6">
	<path fill="#2B3B47" d="M75.116,104.403c4.38-0.318,8.188,2.974,8.507,7.354l0.997,13.713c0.318,4.38-2.974,8.188-7.354,8.507l0,0
		c-4.38,0.318-8.188-2.974-8.507-7.354l-0.997-13.713C67.444,108.53,70.736,104.721,75.116,104.403L75.116,104.403z M28.626,169.984
		c-2.296,0.167-4.022,2.163-3.855,4.459l0.523,7.189c0.167,2.296,2.163,4.022,4.459,3.855l0,0c2.296-0.167,4.022-2.163,3.855-4.459
		l-0.523-7.189C32.918,171.543,30.922,169.817,28.626,169.984L28.626,169.984z"/>
</g>
<g id="Layer_7">
	<path fill="#AF773F" d="M70.054,75.313l1.52,0.581c1.011,0.381,2.173,0.347,3.206-0.193c1.404-0.733,2.17-2.197,2.096-3.682
		C74.525,72.98,72.245,74.076,70.054,75.313z"/>
</g>
<g id="Layer_8">
	<path fill="#AF773F" d="M50.194,60.741c0.414,1.349,1.052,2.514,1.679,3.575c0.689,1.038,1.382,1.966,2.148,2.739
		c0.167,0.19,0.339,0.363,0.515,0.531c0.873-0.39,1.757-0.72,2.69-1.109c2.032-0.802,4.221-1.596,6.48-2.285
		c2.23-0.683,4.594-1.298,6.908-1.743c-0.118-0.109-0.232-0.22-0.351-0.329c-0.698-0.621-1.417-1.258-2.142-1.802
		c-0.726-0.559-1.425-1.112-2.113-1.606c-0.693-0.505-1.346-0.987-1.932-1.444c-0.613-0.453-1.173-0.884-1.645-1.294
		c-0.469-0.417-0.945-0.806-1.293-1.215c-0.353-0.412-0.712-0.847-0.947-1.345c-0.268-0.496-0.404-1.048-0.502-1.612
		c-0.06-0.558-0.102-1.137-0.077-1.671c0.002-0.538,0.103-1.014,0.146-1.427c0.165-0.835,0.259-1.312,0.259-1.312
		c0.027-0.139,0.037-0.292,0.023-0.44c-0.076-0.86-0.835-1.496-1.695-1.419l-0.555,0.049c0,0-0.184,0.016-0.5,0.084
		c-0.304,0.078-0.799,0.164-1.355,0.369c-0.545,0.229-1.219,0.508-1.909,0.99c-0.352,0.239-0.705,0.507-1.073,0.83
		c-0.355,0.335-0.709,0.704-1.069,1.127c-0.675,0.869-1.341,1.945-1.775,3.244c-0.456,1.286-0.687,2.767-0.656,4.246
		c-0.015,0.753,0.094,1.473,0.213,2.2C49.786,59.375,49.953,60.102,50.194,60.741z"/>
</g>
</svg>
