<?xml version="1.0" encoding="utf-8"?>
<!-- Generator: Adobe Illustrator 18.0.0, SVG Export Plug-In . SVG Version: 6.00 Build 0)  -->
<!DOCTYPE svg PUBLIC "-//W3C//DTD SVG 1.1 Tiny//EN" "http://www.w3.org/Graphics/SVG/1.1/DTD/svg11-tiny.dtd">
<svg version="1.1" baseProfile="tiny" id="Layer_1" xmlns="http://www.w3.org/2000/svg" xmlns:xlink="http://www.w3.org/1999/xlink"
	 x="0px" y="0px" width="512.4px" height="511.9px" viewBox="0 0 512.4 511.9" xml:space="preserve">
<path fill="#597B91" d="M32,100.6h432.3c17.7,0,32,14.3,32,32v310.8c0,17.7-14.3,32-32,32H48c-17.7,0-32-14.3-32-32V132.6
	C16,114.9,14.3,100.6,32,100.6z"/>
<path fill="#2B3B47" d="M480.3,100.6H336.2V75.6c0-17.7-14.3-32-32-32h-96.1c-17.7,0-32,14.3-32,32v24.9H32c-17.7,0-32,14.3-32,32
	v118.7c0,17.7,14.3,32,32,32h448.3c17.7,0,32-14.3,32-32V132.6C512.4,114.9,498,100.6,480.3,100.6z M208.1,91.7c0-8.8,7.2-16,16-16
	h64c8.9,0,16,7.2,16,16v8.9h-96.1V91.7z"/>
<path fill="#FFD469" d="M96.1,384.5c0,1.9,0.4,3.8,1.1,5.5c3.3,7.7,13.4,29.3,23.4,29.3c9.8,0,19.4-21.8,22.5-29.4
	c0.7-1.7,1-3.5,1-5.3V106.8c0-7.8-6.4-14.2-14.2-14.2h-19.6c-7.8,0-14.2,6.4-14.2,14.2V384.5z M368.3,106.8v277.8
	c0,1.9,0.4,3.8,1.1,5.5c3.3,7.7,13.4,29.3,23.4,29.3c9.8,0,19.4-21.8,22.5-29.4c0.7-1.7,1-3.5,1-5.3V106.8c0-7.8-6.4-14.2-14.2-14.2
	h-19.6C374.6,92.5,368.3,98.9,368.3,106.8z"/>
<path fill="#EDECE6" d="M95.8,363.3h48.6c8.7,0,15.7-7,15.7-15.7V331c0-8.7-7-15.7-15.7-15.7H95.8c-8.7,0-15.7,7-15.7,15.7v16.6
	C80.1,356.3,87.1,363.3,95.8,363.3z M352.3,331v16.6c0,8.7,7,15.7,15.7,15.7h48.6c8.7,0,15.7-7,15.7-15.7V331
	c0-8.7-7-15.7-15.7-15.7H368C359.3,315.3,352.3,322.3,352.3,331z"/>
</svg>
