<svg xmlns="http://www.w3.org/2000/svg" viewBox="0 0 72 72" enable-background="new 0 0 72 72"><path fill="#2B3B47" d="M26.616 40.212h-.006c0 .006.006.01.006.012 0 1.682-1.365 3.047-3.047 3.047s-3.05-1.363-3.05-3.045v-.012h-.012l.036-4.284c.136-1.56 1.427-2.79 3.023-2.79 1.59 0 2.882 1.23 3.016 2.79l.03 4.283zM51.07 35.93c-.135-1.56-1.428-2.79-3.024-2.79-1.59 0-2.883 1.23-3.017 2.79l-.04 4.283h.014v.012c0 1.682 1.365 3.047 3.04 3.047 1.683 0 3.048-1.365 3.048-3.047v-.012l-.024-4.284zM35.63 50.446c1.25-.05 2.532.602 3.487 1.663-.797 2.05-2.082 3.292-3.442 3.293-1.36 0-2.646-1.245-3.443-3.294.923-1.028 2.156-1.64 3.398-1.664z"/></svg>