<svg xmlns="http://www.w3.org/2000/svg" viewBox="0 0 512 512" enable-background="new 0 0 512 512"><path fill="#2B3B47" d="M152.84 311.56c13.07 0 23.683 10.59 23.683 23.703v29.1c0 13.09-10.613 23.705-23.682 23.705-13.09 0-23.7-10.615-23.7-23.705v-29.1c0-13.112 10.61-23.702 23.7-23.702zm190.718 0c-13.09 0-23.66 10.59-23.66 23.703v29.1c0 13.09 10.57 23.705 23.66 23.705s23.682-10.615 23.682-23.705v-29.1c0-13.112-10.592-23.702-23.682-23.702zm-65.687 97.32c-2.173-2.622-6.06-2.982-8.68-.81-3.198 2.65-14.007 10.218-21.47 10.218-7.31 0-16.905-7.243-19.986-10.034-2.516-2.287-6.41-2.105-8.704.408-2.295 2.517-2.115 6.417.402 8.71 1.276 1.164 11.345 10.077 22.624 12.587v21.353c0 3.405 2.76 6.166 6.166 6.166s6.166-2.76 6.166-6.167v-21.578c11.034-2.75 21.33-11.06 22.672-12.172 2.62-2.174 2.984-6.06.81-8.683z"/></svg>