<?xml version="1.0" encoding="iso-8859-1"?>
<!-- Generator: Adobe Illustrator 18.1.1, SVG Export Plug-In . SVG Version: 6.00 Build 0)  -->
<!DOCTYPE svg PUBLIC "-//W3C//DTD SVG 1.1//EN" "http://www.w3.org/Graphics/SVG/1.1/DTD/svg11.dtd">
<svg version="1.1" xmlns="http://www.w3.org/2000/svg" xmlns:xlink="http://www.w3.org/1999/xlink" x="0px" y="0px"
	 viewBox="0 0 512 512" enable-background="new 0 0 512 512" xml:space="preserve">
<g id="Layer_2">
	<path fill="#EDCE83" d="M446.93,303.162c-4.767-6.76-6.503-15.149-4.712-23.225c1.028-4.634,1.57-9.443,1.57-14.376
		c0-26.88-16.042-50.111-39.339-61.207c-5.232-2.492-9.655-6.421-12.498-11.47c-21.55-38.27-48.807-67.372-84.6-81.145
		c16.419-31.108,40.537-59.02,60.568-79.165C379.907,20.516,371.416,0,354.412,0H168.935c-16.949,0-25.422,20.37-13.582,32.498
		c18.479,18.928,39.89,45.296,54.169,76.837c-42.403,13.594-62.967,49.997-94.425,119.688c-3.236,7.169-9.285,12.663-16.707,15.268
		c-34.198,12.003-58.637,43.782-58.637,81.104c0,18.49,6.001,35.619,16.213,49.658c3.264,4.488,4.98,9.886,5.174,15.432
		c2.386,68.375,57.921,121.592,197.165,121.592c131.117,0,180.512-44.445,189.025-107.16c0.51-3.755,1.66-7.402,3.571-10.673
		c7.321-12.532,11.504-27.017,11.504-42.451C462.404,333.751,456.693,317.005,446.93,303.162z"/>
</g>
<g id="Layer_1">
</g>
</svg>
