<?xml version="1.0" encoding="iso-8859-1"?>
<!-- Generator: Adobe Illustrator 18.1.1, SVG Export Plug-In . SVG Version: 6.00 Build 0)  -->
<!DOCTYPE svg PUBLIC "-//W3C//DTD SVG 1.1//EN" "http://www.w3.org/Graphics/SVG/1.1/DTD/svg11.dtd">
<svg version="1.1" xmlns="http://www.w3.org/2000/svg" xmlns:xlink="http://www.w3.org/1999/xlink" x="0px" y="0px"
	 viewBox="0 0 512 512" enable-background="new 0 0 512 512" xml:space="preserve">
<g id="Layer_3">
	<path fill="#FF473E" d="M320.185,187.858c0,0-0.514,2.43-1.478,6.985c-0.296,1.261-0.627,2.67-0.992,4.22
		c-0.189,0.773-0.386,1.581-0.592,2.424c-0.221,0.808-0.452,1.65-0.691,2.524c-0.93,3.501-2.107,7.503-3.585,11.938
		c-2.965,8.864-7.11,19.498-13.325,31.102c-6.211,11.576-14.423,24.208-25.971,36.369c-5.829,6.043-12.574,11.909-20.623,17.039
		c-4.026,2.553-8.489,4.815-13.299,6.662c-4.8,1.857-10.085,3.222-15.656,3.689c-1.37,0.192-2.801,0.165-4.209,0.209
		c-1.408,0.067-2.836-0.038-4.263-0.147c-0.713-0.056-1.426-0.099-2.138-0.176l-2.129-0.345l-2.127-0.369
		c0.421,0.088-0.878-0.172-0.809-0.166l-0.196-0.053l-0.392-0.107l-0.786-0.214l-1.575-0.428l-0.41-0.115l-0.577-0.192l-1.154-0.385
		c-1.515-0.52-3.16-1.075-4.375-1.682c-2.653-1.139-5.173-2.518-7.595-4.013c-4.825-3.019-9.197-6.611-12.939-10.624
		c-3.786-3.986-7.025-8.338-9.932-12.839c-5.766-9.035-9.979-18.766-13.323-28.746c-3.295-9.998-5.671-20.302-7.124-30.754
		c-0.776-5.228-1.271-10.486-1.619-15.771c-0.266-5.277-0.423-10.582-0.272-15.876l0.101-3.975l0.229-3.967
		c0.12-2.652,0.38-5.286,0.633-7.926c0.234-2.643,0.593-5.266,0.928-7.897c0.163-1.316,0.398-2.619,0.594-3.929l0.666-4.172
		l0.701-3.627l0.35-1.813c0.113-0.596,0.23-1.201,0.388-1.898l0.886-4.023c0.294-1.35,0.59-2.684,0.934-3.948
		c0.667-2.569,1.303-5.142,2.064-7.687l1.101-3.824l1.226-3.789c3.275-10.097,7.303-19.954,12.144-29.409
		c2.366-4.745,5.053-9.35,7.816-13.878c2.871-4.488,5.837-8.896,9.113-13.124c6.508-8.464,13.915-16.364,22.66-23.116
		c4.379-3.372,9.093-6.45,14.235-9.011c5.129-2.554,10.746-4.568,16.678-5.71c5.925-1.123,12.184-1.334,18.211-0.393l1.129,0.171
		l0.563,0.088l0.281,0.045c-0.029-0.006,1.446,0.302,0.906,0.191l1.573,0.395l1.57,0.384c0.718,0.205,1.612,0.494,2.404,0.752
		l2.429,0.831c0.426,0.142,0.767,0.29,1.096,0.439l1.012,0.449c1.335,0.616,2.714,1.175,3.946,1.914
		c5.103,2.753,9.578,6.128,13.314,9.815c3.734,3.691,6.997,7.547,9.72,11.5c2.703,3.951,5.156,7.907,7.152,11.878
		c2.119,3.943,3.806,7.894,5.453,11.761c3.118,7.764,5.492,15.3,7.348,22.52c1.875,7.219,3.191,14.127,4.099,20.637
		c0.257,1.629,0.454,3.231,0.632,4.808c0.173,1.576,0.398,3.132,0.516,4.655c0.245,3.048,0.511,5.995,0.606,8.819
		c0.292,5.659,0.225,10.844,0.091,15.523c-0.368,9.353-1.305,16.633-2.024,21.575c-0.828,4.922-1.27,7.547-1.27,7.547
		L320.185,187.858z M280.883,180.421c0,0,0.369-2.234,1.06-6.421c0.605-4.196,1.558-10.343,2.366-18.194
		c0.807-7.842,1.624-17.404,1.651-28.326c0.008-5.461-0.235-11.256-0.894-17.267c-0.667-6.005-1.762-12.242-3.583-18.411
		c-1.826-6.136-4.406-12.223-7.858-17.535c-1.732-2.653-3.693-5.038-5.818-7.113c-2.116-2.087-4.389-3.791-6.78-4.978
		c-0.578-0.369-1.204-0.544-1.801-0.824l-0.45-0.199c-0.156-0.074-0.304-0.14-0.392-0.15c-0.209-0.054-0.414-0.117-0.616-0.191
		c-0.227-0.075-0.344-0.154-0.656-0.257l-1.579-0.348l-1.586-0.339c-0.672-0.138,0.686,0.137,0.509,0.109l-0.121-0.009l-0.243-0.019
		l-0.484-0.044c-2.57-0.286-5.224-0.13-7.994,0.576c-5.559,1.283-11.47,5.011-17.007,9.924c-5.519,5.008-10.593,11.36-15.106,18.363
		c-4.508,7.03-8.472,14.732-11.938,22.807c-1.774,4.014-3.33,8.176-4.888,12.346c-1.454,4.221-2.919,8.456-4.168,12.79l-0.954,3.244
		l-0.894,3.271c-0.625,2.172-1.135,4.383-1.68,6.584c-0.282,1.116-0.533,2.182-0.765,3.236l-0.728,3.184
		c-0.123,0.502-0.244,1.105-0.363,1.719l-0.361,1.811l-0.721,3.623l-0.563,3.113c-0.195,1.121-0.429,2.238-0.593,3.362
		c-0.314,2.25-0.771,4.486-1.051,6.738c-0.625,4.497-1.237,8.998-1.65,13.498c-0.907,8.998-1.393,17.992-1.306,26.87
		c0.018,4.449,0.277,8.838,0.602,13.204c0.418,4.334,0.919,8.649,1.705,12.834c0.775,4.181,1.703,8.311,2.976,12.208
		c1.247,3.902,2.623,7.732,4.397,11.185c3.468,6.923,7.91,12.99,13.268,16.508c1.338,0.865,2.711,1.612,4.122,2.15
		c0.761,0.369,1.237,0.401,1.785,0.599l0.398,0.136l0.198,0.069l0.384,0.077l1.603,0.31l0.8,0.155l0.399,0.077l0.2,0.039
		c0.199,0.044-0.963-0.212-0.409-0.102l1.088,0.059l1.075,0.081c0.361-0.002,0.723-0.031,1.081-0.04
		c0.716-0.02,1.426-0.011,2.144-0.145c0.716-0.112,1.419-0.118,2.134-0.324c5.683-1.074,11.227-4.308,16.175-8.329
		c2.466-2.071,4.836-4.254,6.975-6.726c2.187-2.381,4.174-4.977,6.079-7.537c3.75-5.225,6.935-10.67,9.69-16.033
		c0.671-1.358,1.369-2.665,1.996-4.004c0.622-1.34,1.235-2.662,1.84-3.965c0.566-1.327,1.124-2.636,1.674-3.924
		c0.549-1.286,1.036-2.591,1.553-3.846c1.987-5.074,3.714-9.892,5.12-14.429c1.479-4.504,2.621-8.729,3.665-12.533
		c0.981-3.827,1.843-7.248,2.497-10.254c0.17-0.749,0.334-1.47,0.491-2.162c0.133-0.667,0.261-1.307,0.383-1.919
		c0.256-1.219,0.489-2.327,0.697-3.318c0.83-4.505,1.272-6.907,1.272-6.907L280.883,180.421z"/>
</g>
<g id="Layer_1">
</g>
</svg>
