<?xml version="1.0" encoding="iso-8859-1"?>
<!-- Generator: Adobe Illustrator 18.1.1, SVG Export Plug-In . SVG Version: 6.00 Build 0)  -->
<!DOCTYPE svg PUBLIC "-//W3C//DTD SVG 1.1//EN" "http://www.w3.org/Graphics/SVG/1.1/DTD/svg11.dtd">
<svg version="1.1" xmlns="http://www.w3.org/2000/svg" xmlns:xlink="http://www.w3.org/1999/xlink" x="0px" y="0px"
	 viewBox="0 0 512 512" enable-background="new 0 0 512 512" xml:space="preserve">
<g id="Layer_2">
	<path fill="#DCE2E2" d="M407.635,3.717H52.248c-11.929,0-21.6,9.671-21.6,21.6v404.66l0.02,0.02
		c0.428,42.927,35.343,77.598,78.371,77.598h298.596c11.929,0,21.6-9.671,21.6-21.6V25.317
		C429.235,13.387,419.565,3.717,407.635,3.717z"/>
</g>
<g id="Layer_3">
	<path fill="#96A9B2" d="M266.227,79.728H80.499c-4.365,0-7.904-3.539-7.904-7.904s3.539-7.904,7.904-7.904h185.728
		c4.365,0,7.904,3.539,7.904,7.904S270.592,79.728,266.227,79.728z M245.631,126.218c0-4.365-3.539-7.904-7.904-7.904H80.499
		c-4.365,0-7.904,3.539-7.904,7.904s3.539,7.904,7.904,7.904h157.229C242.093,134.122,245.631,130.583,245.631,126.218z
		 M368.901,180.612c0-4.365-3.539-7.904-7.904-7.904H80.499c-4.365,0-7.904,3.539-7.904,7.904s3.539,7.904,7.904,7.904h280.499
		C365.362,188.516,368.901,184.977,368.901,180.612z M351.299,235.005c0-4.365-3.539-7.904-7.904-7.904H80.499
		c-4.365,0-7.904,3.539-7.904,7.904s3.539,7.904,7.904,7.904h262.896C347.76,242.909,351.299,239.371,351.299,235.005z
		 M245.631,289.399c0-4.365-3.539-7.904-7.904-7.904H80.499c-4.365,0-7.904,3.539-7.904,7.904s3.539,7.904,7.904,7.904h157.229
		C242.093,297.304,245.631,293.765,245.631,289.399z M368.901,343.793c0-4.365-3.539-7.904-7.904-7.904H80.499
		c-4.365,0-7.904,3.539-7.904,7.904s3.539,7.904,7.904,7.904h280.499C365.362,351.697,368.901,348.158,368.901,343.793z
		 M368.901,398.187c0-4.365-3.539-7.904-7.904-7.904H80.499c-4.365,0-7.904,3.539-7.904,7.904s3.539,7.904,7.904,7.904h280.499
		C365.362,406.091,368.901,402.552,368.901,398.187z M368.901,452.58c0-4.365-3.539-7.904-7.904-7.904H80.499
		c-4.365,0-7.904,3.539-7.904,7.904s3.539,7.904,7.904,7.904h280.499C365.362,460.484,368.901,456.945,368.901,452.58z"/>
</g>
<g id="Layer_4">
	<path fill="#B9C5C6" d="M187.431,375v54.203c0,43.294-35.097,78.391-78.391,78.391h298.596l0.478-0.71
		c3.411,0.453,6.884,0.71,10.419,0.71c43.294,0,78.391-35.097,78.391-78.391V375H187.431z"/>
</g>
</svg>
