<?xml version="1.0" encoding="utf-8"?>
<!-- Generator: Adobe Illustrator 18.1.0, SVG Export Plug-In . SVG Version: 6.00 Build 0)  -->
<!DOCTYPE svg PUBLIC "-//W3C//DTD SVG 1.0//EN" "http://www.w3.org/TR/2001/REC-SVG-20010904/DTD/svg10.dtd">
<svg version="1.0" id="Layer_1" xmlns="http://www.w3.org/2000/svg" xmlns:xlink="http://www.w3.org/1999/xlink" x="0px" y="0px"
	 width="72px" height="72px" viewBox="0 0 72 72" enable-background="new 0 0 72 72" xml:space="preserve">
<path fill="#2B3B47" d="M61.5,12.2c0.4,0.8,0.6,1.7,0.5,2.6c-0.1-0.9-0.5-1.6-1-2.3c-0.5-0.7-1-1.3-1.6-1.9
	c-0.2-0.2-0.4-0.3-0.7-0.5c-0.4-0.1-0.7-0.3-1-0.6c-0.1,0-0.2-0.1-0.4-0.1C57,9.2,56.5,9.1,56.1,9L56,9l0,0l0,0l-0.1,0l-0.3,0
	l-0.6,0l0,0l-0.6,0c-0.2,0-0.4,0-0.6,0.1c-0.4,0.1-0.8,0.2-1.2,0.3c0,0-0.1,0-0.1,0c-0.3,0.4-0.8,0.6-1.3,0.7
	c-0.2,0.1-0.4,0.3-0.6,0.5c-0.6,0.5-1.2,1.2-1.6,1.9c-0.5,0.7-0.8,1.5-1,2.3c-0.1-0.9,0.2-1.8,0.5-2.6c0.4-0.8,0.9-1.6,1.5-2.2
	c0,0,0,0,0.1,0c0,0,0,0-0.1,0c-0.2-0.1-0.3-0.2-0.4-0.3c0,0-0.6-0.5-1-1.3c-0.5-0.8-0.8-1.9-0.9-3.1c-0.1-1.2,0.1-2.4,0.5-3.4
	c0.3-1,0.9-1.7,0.9-1.7s0.8,0.4,1.5,1.1c0.8,0.7,1.5,1.7,2,2.8c0.5,1.1,0.7,2.2,0.6,3.1c0,0.4-0.1,0.7-0.1,1
	c0.2-0.1,0.3-0.1,0.5-0.2C53.8,8,54.1,8,54.3,8l0.2,0V7.9l0.5,0l0.7,0L56,8l0.1,0l0.1,0l0.1,0l0.2,0c0.2,0.1,0.5,0.1,0.7,0.2
	c-0.1-0.3-0.1-0.6-0.2-1c-0.1-0.9,0.1-2.1,0.6-3.1C58,3,58.7,2,59.5,1.3c0.7-0.7,1.5-1.1,1.5-1.1s0.5,0.7,0.9,1.7
	c0.4,1,0.6,2.2,0.5,3.4c-0.1,1.2-0.4,2.3-0.9,3.1c-0.5,0.8-1,1.3-1,1.3c-0.2,0.1-0.4,0.3-0.6,0.3c0,0,0,0,0,0
	C60.6,10.6,61.1,11.4,61.5,12.2z M28.1,10C28.1,10,28.1,10,28.1,10c0.2-0.1,0.4-0.2,0.6-0.3c0,0,0.6-0.5,1-1.3
	c0.5-0.8,0.8-1.9,0.9-3.1c0.1-1.2-0.1-2.4-0.5-3.4c-0.3-1-0.9-1.7-0.9-1.7s-0.8,0.4-1.5,1.1c-0.8,0.7-1.5,1.7-2,2.8
	C25.2,5.2,25,6.3,25,7.3c0,0.4,0.1,0.7,0.2,1c-0.2-0.1-0.4-0.1-0.7-0.2l-0.2,0l-0.1,0l-0.1,0l-0.1,0l-0.3,0l-0.7,0l-0.5,0V8l-0.2,0
	c-0.2,0-0.4,0-0.7,0.1c-0.2,0-0.3,0.1-0.5,0.2c0.1-0.3,0.1-0.6,0.1-1c0.1-0.9-0.1-2.1-0.6-3.1c-0.5-1.1-1.2-2.1-2-2.8
	c-0.7-0.7-1.5-1.1-1.5-1.1s-0.5,0.7-0.9,1.7c-0.4,1-0.6,2.2-0.5,3.4c0.1,1.2,0.4,2.3,0.9,3.1c0.5,0.8,1,1.3,1,1.3
	c0.1,0.1,0.3,0.2,0.4,0.3c0,0,0,0,0.1,0c0,0,0,0-0.1,0c-0.6,0.7-1.1,1.4-1.5,2.2c-0.4,0.8-0.6,1.7-0.5,2.6c0.1-0.9,0.5-1.6,1-2.3
	c0.5-0.7,1-1.3,1.6-1.9c0.2-0.2,0.4-0.3,0.6-0.5c0.5-0.1,1-0.3,1.3-0.7c0,0,0.1,0,0.1,0c0.4-0.1,0.8-0.2,1.2-0.3
	c0.2,0,0.4,0,0.6-0.1l0.6,0l0,0l0.6,0L24,9l0.1,0l0,0l0,0l0.1,0c0.4,0.1,0.8,0.2,1.2,0.3c0.1,0,0.2,0.1,0.4,0.1
	c0.3,0.3,0.6,0.5,1,0.6c0.2,0.2,0.5,0.3,0.7,0.5c0.6,0.5,1.2,1.2,1.6,1.9c0.5,0.7,0.8,1.5,1,2.3c0.1-0.9-0.2-1.8-0.5-2.6
	C29.2,11.4,28.7,10.6,28.1,10z"/>
</svg>
