<?xml version="1.0" encoding="utf-8"?>
<!-- Generator: Adobe Illustrator 18.1.0, SVG Export Plug-In . SVG Version: 6.00 Build 0)  -->
<!DOCTYPE svg PUBLIC "-//W3C//DTD SVG 1.0//EN" "http://www.w3.org/TR/2001/REC-SVG-20010904/DTD/svg10.dtd">
<svg version="1.0" id="Layer_1" xmlns="http://www.w3.org/2000/svg" xmlns:xlink="http://www.w3.org/1999/xlink" x="0px" y="0px"
	 width="72px" height="72px" viewBox="0 0 72 72" enable-background="new 0 0 72 72" xml:space="preserve">
<path fill="#EDC0A2" d="M29.4,14.8l0,0.3c0,3.7-3,6.7-6.7,6.7c-1.9,0-3.5-0.8-4.8-2c1.2,0.8,2.6,1.3,4.2,1.3
	C25.8,21.2,28.9,18.4,29.4,14.8z M49.7,21c-1.6,0-3.1-0.5-4.4-1.3c1.3,1.3,3.1,2.1,5,2.1c3.9,0,7.1-3.2,7.1-7.1l0-0.4
	C57,18.1,53.7,21,49.7,21z"/>
</svg>
