<?xml version="1.0" encoding="utf-8"?>
<!-- Generator: Adobe Illustrator 18.0.0, SVG Export Plug-In . SVG Version: 6.00 Build 0)  -->
<!DOCTYPE svg PUBLIC "-//W3C//DTD SVG 1.1 Tiny//EN" "http://www.w3.org/Graphics/SVG/1.1/DTD/svg11-tiny.dtd">
<svg version="1.1" baseProfile="tiny" id="Layer_1" xmlns="http://www.w3.org/2000/svg" xmlns:xlink="http://www.w3.org/1999/xlink"
	 x="0px" y="0px" width="511.9px" height="511.9px" viewBox="0 0 511.9 511.9" xml:space="preserve">
<path fill="#D32A2A" d="M344.9,247.6c-3.3,0-6.5-1.8-8.1-5c-2.2-4.5-0.4-9.9,4.1-12.1l70.3-35c4.5-2.2,9.9-0.4,12.1,4.1
	c2.2,4.5,0.4,9.9-4.1,12.1l-70.3,35C347.6,247.3,346.2,247.6,344.9,247.6z"/>
<path fill="#D32A2A" d="M170.4,247.6c-1.4,0-2.7-0.3-4-0.9l-70.3-35c-4.5-2.2-6.3-7.6-4.1-12.1c2.2-4.5,7.6-6.3,12.1-4.1l70.3,35
	c4.5,2.2,6.3,7.6,4.1,12.1C176.9,245.7,173.7,247.6,170.4,247.6z"/>
<path fill="#D32A2A" d="M16.7,94.6c2,6.9,4.7,13.7,7.6,20.8c3.1,6.8,6.4,14.1,10.4,20.8c1.9,3.6,4.1,7.1,6.4,10.5
	c17.5-33.2,42.5-61.8,72.8-83.6c-3.9-0.3-8-0.7-12.1-1.6c-4.9-0.8-9.5-2.2-14.4-3.6c-4.6-1.6-9.5-3.3-13.7-5.4
	c-2.2-1.1-4.4-2.1-6.5-3.1c-2-1.2-4-2.3-5.9-3.4c-4.1-2.3-7.1-4.7-10.5-7.1c-2.9-2.4-5.7-4.8-8-7.1c-2-2.2-4.1-4.4-5.4-6.2
	c-2.5-3.8-4-6-4-6l-1.7-2.5c-1.2-1.9-3.1-3.4-5.5-4.1c-5.4-1.7-11.2,1.3-12.9,6.7c0,0-1.1,3.3-2.6,10c-0.6,3.2-1,7.1-1.5,11.8
	C9,46,9.1,51.1,9.4,56.8c0.6,5.4,1,11.9,2.4,18c0.6,3.1,1.3,6.5,2.1,9.8C14.8,87.9,15.8,91.2,16.7,94.6z"/>
<path fill="#D32A2A" d="M502.2,41.4c-0.5-4.7-0.8-8.6-1.5-11.8c-1.6-6.6-2.6-10-2.6-10c-0.7-2.2-2.1-4.1-4.1-5.5
	c-4.7-3.1-11.1-1.8-14.2,2.9l-1.7,2.5c0,0-1.4,2.2-4,6c-1.4,1.8-3.4,4-5.4,6.2c-2.3,2.2-5.1,4.7-8,7.1c-3.4,2.4-6.4,4.9-10.5,7.1
	c-1.9,1.1-3.9,2.2-5.9,3.4c-2.1,1-4.3,2.1-6.5,3.1c-4.3,2.1-9.2,3.8-13.7,5.4c-4.9,1.4-9.5,2.9-14.4,3.6c-4,0.9-8.2,1.3-12.1,1.6
	c12.6,9.1,24.3,19.5,35,30.8c23.1,37.8,36.4,82.2,36.4,129.7c0,137.8-111.7,249.5-249.6,249.5c-48,0-92.7-13.5-130.8-37
	c43.6,41.5,102.5,67,167.4,67c134.2,0,242.9-108.8,242.9-242.9c0-41.1-10.3-79.9-28.3-113.8c2.2-3.3,4.3-6.7,6.1-10.2
	c4-6.8,7.3-14,10.4-20.8c2.9-7.1,5.6-13.9,7.6-20.8c1-3.4,1.9-6.7,2.9-10c0.8-3.3,1.4-6.7,2.1-9.8c1.4-6.1,1.8-12.6,2.4-18
	C502.4,51.1,502.4,46,502.2,41.4z"/>
</svg>
