<?xml version="1.0" encoding="utf-8"?>
<!-- Generator: Adobe Illustrator 18.1.0, SVG Export Plug-In . SVG Version: 6.00 Build 0)  -->
<!DOCTYPE svg PUBLIC "-//W3C//DTD SVG 1.0//EN" "http://www.w3.org/TR/2001/REC-SVG-20010904/DTD/svg10.dtd">
<svg version="1.0" id="Layer_1" xmlns="http://www.w3.org/2000/svg" xmlns:xlink="http://www.w3.org/1999/xlink" x="0px" y="0px"
	 width="72px" height="72px" viewBox="0 0 72 72" enable-background="new 0 0 72 72" xml:space="preserve">
<path fill="#FF473E" d="M58.3,30c0-12.4-10-22.4-22.4-22.4c-12.4,0-22.4,10-22.4,22.4c0,0-3.4,42,23.1,42S58.3,30,58.3,30z
	 M31.8,48.8c0.3-0.8,1.1-1.2,1.9-0.9l2.1,0.7l2.6-0.7c0.8-0.2,1.6,0.2,1.8,1c0.2,0.8-0.2,1.6-1,1.8l-3,0.9c-0.1,0-0.3,0.1-0.4,0.1
	c0,0,0,0,0,0c0,0,0,0,0,0c0,0,0,0,0,0c-0.2,0-0.3,0-0.5-0.1l-2.6-0.9C31.9,50.4,31.5,49.5,31.8,48.8z M18.3,44.2
	C18.3,44.1,18.3,44.1,18.3,44.2L18.3,44.2l0-6h0c0.2-2.2,2-3.9,4.2-3.9c2.2,0,4,1.7,4.2,3.9h0v5.9v0c0,0,0,0,0,0
	c0,2.3-1.9,4.2-4.2,4.2C20.1,48.4,18.3,46.5,18.3,44.2z M49.7,58.9c-2.8,2.5-8,4.1-13.7,4.1c-5.7,0-10.9-1.5-13.7-4.1
	c-0.4-0.4-0.4-0.8,0-1.2c0.4-0.4,1.1-0.6,1.9-0.6h23.7c0.8,0,1.5,0.2,1.9,0.6C50.1,58.1,50.1,58.6,49.7,58.9z M53.3,44.1L53.3,44.1
	C53.3,44.1,53.3,44.1,53.3,44.1c0,2.3-1.9,4.2-4.2,4.2c-2.3,0-4.2-1.9-4.2-4.2c0,0,0,0,0,0h0v-5.9h0.1c0.2-2.2,2-3.9,4.2-3.9
	c2.2,0,4,1.7,4.2,3.9h0V44.1z"/>
</svg>
