<?xml version="1.0" encoding="iso-8859-1"?>
<!-- Generator: Adobe Illustrator 18.1.1, SVG Export Plug-In . SVG Version: 6.00 Build 0)  -->
<!DOCTYPE svg PUBLIC "-//W3C//DTD SVG 1.1//EN" "http://www.w3.org/Graphics/SVG/1.1/DTD/svg11.dtd">
<svg version="1.1" xmlns="http://www.w3.org/2000/svg" xmlns:xlink="http://www.w3.org/1999/xlink" x="0px" y="0px"
	 viewBox="0 0 512 512" enable-background="new 0 0 512 512" xml:space="preserve">
<g id="Layer_2">
	<path fill="#FF473E" d="M48.13,96.546l67.224-48.325c8.607-6.187,20.6-4.226,26.787,4.381c3.137,4.364,4.179,9.598,3.323,14.505
		l-0.658,3.697l0,0c-1.878,6.522-3.757,13.262-5.599,19.92l-5.461,20.077c-3.598,13.402-7.108,26.834-10.527,40.286l-5.061,20.193
		l-4.924,20.221c-1.62,6.745-3.206,13.495-4.773,20.249c-1.551,6.756-3.114,13.511-4.603,20.276c-1.517,6.762-2.975,13.53-4.43,20.3
		c-1.419,6.773-2.87,13.544-4.213,20.324c-1.385,6.777-2.69,13.561-3.994,20.345c-1.256,6.786-2.551,13.572-3.705,20.362
		c-1.212,6.79-2.303,13.58-3.408,20.372c-1.03,6.789-2.091,13.582-2.983,20.367c-0.476,3.394-0.932,6.787-1.324,10.175
		c-0.393,3.387-0.869,6.785-1.19,10.163c-0.342,3.38-0.727,6.769-1.035,10.144l-0.85,10.114l-0.032,0.378
		c-0.768,9.143-8.803,15.931-17.945,15.163c-9.024-0.758-15.753-8.614-15.188-17.609l0.685-10.775
		c0.254-3.584,0.584-7.141,0.874-10.714c0.27-3.579,0.69-7.108,1.03-10.664c0.34-3.556,0.742-7.092,1.164-10.622
		c0.787-7.079,1.739-14.104,2.662-21.141c0.995-7.013,1.979-14.032,3.079-21.013c1.046-6.999,2.228-13.956,3.373-20.926
		c1.191-6.955,2.384-13.91,3.655-20.842c1.231-6.944,2.566-13.856,3.871-20.779c1.339-6.912,2.683-13.823,4.084-20.717
		c1.374-6.902,2.82-13.783,4.255-20.668c1.45-6.88,2.92-13.755,4.422-20.62l4.572-20.579l4.71-20.542
		c3.185-13.683,6.462-27.342,9.83-40.984l5.122-20.455c1.744-6.837,3.478-13.585,5.324-20.521l0,0l29.451,22.583l-74.71,35.675
		c-6.33,3.023-13.911,0.342-16.934-5.988C41.39,106.695,43.226,100.065,48.13,96.546z"/>
</g>
<g id="Layer_3">
	<path fill="#FF473E" d="M320.185,187.858c0,0-0.514,2.43-1.478,6.985c-0.296,1.261-0.627,2.67-0.992,4.22
		c-0.189,0.773-0.386,1.581-0.592,2.424c-0.221,0.808-0.452,1.65-0.691,2.524c-0.93,3.501-2.107,7.503-3.585,11.938
		c-2.965,8.864-7.11,19.498-13.325,31.102c-6.211,11.576-14.423,24.208-25.971,36.369c-5.829,6.043-12.574,11.909-20.623,17.039
		c-4.026,2.553-8.489,4.815-13.299,6.662c-4.8,1.857-10.085,3.222-15.656,3.689c-1.37,0.192-2.801,0.165-4.209,0.209
		c-1.408,0.067-2.836-0.038-4.263-0.147c-0.713-0.056-1.426-0.099-2.138-0.176l-2.129-0.345l-2.127-0.369
		c0.421,0.088-0.878-0.172-0.809-0.166l-0.196-0.053l-0.392-0.107l-0.786-0.214l-1.575-0.428l-0.41-0.115l-0.577-0.192l-1.154-0.385
		c-1.515-0.52-3.16-1.075-4.375-1.682c-2.653-1.139-5.173-2.518-7.595-4.013c-4.825-3.019-9.197-6.611-12.939-10.624
		c-3.786-3.986-7.025-8.338-9.932-12.839c-5.766-9.035-9.979-18.766-13.323-28.746c-3.295-9.998-5.671-20.302-7.124-30.754
		c-0.776-5.228-1.271-10.486-1.619-15.771c-0.266-5.277-0.423-10.582-0.272-15.876l0.101-3.975l0.229-3.967
		c0.12-2.652,0.38-5.286,0.633-7.926c0.234-2.643,0.593-5.266,0.928-7.897c0.163-1.316,0.398-2.619,0.594-3.929l0.666-4.172
		l0.701-3.627l0.35-1.813c0.113-0.596,0.23-1.201,0.388-1.898l0.886-4.023c0.294-1.35,0.59-2.684,0.934-3.948
		c0.667-2.569,1.303-5.142,2.064-7.687l1.101-3.824l1.226-3.789c3.275-10.097,7.303-19.954,12.144-29.409
		c2.366-4.745,5.053-9.35,7.816-13.878c2.871-4.488,5.837-8.896,9.113-13.124c6.508-8.464,13.915-16.364,22.66-23.116
		c4.379-3.372,9.093-6.45,14.235-9.011c5.129-2.554,10.746-4.568,16.678-5.71c5.925-1.123,12.184-1.334,18.211-0.393l1.129,0.171
		l0.563,0.088l0.281,0.045c-0.029-0.006,1.446,0.302,0.906,0.191l1.573,0.395l1.57,0.384c0.718,0.205,1.612,0.494,2.404,0.752
		l2.429,0.831c0.426,0.142,0.767,0.29,1.096,0.439l1.012,0.449c1.335,0.616,2.714,1.175,3.946,1.914
		c5.103,2.753,9.578,6.128,13.314,9.815c3.734,3.691,6.997,7.547,9.72,11.5c2.703,3.951,5.156,7.907,7.152,11.878
		c2.119,3.943,3.806,7.894,5.453,11.761c3.118,7.764,5.492,15.3,7.348,22.52c1.875,7.219,3.191,14.127,4.099,20.637
		c0.257,1.629,0.454,3.231,0.632,4.808c0.173,1.576,0.398,3.132,0.516,4.655c0.245,3.048,0.511,5.995,0.606,8.819
		c0.292,5.659,0.225,10.844,0.091,15.523c-0.368,9.353-1.305,16.633-2.024,21.575c-0.828,4.922-1.27,7.547-1.27,7.547
		L320.185,187.858z M280.883,180.421c0,0,0.369-2.234,1.06-6.421c0.605-4.196,1.558-10.343,2.366-18.194
		c0.807-7.842,1.624-17.404,1.651-28.326c0.008-5.461-0.235-11.256-0.894-17.267c-0.667-6.005-1.762-12.242-3.583-18.411
		c-1.826-6.136-4.406-12.223-7.858-17.535c-1.732-2.653-3.693-5.038-5.818-7.113c-2.116-2.087-4.389-3.791-6.78-4.978
		c-0.578-0.369-1.204-0.544-1.801-0.824l-0.45-0.199c-0.156-0.074-0.304-0.14-0.392-0.15c-0.209-0.054-0.414-0.117-0.616-0.191
		c-0.227-0.075-0.344-0.154-0.656-0.257l-1.579-0.348l-1.586-0.339c-0.672-0.138,0.686,0.137,0.509,0.109l-0.121-0.009l-0.243-0.019
		l-0.484-0.044c-2.57-0.286-5.224-0.13-7.994,0.576c-5.559,1.283-11.47,5.011-17.007,9.924c-5.519,5.008-10.593,11.36-15.106,18.363
		c-4.508,7.03-8.472,14.732-11.938,22.807c-1.774,4.014-3.33,8.176-4.888,12.346c-1.454,4.221-2.919,8.456-4.168,12.79l-0.954,3.244
		l-0.894,3.271c-0.625,2.172-1.135,4.383-1.68,6.584c-0.282,1.116-0.533,2.182-0.765,3.236l-0.728,3.184
		c-0.123,0.502-0.244,1.105-0.363,1.719l-0.361,1.811l-0.721,3.623l-0.563,3.113c-0.195,1.121-0.429,2.238-0.593,3.362
		c-0.314,2.25-0.771,4.486-1.051,6.738c-0.625,4.497-1.237,8.998-1.65,13.498c-0.907,8.998-1.393,17.992-1.306,26.87
		c0.018,4.449,0.277,8.838,0.602,13.204c0.418,4.334,0.919,8.649,1.705,12.834c0.775,4.181,1.703,8.311,2.976,12.208
		c1.247,3.902,2.623,7.732,4.397,11.185c3.468,6.923,7.91,12.99,13.268,16.508c1.338,0.865,2.711,1.612,4.122,2.15
		c0.761,0.369,1.237,0.401,1.785,0.599l0.398,0.136l0.198,0.069l0.384,0.077l1.603,0.31l0.8,0.155l0.399,0.077l0.2,0.039
		c0.199,0.044-0.963-0.212-0.409-0.102l1.088,0.059l1.075,0.081c0.361-0.002,0.723-0.031,1.081-0.04
		c0.716-0.02,1.426-0.011,2.144-0.145c0.716-0.112,1.419-0.118,2.134-0.324c5.683-1.074,11.227-4.308,16.175-8.329
		c2.466-2.071,4.836-4.254,6.975-6.726c2.187-2.381,4.174-4.977,6.079-7.537c3.75-5.225,6.935-10.67,9.69-16.033
		c0.671-1.358,1.369-2.665,1.996-4.004c0.622-1.34,1.235-2.662,1.84-3.965c0.566-1.327,1.124-2.636,1.674-3.924
		c0.549-1.286,1.036-2.591,1.553-3.846c1.987-5.074,3.714-9.892,5.12-14.429c1.479-4.504,2.621-8.729,3.665-12.533
		c0.981-3.827,1.843-7.248,2.497-10.254c0.17-0.749,0.334-1.47,0.491-2.162c0.133-0.667,0.261-1.307,0.383-1.919
		c0.256-1.219,0.489-2.327,0.697-3.318c0.83-4.505,1.272-6.907,1.272-6.907L280.883,180.421z"/>
</g>
<g id="Layer_4">
	<path fill="#FF473E" d="M498.905,156.987c0,0-0.472,2.219-1.358,6.379c-0.274,1.163-0.581,2.462-0.918,3.891
		c-0.175,0.712-0.358,1.457-0.549,2.234c-0.205,0.743-0.418,1.516-0.639,2.32c-0.861,3.217-1.949,6.896-3.32,10.97
		c-2.746,8.146-6.592,17.914-12.361,28.57c-5.768,10.629-13.389,22.225-24.108,33.398c-5.41,5.554-11.673,10.945-19.155,15.674
		c-3.743,2.352-7.896,4.44-12.379,6.142c-4.472,1.712-9.404,2.973-14.608,3.395c-1.279,0.175-2.617,0.148-3.932,0.186
		c-1.315,0.058-2.65-0.042-3.983-0.146c-0.666-0.054-1.333-0.096-1.998-0.17l-1.99-0.327l-1.986-0.351
		c0.427,0.089-0.866-0.171-0.792-0.163l-0.179-0.049l-0.358-0.099l-0.717-0.198l-1.437-0.396l-0.376-0.106l-0.543-0.18l-1.087-0.363
		c-1.425-0.489-2.977-1.018-4.106-1.582c-2.476-1.065-4.826-2.352-7.084-3.744c-4.498-2.811-8.572-6.141-12.055-9.857
		c-3.525-3.689-6.535-7.711-9.241-11.864c-5.365-8.336-9.288-17.293-12.421-26.472c-3.085-9.196-5.327-18.669-6.712-28.278
		c-1.465-9.609-2.062-19.357-1.865-29.095l0.082-3.655l0.201-3.646c0.104-2.438,0.337-4.86,0.566-7.286
		c0.212-2.429,0.535-4.841,0.842-7.259c0.149-1.21,0.363-2.407,0.542-3.611l0.612-3.855l0.639-3.311l0.319-1.655
		c0.103-0.543,0.209-1.096,0.356-1.74l0.816-3.709c0.271-1.245,0.543-2.474,0.86-3.635c0.614-2.361,1.2-4.725,1.901-7.065
		l1.014-3.515l1.131-3.483c3.02-9.28,6.742-18.339,11.219-27.031c2.188-4.362,4.675-8.596,7.232-12.759
		c2.658-4.127,5.404-8.18,8.438-12.072c6.028-7.789,12.89-15.068,21.013-21.307c4.067-3.117,8.452-5.968,13.244-8.342
		c4.78-2.367,10.027-4.241,15.58-5.304c5.546-1.043,11.416-1.238,17.068-0.351l1.059,0.162l0.528,0.083l0.264,0.042
		c-0.048-0.017,1.435,0.299,0.889,0.187l1.435,0.363l1.433,0.352c0.673,0.192,1.523,0.464,2.271,0.708
		c0.771,0.253,1.537,0.515,2.296,0.786c0.403,0.135,0.723,0.274,1.031,0.413l0.948,0.42c1.251,0.577,2.542,1.104,3.695,1.794
		c4.777,2.581,8.957,5.735,12.438,9.17c3.478,3.44,6.513,7.024,9.043,10.689c2.511,3.662,4.789,7.323,6.643,10.991
		c1.969,3.643,3.536,7.288,5.07,10.852c2.903,7.156,5.125,14.092,6.871,20.736c1.765,6.642,3.013,12.997,3.882,18.984
		c0.245,1.499,0.434,2.973,0.606,4.422c0.167,1.45,0.382,2.881,0.498,4.282c0.239,2.803,0.498,5.515,0.597,8.112
		c0.292,5.205,0.246,9.975,0.136,14.279c-0.317,8.603-1.172,15.298-1.833,19.841c-0.762,4.525-1.168,6.938-1.168,6.938
		L498.905,156.987z M459.604,149.55c0,0,0.333-2.022,0.958-5.812c0.548-3.798,1.418-9.359,2.175-16.46
		c0.759-7.092,1.549-15.739,1.659-25.617c0.047-4.939-0.128-10.18-0.677-15.614c-0.557-5.428-1.501-11.065-3.106-16.626
		c-1.606-5.531-3.904-11.003-6.966-15.74c-1.538-2.365-3.271-4.478-5.14-6.301c-1.861-1.835-3.84-3.318-5.903-4.333
		c-0.499-0.321-1.038-0.464-1.55-0.704l-0.387-0.171c-0.135-0.064-0.262-0.121-0.327-0.125c-0.165-0.039-0.326-0.088-0.483-0.146
		c-0.183-0.061-0.255-0.123-0.522-0.213l-1.441-0.316l-1.448-0.307c-0.667-0.137,0.698,0.14,0.526,0.112l-0.104-0.007l-0.207-0.015
		l-0.414-0.034c-2.196-0.232-4.46-0.092-6.852,0.533c-4.795,1.126-10.002,4.444-14.917,8.849
		c-4.897,4.495-9.427,10.225-13.459,16.554c-4.028,6.354-7.573,13.325-10.68,20.635c-1.59,3.633-2.984,7.402-4.384,11.177
		c-1.303,3.823-2.623,7.656-3.748,11.581l-0.859,2.937l-0.807,2.961c-0.565,1.966-1.024,3.969-1.517,5.961
		c-0.254,1.012-0.482,1.973-0.691,2.923l-0.658,2.87c-0.111,0.45-0.221,1-0.331,1.561l-0.33,1.653l-0.659,3.307l-0.509,2.796
		c-0.178,1.015-0.392,2.026-0.541,3.044c-0.286,2.037-0.707,4.062-0.964,6.1c-0.575,4.071-1.145,8.145-1.536,12.217
		c-0.856,8.144-1.348,16.284-1.332,24.319c-0.013,4.027,0.19,7.998,0.451,11.95c0.346,3.922,0.767,7.827,1.445,11.612
		c0.667,3.781,1.475,7.516,2.595,11.034c1.096,3.522,2.305,6.981,3.875,10.086c3.066,6.229,6.993,11.663,11.692,14.765
		c1.174,0.762,2.377,1.416,3.611,1.881c0.675,0.327,1.058,0.332,1.516,0.499l0.33,0.113l0.165,0.057l0.349,0.069l1.464,0.278
		l0.73,0.139l0.365,0.069l0.182,0.035c0.193,0.042-0.975-0.213-0.426-0.105l0.948,0.04l0.935,0.063l0.94-0.046
		c0.623-0.024,1.239-0.02,1.865-0.145c0.623-0.105,1.233-0.112,1.858-0.3c4.946-0.984,9.827-3.886,14.207-7.514
		c2.184-1.868,4.286-3.838,6.185-6.076c1.941-2.153,3.707-4.504,5.401-6.822c3.334-4.733,6.166-9.669,8.614-14.531
		c0.597-1.232,1.217-2.416,1.775-3.63c0.552-1.215,1.097-2.413,1.635-3.595c0.503-1.204,0.998-2.39,1.486-3.559
		c0.487-1.166,0.92-2.349,1.38-3.487c1.765-4.6,3.303-8.965,4.553-13.077c1.318-4.08,2.334-7.908,3.267-11.353
		c0.873-3.467,1.647-6.564,2.232-9.286c0.152-0.678,0.299-1.331,0.44-1.958c0.118-0.601,0.232-1.178,0.34-1.73
		c0.229-1.098,0.437-2.096,0.623-2.99c0.751-4.11,1.152-6.301,1.152-6.301L459.604,149.55z"/>
</g>
<g id="Layer_5">
	<path fill="#FF473E" d="M135.065,364.032c0,0,1.203-0.492,3.458-1.415c2.266-0.888,5.567-2.263,9.808-3.88
		c4.428-1.544,9.82-3.526,16.03-5.583c3.079-0.965,6.356-1.992,9.81-3.074c1.731-0.534,3.506-1.083,5.324-1.644
		c1.825-0.515,3.692-1.042,5.599-1.58c3.822-1.055,7.802-2.155,11.923-3.293c4.131-1.066,8.414-2.112,12.82-3.189
		c2.204-0.536,4.438-1.079,6.699-1.629c2.27-0.495,4.568-0.997,6.89-1.504c4.649-0.995,9.39-2.098,14.239-3.022
		c4.85-0.919,9.776-1.895,14.776-2.805c2.497-0.477,5.016-0.909,7.551-1.316c2.534-0.418,5.08-0.838,7.637-1.26
		c10.227-1.707,20.667-3.05,31.104-4.428c5.226-0.622,10.458-1.193,15.673-1.733c2.607-0.274,5.208-0.548,7.802-0.821
		c2.6-0.215,5.192-0.428,7.774-0.642c5.165-0.4,10.29-0.797,15.353-1.19c5.073-0.257,10.085-0.51,15.014-0.759
		c9.853-0.534,19.41-0.572,28.454-0.715c9.047-0.098,17.617,0.197,25.508,0.349c7.896,0.228,15.137,0.751,21.542,1.119
		c3.204,0.233,6.198,0.368,8.969,0.675c2.768,0.282,5.311,0.541,7.608,0.775c4.591,0.444,8.191,0.901,10.644,1.176
		c2.452,0.305,3.76,0.468,3.76,0.468c7.456,0.928,12.748,7.725,11.82,15.181c-0.809,6.495-6.07,11.348-12.341,11.878l-0.391,0.03
		c0,0-1.279,0.109-3.678,0.313c-2.397,0.174-5.911,0.482-10.375,0.737c-4.465,0.3-9.876,0.563-16.086,1.077
		c-3.102,0.214-6.403,0.442-9.882,0.683c-3.478,0.231-7.131,0.395-10.944,0.745c-3.811,0.292-7.781,0.596-11.889,0.91
		c-4.107,0.291-8.351,0.553-12.711,0.972c-4.36,0.364-8.838,0.738-13.416,1.12c-4.579,0.308-9.25,0.784-13.999,1.246
		c-4.75,0.426-9.58,0.859-14.469,1.297c-4.883,0.5-9.826,1.007-14.808,1.517c-2.492,0.242-4.993,0.486-7.503,0.73
		c-2.505,0.284-5.018,0.569-7.536,0.854c-5.037,0.553-10.094,1.108-15.15,1.663c-5.049,0.62-10.091,1.288-15.126,1.864
		c-5.039,0.552-10.033,1.266-14.994,1.943c-9.945,1.216-19.676,2.72-29.126,4.028c-4.711,0.721-9.343,1.43-13.877,2.124
		c-4.538,0.688-8.976,1.367-13.275,2.104c-4.311,0.704-8.504,1.389-12.56,2.051c-4.041,0.715-7.946,1.405-11.694,2.068
		c-1.877,0.326-3.715,0.646-5.511,0.958c-1.786,0.338-3.532,0.669-5.233,0.991c-3.411,0.631-6.646,1.229-9.686,1.791
		c-5.978,1.169-11.19,2.187-15.483,3.026c-4.426,1.008-7.936,1.696-10.313,2.214c-2.388,0.483-3.662,0.741-3.662,0.741l-0.015,0.003
		c-7.369,1.491-14.55-3.274-16.041-10.643C125.562,372.818,129.134,366.454,135.065,364.032z"/>
</g>
<g id="Layer_6">
	<path fill="#FF473E" d="M59.639,449.102c0,0,1.499-0.547,4.309-1.574c1.407-0.506,3.143-1.129,5.184-1.862
		c2.063-0.73,4.321-1.599,7.125-2.45c2.756-0.876,5.806-1.847,9.128-2.903c1.665-0.524,3.397-1.069,5.194-1.634
		c1.805-0.562,3.615-1.05,5.519-1.606c3.794-1.088,7.831-2.246,12.087-3.467c1.065-0.305,2.143-0.614,3.235-0.927
		c1.094-0.286,2.202-0.576,3.322-0.869c2.242-0.582,4.536-1.178,6.878-1.786c4.687-1.2,9.566-2.521,14.627-3.758
		c5.057-1.253,10.308-2.45,15.698-3.723c5.388-1.297,10.94-2.494,16.614-3.74c5.673-1.247,11.47-2.531,17.384-3.724
		c5.919-1.164,11.937-2.348,18.028-3.546c6.091-1.209,12.273-2.332,18.515-3.409c6.241-1.08,12.523-2.224,18.848-3.27
		c6.336-0.986,12.696-1.977,19.056-2.967c3.182-0.487,6.356-1.015,9.545-1.442c3.189-0.431,6.374-0.862,9.553-1.292
		c6.358-0.864,12.691-1.723,18.983-2.512c6.309-0.706,12.567-1.406,18.75-2.097c3.092-0.336,6.166-0.669,9.218-1
		c3.055-0.311,6.101-0.562,9.117-0.82c6.033-0.508,11.965-1.008,17.771-1.497c2.9-0.251,5.785-0.41,8.636-0.565
		c2.849-0.161,5.663-0.32,8.44-0.477c5.552-0.306,10.952-0.603,16.176-0.891c5.247-0.118,10.316-0.233,15.183-0.343
		c4.868-0.084,9.515-0.268,13.963-0.255c4.453,0.07,8.677,0.137,12.646,0.2c3.965,0.07,7.676,0.136,11.107,0.197
		c1.71,0.016,3.371,0.149,4.95,0.237c1.58,0.095,3.087,0.186,4.517,0.272c5.718,0.328,10.203,0.673,13.259,0.875
		c3.054,0.227,4.683,0.349,4.683,0.349c8.314,0.619,14.551,7.86,13.932,16.174c-0.571,7.668-6.776,13.57-14.26,13.955l-0.688,0.034
		c0,0-1.557,0.082-4.475,0.235c-2.917,0.128-7.193,0.364-12.624,0.553c-1.357,0.052-2.787,0.106-4.287,0.163
		c-1.5,0.063-3.063,0.09-4.712,0.239c-3.287,0.222-6.842,0.462-10.64,0.719c-3.794,0.249-7.831,0.514-12.086,0.794
		c-4.258,0.289-8.752,0.739-13.428,1.127c-4.677,0.405-9.549,0.828-14.591,1.265c-5.049,0.516-10.268,1.049-15.634,1.597
		c-2.682,0.276-5.4,0.556-8.153,0.839c-2.752,0.277-5.536,0.559-8.352,0.935c-5.634,0.668-11.39,1.35-17.243,2.044
		c-2.927,0.342-5.878,0.687-8.851,1.035c-2.972,0.394-5.964,0.79-8.976,1.189c-6.024,0.777-12.121,1.564-18.266,2.357
		c-6.142,0.871-12.332,1.749-18.547,2.63c-3.108,0.435-6.222,0.871-9.34,1.307c-3.114,0.469-6.232,0.939-9.349,1.408
		c-6.235,0.942-12.471,1.885-18.682,2.823c-6.21,0.947-12.384,1.984-18.517,2.961c-12.281,1.874-24.302,4.076-35.983,5.971
		c-5.824,1.026-11.55,2.035-17.156,3.023c-5.608,0.976-11.103,1.91-16.415,2.947c-5.324,0.996-10.494,2.007-15.517,2.889
		c-5.017,0.907-9.823,1.902-14.461,2.792c-9.287,1.783-17.717,3.538-25.215,5.071c-1.862,0.39-3.717,0.74-5.412,1.129
		c-1.706,0.375-3.351,0.737-4.932,1.084c-3.169,0.686-6.079,1.316-8.708,1.885c-1.313,0.281-2.556,0.545-3.776,0.864
		c-1.209,0.29-2.342,0.562-3.397,0.815c-2.109,0.506-3.903,0.936-5.357,1.285c-2.913,0.683-4.467,1.047-4.467,1.047l-0.049,0.011
		c-8.128,1.905-16.261-3.139-18.167-11.267C48.342,459.219,52.546,451.683,59.639,449.102z"/>
</g>
</svg>
