<?xml version="1.0" encoding="utf-8"?>
<!-- Generator: Adobe Illustrator 18.1.0, SVG Export Plug-In . SVG Version: 6.00 Build 0)  -->
<!DOCTYPE svg PUBLIC "-//W3C//DTD SVG 1.0//EN" "http://www.w3.org/TR/2001/REC-SVG-20010904/DTD/svg10.dtd">
<svg version="1.0" id="Layer_1" xmlns="http://www.w3.org/2000/svg" xmlns:xlink="http://www.w3.org/1999/xlink" x="0px" y="0px"
	 width="72px" height="72px" viewBox="0 0 72 72" enable-background="new 0 0 72 72" xml:space="preserve">
<path fill="#E5AB83" d="M35.7,58.4C35.7,58.4,35.7,58.4,35.7,58.4c-1.6,0-3-0.8-3.8-2.1c-0.3-0.4-0.1-1,0.3-1.3
	c0.4-0.3,1-0.1,1.3,0.3c0.5,0.7,1.3,1.2,2.2,1.2c0,0,0,0,0,0c0.9,0,1.7-0.4,2.2-1.2c0.3-0.4,0.9-0.6,1.3-0.3
	c0.4,0.3,0.6,0.9,0.3,1.3C38.7,57.6,37.2,58.4,35.7,58.4z"/>
<path fill="#E5AB83" d="M35.7,67.2c-1.6,0-3.3-0.6-4.6-1.7c-0.5-0.4-0.5-1.1-0.1-1.6c0.4-0.5,1.1-0.5,1.6-0.1c1.7,1.5,4.5,1.5,6.2,0
	c0.5-0.4,1.2-0.4,1.6,0.1c0.4,0.5,0.4,1.2-0.1,1.6C38.9,66.6,37.3,67.2,35.7,67.2z"/>
</svg>
