<?xml version="1.0" encoding="utf-8"?>
<!-- Generator: Adobe Illustrator 18.1.0, SVG Export Plug-In . SVG Version: 6.00 Build 0)  -->
<!DOCTYPE svg PUBLIC "-//W3C//DTD SVG 1.0//EN" "http://www.w3.org/TR/2001/REC-SVG-20010904/DTD/svg10.dtd">
<svg version="1.0" id="Layer_1" xmlns="http://www.w3.org/2000/svg" xmlns:xlink="http://www.w3.org/1999/xlink" x="0px" y="0px"
	 width="72px" height="72px" viewBox="0 0 72 72" enable-background="new 0 0 72 72" xml:space="preserve">
<path fill="#FFB636" d="M34,36.6c0-8.9-7.7-15.7-16.7-15.7c-8.9,0-15.7,6.7-15.7,15.6c0,0,0,0.1,0,0.1l0.3,4.5L2,51
	c-0.1,3.5-1,7.4-1.5,9.6c-0.2,0.8,0.4,1.5,1.2,1.5h1.9c0.6,0,1.3-2.3,1.3-2.3c0.3,0.5,0.4,1,0.5,1.4c0.1,0.6,0.6,1,1.2,1h2.5h1.5
	c-0.4-0.3-0.8-0.6-1.2-0.9c0,0-0.1,0-0.1-0.1c-0.4-0.3-0.7-0.6-1.1-1c0,0-0.1-0.1-0.1-0.1c-0.3-0.3-0.6-0.7-0.9-1.1
	c0-0.1-0.1-0.1-0.1-0.2c-0.3-0.4-0.6-0.7-0.8-1.1c0-0.1-0.1-0.1-0.1-0.2c-0.2-0.4-0.5-0.8-0.7-1.2c0-0.1-0.1-0.1-0.1-0.2
	c-0.2-0.4-0.4-0.9-0.5-1.3c0-0.1,0-0.1,0-0.2c-0.2-0.5-0.3-1-0.4-1.5c0,0,0-0.1,0-0.1c-0.1-0.5-0.2-1.1-0.2-1.6c0-3.4,0-11.5,0-12
	c0-1.1,0.2-2,0.5-2.8c0.3-0.4,0.6-0.9,1-1.4c-0.4,1.7-0.5,3.3-0.4,4.3c0,0.6,0.5,1.1,1.2,1.1h18.7c0.6,0,0.6-2.8,0.6-2.8
	c0.4,0.4,0.6,2.1,0.8,2.3c0.2,0.3,0.6,0.5,0.9,0.5h3.8c0.3,0,0.6-0.1,0.8-0.3c0,0,0.1,0,0.1,0l-0.7,10.2c0,4.9-2.6,9.2-6.5,11.6h6.3
	h0c0.4,0,0.7-0.2,0.9-0.4c0.2-0.2,0.3-0.4,0.3-0.6C34.1,54.7,34,36.6,34,36.6z"/>
</svg>
