<?xml version="1.0" encoding="iso-8859-1"?>
<!-- Generator: Adobe Illustrator 18.1.1, SVG Export Plug-In . SVG Version: 6.00 Build 0)  -->
<!DOCTYPE svg PUBLIC "-//W3C//DTD SVG 1.1//EN" "http://www.w3.org/Graphics/SVG/1.1/DTD/svg11.dtd">
<svg version="1.1" xmlns="http://www.w3.org/2000/svg" xmlns:xlink="http://www.w3.org/1999/xlink" x="0px" y="0px"
	 viewBox="0 0 512 512" enable-background="new 0 0 512 512" xml:space="preserve">
<g id="Layer_2">
	<path fill="#8F9799" d="M316.917,90.367h-27.218c-2.699,0-4.887,2.188-4.887,4.887v4.722c0,2.699,2.188,4.887,4.887,4.887h27.218
		c2.699,0,4.887-2.188,4.887-4.887v-4.722C321.804,92.555,319.616,90.367,316.917,90.367z"/>
</g>
<g id="Layer_3">
	<path fill="#2B3B47" d="M328.47,95.905H183.53c-10.797,0-19.549,8.752-19.549,19.549v285.182c0,10.797,8.752,19.549,19.549,19.549
		h144.94c10.797,0,19.549-8.752,19.549-19.549V115.454C348.019,104.658,339.266,95.905,328.47,95.905z M327.292,347.858
		c0,4.646-3.975,8.412-8.877,8.412h-124.83c-4.903,0-8.877-3.766-8.877-8.412V143.407c0-4.646,3.974-8.412,8.877-8.412h124.83
		c4.903,0,8.877,3.766,8.877,8.412V347.858z"/>
</g>
<g id="Layer_4">
	<path fill="#8F9799" d="M241.938,397.205h28.125c4.858,0,8.797-3.939,8.797-8.797v-0.322c0-4.858-3.939-8.797-8.797-8.797h-28.125
		c-4.858,0-8.797,3.939-8.797,8.797v0.322C233.141,393.266,237.079,397.205,241.938,397.205z"/>
</g>
<g id="Layer_5">
	<path fill="#FF473E" d="M255.107,1.894C114.768,1.894,1.001,115.661,1.001,256s113.767,254.106,254.106,254.106
		S509.213,396.339,509.213,256S395.446,1.894,255.107,1.894z M105.832,405.274C65.96,365.402,44.001,312.388,44.001,256
		c0-49.613,17.006-96.609,48.249-134.345l297.202,297.202c-37.736,31.243-84.732,48.249-134.345,48.249
		C198.718,467.106,145.705,445.147,105.832,405.274z M419.663,388.256L122.85,91.444c37.375-30.156,83.553-46.55,132.257-46.55
		c56.388,0,109.402,21.959,149.274,61.831c39.873,39.872,61.831,92.886,61.831,149.274
		C466.213,304.703,449.819,350.881,419.663,388.256z"/>
</g>
</svg>
