<?xml version="1.0" encoding="utf-8"?>
<!-- Generator: Adobe Illustrator 18.1.0, SVG Export Plug-In . SVG Version: 6.00 Build 0)  -->
<!DOCTYPE svg PUBLIC "-//W3C//DTD SVG 1.0//EN" "http://www.w3.org/TR/2001/REC-SVG-20010904/DTD/svg10.dtd">
<svg version="1.0" id="Layer_1" xmlns="http://www.w3.org/2000/svg" xmlns:xlink="http://www.w3.org/1999/xlink" x="0px" y="0px"
	 width="72px" height="72px" viewBox="0 0 72 72" enable-background="new 0 0 72 72" xml:space="preserve">
<path fill="#F2C7AA" d="M33.2,45.7c-0.1,0.1-0.3,0.3-0.4,0.4L27.1,50l0,0l-1.5,1c-1.2,0.9-2.6,1.4-4,1.7l1.6,2.3
	c0.5-0.1,0.9-0.2,1.1-0.4l9.2-6.5c0.3-0.2,0.5-0.5,0.7-0.9L33.2,45.7C33.2,45.7,33.2,45.7,33.2,45.7z"/>
<path fill="#F2C7AA" d="M46.3,51l-1.5-1l0,0l-5.6-3.9c-0.1-0.1-0.3-0.2-0.4-0.4c0,0,0,0,0,0l-1.2,1.7c0.2,0.4,0.5,0.7,0.7,0.9
	l9.2,6.5c0.3,0.2,0.7,0.3,1.1,0.4l1.6-2.3C48.9,52.4,47.5,51.9,46.3,51z"/>
</svg>
