<?xml version="1.0" encoding="utf-8"?>
<!-- Generator: Adobe Illustrator 18.1.0, SVG Export Plug-In . SVG Version: 6.00 Build 0)  -->
<!DOCTYPE svg PUBLIC "-//W3C//DTD SVG 1.0//EN" "http://www.w3.org/TR/2001/REC-SVG-20010904/DTD/svg10.dtd">
<svg version="1.0" id="Layer_1" xmlns="http://www.w3.org/2000/svg" xmlns:xlink="http://www.w3.org/1999/xlink" x="0px" y="0px"
	 width="72px" height="72px" viewBox="0 0 72 72" enable-background="new 0 0 72 72" xml:space="preserve">
<path fill="#FFFFFF" d="M33,41c-0.6-0.1-1.3-0.1-1.9-0.1l-1.9-0.1c-1.3,0-2.6,0-3.9-0.1c-1.3,0-2.6,0-3.9,0.1l-1.9,0.1
	c-0.6,0-1.3,0.1-1.9,0.1c0,0-0.1,0-0.1,0c0,0,0,0.1-0.1,0.1c0.5,0.1,1.1,0.2,1.8,0.3c0.8,0.1,1.8,0.2,2.9,0.3
	c1.1,0.1,2.2,0.1,3.3,0.1c1.1,0,2.2,0,3.3-0.1c1.1-0.1,2-0.2,2.9-0.3c0.7-0.1,1.3-0.2,1.8-0.3C33.1,41,33.1,41,33,41z"/>
</svg>
