<svg xmlns="http://www.w3.org/2000/svg" viewBox="0 0 72 72" enable-background="new 0 0 72 72"><path fill="#AF773F" d="M69.01 45.792c-.03-.67-.12-1.353-.305-1.997-.708-2.617-2.53-4.783-4.65-6.185-2.13-1.42-4.52-2.128-6.69-2.415-2.18-.286-4.163-.172-5.803.04-.15.018-.282.042-.425.063 2.86-2.803 4.687-6.944 4.687-12.714 0-5.505-4.463-9.968-9.968-9.968-2.248 0-4.32.746-5.986 2.002-1.07.807-2.507.81-3.577.002-1.92-1.45-4.382-2.22-7.03-1.95-4.518.462-8.827 4-8.827 8.54 0 6.797 2.198 11.44 5.452 14.414h-1.11c-.518-.018-.915-.082-1.508-.104-.616-.128-1.37-.166-2.124-.4-.78-.17-1.588-.46-2.437-.784-.408-.195-.84-.372-1.267-.584-.403-.242-.84-.463-1.253-.725-.81-.545-1.622-1.15-2.334-1.87-.35-.363-.727-.716-1.018-1.127l-.477-.596-.4-.64c-.56-.846-.927-1.776-1.255-2.706-.108-.477-.242-.95-.327-1.427l-.08-.717-.046-.358-.01-.09c0-.05-.013.4-.008.203v-.105l.005-.235.014-.934.007-.46.046-.292c.08-.392.04-.724.186-1.18.18-.868.475-1.668.79-2.396l.51-1.028.568-.884c.13-.21.272-.386.41-.563-.21-1.79-.796-3.662-2.477-4.02-.875-.183-1.763-.057-2.626.234-.136.156-.273.318-.41.493-.296.386-.61.797-.944 1.23L5.4 15.034c-.586 1.062-1.155 2.27-1.57 3.627-.25.63-.38 1.49-.547 2.278l-.11.605-.045.458c-.03.308-.063.618-.095.93l-.024.235-.007.06-.003.028-.01.246.003.146.01.593.033 1.2c.064.804.198 1.616.33 2.43.375 1.608.887 3.226 1.662 4.706l.58 1.112.673 1.044c.436.712.96 1.338 1.477 1.968 1.042 1.25 2.22 2.324 3.418 3.282.606.467 1.234.877 1.84 1.298.622.388 1.253.728 1.862 1.074 1.245.623 2.454 1.163 3.61 1.537 1.14.44 2.228.637 3.194.896 1.027.175 2.035.342 2.685.413l.552.047c.233 1.88.86 3.638 1.792 5.192-.9 1.336-1.52 2.807-1.83 4.31-.133.596-.198 1.2-.237 1.795-.015.596-.026 1.187.052 1.76l.126 1.062.17.47c.044.075.15.544.24.832.1.31.203.68.32.903.23.507.477.993.776 1.445.095.16.207.307.316.457l-1.615 1.192c-1.473 1.087-1.785 3.162-.698 4.635 1.086 1.474 3.16 1.786 4.634.7l4.838-3.572c.05-.037.107-.082.155-.122 1.39-1.162 1.576-3.232.414-4.623l-.327-.39c-.2-.24-.374-.49-.504-.757-.047-.143-.127-.268-.15-.414-.05-.137-.07-.28-.09-.42-.03-.09.004-.082-.004-.12.003-.053-.016.028-.013-.195l-.003-.48v-.075l.005.192v-.005l.004-.013.01-.054.017-.105c.008-.142.07-.27.097-.403.052-.127.093-.254.162-.37.24-.478.642-.858 1.085-1.098.23-.113.46-.19.695-.24.107-.004.25-.034.25-.016.045-.003.238-.004.43-.005.665.102 1.34.17 2.035.17.692 0 1.366-.07 2.03-.17.122 0 .22 0 .252.004 0-.018.142.01.25.015.232.05.465.127.693.24.442.24.846.62 1.085 1.097.07.116.11.243.162.37.03.132.09.26.097.403l.016.104.01.053.004.013.002.003v.002c.002-.086-.005.194.006-.192v.075l-.003.48c.003.222-.015.142-.013.195-.008.036.025.03-.002.118-.023.143-.042.287-.09.423-.025.147-.105.27-.15.414-.13.268-.306.518-.505.756l-.327.39c-1.162 1.392-.977 3.462.414 4.624.048.04.105.085.155.122L46.992 70c1.473 1.087 3.548.775 4.635-.698 1.087-1.473.775-3.548-.698-4.635l-1.616-1.192c.11-.15.22-.297.316-.457.3-.452.548-.938.775-1.445.12-.224.222-.594.32-.904.093-.29.198-.76.24-.834l.17-.47.127-1.06c.077-.575.067-1.166.052-1.762-.04-.595-.104-1.2-.237-1.796-.297-1.448-.89-2.864-1.736-4.16 1.17-1.89 1.876-4.09 1.965-6.453.1-.038.19-.074.306-.112.443-.16.94-.315 1.484-.46 1.083-.286 2.348-.515 3.628-.517 1.276-.005 2.563.224 3.61.723 1.05.487 1.826 1.267 2.155 1.98.168.37.242.578.22 1.21-.016.548-.104 1.146-.217 1.658-.226 1.048-.58 1.793-.793 2.137-.224.34-.774 1.077-.777 1.098l.22 1.73c-.07.574.078 1.177.464 1.67.77.984 2.194 1.157 3.18.386l.47-.368c.29-.245.664-.615 1.048-1.093.752-.955 1.48-2.29 1.998-3.918.262-.823.485-1.7.62-2.735l.075-.805.01-.153.006-.078.003-.194v-.508z"/></svg>