<?xml version="1.0" encoding="iso-8859-1"?>
<!-- Generator: Adobe Illustrator 18.1.0, SVG Export Plug-In . SVG Version: 6.00 Build 0)  -->
<!DOCTYPE svg PUBLIC "-//W3C//DTD SVG 1.1//EN" "http://www.w3.org/Graphics/SVG/1.1/DTD/svg11.dtd">
<svg version="1.1" xmlns="http://www.w3.org/2000/svg" xmlns:xlink="http://www.w3.org/1999/xlink" x="0px" y="0px"
	 viewBox="0 0 512 512" enable-background="new 0 0 512 512" xml:space="preserve">
<g id="Layer_2">
	<path fill="#FFB636" d="M472.386,272.863c-0.003-0.212-0.013-0.422-0.017-0.633c-0.009-0.437-0.021-0.873-0.036-1.309
		c-0.015-0.445-0.032-0.89-0.053-1.334c-0.022-0.475-0.047-0.95-0.076-1.423c-0.023-0.377-0.047-0.754-0.074-1.13
		c-0.04-0.559-0.084-1.117-0.132-1.674c-0.023-0.262-0.047-0.524-0.072-0.785c-0.065-0.686-0.137-1.369-0.215-2.051
		c-0.012-0.104-0.025-0.209-0.037-0.313c-1.132-9.556-3.584-18.72-7.171-27.32c-0.044-11.26-1.291-22.438-3.617-33.411
		c35.614-42.06,39.743-95.014,34.76-137.925c-5.326-45.863-56.031-71.304-96.191-48.524c-19.773,11.216-40.198,26.338-56.963,46.455
		c-26.523-11.72-56.101-18.429-87.426-18.429c-31.303,0-60.863,6.697-87.372,18.402c-16.761-20.103-37.176-35.218-56.941-46.429
		c-40.16-22.78-90.865,2.661-96.191,48.524c-4.98,42.885-0.859,95.802,34.696,137.849c-2.379,11.199-3.637,22.612-3.637,34.108
		c0,0.384,0.014,0.764,0.017,1.147c-3.198,8.087-5.42,16.644-6.475,25.552c-0.012,0.104-0.025,0.209-0.037,0.313
		c-0.079,0.682-0.15,1.365-0.215,2.051c-0.025,0.261-0.049,0.523-0.072,0.785c-0.049,0.557-0.093,1.115-0.132,1.674
		c-0.027,0.376-0.052,0.753-0.074,1.13c-0.028,0.474-0.054,0.948-0.076,1.423c-0.021,0.444-0.038,0.889-0.053,1.334
		c-0.014,0.436-0.027,0.872-0.036,1.309c-0.004,0.211-0.014,0.421-0.017,0.633c-0.004,0.27,0,0.539-0.002,0.809
		c-0.002,0.23-0.009,0.458-0.009,0.689c0,0.114,0.007,0.226,0.007,0.339c0.004,1.23,0.028,2.456,0.075,3.676
		c0.008,0.209,0.02,0.416,0.029,0.624c0.053,1.186,0.123,2.367,0.216,3.543c0.008,0.107,0.014,0.215,0.023,0.322
		c0.101,1.228,0.229,2.448,0.374,3.664c0.029,0.245,0.058,0.489,0.089,0.733c0.15,1.193,0.318,2.38,0.509,3.56
		c0.032,0.198,0.068,0.394,0.101,0.591c0.192,1.141,0.4,2.277,0.629,3.406c0.023,0.112,0.043,0.225,0.066,0.337
		c0.244,1.181,0.513,2.352,0.797,3.518c0.058,0.237,0.115,0.474,0.175,0.71c0.288,1.147,0.593,2.287,0.92,3.419
		c0.053,0.184,0.109,0.365,0.163,0.549c0.321,1.091,0.658,2.174,1.014,3.25c0.038,0.115,0.074,0.232,0.112,0.347
		c0.377,1.126,0.778,2.242,1.193,3.351c0.085,0.226,0.169,0.452,0.256,0.678c0.418,1.092,0.851,2.177,1.304,3.251
		c0.072,0.171,0.147,0.34,0.22,0.51c0.442,1.032,0.899,2.056,1.373,3.071c0.054,0.116,0.106,0.233,0.16,0.349
		c0.502,1.064,1.026,2.116,1.564,3.161c0.11,0.213,0.219,0.426,0.33,0.638c0.539,1.03,1.093,2.052,1.666,3.063
		c0.088,0.156,0.18,0.31,0.269,0.465c0.555,0.967,1.124,1.925,1.708,2.873c0.07,0.114,0.138,0.23,0.209,0.344
		c0.619,0.994,1.258,1.975,1.909,2.948c0.132,0.197,0.264,0.394,0.398,0.59c0.653,0.961,1.32,1.913,2.005,2.852
		c0.101,0.138,0.204,0.274,0.306,0.412c0.659,0.895,1.332,1.779,2.019,2.653c0.088,0.112,0.174,0.226,0.263,0.337
		c0.726,0.915,1.469,1.815,2.225,2.706c0.154,0.181,0.308,0.362,0.463,0.542c0.759,0.882,1.53,1.755,2.317,2.612
		c0.111,0.121,0.224,0.239,0.336,0.359c0.757,0.817,1.527,1.623,2.31,2.416c0.103,0.105,0.205,0.211,0.309,0.316
		c0.825,0.829,1.666,1.642,2.518,2.444c0.173,0.163,0.346,0.325,0.52,0.487c0.856,0.796,1.724,1.58,2.607,2.348
		c0.118,0.103,0.239,0.203,0.358,0.306c0.848,0.731,1.708,1.45,2.579,2.156c0.118,0.096,0.234,0.193,0.353,0.288
		c0.916,0.735,1.848,1.454,2.789,2.16c0.189,0.142,0.378,0.282,0.567,0.423c0.947,0.701,1.903,1.389,2.874,2.06
		c0.123,0.085,0.249,0.168,0.372,0.253c0.929,0.636,1.868,1.258,2.818,1.866c0.136,0.087,0.27,0.176,0.406,0.262
		c0.997,0.632,2.008,1.246,3.027,1.846c0.204,0.12,0.408,0.239,0.613,0.358c1.028,0.597,2.065,1.18,3.115,1.744
		c0.125,0.067,0.253,0.132,0.378,0.199c1.005,0.535,2.02,1.054,3.045,1.559c0.149,0.073,0.296,0.149,0.446,0.222
		c1.071,0.522,2.154,1.023,3.245,1.511c0.216,0.097,0.433,0.192,0.65,0.288c1.102,0.484,2.211,0.954,3.332,1.402
		c0.125,0.05,0.252,0.097,0.377,0.147c1.075,0.426,2.158,0.834,3.25,1.226c0.11,0.039,0.217,0.084,0.326,0.123
		c22.187,7.899,37.974,51.384,37.974,51.384c3.597,19.616,18.248,35.497,37.473,41.359C199.96,488.828,225.94,504,255.476,504
		c29.555,0,55.549-15.192,70.64-38.182c19.154-5.898,33.743-21.747,37.33-41.314c0,0,15.786-43.485,37.974-51.384
		c0.11-0.039,0.217-0.084,0.326-0.123c1.092-0.393,2.175-0.801,3.25-1.226c0.125-0.05,0.252-0.097,0.377-0.147
		c1.121-0.449,2.23-0.919,3.332-1.402c0.217-0.095,0.434-0.191,0.65-0.288c1.091-0.488,2.174-0.99,3.245-1.511
		c0.149-0.073,0.297-0.148,0.446-0.222c1.024-0.505,2.039-1.024,3.045-1.559c0.126-0.067,0.253-0.132,0.378-0.199
		c1.05-0.564,2.087-1.148,3.115-1.744c0.205-0.119,0.409-0.238,0.613-0.358c1.02-0.601,2.03-1.214,3.027-1.846
		c0.136-0.086,0.27-0.175,0.406-0.262c0.95-0.608,1.89-1.23,2.819-1.866c0.124-0.085,0.249-0.167,0.372-0.253
		c0.971-0.671,1.927-1.359,2.874-2.06c0.19-0.14,0.379-0.281,0.567-0.423c0.941-0.706,1.873-1.425,2.789-2.16
		c0.118-0.095,0.234-0.193,0.353-0.288c0.872-0.706,1.731-1.424,2.579-2.156c0.119-0.103,0.239-0.203,0.358-0.306
		c0.883-0.768,1.75-1.552,2.607-2.348c0.174-0.162,0.347-0.324,0.52-0.487c0.852-0.802,1.694-1.615,2.518-2.444
		c0.104-0.104,0.205-0.211,0.309-0.316c0.784-0.794,1.554-1.6,2.312-2.418c0.111-0.119,0.223-0.237,0.333-0.356
		c0.788-0.858,1.559-1.73,2.318-2.613c0.155-0.18,0.309-0.361,0.463-0.542c0.756-0.891,1.499-1.791,2.225-2.706
		c0.089-0.112,0.174-0.225,0.263-0.337c0.687-0.873,1.36-1.758,2.019-2.653c0.101-0.138,0.205-0.274,0.306-0.412
		c0.685-0.939,1.351-1.891,2.005-2.852c0.133-0.196,0.266-0.393,0.398-0.59c0.651-0.972,1.29-1.953,1.909-2.948
		c0.071-0.114,0.139-0.229,0.209-0.344c0.585-0.948,1.154-1.906,1.708-2.873c0.089-0.155,0.18-0.309,0.269-0.465
		c0.573-1.01,1.126-2.032,1.666-3.063c0.111-0.212,0.221-0.425,0.33-0.638c0.538-1.045,1.062-2.097,1.564-3.161
		c0.055-0.116,0.106-0.233,0.16-0.349c0.475-1.015,0.932-2.039,1.373-3.071c0.073-0.17,0.148-0.339,0.22-0.51
		c0.454-1.075,0.887-2.159,1.304-3.251c0.086-0.225,0.171-0.452,0.256-0.678c0.415-1.109,0.816-2.225,1.193-3.351
		c0.039-0.115,0.074-0.232,0.112-0.347c0.356-1.076,0.693-2.16,1.014-3.25c0.054-0.183,0.11-0.365,0.163-0.549
		c0.326-1.132,0.631-2.272,0.92-3.419c0.059-0.236,0.117-0.473,0.175-0.71c0.284-1.166,0.553-2.338,0.797-3.518
		c0.023-0.112,0.043-0.225,0.066-0.337c0.229-1.129,0.437-2.264,0.629-3.406c0.033-0.197,0.069-0.393,0.101-0.591
		c0.191-1.18,0.359-2.367,0.509-3.56c0.031-0.244,0.06-0.488,0.089-0.733c0.144-1.216,0.273-2.436,0.374-3.664
		c0.009-0.107,0.015-0.215,0.023-0.322c0.093-1.175,0.164-2.357,0.216-3.543c0.009-0.208,0.021-0.416,0.029-0.624
		c0.047-1.22,0.071-2.446,0.075-3.676c0-0.114,0.007-0.226,0.007-0.339c0-0.23-0.008-0.459-0.009-0.689
		C472.386,273.402,472.39,273.134,472.386,272.863z"/>
</g>
<g id="Layer_3">
	<path fill="#FFEDCA" d="M156.491,168.122c27.453,0,49.708,22.255,49.708,49.708v71.838c0,27.453,0,49.708,0,49.708h-49.708
		c-27.453,0-49.708-22.255-49.708-49.708V217.83C106.783,190.377,129.038,168.122,156.491,168.122L156.491,168.122z
		 M356.591,168.122c-27.453,0-49.708,22.255-49.708,49.708v71.838c0,27.453,0,49.708,0,49.708h49.708
		c27.453,0,49.708-22.255,49.708-49.708V217.83C406.299,190.377,384.044,168.122,356.591,168.122L356.591,168.122z M468.37,306.735
		c0.006-0.021,0.012-0.042,0.018-0.063c0.326-1.164,0.631-2.338,0.92-3.518c0.059-0.243,0.117-0.487,0.175-0.731
		c0.284-1.2,0.553-2.405,0.797-3.62c0.023-0.115,0.043-0.231,0.066-0.347c0.229-1.161,0.437-2.33,0.629-3.504
		c0.033-0.203,0.069-0.405,0.101-0.608c0.191-1.214,0.359-2.435,0.509-3.663c0.031-0.251,0.06-0.503,0.089-0.754
		c0.144-1.251,0.273-2.507,0.374-3.77c0.009-0.11,0.015-0.221,0.023-0.331c0.08-1.044,0.137-2.094,0.187-3.146
		c-0.062,0.065-0.121,0.132-0.183,0.197c-0.12,0.125-0.237,0.252-0.358,0.377c-0.956,0.989-1.932,1.959-2.92,2.916
		c-0.2,0.194-0.401,0.388-0.603,0.58c-0.993,0.949-1.998,1.885-3.022,2.801c-0.135,0.121-0.272,0.238-0.407,0.358
		c-0.986,0.874-1.985,1.734-2.998,2.578c-0.137,0.114-0.271,0.23-0.409,0.344c-1.062,0.877-2.142,1.734-3.233,2.577
		c-0.219,0.169-0.438,0.337-0.658,0.504c-1.097,0.836-2.206,1.657-3.332,2.457c-0.125,0.089-0.252,0.175-0.377,0.263
		c-1.099,0.767-2.203,1.527-3.322,2.264c-0.157,0.104-0.313,0.21-0.47,0.313c-1.156,0.754-2.327,1.486-3.509,2.202
		c-0.236,0.143-0.473,0.285-0.71,0.427c-1.192,0.712-2.394,1.408-3.611,2.081c-0.141,0.078-0.284,0.153-0.425,0.23
		c-1.172,0.64-2.352,1.264-3.543,1.867c-0.173,0.087-0.344,0.178-0.517,0.264c-1.242,0.622-2.497,1.221-3.762,1.803
		c-0.251,0.115-0.502,0.229-0.754,0.343c-1.277,0.577-2.564,1.138-3.863,1.673c-0.289,0.119-0.585,0.225-0.861,0.365
		c-1.037,0.524-2.145,0.872-3.248,1.24c-0.161,0.054-0.316,0.123-0.475,0.181c-25.723,9.423-44.025,61.298-44.025,61.298
		c-2.702,15.165-10.786,28.461-22.207,37.846c-4.256-22.764-22.766-40.502-45.913-43.621v-0.503H210.8
		c-27.689,0-50.506,20.795-53.725,47.617c-13.881-9.414-23.839-24.175-26.897-41.338c0,0-18.302-51.875-44.025-61.298
		c-0.159-0.058-0.314-0.127-0.475-0.181c-1.103-0.368-2.211-0.716-3.249-1.24c-0.276-0.14-0.572-0.245-0.86-0.364
		c-1.3-0.535-2.586-1.096-3.863-1.673c-0.252-0.114-0.503-0.228-0.754-0.343c-1.265-0.582-2.52-1.18-3.762-1.803
		c-0.173-0.087-0.344-0.177-0.517-0.264c-1.194-0.605-2.378-1.232-3.553-1.872c-0.138-0.075-0.278-0.148-0.415-0.224
		c-1.217-0.673-2.419-1.369-3.611-2.081c-0.237-0.142-0.474-0.284-0.71-0.427c-1.182-0.716-2.353-1.448-3.509-2.202
		c-0.158-0.103-0.313-0.209-0.47-0.313c-1.111-0.732-2.209-1.484-3.298-2.247c-0.134-0.094-0.269-0.185-0.401-0.28
		c-1.125-0.8-2.234-1.622-3.332-2.457c-0.22-0.167-0.439-0.335-0.658-0.504c-1.091-0.843-2.171-1.7-3.233-2.577
		c-0.137-0.113-0.272-0.23-0.409-0.344c-1.016-0.846-2.018-1.71-3.008-2.587c-0.132-0.117-0.266-0.232-0.397-0.349
		c-1.024-0.916-2.029-1.852-3.022-2.801c-0.202-0.193-0.403-0.386-0.603-0.58c-0.988-0.957-1.964-1.927-2.92-2.916
		c-0.11-0.114-0.217-0.229-0.326-0.344c-0.001-0.016-0.003-0.031-0.005-0.046c-0.009-0.107-0.014-0.215-0.023-0.322
		c-0.083-1.051-0.143-2.108-0.194-3.168c0.042,1.156,0.083,2.312,0.15,3.46c-0.048-0.051-0.095-0.104-0.144-0.155
		c0.05,1.052,0.107,2.102,0.187,3.146c0.008,0.11,0.014,0.221,0.023,0.331c0.101,1.263,0.229,2.519,0.374,3.77
		c0.029,0.252,0.058,0.503,0.089,0.754c0.15,1.227,0.318,2.449,0.509,3.663c0.032,0.203,0.068,0.405,0.101,0.608
		c0.068,0.414,0.15,0.824,0.222,1.236c0.922,6.343,2.22,12.547,3.884,18.576c-5.367,17.685-8.407,31.971-4.345,31.971
		c25.502,0,3.356,10.667,3.356,10.667s-5.016,0.954,2.094,9.669c2.558,3.135,26.839,10.83,14.754,11.316
		c-20.907,0.842,13.947,19.887,15.956,21.212c17.169,11.333,33.701,8.344,42.707,6.365c0.901-0.198,1.873-0.327,2.893-0.407
		c5.385,2.209,10.95,4.002,16.653,5.389c5.918,11.215,9.355,20.953,9.355,20.953c4.141,23.241,22.936,41.396,46.497,44.573
		c0.049,0.007,0.097,0.012,0.146,0.019c0.746,0.099,1.495,0.186,2.25,0.255c0.18,0.017,0.362,0.026,0.543,0.041
		c0.645,0.052,1.291,0.102,1.942,0.132c0.531,0.025,1.067,0.031,1.601,0.04c0.3,0.005,0.597,0.023,0.898,0.023
		c0.018,0,0.036-0.001,0.054-0.001c0.018,0,0.036,0.001,0.055,0.001c1.244,0,2.478-0.043,3.702-0.124
		c1.88,0.198,3.788,0.303,5.721,0.303c20.286,0,37.955-11.167,47.224-27.682c9.269,16.515,26.938,27.682,47.224,27.682
		c1.419,0,2.82-0.072,4.212-0.179c0,0,0,0,0,0c0.018,0,0.036-0.001,0.055-0.001c0.018,0,0.036,0.001,0.054,0.001
		c0.301,0,0.598-0.018,0.898-0.023c0.535-0.01,1.07-0.016,1.601-0.04c0.651-0.029,1.297-0.08,1.942-0.132
		c0.181-0.015,0.363-0.025,0.543-0.041c0.755-0.068,1.504-0.156,2.25-0.255c0.049-0.007,0.097-0.012,0.146-0.019
		c23.561-3.177,42.355-21.332,46.497-44.573c0,0,4.069-11.527,10.975-23.942c8.162-2.036,16.322-3.229,21.946-1.993
		c9.006,1.979,25.538,4.968,42.707-6.365c2.009-1.326,36.863-20.37,15.956-21.212c-12.085-0.487,12.196-8.182,14.754-11.316
		c7.11-8.714,2.094-9.669,2.094-9.669s-22.145-10.667,3.356-10.667C479.896,346.736,475.201,327.915,468.37,306.735z"/>
</g>
<g id="Layer_4">
	<path fill="#2B3B47" d="M391.912,229.86c-6.771,0-12.901,0.043-18.397,0.278c5.262,4.176,8.641,10.622,8.641,17.861v32.943
		c0,12.589-10.205,22.795-22.795,22.795c-8.841,0-16.501-5.037-20.281-12.394v78.242c0,2.443-1.981,4.425-4.425,4.425
		s-4.425-1.981-4.425-4.425V253.805c0-14.97,6.464-24.459,19.762-29.01c11.059-3.785,26.049-3.785,41.92-3.785
		c2.443,0,4.425,1.981,4.425,4.425S394.356,229.86,391.912,229.86z M115.553,225.435c0,2.444,1.981,4.425,4.425,4.425
		c7.022,0,13.352,0.047,19.003,0.306c-5.242,4.176-8.605,10.61-8.605,17.833v32.943c0,12.589,10.206,22.795,22.795,22.795
		c8.365,0,15.674-4.509,19.639-11.227v77.075c0,2.443,1.981,4.425,4.425,4.425s4.425-1.981,4.425-4.425V253.805
		c0-14.97-6.464-24.459-19.762-29.01c-11.058-3.785-26.049-3.785-41.919-3.785C117.534,221.01,115.553,222.991,115.553,225.435z
		 M208.686,424.577c-0.022-1.104-0.91-1.945-2.04-1.96c-102.068,2.055-132.938,17.762-134.202,18.43
		c-0.977,0.516-1.35,1.726-0.834,2.702c0.358,0.68,1.052,1.066,1.771,1.066c0.314,0,0.634-0.074,0.932-0.231
		c0.301-0.159,31.291-15.932,132.414-17.967C207.831,426.595,208.709,425.682,208.686,424.577z M195.295,438.202
		c-0.248-1.076-1.32-1.743-2.398-1.499c-59.544,13.744-108.463,28.968-108.951,29.12c-1.054,0.329-1.642,1.451-1.313,2.506
		c0.268,0.855,1.057,1.404,1.909,1.404c0.197,0,0.398-0.03,0.597-0.092c0.486-0.152,49.269-15.332,108.658-29.04
		C194.872,440.353,195.543,439.278,195.295,438.202z M219.105,442.322c-71.369,16.475-114.175,57.22-114.599,57.629
		c-0.794,0.768-0.816,2.033-0.049,2.827c0.392,0.406,0.915,0.611,1.439,0.611c0.5,0,1-0.187,1.389-0.562
		c0.417-0.401,42.485-40.396,112.72-56.607c1.076-0.249,1.748-1.323,1.499-2.399S220.18,442.08,219.105,442.322z M430.941,440.368
		c-1.264-0.668-32.133-16.375-134.201-18.43c-1.089,0.011-2.018,0.855-2.04,1.96c-0.021,1.104,0.855,2.018,1.96,2.04
		c100.8,2.028,132.113,17.81,132.414,17.967c0.298,0.157,0.617,0.231,0.932,0.231c0.718,0,1.412-0.387,1.771-1.066
		C432.292,442.094,431.919,440.884,430.941,440.368z M419.441,465.145c-0.487-0.152-49.406-15.376-108.95-29.12
		c-1.073-0.24-2.15,0.423-2.399,1.499c-0.248,1.076,0.423,2.15,1.499,2.399c59.39,13.708,108.172,28.888,108.657,29.04
		c0.199,0.062,0.399,0.092,0.598,0.092c0.852,0,1.641-0.549,1.908-1.404C421.083,466.596,420.495,465.474,419.441,465.145z
		 M284.962,442.322c-1.073-0.243-2.15,0.423-2.399,1.499c-0.248,1.076,0.423,2.15,1.499,2.399
		c70.234,16.212,112.303,56.206,112.72,56.607c0.388,0.375,0.889,0.562,1.389,0.562c0.523,0,1.046-0.205,1.438-0.611
		c0.768-0.794,0.745-2.06-0.049-2.827C399.136,499.542,356.33,458.797,284.962,442.322z M303.297,404.364
		c11.421-8.384,2.166-21.518-15.162-21.518H223.95c-17.328,0-26.582,13.134-15.162,21.518l19.894,14.604
		c15.048,11.047,39.672,11.047,54.721,0L303.297,404.364z M465.182,235.571c-0.04-10.205-1.073-20.341-2.994-30.32
		c-0.552,2.491-1.126,5.006-1.733,7.565c-0.913,3.73-1.869,7.519-2.909,11.276c-0.52,1.878-1.039,3.763-1.599,5.617
		c-0.539,1.868-1.104,3.715-1.687,5.539c-1.143,3.662-2.363,7.223-3.604,10.649c-1.244,3.423-2.537,6.69-3.828,9.761
		c-1.305,3.059-2.61,5.92-3.895,8.514c-0.614,1.324-1.295,2.512-1.899,3.69c-0.602,1.181-1.219,2.261-1.813,3.269
		c-1.146,2.059-2.262,3.752-3.171,5.173c-0.899,1.431-1.712,2.448-2.22,3.2c-0.524,0.736-0.803,1.128-0.803,1.128l-0.153,0.214
		c-1.021,1.434-0.976,3.43,0.223,4.826c1.411,1.642,3.885,1.829,5.527,0.418c0,0,0.4-0.343,1.149-0.987
		c0.731-0.658,1.895-1.568,3.22-2.845c1.336-1.269,2.988-2.809,4.734-4.684c0.899-0.923,1.842-1.918,2.779-3.002
		c0.941-1.081,1.993-2.195,2.973-3.418c2.034-2.412,4.148-5.089,6.312-7.974c2.147-2.891,4.344-5.989,6.522-9.248
		c1.117-1.675,2.237-3.393,3.351-5.142C468.465,244.258,466.964,239.844,465.182,235.571z M380.9,146.828
		c0,0,0.334-0.295,0.96-0.849c0.616-0.561,1.58-1.354,2.671-2.454c0.556-0.546,1.172-1.151,1.842-1.809
		c0.643-0.679,1.338-1.413,2.08-2.197c1.453-1.591,3.076-3.409,4.747-5.452c0.859-1.012,1.707-2.088,2.585-3.206
		c0.893-1.112,1.776-2.281,2.68-3.488c1.821-2.409,3.666-4.991,5.533-7.69c1.871-2.697,3.739-5.518,5.61-8.404
		c0.426-0.661,0.848-1.337,1.272-2.005c-3.896-4.022-7.978-7.898-12.217-11.63c-0.819,2.288-1.649,4.565-2.498,6.802
		c-1.176,3.072-2.362,6.085-3.571,8.967c-1.205,2.885-2.412,5.655-3.622,8.24c-0.6,1.297-1.189,2.558-1.792,3.752
		c-0.591,1.205-1.165,2.371-1.752,3.459c-1.139,2.211-2.264,4.176-3.279,5.91c-0.522,0.856-1.011,1.656-1.463,2.397
		c-0.476,0.719-0.914,1.38-1.309,1.976c-0.779,1.216-1.472,2.076-1.919,2.701c-0.455,0.617-0.697,0.946-0.697,0.946l-0.111,0.15
		c-0.793,1.075-0.758,2.594,0.163,3.635C377.872,147.775,379.702,147.887,380.9,146.828z M320.663,124.877
		c1.253,0.984,3.067,0.766,4.051-0.487c0,0,0.33-0.42,0.948-1.207c0.296-0.397,0.72-0.882,1.111-1.468
		c0.398-0.587,0.856-1.263,1.369-2.019c0.968-1.526,2.119-3.395,3.292-5.572c0.618-1.085,1.208-2.25,1.839-3.481
		c0.646-1.229,1.271-2.531,1.923-3.892c1.314-2.721,2.651-5.69,4.015-8.846c1.369-3.155,2.744-6.499,4.132-9.97
		c2.769-6.939,5.539-14.39,8.189-21.872c-5.272-2.604-10.685-4.994-16.212-7.18c-0.151,0.966-0.304,1.933-0.458,2.9
		c-1.224,7.674-2.567,15.321-3.991,22.437c-0.715,3.556-1.438,6.986-2.184,10.214c-0.741,3.23-1.488,6.269-2.248,9.037
		c-0.376,1.387-0.737,2.719-1.124,3.957c-0.374,1.248-0.724,2.439-1.103,3.52c-0.71,2.204-1.429,4.051-2.035,5.563
		c-0.323,0.737-0.611,1.396-0.862,1.969c-0.248,0.581-0.509,1.001-0.695,1.384c-0.387,0.747-0.594,1.145-0.594,1.145l-0.141,0.272
		C319.256,122.488,319.555,124.007,320.663,124.877z M255.348,110.562c1.596,0.22,3.069-0.896,3.288-2.493l8.813-64.011
		c-3.873-0.208-7.773-0.322-11.703-0.322c-3.93,0-7.831,0.114-11.703,0.322l8.813,64.011
		C253.03,109.332,254.024,110.38,255.348,110.562z M171.638,87.937c1.388,3.471,2.763,6.815,4.132,9.97
		c1.364,3.156,2.701,6.125,4.015,8.846c0.653,1.361,1.277,2.662,1.923,3.892c0.63,1.231,1.22,2.396,1.839,3.481
		c1.173,2.177,2.324,4.046,3.292,5.572c0.513,0.756,0.971,1.432,1.369,2.019c0.391,0.586,0.815,1.071,1.111,1.468
		c0.618,0.787,0.948,1.207,0.948,1.207c0.839,1.07,2.346,1.428,3.596,0.779c1.415-0.733,1.967-2.474,1.233-3.889l-0.14-0.271
		c0,0-0.206-0.398-0.594-1.145c-0.186-0.382-0.447-0.803-0.695-1.384c-0.251-0.573-0.539-1.231-0.862-1.969
		c-0.606-1.512-1.325-3.359-2.035-5.563c-0.379-1.081-0.729-2.272-1.103-3.52c-0.387-1.238-0.747-2.57-1.124-3.957
		c-0.76-2.768-1.507-5.807-2.248-9.037c-0.746-3.227-1.47-6.657-2.184-10.214c-1.425-7.116-2.767-14.762-3.991-22.437
		c-0.223-1.393-0.44-2.785-0.655-4.177c-5.633,2.123-11.142,4.471-16.52,7.025c0.167,0.474,0.333,0.948,0.501,1.422
		C166.097,73.541,168.867,80.995,171.638,87.937z M110.981,119.682c1.866,2.698,3.712,5.281,5.533,7.69
		c0.904,1.207,1.787,2.376,2.68,3.488c0.878,1.118,1.727,2.195,2.585,3.206c1.671,2.043,3.294,3.861,4.747,5.452
		c0.743,0.784,1.438,1.518,2.08,2.197c0.67,0.658,1.286,1.263,1.842,1.809c1.09,1.099,2.055,1.893,2.671,2.454
		c0.626,0.554,0.96,0.849,0.96,0.849c1,0.886,2.517,0.987,3.636,0.162c1.287-0.949,1.561-2.762,0.612-4.049l-0.11-0.149
		c0,0-0.242-0.329-0.697-0.946c-0.447-0.625-1.14-1.485-1.919-2.701c-0.395-0.596-0.833-1.257-1.309-1.976
		c-0.452-0.74-0.941-1.541-1.463-2.397c-1.016-1.734-2.14-3.699-3.279-5.91c-0.587-1.088-1.161-2.254-1.752-3.459
		c-0.603-1.194-1.192-2.455-1.792-3.752c-1.21-2.585-2.417-5.355-3.622-8.24c-1.209-2.882-2.396-5.896-3.571-8.967
		c-1.134-2.99-2.246-6.044-3.324-9.113c-4.429,3.773-8.685,7.708-12.755,11.792c0.875,1.396,1.754,2.784,2.637,4.155
		C107.242,114.164,109.11,116.985,110.981,119.682z M72.945,286.088c1.331,1.145,3.319,1.289,4.818,0.23
		c1.767-1.249,2.187-3.695,0.938-5.462l-0.159-0.225c0,0-0.275-0.389-0.79-1.117c-0.499-0.744-1.299-1.75-2.181-3.167
		c-0.887-1.411-1.983-3.084-3.094-5.13c-0.575-1.002-1.179-2.069-1.757-3.244c-0.58-1.173-1.246-2.346-1.831-3.664
		c-0.596-1.308-1.253-2.63-1.859-4.055c-0.599-1.431-1.247-2.879-1.853-4.409c-1.218-3.056-2.43-6.305-3.584-9.711
		c-1.149-3.41-2.271-6.953-3.306-10.598c-0.528-1.816-1.039-3.653-1.52-5.512c-0.503-1.846-0.963-3.72-1.423-5.59
		c-0.922-3.738-1.751-7.509-2.538-11.219c-0.759-3.724-1.479-7.388-2.104-10.954c-0.124-0.689-0.243-1.371-0.361-2.052
		c-2.645,11.798-4.04,23.844-4.04,35.982c0,0.384,0.014,0.764,0.017,1.147c-1.461,3.695-2.707,7.492-3.743,11.372
		c1.061,1.747,2.13,3.462,3.198,5.135c2.101,3.282,4.232,6.4,6.319,9.308c1.04,1.455,2.119,2.84,3.122,4.187
		c1.013,1.344,2.076,2.603,3.047,3.824c0.957,1.228,2.002,2.342,2.923,3.427c0.919,1.087,1.856,2.08,2.741,3.005
		c1.719,1.878,3.362,3.411,4.683,4.679c1.314,1.273,2.471,2.177,3.196,2.831C72.548,285.747,72.945,286.088,72.945,286.088z"/>
</g>
<g id="Layer_5">
	<path fill="#FF6E83" d="M60.68,166.337C39.479,139.813,37.035,107,40.138,80.279c3.402-29.295,30.751-47.421,54.412-15.497
		c3.035,4.095,7.612,19.435,11.183,38.06C86.468,121.253,71.07,142.908,60.68,166.337z M449.479,166.401
		c21.249-26.535,23.7-59.38,20.594-86.123c-3.402-29.295-30.751-47.421-54.412-15.497c-3.039,4.1-7.623,19.472-11.196,38.128
		C423.714,121.324,439.103,142.975,449.479,166.401z M258.024,449.48c-7.744,13.798-21.354,23.857-37.452,26.796
		c10.571,2.368,22.835,4.143,35.937,4.143c13.689,0,26.476-1.932,37.359-4.46C278.473,472.661,265.509,462.816,258.024,449.48z"/>
</g>
</svg>
