<?xml version="1.0" encoding="utf-8"?>
<!-- Generator: Adobe Illustrator 18.1.0, SVG Export Plug-In . SVG Version: 6.00 Build 0)  -->
<!DOCTYPE svg PUBLIC "-//W3C//DTD SVG 1.0//EN" "http://www.w3.org/TR/2001/REC-SVG-20010904/DTD/svg10.dtd">
<svg version="1.0" id="Layer_1" xmlns="http://www.w3.org/2000/svg" xmlns:xlink="http://www.w3.org/1999/xlink" x="0px" y="0px"
	 width="72px" height="72px" viewBox="0 0 72 72" enable-background="new 0 0 72 72" xml:space="preserve">
<path fill="#D1CFC3" d="M72,66.7c0.3-0.7-31.1-24.4-31.1-24.4c-3.9-2.9-6-2.9-9.9,0c0,0-31.3,23.6-31,24.4l0,0c0,0,0,0,0,0
	c0.3,0.7,0.7,1.4,1.1,2c0.2,0.3,0.5,0.5,0.7,0.7l0,0c0,0,0,0,0.1,0c1,0.9,2.3,1.5,3.7,1.7c0,0,0,0,0.1,0h0.1c0.2,0,0.4,0.1,0.6,0.1
	h59.2C68.5,71.1,71,69.3,72,66.7C72,66.7,72,66.7,72,66.7L72,66.7z"/>
</svg>
