<svg xmlns="http://www.w3.org/2000/svg" viewBox="0 0 512 512" enable-background="new 0 0 512 512"><path fill="#D5DEE4" d="M99.122 230.878C86.175 253.345 63.57 260.895 56.98 261.49c-1.022.093-1.833-1.163-1.5-2.375.93-3.38 1.333-7.11 1.135-11.06-3.774.434-6.777.12-8.146-.267-.49-.138-.64-.86-.274-1.36 3.032-4.12 4.493-10.454 2.768-17.86-4.214-7.92-10.923-15.906-20.69-23.164l72.453-9.338s8.1 14.5-3.606 34.812zm382.84 54.944l-284.268 61.72c15.987 34.353 36.784 13 33.816 85.27-.25 6.053-.293 10.923-.143 14.836-1.23 4.993-2.27 9.596-2.163 11.367.766 12.767 42.73 15.807 39.333-1.86-.63-3.273-2.098-18.774-2.667-20-.087.008-.167.01-.253.018 1.722-5.796 3.293-12.15 4.88-18.522 14.148-56.75 4.92-69.882 100.356-75.123 30.32-1.665 54.19 1.53 49.823 48.338-1.285 13.778-3.864 36.875-.545 50.276-.9 5.433-1.71 10.63-1.593 12.54.766 12.77 41.73 15.81 38.333-1.86-.63-3.27-3.168-20-2.084-23.543l-.107.01c1.88-4.07 3.506-8.623 4.76-13.615 2.31-9.195 15.93-123.562 22.522-129.848z"/></svg>