<?xml version="1.0" encoding="utf-8"?>
<!-- Generator: Adobe Illustrator 18.1.0, SVG Export Plug-In . SVG Version: 6.00 Build 0)  -->
<!DOCTYPE svg PUBLIC "-//W3C//DTD SVG 1.0//EN" "http://www.w3.org/TR/2001/REC-SVG-20010904/DTD/svg10.dtd">
<svg version="1.0" id="Layer_1" xmlns="http://www.w3.org/2000/svg" xmlns:xlink="http://www.w3.org/1999/xlink" x="0px" y="0px"
	 width="72px" height="72px" viewBox="0 0 72 72" enable-background="new 0 0 72 72" xml:space="preserve">
<path fill="#E5AB83" d="M22.6,16.1C22.6,16.1,22.6,16.1,22.6,16.1c-0.5,0-1-0.3-1.2-0.7c-0.1-0.1,0-0.3,0.1-0.4
	c0.1-0.1,0.3,0,0.4,0.1c0.2,0.2,0.4,0.4,0.7,0.4h0c0.3,0,0.6-0.1,0.7-0.4c0.1-0.1,0.3-0.2,0.4-0.1c0.1,0.1,0.2,0.3,0.1,0.4
	C23.6,15.8,23.1,16.1,22.6,16.1z M25.8,9.7c-0.1,0.1-0.2,0.3-0.1,0.4c0.1,0.1,0.3,0.2,0.4,0.1c0,0,0,0,0.1-0.1c0,0,0.1-0.1,0.2-0.1
	c0.1-0.1,0.4-0.1,0.6-0.1c0.1,0,0.2,0,0.3,0.1c0.1,0,0.2,0.1,0.3,0.1c0.1,0,0.1,0.1,0.2,0.1c0,0,0.1,0.1,0.1,0.1l0,0
	c0.1,0.1,0.1,0.1,0.2,0c0.1-0.1,0.1-0.1,0-0.2c0,0,0,0-0.1-0.1c0-0.1-0.1-0.1-0.2-0.2c-0.1-0.1-0.2-0.2-0.3-0.2
	c-0.1-0.1-0.3-0.1-0.4-0.1c-0.3,0-0.6,0-0.9,0.1c-0.1,0-0.2,0.1-0.3,0.1C25.9,9.7,25.9,9.7,25.8,9.7C25.9,9.7,25.8,9.7,25.8,9.7z
	 M19,10.2c0.1,0.1,0.3,0,0.4-0.1s0-0.3-0.1-0.4c0,0,0,0-0.1,0c-0.1,0-0.1-0.1-0.3-0.1c-0.3-0.1-0.6-0.1-0.9-0.1
	c-0.2,0-0.3,0.1-0.4,0.1c-0.1,0.1-0.2,0.2-0.3,0.2C17.1,9.9,17.1,10,17,10c0,0.1-0.1,0.1-0.1,0.1c0,0.1,0,0.1,0,0.2
	c0.1,0.1,0.2,0.1,0.2,0l0,0c0,0,0,0,0.1-0.1c0,0,0.1-0.1,0.2-0.1c0.1,0,0.2-0.1,0.3-0.1c0.1,0,0.2-0.1,0.3-0.1
	c0.2,0,0.5,0.1,0.6,0.1c0.1,0,0.1,0.1,0.2,0.1C18.9,10.2,18.9,10.2,19,10.2C18.9,10.2,18.9,10.2,19,10.2z M51.6,14.6
	c0.1-0.1,0-0.3-0.1-0.4c-0.1-0.1-0.3,0-0.4,0.1c-0.2,0.2-0.4,0.4-0.7,0.4c0,0,0,0,0,0c-0.3,0-0.6-0.1-0.7-0.4
	c-0.1-0.1-0.3-0.2-0.4-0.1c-0.1,0.1-0.2,0.3-0.1,0.4c0.3,0.4,0.7,0.7,1.2,0.7h0C50.9,15.3,51.3,15,51.6,14.6z M46.7,9.7
	c0.2,0,0.3-0.1,0.4-0.3c0-0.2-0.1-0.3-0.3-0.4l0,0c0,0-0.6-0.1-1.1,0c-0.1,0-0.3,0-0.4,0.1c-0.1,0-0.3,0.1-0.4,0.1
	c-0.1,0-0.2,0.1-0.2,0.2c-0.1,0-0.1,0.1-0.1,0.1c-0.1,0.1-0.1,0.2-0.1,0.3c0.1,0.1,0.2,0.1,0.3,0.1l0.1,0c0,0,0,0,0.1,0
	c0,0,0.1-0.1,0.2-0.1c0.1,0,0.2-0.1,0.3-0.1c0.1,0,0.2,0,0.3,0C46.2,9.5,46.7,9.6,46.7,9.7C46.7,9.6,46.7,9.7,46.7,9.7z M53.9,9
	C53.9,9,53.9,9,53.9,9c-0.2,0-0.3,0.2-0.3,0.4s0.2,0.3,0.4,0.2c0,0,0.5-0.1,1-0.1c0.1,0,0.2,0,0.3,0c0.1,0,0.2,0.1,0.3,0.1
	c0.1,0,0.1,0.1,0.2,0.1c0,0,0.1,0,0.1,0l0.1,0c0.1,0.1,0.2,0,0.3-0.1c0.1-0.1,0.1-0.2,0-0.3c0,0,0,0-0.1-0.1c-0.1,0-0.1-0.1-0.2-0.2
	c-0.1,0-0.2-0.1-0.4-0.1C55.3,9.1,55.1,9,55,9C54.5,9,53.9,9,53.9,9L53.9,9z"/>
</svg>
