<?xml version="1.0" encoding="utf-8"?>
<!-- Generator: Adobe Illustrator 18.1.0, SVG Export Plug-In . SVG Version: 6.00 Build 0)  -->
<!DOCTYPE svg PUBLIC "-//W3C//DTD SVG 1.0//EN" "http://www.w3.org/TR/2001/REC-SVG-20010904/DTD/svg10.dtd">
<svg version="1.0" id="Layer_1" xmlns="http://www.w3.org/2000/svg" xmlns:xlink="http://www.w3.org/1999/xlink" x="0px" y="0px"
	 width="72px" height="72px" viewBox="0 0 72 72" enable-background="new 0 0 72 72" xml:space="preserve">
<path fill="#959DA3" d="M41.5,9.6c0-0.1,0-0.1-0.1-0.1c-0.1,0-0.1,0-0.1,0.1l0,0l0,0.2l0,0l0,0c0,0.1,0,0.1,0.1,0.1
	c0.1,0,0.1,0,0.1-0.1l0,0l0,0L41.5,9.6L41.5,9.6z"/>
<path fill="#959DA3" d="M46.9,10.6c0-0.1,0-0.1-0.1-0.1c-0.1,0-0.1,0-0.1,0.1l0,0l0,0.2l0,0l0,0c0,0.1,0,0.1,0.1,0.1
	c0.1,0,0.1,0,0.1-0.1l0,0l0,0L46.9,10.6L46.9,10.6z"/>
</svg>
