<svg xmlns="http://www.w3.org/2000/svg" viewBox="0 0 72 72" enable-background="new 0 0 72 72"><path fill="#E2A042" d="M63.3 59.49l-2.87 2.47c-1.68 1.446-4.216 1.257-5.664-.424-1.447-1.68-1.258-4.217.423-5.665l2.866-2.467c.068-.06.146-.098.217-.152-.874-.21-1.892-.42-2.405.024-.49.42-1.226.366-1.648-.123-.42-.487-.366-1.225.123-1.646 1.208-1.04 2.79-1.414 4.455-1.048 1.713.373 3.437 1.52 4.983 3.317.124.143.194.308.237.48 1.092 1.66.826 3.907-.72 5.238zM38.067 44.43c-3.144 0-5.693 2.55-5.693 5.694s2.55 4.295 5.693 4.295 5.693-1.153 5.693-4.297-2.548-5.693-5.692-5.693zM19.765 10.666c-.753-.608-1.858-.488-2.464.265-.493.615-1.03 1.04-1.6 1.316l2.583-3.21c1.683-2.09 1.353-5.15-.737-6.832s-5.15-1.353-6.833.737L7.84 6.508c-1.6 1.987-1.607 5.14.188 6.894.08.103.17.198.274.283 2.138 1.72 4.145 2.41 5.93 2.41 2.424 0 4.436-1.274 5.797-2.964.605-.754.486-1.857-.266-2.464zm5.22 49.173l-.17-.47-.125-1.06c-.077-.576-.067-1.167-.052-1.763.037-.564.1-1.135.22-1.7-1.813 1.42-4.126 2.837-6.677 3.828-.365.14-.735.268-1.104.38l-.55.156-.45.106-.67.098c-.204.024-.3.008-.454.022-.28.006-.667 0-.992-.06-1.366-.172-2.69-.867-3.66-1.897-.976-1.04-1.6-2.366-1.66-3.85l-.033-.34.04-.195c.025-.126.042-.252.05-.38-.01-.12.044-.275.098-.43l.138-.463c.096-.307.3-.566.425-.86.174-.266.4-.49.583-.75.24-.205.478-.408.71-.61.27-.15.545-.287.805-.446l.863-.276.053-.018.027-.01h.002l.303-.028.6-.058c.208.072.363.047.6.104.234.105.508.104.716.257.214.128.46.208.63.39.19.15.39.29.52.49.156.174.31.347.395.558.11.196.235.38.272.6l.097.304.026.073.012.037.002.007.01.093c.017.267.088.687.025.715-.015.173-.1.55-.23.805-.08.125-.12.27-.21.375-.09.103-.17.206-.244.308-.362.34-.705.54-.96.628-.258.075-.393.13-.393.13l-.39.165c-.7.294-1.105 1.058-.924 1.82.2.85 1.052 1.376 1.9 1.174 0 0 .313-.075.89-.247.57-.188 1.386-.592 2.21-1.37.187-.21.38-.438.58-.68.194-.243.335-.543.507-.837.3-.62.546-1.274.608-2.234.057-.533-.005-.698-.016-1.03l-.017-.228-.025-.184-.006-.018-.01-.037-.018-.073-.04-.148-.166-.6c-.093-.412-.294-.795-.5-1.188-.185-.408-.456-.77-.754-1.126-.27-.38-.628-.69-1.002-.997-.35-.335-.796-.554-1.23-.802-.426-.27-.94-.37-1.426-.545-.512-.142-1.16-.182-1.74-.225l-.603.043-.304.022-.153.01c-.365.05-.115.018-.202.03l-.023.007-.047.01-.094.026c-.5.138-1.017.267-1.52.448-.476.24-.967.48-1.44.754-.43.335-.875.67-1.285 1.044-.36.422-.754.834-1.072 1.3-.272.495-.602.974-.803 1.512l-.277.823c-.093.272-.184.545-.214.884-.046.323-.083.65-.11.976l-.038.486.024.342c.054 2.183.994 4.493 2.542 6.188 1.534 1.72 3.667 2.91 5.933 3.268.28.058.566.09.85.106.288.02.558.052.883.036.298-.01.658-.015.9-.04l.672-.082.188-.027.097-.02.194-.038.385-.08c.247-.063.5-.12.74-.19.48-.134.95-.283 1.4-.444 2.004-.73 3.8-1.623 5.416-2.602-.025-.087-.047-.16-.06-.185zm-4.55-38.627c0-1.334.38-2.578 1.02-3.686-3.62.1-6.53 3.06-6.53 6.706 0 3.71 3.007 6.716 6.716 6.716.268 0 .528-.02.786-.05-1.24-2.584-1.99-5.768-1.99-9.687zm34.512-3.696c-.17 0-.337.013-.503.025.872 1.482 1.38 3.202 1.38 5.044 0 3.283-.6 6.03-1.632 8.318.248.028.5.045.755.045 3.71 0 6.716-3.008 6.716-6.717s-3.007-6.714-6.716-6.714zm-25.684-4.844c2.648-.27 5.11.5 7.03 1.95 1.07.806 2.507.803 3.577-.003 1.666-1.257 3.738-2.003 5.986-2.003 3.318 0 6.25 1.627 8.06 4.12C51.622 10.234 45.44 5.565 38.15 5.565c-6.96 0-12.923 4.25-15.444 10.297 1.675-1.758 4.082-2.938 6.557-3.19z"/></svg>