<?xml version="1.0" encoding="utf-8"?>
<!-- Generator: Adobe Illustrator 18.1.0, SVG Export Plug-In . SVG Version: 6.00 Build 0)  -->
<!DOCTYPE svg PUBLIC "-//W3C//DTD SVG 1.0//EN" "http://www.w3.org/TR/2001/REC-SVG-20010904/DTD/svg10.dtd">
<svg version="1.0" id="Layer_1" xmlns="http://www.w3.org/2000/svg" xmlns:xlink="http://www.w3.org/1999/xlink" x="0px" y="0px"
	 width="72px" height="72px" viewBox="0 0 72 72" enable-background="new 0 0 72 72" xml:space="preserve">
<path fill="#E5AB83" d="M55.8,34.6C55.8,34.6,55.8,34.6,55.8,34.6c-0.9,0-1.8-0.5-2.3-1.2c-0.2-0.3-0.1-0.6,0.2-0.8
	c0.3-0.2,0.6-0.1,0.8,0.2c0.3,0.4,0.8,0.7,1.3,0.7h0c0.5,0,1-0.3,1.3-0.7c0.2-0.3,0.5-0.3,0.8-0.2c0.3,0.2,0.3,0.5,0.2,0.8
	C57.6,34.1,56.7,34.6,55.8,34.6z M61.9,23.4c-0.2,0.1-0.3,0.4-0.1,0.6c0.1,0.2,0.4,0.3,0.6,0.1c0,0,0.1,0,0.1-0.1
	c0.1-0.1,0.2-0.2,0.4-0.2c0.1-0.1,0.3-0.1,0.5-0.2c0.1,0,0.2,0,0.3-0.1c0.1,0,0.2,0,0.3,0l0.3,0c0.1,0,0.2,0.1,0.3,0.1
	c0.2,0,0.3,0.2,0.5,0.3c0.1,0,0.1,0.1,0.2,0.2c0,0,0.1,0.1,0.1,0.1c0.1,0.1,0.1,0.1,0.1,0.1l0,0c0.1,0.1,0.2,0.1,0.3,0
	c0.1-0.1,0.1-0.2,0.1-0.3c0,0,0-0.1-0.1-0.2c0,0-0.1-0.1-0.1-0.2c-0.1-0.1-0.1-0.2-0.2-0.2c-0.2-0.1-0.4-0.3-0.6-0.4
	c-0.1,0-0.2-0.1-0.4-0.2l-0.4-0.1c-0.1,0-0.3,0-0.4,0c-0.1,0-0.3,0-0.4,0c-0.3,0-0.5,0.1-0.7,0.2c-0.2,0.1-0.3,0.2-0.5,0.2
	C62,23.3,61.9,23.3,61.9,23.4C61.9,23.3,61.9,23.4,61.9,23.4z M49.2,24.1c0.2,0.1,0.5,0.1,0.6-0.2c0.1-0.2,0.1-0.5-0.2-0.6
	c0,0-0.1,0-0.2-0.1c-0.1-0.1-0.3-0.2-0.5-0.2c-0.4-0.1-1-0.2-1.5-0.2c-0.6,0.1-1.1,0.3-1.4,0.7c-0.2,0.1-0.3,0.3-0.3,0.4
	c-0.1,0.1-0.1,0.2-0.1,0.2l0,0c-0.1,0.1,0,0.3,0.1,0.3c0.1,0.1,0.3,0,0.3-0.1l0,0c0,0,0.1-0.2,0.4-0.4c0.3-0.2,0.7-0.4,1.1-0.4
	c0.4,0,0.9,0.1,1.2,0.2c0.2,0.1,0.2,0.1,0.3,0.2C49.1,24.1,49.2,24.1,49.2,24.1C49.2,24.1,49.2,24.1,49.2,24.1z"/>
</svg>
