<svg xmlns="http://www.w3.org/2000/svg" viewBox="0 0 512 512" enable-background="new 0 0 512 512"><path fill="#B4ACAE" d="M307.646 265.95c-1.085-.385-2.167-.742-3.25-1.087.52-2.963.804-6.002.804-9.104v-.005c0-30.433-12.688-22.316-13.928-50.71-.014-.85-.037-1.696-.077-2.54-.013-.693-.022-1.398-.022-2.13l-.108-.15c-1.107-14.967-6.148-28.935-14.177-41.032 1.44-3.345 2.89-6.825 4.338-10.414 1.99-4.93 3.982-10.058 5.902-15.3 1.924-5.243 3.825-10.587 5.657-15.945 1.812-5.367 3.575-10.74 5.25-16.032 1.682-5.288 3.228-10.522 4.7-15.556 1.466-5.037 2.816-9.91 4.06-14.49 1.26-4.567 2.334-8.9 3.376-12.79l2.674-10.415c.757-3.013 1.4-5.5 1.853-7.453l.32-1.353.246-1.17c.067-.342.153-.696.2-.977l.13-.78c.05-.254.076-.44.09-.608l.05-.44c.03-.246.048-.373.048-.373l.81-6.22c.775-5.94-3.413-11.383-9.354-12.157-.708-.092-1.468-.108-2.155-.065l-.785.054-.98.082c-.398.03-.847.09-1.326.174l-1.657.29c-.61.12-1.218.286-1.92.46-.703.178-1.43.377-2.19.62-.762.248-1.577.524-2.393.832-3.344 1.22-7.128 3.034-11.123 5.392-3.97 2.376-8.2 5.272-12.37 8.692-4.18 3.412-8.377 7.315-12.46 11.62-4.087 4.307-8.04 9.015-11.815 14.033-3.77 5.02-7.354 10.335-10.65 15.88-3.307 5.54-6.356 11.29-9.134 17.144-4.074 8.67-7.536 17.57-10.257 26.39-7.36-1.625-15.04-2.49-22.94-2.49-1.084 0-2.162.02-3.237.053 1.616-4.816 3.197-9.632 4.7-14.38 1.683-5.288 3.23-10.522 4.7-15.556 1.467-5.037 2.817-9.91 4.06-14.49 1.26-4.567 2.335-8.9 3.377-12.79l2.67-10.415c.758-3.013 1.4-5.5 1.854-7.453l.32-1.353.246-1.17c.067-.342.153-.696.2-.977l.13-.782c.05-.252.076-.437.09-.606l.05-.44c.03-.246.048-.373.048-.373l.81-6.217c.774-5.94-3.414-11.384-9.355-12.158-.708-.092-1.468-.108-2.155-.065l-.786.056-.98.082c-.398.03-.847.09-1.326.174l-1.656.29c-.61.12-1.218.286-1.92.46-.703.178-1.43.377-2.19.62-.762.248-1.577.524-2.393.832-3.343 1.22-7.127 3.034-11.122 5.392-3.97 2.376-8.2 5.272-12.37 8.692-4.18 3.412-8.377 7.315-12.46 11.62-4.087 4.307-8.04 9.015-11.815 14.033-3.77 5.02-7.354 10.338-10.65 15.883-3.307 5.54-6.356 11.29-9.134 17.144-5.508 11.724-9.907 23.864-12.852 35.668-2.974 11.797-4.564 23.228-4.942 33.42-.07 1.885-.093 3.71-.09 5.504-5.452 10.23-8.87 21.545-9.784 33.5l-.256.35c0 34.005-13.915 22-13.915 55.384 0 29.26 24.07 53.197 54.557 55.228-2.444 8.24-3.763 16.96-3.763 25.99 0 27.646 12.3 52.416 31.724 69.145v63.915c0 22.998 45.59 24.64 45.59 0V427.15c.094.014.188.022.28.036 1.336-5.284 7.332-4.7 8.207.85.038.003.074.008.11.01v41.996c0 22.998 45.59 24.64 45.59 0v-43.076c14.43 2.387 29.54 7.127 44.403 17.185.255.173.507.33.762.498h-18.348c-27.025 0-28.955 43.48 0 43.48h50.107c36.296 0 65.72-29.423 65.72-65.72 0-.95-.032-1.89-.072-2.83.352-26.272 2.94-117.756-98.164-153.627z"/></svg>