<svg xmlns="http://www.w3.org/2000/svg" viewBox="0 0 512 512" enable-background="new 0 0 512 512"><path fill="#597B91" d="M117.008 161.748s.104 0 .304.003c.197.007.508-.002.87.025.745.037 1.81.114 3.065.303.652.084 1.298.193 2.05.364.78.18 1.542.457 2.402.72.863.26 1.69.628 2.617.975.924.355 1.74.783 2.682 1.206 1.83.87 3.676 1.954 5.49 3.246 1.835 1.263 3.603 2.78 5.313 4.45 1.707 1.673 3.308 3.57 4.782 5.61 1.45 2.09 2.816 4.257 3.967 6.648 1.17 2.327 2.132 4.884 2.932 7.42.395 1.277.706 2.64.992 3.95.274 1.316.518 2.63.653 4.016.154 1.36.267 2.696.312 4.014.03 1.377-.006 2.73-.082 4.036-.044.66-.07 1.285-.15 1.936-.09.67-.156 1.315-.284 1.963-.244 1.29-.442 2.497-.736 3.66-.702 2.478-1.418 4.564-2.375 6.497-.51.97-.938 1.84-1.454 2.632-.502.793-.903 1.468-1.456 2.125-.974 1.28-1.967 2.188-2.55 2.782-.293.297-.582.515-.752.66l-.267.22-.062.05c-2.39 1.957-5.875 1.697-7.97-.504l-.673-.71c-.388-.45-1.04-1.086-1.69-1.815-.68-.73-1.628-1.625-2.506-2.53-.43-.44-.964-.953-1.498-1.45-.535-.5-1.024-1.02-1.56-1.536-.595-.54-1.145-1.104-1.738-1.66-.303-.277-.557-.57-.836-.856l-.928-.89c-.633-.596-1.185-1.228-1.788-1.845-.682-.622-1.246-1.3-1.88-1.954-.62-.648-1.223-1.35-1.867-2.045-.316-.346-.63-.695-.95-1.045-.297-.362-.567-.725-.897-1.09-1.3-1.44-2.457-2.947-3.694-4.486-1.16-1.547-2.364-3.127-3.427-4.74-.26-.405-.572-.79-.84-1.193l-.782-1.22c-.525-.805-1.025-1.61-1.507-2.43-1-1.603-1.843-3.25-2.678-4.817-.792-1.594-1.507-3.147-2.137-4.623-.614-1.516-1.114-2.866-1.51-4.123l-1.034-3.494c-.31-1.027-.456-1.923-.6-2.495-.123-.59-.16-.928-.16-.928-.83-7.446 4.533-14.154 11.98-14.983.526-.06 1.048-.086 1.566-.084l3.342.035z"/></svg>