<?xml version="1.0" encoding="utf-8"?>
<!-- Generator: Adobe Illustrator 18.1.0, SVG Export Plug-In . SVG Version: 6.00 Build 0)  -->
<!DOCTYPE svg PUBLIC "-//W3C//DTD SVG 1.0//EN" "http://www.w3.org/TR/2001/REC-SVG-20010904/DTD/svg10.dtd">
<svg version="1.0" id="Layer_1" xmlns="http://www.w3.org/2000/svg" xmlns:xlink="http://www.w3.org/1999/xlink" x="0px" y="0px"
	 width="72px" height="72px" viewBox="0 0 72 72" enable-background="new 0 0 72 72" xml:space="preserve">
<path fill="#FFD3B6" d="M61.2,35.6l0.1-0.9C61.3,20.8,50,9.4,36,9.4c-14,0-25.4,11.4-25.4,25.4l0.1,0.9c0,0,0,0,0,0
	c-2.4,0.5-4.3,2.6-4.3,5.2c0,2.9,2.4,5.3,5.3,5.3c0.1,0,0.1,0,0.2,0l0.2,2c0,13.1,10.6,23.8,23.8,23.8c13.1,0,23.8-10.7,23.8-23.8
	l0.2-2c0.1,0,0.2,0,0.3,0c2.9,0,5.3-2.4,5.3-5.3C65.6,38.2,63.7,36.1,61.2,35.6z"/>
<path fill="#2B3B47" d="M23.4,37.1c-0.1-1.3-1.2-2.3-2.5-2.3c-1.3,0-2.4,1-2.5,2.3h0v3.5h0c0,0,0,0,0,0c0,1.4,1.1,2.5,2.5,2.5
	c1.4,0,2.5-1.1,2.5-2.5c0,0,0,0,0,0h0L23.4,37.1L23.4,37.1z"/>
<path fill="#2B3B47" d="M53.6,37.1c-0.1-1.3-1.2-2.3-2.5-2.3c-1.3,0-2.4,1-2.5,2.3h0v3.5h0c0,0,0,0,0,0c0,1.4,1.1,2.5,2.5,2.5
	c1.4,0,2.5-1.1,2.5-2.5c0,0,0,0,0,0l0,0L53.6,37.1L53.6,37.1z"/>
<path fill="#959DA3" d="M20.3,37.3c0-0.3-0.3-0.6-0.6-0.6c-0.3,0-0.6,0.3-0.6,0.6h0v0.9h0v0c0,0.3,0.3,0.6,0.6,0.6
	c0.3,0,0.6-0.3,0.6-0.6v0l0,0L20.3,37.3L20.3,37.3z"/>
<path fill="#959DA3" d="M50.7,37.3c0-0.3-0.3-0.6-0.6-0.6c-0.3,0-0.6,0.3-0.6,0.6h0v0.9h0v0c0,0.3,0.3,0.6,0.6,0.6
	c0.3,0,0.6-0.3,0.6-0.6v0l0,0L50.7,37.3L50.7,37.3z"/>
<path fill="#EDC0A2" d="M33.9,69.5c-5.4,0-10.5-1.6-14.7-4.5C23.5,69.3,29.5,72,36,72c13.1,0,23.8-10.6,23.8-23.8l0.1-1.2
	C58,59.7,47.1,69.5,33.9,69.5z"/>
<path fill="#E5AB83" d="M36,51.1C36,51.1,36,51.1,36,51.1c-1.7,0-3.3-0.8-4.2-2.3c-0.3-0.5-0.2-1.1,0.3-1.4c0.5-0.3,1.1-0.2,1.4,0.3
	C34.1,48.5,35,49,36,49h0c1,0,1.9-0.5,2.4-1.3c0.3-0.5,0.9-0.6,1.4-0.3s0.6,0.9,0.3,1.4C39.2,50.2,37.7,51.1,36,51.1z"/>
<path fill="#E5AB83" d="M36,61.5c-1.6,0-3.3-0.5-4.6-1.6c-0.5-0.3-0.5-1-0.2-1.4c0.3-0.5,1-0.5,1.4-0.2c2.1,1.6,4.7,1.6,6.8,0
	c0.5-0.3,1.1-0.3,1.4,0.2c0.3,0.5,0.3,1.1-0.2,1.4C39.2,60.9,37.6,61.5,36,61.5z"/>
<path fill="#FCB535" d="M23.6,32.8c0,0-0.1,0-0.2-0.1c-0.2,0-0.4-0.1-0.7-0.1c-0.6-0.1-1.4-0.2-2.1-0.2c-0.8,0-1.5,0.1-1.9,0.3
	c-0.1,0-0.2,0.1-0.3,0.1c-0.1,0-0.1,0.1-0.2,0.1C18,32.9,18,33,18,33l-0.3,0.2c-0.5,0.3-1.2,0.2-1.5-0.3c-0.3-0.4-0.2-1,0.2-1.3
	c0,0,0.1-0.1,0.3-0.3c0.1-0.1,0.2-0.2,0.4-0.3c0.1-0.1,0.3-0.2,0.5-0.3c0.7-0.4,1.7-0.6,2.7-0.7c1-0.1,1.9-0.1,2.6-0.1
	c0.3,0,0.6,0,0.8,0c0.2,0,0.3,0,0.3,0c0.8,0.1,1.4,0.8,1.4,1.6c-0.1,0.8-0.8,1.4-1.6,1.4C23.7,32.8,23.7,32.8,23.6,32.8L23.6,32.8z"
	/>
<path fill="#FCB535" d="M47.7,30c0,0,0.1,0,0.3,0c0.2,0,0.5,0,0.8,0c0.7,0,1.6,0,2.6,0.1c1,0.1,1.9,0.4,2.7,0.7
	c0.2,0.1,0.4,0.2,0.5,0.3c0.1,0.1,0.3,0.2,0.4,0.3c0.2,0.2,0.3,0.3,0.3,0.3c0.4,0.4,0.5,1.1,0.1,1.5c-0.4,0.4-0.9,0.5-1.3,0.2
	l-0.3-0.2c0,0-0.1,0-0.1-0.1c0,0-0.1-0.1-0.2-0.1c-0.1,0-0.2-0.1-0.3-0.1c-0.4-0.2-1.2-0.3-1.9-0.3c-0.8,0-1.6,0.1-2.1,0.2
	c-0.3,0-0.5,0.1-0.7,0.1c-0.2,0-0.2,0.1-0.2,0.1l0,0c-0.8,0.2-1.6-0.3-1.8-1.1c-0.2-0.8,0.3-1.6,1.1-1.8C47.6,30,47.6,30,47.7,30z"
	/>
<path fill="#FFB636" d="M48.6,2.8c-1.3-0.7-7-2.4-8.4-2.6C39.1,0.1,37.9,0,36.7,0c0,0-0.1,0-0.1,0c-0.8,0-1.5,0-1.6,0
	C17.4,0.4,9.7,14,9.7,24.1v12.1c0,0.5,0.4,0.9,0.9,0.8c2.6-0.5,3-3.3,4.2-10.4c0.9-5.4,8.1-11.1,10-12.5c0.3-0.2,0.7-0.2,1,0
	l7.1,4.6c1.3,0.8,3-0.1,2.9-1.6l0-0.9c3.4,1.9,9.9,5.7,12.4,6c1.7,0.2,6.7,0.4,8.4,5.1c1.9,5.2,1.8,8,3.9,8.7c0.6,0.2,1.3-0.3,1.3-1
	v-11C61.8,16.7,57.7,7.4,48.6,2.8z"/>
</svg>
