<svg xmlns="http://www.w3.org/2000/svg" viewBox="0 0 512 512" enable-background="new 0 0 512 512"><path fill="#FFA1E0" d="M250.508 383.35l-28.792-21.137c-8.132-5.97-1.542-15.322 10.796-15.322h45.703c12.338 0 18.928 9.354 10.796 15.324l-28.79 21.136c-2.67 1.96-7.04 1.96-9.71 0zM78.854 166.4c14.83-21.14 33.975-39.837 56.312-54.71C107.486 76.746 74.07 63.628 62.1 65.763c-12.163 2.17-40.185 72.9-7.75 130.54 6.968-10.927 15.2-20.968 24.504-29.902zm348.644-5.223c11.448 9.993 21.47 21.575 29.74 34.394 31.793-57.503 3.948-127.65-8.165-129.81-12.02-2.145-45.664 11.098-73.41 46.37 20.192 13.56 37.746 30.253 51.835 49.046z"/></svg>