<?xml version="1.0" encoding="utf-8"?>
<!-- Generator: Adobe Illustrator 18.1.0, SVG Export Plug-In . SVG Version: 6.00 Build 0)  -->
<!DOCTYPE svg PUBLIC "-//W3C//DTD SVG 1.0//EN" "http://www.w3.org/TR/2001/REC-SVG-20010904/DTD/svg10.dtd">
<svg version="1.0" id="Layer_1" xmlns="http://www.w3.org/2000/svg" xmlns:xlink="http://www.w3.org/1999/xlink" x="0px" y="0px"
	 width="72px" height="72px" viewBox="0 0 72 72" enable-background="new 0 0 72 72" xml:space="preserve">
<path fill="#EDC0A2" d="M68.6,35.8C68.6,35.8,68.6,35.8,68.6,35.8L64,40.4c-0.1,0.6-0.3,1.2-0.4,1.9c-0.1,0.4-0.1,0.7-0.2,1.1
	c0,0.4-0.1,0.7-0.1,1.1c-0.1,0.6-0.6,1-1.1,0.9c-0.1,0-0.2,0-0.2-0.1c0,0.6,0,1.5,0.1,2.4c0.3,3.6-1.2,4.8-0.4,7.1
	c1.8,5.4,0.6,11.6,0.6,11.6c0,0,0,0,0,0c0,0.6-0.4,1-1,1c-0.6,0-1-0.4-1-1l0,0L55.5,49c-0.5,0.5-1.2,1.1-2,2
	c-2.4,2.8-4.2,2.6-5.3,4.7c-2.6,5-8.8,8.6-8.8,8.6l0,0c-0.4,0.2-0.9,0.1-1.3-0.2c-0.5-0.5-0.5-1.2,0-1.6l12.4-19.3l4.6,4.4l-0.9-3.3
	l7-0.2c0-0.3,0.1-0.7,0.1-1c0.1-0.4,0.1-0.8,0.2-1.1c0-0.3,0.1-0.6,0.2-0.8l-0.9,0.1c-0.4,0-0.8-0.3-0.8-0.7c0-0.3,0.2-0.7,0.5-0.8
	l1.9-0.7l2.7-3.8l-2.3-1.6l-1.8-1.2c-0.3-0.2-0.5-0.3-0.8-0.5c-0.1,0-0.2-0.1-0.2-0.1c-1.4,0.4-3.1,0.6-5,0.6
	c-1.6,0-2.9-0.2-3.9-0.4c-0.1,0.1-0.2,0.3-0.2,0.4c-0.2,0.3-0.3,0.6-0.4,0.9c-0.1,0.3-0.3,0.7-0.5,1c-0.2,0.4-0.3,0.8-0.5,1.2
	c-0.4,0.9-0.8,1.8-1.1,2.8c-1.3,3.2-2.4,6.4-2.8,7.4c0,0.2,0,0.3-0.1,0.5c-0.1,0.3-0.4,0.5-0.7,0.5l-2.1,0.4
	c-0.4,0.1-0.8-0.2-0.9-0.6c0,0,0,0,0,0c-0.4,0-0.9,0-1.3,0.1l0,0c-0.5,0.1-1-0.3-1.1-0.9c-0.1-0.5,0.3-1,0.9-1.1l0,0
	c0.7-0.1,1.4-0.1,2.2-0.1c0.4,0,0.7,0,1.1,0.1c0,0,0.1,0,0.1,0c0.3-1.4,0.9-4.3,1.7-7.2c0.2-1,0.5-2,0.8-3c0.1-0.5,0.2-0.9,0.4-1.4
	c0.1-0.5,0.3-0.9,0.4-1.3c0.1-0.4,0.2-0.8,0.4-1.1c0.1-0.3,0.2-0.5,0.3-0.8c0.2-0.4,0.3-0.7,0.3-0.7c0.2-0.5,0.6-0.9,1.1-1.1
	c0.8-0.5,2.1-0.9,3.7-1.1v-1.7c-1.8-0.9-3.1-2.7-3.1-4.8c-0.1,0-0.2,0.1-0.4,0.1c-0.7,0-1.3-0.6-1.3-1.3c0-0.7,0.6-1.3,1.3-1.3
	c0.1,0,0.1,0,0.2,0L49.2,15c0-3.2,2.4-4.9,5.6-4.9c3.2,0,6,1.7,6,4.9l-0.2,2.9c0.1,0,0.1,0,0.2,0c0.7,0,1.3,0.6,1.3,1.3
	c0,0.7-0.6,1.3-1.3,1.3c-0.1,0-0.2,0-0.4-0.1c0,2.1-1.3,3.9-3.1,4.8v1.6c0,0,0,0.1,0,0.2c0.9,0.1,1.8,0.2,2.6,0.4
	c0.5-0.1,1,0,1.4,0.2c0.1,0,0.2,0.1,0.2,0.2c0.3,0.2,0.6,0.4,0.9,0.7c0.3,0.3,0.7,0.5,0.9,0.8l1.7,1.4l3.2,2.9l0.2,0.1
	C69.1,34.3,69.1,35.2,68.6,35.8z M36.6,33.8l-0.2-0.1l-3.2-2.9l-1.7-1.4c-0.3-0.2-0.6-0.5-0.9-0.8c-0.3-0.3-0.6-0.5-0.9-0.7
	c-0.1-0.1-0.2-0.1-0.2-0.2c-0.5-0.3-1-0.3-1.4-0.2c-0.8-0.2-1.6-0.4-2.6-0.4c0-0.1,0-0.1,0-0.2v-1.6c1.8-0.9,3.1-2.7,3.1-4.8
	c0.1,0,0.2,0.1,0.4,0.1c0.7,0,1.3-0.6,1.3-1.3c0-0.7-0.6-1.3-1.3-1.3c-0.1,0-0.1,0-0.2,0L29,15c0-3.2-2.8-4.9-6-4.9
	c-3.2,0-5.6,1.7-5.6,4.9l0.2,2.9c-0.1,0-0.1,0-0.2,0c-0.7,0-1.3,0.6-1.3,1.3c0,0.7,0.6,1.3,1.3,1.3c0.1,0,0.2,0,0.4-0.1
	c0,2.1,1.3,4,3.1,4.8V27c-1.7,0.2-2.9,0.6-3.7,1.1c-0.5,0.2-0.9,0.6-1.1,1.1c0,0-0.1,0.2-0.3,0.7c-0.1,0.2-0.2,0.5-0.3,0.8
	c-0.1,0.3-0.2,0.7-0.4,1.1c-0.1,0.4-0.3,0.8-0.4,1.3c-0.2,0.5-0.3,0.9-0.4,1.4c-0.3,1-0.5,2-0.8,3c-0.7,2.9-1.3,5.8-1.7,7.2
	c0,0-0.1,0-0.1,0c-0.4,0-0.8-0.1-1.1-0.1c-0.7,0-1.4,0.1-2.2,0.1l0,0c-0.5,0.1-0.9,0.6-0.9,1.1c0.1,0.5,0.6,0.9,1.1,0.9l0,0
	c0.4,0,0.9-0.1,1.3-0.1c0,0,0,0,0,0c0.1,0.4,0.5,0.7,0.9,0.6l2.1-0.4c0.3-0.1,0.5-0.2,0.7-0.5c0.1-0.2,0.1-0.3,0.1-0.5
	c0.3-1,1.5-4.2,2.8-7.4c0.4-1,0.8-1.9,1.1-2.8c0.2-0.4,0.4-0.9,0.5-1.2c0.2-0.4,0.3-0.7,0.5-1c0.2-0.3,0.3-0.6,0.4-0.9
	c0.1-0.2,0.2-0.3,0.2-0.4c1.1,0.3,2.4,0.4,3.9,0.4c1.9,0,3.6-0.2,5-0.6c0.1,0,0.2,0.1,0.2,0.1c0.3,0.2,0.5,0.3,0.8,0.5l1.8,1.2
	l2.3,1.6L30.5,39l-1.9,0.7c-0.3,0.1-0.5,0.4-0.5,0.8c0,0.4,0.4,0.7,0.8,0.7l0.9-0.1c-0.1,0.3-0.1,0.6-0.2,0.8
	c-0.1,0.4-0.1,0.8-0.2,1.1c0,0.3-0.1,0.7-0.1,1l-7,0.2l0.9,3.3l-4.6-4.4L6.3,62.4c-0.5,0.5-0.4,1.2,0,1.6c0.3,0.3,0.8,0.4,1.3,0.2
	l0,0c0,0,6.3-3.6,8.8-8.6c1.1-2.1,2.9-1.9,5.3-4.7c0.8-0.9,1.5-1.6,2-2l4.6,17.4l0,0c0,0.6,0.5,1,1,1c0.6,0,1-0.5,1-1c0,0,0,0,0,0
	c0,0,1.2-6.2-0.6-11.6c-0.7-2.3,0.7-3.4,0.4-7.1c-0.1-0.9-0.1-1.8-0.1-2.4c0.1,0,0.1,0.1,0.2,0.1c0.6,0.1,1.1-0.4,1.1-0.9
	c0-0.4,0.1-0.7,0.1-1.1c0-0.4,0.1-0.7,0.2-1.1c0.1-0.6,0.2-1.2,0.4-1.9l4.5-4.5c0,0,0,0,0.1-0.1C37.3,35.2,37.2,34.3,36.6,33.8z"/>
</svg>
