<?xml version="1.0" encoding="utf-8"?>
<!-- Generator: Adobe Illustrator 18.1.0, SVG Export Plug-In . SVG Version: 6.00 Build 0)  -->
<!DOCTYPE svg PUBLIC "-//W3C//DTD SVG 1.0//EN" "http://www.w3.org/TR/2001/REC-SVG-20010904/DTD/svg10.dtd">
<svg version="1.0" id="Layer_1" xmlns="http://www.w3.org/2000/svg" xmlns:xlink="http://www.w3.org/1999/xlink" x="0px" y="0px"
	 width="72px" height="72px" viewBox="0 0 72 72" enable-background="new 0 0 72 72" xml:space="preserve">
<path fill="#FFD3B6" d="M60.2,38.9c-0.3,0-0.5,0-0.8,0.1l0.8-12c0-13.4-11.5-20.3-24.9-20.3c-13.4,0-23.5,6.9-23.5,20.3l0.8,12
	c-0.3,0-0.5-0.1-0.8-0.1c-3.1,0-5.6,2.5-5.6,5.6c0,3.1,2.5,5.6,5.6,5.6c0.5,0,1-0.1,1.5-0.2C13.6,62.2,23.7,72,36,72
	c12.3,0,22.4-9.8,22.7-22.1c0.5,0.1,1,0.2,1.5,0.2c3.1,0,5.6-2.5,5.6-5.6C65.8,41.4,63.3,38.9,60.2,38.9z"/>
<path fill="#E5AB83" d="M36,54C36,54,36,54,36,54c-1.7,0-3.3-0.9-4.2-2.3c-0.3-0.5-0.2-1.1,0.3-1.4c0.5-0.3,1.1-0.2,1.4,0.3
	C34.1,51.5,35,52,36,52c0,0,0,0,0,0c1,0,1.9-0.5,2.4-1.3c0.3-0.5,0.9-0.6,1.4-0.3c0.5,0.3,0.6,0.9,0.3,1.4C39.3,53.2,37.7,54,36,54z
	"/>
<path fill="#FF929D" d="M35.9,65.2C35.9,65.2,35.9,65.2,35.9,65.2c-2.8,0-5.3-1.4-6.6-3.8c-0.4-0.6-0.1-1.4,0.4-1.7s1.4-0.1,1.7,0.4
	c0.9,1.6,2.6,2.5,4.5,2.5c0,0,0,0,0,0c1.9,0,3.6-0.9,4.5-2.5c0.4-0.6,1.1-0.8,1.7-0.4c0.6,0.4,0.8,1.1,0.4,1.7
	C41.2,63.8,38.7,65.2,35.9,65.2z"/>
<path fill="#2B3B47" d="M23.6,40.6c-0.1-1.3-1.2-2.3-2.5-2.3c-1.3,0-2.4,1-2.5,2.3h0v3.6h0c0,0,0,0,0,0c0,1.4,1.1,2.5,2.5,2.5
	c1.4,0,2.5-1.1,2.5-2.5c0,0,0,0,0,0v0L23.6,40.6L23.6,40.6z"/>
<path fill="#2B3B47" d="M53.3,40.6c-0.1-1.3-1.2-2.3-2.5-2.3c-1.3,0-2.4,1-2.5,2.3h0v3.6h0c0,0,0,0,0,0c0,1.4,1.1,2.5,2.5,2.5
	c1.4,0,2.5-1.1,2.5-2.5c0,0,0,0,0,0v0L53.3,40.6L53.3,40.6z"/>
<path fill="#959DA3" d="M20.8,40.5c0-0.3-0.3-0.6-0.6-0.6c-0.3,0-0.6,0.2-0.6,0.6h0v0.9h0v0c0,0.3,0.3,0.6,0.6,0.6
	c0.3,0,0.6-0.3,0.6-0.6v0l0,0L20.8,40.5L20.8,40.5z"/>
<path fill="#959DA3" d="M50.5,40.5c0-0.3-0.3-0.6-0.6-0.6c-0.3,0-0.6,0.2-0.6,0.6h0v0.9h0v0c0,0.3,0.3,0.6,0.6,0.6
	c0.3,0,0.6-0.3,0.6-0.6v0l0,0L50.5,40.5L50.5,40.5z"/>
<path fill="#FFAF8F" d="M32.7,41.9c0,0.6-0.5,1.1-1.1,1.1c-0.6,0-1.1-0.5-1.1-1.1c0-0.6,0.5-1.1,1.1-1.1
	C32.2,40.9,32.7,41.3,32.7,41.9z M37.4,37.6c-0.6,0-1.1,0.5-1.1,1.1c0,0.6,0.5,1.1,1.1,1.1c0.6,0,1.1-0.5,1.1-1.1
	C38.5,38.1,38,37.6,37.4,37.6z M39.6,43.3c-0.6,0-1.1,0.5-1.1,1.1c0,0.6,0.5,1.1,1.1,1.1c0.6,0,1.1-0.5,1.1-1.1
	C40.7,43.8,40.2,43.3,39.6,43.3z"/>
<path fill="#EDC0A2" d="M34,69.6c-5.2,0-10-1.6-14-4.3c4.1,4.1,9.8,6.6,16,6.6c12.5,0,22.7-10.2,22.7-22.7l0.1-1.1
	C57,60.3,46.6,69.6,34,69.6z"/>
<path fill="#FF6F1F" d="M62.4,49.6c-0.4,7.8-1.1,15.4-2.2,18.9H48c6.3-3.9,10.5-10.8,10.7-18.7c0.5,0.1,1,0.2,1.5,0.2
	C61,50.1,61.7,49.9,62.4,49.6z M62.9,26.1C62.9,11.3,50.1,0,35.2,0C20.3,0,9.1,11.3,9.1,26.1l0.5,7.6l0.1,16.5
	c-0.2,7.2-2.4,15.5-3,17.7c-0.1,0.3,0.1,0.6,0.4,0.6h5.3c0.6,0,1.3-1.6,1.7-2.7c0.1-0.4,0.7-0.4,0.9,0c0.4,1,0.5,1.8,0.5,2.3
	c0,0.2,0.2,0.4,0.5,0.4h8c-6.1-3.8-10.2-10.4-10.7-18c0-5.8,0-18.8,0-19.7c0-1.8,0.3-3.3,0.8-4.7c0.4-0.7,1-1.5,1.7-2.3
	c-1,4-0.7,7.5-0.6,8.6c0,0.2,0.2,0.3,0.4,0.3h32.6c0.8,0,1-4,1-6.2c0-0.4,0.6-0.5,0.8-0.1c0.7,1.9,0.9,4.9,0.9,6
	c0,0.2,0.2,0.4,0.4,0.4h8.5L59.4,39c0.3,0,0.5-0.1,0.8-0.1c0.2,0,0.4,0,0.6,0c0.1,0,0.2,0,0.2,0c0.1,0,0.3,0,0.4,0.1
	c0.1,0,0.2,0.1,0.3,0.1c0.1,0,0.2,0.1,0.3,0.1c0.1,0,0.2,0.1,0.3,0.1c0.1,0.1,0.3,0.1,0.4,0.2C63,32.1,62.9,26.1,62.9,26.1z"/>
<path fill="#FFA1E0" d="M61.2,24.6C58.9,12.9,48.6,4.2,36.3,4.2c-11.3,0-20.9,7.4-24.2,17.6c3.3-5.6,9.5-12.3,17.7-14.3
	c2.1-0.6,4.2-0.9,6.5-0.9c4.9,0,9.5,1.6,13.3,4.2C55.3,14.6,59.4,20.3,61.2,24.6z"/>
</svg>
