<?xml version="1.0" encoding="utf-8"?>
<!-- Generator: Adobe Illustrator 18.1.0, SVG Export Plug-In . SVG Version: 6.00 Build 0)  -->
<!DOCTYPE svg PUBLIC "-//W3C//DTD SVG 1.0//EN" "http://www.w3.org/TR/2001/REC-SVG-20010904/DTD/svg10.dtd">
<svg version="1.0" id="Layer_1" xmlns="http://www.w3.org/2000/svg" xmlns:xlink="http://www.w3.org/1999/xlink" x="0px" y="0px"
	 width="72px" height="72px" viewBox="0 0 72 72" enable-background="new 0 0 72 72" xml:space="preserve">
<path fill="#68442A" d="M62,15c0,1.3,0,2.4-0.1,3.4c-0.2-0.3-0.6-0.6-1.1-0.6c-0.1,0-0.1,0-0.2,0l0.1-2.1l-2.3-4.2
	c0,2.5-7.1,3.7-9.2,3.9l0.2,2.4c-0.1,0-0.1,0-0.2,0c-0.5,0-1,0.3-1.2,0.8c-0.1-1-0.1-2.2-0.1-3.6c0-0.2,0-0.3,0-0.4
	c0.1-1.8,1.7-4.4,3.9-5.5c0.3-0.2,1.7-0.6,2.1-0.6c0.3,0,0.7-0.1,1.1-0.1v0c0,0,0,0,0,0c0,0,0.7,0,1.1,0.1c0.3,0,1.7,0.5,2.1,0.6
	c2.2,1.1,3.8,3.7,3.9,5.5C62,14.8,62,14.9,62,15z M60.5,20.5c0,1.4-0.6,2.7-1.5,3.7c1,0,1.7,0,1.7,0s0.7-0.8,1.1-4
	c-0.2,0.2-0.6,0.4-0.9,0.4C60.7,20.5,60.6,20.5,60.5,20.5z M49.2,20.5c-0.5,0-0.9-0.3-1.1-0.6c0.4,3.4,1.1,4.2,1.1,4.2s0.9,0,1.9,0
	c-0.9-1-1.5-2.2-1.5-3.7C49.5,20.5,49.4,20.5,49.2,20.5z M30.1,14.6c-0.1-1.8-1.7-4.4-3.9-5.5c-0.3-0.2-1.7-0.6-2.1-0.6
	c-0.3,0-1.1-0.1-1.1-0.1c0,0,0,0,0,0v0c-0.4,0-0.7,0-1.1,0.1c-0.3,0-1.7,0.5-2.1,0.6c-2.2,1.1-3.8,3.7-3.9,5.5c0,0.1,0,0.2,0,0.4
	c0,1.4,0,2.6,0.1,3.6c0.2-0.5,0.7-0.8,1.2-0.8c0.1,0,0.1,0,0.2,0l-0.2-2.4c2.1-0.3,9.2-1.4,9.2-3.9l2.3,4.2l-0.1,2.1
	c0.1,0,0.1,0,0.2,0c0.5,0,0.8,0.2,1.1,0.6c0.1-1,0.1-2.1,0.1-3.4C30.2,14.9,30.2,14.8,30.1,14.6z M28.6,20.5c0,1.4-0.6,2.7-1.5,3.7
	c1,0,1.7,0,1.7,0s0.7-0.8,1.1-4c-0.2,0.2-0.6,0.4-0.9,0.4C28.9,20.5,28.7,20.5,28.6,20.5z M17.4,20.5c-0.5,0-0.9-0.3-1.1-0.6
	c0.4,3.4,1.1,4.2,1.1,4.2s0.9,0,1.9,0c-0.9-1-1.5-2.2-1.5-3.7C17.6,20.5,17.5,20.5,17.4,20.5z"/>
</svg>
