<svg xmlns="http://www.w3.org/2000/svg" viewBox="0 0 512 512" enable-background="new 0 0 512 512"><path fill="#2B3B47" d="M250.548 212.223c7.887 0 14.28 6.38 14.28 14.28v17.535c0 7.887-6.393 14.283-14.28 14.283-7.875 0-14.27-6.394-14.27-14.28v-17.535c0-7.9 6.396-14.28 14.27-14.28zm-114.91 0c-7.888 0-14.27 6.38-14.27 14.28v17.535c0 7.887 6.382 14.283 14.27 14.283 7.886 0 14.254-6.394 14.254-14.28v-17.535c0-7.9-6.368-14.28-14.255-14.28zm75.03 58.51c-1.38-1.516-3.727-1.627-5.245-.25-1.856 1.68-7.637 6.046-12.042 6.046-4.49 0-10.86-4.45-12.934-6.16-1.58-1.31-3.92-1.09-5.23.49-1.31 1.58-1.092 3.92.488 5.23.81.67 7.012 5.667 13.66 7.324v13.012c0 2.052 1.663 3.715 3.715 3.715s3.714-1.662 3.714-3.714V283.55c6.795-1.512 12.863-6.873 13.63-7.575 1.517-1.38 1.625-3.724.246-5.24z"/></svg>