<?xml version="1.0" encoding="utf-8"?>
<!-- Generator: Adobe Illustrator 18.1.0, SVG Export Plug-In . SVG Version: 6.00 Build 0)  -->
<!DOCTYPE svg PUBLIC "-//W3C//DTD SVG 1.0//EN" "http://www.w3.org/TR/2001/REC-SVG-20010904/DTD/svg10.dtd">
<svg version="1.0" id="Layer_1" xmlns="http://www.w3.org/2000/svg" xmlns:xlink="http://www.w3.org/1999/xlink" x="0px" y="0px"
	 width="72px" height="72px" viewBox="0 0 72 72" enable-background="new 0 0 72 72" xml:space="preserve">
<path fill="#FFD3B6" d="M59.9,37.3l0.1-0.8c0-13.4-10.8-24.2-24.2-24.2c-13.4,0-24.2,10.8-24.2,24.2l0.1,0.8c0,0,0,0,0,0
	c-2.3,0.5-4.1,2.5-4.1,5c0,2.8,2.3,5.1,5.1,5.1c0.1,0,0.1,0,0.2,0l0.2,1.9C13.1,61.8,23.2,72,35.8,72c12.5,0,22.7-10.2,22.7-22.7
	l0.2-1.9c0.1,0,0.2,0,0.3,0c2.8,0,5.1-2.3,5.1-5.1C64,39.8,62.2,37.7,59.9,37.3z"/>
</svg>
