<?xml version="1.0" encoding="utf-8"?>
<!-- Generator: Adobe Illustrator 18.1.0, SVG Export Plug-In . SVG Version: 6.00 Build 0)  -->
<!DOCTYPE svg PUBLIC "-//W3C//DTD SVG 1.0//EN" "http://www.w3.org/TR/2001/REC-SVG-20010904/DTD/svg10.dtd">
<svg version="1.0" id="Layer_1" xmlns="http://www.w3.org/2000/svg" xmlns:xlink="http://www.w3.org/1999/xlink" x="0px" y="0px"
	 width="72px" height="72px" viewBox="0 0 72 72" enable-background="new 0 0 72 72" xml:space="preserve">
<path fill="#FF473E" d="M57,22.5c0,0-0.6,0.9-1.9,1c-1.3,0-1.9-1-1.9-1s0.2,0,0.6-0.1s0.6-0.3,0.9-0.3c0.2,0,0.4,0.1,0.4,0.1
	c0,0,0.2-0.1,0.4-0.1c0.3,0,0.6,0.2,0.9,0.3C56.8,22.5,57,22.5,57,22.5z M24.6,22.4c-0.3-0.1-0.6-0.3-0.9-0.3
	c-0.2,0-0.3,0.1-0.4,0.1c0,0-0.2-0.1-0.4-0.1c-0.3,0-0.6,0.2-0.9,0.3s-0.6,0.1-0.6,0.1s0.6,0.9,1.9,1c1.3,0,1.9-1,1.9-1
	S24.9,22.5,24.6,22.4z"/>
</svg>
