<?xml version="1.0" encoding="iso-8859-1"?>
<!-- Generator: Adobe Illustrator 18.1.1, SVG Export Plug-In . SVG Version: 6.00 Build 0)  -->
<!DOCTYPE svg PUBLIC "-//W3C//DTD SVG 1.1//EN" "http://www.w3.org/Graphics/SVG/1.1/DTD/svg11.dtd">
<svg version="1.1" xmlns="http://www.w3.org/2000/svg" xmlns:xlink="http://www.w3.org/1999/xlink" x="0px" y="0px"
	 viewBox="0 0 512 512" enable-background="new 0 0 512 512" xml:space="preserve">
<g id="Layer_11">
	<path fill="#DCE2E2" d="M493.309,350.901c1.104-1.104,1.104-2.895,0-3.999l-2.523-2.523c-1.104-1.104-1.104-2.895,0-3.999
		l2.523-2.523c1.104-1.104,1.104-2.895,0-3.999l-2.45-2.513h-2.073H187.521c-31.59,0-57.199,25.609-57.199,57.199
		s25.609,57.199,57.199,57.199h301.265l1,0l3.523-3.523c1.104-1.104,1.104-2.895,0-3.999l-2.523-2.523
		c-1.104-1.104-1.104-2.895,0-3.999l2.523-2.523c1.104-1.104,1.104-2.895,0-4l-2.523-2.523c-1.104-1.104-1.104-2.895,0-3.999
		l2.523-2.523c1.104-1.104,1.104-2.895,0-3.999l-2.523-2.523c-1.104-1.104-1.104-2.895,0-4l2.523-2.523
		c1.104-1.104,1.104-2.895,0-3.999l-2.523-2.523c-1.104-1.104-1.104-2.895,0-3.999l2.523-2.523c1.104-1.104,1.104-2.895,0-4
		l-2.523-2.523c-1.104-1.104-1.104-2.895,0-3.999l2.523-2.523c1.104-1.104,1.104-2.895,0-3.999l-2.523-2.523
		c-1.104-1.104-1.104-2.895,0-3.999l2.523-2.523c1.104-1.104,1.104-2.895,0-3.999l-2.523-2.523c-1.104-1.104-1.104-2.895,0-3.999
		L493.309,350.901z"/>
</g>
<g id="Layer_1">
</g>
</svg>
