<?xml version="1.0" encoding="iso-8859-1"?>
<!-- Generator: Adobe Illustrator 18.1.1, SVG Export Plug-In . SVG Version: 6.00 Build 0)  -->
<!DOCTYPE svg PUBLIC "-//W3C//DTD SVG 1.1//EN" "http://www.w3.org/Graphics/SVG/1.1/DTD/svg11.dtd">
<svg version="1.1" xmlns="http://www.w3.org/2000/svg" xmlns:xlink="http://www.w3.org/1999/xlink" x="0px" y="0px"
	 viewBox="0 0 512 512" enable-background="new 0 0 512 512" xml:space="preserve">
<g id="Layer_6">
	<path fill="#60554A" d="M413.686,427.689H155.588c-4.574,0-8.281-3.708-8.281-8.281s3.708-8.281,8.281-8.281h258.097
		c4.573,0,8.281,3.708,8.281,8.281S418.259,427.689,413.686,427.689z M405.771,369.358c0-4.573-3.708-8.281-8.281-8.281H155.588
		c-4.574,0-8.281,3.708-8.281,8.281s3.708,8.281,8.281,8.281h241.901C402.062,377.64,405.771,373.932,405.771,369.358z
		 M308.542,319.309c0-4.573-3.708-8.281-8.281-8.281H155.588c-4.574,0-8.281,3.708-8.281,8.281s3.708,8.281,8.281,8.281h144.672
		C304.834,327.59,308.542,323.882,308.542,319.309z M421.967,269.259c0-4.573-3.708-8.281-8.281-8.281H155.588
		c-4.574,0-8.281,3.708-8.281,8.281s3.708,8.281,8.281,8.281h258.097C418.259,277.54,421.967,273.832,421.967,269.259z
		 M421.967,219.209c0-4.574-3.708-8.281-8.281-8.281H155.588c-4.574,0-8.281,3.708-8.281,8.281s3.708,8.281,8.281,8.281h258.097
		C418.259,227.491,421.967,223.783,421.967,219.209z M421.967,169.16c0-4.574-3.708-8.281-8.281-8.281H155.588
		c-4.574,0-8.281,3.708-8.281,8.281s3.708,8.281,8.281,8.281h258.097C418.259,177.441,421.967,173.733,421.967,169.16z
		 M143.177,55.137c0-10.676-8.654-19.33-19.33-19.33s-19.33,8.654-19.33,19.33s8.654,19.33,19.33,19.33
		S143.177,65.813,143.177,55.137z M66.618,456.105c0-10.676-8.654-19.33-19.33-19.33s-19.33,8.654-19.33,19.33
		c0,10.676,8.654,19.33,19.33,19.33S66.618,466.781,66.618,456.105z"/>
</g>
<g id="Layer_1">
</g>
</svg>
