<svg xmlns="http://www.w3.org/2000/svg" viewBox="0 0 512 512" enable-background="new 0 0 512 512"><path fill="#E9EAE5" d="M374.03 129.9c-60.192 0-50.16 11.01-102.828 11.01-43.177 0-46.386-37.583-104.282-51.13-9.667-2.4-21.42-4.163-34.286-4.498-4.082-.192-8.336-.3-12.808-.3l-.093.452c-11.25.568-23.05 2.31-34.83 5.687-39.672 10.16-29.332 23.32-24.646 41.618 4.686 18.298 23.318 29.332 41.616 24.646.445-.114.883-.238 1.317-.37 6.354-1.897 11.77-5.496 15.875-10.17 1.025-1.004 2.034-2.048 3.032-3.126 1.055 1.955 2.06 3.88 2.986 5.725 5.13 10.22 12.023 19.43 20.306 27.313 27.494 26.165 11.5 57.614-.677 75.61-5.682 8.396-13.797 14.442-22.494 18.67l1.944.278c6.542.937 11.536 6.33 11.97 12.923 2.138 32.395 13.328 51.937 23.098 63.028 8.856 10.052 14.867 22.288 17.752 35.37 6.773 30.707 65.377 8.32 65.377-5.473s38.875-17.227 67.716-17.227c28.842 0 39.5 6.257 39.5 20.99 0 14.733 62.587 12.668 69.2-7.005 2.67-7.943 7.55-14.985 14.13-20.173 13.783-10.868 37.607-38.758 43.29-103.943C483.986 160.4 434.22 129.9 374.028 129.9z"/></svg>