<?xml version="1.0" encoding="iso-8859-1"?>
<!-- Generator: Adobe Illustrator 18.1.1, SVG Export Plug-In . SVG Version: 6.00 Build 0)  -->
<!DOCTYPE svg PUBLIC "-//W3C//DTD SVG 1.1//EN" "http://www.w3.org/Graphics/SVG/1.1/DTD/svg11.dtd">
<svg version="1.1" xmlns="http://www.w3.org/2000/svg" xmlns:xlink="http://www.w3.org/1999/xlink" x="0px" y="0px"
	 viewBox="0 0 512 512" enable-background="new 0 0 512 512" xml:space="preserve">
<g id="Layer_8">
	<path fill="#DCE2E2" d="M317.224,101.098c-2.749-0.884-64.79,100.627-64.79,100.627c-7.533,12.708-6.346,19.393,6.436,31.96
		c0,0,102.831,101.363,105.195,100.51l0.023,0.021c0.02-0.01,0.031-0.028,0.049-0.041c2.371-0.867,4.461-2.126,6.195-3.698
		c0.74-0.671,1.311-1.479,1.917-2.257l0.039,0.038c0.047-0.062,0.058-0.144,0.105-0.206c2.5-3.296,3.712-7.452,3.367-12.068
		c-0.005-0.072,0.024-0.131,0.018-0.203l-0.056-0.279c-0.069-0.702-0.022-1.369-0.167-2.088l-38.595-191.638
		c-1.9-9.437-9.897-17.432-19.488-20.607c-0.074-0.038-0.134-0.096-0.21-0.131L317.224,101.098z"/>
</g>
<g id="Layer_1">
</g>
</svg>
