<?xml version="1.0" encoding="utf-8"?>
<!-- Generator: Adobe Illustrator 18.1.0, SVG Export Plug-In . SVG Version: 6.00 Build 0)  -->
<!DOCTYPE svg PUBLIC "-//W3C//DTD SVG 1.0//EN" "http://www.w3.org/TR/2001/REC-SVG-20010904/DTD/svg10.dtd">
<svg version="1.0" id="Layer_1" xmlns="http://www.w3.org/2000/svg" xmlns:xlink="http://www.w3.org/1999/xlink" x="0px" y="0px"
	 width="72px" height="72px" viewBox="0 0 72 72" enable-background="new 0 0 72 72" xml:space="preserve">
<path fill="#FF6E83" d="M60.2,23.4c-5.9-7-16.3-7.3-22.6-1c0,0,0,0,0,0c-0.9,0.9-2.3,0.9-3.1,0c0,0,0,0,0,0c-6-6-15.7-6-21.7,0
	c-5.1,5.1-6,13.3-2,19.3c1.2,1.9,2.8,3.4,4.5,4.5l19.8,16c0.7,0.6,1.7,0.6,2.4,0l19.6-16c1.6-1.1,3.1-2.5,4.3-4.3
	C65,36.2,64.6,28.6,60.2,23.4z"/>
</svg>
