<?xml version="1.0" encoding="utf-8"?>
<!-- Generator: Adobe Illustrator 18.1.0, SVG Export Plug-In . SVG Version: 6.00 Build 0)  -->
<!DOCTYPE svg PUBLIC "-//W3C//DTD SVG 1.0//EN" "http://www.w3.org/TR/2001/REC-SVG-20010904/DTD/svg10.dtd">
<svg version="1.0" id="Layer_1" xmlns="http://www.w3.org/2000/svg" xmlns:xlink="http://www.w3.org/1999/xlink" x="0px" y="0px"
	 width="72px" height="72px" viewBox="0 0 72 72" enable-background="new 0 0 72 72" xml:space="preserve">
<path fill="#76DFFF" d="M57.5,24.2c-1-1.2-2.6-2.1-4.6-2.5v1.1c0,0.1,0,0.1,0,0.2c0,0.7-1.2,1.3-2.6,1.3c-1.4,0-2.6-0.6-2.6-1.3
	v-1.3c-0.5,0.1-1,0.3-1.5,0.4c-3.8,1.3-6.5,4.4-6.6,6c0,0,0,0.1,0,0.1c-0.1,0.6,0.5,1.4,1.6,2c0.2,0.1,0.5,0.2,0.7,0.3l-1.2,14
	c0,1.8,4.3,3.3,9.7,3.3s9.7-1.5,9.7-3.3l-1.2-13.8c0,0,0,0,0,0c1.1-0.1,1.8-1,1.7-1.9c0-0.1,0-0.1,0-0.2
	C60.6,27.7,59.4,25.8,57.5,24.2z"/>
</svg>
