<?xml version="1.0" encoding="iso-8859-1"?>
<!-- Generator: Adobe Illustrator 18.1.1, SVG Export Plug-In . SVG Version: 6.00 Build 0)  -->
<!DOCTYPE svg PUBLIC "-//W3C//DTD SVG 1.1//EN" "http://www.w3.org/Graphics/SVG/1.1/DTD/svg11.dtd">
<svg version="1.1" xmlns="http://www.w3.org/2000/svg" xmlns:xlink="http://www.w3.org/1999/xlink" x="0px" y="0px"
	 viewBox="0 0 512 512" enable-background="new 0 0 512 512" xml:space="preserve">
<g id="Layer_5">
	<path fill="#1C4C5A" d="M386.499,195.718v256.614h-0.054c-0.28,4-3.578,7.168-7.648,7.168c0,0-285.412-0.052-286.139-0.112
		c-0.364,0.053-16.508,0.112-16.508,0.112c-4.071,0-7.369-3.168-7.648-7.168h-0.054V195.718c0-4.255,3.448-7.702,7.702-7.702
		h302.647C383.05,188.016,386.499,191.463,386.499,195.718z M439.354,272.991c-14.27,0-25.838,11.568-25.838,25.838
		c0,14.27,11.568,25.838,25.838,25.838c14.27,0,25.838-11.568,25.838-25.838C465.192,284.559,453.624,272.991,439.354,272.991z"/>
</g>
<g id="Layer_1">
</g>
</svg>
