<?xml version="1.0" encoding="utf-8"?>
<!-- Generator: Adobe Illustrator 18.1.0, SVG Export Plug-In . SVG Version: 6.00 Build 0)  -->
<!DOCTYPE svg PUBLIC "-//W3C//DTD SVG 1.0//EN" "http://www.w3.org/TR/2001/REC-SVG-20010904/DTD/svg10.dtd">
<svg version="1.0" id="Layer_1" xmlns="http://www.w3.org/2000/svg" xmlns:xlink="http://www.w3.org/1999/xlink" x="0px" y="0px"
	 width="72px" height="72px" viewBox="0 0 72 72" enable-background="new 0 0 72 72" xml:space="preserve">
<path fill="#FFB636" d="M49.7,26.9c-0.3-0.2-0.7-0.4-1.1-0.3c0,0-3.9,0.7-11.4,0.7c-7.6,0-12.7-0.7-12.8-0.7c-0.4,0-0.8,0.1-1,0.3
	c-0.3,0.2-0.4,0.6-0.4,1V37c0,0.5,0.3,1,0.8,1.2c0.2,0.1,4.9,2.1,12.8,2.1c7.9,0,12.6-2,12.8-2.1c0.5-0.2,0.8-0.7,0.8-1.2v-9.1
	C50.1,27.5,50,27.2,49.7,26.9z"/>
</svg>
