<svg xmlns="http://www.w3.org/2000/svg" viewBox="0 0 512 512" enable-background="new 0 0 512 512"><path fill="#D19B61" d="M335.307 46.96c-6.664 6.127-12.778 12.434-18.386 18.89-19.27-5.85-39.796-9.072-61.1-9.072-111.06 0-201.09 87.282-201.09 180.213 0 12.5 1.63 24.68 4.723 36.4 5.695 21.585 8.35 43.84 8.41 66.165 0 .298.002.597.006.896.59 43.555 36.15 79.14 79.702 79.75 21.302.3 40.742-7.644 55.348-20.84 16.858 3.84 34.59 5.9 52.9 5.9s36.044-2.06 52.902-5.898c14.605 13.195 34.045 21.138 55.345 20.84 43.554-.61 79.115-36.194 79.704-79.75l.007-.897c.058-22.325 2.715-44.582 8.41-66.17 3.09-11.718 4.72-23.896 4.72-36.393 0-24.34-6.184-48.287-17.296-70.385C559.695 49.427 450.174-58.67 335.308 46.96z"/></svg>