<?xml version="1.0" encoding="utf-8"?>
<!-- Generator: Adobe Illustrator 18.1.0, SVG Export Plug-In . SVG Version: 6.00 Build 0)  -->
<!DOCTYPE svg PUBLIC "-//W3C//DTD SVG 1.0//EN" "http://www.w3.org/TR/2001/REC-SVG-20010904/DTD/svg10.dtd">
<svg version="1.0" id="Layer_1" xmlns="http://www.w3.org/2000/svg" xmlns:xlink="http://www.w3.org/1999/xlink" x="0px" y="0px"
	 width="72px" height="72px" viewBox="0 0 72 72" enable-background="new 0 0 72 72" xml:space="preserve">
<path fill="#CE8E63" d="M50.3,15.3C50.3,15.3,50.3,15.3,50.3,15.3c-0.5,0-1-0.3-1.3-0.7c-0.1-0.1,0-0.3,0.1-0.4
	c0.1-0.1,0.3,0,0.4,0.1c0.2,0.3,0.4,0.4,0.7,0.4l0,0c0.3,0,0.6-0.2,0.7-0.4c0.1-0.1,0.3-0.2,0.4-0.1c0.1,0.1,0.2,0.3,0.1,0.4
	C51.3,15.1,50.9,15.3,50.3,15.3z"/>
<path fill="#CE8E63" d="M50.3,18.5c-0.5,0-1-0.2-1.4-0.5c-0.1-0.1-0.2-0.3-0.1-0.4c0.1-0.1,0.3-0.2,0.4-0.1c0.6,0.5,1.5,0.5,2.1,0
	c0.1-0.1,0.3-0.1,0.4,0.1c0.1,0.1,0.1,0.3-0.1,0.4C51.3,18.3,50.8,18.5,50.3,18.5z"/>
</svg>
