<?xml version="1.0" encoding="iso-8859-1"?>
<!-- Generator: Adobe Illustrator 18.1.1, SVG Export Plug-In . SVG Version: 6.00 Build 0)  -->
<!DOCTYPE svg PUBLIC "-//W3C//DTD SVG 1.1//EN" "http://www.w3.org/Graphics/SVG/1.1/DTD/svg11.dtd">
<svg version="1.1" xmlns="http://www.w3.org/2000/svg" xmlns:xlink="http://www.w3.org/1999/xlink" x="0px" y="0px"
	 viewBox="0 0 512 512" enable-background="new 0 0 512 512" xml:space="preserve">
<g id="Layer_2">
	<path fill="#81929B" d="M198.373,320.086v167.272c0,11.4,27.197,20.642,60.746,20.642c33.549,0,60.746-9.242,60.746-20.642V320.086
		H198.373z"/>
</g>
<g id="Layer_3">
	<path fill="#FF473E" d="M380.949,437.196H140.287c-15.906,0-28.8-12.894-28.8-28.8V57.79c0-15.906,12.894-28.8,28.8-28.8h240.662
		c15.906,0,28.8,12.894,28.8,28.8v350.606C409.749,424.302,396.855,437.196,380.949,437.196z"/>
</g>
<g id="Layer_4">
	<path fill="#2B3B47" d="M358.984,148.335H154.736c-11.929,0-21.6-9.671-21.6-21.6V115.19c0-11.929,9.671-21.6,21.6-21.6h204.249
		c11.929,0,21.6,9.671,21.6,21.6v11.544C380.584,138.664,370.914,148.335,358.984,148.335z"/>
</g>
<g id="Layer_5">
	<path fill="#96A9B2" d="M220.771,335.977c2.792,0.898,65.804-102.202,65.804-102.202c7.651-12.907,6.445-19.696-6.537-32.46
		c0,0-104.441-102.949-106.842-102.083l-0.023-0.021c-0.02,0.01-0.032,0.028-0.05,0.042c-2.408,0.881-4.53,2.159-6.292,3.756
		c-0.752,0.681-1.331,1.502-1.947,2.292l-0.04-0.038c-0.048,0.063-0.059,0.147-0.106,0.21c-2.539,3.347-3.77,7.568-3.42,12.257
		c0.005,0.073-0.024,0.133-0.019,0.206l0.057,0.283c0.07,0.713,0.023,1.391,0.17,2.121l39.199,194.637
		c1.93,9.584,10.052,17.704,19.793,20.93c0.075,0.038,0.136,0.098,0.213,0.133L220.771,335.977z"/>
</g>
<g id="Layer_6">
	<path fill="#B9C5C6" d="M292.949,217.687L174.016,99.756h134.842c13.143,0,25.789,9.899,28.249,22.112l38.595,191.639
		c2.46,12.213-6.199,22.112-19.342,22.112H221.517L292.949,217.687z"/>
</g>
<g id="Layer_7">
	<path fill="#EDECE6" d="M317.409,101.131L252.58,201.82c-7.533,12.708-6.346,19.393,6.436,31.96l105.218,100.53
		c3.051-1.744,5.213-4.355,6.755-7.341l1.445,1.383c2.626-3.375,3.901-7.689,3.49-12.478l-39.554-196.365
		c-1.508-4.775-4.529-9.096-8.506-12.464l-0.875,1.373C324.281,105.466,321.119,102.879,317.409,101.131z"/>
</g>
<g id="Layer_8">
	<path fill="#DCE2E2" d="M317.224,101.098c-2.749-0.884-64.79,100.627-64.79,100.627c-7.533,12.708-6.346,19.393,6.436,31.96
		c0,0,102.831,101.363,105.195,100.51l0.023,0.021c0.02-0.01,0.031-0.028,0.049-0.041c2.371-0.867,4.461-2.126,6.195-3.698
		c0.74-0.671,1.311-1.479,1.917-2.257l0.039,0.038c0.047-0.062,0.058-0.144,0.105-0.206c2.5-3.296,3.712-7.452,3.367-12.068
		c-0.005-0.072,0.024-0.131,0.018-0.203l-0.056-0.279c-0.069-0.702-0.022-1.369-0.167-2.088l-38.595-191.638
		c-1.9-9.437-9.897-17.432-19.488-20.607c-0.074-0.038-0.134-0.096-0.21-0.131L317.224,101.098z"/>
</g>
<g id="Layer_9">
	<path fill="#D32A2A" d="M380.584,115.472H133.136v-13.122c0-11.929,9.671-21.6,21.6-21.6h204.249c11.929,0,21.6,9.671,21.6,21.6
		V115.472z"/>
</g>
</svg>
