<svg xmlns="http://www.w3.org/2000/svg" viewBox="0 0 512 512" enable-background="new 0 0 512 512"><path fill="#B7834F" d="M340.81 426.833c-6.172 0-12.386-.634-18.568-1.92-23.63-4.91-43.932-18.728-57.168-38.908-11.687-17.817-14.357-39.587-7.327-59.727 4.965-14.225 14.263-26.12 26.888-34.4 11.587-7.6 25.438-10.23 39.004-7.413 13.563 2.82 25.22 10.752 32.82 22.34 5.9 8.994 7.942 19.748 5.753 30.28-2.188 10.534-8.35 19.584-17.345 25.483-7.13 4.677-15.655 6.297-24.004 4.562-8.35-1.735-15.522-6.617-20.2-13.747-7.835-11.947-4.49-28.042 7.458-35.878 4.825-3.166 11.305-1.82 14.47 3.008 3.167 4.826 1.82 11.306-3.007 14.47-2.31 1.516-2.956 4.627-1.44 6.937 1.613 2.46 4.09 4.146 6.973 4.745 2.886.603 5.826.04 8.286-1.574 4.327-2.836 7.29-7.19 8.343-12.255 1.052-5.066.07-10.24-2.77-14.565-9.364-14.28-28.602-18.278-42.88-8.913-8.744 5.735-15.182 13.97-18.618 23.812-4.87 13.952-3.02 29.032 5.07 41.37 10.174 15.514 25.78 26.135 43.942 29.91 18.16 3.772 36.707.25 52.22-9.925 22.452-14.726 37.825-37.313 43.29-63.603 5.462-26.29.36-53.13-14.365-75.583-43.45-66.247-132.694-84.793-198.94-41.344-4.828 3.166-11.306 1.82-14.472-3.007-3.166-4.828-1.82-11.307 3.007-14.47 75.884-49.773 178.113-28.53 227.884 47.355 17.787 27.12 23.95 59.545 17.35 91.3-6.6 31.756-25.17 59.04-52.29 76.828-14.903 9.772-31.957 14.83-49.37 14.83z"/></svg>