<?xml version="1.0" encoding="iso-8859-1"?>
<!-- Generator: Adobe Illustrator 18.1.1, SVG Export Plug-In . SVG Version: 6.00 Build 0)  -->
<!DOCTYPE svg PUBLIC "-//W3C//DTD SVG 1.1//EN" "http://www.w3.org/Graphics/SVG/1.1/DTD/svg11.dtd">
<svg version="1.1" xmlns="http://www.w3.org/2000/svg" xmlns:xlink="http://www.w3.org/1999/xlink" x="0px" y="0px"
	 viewBox="0 0 512 512" enable-background="new 0 0 512 512" xml:space="preserve">
<g id="Layer_2">
	<path fill="#7F4AFF" d="M111.051,442.516h36.658v36.658h-36.658V442.516z M109.76,152.281h36.658v-36.658H109.76H73.102v36.658v0
		v36.658h36.658V152.281z M146.418,42.307H109.76v36.658h36.658V42.307z M402.133,188.939h36.658v-36.658v0v-36.658h-36.658h-36.658
		v36.658h36.658V188.939z M402.133,42.307h-36.658v36.658h36.658V42.307z M475.342,152.174v35.999v0.659v35.34v0.659v35.892h-1.548
		h-35.003h-36.477v-36.23h-0.181h-35.901V188.28h-36.97v-36.658v-36.658h-36.658v36.658v36.658h-73.316v-36.658v-36.658h-36.658
		v36.658v36.658h-36.658v36.213H109.76v36.23H73.102H36.658v-35.785v-0.659v-35.34v-0.659v-35.999H0v35.999v0.659v35.34v0.659
		v35.999h36.299v36.444h0.145h36.658h36.658v36.23v36.016v0.642v36.016h37.949v36.23h71.77v-36.23h73.898v36.23h71.77v-36.23h37.166
		v-36.016v-0.642v-36.016v-36.23h36.477h35.003h1.655V260.83H512v-35.999v-0.659v-35.34v-0.659v-35.999H475.342z M365.475,479.173
		h36.658v-36.658h-36.658V479.173z"/>
</g>
<g id="Layer_1">
</g>
</svg>
