<svg xmlns="http://www.w3.org/2000/svg" viewBox="0 0 512 512" enable-background="new 0 0 512 512"><path fill="#FF473E" d="M224.253 71.466c-10.402-11.876-28.462-13.07-40.338-2.67 0 0-.988.866-2.474 2.543-.192.214-.394.445-.604.69-1.866 2.175-5.36 1.47-6.23-1.263-.1-.308-.196-.6-.29-.878-.715-2.125-1.287-3.307-1.287-3.307-4.345-8.923-13.235-15.372-23.846-16.074-15.753-1.043-29.368 10.882-30.41 26.635 0 0-.088 1.31.047 3.547.017.292.037.6.06.922.217 2.858-2.756 4.824-5.302 3.507-.286-.147-.56-.285-.82-.413-2.008-.997-3.248-1.428-3.248-1.428-9.382-3.24-20.228-1.513-28.228 5.494-11.876 10.402-13.07 28.462-2.67 40.338 0 0 .866.988 2.543 2.474 1.67 1.497 4.16 3.48 7.32 5.607 1.772 1.203 3.768 2.445 5.933 3.684v9.83c-.044.815-.07 1.636-.07 2.462 0 .795.03 1.585.07 2.37v53.21c0 28.53-14.423 34.41-14.423 49.106 0 28.418 40.707 28.418 40.707 0 0-24.495-12.673-59.516 18.818-59.516 24.948 0 45.172-20.223 45.172-45.17 0-24.948-20.224-45.172-45.172-45.172-4.507 0-8.852.68-12.957 1.91 10.66-8.17 23.985-13.036 38.456-13.036 20.46 0 38.64 9.716 50.213 24.778.138-.155.284-.312.42-.467 3.17-3.604 5.875-7.138 7.995-10.3 2.128-3.158 3.694-5.93 4.68-7.944.997-2.01 1.428-3.25 1.428-3.25 3.237-9.38 1.512-20.225-5.495-28.225z"/></svg>