<svg xmlns="http://www.w3.org/2000/svg" viewBox="0 0 512 512" enable-background="new 0 0 512 512"><path fill="#2B3B47" d="M26.095 192.608c2.072.444 3.418 3.114 3.007 5.966l-.885 5.076c-.41 2.85-2.424 4.803-4.496 4.36-2.07-.443-3.415-3.114-3.004-5.966l.885-5.076c.41-2.852 2.424-4.804 4.496-4.36zm66.467-41.987c-4.877-.26-9.04 3.485-9.302 8.36l-.815 15.27c-.26 4.88 3.482 9.04 8.36 9.304 4.876.26 9.04-3.482 9.3-8.36l.816-15.27c.26-4.876-3.48-9.04-8.356-9.3zm93.328 302.077c25.923 0 14.308-16.525 19.66-28.714l-42.423 5.924c3.232 15.586-3.16 22.79 22.763 22.79zm164.087-28.714c-1.44 12.114-5.014 28.715 18 28.715s22.788-10.148 31.234-22.79l-49.23-5.924z"/></svg>