<?xml version="1.0" encoding="iso-8859-1"?>
<!-- Generator: Adobe Illustrator 18.1.1, SVG Export Plug-In . SVG Version: 6.00 Build 0)  -->
<!DOCTYPE svg PUBLIC "-//W3C//DTD SVG 1.1//EN" "http://www.w3.org/Graphics/SVG/1.1/DTD/svg11.dtd">
<svg version="1.1" xmlns="http://www.w3.org/2000/svg" xmlns:xlink="http://www.w3.org/1999/xlink" x="0px" y="0px"
	 viewBox="0 0 512 512" enable-background="new 0 0 512 512" xml:space="preserve">
<g id="Layer_2">
	<path fill="#96A9B2" d="M329.186,158.471c4.768-4.767,4.768-12.496,0-17.263c-4.766-4.767-12.496-4.767-17.262,0L164.062,289.069
		c-23.344,23.344-19.896,51.219-4.426,66.689c7.777,7.777,18.67,12.53,30.691,12.53c12.858-0.001,27.006-5.44,40.002-18.437
		l196.018-196.017c25.166-25.167,25.166-66.117-0.001-91.284l-4.797-4.797c-12.15-12.15-28.36-18.842-45.643-18.842
		c-17.281,0-33.491,6.692-45.641,18.842L214.782,173.238c-0.001,0.001-0.001,0.001-0.002,0.002l-30.592,30.592l-40.344,40.344
		c-0.001,0.001-0.002,0.002-0.002,0.003l-70.42,70.42c-15.923,15.923-24.693,37.17-24.693,59.825s8.77,43.901,24.693,59.824
		l6.636,6.637c16.496,16.496,38.157,24.743,59.825,24.741c21.663-0.002,43.333-8.249,59.825-24.741l209.039-209.04
		c4.768-4.767,4.768-12.496,0-17.263c-4.766-4.767-12.496-4.767-17.262,0l-209.04,209.04
		c-11.736,11.736-27.147,17.604-42.563,17.603c-15.412-0.002-30.829-5.869-42.562-17.602l-6.637-6.638
		c-11.312-11.312-17.542-26.427-17.542-42.562s6.23-31.251,17.542-42.563l70.42-70.42c0.001-0.001,0.002-0.002,0.003-0.002
		L347.529,75.017c7.539-7.54,17.617-11.692,28.378-11.692c10.762,0,20.84,4.152,28.38,11.692l4.797,4.797
		c15.648,15.648,15.648,41.11,0.001,56.758L213.067,332.591c-14.532,14.531-28.637,13.438-36.167,5.905
		c-6.904-6.903-8.212-19.526,4.426-32.165L329.186,158.471z"/>
</g>
<g id="Layer_1">
</g>
</svg>
