<?xml version="1.0" encoding="iso-8859-1"?>
<!-- Generator: Adobe Illustrator 18.1.0, SVG Export Plug-In . SVG Version: 6.00 Build 0)  -->
<!DOCTYPE svg PUBLIC "-//W3C//DTD SVG 1.1//EN" "http://www.w3.org/Graphics/SVG/1.1/DTD/svg11.dtd">
<svg version="1.1" xmlns="http://www.w3.org/2000/svg" xmlns:xlink="http://www.w3.org/1999/xlink" x="0px" y="0px"
	 viewBox="0 0 512 512" enable-background="new 0 0 512 512" xml:space="preserve">
<g id="Layer_2">
	<path fill="#F9E7C0" d="M456.277,23.89c-17.004-3.034-73.198,16.638-112.369,70.597c-26.901-12.134-56.968-19.096-88.84-19.096
		c-31.562,0-61.348,6.836-88.048,18.753c-39.16-53.7-95.154-73.28-112.122-70.253c-16.694,2.979-55.89,103.224-5.649,180.983
		c-12.873,23.231-20.21,49.955-20.21,78.397c0,89.477,72.535,162.012,162.012,162.012c6.45,0,12.808-0.391,19.061-1.125
		c13.617,7.634,29.318,11.992,46.039,11.992c16.704,0,32.39-4.349,45.997-11.968c6.188,0.719,12.478,1.102,18.859,1.102
		c89.477,0,162.012-72.535,162.012-162.012c0-28.737-7.489-55.723-20.612-79.122C511.934,126.493,472.918,26.859,456.277,23.89z"/>
</g>
<g id="Layer_3">
	<path fill="#2B3B47" d="M311.277,438.869c-6.351,4.991-14.012,7.544-21.822,7.544c-5.455,0-10.982-1.245-16.189-3.775
		c-7.734-3.759-13.667-9.832-17.128-17.11c-3.461,7.278-9.394,13.351-17.128,17.11c-5.206,2.529-10.735,3.775-16.189,3.775
		c-7.811,0-15.471-2.553-21.823-7.544c-1.52-1.194-1.784-3.395-0.589-4.914c1.194-1.521,3.396-1.783,4.915-0.59
		c8.663,6.808,20.397,7.947,30.627,2.977c10.246-4.98,16.611-14.926,16.61-25.956c0-0.652,0.19-1.255,0.5-1.778
		c-0.253-0.484-0.41-1.026-0.41-1.61v-26.203c0-1.933,1.567-3.5,3.5-3.5c1.933,0,3.5,1.567,3.5,3.5v26.203
		c0,0.593-0.162,1.144-0.422,1.633c0.302,0.518,0.488,1.112,0.488,1.754c-0.001,11.03,6.364,20.976,16.61,25.956
		c10.23,4.972,21.965,3.83,30.627-2.977c1.518-1.194,3.72-0.931,4.914,0.59C313.062,435.475,312.798,437.675,311.277,438.869z
		 M136.024,310.649c10.078,0,18.93,5.222,24.017,13.103c1.514-3.326,2.364-7.019,2.364-10.912v-59.143
		c0-14.57-11.811-26.381-26.381-26.381c-14.57,0-26.381,11.811-26.381,26.381v59.143c0,3.893,0.85,7.585,2.364,10.912
		C117.094,315.871,125.947,310.649,136.024,310.649z M375.15,310.649c10.078,0,18.93,5.222,24.017,13.103
		c1.514-3.326,2.364-7.019,2.364-10.912v-59.143c0-14.57-11.811-26.381-26.381-26.381c-14.57,0-26.381,11.811-26.381,26.381v59.143
		c0,3.893,0.85,7.585,2.364,10.912C356.219,315.871,365.072,310.649,375.15,310.649z"/>
</g>
<g id="Layer_4">
	<path fill="#DDC89B" d="M351.169,327.418c-3.062,0-6.008-1.695-7.462-4.624c-2.045-4.117-0.365-9.113,3.753-11.157
		c17.63-8.755,37.769-9.015,55.249-0.712c4.153,1.973,5.92,6.938,3.948,11.091c-1.973,4.153-6.938,5.916-11.091,3.948
		c-12.838-6.1-27.674-5.885-40.702,0.583C353.675,327.138,352.412,327.418,351.169,327.418z M115.739,326.547
		c13.027-6.468,27.863-6.683,40.703-0.583c4.152,1.973,9.118,0.205,11.09-3.948c1.973-4.152,0.205-9.118-3.948-11.091
		c-17.481-8.304-37.621-8.044-55.25,0.712c-4.117,2.044-5.798,7.04-3.753,11.157c1.454,2.929,4.4,4.624,7.462,4.624
		C113.286,327.418,114.549,327.138,115.739,326.547z M10.156,409.035c0.424-0.222,44.054-22.233,184.573-25.062
		c1.38-0.027,2.477-1.169,2.449-2.55c-0.027-1.38-1.156-2.512-2.55-2.448C52.523,381.835,9.584,403.683,7.826,404.611
		c-1.219,0.645-1.685,2.152-1.043,3.373c0.447,0.851,1.316,1.336,2.216,1.336C9.389,409.32,9.786,409.229,10.156,409.035z
		 M25.287,443.916c0.677-0.212,68.625-21.357,151.372-40.457c1.345-0.311,2.184-1.652,1.874-2.998
		c-0.311-1.346-1.657-2.188-2.999-1.873c-82.929,19.142-151.059,40.343-151.737,40.555c-1.318,0.412-2.053,1.814-1.641,3.132
		c0.334,1.07,1.321,1.756,2.385,1.756C24.788,444.03,25.039,443.993,25.287,443.916z M56.022,490.209
		c0.58-0.561,59.145-56.302,157.143-78.923c1.345-0.311,2.184-1.652,1.874-2.998c-0.311-1.346-1.656-2.187-2.999-1.873
		c-99.333,22.929-158.901,79.628-159.491,80.198c-0.993,0.959-1.021,2.542-0.061,3.535c0.49,0.508,1.144,0.763,1.798,0.763
		C54.911,490.911,55.538,490.678,56.022,490.209z M508.902,407.99c0.645-1.222,0.178-2.733-1.043-3.379
		c-1.759-0.929-44.698-22.776-186.803-25.637c-0.018-0.001-0.034-0.001-0.052-0.001c-1.357,0-2.471,1.087-2.498,2.449
		c-0.028,1.381,1.068,2.522,2.448,2.55c140.519,2.829,184.148,24.841,184.568,25.061c0.373,0.196,0.772,0.29,1.166,0.29
		C507.587,409.323,508.454,408.838,508.902,407.99z M493.529,442.274c0.411-1.317-0.323-2.72-1.642-3.132
		c-0.679-0.212-68.809-21.413-151.737-40.555c-1.352-0.314-2.688,0.528-2.998,1.873c-0.311,1.346,0.528,2.688,1.873,2.998
		c82.735,19.098,150.695,40.245,151.372,40.457c0.248,0.077,0.499,0.114,0.746,0.114
		C492.208,444.03,493.194,443.345,493.529,442.274z M463.196,490.147c0.959-0.993,0.932-2.575-0.061-3.534
		c-0.591-0.57-60.158-57.27-159.491-80.198c-1.353-0.315-2.688,0.528-2.998,1.873c-0.311,1.346,0.528,2.688,1.873,2.998
		c97.916,22.602,156.562,78.363,157.143,78.924c0.485,0.468,1.11,0.701,1.736,0.701
		C462.053,490.911,462.706,490.655,463.196,490.147z"/>
</g>
<g id="Layer_5">
	<path fill="#FFA1E0" d="M250.508,383.349l-28.792-21.136c-8.132-5.97-1.542-15.322,10.796-15.322h45.703
		c12.338,0,18.928,9.352,10.796,15.322l-28.792,21.136C257.549,385.309,253.179,385.309,250.508,383.349z M78.854,166.402
		c14.831-21.141,33.975-39.837,56.312-54.711c-27.68-34.944-61.096-48.062-73.065-45.927c-12.164,2.171-40.186,72.9-7.75,130.539
		C61.318,185.377,69.55,175.336,78.854,166.402z M427.498,161.179c11.448,9.994,21.47,21.576,29.74,34.395
		c31.793-57.504,3.948-127.649-8.165-129.811c-12.019-2.145-45.664,11.098-73.411,46.372
		C395.855,125.692,413.409,142.386,427.498,161.179z"/>
</g>
</svg>
