<?xml version="1.0" encoding="iso-8859-1"?>
<!-- Generator: Adobe Illustrator 18.1.1, SVG Export Plug-In . SVG Version: 6.00 Build 0)  -->
<!DOCTYPE svg PUBLIC "-//W3C//DTD SVG 1.1//EN" "http://www.w3.org/Graphics/SVG/1.1/DTD/svg11.dtd">
<svg version="1.1" xmlns="http://www.w3.org/2000/svg" xmlns:xlink="http://www.w3.org/1999/xlink" x="0px" y="0px"
	 viewBox="0 0 512 512" enable-background="new 0 0 512 512" xml:space="preserve">
<g id="Layer_2">
	<path fill="#FFD469" d="M256,19C124.746,19,18.344,125.402,18.344,256.656S124.746,494.311,256,494.311
		s237.656-106.402,237.656-237.656S387.254,19,256,19z M256,306.266c-27.399,0-49.61-22.211-49.61-49.61
		c0-27.399,22.211-49.61,49.61-49.61c27.399,0,49.61,22.211,49.61,49.61C305.61,284.055,283.399,306.266,256,306.266z"/>
</g>
<g id="Layer_3">
	<path fill="#FFB636" d="M151.549,223.195L48.575,188.342c20.828-61.538,68.08-111.9,126.398-134.718l39.611,101.24
		C186.211,165.965,162.058,192.148,151.549,223.195z"/>
</g>
<g id="Layer_4">
	<path fill="#FFB636" d="M360.451,290.116l102.975,34.853c-20.828,61.538-68.08,111.9-126.398,134.718l-39.611-101.24
		C325.789,347.346,349.943,321.163,360.451,290.116z"/>
</g>
<g id="Layer_5">
	<path fill="#FFE1AB" d="M172.055,186.529c8.981-10.913,19.785-20.06,31.645-26.564c6.058-3.322,11.88-2.553,9.362-8.988
		l-34.335-87.756c-4.799-12.267-10.073-7.17-17.259-3.731c-25.77,12.334-48.959,30.157-68.158,51.872L172.055,186.529z"/>
</g>
<g id="Layer_6">
	<path fill="#FFE1AB" d="M339.945,326.782c-11.663,14.171-26.398,25.364-42.531,31.66l39.612,101.242
		c31.188-12.187,59.166-32.289,81.663-57.735L339.945,326.782z"/>
</g>
<g id="Layer_7">
	<path fill="#F2A74E" d="M256,347.109c-49.876,0-90.454-40.577-90.454-90.454s40.578-90.454,90.454-90.454
		c49.877,0,90.454,40.578,90.454,90.454S305.877,347.109,256,347.109z M256,188.659c-37.494,0-67.997,30.503-67.997,67.997
		s30.503,67.997,67.997,67.997c37.494,0,67.997-30.503,67.997-67.997S293.494,188.659,256,188.659z"/>
</g>
</svg>
