<?xml version="1.0" encoding="iso-8859-1"?>
<!-- Generator: Adobe Illustrator 18.1.1, SVG Export Plug-In . SVG Version: 6.00 Build 0)  -->
<!DOCTYPE svg PUBLIC "-//W3C//DTD SVG 1.1//EN" "http://www.w3.org/Graphics/SVG/1.1/DTD/svg11.dtd">
<svg version="1.1" xmlns="http://www.w3.org/2000/svg" xmlns:xlink="http://www.w3.org/1999/xlink" x="0px" y="0px"
	 viewBox="0 0 512 512" enable-background="new 0 0 512 512" xml:space="preserve">
<g id="Layer_4">
	<path fill="#FFFFFF" d="M122.194,367.921v59.707c0,3.976-3.224,7.2-7.2,7.2H71.689c-3.976,0-7.2-3.224-7.2-7.2v-59.707
		c0-3.976,3.224-7.2,7.2-7.2h43.306C118.971,360.721,122.194,363.944,122.194,367.921z M195.99,286.614h-43.306
		c-3.976,0-7.2,3.224-7.2,7.2v133.813c0,3.976,3.224,7.2,7.2,7.2h43.306c3.976,0,7.2-3.224,7.2-7.2V293.814
		C203.19,289.838,199.967,286.614,195.99,286.614z M276.986,223.635H233.68c-3.976,0-7.2,3.224-7.2,7.2v196.793
		c0,3.976,3.224,7.2,7.2,7.2h43.306c3.976,0,7.2-3.224,7.2-7.2V230.835C284.186,226.859,280.963,223.635,276.986,223.635z
		 M357.982,160.656h-43.306c-3.976,0-7.2,3.224-7.2,7.2v259.772c0,3.976,3.224,7.2,7.2,7.2h43.306c3.976,0,7.2-3.224,7.2-7.2
		V167.856C365.182,163.879,361.959,160.656,357.982,160.656z M438.978,97.677h-43.306c-3.976,0-7.2,3.224-7.2,7.2v322.751
		c0,3.976,3.224,7.2,7.2,7.2h43.306c3.976,0,7.2-3.224,7.2-7.2V104.877C446.178,100.9,442.955,97.677,438.978,97.677z"/>
</g>
<g id="Layer_1">
</g>
</svg>
