<?xml version="1.0" encoding="utf-8"?>
<!-- Generator: Adobe Illustrator 18.1.0, SVG Export Plug-In . SVG Version: 6.00 Build 0)  -->
<!DOCTYPE svg PUBLIC "-//W3C//DTD SVG 1.0//EN" "http://www.w3.org/TR/2001/REC-SVG-20010904/DTD/svg10.dtd">
<svg version="1.0" id="Layer_1" xmlns="http://www.w3.org/2000/svg" xmlns:xlink="http://www.w3.org/1999/xlink" x="0px" y="0px"
	 width="72px" height="72px" viewBox="0 0 72 72" enable-background="new 0 0 72 72" xml:space="preserve">
<path fill="#FFD3B6" d="M68.9,30.5c-1.6-1.6-4.2-1.6-5.9,0L52.1,41.4c-1.4,0.8-3-1-1.7-2.4c0.1-0.1,0.1-0.1,0.1-0.1l15.3-15.3
	c1.6-1.6,1.6-4.3,0-5.9c-1.6-1.6-4.2-1.6-5.9,0L44.5,33.2c-1.3,1.1-3-0.4-2.1-1.8l17.8-17.8c1.6-1.6,1.6-4.3,0-5.9
	c-1.6-1.6-4.2-1.6-5.9,0L36.6,25.5c-1.5,0.9-3.2-1.1-1.8-2.5c0,0,0,0,0,0L49.7,8.2c1.6-1.6,1.6-4.3,0-5.9c-1.6-1.6-4.2-1.6-5.9,0
	L18.7,27.4c0.1-1.6-0.2-2.5-0.2-4.4c-0.2-10.4-4.2-11.5-6.4-11.6c-2.2-0.1-3.7,2-3.7,4.3c0.8,10.8-3.9,21.8-5.1,25.4
	c0,0,0,0.1,0,0.1C3.1,41.6,3,42,3,42.2c0,0.2-0.1,0.4-0.1,0.6c-0.3,2.5,0.4,5.1,2.1,7.2l-3,3c-1.6,1.6-1.6,4.3,0,5.9l11.8,11.8
	c1.6,1.6,4.3,1.6,5.9,0l4.2-4.2c6.5,2.3,14.1,0.9,19.3-4.3L69,36.4C70.6,34.7,70.6,32.1,68.9,30.5z"/>
<path fill="#F2C7AA" d="M17,62.1l-2.4-2.4l0,0l-9-9c-0.1-0.1-0.2-0.2-0.3-0.4c-0.1-0.2-0.3-0.3-0.4-0.5l-2.6,2.6
	C2.6,53.4,3,54,3.4,54.4l14.7,14.7c0.4,0.4,1.1,0.8,1.9,1l3.7-3.7C21.3,65.6,19,64.1,17,62.1z"/>
<path fill="#FF7DDA" d="M62.9,34.4c-0.5-0.5-0.5-1.2,0-1.7l4-4c1.1-1.1,2.8-1,3.8,0.2c0.9,1,0.7,2.6-0.3,3.6l-3.7,3.7
	c-0.6,0.6-1.5,0.6-2.1,0L62.9,34.4z M61.2,23.7c0.6,0.6,1.5,0.6,2.1,0l3.7-3.7c1-1,1.1-2.5,0.3-3.6c-1-1.2-2.7-1.2-3.8-0.2l-4,4
	c-0.5,0.5-0.5,1.2,0,1.7L61.2,23.7z M55.9,13.6c0.6,0.6,1.5,0.6,2.1,0l3.7-3.7c1-1,1.1-2.5,0.3-3.6c-1-1.2-2.7-1.2-3.8-0.2l-4,4
	c-0.5,0.5-0.5,1.2,0,1.7L55.9,13.6z M45,8.2c0.6,0.6,1.5,0.6,2.1,0l3.7-3.7c1-1,1.1-2.5,0.3-3.6c-1-1.2-2.7-1.2-3.8-0.2l-4,4
	c-0.5,0.5-0.5,1.2,0,1.7L45,8.2z"/>
</svg>
