<?xml version="1.0" encoding="utf-8"?>
<!-- Generator: Adobe Illustrator 18.0.0, SVG Export Plug-In . SVG Version: 6.00 Build 0)  -->
<!DOCTYPE svg PUBLIC "-//W3C//DTD SVG 1.1 Tiny//EN" "http://www.w3.org/Graphics/SVG/1.1/DTD/svg11-tiny.dtd">
<svg version="1.1" baseProfile="tiny" id="Layer_1" xmlns="http://www.w3.org/2000/svg" xmlns:xlink="http://www.w3.org/1999/xlink"
	 x="0px" y="0px" width="511.9px" height="511.9px" viewBox="0 0 511.9 511.9" xml:space="preserve">
<path fill="#FFD3B6" d="M448.7,382.6C448.7,382.6,448.7,382.6,448.7,382.6c0.3-0.7,0.5-1.4,0.7-2c0,0,0-0.1,0-0.1
	c0.2-0.6,0.4-1.3,0.6-1.9c0-0.1,0.1-0.2,0.1-0.3c0.2-0.6,0.4-1.2,0.6-1.9c0-0.1,0.1-0.3,0.1-0.4c0.2-0.6,0.3-1.2,0.5-1.8
	c0-0.2,0.1-0.3,0.1-0.5c0.1-0.6,0.3-1.1,0.4-1.7c0-0.2,0.1-0.4,0.1-0.6c0.1-0.5,0.2-1.1,0.4-1.6c0-0.2,0.1-0.5,0.1-0.7
	c0.1-0.5,0.2-1,0.3-1.6c0-0.3,0.1-0.6,0.1-0.9c0.1-0.5,0.2-1,0.2-1.5c0-0.3,0.1-0.6,0.1-1c0.1-0.5,0.1-0.9,0.2-1.4
	c0-0.4,0.1-0.7,0.1-1.1c0-0.5,0.1-0.9,0.1-1.4c0-0.4,0.1-0.8,0.1-1.2c0-0.4,0.1-0.8,0.1-1.3c0-0.5,0.1-0.9,0.1-1.4
	c0-0.4,0-0.7,0.1-1.1c0-0.6,0-1.1,0.1-1.7c0-0.3,0-0.6,0-0.9c0-0.9,0-1.7,0-2.6c0-1.5,0-3.1-0.1-4.6c0-0.1,0-0.3,0-0.4
	c-0.1-1.4-0.2-2.8-0.3-4.2c0-0.2,0-0.4,0-0.6c-0.1-1.3-0.3-2.7-0.5-4c0-0.2-0.1-0.4-0.1-0.6c-0.2-1.3-0.4-2.6-0.6-3.8
	c0-0.2-0.1-0.4-0.1-0.6c-0.2-1.3-0.5-2.5-0.8-3.7c0-0.2-0.1-0.3-0.1-0.5c-0.3-1.2-0.6-2.5-1-3.7c0-0.1-0.1-0.2-0.1-0.3
	c-0.4-1.3-0.8-2.5-1.2-3.7c0,0,0,0,0,0c-0.4-1.2-0.9-2.4-1.4-3.6c0-0.1-0.1-0.2-0.1-0.3c-0.5-1.1-1-2.2-1.5-3.3
	c-0.1-0.1-0.1-0.3-0.2-0.4c-0.5-1.1-1-2.1-1.6-3.1c-0.1-0.2-0.2-0.3-0.3-0.5c-0.5-1-1.1-2-1.7-2.9c-0.1-0.2-0.2-0.3-0.3-0.5
	c-0.6-1-1.2-1.9-1.9-2.8c-0.1-0.1-0.2-0.3-0.3-0.4c-0.7-0.9-1.3-1.9-2-2.8c-0.1-0.1-0.1-0.2-0.2-0.3c-0.7-0.9-1.5-1.9-2.3-2.8
	c0,0,0,0,0,0c-0.8-0.9-1.6-1.8-2.4-2.6c-0.1-0.1-0.1-0.1-0.2-0.2c-0.8-0.8-1.6-1.6-2.5-2.4c-0.1-0.1-0.2-0.2-0.3-0.3
	c-0.8-0.8-1.7-1.5-2.5-2.2c-0.1-0.1-0.3-0.2-0.4-0.3c-0.8-0.7-1.7-1.4-2.6-2.1c-0.1-0.1-0.3-0.2-0.4-0.3c-0.9-0.7-1.8-1.3-2.7-2
	c-0.1-0.1-0.3-0.2-0.4-0.3c-0.9-0.6-1.9-1.3-2.9-1.9c-0.1-0.1-0.2-0.1-0.3-0.2c-1-0.6-2.1-1.2-3.1-1.8c0,0-0.1,0-0.1,0
	c-1.1-0.6-2.1-1.1-3.2-1.7c-0.1,0-0.2-0.1-0.2-0.1c-1.1-0.5-2.1-1-3.2-1.5c-0.1-0.1-0.3-0.1-0.4-0.2c-1.1-0.5-2.1-0.9-3.2-1.3
	c-0.2-0.1-0.3-0.1-0.5-0.2c-1.1-0.4-2.2-0.8-3.3-1.2c-0.2-0.1-0.4-0.1-0.6-0.2c-1.1-0.4-2.2-0.7-3.4-1.1c-0.2-0.1-0.3-0.1-0.5-0.2
	c-1.2-0.3-2.3-0.7-3.5-1c-0.1,0-0.3-0.1-0.4-0.1c-1.2-0.3-2.5-0.6-3.7-0.9c0,0-0.1,0-0.1,0c-1.3-0.3-2.5-0.5-3.8-0.8
	c-0.1,0-0.2,0-0.3-0.1c-1.3-0.2-2.5-0.4-3.8-0.6c-0.2,0-0.3,0-0.5-0.1c-1.2-0.2-2.5-0.3-3.8-0.5c-0.2,0-0.4,0-0.6-0.1
	c-1.2-0.1-2.5-0.3-3.8-0.4c-0.1,0-0.2,0-0.3,0c-6.1-0.5-10.9-5.5-10.9-11.7l-1.7-133c0-55.7-45.1-100.8-100.8-100.8
	c-55.7,0-100.8,45.1-100.8,100.8l-1.7,133c-0.1,6.1-4.8,11.2-10.9,11.7c-0.1,0-0.2,0-0.3,0c-1.3,0.1-2.5,0.2-3.8,0.4
	c-0.2,0-0.4,0-0.6,0.1c-1.3,0.1-2.5,0.3-3.8,0.5c-0.2,0-0.3,0-0.5,0.1c-1.3,0.2-2.6,0.4-3.8,0.6c-0.1,0-0.2,0-0.3,0.1
	c-1.3,0.2-2.6,0.5-3.8,0.8c0,0-0.1,0-0.1,0c-1.3,0.3-2.5,0.6-3.7,0.9c-0.1,0-0.3,0.1-0.4,0.1c-1.2,0.3-2.4,0.6-3.5,1
	c-0.2,0.1-0.3,0.1-0.5,0.2c-1.1,0.3-2.3,0.7-3.4,1.1c-0.2,0.1-0.4,0.1-0.6,0.2c-1.1,0.4-2.2,0.8-3.3,1.2c-0.2,0.1-0.3,0.1-0.5,0.2
	c-1.1,0.4-2.2,0.9-3.2,1.3c-0.1,0.1-0.3,0.1-0.4,0.2c-1.1,0.5-2.2,1-3.2,1.5c-0.1,0-0.2,0.1-0.2,0.1c-1.1,0.5-2.2,1.1-3.2,1.7
	c0,0-0.1,0-0.1,0c-1.1,0.6-2.1,1.2-3.1,1.8c-0.1,0.1-0.2,0.1-0.3,0.2c-1,0.6-1.9,1.2-2.9,1.9c-0.1,0.1-0.3,0.2-0.4,0.3
	c-0.9,0.6-1.8,1.3-2.7,2c-0.1,0.1-0.3,0.2-0.4,0.3c-0.9,0.7-1.7,1.4-2.6,2.1c-0.1,0.1-0.3,0.2-0.4,0.3c-0.9,0.7-1.7,1.5-2.5,2.2
	c-0.1,0.1-0.2,0.2-0.3,0.3c-0.8,0.8-1.7,1.6-2.5,2.4c-0.1,0.1-0.1,0.1-0.2,0.2c-0.8,0.9-1.6,1.7-2.4,2.6c0,0,0,0,0,0
	c-0.8,0.9-1.5,1.8-2.3,2.8c-0.1,0.1-0.1,0.2-0.2,0.3c-0.7,0.9-1.4,1.8-2,2.8c-0.1,0.1-0.2,0.3-0.3,0.4c-0.6,0.9-1.3,1.9-1.9,2.8
	c-0.1,0.2-0.2,0.3-0.3,0.5c-0.6,1-1.2,1.9-1.7,2.9c-0.1,0.2-0.2,0.3-0.3,0.5c-0.5,1-1.1,2-1.6,3.1c-0.1,0.1-0.1,0.3-0.2,0.4
	c-0.5,1.1-1,2.2-1.5,3.3c0,0.1-0.1,0.2-0.1,0.3c-0.5,1.2-0.9,2.4-1.4,3.6c0,0,0,0,0,0c-0.4,1.2-0.8,2.5-1.2,3.7
	c0,0.1-0.1,0.2-0.1,0.3c-0.4,1.2-0.7,2.4-1,3.7c0,0.2-0.1,0.3-0.1,0.5c-0.3,1.2-0.6,2.5-0.8,3.7c0,0.2-0.1,0.4-0.1,0.6
	c-0.2,1.3-0.4,2.5-0.6,3.8c0,0.2-0.1,0.4-0.1,0.6c-0.2,1.3-0.3,2.6-0.5,4c0,0.2,0,0.4,0,0.6c-0.1,1.4-0.2,2.8-0.3,4.2
	c0,0.1,0,0.3,0,0.4c-0.1,1.5-0.1,3-0.1,4.6c0,0.9,0,1.7,0,2.6c0,0.3,0,0.6,0,0.9c0,0.6,0,1.1,0.1,1.7c0,0.4,0,0.7,0.1,1.1
	c0,0.5,0.1,0.9,0.1,1.4c0,0.4,0.1,0.8,0.1,1.3c0,0.4,0.1,0.8,0.1,1.2c0,0.5,0.1,0.9,0.1,1.4c0,0.4,0.1,0.7,0.1,1.1
	c0.1,0.5,0.1,0.9,0.2,1.4c0,0.3,0.1,0.7,0.1,1c0.1,0.5,0.2,1,0.2,1.5c0,0.3,0.1,0.6,0.1,0.9c0.1,0.5,0.2,1,0.3,1.6
	c0,0.2,0.1,0.5,0.1,0.7c0.1,0.6,0.2,1.1,0.4,1.6c0,0.2,0.1,0.4,0.1,0.6c0.1,0.6,0.3,1.1,0.4,1.7c0,0.2,0.1,0.3,0.1,0.5
	c0.2,0.6,0.3,1.2,0.5,1.8c0,0.1,0.1,0.3,0.1,0.4c0.2,0.6,0.4,1.2,0.6,1.9c0,0.1,0.1,0.2,0.1,0.3c0.2,0.6,0.4,1.3,0.6,1.9
	c0,0,0,0.1,0,0.1c0.2,0.7,0.5,1.3,0.7,2c0,0,0,0,0,0c12.8,33.9,46.4,50.7,86.1,51.3c0,0,0,0,0.1,0c40.6,0,47.5,44.3,104.5,44.3
	c57,0,64-44.3,104.5-44.3c0,0,0,0,0.1,0C402.3,433.4,435.9,416.5,448.7,382.6z"/>
<path fill="#EDC0A2" d="M76,398.8c0,0,0.3,0.3,0.8,0.9c0.3,0.3,0.6,0.7,1,1.1c0.4,0.4,0.9,0.8,1.4,1.4c0.5,0.5,1.2,1.1,1.8,1.7
	c0.3,0.3,0.7,0.7,1.1,1c0.4,0.3,0.7,0.7,1.1,1l0.3,0.3l0.2,0.1l0,0c0,0,0.1,0.1,0,0l0.1,0.1c0.2,0.2,0.5,0.3,0.7,0.5
	c0.5,0.4,1,0.7,1.5,1.1c0.5,0.4,1,0.8,1.5,1.2c0.3,0.2,0.5,0.4,0.8,0.6l0.4,0.3l0.1,0c-0.1-0.1,0,0,0,0l0.1,0.1l0.2,0.2
	c0.3,0.2,0.6,0.4,0.9,0.6l0.1,0.1l0.1,0c0.1,0.1-0.1-0.1,0,0l0.2,0.1l0.5,0.3c0.6,0.4,1.3,0.8,1.9,1.2c0.7,0.4,1.3,0.8,2,1.3
	c0.3,0.2,0.7,0.4,1,0.7c0,0,0.2,0.1,0,0l0.1,0l0.1,0.1l0.3,0.2l0.5,0.3c0.7,0.3,1.5,0.7,2.2,1.1c0.8,0.4,1.6,0.8,2.4,1.2
	c0.4,0.2,0.8,0.4,1.2,0.6l0.6,0.3c0,0,0.2,0.1-0.1,0l0.1,0l0.2,0.1l0.3,0.2c0.8,0.3,1.7,0.6,2.5,1c0.9,0.3,1.8,0.7,2.8,1.1
	c0.5,0.2,0.9,0.4,1.4,0.6l0.4,0.1l0.2,0.1l0.1,0c-0.3-0.1,0,0-0.1,0l0.4,0.1c0.2,0.1-0.1-0.1-0.1,0l0.1,0l0.2,0.1
	c2,0.6,4,1.2,6.1,1.8l0.8,0.2l0.4,0.1l0.2,0.1c-0.1,0,0.3,0.1-0.1,0l0.1,0l0.1,0c0.1,0-0.3-0.1-0.1,0l0.2,0l0.4,0.1l0.8,0.2
	c1.1,0.2,2.2,0.5,3.3,0.7c1.1,0.2,2.3,0.5,3.4,0.7l0.2,0c0.3,0.1-0.4-0.1-0.2-0.1l0.1,0l0.4,0.1l0.9,0.1c0.6,0.1,1.2,0.2,1.8,0.2
	c1.2,0.2,2.4,0.3,3.6,0.5c1.1,0.1,2.3,0.2,3.4,0.3c1.2,0.1,2.3,0.2,3.5,0.3c1.2,0,2.4,0.1,3.7,0.1c0.6,0,1.2,0,1.9,0.1
	c0.6,0,1.2,0,1.9,0c1.3,0,2.5,0,3.8,0l1,0l0.2,0c0.7,0.1-1.5-0.2,1.7,0.2c-0.1,0,0.3,0.1-0.1,0c-0.3-0.1-1.6-0.2-1.2-0.1l0.1,0
	l0.3,0c0.7,0,1.3,0,2,0c0.3,0,0.7,0,1,0l1.2,0.1c0.8,0,1.7,0.1,2.5,0.1c6.3,0.5,12.7,2.3,18.7,5.1c6,2.7,11.3,6.4,16.4,10
	c5,3.7,9.7,7.4,14.5,10.8c4.8,3.4,9.6,6.3,14.6,8.7c5.1,2.3,10.3,4.1,15.9,5.2l2.1,0.4l0.5,0.1c0,0,0.2,0,0,0l0.1,0l0.3,0l1.2,0.2
	l2.4,0.4l0.6,0.1c0.5,0.1-0.5-0.1-0.3,0l0.1,0l0.3,0l0.6,0.1l0.3,0l0.1,0c0.3,0-0.2,0-0.1,0l4.8,0.3l2.1,0l1,0l0.5,0l0.3,0l0.1,0
	c-0.1,0,0.3,0-0.1,0l4.8-0.1l4.1-0.3l1.1-0.1l0.3,0l0.1,0c0.1,0-0.8,0.1-0.3,0l0.6-0.1l2.4-0.4l1.2-0.2l0.3,0l0.1,0
	c-0.7,0.1-0.1,0-0.2,0l0.6-0.1l2.3-0.5c0.8-0.1,1.4-0.3,2.1-0.5l1.9-0.5c1.3-0.4,2.7-0.7,4-1.2c2.7-0.8,5.2-1.9,7.8-3
	c5-2.4,9.9-5.3,14.6-8.7c4.8-3.4,9.5-7.1,14.5-10.8c5-3.6,10.4-7.3,16.4-10c6-2.8,12.4-4.5,18.7-5.1c1.6-0.1,3.1-0.2,4.7-0.2
	c0.8,0,1.5,0,2.3,0l0.3,0l0.1,0c-2.8,0.3-0.7,0.1-1.3,0.1c0.1,0,0.5-0.1,0.8-0.1c0.9-0.1,0.3,0,0.6,0l0.3,0l1,0c1.3,0,2.7,0,4,0
	c0.6,0,1.3,0,1.9,0c0.6,0,1.2,0,1.8-0.1c1.2,0,2.4-0.1,3.6-0.1c1.2,0,2.4-0.2,3.6-0.3c1.2-0.1,2.4-0.2,3.5-0.3
	c1.2-0.2,2.3-0.3,3.4-0.5c1.1-0.1,2.1-0.3,3.2-0.4c1.2-0.2,2.3-0.5,3.4-0.7c1.1-0.2,2.2-0.5,3.3-0.7l0.8-0.2l0.4-0.1l0.2,0
	c0.2-0.1-0.2,0.1-0.1,0l0.1,0l0.1,0c-0.4,0.1,0,0-0.1,0l0.2-0.1l0.4-0.1l0.8-0.2c2.1-0.6,4.2-1.2,6.1-1.8l0.2-0.1l0.1,0
	c0.1,0-0.3,0.1-0.1,0l0.4-0.1c0,0,0.2-0.1-0.1,0l0.1,0l0.2-0.1l0.4-0.1c0.5-0.2,0.9-0.4,1.4-0.6c0.9-0.4,1.9-0.7,2.8-1.1
	c0.9-0.3,1.7-0.7,2.5-1l0.3-0.2l0.2-0.1l0.1,0c-0.3,0.2,0,0-0.1,0l0.6-0.3c0.4-0.2,0.8-0.4,1.2-0.6c0.8-0.4,1.6-0.8,2.4-1.2
	c0.7-0.4,1.5-0.7,2.2-1.1l0.5-0.3l0.3-0.2l0.1-0.1l0.1,0c-0.2,0.2,0,0,0,0c0.4-0.2,0.7-0.4,1-0.6c0.7-0.4,1.4-0.8,2-1.3
	c0.7-0.4,1.3-0.8,1.9-1.2l0.5-0.3l0.2-0.1c0,0-0.1,0.1,0,0l0.1,0l0.1-0.1c0.3-0.2,0.6-0.4,0.9-0.6l0.2-0.2l0.1-0.1c0,0,0.1-0.1,0,0
	l0.1,0l0.4-0.3c0.3-0.2,0.5-0.4,0.8-0.6c0.5-0.4,1-0.8,1.5-1.2c0.5-0.4,1-0.7,1.5-1.1c0.2-0.2,0.5-0.4,0.7-0.5l0.1-0.1
	c-0.1,0.1,0,0,0,0l0,0l0.2-0.1l0.3-0.3c0.4-0.4,0.8-0.7,1.1-1c0.4-0.3,0.7-0.7,1.1-1c0.7-0.6,1.3-1.2,1.8-1.7c0.5-0.5,1-1,1.4-1.4
	c0.4-0.4,0.7-0.8,1-1.1c0.5-0.6,0.8-0.9,0.8-0.9s-0.2,0.4-0.5,1.1c-0.2,0.3-0.4,0.8-0.7,1.3c-0.3,0.5-0.7,1-1.1,1.7
	c-0.4,0.6-0.9,1.3-1.4,2.1c-0.3,0.4-0.5,0.8-0.8,1.2c-0.3,0.4-0.6,0.9-0.9,1.3l-0.2,0.3l-0.1,0.2l0,0c0,0,0,0-0.1,0.1l-0.1,0.1
	c-0.2,0.2-0.4,0.4-0.6,0.7c-0.4,0.4-0.8,0.9-1.2,1.4c-0.4,0.5-0.8,1-1.3,1.5c-0.2,0.2-0.4,0.5-0.7,0.8l-0.3,0.4l0,0
	c-0.2,0.2-0.1,0.1-0.1,0.1l-0.1,0.1l-0.2,0.2c-0.2,0.3-0.5,0.5-0.7,0.8l-0.1,0.1l0,0.1c0.1,0-0.1,0.1-0.1,0.1l-0.2,0.2l-0.4,0.4
	c-0.5,0.5-1.1,1-1.7,1.5c-0.6,0.5-1.2,1.1-1.8,1.6c-0.3,0.3-0.6,0.5-0.9,0.8c-0.1,0.1,0.1,0-0.2,0.1l-0.1,0.1l-0.1,0.1l-0.2,0.2
	l-0.5,0.4c-0.7,0.5-1.5,1.1-2.2,1.6c-0.7,0.5-1.4,1-2.2,1.6c-0.4,0.3-0.7,0.5-1.1,0.8l-0.6,0.4c-0.1,0.1,0.1-0.1-0.2,0.1l-0.1,0.1
	l-0.1,0.1l-0.3,0.2l-0.1,0.1l-0.1,0.1c-0.3,0.2-0.1,0.1-0.2,0.1l-0.3,0.2l-0.6,0.4c-0.4,0.2-0.8,0.5-1.3,0.7c-0.8,0.5-1.7,1-2.6,1.5
	c-0.4,0.2-0.9,0.5-1.3,0.8l-0.3,0.2l-0.2,0.1l-0.1,0c-0.4,0.2-0.2,0.1-0.3,0.1l-0.3,0.2l-0.5,0.2c-1.9,0.9-3.8,1.7-5.8,2.7l-0.7,0.3
	l-0.4,0.2l-0.2,0.1c-0.1,0,0.1,0-0.3,0.1l-0.1,0c-0.6,0.2-1.2,0.4-1.8,0.6c-1.1,0.4-2.1,0.7-3.2,1.1s-2.2,0.8-3.3,1.1l-0.2,0.1
	c0.1,0-0.4,0.1-0.3,0.1l-0.1,0l-0.4,0.1l-0.9,0.2c-0.6,0.2-1.2,0.3-1.8,0.5c-1.2,0.3-2.4,0.7-3.7,1c-1.3,0.3-2.5,0.5-3.8,0.8
	c-1.3,0.2-2.6,0.6-3.9,0.7c-1.3,0.2-2.7,0.4-4.1,0.6c-0.7,0.1-1.4,0.2-2.1,0.3c-0.7,0.1-1.3,0.1-2,0.2c-1.3,0.1-2.6,0.2-4,0.3
	l-1,0.1l-0.3,0c0.2,0-0.5,0,0.3,0c0.2,0,0.5-0.1,0.6-0.1c-0.7,0.1,1.3-0.1-1.5,0.2l-0.1,0l-0.2,0c-0.6,0.1-1.2,0.1-1.8,0.2
	c-1.2,0.1-2.3,0.3-3.5,0.5c-2.3,0.5-4.6,1-6.8,1.8c-2.2,0.8-4.4,1.8-6.6,3c-2.2,1.2-4.3,2.6-6.5,4.2c-2.2,1.6-4.4,3.3-6.6,5.1
	c-4.4,3.7-9.1,7.8-14.2,11.8c-2.6,2-5.3,3.9-8.1,5.8c-2.9,1.8-5.9,3.6-9,5.2c-3.2,1.5-6.4,3-9.8,4.1c-0.8,0.3-1.7,0.6-2.5,0.9
	l-2.6,0.8l-2.7,0.7c-0.9,0.2-1.9,0.5-2.6,0.6l-2.3,0.5l-0.6,0.1l-0.7,0.1l-0.3,0l-1.2,0.2l-2.4,0.4l-0.6,0.1l-1.1,0.1l-1.2,0.2
	c-1.8,0.1-3.7,0.3-5.5,0.4l-4.8,0.1l-3-0.1l-2.7-0.1l-4.8-0.4l-0.4,0l-0.1,0l-0.3,0l-0.6-0.1l-1.1-0.1l-0.6-0.1l-2.4-0.4l-1.2-0.2
	l-0.7-0.1l-0.7-0.1l-2.6-0.5c-1.7-0.3-3.5-0.8-5.2-1.3c-1.7-0.6-3.4-1-5.1-1.6c-3.4-1.2-6.6-2.6-9.8-4.1c-3.1-1.6-6.1-3.3-9-5.2
	c-2.8-1.9-5.6-3.8-8.1-5.8c-5.2-4-9.8-8.1-14.2-11.8c-2.2-1.8-4.4-3.6-6.6-5.1c-2.2-1.6-4.3-3-6.5-4.2c-2.2-1.3-4.4-2.2-6.6-3
	c-0.6-0.2-1.1-0.4-1.7-0.6c-0.6-0.2-1.1-0.3-1.7-0.5l-0.9-0.2l-0.9-0.2c-0.6-0.1-1.2-0.3-1.7-0.4c-0.5-0.1-1.1-0.2-1.6-0.2l-0.8-0.1
	c-0.3,0-0.7-0.1-1-0.1c-0.7-0.1-1.3-0.1-2-0.2l-0.3,0l-0.1,0c0.3,0-1-0.1-1.4-0.2c-0.5-0.1-0.2-0.1-0.3-0.1c3.1,0.4,0.8,0.1,1.5,0.2
	l-0.3,0l-1-0.1c-2.8-0.3-5.5-0.4-8.2-0.8c-1.3-0.2-2.7-0.4-4-0.6c-1.3-0.2-2.7-0.5-4-0.7c-1.3-0.3-2.6-0.5-3.9-0.8
	c-1.2-0.3-2.4-0.6-3.5-0.9c-1.3-0.4-2.5-0.7-3.8-1c-1.1-0.4-2.2-0.8-3.3-1.1c-1.1-0.4-2.2-0.8-3.2-1.1c-0.6-0.2-1.2-0.4-1.8-0.6
	l-0.1,0c-0.4-0.1-0.2-0.1-0.3-0.1l-0.2-0.1l-0.4-0.2l-0.7-0.3c-2-0.9-3.9-1.8-5.8-2.7l-0.5-0.2l-0.3-0.2c-0.1-0.1,0.1,0-0.3-0.1
	l-0.1,0l-0.2-0.1l-0.3-0.2c-0.4-0.3-0.9-0.5-1.3-0.8c-0.9-0.5-1.7-1-2.6-1.5c-0.4-0.2-0.8-0.5-1.3-0.7l-0.6-0.4l-0.3-0.2l-0.2-0.1
	l-0.1-0.1l-0.1-0.1l-0.3-0.2l-0.1-0.1l-0.1-0.1c-0.3-0.2-0.1-0.1-0.2-0.1l-0.6-0.4c-0.4-0.3-0.8-0.5-1.1-0.8c-1.5-1.1-3-2.2-4.4-3.2
	l-0.5-0.4l-0.2-0.2l-0.1-0.1l-0.1-0.1c-0.2-0.2-0.1-0.1-0.2-0.1c-0.3-0.3-0.6-0.6-0.9-0.8c-0.6-0.5-1.2-1.1-1.8-1.6
	c-0.6-0.5-1.1-1-1.7-1.5l-0.4-0.4l-0.2-0.2c0,0-0.2-0.2-0.1-0.1l0-0.1l-0.1-0.1c-0.2-0.3-0.5-0.5-0.7-0.8l-0.2-0.2l-0.1-0.1
	c0,0,0,0-0.1-0.1l0,0l-0.3-0.4c-0.2-0.3-0.4-0.5-0.7-0.8c-0.4-0.5-0.9-1-1.3-1.5c-0.4-0.5-0.8-0.9-1.2-1.4c-0.2-0.2-0.4-0.4-0.6-0.7
	l-0.1-0.1c-0.1-0.1,0-0.1-0.1-0.1l0,0l-0.1-0.2l-0.2-0.3c-0.3-0.5-0.6-0.9-0.9-1.3c-0.3-0.4-0.6-0.8-0.8-1.2c-0.5-0.8-1-1.5-1.4-2.1
	c-0.4-0.6-0.8-1.1-1.1-1.7c-0.3-0.5-0.5-0.9-0.7-1.3C76.2,399.1,76,398.8,76,398.8z"/>
<path fill="#FFE0CF" d="M208.5,395.3c-3.6,0-7.3-1.1-10.4-3.5c-12.7-9.8-19.4-26.5-19.4-38c0-9.4,7.6-17.1,17.1-17.1
	c9.4,0,17,7.6,17.1,16.9c0.2,2.1,2.4,8.2,6,11c7.5,5.7,8.9,16.5,3.2,23.9C218.7,393,213.7,395.3,208.5,395.3z"/>
<path fill="#FFE0CF" d="M208.5,269.8c-9.4,0-17.1-7.6-17.1-17.1V140.6c0-9.4,7.6-17.1,17.1-17.1s17.1,7.6,17.1,17.1v112.1
	C225.6,262.1,218,269.8,208.5,269.8z"/>
</svg>
