<?xml version="1.0" encoding="iso-8859-1"?>
<!-- Generator: Adobe Illustrator 18.1.1, SVG Export Plug-In . SVG Version: 6.00 Build 0)  -->
<!DOCTYPE svg PUBLIC "-//W3C//DTD SVG 1.1//EN" "http://www.w3.org/Graphics/SVG/1.1/DTD/svg11.dtd">
<svg version="1.1" xmlns="http://www.w3.org/2000/svg" xmlns:xlink="http://www.w3.org/1999/xlink" x="0px" y="0px"
	 viewBox="0 0 512 512" enable-background="new 0 0 512 512" xml:space="preserve">
<g id="Layer_4">
	<path fill="#597B91" d="M20.418,321.718l2.754-10.885c0.553-2.185,2.519-3.716,4.773-3.716h6.48c2.719,0,4.924-2.204,4.924-4.924
		v-7.887c0-2.719-2.204-4.924-4.924-4.924h-9.234c-3.209,0-5.561-3.021-4.773-6.132l2.754-10.885
		c0.553-2.185,2.519-3.716,4.773-3.716h8.976c2.153,0,4.048-1.404,4.693-3.457C52.42,230.797,80.201,210.2,114.535,210.2
		c18.414,0,32.098,4.926,43.329,11.628c2.322,1.386,4.417,2.114,3.065,4.456l-10.933,18.936c-2.148,3.721-3.801,2.243-6.152,0.925
		c-8.588-4.813-17.273-7.22-27.811-7.22c-14.07,0-25.625,7.353-32.28,22.91c-1.381,3.228,1.04,6.815,4.55,6.815h46.883
		c3.209,0,5.56,3.02,4.773,6.131l-2.754,10.885c-0.553,2.185-2.519,3.716-4.773,3.716H84.489c-2.719,0-4.924,2.204-4.924,4.924
		v7.887c0,2.719,2.204,4.924,4.924,4.924h41.707c3.209,0,5.561,3.021,4.773,6.132l-2.754,10.885
		c-0.553,2.185-2.519,3.716-4.773,3.716H87.32c-3.358,0-5.775,3.304-4.674,6.476c5.684,16.371,17.264,23.499,34.388,23.499
		c10.616,0,20.46-2.786,29.407-7.017c3.282-1.552,7.062,0.801,7.062,4.431v19.1c0,1.983-1.196,3.768-3.02,4.546
		c-12.072,5.145-23.356,7.914-37.197,7.914c-37.647,0-63.17-20.285-72.063-55.222c-0.557-2.187-2.513-3.728-4.77-3.728H25.192
		C21.982,327.85,19.631,324.829,20.418,321.718z"/>
</g>
<g id="Layer_1">
</g>
</svg>
