<svg xmlns="http://www.w3.org/2000/svg" viewBox="0 0 512 512" enable-background="new 0 0 512 512"><path fill="#464A4C" d="M246.264 230.852c1.584 23.48-11.88 46.075-33.25 55.924-3.072 1.415-6.237 2.563-9.477 3.43l-.005.002c-5.948 1.594-11.988 2.22-17.937 1.92-9.997-.51-19.773 2.112-28.176 7.552-5.003 3.238-10.548 5.716-16.493 7.31-3.212.86-6.497 1.445-9.833 1.757-23.487 2.196-46.534-10.69-56.892-31.884-4.75-9.72-6.778-20.348-5.745-31.164 1.04-10.894 5.237-21.197 11.777-29.716 4.942-6.437 8.132-13.927 9.447-21.935 3.57-21.726 19.458-40.47 42.068-46.527 22.608-6.058 45.738 2.228 59.69 19.256 5.145 6.277 11.654 11.17 19.154 14.273 9.926 4.107 18.713 10.933 25.06 19.85 6.32 8.874 9.88 19.12 10.61 29.948zM65.024 60.972c-11.923 5.836-13.892 26.29-4.4 45.686s26.856 30.388 38.78 24.552c11.922-5.836 13.89-26.29 4.398-45.686S76.947 55.136 65.024 60.972zM18.61 137.5c-10.005 8.723-6.614 28.99 7.577 45.267s33.805 22.402 43.81 13.68 6.616-28.99-7.575-45.268-33.805-22.404-43.81-13.68zm106.345-57.644c1.476 21.544 13.41 38.273 26.652 37.366 13.244-.907 22.783-19.108 21.307-40.652s-13.41-38.273-26.652-37.366c-13.243.908-22.783 19.108-21.307 40.652zm68.664 36.17c-4.15 21.19 3.044 40.438 16.07 42.99 13.028 2.55 26.953-12.56 31.103-33.752s-3.046-40.44-16.073-42.99c-13.026-2.552-26.95 12.56-31.1 33.75zM443.54 409.55c-1.038-10.896-5.235-21.2-11.778-29.72-4.943-6.44-8.134-13.93-9.45-21.94-3.57-21.722-19.458-40.463-42.067-46.52-22.61-6.06-45.742 2.228-59.694 19.258-5.14 6.277-11.65 11.17-19.147 14.272-9.923 4.108-18.71 10.932-25.056 19.844-6.302 8.85-9.86 19.067-10.607 29.86-1.628 23.535 11.888 46.217 33.327 56.06 3.045 1.397 6.183 2.533 9.394 3.393 5.947 1.593 11.988 2.22 17.938 1.916 9.997-.51 19.774 2.11 28.178 7.548 5 3.238 10.546 5.715 16.494 7.31h.004c3.24.87 6.555 1.456 9.922 1.766 23.433 2.157 46.39-10.68 56.758-31.806 4.78-9.742 6.822-20.395 5.787-31.24zm-77.804-206.5c-13.244-.907-25.176 15.822-26.652 37.366-1.476 21.544 8.063 39.744 21.307 40.652 13.246.907 25.178-15.822 26.654-37.366 1.476-21.545-8.064-39.745-21.307-40.652zm-78.46 43.068c-13.026 2.55-20.222 21.8-16.072 42.99 4.15 21.193 18.075 36.304 31.102 33.753 13.027-2.55 20.223-21.797 16.073-42.99-4.15-21.19-18.077-36.302-31.104-33.75zm120.92 3.25c-9.494 19.397-7.524 39.85 4.4 45.687s29.284-5.156 38.777-24.552c9.494-19.396 7.524-39.85-4.4-45.686-11.922-5.836-29.283 5.157-38.777 24.552zm41.38 65.656c-14.19 16.277-17.582 36.544-7.576 45.267 10.006 8.725 29.62 2.6 43.81-13.677 14.19-16.277 17.583-36.544 7.577-45.267-10.006-8.723-29.62-2.6-43.81 13.68z"/></svg>