<svg xmlns="http://www.w3.org/2000/svg" viewBox="0 0 512 512" enable-background="new 0 0 512 512"><path fill="#D19B61" d="M257.922 395.937c-7.034 0-13.17-4.85-14.998-11.848-.234-.898-.478-1.84-.73-2.826-1.107-4.668-19.035-69.98-20.788-79.15-1.64-9.17-3.21-18.84-4.78-28.844-3.057-20.006-5.815-41.347-8.186-62.687-2.32-21.34-4.212-42.68-5.204-62.688-1.028-20.007-1.26-38.68-.916-54.686.384-16.008 1.23-29.346 2.197-38.68.01-.095.017-.188.026-.28.754-8.184 7.474-14.394 15.452-14.394h72.015c7.978 0 14.697 6.21 15.452 14.393.01.092.017.185.026.28.966 9.335 1.813 22.673 2.197 38.68.343 16.004.112 34.677-.916 54.684-.994 20.007-2.887 41.348-5.206 62.688-2.37 21.34-5.13 42.68-8.185 62.688-1.57 10.004-3.143 19.675-4.78 28.844-1.755 9.17-19.683 74.482-20.79 79.15-.25.988-.496 1.93-.73 2.825-1.83 6.996-7.964 11.846-14.998 11.846h3.84z"/></svg>