<?xml version="1.0" encoding="utf-8"?>
<!-- Generator: Adobe Illustrator 18.1.0, SVG Export Plug-In . SVG Version: 6.00 Build 0)  -->
<!DOCTYPE svg PUBLIC "-//W3C//DTD SVG 1.0//EN" "http://www.w3.org/TR/2001/REC-SVG-20010904/DTD/svg10.dtd">
<svg version="1.0" id="Layer_1" xmlns="http://www.w3.org/2000/svg" xmlns:xlink="http://www.w3.org/1999/xlink" x="0px" y="0px"
	 width="72px" height="72px" viewBox="0 0 72 72" enable-background="new 0 0 72 72" xml:space="preserve">
<path fill="#EDC0A2" d="M43.6,57.7l0.3-2.9c0-6.3-5.1-11.5-11.5-11.5c-6.3,0-11.5,5.1-11.5,11.5l0.3,2.9c-1.5,0.2-2.7,1.4-2.7,3
	c0,1.7,1.4,3,3,3c0.2,0,0.3,0,0.5,0c1.2,4.6,5.4,7.9,10.4,7.9c5,0,9.1-3.4,10.4-7.9c0.2,0,0.3,0,0.5,0c1.7,0,3-1.4,3-3
	C46.4,59.2,45.2,57.9,43.6,57.7z"/>
<path fill="#E2AF8D" d="M29.7,21.3l0.1-0.5C29.8,13.2,23.6,7,16,7C8.4,7,2.3,13.2,2.3,20.8l0.1,0.5c0,0,0,0,0,0
	C1,21.5,0,22.7,0,24.1C0,25.7,1.3,27,2.9,27c0,0,0.1,0,0.1,0L3.1,28c0,7.1,5.8,12.9,12.9,12.9c7.1,0,12.9-5.8,12.9-12.9l0.1-1.1
	c0.1,0,0.1,0,0.2,0c1.6,0,2.9-1.3,2.9-2.9C32.1,22.7,31.1,21.5,29.7,21.3z"/>
<path fill="#FFD3B6" d="M69,26.8c-0.1,0-0.3,0-0.4,0l0.4-6.5c0-7.3-6.3-11-13.6-11c-7.3,0-12.8,3.8-12.8,11l0.4,6.5
	c-0.1,0-0.3,0-0.4,0c-1.7,0-3,1.4-3,3c0,1.7,1.4,3,3,3c0.3,0,0.6-0.1,0.8-0.1c0.2,6.7,5.6,12,12.3,12c6.7,0,12.2-5.4,12.3-12
	c0.3,0.1,0.5,0.1,0.8,0.1c1.7,0,3-1.4,3-3C72,28.2,70.6,26.8,69,26.8z"/>
<path fill="#E5AB83" d="M32.5,63.2C32.5,63.2,32.5,63.2,32.5,63.2c-0.8,0-1.5-0.4-1.9-1c-0.1-0.2-0.1-0.5,0.1-0.6
	c0.2-0.1,0.5-0.1,0.6,0.1c0.2,0.4,0.6,0.6,1.1,0.6h0c0.5,0,0.9-0.2,1.1-0.6c0.1-0.2,0.4-0.3,0.6-0.1c0.2,0.1,0.3,0.4,0.1,0.6
	C34,62.8,33.3,63.2,32.5,63.2z"/>
<path fill="#EDC0A2" d="M31.1,70.8c-1.5,0-2.9-0.3-4.2-0.7c1.6,1,3.5,1.6,5.6,1.6c5.9,0,10.7-4.7,10.7-10.6
	C42,66.7,37,70.8,31.1,70.8z"/>
<path fill="#CE8E63" d="M14.9,39.6c-2.9,0-5.7-0.9-8-2.4c2.3,2.3,5.5,3.8,9.1,3.8c7.1,0,12.9-5.8,12.9-12.9l0-0.7
	C28,34.3,22.1,39.6,14.9,39.6z"/>
<path fill="#8E6049" d="M9.5,19.8c0,0-0.2-0.1-0.5-0.1c-0.3-0.1-0.8-0.1-1.2-0.1c-0.2,0-0.4,0-0.6,0c-0.1,0-0.2,0-0.2,0.1
	c-0.1,0-0.1,0-0.2,0.1c-0.1,0-0.1,0.1-0.1,0.1c0,0-0.1,0-0.1,0.1c-0.1,0-0.1,0-0.1,0L6.2,20c-0.3,0.1-0.6,0-0.7-0.2
	c-0.1-0.2,0-0.5,0.1-0.6c0,0,0.1,0,0.2-0.1c0.1,0,0.1-0.1,0.2-0.2c0.1,0,0.2-0.1,0.3-0.2c0.2-0.1,0.4-0.2,0.7-0.2
	c0.2,0,0.5-0.1,0.8-0.1c0.5-0.1,1-0.1,1.4,0c0.2,0,0.4,0,0.5,0c0.1,0,0.2,0,0.2,0c0.4,0,0.7,0.4,0.7,0.8c0,0.4-0.4,0.7-0.8,0.7l0,0
	L9.5,19.8z M22.3,18.3c-0.4,0-0.7,0.4-0.7,0.8s0.4,0.7,0.8,0.7l0.1,0c0,0,0.2-0.1,0.5-0.1c0.3-0.1,0.8-0.1,1.2-0.1
	c0.2,0,0.4,0,0.6,0c0.1,0,0.2,0,0.2,0.1c0.1,0,0.1,0,0.2,0.1c0.1,0,0.1,0.1,0.1,0.1c0,0,0.1,0,0.1,0.1c0.1,0,0.1,0,0.1,0l0.2,0.1
	c0.2,0.1,0.5,0,0.6-0.1c0.2-0.2,0.1-0.6-0.1-0.7c0,0-0.1,0-0.2-0.1c-0.1,0-0.1-0.1-0.2-0.2c-0.1,0-0.2-0.1-0.3-0.2
	c-0.2-0.1-0.4-0.2-0.7-0.2c-0.2,0-0.5-0.1-0.8-0.1c-0.5-0.1-1-0.1-1.4,0c-0.2,0-0.4,0-0.5,0C22.4,18.3,22.3,18.3,22.3,18.3
	L22.3,18.3z"/>
<path fill="#CE8E63" d="M16,29.6C16,29.6,16,29.6,16,29.6c-0.9,0-1.8-0.5-2.2-1.2c-0.2-0.3-0.1-0.6,0.2-0.7c0.3-0.2,0.6-0.1,0.7,0.2
	c0.3,0.4,0.8,0.7,1.3,0.7c0,0,0,0,0,0c0.5,0,1-0.3,1.3-0.7c0.2-0.3,0.5-0.3,0.7-0.2c0.3,0.2,0.3,0.5,0.2,0.7
	C17.8,29.2,16.9,29.6,16,29.6z M18.5,34.4c0.2-0.2,0.3-0.5,0.1-0.8c-0.2-0.2-0.5-0.3-0.8-0.1c-1.1,0.9-2.6,0.9-3.7,0
	c-0.2-0.2-0.6-0.1-0.8,0.1c-0.2,0.2-0.1,0.6,0.1,0.8c0.7,0.6,1.6,0.9,2.5,0.9C16.9,35.3,17.8,35,18.5,34.4z"/>
<path fill="#2B3B47" d="M27.2,58.4v1.9h0c0,0,0,0,0,0c0,0.8-0.6,1.4-1.4,1.4c-0.8,0-1.4-0.6-1.4-1.4c0,0,0,0,0,0h0v-1.9h0
	c0.1-0.7,0.6-1.3,1.4-1.3C26.5,57.2,27.1,57.7,27.2,58.4L27.2,58.4z M40.5,58.4c-0.1-0.7-0.6-1.3-1.4-1.3c-0.7,0-1.3,0.6-1.4,1.3h0
	v1.9h0c0,0,0,0,0,0c0,0.8,0.6,1.4,1.4,1.4c0.8,0,1.4-0.6,1.4-1.4c0,0,0,0,0,0l0,0L40.5,58.4L40.5,58.4z M37.2,65.7
	c-0.1-0.2-0.4-0.4-0.7-0.4h-8.1c-0.3,0-0.5,0.1-0.7,0.4c-0.1,0.2-0.1,0.5,0,0.8c0.5,0.9,1.2,1.5,2.1,2c0.7-0.6,1.6-0.6,2.6-0.6
	c1,0,1.9,0,2.6,0.6c0.8-0.5,1.6-1.1,2.1-2C37.3,66.2,37.3,66,37.2,65.7z M9.2,22.1c-0.1-0.7-0.6-1.3-1.4-1.3c-0.7,0-1.3,0.6-1.4,1.3
	h0V24h0c0,0,0,0,0,0c0,0.8,0.6,1.4,1.4,1.4s1.4-0.6,1.4-1.4c0,0,0,0,0,0h0L9.2,22.1L9.2,22.1z M25.6,22.1c-0.1-0.7-0.6-1.3-1.4-1.3
	c-0.7,0-1.3,0.6-1.4,1.3h0V24h0c0,0,0,0,0,0c0,0.8,0.6,1.4,1.4,1.4c0.8,0,1.4-0.6,1.4-1.4c0,0,0,0,0,0l0,0L25.6,22.1L25.6,22.1z
	 M49,26.8c-0.1-0.7-0.6-1.3-1.4-1.3c-0.7,0-1.3,0.6-1.4,1.3h0v1.9h0v0c0,0.8,0.6,1.4,1.4,1.4c0.8,0,1.4-0.6,1.4-1.4v0v0L49,26.8
	L49,26.8z M65.2,26.8c-0.1-0.7-0.6-1.3-1.4-1.3c-0.7,0-1.3,0.6-1.4,1.3h0v1.9h0l0,0c0,0.8,0.6,1.4,1.4,1.4c0.8,0,1.4-0.6,1.4-1.4v0
	v0L65.2,26.8L65.2,26.8z"/>
<path fill="#959DA3" d="M47.5,26.8v0.5l0,0v0c0,0.2-0.1,0.3-0.3,0.3c-0.2,0-0.3-0.1-0.3-0.3v0h0v-0.5h0c0-0.2,0.2-0.3,0.3-0.3
	C47.4,26.5,47.5,26.6,47.5,26.8L47.5,26.8z M25.5,58.5c0-0.2-0.2-0.3-0.3-0.3c-0.2,0-0.3,0.1-0.3,0.3h0V59h0v0
	c0,0.2,0.2,0.3,0.3,0.3c0.2,0,0.3-0.2,0.3-0.3v0l0,0L25.5,58.5L25.5,58.5z M39,58.5c0-0.2-0.2-0.3-0.3-0.3c-0.2,0-0.3,0.1-0.3,0.3h0
	V59h0v0c0,0.2,0.2,0.3,0.3,0.3c0.2,0,0.3-0.2,0.3-0.3v0l0,0L39,58.5L39,58.5z M7.5,22.2c0-0.2-0.2-0.3-0.3-0.3
	c-0.2,0-0.3,0.1-0.3,0.3h0v0.5h0v0C6.9,22.8,7,23,7.2,23c0.2,0,0.3-0.2,0.3-0.3v0l0,0L7.5,22.2L7.5,22.2z M24,22.2
	c0-0.2-0.2-0.3-0.3-0.3c-0.2,0-0.3,0.1-0.3,0.3h0v0.5h0v0c0,0.2,0.2,0.3,0.3,0.3c0.2,0,0.3-0.2,0.3-0.3v0l0,0L24,22.2L24,22.2z
	 M63.7,26.8c0-0.2-0.2-0.3-0.3-0.3c-0.2,0-0.3,0.1-0.3,0.3h0v0.5h0v0c0,0.2,0.1,0.3,0.3,0.3c0.2,0,0.3-0.1,0.3-0.3v0l0,0L63.7,26.8
	L63.7,26.8z"/>
<path fill="#EDC0A2" d="M54.7,43.6c-2.8,0-5.4-0.9-7.6-2.3c2.2,2.2,5.3,3.6,8.7,3.6c6.8,0,12.4-5.5,12.4-12.4l0-0.6
	C67.2,38.5,61.6,43.6,54.7,43.6z"/>
<path fill="#FF7DDA" d="M35.1,68.5c-0.8,0.4-1.7,0.7-2.6,0.7c-1,0-1.9-0.2-2.6-0.7c0.7-0.6,1.6-0.6,2.6-0.6
	C33.5,67.9,34.4,67.9,35.1,68.5z M59.2,38c-0.8-0.3-1.6-0.8-2.5-0.8c-0.5,0-0.9,0.3-1,0.3c-0.1,0-0.6-0.3-1.1-0.3
	c-0.8,0-1.5,0.4-2.3,0.8c-0.4,0.2-0.7,0.2-1,0.2c-0.2,0-0.3,0.2-0.2,0.3c0.6,0.8,2.1,2.3,4.6,2.3c2.5,0,4.1-1.6,4.6-2.4
	c0.1-0.1,0-0.3-0.2-0.3C60,38.1,59.7,38.1,59.2,38z"/>
<path fill="#E5AB83" d="M55.8,34.6C55.8,34.6,55.8,34.6,55.8,34.6c-0.9,0-1.8-0.5-2.3-1.2c-0.2-0.3-0.1-0.6,0.2-0.8
	c0.3-0.2,0.6-0.1,0.8,0.2c0.3,0.4,0.8,0.7,1.3,0.7h0c0.5,0,1-0.3,1.3-0.7c0.2-0.3,0.5-0.3,0.8-0.2c0.3,0.2,0.3,0.5,0.2,0.8
	C57.6,34.1,56.7,34.6,55.8,34.6z M61.9,23.4c-0.2,0.1-0.3,0.4-0.1,0.6c0.1,0.2,0.4,0.3,0.6,0.1c0,0,0.1,0,0.1-0.1
	c0.1-0.1,0.2-0.2,0.4-0.2c0.1-0.1,0.3-0.1,0.5-0.2c0.1,0,0.2,0,0.3-0.1c0.1,0,0.2,0,0.3,0l0.3,0c0.1,0,0.2,0.1,0.3,0.1
	c0.2,0,0.3,0.2,0.5,0.3c0.1,0,0.1,0.1,0.2,0.2c0,0,0.1,0.1,0.1,0.1c0.1,0.1,0.1,0.1,0.1,0.1l0,0c0.1,0.1,0.2,0.1,0.3,0
	c0.1-0.1,0.1-0.2,0.1-0.3c0,0,0-0.1-0.1-0.2c0,0-0.1-0.1-0.1-0.2c-0.1-0.1-0.1-0.2-0.2-0.2c-0.2-0.1-0.4-0.3-0.6-0.4
	c-0.1,0-0.2-0.1-0.4-0.2l-0.4-0.1c-0.1,0-0.3,0-0.4,0c-0.1,0-0.3,0-0.4,0c-0.3,0-0.5,0.1-0.7,0.2c-0.2,0.1-0.3,0.2-0.5,0.2
	C62,23.3,61.9,23.3,61.9,23.4C61.9,23.3,61.9,23.4,61.9,23.4z M49.2,24.1c0.2,0.1,0.5,0.1,0.6-0.2c0.1-0.2,0.1-0.5-0.2-0.6
	c0,0-0.1,0-0.2-0.1c-0.1-0.1-0.3-0.2-0.5-0.2c-0.4-0.1-1-0.2-1.5-0.2c-0.6,0.1-1.1,0.3-1.4,0.7c-0.2,0.1-0.3,0.3-0.3,0.4
	c-0.1,0.1-0.1,0.2-0.1,0.2l0,0c-0.1,0.1,0,0.3,0.1,0.3c0.1,0.1,0.3,0,0.3-0.1l0,0c0,0,0.1-0.2,0.4-0.4c0.3-0.2,0.7-0.4,1.1-0.4
	c0.4,0,0.9,0.1,1.2,0.2c0.2,0.1,0.2,0.1,0.3,0.2C49.1,24.1,49.2,24.1,49.2,24.1C49.2,24.1,49.2,24.1,49.2,24.1z"/>
<path fill="#8E6049" d="M38.3,42.8c-0.6-0.3-3.2-1.1-3.8-1.2c-0.6-0.1-1.3-0.1-2-0.1c-8.2,0-11.8,6.2-11.8,10.9v5.9
	c1.6,0,2.5-1.2,3.1-4.7c0.4-2.8,3.9-5.8,3.9-5.8l4,2.6c0.3,0.2,0.7,0,0.7-0.4l0-0.7c1.5,0.7,4.5,2.1,5.6,2.3
	c0.8,0.1,2.6,0.2,3.4,2.3c1,2.7,1.2,4,2.8,4v-5.5C44.3,49,42.4,44.8,38.3,42.8z"/>
<path fill="#68442A" d="M18.6,3L18.6,3l-4.2,0C4.7,2.9,2,9.4,2,15.4s0,3.4,0,6c0,1.1,0.8,2,1.3,0.5c0.8-2.3,1.1-12,4.5-9.1
	c2.5,2.1,15.8,1.6,14.6,0.2c-0.3-0.4-0.7-0.9-1.1-1.3c5.8,2.9,6.9,9.1,7.3,9.8c0.8,1.4,1.1,1.1,1.1-0.2c0-3,0,0,0-5.5
	C29.8,10.6,27.6,3.4,18.6,3z"/>
<path fill="#FF6F1F" d="M71.9,19.8L71.9,19.8c0-4.1-3.8-10.2-8.9-12.8c-0.2-0.1-0.7-0.3-1.2-0.5c0-0.1,0-0.3,0-0.4
	c0-3.4-2.7-6.1-6.1-6.1c-3.4,0-6.1,2.7-6.1,6.1c0,0.2,0,0.4,0,0.6c-0.4,0-0.7,0.1-1,0.2c-5.4,2.4-8.2,7.4-8.2,11.7
	c0,2.3,0.4,5,1,6.7c0,0.9,0,1.9,0,3.1c0,0.7,0.7,1.4,1.8,2L43,26.5c0.2-0.7,0.3-1.9,0.3-3.8c0-4.9,4.1-7.4,6.5-8.6
	c0.6-0.3,1.3-0.3,1.9,0.1c4.8,3.6,13.5,7.6,17,9.1l-0.4,5.3c2.2-1.9,3.6-4.6,3.6-8.2C72,20.2,72,20,71.9,19.8z"/>
</svg>
