<?xml version="1.0" encoding="iso-8859-1"?>
<!-- Generator: Adobe Illustrator 18.1.1, SVG Export Plug-In . SVG Version: 6.00 Build 0)  -->
<!DOCTYPE svg PUBLIC "-//W3C//DTD SVG 1.1//EN" "http://www.w3.org/Graphics/SVG/1.1/DTD/svg11.dtd">
<svg version="1.1" xmlns="http://www.w3.org/2000/svg" xmlns:xlink="http://www.w3.org/1999/xlink" x="0px" y="0px"
	 viewBox="0 0 72 72" enable-background="new 0 0 72 72" xml:space="preserve">
<g id="Layer_2">
	<path fill="#D1CFC3" d="M22.541,39.677c-8.687,0-16.824-3.548-21.238-9.26c-1.818-2.352-1.386-5.733,0.968-7.553
		c2.348-1.814,5.733-1.385,7.551,0.969c2.383,3.083,7.375,5.075,12.72,5.075c2.975,0,5.384,2.411,5.384,5.384
		S25.516,39.677,22.541,39.677z M70.864,30.417c1.818-2.352,1.386-5.733-0.968-7.553c-2.351-1.814-5.731-1.385-7.551,0.969
		c-2.383,3.083-7.375,5.075-12.72,5.075c-2.975,0-5.384,2.411-5.384,5.384s2.41,5.384,5.384,5.384
		C58.312,39.677,66.45,36.13,70.864,30.417z"/>
</g>
<g id="Layer_3">
	<path fill="#E5E4DF" d="M60.38,68.154c-0.842,0.896-2.084,1.429-3.321,1.429c-0.035-0.003-0.077-0.003-0.117,0
		c-1.786,0-3.454-0.941-4.462-2.513c-0.562-0.874-1.437-1.383-2.399-1.397c-0.925,0.013-1.797,0.522-2.359,1.397
		c-1.026,1.597-2.652,2.513-4.462,2.513c-0.037,0-0.08,0-0.117,0c-1.786,0-3.454-0.941-4.462-2.513
		c-0.562-0.874-1.437-1.383-2.399-1.397c-0.925,0.013-1.797,0.522-2.359,1.397c-1.026,1.597-2.655,2.513-4.465,2.513
		c-0.035-0.003-0.075-0.003-0.115,0c-1.786,0-3.454-0.941-4.462-2.513c-0.562-0.874-1.437-1.383-2.399-1.397
		c-0.925,0.013-1.799,0.522-2.359,1.394c-1.026,1.599-2.655,2.516-4.465,2.516c-0.075,0-0.152-0.008-0.227-0.024
		c-1.303-0.056-2.431-0.576-3.212-1.405c-0.608-0.642-1.309-1.783-1.205-3.577c0.138-2.402,4.829-40.319,5.078-42.323
		c0.057-11.085,9.087-20.086,20.186-20.086c11.097,0,20.129,8.999,20.188,20.083c0.247,1.986,4.98,39.921,5.118,42.326
		C61.689,66.371,60.988,67.514,60.38,68.154z"/>
</g>
<g id="Layer_4">
	<path fill="#2B3B47" d="M29.464,22.523v3.656h-0.005c0,0.005,0.005,0.007,0.005,0.01c0,1.436-1.165,2.601-2.601,2.601
		s-2.601-1.165-2.601-2.601c0-0.003,0-0.005,0-0.01h-0.011v-3.656h0.031c0.116-1.332,1.219-2.38,2.581-2.38
		c1.359,0,2.461,1.048,2.575,2.38H29.464z M48.172,21.397c-0.181-2.103-1.921-3.758-4.066-3.758c-2.151,0-3.892,1.655-4.075,3.758
		h-0.049v5.773h0.018c0,0.009,0,0.012,0,0.016c0,2.267,1.84,4.107,4.107,4.107s4.107-1.84,4.107-4.107
		c0-0.004-0.009-0.007-0.009-0.016h0.009v-5.773H48.172z M49.779,33.911c-0.052-0.101-0.129-0.181-0.239-0.193
		c-1.108-0.11-25.417-0.106-26.522,0c-0.048,0.004-0.095,0.027-0.139,0.057c-0.006,0.004-0.014,0.003-0.02,0.008
		c-0.151,0.115-0.186,0.344-0.082,0.51l0.241,0.386c0.553,0.874,1.105,1.626,1.658,2.262c0.554,0.656,1.105,1.205,1.659,1.728
		c1.101,1.022,2.213,1.766,3.315,2.412c0.45,0.264,0.655,0.324,0.906,0.43c0.018-0.013,0.046-0.024,0.065-0.036
		c1.796,0.874,3.725,1.375,5.746,1.375c1.982,0,3.876-0.482,5.643-1.324l0.004,0.002c0.298-0.138,0.597-0.258,0.898-0.423
		c1.104-0.637,2.209-1.39,3.314-2.414c0.553-0.524,1.105-1.075,1.655-1.737c0.552-0.636,1.105-1.391,1.66-2.274l0.241-0.388
		c0.03-0.052,0.052-0.112,0.056-0.177C49.844,34.038,49.812,33.973,49.779,33.911z"/>
</g>
<g id="Layer_5">
	<path fill="#FF473E" d="M42.35,33.637v7.606c0,3.358-2.716,6.081-6.066,6.081l0,0c-3.358,0-6.077-2.723-6.077-6.081v-7.606H42.35z"
		/>
</g>
<g id="Layer_6">
	<path fill="#2B3B47" d="M29.619,36.086v-0.831c0-2.12-5.67-1.618,6.228-1.618s7.091-0.503,7.091,1.618v0.831H29.619z M37.22,44.237
		v-6.396c0-0.518-0.421-0.94-0.941-0.94c-0.52,0-0.941,0.421-0.941,0.94v6.396c0,0.518,0.421,0.941,0.941,0.941
		C36.799,45.177,37.22,44.755,37.22,44.237z"/>
</g>
</svg>
