<?xml version="1.0" encoding="iso-8859-1"?>
<!-- Generator: Adobe Illustrator 18.1.0, SVG Export Plug-In . SVG Version: 6.00 Build 0)  -->
<!DOCTYPE svg PUBLIC "-//W3C//DTD SVG 1.1//EN" "http://www.w3.org/Graphics/SVG/1.1/DTD/svg11.dtd">
<svg version="1.1" xmlns="http://www.w3.org/2000/svg" xmlns:xlink="http://www.w3.org/1999/xlink" x="0px" y="0px"
	 viewBox="0 0 72 72" enable-background="new 0 0 72 72" xml:space="preserve">
<g id="Layer_2">
	<path fill="#E2A042" d="M61.455,25.536c-0.387,0-0.768,0.026-1.145,0.068C57.187,15.006,47.391,7.268,35.782,7.268
		c-11.598,0-21.386,7.722-24.52,18.304c-0.238-0.016-0.475-0.036-0.717-0.036c-5.669,0-10.265,4.596-10.265,10.265
		s4.596,10.265,10.265,10.265c1.071,0,2.102-0.165,3.073-0.469c4.418,7.66,12.686,12.82,22.164,12.82
		c9.533,0,17.841-5.219,22.24-12.953c1.075,0.382,2.227,0.601,3.434,0.601c5.669,0,10.265-4.596,10.265-10.265
		S67.124,25.536,61.455,25.536z"/>
</g>
<g id="Layer_3">
	<path fill="#AF773F" d="M62.795,36.656c0-8.415-6.822-15.236-15.236-15.236c-3.436,0-6.602,1.14-9.149,3.06
		c-1.636,1.233-3.833,1.237-5.468,0.004c-2.937-2.215-6.698-3.391-10.746-2.979C15.29,22.209,8.703,27.616,8.703,34.557
		c0,21.149,13.884,28.713,27.079,28.713C49.867,63.27,62.795,55.707,62.795,36.656z"/>
</g>
<g id="Layer_4">
	<path fill="#FFB636" d="M47.116,26.708c-3.783-0.048-7.145,1.765-9.229,4.58c-1.005,1.357-2.961,1.357-3.966,0
		c-2.084-2.815-5.446-4.627-9.229-4.58c-5.928,0.074-10.917,4.929-11.142,10.854c-0.227,5.967,4.177,10.953,9.905,11.652
		c0.777,0.095,1.371,0.698,1.468,1.474c0.684,5.455,5.339,9.676,10.98,9.676c5.609,0,10.244-4.174,10.968-9.585
		c0.111-0.829,0.742-1.469,1.571-1.577c5.683-0.74,10.039-5.705,9.814-11.64C58.032,31.638,53.044,26.783,47.116,26.708z"/>
</g>
<g id="Layer_5">
	<path fill="#E576CB" d="M38.378,42.66c0,0-0.338,0.436-0.845,0.745c-0.507,0.33-1.182,0.548-1.858,0.558
		c-0.676-0.008-1.351-0.223-1.858-0.555c-0.507-0.31-0.844-0.749-0.844-0.749c-0.078-0.101-0.074-0.238,0-0.335
		c0,0,0.338-0.439,0.844-0.749c0.507-0.332,1.182-0.547,1.858-0.555c0.676,0.01,1.351,0.228,1.858,0.558
		c0.507,0.309,0.845,0.745,0.845,0.745C38.455,42.426,38.452,42.564,38.378,42.66z M41.921,52.288
		c0.042-0.132,0.062-0.31,0.062-0.447c0-0.28-0.087-0.555-0.25-0.783c-1.507-2.122-3.792-3.352-6.156-3.315
		c-2.326,0.046-4.499,1.254-5.963,3.315c-0.171,0.241-0.252,0.52-0.25,0.794c-0.003,0.145,0.017,0.291,0.062,0.437
		c1.133,3.591,3.527,5.821,6.247,5.821S40.788,55.879,41.921,52.288z"/>
</g>
<g id="Layer_6">
	<path fill="#2B3B47" d="M26.616,40.212h-0.006c0,0.006,0.006,0.009,0.006,0.012c0,1.682-1.365,3.047-3.047,3.047
		s-3.047-1.365-3.047-3.047c0-0.003,0-0.006,0-0.012h-0.013l0.037-4.284c0.136-1.56,1.427-2.788,3.023-2.788
		c1.592,0,2.883,1.228,3.017,2.788L26.616,40.212z M51.069,35.929c-0.134-1.56-1.427-2.788-3.023-2.788
		c-1.59,0-2.883,1.228-3.017,2.788l-0.037,4.284h0.013c0,0.006,0,0.009,0,0.012c0,1.682,1.365,3.047,3.041,3.047
		c1.682,0,3.047-1.365,3.047-3.047c0-0.003,0-0.006,0-0.012l0,0L51.069,35.929z M35.63,50.447c1.249-0.049,2.532,0.602,3.487,1.663
		c-0.797,2.049-2.082,3.293-3.442,3.294c-1.361,0-2.646-1.245-3.443-3.294C33.155,51.083,34.388,50.472,35.63,50.447z"/>
</g>
</svg>
