<svg xmlns="http://www.w3.org/2000/svg" viewBox="0 0 512 512" enable-background="new 0 0 512 512"><path fill="#009E83" d="M426.87 208.928l-133.33 62.05c-3.826 1.78-7.395.032-9.1-2.826.193-2.508.25-5.024.172-7.537.31-.448.68-.882 1.122-1.29l135.452-124.89c2.733-2.52 3.06-6.72.747-9.63l-34.39-43.31c-2.265-2.852-6.318-3.528-9.385-1.566 0 0-14.743 9.44-34.612 22.17-8.673-5.033-19.9-4.563-28.226 2.05-6.91 5.487-10.15 13.875-9.38 22.05-21.08 13.512-41.812 26.81-54.398 34.9-6.513 4.186-14.73 4.554-21.635 1.05-25.426-12.9-57.753-9.184-79.788 13.128-19.25 19.49-24.454 48.78-14.44 73.504-31.365 42.893-52.846 95.015-61.65 150.755-6 37.99 132.8 52.036 137.584 21.73 3.445-21.812 9.912-42.49 18.953-61.118 18.382 12.41 38.894 15.567 61.607-2.47L428.59 249.36c1.314-1.044 2.216-2.52 2.545-4.166l5.69-28.442c1.14-5.702-4.683-10.28-9.955-7.827z"/></svg>