<?xml version="1.0" encoding="iso-8859-1"?>
<!-- Generator: Adobe Illustrator 18.1.1, SVG Export Plug-In . SVG Version: 6.00 Build 0)  -->
<!DOCTYPE svg PUBLIC "-//W3C//DTD SVG 1.1//EN" "http://www.w3.org/Graphics/SVG/1.1/DTD/svg11.dtd">
<svg version="1.1" xmlns="http://www.w3.org/2000/svg" xmlns:xlink="http://www.w3.org/1999/xlink" x="0px" y="0px"
	 viewBox="0 0 512 512" enable-background="new 0 0 512 512" xml:space="preserve">
<g id="Layer_7">
	<path fill="#819096" d="M426.344,57.652H210.11c-3.414,0-6.181-2.767-6.181-6.181v0c0-3.414,2.767-6.181,6.181-6.181h216.234
		c3.414,0,6.181,2.767,6.181,6.181v0C432.525,54.885,429.758,57.652,426.344,57.652z M321.336,87.67L321.336,87.67
		c0-3.414-2.767-6.181-6.181-6.181H210.11c-3.414,0-6.181,2.767-6.181,6.181v0c0,3.414,2.767,6.181,6.181,6.181h105.045
		C318.569,93.851,321.336,91.084,321.336,87.67z M370.904,123.87L370.904,123.87c0-3.414-2.767-6.181-6.181-6.181H210.11
		c-3.414,0-6.181,2.767-6.181,6.181v0c0,3.414,2.767,6.181,6.181,6.181h154.613C368.137,130.051,370.904,127.283,370.904,123.87z"/>
</g>
<g id="Layer_1">
</g>
</svg>
