<?xml version="1.0" encoding="iso-8859-1"?>
<!-- Generator: Adobe Illustrator 18.1.1, SVG Export Plug-In . SVG Version: 6.00 Build 0)  -->
<!DOCTYPE svg PUBLIC "-//W3C//DTD SVG 1.1//EN" "http://www.w3.org/Graphics/SVG/1.1/DTD/svg11.dtd">
<svg version="1.1" xmlns="http://www.w3.org/2000/svg" xmlns:xlink="http://www.w3.org/1999/xlink" x="0px" y="0px"
	 viewBox="0 0 512 512" enable-background="new 0 0 512 512" xml:space="preserve">
<g id="Layer_2">
	<path fill="#464A4C" d="M465.8,438.601H47.294c-23.76,0-43.2-19.44-43.2-43.2V116.599c0-23.76,19.44-43.2,43.2-43.2H465.8
		c23.76,0,43.2,19.44,43.2,43.2v278.801C509,419.161,489.56,438.601,465.8,438.601z"/>
</g>
<g id="Layer_3">
	<path fill="#D2EFBF" d="M431.313,323.927H81.781c-23.76,0-43.2-19.44-43.2-43.2V148.785c0-23.76,19.44-43.2,43.2-43.2h349.532
		c23.76,0,43.2,19.44,43.2,43.2v131.942C474.513,304.487,455.073,323.927,431.313,323.927z"/>
</g>
<g id="Layer_4">
	<path fill="#8E9DA5" d="M155.301,402.765H52.981c-7.92,0-14.4-6.48-14.4-14.4v-14.47c0-7.92,6.48-14.4,14.4-14.4h102.32
		c7.92,0,14.4,6.48,14.4,14.4v14.47C169.701,396.285,163.221,402.765,155.301,402.765z M375.934,385.682v-9.105
		c0-9.395-7.687-17.082-17.082-17.082H228.783c-9.395,0-17.082,7.687-17.082,17.082v9.105c0,9.395,7.687,17.082,17.082,17.082
		h130.068C368.247,402.765,375.934,395.078,375.934,385.682z"/>
</g>
<g id="Layer_5">
	<circle fill="#FF473E" cx="446.178" cy="378.102" r="23.965"/>
</g>
<g id="Layer_6">
	<path fill="#90B776" d="M96.491,192.852v9.644c2.469-1.131,4.963-1.697,7.484-1.697c2.88,0,5.464,0.682,7.754,2.044
		c2.288,1.363,4.089,3.344,5.401,5.941c1.312,2.598,1.967,5.671,1.967,9.22c0,3.704-0.875,6.982-2.623,9.837
		c-1.75,2.854-4.231,5.067-7.445,6.635c-3.215,1.568-6.958,2.353-11.226,2.353c-7.458,0-13.452-2.751-17.977-8.255l7.638-7.021
		c2.674,3.395,5.915,5.092,9.722,5.092c2.52,0,4.461-0.733,5.825-2.199c1.362-1.466,2.044-3.561,2.044-6.288
		c0-5.4-2.237-8.101-6.712-8.101c-0.978,0-1.929,0.142-2.855,0.424c-0.926,0.283-1.955,0.76-3.086,1.427h-9.104V183.13h33.176
		l-1.466,9.722H96.491z"/>
</g>
<g id="Layer_7">
	<path fill="#90B776" d="M142.474,192.852v9.644c2.469-1.131,4.963-1.697,7.484-1.697c2.88,0,5.464,0.682,7.754,2.044
		c2.288,1.363,4.089,3.344,5.401,5.941c1.312,2.598,1.967,5.671,1.967,9.22c0,3.704-0.875,6.982-2.623,9.837
		c-1.75,2.854-4.231,5.067-7.445,6.635c-3.215,1.568-6.958,2.353-11.226,2.353c-7.458,0-13.452-2.751-17.977-8.255l7.638-7.021
		c2.674,3.395,5.915,5.092,9.722,5.092c2.52,0,4.461-0.733,5.825-2.199c1.362-1.466,2.044-3.561,2.044-6.288
		c0-5.4-2.237-8.101-6.712-8.101c-0.978,0-1.929,0.142-2.855,0.424c-0.926,0.283-1.955,0.76-3.086,1.427h-9.104V183.13h33.176
		l-1.466,9.722H142.474z"/>
</g>
<g id="Layer_8">
	<path fill="#90B776" d="M188.458,192.852v9.644c2.469-1.131,4.963-1.697,7.484-1.697c2.88,0,5.464,0.682,7.754,2.044
		c2.288,1.363,4.089,3.344,5.401,5.941c1.312,2.598,1.967,5.671,1.967,9.22c0,3.704-0.875,6.982-2.623,9.837
		c-1.75,2.854-4.231,5.067-7.445,6.635c-3.215,1.568-6.958,2.353-11.226,2.353c-7.458,0-13.452-2.751-17.977-8.255l7.638-7.021
		c2.674,3.395,5.915,5.092,9.722,5.092c2.52,0,4.461-0.733,5.825-2.199c1.362-1.466,2.044-3.561,2.044-6.288
		c0-5.4-2.237-8.101-6.712-8.101c-0.978,0-1.929,0.142-2.855,0.424c-0.926,0.283-1.955,0.76-3.086,1.427h-9.104V183.13h33.176
		l-1.466,9.722H188.458z"/>
</g>
<g id="Layer_9">
	<path fill="#90B776" d="M245.55,206.045v10.493h-25.384v-10.493H245.55z"/>
</g>
<g id="Layer_10">
	<path fill="#90B776" d="M269.854,192.852v9.644c2.47-1.131,4.964-1.697,7.484-1.697c2.88,0,5.465,0.682,7.754,2.044
		c2.288,1.363,4.089,3.344,5.4,5.941c1.312,2.598,1.968,5.671,1.968,9.22c0,3.704-0.875,6.982-2.623,9.837
		c-1.749,2.854-4.231,5.067-7.445,6.635c-3.216,1.568-6.957,2.353-11.227,2.353c-7.458,0-13.451-2.751-17.977-8.255l7.639-7.021
		c2.674,3.395,5.914,5.092,9.721,5.092c2.52,0,4.462-0.733,5.825-2.199c1.362-1.466,2.045-3.561,2.045-6.288
		c0-5.4-2.237-8.101-6.713-8.101c-0.978,0-1.929,0.142-2.854,0.424c-0.926,0.283-1.955,0.76-3.086,1.427h-9.104V183.13h33.177
		l-1.466,9.722H269.854z"/>
</g>
<g id="Layer_11">
	<path fill="#90B776" d="M315.837,192.852v9.644c2.47-1.131,4.964-1.697,7.484-1.697c2.88,0,5.465,0.682,7.754,2.044
		c2.288,1.363,4.089,3.344,5.4,5.941c1.312,2.598,1.968,5.671,1.968,9.22c0,3.704-0.875,6.982-2.623,9.837
		c-1.749,2.854-4.231,5.067-7.445,6.635c-3.216,1.568-6.957,2.353-11.227,2.353c-7.458,0-13.451-2.751-17.977-8.255l7.639-7.021
		c2.674,3.395,5.914,5.092,9.721,5.092c2.52,0,4.462-0.733,5.825-2.199c1.362-1.466,2.045-3.561,2.045-6.288
		c0-5.4-2.237-8.101-6.713-8.101c-0.978,0-1.929,0.142-2.854,0.424c-0.926,0.283-1.955,0.76-3.086,1.427h-9.104V183.13h33.177
		l-1.466,9.722H315.837z"/>
</g>
<g id="Layer_12">
	<path fill="#90B776" d="M361.819,192.852v9.644c2.47-1.131,4.964-1.697,7.484-1.697c2.88,0,5.465,0.682,7.754,2.044
		c2.288,1.363,4.089,3.344,5.4,5.941c1.312,2.598,1.968,5.671,1.968,9.22c0,3.704-0.875,6.982-2.623,9.837
		c-1.749,2.854-4.231,5.067-7.445,6.635c-3.216,1.568-6.957,2.353-11.227,2.353c-7.458,0-13.451-2.751-17.977-8.255l7.639-7.021
		c2.674,3.395,5.914,5.092,9.721,5.092c2.52,0,4.462-0.733,5.825-2.199c1.362-1.466,2.045-3.561,2.045-6.288
		c0-5.4-2.237-8.101-6.713-8.101c-0.978,0-1.929,0.142-2.854,0.424c-0.926,0.283-1.955,0.76-3.086,1.427h-9.104V183.13h33.177
		l-1.466,9.722H361.819z"/>
</g>
<g id="Layer_13">
	<path fill="#90B776" d="M407.803,192.852v9.644c2.47-1.131,4.964-1.697,7.484-1.697c2.88,0,5.465,0.682,7.754,2.044
		c2.288,1.363,4.089,3.344,5.4,5.941c1.312,2.598,1.968,5.671,1.968,9.22c0,3.704-0.875,6.982-2.623,9.837
		c-1.749,2.854-4.231,5.067-7.445,6.635c-3.216,1.568-6.957,2.353-11.227,2.353c-7.458,0-13.451-2.751-17.977-8.255l7.639-7.021
		c2.674,3.395,5.914,5.092,9.721,5.092c2.52,0,4.462-0.733,5.825-2.199c1.362-1.466,2.045-3.561,2.045-6.288
		c0-5.4-2.237-8.101-6.713-8.101c-0.978,0-1.929,0.142-2.854,0.424c-0.926,0.283-1.955,0.76-3.086,1.427h-9.104V183.13h33.177
		l-1.466,9.722H407.803z"/>
</g>
</svg>
