<?xml version="1.0" encoding="iso-8859-1"?>
<!-- Generator: Adobe Illustrator 18.1.1, SVG Export Plug-In . SVG Version: 6.00 Build 0)  -->
<!DOCTYPE svg PUBLIC "-//W3C//DTD SVG 1.1//EN" "http://www.w3.org/Graphics/SVG/1.1/DTD/svg11.dtd">
<svg version="1.1" xmlns="http://www.w3.org/2000/svg" xmlns:xlink="http://www.w3.org/1999/xlink" x="0px" y="0px"
	 viewBox="0 0 512 512" enable-background="new 0 0 512 512" xml:space="preserve">
<g id="Layer_9">
	<path fill="#DCE2E2" d="M478.974,66.903c1.004-1.004,1.004-2.631,0-3.635l-2.294-2.294c-1.004-1.004-1.004-2.632,0-3.635
		l2.294-2.294c1.004-1.004,1.165-3.743,0.162-4.747l-4.273,0H223.054c-27.54,0-49.866,22.326-49.866,49.866
		s22.326,49.866,49.866,49.866h251.809h4.122c1.004-1.004,0.994-2.754-0.01-3.758l-2.294-2.294c-1.004-1.004-1.004-2.631,0-3.635
		l2.294-2.294c1.004-1.004,1.004-2.632,0-3.635l-2.294-2.294c-1.004-1.004-1.004-2.631,0-3.635l2.294-2.294
		c1.004-1.004,1.004-2.632,0-3.635l-2.294-2.294c-1.004-1.004-1.004-2.631,0-3.635l2.294-2.294c1.004-1.004,1.004-2.632,0-3.635
		l-2.294-2.294c-1.004-1.004-1.004-2.631,0-3.635l2.294-2.294c1.004-1.004,1.004-2.632,0-3.635l-2.294-2.294
		c-1.004-1.004-1.004-2.631,0-3.635l2.294-2.294c1.004-1.004,1.004-2.632,0-3.635l-2.294-2.294c-1.004-1.004-1.004-2.631,0-3.635
		l2.294-2.294c1.004-1.004,1.004-2.632,0-3.635l-2.294-2.294c-1.004-1.004-1.004-2.632,0-3.635L478.974,66.903z"/>
</g>
<g id="Layer_1">
</g>
</svg>
