<?xml version="1.0" encoding="utf-8"?>
<!-- Generator: Adobe Illustrator 18.1.0, SVG Export Plug-In . SVG Version: 6.00 Build 0)  -->
<!DOCTYPE svg PUBLIC "-//W3C//DTD SVG 1.0//EN" "http://www.w3.org/TR/2001/REC-SVG-20010904/DTD/svg10.dtd">
<svg version="1.0" id="Layer_1" xmlns="http://www.w3.org/2000/svg" xmlns:xlink="http://www.w3.org/1999/xlink" x="0px" y="0px"
	 width="72px" height="72px" viewBox="0 0 72 72" enable-background="new 0 0 72 72" xml:space="preserve">
<path fill="#2B3B47" d="M27.2,58.4v1.9h0c0,0,0,0,0,0c0,0.8-0.6,1.4-1.4,1.4c-0.8,0-1.4-0.6-1.4-1.4c0,0,0,0,0,0h0v-1.9h0
	c0.1-0.7,0.6-1.3,1.4-1.3C26.5,57.2,27.1,57.7,27.2,58.4L27.2,58.4z M40.5,58.4c-0.1-0.7-0.6-1.3-1.4-1.3c-0.7,0-1.3,0.6-1.4,1.3h0
	v1.9h0c0,0,0,0,0,0c0,0.8,0.6,1.4,1.4,1.4c0.8,0,1.4-0.6,1.4-1.4c0,0,0,0,0,0l0,0L40.5,58.4L40.5,58.4z M37.2,65.7
	c-0.1-0.2-0.4-0.4-0.7-0.4h-8.1c-0.3,0-0.5,0.1-0.7,0.4c-0.1,0.2-0.1,0.5,0,0.8c0.5,0.9,1.2,1.5,2.1,2c0.7-0.6,1.6-0.6,2.6-0.6
	c1,0,1.9,0,2.6,0.6c0.8-0.5,1.6-1.1,2.1-2C37.3,66.2,37.3,66,37.2,65.7z M9.2,22.1c-0.1-0.7-0.6-1.3-1.4-1.3c-0.7,0-1.3,0.6-1.4,1.3
	h0V24h0c0,0,0,0,0,0c0,0.8,0.6,1.4,1.4,1.4s1.4-0.6,1.4-1.4c0,0,0,0,0,0h0L9.2,22.1L9.2,22.1z M25.6,22.1c-0.1-0.7-0.6-1.3-1.4-1.3
	c-0.7,0-1.3,0.6-1.4,1.3h0V24h0c0,0,0,0,0,0c0,0.8,0.6,1.4,1.4,1.4c0.8,0,1.4-0.6,1.4-1.4c0,0,0,0,0,0l0,0L25.6,22.1L25.6,22.1z
	 M49,26.8c-0.1-0.7-0.6-1.3-1.4-1.3c-0.7,0-1.3,0.6-1.4,1.3h0v1.9h0v0c0,0.8,0.6,1.4,1.4,1.4c0.8,0,1.4-0.6,1.4-1.4v0v0L49,26.8
	L49,26.8z M65.2,26.8c-0.1-0.7-0.6-1.3-1.4-1.3c-0.7,0-1.3,0.6-1.4,1.3h0v1.9h0l0,0c0,0.8,0.6,1.4,1.4,1.4c0.8,0,1.4-0.6,1.4-1.4v0
	v0L65.2,26.8L65.2,26.8z"/>
</svg>
