<svg xmlns="http://www.w3.org/2000/svg" viewBox="0 0 512 512" enable-background="new 0 0 512 512"><path fill="#2B3B47" d="M145.578 241.842c15.148 0 27.428 12.28 27.428 27.428v33.716c0 15.148-12.28 27.428-27.428 27.428-15.148 0-27.428-12.28-27.428-27.428V269.27c0-15.148 12.28-27.428 27.428-27.428zm220.844 0c-15.148 0-27.428 12.28-27.428 27.428v33.716c0 15.148 12.28 27.428 27.428 27.428 15.148 0 27.428-12.28 27.428-27.428V269.27c0-15.148-12.28-27.428-27.428-27.428zM234.534 357.328l-2.076.566c-.332.092-.702.195-1.11.31l-1.172.37c-.822.268-1.895.575-2.776.92-.94.343-1.98.725-3.114 1.14-1.002.415-2.124.864-3.136 1.344-1.103.48-2.04.99-3.106 1.528-.93.538-1.99 1.104-2.83 1.694-3.72 2.362-6.118 5.117-7.14 8.07-.493 1.475-.52 3-.03 4.55.46 1.55 1.453 3.124 2.4 4.7.964 1.573 1.973 3.148 2.738 4.698l1.212 2.303 1.283 2.25 1.343 2.174 1.386 2.082c.95 1.353 1.89 2.632 2.83 3.813.95 1.18 1.835 2.262 2.73 3.222.88.96 1.628 1.797 2.35 2.486.676.69 1.263 1.23 1.674 1.6.395.368.642.565.642.565 15.658 12.477 38.41 13.003 54.736 0 0 0 .247-.196.642-.565.41-.37.998-.91 1.673-1.6.723-.688 1.47-1.524 2.352-2.484.894-.958 1.78-2.04 2.73-3.222.938-1.18 1.88-2.46 2.83-3.813l1.385-2.083c.44-.71.887-1.436 1.343-2.174.42-.74.85-1.49 1.283-2.25l1.212-2.302c.765-1.55 1.774-3.123 2.737-4.7.948-1.572 1.94-3.147 2.402-4.697.49-1.55.462-3.075-.03-4.55-1.023-2.953-3.42-5.708-7.14-8.07-.843-.59-1.902-1.156-2.83-1.694-1.067-.54-2.005-1.05-3.107-1.53-1.012-.48-2.134-.93-3.136-1.343l-3.114-1.14c-.88-.345-1.954-.653-2.776-.92l-1.173-.37-1.107-.31-2.076-.566c-13.51-3.633-28.462-3.943-42.932 0z"/></svg>