<svg xmlns="http://www.w3.org/2000/svg" viewBox="0 0 512 512" enable-background="new 0 0 512 512"><path fill="#AF773F" d="M117.008 136.66s.104 0 .304.003c.197.005.508-.004.87.023.745.037 1.81.114 3.065.303.652.082 1.298.19 2.05.362.78.18 1.542.456 2.402.72.863.26 1.69.627 2.617.974.924.355 1.74.783 2.682 1.206 1.83.87 3.676 1.953 5.49 3.245 1.835 1.264 3.603 2.78 5.313 4.45 1.707 1.674 3.308 3.572 4.782 5.612 1.45 2.087 2.816 4.255 3.967 6.646 1.17 2.327 2.132 4.884 2.932 7.42.395 1.277.706 2.64.992 3.95.274 1.316.518 2.63.653 4.016.154 1.358.267 2.695.312 4.013.03 1.377-.006 2.73-.082 4.036-.044.66-.07 1.286-.15 1.937-.09.67-.156 1.315-.284 1.963-.244 1.29-.442 2.5-.736 3.662-.702 2.478-1.418 4.564-2.375 6.497-.51.97-.938 1.84-1.454 2.63-.502.794-.903 1.47-1.456 2.126-.974 1.28-1.967 2.188-2.55 2.782-.293.297-.582.515-.752.66l-.267.22-.062.052c-2.39 1.956-5.875 1.696-7.97-.505l-.673-.71c-.388-.45-1.04-1.086-1.69-1.815-.68-.73-1.628-1.626-2.506-2.53-.43-.44-.964-.954-1.498-1.45-.535-.5-1.024-1.02-1.56-1.537-.595-.54-1.145-1.104-1.738-1.66-.303-.277-.557-.57-.836-.856l-.928-.892c-.633-.595-1.185-1.227-1.788-1.844-.682-.62-1.246-1.3-1.88-1.953-.62-.647-1.223-1.348-1.867-2.044-.316-.346-.63-.695-.95-1.045-.297-.36-.567-.723-.897-1.087-1.3-1.44-2.457-2.947-3.694-4.486-1.16-1.547-2.364-3.127-3.427-4.74-.26-.405-.572-.79-.84-1.193-.26-.41-.522-.815-.782-1.22-.525-.806-1.025-1.61-1.507-2.43-1-1.604-1.843-3.25-2.678-4.82-.792-1.592-1.507-3.145-2.137-4.62-.614-1.515-1.114-2.865-1.51-4.12l-1.034-3.496c-.31-1.027-.456-1.923-.6-2.495-.123-.59-.16-.93-.16-.93-.83-7.445 4.533-14.153 11.98-14.982.526-.06 1.048-.087 1.566-.085l3.342.035z"/></svg>