<?xml version="1.0" encoding="iso-8859-1"?>
<!-- Generator: Adobe Illustrator 18.1.0, SVG Export Plug-In . SVG Version: 6.00 Build 0)  -->
<!DOCTYPE svg PUBLIC "-//W3C//DTD SVG 1.1//EN" "http://www.w3.org/Graphics/SVG/1.1/DTD/svg11.dtd">
<svg version="1.1" xmlns="http://www.w3.org/2000/svg" xmlns:xlink="http://www.w3.org/1999/xlink" x="0px" y="0px"
	 viewBox="0 0 512 512" enable-background="new 0 0 512 512" xml:space="preserve">
<g id="Layer_2">
	<path fill="#AF773F" d="M433.607,51.599c-0.174-0.544-0.287-1.059-0.417-1.622c-0.119-0.328-0.321-1.233-0.321-1.233l-0.113-0.091
		c-6.981-24.837-21.655-41.091-25.694-45.188c0.056-0.208,0.119-0.682,0.119-0.682s-0.467,0.094-0.686,0.148
		c-0.179-0.197-0.507-0.502-0.507-0.502s-0.22,0.402-0.309,0.595c-4.68,0.752-20.138,3.987-36.799,13.988l-0.065-0.03
		c-0.121,0.099-0.164,0.194-0.291,0.211c-7.82,4.811-15.808,11.086-23.037,19.418c-6.888,6.769-12.668,13.583-17.531,20.304
		c-21.638-10.907-46.083-17.058-71.966-17.058c-25.878,0-50.318,6.149-71.951,17.052c-4.862-6.719-10.641-13.531-17.527-20.299
		c-7.229-8.332-15.217-14.607-23.037-19.418c-0.127-0.017-0.17-0.112-0.291-0.211l-0.065,0.03
		C126.458,7.011,111.001,3.776,106.321,3.024c-0.089-0.193-0.309-0.595-0.309-0.595s-0.328,0.305-0.507,0.502
		c-0.219-0.054-0.686-0.148-0.686-0.148s0.063,0.474,0.119,0.682c-4.039,4.097-18.713,20.351-25.694,45.188l-0.113,0.091
		c0,0-0.203,0.905-0.321,1.233c-0.13,0.563-0.242,1.078-0.417,1.622c-2.815,12.245-12.686,64.839,9.956,104.132
		c2.019,4.062,4.518,7.908,7.326,11.497c0.072,0.157,0.165,0.273,0.224,0.401c0.241,0.274,0.46,0.407,0.687,0.651
		c0.644,0.807,1.309,1.599,1.984,2.384c-1.015,5.484-1.76,11.063-2.2,16.728c-0.563,7.242-0.138,14.539,1.129,21.692l32.348,182.633
		h252.308l32.348-182.633c1.267-7.153,1.691-14.451,1.128-21.693c-0.44-5.664-1.186-11.242-2.201-16.726
		c0.675-0.785,1.34-1.578,1.984-2.385c0.227-0.244,0.447-0.377,0.687-0.651c0.059-0.128,0.151-0.244,0.224-0.401
		c2.809-3.589,5.307-7.435,7.326-11.497C446.293,116.438,436.422,63.844,433.607,51.599z"/>
</g>
<g id="Layer_3">
	<path fill="#D19B61" d="M257.922,395.937c-7.034,0-13.169-4.85-14.998-11.848c-0.234-0.896-0.478-1.837-0.73-2.824
		c-1.107-4.668-19.035-69.981-20.788-79.151c-1.639-9.17-3.211-18.84-4.781-28.843c-3.056-20.007-5.814-41.348-8.185-62.688
		c-2.32-21.341-4.212-42.681-5.204-62.688c-1.028-20.007-1.259-38.68-0.916-54.686c0.384-16.006,1.23-29.344,2.197-38.68
		c0.009-0.093,0.017-0.186,0.026-0.279c0.754-8.183,7.474-14.393,15.452-14.393h72.015c7.978,0,14.697,6.21,15.452,14.393
		c0.009,0.093,0.017,0.186,0.026,0.279c0.966,9.337,1.813,22.675,2.197,38.68c0.343,16.006,0.112,34.679-0.916,54.686
		c-0.992,20.007-2.885,41.348-5.204,62.688c-2.371,21.341-5.13,42.681-8.185,62.688c-1.57,10.003-3.142,19.674-4.781,28.843
		c-1.753,9.17-19.681,74.482-20.788,79.151c-0.252,0.987-0.496,1.928-0.73,2.824c-1.829,6.998-7.964,11.848-14.998,11.848H257.922z"
		/>
</g>
<g id="Layer_4">
	<path fill="#D9DBD5" d="M382.129,392.701c0.022-0.632,0.025-0.984,0.025-0.984c0-26.256-21.285-47.541-47.541-47.541
		c-15.281,0-28.868,7.218-37.565,18.421c-29.975,28.288-54.468,27.142-84.726-3.115c-8.686-9.408-21.119-15.306-34.934-15.306
		c-26.256,0-47.541,21.285-47.541,47.541c0,0,0.003,0.352,0.025,0.984c0.028,1.365,0.102,2.718,0.243,4.052
		C131.93,419.262,146.068,509.571,256,509.571s124.07-90.309,125.886-112.818C382.027,395.419,382.101,394.066,382.129,392.701z"/>
</g>
<g id="Layer_5">
	<path fill="#ACADAC" d="M225.796,429.182c0,16.768-9.099,30.341-20.335,30.341c-11.239,0-20.364-13.573-20.364-30.341
		c0-16.768,9.125-30.367,20.364-30.367C216.697,398.815,225.796,412.414,225.796,429.182z M306.567,398.815
		c-11.239,0-20.364,13.599-20.364,30.367c0,16.768,9.125,30.341,20.364,30.341c11.236,0,20.335-13.573,20.335-30.341
		C326.903,412.414,317.803,398.815,306.567,398.815z"/>
</g>
<g id="Layer_6">
	<path fill="#2B3B47" d="M152.369,191.974c13.901-0.742,25.771,9.925,26.513,23.826l2.324,43.524
		c0.742,13.901-9.925,25.771-23.826,26.513l0,0c-13.901,0.742-25.771-9.925-26.513-23.826l-2.324-43.524
		C127.801,204.586,138.468,192.716,152.369,191.974L152.369,191.974z M359.631,191.974c-13.901-0.742-25.771,9.925-26.513,23.826
		l-2.324,43.524c-0.742,13.901,9.925,25.771,23.826,26.513l0,0c13.901,0.742,25.771-9.925,26.513-23.826l2.324-43.524
		C384.199,204.586,373.532,192.716,359.631,191.974L359.631,191.974z M205.461,408.769c-11.239,0-20.364,13.576-20.364,30.341
		c0,16.819,9.125,30.393,20.364,30.393c11.236,0,20.335-13.573,20.335-30.393C225.796,422.345,216.697,408.769,205.461,408.769z
		 M306.567,408.769c-11.239,0-20.364,13.576-20.364,30.341c0,16.819,9.125,30.393,20.364,30.393
		c11.236,0,20.335-13.573,20.335-30.393C326.903,422.345,317.803,408.769,306.567,408.769z"/>
</g>
<g id="Layer_7">
	<path fill="#7C5028" d="M306.208,144.927c-1.085,1.617-3.626,0.528-3.166-1.364c2.407-9.891-10.858-24.842-27.939-34.799
		c-2.303,6.668-7.375,13.283-9.859,16.428c-0.675,0.854-1.937,0.37-1.993-0.717c-0.473-9.227-9.29-26.075-21.256-26.075
		c-27.904,0-50.525-22.621-50.525-50.525c0-27.904,22.621-43.426,50.525-43.426c9.495,0,18.374,1.801,25.962,5.272
		C309.384,25.508,352.695,75.688,306.208,144.927z M155.264,75.51c-3.93-4.314-8.202-7.637-12.395-10.217
		c-0.073-0.01-0.098-0.065-0.168-0.122l-0.038,0.017c-9.605-5.765-18.516-7.63-21.214-8.064c-0.051-0.111-0.178-0.343-0.178-0.343
		s-0.189,0.176-0.292,0.289c-0.126-0.031-0.396-0.086-0.396-0.086s0.036,0.273,0.069,0.393c-2.329,2.362-10.788,11.732-14.812,26.05
		l-0.065,0.053c0,0-0.117,0.522-0.185,0.711c-0.075,0.325-0.14,0.622-0.24,0.935c-1.476,6.418-6.309,32.063,2.635,53.693
		C118.275,113.942,134.65,92.216,155.264,75.51z M404.014,138.824c8.946-21.63,4.112-47.277,2.636-53.696
		c-0.101-0.313-0.165-0.61-0.24-0.935c-0.069-0.189-0.185-0.711-0.185-0.711l-0.065-0.053c-4.025-14.318-12.484-23.688-14.812-26.05
		c0.032-0.12,0.069-0.393,0.069-0.393s-0.269,0.055-0.396,0.086c-0.103-0.114-0.292-0.289-0.292-0.289s-0.127,0.232-0.178,0.343
		c-2.698,0.434-11.609,2.298-21.214,8.064l-0.038-0.017c-0.07,0.057-0.095,0.112-0.168,0.122c-4.194,2.581-8.468,5.905-12.4,10.222
		C377.346,92.221,393.722,113.946,404.014,138.824z"/>
</g>
</svg>
