<svg xmlns="http://www.w3.org/2000/svg" viewBox="0 0 512 512" enable-background="new 0 0 512 512"><path fill="#D19B61" d="M441.223 221.52l.92.684c.653.49 1.348.998 2.392 1.736 2.12 1.494 5.31 3.53 9.43 6.102 2.056 1.295 4.34 2.74 6.755 4.428 2.412 1.687 4.96 3.624 7.444 5.903 2.48 2.286 4.865 4.94 6.925 7.877 2.073 2.93 3.77 6.156 5.09 9.443 1.326 3.29 2.28 6.65 2.97 9.945l.47 2.462.366 2.435.603 4.47c.09.76.207 1.455.327 2.135l.346 2.045c.2 1.353.542 2.68.795 3.974.565 2.58 1.237 4.97 1.923 7.157.735 2.155 1.467 4.117 2.255 5.764.748 1.68 1.56 3.024 2.238 4.114.705 1.062 1.317 1.82 1.74 2.29.44.462.612.603.548.562.917.58 1.19 1.795.607 2.71-.582.917-1.796 1.19-2.712.607-.065-.037-.554-.344-1.22-.89-.662-.553-1.55-1.396-2.55-2.54-.964-1.156-2.104-2.592-3.184-4.338-1.13-1.73-2.214-3.758-3.33-6.006-1.06-2.26-2.13-4.746-3.103-7.418-.458-1.346-1.002-2.694-1.425-4.148-.223-.722-.45-1.452-.677-2.19-.234-.742-.46-1.486-.643-2.196l-1.202-4.442-.563-2.106-.647-2.085c-.912-2.763-2.025-5.455-3.373-7.946-1.347-2.49-2.916-4.785-4.713-6.788-1.79-2.01-3.766-3.768-5.87-5.31-4.22-3.065-8.9-5.35-13.142-7.405-4.247-2.033-8.014-3.874-10.635-5.312-1.327-.727-2.48-1.39-3.065-1.736l-.99-.58c-3.842-2.25-5.134-7.187-2.886-11.03 2.248-3.843 7.186-5.135 11.03-2.887.26.157.517.33.753.505zM107.8 66.77c-.303.54-.45.876-.45.876l.01.013c-4.503 9.933-3.25 22.107-3.25 22.107.194-.04.34-.094.536-.135-.04.195-.09.344-.13.54 0 0 13.486 1.428 23.71-3.848.086-.037.153-.048.245-.09.033-.026.07-.045.108-.076 1.13-.596 2.225-1.283 3.244-2.07 10.554-7.307 15.72-21.03 16.81-24.276.036-.15.083-.285.133-.434.02-.09.1-.33.1-.33l-.01-.034c1.165-4.068 1.104-8.29.875-10.983-.137-1.613-1.604-3.053-3.203-3.172-1.976-.147-4.74-.207-7.48.217l-.01-.014c-.04.013-.064.03-.094.024-2.416.4-5.076 1.138-7.855 2.45-8.952 3.48-14.792 8.507-18.504 12.69-2.034 1.862-3.57 4.12-4.78 6.544z"/></svg>