<svg xmlns="http://www.w3.org/2000/svg" viewBox="0 0 512 512" enable-background="new 0 0 512 512"><path fill="#AF773F" d="M90.44 116.07c-15.94-54.175-3.662-82.26 28.81-37.72s17.584 98.013-3.92 113.69m29.562 79.542c.833 56.714-6.142 102.56-13.484 145.072-4.608-1.145-9.154-1.772-12.563-1.772-9.048 0-12.962 11.212-12.962 11.212-4.84 6.65.078 15.994 8.302 15.994H141.6c4.08 0 7.346-2.303 9.01-5.434l.49.085s22.425-48.454 28.155-81.55l14.527-83.91-48.892.3zm291.332-30.97l-86.377-22.068c-43.13 37.243-2.034 122.16 14.36 144.74 15.482 21.32 13.588 45.503 10.14 60.33-4.076-.914-8.01-1.413-11.042-1.413-9.048 0-12.962 11.214-12.962 11.214-4.84 6.65.078 15.994 8.302 15.994h27.418c3.095 0 5.72-1.324 7.535-3.33 1.642-1.325 2.77-3.722 3.055-7.617 1.516-20.69 18.207-37.203 12.432-55.133-17.904-55.59 22.64-81.276 27.14-142.713z"/></svg>