<?xml version="1.0" encoding="iso-8859-1"?>
<!-- Generator: Adobe Illustrator 18.1.1, SVG Export Plug-In . SVG Version: 6.00 Build 0)  -->
<!DOCTYPE svg PUBLIC "-//W3C//DTD SVG 1.1//EN" "http://www.w3.org/Graphics/SVG/1.1/DTD/svg11.dtd">
<svg version="1.1" xmlns="http://www.w3.org/2000/svg" xmlns:xlink="http://www.w3.org/1999/xlink" x="0px" y="0px"
	 viewBox="0 0 512 512" enable-background="new 0 0 512 512" xml:space="preserve">
<g id="Layer_2">
	<path fill="#FF473E" d="M289.297,46.128c9.052,4.749,17.093,11.466,23.365,19.638c9.499,12.378,14.521,27.198,14.521,42.857
		c0,4.157-0.362,8.317-1.076,12.363c-1.857,10.527,1.004,21.244,7.85,29.404c6.89,8.212,16.96,12.921,27.63,12.921
		c5.551,0,11.133-1.325,16.142-3.833c3.69-1.847,7.591-3.386,11.592-4.575c6.575-1.953,13.34-2.943,20.108-2.943
		c17.787,0,34.84,6.803,47.737,18.662c-10.628,15.603-8.882,29-6.336,36.49c4.954,14.574,16.844,21.806,28.35,25.357
		c-1.567,10.812-5.649,21.256-11.958,30.325c-9.206,13.233-22.263,22.66-37.762,27.263c-3.434,1.02-6.956,1.784-10.468,2.273
		c-13.306,1.849-24.4,10.845-28.952,23.478c-4.552,12.633-1.747,26.638,7.321,36.549c2.394,2.617,4.619,5.452,6.613,8.428
		c8.108,12.099,12.231,26.153,11.924,40.642c-0.215,10.153-2.562,20-6.862,29.002c-1.601-0.17-3.181-0.256-4.736-0.256
		c-8.717,0-16.779,2.656-23.315,7.68c-5.595,4.3-13.778,13.298-14.866,29.592c-6.638,2.049-13.539,3.083-20.623,3.083
		c-23.606,0-45.529-11.685-58.63-31.236l-0.05-0.074l-0.029-0.044c-6.727-10.075-17.957-16.089-30.039-16.089
		c-12.082,0-23.311,6.014-30.029,16.075c-0.002,0.003-0.029,0.044-0.031,0.047l-0.043,0.064
		c-13.115,19.572-35.038,31.257-58.644,31.257c-4.066,0-8.099-0.348-12.068-1.04c-3.151-13.044-10.791-20.111-15.892-23.511
		c-6.074-4.048-13.311-6.188-20.929-6.188c-2.825,0-5.712,0.293-8.646,0.876c-7.008-9.963-11.392-21.721-12.565-33.999
		c-1.561-16.342,2.457-32.207,11.619-45.88c1.994-2.976,4.219-5.811,6.613-8.428c9.068-9.912,11.873-23.917,7.321-36.549
		c-4.552-12.633-15.646-21.629-28.951-23.478c-3.513-0.488-7.035-1.253-10.469-2.273c-14.034-4.168-26.219-12.418-35.238-23.859
		c-5.717-7.252-9.91-15.423-12.429-24.121c18.62-7.045,24.862-19.599,26.946-27.55c4.196-16.009-2.909-29.39-11.71-39.122
		c13.213-14.715,32.289-23.446,52.461-23.445c6.77,0,13.536,0.99,20.109,2.943c3.971,1.179,7.842,2.704,11.508,4.533
		c4.998,2.494,10.566,3.812,16.102,3.812c10.667,0,20.735-4.707,27.625-12.914c6.845-8.155,9.71-18.867,7.859-29.39
		c-0.709-4.034-1.069-8.179-1.069-12.322c0-15.177,4.743-29.627,13.715-41.789c5.746-7.789,13.114-14.349,21.442-19.201
		c11.54,16.241,25.275,19.095,33.49,19.095C271.103,66.728,282.135,56.808,289.297,46.128 M280.849,14.471
		c-3.669,0-7.079,2.266-8.475,5.846c-4.717,12.101-10.84,19.411-17.533,19.411c-6.551,0-12.555-7.003-17.229-18.646
		c-1.397-3.478-4.781-5.616-8.363-5.616c-0.928,0-1.87,0.144-2.793,0.445c-39.044,12.724-67.261,49.421-67.261,92.712
		c0,5.799,0.507,11.479,1.477,16.999c1.028,5.843-3.601,10.627-8.892,10.627c-1.334,0-2.71-0.304-4.048-0.972
		c-5.015-2.502-10.316-4.605-15.875-6.256c-9.258-2.749-18.606-4.059-27.795-4.06c-34.524-0.002-66.858,18.482-84.286,48.549
		c-2.354,4.061-1.204,9.225,2.614,11.957c10.812,7.738,16.524,15.646,14.803,22.215c-1.668,6.363-10.023,10.403-22.554,11.961
		c-4.744,0.59-8.148,4.863-7.814,9.632c2.756,39.384,29.443,74.763,69.52,86.665c4.801,1.426,9.625,2.464,14.438,3.133
		c7.222,1.004,10.349,9.68,5.427,15.06c-3.28,3.586-6.333,7.462-9.121,11.623c-26.053,38.88-20.417,89.715,10.877,122.033
		c1.756,1.813,4.151,2.787,6.575,2.787c1.307,0,2.622-0.283,3.85-0.871c3.979-1.905,7.602-2.916,10.721-2.916
		c2.272,0,4.276,0.537,5.955,1.656c3.835,2.556,5.515,7.852,5.283,15.043c-0.126,3.906,2.315,7.475,6.01,8.749
		c10.317,3.557,21.012,5.292,31.64,5.292c31.423,0,62.267-15.162,81.073-43.227c0.03-0.044,0.059-0.089,0.089-0.133
		c1.818-2.722,4.701-4.083,7.585-4.083c2.884,0,5.767,1.361,7.585,4.083c0.03,0.044,0.059,0.089,0.089,0.133
		c18.805,28.063,49.654,43.228,81.075,43.228c14.679,0,29.479-3.308,43.241-10.156c3.576-1.779,5.512-5.718,4.853-9.657
		c-1.456-8.698-0.316-15.255,3.847-18.455c1.838-1.412,4.156-2.087,6.862-2.087c2.933,0,6.322,0.792,10.051,2.298
		c1.088,0.439,2.225,0.65,3.349,0.65c2.837,0,5.597-1.343,7.307-3.759c22.675-32.05,24.554-76.051,1.397-110.607
		c-2.788-4.161-5.841-8.037-9.121-11.623c-4.922-5.38-1.796-14.056,5.427-15.06c4.813-0.669,9.637-1.707,14.438-3.133
		c44.103-13.098,71.995-54.626,69.618-98.637c-0.247-4.573-3.816-8.327-8.384-8.646c-11.865-0.831-19.948-4.234-21.987-10.233
		c-2.007-5.904,2.156-13.382,10.772-21.137c3.44-3.096,3.889-8.305,1.173-12.052c-18.233-25.146-47.677-40.275-78.909-40.275
		c-9.19,0-18.535,1.31-27.795,4.06c-5.602,1.664-10.942,3.786-15.991,6.314c-1.34,0.671-2.72,0.977-4.056,0.977
		c-5.293,0-9.922-4.788-8.89-10.634c0.977-5.538,1.487-11.237,1.487-17.055c0-44.619-29.975-82.231-70.885-93.811
		C282.481,14.581,281.659,14.471,280.849,14.471L280.849,14.471z"/>
</g>
<g id="Layer_3">
	<path fill="#FF473E" d="M295.519,368.407c-15.319,0-29.476-7.641-37.868-20.439l-1.598-2.437l-1.648,2.403
		c-8.442,12.311-22.403,19.661-37.345,19.661c-8.989,0-17.694-2.653-25.175-7.672c-9.919-6.656-16.645-16.908-18.938-28.87
		c-2.318-12.095,0.314-24.808,7.221-34.88l3.047-4.443l-1.774-0.466c-12.375-3.25-22.933-11.496-28.967-22.625
		c-5.983-11.034-7.101-23.674-3.147-35.591c6.147-18.53,23.396-30.98,42.92-30.98c3.87,0,7.743,0.501,11.511,1.491l7.886,2.071
		v-8.153c0-24.95,20.298-45.249,45.249-45.249c1.096,0,2.207,0.04,3.305,0.119c23.52,1.684,41.944,21.798,41.944,45.79v7.217
		l7.609-2.035c3.832-1.025,7.772-1.545,11.713-1.545c19.432,0,36.653,12.374,42.854,30.79c4.006,11.898,2.945,24.542-2.987,35.603
		c-5.983,11.155-16.504,19.449-28.863,22.756l-3.406,0.91l3.895,5.939c13.837,21.101,8.225,49.419-12.51,63.127
		C313.016,365.811,304.396,368.407,295.519,368.407z M256.133,315.034c7.645,0,14.711,3.816,18.903,10.208l5.192,7.92
		c3.386,5.163,9.102,8.245,15.29,8.245c3.566,0,7.037-1.048,10.036-3.031c8.362-5.527,10.525-17.101,4.822-25.797l-7.23-11.026
		c-3.967-6.05-4.795-13.696-2.216-20.455c2.578-6.758,8.29-11.907,15.276-13.776l9.284-2.482c5.259-1.406,9.536-4.757,12.046-9.435
		c2.369-4.418,2.793-9.47,1.192-14.225c-2.498-7.42-9.437-12.405-17.266-12.405c-1.585,0-3.179,0.211-4.735,0.628l-13.144,3.515
		c-1.916,0.513-3.887,0.772-5.857,0.772c-5.944,0-11.564-2.303-15.825-6.484c-4.359-4.279-6.761-10.005-6.761-16.124v-12.945
		c0-9.897-7.412-18.182-16.873-18.859c-10.636-0.757-19.625,7.683-19.625,18.199v13.854c0,12.465-10.131,22.607-22.583,22.608
		c-1.937,0-3.875-0.25-5.761-0.746l-13.399-3.519c-1.53-0.402-3.097-0.605-4.654-0.605c-7.867,0-14.817,5.016-17.293,12.481
		c-1.58,4.763-1.134,9.812,1.256,14.22c2.53,4.666,6.824,7.997,12.09,9.38l7.816,2.053c7.105,1.867,12.878,7.091,15.441,13.976
		c2.563,6.884,1.613,14.61-2.541,20.67l-6.581,9.596c-2.859,4.169-3.942,9.464-2.971,14.528c0.925,4.827,3.576,8.923,7.463,11.531
		c3.016,2.023,6.52,3.093,10.132,3.093c6.036,0,11.672-2.965,15.078-7.932l5.356-7.811
		C241.709,318.706,248.677,315.034,256.133,315.034z"/>
</g>
</svg>
