<svg xmlns="http://www.w3.org/2000/svg" viewBox="0 0 512 512" enable-background="new 0 0 512 512"><path fill="#AF773F" d="M117.69 150.62c-3.24 10.252 1.894 16.552-.916 27.323-.115.472-.24.944-.39 1.415-3.572 11.304-15.632 17.572-26.936 14-11.304-3.574-17.572-15.634-14-26.938 2.396-7.58 3.305-5.8 4.898-12.24 1.492-6.028.605-8.188 3.235-14.338 2.98-9.42 13.027-14.642 22.446-11.665 9.42 2.977 14.642 13.025 11.665 22.444zm-66.52 61.774c.832.094 1.583-.505 1.676-1.337.094-.832-.505-1.583-1.337-1.676-.834-.092-1.585.507-1.678 1.34-.094.83.505 1.582 1.337 1.675zm-1.608-17c.832.093 1.583-.506 1.676-1.338s-.505-1.583-1.337-1.676c-.83-.094-1.58.505-1.674 1.337-.093.832.505 1.582 1.337 1.676zm-10.427 9.7c.832.094 1.583-.505 1.676-1.337.096-.832-.503-1.583-1.335-1.676-.832-.092-1.583.507-1.676 1.34-.094.83.504 1.58 1.336 1.675z"/></svg>