<?xml version="1.0" encoding="iso-8859-1"?>
<!-- Generator: Adobe Illustrator 18.1.1, SVG Export Plug-In . SVG Version: 6.00 Build 0)  -->
<!DOCTYPE svg PUBLIC "-//W3C//DTD SVG 1.1//EN" "http://www.w3.org/Graphics/SVG/1.1/DTD/svg11.dtd">
<svg version="1.1" xmlns="http://www.w3.org/2000/svg" xmlns:xlink="http://www.w3.org/1999/xlink" x="0px" y="0px"
	 viewBox="0 0 512 512" enable-background="new 0 0 512 512" xml:space="preserve">
<g id="Layer_2">
	<path fill="#E5E4DF" d="M255.887,484.256c-126.067,0-228.628-102.565-228.628-228.632S129.82,27,255.887,27
		s228.628,102.558,228.628,228.625S381.953,484.256,255.887,484.256z"/>
</g>
<g id="Layer_3">
	<path fill="#FF473E" d="M255.887,44.601c116.359,0,211.025,94.666,211.025,211.025c0,116.359-94.666,211.025-211.025,211.025
		c-116.36,0-211.025-94.666-211.025-211.025C44.862,139.267,139.527,44.601,255.887,44.601 M255.887,1.826
		c-140.17,0-253.8,113.63-253.8,253.8s113.63,253.8,253.8,253.8s253.8-113.63,253.8-253.8S396.057,1.826,255.887,1.826
		L255.887,1.826z"/>
</g>
<g id="Layer_4">
	<path fill="#3A5D66" d="M255.887,274.5c-10.217,0-18.5-8.283-18.5-18.5V92.009c0-10.217,8.283-18.5,18.5-18.5
		c10.217,0,18.5,8.283,18.5,18.5V256C274.387,266.217,266.104,274.5,255.887,274.5z"/>
</g>
<g id="Layer_5">
	<path fill="#183F4C" d="M380.599,183.575c-5.111-8.846-16.426-11.877-25.273-6.764l-92.335,53.346
		c-2.261-0.629-4.641-0.973-7.103-0.973c-14.604,0-26.442,11.839-26.442,26.442c0,14.604,11.839,26.442,26.442,26.442
		c12.338,0,22.701-8.45,25.62-19.879l92.328-53.342C382.682,203.737,385.71,192.422,380.599,183.575z"/>
</g>
</svg>
