<?xml version="1.0" encoding="iso-8859-1"?>
<!-- Generator: Adobe Illustrator 18.1.1, SVG Export Plug-In . SVG Version: 6.00 Build 0)  -->
<!DOCTYPE svg PUBLIC "-//W3C//DTD SVG 1.1//EN" "http://www.w3.org/Graphics/SVG/1.1/DTD/svg11.dtd">
<svg version="1.1" xmlns="http://www.w3.org/2000/svg" xmlns:xlink="http://www.w3.org/1999/xlink" x="0px" y="0px"
	 viewBox="0 0 512 512" enable-background="new 0 0 512 512" xml:space="preserve">
<g id="Layer_3">
	<path fill="#2B3B47" d="M255.755,464.387h-29.601c-1.671,0-3.122-1.15-3.505-2.777l-6.113-26.025
		c-0.382-1.627-1.834-2.777-3.505-2.777h-36.894c-1.671,0-3.122,1.15-3.505,2.777l-6.113,26.025
		c-0.382,1.627-1.834,2.777-3.505,2.777h-28.748c-2.416,0-4.146-2.332-3.445-4.644l42.324-139.67
		c0.46-1.518,1.859-2.556,3.445-2.556h37.041c1.588,0,2.988,1.04,3.447,2.561l42.122,139.67
		C259.899,462.058,258.169,464.387,255.755,464.387z M208.689,402.947l-10.683-45.103c-0.876-3.7-6.144-3.691-7.009,0.011
		l-10.534,45.103c-0.527,2.258,1.187,4.419,3.506,4.419h21.216C207.509,407.377,209.224,405.208,208.689,402.947z"/>
</g>
<g id="Layer_1">
</g>
</svg>
