<?xml version="1.0" encoding="utf-8"?>
<!-- Generator: Adobe Illustrator 18.1.0, SVG Export Plug-In . SVG Version: 6.00 Build 0)  -->
<!DOCTYPE svg PUBLIC "-//W3C//DTD SVG 1.1//EN" "http://www.w3.org/Graphics/SVG/1.1/DTD/svg11.dtd">
<svg version="1.1" xmlns="http://www.w3.org/2000/svg" xmlns:xlink="http://www.w3.org/1999/xlink" x="0px" y="0px"
	 viewBox="0 0 566.9 566.9" enable-background="new 0 0 566.9 566.9" xml:space="preserve">
<g id="Layer_2_1_">
	<path fill="#76DFFF" d="M555.4,542.1c0,7.3-6,13.3-13.3,13.3H24.8c-7.3,0-13.3-6-13.3-13.3V24.8c0-7.3,6-13.3,13.3-13.3h517.4
		c7.3,0,13.3,6,13.3,13.3V542.1z"/>
</g>
<g id="Layer_3_1_">
	<path fill="#FF473E" d="M454.9,523.2c-38.7-25.5-69.5-54.4-91.5-85.7c-27-38.5-40.7-81.2-40.7-126.7h-25.4v-18.5h-27.7v18.5h-25.4
		c0,45.6-13.7,88.2-40.7,126.7c-22,31.3-52.7,60.2-91.5,85.7c-19.4,12.8-39,23.5-56.9,32.2h59.6c42.2-27.9,96.6-44.1,154.9-46.4
		v46.4h27.7v-46.4c58.3,2.2,112.7,18.5,154.9,46.4h59.6C493.9,546.7,474.3,536,454.9,523.2z M269.6,481.4c-8.9,0.3-17.7,1-26.4,1.9
		l26.4-16V481.4z M269.6,459.5L227,485.3c-11.1,1.7-22.1,3.8-32.8,6.4c1-1,1.9-2,2.9-3l72.6-44.3L269.6,459.5L269.6,459.5z
		 M269.6,436.7l-57.5,35.1c4.9-5.9,9.5-11.9,13.8-18c2.1-3,4.2-6.1,6.2-9.2l37.5-22.9L269.6,436.7L269.6,436.7z M269.6,413.8
		l-30,18.3c4.1-7.2,7.8-14.4,11.1-21.8l18.9-11.6L269.6,413.8L269.6,413.8z M269.6,391l-14.5,8.9c2.5-6.3,4.7-12.6,6.6-19.1l7.9-4.8
		V391z M269.6,368.2l-5.3,3.2c2.3-8.9,4.1-18,5.3-27.2V368.2z M297.3,344.2c1.2,8.9,2.9,17.7,5.1,26.4l-5.1-3.1V344.2z M297.3,375.3
		l7.7,4.7c1.9,6.4,4.1,12.8,6.5,19l-14.2-8.7V375.3z M297.3,398.1l18.5,11.3c3.3,7.4,6.9,14.6,10.9,21.7l-29.5-18V398.1z
		 M297.3,420.9l36.8,22.5c2.2,3.5,4.5,6.9,6.9,10.3c4,5.6,8.2,11.2,12.7,16.7L297.3,436V420.9z M297.3,481.4v-14.7l27.1,16.6
		C315.5,482.4,306.4,481.7,297.3,481.4z M340.5,485.4l-43.2-26.5v-15.1l71,43.4c1.4,1.5,2.9,3.1,4.4,4.6
		C362.2,489.2,351.4,487.1,340.5,485.4z"/>
</g>
<g id="Layer_4_1_">
	<path fill="#F9F9F7" d="M323.4,238.1h-18.8l-7.4-125.7h0.1V81.3c0-4.4-3.6-8-8-8H288l-0.7-34.6c0-2-1.7-3.6-3.7-3.7
		c-2.1,0-3.8,1.6-3.8,3.7L279,73.3h-1.2c-4.4,0-8,3.6-8,8v31.1l-7.4,125.7h-18.8c-4.4,0-8,3.6-8,8v64.2c0,4.4,3.6,8,8,8h79.8
		c4.4,0,8-3.6,8-8V246C331.3,241.6,327.8,238.1,323.4,238.1z"/>
</g>
<g id="Layer_5_1_">
	<path fill="#FF473E" d="M297.2,112.4L297.2,112.4l1,19.1h-29.5l1.1-19.1v-10.7h27.3L297.2,112.4L297.2,112.4z M267.3,155l-1.8,29.9
		h35.8l-1.8-29.9H267.3z M304.5,238.1l-1.8-29.8h-38.6l-1.8,29.8"/>
</g>
</svg>
