<?xml version="1.0" encoding="iso-8859-1"?>
<!-- Generator: Adobe Illustrator 18.1.1, SVG Export Plug-In . SVG Version: 6.00 Build 0)  -->
<!DOCTYPE svg PUBLIC "-//W3C//DTD SVG 1.1//EN" "http://www.w3.org/Graphics/SVG/1.1/DTD/svg11.dtd">
<svg version="1.1" xmlns="http://www.w3.org/2000/svg" xmlns:xlink="http://www.w3.org/1999/xlink" x="0px" y="0px"
	 viewBox="0 0 512 512" enable-background="new 0 0 512 512" xml:space="preserve">
<g id="Layer_2">
	<circle fill="#646768" cx="256" cy="256" r="241"/>
</g>
<g id="Layer_3">
	<path fill="#464A4C" d="M256,39c129.076,0,234.448,101.475,240.702,229c0.195-3.976,0.298-7.976,0.298-12
		c0-133.101-107.899-241-241-241S15,122.899,15,256c0,4.024,0.103,8.024,0.298,12C21.552,140.475,126.924,39,256,39z"/>
</g>
<g id="Layer_4">
	<path fill="#464A4C" d="M256,374.264c-62.695,0-114.063-48.483-118.663-110.002c-0.222,2.971-0.337,5.971-0.337,8.998
		c0,65.722,53.278,119,119,119s119-53.278,119-119c0-3.027-0.115-6.028-0.337-8.998C370.063,325.78,318.695,374.264,256,374.264z"/>
</g>
<g id="Layer_5">
	<circle fill="#F4F3EF" cx="256" cy="256" r="119"/>
</g>
<g id="Layer_6">
	<path fill="#FFFFFF" d="M182.967,239.946c-2.002,0-4.039-0.346-6.028-1.076c-9.073-3.33-13.729-13.385-10.398-22.458
		c9.094-24.779,31.792-45.158,60.714-54.512c9.195-2.975,19.062,2.069,22.036,11.266c2.974,9.196-2.07,19.062-11.266,22.036
		c-22.101,7.147-34.445,21.873-38.628,33.269C196.797,235.555,190.098,239.946,182.967,239.946z"/>
</g>
</svg>
