<?xml version="1.0" encoding="iso-8859-1"?>
<!-- Generator: Adobe Illustrator 18.1.1, SVG Export Plug-In . SVG Version: 6.00 Build 0)  -->
<!DOCTYPE svg PUBLIC "-//W3C//DTD SVG 1.1//EN" "http://www.w3.org/Graphics/SVG/1.1/DTD/svg11.dtd">
<svg version="1.1" xmlns="http://www.w3.org/2000/svg" xmlns:xlink="http://www.w3.org/1999/xlink" x="0px" y="0px"
	 viewBox="0 0 512 512" enable-background="new 0 0 512 512" xml:space="preserve">
<g id="Layer_4">
	<path fill="#F9F9F7" d="M180.264,313.334c0,14.528-8.038,24.749-19.946,33.881c-3.938,3.02-4.177,8.879-0.562,12.278l12.178,11.451
		c4.289,4.033,11.265,2.273,13.213-3.283c1.141-3.255,2.202-6.712,3.173-10.363c1.175-4.414,5.715-7.026,10.101-5.749l11.44,3.33
		c4.554,1.326,7.028,6.278,5.293,10.693c-3.706,9.432-7.823,17.629-12.298,24.754c-2.12,3.376-1.527,7.779,1.46,10.42l10.633,9.403
		c4.376,3.87,3.34,10.959-1.961,13.414l-12.073,5.593c-3.029,1.403-6.61,0.803-9.016-1.511l-7.343-7.061
		c-2.757-2.651-6.983-2.99-10.156-0.854c-11.846,7.972-25.15,11.753-40.188,11.753c-31.048,0-51.885-16.044-51.885-40.633
		c0-14.611,6.856-24.955,20.697-35.332c3.846-2.883,4.253-8.491,0.966-11.998c-9.6-10.243-13.329-17.836-13.329-28.727
		c0-18.129,14.17-35.007,44.592-35.007C163.594,279.786,180.264,294.372,180.264,313.334z M134.782,373.44
		c-3.34-3.174-8.653-2.919-11.691,0.545c-3.932,4.484-5.756,9.385-5.756,15.197c0,11.252,8.752,18.754,22.505,18.754
		c4.277,0,8.223-0.617,11.903-1.807c5.865-1.895,7.599-9.351,3.131-13.597L134.782,373.44z M122.544,314.584
		c0,5.55,1.81,9.652,6.533,15.153c2.983,3.475,8.307,3.78,11.64,0.639c5.055-4.765,7.666-9.749,7.666-16.209
		c0-7.71-4.793-12.711-12.71-12.711C127.545,301.456,122.544,306.666,122.544,314.584z"/>
</g>
<g id="Layer_1">
</g>
</svg>
