<?xml version="1.0" encoding="iso-8859-1"?>
<!-- Generator: Adobe Illustrator 18.1.1, SVG Export Plug-In . SVG Version: 6.00 Build 0)  -->
<!DOCTYPE svg PUBLIC "-//W3C//DTD SVG 1.1//EN" "http://www.w3.org/Graphics/SVG/1.1/DTD/svg11.dtd">
<svg version="1.1" xmlns="http://www.w3.org/2000/svg" xmlns:xlink="http://www.w3.org/1999/xlink" x="0px" y="0px"
	 viewBox="0 0 512 512" enable-background="new 0 0 512 512" xml:space="preserve">
<g id="Layer_4">
	<path fill="#F9F9F7" d="M170.392,241.274v46.139c0,7.669,1.71,11.297,5.518,13.466c1.463,0.833,2.138,2.583,1.633,4.189
		l-5.585,17.77c-0.523,1.663-2.167,2.725-3.895,2.495c-10.609-1.412-18.329-4.821-23.487-12.305
		c-1.335-1.936-4.115-2.197-5.67-0.434c-8.646,9.806-20.499,13.529-32.884,13.529c-23.857,0-38.937-15.53-38.937-37.361
		c0-26.107,19.806-40.512,55.817-40.512h8.554c1.988,0,3.6-1.612,3.6-3.6V243.3c0-13.954-5.627-18.23-20.031-18.23
		c-6.938,0-17.205,1.85-27.95,5.214c-1.861,0.583-3.85-0.418-4.482-2.263l-5.819-16.973c-0.639-1.864,0.339-3.894,2.192-4.564
		c13.977-5.046,29.183-7.748,41.687-7.748C155.538,198.737,170.392,213.366,170.392,241.274z M126.504,268.058
		c-15.98,0-23.632,5.627-23.632,17.555c0,9.453,4.952,14.854,13.729,14.854c7.55,0,13.653-3.722,17.912-10.373
		c0.364-0.568,0.543-1.238,0.543-1.913v-16.524c0-1.988-1.612-3.6-3.6-3.6H126.504z"/>
</g>
<g id="Layer_1">
</g>
</svg>
