<?xml version="1.0" encoding="iso-8859-1"?>
<!-- Generator: Adobe Illustrator 18.1.0, SVG Export Plug-In . SVG Version: 6.00 Build 0)  -->
<!DOCTYPE svg PUBLIC "-//W3C//DTD SVG 1.1//EN" "http://www.w3.org/Graphics/SVG/1.1/DTD/svg11.dtd">
<svg version="1.1" xmlns="http://www.w3.org/2000/svg" xmlns:xlink="http://www.w3.org/1999/xlink" x="0px" y="0px"
	 viewBox="0 0 512 512" enable-background="new 0 0 512 512" xml:space="preserve">
<g id="Layer_2">
	<path fill="#76DFFF" d="M501.617,489.617c0,6.6-5.4,12-12,12H22.383c-6.6,0-12-5.4-12-12V22.383c0-6.6,5.4-12,12-12h467.234
		c6.6,0,12,5.4,12,12V489.617z"/>
</g>
<g id="Layer_3">
	<path fill="#34A010" d="M26.656,483.165c2.316,0.419,3.385-0.983,3.656-2.899c1.46-10.323,3.976-18.716,17.092-20.327
		c4.647-0.571,10.548-4.645,14.328-9.643c1.07-1.415,5.327-0.802,5.328,2.277c0,4.007,1.187,7.971-1.428,12.21
		c-5.646,9.151-12.248,16.557-21.612,22.456c-6.937,4.371-11.657,3.476-17.364-0.384C26.656,485.625,26.656,484.395,26.656,483.165z
		 M464.762,64.909c6.593-7.81,15.964-11.718,23.292-18.526c6.286-5.839,1.63-9.03-0.128-13.419c-4.92,0-9.84,0-14.761,0
		c0.416,2.215-1.135,2.816-2.71,3.734c-11.247,6.557-18.621,17.847-19.431,29.477C455.656,65.44,461.675,68.566,464.762,64.909z
		 M142.268,309.646c-4.525-0.164-8.263,0.537-11.13,4.413c-8.041,10.867-19.62,16.293-31.85,20.975
		c-7.778,2.978-9.216,13.902-2.04,17.165c6.653,3.025,13.645,6.507,21.684,5.602c5.628-0.633,10.848,0.587,15.385-5.54
		c2.964-4.002,9.406-6.267,15.813-5.751c8.905,0.717,17.584,0.387,25.148-6.094c3.225-2.764,7.497-1.691,11.255,1.608
		c3.567,3.131,3.601,7.783,2.129,9.865c-2.271,3.212-3.31,5.976-3.415,9.784c-0.316,11.358,6.916,16.875,17.864,13.309
		c7.113-2.317,13.561-6.02,19.828-9.957c9.401-5.906,9.827-7.816,6.71-21.146c-0.433-1.852,0.123-3.94,1.978-4.502
		c1.546-0.468,3.666-0.73,4.921,1.258c3.796,6.014,9.563,6.464,15.951,6.059c13.427-0.85,26.541-3.299,38.82-8.674
		c2.78-1.217,5.193-2.905,8.194-2.405c6.931,1.154,12.498-2.411,18.149-5.201c10.643-5.255,14.6-13.132,9.974-23.63
		c-2.647-6.009-1-9.196,1.326-14.341c5.656-12.516,14.808-24.331,11.337-39.519c-1.048-4.588,2.389-6.675,5.01-8.96
		c5.57-4.856,10.497-11.361,14.128-17.821c6.186-11.005,4.654-22.666-1.185-31.925c-5.126-8.127-12.833-14.206-10.716-25.267
		c0.23-1.2-1.714-2.92-2.823-4.254c-8.999-10.827-27.172-7.848-32.687,5.521c-2.165,5.248-2.281,11.807-5.572,16.017
		c-4.955,6.34-5.026,14.468-1.954,18.502c7.148,9.39-3.466,15.304-2.081,22.96c-9.784,15.797-20.873,30.576-35.276,42.462
		c-4.831,3.987-10.54,7.016-16.156,9.881c-1.801,0.919-5.163,0.984-6.416-1.683c-0.642-1.366-0.502-3.279,0.95-5.008
		c2.502-2.979,8.676-5.054,5.593-9.957c-2.464-3.919-7.963-1.558-12.025-1.498c-6.59,0.097-12.055,6.01-12.82,16.091
		c-0.462,6.078-2.452,10.074-6.501,14.057c-4.144,4.077-9.052,7.285-9.038,14.826c0.009,4.806-6.219,8.983-10.838,6.26
		c-11.012-6.491-22.56-1.619-32.168-3.403C158.24,309.727,150.245,309.935,142.268,309.646z M391.734,128.615
		c2.992-13.911,13.129-17.123,24.615-17.913c6.223-0.428,11.178-2.956,16.073-5.816c5.407-3.16,5.708-8.57-0.343-11.012
		c-8.51-3.434-9.069-10.088-5.846-15.003c3.078-4.695,4.148-8.528,1.068-11.87c-1.917-2.08-6.162-0.526-9.794,0.943
		c-11.961,4.836-23.082,2.351-32.412-6.828c-6.127-6.028-12.93-11.573-18.025-18.386c-5.001-6.688-11.279-6.355-17.889-5.989
		c-5.371,0.297-8.787,3.295-8.838,9.037c-0.082,9.208,1.036,18.577-0.317,27.583c-1.376,9.153-1.247,19.652-13.561,23.771
		c-5.178,1.732-15.563,0.947-12.901,12.252c0.009,0.039-3.437,0.382-4.725,1.326c-4.924,3.608-6.833,9.341-8.975,14.645
		c-1.947,4.82,1.804,7.942,5.158,10.619c2.959,2.361,1.863,5.473,2.087,8.372c0.915,11.801,3.62,13.183,15.43,7.884
		c3.624-1.626,7.15-3.551,10.903-4.787c4.228-1.392,4.276-4.041,2.012-6.627c-3.733-4.265-3.834-5.124,1.955-8.686
		c10.356-6.373,18.232-2.51,25.435,3.247c4.245,3.393,7.874,5.133,12.637,4.608C383.559,139.893,390.062,136.386,391.734,128.615z
		 M56.178,420.098c0.073,8.931,4.603,17.015,10.526,18.785c7.163,2.141,16.196-2.928,20.896-11.038
		c7.176-12.383,10.534-26.943,21.894-37.006c3.87-3.428,3.261-9.485,1.08-13.342c-2.561-4.53-8.332-7.322-6.425-13.935
		c-4.544-2.194-10.631-3.231-13.319-6.817c-5.997-7.998-13.783-6.624-21.459-6.326c-8.238,0.32-16.263,4.984-18.419,11.629
		c-1.869,5.761-10.695,12.637-2.155,20.024c-2.03,7.543,3.909,10.883,8.106,15.006c2.978,2.926,4.433,5.372,0.843,8.99
		c-3.447,3.475-0.905,8.125-1.571,12.188C56.177,418.872,56.173,419.485,56.178,420.098z M119.094,391.675
		c1.059,3.3,3.386,6.294,7.536,6.614c3.085,0.238,5.816,0.02,8.121-2.743c1.636-1.961,1.762-4.734,2.875-6.1
		c2.935-3.604,5.425-8.343,10.483-9.515c3.684-0.853,6.438,1.662,9.681,3.176c6.346,2.964,14.79-1.22,18.67-7.308
		c3.522-5.526,1.428-20.383-3.514-20.947c-7.956-0.908-16.874-4.33-23.57,3.762c-2.866,3.464-5.208,3.419-9.033,0.555
		c-4.674-3.5-8.806-1.86-13.182,2.76c-5.75,6.069-10.786,11.583-8.25,19.102C118.91,385.603,118.202,388.896,119.094,391.675z
		 M436.535,67.121c-3.105,3.19-1.787,9.459-7.651,10.126c0.435,2.216-1.295,5.217,1.219,6.528c1.894,0.987,5.361,1.694,6.634,0.669
		c6.113-4.922,14.578-8.283,14.288-18.268C445.95,62.629,441.866,61.644,436.535,67.121z"/>
</g>
</svg>
