<?xml version="1.0" encoding="iso-8859-1"?>
<!-- Generator: Adobe Illustrator 18.1.1, SVG Export Plug-In . SVG Version: 6.00 Build 0)  -->
<!DOCTYPE svg PUBLIC "-//W3C//DTD SVG 1.1//EN" "http://www.w3.org/Graphics/SVG/1.1/DTD/svg11.dtd">
<svg version="1.1" xmlns="http://www.w3.org/2000/svg" xmlns:xlink="http://www.w3.org/1999/xlink" x="0px" y="0px"
	 viewBox="0 0 512 512" enable-background="new 0 0 512 512" xml:space="preserve">
<g id="Layer_2">
	<path fill="#D9DDE8" d="M467,69.76C467,56.142,455.858,45,442.24,45H66.951c-12.256,0-22.284,10.028-22.284,22.284v377.764
		c0,12.256,10.028,22.284,22.284,22.284H442.24c13.618,0,24.76-11.142,24.76-24.76V69.76z"/>
</g>
<g id="Layer_3">
	<path fill="#132028" d="M371,154.504c0-7.427-6.077-13.504-13.504-13.504H152.82c-6.684,0-12.154,5.469-12.154,12.154V359.18
		c0,6.684,5.469,12.154,12.154,12.154h204.676c7.427,0,13.504-6.077,13.504-13.504V154.504z"/>
</g>
</svg>
