<?xml version="1.0" encoding="iso-8859-1"?>
<!-- Generator: Adobe Illustrator 18.1.1, SVG Export Plug-In . SVG Version: 6.00 Build 0)  -->
<!DOCTYPE svg PUBLIC "-//W3C//DTD SVG 1.1//EN" "http://www.w3.org/Graphics/SVG/1.1/DTD/svg11.dtd">
<svg version="1.1" xmlns="http://www.w3.org/2000/svg" xmlns:xlink="http://www.w3.org/1999/xlink" x="0px" y="0px"
	 viewBox="0 0 512 512" enable-background="new 0 0 512 512" xml:space="preserve">
<g id="Layer_2">
	<path fill="#7B95A3" d="M255.561,162.361c-4.539,0-9.078-1.731-12.542-5.195L115.954,30.102c-6.926-6.926-6.926-18.157,0-25.083
		c6.927-6.926,18.156-6.926,25.083,0l127.064,127.065c6.927,6.926,6.927,18.157,0,25.083
		C264.639,160.63,260.1,162.361,255.561,162.361z M170.523,254.745c6.926-6.926,6.926-18.157,0-25.083L43.459,102.597
		c-6.927-6.927-18.156-6.927-25.083,0c-6.926,6.926-6.926,18.157,0,25.083L145.44,254.745c3.463,3.463,8.002,5.195,12.542,5.195
		S167.06,258.208,170.523,254.745z"/>
</g>
<g id="Layer_1">
</g>
</svg>
