<?xml version="1.0" encoding="iso-8859-1"?>
<!-- Generator: Adobe Illustrator 18.1.1, SVG Export Plug-In . SVG Version: 6.00 Build 0)  -->
<!DOCTYPE svg PUBLIC "-//W3C//DTD SVG 1.1//EN" "http://www.w3.org/Graphics/SVG/1.1/DTD/svg11.dtd">
<svg version="1.1" xmlns="http://www.w3.org/2000/svg" xmlns:xlink="http://www.w3.org/1999/xlink" x="0px" y="0px"
	 viewBox="0 0 512 512" enable-background="new 0 0 512 512" xml:space="preserve">
<g id="Layer_2">
	<path fill="#ADB8BC" d="M205.504,438.735L54.186,285.036c-18.786-19.082-18.786-49.708,0-68.79L205.504,62.546
		c30.772-31.257,83.962-9.467,83.962,34.395V404.34C289.467,448.202,236.277,469.992,205.504,438.735z"/>
</g>
<g id="Layer_3">
	<path fill="#597B91" d="M126.442,359.044H36.574c-15.84,0-28.8-12.96-28.8-28.8V171.038c0-15.84,12.96-28.8,28.8-28.8h89.869
		V359.044z"/>
</g>
<g id="Layer_4">
	<path fill="#7D9DAF" d="M364.817,369.361c-4.336,0-8.579-2.15-11.075-6.082c-3.878-6.11-2.07-14.207,4.04-18.087
		c25.883-16.43,44.359-44.487,49.423-75.05c6.99-42.19-12.698-86.263-48.992-109.671c-6.082-3.923-7.832-12.032-3.909-18.114
		c3.921-6.083,12.03-7.835,18.115-3.91c44.944,28.987,69.314,83.633,60.641,135.978c-6.264,37.803-29.154,72.53-61.231,92.893
		C369.65,368.701,367.219,369.361,364.817,369.361z M415.092,405.49c42.775-27.153,73.3-73.467,81.654-123.89
		c11.564-69.796-20.938-142.665-80.876-181.322c-6.085-3.925-14.194-2.173-18.115,3.91c-3.923,6.082-2.173,14.192,3.909,18.114
		c51.288,33.078,79.107,95.374,69.227,155.015c-7.155,43.183-33.266,82.828-69.846,106.048c-6.109,3.878-7.918,11.976-4.04,18.087
		c2.496,3.932,6.739,6.082,11.075,6.082C410.482,407.532,412.913,406.872,415.092,405.49z M335.35,315.638
		c17.855-11.337,30.093-29.896,33.576-50.92c4.758-28.721-8.601-58.696-33.243-74.588c-6.081-3.922-14.192-2.172-18.114,3.91
		c-3.923,6.082-2.173,14.192,3.91,18.115c15.989,10.312,24.667,29.714,21.592,48.279c-2.233,13.476-10.371,25.841-21.768,33.078
		c-6.11,3.879-7.918,11.978-4.04,18.087c2.497,3.932,6.739,6.082,11.075,6.082C330.742,317.68,333.172,317.02,335.35,315.638z"/>
</g>
</svg>
