<?xml version="1.0" encoding="iso-8859-1"?>
<!-- Generator: Adobe Illustrator 18.1.1, SVG Export Plug-In . SVG Version: 6.00 Build 0)  -->
<!DOCTYPE svg PUBLIC "-//W3C//DTD SVG 1.1//EN" "http://www.w3.org/Graphics/SVG/1.1/DTD/svg11.dtd">
<svg version="1.1" xmlns="http://www.w3.org/2000/svg" xmlns:xlink="http://www.w3.org/1999/xlink" x="0px" y="0px"
	 viewBox="0 0 512 512" enable-background="new 0 0 512 512" xml:space="preserve">
<g id="Layer_5">
	<path fill="#597B91" d="M247.181,258.229l-133.973,79.21c-1.206,0.713-0.7,2.561,0.7,2.561h140.024
		c5.377-14.373,19.231-24.607,35.48-24.607c20.918,0,37.875,16.957,37.875,37.875s-16.957,37.875-37.875,37.875
		c-16.249,0-30.103-10.235-35.48-24.607H113.908c-1.401,0-1.906,1.848-0.7,2.561l133.973,79.21c0.315,0.186,0.691,0.239,1.046,0.148
		l179.232-46.407c0.396-0.103,0.727-0.376,0.901-0.747l14.23-30.278h1.187v-2.525c0.183-0.39,0.158-0.801,0-1.148v-28.162
		c0.158-0.347,0.183-0.758,0-1.148v-0.541h-0.254l-15.163-32.262c-0.174-0.371-0.504-0.644-0.901-0.747l-179.232-46.407
		C247.872,257.99,247.496,258.043,247.181,258.229z"/>
</g>
<g id="Layer_1">
</g>
</svg>
