<svg xmlns="http://www.w3.org/2000/svg" viewBox="0 0 512 512" enable-background="new 0 0 512 512"><path fill="#A3A8A8" d="M203.546 21.676l-42.12 54.685c-5.81 9.27-5.187 21.186 1.555 29.8l8.545 10.918c3.135 4.006 3.323 9.58.465 13.788L85.447 236.048c-4.4 6.477-1.32 15.364 6.144 17.73l22.792 7.227c8.578 2.72 11.005 13.7 4.37 19.782l-9.465 8.678c-4.91 4.502-5.078 12.19-.367 16.902 3.214 3.214 6.173 12.58 4.62 16.852l-14.826 23.243c-.347.545-.644 1.124-.824 1.744-2.263 7.776.215 21.088 5.194 27.052l13.26 15.882c2.166 2.596 3.104 6.003 2.572 9.343l-7.35 43.175C107.086 471.712 119.386 512 256 512s172.58-36.66 172.58-73.445v-122.96c0-9.97-1.873-19.852-5.523-29.13l-9.658-24.547c-1.004-2.548-1.644-5.225-1.903-7.95l-21.592-205.03C386.595 14.09 357.327 0 322.32 0h-79.61c-15.916 0-30.712 8.19-39.164 21.676z"/></svg>