<?xml version="1.0" encoding="iso-8859-1"?>
<!-- Generator: Adobe Illustrator 18.1.1, SVG Export Plug-In . SVG Version: 6.00 Build 0)  -->
<!DOCTYPE svg PUBLIC "-//W3C//DTD SVG 1.1//EN" "http://www.w3.org/Graphics/SVG/1.1/DTD/svg11.dtd">
<svg version="1.1" xmlns="http://www.w3.org/2000/svg" xmlns:xlink="http://www.w3.org/1999/xlink" x="0px" y="0px"
	 viewBox="0 0 512 512" enable-background="new 0 0 512 512" xml:space="preserve">
<g id="Layer_2">
	<path fill="#597B91" d="M460.993,287.048c-59.664,59.664-153.006,65.111-218.828,16.355l-42.233,42.233
		c-9.755,9.755-25.57,9.755-35.325,0c-9.755-9.755-9.755-25.57,0-35.325l42.233-42.233
		c-48.757-65.821-43.309-159.164,16.355-218.828c65.666-65.666,172.132-65.666,237.798,0S526.659,221.381,460.993,287.048z"/>
</g>
<g id="Layer_3">
	<path fill="#B0E9FF" d="M426.53,252.584c-46.632,46.632-122.239,46.632-168.871,0s-46.632-122.239,0-168.871
		s122.239-46.632,168.871,0S473.162,205.952,426.53,252.584z"/>
</g>
<g id="Layer_4">
	<path fill="#2B3B47" d="M26.804,495.001l-13.285-13.285c-16.793-16.793-16.793-44.019,0-60.811l124.593-124.593
		c10.993-10.993,28.815-10.993,39.808,0l34.289,34.289c10.993,10.993,10.993,28.815,0,39.808L87.615,495.001
		C70.823,511.793,43.597,511.793,26.804,495.001z"/>
</g>
</svg>
