<?xml version="1.0" encoding="iso-8859-1"?>
<!-- Generator: Adobe Illustrator 18.1.1, SVG Export Plug-In . SVG Version: 6.00 Build 0)  -->
<!DOCTYPE svg PUBLIC "-//W3C//DTD SVG 1.1//EN" "http://www.w3.org/Graphics/SVG/1.1/DTD/svg11.dtd">
<svg version="1.1" xmlns="http://www.w3.org/2000/svg" xmlns:xlink="http://www.w3.org/1999/xlink" x="0px" y="0px"
	 viewBox="0 0 512 512" enable-background="new 0 0 512 512" xml:space="preserve">
<g id="Layer_7">
	<path fill="#76DFFF" d="M268.641,402.585c-3.072,5.142-9.162,7.993-15.307,6.56c-3.217-0.751-5.916-2.545-7.827-4.941
		c3.545-1.748,6.869-4.384,3.629-7.325c-10.427-9.469-6.047,1.847-18.467,7.372c-2.902,1.189-7.101,2.445-13.54,3.704
		c-10.9,2.132-19.92-1.005-20.994,7.038c0,0,10.159,3.149,18.789,5.163c8.63,2.013,13.151,5.238,21.863,5.101
		c5.842-0.092,28.138,6.354,28.138,6.354s2.944-12.62,4.296-18.414C270.286,408.635,270.714,404.607,268.641,402.585z"/>
</g>
<g id="Layer_1">
</g>
</svg>
