<?xml version="1.0" encoding="iso-8859-1"?>
<!-- Generator: Adobe Illustrator 18.1.1, SVG Export Plug-In . SVG Version: 6.00 Build 0)  -->
<!DOCTYPE svg PUBLIC "-//W3C//DTD SVG 1.1//EN" "http://www.w3.org/Graphics/SVG/1.1/DTD/svg11.dtd">
<svg version="1.1" xmlns="http://www.w3.org/2000/svg" xmlns:xlink="http://www.w3.org/1999/xlink" x="0px" y="0px"
	 viewBox="0 0 512 512" enable-background="new 0 0 512 512" xml:space="preserve">
<g id="Layer_8">
	<path fill="#FF473E" d="M131.323,408.637c-1.082,0-2.181-0.235-3.222-0.732c-3.739-1.782-5.325-6.258-3.542-9.997l49.29-103.387
		l-12.45-11.981c-2.205-2.122-2.899-5.37-1.755-8.208c1.144-2.838,3.896-4.696,6.956-4.696h143.847c2.724,0,5.233,1.477,6.556,3.857
		l68.893,124c1.291,2.323,1.256,5.155-0.092,7.446c-1.348,2.29-3.807,3.696-6.464,3.696h-83.893c-1.939,0-3.804-0.751-5.2-2.096
		L185.239,305.483l-47.141,98.879C136.812,407.06,134.125,408.637,131.323,408.637z M298.468,393.635h68.123l-60.559-109H195.178
		l-3.136,6.578L298.468,393.635z"/>
</g>
<g id="Layer_1">
</g>
</svg>
