<svg xmlns="http://www.w3.org/2000/svg" viewBox="0 0 512 512" enable-background="new 0 0 512 512"><path fill="#2B3B47" d="M109.475 433.86c0 23.422-18.988 42.41-42.41 42.41s-42.412-18.988-42.412-42.41c0-23.424 18.988-42.412 42.41-42.412s42.412 18.988 42.412 42.41zm56.258-42.412c-23.423 0-42.41 18.988-42.41 42.41 0 23.424 18.987 42.412 42.41 42.412s42.41-18.988 42.41-42.41c0-23.424-18.987-42.412-42.41-42.412zm180.534 0c-23.423 0-42.41 18.988-42.41 42.41 0 23.424 18.987 42.412 42.41 42.412s42.41-18.988 42.41-42.41c0-23.424-18.988-42.412-42.41-42.412zm98.668 0c-23.423 0-42.41 18.988-42.41 42.41 0 23.424 18.987 42.412 42.41 42.412s42.41-18.988 42.41-42.41c0-23.424-18.987-42.412-42.41-42.412z"/></svg>