<?xml version="1.0" encoding="iso-8859-1"?>
<!-- Generator: Adobe Illustrator 18.1.1, SVG Export Plug-In . SVG Version: 6.00 Build 0)  -->
<!DOCTYPE svg PUBLIC "-//W3C//DTD SVG 1.1//EN" "http://www.w3.org/Graphics/SVG/1.1/DTD/svg11.dtd">
<svg version="1.1" xmlns="http://www.w3.org/2000/svg" xmlns:xlink="http://www.w3.org/1999/xlink" x="0px" y="0px"
	 viewBox="0 0 512 512" enable-background="new 0 0 512 512" xml:space="preserve">
<g id="Layer_10">
	<path fill="#2B3B47" d="M206.815,214.949v19.458c0,5.696-7.858,9.048-13.649,5.832c-4.044-2.246-8.147-4.958-11.014-7.909
		l-19.652-0.02c-5.154-0.008-8.288-5.68-5.553-10.048l19.673-32.88l8.37,25.334c2.4-1.979,5.201-3.84,7.985-5.487
		C198.731,205.821,206.815,209.165,206.815,214.949z M429.933,232.691c4.343-0.013,7.173-4.568,5.26-8.467l-27.438-55.939
		c-1.687-3.439-5.183-5.618-9.013-5.618h-13.08v70.154L429.933,232.691z"/>
</g>
<g id="Layer_1">
</g>
</svg>
