<?xml version="1.0" encoding="utf-8"?>
<!-- Generator: Adobe Illustrator 18.0.0, SVG Export Plug-In . SVG Version: 6.00 Build 0)  -->
<!DOCTYPE svg PUBLIC "-//W3C//DTD SVG 1.1 Tiny//EN" "http://www.w3.org/Graphics/SVG/1.1/DTD/svg11-tiny.dtd">
<svg version="1.1" baseProfile="tiny" id="Layer_1" xmlns="http://www.w3.org/2000/svg" xmlns:xlink="http://www.w3.org/1999/xlink"
	 x="0px" y="0px" width="511.9px" height="511.9px" viewBox="0 0 511.9 511.9" xml:space="preserve">
<path fill="#2B3B47" d="M307.3,356.7c-1.2-0.9-1.7-0.8-2.4-0.9c-1.1-0.1-2.2,0.1-3.6,0.2c-2.6,0.2-6.4,0.6-10.9,1
	c-2.1,0.1-4.7,0.6-6.6,0.8c-0.4,0-1.3,0-2.6-0.2c-1.3-0.2-2.6-0.3-3.9-0.5c-2.8-0.3-5.7-0.6-8.6-0.9l-4.7-0.4l-1.4,0
	c-0.6,0-0.9-0.1-2.3,0.4c-0.1-0.2-1.7,1.2-1.7,1.8l0,0.1c0.1-0.7-0.2,1-0.1,0.9l0,0.1l0,0.2c0.1,0.4,0.2,0.9,0.3,1.3
	c0.3,1,0.7,1.1,1,1.6c2.8,3.2,5.8,4.3,8.8,5.8c2.9,1.3,6.1,2.2,9.2,2.8c1.4,0.2,2.7,0.3,4.1,0.4l1,0.1l0.2,0l0.5,0l0.5,0l2.1-0.1
	c2.7-0.1,5.3-0.7,7.6-1.4c2.4-0.8,4.5-1.4,6.3-2.5c1.8-0.9,3.4-1.9,4.7-2.9c0.6-0.6,1.2-1.1,1.7-1.5c0.7-0.8,1.1-1.6,1.4-2.2
	c0.3-0.9,0.3-1.1,0.3-1.1l0.1-0.7C308.3,359.1,308.3,357.5,307.3,356.7z M263.9,358.6C263.9,358.6,263.9,358.6,263.9,358.6
	C263.8,358.6,263.8,358.5,263.9,358.6z"/>
</svg>
