<?xml version="1.0" encoding="utf-8"?>
<!-- Generator: Adobe Illustrator 18.0.0, SVG Export Plug-In . SVG Version: 6.00 Build 0)  -->
<!DOCTYPE svg PUBLIC "-//W3C//DTD SVG 1.1 Tiny//EN" "http://www.w3.org/Graphics/SVG/1.1/DTD/svg11-tiny.dtd">
<svg version="1.1" baseProfile="tiny" id="Layer_1" xmlns="http://www.w3.org/2000/svg" xmlns:xlink="http://www.w3.org/1999/xlink"
	 x="0px" y="0px" width="511.9px" height="511.9px" viewBox="0 0 511.9 511.9" xml:space="preserve">
<path fill="#FFD469" d="M255.9,35.3C134,35.3,35.2,134.1,35.2,256c0,3.3,0.1,6.6,0.2,9.9c-12.8,1.7-22.8,12.6-22.8,25.9
	c0,14.5,11.7,26.2,26.2,26.2h5.2c26.8,91.7,111.4,158.7,211.7,158.7c121.8,0,220.6-98.8,220.6-220.6
	C476.5,134.1,377.7,35.3,255.9,35.3z"/>
<path fill="#FFB636" d="M476.2,265.8c0.1-3.3,0.2-6.6,0.2-9.9c0-58.9-23.1-112.5-60.8-152c21.3,34.5,33.6,75.2,33.6,118.8
	c0,125.2-101.5,226.7-226.7,226.7c-43.6,0-84.2-12.3-118.8-33.6c39.6,37.7,93.1,60.8,152,60.8c100.3,0,185-67,211.7-158.7h5.2
	c14.5,0,26.2-11.7,26.2-26.2C499,278.4,489.1,267.5,476.2,265.8z"/>
<path fill="#2B3B47" d="M293.5,314.2h-75.1c-11.9,9.5-19.6,23.2-19.6,38.7c0,19.2,11.7,35.7,28.9,44.6c8.4-4.3,17.9-3,28.3-3
	c10.3,0,19.9-1.4,28.3,3c17.2-8.9,28.9-25.5,28.9-44.6C313.1,337.4,305.4,323.6,293.5,314.2z"/>
<path fill="#FF473E" d="M227.6,397.5c8.4,4.3,17.9,7,28.3,7c10.3,0,19.9-2.7,28.3-7c-8.4-4.3-17.9-3-28.3-3
	C245.6,394.5,236,393.2,227.6,397.5z"/>
<path fill="#F2A74E" d="M402.2,157.7c-2.1,0-4.2-0.9-5.8-2.6c-13.2-15-31.7-19.2-48-11c-3.8,1.9-8.4,0.3-10.3-3.5
	c-1.9-3.8-0.3-8.4,3.5-10.3c22.9-11.4,48.3-5.8,66.4,14.6c2.8,3.2,2.5,8-0.7,10.9C405.8,157.1,404,157.7,402.2,157.7z"/>
<path fill="#F2A74E" d="M115,157.7c-1.8,0-3.6-0.6-5.1-1.9c-3.2-2.8-3.5-7.7-0.7-10.9c18.1-20.4,43.5-26,66.4-14.6
	c3.8,1.9,5.4,6.5,3.5,10.3c-1.9,3.8-6.5,5.4-10.3,3.5c-16.4-8.1-34.8-3.9-48,11C119.3,156.8,117.1,157.7,115,157.7z"/>
<path fill="#2B3B47" d="M180.2,192.6c-5.1-5.1-13.3-5.1-18.4,0l-18.1,18.1l-18.1-18.1c-5.1-5.1-13.3-5.1-18.4,0
	c-5.1,5.1-5.1,13.3,0,18.4l18.1,18.1l-18.1,18.1c-5.1,5.1-5.1,13.3,0,18.4c2.5,2.5,5.9,3.8,9.2,3.8s6.7-1.3,9.2-3.8l18.1-18.1
	l18.1,18.1c2.5,2.5,5.9,3.8,9.2,3.8s6.7-1.3,9.2-3.8c5.1-5.1,5.1-13.3,0-18.4l-18.1-18.1l18.1-18.1
	C185.2,205.9,185.2,197.7,180.2,192.6z"/>
<path fill="#2B3B47" d="M392,229.1l18.1-18.1c5.1-5.1,5.1-13.3,0-18.4c-5.1-5.1-13.3-5.1-18.4,0l-18.1,18.1l-18.1-18.1
	c-5.1-5.1-13.3-5.1-18.4,0c-5.1,5.1-5.1,13.3,0,18.4l18.1,18.1L337,247.2c-5.1,5.1-5.1,13.3,0,18.4c2.5,2.5,5.9,3.8,9.2,3.8
	c3.3,0,6.7-1.3,9.2-3.8l18.1-18.1l18.1,18.1c2.5,2.5,5.9,3.8,9.2,3.8c3.3,0,6.7-1.3,9.2-3.8c5.1-5.1,5.1-13.3,0-18.4L392,229.1z"/>
<path fill="#FFFFFF" d="M293,314.2c-9.9-7.5-22.8-12-37-12c-14.2,0-27.2,4.5-37,12H293z"/>
</svg>
