<?xml version="1.0" encoding="iso-8859-1"?>
<!-- Generator: Adobe Illustrator 18.1.0, SVG Export Plug-In . SVG Version: 6.00 Build 0)  -->
<!DOCTYPE svg PUBLIC "-//W3C//DTD SVG 1.1//EN" "http://www.w3.org/Graphics/SVG/1.1/DTD/svg11.dtd">
<svg version="1.1" xmlns="http://www.w3.org/2000/svg" xmlns:xlink="http://www.w3.org/1999/xlink" x="0px" y="0px"
	 viewBox="0 0 512 512" enable-background="new 0 0 512 512" xml:space="preserve">
<g id="Layer_2">
	<path fill="#B1B8BC" d="M359.247,283.623c-1.117-1.641-2.974-2.623-4.959-2.623H256h-98.288c-1.985,0-3.842,0.982-4.959,2.623
		L6.383,498.625C3.671,502.607,6.524,508,11.342,508H256h244.658c4.818,0,7.67-5.393,4.959-9.375L359.247,283.623z"/>
</g>
<g id="Layer_3">
	<polygon fill="#89999B" points="332.431,337 256,337 179.569,337 63.154,508 256,508 448.846,508 	"/>
</g>
<g id="Layer_4">
	<path fill="#606E72" d="M465.213,508L344.951,331.349c11.341-6.523,21.437-14.968,29.842-24.891L357.461,281H256H154.539
		l-17.332,25.458c8.405,9.923,18.501,18.368,29.842,24.891L46.787,508h37.502l112.26-164.896c8.473,2.043,17.318,3.136,26.419,3.136
		h66.066c9.101,0,17.945-1.093,26.419-3.136L427.711,508H465.213z"/>
</g>
<g id="Layer_5">
	<path fill="#7DC437" d="M282.734,324.181h-53.469c-65.526,0-118.644-53.119-118.644-118.644V83.823c0-27.835,22.565-50.4,50.4-50.4
		h189.958c27.835,0,50.4,22.565,50.4,50.4v121.713C401.379,271.062,348.26,324.181,282.734,324.181z"/>
</g>
<g id="Layer_6">
	<path fill="#575A5B" d="M253.862,53.838c-6.612,0-11.972-5.36-11.972-11.972V13.181c0-6.612,5.36-11.972,11.972-11.972
		s11.973,5.36,11.973,11.972v28.685C265.835,48.479,260.475,53.838,253.862,53.838z"/>
</g>
<g id="Layer_7">
	<path fill="#8CA3AF" d="M272.248,43.865h-36.772c-5.767,0-10.441-4.675-10.441-10.441s4.675-10.441,10.441-10.441h36.772
		c5.767,0,10.441,4.675,10.441,10.441S278.015,43.865,272.248,43.865z"/>
</g>
<g id="Layer_8">
	<path fill="#E5E4DF" d="M307.527,271.361H204.473c-51.833,0-93.852-42.019-93.852-93.852V83.823c0-27.835,22.565-50.4,50.4-50.4
		h189.958c27.835,0,50.4,22.565,50.4,50.4v93.686C401.379,229.342,359.36,271.361,307.527,271.361z"/>
</g>
<g id="Layer_9">
	<path fill="#8CA3AF" d="M317.311,273.252H194.689c-22.174,0-40.15-17.976-40.15-40.15v-98.21h202.923v98.21
		C357.461,255.276,339.485,273.252,317.311,273.252z"/>
</g>
<g id="Layer_10">
	<path fill="#59CAFC" d="M297.986,206.253h-83.971c-32.848,0-59.476-26.628-59.476-59.476v-34.171c0-27.835,22.565-50.4,50.4-50.4
		h102.123c27.835,0,50.4,22.565,50.4,50.4v34.171C357.461,179.625,330.833,206.253,297.986,206.253z"/>
</g>
<g id="Layer_11">
	<path fill="#575A5B" d="M357.461,105.306H154.539v0c0-23.804,19.297-43.101,43.101-43.101h116.721
		C338.165,62.206,357.461,81.503,357.461,105.306L357.461,105.306z"/>
</g>
<g id="Layer_12">
	<path fill="#8CA3AF" d="M272.248,94.197h-36.772c-5.767,0-10.441-4.675-10.441-10.441s4.675-10.441,10.441-10.441h36.772
		c5.767,0,10.441,4.675,10.441,10.441S278.015,94.197,272.248,94.197z"/>
</g>
<g id="Layer_13">
	<path fill="#FFD469" d="M210.096,239.388c0,12.432-10.078,22.51-22.51,22.51s-22.51-10.078-22.51-22.51s10.078-22.51,22.51-22.51
		S210.096,226.956,210.096,239.388z M324.414,216.878c-12.432,0-22.51,10.078-22.51,22.51s10.078,22.51,22.51,22.51
		s22.51-10.078,22.51-22.51S336.846,216.878,324.414,216.878z"/>
</g>
<g id="Layer_14">
	<path fill="#B1B8BC" d="M328,378.739H189.32c-10.217,0-18.5-8.283-18.5-18.5s8.283-18.5,18.5-18.5H328
		c10.217,0,18.5,8.283,18.5,18.5S338.217,378.739,328,378.739z M386.122,425.62c0-10.217-8.283-18.5-18.5-18.5h-225
		c-10.217,0-18.5,8.283-18.5,18.5s8.283,18.5,18.5,18.5h225C377.839,444.12,386.122,435.837,386.122,425.62z M412.921,508
		c4.658-3.36,7.701-8.819,7.701-15c0-10.217-8.283-18.5-18.5-18.5h-294c-10.217,0-18.5,8.283-18.5,18.5
		c0,6.181,3.043,11.64,7.701,15H256H412.921z"/>
</g>
</svg>
