<svg xmlns="http://www.w3.org/2000/svg" viewBox="0 0 512 512" enable-background="new 0 0 512 512"><path fill="#C4C5C6" d="M113.374 507.188h-12.68c-7.952 0-14.4-6.447-14.4-14.4v-69.312c0-7.953 6.448-14.4 14.4-14.4h12.68c7.953 0 14.4 6.447 14.4 14.4v69.312c0 7.953-6.448 14.4-14.4 14.4zm172.005-14.4v-69.312c0-7.953-6.448-14.4-14.4-14.4H258.3c-7.953 0-14.4 6.447-14.4 14.4v69.312c0 7.953 6.447 14.4 14.4 14.4h12.68c7.952 0 14.4-6.447 14.4-14.4zm157.605 0v-69.312c0-7.953-6.447-14.4-14.4-14.4h-12.68c-7.952 0-14.4 6.447-14.4 14.4v69.312c0 7.953 6.448 14.4 14.4 14.4h12.68c7.953 0 14.4-6.447 14.4-14.4z"/></svg>