<?xml version="1.0" encoding="iso-8859-1"?>
<!-- Generator: Adobe Illustrator 18.1.1, SVG Export Plug-In . SVG Version: 6.00 Build 0)  -->
<!DOCTYPE svg PUBLIC "-//W3C//DTD SVG 1.1//EN" "http://www.w3.org/Graphics/SVG/1.1/DTD/svg11.dtd">
<svg version="1.1" xmlns="http://www.w3.org/2000/svg" xmlns:xlink="http://www.w3.org/1999/xlink" x="0px" y="0px"
	 viewBox="0 0 512 512" enable-background="new 0 0 512 512" xml:space="preserve">
<g id="Layer_11">
	<path fill="#8A8D8E" d="M256.047,179.803c0,0,0.558-0.061,1.605-0.174c1.047-0.103,2.583-0.303,4.537-0.468
		c1.955-0.168,4.328-0.414,7.051-0.602c2.723-0.198,5.794-0.461,9.145-0.64c3.351-0.188,6.981-0.452,10.821-0.594
		c3.84-0.15,7.889-0.39,12.078-0.49c4.189-0.114,8.518-0.233,12.917-0.353c4.399-0.051,8.868-0.103,13.337-0.154
		c4.469-0.089,8.938,0.018,13.337,0.017c2.2,0.019,4.382,0.008,6.538,0.052c2.156,0.051,4.286,0.101,6.381,0.15
		c2.095,0.049,4.155,0.098,6.171,0.145c2.017,0.082,3.989,0.161,5.91,0.239c1.921,0.079,3.789,0.156,5.596,0.23
		c1.807,0.103,3.553,0.203,5.229,0.298c1.676,0.098,3.283,0.192,4.81,0.281c1.528,0.115,2.977,0.224,4.339,0.326
		c2.724,0.19,5.099,0.409,7.055,0.594c1.956,0.165,3.493,0.362,4.54,0.473c1.048,0.117,1.607,0.179,1.607,0.179l0.424,0.047
		c1.91,0.213,3.285,1.934,3.072,3.844c-0.199,1.779-1.723,3.094-3.472,3.093c0,0-8.938-0.036-22.345-0.09
		c-13.407,0.011-31.283,0.025-49.158,0.04c-17.875,0.11-35.751,0.219-49.157,0.302c-13.406,0.142-22.344,0.236-22.344,0.236
		c-1.923,0.02-3.498-1.522-3.518-3.444c-0.019-1.803,1.336-3.3,3.09-3.497L256.047,179.803z"/>
</g>
<g id="Layer_1">
</g>
</svg>
