<?xml version="1.0" encoding="utf-8"?>
<!-- Generator: Adobe Illustrator 18.0.0, SVG Export Plug-In . SVG Version: 6.00 Build 0)  -->
<!DOCTYPE svg PUBLIC "-//W3C//DTD SVG 1.1 Tiny//EN" "http://www.w3.org/Graphics/SVG/1.1/DTD/svg11-tiny.dtd">
<svg version="1.1" baseProfile="tiny" id="Layer_1" xmlns="http://www.w3.org/2000/svg" xmlns:xlink="http://www.w3.org/1999/xlink"
	 x="0px" y="0px" width="511.9px" height="511.9px" viewBox="0 0 511.9 511.9" xml:space="preserve">
<path fill="#00B89C" d="M255.6,35.3C133.8,35.3,35,134.1,35,255.9c0,3,0.1,6,0.2,9c-12.7,1.8-22.5,12.6-22.5,25.8
	c0,14.5,11.7,26.2,26.2,26.2h4.7c26.5,92.1,111.3,159.6,212,159.6c121.8,0,220.6-98.8,220.6-220.6
	C476.2,134.1,377.5,35.3,255.6,35.3z"/>
<path fill="#009E83" d="M476.2,264.9c0.1-3,0.2-6,0.2-9c0-58.9-23.1-112.5-60.8-152c21.3,34.5,33.6,75.2,33.6,118.8
	c0,125.2-101.5,226.7-226.7,226.7c-43.6,0-84.2-12.3-118.8-33.6c39.6,37.7,93.1,60.8,152,60.8c100.7,0,185.5-67.4,212-159.6h5
	c14.5,0,26.2-11.7,26.2-26.2C499,277.5,489.1,266.6,476.2,264.9z"/>
<path fill="#009E83" d="M366.2,211.4C366.2,211.4,366.2,211.4,366.2,211.4c-13.2,0-25.6-5.6-34.3-15.4c-2.8-3.1-2.5-8,0.7-10.7
	c3.1-2.8,7.9-2.5,10.7,0.7c5.8,6.5,14.1,10.3,22.9,10.3c0,0,0,0,0,0c8.8,0,17.1-3.7,22.9-10.3c2.8-3.1,7.6-3.4,10.7-0.6
	c3.1,2.8,3.4,7.6,0.6,10.7C391.8,205.8,379.3,211.4,366.2,211.4z"/>
<path fill="#009E83" d="M117.5,163.9c-1.8,0-3.6-0.6-5-1.9c-3.1-2.8-3.4-7.6-0.6-10.7c8.7-9.8,21.2-15.4,34.3-15.4c0,0,0,0,0,0
	c13.1,0,25.6,5.6,34.3,15.4c2.8,3.1,2.5,8-0.7,10.7c-3.1,2.8-8,2.5-10.7-0.7c-5.8-6.5-14.1-10.3-22.9-10.3c0,0,0,0,0,0
	c-8.8,0-17.1,3.7-22.9,10.3C121.7,163,119.6,163.9,117.5,163.9z"/>
<path fill="#009E83" d="M365.5,301.1c-8.5,0-16.9-1.9-24.8-5.6c-4.1-1.9-5.8-6.8-3.9-10.9c1.9-4.1,6.8-5.8,10.9-3.9
	c11.6,5.5,25.1,5.3,36.9-0.5c4-2,8.9-0.4,11,3.7c2,4,0.3,8.9-3.7,11C383.5,299,374.4,301.1,365.5,301.1z"/>
<path fill="#2B3B47" d="M322.7,340.4c-4-3.1-9.8-2.2-12.9,1.8c-5.6,7.5-14.1,11.8-23.3,11.8c-9.2,0-17.7-4.3-23.3-11.8
	c-9.1-12.1-23-19.1-38-19.1c-15,0-28.8,7-38,19.1c-3.1,4.1-2.2,9.8,1.8,12.9c4.1,3.1,9.8,2.2,12.9-1.8c5.6-7.5,14.1-11.8,23.3-11.8
	c9.2,0,17.7,4.3,23.3,11.8c0,0,0,0,0,0c9.1,12.1,23,19.1,38,19.1c0,0,0,0,0,0c15,0,28.8-7,38-19.1
	C327.5,349.2,326.7,343.5,322.7,340.4z"/>
<path fill="#009E83" d="M254.9,403.9c-8.5,0-16.9-1.9-24.8-5.6c-4.1-1.9-5.8-6.8-3.9-10.9c1.9-4.1,6.8-5.8,10.9-3.9
	c11.7,5.5,25.1,5.3,36.9-0.5c4-2,8.9-0.4,11,3.7c2,4,0.4,8.9-3.7,11C272.9,401.8,263.9,403.9,254.9,403.9z"/>
<path fill="#2B3B47" d="M146.1,184.6c13.4,0,24.2,10.8,24.2,24.2v54.3c0,13.4-10.8,8.3-24.2,8.3l0,0c-13.4,0-24.2,5.1-24.2-8.3
	v-54.3C121.9,195.5,132.7,184.6,146.1,184.6L146.1,184.6z"/>
<path fill="#2B3B47" d="M399.3,251c-0.1-0.9-0.3-1.9-0.7-2.8c-6.1-13.7-18.5-22.1-32.3-22.1c-13.9,0-26.3,8.5-32.3,22.1
	c-0.4,0.9-0.6,1.8-0.7,2.8c-1.7,4-0.9,8.7,2.5,11.7c4.2,3.7,10.7,3.4,14.4-0.9c4.1-4.6,10-7.2,16.2-7.2c0,0,0,0,0,0
	c6.2,0,12.1,2.6,16.2,7.2c2,2.3,4.8,3.4,7.7,3.4c2.4,0,4.8-0.8,6.8-2.6C400.2,259.6,401,254.9,399.3,251z"/>
<path fill="#009E83" d="M124.1,282.4c-3,0-5.9-1.7-7.3-4.5c-2-4-0.4-8.9,3.7-11c16.3-8.1,35-8.4,51.2-0.7c4.1,1.9,5.8,6.8,3.9,10.9
	c-1.9,4.1-6.8,5.8-10.9,3.9c-11.6-5.5-25.1-5.3-36.9,0.5C126.6,282.1,125.3,282.4,124.1,282.4z"/>
</svg>
