<?xml version="1.0" encoding="utf-8"?>
<!-- Generator: Adobe Illustrator 18.0.0, SVG Export Plug-In . SVG Version: 6.00 Build 0)  -->
<!DOCTYPE svg PUBLIC "-//W3C//DTD SVG 1.1 Tiny//EN" "http://www.w3.org/Graphics/SVG/1.1/DTD/svg11-tiny.dtd">
<svg version="1.1" baseProfile="tiny" id="Layer_1" xmlns="http://www.w3.org/2000/svg" xmlns:xlink="http://www.w3.org/1999/xlink"
	 x="0px" y="0px" width="511.9px" height="511.9px" viewBox="0 0 511.9 511.9" xml:space="preserve">
<path fill="#FFD469" d="M255.9,35.3C134,35.3,35.2,134.1,35.2,256c0,3.3,0.1,6.6,0.2,9.9c-12.8,1.7-22.8,12.6-22.8,25.9
	c0,14.5,11.7,26.2,26.2,26.2h5.2c26.8,91.7,111.4,158.7,211.7,158.7c121.8,0,220.6-98.8,220.6-220.6
	C476.5,134.1,377.7,35.3,255.9,35.3z"/>
<path fill="#FFB636" d="M476.2,265.8c0.1-3.3,0.2-6.6,0.2-9.9c0-58.9-23.1-112.5-60.8-152c21.3,34.5,33.6,75.2,33.6,118.8
	c0,125.2-101.5,226.7-226.7,226.7c-43.6,0-84.2-12.3-118.8-33.6c39.6,37.7,93.1,60.8,152,60.8c100.3,0,185-67,211.7-158.7h5.2
	c14.5,0,26.2-11.7,26.2-26.2C499,278.4,489.1,267.5,476.2,265.8z"/>
<path fill="#2B3B47" d="M254.5,386.4c-33,0-59.3-7.4-60.4-7.7c-5.9-1.7-9.2-7.8-7.6-13.6c1.7-5.9,7.8-9.2,13.6-7.6
	c0.2,0.1,24.5,6.9,54.3,6.9c30,0,54.1-6.8,54.3-6.9c5.9-1.7,12,1.7,13.6,7.6c1.7,5.9-1.7,12-7.6,13.6
	C313.7,379,287.5,386.4,254.5,386.4z"/>
<path fill="#2B3B47" d="M394.6,260.6c-4.2-3.7-10.7-3.3-14.4,0.9c-4.1,4.6-10,7.2-16.2,7.2c-6.2,0-12.1-2.6-16.2-7.2
	c-3.7-4.2-10.2-4.6-14.4-0.9c-3.4,3-4.2,7.7-2.5,11.7c0.1,0.9,0.3,1.9,0.7,2.8c6.1,13.7,18.5,22.1,32.3,22.1
	c13.9,0,26.3-8.5,32.3-22.1c0.4-0.9,0.6-1.8,0.7-2.8C398.8,268.3,398,263.6,394.6,260.6z"/>
<path fill="#2B3B47" d="M175.7,260.6c-4.2-3.7-10.7-3.4-14.4,0.9c-4.1,4.6-10,7.2-16.2,7.2h0c-6.2,0-12.1-2.6-16.2-7.2
	c-3.7-4.2-10.2-4.6-14.4-0.9c-3.4,3-4.2,7.7-2.5,11.7c0.1,0.9,0.3,1.9,0.7,2.8c6.1,13.7,18.5,22.1,32.3,22.1
	c13.9,0,26.3-8.5,32.3-22.1c0.4-0.9,0.6-1.8,0.7-2.8C179.9,268.3,179.1,263.6,175.7,260.6z"/>
</svg>
