<?xml version="1.0" encoding="utf-8"?>
<!-- Generator: Adobe Illustrator 18.0.0, SVG Export Plug-In . SVG Version: 6.00 Build 0)  -->
<!DOCTYPE svg PUBLIC "-//W3C//DTD SVG 1.1 Tiny//EN" "http://www.w3.org/Graphics/SVG/1.1/DTD/svg11-tiny.dtd">
<svg version="1.1" baseProfile="tiny" id="Layer_1" xmlns="http://www.w3.org/2000/svg" xmlns:xlink="http://www.w3.org/1999/xlink"
	 x="0px" y="0px" width="511.9px" height="511.9px" viewBox="0 0 511.9 511.9" xml:space="preserve">
<path fill="#009AAF" d="M125,187.5c-8.9,0-17.7-2.6-25.2-7.6c-3.5-2.3-4.5-7.1-2.2-10.7c2.3-3.6,7.1-4.5,10.7-2.2
	c7.2,4.8,16.2,6.2,24.7,4c8.5-2.3,15.6-8,19.4-15.8c1.9-3.8,6.5-5.3,10.3-3.4c3.8,1.9,5.3,6.5,3.4,10.3
	c-5.9,11.7-16.5,20.4-29.2,23.8C133,187,129,187.5,125,187.5z"/>
<path fill="#009AAF" d="M381.5,187.5c-4,0-8-0.5-12-1.6c-12.7-3.4-23.3-12.1-29.2-23.8c-1.9-3.8-0.4-8.4,3.4-10.3
	c3.8-1.9,8.4-0.4,10.3,3.5c3.9,7.8,10.9,13.5,19.4,15.8c8.5,2.3,17.5,0.8,24.7-4c3.6-2.3,8.3-1.4,10.7,2.2c2.3,3.5,1.4,8.3-2.2,10.7
	C399.2,185,390.4,187.5,381.5,187.5z"/>
</svg>
