<?xml version="1.0" encoding="utf-8"?>
<!-- Generator: Adobe Illustrator 18.0.0, SVG Export Plug-In . SVG Version: 6.00 Build 0)  -->
<!DOCTYPE svg PUBLIC "-//W3C//DTD SVG 1.1 Tiny//EN" "http://www.w3.org/Graphics/SVG/1.1/DTD/svg11-tiny.dtd">
<svg version="1.1" baseProfile="tiny" id="Layer_1" xmlns="http://www.w3.org/2000/svg" xmlns:xlink="http://www.w3.org/1999/xlink"
	 x="0px" y="0px" width="511.9px" height="511.9px" viewBox="0 0 511.9 511.9" xml:space="preserve">
<path fill="#F2A74E" d="M169.7,173c-1.7,0-3.4-0.5-4.8-1.7c-11-8.8-27.5-8.8-38.4,0c-3.3,2.6-8.1,2.1-10.7-1.2
	c-2.6-3.3-2.1-8.1,1.2-10.7c16.7-13.4,40.8-13.3,57.5,0c3.3,2.6,3.8,7.4,1.2,10.7C174.1,172.1,171.9,173,169.7,173z"/>
<path fill="#F2A74E" d="M365.3,212.9c-10.2,0-20.4-3.3-28.7-10c-3.3-2.6-3.8-7.4-1.2-10.7c2.6-3.3,7.4-3.8,10.7-1.2
	c11.1,8.9,27.3,8.9,38.4,0c3.3-2.6,8.1-2.1,10.7,1.2c2.6,3.3,2.1,8.1-1.2,10.7C385.7,209.6,375.5,212.9,365.3,212.9z"/>
<path fill="#F2A74E" d="M123.7,305.7c-2.8,0-5.5-1.5-6.8-4.2c-1.9-3.8-0.3-8.3,3.4-10.2c16.2-8,34.7-8.3,50.7-0.7
	c3.8,1.8,5.4,6.3,3.6,10.1c-1.8,3.8-6.3,5.4-10.1,3.6c-11.8-5.6-25.4-5.4-37.4,0.5C126,305.4,124.8,305.7,123.7,305.7z"/>
<path fill="#F2A74E" d="M343.3,305.7c-2.8,0-5.5-1.5-6.8-4.2c-1.9-3.8-0.3-8.3,3.4-10.2c16.2-8,34.7-8.3,50.7-0.7
	c3.8,1.8,5.4,6.3,3.6,10.1c-1.8,3.8-6.3,5.4-10.1,3.6c-11.8-5.6-25.4-5.4-37.4,0.5C345.6,305.4,344.4,305.7,343.3,305.7z"/>
</svg>
