<?xml version="1.0" encoding="utf-8"?>
<!-- Generator: Adobe Illustrator 18.1.0, SVG Export Plug-In . SVG Version: 6.00 Build 0)  -->
<!DOCTYPE svg PUBLIC "-//W3C//DTD SVG 1.0//EN" "http://www.w3.org/TR/2001/REC-SVG-20010904/DTD/svg10.dtd">
<svg version="1.0" id="Layer_1" xmlns="http://www.w3.org/2000/svg" xmlns:xlink="http://www.w3.org/1999/xlink" x="0px" y="0px"
	 width="72px" height="72px" viewBox="0 0 72 72" enable-background="new 0 0 72 72" xml:space="preserve">
<path fill="#FFD8CA" d="M52.2,59.8c-4.1,0-7.4-3.3-7.5-7.3c0,0,0,0,0,0v-9.5v-2.6V38h0c-0.2-4.7-4.1-8.4-8.8-8.4
	c-0.4,0-0.8,0-1.2,0.1c-0.1,0-0.2,0-0.3,0c-0.4,0.1-0.8,0.1-1.1,0.3c0,0,0,0,0,0c-0.4,0.1-0.7,0.3-1.1,0.4c0,0-0.1,0-0.1,0.1
	c-0.4,0.2-0.7,0.4-1,0.6c0,0,0,0,0,0c-0.3,0.2-0.5,0.4-0.8,0.6c0,0-0.1,0.1-0.1,0.1c-0.2,0.2-0.4,0.4-0.6,0.6c0,0-0.1,0.1-0.1,0.1
	c-0.2,0.2-0.4,0.4-0.6,0.7c0,0,0,0,0,0.1c-0.2,0.3-0.4,0.5-0.5,0.8c0,0,0,0,0,0c-0.1,0.3-0.3,0.5-0.4,0.8c0,0.1-0.1,0.2-0.1,0.2
	c-0.1,0.2-0.2,0.4-0.2,0.6c0,0.1-0.1,0.2-0.1,0.3c-0.1,0.2-0.1,0.4-0.2,0.7c0,0.1,0,0.2-0.1,0.3c-0.1,0.3-0.1,0.6-0.1,1h0v0.2
	c0,0.1,0,0.2,0,0.2s0,0.2,0,0.2v1.6v8.8c-9,0.7-18.5-1.3-22.3-8.3c-0.1-0.2-0.1-0.4-0.1-0.6h0c0,0.2,0,0.4,0.1,0.6
	c7.1,14.6,18.1,22.8,33.8,23.2c0,0,0.1,0,0.1,0.1c0.1,0,1.3,0,1.3,0c0,0,0,0,0.1,0c0,0,0,0,0,0c0,0,1.8,0,1.9,0c0.1,0,0.2,0,0.3,0
	c5.2-0.2,9.7-1.1,13.5-4.3H52.2z"/>
<g>
	<path fill="#FFAF8F" d="M35.8,53.2c-1.4,0-2.8-0.3-4.1-0.9C31,52,30.7,51.2,31,50.6s1.1-0.9,1.7-0.6c2,0.9,4.3,0.9,6.3-0.1
		c0.6-0.3,1.4-0.1,1.7,0.6c0.3,0.6,0.1,1.4-0.6,1.7C38.8,52.9,37.3,53.2,35.8,53.2z"/>
</g>
<path fill="#2B3B47" d="M35.9,37.1c1.9,0,3.4,1.5,3.4,3.4v4.3c0,1.9-1.5,3.4-3.4,3.4l0,0c-1.9,0-3.4-1.5-3.4-3.4v-4.3
	C32.5,38.6,34,37.1,35.9,37.1L35.9,37.1z"/>
<g>
	<path fill="#FFAF8F" d="M38.7,38.4c-2.6,0-5.1-1.5-6.2-3.9c-0.3-0.6,0-1.4,0.6-1.7c0.6-0.3,1.4,0,1.7,0.6c0.9,1.9,3.2,2.9,5.2,2.2
		c0.7-0.2,1.4,0.2,1.6,0.8c0.2,0.7-0.2,1.4-0.8,1.6C40,38.3,39.3,38.4,38.7,38.4z"/>
</g>
<path fill="#FF6F1F" d="M60,44.8h-2.7c0-1.3,0-2.6,0-2.7c0-11-6.4-20.6-16.1-23.5C40.5,13.7,38.5,3.8,34.9,4
	c-3.3,0.2-3.3,8.7-3,13.9c-1.6,0.2-3.1,0.5-4.6,0.9C26,15.1,22.1,5.9,18.3,7c-3.3,0.9-1.4,10.1,0.1,15.7c-5.5,3.7-9.8,9.3-13.5,17
	c-0.2,0.4-0.2,0.8,0,1.2c3.8,6.9,13.3,9,22.3,8.3V38.6c0-0.1,0-0.2,0-0.2s0-0.2,0-0.2V38h0c0.1-2.9,1.6-5.4,3.9-6.9
	c0.3-0.2,0.7-0.4,1-0.6c0,0,0.1,0,0.1-0.1c0.4-0.2,0.7-0.3,1.1-0.4c0,0,0,0,0,0c0.4-0.1,0.8-0.2,1.1-0.3c0.1,0,0.2,0,0.3,0
	c0.4-0.1,0.8-0.1,1.2-0.1c4.7,0,8.5,3.7,8.8,8.4h0v4.9v9.5c0,0,0,0,0,0c0.1,4.1,3.4,7.3,7.5,7.3h5.2c4.1,0,7.5-3.4,7.5-7.5
	S64.2,44.8,60,44.8z"/>
<path fill="#2B3B47" d="M62,45.2c0,0,0.8,0,1.6,0.1c2.9,0,1.6,5.6,1.6,5.6s-0.2,0.4-0.5,0.7c-0.2,0.1-0.3,0.3-0.5,0.3
	c-0.2,0-0.4,0.2-0.6,0.1c-0.2,0-0.4-0.1-0.6-0.1c-0.2-0.1-0.4-0.3-0.5-0.4c-0.3-0.3-0.5-0.6-0.5-0.6L60.3,48c-0.5-0.9-0.2-2,0.6-2.6
	C61.3,45.2,61.6,45.2,62,45.2z"/>
<path fill="#2B3B47" d="M62.2,54.2c-1.3-0.1-2.7,0.6-4,2.1c-0.3,0.3-0.3,0.8,0.1,1.1c0.1,0.1,0.3,0.2,0.5,0.2c0.2,0,0.4-0.1,0.6-0.3
	c0.9-1.1,1.9-1.6,2.7-1.6c0,0,0.1,0,0.1,0c0.7,0,1.2,0.5,1.5,0.7c0.3-0.4,0.5-0.9,0.7-1.4C63.8,54.7,63.1,54.2,62.2,54.2z"/>
<path fill="#2B3B47" d="M18.3,22.7C16.9,17.1,15,7.9,18.3,7c-4.8,1.3-5.4,18.1-5.5,20.6C14.5,25.7,16.3,24,18.3,22.7z"/>
<path fill="#2B3B47" d="M27.3,18.7c1.4-0.4,3-0.7,4.6-0.9c-0.3-5.2-0.2-13.7,3-13.9c-3.2,0.2-6.3,8.3-8,13.6
	C27.1,18,27.2,18.4,27.3,18.7z"/>
</svg>
