<?xml version="1.0" encoding="utf-8"?>
<!-- Generator: Adobe Illustrator 18.0.0, SVG Export Plug-In . SVG Version: 6.00 Build 0)  -->
<!DOCTYPE svg PUBLIC "-//W3C//DTD SVG 1.1 Tiny//EN" "http://www.w3.org/Graphics/SVG/1.1/DTD/svg11-tiny.dtd">
<svg version="1.1" baseProfile="tiny" id="Layer_1" xmlns="http://www.w3.org/2000/svg" xmlns:xlink="http://www.w3.org/1999/xlink"
	 x="0px" y="0px" width="511.9px" height="511.9px" viewBox="0 0 511.9 511.9" xml:space="preserve">
<path fill="#2B3B47" d="M293.5,314.2h-75.1c-11.9,9.5-19.6,23.2-19.6,38.7c0,19.2,11.7,35.7,28.9,44.6c8.4-4.3,17.9-3,28.3-3
	c10.3,0,19.9-1.4,28.3,3c17.2-8.9,28.9-25.5,28.9-44.6C313.1,337.4,305.4,323.6,293.5,314.2z"/>
<path fill="#2B3B47" d="M180.2,192.6c-5.1-5.1-13.3-5.1-18.4,0l-18.1,18.1l-18.1-18.1c-5.1-5.1-13.3-5.1-18.4,0
	c-5.1,5.1-5.1,13.3,0,18.4l18.1,18.1l-18.1,18.1c-5.1,5.1-5.1,13.3,0,18.4c2.5,2.5,5.9,3.8,9.2,3.8s6.7-1.3,9.2-3.8l18.1-18.1
	l18.1,18.1c2.5,2.5,5.9,3.8,9.2,3.8s6.7-1.3,9.2-3.8c5.1-5.1,5.1-13.3,0-18.4l-18.1-18.1l18.1-18.1
	C185.2,205.9,185.2,197.7,180.2,192.6z"/>
<path fill="#2B3B47" d="M392,229.1l18.1-18.1c5.1-5.1,5.1-13.3,0-18.4c-5.1-5.1-13.3-5.1-18.4,0l-18.1,18.1l-18.1-18.1
	c-5.1-5.1-13.3-5.1-18.4,0c-5.1,5.1-5.1,13.3,0,18.4l18.1,18.1L337,247.2c-5.1,5.1-5.1,13.3,0,18.4c2.5,2.5,5.9,3.8,9.2,3.8
	c3.3,0,6.7-1.3,9.2-3.8l18.1-18.1l18.1,18.1c2.5,2.5,5.9,3.8,9.2,3.8c3.3,0,6.7-1.3,9.2-3.8c5.1-5.1,5.1-13.3,0-18.4L392,229.1z"/>
</svg>
