<?xml version="1.0" encoding="utf-8"?>
<!-- Generator: Adobe Illustrator 18.0.0, SVG Export Plug-In . SVG Version: 6.00 Build 0)  -->
<!DOCTYPE svg PUBLIC "-//W3C//DTD SVG 1.1 Tiny//EN" "http://www.w3.org/Graphics/SVG/1.1/DTD/svg11-tiny.dtd">
<svg version="1.1" baseProfile="tiny" id="Layer_1" xmlns="http://www.w3.org/2000/svg" xmlns:xlink="http://www.w3.org/1999/xlink"
	 x="0px" y="0px" width="512px" height="512px" viewBox="0 0 512 512" xml:space="preserve">
<path fill="#2B3B47" d="M407.1,143.7c20.9-46.1,54.7-71.2,72.5-81.8c0.1,0,0.1-0.1,0.2-0.1c1.3-0.8,2.5-1.5,3.6-2.1
	c0.1,0,0.2-0.1,0.2-0.1c0.5-0.3,0.9-0.5,1.4-0.7c0.1,0,0.1-0.1,0.2-0.1c0.5-0.3,0.9-0.5,1.4-0.7c0.1,0,0.1-0.1,0.2-0.1
	c0.3-0.2,0.7-0.4,1-0.5c0.1,0,0.2-0.1,0.3-0.1c0.3-0.2,0.7-0.3,1-0.5c0.1,0,0.1-0.1,0.2-0.1c0,0,0,0,0,0c0,0,0.1-0.1,0.1-0.1
	c0,0,0,0,0,0c0-0.1,0-0.1,0-0.2c0,0,0,0,0,0c0-0.1,0-0.1-0.1-0.2c-0.1-0.2-0.3-0.4-0.5-0.4c-40.2-0.4-79.1,20.5-101.2,57.5
	c-2.3,3.8-4.3,8.1-6,12.7C390.4,131.1,398.9,137.1,407.1,143.7z"/>
<path fill="#2B3B47" d="M105.1,143.7C84.2,97.6,50.4,72.5,32.6,61.9c-0.1,0-0.1-0.1-0.2-0.1c-1.3-0.8-2.5-1.5-3.6-2.1
	c-0.1,0-0.2-0.1-0.2-0.1c-0.5-0.3-0.9-0.5-1.4-0.7c-0.1,0-0.1-0.1-0.2-0.1c-0.5-0.3-0.9-0.5-1.4-0.7c-0.1,0-0.1-0.1-0.2-0.1
	c-0.3-0.2-0.7-0.4-1-0.5c-0.1,0-0.2-0.1-0.3-0.1c-0.3-0.2-0.7-0.3-1-0.5c-0.1,0-0.1-0.1-0.2-0.1c0,0,0,0,0,0c0,0-0.1-0.1-0.1-0.1
	c0,0,0,0,0,0c0-0.1,0-0.1,0-0.2c0,0,0,0,0,0c0-0.1,0-0.1,0.1-0.2c0.1-0.2,0.3-0.4,0.5-0.4c40.2-0.4,79.1,20.5,101.2,57.5
	c2.3,3.8,4.3,8.1,6,12.7C121.7,131.1,113.2,137.1,105.1,143.7z"/>
<path fill="#2B3B47" d="M255.6,422.3c-15.8,0-28.6,2.1-28.6-8.9v-5.7c0-11.1,12.8-20.1,28.6-20.1l0,0c15.8,0,28.6,9,28.6,20.1v5.7
	C284.2,424.4,271.4,422.3,255.6,422.3L255.6,422.3z"/>
<path fill="#2B3B47" d="M234.3,317.8c0,0,0.7,0,1.9,0.1c1.2,0.1,2.9,0.2,4.9,0.2c2,0.1,4.4,0.1,7,0.2c2.5,0,5.3,0.1,8,0.1
	c2.7,0,5.4,0,8-0.1c2.5,0,4.9-0.1,7-0.2c2-0.1,3.7-0.2,4.9-0.2c1.2-0.1,1.9-0.1,1.9-0.1c8.5-0.8,16.1,5.5,16.8,14
	c0.4,4.2-1,8.2-3.5,11.3l-13.4,16.1c0,0-0.2,0.2-0.5,0.5c-0.3,0.3-0.8,0.8-1.4,1.3c-0.6,0.5-1.3,1.1-2.1,1.6
	c-0.8,0.6-1.8,1.1-2.8,1.7c-1,0.5-2.1,1-3.3,1.5c-1.2,0.4-2.4,0.8-3.7,1.1c-2.5,0.6-5.3,0.8-8,0.7c-1.4-0.1-2.7-0.2-4.1-0.4
	c-0.7-0.1-1.3-0.2-2-0.3c-0.7-0.1-1.3-0.3-1.9-0.4c-0.6-0.1-1.3-0.4-1.9-0.5c-0.6-0.2-1.2-0.4-1.8-0.6c-0.6-0.2-1.2-0.4-1.7-0.7
	c-0.5-0.2-1.1-0.5-1.6-0.7c-0.5-0.3-1-0.5-1.5-0.8c-0.5-0.3-0.9-0.5-1.3-0.8c-0.8-0.5-1.5-1-2.1-1.5c-0.6-0.4-1.1-0.9-1.4-1.1
	c-0.3-0.3-0.5-0.5-0.5-0.5l-12.9-13.3c-6.4-6.6-6.2-17,0.3-23.4C225.2,319.1,229.8,317.5,234.3,317.8z"/>
<path fill="#2B3B47" d="M123.2,223.4c13.9,0,25.2,11.3,25.2,25.2v56.5c0,13.9-11.3,25.2-25.2,25.2l0,0c-13.9,0-25.2-11.3-25.2-25.2
	v-56.5C97.9,234.7,109.2,223.4,123.2,223.4L123.2,223.4z"/>
<path fill="#2B3B47" d="M388.8,223.4c13.9,0,25.2,11.3,25.2,25.2v56.5c0,13.9-11.3,25.2-25.2,25.2l0,0c-13.9,0-25.2-11.3-25.2-25.2
	v-56.5C363.6,234.7,374.8,223.4,388.8,223.4L388.8,223.4z"/>
</svg>
