<?xml version="1.0" encoding="utf-8"?>
<!-- Generator: Adobe Illustrator 18.0.0, SVG Export Plug-In . SVG Version: 6.00 Build 0)  -->
<!DOCTYPE svg PUBLIC "-//W3C//DTD SVG 1.1 Tiny//EN" "http://www.w3.org/Graphics/SVG/1.1/DTD/svg11-tiny.dtd">
<svg version="1.1" baseProfile="tiny" id="Layer_1" xmlns="http://www.w3.org/2000/svg" xmlns:xlink="http://www.w3.org/1999/xlink"
	 x="0px" y="0px" width="511.9px" height="511.9px" viewBox="0 0 511.9 511.9" xml:space="preserve">
<path fill="#FFD469" d="M255.9,35.3C134,35.3,35.2,134.1,35.2,256c0,3.3,0.1,6.6,0.2,9.9c-12.8,1.7-22.8,12.6-22.8,25.9
	c0,14.5,11.7,26.2,26.2,26.2h5.2c26.8,91.7,111.4,158.7,211.7,158.7c121.8,0,220.6-98.8,220.6-220.6
	C476.5,134.1,377.7,35.3,255.9,35.3z"/>
<path fill="#FFB636" d="M476.2,265.8c0.1-3.3,0.2-6.6,0.2-9.9c0-58.9-23.1-112.5-60.8-152c21.3,34.5,33.6,75.2,33.6,118.8
	c0,125.2-101.5,226.7-226.7,226.7c-43.6,0-84.2-12.3-118.8-33.6c39.6,37.7,93.1,60.8,152,60.8c100.3,0,185-67,211.7-158.7h5.2
	c14.5,0,26.2-11.7,26.2-26.2C499,278.4,489.1,267.5,476.2,265.8z"/>
<path fill="#F2A74E" d="M131.6,186.8c-8.7,0-17.4-2.4-25-7.4c-3.6-2.3-4.5-7.1-2.2-10.7c2.3-3.6,7.1-4.5,10.7-2.2
	c11.6,7.6,28.1,6,38.3-3.8c3.1-2.9,7.9-2.8,10.9,0.2c2.9,3.1,2.8,7.9-0.2,10.9C155.1,182.4,143.3,186.8,131.6,186.8z"/>
<path fill="#F2A74E" d="M374.8,186.9c-11.8,0-23.5-4.4-32.3-13c-3-3-3.1-7.8-0.1-10.9c3-3.1,7.8-3.1,10.9-0.1
	c10.3,10,26.4,11.6,38.3,3.7c3.6-2.3,8.3-1.3,10.7,2.2c2.3,3.5,1.4,8.3-2.2,10.7C392.3,184.4,383.6,186.9,374.8,186.9z"/>
<path fill="#2B3B47" d="M146.5,203.1c-13.4,0-24.2,10.8-24.2,24.2v54.3c0,13.4,10.8,24.2,24.2,24.2c13.4,0,24.2-10.8,24.2-24.2
	v-54.3C170.7,214,159.8,203.1,146.5,203.1z"/>
<path fill="#2B3B47" d="M366.1,203.1c-13.4,0-24.2,10.8-24.2,24.2v54.3c0,13.4,10.8,24.2,24.2,24.2c13.4,0,24.2-10.8,24.2-24.2
	v-54.3C390.3,214,379.5,203.1,366.1,203.1z"/>
<path fill="#2B3B47" d="M258.5,330.4c-39.7,0-56,31.2-57.3,52.2c-0.3,5.6,2.3,10.9,6.8,14.2c4.5,3.3,10.5,4.1,15.7,2.1
	c0.1,0,11.4-4.2,32.7-4.2c22.3,0,38,4.6,38.1,4.7c1.6,0.5,3.2,0.7,4.8,0.7c0,0,0.1,0,0.1,0c9.1,0,16.5-7.4,16.5-16.5
	c0-1.2-0.1-2.4-0.4-3.6C313.1,359.1,296.6,330.4,258.5,330.4z"/>
</svg>
