<?xml version="1.0" encoding="utf-8"?>
<!-- Generator: Adobe Illustrator 18.0.0, SVG Export Plug-In . SVG Version: 6.00 Build 0)  -->
<!DOCTYPE svg PUBLIC "-//W3C//DTD SVG 1.1 Tiny//EN" "http://www.w3.org/Graphics/SVG/1.1/DTD/svg11-tiny.dtd">
<svg version="1.1" baseProfile="tiny" id="Layer_1" xmlns="http://www.w3.org/2000/svg" xmlns:xlink="http://www.w3.org/1999/xlink"
	 x="0px" y="0px" width="511.9px" height="512.3px" viewBox="0 0 511.9 512.3" xml:space="preserve">
<path fill="#FFA1E0" d="M466.9,222.8c-18.7-9.5-41.6-2-51,16.8l-0.4,0.8l-74.9,148.1c-20.8-5.6-48.7-9-85.9-9
	c-31.6,0-56,1.9-74.9,5.3l-69.8-146.3c-8.3-17.2-28.4-25.9-46.9-19.5C43.4,226,33,247.7,40,267.5l0.3,0.8l69.2,196.8
	c0.6,1.6,1.3,3.3,2,4.9c2.3,4.8,5.3,9.1,8.8,12.8c8.3,26.1,67.8,29.1,140.1,29.1c71.8,0,131-2.9,139.9-28.6
	c4.7-4.8,8.5-10.5,11-17.2l0.4-1l73.5-195C492,252.3,484.3,231.7,466.9,222.8z"/>
<path fill="#68442A" d="M395.1,131.2C395.1,57,331,0.9,256.8,0.9c-74.2,0-130.4,56.2-130.4,130.4l2.6,38.7l0.5,80.9c0,0,0,0,0.1,0
	c1.2,41.4,17.9,84.3,17.9,84.3c0,21.2,233.9,21.2,233.9,0c0,0,3.6-7.5,6.8-40.2C395.7,240.8,395.1,131.2,395.1,131.2z"/>
<path fill="#FFD3B6" d="M377.6,192.8l1.7-26.1c-32.7-2.9-118.7-26-165.3-72.5c-0.6-0.6-1.1-1.1-1.6-1.7
	c-28.1,40.2-61.1,89.8-64.7,106.7c0,18.3,0,39,0,55.3c2.8,41.5,27.9,76.8,63.3,94.1v55.4c0,13.5,21.9,24.4,48.8,24.4
	s48.8-10.9,48.8-24.4c0-1.5-0.3-3-0.8-4.4v-49.8c39-17.9,66.1-57.3,66.1-103l0.2-3.7c1.1,0.1,2.2,0.2,3.3,0.2
	c13.9,0,25.2-11.3,25.2-25.2C402.7,204.1,391.5,192.9,377.6,192.8z"/>
<path fill="#E5AB83" d="M260.1,261.2C260.1,261.2,260.1,261.2,260.1,261.2c-8.5,0-16.2-4.2-20.6-11.3c-1.5-2.3-0.8-5.4,1.6-6.9
	c2.3-1.5,5.4-0.8,6.9,1.6c2.6,4.1,7.2,6.6,12.2,6.6c0,0,0,0,0,0c5.1,0,9.6-2.5,12.3-6.6c1.5-2.3,4.5-3,6.9-1.5
	c2.3,1.5,3,4.5,1.5,6.9C276.3,257,268.6,261.2,260.1,261.2z"/>
<path fill="#2B3B47" d="M198.8,197.9c-0.5-6.5-5.9-11.6-12.5-11.6c-6.6,0-12,5.1-12.5,11.6h-0.1v17.8h0c0,0,0,0,0,0
	c0,7,5.7,12.6,12.6,12.6c7,0,12.6-5.7,12.6-12.6c0,0,0,0,0,0v0v-17.8H198.8z"/>
<path fill="#FFFFFF" d="M184.8,197.2c-0.1-1.5-1.4-2.8-3-2.8c-1.6,0-2.9,1.2-3,2.8h0v4.3h0v0c0,1.7,1.4,3,3,3c1.7,0,3-1.4,3-3v0l0,0
	L184.8,197.2L184.8,197.2z"/>
<path fill="#2B3B47" d="M346.9,197.9c-0.6-6.5-5.9-11.6-12.5-11.6c-6.6,0-12,5.1-12.5,11.6h-0.2v17.8h0.1c0,0,0,0,0,0
	c0,7,5.7,12.6,12.6,12.6c7,0,12.6-5.7,12.6-12.6c0,0,0,0,0,0v0v-17.8H346.9z"/>
<path fill="#FFFFFF" d="M332.8,197.2c-0.1-1.5-1.4-2.8-3-2.8c-1.6,0-2.9,1.2-3,2.8h0v4.3h0v0c0,1.7,1.4,3,3,3c1.7,0,3-1.4,3-3v0l0,0
	L332.8,197.2L332.8,197.2z"/>
<path fill="#EDC0A2" d="M250.6,348.2c-25.9,0-49.9-7.9-69.9-21.3c20.5,20.5,48.8,33.1,80,33.1c62.5,0,113.3-50.7,113.3-113.2
	l0.4-5.7C365.6,301.6,313.6,348.2,250.6,348.2z"/>
<path fill="#2B3B47" d="M312.1,288.8c-0.7-1.1-1.9-1.7-3.2-1.7h-97.6c-1.3,0-2.5,0.6-3.2,1.7c-0.7,1.1-0.8,2.4-0.3,3.6
	c0.6,1.3,14.4,31.7,52.2,31.7c37.8,0,51.7-30.4,52.2-31.7C312.9,291.2,312.8,289.8,312.1,288.8z"/>
<path fill="#E5AB83" d="M315.8,168.8c0,0,0.5-0.3,1.3-0.7c0.3-0.2,1.1-0.6,1.9-1c0.8-0.4,1.6-0.7,2.6-1c0.9-0.4,1.9-0.6,3-0.9
	c0.5-0.1,1.1-0.2,1.7-0.3c0.6-0.1,1.1-0.2,1.7-0.2c0.6-0.1,1.2-0.1,1.8-0.2c0.6,0,1.2,0,1.9,0c0.6,0,1.3,0,1.9,0.1
	c0.6,0.1,1.3,0.1,1.9,0.2l1.9,0.3c0.6,0.2,1.2,0.3,1.8,0.5c0.6,0.1,1.2,0.4,1.8,0.6c0.6,0.2,1.2,0.4,1.7,0.7
	c0.5,0.3,1.1,0.6,1.6,0.8c0.5,0.3,1,0.6,1.4,0.9c0.9,0.6,1.7,1.3,2.4,2c0.7,0.6,1.2,1.3,1.8,1.9c0.5,0.6,0.9,1.1,1.2,1.6
	c0.6,0.9,0.9,1.4,0.9,1.4c0.8,1.2,0.4,2.8-0.8,3.5c-1.1,0.7-2.5,0.5-3.3-0.5l-0.2-0.3c0,0-0.3-0.4-0.8-1c-0.3-0.3-0.6-0.7-1-1.1
	c-0.4-0.4-0.8-0.9-1.4-1.2c-0.6-0.4-1.2-0.8-1.9-1.2c-0.4-0.2-0.7-0.4-1.1-0.5c-0.4-0.1-0.8-0.3-1.2-0.4c-0.4-0.2-0.8-0.2-1.3-0.4
	c-0.4-0.1-0.9-0.2-1.3-0.3c-0.4-0.1-0.9-0.1-1.4-0.2l-1.4-0.1c-0.5,0-0.9,0-1.4,0c-0.5,0-0.9,0-1.4,0.1c-0.5,0.1-0.9,0.1-1.4,0.2
	c-0.4,0.1-0.9,0.2-1.3,0.3c-0.4,0.1-0.8,0.2-1.2,0.3c-0.4,0.1-0.8,0.2-1.2,0.4c-0.7,0.3-1.4,0.5-2,0.9c-0.6,0.3-1.2,0.6-1.5,0.8
	c-0.4,0.3-0.7,0.4-1.1,0.7c-0.8,0.6-1.2,0.9-1.2,0.9l0,0c-2.1,1.6-5,1.1-6.6-1c-1.6-2.1-1.1-5,1-6.6
	C315.5,169,315.7,168.9,315.8,168.8z"/>
<path fill="#E5AB83" d="M197.2,176.7c0,0-0.4-0.3-1.2-0.9c-0.4-0.4-0.7-0.5-1.1-0.7c-0.3-0.3-0.9-0.5-1.5-0.8
	c-0.6-0.3-1.3-0.6-2-0.9c-0.4-0.1-0.8-0.2-1.2-0.4c-0.4-0.1-0.8-0.3-1.2-0.3c-0.4-0.1-0.9-0.2-1.3-0.3c-0.4-0.1-0.9-0.1-1.4-0.2
	c-0.5-0.1-0.9-0.1-1.4-0.1c-0.5,0-0.9-0.1-1.4,0l-1.4,0.1c-0.5,0.1-0.9,0.1-1.4,0.2c-0.5,0-0.9,0.2-1.3,0.3
	c-0.4,0.1-0.9,0.2-1.3,0.4c-0.4,0.2-0.8,0.3-1.2,0.4c-0.4,0.1-0.7,0.4-1.1,0.5c-0.7,0.3-1.3,0.8-1.9,1.2c-0.6,0.4-1,0.9-1.4,1.2
	c-0.4,0.4-0.8,0.8-1,1.1c-0.5,0.6-0.8,1-0.8,1l-0.2,0.3c-0.9,1.1-2.5,1.2-3.6,0.3c-1-0.8-1.2-2.3-0.5-3.3c0,0,0.3-0.5,0.9-1.4
	c0.3-0.5,0.7-1,1.2-1.6c0.5-0.6,1-1.3,1.8-1.9c0.7-0.6,1.5-1.4,2.4-2c0.5-0.3,0.9-0.7,1.4-0.9c0.5-0.3,1-0.6,1.6-0.8
	c0.5-0.3,1.1-0.5,1.7-0.7c0.6-0.2,1.2-0.5,1.8-0.6c0.6-0.2,1.2-0.3,1.8-0.5l1.9-0.3c0.6-0.1,1.3-0.2,1.9-0.2c0.6,0,1.3-0.1,1.9-0.1
	c0.6,0,1.2,0,1.9,0c0.6,0.1,1.2,0.1,1.8,0.2c0.6,0,1.2,0.1,1.7,0.2c0.6,0.1,1.1,0.2,1.7,0.3c1.1,0.3,2.1,0.5,3,0.9
	c0.9,0.3,1.7,0.6,2.6,1c0.8,0.4,1.6,0.7,1.9,1c0.8,0.5,1.3,0.7,1.3,0.7c2.3,1.3,3.1,4.2,1.8,6.4s-4.2,3.1-6.4,1.8
	C197.6,176.9,197.4,176.8,197.2,176.7L197.2,176.7z"/>
<path fill="#FFD3B6" d="M246.2,4c-27.5-8.1-103.6-6.8-122.8,31.7c-0.7,1.8-1.4,3.7-2,5.5c-1.7,1.9-3.2,4.2-4.1,6.7L45.8,234
	c-0.4,1-0.7,2-1,3c-4.6,16.8,4.7,30.8,22.1,30.8c19.5,0,36-7.4,40.6-24.2c0,0,35.8-188.1,50.3-191.4c21.8-2.1,56-12.8,56-19.2
	c0-15.3-37-0.8-20.1-7.5c16.9-6.7,26.8-7.2,41.3-7.2S256.5,7,246.2,4z"/>
<path fill="#FFD3B6" d="M476.3,236.9c-0.3-1-0.6-2-1-3L404,48c-1-2.6-2.4-4.8-4.1-6.7c-0.6-1.8-1.3-3.7-2-5.5
	C378.6-2.9,302.5-4.1,275,4c-10.3,3-3.1,14.3,11.3,14.3s24.3,0.5,41.3,7.2c16.9,6.7-20.1-7.8-20.1,7.5c0,6.4,34.2,17.1,56,19.2
	c14.4,3.3,50.3,191.4,50.3,191.4c4.6,16.8,21.1,24.2,40.6,24.2C471.7,267.7,480.9,253.7,476.3,236.9z"/>
<path fill="#FFFFFF" d="M259.8,292.8c21.3,0,40.1-2.1,51.4-5.3c-0.6-0.2-1.4-0.4-2.3-0.4h-97.6c-1,0-1.9,0.2-2.6,0.5
	C220.2,290.7,238.8,292.8,259.8,292.8z"/>
<path fill="#FFD3B6" d="M129.2,198.7c-5.5,4.6-9.1,11.6-9.1,19.4c0,7.9,3.6,15,9.3,19.6L129.2,198.7z"/>
</svg>
