<?xml version="1.0" encoding="iso-8859-1"?>
<!-- Generator: Adobe Illustrator 18.1.1, SVG Export Plug-In . SVG Version: 6.00 Build 0)  -->
<!DOCTYPE svg PUBLIC "-//W3C//DTD SVG 1.1//EN" "http://www.w3.org/Graphics/SVG/1.1/DTD/svg11.dtd">
<svg version="1.1" xmlns="http://www.w3.org/2000/svg" xmlns:xlink="http://www.w3.org/1999/xlink" x="0px" y="0px"
	 viewBox="0 0 512 512" enable-background="new 0 0 512 512" xml:space="preserve">
<g id="Layer_16">
	<path fill="#464A4C" d="M347.445,285.606h-64.999c-9.941,0-18-8.059-18-18s8.059-18,18-18h64.999c9.941,0,18,8.059,18,18
		S357.387,285.606,347.445,285.606z M175.598,277.135c0-1.653-0.446-3.203-1.224-4.534h1.318c4.971,0,9-4.029,9-9s-4.029-9-9-9
		h-50.849c-3.327,0-6.383,1.835-7.945,4.772c-1.563,2.938-1.377,6.497,0.481,9.257c1.207,1.791,12.844,17.505,49.218,17.505
		C171.569,286.135,175.598,282.105,175.598,277.135z M131.328,395.963c-2.856,0-5.172,2.315-5.172,5.172s2.315,5.172,5.172,5.172
		c2.856,0,5.172-2.315,5.172-5.172S134.185,395.963,131.328,395.963z M379.338,395.963c-2.856,0-5.172,2.315-5.172,5.172
		s2.315,5.172,5.172,5.172c2.856,0,5.172-2.315,5.172-5.172S382.195,395.963,379.338,395.963z"/>
</g>
<g id="Layer_1">
</g>
</svg>
