<?xml version="1.0" encoding="utf-8"?>
<!-- Generator: Adobe Illustrator 18.0.0, SVG Export Plug-In . SVG Version: 6.00 Build 0)  -->
<!DOCTYPE svg PUBLIC "-//W3C//DTD SVG 1.1 Tiny//EN" "http://www.w3.org/Graphics/SVG/1.1/DTD/svg11-tiny.dtd">
<svg version="1.1" baseProfile="tiny" id="Layer_1" xmlns="http://www.w3.org/2000/svg" xmlns:xlink="http://www.w3.org/1999/xlink"
	 x="0px" y="0px" width="511.9px" height="511.9px" viewBox="0 0 511.9 511.9" xml:space="preserve">
<path fill="#2B3B47" d="M278.6,275.8c-7.3,0.1-14.7,0.3-22.1,0.4c-7.4-0.1-14.8-0.3-22.1-0.4c-7.3,0-14.5-0.7-21.4-1
	c-2.6-0.1-5.1-0.3-7.6-0.5c-22.3,15.5-36.9,40.8-36.9,69.5c0,47.2,39.3,29.7,87.8,29.7c48.5,0,87.8,17.4,87.8-29.7
	c0-28.6-14.6-53.9-36.8-69.4c-2.5,0.2-5,0.4-7.5,0.5C293,275.1,285.9,275.8,278.6,275.8z"/>
<path fill="#2B3B47" d="M177.2,206.1c-0.3-0.9-0.7-1.8-1.2-2.6c-8.3-12.4-22-18.6-35.7-16.2c-13.7,2.4-24.4,12.9-28,27.4
	c-0.2,1-0.3,1.9-0.2,2.8c-1,4.2,0.6,8.7,4.5,11.1c4.8,2.9,11.1,1.4,14-3.4c3.2-5.2,8.6-8.9,14.7-9.9l0,0c6.1-1.1,12.4,0.5,17.2,4.3
	c2.4,1.9,5.4,2.5,8.1,2.1c2.4-0.4,4.6-1.7,6.2-3.7C179.6,214.5,179.5,209.7,177.2,206.1z"/>
<path fill="#2B3B47" d="M398.2,217.6c0-0.9,0-1.9-0.2-2.8c-3.6-14.5-14.3-25-28-27.4c-13.7-2.4-27.3,3.8-35.7,16.2
	c-0.6,0.8-0.9,1.7-1.2,2.6c-2.4,3.6-2.4,8.4,0.4,11.9c3.5,4.4,10,5.2,14.4,1.6c4.8-3.8,11.1-5.4,17.2-4.3c6.1,1.1,11.5,4.7,14.7,10
	c1.6,2.6,4.2,4.2,6.9,4.7c2.4,0.4,4.9,0,7.1-1.4C397.7,226.3,399.3,221.8,398.2,217.6z"/>
</svg>
