<?xml version="1.0" encoding="utf-8"?>
<!-- Generator: Adobe Illustrator 18.1.0, SVG Export Plug-In . SVG Version: 6.00 Build 0)  -->
<!DOCTYPE svg PUBLIC "-//W3C//DTD SVG 1.0//EN" "http://www.w3.org/TR/2001/REC-SVG-20010904/DTD/svg10.dtd">
<svg version="1.0" id="Layer_1" xmlns="http://www.w3.org/2000/svg" xmlns:xlink="http://www.w3.org/1999/xlink" x="0px" y="0px"
	 width="72px" height="72px" viewBox="0 0 72 72" enable-background="new 0 0 72 72" xml:space="preserve">
<g>
	<path fill="#2B3B47" d="M32.9,45.7c0,0,0.4,0,1,0c0.6,0,1.3,0,2.1,0c0.8,0,1.5,0,2.1,0c0.6,0,1-0.1,1-0.1c1.2-0.1,2.3,0.8,2.4,2.1
		c0.1,0.6-0.2,1.3-0.6,1.7l-1.9,2.1c0,0-0.4,0.4-1,0.7c-0.3,0.2-0.6,0.3-1,0.4c-0.2,0.1-0.4,0.1-0.6,0.1c-0.2,0-0.4,0-0.6,0
		c-0.2,0-0.4,0-0.6,0c-0.2,0-0.4-0.1-0.6-0.1c-0.2,0-0.4-0.1-0.5-0.2c-0.2,0-0.3-0.1-0.5-0.2c-0.6-0.3-1-0.6-1-0.6l-1.8-1.8
		c-0.9-0.9-0.9-2.4,0-3.3C31.6,45.9,32.3,45.6,32.9,45.7z"/>
</g>
<path fill="#2B3B47" d="M57.3,20.1c3.6-8,10-11.5,11.5-12.3c0,0,0-0.1,0-0.1c-0.1,0-0.2,0-0.3,0c-0.1,0-0.3,0-0.4,0
	c-0.2,0-0.4,0-0.6,0c-0.1,0-0.1,0-0.2,0c-5.1,0.4-9.5,3.3-12.3,8.1c-0.4,0.6-0.7,1.3-1,1.9C55.2,18.5,56.3,19.2,57.3,20.1z"/>
<path fill="#2B3B47" d="M14.7,20.1c1.1-0.9,2.3-1.8,3.6-2.5c-0.2-0.7-0.5-1.3-0.9-1.8c-3.1-5.2-8.6-8.1-14.2-8.1
	c-0.1,0-0.1,0.1,0,0.2C4.7,8.5,11.1,12.1,14.7,20.1z"/>
<path fill="#2B3B47" d="M13.7,41.9c-0.4,0-0.7-0.1-1-0.4c-0.6-0.6-0.7-1.5-0.1-2.1c1.2-1.3,2.9-2.1,4.7-2.1c0,0,0,0,0,0
	c1.8,0,3.5,0.8,4.7,2.1c0.6,0.6,0.5,1.6-0.1,2.1c-0.6,0.6-1.6,0.5-2.1-0.1c-0.6-0.7-1.5-1.1-2.4-1.1c0,0,0,0,0,0
	c-0.9,0-1.8,0.4-2.4,1.1C14.6,41.7,14.1,41.9,13.7,41.9z"/>
<path fill="#2B3B47" d="M58.2,41.5c-0.6,0-1.1-0.3-1.4-0.9c-0.4-0.9-1.2-1.5-2-1.5l0,0c-0.9,0-1.6,0.6-2,1.5c-0.3,0.8-1.2,1.1-2,0.8
	c-0.8-0.3-1.1-1.2-0.8-2c0.9-2,2.7-3.3,4.8-3.3c0,0,0,0,0,0c2.1,0,3.9,1.3,4.8,3.3c0.3,0.8,0,1.7-0.8,2
	C58.6,41.4,58.4,41.5,58.2,41.5z"/>
<path fill="#2B3B47" d="M38,57.4h-3.1c-0.4,0-0.7-0.3-0.7-0.7s0.3-0.7,0.7-0.7H38c0.3,0,0.6-0.3,0.6-0.6s-0.3-0.6-0.6-0.6
	c-0.4,0-0.7-0.3-0.7-0.7s0.3-0.7,0.7-0.7c1.1,0,1.9,0.9,1.9,1.9S39,57.4,38,57.4z"/>
<path fill="#2B3B47" d="M38,59.9h-3.4c-0.4,0-0.7-0.3-0.7-0.7s0.3-0.7,0.7-0.7H38c0.3,0,0.6-0.3,0.6-0.6c0-0.3-0.3-0.6-0.6-0.6h-3.1
	c-0.4,0-0.7-0.3-0.7-0.7s0.3-0.7,0.7-0.7H38c1.1,0,1.9,0.9,1.9,1.9C39.9,59,39,59.9,38,59.9z"/>
</svg>
