<?xml version="1.0" encoding="utf-8"?>
<!-- Generator: Adobe Illustrator 18.0.0, SVG Export Plug-In . SVG Version: 6.00 Build 0)  -->
<!DOCTYPE svg PUBLIC "-//W3C//DTD SVG 1.1 Tiny//EN" "http://www.w3.org/Graphics/SVG/1.1/DTD/svg11-tiny.dtd">
<svg version="1.1" baseProfile="tiny" id="Layer_1" xmlns="http://www.w3.org/2000/svg" xmlns:xlink="http://www.w3.org/1999/xlink"
	 x="0px" y="0px" width="511.9px" height="511.9px" viewBox="0 0 511.9 511.9" xml:space="preserve">
<path fill="#FF473E" d="M325.4,349.1c-5.6-3.4-17.5-14.3-17.5-14.3s-0.7-0.6-1.8-1.4c-5.7-4.4-10.9-9.5-17.4-12.8
	c-7-3.6-14.9-4.2-22.4-1.7c-3.6,1.2-7.1,3-10.3,5.1c-1,0.7-2.3,0.7-3.3,0.2c-3.1-1.6-9-5-10.1-5.3c-14.9-5-24.3,4.8-34.7,13.5
	c-9.5,6.7-19.2,14.6-22.2,16.6c-5.1,3.5-6.3,10.4-2.7,15.5c9.9,13.7,32.3,36.7,71.7,37v0c0,0,0.5,0,0.7,0l0.1,0l0.1,0
	c0.2,0,0.7,0,0.7,0v0c39.4-0.3,61.8-23.3,71.7-37C331.7,359.6,330.6,352.4,325.4,349.1z"/>
</svg>
