<?xml version="1.0" encoding="iso-8859-1"?>
<!-- Generator: Adobe Illustrator 18.1.0, SVG Export Plug-In . SVG Version: 6.00 Build 0)  -->
<!DOCTYPE svg PUBLIC "-//W3C//DTD SVG 1.1//EN" "http://www.w3.org/Graphics/SVG/1.1/DTD/svg11.dtd">
<svg version="1.1" xmlns="http://www.w3.org/2000/svg" xmlns:xlink="http://www.w3.org/1999/xlink" x="0px" y="0px"
	 viewBox="0 0 512 512" enable-background="new 0 0 512 512" xml:space="preserve">
<g id="Layer_2">
	<path fill="#D5DEE4" d="M104.9,482.499H89.647c-13.382,0-24.23-10.848-24.23-24.23V193.591c0-13.382,10.848-24.23,24.23-24.23
		H104.9c13.382,0,24.23,10.848,24.23,24.23v264.678C129.131,471.651,118.282,482.499,104.9,482.499z M446.584,458.269V193.591
		c0-13.382-10.848-24.23-24.23-24.23H407.1c-13.382,0-24.23,10.848-24.23,24.23v264.678c0,13.382,10.848,24.23,24.23,24.23h15.253
		C435.735,482.499,446.584,471.651,446.584,458.269z"/>
</g>
<g id="Layer_3">
	<path fill="#FFB636" d="M484.148,314H27.852C12.47,314,0,301.53,0,286.148V83.852C0,68.47,12.47,56,27.852,56h456.297
		C499.53,56,512,68.47,512,83.852v202.297C512,301.53,499.53,314,484.148,314z"/>
</g>
<g id="Layer_4">
	<path fill="#2B3B47" d="M512,286.148C512,301.53,499.53,314,484.148,314h-53.793L512,217.816V286.148z M360.859,314L512,135.943
		V83.852c0-9.828-5.095-18.461-12.784-23.418L283.979,314H360.859z M137.602,314h76.88l219-258h-76.88L137.602,314z M210.225,56
		L3.457,299.59C8.201,308.18,17.345,314,27.852,314h40.254l219-258H210.225z M0,131.219v90.571L140.728,56h-76.88L0,131.219z"/>
</g>
</svg>
