<?xml version="1.0" encoding="utf-8"?>
<!-- Generator: Adobe Illustrator 18.0.0, SVG Export Plug-In . SVG Version: 6.00 Build 0)  -->
<!DOCTYPE svg PUBLIC "-//W3C//DTD SVG 1.1 Tiny//EN" "http://www.w3.org/Graphics/SVG/1.1/DTD/svg11-tiny.dtd">
<svg version="1.1" baseProfile="tiny" id="Layer_1" xmlns="http://www.w3.org/2000/svg" xmlns:xlink="http://www.w3.org/1999/xlink"
	 x="0px" y="0px" width="511.9px" height="511.9px" viewBox="0 0 511.9 511.9" xml:space="preserve">
<path fill="#FFD469" d="M255.9,35.3C134,35.3,35.2,134.1,35.2,256c0,3.3,0.1,6.6,0.2,9.9c-12.8,1.7-22.8,12.6-22.8,25.9
	c0,14.5,11.7,26.2,26.2,26.2h5.2c26.8,91.7,111.4,158.7,211.7,158.7c121.8,0,220.6-98.8,220.6-220.6
	C476.5,134.1,377.7,35.3,255.9,35.3z"/>
<path fill="#2B3B47" d="M255.9,358c-32.9,0-45,18.2-46.3,20.3c-3,4.8-2.7,11,0.7,15.6c3.4,4.6,9.2,6.6,14.7,5.2c0.1,0,11.8-3,30.8-3
	c19,0,30.8,3,30.9,3c1.2,0.3,2.4,0.5,3.6,0.5c7.6,0,14-6.2,14-13.9c0-3.8-1.5-7.2-3.9-9.7C296,370.4,283,358,255.9,358z"/>
<path fill="#2B3B47" d="M398,286.9c0-0.1-0.1-0.2-0.1-0.2c-0.1-0.2-0.2-0.3-0.3-0.4c-0.1-0.2-0.2-0.4-0.4-0.6
	c-1.7-2.3-4.1-3.8-6.8-4.2l-41.5-15.1c-2.7-1.6-6-2.1-9.1-0.8c-5.3,2.1-7.9,8.1-5.8,13.4c4.5,11.3,13.6,20.2,25,24.3
	c4.7,1.7,9.7,2.6,14.6,2.6c6,0,12-1.3,17.5-3.9c3.4-0.7,6.4-3,7.7-6.5C399.8,292.5,399.5,289.4,398,286.9z"/>
<path fill="#2B3B47" d="M165.1,265.2c-2-0.8-4-0.9-5.9-0.5c-1.4-0.1-2.8,0.1-4.3,0.6l-43.7,15.9c-5.4,1.9-8.1,7.9-6.2,13.2
	c1.2,3.3,3.9,5.5,7,6.4c6,3.1,12.6,4.7,19.3,4.7c4.9,0,9.9-0.9,14.6-2.6c11.4-4.2,20.6-13,25-24.3
	C173,273.3,170.4,267.3,165.1,265.2z"/>
<path fill="#FFB636" d="M476.2,265.8c0.1-3.3,0.2-6.6,0.2-9.9c0-58.9-23.1-112.5-60.8-152c21.3,34.5,33.6,75.2,33.6,118.8
	c0,125.2-101.5,226.7-226.7,226.7c-43.6,0-84.2-12.3-118.8-33.6c39.6,37.7,93.1,60.8,152,60.8c100.3,0,185-67,211.7-158.7h5.2
	c14.5,0,26.2-11.7,26.2-26.2C499,278.4,489.1,267.5,476.2,265.8z"/>
</svg>
