<?xml version="1.0" encoding="utf-8"?>
<!-- Generator: Adobe Illustrator 18.1.0, SVG Export Plug-In . SVG Version: 6.00 Build 0)  -->
<!DOCTYPE svg PUBLIC "-//W3C//DTD SVG 1.0//EN" "http://www.w3.org/TR/2001/REC-SVG-20010904/DTD/svg10.dtd">
<svg version="1.0" id="Layer_1" xmlns="http://www.w3.org/2000/svg" xmlns:xlink="http://www.w3.org/1999/xlink" x="0px" y="0px"
	 width="72px" height="72px" viewBox="0 0 72 72" enable-background="new 0 0 72 72" xml:space="preserve">
<path fill="#FF473E" d="M61.2,34.4c-1.4-1.7-3.9-1.9-5.5-0.5c-0.2,0.1-0.3,0.3-0.4,0.5c-0.1-0.2-0.2-0.4-0.4-0.5
	c-1.4-1.7-3.9-1.9-5.5-0.5c-1.7,1.4-1.9,3.9-0.5,5.5c0.2,0.2,0.4,0.4,0.6,0.6l5,4.8v0l0,0l6.3-4.3C62.3,38.5,62.5,36,61.2,34.4z"/>
<path fill="#FF473E" d="M17,33.8c-0.1,0.2-0.3,0.3-0.4,0.5c-0.1-0.2-0.3-0.3-0.4-0.5c-1.7-1.4-4.1-1.2-5.5,0.5s-1.2,4.1,0.5,5.5
	c0.2,0.2,0.4,0.3,0.7,0.5l5.7,3.8l0,0l0,0l5.5-5.3c1.4-1.7,1.2-4.1-0.5-5.5C20.9,31.9,18.4,32.2,17,33.8z"/>
</svg>
