<?xml version="1.0" encoding="utf-8"?>
<!-- Generator: Adobe Illustrator 18.0.0, SVG Export Plug-In . SVG Version: 6.00 Build 0)  -->
<!DOCTYPE svg PUBLIC "-//W3C//DTD SVG 1.1 Tiny//EN" "http://www.w3.org/Graphics/SVG/1.1/DTD/svg11-tiny.dtd">
<svg version="1.1" baseProfile="tiny" id="Layer_1" xmlns="http://www.w3.org/2000/svg" xmlns:xlink="http://www.w3.org/1999/xlink"
	 x="0px" y="0px" width="511.9px" height="511.9px" viewBox="0 0 511.9 511.9" xml:space="preserve">
<path fill="#2B3B47" d="M146,204.5c13.4,0,24.2,10.8,24.2,24.2v54.3c0,13.4-10.8,6.6-24.2,6.6l0,0c-13.4,0-24.2,6.8-24.2-6.6v-54.3
	C121.8,215.4,132.6,204.5,146,204.5L146,204.5z"/>
<path fill="#2B3B47" d="M365.8,204.5c13.4,0,24.2,10.8,24.2,24.2v54.3c0,13.4-10.8,6.6-24.2,6.6l0,0c-13.4,0-24.2,6.8-24.2-6.6
	v-54.3C341.6,215.4,352.5,204.5,365.8,204.5L365.8,204.5z"/>
<path fill="#2B3B47" d="M291.2,370.1h-70.4c-5,0-9.4-3.4-10.7-8.2c-1.3-4.9,0.9-10,5.3-12.4c24.9-14,56.4-14,81.3,0
	c4.4,2.5,6.5,7.6,5.3,12.4C300.6,366.7,296.2,370.1,291.2,370.1z"/>
</svg>
