<?xml version="1.0" encoding="iso-8859-1"?>
<!-- Generator: Adobe Illustrator 18.1.1, SVG Export Plug-In . SVG Version: 6.00 Build 0)  -->
<!DOCTYPE svg PUBLIC "-//W3C//DTD SVG 1.1//EN" "http://www.w3.org/Graphics/SVG/1.1/DTD/svg11.dtd">
<svg version="1.1" xmlns="http://www.w3.org/2000/svg" xmlns:xlink="http://www.w3.org/1999/xlink" x="0px" y="0px"
	 viewBox="0 0 512 512" enable-background="new 0 0 512 512" xml:space="preserve">
<g id="Layer_2">
	<path fill="#597B91" d="M509.167,31.832c0-16.316-13.35-29.666-29.666-29.666H29.866c-14.685,0-26.699,12.015-26.699,26.699
		v452.602c0,14.685,12.015,26.699,26.699,26.699h449.635c16.316,0,29.666-13.35,29.666-29.666V31.832z"/>
</g>
<g id="Layer_3">
	<path fill="#2B5770" d="M479.501,488.082H29.866c-14.684,0-26.699-12.015-26.699-26.699v20.085
		c0,14.685,12.015,26.699,26.699,26.699h449.635c16.316,0,29.666-13.35,29.666-29.666v-20.085
		C509.167,474.732,495.817,488.082,479.501,488.082z"/>
</g>
<g id="Layer_4">
	<path fill="#FFFFFF" d="M107.281,220.547l78.713-20.707c3.051-0.91,5.143-3.716,5.143-6.9V64.73c0-4.818-4.64-8.276-9.257-6.9
		l-78.713,20.707c-3.051,0.91-5.143,3.716-5.143,6.9v128.21C98.024,218.465,102.664,221.923,107.281,220.547z"/>
</g>
<g id="Layer_5">
	<circle fill="#FFFFFF" cx="356.243" cy="150.765" r="57.31"/>
</g>
<g id="Layer_6">
	<path fill="#FFFFFF" d="M416.865,235.945c-3.415-6.436-10.177-10.823-17.971-10.823H273.926c-0.375,0-0.741,0.036-1.111,0.056
		c-0.176,0.008-0.352,0.017-0.528,0.027c-0.197,0.016-0.396,0.024-0.591,0.045c-25.045,1.718-44.9,22.628-44.9,48.101
		c0,13.065-3.592,30.139-20.701,37.277c-15.319,6.392-41.449,3.728-62.618-17.226c-7.983-7.901-20.862-7.836-28.765,0.147
		c-7.902,7.984-7.836,20.862,0.147,28.765c29.952,29.646,72.912,40.039,106.899,25.856c29.054-12.122,45.717-39.393,45.717-74.82
		c0-4.162,3.386-7.549,7.549-7.549c4.162,0,7.549,3.387,7.549,7.549v112.834c0,1.106,0.112,2.184,0.283,3.243v41.338
		c0,14.542,11.789,26.331,26.331,26.331h94.109c14.542,0,26.331-11.789,26.331-26.331V265.048
		C429.628,253.537,424.71,243.178,416.865,235.945z"/>
</g>
<g id="Layer_7">
	<path fill="#597B91" d="M421.117,138.817H297.558c-4.701,0-8.511-3.811-8.511-8.511v-5.519c0-4.701,3.811-8.511,8.511-8.511
		h123.559c4.701,0,8.511,3.811,8.511,8.511v5.519C429.628,135.006,425.818,138.817,421.117,138.817z"/>
</g>
<g id="Layer_8">
	<path fill="#FFFFFF" d="M413.016,83.078c0-5.611-4.549-10.16-10.16-10.16H319.36c-5.611,0-10.16,4.549-10.16,10.16v13.92h-18.153
		c-4.523,0-8.19,3.667-8.19,8.19v6.162c0,4.523,3.667,8.19,8.19,8.19h113.779c4.523,0,8.19-3.667,8.19-8.19v-6.162
		c0-0.067-0.008-0.131-0.01-0.197h0.01V83.078z"/>
</g>
<g id="Layer_9">
	<path fill="#597B91" d="M163.423,257.14l-78.567-23.423c-3.452-1.029-5.818-4.203-5.818-7.805V80.884
		c0-5.45,5.249-9.362,10.471-7.805l78.567,23.423c3.452,1.029,5.818,4.203,5.818,7.805v145.028
		C173.895,254.785,168.646,258.697,163.423,257.14z"/>
</g>
<g id="Layer_10">
	<path fill="#FFFFFF" d="M153.637,246.468l-69.456-20.707c-3.051-0.91-5.143-3.716-5.143-6.9V90.652c0-4.818,4.64-8.276,9.257-6.9
		l69.456,20.707c3.051,0.91,5.143,3.716,5.143,6.9v128.21C162.895,244.386,158.255,247.845,153.637,246.468z"/>
</g>
<g id="Layer_11">
	<path fill="#597B91" d="M256.877,472.502c-4.159,0-8.357-1.263-11.987-3.884c-9.178-6.63-11.244-19.444-4.614-28.622l200-276.882
		c6.63-9.18,19.443-11.244,28.622-4.614c9.178,6.629,11.244,19.444,4.614,28.622l-200,276.882
		C269.505,469.553,263.236,472.502,256.877,472.502z"/>
</g>
</svg>
