<svg xmlns="http://www.w3.org/2000/svg" viewBox="0 0 512 512" enable-background="new 0 0 512 512"><path fill="#2B3B47" d="M136.005 501.552h-23.53c-13.18 0-23.867-10.686-23.867-23.868v-49.2c0-13.183 10.686-23.87 23.868-23.87h23.53c13.18 0 23.867 10.687 23.867 23.87v49.2c0 13.182-10.686 23.868-23.868 23.868zm284.42-23.868v-49.2c0-13.183-10.685-23.87-23.867-23.87h-23.53c-13.18 0-23.867 10.687-23.867 23.87v49.2c0 13.182 10.687 23.868 23.87 23.868h23.528c13.182 0 23.868-10.686 23.868-23.868z"/></svg>