<?xml version="1.0" encoding="utf-8"?>
<!-- Generator: Adobe Illustrator 18.1.0, SVG Export Plug-In . SVG Version: 6.00 Build 0)  -->
<!DOCTYPE svg PUBLIC "-//W3C//DTD SVG 1.0//EN" "http://www.w3.org/TR/2001/REC-SVG-20010904/DTD/svg10.dtd">
<svg version="1.0" id="Layer_1" xmlns="http://www.w3.org/2000/svg" xmlns:xlink="http://www.w3.org/1999/xlink" x="0px" y="0px"
	 width="72px" height="72px" viewBox="0 0 72 72" enable-background="new 0 0 72 72" xml:space="preserve">
<path fill="#FFD8CA" d="M52.2,59.8c-4.1,0-7.4-3.3-7.5-7.3c0,0,0,0,0,0v-9.5v-2.6V38h0c-0.2-4.7-4.1-8.4-8.8-8.4
	c-0.4,0-0.8,0-1.2,0.1c-0.1,0-0.2,0-0.3,0c-0.4,0.1-0.8,0.1-1.1,0.3c0,0,0,0,0,0c-0.4,0.1-0.7,0.3-1.1,0.4c0,0-0.1,0-0.1,0.1
	c-0.4,0.2-0.7,0.4-1,0.6c0,0,0,0,0,0c-0.3,0.2-0.5,0.4-0.8,0.6c0,0-0.1,0.1-0.1,0.1c-0.2,0.2-0.4,0.4-0.6,0.6c0,0-0.1,0.1-0.1,0.1
	c-0.2,0.2-0.4,0.4-0.6,0.7c0,0,0,0,0,0.1c-0.2,0.3-0.4,0.5-0.5,0.8c0,0,0,0,0,0c-0.1,0.3-0.3,0.5-0.4,0.8c0,0.1-0.1,0.2-0.1,0.2
	c-0.1,0.2-0.2,0.4-0.2,0.6c0,0.1-0.1,0.2-0.1,0.3c-0.1,0.2-0.1,0.4-0.2,0.7c0,0.1,0,0.2-0.1,0.3c-0.1,0.3-0.1,0.6-0.1,1h0v0.2
	c0,0.1,0,0.2,0,0.2s0,0.2,0,0.2v1.6v8.8c-9,0.7-18.5-1.3-22.3-8.3c-0.1-0.2-0.1-0.4-0.1-0.6h0c0,0.2,0,0.4,0.1,0.6
	c7.1,14.6,18.1,22.8,33.8,23.2c0,0,0.1,0,0.1,0.1c0.1,0,1.3,0,1.3,0c0,0,0,0,0.1,0c0,0,0,0,0,0c0,0,1.8,0,1.9,0c0.1,0,0.2,0,0.3,0
	c5.2-0.2,9.7-1.1,13.5-4.3H52.2z"/>
</svg>
