<?xml version="1.0" encoding="utf-8"?>
<!-- Generator: Adobe Illustrator 18.0.0, SVG Export Plug-In . SVG Version: 6.00 Build 0)  -->
<!DOCTYPE svg PUBLIC "-//W3C//DTD SVG 1.1 Tiny//EN" "http://www.w3.org/Graphics/SVG/1.1/DTD/svg11-tiny.dtd">
<svg version="1.1" baseProfile="tiny" id="Layer_1" xmlns="http://www.w3.org/2000/svg" xmlns:xlink="http://www.w3.org/1999/xlink"
	 x="0px" y="0px" width="513px" height="511.9px" viewBox="0 0 513 511.9" xml:space="preserve">
<path fill="#2B3B47" d="M194.6,238.9c-0.6-7.4-6.8-13.3-14.4-13.3c-7.6,0-13.7,5.8-14.4,13.3h-0.2v20.4h0.1c0,0,0,0,0,0.1
	c0,8,6.5,14.5,14.5,14.5c8,0,14.5-6.5,14.5-14.5c0,0,0,0,0-0.1h0v-20.4H194.6z"/>
<path fill="#2B3B47" d="M350.9,238.9c-0.6-7.4-6.8-13.3-14.4-13.3c-7.6,0-13.7,5.8-14.4,13.3H322v20.4h0.1c0,0,0,0,0,0.1
	c0,8,6.5,14.5,14.5,14.5c8,0,14.5-6.5,14.5-14.5c0,0,0,0,0-0.1l0,0v-20.4H350.9z"/>
</svg>
