<?xml version="1.0" encoding="utf-8"?>
<!-- Generator: Adobe Illustrator 18.0.0, SVG Export Plug-In . SVG Version: 6.00 Build 0)  -->
<!DOCTYPE svg PUBLIC "-//W3C//DTD SVG 1.1//EN" "http://www.w3.org/Graphics/SVG/1.1/DTD/svg11.dtd">
<svg version="1.1" id="Layer_1" xmlns="http://www.w3.org/2000/svg" xmlns:xlink="http://www.w3.org/1999/xlink" x="0px" y="0px"
	 width="511.9px" height="511.9px" viewBox="0 0 511.9 511.9" enable-background="new 0 0 511.9 511.9" xml:space="preserve">
<path fill="#FFA1E0" d="M255.7,58.2c-121.8,0-220.5,98.7-220.5,220.5c0,3.5,0.1,7.1,0.3,10.6c-12.8,1.7-22.8,12.6-22.8,25.9
	c0,14.5,11.7,26.2,26.2,26.2h5.4c27,91.3,111.4,157.9,211.5,157.9c121.8,0,220.5-98.7,220.5-220.6
	C476.2,156.9,377.4,58.2,255.7,58.2z"/>
<path fill="#2B3B47" d="M393.4,258.1c-4.2-3.7-10.7-3.3-14.4,0.9c-4.1,4.6-10,7.2-16.2,7.2c-6.2,0-12.1-2.6-16.2-7.2
	c-3.7-4.2-10.2-4.6-14.4-0.9c-3.4,3-4.2,7.7-2.5,11.7c0.1,0.9,0.3,1.9,0.7,2.8c6.1,13.6,18.4,22.1,32.3,22.1
	c13.9,0,26.2-8.5,32.3-22.1c0.4-0.9,0.6-1.8,0.7-2.8C397.6,265.9,396.8,261.1,393.4,258.1z"/>
<path fill="#2B3B47" d="M173.1,258.1c-4.2-3.7-10.7-3.3-14.4,0.9c-4.1,4.6-10,7.2-16.2,7.2h0c-6.2,0-12.1-2.6-16.2-7.2
	c-3.7-4.2-10.2-4.6-14.4-0.9c-3.4,3-4.2,7.7-2.5,11.7c0.1,0.9,0.3,1.9,0.7,2.8c6.1,13.6,18.4,22.1,32.3,22.1
	c13.9,0,26.3-8.5,32.3-22.1c0.4-0.9,0.6-1.8,0.7-2.8C177.3,265.9,176.5,261.1,173.1,258.1z"/>
<path fill="#2B3B47" d="M294.9,379c0,19.2-22,34.7-41.2,34.7s-41.2-15.5-41.2-34.7s22-19.9,41.2-19.9S294.9,359.8,294.9,379z"/>
<path fill="#FFD469" d="M253.7,130.2c-75,0-202-12.4-202-58.8c0-46.4,127-58.8,202-58.8c75,0,202,12.4,202,58.8
	C455.7,117.8,328.8,130.2,253.7,130.2z M253.7,37.8c-110,0-173.6,22-176.8,33.8C80.2,83,143.8,105,253.7,105s173.6-22,176.8-33.8
	C427.3,59.8,363.7,37.8,253.7,37.8z"/>
<path fill="#FFB636" d="M76.8,71.6c10-15.4,77.6-33.8,177.6-33.8c98.9,0,161.8,16.4,177.2,33.1c0,0,29.8-58.3-177.2-58.3
	S76.8,71.6,76.8,71.6z"/>
<path fill="#E583C9" d="M475.8,265.8c-3.1-53.8-25.5-102.4-60.4-139c21.3,34.5,33.6,75.2,33.6,118.7C449,370.6,347.5,472,222.4,472
	c-43.5,0-84.2-12.3-118.7-33.6c39.6,37.7,93.1,60.8,152,60.8c108.4,0,198.5-78.3,217-181.4h0.1c14.5,0,26.2-11.7,26.2-26.2
	C498.9,278.3,488.8,267.3,475.8,265.8z"/>
<path fill="#E583C9" d="M403.1,225c-3.3,0-6.3-2.1-7.3-5.4c-2.4-8.2-8.3-15-16.2-18.7c-7.9-3.7-16.9-3.8-24.8-0.4
	c-3.9,1.7-8.3-0.1-10-4c-1.7-3.9,0.1-8.3,4-10c11.9-5.1,25.5-4.9,37.2,0.6c11.8,5.5,20.7,15.8,24.3,28.2c1.2,4-1.1,8.3-5.1,9.5
	C404.5,224.9,403.8,225,403.1,225z"/>
<path fill="#E583C9" d="M104.4,225c-0.7,0-1.4-0.1-2.2-0.3c-4-1.2-6.3-5.4-5.1-9.5c3.7-12.4,12.6-22.7,24.4-28.2
	c11.8-5.5,25.4-5.7,37.2-0.5c3.9,1.7,5.6,6.1,3.9,10c-1.7,3.8-6.1,5.6-10,3.9c-7.9-3.4-16.9-3.3-24.7,0.4
	c-7.9,3.7-13.8,10.5-16.2,18.7C110.7,222.9,107.7,225,104.4,225z"/>
</svg>
