<?xml version="1.0" encoding="iso-8859-1"?>
<!-- Generator: Adobe Illustrator 18.1.1, SVG Export Plug-In . SVG Version: 6.00 Build 0)  -->
<!DOCTYPE svg PUBLIC "-//W3C//DTD SVG 1.1//EN" "http://www.w3.org/Graphics/SVG/1.1/DTD/svg11.dtd">
<svg version="1.1" xmlns="http://www.w3.org/2000/svg" xmlns:xlink="http://www.w3.org/1999/xlink" x="0px" y="0px"
	 viewBox="0 0 512 512" enable-background="new 0 0 512 512" xml:space="preserve">
<g id="Layer_4">
	<path fill="#FFB636" d="M511.678,290.668v41.887c0,18.586-15.067,33.652-33.652,33.652H8.982c-4.287,0-7.763-3.475-7.763-7.763
		v-27.724c0-4.287,3.475-7.763,7.763-7.763h0c4.287,0,3.624-3.475,3.624-7.763c0-17.537,1.234-38.315,17.251-45.455
		c0,0,41.999-28.72,86.09-29.911l45.143-79.451c7.943-13.98,22.783-22.616,38.862-22.616h188.546
		c18.54,0,35.457,10.569,43.588,27.231l37.291,76.419l29.251,22.649C506.86,270.433,511.678,280.257,511.678,290.668z
		 M264.184,112.768h-14.19v14.046h14.19V112.768z M342.619,126.815h14.19v-14.046h-14.19V126.815z"/>
</g>
<g id="Layer_1">
</g>
</svg>
