<svg xmlns="http://www.w3.org/2000/svg" viewBox="0 0 512 512" enable-background="new 0 0 512 512"><path fill="#9BA5A8" d="M121.404 428.278c0 16.007-12.976 28.983-28.983 28.983S63.44 444.286 63.44 428.28c0-16.007 12.976-28.983 28.983-28.983s28.984 12.976 28.984 28.983zm180.494-28.983c-16.007 0-28.983 12.976-28.983 28.983 0 16.007 12.976 28.983 28.983 28.983 16.007 0 28.983-12.975 28.983-28.982.002-16.007-12.975-28.983-28.982-28.983zm108.212 0c-16.007 0-28.983 12.976-28.983 28.983 0 16.007 12.976 28.983 28.983 28.983 16.007 0 28.983-12.975 28.983-28.982 0-16.007-12.976-28.983-28.983-28.983z"/></svg>