<?xml version="1.0" encoding="utf-8"?>
<!-- Generator: Adobe Illustrator 18.1.0, SVG Export Plug-In . SVG Version: 6.00 Build 0)  -->
<!DOCTYPE svg PUBLIC "-//W3C//DTD SVG 1.0//EN" "http://www.w3.org/TR/2001/REC-SVG-20010904/DTD/svg10.dtd">
<svg version="1.0" id="Layer_1" xmlns="http://www.w3.org/2000/svg" xmlns:xlink="http://www.w3.org/1999/xlink" x="0px" y="0px"
	 width="72px" height="72px" viewBox="0 0 72 72" enable-background="new 0 0 72 72" xml:space="preserve">
<path fill="#FFD3B6" d="M52.5,62.8L45,53.2l-3.1-15.1c-0.1-0.3-0.1-0.5-0.3-0.7l5.7-5.2c0.7-0.6,0.8-1.7,0.2-2.4l-0.1-0.1l-3.5-4.3
	l-1.7-2.2l-0.8-1c-0.3-0.3-0.5-0.7-0.8-1.1l0-0.1c0,0,0,0,0,0c-0.3-0.5-0.9-0.7-1.4-0.8c0-0.1,0-0.1,0-0.2v-2.4
	c4.4-2.1,4.5-9.1,4.5-9.1c0-4-3.2-7.2-7.2-7.2c-4,0-6.9,2.1-6.9,6l0,0.9l0,0c0,0-0.6,2-1,2.8c-0.4,0.9,0.1,1.1,1.1,1.1l0,1.5
	c0,0.3,0.8,0.2,1.1,0.1c0.2-0.1,0.5,0,0.6,0.2c0.1,0.2,0,0.5-0.2,0.6c-0.2,0.1-0.7,0.2-1,0.3c-0.2,0-0.3,0.2-0.3,0.4
	c0.5,1.8,2.1,2.5,4.2,2.8v2.2c0,0.7,1.1,1.3,2.6,1.3l-0.9,6.2l-2.2,3.9l-8.8-1.3c0-0.3-0.1-0.5-0.3-0.7c-0.5-0.6-1-1.2-1.5-1.7
	c-0.5-0.6-1.4-0.7-2-0.2c0,0-0.1,0.1-0.1,0.1c-0.7-0.2-1.5,0.3-1.7,1c-0.1,0.4-0.3,0.8-0.4,1.2l-0.1,0.2c-0.2,0.7,0.2,1.4,0.9,1.7
	c1.1,0.4,2.2,0.7,3.3,0.9c0.1,0,0.2,0,0.3,0L34,36c0.8,0.3,1.8-0.1,2.2-0.9l0.1-0.2l3-5.1c0,0,1.4-0.8,2.4-1.2l1.8,2.2l-9.7,9.9
	c-0.3,0.4-0.6,0.9-0.8,1.4l-0.7,1.4l-0.7,1.4c-0.2,0.5-0.4,1-0.6,1.4c-0.4,1-0.8,2-1.1,2.9c-0.2,0.5-0.3,1-0.5,1.5l-0.5,1.5
	l-0.1,0.3l-0.4,1.9c-0.1,0.6-0.3,1.3-0.4,1.9c-0.2,1.3-0.4,2.6-0.6,3.9c-0.1,0.7-0.2,1.3-0.2,2l-0.2,2l-0.1,2c0,0.7-0.1,1.3-0.1,2
	l0,0.3c0,0.4,0.3,0.8,0.7,1c0.5,0.2,1.2-0.1,1.4-0.6l1.3-3.7l1.2-3.7l2.4-7.2l2.5-5.7l1.3-2.9l0.1-0.2l1.9,9.4l0.1,0.3
	c0.1,0.3,0.2,0.6,0.5,0.9l9.4,8.9l0.2,0.2c0.7,0.6,1.7,0.7,2.4,0.1C53,64.8,53.2,63.6,52.5,62.8z"/>
</svg>
