<?xml version="1.0" encoding="utf-8"?>
<!-- Generator: Adobe Illustrator 18.0.0, SVG Export Plug-In . SVG Version: 6.00 Build 0)  -->
<!DOCTYPE svg PUBLIC "-//W3C//DTD SVG 1.1 Tiny//EN" "http://www.w3.org/Graphics/SVG/1.1/DTD/svg11-tiny.dtd">
<svg version="1.1" baseProfile="tiny" id="Layer_1" xmlns="http://www.w3.org/2000/svg" xmlns:xlink="http://www.w3.org/1999/xlink"
	 x="0px" y="0px" width="511.9px" height="511.9px" viewBox="0 0 511.9 511.9" xml:space="preserve">
<path fill="#E5AB83" d="M284.4,287.4C284.4,287.4,284.4,287.4,284.4,287.4c-8.5,0-16.2-4.2-20.7-11.3c-1.5-2.3-0.8-5.4,1.6-6.9
	c2.3-1.5,5.4-0.8,6.9,1.6c2.6,4.2,7.2,6.6,12.3,6.6c0,0,0,0,0,0c5.1,0,9.7-2.5,12.3-6.6c1.5-2.3,4.5-3,6.9-1.5
	c2.3,1.5,3,4.5,1.5,6.9C300.6,283.2,292.9,287.4,284.4,287.4z"/>
<path fill="#E5AB83" d="M280,334.2c-4.2,0-8.3-0.7-12.3-2.1c-1.6-0.6-2.4-2.3-1.8-3.8s2.3-2.4,3.8-1.8c7,2.5,14.7,2.4,21.6-0.4
	c1.5-0.6,3.3,0.1,3.9,1.7s-0.1,3.3-1.7,3.9C289.3,333.3,284.6,334.2,280,334.2z"/>
<path fill="#E5AB83" d="M332.9,201.9c0,0,0.1-0.1,0.3-0.3c0.1-0.1,0.2-0.2,0.4-0.3c0.2-0.2,0.4-0.3,0.7-0.5c0.6-0.4,1.1-0.8,1.8-1.3
	c0.7-0.4,1.5-0.9,2.3-1.3c3.4-1.8,8.1-3.4,12.9-4.1c4.8-0.8,9.8-0.7,13.6,0.4c0.9,0.3,1.8,0.6,2.6,0.9c0.8,0.3,1.4,0.7,1.9,1.1
	c0.5,0.3,0.9,0.7,1.2,0.9c0.3,0.2,0.4,0.3,0.4,0.3c1,0.9,1.1,2.5,0.2,3.5c-0.8,0.9-2.2,1.1-3.2,0.5l-0.3-0.2c0,0-0.1-0.1-0.2-0.2
	c-0.1-0.1-0.4-0.2-0.7-0.4c-0.3-0.2-0.7-0.3-1.2-0.5c-0.5-0.2-1.1-0.3-1.8-0.4c-0.7-0.1-1.5-0.2-2.3-0.2c-0.8,0-1.7,0-2.7,0.1
	c-1.9,0.2-3.9,0.6-5.9,1.1c-4,1.1-7.7,2.9-10.1,4.6c-0.6,0.4-1.1,0.8-1.5,1.1c-0.4,0.3-0.8,0.7-1,0.9c-0.1,0.1-0.2,0.2-0.3,0.3
	c-0.1,0.1-0.2,0.3-0.3,0.4c-0.2,0.2-0.3,0.3-0.3,0.3l0,0c-1.8,1.9-4.7,1.9-6.5,0.2c-1.9-1.8-1.9-4.7-0.2-6.5
	C332.6,202.1,332.7,202,332.9,201.9z"/>
<path fill="#E5AB83" d="M208.4,208.6c0,0-0.1-0.1-0.3-0.3c-0.1-0.1-0.2-0.2-0.3-0.4c-0.1-0.1-0.2-0.2-0.3-0.3
	c-0.2-0.2-0.6-0.5-1-0.9c-0.4-0.4-0.9-0.7-1.5-1.1c-2.4-1.6-6.1-3.5-10.1-4.6c-2-0.6-4-1-5.9-1.1c-0.9-0.1-1.8-0.1-2.7-0.1
	c-0.8,0-1.6,0.1-2.3,0.2c-0.7,0.1-1.3,0.2-1.8,0.4c-0.5,0.2-0.9,0.3-1.2,0.5c-0.3,0.2-0.6,0.3-0.7,0.4c-0.2,0.1-0.2,0.2-0.2,0.2
	l-0.3,0.2c-1.2,0.7-2.7,0.4-3.4-0.8c-0.7-1.1-0.5-2.4,0.5-3.2c0,0,0.1-0.1,0.4-0.3c0.3-0.2,0.6-0.5,1.2-0.9c0.5-0.3,1.2-0.7,1.9-1.1
	c0.8-0.4,1.6-0.7,2.6-0.9c3.8-1.1,8.8-1.2,13.6-0.4c4.8,0.7,9.5,2.3,12.9,4.1c0.9,0.4,1.6,0.9,2.3,1.3c0.7,0.4,1.3,0.8,1.8,1.3
	c0.3,0.2,0.5,0.4,0.7,0.5c0.1,0.1,0.3,0.2,0.4,0.3c0.2,0.2,0.3,0.3,0.3,0.3c2,1.6,2.2,4.6,0.6,6.5c-1.6,2-4.6,2.2-6.5,0.6
	C208.7,208.9,208.5,208.8,208.4,208.6L208.4,208.6z"/>
</svg>
