<?xml version="1.0" encoding="utf-8"?>
<!-- Generator: Adobe Illustrator 18.0.0, SVG Export Plug-In . SVG Version: 6.00 Build 0)  -->
<!DOCTYPE svg PUBLIC "-//W3C//DTD SVG 1.1 Tiny//EN" "http://www.w3.org/Graphics/SVG/1.1/DTD/svg11-tiny.dtd">
<svg version="1.1" baseProfile="tiny" id="Layer_1" xmlns="http://www.w3.org/2000/svg" xmlns:xlink="http://www.w3.org/1999/xlink"
	 x="0px" y="0px" width="511.9px" height="511.9px" viewBox="0 0 511.9 511.9" xml:space="preserve">
<path fill="#FFD469" d="M255.9,35.3C134,35.3,35.2,134.1,35.2,256c0,3.3,0.1,6.6,0.2,9.9c-12.8,1.7-22.8,12.6-22.8,25.9
	c0,14.5,11.7,26.2,26.2,26.2h5.2c26.8,91.7,111.4,158.7,211.7,158.7c121.8,0,220.6-98.8,220.6-220.6
	C476.5,134.1,377.7,35.3,255.9,35.3z"/>
<path fill="#FFB636" d="M476.2,265.8c0.1-3.3,0.2-6.6,0.2-9.9c0-58.9-23.1-112.5-60.8-152c21.3,34.5,33.6,75.2,33.6,118.8
	c0,125.2-101.5,226.7-226.7,226.7c-43.6,0-84.2-12.3-118.8-33.6c39.6,37.7,93.1,60.8,152,60.8c100.3,0,185-67,211.7-158.7h5.2
	c14.5,0,26.2-11.7,26.2-26.2C499,278.4,489.1,267.5,476.2,265.8z"/>
<path fill="#F2A74E" d="M145.4,184C145.4,184,145.4,184,145.4,184c-13.2,0-25.7-5.6-34.3-15.4c-2.8-3.1-2.5-8,0.7-10.8
	c3.1-2.8,8-2.5,10.8,0.7c5.8,6.5,14.1,10.3,22.9,10.3c0,0,0,0,0,0c8.8,0,17.2-3.7,23-10.3c2.8-3.1,7.6-3.4,10.8-0.6
	c3.1,2.8,3.4,7.6,0.6,10.8C171.1,178.3,158.6,184,145.4,184z"/>
<path fill="#F2A74E" d="M394.4,159.4c-2.1,0-4.2-0.9-5.7-2.6c-5.8-6.5-14.1-10.3-22.9-10.3c0,0,0,0,0,0c-8.8,0-17.2,3.7-23,10.3
	c-2.8,3.2-7.6,3.4-10.8,0.6c-3.1-2.8-3.4-7.6-0.6-10.8c8.7-9.8,21.2-15.4,34.4-15.4c0,0,0,0,0,0c13.1,0,25.7,5.6,34.3,15.4
	c2.8,3.1,2.5,8-0.7,10.8C398,158.8,396.2,159.4,394.4,159.4z"/>
<path fill="#2B3B47" d="M249.8,397.2c-27.7,0-52.7-10.7-67-23.5c-4.6-4.1-5-11-0.9-15.6c4-4.6,11-5,15.6-0.9
	c15.2,13.5,45.5,23,74.2,15c5.9-1.7,12,1.8,13.6,7.7c1.6,5.9-1.8,12-7.7,13.6C268.2,396.1,258.8,397.2,249.8,397.2z"/>
<path fill="#2B3B47" d="M224.7,271.1c0,32.1-26,58.1-58.1,58.1h-30.1c-32.1,0-58.1-26-58.1-58.1v-30.9c0-32.1,26-25.6,58.1-25.6
	h30.1c32.1,0,58.1-6.5,58.1,25.6V271.1z"/>
<path fill="#2B3B47" d="M435.6,271.1c0,32.1-26,58.1-58.1,58.1h-30.1c-32.1,0-58.1-26-58.1-58.1v-30.9c0-32.1,26-25.6,58.1-25.6
	h30.1c32.1,0,58.1-6.5,58.1,25.6V271.1z"/>
<path fill="#597B91" d="M287.5,269.5c-1.8,0-3.6-0.6-5-1.8c-15.3-12.5-37.8-12.5-53.4,0c-3.4,2.8-8.4,2.2-11.2-1.2
	c-2.8-3.4-2.2-8.4,1.2-11.2c21.5-17.3,52.4-17.2,73.5,0.1c3.4,2.8,3.9,7.8,1.1,11.2C292.1,268.5,289.8,269.5,287.5,269.5z"/>
<path fill="#597B91" d="M427.3,222H84.2c-4.4,0-8-3.6-8-8c0-4.4,3.6-8,8-8h343.1c4.4,0,8,3.6,8,8C435.3,218.4,431.7,222,427.3,222z"
	/>
<path fill="#597B91" d="M471,248.1h-35.4V264H471c4.4,0,8-3.6,8-8C479,251.6,475.4,248.1,471,248.1z"/>
<path fill="#597B91" d="M78.5,248.1H40.5c-4.4,0-8,3.6-8,8c0,4.4,3.6,8,8,8h37.9V248.1z"/>
</svg>
