<?xml version="1.0" encoding="utf-8"?>
<!-- Generator: Adobe Illustrator 18.1.0, SVG Export Plug-In . SVG Version: 6.00 Build 0)  -->
<!DOCTYPE svg PUBLIC "-//W3C//DTD SVG 1.0//EN" "http://www.w3.org/TR/2001/REC-SVG-20010904/DTD/svg10.dtd">
<svg version="1.0" id="Layer_1" xmlns="http://www.w3.org/2000/svg" xmlns:xlink="http://www.w3.org/1999/xlink" x="0px" y="0px"
	 width="72px" height="72px" viewBox="0 0 72 72" enable-background="new 0 0 72 72" xml:space="preserve">
<path fill="#76DFFF" d="M30,68.5c-0.3,0.6-0.8,1.8-1.2,2.4c0,0-0.7-0.3-1.8-0.8c-0.5-0.2-1.1-0.5-1.8-0.7c-0.7-0.3-1.4-0.5-2.1-0.8
	c-0.4-0.1-0.7-0.3-1-0.4c-0.3-0.1-0.7-0.3-1-0.4c-0.6-0.3-1.2-0.6-1.7-0.8c-0.5-0.2-0.9-0.5-1.2-0.6c-0.2-0.1-0.3-0.2-0.4-0.2
	c0.5-1.2,1.9-0.4,3.7-0.4c1.1,0,1.9,0,2.4-0.1c1.5-0.3,1.9-1.4,2.4-1.4c0,0,0,0,0,0c0,0,0.1,0,0.1,0c0,0,0,0,0,0c0,0,0.1,0,0.1,0
	c0,0,0,0,0.1,0c0,0,0.1,0.1,0.1,0.1c0,0,0.1,0,0.1,0.1c0,0,0.1,0.1,0.1,0.1c0.1,0.1,0.2,0.3,0.3,0.4c0,0.1,0.1,0.1,0.1,0.2
	c0,0,0,0,0,0.1c0,0,0,0.1,0,0.1c0,0,0,0,0,0.1c0,0,0,0.1,0,0.1c0,0,0,0,0,0.1c0,0,0,0,0,0.1c0,0,0,0-0.1,0.1c0,0,0,0-0.1,0
	c0,0-0.1,0-0.1,0.1c0,0,0,0-0.1,0c0,0-0.1,0-0.1,0.1c0,0,0,0,0,0c-0.1,0-0.1,0-0.2,0.1c0,0,0,0,0,0c0,0,0,0,0,0
	c-0.2,0.1-0.4,0.1-0.5,0.1c0.3,0.5,0.7,0.9,1.3,1.2c0.4,0.2,0.8,0.3,1.2,0.3c0.6,0,1.3-0.2,1.8-0.7c0,0,0,0,0,0
	C30.5,67.3,30.3,67.9,30,68.5z M54.2,64.2c-0.4-0.7-0.9-1.2-1.4-1.2c0.3,1-0.1,2.1-1,2.7c-0.5,0.3-1,0.4-1.5,0.4
	c0-0.1,0-0.2,0.1-0.2c0,0,0,0,0-0.1c0-0.1,0-0.1,0-0.2c0,0,0,0,0-0.1c0,0,0-0.1,0-0.1c0,0,0-0.1,0-0.1c0,0,0-0.1,0-0.1
	c0,0,0,0,0-0.1c0,0,0-0.1,0-0.1c0,0,0,0,0-0.1c0,0,0-0.1-0.1-0.1c0,0,0,0,0,0c0,0-0.1,0-0.1,0c0,0,0,0-0.1,0c-0.1,0-0.1,0-0.2,0
	c-2.4,0.2-0.5,1-1.3,3.1l0,0c-0.1,0.3-0.4,0.7-0.9,1.1c-1.4,1.3-2.3,0.9-1.7,2.2c0,0,1.7,0.4,3.1-0.1c1.4-0.5,1.7-0.3,2.7-1.4
	c0.7-0.7,4.1-2.7,4.1-2.7S54.8,65.1,54.2,64.2z"/>
</svg>
