<svg xmlns="http://www.w3.org/2000/svg" viewBox="0 0 512 512" enable-background="new 0 0 512 512"><path fill="#B1B8BC" d="M289.302 391.552H168.72c-8.884 0-16.086-7.202-16.086-16.086s7.202-16.086 16.086-16.086h120.582c8.884 0 16.086 7.202 16.086 16.086s-7.202 16.086-16.086 16.086zm50.537 42.79c0-8.883-7.203-16.085-16.087-16.085H128.116c-8.884 0-16.086 7.202-16.086 16.086s7.202 16.086 16.086 16.086h195.637c8.884 0 16.086-7.203 16.086-16.087zm13.91 44.53H98.12c-8.884 0-16.086 7.202-16.086 16.086 0 5.375 2.646 10.12 6.696 13.042H363.14c4.05-2.92 6.697-7.667 6.697-13.042 0-8.884-7.202-16.086-16.086-16.086z"/></svg>