<?xml version="1.0" encoding="iso-8859-1"?>
<!-- Generator: Adobe Illustrator 18.1.1, SVG Export Plug-In . SVG Version: 6.00 Build 0)  -->
<!DOCTYPE svg PUBLIC "-//W3C//DTD SVG 1.1//EN" "http://www.w3.org/Graphics/SVG/1.1/DTD/svg11.dtd">
<svg version="1.1" xmlns="http://www.w3.org/2000/svg" xmlns:xlink="http://www.w3.org/1999/xlink" x="0px" y="0px"
	 viewBox="0 0 512 512" enable-background="new 0 0 512 512" xml:space="preserve">
<g id="Layer_2">
	<path fill="#FF473E" d="M255.107,1.894C114.768,1.894,1.001,115.661,1.001,256s113.767,254.106,254.106,254.106
		S509.213,396.339,509.213,256S395.445,1.894,255.107,1.894z M124.924,386.183C90.151,351.41,71.001,305.176,71.001,256
		c0-37.761,11.303-73.78,32.289-104.214L359.32,407.817c-30.434,20.986-66.453,32.289-104.214,32.289
		C205.93,440.106,159.697,420.955,124.924,386.183z M408.464,357.965L153.141,102.643c29.952-20.004,65.133-30.749,101.966-30.749
		c49.176,0,95.41,19.15,130.183,53.923c34.773,34.773,53.923,81.006,53.923,130.183
		C439.213,292.833,428.468,328.013,408.464,357.965z"/>
</g>
<g id="Layer_1">
</g>
</svg>
