<?xml version="1.0" encoding="utf-8"?>
<!-- Generator: Adobe Illustrator 18.0.0, SVG Export Plug-In . SVG Version: 6.00 Build 0)  -->
<!DOCTYPE svg PUBLIC "-//W3C//DTD SVG 1.1 Tiny//EN" "http://www.w3.org/Graphics/SVG/1.1/DTD/svg11-tiny.dtd">
<svg version="1.1" baseProfile="tiny" id="Layer_1" xmlns="http://www.w3.org/2000/svg" xmlns:xlink="http://www.w3.org/1999/xlink"
	 x="0px" y="0px" width="511.9px" height="511.9px" viewBox="0 0 511.9 511.9" xml:space="preserve">
<path fill="#009AAF" d="M140.6,182.3c-11.4,0-22.8-4.1-31.6-12.4c-3.1-2.9-3.2-7.8-0.3-10.9c2.9-3.1,7.8-3.2,10.9-0.3
	c11.6,11,30.6,10.9,42.2-0.2c3.1-2.9,7.9-2.8,10.9,0.2c2.9,3.1,2.8,7.9-0.2,10.9C163.6,178.1,152.1,182.3,140.6,182.3z"/>
<path fill="#009AAF" d="M373.5,184.9c-12.9,0-25.8-5.3-34.7-15.5c-2.8-3.2-2.5-8.1,0.7-10.9c3.2-2.8,8-2.5,10.9,0.7
	c10.6,12.1,29.4,13.8,42,3.8c3.3-2.6,8.2-2.1,10.8,1.3c2.6,3.3,2.1,8.2-1.3,10.8C393.6,181.7,383.5,184.9,373.5,184.9z"/>
<path fill="#009AAF" d="M170.2,292.1H122c-4.2,0-7.7-3.4-7.7-7.7c0-4.2,3.4-7.7,7.7-7.7h48.2c4.2,0,7.7,3.4,7.7,7.7
	C177.9,288.7,174.5,292.1,170.2,292.1z"/>
<path fill="#009AAF" d="M389.9,292.1h-48.2c-4.2,0-7.7-3.4-7.7-7.7c0-4.2,3.4-7.7,7.7-7.7h48.2c4.2,0,7.7,3.4,7.7,7.7
	C397.6,288.7,394.1,292.1,389.9,292.1z"/>
</svg>
