<svg xmlns="http://www.w3.org/2000/svg" viewBox="0 0 512 512" enable-background="new 0 0 512 512"><path fill="#2B3B47" d="M114.823 432.253c0 14.568-11.81 26.378-26.378 26.378s-26.378-11.81-26.378-26.377 11.81-26.378 26.378-26.378 26.378 11.81 26.378 26.378zm166.783-26.377c-14.568 0-26.378 11.81-26.378 26.378s11.81 26.378 26.378 26.378 26.378-11.81 26.378-26.378-11.81-26.378-26.378-26.378zm112.35 0c-14.568 0-26.378 11.81-26.378 26.378s11.81 26.378 26.378 26.378 26.378-11.81 26.378-26.378-11.81-26.378-26.378-26.378z"/></svg>