<?xml version="1.0" encoding="iso-8859-1"?>
<!-- Generator: Adobe Illustrator 18.1.1, SVG Export Plug-In . SVG Version: 6.00 Build 0)  -->
<!DOCTYPE svg PUBLIC "-//W3C//DTD SVG 1.1//EN" "http://www.w3.org/Graphics/SVG/1.1/DTD/svg11.dtd">
<svg version="1.1" xmlns="http://www.w3.org/2000/svg" xmlns:xlink="http://www.w3.org/1999/xlink" x="0px" y="0px"
	 viewBox="0 0 512 512" enable-background="new 0 0 512 512" xml:space="preserve">
<g id="Layer_2">
	<path fill="#597B91" d="M509.167,31.832c0-16.316-13.35-29.666-29.666-29.666H29.866c-14.685,0-26.699,12.015-26.699,26.699
		v452.602c0,14.685,12.015,26.699,26.699,26.699h449.635c16.316,0,29.666-13.35,29.666-29.666V31.832z"/>
</g>
<g id="Layer_3">
	<path fill="#2B5770" d="M479.501,488.082H29.866c-14.684,0-26.699-12.015-26.699-26.699v20.085
		c0,14.685,12.015,26.699,26.699,26.699h449.635c16.316,0,29.666-13.35,29.666-29.666v-20.085
		C509.167,474.732,495.817,488.082,479.501,488.082z"/>
</g>
<g id="Layer_4">
	<circle fill="#FFFFFF" cx="367.647" cy="123.181" r="57.31"/>
</g>
<g id="Layer_5">
	<path fill="#FFFFFF" d="M428.27,208.361c-3.415-6.436-10.177-10.823-17.971-10.823H285.33c-0.375,0-0.741,0.036-1.111,0.056
		c-0.176,0.008-0.352,0.017-0.528,0.027c-0.197,0.016-0.396,0.024-0.591,0.045c-25.045,1.718-44.899,22.628-44.899,48.101
		c0,56.719-58.853,103.354-59.798,104.094c-8.87,6.869-10.504,19.627-3.647,28.511c4.007,5.191,10.028,7.912,16.116,7.912
		c4.339,0,8.713-1.383,12.414-4.239c3.087-2.383,75.595-59.237,75.595-136.277c0-4.163,3.387-7.549,7.549-7.549
		s7.549,3.386,7.549,7.549v112.834c0,1.106,0.112,2.184,0.282,3.242v41.339c0,14.542,11.789,26.331,26.331,26.331h94.109
		c14.542,0,26.331-11.789,26.331-26.331V237.464C441.032,225.953,436.114,215.594,428.27,208.361z"/>
</g>
<g id="Layer_6">
	<path fill="#597B91" d="M432.521,111.232H308.962c-4.701,0-8.511-3.811-8.511-8.511v-5.519c0-4.701,3.811-8.511,8.511-8.511
		h123.559c4.701,0,8.511,3.811,8.511,8.511v5.519C441.032,107.422,437.222,111.232,432.521,111.232z"/>
</g>
<g id="Layer_7">
	<path fill="#FFFFFF" d="M424.421,55.494c0-5.611-4.549-10.16-10.16-10.16h-98.924c-5.012,0-8.263,5.285-6.003,9.758l7.234,14.322
		h-14.115c-4.523,0-8.19,3.667-8.19,8.19v6.162c0,4.523,3.667,8.19,8.19,8.19h113.779c4.523,0,8.19-3.667,8.19-8.19v-6.162
		c0-0.067-0.008-0.131-0.01-0.197h0.01V55.494z"/>
</g>
<g id="Layer_8">
	<path fill="#597B91" d="M256.877,472.502c-4.159,0-8.357-1.263-11.987-3.884c-9.178-6.63-11.244-19.444-4.614-28.622l200-276.882
		c6.63-9.18,19.443-11.244,28.622-4.614c9.178,6.629,11.244,19.444,4.614,28.622l-200,276.882
		C269.505,469.553,263.236,472.502,256.877,472.502z"/>
</g>
<g id="Layer_9">
	<path fill="#FFFFFF" d="M113.29,415.672H97.576c-14.695,0-26.608-11.913-26.608-26.608v-71.62
		c0-14.695,11.913-26.608,26.608-26.608h9.099c3.654,0,6.615,2.962,6.615,6.615V415.672z"/>
</g>
<g id="Layer_10">
	<path fill="#FFFFFF" d="M245.935,422.18v8.697c0,14.976-12.141,27.117-27.117,27.117h-78.41c-14.976,0-27.117-12.141-27.117-27.117
		v-15.206h126.136C243.021,415.672,245.935,418.586,245.935,422.18z"/>
</g>
</svg>
