<?xml version="1.0" encoding="utf-8"?>
<!-- Generator: Adobe Illustrator 18.0.0, SVG Export Plug-In . SVG Version: 6.00 Build 0)  -->
<!DOCTYPE svg PUBLIC "-//W3C//DTD SVG 1.1 Tiny//EN" "http://www.w3.org/Graphics/SVG/1.1/DTD/svg11-tiny.dtd">
<svg version="1.1" baseProfile="tiny" id="Layer_1" xmlns="http://www.w3.org/2000/svg" xmlns:xlink="http://www.w3.org/1999/xlink"
	 x="0px" y="0px" width="511.9px" height="511.9px" viewBox="0 0 511.9 511.9" xml:space="preserve">
<path fill="#F2A74E" d="M145.4,184C145.4,184,145.4,184,145.4,184c-13.2,0-25.7-5.6-34.3-15.4c-2.8-3.1-2.5-8,0.7-10.8
	c3.1-2.8,8-2.5,10.8,0.7c5.8,6.5,14.1,10.3,22.9,10.3c0,0,0,0,0,0c8.8,0,17.2-3.7,23-10.3c2.8-3.1,7.6-3.4,10.8-0.6
	c3.1,2.8,3.4,7.6,0.6,10.8C171.1,178.3,158.6,184,145.4,184z"/>
<path fill="#F2A74E" d="M394.4,159.4c-2.1,0-4.2-0.9-5.7-2.6c-5.8-6.5-14.1-10.3-22.9-10.3c0,0,0,0,0,0c-8.8,0-17.2,3.7-23,10.3
	c-2.8,3.2-7.6,3.4-10.8,0.6c-3.1-2.8-3.4-7.6-0.6-10.8c8.7-9.8,21.2-15.4,34.4-15.4c0,0,0,0,0,0c13.1,0,25.7,5.6,34.3,15.4
	c2.8,3.1,2.5,8-0.7,10.8C398,158.8,396.2,159.4,394.4,159.4z"/>
</svg>
