<?xml version="1.0" encoding="utf-8"?>
<!-- Generator: Adobe Illustrator 18.1.0, SVG Export Plug-In . SVG Version: 6.00 Build 0)  -->
<!DOCTYPE svg PUBLIC "-//W3C//DTD SVG 1.0//EN" "http://www.w3.org/TR/2001/REC-SVG-20010904/DTD/svg10.dtd">
<svg version="1.0" id="Layer_1" xmlns="http://www.w3.org/2000/svg" xmlns:xlink="http://www.w3.org/1999/xlink" x="0px" y="0px"
	 width="72px" height="72px" viewBox="0 0 72 72" enable-background="new 0 0 72 72" xml:space="preserve">
<path fill="#EDC0A2" d="M44.3,11.6c-0.2,0-0.5,0-0.7,0.1V6.4c0-2.2-1.8-4-4-4c-1.7,0-3.1,1-3.7,2.4c-0.6-1.4-2-2.4-3.7-2.4
	c-2.2,0-4,1.8-4,4v5.3c-0.2,0-0.5-0.1-0.7-0.1c-2.2,0-4,1.8-4,4v31.7c0,2.2,1.8,4,4,4c1.1,0,2.2-0.5,2.9-1.2
	c0.5,0.3,1.2,0.5,1.8,0.5c0,0,0,0,0,0v0.2h10.1c0.6,0.3,1.2,0.5,2,0.5c2.2,0,4-1.8,4-4V15.6C48.3,13.4,46.6,11.6,44.3,11.6z"/>
<path fill="#357BA8" d="M66.7,44.5c-0.3-0.5-0.6-0.9-1-1.3c-3.5-3.5-10.8-1.7-16.4,3.9c-5.6,5.6-7.4,13-3.9,16.4
	c0.3,0.3,0.5,0.5,0.8,0.7l7.8,7.8h17.8L72,49.8L66.7,44.5z"/>
<path fill="#FFD3B6" d="M61.1,42.5c-0.2-0.4-0.5-0.8-0.9-1.1c-6.8-6-14.5-14.8-14.5-17.9v-1.3V7.7c0-2.2-1.8-4-4-4s-4,1.8-4,4v14.5
	v17.1v0.9c0,12.5,7.3,19.7,7.6,20c0.6,0.5,1.4,0.9,2.2,1.1c0,0,0.3,0,0.8,0c1.8,0,5.5-0.7,10-5.2C63.5,51,62.5,45.2,61.1,42.5z"/>
<path fill="#357BA8" d="M22.6,47.1c-5.6-5.6-13-7.4-16.4-3.9c-0.4,0.4-0.7,0.8-1,1.3l-5.3,5.3L0,72h17.8l7.8-7.8
	c0.3-0.2,0.6-0.4,0.8-0.7C30,60,28.2,52.7,22.6,47.1z"/>
<path fill="#EDC0A2" stroke="#FFD3B6" stroke-width="4.9852" stroke-linecap="round" stroke-linejoin="round" stroke-miterlimit="10" d="
	M51.2,26.2"/>
<path fill="#FFD3B6" d="M30.2,3.7c-2.2,0-4,1.8-4,4v14.5v1.3c0,3.1-7.6,11.9-14.5,17.9c-0.4,0.3-0.7,0.7-0.9,1.1
	c-1.4,2.7-2.4,8.5,2.7,13.7c4.5,4.5,8.2,5.2,10,5.2c0.5,0,0.8,0,0.8,0c0.8-0.1,1.6-0.5,2.2-1.1c0.3-0.3,7.6-7.4,7.6-20v-0.9V22.2
	V7.7C34.2,5.5,32.4,3.7,30.2,3.7z"/>
<path fill="#00BEEA" d="M54.5,13.8c0.1,0,0.1,0,0.2-0.1l7.1-4c0.1-0.1,0.2-0.2,0.2-0.3c0-0.1,0-0.2-0.1-0.3l-3.1-3.1
	C58.7,6,58.6,5.9,58.4,6c-0.1,0-0.2,0.1-0.3,0.2l-4,7.1c-0.1,0.2-0.1,0.3,0.1,0.5C54.3,13.8,54.4,13.8,54.5,13.8z"/>
<path fill="#00BEEA" d="M10.5,9.8l7.1,4c0.1,0,0.1,0.1,0.2,0.1c0,0,0,0,0,0c0.3,0,0.4-0.2,0.4-0.4c0-0.1,0-0.2-0.1-0.3l-3.9-7
	C14.1,6,14,6,13.9,6c-0.1,0-0.2,0-0.3,0.1l-3.1,3.1c-0.1,0.1-0.1,0.2-0.1,0.3C10.4,9.6,10.4,9.7,10.5,9.8z"/>
<path fill="#00BEEA" d="M62.1,18.7c-0.1-0.1-0.2-0.1-0.3-0.1l-7.8,2.2c-0.2,0-0.3,0.2-0.3,0.4s0.1,0.3,0.3,0.4l7.8,2.2
	c0,0,0.1,0,0.1,0c0.1,0,0.2,0,0.2-0.1c0.1-0.1,0.2-0.2,0.2-0.3V19C62.2,18.9,62.2,18.7,62.1,18.7z"/>
<path fill="#00BEEA" d="M18.4,20.8l-7.8-2.2c-0.1,0-0.2,0-0.3,0.1C10.1,18.7,10,18.9,10,19v4.3c0,0.1,0.1,0.2,0.2,0.3
	c0.1,0.1,0.2,0.1,0.2,0.1c0,0,0.1,0,0.1,0l7.8-2.2c0.2,0,0.3-0.2,0.3-0.4S18.5,20.8,18.4,20.8z"/>
</svg>
