<?xml version="1.0" encoding="iso-8859-1"?>
<!-- Generator: Adobe Illustrator 18.1.0, SVG Export Plug-In . SVG Version: 6.00 Build 0)  -->
<!DOCTYPE svg PUBLIC "-//W3C//DTD SVG 1.1//EN" "http://www.w3.org/Graphics/SVG/1.1/DTD/svg11.dtd">
<svg version="1.1" xmlns="http://www.w3.org/2000/svg" xmlns:xlink="http://www.w3.org/1999/xlink" x="0px" y="0px"
	 viewBox="0 0 512 512" enable-background="new 0 0 512 512" xml:space="preserve">
<g id="Layer_2">
	<path fill="#DEE1E2" d="M-0.465,481.824V223.723c0,0,34.566-107.071,72.064-107.071s50.997,62.942,97.495,62.942
		S309.621,9.966,357.619,9.966S512,216.292,512,216.292v265.532H-0.465z"/>
</g>
<g id="Layer_3">
	<rect x="-0.465" y="472.821" fill="#B1B8BC" width="512.465" height="39.179"/>
</g>
<g id="Layer_4">
	<path fill="#575A5B" d="M181.96,443.422c0,20.767-16.835,37.603-37.603,37.603s-37.603-16.835-37.603-37.603
		c0-20.767,16.835-37.603,37.603-37.603S181.96,422.655,181.96,443.422z M244.285,405.819c-20.767,0-37.603,16.835-37.603,37.603
		c0,20.767,16.835,37.603,37.603,37.603s37.603-16.835,37.603-37.603C281.887,422.655,265.052,405.819,244.285,405.819z"/>
</g>
<g id="Layer_5">
	<path fill="#132028" d="M168.509,443.422c0,13.338-10.813,24.151-24.151,24.151c-13.338,0-24.151-10.813-24.151-24.151
		c0-13.338,10.813-24.151,24.151-24.151C157.696,419.271,168.509,430.084,168.509,443.422z M244.285,419.271
		c-13.338,0-24.151,10.813-24.151,24.151c0,13.338,10.813,24.151,24.151,24.151s24.151-10.813,24.151-24.151
		C268.436,430.084,257.623,419.271,244.285,419.271z"/>
</g>
<g id="Layer_6">
	<path fill="#6EB51C" d="M512,443.422H55.633c-14.377,0-26.031-11.655-26.031-26.031V267.338c0-25.539,20.703-46.242,46.242-46.242
		H512V443.422z"/>
</g>
<g id="Layer_7">
	<rect x="29.602" y="266.921" fill="#FFECC3" width="482.398" height="130.676"/>
</g>
<g id="Layer_8">
	<path fill="#00B1FF" d="M126.25,296.005V357.9c0,3.976-3.224,7.2-7.2,7.2H29.602v-76.296h89.448
		C123.027,288.805,126.25,292.028,126.25,296.005z M203.546,333.11v-37.106c0-3.976-3.224-7.2-7.2-7.2H159.24
		c-3.976,0-7.2,3.224-7.2,7.2v37.106c0,3.976,3.224,7.2,7.2,7.2h37.106C200.322,340.31,203.546,337.087,203.546,333.11z
		 M271.412,333.11v-37.106c0-3.976-3.224-7.2-7.2-7.2h-37.106c-3.976,0-7.2,3.224-7.2,7.2v37.106c0,3.976,3.224,7.2,7.2,7.2h37.106
		C268.188,340.31,271.412,337.087,271.412,333.11z M391.028,333.11v-37.106c0-3.976-3.224-7.2-7.2-7.2h-37.106
		c-3.976,0-7.2,3.224-7.2,7.2v37.106c0,3.976,3.224,7.2,7.2,7.2h37.106C387.804,340.31,391.028,337.087,391.028,333.11z
		 M494.276,333.11v-37.106c0-3.976-3.224-7.2-7.2-7.2h-37.106c-3.976,0-7.2,3.224-7.2,7.2v37.106c0,3.976,3.224,7.2,7.2,7.2h37.106
		C491.053,340.31,494.276,337.087,494.276,333.11z"/>
</g>
<g id="Layer_9">
	<rect x="29.602" y="386.856" fill="#99DB42" width="482.398" height="29.342"/>
</g>
<g id="Layer_10">
	<path fill="#597B91" d="M390.434,375.847h-50.316c-9.694,0-17.58-7.886-17.58-17.579v-67.69c0-9.693,7.886-17.579,17.58-17.579
		h50.316c9.693,0,17.579,7.886,17.579,17.579v67.69C408.013,367.961,400.127,375.847,390.434,375.847z M340.117,279.357
		c-6.187,0-11.221,5.033-11.221,11.22v67.69c0,6.187,5.034,11.22,11.221,11.22h50.316c6.187,0,11.22-5.033,11.22-11.22v-67.69
		c0-6.187-5.033-11.22-11.22-11.22H340.117z"/>
</g>
</svg>
