<?xml version="1.0" encoding="utf-8"?>
<!-- Generator: Adobe Illustrator 18.0.0, SVG Export Plug-In . SVG Version: 6.00 Build 0)  -->
<!DOCTYPE svg PUBLIC "-//W3C//DTD SVG 1.1//EN" "http://www.w3.org/Graphics/SVG/1.1/DTD/svg11.dtd">
<svg version="1.1" id="Layer_1" xmlns="http://www.w3.org/2000/svg" xmlns:xlink="http://www.w3.org/1999/xlink" x="0px" y="0px"
	 width="511.9px" height="511.9px" viewBox="0 0 511.9 511.9" enable-background="new 0 0 511.9 511.9" xml:space="preserve">
<path fill="#2B3B47" d="M416.9,312.8c-5.5-0.5-10.9-0.9-16.4-1.2c-1.5,0.4-5.6,1.4-11.8,2.6c-7.9,1.1-19.3,3.9-32.9,5.2
	c-13.6,1.2-29.5,3.6-46.5,4.4c-17,1.2-35.1,1.4-53.3,1.7c-18.1-0.3-36.3-0.5-53.3-1.7c-17-0.9-32.9-3.2-46.5-4.4
	c-13.6-1.3-24.9-4-32.9-5.1c-6.3-1.2-10.4-2.2-11.8-2.5c-5.6,0.4-11.1,0.7-16.7,1.2c-0.7,0-1.3,0.3-1.9,0.7c-1.8,1.3-2.3,4-1,5.9
	l2.9,4.5c6.7,10.1,13.4,18.9,20.1,26.2c6.7,7.6,13.4,14,20.1,20c13.4,11.8,26.8,20.6,40.3,27.9c3.7,1.9,7.3,3.4,11,5
	c20.4-14.3,44.1,5,69.5,5c25.4,0,49.2-19.2,69.6-4.8c3.6-1.6,7.3-3,10.9-4.9c13.4-7.4,26.8-16.1,40.3-28
	c6.7-6.1,13.4-12.5,20.1-20.1c6.7-7.4,13.4-16.1,20.1-26.3l2.9-4.5c0.4-0.6,0.6-1.3,0.7-2.1C420.7,315.1,419.1,313,416.9,312.8z"/>
<path fill="#2B3B47" d="M365.7,166.7c13.4,0,24.2,10.8,24.2,24.2v54.3c0,13.4-10.8,24.2-24.2,24.2l0,0c-13.4,0-24.2-10.8-24.2-24.2
	v-54.3C341.5,177.6,352.4,166.7,365.7,166.7L365.7,166.7z"/>
<path fill="#2B3B47" d="M146.1,166.7c13.4,0,24.2,10.8,24.2,24.2v54.3c0,13.4-10.8,24.2-24.2,24.2l0,0c-13.4,0-24.2-10.8-24.2-24.2
	v-54.3C121.9,177.6,132.7,166.7,146.1,166.7L146.1,166.7z"/>
</svg>
