<?xml version="1.0" encoding="iso-8859-1"?>
<!-- Generator: Adobe Illustrator 18.1.0, SVG Export Plug-In . SVG Version: 6.00 Build 0)  -->
<!DOCTYPE svg PUBLIC "-//W3C//DTD SVG 1.1//EN" "http://www.w3.org/Graphics/SVG/1.1/DTD/svg11.dtd">
<svg version="1.1" xmlns="http://www.w3.org/2000/svg" xmlns:xlink="http://www.w3.org/1999/xlink" x="0px" y="0px"
	 viewBox="0 0 512 512" enable-background="new 0 0 512 512" xml:space="preserve">
<g id="Layer_2">
	<path fill="#FF473E" d="M498.629,264.06l-29.251-22.649l-37.291-76.419c-8.131-16.662-25.048-27.231-43.588-27.231H199.952
		c-16.079,0-30.919,8.636-38.862,22.616l-45.143,79.451c-44.091,1.191-86.09,29.911-86.09,29.911
		c-16.017,7.14-17.251,27.918-17.251,45.455c0,4.287,0.663,7.763-3.624,7.763h0c-4.287,0-7.763,3.476-7.763,7.763v27.724
		c0,4.287,3.475,7.763,7.763,7.763h469.044c18.586,0,33.652-15.067,33.652-33.652v-41.887
		C511.678,280.257,506.86,270.433,498.629,264.06z"/>
</g>
<g id="Layer_3">
	<path fill="#FFFFFF" d="M158.505,221.261l25.401-44.705c5.001-8.802,14.345-14.24,24.469-14.24h98.255v70.1l-141.885-0.398
		C159.233,232.003,155.782,226.053,158.505,221.261z M431.564,222.392L411,180.253c-5.317-10.896-16.586-17.936-28.71-17.936
		h-47.725v70.178l90.507,0.254C430.404,232.764,433.902,227.182,431.564,222.392z"/>
</g>
<g id="Layer_4">
	<path fill="#D32A2A" d="M54.96,357.654c0-39.004,31.619-70.623,70.623-70.623s70.623,31.619,70.623,70.623v8.553H54.96V357.654z
		 M313.611,366.207h141.246v-8.553c0-39.004-31.619-70.623-70.623-70.623s-70.623,31.619-70.623,70.623V366.207z"/>
</g>
<g id="Layer_5">
	<path fill="#2B3B47" d="M184.148,359.207c0,31.556-25.581,57.137-57.137,57.137s-57.137-25.581-57.137-57.137
		s25.581-57.137,57.137-57.137S184.148,327.651,184.148,359.207z M385.662,302.07c-31.556,0-57.137,25.581-57.137,57.137
		s25.581,57.137,57.137,57.137s57.137-25.581,57.137-57.137S417.218,302.07,385.662,302.07z M192.975,209.227
		c-2.784,1.647-5.585,3.508-7.985,5.487l-8.37-25.334l-19.673,32.88c-2.735,4.368,0.4,10.04,5.553,10.048l19.652,0.02
		c2.868,2.951,6.97,5.663,11.014,7.909c5.79,3.216,13.649-0.135,13.649-5.832v-19.458
		C206.815,209.165,198.731,205.821,192.975,209.227z M429.933,232.691c4.343-0.013,7.173-4.568,5.26-8.467l-27.438-55.939
		c-1.687-3.439-5.183-5.618-9.013-5.618h-13.08v70.154L429.933,232.691z"/>
</g>
<g id="Layer_6">
	<path fill="#9BA5A8" d="M164.461,359.207c0,20.683-16.767,37.45-37.45,37.45s-37.45-16.767-37.45-37.45
		c0-20.683,16.767-37.45,37.45-37.45S164.461,338.525,164.461,359.207z M385.662,321.758c-20.683,0-37.45,16.767-37.45,37.45
		c0,20.683,16.767,37.45,37.45,37.45c20.683,0,37.45-16.767,37.45-37.45C423.112,338.525,406.345,321.758,385.662,321.758z"/>
</g>
<g id="Layer_7">
	<path fill="#E5E4DF" d="M140.13,359.207c0,7.245-5.873,13.118-13.118,13.118s-13.118-5.873-13.118-13.118
		c0-7.245,5.873-13.118,13.118-13.118S140.13,351.962,140.13,359.207z M385.662,346.089c-7.245,0-13.118,5.873-13.118,13.118
		c0,7.245,5.873,13.118,13.118,13.118c7.245,0,13.118-5.873,13.118-13.118C398.781,351.962,392.907,346.089,385.662,346.089z"/>
</g>
<g id="Layer_8">
	<path fill="#FFD469" d="M511.599,320.975h-7.708c-8.33,0-13.528-6.753-13.528-15.083v0c0-8.33,5.198-15.083,13.528-15.083h7.708
		V320.975z M12.347,318.905h8.743c8.33,0,13.528-6.753,13.528-15.083v0c0-8.33-5.198-15.083-13.528-15.083h-5.912
		C11.994,294.917,12.347,318.905,12.347,318.905z"/>
</g>
</svg>
