<?xml version="1.0" encoding="iso-8859-1"?>
<!-- Generator: Adobe Illustrator 18.1.1, SVG Export Plug-In . SVG Version: 6.00 Build 0)  -->
<!DOCTYPE svg PUBLIC "-//W3C//DTD SVG 1.1//EN" "http://www.w3.org/Graphics/SVG/1.1/DTD/svg11.dtd">
<svg version="1.1" xmlns="http://www.w3.org/2000/svg" xmlns:xlink="http://www.w3.org/1999/xlink" x="0px" y="0px"
	 viewBox="0 0 512 512" enable-background="new 0 0 512 512" xml:space="preserve">
<g id="Layer_2">
	<path fill="#2B3B47" d="M414.155,250.852c0.643,0.145,1.297,0.224,1.95,0.224c2.589,0,5.155-1.13,6.906-3.303
		c3.069-3.811,2.468-9.388-1.343-12.458c-30.377-24.467-74.768-26.944-106.596-6.277l-12.156-16.082l13.581-28.973l9.783,0.472
		l1.732,0.085c0.524,0.022,1.055,0.011,1.591-0.032c7.071-0.577,12.336-6.778,11.759-13.849
		c-0.577-7.071-6.778-12.336-13.849-11.759l-46.56,3.801l-1.266,0.102c-4.804,0.387-8.689,4.29-8.927,9.232
		c-0.259,5.369,3.883,9.93,9.252,10.189l18.815,0.907l-9.895,21.111l-73.048-6.983l6.65-24.962
		c-0.419-1.422-1.217-2.702-2.307-3.706l-10.134-9.326l14.31,0.69l1.359,0.066c0.411,0.017,0.827,0.009,1.248-0.025
		c5.547-0.453,9.676-5.316,9.223-10.863c-0.453-5.547-5.316-9.676-10.863-9.223l-36.521,2.981l-0.993,0.08
		c-3.768,0.303-6.815,3.365-7.002,7.241c-0.078,1.612,0.353,3.129,1.147,4.401c0.441,1.064,1.106,2.054,2.01,2.886l23.469,21.598
		l-6.756,24.601l-12.126,19.753c-23.009-10.634-50.008-11.919-73.338-1.908c-4.497,1.93-6.578,7.139-4.648,11.636
		c0.809,1.886,2.2,3.341,3.87,4.259c-24.05,12.442-40.498,37.53-40.498,66.476c0,41.321,33.497,74.819,74.819,74.819
		s74.819-33.497,74.819-74.819c0-15.515-4.723-29.926-12.809-41.876c1.025,0.396,2.11,0.609,3.202,0.609
		c1.987,0,3.986-0.665,5.637-2.029c3.773-3.116,4.306-8.701,1.19-12.474c-5.274-6.386-11.376-11.915-18.041-16.551l7.207-11.74
		l42.243,61.127l-3.3,7.652c-6.57,1.692-11.432,7.639-11.432,14.738c0,8.414,6.821,15.236,15.235,15.236
		c5.371,0,10.083-2.786,12.796-6.985l21.458,0.106c3.907,37.649,35.729,67.005,74.412,67.005c41.321,0,74.819-33.497,74.819-74.819
		C436.234,283.172,427.789,264.404,414.155,250.852z M148.799,358.06c-29.856,0-54.145-24.289-54.145-54.145
		s24.289-54.145,54.145-54.145c7.454,0,14.561,1.515,21.029,4.251l-25.923,42.227c-2.528,1.617-4.209,4.443-4.209,7.667
		c0,5.027,4.075,9.103,9.103,9.103c4.729,0,8.613-3.606,9.058-8.219l25.898-42.187c11.726,9.94,19.189,24.762,19.189,41.302
		C202.944,333.77,178.654,358.06,148.799,358.06z M344.912,295.651l-36.98-0.183c1.778-11.298,7.066-21.44,14.704-29.287
		L344.912,295.651z M310.055,249.536c-12.487,11.799-20.911,27.841-22.958,45.829l-21.467-0.106
		c-0.241-0.382-0.499-0.751-0.772-1.109l30.208-64.445L310.055,249.536z M226.328,214.695l55.227,5.279l-20.846,44.472
		L226.328,214.695z M361.415,358.06c-27.166,0-49.717-20.113-53.561-46.229l49.693,0.246c1.174,0.557,2.482,0.879,3.868,0.879
		c4.993,0,9.041-4.048,9.041-9.041c0-3.472-1.959-6.482-4.83-7.997l-29.953-39.626c7.661-4.158,16.431-6.522,25.743-6.522
		c29.856,0,54.145,24.289,54.145,54.145S391.271,358.06,361.415,358.06z"/>
</g>
<g id="Layer_1">
</g>
</svg>
