<?xml version="1.0" encoding="utf-8"?>
<!-- Generator: Adobe Illustrator 18.0.0, SVG Export Plug-In . SVG Version: 6.00 Build 0)  -->
<!DOCTYPE svg PUBLIC "-//W3C//DTD SVG 1.1//EN" "http://www.w3.org/Graphics/SVG/1.1/DTD/svg11.dtd">
<svg version="1.1" id="Layer_1" xmlns="http://www.w3.org/2000/svg" xmlns:xlink="http://www.w3.org/1999/xlink" x="0px" y="0px"
	 width="511.9px" height="511.9px" viewBox="0 0 511.9 511.9" enable-background="new 0 0 511.9 511.9" xml:space="preserve">
<path fill="#00BEEA" d="M81.3,224.7l-29.2,36.9c-9.8,10.5-26.3,11-36.9,1.2c-10.5-9.8-11-26.3-1.2-36.9c3.7-3.9,8.2-6.4,13.1-7.6
	l46.5-6.8c4.3-1,8.5,1.7,9.5,5.9C83.9,220.1,83,222.8,81.3,224.7z"/>
<path fill="#00BEEA" d="M434.9,231.8l29.2,36.9c9.8,10.5,26.3,11,36.9,1.2c10.5-9.8,11-26.3,1.2-36.9c-3.7-3.9-8.2-6.4-13.1-7.6
	l-46.5-6.8c-4.3-1-8.5,1.7-9.5,5.9C432.4,227.2,433.2,229.9,434.9,231.8z"/>
</svg>
