<svg xmlns="http://www.w3.org/2000/svg" viewBox="0 0 512 512" enable-background="new 0 0 512 512"><path fill="#00B1FF" d="M126.25 296.005V357.9c0 3.976-3.224 7.2-7.2 7.2H29.602v-76.296h89.448c3.977 0 7.2 3.224 7.2 7.2zm77.296 37.105v-37.106c0-3.976-3.224-7.2-7.2-7.2H159.24c-3.976 0-7.2 3.224-7.2 7.2v37.106c0 3.976 3.224 7.2 7.2 7.2h37.106c3.976 0 7.2-3.223 7.2-7.2zm67.866 0v-37.106c0-3.976-3.224-7.2-7.2-7.2h-37.106c-3.976 0-7.2 3.224-7.2 7.2v37.106c0 3.976 3.224 7.2 7.2 7.2h37.106c3.976 0 7.2-3.223 7.2-7.2zm119.616 0v-37.106c0-3.976-3.224-7.2-7.2-7.2h-37.106c-3.976 0-7.2 3.224-7.2 7.2v37.106c0 3.976 3.224 7.2 7.2 7.2h37.106c3.976 0 7.2-3.223 7.2-7.2zm103.248 0v-37.106c0-3.976-3.224-7.2-7.2-7.2H449.97c-3.976 0-7.2 3.224-7.2 7.2v37.106c0 3.976 3.224 7.2 7.2 7.2h37.106c3.977 0 7.2-3.223 7.2-7.2z"/></svg>