<?xml version="1.0" encoding="utf-8"?>
<!-- Generator: Adobe Illustrator 18.0.0, SVG Export Plug-In . SVG Version: 6.00 Build 0)  -->
<!DOCTYPE svg PUBLIC "-//W3C//DTD SVG 1.1 Tiny//EN" "http://www.w3.org/Graphics/SVG/1.1/DTD/svg11-tiny.dtd">
<svg version="1.1" baseProfile="tiny" id="Layer_1" xmlns="http://www.w3.org/2000/svg" xmlns:xlink="http://www.w3.org/1999/xlink"
	 x="0px" y="0px" width="513px" height="511.9px" viewBox="0 0 513 511.9" xml:space="preserve">
<path fill="#FFFFFF" d="M177.1,239.7c-0.2-1.8-1.7-3.3-3.6-3.3c-1.9,0-3.4,1.5-3.6,3.3h0v5.1h0v0c0,2,1.6,3.6,3.6,3.6
	c2,0,3.6-1.6,3.6-3.6v0l0,0L177.1,239.7L177.1,239.7z"/>
<path fill="#FFFFFF" d="M334.5,239.7c-0.2-1.8-1.7-3.3-3.6-3.3c-1.9,0-3.4,1.5-3.6,3.3h0v5.1h0v0c0,2,1.6,3.6,3.6,3.6
	c2,0,3.6-1.6,3.6-3.6v0l0,0L334.5,239.7L334.5,239.7z"/>
</svg>
