<?xml version="1.0" encoding="utf-8"?>
<!-- Generator: Adobe Illustrator 18.0.0, SVG Export Plug-In . SVG Version: 6.00 Build 0)  -->
<!DOCTYPE svg PUBLIC "-//W3C//DTD SVG 1.1 Tiny//EN" "http://www.w3.org/Graphics/SVG/1.1/DTD/svg11-tiny.dtd">
<svg version="1.1" baseProfile="tiny" id="Layer_1" xmlns="http://www.w3.org/2000/svg" xmlns:xlink="http://www.w3.org/1999/xlink"
	 x="0px" y="0px" width="511.9px" height="511.9px" viewBox="0 0 511.9 511.9" xml:space="preserve">
<path fill="#2B3B47" d="M221.5,322c0,0,4.3-2.3,10.8-3.9c1.6-0.4,3.4-0.9,5.2-1.2c1.9-0.3,3.8-0.8,5.8-0.9c4-0.6,8.4-0.8,12.7-0.9
	c2.2-0.1,4.3,0.1,6.4,0.2c2.1,0,4.2,0.3,6.2,0.6c4,0.4,7.8,1.2,11.1,2.1c6.5,1.7,10.8,4,10.8,4l3.2,1.8c3.2,1.8,4.4,5.9,2.6,9.1
	c-1.2,2.2-3.5,3.5-5.9,3.5h-69.1c-3.7,0-6.7-3-6.7-6.7c0-2.6,1.5-4.8,3.6-6L221.5,322z"/>
<path fill="#2B3B47" d="M146.1,189.5c13.4,0,24.2,10.8,24.2,24.2v54.3c0,5.5-48.5,5.5-48.5,0v-54.3
	C121.9,200.4,132.7,189.5,146.1,189.5L146.1,189.5z"/>
<path fill="#2B3B47" d="M341.5,268.1v-54.3c0-13.4,10.8-24.2,24.2-24.2l0,0c13.4,0,24.2,10.8,24.2,24.2v54.3"/>
</svg>
