<?xml version="1.0" encoding="iso-8859-1"?>
<!-- Generator: Adobe Illustrator 18.1.0, SVG Export Plug-In . SVG Version: 6.00 Build 0)  -->
<!DOCTYPE svg PUBLIC "-//W3C//DTD SVG 1.1//EN" "http://www.w3.org/Graphics/SVG/1.1/DTD/svg11.dtd">
<svg version="1.1" xmlns="http://www.w3.org/2000/svg" xmlns:xlink="http://www.w3.org/1999/xlink" x="0px" y="0px"
	 viewBox="0 0 512 512" enable-background="new 0 0 512 512" xml:space="preserve">
<g id="Layer_2">
	<path fill="#76DFFF" d="M198.566,288.721c-3.607,0-7.186-1.551-9.662-4.549c-13.795-16.703-33.46-29.026-55.374-34.699
		c-22.096-5.721-45.059-4.24-64.658,4.17c-6.354,2.726-13.718-0.214-16.445-6.57c-2.727-6.355,0.214-13.718,6.57-16.445
		c50.554-21.693,113.309-5.881,149.216,37.596c4.404,5.332,3.651,13.225-1.681,17.629
		C204.199,287.78,201.374,288.721,198.566,288.721z M493.943,267.698c4.338-5.386,3.488-13.268-1.897-17.606
		c-43.915-35.372-108.567-38.245-153.727-6.832c-5.677,3.949-7.078,11.753-3.129,17.43c3.949,5.678,11.755,7.078,17.43,3.129
		c17.508-12.178,39.706-18.244,62.498-17.083c22.606,1.152,44.348,9.271,61.219,22.859c2.314,1.864,5.09,2.771,7.847,2.771
		C487.843,272.366,491.47,270.77,493.943,267.698z"/>
</g>
<g id="Layer_3">
	<path fill="#00B1FF" d="M416.114,340.069l-91.899-121.577l24.525-52.323c2.71-5.783,0.22-12.667-5.562-15.377
		c-5.782-2.71-12.666-0.219-15.377,5.562l-23.353,49.822l-103.238-9.869l-10.403-35.278c-0.593-2.009-1.72-3.819-3.261-5.238
		L152.022,123.1c-4.699-4.324-12.014-4.021-16.338,0.678c-4.324,4.699-4.021,12.014,0.678,16.338l33.168,30.524l10.253,34.769
		L96.55,340.992c-3.341,5.442-1.638,12.562,3.805,15.904c1.887,1.158,3.975,1.71,6.038,1.71c3.887,0,7.683-1.96,9.865-5.515
		l76.645-124.85l59.701,86.39l-11.672,27.063c-0.038,0.089-0.062,0.182-0.098,0.272c-0.117,0.291-0.223,0.582-0.315,0.877
		c-0.042,0.134-0.082,0.267-0.119,0.402c-0.09,0.33-0.163,0.661-0.223,0.994c-0.017,0.096-0.04,0.191-0.054,0.288
		c-0.135,0.879-0.165,1.761-0.097,2.631c0.009,0.113,0.025,0.226,0.037,0.339c0.034,0.319,0.08,0.635,0.141,0.949
		c0.026,0.135,0.053,0.27,0.083,0.404c0.073,0.317,0.16,0.629,0.259,0.938c0.034,0.106,0.061,0.213,0.098,0.318
		c0.143,0.407,0.307,0.806,0.495,1.195c0.036,0.074,0.079,0.144,0.116,0.217c0.164,0.323,0.343,0.639,0.538,0.946
		c0.029,0.046,0.05,0.095,0.08,0.141c0.038,0.057,0.084,0.107,0.122,0.164c0.194,0.286,0.401,0.563,0.622,0.832
		c0.064,0.078,0.125,0.159,0.192,0.235c0.573,0.664,1.226,1.268,1.955,1.796c0.089,0.064,0.182,0.121,0.273,0.182
		c0.264,0.18,0.535,0.352,0.818,0.512c0.138,0.078,0.278,0.15,0.419,0.223c0.124,0.064,0.241,0.136,0.369,0.196
		c0.122,0.057,0.246,0.096,0.369,0.149c0.178,0.076,0.355,0.149,0.537,0.216c0.264,0.098,0.528,0.181,0.795,0.259
		c0.159,0.046,0.316,0.094,0.477,0.133c0.318,0.078,0.637,0.136,0.958,0.186c0.121,0.019,0.239,0.044,0.361,0.059
		c0.468,0.058,0.937,0.094,1.404,0.094c0.022,0,0.044-0.002,0.067-0.002l155.225,0.767c0.02,0,0.038,0,0.058,0
		c4.375,0,8.379-2.471,10.339-6.386C419.199,348.287,418.767,343.578,416.114,340.069z M215.974,220.95l78.051,7.461l-29.461,62.852
		L215.974,220.95z M269.697,334.801l43.422-92.638l70.449,93.2L269.697,334.801z"/>
</g>
<g id="Layer_4">
	<path fill="#464A4C" d="M106.404,241.302c-58.399,0-105.74,47.342-105.74,105.74s47.341,105.74,105.74,105.74
		s105.74-47.341,105.74-105.74S164.803,241.302,106.404,241.302L106.404,241.302z M106.404,270.52
		c42.195,0,76.523,34.328,76.523,76.523s-34.328,76.523-76.523,76.523s-76.523-34.328-76.523-76.523S64.209,270.52,106.404,270.52
		 M406.891,241.302c-58.399,0-105.74,47.342-105.74,105.74s47.341,105.74,105.74,105.74s105.74-47.341,105.74-105.74
		S465.29,241.302,406.891,241.302L406.891,241.302z M406.891,270.52c42.195,0,76.523,34.328,76.523,76.523
		s-34.328,76.523-76.523,76.523s-76.523-34.328-76.523-76.523S364.696,270.52,406.891,270.52 M183.404,148.524
		c-50.608,0-66.799-21.862-68.479-24.354c-2.586-3.839-2.844-8.792-0.67-12.878c2.174-4.087,6.426-6.641,11.055-6.641h35.373
		c6.916,0,12.522,5.606,12.522,12.522c0,2.101-0.517,4.08-1.431,5.818c3.545,0.312,7.414,0.49,11.63,0.49
		c6.916,0,12.522,5.606,12.522,12.522S190.32,148.524,183.404,148.524z M119.269,347.042c0,7.105-5.76,12.865-12.865,12.865
		s-12.865-5.76-12.865-12.865s5.76-12.865,12.865-12.865S119.269,339.937,119.269,347.042z M419.668,347.042
		c0,7.057-5.721,12.777-12.777,12.777c-7.057,0-12.777-5.72-12.777-12.777s5.721-12.777,12.777-12.777
		C413.948,334.265,419.668,339.986,419.668,347.042z M293.173,147.466l65.803-5.372c9.994-0.816,18.757,6.625,19.573,16.618
		c0.816,9.994-6.625,18.757-16.618,19.573c-0.757,0.062-1.508,0.076-2.248,0.046l-2.448-0.12l-65.392-3.154
		c-7.587-0.366-13.441-6.813-13.075-14.4c0.337-6.985,5.827-12.5,12.617-13.047L293.173,147.466z"/>
</g>
<g id="Layer_5">
	<circle fill="#597B91" cx="251.549" cy="346.274" r="24.348"/>
</g>
</svg>
