<?xml version="1.0" encoding="iso-8859-1"?>
<!-- Generator: Adobe Illustrator 18.1.0, SVG Export Plug-In . SVG Version: 6.00 Build 0)  -->
<!DOCTYPE svg PUBLIC "-//W3C//DTD SVG 1.1//EN" "http://www.w3.org/Graphics/SVG/1.1/DTD/svg11.dtd">
<svg version="1.1" xmlns="http://www.w3.org/2000/svg" xmlns:xlink="http://www.w3.org/1999/xlink" x="0px" y="0px"
	 viewBox="0 0 512 512" enable-background="new 0 0 512 512" xml:space="preserve">
<g id="Layer_2">
	<path fill="#C7CFD3" d="M432.26,373.066c-44.41-15.875-107.938-25.818-178.5-25.818s-134.091,9.943-178.5,25.818H10.657v54.558
		C10.657,472.014,119.498,508,253.76,508s243.104-35.986,243.104-80.376v-54.558H432.26z"/>
</g>
<g id="Layer_3">
	<path fill="#FF473E" d="M421.445,76.063H253.76h-14H86.075c0,0-75.418,197.371-75.418,297.003
		c0,44.391,108.841,80.376,243.104,80.376s243.104-35.986,243.104-80.376C496.864,273.434,421.445,76.063,421.445,76.063z"/>
</g>
<g id="Layer_4">
	<ellipse fill="#FF6E83" cx="253.76" cy="76.063" rx="167.685" ry="34.724"/>
</g>
<g id="Layer_5">
	<path fill="#FFA9BA" d="M509.185,97.227c-38.543,7.643-68.91,38.009-76.553,76.551c-0.419,2.11-3.31,2.11-3.728,0
		c-7.643-38.542-38.01-68.907-76.553-76.551c-2.11-0.419-2.11-3.31,0-3.729c38.543-7.643,68.91-38.01,76.553-76.552
		c0.419-2.11,3.31-2.11,3.728,0c7.644,38.541,38.01,68.908,76.553,76.552C511.295,93.918,511.295,96.809,509.185,97.227z
		 M55.335,283.043c-0.939,5.876,2.197,11.653,7.652,14.03c6.793,2.96,17.419,6.998,31.848,10.762
		c19.065,4.974,36.7,6.457,45.521,6.899c3.335,0.167,6.238-2.253,6.689-5.561c3.665-26.856,19.092-139.851,23.12-168.541
		c0.504-3.591-2.053-6.888-5.656-7.289c-7.103-0.79-18.904-2.293-30.255-4.592c-11.417-2.313-22.667-5.49-29.306-7.485
		c-3.368-1.012-6.923,0.873-7.987,4.226C89.559,148.832,63.232,233.61,55.335,283.043z"/>
</g>
</svg>
