<?xml version="1.0" encoding="utf-8"?>
<!-- Generator: Adobe Illustrator 18.0.0, SVG Export Plug-In . SVG Version: 6.00 Build 0)  -->
<!DOCTYPE svg PUBLIC "-//W3C//DTD SVG 1.1 Tiny//EN" "http://www.w3.org/Graphics/SVG/1.1/DTD/svg11-tiny.dtd">
<svg version="1.1" baseProfile="tiny" id="Layer_1" xmlns="http://www.w3.org/2000/svg" xmlns:xlink="http://www.w3.org/1999/xlink"
	 x="0px" y="0px" width="511.9px" height="511.9px" viewBox="0 0 511.9 511.9" xml:space="preserve">
<path fill="#F2A74E" d="M118.2,170c-2,0-4-0.8-5.5-2.3c-3-3-2.9-7.9,0.1-10.9c15.4-15,39.6-17.3,57.5-5.5c3.5,2.3,4.5,7.1,2.2,10.7
	c-2.3,3.5-7.1,4.5-10.7,2.2c-11.9-7.9-28-6.3-38.3,3.7C122,169.3,120.1,170,118.2,170z"/>
<path fill="#F2A74E" d="M388.4,170c-1.9,0-3.9-0.7-5.4-2.2c-10.3-10-26.4-11.6-38.3-3.7c-3.6,2.3-8.3,1.4-10.7-2.2
	c-2.3-3.5-1.4-8.3,2.2-10.7c17.9-11.8,42.1-9.4,57.5,5.6c3,3,3.1,7.8,0.1,10.9C392.4,169.3,390.4,170,388.4,170z"/>
<path fill="#F2A74E" d="M124,300.1c-2.8,0-5.6-1.6-6.9-4.3c-1.9-3.8-0.3-8.4,3.5-10.3c16.2-8,34.7-8.3,50.8-0.7
	c3.8,1.8,5.5,6.4,3.6,10.2c-1.8,3.8-6.4,5.5-10.3,3.6c-11.8-5.6-25.4-5.4-37.3,0.5C126.3,299.8,125.1,300.1,124,300.1z"/>
<path fill="#F2A74E" d="M343.8,300.1c-2.8,0-5.6-1.6-6.9-4.3c-1.9-3.8-0.3-8.4,3.5-10.3c16.2-8,34.7-8.3,50.8-0.7
	c3.8,1.8,5.5,6.4,3.6,10.2c-1.8,3.8-6.4,5.5-10.2,3.6c-11.8-5.6-25.4-5.4-37.3,0.5C346.1,299.8,345,300.1,343.8,300.1z"/>
</svg>
