<?xml version="1.0" encoding="utf-8"?>
<!-- Generator: Adobe Illustrator 18.0.0, SVG Export Plug-In . SVG Version: 6.00 Build 0)  -->
<!DOCTYPE svg PUBLIC "-//W3C//DTD SVG 1.1//EN" "http://www.w3.org/Graphics/SVG/1.1/DTD/svg11.dtd">
<svg version="1.1" id="Layer_1" xmlns="http://www.w3.org/2000/svg" xmlns:xlink="http://www.w3.org/1999/xlink" x="0px" y="0px"
	 width="511.9px" height="511.9px" viewBox="0 0 511.9 511.9" enable-background="new 0 0 511.9 511.9" xml:space="preserve">
<path fill="#D32A2A" d="M341.9,239.2c-3.6,0-7-2.2-8.3-5.8c-1.7-4.6,0.6-9.7,5.2-11.4l69.2-25.7c4.6-1.7,9.7,0.6,11.4,5.2
	c1.7,4.6-0.6,9.7-5.2,11.4L345,238.6C344,239,342.9,239.2,341.9,239.2z"/>
<path fill="#D32A2A" d="M170,239.2c-1,0-2.1-0.2-3.1-0.6l-69.2-25.7c-4.6-1.7-7-6.8-5.2-11.4c1.7-4.6,6.8-6.9,11.4-5.2l69.2,25.7
	c4.6,1.7,7,6.8,5.2,11.4C177,237,173.7,239.2,170,239.2z"/>
</svg>
