<?xml version="1.0" encoding="iso-8859-1"?>
<!-- Generator: Adobe Illustrator 18.1.1, SVG Export Plug-In . SVG Version: 6.00 Build 0)  -->
<!DOCTYPE svg PUBLIC "-//W3C//DTD SVG 1.1//EN" "http://www.w3.org/Graphics/SVG/1.1/DTD/svg11.dtd">
<svg version="1.1" xmlns="http://www.w3.org/2000/svg" xmlns:xlink="http://www.w3.org/1999/xlink" x="0px" y="0px"
	 viewBox="0 0 512 512" enable-background="new 0 0 512 512" xml:space="preserve">
<g id="Layer_22">
	<path fill="#FFD3B6" d="M265.302,180.523c-5.921,4.143-13.848,5.043-20.814,1.668c-1.374-0.665-2.63-1.472-3.781-2.38
		c-0.137,0.949-0.277,1.899-0.413,2.848l-2.437,17.324l-2.365,17.33v0l-55.094,30.283c-0.977-0.077-1.935,0.048-2.832,0.335
		c-0.826-0.626-1.764-1.131-2.809-1.46l-3.218-1.013c-1.07-0.346-2.153-0.653-3.23-0.976c-1.076-0.326-2.159-0.635-3.244-0.933
		c-1.083-0.307-2.172-0.593-3.266-0.866c-4.188-1.051-8.626,1.095-10.327,5.203c-0.126,0.304-0.23,0.611-0.32,0.92
		c-4.253,1.505-6.685,6.057-5.47,10.474c0.634,2.306,1.249,4.617,1.947,6.908l0.312,1.027c1.268,4.14,5.575,6.601,9.821,5.532
		c3.259-0.821,6.502-1.725,9.724-2.731c0.807-0.243,1.607-0.525,2.411-0.785c0.803-0.263,1.606-0.528,2.403-0.822
		c1.599-0.564,3.191-1.162,4.768-1.84c2.034-0.877,3.531-2.768,3.859-5.042c14.192-3.62,77.966-20.507,77.966-31.686l1.461-9.054
		l0,0l2.547-17.19l2.617-17.175c0.357-2.3,0.718-4.598,1.081-6.895C266.177,179.875,265.748,180.211,265.302,180.523z"/>
</g>
<g id="Layer_1">
</g>
</svg>
