<?xml version="1.0" encoding="utf-8"?>
<!-- Generator: Adobe Illustrator 18.0.0, SVG Export Plug-In . SVG Version: 6.00 Build 0)  -->
<!DOCTYPE svg PUBLIC "-//W3C//DTD SVG 1.1 Tiny//EN" "http://www.w3.org/Graphics/SVG/1.1/DTD/svg11-tiny.dtd">
<svg version="1.1" baseProfile="tiny" id="Layer_1" xmlns="http://www.w3.org/2000/svg" xmlns:xlink="http://www.w3.org/1999/xlink"
	 x="0px" y="0px" width="511.9px" height="511.9px" viewBox="0 0 511.9 511.9" xml:space="preserve">
<path fill="#00BEEA" d="M255.9,35.3C134,35.3,35.2,134.1,35.2,256c0,3.3,0.1,6.6,0.2,9.9c-12.8,1.7-22.8,12.6-22.8,25.9
	c0,14.5,11.7,26.2,26.2,26.2h5.2c26.8,91.7,111.4,158.7,211.7,158.7c121.8,0,220.6-98.8,220.6-220.6
	C476.5,134.1,377.7,35.3,255.9,35.3z"/>
<path fill="#2B3B47" d="M312.6,350.4c-5.7-6.5-22.3-21.2-56.7-21.2c-41.7,0-57.2,21.5-58.9,24c-4.1,6.1-4,14,0.2,20
	c4.1,6,11.6,8.9,18.7,7.2c0.1,0,13.2-3,37.7-3c25.1,0,42.7,3.1,43.2,3.1c1.1,0.2,2.1,0.3,3.2,0.3c0.1,0,0.1,0,0.2,0
	c9.8,0,17.8-8,17.8-17.8C318,358.1,315.9,353.6,312.6,350.4z"/>
<path fill="#2B3B47" d="M146.1,195.8c13.4,0,24.2,10.8,24.2,24.2v54.3c0,13.4-10.8,10.1-24.2,10.1l0,0c-13.4,0-24.2,3.3-24.2-10.1
	V220C121.9,206.6,132.8,195.8,146.1,195.8L146.1,195.8z"/>
<path fill="#2B3B47" d="M365.8,195.8c13.4,0,24.2,10.8,24.2,24.2v54.3c0,13.4-10.8,10.1-24.2,10.1l0,0c-13.4,0-24.2,3.3-24.2-10.1
	V220C341.5,206.6,352.4,195.8,365.8,195.8L365.8,195.8z"/>
<path fill="#009AAF" d="M140.6,182.3c-11.4,0-22.8-4.1-31.6-12.4c-3.1-2.9-3.2-7.8-0.3-10.9c2.9-3.1,7.8-3.2,10.9-0.3
	c11.6,11,30.6,10.9,42.2-0.2c3.1-2.9,7.9-2.8,10.9,0.2c2.9,3.1,2.8,7.9-0.2,10.9C163.6,178.1,152.1,182.3,140.6,182.3z"/>
<path fill="#009AAF" d="M373.5,184.9c-12.9,0-25.8-5.3-34.7-15.5c-2.8-3.2-2.5-8.1,0.7-10.9c3.2-2.8,8-2.5,10.9,0.7
	c10.6,12.1,29.4,13.8,42,3.8c3.3-2.6,8.2-2.1,10.8,1.3c2.6,3.3,2.1,8.2-1.3,10.8C393.6,181.7,383.5,184.9,373.5,184.9z"/>
<path fill="#009AAF" d="M170.2,292.1H122c-4.2,0-7.7-3.4-7.7-7.7c0-4.2,3.4-7.7,7.7-7.7h48.2c4.2,0,7.7,3.4,7.7,7.7
	C177.9,288.7,174.5,292.1,170.2,292.1z"/>
<path fill="#009AAF" d="M389.9,292.1h-48.2c-4.2,0-7.7-3.4-7.7-7.7c0-4.2,3.4-7.7,7.7-7.7h48.2c4.2,0,7.7,3.4,7.7,7.7
	C397.6,288.7,394.1,292.1,389.9,292.1z"/>
<path fill="#FFFFFF" d="M130.2,308l18.9,47.6c4.5,15-3.9,30.9-18.9,35.4c-15,4.6-30.9-3.9-35.4-18.9c-1.7-5.6-1.6-11.3,0-16.5
	l18.9-47.6c1.4-4.6,6.2-7.1,10.8-5.8C127.3,303.1,129.4,305.3,130.2,308z"/>
<path fill="#00ADC9" d="M476.2,265.8c0.1-3.3,0.2-6.6,0.2-9.9c0-58.9-23.1-112.5-60.8-152c21.3,34.5,33.6,75.2,33.6,118.8
	c0,125.2-101.5,226.7-226.7,226.7c-43.6,0-84.2-12.3-118.8-33.6c39.6,37.7,93.1,60.8,152,60.8c100.3,0,185-67,211.7-158.7h5.2
	c14.5,0,26.2-11.7,26.2-26.2C499,278.4,489.1,267.5,476.2,265.8z"/>
</svg>
