<svg xmlns="http://www.w3.org/2000/svg" viewBox="0 0 512 512" enable-background="new 0 0 512 512"><path fill="#76DFFF" d="M198.566 288.72c-3.607 0-7.186-1.55-9.662-4.548-13.795-16.703-33.46-29.026-55.374-34.7-22.096-5.72-45.06-4.24-64.658 4.17-6.354 2.727-13.718-.213-16.445-6.57-2.727-6.354.214-13.717 6.57-16.444 50.554-21.693 113.31-5.88 149.216 37.596 4.404 5.332 3.65 13.225-1.68 17.63-2.334 1.926-5.16 2.867-7.967 2.867zM493.943 267.7c4.338-5.386 3.488-13.268-1.897-17.606-43.915-35.372-108.567-38.245-153.727-6.832-5.678 3.95-7.08 11.753-3.13 17.43 3.95 5.678 11.755 7.078 17.43 3.13 17.508-12.18 39.706-18.245 62.498-17.084 22.606 1.152 44.348 9.27 61.22 22.86 2.313 1.863 5.09 2.77 7.846 2.77 3.66 0 7.286-1.596 9.76-4.668z"/></svg>