<?xml version="1.0" encoding="utf-8"?>
<!-- Generator: Adobe Illustrator 18.0.0, SVG Export Plug-In . SVG Version: 6.00 Build 0)  -->
<!DOCTYPE svg PUBLIC "-//W3C//DTD SVG 1.1 Tiny//EN" "http://www.w3.org/Graphics/SVG/1.1/DTD/svg11-tiny.dtd">
<svg version="1.1" baseProfile="tiny" id="Layer_1" xmlns="http://www.w3.org/2000/svg" xmlns:xlink="http://www.w3.org/1999/xlink"
	 x="0px" y="0px" width="511.9px" height="511.9px" viewBox="0 0 511.9 511.9" xml:space="preserve">
<path fill="#FFD469" d="M255.9,35.4C134,35.4,35.2,134.2,35.2,256c0,3.3,0.1,6.6,0.2,9.9c-12.8,1.7-22.8,12.6-22.8,25.9
	c0,14.5,11.7,26.2,26.2,26.2h5.2c26.8,91.7,111.4,158.7,211.7,158.7c121.8,0,220.6-98.8,220.6-220.6
	C476.5,134.2,377.7,35.4,255.9,35.4z"/>
<path fill="#FFB636" d="M476.2,265.8c0.1-3.3,0.2-6.5,0.2-9.8c0-58.9-23.1-112.5-60.8-152c21.3,34.5,33.6,75.2,33.6,118.8
	c0,125.2-101.5,226.7-226.7,226.7c-43.6,0-84.2-12.3-118.8-33.6c39.6,37.7,93.1,60.8,152,60.8c100.3,0,185-67,211.7-158.7h5.2
	c14.5,0,26.2-11.7,26.2-26.2C499,278.4,489.1,267.5,476.2,265.8z"/>
<path fill="#2B3B47" d="M146.5,196.4c13.4,0,24.2,10.8,24.2,24.2v54.3c0,13.4-10.8,24.2-24.2,24.2l0,0c-13.4,0-24.2-10.8-24.2-24.2
	v-54.3C122.2,207.2,133.1,196.4,146.5,196.4L146.5,196.4z"/>
<path fill="#2B3B47" d="M366.1,196.4c13.4,0,24.2,10.8,24.2,24.2v54.3c0,13.4-10.8,24.2-24.2,24.2l0,0c-13.4,0-24.2-10.8-24.2-24.2
	v-54.3C341.9,207.2,352.7,196.4,366.1,196.4L366.1,196.4z"/>
</svg>
