<?xml version="1.0" encoding="utf-8"?>
<!-- Generator: Adobe Illustrator 18.1.0, SVG Export Plug-In . SVG Version: 6.00 Build 0)  -->
<!DOCTYPE svg PUBLIC "-//W3C//DTD SVG 1.0//EN" "http://www.w3.org/TR/2001/REC-SVG-20010904/DTD/svg10.dtd">
<svg version="1.0" id="Layer_1" xmlns="http://www.w3.org/2000/svg" xmlns:xlink="http://www.w3.org/1999/xlink" x="0px" y="0px"
	 width="72px" height="72px" viewBox="0 0 72 72" enable-background="new 0 0 72 72" xml:space="preserve">
<path fill="#2B3B47" d="M35.9,37.1c1.9,0,3.4,1.5,3.4,3.4v4.3c0,1.9-1.5,3.4-3.4,3.4l0,0c-1.9,0-3.4-1.5-3.4-3.4v-4.3
	C32.5,38.6,34,37.1,35.9,37.1L35.9,37.1z"/>
<path fill="#2B3B47" d="M62,45.2c0,0,0.8,0,1.6,0.1c2.9,0,1.6,5.6,1.6,5.6s-0.2,0.4-0.5,0.7c-0.2,0.1-0.3,0.3-0.5,0.3
	c-0.2,0-0.4,0.2-0.6,0.1c-0.2,0-0.4-0.1-0.6-0.1c-0.2-0.1-0.4-0.3-0.5-0.4c-0.3-0.3-0.5-0.6-0.5-0.6L60.3,48c-0.5-0.9-0.2-2,0.6-2.6
	C61.3,45.2,61.6,45.2,62,45.2z"/>
<path fill="#2B3B47" d="M62.2,54.2c-1.3-0.1-2.7,0.6-4,2.1c-0.3,0.3-0.3,0.8,0.1,1.1c0.1,0.1,0.3,0.2,0.5,0.2c0.2,0,0.4-0.1,0.6-0.3
	c0.9-1.1,1.9-1.6,2.7-1.6c0,0,0.1,0,0.1,0c0.7,0,1.2,0.5,1.5,0.7c0.3-0.4,0.5-0.9,0.7-1.4C63.8,54.7,63.1,54.2,62.2,54.2z"/>
<path fill="#2B3B47" d="M18.3,22.7C16.9,17.1,15,7.9,18.3,7c-4.8,1.3-5.4,18.1-5.5,20.6C14.5,25.7,16.3,24,18.3,22.7z"/>
<path fill="#2B3B47" d="M27.3,18.7c1.4-0.4,3-0.7,4.6-0.9c-0.3-5.2-0.2-13.7,3-13.9c-3.2,0.2-6.3,8.3-8,13.6
	C27.1,18,27.2,18.4,27.3,18.7z"/>
</svg>
