<?xml version="1.0" encoding="utf-8"?>
<!-- Generator: Adobe Illustrator 18.0.0, SVG Export Plug-In . SVG Version: 6.00 Build 0)  -->
<!DOCTYPE svg PUBLIC "-//W3C//DTD SVG 1.1 Tiny//EN" "http://www.w3.org/Graphics/SVG/1.1/DTD/svg11-tiny.dtd">
<svg version="1.1" baseProfile="tiny" id="Layer_1" xmlns="http://www.w3.org/2000/svg" xmlns:xlink="http://www.w3.org/1999/xlink"
	 x="0px" y="0px" width="511.9px" height="511.9px" viewBox="0 0 511.9 511.9" xml:space="preserve">
<path fill="#F2A74E" d="M348.2,279.3c-2.9,0-5.8-1.6-7.2-4.4c-2-4-0.3-8.8,3.6-10.7c17-8.4,36.4-8.7,53.3-0.7
	c4,1.9,5.7,6.7,3.8,10.7c-1.9,4-6.7,5.7-10.7,3.8c-12.4-5.9-26.8-5.7-39.3,0.6C350.6,279,349.4,279.3,348.2,279.3z"/>
<path fill="#F2A74E" d="M117.3,279.3c-2.9,0-5.8-1.6-7.2-4.4c-2-4-0.4-8.8,3.6-10.7c17-8.4,36.4-8.7,53.3-0.7
	c4,1.9,5.7,6.7,3.8,10.7c-1.9,4-6.7,5.7-10.7,3.8c-12.4-5.9-26.7-5.7-39.3,0.6C119.7,279,118.5,279.3,117.3,279.3z"/>
</svg>
