<?xml version="1.0" encoding="iso-8859-1"?>
<!-- Generator: Adobe Illustrator 18.1.1, SVG Export Plug-In . SVG Version: 6.00 Build 0)  -->
<!DOCTYPE svg PUBLIC "-//W3C//DTD SVG 1.1//EN" "http://www.w3.org/Graphics/SVG/1.1/DTD/svg11.dtd">
<svg version="1.1" xmlns="http://www.w3.org/2000/svg" xmlns:xlink="http://www.w3.org/1999/xlink" x="0px" y="0px"
	 viewBox="0 0 512 512" enable-background="new 0 0 512 512" xml:space="preserve">
<g id="Layer_5">
	<path fill="#FFFFFF" d="M298.915,384.123c-6.235,0-11.289-5.054-11.289-11.289v-176.52l-0.019,0.009v-1.754
		c0-9.047-10.095-14.412-17.598-9.359c-16.213,10.919-43.483,24.705-81.334,26.927c-5.951,0.349-10.588,5.301-10.588,11.262v13.396
		c0,6.487,5.458,11.624,11.936,11.277c7.858-0.421,15.399-1.245,22.616-2.387c6.825-1.08,12.982,4.25,12.982,11.16v115.988
		c0,6.235-5.054,11.289-11.289,11.289h-2.963c-6.235,0-11.289,5.054-11.289,11.289v13.367c0,6.235,5.054,11.289,11.289,11.289
		h89.012c6.235,0,11.289-5.054,11.289-11.289v-13.367c0-6.235-5.054-11.289-11.289-11.289H298.915z"/>
</g>
<g id="Layer_1">
</g>
</svg>
