<?xml version="1.0" encoding="iso-8859-1"?>
<!-- Generator: Adobe Illustrator 18.1.1, SVG Export Plug-In . SVG Version: 6.00 Build 0)  -->
<!DOCTYPE svg PUBLIC "-//W3C//DTD SVG 1.1//EN" "http://www.w3.org/Graphics/SVG/1.1/DTD/svg11.dtd">
<svg version="1.1" xmlns="http://www.w3.org/2000/svg" xmlns:xlink="http://www.w3.org/1999/xlink" x="0px" y="0px"
	 viewBox="0 0 512 512" enable-background="new 0 0 512 512" xml:space="preserve">
<g id="Layer_2">
	<path fill="#597B91" d="M500.951,39.183c0-15.84-12.96-28.8-28.8-28.8H35.636c-14.256,0-25.92,11.664-25.92,25.92v439.394
		c0,14.256,11.664,25.92,25.92,25.92h436.514c15.84,0,28.8-12.96,28.8-28.8V39.183z"/>
</g>
<g id="Layer_3">
	<path fill="#2B5770" d="M475.031,10.383h-0.149v453.166c0,6.6-5.4,12-12,12H9.716v0.149c0,14.256,11.664,25.92,25.92,25.92h439.394
		c14.256,0,25.92-11.664,25.92-25.92V36.303C500.951,22.047,489.287,10.383,475.031,10.383z"/>
</g>
<g id="Layer_4">
	<path fill="#F9F9F7" d="M191.151,155.165L52.719,247c-6.44,4.272-6.44,13.727,0,17.999l138.432,91.835
		c7.179,4.762,16.77-0.385,16.77-9v-44.202c0-5.965,4.835-10.8,10.8-10.8h108.315c5.965,0,10.8-4.835,10.8-10.8v-52.067
		c0-5.965-4.835-10.8-10.8-10.8H218.721c-5.965,0-10.8-4.835-10.8-10.8v-44.202C207.922,155.55,198.33,150.403,191.151,155.165z"/>
</g>
<g id="Layer_5">
	<path fill="#F9F9F7" d="M319.516,356.835L457.948,265c6.44-4.272,6.44-13.727,0-17.999l-138.432-91.835
		c-7.179-4.762-16.77,0.385-16.77,9v44.202c0,5.965-4.835,10.8-10.8,10.8H183.631c-5.965,0-10.8,4.835-10.8,10.8v52.067
		c0,5.965,4.835,10.8,10.8,10.8h108.315c5.965,0,10.8,4.835,10.8,10.8v44.202C302.745,356.45,312.337,361.597,319.516,356.835z"/>
</g>
</svg>
