<?xml version="1.0" encoding="iso-8859-1"?>
<!-- Generator: Adobe Illustrator 18.1.1, SVG Export Plug-In . SVG Version: 6.00 Build 0)  -->
<!DOCTYPE svg PUBLIC "-//W3C//DTD SVG 1.1//EN" "http://www.w3.org/Graphics/SVG/1.1/DTD/svg11.dtd">
<svg version="1.1" xmlns="http://www.w3.org/2000/svg" xmlns:xlink="http://www.w3.org/1999/xlink" x="0px" y="0px"
	 viewBox="0 0 512 512" enable-background="new 0 0 512 512" xml:space="preserve">
<g id="Layer_4">
	<path fill="#FFFFFF" d="M385.436,377.472h-47.905c-3.852,0-7.022-3.032-7.193-6.88l-4.3-96.735
		c-0.531-12.754-1.016-25.693-1.328-38.544c-0.206-8.495-12.393-9.661-14.225-1.363L286.224,343.81
		c-0.728,3.299-3.652,5.647-7.031,5.647h-48.765c-3.341,0-6.243-2.298-7.008-5.55l-25.43-108.02
		c-1.952-8.293-14.165-6.921-14.206,1.599c-0.06,12.147-0.36,24.372-0.887,37.138l-4.297,95.97
		c-0.172,3.847-3.342,6.878-7.193,6.878h-47.524c-4.189,0-7.493-3.562-7.18-7.739l18.875-251.545
		c0.282-3.757,3.412-6.661,7.18-6.661h67.738c3.38,0,6.305,2.351,7.032,5.652l31.003,140.871c1.671,7.592,12.523,7.514,14.085-0.101
		l28.855-140.669c0.687-3.349,3.634-5.753,7.053-5.753h68.037c3.767,0,6.898,2.904,7.18,6.661l18.875,251.545
		C392.929,373.911,389.625,377.472,385.436,377.472z"/>
</g>
<g id="Layer_1">
</g>
</svg>
