<svg xmlns="http://www.w3.org/2000/svg" viewBox="0 0 512 512" enable-background="new 0 0 512 512"><path fill="#FFB636" d="M274.91 31.64l60.045 121.668c3.072 6.224 9.01 10.537 15.877 11.535l134.267 19.51c17.294 2.513 24.2 23.768 11.685 35.968l-97.157 94.706c-4.97 4.844-7.24 11.824-6.065 18.665L416.5 467.416c2.955 17.226-15.125 30.362-30.595 22.23l-120.092-63.137c-6.143-3.23-13.482-3.23-19.625 0l-120.092 63.136c-15.47 8.133-33.55-5.003-30.596-22.23l22.936-133.724c1.173-6.84-1.095-13.82-6.064-18.665L15.215 220.32c-12.517-12.198-5.61-33.453 11.685-35.966l134.267-19.51c6.868-.998 12.805-5.312 15.877-11.535L237.09 31.64c7.736-15.673 30.084-15.673 37.82 0z"/></svg>