<svg xmlns="http://www.w3.org/2000/svg" viewBox="0 0 512 512" enable-background="new 0 0 512 512"><path fill="#FF473E" d="M495.212 301.08c-28.708-104.623-121.848-181.503-235.586-181.503S50.99 196.457 22.282 301.08h.208l-.208.208c0 21.244 17.222 38.466 38.466 38.466 13.274 0 24.976-6.723 31.89-16.95 3.823-5.656 12.085-6.118 16.433-.854 9.655 11.685 24.25 19.133 40.593 19.133 18.092 0 34.046-9.13 43.52-23.03 3.87-5.68 12.143-5.87 16.51-.565 11.857 14.406 29.82 23.594 49.935 23.594 19.69 0 37.32-8.8 49.178-22.68 4.397-5.147 12.384-4.64 16.35.846 9.56 13.226 25.11 21.834 42.68 21.834 16.33 0 30.92-7.438 40.572-19.11 4.34-5.247 12.594-4.79 16.407.85 6.918 10.232 18.625 16.958 31.906 16.958 21.26 0 38.494-17.234 38.494-38.493l-.208-.208h.207z"/></svg>