<svg xmlns="http://www.w3.org/2000/svg" viewBox="0 0 512 512" enable-background="new 0 0 512 512"><path fill="#597B91" d="M279.034 106.24c-.374-10.88-9.317-19.622-20.287-19.622-10.97 0-19.913 8.742-20.287 19.62-.023.23-.036.465-.036.702v18.242c0 3.58 2.75 6.512 6.25 6.814v314.267c0 16.488-13.415 29.902-29.903 29.902s-29.9-13.414-29.9-29.902c0-8.258-6.695-14.95-14.95-14.95s-14.953 6.692-14.953 14.95c0 32.977 26.83 59.805 59.805 59.805s59.806-26.828 59.806-59.805v-314.66c2.62-.96 4.492-3.47 4.492-6.42V106.94c0-.237-.01-.47-.034-.7z"/></svg>