<?xml version="1.0" encoding="iso-8859-1"?>
<!-- Generator: Adobe Illustrator 18.1.1, SVG Export Plug-In . SVG Version: 6.00 Build 0)  -->
<!DOCTYPE svg PUBLIC "-//W3C//DTD SVG 1.1//EN" "http://www.w3.org/Graphics/SVG/1.1/DTD/svg11.dtd">
<svg version="1.1" xmlns="http://www.w3.org/2000/svg" xmlns:xlink="http://www.w3.org/1999/xlink" x="0px" y="0px"
	 viewBox="0 0 512 512" enable-background="new 0 0 512 512" xml:space="preserve">
<g id="Layer_4">
	<path fill="#E5E4DF" d="M407.562,200.84c-3.221,0-6.404,0.167-9.541,0.49l-0.147-32.874c0-0.267-0.036-0.522-0.052-0.784
		c-1.055,23.48-74.971,42.431-166.049,42.431c-91.074,0-164.991-18.951-166.048-42.429c-0.015,0.262-0.051,0.516-0.051,0.781
		l-0.996,222.418c0,0-0.244,117.698,165.344,117.698c102.788,0,143.024-45.421,158.761-79.874c0.482,0.013,0.964,0.024,1.437,0.024
		c58.949,0,85.198-31.217,96.837-57.405c12.932-29.096,12.932-61.803,12.932-83.446C499.989,238.256,460.255,200.84,407.562,200.84z
		 M449.884,354.796c-5.865,13.195-17.511,30.398-51.027,32.921l-0.651-145.332c3.037-0.557,6.161-0.864,9.357-0.864
		c14.606,0,27.887,4.695,37.395,13.22c9.39,8.418,14.353,19.875,14.353,33.131C459.31,306.077,459.31,333.589,449.884,354.796z"/>
</g>
<g id="Layer_1">
</g>
</svg>
