<svg xmlns="http://www.w3.org/2000/svg" viewBox="0 0 512 512" enable-background="new 0 0 512 512"><path fill="#59CAFC" d="M61.678 81.864l16.71 42.054c4.024 13.266-3.467 27.282-16.736 31.305-13.266 4.026-27.282-3.468-31.31-16.737-1.497-4.94-1.4-9.976 0-14.568l16.713-42.054c1.222-4.037 5.492-6.315 9.53-5.093 2.518.768 4.368 2.763 5.093 5.095zM416.93 36.836c-4.036-1.222-8.306 1.056-9.528 5.093L390.69 83.98c-1.4 4.592-1.498 9.627 0 14.568 4.026 13.27 18.043 20.765 31.31 16.738 13.268-4.023 20.76-18.04 16.736-31.305l-16.71-42.054c-.726-2.334-2.576-4.33-5.095-5.095zM189.114.036c-3.878-1.173-7.98 1.015-9.154 4.893l-16.054 40.394c-1.345 4.41-1.44 9.248 0 13.994 3.868 12.745 17.332 19.944 30.074 16.076 12.746-3.864 19.942-17.328 16.077-30.07l-16.05-40.397c-.698-2.24-2.475-4.158-4.894-4.893z"/></svg>