<?xml version="1.0" encoding="iso-8859-1"?>
<!-- Generator: Adobe Illustrator 18.1.1, SVG Export Plug-In . SVG Version: 6.00 Build 0)  -->
<!DOCTYPE svg PUBLIC "-//W3C//DTD SVG 1.1//EN" "http://www.w3.org/Graphics/SVG/1.1/DTD/svg11.dtd">
<svg version="1.1" xmlns="http://www.w3.org/2000/svg" xmlns:xlink="http://www.w3.org/1999/xlink" x="0px" y="0px"
	 viewBox="0 0 512 512" enable-background="new 0 0 512 512" xml:space="preserve">
<g id="Layer_4">
	<path fill="#FFFFFF" d="M422.123,130.914c-11.126-11.126-26.814-14.021-41.969-7.745c-13.265,5.495-25.845,17.661-36.744,35.214
		v-7.927c0-34.161-27.792-61.953-61.952-61.953c-16.969,0-32.362,6.862-43.562,17.952c-11.2-11.09-26.593-17.952-43.562-17.952
		c-16.429,0-31.373,6.44-42.473,16.914c-12.076-11.52-29.544-16.914-54.848-16.914c-10.217,0-18.5,8.283-18.5,18.5
		s8.283,18.5,18.5,18.5c14.847,0,25.079,2.395,29.589,6.926c3.889,3.907,5.78,11.781,5.78,24.072v197.424
		c0,10.218,8.283,18.5,18.5,18.5s18.5-8.282,18.5-18.5V156.501c0-1.49-0.02-3.052-0.07-4.667c0.034-0.457,0.07-0.913,0.07-1.378
		c0-13.759,11.194-24.953,24.953-24.953s24.953,11.194,24.953,24.953v203.469c0,10.218,8.283,18.5,18.5,18.5s18.5-8.282,18.5-18.5
		v-200.77c0.129-0.883,0.219-1.78,0.219-2.699c0-13.759,11.194-24.953,24.953-24.953s24.952,11.194,24.952,24.953V370.23
		c0,0.626,0.006,1.235,0.009,1.855c-16.389,18.924-31.983,29.396-44.37,29.396c-10.217,0-18.5,8.283-18.5,18.5s8.283,18.5,18.5,18.5
		c16.459,0,33.136-6.765,49.854-20.158c1.17,3.508,2.561,6.85,4.246,10.015c10.179,19.118,28.816,28.812,55.396,28.812
		c10.218,0,18.5-8.282,18.5-18.5c0-10.217-8.282-18.5-18.5-18.5c-18.367,0-26.21-3.182-27.814-35.309
		c20.217-26.369,40.445-62.849,57.017-102.858c12.737-30.75,22.537-61.644,27.595-86.989
		C434.999,161.634,433.081,141.871,422.123,130.914z M379.721,232.732c-9.824,29.314-22.468,58.428-36.29,83.942
		c0.354-36.923,5.259-71.354,14.24-99.828c7.446-23.608,17.854-43.151,28.556-53.618c4.027-3.939,7.062-5.558,8.68-6.112
		C395.932,164.663,394.757,187.868,379.721,232.732z"/>
</g>
<g id="Layer_1">
</g>
</svg>
