<?xml version="1.0" encoding="iso-8859-1"?>
<!-- Generator: Adobe Illustrator 18.1.1, SVG Export Plug-In . SVG Version: 6.00 Build 0)  -->
<!DOCTYPE svg PUBLIC "-//W3C//DTD SVG 1.1//EN" "http://www.w3.org/Graphics/SVG/1.1/DTD/svg11.dtd">
<svg version="1.1" xmlns="http://www.w3.org/2000/svg" xmlns:xlink="http://www.w3.org/1999/xlink" x="0px" y="0px"
	 viewBox="0 0 512 512" enable-background="new 0 0 512 512" xml:space="preserve">
<g id="Layer_4">
	<path fill="#FFFFFF" d="M424.517,68.983H291.602c-10.217,0-18.5,8.283-18.5,18.5s8.283,18.5,18.5,18.5h88.252L222.32,263.517
		l-53.376-53.377c-7.225-7.225-18.939-7.225-26.163,0c-7.225,7.225-7.225,18.938,0,26.163l53.377,53.376L74.402,411.436
		c-7.225,7.225-7.225,18.938,0,26.162c3.612,3.612,8.347,5.419,13.082,5.419s9.469-1.807,13.082-5.419L222.32,315.842l53.377,53.377
		c3.612,3.613,8.346,5.419,13.081,5.419c4.734,0,9.47-1.807,13.081-5.419c7.226-7.225,7.226-18.938,0-26.162l-53.376-53.377
		l157.534-157.534v88.253c0,10.217,8.283,18.5,18.5,18.5s18.5-8.283,18.5-18.5V87.483C443.017,77.266,434.733,68.983,424.517,68.983
		z"/>
</g>
<g id="Layer_1">
</g>
</svg>
