<?xml version="1.0" encoding="iso-8859-1"?>
<!-- Generator: Adobe Illustrator 18.1.1, SVG Export Plug-In . SVG Version: 6.00 Build 0)  -->
<!DOCTYPE svg PUBLIC "-//W3C//DTD SVG 1.1//EN" "http://www.w3.org/Graphics/SVG/1.1/DTD/svg11.dtd">
<svg version="1.1" id="Layer_2" xmlns="http://www.w3.org/2000/svg" xmlns:xlink="http://www.w3.org/1999/xlink" x="0px" y="0px"
	 viewBox="0 0 512 512" enable-background="new 0 0 512 512" xml:space="preserve">
<path fill="#2B3B47" d="M352.172,391.701c60.167-0.132,108.168-48.704,107.62-108.869c-0.516-56.583-44.599-102.754-100.327-106.6
	c-3.348-0.231-5.445-3.667-4.133-6.756c5.615-13.226,8.669-27.802,8.53-43.109c-0.528-58.326-48.053-106.074-106.377-106.859
	c-60.253-0.81-109.351,47.789-109.351,107.856c0,14.952,3.046,29.192,8.546,42.137c1.308,3.079-0.802,6.5-4.139,6.73
	c-55.73,3.843-99.816,50.015-100.332,106.6c-0.548,60.165,47.453,108.737,107.62,108.869c31.998,0.07,60.747-13.804,80.545-35.874
	c-0.724,3.537-1.57,7.144-2.546,10.795c-1.396,5.07-2.956,10.22-4.779,15.37c-0.897,2.575-1.88,5.15-2.858,7.715
	c-1.053,2.565-2.014,5.12-3.149,7.655c-0.549,1.267-1.096,2.53-1.641,3.786c-0.579,1.256-1.155,2.506-1.727,3.748
	c-1.143,2.485-2.271,4.939-3.693,7.353c-5.643,9.657-14.21,18.67-24.463,26.395c-1.293,0.966-2.559,1.911-3.796,2.835
	c-0.589,0.462-1.297,0.919-1.967,1.37c-0.672,0.451-1.337,0.897-1.993,1.337c-0.656,0.44-1.303,0.875-1.942,1.303
	c-0.319,0.214-0.637,0.427-0.952,0.639c-0.344,0.211-0.686,0.421-1.025,0.63c-1.368,0.834-2.696,1.643-3.983,2.428
	c-1.236,0.785-2.661,1.544-3.959,2.277c-1.33,0.733-2.536,1.44-3.831,2.119c-2.67,1.358-4.919,2.605-7.457,3.732
	c-2.419,1.127-4.58,2.133-6.459,3.008c-0.888,0.438-1.943,0.842-2.828,1.213c-0.901,0.371-1.719,0.708-2.452,1.01
	s-1.38,0.568-1.939,0.798c-0.549,0.23-1.117,0.424-1.52,0.58c-0.762,0.284-1.267,1.012-1.267,1.825v31.146
	c0,1.076,0.872,1.948,1.948,1.948h211.823c1.076,0,1.948-0.872,1.948-1.948V465.75c0-0.813-0.505-1.541-1.267-1.825
	c-0.403-0.156-0.97-0.35-1.52-0.58c-0.559-0.23-1.206-0.497-1.939-0.798c-0.733-0.302-1.551-0.639-2.452-1.01
	c-0.885-0.371-1.941-0.776-2.828-1.213c-1.879-0.875-4.04-1.881-6.459-3.008c-2.537-1.127-4.787-2.374-7.457-3.732
	c-1.295-0.679-2.502-1.386-3.831-2.119c-1.298-0.733-2.723-1.492-3.959-2.277c-1.287-0.785-2.615-1.594-3.983-2.428
	c-0.339-0.208-0.681-0.418-1.025-0.63c-0.315-0.211-0.632-0.424-0.952-0.639c-0.639-0.429-1.286-0.863-1.942-1.303
	c-0.656-0.44-1.32-0.886-1.993-1.337c-0.669-0.451-1.378-0.908-1.967-1.37c-1.237-0.924-2.503-1.87-3.796-2.835
	c-10.252-7.725-18.819-16.738-24.463-26.395c-1.422-2.414-2.55-4.869-3.693-7.353c-0.573-1.242-1.149-2.492-1.727-3.748
	c-0.544-1.256-1.092-2.519-1.641-3.786c-1.136-2.535-2.097-5.09-3.15-7.655c-0.977-2.565-1.96-5.14-2.858-7.715
	c-1.822-5.15-3.383-10.301-4.779-15.37c-0.974-3.644-1.819-7.244-2.542-10.775C291.442,377.906,320.183,391.771,352.172,391.701z"/>
</svg>
