<?xml version="1.0" encoding="iso-8859-1"?>
<!-- Generator: Adobe Illustrator 18.1.1, SVG Export Plug-In . SVG Version: 6.00 Build 0)  -->
<!DOCTYPE svg PUBLIC "-//W3C//DTD SVG 1.1//EN" "http://www.w3.org/Graphics/SVG/1.1/DTD/svg11.dtd">
<svg version="1.1" xmlns="http://www.w3.org/2000/svg" xmlns:xlink="http://www.w3.org/1999/xlink" x="0px" y="0px"
	 viewBox="0 0 512 512" enable-background="new 0 0 512 512" xml:space="preserve">
<g id="Layer_2">
	
		<path fill="#2B3B47" stroke="#2B3B47" stroke-width="2" stroke-linecap="round" stroke-linejoin="round" stroke-miterlimit="10" d="
		M480.452,223.615c-9.932-35.833-29.989-60.031-54.013-75.663L259.222,12.597c-2.41-1.951-5.857-1.944-8.26,0.016L84.767,148.177
		c-22.057,14.631-40.622,36.736-51.225,67.742c-9.499,27.778-8.326,58.27,3.73,85.037c39.33,87.321,144.83,101.262,205.229,41.762
		c-0.349,2.93-0.785,5.936-1.337,9.018c-0.867,4.828-1.982,9.818-3.337,14.888c-1.396,5.07-2.956,10.22-4.779,15.37
		c-0.897,2.575-1.88,5.15-2.858,7.715c-1.053,2.565-2.014,5.12-3.149,7.655c-0.549,1.267-1.096,2.53-1.641,3.786
		c-0.579,1.256-1.155,2.506-1.727,3.748c-1.143,2.485-2.271,4.939-3.693,7.353c-5.643,9.657-14.21,18.67-24.463,26.395
		c-1.293,0.966-2.559,1.911-3.796,2.835c-0.589,0.462-1.297,0.919-1.967,1.37c-0.672,0.451-1.337,0.897-1.993,1.337
		c-0.656,0.44-1.303,0.875-1.942,1.303c-0.319,0.214-0.637,0.427-0.952,0.639c-0.344,0.211-0.686,0.421-1.025,0.63
		c-1.368,0.834-2.696,1.643-3.983,2.428c-1.236,0.785-2.661,1.544-3.959,2.277c-1.33,0.733-2.536,1.44-3.831,2.119
		c-2.67,1.358-4.919,2.605-7.457,3.732c-2.419,1.127-4.58,2.133-6.459,3.008c-0.888,0.438-1.943,0.842-2.828,1.213
		c-0.901,0.371-1.719,0.708-2.452,1.01s-1.38,0.568-1.939,0.798c-0.549,0.23-1.117,0.424-1.52,0.58
		c-0.762,0.284-1.267,1.012-1.267,1.825v31.146c0,1.076,0.872,1.948,1.948,1.948h211.823c1.076,0,1.948-0.872,1.948-1.948V465.75
		c0-0.813-0.505-1.541-1.267-1.825c-0.403-0.156-0.97-0.35-1.52-0.58c-0.559-0.23-1.206-0.497-1.939-0.798
		c-0.733-0.302-1.551-0.639-2.452-1.01c-0.885-0.371-1.941-0.776-2.828-1.213c-1.879-0.875-4.04-1.881-6.459-3.008
		c-2.537-1.127-4.787-2.374-7.457-3.732c-1.295-0.679-2.502-1.386-3.831-2.119c-1.298-0.733-2.723-1.492-3.959-2.277
		c-1.287-0.785-2.615-1.594-3.983-2.428c-0.339-0.208-0.681-0.418-1.025-0.63c-0.315-0.211-0.632-0.424-0.952-0.639
		c-0.639-0.429-1.286-0.863-1.942-1.303c-0.656-0.44-1.32-0.886-1.993-1.337c-0.669-0.451-1.378-0.908-1.967-1.37
		c-1.237-0.924-2.503-1.87-3.796-2.835c-10.252-7.725-18.819-16.738-24.463-26.395c-1.422-2.414-2.55-4.869-3.693-7.353
		c-0.573-1.242-1.149-2.492-1.727-3.748c-0.544-1.256-1.092-2.519-1.641-3.786c-1.136-2.535-2.097-5.09-3.15-7.655
		c-0.977-2.565-1.96-5.14-2.858-7.715c-1.822-5.15-3.383-10.301-4.779-15.37c-1.355-5.07-2.47-10.059-3.337-14.888
		c-0.543-3.029-0.973-5.985-1.319-8.868c59.752,59.105,164.01,46.134,204.212-39.056
		C485.542,278.809,487.837,250.257,480.452,223.615z"/>
</g>
<g id="Layer_1">
</g>
</svg>
