<?xml version="1.0" encoding="iso-8859-1"?>
<!-- Generator: Adobe Illustrator 18.1.1, SVG Export Plug-In . SVG Version: 6.00 Build 0)  -->
<!DOCTYPE svg PUBLIC "-//W3C//DTD SVG 1.1//EN" "http://www.w3.org/Graphics/SVG/1.1/DTD/svg11.dtd">
<svg version="1.1" xmlns="http://www.w3.org/2000/svg" xmlns:xlink="http://www.w3.org/1999/xlink" x="0px" y="0px"
	 viewBox="0 0 512 512" enable-background="new 0 0 512 512" xml:space="preserve">
<g id="Layer_6">
	<path fill="#00D1AE" d="M505.912,359.139l-2.037-4.181l-30.999-63.637c-5.254-10.786-18.296-15.218-29.034-9.866l-46.464,23.157
		c-10.603,5.284-14.965,18.127-9.775,28.776l16.5,33.853l-84.467,0.011l0.055-25.064c0.019-8.921-10.124-14.064-17.309-8.777
		l-98.45,72.451c-5.886,4.331-5.905,13.121-0.038,17.478l98.132,72.88c7.162,5.319,17.328,0.22,17.347-8.701l0.055-25.12
		l120.044,0.262c5.665,0.012,11.031-2.183,15.034-5.994c0.795-0.451,3.483-4.282,3.483-4.282l47.031-75.804
		C508.294,371.306,508.631,364.72,505.912,359.139z"/>
</g>
<g id="Layer_1">
</g>
</svg>
