<svg xmlns="http://www.w3.org/2000/svg" viewBox="0 0 512 512" enable-background="new 0 0 512 512"><path fill="#B0E9FF" d="M441.518 309.42c-5.51 0-10.86.68-15.98 1.944 1.143-4.982 1.767-10.16 1.767-15.49 0-38.122-30.905-69.027-69.028-69.027-14.467 0-27.89 4.46-38.983 12.065-12.95-49.89-58.284-86.73-112.225-86.73-64.033 0-115.94 51.91-115.94 115.94-48.14 0-87.17 39.026-87.17 87.168 0 48.14 39.027 87.168 87.17 87.168h350.387c36.738 0 66.52-29.782 66.52-66.52 0-36.737-29.782-66.52-66.52-66.52z"/></svg>