<?xml version="1.0" encoding="iso-8859-1"?>
<!-- Generator: Adobe Illustrator 18.1.1, SVG Export Plug-In . SVG Version: 6.00 Build 0)  -->
<!DOCTYPE svg PUBLIC "-//W3C//DTD SVG 1.1//EN" "http://www.w3.org/Graphics/SVG/1.1/DTD/svg11.dtd">
<svg version="1.1" xmlns="http://www.w3.org/2000/svg" xmlns:xlink="http://www.w3.org/1999/xlink" x="0px" y="0px"
	 viewBox="0 0 512 512" enable-background="new 0 0 512 512" xml:space="preserve">
<g id="Layer_2">
	<path fill="#C8CACB" d="M291.104,33.102h-19.63V13.417c0-5.965-4.835-10.8-10.8-10.8h-9.345c-5.965,0-10.8,4.835-10.8,10.8v19.685
		h-19.63c-5.965,0-10.8,4.835-10.8,10.8v9.345c0,5.965,4.835,10.8,10.8,10.8h19.63v46.372c0,5.965,4.835,10.8,10.8,10.8h9.345
		c5.965,0,10.8-4.835,10.8-10.8V64.047h19.63c5.965,0,10.8-4.835,10.8-10.8v-9.345C301.904,37.937,297.069,33.102,291.104,33.102z"
		/>
</g>
<g id="Layer_1">
</g>
</svg>
