<svg xmlns="http://www.w3.org/2000/svg" viewBox="0 0 512 512" enable-background="new 0 0 512 512"><path fill="#F7F9AA" d="M130.117 57.147c0 4.24-3.437 7.677-7.677 7.677s-7.677-3.437-7.677-7.677 3.437-7.677 7.677-7.677 7.677 3.437 7.677 7.677zm311.065 152.58c-4.24 0-7.677 3.437-7.677 7.677s3.437 7.677 7.677 7.677 7.677-3.435 7.677-7.675-3.44-7.677-7.68-7.677zM92.794 188.135l-3.868 7.837c-.387.785-1.136 1.33-2.003 1.455l-8.65 1.257c-2.18.317-3.052 2.998-1.473 4.537l6.26 6.103c.626.61.912 1.49.764 2.354l-1.477 8.614c-.373 2.174 1.908 3.83 3.86 2.805l7.735-4.067c.775-.407 1.7-.407 2.475 0l7.736 4.067c1.95 1.026 4.232-.63 3.86-2.804l-1.478-8.613c-.148-.863.138-1.743.765-2.354l6.26-6.1c1.578-1.54.707-4.22-1.475-4.538l-8.65-1.257c-.865-.126-1.614-.67-2.002-1.455l-3.868-7.837c-.976-1.977-3.795-1.977-4.77 0zm242.97-135.743c-6.865 0-12.43 5.566-12.43 12.432 0 6.866 5.565 12.432 12.43 12.432 6.867 0 12.433-5.566 12.433-12.432 0-6.866-5.566-12.432-12.432-12.432zM199.288 71.985c-4.392 0-7.953 3.56-7.953 7.953 0 4.392 3.56 7.953 7.953 7.953 4.392 0 7.953-3.56 7.953-7.95 0-4.394-3.56-7.954-7.952-7.954zm233.157-33.05c-10.734 0-20.6 3.696-28.416 9.87.897-.066 1.8-.11 2.716-.11 19.957 0 36.136 16.177 36.136 36.135s-16.177 36.136-36.135 36.136c-.915 0-1.82-.045-2.717-.112 7.817 6.174 17.682 9.87 28.416 9.87 25.346 0 45.893-20.547 45.893-45.893s-20.548-45.893-45.894-45.893z"/></svg>