<?xml version="1.0" encoding="iso-8859-1"?>
<!-- Generator: Adobe Illustrator 18.1.1, SVG Export Plug-In . SVG Version: 6.00 Build 0)  -->
<!DOCTYPE svg PUBLIC "-//W3C//DTD SVG 1.1//EN" "http://www.w3.org/Graphics/SVG/1.1/DTD/svg11.dtd">
<svg version="1.1" xmlns="http://www.w3.org/2000/svg" xmlns:xlink="http://www.w3.org/1999/xlink" x="0px" y="0px"
	 viewBox="0 0 512 512" enable-background="new 0 0 512 512" xml:space="preserve">
<g id="Layer_8">
	<path fill="#00A6C1" d="M440.087,384.355c0,5.496-4.455,9.951-9.951,9.951c-18.504,0-36.136-7.857-48.608-21.123
		c-12.472,13.266-30.105,21.123-48.608,21.123c-18.738,0-36.583-8.055-49.08-21.625c-12.497,13.571-30.342,21.625-49.079,21.625
		c-5.496,0-9.951-4.455-9.951-9.951s4.455-9.951,9.951-9.951c16.56,0,31.541-8.495,40.074-22.725c1.95-3.25,5.463-4.985,9.003-4.822
		c3.541-0.166,7.057,1.569,9.007,4.822c8.533,14.229,23.515,22.725,40.075,22.725c16.56,0,31.541-8.495,40.074-22.725
		c0.018-0.029,0.039-0.055,0.056-0.084c0.153-0.25,0.316-0.496,0.492-0.733c0.057-0.077,0.121-0.148,0.18-0.223
		c0.142-0.18,0.284-0.359,0.439-0.53c0.101-0.111,0.209-0.212,0.314-0.318c0.123-0.123,0.241-0.249,0.371-0.367
		c0.152-0.138,0.313-0.264,0.472-0.391c0.094-0.075,0.183-0.155,0.281-0.227c0.215-0.159,0.438-0.305,0.664-0.445
		c0.05-0.031,0.096-0.068,0.147-0.098c0.005-0.003,0.01-0.005,0.015-0.008c0.261-0.156,0.529-0.297,0.802-0.427
		c0.598-0.287,1.213-0.509,1.836-0.668c0.017-0.004,0.034-0.011,0.051-0.015c0.261-0.065,0.524-0.114,0.788-0.158
		c0.054-0.009,0.106-0.023,0.16-0.031c0.224-0.033,0.449-0.051,0.674-0.069c0.099-0.008,0.197-0.022,0.297-0.027
		c0.179-0.009,0.358-0.004,0.537-0.003c0.148,0,0.295-0.005,0.442,0.003c0.132,0.007,0.263,0.024,0.395,0.036
		c0.193,0.017,0.385,0.031,0.577,0.059c0.093,0.014,0.185,0.037,0.278,0.053c0.224,0.04,0.448,0.079,0.671,0.134
		c0.086,0.021,0.169,0.052,0.254,0.075c0.222,0.062,0.444,0.122,0.664,0.2c0.621,0.22,1.221,0.503,1.79,0.843
		c0.002,0.001,0.003,0.002,0.005,0.003c0.017,0.01,0.033,0.023,0.05,0.034c0.263,0.16,0.521,0.331,0.77,0.516
		c0.073,0.054,0.14,0.114,0.211,0.17c0.183,0.144,0.366,0.289,0.54,0.447c0.114,0.103,0.218,0.214,0.326,0.322
		c0.12,0.119,0.242,0.235,0.357,0.361c0.147,0.162,0.281,0.332,0.416,0.502c0.066,0.084,0.137,0.162,0.201,0.248
		c0.177,0.239,0.34,0.485,0.494,0.737c0.016,0.027,0.036,0.051,0.052,0.078c8.533,14.229,23.515,22.725,40.074,22.725
		C435.632,374.404,440.087,378.859,440.087,384.355z M292.766,416.504c-4.715-2.826-10.826-1.295-13.652,3.416
		c-8.534,14.229-23.515,22.725-40.075,22.725s-31.541-8.495-40.074-22.725c-0.02-0.034-0.045-0.064-0.065-0.098
		c-0.15-0.244-0.308-0.485-0.48-0.717c-0.065-0.088-0.138-0.169-0.205-0.254c-0.134-0.168-0.266-0.337-0.412-0.497
		c-0.114-0.126-0.236-0.241-0.355-0.36c-0.109-0.108-0.213-0.22-0.328-0.324c-0.172-0.157-0.354-0.3-0.535-0.443
		c-0.073-0.057-0.141-0.119-0.216-0.174c-0.245-0.182-0.498-0.35-0.756-0.507c-0.022-0.013-0.041-0.029-0.062-0.042
		c-0.002-0.001-0.004-0.002-0.007-0.003c-0.569-0.34-1.167-0.623-1.787-0.842c-0.241-0.086-0.484-0.153-0.728-0.22
		c-0.064-0.017-0.126-0.04-0.19-0.056c-0.234-0.058-0.469-0.1-0.705-0.141c-0.081-0.014-0.161-0.034-0.243-0.047
		c-0.201-0.03-0.403-0.045-0.605-0.062c-0.122-0.011-0.243-0.027-0.366-0.034c-0.157-0.008-0.312-0.003-0.469-0.003
		c-0.17,0-0.34-0.005-0.511,0.003c-0.107,0.005-0.213,0.021-0.32,0.029c-0.217,0.018-0.434,0.034-0.651,0.066
		c-0.062,0.009-0.122,0.025-0.183,0.035c-0.256,0.043-0.512,0.09-0.765,0.153c-0.025,0.006-0.05,0.016-0.075,0.022
		c-0.291,0.075-0.581,0.161-0.867,0.264c-0.292,0.104-0.58,0.222-0.863,0.353c-0.016,0.008-0.032,0.018-0.048,0.026
		c-0.287,0.136-0.567,0.285-0.841,0.448c-0.004,0.002-0.008,0.004-0.013,0.007c-0.042,0.025-0.079,0.055-0.121,0.081
		c-0.235,0.146-0.467,0.297-0.691,0.463c-0.093,0.069-0.179,0.145-0.269,0.217c-0.163,0.13-0.327,0.259-0.483,0.4
		c-0.128,0.116-0.246,0.24-0.367,0.362c-0.106,0.107-0.216,0.21-0.318,0.322c-0.156,0.171-0.298,0.351-0.44,0.532
		c-0.059,0.075-0.122,0.144-0.178,0.221c-0.179,0.24-0.343,0.489-0.498,0.743c-0.016,0.026-0.035,0.049-0.05,0.075
		c-8.534,14.229-23.515,22.725-40.075,22.725s-31.541-8.495-40.075-22.725c-0.016-0.026-0.035-0.049-0.05-0.075
		c-0.155-0.253-0.319-0.502-0.497-0.742c-0.06-0.081-0.126-0.154-0.188-0.233c-0.139-0.176-0.278-0.351-0.429-0.518
		c-0.109-0.12-0.226-0.23-0.339-0.344c-0.114-0.114-0.224-0.231-0.344-0.339c-0.167-0.152-0.343-0.29-0.518-0.429
		c-0.078-0.062-0.152-0.128-0.232-0.188c-0.241-0.179-0.49-0.344-0.745-0.499c-0.025-0.015-0.047-0.033-0.072-0.049
		c-0.002-0.001-0.005-0.003-0.008-0.004c-0.568-0.339-1.165-0.622-1.784-0.841c-0.252-0.09-0.508-0.162-0.763-0.23
		c-0.052-0.014-0.103-0.033-0.155-0.046c-0.239-0.06-0.48-0.103-0.721-0.144c-0.076-0.013-0.151-0.032-0.227-0.044
		c-0.204-0.03-0.408-0.045-0.612-0.063c-0.12-0.01-0.239-0.027-0.359-0.033c-0.157-0.008-0.313-0.003-0.469-0.003
		c-0.17,0-0.34-0.005-0.511,0.003c-0.105,0.005-0.209,0.02-0.314,0.029c-0.219,0.018-0.439,0.035-0.657,0.067
		c-0.057,0.008-0.112,0.023-0.169,0.032c-0.261,0.043-0.522,0.091-0.781,0.156c-0.013,0.003-0.026,0.008-0.04,0.012
		c-0.505,0.129-1.003,0.304-1.492,0.516c-0.09,0.039-0.182,0.07-0.271,0.111c-0.025,0.012-0.049,0.027-0.074,0.039
		c-0.278,0.132-0.551,0.277-0.816,0.435c-0.004,0.003-0.009,0.004-0.013,0.007c-0.043,0.026-0.082,0.057-0.124,0.083
		c-0.234,0.145-0.466,0.296-0.689,0.462c-0.09,0.067-0.172,0.14-0.26,0.21c-0.167,0.133-0.334,0.264-0.493,0.408
		c-0.124,0.112-0.237,0.232-0.354,0.349c-0.111,0.111-0.225,0.219-0.332,0.336c-0.15,0.165-0.287,0.339-0.425,0.513
		c-0.064,0.081-0.132,0.156-0.193,0.239c-0.173,0.233-0.331,0.474-0.482,0.719c-0.02,0.033-0.044,0.063-0.065,0.096
		c-8.534,14.229-23.515,22.725-40.074,22.725c-13.254,0-25.486-5.453-34.221-14.921v25.287c10.212,6.122,22.027,9.537,34.221,9.537
		c18.504,0,36.136-7.858,48.609-21.123c12.473,13.266,30.105,21.123,48.609,21.123s36.136-7.858,48.609-21.123
		c12.473,13.266,30.105,21.123,48.609,21.123c23.264,0,45.161-12.411,57.143-32.391
		C299.009,425.443,297.479,419.331,292.766,416.504z"/>
</g>
<g id="Layer_1">
</g>
</svg>
