<?xml version="1.0" encoding="iso-8859-1"?>
<!-- Generator: Adobe Illustrator 18.1.1, SVG Export Plug-In . SVG Version: 6.00 Build 0)  -->
<!DOCTYPE svg PUBLIC "-//W3C//DTD SVG 1.1//EN" "http://www.w3.org/Graphics/SVG/1.1/DTD/svg11.dtd">
<svg version="1.1" xmlns="http://www.w3.org/2000/svg" xmlns:xlink="http://www.w3.org/1999/xlink" x="0px" y="0px"
	 viewBox="0 0 512 512" enable-background="new 0 0 512 512" xml:space="preserve">
<g id="Layer_2">
	<path fill="#2B3B47" d="M500.951,489.617c0,6.6-5.4,12-12,12H21.716c-6.6,0-12-5.4-12-12V22.383c0-6.6,5.4-12,12-12h467.234
		c6.6,0,12,5.4,12,12"/>
</g>
<g id="Layer_3">
	<path fill="#1E771E" d="M9.716,489.617c0,6.6,5.4,12,12,12h467.234c6.6,0,12-5.4,12-12V265.429H9.716V489.617z"/>
</g>
<g id="Layer_4">
	<path fill="#FFB636" d="M62.86,425.996h389.77c4.643,0,7.377-5.211,4.739-9.032L262.485,102.963c-2.29-3.316-7.189-3.316-9.479,0
		L58.121,416.964C55.483,420.784,58.218,425.996,62.86,425.996z"/>
</g>
<g id="Layer_5">
	<path fill="#E2A042" d="M351.145,425.996H452.63c4.643,0,7.377-5.211,4.739-9.032L262.485,102.963c-2.29-3.316-7.189-3.316-9.479,0
		l93.4,314.001C346.406,416.964,346.502,425.996,351.145,425.996z"/>
</g>
<g id="Layer_6">
	<polygon fill="#2B3B47" points="257.745,143.999 156.735,425.996 257.745,425.996 	"/>
</g>
<g id="Layer_7">
	<path fill="#593D33" d="M61.054,430.588c-1.568,0-3.129-0.637-4.265-1.89l-22.54-24.885c-2.132-2.354-1.953-5.991,0.402-8.124
		s5.991-1.951,8.124,0.401l22.54,24.885c2.132,2.354,1.953,5.991-0.402,8.124C63.812,430.097,62.43,430.588,61.054,430.588z
		 M458.701,427.584l22.54-24.885c2.133-2.354,1.952-5.991-0.401-8.124c-2.355-2.132-5.993-1.952-8.124,0.401l-22.54,24.885
		c-2.133,2.354-1.952,5.991,0.401,8.124c1.102,0.997,2.482,1.488,3.859,1.488C456.004,429.474,457.566,428.837,458.701,427.584z
		 M370.643,430.926l22.54-24.885c2.133-2.354,1.952-5.991-0.401-8.124c-2.355-2.132-5.993-1.952-8.124,0.401l-22.54,24.885
		c-2.133,2.354-1.952,5.991,0.401,8.124c1.102,0.997,2.482,1.488,3.859,1.488C367.945,432.815,369.508,432.179,370.643,430.926z"/>
</g>
<g id="Layer_8">
	<path fill="#BFBCAF" d="M53.251,409.732H39.274c-0.854,0-1.638-0.476-2.032-1.233s-0.333-1.673,0.157-2.372L255.871,94.783
		c0.428-0.61,1.127-0.974,1.873-0.975c0.001,0,0.001,0,0.002,0c0.745,0,1.443,0.362,1.872,0.972L478.089,405.01
		c0.492,0.699,0.555,1.614,0.16,2.373c-0.394,0.759-1.177,1.235-2.032,1.235h-12.629c-1.265,0-2.29-1.025-2.29-2.29
		s1.025-2.29,2.29-2.29h8.216L257.748,100.081L43.678,405.152h9.573c1.265,0,2.29,1.025,2.29,2.29S54.516,409.732,53.251,409.732z"
		/>
</g>
<g id="Layer_9">
	<path fill="#FFE1AB" d="M156.735,425.996l83.175-232.203c0,0-69.171,144.204-129.375,188.983
		C110.534,382.777,127.728,425.996,156.735,425.996z"/>
</g>
<g id="Layer_10">
	<path fill="#E5E4DF" d="M388.92,411.96h-16.112c-1.265,0-2.29-1.025-2.29-2.29s1.025-2.29,2.29-2.29h12.672L255.633,96.982
		c-0.488-1.167,0.062-2.508,1.229-2.997c1.166-0.488,2.508,0.062,2.996,1.229l131.175,313.571c0.296,0.707,0.219,1.515-0.206,2.152
		S389.687,411.96,388.92,411.96z"/>
</g>
<g id="Layer_11">
	<path fill="#597B91" d="M71.995,96.397c0,8.232-6.673,14.904-14.904,14.904s-14.904-6.673-14.904-14.904
		s6.673-14.904,14.904-14.904S71.995,88.166,71.995,96.397z M368.135,140.967c-8.232,0-14.904,6.673-14.904,14.904
		s6.673,14.904,14.904,14.904s14.904-6.673,14.904-14.904S376.366,140.967,368.135,140.967z M130.117,129.97
		c-4.24,0-7.677,3.437-7.677,7.677c0,4.24,3.437,7.677,7.677,7.677c4.24,0,7.677-3.437,7.677-7.677
		C137.794,133.407,134.357,129.97,130.117,129.97z"/>
</g>
<g id="Layer_12">
	<path fill="#F7F9AA" d="M130.117,57.147c0,4.24-3.437,7.677-7.677,7.677c-4.24,0-7.677-3.437-7.677-7.677s3.437-7.677,7.677-7.677
		C126.679,49.469,130.117,52.907,130.117,57.147z M441.182,209.727c-4.24,0-7.677,3.437-7.677,7.677c0,4.24,3.437,7.677,7.677,7.677
		c4.24,0,7.677-3.437,7.677-7.677C448.86,213.164,445.422,209.727,441.182,209.727z M92.794,188.135l-3.868,7.837
		c-0.387,0.785-1.136,1.329-2.003,1.455l-8.649,1.257c-2.182,0.317-3.053,2.998-1.474,4.537l6.259,6.101
		c0.627,0.611,0.913,1.491,0.765,2.354l-1.477,8.614c-0.373,2.173,1.908,3.83,3.859,2.804l7.736-4.067
		c0.775-0.407,1.701-0.407,2.475,0l7.736,4.067c1.951,1.026,4.232-0.631,3.859-2.804l-1.477-8.614
		c-0.148-0.863,0.138-1.743,0.765-2.354l6.259-6.101c1.579-1.539,0.708-4.22-1.474-4.537l-8.649-1.257
		c-0.866-0.126-1.615-0.67-2.003-1.455l-3.868-7.837C96.589,186.158,93.77,186.158,92.794,188.135z M335.765,52.392
		c-6.866,0-12.432,5.566-12.432,12.432c0,6.866,5.566,12.432,12.432,12.432c6.866,0,12.432-5.566,12.432-12.432
		C348.197,57.958,342.631,52.392,335.765,52.392z M199.287,71.985c-4.392,0-7.953,3.561-7.953,7.953
		c0,4.392,3.561,7.953,7.953,7.953c4.392,0,7.953-3.561,7.953-7.953C207.24,75.545,203.679,71.985,199.287,71.985z M432.444,38.936
		c-10.734,0-20.6,3.695-28.416,9.87c0.898-0.067,1.802-0.112,2.717-0.112c19.957,0,36.136,16.178,36.136,36.136
		s-16.178,36.136-36.136,36.136c-0.915,0-1.819-0.045-2.717-0.112c7.817,6.174,17.682,9.87,28.416,9.87
		c25.346,0,45.893-20.547,45.893-45.893S457.79,38.936,432.444,38.936z"/>
</g>
</svg>
