<?xml version="1.0" encoding="iso-8859-1"?>
<!-- Generator: Adobe Illustrator 18.1.1, SVG Export Plug-In . SVG Version: 6.00 Build 0)  -->
<!DOCTYPE svg PUBLIC "-//W3C//DTD SVG 1.1//EN" "http://www.w3.org/Graphics/SVG/1.1/DTD/svg11.dtd">
<svg version="1.1" xmlns="http://www.w3.org/2000/svg" xmlns:xlink="http://www.w3.org/1999/xlink" x="0px" y="0px"
	 viewBox="0 0 512 512" enable-background="new 0 0 512 512" xml:space="preserve">
<g id="Layer_8">
	<path fill="#D32A2A" d="M483.916,191.973h-0.514v-55.412c0-1.626-0.288-3.238-0.85-4.764l-4.201-11.394
		c-1.995-5.412-7.152-9.007-12.921-9.007h-23.559c-5.768,0-10.925,3.595-12.921,9.007l-4.201,11.394
		c-0.562,1.525-0.85,3.138-0.85,4.764v55.412h-0.514c-5.247,0-9.5,4.253-9.5,9.5v0.883c0,5.247,4.253,9.5,9.5,9.5h60.53
		c5.247,0,9.5-4.253,9.5-9.5v-0.883C493.416,196.226,489.163,191.973,483.916,191.973z"/>
</g>
<g id="Layer_1">
</g>
</svg>
