<?xml version="1.0" encoding="iso-8859-1"?>
<!-- Generator: Adobe Illustrator 18.1.1, SVG Export Plug-In . SVG Version: 6.00 Build 0)  -->
<!DOCTYPE svg PUBLIC "-//W3C//DTD SVG 1.1//EN" "http://www.w3.org/Graphics/SVG/1.1/DTD/svg11.dtd">
<svg version="1.1" xmlns="http://www.w3.org/2000/svg" xmlns:xlink="http://www.w3.org/1999/xlink" x="0px" y="0px"
	 viewBox="0 0 512 512" enable-background="new 0 0 512 512" xml:space="preserve">
<g id="Layer_10">
	<path fill="#8E8E8E" d="M447.111,159.533h-55.985V34.937c0-17.56-14.286-31.845-31.846-31.845H55.668
		c-17.56,0-31.846,14.286-31.846,31.845v192.688c0,17.56,14.286,31.846,31.846,31.846H359.28c17.56,0,31.846-14.286,31.846-31.846
		v-45.071h55.985c6.357,0,11.511-5.153,11.511-11.511S453.469,159.533,447.111,159.533z M368.104,227.625
		c0,4.866-3.959,8.824-8.824,8.824H55.668c-4.866,0-8.824-3.958-8.824-8.824V34.937c0-4.865,3.958-8.824,8.824-8.824H359.28
		c4.865,0,8.824,3.958,8.824,8.824V227.625z"/>
</g>
<g id="Layer_1">
</g>
</svg>
