<?xml version="1.0" encoding="utf-8"?>
<!-- Generator: Adobe Illustrator 18.0.0, SVG Export Plug-In . SVG Version: 6.00 Build 0)  -->
<!DOCTYPE svg PUBLIC "-//W3C//DTD SVG 1.1 Tiny//EN" "http://www.w3.org/Graphics/SVG/1.1/DTD/svg11-tiny.dtd">
<svg version="1.1" baseProfile="tiny" id="Layer_1" xmlns="http://www.w3.org/2000/svg" xmlns:xlink="http://www.w3.org/1999/xlink"
	 x="0px" y="0px" width="511.9px" height="511.9px" viewBox="0 0 511.9 511.9" xml:space="preserve">
<path fill="#FFB636" d="M210.3,65.5c28.8,7.3,51.4,29.9,58.7,58.7c0.7,2.8,4.3,2.8,5,0c7.3-28.8,29.9-51.4,58.7-58.7
	c2.8-0.7,2.8-4.3,0-5c-28.8-7.3-51.4-29.9-58.7-58.7c-0.7-2.8-4.3-2.8-5,0c-7.3,28.8-29.9,51.4-58.7,58.7
	C207.5,61.2,207.5,64.8,210.3,65.5z"/>
<path fill="#FFD469" d="M6.7,188.3c50.8,12.9,90.8,52.9,103.7,103.7c1.2,4.9,7.5,4.9,8.8,0c12.9-50.8,52.9-90.8,103.7-103.7
	c4.9-1.2,4.9-7.5,0-8.8C172,166.7,132,126.7,119.2,75.9c-1.2-4.9-7.5-4.9-8.8,0C97.5,126.7,57.5,166.7,6.7,179.6
	C1.8,180.8,1.8,187.1,6.7,188.3z"/>
<path fill="#FFE1AB" d="M180,350.7c76,19.3,135.9,79.1,155.1,155.1c1.9,7.3,11.3,7.3,13.1,0c19.3-76,79.1-135.9,155.1-155.1
	c7.3-1.9,7.3-11.3,0-13.1c-76-19.3-135.9-79.1-155.1-155.1c-1.9-7.3-11.3-7.3-13.1,0c-19.3,76-79.1,135.9-155.1,155.1
	C172.7,339.4,172.7,348.8,180,350.7z"/>
</svg>
