<?xml version="1.0" encoding="iso-8859-1"?>
<!-- Generator: Adobe Illustrator 18.1.1, SVG Export Plug-In . SVG Version: 6.00 Build 0)  -->
<!DOCTYPE svg PUBLIC "-//W3C//DTD SVG 1.1//EN" "http://www.w3.org/Graphics/SVG/1.1/DTD/svg11.dtd">
<svg version="1.1" xmlns="http://www.w3.org/2000/svg" xmlns:xlink="http://www.w3.org/1999/xlink" x="0px" y="0px"
	 viewBox="0 0 512 512" enable-background="new 0 0 512 512" xml:space="preserve">
<g id="Layer_2">
	<circle fill="#FF473E" cx="255.107" cy="256" r="254.106"/>
</g>
<g id="Layer_3">
	<path fill="#D32A2A" d="M256,487.106C119.516,487.106,8.18,379.5,2.165,244.5c-0.17,3.813-0.271,7.645-0.271,11.5
		c0,140.339,113.767,254.106,254.106,254.106S510.106,396.339,510.106,256c0-3.855-0.101-7.687-0.271-11.5
		C503.82,379.5,392.484,487.106,256,487.106z"/>
</g>
<g id="Layer_4">
	<path fill="#FFFFFF" d="M416.982,325.714c-10.217,0-18.5,8.283-18.5,18.5v23.029c0,5.316-4.325,9.642-9.642,9.642
		c-6.423,0-11.647-5.225-11.647-11.647V237.697h15.061c10.217,0,18.5-8.283,18.5-18.5v-86.983c0-10.217-8.283-18.5-18.5-18.5
		H259.113c-10.217,0-18.5,8.283-18.5,18.5v86.983c0,10.217,8.283,18.5,18.5,18.5h15.12c0.026,48.089-3.151,114.258-60.373,140.918
		c-9.261,4.315-13.271,15.321-8.956,24.583c3.138,6.733,9.812,10.691,16.781,10.691c2.616,0,5.274-0.559,7.801-1.735
		c36.216-16.875,60.604-46.768,72.486-88.848c8.431-29.861,9.268-60.959,9.26-85.61h28.96v127.541
		c0,26.824,21.823,48.647,48.647,48.647c25.719,0,46.642-20.924,46.642-46.642v-23.029
		C435.482,333.997,427.199,325.714,416.982,325.714z M277.613,150.713h96.141v49.983h-96.141V150.713z"/>
</g>
<g id="Layer_5">
	<path fill="#FFFFFF" d="M216.393,152.815c0-10.217-8.283-18.5-18.5-18.5H164.9c0.022-0.366,0.056-0.73,0.056-1.102v-16.599
		c0-10.217-8.283-18.5-18.5-18.5s-18.5,8.283-18.5,18.5v16.599c0,0.372,0.034,0.735,0.056,1.102H95.018
		c-10.217,0-18.5,8.283-18.5,18.5s8.283,18.5,18.5,18.5h78.029c-6.896,17.861-16.42,33.651-28.118,46.4
		c-15.278,16.65-33.962,27.875-54.033,32.464c-9.96,2.277-16.189,12.197-13.912,22.158c1.959,8.572,9.582,14.381,18.018,14.381
		c1.365,0,2.752-0.152,4.139-0.469c9.933-2.271,19.578-5.71,28.815-10.208v119.344c0,10.217,8.283,18.5,18.5,18.5
		s18.5-8.283,18.5-18.5V276.451c6.637,4.124,13.369,7.275,20.159,9.41c1.847,0.581,3.717,0.857,5.556,0.857
		c7.864,0,15.158-5.056,17.643-12.955c3.065-9.746-2.351-20.132-12.098-23.198c-6.522-2.051-13.467-6.107-20.442-11.881
		c18.661-21.756,32.478-49.451,40.087-80.46c0.407-1.661,0.557-3.321,0.51-4.951C216.374,153.12,216.393,152.97,216.393,152.815z"/>
</g>
</svg>
