<?xml version="1.0" encoding="iso-8859-1"?>
<!-- Generator: Adobe Illustrator 18.1.1, SVG Export Plug-In . SVG Version: 6.00 Build 0)  -->
<!DOCTYPE svg PUBLIC "-//W3C//DTD SVG 1.1//EN" "http://www.w3.org/Graphics/SVG/1.1/DTD/svg11.dtd">
<svg version="1.1" xmlns="http://www.w3.org/2000/svg" xmlns:xlink="http://www.w3.org/1999/xlink" x="0px" y="0px"
	 viewBox="0 0 512 512" enable-background="new 0 0 512 512" xml:space="preserve">
<g id="Layer_2">
	<path fill="#00B89C" d="M508.333,32.666C508.333,16.35,494.984,3,478.668,3H29.032C14.348,3,2.333,15.015,2.333,29.699v452.602
		C2.333,496.985,14.348,509,29.032,509h449.635c16.316,0,29.666-13.35,29.666-29.666V32.666z"/>
</g>
<g id="Layer_3">
	<path fill="#009E83" d="M478.668,488.915H29.032c-14.684,0-26.699-12.015-26.699-26.699v20.085
		C2.333,496.985,14.348,509,29.032,509h449.635c16.316,0,29.666-13.35,29.666-29.666v-20.085
		C508.333,475.565,494.984,488.915,478.668,488.915z"/>
</g>
<g id="Layer_4">
	<path fill="#FFFFFF" d="M187.082,213.885l-19.257,4.535v-77.522h23.498c10.217,0,18.5-8.283,18.5-18.5s-8.283-18.5-18.5-18.5
		h-23.498V69.9c0-10.217-8.283-18.5-18.5-18.5s-18.5,8.283-18.5,18.5v33.998h-24.496c-10.217,0-18.5,8.283-18.5,18.5
		s8.283,18.5,18.5,18.5h24.496v86.236l-28.736,6.767c-9.945,2.342-16.109,12.303-13.767,22.248
		c2.006,8.52,9.603,14.264,17.992,14.264c1.404,0,2.831-0.161,4.256-0.497l20.255-4.77v136.648c0,4.289-1.943,8.257-5.331,10.887
		c-3.388,2.631-7.713,3.53-11.87,2.466l-41.738-10.686c-9.898-2.536-19.977,3.435-22.51,13.334
		c-2.534,9.897,3.436,19.976,13.333,22.51l41.739,10.686c4.218,1.08,8.483,1.611,12.711,1.611c11.119,0,21.978-3.673,31.022-10.693
		c12.483-9.69,19.643-24.312,19.643-40.114V256.432l27.738-6.532c9.945-2.342,16.109-12.303,13.767-22.248
		S197.027,211.541,187.082,213.885z"/>
</g>
<g id="Layer_5">
	<path fill="#FFFFFF" d="M426.884,118.391c-10.218,0-18.5,8.283-18.5,18.5v24.781c0,8.39-6.826,15.216-15.216,15.216h-97.633
		c-8.39,0-15.216-6.826-15.216-15.216v-1.494l135.469-69.829c9.081-4.681,12.648-15.838,7.968-24.92
		c-4.682-9.081-15.839-12.65-24.921-7.968l-118.516,61.091V69.9c0-10.217-8.282-18.5-18.5-18.5c-10.217,0-18.5,8.283-18.5,18.5
		v91.771c0,28.792,23.424,52.216,52.216,52.216h97.633c28.792,0,52.216-23.424,52.216-52.216v-24.781
		C445.384,126.673,437.101,118.391,426.884,118.391z"/>
</g>
<g id="Layer_6">
	<path fill="#FFFFFF" d="M426.884,249.797c-6.357,0-11.962,3.208-15.292,8.092h-134.48c-3.33-4.884-8.936-8.092-15.292-8.092
		c-10.217,0-18.5,8.282-18.5,18.5v165.796c0,10.217,8.283,18.5,18.5,18.5c10.217,0,18.5-8.283,18.5-18.5v-10.2h128.064v10.2
		c0,10.217,8.283,18.5,18.5,18.5s18.5-8.283,18.5-18.5V268.297C445.384,258.079,437.101,249.797,426.884,249.797z M280.319,294.889
		h128.064v27.502H280.319V294.889z M280.319,386.893v-27.502h128.064v27.502H280.319z"/>
</g>
</svg>
