<?xml version="1.0" encoding="iso-8859-1"?>
<!-- Generator: Adobe Illustrator 18.1.1, SVG Export Plug-In . SVG Version: 6.00 Build 0)  -->
<!DOCTYPE svg PUBLIC "-//W3C//DTD SVG 1.1//EN" "http://www.w3.org/Graphics/SVG/1.1/DTD/svg11.dtd">
<svg version="1.1" xmlns="http://www.w3.org/2000/svg" xmlns:xlink="http://www.w3.org/1999/xlink" x="0px" y="0px"
	 viewBox="0 0 512 512" enable-background="new 0 0 512 512" xml:space="preserve">
<g id="Layer_6">
	<path fill="#FFFFFF" d="M426.884,249.797c-6.357,0-11.962,3.208-15.292,8.092h-134.48c-3.33-4.884-8.936-8.092-15.292-8.092
		c-10.217,0-18.5,8.282-18.5,18.5v165.796c0,10.217,8.283,18.5,18.5,18.5c10.217,0,18.5-8.283,18.5-18.5v-10.2h128.064v10.2
		c0,10.217,8.283,18.5,18.5,18.5s18.5-8.283,18.5-18.5V268.297C445.384,258.079,437.101,249.797,426.884,249.797z M280.319,294.889
		h128.064v27.502H280.319V294.889z M280.319,386.893v-27.502h128.064v27.502H280.319z"/>
</g>
<g id="Layer_1">
</g>
</svg>
