<?xml version="1.0" encoding="iso-8859-1"?>
<!-- Generator: Adobe Illustrator 18.1.1, SVG Export Plug-In . SVG Version: 6.00 Build 0)  -->
<!DOCTYPE svg PUBLIC "-//W3C//DTD SVG 1.1//EN" "http://www.w3.org/Graphics/SVG/1.1/DTD/svg11.dtd">
<svg version="1.1" xmlns="http://www.w3.org/2000/svg" xmlns:xlink="http://www.w3.org/1999/xlink" x="0px" y="0px"
	 viewBox="0 0 512 512" enable-background="new 0 0 512 512" xml:space="preserve">
<g id="Layer_4">
	<path fill="#FFFFFF" d="M433.345,155.71H201.401c-10.217,0-18.5,8.283-18.5,18.5v95.234v0.762v70.448v24.786v73.793
		c0,10.217,8.283,18.5,18.5,18.5s18.5-8.283,18.5-18.5V383.94h194.944v55.293c0,10.217,8.282,18.5,18.5,18.5s18.5-8.283,18.5-18.5
		V365.44v-24.786v-70.448v-0.762V174.21C451.845,163.993,443.562,155.71,433.345,155.71z M414.845,192.71v58.234H219.901V192.71
		H414.845z M219.901,346.94v-6.286v-51.948h194.944v51.948v6.286H219.901z"/>
</g>
<g id="Layer_1">
</g>
</svg>
