<?xml version="1.0" encoding="iso-8859-1"?>
<!-- Generator: Adobe Illustrator 18.1.1, SVG Export Plug-In . SVG Version: 6.00 Build 0)  -->
<!DOCTYPE svg PUBLIC "-//W3C//DTD SVG 1.1//EN" "http://www.w3.org/Graphics/SVG/1.1/DTD/svg11.dtd">
<svg version="1.1" xmlns="http://www.w3.org/2000/svg" xmlns:xlink="http://www.w3.org/1999/xlink" x="0px" y="0px"
	 viewBox="0 0 512 512" enable-background="new 0 0 512 512" xml:space="preserve">
<g id="Layer_4">
	<path fill="#FFFFFF" d="M444.974,194.064c10.217,0,18.5-8.283,18.5-18.5s-8.283-18.5-18.5-18.5h-47.016v-35.566h47.016
		c10.217,0,18.5-8.283,18.5-18.5s-8.283-18.5-18.5-18.5h-47.016v-24.5c0-10.217-8.282-18.5-18.5-18.5s-18.5,8.283-18.5,18.5v24.5
		H258.986v-24.5c0-10.217-8.283-18.5-18.5-18.5s-18.5,8.283-18.5,18.5v24.5h-48.959c-10.217,0-18.5,8.283-18.5,18.5
		s8.283,18.5,18.5,18.5h48.959v35.566h-47.016c-10.217,0-18.5,8.283-18.5,18.5s8.283,18.5,18.5,18.5h116.501v53.913H179
		c-10.217,0-18.5,8.283-18.5,18.5v175.387c0,10.217,8.283,18.5,18.5,18.5s18.5-8.283,18.5-18.5V284.977h93.972v85.266h-23.006
		V338.94c0-10.217-8.282-18.5-18.5-18.5s-18.5,8.283-18.5,18.5v32.573v17.229v22.387c0,10.217,8.283,18.5,18.5,18.5
		s18.5-8.283,18.5-18.5v-3.887h101.511c10.217,0,18.5-8.282,18.5-18.5V338.94c0-10.217-8.283-18.5-18.5-18.5
		c-10.218,0-18.5,8.283-18.5,18.5v31.302h-23.006v-85.266h93.973v130.017c0,4.615-3.755,8.37-8.37,8.37H398.94
		c-10.217,0-18.5,8.283-18.5,18.5s8.283,18.5,18.5,18.5h15.134c25.018,0,45.37-20.353,45.37-45.37V266.477
		c0-10.217-8.283-18.5-18.5-18.5H328.472v-53.913H444.974z M258.986,121.498h101.972v35.566H258.986V121.498z"/>
</g>
<g id="Layer_1">
</g>
</svg>
