<svg xmlns="http://www.w3.org/2000/svg" viewBox="0 0 512 512" enable-background="new 0 0 512 512"><path fill="#49D1C6" d="M363.476 298.372c0 25.74-11.703 49.023-21.388 62.144-8.896 12.052-24.278-12.468-82.313-16.54-.425-.03-.86-.03-1.286 0-58.036 4.07-73.418 28.592-82.314 16.54-9.684-13.12-21.388-36.405-21.388-62.144 0-25.74 18.763-88.33 50.843-103.54 22.73-10.775 39.93-23.9 48.026-32.924 3.388-3.776 9.248-3.914 12.84-.332 9.04 9.012 25.445 23.446 46.137 33.256 32.08 15.21 50.843 77.8 50.843 103.54zm-155.748-158.37c-27.01 10.09-50.307 32.097-60.837 60.368s-7.772 56.762 4.056 29.25c23.56-54.807 65.422-64.43 82.228-77.217 25.817-19.642 5.558-23.983-25.446-12.402zm77.362 12.4c16.806 12.788 58.667 22.41 82.228 77.217 11.828 27.512 14.584-.978 4.055-29.25-10.53-28.272-33.826-50.28-60.837-60.37-31.003-11.58-51.263-7.24-25.446 12.403zm-78.514 308.984c-33.505-19.588-72.016-27.445-95.685-61.632-34.124-49.29-65.71-89.404-66.004-71.33C44.446 355.577 46 375.33 46 418c0 19.303 18.48 44.315 22.868-6.345S104 422 80 473c-6.03 12.817-8.913 22.273-9.464 28.617h20.737C96.856 495.81 103.008 487.537 109 477c25.445-44.748 34.52-8.752 48-1 24.415 14.04 28.524.192 45.86-.167 7.834-.162 54.228 15.083 3.716-14.447z"/></svg>