<?xml version="1.0" encoding="iso-8859-1"?>
<!-- Generator: Adobe Illustrator 18.1.0, SVG Export Plug-In . SVG Version: 6.00 Build 0)  -->
<!DOCTYPE svg PUBLIC "-//W3C//DTD SVG 1.1//EN" "http://www.w3.org/Graphics/SVG/1.1/DTD/svg11.dtd">
<svg version="1.1" xmlns="http://www.w3.org/2000/svg" xmlns:xlink="http://www.w3.org/1999/xlink" x="0px" y="0px"
	 viewBox="0 0 512 512" enable-background="new 0 0 512 512" xml:space="preserve">
<g id="Layer_2">
	<path fill="#3BCCFF" d="M495.639,222.776c-0.264-2.245-0.548-4.488-0.868-6.73c-0.069-0.069-0.145-0.122-0.215-0.188
		c-8.679-50.682-33.118-95.976-68.089-130.674c-4.011,4.41-9.514,5.057-18.374,2.71c-7.599-2.012-14.631-6.081-22.158-8.465
		c-22.014-6.972-36.926-0.365-46.89,20.302c-0.287,0.596-0.659,1.172-0.826,1.801c-3.88,14.599-21.478,15.486-27.615,27.108
		c-5.823,11.028-10.008,21.905-20.978,30.202c-10.618,8.031-18.926,19.898-26.114,31.412c-5.055,8.097-3.073,17.984,3.361,25.893
		c1.647,2.024,3.995,3.46,5.848,5.336c16.586,16.786,16.962,31.736-0.016,47.707c-8.158,7.674-14.381,14.304-17.058,26.753
		c-2.922,13.585-15.997,16.079-29.821,14.882c-2.413-0.209-4.618-1.502-5.873-3.573c-5.594-9.235-12.608-17.022-26.071-17.274
		c-4.607-0.086-8.846-7.331-13.676-10.69c-9.655-6.713-18.92-14.614-29.573-19.135c-22.151-9.402-42.698,0.371-50.031,23.779
		c-4.093,13.065-5.305,27.072-7.35,40.724c-1.251,8.354,0.405,18.681-9.658,21.902c-10.822,3.463-16.598-5.548-22.4-12.78
		c-11.151-13.9-15.812-30.254-17.701-47.599c-0.357-3.277-0.139-6.613-0.392-9.906c-1.797-23.417-7.283-29.333-28.946-29.161
		c-0.132,3.281-0.204,6.577-0.204,9.89c0,133.68,108.369,242.049,242.049,242.049S498.049,390.68,498.049,257
		C498.049,245.382,497.222,233.957,495.639,222.776z"/>
</g>
<g id="Layer_1">
</g>
</svg>
