<svg xmlns="http://www.w3.org/2000/svg" viewBox="0 0 512 512" enable-background="new 0 0 512 512"><path fill="#8E6049" d="M414.157 325.874c-2.54-1.052-5.48-.453-7.423 1.494-.096.095-9.808 9.655-33.85 19.11-40.412 15.897-89.363 19.234-123.31 19.234-61.507 0-101.008-10.46-123.314-19.233-24.04-9.458-33.753-19.02-33.82-19.084-1.928-1.98-4.866-2.595-7.428-1.555-2.562 1.04-4.238 3.53-4.238 6.298 0 55.07 75.295 121.584 168.8 121.584 93.502 0 168.797-66.514 168.797-121.585 0-2.75-1.67-5.214-4.212-6.266z"/></svg>