<?xml version="1.0" encoding="iso-8859-1"?>
<!-- Generator: Adobe Illustrator 19.2.1, SVG Export Plug-In . SVG Version: 6.00 Build 0)  -->
<!DOCTYPE svg PUBLIC "-//W3C//DTD SVG 1.1//EN" "http://www.w3.org/Graphics/SVG/1.1/DTD/svg11.dtd">
<svg version="1.1" xmlns="http://www.w3.org/2000/svg" xmlns:xlink="http://www.w3.org/1999/xlink" x="0px" y="0px"
	 viewBox="0 0 512 512" enable-background="new 0 0 512 512" xml:space="preserve">
<g id="Layer_2">
	<circle fill="#FFD60D" cx="120.6" cy="164.349" r="98.326"/>
</g>
<g id="Layer_3">
	<path fill="#B0E9FF" d="M438.853,309.85c-5.478,0-10.796,0.678-15.886,1.934c1.136-4.953,1.756-10.102,1.756-15.399
		c0-37.901-30.725-68.625-68.625-68.625c-14.383,0-27.727,4.433-38.756,11.995c-12.874-49.6-57.944-86.224-111.571-86.224
		c-63.658,0-115.263,51.605-115.263,115.263c-47.861,0-86.66,38.742-86.66,86.603S42.646,442,90.507,442h348.346
		c36.524,0,66.132-29.551,66.132-66.075C504.984,339.402,475.376,309.85,438.853,309.85z"/>
</g>
</svg>
