<?xml version="1.0" encoding="iso-8859-1"?>
<!-- Generator: Adobe Illustrator 19.2.1, SVG Export Plug-In . SVG Version: 6.00 Build 0)  -->
<!DOCTYPE svg PUBLIC "-//W3C//DTD SVG 1.1//EN" "http://www.w3.org/Graphics/SVG/1.1/DTD/svg11.dtd">
<svg version="1.1" xmlns="http://www.w3.org/2000/svg" xmlns:xlink="http://www.w3.org/1999/xlink" x="0px" y="0px"
	 viewBox="0 0 512 512" enable-background="new 0 0 512 512" xml:space="preserve">
<g id="Layer_7">
	<path fill="#FFB636" d="M232.835,285.428c-6.297-21.646-12.075-38.998-33.721-32.701c-0.396,0.115-0.794,0.242-1.192,0.38
		c-3.026,0.98-5.864,2.281-8.485,3.857c-1.809,1.087-3.984-0.588-3.445-2.629c0.881-3.333,1.351-6.832,1.351-10.442
		c0-22.543-18.275-23.245-40.818-23.245c-22.543,0-40.818,0.702-40.818,23.245c0,0.413,0.011,0.829,0.032,1.25
		c0.075,2.495,0.373,4.933,0.876,7.296c0.419,1.968-1.663,3.537-3.411,2.54c-2.459-1.402-5.102-2.568-7.91-3.457
		c-21.494-6.798-27.674,10.415-34.471,31.909c-6.798,21.494-11.639,39.13,9.855,45.928c0.393,0.124,0.794,0.24,1.201,0.347
		c2.048,0.58,4.106,0.994,6.158,1.247c1.952,0.241,2.741,2.643,1.315,3.998c-1.791,1.702-3.453,3.591-4.953,5.666
		c-13.211,18.267,1.186,29.545,19.453,42.755c18.267,13.21,33.487,23.351,46.697,5.084c0.242-0.335,0.477-0.679,0.707-1.032
		c0.008-0.012,0.016-0.024,0.024-0.035c0.976-1.442,3.133-1.413,3.978,0.109c0.221,0.397,0.449,0.792,0.685,1.185
		c11.631,19.311,27.648,10.484,46.959-1.147c19.311-11.631,34.604-21.661,22.973-40.972c-0.213-0.354-0.438-0.705-0.672-1.054
		c-2.133-3.312-4.67-6.215-7.508-8.685c-1.654-1.44-0.62-4.167,1.572-4.098c4.169,0.13,8.428-0.382,12.65-1.61
		C243.562,324.817,239.131,307.074,232.835,285.428z"/>
</g>
<g id="Layer_1">
</g>
</svg>
