<?xml version="1.0" encoding="iso-8859-1"?>
<!-- Generator: Adobe Illustrator 19.2.1, SVG Export Plug-In . SVG Version: 6.00 Build 0)  -->
<!DOCTYPE svg PUBLIC "-//W3C//DTD SVG 1.1//EN" "http://www.w3.org/Graphics/SVG/1.1/DTD/svg11.dtd">
<svg version="1.1" xmlns="http://www.w3.org/2000/svg" xmlns:xlink="http://www.w3.org/1999/xlink" x="0px" y="0px"
	 viewBox="0 0 512 512" enable-background="new 0 0 512 512" xml:space="preserve">
<g id="Layer_2">
	<path fill="#00B89C" d="M481.889,452.698c0,0-0.103-0.511-0.349-1.47c-0.24-0.965-0.599-2.398-1.135-4.233
		c-0.504-1.862-1.217-4.099-2.065-6.758c-0.798-2.707-2.004-5.584-3.331-8.882c-0.693-1.634-1.424-3.356-2.19-5.162
		c-0.798-1.79-1.599-3.711-2.59-5.568c-0.957-1.893-1.96-3.87-3.046-5.895c-1.07-2.04-2.207-4.144-3.419-6.295
		c-2.509-4.196-5.298-8.607-8.325-13.246c-1.564-2.253-3.231-4.507-4.921-6.857c-1.733-2.297-3.478-4.708-5.345-7.076
		c-1.919-2.298-3.861-4.684-5.902-7.06c-2.059-2.35-4.085-4.871-6.348-7.158c-4.455-4.675-9.076-9.6-14.179-14.174
		c-2.534-2.317-5.083-4.719-7.757-7.018c-1.372-1.144-2.753-2.299-4.15-3.454c-0.101-6.968-1.791-14.018-5.267-20.604
		c0,0-2.747-5.207-7.92-14.128c-1.318-2.216-2.861-4.624-4.534-7.247c-1.686-2.616-3.455-5.478-5.489-8.447
		c-4.142-5.891-8.745-12.585-14.312-19.503c-1.37-1.743-2.768-3.523-4.193-5.337c-1.453-1.793-3.006-3.564-4.557-5.385
		c-3.125-3.624-6.273-7.433-9.811-11.099c-3.482-3.709-6.991-7.57-10.844-11.278c-1.906-1.867-3.833-3.755-5.778-5.661
		c-1.951-1.898-4.017-3.722-6.048-5.607c-2.056-1.861-4.124-3.737-6.239-5.593c-2.153-1.814-4.321-3.641-6.503-5.478
		c-4.291-3.743-8.973-7.156-13.543-10.73c-1.309-0.996-2.634-1.979-3.967-2.954c-0.753-2.697-1.502-5.383-2.246-8.047
		c-0.388-1.454-0.855-2.871-1.201-4.346c-0.348-1.475-0.695-2.945-1.04-4.408c-0.684-2.933-1.39-5.85-2.135-8.748
		c-0.397-1.439-0.66-2.919-0.951-4.385c-0.282-1.467-0.589-2.927-0.898-4.382c-0.622-2.921-1.236-5.81-1.844-8.665
		c-0.621-2.87-1.041-5.768-1.565-8.607c-2.261-11.346-3.818-22.401-5.629-32.688c-0.346-2.583-0.729-5.121-1.103-7.608
		c-0.362-2.487-0.745-4.924-1.133-7.308c-0.191-1.193-0.379-2.371-0.565-3.534c-0.188-1.165-0.419-2.315-0.554-3.453
		c-0.302-2.274-0.607-4.489-0.929-6.643c-0.617-4.305-1.25-8.358-1.874-12.125c-0.156-0.943-0.308-1.866-0.457-2.77
		c-0.157-0.905-0.322-1.794-0.438-2.661c-0.259-1.738-0.505-3.394-0.739-4.967c-0.959-6.303-1.863-11.316-2.519-14.748
		c-0.666-3.434-1.089-5.286-1.089-5.286l-0.049-0.215c-0.41-1.759-1.54-3.342-3.25-4.276c-3.183-1.737-7.172-0.565-8.91,2.618
		c0,0-0.91,1.668-2.49,4.833c-1.57,3.167-3.815,7.834-6.48,13.849c-2.778,5.992-5.535,13.429-8.648,22.037
		c-0.782,2.152-1.561,4.381-2.352,6.682c-0.794,2.302-1.472,4.704-2.211,7.163c-0.739,2.461-1.483,4.993-2.213,7.594
		c-0.743,2.6-1.503,5.267-2.234,8.001c-2.627,11.012-5.419,23.037-7.176,36.123c-0.377,2.79-0.83,5.607-1.18,8.481
		c-3.744-1.482-7.514-2.83-11.198-4.186c-5.247-1.753-10.337-3.526-15.489-4.911c-2.565-0.712-5.044-1.497-7.584-2.106
		c-2.525-0.609-5.019-1.211-7.479-1.805c-4.976-1.066-9.752-2.132-14.514-2.829c-2.371-0.368-4.657-0.793-6.962-1.081
		c-2.3-0.268-4.557-0.532-6.768-0.79c-2.196-0.261-4.408-0.408-6.532-0.569c-2.13-0.155-4.201-0.302-6.265-0.35
		c-2.049-0.073-4.037-0.144-5.967-0.175c-1.955,0.027-3.854,0.052-5.694,0.077c-0.918,0.021-1.809,0.017-2.702,0.06
		c-0.899,0.058-1.782,0.115-2.65,0.17c-1.723,0.12-3.384,0.235-4.98,0.346c-1.615,0.193-3.163,0.377-4.643,0.554
		c-1.465,0.175-2.863,0.349-4.227,0.614c-2.722,0.507-4.973,0.866-7.375,1.464c-1.128,0.273-2.172,0.525-3.128,0.756
		c-0.46,0.118-0.953,0.229-1.317,0.352c-0.337,0.127-0.656,0.248-0.958,0.361c-2.415,0.907-3.699,1.431-3.699,1.431
		c-3.809,1.587-6.85,5.029-7.677,9.386c-1.307,6.887,3.217,13.529,10.103,14.836l0.038,0.007c0,0,1.364,0.259,3.913,0.669
		c0.319,0.052,0.656,0.107,1.012,0.164c0.328,0.068,0.569,0.18,0.874,0.267c0.576,0.184,1.205,0.384,1.884,0.6
		c1.47,0.462,3.159,0.992,5.051,1.587c0.491,0.164,0.982,0.29,1.504,0.471c0.523,0.185,1.059,0.376,1.608,0.57
		c1.084,0.382,2.219,0.782,3.402,1.199c1.188,0.461,2.425,0.94,3.708,1.438c0.635,0.247,1.281,0.498,1.939,0.754
		c0.662,0.278,1.335,0.561,2.018,0.849c5.438,2.175,11.542,5.14,18.069,8.355c3.263,1.699,6.635,3.431,10.097,5.359
		c0.863,0.471,1.734,0.946,2.611,1.425c0.87,0.509,1.746,1.023,2.63,1.54c1.769,1.022,3.567,2.011,5.367,3.087
		c3.582,2.228,7.27,4.387,10.964,6.796c1.852,1.179,3.722,2.352,5.571,3.642c1.863,1.233,3.744,2.478,5.64,3.733
		c1.86,1.317,3.735,2.644,5.623,3.982c1.907,1.28,3.78,2.67,5.663,4.055c3.795,2.707,7.506,5.658,11.282,8.522
		c6.767,5.386,13.586,10.822,20.094,16.65c0.299,1.542,0.599,3.083,0.911,4.628c0.352,2.024,0.95,4.046,1.452,6.076
		c0.521,2.03,1.048,4.064,1.609,6.091c0.387,1.404,0.775,2.811,1.163,4.217c-3.134-0.374-6.289-0.601-9.394-0.899
		c-1.901-0.168-3.796-0.335-5.683-0.502c-1.877-0.201-3.795-0.198-5.675-0.302c-3.775-0.148-7.505-0.331-11.2-0.429
		c-3.715-0.019-7.404,0.039-11.033,0.066c-1.815,0.039-3.62,0.078-5.415,0.116c-1.803,0.102-3.595,0.203-5.376,0.304
		c-3.559,0.218-7.067,0.493-10.513,0.739c-3.467,0.348-6.882,0.819-10.228,1.222c-1.674,0.215-3.331,0.405-4.973,0.641
		c-1.644,0.244-3.282,0.569-4.897,0.847c-3.233,0.565-6.397,1.165-9.487,1.773c-3.092,0.595-6.13,1.417-9.078,2.143
		c-2.953,0.765-5.825,1.406-8.621,2.284c-2.797,0.874-5.516,1.718-8.146,2.596c-2.63,0.872-5.182,1.656-7.636,2.691
		c-2.456,0.974-4.83,1.899-7.106,2.852c-1.136,0.47-2.254,0.933-3.353,1.387c-1.098,0.437-2.159,1.007-3.204,1.499
		c-2.087,1.017-4.089,1.979-5.991,2.949c-0.949,0.48-1.878,0.95-2.788,1.41c-0.912,0.465-1.774,0.89-2.674,1.424
		c-1.772,1.017-3.447,1.977-5.012,2.921c-1.568,0.934-3.038,1.814-4.397,2.677c-1.357,0.855-2.674,1.639-3.649,2.424
		c-2.084,1.519-3.813,2.934-5.237,4.018c-2.827,2.228-4.308,3.492-4.308,3.492c-2.216,1.908-3.681,4.506-3.765,7.66
		C50.727,323.135,55.411,328,61.345,328h0.006c0,0,1.947,0.281,5.547,0.235c1.789-0.053,4.024,0.074,6.6-0.055
		c1.334-0.104,2.588,0.063,3.952,0.126c1.364,0.079,2.787,0.155,4.277,0.209c1.47,0.045,3.02,0.106,4.644,0.155
		c1.613,0.057,3.455,0.208,5.269,0.304c3.685,0.258,7.537,0.276,11.744,0.746c4.187,0.409,8.518,0.599,13.155,1.24
		c2.306,0.287,4.65,0.527,7.036,0.78c1.186,0.094,2.414,0.339,3.637,0.502c1.222,0.174,2.457,0.351,3.705,0.529
		c1.241,0.176,2.494,0.353,3.76,0.533c1.263,0.171,2.525,0.295,3.822,0.552c2.582,0.464,5.197,0.919,7.842,1.335
		c1.324,0.225,2.649,0.406,3.994,0.67c1.347,0.29,2.702,0.536,4.063,0.805c2.724,0.52,5.473,1.082,8.253,1.574
		c2.792,0.619,5.608,1.272,8.45,1.872c1.419,0.297,2.846,0.597,4.282,0.898c1.434,0.36,2.876,0.723,4.326,1.087
		c2.898,0.698,5.817,1.351,8.755,2.083c2.939,0.819,5.906,1.563,8.884,2.349c2.978,0.743,5.978,1.619,8.99,2.485
		c1.504,0.429,3.014,0.86,4.529,1.293c1.513,0.427,3.038,0.809,4.553,1.31c3.039,0.932,6.081,1.909,9.15,2.802
		c1.537,0.425,3.067,0.932,4.597,1.45c1.53,0.508,3.063,1.016,4.6,1.526c6.183,1.84,12.29,4.239,18.501,6.235
		c3.075,1.135,6.133,2.334,9.23,3.413c1.541,0.566,3.099,1.07,4.626,1.683l4.586,1.817c3.054,1.219,6.166,2.266,9.19,3.555
		l4.546,1.894l4.566,1.82c1.53,0.584,3.029,1.239,4.523,1.902c1.497,0.654,2.993,1.307,4.487,1.959
		c2.999,1.275,6.014,2.494,8.95,3.856c2.958,1.315,5.914,2.607,8.877,3.854c2.928,1.315,5.821,2.667,8.74,3.936
		c1.453,0.647,2.908,1.281,4.372,1.891c1.433,0.665,2.862,1.327,4.285,1.988c2.834,1.347,5.718,2.571,8.557,3.834
		c2.772,1.367,5.583,2.629,8.361,3.905c1.394,0.629,2.765,1.287,4.167,1.882c1.365,0.652,2.722,1.301,4.073,1.947
		c2.693,1.312,5.417,2.53,8.109,3.752c2.631,1.301,5.259,2.552,7.867,3.785c5.279,2.395,10.238,4.968,15.234,7.289
		c2.504,1.159,4.895,2.374,7.271,3.562c2.375,1.186,4.767,2.296,7.093,3.421c2.303,1.16,4.557,2.295,6.761,3.405
		c2.251,1.094,4.449,2.162,6.593,3.203c4.207,2.182,8.279,4.24,12.219,6.125c3.794,2.011,7.441,3.865,10.894,5.56
		c1.736,0.842,3.361,1.687,4.907,2.517c1.58,0.812,3.087,1.586,4.517,2.321c5.887,2.849,10.413,5.316,13.715,6.879
		c1.623,0.803,2.918,1.392,3.794,1.79c0.869,0.403,1.342,0.596,1.342,0.596l0.5,0.205c1.643,0.673,3.496,0.884,5.367,0.507
		C479.638,462.665,482.906,457.747,481.889,452.698z"/>
</g>
<g id="Layer_3">
	<path fill="#009E83" d="M499.439,462.031c0,0-1.015-1.962-3.027-5.547c-2.019-3.579-5.034-8.779-9.037-15.275
		c-2.031-3.222-4.315-6.763-6.846-10.583c-2.523-3.829-5.279-7.949-8.366-12.24c-1.523-2.165-3.117-4.379-4.77-6.651
		c-1.647-2.279-3.338-4.625-5.135-6.984c-1.793-2.365-3.647-4.78-5.569-7.23c-1.913-2.461-3.874-4.98-5.911-7.52
		c-4.092-5.075-8.483-10.261-13.041-15.628c-4.612-5.324-9.536-10.706-14.585-16.264c-2.092-2.171-4.206-4.38-6.343-6.601
		c-0.472-0.916-0.943-1.831-1.418-2.753c-0.728-1.429-1.489-2.84-2.245-4.26c-0.734-1.431-1.577-2.813-2.207-4.303
		c-1.333-2.946-2.738-5.863-4.143-8.797c-1.485-2.899-2.62-5.962-3.924-8.955c-0.638-1.5-1.279-3.005-1.921-4.514l-0.967-2.259
		l-0.848-2.307c-1.144-3.06-2.293-6.136-3.448-9.224c-4.29-12.426-7.901-25.14-10.681-38.056c-0.583-3.26-1.221-6.504-1.847-9.746
		c-0.355-1.61-0.558-3.259-0.777-4.901l-0.742-4.908c-0.231-1.638-0.547-3.255-0.716-4.905c-0.165-1.651-0.33-3.3-0.495-4.947
		c-0.374-3.289-0.845-6.551-0.99-9.873c-0.217-3.309-0.625-6.579-0.786-9.883c-0.119-3.31-0.359-6.606-0.544-9.889
		c-0.175-6.608-0.518-13.156-0.494-19.712c-0.179-6.525,0.036-13.048-0.01-19.467c0.126-3.218,0.16-6.421,0.209-9.594
		c0.012-0.794,0.024-1.585,0.036-2.374c0.03-0.793,0.06-1.584,0.09-2.372c0.052-1.582,0.104-3.154,0.155-4.715
		c0.112-6.25,0.492-12.413,0.638-18.417c0.138-3.02,0.274-5.989,0.408-8.903c0.075-1.46,0.106-2.919,0.152-4.362
		c0.044-1.444,0.146-2.876,0.216-4.295c0.24-5.736,0.471-11.233,0.69-16.462c0.182-5.322,0.354-10.371,0.516-15.115
		c0.057-2.402,0.112-4.728,0.165-6.972c0.076-2.25,0.108-4.435,0.141-6.537c0.027-4.237,0.052-8.129,0.074-11.644
		c-0.021-3.546-0.064-6.724-0.157-9.521c-0.076-2.792-0.13-5.169-0.25-7.123c-0.083-1.942-0.196-3.449-0.272-4.465
		c-0.07-1.014-0.13-1.546-0.13-1.546l-0.01-0.09c-0.222-1.928-1.106-3.791-2.64-5.215c-3.414-3.172-8.754-2.975-11.926,0.439
		c0,0-0.366,0.394-1.027,1.174c-0.668,0.778-1.659,1.933-2.887,3.464c-2.495,3.048-6.024,7.567-10.192,13.494
		c-1.03,1.486-2.116,3.052-3.255,4.694c-1.09,1.666-2.265,3.403-3.424,5.237c-2.357,3.656-4.86,7.635-7.351,11.995
		c-1.28,2.166-2.536,4.425-3.853,6.75c-1.306,2.333-2.537,4.782-3.864,7.279c-1.287,2.513-2.62,5.078-3.914,7.758
		c-1.253,2.697-2.535,5.457-3.844,8.275c-1.288,2.824-2.556,5.752-3.772,8.765c-1.201,3.016-2.514,6.068-3.687,9.234
		c-2.292,6.371-4.721,12.949-6.724,19.94c-2.179,6.918-3.962,14.227-5.722,21.724c-0.811,3.772-1.561,7.625-2.269,11.517
		c-0.77,3.876-1.345,7.867-1.862,11.894c-0.523,4.028-1.154,8.079-1.403,12.239c-0.166,2.073-0.332,4.154-0.499,6.242
		c-0.152,2.094-0.371,4.178-0.396,6.304c-0.096,4.242-0.246,8.518-0.275,12.816l-0.014,1.613l0.05,1.623l0.106,3.253
		c0.08,2.171,0.129,4.35,0.241,6.53c0.133,4.357,0.618,8.749,1.028,13.151c0.237,2.198,0.474,4.399,0.712,6.603
		c0.249,2.203,0.654,4.405,0.979,6.61c0.064,0.389,0.123,0.778,0.185,1.168c-2.272-1.262-4.55-2.513-6.854-3.723
		c-4.115-2.076-8.226-4.15-12.329-6.221c-2.045-1.038-4.161-1.97-6.261-2.921c-2.101-0.948-4.2-1.895-6.295-2.841
		c-2.105-0.931-4.17-1.916-6.299-2.793c-2.137-0.858-4.27-1.715-6.399-2.57c-17.044-6.775-34.476-12.187-51.768-15.708
		c-4.29-0.969-8.607-1.729-12.884-2.41c-4.277-0.684-8.483-1.451-12.724-1.833c-2.107-0.232-4.203-0.463-6.287-0.692
		c-2.083-0.22-4.143-0.479-6.215-0.588c-4.141-0.236-8.212-0.511-12.236-0.657c-16.103-0.443-31.271,0.221-45.053,2.152
		c-13.79,1.729-26.18,4.528-36.945,7.52c-2.698,0.712-5.277,1.545-7.761,2.359c-2.484,0.806-4.867,1.592-7.145,2.388
		c-1.137,0.395-2.251,0.782-3.341,1.16c-1.102,0.425-2.179,0.84-3.232,1.246c-2.105,0.805-4.094,1.644-5.975,2.401
		c-7.666,3.045-12.833,5.991-16.592,8.006c-1.852,1.003-3.266,1.823-4.218,2.383c-0.953,0.548-1.442,0.861-1.442,0.861
		c-2.484,1.594-4.477,4.017-5.5,7.028c-2.399,7.065,1.383,14.737,8.448,17.136c0,0,0.549,0.187,1.607,0.489
		c1.059,0.315,2.628,0.77,4.667,1.298c4.028,1.105,10.252,2.429,17.181,4.335c1.763,0.431,3.614,0.924,5.536,1.368
		c0.961,0.231,1.943,0.468,2.948,0.71c1.021,0.26,2.064,0.525,3.129,0.797c4.248,1.126,8.805,2.068,13.609,3.309
		c9.608,2.442,20.238,4.958,31.505,8.044c11.296,2.877,23.193,6.458,35.528,10.158c3.067,1.029,6.183,1.945,9.319,2.914
		c3.111,1.036,6.259,2.085,9.442,3.145c0.793,0.262,1.588,0.524,2.384,0.787c0.801,0.243,1.601,0.494,2.394,0.792
		c1.589,0.567,3.186,1.136,4.79,1.708c3.195,1.18,6.468,2.129,9.684,3.44c12.99,4.655,26.214,9.961,39.64,15.648
		c3.361,1.403,6.749,2.783,10.111,4.333c1.686,0.752,3.374,1.505,5.065,2.259c1.691,0.753,3.39,1.485,5.062,2.331
		c3.38,1.592,6.766,3.187,10.156,4.784c1.693,0.813,3.358,1.716,5.049,2.551l5.08,2.515c3.411,1.611,6.727,3.513,10.11,5.249
		l5.07,2.624c1.695,0.858,3.349,1.842,5.024,2.755c3.331,1.88,6.728,3.623,10.062,5.493c3.313,1.928,6.635,3.828,9.975,5.68
		c13.223,7.696,26.36,15.399,39.03,23.3c3.166,1.969,6.35,3.853,9.462,5.839c3.126,1.957,6.199,3.931,9.302,5.813
		c6.169,3.887,12.205,7.689,18.081,11.391c2.948,1.885,5.856,3.744,8.721,5.575c2.866,1.839,5.754,3.567,8.53,5.374
		c5.571,3.596,11.017,7.013,16.276,10.301c2.599,1.685,5.178,3.302,7.702,4.885c1.801,1.141,3.577,2.242,5.338,3.327
		c0.75,0.523,1.506,1.049,2.245,1.565c1.211,0.818,2.465,1.55,3.671,2.311c4.843,3.016,9.456,5.804,13.801,8.37
		c0.543,0.32,1.082,0.637,1.617,0.951c0.216,0.117,0.427,0.231,0.641,0.347c2.151,1.305,4.225,2.564,6.211,3.77
		c3.819,2.302,7.368,4.385,10.605,6.242c6.439,3.761,11.579,6.668,15.144,8.594c3.565,1.927,5.524,2.904,5.524,2.904l0.269,0.135
		c4.067,1.996,8.995,2.105,13.327-0.136C500.355,478.213,503.193,469.287,499.439,462.031z"/>
</g>
<g id="Layer_4">
	<path fill="#FF929D" d="M413.861,299.409c-4.222,1.228-8.481,1.74-12.65,1.61c-2.192-0.068-3.226,2.659-1.572,4.098
		c2.838,2.47,5.375,5.373,7.508,8.685c0.234,0.349,0.459,0.701,0.672,1.054c11.631,19.311-3.662,29.341-22.973,40.972
		c-19.311,11.631-35.328,20.458-46.959,1.147c-0.236-0.393-0.465-0.788-0.685-1.185c-0.845-1.522-3.002-1.551-3.978-0.109
		c-0.008,0.012-0.016,0.024-0.024,0.035c-0.23,0.353-0.465,0.697-0.707,1.032c-13.211,18.267-28.43,8.126-46.697-5.084
		c-18.267-13.211-32.664-24.489-19.453-42.755c1.501-2.075,3.162-3.964,4.953-5.666c1.426-1.355,0.637-3.757-1.315-3.998
		c-2.052-0.253-4.11-0.666-6.158-1.247c-0.407-0.107-0.807-0.222-1.201-0.347c-21.494-6.798-16.653-24.434-9.855-45.928
		c6.798-21.494,12.977-38.707,34.471-31.909c2.809,0.888,5.451,2.054,7.91,3.457c1.748,0.997,3.83-0.571,3.411-2.54
		c-0.503-2.363-0.801-4.801-0.876-7.296c-0.021-0.42-0.032-0.837-0.032-1.25c0-22.543,18.275-23.245,40.818-23.245
		c22.543,0,40.818,0.702,40.818,23.245c0,3.61-0.47,7.109-1.351,10.442c-0.539,2.04,1.636,3.716,3.444,2.629
		c2.621-1.575,5.459-2.877,8.485-3.857c0.398-0.137,0.795-0.264,1.192-0.38c21.646-6.297,27.424,11.055,33.721,32.701
		C431.077,275.369,435.507,293.112,413.861,299.409z M303.788,104.029c-5.349-18.387-10.257-33.127-28.645-27.778
		c-0.337,0.098-0.674,0.206-1.012,0.322c-2.571,0.833-4.981,1.938-7.208,3.276c-1.537,0.924-3.384-0.5-2.926-2.233
		c0.748-2.831,1.147-5.804,1.147-8.87c0-19.15-15.524-19.746-34.673-19.746c-19.15,0-34.673,0.596-34.673,19.746
		c0,0.351,0.009,0.705,0.027,1.062c0.064,2.119,0.317,4.191,0.744,6.197c0.356,1.672-1.413,3.004-2.898,2.157
		c-2.089-1.191-4.334-2.182-6.719-2.936c-18.258-5.774-23.508,8.847-29.282,27.105c-5.774,18.258-9.887,33.239,8.371,39.014
		c0.334,0.106,0.674,0.203,1.02,0.294c1.74,0.493,3.487,0.844,5.231,1.059c1.658,0.205,2.328,2.246,1.117,3.396
		c-1.522,1.446-2.933,3.05-4.208,4.813c-11.222,15.517,1.008,25.097,16.525,36.319c15.517,11.222,28.445,19.836,39.667,4.319
		c0.206-0.284,0.406-0.577,0.601-0.877c0.007-0.01,0.014-0.02,0.02-0.03c0.829-1.225,2.661-1.201,3.379,0.093
		c0.187,0.338,0.381,0.673,0.582,1.007c9.88,16.404,23.486,8.906,39.89-0.974c16.404-9.88,29.395-18.4,19.515-34.804
		c-0.181-0.3-0.372-0.599-0.571-0.896c-1.812-2.813-3.967-5.28-6.378-7.378c-1.405-1.223-0.526-3.539,1.336-3.481
		c3.541,0.11,7.159-0.325,10.745-1.368C312.9,137.489,309.136,122.416,303.788,104.029z"/>
</g>
<g id="Layer_5">
	<path fill="#FF473E" d="M384.373,269.411c0,0-0.022,0.073-0.063,0.213c-0.04,0.146-0.105,0.348-0.196,0.591
		c-0.089,0.249-0.2,0.557-0.33,0.919c-0.14,0.333-0.294,0.735-0.484,1.14c-0.188,0.408-0.395,0.864-0.637,1.313
		c-0.234,0.473-0.503,0.938-0.793,1.431c-0.577,0.99-1.266,2.007-2.057,3.005c-1.582,1.998-3.585,3.901-5.923,5.412
		c-1.168,0.76-2.425,1.406-3.734,1.977c-1.305,0.583-2.654,1.111-4.016,1.602c-1.115,0.398-2.246,0.744-3.376,1.066
		c0.63,0.992,1.244,2.002,1.812,3.041c0.691,1.273,1.347,2.564,1.934,3.867c0.598,1.297,1.107,2.616,1.474,3.96
		c0.742,2.684,0.971,5.437,0.824,7.981c-0.073,1.272-0.235,2.488-0.462,3.612c-0.111,0.56-0.22,1.087-0.359,1.596
		c-0.117,0.496-0.267,0.974-0.397,1.404c-0.128,0.428-0.28,0.831-0.397,1.173c-0.144,0.356-0.266,0.659-0.365,0.905
		c-0.093,0.243-0.179,0.436-0.247,0.572c-0.062,0.133-0.094,0.202-0.094,0.202c-2.227,4.751-7.275,7.281-12.211,6.552
		c0,0-0.075-0.011-0.22-0.033c-0.15-0.019-0.359-0.055-0.613-0.111c-0.26-0.053-0.58-0.119-0.956-0.196
		c-0.35-0.092-0.769-0.188-1.196-0.318c-0.43-0.129-0.911-0.269-1.39-0.445c-0.501-0.165-1-0.366-1.528-0.583
		c-1.062-0.432-2.165-0.97-3.265-1.612c-2.201-1.284-4.368-2.998-6.194-5.1c-0.918-1.048-1.735-2.202-2.485-3.418
		c-0.212-0.338-0.413-0.687-0.618-1.033c-0.261,0.305-0.517,0.616-0.784,0.913c-0.945,1.071-1.945,2.07-3.027,2.949
		c-2.155,1.763-4.58,3.086-6.966,3.98c-1.192,0.448-2.371,0.791-3.49,1.037c-0.558,0.125-1.083,0.239-1.605,0.316
		c-0.501,0.093-0.999,0.15-1.445,0.204c-0.443,0.056-0.873,0.08-1.233,0.111c-0.384,0.013-0.711,0.023-0.976,0.032
		c-0.26,0.013-0.471,0.013-0.623,0.006c-0.147-0.003-0.223-0.005-0.223-0.005c-5.245-0.116-9.601-3.711-10.929-8.521
		c0,0-0.02-0.073-0.059-0.215c-0.044-0.145-0.095-0.35-0.146-0.605c-0.056-0.259-0.125-0.578-0.207-0.954
		c-0.057-0.357-0.139-0.779-0.193-1.223c-0.056-0.445-0.122-0.942-0.154-1.451c-0.052-0.525-0.07-1.062-0.085-1.633
		c-0.034-1.146,0.012-2.373,0.155-3.638c0.285-2.532,0.977-5.207,2.161-7.727c0.588-1.263,1.313-2.477,2.122-3.654
		c0.223-0.331,0.462-0.656,0.694-0.983c-0.385-0.115-0.773-0.224-1.152-0.348c-1.362-0.431-2.68-0.942-3.92-1.576
		c-2.484-1.258-4.674-2.942-6.456-4.763c-0.891-0.91-1.682-1.849-2.36-2.773c-0.339-0.46-0.656-0.894-0.938-1.34
		c-0.288-0.421-0.541-0.853-0.771-1.239c-0.23-0.383-0.426-0.766-0.6-1.083c-0.167-0.346-0.309-0.641-0.424-0.879
		c-0.117-0.232-0.202-0.426-0.257-0.567c-0.056-0.136-0.085-0.206-0.085-0.206c-2.014-4.845-0.487-10.281,3.376-13.44
		c0,0,0.059-0.048,0.172-0.141c0.115-0.099,0.282-0.229,0.495-0.379c0.214-0.156,0.478-0.348,0.789-0.575
		c0.303-0.197,0.656-0.442,1.041-0.671c0.385-0.231,0.812-0.493,1.265-0.728c0.459-0.26,0.943-0.493,1.46-0.738
		c1.034-0.494,2.175-0.948,3.39-1.329c2.432-0.763,5.157-1.212,7.941-1.147c1.393,0.027,2.796,0.2,4.2,0.464
		c1.342,0.24,2.689,0.546,4.029,0.886c-0.003-0.057-0.009-0.114-0.012-0.171c-0.062-1.447-0.084-2.895-0.039-4.324
		c0.032-1.428,0.154-2.836,0.415-4.205c0.512-2.737,1.515-5.311,2.764-7.532c0.624-1.111,1.304-2.133,2.001-3.042
		c0.346-0.455,0.675-0.88,1.024-1.276c0.323-0.394,0.668-0.758,0.973-1.087c0.303-0.328,0.616-0.623,0.871-0.879
		c0.286-0.257,0.528-0.476,0.725-0.653c0.191-0.177,0.352-0.313,0.473-0.406c0.114-0.092,0.173-0.14,0.173-0.14
		c4.087-3.29,9.734-3.347,13.848-0.524c0,0,0.062,0.043,0.183,0.126c0.127,0.083,0.299,0.207,0.502,0.369
		c0.21,0.162,0.469,0.362,0.773,0.596c0.274,0.236,0.608,0.506,0.935,0.811c0.33,0.305,0.701,0.642,1.053,1.01
		c0.378,0.368,0.738,0.768,1.117,1.195c0.764,0.854,1.52,1.822,2.225,2.882c1.414,2.12,2.608,4.612,3.325,7.302
		c0.364,1.345,0.591,2.74,0.731,4.162c0.143,1.331,0.225,2.685,0.274,4.041c1.356-0.504,2.726-0.97,4.097-1.367
		c1.368-0.409,2.746-0.727,4.128-0.9c2.762-0.355,5.519-0.194,8.017,0.311c1.249,0.251,2.43,0.584,3.51,0.967
		c0.539,0.189,1.045,0.371,1.529,0.581c0.475,0.186,0.927,0.402,1.334,0.591c0.406,0.187,0.783,0.394,1.105,0.558
		c0.333,0.193,0.615,0.356,0.845,0.489c0.227,0.127,0.407,0.239,0.531,0.325c0.123,0.08,0.186,0.122,0.186,0.122
		C384,259.273,385.793,264.628,384.373,269.411z M265.418,106.301c0,0-0.054-0.035-0.158-0.104
		c-0.106-0.073-0.259-0.168-0.452-0.276c-0.195-0.113-0.435-0.252-0.717-0.415c-0.274-0.139-0.594-0.315-0.939-0.474
		c-0.346-0.161-0.73-0.344-1.133-0.502c-0.411-0.179-0.841-0.333-1.299-0.494c-0.918-0.326-1.921-0.608-2.982-0.822
		c-2.122-0.429-4.464-0.566-6.81-0.264c-1.174,0.147-2.345,0.417-3.507,0.764c-1.165,0.337-2.328,0.733-3.48,1.161
		c-0.042-1.152-0.112-2.302-0.233-3.433c-0.119-1.207-0.312-2.393-0.621-3.535c-0.609-2.285-1.624-4.401-2.824-6.203
		c-0.599-0.901-1.241-1.723-1.89-2.448c-0.322-0.363-0.628-0.702-0.949-1.015c-0.299-0.313-0.614-0.6-0.894-0.858
		c-0.278-0.259-0.562-0.488-0.795-0.689c-0.258-0.199-0.478-0.369-0.656-0.507c-0.173-0.138-0.319-0.243-0.426-0.313
		c-0.103-0.071-0.156-0.107-0.156-0.107c-3.495-2.398-8.292-2.35-11.763,0.445c0,0-0.05,0.04-0.147,0.119
		c-0.102,0.078-0.24,0.194-0.402,0.345c-0.167,0.151-0.374,0.336-0.616,0.555c-0.217,0.217-0.483,0.468-0.74,0.747
		c-0.26,0.279-0.552,0.588-0.827,0.923c-0.296,0.336-0.576,0.697-0.87,1.084c-0.592,0.773-1.17,1.641-1.7,2.584
		c-1.061,1.887-1.913,4.073-2.348,6.398c-0.222,1.163-0.325,2.359-0.353,3.572c-0.038,1.213-0.019,2.444,0.033,3.673
		c0.002,0.049,0.008,0.097,0.01,0.145c-1.138-0.289-2.282-0.549-3.422-0.753c-1.192-0.224-2.384-0.371-3.568-0.394
		c-2.365-0.055-4.68,0.326-6.745,0.974c-1.033,0.323-2.001,0.709-2.88,1.129c-0.439,0.208-0.85,0.406-1.24,0.627
		c-0.385,0.2-0.748,0.422-1.074,0.618c-0.326,0.194-0.626,0.403-0.884,0.57c-0.264,0.192-0.488,0.356-0.67,0.488
		c-0.181,0.127-0.322,0.238-0.42,0.322c-0.097,0.079-0.146,0.12-0.146,0.12c-3.281,2.683-4.579,7.302-2.868,11.417
		c0,0,0.025,0.059,0.073,0.175c0.047,0.12,0.119,0.284,0.218,0.482c0.098,0.203,0.218,0.453,0.36,0.747
		c0.148,0.269,0.314,0.595,0.51,0.92c0.195,0.328,0.41,0.695,0.655,1.052c0.239,0.378,0.508,0.748,0.797,1.138
		c0.576,0.785,1.247,1.583,2.005,2.356c1.514,1.547,3.375,2.977,5.484,4.046c1.054,0.539,2.174,0.973,3.33,1.339
		c0.322,0.105,0.652,0.198,0.979,0.296c-0.198,0.278-0.4,0.554-0.59,0.835c-0.687,1-1.303,2.031-1.802,3.104
		c-1.006,2.14-1.594,4.412-1.836,6.563c-0.122,1.075-0.161,2.117-0.132,3.09c0.013,0.485,0.028,0.942,0.072,1.388
		c0.027,0.432,0.083,0.854,0.131,1.233c0.046,0.377,0.115,0.736,0.164,1.039c0.069,0.319,0.128,0.59,0.176,0.81
		c0.043,0.217,0.087,0.391,0.124,0.514c0.033,0.12,0.05,0.182,0.05,0.182c1.128,4.086,4.828,7.139,9.283,7.238
		c0,0,0.064,0.001,0.189,0.004c0.129,0.006,0.308,0.006,0.529-0.005c0.225-0.007,0.502-0.017,0.829-0.027
		c0.306-0.027,0.671-0.047,1.047-0.094c0.379-0.046,0.801-0.094,1.227-0.173c0.443-0.066,0.889-0.163,1.363-0.269
		c0.951-0.209,1.952-0.501,2.965-0.881c2.027-0.759,4.087-1.883,5.918-3.381c0.919-0.746,1.768-1.595,2.571-2.505
		c0.226-0.252,0.445-0.516,0.666-0.776c0.174,0.293,0.345,0.59,0.525,0.877c0.637,1.032,1.331,2.013,2.111,2.903
		c1.551,1.786,3.391,3.241,5.261,4.332c0.934,0.546,1.872,1.003,2.773,1.37c0.449,0.185,0.873,0.355,1.298,0.495
		c0.406,0.15,0.815,0.269,1.18,0.378c0.363,0.111,0.719,0.192,1.016,0.27c0.32,0.066,0.592,0.122,0.812,0.167
		c0.216,0.048,0.393,0.078,0.521,0.094c0.123,0.018,0.187,0.028,0.187,0.028c4.193,0.62,8.482-1.53,10.373-5.565
		c0,0,0.027-0.058,0.08-0.171c0.057-0.115,0.13-0.28,0.209-0.486c0.084-0.209,0.188-0.466,0.31-0.769
		c0.099-0.29,0.228-0.632,0.337-0.996c0.111-0.365,0.238-0.771,0.337-1.193c0.119-0.432,0.211-0.879,0.305-1.355
		c0.193-0.954,0.331-1.988,0.392-3.068c0.125-2.161-0.07-4.5-0.7-6.779c-0.311-1.142-0.744-2.262-1.252-3.364
		c-0.499-1.107-1.056-2.204-1.643-3.285c-0.483-0.882-1.004-1.741-1.539-2.583c0.96-0.273,1.92-0.567,2.868-0.905
		c1.157-0.417,2.303-0.866,3.412-1.361c1.112-0.485,2.18-1.034,3.172-1.68c1.987-1.283,3.688-2.9,5.032-4.597
		c0.672-0.848,1.257-1.711,1.747-2.552c0.246-0.418,0.475-0.814,0.673-1.215c0.206-0.381,0.381-0.769,0.541-1.115
		c0.161-0.344,0.292-0.685,0.411-0.968c0.11-0.307,0.204-0.569,0.28-0.78c0.078-0.207,0.133-0.378,0.167-0.502
		c0.036-0.12,0.054-0.181,0.054-0.181C270.669,113.292,269.146,108.743,265.418,106.301z"/>
</g>
<g id="Layer_6">
	<path fill="#FFB636" d="M354.847,278.333c0,9.034-7.323,16.357-16.357,16.357s-16.357-7.323-16.357-16.357
		s7.323-16.357,16.357-16.357S354.847,269.3,354.847,278.333z M230.488,111.04c-7.674,0-13.894,6.221-13.894,13.894
		s6.221,13.894,13.894,13.894c7.674,0,13.894-6.221,13.894-13.894S238.161,111.04,230.488,111.04z"/>
</g>
<g id="Layer_7">
	<path fill="#FFB636" d="M232.835,285.428c-6.297-21.646-12.075-38.998-33.721-32.701c-0.396,0.115-0.794,0.242-1.192,0.38
		c-3.026,0.98-5.864,2.281-8.485,3.857c-1.809,1.087-3.984-0.588-3.445-2.629c0.881-3.333,1.351-6.832,1.351-10.442
		c0-22.543-18.275-23.245-40.818-23.245c-22.543,0-40.818,0.702-40.818,23.245c0,0.413,0.011,0.829,0.032,1.25
		c0.075,2.495,0.373,4.933,0.876,7.296c0.419,1.968-1.663,3.537-3.411,2.54c-2.459-1.402-5.102-2.568-7.91-3.457
		c-21.494-6.798-27.674,10.415-34.471,31.909c-6.798,21.494-11.639,39.13,9.855,45.928c0.393,0.124,0.794,0.24,1.201,0.347
		c2.048,0.58,4.106,0.994,6.158,1.247c1.952,0.241,2.741,2.643,1.315,3.998c-1.791,1.702-3.453,3.591-4.953,5.666
		c-13.211,18.267,1.186,29.545,19.453,42.755c18.267,13.21,33.487,23.351,46.697,5.084c0.242-0.335,0.477-0.679,0.707-1.032
		c0.008-0.012,0.016-0.024,0.024-0.035c0.976-1.442,3.133-1.413,3.978,0.109c0.221,0.397,0.449,0.792,0.685,1.185
		c11.631,19.311,27.648,10.484,46.959-1.147c19.311-11.631,34.604-21.661,22.973-40.972c-0.213-0.354-0.438-0.705-0.672-1.054
		c-2.133-3.312-4.67-6.215-7.508-8.685c-1.654-1.44-0.62-4.167,1.572-4.098c4.169,0.13,8.428-0.382,12.65-1.61
		C243.562,324.817,239.131,307.074,232.835,285.428z"/>
</g>
<g id="Layer_8">
	<circle fill="#F8BBC6" cx="146.525" cy="310.534" r="21.91"/>
</g>
<g id="Layer_9">
	<path fill="#FFD469" d="M187.666,288.102c0,0-0.063-0.042-0.186-0.122c-0.125-0.086-0.304-0.198-0.532-0.325
		c-0.229-0.133-0.512-0.297-0.845-0.489c-0.322-0.164-0.699-0.371-1.105-0.558c-0.407-0.19-0.859-0.405-1.334-0.591
		c-0.484-0.21-0.99-0.392-1.529-0.581c-1.08-0.384-2.262-0.716-3.51-0.967c-2.498-0.505-5.256-0.666-8.017-0.311
		c-1.383,0.173-2.76,0.491-4.129,0.9c-1.371,0.397-2.741,0.863-4.097,1.367c-0.049-1.356-0.131-2.71-0.274-4.041
		c-0.14-1.421-0.367-2.817-0.731-4.162c-0.717-2.69-1.911-5.181-3.325-7.302c-0.706-1.06-1.461-2.028-2.225-2.882
		c-0.379-0.427-0.739-0.827-1.117-1.195c-0.352-0.369-0.723-0.706-1.053-1.01c-0.327-0.305-0.662-0.575-0.935-0.811
		c-0.304-0.235-0.563-0.434-0.773-0.596c-0.203-0.162-0.375-0.286-0.502-0.369c-0.121-0.083-0.183-0.126-0.183-0.126
		c-4.114-2.823-9.761-2.767-13.848,0.524c0,0-0.059,0.047-0.173,0.14c-0.12,0.092-0.282,0.229-0.473,0.406
		c-0.197,0.177-0.44,0.396-0.725,0.653c-0.255,0.256-0.568,0.551-0.871,0.879c-0.306,0.329-0.65,0.693-0.973,1.087
		c-0.349,0.395-0.678,0.821-1.024,1.276c-0.697,0.91-1.378,1.932-2.001,3.042c-1.249,2.221-2.252,4.795-2.764,7.532
		c-0.261,1.369-0.383,2.777-0.415,4.205c-0.045,1.428-0.023,2.877,0.039,4.324c0.003,0.057,0.009,0.114,0.012,0.171
		c-1.339-0.34-2.686-0.646-4.029-0.886c-1.404-0.264-2.807-0.436-4.2-0.464c-2.784-0.065-5.509,0.383-7.941,1.147
		c-1.215,0.38-2.356,0.834-3.39,1.329c-0.516,0.245-1.001,0.478-1.46,0.738c-0.453,0.235-0.88,0.496-1.265,0.728
		c-0.384,0.228-0.737,0.474-1.041,0.671c-0.311,0.226-0.575,0.419-0.789,0.575c-0.213,0.15-0.379,0.28-0.495,0.379
		c-0.114,0.093-0.172,0.141-0.172,0.141c-3.863,3.159-5.39,8.596-3.376,13.44c0,0,0.029,0.07,0.085,0.206
		c0.055,0.141,0.14,0.335,0.257,0.567c0.115,0.239,0.257,0.533,0.424,0.879c0.174,0.317,0.37,0.7,0.6,1.083
		c0.23,0.386,0.483,0.818,0.771,1.239c0.282,0.446,0.598,0.88,0.938,1.34c0.678,0.924,1.468,1.864,2.36,2.773
		c1.782,1.822,3.973,3.505,6.456,4.763c1.241,0.634,2.559,1.145,3.92,1.576c0.379,0.124,0.767,0.233,1.152,0.348
		c-0.233,0.327-0.471,0.652-0.694,0.983c-0.809,1.177-1.534,2.391-2.122,3.654c-1.185,2.52-1.876,5.194-2.161,7.727
		c-0.143,1.266-0.189,2.492-0.155,3.638c0.015,0.571,0.033,1.109,0.085,1.633c0.032,0.509,0.098,1.006,0.154,1.451
		c0.054,0.444,0.135,0.866,0.193,1.223c0.081,0.376,0.151,0.695,0.207,0.954c0.051,0.255,0.103,0.46,0.146,0.606
		c0.039,0.142,0.059,0.215,0.059,0.215c1.328,4.81,5.683,8.405,10.929,8.521c0,0,0.076,0.002,0.223,0.005
		c0.151,0.007,0.363,0.007,0.623-0.006c0.265-0.009,0.591-0.019,0.976-0.032c0.36-0.031,0.79-0.055,1.233-0.111
		c0.446-0.054,0.943-0.111,1.445-0.204c0.521-0.078,1.047-0.191,1.605-0.316c1.119-0.246,2.298-0.59,3.49-1.037
		c2.387-0.894,4.812-2.217,6.966-3.98c1.082-0.878,2.082-1.877,3.026-2.949c0.267-0.297,0.523-0.608,0.784-0.913
		c0.205,0.345,0.406,0.695,0.618,1.033c0.75,1.215,1.567,2.369,2.485,3.418c1.826,2.102,3.992,3.816,6.194,5.1
		c1.1,0.643,2.203,1.18,3.265,1.612c0.529,0.217,1.027,0.418,1.528,0.583c0.478,0.177,0.959,0.317,1.389,0.445
		c0.427,0.13,0.847,0.226,1.196,0.318c0.376,0.077,0.696,0.143,0.956,0.196c0.254,0.056,0.463,0.092,0.613,0.111
		c0.145,0.022,0.22,0.033,0.22,0.033c4.936,0.73,9.985-1.801,12.211-6.552c0,0,0.032-0.069,0.094-0.202
		c0.067-0.136,0.153-0.329,0.247-0.572c0.099-0.246,0.221-0.549,0.365-0.905c0.117-0.342,0.269-0.745,0.397-1.173
		c0.13-0.43,0.28-0.908,0.397-1.404c0.14-0.508,0.248-1.035,0.359-1.596c0.227-1.123,0.389-2.34,0.462-3.612
		c0.147-2.544-0.083-5.297-0.824-7.981c-0.366-1.344-0.876-2.663-1.474-3.96c-0.587-1.303-1.243-2.594-1.934-3.867
		c-0.568-1.039-1.182-2.049-1.812-3.041c1.13-0.322,2.261-0.668,3.376-1.066c1.362-0.491,2.711-1.019,4.016-1.602
		c1.309-0.571,2.567-1.217,3.734-1.977c2.339-1.511,4.341-3.414,5.923-5.412c0.792-0.998,1.48-2.014,2.057-3.005
		c0.29-0.493,0.559-0.958,0.793-1.431c0.242-0.449,0.449-0.905,0.637-1.313c0.189-0.405,0.343-0.806,0.484-1.14
		c0.13-0.362,0.24-0.669,0.33-0.919c0.092-0.243,0.156-0.445,0.196-0.591c0.042-0.141,0.063-0.213,0.063-0.213
		C193.847,296.333,192.054,290.978,187.666,288.102z"/>
</g>
<g id="Layer_10">
	<circle fill="#FFB636" cx="146.545" cy="310.038" r="16.357"/>
</g>
</svg>
