<?xml version="1.0" encoding="iso-8859-1"?>
<!-- Generator: Adobe Illustrator 18.1.0, SVG Export Plug-In . SVG Version: 6.00 Build 0)  -->
<!DOCTYPE svg PUBLIC "-//W3C//DTD SVG 1.1//EN" "http://www.w3.org/Graphics/SVG/1.1/DTD/svg11.dtd">
<svg version="1.1" xmlns="http://www.w3.org/2000/svg" xmlns:xlink="http://www.w3.org/1999/xlink" x="0px" y="0px"
	 viewBox="0 0 512 512" enable-background="new 0 0 512 512" xml:space="preserve">
<g id="Layer_5">
	<path fill="#AAA9A2" d="M393.419,202.894v269.053c0,2.004-1.624,3.628-3.628,3.628H270.004c-2.004,0-3.628-1.624-3.628-3.628
		V202.894c0-2.004,1.624-3.628,3.628-3.628h19.127c-1.169-1.489-1.872-3.36-1.872-5.4v-37.944c0-4.837,3.921-8.759,8.759-8.759
		h9.719c4.837,0,8.759,3.921,8.759,8.759v37.944c0,2.039-0.703,3.911-1.872,5.4h12.694v227.446c0,1.627,1.319,2.946,2.946,2.946
		h3.269c1.627,0,2.946-1.319,2.946-2.946V199.266h12.694c-1.169-1.489-1.872-3.36-1.872-5.4v-37.944
		c0-4.837,3.921-8.759,8.759-8.759h9.719c4.837,0,8.759,3.921,8.759,8.759v37.944c0,2.039-0.703,3.911-1.872,5.4h19.127
		C391.795,199.266,393.419,200.89,393.419,202.894z M344.574,128.85V91.01c0-5.213-4.226-9.439-9.439-9.439h-10.474
		c-5.213,0-9.439,4.226-9.439,9.439v37.84H344.574z"/>
</g>
<g id="Layer_1">
</g>
</svg>
