<?xml version="1.0" encoding="iso-8859-1"?>
<!-- Generator: Adobe Illustrator 18.1.0, SVG Export Plug-In . SVG Version: 6.00 Build 0)  -->
<!DOCTYPE svg PUBLIC "-//W3C//DTD SVG 1.1//EN" "http://www.w3.org/Graphics/SVG/1.1/DTD/svg11.dtd">
<svg version="1.1" xmlns="http://www.w3.org/2000/svg" xmlns:xlink="http://www.w3.org/1999/xlink" x="0px" y="0px"
	 viewBox="0 0 512 512" enable-background="new 0 0 512 512" xml:space="preserve">
<g id="Layer_2">
	<path fill="#FFC639" d="M266.755,33.379l43.16-29.48c9.14-6.243,21.694-2.879,26.488,7.097l22.638,47.111
		c3.225,6.711,10.234,10.758,17.659,10.195l52.118-3.951c11.037-0.837,20.227,8.353,19.39,19.39l-3.951,52.118
		c-0.563,7.424,3.484,14.434,10.195,17.659l47.111,22.638c9.977,4.794,13.34,17.348,7.097,26.488l-29.48,43.16
		c-4.199,6.148-4.199,14.242,0,20.39l29.48,43.161c6.243,9.14,2.879,21.694-7.097,26.488l-47.111,22.638
		c-6.711,3.225-10.758,10.234-10.195,17.659l3.951,52.118c0.837,11.037-8.353,20.227-19.39,19.39l-52.118-3.951
		c-7.424-0.563-14.434,3.484-17.659,10.195l-22.638,47.111c-4.794,9.977-17.348,13.34-26.488,7.097l-43.16-29.48
		c-6.148-4.199-14.242-4.199-20.39,0l-43.161,29.48c-9.14,6.243-21.694,2.879-26.488-7.097l-22.638-47.111
		c-3.225-6.711-10.234-10.758-17.659-10.195l-52.118,3.951c-11.037,0.837-20.227-8.353-19.39-19.39l3.951-52.118
		c0.563-7.424-3.484-14.434-10.195-17.659l-47.111-22.638c-9.977-4.794-13.34-17.348-7.097-26.488l29.48-43.161
		c4.199-6.148,4.199-14.242,0-20.39l-29.48-43.16c-6.243-9.14-2.879-21.694,7.097-26.488l47.111-22.638
		c6.711-3.225,10.758-10.234,10.195-17.659l-3.951-52.118c-0.837-11.037,8.353-20.227,19.39-19.39l52.118,3.951
		c7.424,0.563,14.434-3.484,17.659-10.195l22.638-47.111c4.794-9.977,17.348-13.34,26.488-7.097l43.161,29.48
		C252.513,37.578,260.607,37.578,266.755,33.379z"/>
</g>
<g id="Layer_1">
</g>
</svg>
