<svg xmlns="http://www.w3.org/2000/svg" viewBox="0 0 512 512" enable-background="new 0 0 512 512"><path fill="#AF773F" d="M252.725 478.3c-14.513 0-29.057-.803-43.146-2.387-.136-1.735-.21-3.55-.21-5.475l.77-27.908c12.79 1.534 26.985 2.433 42.583 2.433 18.267 0 34.614-1.232 49.022-3.275l.797 28.75c0 1.637-.064 3.183-.16 4.683-16.097 2.11-32.898 3.18-49.66 3.18zm-40.51-110.554l-.925 33.333c13.554 1.455 27.508 2.192 41.434 2.192 16.143 0 32.324-.99 47.876-2.946l-.925-33.38c-13.9 1.872-29.553 2.99-46.95 2.99-14.76 0-28.266-.805-40.51-2.192zm2.072-74.798l-.923 33.32c12.902 1.315 26.144 1.982 39.36 1.982 15.428 0 30.89-.906 45.805-2.694l-.927-33.36c-13.378 1.706-28.34 2.718-44.88 2.718-13.934 0-26.746-.72-38.438-1.966zm2.073-74.808l-.923 33.314c12.245 1.178 24.778 1.77 37.288 1.77 14.714 0 29.46-.823 43.73-2.45l-.923-33.345c-12.845 1.55-27.118 2.456-42.807 2.456-13.113 0-25.237-.634-36.365-1.748z"/></svg>