<?xml version="1.0" encoding="iso-8859-1"?>
<!-- Generator: Adobe Illustrator 18.1.0, SVG Export Plug-In . SVG Version: 6.00 Build 0)  -->
<!DOCTYPE svg PUBLIC "-//W3C//DTD SVG 1.1//EN" "http://www.w3.org/Graphics/SVG/1.1/DTD/svg11.dtd">
<svg version="1.1" xmlns="http://www.w3.org/2000/svg" xmlns:xlink="http://www.w3.org/1999/xlink" x="0px" y="0px"
	 viewBox="0 0 512 512" enable-background="new 0 0 512 512" xml:space="preserve">
<g id="Layer_4">
	<path fill="#FF473E" d="M267.106,9.941c0,0,0.411,0.318,1.132,0.933c0.706,0.615,1.824,1.528,3.092,2.719
		c0.651,0.595,1.377,1.26,2.177,1.992c0.747,0.732,1.562,1.531,2.443,2.394c1.781,1.727,3.737,3.712,5.781,5.935
		c8.261,8.893,18.37,21.596,27.28,36.841c8.963,15.244,16.721,33.03,21.768,52.085c2.543,9.528,4.439,19.373,5.599,29.377
		c1.198,10.004,1.618,20.167,1.423,30.33c-0.227,10.163-1.039,20.326-2.525,30.33c-1.449,10.004-3.599,19.85-6.266,29.377
		c-2.679,9.528-5.959,18.738-9.656,27.472c-1.85,4.367-3.807,8.615-5.849,12.724c-1.007,2.054-2.09,4.074-3.143,6.057
		c-1.022,1.982-2.133,3.928-3.222,5.833c-8.683,15.244-18.344,27.948-26.193,36.841c-1.001,1.112-1.947,2.164-2.839,3.154
		c-0.945,0.99-1.831,1.918-2.656,2.781c-1.605,1.727-3.141,3.196-4.365,4.387c-2.464,2.382-3.981,3.652-3.981,3.652
		c-9.937,8.319-24.21,8.047-33.806,0c0,0-1.517-1.27-3.981-3.652c-1.224-1.191-2.761-2.66-4.365-4.387
		c-0.824-0.863-1.71-1.791-2.656-2.781c-0.891-0.99-1.838-2.042-2.839-3.154c-7.849-8.893-17.51-21.596-26.193-36.841
		c-1.09-1.906-2.2-3.851-3.222-5.833c-1.053-1.982-2.136-4.002-3.143-6.057c-2.041-4.109-3.999-8.357-5.849-12.724
		c-3.697-8.734-6.977-17.944-9.656-27.472c-2.667-9.528-4.817-19.373-6.266-29.377c-1.485-10.004-2.298-20.167-2.525-30.33
		c-0.194-10.163,0.226-20.326,1.423-30.33c1.16-10.004,3.056-19.85,5.599-29.377c5.046-19.056,12.805-36.841,21.768-52.085
		c8.91-15.244,19.019-27.948,27.28-36.841c2.044-2.223,4-4.208,5.781-5.935c0.881-0.863,1.696-1.662,2.443-2.394
		c0.8-0.732,1.526-1.397,2.177-1.992c1.269-1.191,2.386-2.104,3.092-2.719c0.72-0.615,1.132-0.933,1.132-0.933
		C243.468,2.084,257.39,2.437,267.106,9.941z"/>
</g>
<g id="Layer_1">
</g>
</svg>
