<?xml version="1.0" encoding="iso-8859-1"?>
<!-- Generator: Adobe Illustrator 18.1.0, SVG Export Plug-In . SVG Version: 6.00 Build 0)  -->
<!DOCTYPE svg PUBLIC "-//W3C//DTD SVG 1.1//EN" "http://www.w3.org/Graphics/SVG/1.1/DTD/svg11.dtd">
<svg version="1.1" xmlns="http://www.w3.org/2000/svg" xmlns:xlink="http://www.w3.org/1999/xlink" x="0px" y="0px"
	 viewBox="0 0 512 512" enable-background="new 0 0 512 512" xml:space="preserve">
<g id="Layer_2">
	<path fill="#8E6049" d="M228.098,496.142V306.945c0-15.81,12.82-28.645,28.637-28.645s28.637,12.835,28.637,28.645v189.198
		C285.372,511.953,228.098,511.953,228.098,496.142z"/>
</g>
<g id="Layer_3">
	<path fill="#2BA52E" d="M412.825,421.268c1.43-1.698,2.301-3.335,2.676-4.916c2.563-6.723,1.908-15.078-3.617-21.143
		c-21.531-23.634-44.487-57.102-66.321-92.913c9.214,2.209,18.281,3.768,26.828,4.854c12.743,1.62,20.205-16.615,10.834-26.9
		c-23.973-26.314-50.068-67.301-73.202-107.982c12.841,4.606,26.027,7.282,37.932,8.795c10.068,1.28,15.963-13.127,8.56-21.253
		c-31.795-34.901-68.311-102.454-90.546-146.707c-1.062-3.435-3.339-5.889-6.02-7.115c-1.269-0.604-2.611-0.89-3.95-0.884
		c-1.339-0.006-2.681,0.28-3.95,0.884c-2.681,1.226-4.959,3.68-6.021,7.115c-22.235,44.253-58.75,111.806-90.546,146.707
		c-7.403,8.126-1.508,22.533,8.56,21.253c11.906-1.513,25.091-4.189,37.932-8.795c-23.133,40.681-49.229,81.668-73.202,107.982
		c-9.371,10.286-1.909,28.52,10.834,26.9c8.546-1.086,17.614-2.646,26.828-4.854c-21.834,35.811-44.789,69.279-66.321,92.913
		c-8.576,9.414-5.433,24.349,3.305,30.115c37.774,39.423,86.005,42.461,153.313,42.461c69.134,0,124.099-11.361,153.992-44.16
		C411.488,422.911,412.189,422.122,412.825,421.268z"/>
</g>
</svg>
