<?xml version="1.0" encoding="iso-8859-1"?>
<!-- Generator: Adobe Illustrator 18.1.0, SVG Export Plug-In . SVG Version: 6.00 Build 0)  -->
<!DOCTYPE svg PUBLIC "-//W3C//DTD SVG 1.1//EN" "http://www.w3.org/Graphics/SVG/1.1/DTD/svg11.dtd">
<svg version="1.1" xmlns="http://www.w3.org/2000/svg" xmlns:xlink="http://www.w3.org/1999/xlink" x="0px" y="0px"
	 viewBox="0 0 512 512" enable-background="new 0 0 512 512" xml:space="preserve">
<g id="Layer_2">
	<path fill="#59CAFC" d="M76.174,368.081c0,0,1.381,1.33,4.057,3.906c1.338,1.288,3,2.888,4.974,4.789
		c1.711,1.478,3.692,3.191,5.936,5.13c0.557,0.489,1.131,0.993,1.72,1.51c0.657,0.517,1.332,1.048,2.025,1.593
		c1.392,1.093,2.855,2.243,4.388,3.448c0.767,0.602,1.551,1.218,2.353,1.848c0.833,0.587,1.684,1.186,2.553,1.798
		c1.735,1.23,3.541,2.51,5.418,3.84c7.693,5.027,16.689,10.636,27.409,15.713c10.703,5.077,22.98,9.873,36.804,13.605
		c13.814,3.709,29.163,6.463,45.735,7.254c2.072,0.063,4.161,0.126,6.266,0.19c1.053,0.032,2.11,0.064,3.171,0.096
		c1.061-0.02,2.126-0.04,3.196-0.06c2.139-0.034,4.295-0.069,6.467-0.103c2.17-0.087,4.35-0.275,6.551-0.402
		c4.41-0.175,8.838-0.82,13.348-1.29c1.13-0.1,2.252-0.29,3.377-0.48c1.126-0.183,2.256-0.367,3.39-0.551
		c2.262-0.396,4.568-0.653,6.833-1.197c2.278-0.481,4.57-0.965,6.877-1.452c1.16-0.217,2.302-0.526,3.447-0.834
		c1.147-0.302,2.298-0.605,3.452-0.908c4.652-1.098,9.217-2.696,13.894-4.125c2.319-0.773,4.603-1.687,6.93-2.524
		c1.161-0.426,2.325-0.854,3.493-1.282c1.152-0.468,2.291-0.976,3.443-1.462c2.295-0.993,4.626-1.942,6.934-2.973
		c2.274-1.106,4.56-2.218,6.858-3.336c9.084-4.668,18.209-9.813,26.864-16.036c8.696-6.14,17.255-12.891,25.21-20.612
		c1.012-0.945,2.027-1.893,3.043-2.842c0.923-0.96,1.849-1.922,2.776-2.885c1.084-1.126,2.17-2.254,3.259-3.385l0.817-0.848
		c0.267-0.279,0.43-0.495,0.65-0.746l1.246-1.453c0.838-0.965,1.677-1.931,2.518-2.9l1.272-1.448l1.28-1.631
		c0.857-1.091,1.716-2.184,2.576-3.279c0.848-1.104,1.767-2.161,2.541-3.326c6.651-8.99,12.541-18.753,17.481-29.158
		c9.907-20.782,16.089-44.148,17.378-68.43c1.29-24.262-2.312-49.373-11.094-73.084c-8.743-23.717-22.693-45.962-41.066-64.636
		l-3.53-3.409c-1.304-1.239-2.775-2.729-3.798-3.538c-2.256-1.916-4.34-3.865-6.998-5.854c-1.271-0.979-2.503-2.014-3.801-2.959
		l-3.938-2.783c-0.659-0.461-1.305-0.943-1.973-1.391l-2.041-1.289l-4.078-2.598c-5.594-3.202-11.258-6.358-17.249-8.863
		c-2.933-1.394-6.013-2.443-9.034-3.65c-1.52-0.581-3.086-1.033-4.627-1.562c-1.549-0.504-3.082-1.065-4.667-1.46
		c-25.049-7.398-52.322-8.074-78.154-2.066l-4.811,1.262l-2.409,0.625l-2.372,0.751l-4.752,1.49l-4.671,1.73l-2.339,0.86
		l-2.29,0.982l-4.589,1.951l-4.484,2.183l-2.247,1.086l-2.185,1.205l-4.381,2.395l-4.253,2.621l-2.132,1.304l-2.062,1.413
		l-4.127,2.826c-5.336,4.001-10.615,8.12-15.428,12.787l-1.835,1.715l-0.46,0.428c0.025-0.04-0.705,0.694-0.06,0.019l-0.997,1.036
		l-3.989,4.143c-0.372,0.372-0.574,0.63-0.82,0.916l-0.725,0.847l-1.46,1.685c-0.491,0.579-0.977,1.075-1.478,1.717l-1.506,1.923
		c-2.079,2.514-3.897,5.215-5.794,7.862c-1.731,2.754-3.559,5.452-5.096,8.323c-0.805,1.413-1.633,2.816-2.327,4.288
		c-0.717,1.46-1.49,2.893-2.176,4.369l-1.977,4.463c-0.665,1.486-1.184,3.031-1.792,4.541c-0.287,0.761-0.606,1.511-0.869,2.281
		l-0.762,2.32c-0.492,1.551-1.077,3.074-1.468,4.657l-1.303,4.708l-1.076,4.765c-5.476,25.504-2.706,52.624,7.38,76.382
		c1.193,3.004,2.68,5.868,4.066,8.779c1.572,2.813,3.036,5.686,4.791,8.387c1.617,2.786,3.534,5.376,5.333,8.04
		c1.973,2.54,3.845,5.156,5.986,7.559c2.012,2.509,4.294,4.783,6.466,7.15l3.61,3.488c0.325,0.307,0.696,0.681,0.982,0.934
		l0.801,0.681l1.59,1.374l0.79,0.694c0.251,0.23,0.528,0.465,0.849,0.706l1.831,1.435l1.825,1.443l1.894,1.344
		c2.495,1.836,5.121,3.47,7.758,5.07c21.252,12.584,46.792,17.244,70.663,13.414c5.963-0.939,11.847-2.307,17.515-4.244
		c5.672-1.922,11.155-4.302,16.393-7.093c1.29-0.733,2.625-1.385,3.882-2.169l3.784-2.322l3.656-2.506
		c0.619-0.403,1.211-0.843,1.79-1.3l1.758-1.343c0.583-0.45,1.18-0.882,1.754-1.343l1.683-1.431c1.112-0.964,2.281-1.86,3.326-2.9
		l1.609-1.509l0.806-0.752l0.403-0.375c0.45-0.449-0.165,0.201,0.069-0.047c1.203-1.25,2.404-2.497,3.604-3.744l2.493-2.875
		c0.847-1.017,1.728-2.194,2.598-3.274c0.866-1.107,1.63-2.285,2.458-3.416c0.828-1.131,1.513-2.353,2.285-3.518
		c2.931-4.754,5.391-9.762,7.353-14.931c3.931-10.339,5.852-21.322,5.784-32.157c-0.06-10.836-2.081-21.523-5.889-31.34
		c-3.801-9.817-9.219-18.838-15.988-26.548c-0.798-1.004-1.739-1.884-2.593-2.835l-0.654-0.702l-0.326-0.351
		c-0.408-0.411,0.199,0.171-0.025-0.041l-1.663-1.601l-1.634-1.564l-1.217-1.036l-1.202-1.055l-1.435-1.122
		c-3.811-3.001-7.88-5.589-12.127-7.74c-8.492-4.308-17.692-6.843-26.867-7.626c-9.18-0.792-18.315,0.162-26.797,2.587
		c-8.483,2.456-16.277,6.395-23.086,11.354c-3.402,2.447-6.567,5.319-9.379,8.187l-1.326,1.377l-0.818,0.964l-0.826,0.94
		c-0.285,0.336-0.594,0.755-0.891,1.126c-0.604,0.761-1.215,1.514-1.75,2.315c-0.553,0.789-1.135,1.556-1.624,2.378
		c-4.161,6.421-6.973,13.447-8.421,20.544c-1.45,7.1-1.573,14.233-0.63,20.952c0.963,6.723,3.026,13.015,5.84,18.628
		c1.435,2.793,3.001,5.453,4.763,7.909c1.791,2.43,3.624,4.766,5.671,6.837l0.37,0.399l0.184,0.199
		c-0.568-0.544-0.014-0.013-0.077-0.073l0.993,0.956c0.645,0.619,1.402,1.368,1.732,1.609c0.431,0.372,0.859,0.741,1.285,1.108
		c0.522,0.411,1.041,0.819,1.556,1.225c2.101,1.571,4.258,2.945,6.44,4.143c8.8,4.734,17.984,6.141,25.746,5.787
		c7.816-0.389,14.258-2.478,19.087-4.792c4.871-2.296,8.169-4.862,10.33-6.619c0.53-0.457,1.013-0.837,1.405-1.194
		c0.386-0.363,0.71-0.668,0.97-0.912c0.523-0.485,0.789-0.731,0.789-0.731l0.674-0.624c6.681-6.188,17.114-5.787,23.301,0.894
		c6.104,6.592,5.783,16.848-0.642,23.063c0,0-0.429,0.414-1.273,1.23c-0.424,0.406-0.953,0.912-1.584,1.516
		c-0.641,0.594-1.42,1.251-2.292,2.012c-0.862,0.773-1.884,1.576-3.02,2.458c-1.118,0.905-2.408,1.813-3.814,2.794
		c-1.39,1.002-2.984,1.949-4.665,3.001c-1.724,0.983-3.56,2.044-5.59,3.018c-8.04,3.98-18.774,7.629-31.823,8.442
		c-6.507,0.403-13.563,0.027-20.925-1.369c-3.678-0.719-7.421-1.717-11.202-2.983c-3.763-1.319-7.552-2.918-11.311-4.842
		c-3.736-1.966-7.432-4.251-11.019-6.873c-0.881-0.676-1.767-1.355-2.659-2.04c-0.913-0.73-1.888-1.582-2.827-2.387
		c-1.07-0.909-1.605-1.444-2.292-2.083l-1.005-0.943l-0.572-0.555l-0.293-0.302l-0.586-0.607c-3.191-3.181-6.142-6.76-8.975-10.547
		c-2.806-3.814-5.345-7.953-7.649-12.328c-4.553-8.777-7.927-18.647-9.579-29.197c-1.633-10.544-1.586-21.758,0.563-33.011
		c2.143-11.242,6.451-22.503,12.957-32.838c0.782-1.312,1.667-2.561,2.538-3.827c0.853-1.279,1.792-2.501,2.737-3.725
		c0.481-0.618,0.921-1.215,1.442-1.852l1.647-1.94l1.666-1.924l1.308-1.393l1.313-1.398c0.029-0.039,0.847-0.865,0.699-0.706
		l0.412-0.398l0.826-0.797c1.117-1.048,2.183-2.157,3.363-3.154c1.168-1.01,2.34-2.023,3.516-3.04
		c1.225-0.96,2.454-1.923,3.687-2.89c10.024-7.526,21.633-13.574,34.267-17.4c12.632-3.799,26.246-5.406,40.005-4.402
		c13.75,0.992,27.652,4.613,40.595,10.965c6.469,3.17,12.691,7.014,18.512,11.475l2.183,1.68l2.279,1.929l2.27,1.957l1.713,1.599
		l1.683,1.58c0.06,0.048,0.935,0.907,0.79,0.778l0.47,0.487l0.941,0.975c1.236,1.32,2.548,2.573,3.718,3.967
		c9.729,10.812,17.7,23.617,23.306,37.612c5.621,13.995,8.724,29.237,9.014,44.755c0.3,15.514-2.24,31.327-7.728,46.347
		c-2.74,7.508-6.21,14.812-10.371,21.759c-1.079,1.712-2.086,3.477-3.248,5.142c-1.162,1.664-2.273,3.371-3.498,4.995
		c-1.253,1.627-2.428,3.218-3.768,4.868c-1.406,1.664-2.869,3.384-4.27,4.978c-1.184,1.261-2.37,2.524-3.557,3.789
		c-0.058,0.073-0.994,1.015-0.858,0.866l-0.54,0.522l-1.082,1.043l-2.17,2.084c-1.421,1.418-2.983,2.692-4.494,4.025l-2.288,1.979
		c-0.778,0.642-1.583,1.255-2.375,1.883l-2.391,1.871c-0.792,0.632-1.599,1.244-2.437,1.817c-1.661,1.167-3.323,2.335-4.988,3.504
		c-1.72,1.089-3.442,2.179-5.166,3.271c-1.725,1.091-3.538,2.041-5.311,3.063c-7.171,3.946-14.702,7.328-22.499,10.074
		c-7.794,2.762-15.88,4.777-24.095,6.176c-16.434,2.764-33.494,2.851-50.207-0.118c-16.699-2.937-33.103-8.699-48.059-17.316
		c-3.721-2.175-7.409-4.434-10.935-6.939c-0.887-0.617-1.785-1.222-2.663-1.855l-2.58-1.969l-2.577-1.979
		c-0.424-0.316-0.862-0.674-1.309-1.059l-1.327-1.124l-2.645-2.263l-1.318-1.138c-0.412-0.364-0.699-0.65-1.055-0.979l-2.038-1.913
		l-1.02-0.957l-0.51-0.479c0.173,0.175-0.803-0.766-0.91-0.888c-2.939-3.069-5.958-6.071-8.695-9.35
		c-2.861-3.168-5.434-6.589-8.077-9.959c-2.472-3.498-5.032-6.947-7.262-10.624c-2.368-3.59-4.414-7.381-6.533-11.134
		c-1.933-3.851-3.933-7.679-5.602-11.666c-13.909-31.638-18.062-67.812-11.171-102.205l1.373-6.43l1.665-6.366
		c0.522-2.133,1.25-4.207,1.895-6.306l1-3.14c0.345-1.043,0.749-2.065,1.123-3.099c0.782-2.054,1.487-4.14,2.348-6.164l2.598-6.069
		c0.903-2.007,1.905-3.969,2.86-5.953c0.933-1.997,2.009-3.919,3.074-5.848c2.056-3.902,4.442-7.612,6.771-11.356
		c2.493-3.635,4.948-7.303,7.695-10.754l2.015-2.622c0.672-0.873,1.489-1.787,2.23-2.676l2.286-2.678l1.148-1.334
		c0.38-0.439,0.788-0.922,1.092-1.231l3.936-4.193l0.984-1.048c0.991-1.006,0.609-0.602,0.981-0.972l0.582-0.562l2.333-2.247
		c24.764-24.149,56.295-41.402,89.814-49.822c33.572-8.29,69.138-7.856,102.159,1.415c2.082,0.511,4.112,1.197,6.156,1.835
		c2.036,0.663,4.095,1.256,6.105,1.986c4.005,1.506,8.057,2.885,11.955,4.642c7.918,3.229,15.468,7.238,22.883,11.408l5.432,3.345
		l2.709,1.679c0.889,0.58,1.755,1.194,2.633,1.79l5.238,3.613c1.726,1.229,3.38,2.552,5.069,3.827l2.517,1.932
		c0.421,0.33,0.834,0.627,1.261,0.985l1.283,1.083l5.107,4.357c1.848,1.546,2.986,2.697,4.385,3.991l2.025,1.901l1.012,0.95
		l0.506,0.475c-0.226-0.225,0.871,0.831,0.959,0.935c23.467,23.229,41.668,51.356,53.187,81.448
		c11.582,30.092,16.581,62.044,15.322,93.066c-1.25,31.044-8.768,61.136-21.202,88.087c-6.199,13.488-13.641,26.191-22.066,37.903
		c-0.996,1.506-2.139,2.898-3.215,4.336c-1.092,1.426-2.183,2.849-3.271,4.27l-1.642,2.127l-1.823,2.157
		c-1.22,1.432-2.438,2.861-3.654,4.288l-1.83,2.13c-0.298,0.341-0.627,0.739-0.899,1.031l-0.806,0.859
		c-1.074,1.144-2.146,2.286-3.216,3.426c-1.228,1.3-2.454,2.598-3.677,3.893c-1.24,1.196-2.477,2.389-3.712,3.58
		c-9.747,9.663-20.26,18.23-31.009,26.01c-10.708,7.866-21.992,14.485-33.287,20.444c-2.857,1.431-5.7,2.855-8.527,4.271
		c-2.867,1.332-5.76,2.569-8.618,3.84c-1.434,0.625-2.856,1.269-4.29,1.87c-1.451,0.56-2.899,1.117-4.342,1.674
		c-2.894,1.092-5.748,2.251-8.636,3.257c-5.815,1.895-11.523,3.916-17.316,5.395c-1.44,0.396-2.876,0.792-4.308,1.186
		c-1.431,0.398-2.857,0.795-4.302,1.096c-2.879,0.647-5.741,1.29-8.584,1.929c-2.833,0.693-5.705,1.088-8.532,1.614
		c-1.417,0.247-2.829,0.492-4.237,0.737c-1.407,0.249-2.81,0.496-4.221,0.652c-5.633,0.69-11.179,1.516-16.694,1.837
		c-2.753,0.201-5.485,0.452-8.202,0.595c-2.72,0.082-5.42,0.163-8.1,0.244c-1.34,0.037-2.676,0.075-4.006,0.112
		c-1.33-0.019-2.656-0.038-3.976-0.056c-2.641-0.049-5.261-0.098-7.861-0.147c-20.796-0.735-40.135-3.923-57.597-8.38
		c-17.474-4.479-33.059-10.334-46.672-16.594c-13.632-6.26-25.14-13.172-34.944-19.448c-2.399-1.65-4.709-3.239-6.928-4.764
		c-1.108-0.766-2.192-1.516-3.254-2.25c-1.028-0.78-2.033-1.543-3.016-2.288c-1.96-1.501-3.83-2.932-5.609-4.294
		c-0.889-0.687-1.755-1.357-2.598-2.008c-0.853-0.721-1.683-1.423-2.489-2.104c-3.21-2.745-6.046-5.17-8.493-7.263
		c-1.998-1.876-3.68-3.455-5.034-4.726c-2.708-2.542-4.106-3.854-4.106-3.854c-11.609-10.897-12.187-29.141-1.29-40.751
		c10.897-11.609,29.141-12.187,40.751-1.29C75.96,367.877,76.125,368.034,76.174,368.081z"/>
</g>
<g id="Layer_1">
</g>
</svg>
