<?xml version="1.0" encoding="iso-8859-1"?>
<!-- Generator: Adobe Illustrator 18.1.0, SVG Export Plug-In . SVG Version: 6.00 Build 0)  -->
<!DOCTYPE svg PUBLIC "-//W3C//DTD SVG 1.1//EN" "http://www.w3.org/Graphics/SVG/1.1/DTD/svg11.dtd">
<svg version="1.1" xmlns="http://www.w3.org/2000/svg" xmlns:xlink="http://www.w3.org/1999/xlink" x="0px" y="0px"
	 viewBox="0 0 512 512" enable-background="new 0 0 512 512" xml:space="preserve">
<g id="Layer_4">
	<path fill="#F8BBC6" d="M350.536,207.093c0,0-0.14-0.091-0.41-0.268c-0.275-0.189-0.67-0.436-1.17-0.715
		c-0.505-0.292-1.127-0.653-1.859-1.076c-0.709-0.361-1.539-0.817-2.432-1.229c-0.895-0.418-1.891-0.892-2.936-1.302
		c-1.064-0.463-2.178-0.862-3.365-1.279c-2.377-0.844-4.978-1.576-7.726-2.129c-5.498-1.111-11.567-1.466-17.645-0.684
		c-3.043,0.38-6.075,1.08-9.087,1.98c-3.018,0.873-6.032,1.9-9.017,3.008c-0.109-2.984-0.289-5.964-0.603-8.894
		c-0.308-3.128-0.809-6.199-1.61-9.16c-1.579-5.921-4.207-11.404-7.318-16.071c-1.553-2.334-3.216-4.464-4.898-6.344
		c-0.835-0.94-1.627-1.82-2.458-2.63c-0.775-0.812-1.591-1.553-2.317-2.224c-0.719-0.671-1.456-1.266-2.059-1.785
		c-0.669-0.517-1.239-0.956-1.701-1.313c-0.448-0.357-0.826-0.629-1.105-0.812c-0.266-0.183-0.404-0.278-0.404-0.278
		c-9.056-6.214-21.484-6.089-30.479,1.152c0,0-0.13,0.105-0.382,0.307c-0.265,0.203-0.621,0.503-1.04,0.893
		c-0.433,0.39-0.968,0.871-1.597,1.437c-0.562,0.563-1.251,1.212-1.918,1.935c-0.673,0.723-1.431,1.524-2.142,2.392
		c-0.768,0.87-1.491,1.807-2.253,2.808c-1.535,2.002-3.032,4.251-4.404,6.696c-2.75,4.889-4.956,10.554-6.084,16.578
		c-0.575,3.012-0.843,6.112-0.914,9.255c-0.098,3.144-0.05,6.332,0.086,9.516c0.006,0.124,0.019,0.248,0.025,0.372
		c-2.948-0.748-5.912-1.418-8.866-1.947c-3.089-0.58-6.178-0.96-9.244-1.02c-6.126-0.143-12.126,0.844-17.477,2.524
		c-2.675,0.837-5.186,1.837-7.462,2.924c-1.137,0.538-2.203,1.052-3.213,1.624c-0.996,0.517-1.937,1.092-2.784,1.601
		c-0.845,0.503-1.623,1.043-2.29,1.476c-0.684,0.498-1.265,0.921-1.736,1.265c-0.468,0.33-0.835,0.616-1.089,0.833
		c-0.25,0.204-0.38,0.31-0.38,0.31c-8.502,6.952-11.863,18.918-7.431,29.581c0,0,0.064,0.154,0.188,0.452
		c0.121,0.311,0.309,0.737,0.566,1.249c0.253,0.525,0.565,1.173,0.932,1.935c0.383,0.697,0.813,1.541,1.321,2.383
		c0.506,0.849,1.063,1.8,1.696,2.727c0.62,0.981,1.317,1.938,2.064,2.949c1.492,2.034,3.232,4.102,5.194,6.104
		c3.923,4.009,8.743,7.714,14.21,10.483c2.73,1.396,5.632,2.521,8.629,3.469c0.835,0.272,1.689,0.513,2.536,0.766
		c-0.512,0.72-1.037,1.435-1.528,2.164c-1.78,2.591-3.375,5.263-4.67,8.043c-2.607,5.546-4.129,11.432-4.756,17.006
		c-0.316,2.785-0.416,5.486-0.341,8.007c0.033,1.257,0.072,2.44,0.186,3.595c0.07,1.12,0.216,2.213,0.339,3.193
		c0.118,0.976,0.298,1.906,0.425,2.691c0.179,0.826,0.331,1.529,0.455,2.099c0.112,0.561,0.226,1.013,0.322,1.333
		c0.086,0.312,0.13,0.472,0.13,0.472c2.922,10.587,12.509,18.498,24.053,18.754c0,0,0.167,0.004,0.49,0.011
		c0.333,0.015,0.799,0.015,1.371-0.013c0.583-0.019,1.302-0.043,2.147-0.071c0.792-0.069,1.738-0.121,2.714-0.245
		c0.981-0.119,2.076-0.244,3.18-0.449c1.148-0.171,2.305-0.421,3.532-0.696c2.464-0.542,5.058-1.298,7.682-2.283
		c5.253-1.967,10.59-4.879,15.333-8.76c2.381-1.933,4.582-4.132,6.661-6.49c0.587-0.654,1.152-1.338,1.726-2.01
		c0.452,0.759,0.894,1.529,1.361,2.273c1.651,2.675,3.449,5.215,5.469,7.522c4.019,4.626,8.787,8.398,13.632,11.225
		c2.42,1.415,4.849,2.598,7.186,3.549c1.163,0.478,2.261,0.92,3.364,1.283c1.053,0.389,2.112,0.697,3.058,0.98
		c0.941,0.286,1.864,0.498,2.633,0.7c0.828,0.17,1.533,0.315,2.104,0.432c0.559,0.124,1.018,0.203,1.349,0.244
		c0.32,0.047,0.485,0.072,0.485,0.072c10.865,1.606,21.976-3.964,26.876-14.42c0,0,0.071-0.151,0.208-0.444
		c0.148-0.299,0.337-0.725,0.543-1.259c0.218-0.541,0.487-1.208,0.803-1.992c0.257-0.753,0.592-1.639,0.873-2.581
		c0.287-0.945,0.616-1.998,0.874-3.09c0.308-1.119,0.546-2.278,0.791-3.512c0.5-2.473,0.857-5.151,1.017-7.95
		c0.324-5.6-0.182-11.659-1.814-17.565c-0.806-2.959-1.927-5.861-3.243-8.716c-1.292-2.867-2.736-5.71-4.257-8.512
		c-1.251-2.286-2.603-4.51-3.989-6.693c2.487-0.708,4.976-1.47,7.43-2.345c2.999-1.081,5.968-2.243,8.84-3.525
		c2.881-1.256,5.649-2.678,8.219-4.352c5.147-3.325,9.555-7.513,13.037-11.911c1.742-2.196,3.257-4.434,4.528-6.613
		c0.637-1.084,1.23-2.109,1.745-3.149c0.534-0.988,0.988-1.992,1.402-2.889c0.416-0.891,0.756-1.775,1.064-2.508
		c0.285-0.796,0.528-1.473,0.725-2.022c0.202-0.536,0.344-0.979,0.432-1.301c0.092-0.31,0.14-0.47,0.14-0.47
		C364.141,225.207,360.195,213.421,350.536,207.093z"/>
</g>
<g id="Layer_1">
</g>
</svg>
