<svg xmlns="http://www.w3.org/2000/svg" viewBox="0 0 512 512" enable-background="new 0 0 512 512"><path fill="#13A031" d="M305.867 34.9c-3.387-5.376-6.37-11.006-9.45-16.576 11.502 1.935 22.733 4.67 33.624 8.165 23.743 7.62 45.884 18.807 65.8 32.93 2.798 2.007 5.57 4.07 8.323 6.175 2.003 1.553 3.983 3.135 5.935 4.75 3.612 3.348 6.513 7.598 9.82 11.332-12.17 14.568-30.293 16.604-41.99 2.18-15.843-19.538-38.536-25.134-59.805-34.09 0 .004.003.008.004.01l-3.467-3.5.037.007-.47-.444.47.445c-2.97-3.78-6.282-7.34-8.83-11.385zm20.543 198.757c-1.86-1.23-5.02-.864-7.548-.642-8.78.77-16.016-1.26-22.597-7.933-3.11-3.153-9.212-3.353-10.418-3.743-5.838 0-7.786-.17-9.698.025-11.423 1.167-19.55 6.392-19.48 12.422.067 6.01 7.745 10.027 20.62 9.42 9.26-.44 16.736.408 24.43 7.398 8.275 7.52 21.485 5.95 28.336-.804 2.023-1.993 4.11-5.97 3.422-8.177-.982-3.137-4.14-6.03-7.07-7.967zm168.36-17.612c-8.158-8.158-23.52-10.36-28.77 13.297s7.558 65.71 29.986 57.408c2.7-23.705 2.13-47.31-1.216-70.705zm-413.214-96.72c-5.68-3.384-11.077-7.242-16.47-11.11 7.876-10.09 16.52-19.55 25.868-28.267 8.518-7.944 17.61-15.28 27.207-21.94 15.388-10.68 32.08-19.602 49.776-26.518 6.845.794 13.437 2.06 14.973 12.265.17 1.124 2.913 2.46 4.583 2.654 7.42.865 15.282-4.366 18.467-11.893 3.553-8.398 10.526-9.73 15.67-2.568 3.05 4.247 5.02 9.27 7.462 13.956 3.054-17.284 3.448-19.618 1.218-29.602 1.483-.156 2.97-.303 4.46-.433 6.995-.607 14.076-.92 21.23-.92 8.243 0 16.39.417 24.42 1.22 2.39 17.65 12.33 26.367 34.24 30.107l3.468 3.5c.454 1.17.946 2.325 1.355 3.51 3.512 10.158 2.594 12.254-6.215 12.465-4.445.106-8.915-.825-13.374-1.287-8.638-4.767-19.23-4.685-26.705-13.155-4.28-4.844-17.693-2.183-18.646 2.774-1.904 9.9-7.362 12.175-16.152 12.025-7.325-.127-9.893 4.743-9.832 11.51.062 6.85 6.1 10.21 10.147 9.39 12.525-2.53 22.335.49 31.644 8.874 3.655 3.29 8.905-.017 9.38-5.11.24-2.547-.556-5.244-.053-7.703.86-4.213 1.523-8.862 3.818-12.293 3.19-4.77 8.624-5.038 13.98-3.403 21.398 13.066 42.772 26.175 64.21 39.174 7.486 4.537 9.674 11.798 5.53 19.387-3.465 6.342-9.876 7.707-17.524 1.163-6.164-5.275-11.975-3.944-17.902-2.415-3.832.988-6.522 3.914-.86 7.71 2.68 1.796 3.897 5.778 5.777 8.77-3.766 1.913-7.92 5.97-11.23 5.373-15.27-2.76-23.818 5.838-32.602 16.04-8.22 9.548-15.955 18.768-14.187 32.45.082.637.094 1.3.026 1.938-.758 7.118-1.097 15.573-8.655 18.118-8.653 2.913-11.714-5.988-15.612-11.407-3.43-4.767-5.89-10.175-12.828-10.362-11.586-.312-23.464-1.824-33.827 5.12-10.318 6.912-13.11 27.317-5.71 38.973 2.767 4.358 12.873 6.592 17.065 3.358 3.56-2.746 6.13-7.26 10.026-8.958 4.286-1.868 9.667-2.133 14.4-1.593 1.743.2 4.907 5.857 4.183 7.035-7.775 12.653-1.792 17.01 10.137 19.83 5.696 1.348 5.826 7.505 6.2 12.93 1.084 15.72 9.245 20.993 22.406 12.796 10.782-6.716 20.477-9.45 32.488-4.516 3.912 1.607 8.946.683 13.46.59 25.146-.517 42.986 12.083 55.43 32.486 4.428 7.26 9.427 10.84 17.25 13.198 7.79 2.35 15.292 6.37 22.18 10.81 8.146 5.25 9.775 13.89 6.332 22.344-5.114 12.56-10.93 25.176-24.56 31.038-13.322 5.728-21.554 16.363-27.6 28.684-5.615 11.446-13.762 19.903-24.29 26.847-10.216 6.738-19.758 14.5-29.57 21.847-2.586 1.936-4.897 4.298-7.646 5.946-6.765 4.057-14.893 8.56-21.634 3.427-7.008-5.335-3.88-14.034-.932-21.325 5.176-12.806 6.262-26.17 6.232-39.825-.026-11.72-4.015-21.403-12.657-29.23-2.877-2.605-5.593-5.424-8.68-7.75-20.065-15.116-21.878-35.076-15.39-57.276.9-3.075 2.074-6.07 3.058-9.12 2.62-8.13 1.53-11.68-6.61-11.68-11.728.003-18.016-5.5-21.694-15.42-2.75-7.42-8.284-9.283-15.35-8.826-7.696.498-13.834-.82-16.43-9.787-.757-2.62-5.26-5.244-8.45-5.897-23.017-4.71-39.684-17.215-49.666-38.593-.697-1.493-2.53-2.455-3.835-3.664-1.39 1.766-3.57 3.352-4.023 5.333-1.453 6.354-3.81 8.474-8.16 2.244-11.77-16.854-23.105-33.897-37.467-48.925-5.167-5.406-6.525-14.963-8.308-22.92-1.242-5.544-.454-11.598-.197-17.407.31-7.035-1.732-12.245-8.224-16.113z"/></svg>