<?xml version="1.0" encoding="iso-8859-1"?>
<!-- Generator: Adobe Illustrator 18.1.0, SVG Export Plug-In . SVG Version: 6.00 Build 0)  -->
<!DOCTYPE svg PUBLIC "-//W3C//DTD SVG 1.1//EN" "http://www.w3.org/Graphics/SVG/1.1/DTD/svg11.dtd">
<svg version="1.1" xmlns="http://www.w3.org/2000/svg" xmlns:xlink="http://www.w3.org/1999/xlink" x="0px" y="0px"
	 viewBox="0 0 512 512" enable-background="new 0 0 512 512" xml:space="preserve">
<g id="Layer_5">
	<path fill="#FFD880" d="M168.865,160.626l56.985,57.576c2.915,2.945,7.092,4.267,11.171,3.536l79.735-14.302
		c10.271-1.842,18.196,8.893,13.411,18.166l-37.149,71.988c-1.9,3.682-1.867,8.064,0.089,11.717l38.242,71.413
		c4.926,9.199-2.834,20.054-13.133,18.368l-79.944-13.085c-4.089-0.669-8.246,0.716-11.116,3.706l-56.101,58.438
		c-7.227,7.528-19.948,3.501-21.527-6.814l-12.26-80.075c-0.627-4.096-3.23-7.621-6.959-9.427l-72.914-35.297
		c-9.392-4.547-9.494-17.89-0.172-22.579l72.367-36.404c3.702-1.862,6.25-5.427,6.815-9.532l11.037-80.252
		C148.866,157.429,161.525,153.209,168.865,160.626z"/>
</g>
<g id="Layer_1">
</g>
</svg>
