<?xml version="1.0" encoding="iso-8859-1"?>
<!-- Generator: Adobe Illustrator 18.1.0, SVG Export Plug-In . SVG Version: 6.00 Build 0)  -->
<!DOCTYPE svg PUBLIC "-//W3C//DTD SVG 1.1//EN" "http://www.w3.org/Graphics/SVG/1.1/DTD/svg11.dtd">
<svg version="1.1" xmlns="http://www.w3.org/2000/svg" xmlns:xlink="http://www.w3.org/1999/xlink" x="0px" y="0px"
	 viewBox="0 0 512 512" enable-background="new 0 0 512 512" xml:space="preserve">
<g id="Layer_3">
	<path fill="#FFD469" d="M242.408,173.306L242.408,173.306c-12.599-3.147-17.31-17.473-9.14-32.237
		c20.831-37.176,46.018-73.292,75.434-107.572c11.533-13.642,34.648-20.269,49.978-14.442l0,0
		c15.363,5.819,16.6,20.981,4.123,33.503c-31.427,31.913-58.739,65.959-81.77,101.361
		C271.828,167.857,255.044,176.442,242.408,173.306z M353.473,234.039c24.794-15.26,51.373-29.049,79.586-41.052
		c16.223-6.866,23.4-20.562,14.593-31.082c0,0,0,0,0,0c-8.771-10.512-30.764-13.235-47.484-5.425
		c-28.934,13.376-56.17,28.534-81.561,45.159c-14.704,9.668-17.573,24.765-7.806,33.204c0,0,0,0,0,0
		C320.606,243.298,339.177,242.772,353.473,234.039z"/>
</g>
<g id="Layer_1">
</g>
</svg>
