<?xml version="1.0" encoding="iso-8859-1"?>
<!-- Generator: Adobe Illustrator 18.1.0, SVG Export Plug-In . SVG Version: 6.00 Build 0)  -->
<!DOCTYPE svg PUBLIC "-//W3C//DTD SVG 1.1//EN" "http://www.w3.org/Graphics/SVG/1.1/DTD/svg11.dtd">
<svg version="1.1" xmlns="http://www.w3.org/2000/svg" xmlns:xlink="http://www.w3.org/1999/xlink" x="0px" y="0px"
	 viewBox="0 0 512 512" enable-background="new 0 0 512 512" xml:space="preserve">
<g id="Layer_3">
	<path fill="#13A031" d="M349.439,393.742c0.104,9.897-3.508,18.437-9.651,25.996c-3.771,4.64-8.686,6.44-14.413,4.504
		c-5.783-1.955-5.418-7.305-5.341-11.89c0.191-11.503,4.067-21.096,15.104-26.605C344.964,380.843,349.276,383.196,349.439,393.742z
		 M91.584,81.539c-0.316-0.499-0.516-1.037-0.63-1.591c8.518-7.944,17.61-15.281,27.207-21.941c1.231,0.484,2.385,1.321,3.291,2.378
		c3.081,3.596,5.731,7.625,8.123,11.727c2.161,3.706-2.151,11.006,4.675,11.684c5.773,0.573,13.342,3.14,17.664-2.028
		c14.204-16.986,32.433-16.783,52.133-15.374c11.357,0.813,22.66-14.498,21.027-25.803c-0.716-4.953-5.256-4.527-7.766-2.317
		c-4.568,4.022-8.302,9.003-12.3,13.656c-9.666,11.25-40.127,12.281-50.274,1.632c-2.031-2.131-3.058-4.591-0.955-7.246
		c1.687-2.129,3.211-4.774,5.456-6.016c12.229-6.766,24.565-13.368,37.416-18.017c12.356-3.115,25.089-5.281,38.119-6.413
		c3.194,0.146,6.432,0.467,9.723,1.004c12.536,2.047,26.002,4.728,36.538,11.2c15.627,9.599,29.499,8.202,44.428,0.839
		c1.55-0.764,3.071-1.588,4.584-2.427C415.165,53.81,479.753,126.97,494.744,216.915c-3.152,2.726-6.231,5.553-9.585,8.002
		c-9.037,6.6-13.393,14.956-12.524,26.481c0.675,8.963,0.554,18.679-11.313,21.007c-9.954,1.952-16.178-4.176-19.849-19.009
		c-2.141-8.649-3.179-17.633-5.99-26.039c-4.717-14.109-13.362-23.953-30.049-22.895c-14.239,0.902-24.367-7.991-35.218-15.092
		c-4.604-3.012-10.706-7.723-14.182-1.728c-2.39,4.122,2.502,10.44,7.685,13.05c4.841,2.437,10.333,3.543,15.366,5.647
		c9.19,3.843,11.562,9.047,7.234,17.793c-7.153,14.454-19.691,22.694-34.806,26.704c-10.034,2.662-17.305-3.352-22.749-10.823
		c-10.097-13.86-19.613-28.143-29.368-42.252c-2.335-3.377-4.463-6.924-7.071-10.074c-1.252-1.513-3.678-2.44-5.436-0.822
		c-1.391,1.28-3.089,3.531-2.834,5.044c0.675,3.999,1.837,8.088,3.69,11.686c9.833,19.09,23.195,35.642,38.04,50.987
		c4.805,4.967,11.495,7.104,17.818,9.874c13.488,5.908,15.454,13.42,7.209,25.96c-6.482,9.858-15.225,17.797-24.705,24.605
		c-15.838,11.372-21.555,25.279-15.685,44.59c4.015,13.208,0.712,26.116-9.265,36.161c-6.984,7.032-11.571,14.926-14.624,24.339
		c-2.29,7.062-5.971,13.909-10.174,20.074c-20.383,29.895-60.298,29.142-80.557-1.116c-11.367-16.978-19.054-34.782-15.887-55.923
		c1.881-12.558-0.899-24.348-6.27-35.93c-4.013-8.653-6.154-18.158-9.429-27.174c-7.031-19.355-18.18-27.101-38.91-26.782
		c-6.139,0.094-12.246,1.56-18.393,1.853c-35.474,1.69-56.307-24.481-51.121-59.663c6.407-43.458,28.976-71.376,70.765-84.1
		c20.914-15.861,24.705-15.695,46.69-0.669c15.953,10.903,33.473,15.88,52.531,9.508c8.043-2.689,15.86-3.598,23.711-2.223
		c-7.743-4.434-13.592-12.96-23.223-13.315c-12.353-0.456-24.792-7.61-36.889,2.954c-4.671,4.079-13.213,2.305-16.818-2.935
		c-9.909-14.405-20.792-9-31.969-3.045c-6.054,3.226-12.222,5.68-19.128,5.992c-5.481-0.031-10.995,0.302-16.438-0.174
		c-9.94-0.87-14.822-5.672-14.523-13.556c0.358-9.438,7.21-18.301,15.157-19.038c4.052-0.376,8.23,0.512,12.261,0.047
		c4.174-0.481,5.015-3.996,4.936-7.635c-0.089-4.088-1.615-6.026-6.264-5.122c-4.672,0.908-11.764,1.879-13.109-2.553
		C101.169,91.963,95.41,87.583,91.584,81.539z"/>
</g>
<g id="Layer_1">
</g>
</svg>
