<?xml version="1.0" encoding="iso-8859-1"?>
<!-- Generator: Adobe Illustrator 19.1.0, SVG Export Plug-In . SVG Version: 6.00 Build 0)  -->
<!DOCTYPE svg PUBLIC "-//W3C//DTD SVG 1.1//EN" "http://www.w3.org/Graphics/SVG/1.1/DTD/svg11.dtd">
<svg version="1.1" xmlns="http://www.w3.org/2000/svg" xmlns:xlink="http://www.w3.org/1999/xlink" x="0px" y="0px"
	 viewBox="0 0 512 512" enable-background="new 0 0 512 512" xml:space="preserve">
<g id="Layer_5">
	<path fill="#FFCD00" d="M419.26,118.511c-0.252-2.543-0.642-5.05-1.157-7.52c-1.643,5.565-4.226,10.822-8.088,15.338
		c-10.76,12.584-28.653,17.315-45.525,19.947c-57.793,9.017-120.524,2.617-171.431,30.146
		c-20.46,11.064-38.443,27.403-61.374,32.471c-28.872,6.381-58.448-6.744-82.492-22.92c-7.717-5.192-15.32-10.992-21.781-17.578
		c0.158,0.67,0.287,1.342,0.477,2.008c5.053,17.714,14.984,33.634,30.757,44.265c23.02,15.518,56.083,32.08,83.741,25.939
		c21.966-4.877,39.754-16.303,59.358-26.936c48.775-26.455,107.332-22.806,162.691-31.492c16.162-2.536,35.881-10.425,46.194-22.512
		C419.082,149.762,420.509,131.132,419.26,118.511z"/>
</g>
<g id="Layer_1">
</g>
</svg>
