<?xml version="1.0" encoding="iso-8859-1"?>
<!-- Generator: Adobe Illustrator 18.1.0, SVG Export Plug-In . SVG Version: 6.00 Build 0)  -->
<!DOCTYPE svg PUBLIC "-//W3C//DTD SVG 1.1//EN" "http://www.w3.org/Graphics/SVG/1.1/DTD/svg11.dtd">
<svg version="1.1" xmlns="http://www.w3.org/2000/svg" xmlns:xlink="http://www.w3.org/1999/xlink" x="0px" y="0px"
	 viewBox="0 0 512 512" enable-background="new 0 0 512 512" xml:space="preserve">
<g id="Layer_6">
	<path fill="#FF6E83" d="M384.074,54.182c0,0,0.265,0.437,0.707,1.255c0.429,0.812,1.131,2.044,1.871,3.58
		c0.385,0.774,0.815,1.638,1.289,2.589c0.425,0.931,0.888,1.947,1.389,3.046c1.019,2.204,2.106,4.702,3.188,7.444
		c4.407,11.002,9.137,26.075,11.834,42.936c2.747,16.882,3.455,35.551,1.194,54.311c-1.112,9.388-2.939,18.81-5.503,28.092
		c-2.53,9.297-5.836,18.438-9.711,27.345c-3.905,8.895-8.351,17.567-13.362,25.843c-4.977,8.29-10.545,16.172-16.476,23.578
		c-5.942,7.401-12.324,14.292-18.918,20.604c-3.298,3.155-6.653,6.164-10.035,9.019c-1.678,1.432-3.414,2.805-5.109,4.156
		c-1.666,1.363-3.4,2.66-5.101,3.929c-13.572,10.169-27.125,17.72-37.617,22.592c-1.329,0.602-2.588,1.171-3.772,1.707
		c-1.234,0.515-2.391,0.998-3.467,1.448c-2.112,0.916-4.067,1.629-5.632,2.216c-3.144,1.168-5.009,1.713-5.009,1.713
		c-12.379,3.619-25.27-2.031-31.263-12.862c0,0-0.941-1.7-2.354-4.742c-0.699-1.518-1.586-3.401-2.442-5.538
		c-0.449-1.077-0.931-2.234-1.445-3.468c-0.464-1.214-0.957-2.504-1.479-3.867c-4.025-10.845-8.341-25.747-10.828-42.523
		c-0.315-2.099-0.635-4.24-0.859-6.381c-0.253-2.153-0.521-4.35-0.705-6.548c-0.394-4.408-0.66-8.906-0.783-13.469
		c-0.243-9.125,0.072-18.512,1.058-27.951c0.998-9.435,2.588-18.954,4.886-28.346c2.263-9.406,5.207-18.697,8.692-27.764
		c3.516-9.055,7.599-17.877,12.344-26.262c4.71-8.4,10.043-16.379,15.858-23.832c11.595-14.92,25.236-27.686,39.067-37.748
		c13.782-10.082,27.75-17.463,38.623-22.178c2.699-1.187,5.229-2.197,7.504-3.046c1.129-0.428,2.173-0.824,3.13-1.186
		c1.006-0.343,1.919-0.654,2.737-0.933c1.606-0.57,2.972-0.952,3.848-1.227c0.89-0.27,1.386-0.394,1.386-0.394
		C365.214,38.21,377.77,43.795,384.074,54.182z"/>
</g>
<g id="Layer_1">
</g>
</svg>
