<?xml version="1.0" encoding="iso-8859-1"?>
<!-- Generator: Adobe Illustrator 18.1.0, SVG Export Plug-In . SVG Version: 6.00 Build 0)  -->
<!DOCTYPE svg PUBLIC "-//W3C//DTD SVG 1.1//EN" "http://www.w3.org/Graphics/SVG/1.1/DTD/svg11.dtd">
<svg version="1.1" xmlns="http://www.w3.org/2000/svg" xmlns:xlink="http://www.w3.org/1999/xlink" x="0px" y="0px"
	 viewBox="0 0 512 512" enable-background="new 0 0 512 512" xml:space="preserve">
<g id="Layer_4">
	<path fill="#5F65B2" d="M59.732,319.087c-4.111,0-7.444-3.333-7.444-7.444c0-4.111,3.333-7.443,7.444-7.443
		s7.443,3.333,7.443,7.443C67.175,315.755,63.843,319.087,59.732,319.087z M236.894,265.521c-9.776,0-17.701-7.925-17.701-17.701
		c0-9.776,7.925-17.701,17.701-17.701s17.701,7.925,17.701,17.701C254.595,257.596,246.67,265.521,236.894,265.521z
		 M309.871,151.197c-7.484,0-13.55-6.067-13.55-13.55c0-7.483,6.067-13.55,13.55-13.55c7.483,0,13.55,6.067,13.55,13.55
		C323.421,145.131,317.354,151.197,309.871,151.197z M443.948,158.935c-13.595,0-24.616-11.021-24.616-24.616
		c0-13.595,11.021-24.616,24.616-24.616c13.595,0,24.616,11.021,24.616,24.616C468.563,147.914,457.543,158.935,443.948,158.935z"/>
</g>
<g id="Layer_1">
</g>
</svg>
