<?xml version="1.0" encoding="iso-8859-1"?>
<!-- Generator: Adobe Illustrator 18.1.0, SVG Export Plug-In . SVG Version: 6.00 Build 0)  -->
<!DOCTYPE svg PUBLIC "-//W3C//DTD SVG 1.1//EN" "http://www.w3.org/Graphics/SVG/1.1/DTD/svg11.dtd">
<svg version="1.1" xmlns="http://www.w3.org/2000/svg" xmlns:xlink="http://www.w3.org/1999/xlink" x="0px" y="0px"
	 viewBox="0 0 512 512" enable-background="new 0 0 512 512" xml:space="preserve">
<g id="Layer_2">
	<path fill="#8E6049" d="M414.157,325.874c-2.539-1.052-5.479-0.453-7.423,1.494c-0.096,0.095-9.808,9.655-33.849,19.111
		c-40.413,15.896-89.364,19.233-123.312,19.233c-61.506,0-101.007-10.459-123.313-19.233c-24.041-9.456-33.753-19.017-33.819-19.082
		c-1.929-1.98-4.867-2.595-7.429-1.555c-2.562,1.041-4.238,3.531-4.238,6.297c0,55.071,75.295,121.585,168.799,121.585
		c93.503,0,168.798-66.514,168.798-121.585C418.371,329.39,416.699,326.926,414.157,325.874z"/>
</g>
<g id="Layer_1">
</g>
</svg>
