<?xml version="1.0" encoding="iso-8859-1"?>
<!-- Generator: Adobe Illustrator 18.1.0, SVG Export Plug-In . SVG Version: 6.00 Build 0)  -->
<!DOCTYPE svg PUBLIC "-//W3C//DTD SVG 1.1//EN" "http://www.w3.org/Graphics/SVG/1.1/DTD/svg11.dtd">
<svg version="1.1" xmlns="http://www.w3.org/2000/svg" xmlns:xlink="http://www.w3.org/1999/xlink" x="0px" y="0px"
	 viewBox="0 0 512 512" enable-background="new 0 0 512 512" xml:space="preserve">
<g id="Layer_2">
	<path fill="#00B89C" d="M417.245,322.145c-12.042,1.336-30.871,3.782-42.231,7.032c2.883-0.838,4.097-1.195-0.493,0.128
		c-19.044,5.536-6.853,2.007-0.321,0.109c-37.487,10.978-79.641,37.503-103.53,72.66V139c0-11.303-9.163-20.466-20.467-20.466
		c-11.303,0-20.466,9.163-20.466,20.466v317.589c0,9.087,5.926,16.779,14.12,19.452c-1.185,5.515-2.205,10.711-3.061,15.352
		c-1.926,10.451,7.157,19.523,17.606,17.58c23.91-4.444,62.475-13.193,84.57-26.49c37.036-22.289,64.994-65.775,77.568-106.728
		c0.1-0.325,0.175-0.568,0.231-0.744c1.172-4.069,0.816-2.858,0.006-0.071c3.262-11.403,5.563-30.432,6.787-42.573
		C428.207,325.996,423.609,321.439,417.245,322.145z"/>
</g>
<g id="Layer_1">
</g>
</svg>
