<svg xmlns="http://www.w3.org/2000/svg" viewBox="0 0 512 512" enable-background="new 0 0 512 512"><path fill="#8280D8" d="M488.95 10.383H257.514c-3.925 3.79-8.013 7.416-12.238 10.88-23.164 18.99-37.945 47.83-37.945 80.12 0 .88.01 1.76.035 2.635.222 8.835-6.933 15.972-15.767 15.697-.987-.03-1.98-.046-2.974-.046-25.083 0-47.876 9.793-64.766 25.77-11.403 10.782-28.374 13.31-42.34 6.15-21.534-11.04-45.94-17.268-71.8-17.268V449.58c74.614 0 137.11-51.843 153.452-121.473 2.75-11.727 13.18-19.897 25.227-19.868h.226c37.34 0 69.605-21.708 84.874-53.19 6.18-12.74 22.812-15.95 33.346-6.485C341.873 280.045 388.197 299.2 439 299.2c21.64 0 42.463-3.482 61.95-9.903V22.383c0-6.6-5.4-12-12-12z"/></svg>