<?xml version="1.0" encoding="iso-8859-1"?>
<!-- Generator: Adobe Illustrator 18.1.0, SVG Export Plug-In . SVG Version: 6.00 Build 0)  -->
<!DOCTYPE svg PUBLIC "-//W3C//DTD SVG 1.1//EN" "http://www.w3.org/Graphics/SVG/1.1/DTD/svg11.dtd">
<svg version="1.1" xmlns="http://www.w3.org/2000/svg" xmlns:xlink="http://www.w3.org/1999/xlink" x="0px" y="0px"
	 viewBox="0 0 512 512" enable-background="new 0 0 512 512" xml:space="preserve">
<g id="Layer_5">
	<path fill="#2B3B47" d="M21.716,501.617h467.234c6.6,0,12-5.4,12-12V319.682c-18.713-8.416-42.152-3.472-55.287,14.866
		l-51.058,71.277c-12.713,17.747-37.984,20.606-54.34,6.148l-7.456-6.591c-24.548-21.699-64.717-21.699-89.265,0h0
		c-4.849,4.286-12.377,3.242-15.877-2.201l-24.938-38.783c-20.888-32.486-68.377-32.486-89.265,0L98.585,387.54
		c-11.131,17.311-36.436,17.311-47.567,0l-2.397-3.727c-9.002-13.999-24.211-20.398-38.904-19.231v125.035
		C9.716,496.217,15.116,501.617,21.716,501.617z"/>
</g>
<g id="Layer_1">
</g>
</svg>
