<svg xmlns="http://www.w3.org/2000/svg" viewBox="0 0 512 512" enable-background="new 0 0 512 512"><path fill="#59CAFC" d="M76.174 368.08l4.057 3.907c1.34 1.288 3 2.888 4.977 4.79l5.936 5.13c.558.488 1.132.992 1.72 1.51l2.026 1.592c1.39 1.09 2.854 2.24 4.387 3.445l2.353 1.848 2.552 1.798 5.418 3.84c7.693 5.028 16.69 10.637 27.41 15.714 10.702 5.077 22.98 9.873 36.803 13.605 13.815 3.71 29.164 6.463 45.736 7.254l6.264.19 3.17.096 3.197-.06 6.467-.1c2.17-.088 4.35-.276 6.55-.403 4.41-.175 8.84-.82 13.35-1.29 1.13-.1 2.25-.29 3.376-.48l3.39-.55c2.262-.397 4.568-.654 6.833-1.198l6.877-1.454c1.16-.217 2.302-.526 3.447-.834l3.45-.908c4.654-1.098 9.22-2.696 13.896-4.125 2.32-.775 4.603-1.69 6.93-2.526l3.493-1.282c1.15-.468 2.29-.976 3.44-1.462 2.297-.99 4.628-1.94 6.936-2.97l6.858-3.337c9.084-4.668 18.21-9.813 26.864-16.036 8.695-6.14 17.254-12.89 25.21-20.612l3.042-2.842 2.776-2.885 3.26-3.385.816-.848c.267-.28.43-.495.65-.746l1.246-1.455 2.518-2.9 1.272-1.448 1.28-1.63 2.576-3.28c.848-1.104 1.767-2.16 2.54-3.326 6.652-8.99 12.542-18.75 17.482-29.156 9.907-20.782 16.09-44.148 17.378-68.43 1.29-24.262-2.312-49.373-11.094-73.084-8.743-23.717-22.693-45.962-41.066-64.636l-3.53-3.41c-1.304-1.238-2.775-2.728-3.798-3.537-2.256-1.916-4.34-3.865-6.998-5.854-1.27-.98-2.503-2.014-3.8-2.96l-3.94-2.782c-.658-.46-1.304-.94-1.972-1.39l-2.04-1.29-4.08-2.596c-5.593-3.202-11.257-6.358-17.248-8.863-2.933-1.394-6.013-2.443-9.034-3.65-1.52-.58-3.086-1.033-4.627-1.562-1.55-.504-3.083-1.065-4.668-1.46-25.05-7.398-52.323-8.074-78.155-2.066l-4.81 1.264-2.41.625-2.372.75-4.752 1.49-4.67 1.73-2.34.86-2.29.983-4.59 1.952-4.482 2.183-2.247 1.086-2.184 1.206-4.38 2.394-4.254 2.622-2.132 1.304-2.06 1.413-4.128 2.825c-5.336 4-10.615 8.12-15.428 12.787l-1.835 1.715-.46.428c.024-.04-.706.694-.06.02l-.998 1.035-3.99 4.143c-.37.372-.573.63-.82.916l-.724.846-1.46 1.685c-.49.58-.978 1.076-1.48 1.718l-1.505 1.925c-2.08 2.515-3.897 5.216-5.794 7.863-1.73 2.754-3.56 5.452-5.096 8.323-.805 1.414-1.633 2.817-2.327 4.29-.717 1.46-1.49 2.892-2.176 4.37l-1.975 4.46c-.665 1.487-1.184 3.03-1.792 4.54-.287.763-.606 1.513-.87 2.283l-.76 2.32c-.493 1.55-1.078 3.074-1.47 4.657l-1.302 4.707-1.075 4.765c-5.476 25.504-2.706 52.624 7.38 76.382 1.193 3.004 2.68 5.868 4.066 8.78 1.573 2.812 3.037 5.685 4.79 8.386 1.62 2.786 3.536 5.376 5.335 8.04 1.973 2.54 3.845 5.156 5.986 7.56 2.013 2.508 4.295 4.782 6.467 7.15l3.61 3.487c.325.307.696.68.982.934l.8.68 1.59 1.377.79.694c.25.23.53.466.85.707l1.83 1.435 1.825 1.444 1.894 1.344c2.494 1.836 5.12 3.47 7.757 5.07 21.252 12.584 46.792 17.244 70.663 13.414 5.963-.94 11.847-2.307 17.515-4.244 5.672-1.922 11.155-4.302 16.393-7.093 1.29-.732 2.625-1.384 3.882-2.168l3.783-2.323 3.656-2.506c.616-.403 1.21-.843 1.79-1.3l1.755-1.343c.583-.45 1.18-.88 1.754-1.342l1.683-1.43c1.112-.965 2.28-1.86 3.326-2.9l1.61-1.51.804-.752.403-.375c.45-.448-.165.202.07-.046l3.603-3.743 2.495-2.876c.847-1.017 1.728-2.194 2.598-3.274.866-1.106 1.63-2.284 2.458-3.415.83-1.13 1.515-2.353 2.287-3.518 2.93-4.754 5.39-9.762 7.353-14.93 3.93-10.34 5.85-21.323 5.783-32.158-.06-10.838-2.08-21.525-5.89-31.34-3.8-9.82-9.218-18.84-15.987-26.55-.798-1.004-1.74-1.884-2.593-2.835l-.654-.702-.328-.35c-.408-.41.2.17-.025-.04l-1.663-1.6-1.634-1.566-1.216-1.036-1.202-1.053-1.434-1.122c-3.81-3-7.88-5.59-12.127-7.74-8.49-4.308-17.69-6.843-26.866-7.626-9.18-.793-18.315.16-26.797 2.586-8.483 2.456-16.277 6.395-23.086 11.354-3.402 2.446-6.567 5.318-9.38 8.186l-1.325 1.377-.818.964-.826.94c-.284.336-.593.755-.89 1.126-.604.76-1.215 1.514-1.75 2.315-.553.79-1.135 1.556-1.624 2.378-4.16 6.42-6.973 13.447-8.42 20.544-1.45 7.1-1.574 14.233-.63 20.952.962 6.722 3.025 13.014 5.84 18.627 1.434 2.792 3 5.452 4.762 7.91 1.79 2.43 3.624 4.764 5.67 6.835l.37.4.185.198c-.568-.543-.014-.012-.077-.072l.993.958c.644.62 1.4 1.368 1.73 1.61l1.286 1.107 1.556 1.225c2.103 1.57 4.26 2.944 6.44 4.142 8.8 4.733 17.986 6.14 25.748 5.786 7.816-.39 14.258-2.48 19.087-4.793 4.87-2.296 8.17-4.862 10.33-6.62.53-.456 1.013-.836 1.405-1.193l.97-.912c.522-.485.788-.73.788-.73l.674-.625c6.68-6.188 17.114-5.787 23.3.894 6.105 6.592 5.784 16.85-.64 23.063l-1.274 1.23-1.584 1.517c-.64.594-1.42 1.25-2.292 2.012-.862.772-1.884 1.575-3.02 2.457-1.118.904-2.408 1.812-3.814 2.793-1.39 1.003-2.984 1.95-4.665 3-1.724.985-3.56 2.046-5.59 3.02-8.04 3.98-18.774 7.63-31.823 8.44-6.507.405-13.563.03-20.925-1.367-3.678-.72-7.42-1.717-11.202-2.983-3.763-1.32-7.552-2.918-11.31-4.842-3.737-1.964-7.433-4.25-11.02-6.87l-2.66-2.04c-.912-.73-1.887-1.583-2.826-2.388-1.07-.91-1.606-1.444-2.293-2.083l-1.005-.944-.572-.555-.293-.302-.586-.607c-3.192-3.18-6.143-6.76-8.976-10.545-2.806-3.814-5.345-7.953-7.65-12.328-4.552-8.777-7.926-18.647-9.578-29.197-1.633-10.546-1.586-21.76.563-33.013 2.14-11.242 6.45-22.503 12.955-32.838.782-1.314 1.667-2.56 2.538-3.83.853-1.28 1.792-2.5 2.737-3.724.48-.618.92-1.215 1.442-1.852l1.647-1.94 1.664-1.924 1.308-1.392 1.313-1.4c.03-.038.847-.864.7-.705l.41-.398.827-.797c1.117-1.048 2.183-2.157 3.363-3.154l3.516-3.04 3.688-2.89c10.023-7.526 21.632-13.574 34.266-17.4 12.632-3.8 26.246-5.406 40.005-4.402 13.75.992 27.652 4.613 40.595 10.965 6.47 3.17 12.69 7.013 18.512 11.474l2.182 1.68 2.28 1.93 2.27 1.958 1.71 1.6 1.684 1.58c.06.047.935.906.79.777l.47.487.94.976c1.237 1.32 2.55 2.572 3.72 3.966 9.728 10.812 17.7 23.617 23.305 37.612 5.62 13.995 8.723 29.237 9.013 44.755.3 15.514-2.24 31.327-7.728 46.347-2.74 7.508-6.21 14.812-10.37 21.76-1.08 1.71-2.087 3.476-3.25 5.14-1.16 1.665-2.272 3.372-3.497 4.996-1.253 1.627-2.428 3.218-3.768 4.868-1.406 1.665-2.87 3.385-4.27 4.98-1.184 1.26-2.37 2.523-3.557 3.79-.058.07-.994 1.013-.858.864l-.54.522-1.082 1.042-2.17 2.084c-1.42 1.42-2.983 2.693-4.494 4.026l-2.288 1.98c-.778.642-1.583 1.255-2.375 1.883l-2.392 1.87c-.792.633-1.6 1.245-2.437 1.818-1.66 1.168-3.323 2.336-4.988 3.505-1.72 1.09-3.442 2.18-5.166 3.27-1.725 1.092-3.538 2.042-5.31 3.064-7.172 3.945-14.703 7.327-22.5 10.073-7.794 2.76-15.88 4.776-24.095 6.175-16.434 2.763-33.494 2.85-50.207-.12-16.7-2.936-33.103-8.698-48.06-17.315-3.72-2.175-7.408-4.434-10.934-6.94-.887-.616-1.785-1.22-2.663-1.854l-2.58-1.968-2.577-1.98c-.422-.315-.86-.673-1.307-1.058l-1.327-1.124-2.645-2.263-1.316-1.138c-.412-.365-.7-.65-1.055-.98l-2.04-1.913-1.02-.957-.51-.48c.173.176-.803-.765-.91-.887-2.94-3.07-5.96-6.07-8.695-9.35-2.86-3.168-5.434-6.59-8.077-9.96-2.472-3.497-5.032-6.946-7.262-10.623-2.368-3.59-4.414-7.38-6.533-11.134-1.933-3.85-3.933-7.68-5.602-11.664-13.91-31.638-18.06-67.812-11.17-102.205l1.373-6.43 1.665-6.365c.522-2.134 1.25-4.208 1.895-6.307l1-3.14c.345-1.043.75-2.065 1.123-3.1.782-2.053 1.487-4.14 2.348-6.163l2.598-6.07c.905-2.006 1.907-3.968 2.86-5.952.935-1.997 2.01-3.92 3.076-5.848 2.056-3.902 4.442-7.612 6.77-11.356 2.494-3.636 4.95-7.304 7.696-10.755l2.016-2.622c.672-.873 1.49-1.787 2.23-2.676l2.286-2.678 1.148-1.335c.38-.44.788-.922 1.092-1.23l3.936-4.194.984-1.047c.99-1.006.61-.602.98-.972l.583-.56 2.332-2.248c24.764-24.15 56.295-41.4 89.814-49.82 33.572-8.29 69.138-7.857 102.16 1.414 2.08.51 4.11 1.197 6.155 1.835 2.036.663 4.095 1.256 6.105 1.986 4.005 1.507 8.057 2.886 11.955 4.643 7.917 3.23 15.467 7.237 22.882 11.407l5.432 3.346 2.71 1.68c.888.58 1.754 1.193 2.632 1.79l5.238 3.612c1.726 1.23 3.38 2.552 5.07 3.827l2.516 1.933c.42.33.834.627 1.26.985l1.284 1.083 5.107 4.358c1.85 1.547 2.987 2.698 4.386 3.99l2.025 1.903 1.01.95.508.475c-.226-.226.87.83.96.934 23.466 23.23 41.667 51.355 53.186 81.447 11.582 30.09 16.58 62.043 15.322 93.065-1.25 31.044-8.768 61.136-21.202 88.087-6.2 13.488-13.64 26.19-22.066 37.903-.996 1.506-2.14 2.898-3.215 4.336l-3.27 4.27-1.643 2.127-1.825 2.158-3.654 4.288-1.83 2.13c-.296.34-.625.74-.9 1.03l-.803.86-3.216 3.426-3.675 3.892-3.712 3.58c-9.747 9.664-20.26 18.23-31.01 26.01-10.707 7.867-21.99 14.486-33.286 20.445l-8.527 4.27c-2.87 1.332-5.76 2.57-8.62 3.84-1.434.625-2.856 1.27-4.29 1.87l-4.34 1.674c-2.896 1.09-5.75 2.25-8.638 3.257-5.815 1.896-11.523 3.917-17.316 5.396l-4.308 1.186c-1.432.397-2.858.794-4.303 1.095l-8.584 1.93c-2.83.692-5.703 1.087-8.53 1.613-1.416.248-2.83.493-4.236.738-1.407.25-2.81.496-4.22.652-5.634.69-11.18 1.516-16.695 1.837-2.755.2-5.487.452-8.204.595l-8.1.243-4.006.112c-1.33-.02-2.656-.038-3.976-.056l-7.86-.15c-20.797-.734-40.136-3.922-57.598-8.38-17.474-4.48-33.06-10.333-46.672-16.593-13.632-6.26-25.14-13.17-34.944-19.447-2.398-1.65-4.708-3.24-6.927-4.763-1.108-.767-2.192-1.517-3.254-2.25l-3.02-2.29-5.61-4.293-2.596-2.008-2.49-2.105-8.492-7.26-5.034-4.727-4.107-3.854c-11.61-10.898-12.186-29.14-1.29-40.75 10.898-11.61 29.14-12.19 40.75-1.29.057.044.22.2.27.25z"/></svg>