<svg xmlns="http://www.w3.org/2000/svg" viewBox="0 0 512 512" enable-background="new 0 0 512 512"><path fill="#FF473E" d="M267.106 9.94s.41.32 1.132.934c.706.615 1.824 1.528 3.092 2.72l2.177 1.99 2.443 2.395c1.78 1.724 3.737 3.71 5.78 5.932 8.262 8.893 18.37 21.596 27.28 36.84 8.964 15.245 16.722 33.03 21.77 52.086 2.542 9.527 4.438 19.372 5.598 29.376 1.198 10.004 1.618 20.167 1.423 30.33-.224 10.163-1.036 20.326-2.522 30.33-1.45 10.004-3.6 19.85-6.266 29.377-2.68 9.53-5.96 18.74-9.655 27.473-1.85 4.367-3.807 8.615-5.85 12.724-1.006 2.053-2.09 4.073-3.142 6.056-1.022 1.982-2.133 3.928-3.222 5.833-8.682 15.243-18.343 27.947-26.192 36.84-1 1.112-1.946 2.164-2.84 3.154-.943.99-1.83 1.918-2.654 2.78-1.605 1.728-3.14 3.197-4.365 4.388-2.463 2.382-3.98 3.652-3.98 3.652-9.937 8.32-24.21 8.047-33.806 0 0 0-1.516-1.27-3.98-3.652-1.224-1.19-2.76-2.66-4.365-4.387l-2.657-2.78-2.84-3.154c-7.85-8.892-17.51-21.595-26.193-36.84-1.09-1.906-2.2-3.85-3.222-5.833-1.053-1.982-2.136-4.002-3.143-6.057-2.04-4.11-3.998-8.357-5.848-12.724-3.697-8.734-6.977-17.944-9.656-27.472-2.666-9.528-4.816-19.373-6.265-29.377-1.485-10.004-2.298-20.167-2.525-30.33-.194-10.163.226-20.326 1.423-30.33 1.16-10.004 3.056-19.85 5.6-29.377 5.045-19.056 12.804-36.84 21.767-52.085 8.91-15.243 19.02-27.947 27.28-36.84 2.044-2.223 4-4.21 5.78-5.935l2.444-2.396 2.177-1.993c1.27-1.19 2.387-2.104 3.093-2.72.72-.614 1.13-.932 1.13-.932 10.17-7.856 24.09-7.503 33.807 0z"/></svg>