<?xml version="1.0" encoding="iso-8859-1"?>
<!-- Generator: Adobe Illustrator 18.1.0, SVG Export Plug-In . SVG Version: 6.00 Build 0)  -->
<!DOCTYPE svg PUBLIC "-//W3C//DTD SVG 1.1//EN" "http://www.w3.org/Graphics/SVG/1.1/DTD/svg11.dtd">
<svg version="1.1" xmlns="http://www.w3.org/2000/svg" xmlns:xlink="http://www.w3.org/1999/xlink" x="0px" y="0px"
	 viewBox="0 0 512 512" enable-background="new 0 0 512 512" xml:space="preserve">
<g id="Layer_2">
	<path fill="#FF6F1F" d="M65.626,275.915c24.73-40.567,95.993-45.316,95.993-45.316l0,0.001c0,0,59.854,38.435,61.967,85.899
		c2.376,53.333-29.429,108.345-69.039,142.152c6.61-5.615,18.958-16.081-0.312,0.293c-4.655,3.934-3.429,2.886-0.512,0.407
		c-11.274,9.489-32.144,22.034-46.151,30.076c-7.985,4.585-18.175,2.029-23.042-5.787c-8.621-13.846-21.22-35.069-26.552-48.888
		c1.361,3.578,1.93,5.087-0.253-0.604c-8.99-23.635-3.217-8.513-0.132-0.407C39.185,385.027,37.837,321.499,65.626,275.915z
		 M363.131,364.059c-10.768-4.832-30.875-13.827,0.519,0.265c7.576,3.376,5.577,2.471,0.824,0.338
		c18.428,8.167,50.973,16.465,72.592,21.493c12.204,2.838,24.468-4.508,27.74-16.603c5.74-21.217,13.751-53.369,15.468-73.349
		c-0.422,5.192-0.593,7.38,0.101-0.885c2.786-34.299,0.975-12.346,0.018-0.582c5.583-70.645-16.747-154.184-70.353-203.218
		c-47.705-43.639-142.283-23.028-142.283-23.028l-0.001-0.001c0,0-64.003,73.142-48.764,135.975
		C236.116,275.064,298.543,334.898,363.131,364.059z"/>
</g>
<g id="Layer_1">
</g>
</svg>
