<svg xmlns="http://www.w3.org/2000/svg" viewBox="0 0 512 512" enable-background="new 0 0 512 512"><path fill="#FF473E" d="M244.546 249.384l-.012-.307c-.006-.24-.024-.44-.046-.697l-.234-2.696c-.142-1.265-.297-2.824-.562-4.633l-.422-2.885c-.18-1.02-.37-2.094-.566-3.214-.355-2.24-.95-4.663-1.47-7.224l-.977-3.922c-.333-1.338-.662-2.705-1.09-4.076l-1.226-4.19c-.4-1.417-.935-2.815-1.4-4.243-.497-1.42-.935-2.87-1.483-4.287l-1.662-4.255c-1.035-2.87-2.4-5.595-3.585-8.34-.31-.68-.594-1.37-.922-2.034l-1.008-1.966c-.665-1.302-1.32-2.59-1.967-3.854-.325-.632-.632-1.265-.963-1.878l-1.045-1.785-2.01-3.45c-.673-1.11-1.238-2.242-1.94-3.24l-1.953-2.933-1.788-2.7c-.568-.855-1.085-1.682-1.663-2.395l-2.862-3.776-2.48-3.29-.644-.855c-6.078-8.065-4.468-19.53 3.596-25.607s19.527-4.468 25.605 3.596c.165.22.362.495.516.72 0 0 1.044 1.53 2.867 4.21l3.27 4.836c.653.92 1.245 1.96 1.89 3.046l2.025 3.42 2.192 3.72c.78 1.27 1.42 2.676 2.165 4.07l2.224 4.33 1.146 2.237c.363.763.7 1.55 1.056 2.332l2.136 4.786c.36.807.72 1.62 1.084 2.438.352.822.656 1.667.987 2.506 1.27 3.375 2.704 6.746 3.783 10.24l1.716 5.194c.56 1.73 1.006 3.485 1.507 5.208.47 1.733 1.005 3.43 1.4 5.145l1.2 5.063c.416 1.655.73 3.308 1.045 4.922l.914 4.732c.475 3.108 1.01 6.013 1.31 8.757l.477 3.92.334 3.57c.207 2.246.308 4.238.4 5.894.03.84.06 1.59.085 2.243l.025.985.012.87.006 1.095-.004.308c-.097 8.56-7.115 15.42-15.674 15.322-8.276-.094-14.963-6.657-15.31-14.83l-.004-.158z"/></svg>