<?xml version="1.0" encoding="iso-8859-1"?>
<!-- Generator: Adobe Illustrator 19.2.1, SVG Export Plug-In . SVG Version: 6.00 Build 0)  -->
<!DOCTYPE svg PUBLIC "-//W3C//DTD SVG 1.1//EN" "http://www.w3.org/Graphics/SVG/1.1/DTD/svg11.dtd">
<svg version="1.1" xmlns="http://www.w3.org/2000/svg" xmlns:xlink="http://www.w3.org/1999/xlink" x="0px" y="0px"
	 viewBox="0 0 512 512" enable-background="new 0 0 512 512" xml:space="preserve">
<g id="Layer_3">
	<path fill="#B0E9FF" d="M438.065,311.237c-5.451,0-10.743,0.675-15.808,1.925c1.13-4.928,1.748-10.052,1.748-15.323
		c0-37.714-30.573-68.286-68.286-68.286c-14.312,0-27.59,4.411-38.564,11.936c-12.81-49.355-57.658-85.798-111.02-85.798
		c-63.344,0-114.694,51.35-114.694,114.694c-47.624,0-86.232,38.683-86.232,86.308S43.815,443,91.439,443h346.626
		c36.343,0,65.805-29.538,65.805-65.881C503.87,340.775,474.408,311.237,438.065,311.237z"/>
</g>
<g id="Layer_1">
</g>
</svg>
