<svg xmlns="http://www.w3.org/2000/svg" viewBox="0 0 512 512" enable-background="new 0 0 512 512"><path fill="#009E83" d="M316.52 201.823c-1.72 3.963-5.586 6.33-9.646 6.33-1.396 0-2.814-.28-4.177-.87l-86.876-37.678 10.236 25.95c1.567 3.975-.384 8.467-4.358 10.034-.93.365-1.89.54-2.835.54-3.083 0-5.998-1.857-7.197-4.9l-15.902-40.324-53.614-23.253 20.99 53.227c1.566 3.975-.385 8.467-4.36 10.034-.93.367-1.89.542-2.834.542-3.083 0-5.998-1.857-7.197-4.9l-26.66-67.6L8.837 79.836c-5.325-2.31-7.77-8.5-5.46-13.824 2.31-5.324 8.497-7.77 13.823-5.46l115.37 50.036L197.15 85.12c3.97-1.566 8.465.385 10.033 4.36 1.568 3.974-.383 8.466-4.357 10.033l-50.17 19.785 53.674 23.278 37.183-14.663c3.97-1.566 8.464.384 10.032 4.358 1.567 3.975-.384 8.467-4.358 10.034l-22.777 8.982L311.06 188c5.325 2.31 7.77 8.498 5.46 13.823zm171.914 156.13c-1.457-3.786-5.708-5.673-9.492-4.216l-79.124 30.46-47.357-21.06c-3.256-1.448-7.07.018-8.516 3.273-1.448 3.256.018 7.07 3.273 8.518l35.58 15.823-35.352 13.61-28.635-12.734c-3.258-1.447-7.07.017-8.52 3.273-1.447 3.255.02 7.07 3.274 8.517l16.857 7.497-60.375 23.244c-3.785 1.457-5.673 5.707-4.215 9.492 1.122 2.917 3.904 4.706 6.854 4.706.877 0 1.77-.158 2.637-.492l58.797-22.635-6.527 14.675c-1.45 3.256.017 7.07 3.272 8.518.853.38 1.742.56 2.618.56 2.472 0 4.83-1.43 5.9-3.833l11.776-26.48 35.39-13.625-14.89 33.48c-1.447 3.256.02 7.07 3.274 8.518.853.38 1.742.56 2.618.56 2.472 0 4.83-1.43 5.9-3.833l20.138-45.284 80.63-31.04c3.788-1.46 5.676-5.71 4.218-9.494z"/></svg>