<?xml version="1.0" encoding="iso-8859-1"?>
<!-- Generator: Adobe Illustrator 18.1.0, SVG Export Plug-In . SVG Version: 6.00 Build 0)  -->
<!DOCTYPE svg PUBLIC "-//W3C//DTD SVG 1.1//EN" "http://www.w3.org/Graphics/SVG/1.1/DTD/svg11.dtd">
<svg version="1.1" xmlns="http://www.w3.org/2000/svg" xmlns:xlink="http://www.w3.org/1999/xlink" x="0px" y="0px"
	 viewBox="0 0 512 512" enable-background="new 0 0 512 512" xml:space="preserve">
<g id="Layer_3">
	<path fill="#8280D8" d="M488.951,10.383H257.513c-3.925,3.789-8.013,7.416-12.238,10.88c-23.164,18.991-37.945,47.829-37.945,80.12
		c0,0.881,0.011,1.759,0.033,2.635c0.222,8.835-6.933,15.972-15.767,15.697c-0.987-0.031-1.979-0.046-2.974-0.046
		c-25.083,0-47.876,9.796-64.766,25.771c-11.403,10.784-28.374,13.309-42.341,6.149c-21.533-11.039-45.938-17.265-71.799-17.265
		v315.258c74.614,0,137.11-51.844,153.452-121.474c2.752-11.727,13.182-19.897,25.228-19.868c0.075,0,0.151,0,0.226,0
		c37.339,0,69.605-21.706,84.874-53.189c6.18-12.742,22.812-15.95,33.346-6.484c35.03,31.479,81.354,50.635,132.158,50.635
		c21.639,0,42.462-3.483,61.951-9.904V22.383C500.951,15.783,495.551,10.383,488.951,10.383z"/>
</g>
<g id="Layer_1">
</g>
</svg>
