<?xml version="1.0" encoding="iso-8859-1"?>
<!-- Generator: Adobe Illustrator 19.1.0, SVG Export Plug-In . SVG Version: 6.00 Build 0)  -->
<!DOCTYPE svg PUBLIC "-//W3C//DTD SVG 1.1//EN" "http://www.w3.org/Graphics/SVG/1.1/DTD/svg11.dtd">
<svg version="1.1" xmlns="http://www.w3.org/2000/svg" xmlns:xlink="http://www.w3.org/1999/xlink" x="0px" y="0px"
	 viewBox="0 0 512 512" enable-background="new 0 0 512 512" xml:space="preserve">
<g id="Layer_4">
	<path fill="#FFE46A" d="M365.92,173.712c-55.36,8.686-115.439,2.574-164.214,29.029c-19.603,10.633-36.836,26.328-58.803,31.205
		c-27.658,6.141-55.978-6.445-78.997-21.962c-15.772-10.632-31.108-23.881-36.161-41.596c-5.837-20.462,3.448-48.825,19.014-64.23
		s36.126-35.821,56.789-44.26c34.779-14.203,70.12-20.665,106.731-29.752c41.088-10.198,85.768-5.525,126.67,4.78
		s78.218,41.666,82.167,81.571c1.249,12.621-1.128,26.136-9.58,36.041C399.222,166.625,382.082,171.176,365.92,173.712z"/>
</g>
<g id="Layer_1">
</g>
</svg>
