<?xml version="1.0" encoding="iso-8859-1"?>
<!-- Generator: Adobe Illustrator 18.1.0, SVG Export Plug-In . SVG Version: 6.00 Build 0)  -->
<!DOCTYPE svg PUBLIC "-//W3C//DTD SVG 1.1//EN" "http://www.w3.org/Graphics/SVG/1.1/DTD/svg11.dtd">
<svg version="1.1" xmlns="http://www.w3.org/2000/svg" xmlns:xlink="http://www.w3.org/1999/xlink" x="0px" y="0px"
	 viewBox="0 0 512 512" enable-background="new 0 0 512 512" xml:space="preserve">
<g id="Layer_4">
	<path fill="#FF473E" d="M196.908,282.01c21.613-4.337,21.439,25.157,12.813,58.938c-7.852,30.75-37.377,57.278-34.85,95.326
		c1.115,16.794,12.169,36.678,28.994,36.217c50.957-1.395,23.281-78.242,33.952-136.887c5.218-50.006,52.357-76.285,70.557-29.261
		c0.163,0.526,0.431,1.39,0.594,1.916c0.703,2.89,1.404,5.769,2.099,8.625c1.422,5.723,2.47,11.469,3.542,17.038
		c0.541,2.782,1.053,5.53,1.433,8.25c0.351,2.725,0.528,5.416,0.786,8.053c3.27,33.422,8.213,54.492,9.829,68.745
		c6.067,53.53,60.733,11.137,31.606-39.848c-29.127-50.985-54.923-126.323-31.006-126.323c21.969,0,34.824,66.336,50.567,67.65
		c12.123,1.012,14.012-7.124,13.896-12.775c-42.94-53.949-85.829-113.439-131.542-117.825l1.018,1.219
		c-3.196-0.202-6.477,0.103-9.739,0.992c-0.068,0.019-0.134,0.041-0.202,0.06c-4.09-3.02-20.372,8.402-25.132,8.402
		c-3.147,0-6.804,1.161-10.73,3.113c-15.144,10.641-29.574,26.485-43.915,44.601C187,264.5,136.19,336.29,110.295,357.006
		C64.17,393.906,88.564,449.2,119.5,416c13.848-14.861,21.5-37.5,34-64.5C159.635,338.248,173.921,286.622,196.908,282.01z"/>
</g>
<g id="Layer_1">
</g>
</svg>
