<?xml version="1.0" encoding="iso-8859-1"?>
<!-- Generator: Adobe Illustrator 18.1.0, SVG Export Plug-In . SVG Version: 6.00 Build 0)  -->
<!DOCTYPE svg PUBLIC "-//W3C//DTD SVG 1.1//EN" "http://www.w3.org/Graphics/SVG/1.1/DTD/svg11.dtd">
<svg version="1.1" xmlns="http://www.w3.org/2000/svg" xmlns:xlink="http://www.w3.org/1999/xlink" x="0px" y="0px"
	 viewBox="0 0 512 512" enable-background="new 0 0 512 512" xml:space="preserve">
<g id="Layer_3">
	<path fill="#2B3B47" d="M169.075,225.398v30.911h-0.046c0,0.046,0.046,0.086,0.046,0.086c0,12.14-9.85,21.989-21.989,21.989
		c-12.14,0-21.989-9.85-21.989-22.013c0,0,0-0.016,0-0.062h-0.094v-30.911h0.265c0.981-11.26,10.301-20.12,21.818-20.12
		c11.485,0,20.805,8.86,21.772,20.12H169.075z M386.82,225.398c-0.967-11.26-10.301-20.12-21.818-20.12
		c-11.471,0-20.805,8.86-21.772,20.12h-0.265v30.911h0.094c0,0.046,0,0.062,0,0.062c0,12.164,9.85,22.013,21.943,22.013
		c12.14,0,21.989-9.85,21.989-21.989c0,0,0-0.04,0-0.086l0,0v-30.911H386.82z M291.854,399.745c4.172-3.17,4.984-9.123,1.813-13.296
		c-3.169-4.172-9.123-4.982-13.296-1.813c-14.807,11.25-33.943,11.251-48.749,0c-4.17-3.171-10.124-2.359-13.296,1.813
		c-3.171,4.172-2.359,10.125,1.813,13.296c10.724,8.15,23.288,12.224,35.855,12.224C268.561,411.969,281.13,407.894,291.854,399.745
		z"/>
</g>
<g id="Layer_1">
</g>
</svg>
