<svg xmlns="http://www.w3.org/2000/svg" viewBox="0 0 512 512" enable-background="new 0 0 512 512"><path fill="#42CC4B" d="M334.026 234.9c56.227-10.483 156.79-36.787 108.29-85.228-28.98-28.944-35.553-11.975-61.458-37.805-25.856-25.87-8.898-32.463-37.877-61.406-47.84-47.78-73.88 49.49-84.53 106.15-10.486-56.23-36.79-156.79-85.23-108.29-28.944 28.98-11.977 35.55-37.804 61.455-25.872 25.86-32.465 8.9-61.408 37.88-47.78 47.84 49.49 73.88 106.148 84.533-56.227 10.483-156.79 36.787-108.29 85.228 28.98 28.944 35.553 11.975 61.458 37.805 25.856 25.87 8.898 32.465 37.877 61.408 37.307 37.258 61.355-13.682 75.19-64.79-.18 4.356-.305 8.817-.372 13.35-.047 6.2-.015 12.528.275 18.902.316 6.373.73 12.784 1.528 19.13.786 6.344 1.745 12.626 3.117 18.704l.487 2.273c.19.753.376 1.502.56 2.248l1.134 4.437 1.288 4.33c.217.712.418 1.424.647 2.127.24.7.482 1.394.72 2.085l1.43 4.094 1.576 3.936c.983 2.602 2.22 5.034 3.29 7.414 1.13 2.357 2.362 4.566 3.472 6.697 1.24 2.076 2.42 4.046 3.527 5.897l3.42 5.037c1.063 1.558 2.18 2.894 3.125 4.15 1.88 2.528 3.59 4.326 4.69 5.616l1.717 1.95c.482.54 1.068 1.134 1.628 1.623 7.304 6.376 18.395 5.624 24.772-1.68s5.625-18.395-1.68-24.77l-.504-.443-1.368-1.195c-.877-.796-2.274-1.862-3.822-3.47-.78-.796-1.72-1.613-2.623-2.622l-2.952-3.267-3.163-3.947c-1.024-1.476-2.177-2.978-3.274-4.643-1.043-1.705-2.26-3.4-3.29-5.333-.543-.95-1.094-1.918-1.654-2.9l-1.574-3.096-.808-1.584c-.26-.54-.5-1.097-.754-1.65l-1.532-3.38-1.432-3.548-.725-1.81c-.22-.617-.444-1.238-.667-1.86-1.857-4.96-3.426-10.303-4.88-15.82-1.47-5.512-2.625-11.274-3.705-17.082-1.055-5.817-1.882-11.727-2.627-17.578-.7-5.863-1.29-11.676-1.763-17.335-.01-.107-.017-.21-.026-.317 13.572 53.4 38.25 111.427 77.366 72.263 28.944-28.98 11.977-35.55 37.804-61.456 25.872-25.86 32.465-8.9 61.408-37.88 47.782-47.84-49.487-73.88-106.146-84.533z"/></svg>