<?xml version="1.0" encoding="iso-8859-1"?>
<!-- Generator: Adobe Illustrator 18.1.0, SVG Export Plug-In . SVG Version: 6.00 Build 0)  -->
<!DOCTYPE svg PUBLIC "-//W3C//DTD SVG 1.1//EN" "http://www.w3.org/Graphics/SVG/1.1/DTD/svg11.dtd">
<svg version="1.1" xmlns="http://www.w3.org/2000/svg" xmlns:xlink="http://www.w3.org/1999/xlink" x="0px" y="0px"
	 viewBox="0 0 512 512" enable-background="new 0 0 512 512" xml:space="preserve">
<g id="Layer_2">
	<path fill="#2BA52E" d="M425.273,383.185c-0.04-0.679-0.038-1.3-0.129-1.855c-0.101-0.534-0.193-1.018-0.276-1.452
		c-0.339-1.741-0.597-2.71-0.597-2.71c-0.026-0.095-0.057-0.195-0.092-0.288c-0.599-1.604-2.385-2.418-3.989-1.819
		c0,0-0.938,0.351-2.554,1.082c-1.673,0.886-3.827,1.46-6.502,2.393c-2.697,0.884-5.837,1.724-9.159,2.33
		c-3.33,0.612-6.85,0.957-10.468,1.069c-3.631,0.114-7.342,0.037-11.303-0.104c-3.986-0.162-8.136-0.303-12.697-0.414
		c-4.544-0.131-9.407-0.137-14.642-0.007c-5.208,0.153-10.802,0.454-16.672,1.088c-5.884,0.611-12.08,1.56-18.531,3.086
		c-6.452,1.551-13.16,3.656-19.985,6.735c-6.606,2.983-13.369,6.953-19.53,12.191v-93.184c0-12.23-9.915-22.146-22.146-22.146
		s-22.146,9.915-22.146,22.146v93.763c-0.008-0.007-0.015-0.014-0.023-0.021c-6.273-5.49-13.23-9.62-20.012-12.704
		c-6.814-3.095-13.512-5.211-19.946-6.767c-6.433-1.532-12.606-2.484-18.465-3.096c-5.842-0.635-11.411-0.938-16.585-1.092
		c-5.205-0.131-10.033-0.127-14.547,0.005c-4.525,0.108-8.649,0.252-12.609,0.413c-3.93,0.137-7.627,0.216-11.242,0.1
		c-3.604-0.114-7.115-0.463-10.436-1.077c-3.312-0.609-6.449-1.446-9.139-2.329c-2.666-0.927-4.822-1.505-6.491-2.383
		c-1.613-0.727-2.55-1.075-2.55-1.075c-0.088-0.032-0.184-0.063-0.276-0.088c-1.657-0.445-3.36,0.538-3.805,2.195
		c0,0-0.259,0.965-0.602,2.701c-0.083,0.433-0.176,0.916-0.278,1.448c-0.095,0.551-0.092,1.171-0.135,1.847
		c-0.022,0.69-0.046,1.431-0.071,2.221c-0.006,0.819,0.046,1.567,0.082,2.442c0.084,3.482,0.795,7.643,2.336,12.352
		c1.553,4.687,4.088,9.837,7.709,14.867c3.604,5.03,8.271,9.927,13.613,14.221c5.327,4.282,11.327,8.023,17.489,11.072
		c6.167,3.102,12.544,5.538,18.788,7.49c6.272,1.957,12.399,3.409,18.247,4.54c2.921,0.569,5.743,1.058,8.498,1.464
		c2.718,0.409,5.374,0.748,7.878,1.017c5.012,0.535,9.531,0.835,13.329,0.955c3.824,0.115,6.875,0.02,9.357-0.295
		c2.476-0.288,4.49-0.89,6.801-1.04c2.328-0.199,4.901,0.342,7.479,1.571c2.56,1.215,5.003,3.006,7.035,4.777
		c2.05,1.755,3.722,3.441,4.912,4.634c1.172,1.197,1.909,1.886,1.909,1.886l0.587,0.549c0.038,0.035,0.077,0.07,0.116,0.105
		c0.331,0.294,0.683,0.546,1.046,0.774v17.031c0,12.23,9.915,22.146,22.146,22.146s22.146-9.915,22.146-22.146v-17.694
		c0.094-0.08,0.191-0.153,0.281-0.238l0.563-0.527c0,0,0.737-0.691,1.909-1.892c1.191-1.196,2.863-2.887,4.918-4.642
		c2.036-1.77,4.48-3.56,7.047-4.76c2.577-1.22,5.158-1.73,7.488-1.528c2.315,0.155,4.35,0.746,6.872,1.022
		c2.518,0.303,5.623,0.39,9.491,0.273c3.841-0.123,8.4-0.423,13.446-0.957c2.52-0.268,5.193-0.607,7.925-1.015
		c2.77-0.405,5.605-0.893,8.539-1.461c5.872-1.128,12.024-2.578,18.315-4.529c6.266-1.948,12.659-4.375,18.847-7.469
		c6.18-3.035,12.204-6.769,17.557-11.041c5.368-4.276,10.068-9.172,13.705-14.2c3.655-5.029,6.224-10.187,7.803-14.884
		c1.571-4.719,2.297-8.896,2.395-12.389c0.039-0.877,0.093-1.63,0.091-2.449C425.325,384.608,425.302,383.865,425.273,383.185z"/>
</g>
<g id="Layer_3">
	<path fill="#FFB636" d="M434.423,175.192c0,0-1.394-1.143-4.008-2.987c-1.307-0.929-2.919-2.063-4.813-3.271
		c-1.895-1.259-4.073-2.651-6.512-4.105c-4.145-2.491-9.051-5.224-14.598-8.034c3.931-4.818,7.307-9.307,10.085-13.265
		c1.64-2.318,3.066-4.474,4.287-6.394c1.242-1.873,2.255-3.563,3.073-4.942c1.641-2.746,2.451-4.356,2.451-4.356
		c0.471-0.951,0.903-2.042,1.196-3.104c2.483-9.001-2.801-18.31-11.802-20.794c0,0-1.738-0.479-4.875-1.105
		c-1.571-0.319-3.504-0.702-5.727-1.037c-2.243-0.383-4.798-0.771-7.617-1.11c-3.16-0.392-6.673-0.745-10.469-1.032
		c1.096-3.646,2.03-7.051,2.8-10.141c0.697-2.753,1.253-5.277,1.702-7.507c0.485-2.194,0.824-4.135,1.091-5.717
		c0.544-3.152,0.722-4.946,0.722-4.946c0.098-1.057,0.108-2.23,0-3.326c-0.919-9.292-9.196-16.08-18.488-15.161
		c0,0-1.794,0.177-4.946,0.722c-1.581,0.267-3.522,0.605-5.717,1.091c-2.23,0.449-4.754,1.005-7.507,1.702
		c-4.693,1.169-10.094,2.706-16.004,4.642c-0.628-6.186-1.414-11.747-2.249-16.51c-0.48-2.799-0.995-5.332-1.489-7.552
		c-0.446-2.203-0.925-4.114-1.322-5.667c-0.781-3.102-1.347-4.813-1.347-4.813c-0.34-1.006-0.806-2.083-1.349-3.04
		c-4.609-8.12-14.928-10.967-23.048-6.358c0,0-1.568,0.89-4.228,2.666c-1.337,0.885-2.974,1.982-4.783,3.316
		c-1.856,1.315-3.938,2.848-6.171,4.601c-2.512,1.957-5.245,4.192-8.133,6.673c-1.803-3.354-3.55-6.421-5.191-9.151
		c-1.454-2.439-2.845-4.617-4.105-6.512c-1.208-1.895-2.342-3.507-3.271-4.813c-1.844-2.614-2.987-4.008-2.987-4.008
		c-0.679-0.817-1.501-1.654-2.352-2.352c-7.22-5.921-17.872-4.868-23.793,2.352c0,0-1.143,1.394-2.987,4.008
		c-0.929,1.307-2.063,2.918-3.271,4.813c-1.259,1.895-2.651,4.073-4.105,6.512c-2.494,4.148-5.229,9.059-8.041,14.612
		c-4.819-3.934-9.308-7.313-13.267-10.093c-2.317-1.64-4.472-3.067-6.39-4.289c-1.872-1.242-3.561-2.256-4.94-3.074
		c-2.744-1.642-4.353-2.452-4.353-2.452c-0.956-0.474-2.052-0.908-3.12-1.202c-8.998-2.477-18.301,2.809-20.778,11.807
		c0,0-0.478,1.737-1.102,4.873c-0.318,1.571-0.7,3.504-1.034,5.725c-0.382,2.242-0.769,4.797-1.107,7.616
		c-0.392,3.165-0.744,6.684-1.03,10.487c-3.653-1.1-7.063-2.037-10.158-2.809c-2.752-0.698-5.275-1.255-7.505-1.705
		c-2.193-0.486-4.134-0.825-5.714-1.093c-3.151-0.546-4.944-0.724-4.944-0.724c-1.063-0.099-2.242-0.11-3.343,0
		c-9.287,0.923-16.068,9.2-15.144,18.487c0,0,0.178,1.793,0.724,4.944c0.268,1.58,0.606,3.521,1.093,5.714
		c0.45,2.23,1.007,4.753,1.705,7.505c1.172,4.698,2.713,10.106,4.654,16.024c-6.196,0.626-11.764,1.412-16.533,2.246
		c-2.799,0.479-5.331,0.993-7.551,1.486c-2.202,0.445-4.113,0.923-5.666,1.319c-3.101,0.779-4.812,1.344-4.812,1.344
		c-1.011,0.341-2.093,0.809-3.056,1.356c-8.114,4.611-10.954,14.927-6.343,23.042c0,0,0.89,1.567,2.667,4.225
		c0.886,1.336,1.982,2.972,3.317,4.78c1.316,1.855,2.848,3.936,4.602,6.168c1.961,2.515,4.2,5.252,6.687,8.144
		c-3.36,1.805-6.434,3.554-9.169,5.196c-2.439,1.453-4.617,2.843-6.512,4.101c-1.895,1.207-3.506,2.34-4.813,3.268
		c-2.614,1.842-4.008,2.984-4.008,2.984c-0.821,0.682-1.662,1.508-2.364,2.364c-5.914,7.22-4.856,17.867,2.364,23.781
		c0,0,1.394,1.142,4.008,2.984c1.307,0.928,2.919,2.061,4.813,3.268c1.895,1.258,4.073,2.649,6.512,4.101
		c4.151,2.493,9.065,5.228,14.622,8.04c-3.938,4.824-7.321,9.317-10.103,13.279c-1.64,2.317-3.067,4.472-4.289,6.391
		c-1.242,1.872-2.256,3.561-3.074,4.94c-1.642,2.744-2.452,4.353-2.452,4.353c-0.474,0.956-0.908,2.052-1.202,3.12
		c-2.477,8.998,2.809,18.301,11.808,20.778c0,0,1.737,0.478,4.873,1.102c1.571,0.318,3.504,0.7,5.725,1.035
		c2.242,0.382,4.797,0.769,7.616,1.107c3.165,0.392,6.684,0.744,10.487,1.03c-1.1,3.652-2.037,7.062-2.809,10.156
		c-0.698,2.752-1.255,5.275-1.705,7.505c-0.486,2.193-0.825,4.134-1.093,5.714c-0.545,3.151-0.724,4.944-0.724,4.944
		c-0.099,1.063-0.109,2.241,0,3.343c0.923,9.287,9.2,16.068,18.488,15.145c0,0,1.793-0.178,4.944-0.724
		c1.58-0.268,3.521-0.606,5.714-1.093c2.23-0.45,4.753-1.007,7.505-1.705c4.698-1.172,10.106-2.713,16.024-4.654
		c0.626,6.196,1.412,11.765,2.246,16.535c0.479,2.798,0.993,5.331,1.486,7.551c0.445,2.202,0.923,4.113,1.319,5.666
		c0.779,3.101,1.344,4.812,1.344,4.812c0.341,1.011,0.809,2.093,1.356,3.056c4.611,8.114,14.927,10.954,23.042,6.343
		c0,0,1.567-0.89,4.225-2.667c1.336-0.886,2.972-1.983,4.78-3.317c1.855-1.316,3.936-2.848,6.168-4.603
		c2.515-1.961,5.252-4.201,8.145-6.688c1.805,3.36,3.553,6.434,5.195,9.168c1.453,2.439,2.843,4.617,4.101,6.512
		c1.207,1.895,2.34,3.507,3.268,4.813c1.842,2.614,2.984,4.007,2.984,4.007c0.682,0.821,1.508,1.662,2.364,2.364
		c7.22,5.914,17.867,4.856,23.781-2.364c0,0,1.142-1.394,2.984-4.007c0.928-1.307,2.061-2.919,3.268-4.813
		c1.258-1.895,2.649-4.073,4.101-6.512c2.491-4.147,5.223-9.057,8.032-14.608c4.823,3.935,9.316,7.314,13.278,10.095
		c2.318,1.64,4.474,3.066,6.394,4.287c1.873,1.242,3.563,2.255,4.942,3.073c2.745,1.641,4.356,2.451,4.356,2.451
		c0.952,0.471,2.042,0.903,3.104,1.196c9.001,2.483,18.311-2.801,20.794-11.802c0,0,0.479-1.738,1.104-4.875
		c0.319-1.571,0.701-3.504,1.037-5.727c0.383-2.243,0.771-4.798,1.11-7.617c0.392-3.16,0.745-6.673,1.032-10.469
		c3.645,1.096,7.049,2.03,10.139,2.8c2.753,0.697,5.277,1.253,7.507,1.702c2.194,0.485,4.135,0.824,5.717,1.09
		c3.152,0.544,4.946,0.722,4.946,0.722c1.057,0.097,2.231,0.108,3.326,0c9.292-0.919,16.08-9.196,15.161-18.488
		c0,0-0.177-1.794-0.722-4.946c-0.267-1.581-0.605-3.522-1.091-5.717c-0.449-2.23-1.005-4.754-1.702-7.507
		c-1.169-4.693-2.706-10.094-4.642-16.003c6.187-0.628,11.748-1.414,16.512-2.249c2.799-0.48,5.332-0.995,7.553-1.49
		c2.203-0.446,4.114-0.925,5.667-1.322c3.102-0.781,4.813-1.347,4.813-1.347c1.006-0.34,2.083-0.806,3.04-1.349
		c8.12-4.609,10.967-14.928,6.358-23.048c0,0-0.89-1.568-2.666-4.228c-0.885-1.337-1.982-2.974-3.316-4.783
		c-1.315-1.856-2.848-3.938-4.601-6.171c-1.957-2.512-4.192-5.245-6.673-8.133c3.353-1.803,6.421-3.55,9.15-5.19
		c2.439-1.454,4.617-2.845,6.512-4.105c1.895-1.208,3.507-2.342,4.813-3.271c2.614-1.844,4.008-2.987,4.008-2.987
		c0.817-0.679,1.654-1.501,2.352-2.352C442.696,191.765,441.643,181.112,434.423,175.192z"/>
</g>
<g id="Layer_4">
	<circle fill="#68442A" cx="256" cy="188.266" r="94.684"/>
</g>
</svg>
