<?xml version="1.0" encoding="iso-8859-1"?>
<!-- Generator: Adobe Illustrator 19.1.0, SVG Export Plug-In . SVG Version: 6.00 Build 0)  -->
<!DOCTYPE svg PUBLIC "-//W3C//DTD SVG 1.1//EN" "http://www.w3.org/Graphics/SVG/1.1/DTD/svg11.dtd">
<svg version="1.1" xmlns="http://www.w3.org/2000/svg" xmlns:xlink="http://www.w3.org/1999/xlink" x="0px" y="0px"
	 viewBox="0 0 512 512" enable-background="new 0 0 512 512" xml:space="preserve">
<g id="Layer_11">
	<path fill="#F26C24" d="M385.644,281.24l-0.744-3.609c-3.379-16.4-19.562-27.053-35.962-23.673l-3.609,0.744
		c-1.089,0.224-2.15,0.509-3.186,0.843c0.758-7.301-0.87-14.891-5.168-21.481l-2.192-3.361
		c-9.961-15.275-30.608-19.622-45.883-9.662l-3.361,2.192c-13.718,8.946-18.615,26.51-12.256,41.062
		c-4.562-1.462-9.541-1.815-14.543-0.784l-3.421,0.705c-15.548,3.204-25.647,18.546-22.443,34.093l0.705,3.421
		c3.204,15.548,18.546,25.647,34.093,22.443l3.421-0.705c15.548-3.204,25.647-18.546,22.443-34.093l-0.705-3.421
		c-0.088-0.425-0.188-0.844-0.293-1.26c8.935,3.892,19.434,3.819,28.508-0.865c-0.054,2.252,0.135,4.54,0.608,6.835l0.744,3.609
		c3.379,16.4,19.562,27.053,35.962,23.673l3.609-0.744C378.37,313.822,389.023,297.64,385.644,281.24z"/>
</g>
<g id="Layer_1">
</g>
</svg>
