<?xml version="1.0" encoding="iso-8859-1"?>
<!-- Generator: Adobe Illustrator 18.1.0, SVG Export Plug-In . SVG Version: 6.00 Build 0)  -->
<!DOCTYPE svg PUBLIC "-//W3C//DTD SVG 1.1//EN" "http://www.w3.org/Graphics/SVG/1.1/DTD/svg11.dtd">
<svg version="1.1" xmlns="http://www.w3.org/2000/svg" xmlns:xlink="http://www.w3.org/1999/xlink" x="0px" y="0px"
	 viewBox="0 0 512 512" enable-background="new 0 0 512 512" xml:space="preserve">
<g id="Layer_8">
	<path fill="#F7F9AA" d="M88.887,202.052l5.019,10.17c0.503,1.019,1.475,1.725,2.599,1.888l11.223,1.631
		c2.831,0.411,3.961,3.89,1.913,5.887l-8.121,7.916c-0.813,0.793-1.185,1.935-0.993,3.055l1.917,11.178
		c0.484,2.82-2.476,4.97-5.008,3.638l-10.038-5.277c-1.005-0.529-2.207-0.529-3.212,0l-10.038,5.277
		c-2.532,1.331-5.491-0.819-5.008-3.638l1.917-11.178c0.192-1.12-0.179-2.262-0.993-3.055l-8.121-7.916
		c-2.048-1.997-0.918-5.476,1.913-5.887l11.223-1.631c1.124-0.163,2.096-0.869,2.599-1.888l5.019-10.17
		C83.963,199.487,87.621,199.487,88.887,202.052z M437.946,202.052l-5.019,10.17c-0.503,1.019-1.475,1.725-2.599,1.888
		l-11.223,1.631c-2.831,0.411-3.961,3.89-1.913,5.887l8.121,7.916c0.813,0.793,1.185,1.935,0.993,3.055l-1.917,11.178
		c-0.484,2.82,2.476,4.97,5.008,3.638l10.038-5.277c1.005-0.529,2.207-0.529,3.212,0l10.038,5.277
		c2.532,1.331,5.491-0.819,5.008-3.638l-1.917-11.178c-0.192-1.12,0.179-2.262,0.993-3.055l8.121-7.916
		c2.048-1.997,0.918-5.476-1.913-5.887l-11.223-1.631c-1.124-0.163-2.096-0.869-2.599-1.888l-5.019-10.17
		C442.87,199.487,439.212,199.487,437.946,202.052z M372.019,22.061L367,32.231c-0.503,1.019-1.475,1.725-2.599,1.888l-11.223,1.631
		c-2.831,0.411-3.961,3.89-1.913,5.887l8.121,7.916c0.813,0.793,1.185,1.935,0.993,3.055l-1.917,11.178
		c-0.484,2.82,2.476,4.97,5.008,3.638l10.038-5.277c1.005-0.529,2.207-0.529,3.212,0l10.038,5.277
		c2.532,1.331,5.491-0.819,5.008-3.638l-1.917-11.178c-0.192-1.12,0.179-2.262,0.993-3.055l8.121-7.916
		c2.048-1.997,0.918-5.476-1.913-5.887l-11.223-1.631c-1.124-0.163-2.096-0.869-2.599-1.888l-5.019-10.17
		C376.943,19.496,373.285,19.496,372.019,22.061z M145.511,39.832c-9.776,0-17.701,7.925-17.701,17.701s7.925,17.701,17.701,17.701
		s17.701-7.925,17.701-17.701S155.287,39.832,145.511,39.832z M257.961,67.829c-4.111,0-7.444,3.333-7.444,7.444
		c0,4.111,3.333,7.444,7.444,7.444c4.111,0,7.444-3.333,7.444-7.444C265.404,71.162,262.072,67.829,257.961,67.829z
		 M307.243,291.687c-3.455,0-6.257,2.801-6.257,6.257c0,3.455,2.801,6.257,6.257,6.257c3.455,0,6.257-2.801,6.257-6.257
		C313.5,294.488,310.699,291.687,307.243,291.687z"/>
</g>
<g id="Layer_1">
</g>
</svg>
