<svg xmlns="http://www.w3.org/2000/svg" viewBox="0 0 512 512" enable-background="new 0 0 512 512"><path fill="#2BA52E" d="M425.834 166.186c-3.365-3.365-6.962-6.352-10.723-9.004 2.664-1.997 5.224-4.194 7.645-6.615 27.648-27.648 27.648-72.473 0-100.12-27.528-27.53-72.078-27.638-99.754-.35-2.22-10.262-7.3-20.03-15.275-28.004-22.1-22.1-57.934-22.1-80.036 0-3.168 3.167-5.865 6.622-8.124 10.272-28.698-14.07-64.337-9.195-88.2 14.667-27.575 27.576-29.8 70.878-6.72 101.02-16.384 2.037-32.24 9.324-44.82 21.904-30.023 30.023-30.023 78.7 0 108.72 15.196 15.197 35.17 22.688 55.087 22.5-3.492 15.27.698 31.943 12.592 43.837 18.39 18.39 48.203 18.39 66.592 0 2.557-2.557 4.745-5.34 6.59-8.277.277.286.54.582.822.865 29.47 29.47 77.25 29.47 106.72 0 10.026-10.026 16.633-22.176 19.836-35 26.93 6.873 56.69-.213 77.768-21.29 31.79-31.79 31.79-83.334 0-115.123z"/></svg>