<?xml version="1.0" encoding="iso-8859-1"?>
<!-- Generator: Adobe Illustrator 18.1.0, SVG Export Plug-In . SVG Version: 6.00 Build 0)  -->
<!DOCTYPE svg PUBLIC "-//W3C//DTD SVG 1.1//EN" "http://www.w3.org/Graphics/SVG/1.1/DTD/svg11.dtd">
<svg version="1.1" xmlns="http://www.w3.org/2000/svg" xmlns:xlink="http://www.w3.org/1999/xlink" x="0px" y="0px"
	 viewBox="0 0 512 512" enable-background="new 0 0 512 512" xml:space="preserve">
<g id="Layer_2">
	<path fill="#3BCCFF" d="M167.935,31.49c9.308-3.637,18.888-6.728,28.715-9.205c10.943-2.758,22.182-4.769,33.659-5.98
		c2.23,9.985,1.836,12.318-1.218,29.602c-2.443-4.684-4.411-9.709-7.462-13.957c-5.144-7.163-12.117-5.83-15.671,2.568
		c-3.185,7.527-11.048,12.758-18.467,11.891c-1.669-0.195-4.415-1.53-4.584-2.654C181.372,33.55,174.781,32.284,167.935,31.49z
		 M314.66,46.278c-0.144-0.146-0.288-0.291-0.433-0.437l0.471,0.444c-2.97-3.778-6.283-7.34-8.831-11.385
		c-3.387-5.376-6.371-11.006-9.451-16.576c-5.277-0.887-10.609-1.611-15.996-2.151C282.811,33.822,292.749,42.538,314.66,46.278z
		 M246.671,138.103c3.037-0.459,5.775-2.62,8.785-3.613c3.766-1.243,10.388,3.164,10.892-3.463
		c0.243-3.193-4.578-7.377-7.936-10.079c-3.918-3.152-8.664-5.344-13.266-7.494c-0.643-0.3-3.699,2.907-3.637,2.99
		c4.687,6.248,1.081,11.974-2.013,19.283C242.202,136.698,244.59,138.417,246.671,138.103z M498.049,257
		c0,133.68-108.369,242.049-242.049,242.049S13.951,390.68,13.951,257c0-56.103,19.101-107.737,51.136-148.784
		c5.392,3.867,10.79,7.725,16.469,11.109c6.492,3.869,8.534,9.078,8.222,16.11c-0.258,5.81-1.045,11.864,0.197,17.407
		c1.783,7.957,3.14,17.514,8.308,22.92c14.362,15.027,25.697,32.071,37.467,48.925c4.351,6.23,6.707,4.11,8.16-2.244
		c0.453-1.981,2.634-3.566,4.023-5.333c1.305,1.209,3.138,2.171,3.835,3.664c9.982,21.378,26.649,33.883,49.666,38.594
		c3.19,0.653,7.693,3.277,8.451,5.897c2.595,8.967,8.733,10.285,16.43,9.787c7.065-0.457,12.599,1.408,15.349,8.827
		c3.677,9.92,9.965,15.422,21.695,15.42c8.139-0.001,9.23,3.55,6.608,11.678c-0.984,3.052-2.158,6.046-3.057,9.121
		c-6.489,22.2-4.676,42.16,15.389,57.277c3.087,2.325,5.803,5.144,8.678,7.748c8.642,7.827,12.631,17.512,12.657,29.231
		c0.031,13.655-1.055,27.019-6.232,39.825c-2.947,7.291-6.077,15.99,0.932,21.325c6.741,5.132,14.87,0.631,21.634-3.427
		c2.748-1.648,5.06-4.01,7.646-5.946c9.812-7.347,19.354-15.109,29.57-21.847c10.528-6.943,18.674-15.401,24.291-26.847
		c6.045-12.32,14.277-22.955,27.598-28.684c13.633-5.862,19.447-18.478,24.561-31.038c3.443-8.455,1.813-17.093-6.333-22.345
		c-6.886-4.439-14.389-8.46-22.179-10.809c-7.823-2.359-12.822-5.94-17.249-13.198c-12.445-20.404-30.285-33.004-55.43-32.486
		c-4.514,0.093-9.549,1.017-13.461-0.59c-12.011-4.934-21.706-2.2-32.488,4.516c-13.16,8.197-21.322,2.923-22.406-12.796
		c-0.374-5.425-0.504-11.582-6.201-12.929c-11.93-2.82-17.913-7.178-10.137-19.831c0.724-1.178-2.44-6.836-4.184-7.035
		c-4.732-0.54-10.113-0.275-14.399,1.593c-3.895,1.698-6.465,6.211-10.026,8.958c-4.192,3.234-14.298,1-17.065-3.358
		c-7.401-11.656-4.608-32.061,5.71-38.974c10.363-6.943,22.241-5.432,33.827-5.119c6.936,0.187,9.398,5.595,12.828,10.362
		c3.898,5.419,6.959,14.32,15.612,11.407c7.558-2.545,7.897-10.999,8.656-18.118c0.068-0.638,0.056-1.301-0.026-1.938
		c-1.768-13.682,5.967-22.901,14.187-32.449c8.784-10.203,17.331-18.801,32.601-16.041c3.312,0.599,7.465-3.46,11.231-5.374
		c-1.88-2.992-3.096-6.973-5.777-8.77c-5.662-3.795-2.972-6.721,0.86-7.709c5.927-1.529,11.738-2.86,17.903,2.415
		c7.648,6.544,14.06,5.179,17.523-1.163c4.145-7.589,1.957-14.85-5.528-19.388c-21.44-12.999-42.813-26.108-64.212-39.174
		c-5.355-1.635-10.789-1.366-13.979,3.403c-2.295,3.431-2.957,8.08-3.818,12.294c-0.503,2.46,0.293,5.156,0.054,7.704
		c-0.476,5.092-5.726,8.399-9.379,5.109c-9.309-8.383-19.119-11.404-31.644-8.872c-4.049,0.818-10.086-2.543-10.146-9.391
		c-0.06-6.768,2.508-11.638,9.832-11.513c8.79,0.15,14.248-2.125,16.152-12.025c0.954-4.958,14.368-7.619,18.644-2.773
		c7.476,8.47,18.067,8.388,26.705,13.155c4.459,0.462,8.928,1.393,13.374,1.287c8.809-0.21,9.727-2.307,6.215-12.466
		c-0.409-1.184-0.901-2.339-1.355-3.508c0.011,0.011,0.021,0.022,0.032,0.032c0.138,0.139,0.275,0.278,0.413,0.417
		c0,0-0.004-0.004-0.004-0.005c0.001,0.002,0.003,0.003,0.004,0.005l-0.142-0.145c-0.132-0.135-0.308-0.315-0.308-0.315
		c21.269,8.955,43.962,14.551,59.806,34.09c11.696,14.423,29.819,12.387,41.989-2.181c-3.308-3.734-6.209-7.984-9.82-11.333
		c43.952,36.326,74.863,87.872,84.645,146.57C496.917,229.953,498.049,243.344,498.049,257z"/>
</g>
<g id="Layer_1">
</g>
</svg>
