<?xml version="1.0" encoding="iso-8859-1"?>
<!-- Generator: Adobe Illustrator 18.1.0, SVG Export Plug-In . SVG Version: 6.00 Build 0)  -->
<!DOCTYPE svg PUBLIC "-//W3C//DTD SVG 1.1//EN" "http://www.w3.org/Graphics/SVG/1.1/DTD/svg11.dtd">
<svg version="1.1" xmlns="http://www.w3.org/2000/svg" xmlns:xlink="http://www.w3.org/1999/xlink" x="0px" y="0px"
	 viewBox="0 0 512 512" enable-background="new 0 0 512 512" xml:space="preserve">
<g id="Layer_4">
	<path fill="#FFA9BA" d="M442.452,171.334c-38.897,0-70.43-31.532-70.43-70.43c0-16.986,6.015-32.566,16.028-44.73
		c39.127,25.712,70.192,62.682,88.583,106.308C466.509,168.114,454.859,171.334,442.452,171.334z M230.668,18.901
		c-48.575,5.563-92.687,25.793-127.801,56.158c-1.308,5.978-2.018,12.18-2.018,18.551c0,47.725,38.688,86.413,86.413,86.413
		s86.413-38.688,86.413-86.413C273.675,61.713,256.38,33.872,230.668,18.901z M328.378,180.023
		c-54.334,0-98.381,44.047-98.381,98.381c0,10.162,1.541,19.963,4.402,29.185c7.607,0.203,15.447,0.313,23.55,0.313
		c77.012,0,131.348-9.588,168.409-20.634c0.261-2.921,0.402-5.876,0.402-8.864C426.76,224.07,382.713,180.023,328.378,180.023z"/>
</g>
<g id="Layer_1">
</g>
</svg>
