<?xml version="1.0" encoding="iso-8859-1"?>
<!-- Generator: Adobe Illustrator 19.1.0, SVG Export Plug-In . SVG Version: 6.00 Build 0)  -->
<!DOCTYPE svg PUBLIC "-//W3C//DTD SVG 1.1//EN" "http://www.w3.org/Graphics/SVG/1.1/DTD/svg11.dtd">
<svg version="1.1" xmlns="http://www.w3.org/2000/svg" xmlns:xlink="http://www.w3.org/1999/xlink" x="0px" y="0px"
	 viewBox="0 0 512 512" enable-background="new 0 0 512 512" xml:space="preserve">
<g id="Layer_2">
	<path fill="#EFEFEF" d="M39.327,163.313c-4.383,5.305-4.625,12.557-4.48,19.261c0.553,25.522,4.572,52.36,21.183,72.609
		c20.953,25.542,58.157,35.262,92.516,33.451s67.135-13.328,99.948-23.034c23.583-6.976,47.471-13.071,71.642-17.98
		c26.012-5.283,53.956-9.934,73.264-27.077c26.585-23.604,25.755-68.746-1.681-91.478c-13.827-11.456-31.994-16.971-49.612-22.155
		c-15.031-4.423-30.236-8.847-45.951-9.925c-18.508-1.27-36.976,2.147-55.175,5.547c-65.254,12.189-131.492,24.694-190.61,53.273
		C46.294,157.775,42.134,159.916,39.327,163.313z"/>
</g>
<g id="Layer_1">
</g>
</svg>
