<svg xmlns="http://www.w3.org/2000/svg" viewBox="0 0 512 512" enable-background="new 0 0 512 512"><path fill="#FFE564" d="M431.232 130.963c-15.328-32.577-54.163-46.56-86.742-31.232l-30.193 14.21 5.923-32.84c1.302-7.374 1.406-15.345 0-23.143-6.39-35.432-40.293-58.975-75.727-52.585-35.432 6.39-58.975 40.293-52.585 75.727l6.007 33.3-30.684-14.27c-6.8-3.13-14.48-5.257-22.38-5.878-35.894-2.82-67.277 23.992-70.094 59.886-2.82 35.893 23.992 67.276 59.886 70.095l24.876 1.954-21.112 21.743c-4.924 5.114-9.288 11.307-12.425 18.118-15.037 32.655-.754 71.313 31.898 86.348 32.654 15.036 71.312.753 86.347-31.9l10.73-23.304 10.247 23.52c2.863 6.496 6.936 12.885 12.048 18.373 24.503 26.3 65.69 27.762 91.993 3.26 26.303-24.504 27.764-65.692 3.26-91.994l-22.69-24.357 27.836-2.314c7.457-.648 15.184-2.604 22.354-5.98 32.578-15.327 46.56-54.16 31.233-86.74z"/></svg>