<?xml version="1.0" encoding="iso-8859-1"?>
<!-- Generator: Adobe Illustrator 18.1.0, SVG Export Plug-In . SVG Version: 6.00 Build 0)  -->
<!DOCTYPE svg PUBLIC "-//W3C//DTD SVG 1.1//EN" "http://www.w3.org/Graphics/SVG/1.1/DTD/svg11.dtd">
<svg version="1.1" xmlns="http://www.w3.org/2000/svg" xmlns:xlink="http://www.w3.org/1999/xlink" x="0px" y="0px"
	 viewBox="0 0 512 512" enable-background="new 0 0 512 512" xml:space="preserve">
<g id="Layer_3">
	<path fill="#13A031" d="M14.155,247.11c2.103-52.273,20.789-100.271,50.932-138.894c7.875-10.09,16.519-19.55,25.867-28.268
		c8.518-7.944,17.61-15.281,27.207-21.941c15.386-10.678,32.077-19.601,49.774-26.517c9.308-3.637,18.888-6.728,28.715-9.205
		c10.943-2.758,22.182-4.769,33.659-5.98c1.483-0.156,2.969-0.303,4.459-0.433c6.996-0.608,14.077-0.921,21.231-0.921
		c8.243,0,16.389,0.417,24.421,1.222c5.387,0.54,10.719,1.263,15.996,2.151c11.503,1.935,22.734,4.67,33.625,8.165
		c23.741,7.62,45.882,18.809,65.798,32.93c2.82,2,5.594,4.061,8.323,6.177c1.417,1.085,2.831,2.177,4.237,3.286
		c0.586,0.462,1.15,0.953,1.699,1.463c5.682,4.696,11.14,9.652,16.368,14.839c-4.011,4.41-9.514,5.057-18.374,2.71
		c-7.599-2.012-14.631-6.081-22.158-8.465c-22.014-6.972-36.926-0.365-46.89,20.302c-0.287,0.596-0.659,1.172-0.826,1.801
		c-3.88,14.599-21.478,15.486-27.615,27.108c-5.823,11.028-10.008,21.905-20.978,30.202c-10.618,8.031-18.926,19.898-26.114,31.412
		c-5.055,8.097-3.073,17.984,3.361,25.893c1.647,2.024,3.995,3.46,5.848,5.336c16.586,16.786,16.962,31.736-0.016,47.707
		c-8.158,7.674-14.381,14.304-17.058,26.753c-2.922,13.585-15.997,16.079-29.821,14.882c-2.413-0.209-4.618-1.502-5.873-3.573
		c-5.594-9.235-12.608-17.022-26.071-17.274c-4.607-0.086-8.846-7.331-13.676-10.69c-9.655-6.713-18.92-14.614-29.573-19.135
		c-22.151-9.402-42.698,0.371-50.031,23.779c-4.093,13.065-5.305,27.072-7.35,40.724c-1.251,8.354,0.405,18.681-9.658,21.902
		c-10.822,3.463-16.598-5.548-22.4-12.78c-11.151-13.9-15.812-30.254-17.701-47.599c-0.357-3.277-0.139-6.613-0.392-9.906
		C41.304,252.854,35.818,246.937,14.155,247.11z M341.196,348.187c-11.016,6.202-21.02,7.362-31.081-0.798
		c-9.335-7.571-18.422-5.882-27.19,0.542c-9.041,6.624-17.767,13.683-26.545,20.659c-1.522,1.21-2.772,2.849-3.887,4.469
		c-10.113,14.685-2.818,32.851,14.975,33.325c18.821,0.501,36.346,3.037,53.307,11.635c6.787,3.44,15.31,3.454,19.192,4.243
		c26.194,0.65,39.793-10.659,39.512-32.801c-0.144-11.332-3.902-23.469-9.098-33.678
		C363.278,341.827,355.319,340.235,341.196,348.187z M301.895,221.494c1.91-0.81,3.851-1.505,5.844-1.976
		c8.038-1.901,11.297-5.977,14.024-13.948c4.125-12.062,10.179-23.887,17.531-34.321c8.791-12.476,10.33-17.143,1.151-25.104
		c-3.842-3.333-9.346-4.044-13.883-1.745c-7.223,3.661-13.043,8.213-7.934,20.445c1.161,2.78-1.102,7.553-2.833,10.855
		c-2.446,4.664-5.422,9.05-8.851,14.311c-1.602,2.459-4.027,4.263-6.822,5.161c-9.908,3.183-15.045,7.477-15.724,13.758
		C283.384,218.311,293.209,225.178,301.895,221.494z M268.28,316.105c14.82,2.168,29.641,4.498,44.55,5.734
		c2.388,0.198,6.665-4.305,7.507-7.344c1.711-6.176-2.485-10.673-8.296-10.982c-12.456-0.664-25.022-0.722-37.437,0.279
		c-2.369,0.191-4.558,2.606-6.71,4.96c-1.692,1.85-1.948,4.67-0.458,6.686C267.722,315.825,267.987,316.062,268.28,316.105z
		 M111.359,334.961c-4.232,2.101-9.252,5.188-10.894,9.161c-1.079,2.61,0.084,6.147,1.25,10.44c0.639,2.351,3.3,3.506,5.445,2.351
		c3.714-2,6.388-3.254,7.835-5.354c2.292-3.327,3.495-8.022,3.399-12.081C118.355,337.794,112.753,334.269,111.359,334.961z
		 M330.38,298.662c-2.982,1.548-3.572,5.575-1.199,7.953c5.207,5.219,11.002,5.375,17.249,3.686
		c2.718-0.735,4.361-3.553,3.528-6.243C346.902,294.192,341.81,292.73,330.38,298.662z"/>
</g>
<g id="Layer_1">
</g>
</svg>
