<?xml version="1.0" encoding="iso-8859-1"?>
<!-- Generator: Adobe Illustrator 19.1.0, SVG Export Plug-In . SVG Version: 6.00 Build 0)  -->
<!DOCTYPE svg PUBLIC "-//W3C//DTD SVG 1.1//EN" "http://www.w3.org/Graphics/SVG/1.1/DTD/svg11.dtd">
<svg version="1.1" xmlns="http://www.w3.org/2000/svg" xmlns:xlink="http://www.w3.org/1999/xlink" x="0px" y="0px"
	 viewBox="0 0 512 512" enable-background="new 0 0 512 512" xml:space="preserve">
<g id="Layer_2">
	<path fill="#E5AA6E" d="M279.826,505.129h33.388c14.752,0,26.958-11.475,27.873-26.199c4.53-72.864,0.587-147.925-25.031-216.206
		c-12.139-32.355-29.087-63.002-53.373-87.862c-17.844-18.266-21.631-25.79-39.611-12.721c-29.181,21.212-9.329,24.14,0.645,43.465
		c15.076,29.209,27.917,48.676,34.833,82.474c12.244,59.839,6.195,123.406-6.098,183.653
		C248.928,488.998,262.207,505.129,279.826,505.129z"/>
</g>
<g id="Layer_3">
	<path fill="#1B871B" d="M477.584,109.253c0,0-0.167-0.264-0.491-0.776c-0.328-0.508-0.793-1.283-1.448-2.244
		c-0.647-0.969-1.445-2.163-2.384-3.568c-0.425-0.696-1.103-1.474-1.742-2.28c-0.677-0.802-1.396-1.654-2.156-2.554
		c-0.776-0.908-1.594-1.865-2.451-2.868c-0.881-0.923-1.803-1.888-2.764-2.894c-1.918-2.043-4.087-4.174-6.554-6.26
		c-1.215-1.076-2.495-2.162-3.823-3.279c-1.338-1.098-2.781-2.116-4.241-3.226c-1.47-1.087-2.977-2.239-4.586-3.285
		c-1.626-1.034-3.289-2.093-4.988-3.174c-0.857-0.536-1.716-1.104-2.611-1.612c-0.905-0.488-1.819-0.98-2.742-1.477
		c-1.863-0.992-3.76-2.003-5.691-3.031c-1.97-0.935-4.005-1.823-6.075-2.745c-1.038-0.449-2.076-0.944-3.145-1.364
		c-1.074-0.408-2.156-0.819-3.245-1.232c-8.718-3.388-18.32-5.962-28.484-7.672c-1.274-0.206-2.553-0.412-3.838-0.619
		c-1.287-0.207-2.58-0.434-3.888-0.518c-2.62-0.232-5.26-0.465-7.915-0.7c-5.329-0.245-10.767-0.504-16.246-0.131
		c-2.743,0.118-5.505,0.206-8.262,0.547c-1.382,0.145-2.766,0.289-4.152,0.434l-2.078,0.251l-0.52,0.063l-0.26,0.032l-0.13,0.016
		c0.608-0.128-0.976,0.192-0.852,0.167l-0.889,0.156c-2.372,0.415-4.75,0.831-7.129,1.247l-0.902,0.161l-1.103,0.262l-2.207,0.53
		l-4.419,1.089c-3.038,0.743-5.627,1.663-8.334,2.546c-1.35,0.435-2.681,0.919-4.018,1.385c-1.332,0.48-2.626,1.068-3.938,1.6
		c-1.31,0.538-2.61,1.1-3.9,1.677l-1.937,0.857c-0.642,0.294-1.264,0.635-1.896,0.951c-2.526,1.269-4.992,2.637-7.456,3.972
		c-9.693,5.706-18.441,12.704-25.898,20.44c-0.912,0.988-1.819,1.972-2.723,2.952c-0.894,0.986-1.804,1.934-2.617,2.992
		c-1.647,2.06-3.279,4.1-4.893,6.118c-1.6,2.309-3.167,4.574-4.65,6.851c-0.755-1.987-1.681-4.022-2.658-6.177
		c-0.522-1.198-1.144-2.374-1.797-3.573c-0.638-1.209-1.327-2.427-2.029-3.677c-1.432-2.478-3.111-4.943-4.847-7.511
		c-1.874-2.449-3.753-5.062-5.956-7.508c-1.1-1.224-2.204-2.479-3.358-3.716c-1.176-1.214-2.399-2.411-3.653-3.605
		c-2.46-2.442-5.231-4.647-8.007-6.931c-5.71-4.371-11.994-8.377-18.718-11.74c-6.759-3.296-13.839-6.119-21.081-8.288
		c-7.273-2.089-14.66-3.589-21.964-4.413c-7.318-0.774-14.526-0.889-21.407-0.471c-1.724,0.141-3.427,0.324-5.104,0.49
		c-0.839,0.094-1.669,0.151-2.497,0.279c-0.825,0.13-1.646,0.26-2.462,0.389c-1.628,0.267-3.229,0.501-4.801,0.827
		c-1.572,0.349-3.115,0.678-4.626,1.045c-3.026,0.671-5.912,1.654-8.673,2.468c-2.743,0.998-5.364,1.92-7.817,2.976
		c-1.226,0.534-2.411,1.097-3.563,1.626c-1.153,0.53-2.27,1.047-3.336,1.627c-1.072,0.549-2.099,1.132-3.092,1.682
		c-0.992,0.556-1.955,1.071-2.858,1.655c-1.82,1.119-3.472,2.249-4.992,3.244c-1.498,1.065-2.824,2.129-4.023,3.038
		c-1.204,0.899-2.228,1.792-3.103,2.585c-0.88,0.78-1.605,1.478-2.196,2.023c-1.155,1.13-1.771,1.732-1.771,1.732
		c-1.171,1.149-1.942,2.734-2.034,4.502c-0.195,3.745,2.683,6.938,6.428,7.133l0.588,0.031c0,0,0.795,0.041,2.286,0.119
		c0.727,0.023,1.624,0.052,2.678,0.086c0.517,0.012,1.074,0.024,1.667,0.038c0.6,0.043,1.234,0.087,1.893,0.114
		c1.319,0.058,2.775,0.163,4.315,0.212c1.561,0.118,3.242,0.299,4.982,0.405c3.514,0.335,7.378,0.764,11.465,1.417
		c1.013,0.106,2.06,0.367,3.104,0.539c1.037,0.184,2.093,0.372,3.167,0.563c1.059,0.231,2.136,0.466,3.23,0.705
		c1.083,0.224,2.172,0.439,3.271,0.752c1.098,0.294,2.2,0.549,3.306,0.823c1.097,0.315,2.206,0.634,3.329,0.957
		c2.227,0.584,4.452,1.419,6.685,2.099c4.448,1.606,8.883,3.331,13.209,5.313c1.106,0.527,2.205,1.063,3.298,1.607
		c-0.686,0.032-1.374,0.059-2.055,0.114c-2.048,0.144-4.13,0.184-6.153,0.424l-6.09,0.679c-8.046,1.124-15.971,2.586-23.495,4.707
		c-0.945,0.253-1.893,0.488-2.826,0.754c-0.927,0.284-1.853,0.568-2.776,0.851c-1.84,0.579-3.678,1.122-5.481,1.723
		c-3.573,1.296-7.126,2.474-10.505,3.915c-1.702,0.682-3.381,1.377-5.032,2.088c-1.637,0.747-3.262,1.461-4.85,2.22
		c-3.2,1.445-6.232,3.078-9.19,4.61c-2.937,1.588-5.743,3.218-8.434,4.814c-1.337,0.82-2.639,1.645-3.91,2.464
		c-1.27,0.822-2.526,1.589-3.717,2.434c-2.394,1.657-4.67,3.244-6.787,4.838c-2.108,1.615-4.087,3.155-5.914,4.647
		c-1.81,1.534-3.484,2.98-5.012,4.337c-1.523,1.383-2.906,2.737-4.145,3.907c-2.496,2.397-4.186,4.368-5.407,5.737
		c-1.194,1.379-1.815,2.146-1.815,2.146c-0.514,0.638-0.805,1.469-0.749,2.351c0.119,1.872,1.733,3.293,3.605,3.174
		c0,0,0.985-0.062,2.8-0.239c0.901-0.102,2.011-0.228,3.317-0.377c1.299-0.199,2.766-0.321,4.38-0.501
		c3.183-0.413,7.109-0.809,11.506-1.419c4.352-0.557,9.262-1.185,14.618-1.87c2.647-0.337,5.404-0.639,8.208-1.038
		c2.807-0.335,5.708-0.681,8.691-1.037c1.479-0.169,2.978-0.34,4.495-0.514c1.505-0.203,3.033-0.363,4.576-0.514
		c1.545-0.146,3.086-0.349,4.646-0.526c1.567-0.137,3.14-0.283,4.716-0.458c1.576-0.18,3.169-0.32,4.763-0.454
		c1.589-0.145,3.19-0.292,4.801-0.439c1.6-0.124,3.209-0.249,4.827-0.375c1.615-0.124,3.227-0.27,4.842-0.35
		c1.614-0.106,3.235-0.179,4.847-0.316c1.607-0.07,3.218-0.141,4.833-0.211l2.411-0.123l2.398-0.057
		c1.595-0.024,3.2-0.106,4.779-0.124c6.342-0.08,12.521,0.056,18.467,0.372c2.92,0.279,5.866,0.376,8.627,0.791
		c2.839,0.233,5.476,0.684,8.166,0.9c1.296,0.191,2.573,0.38,3.864,0.516c0.634,0.088,1.307,0.109,1.912,0.222
		c0.612,0.107,1.228,0.195,1.844,0.282c0.614,0.092,1.233,0.161,1.85,0.236c0.308,0.04,0.618,0.07,0.929,0.097l0.885,0.148
		c1.171,0.213,2.351,0.39,3.545,0.526c0.613,0.049,1.145,0.208,1.716,0.298c0.571,0.098,1.137,0.194,1.7,0.291
		c0.565,0.099,1.134,0.19,1.713,0.259c0.588,0.061,1.09,0.224,1.64,0.329c1.08,0.232,2.19,0.411,3.286,0.615
		c1.094,0.192,2.088,0.505,3.16,0.716c4.256,0.883,8.189,2.089,11.993,3.283c1.01,0.24,1.822,0.662,2.738,0.968
		c0.887,0.333,1.767,0.659,2.646,0.966c0.443,0.157,0.876,0.311,1.3,0.461c0.405,0.179,0.801,0.353,1.189,0.524
		c0.812,0.342,1.587,0.668,2.322,0.977c3.067,1.213,5.441,2.47,7.24,3.26c0.892,0.402,1.599,0.717,2.104,0.917
		c0.108,0.046,0.2,0.084,0.285,0.12c0.039,5.137,0.588,9.666,1.396,13.436c0.251,1.177,0.484,2.281,0.742,3.313
		c0.279,1.033,0.571,1.992,0.847,2.879c0.528,1.773,1.106,3.252,1.593,4.436c0.453,1.187,0.922,2.074,1.195,2.673
		c0.3,0.594,0.455,0.9,0.455,0.9c0.273,0.535,0.65,1.05,1.116,1.482c2.122,1.966,5.436,1.839,7.402-0.283l2.06-2.224
		c0,0,0.073-0.078,0.216-0.233c0.137-0.154,0.372-0.385,0.618-0.681c0.49-0.592,1.314-1.468,2.226-2.554
		c1.671-1.986,4.123-4.899,7.242-8.606c2.55-3.06,5.646-6.776,9.197-11.038c0.389-0.486,0.802-0.97,1.224-1.454
		c0.203-0.237,0.391-0.505,0.586-0.723l0.574-0.586l0.269-0.296c0.096-0.118,0.162-0.149,0.29-0.359
		c0.229-0.348,0.46-0.698,0.693-1.051l0.335-0.535l0.168-0.269c-0.157,0.578-0.021,0.134-0.045,0.251l0.04-0.046l0.08-0.091
		c0.211-0.244,0.434-0.484,0.636-0.731c0.816-0.986,1.618-1.984,2.414-2.988l0.602-0.753l0.701-0.728
		c0.462-0.481,0.928-0.968,1.4-1.46c1.742-1.987,3.99-3.819,6.072-5.677c1.131-0.896,2.353-1.751,3.505-2.625
		c0.603-0.425,1.117-0.889,1.781-1.282c0.642-0.404,1.295-0.796,1.914-1.209c4.957-3.302,10.574-6.051,16.23-8.679
		c5.664-2.623,11.339-5.19,17.079-7.919c5.755-2.627,11.601-5.295,17.447-7.963c0.59-0.281,1.181-0.573,1.774-0.877l0.89-0.464
		l0.446-0.238l0.847-0.274c2.313-0.716,4.604-1.523,6.9-2.284l0.86-0.289c0.326-0.072-2.424,0.489-1.225,0.241l0.077-0.023
		l0.154-0.047l0.308-0.094l1.235-0.38l2.467-0.833c0.829-0.26,1.639-0.622,2.488-0.81c0.843-0.215,1.685-0.45,2.528-0.704
		c1.686-0.498,3.376-1.043,5.101-1.385c1.717-0.405,3.438-0.904,5.173-1.267c1.737-0.328,3.481-0.706,5.231-1.072
		c1.75-0.362,3.504-0.586,5.264-0.898c0.885-0.151,1.767-0.302,2.644-0.452c0.883-0.107,1.762-0.213,2.636-0.319
		c0.885-0.111,1.766-0.222,2.642-0.333c0.884-0.131,1.772-0.271,2.642-0.316c1.748-0.131,3.5-0.283,5.261-0.474
		c0.886-0.116,1.742-0.114,2.608-0.154c0.863-0.028,1.738-0.106,2.606-0.157c3.524-0.36,6.832-0.099,10.262-0.281
		c1.686,0.039,3.344,0.077,4.971,0.114c0.83,0.021,1.651,0.041,2.465,0.062c0.802,0.057,1.598,0.112,2.401,0.15
		c1.622,0.092,3.21,0.182,4.762,0.271c1.569,0.099,3.027,0.362,4.557,0.462c1.5,0.152,3.02,0.249,4.446,0.452
		c1.409,0.229,2.799,0.45,4.194,0.62c1.37,0.205,2.781,0.324,4.036,0.603c1.265,0.268,2.524,0.495,3.757,0.708
		c1.238,0.227,2.426,0.445,3.561,0.653c1.04,0.248,2.096,0.432,3.093,0.644c1.016,0.214,1.978,0.417,2.883,0.609
		c0.934,0.217,1.805,0.29,2.684,0.62c1.719,0.558,3.217,0.992,4.436,1.341c1.205,0.364,2.176,0.591,2.812,0.764
		c0.641,0.167,0.972,0.254,0.972,0.254l1.272,0.332c1.397,0.359,2.933,0.163,4.248-0.669
		C478.432,115.131,479.185,111.783,477.584,109.253z"/>
</g>
<g id="Layer_4">
	<path fill="#2BA52E" d="M434.753,205.002c-0.098-4.231-0.623-9.342-1.869-15.013c-1.236-5.673-3.168-11.914-5.931-18.429
		c-2.785-6.49-6.375-13.276-10.921-20.032c-2.272-3.379-4.798-6.737-7.544-10.083c-2.797-3.3-5.778-6.624-9.095-9.807
		c-6.616-6.377-14.315-12.487-23.537-17.642c-1.161-0.647-2.337-1.275-3.524-1.891c-1.229-0.589-2.46-1.18-3.693-1.771
		c-1.235-0.588-2.556-1.119-3.841-1.672l-0.975-0.401l-0.245-0.099c0.342,0.109-0.607-0.206-0.537-0.185l-0.085-0.035l-0.342-0.14
		l-0.684-0.281c-0.245-0.098-0.38-0.166-0.867-0.332l-2.46-0.844l-2.088-0.675c-1.381-0.438-2.779-0.813-4.154-1.161
		c-2.765-0.696-5.504-1.327-8.243-1.746c-10.934-1.826-21.75-1.82-32.32-0.235c-5.16,0.771-10.263,1.948-15.24,3.514
		c2.364-3.095,4.855-6.217,7.463-9.336c3.918-4.714,8.086-9.411,12.361-14.047c4.282-4.626,8.66-9.212,13.087-13.601
		c4.411-4.411,8.824-8.707,13.169-12.766c4.344-4.058,8.605-7.904,12.668-11.497c4.063-3.591,7.939-6.904,11.492-9.876
		c3.554-2.966,6.775-5.627,9.513-7.806c0.688-0.525,1.335-1.074,1.951-1.583c0.606-0.489,1.173-0.948,1.701-1.375
		c0.535-0.417,1.028-0.849,1.488-1.23c0.459-0.385,0.941-0.72,1.338-1.027c1.619-1.254,2.473-1.982,2.473-1.982
		c0.582-0.5,1.08-1.154,1.399-1.909c1.102-2.61-0.121-5.619-2.731-6.72c0,0-1.034-0.436-2.955-1.143
		c-1.837-0.704-5.039-1.556-8.779-2.369c-1.904-0.397-4.019-0.786-6.344-1.135c-2.309-0.307-4.835-0.604-7.523-0.769
		c-5.387-0.363-11.493-0.364-18.111,0.21c-6.617,0.569-13.732,1.735-21.121,3.584c-7.386,1.852-15.023,4.421-22.697,7.707
		c-3.804,1.693-7.672,3.48-11.456,5.541c-3.834,1.988-7.58,4.25-11.315,6.63c-3.728,2.392-7.373,5.003-10.965,7.748
		c-3.568,2.781-7.07,5.705-10.445,8.826c-6.739,6.243-13.059,13.13-18.644,20.645c-2.821,3.728-5.434,7.633-7.761,11.71
		c-2.347,4.053-4.414,8.277-6.178,12.605c-3.552,8.628-5.846,17.732-6.731,26.676c-0.475,4.456-0.498,8.922-0.297,13.192
		c0.065,1.009,0.148,2.006,0.242,2.995c-1.547-0.781-3.127-1.563-4.769-2.351c-0.546-0.26-1.096-0.521-1.649-0.784
		c-0.559-0.227-1.121-0.455-1.686-0.685c-1.142-0.455-2.298-0.914-3.465-1.379c-4.708-1.981-9.718-3.393-15.056-4.988
		c-2.655-0.693-5.374-1.271-8.181-1.894c-1.397-0.283-2.836-0.653-4.253-0.855c-1.422-0.217-2.864-0.452-4.323-0.639
		c-5.873-0.898-11.866-1.198-18.139-1.452c-3.071,0.064-6.206,0.148-9.392,0.283c-1.602,0.062-3.151,0.265-4.732,0.438
		c-1.576,0.185-3.174,0.351-4.768,0.578c-12.702,1.848-25.483,5.786-37.302,11.862c-1.462,0.774-2.899,1.599-4.337,2.43
		c-1.444,0.821-2.874,1.674-4.296,2.543c-0.708,0.438-1.435,0.853-2.126,1.314l-2.042,1.43c-1.364,0.951-2.718,1.92-4.055,2.915
		c-1.333,0.997-2.705,1.953-3.976,3.026c-1.266,1.078-2.549,2.135-3.78,3.257l-3.707,3.337l-0.922,0.837
		c-0.304,0.275-0.663,0.643-0.991,0.96l-2.003,1.984l-3.886,4.072l-1.914,2.048l-0.95,1.026l-0.581,0.73
		c-1.517,1.891-2.954,3.858-4.426,5.784l-0.549,0.725c0.218-0.225-2.125,2.257-1.177,1.266l-0.089,0.123l-0.179,0.247l-0.357,0.494
		l-1.42,1.975c-0.92,1.331-1.839,2.66-2.756,3.987c-1.858,2.632-3.531,5.351-5.115,8.108c-3.321,5.408-6.002,11.084-8.582,16.636
		c-1.185,2.836-2.299,5.67-3.403,8.46c-0.581,1.379-1.027,2.818-1.483,4.24c-0.451,1.417-0.901,2.829-1.348,4.235
		c-3.418,11.277-5.508,22.386-6.152,32.985c-0.091,1.314-0.181,2.619-0.271,3.915c-0.083,1.292-0.044,2.609-0.062,3.89
		c-0.003,2.572-0.016,5.078,0.056,7.536c0.158,2.485,0.32,4.907,0.552,7.271c0.112,1.175,0.224,2.339,0.334,3.492
		c0.131,1.153,0.346,2.306,0.534,3.434c0.395,2.235,0.782,4.423,1.161,6.561c0.405,2.118,0.929,4.193,1.477,6.185
		c0.558,1.996,1.041,3.908,1.639,5.761c0.615,1.857,1.226,3.639,1.894,5.346c1.246,3.406,2.604,6.533,4.05,9.345
		c0.7,1.391,1.372,2.726,2.014,4.001c0.706,1.333,1.471,2.57,2.158,3.727c0.696,1.136,1.354,2.212,1.974,3.223
		c0.308,0.497,0.637,0.969,0.937,1.425c0.154,0.222,0.299,0.461,0.453,0.656c0.156,0.187,0.309,0.371,0.46,0.551
		c1.186,1.446,2.257,2.664,3.132,3.65c0.851,0.991,1.586,1.735,2.049,2.242c0.472,0.506,0.716,0.767,0.716,0.767l1.212,1.298
		c1.005,1.075,2.38,1.816,3.955,2.007c3.559,0.433,6.795-2.102,7.228-5.661c0,0,0.038-0.315,0.112-0.924
		c0.067-0.608,0.203-1.518,0.298-2.688c0.108-1.173,0.242-2.62,0.399-4.321c0.039-0.89,0.276-1.651,0.417-2.542
		c0.148-0.86,0.306-1.774,0.473-2.739c0.161-0.955,0.352-1.952,0.501-2.979c0.228-1.082,0.466-2.214,0.714-3.395
		c0.255-1.174,0.509-2.385,0.741-3.631c0.212-1.244,0.636-2.539,0.958-3.857c0.359-1.32,0.688-2.671,1.019-4.052
		c0.359-1.381,0.853-2.793,1.286-4.228c0.483-1.434,0.825-2.901,1.35-4.384c0.529-1.471,1.07-2.975,1.623-4.512
		c0.27-0.76,0.542-1.528,0.818-2.303c0.312-0.766,0.627-1.54,0.944-2.321c0.628-1.545,1.267-3.119,1.917-4.719
		c0.769-1.566,1.467-3.165,2.195-4.773c0.372-0.802,0.701-1.618,1.109-2.418c0.417-0.794,0.838-1.595,1.261-2.4
		c3.165-6.487,7.126-12.947,11.414-19.294c1.12-1.564,2.177-3.169,3.339-4.717c1.161-1.537,2.33-3.086,3.506-4.643
		c1.205-1.526,2.526-2.976,3.773-4.475c1.193-1.541,2.546-2.956,3.867-4.396c1.319-1.441,2.602-2.915,4.054-4.23l2.102-2.039
		l1.02-1.045l0.255-0.262l0.127-0.131l0.064-0.065c0.564-0.594-0.699,0.738-0.536,0.571l0.665-0.612
		c1.773-1.631,3.549-3.266,5.328-4.902l0.66-0.603l0.514-0.379l1.021-0.762l2.013-1.538c1.175-1.052,2.851-2.199,4.381-3.325
		c0.78-0.556,1.521-1.159,2.276-1.745c0.757-0.581,1.573-1.071,2.352-1.615c1.609-1.005,3.039-2.29,4.668-3.23
		c1.612-0.969,3.138-2.071,4.7-3.109c0.879-0.549,1.76-1.078,2.64-1.615c-0.356,0.402-0.723,0.794-1.073,1.201
		c-6.963,8.108-12.721,17.264-16.989,27.496c-1.102,2.542-2.024,5.197-2.905,7.909c-0.436,1.349-0.862,2.733-1.226,4.135
		l-0.539,2.128l-0.593,2.532c-0.119,0.501-0.133,0.651-0.18,0.911l-0.126,0.728l-0.063,0.364l-0.016,0.091
		c0.019-0.07-0.218,0.901-0.129,0.553l-0.046,0.26l-0.179,1.039c-0.215,1.383-0.468,2.783-0.627,4.142
		c-0.155,1.359-0.31,2.715-0.464,4.07c-0.109,1.332-0.203,2.663-0.273,3.99c-0.539,10.551,0.541,20.321,2.424,29.315
		c0.931,4.502,2.161,8.794,3.468,12.918c1.374,4.106,2.874,8.03,4.527,11.751c3.304,7.442,7.142,14.092,11.156,19.902
		c4.047,5.805,8.305,10.759,12.452,14.823c4.14,4.071,8.189,7.233,11.72,9.567c1.717,1.199,3.426,2.119,4.844,2.927
		c1.47,0.839,2.902,1.515,3.929,2.015c1.924,0.676,2.991,0.995,2.991,0.995c1.593,0.478,3.341,0.491,5.042-0.067
		c4.426-1.451,6.837-6.216,5.386-10.642l-0.002-0.006c0,0-0.347-1.059-1.074-2.965c-0.228-0.859-0.384-1.825-0.689-2.998
		c-0.321-1.235-0.631-2.65-0.991-4.213c-1.362-6.28-2.76-15.146-3.514-25.52c-0.354-5.197-0.589-10.747-0.57-16.476
		c0.004-1.431,0.006-2.869,0.065-4.321c-0.003-1.442,0.086-2.898,0.139-4.353c0.141-2.905,0.345-5.825,0.625-8.699
		c0.059-0.722,0.174-1.432,0.252-2.147c0.064-0.716,0.144-1.425,0.251-2.126c0.162-1.417,0.435-2.798,0.624-4.174
		c0.249-1.353,0.475-2.716,0.787-4.006c0.24-1.321,0.576-2.566,0.891-3.799c0.185-0.599,0.347-1.2,0.494-1.801l0.535-1.706
		c0.169-0.571,0.396-1.072,0.579-1.611l0.134-0.399l0.032-0.1c0.102-0.408-0.123,0.503-0.087,0.374l0.03-0.087l0.119-0.35l0.239-0.7
		c0.076-0.216,0.176-0.544,0.198-0.515c0.077-0.102,0.148-0.204,0.213-0.307l0.339-0.693c0.25-0.469,0.439-0.96,0.697-1.457
		c0.466-0.995,1.037-1.999,1.568-3.052c2.231-4.166,4.925-8.504,7.746-12.474c2.829-3.991,5.805-7.594,8.699-10.747
		c2.913-3.144,5.735-5.836,8.652-8.18c2.917-2.327,6.008-4.362,9.505-5.968c3.478-1.599,7.346-2.771,11.213-3.49
		c3.865-0.758,7.683-1.043,11.018-1.232c1.685-0.123,3.186-0.078,4.581-0.149c1.367-0.007,2.563-0.005,3.564-0.026
		c1.967,0.03,3.113-0.019,3.113-0.019l0.778-0.031c1.07-0.049,2.149-0.296,3.185-0.761c3.155-1.415,5.054-4.466,5.167-7.703
		c0.819-0.579,1.557-1.301,2.16-2.175l0.424-0.616c0,0,0.651-0.944,1.672-2.626c0.55-0.836,1.185-1.851,1.917-3.004
		c0.801-1.144,1.561-2.439,2.562-3.8c1.933-2.724,4.205-5.806,6.903-8.676c2.665-2.893,5.715-5.545,8.918-7.64
		c3.219-2.108,6.587-3.643,10.109-4.876c3.536-1.224,7.317-2.182,11.529-2.977c4.209-0.774,8.844-1.378,13.728-1.652
		c4.861-0.278,9.968-0.252,14.683,0.074c1.174,0.11,2.327,0.161,3.418,0.295c0.558,0.046,1.073,0.147,1.604,0.185l0.767,0.081
		c0.122,0,0.246-0.006,0.373-0.017c-0.014-0.034,0.318,0.056,0.541,0.106l0.719,0.17l0.359,0.085l0.09,0.021
		c0.129,0.039-0.763-0.255-0.363-0.125l0.102,0.026l0.409,0.099c0.553,0.132,1.099,0.207,1.672,0.367l1.729,0.454
		c0.587,0.196,1.181,0.378,1.788,0.54c1.212,0.389,2.445,0.767,3.691,1.266c1.258,0.422,2.533,0.955,3.811,1.464
		c1.266,0.572,2.581,1.075,3.867,1.692c0.65,0.283,1.294,0.592,1.934,0.919c0.648,0.314,1.31,0.595,1.953,0.929
		c2.583,1.292,5.164,2.671,7.699,4.097c1.26,0.729,2.541,1.429,3.761,2.198c1.261,0.722,2.48,1.485,3.694,2.243
		c4.862,3.03,9.437,6.18,13.65,9.244c8.385,6.156,15.15,12.054,19.743,16.548c1.132,1.136,2.166,2.151,3.041,3.08
		c0.831,0.882,1.566,1.528,2.172,2.178c1.228,1.63,1.94,2.487,1.94,2.487l0.002,0.003c1.062,1.281,2.512,2.261,4.237,2.739
		c4.489,1.244,9.136-1.386,10.38-5.874c0,0,0.297-1.073,0.748-3.063c0.123-1.136,0.312-2.708,0.383-4.399
		C434.725,209.03,434.855,207.094,434.753,205.002z"/>
</g>
<g id="Layer_5">
	<path fill="#AF773F" d="M318.175,268.546l-60.315,16.305c-3.527-15.905-8.413-28.641-14.237-40.93l55.098-19.448
		c6.677,12.292,12.41,25.127,17.335,38.253C316.781,264.659,317.484,266.601,318.175,268.546z M265.113,368.513l73.876-7.585
		c-1.791-15.502-4.286-30.885-7.624-46.061l-67.403,11.547C265.116,340.358,265.457,354.419,265.113,368.513z M256.643,449.572
		h85.769c0.36-13.039,0.402-26.109,0.039-39.161h-80.217C260.796,423.531,258.896,436.607,256.643,449.572z"/>
</g>
</svg>
