<svg xmlns="http://www.w3.org/2000/svg" viewBox="0 0 512 512" enable-background="new 0 0 512 512"><path fill="#0096D1" d="M425.393 86.607C380.146 41.36 319.988 16.442 256 16.442S131.854 41.362 86.607 86.607C41.36 131.854 16.442 192.012 16.442 256S41.36 380.146 86.607 425.393C131.854 470.64 192.012 495.558 256 495.558s124.146-24.918 169.393-70.165C470.64 380.146 495.558 319.988 495.558 256S470.64 131.854 425.393 86.607zM386.027 242.5c-1.14-38.785-7.187-75.873-17.566-108.605 16.924-4.79 32.655-10.738 47.35-17.882 30.04 34.253 49.266 78.207 52.308 126.487h-82.09zM242.5 466.638c-20.99-5.95-40.87-25.655-57.048-56.984-2.038-3.947-3.985-8.025-5.844-12.22 11.593-2.2 23.68-3.934 36.277-5.157 8.91-.865 17.782-1.435 26.615-1.74v76.1zm27-76.15c21.326.656 42.336 2.977 62.887 6.956-1.858 4.19-3.803 8.266-5.84 12.21-16.178 31.328-36.058 51.035-57.047 56.983v-76.15zm-27-26.963c-9.7.314-19.444.927-29.225 1.877-15.11 1.467-29.588 3.622-43.422 6.43-9.922-30.537-15.727-65.522-16.87-102.332H242.5v94.025zM152.984 242.5c1.143-36.816 6.95-71.805 16.874-102.345 23.712 4.87 47.99 7.663 72.642 8.375v93.97h-89.516zM242.5 121.523c-21.327-.657-42.338-2.984-62.89-6.96 1.858-4.193 3.805-8.27 5.842-12.217 16.18-31.33 36.058-51.037 57.048-56.985v76.164zm27-76.16c20.99 5.947 40.87 25.654 57.048 56.984 2.048 3.966 4.004 8.066 5.87 12.282-10.416 1.956-21.3 3.53-32.688 4.73-10.122 1.063-20.202 1.75-30.23 2.094V45.362zm81.038 44.596c-6.618-12.818-13.906-24.063-21.732-33.67 24.658 9.016 47.19 22.48 66.63 39.41-11.36 4.975-23.44 9.21-36.288 12.755-2.686-6.4-5.554-12.58-8.61-18.497zm-189.076 0c-3.04 5.886-5.896 12.033-8.57 18.4-13.017-3.575-25.073-7.776-36.326-12.66 19.438-16.93 41.97-30.393 66.628-39.41-7.826 9.607-15.114 20.852-21.732 33.67zM143.57 133.8c-10.398 32.754-16.455 69.877-17.597 108.7h-82.09c3.04-48.266 22.254-92.208 52.28-126.457 14.554 7.04 30.244 12.923 47.407 17.756zm-17.597 135.7c1.142 38.814 7.196 75.928 17.59 108.678-16.98 4.812-32.78 10.77-47.36 17.823-30.05-34.253-49.278-78.213-52.32-126.5h82.09zm26.91 134.116c2.676 6.375 5.535 12.53 8.58 18.425 6.617 12.818 13.905 24.063 21.73 33.67-24.647-9.013-47.17-22.47-66.604-39.39 11.31-4.92 23.426-9.15 36.29-12.703zm206.214.05c12.792 3.548 24.916 7.798 36.26 12.703-19.42 16.896-41.926 30.334-66.55 39.34 7.825-9.61 15.113-20.854 21.732-33.67 3.034-5.88 5.885-12.018 8.556-18.374zm-16.954-31.824c-23.71-4.874-47.99-7.655-72.643-8.367V269.5h89.516c-1.144 36.815-6.95 71.803-16.873 102.342zM269.5 242.5v-94.023c10.966-.354 21.99-1.103 33.056-2.267 13.854-1.458 27.024-3.464 39.606-5.993 9.912 30.525 15.712 65.492 16.855 102.283H269.5zm146.193 153.618l.068-.14c-14.596-7.01-30.46-12.953-47.337-17.75 10.403-32.763 16.463-69.895 17.605-108.73h82.09c-3.046 48.344-22.316 92.348-52.424 126.62z"/></svg>