<?xml version="1.0" encoding="iso-8859-1"?>
<!-- Generator: Adobe Illustrator 18.1.0, SVG Export Plug-In . SVG Version: 6.00 Build 0)  -->
<!DOCTYPE svg PUBLIC "-//W3C//DTD SVG 1.1//EN" "http://www.w3.org/Graphics/SVG/1.1/DTD/svg11.dtd">
<svg version="1.1" xmlns="http://www.w3.org/2000/svg" xmlns:xlink="http://www.w3.org/1999/xlink" x="0px" y="0px"
	 viewBox="0 0 512 512" enable-background="new 0 0 512 512" xml:space="preserve">
<g id="Layer_2">
	<path fill="#8E6049" d="M374.151,335.414c-3.728-1.414-7.902,0.461-9.318,4.191c-5.635,14.846-12.63,30.639-22.121,43.788
		c-0.846-6.772-2.461-13.479-3.758-18.857c-0.493-2.044-0.959-3.976-1.107-4.89c-0.64-3.938-4.355-6.608-8.29-5.974
		c-3.939,0.641-6.613,4.352-5.974,8.29c0.236,1.455,0.717,3.443,1.323,5.962c1.316,5.456,3.306,13.702,3.795,20.948
		c0.526,7.777-0.932,10.873-1.876,11.477c-0.46,0.294-0.871,0.634-1.24,1.006c-8.395,6.348-18.204,10.626-29.778,11.723V302.972
		c0-16.123-13.073-29.211-29.203-29.211s-29.203,13.088-29.203,29.211v192.936c0,16.123,58.406,16.123,58.406,0V427.58
		c15.846-1.192,28.914-7.106,39.773-15.74c0.276-0.206,0.54-0.422,0.799-0.642c20.858-17.01,33.459-44.055,41.964-66.465
		C379.759,341.002,377.882,336.83,374.151,335.414z"/>
</g>
<g id="Layer_1">
</g>
</svg>
