<?xml version="1.0" encoding="iso-8859-1"?>
<!-- Generator: Adobe Illustrator 19.1.0, SVG Export Plug-In . SVG Version: 6.00 Build 0)  -->
<!DOCTYPE svg PUBLIC "-//W3C//DTD SVG 1.1//EN" "http://www.w3.org/Graphics/SVG/1.1/DTD/svg11.dtd">
<svg version="1.1" xmlns="http://www.w3.org/2000/svg" xmlns:xlink="http://www.w3.org/1999/xlink" x="0px" y="0px"
	 viewBox="0 0 512 512" enable-background="new 0 0 512 512" xml:space="preserve">
<g id="Layer_4">
	<path fill="#FBB436" d="M254.637,159.609c-1.402,0-2.814-0.427-4.033-1.315c-3.06-2.23-3.732-6.517-1.502-9.577
		c6.936-9.519,17.342-14.98,28.549-14.984c0.003,0,0.008,0,0.013,0c11.213,0,21.628,5.458,28.575,14.98
		c2.233,3.058,1.562,7.346-1.496,9.577c-3.053,2.23-7.346,1.566-9.577-1.496c-4.338-5.944-10.719-9.353-17.503-9.353
		c-0.003,0-0.005,0-0.008,0c-6.777,0.003-13.147,3.411-17.475,9.35C258.84,158.631,256.753,159.609,254.637,159.609z"/>
</g>
<g id="Layer_1">
</g>
</svg>
