<?xml version="1.0" encoding="iso-8859-1"?>
<!-- Generator: Adobe Illustrator 18.1.0, SVG Export Plug-In . SVG Version: 6.00 Build 0)  -->
<!DOCTYPE svg PUBLIC "-//W3C//DTD SVG 1.1//EN" "http://www.w3.org/Graphics/SVG/1.1/DTD/svg11.dtd">
<svg version="1.1" xmlns="http://www.w3.org/2000/svg" xmlns:xlink="http://www.w3.org/1999/xlink" x="0px" y="0px"
	 viewBox="0 0 512 512" enable-background="new 0 0 512 512" xml:space="preserve">
<g id="Layer_2">
	<path fill="#D3BBA3" d="M265.75,178.359c0,0,2.114,3.885,5.814,10.684c3.37,6.798,8.183,16.51,13.96,28.164
		c5.384,11.654,11.567,25.251,17.579,39.818c3.169,7.284,6.142,14.811,9.102,22.459c2.929,7.648,6.198,15.418,8.934,23.186
		c5.536,15.54,11.463,31.078,15.82,45.645c2.493,7.284,4.08,14.325,5.929,21.002c1.879,6.677,2.91,12.99,4.26,18.817
		c4.661,23.308,4.262,38.847,4.262,38.847c-1.326,51.617-44.246,68.937-95.863,67.61c-49.922-1.283-89.701-18.275-91.059-67.61
		c0,0-0.399-15.539,4.262-38.847c1.35-5.827,2.381-12.14,4.26-18.817c1.85-6.677,3.437-13.718,5.929-21.002
		c4.357-14.567,10.284-30.106,15.82-45.645c2.736-7.769,6.005-15.539,8.934-23.186c2.96-7.648,5.933-15.175,9.102-22.459
		c6.012-14.567,12.195-28.164,17.579-39.818c5.776-11.654,10.59-21.366,13.96-28.164c3.7-6.798,5.814-10.684,5.814-10.684
		c2.345-4.308,7.738-5.899,12.047-3.555C263.759,175.656,264.96,176.902,265.75,178.359z"/>
</g>
<g id="Layer_1">
</g>
</svg>
