<svg xmlns="http://www.w3.org/2000/svg" viewBox="0 0 512 512" enable-background="new 0 0 512 512"><path fill="#00B89C" d="M417.245 322.145c-12.042 1.336-30.87 3.782-42.23 7.032 2.882-.838 4.096-1.195-.494.128-19.042 5.536-6.85 2.007-.32.11-37.486 10.977-79.64 37.502-103.53 72.66V139c0-11.303-9.162-20.466-20.466-20.466-11.303 0-20.466 9.163-20.466 20.466v317.59c0 9.086 5.926 16.778 14.12 19.45-1.185 5.516-2.205 10.712-3.06 15.353-1.927 10.45 7.156 19.523 17.605 17.58 23.91-4.444 62.475-13.193 84.57-26.49 37.036-22.29 64.994-65.775 77.568-106.728l.23-.744c1.174-4.067.818-2.856.008-.07 3.262-11.402 5.563-30.43 6.787-42.572.643-6.37-3.955-10.928-10.32-10.222z"/></svg>