<?xml version="1.0" encoding="iso-8859-1"?>
<!-- Generator: Adobe Illustrator 19.1.0, SVG Export Plug-In . SVG Version: 6.00 Build 0)  -->
<!DOCTYPE svg PUBLIC "-//W3C//DTD SVG 1.1//EN" "http://www.w3.org/Graphics/SVG/1.1/DTD/svg11.dtd">
<svg version="1.1" xmlns="http://www.w3.org/2000/svg" xmlns:xlink="http://www.w3.org/1999/xlink" x="0px" y="0px"
	 viewBox="0 0 512 512" enable-background="new 0 0 512 512" xml:space="preserve">
<g id="Layer_6">
	<path fill="#3D4432" d="M280.54,201.169l-3.144-46.551l0.143-0.029c0,0-9.201-54.038-35.555-80.626
		c-21.02-21.207-42.469-39.97-42.469-39.97l-48.508,11.999c0,0,41.778,38.351,59.261,63.846
		c14.158,20.647,18.678,45.714,19.679,52.436l-0.02,0.003c0,0,4.899,39.617,4.422,41.312c-0.477,1.695,0.836,67.61,0.836,67.61
		l43.691-13.907c0,0,2.402-17.348,2.524-24.566S280.54,201.169,280.54,201.169z"/>
</g>
<g id="Layer_1">
</g>
</svg>
