<svg xmlns="http://www.w3.org/2000/svg" viewBox="0 0 512 512" enable-background="new 0 0 512 512"><path fill="#FFB636" d="M434.423 175.192s-1.394-1.143-4.008-2.987c-1.307-.93-2.92-2.063-4.813-3.27-1.895-1.26-4.073-2.652-6.512-4.106-4.145-2.494-9.05-5.227-14.598-8.037 3.93-4.818 7.307-9.307 10.085-13.265 1.64-2.32 3.066-4.475 4.287-6.395 1.242-1.873 2.255-3.563 3.073-4.942 1.64-2.745 2.45-4.355 2.45-4.355.472-.95.904-2.042 1.197-3.104 2.483-9-2.8-18.31-11.802-20.793 0 0-1.738-.48-4.875-1.106-1.57-.32-3.504-.7-5.727-1.036-2.243-.383-4.798-.77-7.617-1.11-3.16-.392-6.673-.745-10.47-1.032 1.097-3.646 2.03-7.05 2.8-10.14.698-2.754 1.254-5.278 1.703-7.508.485-2.194.824-4.135 1.09-5.717.545-3.15.723-4.945.723-4.945.095-1.057.105-2.23 0-3.326-.92-9.294-9.2-16.08-18.49-15.163 0 0-1.795.177-4.947.722-1.58.266-3.522.604-5.717 1.09-2.23.45-4.754 1.005-7.507 1.702-4.693 1.17-10.094 2.706-16.004 4.642-.628-6.187-1.414-11.748-2.25-16.51-.48-2.8-.994-5.333-1.488-7.553-.448-2.203-.927-4.114-1.324-5.667-.78-3.102-1.347-4.813-1.347-4.813-.34-1.006-.807-2.083-1.35-3.04-4.61-8.12-14.928-10.967-23.048-6.358 0 0-1.57.89-4.23 2.665-1.336.886-2.973 1.983-4.782 3.317-1.855 1.315-3.937 2.848-6.17 4.6-2.512 1.958-5.245 4.193-8.133 6.674-1.803-3.352-3.55-6.42-5.19-9.15-1.455-2.44-2.846-4.616-4.106-6.51-1.208-1.896-2.34-3.508-3.27-4.814-1.845-2.614-2.988-4.008-2.988-4.008-.68-.817-1.5-1.654-2.352-2.352-7.22-5.92-17.87-4.868-23.792 2.352 0 0-1.144 1.394-2.988 4.008-.93 1.307-2.063 2.918-3.27 4.813-1.26 1.894-2.652 4.072-4.106 6.51-2.494 4.15-5.23 9.06-8.04 14.613-4.82-3.934-9.31-7.313-13.268-10.093-2.317-1.64-4.472-3.068-6.39-4.29-1.872-1.242-3.56-2.256-4.94-3.074-2.744-1.64-4.353-2.45-4.353-2.45-.956-.475-2.052-.91-3.12-1.203-8.998-2.477-18.3 2.81-20.778 11.807 0 0-.478 1.735-1.102 4.87-.318 1.57-.7 3.505-1.034 5.726-.38 2.242-.77 4.797-1.108 7.616-.392 3.165-.744 6.684-1.03 10.487-3.653-1.1-7.063-2.038-10.158-2.81-2.752-.698-5.275-1.255-7.505-1.705-2.193-.486-4.134-.825-5.714-1.093-3.15-.546-4.944-.724-4.944-.724-1.063-.1-2.242-.11-3.343 0-9.288.923-16.07 9.2-15.145 18.487 0 0 .178 1.793.724 4.944.267 1.58.605 3.52 1.092 5.715.45 2.23 1.007 4.753 1.705 7.505 1.172 4.697 2.713 10.105 4.654 16.023-6.195.626-11.763 1.412-16.532 2.246-2.8.477-5.333.99-7.553 1.484-2.202.446-4.113.924-5.666 1.32-3.1.78-4.81 1.344-4.81 1.344-1.01.34-2.095.81-3.058 1.356-8.114 4.61-10.954 14.927-6.343 23.042 0 0 .89 1.567 2.667 4.225.886 1.338 1.982 2.974 3.317 4.78 1.316 1.857 2.848 3.938 4.602 6.17 1.96 2.515 4.2 5.25 6.687 8.144-3.36 1.805-6.434 3.554-9.17 5.196-2.438 1.452-4.616 2.842-6.51 4.1-1.896 1.207-3.507 2.34-4.814 3.268-2.615 1.842-4.01 2.984-4.01 2.984-.82.682-1.66 1.508-2.363 2.364-5.914 7.22-4.856 17.867 2.364 23.78 0 0 1.395 1.143 4.01 2.985 1.306.93 2.92 2.063 4.812 3.27 1.895 1.258 4.073 2.65 6.512 4.1 4.15 2.494 9.065 5.23 14.622 8.04-3.938 4.825-7.32 9.318-10.103 13.28-1.64 2.317-3.067 4.47-4.29 6.39-1.24 1.873-2.255 3.56-3.073 4.94-1.64 2.745-2.45 4.354-2.45 4.354-.474.956-.91 2.052-1.202 3.12-2.477 8.998 2.81 18.3 11.808 20.778 0 0 1.737.48 4.873 1.103 1.57.32 3.502.7 5.723 1.036 2.242.383 4.797.77 7.616 1.108 3.163.392 6.682.744 10.485 1.03-1.1 3.652-2.037 7.062-2.81 10.156-.697 2.752-1.254 5.275-1.704 7.505-.485 2.192-.824 4.133-1.092 5.713-.547 3.15-.726 4.943-.726 4.943-.1 1.063-.11 2.24 0 3.343.923 9.286 9.2 16.067 18.488 15.144 0 0 1.793-.177 4.944-.723 1.58-.267 3.52-.605 5.714-1.092 2.23-.45 4.754-1.007 7.506-1.705 4.698-1.173 10.106-2.714 16.024-4.655.626 6.196 1.412 11.765 2.246 16.535.48 2.8.993 5.332 1.486 7.552.445 2.202.923 4.113 1.32 5.666.778 3.1 1.343 4.813 1.343 4.813.34 1.01.81 2.093 1.356 3.056 4.612 8.113 14.93 10.953 23.043 6.342 0 0 1.567-.89 4.225-2.67 1.335-.885 2.97-1.982 4.78-3.316 1.854-1.316 3.935-2.848 6.167-4.603 2.515-1.96 5.252-4.2 8.145-6.687 1.806 3.36 3.554 6.434 5.196 9.168 1.453 2.44 2.843 4.618 4.1 6.513 1.208 1.895 2.34 3.507 3.27 4.813 1.84 2.614 2.983 4.007 2.983 4.007.68.82 1.507 1.662 2.363 2.364 7.22 5.915 17.867 4.857 23.78-2.363 0 0 1.143-1.394 2.985-4.007.927-1.307 2.06-2.92 3.267-4.813 1.258-1.895 2.65-4.073 4.1-6.512 2.492-4.146 5.224-9.056 8.033-14.607 4.822 3.935 9.315 7.314 13.277 10.095 2.318 1.64 4.474 3.065 6.394 4.286 1.874 1.24 3.564 2.254 4.943 3.072 2.745 1.64 4.356 2.45 4.356 2.45.95.47 2.04.903 3.102 1.196 9 2.483 18.31-2.8 20.794-11.802 0 0 .48-1.737 1.104-4.874.32-1.572.703-3.505 1.04-5.728.382-2.243.77-4.798 1.11-7.617.39-3.16.744-6.672 1.03-10.47 3.646 1.098 7.05 2.03 10.14 2.8 2.753.7 5.277 1.255 7.507 1.704 2.194.486 4.135.825 5.717 1.09 3.152.545 4.946.723 4.946.723 1.056.097 2.23.108 3.325 0 9.292-.92 16.08-9.196 15.16-18.488 0 0-.176-1.794-.72-4.946-.268-1.58-.606-3.523-1.092-5.718-.45-2.23-1.005-4.755-1.702-7.508-1.166-4.693-2.703-10.094-4.64-16.003 6.188-.63 11.75-1.414 16.51-2.25 2.8-.48 5.335-.994 7.556-1.49 2.203-.445 4.114-.924 5.667-1.32 3.103-.78 4.814-1.348 4.814-1.348 1.006-.34 2.083-.805 3.04-1.348 8.12-4.61 10.967-14.928 6.358-23.048 0 0-.89-1.57-2.666-4.23-.886-1.336-1.983-2.973-3.317-4.782-1.315-1.856-2.848-3.938-4.6-6.17-1.958-2.513-4.193-5.246-6.674-8.134 3.352-1.804 6.42-3.55 9.15-5.19 2.44-1.455 4.616-2.846 6.51-4.106 1.896-1.208 3.508-2.342 4.814-3.27 2.615-1.845 4.01-2.988 4.01-2.988.816-.68 1.653-1.5 2.35-2.352 5.926-7.22 4.873-17.872-2.347-23.792z"/></svg>