<?xml version="1.0" encoding="iso-8859-1"?>
<!-- Generator: Adobe Illustrator 18.1.0, SVG Export Plug-In . SVG Version: 6.00 Build 0)  -->
<!DOCTYPE svg PUBLIC "-//W3C//DTD SVG 1.1//EN" "http://www.w3.org/Graphics/SVG/1.1/DTD/svg11.dtd">
<svg version="1.1" xmlns="http://www.w3.org/2000/svg" xmlns:xlink="http://www.w3.org/1999/xlink" x="0px" y="0px"
	 viewBox="0 0 512 512" enable-background="new 0 0 512 512" xml:space="preserve">
<g id="Layer_4">
	<path fill="#009E83" d="M316.52,201.823c-1.719,3.963-5.586,6.33-9.646,6.33c-1.396,0-2.814-0.279-4.177-0.87l-86.876-37.678
		l10.234,25.951c1.567,3.974-0.384,8.466-4.358,10.033c-0.931,0.367-1.891,0.542-2.835,0.542c-3.083,0-5.998-1.857-7.197-4.899
		l-15.902-40.325l-53.614-23.253l20.99,53.227c1.567,3.974-0.384,8.466-4.358,10.033c-0.931,0.367-1.891,0.542-2.835,0.542
		c-3.083,0-5.998-1.857-7.197-4.899l-26.658-67.602L8.837,79.836c-5.325-2.31-7.769-8.498-5.46-13.823
		c2.309-5.324,8.497-7.769,13.823-5.46l115.369,50.036l64.578-25.466c3.971-1.567,8.465,0.384,10.033,4.358
		c1.567,3.974-0.384,8.466-4.358,10.033l-50.171,19.785l53.675,23.279l37.183-14.663c3.971-1.566,8.465,0.384,10.033,4.358
		c1.567,3.974-0.384,8.466-4.358,10.033l-22.777,8.982L311.06,188C316.385,190.31,318.829,196.498,316.52,201.823z M488.434,357.952
		c-1.457-3.785-5.708-5.672-9.492-4.215l-79.124,30.461l-47.357-21.061c-3.258-1.448-7.07,0.018-8.518,3.273
		c-1.448,3.256,0.018,7.069,3.273,8.518l35.579,15.823l-35.351,13.609l-28.635-12.735c-3.257-1.447-7.07,0.017-8.518,3.273
		c-1.448,3.256,0.018,7.069,3.273,8.518l16.857,7.497l-60.377,23.244c-3.785,1.457-5.673,5.707-4.215,9.492
		c1.123,2.918,3.905,4.707,6.855,4.707c0.877,0,1.77-0.158,2.637-0.492l58.795-22.635l-6.527,14.677
		c-1.448,3.256,0.018,7.07,3.273,8.518c0.853,0.38,1.742,0.559,2.618,0.559c2.472,0,4.831-1.428,5.899-3.832l11.777-26.481
		l35.39-13.625l-14.889,33.48c-1.448,3.256,0.018,7.069,3.273,8.518c0.853,0.379,1.742,0.559,2.618,0.559
		c2.472,0,4.831-1.428,5.899-3.832l20.139-45.284l80.629-31.041C488.004,365.987,489.892,361.737,488.434,357.952z"/>
</g>
<g id="Layer_1">
</g>
</svg>
