<?xml version="1.0" encoding="iso-8859-1"?>
<!-- Generator: Adobe Illustrator 18.1.0, SVG Export Plug-In . SVG Version: 6.00 Build 0)  -->
<!DOCTYPE svg PUBLIC "-//W3C//DTD SVG 1.1//EN" "http://www.w3.org/Graphics/SVG/1.1/DTD/svg11.dtd">
<svg version="1.1" xmlns="http://www.w3.org/2000/svg" xmlns:xlink="http://www.w3.org/1999/xlink" x="0px" y="0px"
	 viewBox="0 0 512 512" enable-background="new 0 0 512 512" xml:space="preserve">
<g id="Layer_3">
	<path fill="#009E83" d="M223.088,499.832c4.87,1.495-14.024-4.065,0.241,0.082c3.439,0.991,2.529,0.724,0.37,0.096
		c8.541,2.444,22.795,4.167,31.889,5.084c4.772,0.481,8.186-2.963,7.657-7.73c-1.001-9.02-2.833-23.124-5.267-31.633
		c0.628,2.159,0.895,3.069-0.096-0.37c-4.147-14.265-1.503-5.133-0.082-0.241c-8.602-29.373-29.942-62.584-58.102-79.944
		c-16.441-10.136-45.312-16.679-63.227-19.981c-7.829-1.443-14.623,5.361-13.169,13.187c3.329,17.91,9.882,46.796,19.842,63.347
		C159.839,469.471,192.412,490.413,223.088,499.832z"/>
</g>
<g id="Layer_1">
</g>
</svg>
