<?xml version="1.0" encoding="iso-8859-1"?>
<!-- Generator: Adobe Illustrator 18.1.0, SVG Export Plug-In . SVG Version: 6.00 Build 0)  -->
<!DOCTYPE svg PUBLIC "-//W3C//DTD SVG 1.1//EN" "http://www.w3.org/Graphics/SVG/1.1/DTD/svg11.dtd">
<svg version="1.1" xmlns="http://www.w3.org/2000/svg" xmlns:xlink="http://www.w3.org/1999/xlink" x="0px" y="0px"
	 viewBox="0 0 512 512" enable-background="new 0 0 512 512" xml:space="preserve">
<g id="Layer_4">
	<path fill="#B96642" d="M306.819,140.777c-19.549-31.826-39.078-50.952-49.694-60.012c0-0.022-0.004-0.044-0.004-0.065
		c0.003-0.737-0.101-1.47-0.311-2.179c-0.007-0.023-0.008-0.047-0.016-0.07c-0.008-0.026-0.021-0.048-0.029-0.074
		c-0.203-0.639-0.483-1.259-0.858-1.835c-0.041-0.063-0.091-0.119-0.134-0.18c-0.05-0.072-0.104-0.14-0.157-0.21
		c-0.17-0.227-0.351-0.441-0.542-0.646c-3.519-1.626-5.5-2.393-5.5-2.393s-4.564,1.916-12.152,6.002
		c-0.116,0.55-0.191,1.103-0.184,1.652c-10.616,9.061-30.145,28.186-49.694,60.012c-16.502,26.865-29.642,57.334-39.053,90.56
		c-11.629,41.055-17.561,86.47-17.651,134.997c4.086,2.05,8.513,4.063,13.295,6c1.121-1.318,1.801-3.022,1.801-4.888
		c0-47.287,5.686-91.47,16.898-131.321c8.95-31.811,21.425-60.954,37.077-86.621c11.743-19.257,23.556-33.662,33.118-43.768
		c-3.432,11.687-7.444,27.118-11.463,46.526c-9.477,45.769-20.774,123.399-20.774,233.31c0,0.509,0.052,1.005,0.148,1.485
		c4.583,0.645,9.337,1.203,14.261,1.667c0.442-0.96,0.696-2.026,0.696-3.152c0-108.183,11.041-184.505,20.303-229.481
		c4.433-21.525,8.89-38.113,12.493-49.946c3.604,11.833,8.062,28.424,12.494,49.946c9.262,44.976,20.303,121.298,20.303,229.481
		c0,1.19,0.283,2.311,0.773,3.312c4.875-0.435,9.577-0.966,14.123-1.578c0.131-0.558,0.208-1.137,0.208-1.734
		c0-109.91-11.297-187.541-20.774-233.31c-3.499-16.897-6.992-30.777-10.103-41.8c8.506,9.527,18.36,22.146,28.235,38.222
		c24.853,40.46,54.479,111.255,54.479,218.763c0,2.571,1.287,4.839,3.25,6.203c4.167-1.601,8.077-3.262,11.742-4.961
		c0.067-0.405,0.111-0.818,0.111-1.242c0-48.946-5.941-94.739-17.659-136.108C336.461,198.111,323.321,167.642,306.819,140.777z"/>
</g>
<g id="Layer_1">
</g>
</svg>
