<?xml version="1.0" encoding="iso-8859-1"?>
<!-- Generator: Adobe Illustrator 18.1.0, SVG Export Plug-In . SVG Version: 6.00 Build 0)  -->
<!DOCTYPE svg PUBLIC "-//W3C//DTD SVG 1.1//EN" "http://www.w3.org/Graphics/SVG/1.1/DTD/svg11.dtd">
<svg version="1.1" xmlns="http://www.w3.org/2000/svg" xmlns:xlink="http://www.w3.org/1999/xlink" x="0px" y="0px"
	 viewBox="0 0 512 512" enable-background="new 0 0 512 512" xml:space="preserve">
<g id="Layer_3">
	<path fill="#FF929D" d="M449.95,201.206c-13.858-47.642-26.576-85.831-74.218-71.973c-0.873,0.254-1.747,0.534-2.623,0.835
		c-6.66,2.157-12.906,5.021-18.675,8.489c-3.981,2.393-8.768-1.295-7.581-5.786c1.939-7.335,2.973-15.038,2.973-22.983
		c0-49.616-40.222-51.161-89.838-51.161c-49.616,0-89.838,1.545-89.838,51.161c0,0.908,0.024,1.826,0.07,2.75
		c0.166,5.491,0.822,10.858,1.928,16.057c0.922,4.332-3.66,7.784-7.508,5.59c-5.412-3.086-11.228-5.653-17.409-7.608
		c-47.307-14.961-60.908,22.923-75.87,70.23c-14.961,47.307-25.617,86.123,21.69,101.084c0.866,0.274,1.748,0.527,2.643,0.763
		c4.508,1.278,9.036,2.187,13.553,2.744c4.297,0.53,6.033,5.818,2.894,8.8c-3.942,3.746-7.599,7.903-10.902,12.47
		c-29.076,40.204,2.611,65.027,42.816,94.102c40.204,29.075,73.702,51.394,102.777,11.19c0.533-0.737,1.051-1.495,1.557-2.271
		c0.018-0.026,0.035-0.052,0.053-0.078c2.148-3.174,6.895-3.111,8.755,0.24c0.486,0.875,0.988,1.744,1.508,2.608
		c25.599,42.503,60.851,23.074,103.354-2.524c42.503-25.599,76.161-47.674,50.562-90.177c-0.469-0.778-0.963-1.551-1.479-2.32
		c-4.695-7.289-10.279-13.679-16.525-19.115c-3.641-3.168-1.364-9.171,3.461-9.02c9.175,0.286,18.549-0.841,27.841-3.544
		C473.559,287.9,463.808,248.847,449.95,201.206z"/>
</g>
<g id="Layer_1">
</g>
</svg>
