<?xml version="1.0" encoding="iso-8859-1"?>
<!-- Generator: Adobe Illustrator 18.1.0, SVG Export Plug-In . SVG Version: 6.00 Build 0)  -->
<!DOCTYPE svg PUBLIC "-//W3C//DTD SVG 1.1//EN" "http://www.w3.org/Graphics/SVG/1.1/DTD/svg11.dtd">
<svg version="1.1" xmlns="http://www.w3.org/2000/svg" xmlns:xlink="http://www.w3.org/1999/xlink" x="0px" y="0px"
	 viewBox="0 0 512 512" enable-background="new 0 0 512 512" xml:space="preserve">
<g id="Layer_4">
	<path fill="#2BA52E" d="M195.785,286.803c-2.82,0-5.118-2.273-5.143-5.099c-0.025-2.84,2.258-5.163,5.099-5.188l20.413-0.178
		c0.015,0,0.031,0,0.046,0c2.82,0,5.118,2.273,5.143,5.099c0.025,2.84-2.258,5.163-5.099,5.188l-20.413,0.178
		C195.816,286.803,195.8,286.803,195.785,286.803z M282.999,127.226V11.144c0-2.841-2.303-5.144-5.144-5.144
		c-2.841,0-5.144,2.303-5.144,5.144v116.082c0,2.841,2.303,5.144,5.144,5.144C280.696,132.37,282.999,130.067,282.999,127.226z
		 M317.898,93.861V27.132c0-2.841-2.303-5.144-5.144-5.144c-2.841,0-5.144,2.303-5.144,5.144v66.729
		c0,2.841,2.303,5.144,5.144,5.144C315.595,99.005,317.898,96.702,317.898,93.861z M328.185,193.956v-66.73
		c0-2.841-2.303-5.144-5.144-5.144c-2.841,0-5.144,2.303-5.144,5.144v66.73c0,2.841,2.303,5.144,5.144,5.144
		C325.882,199.1,328.185,196.797,328.185,193.956z M233.025,209.806v-66.729c0-2.841-2.303-5.144-5.144-5.144
		s-5.144,2.303-5.144,5.144v66.729c0,2.841,2.303,5.144,5.144,5.144S233.025,212.647,233.025,209.806z M269.032,278.435V157.529
		c0-2.841-2.303-5.144-5.144-5.144c-2.841,0-5.144,2.303-5.144,5.144v120.906c0,2.841,2.303,5.144,5.144,5.144
		C266.729,283.579,269.032,281.276,269.032,278.435z M306.998,308.948v-66.73c0-2.841-2.303-5.144-5.144-5.144
		c-2.841,0-5.144,2.303-5.144,5.144v66.73c0,2.841,2.303,5.144,5.144,5.144C304.695,314.092,306.998,311.789,306.998,308.948z
		 M237.365,371.896v-66.73c0-2.841-2.303-5.144-5.144-5.144s-5.144,2.303-5.144,5.144v66.73c0,2.841,2.303,5.144,5.144,5.144
		S237.365,374.737,237.365,371.896z M282.999,476.15V352.09c0-2.841-2.303-5.144-5.144-5.144c-2.841,0-5.144,2.303-5.144,5.144
		V476.15c0,2.841,2.303,5.144,5.144,5.144C280.696,481.294,282.999,478.991,282.999,476.15z M328.185,427.712v-66.73
		c0-2.841-2.303-5.144-5.144-5.144c-2.841,0-5.144,2.303-5.144,5.144v66.73c0,2.841,2.303,5.144,5.144,5.144
		C325.882,432.855,328.185,430.553,328.185,427.712z M258.02,56.581V13.588c0-2.841-2.303-5.144-5.144-5.144
		s-5.144,2.303-5.144,5.144v42.993c0,2.841,2.303,5.144,5.144,5.144S258.02,59.422,258.02,56.581z M125.482,194.903v-43.378
		c0-1.365-0.542-2.673-1.507-3.637l-11.716-11.716c-2.008-2.008-5.266-2.008-7.274,0c-2.009,2.009-2.009,5.265,0,7.274l10.209,10.21
		v41.247c0,2.841,2.303,5.144,5.144,5.144S125.482,197.744,125.482,194.903z M152.043,238.103v-66.087
		c0-2.841-2.303-5.144-5.144-5.144c-2.841,0-5.144,2.303-5.144,5.144v66.087c0,2.841,2.303,5.144,5.144,5.144
		C149.74,243.246,152.043,240.944,152.043,238.103z M119.625,267.487v-34.603c0-2.841-2.303-5.144-5.144-5.144
		s-5.144,2.303-5.144,5.144v34.603c0,2.841,2.303,5.144,5.144,5.144S119.625,270.328,119.625,267.487z M139.274,324.171v-59.016
		c0-2.841-2.303-5.144-5.144-5.144s-5.144,2.303-5.144,5.144v59.016c0,2.841,2.303,5.144,5.144,5.144
		S139.274,327.012,139.274,324.171z M178.271,315.711v-34.603c0-2.841-2.303-5.144-5.144-5.144s-5.144,2.303-5.144,5.144v34.603
		c0,2.841,2.303,5.144,5.144,5.144S178.271,318.552,178.271,315.711z M247.571,452.223v-33.364c0-2.841-2.303-5.144-5.144-5.144
		s-5.144,2.303-5.144,5.144v33.364c0,2.841,2.303,5.144,5.144,5.144S247.571,455.064,247.571,452.223z M236.075,35.224
		c0.029-0.02,0.056-0.042,0.085-0.063l-10.508-10.508c-2.008-2.008-5.266-2.008-7.274,0c-2.009,2.009-2.009,5.265,0,7.274l8.7,8.7
		v53.234c0,2.841,2.303,5.144,5.144,5.144c2.841,0,5.144-2.303,5.144-5.144V38.598C237.365,37.301,236.868,36.129,236.075,35.224z"
		/>
</g>
<g id="Layer_1">
</g>
</svg>
