<svg xmlns="http://www.w3.org/2000/svg" viewBox="0 0 512 512" enable-background="new 0 0 512 512"><path fill="#FFEED4" d="M367.15 291.758l-107.56-25.862 18.07-82.27c.354-1.618-.67-3.218-2.287-3.574-1.62-.358-3.22.668-3.573 2.287l-17.254 78.56-61.095-87.885c-.944-1.36-2.813-1.697-4.174-.75s-1.697 2.814-.75 4.175l62.814 90.36-75.38 40.28c-1.46.78-2.013 2.598-1.232 4.06.54 1.01 1.577 1.587 2.648 1.587.477 0 .96-.114 1.412-.355l77.092-41.197 109.867 26.417c.235.057.472.084.704.084 1.356 0 2.585-.925 2.916-2.3.388-1.61-.604-3.23-2.216-3.618z"/></svg>