<?xml version="1.0" encoding="iso-8859-1"?>
<!-- Generator: Adobe Illustrator 18.1.0, SVG Export Plug-In . SVG Version: 6.00 Build 0)  -->
<!DOCTYPE svg PUBLIC "-//W3C//DTD SVG 1.1//EN" "http://www.w3.org/Graphics/SVG/1.1/DTD/svg11.dtd">
<svg version="1.1" xmlns="http://www.w3.org/2000/svg" xmlns:xlink="http://www.w3.org/1999/xlink" x="0px" y="0px"
	 viewBox="0 0 512 512" enable-background="new 0 0 512 512" xml:space="preserve">
<g id="Layer_3">
	<path fill="#2BA52E" d="M425.834,166.186c-3.365-3.365-6.962-6.352-10.723-9.004c2.662-1.997,5.222-4.194,7.643-6.615
		c27.648-27.648,27.648-72.473,0-100.121c-27.528-27.528-72.078-27.637-99.754-0.349c-2.219-10.262-7.301-20.029-15.276-28.004
		c-22.101-22.101-57.934-22.101-80.036,0c-3.167,3.167-5.864,6.622-8.123,10.272c-28.698-14.07-64.337-9.195-88.199,14.667
		c-27.576,27.576-29.802,70.878-6.721,101.019c-16.384,2.038-32.241,9.325-44.82,21.905c-30.023,30.023-30.023,78.699,0,108.721
		c15.196,15.196,35.171,22.687,55.087,22.5c-3.492,15.27,0.698,31.942,12.592,43.836c18.389,18.389,48.203,18.389,66.592,0
		c2.557-2.557,4.745-5.34,6.59-8.277c0.277,0.286,0.539,0.582,0.822,0.865c29.47,29.47,77.249,29.47,106.719,0
		c10.028-10.028,16.635-22.178,19.838-35.003c26.93,6.874,56.689-0.212,77.768-21.29
		C457.624,249.517,457.624,197.975,425.834,166.186z"/>
</g>
<g id="Layer_1">
</g>
</svg>
