<?xml version="1.0" encoding="iso-8859-1"?>
<!-- Generator: Adobe Illustrator 18.1.0, SVG Export Plug-In . SVG Version: 6.00 Build 0)  -->
<!DOCTYPE svg PUBLIC "-//W3C//DTD SVG 1.1//EN" "http://www.w3.org/Graphics/SVG/1.1/DTD/svg11.dtd">
<svg version="1.1" xmlns="http://www.w3.org/2000/svg" xmlns:xlink="http://www.w3.org/1999/xlink" x="0px" y="0px"
	 viewBox="0 0 512 512" enable-background="new 0 0 512 512" xml:space="preserve">
<g id="Layer_3">
	<path fill="#AF773F" d="M252.725,478.299c-14.513,0-29.057-0.802-43.146-2.386c-0.133-1.735-0.21-3.55-0.21-5.475l0.773-27.908
		c12.788,1.534,26.985,2.433,42.583,2.433c18.267,0,34.614-1.232,49.022-3.275l0.797,28.75c0,1.637-0.064,3.183-0.161,4.683
		C286.287,477.23,269.486,478.299,252.725,478.299z M212.214,367.746l-0.924,33.333c13.554,1.458,27.508,2.195,41.434,2.195
		c16.143,0,32.324-0.989,47.876-2.946l-0.925-33.379c-13.899,1.871-29.553,2.989-46.951,2.989
		C237.964,369.938,224.459,369.133,212.214,367.746z M214.287,292.948l-0.923,33.321c12.902,1.314,26.144,1.981,39.361,1.981
		c15.427,0,30.889-0.906,45.804-2.694l-0.924-33.361c-13.378,1.707-28.34,2.719-44.879,2.719
		C238.791,294.914,225.979,294.194,214.287,292.948z M216.36,218.14l-0.923,33.314c12.245,1.178,24.778,1.771,37.288,1.771
		c14.714,0,29.459-0.824,43.731-2.451l-0.924-33.345c-12.845,1.55-27.118,2.459-42.807,2.459
		C239.612,219.889,227.488,219.254,216.36,218.14z"/>
</g>
<g id="Layer_1">
</g>
</svg>
