<?xml version="1.0" encoding="iso-8859-1"?>
<!-- Generator: Adobe Illustrator 19.2.1, SVG Export Plug-In . SVG Version: 6.00 Build 0)  -->
<!DOCTYPE svg PUBLIC "-//W3C//DTD SVG 1.1//EN" "http://www.w3.org/Graphics/SVG/1.1/DTD/svg11.dtd">
<svg version="1.1" xmlns="http://www.w3.org/2000/svg" xmlns:xlink="http://www.w3.org/1999/xlink" x="0px" y="0px"
	 viewBox="0 0 512 512" enable-background="new 0 0 512 512" xml:space="preserve">
<g id="Layer_2">
	<path fill="#FF473E" d="M23.074,363.228c0,0,1.268-0.609,3.647-1.75c1.191-0.562,2.659-1.254,4.385-2.069
		c0.863-0.406,1.791-0.842,2.781-1.308c0.486-0.234,1.025-0.471,1.511-0.722c0.44-0.255,0.893-0.518,1.358-0.788
		c1.854-1.085,3.889-2.256,6.078-3.494c2.126-1.182,4.658-2.716,7.284-4.287c2.629-1.58,5.409-3.197,8.27-5.107
		c1.431-0.914,2.898-1.852,4.4-2.812c0.745-0.477,1.499-0.959,2.261-1.447c0.751-0.518,1.511-1.042,2.278-1.572
		c6.142-4.162,12.578-8.907,19.178-14.065c1.637-1.296,3.296-2.609,4.975-3.939c1.669-1.328,3.314-2.792,4.995-4.175
		c1.67-1.421,3.369-2.771,5.037-4.27c1.661-1.482,3.337-2.978,5.028-4.486c1.688-1.473,3.352-3.054,5.027-4.625
		c1.664-1.563,3.34-3.136,5.026-4.72c1.648-1.635,3.307-3.279,4.973-4.932c0.826-0.822,1.654-1.646,2.484-2.472
		c0.819-0.849,1.64-1.699,2.462-2.552c6.607-6.671,12.979-13.924,19.256-21.085c3.108-3.666,6.195-7.279,9.186-11.033
		c3.029-3.646,5.963-7.458,8.874-11.129c2.871-3.804,5.72-7.468,8.461-11.263c2.777-3.697,5.462-7.467,8.091-11.139
		c1.315-1.833,2.597-3.719,3.873-5.542c1.275-1.826,2.533-3.638,3.762-5.478c1.237-1.811,2.461-3.603,3.67-5.374
		c1.198-1.796,2.381-3.57,3.549-5.32c2.331-3.484,4.573-6.973,6.741-10.305c2.168-3.391,4.228-6.639,6.303-9.766
		c4.123-6.179,8.178-11.777,12.003-16.557c1.922-2.418,3.787-4.654,5.553-6.67c1.791-2.068,3.505-3.895,5.062-5.542
		c3.205-3.355,5.877-5.827,7.854-7.548c1.94-1.693,3.067-2.505,3.067-2.505c48.016-34.586,114.978-23.699,149.564,24.318
		c27.297,37.897,26.268,87.595,1.015,123.863l-0.557,0.746c0,0-0.771,1.103-2.388,2.999c-1.581,1.869-4.127,4.662-7.564,8.007
		c-1.771,1.697-3.741,3.571-5.961,5.533c-2.262,1.998-4.746,4.109-7.487,6.32c-5.53,4.448-12.032,9.261-19.628,14.228
		c-7.57,4.936-16.143,10.049-25.233,15.457c-9.067,5.41-18.93,10.925-29.209,16.441c-10.298,5.528-21.173,10.982-32.353,16.239
		c-11.242,5.233-22.799,10.255-34.568,14.865c-2.917,1.175-5.919,2.261-8.86,3.381c-2.948,1.116-5.897,2.202-8.9,3.219
		c-2.977,1.023-5.949,2.044-8.912,3.062c-2.992,0.953-5.975,1.904-8.946,2.851c-1.481,0.464-2.96,0.928-4.435,1.39
		c-1.496,0.428-2.988,0.855-4.477,1.28c-2.967,0.835-5.92,1.666-8.854,2.491c-2.961,0.753-5.904,1.502-8.826,2.245
		c-1.455,0.363-2.906,0.725-4.35,1.086c-1.444,0.355-2.92,0.651-4.365,0.975c-2.892,0.624-5.759,1.243-8.599,1.856
		c-2.826,0.613-5.696,1.089-8.481,1.619c-2.801,0.507-5.542,1.029-8.293,1.451c-2.747,0.404-5.461,0.803-8.138,1.197
		c-10.671,1.559-20.854,2.399-30.17,2.989c-9.339,0.532-17.841,0.767-25.395,0.559c-3.768-0.059-7.201-0.093-10.674-0.267
		c-3.389-0.134-6.477-0.291-9.251-0.46c-0.692-0.041-1.365-0.081-2.019-0.119c-0.612-0.057-1.146-0.14-1.696-0.206
		c-1.085-0.138-2.102-0.268-3.049-0.388c-1.893-0.244-3.503-0.451-4.809-0.619c-2.614-0.354-4.008-0.543-4.008-0.543
		c-16.258-2.201-27.654-17.165-25.452-33.423C7.869,375.814,14.463,367.438,23.074,363.228z"/>
</g>
<g id="Layer_3">
	<path fill="#FF6E83" d="M288.303,189.678c0,0-1.286,0.776-3.537,2.135c-0.563,0.34-1.186,0.716-1.864,1.125
		c-0.38,0.22-0.603,0.384-0.87,0.566c-0.267,0.181-0.543,0.369-0.829,0.563c-0.579,0.385-1.195,0.795-1.844,1.228
		c-0.329,0.215-0.667,0.435-1.013,0.661c-0.368,0.282-0.745,0.571-1.13,0.866c-1.533,1.222-3.273,2.409-4.992,3.961
		c-0.876,0.748-1.775,1.517-2.695,2.302c-0.916,0.802-1.82,1.693-2.762,2.562c-1.896,1.711-3.775,3.68-5.72,5.628
		c-0.972,0.977-1.92,2.04-2.893,3.067c-0.968,1.035-1.944,2.069-2.903,3.164c-0.965,1.08-1.93,2.161-2.891,3.237
		c-0.96,1.107-1.916,2.21-2.865,3.305c-1.914,2.234-3.797,4.433-5.62,6.56c-1.854,2.169-3.638,4.262-5.416,6.282
		c-1.719,2.002-3.501,3.923-5.092,5.677c-1.658,1.76-3.222,3.371-4.643,4.785c-1.512,1.412-2.772,2.637-3.908,3.629
		c-2.372,1.95-3.728,3.064-3.728,3.064c-4.036,3.318-9.998,2.735-13.315-1.301c-2.965-3.608-2.815-8.754,0.133-12.175l0.701-0.812
		c0,0,0.815-0.948,2.242-2.606c0.707-0.868,1.549-2.035,2.522-3.295c0.959-1.348,2.032-2.903,3.193-4.638
		c1.151-1.803,2.4-3.689,3.706-5.851c1.305-2.101,2.692-4.412,4.125-6.794c1.462-2.425,2.973-4.931,4.508-7.477
		c0.787-1.288,1.58-2.586,2.376-3.889c0.827-1.311,1.657-2.627,2.487-3.943c0.816-1.318,1.694-2.634,2.565-3.947
		c0.88-1.311,1.713-2.626,2.624-3.917c1.828-2.58,3.574-5.143,5.479-7.567c0.938-1.216,1.825-2.428,2.766-3.587
		c0.962-1.154,1.902-2.282,2.818-3.381c1.782-2.227,3.756-4.199,5.466-6.082c0.439-0.468,0.868-0.926,1.288-1.374
		c0.482-0.46,0.952-0.909,1.411-1.347c0.927-0.874,1.806-1.702,2.632-2.481c0.417-0.388,0.821-0.764,1.21-1.126
		c0.389-0.361,0.789-0.736,1.062-0.96c0.601-0.516,1.154-0.989,1.653-1.417c1.996-1.711,3.136-2.689,3.136-2.689
		c7.34-6.295,18.394-5.447,24.688,1.893s5.447,18.394-1.893,24.688c-0.722,0.619-1.479,1.169-2.265,1.65L288.303,189.678z"/>
</g>
<g id="Layer_4">
	<path fill="#00B89C" d="M502.766,153.514l-0.283-0.327c0,0-1.869-2.162-5.14-5.947c-0.822-0.942-1.858-1.912-2.919-3.005
		c-1.091-1.074-2.209-2.276-3.522-3.478c-1.354-1.172-2.795-2.419-4.314-3.733c-0.387-0.322-0.752-0.669-1.171-0.981
		c-0.421-0.31-0.847-0.623-1.279-0.941c-0.864-0.631-1.748-1.277-2.651-1.937c-3.638-2.605-7.932-5.085-12.735-7.263
		c-0.583-0.301-1.207-0.539-1.842-0.767c-0.631-0.234-1.266-0.469-1.906-0.706c-0.64-0.234-1.284-0.469-1.931-0.705
		c-0.643-0.245-1.299-0.471-1.985-0.63c-1.357-0.352-2.729-0.708-4.114-1.067c-0.347-0.085-0.692-0.182-1.043-0.257l-1.068-0.174
		c-0.714-0.113-1.431-0.227-2.151-0.341c-1.44-0.227-2.89-0.474-4.367-0.516c-1.472-0.083-2.957-0.193-4.446-0.234
		c-1.483,0.048-2.975,0.096-4.475,0.145l-1.125,0.044l-1.111,0.129l-2.227,0.266c-5.927,0.771-11.776,2.228-17.22,4.321
		c-5.455,2.067-10.689,4.501-15.493,7.288c-2.664,1.531-5.242,3.112-7.729,4.731l0,0c-18.101-16.315-43.373-21.208-65.862-13.871
		c-0.058,0.243,0.005,0.434-0.076,0.684c-2.118,6.49-3.865,13.251,24.207,43.798c28.072,30.547,53.754,57.173,58.312,45.703
		c7.534-18.957,7.245-40.592-2.774-58.908c1.609-0.782,3.228-1.541,4.857-2.259c4.215-1.884,8.517-3.283,12.7-4.349
		c4.191-1.097,8.265-1.53,12.04-1.543l1.406,0.006l0.696-0.003l0.679,0.077c0.901,0.099,1.789,0.185,2.666,0.257
		c0.85,0.168,1.695,0.334,2.534,0.499c0.84,0.108,1.634,0.394,2.42,0.637c0.392,0.116,0.783,0.232,1.171,0.347l0.58,0.164
		c0.19,0.071,0.375,0.161,0.561,0.239c0.744,0.323,1.476,0.626,2.2,0.912c0.18,0.075,0.363,0.133,0.539,0.22l0.522,0.291
		c0.346,0.188,0.69,0.376,1.032,0.562c0.341,0.179,0.681,0.357,1.018,0.535c0.338,0.165,0.673,0.338,0.992,0.58
		c2.595,1.667,4.976,3.451,7.084,5.431c0.525,0.497,1.039,0.984,1.542,1.46c0.252,0.234,0.501,0.465,0.747,0.693
		c0.245,0.23,0.47,0.519,0.702,0.768c0.919,1.016,1.791,1.979,2.61,2.885c0.806,0.938,1.515,1.938,2.196,2.784
		c0.668,0.881,1.313,1.611,1.843,2.394c2.117,3.113,3.327,4.891,3.327,4.891c0.347,0.508,0.733,1.014,1.144,1.49
		c5.878,6.801,16.157,7.549,22.959,1.671C507.897,170.595,508.645,160.316,502.766,153.514z M399.617,142.532
		c0.557,0.621,1.106,1.254,1.644,1.901C400.723,143.786,400.174,143.154,399.617,142.532z M397.966,140.758
		c0.114,0.118,0.224,0.242,0.337,0.361C398.19,140.999,398.08,140.876,397.966,140.758z M404.894,149.253
		c0.1,0.146,0.201,0.291,0.3,0.437C405.095,149.543,404.994,149.398,404.894,149.253z M403.078,146.732
		c0.147,0.193,0.289,0.388,0.432,0.583C403.366,147.121,403.224,146.925,403.078,146.732z"/>
</g>
</svg>
