<svg xmlns="http://www.w3.org/2000/svg" viewBox="0 0 512 512" enable-background="new 0 0 512 512"><path fill="#13A031" d="M14.155 247.11c2.103-52.273 20.79-100.27 50.932-138.894 7.875-10.09 16.52-19.55 25.867-28.268 8.518-7.944 17.61-15.28 27.207-21.94 15.388-10.68 32.08-19.602 49.776-26.518 9.308-3.637 18.888-6.728 28.715-9.205 10.944-2.758 22.183-4.77 33.66-5.98 1.483-.156 2.97-.303 4.46-.433 6.995-.608 14.076-.92 21.23-.92 8.243 0 16.39.416 24.42 1.22 5.388.54 10.72 1.264 15.997 2.152 11.503 1.935 22.734 4.67 33.625 8.165 23.742 7.62 45.883 18.807 65.8 32.93 2.82 2 5.593 4.06 8.322 6.175 1.417 1.085 2.83 2.177 4.237 3.286.586.463 1.15.954 1.7 1.464 5.68 4.696 11.14 9.652 16.367 14.84-4.01 4.41-9.514 5.056-18.374 2.71-7.6-2.013-14.63-6.082-22.158-8.466-22.014-6.973-36.926-.366-46.89 20.3-.287.597-.66 1.173-.826 1.802-3.88 14.6-21.48 15.486-27.616 27.108-5.823 11.028-10.008 21.905-20.978 30.202-10.618 8.03-18.926 19.898-26.114 31.412-5.054 8.097-3.072 17.984 3.362 25.893 1.647 2.024 3.995 3.46 5.848 5.336 16.586 16.787 16.962 31.737-.016 47.708-8.158 7.674-14.38 14.304-17.058 26.753-2.922 13.586-15.997 16.08-29.82 14.883-2.414-.21-4.62-1.502-5.874-3.573-5.594-9.235-12.608-17.022-26.07-17.274-4.608-.086-8.847-7.33-13.677-10.69-9.655-6.713-18.92-14.614-29.573-19.135-22.15-9.4-42.698.37-50.03 23.78-4.094 13.065-5.306 27.07-7.35 40.724-1.252 8.354.404 18.68-9.66 21.902-10.82 3.463-16.597-5.548-22.4-12.78-11.15-13.9-15.81-30.254-17.7-47.6-.357-3.276-.14-6.612-.392-9.905-1.796-23.42-7.282-29.335-28.945-29.162zm327.04 101.077c-11.015 6.202-21.02 7.362-31.08-.798-9.335-7.573-18.422-5.884-27.19.54-9.04 6.624-17.767 13.683-26.545 20.66-1.522 1.21-2.772 2.85-3.887 4.47-10.113 14.683-2.818 32.85 14.975 33.323 18.82.5 36.346 3.037 53.307 11.635 6.787 3.44 15.31 3.453 19.192 4.242 26.194.65 39.793-10.66 39.512-32.8-.146-11.333-3.904-23.47-9.1-33.68-7.103-13.955-15.06-15.547-29.185-7.595zm-39.3-126.693c1.91-.81 3.85-1.505 5.844-1.976 8.036-1.9 11.295-5.977 14.022-13.948 4.125-12.062 10.18-23.887 17.53-34.32 8.792-12.477 10.33-17.144 1.152-25.105-3.842-3.333-9.346-4.044-13.883-1.745-7.222 3.66-13.042 8.213-7.933 20.445 1.16 2.78-1.102 7.553-2.833 10.855-2.446 4.664-5.422 9.05-8.85 14.31-1.603 2.46-4.028 4.264-6.823 5.162-9.907 3.183-15.044 7.477-15.723 13.758-1.014 9.38 8.81 16.248 17.497 12.564zm-33.615 94.61c14.82 2.17 29.64 4.5 44.55 5.735 2.388.196 6.665-4.307 7.507-7.346 1.71-6.176-2.485-10.673-8.296-10.982-12.454-.664-25.02-.722-37.435.28-2.37.19-4.558 2.605-6.71 4.96-1.692 1.85-1.948 4.67-.458 6.685.286.387.55.624.844.667zM111.36 334.96c-4.233 2.103-9.253 5.19-10.895 9.163-1.08 2.61.084 6.147 1.25 10.44.64 2.35 3.3 3.506 5.445 2.35 3.714-2 6.388-3.253 7.835-5.353 2.292-3.328 3.495-8.023 3.4-12.082-.04-1.684-5.642-5.21-7.036-4.517zm219.02-36.297c-2.982 1.548-3.572 5.575-1.2 7.953 5.208 5.22 11.003 5.375 17.25 3.686 2.718-.734 4.36-3.552 3.528-6.242-3.056-9.866-8.148-11.328-19.578-5.396z"/></svg>