<svg xmlns="http://www.w3.org/2000/svg" viewBox="0 0 512 512" enable-background="new 0 0 512 512"><path fill="#FFA9BA" d="M475.54 198.425c-2.008-5.904 2.155-13.382 10.77-21.137 3.44-3.096 3.89-8.305 1.174-12.052-23.598-32.546-65.977-48.31-106.704-36.215-5.602 1.666-10.942 3.788-15.99 6.316-6.65 3.328-14.24-2.335-12.948-9.657.977-5.54 1.487-11.238 1.487-17.056 0-44.62-29.977-82.23-70.887-93.81-4.513-1.28-9.22 1.133-10.923 5.504-4.716 12.1-10.84 19.41-17.532 19.41-6.55 0-12.555-7.002-17.23-18.645-1.758-4.38-6.668-6.634-11.156-5.172-39.044 12.725-67.26 49.42-67.26 92.713 0 5.798.505 11.48 1.476 17 1.287 7.315-6.293 12.97-12.94 9.654-5.015-2.502-10.316-4.605-15.875-6.256-44.043-13.08-90.014 6.42-112.08 44.49-2.355 4.06-1.205 9.225 2.613 11.957 10.812 7.738 16.524 15.646 14.802 22.215-1.668 6.363-10.023 10.404-22.554 11.962-4.744.59-8.148 4.863-7.814 9.632 2.756 39.384 29.443 74.763 69.52 86.665 4.8 1.426 9.625 2.464 14.438 3.133 7.222 1.004 10.35 9.68 5.427 15.06-3.28 3.586-6.333 7.462-9.12 11.623C60.18 384.636 65.817 435.47 97.11 467.79c2.702 2.79 6.92 3.593 10.425 1.915 6.878-3.293 12.693-3.915 16.675-1.26 3.835 2.555 5.515 7.85 5.283 15.042-.126 3.906 2.315 7.475 6.01 8.75 40.817 14.072 87.546-.378 112.713-37.936l.09-.132c3.634-5.444 11.534-5.444 15.17 0 .03.044.058.09.088.133 27.59 41.175 81.096 54.58 124.316 33.074 3.576-1.78 5.512-5.718 4.853-9.657-1.456-8.698-.316-15.255 3.848-18.455 3.83-2.942 9.745-2.683 16.915.212 3.832 1.547 8.27.265 10.656-3.11 22.676-32.05 24.555-76.05 1.398-110.606-2.788-4.16-5.84-8.037-9.12-11.623-4.923-5.38-1.797-14.056 5.426-15.06 4.813-.67 9.637-1.707 14.438-3.133 44.104-13.098 71.996-54.626 69.62-98.637-.248-4.573-3.817-8.327-8.385-8.646-11.864-.83-19.946-4.234-21.986-10.233zm-219.59 69.373l-.058.294-.057-.294.354-.392c-.158.254-.24.392-.24.392z"/></svg>