<?xml version="1.0" encoding="iso-8859-1"?>
<!-- Generator: Adobe Illustrator 18.1.0, SVG Export Plug-In . SVG Version: 6.00 Build 0)  -->
<!DOCTYPE svg PUBLIC "-//W3C//DTD SVG 1.1//EN" "http://www.w3.org/Graphics/SVG/1.1/DTD/svg11.dtd">
<svg version="1.1" xmlns="http://www.w3.org/2000/svg" xmlns:xlink="http://www.w3.org/1999/xlink" x="0px" y="0px"
	 viewBox="0 0 512 512" enable-background="new 0 0 512 512" xml:space="preserve">
<g id="Layer_2">
	<path fill="#00B89C" d="M194.836,250.92c-41.694-17.609-77.172-49.704-98.847-85.267c-10.828-17.796-18.696-35.324-23.539-49.142
		c-4.947-13.567-6.896-23.37-6.896-23.37l-0.001-0.001l0,0l0.001-0.001l0.001,0.001c0.003-0.001,8.406-5.237,21.616-10.918
		c13.309-5.906,31.376-12.142,51.721-16.506c40.638-8.611,88.45-5.26,130.094,12.466c41.695,17.607,77.171,49.703,98.848,85.266
		c10.828,17.796,18.696,35.325,23.54,49.142c4.948,13.57,6.896,23.372,6.896,23.372s-8.403,5.235-21.617,10.917
		c-13.309,5.906-31.376,12.142-51.721,16.507C284.292,271.996,236.48,268.645,194.836,250.92z M210.505,425.036
		c-8.415,12.948-14.653,25.689-18.561,35.764c-3.975,9.908-5.654,17.061-5.654,17.061s6.157,4.136,15.865,8.682
		c9.782,4.731,23.099,9.832,38.112,13.522c30.022,7.355,65.487,5.661,96.637-6.909c31.185-12.481,58.087-35.753,74.953-61.561
		c8.416-12.948,14.653-25.688,18.561-35.763c3.974-9.905,5.652-17.058,5.652-17.058l0.002-0.003l0-0.001l0,0l-0.001,0
		c-0.002-0.001-6.158-4.136-15.864-8.682c-9.782-4.732-23.099-9.832-38.112-13.522c-30.021-7.355-65.487-5.661-96.637,6.908
		C254.274,375.957,227.372,399.229,210.505,425.036z"/>
</g>
<g id="Layer_1">
</g>
</svg>
