<?xml version="1.0" encoding="iso-8859-1"?>
<!-- Generator: Adobe Illustrator 18.1.0, SVG Export Plug-In . SVG Version: 6.00 Build 0)  -->
<!DOCTYPE svg PUBLIC "-//W3C//DTD SVG 1.1//EN" "http://www.w3.org/Graphics/SVG/1.1/DTD/svg11.dtd">
<svg version="1.1" xmlns="http://www.w3.org/2000/svg" xmlns:xlink="http://www.w3.org/1999/xlink" x="0px" y="0px"
	 viewBox="0 0 512 512" enable-background="new 0 0 512 512" xml:space="preserve">
<g id="Layer_10">
	<path fill="#DEE2E2" d="M500.951,483.988H337.107c-6.228,8.153-16.047,13.418-27.099,13.418h-95.414
		c-0.113,1.432-0.323,2.835-0.607,4.212H21.716c-6.6,0-12-5.4-12-12v-81.043c10.428-17.114,29.264-28.542,50.77-28.542
		c22.648,0,42.331,12.676,52.355,31.317c5.344-2.26,11.219-3.51,17.386-3.51c10.875,0,20.839,3.89,28.585,10.35
		c0.056-22.859,18.602-41.374,41.475-41.374c17.107,0,31.79,10.358,38.132,25.143c6.401-9.091,16.97-15.037,28.934-15.037
		c12.862,0,24.118,6.866,30.309,17.131c7.565-5.884,17.066-9.398,27.392-9.398c0-32.811,26.599-59.41,59.41-59.41
		c27.641,0,50.871,18.878,57.506,44.443c5.685-3.899,12.563-6.184,19.977-6.184c19.535,0,35.372,15.836,35.372,35.372
		c0,2.73-0.32,5.384-0.905,7.937c1.476-0.364,2.992-0.622,4.536-0.789V483.988z M500.951,164.939
		c-4.711,1.8-8.746,4.967-11.621,9.017c-4.592-10.441-15.02-17.735-27.157-17.735c-16.356,0-29.618,13.24-29.658,29.586
		c-5.539-4.619-12.665-7.401-20.441-7.401c-17.641,0-31.941,14.3-31.941,31.941s14.3,31.941,31.941,31.941h88.877V164.939z
		 M87.436,266.973c-2.019,0-3.979,0.25-5.855,0.713c0.419-1.825,0.647-3.723,0.647-5.676c0-13.969-11.324-25.294-25.294-25.294
		c-8.521,0-16.052,4.218-20.635,10.674c-4.518-10.275-14.694-17.486-26.584-17.714v86.046h77.72
		c13.462,0,24.375-10.913,24.375-24.375C111.811,277.886,100.898,266.973,87.436,266.973z"/>
</g>
<g id="Layer_1">
</g>
</svg>
