<?xml version="1.0" encoding="iso-8859-1"?>
<!-- Generator: Adobe Illustrator 19.2.1, SVG Export Plug-In . SVG Version: 6.00 Build 0)  -->
<!DOCTYPE svg PUBLIC "-//W3C//DTD SVG 1.1//EN" "http://www.w3.org/Graphics/SVG/1.1/DTD/svg11.dtd">
<svg version="1.1" xmlns="http://www.w3.org/2000/svg" xmlns:xlink="http://www.w3.org/1999/xlink" x="0px" y="0px"
	 viewBox="0 0 512 512" enable-background="new 0 0 512 512" xml:space="preserve">
<g id="Layer_2">
	<path fill="#626566" d="M487.175,184.883c-17.017-58.5-32.634-105.394-91.134-88.377c-1.072,0.312-2.145,0.655-3.22,1.026
		c-8.178,2.649-15.848,6.166-22.932,10.423c-4.889,2.938-10.766-1.59-9.309-7.104c2.38-9.007,3.65-18.465,3.65-28.221
		c0-60.925-49.389-62.822-110.314-62.822c-60.925,0-110.314,1.897-110.314,62.822c0,1.115,0.03,2.242,0.085,3.377
		c0.203,6.743,1.009,13.332,2.368,19.717c1.132,5.32-4.495,9.558-9.219,6.864c-6.646-3.789-13.787-6.941-21.378-9.342
		c-58.089-18.371-74.791,28.147-93.162,86.237C3.925,237.572-9.159,285.235,48.93,303.606c1.063,0.336,2.146,0.647,3.245,0.937
		c5.535,1.569,11.096,2.685,16.643,3.37c5.276,0.651,7.408,7.144,3.554,10.806c-4.841,4.599-9.331,9.704-13.386,15.312
		c-35.703,49.368,3.206,79.848,52.574,115.55c49.368,35.702,90.5,63.108,126.203,13.74c0.654-0.904,1.29-1.835,1.911-2.789
		c0.022-0.032,0.043-0.064,0.065-0.096c2.637-3.897,8.467-3.82,10.75,0.295c0.596,1.074,1.213,2.142,1.852,3.202
		c31.433,52.19,74.72,28.333,126.911-3.1s93.52-58.54,62.086-110.73c-0.576-0.956-1.182-1.905-1.816-2.849
		c-5.765-8.95-12.622-16.797-20.292-23.472c-4.471-3.891-1.674-11.261,4.249-11.076c11.266,0.351,22.777-1.033,34.187-4.352
		C516.166,291.336,504.192,243.383,487.175,184.883z"/>
</g>
<g id="Layer_1">
</g>
</svg>
