<?xml version="1.0" encoding="iso-8859-1"?>
<!-- Generator: Adobe Illustrator 18.1.0, SVG Export Plug-In . SVG Version: 6.00 Build 0)  -->
<!DOCTYPE svg PUBLIC "-//W3C//DTD SVG 1.1//EN" "http://www.w3.org/Graphics/SVG/1.1/DTD/svg11.dtd">
<svg version="1.1" xmlns="http://www.w3.org/2000/svg" xmlns:xlink="http://www.w3.org/1999/xlink" x="0px" y="0px"
	 viewBox="0 0 512 512" enable-background="new 0 0 512 512" xml:space="preserve">
<g id="Layer_4">
	<path fill="#FFE564" d="M431.232,130.963c-15.328-32.577-54.163-46.56-86.742-31.232l-30.193,14.206l5.923-32.838
		c1.302-7.373,1.406-15.344,0-23.142c-6.391-35.432-40.293-58.975-75.727-52.585c-35.432,6.391-58.975,40.293-52.585,75.727
		l6.007,33.3l-30.684-14.267c-6.802-3.131-14.482-5.257-22.383-5.878c-35.894-2.819-67.277,23.992-70.094,59.886
		c-2.819,35.894,23.992,67.277,59.886,70.096l24.875,1.954l-21.112,21.744c-4.924,5.114-9.288,11.307-12.425,18.118
		c-15.037,32.654-0.754,71.312,31.898,86.347c32.654,15.037,71.312,0.754,86.347-31.898l10.731-23.305l10.246,23.52
		c2.862,6.496,6.935,12.885,12.047,18.373c24.503,26.302,65.689,27.763,91.993,3.26c26.302-24.503,27.763-65.691,3.26-91.993
		l-22.692-24.358l27.837-2.314c7.458-0.648,15.185-2.604,22.355-5.979C432.577,202.377,446.56,163.542,431.232,130.963z"/>
</g>
<g id="Layer_1">
</g>
</svg>
