<?xml version="1.0" encoding="iso-8859-1"?>
<!-- Generator: Adobe Illustrator 18.1.0, SVG Export Plug-In . SVG Version: 6.00 Build 0)  -->
<!DOCTYPE svg PUBLIC "-//W3C//DTD SVG 1.1//EN" "http://www.w3.org/Graphics/SVG/1.1/DTD/svg11.dtd">
<svg version="1.1" xmlns="http://www.w3.org/2000/svg" xmlns:xlink="http://www.w3.org/1999/xlink" x="0px" y="0px"
	 viewBox="0 0 512 512" enable-background="new 0 0 512 512" xml:space="preserve">
<g id="Layer_3">
	<path fill="#76DFFF" d="M497.63,490c4.623,0,8.37-3.747,8.37-8.37V376.316c0-1.756-1.438-3.244-3.192-3.333
		c-21.936-1.112-38.77-13.531-38.77-25.814c0-9.665,3.559-16.484,7.008-20.821c1.858-2.337-0.054-5.774-3.015-5.394
		c-44.26,5.686-33.383,52.11-87.023,52.11c-23.473,0-41.962-13.022-41.962-25.895c0-9.665,3.559-16.484,7.008-20.821
		c1.858-2.337-0.054-5.774-3.015-5.394c-44.26,5.686-33.383,52.11-87.023,52.11c-23.473,0-41.962-13.022-41.962-25.895
		c0-9.665,3.559-16.484,7.008-20.821c1.858-2.337-0.054-5.774-3.015-5.394c-44.26,5.686-33.383,52.11-87.023,52.11
		c-23.473,0-41.962-13.022-41.962-25.895c0-9.665,3.559-16.484,7.008-20.821c1.858-2.337-0.054-5.774-3.015-5.394
		c-44.26,5.686-33.383,52.11-87.023,52.11L5.67,480.33c-0.08,5.317,4.208,9.67,9.526,9.67H497.63z"/>
</g>
<g id="Layer_1">
</g>
</svg>
