<?xml version="1.0" encoding="iso-8859-1"?>
<!-- Generator: Adobe Illustrator 18.1.0, SVG Export Plug-In . SVG Version: 6.00 Build 0)  -->
<!DOCTYPE svg PUBLIC "-//W3C//DTD SVG 1.1//EN" "http://www.w3.org/Graphics/SVG/1.1/DTD/svg11.dtd">
<svg version="1.1" xmlns="http://www.w3.org/2000/svg" xmlns:xlink="http://www.w3.org/1999/xlink" x="0px" y="0px"
	 viewBox="0 0 512 512" enable-background="new 0 0 512 512" xml:space="preserve">
<g id="Layer_4">
	<path fill="#FFB636" d="M259.031,323.412c-0.007,0-0.013,0-0.02,0c-12.192-0.007-23.288-6.066-29.681-16.21
		c-2.541-4.032-1.333-9.361,2.7-11.903s9.362-1.332,11.903,2.7c3.215,5.102,8.854,8.148,15.086,8.152c0.003,0,0.007,0,0.01,0
		c6.24,0,11.892-3.05,15.119-8.16c2.545-4.03,7.878-5.232,11.906-2.688c4.029,2.546,5.233,7.876,2.688,11.906
		C282.334,317.355,271.228,323.412,259.031,323.412z M193.709,180.599c3.852-2.807,4.699-8.206,1.892-12.058
		c-8.646-11.865-21.619-18.673-35.591-18.679c-0.007,0-0.011,0-0.018,0c-13.979,0-26.965,6.806-35.628,18.673
		c-2.811,3.85-1.968,9.249,1.882,12.06c3.851,2.811,9.249,1.968,12.06-1.882c5.377-7.366,13.281-11.59,21.688-11.59
		c0.003,0,0.007,0,0.01,0c8.396,0.003,16.286,4.226,21.648,11.584c1.689,2.318,4.317,3.548,6.982,3.548
		C190.396,182.255,192.175,181.717,193.709,180.599z M391.89,180.599c3.853-2.807,4.699-8.206,1.892-12.058
		c-8.646-11.865-21.618-18.673-35.59-18.679c-0.007,0-0.012,0-0.019,0c-13.979,0-26.966,6.806-35.629,18.673
		c-2.811,3.85-1.968,9.249,1.882,12.06c3.851,2.811,9.25,1.968,12.06-1.882c5.378-7.366,13.281-11.59,21.688-11.59
		c0.003,0,0.008,0,0.011,0c8.396,0.004,16.286,4.226,21.648,11.584c1.689,2.318,4.316,3.548,6.981,3.548
		C388.576,182.255,390.355,181.717,391.89,180.599z"/>
</g>
<g id="Layer_1">
</g>
</svg>
