<?xml version="1.0" encoding="iso-8859-1"?>
<!-- Generator: Adobe Illustrator 18.1.0, SVG Export Plug-In . SVG Version: 6.00 Build 0)  -->
<!DOCTYPE svg PUBLIC "-//W3C//DTD SVG 1.1//EN" "http://www.w3.org/Graphics/SVG/1.1/DTD/svg11.dtd">
<svg version="1.1" xmlns="http://www.w3.org/2000/svg" xmlns:xlink="http://www.w3.org/1999/xlink" x="0px" y="0px"
	 viewBox="0 0 512 512" enable-background="new 0 0 512 512" xml:space="preserve">
<g id="Layer_3">
	<path fill="#D32A2A" d="M353.192,21.28c2.378-8.797-6.327-16.528-14.741-13.03c-14.773,6.141-35.013,15.415-57.003,27.964
		c-0.942-1.634-1.853-3.214-2.708-4.696c-1.081-1.789-2.092-3.463-3.028-5.01c-0.978-1.548-1.877-2.97-2.689-4.254
		c-1.668-2.568-3.042-4.586-4.009-5.962c-0.996-1.376-1.527-2.11-1.527-2.11c-1.136-1.555-2.576-3.03-4.22-4.22
		c-8.437-6.106-20.225-4.216-26.331,4.22c0,0-0.531,0.734-1.527,2.11c-0.967,1.376-2.341,3.394-4.009,5.962
		c-0.812,1.284-1.71,2.706-2.689,4.254c-0.935,1.548-1.947,3.222-3.028,5.01c-1.031,1.789-2.129,3.692-3.285,5.698
		c-1.098,2.006-2.252,4.116-3.456,6.317c-2.31,4.403-4.804,9.172-7.221,14.217c-2.44,5.045-4.868,10.365-7.232,15.868
		c-2.365,5.503-4.705,11.19-6.898,16.969c-1.797,4.71-3.541,9.482-5.19,14.264c-10.713,11.583-20.492,24.173-28.786,37.78
		c-17.443,22.974-27.801,51.621-27.801,82.691c0,3.992,0.181,7.864,0.516,11.629c0,0.063-0.003,0.125-0.003,0.188l0.02-0.001
		c6.099,67.417,64.811,98.639,136.352,98.639c75.599,0,136.885-34.856,136.885-110.456
		C409.585,109.801,337.088,80.852,353.192,21.28z"/>
</g>
<g id="Layer_1">
</g>
</svg>
