<?xml version="1.0" encoding="iso-8859-1"?>
<!-- Generator: Adobe Illustrator 19.1.0, SVG Export Plug-In . SVG Version: 6.00 Build 0)  -->
<!DOCTYPE svg PUBLIC "-//W3C//DTD SVG 1.1//EN" "http://www.w3.org/Graphics/SVG/1.1/DTD/svg11.dtd">
<svg version="1.1" xmlns="http://www.w3.org/2000/svg" xmlns:xlink="http://www.w3.org/1999/xlink" x="0px" y="0px"
	 viewBox="0 0 512 512" enable-background="new 0 0 512 512" xml:space="preserve">
<g id="Layer_2">
	<path fill="#FDE364" d="M352.966,400.089l0.03,0.008c-13.08-20.624-12.24-28.911-12.24-36.246c0-12.502-38.136,3.06-54.538-14.73
		c-2.797-3.03-0.495-7.927,3.615-7.612c19.634,1.53,42.786-2.535,42.786-9.93c0-5.22-11.55-17.107-15.547-30.404
		c23.572-1.732,56.51-7.792,46.378-23.714c-11.43-17.969-49.356-76.265-37.506-116.246c1.47-3.585,3.015-7.125,4.642-10.627
		c0.015-0.023,0.022-0.038,0.038-0.06l-0.015,0.023c20.722-44.556,54.156-82.002,95.637-107.741
		c7.207-4.47,6.284-15.157-1.568-18.367C395.706,12.622,364.072,6,330.849,6C192.779,6,80.853,117.934,80.853,256.004
		S192.779,506,330.849,506c32.902,0,64.235-6.495,92.974-18.097c8.205-3.307,9.165-14.49,1.665-19.184
		C396.974,450.892,372.292,427.508,352.966,400.089"/>
</g>
<g id="Layer_1">
</g>
</svg>
