<?xml version="1.0" encoding="iso-8859-1"?>
<!-- Generator: Adobe Illustrator 18.1.0, SVG Export Plug-In . SVG Version: 6.00 Build 0)  -->
<!DOCTYPE svg PUBLIC "-//W3C//DTD SVG 1.1//EN" "http://www.w3.org/Graphics/SVG/1.1/DTD/svg11.dtd">
<svg version="1.1" xmlns="http://www.w3.org/2000/svg" xmlns:xlink="http://www.w3.org/1999/xlink" x="0px" y="0px"
	 viewBox="0 0 512 512" enable-background="new 0 0 512 512" xml:space="preserve">
<g id="Layer_2">
	<path fill="#AF773F" d="M150.077,267.786c0,0-8.89,51.352-14.681,84.802c-5.791,33.45-28.455,82.417-28.455,82.417l-0.495-0.086
		c-1.682,3.165-4.982,5.492-9.106,5.492H69.63c-8.311,0-13.281-9.444-8.39-16.164c0,0,3.956-11.331,13.1-11.331
		c3.445,0,8.04,0.634,12.696,1.791c7.42-42.965,14.469-89.298,13.628-146.615L150.077,267.786z M395.096,236.793l-87.296-22.304
		c-43.59,37.639-2.056,123.461,14.512,146.278c15.646,21.547,13.733,45.988,10.246,60.974c-4.118-0.925-8.094-1.429-11.158-1.429
		c-9.144,0-13.1,11.331-13.1,11.331c-4.891,6.72,0.078,16.164,8.39,16.164h27.71c3.128,0,5.781-1.338,7.615-3.364
		c1.66-1.34,2.8-3.763,3.088-7.699c1.532-20.912,18.401-37.6,12.565-55.72C349.573,324.844,390.547,298.884,395.096,236.793z
		 M98.212,101.524c-3.407-9.465-10.812-16.151-16.495-20.127c-4.046-2.83-9.665-1.493-11.941,2.888
		c-4.786,9.214-10.427,25.572-0.32,39.659C84.493,144.904,98.212,101.524,98.212,101.524z"/>
</g>
<g id="Layer_1">
</g>
</svg>
