<?xml version="1.0" encoding="iso-8859-1"?>
<!-- Generator: Adobe Illustrator 18.1.0, SVG Export Plug-In . SVG Version: 6.00 Build 0)  -->
<!DOCTYPE svg PUBLIC "-//W3C//DTD SVG 1.1//EN" "http://www.w3.org/Graphics/SVG/1.1/DTD/svg11.dtd">
<svg version="1.1" id="Layer_1" xmlns="http://www.w3.org/2000/svg" xmlns:xlink="http://www.w3.org/1999/xlink" x="0px" y="0px"
	 viewBox="0 0 512 512" enable-background="new 0 0 512 512" xml:space="preserve">
<g id="Layer_2">
	<path fill="#94DEF7" d="M508.36,241.99c-0.123-0.424-0.26-0.795-0.405-1.142c5.304,107.375-138.325,176.779-239.848,176.779
		c-54.532,0-67.454-46.877-87.643-95.976c-0.505-1.798-1.042-3.66-1.632-5.615c-21.07-69.795-137.899-101.8-169.134-72.73
		C4.803,247.599,2,253.601,2,261.516c0,1.012,0.018,2.017,0.049,3.018C4.113,394.814,139.282,499.93,269.945,499.93
		c131.673,0,238.414-106.742,238.414-238.414C508.36,256.857,509.032,244.316,508.36,241.99z"/>
</g>
<g id="Layer_3">
	<path fill="#00B1FF" d="M507.965,241.215c-0.006-0.123-0.004-0.244-0.01-0.367c0.143,0.342,0.279,0.708,0.4,1.126
		c-0.263-3.058-0.633-6.051-1.056-9.011c-0.032-0.278-0.055-0.554-0.09-0.833c-0.01-0.006-0.021-0.012-0.031-0.018
		c-8.724-58.79-48.079-97.941-77.889-113.876c-0.912-1.437-1.995-3.06-3.237-4.838c-0.02-0.079-0.036-0.152-0.055-0.234
		c-0.166-0.766-0.349-1.615-0.549-2.538c-0.181-0.91-0.376-1.895-0.585-2.947c-0.36-2.108-0.741-4.43-1.015-6.874
		c-0.277-2.439-0.456-4.996-0.447-7.456c-0.01-2.462,0.258-4.803,0.696-6.683c0.397-1.924,1.101-3.176,1.611-3.982
		c0.081-0.089,0.16-0.173,0.222-0.266l0.089-0.14c0.045-0.034,0.087-0.069,0.12-0.109c0.072-0.077,0.123-0.165,0.181-0.25
		c0.087-0.066,0.163-0.137,0.229-0.216c0.107-0.171,0.334-0.293,0.447-0.489c0.111-0.074,0.213-0.156,0.307-0.246
		c0.081-0.097,0.17-0.202,0.313-0.289c0.124-0.094,0.243-0.196,0.356-0.307c0.107-0.114,0.309-0.193,0.446-0.31
		c0.156-0.111,0.279-0.24,0.452-0.356c0.192-0.108,0.38-0.221,0.566-0.341l0.277-0.184l0.069-0.047l0.034-0.024
		c-0.514,0.261,0.717-0.367,0.608-0.313l0.042-0.025l0.333-0.198l1.329-0.79l0.663-0.394l1.071-0.669l2.165-1.446
		c0.764-0.505,1.293-0.942,1.892-1.403c0.59-0.453,1.158-0.931,1.73-1.397c1.104-0.982,2.203-1.955,3.22-2.99
		c2.022-2.081,3.867-4.254,5.436-6.51c3.167-4.502,5.389-9.192,6.825-13.662c1.431-4.48,2.123-8.741,2.352-12.61
		c0.237-3.871-0.02-7.366-0.47-10.397c-0.215-1.514-0.544-2.927-0.824-4.207c-0.339-1.29-0.672-2.457-1.018-3.503
		c-0.719-2.096-1.418-3.699-1.976-4.794c-0.542-1.093-0.925-1.68-0.913-1.734c0-2.031-1.646-3.677-3.677-3.677
		c-2.031,0-3.677,1.646-3.677,3.677c0.011-0.054-0.371,0.397-1.015,1.246c-0.627,0.83-1.548,2.048-2.719,3.598
		c-0.566,0.756-1.18,1.579-1.86,2.449c-0.64,0.878-1.393,1.793-2.129,2.753c-1.501,1.913-3.194,3.949-4.97,5.968
		c-1.784,2.016-3.684,4.002-5.631,5.805c-1.953,1.8-3.962,3.383-5.935,4.721c-0.971,0.691-1.984,1.262-2.949,1.843
		c-0.511,0.255-0.988,0.537-1.477,0.802c-0.254,0.118-0.515,0.225-0.755,0.359c-0.235,0.121-0.519,0.3-0.64,0.307
		c-0.156,0.047-0.305,0.1-0.448,0.162l-0.243,0.131l-0.699,0.327l-1.4,0.656l-0.351,0.164l-0.044,0.021
		c-0.138,0.069,1.065-0.543,0.523-0.267l-0.136,0.068l-0.272,0.136l-1.086,0.55l-2.165,1.13c-0.722,0.403-1.448,0.87-2.167,1.314
		c-0.719,0.465-1.427,0.893-2.133,1.425l-2.097,1.607c-5.574,4.353-10.324,10.744-13.017,17.447
		c-1.281,3.252-2.124,6.517-2.618,9.686c-3.718-2.178-7.716-4.218-12.143-5.924c-5.35-2.082-11.365-3.729-18.329-4.023
		c-3.461-0.156-7.197,0.17-10.933,1.044c-3.743,0.906-7.489,2.417-10.773,4.478l-1.213,0.787l-0.3,0.2
		c-0.105,0.069,0.617-0.399,0.294-0.188l-0.039,0.029l-0.079,0.057l-0.314,0.228c-0.418,0.304-0.834,0.607-1.249,0.908l-0.73,0.523
		c-0.219,0.147-0.326,0.283-0.63,0.457c-1.047,0.756-2.107,1.382-3.138,1.994c-2.071,1.187-4.122,2.139-6.192,2.876
		c-1.033,0.359-2.068,0.709-3.092,0.949c-1.028,0.313-2.036,0.465-3.025,0.68c-1.967,0.338-3.827,0.559-5.39,0.655
		c-1.587,0.153-2.832,0.12-3.685,0.186c-0.83,0.021-1.217,0.084-1.048,0.184c-3.712-2.32-8.602-1.192-10.922,2.52
		c-2.32,3.712-1.192,8.602,2.52,10.922c0.172,0.095,0.553,1.025,1.368,2.479c0.824,1.421,2.093,3.418,4.07,5.575
		c1.984,2.124,4.66,4.542,8.256,6.574c3.574,2.056,8.07,3.889,13.332,4.725c5.245,0.91,11.233,0.794,17.244-0.526
		c3.005-0.653,5.986-1.638,8.894-2.852l0.55-0.237l0.62-0.298l1.242-0.61l1.244-0.628l0.992-0.526
		c0.013-0.007,0.026-0.014,0.04-0.021c0.268,0.033,0.74,0.083,1.404,0.223c0.805,0.193,1.855,0.443,3.02,0.848
		c2.357,0.761,5.185,1.989,8.117,3.41c1.452,0.739,2.981,1.462,4.476,2.283c1.505,0.807,2.979,1.696,4.503,2.526
		c1.509,0.85,2.988,1.743,4.443,2.643c1.484,0.867,2.932,1.755,4.333,2.649c1.421,0.895,2.804,1.766,4.141,2.608
		c1.345,0.866,2.645,1.703,3.893,2.507c4.29,2.82,7.961,5.233,10.771,7.08c0.101,0.136,0.196,0.268,0.299,0.406
		c21.579,17.085,36.028,42.773,38.141,71.892c-0.998-0.854-1.982-1.651-2.872-2.397c-2.216-1.767-4.078-3.186-5.433-4.158
		c-1.4-0.998-2.201-1.569-2.201-1.569c-2.067-1.467-4.924-1.564-7.116-0.024c-2.783,1.956-3.454,5.798-1.498,8.581l0.319,0.454
		c0,0,0.462,0.658,1.271,1.809c0.84,1.192,2.011,2.966,3.359,5.101c0.648,1.092,1.385,2.239,2.089,3.499
		c0.714,1.253,1.468,2.563,2.174,3.95c0.744,1.366,1.435,2.805,2.122,4.258c0.728,1.437,1.291,2.949,1.939,4.41
		c0.598,1.478,1.103,2.963,1.636,4.395c0.413,1.451,0.884,2.854,1.219,4.198c0.019,0.095,0.041,0.188,0.06,0.282
		c-0.717,2.776-1.553,5.504-2.494,8.182c-0.687,1.113-1.355,2.26-1.985,3.467c-45.484,87.138-130.687,78.792-180.854,3.023
		c-17.245-26.045-48.063-43.714-80.768-53.436c-18.699-7.551-41.129-10.855-64.603-10.855c-53.511,0-92.27,6.326-95.012,48.874
		c30.674-21.373,118.321,0.252,153.936,50.866c5.14,9.819,9.563,19.925,13.682,29.94c0.005,0.018,0.011,0.037,0.016,0.055
		c3.365,8.183,6.529,16.287,9.717,24.139c0.393,0.969,0.788,1.934,1.182,2.895c0.276,0.672,0.55,1.357,0.827,2.025
		c0.002-0.002,0.004-0.005,0.006-0.007c13.068,31.496,27.327,57.82,58.081,64.988c0.046,0.011,0.093,0.021,0.139,0.032
		c0.696,0.161,1.401,0.312,2.115,0.453c0.105,0.021,0.211,0.041,0.317,0.061c0.655,0.126,1.318,0.244,1.987,0.354
		c0.154,0.025,0.308,0.05,0.463,0.075c0.624,0.098,1.255,0.188,1.892,0.271c0.197,0.026,0.393,0.052,0.591,0.077
		c0.601,0.074,1.208,0.139,1.82,0.199c0.234,0.023,0.465,0.048,0.701,0.07c0.591,0.053,1.19,0.097,1.791,0.138
		c0.256,0.017,0.509,0.038,0.768,0.053c0.617,0.036,1.243,0.062,1.871,0.085c0.244,0.009,0.484,0.023,0.73,0.03
		c0.872,0.025,1.753,0.039,2.646,0.039c1.609,0,3.228-0.018,4.857-0.053c0.547-0.012,1.102-0.036,1.652-0.052
		c1.087-0.031,2.172-0.059,3.267-0.105c0.652-0.027,1.311-0.068,1.966-0.101c1.001-0.05,2-0.096,3.007-0.159
		c0.697-0.043,1.4-0.1,2.1-0.149c0.975-0.069,1.947-0.133,2.927-0.214c0.721-0.059,1.448-0.131,2.171-0.196
		c0.965-0.087,1.928-0.17,2.897-0.268c0.744-0.075,1.493-0.162,2.239-0.244c0.956-0.104,1.911-0.206,2.871-0.321
		c0.758-0.091,1.52-0.193,2.28-0.291c0.955-0.122,1.908-0.242,2.866-0.375c0.774-0.107,1.551-0.225,2.328-0.339
		c0.947-0.139,1.893-0.276,2.842-0.425c0.184-0.029,0.367-0.053,0.552-0.082c0.26,0.488,0.518,0.972,0.785,1.47
		c0.447,0.833,0.901,1.681,1.362,2.542c0.496,0.859,1,1.731,1.511,2.616c0.522,0.9,1.052,1.812,1.588,2.736
		c0.584,0.929,1.176,1.869,1.774,2.819c0.621,0.965,1.249,1.941,1.883,2.926c0.629,1.001,1.32,1.96,2.048,2.98
		c0.722,1.008,1.451,2.024,2.184,3.048c0.771,1.04,1.541,2.091,2.369,3.109c0.793,1.021,1.705,2.08,2.562,3.124
		c0.86,1.046,1.748,2.099,2.698,3.164c0.971,1.041,1.898,2.072,2.93,3.111c1.028,1.033,2.058,2.07,3.091,3.108
		c2.144,2.086,4.409,4.038,6.827,5.976c2.336,1.948,4.899,3.813,7.508,5.514c1.339,0.832,2.676,1.662,4.009,2.49
		c1.344,0.808,2.753,1.559,4.157,2.26c0.706,0.351,1.39,0.715,2.106,1.043c0.721,0.319,1.441,0.637,2.158,0.954
		c1.449,0.605,2.821,1.288,4.3,1.783c1.467,0.484,2.925,0.966,4.373,1.444c1.443,0.459,2.922,0.799,4.352,1.181
		c2.876,0.749,5.788,1.081,8.545,1.524c1.383,0.2,2.787,0.209,4.138,0.307c1.359,0.052,2.683,0.189,3.991,0.143
		c1.301,0.005,2.595-0.082,3.848-0.136c0.625-0.033,1.245-0.065,1.86-0.097c0.609-0.066,1.212-0.131,1.811-0.196
		c1.189-0.118,2.363-0.321,3.496-0.485c0.565-0.089,1.124-0.177,1.678-0.264c0.546-0.117,1.087-0.232,1.622-0.346
		c1.065-0.219,2.106-0.511,3.11-0.758c1.003-0.269,1.981-0.481,2.91-0.802c1.868-0.635,3.607-1.274,5.216-1.868
		c3.203-1.348,5.872-2.719,8.02-3.919c2.132-1.272,3.744-2.443,4.835-3.184c0.546-0.366,0.956-0.697,1.233-0.907
		c0.276-0.213,0.418-0.322,0.418-0.322c0.184-0.144,0.377-0.319,0.54-0.497c1.551-1.704,1.427-4.344-0.277-5.895l-0.911-0.83
		c0,0-0.156-0.142-0.458-0.417c-0.301-0.272-0.748-0.7-1.316-1.176c-0.283-0.245-0.598-0.519-0.946-0.821
		c-0.341-0.281-0.714-0.587-1.116-0.918c-0.8-0.688-1.701-1.367-2.69-2.158c-0.956-0.784-2.015-1.652-3.167-2.597
		c-1.117-0.924-2.321-1.74-3.524-2.817c-1.168-0.952-2.41-1.966-3.72-3.034c-0.645-0.463-1.251-1.075-1.882-1.593
		c-0.628-0.522-1.254-1.091-1.888-1.598c-2.511-2.143-4.94-4.378-7.212-6.533c-0.599-0.478-1.092-1.15-1.652-1.649
		c-0.531-0.523-1.068-1.053-1.611-1.589c-0.513-0.543-1.007-1.115-1.521-1.612c-0.53-0.47-0.994-1.05-1.474-1.576
		c-1.959-2.032-3.744-4.085-5.652-6.054c-1.905-1.947-3.878-4.015-6.065-6.197c-2.198-2.153-4.554-4.506-7.103-7.078
		c-2.505-2.473-5.193-5.031-8.038-7.729c1.324-0.492,2.644-0.995,3.962-1.505c0.444-0.172,0.885-0.348,1.328-0.521
		c1.089-0.427,2.175-0.859,3.26-1.297c0.503-0.203,1.006-0.407,1.508-0.613c1.359-0.557,2.714-1.122,4.065-1.698
		c0.239-0.102,0.477-0.204,0.716-0.307c1.334-0.573,2.664-1.157,3.989-1.747c0.476-0.212,0.951-0.427,1.427-0.641
		c1.117-0.504,2.229-1.015,3.339-1.532c0.376-0.175,0.753-0.348,1.128-0.524c1.426-0.672,2.846-1.354,4.26-2.046
		c0.377-0.185,0.751-0.373,1.127-0.559c1.112-0.55,2.219-1.107,3.322-1.67c0.423-0.216,0.846-0.431,1.268-0.649
		c1.419-0.733,2.834-1.473,4.238-2.228c0.095-0.051,0.189-0.104,0.284-0.155c1.329-0.716,2.65-1.444,3.965-2.179
		c0.394-0.22,0.786-0.442,1.178-0.663c1.153-0.652,2.3-1.31,3.44-1.976c0.266-0.156,0.535-0.309,0.801-0.465
		c1.383-0.814,2.755-1.639,4.119-2.473c0.295-0.181,0.587-0.364,0.881-0.545c1.118-0.69,2.228-1.388,3.332-2.092
		c0.329-0.21,0.659-0.419,0.987-0.631c1.359-0.876,2.71-1.76,4.047-2.657c0.041-0.027,0.08-0.055,0.121-0.082
		c1.291-0.867,2.567-1.747,3.836-2.634c0.307-0.215,0.612-0.43,0.918-0.646c1.165-0.822,2.321-1.652,3.466-2.491
		c0.147-0.108,0.296-0.214,0.442-0.321c1.302-0.958,2.589-1.928,3.864-2.908c0.221-0.17,0.439-0.341,0.659-0.512
		c1.083-0.838,2.156-1.684,3.218-2.538c0.235-0.189,0.472-0.377,0.706-0.567c1.259-1.02,2.506-2.048,3.734-3.089
		c0.001-0.001,0.003-0.002,0.004-0.004c1.2-1.017,2.381-2.047,3.551-3.084c0.228-0.202,0.456-0.405,0.683-0.608
		c1.124-1.006,2.238-2.019,3.333-3.043c0.045-0.042,0.091-0.083,0.136-0.125c1.175-1.1,2.33-2.213,3.471-3.335
		c0.159-0.156,0.315-0.314,0.474-0.471c0.995-0.985,1.975-1.979,2.943-2.981c0.158-0.164,0.318-0.326,0.475-0.491
		c2.179-2.274,4.285-4.591,6.316-6.948c0.164-0.19,0.327-0.381,0.49-0.571c2.028-2.374,3.98-4.789,5.848-7.245
		c0.113-0.148,0.223-0.297,0.335-0.446c0.849-1.125,1.681-2.258,2.496-3.4c0.097-0.136,0.196-0.272,0.293-0.409
		c1.784-2.519,3.479-5.079,5.086-7.678c0.112-0.182,0.225-0.364,0.336-0.546c1.594-2.604,3.097-5.248,4.502-7.931
		c0.079-0.151,0.156-0.302,0.234-0.453c0.648-1.248,1.275-2.505,1.881-3.77c0.055-0.115,0.112-0.23,0.167-0.346
		c1.303-2.743,2.503-5.527,3.6-8.347c0.072-0.184,0.143-0.368,0.214-0.552c1.079-2.814,2.054-5.665,2.918-8.553
		c0.049-0.164,0.096-0.329,0.144-0.493c0.399-1.354,0.775-2.716,1.124-4.086c0.026-0.103,0.055-0.206,0.081-0.309
		c0.38-1.505,0.731-3.018,1.05-4.542c0.004-0.021,0.008-0.042,0.013-0.064c0.301-1.441,0.57-2.892,0.816-4.35
		c0.033-0.194,0.066-0.388,0.098-0.583c0.491-3.002,0.865-6.04,1.115-9.112c0.015-0.189,0.028-0.379,0.043-0.569
		c0.11-1.442,0.196-2.89,0.251-4.347c0.004-0.1,0.01-0.2,0.013-0.301c0.057-1.592,0.081-3.193,0.071-4.803
		c0-0.067-0.003-0.135-0.003-0.202C508.079,244.218,508.034,242.72,507.965,241.215z M356.242,108.389
		c-0.065,0.059-0.134,0.113-0.207,0.161c-0.525,0.374-1.155,0.726-1.641,0.873c0.287-0.155,0.574-0.31,0.863-0.465l0.342-0.184
		l0.086-0.046l0.043-0.023c-0.469,0.306,0.692-0.446,0.563-0.361L356.242,108.389z"/>
</g>
<g id="Layer_4">
	<path fill="#EDEDE2" d="M176.205,308.716c-0.07-0.592-0.164-1.194-0.31-1.818c-12.97-55.324-43.201-75.19-75.053-86.142
		c-29.651-10.195-76.99-16.091-75.57,14.413C67.144,223.43,153.015,252.514,176.205,308.716z"/>
</g>
<g id="Layer_5">
	<path fill="#D6D3C5" d="M85.928,216.421l-6.395,20.515c-0.105-0.026-0.209-0.052-0.314-0.078c-0.744-0.181-1.486-0.356-2.227-0.526
		c-0.246-0.056-0.491-0.112-0.736-0.167c-0.332-0.075-0.662-0.144-0.994-0.217l6.388-20.494
		C83.086,215.759,84.514,216.081,85.928,216.421z M65.272,212.936l-6.344,20.352c0.304,0.032,0.607,0.061,0.913,0.096
		c0.273,0.031,0.547,0.062,0.822,0.095c0.68,0.08,1.362,0.164,2.048,0.255c0.209,0.028,0.42,0.058,0.63,0.087l6.361-20.406
		C68.217,213.227,66.739,213.067,65.272,212.936z M100.842,220.756c-1.16-0.399-2.35-0.79-3.561-1.174l-6.407,20.555
		c0.79,0.252,1.581,0.512,2.371,0.776c0.182,0.061,0.364,0.121,0.546,0.182c0.41,0.139,0.82,0.284,1.23,0.426l6.408-20.558
		C101.233,220.895,101.038,220.823,100.842,220.756z M48.473,212.973l-6.142,19.704c0.136-0.006,0.271-0.012,0.407-0.016
		c0.584-0.021,1.172-0.036,1.764-0.047c0.27-0.005,0.542-0.007,0.813-0.009c0.537-0.005,1.076-0.007,1.618-0.004l6.233-19.997
		C51.561,212.674,49.993,212.795,48.473,212.973z M165.395,276.112l-3.041,9.756c0.297,0.362,0.599,0.721,0.89,1.087
		c0.016,0.02,0.031,0.041,0.047,0.061c0.8,1.007,1.571,2.031,2.329,3.063l2.458-7.887
		C167.215,280.099,166.322,278.069,165.395,276.112z M157.007,261.295c-1.039-1.538-2.109-3.005-3.195-4.439l-4.766,15.288
		c1.214,1.067,2.395,2.161,3.56,3.267L157.007,261.295z M143.859,245.644c-1.169-1.122-2.35-2.215-3.552-3.257l-5.891,18.561
		c1.268,0.849,2.525,1.71,3.762,2.594L143.859,245.644z M28.849,222.073l-3.604,11.563c-0.004,0.504,0.003,1.015,0.028,1.54
		c0.354-0.098,0.707-0.195,1.066-0.288c0.229-0.06,0.457-0.12,0.689-0.177c0.483-0.119,0.973-0.232,1.467-0.341
		c0.247-0.055,0.496-0.108,0.746-0.16c0.142-0.03,0.287-0.056,0.43-0.085l5.386-17.28C32.562,218.21,30.462,219.939,28.849,222.073z
		 M130.225,234.765c-1.262-0.833-2.536-1.634-3.822-2.404l-6.369,20.012c1.312,0.694,2.613,1.409,3.906,2.138L130.225,234.765z
		 M116.117,226.895c-1.33-0.625-2.668-1.227-4.013-1.805l-6.499,20.478c1.349,0.564,2.693,1.145,4.032,1.744L116.117,226.895z"/>
</g>
<g id="Layer_6">
	<path fill="#2B3B47" d="M243.055,335.671c6.275,0,11.371,5.085,11.371,11.381v13.973c0,6.285-5.096,11.382-11.371,11.382l0,0
		c-6.285,0-11.381-5.097-11.381-11.382v-13.973C231.674,340.756,236.769,335.671,243.055,335.671L243.055,335.671z"/>
</g>
</svg>
