<svg xmlns="http://www.w3.org/2000/svg" viewBox="0 0 512 512" enable-background="new 0 0 512 512"><path fill="#2B3B47" d="M202.91 149.263v26.693h-.04c0 .04.04.054.04.074 0 10.483-8.504 18.988-18.987 18.988-10.483 0-18.988-8.505-18.988-18.988v-.074h-.08v-26.693h.228c.848-9.724 8.895-17.375 18.84-17.375 9.92 0 17.967 7.65 18.802 17.375h.186zm142.825 0c-.835-9.724-8.883-17.375-18.8-17.375-9.946 0-17.994 7.65-18.842 17.375h-.23v26.693h.082v.074c0 10.483 8.505 18.988 18.988 18.988s18.988-8.505 18.988-18.988c0-.02-.04-.034-.04-.074h.04v-26.693h-.184z"/></svg>