<?xml version="1.0" encoding="iso-8859-1"?>
<!-- Generator: Adobe Illustrator 18.1.0, SVG Export Plug-In . SVG Version: 6.00 Build 0)  -->
<!DOCTYPE svg PUBLIC "-//W3C//DTD SVG 1.1//EN" "http://www.w3.org/Graphics/SVG/1.1/DTD/svg11.dtd">
<svg version="1.1" xmlns="http://www.w3.org/2000/svg" xmlns:xlink="http://www.w3.org/1999/xlink" x="0px" y="0px"
	 viewBox="0 0 512 512" enable-background="new 0 0 512 512" xml:space="preserve">
<g id="Layer_5">
	<path fill="#FFA1E0" d="M250.508,383.349l-28.792-21.136c-8.132-5.97-1.542-15.322,10.796-15.322h45.703
		c12.338,0,18.928,9.352,10.796,15.322l-28.792,21.136C257.549,385.309,253.179,385.309,250.508,383.349z M78.854,166.402
		c14.831-21.141,33.975-39.837,56.312-54.711c-27.68-34.944-61.096-48.062-73.065-45.927c-12.164,2.171-40.186,72.9-7.75,130.539
		C61.318,185.377,69.55,175.336,78.854,166.402z M427.498,161.179c11.448,9.994,21.47,21.576,29.74,34.395
		c31.793-57.504,3.948-127.649-8.165-129.811c-12.019-2.145-45.664,11.098-73.411,46.372
		C395.855,125.692,413.409,142.386,427.498,161.179z"/>
</g>
<g id="Layer_1">
</g>
</svg>
