<svg xmlns="http://www.w3.org/2000/svg" viewBox="0 0 512 512" enable-background="new 0 0 512 512"><path fill="#D1CFC3" d="M64.44 145.744l-1.16-2.872c-.73-1.805-1.777-4.382-3.11-7.415-1.334-3.025-2.938-6.528-4.865-10.04-.95-1.76-1.975-3.533-3.093-5.197-1.12-1.66-2.288-3.27-3.522-4.597-.613-.668-1.237-1.273-1.845-1.766-.154-.14-.302-.232-.453-.355l-.113-.088-.03-.022-.014-.01c.04.018-.112-.06.09.04l-.094-.06-.37-.236-.61-.392c-.163-.107-.323-.218-.546-.34-1.632-.97-3.56-1.758-5.49-2.555-1.948-.79-3.948-1.473-5.868-2.207-1.923-.738-3.786-1.42-5.486-2.198-3.417-1.496-6.187-3.178-7.9-4.632-.87-.704-1.485-1.34-1.89-1.777l-.606-.684c-.39-.44-.35-1.116.092-1.506.328-.29.784-.342 1.158-.168l.08.036s.253.12.73.34c.482.21 1.192.495 2.11.792 1.838.603 4.53 1.15 7.9 1.484 1.69.158 3.54.326 5.547.46 2.012.136 4.166.336 6.484.603 2.323.278 4.782.714 7.423 1.49.316.086.683.21 1.05.337l.968.338.415.145.104.036.237.112.27.122c.354.167.734.326 1.067.508 1.398.703 2.657 1.506 3.833 2.348 2.35 1.694 4.39 3.533 6.19 5.436 1.816 1.897 3.433 3.823 4.91 5.722 2.928 3.815 5.293 7.504 7.183 10.72 1.882 3.22 3.298 5.96 4.25 7.893.477.968.854 1.794 1.076 2.265l.355.764c2.09 4.492.142 9.83-4.35 11.917-4.494 2.09-9.83.14-11.92-4.352-.06-.13-.117-.262-.17-.395l-.02-.046z"/></svg>