<?xml version="1.0" encoding="iso-8859-1"?>
<!-- Generator: Adobe Illustrator 18.1.0, SVG Export Plug-In . SVG Version: 6.00 Build 0)  -->
<!DOCTYPE svg PUBLIC "-//W3C//DTD SVG 1.1//EN" "http://www.w3.org/Graphics/SVG/1.1/DTD/svg11.dtd">
<svg version="1.1" xmlns="http://www.w3.org/2000/svg" xmlns:xlink="http://www.w3.org/1999/xlink" x="0px" y="0px"
	 viewBox="0 0 512 512" enable-background="new 0 0 512 512" xml:space="preserve">
<g id="Layer_3">
	<path fill="#D19B61" d="M257.922,395.937c-7.034,0-13.169-4.85-14.998-11.848c-0.234-0.896-0.478-1.837-0.73-2.824
		c-1.107-4.668-19.035-69.981-20.788-79.151c-1.639-9.17-3.211-18.84-4.781-28.843c-3.056-20.007-5.814-41.348-8.185-62.688
		c-2.32-21.341-4.212-42.681-5.204-62.688c-1.028-20.007-1.259-38.68-0.916-54.686c0.384-16.006,1.23-29.344,2.197-38.68
		c0.009-0.093,0.017-0.186,0.026-0.279c0.754-8.183,7.474-14.393,15.452-14.393h72.015c7.978,0,14.697,6.21,15.452,14.393
		c0.009,0.093,0.017,0.186,0.026,0.279c0.966,9.337,1.813,22.675,2.197,38.68c0.343,16.006,0.112,34.679-0.916,54.686
		c-0.992,20.007-2.885,41.348-5.204,62.688c-2.371,21.341-5.13,42.681-8.185,62.688c-1.57,10.003-3.142,19.674-4.781,28.843
		c-1.753,9.17-19.681,74.482-20.788,79.151c-0.252,0.987-0.496,1.928-0.73,2.824c-1.829,6.998-7.964,11.848-14.998,11.848H257.922z"
		/>
</g>
<g id="Layer_1">
</g>
</svg>
