<svg xmlns="http://www.w3.org/2000/svg" viewBox="0 0 512 512" enable-background="new 0 0 512 512"><path fill="#FFA1E0" d="M438.506 137.772c0 42.078-34.063 76.203-76.203 76.203s-76.23-34.125-76.23-76.203c0-42.14 34.09-76.23 76.23-76.23s76.203 34.09 76.203 76.23zM235.62 412.352s-3.827.63-7.95 1.73c-4.244 1.103-8.693 2.678-11.18 4.568-2.89 1.89-2.3 4.095-1.586 6.457.607 2.362 1.772 4.882 3.21 7.402 2.955 5.04 8.33 10.077 13.698 13.857 5.22 3.78 10.884 6.3 10.884 6.3 6.987 3.074 15.294 3.347 22.818 0 0 0 5.664-2.52 10.884-6.3 5.368-3.78 10.743-8.82 13.697-13.86 1.44-2.52 2.605-5.04 3.21-7.4.715-2.363 1.305-4.568-1.585-6.458-2.488-1.89-6.936-3.466-11.18-4.568-4.123-1.102-7.95-1.732-7.95-1.732-11.784-1.885-24.546-2.044-36.97 0zM205.525 87.426c-13.956-15.87-34.4-25.886-57.227-25.886-42.14 0-76.23 34.092-76.23 76.232 0 30.757 18.225 57.247 44.484 69.284 3.722-54.934 39.6-101.036 88.973-119.63z"/></svg>