<svg xmlns="http://www.w3.org/2000/svg" viewBox="0 0 512 512" enable-background="new 0 0 512 512"><path fill="#798891" d="M174.38 90.05c-.513 0-1.02.033-1.53.057-2.198-7.144-6.64-13.303-12.505-17.656h.002c-8.586-7.186-24.223-12.58-28.435-13.48-.434-.09-.783.3-.556.625l1.87 2.657c.337.48-.156 1.072-.81.972l-13.123-2.006c-.398-.094-.754.23-.61.554l.464 1.034c.234.52 1.142 2.64.603 2.83l-5.87 2.745c-12.558 3.13-24.185 19.034-34.73 24.35C52.21 106.307 62.01 135 92.18 135h26.775c3.213 0 6.245-.75 8.96-2.055.136.05.276.093.414.14-4.91 13.435-7.74 29.183-7.74 46.03 0 49.188 24.082 69.457 53.79 69.457s53.786-20.268 53.786-69.457c0-49.19-24.08-89.065-53.787-89.065z"/></svg>