<?xml version="1.0" encoding="iso-8859-1"?>
<!-- Generator: Adobe Illustrator 18.1.0, SVG Export Plug-In . SVG Version: 6.00 Build 0)  -->
<!DOCTYPE svg PUBLIC "-//W3C//DTD SVG 1.1//EN" "http://www.w3.org/Graphics/SVG/1.1/DTD/svg11.dtd">
<svg version="1.1" id="Layer_1" xmlns="http://www.w3.org/2000/svg" xmlns:xlink="http://www.w3.org/1999/xlink" x="0px" y="0px"
	 viewBox="0 0 512 512" enable-background="new 0 0 512 512" xml:space="preserve">
<path fill="#626566" d="M472.968,103.97c0,48.326-39.176,87.502-87.502,87.502s-87.502-39.176-87.502-87.502
	s39.176-87.502,87.502-87.502S472.968,55.644,472.968,103.97z M120.99,16.468c-48.326,0-87.502,39.176-87.502,87.502
	s39.176,87.502,87.502,87.502s87.502-39.176,87.502-87.502S169.316,16.468,120.99,16.468z"/>
<path fill="#BFBCAF" d="M430.727,103.97c0,24.996-20.263,45.26-45.26,45.26c-24.996,0-45.26-20.263-45.26-45.26
	s20.263-45.26,45.26-45.26C410.463,58.71,430.727,78.974,430.727,103.97z M120.99,58.71c-24.996,0-45.26,20.263-45.26,45.26
	s20.263,45.26,45.26,45.26s45.26-20.263,45.26-45.26S145.986,58.71,120.99,58.71z"/>
<path fill="#E5E4DF" d="M492.466,330.299c0-83.849-64.402-99.046-64.402-118.633l-0.713,0.433
	c-8.759-86.905-82.13-154.751-171.351-154.751c-89.249,0-162.637,67.89-171.358,154.835l-0.87-0.517
	c0,17.7-61.643,34.395-63.098,115.702c-0.749,5.792-1.139,11.696-1.139,17.691c0,74.554,59.755,135.143,133.982,136.507
	l-0.006,0.032c0.255,0,0.535-0.017,0.798-0.022c0.588,0.007,1.175,0.022,1.765,0.022c21.33,0,41.508-4.904,59.488-13.631
	c14.429-3.549,28.088-6.281,37.653-5.818c20.601,0.997,56.242,23.903,102.712,19.449c75.409,0,136.539-61.131,136.539-136.539
	c0-4.49-0.223-8.928-0.647-13.307C492.228,331.314,492.466,330.835,492.466,330.299z"/>
<path fill="#626566" d="M240.212,303.207c-17.568,53.328-64.03,85.945-103.775,72.852S78.713,309.12,96.282,255.791
	s64.03-85.945,103.775-72.852C239.802,196.033,257.78,249.878,240.212,303.207z M271.786,303.207
	c17.568,53.328,64.03,85.945,103.775,72.852s57.724-66.939,40.156-120.267s-64.03-85.945-103.775-72.852
	C272.197,196.033,254.218,249.878,271.786,303.207z M233.602,363.311c0,0-12.845,3.286-20.162,8.214
	c-3.923,2.464-6.268,5.339-7.377,8.419c-1.273,3.08,0.454,6.366,2.408,9.652c4.1,6.571,7.038,13.142,11.395,18.071
	c3.672,4.928,7.576,8.214,7.576,8.214c16.197,13.658,40.354,14.107,57.113,0c0,0,3.904-3.286,7.576-8.214
	c4.357-4.928,7.295-11.5,11.395-18.071c1.954-3.286,3.681-6.571,2.408-9.652c-1.108-3.08-3.454-5.955-7.377-8.419
	c-7.317-4.928-20.162-8.214-20.162-8.214C264.275,359.753,248.702,359.449,233.602,363.311z"/>
<path fill="#132028" d="M169.247,253.848c15.806,0,28.619,12.813,28.619,28.619v35.18c0,15.806-12.813,28.619-28.619,28.619l0,0
	c-15.806,0-28.619-12.813-28.619-28.619v-35.18C140.627,266.662,153.441,253.848,169.247,253.848L169.247,253.848z M342.752,252.884
	c-15.806,0-28.619,12.813-28.619,28.619v35.18c0,15.806,12.813,28.619,28.619,28.619l0,0c15.806,0,28.619-12.813,28.619-28.619
	v-35.18C371.371,265.697,358.558,252.884,342.752,252.884L342.752,252.884z"/>
</svg>
