<?xml version="1.0" encoding="iso-8859-1"?>
<!-- Generator: Adobe Illustrator 18.1.0, SVG Export Plug-In . SVG Version: 6.00 Build 0)  -->
<!DOCTYPE svg PUBLIC "-//W3C//DTD SVG 1.1//EN" "http://www.w3.org/Graphics/SVG/1.1/DTD/svg11.dtd">
<svg version="1.1" xmlns="http://www.w3.org/2000/svg" xmlns:xlink="http://www.w3.org/1999/xlink" x="0px" y="0px"
	 viewBox="0 0 512 512" enable-background="new 0 0 512 512" xml:space="preserve">
<g id="Layer_7">
	<path fill="#FFB636" d="M271.557,94.894c0,0,0.213-0.014,0.598,0.009c0.386,0.02,0.956,0.036,1.656,0.134
		c0.352,0.043,0.742,0.091,1.167,0.142c0.209,0.036,0.427,0.072,0.653,0.111c0.214,0.031,0.414,0.052,0.628,0.093
		c0.852,0.138,1.802,0.319,2.817,0.588c1.058,0.255,2.255,0.583,3.468,0.995c1.224,0.4,2.536,0.846,3.859,1.395
		c0.664,0.261,1.349,0.535,2.033,0.842c0.687,0.293,1.383,0.593,2.075,0.938c1.4,0.636,2.813,1.372,4.232,2.088
		c1.419,0.746,2.842,1.477,4.236,2.275c1.403,0.76,2.769,1.591,4.104,2.371c1.327,0.816,2.612,1.615,3.828,2.414
		c1.213,0.833,2.359,1.621,3.418,2.348c1.062,0.724,2.018,1.503,2.878,2.13c0.859,0.632,1.593,1.285,2.207,1.766
		c0.612,0.498,1.083,0.942,1.408,1.218c0.317,0.298,0.486,0.456,0.486,0.456l1.681,1.577c1.414,1.327,1.485,3.549,0.159,4.963
		c-0.821,0.876-2.007,1.233-3.111,1.066c0,0-0.814-0.129-2.208-0.321c-0.704-0.075-1.548-0.205-2.529-0.292
		c-0.981-0.087-2.08-0.222-3.292-0.308c-1.212-0.089-2.525-0.186-3.913-0.288c-1.396-0.076-2.869-0.157-4.392-0.241
		c-1.535-0.053-3.12-0.107-4.732-0.163c-1.608-0.082-3.269-0.069-4.922-0.104c-1.655-0.037-3.308-0.096-4.962-0.068
		c-1.654,0.011-3.265-0.045-4.868,0.017c-1.601,0.042-3.133,0.036-4.628,0.11c-1.499,0.066-2.886,0.082-4.239,0.178
		c-1.371,0.057-2.632,0.085-3.777,0.174c-0.545,0.038-1.056,0.073-1.528,0.106c-0.456,0.048-0.875,0.092-1.253,0.132
		c-0.754,0.072-1.359,0.168-1.77,0.227c-0.411,0.06-0.63,0.091-0.63,0.091c-7.808,1.132-15.056-4.28-16.188-12.088
		s4.28-15.056,12.088-16.188c0.372-0.054,0.743-0.093,1.111-0.118L271.557,94.894z"/>
</g>
<g id="Layer_1">
</g>
</svg>
