<svg xmlns="http://www.w3.org/2000/svg" viewBox="0 0 512 512" enable-background="new 0 0 512 512"><path fill="#FFA1E0" d="M486.218 177c-1.137-1.414-3.206-1.64-4.62-.503l-.257.206-.253.205c-.168.135-.435.32-.81.543-.76.426-2.038.965-3.985 1.174-1.93.22-4.49.086-7.405-.596-.154-.036-.312-.08-.468-.118.317-.716.62-1.437.903-2.166 1.066-2.747 1.86-5.596 2.386-8.483.31-1.442.462-2.894.67-4.354.12-1.455.293-2.925.324-4.387.086-1.47.08-2.93.065-4.4l-.004-.55-.005-.387-.01-.253-.022-.506-.033-.588c-.056-.933-.144-1.755-.264-2.596-.49-3.36-1.56-6.916-3.713-10.165-2.116-3.237-5.44-6.04-9.352-7.366-3.898-1.36-8.196-1.24-11.91.122-3.737 1.346-6.87 3.912-8.99 6.94-2.14 3.034-3.302 6.45-3.794 9.717-.25 1.64-.335 3.25-.303 4.82l.054 1.11.118 1.31c.1.825.23 1.605.395 2.39.667 3.13 1.894 6.01 3.41 8.526 1.52 2.522 3.316 4.707 5.22 6.6 2.215 2.19 4.56 4 6.93 5.527-1.328 1.078-2.713 1.895-4.102 2.438-1.29.5-2.575.798-3.827.957-1.252.163-2.483.1-3.638.013-2.326-.27-4.383-.93-6.04-1.65-.833-.328-1.564-.76-2.193-1.063-.27-.16-.517-.31-.745-.445l-.328-.188-.156-.088-.21-.137-1.654-1.093c-.115-.075-.25-.16-.373-.23C378.19 133.5 259.453 124.272 181 143.037c-2.256 5.528-3.466 14.582-4.9 24.648-15.876-7.67-26.43-21.425-26.343-21.42-31.046 0-43.29 16.378-56.257 33.718-11.215 15.01-30.48 30.53-55.403 36.94-5.146 1.322-6.64 4.738-8.453 9.88-3.49 9.885 3.175 30.886 12.524 37.57 10.73 7.67 27.447 6.982 34.86 6.982 16.308 0 40.437 11.73 50.67 23.006 9.173 10.123 20.418 19.01 33.145 25.84 4.125 38.06 6.73 101.8 19.43 101.8h7.91c10.254 0 22.162-41.564 30.273-77.603 10.876 8.418 32.095 19.03 70.202 19.03 40.214 0 62.378-4.002 78.745-11.406C380.73 385.44 380.308 422 392.383 422h7.306c8.115 0 17.247-58.414 19.68-71.5.324-1.738.817-3.434 1.47-5.074 4.518-11.31 30.75-53.354 28.69-111.11.06-3.447.088-7.003.088-10.676 0-9.51-2.23-18.214-6.32-26.142.546-.068 1.097-.147 1.656-.252 2.465-.46 5.02-1.233 7.517-2.402 4.58-2.128 8.764-5.687 11.94-10.015 4.855 1.204 9.303 1.392 12.907.764 2.84-.475 5.103-1.517 6.523-2.462.71-.48 1.228-.904 1.562-1.208l.5-.47c1.234-1.162 1.395-3.108.313-4.454zm-41.49-20.72c-.07-.485-.12-.99-.147-1.463l-.017-.642.01-.853c.032-1.058.146-2.09.35-3.073.402-1.97 1.17-3.73 2.248-5.086 1.074-1.354 2.457-2.3 3.93-2.732 1.474-.433 3.003-.35 4.293.195 1.292.548 2.373 1.527 3.19 2.924.816 1.394 1.328 3.22 1.51 5.228.047.505.07 1.033.075 1.45l.005.17-.002.254-.002.506-.002.253c0-.03 0 .16-.002-.053l-.003.056-.005.115-.025.46c-.06 1.22-.122 2.434-.263 3.618-.09 1.197-.304 2.347-.46 3.5-.236 1.127-.41 2.266-.715 3.334-.524 2.174-1.233 4.205-2.08 6.05-.246.537-.505 1.056-.77 1.565-2.03-1.44-3.988-3.126-5.72-5.067-2.73-3.06-4.83-6.792-5.394-10.71z"/></svg>