<svg xmlns="http://www.w3.org/2000/svg" viewBox="0 0 512 512" enable-background="new 0 0 512 512"><path fill="#FF473E" d="M279.15 241.67l.718-.06c.47-.035 1.196-.116 2.062-.14.89-.05 1.965-.088 3.18-.083 1.25-.03 2.605.016 4.124.067 3.04.1 6.537.416 10.4.926 3.85.523 7.98 1.326 12.252 2.437 8.547 2.218 17.566 5.758 26.068 10.712 8.55 4.904 16.548 11.26 23.568 18.592 3.508 3.668 6.81 7.544 9.817 11.6 3.025 4.037 5.725 8.29 8.156 12.587 4.836 8.62 8.368 17.646 10.67 26.11 1.146 4.235 2.026 8.29 2.592 12.096.285 1.9.58 3.65.73 5.395.19 1.704.35 3.28.418 4.783l.13 2.098.043 1.92c.043 1.177.02 2.238.01 3.09 0 .84-.066 1.55-.08 2l-.038.696c-.342 6.49-5.593 11.578-11.936 11.936l-.696.037c-.448.014-1.16.082-2 .08-.852.01-1.913.034-3.09-.01l-1.92-.044-2.097-.13c-1.502-.067-3.08-.228-4.782-.417-1.742-.15-3.492-.445-5.393-.73-3.807-.568-7.86-1.448-12.097-2.594-8.464-2.302-17.49-5.835-26.11-10.67-4.298-2.43-8.55-5.13-12.588-8.158-4.057-3.01-7.932-6.31-11.6-9.818-7.333-7.02-13.688-15.018-18.594-23.568-4.954-8.502-8.494-17.52-10.712-26.068-1.11-4.27-1.915-8.402-2.437-12.252-.51-3.863-.828-7.36-.928-10.4-.05-1.52-.098-2.873-.067-4.124-.004-1.215.034-2.29.082-3.18.025-.866.107-1.592.14-2.062l.06-.72c.547-6.456 5.694-11.42 11.94-11.938z"/></svg>