<?xml version="1.0" encoding="iso-8859-1"?>
<!-- Generator: Adobe Illustrator 18.1.0, SVG Export Plug-In . SVG Version: 6.00 Build 0)  -->
<!DOCTYPE svg PUBLIC "-//W3C//DTD SVG 1.1//EN" "http://www.w3.org/Graphics/SVG/1.1/DTD/svg11.dtd">
<svg version="1.1" xmlns="http://www.w3.org/2000/svg" xmlns:xlink="http://www.w3.org/1999/xlink" x="0px" y="0px"
	 viewBox="0 0 512 512" enable-background="new 0 0 512 512" xml:space="preserve">
<g id="Layer_3">
	<path fill="#E2E2D9" d="M300.523,359.701c0,0,2.114,0.168,5.813,0.462c0.337,0.03,0.693,0.062,1.065,0.096
		c0.194,0.015,0.364,0.044,0.592,0.05c0.236,0.003,0.478,0.006,0.724,0.009c0.988,0.002,2.058,0.056,3.217,0.033
		c1.161-0.051,2.402-0.054,3.721-0.134c1.318-0.123,2.718-0.167,4.181-0.353c1.461-0.189,3.003-0.32,4.588-0.614
		c0.798-0.129,1.609-0.259,2.433-0.392c0.822-0.169,1.656-0.341,2.502-0.515c1.709-0.309,3.424-0.807,5.217-1.225
		c0.887-0.236,1.774-0.512,2.681-0.769c0.907-0.256,1.824-0.521,2.729-0.841c3.684-1.143,7.382-2.658,11.127-4.298
		c3.721-1.685,7.387-3.645,10.978-5.772c3.54-2.182,6.965-4.562,10.187-7.107c3.155-2.593,6.169-5.296,8.824-8.144
		c2.621-2.86,5.071-5.757,7.043-8.719c1.07-1.447,1.91-2.947,2.807-4.382c0.862-1.447,1.566-2.903,2.319-4.288
		c0.62-1.423,1.287-2.783,1.822-4.11c0.484-1.339,1.002-2.609,1.409-3.826c0.369-1.233,0.715-2.387,1.035-3.453
		c0.281-1.079,0.477-2.086,0.693-2.995c0.217-0.909,0.397-1.727,0.482-2.446c0.11-0.72,0.204-1.332,0.28-1.829
		c0.155-0.999,0.238-1.532,0.238-1.532l0.03-0.19c0.361-2.32,2.535-3.909,4.855-3.548c1.94,0.302,3.368,1.875,3.573,3.738
		c0,0,0.067,0.608,0.192,1.747c0.062,0.574,0.139,1.282,0.229,2.115c0.113,0.838,0.16,1.799,0.191,2.881
		c0.033,1.082,0.107,2.292,0.113,3.61c-0.041,1.322-0.086,2.751-0.134,4.279c-0.095,1.53-0.293,3.15-0.457,4.885
		c-0.215,1.721-0.56,3.512-0.869,5.416c-0.438,1.855-0.839,3.836-1.41,5.837c-0.604,1.985-1.173,4.092-1.985,6.16
		c-1.467,4.227-3.483,8.505-5.795,12.855c-2.343,4.332-5.146,8.597-8.226,12.809c-3.135,4.152-6.596,8.186-10.3,12.029
		c-3.744,3.78-7.697,7.407-11.821,10.726c-4.147,3.273-8.376,6.398-12.706,9.088c-1.066,0.707-2.152,1.356-3.237,1.991
		c-1.084,0.636-2.153,1.286-3.231,1.893c-2.18,1.161-4.295,2.377-6.446,3.386c-1.072,0.522-2.129,1.037-3.17,1.544
		c-1.065,0.469-2.113,0.931-3.145,1.385c-2.057,0.939-4.12,1.695-6.092,2.471c-1.973,0.773-3.93,1.38-5.774,2.022
		c-1.859,0.603-3.664,1.097-5.353,1.596c-1.699,0.474-3.328,0.836-4.826,1.208c-0.376,0.09-0.744,0.178-1.104,0.265
		c-0.368,0.084-0.786,0.152-1.164,0.226c-0.773,0.141-1.511,0.275-2.211,0.402c-4.635,0.799-7.283,1.256-7.283,1.256
		c-12.922,2.229-25.204-6.44-27.432-19.362c-2.229-12.922,6.44-25.204,19.362-27.432c1.957-0.338,3.9-0.425,5.795-0.286
		L300.523,359.701z M211.371,406.829c1.892,0.237,3.843,0.247,5.822,0.007c13.016-1.579,22.288-13.41,20.71-26.426
		c-1.579-13.016-13.41-22.288-26.426-20.71c0,0-0.599,0.073-1.721,0.209c-0.561,0.068-1.253,0.152-2.067,0.251
		c-0.336,0.042-0.698,0.087-1.084,0.136c-0.3,0.042-0.62,0.086-0.957,0.133c-0.341,0.051-0.701,0.106-1.078,0.163
		c-0.197,0.026-0.369,0.068-0.6,0.086c-0.239,0.015-0.483,0.03-0.732,0.046c-0.999,0.052-2.082,0.16-3.258,0.195
		c-1.177,0.007-2.438,0.064-3.781,0.047c-1.342-0.06-2.77-0.039-4.264-0.157c-1.493-0.122-3.071-0.184-4.696-0.408
		c-0.819-0.094-1.652-0.19-2.498-0.287c-0.845-0.134-1.703-0.271-2.573-0.409c-1.759-0.238-3.529-0.665-5.383-1.013
		c-0.917-0.201-1.836-0.442-2.775-0.664c-0.94-0.221-1.89-0.452-2.83-0.738c-3.824-1.007-7.684-2.395-11.611-3.921
		c-3.902-1.572-7.772-3.435-11.584-5.488c-3.762-2.109-7.427-4.441-10.902-6.972c-3.41-2.58-6.69-5.302-9.615-8.211
		c-2.891-2.922-5.612-5.916-7.845-9.016c-1.199-1.512-2.167-3.093-3.185-4.61c-0.984-1.53-1.804-3.079-2.667-4.557
		c-0.731-1.52-1.501-2.978-2.132-4.406c-0.581-1.441-1.187-2.813-1.674-4.131c-0.448-1.338-0.867-2.591-1.254-3.749
		c-0.347-1.174-0.6-2.272-0.867-3.264c-0.268-0.993-0.491-1.887-0.612-2.674c-0.146-0.789-0.27-1.459-0.371-2.003
		c-0.202-1.096-0.31-1.681-0.31-1.681l-0.092-0.502c-0.343-1.859-1.913-3.319-3.885-3.445c-2.327-0.148-4.333,1.619-4.481,3.947
		c0,0-0.042,0.66-0.12,1.896c-0.038,0.621-0.084,1.388-0.138,2.289c-0.077,0.905-0.08,1.943-0.061,3.109
		c0.018,1.166,0.001,2.467,0.061,3.88c0.109,1.413,0.227,2.942,0.353,4.575c0.176,1.631,0.462,3.353,0.723,5.19
		c0.311,1.822,0.759,3.711,1.179,5.712c0.547,1.948,1.065,4.022,1.758,6.106c0.724,2.067,1.422,4.254,2.363,6.388
		c1.727,4.366,4.014,8.74,6.596,13.151c2.613,4.393,5.682,8.676,9.016,12.876c3.388,4.137,7.09,8.124,11.015,11.894
		c3.965,3.706,8.121,7.236,12.427,10.442c4.328,3.16,8.719,6.156,13.189,8.712c1.101,0.673,2.221,1.288,3.338,1.888
		c1.116,0.602,2.217,1.216,3.325,1.788c2.24,1.091,4.41,2.236,6.612,3.174c1.096,0.486,2.177,0.965,3.242,1.437
		c1.087,0.433,2.157,0.86,3.209,1.28c2.097,0.869,4.197,1.556,6.201,2.264c2.004,0.706,3.989,1.247,5.856,1.826
		c1.883,0.54,3.708,0.974,5.413,1.415c1.715,0.416,3.358,0.724,4.866,1.046c0.378,0.078,0.749,0.153,1.112,0.228
		c0.371,0.072,0.792,0.129,1.172,0.19c0.778,0.118,1.52,0.23,2.224,0.336c1.324,0.186,2.506,0.352,3.534,0.496
		c0.809,0.106,1.496,0.196,2.054,0.269c1.115,0.146,1.71,0.224,1.71,0.224L211.371,406.829z"/>
</g>
<g id="Layer_1">
</g>
</svg>
