<svg xmlns="http://www.w3.org/2000/svg" viewBox="0 0 512 512" enable-background="new 0 0 512 512"><path fill="#D1CFC3" d="M81.487 124.687l-1.385-3.29c-.38-.785-.74-1.66-1.3-2.81l-.937-1.865c-.34-.653-.75-1.304-1.13-2.02-.8-1.407-1.732-2.898-2.812-4.424-1.048-1.553-2.275-3.117-3.61-4.708-1.382-1.55-2.81-3.197-4.454-4.717-1.62-1.54-3.35-3.073-5.187-4.525-.906-.74-1.864-1.43-2.81-2.135L54.93 92.15c-.83-.598-1.852-1.254-2.834-1.86-.992-.618-2.026-1.193-3.05-1.802-2.05-1.217-4.163-2.366-6.194-3.59-2.02-1.242-3.987-2.485-5.716-3.85-1.727-1.353-3.25-2.755-4.424-4.15-1.19-1.383-2.067-2.706-2.67-3.84-.62-1.124-.982-2.052-1.212-2.68l-.33-.968c-.25-.725.137-1.513.862-1.76.5-.172 1.03-.04 1.392.294l.086.08.66.613c.436.387 1.087.932 1.936 1.542.858.6 1.915 1.26 3.193 1.86 1.29.584 2.743 1.175 4.455 1.645 1.697.486 3.596.945 5.716 1.36l6.898 1.45c1.243.273 2.51.608 3.822.968 1.323.372 2.614.752 4.084 1.265 2.597.887 5.23 2.043 7.82 3.287 1.306.605 2.578 1.303 3.864 1.973 1.257.727 2.522 1.436 3.73 2.235 2.458 1.53 4.78 3.244 6.973 4.994 2.15 1.803 4.175 3.642 5.983 5.517 1.8 1.88 3.4 3.77 4.804 5.568.69.91 1.348 1.787 1.943 2.64l1.636 2.466c1.018 1.592 1.865 3.2 2.56 4.414l1.595 3.194c2.86 5.72.54 12.673-5.18 15.53-5.72 2.86-12.673.54-15.53-5.18-.11-.213-.224-.463-.317-.68z"/></svg>