<svg xmlns="http://www.w3.org/2000/svg" viewBox="0 0 512 512" enable-background="new 0 0 512 512"><path fill="#AF773F" d="M458.675 232.346c0 12.348-4.53 26.494-12.852 41.123-1.795 3.153-3.758 6.33-5.9 9.515-25.223 43.994-18.86 82.958-7.19 104.872 10.534 19.783-4.75 58.06-9.827 69.633-.913 2.082-2.765 3.396-4.795 3.396h-12.805c-3.753 0-6.348-4.303-5.018-8.33 5.355-16.22 16.53-39.585 16.53-51.49 0-10.703-22.85-33.435-37.306-67.884-.553 24.888-1.856 49.166-2.075 62.504-.37 22.41-10.396 50.232-15.474 61.805-.912 2.083-2.764 3.397-4.794 3.397H344.36c-3.754 0-6.35-4.303-5.02-8.33 5.356-16.22 16.53-39.585 16.53-51.49 0-13.57-12.232-53.732-36.73-100.976-20.403-2.71-42.29.656-64.94 3.287-9.464 27.34-18.03 91.415-15.78 101.548 2.06 9.262 8.657 34.41 12.007 47.083 1.004 3.798-1.86 7.512-5.79 7.512H229.32c-3.533 0-6.272-3.04-5.96-6.558 1.04-11.693-.638-32.525-1.307-35.922-1.884-9.57-5.784-26.946-3.23-38.714 2.243-10.336 4.78-27.54-12.284-60.617-8.847 24.22-16.056 77.244-13.84 87.213 2.057 9.262 8.655 34.41 12.005 47.083 1.004 3.798-1.86 7.512-5.79 7.512H183.6c-3.534 0-6.273-3.04-5.96-6.558 1.04-11.693-.64-32.525-1.308-35.922-1.884-9.57-5.784-26.946-3.23-38.714 3.067-14.133 6.692-41.1-40.014-103.95-38.824-38.66 2.326-81.735-37.145-100.456-20.798-9.864-58.327-2.586-73.47-2.586-23.052 0-17.57-14.347-13.612-22.815 11.717-25.062 38.764-33.462 46.157-33.462 18.574 0 26.536-22.04 49.56-22.04 3.75 0 8.883 1.974 14.428 5.418.527-.25 1.06-.492 1.616-.695 5.026-2.452 12.34-4.876 21.943-4.686 3.07-.154 5.81.176 8.197.727.024.02.053.01.095.015l.004.017c2.692.652 5.225 1.76 6.997 2.648 1.433.72 2.24 2.61 1.754 4.155-.813 2.578-2.364 6.505-4.992 9.822l-.002.035s-.167.19-.22.267c-.102.117-.197.225-.29.35-1.354 1.562-5.558 6.093-11.43 10.04 6.026 8.555 10.487 18.395 11.405 28.547l.056-.09c30.862 94.308 44.886-111.43 94.218-111.43 21.2 0 31.134 46.156 50.732 46.156s29.397-61.555 65.794-61.555 14 72.568 46.197 124.234c20.954 33.625 47.595 37.84 47.595 85.352zm33.432 42.92c-2.505 1.343-3.447 4.462-2.104 6.966l.032.06.21.39c.07.125.16.278.263.458l.078.138.014.096c.008.066.022.13.037.198.032.14.053.265.112.427.09.236.185.494.3.756.23.503.465 1.198.764 1.856.255.73.6 1.454.894 2.294.33.81.647 1.684.983 2.584.348.895.657 1.842 1.007 2.787.292.963.682 1.918.94 2.904.36.97.573 1.96.88 2.928.295.972.5 1.93.815 2.87.21.935.484 1.855.73 2.74.19.88.434 1.738.655 2.547.16.798.357 1.557.545 2.25.197.694.284 1.297.432 1.82.238 1.037.463 1.69.463 1.69l.068.202c.093.268.248.52.465.73.747.728 1.942.714 2.67-.033 0 0 .49-.502 1.192-1.487.345-.493.826-1.098 1.19-1.84.38-.74.793-1.596 1.19-2.56.36-.963.657-2.033.955-3.187.252-1.15.416-2.38.554-3.663.04-.636.053-1.284.06-1.943.02-.66.027-1.332-.046-1.992-.083-1.334-.25-2.685-.498-4.01-.236-1.336-.57-2.64-.943-3.914-.383-1.27-.832-2.494-1.32-3.658l-.767-1.695c-.268-.546-.568-1.068-.84-1.58-.544-1.02-1.19-1.95-1.756-2.798-.644-.85-1.18-1.594-1.808-2.257-.294-.332-.582-.632-.845-.908-.32-.334-.662-.653-.95-.922-.15-.133-.29-.26-.422-.378l-.195-.167-.138-.09-.444-.28-.38-.225c-1.493-.878-3.403-.983-5.043-.104z"/></svg>