<?xml version="1.0" encoding="iso-8859-1"?>
<!-- Generator: Adobe Illustrator 18.1.0, SVG Export Plug-In . SVG Version: 6.00 Build 0)  -->
<!DOCTYPE svg PUBLIC "-//W3C//DTD SVG 1.1//EN" "http://www.w3.org/Graphics/SVG/1.1/DTD/svg11.dtd">
<svg version="1.1" xmlns="http://www.w3.org/2000/svg" xmlns:xlink="http://www.w3.org/1999/xlink" x="0px" y="0px"
	 viewBox="0 0 512 512" enable-background="new 0 0 512 512" xml:space="preserve">
<g id="Layer_4">
	<path fill="#E9EAE5" d="M374.029,129.899c-60.191,0-50.16,11.011-102.827,11.011c-43.177,0-46.386-37.583-104.282-51.129
		c-9.667-2.401-21.42-4.164-34.286-4.499c-4.082-0.192-8.336-0.301-12.808-0.301l-0.093,0.453
		c-11.251,0.568-23.05,2.309-34.83,5.687c-39.672,10.16-29.332,23.318-24.646,41.616c4.686,18.298,23.318,29.332,41.616,24.646
		c0.445-0.114,0.883-0.238,1.317-0.37c6.354-1.897,11.771-5.496,15.875-10.17c1.025-1.004,2.034-2.048,3.032-3.126
		c1.055,1.955,2.06,3.88,2.986,5.725c5.129,10.219,12.023,19.431,20.306,27.313c27.496,26.165,11.503,57.614-0.675,75.609
		c-5.682,8.397-13.797,14.443-22.494,18.67l1.945,0.279c6.542,0.937,11.536,6.329,11.971,12.923
		c2.137,32.395,13.327,51.937,23.097,63.028c8.856,10.052,14.867,22.288,17.752,35.37c6.773,30.707,65.377,8.321,65.377-5.473
		s38.874-17.228,67.715-17.228c28.842,0,39.501,6.257,39.501,20.99c0,14.733,62.586,12.668,69.198-7.005
		c2.67-7.943,7.55-14.985,14.13-20.173c13.784-10.868,37.608-38.758,43.29-103.943C483.986,160.4,434.22,129.899,374.029,129.899z"
		/>
</g>
<g id="Layer_1">
</g>
</svg>
