<svg xmlns="http://www.w3.org/2000/svg" viewBox="0 0 512 512" enable-background="new 0 0 512 512"><path d="M67.958 117.156c-2.283 0-4.308-1.185-5.284-3.092-.75-1.465-.802-3.216-.14-4.803.6-1.442 1.73-2.646 3.184-3.39.98-.502 2.068-.77 3.143-.77 2.285 0 4.31 1.187 5.286 3.094.75 1.465.8 3.215.14 4.803-.6 1.444-1.73 2.648-3.184 3.392-.98.502-2.067.767-3.142.767zm.813-6.213c-.102.01-.237.042-.392.122-.152.078-.258.167-.33.25.103-.01.238-.043.393-.122.153-.078.26-.168.33-.25zm3.26 30.104c-2.354 0-4.308-1.073-5.23-2.872-.82-1.602-.7-3.534.327-5.3.803-1.38 2.125-2.592 3.724-3.41 1.36-.695 2.814-1.062 4.208-1.062 2.353 0 4.307 1.073 5.227 2.87.82 1.604.702 3.536-.325 5.302-.804 1.38-2.126 2.592-3.726 3.41-1.357.695-2.81 1.062-4.205 1.062zm2.208-6.676c-.242.073-.49.17-.727.293-.257.132-.477.276-.66.418.24-.07.488-.17.727-.29.258-.13.478-.275.662-.418zm-21.31-10.378c-2.335 0-4.763-1.512-6.336-3.946-2.304-3.567-1.93-7.77.854-9.567.802-.52 1.75-.794 2.738-.794 2.335 0 4.762 1.512 6.335 3.946.972 1.508 1.51 3.22 1.515 4.816.005 2.042-.86 3.774-2.37 4.75-.803.52-1.75.792-2.74.792zm-1.798-7.81c.088.216.207.45.365.696.16.245.324.45.485.62-.087-.217-.207-.452-.365-.697-.158-.243-.324-.45-.485-.617zm107.745 83.744c-.748 0-1.498-.09-2.23-.27-2.432-.593-4.487-2.1-5.787-4.24-1.3-2.14-1.69-4.657-1.095-7.09 1.028-4.21 4.77-7.152 9.102-7.152.748 0 1.498.09 2.23.27 5.02 1.226 8.108 6.31 6.882 11.33-1.03 4.21-4.772 7.152-9.102 7.152zm-.01-12.915c-1.632 0-3.043 1.11-3.43 2.7-.225.92-.08 1.87.412 2.678.49.808 1.266 1.375 2.184 1.6 1.895.465 3.823-.733 4.278-2.597.462-1.894-.703-3.81-2.598-4.275-.28-.07-.564-.103-.845-.103zm92.168 53.05c-.522 0-1.045-.062-1.554-.187-1.7-.415-3.135-1.466-4.04-2.96-.91-1.493-1.18-3.25-.766-4.948.717-2.938 3.33-4.99 6.353-4.99.522 0 1.045.062 1.554.187 3.506.856 5.66 4.404 4.806 7.908-.718 2.938-3.33 4.99-6.354 4.99zm-.005-7.25c-.273 0-.596.186-.682.54-.058.235.013.42.082.534s.2.262.436.32c.33.078.748-.093.852-.52.092-.377-.14-.76-.52-.853-.055-.012-.112-.02-.168-.02zm20.127-10.815c-.522 0-1.046-.063-1.556-.188-1.7-.414-3.134-1.465-4.04-2.958-.91-1.495-1.18-3.253-.766-4.95.717-2.94 3.33-4.99 6.353-4.99.52 0 1.045.06 1.555.186 3.505.856 5.66 4.404 4.804 7.908-.717 2.937-3.33 4.99-6.352 4.99zm-.007-7.25c-.273 0-.596.186-.683.54-.057.235.014.42.083.534s.2.26.436.317c.34.083.748-.09.853-.517.092-.377-.14-.76-.52-.853-.055-.015-.113-.02-.17-.02zM124.926 250.34c-.52 0-1.045-.062-1.554-.187-1.698-.415-3.133-1.465-4.04-2.96-.908-1.493-1.18-3.25-.764-4.948.717-2.938 3.33-4.99 6.353-4.99.523 0 1.047.062 1.556.187 1.698.415 3.133 1.465 4.04 2.96s1.18 3.25.765 4.948c-.717 2.94-3.33 4.99-6.353 4.99zm-.005-7.25c-.272 0-.594.186-.68.54-.06.234.013.42.08.533s.203.262.437.32c.338.08.75-.093.854-.52.058-.233-.013-.418-.082-.532-.07-.112-.2-.26-.435-.317-.058-.014-.115-.02-.17-.02zm86.33 25.09c-.522 0-1.045-.06-1.554-.187-1.698-.414-3.133-1.465-4.04-2.96s-1.18-3.25-.765-4.948c.72-2.938 3.33-4.99 6.354-4.99.523 0 1.047.062 1.557.187 1.698.414 3.13 1.465 4.04 2.958.907 1.494 1.18 3.252.764 4.95-.717 2.938-3.33 4.99-6.353 4.99zm-.006-7.248c-.273 0-.595.185-.682.538-.057.234.014.42.083.534s.2.262.435.32c.337.08.75-.092.853-.52.058-.234-.013-.42-.082-.533-.067-.112-.2-.26-.433-.317-.06-.014-.116-.02-.172-.02zm194.468 130.714c-.52 0-1.045-.062-1.555-.188-1.697-.414-3.132-1.465-4.04-2.958-.907-1.494-1.18-3.25-.764-4.95.717-2.937 3.33-4.99 6.353-4.99.52 0 1.045.062 1.555.188 3.506.855 5.66 4.402 4.806 7.907-.717 2.938-3.33 4.99-6.353 4.99zm-.006-7.25c-.273 0-.596.185-.683.54-.057.233.014.418.083.532s.2.262.436.32c.335.08.748-.094.853-.52.092-.378-.14-.76-.52-.853-.056-.012-.113-.02-.17-.02zM431.16 268.11c-.522 0-1.046-.06-1.556-.187-1.697-.414-3.132-1.465-4.04-2.958-.907-1.494-1.18-3.25-.764-4.95.717-2.937 3.33-4.99 6.354-4.99.52 0 1.045.062 1.555.187 1.695.415 3.13 1.465 4.04 2.96.905 1.492 1.176 3.25.76 4.948-.716 2.94-3.33 4.99-6.352 4.99zm-.006-7.248c-.274 0-.597.185-.684.54-.057.233.014.418.083.532s.2.262.436.32c.33.08.746-.094.85-.52.06-.235-.012-.42-.08-.533-.07-.112-.2-.26-.437-.317-.056-.013-.114-.02-.17-.02zm-265.238 97.076c-.522 0-1.045-.062-1.555-.188-1.696-.414-3.13-1.465-4.04-2.958-.905-1.494-1.177-3.252-.762-4.95.717-2.937 3.33-4.99 6.353-4.99.523 0 1.046.062 1.555.188 1.698.414 3.133 1.465 4.04 2.96s1.18 3.25.765 4.948c-.72 2.94-3.332 4.99-6.354 4.99zm-.006-7.25c-.273 0-.596.186-.682.54-.058.234.013.42.082.533.07.116.2.264.435.32.327.08.743-.067.854-.517.055-.234-.016-.42-.085-.534s-.2-.263-.435-.32c-.057-.013-.114-.02-.17-.02zm-51.322-181.32c-.48 0-.96-.058-1.426-.17-1.756-.43-3.25-1.648-4.098-3.344-.78-1.56-.97-3.394-.538-5.167.803-3.29 3.52-5.586 6.608-5.586.48 0 .96.06 1.427.173 3.495.853 5.575 4.67 4.638 8.508-.803 3.29-3.52 5.59-6.61 5.59zm.583-8.425c-.28 0-.79.378-.972 1.128-.104.427-.072.854.087 1.17.06.123.16.26.262.286l.042.005c.236 0 .753-.38.937-1.133.205-.838-.157-1.406-.35-1.453h-.005zM94.188 195.48c-.48 0-.96-.057-1.427-.17-1.756-.43-3.25-1.647-4.098-3.342-.78-1.56-.97-3.394-.538-5.167.803-3.287 3.52-5.584 6.608-5.584.48 0 .96.058 1.427.17 3.49.854 5.57 4.67 4.634 8.51-.803 3.29-3.52 5.586-6.608 5.586zm.582-8.423c-.283 0-.793.378-.976 1.128-.104.425-.072.852.087 1.17.06.12.16.26.263.284l.042.003c.237 0 .754-.38.938-1.134.205-.84-.157-1.408-.35-1.455h-.005zm156.728 24.563c-.748 0-1.5-.09-2.23-.27-2.432-.594-4.487-2.1-5.787-4.24-1.3-2.14-1.687-4.657-1.093-7.09 1.028-4.21 4.77-7.152 9.102-7.152.747 0 1.5.09 2.23.27 2.43.594 4.486 2.1 5.786 4.24 1.3 2.14 1.688 4.658 1.095 7.09-1.03 4.21-4.77 7.152-9.1 7.152zm-.012-12.915c-1.632 0-3.043 1.11-3.43 2.7-.225.917-.08 1.868.412 2.675.49.808 1.266 1.375 2.184 1.6 1.895.467 3.82-.732 4.275-2.597.224-.918.078-1.868-.413-2.676-.49-.808-1.266-1.375-2.184-1.6-.278-.067-.562-.102-.844-.102zM201.08 236.72c-.747 0-1.497-.09-2.228-.268-5.02-1.227-8.11-6.31-6.883-11.33 1.027-4.212 4.77-7.153 9.1-7.153.75 0 1.5.09 2.23.267 2.432.594 4.487 2.1 5.787 4.24 1.3 2.14 1.69 4.658 1.095 7.09-1.03 4.21-4.77 7.153-9.102 7.153zm-.01-12.914c-1.632 0-3.043 1.11-3.432 2.7-.462 1.895.703 3.813 2.598 4.275.278.07.562.105.844.105 1.632 0 3.043-1.11 3.43-2.7.225-.918.08-1.868-.412-2.676-.49-.81-1.266-1.376-2.184-1.6-.278-.07-.562-.103-.844-.103zM170.527 394.48c-.748 0-1.498-.092-2.23-.27-2.432-.595-4.487-2.1-5.787-4.24-1.3-2.14-1.69-4.658-1.095-7.09 1.028-4.212 4.77-7.153 9.102-7.153.748 0 1.498.09 2.23.27 2.432.594 4.487 2.1 5.787 4.24 1.3 2.14 1.69 4.657 1.095 7.09-1.03 4.21-4.774 7.152-9.104 7.152zm-.01-12.917c-1.632 0-3.043 1.11-3.43 2.7-.225.918-.08 1.868.412 2.676.49.805 1.264 1.373 2.182 1.6 1.89.457 3.82-.735 4.276-2.6.223-.918.076-1.868-.415-2.676-.49-.807-1.266-1.375-2.184-1.6-.278-.066-.56-.102-.844-.102zM159.46 240.5c-.748 0-1.498-.09-2.23-.27-5.02-1.226-8.108-6.31-6.882-11.33 1.03-4.21 4.772-7.152 9.102-7.152.748 0 1.498.09 2.23.27 2.432.593 4.487 2.1 5.787 4.24 1.3 2.14 1.69 4.657 1.095 7.09-1.028 4.21-4.77 7.152-9.102 7.152zm-.01-12.915c-1.632 0-3.043 1.11-3.432 2.7-.462 1.895.703 3.812 2.598 4.276.278.07.562.104.844.104 1.632 0 3.043-1.11 3.43-2.7.225-.918.08-1.868-.412-2.676-.49-.808-1.266-1.375-2.184-1.6-.278-.068-.563-.102-.844-.102zm22.072-12.465c-1.08 0-2.187-.137-3.293-.408-5.193-1.268-8.446-4.935-7.568-8.53.676-2.772 3.495-4.493 7.354-4.493 1.08 0 2.187.135 3.293.406 5.19 1.267 8.444 4.935 7.566 8.53-.677 2.772-3.495 4.493-7.355 4.493zm-4.765-7.45c.5.44 1.435 1.025 2.857 1.372 1.23.3 2.522.264 3.17.1-.5-.44-1.436-1.027-2.858-1.374-1.23-.3-2.523-.266-3.17-.1zm-43.41-22.91c-4.377 0-7.973-2.684-8.744-6.526-.903-4.5 2.485-8.99 7.553-10.006.69-.14 1.39-.208 2.084-.208 4.378 0 7.974 2.683 8.745 6.525.903 4.5-2.485 8.99-7.553 10.006-.69.14-1.39.21-2.084.21zm.894-10.904c-.307 0-.622.032-.934.094-1.88.377-3.244 1.813-2.98 3.135.258 1.278 2.095 2.114 3.96 1.742 1.88-.377 3.243-1.813 2.978-3.135-.214-1.063-1.485-1.836-3.022-1.836zm95.1 69.068c-3.16 0-6.17-2.938-7.49-7.312-.637-2.117-.77-4.294-.373-6.132.52-2.41 1.937-4.13 3.885-4.718.464-.14.947-.21 1.436-.21 3.16 0 6.17 2.938 7.488 7.31 1.542 5.118.034 9.782-3.51 10.852-.465.14-.948.21-1.437.21zm-2.167-12.155c-.126.65-.156 1.755.267 3.156.422 1.4 1.058 2.305 1.524 2.78.126-.653.156-1.757-.267-3.158-.423-1.403-1.058-2.306-1.524-2.78zM109.077 227.6c-1.08 0-2.186-.137-3.292-.407-5.192-1.268-8.445-4.936-7.567-8.532.677-2.77 3.496-4.49 7.355-4.49 1.08 0 2.186.136 3.292.406 5.192 1.266 8.445 4.934 7.567 8.53-.677 2.77-3.494 4.49-7.355 4.49zm-4.765-7.45c.5.44 1.435 1.025 2.857 1.372 1.23.3 2.52.263 3.166.1-.5-.44-1.436-1.027-2.857-1.375-1.23-.3-2.524-.266-3.17-.1zm116.298-7.648c-6.91 0-12.073-3.306-12.274-7.86-.113-2.54 1.39-4.956 4.123-6.63 2.24-1.376 5.202-2.21 8.34-2.35 7.33-.336 12.996 3.083 13.207 7.84.113 2.54-1.39 4.956-4.123 6.63-2.243 1.376-5.205 2.21-8.34 2.35-.314.013-.626.02-.934.02zm1.122-11.023c-.223 0-.448.007-.675.017-2.133.095-4.155.64-5.547 1.493-1.034.633-1.35 1.213-1.343 1.395.024.532 2.08 2.282 6.444 2.282.225 0 .45-.005.677-.015 2.133-.095 4.155-.64 5.548-1.493 1.034-.636 1.35-1.216 1.343-1.398-.024-.532-2.08-2.282-6.445-2.282zM155.7 334.19c-6.91 0-12.073-3.305-12.274-7.86-.113-2.538 1.39-4.954 4.123-6.63 2.24-1.375 5.202-2.21 8.34-2.35 7.343-.317 12.997 3.083 13.207 7.842.113 2.538-1.39 4.955-4.124 6.63-2.242 1.375-5.204 2.21-8.34 2.35-.313.013-.625.02-.933.02zm1.122-11.022c-.223 0-.448.005-.675.016-2.133.095-4.155.64-5.547 1.492-1.034.634-1.35 1.214-1.343 1.396.024.532 2.08 2.283 6.444 2.283.225 0 .45-.005.677-.016 2.133-.097 4.155-.64 5.548-1.494 1.034-.634 1.35-1.214 1.343-1.396-.024-.53-2.08-2.282-6.445-2.282zm-14.848-103.603c-3.21 0-6.305-1.893-8.075-4.94-1.213-2.084-1.665-4.468-1.273-6.713.418-2.398 1.795-4.434 3.778-5.585 1.156-.672 2.488-1.027 3.85-1.027 3.21 0 6.306 1.893 8.076 4.94 2.597 4.468 1.473 9.985-2.506 12.298-1.156.672-2.488 1.027-3.85 1.027zm-1.717-12.428c-.34 0-.648.08-.92.237-.668.39-.888 1.133-.96 1.542-.152.88.054 1.893.568 2.778.817 1.406 2.11 2.035 3.028 2.035.34 0 .648-.08.92-.24 1.175-.683 1.355-2.66.392-4.32-.816-1.405-2.11-2.034-3.028-2.034zm51.723-12.683c-.335 0-.675-.012-1.02-.036-5.33-.372-9.157-3.437-8.9-7.13.258-3.685 4.385-6.2 9.804-5.825 5.33.372 9.158 3.437 8.9 7.13-.24 3.45-3.852 5.86-8.784 5.86zm-3.66-6.73c.565.35 1.587.77 3.047.87 1.408.104 2.536-.17 3.14-.437-.567-.35-1.59-.77-3.05-.87-.206-.016-.41-.022-.61-.022-1.163 0-2.014.233-2.528.46zm186.46 39.658c-.52 0-1.045-.063-1.555-.188-1.697-.415-3.132-1.465-4.04-2.96-.907-1.493-1.18-3.25-.764-4.948.72-2.94 3.33-4.992 6.355-4.992.52 0 1.045.063 1.555.188 1.696.415 3.13 1.465 4.04 2.96.906 1.493 1.178 3.25.763 4.948-.717 2.94-3.33 4.992-6.353 4.992zm-.006-7.25c-.273 0-.596.186-.683.54-.055.234.016.42.085.533.07.114.2.262.436.32.335.082.75-.093.854-.518.057-.235-.014-.42-.083-.534-.07-.114-.2-.262-.435-.32-.056-.013-.114-.02-.17-.02zm-20.047-8.98c-.52 0-1.045-.063-1.555-.188-3.505-.856-5.66-4.404-4.804-7.908.717-2.94 3.33-4.992 6.353-4.992.524 0 1.048.063 1.558.188 1.697.414 3.132 1.465 4.04 2.96.906 1.492 1.178 3.25.763 4.947-.717 2.94-3.33 4.99-6.352 4.99zm-.006-7.25c-.27 0-.594.185-.68.54-.093.377.14.76.52.853.33.08.746-.093.85-.518.093-.378-.14-.76-.517-.853-.058-.015-.115-.022-.17-.022zm-12.43-10.18c-.75 0-1.5-.09-2.23-.27-2.433-.593-4.487-2.1-5.788-4.24-1.3-2.14-1.688-4.658-1.094-7.09 1.028-4.21 4.77-7.152 9.102-7.152.747 0 1.497.09 2.23.27 5.02 1.225 8.108 6.308 6.882 11.33-1.03 4.21-4.772 7.152-9.103 7.152zm-.01-12.915c-1.634 0-3.044 1.11-3.433 2.7-.225.918-.077 1.868.413 2.676s1.266 1.375 2.184 1.6c.278.068.562.103.845.103 1.63 0 3.04-1.11 3.43-2.7.462-1.895-.703-3.813-2.598-4.275-.278-.07-.562-.102-.844-.102zm-39.864 46.323c-.747 0-1.497-.092-2.23-.27-5.02-1.227-8.108-6.31-6.882-11.33 1.028-4.212 4.77-7.153 9.102-7.153.747 0 1.497.09 2.23.27 2.432.593 4.487 2.1 5.787 4.24 1.3 2.14 1.688 4.657 1.095 7.09-1.03 4.21-4.77 7.152-9.102 7.152zm-.01-12.916c-1.633 0-3.043 1.11-3.432 2.7-.462 1.895.703 3.812 2.598 4.276 1.896.465 3.82-.733 4.275-2.598.224-.918.077-1.868-.413-2.676s-1.267-1.375-2.185-1.6c-.28-.068-.563-.102-.845-.102zm-19.55-8.686c-1.077 0-2.186-.137-3.29-.407-2.148-.522-4.093-1.513-5.475-2.79-1.81-1.67-2.574-3.764-2.09-5.74.676-2.77 3.494-4.49 7.354-4.49 1.078 0 2.187.136 3.292.406 2.147.525 4.09 1.516 5.473 2.79 1.812 1.674 2.575 3.767 2.092 5.743-.674 2.77-3.49 4.49-7.353 4.49zm-4.763-7.45c.5.44 1.436 1.025 2.857 1.372 1.23.3 2.522.263 3.168.1-.498-.44-1.435-1.027-2.856-1.375-1.232-.3-2.525-.263-3.17-.098zm-28.936 73.9c-1.08 0-2.186-.137-3.292-.407-5.19-1.266-8.444-4.934-7.566-8.53.675-2.77 3.493-4.49 7.353-4.49 1.08 0 2.186.136 3.292.406 5.192 1.268 8.445 4.936 7.567 8.532-.677 2.77-3.495 4.49-7.356 4.49zm-4.764-7.452c.5.44 1.435 1.026 2.857 1.374 1.23.3 2.525.265 3.17.098-.5-.44-1.436-1.026-2.858-1.374-1.23-.3-2.524-.265-3.17-.098zm89.02-26.056c-1.11 0-2.152-.323-3.01-.933-1.66-1.177-2.455-3.258-2.18-5.71.21-1.868 1.03-3.89 2.31-5.692 2.106-2.973 5.06-4.82 7.706-4.82 1.11 0 2.15.322 3.01.93 3.02 2.145 2.964 7.047-.13 11.405-2.11 2.972-5.06 4.82-7.707 4.82zm4.208-11.107c-.592.302-1.48.956-2.327 2.15-.848 1.192-1.17 2.25-1.26 2.908.593-.3 1.483-.954 2.33-2.147s1.17-2.25 1.26-2.91zm91.124 95.805c-1.11 0-2.153-.322-3.012-.932-1.66-1.177-2.454-3.258-2.18-5.71.21-1.867 1.03-3.89 2.31-5.692 2.106-2.973 5.06-4.82 7.707-4.82 1.11 0 2.15.322 3.01.933 1.66 1.176 2.453 3.257 2.18 5.71-.21 1.867-1.03 3.89-2.31 5.692-2.11 2.97-5.062 4.817-7.707 4.817zm4.207-11.106c-.59.3-1.48.955-2.327 2.148-.848 1.193-1.17 2.25-1.26 2.91.593-.303 1.483-.957 2.33-2.15s1.17-2.248 1.26-2.908zM163.5 277.636c-1.112 0-2.153-.322-3.012-.932-3.02-2.142-2.964-7.044.128-11.402 2.11-2.974 5.063-4.82 7.71-4.82 1.11 0 2.15.322 3.01.93 1.66 1.18 2.454 3.26 2.18 5.71-.21 1.87-1.028 3.893-2.308 5.695-2.11 2.972-5.062 4.82-7.708 4.82zm4.207-11.106c-.593.3-1.483.955-2.33 2.148-.847 1.194-1.17 2.25-1.26 2.91.594-.303 1.484-.957 2.33-2.15s1.17-2.25 1.26-2.908zm140.603-70.16c-6.913 0-12.076-3.305-12.277-7.86-.112-2.538 1.39-4.955 4.123-6.63 2.242-1.376 5.204-2.21 8.34-2.35 7.353-.334 13 3.083 13.21 7.84.112 2.54-1.39 4.956-4.124 6.632-2.242 1.375-5.204 2.208-8.34 2.348-.314.014-.625.02-.932.02zm1.12-11.022c-.223 0-.448.005-.675.015-2.134.095-4.155.64-5.548 1.493-1.033.634-1.352 1.214-1.343 1.396.023.532 2.078 2.282 6.445 2.282.22 0 .445-.005.672-.015 2.132-.097 4.154-.64 5.547-1.495 1.032-.634 1.35-1.214 1.342-1.396-.023-.533-2.078-2.283-6.444-2.283zm-27.757 61.368c-.335 0-.675-.012-1.02-.036-5.33-.372-9.156-3.437-8.9-7.13.26-3.685 4.38-6.204 9.805-5.826 2.205.154 4.288.802 5.866 1.825 2.07 1.34 3.176 3.274 3.033 5.304-.24 3.45-3.853 5.86-8.784 5.86zm-3.66-6.73c.565.35 1.587.77 3.047.87 1.405.102 2.537-.17 3.14-.437-.565-.35-1.588-.77-3.048-.873-1.413-.1-2.538.173-3.14.438zm62.634 77.026c-.52 0-1.045-.062-1.555-.188-1.697-.414-3.132-1.465-4.04-2.96-.907-1.493-1.18-3.25-.764-4.948.72-2.938 3.33-4.99 6.354-4.99.52 0 1.045.062 1.555.188 1.697.414 3.132 1.465 4.04 2.958.907 1.494 1.18 3.25.764 4.95-.717 2.938-3.33 4.99-6.352 4.99zm-.004-7.25c-.266 0-.593.17-.684.54-.06.233.012.42.08.533s.2.262.437.32c.337.08.75-.094.854-.52.093-.378-.14-.76-.52-.853-.056-.012-.112-.02-.17-.02zm20.127-10.816c-.522 0-1.046-.062-1.556-.188-1.697-.414-3.132-1.465-4.04-2.958-.907-1.494-1.18-3.25-.764-4.95.717-2.937 3.33-4.99 6.353-4.99.52 0 1.045.062 1.555.188 3.504.855 5.66 4.402 4.804 7.907-.718 2.94-3.33 4.99-6.353 4.99zm-.007-7.25c-.273 0-.596.186-.683.54-.057.234.014.42.083.533s.2.26.436.317c.33.08.746-.092.85-.52.093-.377-.14-.76-.52-.852-.055-.012-.113-.02-.17-.02zm-30.215 60.82c-.52 0-1.045-.06-1.555-.187-1.697-.416-3.133-1.467-4.04-2.96-.907-1.494-1.178-3.25-.763-4.95.717-2.938 3.33-4.99 6.353-4.99.52 0 1.045.062 1.555.19 1.697.412 3.132 1.463 4.04 2.956.907 1.494 1.18 3.25.764 4.95-.72 2.938-3.332 4.99-6.354 4.99zm-.005-7.25c-.273 0-.596.187-.683.54-.058.236.013.42.082.534.07.114.2.262.436.32.337.08.75-.094.854-.52.092-.378-.14-.76-.52-.853-.056-.013-.113-.02-.17-.02zm10.567-56.694c-.746 0-1.496-.09-2.228-.27-2.433-.594-4.488-2.1-5.788-4.24-1.3-2.14-1.688-4.658-1.095-7.09 1.026-4.212 4.77-7.153 9.1-7.153.747 0 1.497.09 2.23.27 2.432.592 4.487 2.1 5.787 4.24 1.3 2.14 1.688 4.656 1.095 7.09-1.028 4.21-4.77 7.15-9.102 7.15zm-.008-12.916c-1.633 0-3.043 1.11-3.432 2.7-.224.918-.077 1.868.413 2.676s1.267 1.376 2.185 1.6c1.896.462 3.82-.733 4.275-2.597.224-.918.077-1.868-.413-2.676-.49-.81-1.267-1.378-2.185-1.603-.278-.067-.562-.102-.843-.102zm50.928 81.49c-.747 0-1.497-.09-2.23-.27-5.02-1.227-8.108-6.31-6.882-11.33 1.028-4.21 4.77-7.152 9.102-7.152.747 0 1.497.09 2.23.27 2.432.594 4.487 2.1 5.787 4.24 1.3 2.14 1.688 4.658 1.095 7.09-1.028 4.212-4.77 7.153-9.102 7.153zm-.01-12.915c-1.632 0-3.042 1.11-3.43 2.7-.463 1.897.702 3.815 2.598 4.278.277.067.562.103.843.103 1.635 0 3.045-1.11 3.434-2.7.224-.917.077-1.867-.413-2.675s-1.266-1.376-2.184-1.6c-.28-.067-.563-.103-.844-.103zm27.89-106.826c-.747 0-1.497-.09-2.228-.27-5.02-1.225-8.11-6.308-6.883-11.33 1.025-4.21 4.77-7.152 9.1-7.152.75 0 1.5.09 2.23.27 2.432.593 4.487 2.1 5.787 4.24 1.3 2.14 1.688 4.657 1.095 7.09-1.03 4.21-4.77 7.152-9.102 7.152zm-.01-12.915c-1.632 0-3.043 1.11-3.432 2.7-.462 1.893.703 3.81 2.598 4.273.278.068.562.103.845.103 1.634 0 3.045-1.11 3.434-2.7.224-.918.077-1.868-.413-2.676-.49-.807-1.266-1.374-2.184-1.6-.278-.067-.562-.1-.845-.1zm-47.428 57.99c-1.078 0-2.187-.138-3.292-.408-2.147-.524-4.092-1.515-5.474-2.79-1.812-1.673-2.576-3.766-2.093-5.742.677-2.77 3.495-4.49 7.355-4.49 1.078 0 2.187.137 3.292.407 2.147.524 4.092 1.515 5.473 2.79 1.813 1.673 2.576 3.766 2.093 5.742-.675 2.767-3.493 4.49-7.354 4.49zm-4.765-7.45c.5.438 1.436 1.024 2.857 1.372 1.23.3 2.52.264 3.168.098-.498-.44-1.435-1.025-2.856-1.373-1.23-.3-2.523-.265-3.17-.098zm-1.68-22.537c-1.08 0-2.188-.137-3.293-.407-5.19-1.268-8.443-4.936-7.566-8.53.677-2.772 3.495-4.494 7.354-4.494 1.08 0 2.188.137 3.293.408 5.19 1.267 8.443 4.935 7.567 8.53-.677 2.772-3.495 4.493-7.356 4.493zm-4.765-7.45c.5.44 1.436 1.025 2.857 1.373 1.227.3 2.52.263 3.167.098-.5-.44-1.436-1.026-2.857-1.373-1.23-.3-2.523-.262-3.168-.097zm34.832-25.288c-1.08 0-2.187-.137-3.292-.407-2.147-.524-4.092-1.516-5.474-2.79-1.812-1.674-2.576-3.767-2.093-5.743.675-2.77 3.493-4.49 7.354-4.49 1.076 0 2.185.136 3.29.406 2.147.526 4.092 1.518 5.474 2.793 1.812 1.673 2.576 3.766 2.093 5.742-.675 2.77-3.493 4.49-7.354 4.49zm-4.765-7.45c.497.44 1.434 1.025 2.855 1.373 1.23.3 2.52.265 3.168.098-.5-.44-1.436-1.026-2.857-1.373-1.23-.3-2.522-.264-3.168-.1zm-83.022 54.137c-6.912 0-12.074-3.307-12.275-7.86-.112-2.54 1.39-4.955 4.123-6.63 2.242-1.376 5.204-2.21 8.34-2.35 7.353-.34 12.998 3.083 13.21 7.84.112 2.54-1.39 4.955-4.124 6.632-2.242 1.374-5.204 2.208-8.34 2.348-.314.014-.626.02-.934.02zm1.12-11.022c-.22 0-.446.005-.673.015-2.134.095-4.155.64-5.548 1.493-1.033.633-1.352 1.213-1.343 1.395.023.532 2.078 2.283 6.443 2.283.223 0 .448-.005.676-.016 2.132-.095 4.154-.64 5.547-1.492 1.033-.634 1.352-1.214 1.343-1.396-.023-.532-2.078-2.282-6.444-2.282zm61.858 68.248c-.334 0-.674-.012-1.018-.036-5.33-.37-9.157-3.437-8.9-7.13.258-3.685 4.383-6.212 9.804-5.825 2.205.153 4.288.802 5.866 1.824 2.07 1.345 3.176 3.278 3.033 5.308-.24 3.45-3.85 5.86-8.783 5.86zm-3.66-6.73c.565.35 1.588.77 3.05.87 1.41.093 2.535-.173 3.14-.438-.567-.35-1.59-.77-3.05-.87-1.412-.096-2.537.173-3.14.438zM201.644 299.9c-.335 0-.676-.012-1.02-.036-5.332-.37-9.158-3.437-8.9-7.13.257-3.685 4.382-6.213 9.804-5.824 5.33.37 9.158 3.437 8.9 7.13-.242 3.45-3.854 5.86-8.784 5.86zm-3.662-6.728c.566.35 1.588.768 3.048.87 1.405.1 2.536-.173 3.14-.438-.566-.35-1.588-.77-3.048-.87-.207-.015-.41-.022-.612-.022-1.164 0-2.014.232-2.528.46zm-76.687 76.74c-1.17 0-2.325-.317-3.335-.917-3.102-1.84-4.128-5.862-2.29-8.964 1.173-1.976 3.33-3.204 5.63-3.204 1.172 0 2.326.317 3.336.917 1.502.89 2.568 2.314 3 4.008.432 1.694.18 3.455-.712 4.958-1.172 1.977-3.33 3.205-5.63 3.205zm.007-7.25c-.095 0-.42.025-.61.346-.198.335-.088.77.247.968.11.065.23.1.354.1.095 0 .42-.025.61-.347.123-.21.11-.407.077-.536-.032-.13-.115-.31-.322-.432-.113-.067-.233-.1-.358-.1zm-18.955 43.422c-1.81 0-3.574-.522-5.098-1.512-4.337-2.814-5.575-8.632-2.76-12.968 1.735-2.675 4.677-4.27 7.87-4.27 1.81 0 3.572.52 5.097 1.51 2.1 1.364 3.544 3.464 4.065 5.913.52 2.45.058 4.955-1.306 7.055-1.737 2.675-4.678 4.272-7.87 4.272zm.012-12.913c-1.21 0-2.32.605-2.975 1.613-1.062 1.637-.594 3.832 1.042 4.894.576.374 1.24.57 1.92.57 1.207 0 2.318-.602 2.973-1.61.516-.794.69-1.738.494-2.663-.197-.924-.742-1.716-1.534-2.23-.576-.375-1.24-.572-1.92-.572zm27.856-106.07c-2.045 0-4.316-.742-6.395-2.092-1.852-1.204-3.36-2.78-4.244-4.44-1.16-2.177-1.19-4.404-.082-6.11 1.02-1.57 2.795-2.436 5.003-2.436 2.045 0 4.316.743 6.395 2.093 1.855 1.204 3.363 2.78 4.247 4.44 1.16 2.177 1.19 4.404.08 6.11-1.02 1.57-2.795 2.436-5.003 2.436zm-5.462-9.23c.326.58 1.016 1.444 2.245 2.24 1.157.754 2.24 1.077 2.957 1.14-.326-.58-1.016-1.442-2.245-2.24-1.158-.752-2.24-1.075-2.96-1.14zm-14.84 68.842c-3.128 0-5.63-1.242-6.867-3.408-2.378-4.167.626-10.048 6.988-13.68 2.787-1.59 5.793-2.465 8.465-2.465 3.128 0 5.632 1.24 6.868 3.406 2.378 4.17-.626 10.05-6.99 13.68-2.787 1.59-5.793 2.465-8.464 2.465zm8.585-13.716c-1.65 0-3.68.62-5.574 1.698-3.93 2.243-5.13 5.16-4.81 5.717.085.153.638.466 1.796.466 1.65 0 3.68-.62 5.572-1.698 3.93-2.242 5.13-5.158 4.81-5.717-.085-.15-.638-.463-1.796-.463zM93.014 434.322c-2.05 0-3.74-.792-4.762-2.23-1.177-1.66-1.24-3.886-.173-6.11.814-1.693 2.255-3.332 4.057-4.612 2.117-1.503 4.537-2.364 6.642-2.364 2.047 0 3.74.792 4.76 2.23 1.177 1.66 1.24 3.886.173 6.11-.814 1.693-2.255 3.332-4.057 4.612-2.117 1.503-4.537 2.364-6.642 2.364zm5.41-9.456c-.72.092-1.774.457-2.908 1.263-1.195.846-1.85 1.737-2.15 2.33.722-.09 1.776-.457 2.91-1.263 1.194-.847 1.848-1.74 2.15-2.332zM357.24 385.72c-1.633 0-3.39-.383-5.08-1.108-4.91-2.11-7.51-6.267-6.05-9.667.91-2.114 3.188-3.375 6.096-3.375 1.634 0 3.39.383 5.08 1.11 4.91 2.11 7.512 6.266 6.05 9.666-.907 2.114-3.186 3.375-6.095 3.375zm-5.367-8.3c.42.516 1.246 1.25 2.592 1.828.954.41 1.94.636 2.776.636.125 0 .235-.005.335-.013-.42-.515-1.245-1.25-2.59-1.827-.955-.41-1.94-.636-2.778-.636-.123 0-.233.005-.333.013z" fill="#845931"/></svg>