<?xml version="1.0" encoding="iso-8859-1"?>
<!-- Generator: Adobe Illustrator 18.1.0, SVG Export Plug-In . SVG Version: 6.00 Build 0)  -->
<!DOCTYPE svg PUBLIC "-//W3C//DTD SVG 1.1//EN" "http://www.w3.org/Graphics/SVG/1.1/DTD/svg11.dtd">
<svg version="1.1" xmlns="http://www.w3.org/2000/svg" xmlns:xlink="http://www.w3.org/1999/xlink" x="0px" y="0px"
	 viewBox="0 0 512 512" enable-background="new 0 0 512 512" xml:space="preserve">
<g id="Layer_4">
	<g>
		<path fill="#FFDE76" d="M104.153,159.483c0,0-0.358-0.474-1.03-1.362c-0.168-0.222-0.355-0.47-0.562-0.743
			c-0.103-0.136-0.211-0.279-0.324-0.428l-0.172-0.228l-0.097-0.124l-0.21-0.223c-1.128-1.2-2.403-2.592-3.782-4.17
			c-0.326-0.382-0.738-0.828-1.011-1.19c-0.279-0.367-0.564-0.742-0.857-1.127c-0.574-0.771-1.176-1.578-1.802-2.419
			c-1.248-1.67-2.471-3.613-3.783-5.619c-2.522-4.142-5.167-8.883-7.402-14.413c-2.252-5.498-4.227-11.647-5.445-18.355
			c-1.212-6.701-1.694-13.919-1.131-21.214c0.071-0.912,0.129-1.821,0.231-2.732c0.126-0.908,0.252-1.82,0.379-2.736
			c0.14-0.905,0.28-1.813,0.42-2.725c0.192-0.899,0.385-1.801,0.578-2.705c0.206-0.893,0.414-1.79,0.621-2.688l0.08-0.335
			c0.056-0.471-0.097,0.937,0.131-1.078l0.021-0.05l0.041-0.1l0.166-0.4l0.332-0.802l0.667-1.609
			c0.326-0.986,0.653-1.974,0.98-2.964c0.348-1.019,0.708-2.042,1.079-3.034l1.126-2.485c0.386-0.821,0.751-1.645,1.167-2.448
			l1.287-2.384c1.726-3.156,3.714-6.143,5.85-8.956c4.289-5.618,9.294-10.495,14.741-14.383c5.434-3.9,11.258-6.834,17.04-8.776
			c1.467-0.448,2.865-0.958,4.32-1.28c0.718-0.169,1.432-0.337,2.143-0.505l1.056-0.239l0.131-0.029l0.066-0.015
			c-0.073,0.032,0.886-0.341,0.503-0.185l0.201-0.019l0.401-0.038c1.565-0.032,5.711-0.866,8.071-0.799
			c5.366-0.186,10.335,0.409,14.705,1.489c4.376,1.077,8.148,2.641,11.249,4.32c3.099,1.696,5.57,3.416,7.42,5.026
			c0.949,0.759,1.724,1.524,2.392,2.176c0.678,0.636,1.213,1.215,1.631,1.701c0.834,0.947,1.279,1.453,1.279,1.453l0.158,0.179
			c1.855,2.106,1.651,5.316-0.454,7.171c-1.641,1.446-3.962,1.635-5.78,0.654c0,0-0.436-0.236-1.252-0.679
			c-0.399-0.231-0.903-0.495-1.52-0.755c-0.607-0.276-1.292-0.606-2.104-0.877c-1.575-0.634-3.581-1.159-5.875-1.549
			c-2.299-0.376-4.931-0.531-7.755-0.281c-2.822,0.246-5.832,0.896-8.818,2.015c-0.372,0.14-0.746,0.281-1.122,0.423
			c-0.321,0.151-0.643,0.302-0.968,0.455l-0.483,0.22l-0.252,0.114l-0.345,0.17c-0.461,0.227-0.924,0.456-1.39,0.686l-0.35,0.173
			l-0.175,0.087c-0.239,0.096,0.275-0.106,0.211-0.077l-0.033,0.021l-0.067,0.042l-0.536,0.332
			c-0.357,0.218-0.715,0.438-1.075,0.658c-0.732,0.41-1.386,0.977-2.088,1.448c-2.727,2.038-5.204,4.517-7.276,7.319
			c-2.084,2.793-3.718,5.94-4.877,9.186c-0.571,1.628-1.055,3.272-1.369,4.935l-0.246,1.236c-0.075,0.412-0.105,0.834-0.163,1.246
			l-0.162,1.231l-0.023,1.003l-0.053,1.034l-0.049,1.688l-0.024,0.841l-0.012,0.42l-0.003,0.105l-0.002,0.052
			c0.103-0.919,0.031-0.233,0.055-0.429l0.014,0.149l0.104,1.177l0.091,1.158l0.19,1.139l0.171,1.12
			c0.072,0.37,0.178,0.735,0.26,1.098c0.668,2.904,1.706,5.578,2.948,7.983c1.252,2.405,2.763,4.517,4.267,6.355
			c1.478,1.858,3.123,3.356,4.546,4.655c0.778,0.603,1.424,1.221,2.123,1.704c0.34,0.247,0.665,0.484,0.976,0.711
			c0.312,0.235,0.606,0.456,0.828,0.562c0.473,0.271,0.877,0.521,1.221,0.745c0.638,0.4,1.181,0.741,1.622,1.017
			c0.915,0.573,1.403,0.878,1.403,0.878l4.65,2.911c15.518,9.716,20.221,30.172,10.505,45.69s-30.172,20.221-45.69,10.505
			C109.517,165.404,106.507,162.573,104.153,159.483z"/>
	</g>
</g>
<g id="Layer_1">
</g>
</svg>
