<svg xmlns="http://www.w3.org/2000/svg" viewBox="0 0 512 512" enable-background="new 0 0 512 512"><path fill="#2B3B47" d="M233.443 350.53c-5.86 1.974-9.614 4.873-9.96 8.995-1.16 13.745-15.014 48.814-36.174 47.03-21.245-1.79-25.264-15.898-29.435-47.065-1.08-8.06-3.338-15.9-6.726-23.23 16.08 7.628 34.392 12.685 54.042 14.34 9.638.812 19.093.76 28.25-.07zm124.914 12.974c-11.92-1.004-23.344-3.262-34.08-6.583 4.578 3.794 6.277 8.826 5.727 15.356-1.237 14.68-6.997 45.714 22.992 48.24 21.176 1.784 38.31-30.363 46.55-49.412 1.68-3.885 3.906-7.493 6.597-10.71-14.973 3.34-31.11 4.516-47.786 3.11z"/></svg>