<?xml version="1.0" encoding="iso-8859-1"?>
<!-- Generator: Adobe Illustrator 18.1.0, SVG Export Plug-In . SVG Version: 6.00 Build 0)  -->
<!DOCTYPE svg PUBLIC "-//W3C//DTD SVG 1.1//EN" "http://www.w3.org/Graphics/SVG/1.1/DTD/svg11.dtd">
<svg version="1.1" id="Layer_1" xmlns="http://www.w3.org/2000/svg" xmlns:xlink="http://www.w3.org/1999/xlink" x="0px" y="0px"
	 viewBox="0 0 512 512" enable-background="new 0 0 512 512" xml:space="preserve">
<path fill="#E4E2DE" d="M491.942,148.321c0-59.89-48.55-108.44-108.44-108.44c-46.792,0-86.661,29.636-101.862,71.162
	c-8.353-1.324-16.915-2.02-25.641-2.02c-8.725,0-17.287,0.696-25.64,2.019c-15.201-41.526-55.071-71.162-101.862-71.162
	c-59.89,0-108.44,48.55-108.44,108.44c0,44.747,27.105,83.16,65.791,99.726c-16.282,18.197-26.187,42.22-26.187,68.56
	c0,56.81,46.054,102.864,102.864,102.864c3.588,0,7.133-0.185,10.627-0.544c17.61,37.922,61.271,69.936,85.216,69.936
	c23.935,0,64.647-31.985,81.018-69.886c3.32,0.323,6.684,0.493,10.089,0.493c56.81,0,102.864-46.054,102.864-102.864
	c0-26.34-9.905-50.363-26.187-68.56C464.837,231.48,491.942,193.068,491.942,148.321z"/>
</svg>
