<?xml version="1.0" encoding="iso-8859-1"?>
<!-- Generator: Adobe Illustrator 18.1.0, SVG Export Plug-In . SVG Version: 6.00 Build 0)  -->
<!DOCTYPE svg PUBLIC "-//W3C//DTD SVG 1.1//EN" "http://www.w3.org/Graphics/SVG/1.1/DTD/svg11.dtd">
<svg version="1.1" xmlns="http://www.w3.org/2000/svg" xmlns:xlink="http://www.w3.org/1999/xlink" x="0px" y="0px"
	 viewBox="0 0 512 512" enable-background="new 0 0 512 512" xml:space="preserve">
<g id="Layer_5">
	<path fill="#D19B61" d="M496.767,198.32c-6.215-23.643-15.168-40.713-28.176-53.721c-0.349-0.349-0.726-0.653-1.116-0.929
		c-8.53-7.958-20.341-12.266-36.448-12.266c-27.411,0-51.497,13.135-74.48,11.071c-30.586-2.748-59.22-20.894-91.14-20.894
		c-52.814,0-94.255,14.383-140.592-6.259c-2.182-1.349-4.568-2.486-7.116-3.431c-0.358-0.186-0.715-0.366-1.074-0.556
		c0,0-0.038,0.051-0.1,0.133c-6.208-2.114-13.333-3.112-20.911-3.112c-20.377,0-37.485,7.197-42.262,24.004
		c-5.707,9.58-11.211,23.073-27.333,41.034C12.695,179.936,2,192.12,2,206.082c0,13.095,9.405,24.632,21.568,31.412
		c-0.136,0.827-0.212,1.711-0.212,2.672c0,6.904,20.491,12.5,45.767,12.5c10.984,0,21.062-1.058,28.95-2.82
		c18.659,16.742,14.894,52.67,41.136,67.74c35.661,20.48,23.387,55.086,23.387,80.543c0,70.342,28.126,59.577,47.408-9.474
		c8.97-32.12,22.592-39.199,129.996-58.243c70.001-12.412,69.094,6.674,78.338,89.647c4.388,39.384,23.998,33.789,42.711-15.72
		c6.587-17.428,15.92-41.14,21.951-110.332c2.262-25.952,4.174-49.864,4.458-70.921c4.632,23.185,7.621,54.203,7.621,96.43
		c0,4.694-0.194,8.5,4.5,8.5s4.5-3.806,4.5-8.5C504.078,266.923,504.378,227.279,496.767,198.32z"/>
</g>
<g id="Layer_1">
</g>
</svg>
