<?xml version="1.0" encoding="iso-8859-1"?>
<!-- Generator: Adobe Illustrator 18.1.0, SVG Export Plug-In . SVG Version: 6.00 Build 0)  -->
<!DOCTYPE svg PUBLIC "-//W3C//DTD SVG 1.1//EN" "http://www.w3.org/Graphics/SVG/1.1/DTD/svg11.dtd">
<svg version="1.1" xmlns="http://www.w3.org/2000/svg" xmlns:xlink="http://www.w3.org/1999/xlink" x="0px" y="0px"
	 viewBox="0 0 512 512" enable-background="new 0 0 512 512" xml:space="preserve">
<g id="Layer_6">
	<path fill="#2B3B47" d="M61.573,157.258c4.383,0.219,7.759,3.95,7.54,8.333l-0.686,13.724c-0.219,4.383-3.95,7.759-8.333,7.54l0,0
		c-4.383-0.219-7.759-3.95-7.54-8.333l0.686-13.724C53.459,160.415,57.19,157.039,61.573,157.258L61.573,157.258z M16.345,195.226
		c-2.402-0.12-4.446,1.73-4.566,4.131l-0.376,7.52c-0.12,2.402,1.73,4.446,4.131,4.566l0,0c2.402,0.12,4.446-1.73,4.566-4.131
		l0.376-7.52C20.596,197.39,18.746,195.346,16.345,195.226L16.345,195.226z"/>
</g>
<g id="Layer_1">
</g>
</svg>
