<?xml version="1.0" encoding="iso-8859-1"?>
<!-- Generator: Adobe Illustrator 18.1.0, SVG Export Plug-In . SVG Version: 6.00 Build 0)  -->
<!DOCTYPE svg PUBLIC "-//W3C//DTD SVG 1.1//EN" "http://www.w3.org/Graphics/SVG/1.1/DTD/svg11.dtd">
<svg version="1.1" xmlns="http://www.w3.org/2000/svg" xmlns:xlink="http://www.w3.org/1999/xlink" x="0px" y="0px"
	 viewBox="0 0 512 512" enable-background="new 0 0 512 512" xml:space="preserve">
<g id="Layer_8">
	<path fill="#FFE1AB" d="M346.139,51.996c0,0,0.156,0.118,0.458,0.345c0.297,0.228,0.771,0.565,1.297,1.009
		c0.553,0.443,1.211,0.99,1.929,1.636c0.758,0.644,1.536,1.39,2.41,2.225c1.75,1.67,3.656,3.71,5.676,6.06
		c2.006,2.35,4.03,5.016,5.973,7.938c3.893,5.844,7.365,12.723,9.781,20.166c2.47,7.44,3.844,15.446,4.121,23.515
		c0.136,4.034,0.04,8.082-0.326,12.081c-0.344,3.998-0.997,7.95-1.833,11.786c-1.701,7.674-4.389,14.898-7.509,21.136
		c-1.565,3.119-3.191,5.989-4.873,8.547c-0.837,1.278-1.589,2.473-2.425,3.586c-0.79,1.11-1.531,2.131-2.286,3.057
		c-0.365,0.463-0.71,0.9-1.035,1.312c-0.353,0.414-0.683,0.801-0.991,1.162c-0.598,0.72-1.174,1.337-1.633,1.836
		c-0.442,0.498-0.86,0.885-1.107,1.144c-0.257,0.259-0.39,0.393-0.39,0.393c-3.642,3.667-9.452,3.901-13.403,0.752
		c0,0-0.147-0.118-0.432-0.347c-0.274-0.229-0.733-0.567-1.228-1.013c-0.512-0.445-1.154-0.993-1.828-1.642
		c-0.346-0.324-0.718-0.672-1.115-1.044c-0.369-0.373-0.761-0.769-1.175-1.188c-0.854-0.836-1.704-1.767-2.614-2.782
		c-0.955-1.012-1.837-2.115-2.811-3.292c-1.958-2.353-3.895-5.023-5.799-7.948c-3.798-5.85-7.278-12.728-9.827-20.163
		c-1.26-3.719-2.351-7.573-3.14-11.507c-0.812-3.933-1.36-7.944-1.676-11.968c-0.628-8.049-0.158-16.159,1.464-23.828
		c1.568-7.667,4.248-14.89,7.462-21.134c1.604-3.121,3.317-5.996,5.047-8.557c1.745-2.561,3.41-4.802,4.962-6.657
		c0.775-0.928,1.464-1.756,2.146-2.481c0.641-0.723,1.234-1.34,1.734-1.842c0.474-0.5,0.907-0.888,1.176-1.148
		c0.275-0.26,0.417-0.394,0.417-0.394C336.479,49.209,342.16,48.994,346.139,51.996z M87.792,327.938c0,0,0.085,0.176,0.25,0.517
		c0.166,0.335,0.404,0.866,0.737,1.469c0.327,0.629,0.735,1.38,1.23,2.211c0.484,0.869,1.065,1.777,1.714,2.797
		c1.298,2.042,2.928,4.308,4.84,6.746c1.915,2.425,4.136,4.928,6.624,7.403c4.975,4.955,11.047,9.699,17.878,13.517
		c6.817,3.87,14.404,6.776,22.264,8.617c3.931,0.919,7.919,1.612,11.913,2.03c3.989,0.44,7.992,0.569,11.918,0.495
		c7.858-0.175,15.467-1.407,22.193-3.254c3.364-0.929,6.496-1.965,9.332-3.118c1.417-0.572,2.735-1.078,3.989-1.681
		c1.243-0.559,2.388-1.087,3.443-1.648c0.525-0.268,1.021-0.521,1.489-0.76c0.474-0.266,0.919-0.514,1.332-0.746
		c0.823-0.446,1.54-0.892,2.119-1.245c0.575-0.337,1.035-0.671,1.337-0.863c0.304-0.202,0.461-0.306,0.461-0.306
		c4.198-2.81,5.736-8.418,3.345-13c0,0-0.087-0.167-0.256-0.491c-0.172-0.314-0.413-0.829-0.754-1.401
		c-0.337-0.589-0.75-1.325-1.255-2.113c-0.25-0.402-0.52-0.835-0.807-1.296c-0.294-0.435-0.607-0.896-0.937-1.384
		c-0.654-1.001-1.402-2.016-2.22-3.105c-0.807-1.134-1.718-2.213-2.682-3.398c-1.927-2.378-4.17-4.797-6.668-7.234
		c-4.999-4.864-11.068-9.615-17.866-13.562c-3.402-1.959-6.971-3.779-10.676-5.319c-3.7-1.561-7.528-2.879-11.414-3.972
		c-7.773-2.182-15.819-3.298-23.658-3.2c-7.825,0.046-15.432,1.27-22.181,3.209c-3.374,0.967-6.527,2.087-9.375,3.286
		c-2.851,1.213-5.373,2.411-7.495,3.572c-1.061,0.579-2.007,1.095-2.851,1.622c-0.834,0.489-1.555,0.949-2.144,1.343
		c-0.583,0.367-1.047,0.717-1.354,0.931c-0.309,0.219-0.468,0.332-0.468,0.332C87.07,317.82,85.553,323.299,87.792,327.938z"/>
</g>
<g id="Layer_1">
</g>
</svg>
