<?xml version="1.0" encoding="iso-8859-1"?>
<!-- Generator: Adobe Illustrator 18.1.0, SVG Export Plug-In . SVG Version: 6.00 Build 0)  -->
<!DOCTYPE svg PUBLIC "-//W3C//DTD SVG 1.1//EN" "http://www.w3.org/Graphics/SVG/1.1/DTD/svg11.dtd">
<svg version="1.1" xmlns="http://www.w3.org/2000/svg" xmlns:xlink="http://www.w3.org/1999/xlink" x="0px" y="0px"
	 viewBox="0 0 512 512" enable-background="new 0 0 512 512" xml:space="preserve">
<g id="Layer_2">
	<path fill="#AF773F" d="M257.448,295.108c-6.467,5.698-10.455,13.119-10.455,22.699c0,31.95-12.383,114.583-36.592,114.583
		c-24.303,0-30.219-30.783-37.941-101.908c-1.997-18.391-5.314-36.051-9.864-52.306c18.998,14.476,40.286,22.588,62.767,22.588
		C236.389,300.766,247.125,298.804,257.448,295.108z M411.016,300.766c-13.636,0-26.831-2.99-39.345-8.568
		c5.562,7.863,3.1,19.951,7.974,34.324c11.439,33.734-3.574,103.869,30.737,103.869c24.228,0,40.614-74.527,48.153-120.094
		c1.538-9.295,3.721-18.054,6.47-25.999C448.314,294.914,430.096,300.766,411.016,300.766z M496.964,317.847
		c0,0-0.169,0.197-0.485,0.568c-0.299,0.389-0.728,0.874-1.218,1.518c-0.497,0.663-1.063,1.472-1.657,2.41
		c-0.6,0.94-1.204,2.009-1.829,3.188c-1.224,2.359-2.375,5.166-3.262,8.245c-0.89,3.08-1.511,6.434-1.77,9.858
		c-0.14,1.714-0.178,3.441-0.142,5.164c0.039,1.716,0.244,3.436,0.588,5.102c0.348,1.671,0.845,3.296,1.477,4.841
		c0.635,1.543,1.377,2.998,2.252,4.326c0.853,1.318,1.785,2.524,2.761,3.518c0.47,0.508,0.989,0.966,1.45,1.362
		c0.47,0.415,0.988,0.757,1.403,1.055c0.925,0.603,1.721,0.954,2.311,1.155c0.276,0.105,0.504,0.165,0.662,0.201
		c0.153,0.036,0.232,0.054,0.232,0.054l0.526-0.285c0,0,0.135-0.283,0.388-0.814c0.227-0.482,0.653-1.202,1.106-1.958
		c0.447-0.727,0.991-1.61,1.614-2.623c0.149-0.241,0.304-0.49,0.463-0.746c0.143-0.248,0.291-0.504,0.442-0.766
		c0.339-0.539,0.584-1.056,0.911-1.636c1.22-2.263,2.288-4.838,2.99-7.673c0.354-1.418,0.6-2.886,0.752-4.407
		c0.134-1.516,0.25-3.075,0.283-4.647c0.102-3.147-0.039-6.358-0.429-9.427c-0.383-3.07-1.018-5.999-1.808-8.556
		c-0.407-1.279-0.817-2.464-1.249-3.522c-0.427-1.06-0.86-1.994-1.254-2.767c-0.394-0.792-0.747-1.436-1.012-1.817
		c-0.277-0.4-0.425-0.613-0.425-0.613L496.964,317.847z"/>
</g>
<g id="Layer_1">
</g>
</svg>
