<?xml version="1.0" encoding="iso-8859-1"?>
<!-- Generator: Adobe Illustrator 18.1.0, SVG Export Plug-In . SVG Version: 6.00 Build 0)  -->
<!DOCTYPE svg PUBLIC "-//W3C//DTD SVG 1.1//EN" "http://www.w3.org/Graphics/SVG/1.1/DTD/svg11.dtd">
<svg version="1.1" id="Layer_1" xmlns="http://www.w3.org/2000/svg" xmlns:xlink="http://www.w3.org/1999/xlink" x="0px" y="0px"
	 viewBox="0 0 512 512" enable-background="new 0 0 512 512" xml:space="preserve">
<path fill="#BFBCAF" d="M138.106,223.022c-14.332,11.008-36.232,22.827-68.048,25.981c-9.972,1.796-19.302,1.683-27.668,0.62
	c-0.101-0.061-0.186-0.018-0.33-0.017l-0.03-0.059c-17.682-2.444-30.604-9.035-34.386-11.193c-0.175,0.087-0.564,0.248-0.564,0.248
	s-0.059-0.407-0.073-0.651c-0.188-0.088-0.577-0.289-0.577-0.289s0.318-0.303,0.478-0.42c-0.529-5.258-1.663-25.341,7.652-47.132
	l-0.028-0.13c0,0,0.377-0.764,0.481-1.068c0.231-0.478,0.448-0.911,0.636-1.4c5.041-10.382,28.279-53.697,67.116-68.763
	c3.785-1.743,7.788-3.055,11.865-4.004c0.142-0.071,0.275-0.1,0.391-0.158c0.33-0.057,0.564-0.026,0.867-0.07
	c36.879-8.206,82.033,10.685,82.033,10.685c-0.22,0.649-0.451,1.127-0.666,1.777c0.679,0.057,1.198,0.016,1.877,0.073
	c0,0-0.818,44.409-20.227,74.987l0.028,0.056c0,0-0.639,1.039-1.895,2.641C151.93,212.087,145.781,218.509,138.106,223.022z
	 M373.894,223.022c14.332,11.008,36.232,22.827,68.048,25.981c9.972,1.796,19.302,1.683,27.668,0.62
	c0.101-0.061,0.186-0.018,0.33-0.017l0.03-0.059c17.682-2.444,30.604-9.035,34.386-11.193c0.175,0.087,0.564,0.248,0.564,0.248
	s0.059-0.407,0.073-0.651c0.188-0.088,0.577-0.289,0.577-0.289s-0.318-0.303-0.478-0.42c0.529-5.258,1.663-25.341-7.652-47.132
	l0.028-0.13c0,0-0.377-0.764-0.481-1.068c-0.231-0.478-0.448-0.911-0.636-1.4c-5.041-10.382-28.279-53.697-67.116-68.763
	c-3.785-1.743-7.788-3.055-11.865-4.004c-0.142-0.071-0.275-0.1-0.391-0.158c-0.33-0.057-0.564-0.026-0.867-0.07
	c-36.879-8.206-82.033,10.685-82.033,10.685c0.22,0.649,0.451,1.127,0.666,1.777c-0.679,0.057-1.198,0.016-1.877,0.073
	c0,0,0.818,44.409,20.227,74.987l-0.028,0.056c0,0,0.639,1.039,1.895,2.641C360.07,212.087,366.219,218.509,373.894,223.022z"/>
</svg>
