<?xml version="1.0" encoding="iso-8859-1"?>
<!-- Generator: Adobe Illustrator 18.1.0, SVG Export Plug-In . SVG Version: 6.00 Build 0)  -->
<!DOCTYPE svg PUBLIC "-//W3C//DTD SVG 1.1//EN" "http://www.w3.org/Graphics/SVG/1.1/DTD/svg11.dtd">
<svg version="1.1" xmlns="http://www.w3.org/2000/svg" xmlns:xlink="http://www.w3.org/1999/xlink" x="0px" y="0px"
	 viewBox="0 0 512 512" enable-background="new 0 0 512 512" xml:space="preserve">
<g id="Layer_4">
	<path fill="#FFB636" d="M479.804,320.374c-6.192-48.324-41.002-87.311-87.17-99.533c-0.29-1.421-0.655-2.82-0.649-4.326
		c0-76.159-61.72-137.9-137.881-137.9c-25.174,0-48.698,6.856-69.01,18.64c-0.015,0.838-0.127,1.651-0.127,2.492
		c0,26.277,20.103,80.329,44.031,101.074c4.197,3.924,8.628,7.58,13.287,10.964c32.272,25.321,36.482,47.082,27.868,65.665
		c-26.902,58.033,11.214,106.891,60.067,109.557c39.334,2.146,61.757-38.841,94.411-32.631
		C462.302,361.54,481.328,335.484,479.804,320.374z"/>
</g>
<g id="Layer_1">
</g>
</svg>
