<?xml version="1.0" encoding="iso-8859-1"?>
<!-- Generator: Adobe Illustrator 19.1.0, SVG Export Plug-In . SVG Version: 6.00 Build 0)  -->
<!DOCTYPE svg PUBLIC "-//W3C//DTD SVG 1.1//EN" "http://www.w3.org/Graphics/SVG/1.1/DTD/svg11.dtd">
<svg version="1.1" xmlns="http://www.w3.org/2000/svg" xmlns:xlink="http://www.w3.org/1999/xlink" x="0px" y="0px"
	 viewBox="0 0 512 512" enable-background="new 0 0 512 512" xml:space="preserve">
<g id="Layer_3">
	<path fill="#00B89C" d="M171.446,350.718c25.698,20.717,33.908,60.259,12.522,60.259c-21.387,0-51.409-49.552-60.944-76.12
		 M332.664,269.037c-38.773-18.27-84.087-3.612-101.213,32.743c-17.134,36.348,0.41,80.632,39.182,98.896
		c38.773,18.27,84.086,3.612,101.213-32.743C388.98,331.586,371.436,287.308,332.664,269.037 M360.884,242.15
		c0,0,29.072-48.149,14.003-82.072c-15.061-33.922-49.106-57.252-122.636-50.294c-44.177,4.188-87.238,17.76-126.903,61.807"/>
</g>
<g id="Layer_1">
</g>
</svg>
