<?xml version="1.0" encoding="iso-8859-1"?>
<!-- Generator: Adobe Illustrator 18.1.0, SVG Export Plug-In . SVG Version: 6.00 Build 0)  -->
<!DOCTYPE svg PUBLIC "-//W3C//DTD SVG 1.1//EN" "http://www.w3.org/Graphics/SVG/1.1/DTD/svg11.dtd">
<svg version="1.1" xmlns="http://www.w3.org/2000/svg" xmlns:xlink="http://www.w3.org/1999/xlink" x="0px" y="0px"
	 viewBox="0 0 512 512" enable-background="new 0 0 512 512" xml:space="preserve">
<g id="Layer_7">
	<path fill="#E7EDF1" d="M437.017,298.729l-17.184-17.314l-30.679,67.736l-29.349-11.261c-1.943,1.659-24.79,45.779-24.79,45.779
		l-20.651-13.543l-37.706,59.49l-45.975-56.961l-35.877,31.371l-32.924-68.247l-43.877,3.421c0,0-2.295-34.013-3.424-35.117
		l-32.513,7.913l-22.926-46.387c-5.206,3.296-8,13.415-8,33.118c0,112.801,91.443,204.244,204.244,204.244
		s204.244-91.443,204.244-204.244c0-17.152-2.118-27.038-6.1-31.487L437.017,298.729z"/>
</g>
<g id="Layer_1">
</g>
</svg>
