<svg xmlns="http://www.w3.org/2000/svg" viewBox="0 0 512 512" enable-background="new 0 0 512 512"><path fill="#FFC7EF" d="M85.243 85.406c-.333-1.207-.644-2.425-.978-3.56-.333-1.133-.68-2.23-.968-3.336-.57-2.25-1.244-4.165-1.765-6.124-.517-1.978-1.124-3.57-1.57-5.26-.23-.85-.476-1.547-.706-2.255-.238-.697-.435-1.394-.638-2.052-.2-.69-.394-1.245-.58-1.768l-.487-1.55c-.15-.476-.295-.974-.423-1.34-.128-.36-.245-.685-.35-.976-.22-.584-.354-1.09-.463-1.418l-.16-.508-.567-1.813C73.984 48.333 76.83 42.89 81.94 41.29c2.155-.675 4.374-.557 6.334.184l.748.283c.492.193 1.245.464 2.2.886l1.622.712c.587.272 1.14.6 1.793.946 1.26.694 2.84 1.537 4.34 2.55 1.525.996 3.276 2.178 5.003 3.495.87.654 1.766 1.352 2.675 2.1.926.743 1.874 1.52 2.788 2.33 3.744 3.26 7.735 7.135 11.7 11.516 4.013 4.397 7.974 9.306 11.946 14.64 1.04 1.32 1.94 2.695 2.912 4.083.96 1.392 1.932 2.8 2.914 4.226l1.443 2.155 1.39 2.212c.94 1.483 1.877 2.983 2.79 4.5 1.89 3.014 3.645 6.16 5.386 9.342l2.642 4.805c.828 1.63 1.662 3.268 2.5 4.913 3.298 6.602 6.353 13.414 9.187 20.306 2.787 6.907 5.367 13.888 7.608 20.862.55 1.747 1.14 3.472 1.64 5.22l1.186 4.167c-20.128 9.405-37.858 22.547-52.11 38.444-1.215-3.362-2.445-6.81-3.647-10.354-.534-1.52-1.115-3.04-1.62-4.594l-1.566-4.684-1.62-4.733L112.56 177l-1.585-4.843c-.558-1.61-1.094-3.233-1.587-4.873-1-3.278-2.085-6.537-3.133-9.812-1.986-6.582-4.094-13.12-5.99-19.605l-1.472-4.823-1.387-4.792c-.906-3.19-1.897-6.28-2.73-9.385-.827-3.118-1.832-6.06-2.585-9.072-.82-2.955-1.684-5.835-2.443-8.656-.786-2.8-1.55-5.524-2.287-8.158l-1.06-3.886c-.347-1.274-.748-2.46-1.06-3.688zm158.33-30.15l.16.508c.107.328.242.834.463 1.418.104.29.22.617.35.975.127.367.273.865.424 1.34.15.482.314.998.487 1.55.186.522.38 1.08.58 1.768.203.658.4 1.356.638 2.054.23.707.476 1.404.707 2.254.445 1.69 1.052 3.282 1.57 5.26.52 1.958 1.194 3.874 1.764 6.123.288 1.105.635 2.204.968 3.335.334 1.136.645 2.354.978 3.56.312 1.23.712 2.415 1.057 3.688.345 1.273.7 2.57 1.06 3.887l2.285 8.157c.76 2.82 1.624 5.7 2.444 8.656.752 3.014 1.76 5.955 2.584 9.072.833 3.106 1.824 6.196 2.73 9.385l1.387 4.792c.49 1.6.98 3.207 1.47 4.82 1.53 5.23 3.196 10.496 4.825 15.79 27.505 4.245 52.68 14.836 73.684 30.1-.345-1.553-.7-3.115-1.08-4.69-.79-3.405-1.71-6.845-2.704-10.297l-1.485-5.213c-.5-1.746-1.09-3.472-1.64-5.22-2.24-6.973-4.82-13.954-7.606-20.86-2.833-6.894-5.89-13.705-9.188-20.307l-2.5-4.913-2.642-4.806c-1.742-3.18-3.496-6.327-5.386-9.343-.914-1.515-1.853-3.015-2.79-4.497l-1.392-2.212-1.443-2.155-2.914-4.226c-.973-1.39-1.875-2.766-2.914-4.085-3.972-5.333-7.933-10.242-11.947-14.638-3.965-4.38-7.956-8.255-11.7-11.515-.915-.81-1.863-1.588-2.79-2.33-.91-.748-1.804-1.446-2.674-2.1-1.727-1.317-3.477-2.5-5.002-3.493-1.5-1.016-3.082-1.86-4.34-2.55-.654-.347-1.208-.675-1.794-.947l-1.62-.71c-.956-.423-1.71-.694-2.2-.887l-.75-.283c-1.96-.742-4.178-.86-6.332-.184-5.112 1.6-7.957 7.043-6.355 12.154l.57 1.816z"/></svg>