<?xml version="1.0" encoding="iso-8859-1"?>
<!-- Generator: Adobe Illustrator 18.1.0, SVG Export Plug-In . SVG Version: 6.00 Build 0)  -->
<!DOCTYPE svg PUBLIC "-//W3C//DTD SVG 1.1//EN" "http://www.w3.org/Graphics/SVG/1.1/DTD/svg11.dtd">
<svg version="1.1" xmlns="http://www.w3.org/2000/svg" xmlns:xlink="http://www.w3.org/1999/xlink" x="0px" y="0px"
	 viewBox="0 0 512 512" enable-background="new 0 0 512 512" xml:space="preserve">
<g id="Layer_2">
	<path fill="#597B91" d="M257.448,295.108c-6.467,5.698-10.455,13.119-10.455,22.699c0,31.95-12.383,113.583-36.592,113.583
		c-24.303,0-30.219-29.783-37.941-100.908c-1.997-18.391-5.314-36.051-9.864-52.306c18.998,14.476,40.286,22.588,62.767,22.588
		C236.389,300.766,247.125,298.804,257.448,295.108z M411.016,300.766c-13.636,0-26.831-2.99-39.345-8.568
		c5.562,7.863,7.974,19.147,7.974,34.324c0,34.124-3.574,104.87,30.737,104.87c24.228,0,40.614-75.528,48.153-121.094
		c1.538-9.295,3.721-18.054,6.47-25.999C448.314,294.914,430.096,300.766,411.016,300.766z"/>
</g>
<g id="Layer_1">
</g>
</svg>
