<svg xmlns="http://www.w3.org/2000/svg" viewBox="0 0 512 512" enable-background="new 0 0 512 512"><path fill="#FF905F" d="M482.246 131.84c-1.97-5.18-7.765-7.78-12.945-5.812l-1.453.553-.852.325c-.56.22-1.407.52-2.476.968l-3.95 1.67c-.773.342-1.617.694-2.5 1.1l-2.783 1.344c-3.912 1.935-8.7 4.365-13.906 7.793-5.244 3.377-11.103 7.593-16.917 13.276-5.79 5.67-11.635 12.817-16.305 21.696-4.67 8.837-8.035 19.383-9.252 30.427-.17 1.41-.27 2.987-.39 4.495l-.137 1.933-.104 1.706-.05.855-.005.106c.054.888.014.3.025.522l-.007.185-.015.37-.058 1.485c-.05.987-.046 1.99-.14 2.965-.218 3.946-.733 7.818-1.343 11.585-1.186 7.536-3.517 14.494-6.436 20.163-1.482 2.83-3.17 5.305-4.97 7.372-1.795 2.075-3.7 3.7-5.55 5.086-3.76 2.695-7.534 4.207-11.585 5.004-2.02.312-4.117.672-6.237.503-2.107-.125-4.297-.302-6.392-.92-4.23-1.11-8.276-3.253-11.627-6.15-1.682-1.44-3.202-3.048-4.56-4.736-1.352-1.7-2.494-3.507-3.532-5.284-.455-.927-.998-1.782-1.402-2.693-.206-.45-.445-.883-.682-1.31l-.63-1.306c-.222-.427-.46-.84-.662-1.26-.187-.425-.404-.837-.614-1.244-.424-.808-.825-1.604-1.203-2.375-.826-1.514-1.483-2.978-2.214-4.217-.282-.54-.608-1.048-.9-1.526-.345-4.14-.61-8.502-.796-13.095 20.086-4.93 34.99-23.046 34.99-44.652 0-14.402-6.625-27.253-16.99-35.684.12-1.945.187-3.904.187-5.88 0-52.237-42.347-94.584-94.585-94.584s-94.586 42.347-94.586 94.585c0 1.975.068 3.934.187 5.88-10.363 8.43-16.99 21.28-16.99 35.683 0 21.633 14.94 39.774 35.065 44.675-.558 18.587-2.1 34.245-4.632 47.628-2.253 2.143-4.87 4.103-7.842 5.74-1.71.956-3.55 1.738-5.465 2.466-1.924.698-3.946 1.227-6.038 1.677.995.016.234.01.438.014l-.072.008-.144.016-.29.032-.575.062-1.152.125-1.04.115-.616.09-.623.106c-.2.042-.416.08-.705.086l-1.618.105c-2.154.064-4.35.045-6.523-.208-4.352-.476-8.69-1.604-12.735-3.34-2.025-.86-3.993-1.847-5.84-2.98-1.878-1.1-3.616-2.36-5.28-3.666-3.28-2.652-6.155-5.598-8.462-8.645-2.318-3.04-4.134-6.133-5.518-9.02-1.404-2.885-2.333-5.574-3-7.834-.162-.57-.317-1.107-.463-1.613l-.34-1.444c-.214-.9-.39-1.674-.485-2.307l-.346-1.947-.1-.566c-.54-3.024-3.035-5.444-6.242-5.75-3.86-.37-7.287 2.458-7.657 6.317 0 0-.08.853-.234 2.454-.092.805-.144 1.798-.187 2.972l-.072 1.897.015 2.156c.048 3.046.278 6.786 1.047 11.047.75 4.26 1.997 9.057 4.003 14.126 1.995 5.07 4.817 10.368 8.51 15.6 1.868 2.595 3.927 5.2 6.266 7.677 2.306 2.51 4.875 4.91 7.66 7.184 5.557 4.562 12.065 8.535 19.254 11.553 3.59 1.524 7.362 2.736 11.23 3.752l2.927.682c.294.073.623.138.962.2-2.036 1.927-4.02 3.91-5.942 5.93-3.803 3.974-7.454 8.098-11.02 12.24-7.14 8.28-14.035 16.696-21.052 24.062-3.504 3.684-7.027 7.104-10.558 10.067-3.53 2.986-7.06 5.498-10.55 7.473-1.746 1.006-3.48 1.804-5.207 2.548-1.724.68-3.44 1.28-5.146 1.706-3.41.892-6.792 1.178-10.05 1.092-3.253-.094-6.36-.623-9.147-1.316-2.796-.663-5.24-1.6-7.273-2.365-2.012-.844-3.615-1.543-4.683-2.096-1.083-.53-1.66-.81-1.66-.81l-.567-.28c-3.583-1.743-8.026-.965-10.786 2.172-3.31 3.765-2.943 9.5.82 12.813l1.69 1.486c1.086.99 2.768 2.363 4.98 4.084 2.267 1.66 5.053 3.697 8.616 5.686 3.538 2.005 7.797 4.058 12.844 5.672 5.032 1.604 10.87 2.795 17.152 2.998 3.142.125 6.365-.015 9.638-.33 3.243-.373 6.554-.902 9.793-1.69 6.5-1.54 12.85-3.86 18.845-6.606 6.018-2.737 11.71-5.89 17.11-9.152 10.8-6.54 20.48-13.515 29.12-19.35 4.314-2.93 8.35-5.57 12.033-7.776 3.16-1.908 6.017-3.42 8.542-4.593-1.745 7.95-2.72 15.86-3.12 23.506-.23 4.072-.308 8.063-.272 11.98l.036 2.925.03 1.45.02.727c.013-.106-.028.366.03-.215v.085l-.003.17-.004.337-.058 4.965c.008 1.34-.044 2.892-.093 4.408-.074 1.5-.138 3.013-.246 4.49-.172 2.982-.49 5.883-.84 8.735-.37 2.847-.807 5.63-1.367 8.306-.542 2.684-1.152 5.29-1.886 7.777-.742 2.483-1.55 4.872-2.434 7.153-.887 2.283-1.91 4.413-2.958 6.465-1.054 2.048-2.2 3.967-3.42 5.754-1.205 1.803-2.47 3.495-3.796 5.04-1.333 1.537-2.673 3.004-4.057 4.308-1.383 1.302-2.775 2.49-4.143 3.566-2.748 2.123-5.393 3.795-7.653 5.032-2.26 1.245-4.12 2.084-5.325 2.608-1.21.54-1.75.746-1.444.746-5.78 0-10.465 4.686-10.465 10.466s4.686 10.466 10.466 10.466c.612-.032 5.044.957 12.784.482 3.857-.25 8.544-.864 13.823-2.29 2.644-.7 5.434-1.6 8.31-2.766 2.874-1.16 5.875-2.524 8.87-4.215 3.003-1.68 6.053-3.61 9.055-5.83 2.986-2.237 5.937-4.74 8.79-7.49 2.86-2.743 5.55-5.784 8.13-8.994 2.584-3.21 4.995-6.636 7.197-10.226 4.437-7.16 8.205-14.912 11.135-22.9 1.493-3.99 2.81-8.047 3.95-12.114.6-2.04 1.085-4.077 1.604-6.124.473-2.042.97-4.048 1.388-6.284l1.124-5.763.064-.333.032-.166.016-.082c.064-.636.03-.22.048-.383l.148-.616.285-1.232.573-2.432c.777-3.214 1.54-6.317 2.348-9.254 1.603-5.902 3.32-11.18 5.13-15.692.922-2.233 1.8-4.294 2.664-6.187.884-1.86 1.733-3.55 2.55-5.108 1.286-2.33 2.462-4.362 3.648-6.193 1.186 1.83 2.362 3.862 3.648 6.193.816 1.556 1.666 3.248 2.55 5.108.865 1.893 1.742 3.954 2.663 6.187 1.81 4.51 3.527 9.79 5.13 15.692.81 2.937 1.57 6.04 2.348 9.254l.573 2.432.286 1.23.148.617c.02.162-.017-.254.048.383l.016.083.032.167.064.332 1.124 5.762c.418 2.235.915 4.24 1.39 6.284.517 2.047 1.003 4.085 1.604 6.124 1.14 4.067 2.456 8.125 3.95 12.114 2.93 7.988 6.698 15.74 11.135 22.9 2.202 3.59 4.613 7.016 7.196 10.227 2.58 3.212 5.27 6.252 8.13 8.996 2.853 2.75 5.804 5.253 8.79 7.488 3.003 2.22 6.053 4.152 9.055 5.83 2.996 1.692 5.996 3.056 8.872 4.216 2.875 1.165 5.665 2.067 8.31 2.765 5.278 1.427 9.965 2.04 13.822 2.29 7.74.476 12.172-.513 12.783-.48 5.78 0 10.466-4.687 10.466-10.467s-4.685-10.466-10.465-10.466c.305 0-.235-.206-1.444-.746-1.203-.524-3.065-1.363-5.323-2.608-2.26-1.237-4.905-2.908-7.653-5.032-1.368-1.076-2.76-2.264-4.143-3.566-1.383-1.304-2.724-2.77-4.056-4.307-1.327-1.547-2.59-3.24-3.795-5.04-1.222-1.788-2.368-3.707-3.422-5.755-1.047-2.052-2.07-4.182-2.958-6.465-.885-2.282-1.693-4.67-2.435-7.152-.734-2.486-1.344-5.092-1.886-7.776-.56-2.675-.996-5.46-1.367-8.306-.35-2.852-.668-5.753-.84-8.736-.108-1.476-.173-2.99-.245-4.49-.048-1.514-.1-3.066-.093-4.407l-.057-4.966-.004-.34-.002-.168v-.085c.058.58.017.11.03.215l.02-.726.03-1.45.036-2.925c.036-3.917-.042-7.908-.27-11.98-.426-8.123-1.49-16.545-3.448-24.997-.1-.42-.214-.837-.32-1.255.71-.044 1.44-.086 2.21-.114 2.43-.087 5.128-.033 8.062.214 2.93.255 6.08.744 9.426 1.592 3.342.858 6.898 2.03 10.608 3.74 1.862.823 3.755 1.822 5.697 2.875 1.933 1.104 3.91 2.278 5.914 3.604 4.012 2.632 8.142 5.73 12.412 9.156 4.276 3.424 8.69 7.175 13.44 11.018 4.746 3.826 9.883 7.79 15.778 11.307 5.837 3.51 12.806 6.51 20.01 7.63 3.577.562 7.146.715 10.46.425 3.306-.295 6.396-.868 9.138-1.697 5.546-1.597 9.83-3.88 13.384-5.968 3.534-2.123 6.263-4.188 8.475-5.89 2.167-1.736 3.808-3.12 4.878-4.097l1.66-1.478c2.99-2.664 3.962-7.098 2.086-10.85-2.245-4.49-7.704-6.31-12.194-4.067l-.425.213s-.592.298-1.705.854c-1.104.575-2.742 1.332-4.803 2.235-2.065.85-4.57 1.85-7.35 2.62-2.766.746-5.836 1.362-8.712 1.292-2.907-.035-5.46-.64-7.757-1.907-2.312-1.25-4.665-3.142-7.36-6.034-2.678-2.863-5.553-6.548-8.61-10.768-3.056-4.206-6.302-8.89-9.86-13.74-3.558-4.848-7.44-9.86-11.748-14.75-2.144-2.45-4.43-4.852-6.77-7.203-2.388-2.33-4.818-4.623-7.39-6.78-2.187-1.872-4.46-3.634-6.77-5.32.384-.03.767-.05 1.15-.088 3.405-.344 6.832-.884 10.217-1.738 3.403-.786 6.735-1.952 10.002-3.295 6.493-2.768 12.685-6.457 18.108-10.967 5.427-4.5 10.224-9.67 14.118-15.257 3.887-5.59 6.988-11.5 9.41-17.46 4.827-11.947 7.043-23.992 7.812-35.36.344-5.69.336-11.26.047-16.64-.04-1.36-.176-2.674-.265-4.005l-.26-3.285-.136-1.693-.068-.844c-.015-.164-.018-.25-.018-.318l-.007-.238c-.012-.658-.075-1.212-.087-1.952-.088-6.26.643-11.965 2.316-17.325.82-2.684 1.914-5.248 3.093-7.774 1.182-2.523 2.55-4.96 4.032-7.29 1.463-2.34 3.12-4.527 4.732-6.657 1.608-2.13 3.286-4.13 4.944-5.997 3.337-3.71 6.488-6.99 9.224-9.638 2.752-2.63 4.962-4.78 6.505-6.203 1.56-1.43 2.39-2.193 2.39-2.193 2.916-2.698 4.09-7.016 2.59-10.96z"/></svg>