<?xml version="1.0" encoding="iso-8859-1"?>
<!-- Generator: Adobe Illustrator 18.1.0, SVG Export Plug-In . SVG Version: 6.00 Build 0)  -->
<!DOCTYPE svg PUBLIC "-//W3C//DTD SVG 1.1//EN" "http://www.w3.org/Graphics/SVG/1.1/DTD/svg11.dtd">
<svg version="1.1" xmlns="http://www.w3.org/2000/svg" xmlns:xlink="http://www.w3.org/1999/xlink" x="0px" y="0px"
	 viewBox="0 0 512 512" enable-background="new 0 0 512 512" xml:space="preserve">
<g id="Layer_2">
	<path fill="#FFB636" d="M62.355,179.644c0-7.008,20.209-6.53,45.139-6.53s45.139-0.478,45.139,6.53s-29.929,29.699-45.139,29.699
		S62.355,186.652,62.355,179.644z M240.486,434.509c-0.027-0.057-0.046-0.117-0.074-0.173c-2.704-5.616-9.535-34.46,1.082-53.902
		c3.387-6.203,1.105-13.978-5.098-17.365c-6.2-3.386-13.978-1.104-17.365,5.098c-10.84,19.851-10.056,43.669-6.822,60.181
		l-23.809,1.689c-7.05,0.5-12.359,6.62-11.859,13.67c0.425,5.991,4.912,10.716,10.576,11.696c-0.116,1.555,0.041,3.156,0.531,4.736
		c1.703,5.488,6.759,9.01,12.219,9.01c1.256,0,2.533-0.187,3.795-0.578c31.994-9.925,35.646-18.421,37.021-21.62
		c1.586-3.689,1.649-7.781,0.238-11.421C240.791,435.181,240.644,434.842,240.486,434.509z M323.744,435.687
		c-0.031-0.065-0.052-0.133-0.084-0.198c-2.704-5.617-9.536-34.462,1.082-53.902c3.388-6.203,1.105-13.978-5.098-17.365
		s-13.978-1.104-17.365,5.098c-10.84,19.849-10.056,43.667-6.823,60.18l-23.809,1.689c-7.051,0.5-12.36,6.62-11.859,13.67
		c0.424,5.992,4.911,10.716,10.575,11.696c-0.116,1.555,0.041,3.156,0.531,4.736c1.702,5.488,6.759,9.01,12.219,9.01
		c1.255,0,2.533-0.187,3.795-0.578c31.993-9.924,35.646-18.421,37.021-21.619c1.587-3.692,1.649-7.787,0.237-11.427
		C324.04,436.338,323.897,436.01,323.744,435.687z"/>
</g>
<g id="Layer_1">
</g>
</svg>
