<?xml version="1.0" encoding="iso-8859-1"?>
<!-- Generator: Adobe Illustrator 18.1.0, SVG Export Plug-In . SVG Version: 6.00 Build 0)  -->
<!DOCTYPE svg PUBLIC "-//W3C//DTD SVG 1.1//EN" "http://www.w3.org/Graphics/SVG/1.1/DTD/svg11.dtd">
<svg version="1.1" xmlns="http://www.w3.org/2000/svg" xmlns:xlink="http://www.w3.org/1999/xlink" x="0px" y="0px"
	 viewBox="0 0 512 512" enable-background="new 0 0 512 512" xml:space="preserve">
<g id="Layer_6">
	<path fill="#2B3B47" d="M166.444,137.095c13.578,0,24.585,11.007,24.585,24.585v30.221c0,13.578-11.007,24.585-24.585,24.585l0,0
		c-13.578,0-24.585-11.007-24.585-24.585V161.68C141.859,148.102,152.866,137.095,166.444,137.095L166.444,137.095z
		 M345.556,137.095c-13.578,0-24.585,11.007-24.585,24.585v30.221c0,13.578,11.007,24.585,24.585,24.585l0,0
		c13.578,0,24.585-11.007,24.585-24.585V161.68C370.141,148.102,359.134,137.095,345.556,137.095L345.556,137.095z"/>
</g>
<g id="Layer_1">
</g>
</svg>
