<?xml version="1.0" encoding="iso-8859-1"?>
<!-- Generator: Adobe Illustrator 18.1.0, SVG Export Plug-In . SVG Version: 6.00 Build 0)  -->
<!DOCTYPE svg PUBLIC "-//W3C//DTD SVG 1.1//EN" "http://www.w3.org/Graphics/SVG/1.1/DTD/svg11.dtd">
<svg version="1.1" xmlns="http://www.w3.org/2000/svg" xmlns:xlink="http://www.w3.org/1999/xlink" x="0px" y="0px"
	 viewBox="0 0 512 512" enable-background="new 0 0 512 512" xml:space="preserve">
<g id="Layer_6">
	<path fill="#877F81" d="M313.176,265.95c0,30.592-26.297,55.385-58.743,55.385c-18.725,0-27.363,2.67-34.325,5.047
		c-3.055,1.043-5.115,3.903-5.115,7.131v0.741c0,4.073-3.297,7.399-7.37,7.403c-5.108,0.005-7.617-1.19-8.85-2.38
		c-0.646-0.624-1.691-0.648-2.296,0.016c-1.077,1.182-3.201,2.364-7.391,2.364h-1.509c-4.089,0-7.403-3.315-7.403-7.403v-7.393
		c-11.658-2.482-25.581-5.526-45.572-5.526c-2.371,0-2.623-1.618,0.25-10.395c1.603,0.124,3.219,0.203,4.855,0.203
		c33.741,0,37.118,8.674,54.57,8.674s18.438-8.674,52.18-8.674c32.445,0,58.743-24.793,58.743-55.385
		c0-10.042-2.85-19.448-7.807-27.566C307.179,238.085,313.176,251.354,313.176,265.95z M310.194,444.645
		c0-19.076,4.22-36.141,11.883-48.053c8.895-13.825,22.051-20.836,39.103-20.836c1.708,0,3.092-1.384,3.092-3.092
		s-1.384-3.092-3.092-3.092c-42.15,0-57.169,38.78-57.169,75.072c0,1.708,1.384,3.092,3.092,3.092S310.194,446.353,310.194,444.645z
		"/>
</g>
<g id="Layer_1">
</g>
</svg>
