<?xml version="1.0" encoding="iso-8859-1"?>
<!-- Generator: Adobe Illustrator 18.1.0, SVG Export Plug-In . SVG Version: 6.00 Build 0)  -->
<!DOCTYPE svg PUBLIC "-//W3C//DTD SVG 1.1//EN" "http://www.w3.org/Graphics/SVG/1.1/DTD/svg11.dtd">
<svg version="1.1" xmlns="http://www.w3.org/2000/svg" xmlns:xlink="http://www.w3.org/1999/xlink" x="0px" y="0px"
	 viewBox="0 0 512 512" enable-background="new 0 0 512 512" xml:space="preserve">
<g id="Layer_3">
	<path fill="#2B3B47" d="M311.277,438.869c-6.351,4.991-14.012,7.544-21.822,7.544c-5.455,0-10.982-1.245-16.189-3.775
		c-7.734-3.759-13.667-9.832-17.128-17.11c-3.461,7.278-9.394,13.351-17.128,17.11c-5.206,2.529-10.735,3.775-16.189,3.775
		c-7.811,0-15.471-2.553-21.823-7.544c-1.52-1.194-1.784-3.395-0.589-4.914c1.194-1.521,3.396-1.783,4.915-0.59
		c8.663,6.808,20.397,7.947,30.627,2.977c10.246-4.98,16.611-14.926,16.61-25.956c0-0.652,0.19-1.255,0.5-1.778
		c-0.253-0.484-0.41-1.026-0.41-1.61v-26.203c0-1.933,1.567-3.5,3.5-3.5c1.933,0,3.5,1.567,3.5,3.5v26.203
		c0,0.593-0.162,1.144-0.422,1.633c0.302,0.518,0.488,1.112,0.488,1.754c-0.001,11.03,6.364,20.976,16.61,25.956
		c10.23,4.972,21.965,3.83,30.627-2.977c1.518-1.194,3.72-0.931,4.914,0.59C313.062,435.475,312.798,437.675,311.277,438.869z
		 M136.024,310.649c10.078,0,18.93,5.222,24.017,13.103c1.514-3.326,2.364-7.019,2.364-10.912v-59.143
		c0-14.57-11.811-26.381-26.381-26.381c-14.57,0-26.381,11.811-26.381,26.381v59.143c0,3.893,0.85,7.585,2.364,10.912
		C117.094,315.871,125.947,310.649,136.024,310.649z M375.15,310.649c10.078,0,18.93,5.222,24.017,13.103
		c1.514-3.326,2.364-7.019,2.364-10.912v-59.143c0-14.57-11.811-26.381-26.381-26.381c-14.57,0-26.381,11.811-26.381,26.381v59.143
		c0,3.893,0.85,7.585,2.364,10.912C356.219,315.871,365.072,310.649,375.15,310.649z"/>
</g>
<g id="Layer_1">
</g>
</svg>
