<?xml version="1.0" encoding="iso-8859-1"?>
<!-- Generator: Adobe Illustrator 18.1.0, SVG Export Plug-In . SVG Version: 6.00 Build 0)  -->
<!DOCTYPE svg PUBLIC "-//W3C//DTD SVG 1.1//EN" "http://www.w3.org/Graphics/SVG/1.1/DTD/svg11.dtd">
<svg version="1.1" xmlns="http://www.w3.org/2000/svg" xmlns:xlink="http://www.w3.org/1999/xlink" x="0px" y="0px"
	 viewBox="0 0 512 512" enable-background="new 0 0 512 512" xml:space="preserve">
<g id="Layer_3">
	<path fill="#FFA1E0" d="M486.218,177.001c-1.137-1.415-3.206-1.641-4.621-0.504l-0.256,0.206c0,0-0.087,0.07-0.255,0.205
		c-0.168,0.135-0.435,0.321-0.81,0.543c-0.76,0.424-2.038,0.963-3.985,1.172c-1.93,0.221-4.492,0.086-7.406-0.596
		c-0.154-0.036-0.312-0.079-0.468-0.118c0.318-0.715,0.621-1.436,0.904-2.165c1.065-2.747,1.858-5.596,2.385-8.483
		c0.31-1.444,0.463-2.896,0.669-4.356c0.123-1.455,0.295-2.925,0.326-4.387c0.085-1.468,0.079-2.931,0.064-4.398l-0.003-0.551
		l-0.005-0.387l-0.011-0.253l-0.022-0.505l-0.033-0.588c-0.057-0.933-0.145-1.755-0.265-2.596c-0.492-3.36-1.562-6.916-3.714-10.165
		c-2.116-3.237-5.439-6.039-9.352-7.366c-3.898-1.358-8.196-1.238-11.91,0.124c-3.737,1.346-6.871,3.912-8.991,6.939
		c-2.14,3.035-3.301,6.452-3.793,9.718c-0.249,1.639-0.336,3.252-0.304,4.819l0.054,1.112l0.117,1.311
		c0.101,0.824,0.23,1.604,0.395,2.39c0.667,3.13,1.894,6.008,3.41,8.525c1.52,2.522,3.316,4.707,5.219,6.601
		c2.216,2.189,4.56,4,6.93,5.526c-1.327,1.078-2.712,1.895-4.101,2.438c-1.289,0.5-2.576,0.797-3.828,0.956
		c-1.252,0.163-2.483,0.1-3.638,0.013c-2.326-0.27-4.383-0.93-6.04-1.652c-0.833-0.327-1.564-0.758-2.193-1.062
		c-0.269-0.161-0.517-0.309-0.745-0.445c-0.115-0.066-0.224-0.128-0.328-0.188l-0.155-0.088c-0.071-0.047-0.141-0.093-0.208-0.137
		c-1.079-0.711-1.655-1.091-1.655-1.091c-0.115-0.075-0.25-0.159-0.373-0.231c-49.032-43.786-167.77-53.014-246.224-34.248
		c-2.255,5.527-3.465,14.581-4.899,24.647c-15.876-7.67-26.43-21.425-26.343-21.42c-31.046,0-43.289,16.378-56.257,33.718
		c-11.215,15.01-30.479,30.531-55.403,36.941c-5.146,1.321-6.64,4.737-8.453,9.879c-3.491,9.885,3.175,30.886,12.524,37.569
		c10.731,7.671,27.447,6.983,34.86,6.983c16.308,0,40.437,11.729,50.671,23.006c9.172,10.122,20.417,19.009,33.144,25.841
		c4.125,38.055,6.731,101.796,19.429,101.796h7.911c10.254,0,22.162-41.563,30.273-77.602c10.876,8.418,32.095,19.029,70.202,19.029
		c40.214,0,62.378-4.001,78.745-11.405c13.328,33.416,12.905,69.978,24.98,69.978h7.306c8.117,0,17.249-58.414,19.683-71.501
		c0.323-1.737,0.816-3.433,1.471-5.073c4.516-11.311,30.747-53.354,28.689-111.11l-0.001,0.001
		c0.061-3.448,0.088-7.004,0.088-10.677c0-9.508-2.229-18.213-6.32-26.141c0.547-0.068,1.098-0.147,1.657-0.252
		c2.465-0.459,5.021-1.233,7.517-2.402c4.579-2.128,8.763-5.687,11.941-10.015c4.853,1.206,9.301,1.394,12.905,0.766
		c2.842-0.475,5.104-1.517,6.524-2.462c0.711-0.479,1.228-0.904,1.562-1.208c0.33-0.31,0.5-0.469,0.5-0.469
		C487.139,180.293,487.3,178.347,486.218,177.001z M444.728,156.28c-0.07-0.485-0.119-0.991-0.147-1.463l-0.019-0.642l0.009-0.853
		c0.033-1.058,0.147-2.091,0.351-3.073c0.402-1.968,1.171-3.729,2.248-5.084c1.073-1.354,2.456-2.3,3.93-2.732
		c1.473-0.433,3.002-0.35,4.292,0.195c1.292,0.548,2.373,1.527,3.189,2.924c0.817,1.393,1.329,3.218,1.511,5.227
		c0.047,0.506,0.07,1.034,0.075,1.451l0.005,0.171l-0.002,0.253l-0.003,0.506l-0.002,0.253c-0.001-0.031,0.001,0.159-0.002-0.054
		l-0.003,0.057l-0.006,0.115l-0.025,0.458c-0.059,1.222-0.121,2.435-0.262,3.619c-0.089,1.197-0.304,2.347-0.461,3.501
		c-0.235,1.126-0.409,2.265-0.714,3.333c-0.524,2.174-1.233,4.205-2.08,6.05c-0.246,0.537-0.505,1.056-0.771,1.565
		c-2.03-1.439-3.987-3.126-5.718-5.067C447.392,163.93,445.292,160.198,444.728,156.28z"/>
</g>
<g id="Layer_1">
</g>
</svg>
