<?xml version="1.0" encoding="iso-8859-1"?>
<!-- Generator: Adobe Illustrator 18.1.0, SVG Export Plug-In . SVG Version: 6.00 Build 0)  -->
<!DOCTYPE svg PUBLIC "-//W3C//DTD SVG 1.1//EN" "http://www.w3.org/Graphics/SVG/1.1/DTD/svg11.dtd">
<svg version="1.1" id="Layer_1" xmlns="http://www.w3.org/2000/svg" xmlns:xlink="http://www.w3.org/1999/xlink" x="0px" y="0px"
	 viewBox="0 0 512 512" enable-background="new 0 0 512 512" xml:space="preserve">
<path fill="#FFA1E0" d="M456.159,148.321c0,40.127-32.53,72.657-72.657,72.657s-72.657-32.53-72.657-72.657
	s32.53-72.657,72.657-72.657S456.159,108.193,456.159,148.321z M128.498,75.664c-40.127,0-72.657,32.53-72.657,72.657
	s32.53,72.657,72.657,72.657s72.657-32.53,72.657-72.657S168.625,75.664,128.498,75.664z M226.512,438.931
	c-4.878,5.92-4.033,14.673,1.887,19.55l9.182,7.566c0,0,2.337,1.925,5.842,3.533c1.753,0.578,3.797,1.485,5.988,2.038
	c2.19,0.261,4.527,0.539,6.864,0.818c2.337,0.303,4.674-0.462,6.865-0.621c2.191-0.029,4.235-1.355,5.988-1.941
	c3.505-1.539,5.842-3.827,5.842-3.827l9.755-9.552c2.541-2.508,4.064-6.032,3.926-9.881c-0.261-7.295-6.386-12.996-13.681-12.735
	c0,0-9.347,0.335-18.695,0.472c-9.347-0.236-18.694-0.472-18.694-0.472C233.484,433.799,229.32,435.523,226.512,438.931z"/>
</svg>
