<?xml version="1.0" encoding="iso-8859-1"?>
<!-- Generator: Adobe Illustrator 18.1.0, SVG Export Plug-In . SVG Version: 6.00 Build 0)  -->
<!DOCTYPE svg PUBLIC "-//W3C//DTD SVG 1.1//EN" "http://www.w3.org/Graphics/SVG/1.1/DTD/svg11.dtd">
<svg version="1.1" xmlns="http://www.w3.org/2000/svg" xmlns:xlink="http://www.w3.org/1999/xlink" x="0px" y="0px"
	 viewBox="0 0 512 512" enable-background="new 0 0 512 512" xml:space="preserve">
<g id="Layer_2">
	<path fill="#D1CFC3" d="M499.404,282.36c-0.912-1.301-1.935-2.77-3.041-4.36H348.044H127.161H15.044
		c-1.107,1.59-2.129,3.059-3.041,4.36c-3.12,4.45-3.435,14.312-0.798,19.064c2.949,5.313,24.296,6.611,27.202,11.576
		c3.533,6.036-22.39,9.653-18.882,15.191c47.578,75.096,103.877,110.018,204.315,115.801c9.196,0.591,19.736,0.874,31.864,0.874h0
		l0,0h0h0c9.841,0,18.44-0.187,25.964-0.573c104.147-4.746,161.713-39.549,210.214-116.102c3.508-5.538-22.415-9.154-18.882-15.191
		c2.906-4.965,24.253-6.263,27.202-11.576C502.84,296.672,502.525,286.809,499.404,282.36z"/>
</g>
<g id="Layer_1">
</g>
</svg>
