<?xml version="1.0" encoding="iso-8859-1"?>
<!-- Generator: Adobe Illustrator 18.1.0, SVG Export Plug-In . SVG Version: 6.00 Build 0)  -->
<!DOCTYPE svg PUBLIC "-//W3C//DTD SVG 1.1//EN" "http://www.w3.org/Graphics/SVG/1.1/DTD/svg11.dtd">
<svg version="1.1" xmlns="http://www.w3.org/2000/svg" xmlns:xlink="http://www.w3.org/1999/xlink" x="0px" y="0px"
	 viewBox="0 0 512 512" enable-background="new 0 0 512 512" xml:space="preserve">
<g id="Layer_5">
	<path fill="#D9DBD5" d="M261.87,427.053c-10.692,16.608-38.054-16.079-29.807-25.856c2.726-3.231,12.05-14.659,14.234-17.233
		c4.658,11.365,22.022,21.811,22.022,25.1C268.319,417.561,262.651,425.84,261.87,427.053z M20.987,151.948
		c-3.226,3.343-6.558,6.727-9.714,10.014l0.005,0.001c-4.862,4.074-7.958,10.186-7.958,17.026c0,11.612,8.915,21.128,20.271,22.112
		c0.593,0.064,1.238,0.098,1.939,0.098c0.74,0,1.495-0.043,2.259-0.114c0.016-0.002,0.033-0.005,0.049-0.006
		c10.048-0.959,22.072-7.869,33.26-15.137C56.657,169.859,36.941,152.149,20.987,151.948z M176.015,422.043
		c-6.253,11.321-12.828,21.767-23.24,28.282c2.907,1.717,13.366,10.661,17.012,12.801c11.031,6.473,42.276-28.641,20.739-38.896
		C189.223,423.61,177.35,422.253,176.015,422.043z M87.762,375.213c-9.097,8.087-16.547,14.892-28.093,17.178
		c1.174,4.067,7.579,14.683,10.331,17.889c8.328,9.7,46.169-9.536,29.213-26.315C98.187,382.949,88.937,375.867,87.762,375.213z
		 M315.25,442.988c-12.911-0.773-26.937-2.749-37.298-9.345c-0.299,3.363-1.322,18.076-1.684,22.288
		c-1.096,12.743,44.101,20.83,43.253,1.096C319.458,455.586,315.635,444.284,315.25,442.988z"/>
</g>
<g id="Layer_1">
</g>
</svg>
