<?xml version="1.0" encoding="iso-8859-1"?>
<!-- Generator: Adobe Illustrator 18.1.0, SVG Export Plug-In . SVG Version: 6.00 Build 0)  -->
<!DOCTYPE svg PUBLIC "-//W3C//DTD SVG 1.1//EN" "http://www.w3.org/Graphics/SVG/1.1/DTD/svg11.dtd">
<svg version="1.1" xmlns="http://www.w3.org/2000/svg" xmlns:xlink="http://www.w3.org/1999/xlink" x="0px" y="0px"
	 viewBox="0 0 512 512" enable-background="new 0 0 512 512" xml:space="preserve">
<g id="Layer_6">
	<path fill="#2B3B47" d="M75.116,104.403c4.38-0.318,8.188,2.974,8.507,7.354l0.997,13.713c0.318,4.38-2.974,8.188-7.354,8.507l0,0
		c-4.38,0.318-8.188-2.974-8.507-7.354l-0.997-13.713C67.444,108.53,70.736,104.721,75.116,104.403L75.116,104.403z M28.626,169.984
		c-2.296,0.167-4.022,2.163-3.855,4.459l0.523,7.189c0.167,2.296,2.163,4.022,4.459,3.855l0,0c2.296-0.167,4.022-2.163,3.855-4.459
		l-0.523-7.189C32.918,171.543,30.922,169.817,28.626,169.984L28.626,169.984z"/>
</g>
<g id="Layer_1">
</g>
</svg>
