<?xml version="1.0" encoding="iso-8859-1"?>
<!-- Generator: Adobe Illustrator 18.1.0, SVG Export Plug-In . SVG Version: 6.00 Build 0)  -->
<!DOCTYPE svg PUBLIC "-//W3C//DTD SVG 1.1//EN" "http://www.w3.org/Graphics/SVG/1.1/DTD/svg11.dtd">
<svg version="1.1" xmlns="http://www.w3.org/2000/svg" xmlns:xlink="http://www.w3.org/1999/xlink" x="0px" y="0px"
	 viewBox="0 0 512 512" enable-background="new 0 0 512 512" xml:space="preserve">
<g id="Layer_4">
	<path fill="#AF773F" d="M414.23,199.93c5.795-29.53-13.446-58.167-42.976-63.962c-29.53-5.795-58.167,13.446-63.962,42.976
		c0,0.001,0,0.002,0,0.003l-0.001-0.001c-5.863,19.516-2.439,25.752-4.897,44.511c-2.625,20.04-5.982,14.962-10.646,38.726
		c-6.955,35.441,16.137,69.81,51.578,76.765c34.817,6.833,68.579-15.342,76.353-49.726c0.146-0.594,0.286-1.206,0.412-1.852
		C427.266,250.81,407.649,233.463,414.23,199.93z"/>
</g>
<g id="Layer_1">
</g>
</svg>
