<?xml version="1.0" encoding="iso-8859-1"?>
<!-- Generator: Adobe Illustrator 18.1.0, SVG Export Plug-In . SVG Version: 6.00 Build 0)  -->
<!DOCTYPE svg PUBLIC "-//W3C//DTD SVG 1.1//EN" "http://www.w3.org/Graphics/SVG/1.1/DTD/svg11.dtd">
<svg version="1.1" xmlns="http://www.w3.org/2000/svg" xmlns:xlink="http://www.w3.org/1999/xlink" x="0px" y="0px"
	 viewBox="0 0 512 512" enable-background="new 0 0 512 512" xml:space="preserve">
<g id="Layer_4">
	<path fill="#00CC00" d="M466.825,294.783c0-35.526-18.398-68.082-48.965-93.388c2.547-7.609,3.947-15.743,3.947-24.21
		c0-42.113-34.139-76.252-76.252-76.252c-32.329,0-59.938,20.129-71.032,48.529c-6.281-0.388-12.636-0.597-19.063-0.597
		c-6.068,0-12.073,0.187-18.012,0.533c-11.11-28.366-38.702-48.465-71.006-48.465c-42.113,0-76.252,34.139-76.252,76.252
		c0,8.21,1.313,16.111,3.714,23.521c-31.069,25.403-49.808,58.227-49.808,94.077c0,5.933,5.923,16.55,5.923,16.55
		c81.37,99.21,175.541,47.75,205.893,47.75c30.352,0,124.523,50.956,204.321-47.75l-0.017-0.002
		C464.498,306.255,466.825,300.741,466.825,294.783z"/>
</g>
<g id="Layer_1">
</g>
</svg>
