<?xml version="1.0" encoding="iso-8859-1"?>
<!-- Generator: Adobe Illustrator 18.1.0, SVG Export Plug-In . SVG Version: 6.00 Build 0)  -->
<!DOCTYPE svg PUBLIC "-//W3C//DTD SVG 1.1//EN" "http://www.w3.org/Graphics/SVG/1.1/DTD/svg11.dtd">
<svg version="1.1" xmlns="http://www.w3.org/2000/svg" xmlns:xlink="http://www.w3.org/1999/xlink" x="0px" y="0px"
	 viewBox="0 0 512 512" enable-background="new 0 0 512 512" xml:space="preserve">
<g id="Layer_7">
	<path fill="#FF473E" d="M192.003,82.237c0,0,0.206,0.06,0.606,0.177c0.394,0.119,1.013,0.282,1.726,0.533
		c0.741,0.24,1.628,0.546,2.615,0.93c1.028,0.367,2.113,0.829,3.33,1.345c2.438,1.031,5.17,2.379,8.133,3.996
		c2.948,1.623,6.026,3.558,9.111,5.782c6.175,4.447,12.271,10.096,17.452,16.713c5.237,6.593,9.518,14.17,12.662,22.221
		c1.57,4.026,2.899,8.153,3.926,12.333c1.05,4.17,1.758,8.41,2.232,12.601c0.917,8.395,0.633,16.705-0.455,24.18
		c-0.55,3.74-1.251,7.251-2.123,10.467c-0.432,1.606-0.803,3.096-1.292,4.534c-0.442,1.418-0.863,2.728-1.332,3.948
		c-0.221,0.604-0.431,1.176-0.628,1.715c-0.226,0.55-0.438,1.066-0.635,1.546c-0.376,0.952-0.767,1.792-1.075,2.469
		c-0.29,0.67-0.595,1.217-0.764,1.571c-0.18,0.359-0.273,0.544-0.273,0.544c-2.595,5.166-8.548,7.533-13.881,5.789
		c0,0-0.197-0.064-0.578-0.189c-0.371-0.129-0.974-0.298-1.654-0.563c-0.697-0.258-1.569-0.571-2.51-0.974
		c-0.48-0.198-0.995-0.41-1.546-0.637c-0.521-0.239-1.075-0.492-1.661-0.76c-1.197-0.525-2.424-1.147-3.742-1.831
		c-1.366-0.665-2.686-1.449-4.131-2.273c-2.898-1.644-5.886-3.616-8.93-5.857c-6.077-4.487-12.181-10.134-17.5-16.693
		c-2.644-3.286-5.158-6.772-7.382-10.453c-2.247-3.671-4.244-7.519-6-11.468c-3.508-7.899-5.878-16.273-6.878-24.633
		c-1.055-8.337-0.779-16.644,0.406-24.16c0.59-3.757,1.381-7.305,2.303-10.542c0.936-3.243,1.902-6.133,2.884-8.59
		c0.49-1.228,0.925-2.324,1.388-3.312c0.422-0.971,0.828-1.817,1.179-2.512c0.323-0.683,0.644-1.238,0.836-1.601
		c0.198-0.366,0.301-0.555,0.301-0.555C180.858,82.975,186.706,80.687,192.003,82.237z"/>
</g>
<g id="Layer_1">
</g>
</svg>
