<?xml version="1.0" encoding="iso-8859-1"?>
<!-- Generator: Adobe Illustrator 18.1.0, SVG Export Plug-In . SVG Version: 6.00 Build 0)  -->
<!DOCTYPE svg PUBLIC "-//W3C//DTD SVG 1.1//EN" "http://www.w3.org/Graphics/SVG/1.1/DTD/svg11.dtd">
<svg version="1.1" xmlns="http://www.w3.org/2000/svg" xmlns:xlink="http://www.w3.org/1999/xlink" x="0px" y="0px"
	 viewBox="0 0 72 72" enable-background="new 0 0 72 72" xml:space="preserve">
<g id="Layer_6">
	<path fill="#2B3B47" d="M32.155,24.911h-0.004c0,0.004,0.004,0.006,0.004,0.008c0,1.101-0.893,1.993-1.993,1.993
		c-1.101,0-1.993-0.893-1.993-1.993c0-0.002,0-0.004,0-0.008h-0.009l0.024-2.802c0.089-1.021,0.934-1.824,1.978-1.824
		c1.041,0,1.886,0.803,1.974,1.824L32.155,24.911z M38.081,34.85c0.891,0,1.731-0.814,2.253-2.154
		c-0.625-0.695-1.475-1.098-2.281-1.088c-0.813,0.016-1.62,0.417-2.224,1.088C36.35,34.035,37.19,34.85,38.081,34.85z
		 M48.153,22.109c-0.088-1.021-0.934-1.824-1.978-1.824c-1.04,0-1.886,0.803-1.974,1.824l-0.024,2.802h0.009
		c0,0.004,0,0.006,0,0.008c0,1.101,0.893,1.993,1.989,1.993c1.101,0,1.993-0.893,1.993-1.993c0-0.002,0-0.004,0-0.008L48.153,22.109
		z"/>
</g>
<g id="Layer_1">
</g>
</svg>
