<?xml version="1.0" encoding="iso-8859-1"?>
<!-- Generator: Adobe Illustrator 18.1.0, SVG Export Plug-In . SVG Version: 6.00 Build 0)  -->
<!DOCTYPE svg PUBLIC "-//W3C//DTD SVG 1.1//EN" "http://www.w3.org/Graphics/SVG/1.1/DTD/svg11.dtd">
<svg version="1.1" xmlns="http://www.w3.org/2000/svg" xmlns:xlink="http://www.w3.org/1999/xlink" x="0px" y="0px"
	 viewBox="0 0 512 512" enable-background="new 0 0 512 512" xml:space="preserve">
<g id="Layer_4">
	<path fill="#2B3B47" d="M145.578,241.842c15.148,0,27.428,12.28,27.428,27.428v33.716c0,15.148-12.28,27.428-27.428,27.428l0,0
		c-15.148,0-27.428-12.28-27.428-27.428V269.27C118.15,254.122,130.43,241.842,145.578,241.842L145.578,241.842z M366.422,241.842
		c-15.148,0-27.428,12.28-27.428,27.428v33.716c0,15.148,12.28,27.428,27.428,27.428l0,0c15.148,0,27.428-12.28,27.428-27.428
		V269.27C393.85,254.122,381.57,241.842,366.422,241.842L366.422,241.842z M234.534,357.328c0,0-0.722,0.197-2.076,0.566
		c-0.332,0.092-0.702,0.195-1.109,0.309c-0.359,0.113-0.75,0.237-1.173,0.371c-0.822,0.268-1.895,0.575-2.776,0.919
		c-0.94,0.344-1.981,0.726-3.114,1.141c-1.002,0.415-2.124,0.864-3.136,1.344c-1.103,0.48-2.04,0.99-3.106,1.528
		c-0.929,0.538-1.989,1.104-2.831,1.694c-3.72,2.362-6.117,5.117-7.139,8.069c-0.493,1.476-0.52,3.001-0.031,4.551
		c0.461,1.55,1.454,3.124,2.402,4.699c0.963,1.574,1.972,3.149,2.737,4.699c0.408,0.775,0.812,1.544,1.212,2.303
		c0.434,0.76,0.862,1.51,1.283,2.248c0.456,0.738,0.904,1.464,1.343,2.174c0.473,0.71,0.936,1.405,1.386,2.082
		c0.949,1.353,1.891,2.632,2.829,3.813c0.95,1.181,1.836,2.263,2.73,3.223c0.882,0.959,1.629,1.796,2.352,2.485
		c0.675,0.689,1.262,1.23,1.673,1.599c0.395,0.369,0.642,0.566,0.642,0.566c15.658,12.476,38.409,13.002,54.736,0
		c0,0,0.247-0.197,0.642-0.566c0.41-0.369,0.998-0.91,1.673-1.599c0.723-0.689,1.47-1.525,2.352-2.485
		c0.894-0.959,1.78-2.042,2.73-3.223c0.938-1.181,1.88-2.46,2.829-3.813c0.45-0.677,0.913-1.371,1.386-2.082
		c0.439-0.71,0.887-1.436,1.343-2.174c0.421-0.738,0.85-1.488,1.283-2.248c0.4-0.76,0.804-1.528,1.212-2.303
		c0.765-1.55,1.774-3.124,2.737-4.699c0.948-1.574,1.941-3.149,2.402-4.699c0.489-1.55,0.462-3.075-0.031-4.551
		c-1.022-2.952-3.419-5.707-7.139-8.069c-0.843-0.59-1.902-1.156-2.831-1.694c-1.066-0.538-2.004-1.049-3.106-1.528
		c-1.012-0.48-2.134-0.929-3.136-1.344c-1.133-0.415-2.174-0.796-3.114-1.141c-0.881-0.344-1.954-0.652-2.776-0.919
		c-0.423-0.134-0.815-0.258-1.173-0.371c-0.408-0.113-0.778-0.216-1.109-0.309c-1.354-0.369-2.076-0.566-2.076-0.566
		C263.957,353.694,249.004,353.384,234.534,357.328z"/>
</g>
<g id="Layer_1">
</g>
</svg>
