<?xml version="1.0" encoding="iso-8859-1"?>
<!-- Generator: Adobe Illustrator 18.1.0, SVG Export Plug-In . SVG Version: 6.00 Build 0)  -->
<!DOCTYPE svg PUBLIC "-//W3C//DTD SVG 1.1//EN" "http://www.w3.org/Graphics/SVG/1.1/DTD/svg11.dtd">
<svg version="1.1" xmlns="http://www.w3.org/2000/svg" xmlns:xlink="http://www.w3.org/1999/xlink" x="0px" y="0px"
	 viewBox="0 0 512 512" enable-background="new 0 0 512 512" xml:space="preserve">
<g id="Layer_4">
	<path fill="#AF773F" d="M466.049,222.153c0-1.248-0.037-2.435-0.102-3.575c-0.002-0.042-0.005-0.084-0.008-0.126
		c-0.056-0.946-0.134-1.856-0.233-2.73c-3.654-36.126-37.675-66.099-79.125-66.099c-79.494,0-114.374,20.293-143.957,20.293
		c-28.108,0-77.916-24.235-82.814-47.135c-0.099-1.184-0.227-2.359-0.394-3.523c0-0.023-0.002-0.046-0.002-0.068l-0.005,0.008
		c-3.813-26.41-24.716-47.287-51.138-51.055c-4.305-12.572-14.659-22.659-17.194-24.971c-0.123-0.097-0.232-0.198-0.352-0.308
		c-0.076-0.056-0.268-0.233-0.268-0.233l-0.032-0.002c-3.314-2.794-7.038-4.481-9.456-5.377c-1.449-0.537-3.044,0.265-3.506,1.74
		c-0.572,1.822-1.244,4.431-1.486,7.216l-0.014,0.004c0.002,0.044,0.013,0.074-0.001,0.099c-0.19,2.468-0.138,5.308,0.392,8.498
		c0.659,6.234,2.122,11.558,3.821,15.961c-23.764,8.112-40.862,30.615-40.862,57.126c-1.417,7.589-16.014,21.543-28.04,34.065
		l0.005,0.001c-4.862,4.074-7.958,10.186-7.958,17.026c0,11.612,8.915,21.128,20.271,22.112c0.593,0.064,1.238,0.098,1.939,0.098
		c0.74,0,1.495-0.042,2.259-0.114c0.016-0.002,0.033-0.005,0.049-0.006c11.514-1.099,25.624-10.008,38.095-18.32
		c3.286-2.19,7.206-3.168,11.146-2.883c2.252,0.162,4.568,0.096,6.927-0.231c1.575-0.218,3.109-0.563,4.604-1
		c1.823-0.61,3.457-1.245,4.923-1.881c1.586-0.761,3.106-1.639,4.539-2.635c0.021,0.134,0.05,0.264,0.072,0.398
		c6.854-3.662,9.114-6.224,14.08-2.026c7.598,6.424,6.555,11.339,4.509,30.464c0.059,0.031,0.115,0.068,0.174,0.099
		c-0.222,1.971-0.487,4.056-0.759,6.291c-0.04,0.147-0.074,0.297-0.113,0.444c-0.489,5.049-0.987,10.885-1.406,17.729
		c-0.118,1.921-0.304,3.705-0.55,5.363c1.61,18.145,10.468,34.195,23.649,45.268c11.945,16.346,14.579,34.768-4.983,54.33
		c-21.867,21.867-35.928,41.133-16.467,65.783c22.164,31.231,9.022,27.99,37.897,52.999c27.535,23.848,60.972-21.283,29.179-27.633
		c-18.032-3.602-29.243-10.546-42.176-22.491c-21.898-22.041,7.342-27.087,43.517-63.262c8.927-8.927,16.18-15.478,22.047-21.277
		c0.06,0,0.12,0.009,0.181,0.009c91.519,0,110.266-44.17,148.677-29.049c-15.259,13.468-20.675,41.729-14.483,65.981l-0.617-0.419
		c0.315,0.525,0.607,1.019,0.91,1.528c2.191,8.072,5.682,15.659,10.542,22.06c1.775,9.773-7.525,10.614-29.855,10.614
		c-17.656,0-29.106,11.393-36.039,22.322c-4.582,6.513-7.197,16.079-7.597,35.316c-0.615,29.6,45.736,27.081,38.005,2.026
		c-5.965-19.332-8.362-30.332,4.868-36.803c3.923-1.268,8.666-2.043,14.454-2.043c33.339,0,73.133-1.721,39.356-37.067
		c-21.65-22.656,9.891-39.93,43.723-56.278c0.401-0.194,0.788-0.396,1.184-0.592c1.977-0.834,3.901-1.873,5.771-3.088
		C452.539,295.728,466.049,271.197,466.049,222.153z"/>
</g>
<g id="Layer_1">
</g>
</svg>
