<?xml version="1.0" encoding="iso-8859-1"?>
<!-- Generator: Adobe Illustrator 18.1.0, SVG Export Plug-In . SVG Version: 6.00 Build 0)  -->
<!DOCTYPE svg PUBLIC "-//W3C//DTD SVG 1.1//EN" "http://www.w3.org/Graphics/SVG/1.1/DTD/svg11.dtd">
<svg version="1.1" xmlns="http://www.w3.org/2000/svg" xmlns:xlink="http://www.w3.org/1999/xlink" x="0px" y="0px"
	 viewBox="0 0 512 512" enable-background="new 0 0 512 512" xml:space="preserve">
<g id="Layer_5">
	<path fill="#FF473E" d="M224.253,71.466c-10.402-11.876-28.462-13.071-40.338-2.669c0,0-0.988,0.865-2.474,2.542
		c-0.194,0.216-0.396,0.447-0.606,0.691c-1.866,2.176-5.359,1.469-6.231-1.262c-0.099-0.308-0.195-0.601-0.29-0.878
		c-0.714-2.124-1.286-3.306-1.286-3.306c-4.344-8.923-13.234-15.372-23.845-16.074c-15.753-1.042-29.368,10.883-30.411,26.636
		c0,0-0.087,1.31,0.048,3.547c0.016,0.292,0.036,0.6,0.06,0.922c0.216,2.858-2.757,4.824-5.303,3.507
		c-0.286-0.148-0.56-0.286-0.821-0.414c-2.007-0.997-3.247-1.428-3.247-1.428c-9.381-3.238-20.227-1.512-28.227,5.495
		c-11.876,10.402-13.071,28.462-2.669,40.338c0,0,0.865,0.988,2.542,2.474c1.669,1.497,4.161,3.479,7.319,5.607
		c1.773,1.203,3.769,2.445,5.934,3.684v9.829c-0.044,0.816-0.069,1.637-0.069,2.463c0,0.796,0.028,1.586,0.069,2.372v53.211
		c0,28.528-14.423,34.408-14.423,49.104c0,28.418,40.707,28.418,40.707,0c0-24.495-12.673-59.516,18.818-59.516
		c24.948,0,45.172-20.224,45.172-45.171c0-24.948-20.224-45.172-45.172-45.172c-4.507,0-8.852,0.679-12.957,1.911
		c10.66-8.171,23.985-13.037,38.456-13.037c20.463,0,38.643,9.716,50.215,24.778c0.138-0.155,0.284-0.312,0.42-0.467
		c3.17-3.604,5.875-7.138,7.995-10.301c2.129-3.157,3.695-5.929,4.681-7.943c0.997-2.007,1.428-3.247,1.428-3.247
		C232.985,90.313,231.26,79.466,224.253,71.466z"/>
</g>
<g id="Layer_1">
</g>
</svg>
