<?xml version="1.0" encoding="iso-8859-1"?>
<!-- Generator: Adobe Illustrator 18.1.0, SVG Export Plug-In . SVG Version: 6.00 Build 0)  -->
<!DOCTYPE svg PUBLIC "-//W3C//DTD SVG 1.1//EN" "http://www.w3.org/Graphics/SVG/1.1/DTD/svg11.dtd">
<svg version="1.1" xmlns="http://www.w3.org/2000/svg" xmlns:xlink="http://www.w3.org/1999/xlink" x="0px" y="0px"
	 viewBox="0 0 512 512" enable-background="new 0 0 512 512" xml:space="preserve">
<g id="Layer_4">
	<path fill="#2B3B47" d="M391.912,229.86c-6.771,0-12.901,0.043-18.397,0.278c5.262,4.176,8.641,10.622,8.641,17.861v32.943
		c0,12.589-10.205,22.795-22.795,22.795c-8.841,0-16.501-5.037-20.281-12.394v78.242c0,2.443-1.981,4.425-4.425,4.425
		s-4.425-1.981-4.425-4.425V253.805c0-14.97,6.464-24.459,19.762-29.01c11.059-3.785,26.049-3.785,41.92-3.785
		c2.443,0,4.425,1.981,4.425,4.425S394.356,229.86,391.912,229.86z M115.553,225.435c0,2.444,1.981,4.425,4.425,4.425
		c7.022,0,13.352,0.047,19.003,0.306c-5.242,4.176-8.605,10.61-8.605,17.833v32.943c0,12.589,10.206,22.795,22.795,22.795
		c8.365,0,15.674-4.509,19.639-11.227v77.075c0,2.443,1.981,4.425,4.425,4.425s4.425-1.981,4.425-4.425V253.805
		c0-14.97-6.464-24.459-19.762-29.01c-11.058-3.785-26.049-3.785-41.919-3.785C117.534,221.01,115.553,222.991,115.553,225.435z
		 M208.686,424.577c-0.022-1.104-0.91-1.945-2.04-1.96c-102.068,2.055-132.938,17.762-134.202,18.43
		c-0.977,0.516-1.35,1.726-0.834,2.702c0.358,0.68,1.052,1.066,1.771,1.066c0.314,0,0.634-0.074,0.932-0.231
		c0.301-0.159,31.291-15.932,132.414-17.967C207.831,426.595,208.709,425.682,208.686,424.577z M195.295,438.202
		c-0.248-1.076-1.32-1.743-2.398-1.499c-59.544,13.744-108.463,28.968-108.951,29.12c-1.054,0.329-1.642,1.451-1.313,2.506
		c0.268,0.855,1.057,1.404,1.909,1.404c0.197,0,0.398-0.03,0.597-0.092c0.486-0.152,49.269-15.332,108.658-29.04
		C194.872,440.353,195.543,439.278,195.295,438.202z M219.105,442.322c-71.369,16.475-114.175,57.22-114.599,57.629
		c-0.794,0.768-0.816,2.033-0.049,2.827c0.392,0.406,0.915,0.611,1.439,0.611c0.5,0,1-0.187,1.389-0.562
		c0.417-0.401,42.485-40.396,112.72-56.607c1.076-0.249,1.748-1.323,1.499-2.399S220.18,442.08,219.105,442.322z M430.941,440.368
		c-1.264-0.668-32.133-16.375-134.201-18.43c-1.089,0.011-2.018,0.855-2.04,1.96c-0.021,1.104,0.855,2.018,1.96,2.04
		c100.8,2.028,132.113,17.81,132.414,17.967c0.298,0.157,0.617,0.231,0.932,0.231c0.718,0,1.412-0.387,1.771-1.066
		C432.292,442.094,431.919,440.884,430.941,440.368z M419.441,465.145c-0.487-0.152-49.406-15.376-108.95-29.12
		c-1.073-0.24-2.15,0.423-2.399,1.499c-0.248,1.076,0.423,2.15,1.499,2.399c59.39,13.708,108.172,28.888,108.657,29.04
		c0.199,0.062,0.399,0.092,0.598,0.092c0.852,0,1.641-0.549,1.908-1.404C421.083,466.596,420.495,465.474,419.441,465.145z
		 M284.962,442.322c-1.073-0.243-2.15,0.423-2.399,1.499c-0.248,1.076,0.423,2.15,1.499,2.399
		c70.234,16.212,112.303,56.206,112.72,56.607c0.388,0.375,0.889,0.562,1.389,0.562c0.523,0,1.046-0.205,1.438-0.611
		c0.768-0.794,0.745-2.06-0.049-2.827C399.136,499.542,356.33,458.797,284.962,442.322z M303.297,404.364
		c11.421-8.384,2.166-21.518-15.162-21.518H223.95c-17.328,0-26.582,13.134-15.162,21.518l19.894,14.604
		c15.048,11.047,39.672,11.047,54.721,0L303.297,404.364z M465.182,235.571c-0.04-10.205-1.073-20.341-2.994-30.32
		c-0.552,2.491-1.126,5.006-1.733,7.565c-0.913,3.73-1.869,7.519-2.909,11.276c-0.52,1.878-1.039,3.763-1.599,5.617
		c-0.539,1.868-1.104,3.715-1.687,5.539c-1.143,3.662-2.363,7.223-3.604,10.649c-1.244,3.423-2.537,6.69-3.828,9.761
		c-1.305,3.059-2.61,5.92-3.895,8.514c-0.614,1.324-1.295,2.512-1.899,3.69c-0.602,1.181-1.219,2.261-1.813,3.269
		c-1.146,2.059-2.262,3.752-3.171,5.173c-0.899,1.431-1.712,2.448-2.22,3.2c-0.524,0.736-0.803,1.128-0.803,1.128l-0.153,0.214
		c-1.021,1.434-0.976,3.43,0.223,4.826c1.411,1.642,3.885,1.829,5.527,0.418c0,0,0.4-0.343,1.149-0.987
		c0.731-0.658,1.895-1.568,3.22-2.845c1.336-1.269,2.988-2.809,4.734-4.684c0.899-0.923,1.842-1.918,2.779-3.002
		c0.941-1.081,1.993-2.195,2.973-3.418c2.034-2.412,4.148-5.089,6.312-7.974c2.147-2.891,4.344-5.989,6.522-9.248
		c1.117-1.675,2.237-3.393,3.351-5.142C468.465,244.258,466.964,239.844,465.182,235.571z M380.9,146.828
		c0,0,0.334-0.295,0.96-0.849c0.616-0.561,1.58-1.354,2.671-2.454c0.556-0.546,1.172-1.151,1.842-1.809
		c0.643-0.679,1.338-1.413,2.08-2.197c1.453-1.591,3.076-3.409,4.747-5.452c0.859-1.012,1.707-2.088,2.585-3.206
		c0.893-1.112,1.776-2.281,2.68-3.488c1.821-2.409,3.666-4.991,5.533-7.69c1.871-2.697,3.739-5.518,5.61-8.404
		c0.426-0.661,0.848-1.337,1.272-2.005c-3.896-4.022-7.978-7.898-12.217-11.63c-0.819,2.288-1.649,4.565-2.498,6.802
		c-1.176,3.072-2.362,6.085-3.571,8.967c-1.205,2.885-2.412,5.655-3.622,8.24c-0.6,1.297-1.189,2.558-1.792,3.752
		c-0.591,1.205-1.165,2.371-1.752,3.459c-1.139,2.211-2.264,4.176-3.279,5.91c-0.522,0.856-1.011,1.656-1.463,2.397
		c-0.476,0.719-0.914,1.38-1.309,1.976c-0.779,1.216-1.472,2.076-1.919,2.701c-0.455,0.617-0.697,0.946-0.697,0.946l-0.111,0.15
		c-0.793,1.075-0.758,2.594,0.163,3.635C377.872,147.775,379.702,147.887,380.9,146.828z M320.663,124.877
		c1.253,0.984,3.067,0.766,4.051-0.487c0,0,0.33-0.42,0.948-1.207c0.296-0.397,0.72-0.882,1.111-1.468
		c0.398-0.587,0.856-1.263,1.369-2.019c0.968-1.526,2.119-3.395,3.292-5.572c0.618-1.085,1.208-2.25,1.839-3.481
		c0.646-1.229,1.271-2.531,1.923-3.892c1.314-2.721,2.651-5.69,4.015-8.846c1.369-3.155,2.744-6.499,4.132-9.97
		c2.769-6.939,5.539-14.39,8.189-21.872c-5.272-2.604-10.685-4.994-16.212-7.18c-0.151,0.966-0.304,1.933-0.458,2.9
		c-1.224,7.674-2.567,15.321-3.991,22.437c-0.715,3.556-1.438,6.986-2.184,10.214c-0.741,3.23-1.488,6.269-2.248,9.037
		c-0.376,1.387-0.737,2.719-1.124,3.957c-0.374,1.248-0.724,2.439-1.103,3.52c-0.71,2.204-1.429,4.051-2.035,5.563
		c-0.323,0.737-0.611,1.396-0.862,1.969c-0.248,0.581-0.509,1.001-0.695,1.384c-0.387,0.747-0.594,1.145-0.594,1.145l-0.141,0.272
		C319.256,122.488,319.555,124.007,320.663,124.877z M255.348,110.562c1.596,0.22,3.069-0.896,3.288-2.493l8.813-64.011
		c-3.873-0.208-7.773-0.322-11.703-0.322c-3.93,0-7.831,0.114-11.703,0.322l8.813,64.011
		C253.03,109.332,254.024,110.38,255.348,110.562z M171.638,87.937c1.388,3.471,2.763,6.815,4.132,9.97
		c1.364,3.156,2.701,6.125,4.015,8.846c0.653,1.361,1.277,2.662,1.923,3.892c0.63,1.231,1.22,2.396,1.839,3.481
		c1.173,2.177,2.324,4.046,3.292,5.572c0.513,0.756,0.971,1.432,1.369,2.019c0.391,0.586,0.815,1.071,1.111,1.468
		c0.618,0.787,0.948,1.207,0.948,1.207c0.839,1.07,2.346,1.428,3.596,0.779c1.415-0.733,1.967-2.474,1.233-3.889l-0.14-0.271
		c0,0-0.206-0.398-0.594-1.145c-0.186-0.382-0.447-0.803-0.695-1.384c-0.251-0.573-0.539-1.231-0.862-1.969
		c-0.606-1.512-1.325-3.359-2.035-5.563c-0.379-1.081-0.729-2.272-1.103-3.52c-0.387-1.238-0.747-2.57-1.124-3.957
		c-0.76-2.768-1.507-5.807-2.248-9.037c-0.746-3.227-1.47-6.657-2.184-10.214c-1.425-7.116-2.767-14.762-3.991-22.437
		c-0.223-1.393-0.44-2.785-0.655-4.177c-5.633,2.123-11.142,4.471-16.52,7.025c0.167,0.474,0.333,0.948,0.501,1.422
		C166.097,73.541,168.867,80.995,171.638,87.937z M110.981,119.682c1.866,2.698,3.712,5.281,5.533,7.69
		c0.904,1.207,1.787,2.376,2.68,3.488c0.878,1.118,1.727,2.195,2.585,3.206c1.671,2.043,3.294,3.861,4.747,5.452
		c0.743,0.784,1.438,1.518,2.08,2.197c0.67,0.658,1.286,1.263,1.842,1.809c1.09,1.099,2.055,1.893,2.671,2.454
		c0.626,0.554,0.96,0.849,0.96,0.849c1,0.886,2.517,0.987,3.636,0.162c1.287-0.949,1.561-2.762,0.612-4.049l-0.11-0.149
		c0,0-0.242-0.329-0.697-0.946c-0.447-0.625-1.14-1.485-1.919-2.701c-0.395-0.596-0.833-1.257-1.309-1.976
		c-0.452-0.74-0.941-1.541-1.463-2.397c-1.016-1.734-2.14-3.699-3.279-5.91c-0.587-1.088-1.161-2.254-1.752-3.459
		c-0.603-1.194-1.192-2.455-1.792-3.752c-1.21-2.585-2.417-5.355-3.622-8.24c-1.209-2.882-2.396-5.896-3.571-8.967
		c-1.134-2.99-2.246-6.044-3.324-9.113c-4.429,3.773-8.685,7.708-12.755,11.792c0.875,1.396,1.754,2.784,2.637,4.155
		C107.242,114.164,109.11,116.985,110.981,119.682z M72.945,286.088c1.331,1.145,3.319,1.289,4.818,0.23
		c1.767-1.249,2.187-3.695,0.938-5.462l-0.159-0.225c0,0-0.275-0.389-0.79-1.117c-0.499-0.744-1.299-1.75-2.181-3.167
		c-0.887-1.411-1.983-3.084-3.094-5.13c-0.575-1.002-1.179-2.069-1.757-3.244c-0.58-1.173-1.246-2.346-1.831-3.664
		c-0.596-1.308-1.253-2.63-1.859-4.055c-0.599-1.431-1.247-2.879-1.853-4.409c-1.218-3.056-2.43-6.305-3.584-9.711
		c-1.149-3.41-2.271-6.953-3.306-10.598c-0.528-1.816-1.039-3.653-1.52-5.512c-0.503-1.846-0.963-3.72-1.423-5.59
		c-0.922-3.738-1.751-7.509-2.538-11.219c-0.759-3.724-1.479-7.388-2.104-10.954c-0.124-0.689-0.243-1.371-0.361-2.052
		c-2.645,11.798-4.04,23.844-4.04,35.982c0,0.384,0.014,0.764,0.017,1.147c-1.461,3.695-2.707,7.492-3.743,11.372
		c1.061,1.747,2.13,3.462,3.198,5.135c2.101,3.282,4.232,6.4,6.319,9.308c1.04,1.455,2.119,2.84,3.122,4.187
		c1.013,1.344,2.076,2.603,3.047,3.824c0.957,1.228,2.002,2.342,2.923,3.427c0.919,1.087,1.856,2.08,2.741,3.005
		c1.719,1.878,3.362,3.411,4.683,4.679c1.314,1.273,2.471,2.177,3.196,2.831C72.548,285.747,72.945,286.088,72.945,286.088z"/>
</g>
<g id="Layer_1">
</g>
</svg>
