<?xml version="1.0" encoding="iso-8859-1"?>
<!-- Generator: Adobe Illustrator 18.1.0, SVG Export Plug-In . SVG Version: 6.00 Build 0)  -->
<!DOCTYPE svg PUBLIC "-//W3C//DTD SVG 1.1//EN" "http://www.w3.org/Graphics/SVG/1.1/DTD/svg11.dtd">
<svg version="1.1" xmlns="http://www.w3.org/2000/svg" xmlns:xlink="http://www.w3.org/1999/xlink" x="0px" y="0px"
	 viewBox="0 0 512 512" enable-background="new 0 0 512 512" xml:space="preserve">
<g id="Layer_6">
	<path fill="#597B91" d="M117.008,161.748c0,0,0.104,0.001,0.304,0.003c0.197,0.005,0.508-0.004,0.871,0.023
		c0.744,0.037,1.81,0.114,3.064,0.303c0.652,0.084,1.298,0.193,2.049,0.364c0.782,0.179,1.543,0.456,2.403,0.72
		c0.865,0.26,1.69,0.627,2.619,0.974c0.924,0.355,1.74,0.783,2.682,1.206c1.831,0.869,3.677,1.953,5.491,3.245
		c1.835,1.264,3.603,2.781,5.313,4.45c1.707,1.674,3.308,3.572,4.782,5.612c1.449,2.088,2.816,4.256,3.967,6.647
		c1.169,2.327,2.132,4.884,2.932,7.421c0.395,1.276,0.706,2.639,0.992,3.949c0.274,1.316,0.518,2.63,0.653,4.016
		c0.155,1.358,0.268,2.695,0.313,4.013c0.029,1.377-0.006,2.729-0.082,4.036c-0.045,0.659-0.07,1.285-0.151,1.936
		c-0.091,0.67-0.156,1.315-0.284,1.963c-0.244,1.29-0.442,2.498-0.736,3.661c-0.702,2.478-1.418,4.564-2.375,6.497
		c-0.51,0.971-0.938,1.84-1.454,2.632c-0.504,0.794-0.905,1.469-1.458,2.126c-0.974,1.28-1.967,2.188-2.551,2.782
		c-0.292,0.298-0.581,0.516-0.751,0.662c-0.177,0.145-0.268,0.22-0.268,0.22l-0.062,0.051c-2.391,1.956-5.876,1.696-7.972-0.505
		c0,0-0.234-0.247-0.672-0.709c-0.388-0.45-1.041-1.087-1.689-1.816c-0.681-0.729-1.629-1.626-2.507-2.529
		c-0.432-0.442-0.965-0.955-1.499-1.451c-0.535-0.5-1.024-1.021-1.561-1.537c-0.594-0.541-1.144-1.104-1.737-1.661
		c-0.303-0.276-0.557-0.569-0.836-0.855c-0.305-0.293-0.615-0.59-0.928-0.891c-0.633-0.595-1.185-1.227-1.788-1.844
		c-0.682-0.622-1.246-1.301-1.881-1.954c-0.618-0.647-1.222-1.348-1.866-2.044c-0.315-0.346-0.631-0.695-0.949-1.045
		c-0.297-0.361-0.567-0.724-0.897-1.088c-1.299-1.441-2.456-2.948-3.693-4.487c-1.16-1.547-2.363-3.127-3.426-4.741
		c-0.261-0.404-0.572-0.788-0.839-1.192c-0.262-0.409-0.523-0.816-0.783-1.221c-0.526-0.806-1.026-1.609-1.508-2.429
		c-0.999-1.605-1.843-3.25-2.678-4.819c-0.792-1.594-1.507-3.147-2.137-4.623c-0.614-1.515-1.114-2.865-1.51-4.122
		c-0.399-1.349-0.748-2.526-1.034-3.494c-0.312-1.027-0.457-1.923-0.6-2.495c-0.124-0.589-0.162-0.928-0.162-0.928
		c-0.829-7.446,4.534-14.154,11.98-14.983c0.527-0.059,1.049-0.086,1.567-0.084L117.008,161.748z"/>
</g>
<g id="Layer_1">
</g>
</svg>
