<?xml version="1.0" encoding="iso-8859-1"?>
<!-- Generator: Adobe Illustrator 18.1.0, SVG Export Plug-In . SVG Version: 6.00 Build 0)  -->
<!DOCTYPE svg PUBLIC "-//W3C//DTD SVG 1.1//EN" "http://www.w3.org/Graphics/SVG/1.1/DTD/svg11.dtd">
<svg version="1.1" xmlns="http://www.w3.org/2000/svg" xmlns:xlink="http://www.w3.org/1999/xlink" x="0px" y="0px"
	 viewBox="0 0 512 512" enable-background="new 0 0 512 512" xml:space="preserve">
<g id="Layer_5">
	<path fill="#D1CFC3" d="M113.943,109.711c0,0,0.626,0.449,1.799,1.29c0.587,0.421,1.31,0.94,2.161,1.55
		c0.106,0.076,0.215,0.154,0.325,0.233c0.088,0.061,0.109,0.065,0.168,0.102c0.099,0.061,0.202,0.123,0.308,0.188
		c0.211,0.133,0.432,0.283,0.664,0.452c0.232,0.169,0.475,0.358,0.73,0.571c0.421,0.216,0.861,0.442,1.32,0.678
		c0.461,0.249,0.941,0.508,1.438,0.776c0.5,0.273,1.073,0.446,1.637,0.698c0.572,0.245,1.163,0.498,1.771,0.759
		c0.639,0.2,1.296,0.405,1.971,0.616c1.339,0.512,2.832,0.757,4.389,1.139c3.129,0.546,6.675,1.031,10.431,0.837
		c0.47-0.015,0.956,0.014,1.429-0.029c0.472-0.05,0.948-0.1,1.426-0.151c0.952-0.12,1.971-0.117,2.917-0.353
		c0.975-0.18,1.961-0.362,2.956-0.545c0.956-0.276,1.934-0.543,2.937-0.803c3.891-1.23,7.705-3.038,11.13-5.487l1.275-0.941
		l0.325-0.234l0.164-0.117l0.082-0.059l0.041-0.029c-1.054,1.198-0.263,0.303-0.485,0.558l0.812-0.806l1.628-1.616l0.392-0.391
		l0.136-0.169c0.093-0.111,0.191-0.219,0.295-0.326c0.207-0.228,0.438-0.383,0.69-0.655c0.249-0.361,0.509-0.719,0.781-1.078
		l0.418-0.538c0.133-0.182,0.214-0.38,0.328-0.569c0.214-0.382,0.44-0.763,0.68-1.146c0.236-0.384,0.344-0.799,0.542-1.198
		c0.156-0.406,0.43-0.801,0.507-1.227c0.232-0.839,0.586-1.687,0.675-2.571c0.427-1.76,0.348-3.588,0.247-5.468
		c-0.468-3.722-2.023-7.539-4.537-10.89c-0.268-0.452-0.659-0.816-0.998-1.22c-0.348-0.403-0.695-0.804-1.04-1.203
		c-0.732-0.773-1.563-1.463-2.329-2.218l-0.146-0.139l-0.073-0.07c0.779,0.486,0.186,0.113,0.346,0.211l-0.053-0.038l-0.42-0.305
		l-0.837-0.607l-0.833-0.603c-0.261-0.186-0.604-0.449-0.733-0.51c-0.351-0.211-0.697-0.432-1.042-0.664l-0.516-0.355l-0.668-0.338
		c-3.556-1.873-7.451-3.039-11.192-3.511c-3.74-0.455-7.339-0.492-10.534-0.099c-1.624,0.132-3.087,0.49-4.507,0.754
		c-1.357,0.377-2.685,0.67-3.813,1.092c-0.584,0.197-1.137,0.383-1.657,0.558c-0.498,0.225-0.965,0.436-1.4,0.633
		c-0.434,0.206-0.871,0.362-1.259,0.528c-0.381,0.173-0.7,0.365-1.004,0.521c-0.599,0.323-1.071,0.574-1.403,0.733
		c-0.329,0.165-0.499,0.25-0.499,0.25l-0.445,0.223c-1.041,0.521-2.307,0.1-2.828-0.941c-0.362-0.723-0.267-1.558,0.173-2.173
		c0,0,0.486-0.677,1.398-1.947c0.236-0.315,0.484-0.689,0.792-1.065c0.321-0.366,0.671-0.765,1.05-1.196
		c0.384-0.44,0.798-0.913,1.238-1.417c0.484-0.461,0.999-0.952,1.543-1.47c1.075-1.094,2.423-2.071,3.897-3.226
		c1.525-1.026,3.216-2.173,5.151-3.169c0.483-0.267,0.973-0.539,1.471-0.814c0.505-0.261,1.034-0.474,1.562-0.748
		c1.062-0.52,2.173-1.075,3.352-1.529c2.345-0.996,4.934-1.893,7.748-2.468c1.406-0.21,2.869-0.537,4.365-0.537
		c0.75-0.04,1.507-0.032,2.276-0.039c0.767-0.004,1.535,0.111,2.314,0.184c0.775,0.1,1.562,0.189,2.349,0.314
		c0.782,0.176,1.569,0.353,2.363,0.531c1.598,0.322,3.183,0.848,4.794,1.382l1.217,0.409l1.333,0.565
		c0.891,0.384,1.785,0.784,2.679,1.198c0.514,0.23,0.716,0.356,1.041,0.523l0.907,0.478l0.912,0.481l0.458,0.242l0.057,0.03
		c0.221,0.137-0.413-0.264,0.51,0.315l0.137,0.09l0.274,0.18c1.45,0.981,2.952,1.921,4.389,3.018
		c0.703,0.579,1.409,1.162,2.119,1.746c0.701,0.6,1.437,1.157,2.082,1.852c5.411,5.174,10.097,12.063,12.517,20.157
		c2.365,8.074,2.405,17.201-0.146,25.508l-1.074,3.062c-0.191,0.505-0.358,1.027-0.576,1.517l-0.687,1.452l-1.418,2.89
		c-0.559,0.994-1.234,2.037-1.883,3.033l-1.004,1.496l-0.511,0.74l-0.362,0.467l-1.41,1.8l-0.703,0.898
		c-0.233,0.265,0.46-0.513-0.534,0.607l-0.063,0.066l-0.126,0.131l-0.252,0.262l-0.504,0.523l-2.029,2.078
		c-5.497,5.428-11.794,9.705-18.254,12.88c-1.645,0.721-3.276,1.436-4.892,2.144c-1.643,0.617-3.293,1.154-4.922,1.711
		c-1.621,0.601-3.279,0.927-4.899,1.358c-0.813,0.2-1.622,0.399-2.425,0.597c-0.805,0.185-1.617,0.291-2.418,0.436
		c-6.407,1.272-12.605,1.319-18.286,1.055c-2.842-0.246-5.572-0.428-8.141-0.946c-1.287-0.229-2.541-0.452-3.759-0.668
		c-1.205-0.31-2.376-0.611-3.511-0.903c-1.13-0.313-2.238-0.555-3.279-0.914c-1.04-0.367-2.042-0.72-3.005-1.06
		c-0.961-0.349-1.883-0.683-2.764-1.003c-0.955-0.427-1.856-0.859-2.712-1.266c-0.852-0.416-1.658-0.809-2.417-1.18
		c-0.377-0.189-0.742-0.372-1.095-0.549c-0.17-0.087-0.337-0.173-0.502-0.258c-0.116-0.069-0.23-0.137-0.342-0.204
		c-0.896-0.533-1.659-0.987-2.277-1.355c-1.236-0.736-1.896-1.128-1.896-1.128l-1.4-0.834c-9.103-5.418-12.091-17.191-6.672-26.294
		c5.418-9.103,17.191-12.091,26.294-6.672C113.038,109.091,113.514,109.405,113.943,109.711z M68.423,157.258
		c-4.383-0.219-8.114,3.157-8.333,7.54l-0.686,13.724c-0.219,4.383,3.157,8.114,7.54,8.333l0,0c4.383,0.219,8.114-3.157,8.333-7.54
		l0.686-13.724C76.182,161.208,72.806,157.477,68.423,157.258L68.423,157.258z M21.345,195.226c-2.402-0.12-4.446,1.73-4.566,4.131
		l-0.376,7.52c-0.12,2.402,1.73,4.446,4.131,4.566l0,0c2.402,0.12,4.446-1.73,4.566-4.131l0.376-7.52
		C25.596,197.39,23.746,195.346,21.345,195.226L21.345,195.226z M160.698,418.318c1.49,5.439,0.505,12.247,0.014,20.775
		c-0.269,4.667,3.448,8.593,8.123,8.593h13.243c5.581,0,10.474-3.731,11.951-9.114l5.556-20.254H160.698z M417.965,418.318
		c1.49,5.439,0.505,12.247,0.014,20.775c-0.269,4.667,3.448,8.593,8.123,8.593h11.471c5.581,0,10.474-3.731,11.951-9.114
		l5.556-20.254H417.965z"/>
</g>
<g id="Layer_1">
</g>
</svg>
