<svg xmlns="http://www.w3.org/2000/svg" viewBox="0 0 512 512" enable-background="new 0 0 512 512"><path fill="#F4B5C8" d="M112.816 293.123l-4.064.023c-.693-.007-1.338.03-2.07.064-.734.03-1.534.065-2.398.102-.858.025-1.84.14-2.855.21-1.025.084-2.114.158-3.25.315-4.567.506-10.08 1.42-16.145 3.187-6.043 1.758-12.702 4.38-18.94 8.485-3.11 2.043-6.1 4.46-8.692 7.28-2.587 2.81-4.797 6.027-6.14 9.57-2.926 7.02-2.028 15.364 2.65 23.123 2.285 3.878 5.393 7.577 9.02 10.97 3.628 3.402 7.763 6.51 12.172 9.364 4.41 2.857 9.095 5.482 13.988 7.825 2.41 1.232 4.937 2.282 7.42 3.414 2.537 1.036 5.055 2.12 7.637 3.08 20.61 7.823 42.493 12.796 63.156 16.31 10.34 1.784 20.424 3.098 30.005 4.208l7.095.78c2.33.248 4.633.44 6.894.656 4.52.45 8.9.78 13.104 1.098 4.202.352 8.24.566 12.078.81 3.838.26 7.484.42 10.91.578 6.852.362 12.835.497 17.76.675 4.926.146 8.8.187 11.44.25l4.05.08h.048c2.015.04 3.616 1.704 3.577 3.72-.04 1.98-1.655 3.562-3.625 3.577l-4.078.026c-2.66.006-6.56.065-11.528.05-4.967-.05-11-.03-17.92-.218-3.462-.072-7.145-.137-11.027-.3-3.883-.145-7.967-.256-12.226-.5-4.26-.213-8.698-.432-13.288-.767-2.295-.16-4.63-.294-7-.485l-7.214-.603c-9.75-.875-20.034-1.945-30.635-3.49-21.19-3.053-43.774-7.53-65.705-15.204-2.745-.94-5.453-2.02-8.172-3.052-2.688-1.138-5.402-2.19-8.046-3.45-5.33-2.39-10.53-5.117-15.544-8.183-5.01-3.063-9.838-6.48-14.28-10.43-4.435-3.947-8.496-8.444-11.744-13.616-.802-1.3-1.602-2.595-2.264-3.995-.34-.693-.71-1.36-1.013-2.073l-.877-2.152c-.14-.36-.293-.714-.423-1.08l-.35-1.115-.682-2.23-.497-2.29-.237-1.145c-.064-.385-.102-.776-.153-1.163l-.27-2.324c-.044-.778-.056-1.56-.078-2.336l-.025-1.165c.008-.387.042-.774.063-1.16l.16-2.313c.422-3.04 1.02-6.048 2.09-8.81 1.985-5.61 5.138-10.39 8.618-14.388 3.495-4.01 7.36-7.27 11.26-9.985 7.823-5.43 15.75-8.734 22.847-11.014 7.12-2.277 13.48-3.49 18.724-4.214 1.31-.21 2.553-.332 3.724-.458 1.18-.116 2.248-.265 3.31-.33 1.054-.07 2.03-.137 2.922-.198.894-.06 1.726-.12 2.358-.13l4.062-.128c4.6-.147 8.45 3.465 8.597 8.066.148 4.6-3.464 8.45-8.065 8.597l-.22.004z"/></svg>