<?xml version="1.0" encoding="iso-8859-1"?>
<!-- Generator: Adobe Illustrator 18.1.0, SVG Export Plug-In . SVG Version: 6.00 Build 0)  -->
<!DOCTYPE svg PUBLIC "-//W3C//DTD SVG 1.1//EN" "http://www.w3.org/Graphics/SVG/1.1/DTD/svg11.dtd">
<svg version="1.1" id="Layer_1" xmlns="http://www.w3.org/2000/svg" xmlns:xlink="http://www.w3.org/1999/xlink" x="0px" y="0px"
	 viewBox="0 0 512 512" enable-background="new 0 0 512 512" xml:space="preserve">
<path fill="#E8E6DD" d="M456.196,16.69c-0.049-1.294-0.082-2.377-0.135-3.259c-0.103-1.747-0.157-2.678-0.157-2.678
	c-0.062-0.992-0.509-1.971-1.322-2.669c-1.598-1.373-4.006-1.19-5.378,0.408l-0.208,0.242c0,0-0.579,0.674-1.664,1.937
	c-0.528,0.62-1.179,1.386-1.945,2.285c-0.385,0.443-0.772,0.925-1.229,1.417c-0.468,0.482-0.965,0.994-1.49,1.536
	c-1.062,1.065-2.168,2.249-3.409,3.479c-1.286,1.168-2.676,2.431-4.162,3.781c-1.524,1.281-3.216,2.55-4.903,3.873
	c-1.758,1.28-3.627,2.548-5.535,3.812c-3.991,2.415-8.183,4.793-12.879,6.708c-0.569,0.247-1.142,0.496-1.719,0.746
	c-0.583,0.239-1.206,0.447-1.805,0.67c-1.191,0.428-2.397,0.862-3.616,1.3c-2.529,0.761-4.937,1.582-7.577,2.167
	c-2.531,0.671-5.246,1.153-7.84,1.686c-2.737,0.411-5.362,0.86-8.156,1.111c-2.685,0.358-5.539,0.505-8.273,0.704
	c-2.847,0.089-5.592,0.218-8.439,0.207c-2.77,0.061-5.67-0.077-8.443-0.15c-2.869-0.186-5.613-0.259-8.444-0.521
	c-5.571-0.415-11.12-1.113-16.465-1.85c-1.335-0.196-2.658-0.39-3.969-0.583c-1.32-0.225-2.628-0.448-3.922-0.668
	c-2.554-0.42-5.122-0.933-7.55-1.361c-2.464-0.485-4.852-0.973-7.156-1.463c-2.33-0.533-4.534-1.004-6.687-1.524
	c-4.279-0.984-8.162-1.479-11.602-1.605c-1.727-0.079-3.336-0.053-4.822,0.053c-1.385,0.077-2.62,0.226-3.755,0.434
	c-0.566,0.1-1.101,0.217-1.606,0.343c-0.563,0.118-1.247,0.238-1.799,0.369c-1.146,0.264-2.12,0.53-2.91,0.782
	c-1.579,0.496-2.42,0.925-2.42,0.925c-8.289,4.229-15.773,10.156-21.887,17.566c-5.845-7.085-13.194-13.122-21.894-17.566
	c0,0-0.841-0.43-2.42-0.925c-0.79-0.251-1.764-0.518-2.91-0.782c-0.552-0.131-1.236-0.251-1.799-0.369
	c-0.505-0.127-1.04-0.243-1.606-0.343c-1.136-0.208-2.37-0.357-3.755-0.434c-1.486-0.106-3.095-0.133-4.822-0.053
	c-3.44,0.126-7.323,0.621-11.602,1.605c-2.153,0.521-4.357,0.992-6.687,1.524c-2.304,0.49-4.692,0.978-7.156,1.463
	c-2.428,0.429-4.996,0.941-7.55,1.361c-1.294,0.22-2.601,0.443-3.922,0.668c-1.311,0.193-2.634,0.387-3.969,0.583
	c-5.344,0.738-10.893,1.435-16.465,1.85c-2.83,0.261-5.575,0.335-8.444,0.521c-2.773,0.073-5.673,0.21-8.443,0.15
	c-2.847,0.01-5.593-0.119-8.439-0.207c-2.734-0.198-5.588-0.346-8.273-0.704c-2.794-0.251-5.42-0.701-8.156-1.111
	c-2.594-0.533-5.309-1.015-7.84-1.686c-2.64-0.585-5.048-1.406-7.577-2.167c-1.219-0.438-2.424-0.872-3.616-1.3
	c-0.599-0.223-1.221-0.431-1.805-0.67c-0.577-0.25-1.15-0.499-1.719-0.746c-4.696-1.915-8.888-4.293-12.879-6.708
	c-1.908-1.264-3.776-2.532-5.535-3.812c-1.687-1.323-3.379-2.593-4.903-3.873c-1.486-1.35-2.876-2.613-4.162-3.781
	c-1.241-1.23-2.347-2.414-3.409-3.479c-0.525-0.541-1.022-1.053-1.49-1.536c-0.458-0.492-0.845-0.974-1.229-1.417
	c-0.766-0.9-1.417-1.665-1.945-2.285c-1.085-1.263-1.664-1.937-1.664-1.937l-0.216-0.252c-0.65-0.751-1.591-1.25-2.661-1.313
	c-2.103-0.124-3.907,1.481-4.031,3.584c0,0-0.055,0.932-0.157,2.678c-0.053,0.881-0.086,1.965-0.135,3.259
	c-0.017,0.644-0.06,1.349-0.055,2.089c0.019,0.741,0.04,1.528,0.061,2.359c0.053,1.672,0.087,3.558,0.262,5.595
	c0.222,2.019,0.479,4.232,0.782,6.637c0.367,2.374,0.882,4.892,1.414,7.618c0.651,2.656,1.433,5.462,2.31,8.426
	c0.49,1.446,1.009,2.93,1.562,4.447c0.278,0.763,0.559,1.532,0.843,2.309c0.299,0.769,0.638,1.519,0.966,2.294
	c0.68,1.554,1.371,3.134,2.073,4.738c0.745,1.588,1.591,3.137,2.426,4.758c0.427,0.808,0.857,1.622,1.29,2.442
	c0.446,0.81,0.93,1.589,1.405,2.396c0.961,1.601,1.941,3.247,2.973,4.891c2.159,3.134,4.389,6.481,6.897,9.594
	c2.441,3.261,5.146,6.266,7.932,9.411c2.837,2.967,5.766,6.087,8.867,8.922c3.088,2.949,6.315,5.634,9.612,8.418
	c1.671,1.319,3.345,2.641,5.021,3.965c1.694,1.354,3.415,2.522,5.146,3.786c3.467,2.541,6.983,4.809,10.542,7.156
	c3.543,2.227,7.155,4.433,10.745,6.432c3.608,2.091,7.196,3.951,10.793,5.852c1.791,0.926,3.577,1.782,5.364,2.652
	c1.789,0.878,3.567,1.723,5.328,2.512c1.773,0.805,3.531,1.602,5.273,2.392c1.746,0.747,3.476,1.487,5.187,2.218
	c3.445,1.509,6.799,2.749,10.11,4.051c3.292,1.236,6.51,2.412,9.633,3.52c3.107,1.054,6.146,2.143,9.045,3.051
	c5.817,1.854,11.206,2.922,15.988,3.465c2.386,0.255,4.626,0.392,6.699,0.438c2.175,0.024,4.213-0.052,6.031-0.183
	c0.912-0.063,1.774-0.145,2.585-0.238c0.753-0.094,1.303-0.214,1.899-0.332c1.15-0.245,2.128-0.496,2.922-0.734
	c1.587-0.47,2.435-0.885,2.435-0.885l0.024-0.007c8.688-4.254,16.529-10.355,22.892-18.075c6.078,7.368,13.769,13.602,22.903,18.08
	l0.005,0.002c0,0,0.848,0.416,2.435,0.885c0.794,0.238,1.772,0.489,2.922,0.734c0.596,0.118,1.146,0.238,1.899,0.332
	c0.811,0.094,1.674,0.175,2.585,0.238c1.818,0.131,3.856,0.207,6.031,0.183c2.073-0.046,4.313-0.183,6.699-0.438
	c4.782-0.544,10.172-1.611,15.988-3.465c2.899-0.909,5.938-1.997,9.045-3.051c3.123-1.108,6.341-2.283,9.633-3.52
	c3.311-1.302,6.665-2.542,10.11-4.051c1.711-0.732,3.44-1.472,5.187-2.218c1.742-0.79,3.5-1.588,5.273-2.392
	c1.761-0.789,3.54-1.634,5.328-2.512c1.787-0.87,3.573-1.726,5.365-2.652c3.597-1.901,7.185-3.761,10.793-5.852
	c3.59-1.999,7.203-4.206,10.745-6.432c3.559-2.347,7.075-4.615,10.542-7.156c1.731-1.264,3.452-2.432,5.146-3.786
	c1.676-1.323,3.35-2.645,5.021-3.965c3.297-2.784,6.524-5.469,9.612-8.418c3.101-2.835,6.03-5.955,8.867-8.922
	c2.786-3.145,5.491-6.15,7.932-9.411c2.508-3.114,4.738-6.46,6.897-9.594c1.032-1.643,2.013-3.29,2.973-4.891
	c0.475-0.807,0.959-1.586,1.405-2.396c0.433-0.819,0.863-1.633,1.29-2.442c0.836-1.621,1.681-3.17,2.426-4.758
	c0.702-1.604,1.393-3.184,2.073-4.738c0.328-0.775,0.666-1.525,0.966-2.294c0.284-0.777,0.565-1.546,0.843-2.309
	c0.553-1.517,1.072-3.001,1.562-4.447c0.878-2.964,1.66-5.77,2.31-8.426c0.533-2.726,1.047-5.244,1.414-7.618
	c0.303-2.405,0.56-4.618,0.782-6.637c0.175-2.037,0.208-3.924,0.262-5.595c0.021-0.832,0.042-1.619,0.061-2.359
	C456.256,18.038,456.213,17.334,456.196,16.69z"/>
</svg>
