<?xml version="1.0" encoding="iso-8859-1"?>
<!-- Generator: Adobe Illustrator 18.1.0, SVG Export Plug-In . SVG Version: 6.00 Build 0)  -->
<!DOCTYPE svg PUBLIC "-//W3C//DTD SVG 1.1//EN" "http://www.w3.org/Graphics/SVG/1.1/DTD/svg11.dtd">
<svg version="1.1" xmlns="http://www.w3.org/2000/svg" xmlns:xlink="http://www.w3.org/1999/xlink" x="0px" y="0px"
	 viewBox="0 0 512 512" enable-background="new 0 0 512 512" xml:space="preserve">
<g id="Layer_5">
	<path fill="#FF6E83" d="M60.68,166.337C39.479,139.813,37.035,107,40.138,80.279c3.402-29.295,30.751-47.421,54.412-15.497
		c3.035,4.095,7.612,19.435,11.183,38.06C86.468,121.253,71.07,142.908,60.68,166.337z M449.479,166.401
		c21.249-26.535,23.7-59.38,20.594-86.123c-3.402-29.295-30.751-47.421-54.412-15.497c-3.039,4.1-7.623,19.472-11.196,38.128
		C423.714,121.324,439.103,142.975,449.479,166.401z M258.024,449.48c-7.744,13.798-21.354,23.857-37.452,26.796
		c10.571,2.368,22.835,4.143,35.937,4.143c13.689,0,26.476-1.932,37.359-4.46C278.473,472.661,265.509,462.816,258.024,449.48z"/>
</g>
<g id="Layer_1">
</g>
</svg>
