<?xml version="1.0" encoding="iso-8859-1"?>
<!-- Generator: Adobe Illustrator 18.1.0, SVG Export Plug-In . SVG Version: 6.00 Build 0)  -->
<!DOCTYPE svg PUBLIC "-//W3C//DTD SVG 1.1//EN" "http://www.w3.org/Graphics/SVG/1.1/DTD/svg11.dtd">
<svg version="1.1" xmlns="http://www.w3.org/2000/svg" xmlns:xlink="http://www.w3.org/1999/xlink" x="0px" y="0px"
	 viewBox="0 0 512 512" enable-background="new 0 0 512 512" xml:space="preserve">
<g id="Layer_5">
	<path fill="#2B3B47" d="M202.911,149.263v26.693h-0.04c0,0.04,0.04,0.054,0.04,0.074c0,10.483-8.505,18.988-18.988,18.988
		c-10.483,0-18.988-8.505-18.988-18.988c0-0.021,0-0.034,0-0.074h-0.081v-26.693h0.229c0.848-9.724,8.895-17.375,18.841-17.375
		c9.918,0,17.966,7.651,18.801,17.375H202.911z M345.735,149.263c-0.835-9.724-8.883-17.375-18.801-17.375
		c-9.945,0-17.993,7.651-18.841,17.375h-0.229v26.693h0.081c0,0.04,0,0.054,0,0.074c0,10.483,8.505,18.988,18.988,18.988
		s18.988-8.505,18.988-18.988c0-0.021-0.04-0.034-0.04-0.074h0.04v-26.693H345.735z"/>
</g>
<g id="Layer_1">
</g>
</svg>
