<svg xmlns="http://www.w3.org/2000/svg" viewBox="0 0 512 512" enable-background="new 0 0 512 512"><path fill="#2B3B47" d="M188.387 217.463v42.23c0 14.154-11.475 25.63-25.63 25.63s-25.63-11.476-25.63-25.63v-42.23c0-14.155 11.475-25.63 25.63-25.63s25.63 11.475 25.63 25.63zm160.856-25.63c-14.155 0-25.63 11.475-25.63 25.63v42.23c0 14.154 11.475 25.63 25.63 25.63s25.63-11.476 25.63-25.63v-42.23c0-14.155-11.475-25.63-25.63-25.63zm-93.55 262.632c30.584 0 45.43-14.85 52.277-26.057 1.607-2.63-.577-6.425-2.75-4.76-8.975 6.876-25.43 10.66-49.527 10.66-24.116 0-41.012-3.8-50.307-10.68-2.198-1.626-4.347 2.25-2.688 4.836 7.19 11.2 22.464 26 52.996 26z"/></svg>