<svg xmlns="http://www.w3.org/2000/svg" viewBox="0 0 512 512" enable-background="new 0 0 512 512"><path fill="#A9B8C2" d="M251.53 367.36c-5.67 2.46-9.17 5.664-9.17 9.8 0 13.794-10.862 49.902-32.097 49.902-21.318 0-26.507-13.722-33.28-44.43-1.75-7.94-4.66-15.564-8.653-22.582 16.665 6.25 35.337 9.752 55.056 9.752 9.673 0 19.09-.847 28.145-2.442zm125.563 2.442c-11.96 0-23.535-1.29-34.512-3.7 4.88 3.396 6.996 8.268 6.996 14.82 0 14.733-3.135 46.14 26.96 46.14 21.252 0 35.626-33.472 42.24-53.145 1.348-4.013 3.263-7.795 5.674-11.225-14.64 4.584-30.62 7.11-47.357 7.11z"/></svg>