<svg xmlns="http://www.w3.org/2000/svg" viewBox="0 0 512 512" enable-background="new 0 0 512 512"><path fill="#00B1FF" d="M427.133 104.478c6.816-24.205 18.67-51.283 28.713-72.077 7.656-15.852-5.02-34.164-22.52-32.262-63.416 6.892-97.463 29.54-114.68 46.853-1.572 1.58-2.746 3.36-3.738 5.21-17.014-5.175-35.06-7.98-53.765-7.98-96.162 0-175.105 73.575-183.695 167.497-8.436 28.997-31.31 44.773-51.37 55.633-21.904 11.857-8.41 34.16 23.32 37.33-16.896-2.13 134.536-6.754 195.465-15.76-3.42 19.39 3.6 43.04 5.178 49.502 1.08 4.42 2.44 8.682 4.13 11.97 1.48 2.906 3.096 5.76 4.958 8.46 1.8 2.723 4.023 5.223 6.2 7.633 4.484 4.765 9.662 8.815 14.853 11.984 2.577 1.59 5.2 2.944 7.725 4.066 2.35 1.19 4.7 2.108 6.743 2.82 1.885.776 3.793 1.214 4.967 1.563l1.846.517c3.378.946 7.106-.44 8.976-3.6l.976-1.65c.608-1.065 1.684-2.7 2.51-4.564.984-1.927 2.048-4.214 2.923-6.7 1.048-2.553 2.01-5.346 2.77-8.277 1.56-5.88 2.503-12.384 2.45-18.928-.093-3.246-.215-6.59-.797-9.802-.52-3.238-1.325-6.417-2.265-9.54-.662-2.237-1.446-4.42-2.322-6.548-.984-2.39-2.086-4.71-3.292-6.932-.325-.6-.658-1.193-.997-1.78-.08-.138-.13-.277-.19-.416-.06-.147-.125-.324-.195-.523-.47-1.65.233-3.268 1.506-4.182-.987-.21-2.005-.384-3.037-.54-1.844-5.69-4.968-14.658-9.846-22.807 13.028.283 35.624 3.087 42.96 6.642 23.78 11.52 38.768 30.66 38.768 56.398 0 15.073-5.523 28.84-14.653 39.41-6.578 7.618-15.466 12.558-25.12 14.888-.367.45-.732.905-1.112 1.345-9.76 11.304-24.57 16.86-39.498 16.45l-.082-.002c-2.637-.153-5.44-.094-8.348-.622-2.9-.47-5.943-.28-9.003-1.02-3.063-.617-6.25-.704-9.403-1.567-3.166-.704-6.43-1.146-9.61-2.175-3.26-.668-6.44-1.753-9.648-2.728-3.26-.824-6.278-2.3-9.47-3.184-2.98-1.36-6.14-2.264-8.95-3.593-2.874-1.207-5.7-2.292-8.236-3.49-5.123-2.3-9.55-4.346-12.64-5.8-1.553-.794-2.797-1.227-3.52-1.547-.76-.266-1.388-.68-1.35-.63-1.828-1.134-4.042-1.69-6.347-1.433-5.47.61-9.41 5.535-8.8 11.004l.314 2.83c.054.037.05.452.603 1.62.552 1.15 1.242 2.81 2.235 4.6.99 1.9 54.284 35.077 21.766 86.962-1.898 3.028-2.027 5.4-2.027 5.4-.286 1.004-.375 2.12-.2 3.218.645 4.018 4.424 6.753 8.442 6.11l.163-.027s2.106-.337 5.494-1.306c3.412-.932 8.095-2.467 13.415-4.607 10.648-4.272 23.498-11.343 35.124-19.528 5.876-3.998 11.454-8.283 16.49-12.394 2.524-1.963 4.906-4.134 7.086-6 2.184-1.826 4.25-3.902 6.014-5.472.888-.843 1.763-1.62 2.54-2.47l1.906-2.04c1.106-1.057 1.566-2.283 2.78-3.295.306-.248.612-.505.915-.767 3.802-3.286 8.482-5.313 13.414-6.276 90.97-17.763 159.63-97.884 159.63-194.054 0-58.373-25.31-110.822-65.536-147.018z"/></svg>