<?xml version="1.0" encoding="iso-8859-1"?>
<!-- Generator: Adobe Illustrator 18.1.0, SVG Export Plug-In . SVG Version: 6.00 Build 0)  -->
<!DOCTYPE svg PUBLIC "-//W3C//DTD SVG 1.1//EN" "http://www.w3.org/Graphics/SVG/1.1/DTD/svg11.dtd">
<svg version="1.1" xmlns="http://www.w3.org/2000/svg" xmlns:xlink="http://www.w3.org/1999/xlink" x="0px" y="0px"
	 viewBox="0 0 72 72" enable-background="new 0 0 72 72" xml:space="preserve">
<g id="Layer_4">
	<path fill="#E2A042" d="M63.299,59.49l-2.868,2.469c-1.681,1.447-4.217,1.258-5.665-0.423c-1.447-1.681-1.258-4.217,0.423-5.665
		l2.868-2.469c0.068-0.059,0.146-0.098,0.217-0.152c-0.874-0.209-1.892-0.419-2.405,0.023c-0.488,0.419-1.225,0.366-1.647-0.123
		c-0.421-0.488-0.366-1.226,0.123-1.647c1.208-1.04,2.79-1.414,4.455-1.048c1.713,0.373,3.437,1.519,4.983,3.317
		c0.123,0.143,0.193,0.308,0.236,0.479C65.112,55.913,64.846,58.159,63.299,59.49z M38.068,44.431c-3.144,0-5.693,2.549-5.693,5.693
		c0,3.144,2.549,4.295,5.693,4.295s5.693-1.151,5.693-4.295C43.761,46.98,41.212,44.431,38.068,44.431z M19.765,10.665
		c-0.753-0.608-1.858-0.488-2.464,0.265c-0.495,0.614-1.032,1.041-1.603,1.315l2.584-3.209c1.683-2.09,1.353-5.15-0.737-6.833
		s-5.15-1.353-6.833,0.737L7.839,6.507c-1.6,1.987-1.606,5.139,0.189,6.894c0.08,0.101,0.169,0.196,0.274,0.281
		c2.138,1.721,4.145,2.411,5.929,2.411c2.425,0,4.437-1.275,5.798-2.965C20.636,12.375,20.517,11.272,19.765,10.665z M24.986,59.838
		l-0.17-0.47l-0.126-1.061c-0.077-0.574-0.067-1.165-0.052-1.761c0.037-0.564,0.101-1.135,0.221-1.701
		c-1.814,1.422-4.127,2.838-6.678,3.829c-0.367,0.141-0.737,0.268-1.106,0.381l-0.55,0.155l-0.451,0.105l-0.668,0.098
		c-0.205,0.024-0.3,0.008-0.455,0.022c-0.28,0.006-0.668,0.001-0.993-0.059c-1.366-0.173-2.69-0.868-3.659-1.898
		C9.323,56.441,8.7,55.114,8.64,53.631l-0.033-0.342l0.041-0.194c0.024-0.126,0.041-0.252,0.049-0.38
		c-0.011-0.119,0.044-0.275,0.098-0.43l0.138-0.463c0.096-0.307,0.299-0.566,0.425-0.86c0.174-0.266,0.401-0.491,0.583-0.75
		c0.239-0.205,0.476-0.408,0.71-0.609c0.269-0.152,0.543-0.288,0.803-0.447c0.291-0.093,0.579-0.185,0.863-0.276l0.053-0.018
		l0.026-0.009l0.002,0l0.304-0.029l0.601-0.058c0.207,0.072,0.362,0.047,0.598,0.104c0.235,0.105,0.509,0.104,0.717,0.257
		c0.215,0.128,0.46,0.208,0.63,0.389c0.192,0.151,0.39,0.291,0.52,0.49c0.157,0.175,0.311,0.348,0.396,0.559
		c0.109,0.196,0.235,0.381,0.272,0.599l0.097,0.305l0.026,0.075l0.013,0.037l0.002,0.006l0.009,0.093
		c0.018,0.267,0.089,0.687,0.026,0.715c-0.013,0.173-0.099,0.549-0.227,0.805c-0.081,0.125-0.12,0.27-0.209,0.375
		c-0.091,0.103-0.172,0.206-0.246,0.308c-0.362,0.341-0.705,0.541-0.959,0.628c-0.259,0.073-0.394,0.129-0.394,0.129l-0.39,0.164
		c-0.7,0.294-1.105,1.058-0.924,1.821c0.201,0.849,1.053,1.375,1.902,1.173c0,0,0.312-0.074,0.89-0.246
		c0.568-0.188,1.385-0.592,2.208-1.371c0.188-0.21,0.382-0.437,0.58-0.679c0.195-0.243,0.336-0.543,0.508-0.837
		c0.3-0.619,0.546-1.274,0.608-2.234c0.057-0.534-0.005-0.699-0.016-1.032l-0.016-0.227l-0.025-0.184l-0.005-0.018l-0.009-0.037
		l-0.019-0.073l-0.039-0.148c-0.055-0.197-0.111-0.397-0.167-0.599c-0.093-0.413-0.294-0.796-0.501-1.189
		c-0.184-0.408-0.455-0.77-0.753-1.126c-0.271-0.381-0.628-0.689-1.002-0.997c-0.351-0.336-0.796-0.555-1.231-0.803
		c-0.425-0.271-0.939-0.369-1.425-0.546c-0.512-0.142-1.159-0.182-1.741-0.225l-0.602,0.043l-0.304,0.022l-0.153,0.011
		c-0.365,0.049-0.115,0.017-0.202,0.03l-0.023,0.006l-0.047,0.012l-0.094,0.025c-0.501,0.138-1.018,0.267-1.519,0.448
		c-0.478,0.239-0.969,0.479-1.44,0.754c-0.43,0.335-0.877,0.669-1.287,1.044c-0.361,0.422-0.754,0.834-1.072,1.3
		c-0.272,0.495-0.602,0.974-0.803,1.512l-0.278,0.823c-0.093,0.273-0.184,0.546-0.214,0.885c-0.044,0.323-0.081,0.65-0.11,0.976
		l-0.036,0.486l0.024,0.342c0.054,2.183,0.994,4.493,2.542,6.188c1.535,1.719,3.668,2.909,5.934,3.268
		c0.281,0.058,0.565,0.089,0.85,0.106c0.287,0.02,0.557,0.052,0.882,0.036c0.298-0.009,0.658-0.015,0.901-0.04l0.671-0.082
		l0.188-0.027l0.097-0.019l0.194-0.039l0.385-0.08c0.247-0.062,0.501-0.118,0.739-0.188c0.482-0.134,0.949-0.283,1.4-0.444
		c2.005-0.729,3.801-1.623,5.417-2.602C25.022,59.936,25,59.862,24.986,59.838z M20.436,21.212c0-1.334,0.38-2.578,1.02-3.686
		c-3.622,0.099-6.531,3.06-6.531,6.706c0,3.709,3.007,6.716,6.716,6.716c0.266,0,0.526-0.02,0.784-0.049
		C21.184,28.315,20.436,25.131,20.436,21.212z M54.947,17.516c-0.17,0-0.337,0.013-0.503,0.025c0.872,1.481,1.38,3.201,1.38,5.043
		c0,3.283-0.599,6.031-1.632,8.318c0.248,0.028,0.5,0.045,0.755,0.045c3.709,0,6.716-3.007,6.716-6.716S58.656,17.516,54.947,17.516
		z M29.263,12.672c2.648-0.27,5.109,0.5,7.03,1.949c1.07,0.807,2.507,0.804,3.577-0.002c1.666-1.256,3.738-2.002,5.986-2.002
		c3.318,0,6.249,1.627,8.06,4.12C51.622,10.234,45.44,5.565,38.151,5.565c-6.96,0-12.924,4.251-15.445,10.297
		C24.381,14.104,26.788,12.924,29.263,12.672z"/>
</g>
<g id="Layer_1">
</g>
</svg>
