<svg xmlns="http://www.w3.org/2000/svg" viewBox="0 0 512 512" enable-background="new 0 0 512 512"><path fill="#D1CFC3" d="M414.805 267.68c2.288-10.857 3.5-22.11 3.5-33.646C418.305 144.4 345.64 71.728 256 71.728c-89.642 0-162.306 72.674-162.306 162.306 0 11.57 1.22 22.852 3.52 33.735-14.053 14.56-35.78 30.37-41.143 77.073-.57 4.435-.962 8.924-.962 13.514 0 58.128 47.122 105.25 105.25 105.25.32 0 .66-.008 1.008-.02 10.94-.102 21.472-1.88 31.363-5.084 22.503-4.57 49.16-10.466 61.123-9.887 15.88.77 61.97 18.426 97.79 14.992l.004-.002c58.126-.002 105.246-47.123 105.246-105.25V346.98c0-44.653-26.03-62.15-42.087-79.3z"/></svg>