<?xml version="1.0" encoding="iso-8859-1"?>
<!-- Generator: Adobe Illustrator 18.1.0, SVG Export Plug-In . SVG Version: 6.00 Build 0)  -->
<!DOCTYPE svg PUBLIC "-//W3C//DTD SVG 1.1//EN" "http://www.w3.org/Graphics/SVG/1.1/DTD/svg11.dtd">
<svg version="1.1" xmlns="http://www.w3.org/2000/svg" xmlns:xlink="http://www.w3.org/1999/xlink" x="0px" y="0px"
	 viewBox="0 0 512 512" enable-background="new 0 0 512 512" xml:space="preserve">
<g id="Layer_2">
	<path fill="#FFA1E0" d="M464.142,414.089c0,0-0.462-0.297-1.358-0.872c-0.892-0.561-2.216-1.393-3.944-2.479
		c-3.461-2.173-8.603-5.186-15.26-8.887c-3.328-1.856-7.038-3.87-11.111-6.028c-4.07-2.172-8.511-4.446-13.311-6.755
		c-9.597-4.637-20.576-9.701-32.827-14.838c-12.241-5.221-25.787-10.227-40.459-15.154c-7.339-2.451-14.965-4.768-22.865-7.003
		c-3.879-1.142-8.122-2.202-12.357-3.29c-1.924-0.517-3.857-1.036-5.799-1.557c-0.954-0.259-1.911-0.518-2.869-0.777l-0.359-0.097
		c-0.219-0.016,0.235-0.033-0.536-0.048l-0.136-0.034l-0.543-0.137l-1.086-0.272c-11.586-2.749-21.596-8.347-27.23-14.273
		c-2.876-2.97-4.743-5.804-6.319-8.223c-1.588-2.436-2.931-4.598-4.885-6.982c-1.902-2.393-4.341-5.185-7.156-8.804
		c-1.372-1.821-2.726-3.88-4.222-6.076c-0.729-1.113-1.458-2.271-2.185-3.476c-0.71-1.221-1.456-2.46-2.231-3.739
		c-6.004-10.316-12.298-23.12-19.049-36.77c-3.392-6.83-6.876-13.897-10.571-21.049c-3.73-7.143-7.542-14.408-11.643-21.649
		c-4.122-7.233-8.498-14.457-13.319-21.5c-4.782-7.053-10.001-13.954-15.843-20.344c-5.848-6.367-12.245-12.291-19.072-17.195
		c-6.814-4.91-13.931-8.87-20.864-11.595c-3.406-1.368-6.757-2.459-9.987-3.312c0.233-1.248,0.453-2.515,0.639-3.806
		c0.37-2.414,0.661-4.892,0.858-7.394c0.216-2.5,0.295-5.03,0.298-7.539c0.006-2.51-0.146-5.009-0.384-7.444
		c-0.236-2.436-0.65-4.814-1.148-7.08c-0.492-2.267-1.18-4.421-1.913-6.406c-0.755-1.985-1.626-3.794-2.519-5.375
		c-0.443-0.791-0.929-1.515-1.351-2.191c-0.48-0.659-0.92-1.264-1.318-1.81c-0.872-1.063-1.583-1.889-2.131-2.417
		c-0.531-0.537-0.814-0.824-0.814-0.824c-0.227-0.226-0.501-0.473-0.761-0.675c-3.368-2.612-8.216-1.998-10.828,1.37
		s-1.998,8.216,1.37,10.828l0.18,0.14c0,0,0.151,0.117,0.435,0.338c0.299,0.198,0.698,0.569,1.23,1.036
		c0.254,0.262,0.535,0.551,0.841,0.867c0.283,0.358,0.618,0.713,0.943,1.147c0.654,0.863,1.361,1.918,2.05,3.189
		c0.671,1.283,1.376,2.736,1.97,4.404c0.597,1.661,1.175,3.477,1.623,5.44c0.449,1.96,0.856,4.031,1.128,6.187
		c0.274,2.154,0.497,4.373,0.59,6.619c0.113,2.244,0.141,4.509,0.088,6.747c-0.013,0.924-0.054,1.838-0.099,2.75
		c-0.175-0.026-0.355-0.059-0.529-0.083c-6.001-0.849-11.352-1.042-16.037-0.841c-2.521,0.086-4.844,0.283-6.99,0.53
		c0.021-0.634,0.048-1.259,0.061-1.908c0.028-2.302,0.035-4.691-0.081-7.126c-0.093-2.435-0.277-4.918-0.557-7.407
		c-0.26-2.49-0.662-4.984-1.133-7.444c-0.469-2.461-1.091-4.88-1.785-7.222c-0.692-2.342-1.549-4.594-2.467-6.721
		c-0.912-2.128-1.995-4.109-3.091-5.915c-1.117-1.802-2.315-3.411-3.492-4.791c-0.585-0.691-1.2-1.309-1.742-1.892
		c-0.596-0.555-1.144-1.064-1.639-1.525c-1.059-0.877-1.914-1.551-2.552-1.965c-0.624-0.426-0.957-0.653-0.957-0.653
		c-0.298-0.201-0.65-0.408-0.982-0.57c-3.836-1.863-8.456-0.263-10.318,3.573c-1.863,3.836-0.263,8.456,3.573,10.318l0.168,0.081
		c0,0,0.173,0.084,0.496,0.241c0.334,0.132,0.801,0.414,1.419,0.763c0.303,0.205,0.638,0.431,1.003,0.677
		c0.351,0.293,0.753,0.573,1.161,0.933c0.819,0.713,1.73,1.604,2.666,2.712c0.921,1.123,1.911,2.407,2.834,3.924
		c0.926,1.51,1.863,3.177,2.704,5.014c0.841,1.834,1.661,3.787,2.367,5.85c0.708,2.06,1.378,4.196,1.926,6.384
		c0.568,2.182,1.055,4.401,1.458,6.612c0.424,2.207,0.731,4.41,1.011,6.55c0.112,0.912,0.207,1.807,0.297,2.695
		c-0.745,0.151-1.458,0.305-2.13,0.458c-1.421,0.335-2.617,0.604-3.835,0.915c-1.18,0.302-2.222,0.568-3.122,0.799
		c-0.722,0.258-1.329,0.474-1.818,0.649c-0.977,0.353-1.481,0.535-1.481,0.535c-3.022,1.095-5.71,3.215-7.466,6.203
		c-4,6.808-1.724,15.571,5.084,19.571l4.115,2.418c0,0,0.134,0.079,0.397,0.233c0.264,0.161,0.655,0.376,1.171,0.652
		c0.515,0.272,1.16,0.642,1.918,1.021c0.636,0.395,1.373,0.853,2.207,1.37c1.656,1.047,3.779,2.248,6.04,3.634
		c2.263,1.432,4.734,2.961,7.195,4.75c2.475,1.707,4.909,3.712,7.16,5.728c1.101,1.076,2.203,2.051,3.178,3.194
		c0.51,0.531,0.987,1.081,1.467,1.623c0.455,0.576,0.918,1.128,1.345,1.716c1.747,2.301,3.135,4.883,4.322,7.815
		c1.183,2.938,2.178,6.265,3.04,10.189c1.718,7.818,2.865,18.03,3.547,30.369c0.392,6.149,0.76,12.793,1.081,19.933
		c0.368,7.128,0.852,14.708,1.567,22.754c1.484,16.086,3.876,34.026,9.6,53.961c2.888,9.947,6.627,20.439,11.828,31.206
		c5.104,10.789,11.837,21.844,20.557,32.219c8.664,10.375,19.436,19.858,31.322,27.307c2.955,1.883,5.992,3.618,9.066,5.222
		c3.062,1.628,6.172,3.122,9.308,4.455c6.242,2.747,12.604,4.848,18.834,6.613c12.494,3.532,24.638,5.126,35.972,5.851
		c2.852,0.192,5.63,0.268,8.401,0.345c2.739,0.022,5.471,0.051,8.125,0.025c5.339-0.033,10.51-0.267,15.515-0.657l1.875-0.146
		l0.935-0.074l0.234-0.019c-0.796-0.01-0.117-0.019-0.248-0.028l0.361-0.055c0.961-0.148,1.921-0.295,2.878-0.442
		c1.873-0.29,3.738-0.579,5.594-0.867c3.233-0.527,6.35-1.092,9.82-1.542c6.765-0.992,13.448-1.706,20.007-2.47
		c6.559-0.748,12.989-1.322,19.241-1.83c3.135-0.222,6.217-0.441,9.242-0.655c3.036-0.224,6.022-0.415,8.953-0.577
		c5.863-0.34,11.503-0.57,16.883-0.738c5.39-0.225,10.51-0.334,15.335-0.418c4.834-0.052,9.357-0.101,13.54-0.145
		c4.19-0.023,8.043-0.008,11.512,0.042c6.947,0.089,12.365,0.311,16.018,0.372c3.656,0.098,5.459,0.171,5.241,0.105
		c8.082,2.401,16.581-2.204,18.982-10.286C476.83,424.989,472.224,416.491,464.142,414.089z"/>
</g>
<g id="Layer_1">
</g>
</svg>
