<?xml version="1.0" encoding="iso-8859-1"?>
<!-- Generator: Adobe Illustrator 18.1.0, SVG Export Plug-In . SVG Version: 6.00 Build 0)  -->
<!DOCTYPE svg PUBLIC "-//W3C//DTD SVG 1.1//EN" "http://www.w3.org/Graphics/SVG/1.1/DTD/svg11.dtd">
<svg version="1.1" xmlns="http://www.w3.org/2000/svg" xmlns:xlink="http://www.w3.org/1999/xlink" x="0px" y="0px"
	 viewBox="0 0 512 512" enable-background="new 0 0 512 512" xml:space="preserve">
<g id="Layer_3">
	<path fill="#AF773F" d="M458.675,232.346c0,12.348-4.53,26.494-12.852,41.123l0,0c-1.795,3.155-3.758,6.331-5.899,9.517
		c-25.224,43.994-18.862,82.958-7.192,104.872c10.535,19.783-4.748,58.06-9.826,69.633c-0.913,2.081-2.765,3.395-4.795,3.395
		h-12.807c-3.753,0-6.348-4.303-5.018-8.33c5.355-16.219,16.53-39.585,16.53-51.489c0-10.704-22.85-33.436-37.306-67.885
		c-0.554,24.888-1.857,49.166-2.076,62.504c-0.369,22.41-10.396,50.232-15.474,61.805c-0.913,2.081-2.765,3.395-4.795,3.395h-12.807
		c-3.753,0-6.348-4.303-5.018-8.33c5.355-16.219,16.53-39.585,16.53-51.489c0-13.57-12.233-53.733-36.731-100.977
		c-20.403-2.709-42.288,0.655-64.938,3.286c-9.466,27.339-18.033,91.415-15.781,101.548c2.058,9.262,8.656,34.411,12.006,47.083
		c1.004,3.798-1.861,7.512-5.79,7.512H229.32c-3.533,0-6.272-3.038-5.959-6.557c1.039-11.693-0.639-32.525-1.308-35.922
		c-1.884-9.57-5.784-26.946-3.23-38.714c2.243-10.336,4.78-27.539-12.284-60.617c-8.845,24.22-16.054,77.246-13.839,87.215
		c2.058,9.262,8.656,34.411,12.006,47.083c1.004,3.798-1.861,7.512-5.79,7.512h-15.317c-3.533,0-6.272-3.038-5.959-6.557
		c1.039-11.693-0.639-32.525-1.308-35.922c-1.884-9.57-5.784-26.946-3.23-38.714c3.067-14.133,6.692-41.099-40.014-103.949
		c-38.824-38.662,2.326-81.736-37.145-100.457c-20.798-9.864-58.327-2.586-73.469-2.586c-23.053,0-17.572-14.347-13.613-22.815
		c11.715-25.061,38.762-33.461,46.155-33.461c18.574,0,26.536-22.041,49.559-22.041c3.751,0,8.884,1.975,14.429,5.419
		c0.527-0.251,1.061-0.492,1.616-0.695c5.025-2.453,12.339-4.877,21.942-4.687c3.069-0.154,5.809,0.176,8.197,0.727
		c0.025,0.019,0.054,0.011,0.096,0.015l0.004,0.017c2.694,0.652,5.227,1.76,6.999,2.648c1.433,0.719,2.241,2.609,1.754,4.154
		c-0.814,2.578-2.365,6.505-4.993,9.822l-0.001,0.035c0,0-0.167,0.19-0.219,0.267c-0.103,0.119-0.198,0.227-0.29,0.35
		c-1.355,1.564-5.559,6.095-11.432,10.043c6.027,8.554,10.488,18.394,11.406,28.546l0.055-0.091
		C185,243.896,199.024,38.158,248.356,38.158c21.201,0,31.134,46.156,50.732,46.156c19.598,0,29.397-61.555,65.794-61.555
		c36.397,0,14,72.569,46.197,124.235C432.034,180.619,458.675,184.835,458.675,232.346z M492.107,275.266
		c-2.505,1.343-3.447,4.462-2.104,6.966l0.032,0.06c0,0,0.073,0.136,0.209,0.391c0.072,0.124,0.16,0.277,0.264,0.457l0.078,0.138
		l0.014,0.096c0.008,0.066,0.022,0.131,0.037,0.198c0.032,0.139,0.053,0.265,0.112,0.427c0.091,0.238,0.187,0.496,0.302,0.758
		c0.229,0.503,0.465,1.198,0.764,1.856c0.255,0.729,0.601,1.454,0.894,2.294c0.33,0.811,0.648,1.684,0.984,2.584
		c0.347,0.894,0.656,1.841,1.006,2.786c0.293,0.963,0.683,1.918,0.942,2.904c0.358,0.969,0.572,1.959,0.88,2.926
		c0.294,0.972,0.499,1.929,0.814,2.869c0.21,0.936,0.484,1.856,0.729,2.742c0.19,0.88,0.435,1.737,0.656,2.546
		c0.161,0.798,0.357,1.557,0.545,2.25c0.197,0.694,0.284,1.297,0.432,1.821c0.238,1.036,0.463,1.69,0.463,1.69l0.068,0.201
		c0.093,0.268,0.248,0.519,0.465,0.73c0.747,0.728,1.942,0.714,2.671-0.033c0,0,0.489-0.502,1.191-1.487
		c0.345-0.493,0.826-1.098,1.191-1.84c0.379-0.739,0.792-1.596,1.189-2.56c0.359-0.963,0.657-2.033,0.955-3.187
		c0.252-1.149,0.416-2.378,0.554-3.662c0.041-0.636,0.052-1.284,0.061-1.943c0.017-0.66,0.025-1.332-0.048-1.992
		c-0.083-1.334-0.25-2.685-0.498-4.011c-0.235-1.335-0.568-2.639-0.942-3.913c-0.383-1.269-0.832-2.494-1.32-3.658
		c-0.26-0.575-0.516-1.141-0.767-1.695c-0.268-0.546-0.568-1.068-0.841-1.58c-0.543-1.02-1.189-1.951-1.755-2.798
		c-0.644-0.849-1.181-1.594-1.808-2.257c-0.294-0.332-0.582-0.632-0.845-0.908c-0.321-0.334-0.663-0.653-0.952-0.922
		c-0.148-0.133-0.289-0.26-0.421-0.378c-0.067-0.057-0.132-0.113-0.195-0.167l-0.138-0.089c-0.175-0.111-0.323-0.205-0.444-0.282
		c-0.248-0.146-0.38-0.224-0.38-0.224C495.657,274.492,493.747,274.387,492.107,275.266z"/>
</g>
<g id="Layer_1">
</g>
</svg>
