<?xml version="1.0" encoding="iso-8859-1"?>
<!-- Generator: Adobe Illustrator 18.1.0, SVG Export Plug-In . SVG Version: 6.00 Build 0)  -->
<!DOCTYPE svg PUBLIC "-//W3C//DTD SVG 1.1//EN" "http://www.w3.org/Graphics/SVG/1.1/DTD/svg11.dtd">
<svg version="1.1" xmlns="http://www.w3.org/2000/svg" xmlns:xlink="http://www.w3.org/1999/xlink" x="0px" y="0px"
	 viewBox="0 0 512 512" enable-background="new 0 0 512 512" xml:space="preserve">
<g id="Layer_3">
	<path fill="#BFBCAF" d="M138.528,337.58c-17.407,0-68.742-17.691-100.277-48.126c-2.91-2.808-5.651-5.725-8.181-8.746
		c-3.422-4.086-6.459-8.364-9.006-12.823c-9.302-16.287-37.703-89.765,4.451-120.789c26.204-19.285,93.171-50.079,117.444-50.079
		c48.545,0,83.468,65.134,83.468,127.549S187.073,337.58,138.528,337.58z M373.472,337.58c17.407,0,68.742-17.691,100.277-48.126
		c2.91-2.808,5.651-5.725,8.181-8.746c3.422-4.086,6.459-8.364,9.006-12.823c9.302-16.287,37.703-89.765-4.451-120.789
		c-26.204-19.285-93.171-50.079-117.444-50.079c-48.545,0-83.468,65.134-83.468,127.549S324.927,337.58,373.472,337.58z"/>
</g>
<g id="Layer_1">
</g>
</svg>
