<?xml version="1.0" encoding="iso-8859-1"?>
<!-- Generator: Adobe Illustrator 18.1.0, SVG Export Plug-In . SVG Version: 6.00 Build 0)  -->
<!DOCTYPE svg PUBLIC "-//W3C//DTD SVG 1.1//EN" "http://www.w3.org/Graphics/SVG/1.1/DTD/svg11.dtd">
<svg version="1.1" xmlns="http://www.w3.org/2000/svg" xmlns:xlink="http://www.w3.org/1999/xlink" x="0px" y="0px"
	 viewBox="0 0 512 512" enable-background="new 0 0 512 512" xml:space="preserve">
<g id="Layer_2">
	<path fill="#D1CFC3" d="M499.404,282.36c-0.912-1.301-1.935-2.77-3.041-4.36H348.044H127.161H15.044
		c-1.107,1.59-2.129,3.059-3.041,4.36c-3.12,4.45-3.435,14.312-0.798,19.064c2.949,5.313,24.296,6.611,27.202,11.576
		c3.533,6.036-22.39,9.653-18.882,15.191c47.578,75.096,103.877,110.018,204.315,115.801c9.196,0.591,19.736,0.874,31.864,0.874h0
		l0,0h0h0c9.841,0,18.44-0.187,25.964-0.573c104.147-4.746,161.713-39.549,210.214-116.102c3.508-5.538-22.415-9.154-18.882-15.191
		c2.906-4.965,24.253-6.263,27.202-11.576C502.84,296.672,502.525,286.809,499.404,282.36z"/>
</g>
<g id="Layer_3">
	<path fill="#597B91" d="M495.828,278c-15.138-27.649-29.702-53.335-45.294-76.218c13.25-15.81,23.075-34.894,28.032-56.372
		c11.201-48.537-5.258-96.991-39.047-128.877c-2.26-2.133-5.589-2.898-8.553-1.966c-43.054,13.529-74.171,48.213-85.996,95.129
		c-25.121-9.927-54.333-15.343-89.329-15.343c-36.925,0-67.41,6.031-93.446,17.028c-11.498-47.771-42.842-83.125-86.41-96.815
		c-2.965-0.932-6.293-0.167-8.553,1.966C33.442,48.419,16.983,96.873,28.184,145.41c5.268,22.828,16.031,42.956,30.566,59.318
		C43.907,226.861,29.943,251.533,15.453,278h66.375c-0.22,2.267-0.339,4.563-0.339,6.887c0,38.991,31.608,70.599,70.599,70.599
		c37.553,0,68.245-29.324,70.458-66.321c0.014-1.61,0.052-3.312,0.121-5.081c-0.024-2.049-0.125-4.08-0.319-6.085h0.671
		c1.732-22.181,9.01-50.5,34.884-50.5c25.875,0,32.926,28.319,34.482,50.5h0.576c-0.168,1.736-0.256,3.495-0.298,5.265
		c0.075,2.096,0.107,4.104,0.107,5.987c2.256,36.956,32.928,66.235,70.452,66.235c38.991,0,70.599-31.608,70.599-70.599
		c0-2.324-0.12-4.62-0.339-6.887H495.828z"/>
</g>
<g id="Layer_4">
	<path fill="#BFBCAF" d="M292.768,289.252c0-0.885-0.008-1.802-0.024-2.738c-0.002-0.121-0.004-0.243-0.007-0.365
		c-0.017-0.921-0.041-1.862-0.075-2.824c-0.063-1.784-0.159-3.634-0.295-5.528c-0.042-0.587-0.087-1.178-0.137-1.773
		c-0.01-0.114-0.02-0.228-0.03-0.342c-0.051-0.587-0.105-1.176-0.164-1.769c-0.006-0.059-0.011-0.117-0.017-0.176
		c-0.063-0.627-0.133-1.258-0.206-1.89c-0.014-0.123-0.028-0.246-0.043-0.369c-0.074-0.622-0.152-1.246-0.236-1.871
		c-0.016-0.116-0.032-0.232-0.048-0.348c-0.089-0.652-0.183-1.306-0.284-1.96c-0.003-0.02-0.006-0.039-0.01-0.059
		c-0.1-0.648-0.208-1.296-0.321-1.944c-0.017-0.098-0.034-0.197-0.051-0.295c-0.113-0.638-0.232-1.277-0.357-1.914
		c-0.022-0.114-0.045-0.227-0.068-0.341c-0.13-0.649-0.265-1.298-0.408-1.944c-0.012-0.055-0.025-0.11-0.037-0.164
		c-0.143-0.641-0.294-1.281-0.451-1.917c-0.014-0.058-0.028-0.117-0.043-0.175c-0.16-0.641-0.329-1.279-0.504-1.914
		c-0.029-0.106-0.058-0.211-0.088-0.317c-0.176-0.629-0.359-1.256-0.551-1.877c-0.024-0.08-0.05-0.159-0.075-0.238
		c-0.2-0.642-0.407-1.28-0.624-1.912c-0.002-0.006-0.004-0.011-0.006-0.017c-0.216-0.629-0.444-1.25-0.678-1.867
		c-0.034-0.091-0.068-0.182-0.103-0.272c-0.229-0.595-0.467-1.184-0.713-1.766c-0.038-0.09-0.077-0.18-0.116-0.269
		c-0.257-0.599-0.521-1.192-0.796-1.775c-0.006-0.013-0.013-0.026-0.019-0.039c-0.274-0.578-0.56-1.147-0.853-1.708
		c-0.037-0.07-0.072-0.141-0.109-0.211c-0.289-0.546-0.589-1.083-0.897-1.611c-0.052-0.089-0.105-0.178-0.157-0.267
		c-0.314-0.529-0.636-1.05-0.969-1.559c-0.034-0.051-0.068-0.101-0.102-0.152c-0.332-0.501-0.673-0.992-1.025-1.471
		c-0.03-0.041-0.059-0.083-0.089-0.123c-0.358-0.484-0.728-0.954-1.107-1.414c-0.065-0.079-0.131-0.159-0.196-0.237
		c-0.377-0.45-0.764-0.889-1.163-1.314c-0.059-0.063-0.12-0.125-0.18-0.188c-0.417-0.438-0.842-0.865-1.283-1.275
		c-0.002-0.002-0.004-0.004-0.006-0.006c-0.438-0.407-0.891-0.796-1.353-1.174c-0.075-0.061-0.148-0.123-0.224-0.183
		c-0.448-0.359-0.908-0.703-1.378-1.034c-0.085-0.059-0.171-0.117-0.256-0.176c-0.486-0.333-0.982-0.654-1.493-0.955
		c-0.035-0.021-0.071-0.039-0.107-0.06c-0.498-0.29-1.009-0.563-1.531-0.822c-0.076-0.038-0.15-0.077-0.226-0.114
		c-0.528-0.256-1.07-0.492-1.623-0.714c-0.107-0.043-0.214-0.085-0.321-0.126c-0.559-0.216-1.129-0.418-1.714-0.598
		c-0.08-0.025-0.162-0.047-0.243-0.071c-0.576-0.172-1.163-0.328-1.764-0.465c-0.057-0.013-0.113-0.029-0.171-0.041
		c-0.621-0.137-1.259-0.251-1.907-0.349c-0.123-0.019-0.246-0.038-0.37-0.055c-0.641-0.089-1.295-0.16-1.963-0.21
		c-0.117-0.009-0.237-0.014-0.355-0.022c-0.703-0.045-1.416-0.074-2.149-0.074c-0.733,0-1.446,0.03-2.15,0.074
		c-0.118,0.008-0.238,0.013-0.355,0.022c-0.668,0.05-1.323,0.12-1.965,0.21c-0.124,0.017-0.247,0.036-0.371,0.055
		c-0.649,0.098-1.288,0.212-1.91,0.349c-0.058,0.013-0.114,0.028-0.171,0.041c-0.602,0.137-1.19,0.293-1.767,0.465
		c-0.081,0.024-0.164,0.046-0.244,0.071c-0.586,0.181-1.157,0.382-1.718,0.599c-0.107,0.041-0.215,0.083-0.321,0.126
		c-0.555,0.222-1.099,0.459-1.63,0.715c-0.076,0.037-0.151,0.076-0.227,0.114c-0.524,0.259-1.038,0.532-1.538,0.822
		c-0.035,0.02-0.072,0.039-0.107,0.06c-0.514,0.301-1.012,0.623-1.501,0.956c-0.086,0.058-0.172,0.116-0.257,0.175
		c-0.474,0.33-0.936,0.675-1.387,1.034c-0.076,0.06-0.15,0.122-0.224,0.183c-0.465,0.378-0.922,0.767-1.363,1.175
		c-0.002,0.002-0.003,0.003-0.005,0.005c-0.444,0.41-0.873,0.838-1.293,1.275c-0.061,0.063-0.122,0.125-0.182,0.189
		c-0.401,0.425-0.792,0.864-1.172,1.313c-0.067,0.079-0.133,0.159-0.199,0.239c-0.383,0.46-0.757,0.93-1.118,1.414
		c-0.03,0.041-0.059,0.082-0.09,0.123c-0.356,0.48-0.701,0.971-1.036,1.471c-0.034,0.051-0.069,0.101-0.103,0.152
		c-0.337,0.508-0.663,1.029-0.981,1.557c-0.054,0.09-0.108,0.18-0.162,0.271c-0.312,0.527-0.615,1.062-0.907,1.607
		c-0.039,0.072-0.076,0.145-0.114,0.217c-0.297,0.559-0.585,1.125-0.863,1.701c-0.007,0.015-0.015,0.029-0.022,0.044
		c-0.28,0.582-0.548,1.174-0.809,1.772c-0.039,0.09-0.079,0.18-0.118,0.271c-0.25,0.581-0.492,1.169-0.726,1.763
		c-0.036,0.092-0.072,0.185-0.107,0.278c-0.238,0.615-0.47,1.235-0.691,1.863c-0.003,0.008-0.005,0.015-0.008,0.023
		c-0.221,0.628-0.432,1.263-0.636,1.901c-0.026,0.083-0.054,0.165-0.08,0.248c-0.196,0.62-0.383,1.245-0.564,1.872
		c-0.03,0.106-0.06,0.211-0.09,0.317c-0.18,0.635-0.354,1.274-0.519,1.915c-0.015,0.058-0.029,0.116-0.044,0.174
		c-0.162,0.635-0.317,1.272-0.465,1.911c-0.013,0.058-0.028,0.116-0.041,0.174c-0.148,0.646-0.289,1.294-0.423,1.942
		c-0.023,0.113-0.047,0.225-0.07,0.338c-0.13,0.639-0.255,1.278-0.373,1.918c-0.018,0.096-0.035,0.192-0.052,0.288
		c-0.119,0.653-0.233,1.307-0.339,1.96c-0.002,0.015-0.005,0.03-0.008,0.045c-0.107,0.659-0.206,1.316-0.302,1.973
		c-0.016,0.11-0.032,0.221-0.048,0.331c-0.089,0.628-0.173,1.254-0.252,1.878c-0.016,0.124-0.031,0.247-0.046,0.37
		c-0.078,0.633-0.153,1.264-0.221,1.892c-0.006,0.054-0.011,0.108-0.017,0.163c-0.064,0.598-0.124,1.193-0.18,1.785
		c-0.011,0.111-0.022,0.223-0.032,0.334c-0.055,0.598-0.105,1.192-0.152,1.783c-0.172,2.166-0.291,4.274-0.369,6.293
		c-0.034,0.87-0.06,1.724-0.08,2.559c0,0.014-0.001,0.029-0.001,0.044c-0.02,0.843-0.033,1.666-0.04,2.466
		c-1.539,25.734-16.864,47.742-38.685,58.765v76.055c0,41.469,32.137,75.087,71.779,75.087c39.643,0,71.779-33.618,71.779-75.087
		v-78.251C307.782,334.15,294.239,313.335,292.768,289.252z"/>
</g>
<g id="Layer_5">
	<path fill="#2B3B47" d="M233.476,433.41c0,0,0.695,0.044,1.91,0.122c1.216,0.053,2.952,0.165,5.036,0.235
		c2.084,0.059,4.515,0.15,7.12,0.206c2.605,0.026,5.383,0.055,8.162,0.083c2.778,0.031,5.557-0.047,8.162-0.063
		c2.605-0.003,5.036-0.137,7.12-0.196c2.084-0.053,3.82-0.195,5.036-0.252c1.216-0.071,1.91-0.135,1.91-0.135
		c9.036-0.836,17.039,5.812,17.875,14.849c0.443,4.785-1.214,9.281-4.212,12.576l-13.663,14.891c0,0-0.043,0.047-0.128,0.139
		c-0.084,0.09-0.209,0.235-0.372,0.385c-0.326,0.307-0.803,0.802-1.411,1.306c-0.608,0.52-1.346,1.08-2.192,1.675
		c-0.847,0.567-1.802,1.159-2.844,1.709c-1.042,0.543-2.171,1.057-3.364,1.506c-1.194,0.449-2.453,0.811-3.755,1.13
		c-2.605,0.608-5.383,0.817-8.162,0.72c-1.389-0.056-2.778-0.177-4.146-0.368c-1.367-0.179-2.713-0.485-4.016-0.81
		c-0.651-0.136-1.292-0.366-1.918-0.55c-0.627-0.177-1.24-0.406-1.837-0.634c-0.597-0.21-1.178-0.446-1.739-0.706
		c-0.562-0.24-1.104-0.485-1.625-0.761c-0.521-0.259-1.02-0.512-1.495-0.794c-0.475-0.266-0.925-0.524-1.348-0.804
		c-0.847-0.526-1.585-1.046-2.192-1.516c-0.608-0.449-1.085-0.901-1.411-1.163c-0.326-0.287-0.499-0.465-0.499-0.465l-13.224-13.588
		c-6.527-6.706-6.381-17.434,0.325-23.961C224.134,434.716,228.885,433.136,233.476,433.41z M153.376,236.438
		c-14.74,0-26.689,11.949-26.689,26.689v39.726c0,14.74,11.949,26.689,26.689,26.689l0,0c14.74,0,26.689-11.949,26.689-26.689
		v-39.726C180.065,248.386,168.116,236.438,153.376,236.438L153.376,236.438z M361.351,236.438
		c-14.74,0-26.689,11.949-26.689,26.689v39.726c0,14.74,11.949,26.689,26.689,26.689l0,0c14.74,0,26.689-11.949,26.689-26.689
		v-39.726C388.04,248.386,376.091,236.438,361.351,236.438L361.351,236.438z M374.631,124.556
		c12.882-62.767,49.64-100.64,58.986-109.428c0.515-0.484-0.033-1.357-0.71-1.156c-43.591,12.92-78.916,47.635-92.126,94.12
		C352.952,112.578,364.174,118.099,374.631,124.556z M132.626,127.113c10.427-6.806,21.623-12.657,33.776-17.453
		c-12.855-47.272-48.479-82.623-92.558-95.689c-0.677-0.201-1.225,0.672-0.71,1.156C82.606,24.035,120.234,62.818,132.626,127.113z"
		/>
</g>
</svg>
