<svg xmlns="http://www.w3.org/2000/svg" viewBox="0 0 512 512" enable-background="new 0 0 512 512"><path fill="#E89E34" d="M104.41 67.623l1.798-1.395c.51-.41 1.082-.866 1.71-1.37.678-.534 1.445-1.135 2.238-1.728 1.42-.983 3.027-2.137 4.926-3.28 3.76-2.327 8.516-4.85 14.236-7 5.707-2.158 12.396-3.92 19.754-4.684 1.833-.23 3.715-.3 5.62-.408 1.907-.025 3.846-.08 5.803.027.49.02.98.043 1.473.064l.74.034c-.27-.007 2.71.073 1.475.043l.06.01.12.017.24.037 1.946.3 1.973.302 1.123.176 1.796.31c2.384.437 4.85.93 7.185 1.512 2.028.632 4.067 1.3 6.105 2 1.028.32 2.016.78 3.016 1.21l2.993 1.33c2.02.844 3.92 1.985 5.848 3.07 7.66 4.444 14.68 10.327 20.434 17.31 5.764 6.97 10.26 15.04 13.113 23.573 2.892 8.52 4.007 17.515 3.57 26.06l-.054 1.6-.006.2-.03 1.083-.01.072-.045.288-.088.576-.352 2.295-.174 1.142-.088.57-.047.3-.08.44c-.217 1.174-.45 2.34-.694 3.5-.244 1.155-.502 2.3-.77 3.434-.28 1.098-.628 1.994-.945 2.99-.676 1.93-1.24 3.868-2.12 5.675l-1.233 2.714c-.42.893-.798 1.796-1.31 2.632-.964 1.697-1.928 3.364-2.905 4.984-1.088 1.557-2.178 3.08-3.263 4.562-.52.758-1.146 1.43-1.733 2.12l-1.776 2.028c-1.14 1.368-2.435 2.557-3.69 3.736-1.25 1.18-2.464 2.346-3.806 3.33-1.314 1.014-2.576 2.03-3.873 2.944-1.34.85-2.654 1.68-3.94 2.497-1.26.845-2.634 1.45-3.914 2.12l-1.916.957-.94.462-.965.385c-2.57.99-4.943 2.007-7.317 2.58-1.166.32-2.295.626-3.385.923-1.094.266-2.178.413-3.2.604l-2.943.495c-.933.16-1.848.17-2.7.25-1.71.112-3.225.248-4.543.27-1.317-.04-2.438-.072-3.346-.098l-2.763-.106c-6.224-.237-11.076-5.476-10.838-11.7.204-5.352 4.107-9.69 9.154-10.648l1.683-.318 1.757-.334 2.085-.37c.81-.193 1.72-.508 2.734-.787.503-.163 1.05-.253 1.587-.49l1.685-.695c.578-.25 1.196-.445 1.8-.748.595-.32 1.21-.65 1.847-.99 1.302-.585 2.52-1.55 3.85-2.386l.496-.324.467-.393.948-.784c.627-.543 1.33-.99 1.904-1.65.604-.613 1.22-1.224 1.85-1.833.588-.658 1.13-1.384 1.716-2.066.615-.654 1.096-1.453 1.61-2.22.516-.768 1.075-1.506 1.476-2.375l.67-1.246c.22-.418.484-.81.638-1.27.357-.89.727-1.773 1.113-2.645.273-.932.545-1.86.84-2.773.18-.445.227-.943.325-1.418.094-.473.19-.95.283-1.427.263-.925.236-1.936.36-2.893.03-.463.14-1.007.12-1.395-.04-.36-.068-.71-.083-1.057-.015-.345-.017-.685-.005-1.02l.005-.127-.013-.276-.03-.577-.06-1.155-.12-2.32-.03-.58-.014-.29-.004-.074c-.05 1.95-.02.515-.034.938l-.022-.09-.17-.72c-.715-3.838-2.097-7.43-4.12-10.524-1.997-3.102-4.534-5.73-7.32-7.733-2.787-2.01-5.806-3.378-8.73-4.148-.743-.166-1.42-.443-2.175-.477-.364-.047-.72-.1-1.07-.158-.353-.053-.687-.15-1.053-.125-.715-.007-1.4-.04-2.06-.1-.402.112-.655.23-.945.245-1.04.05-2.067.102-3.08.152l-1.964.1-.242.013-.122.006-.06.002c-1.275-.03 1.664.044 1.354.04l-.225.06-.444.113c-.59.114-1.144.337-1.69.476-.53.224-1.055.356-1.54.597-1.965.818-3.556 1.83-4.834 2.847-1.282 1.007-2.253 2.01-2.982 2.875-.38.41-.656.846-.93 1.17-.023.1 0 .152-.01.21l-.006.072c-.01.028.036-.006-.137.19-.964 1.13-1.48 1.73-1.48 1.73-11.512 13.463-31.76 15.042-45.222 3.53-13.463-11.515-15.042-31.762-3.53-45.225 1.405-1.64 3.08-3.207 4.716-4.493z"/></svg>