<?xml version="1.0" encoding="iso-8859-1"?>
<!-- Generator: Adobe Illustrator 19.1.0, SVG Export Plug-In . SVG Version: 6.00 Build 0)  -->
<!DOCTYPE svg PUBLIC "-//W3C//DTD SVG 1.1//EN" "http://www.w3.org/Graphics/SVG/1.1/DTD/svg11.dtd">
<svg version="1.1" xmlns="http://www.w3.org/2000/svg" xmlns:xlink="http://www.w3.org/1999/xlink" x="0px" y="0px"
	 viewBox="0 0 512 512" enable-background="new 0 0 512 512" xml:space="preserve">
<g id="Layer_6">
	<path fill="#5A7B90" d="M145.466,318.623c-5.471-7.539-6.566-18.212-2.776-27.066l3.197-7.466
		c3.79-8.863,11.72-14.171,20.119-13.473l28.211,2.346c10.681,0.885,19.129,11.143,19.413,23.755
		c0.219,9.739-1.542,19.681-5.527,28.998c-3.985,9.309-9.723,16.889-16.499,22.473c-8.774,7.232-20.801,5.34-27.765-4.253
		L145.466,318.623 M414.979,308.536l14.47,7.134l38.413,18.942c5.283,2.606,11.361,1.023,15.29-3.888
		c14.162-17.684,22.847-41.521,22.847-67.759c0-26.23-8.685-50.067-22.847-67.751c-3.928-4.91-10.006-6.493-15.29-3.888
		l-36.432,17.968l-16.963,8.359"/>
</g>
<g id="Layer_1">
</g>
</svg>
