<?xml version="1.0" encoding="iso-8859-1"?>
<!-- Generator: Adobe Illustrator 18.1.0, SVG Export Plug-In . SVG Version: 6.00 Build 0)  -->
<!DOCTYPE svg PUBLIC "-//W3C//DTD SVG 1.1//EN" "http://www.w3.org/Graphics/SVG/1.1/DTD/svg11.dtd">
<svg version="1.1" xmlns="http://www.w3.org/2000/svg" xmlns:xlink="http://www.w3.org/1999/xlink" x="0px" y="0px"
	 viewBox="0 0 512 512" enable-background="new 0 0 512 512" xml:space="preserve">
<g id="Layer_5">
	<path fill="#E5E4DF" d="M328.514,105.799c0.006-0.235,0.018-0.469,0.018-0.706V72.189c0-14.784-11.984-26.768-26.768-26.768
		c-14.784,0-26.768,11.984-26.768,26.768v32.904c0,0.237,0.012,0.472,0.018,0.707c-0.523,2.122-0.806,4.338-0.806,6.621
		c0,9.814-7.983,17.798-17.798,17.798s-17.799-7.984-17.799-17.798c0-2.283-0.283-4.498-0.806-6.619
		c0.006-0.236,0.018-0.472,0.018-0.71V72.189c0-14.784-11.984-26.768-26.768-26.768s-26.768,11.984-26.768,26.768v32.904
		c0,0.237,0.012,0.472,0.018,0.708c-0.523,2.121-0.806,4.338-0.806,6.621c0,40.203,32.708,72.911,72.911,72.911
		s72.911-32.708,72.911-72.911C329.32,110.138,329.037,107.921,328.514,105.799z"/>
</g>
<g id="Layer_1">
</g>
</svg>
