<?xml version="1.0" encoding="iso-8859-1"?>
<!-- Generator: Adobe Illustrator 18.1.0, SVG Export Plug-In . SVG Version: 6.00 Build 0)  -->
<!DOCTYPE svg PUBLIC "-//W3C//DTD SVG 1.1//EN" "http://www.w3.org/Graphics/SVG/1.1/DTD/svg11.dtd">
<svg version="1.1" xmlns="http://www.w3.org/2000/svg" xmlns:xlink="http://www.w3.org/1999/xlink" x="0px" y="0px"
	 viewBox="0 0 512 512" enable-background="new 0 0 512 512" xml:space="preserve">
<g id="Layer_2">
	<path fill="#FFA1E0" d="M112.816,293.123c0,0-1.414,0.008-4.064,0.023c-0.693-0.007-1.338,0.031-2.071,0.064
		c-0.733,0.031-1.533,0.065-2.397,0.102c-0.858,0.025-1.84,0.139-2.855,0.211c-1.023,0.083-2.112,0.157-3.249,0.314
		c-4.566,0.506-10.081,1.419-16.144,3.187c-6.043,1.758-12.702,4.38-18.94,8.485c-3.11,2.045-6.101,4.461-8.692,7.28
		c-2.587,2.813-4.797,6.029-6.141,9.572c-2.925,7.02-2.027,15.364,2.65,23.123c2.286,3.878,5.394,7.577,9.021,10.971
		c3.628,3.401,7.763,6.508,12.172,9.363c4.409,2.857,9.095,5.482,13.988,7.825c2.41,1.232,4.937,2.282,7.421,3.414
		c2.536,1.036,5.054,2.121,7.636,3.079c20.608,7.824,42.492,12.797,63.155,16.312c10.34,1.783,20.424,3.097,30.005,4.207
		c2.398,0.263,4.763,0.523,7.093,0.779c2.331,0.249,4.633,0.44,6.894,0.657c4.521,0.449,8.9,0.778,13.105,1.097
		c4.202,0.352,8.24,0.566,12.078,0.81c3.837,0.259,7.483,0.419,10.91,0.578c6.851,0.362,12.834,0.497,17.759,0.675
		c4.926,0.144,8.8,0.185,11.441,0.247c2.641,0.052,4.049,0.079,4.049,0.079l0.048,0.001c2.015,0.039,3.616,1.705,3.577,3.72
		c-0.039,1.982-1.655,3.563-3.625,3.578c0,0-1.419,0.009-4.078,0.026c-2.66,0.006-6.561,0.065-11.528,0.049
		c-4.967-0.05-11-0.03-17.921-0.217c-3.461-0.072-7.144-0.137-11.026-0.299c-3.882-0.146-7.966-0.257-12.225-0.502
		c-4.26-0.212-8.698-0.431-13.288-0.766c-2.295-0.161-4.631-0.294-7.001-0.485c-2.369-0.198-4.775-0.399-7.213-0.603
		c-9.751-0.874-20.034-1.944-30.635-3.49c-21.191-3.052-43.774-7.53-65.705-15.203c-2.745-0.939-5.453-2.02-8.172-3.052
		c-2.688-1.138-5.402-2.19-8.046-3.451c-5.329-2.388-10.531-5.116-15.544-8.182c-5.011-3.065-9.838-6.483-14.281-10.432
		c-4.434-3.947-8.495-8.444-11.743-13.616c-0.802-1.301-1.602-2.595-2.264-3.995c-0.339-0.692-0.711-1.36-1.013-2.072
		c-0.293-0.719-0.585-1.436-0.876-2.152c-0.141-0.36-0.294-0.714-0.424-1.079l-0.35-1.116c-0.228-0.745-0.455-1.488-0.682-2.23
		c-0.166-0.765-0.332-1.529-0.497-2.29l-0.238-1.144c-0.064-0.385-0.102-0.776-0.153-1.163c-0.091-0.777-0.181-1.552-0.271-2.324
		c-0.043-0.778-0.055-1.559-0.077-2.336l-0.024-1.165c0.008-0.387,0.042-0.774,0.063-1.161c0.054-0.773,0.107-1.544,0.161-2.312
		c0.421-3.04,1.02-6.048,2.09-8.811c1.984-5.61,5.137-10.389,8.617-14.387c3.495-4.01,7.361-7.269,11.259-9.985
		c7.824-5.431,15.75-8.736,22.848-11.016c7.119-2.277,13.48-3.49,18.724-4.214c1.31-0.212,2.554-0.333,3.725-0.459
		c1.179-0.116,2.248-0.265,3.31-0.329c1.054-0.072,2.029-0.138,2.922-0.199c0.894-0.06,1.726-0.12,2.358-0.129
		c2.649-0.084,4.062-0.129,4.062-0.129c4.601-0.147,8.45,3.465,8.597,8.066c0.147,4.601-3.465,8.45-8.066,8.597
		C112.975,293.121,112.875,293.123,112.816,293.123z"/>
</g>
<g id="Layer_1">
</g>
</svg>
