<?xml version="1.0" encoding="iso-8859-1"?>
<!-- Generator: Adobe Illustrator 18.1.0, SVG Export Plug-In . SVG Version: 6.00 Build 0)  -->
<!DOCTYPE svg PUBLIC "-//W3C//DTD SVG 1.1//EN" "http://www.w3.org/Graphics/SVG/1.1/DTD/svg11.dtd">
<svg version="1.1" xmlns="http://www.w3.org/2000/svg" xmlns:xlink="http://www.w3.org/1999/xlink" x="0px" y="0px"
	 viewBox="0 0 512 512" enable-background="new 0 0 512 512" xml:space="preserve">
<g id="Layer_3">
	<path fill="#FFA1E0" d="M438.506,137.772c0,42.078-34.063,76.203-76.203,76.203c-42.14,0-76.231-34.125-76.231-76.203
		c0-42.14,34.091-76.231,76.231-76.231C404.443,61.541,438.506,95.632,438.506,137.772z M235.62,412.351c0,0-3.827,0.63-7.95,1.732
		c-4.244,1.102-8.693,2.677-11.181,4.567c-2.889,1.89-2.3,4.095-1.585,6.457c0.607,2.362,1.772,4.882,3.211,7.402
		c2.954,5.04,8.329,10.079,13.697,13.859c5.22,3.78,10.884,6.3,10.884,6.3c6.987,3.074,15.294,3.347,22.818,0
		c0,0,5.664-2.52,10.884-6.3c5.368-3.78,10.743-8.819,13.697-13.859c1.439-2.52,2.605-5.04,3.211-7.402
		c0.714-2.362,1.304-4.567-1.586-6.457c-2.488-1.89-6.936-3.465-11.18-4.567c-4.123-1.102-7.95-1.732-7.95-1.732
		C260.806,410.465,248.044,410.306,235.62,412.351z M205.525,87.427c-13.956-15.869-34.4-25.886-57.227-25.886
		c-42.14,0-76.231,34.091-76.231,76.231c0,30.757,18.226,57.247,44.485,69.284C120.274,152.122,156.153,106.02,205.525,87.427z"/>
</g>
<g id="Layer_1">
</g>
</svg>
