<?xml version="1.0" encoding="iso-8859-1"?>
<!-- Generator: Adobe Illustrator 18.1.0, SVG Export Plug-In . SVG Version: 6.00 Build 0)  -->
<!DOCTYPE svg PUBLIC "-//W3C//DTD SVG 1.1//EN" "http://www.w3.org/Graphics/SVG/1.1/DTD/svg11.dtd">
<svg version="1.1" xmlns="http://www.w3.org/2000/svg" xmlns:xlink="http://www.w3.org/1999/xlink" x="0px" y="0px"
	 viewBox="0 0 512 512" enable-background="new 0 0 512 512" xml:space="preserve">
<g id="Layer_4">
	<path fill="#009D82" d="M404.971,241.19c-0.216-0.447-0.419-0.882-0.644-1.335c-23.996-48.506-61.321-71.516-69.135-65.501
		c-6.302,4.852,6.088,6.03,18.682,54.14c-12.455-2.016-25.532-3.451-39.071-4.226c-6.713-27.849-16.561-50.853-23.599-50.853
		c-7.038,0-16.886,23.004-23.599,50.853c-13.539,0.775-26.616,2.21-39.071,4.226c12.594-48.11,24.985-49.288,18.682-54.14
		c-7.814-6.015-45.139,16.996-69.135,65.501c-0.224,0.453-0.427,0.889-0.644,1.335c-42.925,15.101-70.495,38.552-70.495,64.886
		c0,45.552,82.497,82.48,184.261,82.48s184.261-36.928,184.261-82.48C475.466,279.742,447.896,256.291,404.971,241.19z"/>
</g>
<g id="Layer_1">
</g>
</svg>
