<?xml version="1.0" encoding="iso-8859-1"?>
<!-- Generator: Adobe Illustrator 18.1.0, SVG Export Plug-In . SVG Version: 6.00 Build 0)  -->
<!DOCTYPE svg PUBLIC "-//W3C//DTD SVG 1.1//EN" "http://www.w3.org/Graphics/SVG/1.1/DTD/svg11.dtd">
<svg version="1.1" xmlns="http://www.w3.org/2000/svg" xmlns:xlink="http://www.w3.org/1999/xlink" x="0px" y="0px"
	 viewBox="0 0 512 512" enable-background="new 0 0 512 512" xml:space="preserve">
<g id="Layer_3">
	<path fill="#2B3B47" d="M251.973,169.313c-3.2,0.386-6.302,0.604-9.347,0.604c-28.108,0-77.916-24.235-82.814-47.135
		c-0.099-1.184-0.227-2.359-0.394-3.523c0-0.023-0.002-0.046-0.002-0.068l-0.005,0.008c-4.218-29.216-29.349-51.666-59.732-51.666
		c-6.878,0-13.48,1.167-19.637,3.289c-0.616,0.212-1.223,0.443-1.83,0.674c-0.29,0.111-0.584,0.213-0.872,0.328
		c-13.38,5.335-24.4,15.315-31.072,27.948c-0.695-0.037-1.391-0.091-2.085-0.177c-3.484-0.408-6.866-1.379-9.712-2.866
		c-2.883-1.406-5.182-3.307-6.989-5.17c-0.89-0.952-1.627-1.941-2.297-2.878c-0.343-0.463-0.601-0.968-0.876-1.429
		c-0.269-0.466-0.523-0.914-0.74-1.376c-0.457-0.902-0.816-1.746-1.075-2.595c-0.272-0.83-0.515-1.566-0.679-2.272
		c-0.306-1.419-0.426-2.579-0.485-3.373c-0.057-0.796-0.049-1.238-0.049-1.238s0.438-0.006,1.258-0.018
		c0.796-0.002,1.917,0.016,3.216,0.066c1.363-0.057,2.839,0.046,4.457-0.071c0.819-0.083,1.586-0.032,2.42-0.157
		c0.828-0.134,1.621-0.188,2.41-0.331c1.584-0.323,3.048-0.669,4.363-1.221c1.309-0.472,2.47-1.104,3.638-1.696
		c1.153-0.565,2.378-1.256,3.773-1.908c0.354-0.198,0.69-0.286,1.074-0.504c0.372-0.2,0.755-0.365,1.14-0.525
		c0.8-0.415,1.605-0.732,2.491-1.154c0.858-0.365,1.799-0.803,2.735-1.17c0.963-0.448,1.938-0.798,2.971-1.229
		c2.032-0.802,4.221-1.596,6.48-2.285c2.24-0.686,4.615-1.304,6.939-1.749c2.308-0.441,4.574-0.734,6.795-0.847
		c0.616,2.855,1.391,5.453,2.24,7.82c0.164-0.155,0.314-0.302,0.484-0.459c0.694-0.616,1.425-1.264,2.192-1.944
		c0.779-0.634,1.595-1.31,2.467-1.951c1.739-1.312,3.673-2.621,5.849-3.85c4.347-2.487,9.676-4.718,16.444-5.968
		c3.383-0.61,7.127-0.935,11.238-0.835c4.094,0.148,8.576,0.674,13.221,1.942c2.337,0.593,4.682,1.413,7.057,2.343
		c2.36,0.967,4.713,2.1,7.029,3.373c4.606,2.601,9.053,5.72,13.094,9.192c4.026,3.494,7.614,7.328,10.774,11.26
		c3.144,3.947,5.811,8.03,8.166,12.082c2.319,4.065,4.26,8.147,5.979,12.162c0.449,1.008,0.81,2.011,1.214,3.017l0.736,2.072
		l0.187,0.621l0.281,0.793l0.581,1.61c1.579,4.302,3.486,8.561,5.586,12.564c2.084,4.024,4.414,7.741,6.816,11.149
		c1.215,1.684,2.459,3.293,3.725,4.815c1.257,1.539,2.568,2.967,3.928,4.25c2.661,2.722,5.534,4.905,8.524,6.862
		c0.75,0.474,1.511,0.912,2.277,1.322c0.764,0.438,1.535,0.859,2.31,1.237c1.552,0.769,3.113,1.368,4.659,1.985
		c3.085,1.134,6.09,1.933,8.681,2.468c1.303,0.297,2.497,0.506,3.556,0.674c1.069,0.208,1.989,0.319,2.75,0.436
		c1.55,0.225,2.377,0.345,2.377,0.345l3.743,0.544C248.803,163.989,251.249,166.357,251.973,169.313z M508.845,139.463
		c-0.794-4.583-2.239-9.055-4.238-13.105c-1.969-4.074-4.427-7.763-7.109-11.063c-1.349-1.645-2.755-3.196-4.198-4.666
		c-1.105-1.128-2.29-2.316-3.452-3.445c-2.094-2.088-4.18-4.169-6.249-6.232c-4.15-4.151-8.041-8.213-11.541-12.197
		c-1.715-1.998-3.376-3.984-4.792-5.981c-0.773-0.993-1.383-1.995-2.063-3c-0.588-1.007-1.221-2.018-1.713-3.035
		c-2.155-4.052-3.328-8.259-3.581-12.453c-0.119-2.09-0.096-4.175,0.206-6.165c0.099-1.003,0.31-1.977,0.481-2.937
		c0.213-0.951,0.449-1.879,0.686-2.783c1.02-3.602,2.284-6.748,3.362-9.357c1.103-2.6,2.018-4.675,2.646-6.095
		c0.651-1.406,0.97-2.186,0.97-2.186l0.01-0.024c0.148-0.365,0.097-0.798-0.171-1.124c-0.39-0.473-1.089-0.541-1.562-0.152
		c0,0-0.654,0.539-1.828,1.606c-1.182,1.063-2.873,2.668-4.891,4.881c-2.012,2.221-4.309,5.083-6.647,8.735
		c-2.299,3.662-4.699,8.149-6.408,13.702c-0.884,2.768-1.42,5.808-1.773,9.015c-0.358,3.216-0.328,6.595-0.003,10.021
		c0.654,6.877,2.635,13.844,5.529,20.356c2.899,6.514,6.678,12.629,10.952,18.254c1.092,1.381,2.173,2.758,3.329,4.129l1.788,2.049
		l0.903,1.021l0.456,0.507l0.418,0.448c1.117,1.209,2.232,2.348,3.4,3.577c0.848,0.87,1.643,1.752,2.37,2.643
		c2.932,3.567,4.821,7.134,5.664,10.615c0.873,3.477,0.813,7.108-0.239,10.931c-1.012,3.81-3.057,7.63-5.546,11.02
		c-1.259,1.687-2.651,3.249-4.084,4.689c-1.443,1.43-2.959,2.693-4.457,3.839c-3.028,2.246-6.06,3.814-8.754,4.757
		c-1.765,0.606-3.369,0.94-4.818,1.094c3.891,5.137,7.065,10.731,9.421,16.641c4.509-0.256,9.302-1.293,14.076-3.182
		c2.872-1.109,5.722-2.554,8.537-4.28c2.832-1.708,5.582-3.764,8.217-6.151c1.332-1.178,2.61-2.465,3.877-3.811
		c1.237-1.374,2.451-2.817,3.595-4.367c2.289-3.093,4.362-6.559,6.004-10.419c1.668-3.837,2.873-8.091,3.479-12.56
		C509.68,148.752,509.641,144.049,508.845,139.463z"/>
</g>
<g id="Layer_1">
</g>
</svg>
