<?xml version="1.0" encoding="iso-8859-1"?>
<!-- Generator: Adobe Illustrator 18.1.0, SVG Export Plug-In . SVG Version: 6.00 Build 0)  -->
<!DOCTYPE svg PUBLIC "-//W3C//DTD SVG 1.1//EN" "http://www.w3.org/Graphics/SVG/1.1/DTD/svg11.dtd">
<svg version="1.1" xmlns="http://www.w3.org/2000/svg" xmlns:xlink="http://www.w3.org/1999/xlink" x="0px" y="0px"
	 viewBox="0 0 512 512" enable-background="new 0 0 512 512" xml:space="preserve">
<g id="Layer_3">
	<path fill="#FFEDCA" d="M119.076,294.917c0.013,0.043,0.027,0.092,0.04,0.136c-14.649-12.76-28.023-29.428-39.169-43.17
		c-6.257,4.169-19.152,8.727-45.598,0.898c-0.385-0.114-0.749-0.232-1.116-0.35c-0.086,0-0.168-0.002-0.253-0.002
		c-0.855,0.003-1.723,0.004-2.617,0.004c-0.643,0-1.271-0.047-1.891-0.117c-17.667-0.845-23.649-6.528-23.649-20.447
		c0-4.753,6.197-4.975,13.385-4.364c0.798-0.154,1.667-0.245,2.633-0.245c2.24,0,4.759-0.386,7.442-1c0-1.978,0-6.769,0-12.375
		v-19.292c0-7.373,5.977-13.349,13.349-13.349c7.373,0,13.349,5.977,13.349,13.349v19.292c0,1.038-0.13,2.044-0.354,3.014
		c1.769-0.361,3.402-0.559,4.819-0.559c29.083,0,33.223,14.255,30.462,14.255c-10.982,0,4.981,3.177,2.945,6.102
		c-0.296,0.426-3.352,1.247-6.25,2.074c9.586,11.689,20.916,24.952,32.58,35.099c-1.58,5.112-2.009,10.663-1.013,16.295l0.008,0.047
		c0,0,0.084,0.477,0.242,1.372c0.079,0.447,0.177,0.999,0.291,1.648c0.057,0.324,0.119,0.673,0.185,1.045
		C118.953,294.477,119.013,294.691,119.076,294.917z M289.634,307.766l-1.58-5.792l-1.649-5.79c-0.556-1.93-1.085-3.86-1.664-5.79
		l-0.561-1.891c-15.354,1.261-31.567,2.578-51.36,3.576c-0.643,3.084-1.922,9.217-3.58,17.167c-0.516,2.309-1.069,4.777-1.647,7.362
		c27.96,1.343,45.681,2.75,64.67,0.916l-1.05-3.965L289.634,307.766z"/>
</g>
<g id="Layer_1">
</g>
</svg>
