<?xml version="1.0" encoding="iso-8859-1"?>
<!-- Generator: Adobe Illustrator 18.1.0, SVG Export Plug-In . SVG Version: 6.00 Build 0)  -->
<!DOCTYPE svg PUBLIC "-//W3C//DTD SVG 1.1//EN" "http://www.w3.org/Graphics/SVG/1.1/DTD/svg11.dtd">
<svg version="1.1" xmlns="http://www.w3.org/2000/svg" xmlns:xlink="http://www.w3.org/1999/xlink" x="0px" y="0px"
	 viewBox="0 0 72 72" enable-background="new 0 0 72 72" xml:space="preserve">
<g id="Layer_5">
	<path fill="#E576CB" d="M39.849,26.513c0,0-0.221,0.285-0.553,0.488c-0.331,0.216-0.773,0.359-1.215,0.365
		c-0.442-0.005-0.884-0.146-1.215-0.363c-0.331-0.203-0.552-0.49-0.552-0.49c-0.051-0.066-0.048-0.156,0-0.219
		c0,0,0.221-0.287,0.552-0.49c0.332-0.217,0.773-0.358,1.215-0.363c0.442,0.006,0.884,0.149,1.215,0.365
		c0.332,0.202,0.553,0.488,0.553,0.488C39.9,26.359,39.898,26.45,39.849,26.513z M42.209,32.519c0,0.09-0.014,0.206-0.041,0.292
		c-0.753,2.384-2.28,3.808-4.087,3.808c-1.806,0-3.334-1.424-4.086-3.808c-0.03-0.095-0.043-0.191-0.041-0.286
		c-0.002-0.18,0.051-0.361,0.163-0.519c0.958-1.348,2.379-2.139,3.901-2.169c0.027,0,0.056-0.001,0.084-0.001
		c1.507,0,2.976,0.807,3.944,2.17C42.152,32.156,42.209,32.335,42.209,32.519z"/>
</g>
<g id="Layer_1">
</g>
</svg>
