<?xml version="1.0" encoding="iso-8859-1"?>
<!-- Generator: Adobe Illustrator 18.1.0, SVG Export Plug-In . SVG Version: 6.00 Build 0)  -->
<!DOCTYPE svg PUBLIC "-//W3C//DTD SVG 1.1//EN" "http://www.w3.org/Graphics/SVG/1.1/DTD/svg11.dtd">
<svg version="1.1" xmlns="http://www.w3.org/2000/svg" xmlns:xlink="http://www.w3.org/1999/xlink" x="0px" y="0px"
	 viewBox="0 0 512 512" enable-background="new 0 0 512 512" xml:space="preserve">
<g id="Layer_2">
	<path fill="#E5E4DF" d="M491.819,331.752c0.424,4.379,0.647,8.817,0.647,13.307c0,75.409-61.131,136.539-136.539,136.539
		c-46.47,4.455-82.111-18.452-102.712-19.449c-9.565-0.463-23.223,2.268-37.653,5.818c-17.98,8.727-38.157,13.631-59.488,13.631
		c-0.59,0-1.177-0.015-1.765-0.022c-0.263,0.006-0.543,0.022-0.798,0.022l0.006-0.032c-74.228-1.364-133.982-61.953-133.982-136.507
		c0-5.996,0.39-11.9,1.139-17.691c1.455-81.307,63.098-98.002,63.098-115.702l0.87,0.517
		c8.721-86.945,82.108-154.835,171.358-154.835c89.222,0,162.592,67.846,171.351,154.751l0.713-0.433
		c0,19.587,64.402,34.784,64.402,118.633C492.466,330.835,492.228,331.314,491.819,331.752z"/>
</g>
<g id="Layer_1">
</g>
</svg>
