<?xml version="1.0" encoding="iso-8859-1"?>
<!-- Generator: Adobe Illustrator 18.1.0, SVG Export Plug-In . SVG Version: 6.00 Build 0)  -->
<!DOCTYPE svg PUBLIC "-//W3C//DTD SVG 1.1//EN" "http://www.w3.org/Graphics/SVG/1.1/DTD/svg11.dtd">
<svg version="1.1" xmlns="http://www.w3.org/2000/svg" xmlns:xlink="http://www.w3.org/1999/xlink" x="0px" y="0px"
	 viewBox="0 0 512 512" enable-background="new 0 0 512 512" xml:space="preserve">
<g id="Layer_2">
	<path fill="#FFA1E0" d="M479.639,207.75c-10.27-76.663-62.234-134.808-216.713-136.491c-1.597-0.025-3.195-0.045-4.8-0.045
		c-0.291,0-0.579,0.007-0.87,0.008c-0.422-0.001-0.832-0.008-1.255-0.008c-181.424,0-225.678,75.639-225.678,168.944
		c0,11.086,1.442,21.918,4.165,32.407c10.27,76.663,62.234,134.808,216.713,136.491c1.597,0.025,3.195,0.045,4.8,0.045
		c0.291,0,0.579-0.007,0.87-0.008c0.422,0.001,0.832,0.008,1.255,0.008c181.424,0,225.678-75.639,225.678-168.944
		C483.804,229.072,482.361,218.24,479.639,207.75z"/>
</g>
<g id="Layer_1">
</g>
</svg>
