<?xml version="1.0" encoding="iso-8859-1"?>
<!-- Generator: Adobe Illustrator 18.1.0, SVG Export Plug-In . SVG Version: 6.00 Build 0)  -->
<!DOCTYPE svg PUBLIC "-//W3C//DTD SVG 1.1//EN" "http://www.w3.org/Graphics/SVG/1.1/DTD/svg11.dtd">
<svg version="1.1" xmlns="http://www.w3.org/2000/svg" xmlns:xlink="http://www.w3.org/1999/xlink" x="0px" y="0px"
	 viewBox="0 0 512 512" enable-background="new 0 0 512 512" xml:space="preserve">
<g id="Layer_6">
	<path fill="#132028" d="M169.247,253.848c15.806,0,28.619,12.813,28.619,28.619v35.18c0,15.806-12.813,28.619-28.619,28.619l0,0
		c-15.806,0-28.619-12.813-28.619-28.619v-35.18C140.627,266.662,153.441,253.848,169.247,253.848L169.247,253.848z
		 M342.752,252.884c-15.806,0-28.619,12.813-28.619,28.619v35.18c0,15.806,12.813,28.619,28.619,28.619l0,0
		c15.806,0,28.619-12.813,28.619-28.619v-35.18C371.371,265.697,358.558,252.884,342.752,252.884L342.752,252.884z"/>
</g>
<g id="Layer_1">
</g>
</svg>
