<?xml version="1.0" encoding="iso-8859-1"?>
<!-- Generator: Adobe Illustrator 18.1.0, SVG Export Plug-In . SVG Version: 6.00 Build 0)  -->
<!DOCTYPE svg PUBLIC "-//W3C//DTD SVG 1.1//EN" "http://www.w3.org/Graphics/SVG/1.1/DTD/svg11.dtd">
<svg version="1.1" id="Layer_1" xmlns="http://www.w3.org/2000/svg" xmlns:xlink="http://www.w3.org/1999/xlink" x="0px" y="0px"
	 viewBox="0 0 512 512" enable-background="new 0 0 512 512" xml:space="preserve">
<path fill="#D0CEC2" d="M53.937,449.776c-0.628,0-1.266-0.124-1.88-0.388c-2.428-1.039-3.554-3.851-2.515-6.278
	c9.285-21.689,40.541-44.919,74.865-44.611c2.642,0.023,4.764,2.184,4.741,4.825c-0.023,2.627-2.16,4.741-4.782,4.741
	c-0.015,0-0.029,0-0.043,0c-32.07-0.264-58.944,22.356-65.987,38.809C57.56,448.688,55.793,449.776,53.937,449.776z M30.067,401.888
	c21.443-28.069,67.838-33.838,93.084-27.213c2.554,0.673,5.17-0.856,5.84-3.412c0.671-2.555-0.857-5.17-3.412-5.84
	c-41.004-10.761-85.449,7.534-103.114,30.658c-1.604,2.099-1.202,5.101,0.897,6.704c0.867,0.662,1.888,0.982,2.9,0.982
	C27.702,403.768,29.125,403.12,30.067,401.888z M459.942,449.39c2.429-1.04,3.555-3.852,2.516-6.279
	c-9.226-21.551-40.145-44.614-74.202-44.614c-0.22,0-0.443,0.001-0.663,0.003c-2.642,0.023-4.764,2.184-4.741,4.825
	c0.023,2.627,2.16,4.741,4.782,4.741c0.015,0,0.029,0,0.043,0c0.2-0.002,0.396-0.003,0.595-0.003
	c31.83,0,58.394,22.462,65.392,38.812c0.777,1.815,2.543,2.902,4.399,2.902C458.69,449.776,459.329,449.652,459.942,449.39z
	 M488.638,402.785c2.1-1.604,2.501-4.605,0.897-6.704c-17.664-23.124-62.112-41.422-103.114-30.658
	c-2.556,0.67-4.083,3.285-3.412,5.84c0.67,2.555,3.284,4.086,5.84,3.412c39.3-10.31,79.308,9.178,93.085,27.213
	c0.941,1.232,2.364,1.88,3.805,1.88C486.75,403.768,487.771,403.447,488.638,402.785z"/>
</svg>
