<?xml version="1.0" encoding="iso-8859-1"?>
<!-- Generator: Adobe Illustrator 18.1.0, SVG Export Plug-In . SVG Version: 6.00 Build 0)  -->
<!DOCTYPE svg PUBLIC "-//W3C//DTD SVG 1.1//EN" "http://www.w3.org/Graphics/SVG/1.1/DTD/svg11.dtd">
<svg version="1.1" xmlns="http://www.w3.org/2000/svg" xmlns:xlink="http://www.w3.org/1999/xlink" x="0px" y="0px"
	 viewBox="0 0 512 512" enable-background="new 0 0 512 512" xml:space="preserve">
<g id="Layer_9">
	<path fill="#D1CFC3" d="M81.487,124.687c0,0-0.504-1.196-1.385-3.29c-0.38-0.785-0.741-1.659-1.299-2.809
		c-0.295-0.586-0.608-1.209-0.938-1.866c-0.34-0.653-0.751-1.304-1.131-2.021c-0.799-1.406-1.731-2.897-2.811-4.423
		c-1.048-1.553-2.275-3.117-3.611-4.708c-1.381-1.55-2.809-3.197-4.453-4.717c-1.62-1.541-3.348-3.073-5.185-4.525
		c-0.906-0.741-1.864-1.43-2.811-2.135c-0.983-0.685-1.961-1.367-2.932-2.044c-0.83-0.597-1.853-1.253-2.835-1.859
		c-0.992-0.618-2.026-1.193-3.049-1.802c-2.051-1.217-4.164-2.366-6.195-3.59c-2.019-1.242-3.987-2.485-5.716-3.849
		c-1.727-1.354-3.25-2.756-4.424-4.152c-1.189-1.382-2.067-2.705-2.67-3.84c-0.62-1.123-0.982-2.051-1.212-2.68
		c-0.216-0.631-0.331-0.967-0.331-0.967c-0.248-0.725,0.138-1.513,0.863-1.761c0.5-0.171,1.03-0.04,1.392,0.295l0.086,0.08
		c0,0,0.229,0.213,0.659,0.613c0.437,0.387,1.088,0.932,1.937,1.542c0.858,0.602,1.915,1.262,3.193,1.86
		c1.29,0.586,2.745,1.177,4.457,1.647c1.697,0.486,3.596,0.945,5.716,1.361c2.193,0.461,4.505,0.946,6.897,1.449
		c1.244,0.273,2.51,0.608,3.823,0.968c1.323,0.372,2.614,0.752,4.084,1.265c2.597,0.888,5.229,2.044,7.819,3.288
		c1.307,0.605,2.579,1.303,3.865,1.973c1.257,0.727,2.522,1.436,3.731,2.235c2.457,1.531,4.78,3.244,6.972,4.994
		c2.148,1.804,4.174,3.643,5.982,5.518c1.801,1.879,3.399,3.769,4.804,5.568c0.69,0.909,1.349,1.787,1.944,2.641
		c0.576,0.868,1.122,1.691,1.636,2.465c1.019,1.591,1.866,3.199,2.561,4.413c1.015,2.033,1.595,3.194,1.595,3.194
		c2.858,5.72,0.538,12.673-5.181,15.531c-5.72,2.858-12.673,0.538-15.531-5.181C81.694,125.155,81.58,124.905,81.487,124.687z"/>
</g>
<g id="Layer_1">
</g>
</svg>
