<?xml version="1.0" encoding="iso-8859-1"?>
<!-- Generator: Adobe Illustrator 18.1.0, SVG Export Plug-In . SVG Version: 6.00 Build 0)  -->
<!DOCTYPE svg PUBLIC "-//W3C//DTD SVG 1.1//EN" "http://www.w3.org/Graphics/SVG/1.1/DTD/svg11.dtd">
<svg version="1.1" xmlns="http://www.w3.org/2000/svg" xmlns:xlink="http://www.w3.org/1999/xlink" x="0px" y="0px"
	 viewBox="0 0 512 512" enable-background="new 0 0 512 512" xml:space="preserve">
<g id="Layer_6">
	<path fill="#FFB941" d="M110.14,85.707c0,0,0.635-0.475,1.825-1.366c0.551-0.437,1.167-0.926,1.845-1.464
		c0.736-0.576,1.57-1.224,2.43-1.859c1.519-1.04,3.24-2.256,5.269-3.462c4.02-2.453,9.101-5.107,15.204-7.354
		c6.087-2.257,13.214-4.083,21.036-4.843c1.949-0.228,3.948-0.293,5.97-0.392c2.024-0.015,4.082-0.057,6.156,0.07
		c1.483,0.081,2.978,0.163,4.485,0.246c0.643,0.11,1.29,0.221,1.943,0.333c1.659,0.286,3.343,0.577,5.05,0.872
		c2.564,0.474,5.221,1.021,7.722,1.662c2.146,0.681,4.301,1.403,6.452,2.164c1.085,0.351,2.129,0.84,3.185,1.302
		c1.048,0.475,2.101,0.952,3.159,1.431c2.128,0.915,4.131,2.13,6.163,3.295c8.068,4.758,15.43,11.03,21.44,18.44
		c6.02,7.399,10.685,15.935,13.61,24.934c2.967,8.987,4.059,18.446,3.522,27.395l-0.073,1.677l-0.01,0.209l-0.036,1.257
		l-0.012,0.072l-0.049,0.288l-0.098,0.575c-0.131,0.766-0.262,1.531-0.392,2.293c-0.145,0.829-0.289,1.656-0.433,2.48
		c-0.236,1.247-0.488,2.485-0.755,3.712c-0.267,1.227-0.548,2.441-0.843,3.641l-0.111,0.449l-0.128,0.386l-0.257,0.767l-0.52,1.524
		c-0.725,2.015-1.337,4.032-2.272,5.915c-0.44,0.946-0.878,1.888-1.314,2.826c-0.449,0.929-0.854,1.866-1.394,2.737
		c-1.023,1.765-2.046,3.496-3.083,5.175c-1.15,1.616-2.302,3.193-3.449,4.727c-0.549,0.784-1.207,1.481-1.826,2.194
		c-0.628,0.703-1.251,1.401-1.871,2.095c-1.202,1.411-2.562,2.638-3.878,3.853c-1.316,1.215-2.593,2.413-3.997,3.426
		c-1.376,1.041-2.701,2.083-4.058,3.018c-1.4,0.886-2.776,1.737-4.122,2.554c-1.317,0.86-2.749,1.479-4.085,2.161
		c-0.674,0.327-1.341,0.651-2,0.971c-0.329,0.157-0.656,0.313-0.981,0.468c-0.337,0.131-0.672,0.262-1.005,0.391
		c-2.676,1.002-5.149,2.023-7.615,2.594c-1.212,0.317-2.385,0.623-3.517,0.919c-1.136,0.263-2.26,0.405-3.32,0.591
		c-1.061,0.166-2.078,0.325-3.051,0.477c-0.967,0.155-1.913,0.156-2.795,0.23c-1.771,0.097-3.338,0.218-4.7,0.225
		c-1.36-0.054-2.517-0.1-3.455-0.137c-1.86-0.094-2.852-0.144-2.852-0.144c-7.282-0.367-12.888-6.568-12.521-13.85
		c0.306-6.062,4.653-10.962,10.302-12.222l2.219-0.491c0,0,0.581-0.129,1.671-0.372c0.537-0.112,1.199-0.249,1.977-0.411
		c0.766-0.207,1.623-0.537,2.58-0.831c0.473-0.172,0.987-0.269,1.491-0.51c0.502-0.227,1.028-0.465,1.576-0.713
		c0.54-0.255,1.118-0.455,1.681-0.761c0.552-0.321,1.123-0.653,1.714-0.996c1.209-0.585,2.327-1.546,3.55-2.368l0.457-0.319
		l0.426-0.386c0.285-0.253,0.573-0.51,0.865-0.77c0.569-0.531,1.214-0.966,1.73-1.607c0.545-0.597,1.101-1.19,1.669-1.777
		c0.528-0.637,1.008-1.338,1.532-1.992c0.553-0.627,0.97-1.394,1.422-2.126c0.452-0.732,0.948-1.431,1.284-2.256
		c0.191-0.39,0.384-0.783,0.577-1.178c0.189-0.394,0.42-0.761,0.543-1.197c0.295-0.84,0.603-1.666,0.929-2.479
		c0.212-0.873,0.424-1.737,0.664-2.583c0.148-0.412,0.168-0.874,0.238-1.313c0.067-0.437,0.134-0.875,0.202-1.316
		c0.21-0.85,0.133-1.781,0.208-2.654l0.041-0.659l0.024-0.327l0.012-0.162l-0.026-0.11c-0.067-0.293-0.12-0.576-0.157-0.852
		c-0.038-0.276-0.06-0.544-0.065-0.808c-0.046-0.7-0.092-1.402-0.139-2.105c-0.053-0.772-0.106-1.546-0.159-2.321l-0.04-0.582
		l-0.02-0.291l-0.005-0.073c-0.06,2.29-0.024,0.612-0.04,1.112l-0.025-0.081l-0.19-0.643c-0.813-3.434-2.218-6.561-4.168-9.189
		c-1.923-2.635-4.291-4.797-6.823-6.372c-2.531-1.581-5.206-2.562-7.723-3.016c-0.641-0.087-1.215-0.29-1.86-0.254
		c-0.311-0.012-0.613-0.031-0.907-0.057c-0.296-0.021-0.574-0.087-0.883-0.032c-0.601,0.052-1.169,0.074-1.713,0.064
		c-0.234,0.172-0.298,0.341-0.407,0.396c-0.023,0.016-0.046,0.027-0.067,0.034l-0.859,0.061c-0.671,0.046-1.336,0.092-1.997,0.137
		c-0.661,0.045-1.316,0.09-1.967,0.135l-0.244,0.017l-0.122,0.008l-0.061,0.004c-1.49-0.036,1.958,0.053,1.598,0.047l-0.181,0.068
		l-0.356,0.128c-0.475,0.133-0.909,0.37-1.337,0.52c-0.412,0.233-0.822,0.37-1.189,0.613c-1.502,0.822-2.655,1.77-3.553,2.688
		c-0.901,0.909-1.546,1.783-2.014,2.52c-0.25,0.347-0.412,0.721-0.589,0.987c0.044,0.057,0.134,0.064,0.183,0.08l0.077,0.011
		c0.016,0.009,0.095-0.052-0.086,0.157c-0.947,1.147-1.452,1.758-1.452,1.758c-13.243,16.039-36.98,18.305-53.019,5.063
		s-18.305-36.98-5.063-53.019C105.571,89.572,107.855,87.439,110.14,85.707z"/>
</g>
<g id="Layer_1">
</g>
</svg>
