<?xml version="1.0" encoding="iso-8859-1"?>
<!-- Generator: Adobe Illustrator 18.1.0, SVG Export Plug-In . SVG Version: 6.00 Build 0)  -->
<!DOCTYPE svg PUBLIC "-//W3C//DTD SVG 1.1//EN" "http://www.w3.org/Graphics/SVG/1.1/DTD/svg11.dtd">
<svg version="1.1" xmlns="http://www.w3.org/2000/svg" xmlns:xlink="http://www.w3.org/1999/xlink" x="0px" y="0px"
	 viewBox="0 0 512 512" enable-background="new 0 0 512 512" xml:space="preserve">
<g id="Layer_2">
	<path fill="#3AAA3A" d="M454.896,301.923c0,83.213-89.29,150.671-199.434,150.671S56.028,385.136,56.028,301.923
		c0,0,89.29,10.861,199.434,10.861S454.896,301.923,454.896,301.923z"/>
</g>
<g id="Layer_3">
	<path fill="#2B3B47" d="M167.093,352.872l191.077-5.046c0,0-4.212,49.198-102.256,49.198S167.093,352.872,167.093,352.872z"/>
</g>
<g id="Layer_4">
	<path fill="#00CC00" d="M466.825,294.783c0-35.526-18.398-68.082-48.965-93.388c2.547-7.609,3.947-15.743,3.947-24.21
		c0-42.113-34.139-76.252-76.252-76.252c-32.329,0-59.938,20.129-71.032,48.529c-6.281-0.388-12.636-0.597-19.063-0.597
		c-6.068,0-12.073,0.187-18.012,0.533c-11.11-28.366-38.702-48.465-71.006-48.465c-42.113,0-76.252,34.139-76.252,76.252
		c0,8.21,1.313,16.111,3.714,23.521c-31.069,25.403-49.808,58.227-49.808,94.077c0,5.933,5.923,16.55,5.923,16.55
		c81.37,99.21,175.541,47.75,205.893,47.75c30.352,0,124.523,50.956,204.321-47.75l-0.017-0.002
		C464.498,306.255,466.825,300.741,466.825,294.783z"/>
</g>
<g id="Layer_5">
	<path fill="#3B933F" d="M214.316,307.25c0,5.827-4.723,10.55-10.55,10.55s-10.55-4.723-10.55-10.55s4.723-10.55,10.55-10.55
		S214.316,301.423,214.316,307.25z M307.158,296.7c-5.827,0-10.55,4.723-10.55,10.55s4.723,10.55,10.55,10.55
		s10.55-4.723,10.55-10.55S312.985,296.7,307.158,296.7z"/>
</g>
<g id="Layer_6">
	<path fill="#2B3B47" d="M166.444,137.095c13.578,0,24.585,11.007,24.585,24.585v30.221c0,13.578-11.007,24.585-24.585,24.585l0,0
		c-13.578,0-24.585-11.007-24.585-24.585V161.68C141.859,148.102,152.866,137.095,166.444,137.095L166.444,137.095z
		 M345.556,137.095c-13.578,0-24.585,11.007-24.585,24.585v30.221c0,13.578,11.007,24.585,24.585,24.585l0,0
		c13.578,0,24.585-11.007,24.585-24.585V161.68C370.141,148.102,359.134,137.095,345.556,137.095L345.556,137.095z"/>
</g>
</svg>
