<?xml version="1.0" encoding="iso-8859-1"?>
<!-- Generator: Adobe Illustrator 18.1.0, SVG Export Plug-In . SVG Version: 6.00 Build 0)  -->
<!DOCTYPE svg PUBLIC "-//W3C//DTD SVG 1.1//EN" "http://www.w3.org/Graphics/SVG/1.1/DTD/svg11.dtd">
<svg version="1.1" xmlns="http://www.w3.org/2000/svg" xmlns:xlink="http://www.w3.org/1999/xlink" x="0px" y="0px"
	 viewBox="0 0 512 512" enable-background="new 0 0 512 512" xml:space="preserve">
<g id="Layer_6">
	<path fill="#2B3B47" d="M16.059,168.262c0,0,4.613,0.639,9.226,1.277c4.634,0.454,9.278,0.81,9.278,0.81
		c3.625,0.278,6.338,3.442,6.06,7.066c-0.147,1.913-1.097,3.572-2.495,4.671l-5.361,4.183c0,0-1.284,1.002-3.105,1.568
		c-0.9,0.192-1.986,0.734-3.072,0.626c-1.093-0.044-2.292,0.205-3.432-0.076c-1.141-0.268-2.282-0.536-3.351-0.788
		c-1.053-0.396-2.015-0.959-2.85-1.343C11.958,184.753,10.383,167.621,16.059,168.262z M100.117,152.041
		c-4.679-0.528-8.899,2.837-9.427,7.516l-1.422,12.61c-0.528,4.679,2.837,8.899,7.516,9.427l0,0
		c4.679,0.528,8.899-2.837,9.427-7.516l1.422-12.61C108.161,156.789,104.796,152.568,100.117,152.041L100.117,152.041z"/>
</g>
<g id="Layer_1">
</g>
</svg>
