<?xml version="1.0" encoding="iso-8859-1"?>
<!-- Generator: Adobe Illustrator 18.1.0, SVG Export Plug-In . SVG Version: 6.00 Build 0)  -->
<!DOCTYPE svg PUBLIC "-//W3C//DTD SVG 1.1//EN" "http://www.w3.org/Graphics/SVG/1.1/DTD/svg11.dtd">
<svg version="1.1" xmlns="http://www.w3.org/2000/svg" xmlns:xlink="http://www.w3.org/1999/xlink" x="0px" y="0px"
	 viewBox="0 0 512 512" enable-background="new 0 0 512 512" xml:space="preserve">
<g id="Layer_4">
	<path fill="#E7EDF1" d="M423.717,146.797c-3.604-5.825-12.249-4.989-14.913,1.321c-14.864,35.212-49.695,59.931-90.318,59.931
		c-42.028,0-77.879-26.449-91.815-63.611c-0.098-0.26-0.284-0.493-0.517-0.712c-7.25-26.984-31.871-46.854-61.144-46.854
		c-34.971,0-63.32,28.349-63.32,63.32c0,13.936,4.513,26.813,12.142,37.271c-7.511,11.56-12.177,25.083-12.177,40.738
		c0,96.502,78.562,174.655,175.218,173.991c94.628-0.65,171.952-77.834,172.767-172.46
		C449.932,205.624,440.403,173.764,423.717,146.797z"/>
</g>
<g id="Layer_1">
</g>
</svg>
