<svg xmlns="http://www.w3.org/2000/svg" viewBox="0 0 512 512" enable-background="new 0 0 512 512"><path fill="#FFA1E0" d="M479.64 207.75c-10.27-76.663-62.235-134.808-216.714-136.49-1.597-.026-3.195-.046-4.8-.046-.29 0-.58.007-.87.008-.422 0-.832-.008-1.255-.008-181.422 0-225.676 75.64-225.676 168.944 0 11.086 1.442 21.918 4.165 32.407 10.27 76.663 62.233 134.808 216.712 136.49 1.598.026 3.196.046 4.8.046.292 0 .58-.005.87-.006.423 0 .833.008 1.256.008 181.424 0 225.678-75.638 225.678-168.943 0-11.086-1.443-21.918-4.165-32.408z"/></svg>