<?xml version="1.0" encoding="iso-8859-1"?>
<!-- Generator: Adobe Illustrator 18.1.0, SVG Export Plug-In . SVG Version: 6.00 Build 0)  -->
<!DOCTYPE svg PUBLIC "-//W3C//DTD SVG 1.1//EN" "http://www.w3.org/Graphics/SVG/1.1/DTD/svg11.dtd">
<svg version="1.1" xmlns="http://www.w3.org/2000/svg" xmlns:xlink="http://www.w3.org/1999/xlink" x="0px" y="0px"
	 viewBox="0 0 512 512" enable-background="new 0 0 512 512" xml:space="preserve">
<g id="Layer_4">
	<path fill="#D9DBD5" d="M382.129,392.701c0.022-0.632,0.025-0.984,0.025-0.984c0-26.256-21.285-47.541-47.541-47.541
		c-15.281,0-28.868,7.218-37.565,18.421c-29.975,28.288-54.468,27.142-84.726-3.115c-8.686-9.408-21.119-15.306-34.934-15.306
		c-26.256,0-47.541,21.285-47.541,47.541c0,0,0.003,0.352,0.025,0.984c0.028,1.365,0.102,2.718,0.243,4.052
		C131.93,419.262,146.068,509.571,256,509.571s124.07-90.309,125.886-112.818C382.027,395.419,382.101,394.066,382.129,392.701z"/>
</g>
<g id="Layer_1">
</g>
</svg>
