<svg xmlns="http://www.w3.org/2000/svg" viewBox="0 0 512 512" enable-background="new 0 0 512 512"><path fill="#FFE19F" d="M224.412 439.113c4.362 4.92-12.153 9.74-19.564 9.74H189.94c-7.41 0-11.842-6.915-7.48-11.836 0 0 3.528-8.298 11.682-8.298 3.437 0 11.765 1.543 14.5-5.336-3.187-45.424-3.95-60.162-43.913-105.168l51.325-25.14c26.184 33.014 11.535 127.533 8.357 146.037zm234.75-7.48c1.267-18.252-10.624-41.954-19.623-54.907-31.466-45.29-13.9-72.068-36.944-118.955l-72.67 20.882c-15.594 45.744 50.885 90.266 72.56 99.758 32.254 14.126 41.007 44.992 41.007 44.992l.004.007c-2.287-.452-4.452-.702-6.182-.702-6.178 0-8.85 7.81-8.85 7.81-3.306 4.63.052 11.14 5.667 11.14h18.72c5.18 0 8.425-5.533 6.31-10.026zM130.8 162.852c3.4-28.534-25.728-45.554-29.916-43.228-4.188 2.326-13.267 17.56-10.194 36.82 0 0 36.71 34.944 40.11 6.41z"/></svg>