<?xml version="1.0" encoding="iso-8859-1"?>
<!-- Generator: Adobe Illustrator 18.1.0, SVG Export Plug-In . SVG Version: 6.00 Build 0)  -->
<!DOCTYPE svg PUBLIC "-//W3C//DTD SVG 1.1//EN" "http://www.w3.org/Graphics/SVG/1.1/DTD/svg11.dtd">
<svg version="1.1" xmlns="http://www.w3.org/2000/svg" xmlns:xlink="http://www.w3.org/1999/xlink" x="0px" y="0px"
	 viewBox="0 0 512 512" enable-background="new 0 0 512 512" xml:space="preserve">
<g id="Layer_4">
	<path fill="#31434F" d="M496.767,198.32c-6.215-23.643-15.168-40.713-28.176-53.721c-0.349-0.349-0.726-0.653-1.116-0.929
		c-8.53-7.958-20.341-12.266-36.448-12.266c-63.891,0-109.715-9.824-165.62-9.824c-51.359,0-91.964,11.091-136.774-7.552
		c-7.994-9.271-19.816-15.147-33.018-15.147c-20.73,0-38.068,14.475-42.49,33.865c-5.98,10.154-11.892,24.614-30.215,44.027
		c-8.505,6.929-13.941,17.483-13.941,29.309c0,20.871,16.919,37.789,37.789,37.789c6.204,0,14.919,0.406,23.997,0.766
		c47.266,3.72,42.777,21.418,51.281,61.891c7.087,33.724,30.923,66.498,35.147,91.601c12.289,73.022,33.818,58.575,52.82-9.474
		c8.97-32.12,12.169-33.358,119.517-52.711c58.563-10.557,77.524,23.383,88.817,84.114c7.245,38.96,23.998,33.789,42.711-15.72
		c6.587-17.428,15.92-41.14,21.951-110.332c1.717-19.699,3.232-38.221,3.988-55.214c2.574,21.029,4.091,47.38,4.091,80.724
		c0,4.694,3.806,8.5,8.5,8.5s8.5-3.806,8.5-8.5C508.078,266.923,504.378,227.279,496.767,198.32z"/>
</g>
<g id="Layer_1">
</g>
</svg>
