<?xml version="1.0" encoding="iso-8859-1"?>
<!-- Generator: Adobe Illustrator 18.1.0, SVG Export Plug-In . SVG Version: 6.00 Build 0)  -->
<!DOCTYPE svg PUBLIC "-//W3C//DTD SVG 1.1//EN" "http://www.w3.org/Graphics/SVG/1.1/DTD/svg11.dtd">
<svg version="1.1" xmlns="http://www.w3.org/2000/svg" xmlns:xlink="http://www.w3.org/1999/xlink" x="0px" y="0px"
	 viewBox="0 0 512 512" enable-background="new 0 0 512 512" xml:space="preserve">
<g id="Layer_4">
	<path fill="#626566" d="M469.609,348.089c-0.066-7.197-0.599-15.201-1.68-23.766c-2.151-17.133-6.558-36.468-13.203-56.337
		c-3.323-9.932-7.193-20.005-11.549-30.036c-4.37-10.026-9.189-20.027-14.352-29.854c-5.164-9.827-10.584-19.526-16.345-28.852
		c-5.738-9.338-11.713-18.358-17.838-26.897c-6.003-8.321-12.147-16.179-18.321-23.451c0.356-0.013,0.658,0.112,0.897,0.399
		C373.361,122.026,334.657,5,256,5c-80.648,0-119.302,123.047-121.45,124.652l0.157,0.396c-5.846,6.948-11.661,14.414-17.348,22.298
		c-6.125,8.539-12.1,17.558-17.838,26.897c-5.761,9.327-11.181,19.026-16.346,28.852c-5.164,9.827-9.982,19.828-14.352,29.854
		c-4.356,10.032-8.227,20.104-11.55,30.036c-6.645,19.869-11.052,39.204-13.202,56.337c-1.081,8.565-1.614,16.569-1.68,23.766
		c-0.049,3.59,0.05,6.992,0.226,10.153c0.08,1.569,0.231,3.107,0.36,4.563c0.129,1.447,0.258,2.844,0.448,4.175
		c0.728,5.32,1.622,9.494,2.521,12.367c0.377,1.405,0.829,2.531,1.079,3.248c0.275,0.723,0.418,1.096,0.418,1.096
		c0.51,1.333,1.49,2.504,2.851,3.223c2.98,1.576,6.674,0.438,8.251-2.542l0.36-0.681c0,0,0.624-1.18,1.794-3.391
		c1.163-2.17,2.939-5.362,5.289-9.325c1.146-1.985,2.446-4.186,3.917-6.559c1.44-2.376,2.998-4.945,4.662-7.691
		c3.325-5.481,7.077-11.666,11.17-18.412c3.108-5.165,6.38-10.676,9.755-16.47c-0.699,7.485-1.062,14.596-1.062,21.23
		c0,97.128,77.287,144.511,161.571,144.511S417.571,440.2,417.571,343.072c0-6.634-0.363-13.745-1.062-21.23
		c3.375,5.795,6.648,11.306,9.755,16.47c4.093,6.746,7.844,12.931,11.17,18.412c1.664,2.745,3.222,5.315,4.662,7.691
		c1.471,2.374,2.771,4.574,3.917,6.559c2.35,3.963,4.126,7.155,5.289,9.325c1.17,2.212,1.794,3.391,1.794,3.391l0.365,0.69
		c0.669,1.261,1.78,2.294,3.219,2.842c3.151,1.2,6.678-0.381,7.878-3.532c0,0,0.142-0.373,0.418-1.096
		c0.25-0.717,0.701-1.843,1.079-3.248c0.899-2.874,1.793-7.048,2.521-12.367c0.19-1.331,0.32-2.728,0.448-4.175
		c0.129-1.455,0.281-2.994,0.36-4.563C469.559,355.081,469.658,351.679,469.609,348.089z M256,475.191
		c-69.95,0-126.655-62.523-126.655-139.649c0-45.091,19.387-109.206,49.466-154.698c19.165,20.841,46.644,33.912,77.189,33.912
		s58.024-13.071,77.189-33.912c30.079,45.492,49.466,109.607,49.466,154.698C382.655,412.668,325.95,475.191,256,475.191z"/>
</g>
<g id="Layer_1">
</g>
</svg>
