<?xml version="1.0" encoding="iso-8859-1"?>
<!-- Generator: Adobe Illustrator 19.2.1, SVG Export Plug-In . SVG Version: 6.00 Build 0)  -->
<!DOCTYPE svg PUBLIC "-//W3C//DTD SVG 1.1//EN" "http://www.w3.org/Graphics/SVG/1.1/DTD/svg11.dtd">
<svg version="1.1" xmlns="http://www.w3.org/2000/svg" xmlns:xlink="http://www.w3.org/1999/xlink" x="0px" y="0px"
	 viewBox="0 0 512 512" enable-background="new 0 0 512 512" xml:space="preserve">
<g id="Layer_3">
	<path fill="#AF773F" d="M432.876,332.56c-1.522-22.992-21.453-40.397-44.444-38.875c-2.178,0.144-4.432,0.455-6.432,0.915v-56.682
		C382,168.951,326.21,113,257.242,113h-1.071c-18.104-1.348-24.257-36.76-39.242-52.328c0.63-1.378,1.225-2.784,1.728-4.241
		c1.468-4.185,2.325-8.65,2.554-13.114c0.232-4.464-0.181-8.929-1.233-13.114c-1.03-4.185-2.678-8.091-4.616-11.44
		c-0.955-1.674-2.023-3.209-3.026-4.569c-1.029-1.36-2.023-2.546-2.941-3.523c-0.895-0.977-1.706-1.744-2.287-2.267
		c-0.278-0.262-0.535-0.462-0.692-0.597c-0.161-0.135-0.245-0.205-0.245-0.205c-1.977-1.66-4.919-1.716-6.967,0
		c0,0-0.083,0.07-0.244,0.205c-0.157,0.135-0.414,0.336-0.692,0.597c-0.581,0.523-1.392,1.29-2.287,2.267
		c-0.918,0.977-1.912,2.162-2.941,3.523c-1.003,1.36-2.07,2.895-3.026,4.569c-0.557,0.963-1.087,1.977-1.589,3.025
		c-1.037-3.877-2.588-7.499-4.4-10.629c-0.955-1.674-2.023-3.209-3.026-4.569c-1.029-1.36-2.023-2.546-2.941-3.523
		c-0.895-0.977-1.706-1.744-2.287-2.267c-0.278-0.262-0.535-0.462-0.692-0.597C174.923,0.07,174.84,0,174.84,0
		c-1.977-1.66-4.92-1.716-6.967,0c0,0-0.083,0.07-0.245,0.205c-0.157,0.135-0.414,0.336-0.692,0.597
		c-0.581,0.523-1.392,1.29-2.287,2.267c-0.918,0.977-1.912,2.162-2.941,3.523c-1.003,1.36-2.07,2.895-3.026,4.569
		c-1.938,3.348-3.586,7.254-4.616,11.44c-1.052,4.185-1.465,8.649-1.233,13.114c0.132,2.572,0.479,5.143,1.025,7.662
		c-22.12,0.66-41.811,8.768-55.194,21.226c-0.038,0.028-0.075,0.05-0.113,0.08c-7.893,6.24-22.868,26.043-33.397,37.89
		c-16.521,14.128-8.031,39.067,15.472,40.008h0c30.024,10.252,60.733,30.441,64.214,96.51l-3.69,38.24
		c-3.761,43.793,17.473,85.42,53.779,108.454c-20.038,0.888-35.93,17.414-35.93,37.67v0.035c0,4.682,3.633,8.512,8.315,8.512
		h123.538c1.279,0,2.559,0,3.84,0h40.509c-0.289,0-0.569,0.383-0.873,0.547c-4.185,2.261-9.727,4.368-16.079,5.933
		c-3.158,0.822-6.46,1.579-9.908,2.174c-3.425,0.617-6.943,1.14-10.508,1.551c-7.118,0.84-14.34,1.347-21.352,1.604
		c-7.01,0.26-13.793,0.298-20.124,0.351c-6.338,0.007-12.221-0.102-17.456-0.234c-5.247-0.152-9.844-0.344-13.646-0.498
		c-3.805-0.138-6.804-0.261-8.855-0.361c-2.048-0.093-3.141-0.142-3.141-0.142l-1.525-0.07c-15.466-0.656-29.099,10.666-31.048,26.3
		c-2.052,16.463,9.63,31.471,26.093,33.523c0,0,1.15,0.143,3.307,0.412c2.161,0.26,5.33,0.641,9.364,1.126
		c4.041,0.485,8.959,1.086,14.628,1.703c5.678,0.599,12.105,1.234,19.179,1.795c7.081,0.511,14.803,1.094,23.092,1.454
		c8.287,0.36,17.152,0.482,26.529,0.149c4.685-0.158,9.508-0.456,14.456-0.925c4.939-0.444,10.026-1.118,15.22-2.008
		c10.381-1.706,21.37-4.454,32.48-9.179c5.544-2.369,11.107-5.263,16.474-8.769c5.364-3.499,10.555-7.578,15.248-12.19
		c4.702-4.6,8.906-9.694,12.486-14.989c3.587-5.296,6.555-10.777,8.992-16.201c0.585-1.353,1.199-2.713,1.735-4.059
		c0.52-1.349,1.037-2.692,1.552-4.028c0.937-2.66,1.824-5.316,2.598-7.9c1.56-5.181,2.804-10.23,3.717-15.041
		c1.891-9.674,2.958-18.48,3.582-26.5c0.729-8.009,0.935-15.179,1.171-21.484c0.038-1.572,0.075-3.094,0.11-4.562
		c0.007-1.454,0.027-2.858,0.063-4.211c0.072-2.716,0.05-5.15,0.074-7.389c0-2.303-0.001-4.359-0.001-6.148
		c0.002-0.848,0.003-1.633,0.005-2.352c0.015-0.662,0.029-1.263,0.042-1.802c0.05-2.154,0.076-3.303,0.076-3.303
		C432.98,335.073,432.957,333.783,432.876,332.56z"/>
</g>
<g id="Layer_1">
</g>
</svg>
