<svg xmlns="http://www.w3.org/2000/svg" viewBox="0 0 512 512" enable-background="new 0 0 512 512"><path fill="#FFD833" d="M436.057 310.593C415.133 267.56 392.6 216.733 392.6 165.81l-.46 1.41c.002-.404.014-.805.014-1.21 0-58.927-37.27-111.967-89.523-132.44C270.3 17.4 231.608 6 220.845 3.756c-1.307-.273-2.345 1.085-1.748 2.28l4.077 8.153c.53 1.06-.24 2.31-1.428 2.31h-29.298c-.882 0-1.597.715-1.597 1.597 0 0 14.88 12.043 6.695 18.49l2.495.48c-47.958 22.57-81.42 73.11-81.42 128.943 0 .413.02.82.023 1.232l-.468-1.433c0 50.922-22.533 101.75-43.457 144.782s.407 40.138 43.457 25.117c2.05-.716 3.996-1.543 5.852-2.46 13.654 59.946 67.28 104.684 131.36 104.684S373.095 393.196 386.75 333.25c1.853.916 3.8 1.743 5.85 2.46 43.05 15.02 64.38 17.916 43.456-25.118z"/></svg>