<svg xmlns="http://www.w3.org/2000/svg" viewBox="0 0 512 512" enable-background="new 0 0 512 512"><path fill="#FFB941" d="M154.07 191.207l-1.686-.87c-.275-.14-.58-.3-.92-.473l-.258-.134-.582-.244-1.273-.542c-.877-.38-1.816-.796-2.807-1.253l-1.526-.712c-.458-.235-.85-.46-1.294-.704-1.73-.97-3.655-2.022-5.604-3.326-.98-.645-2.017-1.293-3.03-2.025-1.004-.74-2.043-1.51-3.115-2.303-4.188-3.258-8.542-7.22-12.652-11.93-4.113-4.706-7.988-10.152-11.29-16.282-3.3-6.126-6.033-12.944-7.833-20.304-1.823-7.334-2.608-15.3-2.035-23.36.52-8.042 2.654-16.202 6.118-23.47 3.423-7.315 8.333-13.564 13.617-18.457l.994-.913.497-.45.25-.225.06-.058c.165-.18-.274.32.38-.415l.1-.07 1.57-1.13c.746-.586 1.637-1.29 2.45-1.9.433-.34.78-.548 1.163-.807l1.124-.736c3.013-1.916 6.11-3.492 9.218-4.755 6.214-2.545 12.495-3.768 18.375-4.037 5.892-.24 11.406.495 16.212 1.95 4.816 1.412 8.893 3.542 12.127 5.783 3.243 2.247 5.646 4.632 7.39 6.7 1.75 2.068 2.877 3.817 3.603 5.013l1.057 1.853.08.138c1.22 2.144.475 4.87-1.668 6.09-1.774 1.013-3.952.67-5.34-.692l-1.158-1.138c-.77-.718-1.925-1.738-3.513-2.82-1.58-1.088-3.61-2.222-6.072-3.094-2.46-.87-5.343-1.515-8.533-1.59-3.177-.12-6.65.335-10.127 1.394-3.468 1.084-6.957 2.76-10.067 5.087-1.556 1.153-3.025 2.448-4.363 3.865-.313.355-.693.732-.955 1.06l-.797.987-1.164 1.497-.073.094c.32-.356.074-.075.138-.144l-.026.04-.104.16-.205.318-.41.636c-2.187 3.39-3.79 7.014-4.505 10.747-.74 3.722-.83 7.49-.16 11.158.636 3.658 1.838 7.195 3.543 10.404 1.678 3.213 3.746 6.11 5.978 8.59 2.232 2.484 4.624 4.545 6.953 6.185 2.33 1.644 4.592 2.865 6.61 3.79l1.478.63c.473.2.948.335 1.388.502.876.35 1.712.537 2.444.76l.525.152.387.06.688.13.303.07.15.035.282.054.996.19 1.828.347 3.767.72c15.705 2.996 26.007 18.156 23.01 33.86-2.997 15.706-18.157 26.008-33.862 23.01-2.756-.522-5.463-1.49-7.843-2.703z"/></svg>