<?xml version="1.0" encoding="iso-8859-1"?>
<!-- Generator: Adobe Illustrator 19.1.0, SVG Export Plug-In . SVG Version: 6.00 Build 0)  -->
<!DOCTYPE svg PUBLIC "-//W3C//DTD SVG 1.1//EN" "http://www.w3.org/Graphics/SVG/1.1/DTD/svg11.dtd">
<svg version="1.1" xmlns="http://www.w3.org/2000/svg" xmlns:xlink="http://www.w3.org/1999/xlink" x="0px" y="0px"
	 viewBox="0 0 512 512" enable-background="new 0 0 512 512" xml:space="preserve">
<g id="Layer_4">
	<path fill="#7EDBFC" d="M173.441,33.676l-27.405,6.038c-8.52,1.14-16.353-4.841-17.493-13.364
		c-1.143-8.521,4.841-16.353,13.364-17.495c3.173-0.425,6.245,0.137,8.916,1.452l24.074,14.419c2.349,1.151,3.318,3.991,2.168,6.34
		C176.346,32.531,174.94,33.465,173.441,33.676z M150.534,99.99c-1.413-2.201-4.344-2.845-6.546-1.432l-24.808,13.116
		c-2.509,1.603-4.581,3.939-5.862,6.873c-3.44,7.881,0.157,17.057,8.037,20.496c7.88,3.442,17.054-0.157,20.495-8.035l9.039-26.566
		C151.484,103.05,151.415,101.364,150.534,99.99z M254.139,66.947c0.728-2.405-0.629-4.948-3.034-5.676l-25.05-9.955
		c-2.736-0.834-5.735-0.892-8.678,0c-7.904,2.398-12.368,10.748-9.97,18.65c2.396,7.904,10.746,12.366,18.648,9.97l25.05-9.954
		C252.495,69.549,253.683,68.447,254.139,66.947z"/>
</g>
<g id="Layer_1">
</g>
</svg>
