<svg xmlns="http://www.w3.org/2000/svg" viewBox="0 0 512 512" enable-background="new 0 0 512 512"><path fill="#59CAFC" d="M343.584 287.292c-10.54-5.107-52.58-8.666-52.49-5.42.002.15-11.066.395-17.855 1.153-1.114-1.206-2.76-1.28-5.18.253-20.723 13.115-249.84 19.166-216.704 21.586 33.135 2.42 48.735 8.47 116.568 8.47 21.007 0 38.812.33 52.122.697 14.37.398 26.584 10.43 29.994 24.395 1.08 4.42 2.44 8.682 4.13 11.97 1.48 2.906 3.095 5.76 4.957 8.46 1.8 2.723 4.023 5.223 6.2 7.633 4.484 4.765 9.662 8.815 14.853 11.984 2.576 1.594 5.2 2.947 7.724 4.07 2.35 1.19 4.7 2.107 6.743 2.82 1.885.775 3.793 1.213 4.967 1.562l1.846.518c3.377.946 7.105-.44 8.975-3.6l.976-1.65c.61-1.065 1.685-2.7 2.51-4.564.985-1.927 2.05-4.214 2.924-6.7.374-.91.64-1.983.987-2.95-1.203-.49-2.444-1.035-3.694-1.67-2.523-1.12-5.148-2.474-7.724-4.067-5.19-3.17-10.37-7.22-14.853-11.984-2.178-2.41-4.4-4.91-6.2-7.634-1.863-2.698-3.478-5.55-4.958-8.46-1.69-3.286-3.05-7.547-4.128-11.968-1-4.095-1.075-9.797-.988-15.617 6.546-.477 16.756-3.31 16.747-3.052 52.878-7.434 64.09 45.547 64.09 56.398 0 14.464-5.123 27.693-13.6 38.083 9.676-2.324 18.588-7.27 25.178-14.902 9.13-10.57 14.654-24.338 14.654-39.41 0-25.74-14.988-44.877-38.766-56.398z"/></svg>