<?xml version="1.0" encoding="iso-8859-1"?>
<!-- Generator: Adobe Illustrator 18.1.0, SVG Export Plug-In . SVG Version: 6.00 Build 0)  -->
<!DOCTYPE svg PUBLIC "-//W3C//DTD SVG 1.1//EN" "http://www.w3.org/Graphics/SVG/1.1/DTD/svg11.dtd">
<svg version="1.1" xmlns="http://www.w3.org/2000/svg" xmlns:xlink="http://www.w3.org/1999/xlink" x="0px" y="0px"
	 viewBox="0 0 512 512" enable-background="new 0 0 512 512" xml:space="preserve">
<g id="Layer_3">
	<path fill="#FF4856" d="M78.389,142.269c-6.637-6.636-26.715-5.761-45.657,13.18c-1.615,1.615-3.148,3.021-4.609,4.265
		c-0.517,0.146-1.014,0.394-1.453,0.761c-0.503,0.419-0.819,0.423-1.097,0.39c-1.906-0.221-4.706-2.768-8.321-7.569
		c-0.348-0.462-0.627-0.829-0.821-1.063c-1.394-1.681-3.886-1.915-5.567-0.521c-1.681,1.393-1.915,3.886-0.521,5.567
		c0.141,0.17,0.339,0.438,0.592,0.773c2.251,2.989,4.808,6.045,7.701,8.13c-6.046,2.994-9.315,2.228-9.369,2.215
		c0.093,0.024,0.14,0.044,0.14,0.044l-2.585,7.474c0.369,0.127,1.618,0.498,3.666,0.498c4.974,0,14.653-2.189,27.835-15.371
		c16.398-16.4,31.993-15.661,34.474-13.18c1.544,1.544,4.048,1.544,5.592,0S79.933,143.813,78.389,142.269z"/>
</g>
<g id="Layer_1">
</g>
</svg>
