<svg xmlns="http://www.w3.org/2000/svg" viewBox="0 0 72 72" enable-background="new 0 0 72 72"><path fill="#2B3B47" d="M32.155 24.91h-.004c0 .005.006.007.006.01 0 1.1-.893 1.992-1.993 1.992s-1.993-.893-1.993-1.993v-.01h-.01l.024-2.8c.09-1.023.934-1.826 1.978-1.826 1.04 0 1.886.803 1.974 1.824l.02 2.8zm5.926 9.94c.893 0 1.733-.814 2.255-2.154-.625-.695-1.475-1.098-2.28-1.088-.814.016-1.62.417-2.225 1.088.52 1.34 1.36 2.154 2.25 2.154zm10.074-12.74c-.088-1.022-.934-1.825-1.978-1.825-1.04 0-1.886.803-1.974 1.824l-.023 2.8h.01v.01c0 1.1.89 1.99 1.987 1.99 1.1 0 1.993-.892 1.993-1.992v-.01l-.015-2.8z"/></svg>