<?xml version="1.0" encoding="iso-8859-1"?>
<!-- Generator: Adobe Illustrator 18.1.0, SVG Export Plug-In . SVG Version: 6.00 Build 0)  -->
<!DOCTYPE svg PUBLIC "-//W3C//DTD SVG 1.1//EN" "http://www.w3.org/Graphics/SVG/1.1/DTD/svg11.dtd">
<svg version="1.1" xmlns="http://www.w3.org/2000/svg" xmlns:xlink="http://www.w3.org/1999/xlink" x="0px" y="0px"
	 viewBox="0 0 512 512" enable-background="new 0 0 512 512" xml:space="preserve">
<g id="Layer_2">
	<path fill="#D19DAA" d="M445.744,264.722c0-24.956-4.828-48.783-13.585-70.61c50.268-50.726,56.858-115.138,49.601-131.299
		c-6.179-13.76-95.557-26.001-156.155,25.338c-21.551-8.503-45.032-13.174-69.605-13.174c-24.924,0-48.72,4.814-70.522,13.549
		C124.872,36.75,35.07,49.021,28.876,62.814c-7.303,16.264-0.576,81.392,50.571,132.263c-8.513,21.563-13.191,45.058-13.191,69.645
		c0,16.302,2.058,32.122,5.923,47.218c-6.423,11.648-9.909,24.107-9.909,37.06c0,64.682,50.031,117.117,193.729,117.117
		S449.729,413.682,449.729,349c0-12.953-3.486-25.412-9.909-37.06C443.686,296.844,445.744,281.024,445.744,264.722z"/>
</g>
<g id="Layer_1">
</g>
</svg>
