<?xml version="1.0" encoding="iso-8859-1"?>
<!-- Generator: Adobe Illustrator 18.1.0, SVG Export Plug-In . SVG Version: 6.00 Build 0)  -->
<!DOCTYPE svg PUBLIC "-//W3C//DTD SVG 1.1//EN" "http://www.w3.org/Graphics/SVG/1.1/DTD/svg11.dtd">
<svg version="1.1" xmlns="http://www.w3.org/2000/svg" xmlns:xlink="http://www.w3.org/1999/xlink" x="0px" y="0px"
	 viewBox="0 0 512 512" enable-background="new 0 0 512 512" xml:space="preserve">
<g id="Layer_3">
	<path fill="#B4ACAE" d="M307.646,265.95c-1.085-0.385-2.167-0.742-3.249-1.087c0.52-2.963,0.803-6.002,0.803-9.104
		c0-0.001,0-0.002,0-0.003c-0.001-30.433-12.688-22.316-13.928-50.709c-0.014-0.85-0.037-1.697-0.077-2.541
		c-0.013-0.693-0.022-1.398-0.022-2.131l-0.108-0.149c-1.107-14.967-6.148-28.935-14.177-41.032
		c1.439-3.345,2.891-6.825,4.338-10.414c1.989-4.931,3.982-10.057,5.902-15.3c1.924-5.242,3.825-10.586,5.657-15.944
		c1.812-5.367,3.575-10.741,5.25-16.032c1.682-5.288,3.228-10.522,4.7-15.556c1.466-5.037,2.816-9.911,4.06-14.489
		c1.26-4.568,2.334-8.9,3.376-12.792c0.979-3.816,1.876-7.313,2.672-10.414c0.757-3.013,1.4-5.501,1.853-7.453
		c0.113-0.477,0.22-0.928,0.32-1.352c0.088-0.416,0.17-0.807,0.246-1.17c0.067-0.342,0.153-0.696,0.2-0.977
		c0.048-0.287,0.092-0.548,0.131-0.782c0.049-0.253,0.075-0.438,0.088-0.607c0.02-0.175,0.037-0.322,0.05-0.44
		c0.032-0.246,0.049-0.373,0.049-0.373l0.81-6.217c0.774-5.941-3.414-11.384-9.355-12.158c-0.708-0.092-1.468-0.108-2.155-0.065
		c0,0-0.267,0.019-0.786,0.055c-0.263,0.022-0.591,0.05-0.979,0.082c-0.399,0.03-0.848,0.09-1.327,0.174
		c-0.495,0.087-1.047,0.184-1.656,0.291c-0.61,0.119-1.218,0.285-1.919,0.459c-0.704,0.178-1.432,0.377-2.19,0.62
		c-0.763,0.248-1.578,0.524-2.394,0.832c-3.343,1.221-7.127,3.034-11.122,5.392c-3.969,2.376-8.2,5.272-12.37,8.692
		c-4.181,3.412-8.377,7.315-12.461,11.621c-4.086,4.306-8.04,9.014-11.814,14.032c-3.77,5.02-7.354,10.336-10.65,15.881
		c-3.307,5.541-6.356,11.291-9.134,17.144c-4.074,8.67-7.536,17.568-10.257,26.39c-7.361-1.626-15.041-2.492-22.942-2.492
		c-1.084,0-2.162,0.022-3.237,0.054c1.616-4.816,3.197-9.632,4.701-14.38c1.682-5.288,3.228-10.522,4.7-15.556
		c1.466-5.037,2.816-9.911,4.06-14.489c1.26-4.568,2.334-8.9,3.376-12.792c0.979-3.816,1.876-7.313,2.672-10.414
		c0.757-3.013,1.4-5.501,1.853-7.453c0.113-0.477,0.22-0.928,0.32-1.352c0.088-0.416,0.17-0.807,0.246-1.17
		c0.067-0.342,0.153-0.696,0.2-0.977c0.048-0.287,0.092-0.548,0.131-0.782c0.049-0.253,0.075-0.438,0.088-0.607
		c0.02-0.175,0.037-0.322,0.05-0.44c0.032-0.246,0.049-0.373,0.049-0.373l0.81-6.217c0.774-5.941-3.414-11.384-9.355-12.158
		c-0.708-0.092-1.468-0.108-2.155-0.065c0,0-0.267,0.019-0.786,0.055c-0.263,0.022-0.591,0.05-0.979,0.082
		c-0.399,0.03-0.848,0.09-1.327,0.174c-0.495,0.087-1.047,0.184-1.656,0.291c-0.61,0.119-1.218,0.285-1.919,0.459
		c-0.704,0.178-1.432,0.377-2.19,0.62c-0.763,0.248-1.578,0.524-2.394,0.832c-3.343,1.221-7.127,3.034-11.122,5.392
		c-3.969,2.376-8.2,5.272-12.37,8.692c-4.181,3.412-8.377,7.315-12.461,11.621c-4.086,4.306-8.04,9.014-11.814,14.032
		c-3.77,5.02-7.354,10.336-10.65,15.881c-3.307,5.541-6.356,11.291-9.134,17.144c-5.508,11.724-9.907,23.864-12.852,35.668
		c-2.974,11.797-4.564,23.228-4.942,33.419c-0.071,1.886-0.093,3.711-0.091,5.505c-5.451,10.229-8.869,21.546-9.783,33.501
		l-0.256,0.349c0,34.006-13.915,22.001-13.915,55.385c0,29.26,24.071,53.197,54.557,55.228c-2.444,8.238-3.763,16.959-3.763,25.99
		c0,27.645,12.299,52.415,31.722,69.144c0,18.927,0,48.875,0,63.915c0,22.998,45.591,24.641,45.591,0c0-4.583,0-10.262,0-16.465
		c0-7.602,0-15.989,0-24.135c0-0.766,0-1.531,0-2.292c0.093,0.014,0.187,0.022,0.28,0.036c1.335-5.284,7.331-4.701,8.206,0.851
		c0.037,0.002,0.073,0.007,0.11,0.009c0,0.449,0,0.925,0,1.396c0,6.615,0,15.253,0,24.135c0,5.546,0,11.18,0,16.465
		c0,22.998,45.591,24.641,45.591,0c0-15.703,0-32.76,0-43.076c14.428,2.387,29.54,7.127,44.401,17.185
		c0.255,0.173,0.507,0.329,0.762,0.498c-6.571,0-12.874,0-18.348,0c-27.025,0-28.955,43.481,0,43.481c28.956,0,50.107,0,50.107,0
		l0,0c36.296,0,65.72-29.424,65.72-65.721c0-0.949-0.032-1.891-0.072-2.831C406.162,393.305,408.75,301.821,307.646,265.95z"/>
</g>
<g id="Layer_1">
</g>
</svg>
