<svg xmlns="http://www.w3.org/2000/svg" viewBox="0 0 512 512" enable-background="new 0 0 512 512"><path fill="#FFB636" d="M472.386 272.863c-.003-.212-.013-.422-.017-.633-.01-.437-.023-.873-.038-1.31-.015-.444-.032-.89-.053-1.333-.023-.475-.048-.95-.077-1.423-.023-.377-.047-.754-.074-1.13-.04-.56-.085-1.117-.133-1.674-.023-.262-.047-.524-.072-.785-.065-.686-.137-1.37-.215-2.05-.01-.105-.024-.21-.036-.314-1.132-9.554-3.584-18.72-7.17-27.32-.045-11.26-1.292-22.436-3.618-33.41 35.614-42.06 39.743-95.013 34.76-137.924-5.326-45.863-56.03-71.304-96.19-48.524-19.774 11.217-40.2 26.34-56.964 46.456-26.523-11.72-56.1-18.43-87.426-18.43-31.303 0-60.863 6.698-87.372 18.403-16.76-20.103-37.176-35.22-56.94-46.43-40.16-22.78-90.866 2.66-96.192 48.525-4.98 42.885-.86 95.802 34.696 137.85-2.38 11.198-3.637 22.61-3.637 34.107 0 .385.016.765.02 1.148-3.2 8.087-5.42 16.644-6.476 25.552l-.037.313c-.08.682-.15 1.365-.215 2.05-.024.262-.048.524-.07.786-.05.557-.094 1.115-.133 1.674-.028.376-.053.753-.075 1.13-.028.474-.054.948-.076 1.423-.02.444-.04.89-.054 1.334-.014.437-.027.873-.036 1.31-.004.21-.014.42-.017.633-.003.27 0 .54 0 .81-.003.23-.01.457-.01.688 0 .115.007.227.007.34.004 1.23.028 2.456.075 3.676.008.21.02.416.03.624.052 1.185.122 2.366.215 3.542.008.107.014.215.023.322.1 1.228.23 2.448.374 3.664.03.245.058.49.09.733.15 1.195.317 2.38.508 3.56.032.2.068.396.1.593.193 1.14.4 2.277.63 3.406.023.11.043.224.066.336.245 1.18.514 2.352.798 3.518.058.237.115.474.175.71.288 1.147.593 2.287.92 3.42.053.183.11.364.163.548.32 1.092.658 2.175 1.014 3.25l.112.348c.376 1.126.777 2.242 1.192 3.35l.256.68c.418 1.09.85 2.176 1.304 3.25.072.17.147.34.22.51.442 1.032.9 2.056 1.373 3.07l.16.35c.502 1.064 1.026 2.116 1.564 3.16l.33.64c.54 1.03 1.093 2.05 1.666 3.062.088.156.18.31.27.465.554.967 1.123 1.925 1.707 2.873.07.114.138.23.21.344.618.994 1.257 1.975 1.908 2.948.133.197.265.394.4.59.652.96 1.32 1.913 2.004 2.852.1.138.204.274.306.412.658.895 1.33 1.78 2.018 2.653.088.11.174.225.263.336.728.915 1.47 1.815 2.227 2.706l.463.542c.758.882 1.53 1.755 2.316 2.612.11.12.224.24.336.36.757.816 1.527 1.622 2.31 2.415l.31.316c.824.83 1.665 1.642 2.517 2.444.17.162.344.324.52.486.854.796 1.722 1.58 2.605 2.348.118.103.24.203.358.306.848.73 1.708 1.45 2.58 2.156.117.096.233.193.352.288.916.735 1.848 1.454 2.79 2.16.188.142.377.282.566.423.948.7 1.904 1.39 2.875 2.06.123.085.25.168.372.253.93.636 1.868 1.258 2.818 1.866.136.087.27.176.406.262.998.632 2.01 1.246 3.028 1.846.203.12.407.24.612.358 1.028.597 2.065 1.18 3.115 1.744.125.067.253.132.378.2 1.005.534 2.02 1.053 3.045 1.558.15.073.296.15.446.222 1.07.522 2.154 1.023 3.245 1.51.216.098.433.193.65.29 1.102.483 2.21.953 3.332 1.4l.377.148c1.074.426 2.157.834 3.25 1.226.11.04.216.084.325.123 22.187 7.9 37.974 51.384 37.974 51.384 3.596 19.616 18.247 35.497 37.472 41.36C199.96 488.827 225.94 504 255.476 504c29.555 0 55.55-15.192 70.64-38.182 19.154-5.898 33.743-21.747 37.33-41.314 0 0 15.786-43.485 37.974-51.384.11-.04.217-.084.326-.123 1.092-.393 2.175-.8 3.25-1.226.125-.05.252-.095.377-.145 1.12-.45 2.23-.92 3.332-1.402.217-.095.434-.19.65-.288 1.09-.488 2.174-.99 3.245-1.51.15-.074.297-.15.446-.223 1.024-.504 2.04-1.023 3.045-1.558.128-.067.255-.132.38-.2 1.05-.563 2.087-1.147 3.115-1.743l.613-.36c1.02-.6 2.03-1.212 3.027-1.844.136-.086.27-.175.406-.262.95-.608 1.89-1.23 2.82-1.866.124-.085.25-.167.37-.253.973-.67 1.93-1.36 2.876-2.06.19-.14.38-.28.567-.423.94-.705 1.873-1.424 2.79-2.16.117-.094.233-.192.352-.287.872-.706 1.73-1.424 2.58-2.156.118-.104.238-.204.357-.307.884-.767 1.75-1.55 2.608-2.347l.52-.487c.852-.803 1.694-1.616 2.518-2.445.104-.104.205-.21.31-.316.783-.795 1.553-1.6 2.31-2.42.112-.12.224-.236.334-.355.788-.858 1.56-1.73 2.318-2.613.155-.18.31-.362.463-.543.757-.89 1.5-1.79 2.226-2.707.09-.11.173-.224.262-.336.686-.873 1.36-1.758 2.018-2.653.1-.137.205-.273.306-.41.685-.94 1.35-1.892 2.005-2.853l.398-.59c.65-.97 1.29-1.952 1.91-2.947l.208-.345c.585-.948 1.154-1.906 1.708-2.873l.27-.465c.572-1.01 1.125-2.032 1.665-3.063l.33-.638c.537-1.046 1.06-2.098 1.563-3.16.055-.118.106-.235.16-.35.475-1.016.932-2.04 1.373-3.07.073-.17.148-.34.22-.51.454-1.077.887-2.16 1.304-3.253l.255-.678c.415-1.11.816-2.226 1.193-3.35.04-.117.074-.234.112-.35.356-1.075.693-2.16 1.014-3.25.054-.182.11-.364.163-.55.326-1.13.63-2.27.92-3.417.06-.236.117-.473.175-.71.284-1.166.553-2.338.797-3.518.02-.112.04-.225.064-.337.23-1.13.437-2.264.63-3.406.032-.198.068-.394.1-.592.19-1.18.36-2.367.51-3.56.03-.244.06-.488.088-.733.144-1.216.273-2.436.374-3.664.01-.106.015-.214.023-.32.092-1.176.163-2.358.215-3.544l.03-.625c.046-1.22.07-2.446.074-3.676 0-.115.006-.227.006-.34 0-.23-.008-.46-.01-.69 0-.265.003-.533 0-.804z"/></svg>