<?xml version="1.0" encoding="iso-8859-1"?>
<!-- Generator: Adobe Illustrator 18.1.0, SVG Export Plug-In . SVG Version: 6.00 Build 0)  -->
<!DOCTYPE svg PUBLIC "-//W3C//DTD SVG 1.1//EN" "http://www.w3.org/Graphics/SVG/1.1/DTD/svg11.dtd">
<svg version="1.1" xmlns="http://www.w3.org/2000/svg" xmlns:xlink="http://www.w3.org/1999/xlink" x="0px" y="0px"
	 viewBox="0 0 512 512" enable-background="new 0 0 512 512" xml:space="preserve">
<g id="Layer_10">
	<path fill="#FFD469" d="M393.497,66.933c0,0,0.102,0.163,0.298,0.478c0.191,0.314,0.507,0.79,0.832,1.381
		c0.35,0.6,0.759,1.332,1.187,2.174c0.466,0.855,0.913,1.808,1.416,2.876c1.009,2.136,2.026,4.658,3.036,7.497
		c0.997,2.834,1.895,5.952,2.624,9.267c1.465,6.632,2.162,14.018,1.674,21.503c-0.436,7.503-2.094,15.092-4.79,22.32
		c-1.35,3.613-2.92,7.151-4.722,10.543c-1.782,3.4-3.832,6.642-6.009,9.714c-4.382,6.132-9.514,11.494-14.685,15.822
		c-2.59,2.162-5.146,4.081-7.638,5.703c-1.243,0.812-2.376,1.583-3.557,2.249c-1.138,0.681-2.197,1.302-3.235,1.835
		c-0.507,0.27-0.987,0.526-1.438,0.767c-0.478,0.232-0.926,0.449-1.342,0.651c-0.817,0.41-1.576,0.736-2.184,1.004
		c-0.592,0.273-1.12,0.456-1.443,0.591c-0.333,0.132-0.505,0.199-0.505,0.199c-4.8,1.895-10.169-0.071-12.681-4.403
		c0,0-0.093-0.16-0.273-0.469c-0.17-0.306-0.471-0.777-0.766-1.358c-0.311-0.586-0.704-1.313-1.091-2.141
		c-0.202-0.417-0.419-0.865-0.65-1.343c-0.205-0.469-0.423-0.967-0.653-1.494c-0.485-1.061-0.931-2.205-1.401-3.445
		c-0.514-1.255-0.926-2.562-1.398-3.97c-0.951-2.818-1.767-5.908-2.46-9.21c-1.375-6.601-2.08-13.989-1.718-21.518
		c0.195-3.759,0.595-7.575,1.304-11.347c0.688-3.78,1.648-7.528,2.828-11.201c2.364-7.344,5.767-14.326,10.074-20.485
		c4.256-6.176,9.381-11.541,14.641-15.838c2.627-2.149,5.264-4.04,7.803-5.646c2.552-1.601,4.913-2.95,7.029-4.001
		c1.056-0.526,1.998-0.997,2.894-1.379c0.858-0.396,1.632-0.717,2.279-0.971c0.621-0.263,1.164-0.441,1.509-0.568
		c0.35-0.126,0.53-0.191,0.53-0.191C385.64,60.795,390.893,62.75,393.497,66.933z M111.685,285.085c0,0,0.007,0.192,0.021,0.563
		c0.017,0.367,0.023,0.938,0.084,1.61c0.046,0.693,0.117,1.528,0.234,2.466c0.093,0.97,0.256,2.01,0.437,3.176
		c0.361,2.335,0.93,4.994,1.683,7.911c0.761,2.906,1.764,5.992,3.016,9.147c2.501,6.315,6.06,12.824,10.655,18.752
		c4.563,5.971,10.186,11.33,16.468,15.809c3.142,2.238,6.424,4.289,9.817,6.09c3.38,1.819,6.895,3.357,10.418,4.682
		c7.065,2.626,14.319,4.194,21.027,4.885c3.357,0.341,6.549,0.5,9.522,0.448c1.484-0.023,2.855-0.019,4.206-0.129
		c1.324-0.073,2.549-0.151,3.707-0.291c0.571-0.06,1.112-0.116,1.621-0.17c0.526-0.076,1.018-0.146,1.477-0.212
		c0.906-0.118,1.718-0.273,2.371-0.391c0.643-0.105,1.183-0.249,1.526-0.318c0.35-0.078,0.53-0.118,0.53-0.118
		c4.89-1.081,8.39-5.601,8.04-10.75c0,0-0.013-0.184-0.037-0.542c-0.031-0.349-0.045-0.908-0.126-1.554
		c-0.071-0.66-0.152-1.482-0.295-2.385c-0.066-0.458-0.138-0.951-0.214-1.477c-0.093-0.503-0.191-1.038-0.295-1.603
		c-0.193-1.151-0.464-2.348-0.768-3.639c-0.277-1.327-0.668-2.641-1.065-4.071c-0.79-2.867-1.845-5.884-3.12-9.008
		c-2.557-6.239-6.111-12.755-10.627-18.79c-2.267-3.006-4.735-5.943-7.435-8.671c-2.687-2.746-5.582-5.314-8.616-7.696
		c-6.071-4.76-12.801-8.64-19.818-11.33c-6.985-2.733-14.235-4.308-20.999-4.922c-3.38-0.309-6.624-0.399-9.627-0.308
		c-3.011,0.102-5.723,0.307-8.064,0.621c-1.17,0.156-2.213,0.293-3.17,0.478c-0.933,0.153-1.754,0.32-2.432,0.472
		c-0.662,0.13-1.212,0.287-1.568,0.374c-0.36,0.092-0.546,0.139-0.546,0.139C114.95,275.549,111.495,279.962,111.685,285.085z"/>
</g>
<g id="Layer_1">
</g>
</svg>
