<?xml version="1.0" encoding="iso-8859-1"?>
<!-- Generator: Adobe Illustrator 18.1.0, SVG Export Plug-In . SVG Version: 6.00 Build 0)  -->
<!DOCTYPE svg PUBLIC "-//W3C//DTD SVG 1.1//EN" "http://www.w3.org/Graphics/SVG/1.1/DTD/svg11.dtd">
<svg version="1.1" xmlns="http://www.w3.org/2000/svg" xmlns:xlink="http://www.w3.org/1999/xlink" x="0px" y="0px"
	 viewBox="0 0 512 512" enable-background="new 0 0 512 512" xml:space="preserve">
<g id="Layer_6">
	<path fill="#2B3B47" d="M24.456,128.48c0,0,3.43,0.974,6.86,1.949c3.466,0.836,6.95,1.6,6.95,1.6
		c2.719,0.596,4.44,3.283,3.844,6.002c-0.315,1.435-1.211,2.592-2.388,3.277l-4.51,2.602c0,0-1.08,0.623-2.521,0.859
		c-0.703,0.05-1.584,0.346-2.396,0.149c-0.824-0.149-1.76-0.088-2.594-0.422c-0.837-0.325-1.673-0.649-2.458-0.953
		c-0.757-0.412-1.426-0.941-2.018-1.321C19.595,140.55,20.22,127.391,24.456,128.48z"/>
</g>
<g id="Layer_1">
</g>
</svg>
