<?xml version="1.0" encoding="iso-8859-1"?>
<!-- Generator: Adobe Illustrator 18.1.0, SVG Export Plug-In . SVG Version: 6.00 Build 0)  -->
<!DOCTYPE svg PUBLIC "-//W3C//DTD SVG 1.1//EN" "http://www.w3.org/Graphics/SVG/1.1/DTD/svg11.dtd">
<svg version="1.1" xmlns="http://www.w3.org/2000/svg" xmlns:xlink="http://www.w3.org/1999/xlink" x="0px" y="0px"
	 viewBox="0 0 512 512" enable-background="new 0 0 512 512" xml:space="preserve">
<g id="Layer_2">
	<path fill="#59CAFC" d="M343.584,287.292c-10.541-5.107-52.581-8.666-52.489-5.421c0.001,0.151-11.067,0.396-17.856,1.154
		c-1.112-1.206-2.757-1.28-5.179,0.253c-20.722,13.115-249.839,19.166-216.703,21.586c33.135,2.421,48.735,8.471,116.568,8.471
		c21.007,0,38.812,0.329,52.122,0.696c14.369,0.396,26.584,10.429,29.994,24.393c1.08,4.421,2.438,8.682,4.128,11.969
		c1.48,2.907,3.096,5.76,4.958,8.46c1.801,2.724,4.023,5.224,6.199,7.634c4.485,4.765,9.663,8.815,14.854,11.984
		c2.576,1.593,5.201,2.946,7.724,4.068c2.35,1.191,4.699,2.108,6.743,2.82c1.885,0.776,3.793,1.214,4.967,1.563
		c1.204,0.338,1.846,0.518,1.846,0.518c3.377,0.946,7.105-0.44,8.975-3.601c0,0,0.339-0.574,0.976-1.65
		c0.607-1.064,1.683-2.7,2.509-4.563c0.984-1.927,2.048-4.214,2.923-6.699c0.374-0.91,0.641-1.984,0.987-2.951
		c-1.204-0.489-2.445-1.035-3.695-1.669c-2.523-1.122-5.148-2.475-7.724-4.068c-5.191-3.169-10.37-7.218-14.854-11.984
		c-2.177-2.41-4.398-4.91-6.199-7.634c-1.863-2.699-3.478-5.552-4.958-8.46c-1.69-3.287-3.049-7.548-4.128-11.969
		c-1-4.095-1.075-9.797-0.988-15.617c6.546-0.477,16.756-3.311,16.747-3.052c52.877-7.434,64.09,45.547,64.09,56.398
		c0,14.463-5.124,27.692-13.602,38.082c9.677-2.324,18.589-7.27,25.179-14.902c9.13-10.572,14.653-24.339,14.653-39.411
		C382.351,317.95,367.362,298.813,343.584,287.292z"/>
</g>
<g id="Layer_1">
</g>
</svg>
