<svg xmlns="http://www.w3.org/2000/svg" viewBox="0 0 512 512" enable-background="new 0 0 512 512"><path fill="#626566" d="M240.212 303.207c-17.568 53.328-64.03 85.945-103.775 72.852s-57.724-66.94-40.155-120.27 64.03-85.945 103.775-72.85c39.745 13.092 57.723 66.937 40.155 120.266zm31.574 0c17.568 53.328 64.03 85.945 103.775 72.852s57.726-66.94 40.158-120.27-64.03-85.944-103.775-72.85c-39.745 13.092-57.724 66.937-40.156 120.266zm-38.184 60.104s-12.845 3.288-20.162 8.216c-3.923 2.464-6.268 5.34-7.377 8.42-1.273 3.08.454 6.365 2.408 9.65 4.1 6.572 7.04 13.143 11.397 18.072 3.672 4.928 7.576 8.214 7.576 8.214 16.197 13.66 40.354 14.108 57.113 0 0 0 3.904-3.285 7.576-8.213 4.358-4.93 7.296-11.5 11.396-18.07 1.954-3.288 3.68-6.573 2.408-9.654-1.108-3.08-3.454-5.955-7.377-8.42-7.318-4.927-20.163-8.213-20.163-8.213-14.12-3.557-29.693-3.86-44.793 0z"/></svg>