<?xml version="1.0" encoding="iso-8859-1"?>
<!-- Generator: Adobe Illustrator 18.1.0, SVG Export Plug-In . SVG Version: 6.00 Build 0)  -->
<!DOCTYPE svg PUBLIC "-//W3C//DTD SVG 1.1//EN" "http://www.w3.org/Graphics/SVG/1.1/DTD/svg11.dtd">
<svg version="1.1" xmlns="http://www.w3.org/2000/svg" xmlns:xlink="http://www.w3.org/1999/xlink" x="0px" y="0px"
	 viewBox="0 0 512 512" enable-background="new 0 0 512 512" xml:space="preserve">
<g id="Layer_3">
	<path fill="#D1CFC3" d="M64.44,145.744c0,0-0.422-1.044-1.16-2.872c-0.731-1.805-1.777-4.382-3.109-7.415
		c-1.335-3.025-2.939-6.528-4.866-10.039c-0.951-1.761-1.975-3.534-3.093-5.198c-1.121-1.661-2.288-3.269-3.522-4.597
		c-0.613-0.668-1.237-1.273-1.845-1.766c-0.154-0.14-0.302-0.232-0.453-0.355l-0.113-0.088l-0.028-0.022l-0.014-0.011
		c0.041,0.019-0.112-0.059,0.089,0.04l-0.093-0.059l-0.37-0.236l-0.611-0.392c-0.162-0.107-0.322-0.218-0.545-0.339
		c-1.632-0.971-3.559-1.759-5.491-2.556c-1.947-0.788-3.947-1.471-5.867-2.205c-1.922-0.738-3.785-1.421-5.485-2.198
		c-3.417-1.496-6.187-3.178-7.899-4.632c-0.871-0.704-1.486-1.341-1.892-1.777c-0.395-0.446-0.605-0.684-0.605-0.684
		c-0.39-0.441-0.349-1.116,0.092-1.506c0.328-0.29,0.784-0.342,1.158-0.168l0.079,0.037c0,0,0.254,0.119,0.731,0.341
		c0.482,0.209,1.192,0.494,2.111,0.791c1.837,0.603,4.53,1.151,7.9,1.484c1.688,0.158,3.538,0.326,5.546,0.461
		c2.012,0.135,4.166,0.335,6.484,0.602c2.324,0.278,4.783,0.714,7.424,1.489c0.316,0.087,0.683,0.211,1.05,0.338l0.968,0.338
		l0.414,0.145l0.104,0.036l0.238,0.112l0.27,0.122c0.354,0.167,0.734,0.326,1.067,0.508c1.397,0.703,2.656,1.506,3.832,2.348
		c2.351,1.693,4.39,3.532,6.191,5.435c1.815,1.897,3.432,3.823,4.91,5.722c2.927,3.815,5.292,7.504,7.182,10.721
		c1.883,3.218,3.299,5.958,4.251,7.892c0.477,0.966,0.854,1.792,1.076,2.263c0.232,0.498,0.355,0.764,0.355,0.764
		c2.089,4.493,0.141,9.829-4.352,11.918c-4.493,2.089-9.829,0.141-11.918-4.352c-0.061-0.131-0.118-0.262-0.172-0.395L64.44,145.744
		z"/>
</g>
<g id="Layer_1">
</g>
</svg>
