<?xml version="1.0" encoding="iso-8859-1"?>
<!-- Generator: Adobe Illustrator 18.1.0, SVG Export Plug-In . SVG Version: 6.00 Build 0)  -->
<!DOCTYPE svg PUBLIC "-//W3C//DTD SVG 1.1//EN" "http://www.w3.org/Graphics/SVG/1.1/DTD/svg11.dtd">
<svg version="1.1" xmlns="http://www.w3.org/2000/svg" xmlns:xlink="http://www.w3.org/1999/xlink" x="0px" y="0px"
	 viewBox="0 0 512 512" enable-background="new 0 0 512 512" xml:space="preserve">
<g id="Layer_5">
	<path fill="#047F67" d="M292.544,135.026v-0.181c-0.07,0-0.135,0.018-0.205,0.018c-0.07,0-0.134-0.018-0.204-0.018v0.036
		c-0.306,0-0.624,0.056-0.93,0.059c-0.306-0.002-0.625-0.059-0.931-0.059v-0.036c-0.07,0-0.134,0.018-0.204,0.018
		c-0.07,0-0.205,0.163-0.205,0.163c-70.275,1.536-158.841,65.657-158.841,150.739c0,11.522,14.407,71.957,158.843,72.734v0.072
		c0.072,0,0.132-0.005,0.204-0.005s0.131,0.005,0.203,0.005v-0.011c0.329,0,0.605-0.025,0.932-0.025
		c0.327,0,0.602,0.025,0.931,0.025v0.011c0.072,0,0.131-0.005,0.203-0.005c0.072,0,0.132,0.005,0.204,0.005v-0.072
		c144.435-0.777,158.843-61.212,158.843-72.734C451.385,200.683,362.819,136.562,292.544,135.026z M219.695,271.888
		c-9.418,59.56-36.174,29.1-43.988,23.085c-7.814-6.015-14.88-20.238,2.376-55.119c23.996-48.506,61.321-71.516,69.135-65.501
		S234.111,180.717,219.695,271.888z M291.205,319.891c-11.673,0-31.083,4.246-31.083-39.475c0-43.721,19.41-107.001,31.083-107.001
		c11.673,0,31.083,63.281,31.083,107.001C322.288,324.137,302.878,319.891,291.205,319.891z M406.703,294.973
		c-7.814,6.015-34.57,36.475-43.988-23.085c-14.416-91.171-35.336-91.52-27.522-97.535s45.139,16.996,69.135,65.501
		C421.583,274.736,414.517,288.958,406.703,294.973z"/>
</g>
<g id="Layer_1">
</g>
</svg>
