<svg xmlns="http://www.w3.org/2000/svg" viewBox="0 0 512 512" enable-background="new 0 0 512 512"><path fill="#FFA1E0" d="M464.142 414.09l-1.358-.873-3.944-2.48c-3.46-2.172-8.603-5.185-15.26-8.886-3.328-1.854-7.038-3.87-11.11-6.026-4.07-2.172-8.512-4.446-13.312-6.755-9.597-4.638-20.576-9.7-32.827-14.84-12.24-5.22-25.785-10.226-40.457-15.153-7.34-2.45-14.965-4.768-22.865-7.003-3.88-1.142-8.122-2.202-12.357-3.29l-5.8-1.557c-.952-.26-1.91-.518-2.867-.777l-.36-.098c-.218-.016.236-.033-.535-.048l-.136-.034-.542-.137-1.086-.272c-11.586-2.747-21.596-8.345-27.23-14.27-2.876-2.97-4.743-5.805-6.32-8.224-1.587-2.436-2.93-4.598-4.884-6.982-1.902-2.393-4.34-5.185-7.156-8.804-1.372-1.822-2.726-3.88-4.222-6.077-.73-1.113-1.458-2.27-2.185-3.476-.71-1.22-1.456-2.46-2.23-3.74-6.005-10.315-12.3-23.12-19.05-36.77-3.392-6.83-6.876-13.896-10.57-21.048-3.73-7.145-7.543-14.41-11.644-21.65-4.12-7.234-8.497-14.458-13.318-21.5-4.782-7.054-10-13.955-15.843-20.345-5.85-6.367-12.246-12.29-19.073-17.195-6.815-4.91-13.93-8.87-20.865-11.594-3.406-1.368-6.757-2.46-9.987-3.312.233-1.248.453-2.515.64-3.806.37-2.414.66-4.892.857-7.394.216-2.5.295-5.03.298-7.54.007-2.51-.145-5.008-.383-7.443-.236-2.434-.65-4.812-1.148-7.08-.493-2.265-1.18-4.42-1.914-6.404-.755-1.985-1.626-3.794-2.52-5.375-.442-.79-.928-1.514-1.35-2.19l-1.318-1.81c-.872-1.063-1.583-1.89-2.13-2.417l-.815-.824c-.227-.227-.5-.474-.76-.676-3.37-2.612-8.217-1.998-10.83 1.37s-1.997 8.216 1.37 10.828l.18.14.436.34c.3.197.698.568 1.23 1.035l.84.867c.284.358.62.713.944 1.147.654.863 1.36 1.918 2.05 3.19.67 1.282 1.376 2.735 1.97 4.403.597 1.66 1.175 3.477 1.623 5.44.45 1.96.856 4.03 1.128 6.187.274 2.153.497 4.372.59 6.618.113 2.244.14 4.51.088 6.747-.013.924-.054 1.838-.1 2.75-.174-.026-.354-.06-.528-.083-6-.85-11.352-1.042-16.037-.84-2.52.085-4.844.282-6.99.53.02-.635.048-1.26.06-1.91.03-2.3.036-4.69-.08-7.125-.093-2.435-.277-4.918-.557-7.407-.26-2.49-.66-4.984-1.132-7.444-.47-2.46-1.09-4.88-1.785-7.222-.692-2.342-1.55-4.594-2.467-6.72-.912-2.13-1.995-4.11-3.09-5.916-1.118-1.802-2.316-3.41-3.493-4.79-.585-.692-1.2-1.31-1.742-1.893l-1.64-1.525c-1.057-.877-1.912-1.55-2.55-1.965l-.957-.653c-.298-.2-.65-.408-.982-.57-3.835-1.863-8.455-.263-10.317 3.573-1.863 3.836-.263 8.456 3.573 10.318l.168.08.496.242c.333.132.8.414 1.418.763l1.003.677c.353.293.755.573 1.163.933.82.713 1.73 1.604 2.666 2.712.92 1.123 1.91 2.407 2.833 3.924.926 1.51 1.863 3.177 2.704 5.014.84 1.834 1.66 3.787 2.367 5.85.708 2.06 1.378 4.196 1.926 6.384.567 2.182 1.054 4.4 1.457 6.612.424 2.207.73 4.41 1.01 6.55.113.912.208 1.807.298 2.695-.745.15-1.458.303-2.13.456-1.42.335-2.617.604-3.835.915l-3.122.8-1.818.65-1.48.534c-3.023 1.095-5.71 3.215-7.467 6.203-4 6.808-1.724 15.57 5.084 19.57l4.115 2.42.397.232c.262.16.653.375 1.17.65.514.273 1.16.643 1.917 1.02.636.397 1.373.855 2.207 1.37 1.656 1.05 3.78 2.25 6.04 3.636 2.263 1.432 4.734 2.96 7.195 4.75 2.474 1.707 4.91 3.712 7.16 5.728 1.1 1.076 2.202 2.05 3.177 3.194.51.53.987 1.08 1.467 1.622.455.576.918 1.128 1.345 1.716 1.746 2.3 3.134 4.883 4.32 7.815 1.184 2.94 2.18 6.266 3.04 10.19 1.72 7.818 2.866 18.03 3.548 30.37.39 6.15.76 12.793 1.08 19.933.368 7.128.852 14.708 1.567 22.754 1.484 16.086 3.876 34.026 9.6 53.96 2.888 9.948 6.627 20.44 11.828 31.207 5.104 10.79 11.837 21.844 20.557 32.22 8.664 10.374 19.436 19.857 31.322 27.306 2.955 1.884 5.992 3.62 9.066 5.223 3.062 1.628 6.172 3.122 9.308 4.455 6.242 2.747 12.604 4.848 18.834 6.613 12.494 3.534 24.638 5.128 35.972 5.853 2.852.192 5.63.268 8.4.345 2.74.022 5.472.05 8.126.025 5.34-.033 10.51-.267 15.515-.657l1.875-.146.935-.075.234-.02c-.797-.01-.118-.018-.25-.027l.362-.055 2.877-.442 5.594-.865c3.234-.527 6.35-1.092 9.82-1.542 6.766-.992 13.45-1.706 20.008-2.47 6.56-.748 12.99-1.322 19.242-1.83l9.242-.655c3.036-.224 6.022-.415 8.953-.577 5.863-.34 11.503-.57 16.883-.737 5.39-.225 10.51-.334 15.335-.418l13.54-.145c4.19-.024 8.043-.01 11.512.04 6.947.09 12.365.312 16.018.373 3.656.098 5.46.17 5.24.105 8.083 2.4 16.582-2.204 18.983-10.286 2.402-8.083-2.204-16.58-10.286-18.983z"/></svg>