<?xml version="1.0" encoding="iso-8859-1"?>
<!-- Generator: Adobe Illustrator 18.1.0, SVG Export Plug-In . SVG Version: 6.00 Build 0)  -->
<!DOCTYPE svg PUBLIC "-//W3C//DTD SVG 1.1//EN" "http://www.w3.org/Graphics/SVG/1.1/DTD/svg11.dtd">
<svg version="1.1" xmlns="http://www.w3.org/2000/svg" xmlns:xlink="http://www.w3.org/1999/xlink" x="0px" y="0px"
	 viewBox="0 0 512 512" enable-background="new 0 0 512 512" xml:space="preserve">
<g id="Layer_3">
	<path fill="#CAD3D8" d="M442.585,273.41c0.479-2.546,2.365-14.132,2.979-17.41c0,0-0.027-9.724-0.001-14.847
		c0.072-13.993-2.378-25.876-6.572-35.729c10.01-9.981,27.855-28.089,27.872-48.292c0.008-9.422-3.795-18.008-11.304-25.517
		c-2.806-2.807-7.355-2.807-10.163,0c-2.806,2.806-2.806,7.357,0,10.163c4.779,4.779,7.1,9.797,7.095,15.341
		c-0.011,12.829-12.172,26.482-20.835,35.298c-11.513-15.823-28.586-23.545-45.052-23.629
		c-28.668-0.147-49.803,14.413-102.361,14.144c-40.82-0.209-70.878,0.142-91.521-15.836c-14.032-10.861-40.676-16.519-53.578-4.337
		c-11.046,10.428-20.821,27.261-20.958,54.198c-0.157,30.684,21.898,70.306,55.448,84.974l-2.333,0.226
		c14.52,55.09,27.419,78.003,24.228,107.96c-2.262-0.587-4.634-0.901-7.08-0.901c-15.52,0-28.102,12.582-28.102,28.102
		s12.582,18.335,28.102,18.335s28.102-2.815,28.102-18.335c0-1.454-0.11-2.883-0.323-4.277c2.842-11.19,8.587-35.993,8.587-53.678
		c0-18.605,2.312-59.626,3.275-75.901c44.724-10.509,59.29-24.2,82.427-30.432c14.08-3.793,29.017,1.338,38.051,12.784
		c13.341,16.902,30.099,62.377,47.707,67.691c25.996,7.845,35.839,38.07,39.424,55.725c-15.278,0.28-27.578,12.744-27.578,28.089
		c0,15.52,12.582,18.335,28.102,18.335s28.102-2.815,28.102-18.335c0-5.597-1.643-10.808-4.464-15.188
		C458.041,327.755,430.356,353.502,442.585,273.41z"/>
</g>
<g id="Layer_1">
</g>
</svg>
