<?xml version="1.0" encoding="iso-8859-1"?>
<!-- Generator: Adobe Illustrator 18.1.0, SVG Export Plug-In . SVG Version: 6.00 Build 0)  -->
<!DOCTYPE svg PUBLIC "-//W3C//DTD SVG 1.1//EN" "http://www.w3.org/Graphics/SVG/1.1/DTD/svg11.dtd">
<svg version="1.1" xmlns="http://www.w3.org/2000/svg" xmlns:xlink="http://www.w3.org/1999/xlink" x="0px" y="0px"
	 viewBox="0 0 512 512" enable-background="new 0 0 512 512" xml:space="preserve">
<g id="Layer_3">
	<path fill="#FFD833" d="M410.7,326.01c-14.319-29.45-29.504-63.146-35.106-97.749c9.294-18.299,14.536-39.002,14.536-60.93
		c0-58.057-36.719-110.311-88.198-130.482C270.08,20.92,231.958,9.689,221.355,7.478c-1.288-0.268-2.311,1.069-1.722,2.245
		l4.017,8.033c0.523,1.046-0.238,2.277-1.407,2.277h-28.865c-0.869,0-1.573,0.704-1.573,1.573c0,0,14.66,11.865,6.597,18.217
		l2.458,0.47c-47.249,22.237-80.214,72.03-80.214,127.036c0,21.929,5.243,42.632,14.536,60.931
		c-5.602,34.603-20.787,68.299-35.106,97.749c-16.963,34.888-1.617,34.658,31.226,23.688
		c19.031,50.002,67.405,85.534,124.086,85.534s105.055-35.532,124.086-85.534C412.316,360.668,427.663,360.898,410.7,326.01z"/>
</g>
<g id="Layer_1">
</g>
</svg>
