<?xml version="1.0" encoding="iso-8859-1"?>
<!-- Generator: Adobe Illustrator 18.1.0, SVG Export Plug-In . SVG Version: 6.00 Build 0)  -->
<!DOCTYPE svg PUBLIC "-//W3C//DTD SVG 1.1//EN" "http://www.w3.org/Graphics/SVG/1.1/DTD/svg11.dtd">
<svg version="1.1" xmlns="http://www.w3.org/2000/svg" xmlns:xlink="http://www.w3.org/1999/xlink" x="0px" y="0px"
	 viewBox="0 0 512 512" enable-background="new 0 0 512 512" xml:space="preserve">
<g id="Layer_4">
	<path fill="#CCC9C4" d="M380.259,208.526c0,0,0.409-0.81,1.023-2.025c0.189-0.334,0.394-0.696,0.611-1.079
		c0.225-0.376,0.429-0.79,0.706-1.175c0.265-0.389,0.538-0.792,0.816-1.201c0.318-0.396,0.642-0.797,0.965-1.199
		c0.342-0.393,0.74-0.769,1.101-1.137c0.428-0.347,0.811-0.698,1.271-0.986c0.231-0.14,0.458-0.277,0.68-0.412
		c0.232-0.125,0.488-0.223,0.721-0.325c0.228-0.108,0.48-0.178,0.726-0.238c0.244-0.061,0.47-0.129,0.714-0.144
		c0.469-0.069,0.912-0.049,1.299-0.016c0.389,0.062,0.721,0.136,0.99,0.236c0.273,0.096,0.471,0.189,0.627,0.276
		c0.131,0.069,0.274,0.162,0.274,0.162c0.608,0.377,0.796,1.176,0.419,1.784c-0.377,0.608-1.176,0.796-1.784,0.419
		c-0.006-0.002,0.038,0.047-0.036,0.058c-0.044,0.023-0.151,0.048-0.262,0.1c-0.115,0.043-0.254,0.129-0.386,0.216
		c-0.138,0.116-0.267,0.234-0.387,0.402c-0.056,0.062-0.117,0.175-0.17,0.266c-0.053,0.089-0.102,0.176-0.154,0.305
		c-0.05,0.12-0.094,0.213-0.139,0.337c-0.042,0.131-0.085,0.264-0.128,0.4c-0.08,0.255-0.152,0.61-0.216,0.89
		c-0.057,0.365-0.115,0.676-0.155,1.035c-0.032,0.367-0.063,0.734-0.094,1.095c-0.011,0.383-0.022,0.761-0.032,1.126
		c-0.023,0.35,0.03,0.7,0.044,1.012c0.023,0.307,0.045,0.596,0.065,0.864c0.015,1.454,0.026,2.423,0.026,2.423
		c0.03,2.843-2.25,5.171-5.093,5.201c-2.843,0.03-5.171-2.25-5.201-5.093c-0.009-0.846,0.187-1.647,0.541-2.355L380.259,208.526z
		 M411.53,205.111c-0.716,0.304-1.374,0.777-1.911,1.412c-1.832,2.168-1.56,5.41,0.607,7.242s5.41,1.56,7.242-0.607
		c0,0,0.159-0.188,0.436-0.516c0.139-0.164,0.307-0.364,0.501-0.592c0.19-0.227,0.44-0.51,0.558-0.695
		c0.159-0.22,0.331-0.458,0.512-0.71c0.176-0.265,0.446-0.516,0.69-0.799c0.255-0.291,0.522-0.563,0.802-0.826
		c0.282-0.281,0.574-0.553,0.873-0.796c0.304-0.268,0.611-0.504,0.925-0.725c0.319-0.246,0.628-0.421,0.951-0.624
		c0.628-0.358,1.269-0.663,1.822-0.831c0.285-0.101,0.538-0.154,0.774-0.21c0.232-0.047,0.436-0.08,0.599-0.097
		c0.155-0.016,0.276-0.029,0.359-0.037c0.09,0,0.072-0.036,0.072-0.036c0.601,0.388,1.403,0.216,1.792-0.386
		c0.388-0.601,0.216-1.403-0.386-1.792c0,0-0.083-0.054-0.238-0.154c-0.136-0.085-0.306-0.181-0.535-0.293
		c-0.225-0.113-0.497-0.229-0.811-0.346c-0.313-0.107-0.672-0.234-1.062-0.319c-0.785-0.207-1.703-0.311-2.688-0.352
		c-0.486,0.002-1.001-0.018-1.504,0.033c-0.511,0.029-1.027,0.078-1.531,0.164c-0.514,0.064-1.015,0.162-1.502,0.277
		c-0.495,0.101-0.975,0.218-1.424,0.359c-0.455,0.14-0.898,0.242-1.317,0.405c-0.421,0.154-0.82,0.3-1.188,0.435
		c-0.389,0.139-0.663,0.261-0.924,0.37c-0.259,0.109-0.485,0.204-0.671,0.282c-0.372,0.156-0.585,0.246-0.585,0.246L411.53,205.111z
		 M433.914,224.497c-0.67-0.111-1.374-0.088-2.075,0.09c-2.721,0.69-4.368,3.455-3.678,6.176c0.69,2.721,3.455,4.368,6.176,3.678
		c0,0,0.268-0.068,0.736-0.187c0.234-0.059,0.519-0.131,0.845-0.214c0.292-0.079,0.786-0.187,0.964-0.261
		c0.26-0.088,0.543-0.184,0.841-0.286c0.307-0.128,0.67-0.162,1.049-0.243c0.195-0.037,0.392-0.074,0.593-0.112
		c0.187-0.02,0.375-0.039,0.566-0.059l0.602-0.06c0.194-0.011,0.371-0.003,0.568-0.006c0.189,0.003,0.404-0.009,0.589,0.007
		l0.553,0.06c0.404,0.026,0.698,0.142,1.081,0.219c0.307,0.123,0.676,0.228,0.949,0.398c0.314,0.148,0.559,0.34,0.818,0.523
		c0.469,0.387,0.821,0.806,1.036,1.117c0.096,0.151,0.172,0.27,0.224,0.351c0.05,0.095,0.068,0.069,0.07,0.079
		c-0.009,0.716,0.563,1.303,1.279,1.313c0.716,0.009,1.303-0.563,1.313-1.279c0,0,0.002-0.102,0.005-0.294
		c0.003-0.171-0.013-0.389-0.035-0.676c-0.061-0.557-0.211-1.336-0.549-2.228c-0.192-0.432-0.393-0.913-0.69-1.37
		c-0.262-0.487-0.637-0.917-1.002-1.394c-0.414-0.407-0.819-0.899-1.31-1.255c-0.476-0.392-0.975-0.771-1.507-1.069
		c-0.263-0.157-0.525-0.329-0.793-0.472c-0.271-0.128-0.541-0.256-0.809-0.383c-0.271-0.124-0.54-0.248-0.806-0.37
		c-0.269-0.095-0.535-0.189-0.796-0.281c-0.528-0.176-1.027-0.382-1.542-0.489c-0.51-0.123-0.993-0.239-1.438-0.347
		c-0.476-0.122-0.782-0.15-1.112-0.213c-0.316-0.054-0.591-0.1-0.817-0.139c-0.453-0.077-0.712-0.121-0.712-0.121L433.914,224.497z
		 M405.683,100.303c1.678,2.614,5.157,3.373,7.772,1.696c2.614-1.678,3.373-5.157,1.696-7.772l-8.806-13.72
		c-0.192-0.297-0.53-0.492-0.91-0.483c-0.58,0.014-1.04,0.495-1.026,1.076l0.385,16.299
		C404.82,98.388,405.109,99.408,405.683,100.303z M434.137,92.542c1.105,2.933,4.378,4.416,7.311,3.312
		c2.933-1.104,4.416-4.378,3.312-7.311l-5.187-13.776c-0.12-0.311-0.385-0.567-0.733-0.655c-0.568-0.144-1.145,0.201-1.288,0.769
		l-3.606,14.272C433.67,90.238,433.712,91.415,434.137,92.542z M412.126,50.402c-4.564,0.365-7.968,4.361-7.603,8.925
		c0.365,4.564,4.361,7.968,8.925,7.603l0.033-0.003c0,0,0.301-0.024,0.826-0.066c0.131-0.011,0.277-0.022,0.435-0.035l0.121-0.01
		c0.025-0.005-0.013-0.02-0.017-0.03c-0.023-0.023-0.046-0.049-0.068-0.078c-0.043-0.059-0.081-0.13-0.108-0.216
		c-0.013-0.043-0.023-0.089-0.03-0.138c0.001-0.021-0.015-0.058,0.003-0.068l0.073-0.012c0.201-0.02,0.431-0.106,0.727-0.093
		c0.299,0.053,0.637,0.037,1.014,0.16c0.373,0.127,0.788,0.209,1.206,0.424c0.423,0.184,0.868,0.386,1.303,0.651
		c0.447,0.238,0.885,0.524,1.32,0.819c0.445,0.281,0.853,0.614,1.271,0.919c0.816,0.634,1.568,1.282,2.195,1.865
		c0.627,0.582,1.141,1.094,1.487,1.455c0.34,0.355,0.534,0.558,0.534,0.558l0.116,0.122c0.308,0.318,0.751,0.499,1.226,0.457
		c0.836-0.074,1.454-0.811,1.38-1.647c0,0-0.028-0.322-0.078-0.884c-0.051-0.553-0.139-1.332-0.282-2.276
		c-0.141-0.944-0.346-2.047-0.63-3.243c-0.158-0.594-0.296-1.222-0.505-1.854c-0.193-0.635-0.402-1.287-0.665-1.94
		c-0.235-0.657-0.537-1.316-0.858-1.972c-0.288-0.659-0.71-1.305-1.084-1.941c-0.376-0.635-0.893-1.245-1.335-1.829
		c-0.48-0.58-1.065-1.117-1.574-1.612c-0.199-0.23-0.696-0.533-1.046-0.77c-0.381-0.247-0.755-0.471-1.115-0.673
		c-0.181-0.099-0.357-0.195-0.526-0.287l-0.236-0.124l-0.101-0.068c-0.132-0.089-0.254-0.17-0.363-0.244
		c-0.439-0.295-0.689-0.463-0.689-0.463C415.911,50.777,414.067,50.247,412.126,50.402z M431.458,38.785
		c-1.37-0.631-2.93-0.889-4.535-0.664c-4.46,0.625-7.57,4.747-6.946,9.207c0.625,4.46,4.747,7.57,9.207,6.946
		c0,0,0.351-0.049,0.965-0.135c0.307-0.043,0.68-0.095,1.108-0.155c0.151-0.016,0.116-0.027,0.133-0.043l0.038-0.054
		c0.037-0.049,0.076-0.101,0.117-0.155c0.06-0.046,0.094-0.171,0.219-0.182c0.129-0.017,0.263-0.035,0.401-0.053
		c0.143-0.016,0.314-0.06,0.475-0.061c0.16,0.015,0.324,0.029,0.491,0.045c0.375-0.011,0.724,0.14,1.137,0.263
		c0.424,0.11,0.793,0.402,1.248,0.617c0.384,0.316,0.845,0.593,1.224,0.988c0.393,0.379,0.794,0.774,1.132,1.22
		c0.372,0.422,0.675,0.886,0.983,1.328c0.302,0.445,0.553,0.896,0.8,1.314c0.218,0.425,0.445,0.821,0.604,1.182
		c0.171,0.36,0.316,0.679,0.423,0.943c0.209,0.512,0.328,0.805,0.328,0.805l0.092,0.226c0.183,0.441,0.575,0.786,1.079,0.888
		c0.805,0.163,1.59-0.357,1.753-1.163c0,0,0.021-0.102,0.06-0.294c0.034-0.177,0.083-0.436,0.146-0.767
		c0.062-0.33,0.121-0.728,0.18-1.189c0.072-0.464,0.102-0.984,0.157-1.565c0.025-0.578,0.066-1.213,0.054-1.894
		c-0.018-0.68-0.024-1.411-0.123-2.176c-0.059-0.769-0.208-1.57-0.387-2.403c-0.156-0.834-0.477-1.682-0.753-2.553
		c-0.396-0.843-0.723-1.741-1.264-2.564c-0.529-0.828-1.052-1.674-1.752-2.388c-0.332-0.37-0.67-0.732-1.01-1.085
		c-0.352-0.335-0.736-0.621-1.104-0.918c-0.372-0.292-0.743-0.573-1.109-0.841c-0.361-0.269-0.86-0.492-1.277-0.715
		c-0.435-0.219-0.863-0.42-1.276-0.603c-0.385-0.164-0.751-0.32-1.094-0.466c-0.392-0.18-0.734-0.336-1.016-0.465
		c-0.563-0.258-0.885-0.406-0.885-0.406L431.458,38.785z M411.805,355.146c-0.744-0.27-1.562-0.372-2.402-0.265
		c-2.82,0.359-4.816,2.935-4.457,5.756c0.359,2.82,2.935,4.816,5.756,4.457c0,0,0.961-0.122,2.404-0.306
		c0.263-0.051,0.549-0.106,0.85-0.165c0.308-0.05,0.649-0.143,1-0.161c0.364-0.032,0.74-0.065,1.122-0.098
		c0.362-0.011,0.73-0.022,1.098-0.033c0.361-0.001,0.676,0.019,1.046,0.034c0.285,0.031,0.647,0.061,0.909,0.111
		c0.14,0.028,0.278,0.055,0.412,0.081c0.129,0.03,0.226,0.063,0.351,0.099c0.133,0.036,0.225,0.075,0.32,0.117
		c0.097,0.042,0.216,0.09,0.284,0.138c0.181,0.1,0.313,0.214,0.444,0.338c0.102,0.12,0.204,0.249,0.259,0.358
		c0.064,0.105,0.101,0.208,0.129,0.249c0.02,0.072,0.063,0.023,0.062,0.029c-0.304,0.648-0.026,1.42,0.622,1.724
		c0.648,0.304,1.42,0.026,1.724-0.622c0,0,0.076-0.153,0.129-0.291c0.068-0.165,0.138-0.373,0.201-0.655
		c0.069-0.279,0.103-0.616,0.12-1.01c-0.012-0.388-0.043-0.831-0.166-1.288c-0.043-0.24-0.137-0.457-0.225-0.693
		c-0.088-0.237-0.187-0.479-0.321-0.693c-0.128-0.22-0.255-0.463-0.406-0.679c-0.159-0.205-0.322-0.414-0.488-0.627
		c-0.339-0.423-0.732-0.763-1.126-1.148c-0.407-0.316-0.826-0.669-1.256-0.963c-0.437-0.275-0.873-0.549-1.303-0.82
		c-0.438-0.229-0.87-0.454-1.287-0.672c-0.414-0.231-0.849-0.386-1.249-0.566c-0.405-0.171-0.789-0.333-1.142-0.482
		c-1.278-0.469-2.129-0.782-2.129-0.782L411.805,355.146z M420.1,386.286c-0.385-0.676-0.93-1.275-1.623-1.735
		c-2.365-1.569-5.554-0.924-7.123,1.441s-0.924,5.554,1.441,7.123c0,0,0.205,0.136,0.563,0.374c0.179,0.119,0.397,0.263,0.646,0.429
		c0.247,0.163,0.557,0.378,0.755,0.474c0.237,0.132,0.493,0.275,0.765,0.427c0.283,0.144,0.564,0.383,0.874,0.593
		c0.319,0.22,0.62,0.454,0.914,0.701c0.312,0.247,0.616,0.506,0.891,0.775c0.301,0.271,0.571,0.549,0.827,0.835
		c0.281,0.289,0.491,0.575,0.73,0.872c0.428,0.582,0.805,1.184,1.036,1.714c0.133,0.271,0.216,0.516,0.298,0.745
		c0.074,0.225,0.13,0.424,0.166,0.584c0.034,0.152,0.06,0.271,0.079,0.352c0.01,0.089,0.044,0.067,0.044,0.067
		c-0.316,0.642-0.052,1.419,0.59,1.735s1.419,0.052,1.735-0.59c0,0,0.044-0.089,0.126-0.255c0.068-0.145,0.144-0.325,0.229-0.565
		c0.086-0.236,0.17-0.52,0.249-0.845c0.07-0.324,0.155-0.694,0.194-1.092c0.115-0.804,0.112-1.728,0.039-2.711
		c-0.059-0.482-0.098-0.997-0.207-1.49c-0.088-0.505-0.197-1.011-0.34-1.502c-0.123-0.503-0.279-0.99-0.449-1.46
		c-0.157-0.48-0.329-0.943-0.521-1.373c-0.192-0.436-0.344-0.864-0.555-1.261c-0.202-0.401-0.393-0.78-0.57-1.129
		c-0.183-0.371-0.336-0.628-0.474-0.875c-0.138-0.245-0.259-0.458-0.358-0.634c-0.198-0.351-0.312-0.552-0.312-0.552L420.1,386.286z
		 M403.433,410.762c0.033-0.679-0.071-1.375-0.329-2.051c-1-2.623-3.937-3.939-6.56-2.939c-2.623,1-3.939,3.937-2.939,6.56
		c0,0,0.098,0.258,0.27,0.71c0.086,0.226,0.191,0.5,0.31,0.814c0.112,0.281,0.277,0.759,0.371,0.928
		c0.118,0.249,0.246,0.518,0.381,0.802c0.163,0.29,0.239,0.647,0.363,1.014c0.059,0.189,0.119,0.381,0.179,0.576
		c0.041,0.183,0.083,0.368,0.124,0.555l0.129,0.591c0.033,0.192,0.046,0.368,0.072,0.563c0.019,0.188,0.055,0.401,0.062,0.585
		l0.005,0.556c0.021,0.405-0.06,0.71-0.093,1.099c-0.087,0.319-0.149,0.698-0.286,0.988c-0.111,0.329-0.273,0.595-0.425,0.873
		c-0.33,0.511-0.705,0.909-0.989,1.159c-0.139,0.113-0.248,0.202-0.323,0.263c-0.088,0.06-0.061,0.076-0.07,0.079
		c-0.712,0.073-1.23,0.71-1.156,1.422s0.71,1.23,1.422,1.156c0,0,0.102-0.01,0.292-0.029c0.17-0.017,0.385-0.058,0.667-0.112
		c0.546-0.125,1.303-0.364,2.149-0.803c0.407-0.241,0.862-0.496,1.281-0.844c0.454-0.317,0.837-0.738,1.269-1.156
		c0.356-0.458,0.798-0.918,1.095-1.447c0.334-0.518,0.653-1.058,0.888-1.62c0.126-0.279,0.266-0.56,0.377-0.842
		c0.096-0.284,0.192-0.567,0.287-0.848c0.092-0.284,0.184-0.565,0.274-0.843c0.063-0.278,0.126-0.553,0.187-0.823
		c0.114-0.545,0.261-1.064,0.307-1.588c0.063-0.521,0.123-1.014,0.178-1.469c0.066-0.487,0.059-0.795,0.083-1.129
		c0.017-0.32,0.031-0.598,0.043-0.828c0.024-0.459,0.038-0.721,0.038-0.721L403.433,410.762z"/>
</g>
<g id="Layer_1">
</g>
</svg>
