<?xml version="1.0" encoding="iso-8859-1"?>
<!-- Generator: Adobe Illustrator 18.1.0, SVG Export Plug-In . SVG Version: 6.00 Build 0)  -->
<!DOCTYPE svg PUBLIC "-//W3C//DTD SVG 1.1//EN" "http://www.w3.org/Graphics/SVG/1.1/DTD/svg11.dtd">
<svg version="1.1" xmlns="http://www.w3.org/2000/svg" xmlns:xlink="http://www.w3.org/1999/xlink" x="0px" y="0px"
	 viewBox="0 0 512 512" enable-background="new 0 0 512 512" xml:space="preserve">
<g id="Layer_2">
	<path fill="#94DEF7" d="M508.36,241.99c-0.123-0.424-0.26-0.795-0.405-1.142c5.304,107.375-138.325,176.779-239.848,176.779
		c-54.532,0-67.454-46.877-87.643-95.976c-0.505-1.798-1.042-3.66-1.632-5.615c-21.07-69.795-137.899-101.8-169.134-72.73
		C4.803,247.599,2,253.601,2,261.516c0,1.012,0.018,2.017,0.049,3.018C4.113,394.814,139.282,499.93,269.945,499.93
		c131.673,0,238.414-106.742,238.414-238.414C508.36,256.857,509.032,244.316,508.36,241.99z"/>
</g>
<g id="Layer_1">
</g>
</svg>
