<svg xmlns="http://www.w3.org/2000/svg" viewBox="0 0 512 512" enable-background="new 0 0 512 512"><path fill="#FF473E" d="M506.54 129.65c-.047-1.36-.17-2.387-.223-3.083-.06-.695-.093-1.053-.093-1.053-.145-1.58-1.465-2.84-3.086-2.86-1.732-.022-3.153 1.365-3.174 3.097l-.002.13-.012.975c-.016.64.006 1.595-.075 2.827-.11 2.464-.397 6.08-1.414 10.46-1.03 4.358-2.86 9.49-6.3 14.45-3.382 4.99-8.456 9.68-14.985 13.534-3.5 2.08-7.415 3.907-11.634 5.537.66-1.44 1.31-2.945 1.93-4.505.825-2.154 1.648-4.386 2.33-6.71.72-2.306 1.3-4.696 1.83-7.088.477-2.407.894-4.822 1.157-7.218.272-2.395.443-4.76.48-7.047.063-2.286-.01-4.497-.145-6.58-.088-1.043-.143-2.056-.255-3.03l-.36-2.813c-.288-1.793-.566-3.43-.885-4.865-.346-1.43-.592-2.683-.894-3.692l-.913-3.17c-.442-1.513-1.965-2.5-3.554-2.22-1.705.3-2.845 1.924-2.546 3.63l.03.172.522 2.978c.18.943.274 2.108.452 3.428.15 1.324.24 2.826.33 4.454l.052 2.544c.007.88-.044 1.787-.062 2.717-.08 1.86-.22 3.816-.495 5.82-.245 2.008-.62 4.065-1.08 6.13-.452 2.068-1.045 4.136-1.682 6.183-.687 2.035-1.407 4.053-2.25 5.99-.8 1.948-1.73 3.81-2.64 5.595-1.87 3.55-3.873 6.716-5.732 9.303-1.727 2.407-3.302 4.32-4.48 5.647-6.708 1.573-13.81 2.907-21.205 4.203-10.156 1.816-20.79 3.43-32.09 6.26l-2.138.562-.988.267-.574.16-.513.158-4.11 1.26c-2.76.806-5.464 1.81-8.208 2.728-2.726.967-5.43 2.016-8.144 3.06l-4.03 1.67c-1.35.548-2.69 1.12-4.01 1.734-10.64 4.756-20.996 10.28-30.67 16.562-9.683 6.26-18.813 13.096-27.097 20.342-8.304 7.223-15.86 14.75-22.61 22.246-6.747 7.503-12.68 14.98-17.866 22.082-5.183 7.106-9.63 13.835-13.35 19.923-3.716 6.09-6.816 11.49-9.216 16.01-1.223 2.224-2.293 4.326-3.225 6.146l-1.288 2.514-.96 1.945-1.76 3.562c-.222.454-.447.957-.636 1.435-3.848 9.745.933 20.764 10.68 24.61 9.744 3.848 20.763-.933 24.61-10.68 0 0 .51-1.285 1.46-3.695l.795-2.016c.28-.674.583-1.41.91-2.204.655-1.584 1.39-3.4 2.33-5.502 1.795-4.19 4.146-9.194 6.986-14.864 2.846-5.667 6.283-11.94 10.337-18.595 4.058-6.65 8.74-13.68 14.134-20.784 5.398-7.096 11.494-14.27 18.278-21.242 6.764-6.994 14.305-13.675 22.407-19.93 8.092-6.274 16.872-11.934 26.03-16.98 1.137-.65 2.293-1.262 3.46-1.85l3.49-1.8c2.355-1.136 4.71-2.285 7.092-3.36 2.403-1.027 4.77-2.146 7.205-3.077 2.403-.96 4.884-1.98 7.198-2.81 9.54-3.437 19.903-6.126 29.93-8.95 10.063-2.812 19.952-5.73 29.203-9.32 9.24-3.582 17.888-7.853 25.16-13.208 7.274-5.314 13.036-11.776 16.582-18.347 3.624-6.55 5.158-12.902 5.845-18.02.672-5.146.577-9.164.434-11.87z"/></svg>