<?xml version="1.0" encoding="iso-8859-1"?>
<!-- Generator: Adobe Illustrator 18.1.0, SVG Export Plug-In . SVG Version: 6.00 Build 0)  -->
<!DOCTYPE svg PUBLIC "-//W3C//DTD SVG 1.1//EN" "http://www.w3.org/Graphics/SVG/1.1/DTD/svg11.dtd">
<svg version="1.1" xmlns="http://www.w3.org/2000/svg" xmlns:xlink="http://www.w3.org/1999/xlink" x="0px" y="0px"
	 viewBox="0 0 512 512" enable-background="new 0 0 512 512" xml:space="preserve">
<g id="Layer_5">
	<path fill="#2B3B47" d="M153.651,257.946c13.766,0,24.944,11.154,24.944,24.966v30.652c0,13.787-11.178,24.968-24.944,24.968l0,0
		c-13.787,0-24.966-11.181-24.966-24.968v-30.652C128.685,269.101,139.863,257.946,153.651,257.946L153.651,257.946z
		 M354.534,257.946c-13.787,0-24.92,11.154-24.92,24.966v30.652c0,13.787,11.133,24.968,24.92,24.968l0,0
		c13.787,0,24.944-11.181,24.944-24.968v-30.652C379.478,269.101,368.321,257.946,354.534,257.946L354.534,257.946z"/>
</g>
<g id="Layer_1">
</g>
</svg>
