<?xml version="1.0" encoding="iso-8859-1"?>
<!-- Generator: Adobe Illustrator 18.1.0, SVG Export Plug-In . SVG Version: 6.00 Build 0)  -->
<!DOCTYPE svg PUBLIC "-//W3C//DTD SVG 1.1//EN" "http://www.w3.org/Graphics/SVG/1.1/DTD/svg11.dtd">
<svg version="1.1" xmlns="http://www.w3.org/2000/svg" xmlns:xlink="http://www.w3.org/1999/xlink" x="0px" y="0px"
	 viewBox="0 0 512 512" enable-background="new 0 0 512 512" xml:space="preserve">
<g id="Layer_8">
	<path fill="#2B3B47" d="M150.118,210.228c14.344,0,25.972,11.628,25.972,25.972v38.659c0,14.344-11.628,25.972-25.972,25.972l0,0
		c-14.344,0-25.972-11.628-25.972-25.972V236.2C124.146,221.856,135.774,210.228,150.118,210.228L150.118,210.228z M361.517,210.228
		c-14.344,0-25.972,11.628-25.972,25.972v38.659c0,14.344,11.628,25.972,25.972,25.972l0,0c14.344,0,25.972-11.628,25.972-25.972
		V236.2C387.489,221.856,375.861,210.228,361.517,210.228L361.517,210.228z M278.117,350.268c0,0-10.988,0.393-21.976,0.555
		c-10.988-0.277-21.975-0.555-21.975-0.555c-4.816-0.094-9.71,1.933-13.011,5.939c-5.734,6.959-4.741,17.248,2.218,22.982
		l10.793,8.893c0,0,2.747,2.263,6.868,4.153c2.06,0.68,4.464,1.745,7.039,2.396c1.537,0.183,3.138,0.374,4.762,0.567v40.989
		c1.01-0.738,2.007-1.498,2.984-2.288c0.977,0.79,1.974,1.55,2.984,2.288v-40.584c1.845-0.169,3.666-0.615,5.408-0.741
		c2.575-0.035,4.979-1.593,7.039-2.282c4.121-1.809,6.868-4.498,6.868-4.498l11.467-11.228c2.987-2.948,4.777-7.091,4.615-11.615
		C293.891,356.663,286.691,349.961,278.117,350.268z"/>
</g>
<g id="Layer_1">
</g>
</svg>
