<?xml version="1.0" encoding="iso-8859-1"?>
<!-- Generator: Adobe Illustrator 18.1.0, SVG Export Plug-In . SVG Version: 6.00 Build 0)  -->
<!DOCTYPE svg PUBLIC "-//W3C//DTD SVG 1.1//EN" "http://www.w3.org/Graphics/SVG/1.1/DTD/svg11.dtd">
<svg version="1.1" xmlns="http://www.w3.org/2000/svg" xmlns:xlink="http://www.w3.org/1999/xlink" x="0px" y="0px"
	 viewBox="0 0 512 512" enable-background="new 0 0 512 512" xml:space="preserve">
<g id="Layer_2">
	<path fill="#D5DEE4" d="M99.122,230.878c-12.947,22.467-35.553,30.017-42.142,30.613c-1.022,0.092-1.833-1.164-1.5-2.376
		c0.93-3.38,1.333-7.111,1.135-11.06c-3.774,0.434-6.777,0.12-8.146-0.267c-0.487-0.138-0.639-0.86-0.272-1.359
		c3.032-4.12,4.493-10.455,2.768-17.86c-4.214-7.921-10.923-15.907-20.689-23.165l72.452-9.338
		C102.729,196.066,110.827,210.567,99.122,230.878z M481.963,285.822l-284.269,61.719c15.987,34.354,36.784,13.002,33.816,85.27
		c-0.249,6.054-0.293,10.924-0.143,14.837c-1.229,4.993-2.27,9.596-2.163,11.367c0.766,12.767,42.731,15.807,39.333-1.86
		c-0.629-3.273-2.098-18.774-2.667-20c-0.087,0.008-0.167,0.011-0.253,0.018c1.722-5.796,3.293-12.15,4.881-18.522
		c14.147-56.75,4.918-69.884,100.355-75.125c30.321-1.665,54.19,1.531,49.823,48.338c-1.285,13.778-3.864,36.875-0.545,50.276
		c-0.901,5.432-1.71,10.631-1.595,12.541c0.766,12.767,41.731,15.807,38.333-1.86c-0.629-3.273-3.167-20-2.083-23.545
		c-0.036,0.003-0.071,0.006-0.107,0.01c1.882-4.071,3.508-8.623,4.762-13.615C461.752,406.475,475.369,292.108,481.963,285.822z"/>
</g>
<g id="Layer_1">
</g>
</svg>
