<?xml version="1.0" encoding="iso-8859-1"?>
<!-- Generator: Adobe Illustrator 18.1.0, SVG Export Plug-In . SVG Version: 6.00 Build 0)  -->
<!DOCTYPE svg PUBLIC "-//W3C//DTD SVG 1.1//EN" "http://www.w3.org/Graphics/SVG/1.1/DTD/svg11.dtd">
<svg version="1.1" xmlns="http://www.w3.org/2000/svg" xmlns:xlink="http://www.w3.org/1999/xlink" x="0px" y="0px"
	 viewBox="0 0 512 512" enable-background="new 0 0 512 512" xml:space="preserve">
<g id="Layer_6">
	<path fill="#FF6E83" d="M336.069,215.992c0,0,0.232,0.068,0.68,0.199c0.442,0.134,1.137,0.316,1.937,0.598
		c0.831,0.269,1.827,0.613,2.935,1.044c1.154,0.412,2.372,0.93,3.738,1.51c2.736,1.158,5.803,2.67,9.129,4.485
		c3.309,1.822,6.764,3.993,10.226,6.49c6.931,4.991,13.773,11.332,19.588,18.759c5.878,7.4,10.683,15.905,14.212,24.941
		c1.762,4.519,3.254,9.151,4.407,13.843c1.178,4.681,1.973,9.439,2.505,14.143c1.03,9.422,0.711,18.75-0.51,27.14
		c-0.617,4.198-1.405,8.139-2.383,11.748c-0.484,1.803-0.902,3.475-1.451,5.089c-0.496,1.592-0.968,3.062-1.495,4.431
		c-0.249,0.678-0.484,1.32-0.705,1.925c-0.254,0.618-0.492,1.197-0.713,1.735c-0.422,1.069-0.861,2.011-1.206,2.771
		c-0.326,0.752-0.667,1.366-0.857,1.763c-0.202,0.402-0.306,0.61-0.306,0.61c-2.913,5.799-9.594,8.455-15.58,6.497
		c0,0-0.221-0.072-0.649-0.212c-0.416-0.145-1.093-0.334-1.856-0.632c-0.783-0.289-1.761-0.641-2.817-1.093
		c-0.538-0.222-1.117-0.46-1.735-0.715c-0.585-0.268-1.207-0.552-1.864-0.853c-1.344-0.589-2.72-1.287-4.2-2.056
		c-1.533-0.746-3.015-1.626-4.637-2.551c-3.253-1.845-6.607-4.059-10.024-6.574c-6.821-5.037-13.672-11.374-19.642-18.736
		c-2.968-3.688-5.79-7.601-8.286-11.732c-2.522-4.12-4.763-8.44-6.734-12.872c-3.937-8.866-6.598-18.265-7.72-27.649
		c-1.185-9.357-0.875-18.681,0.456-27.118c0.662-4.217,1.551-8.199,2.585-11.833c1.051-3.64,2.135-6.883,3.237-9.642
		c0.55-1.379,1.038-2.609,1.558-3.718c0.473-1.09,0.93-2.04,1.323-2.82c0.363-0.767,0.722-1.389,0.938-1.797
		c0.223-0.411,0.337-0.623,0.337-0.623C323.559,216.821,330.122,214.252,336.069,215.992z M107.78,166.461
		c0,0,0.06,0.206,0.177,0.606c0.119,0.394,0.282,1.013,0.533,1.726c0.24,0.74,0.546,1.628,0.93,2.615
		c0.367,1.028,0.829,2.113,1.345,3.33c1.031,2.438,2.379,5.17,3.996,8.133c1.623,2.948,3.558,6.026,5.782,9.111
		c4.447,6.175,10.096,12.271,16.713,17.452c6.593,5.236,14.17,9.518,22.221,12.662c4.026,1.57,8.153,2.899,12.333,3.926
		c4.17,1.05,8.41,1.758,12.601,2.232c8.395,0.917,16.705,0.633,24.18-0.455c3.74-0.55,7.251-1.251,10.467-2.123
		c1.606-0.432,3.096-0.803,4.534-1.292c1.418-0.442,2.728-0.863,3.948-1.332c0.604-0.222,1.176-0.431,1.715-0.629
		c0.55-0.226,1.066-0.438,1.546-0.635c0.952-0.376,1.792-0.767,2.469-1.075c0.67-0.29,1.217-0.594,1.571-0.764
		c0.359-0.18,0.544-0.273,0.544-0.273c5.016-2.514,7.58-8.384,5.789-13.881c0,0-0.064-0.197-0.188-0.578
		c-0.129-0.371-0.298-0.974-0.563-1.654c-0.258-0.698-0.571-1.569-0.974-2.51c-0.198-0.48-0.41-0.995-0.637-1.546
		c-0.239-0.521-0.492-1.075-0.76-1.661c-0.525-1.197-1.147-2.424-1.831-3.742c-0.665-1.366-1.449-2.686-2.273-4.131
		c-1.644-2.898-3.616-5.886-5.857-8.93c-4.487-6.077-10.134-12.181-16.693-17.5c-3.286-2.644-6.772-5.158-10.453-7.382
		c-3.671-2.247-7.519-4.244-11.468-6c-7.899-3.508-16.273-5.878-24.633-6.878c-8.337-1.055-16.644-0.779-24.16,0.406
		c-3.757,0.59-7.305,1.381-10.542,2.303c-3.243,0.936-6.133,1.902-8.59,2.884c-1.228,0.49-2.324,0.925-3.312,1.388
		c-0.971,0.422-1.817,0.828-2.512,1.179c-0.683,0.323-1.238,0.644-1.601,0.836c-0.366,0.198-0.555,0.301-0.555,0.301
		C108.713,155.207,106.169,160.948,107.78,166.461z"/>
</g>
<g id="Layer_1">
</g>
</svg>
