<?xml version="1.0" encoding="iso-8859-1"?>
<!-- Generator: Adobe Illustrator 18.1.0, SVG Export Plug-In . SVG Version: 6.00 Build 0)  -->
<!DOCTYPE svg PUBLIC "-//W3C//DTD SVG 1.1//EN" "http://www.w3.org/Graphics/SVG/1.1/DTD/svg11.dtd">
<svg version="1.1" xmlns="http://www.w3.org/2000/svg" xmlns:xlink="http://www.w3.org/1999/xlink" x="0px" y="0px"
	 viewBox="0 0 512 512" enable-background="new 0 0 512 512" xml:space="preserve">
<g id="Layer_4">
	<path fill="#FF473E" d="M276.742,335.293c0,0,0.148,0.42,0.425,1.208c0.259,0.788,0.639,1.944,1.122,3.414
		c0.446,1.471,0.987,3.257,1.607,5.305c0.594,2.049,1.245,4.36,1.914,6.881c0.666,2.521,1.381,5.253,2.068,8.142
		c0.715,2.889,1.394,5.936,2.107,9.087c0.672,3.152,1.381,6.408,2.019,9.717c0.68,3.309,1.267,6.671,1.895,10.033
		c0.571,3.362,1.17,6.723,1.682,10.033c0.501,3.309,1.05,6.566,1.445,9.718c0.401,3.152,0.692,6.198,0.881,9.087
		c0.167,2.889,0.274,5.62,0.263,8.142c0.013,2.521-0.089,4.833-0.215,6.881c-0.142,2.049-0.319,3.834-0.524,5.305
		c-0.385,2.942-0.835,4.622-0.835,4.622c-5.412,20.212-26.184,32.21-46.396,26.799c-13.529-3.622-23.388-14.187-26.799-26.799
		c0,0-0.45-1.681-0.835-4.622c-0.205-1.471-0.382-3.257-0.524-5.305c-0.126-2.049-0.229-4.36-0.215-6.881
		c-0.011-2.521,0.096-5.253,0.263-8.142c0.189-2.889,0.48-5.936,0.881-9.087c0.396-3.152,0.944-6.408,1.445-9.718
		c0.512-3.309,1.111-6.671,1.682-10.033c0.627-3.362,1.214-6.723,1.895-10.033c0.638-3.309,1.348-6.566,2.019-9.717
		c0.713-3.152,1.392-6.198,2.107-9.087c0.687-2.889,1.402-5.62,2.068-8.142c0.669-2.521,1.321-4.833,1.914-6.881
		c0.621-2.049,1.162-3.835,1.607-5.305c0.483-1.471,0.863-2.626,1.122-3.414c0.277-0.788,0.425-1.208,0.425-1.208
		c4.026-11.456,16.576-17.478,28.032-13.453C269.797,324.127,274.587,329.267,276.742,335.293z M251.375,129.041
		c5.4,2.554,11.848,0.248,14.402-5.152c0,0,0.172-0.363,0.448-1.043c0.279-0.68,0.699-1.678,1.159-2.948
		c0.485-1.27,1.049-2.812,1.635-4.581c0.589-1.769,1.23-3.765,1.861-5.942c0.647-2.177,1.292-4.536,1.922-7.03
		c0.638-2.495,1.26-5.125,1.841-7.847c0.306-1.361,0.583-2.744,0.856-4.144c0.286-1.4,0.555-2.818,0.8-4.246
		c0.533-2.857,0.967-5.76,1.443-8.663c0.423-2.903,0.874-5.806,1.229-8.663c0.39-2.857,0.703-5.669,1.01-8.391
		c0.286-2.721,0.539-5.352,0.742-7.847c0.199-2.495,0.367-4.853,0.483-7.03c0.242-4.354,0.32-7.983,0.318-10.523
		c-0.011-2.54-0.078-3.991-0.078-3.991c-0.638-12.961-11.047-23.666-24.274-24.274C243.118,6.079,231.202,16.947,230.555,31
		c0,0-0.067,1.451-0.078,3.991c-0.002,2.54,0.076,6.168,0.318,10.523c0.116,2.177,0.284,4.536,0.483,7.03
		c0.203,2.495,0.456,5.125,0.742,7.847c0.307,2.721,0.62,5.533,1.01,8.391c0.355,2.857,0.807,5.76,1.229,8.663
		c0.476,2.903,0.91,5.806,1.443,8.663c0.245,1.429,0.514,2.846,0.8,4.246c0.273,1.4,0.55,2.784,0.856,4.144
		c0.581,2.721,1.203,5.352,1.841,7.847c0.63,2.495,1.275,4.853,1.922,7.03c0.631,2.177,1.272,4.173,1.861,5.942
		c0.586,1.769,1.15,3.311,1.635,4.581c0.461,1.27,0.88,2.268,1.159,2.948c0.276,0.68,0.448,1.043,0.448,1.043
		C247.255,126.069,249.025,127.929,251.375,129.041z"/>
</g>
<g id="Layer_1">
</g>
</svg>
