<?xml version="1.0" encoding="iso-8859-1"?>
<!-- Generator: Adobe Illustrator 18.1.0, SVG Export Plug-In . SVG Version: 6.00 Build 0)  -->
<!DOCTYPE svg PUBLIC "-//W3C//DTD SVG 1.1//EN" "http://www.w3.org/Graphics/SVG/1.1/DTD/svg11.dtd">
<svg version="1.1" xmlns="http://www.w3.org/2000/svg" xmlns:xlink="http://www.w3.org/1999/xlink" x="0px" y="0px"
	 viewBox="0 0 512 512" enable-background="new 0 0 512 512" xml:space="preserve">
<g id="Layer_4">
	<path fill="#FFA1E0" d="M129.506,314.894c-10.805,0-42.669-10.981-62.244-29.872c-1.806-1.743-3.508-3.553-5.078-5.429
		c-2.124-2.536-4.009-5.192-5.59-7.96c-5.774-10.109-23.403-55.719,2.763-74.976c16.265-11.971,57.833-31.085,72.9-31.085
		c30.133,0,51.81,40.43,51.81,79.172S159.64,314.894,129.506,314.894z M382.493,314.894c10.805,0,42.669-10.981,62.244-29.872
		c1.806-1.743,3.508-3.553,5.078-5.429c2.124-2.536,4.009-5.192,5.59-7.96c5.774-10.109,23.403-55.719-2.763-74.976
		c-16.265-11.971-57.833-31.085-72.9-31.085c-30.133,0-51.81,40.43-51.81,79.172S352.36,314.894,382.493,314.894z"/>
</g>
<g id="Layer_1">
</g>
</svg>
