<?xml version="1.0" encoding="iso-8859-1"?>
<!-- Generator: Adobe Illustrator 18.1.0, SVG Export Plug-In . SVG Version: 6.00 Build 0)  -->
<!DOCTYPE svg PUBLIC "-//W3C//DTD SVG 1.1//EN" "http://www.w3.org/Graphics/SVG/1.1/DTD/svg11.dtd">
<svg version="1.1" xmlns="http://www.w3.org/2000/svg" xmlns:xlink="http://www.w3.org/1999/xlink" x="0px" y="0px"
	 viewBox="0 0 72 72" enable-background="new 0 0 72 72" xml:space="preserve">
<g id="Layer_6">
	<path fill="#2B3B47" d="M26.616,40.212h-0.006c0,0.006,0.006,0.009,0.006,0.012c0,1.682-1.365,3.047-3.047,3.047
		s-3.047-1.365-3.047-3.047c0-0.003,0-0.006,0-0.012h-0.013l0.037-4.284c0.136-1.56,1.427-2.788,3.023-2.788
		c1.592,0,2.883,1.228,3.017,2.788L26.616,40.212z M51.069,35.929c-0.134-1.56-1.427-2.788-3.023-2.788
		c-1.59,0-2.883,1.228-3.017,2.788l-0.037,4.284h0.013c0,0.006,0,0.009,0,0.012c0,1.682,1.365,3.047,3.041,3.047
		c1.682,0,3.047-1.365,3.047-3.047c0-0.003,0-0.006,0-0.012l0,0L51.069,35.929z M35.63,50.447c1.249-0.049,2.532,0.602,3.487,1.663
		c-0.797,2.049-2.082,3.293-3.442,3.294c-1.361,0-2.646-1.245-3.443-3.294C33.155,51.083,34.388,50.472,35.63,50.447z"/>
</g>
<g id="Layer_1">
</g>
</svg>
