<?xml version="1.0" encoding="iso-8859-1"?>
<!-- Generator: Adobe Illustrator 18.1.0, SVG Export Plug-In . SVG Version: 6.00 Build 0)  -->
<!DOCTYPE svg PUBLIC "-//W3C//DTD SVG 1.1//EN" "http://www.w3.org/Graphics/SVG/1.1/DTD/svg11.dtd">
<svg version="1.1" xmlns="http://www.w3.org/2000/svg" xmlns:xlink="http://www.w3.org/1999/xlink" x="0px" y="0px"
	 viewBox="0 0 512 512" enable-background="new 0 0 512 512" xml:space="preserve">
<g id="Layer_2">
	<path fill="#A9B8C2" d="M509.507,277.512c-0.132-6.324-0.469-12.764-1.039-19.213c-0.633-6.446-1.429-12.903-2.615-19.244
		c-1.206-6.336-2.63-12.568-4.475-18.537c-1.869-5.961-3.991-11.684-6.497-16.98c-0.596-1.332-1.308-2.607-1.946-3.884
		c-0.327-0.636-0.652-1.267-0.975-1.893c-0.356-0.613-0.709-1.222-1.059-1.825c-0.713-1.201-1.389-2.395-2.106-3.543
		c-0.758-1.129-1.502-2.237-2.231-3.322c-0.704-1.1-1.51-2.112-2.28-3.113c-0.78-0.994-1.506-1.99-2.286-2.913
		c-0.804-0.908-1.587-1.793-2.348-2.653c-0.383-0.429-0.76-0.852-1.131-1.268c-0.4-0.394-0.793-0.782-1.181-1.164
		c-1.561-1.519-2.987-2.979-4.479-4.161c-1.474-1.219-2.713-2.35-4.159-3.325c-1.088-0.779-2.095-1.49-2.999-2.118
		c-17.825-20.005-42.045-32.731-73.603-32.262c-65.688,0.978-93.648,12.662-135.097-21.204
		c-18.747-41.434-58.358-72.004-117.606-57.282C50.467,79.708,17.34,103.01,10.62,151.743c-1.177,3.953-1.833,8.131-1.861,12.463
		l-0.057,9.042c0,0-0.006,0.972-0.018,2.794c-0.015,0.799-0.034,1.785-0.056,2.945c-0.038,1.238-0.081,2.662-0.13,4.256
		c-0.217,6.425-0.762,15.903-1.466,27.59c-0.686,11.681-1.511,25.551-1.832,40.698c-0.166,7.57-0.185,15.468,0.016,23.566
		c0.214,8.102,0.645,16.406,1.457,24.801c0.798,8.391,1.978,16.872,3.64,25.288c1.69,8.416,3.835,16.767,6.669,24.841
		c2.779,8.07,6.282,15.85,10.323,23.028c4.088,7.169,8.782,13.704,13.741,19.314c4.984,5.601,10.209,10.249,15.126,13.946
		c4.911,3.723,9.528,6.466,13.381,8.522c0.968,0.508,1.884,0.988,2.746,1.441c0.875,0.413,1.695,0.799,2.458,1.159
		c1.526,0.725,2.832,1.311,3.903,1.732c2.137,0.873,3.276,1.338,3.276,1.338c7.498,3.063,16.404,0.769,21.39-6.07
		c5.868-8.047,4.101-19.328-3.946-25.196l-4.269-3.113c0,0-0.685-0.499-1.968-1.435c-0.647-0.447-1.408-1.05-2.277-1.77
		c-0.435-0.353-0.902-0.733-1.4-1.138c-0.473-0.428-0.976-0.882-1.507-1.362c-2.101-1.915-4.49-4.328-6.8-7.322
		c-2.324-2.976-4.592-6.485-6.566-10.505c-1.954-4.048-3.62-8.601-4.9-13.612c-1.242-5.053-2.145-10.52-2.577-16.423
		c-0.471-5.865-0.484-12.146-0.174-18.621c0.171-3.342,0.436-6.743,0.782-10.183c2.131-5.07,4.632-11.539,7.389-19.013
		c2.705,0.653,5.462,1.061,8.26,1.231c0.002,0.006,0.003,0.013,0.003,0.013c7.479,1.072,23.013,9.409,23.51,16.948
		c2.443,37.036,15.236,59.378,26.407,72.059c10.125,11.493,16.997,25.482,20.296,40.438c7.743,35.107,0.007,76.796,46.071,76.796
		c46.064,0,20.081-48.647,34.932-78.646c14.851-29.999,51.294-23.999,51.294-23.999c32.974,0,47.557,10.896,55.469,25.766
		c10.232,19.231-3.267,76.878,47.382,76.878c49.845,0,35.889-67.901,50.29-86.76c18.116-23.724,41.401-51.331,54.368-84.851
		c-0.153,2.274-0.318,4.484-0.491,6.604c-0.398,4.602-0.795,8.821-1.228,12.555c-0.387,3.738-0.841,6.987-1.168,9.668
		c-0.748,5.352-1.175,8.411-1.175,8.411l-0.013,0.09c-0.468,3.383,1.821,6.557,5.213,7.157c3.472,0.613,6.783-1.704,7.397-5.175
		c0,0,0.551-3.12,1.516-8.58c0.435-2.739,1.02-6.057,1.557-9.887c0.583-3.823,1.149-8.152,1.73-12.882
		c0.558-4.734,1.1-9.874,1.552-15.33c0.201-2.731,0.459-5.532,0.603-8.408c0.084-1.437,0.168-2.89,0.254-4.357
		c0.059-1.47,0.119-2.954,0.179-4.45C509.57,290.044,509.606,283.835,509.507,277.512z"/>
</g>
<g id="Layer_1">
</g>
</svg>
