<?xml version="1.0" encoding="iso-8859-1"?>
<!-- Generator: Adobe Illustrator 18.1.0, SVG Export Plug-In . SVG Version: 6.00 Build 0)  -->
<!DOCTYPE svg PUBLIC "-//W3C//DTD SVG 1.1//EN" "http://www.w3.org/Graphics/SVG/1.1/DTD/svg11.dtd">
<svg version="1.1" xmlns="http://www.w3.org/2000/svg" xmlns:xlink="http://www.w3.org/1999/xlink" x="0px" y="0px"
	 viewBox="0 0 512 512" enable-background="new 0 0 512 512" xml:space="preserve">
<g id="Layer_4">
	<g>
		<path fill="#7E9AA8" d="M155.919,254.302c0,0,0.186,0.214,0.546,0.627c0.18,0.207,0.404,0.464,0.67,0.769
			c0.259,0.278,0.558,0.601,0.897,0.966c1.375,1.451,3.472,3.58,6.338,5.903c2.878,2.305,6.577,4.818,11.149,6.742
			c4.559,1.924,9.946,3.32,15.912,3.457c5.951,0.167,12.445-0.82,19.001-3.106c6.559-2.253,13.199-5.68,19.501-10.119
			c6.314-4.413,12.349-9.755,17.746-15.805c5.404-6.053,10.171-12.735,14.562-19.529c4.382-6.796,8.28-13.91,10.839-21.305
			c2.587-7.375,3.857-14.943,3.643-22.166c-0.105-3.612-0.592-7.137-1.44-10.509c-0.212-0.843-0.44-1.679-0.701-2.5l-0.404-1.278
			l-0.47-1.425c-0.623-1.844-1.238-3.666-1.845-5.463c-2.468-7.186-5.09-13.941-7.617-20.117
			c-2.512-6.191-5.044-11.765-7.338-16.683c-2.314-4.909-4.522-9.078-6.409-12.476c-1.932-3.359-3.528-5.955-4.664-7.686
			c-1.162-1.714-1.782-2.629-1.782-2.629l-0.063-0.093c-0.648-0.957-0.399-2.258,0.558-2.906c0.846-0.573,1.961-0.444,2.657,0.255
			c0,0,0.821,0.824,2.359,2.369c1.522,1.562,3.672,3.921,6.24,7.057c2.531,3.151,5.533,7.045,8.753,11.651
			c3.233,4.598,6.64,9.934,10.217,15.843c3.557,5.925,7.206,12.444,10.864,19.519c0.906,1.787,1.846,3.654,2.698,5.421l0.657,1.35
			l0.352,0.733l0.347,0.792c0.469,1.056,0.901,2.137,1.311,3.234c1.642,4.386,2.832,9.065,3.513,13.883
			c1.38,9.652,0.618,19.764-1.692,29.466c-2.33,9.709-6.101,19.137-11.242,27.675c-5.142,8.548-11.762,16.039-18.959,22.524
			c-7.201,6.491-14.975,12.089-23.123,16.485c-8.143,4.383-16.626,7.64-25.07,9.388c-8.43,1.745-16.805,2.011-24.324,0.718
			c-7.525-1.261-14.111-3.94-19.253-7.182c-5.183-3.209-9.009-6.814-11.86-9.924c-2.86-3.128-4.708-5.822-5.948-7.694
			c-0.307-0.473-0.578-0.891-0.812-1.252c-0.21-0.346-0.387-0.638-0.529-0.872c-0.285-0.469-0.431-0.711-0.431-0.711
			c-0.828-1.364-0.393-3.14,0.971-3.968C153.462,252.99,155.013,253.261,155.919,254.302z"/>
	</g>
</g>
<g id="Layer_1">
</g>
</svg>
