<?xml version="1.0" encoding="iso-8859-1"?>
<!-- Generator: Adobe Illustrator 18.1.0, SVG Export Plug-In . SVG Version: 6.00 Build 0)  -->
<!DOCTYPE svg PUBLIC "-//W3C//DTD SVG 1.1//EN" "http://www.w3.org/Graphics/SVG/1.1/DTD/svg11.dtd">
<svg version="1.1" xmlns="http://www.w3.org/2000/svg" xmlns:xlink="http://www.w3.org/1999/xlink" x="0px" y="0px"
	 viewBox="0 0 512 512" enable-background="new 0 0 512 512" xml:space="preserve">
<g id="Layer_3">
	<path fill="#D19B61" d="M277.806,304.361c0,0,7.646,9.475,20.474,23.688c6.353,7.106,13.072,15.397,23.922,24.28
		c10.512,8.883,23.621,18.358,30.381,27.833c6.869,9.475,7.806,18.95,8.496,27.833c0.347,8.883-1.352,17.174-4.29,24.28
		c-2.957,7.106-6.92,13.028-10.807,17.174c-3.471,4.145-6.726,6.514-6.726,6.514c-50.847,37.002-118.23,35.043-166.513,0
		c0,0-3.255-2.369-6.726-6.514c-3.888-4.145-7.85-10.067-10.808-17.174c-2.937-7.106-4.636-15.397-4.289-24.28
		c0.69-8.883,1.628-18.358,8.495-27.833c6.759-9.475,19.869-18.95,30.381-27.833c10.851-8.883,17.569-17.174,23.922-24.28
		c12.83-14.212,20.475-23.688,20.475-23.688c9.718-12.043,27.359-13.928,39.402-4.21
		C275.136,301.394,276.601,302.887,277.806,304.361z"/>
</g>
<g id="Layer_1">
</g>
</svg>
