<?xml version="1.0" encoding="iso-8859-1"?>
<!-- Generator: Adobe Illustrator 18.1.0, SVG Export Plug-In . SVG Version: 6.00 Build 0)  -->
<!DOCTYPE svg PUBLIC "-//W3C//DTD SVG 1.1//EN" "http://www.w3.org/Graphics/SVG/1.1/DTD/svg11.dtd">
<svg version="1.1" xmlns="http://www.w3.org/2000/svg" xmlns:xlink="http://www.w3.org/1999/xlink" x="0px" y="0px"
	 viewBox="0 0 512 512" enable-background="new 0 0 512 512" xml:space="preserve">
<g id="Layer_3">
	<g>
		<path fill="#FFB941" d="M154.069,191.207c0,0-0.586-0.302-1.685-0.869c-0.275-0.142-0.581-0.3-0.919-0.474
			c-0.084-0.044-0.171-0.088-0.259-0.134c-0.19-0.08-0.384-0.161-0.582-0.244c-0.408-0.174-0.832-0.354-1.273-0.542
			c-0.879-0.38-1.818-0.796-2.809-1.253c-0.493-0.231-1.002-0.469-1.526-0.714c-0.458-0.235-0.85-0.461-1.294-0.704
			c-1.731-0.969-3.655-2.022-5.604-3.326c-0.98-0.645-2.016-1.293-3.031-2.025c-1.002-0.741-2.041-1.509-3.113-2.303
			c-4.188-3.257-8.542-7.219-12.652-11.929c-4.113-4.706-7.988-10.152-11.289-16.282c-3.3-6.126-6.034-12.944-7.834-20.304
			c-1.822-7.334-2.607-15.301-2.034-23.359c0.52-8.043,2.654-16.203,6.118-23.472c3.423-7.314,8.333-13.563,13.617-18.456
			l0.994-0.913l0.497-0.451l0.248-0.224l0.062-0.056c0.163-0.179-0.276,0.321,0.38-0.415l0.098-0.071l1.571-1.128
			c0.745-0.587,1.636-1.29,2.448-1.9c0.434-0.341,0.782-0.549,1.164-0.808l1.124-0.737c3.013-1.916,6.11-3.492,9.218-4.755
			c6.214-2.543,12.495-3.766,18.375-4.035c5.893-0.241,11.407,0.495,16.213,1.95c4.816,1.412,8.893,3.542,12.127,5.783
			c3.245,2.247,5.648,4.632,7.392,6.7c1.751,2.068,2.877,3.817,3.603,5.013c0.689,1.209,1.057,1.854,1.057,1.854l0.079,0.138
			c1.221,2.143,0.475,4.87-1.668,6.091c-1.774,1.011-3.952,0.669-5.341-0.694c0,0-0.403-0.395-1.157-1.137
			c-0.769-0.718-1.925-1.738-3.513-2.82c-1.58-1.088-3.61-2.222-6.074-3.094c-2.46-0.87-5.343-1.515-8.533-1.591
			c-3.177-0.118-6.65,0.336-10.127,1.395c-3.468,1.084-6.957,2.76-10.067,5.087c-1.557,1.154-3.026,2.449-4.364,3.866
			c-0.313,0.355-0.693,0.732-0.955,1.061l-0.798,0.986l-1.164,1.498l-0.073,0.094c0.319-0.357,0.074-0.076,0.138-0.145l-0.026,0.04
			l-0.103,0.16l-0.205,0.319l-0.412,0.636c-2.186,3.39-3.791,7.014-4.504,10.747c-0.74,3.721-0.829,7.49-0.159,11.157
			c0.635,3.658,1.837,7.195,3.542,10.404c1.678,3.214,3.746,6.112,5.978,8.592c2.232,2.483,4.624,4.544,6.953,6.184
			c2.33,1.644,4.593,2.865,6.612,3.79c0.509,0.217,1.001,0.426,1.477,0.629c0.473,0.201,0.948,0.336,1.388,0.503
			c0.876,0.349,1.712,0.537,2.444,0.76c0.18,0.052,0.356,0.103,0.526,0.152c0.133,0.021,0.262,0.042,0.387,0.062
			c0.245,0.047,0.475,0.091,0.688,0.131c0.105,0.023,0.206,0.046,0.303,0.068l0.151,0.035c0.096,0.018,0.189,0.036,0.281,0.054
			c0.366,0.07,0.698,0.133,0.996,0.19c1.191,0.227,1.826,0.348,1.826,0.348l3.767,0.719c15.705,2.997,26.007,18.157,23.01,33.862
			c-2.997,15.705-18.157,26.007-33.862,23.01C159.156,193.388,156.449,192.419,154.069,191.207z"/>
	</g>
</g>
<g id="Layer_1">
</g>
</svg>
