<?xml version="1.0" encoding="iso-8859-1"?>
<!-- Generator: Adobe Illustrator 18.1.0, SVG Export Plug-In . SVG Version: 6.00 Build 0)  -->
<!DOCTYPE svg PUBLIC "-//W3C//DTD SVG 1.1//EN" "http://www.w3.org/Graphics/SVG/1.1/DTD/svg11.dtd">
<svg version="1.1" xmlns="http://www.w3.org/2000/svg" xmlns:xlink="http://www.w3.org/1999/xlink" x="0px" y="0px"
	 viewBox="0 0 512 512" enable-background="new 0 0 512 512" xml:space="preserve">
<g id="Layer_3">
	<path fill="#ADBCBB" d="M342.806,88.829C341.459,80.115,355,69.147,355,69.147c0-1.186-0.961-2.147-2.147-2.147h-39.38
		c-1.596,0-2.634-1.679-1.92-3.107l5.48-10.96c0.802-1.605-0.593-3.43-2.35-3.063c-12.299,2.565-51.739,14.027-89.985,30.758
		c-17.707,5.925-34.344,14.895-49.476,26.226c-11.825,7.924-21.587,16.366-27.716,25.13l0.009-0.002
		c-35.468,38.585-57.606,91.326-57.606,143.974c0,101.526,82.303,183.829,183.829,183.829s183.829-82.303,183.829-183.829
		C457.566,198.862,410.102,121.57,342.806,88.829z"/>
</g>
<g id="Layer_1">
</g>
</svg>
