<?xml version="1.0" encoding="iso-8859-1"?>
<!-- Generator: Adobe Illustrator 18.1.0, SVG Export Plug-In . SVG Version: 6.00 Build 0)  -->
<!DOCTYPE svg PUBLIC "-//W3C//DTD SVG 1.1//EN" "http://www.w3.org/Graphics/SVG/1.1/DTD/svg11.dtd">
<svg version="1.1" xmlns="http://www.w3.org/2000/svg" xmlns:xlink="http://www.w3.org/1999/xlink" x="0px" y="0px"
	 viewBox="0 0 512 512" enable-background="new 0 0 512 512" xml:space="preserve">
<g id="Layer_4">
	<path fill="#2B3B47" d="M188.387,217.463v1.635v38.959v1.635c0,14.155-11.475,25.63-25.63,25.63s-25.63-11.475-25.63-25.63v-1.635
		v-38.959v-1.635c0-14.155,11.475-25.63,25.63-25.63S188.387,203.308,188.387,217.463z M349.243,191.833
		c-14.155,0-25.63,11.475-25.63,25.63v1.635v38.959v1.635c0,14.155,11.475,25.63,25.63,25.63s25.63-11.475,25.63-25.63v-1.635
		v-38.959v-1.635C374.873,203.308,363.398,191.833,349.243,191.833z M255.694,454.465c30.583,0,45.428-14.85,52.276-26.057
		c1.607-2.63-0.577-6.425-2.749-4.761c-8.976,6.877-25.432,10.66-49.528,10.66c-24.116,0-41.012-3.8-50.307-10.678
		c-2.198-1.627-4.347,2.249-2.688,4.835C209.887,439.664,225.162,454.465,255.694,454.465z"/>
</g>
<g id="Layer_1">
</g>
</svg>
