<?xml version="1.0" encoding="iso-8859-1"?>
<!-- Generator: Adobe Illustrator 18.1.0, SVG Export Plug-In . SVG Version: 6.00 Build 0)  -->
<!DOCTYPE svg PUBLIC "-//W3C//DTD SVG 1.1//EN" "http://www.w3.org/Graphics/SVG/1.1/DTD/svg11.dtd">
<svg version="1.1" id="Layer_1" xmlns="http://www.w3.org/2000/svg" xmlns:xlink="http://www.w3.org/1999/xlink" x="0px" y="0px"
	 viewBox="0 0 512 512" enable-background="new 0 0 512 512" xml:space="preserve">
<path fill="#2B3B47" d="M157.46,273.265c13.518,0,24.477,10.959,24.477,24.477v30.088c0,13.518-10.959,24.477-24.477,24.477l0,0
	c-13.518,0-24.477-10.959-24.477-24.477v-30.088C132.983,284.223,143.942,273.265,157.46,273.265L157.46,273.265z M354.54,273.264
	c-13.518,0-24.477,10.959-24.477,24.477v30.088c0,13.518,10.959,24.477,24.477,24.477l0,0c13.518,0,24.477-10.959,24.477-24.477
	v-30.088C379.017,284.223,368.058,273.264,354.54,273.264L354.54,273.264z"/>
</svg>
