<?xml version="1.0" encoding="iso-8859-1"?>
<!-- Generator: Adobe Illustrator 18.1.0, SVG Export Plug-In . SVG Version: 6.00 Build 0)  -->
<!DOCTYPE svg PUBLIC "-//W3C//DTD SVG 1.1//EN" "http://www.w3.org/Graphics/SVG/1.1/DTD/svg11.dtd">
<svg version="1.1" xmlns="http://www.w3.org/2000/svg" xmlns:xlink="http://www.w3.org/1999/xlink" x="0px" y="0px"
	 viewBox="0 0 512 512" enable-background="new 0 0 512 512" xml:space="preserve">
<g id="Layer_4">
	<path fill="#2B3B47" d="M404.85,257.71v9.723h-0.015c0,0.015,0.015,0.02,0.015,0.027c0,3.818-3.098,6.916-6.916,6.916
		c-3.818,0-6.916-3.098-6.916-6.916c0-0.008,0-0.013,0-0.027h-0.03v-9.723h0.083c0.309-3.542,3.24-6.328,6.863-6.328
		c3.612,0,6.544,2.787,6.848,6.328H404.85z M479.382,267.65h-0.068c-0.304-3.542-3.236-6.328-6.848-6.328
		c-3.622,0-6.554,2.787-6.863,6.328h-0.083"/>
</g>
<g id="Layer_1">
</g>
</svg>
