<?xml version="1.0" encoding="iso-8859-1"?>
<!-- Generator: Adobe Illustrator 18.1.0, SVG Export Plug-In . SVG Version: 6.00 Build 0)  -->
<!DOCTYPE svg PUBLIC "-//W3C//DTD SVG 1.1//EN" "http://www.w3.org/Graphics/SVG/1.1/DTD/svg11.dtd">
<svg version="1.1" xmlns="http://www.w3.org/2000/svg" xmlns:xlink="http://www.w3.org/1999/xlink" x="0px" y="0px"
	 viewBox="0 0 512 512" enable-background="new 0 0 512 512" xml:space="preserve">
<g id="Layer_4">
	<path fill="#B7834F" d="M340.809,426.833c-6.171,0.001-12.385-0.634-18.567-1.919c-23.629-4.91-43.932-18.729-57.168-38.909
		c-11.687-17.817-14.357-39.587-7.327-59.727c4.965-14.225,14.263-26.12,26.888-34.401c11.587-7.599,25.438-10.23,39.004-7.412
		c13.565,2.819,25.222,10.752,32.82,22.339c5.9,8.995,7.944,19.749,5.755,30.282c-2.188,10.533-8.349,19.583-17.345,25.482
		c-7.129,4.677-15.654,6.297-24.003,4.562c-8.35-1.735-15.522-6.617-20.199-13.747c-7.836-11.947-4.491-28.042,7.457-35.878
		c4.825-3.166,11.305-1.82,14.471,3.008c3.166,4.826,1.819,11.306-3.008,14.471c-2.309,1.515-2.956,4.626-1.441,6.936
		c1.614,2.461,4.091,4.146,6.974,4.745c2.886,0.603,5.826,0.04,8.286-1.574c4.327-2.838,7.29-7.191,8.343-12.257
		c1.053-5.066,0.07-10.239-2.768-14.565c-9.365-14.28-28.603-18.277-42.882-8.912c-8.743,5.735-15.181,13.97-18.617,23.812
		c-4.87,13.954-3.021,29.034,5.071,41.373c10.174,15.513,25.78,26.134,43.942,29.908c18.159,3.773,36.707,0.251,52.219-9.924
		c22.453-14.726,37.826-37.313,43.29-63.603c5.463-26.289,0.361-53.131-14.364-75.583c-43.451-66.246-132.694-84.792-198.941-41.343
		c-4.827,3.166-11.305,1.82-14.471-3.007c-3.166-4.827-1.819-11.306,3.007-14.471c75.884-49.771,178.113-28.528,227.884,47.357
		c17.788,27.121,23.95,59.545,17.351,91.3c-6.599,31.756-25.169,59.04-52.29,76.828
		C375.277,421.776,358.223,426.833,340.809,426.833z"/>
</g>
<g id="Layer_1">
</g>
</svg>
