<?xml version="1.0" encoding="iso-8859-1"?>
<!-- Generator: Adobe Illustrator 18.1.0, SVG Export Plug-In . SVG Version: 6.00 Build 0)  -->
<!DOCTYPE svg PUBLIC "-//W3C//DTD SVG 1.1//EN" "http://www.w3.org/Graphics/SVG/1.1/DTD/svg11.dtd">
<svg version="1.1" xmlns="http://www.w3.org/2000/svg" xmlns:xlink="http://www.w3.org/1999/xlink" x="0px" y="0px"
	 viewBox="0 0 512 512" enable-background="new 0 0 512 512" xml:space="preserve">
<g id="Layer_6">
	<path fill="#FFEECC" d="M78.27,220.799c-0.442,0-0.83-0.323-0.898-0.774c-0.075-0.496,0.267-0.959,0.764-1.034
		c34.899-5.257,46.363-1.696,46.833-1.543c0.477,0.156,0.737,0.669,0.581,1.146c-0.156,0.477-0.67,0.737-1.146,0.581
		c-0.111-0.035-11.667-3.559-45.998,1.613C78.36,220.796,78.315,220.799,78.27,220.799z M123.242,227.561
		c0.067-0.498-0.283-0.955-0.78-1.021c-0.175-0.023-17.713-2.353-38.782-3.559c-0.502-0.028-0.931,0.354-0.959,0.856
		c-0.028,0.501,0.354,0.931,0.856,0.959c20.996,1.202,38.47,3.522,38.644,3.545c0.041,0.005,0.082,0.008,0.122,0.008
		C122.791,228.349,123.181,228.017,123.242,227.561z M117.789,240.647c0.283-0.415,0.176-0.98-0.239-1.263
		c-0.169-0.115-17.157-11.516-42.459-12.965c-0.504-0.026-0.931,0.354-0.959,0.856c-0.028,0.501,0.354,0.931,0.856,0.959
		c24.773,1.418,41.374,12.54,41.539,12.652c0.157,0.106,0.334,0.158,0.511,0.158C117.327,241.044,117.613,240.905,117.789,240.647z"
		/>
</g>
<g id="Layer_1">
</g>
</svg>
