<?xml version="1.0" encoding="iso-8859-1"?>
<!-- Generator: Adobe Illustrator 19.2.1, SVG Export Plug-In . SVG Version: 6.00 Build 0)  -->
<!DOCTYPE svg PUBLIC "-//W3C//DTD SVG 1.1//EN" "http://www.w3.org/Graphics/SVG/1.1/DTD/svg11.dtd">
<svg version="1.1" xmlns="http://www.w3.org/2000/svg" xmlns:xlink="http://www.w3.org/1999/xlink" x="0px" y="0px"
	 viewBox="0 0 512 512" enable-background="new 0 0 512 512" xml:space="preserve">
<g id="Layer_6">
	<path fill="#AF773F" d="M230.752,165.558c0,0-0.111,0.69-0.319,1.984c-0.052,0.323-0.11,0.685-0.174,1.082
		c-0.032,0.199-0.065,0.407-0.1,0.624c-0.06,0.326-0.122,0.666-0.187,1.02c-0.297,1.552-0.666,3.332-1.127,5.301
		c-0.503,1.697-1.05,3.555-1.732,5.547c-0.383,0.975-0.782,1.99-1.195,3.043c-0.212,0.523-0.427,1.055-0.647,1.596
		c-0.249,0.522-0.503,1.053-0.761,1.592c-1.986,4.374-4.787,8.883-8.139,13.322c-3.366,4.435-7.372,8.715-11.838,12.595
		c-4.46,3.902-9.353,7.47-14.505,10.687c-10.315,6.436-21.633,11.501-33.011,15.49c-11.386,3.985-22.847,6.941-33.627,9.14
		c-2.696,0.547-5.349,1.045-7.948,1.502c-1.301,0.218-2.588,0.433-3.859,0.646l-0.95,0.157l-0.059,0.01
		c0.312-0.08-0.782,0.192,0.684-0.176l-0.112,0.024l-0.224,0.048l-0.447,0.096c-0.595,0.128-1.186,0.255-1.773,0.382
		c-0.401,0.078-0.314,0.091-0.399,0.118c-0.055,0.023-0.113,0.04-0.174,0.052c-0.061,0.011-0.125,0.017-0.192,0.018l-0.105-0.003
		l-0.183,0.081c-0.49,0.241-1.06,0.354-1.505,0.669c-0.238,0.132-0.483,0.254-0.731,0.374c-0.212,0.167-0.43,0.325-0.654,0.477
		c-0.485,0.265-0.823,0.684-1.247,1.012c-1.584,1.44-2.63,3.269-3.246,4.983c-0.649,1.727-0.73,3.36-0.724,4.703
		c0.022,0.335,0.034,0.657,0.037,0.964c0.021,0.304,0.108,0.579,0.143,0.845c0.041,0.267,0.078,0.515,0.113,0.742
		c0.033,0.229,0.13,0.422,0.177,0.605c0.225,0.724,0.321,1.132,0.321,1.132l0.502,2.14c1.291,5.497-2.119,10.999-7.616,12.29
		c-4.697,1.103-9.399-1.233-11.473-5.363c0,0-0.442-0.879-1.225-2.569c-0.186-0.427-0.431-0.887-0.624-1.429
		c-0.187-0.546-0.39-1.142-0.61-1.786c-0.205-0.65-0.463-1.341-0.652-2.102c-0.164-0.77-0.338-1.589-0.522-2.454
		c-0.615-3.467-0.958-7.875-0.017-12.791c0.908-4.892,2.958-10.326,6.782-15.308c0.987-1.215,1.955-2.503,3.161-3.623
		c0.591-0.573,1.188-1.151,1.79-1.735c0.648-0.532,1.314-1.059,1.992-1.585c1.324-1.102,2.851-1.959,4.375-2.885l0.584-0.34
		l0.707-0.338c0.478-0.218,0.959-0.437,1.441-0.657c0.489-0.208,0.979-0.418,1.471-0.628c0.468-0.193,1.094-0.446,1.28-0.501
		c0.567-0.199,1.137-0.399,1.712-0.6l0.431-0.151l0.216-0.076l0.108-0.038l0.796-0.202l0.053-0.016l0.844-0.251
		c1.127-0.338,2.267-0.68,3.42-1.025c2.299-0.711,4.636-1.461,6.996-2.258c9.435-3.194,19.26-7.116,28.483-11.718
		c9.219-4.589,17.797-9.922,24.614-15.521c3.41-2.793,6.372-5.642,8.803-8.411c2.451-2.764,4.311-5.463,5.68-7.927
		c1.351-2.471,2.348-4.685,2.864-6.642c0.08-0.241,0.158-0.478,0.236-0.711c0.05-0.236,0.099-0.468,0.147-0.696
		c0.106-0.448,0.209-0.88,0.307-1.295c0.125-0.825,0.24-1.583,0.344-2.267c-0.032-0.435-0.018-0.801,0.019-1.116l0.015-0.115
		l0.008-0.056l0.006-0.16c0.008-0.219,0.015-0.43,0.022-0.631c0.014-0.402,0.026-0.768,0.038-1.095
		c0.045-1.31,0.069-2.008,0.069-2.008c0.409-11.903,10.389-21.22,22.292-20.811c11.903,0.409,21.22,10.389,20.811,22.292
		c-0.03,0.868-0.111,1.723-0.239,2.561L230.752,165.558z"/>
</g>
<g id="Layer_1">
</g>
</svg>
