<?xml version="1.0" encoding="iso-8859-1"?>
<!-- Generator: Adobe Illustrator 18.1.0, SVG Export Plug-In . SVG Version: 6.00 Build 0)  -->
<!DOCTYPE svg PUBLIC "-//W3C//DTD SVG 1.1//EN" "http://www.w3.org/Graphics/SVG/1.1/DTD/svg11.dtd">
<svg version="1.1" xmlns="http://www.w3.org/2000/svg" xmlns:xlink="http://www.w3.org/1999/xlink" x="0px" y="0px"
	 viewBox="0 0 512 512" enable-background="new 0 0 512 512" xml:space="preserve">
<g id="Layer_3">
	<path fill="#D19B61" d="M335.307,46.959c-6.664,6.128-12.778,12.435-18.386,18.89c-19.271-5.848-39.798-9.071-61.103-9.071
		c-111.059,0-201.089,87.282-201.089,180.213c0,12.498,1.631,24.677,4.723,36.397c5.695,21.586,8.35,43.841,8.409,66.166
		c0.001,0.298,0.003,0.597,0.007,0.896c0.589,43.554,36.149,79.14,79.703,79.75c21.301,0.298,40.741-7.645,55.347-20.839
		c16.858,3.837,34.591,5.897,52.901,5.897s36.043-2.06,52.901-5.897c14.605,13.194,34.045,21.137,55.345,20.839
		c43.554-0.609,79.115-36.194,79.704-79.749c0.004-0.3,0.006-0.599,0.007-0.898c0.058-22.325,2.715-44.582,8.409-66.169
		c3.091-11.719,4.722-23.897,4.722-36.394c0-24.339-6.185-48.287-17.297-70.385C559.694,49.427,450.173-58.669,335.307,46.959z"/>
</g>
<g id="Layer_1">
</g>
</svg>
