<?xml version="1.0" encoding="iso-8859-1"?>
<!-- Generator: Adobe Illustrator 19.1.0, SVG Export Plug-In . SVG Version: 6.00 Build 0)  -->
<!DOCTYPE svg PUBLIC "-//W3C//DTD SVG 1.1//EN" "http://www.w3.org/Graphics/SVG/1.1/DTD/svg11.dtd">
<svg version="1.1" xmlns="http://www.w3.org/2000/svg" xmlns:xlink="http://www.w3.org/1999/xlink" x="0px" y="0px"
	 viewBox="0 0 512 512" enable-background="new 0 0 512 512" xml:space="preserve">
<g id="Layer_7">
	<path fill="#74C48D" d="M394.574,405.513c-12.623,0-25.31-3.56-36.185-10.523c-2.646-1.694-3.417-5.212-1.723-7.858
		c1.693-2.645,5.212-3.415,7.857-1.723c15.343,9.826,35.001,11.501,51.304,4.37c2.88-1.255,6.232,0.054,7.49,2.933
		c1.26,2.878-0.053,6.232-2.932,7.491C412.248,403.76,403.426,405.513,394.574,405.513z M342.441,446.116
		c0.156-3.138-2.26-5.809-5.396-5.966c-14.406-0.721-28.217-7.446-37.895-18.452c-2.074-2.358-5.666-2.589-8.027-0.515
		c-2.359,2.075-2.59,5.668-0.515,8.028c11.694,13.299,28.412,21.428,45.868,22.301c0.098,0.005,0.194,0.007,0.289,0.007
		C339.776,451.52,342.289,449.157,342.441,446.116z M423.905,312.771c15.644-0.293,30.09-5.857,41.777-16.091
		c2.363-2.07,2.601-5.664,0.531-8.026c-2.069-2.363-5.663-2.602-8.027-0.532c-9.641,8.443-21.568,13.033-34.493,13.275
		c-3.141,0.059-5.639,2.653-5.581,5.794c0.057,3.104,2.593,5.581,5.684,5.581C423.832,312.772,423.869,312.772,423.905,312.771z"/>
</g>
<g id="Layer_1">
</g>
</svg>
