<?xml version="1.0" encoding="iso-8859-1"?>
<!-- Generator: Adobe Illustrator 18.1.0, SVG Export Plug-In . SVG Version: 6.00 Build 0)  -->
<!DOCTYPE svg PUBLIC "-//W3C//DTD SVG 1.1//EN" "http://www.w3.org/Graphics/SVG/1.1/DTD/svg11.dtd">
<svg version="1.1" xmlns="http://www.w3.org/2000/svg" xmlns:xlink="http://www.w3.org/1999/xlink" x="0px" y="0px"
	 viewBox="0 0 512 512" enable-background="new 0 0 512 512" xml:space="preserve">
<g id="Layer_4">
	<path fill="#2B3B47" d="M75.73,121.241c3.431-0.249,6.414,2.329,6.663,5.76l0.781,10.741c0.249,3.431-2.329,6.414-5.76,6.663l0,0
		c-3.431,0.249-6.414-2.329-6.663-5.76l-0.781-10.741C69.721,124.474,72.3,121.49,75.73,121.241L75.73,121.241z M17.205,146.118
		c-1.686,0.123-2.954,1.589-2.832,3.276l0.384,5.28c0.123,1.686,1.589,2.954,3.276,2.832l0,0c1.686-0.123,2.954-1.589,2.832-3.275
		l-0.384-5.28C20.358,147.263,18.891,145.995,17.205,146.118L17.205,146.118 M201.669,440.469h-23.734
		c0.083,4.512,0.021,8.929-0.296,12.494c-0.313,3.519,2.426,6.557,5.959,6.557h15.317c3.929,0,6.794-3.714,5.79-7.512
		C203.859,448.808,202.804,444.805,201.669,440.469z M247.39,440.469h-23.734c0.083,4.512,0.021,8.928-0.296,12.494
		c-0.313,3.519,2.426,6.557,5.959,6.557h15.317c3.929,0,6.794-3.714,5.79-7.512C249.58,448.808,248.525,444.805,247.39,440.469z
		 M404.696,440.469c-1.638,4.253-3.179,8.362-4.409,12.088c-1.33,4.027,1.266,8.33,5.018,8.33h12.807
		c2.03,0,3.882-1.315,4.795-3.395c1.567-3.571,4.103-9.694,6.554-17.022H404.696z M343.75,440.469
		c-1.638,4.254-3.179,8.362-4.409,12.088c-1.33,4.027,1.266,8.33,5.018,8.33h12.807c2.03,0,3.882-1.315,4.795-3.395
		c1.762-4.016,4.121-9.997,6.465-17.022H343.75z"/>
</g>
<g id="Layer_1">
</g>
</svg>
