<?xml version="1.0" encoding="iso-8859-1"?>
<!-- Generator: Adobe Illustrator 18.1.0, SVG Export Plug-In . SVG Version: 6.00 Build 0)  -->
<!DOCTYPE svg PUBLIC "-//W3C//DTD SVG 1.1//EN" "http://www.w3.org/Graphics/SVG/1.1/DTD/svg11.dtd">
<svg version="1.1" xmlns="http://www.w3.org/2000/svg" xmlns:xlink="http://www.w3.org/1999/xlink" x="0px" y="0px"
	 viewBox="0 0 512 512" enable-background="new 0 0 512 512" xml:space="preserve">
<g id="Layer_3">
	<path fill="#D0CEC2" d="M472.538,303.833c-11.733-12.523-26.57-27.225-44.216-42.498c5.184-10.103,5.452-22.576-0.635-33.432
		c-8.524-15.203-27.285-21.908-43.514-15.551c-4.232,1.657-7.944,4.021-11.07,6.891c-46.598-30.963-104.065-58.099-169.839-67.219
		l0.025-0.003l-4.797-1.698c-1.279-0.453-1.871-1.835-1.317-3.073l1.099-2.455c0.345-0.769-0.503-1.539-1.447-1.315l-31.155,4.764
		c-1.555,0.238-2.725-1.164-1.923-2.305l4.436-6.309c0.54-0.768-0.289-1.701-1.32-1.48c-9.999,2.138-44.872,10.546-65.257,27.613h0
		c-25.078,17.341-41.512,46.295-41.512,79.093c0,53.074,43.025,96.099,96.099,96.099h300.239
		C475.737,340.955,485.734,317.918,472.538,303.833z"/>
</g>
<g id="Layer_1">
</g>
</svg>
