<?xml version="1.0" encoding="iso-8859-1"?>
<!-- Generator: Adobe Illustrator 18.1.0, SVG Export Plug-In . SVG Version: 6.00 Build 0)  -->
<!DOCTYPE svg PUBLIC "-//W3C//DTD SVG 1.1//EN" "http://www.w3.org/Graphics/SVG/1.1/DTD/svg11.dtd">
<svg version="1.1" xmlns="http://www.w3.org/2000/svg" xmlns:xlink="http://www.w3.org/1999/xlink" x="0px" y="0px"
	 viewBox="0 0 512 512" enable-background="new 0 0 512 512" xml:space="preserve">
<g id="Layer_7">
	<path fill="#FFB941" d="M122.44,110.408c0,0,0.402-0.147,1.179-0.43c0.389-0.142,0.872-0.318,1.446-0.528
		c0.287-0.105,0.597-0.218,0.929-0.339c0.504-0.174,1.041-0.361,1.612-0.559c1.185-0.392,2.508-0.829,3.964-1.31
		c1.347-0.391,2.739-0.756,4.288-1.17c3.088-0.781,6.679-1.517,10.726-2.117c8.092-1.123,18.099-1.567,29.247,0.094
		c11.118,1.65,23.374,5.385,35.244,12.14c5.928,3.367,11.747,7.473,17.207,12.331c5.465,4.849,10.517,10.508,14.956,16.8
		c8.727,12.419,15.682,28.139,16.695,45.737c0.557,8.682-0.36,17.532-2.645,26.041c-2.278,8.517-6.032,16.669-10.976,24.045
		c-4.968,7.366-11.221,13.892-18.342,19.214c-3.576,2.641-7.37,4.969-11.306,6.965c-0.992,0.482-1.962,1.01-2.978,1.434
		l-1.511,0.662l-0.756,0.328l-1.541,0.647l-2.43,0.818l-1.215,0.409l-0.608,0.205l-0.304,0.102l-0.471,0.133
		c-1.265,0.355-2.536,0.693-3.808,1.012l-1.908,0.464l-0.954,0.221c-0.302,0.058-0.577,0.09-0.867,0.136l-3.434,0.484
		c-1.144,0.15-2.282,0.325-3.437,0.342c-4.596,0.275-9.199,0.156-13.692-0.549c-8.997-1.322-17.559-4.54-25.019-9.262
		c-7.467-4.712-13.826-10.944-18.57-18.041c-1.116-1.818-2.209-3.638-3.257-5.462l-1.348-2.845l-0.659-1.421l-0.325-0.71
		l-0.162-0.355l-0.081-0.177l-0.348-0.809l-0.778-2.31l-0.388-1.152l-0.097-0.291l-0.125-0.444l-0.244-0.889
		c-0.32-1.186-0.621-2.374-0.9-3.559c-0.067-0.293-0.145-0.6-0.198-0.88l-0.119-0.801l-0.227-1.599
		c-0.678-4.249-0.572-8.529-0.222-12.68c0.569-4.135,1.386-8.188,2.862-11.965c1.328-3.825,3.273-7.337,5.36-10.644
		c0.567-0.801,1.151-1.585,1.73-2.366c0.589-0.774,1.134-1.573,1.803-2.274c1.302-1.427,2.522-2.901,3.972-4.137
		c0.703-0.634,1.404-1.267,2.102-1.897c0.723-0.598,1.49-1.14,2.232-1.701c0.756-0.543,1.476-1.128,2.26-1.613
		c0.789-0.474,1.575-0.946,2.358-1.417c1.538-0.986,3.206-1.685,4.816-2.446l1.211-0.554c-0.052,0.019,1.021-0.436,0.624-0.262
		l0.124-0.042l0.248-0.085l0.495-0.169c0.659-0.226,1.316-0.45,1.97-0.674c0.896-0.268,1.967-0.55,2.94-0.796l1.49-0.361
		c0.481-0.101,0.906-0.146,1.36-0.218c0.893-0.123,1.782-0.246,2.667-0.368c0.889-0.074,1.779-0.096,2.66-0.135
		c1.762-0.128,3.506,0.074,5.222,0.16c0.855,0.086,1.699,0.239,2.539,0.363c0.839,0.133,1.674,0.252,2.483,0.481
		c6.53,1.532,12.341,4.539,16.866,8.495c4.551,3.941,7.808,8.725,9.914,13.479c2.085,4.595,3.04,10.165,2.699,14.658
		c-0.286,4.603-1.516,8.66-3.255,11.92c-1.704,3.28-3.769,5.837-5.803,7.74c-0.249,0.242-0.493,0.479-0.733,0.711
		c-0.254,0.218-0.521,0.413-0.772,0.612c-0.506,0.388-0.991,0.76-1.455,1.116c-0.976,0.644-1.873,1.195-2.676,1.666
		c-0.836,0.409-1.575,0.77-2.213,1.082c-0.639,0.295-1.221,0.45-1.662,0.618c-0.892,0.305-1.353,0.462-1.353,0.462
		c-1.674,0.572-3.495-0.321-4.067-1.995c-0.475-1.39,0.06-2.881,1.214-3.675l0.209-0.142c0,0,0.309-0.212,0.909-0.624
		c0.292-0.214,0.681-0.432,1.089-0.769c0.401-0.339,0.866-0.731,1.392-1.175c0.484-0.488,1.014-1.035,1.577-1.638
		c0.255-0.326,0.522-0.667,0.801-1.023c0.137-0.178,0.286-0.349,0.42-0.539c0.121-0.2,0.245-0.404,0.371-0.612
		c1.051-1.61,1.963-3.636,2.498-5.954c0.543-2.309,0.695-4.923,0.227-7.565c-0.126-0.659-0.315-1.316-0.469-1.975
		c-0.117-0.322-0.235-0.646-0.354-0.974c-0.117-0.317-0.214-0.684-0.364-0.896c-0.31-0.544-0.367-0.8-0.965-1.865
		c-0.242-0.446-0.485-0.895-0.731-1.348c-0.049-0.111,0.259,0.638,0.107,0.295l-0.047-0.058l-0.093-0.116l-0.186-0.232l-0.369-0.465
		c-0.24-0.308-0.482-0.619-0.725-0.933c-0.277-0.283-0.556-0.568-0.837-0.856c-0.274-0.283-0.549-0.568-0.827-0.854
		c-0.31-0.258-0.637-0.5-0.954-0.748c-0.327-0.238-0.608-0.515-0.962-0.724c-0.343-0.211-0.688-0.424-1.036-0.638
		c-0.642-0.47-1.446-0.751-2.16-1.107c-2.964-1.332-6.337-1.7-9.433-1.51c-0.384-0.01-0.774,0.048-1.159,0.097
		c-0.385,0.053-0.763,0.064-1.141,0.129c-0.379,0.092-0.753,0.176-1.123,0.252c-0.371,0.04-0.737,0.143-1.099,0.257
		c-0.362,0.109-0.723,0.185-1.082,0.273c-0.353,0.134-0.704,0.259-1.056,0.373c-0.162,0.063-0.382,0.097-0.502,0.154
		c-0.095,0.06-0.19,0.114-0.285,0.162c-0.095,0.048-0.191,0.09-0.289,0.126l-0.147,0.05l-0.076,0.018
		c-0.023,0.004-0.04,0.003-0.14,0.05c-0.632,0.28-1.266,0.561-1.903,0.843l-0.478,0.212l-0.239,0.106l-0.12,0.053
		c-0.646,0.274,0.741-0.313,0.577-0.237l-0.569,0.342c-0.752,0.465-1.576,0.822-2.258,1.399l-1.089,0.767
		c-0.364,0.255-0.665,0.594-1.008,0.878c-0.329,0.302-0.686,0.571-1.007,0.884c-0.297,0.338-0.6,0.671-0.909,0.997
		c-0.666,0.609-1.133,1.407-1.712,2.103c-0.308,0.336-0.503,0.761-0.749,1.145l-0.733,1.162c-0.801,1.658-1.625,3.332-2.051,5.16
		c-0.575,1.782-0.707,3.674-0.864,5.534c0.064,1.873,0.095,3.758,0.597,5.583l0.147,0.689l0.068,0.346
		c0.027,0.095,0.062,0.149,0.09,0.225c0.118,0.285,0.213,0.572,0.285,0.868l0.05,0.223l0.022,0.113l0.117,0.276l0.477,1.116
		l0.957,2.239c-0.618-1.463-0.141-0.355-0.265-0.659l0.053,0.088l0.105,0.176l0.209,0.353l0.41,0.709l0.794,1.432
		c0.648,0.878,1.283,1.758,1.892,2.659c2.715,3.393,6.128,6.23,9.991,8.3c3.865,2.064,8.181,3.319,12.53,3.641
		c2.173,0.205,4.356,0.065,6.5-0.2c0.543-0.014,1.068-0.171,1.596-0.286l1.586-0.327c0.128-0.027,0.276-0.047,0.387-0.077
		l0.271-0.105l0.544-0.189c0.364-0.117,0.731-0.214,1.106-0.295l0.144-0.031l0.295-0.124l0.59-0.248l1.181-0.497l2.361-0.993
		c-0.325,0.137,0.936-0.395-0.691,0.292l0.1-0.054l0.2-0.107l0.401-0.213l0.804-0.42c0.547-0.259,1.042-0.605,1.567-0.899
		c2.062-1.235,4.002-2.631,5.815-4.156c3.6-3.082,6.678-6.715,9.044-10.741c4.742-8.062,6.58-17.512,5.468-26.145
		c-0.244-2.164-0.646-4.291-1.246-6.345c-0.125-0.52-0.289-1.028-0.464-1.532l-0.246-0.759l-0.12-0.379l-0.116-0.284
		c-0.152-0.379-0.293-0.759-0.424-1.143c-0.298-0.688-0.596-1.374-0.893-2.059l-0.231-0.529l-0.116-0.264
		c-0.196-0.448,0.202,0.458,0.143,0.333l-0.049-0.096l-0.391-0.767l-0.766-1.532c-0.56-0.988-1.102-1.978-1.682-2.935
		c-1.196-1.89-2.413-3.732-3.784-5.416c-5.375-6.818-11.956-11.983-18.707-15.421c-6.752-3.467-13.6-5.22-19.689-5.866
		c-6.114-0.665-11.469-0.128-15.794,0.572c-2.16,0.398-4.075,0.841-5.721,1.31c-0.814,0.246-1.567,0.473-2.257,0.681
		c-0.562,0.209-1.077,0.388-1.54,0.542c-0.248,0.087-0.415,0.128-0.692,0.235c-0.326,0.136-0.63,0.263-0.911,0.381
		c-0.563,0.235-1.037,0.433-1.419,0.592c-0.763,0.319-1.157,0.483-1.157,0.483l-1.287,0.537
		c-12.313,5.142-26.463-0.671-31.605-12.984c-5.142-12.313,0.671-26.463,12.984-31.605
		C121.725,110.679,122.124,110.525,122.44,110.408z"/>
</g>
<g id="Layer_1">
</g>
</svg>
