<?xml version="1.0" encoding="iso-8859-1"?>
<!-- Generator: Adobe Illustrator 18.1.0, SVG Export Plug-In . SVG Version: 6.00 Build 0)  -->
<!DOCTYPE svg PUBLIC "-//W3C//DTD SVG 1.1//EN" "http://www.w3.org/Graphics/SVG/1.1/DTD/svg11.dtd">
<svg version="1.1" xmlns="http://www.w3.org/2000/svg" xmlns:xlink="http://www.w3.org/1999/xlink" x="0px" y="0px"
	 viewBox="0 0 512 512" enable-background="new 0 0 512 512" xml:space="preserve">
<g id="Layer_4">
	<path fill="#00BC74" d="M492.435,364.927c-1.25-9.271-3.099-17.283-5.131-24.065c-2.012-6.786-4.055-12.379-5.879-16.824
		c-1.832-4.442-3.344-7.771-4.4-9.995c-1.075-2.211-1.63-3.352-1.63-3.352c-1.891-3.893-6.293-6.095-10.676-5.044
		c-5.062,1.214-8.181,6.302-6.967,11.364l0.067,0.278c0,0,0.271,1.13,0.797,3.32c0.521,2.185,1.265,5.43,2.067,9.661
		c0.797,4.229,1.692,9.436,2.285,15.533c0.304,3.047,0.524,6.311,0.698,9.764c0.129,3.456,0.157,7.106,0.002,10.918
		c-0.334,7.615-1.314,15.893-3.548,24.322c-2.256,8.4-5.806,16.964-10.991,24.595c-2.595,3.804-5.569,7.38-8.931,10.464
		c-3.352,3.083-7.066,5.701-10.907,7.564c-3.829,1.882-7.806,2.934-11.33,3.113c-0.443,0.037-0.874,0.025-1.302,0.031
		c-0.216,0.013-0.422-0.019-0.632-0.021c-0.181-0.014-0.492,0-0.516-0.038c-0.083-0.026-0.164-0.044-0.245-0.053l-1.166-0.078
		l-0.662-0.044c-0.255-0.008,0.866-0.001,0.333-0.019l-0.139-0.029l-0.553-0.105c-0.735-0.167-1.459-0.384-2.179-0.63
		c-0.719-0.262-1.429-0.585-2.143-0.926c-2.837-1.407-5.663-3.69-8.131-6.836c-2.464-3.135-4.578-7.075-5.956-11.585
		c-1.39-4.501-2.109-9.527-2.073-14.828c0.035-2.656,0.254-5.378,0.667-8.146c0.443-2.769,1.042-5.585,1.819-8.432
		c1.546-5.698,3.965-11.467,6.989-17.233c0.758-1.442,1.559-2.882,2.4-4.318c0.425-0.695,0.873-1.481,1.273-2.106l1.238-1.942
		l1.597-2.427l2.022-3.167c1.325-2.138,2.653-4.288,3.913-6.505c5.068-8.838,9.654-18.289,13.419-28.42
		c3.772-10.122,6.692-20.942,8.312-32.356c1.601-11.411,1.926-23.428,0.304-35.697c-1.63-12.245-5.191-24.746-11.347-36.652
		c-6.142-11.868-14.918-23.224-26.931-32.188c-5.992-4.465-12.795-8.3-20.295-11.069c-7.485-2.773-15.682-4.445-24.041-4.652
		c-8.353-0.226-16.816,1.042-24.636,3.587c-7.83,2.535-15.015,6.278-21.239,10.679c-6.242,4.401-11.615,9.407-16.21,14.636
		c-4.621,5.233-8.474,10.693-11.834,16.201c-6.66,11.038-11.273,22.249-14.799,33.315c-3.514,11.079-5.91,22.051-7.648,32.89
		c-1.741,10.843-2.761,21.546-3.359,32.135c-0.276,5.288-0.484,10.56-0.541,15.787c-0.05,2.57-0.04,5.439-0.043,7.998l0.032,3.614
		l0.01,3.4c-0.03,7.901-0.737,15.503-2.112,22.565c-1.398,7.043-3.486,13.535-6.212,19.094c-2.721,5.562-6.034,10.188-9.647,13.669
		c-3.614,3.474-7.506,5.808-11.236,7.045c-3.733,1.247-7.267,1.388-10.16,0.786c-2.92-0.61-5.158-1.863-7.071-3.716
		c-1.907-1.854-3.651-4.497-4.895-8.383c-1.251-3.846-1.908-8.835-1.729-14.423c0.151-5.583,1.127-11.732,2.715-17.993
		c0.802-3.136,1.759-6.308,2.847-9.486c0.545-1.59,1.127-3.181,1.728-4.771l0.932-2.385l0.878-2.136
		c0.797-1.851,1.592-3.695,2.383-5.533c0.869-2.06,1.734-4.114,2.597-6.16c1.696-4.098,3.308-8.182,4.859-12.25
		c3.094-8.136,5.919-16.211,8.494-24.225c5.146-16.027,9.338-31.799,12.549-47.301c3.183-15.506,5.417-30.729,6.516-45.672
		c1.09-14.941,1.067-29.61-0.531-43.981c-1.608-14.346-4.816-28.483-10.44-41.781c-2.808-6.634-6.226-13.029-10.24-18.94
		c-4.005-5.912-8.606-11.318-13.529-15.986c-4.911-4.688-10.159-8.586-15.307-11.759c-5.163-3.165-10.233-5.595-14.976-7.466
		c-9.056-3.558-16.813-5.187-23.03-6.167c-8.695-3.326-18.32-5.257-28.478-5.411C91.244,46.954,30.272,72.755,25.376,105.287
		c-0.047,0.309-0.082,0.634-0.108,0.973c-0.741,9.696,7.341,17.818,17.065,17.746l40.555-0.3c3.586-0.027,5.18,4.489,2.374,6.721
		c-11.517,9.161-29.362,24.328-21.267,24.328c18.271,0,52.545-0.13,64.971-0.081c16.665,0.066,32.016-2.443,44.226-7.835
		c1.399,4.583,2.543,10.014,3.245,16.17c1.051,9.052,1.198,19.563,0.397,30.983c-0.794,11.426-2.527,23.772-5.132,36.683
		c-2.583,12.916-6.019,26.421-10.321,40.2c-2.148,6.89-4.517,13.847-7.102,20.823c-1.296,3.486-2.639,6.98-4.047,10.464
		c-0.714,1.735-1.43,3.476-2.149,5.223c-0.819,1.96-1.641,3.927-2.466,5.9c-0.484,1.216-0.968,2.434-1.453,3.654
		c-0.434,1.153-0.869,2.308-1.305,3.465c-0.851,2.332-1.679,4.693-2.469,7.096c-1.578,4.807-3.015,9.77-4.258,14.911
		c-2.459,10.29-4.208,21.293-4.395,33.165c-0.177,11.83,1.188,24.629,5.623,37.685c2.221,6.506,5.212,13.044,9.154,19.289
		c3.927,6.24,8.782,12.182,14.491,17.386c5.702,5.206,12.234,9.666,19.262,13.092c7.026,3.438,14.537,5.825,22.146,7.137
		c15.247,2.65,30.782,0.915,44.604-4.119c13.87-5.015,26.026-13.259,35.77-23.082c9.757-9.849,17.175-21.197,22.523-32.858
		c5.363-11.684,8.743-23.666,10.807-35.461c2.025-11.803,2.755-23.453,2.557-34.807l-0.147-7.437
		c-0.015-2.26-0.049-4.213-0.029-6.465c-0.001-4.42,0.133-8.798,0.312-13.156c0.4-8.699,1.14-17.278,2.383-25.541
		c1.231-8.262,2.928-16.242,5.181-23.604c2.239-7.356,5.064-14.098,8.309-19.596c3.228-5.488,6.9-9.622,10.057-11.876
		c1.577-1.162,2.995-1.851,4.242-2.292c1.255-0.431,2.354-0.609,3.515-0.612c1.157,0.003,2.402,0.197,3.811,0.685
		c1.403,0.486,2.954,1.28,4.539,2.424c3.181,2.271,6.404,5.974,8.876,10.617c2.497,4.639,4.275,10.184,5.145,16.163
		c0.468,2.982,0.669,6.096,0.711,9.26c0.005,3.175-0.188,6.415-0.58,9.689c-0.826,6.552-2.426,13.232-4.681,19.86
		c-2.264,6.627-5.212,13.187-8.66,19.572c-0.853,1.599-1.748,3.189-2.654,4.771c-1.066,1.823-2.129,3.641-3.189,5.454
		c-0.677,1.213-1.352,2.424-2.027,3.633c-0.677,1.236-1.235,2.348-1.852,3.527c-1.19,2.34-2.329,4.711-3.41,7.115
		c-4.322,9.615-7.6,19.815-9.622,30.35c-2.059,10.523-2.63,21.429-1.658,32.239c0.496,5.405,1.412,10.787,2.732,16.072
		c1.371,5.281,3.132,10.463,5.382,15.459c4.461,9.983,10.695,19.288,18.741,26.992c8.005,7.698,17.844,13.826,28.719,17.187
		c5.428,1.674,11.075,2.633,16.683,2.856l2.1,0.04l1.519,0.012l0.662-0.035l1.477-0.077l2.389-0.152
		c0.853-0.054,1.414-0.141,2.106-0.218c0.661-0.085,1.329-0.15,1.977-0.263c1.304-0.206,2.601-0.421,3.865-0.7
		c10.18-2.129,18.958-6.377,26.371-11.405c7.44-5.043,13.537-10.974,18.558-17.185c5.028-6.214,9.009-12.711,12.11-19.215
		c6.265-13.01,9.154-25.88,10.355-37.538C494.18,384.759,493.7,374.19,492.435,364.927z"/>
</g>
<g id="Layer_1">
</g>
</svg>
