<?xml version="1.0" encoding="iso-8859-1"?>
<!-- Generator: Adobe Illustrator 18.1.0, SVG Export Plug-In . SVG Version: 6.00 Build 0)  -->
<!DOCTYPE svg PUBLIC "-//W3C//DTD SVG 1.1//EN" "http://www.w3.org/Graphics/SVG/1.1/DTD/svg11.dtd">
<svg version="1.1" xmlns="http://www.w3.org/2000/svg" xmlns:xlink="http://www.w3.org/1999/xlink" x="0px" y="0px"
	 viewBox="0 0 512 512" enable-background="new 0 0 512 512" xml:space="preserve">
<g id="Layer_2">
	<path fill="#97C83D" d="M424.361,289.34c-9.879-3.635-19.323-5.957-27.687-6.891c-27.498-26.114-64.645-42.16-105.469-42.16
		c-31.938,0-61.622,9.825-86.199,26.603c-36.39-2.702-66.945-30.037-73.157-66.515l-0.06-0.004
		c-4.879-26.703-25.674-46.928-50.915-47.312c-29.22-0.444-74.632,25.704-78.399,58.389c-5.409,46.923,36.443,47.594,73.318,47.591
		c16.777,31.311,44.031,55.88,76.666,69.431c-9.313,19.77-14.531,41.833-14.531,65.094c0,20.153,16.332,36.494,36.494,36.494
		c20.162,0,36.495-16.341,36.495-36.494c0-21.301,8.355-40.675,21.939-55.062c22.584-3.501,33.741-12.18,37.102-22.35
		c6.772-1.861,13.892-2.876,21.247-2.876c44.263,0,80.288,36.016,80.288,80.288c0,20.153,16.332,36.494,36.495,36.494
		s36.495-16.341,36.495-36.494c0-17.453-2.94-34.231-8.338-49.874c33.229-5.325,72.46-21.089,73.57-34.816
		C511.156,291.047,481.87,310.503,424.361,289.34z"/>
</g>
<g id="Layer_1">
</g>
</svg>
