<?xml version="1.0" encoding="iso-8859-1"?>
<!-- Generator: Adobe Illustrator 18.1.0, SVG Export Plug-In . SVG Version: 6.00 Build 0)  -->
<!DOCTYPE svg PUBLIC "-//W3C//DTD SVG 1.1//EN" "http://www.w3.org/Graphics/SVG/1.1/DTD/svg11.dtd">
<svg version="1.1" xmlns="http://www.w3.org/2000/svg" xmlns:xlink="http://www.w3.org/1999/xlink" x="0px" y="0px"
	 viewBox="0 0 512 512" enable-background="new 0 0 512 512" xml:space="preserve">
<g id="Layer_7">
	<path fill="#798891" d="M174.38,90.05c-0.513,0-1.021,0.033-1.53,0.057c-2.198-7.144-6.64-13.303-12.505-17.656l0.002,0
		c-8.586-7.188-24.223-12.58-28.435-13.48c-0.434-0.093-0.783,0.3-0.556,0.623l1.869,2.657c0.338,0.48-0.155,1.071-0.81,0.971
		l-13.122-2.006c-0.398-0.094-0.754,0.23-0.609,0.554l0.463,1.034c0.234,0.521,1.142,2.64,0.603,2.83l-5.87,2.745
		c-12.558,3.129-24.185,19.034-34.73,24.349c-26.94,13.58-17.139,42.273,13.031,42.273h26.774c3.213,0,6.245-0.75,8.959-2.056
		c0.137,0.05,0.277,0.093,0.415,0.141c-4.908,13.434-7.738,29.182-7.738,46.029c0,49.188,24.082,69.457,53.788,69.457
		s53.788-20.268,53.788-69.457C228.168,129.925,204.086,90.05,174.38,90.05z"/>
</g>
<g id="Layer_1">
</g>
</svg>
