<svg xmlns="http://www.w3.org/2000/svg" viewBox="0 0 512 512" enable-background="new 0 0 512 512"><path fill="#009E83" d="M499.44 462.03s-1.016-1.96-3.028-5.546c-2.02-3.58-5.034-8.78-9.037-15.275-2.03-3.224-4.315-6.765-6.846-10.585-2.525-3.83-5.28-7.95-8.368-12.24-1.523-2.165-3.117-4.38-4.77-6.65-1.647-2.28-3.338-4.626-5.135-6.985-1.793-2.364-3.647-4.78-5.57-7.23-1.912-2.46-3.873-4.98-5.91-7.52-4.092-5.074-8.483-10.26-13.04-15.627-4.613-5.324-9.537-10.706-14.586-16.264-2.09-2.173-4.205-4.38-6.342-6.603l-1.42-2.753c-.727-1.43-1.488-2.84-2.244-4.26-.734-1.43-1.577-2.813-2.207-4.303-1.334-2.945-2.74-5.862-4.144-8.796-1.485-2.9-2.62-5.962-3.924-8.955-.64-1.5-1.28-3.006-1.92-4.515l-.97-2.26-.847-2.306-3.448-9.225c-4.29-12.426-7.9-25.14-10.68-38.056-.584-3.26-1.222-6.505-1.848-9.747-.355-1.61-.558-3.26-.777-4.9l-.742-4.91c-.23-1.637-.546-3.254-.715-4.904l-.495-4.948c-.374-3.29-.845-6.55-.99-9.873-.217-3.31-.625-6.58-.786-9.884-.12-3.31-.36-6.606-.544-9.89-.175-6.607-.518-13.155-.494-19.71-.18-6.526.036-13.05-.01-19.468.126-3.22.16-6.422.21-9.595.01-.794.023-1.585.035-2.374l.09-2.37.155-4.717c.112-6.25.492-12.413.638-18.417l.408-8.903c.076-1.46.107-2.92.153-4.362.044-1.443.146-2.875.216-4.294l.69-16.462.515-15.115.165-6.973c.077-2.25.11-4.435.142-6.537l.074-11.643c-.02-3.546-.064-6.724-.157-9.52-.078-2.793-.13-5.17-.25-7.124-.085-1.942-.198-3.45-.274-4.465-.07-1.014-.13-1.546-.13-1.546l-.01-.09c-.222-1.928-1.106-3.79-2.64-5.215-3.414-3.172-8.754-2.975-11.926.44 0 0-.365.393-1.026 1.173-.668.778-1.66 1.933-2.887 3.464-2.495 3.048-6.024 7.567-10.192 13.494l-3.255 4.694c-1.09 1.666-2.265 3.403-3.424 5.237-2.357 3.654-4.86 7.633-7.35 11.993-1.28 2.166-2.537 4.425-3.854 6.75-1.306 2.333-2.537 4.782-3.864 7.28-1.287 2.512-2.62 5.077-3.914 7.757l-3.844 8.276c-1.288 2.824-2.556 5.752-3.772 8.765-1.2 3.018-2.514 6.07-3.687 9.236-2.29 6.37-4.72 12.95-6.722 19.94-2.18 6.918-3.962 14.227-5.722 21.724-.81 3.77-1.56 7.624-2.27 11.516-.77 3.876-1.344 7.867-1.86 11.894-.524 4.028-1.155 8.08-1.404 12.24-.165 2.072-.33 4.153-.498 6.24-.152 2.095-.37 4.18-.396 6.305-.096 4.242-.246 8.518-.275 12.816l-.013 1.615.05 1.623.106 3.253c.08 2.17.13 4.35.24 6.53.134 4.358.62 8.75 1.03 13.15l.71 6.605c.25 2.203.655 4.405.98 6.61.064.39.123.778.185 1.168-2.27-1.262-4.55-2.513-6.853-3.723l-12.33-6.222c-2.044-1.038-4.16-1.97-6.26-2.92-2.1-.95-4.2-1.896-6.295-2.842-2.106-.93-4.17-1.916-6.3-2.793l-6.4-2.57c-17.043-6.775-34.475-12.187-51.767-15.708-4.29-.97-8.607-1.73-12.884-2.41-4.277-.684-8.483-1.45-12.724-1.833l-6.287-.692c-2.084-.22-4.144-.48-6.216-.588-4.14-.236-8.212-.51-12.236-.657-16.103-.443-31.27.22-45.053 2.152-13.79 1.73-26.18 4.528-36.945 7.52-2.7.712-5.278 1.545-7.762 2.36-2.484.805-4.867 1.59-7.145 2.387l-3.34 1.16-3.233 1.246c-2.105.805-4.094 1.644-5.975 2.4-7.666 3.046-12.833 5.992-16.592 8.007-1.852 1.003-3.266 1.823-4.218 2.383-.953.548-1.442.86-1.442.86-2.484 1.595-4.477 4.018-5.5 7.03-2.4 7.064 1.383 14.736 8.448 17.135 0 0 .55.187 1.61.49 1.06.314 2.627.77 4.666 1.297 4.028 1.105 10.252 2.43 17.18 4.335 1.764.43 3.615.924 5.537 1.368.96.23 1.944.468 2.948.71l3.13.797c4.248 1.126 8.805 2.068 13.61 3.31 9.607 2.44 20.237 4.957 31.504 8.043 11.296 2.877 23.193 6.458 35.528 10.158 3.068 1.03 6.184 1.945 9.32 2.914l9.44 3.145 2.385.787c.8.24 1.6.492 2.394.79 1.59.567 3.186 1.136 4.79 1.71 3.195 1.18 6.468 2.127 9.684 3.44 12.99 4.653 26.214 9.96 39.64 15.646 3.36 1.403 6.75 2.783 10.11 4.333l5.066 2.26c1.69.75 3.39 1.483 5.06 2.33l10.157 4.783c1.693.813 3.358 1.716 5.05 2.55l5.08 2.516c3.41 1.61 6.726 3.512 10.11 5.25l5.07 2.622c1.694.858 3.348 1.842 5.023 2.755 3.33 1.88 6.728 3.623 10.062 5.493 3.313 1.93 6.635 3.83 9.975 5.68 13.223 7.697 26.36 15.4 39.03 23.3 3.166 1.97 6.35 3.854 9.462 5.84 3.124 1.957 6.197 3.93 9.3 5.813l18.08 11.39 8.72 5.576c2.868 1.837 5.756 3.565 8.53 5.372 5.573 3.596 11.02 7.013 16.278 10.3 2.598 1.686 5.177 3.303 7.7 4.886 1.802 1.14 3.578 2.24 5.34 3.326l2.244 1.565c1.21.82 2.465 1.55 3.67 2.31 4.844 3.017 9.457 5.805 13.802 8.37.543.32 1.082.638 1.617.95l.64.35 6.213 3.77c3.82 2.3 7.368 4.384 10.605 6.24 6.44 3.76 11.58 6.67 15.144 8.595 3.565 1.927 5.524 2.904 5.524 2.904l.27.134c4.066 1.996 8.994 2.105 13.326-.136 7.26-3.757 10.1-12.683 6.345-19.94z"/></svg>