<svg xmlns="http://www.w3.org/2000/svg" viewBox="0 0 512 512" enable-background="new 0 0 512 512"><path fill="#0c0" d="M467.825 295.783c0-35.526-18.398-68.082-48.965-93.388 2.547-7.61 3.947-15.743 3.947-24.21 0-42.113-34.14-76.252-76.252-76.252-32.33 0-59.938 20.13-71.032 48.53-6.28-.39-12.636-.598-19.063-.598-6.068 0-12.073.187-18.012.533-11.11-28.366-38.702-48.465-71.006-48.465-42.113 0-76.252 34.14-76.252 76.252 0 8.21 1.313 16.11 3.714 23.52-31.07 25.404-49.808 58.228-49.808 94.078 0 5.933 5.923 16.55 5.923 16.55 81.37 99.21 175.54 47.75 205.892 47.75s124.523 50.956 204.32-47.75l-.016-.002c4.282-5.075 6.61-10.59 6.61-16.547z"/></svg>