<svg xmlns="http://www.w3.org/2000/svg" viewBox="0 0 512 512" enable-background="new 0 0 512 512"><path fill="#D19B61" d="M496.767 198.32c-6.215-23.643-15.168-40.713-28.176-53.72-.347-.35-.724-.654-1.114-.93-8.53-7.958-20.34-12.266-36.448-12.266-27.41 0-51.497 13.135-74.48 11.07-30.586-2.747-59.22-20.893-91.14-20.893-52.814 0-94.255 14.385-140.592-6.257-2.182-1.35-4.568-2.486-7.116-3.43-.36-.187-.716-.367-1.075-.557l-.1.133c-6.208-2.115-13.333-3.113-20.91-3.113-20.378 0-37.486 7.197-42.263 24.004-5.707 9.58-11.21 23.074-27.333 41.035C12.693 179.935 2 192.12 2 206.082c0 13.095 9.405 24.632 21.568 31.412-.136.827-.212 1.71-.212 2.672 0 6.904 20.49 12.5 45.767 12.5 10.984 0 21.062-1.058 28.95-2.82 18.66 16.742 14.894 52.67 41.136 67.74 35.66 20.48 23.385 55.086 23.385 80.543 0 70.34 28.126 59.575 47.408-9.476 8.97-32.12 22.592-39.2 129.996-58.243 70-12.41 69.093 6.675 78.337 89.648 4.388 39.383 23.998 33.788 42.71-15.72 6.588-17.43 15.92-41.14 21.952-110.333 2.26-25.952 4.173-49.864 4.457-70.92 4.632 23.184 7.62 54.202 7.62 96.43 0 4.693-.193 8.5 4.5 8.5s4.5-3.807 4.5-8.5c0-52.594.3-92.238-7.31-121.197z"/></svg>