<?xml version="1.0" encoding="iso-8859-1"?>
<!-- Generator: Adobe Illustrator 18.1.0, SVG Export Plug-In . SVG Version: 6.00 Build 0)  -->
<!DOCTYPE svg PUBLIC "-//W3C//DTD SVG 1.1//EN" "http://www.w3.org/Graphics/SVG/1.1/DTD/svg11.dtd">
<svg version="1.1" xmlns="http://www.w3.org/2000/svg" xmlns:xlink="http://www.w3.org/1999/xlink" x="0px" y="0px"
	 viewBox="0 0 72 72" enable-background="new 0 0 72 72" xml:space="preserve">
<g id="Layer_2">
	<path fill="#E2A042" d="M61.455,25.536c-0.387,0-0.768,0.026-1.145,0.068C57.187,15.006,47.391,7.268,35.782,7.268
		c-11.598,0-21.386,7.722-24.52,18.304c-0.238-0.016-0.475-0.036-0.717-0.036c-5.669,0-10.265,4.596-10.265,10.265
		s4.596,10.265,10.265,10.265c1.071,0,2.102-0.165,3.073-0.469c4.418,7.66,12.686,12.82,22.164,12.82
		c9.533,0,17.841-5.219,22.24-12.953c1.075,0.382,2.227,0.601,3.434,0.601c5.669,0,10.265-4.596,10.265-10.265
		S67.124,25.536,61.455,25.536z"/>
</g>
<g id="Layer_1">
</g>
</svg>
