<?xml version="1.0" encoding="iso-8859-1"?>
<!-- Generator: Adobe Illustrator 18.1.0, SVG Export Plug-In . SVG Version: 6.00 Build 0)  -->
<!DOCTYPE svg PUBLIC "-//W3C//DTD SVG 1.1//EN" "http://www.w3.org/Graphics/SVG/1.1/DTD/svg11.dtd">
<svg version="1.1" xmlns="http://www.w3.org/2000/svg" xmlns:xlink="http://www.w3.org/1999/xlink" x="0px" y="0px"
	 viewBox="0 0 72 72" enable-background="new 0 0 72 72" xml:space="preserve">
<g id="Layer_4">
	<path fill="#FFB636" d="M47.116,26.708c-3.783-0.048-7.145,1.765-9.229,4.58c-1.005,1.357-2.961,1.357-3.966,0
		c-2.084-2.815-5.446-4.627-9.229-4.58c-5.928,0.074-10.917,4.929-11.142,10.854c-0.227,5.967,4.177,10.953,9.905,11.652
		c0.777,0.095,1.371,0.698,1.468,1.474c0.684,5.455,5.339,9.676,10.98,9.676c5.609,0,10.244-4.174,10.968-9.585
		c0.111-0.829,0.742-1.469,1.571-1.577c5.683-0.74,10.039-5.705,9.814-11.64C58.032,31.638,53.044,26.783,47.116,26.708z"/>
</g>
<g id="Layer_1">
</g>
</svg>
