<svg xmlns="http://www.w3.org/2000/svg" viewBox="0 0 512 512" enable-background="new 0 0 512 512"><path fill="#FF473E" d="M507.515 50.35c-.79-.29-1.664.113-1.955.902l-.022.06-.163.442c-.11.29-.256.73-.493 1.28-.45 1.11-1.17 2.718-2.345 4.555-1.18 1.824-2.85 3.874-5.228 5.584-2.36 1.733-5.44 3.055-9.054 3.757-1.945.385-4.04.586-6.242.645.54-.56 1.073-1.15 1.634-1.748.695-.88 1.48-1.725 2.144-2.698l1.028-1.44c.343-.483.63-1.01.948-1.513.303-.513.633-1.006.908-1.53l.797-1.58c.562-1.023.943-2.116 1.363-3.142.45-1.014.695-2.067.995-3.034.137-.487.298-.953.4-1.42l.26-1.35c.15-.87.347-1.65.413-2.363l.16-1.838.137-1.595c.063-.76-.454-1.468-1.22-1.618-.822-.16-1.62.374-1.78 1.197l-.032.16-.283 1.44c-.09.456-.196 1.01-.32 1.646-.125.634-.385 1.323-.6 2.084l-.357 1.18c-.134.404-.326.804-.492 1.224-.36.83-.664 1.73-1.164 2.583-.47.866-.893 1.783-1.49 2.628l-.838 1.302c-.287.43-.628.83-.937 1.25-.324.407-.615.836-.96 1.224l-1.03 1.155c-.657.78-1.433 1.44-2.105 2.136-.742.634-1.42 1.283-2.132 1.82-.697.555-1.363 1.064-2.005 1.497-1.18.834-2.212 1.443-2.965 1.86-3.323-.37-6.784-.91-10.376-1.518-4.94-.818-10.067-1.806-15.695-2.346-5.59-.44-11.19-.458-16.848-.007-5.638.448-11.272 1.293-16.716 2.596-5.446 1.29-10.732 2.935-15.697 4.905-9.96 3.902-18.677 8.882-25.71 13.704-3.526 2.41-6.65 4.764-9.343 6.944-2.688 2.182-4.983 4.15-6.815 5.826-.92.82-1.75 1.607-2.473 2.288l-.998.94-.755.734-1.383 1.344c-.176.172-.36.365-.524.553-3.34 3.83-2.943 9.647.89 12.99s9.65 2.942 12.99-.89l1.268-1.455.69-.793.776-.86c.556-.618 1.188-1.33 1.96-2.138 1.5-1.626 3.387-3.532 5.607-5.665 2.223-2.13 4.814-4.44 7.75-6.828 5.86-4.777 13.166-9.796 21.646-13.96 4.23-2.102 8.763-3.934 13.484-5.48 4.72-1.555 9.654-2.718 14.662-3.54 4.99-.837 10.143-1.2 15.103-1.28 4.922-.023 10.098.43 15.143.766 5.06.347 10.056.617 14.87.477 4.807-.138 9.456-.688 13.65-1.957 4.19-1.25 7.876-3.27 10.564-5.7 2.72-2.406 4.454-5.063 5.6-7.29 1.14-2.248 1.75-4.1 2.123-5.362.2-.63.31-1.12.398-1.446l.13-.497c.19-.742-.21-1.533-.948-1.805z"/></svg>