<?xml version="1.0" encoding="iso-8859-1"?>
<!-- Generator: Adobe Illustrator 19.1.0, SVG Export Plug-In . SVG Version: 6.00 Build 0)  -->
<!DOCTYPE svg PUBLIC "-//W3C//DTD SVG 1.1//EN" "http://www.w3.org/Graphics/SVG/1.1/DTD/svg11.dtd">
<svg version="1.1" xmlns="http://www.w3.org/2000/svg" xmlns:xlink="http://www.w3.org/1999/xlink" x="0px" y="0px"
	 viewBox="0 0 512 512" enable-background="new 0 0 512 512" xml:space="preserve">
<g id="Layer_5">
	<path fill="#7EDBFC" d="M272.876,480.471c-2.274-1.828-4.603-4.138-6.835-6.612c-9.003-9.979-35.996-14.841-48.809-10.786
		c-11.868,3.756-27.695,8.923-46.25,15.363c-59.914,20.794-75.548,20.232-105.557,28.252c-25.37,6.78,120.622-45.232,173.15-73.552
		c6.455,18.902,23.972,36.501,28.483,41.501C268.959,476.744,270.924,478.745,272.876,480.471z M303.549,413.107
		c2.807,2.656,4.696,4.588,5.337,4.983c4.71,2.898,9.258,6.408,13.336,10.508c0.261,0.26,0.516,0.528,0.775,0.791
		c69.662-24.077,124.569-79.738,147.606-149.876C444.861,354.04,343.833,396.844,303.549,413.107z"/>
</g>
<g id="Layer_1">
</g>
</svg>
