<?xml version="1.0" encoding="iso-8859-1"?>
<!-- Generator: Adobe Illustrator 18.1.0, SVG Export Plug-In . SVG Version: 6.00 Build 0)  -->
<!DOCTYPE svg PUBLIC "-//W3C//DTD SVG 1.1//EN" "http://www.w3.org/Graphics/SVG/1.1/DTD/svg11.dtd">
<svg version="1.1" xmlns="http://www.w3.org/2000/svg" xmlns:xlink="http://www.w3.org/1999/xlink" x="0px" y="0px"
	 viewBox="0 0 512 512" enable-background="new 0 0 512 512" xml:space="preserve">
<g id="Layer_5">
	<path fill="#D1CFC3" d="M414.805,267.679c2.288-10.856,3.5-22.108,3.5-33.645c0-89.633-72.664-162.306-162.306-162.306
		c-89.641,0-162.305,72.674-162.305,162.306c0,11.569,1.219,22.852,3.52,33.735c-14.053,14.561-35.781,30.373-41.143,77.075
		c-0.57,4.435-0.964,8.924-0.964,13.514c0,58.128,47.122,105.249,105.249,105.249c0,0,0,0,0,0l0,0.001
		c0.32,0,0.66-0.008,1.009-0.019c10.94-0.103,21.472-1.881,31.363-5.085c22.504-4.569,49.161-10.466,61.124-9.887
		c15.88,0.769,61.97,18.426,97.79,14.992c0.001,0,0.002-0.001,0.004-0.001c58.126-0.002,105.246-47.123,105.246-105.249
		c0-3.632,0-11.134,0-11.378C456.893,302.328,430.862,284.831,414.805,267.679z"/>
</g>
<g id="Layer_1">
</g>
</svg>
