<?xml version="1.0" encoding="iso-8859-1"?>
<!-- Generator: Adobe Illustrator 18.1.0, SVG Export Plug-In . SVG Version: 6.00 Build 0)  -->
<!DOCTYPE svg PUBLIC "-//W3C//DTD SVG 1.1//EN" "http://www.w3.org/Graphics/SVG/1.1/DTD/svg11.dtd">
<svg version="1.1" xmlns="http://www.w3.org/2000/svg" xmlns:xlink="http://www.w3.org/1999/xlink" x="0px" y="0px"
	 viewBox="0 0 512 512" enable-background="new 0 0 512 512" xml:space="preserve">
<g id="Layer_4">
	<path fill="#007F67" d="M158.524,244.441c-0.555-0.388-1.118-0.77-1.688-1.144l86.326-60.07
		c-26.611-48.034-87.122-65.4-135.156-38.789c-24.742,13.707-41.347,36.409-47.997,61.768c-3.01,11.478,13.26,17.209,32.398,22.656
		c-24.079,1.914-46.897,11.272-59.11,28.704c-12.513,17.862-16.348,39.206-12.385,59.027c1.768,8.845,20.925,8.041,42.376,6.005
		c-17.739,7.101-32.926,16.898-41.269,28.147c-12.741,17.177-17.067,38-13.709,57.535c3.161,18.39,76.456,0.954,92.627,12.948
		l64.015-99.724c-9.167-6.8-22.231-10.165-36.863-10.786L158.524,244.441z"/>
</g>
<g id="Layer_1">
</g>
</svg>
