<svg xmlns="http://www.w3.org/2000/svg" viewBox="0 0 512 512" enable-background="new 0 0 512 512"><path fill="#BFBCAF" d="M292.768 289.252c0-.885-.008-1.802-.024-2.738l-.007-.365c-.017-.923-.04-1.864-.075-2.826-.063-1.784-.16-3.634-.295-5.528-.042-.587-.087-1.178-.137-1.773l-.03-.342c-.05-.586-.105-1.175-.164-1.77-.006-.057-.01-.115-.017-.174-.065-.627-.135-1.258-.208-1.89l-.043-.37c-.075-.62-.153-1.245-.237-1.87l-.048-.348c-.09-.653-.183-1.307-.284-1.96l-.01-.06c-.1-.648-.207-1.296-.32-1.944l-.05-.295c-.114-.638-.233-1.277-.358-1.914l-.068-.34c-.13-.65-.265-1.3-.408-1.945l-.037-.163c-.144-.64-.295-1.28-.45-1.917l-.045-.174c-.16-.64-.33-1.28-.504-1.914l-.087-.317c-.176-.63-.36-1.256-.55-1.877-.025-.08-.05-.16-.076-.238-.2-.642-.407-1.28-.624-1.912l-.006-.017c-.216-.627-.444-1.25-.678-1.865l-.104-.272c-.23-.595-.467-1.184-.713-1.766l-.116-.27c-.257-.598-.52-1.19-.796-1.774l-.02-.04c-.272-.577-.56-1.146-.85-1.707-.038-.07-.073-.14-.11-.21-.29-.547-.59-1.084-.897-1.612l-.157-.267c-.314-.53-.636-1.05-.97-1.56l-.1-.15c-.333-.502-.674-.993-1.026-1.472-.03-.04-.058-.083-.088-.123-.358-.483-.728-.953-1.107-1.413-.065-.08-.13-.16-.196-.238-.38-.45-.766-.89-1.165-1.314l-.18-.188c-.417-.438-.842-.865-1.283-1.275l-.006-.006c-.438-.408-.89-.797-1.353-1.175-.075-.06-.148-.123-.224-.183-.45-.36-.91-.703-1.38-1.034-.084-.06-.17-.117-.255-.176-.486-.333-.982-.654-1.493-.955l-.107-.06c-.498-.29-1.01-.563-1.53-.822-.077-.038-.15-.077-.227-.114-.53-.256-1.07-.492-1.624-.714l-.32-.126c-.56-.217-1.13-.42-1.715-.6l-.243-.07c-.576-.172-1.163-.328-1.764-.465-.057-.013-.113-.03-.17-.04-.622-.138-1.26-.252-1.908-.35-.123-.02-.246-.038-.37-.055-.64-.09-1.295-.16-1.963-.21-.117-.01-.237-.014-.355-.022-.703-.045-1.416-.074-2.15-.074-.732 0-1.445.03-2.15.074-.117.008-.237.013-.354.022-.668.05-1.323.12-1.965.21-.125.017-.248.036-.372.055-.65.098-1.288.212-1.91.35-.058.012-.114.027-.17.04-.603.137-1.19.293-1.768.465-.08.024-.164.046-.244.07-.586.182-1.157.383-1.718.6-.107.04-.215.083-.32.126-.556.222-1.1.46-1.63.715l-.228.116c-.524.26-1.038.532-1.538.822l-.107.06c-.514.3-1.012.623-1.5.956-.087.058-.173.116-.258.175-.474.33-.936.674-1.387 1.033-.076.06-.15.122-.224.183-.465.378-.922.767-1.363 1.175l-.004.006c-.444.41-.873.838-1.293 1.275l-.182.19c-.4.425-.79.864-1.17 1.313l-.2.24c-.382.46-.756.93-1.117 1.413l-.09.123c-.356.48-.7.97-1.036 1.47-.034.05-.07.1-.103.152-.337.51-.663 1.03-.98 1.558-.055.09-.11.18-.163.27-.31.528-.614 1.063-.906 1.608-.04.072-.076.145-.114.217-.296.56-.584 1.125-.862 1.7l-.022.045c-.28.582-.548 1.174-.81 1.772l-.117.27c-.25.582-.494 1.17-.728 1.764l-.107.278c-.238.615-.47 1.235-.69 1.863l-.01.023c-.22.628-.43 1.263-.635 1.9-.025.084-.053.166-.08.25-.195.62-.382 1.244-.563 1.87l-.09.318c-.18.635-.354 1.274-.52 1.915l-.043.175c-.162.635-.317 1.272-.465 1.91-.015.06-.03.117-.043.175-.148.646-.29 1.294-.423 1.942l-.07.338c-.13.64-.255 1.278-.373 1.918l-.05.29c-.12.652-.234 1.306-.34 1.96 0 .014-.005.03-.008.044-.107.66-.206 1.317-.302 1.974-.015.11-.03.22-.047.33-.09.63-.173 1.255-.252 1.88l-.044.37c-.078.632-.153 1.263-.22 1.89l-.018.164c-.064.598-.124 1.193-.18 1.785l-.032.334c-.055.6-.105 1.193-.152 1.784-.172 2.166-.29 4.274-.37 6.293-.033.87-.06 1.724-.08 2.56v.043c-.02.843-.033 1.666-.04 2.466-1.54 25.734-16.864 47.742-38.685 58.765v76.056c0 41.47 32.136 75.087 71.78 75.087 39.64 0 71.777-33.62 71.777-75.088v-78.25c-19.634-11.592-33.177-32.407-34.648-56.49z"/></svg>