<?xml version="1.0" encoding="iso-8859-1"?>
<!-- Generator: Adobe Illustrator 18.1.0, SVG Export Plug-In . SVG Version: 6.00 Build 0)  -->
<!DOCTYPE svg PUBLIC "-//W3C//DTD SVG 1.1//EN" "http://www.w3.org/Graphics/SVG/1.1/DTD/svg11.dtd">
<svg version="1.1" xmlns="http://www.w3.org/2000/svg" xmlns:xlink="http://www.w3.org/1999/xlink" x="0px" y="0px"
	 viewBox="0 0 512 512" enable-background="new 0 0 512 512" xml:space="preserve">
<g id="Layer_5">
	<path fill="#FFC7EF" d="M85.243,85.406c-0.333-1.207-0.644-2.425-0.978-3.561c-0.333-1.132-0.68-2.23-0.968-3.335
		c-0.57-2.249-1.244-4.165-1.765-6.124c-0.517-1.978-1.124-3.569-1.569-5.259c-0.232-0.85-0.477-1.548-0.707-2.256
		c-0.238-0.699-0.435-1.396-0.638-2.054c-0.199-0.689-0.394-1.245-0.58-1.768c-0.173-0.551-0.336-1.068-0.487-1.549
		c-0.151-0.476-0.297-0.974-0.425-1.341c-0.128-0.358-0.245-0.684-0.349-0.975c-0.22-0.584-0.355-1.09-0.464-1.418
		c-0.105-0.335-0.159-0.508-0.159-0.508l-0.568-1.813c-1.602-5.112,1.244-10.554,6.355-12.155c2.154-0.675,4.373-0.557,6.333,0.184
		c0,0,0.255,0.096,0.748,0.283c0.492,0.193,1.245,0.464,2.2,0.886c0.485,0.213,1.026,0.45,1.622,0.712
		c0.587,0.272,1.141,0.6,1.793,0.946c1.259,0.692,2.841,1.535,4.341,2.55c1.524,0.994,3.275,2.176,5.002,3.493
		c0.87,0.654,1.766,1.352,2.675,2.1c0.926,0.743,1.874,1.521,2.788,2.331c3.744,3.259,7.735,7.134,11.699,11.515
		c4.014,4.396,7.975,9.305,11.947,14.638c1.04,1.32,1.941,2.696,2.914,4.084c0.96,1.392,1.932,2.801,2.914,4.226
		c0.478,0.715,0.96,1.434,1.443,2.156c0.462,0.734,0.926,1.471,1.392,2.212c0.938,1.483,1.876,2.983,2.789,4.499
		c1.891,3.015,3.645,6.162,5.386,9.343c0.876,1.593,1.756,3.195,2.642,4.806c0.829,1.63,1.663,3.268,2.5,4.913
		c3.299,6.602,6.354,13.414,9.188,20.306c2.787,6.907,5.367,13.888,7.608,20.862c0.55,1.747,1.139,3.472,1.639,5.22
		c0.398,1.396,0.793,2.782,1.187,4.167c-20.128,9.405-37.858,22.547-52.112,38.444c-1.213-3.362-2.443-6.811-3.645-10.354
		c-0.534-1.52-1.115-3.04-1.62-4.594c-0.518-1.55-1.041-3.112-1.566-4.683c-0.537-1.569-1.078-3.147-1.621-4.733
		c-0.52-1.594-1.043-3.196-1.567-4.804c-0.526-1.608-1.054-3.222-1.584-4.842c-0.558-1.61-1.094-3.233-1.587-4.873
		c-0.998-3.278-2.084-6.537-3.132-9.812c-1.986-6.583-4.094-13.121-5.991-19.606c-0.492-1.615-0.983-3.223-1.471-4.823
		c-0.465-1.606-0.927-3.204-1.387-4.792c-0.906-3.19-1.897-6.279-2.73-9.385c-0.827-3.118-1.832-6.059-2.585-9.072
		c-0.82-2.955-1.685-5.835-2.444-8.656c-0.785-2.8-1.548-5.523-2.286-8.157c-0.36-1.318-0.714-2.614-1.061-3.886
		C85.956,87.82,85.555,86.634,85.243,85.406z M243.573,55.256c0,0,0.054,0.173,0.159,0.508c0.108,0.328,0.243,0.834,0.464,1.418
		c0.104,0.291,0.221,0.617,0.349,0.975c0.128,0.367,0.274,0.865,0.425,1.341c0.151,0.481,0.314,0.997,0.487,1.549
		c0.186,0.522,0.381,1.079,0.58,1.768c0.203,0.658,0.4,1.356,0.638,2.054c0.231,0.709,0.476,1.406,0.707,2.256
		c0.445,1.69,1.052,3.282,1.569,5.259c0.522,1.959,1.195,3.875,1.765,6.124c0.288,1.105,0.635,2.204,0.968,3.335
		c0.334,1.136,0.645,2.354,0.978,3.561c0.312,1.228,0.712,2.414,1.057,3.687c0.347,1.272,0.701,2.568,1.061,3.886
		c0.738,2.634,1.502,5.357,2.286,8.157c0.759,2.821,1.624,5.701,2.444,8.656c0.753,3.014,1.759,5.955,2.585,9.072
		c0.833,3.106,1.824,6.196,2.73,9.385c0.46,1.588,0.922,3.186,1.387,4.792c0.488,1.6,0.979,3.209,1.471,4.823
		c1.529,5.229,3.194,10.495,4.823,15.789c27.505,4.245,52.679,14.836,73.684,30.102c-0.344-1.555-0.7-3.117-1.079-4.69
		c-0.792-3.407-1.711-6.847-2.704-10.299c-0.492-1.728-0.987-3.466-1.485-5.213c-0.501-1.747-1.09-3.473-1.639-5.22
		c-2.24-6.974-4.821-13.955-7.608-20.862c-2.833-6.893-5.889-13.704-9.188-20.306c-0.837-1.645-1.671-3.283-2.5-4.913
		c-0.885-1.611-1.766-3.213-2.642-4.806c-1.742-3.18-3.496-6.327-5.386-9.343c-0.913-1.517-1.852-3.017-2.789-4.499
		c-0.466-0.741-0.93-1.478-1.392-2.212c-0.484-0.723-0.965-1.441-1.443-2.156c-0.982-1.425-1.954-2.834-2.914-4.226
		c-0.973-1.388-1.875-2.765-2.914-4.084c-3.972-5.333-7.933-10.242-11.947-14.638c-3.964-4.381-7.955-8.255-11.699-11.515
		c-0.915-0.81-1.863-1.589-2.789-2.331c-0.909-0.748-1.805-1.446-2.675-2.1c-1.727-1.317-3.477-2.5-5.002-3.493
		c-1.499-1.015-3.082-1.858-4.341-2.55c-0.653-0.346-1.207-0.674-1.793-0.946c-0.596-0.262-1.137-0.499-1.622-0.712
		c-0.955-0.422-1.708-0.693-2.2-0.886c-0.493-0.187-0.748-0.283-0.748-0.283c-1.96-0.742-4.179-0.859-6.333-0.184
		c-5.112,1.602-7.957,7.044-6.355,12.155L243.573,55.256z"/>
</g>
<g id="Layer_1">
</g>
</svg>
