<?xml version="1.0" encoding="iso-8859-1"?>
<!-- Generator: Adobe Illustrator 18.1.0, SVG Export Plug-In . SVG Version: 6.00 Build 0)  -->
<!DOCTYPE svg PUBLIC "-//W3C//DTD SVG 1.1//EN" "http://www.w3.org/Graphics/SVG/1.1/DTD/svg11.dtd">
<svg version="1.1" xmlns="http://www.w3.org/2000/svg" xmlns:xlink="http://www.w3.org/1999/xlink" x="0px" y="0px"
	 viewBox="0 0 512 512" enable-background="new 0 0 512 512" xml:space="preserve">
<g id="Layer_7">
	<path fill="#007F67" d="M421.148,393.215c-1.892,1.924-4.884,2.109-6.988,0.54c0,0-0.536-0.398-1.473-1.096
		c-0.22-0.153-0.526-0.416-0.744-0.529c-0.229-0.135-0.476-0.281-0.74-0.437c-0.262-0.159-0.541-0.329-0.834-0.507
		c-0.339-0.173-0.696-0.356-1.069-0.546c-0.724-0.414-1.577-0.732-2.45-1.109c-0.429-0.207-0.912-0.32-1.381-0.489
		c-0.477-0.147-0.946-0.349-1.456-0.45c-0.5-0.125-1.009-0.253-1.524-0.381c-0.191-0.04-0.386-0.072-0.58-0.104
		c0.237,0.469,0.462,0.943,0.686,1.414c0.37,0.777,0.724,1.553,0.985,2.366c0.276,0.804,0.565,1.591,0.801,2.382
		c0.187,0.806,0.372,1.602,0.555,2.385c0.204,0.769,0.258,1.568,0.361,2.325c0.077,0.765,0.212,1.492,0.196,2.229
		c0.035,1.458,0.047,2.813-0.117,4.064c-0.06,0.623-0.144,1.216-0.214,1.774c-0.098,0.604-0.225,1.185-0.34,1.715
		c-0.114,0.532-0.229,1.023-0.349,1.471c-0.054,0.246-0.124,0.387-0.187,0.543c-0.067,0.154-0.131,0.3-0.192,0.439
		c-0.252,0.556-0.45,0.992-0.585,1.29c-0.149,0.297-0.228,0.455-0.228,0.455c-1.43,2.849-4.899,4-7.749,2.569
		c-1.42-0.713-2.424-1.948-2.89-3.345c0,0-0.056-0.168-0.16-0.483c-0.09-0.314-0.223-0.775-0.392-1.361
		c-0.04-0.146-0.082-0.301-0.126-0.463c-0.041-0.16-0.077-0.349-0.147-0.448c-0.128-0.243-0.253-0.498-0.377-0.763
		c-0.258-0.553-0.548-1.176-0.865-1.856c-0.28-0.713-0.717-1.441-1.083-2.197c-0.42-0.744-0.841-1.511-1.327-2.259
		c-0.239-0.37-0.482-0.746-0.728-1.126c-0.263-0.362-0.53-0.728-0.798-1.097c-0.239-0.377-0.567-0.709-0.837-1.068
		c-0.283-0.352-0.533-0.72-0.865-1.036c-0.317-0.324-0.584-0.677-0.879-1.007c-0.324-0.31-0.644-0.616-0.945-0.93
		c-0.275-0.335-0.643-0.59-0.946-0.888c-0.026-0.024-0.051-0.049-0.077-0.073c-0.76,0.06-1.734,0.13-2.907,0.202
		c-1.537,0.081-3.416,0.139-5.585,0.086c-2.18-0.102-4.638-0.173-7.339-0.565c-2.697-0.332-5.621-0.963-8.676-1.84
		c-3.028-0.975-6.223-2.147-9.305-3.874c-3.092-1.678-6.159-3.724-8.917-6.195c-2.777-2.445-5.318-5.22-7.532-8.2
		c-2.183-2.998-4.046-6.178-5.6-9.408c-1.568-3.228-2.787-6.517-3.742-9.743c-0.961-3.226-1.682-6.391-2.146-9.422
		c-0.485-3.028-0.775-5.915-0.88-8.596c-0.144-2.678-0.071-5.154,0.023-7.352c0.087-1.103,0.15-2.134,0.249-3.091
		c0.117-0.966,0.209-1.825,0.327-2.652c0.145-0.859,0.274-1.626,0.386-2.293c0.059-0.36,0.111-0.582,0.159-0.809
		c0.048-0.225,0.091-0.43,0.13-0.614c0.156-0.734,0.239-1.125,0.239-1.125l0.24-1.127c1.401-6.597,7.885-10.809,14.482-9.407
		s10.809,7.885,9.407,14.482c-0.099,0.467-0.248,0.988-0.396,1.43c0,0-0.131,0.38-0.376,1.094c-0.111,0.32-0.247,0.716-0.408,1.18
		c-0.097,0.267-0.215,0.576-0.36,0.925c-0.141,0.42-0.291,1.009-0.467,1.586c-0.162,0.6-0.304,1.275-0.483,1.988
		c-0.282,1.459-0.605,3.142-0.781,5.038c-0.214,1.891-0.311,3.981-0.285,6.199c0.028,2.22,0.239,4.556,0.604,6.94
		c0.36,2.387,0.897,4.822,1.668,7.187c0.759,2.372,1.717,4.699,2.878,6.9c1.189,2.175,2.612,4.185,4.194,6.02
		c1.569,1.856,3.382,3.429,5.287,4.818c1.884,1.43,3.969,2.489,6.009,3.461c2.083,0.88,4.154,1.623,6.164,2.114
		c0.664,0.182,1.315,0.328,1.958,0.461c0.419-0.472,0.892-0.908,1.431-1.287c0.258-0.181,0.565-0.368,0.835-0.516
		c0,0,0.766-0.413,2.105-1.135c0.335-0.176,0.706-0.371,1.109-0.583c0.182-0.087,0.378-0.172,0.578-0.258
		c0.373-0.502,0.796-0.964,1.275-1.372c0.243-0.581,0.506-1.168,0.829-1.763c0.325-0.626,0.632-1.275,1.002-1.915
		c0.391-0.629,0.79-1.272,1.196-1.926c0.388-0.659,0.879-1.276,1.35-1.91c0.485-0.625,0.934-1.282,1.492-1.868
		c0.539-0.594,1.083-1.193,1.629-1.794l1.78-1.66c0.58-0.564,1.24-1.036,1.873-1.527c0.635-0.49,1.273-0.963,1.95-1.368
		c0.669-0.414,1.313-0.849,1.983-1.216c0.676-0.35,1.343-0.695,2-1.035c0.649-0.349,1.333-0.585,1.975-0.868
		c0.649-0.267,1.277-0.542,1.913-0.73c1.256-0.427,2.449-0.782,3.569-1.006c0.56-0.124,1.079-0.249,1.599-0.35
		c0.544-0.084,1.061-0.164,1.546-0.239c0.482-0.069,0.933-0.134,1.35-0.193c0.392-0.046,0.663-0.043,0.956-0.06
		c1.122-0.048,1.764-0.076,1.764-0.076c2.966-0.129,5.475,2.171,5.604,5.137c0.109,2.505-1.521,4.684-3.815,5.379
		c0,0-0.614,0.186-1.69,0.511c-0.255,0.084-0.597,0.166-0.861,0.267c-0.235,0.102-0.489,0.211-0.76,0.329
		c-0.268,0.111-0.553,0.23-0.854,0.355c-0.32,0.158-0.656,0.324-1.008,0.497c-0.717,0.316-1.43,0.767-2.187,1.201
		c-0.389,0.2-0.746,0.473-1.119,0.73c-0.364,0.271-0.77,0.491-1.117,0.804c-0.356,0.293-0.717,0.592-1.083,0.894
		c-0.357,0.307-0.676,0.663-1.021,0.987c-0.353,0.315-0.659,0.682-0.961,1.048c-0.297,0.371-0.648,0.683-0.904,1.085l-0.292,0.395
		c0.485,0.065,0.969,0.129,1.454,0.194c0.817,0.087,1.609,0.315,2.405,0.472c0.795,0.167,1.58,0.347,2.339,0.597
		c0.762,0.236,1.521,0.449,2.253,0.707c0.721,0.282,1.434,0.561,2.134,0.836c0.704,0.255,1.354,0.613,2.005,0.916
		c0.641,0.326,1.287,0.595,1.869,0.957c1.18,0.688,2.297,1.311,3.253,2.016c0.483,0.337,0.947,0.66,1.387,0.967
		c0.45,0.359,0.877,0.699,1.278,1.018c0.395,0.324,0.765,0.628,1.106,0.909c0.361,0.29,0.514,0.487,0.747,0.702
		c0.836,0.822,1.314,1.292,1.314,1.292l0.207,0.204C423.185,387.737,423.214,391.114,421.148,393.215z M436.078,224.902
		c0,0-0.148-0.097-0.425-0.28c-0.28-0.169-0.691-0.416-1.214-0.731c-0.131-0.076-0.269-0.157-0.414-0.241
		c-0.147-0.081-0.279-0.167-0.518-0.249c-0.431-0.17-0.905-0.342-1.421-0.517c-0.514-0.176-1.075-0.369-1.664-0.536
		c-0.546-0.134-1.125-0.286-1.737-0.417c-1.224-0.307-2.572-0.452-4.024-0.586c-0.73-0.101-1.468-0.051-2.237-0.063
		c-0.764,0.015-1.564-0.025-2.352,0.09c-0.799,0.09-1.611,0.182-2.433,0.275c-0.813,0.143-1.628,0.339-2.459,0.52
		c-0.838,0.165-1.65,0.427-2.464,0.705c-0.494,0.168-0.991,0.337-1.484,0.518c0.055-0.189,0.108-0.379,0.171-0.564
		c0.188-0.497,0.373-0.987,0.555-1.47c0.16-0.495,0.415-0.937,0.616-1.394c0.223-0.446,0.39-0.913,0.646-1.315
		c0.476-0.824,0.89-1.634,1.385-2.306c0.232-0.348,0.455-0.681,0.666-0.998c0.211-0.271,0.412-0.528,0.6-0.77
		c0.185-0.244,0.359-0.473,0.52-0.684c0.138-0.203,0.434-0.477,0.612-0.677c0.801-0.85,1.259-1.336,1.259-1.336
		c1.802-1.909,1.964-4.903,0.272-7.004c-1.848-2.294-5.206-2.656-7.5-0.808l-0.226,0.182c0,0-0.522,0.42-1.435,1.156
		c-0.241,0.207-0.454,0.336-0.784,0.661c-0.318,0.307-0.663,0.639-1.03,0.994c-0.364,0.361-0.751,0.746-1.159,1.151
		c-0.356,0.402-0.73,0.825-1.121,1.266c-0.81,0.868-1.558,1.906-2.378,2.998c-0.427,0.536-0.769,1.146-1.167,1.746
		c-0.376,0.611-0.807,1.216-1.142,1.885c-0.354,0.664-0.713,1.34-1.077,2.023c-0.341,0.697-0.64,1.426-0.963,2.156
		c-0.336,0.725-0.606,1.484-0.864,2.254c-0.248,0.773-0.566,1.533-0.747,2.335c-0.12,0.474-0.24,0.948-0.361,1.422l-0.358-0.336
		c-0.369-0.301-0.639-0.686-0.973-1.024c-0.329-0.342-0.657-0.689-0.93-1.076c-0.282-0.38-0.599-0.738-0.863-1.128
		c-0.258-0.398-0.512-0.792-0.763-1.18c-0.27-0.382-0.442-0.81-0.669-1.203c-0.212-0.4-0.442-0.787-0.595-1.196
		c-0.344-0.802-0.71-1.563-0.94-2.311c-0.131-0.369-0.257-0.722-0.377-1.058c-0.089-0.313-0.174-0.61-0.254-0.889
		c-0.085-0.283-0.165-0.548-0.239-0.793c-0.069-0.273-0.111-0.623-0.165-0.886c-0.199-1.106-0.312-1.737-0.312-1.737
		c-0.425-2.359-2.401-4.23-4.902-4.411c-2.961-0.215-5.536,2.011-5.75,4.972c0,0-0.047,0.64-0.129,1.76
		c-0.017,0.293-0.052,0.562-0.051,0.956c0.011,0.421,0.023,0.877,0.036,1.364c0.018,0.491,0.038,1.013,0.059,1.564
		c0.041,0.528,0.104,1.059,0.163,1.629c0.093,1.138,0.308,2.364,0.587,3.661c0.114,0.654,0.314,1.309,0.504,1.985
		c0.206,0.671,0.362,1.378,0.633,2.062c0.262,0.691,0.528,1.394,0.797,2.106c0.287,0.707,0.645,1.398,0.979,2.11
		c0.323,0.719,0.72,1.407,1.133,2.095c0.415,0.686,0.807,1.396,1.301,2.037c0.481,0.654,0.963,1.309,1.443,1.96
		c0.534,0.612,1.066,1.221,1.594,1.826c0.518,0.623,1.118,1.144,1.683,1.698c0.575,0.542,1.132,1.101,1.741,1.562
		c0.602,0.479,1.195,0.95,1.774,1.41c0.593,0.441,1.202,0.822,1.787,1.216c0.555,0.391,1.113,0.729,1.663,1.038
		c0.348,0.518,0.755,0.989,1.207,1.414c0.062,0.208,0.124,0.412,0.189,0.604c0.164,0.425,0.314,0.816,0.45,1.169
		c0.562,1.414,0.884,2.222,0.884,2.222c0.116,0.285,0.266,0.612,0.416,0.889c0.314,0.579,0.693,1.099,1.113,1.571
		c-0.207,0.624-0.427,1.254-0.684,1.892c-0.72,1.939-1.697,3.91-2.813,5.878c-1.201,1.913-2.495,3.862-4.133,5.568
		c-1.6,1.731-3.372,3.351-5.397,4.694c-2.005,1.359-4.166,2.541-6.464,3.47c-2.321,0.899-4.742,1.581-7.186,2.061
		c-2.438,0.493-4.919,0.745-7.332,0.826c-2.41,0.087-4.755,0.027-6.964-0.203c-2.206-0.231-4.271-0.568-6.124-1
		c-1.864-0.394-3.498-0.91-4.914-1.358c-0.688-0.261-1.342-0.48-1.919-0.71c-0.553-0.241-1.121-0.459-1.521-0.647
		c-0.33-0.185-0.623-0.338-0.877-0.465c-0.443-0.213-0.82-0.394-1.125-0.541c-0.68-0.326-1.043-0.5-1.043-0.5
		c-0.422-0.198-0.922-0.406-1.375-0.559c-6.391-2.155-13.318,1.279-15.473,7.669c-2.155,6.391,1.279,13.318,7.669,15.473
		l1.092,0.368c0,0,0.379,0.128,1.09,0.367c0.178,0.06,0.376,0.127,0.594,0.201c0.221,0.074,0.434,0.151,0.786,0.251
		c0.65,0.189,1.397,0.406,2.233,0.649c0.808,0.213,1.65,0.403,2.596,0.632c0.94,0.209,1.956,0.391,3.042,0.605
		c2.172,0.347,4.623,0.706,7.3,0.873c2.675,0.205,5.576,0.252,8.64,0.12c3.064-0.111,6.291-0.461,9.607-1.042
		c3.315-0.576,6.723-1.406,10.11-2.59c3.388-1.17,6.763-2.653,9.993-4.474c3.216-1.854,6.266-4.057,9.016-6.533
		c2.773-2.453,5.16-5.263,7.184-8.141c2.072-2.862,3.606-5.899,4.924-8.794c1.225-2.933,2.19-5.764,2.831-8.404
		c0.702-2.638,1.056-5.071,1.41-7.225c0.303-2.148,0.463-4.021,0.56-5.557c0.065-1.174,0.107-2.149,0.136-2.911
		c0.027-0.023,0.054-0.045,0.081-0.068c0.331-0.267,0.627-0.603,0.991-0.837c0.346-0.263,0.687-0.546,1.033-0.831
		c0.362-0.254,0.744-0.478,1.102-0.756c0.352-0.294,0.747-0.499,1.129-0.74c0.388-0.226,0.756-0.514,1.158-0.708
		c0.398-0.224,0.792-0.446,1.182-0.666c0.406-0.2,0.808-0.398,1.203-0.593c0.799-0.395,1.61-0.725,2.398-1.056
		c0.793-0.276,1.567-0.626,2.307-0.821c0.712-0.236,1.365-0.453,1.944-0.645c0.278-0.092,0.546-0.187,0.802-0.286
		c0.107-0.058,0.299-0.072,0.462-0.094c0.166-0.025,0.324-0.049,0.474-0.071c0.602-0.1,1.075-0.178,1.398-0.232
		c0.325-0.067,0.499-0.103,0.499-0.103c1.441-0.302,2.785-1.156,3.657-2.484C439.484,230.231,438.742,226.652,436.078,224.902z"/>
</g>
<g id="Layer_1">
</g>
</svg>
