<svg xmlns="http://www.w3.org/2000/svg" viewBox="0 0 512 512" enable-background="new 0 0 512 512"><path fill="#007F67" d="M352.55 352.246c-4.904-9.432-15.85-16.864-27.724-20.428l10.897-62.412c-5.257-1.952-10.648-1.408-16.013.707l-4.748-44.01c-5.32.114-10.86 1.82-16.126 4.622l-9.104-44.956c-1.33.173-2.66.456-3.99.824l6.23-39.826c-.918-.23-1.862-.4-2.817-.537l29.14-42.05c-1.56-1.244-3.38-2.274-5.393-3.12l18.778-27.51c-.836-.825-1.733-1.61-2.676-2.366l42.935-20.192c-8.173-23.28-33.668-35.526-56.947-27.355-11.99 4.21-21.055 13.014-25.91 23.746-2.47 5.46 6.4 9.54 15.697 13.917-12.4-1.765-25.238.592-32.97 8.418-7.305 7.39-10.81 17.11-10.53 26.737.088 3.054 4.697 4.518 11.033 5.382-10.155 3.145-19.134 8.094-23.92 14.09-6.48 8.123-8.94 18.16-7.644 27.702.78 5.757 15.804 4.864 28.507 5.087-14.125 5.04-27.184 16.254-30.34 28.9-2.518 10.08-.58 20.23 4.567 28.37 2.907 4.6 13.886-2.635 24.254-8.645-10.455 9.87-17.676 24.27-16.056 36.583 1.355 10.302 6.88 19.033 14.654 24.72 2.23 1.63 5.283.076 8.72-2.9-2.09 4.644-3.262 9.44-3.16 14.083.224 10.387 4.766 19.668 11.873 26.167.855.78 1.923.968 3.154.71-1.952 2.024-3.835 3.976-5.63 5.775-7.343 7.353-7.782 20.112-3.57 28.772 1.39 2.853 6.412 3.617 12.742 3.555-8.19 3.815-16.59 7.022-18.914 15.012-1.29 4.435 6.874 12.195 15.787 19.89-6.114-3.403-12.65-5.333-18.84-5.02-10.38.525-19.526 5.332-25.816 12.624-3.018 3.5 3.826 10.085 11.328 16.996-5.362-2.07-10.7-3.455-15.442-3.96-10.33-1.103-20.116 2.217-27.468 8.437-3.49 2.952 2.08 10.394 8.327 18.294-9.036-4.25-17.19-7.792-22.173-10.194-9.36-4.514-12.31-8.74-21.325-5.354-3.633 1.364-8.224 9.104-12.62 18.196.317-4.697-.18-9.238-1.67-13.295-3.586-9.753-5.028-20.86-13.86-24.7-4.237-1.842-12.97 5.27-21.73 13.136 4.148-5.634 6.892-11.87 7.367-18.053.795-10.36-2.813-20.042-9.248-27.207-3.087-3.438-10.49 2.516-18.296 9.08 2.734-5.056 4.785-10.177 5.888-14.815 2.404-10.11.352-20.236-4.885-28.318-1.136-1.752-4.33-2.84-8.69-3.505 5.986-5.435 9.014-5.974 8.97-14.213-.02-3.953-5.864-8.744-12.646-13.374 4.96.465 9.548-.188 13.184-2.25 7.043-4 11.258-11.38 12.33-19.997.425-3.43-4.896-6.44-11.538-9.41 4.4.684 8.732.34 12.506-1.374 6.802-3.09 11.65-8.72 13.934-15.258.832-2.383-2.886-4.888-7.916-7.434 1.682.07 3.348-.055 4.97-.423 7.284-1.656 13.167-6.194 16.72-12.14 1.268-2.12-1.71-5.232-5.977-8.652 5.703 1.035 11.12 1.03 15.215-.372 7.07-2.418 12.44-7.553 15.344-13.84 1.752-3.793-7.703-9.06-15.318-14.106 10.513 2.405 22.765.655 29.568-5.792 5.423-5.14 8.172-12.042 8.2-18.967.014-3.91-9.44-3.77-18.05-4.133 10.154-1.94 20.1-7.88 23.878-15.972 3.16-6.77 3.187-14.2.672-20.652-1.155-2.963-7.15-1.137-13.73 1.163 2.837-5.505 4.417-11.394 3.72-15.77-.864-5.406-3.9-9.925-8.076-12.807-2.52-1.74-7.505 4.43-12.1 9.296 3.05-7.29 3.318-16.355-.487-22.073-3.033-4.558-7.673-7.406-12.67-8.29-2.823-.5-3.902 6.343-5.24 12.514-.134-7.573-3.18-15.496-8.55-19.236-4.493-3.127-9.855-4.075-14.828-3.065-2.27.46-1.723 4.962-.893 9.96-2.557-4.276-5.877-7.84-9.154-9.264-4.17-1.81-8.687-1.703-12.57-.07-2.298.97-.327 7 1.028 12.32-2.508-3.527-6.08-6.277-9.747-6.81-3.755-.546-7.37.528-10.14 2.694-1.22.955.355 3.43 2.323 6.156-3.1-2.165-6.91-3.362-10.062-2.62-3.06.72-5.52 2.646-7 5.158-.71 1.21 1.7 2.804 4.317 4.458-2.947-.76-6.092-.642-8.33.698-2.35 1.408-3.885 3.66-4.447 6.14-.528 2.332 9.258 2.728 10.583 4.942l9.51-6.92c-.137-.23-.298-.45-.463-.67l10.576-3.51c.044.26.054.502.022.723l16.25.896c.137-.935.138-1.912.027-2.906l21.055 7.502c.425-.98.673-2.084.773-3.274l16.42 9.374c.403-.58.765-1.2 1.093-1.847l13.3 16.56c.415-.275.816-.583 1.21-.906l3.91 17.032-9.988 27.59c.873.408 1.79.75 2.738 1.04L143.44 171.61c.47.495.977.962 1.5 1.415l-33.923 14.228c.903 2.637 2.69 5.166 5.075 7.502l-18.928 8.1c1.14 5.014 4.077 10.076 8.016 14.382L81.763 233.5c1.907 4.196 5.23 8.138 9.298 11.376-2.77-1.584-4.937-3.24-5.947-5.02l-28.138 20.55c3.308 5.83 8.51 11.042 14.48 15.13l-30.665 35.93c2.585 2.68 5.878 4.862 9.586 6.55l15.62 69.095c6.642 1.58 13.493-.62 19.834-4.974l.435 33.966c6.78.522 14.17-1.494 21.05-5.157-.986.636-1.884 1.13-2.657 1.413l30.438 49.413c5.254-1.93 10.17-5.6 14.384-10.287l117.597 6.265c3.422-7.096-3.706-15.07-14.75-22.676l34.933-4.813c.724-6.79-2.33-13.305-7.452-19.043l33.636-4.74c-.344-6.793-3.28-13.867-7.787-20.226.757.897 1.36 1.725 1.74 2.456l45.153-36.46z"/></svg>