<?xml version="1.0" encoding="iso-8859-1"?>
<!-- Generator: Adobe Illustrator 18.1.0, SVG Export Plug-In . SVG Version: 6.00 Build 0)  -->
<!DOCTYPE svg PUBLIC "-//W3C//DTD SVG 1.1//EN" "http://www.w3.org/Graphics/SVG/1.1/DTD/svg11.dtd">
<svg version="1.1" xmlns="http://www.w3.org/2000/svg" xmlns:xlink="http://www.w3.org/1999/xlink" x="0px" y="0px"
	 viewBox="0 0 512 512" enable-background="new 0 0 512 512" xml:space="preserve">
<g id="Layer_6">
	<path fill="#2B3B47" d="M157.626,268.097c13.394,0,24.252,10.858,24.252,24.252v29.812c0,13.394-10.858,24.252-24.252,24.252l0,0
		c-13.394,0-24.252-10.858-24.252-24.252v-29.812C133.374,278.955,144.232,268.097,157.626,268.097L157.626,268.097z
		 M352.894,267.28c-13.394,0-24.252,10.858-24.252,24.252v29.812c0,13.394,10.858,24.252,24.252,24.252l0,0
		c13.394,0,24.252-10.858,24.252-24.252v-29.812C377.146,278.138,366.288,267.28,352.894,267.28L352.894,267.28z"/>
</g>
<g id="Layer_1">
</g>
</svg>
