<?xml version="1.0" encoding="iso-8859-1"?>
<!-- Generator: Adobe Illustrator 18.1.0, SVG Export Plug-In . SVG Version: 6.00 Build 0)  -->
<!DOCTYPE svg PUBLIC "-//W3C//DTD SVG 1.1//EN" "http://www.w3.org/Graphics/SVG/1.1/DTD/svg11.dtd">
<svg version="1.1" xmlns="http://www.w3.org/2000/svg" xmlns:xlink="http://www.w3.org/1999/xlink" x="0px" y="0px"
	 viewBox="0 0 512 512" enable-background="new 0 0 512 512" xml:space="preserve">
<g id="Layer_5">
	<path fill="#FFA9BA" d="M248.032,294.946c0,0,0.212-0.115,0.623-0.337c0.408-0.216,1.03-0.576,1.797-0.938
		c0.78-0.394,1.73-0.85,2.82-1.323c1.109-0.519,2.339-1.008,3.718-1.558c2.759-1.103,6.002-2.187,9.642-3.237
		c3.633-1.034,7.616-1.923,11.833-2.585c8.436-1.331,17.76-1.641,27.118-0.456c9.384,1.122,18.782,3.783,27.649,7.72
		c4.432,1.971,8.752,4.212,12.872,6.734c4.131,2.496,8.044,5.318,11.732,8.286c7.362,5.97,13.699,12.821,18.736,19.642
		c2.516,3.417,4.729,6.771,6.574,10.024c0.925,1.622,1.805,3.103,2.551,4.637c0.768,1.48,1.467,2.857,2.056,4.2
		c0.301,0.657,0.585,1.279,0.853,1.864c0.254,0.617,0.493,1.196,0.715,1.735c0.452,1.057,0.804,2.035,1.093,2.817
		c0.297,0.763,0.487,1.44,0.632,1.856c0.14,0.428,0.212,0.649,0.212,0.649c2.011,6.17-0.867,12.758-6.497,15.58
		c0,0-0.208,0.104-0.61,0.306c-0.397,0.19-1.012,0.532-1.763,0.857c-0.76,0.345-1.702,0.784-2.771,1.206
		c-0.539,0.221-1.118,0.459-1.735,0.713c-0.604,0.221-1.246,0.457-1.925,0.705c-1.369,0.527-2.839,1-4.431,1.495
		c-1.614,0.549-3.286,0.966-5.089,1.451c-3.61,0.978-7.55,1.766-11.748,2.383c-8.39,1.221-17.718,1.54-27.14,0.51
		c-4.704-0.532-9.462-1.327-14.143-2.505c-4.691-1.153-9.323-2.645-13.842-4.407c-9.037-3.529-17.541-8.334-24.941-14.212
		c-7.427-5.815-13.768-12.657-18.759-19.588c-2.497-3.462-4.668-6.917-6.49-10.226c-1.815-3.326-3.327-6.393-4.485-9.129
		c-0.58-1.366-1.098-2.584-1.51-3.738c-0.431-1.107-0.775-2.104-1.044-2.935c-0.282-0.8-0.464-1.495-0.598-1.937
		c-0.131-0.449-0.199-0.68-0.199-0.68C239.728,304.338,242.583,297.894,248.032,294.946z M130.657,115.749
		c0,0-0.018,0.218-0.054,0.641c-0.031,0.418-0.104,1.065-0.126,1.837c-0.043,0.793-0.077,1.751-0.073,2.833
		c-0.028,1.114,0.014,2.321,0.06,3.674c0.089,2.709,0.37,5.824,0.825,9.266c0.466,3.431,1.181,7.111,2.172,10.916
		c1.976,7.615,5.13,15.651,9.544,23.225c4.371,7.617,10.033,14.743,16.567,20.998c3.268,3.126,6.721,6.067,10.335,8.747
		c3.597,2.697,7.386,5.102,11.214,7.268c7.68,4.308,15.722,7.456,23.262,9.507c3.774,1.021,7.386,1.805,10.778,2.31
		c1.693,0.255,3.253,0.519,4.806,0.651c1.517,0.169,2.923,0.312,4.26,0.373c0.659,0.041,1.282,0.079,1.869,0.115
		c0.609,0.014,1.179,0.027,1.71,0.04c1.048,0.038,1.993,0.017,2.753,0.007c0.746,0.003,1.381-0.057,1.782-0.071
		c0.409-0.022,0.62-0.033,0.62-0.033c5.651-0.319,10.329-4.852,10.634-10.634c0,0,0.011-0.211,0.033-0.62
		c0.013-0.4,0.074-1.035,0.071-1.782c0.01-0.76,0.032-1.705-0.007-2.753c-0.012-0.531-0.025-1.102-0.04-1.71
		c-0.036-0.587-0.075-1.21-0.115-1.869c-0.061-1.338-0.204-2.743-0.373-4.26c-0.132-1.554-0.396-3.113-0.651-4.806
		c-0.504-3.392-1.289-7.003-2.31-10.778c-2.051-7.54-5.198-15.582-9.507-23.262c-2.166-3.828-4.571-7.617-7.268-11.214
		c-2.68-3.614-5.621-7.067-8.747-10.335c-6.255-6.533-13.38-12.195-20.998-16.567c-7.575-4.414-15.61-7.568-23.225-9.544
		c-3.805-0.99-7.485-1.706-10.916-2.172c-3.442-0.455-6.557-0.736-9.266-0.825c-1.353-0.046-2.56-0.088-3.674-0.06
		c-1.083-0.004-2.041,0.03-2.833,0.073c-0.771,0.022-1.419,0.095-1.837,0.126c-0.423,0.036-0.641,0.054-0.641,0.054
		C135.726,105.577,131.14,109.998,130.657,115.749z"/>
</g>
<g id="Layer_1">
</g>
</svg>
