<?xml version="1.0" encoding="iso-8859-1"?>
<!-- Generator: Adobe Illustrator 18.1.0, SVG Export Plug-In . SVG Version: 6.00 Build 0)  -->
<!DOCTYPE svg PUBLIC "-//W3C//DTD SVG 1.1//EN" "http://www.w3.org/Graphics/SVG/1.1/DTD/svg11.dtd">
<svg version="1.1" xmlns="http://www.w3.org/2000/svg" xmlns:xlink="http://www.w3.org/1999/xlink" x="0px" y="0px"
	 viewBox="0 0 512 512" enable-background="new 0 0 512 512" xml:space="preserve">
<g id="Layer_7">
	<path fill="#7C5028" d="M306.208,144.927c-1.085,1.617-3.626,0.528-3.166-1.364c2.407-9.891-10.858-24.842-27.939-34.799
		c-2.303,6.668-7.375,13.283-9.859,16.428c-0.675,0.854-1.937,0.37-1.993-0.717c-0.473-9.227-9.29-26.075-21.256-26.075
		c-27.904,0-50.525-22.621-50.525-50.525c0-27.904,22.621-43.426,50.525-43.426c9.495,0,18.374,1.801,25.962,5.272
		C309.384,25.508,352.695,75.688,306.208,144.927z M155.264,75.51c-3.93-4.314-8.202-7.637-12.395-10.217
		c-0.073-0.01-0.098-0.065-0.168-0.122l-0.038,0.017c-9.605-5.765-18.516-7.63-21.214-8.064c-0.051-0.111-0.178-0.343-0.178-0.343
		s-0.189,0.176-0.292,0.289c-0.126-0.031-0.396-0.086-0.396-0.086s0.036,0.273,0.069,0.393c-2.329,2.362-10.788,11.732-14.812,26.05
		l-0.065,0.053c0,0-0.117,0.522-0.185,0.711c-0.075,0.325-0.14,0.622-0.24,0.935c-1.476,6.418-6.309,32.063,2.635,53.693
		C118.275,113.942,134.65,92.216,155.264,75.51z M404.014,138.824c8.946-21.63,4.112-47.277,2.636-53.696
		c-0.101-0.313-0.165-0.61-0.24-0.935c-0.069-0.189-0.185-0.711-0.185-0.711l-0.065-0.053c-4.025-14.318-12.484-23.688-14.812-26.05
		c0.032-0.12,0.069-0.393,0.069-0.393s-0.269,0.055-0.396,0.086c-0.103-0.114-0.292-0.289-0.292-0.289s-0.127,0.232-0.178,0.343
		c-2.698,0.434-11.609,2.298-21.214,8.064l-0.038-0.017c-0.07,0.057-0.095,0.112-0.168,0.122c-4.194,2.581-8.468,5.905-12.4,10.222
		C377.346,92.221,393.722,113.946,404.014,138.824z"/>
</g>
<g id="Layer_1">
</g>
</svg>
