<?xml version="1.0" encoding="iso-8859-1"?>
<!-- Generator: Adobe Illustrator 18.1.0, SVG Export Plug-In . SVG Version: 6.00 Build 0)  -->
<!DOCTYPE svg PUBLIC "-//W3C//DTD SVG 1.1//EN" "http://www.w3.org/Graphics/SVG/1.1/DTD/svg11.dtd">
<svg version="1.1" xmlns="http://www.w3.org/2000/svg" xmlns:xlink="http://www.w3.org/1999/xlink" x="0px" y="0px"
	 viewBox="0 0 512 512" enable-background="new 0 0 512 512" xml:space="preserve">
<g id="Layer_2">
	<path fill="#AF773F" d="M433.607,51.599c-0.174-0.544-0.287-1.059-0.417-1.622c-0.119-0.328-0.321-1.233-0.321-1.233l-0.113-0.091
		c-6.981-24.837-21.655-41.091-25.694-45.188c0.056-0.208,0.119-0.682,0.119-0.682s-0.467,0.094-0.686,0.148
		c-0.179-0.197-0.507-0.502-0.507-0.502s-0.22,0.402-0.309,0.595c-4.68,0.752-20.138,3.987-36.799,13.988l-0.065-0.03
		c-0.121,0.099-0.164,0.194-0.291,0.211c-7.82,4.811-15.808,11.086-23.037,19.418c-6.888,6.769-12.668,13.583-17.531,20.304
		c-21.638-10.907-46.083-17.058-71.966-17.058c-25.878,0-50.318,6.149-71.951,17.052c-4.862-6.719-10.641-13.531-17.527-20.299
		c-7.229-8.332-15.217-14.607-23.037-19.418c-0.127-0.017-0.17-0.112-0.291-0.211l-0.065,0.03
		C126.458,7.011,111.001,3.776,106.321,3.024c-0.089-0.193-0.309-0.595-0.309-0.595s-0.328,0.305-0.507,0.502
		c-0.219-0.054-0.686-0.148-0.686-0.148s0.063,0.474,0.119,0.682c-4.039,4.097-18.713,20.351-25.694,45.188l-0.113,0.091
		c0,0-0.203,0.905-0.321,1.233c-0.13,0.563-0.242,1.078-0.417,1.622c-2.815,12.245-12.686,64.839,9.956,104.132
		c2.019,4.062,4.518,7.908,7.326,11.497c0.072,0.157,0.165,0.273,0.224,0.401c0.241,0.274,0.46,0.407,0.687,0.651
		c0.644,0.807,1.309,1.599,1.984,2.384c-1.015,5.484-1.76,11.063-2.2,16.728c-0.563,7.242-0.138,14.539,1.129,21.692l32.348,182.633
		h252.308l32.348-182.633c1.267-7.153,1.691-14.451,1.128-21.693c-0.44-5.664-1.186-11.242-2.201-16.726
		c0.675-0.785,1.34-1.578,1.984-2.385c0.227-0.244,0.447-0.377,0.687-0.651c0.059-0.128,0.151-0.244,0.224-0.401
		c2.809-3.589,5.307-7.435,7.326-11.497C446.293,116.438,436.422,63.844,433.607,51.599z"/>
</g>
<g id="Layer_1">
</g>
</svg>
