<svg xmlns="http://www.w3.org/2000/svg" viewBox="0 0 512 512" enable-background="new 0 0 512 512"><path fill="#D19B61" d="M444.317 197.948l.92.685c.653.49 1.348.998 2.392 1.736 2.117 1.492 5.307 3.527 9.43 6.1 2.054 1.295 4.337 2.74 6.753 4.43 2.412 1.685 4.96 3.622 7.444 5.9 2.48 2.287 4.865 4.94 6.925 7.878 2.075 2.93 3.772 6.155 5.093 9.442 1.325 3.29 2.278 6.65 2.968 9.945l.47 2.462.367 2.434c.205 1.51.406 3.004.604 4.473.092.758.208 1.454.328 2.134l.346 2.045c.2 1.353.542 2.68.795 3.974.566 2.58 1.238 4.972 1.924 7.158.734 2.155 1.466 4.117 2.254 5.764.75 1.68 1.56 3.023 2.24 4.113.705 1.063 1.317 1.82 1.74 2.29.44.463.61.604.548.563.916.58 1.188 1.795.606 2.71-.58.917-1.795 1.19-2.71.607-.066-.037-.555-.344-1.22-.89-.663-.553-1.55-1.396-2.55-2.54-.965-1.156-2.105-2.592-3.185-4.338-1.13-1.73-2.216-3.758-3.33-6.006-1.06-2.26-2.13-4.745-3.105-7.417-.458-1.347-1.002-2.695-1.425-4.15l-.678-2.19c-.234-.74-.46-1.485-.643-2.195l-1.204-4.442-.563-2.106-.647-2.085c-.912-2.763-2.025-5.455-3.373-7.946-1.347-2.49-2.916-4.784-4.713-6.787-1.788-2.01-3.765-3.77-5.868-5.31-4.222-3.066-8.9-5.35-13.143-7.406-4.25-2.033-8.016-3.874-10.637-5.312-1.327-.727-2.48-1.39-3.065-1.736l-.99-.58c-3.843-2.248-5.135-7.186-2.887-11.03 2.25-3.842 7.188-5.134 11.03-2.886.26.156.52.328.755.504zm-336.516-93.9c-.302.54-.45.876-.45.876l.01.013c-4.502 9.935-3.25 22.11-3.25 22.11.195-.04.34-.095.537-.136-.04.197-.09.346-.13.54 0 0 13.486 1.43 23.71-3.846.086-.037.153-.048.245-.09.032-.026.07-.045.107-.076 1.13-.595 2.224-1.282 3.243-2.07 10.554-7.306 15.72-21.03 16.81-24.275.036-.15.083-.285.133-.434.02-.09.1-.33.1-.33l-.01-.035c1.165-4.068 1.104-8.29.875-10.983-.136-1.613-1.603-3.053-3.202-3.172-1.976-.147-4.74-.207-7.48.217l-.01-.014c-.04.013-.064.032-.094.024-2.416.4-5.076 1.138-7.855 2.45-8.953 3.48-14.793 8.507-18.505 12.69-2.034 1.863-3.57 4.12-4.78 6.544zm-6.266 47.763c-1.674-17.536-22.222 7.846-22.222 7.846-.18-.083-.33-.127-.51-.21.147-.134.275-.224.424-.357 0 0-10.004-9.157-21.364-10.98-.09-.02-.15-.053-.25-.073-.04.002-.08-.005-.13-.002-1.262-.192-2.55-.29-3.84-.26-12.83-.385-25.134 7.59-27.936 9.557-.118.1-.237.18-.366.27-.07.063-.278.207-.278.207l-.01.033c-3.353 2.582-5.81 6.016-7.225 8.32-.848 1.38-.522 3.41.694 4.454 1.503 1.292 3.69 2.98 6.148 4.266v.017c.04.014.07.013.09.038 2.18 1.113 4.76 2.1 7.775 2.693 54.828 5.775 66.59-24.582 69-25.816z"/></svg>