<?xml version="1.0" encoding="iso-8859-1"?>
<!-- Generator: Adobe Illustrator 18.1.0, SVG Export Plug-In . SVG Version: 6.00 Build 0)  -->
<!DOCTYPE svg PUBLIC "-//W3C//DTD SVG 1.1//EN" "http://www.w3.org/Graphics/SVG/1.1/DTD/svg11.dtd">
<svg version="1.1" xmlns="http://www.w3.org/2000/svg" xmlns:xlink="http://www.w3.org/1999/xlink" x="0px" y="0px"
	 viewBox="0 0 512 512" enable-background="new 0 0 512 512" xml:space="preserve">
<g id="Layer_5">
	<g>
		<path fill="#E8EBED" d="M88.503,271.766c0,0-0.605,0.386-1.664,1.06c-0.664,0.433-1.469,0.958-2.394,1.56
			c-1.02,0.689-2.111,1.282-3.305,1.943c-1.196,0.656-2.56,1.31-3.992,1.952c-0.728,0.301-1.476,0.61-2.24,0.926
			c-0.77,0.293-1.571,0.556-2.372,0.832c-0.798,0.29-1.628,0.499-2.456,0.731c-0.829,0.237-1.664,0.451-2.507,0.615
			c-1.684,0.391-3.368,0.628-5.034,0.869c-1.653,0.163-3.296,0.343-4.868,0.388c-1.586,0.099-3.099,0.074-4.563,0.082
			c-1.453-0.027-2.841-0.078-4.145-0.139c-1.29-0.089-2.51-0.173-3.636-0.251c-2.228-0.2-4.065-0.381-5.339-0.542
			c-1.275-0.148-2.004-0.233-2.004-0.233c-2.678-0.312-4.597-2.736-4.286-5.414c0.234-2.008,1.655-3.59,3.481-4.124l0.128-0.036
			c0,0,0.674-0.196,1.853-0.54c1.183-0.331,2.847-0.849,4.817-1.479c0.969-0.333,2.018-0.693,3.128-1.074
			c1.089-0.403,2.223-0.835,3.371-1.296c1.126-0.49,2.304-0.962,3.408-1.526c1.141-0.521,2.199-1.139,3.26-1.716
			c1.007-0.636,2.009-1.242,2.885-1.915c0.459-0.312,0.88-0.653,1.279-0.996c0.402-0.34,0.812-0.648,1.163-1.008
			c0.36-0.35,0.719-0.67,1.05-1.007c0.319-0.346,0.631-0.684,0.935-1.013c0.587-0.684,1.119-1.315,1.589-1.953
			c0.466-0.641,0.915-1.219,1.16-1.691c0.296-0.492,0.47-0.797,0.905-1.41c0.714-1.033,1.122-1.624,1.122-1.624
			c4.451-6.442,13.282-8.055,19.724-3.604c6.442,4.451,8.055,13.282,3.604,19.724c-1.096,1.586-2.457,2.879-3.982,3.861
			L88.503,271.766z"/>
	</g>
</g>
<g id="Layer_1">
</g>
</svg>
