<?xml version="1.0" encoding="iso-8859-1"?>
<!-- Generator: Adobe Illustrator 18.1.0, SVG Export Plug-In . SVG Version: 6.00 Build 0)  -->
<!DOCTYPE svg PUBLIC "-//W3C//DTD SVG 1.1//EN" "http://www.w3.org/Graphics/SVG/1.1/DTD/svg11.dtd">
<svg version="1.1" xmlns="http://www.w3.org/2000/svg" xmlns:xlink="http://www.w3.org/1999/xlink" x="0px" y="0px"
	 viewBox="0 0 512 512" enable-background="new 0 0 512 512" xml:space="preserve">
<g id="Layer_2">
	<path fill="#A9B8C2" d="M398.116,429.875c0.65,2.372,1.004,4.866,1.004,7.444c0,15.52-12.582,18.335-28.102,18.335
		s-28.102-2.815-28.102-18.335s12.582-28.102,28.102-28.102c1.872,0,3.7,0.187,5.469,0.536c1.055-13.855-0.993-30.924-12.283-46.472
		c-16.394-22.577-57.491-107.496-14.36-144.739l86.377,22.069c-4.501,61.438-45.044,87.124-27.139,142.712
		C414.037,398.706,402.465,413.047,398.116,429.875z M282.403,418.027c-3.511-16.419-11.692-51.071-22.459-73.53
		c-14.521-30.289-36.813-76.789-36.813-76.789l-39.661,28.593c30.419,41.445,50.433,79.335,67.814,115.028
		c-10.214,4.208-17.406,14.257-17.406,25.989c0,15.52,12.582,18.335,28.102,18.335s28.102-2.815,28.102-18.335
		C290.082,429.847,287.16,423.061,282.403,418.027z"/>
</g>
<g id="Layer_1">
</g>
</svg>
