<svg xmlns="http://www.w3.org/2000/svg" viewBox="0 0 512 512" enable-background="new 0 0 512 512"><path fill="#AF773F" d="M190.818 405.257c0-1.976 1.602-3.578 3.578-3.578 1.976 0 3.578 1.6 3.578 3.576s-1.602 3.578-3.578 3.578c-1.976 0-3.578-1.6-3.578-3.578zm-4.69-35.87c1.976 0 3.578-1.603 3.578-3.58 0-1.975-1.602-3.577-3.578-3.577-1.976 0-3.578 1.602-3.578 3.578 0 1.976 1.602 3.578 3.578 3.578zm-21.89 25.51c1.977 0 3.58-1.603 3.58-3.58 0-1.975-1.603-3.577-3.58-3.577-1.975 0-3.577 1.602-3.577 3.578 0 1.976 1.604 3.578 3.58 3.578zm152.644-32.668c-1.976 0-3.578 1.6-3.578 3.576s1.602 3.578 3.578 3.578c1.976 0 3.578-1.602 3.578-3.578 0-1.976-1.602-3.578-3.578-3.578zm8.268 39.45c-1.976 0-3.578 1.6-3.578 3.576s1.602 3.578 3.578 3.578 3.578-1.602 3.578-3.578c0-1.976-1.602-3.578-3.578-3.578zm21.89-25.51c-1.977 0-3.58 1.6-3.58 3.576s1.603 3.578 3.58 3.578c1.975 0 3.577-1.602 3.577-3.578 0-1.976-1.6-3.578-3.578-3.578z"/></svg>