<svg xmlns="http://www.w3.org/2000/svg" viewBox="0 0 512 512" enable-background="new 0 0 512 512"><path fill="#FF473E" d="M192.003 82.237l.606.177c.392.12 1.01.282 1.724.533.74.24 1.628.546 2.615.93 1.027.367 2.112.83 3.33 1.345 2.437 1.03 5.17 2.38 8.132 3.996 2.948 1.623 6.026 3.558 9.11 5.782 6.176 4.447 12.272 10.096 17.453 16.713 5.237 6.593 9.518 14.17 12.662 22.22 1.57 4.027 2.9 8.154 3.926 12.334 1.05 4.17 1.758 8.41 2.232 12.6.917 8.396.633 16.706-.455 24.18-.55 3.74-1.25 7.252-2.122 10.468-.432 1.606-.803 3.096-1.292 4.534-.442 1.416-.863 2.726-1.332 3.946-.22.604-.43 1.176-.628 1.715l-.635 1.547c-.374.952-.765 1.792-1.073 2.47-.29.67-.595 1.216-.764 1.57l-.273.544c-2.596 5.167-8.55 7.534-13.882 5.79l-.578-.19c-.37-.13-.974-.297-1.654-.562-.697-.26-1.57-.572-2.51-.975l-1.546-.637c-.52-.24-1.075-.492-1.66-.76-1.198-.525-2.425-1.147-3.743-1.83-1.366-.666-2.686-1.45-4.13-2.274-2.9-1.644-5.887-3.616-8.93-5.857-6.078-4.487-12.182-10.134-17.5-16.693-2.645-3.286-5.16-6.772-7.383-10.453-2.247-3.67-4.244-7.52-6-11.468-3.508-7.9-5.878-16.273-6.878-24.633-1.055-8.338-.78-16.645.406-24.16.59-3.758 1.38-7.306 2.303-10.543.936-3.243 1.902-6.133 2.884-8.59.49-1.228.923-2.324 1.386-3.312.422-.97.828-1.817 1.18-2.512.322-.683.643-1.238.835-1.6l.3-.556c2.737-5.053 8.585-7.34 13.88-5.79z"/></svg>