<?xml version="1.0" encoding="iso-8859-1"?>
<!-- Generator: Adobe Illustrator 18.1.0, SVG Export Plug-In . SVG Version: 6.00 Build 0)  -->
<!DOCTYPE svg PUBLIC "-//W3C//DTD SVG 1.1//EN" "http://www.w3.org/Graphics/SVG/1.1/DTD/svg11.dtd">
<svg version="1.1" xmlns="http://www.w3.org/2000/svg" xmlns:xlink="http://www.w3.org/1999/xlink" x="0px" y="0px"
	 viewBox="0 0 512 512" enable-background="new 0 0 512 512" xml:space="preserve">
<g id="Layer_2">
	<path fill="#FF473E" d="M506.541,129.649c-0.048-1.358-0.171-2.386-0.224-3.082c-0.061-0.695-0.093-1.053-0.093-1.053
		c-0.145-1.58-1.465-2.841-3.086-2.861c-1.732-0.021-3.153,1.366-3.174,3.098l-0.002,0.129c0,0-0.004,0.331-0.012,0.974
		c-0.016,0.641,0.006,1.595-0.075,2.827c-0.11,2.463-0.397,6.08-1.414,10.459c-1.033,4.358-2.86,9.489-6.301,14.45
		c-3.383,4.989-8.457,9.68-14.986,13.534c-3.5,2.079-7.415,3.907-11.634,5.537c0.661-1.441,1.309-2.946,1.929-4.506
		c0.825-2.154,1.648-4.386,2.329-6.709c0.719-2.307,1.299-4.697,1.829-7.089c0.479-2.407,0.896-4.822,1.159-7.218
		c0.272-2.394,0.443-4.758,0.479-7.046c0.064-2.286-0.009-4.497-0.144-6.581c-0.089-1.042-0.144-2.055-0.256-3.029
		c-0.125-0.972-0.245-1.911-0.36-2.813c-0.288-1.793-0.566-3.431-0.885-4.865c-0.346-1.429-0.592-2.683-0.894-3.692
		c-0.581-2.017-0.913-3.17-0.913-3.17c-0.442-1.513-1.965-2.499-3.554-2.22c-1.705,0.299-2.845,1.924-2.546,3.629l0.03,0.173
		c0,0,0.19,1.083,0.522,2.978c0.179,0.943,0.274,2.108,0.452,3.428c0.15,1.323,0.24,2.825,0.329,4.453
		c0.017,0.815,0.035,1.665,0.053,2.544c0.008,0.878-0.043,1.786-0.061,2.716c-0.079,1.86-0.221,3.816-0.495,5.821
		c-0.245,2.007-0.619,4.064-1.08,6.129c-0.452,2.068-1.045,4.136-1.682,6.183c-0.689,2.035-1.409,4.053-2.251,5.989
		c-0.802,1.949-1.731,3.811-2.639,5.596c-1.872,3.549-3.875,6.716-5.734,9.303c-1.727,2.407-3.302,4.32-4.481,5.647
		c-6.707,1.573-13.809,2.907-21.204,4.203c-10.156,1.816-20.791,3.431-32.091,6.261l-2.137,0.561l-0.988,0.267l-0.574,0.161
		l-0.513,0.157c-1.368,0.42-2.738,0.84-4.11,1.261c-2.76,0.805-5.463,1.809-8.207,2.727c-2.726,0.967-5.431,2.016-8.144,3.06
		l-4.031,1.67c-1.35,0.548-2.689,1.12-4.01,1.734c-10.639,4.756-20.995,10.279-30.668,16.562
		c-9.684,6.261-18.814,13.097-27.098,20.343c-8.306,7.224-15.86,14.75-22.612,22.247c-6.747,7.503-12.679,14.981-17.866,22.082
		c-5.183,7.106-9.629,13.835-13.35,19.923c-3.716,6.09-6.816,11.49-9.216,16.01c-1.223,2.223-2.293,4.325-3.225,6.145
		c-0.464,0.907-0.894,1.746-1.288,2.515c-0.353,0.714-0.673,1.363-0.96,1.944c-1.148,2.324-1.76,3.563-1.76,3.563
		c-0.222,0.454-0.447,0.957-0.636,1.435c-3.847,9.745,0.934,20.764,10.68,24.611c9.745,3.847,20.764-0.934,24.611-10.68
		c0,0,0.508-1.286,1.459-3.696c0.238-0.603,0.504-1.276,0.796-2.016c0.279-0.674,0.583-1.409,0.911-2.204
		c0.654-1.584,1.39-3.401,2.33-5.502c1.794-4.191,4.145-9.194,6.985-14.864c2.845-5.667,6.282-11.94,10.336-18.595
		c4.058-6.65,8.741-13.682,14.134-20.785c5.397-7.096,11.493-14.271,18.277-21.242c6.764-6.994,14.305-13.675,22.407-19.93
		c8.092-6.274,16.872-11.934,26.031-16.981c1.136-0.65,2.292-1.261,3.459-1.85l3.489-1.8c2.356-1.135,4.71-2.284,7.093-3.359
		c2.403-1.027,4.769-2.146,7.205-3.077c2.402-0.96,4.883-1.979,7.197-2.809c9.54-3.438,19.903-6.127,29.931-8.951
		c10.062-2.812,19.951-5.731,29.202-9.32c9.239-3.582,17.887-7.853,25.158-13.208c7.275-5.313,13.037-11.775,16.583-18.346
		c3.624-6.549,5.158-12.901,5.845-18.018C506.779,136.374,506.684,132.356,506.541,129.649z"/>
</g>
<g id="Layer_1">
</g>
</svg>
