<?xml version="1.0" encoding="iso-8859-1"?>
<!-- Generator: Adobe Illustrator 19.1.0, SVG Export Plug-In . SVG Version: 6.00 Build 0)  -->
<!DOCTYPE svg PUBLIC "-//W3C//DTD SVG 1.1//EN" "http://www.w3.org/Graphics/SVG/1.1/DTD/svg11.dtd">
<svg version="1.1" xmlns="http://www.w3.org/2000/svg" xmlns:xlink="http://www.w3.org/1999/xlink" x="0px" y="0px"
	 viewBox="0 0 512 512" enable-background="new 0 0 512 512" xml:space="preserve">
<g id="Layer_5">
	<path fill="#E7ECEF" d="M315.22,89.979c-8.64,0-15.645-7.006-15.645-15.635v-0.058h-0.068V52.299h0.196
		c0.268-3.085,1.424-5.912,3.205-8.228c11.981,10.597,20.33,25.202,22.928,41.725C323.045,88.383,319.322,89.979,315.22,89.979z
		 M184.768,85.744c2.797,2.618,6.546,4.234,10.68,4.234c8.63,0,15.635-7.006,15.635-15.635c0-0.019-0.039-0.03-0.039-0.058h0.039
		V52.299h-0.156c-0.265-3.096-1.428-5.931-3.218-8.252C195.728,54.635,187.376,69.231,184.768,85.744z"/>
</g>
<g id="Layer_1">
</g>
</svg>
