<svg xmlns="http://www.w3.org/2000/svg" viewBox="0 0 512 512" enable-background="new 0 0 512 512"><path fill="#657F8C" d="M472.538 303.833c-46.712-49.86-142.596-134.245-269.274-151.81l.025-.002-4.8-1.696c-1.28-.453-1.87-1.835-1.316-3.073l1.1-2.454c.344-.77-.504-1.54-1.448-1.315l-31.155 4.765c-1.554.238-2.724-1.164-1.922-2.305l4.435-6.31c.54-.768-.29-1.7-1.32-1.48-10 2.138-44.872 10.546-65.257 27.613-25.078 17.34-41.512 46.295-41.512 79.093 0 53.074 43.025 96.1 96.1 96.1h300.238c19.303 0 29.3-23.038 16.104-37.123z"/></svg>