<?xml version="1.0" encoding="iso-8859-1"?>
<!-- Generator: Adobe Illustrator 18.1.0, SVG Export Plug-In . SVG Version: 6.00 Build 0)  -->
<!DOCTYPE svg PUBLIC "-//W3C//DTD SVG 1.1//EN" "http://www.w3.org/Graphics/SVG/1.1/DTD/svg11.dtd">
<svg version="1.1" xmlns="http://www.w3.org/2000/svg" xmlns:xlink="http://www.w3.org/1999/xlink" x="0px" y="0px"
	 viewBox="0 0 512 512" enable-background="new 0 0 512 512" xml:space="preserve">
<g id="Layer_5">
	<path fill="#007F67" d="M352.55,352.246c-4.904-9.432-15.849-16.864-27.724-20.428l10.897-62.412
		c-5.257-1.952-10.648-1.408-16.013,0.707l-4.748-44.011c-5.321,0.115-10.859,1.821-16.126,4.623l-9.104-44.956
		c-1.329,0.175-2.661,0.458-3.989,0.826l6.23-39.826c-0.919-0.229-1.863-0.398-2.818-0.536l29.141-42.05
		c-1.56-1.245-3.382-2.275-5.394-3.12l18.777-27.513c-0.835-0.825-1.732-1.611-2.675-2.366l42.935-20.192
		c-8.171-23.279-33.666-35.526-56.945-27.355c-11.991,4.209-21.055,13.014-25.909,23.746c-2.47,5.461,6.399,9.539,15.696,13.917
		c-12.402-1.765-25.239,0.592-32.972,8.418c-7.304,7.391-10.809,17.111-10.53,26.737c0.089,3.054,4.698,4.518,11.034,5.382
		c-10.155,3.145-19.134,8.094-23.92,14.091c-6.481,8.122-8.939,18.158-7.644,27.701c0.782,5.759,15.806,4.866,28.509,5.089
		c-14.125,5.041-27.184,16.254-30.341,28.9c-2.517,10.081-0.578,20.231,4.568,28.371c2.907,4.598,13.886-2.636,24.254-8.646
		c-10.454,9.869-17.675,24.269-16.055,36.583c1.355,10.302,6.881,19.033,14.654,24.719c2.231,1.632,5.283,0.077,8.719-2.898
		c-2.09,4.643-3.261,9.439-3.16,14.082c0.225,10.388,4.767,19.669,11.874,26.168c0.855,0.781,1.923,0.968,3.154,0.709
		c-1.952,2.025-3.835,3.977-5.631,5.776c-7.342,7.353-7.781,20.112-3.568,28.772c1.388,2.853,6.411,3.617,12.741,3.555
		c-8.189,3.816-16.591,7.023-18.914,15.013c-1.29,4.436,6.874,12.196,15.787,19.889c-6.113-3.401-12.648-5.331-18.841-5.018
		c-10.378,0.525-19.524,5.332-25.814,12.624c-3.018,3.499,3.826,10.085,11.328,16.996c-5.362-2.071-10.701-3.455-15.442-3.961
		c-10.332-1.102-20.117,2.218-27.469,8.438c-3.489,2.952,2.08,10.394,8.327,18.294c-9.034-4.25-17.19-7.793-22.171-10.195
		c-9.359-4.513-12.309-8.738-21.325-5.353c-3.633,1.364-8.224,9.104-12.62,18.196c0.317-4.697-0.18-9.238-1.671-13.295
		c-3.585-9.753-5.027-20.86-13.859-24.7c-4.237-1.842-12.97,5.271-21.731,13.136c4.149-5.633,6.893-11.87,7.368-18.052
		c0.796-10.36-2.812-20.043-9.247-27.208c-3.087-3.438-10.489,2.516-18.296,9.08c2.734-5.056,4.785-10.177,5.888-14.815
		c2.404-10.109,0.352-20.236-4.885-28.318c-1.135-1.752-4.331-2.839-8.69-3.505c5.987-5.435,9.015-5.974,8.971-14.213
		c-0.021-3.952-5.864-8.743-12.646-13.373c4.959,0.466,9.548-0.187,13.184-2.25c7.044-3.998,11.259-11.38,12.33-19.996
		c0.426-3.43-4.895-6.438-11.537-9.41c4.401,0.685,8.732,0.341,12.506-1.373c6.802-3.09,11.651-8.72,13.934-15.258
		c0.832-2.383-2.886-4.888-7.916-7.434c1.682,0.071,3.348-0.055,4.969-0.423c7.285-1.657,13.168-6.195,16.721-12.139
		c1.268-2.121-1.71-5.234-5.977-8.654c5.704,1.035,11.12,1.029,15.216-0.372c7.069-2.418,12.44-7.553,15.344-13.839
		c1.753-3.794-7.702-9.061-15.317-14.107c10.513,2.405,22.765,0.655,29.568-5.792c5.423-5.139,8.172-12.042,8.199-18.967
		c0.015-3.912-9.438-3.77-18.048-4.134c10.153-1.942,20.099-7.881,23.877-15.973c3.161-6.77,3.187-14.2,0.672-20.652
		c-1.155-2.963-7.151-1.137-13.729,1.163c2.836-5.504,4.416-11.393,3.718-15.768c-0.863-5.407-3.899-9.926-8.075-12.808
		c-2.52-1.74-7.505,4.429-12.1,9.297c3.05-7.29,3.318-16.355-0.487-22.073c-3.033-4.558-7.673-7.406-12.67-8.29
		c-2.823-0.5-3.902,6.343-5.241,12.514c-0.133-7.574-3.179-15.497-8.549-19.237c-4.493-3.128-9.855-4.076-14.828-3.066
		c-2.269,0.46-1.722,4.962-0.892,9.959c-2.557-4.275-5.877-7.839-9.154-9.263c-4.169-1.811-8.687-1.704-12.569-0.069
		c-2.299,0.968-0.328,7,1.027,12.318c-2.509-3.527-6.08-6.277-9.748-6.81c-3.754-0.546-7.369,0.528-10.138,2.694
		c-1.22,0.955,0.354,3.43,2.322,6.156c-3.099-2.165-6.91-3.362-10.062-2.621c-3.061,0.72-5.522,2.647-6.999,5.159
		c-0.71,1.208,1.699,2.803,4.315,4.457c-2.948-0.76-6.093-0.642-8.33,0.698c-2.352,1.408-3.886,3.661-4.448,6.139
		c-0.528,2.333,9.258,2.729,10.583,4.943l9.511-6.92c-0.138-0.23-0.299-0.45-0.464-0.669l10.576-3.51
		c0.045,0.26,0.055,0.501,0.023,0.722l16.251,0.896c0.136-0.935,0.137-1.912,0.026-2.906l21.056,7.501
		c0.425-0.979,0.673-2.084,0.773-3.274l16.419,9.374c0.404-0.58,0.766-1.199,1.094-1.847l13.299,16.561
		c0.415-0.276,0.816-0.584,1.209-0.907l3.912,17.034l-9.989,27.59c0.873,0.408,1.79,0.751,2.738,1.041l-19.175,21.737
		c0.468,0.494,0.976,0.961,1.501,1.414l-33.925,14.228c0.902,2.637,2.688,5.166,5.074,7.502l-18.928,8.099
		c1.141,5.015,4.077,10.077,8.016,14.383l-23.419,16.264c1.906,4.195,5.229,8.137,9.297,11.375c-2.773-1.584-4.939-3.241-5.949-5.02
		l-28.138,20.551c3.308,5.828,8.511,11.041,14.481,15.128l-30.666,35.931c2.586,2.679,5.879,4.862,9.587,6.55l15.621,69.095
		c6.641,1.579,13.492-0.622,19.833-4.976l0.435,33.966c6.78,0.521,14.17-1.495,21.049-5.158c-0.985,0.636-1.883,1.129-2.656,1.413
		l30.438,49.413c5.254-1.931,10.169-5.598,14.384-10.287l117.597,6.265c3.422-7.096-3.706-15.07-14.749-22.676l34.932-4.814
		c0.724-6.788-2.329-13.304-7.452-19.042l33.636-4.741c-0.344-6.792-3.281-13.866-7.787-20.225c0.757,0.897,1.359,1.725,1.739,2.456
		L352.55,352.246z"/>
</g>
<g id="Layer_1">
</g>
</svg>
