<?xml version="1.0" encoding="iso-8859-1"?>
<!-- Generator: Adobe Illustrator 19.1.0, SVG Export Plug-In . SVG Version: 6.00 Build 0)  -->
<!DOCTYPE svg PUBLIC "-//W3C//DTD SVG 1.1//EN" "http://www.w3.org/Graphics/SVG/1.1/DTD/svg11.dtd">
<svg version="1.1" xmlns="http://www.w3.org/2000/svg" xmlns:xlink="http://www.w3.org/1999/xlink" x="0px" y="0px"
	 viewBox="0 0 512 512" enable-background="new 0 0 512 512" xml:space="preserve">
<g id="Layer_4">
	<path fill="#15E5C2" d="M485.104,212.418c-3.598-3.814-9.154-5.038-13.982-3.016l-33.332,13.953c0,0,0-0.001,0-0.002l-9.563,4.003
		l-0.001-0.002c-20.524,8.593-19.962-3.936-32.642-18.918c-0.005-0.006-0.01-0.01-0.015-0.016
		c-29.221-40.718-88.972-68.624-157.94-68.624c-65.381,0-122.475,25.08-153.13,62.379c-24.158,23.541-50.058,39.969-66.339,46.482
		C10.792,251.608,6,258.768,6,266.698c0,6.909,3.979,13.198,10.218,16.156c15.469,7.331,45.437,23.147,68.399,45.171
		c30.683,37.221,87.714,62.239,153.013,62.239c70.424,0,131.241-29.096,159.752-71.221c9.741-12.507,11.143-22.554,25.359-18.633
		l19.776,8.282c0-0.001,0-0.003,0.001-0.004l28.604,11.974c4.828,2.022,10.384,0.791,13.982-3.016
		c12.953-13.737,20.89-32.245,20.89-52.618C505.994,244.663,498.057,226.155,485.104,212.418z"/>
</g>
<g id="Layer_1">
</g>
</svg>
