<?xml version="1.0" encoding="iso-8859-1"?>
<!-- Generator: Adobe Illustrator 18.1.0, SVG Export Plug-In . SVG Version: 6.00 Build 0)  -->
<!DOCTYPE svg PUBLIC "-//W3C//DTD SVG 1.1//EN" "http://www.w3.org/Graphics/SVG/1.1/DTD/svg11.dtd">
<svg version="1.1" xmlns="http://www.w3.org/2000/svg" xmlns:xlink="http://www.w3.org/1999/xlink" x="0px" y="0px"
	 viewBox="0 0 512 512" enable-background="new 0 0 512 512" xml:space="preserve">
<g id="Layer_9">
	<path fill="#2B3B47" d="M412.208,35.827c-0.638,0-1.255-0.338-1.584-0.936c-0.751-1.366-0.926-2.941-0.492-4.436
		c0.434-1.495,1.425-2.731,2.79-3.481c1.364-0.75,2.938-0.923,4.433-0.489c1.492,0.435,2.728,1.427,3.479,2.792
		c0.48,0.874,0.161,1.972-0.713,2.452c-0.872,0.479-1.972,0.161-2.451-0.712c-0.286-0.521-0.757-0.9-1.325-1.065
		c-0.565-0.166-1.163-0.099-1.683,0.187c-0.521,0.286-0.897,0.756-1.062,1.324c-0.165,0.569-0.099,1.169,0.188,1.69
		c0.48,0.874,0.161,1.971-0.712,2.452C412.8,35.755,412.502,35.827,412.208,35.827z"/>
</g>
<g id="Layer_1">
</g>
</svg>
