<?xml version="1.0" encoding="iso-8859-1"?>
<!-- Generator: Adobe Illustrator 19.1.0, SVG Export Plug-In . SVG Version: 6.00 Build 0)  -->
<!DOCTYPE svg PUBLIC "-//W3C//DTD SVG 1.1//EN" "http://www.w3.org/Graphics/SVG/1.1/DTD/svg11.dtd">
<svg version="1.1" xmlns="http://www.w3.org/2000/svg" xmlns:xlink="http://www.w3.org/1999/xlink" x="0px" y="0px"
	 viewBox="0 0 511.92 511.92" enable-background="new 0 0 511.92 511.92" xml:space="preserve">
<g id="Layer_3">
	<path fill="#FFB636" d="M207.756,330.827c3.968-3.334,9.992-1.046,10.893,4.058c2.108,11.942,9.04,32.468,31.778,32.468
		c27.352,0,45.914-75.264,50.782-97.399c0.801-3.642,4.35-6.115,8.004-5.372c68.355,13.898,101.59,235.858-48.703,235.858
		C151.098,500.44,175.885,357.601,207.756,330.827z M394.537,90.454c2.409-18.842-31.987,32.693-31.987,32.693
		S388.773,135.533,394.537,90.454z M47.963,371.456c0.725-8.021-9.594-29.497-11.421-20.994
		C32.169,370.806,47.238,379.478,47.963,371.456z"/>
</g>
<g id="Layer_1">
</g>
</svg>
