<?xml version="1.0" encoding="iso-8859-1"?>
<!-- Generator: Adobe Illustrator 19.2.1, SVG Export Plug-In . SVG Version: 6.00 Build 0)  -->
<!DOCTYPE svg PUBLIC "-//W3C//DTD SVG 1.1//EN" "http://www.w3.org/Graphics/SVG/1.1/DTD/svg11.dtd">
<svg version="1.1" xmlns="http://www.w3.org/2000/svg" xmlns:xlink="http://www.w3.org/1999/xlink" x="0px" y="0px"
	 viewBox="0 0 512 512" enable-background="new 0 0 512 512" xml:space="preserve">
<g id="Layer_2">
	<path fill="#13A031" d="M387.548,144.017c3.408,0.692,6.687,0.993,7.231,5.868c0.277,2.483,3.627,2.737,6.1,2.804
		c4.436,0.121,5.596,0.838,5.332,4.793c-0.213,3.194,0.819,4.139,3.805,4.402c3.932,0.346,7.616,1.467,11.754-0.124
		c3.724-1.431,5.854,0.458,7.622,4.943c0.375,0.95,0.912,2.217,2.022,1.532c5.06-3.122,11.102-0.69,16.523-3.445
		c3.601-1.83,8.732-1.001,12.345,2.471c1.747,1.679,3.82,2.486,5.988,1.01c2.299-1.565,4.203-0.125,5.386,1.092
		c3.758,3.865,8.001,2.716,12.313,1.894c0.577-0.11,1.136-0.318,1.703-0.48c2.342-0.671,0.147,4.704,2.772,2.413
		c1.391-1.214,2.364-1.468,3.937-1.659c7.167-0.871,12.452,3.194,17.948,6.797c-1.498,3.52-1.131,2.656-2.629,6.175
		c-0.19-0.048-0.381-0.093-0.573-0.133c-1.559-0.325-2.982-3.053-3.452-2.307c-0.972,1.54-2.927,2.857-2.673,5.011
		c0.326,2.764-1.041,3.417-3.489,3.534c-2.18,0.104-4.407,0.49-6.095,2.213c-1.375,1.405-3.004,1.433-4.954,1.358
		c-5.038-0.194-7.75,2.198-8.38,7.305c-0.647,5.238-5.538,7.118-8.125,10.807c-0.836,1.192-1.586-0.353-2.035-1.148
		c-2.053-3.638-0.781-7.02,1.05-10.212c0.886-1.544,2.31-2.772,3.434-4.189c0.682-0.859,2.456-1.411,1.648-2.747
		c-0.715-1.182-2.358-1.503-3.782-1.466c-1.779,0.047-2.983,1.267-3.803,2.652c-1.429,2.414-3.113,2.059-5.589,1.615
		c-6.455-1.157-13.138-1.834-17.634,4.644c-1.19,1.715-4.873,1.965-3.75,4.75c1.057,2.621,4.312,0.887,6.517,1.566
		c1.629,0.501,3.825-0.061,3.898,2.132c0.078,2.364,2.484,5.01-0.2,7.116c-0.833,0.654-1.585,1.052-1.698,2.165
		c-0.057,0.561-0.038,1.41-0.724,1.408c-0.649-0.002-0.578-0.84-0.645-1.379c-0.049-0.398-0.015-0.805-0.061-1.204
		c-0.128-1.119,0.365-2.333-0.504-3.34c-0.303,1.133-0.407,2.373-0.944,3.382c-2.557,4.817-5.283,9.367-11.26,10.817
		c-5.476,1.328-6.02,2.449-4.703,7.979c0.48,2.016,0.491,3.733-1.671,4.446c-2.09,0.689-2.741-1.252-3.462-2.596
		c-0.556-1.036-0.868-2.254-1.049-3.427c-0.265-1.718-1.219-1.873-2.558-1.381c-1.042,0.383-2.148,1.681-3.099,0.143
		c-0.656-1.061-1.074-1.763-2.021-0.432c-0.567,0.797-1.46,1.779-1.349,2.555c0.241,1.688,1.493,0.322,2.307,0.401
		c2.327,0.228,4.52,0.505,1.462,3.248c-1.387,1.244-0.972,2.872-0.654,4.496c1.624,8.294-1.931,14.421-9.803,17.233
		c-1.967,0.703-4.424,0.583-5.273,3.356c-0.541,1.767-1.349,1.617-2.135-0.152c-0.95-2.139-2.372-0.77-3.438-0.024
		c-1.447,1.014-1.471,2.284-0.128,3.501c0.596,0.54,1.234,1.038,1.791,1.615c3.801,3.935,2.463,9.444-2.709,11.499
		c-1.426,0.567-1.645-0.407-2.216-1.217c-1.553-2.203-4.233-4.803-6.227-2.999c-2.573,2.328,0.148,5.093,2.195,7.052
		c1.506,1.441,3.279,3.176,2.897,5.048c-0.875,4.282,2.918,6.886,3.159,10.679c0.109,1.71,1.756,1.966,3.127,2.346
		c4.021,1.115,7.765,3.419,12.209,2.726c0.764-0.119,1.887,0.188,1.943,1.01c0.08,1.166-1.131,0.83-1.839,0.894
		c-5.069,0.455-10.258-0.399-14.817-1.856c-3.515-1.123-6.489-5.166-8.773-8.54c-1.92-2.836-3.978-5.497-6.226-8.029
		c-0.658-0.741-1.888-1.209-1.093-2.33c0.897-1.264,2.206-0.767,3.136,0.052c1.35,1.189,2.528,2.573,3.795,3.858
		c0.42,0.426,1.021,0.892,1.529,0.463c0.596-0.502-0.042-1.048-0.354-1.484c-3.299-4.616-4.536-9.737-4.083-15.38
		c0.169-2.104-0.175-4.21-3.297-3.536c-2.686,0.58-2.615-1.983-3.548-3.303c-3.915-5.54-5.369-5.682-10.398-1.191
		c-1.155,1.031-2.421,1.938-3.684,2.834c-4.344,3.083-5.489,7.65-3.257,12.72c0.457,1.039,1.577,2.189,0.34,3.241
		c-1.14,0.97-2.101-0.257-3.187-0.628c-5.012-1.713-6.9-5.889-7.589-10.382c-1.027-6.693-6.065-10.562-9.666-15.465
		c-0.924-1.259-2.304-1.525-3.752-1.55c-1.809-0.032-3.633-0.192-5.424-0.017c-1.115,0.109-2.176-0.053-3.222-0.282
		c-1.784-0.39-2.842,1.902-1.387,3.005c0.694,0.526,1.447,1.005,2.089,1.575c1.156,1.026-0.034,1.648-0.37,2.518
		c-2.124,5.505-7.421,6.922-11.972,9.013c-2.846,1.307-5.541,3.283-8.87,3.479c-0.618,0.036-1.233,0.361-1.233,1.067
		c0,0.953,0.754,1.413,1.556,1.485c2.039,0.184,3.835-0.928,5.785-1.239c2.716-0.432,4.026,1.41,2.815,3.879
		c-2.389,4.873-5.461,9.368-9.861,12.794c-6.738,5.247-7.38,7.39-4.853,15.249c1.98,6.159,1.748,7.088-3.623,11.162
		c-2.049,1.555-3.805,2.98-2.786,5.923c0.403,1.164,0.502,2.755-0.462,3.42c-3.853,2.661-5.114,7.087-7.533,10.687
		c-3.889,5.787-9.849,5.509-15.583,5.945c-1.797,0.137-3.152-1.645-3.334-3.038c-0.656-5.013-3.142-9.576-4.865-13.997
		c-2.651-6.803-4.64-12.668-1.984-19.841c0.762-2.059-0.242-5.46-1.597-7.46c-2.27-3.351-3.349-6.727-3.244-10.669
		c0.033-1.256-0.65-2.82-1.916-2.636c-3.452,0.502-6.252-2.678-9.144-2.027c-3.245,0.731-6.798,0.092-9.78,1.947
		c-2.003,1.246-3.775,0.745-5.599-0.454c-4.58-3.01-7.175-7.934-11.171-11.506c-0.419-0.375-0.672-1.111-0.572-1.664
		c1.374-7.608-1.254-16.357,5.925-22.326c3.49-2.902,4.868-7.349,8.226-10.323c1.41-1.249,1.475-2.94-0.668-3.776
		c-1.429-0.558-2.919-1.361-2.454-2.904c0.775-2.571-0.717-5.281,0.586-7.634c1.17-2.111,3.442-1.728,5.432-1.622
		c5.931,0.316,6.473-0.139,5.419-6.187c-0.446-2.562,0.164-3.757,2.353-5.341c2.539-1.838,4.965-3.975,7.546-5.798
		c4.152-2.934,4.621-4.074,1.656-8.53c-0.928-1.394-1.53-2.758-1.896-4.328c-1.018-4.374-0.332-6.256,3.797-8.196
		c2.881-1.353,5.041-3.124,6.308-6.083c2.201-5.141,6.441-8.055,11.46-9.987c2.06-0.793,4.212-1.346,6.286-2.107
		c3.695-1.356,6.851-1.983,10.201,1.562c2.205,2.333,6.412,1.974,9.331,3.866c0.992,0.644,2.534,0.755,3.155,1.601
		c2.43,3.307,4.211,5.019,5.591-0.702c0.317-1.313,2.416-1.751,3.548-0.403c1.72,2.049,3.269,1.569,5.221,0.442
		c3.274-1.89,7.072-0.932,10.598-1.619c3.742-0.729,1.287-2.342,0.805-3.733l0.067-0.083c2.944,0.603,5.874,1.29,8.837,1.774
		c1.568,0.256,2.673,0.294,3.16-2.161c1.057-5.329,3.45-6.334,9.301-5.783c2.094,0.197,4.118-0.164,6.239,0.773
		c1.225,0.541,3.422,0.303,3.762-1.873c0.474-3.035,2.025-2.644,4.311-1.974c2.114,0.619,4.999,1.678,4.969-2.589
		c-0.008-1.118,1.374-1.322,2.345-1.534c4.265-0.93,8.243-2.888,12.841-2.683c4.222,0.188,5.361-2.615,3.092-6.64
		C386.163,146.777,386.879,145.414,387.548,144.017z M252.251,227.124c-4.451,0.786-7.471,3.471-9.284,7.34
		c-0.886,1.891-1.658,3.587-3.617,4.518c-0.653,0.31-1.977,0.132-1.817,0.984c0.125,0.664,1.461,0.525,2.177,0.275
		c3.588-1.251,7.159-2.422,11.005-2.756c2.101-0.183,3.987,0.119,5.818,0.957c1.8,0.824,1.569,2.526,1.668,4.142
		c0.078,1.256,1.061,2.303,2.318,2.368c4.028,0.207,7.866,3.622,12.133,0.646c0.658-0.459,2.089-0.364,2.891,0.029
		c4.438,2.179,9.185,0.667,13.746,1.294c2.234,0.307,3.028-1.88,3.456-3.502c0.523-1.984-1.087-2.024-2.632-2.131
		c-1.338-0.093-2.726-1.213-3.942-1.005c-4.188,0.716-6.032-1.023-6.297-5.043c-0.053-0.812-0.546-1.586-1.555-1.447
		c-0.679,0.094-0.62,0.839-0.877,1.333c-1.483,2.854-5.322,3.344-7.158,0.916c-0.557-0.736-0.606-2.689-1.415-2.283
		c-4.169,2.092-6.013-1.779-8.791-3.123c-1.824-0.883-2.958-1.207-3.141,1.441c-0.097,1.409-0.885,3.188-2.474,2.72
		c-2.283-0.672-0.257-2.255-0.159-3.45C254.455,229.556,255.751,227.172,252.251,227.124z M268.159,205.186
		c2.779,0.145,2.549-0.001,3.678-1.78c2.651-4.179,1.6-8.31,0.216-12.472c-0.389-1.171-0.234-3.334-2.38-2.569
		c-1.634,0.583-2.657,2.485-1.598,3.924c3.579,4.868-1.13,7.218-3.056,10.162c-1.204,1.841-3.624,3.708-5.668,0.231
		c-0.299-0.509-0.988-0.921-1.472-0.441c-0.347,0.344-0.485,1.127-0.388,1.654c0.638,3.454,3.359,2.718,5.685,2.724
		C264.97,206.624,266.107,204.312,268.159,205.186z M301.224,229.487c-0.848-3.305-5.536-3.019-6.229-6.811
		c-0.158-0.865-1.34,1.328-2.181,1.964c-1.332,1.007-2.677,1.308-3.502-0.348c-0.675-1.355-1.401-2.169-2.575-0.932
		c-1.342,1.414-2.931,2.874-2.673,5.157c0.164,1.451,1.28,2.279,2.506,2.012c3.848-0.838,7.412-0.3,11.045,1.13
		C299.137,232.257,300.804,231.539,301.224,229.487z M297.431,260.858c-1.259,0.272-1.308,1.187-1.374,2.188
		c-0.194,2.918,1.904,4.615,3.447,6.602c0.7,0.901,1.419,2.512,2.576,2.019c1.67-0.712,0.618-2.352,0.302-3.59
		c-0.599-2.352-2.333-4.072-3.548-6.08C298.556,261.535,297.954,261.269,297.431,260.858z"/>
</g>
<g id="Layer_1">
</g>
</svg>
