<?xml version="1.0" encoding="iso-8859-1"?>
<!-- Generator: Adobe Illustrator 19.1.0, SVG Export Plug-In . SVG Version: 6.00 Build 0)  -->
<!DOCTYPE svg PUBLIC "-//W3C//DTD SVG 1.1//EN" "http://www.w3.org/Graphics/SVG/1.1/DTD/svg11.dtd">
<svg version="1.1" xmlns="http://www.w3.org/2000/svg" xmlns:xlink="http://www.w3.org/1999/xlink" x="0px" y="0px"
	 viewBox="0 0 511.92 511.92" enable-background="new 0 0 511.92 511.92" xml:space="preserve">
<g id="Layer_2">
	<path fill="#FF8F1F" d="M266.91,500.44c-168.738,0-213.822-175.898-193.443-291.147c0.887-5.016,7.462-6.461,10.327-2.249
		c8.872,13.04,16.767,31.875,29.848,30.24c19.661-2.458,33.282-175.946,149.807-224.761c3.698-1.549,7.567,1.39,7.161,5.378
		c-5.762,56.533,28.181,137.468,88.316,137.468c34.472,0,58.058-27.512,69.844-55.142c3.58-8.393,15.843-7.335,17.896,1.556
		C467.697,192.865,523.916,500.44,266.91,500.44z"/>
</g>
<g id="Layer_3">
	<path fill="#FFB636" d="M207.756,330.827c3.968-3.334,9.992-1.046,10.893,4.058c2.108,11.943,9.04,32.468,31.778,32.468
		c27.352,0,45.914-75.264,50.782-97.399c0.801-3.642,4.35-6.115,8.004-5.372c68.355,13.898,101.59,235.858-48.703,235.858
		C151.098,500.44,175.885,357.601,207.756,330.827z M394.537,90.454c2.409-18.842-31.987,32.693-31.987,32.693
		S388.773,135.533,394.537,90.454z M47.963,371.456c0.725-8.021-9.594-29.497-11.421-20.994
		C32.169,370.806,47.238,379.478,47.963,371.456z"/>
</g>
<g id="Layer_4">
	<path fill="#FFD469" d="M323.176,348.596c-2.563-10.69-11.755,14.14-10.6,24.254C313.731,382.963,329.307,374.172,323.176,348.596z
		"/>
</g>
</svg>
