<?xml version="1.0" encoding="iso-8859-1"?>
<!-- Generator: Adobe Illustrator 18.1.0, SVG Export Plug-In . SVG Version: 6.00 Build 0)  -->
<!DOCTYPE svg PUBLIC "-//W3C//DTD SVG 1.1//EN" "http://www.w3.org/Graphics/SVG/1.1/DTD/svg11.dtd">
<svg version="1.1" xmlns="http://www.w3.org/2000/svg" xmlns:xlink="http://www.w3.org/1999/xlink" x="0px" y="0px"
	 viewBox="0 0 512 512" enable-background="new 0 0 512 512" xml:space="preserve">
<g id="Layer_3">
	<path fill="#FF473E" d="M495.212,301.08c-28.708-104.623-121.848-181.503-235.586-181.503S50.99,196.456,22.282,301.08h0.208
		l-0.208,0.208c0,21.244,17.222,38.466,38.466,38.466c13.274,0,24.976-6.723,31.89-16.95c3.823-5.656,12.085-6.118,16.433-0.854
		c9.653,11.685,24.25,19.133,40.591,19.133c18.092,0,34.046-9.129,43.519-23.031c3.87-5.679,12.144-5.87,16.511-0.564
		c11.857,14.406,29.819,23.594,49.935,23.594c19.689,0,37.319-8.801,49.178-22.681c4.397-5.146,12.384-4.638,16.349,0.847
		c9.561,13.226,25.112,21.834,42.68,21.834c16.331,0,30.92-7.438,40.573-19.11c4.34-5.247,12.594-4.79,16.407,0.851
		c6.918,10.231,18.625,16.957,31.906,16.957c21.259,0,38.493-17.234,38.493-38.493l-0.208-0.208H495.212z"/>
</g>
<g id="Layer_1">
</g>
</svg>
