<?xml version="1.0" encoding="iso-8859-1"?>
<!-- Generator: Adobe Illustrator 18.1.0, SVG Export Plug-In . SVG Version: 6.00 Build 0)  -->
<!DOCTYPE svg PUBLIC "-//W3C//DTD SVG 1.1//EN" "http://www.w3.org/Graphics/SVG/1.1/DTD/svg11.dtd">
<svg version="1.1" xmlns="http://www.w3.org/2000/svg" xmlns:xlink="http://www.w3.org/1999/xlink" x="0px" y="0px"
	 viewBox="0 0 512 512" enable-background="new 0 0 512 512" xml:space="preserve">
<g id="Layer_4">
	<path fill="#FF6E83" d="M96.786,319.269c-1.611,0.756-3.062,1.928-4.148,3.535c-6.913,10.227-18.616,16.95-31.89,16.95
		c-21.244,0-38.466-17.222-38.466-38.466l0.208-0.208h-0.208c28.663-104.461,123.313-181.259,236.816-181.497
		c-77.847,0.239-162.34,111.687-162.34,193.272C96.758,315.089,96.768,317.215,96.786,319.269z M495.212,301.08
		c-28.673-104.496-121.623-181.312-235.173-181.498c77.862,0.187,162.395,111.669,162.395,193.273c0,2.611-0.012,5.094-0.036,7.461
		c0.913,0.673,1.737,1.504,2.416,2.508c6.917,10.231,18.625,16.957,31.906,16.957c21.259,0,38.493-17.234,38.493-38.493
		l-0.208-0.208H495.212z M258.941,119.584c-0.154,0-0.308,0.004-0.463,0.005c-26.365,0.518-54.939,111.783-54.939,193.266
		c0,0.334,0.001,0.649,0.001,0.979c2.309,0.44,4.507,1.657,6.152,3.655c11.857,14.406,29.819,23.594,49.934,23.594
		c19.689,0,37.319-8.801,49.178-22.681c1.425-1.668,3.229-2.732,5.149-3.235c0.001-0.766,0.002-1.523,0.002-2.312
		C313.955,231.295,285.327,119.894,258.941,119.584z"/>
</g>
<g id="Layer_1">
</g>
</svg>
