<?xml version="1.0" encoding="iso-8859-1"?>
<!-- Generator: Adobe Illustrator 18.1.0, SVG Export Plug-In . SVG Version: 6.00 Build 0)  -->
<!DOCTYPE svg PUBLIC "-//W3C//DTD SVG 1.1//EN" "http://www.w3.org/Graphics/SVG/1.1/DTD/svg11.dtd">
<svg version="1.1" xmlns="http://www.w3.org/2000/svg" xmlns:xlink="http://www.w3.org/1999/xlink" x="0px" y="0px"
	 viewBox="0 0 512 512" enable-background="new 0 0 512 512" xml:space="preserve">
<g id="Layer_5">
	<path fill="#59CAFC" d="M61.678,81.864l16.711,42.054c4.023,13.266-3.468,27.282-16.737,31.305
		c-13.266,4.026-27.282-3.468-31.309-16.737c-1.498-4.941-1.4-9.976,0-14.568l16.712-42.054c1.222-4.037,5.492-6.315,9.529-5.093
		C59.103,77.537,60.953,79.532,61.678,81.864z M416.931,36.836c-4.037-1.222-8.307,1.056-9.529,5.093L390.69,83.983
		c-1.4,4.592-1.498,9.627,0,14.568c4.026,13.269,18.043,20.764,31.309,16.737c13.269-4.023,20.76-18.039,16.737-31.305
		l-16.711-42.054C421.3,39.597,419.45,37.602,416.931,36.836z M189.113,0.037c-3.878-1.174-7.979,1.014-9.154,4.892l-16.053,40.396
		c-1.345,4.411-1.439,9.248,0,13.994c3.868,12.746,17.332,19.945,30.074,16.077c12.746-3.864,19.942-17.328,16.077-30.071
		L194.006,4.929C193.309,2.689,191.532,0.772,189.113,0.037z"/>
</g>
<g id="Layer_1">
</g>
</svg>
