<?xml version="1.0" encoding="iso-8859-1"?>
<!-- Generator: Adobe Illustrator 18.1.0, SVG Export Plug-In . SVG Version: 6.00 Build 0)  -->
<!DOCTYPE svg PUBLIC "-//W3C//DTD SVG 1.1//EN" "http://www.w3.org/Graphics/SVG/1.1/DTD/svg11.dtd">
<svg version="1.1" xmlns="http://www.w3.org/2000/svg" xmlns:xlink="http://www.w3.org/1999/xlink" x="0px" y="0px"
	 viewBox="0 0 512 512" enable-background="new 0 0 512 512" xml:space="preserve">
<g id="Layer_2">
	<path fill="#597B91" d="M279.034,106.239c-0.374-10.88-9.317-19.621-20.287-19.621c-10.969,0-19.913,8.742-20.287,19.621
		c-0.023,0.23-0.036,0.464-0.036,0.701v18.242c0,3.579,2.749,6.512,6.25,6.814v314.267c0,16.488-13.415,29.902-29.903,29.902
		s-29.903-13.414-29.903-29.902c0-8.258-6.694-14.951-14.951-14.951s-14.951,6.693-14.951,14.951
		c0,32.977,26.829,59.805,59.805,59.805s59.805-26.828,59.805-59.805V131.602c2.619-0.96,4.492-3.468,4.492-6.42v-18.242
		C279.069,106.703,279.057,106.469,279.034,106.239z"/>
</g>
<g id="Layer_1">
</g>
</svg>
