<?xml version="1.0" encoding="iso-8859-1"?>
<!-- Generator: Adobe Illustrator 19.1.0, SVG Export Plug-In . SVG Version: 6.00 Build 0)  -->
<!DOCTYPE svg PUBLIC "-//W3C//DTD SVG 1.1//EN" "http://www.w3.org/Graphics/SVG/1.1/DTD/svg11.dtd">
<svg version="1.1" xmlns="http://www.w3.org/2000/svg" xmlns:xlink="http://www.w3.org/1999/xlink" x="0px" y="0px"
	 viewBox="0 0 512 512" enable-background="new 0 0 512 512" xml:space="preserve">
<g id="Layer_2">
	<path fill="#4C311E" d="M425.325,218.576c-4.277-4.277-11.318-4.277-15.595,0L386,242.195V224.17c0-6.047-4.95-10.95-11-10.95
		c-6.05,0-11,4.903-11,10.95v39.925l-32.282,32.443c-4.277,4.277-4.196,11.207,0.081,15.484c2.138,2.139,4.981,3.208,7.782,3.208
		s5.624-1.069,7.762-3.208l30.457-30.447l27.218,11.484c1.387,0.582,2.838,0.859,4.253,0.859c4.27,0,8.332-2.511,10.098-6.693
		c2.348-5.57-0.263-11.992-5.833-14.347l-19.012-8.017l30.801-30.801C429.602,229.784,429.602,222.854,425.325,218.576z"/>
</g>
<g id="Layer_1">
</g>
</svg>
