<?xml version="1.0" encoding="iso-8859-1"?>
<!-- Generator: Adobe Illustrator 19.1.0, SVG Export Plug-In . SVG Version: 6.00 Build 0)  -->
<!DOCTYPE svg PUBLIC "-//W3C//DTD SVG 1.1//EN" "http://www.w3.org/Graphics/SVG/1.1/DTD/svg11.dtd">
<svg version="1.1" xmlns="http://www.w3.org/2000/svg" xmlns:xlink="http://www.w3.org/1999/xlink" x="0px" y="0px"
	 viewBox="0 0 512 512" enable-background="new 0 0 512 512" xml:space="preserve">
<g id="Layer_6">
	<path fill="#4C311E" d="M195.795,294.969l-39.952-22.575l-10.689-38.463c-1.619-5.826-7.653-9.238-13.482-7.618
		c-5.829,1.62-9.237,7.656-7.618,13.482l4.825,17.363l-29.075-16.429c-5.266-2.976-11.943-1.12-14.919,4.146
		s-1.12,11.943,4.146,14.919l37.133,20.982l-18.049,12.901c-4.923,3.517-6.056,10.358-2.54,15.274
		c2.749,3.851,7.529,5.381,11.839,4.183c1.2-0.333,2.363-0.874,3.435-1.643l26.345-18.833l37.828,21.375
		c2.633,1.488,5.619,1.768,8.318,1.018c2.699-0.75,5.113-2.531,6.6-5.164C202.916,304.621,201.061,297.944,195.795,294.969z"/>
</g>
<g id="Layer_1">
</g>
</svg>
