<?xml version="1.0" encoding="iso-8859-1"?>
<!-- Generator: Adobe Illustrator 19.1.0, SVG Export Plug-In . SVG Version: 6.00 Build 0)  -->
<!DOCTYPE svg PUBLIC "-//W3C//DTD SVG 1.1//EN" "http://www.w3.org/Graphics/SVG/1.1/DTD/svg11.dtd">
<svg version="1.1" xmlns="http://www.w3.org/2000/svg" xmlns:xlink="http://www.w3.org/1999/xlink" x="0px" y="0px"
	 viewBox="0 0 512 512" enable-background="new 0 0 512 512" xml:space="preserve">
<g id="Layer_7">
	<path fill="#FF473E" d="M331.986,212h-87.886c-1.467-6-7.259-11-14.149-11h-7.047c-6.884,0-12.68,5-14.149,11H187.92
		c-8.718,0-15.92,7.496-15.92,16.214v0.582c0,8.718,7.201,16.203,15.92,16.203H208v69.536c0,7.983,6.92,14.464,14.903,14.464h7.047
		c7.99,0,14.05-6.481,14.05-14.464V245h87.986c8.717,0,16.014-7.486,16.014-16.203v-0.582C348,219.496,340.703,212,331.986,212z"/>
</g>
<g id="Layer_1">
</g>
</svg>
