<svg xmlns="http://www.w3.org/2000/svg" viewBox="0 0 512 512" enable-background="new 0 0 512 512"><path fill="#59CAFC" d="M476.674 280.72l-118.887 14.006L288 254.436l69.787-40.292 118.887 14.007c.655.08 1.307.117 1.95.117 8.25 0 15.378-6.176 16.367-14.57 1.068-9.05-5.404-17.252-14.454-18.318l-74.95-8.83 46.692-26.958c7.892-4.556 10.596-14.647 6.04-22.54-4.557-7.89-14.647-10.596-22.54-6.04l-46.692 26.958 29.827-69.323c3.602-8.37-.264-18.076-8.635-21.678-8.368-3.6-18.076.263-21.678 8.634l-47.314 109.963-68.363 39.47V144.45l71.572-95.955c5.45-7.305 3.944-17.643-3.36-23.09-7.305-5.45-17.643-3.945-23.09 3.36l-45.122 60.492V40.892c0-9.113-7.388-16.5-16.5-16.5s-16.5 7.387-16.5 16.5v48.366L194.8 28.765c-5.448-7.305-15.787-8.808-23.09-3.36-7.305 5.448-8.81 15.786-3.36 23.09l71.573 95.956v82.228l-71.21-41.114L121.4 75.604c-3.604-8.37-13.31-12.237-21.68-8.636-8.37 3.602-12.237 13.308-8.635 21.678l29.828 69.323-41.886-24.184c-7.892-4.555-17.983-1.852-22.54 6.04-4.556 7.892-1.853 17.983 6.04 22.54l41.886 24.183-74.95 8.83c-9.05 1.065-15.522 9.266-14.456 18.316.99 8.395 8.116 14.572 16.366 14.57.644 0 1.296-.037 1.95-.114l118.89-14.006L222 254.434l-69.787 40.292L33.326 280.72c-9.053-1.065-17.25 5.405-18.317 14.456-1.068 9.05 5.404 17.25 14.454 18.317l74.95 8.83-41.886 24.182c-7.893 4.556-10.597 14.647-6.04 22.54 3.055 5.293 8.6 8.252 14.304 8.252 2.8 0 5.636-.714 8.234-2.214l41.887-24.183-29.83 69.324c-3.6 8.37.266 18.076 8.636 21.678 2.126.915 4.337 1.348 6.514 1.348 6.393 0 12.478-3.737 15.165-9.982l47.313-109.963 71.21-41.113v80.583L168.35 458.73c-5.448 7.306-3.944 17.644 3.36 23.092 2.962 2.21 6.422 3.275 9.854 3.275 5.03 0 10-2.293 13.24-6.636l45.12-60.49v53.914c0 9.112 7.388 16.5 16.5 16.5s16.5-7.388 16.5-16.5V417.97l45.122 60.49c5.448 7.307 15.788 8.81 23.09 3.36 7.306-5.447 8.81-15.785 3.36-23.09l-71.57-95.955v-78.94l68.362 39.468 47.314 109.963c2.687 6.245 8.77 9.982 15.164 9.982 2.176 0 4.39-.433 6.514-1.348 8.37-3.602 12.236-13.307 8.635-21.678l-29.828-69.324 46.692 26.958c2.597 1.5 5.434 2.214 8.232 2.214 5.702 0 11.25-2.96 14.305-8.253 4.557-7.892 1.853-17.983-6.04-22.54l-46.69-26.956 74.95-8.83c9.05-1.064 15.52-9.266 14.455-18.315-1.068-9.047-9.262-15.52-18.32-14.454z"/></svg>