<?xml version="1.0" encoding="iso-8859-1"?>
<!-- Generator: Adobe Illustrator 18.1.1, SVG Export Plug-In . SVG Version: 6.00 Build 0)  -->
<!DOCTYPE svg PUBLIC "-//W3C//DTD SVG 1.1//EN" "http://www.w3.org/Graphics/SVG/1.1/DTD/svg11.dtd">
<svg version="1.1" xmlns="http://www.w3.org/2000/svg" xmlns:xlink="http://www.w3.org/1999/xlink" x="0px" y="0px"
	 viewBox="0 0 512 512" enable-background="new 0 0 512 512" xml:space="preserve">
<g id="Layer_2">
	<path fill="#597B91" d="M500.951,39.183c0-15.84-12.96-28.8-28.8-28.8H35.636c-14.256,0-25.92,11.664-25.92,25.92v439.394
		c0,14.256,11.664,25.92,25.92,25.92h436.514c15.84,0,28.8-12.96,28.8-28.8V39.183z"/>
</g>
<g id="Layer_3">
	<path fill="#F9F9F7" d="M302.206,423.306h-51.298c-7.158,0-12.96-5.802-12.96-12.96V188.937c0-10.103-11.047-16.321-19.684-11.079
		l-41.355,25.098c-5.983,3.631-13.768,1.856-17.585-4.009l-19.998-30.722c-3.996-6.138-2.115-14.365,4.151-18.158l98.307-59.502
		c2.024-1.225,4.345-1.873,6.711-1.873h53.712c7.158,0,12.96,5.802,12.96,12.96v308.693
		C315.166,417.504,309.364,423.306,302.206,423.306z"/>
</g>
<g id="Layer_4">
	<path fill="#2B5770" d="M475.031,10.383h-0.149v453.166c0,6.6-5.4,12-12,12H9.716v0.149c0,14.256,11.664,25.92,25.92,25.92h439.394
		c14.256,0,25.92-11.664,25.92-25.92V36.303C500.951,22.047,489.287,10.383,475.031,10.383z"/>
</g>
</svg>
