<?xml version="1.0" encoding="iso-8859-1"?>
<!-- Generator: Adobe Illustrator 18.1.1, SVG Export Plug-In . SVG Version: 6.00 Build 0)  -->
<!DOCTYPE svg PUBLIC "-//W3C//DTD SVG 1.1//EN" "http://www.w3.org/Graphics/SVG/1.1/DTD/svg11.dtd">
<svg version="1.1" xmlns="http://www.w3.org/2000/svg" xmlns:xlink="http://www.w3.org/1999/xlink" x="0px" y="0px"
	 viewBox="0 0 512 512" enable-background="new 0 0 512 512" xml:space="preserve">
<g id="Layer_4">
	<path fill="#FFFFFF" d="M393.946,421.282h-68.557c-3.342,0-6.245-2.3-7.009-5.554l-14.086-59.967
		c-0.764-3.254-3.667-5.554-7.009-5.554h-84.469c-3.342,0-6.245,2.3-7.009,5.554l-14.086,59.967
		c-0.764,3.254-3.667,5.554-7.009,5.554h-66.635c-4.831,0-8.292-4.664-6.891-9.288l95.808-316.165
		c0.92-3.036,3.718-5.112,6.891-5.112h84.711c3.176,0,5.976,2.081,6.893,5.121l95.352,316.165
		C402.233,416.625,398.773,421.282,393.946,421.282z M287.058,284.109l-25.191-106.362c-1.753-7.399-12.288-7.383-14.017,0.022
		l-24.841,106.362c-1.055,4.516,2.373,8.837,7.011,8.837h50.032C284.699,292.968,288.129,288.631,287.058,284.109z"/>
</g>
<g id="Layer_1">
</g>
</svg>
