<?xml version="1.0" encoding="iso-8859-1"?>
<!-- Generator: Adobe Illustrator 18.1.1, SVG Export Plug-In . SVG Version: 6.00 Build 0)  -->
<!DOCTYPE svg PUBLIC "-//W3C//DTD SVG 1.1//EN" "http://www.w3.org/Graphics/SVG/1.1/DTD/svg11.dtd">
<svg version="1.1" xmlns="http://www.w3.org/2000/svg" xmlns:xlink="http://www.w3.org/1999/xlink" x="0px" y="0px"
	 viewBox="0 0 512 512" enable-background="new 0 0 512 512" xml:space="preserve">
<g id="Layer_5">
	<path fill="#FFFFFF" d="M285.901,350.014h-31.493c-3.976,0-7.2-3.224-7.2-7.2V166.77c0-3.976,3.224-7.2,7.2-7.2h54.907
		c49.466,0,79.695,20.336,79.695,62.107c0,44.244-31.328,65.13-75.573,65.13h-13.136c-3.976,0-7.2,3.224-7.2,7.2v48.806
		C293.101,346.79,289.877,350.014,285.901,350.014z M309.59,253.831c20.336,0,32.428-8.52,32.428-32.153
		c0-20.062-11.268-29.68-33.253-29.68h-8.464c-3.976,0-7.2,3.224-7.2,7.2v47.433c0,3.976,3.224,7.2,7.2,7.2H309.59z"/>
</g>
<g id="Layer_1">
</g>
</svg>
