<?xml version="1.0" encoding="iso-8859-1"?>
<!-- Generator: Adobe Illustrator 18.1.1, SVG Export Plug-In . SVG Version: 6.00 Build 0)  -->
<!DOCTYPE svg PUBLIC "-//W3C//DTD SVG 1.1//EN" "http://www.w3.org/Graphics/SVG/1.1/DTD/svg11.dtd">
<svg version="1.1" xmlns="http://www.w3.org/2000/svg" xmlns:xlink="http://www.w3.org/1999/xlink" x="0px" y="0px"
	 viewBox="0 0 512 512" enable-background="new 0 0 512 512" xml:space="preserve">
<g id="Layer_5">
	<path fill="#FFFFFF" d="M429.763,189.433l-15.727,16.089c-2.502,2.56-6.527,2.923-9.395,0.781
		c-11.122-8.306-21.568-12.162-36.096-12.162c-28.785,0-49.854,21.366-49.854,72.111c0,53.712,13.948,72.111,42.14,72.111
		c8.357,0,16.103-1.629,23.239-4.717c2.643-1.144,4.359-3.745,4.359-6.625v-34.577c0-3.976-3.224-7.2-7.2-7.2h-12.936
		c-3.596,0-6.641-2.654-7.132-6.216l-2.762-20.023c-0.597-4.327,2.765-8.184,7.132-8.184h63.178c3.976,0,7.2,3.224,7.2,7.2v90.612
		c0,2.513-1.304,4.85-3.451,6.156c-20.264,12.319-45.782,19.482-71.035,19.482c-62.614,0-93.773-37.688-93.773-108.315
		c0-69.44,43.622-107.721,98.226-107.721c26.378,0,46.78,8.275,63.026,20.374C432.404,181.217,432.816,186.31,429.763,189.433z"/>
</g>
<g id="Layer_1">
</g>
</svg>
