<?xml version="1.0" encoding="iso-8859-1"?>
<!-- Generator: Adobe Illustrator 18.1.1, SVG Export Plug-In . SVG Version: 6.00 Build 0)  -->
<!DOCTYPE svg PUBLIC "-//W3C//DTD SVG 1.1//EN" "http://www.w3.org/Graphics/SVG/1.1/DTD/svg11.dtd">
<svg version="1.1" xmlns="http://www.w3.org/2000/svg" xmlns:xlink="http://www.w3.org/1999/xlink" x="0px" y="0px"
	 viewBox="0 0 512 512" enable-background="new 0 0 512 512" xml:space="preserve">
<g id="Layer_7">
	<path fill="#FFFFFF" d="M350.669,357.44c-10.218,0-18.5-8.282-18.5-18.5V125c0-10.217,8.282-18.5,18.5-18.5s18.5,8.283,18.5,18.5
		v213.94C369.169,349.158,360.887,357.44,350.669,357.44z M452.169,361.121V75.172c0-10.217-8.283-18.5-18.5-18.5
		s-18.5,8.283-18.5,18.5v285.949c0,17.373-14.135,31.508-31.508,31.508h-32.992c-10.217,0-18.5,8.283-18.5,18.5
		c0,10.218,8.283,18.5,18.5,18.5h32.992C421.437,429.629,452.169,398.896,452.169,361.121z"/>
</g>
<g id="Layer_1">
</g>
</svg>
