<?xml version="1.0" encoding="iso-8859-1"?>
<!-- Generator: Adobe Illustrator 18.1.1, SVG Export Plug-In . SVG Version: 6.00 Build 0)  -->
<!DOCTYPE svg PUBLIC "-//W3C//DTD SVG 1.1//EN" "http://www.w3.org/Graphics/SVG/1.1/DTD/svg11.dtd">
<svg version="1.1" xmlns="http://www.w3.org/2000/svg" xmlns:xlink="http://www.w3.org/1999/xlink" x="0px" y="0px"
	 viewBox="0 0 512 512" enable-background="new 0 0 512 512" xml:space="preserve">
<g id="Layer_2">
	<path fill="#8866B9" d="M508.333,32.666C508.333,16.35,494.984,3,478.668,3H29.032C14.348,3,2.333,15.015,2.333,29.699v452.602
		C2.333,496.985,14.348,509,29.032,509h449.635c16.316,0,29.666-13.35,29.666-29.666V32.666z"/>
</g>
<g id="Layer_3">
	<path fill="#744DB2" d="M478.668,488.915H29.032c-14.684,0-26.699-12.015-26.699-26.699v20.085
		C2.333,496.985,14.348,509,29.032,509h449.635c16.316,0,29.666-13.35,29.666-29.666v-20.085
		C508.333,475.565,494.984,488.915,478.668,488.915z"/>
</g>
<g id="Layer_4">
	<path fill="#FFFFFF" d="M426.029,408.124H274.5v-52.566h111.278c10.218,0,18.5-8.283,18.5-18.5s-8.282-18.5-18.5-18.5H126.222
		c-10.217,0-18.5,8.283-18.5,18.5s8.283,18.5,18.5,18.5H237.5v52.566H85.971c-10.217,0-18.5,8.283-18.5,18.5s8.283,18.5,18.5,18.5
		h340.059c10.217,0,18.5-8.283,18.5-18.5S436.246,408.124,426.029,408.124z"/>
</g>
<g id="Layer_5">
	<path fill="#FFFFFF" d="M394.529,68.352H274.5v-11c0-10.217-8.283-18.5-18.5-18.5c-10.217,0-18.5,8.283-18.5,18.5v11H116.471
		c-4.912,0-9.622,1.954-13.093,5.43c-3.47,3.476-5.416,8.189-5.407,13.102l0.062,36.988c0.017,10.207,8.296,18.469,18.499,18.469
		c0.011,0,0.021,0,0.032,0c10.217-0.017,18.486-8.314,18.469-18.531l-0.031-18.457h60.377
		c-4.135,38.685-21.196,74.528-49.095,102.426l-19.48,19.48c-7.225,7.225-7.225,18.938,0,26.163
		c3.612,3.612,8.347,5.418,13.082,5.418s9.469-1.806,13.082-5.418l19.48-19.48c19.414-19.414,34.585-42.12,45.092-67.485
		c8.132-19.633,13.147-40.118,15.005-61.104h47.829v92c0,24.538,19.963,44.5,44.5,44.5h31c24.537,0,44.5-19.962,44.5-44.5
		c0-10.217-8.283-18.5-18.5-18.5s-18.5,8.283-18.5,18.5c0,4.136-3.364,7.5-7.5,7.5h-31c-4.136,0-7.5-3.364-7.5-7.5v-92h58.656
		v18.488c0,10.217,8.282,18.5,18.5,18.5s18.5-8.283,18.5-18.5V86.852C413.029,76.634,404.747,68.352,394.529,68.352z"/>
</g>
</svg>
