<?xml version="1.0" encoding="iso-8859-1"?>
<!-- Generator: Adobe Illustrator 18.1.1, SVG Export Plug-In . SVG Version: 6.00 Build 0)  -->
<!DOCTYPE svg PUBLIC "-//W3C//DTD SVG 1.1//EN" "http://www.w3.org/Graphics/SVG/1.1/DTD/svg11.dtd">
<svg version="1.1" xmlns="http://www.w3.org/2000/svg" xmlns:xlink="http://www.w3.org/1999/xlink" x="0px" y="0px"
	 viewBox="0 0 512 512" enable-background="new 0 0 512 512" xml:space="preserve">
<g id="Layer_2">
	<path fill="#00B1FF" d="M508.333,32.666C508.333,16.35,494.984,3,478.668,3H29.032C14.348,3,2.333,15.015,2.333,29.699v452.602
		C2.333,496.985,14.348,509,29.032,509h449.635c16.316,0,29.666-13.35,29.666-29.666V32.666z"/>
</g>
<g id="Layer_3">
	<path fill="#0096D1" d="M478.668,488.915H29.032c-14.684,0-26.699-12.015-26.699-26.699v20.085
		C2.333,496.985,14.348,509,29.032,509h449.635c16.316,0,29.666-13.35,29.666-29.666v-20.085
		C508.333,475.565,494.984,488.915,478.668,488.915z"/>
</g>
<g id="Layer_4">
	<path fill="#FFFFFF" d="M419.582,201.894H369.87v-66.96h49.712c10.218,0,18.5-8.283,18.5-18.5s-8.282-18.5-18.5-18.5H369.87V70.499
		c0-10.217-8.283-18.5-18.5-18.5c-10.218,0-18.5,8.283-18.5,18.5v27.435H185.887V70.499c0-10.217-8.283-18.5-18.5-18.5
		s-18.5,8.283-18.5,18.5v27.435H99.175c-10.217,0-18.5,8.283-18.5,18.5s8.283,18.5,18.5,18.5h49.711v66.96H99.175
		c-10.217,0-18.5,8.283-18.5,18.5s8.283,18.5,18.5,18.5h49.711v70.608c0,10.217,8.283,18.5,18.5,18.5s18.5-8.283,18.5-18.5v-70.608
		H332.87v41.608c0,37.659-5.206,67.214-15.917,90.354c-11.008,23.783-28.292,41.517-52.838,54.214
		c-9.076,4.693-12.627,15.855-7.933,24.931c3.289,6.358,9.75,10.005,16.448,10.005c2.861,0,5.767-0.667,8.483-2.072
		c60.554-31.32,88.757-87.701,88.757-177.432v-41.608h49.712c10.218,0,18.5-8.283,18.5-18.5S429.8,201.894,419.582,201.894z
		 M185.887,201.894v-66.96H332.87v66.96H185.887z"/>
</g>
</svg>
