<?xml version="1.0" encoding="iso-8859-1"?>
<!-- Generator: Adobe Illustrator 18.1.1, SVG Export Plug-In . SVG Version: 6.00 Build 0)  -->
<!DOCTYPE svg PUBLIC "-//W3C//DTD SVG 1.1//EN" "http://www.w3.org/Graphics/SVG/1.1/DTD/svg11.dtd">
<svg version="1.1" xmlns="http://www.w3.org/2000/svg" xmlns:xlink="http://www.w3.org/1999/xlink" x="0px" y="0px"
	 viewBox="0 0 512 512" enable-background="new 0 0 512 512" xml:space="preserve">
<g id="Layer_5">
	<path fill="#FFFFFF" d="M52.559,457.209c-4.109,0-8.244-1.362-11.678-4.161c-7.919-6.455-9.107-18.108-2.651-26.028l39.032-47.886
		c4.494-5.515,11.752-7.966,18.667-6.298l56.782,13.66l23.239-49.099c1.818-3.84,4.902-6.938,8.734-8.771l63.329-30.312
		c7.02-3.362,15.394-1.967,20.948,3.485l32.47,31.88l19.717-72.531c0.604-2.224,1.619-4.314,2.99-6.165l53-71.497
		c4.642-6.261,12.708-8.942,20.177-6.703l18.215,5.462l30.064-83.512c3.461-9.613,14.056-14.601,23.673-11.14
		c9.613,3.46,14.601,14.059,11.14,23.672l-36,100c-3.329,9.249-13.308,14.278-22.721,11.454l-22.559-6.765l-43.189,58.262
		l-27.085,99.636c-1.723,6.338-6.677,11.286-13.015,13.004c-6.337,1.716-13.112-0.055-17.799-4.655l-45.748-44.916l-45.709,21.879
		l-26.861,56.75c-3.747,7.917-12.531,12.126-21.049,10.072l-60.084-14.455l-31.679,38.865
		C63.252,454.883,57.928,457.209,52.559,457.209z"/>
</g>
<g id="Layer_1">
</g>
</svg>
