<?xml version="1.0" encoding="iso-8859-1"?>
<!-- Generator: Adobe Illustrator 19.1.0, SVG Export Plug-In . SVG Version: 6.00 Build 0)  -->
<!DOCTYPE svg PUBLIC "-//W3C//DTD SVG 1.1//EN" "http://www.w3.org/Graphics/SVG/1.1/DTD/svg11.dtd">
<svg version="1.1" xmlns="http://www.w3.org/2000/svg" xmlns:xlink="http://www.w3.org/1999/xlink" x="0px" y="0px"
	 viewBox="0 0 512 512" enable-background="new 0 0 512 512" xml:space="preserve">
<g id="Layer_2">
	<path fill="#132028" d="M104.722,215.315c-1.617,12.88-2.473,26.195-2.473,39.594c0,15.751,1.192,31.291,3.454,46.363
		c5.065,23.213,19.161,42.227,34.078,56.599c8.901-5.622,19.437-8.872,30.743-8.872h13.572C208.446,349,228,368.709,228,393.06
		v86.75c0,16.234-12.974,29.19-29.208,29.19h-14.896c-22.755,0-42.995-10.61-55.997-27.251
		C84.295,442.057,54.641,380.86,44.159,311.347c-0.527-2.713-0.991-5.464-1.375-8.261l0.221-0.031
		c-2.007-15.718-3.061-31.815-3.061-48.153c0-15.674,0.989-31.261,2.89-46.584l-0.05-0.013c0.098-0.715,0.217-1.43,0.324-2.14
		c3.903-30.04,11.374-59.046,22.198-85.561c16.568-40.586,40.57-74.748,69.409-98.699C147.48,9.648,164.802,2,183.896,2h14.896
		C215.026,2,228,15.361,228,31.595v86.75C228,142.696,208.446,162,184.095,162h-13.572c-11.331,0-21.889-3.063-30.802-8.708
		C123.714,168.716,108.671,189.617,104.722,215.315z"/>
</g>
<g id="Layer_3">
	<path fill="#BCBCBC" d="M187.236,233.26c41.522-15.464,168.828-72.337,145.397-181.356c-1.114-5.186,3.823-9.611,8.833-7.87
		L502.422,99.96c2.554,0.888,4.335,3.2,4.534,5.897c2.088,28.189,4.956,181.906-173.958,234.597
		c-1.919,0.565-3.997,0.239-5.662-0.871L185.85,245.245C181.249,242.177,182.054,235.19,187.236,233.26z"/>
</g>
</svg>
