<?xml version="1.0" encoding="iso-8859-1"?>
<!-- Generator: Adobe Illustrator 18.1.1, SVG Export Plug-In . SVG Version: 6.00 Build 0)  -->
<!DOCTYPE svg PUBLIC "-//W3C//DTD SVG 1.1//EN" "http://www.w3.org/Graphics/SVG/1.1/DTD/svg11.dtd">
<svg version="1.1" xmlns="http://www.w3.org/2000/svg" xmlns:xlink="http://www.w3.org/1999/xlink" x="0px" y="0px"
	 viewBox="0 0 512 512" enable-background="new 0 0 512 512" xml:space="preserve">
<g id="Layer_2">
	<path fill="#597B91" d="M500.951,39.183c0-15.84-12.96-28.8-28.8-28.8H35.636c-14.256,0-25.92,11.664-25.92,25.92v439.394
		c0,14.256,11.664,25.92,25.92,25.92h436.514c15.84,0,28.8-12.96,28.8-28.8V39.183z"/>
</g>
<g id="Layer_3">
	<path fill="#2B5770" d="M475.031,10.383h-0.149v453.166c0,6.6-5.4,12-12,12H9.716v0.149c0,14.256,11.664,25.92,25.92,25.92h439.394
		c14.256,0,25.92-11.664,25.92-25.92V36.303C500.951,22.047,489.287,10.383,475.031,10.383z"/>
</g>
<g id="Layer_4">
	<path fill="#F9F9F7" d="M175.472,225.184h-24.767c-3.632,0-6.577-2.945-6.577-6.577v-108.14c0-5.127-5.606-8.282-9.989-5.622
		l-19.81,12.023c-3.036,1.843-6.987,0.942-8.924-2.034l-9.589-14.731c-2.028-3.115-1.073-7.29,2.106-9.214l48.038-29.076
		c1.027-0.622,2.205-0.95,3.405-0.95h26.106c3.632,0,6.577,2.945,6.577,6.577v151.169
		C182.049,222.24,179.104,225.184,175.472,225.184z"/>
</g>
<g id="Layer_5">
	<path fill="#F9F9F7" d="M387.451,104.373c0,23.33-10.358,41.177-51.31,79.53c-4.353,4.077-1.475,11.382,4.489,11.382h42.919
		c3.99,0,7.061,3.525,6.515,7.477l-2.315,16.745c-0.45,3.253-3.231,5.676-6.515,5.676h-94.892c-3.632,0-6.577-2.945-6.577-6.577
		v-18.142c0-1.759,0.708-3.447,1.959-4.683c53.286-52.635,65.861-67.586,65.861-87.52c0-13.126-8.021-21.148-20.905-21.148
		c-10.223,0-17.759,3.939-25.684,12.433c-2.339,2.507-6.22,2.789-8.9,0.651l-12.691-10.125c-2.932-2.339-3.356-6.687-0.846-9.474
		c12.795-14.213,30.074-23.139,52.011-23.139C367.518,57.459,387.451,78.85,387.451,104.373z"/>
</g>
<g id="Layer_6">
	<path fill="#F9F9F7" d="M201.98,307.135c0,14.277-5.964,25.145-16.599,32.261c-4.219,2.823-3.822,9.201,0.766,11.372
		c12.55,5.94,21.424,17.515,21.424,36.34c0,27.225-22.121,50.317-62.958,50.317c-22.239,0-39.493-7.288-52.1-19.99
		c-2.616-2.635-2.612-6.885,0.074-9.449l12.088-11.538c2.511-2.397,6.455-2.426,9.002-0.067c8.635,8,17.68,11.389,28.507,11.389
		c14.827,0,25.523-8.508,25.523-23.579c0-16.773-9.481-23.336-26.739-23.336h-6.115c-4.056,0-7.146-3.636-6.49-7.639l2.223-13.585
		c0.52-3.18,3.268-5.515,6.49-5.515h3.892c14.341,0,23.336-7.779,23.336-21.148c0-11.91-8.507-18.717-21.635-18.717
		c-10.292,0-19.016,3.487-27.352,10.165c-2.65,2.123-6.505,1.794-8.832-0.678L96.04,292.641c-2.637-2.802-2.298-7.238,0.693-9.658
		c14.211-11.496,30.925-17.413,50.312-17.413C182.778,265.569,201.98,284.043,201.98,307.135z"/>
</g>
<g id="Layer_7">
	<path fill="#F9F9F7" d="M341.918,283.373l-32.912,76.324c-1.872,4.341,1.311,9.181,6.039,9.181h13.783
		c3.346,0,6.159-2.512,6.535-5.837l3.054-26.976c0.376-3.325,3.189-5.837,6.535-5.837h21.094c3.632,0,6.577,2.945,6.577,6.577
		v25.497c0,3.632,2.945,6.577,6.577,6.577h5.32c3.632,0,6.577,2.945,6.577,6.577v16.016c0,3.632-2.945,6.577-6.577,6.577h-5.32
		c-3.632,0-6.577,2.945-6.577,6.577v22.093c0,3.632-2.945,6.577-6.577,6.577h-25.01c-3.632,0-6.577-2.945-6.577-6.577v-22.093
		c0-3.632-2.945-6.577-6.577-6.577h-56.366c-3.632,0-6.577-2.945-6.577-6.577v-18.064c0-0.903,0.186-1.797,0.547-2.625
		l43.648-100.254c1.39-3.194,5.03-4.749,8.299-3.548l20.715,7.616C341.691,275.898,343.413,279.907,341.918,283.373z"/>
</g>
</svg>
