<?xml version="1.0" encoding="iso-8859-1"?>
<!-- Generator: Adobe Illustrator 18.1.1, SVG Export Plug-In . SVG Version: 6.00 Build 0)  -->
<!DOCTYPE svg PUBLIC "-//W3C//DTD SVG 1.1//EN" "http://www.w3.org/Graphics/SVG/1.1/DTD/svg11.dtd">
<svg version="1.1" xmlns="http://www.w3.org/2000/svg" xmlns:xlink="http://www.w3.org/1999/xlink" x="0px" y="0px"
	 viewBox="0 0 512 512" enable-background="new 0 0 512 512" xml:space="preserve">
<g id="Layer_2">
	<path fill="#2B3B47" d="M112.043,344.882L102.407,356c-1.241,1.432-3.366,1.635-4.89,0.51c-7.717-5.695-15.686-8.477-24.826-8.477
		c-10.371,0-16.921,4.366-16.921,12.19c0,8.006,4.913,11.099,24.562,17.285c23.835,7.642,37.481,17.648,37.481,40.938
		c0,23.471-18.922,39.846-50.399,39.846c-20.019,0-34.838-6.73-45.156-15.563c-1.523-1.304-1.634-3.625-0.29-5.113l10.541-11.67
		c1.288-1.426,3.453-1.568,4.955-0.368c8.286,6.621,17.698,10.335,29.041,10.335c12.372,0,19.832-5.641,19.832-15.283
		c0-9.279-4.73-13.282-22.925-18.923c-28.383-8.733-38.572-20.378-38.572-39.118c0-22.379,19.286-36.753,45.668-36.753
		c17.769,0,30.595,4.942,41.183,13.972C113.2,341.096,113.342,343.383,112.043,344.882z"/>
</g>
<g id="Layer_1">
</g>
</svg>
