<?xml version="1.0" encoding="iso-8859-1"?>
<!-- Generator: Adobe Illustrator 19.1.0, SVG Export Plug-In . SVG Version: 6.00 Build 0)  -->
<!DOCTYPE svg PUBLIC "-//W3C//DTD SVG 1.1//EN" "http://www.w3.org/Graphics/SVG/1.1/DTD/svg11.dtd">
<svg version="1.1" xmlns="http://www.w3.org/2000/svg" xmlns:xlink="http://www.w3.org/1999/xlink" x="0px" y="0px"
	 viewBox="0 0 512 512" enable-background="new 0 0 512 512" xml:space="preserve">
<g id="Layer_6">
	<path fill="#332A23" d="M279,78.245V78h-39v0.006c-88,0.249-116,58.563-116,113.056c0,54.61,0,38.892,0,63.124
		c0,9.729,9.304,14.298,11.041,4.078c2.414-14.2,1.592-82.171,13.436-102.233c6.484-10.982,21.065,7.195,32.053,16.601
		c22.244,19.041,147.441,41.419,136.746,28.339c-3.628-4.437-7.401-9.411-11.241-14.746c45.521,13.369,64.684,38.602,68.402,68.347
		c1.654,13.235,13.562,11.619,13.562,0.102c0-27.556,0-9.62,0-59.511C388,146.996,361,82.635,279,78.245z"/>
</g>
<g id="Layer_1">
</g>
</svg>
