<?xml version="1.0" encoding="iso-8859-1"?>
<!-- Generator: Adobe Illustrator 18.1.1, SVG Export Plug-In . SVG Version: 6.00 Build 0)  -->
<!DOCTYPE svg PUBLIC "-//W3C//DTD SVG 1.1//EN" "http://www.w3.org/Graphics/SVG/1.1/DTD/svg11.dtd">
<svg version="1.1" xmlns="http://www.w3.org/2000/svg" xmlns:xlink="http://www.w3.org/1999/xlink" x="0px" y="0px"
	 viewBox="0 0 512 512" enable-background="new 0 0 512 512" xml:space="preserve">
<g id="Layer_5">
	<path fill="#8B8D8E" d="M129.461,499.277c-29.267,0-58.533-11.14-80.813-33.419c-44.56-44.561-44.56-117.066,0-161.627
		l70.465-70.464l40.79,40.791l-70.465,70.465c-22.068,22.068-22.068,57.977,0,80.045c11.033,11.033,25.53,16.55,40.022,16.551
		c14.496,0.002,28.987-5.516,40.023-16.551l97.892-97.893c10.69-10.69,16.578-24.904,16.578-40.022s-5.887-29.332-16.578-40.022
		l40.791-40.791c44.561,44.561,44.561,117.066,0,161.626l-97.892,97.893C187.994,488.138,158.728,499.277,129.461,499.277z"/>
</g>
<g id="Layer_1">
</g>
</svg>
