<?xml version="1.0" encoding="iso-8859-1"?>
<!-- Generator: Adobe Illustrator 18.1.1, SVG Export Plug-In . SVG Version: 6.00 Build 0)  -->
<!DOCTYPE svg PUBLIC "-//W3C//DTD SVG 1.1//EN" "http://www.w3.org/Graphics/SVG/1.1/DTD/svg11.dtd">
<svg version="1.1" xmlns="http://www.w3.org/2000/svg" xmlns:xlink="http://www.w3.org/1999/xlink" x="0px" y="0px"
	 viewBox="0 0 512 512" enable-background="new 0 0 512 512" xml:space="preserve">
<g id="Layer_2">
	<path fill="#2B3B47" d="M464.645,338.256l-82.599,124.51c-4.099,6.178-13.171,6.178-17.269,0l-82.599-124.51
		c-4.569-6.888,0.369-16.09,8.635-16.09h50.648V147.604c0-39.178-31.874-71.052-71.052-71.052h-28.818
		c-17.646,0-31.951-14.304-31.951-31.95c0-17.646,14.305-31.951,31.951-31.951h28.818c74.413,0,134.952,60.54,134.952,134.953
		v174.562h50.649C464.276,322.166,469.214,331.368,464.645,338.256z M270.409,435.449h-28.818
		c-39.178,0-71.052-31.874-71.052-71.053V189.834h50.648c8.265,0,13.204-9.202,8.635-16.09l-82.599-124.51
		c-4.099-6.178-13.171-6.178-17.269,0l-82.599,124.51c-4.569,6.888,0.369,16.09,8.635,16.09h50.648v187.419
		c0,4.179,0.811,8.167,2.27,11.826c11.63,62.667,66.699,110.271,132.683,110.271h28.818c17.646,0,31.95-14.305,31.95-31.95
		S288.055,435.449,270.409,435.449z"/>
</g>
<g id="Layer_1">
</g>
</svg>
