<?xml version="1.0" encoding="iso-8859-1"?>
<!-- Generator: Adobe Illustrator 19.1.0, SVG Export Plug-In . SVG Version: 6.00 Build 0)  -->
<!DOCTYPE svg PUBLIC "-//W3C//DTD SVG 1.1//EN" "http://www.w3.org/Graphics/SVG/1.1/DTD/svg11.dtd">
<svg version="1.1" xmlns="http://www.w3.org/2000/svg" xmlns:xlink="http://www.w3.org/1999/xlink" x="0px" y="0px"
	 viewBox="0 0 512 512" enable-background="new 0 0 512 512" xml:space="preserve">
<g id="Layer_2">
	<path fill="#48677E" d="M292.834,280.647c-2.18,4.06-0.658,9.124,3.415,11.305c4.577,2.457,13.948,4.158,20.393,5.094
		c3.623,0.526,6.089,4.226,5.041,7.734c-10.601,35.504-41.8,50.113-82.55,55.398v25.865c52.399,4.923,93.405,49.025,93.405,102.711
		v0c0,9.525-7.721,17.246-17.246,17.246H59.747c-9.525,0-17.246-7.721-17.246-17.246v0c0-53.686,41.006-97.789,93.405-102.711
		v-34.758c-32.099-15.025-52.555-42.885-65.593-72.295c-1.909,0.367-3.115,0.417-3.408,0.103
		c-19.506-20.89-38.863-74.881-38.863-128.64c0-53.76,36.755-147.634,137.924-147.634c58.21,0,139.255,13.239,141.821,15.35
		c2.587,2.128-5.389,18.791-2.83,21.231c5.335,5.086,10.637,10.871,16.016,17.45c4.545,5.558-1.443,8.837-21.675,10.114
		c18.337,19.668,28.944,46.551,28.944,80.468l-0.372,18.779l0.004-0.008c-0.002,0.001-0.002,0.007-0.004,0.01l-0.006,0.295
		c0.464,3.721,12.114,40.293,19.704,56.085c8.582,17.858-2.743,21.798-21.257,22.374l-0.602,30.426
		c0,5.576-16.126,4.762-21.571,1.844C300.019,275.053,294.979,276.599,292.834,280.647z M373.47,253.309l91.264-42.482
		c1.801-0.856,2.426-3.108,1.326-4.771l-14.046-21.22c-1.1-1.663-3.418-1.966-4.91-0.644l-75.219,66.701
		C370.626,252.01,371.944,254.019,373.47,253.309z M372.263,315.623l73.979,66.62c1.494,1.323,3.814,1.016,4.912-0.651
		l13.992-21.242c1.098-1.667,0.465-3.919-1.341-4.77l-89.943-42.363C372.342,312.501,371.014,314.499,372.263,315.623z
		 M375.422,285.052l112.456,14.619c1.962,0.255,3.702-1.273,3.702-3.251v-25.535c0-1.979-1.739-3.507-3.702-3.251l-112.456,14.619
		C373.782,282.466,373.782,284.839,375.422,285.052z"/>
</g>
<g id="Layer_1">
</g>
</svg>
