<?xml version="1.0" encoding="iso-8859-1"?>
<!-- Generator: Adobe Illustrator 19.1.0, SVG Export Plug-In . SVG Version: 6.00 Build 0)  -->
<!DOCTYPE svg PUBLIC "-//W3C//DTD SVG 1.1//EN" "http://www.w3.org/Graphics/SVG/1.1/DTD/svg11.dtd">
<svg version="1.1" xmlns="http://www.w3.org/2000/svg" xmlns:xlink="http://www.w3.org/1999/xlink" x="0px" y="0px"
	 viewBox="0 0 512 512" enable-background="new 0 0 512 512" xml:space="preserve">
<g id="Layer_2">
	<path fill="#16AFE4" d="M306.854,288.488L262.072,21.011c-0.662-3.955-6.345-3.955-7.007,0l-44.782,267.477
		c-0.363,2.166,1.307,4.139,3.504,4.139h89.563C305.546,292.627,307.216,290.654,306.854,288.488z"/>
</g>
<g id="Layer_3">
	<path fill="#16AFE4" d="M494.074,203.038L351.462,19.438c-2.392-3.079-7.28-0.614-6.226,3.14l62.855,223.821
		c0.604,2.153,3.023,3.218,5.02,2.211l79.756-40.22C494.864,207.383,495.445,204.804,494.074,203.038z"/>
</g>
<g id="Layer_4">
	<path fill="#16AFE4" d="M109.045,246.398L171.9,22.578c1.054-3.754-3.834-6.219-6.226-3.14L23.063,203.038
		c-1.372,1.766-0.79,4.344,1.206,5.351l79.756,40.22C106.021,249.616,108.44,248.551,109.045,246.398z"/>
</g>
</svg>
