<?xml version="1.0" encoding="iso-8859-1"?>
<!-- Generator: Adobe Illustrator 19.1.0, SVG Export Plug-In . SVG Version: 6.00 Build 0)  -->
<!DOCTYPE svg PUBLIC "-//W3C//DTD SVG 1.1//EN" "http://www.w3.org/Graphics/SVG/1.1/DTD/svg11.dtd">
<svg version="1.1" xmlns="http://www.w3.org/2000/svg" xmlns:xlink="http://www.w3.org/1999/xlink" x="0px" y="0px"
	 viewBox="0 0 512 512" enable-background="new 0 0 512 512" xml:space="preserve">
<g id="Layer_2">
	<path fill="#597B91" d="M505.261,448.199h-55.373c-3.126,0-5.841-2.151-6.556-5.194l-11.435-48.682
		c-0.715-3.043-3.43-5.194-6.556-5.194h-69.014c-3.126,0-5.841,2.151-6.556,5.194l-11.435,48.682
		c-0.715,3.043-3.43,5.194-6.556,5.194h-53.776c-4.519,0-7.755-4.363-6.445-8.687l79.173-261.269
		c0.86-2.839,3.478-4.781,6.445-4.781h69.29c2.97,0,5.59,1.946,6.447,4.79l78.795,261.269
		C513.012,443.843,509.776,448.199,505.261,448.199z M417.218,333.269l-19.983-84.371c-1.639-6.921-11.493-6.905-13.111,0.02
		l-19.705,84.371c-0.987,4.224,2.22,8.266,6.558,8.266h39.688C415.011,341.555,418.219,337.499,417.218,333.269z"/>
</g>
<g id="Layer_1">
</g>
</svg>
