<?xml version="1.0" encoding="iso-8859-1"?>
<!-- Generator: Adobe Illustrator 18.1.1, SVG Export Plug-In . SVG Version: 6.00 Build 0)  -->
<!DOCTYPE svg PUBLIC "-//W3C//DTD SVG 1.1//EN" "http://www.w3.org/Graphics/SVG/1.1/DTD/svg11.dtd">
<svg version="1.1" xmlns="http://www.w3.org/2000/svg" xmlns:xlink="http://www.w3.org/1999/xlink" x="0px" y="0px"
	 viewBox="0 0 512 512" enable-background="new 0 0 512 512" xml:space="preserve">
<g id="Layer_5">
	<path fill="#2B3B47" d="M404.18,295.566c49.312,0,95.708,15.112,95.708,90.937c0,73.968-44.539,92.791-91.731,92.791h-48.276
		c-4.086,0-7.399-3.313-7.399-7.399v-168.93c0-4.086,3.313-7.399,7.399-7.399H404.18z M396.756,334.78v105.301
		c0,4.086,3.313,7.399,7.399,7.399h6.918c25.982,0,43.215-12.461,43.215-60.977c0-49.047-18.293-59.122-43.745-59.122h-6.388
		C400.069,327.381,396.756,330.693,396.756,334.78z"/>
</g>
<g id="Layer_1">
</g>
</svg>
