<?xml version="1.0" encoding="iso-8859-1"?>
<!-- Generator: Adobe Illustrator 18.1.1, SVG Export Plug-In . SVG Version: 6.00 Build 0)  -->
<!DOCTYPE svg PUBLIC "-//W3C//DTD SVG 1.1//EN" "http://www.w3.org/Graphics/SVG/1.1/DTD/svg11.dtd">
<svg version="1.1" xmlns="http://www.w3.org/2000/svg" xmlns:xlink="http://www.w3.org/1999/xlink" x="0px" y="0px"
	 viewBox="0 0 512 512" enable-background="new 0 0 512 512" xml:space="preserve">
<g id="Layer_2">
	<path fill="#2B3B47" d="M216.024,388.969c0,61.038-31.46,97.876-84.163,97.876c-52.434,0-83.894-35.763-83.894-97.876
		c0-60.77,31.46-97.876,83.894-97.876C184.564,291.093,216.024,326.586,216.024,388.969z M94.486,388.969
		c0,47.056,13.175,65.34,37.375,65.34c25.007,0,37.645-18.284,37.645-65.34c0-46.787-12.638-65.071-37.645-65.071
		C107.393,323.897,94.486,342.182,94.486,388.969z"/>
</g>
<g id="Layer_3">
	<path fill="#2B3B47" d="M378.766,482.273h-44.52c-3.014,0-5.709-1.878-6.754-4.705l-32.118-86.945
		c-2.854-7.725-14.319-5.386-13.945,2.841c0.299,6.575,0.476,13.584,0.476,21.047v60.561c0,3.976-3.224,7.2-7.2,7.2H249.04
		c-3.976,0-7.2-3.224-7.2-7.2V303.133c0-3.976,3.224-7.2,7.2-7.2h43.485c2.994,0,5.676,1.853,6.735,4.654l33.011,87.324
		c2.895,7.658,14.257,5.317,13.927-2.864c-0.19-4.713-0.297-9.596-0.297-14.631v-67.282c0-3.976,3.224-7.2,7.2-7.2h25.664
		c3.976,0,7.2,3.224,7.2,7.2v171.941C385.966,479.05,382.742,482.273,378.766,482.273z"/>
</g>
<g id="Layer_4">
	<path fill="#2B3B47" d="M459.643,462.376c0,13.444-10.756,24.469-24.47,24.469c-13.713,0-24.469-11.024-24.469-24.469
		c0-13.445,10.756-24.47,24.469-24.47C448.887,437.906,459.643,448.931,459.643,462.376z M445.52,413.438h-20.946
		c-3.848,0-7.017-3.026-7.192-6.871l-4.719-103.105c-0.188-4.101,3.087-7.529,7.192-7.529h30.62c4.112,0,7.389,3.438,7.192,7.546
		l-4.955,103.105C452.527,410.421,449.362,413.438,445.52,413.438z"/>
</g>
<g id="Layer_5">
	<path fill="#2B3B47" d="M483.568,122.227L346.984,31.617c-7.556-5.012-17.65,0.405-17.65,9.472v53.01H182.666v-53.01
		c0-9.067-10.095-14.484-17.65-9.472L28.432,122.226c-6.777,4.496-6.777,14.448,0,18.944l136.584,90.609
		c7.555,5.012,17.65-0.405,17.65-9.472v-53.01h146.667v53.01c0,9.067,10.095,14.484,17.65,9.472l136.584-90.609
		C490.345,136.674,490.345,126.723,483.568,122.227z"/>
</g>
</svg>
