<?xml version="1.0" encoding="iso-8859-1"?>
<!-- Generator: Adobe Illustrator 18.1.1, SVG Export Plug-In . SVG Version: 6.00 Build 0)  -->
<!DOCTYPE svg PUBLIC "-//W3C//DTD SVG 1.1//EN" "http://www.w3.org/Graphics/SVG/1.1/DTD/svg11.dtd">
<svg version="1.1" xmlns="http://www.w3.org/2000/svg" xmlns:xlink="http://www.w3.org/1999/xlink" x="0px" y="0px"
	 viewBox="0 0 512 512" enable-background="new 0 0 512 512" xml:space="preserve">
<g id="Layer_7">
	<path fill="#F9F9F7" d="M341.918,283.373l-32.912,76.324c-1.872,4.341,1.311,9.181,6.039,9.181h13.783
		c3.346,0,6.159-2.512,6.535-5.837l3.054-26.976c0.376-3.325,3.189-5.837,6.535-5.837h21.094c3.632,0,6.577,2.945,6.577,6.577
		v25.497c0,3.632,2.945,6.577,6.577,6.577h5.32c3.632,0,6.577,2.945,6.577,6.577v16.016c0,3.632-2.945,6.577-6.577,6.577h-5.32
		c-3.632,0-6.577,2.945-6.577,6.577v22.093c0,3.632-2.945,6.577-6.577,6.577h-25.01c-3.632,0-6.577-2.945-6.577-6.577v-22.093
		c0-3.632-2.945-6.577-6.577-6.577h-56.366c-3.632,0-6.577-2.945-6.577-6.577v-18.064c0-0.903,0.186-1.797,0.547-2.625
		l43.648-100.254c1.39-3.194,5.03-4.749,8.299-3.548l20.715,7.616C341.691,275.898,343.413,279.907,341.918,283.373z"/>
</g>
<g id="Layer_1">
</g>
</svg>
