<?xml version="1.0" encoding="iso-8859-1"?>
<!-- Generator: Adobe Illustrator 18.1.1, SVG Export Plug-In . SVG Version: 6.00 Build 0)  -->
<!DOCTYPE svg PUBLIC "-//W3C//DTD SVG 1.1//EN" "http://www.w3.org/Graphics/SVG/1.1/DTD/svg11.dtd">
<svg version="1.1" xmlns="http://www.w3.org/2000/svg" xmlns:xlink="http://www.w3.org/1999/xlink" x="0px" y="0px"
	 viewBox="0 0 512 512" enable-background="new 0 0 512 512" xml:space="preserve">
<g id="Layer_4">
	<path fill="#F9F9F7" d="M450.79,359.432l-106.461-70.626c-5.889-3.907-13.758,0.316-13.758,7.383v46.042
		c-33.378,0-64.104-19.525-78.28-49.745L203.228,187.89c-22.235-47.403-70.435-78.032-122.793-78.032
		c-13.577,0-24.583,11.006-24.583,24.583s11.006,24.583,24.583,24.583c33.378,0,64.105,19.526,78.28,49.745l49.063,104.596
		c22.236,47.402,70.435,78.032,122.793,78.032v46.042c0,7.067,7.868,11.29,13.758,7.383l106.461-70.626
		C456.072,370.693,456.072,362.936,450.79,359.432z"/>
</g>
<g id="Layer_1">
</g>
</svg>
