<?xml version="1.0" encoding="iso-8859-1"?>
<!-- Generator: Adobe Illustrator 18.1.1, SVG Export Plug-In . SVG Version: 6.00 Build 0)  -->
<!DOCTYPE svg PUBLIC "-//W3C//DTD SVG 1.1//EN" "http://www.w3.org/Graphics/SVG/1.1/DTD/svg11.dtd">
<svg version="1.1" xmlns="http://www.w3.org/2000/svg" xmlns:xlink="http://www.w3.org/1999/xlink" x="0px" y="0px"
	 viewBox="0 0 512 512" enable-background="new 0 0 512 512" xml:space="preserve">
<g id="Layer_3">
	<path fill="#2B3B47" d="M148.865,343.095h-27.027c-5.22,0-9.451,4.231-9.451,9.451v130.083c0,5.22-4.231,9.451-9.451,9.451H78.143
		c-5.22,0-9.451-4.231-9.451-9.451V352.546c0-5.22-4.231-9.451-9.451-9.451H31.289c-5.22,0-9.451-4.231-9.451-9.451v-14.527
		c0-5.22,4.231-9.451,9.451-9.451h119.52c5.718,0,10.126,5.038,9.367,10.705l-1.944,14.527
		C157.604,339.591,153.6,343.095,148.865,343.095z"/>
</g>
<g id="Layer_1">
</g>
</svg>
