<?xml version="1.0" encoding="iso-8859-1"?>
<!-- Generator: Adobe Illustrator 19.1.0, SVG Export Plug-In . SVG Version: 6.00 Build 0)  -->
<!DOCTYPE svg PUBLIC "-//W3C//DTD SVG 1.1//EN" "http://www.w3.org/Graphics/SVG/1.1/DTD/svg11.dtd">
<svg version="1.1" xmlns="http://www.w3.org/2000/svg" xmlns:xlink="http://www.w3.org/1999/xlink" x="0px" y="0px"
	 viewBox="0 0 512 512" enable-background="new 0 0 512 512" xml:space="preserve">
<g id="Layer_2">
	<path fill="#597B91" d="M491.535,121.688v360.878c0,14.635-11.864,26.499-26.499,26.499s-26.499-11.864-26.499-26.499V303.006
		c-87.564,12.865-155.002,88.481-155.002,179.561c0,14.635-11.864,26.499-26.499,26.499s-26.499-11.864-26.499-26.499
		c0-91.08-67.438-166.695-155.002-179.561v179.561c0,14.635-11.864,26.499-26.499,26.499s-26.499-11.864-26.499-26.499V121.688
		c0-14.635,11.864-26.499,26.499-26.499s26.499,11.864,26.499,26.499v127.868c52.611,5.88,101.333,29.212,139.316,67.195
		c17.129,17.129,31.268,36.449,42.185,57.318c10.917-20.868,25.055-40.188,42.185-57.318
		c37.983-37.983,86.705-61.314,139.316-67.195V121.688c0-14.635,11.864-26.499,26.499-26.499S491.535,107.053,491.535,121.688z
		 M136.743,84.429c34.881-61.044,72.037-49.896,140.132-23.079c17.292,6.81,35.174,13.852,53.841,19.216
		c9.284,2.667,18.983-2.696,21.652-11.986c2.669-9.289-2.697-18.983-11.986-21.653c-17.062-4.903-34.153-11.634-50.683-18.143
		c-32.912-12.961-63.989-25.193-94.838-23.948c-36.478,1.486-65.428,21.841-88.507,62.228c-4.795,8.392-1.88,19.082,6.512,23.877
		c2.739,1.565,5.723,2.309,8.666,2.309C127.607,93.25,133.512,90.082,136.743,84.429z"/>
</g>
<g id="Layer_3">
	<path fill="#597B91" d="M221.548,263.325c-9.665,0-17.5-7.835-17.5-17.5V115.683c0-9.665,7.835-17.5,17.5-17.5
		s17.5,7.835,17.5,17.5v130.142C239.048,255.49,231.213,263.325,221.548,263.325z"/>
</g>
<g id="Layer_4">
	<path fill="#597B91" d="M282.92,214.439h-61.372c-9.665,0-17.5-7.835-17.5-17.5v-81.256c0-9.665,7.835-17.5,17.5-17.5h61.372
		c32.052,0,58.128,26.076,58.128,58.128C341.048,188.363,314.972,214.439,282.92,214.439z M239.048,179.439h43.872
		c12.753,0,23.128-10.375,23.128-23.128s-10.375-23.128-23.128-23.128h-43.872V179.439z"/>
</g>
</svg>
