<?xml version="1.0" encoding="iso-8859-1"?>
<!-- Generator: Adobe Illustrator 19.1.0, SVG Export Plug-In . SVG Version: 6.00 Build 0)  -->
<!DOCTYPE svg PUBLIC "-//W3C//DTD SVG 1.1//EN" "http://www.w3.org/Graphics/SVG/1.1/DTD/svg11.dtd">
<svg version="1.1" xmlns="http://www.w3.org/2000/svg" xmlns:xlink="http://www.w3.org/1999/xlink" x="0px" y="0px"
	 viewBox="0 0 512 512" enable-background="new 0 0 512 512" xml:space="preserve">
<g id="Layer_9">
	<path fill="#FF5850" d="M255.688,8.603c-137.773,0-249.46,111.687-249.46,249.46s111.687,249.46,249.46,249.46
		s249.46-111.687,249.46-249.46S393.461,8.603,255.688,8.603z M41.229,258.063c0-28.967,5.665-57.05,16.839-83.467
		c10.8-25.534,26.268-48.472,45.975-68.179c19.707-19.707,42.646-35.175,68.179-45.975c26.417-11.174,54.499-16.839,83.467-16.839
		s57.05,5.665,83.467,16.839c20.152,8.524,38.679,19.967,55.285,34.095L92.162,396.814c-14.128-16.606-25.571-35.133-34.095-55.285
		C46.894,315.112,41.229,287.03,41.229,258.063z M407.334,409.708c-19.707,19.707-42.646,35.175-68.179,45.975
		c-26.417,11.174-54.499,16.839-83.467,16.839s-57.05-5.665-83.467-16.839c-20.163-8.528-38.7-19.98-55.313-34.119L419.19,119.283
		c14.139,16.613,25.59,35.15,34.119,55.313c11.174,26.417,16.839,54.499,16.839,83.467s-5.665,57.049-16.839,83.467
		C442.509,367.063,427.041,390.001,407.334,409.708z"/>
</g>
<g id="Layer_1">
</g>
</svg>
