<?xml version="1.0" encoding="iso-8859-1"?>
<!-- Generator: Adobe Illustrator 19.1.0, SVG Export Plug-In . SVG Version: 6.00 Build 0)  -->
<!DOCTYPE svg PUBLIC "-//W3C//DTD SVG 1.1//EN" "http://www.w3.org/Graphics/SVG/1.1/DTD/svg11.dtd">
<svg version="1.1" xmlns="http://www.w3.org/2000/svg" xmlns:xlink="http://www.w3.org/1999/xlink" x="0px" y="0px"
	 viewBox="0 0 512 512" enable-background="new 0 0 512 512" xml:space="preserve">
<g id="Layer_2">
	<path fill="#AF773F" d="M288.333,228.554H170.712c-4.089,0-7.403-3.314-7.403-7.403V103.53c0-4.089,3.314-7.403,7.403-7.403
		h117.621c4.089,0,7.403,3.314,7.403,7.403v117.621C295.736,225.239,292.422,228.554,288.333,228.554z"/>
</g>
<g id="Layer_3">
	<path fill="#332A23" d="M242.54,151.116h-26.036c-5.319,0-9.631-4.312-9.631-9.631v0c0-5.319,4.312-9.631,9.631-9.631h26.036
		c5.319,0,9.631,4.312,9.631,9.631v0C252.172,146.803,247.86,151.116,242.54,151.116z"/>
</g>
<g id="Layer_4">
	<path fill="#E5AA6E" d="M245.131,115.606c0,1.655-1.342,2.997-2.997,2.997h-25.223c-1.655,0-2.997-1.342-2.997-2.997V96.127h31.217
		V115.606z M213.914,228.554h31.217v-19.479c0-1.655-1.342-2.997-2.997-2.997h-25.223c-1.655,0-2.997,1.342-2.997,2.997V228.554z"/>
</g>
<g id="Layer_5">
	<rect x="120.26" y="308.108" fill="#1C4C5A" width="216.671" height="33.452"/>
</g>
<g id="Layer_6">
	<path fill="#ADB8BC" d="M511.122,243.775c-4.631,16.191-19.199,45.181-64.103,45.334v0.402H120.26v-28.807h320.436l-5.795-27.559
		h68.18C508.625,233.144,512.647,238.444,511.122,243.775z M336.931,360.159H120.26v28.807h216.671V360.159z"/>
</g>
<g id="Layer_7">
	<path fill="#ADB8BC" d="M153.259,218.738h-21.671c-5.55,0-10.05-4.499-10.05-10.05v-50.704c0-5.55,4.499-10.05,10.05-10.05h21.671
		c5.55,0,10.05,4.499,10.05,10.05v50.704C163.309,214.238,158.81,218.738,153.259,218.738z M337.701,208.688v-50.704
		c0-5.55-4.499-10.05-10.05-10.05H305.98c-5.55,0-10.05,4.499-10.05,10.05v50.704c0,5.55,4.499,10.05,10.05,10.05h21.671
		C333.201,218.738,337.701,214.238,337.701,208.688z"/>
</g>
<g id="Layer_8">
	<rect x="23.031" y="153.638" fill="#819096" width="23.26" height="270.955"/>
</g>
<g id="Layer_9">
	<path fill="#ADB8BC" d="M60.213,153.638c0,14.112-11.44,25.552-25.552,25.552S9.109,167.75,9.109,153.638
		c0-14.112,11.44-25.552,25.552-25.552S60.213,139.526,60.213,153.638z M34.661,399.041c-14.112,0-25.552,11.44-25.552,25.552
		c0,14.112,11.44,25.552,25.552,25.552s25.552-11.44,25.552-25.552C60.213,410.481,48.773,399.041,34.661,399.041z"/>
</g>
<g id="Layer_10">
	<path fill="#C5CFD1" d="M141.636,187.545v229.439c0,10.931-8.861,19.792-19.792,19.792H98.772
		c-10.931,0-19.792-8.861-19.792-19.792V314.805H9.842c-4.883,0-8.842-3.958-8.842-8.841v-33.697c0-4.883,3.958-8.842,8.842-8.842
		H78.98V213.88c0-19.159,15.531-34.69,34.69-34.69h19.612C137.896,179.19,141.636,182.931,141.636,187.545z M453.317,215.739H379.46
		c-0.25-20.227-16.715-36.549-37.001-36.549h-16.729c-4.923,0-8.914,3.991-8.914,8.914v230.584
		c0,29.681,24.061,53.742,53.742,53.742h0c4.923,0,8.914-3.991,8.914-8.914v-52.847h73.846c4.344,0,7.865-3.521,7.865-7.865v-179.2
		C461.182,219.261,457.661,215.739,453.317,215.739z"/>
</g>
<g id="Layer_11">
	<path fill="#1C4C5A" d="M425.007,380.677h-60.312c-5.464,0-9.894-4.43-9.894-9.894v-9.02c0-5.464,4.43-9.894,9.894-9.894h60.312
		c5.464,0,9.894,4.43,9.894,9.894v9.02C434.901,376.248,430.471,380.677,425.007,380.677z"/>
</g>
</svg>
