<?xml version="1.0" encoding="iso-8859-1"?>
<!-- Generator: Adobe Illustrator 19.1.0, SVG Export Plug-In . SVG Version: 6.00 Build 0)  -->
<!DOCTYPE svg PUBLIC "-//W3C//DTD SVG 1.1//EN" "http://www.w3.org/Graphics/SVG/1.1/DTD/svg11.dtd">
<svg version="1.1" xmlns="http://www.w3.org/2000/svg" xmlns:xlink="http://www.w3.org/1999/xlink" x="0px" y="0px"
	 viewBox="0 0 512 512" enable-background="new 0 0 512 512" xml:space="preserve">
<g id="Layer_2">
	<path fill="#597B91" d="M495.778,1.92H110.744c-7.38,0-13.362,5.982-13.362,13.362V60.08v7.16v307.159
		c0,6.177,5.346,11.185,11.94,11.185H497.2c6.595,0,11.94-5.008,11.94-11.185V67.24v-7.16V15.282
		C509.14,7.902,503.158,1.92,495.778,1.92z"/>
</g>
<g id="Layer_3">
	<g>
		<path fill="#E0E0E0" d="M118.032,67.24v287.499c0,5.94,4.81,10.755,10.744,10.755H477.8c5.934,0,10.744-4.815,10.744-10.755V67.24
			H118.032z"/>
	</g>
</g>
<g id="Layer_4">
	<path fill="#597B91" d="M402.097,125.576H17.063c-7.38,0-13.362,5.983-13.362,13.362v44.798v7.16v307.159
		c0,6.177,5.346,11.185,11.94,11.185h387.878c6.595,0,11.94-5.008,11.94-11.185V190.895v-7.16v-44.798
		C415.459,131.558,409.477,125.576,402.097,125.576z"/>
</g>
<g id="Layer_5">
	<g>
		<path fill="#E0E0E0" d="M24.351,190.895v287.499c0,5.94,4.81,10.755,10.744,10.755h349.023c5.934,0,10.744-4.815,10.744-10.755
			V190.895H24.351z"/>
	</g>
</g>
</svg>
