<?xml version="1.0" encoding="iso-8859-1"?>
<!-- Generator: Adobe Illustrator 18.1.1, SVG Export Plug-In . SVG Version: 6.00 Build 0)  -->
<!DOCTYPE svg PUBLIC "-//W3C//DTD SVG 1.1//EN" "http://www.w3.org/Graphics/SVG/1.1/DTD/svg11.dtd">
<svg version="1.1" xmlns="http://www.w3.org/2000/svg" xmlns:xlink="http://www.w3.org/1999/xlink" x="0px" y="0px"
	 viewBox="0 0 512 512" enable-background="new 0 0 512 512" xml:space="preserve">
<g id="Layer_6">
	<path fill="#F9F9F7" d="M201.98,307.135c0,14.277-5.964,25.145-16.599,32.261c-4.219,2.823-3.822,9.201,0.766,11.372
		c12.55,5.94,21.424,17.515,21.424,36.34c0,27.225-22.121,50.317-62.958,50.317c-22.239,0-39.493-7.288-52.1-19.99
		c-2.616-2.635-2.612-6.885,0.074-9.449l12.088-11.538c2.511-2.397,6.455-2.426,9.002-0.067c8.635,8,17.68,11.389,28.507,11.389
		c14.827,0,25.523-8.508,25.523-23.579c0-16.773-9.481-23.336-26.739-23.336h-6.115c-4.056,0-7.146-3.636-6.49-7.639l2.223-13.585
		c0.52-3.18,3.268-5.515,6.49-5.515h3.892c14.341,0,23.336-7.779,23.336-21.148c0-11.91-8.507-18.717-21.635-18.717
		c-10.292,0-19.016,3.487-27.352,10.165c-2.65,2.123-6.505,1.794-8.832-0.678L96.04,292.641c-2.637-2.802-2.298-7.238,0.693-9.658
		c14.211-11.496,30.925-17.413,50.312-17.413C182.778,265.569,201.98,284.043,201.98,307.135z"/>
</g>
<g id="Layer_1">
</g>
</svg>
