<?xml version="1.0" encoding="iso-8859-1"?>
<!-- Generator: Adobe Illustrator 18.1.1, SVG Export Plug-In . SVG Version: 6.00 Build 0)  -->
<!DOCTYPE svg PUBLIC "-//W3C//DTD SVG 1.1//EN" "http://www.w3.org/Graphics/SVG/1.1/DTD/svg11.dtd">
<svg version="1.1" xmlns="http://www.w3.org/2000/svg" xmlns:xlink="http://www.w3.org/1999/xlink" x="0px" y="0px"
	 viewBox="0 0 512 512" enable-background="new 0 0 512 512" xml:space="preserve">
<g id="Layer_2">
	<path fill="#2B3B47" d="M350.52,97.102H225.425v-53.01c0-9.067-10.095-14.484-17.65-9.472L71.191,125.229
		c-6.777,4.496-6.777,14.448,0,18.944l136.584,90.609c7.556,5.012,17.65-0.405,17.65-9.472V172.3H350.52
		c20.765,0,37.599-16.834,37.599-37.599C388.119,113.936,371.286,97.102,350.52,97.102z"/>
</g>
<g id="Layer_3">
	<path fill="#2B3B47" d="M140.074,326.85H89.458c-4.086,0-7.399,3.313-7.399,7.399v28.947c0,4.086,3.313,7.399,7.399,7.399h41.408
		c4.086,0,7.399,3.313,7.399,7.399v15.956c0,4.086-3.313,7.399-7.399,7.399H89.458c-4.086,0-7.399,3.313-7.399,7.399v31.333
		c0,4.086,3.313,7.399,7.399,7.399h54.134c4.086,0,7.399,3.313,7.399,7.399v17.016c0,4.086-3.313,7.399-7.399,7.399H45.184
		c-4.086,0-7.399-3.313-7.399-7.399v-168.93c0-4.086,3.313-7.399,7.399-7.399h97.266c4.506,0,7.966,3.994,7.323,8.454l-2.376,16.486
		C146.872,324.147,143.753,326.85,140.074,326.85z"/>
</g>
<g id="Layer_4">
	<path fill="#2B3B47" d="M311.678,479.294h-43.386c-3.097,0-5.867-1.929-6.94-4.835l-30.934-83.738
		c-2.922-7.91-14.679-5.564-14.33,2.861c0.246,5.943,0.389,12.239,0.389,18.902v59.411c0,4.086-3.313,7.399-7.399,7.399h-24.705
		c-4.086,0-7.399-3.313-7.399-7.399v-168.93c0-4.086,3.313-7.399,7.399-7.399h42.367c3.077,0,5.833,1.904,6.921,4.783l31.829,84.196
		c2.961,7.833,14.608,5.5,14.311-2.868c-0.146-4.101-0.226-8.329-0.226-12.673v-66.039c0-4.086,3.313-7.399,7.399-7.399h24.705
		c4.086,0,7.399,3.313,7.399,7.399v168.93C319.076,475.981,315.764,479.294,311.678,479.294z"/>
</g>
<g id="Layer_5">
	<path fill="#2B3B47" d="M404.18,295.566c49.312,0,95.708,15.112,95.708,90.937c0,73.968-44.539,92.791-91.731,92.791h-48.276
		c-4.086,0-7.399-3.313-7.399-7.399v-168.93c0-4.086,3.313-7.399,7.399-7.399H404.18z M396.756,334.78v105.301
		c0,4.086,3.313,7.399,7.399,7.399h6.918c25.982,0,43.215-12.461,43.215-60.977c0-49.047-18.293-59.122-43.745-59.122h-6.388
		C400.069,327.381,396.756,330.693,396.756,334.78z"/>
</g>
</svg>
