<?xml version="1.0" encoding="iso-8859-1"?>
<!-- Generator: Adobe Illustrator 19.1.0, SVG Export Plug-In . SVG Version: 6.00 Build 0)  -->
<!DOCTYPE svg PUBLIC "-//W3C//DTD SVG 1.1//EN" "http://www.w3.org/Graphics/SVG/1.1/DTD/svg11.dtd">
<svg version="1.1" xmlns="http://www.w3.org/2000/svg" xmlns:xlink="http://www.w3.org/1999/xlink" x="0px" y="0px"
	 viewBox="0 0 512 512" enable-background="new 0 0 512 512" xml:space="preserve">
<g id="Layer_7">
	<path fill="#ADB8BC" d="M153.259,218.738h-21.671c-5.55,0-10.05-4.499-10.05-10.05v-50.704c0-5.55,4.499-10.05,10.05-10.05h21.671
		c5.55,0,10.05,4.499,10.05,10.05v50.704C163.309,214.238,158.81,218.738,153.259,218.738z M337.701,208.688v-50.704
		c0-5.55-4.499-10.05-10.05-10.05H305.98c-5.55,0-10.05,4.499-10.05,10.05v50.704c0,5.55,4.499,10.05,10.05,10.05h21.671
		C333.201,218.738,337.701,214.238,337.701,208.688z"/>
</g>
<g id="Layer_1">
</g>
</svg>
