<?xml version="1.0" encoding="iso-8859-1"?>
<!-- Generator: Adobe Illustrator 18.1.1, SVG Export Plug-In . SVG Version: 6.00 Build 0)  -->
<!DOCTYPE svg PUBLIC "-//W3C//DTD SVG 1.1//EN" "http://www.w3.org/Graphics/SVG/1.1/DTD/svg11.dtd">
<svg version="1.1" xmlns="http://www.w3.org/2000/svg" xmlns:xlink="http://www.w3.org/1999/xlink" x="0px" y="0px"
	 viewBox="0 0 512 512" enable-background="new 0 0 512 512" xml:space="preserve">
<g id="Layer_7">
	<path fill="#F9F9F7" d="M331.278,278.102c41.862,0,81.249,12.829,81.249,77.198c0,62.793-37.811,78.773-77.873,78.773H294.59
		c-3.976,0-7.2-3.224-7.2-7.2V285.302c0-3.976,3.224-7.2,7.2-7.2H331.278z M324.977,312.309v87.556c0,3.976,3.224,7.2,7.2,7.2h4.953
		c22.057,0,36.686-10.579,36.686-51.766c0-41.638-15.53-50.19-37.136-50.19h-4.503C328.2,305.109,324.977,308.333,324.977,312.309z"
		/>
</g>
<g id="Layer_1">
</g>
</svg>
