<?xml version="1.0" encoding="iso-8859-1"?>
<!-- Generator: Adobe Illustrator 18.1.1, SVG Export Plug-In . SVG Version: 6.00 Build 0)  -->
<!DOCTYPE svg PUBLIC "-//W3C//DTD SVG 1.1//EN" "http://www.w3.org/Graphics/SVG/1.1/DTD/svg11.dtd">
<svg version="1.1" xmlns="http://www.w3.org/2000/svg" xmlns:xlink="http://www.w3.org/1999/xlink" x="0px" y="0px"
	 viewBox="0 0 512 512" enable-background="new 0 0 512 512" xml:space="preserve">
<g id="Layer_5">
	<path fill="#2B3B47" d="M385.109,492.08h-25.056c-5.22,0-9.451-4.231-9.451-9.451V319.117c0-5.22,4.231-9.451,9.451-9.451h50.037
		c47.38,0,76.335,19.478,76.335,59.488c0,42.38-30.007,62.385-72.387,62.385h-10.027c-5.22,0-9.451,4.231-9.451,9.451v41.639
		C394.56,487.848,390.329,492.08,385.109,492.08z M410.354,399.952c19.478,0,31.06-8.16,31.06-30.798
		c0-19.215-10.792-28.428-31.849-28.428h-5.553c-5.22,0-9.451,4.231-9.451,9.451v40.324c0,5.22,4.231,9.451,9.451,9.451H410.354z"/>
</g>
<g id="Layer_1">
</g>
</svg>
