<?xml version="1.0" encoding="iso-8859-1"?>
<!-- Generator: Adobe Illustrator 18.1.1, SVG Export Plug-In . SVG Version: 6.00 Build 0)  -->
<!DOCTYPE svg PUBLIC "-//W3C//DTD SVG 1.1//EN" "http://www.w3.org/Graphics/SVG/1.1/DTD/svg11.dtd">
<svg version="1.1" xmlns="http://www.w3.org/2000/svg" xmlns:xlink="http://www.w3.org/1999/xlink" x="0px" y="0px"
	 viewBox="0 0 512 512" enable-background="new 0 0 512 512" xml:space="preserve">
<g id="Layer_2">
	<path fill="#597B91" d="M500.951,39.183c0-15.84-12.96-28.8-28.8-28.8H35.636c-14.256,0-25.92,11.664-25.92,25.92v439.394
		c0,14.256,11.664,25.92,25.92,25.92h436.514c15.84,0,28.8-12.96,28.8-28.8V39.183z"/>
</g>
<g id="Layer_3">
	<path fill="#2B5770" d="M475.031,10.383h-0.149v453.166c0,6.6-5.4,12-12,12H9.716v0.149c0,14.256,11.664,25.92,25.92,25.92h439.394
		c14.256,0,25.92-11.664,25.92-25.92V36.303C500.951,22.047,489.287,10.383,475.031,10.383z"/>
</g>
<g id="Layer_4">
	<path fill="#F9F9F7" d="M182.206,408.164h-40.695c-7.953,0-14.4-6.447-14.4-14.4V202.097c0-11.226-12.275-18.134-21.871-12.31
		l-30.796,18.69c-6.648,4.034-15.297,2.062-19.539-4.454l-15.009-23.057c-4.439-6.82-2.35-15.961,4.612-20.175l85.403-51.691
		c2.249-1.361,4.828-2.081,7.456-2.081h44.84c7.953,0,14.4,6.447,14.4,14.4v272.346
		C196.606,401.717,190.159,408.164,182.206,408.164z"/>
</g>
<g id="Layer_5">
	<path fill="#F9F9F7" d="M463.002,258.037c0,100.68-39.648,157.701-114.043,157.701c-74.396,0-114.043-57.022-114.043-157.701
		c0-101.124,39.647-157.255,114.043-157.255C423.354,100.782,463.002,156.912,463.002,258.037z M307.975,258.037
		c0,79.741,12.028,105.134,40.984,105.134s40.984-23.61,40.984-105.134c0-81.523-12.028-104.688-40.984-104.688
		S307.975,178.741,307.975,258.037z"/>
</g>
</svg>
