<?xml version="1.0" encoding="iso-8859-1"?>
<!-- Generator: Adobe Illustrator 19.1.0, SVG Export Plug-In . SVG Version: 6.00 Build 0)  -->
<!DOCTYPE svg PUBLIC "-//W3C//DTD SVG 1.1//EN" "http://www.w3.org/Graphics/SVG/1.1/DTD/svg11.dtd">
<svg version="1.1" xmlns="http://www.w3.org/2000/svg" xmlns:xlink="http://www.w3.org/1999/xlink" x="0px" y="0px"
	 viewBox="0 0 512 512" enable-background="new 0 0 512 512" xml:space="preserve">
<g id="Layer_2">
	<path fill="#EDC0A2" d="M406.282,277.196c0-13.581-9.86-24.861-22.803-27.083l2.699-49.437
		c0-73.109-61.001-118.226-134.105-118.226c-73.122,0-126.745,45.117-126.745,118.226l2.895,49.476
		c-12.836,2.31-22.586,13.539-22.586,27.044c0,14.603,11.398,26.549,25.774,27.429l0.341,5.82
		c0,68.598,55.605,124.211,124.216,124.211c68.585,0,124.217-55.613,124.217-124.211l0.318-5.819
		C394.881,303.748,406.282,291.801,406.282,277.196z"/>
</g>
<g id="Layer_1">
</g>
</svg>
