<?xml version="1.0" encoding="iso-8859-1"?>
<!-- Generator: Adobe Illustrator 19.1.0, SVG Export Plug-In . SVG Version: 6.00 Build 0)  -->
<!DOCTYPE svg PUBLIC "-//W3C//DTD SVG 1.1//EN" "http://www.w3.org/Graphics/SVG/1.1/DTD/svg11.dtd">
<svg version="1.1" xmlns="http://www.w3.org/2000/svg" xmlns:xlink="http://www.w3.org/1999/xlink" x="0px" y="0px"
	 viewBox="0 0 512 512" enable-background="new 0 0 512 512" xml:space="preserve">
<g id="Layer_2">
	<path fill="#597B91" d="M234.997,448.199h-55.373c-3.126,0-5.841-2.151-6.556-5.194l-11.435-48.682
		c-0.715-3.043-3.43-5.194-6.556-5.194H86.063c-3.126,0-5.841,2.151-6.556,5.194l-11.435,48.682
		c-0.715,3.043-3.43,5.194-6.556,5.194H7.74c-4.519,0-7.755-4.363-6.445-8.687l79.173-261.269c0.86-2.839,3.478-4.781,6.445-4.781
		h69.29c2.97,0,5.59,1.946,6.447,4.79l78.795,261.269C242.748,443.843,239.512,448.199,234.997,448.199z M146.953,333.269
		l-19.983-84.371c-1.639-6.921-11.493-6.905-13.111,0.02l-19.705,84.371c-0.987,4.224,2.22,8.266,6.558,8.266H140.4
		C144.746,341.555,147.955,337.499,146.953,333.269z"/>
</g>
<g id="Layer_3">
	<path fill="#2B3B47" d="M502.572,448.199h-77.475c-4.374,0-8.172-3.01-9.173-7.268l-16-68.114c-1-4.258-4.799-7.268-9.173-7.268
		h-96.561c-4.374,0-8.172,3.01-9.173,7.268l-16,68.114c-1,4.258-4.799,7.268-9.173,7.268h-75.241
		c-6.322,0-10.851-6.104-9.017-12.155L286.362,70.491c1.204-3.973,4.866-6.69,9.017-6.69h96.947c4.156,0,7.821,2.723,9.021,6.702
		l110.245,365.554C513.417,442.104,508.889,448.199,502.572,448.199z M379.385,287.395l-27.959-118.047
		c-2.293-9.683-16.081-9.661-18.344,0.029l-27.57,118.047c-1.38,5.91,3.106,11.565,9.175,11.565h55.529
		C376.298,298.988,380.787,293.313,379.385,287.395z"/>
</g>
</svg>
