<?xml version="1.0" encoding="iso-8859-1"?>
<!-- Generator: Adobe Illustrator 18.1.1, SVG Export Plug-In . SVG Version: 6.00 Build 0)  -->
<!DOCTYPE svg PUBLIC "-//W3C//DTD SVG 1.1//EN" "http://www.w3.org/Graphics/SVG/1.1/DTD/svg11.dtd">
<svg version="1.1" xmlns="http://www.w3.org/2000/svg" xmlns:xlink="http://www.w3.org/1999/xlink" x="0px" y="0px"
	 viewBox="0 0 512 512" enable-background="new 0 0 512 512" xml:space="preserve">
<g id="Layer_2">
	<path fill="#2B3B47" d="M433.224,228.353v38.177c0,6.263-5.077,11.34-11.34,11.34H392.03v20.721
		c0,39.761-32.233,71.994-71.994,71.994h0c-39.761,0-71.994-32.233-71.994-71.994v-20.721h-28.224
		c-12.087,0-21.921,8.47-21.921,18.88v34.48c0,6.263-5.077,11.34-11.34,11.34H148.38c-6.263,0-11.34-5.077-11.34-11.34v-34.48
		c0-43.967,37.134-79.738,82.778-79.738h73.046v-29.195c0-3.251,0.573-6.367,1.62-9.256h-39.414
		c-9.459,0-17.128-7.668-17.128-17.128v0c0-9.459,7.668-17.128,17.128-17.128h129.933c9.459,0,17.128,7.668,17.128,17.128v0
		c0,9.459-7.668,17.128-17.128,17.128h-39.414c1.047,2.889,1.62,6.006,1.62,9.256v29.195h74.676
		C428.147,217.013,433.224,222.09,433.224,228.353z M218.425,490.484l9.349-101.2c0.78-8.44-5.863-15.725-14.339-15.725H122.4
		c-8.476,0-15.119,7.285-14.339,15.725l9.349,101.2c0.684,7.408,6.899,13.075,14.339,13.075h72.337
		C211.526,503.56,217.741,497.892,218.425,490.484z"/>
</g>
<g id="Layer_1">
</g>
</svg>
