<?xml version="1.0" encoding="iso-8859-1"?>
<!-- Generator: Adobe Illustrator 18.1.1, SVG Export Plug-In . SVG Version: 6.00 Build 0)  -->
<!DOCTYPE svg PUBLIC "-//W3C//DTD SVG 1.1//EN" "http://www.w3.org/Graphics/SVG/1.1/DTD/svg11.dtd">
<svg version="1.1" xmlns="http://www.w3.org/2000/svg" xmlns:xlink="http://www.w3.org/1999/xlink" x="0px" y="0px"
	 viewBox="0 0 512 512" enable-background="new 0 0 512 512" xml:space="preserve">
<g id="Layer_2">
	<path fill="#FFB636" d="M247.243,507.583L6.082,266.421c-5.755-5.755-5.755-15.087,0-20.842L247.243,4.417
		c5.755-5.755,15.087-5.755,20.842,0l241.162,241.162c5.755,5.755,5.755,15.087,0,20.842L268.086,507.583
		C262.33,513.338,252.999,513.338,247.243,507.583z"/>
</g>
<g id="Layer_3">
	<path fill="#2B3B47" d="M257.665,38.895c0.104,0,0.144,0.039,0.178,0.074l216.853,216.853c0.098,0.098,0.098,0.258,0,0.357
		L257.843,473.031c-0.035,0.035-0.074,0.074-0.178,0.074s-0.144-0.039-0.178-0.074L40.633,256.178c-0.098-0.098-0.098-0.258,0-0.357
		L257.486,38.969C257.521,38.934,257.56,38.895,257.665,38.895 M257.665,25.895c-3.392,0-6.783,1.294-9.371,3.881L31.441,246.629
		c-5.175,5.175-5.175,13.566,0,18.741l216.853,216.853c2.588,2.588,5.979,3.881,9.371,3.881s6.783-1.294,9.371-3.881
		l216.853-216.853c5.175-5.175,5.175-13.566,0-18.741L267.035,29.776C264.448,27.189,261.056,25.895,257.665,25.895L257.665,25.895z
		"/>
</g>
<g id="Layer_4">
	<path fill="#2B3B47" d="M217.798,153.711c1.728,12.005-6.604,23.137-18.608,24.864c-12.005,1.728-23.137-6.604-24.864-18.608
		c-1.727-12.005,6.604-23.137,18.608-24.864S216.07,141.706,217.798,153.711z M317.956,186.913
		c-9.382,1.35-15.892,10.05-14.542,19.431s10.05,15.892,19.431,14.542c9.382-1.35,15.892-10.05,14.542-19.431
		C336.037,192.073,327.337,185.563,317.956,186.913z M383.266,277.908l-6.075-28.204c-0.438-2.035-1.716-3.79-3.518-4.832
		l-34.586-20.003c-0.694-0.401-1.426-0.672-2.17-0.829c-2.812-0.971-5.885-1.32-9.033-0.867l-8.169,1.176
		c-4.233,0.609-7.931,2.563-10.762,5.349c-0.793,0.457-1.516,1.066-2.116,1.829l-15.771,20.07l-17.185-6.355l-6.816-33.576
		c-0.586-2.884-2.482-5.33-5.131-6.614l-42.569-20.65c-0.658-0.319-1.336-0.546-2.02-0.703c-3.637-1.281-7.626-1.734-11.707-1.146
		l-10.453,1.504c-5.459,0.786-10.242,3.301-13.876,6.911c-1.441,0.854-2.677,2.094-3.519,3.682l-19.938,37.583l-25.188,3.151
		c-5.173,0.647-8.841,5.365-8.194,10.537c0.598,4.775,4.663,8.268,9.354,8.268c0.39,0,0.786-0.024,1.183-0.074l30.055-3.76
		c3.051-0.382,5.726-2.226,7.167-4.942l5.372-10.126l6.418,44.599c0.103,0.716,0.397,1.35,0.802,1.891l-14.168,16.45
		c-1.747,2.028-2.749,4.594-2.838,7.27l-1.451,43.488c-0.216,6.48,4.862,11.909,11.342,12.125
		c6.469,0.241,11.909-4.861,12.125-11.342l1.313-39.354l26.88-31.21l1.077-0.155l2.918,31.209c0.156,1.67,0.668,3.287,1.502,4.742
		l24.108,42.092c2.168,3.786,6.126,5.907,10.198,5.907c1.979,0,3.984-0.501,5.824-1.555c5.627-3.223,7.575-10.396,4.353-16.022
		l-22.843-39.884l-4.561-48.787c0.167-1.872,0.128-3.791-0.151-5.731l-5.478-38.068l14.525,7.046l7.63,37.585
		c0.908,4.475,4.844,7.562,9.24,7.562c0.622,0,1.254-0.062,1.888-0.19c2.49-0.506,4.545-1.953,5.883-3.891l16.852,6.232
		c0.836,0.31,1.701,0.459,2.557,0.459c2.219,0,4.374-1.003,5.802-2.819l5.667-7.212l5.974,41.515
		c0.039,0.268,0.117,0.517,0.214,0.757l-8.406,11.663c-0.858,1.191-1.426,2.567-1.656,4.017l-5.424,34.105
		c-0.815,5.123,2.678,9.937,7.8,10.751c5.128,0.818,9.936-2.678,10.751-7.8l5.073-31.9l15.684-21.76l0.978-0.141l-0.884,22.827
		c-0.055,1.413,0.211,2.821,0.776,4.117l12.704,29.135c1.54,3.533,4.991,5.641,8.614,5.641c1.253,0,2.527-0.252,3.749-0.785
		c4.755-2.073,6.929-7.608,4.855-12.363l-11.845-27.165l1.533-39.632c0.035-0.908-0.074-1.799-0.29-2.657
		c-0.033-0.455-0.061-0.91-0.127-1.368l-4.005-27.831l12.373,7.156l5.387,25.009c0.745,3.459,3.803,5.824,7.204,5.824
		c0.514,0,1.037-0.055,1.561-0.167C381.591,285.815,384.123,281.892,383.266,277.908z"/>
</g>
</svg>
