<?xml version="1.0" encoding="iso-8859-1"?>
<!-- Generator: Adobe Illustrator 18.1.1, SVG Export Plug-In . SVG Version: 6.00 Build 0)  -->
<!DOCTYPE svg PUBLIC "-//W3C//DTD SVG 1.1//EN" "http://www.w3.org/Graphics/SVG/1.1/DTD/svg11.dtd">
<svg version="1.1" xmlns="http://www.w3.org/2000/svg" xmlns:xlink="http://www.w3.org/1999/xlink" x="0px" y="0px"
	 viewBox="0 0 512 512" enable-background="new 0 0 512 512" xml:space="preserve">
<g id="Layer_5">
	<path fill="#FFFFFF" d="M451.722,185.637l-14.204,16.834c-2.416,2.863-6.644,3.42-9.676,1.219
		c-9.228-6.698-19.095-10.393-30.809-10.393c-25.247,0-43.239,20.604-43.239,69.646c0,47.881,17.702,68.775,44.399,68.775
		c13.43,0,23.572-5.548,33.365-12.665c3.127-2.272,7.497-1.635,9.877,1.41l13.358,17.097c2.376,3.041,1.924,7.401-1.001,9.918
		c-13.55,11.661-33.619,21.384-58.209,21.384c-55.137,0-91.991-36.854-91.991-105.92c0-67.615,38.596-105.34,90.54-105.34
		c24.04,0,41.319,6.536,56.404,17.622C453.872,177.678,454.393,182.472,451.722,185.637z"/>
</g>
<g id="Layer_1">
</g>
</svg>
