<?xml version="1.0" encoding="iso-8859-1"?>
<!-- Generator: Adobe Illustrator 18.1.1, SVG Export Plug-In . SVG Version: 6.00 Build 0)  -->
<!DOCTYPE svg PUBLIC "-//W3C//DTD SVG 1.1//EN" "http://www.w3.org/Graphics/SVG/1.1/DTD/svg11.dtd">
<svg version="1.1" xmlns="http://www.w3.org/2000/svg" xmlns:xlink="http://www.w3.org/1999/xlink" x="0px" y="0px"
	 viewBox="0 0 512 512" enable-background="new 0 0 512 512" xml:space="preserve">
<g id="Layer_5">
	<path fill="#FFFFFF" d="M428.27,208.361c-3.415-6.436-10.177-10.823-17.971-10.823H285.33c-0.375,0-0.741,0.036-1.111,0.056
		c-0.176,0.008-0.352,0.017-0.528,0.027c-0.197,0.016-0.396,0.024-0.591,0.045c-25.045,1.718-44.899,22.628-44.899,48.101
		c0,56.719-58.853,103.354-59.798,104.094c-8.87,6.869-10.504,19.627-3.647,28.511c4.007,5.191,10.028,7.912,16.116,7.912
		c4.339,0,8.713-1.383,12.414-4.239c3.087-2.383,75.595-59.237,75.595-136.277c0-4.163,3.387-7.549,7.549-7.549
		s7.549,3.386,7.549,7.549v112.834c0,1.106,0.112,2.184,0.282,3.242v41.339c0,14.542,11.789,26.331,26.331,26.331h94.109
		c14.542,0,26.331-11.789,26.331-26.331V237.464C441.032,225.953,436.114,215.594,428.27,208.361z"/>
</g>
<g id="Layer_1">
</g>
</svg>
