<?xml version="1.0" encoding="iso-8859-1"?>
<!-- Generator: Adobe Illustrator 18.1.1, SVG Export Plug-In . SVG Version: 6.00 Build 0)  -->
<!DOCTYPE svg PUBLIC "-//W3C//DTD SVG 1.1//EN" "http://www.w3.org/Graphics/SVG/1.1/DTD/svg11.dtd">
<svg version="1.1" xmlns="http://www.w3.org/2000/svg" xmlns:xlink="http://www.w3.org/1999/xlink" x="0px" y="0px"
	 viewBox="0 0 512 512" enable-background="new 0 0 512 512" xml:space="preserve">
<g id="Layer_4">
	<path fill="#FFFFFF" d="M293.599,90.265c0,21.078-17.087,38.164-38.164,38.164s-38.164-17.087-38.164-38.164
		s17.087-38.164,38.164-38.164S293.599,69.187,293.599,90.265z M313.067,140.568H196.815c-0.268,0-0.529,0.026-0.793,0.04
		c-0.124,0.006-0.248,0.012-0.372,0.019c-0.141,0.011-0.284,0.017-0.424,0.032c-17.834,1.224-31.973,16.114-31.973,34.253V305.76
		c0,7.999,6.485,14.484,14.484,14.484s14.484-6.485,14.484-14.484V174.912c0-2.964,2.412-5.375,5.375-5.375s5.375,2.412,5.375,5.375
		v80.351c0,0.788,0.08,1.556,0.201,2.31v34.43c-0.151,1.621-0.238,3.26-0.238,4.92v129.406c0,11.891,9.64,21.531,21.531,21.531
		S246,438.22,246,426.329V296.923c0-5.218,4.245-9.462,9.462-9.462s9.462,4.244,9.462,9.462v129.406
		c0,11.891,9.64,21.531,21.53,21.531s21.53-9.641,21.53-21.531V296.923c0-1.864-0.101-3.704-0.292-5.519V174.908
		c0.002-2.962,2.412-5.371,5.375-5.371c2.965,0,5.376,2.412,5.376,5.375V305.76c0,7.999,6.485,14.484,14.484,14.484
		s14.484-6.485,14.484-14.484V174.912C347.412,155.975,332.005,140.568,313.067,140.568z"/>
</g>
<g id="Layer_1">
</g>
</svg>
