<?xml version="1.0" encoding="iso-8859-1"?>
<!-- Generator: Adobe Illustrator 18.1.1, SVG Export Plug-In . SVG Version: 6.00 Build 0)  -->
<!DOCTYPE svg PUBLIC "-//W3C//DTD SVG 1.1//EN" "http://www.w3.org/Graphics/SVG/1.1/DTD/svg11.dtd">
<svg version="1.1" xmlns="http://www.w3.org/2000/svg" xmlns:xlink="http://www.w3.org/1999/xlink" x="0px" y="0px"
	 viewBox="0 0 512 512" enable-background="new 0 0 512 512" xml:space="preserve">
<g id="Layer_4">
	<path fill="#FFFFFF" d="M207.836,454.439H93.557c-6.819,0-12.348-5.528-12.348-12.348V319.096H70.714
		c-6.819,0-12.348-5.528-12.348-12.348S63.895,294.4,70.714,294.4h22.842c6.819,0,12.348,5.528,12.348,12.348v122.996h89.584
		V306.748c0-6.819,5.528-12.348,12.348-12.348h24.134c6.819,0,12.348,5.528,12.348,12.348s-5.528,12.348-12.348,12.348h-11.786
		v122.996C220.184,448.911,214.655,454.439,207.836,454.439z M151.342,259.974c-17.391,0-31.49,14.098-31.49,31.49
		s14.098,31.49,31.49,31.49s31.49-14.098,31.49-31.49S168.733,259.974,151.342,259.974z M341.038,44.58
		c-23.825,0-43.139,19.314-43.139,43.139s19.314,43.139,43.139,43.139c23.825,0,43.139-19.314,43.139-43.139
		S364.863,44.58,341.038,44.58z M399.271,145.974H281.809c-0.27,0-0.533,0.026-0.799,0.04c-0.126,0.006-0.252,0.012-0.378,0.019
		c-0.142,0.011-0.285,0.017-0.426,0.033c-18.02,1.236-32.307,16.282-32.307,34.61v36.058l-55.965,0
		c-8.082,0-14.635,6.553-14.635,14.635s6.552,14.635,14.635,14.635l70.6,0c3.881,0,7.604-1.542,10.349-4.287
		s4.286-6.467,4.286-10.349v-50.693c0-2.995,2.438-5.432,5.433-5.432s5.432,2.437,5.432,5.432v81.187
		c0,0.795,0.081,1.57,0.203,2.331v34.796c-0.153,1.636-0.24,3.291-0.24,4.966v130.755c0,12.015,9.74,21.755,21.755,21.755
		s21.755-9.74,21.755-21.755V303.957c0-5.271,4.289-9.561,9.561-9.561s9.561,4.289,9.561,9.561v130.755
		c0,12.015,9.74,21.755,21.755,21.755s21.755-9.74,21.755-21.755V303.957c0-1.884-0.102-3.745-0.295-5.579V180.659
		c0.009-2.987,2.441-5.415,5.431-5.415c2.995,0,5.433,2.437,5.433,5.432v132.21c0,8.083,6.552,14.635,14.635,14.635
		s14.635-6.552,14.635-14.635v-132.21C433.974,161.542,418.406,145.974,399.271,145.974z"/>
</g>
<g id="Layer_1">
</g>
</svg>
