<?xml version="1.0" encoding="iso-8859-1"?>
<!-- Generator: Adobe Illustrator 18.1.1, SVG Export Plug-In . SVG Version: 6.00 Build 0)  -->
<!DOCTYPE svg PUBLIC "-//W3C//DTD SVG 1.1//EN" "http://www.w3.org/Graphics/SVG/1.1/DTD/svg11.dtd">
<svg version="1.1" xmlns="http://www.w3.org/2000/svg" xmlns:xlink="http://www.w3.org/1999/xlink" x="0px" y="0px"
	 viewBox="0 0 512 512" enable-background="new 0 0 512 512" xml:space="preserve">
<g id="Layer_2">
	<path fill="#597B91" d="M508.333,32.666C508.333,16.35,494.984,3,478.668,3H29.032C14.348,3,2.333,15.015,2.333,29.699v452.602
		C2.333,496.985,14.348,509,29.032,509h449.635c16.316,0,29.666-13.35,29.666-29.666V32.666z"/>
</g>
<g id="Layer_3">
	<path fill="#2B5770" d="M478.668,488.915H29.032c-14.684,0-26.699-12.015-26.699-26.699v20.085
		C2.333,496.985,14.348,509,29.032,509h449.635c16.316,0,29.666-13.35,29.666-29.666v-20.085
		C508.333,475.565,494.984,488.915,478.668,488.915z"/>
</g>
<g id="Layer_4">
	<path fill="#FFFFFF" d="M256.235,157.56c21.702,0,36.816-15.114,36.816-34.878c0-19.764-15.114-34.878-36.816-34.878
		c-21.314,0-36.428,15.114-36.428,34.878C219.807,142.447,234.921,157.56,256.235,157.56z"/>
</g>
<g id="Layer_5">
	<path fill="#FFFFFF" d="M298.915,384.123c-6.235,0-11.289-5.054-11.289-11.289v-176.52l-0.019,0.009v-1.754
		c0-9.047-10.095-14.412-17.598-9.359c-16.213,10.919-43.483,24.705-81.334,26.927c-5.951,0.349-10.588,5.301-10.588,11.262v13.396
		c0,6.487,5.458,11.624,11.936,11.277c7.858-0.421,15.399-1.245,22.616-2.387c6.825-1.08,12.982,4.25,12.982,11.16v115.988
		c0,6.235-5.054,11.289-11.289,11.289h-2.963c-6.235,0-11.289,5.054-11.289,11.289v13.367c0,6.235,5.054,11.289,11.289,11.289
		h89.012c6.235,0,11.289-5.054,11.289-11.289v-13.367c0-6.235-5.054-11.289-11.289-11.289H298.915z"/>
</g>
</svg>
