<?xml version="1.0" encoding="iso-8859-1"?>
<!-- Generator: Adobe Illustrator 18.1.1, SVG Export Plug-In . SVG Version: 6.00 Build 0)  -->
<!DOCTYPE svg PUBLIC "-//W3C//DTD SVG 1.1//EN" "http://www.w3.org/Graphics/SVG/1.1/DTD/svg11.dtd">
<svg version="1.1" xmlns="http://www.w3.org/2000/svg" xmlns:xlink="http://www.w3.org/1999/xlink" x="0px" y="0px"
	 viewBox="0 0 512 512" enable-background="new 0 0 512 512" xml:space="preserve">
<g id="Layer_4">
	<path fill="#F9F9F7" d="M323.853,154.423l-194.373-39.333c-8.961-1.813-16.871,6.097-15.058,15.058l39.333,194.373
		c2.022,9.99,14.352,13.708,21.559,6.501l29.008-29.009c4.99-4.99,13.08-4.99,18.07,0l91.417,91.417c4.99,4.99,13.08,4.99,18.07,0
		l60.882-60.882c4.99-4.99,4.99-13.08,0-18.07l-91.417-91.417c-4.99-4.99-4.99-13.08,0-18.07l29.009-29.008
		C337.561,168.774,333.843,156.444,323.853,154.423z"/>
</g>
<g id="Layer_1">
</g>
</svg>
