<?xml version="1.0" encoding="iso-8859-1"?>
<!-- Generator: Adobe Illustrator 19.1.0, SVG Export Plug-In . SVG Version: 6.00 Build 0)  -->
<!DOCTYPE svg PUBLIC "-//W3C//DTD SVG 1.1//EN" "http://www.w3.org/Graphics/SVG/1.1/DTD/svg11.dtd">
<svg version="1.1" xmlns="http://www.w3.org/2000/svg" xmlns:xlink="http://www.w3.org/1999/xlink" x="0px" y="0px"
	 viewBox="0 0 512 512" enable-background="new 0 0 512 512" xml:space="preserve">
<g id="Layer_4">
	<path fill="#FFD469" d="M477.511,108.534c-4.411,0-8.386-3.056-9.377-7.541c-2.136-9.668-6.91-18.579-13.807-25.772
		c-6.88-7.176-15.559-12.318-25.098-14.871c-5.128-1.372-8.173-6.643-6.801-11.771c1.373-5.128,6.643-8.173,11.771-6.801
		c12.934,3.461,24.693,10.425,34.005,20.137c9.338,9.739,15.805,21.818,18.702,34.931c1.145,5.184-2.129,10.314-7.313,11.46
		C478.895,108.46,478.198,108.534,477.511,108.534z M42.749,100.38c2.553-9.539,7.695-18.218,14.871-25.098
		c7.193-6.897,16.105-11.671,25.772-13.807c5.184-1.145,8.458-6.276,7.313-11.46c-1.145-5.184-6.276-8.458-11.46-7.313
		c-13.112,2.897-25.191,9.364-34.931,18.702c-9.713,9.313-16.676,21.071-20.137,34.005c-1.372,5.129,1.672,10.398,6.801,11.771
		c0.833,0.223,1.668,0.329,2.491,0.329C37.714,107.51,41.599,104.676,42.749,100.38z"/>
</g>
<g id="Layer_1">
</g>
</svg>
