<?xml version="1.0" encoding="iso-8859-1"?>
<!-- Generator: Adobe Illustrator 18.1.1, SVG Export Plug-In . SVG Version: 6.00 Build 0)  -->
<!DOCTYPE svg PUBLIC "-//W3C//DTD SVG 1.1//EN" "http://www.w3.org/Graphics/SVG/1.1/DTD/svg11.dtd">
<svg version="1.1" xmlns="http://www.w3.org/2000/svg" xmlns:xlink="http://www.w3.org/1999/xlink" x="0px" y="0px"
	 viewBox="0 0 512 512" enable-background="new 0 0 512 512" xml:space="preserve">
<g id="Layer_4">
	<path fill="#FFFFFF" d="M347.939,235.584c-16.865,0-31.237,3.806-42.997,11.343v-92.645c0-45.556-37.062-82.619-82.619-82.619
		c-22.754,0-43.389,9.248-58.345,24.181c-12.01-16.011-32.682-23.703-62.749-23.703c-10.217,0-18.5,8.283-18.5,18.5
		s8.283,18.5,18.5,18.5c16.222,0,27.005,2.57,32.051,7.64c4.323,4.342,6.424,12.917,6.424,26.212v183.982
		c0,10.217,8.283,18.5,18.5,18.5s18.5-8.283,18.5-18.5V154.281c0-25.154,20.464-45.619,45.619-45.619s45.619,20.465,45.619,45.619
		v156.449c-1.152,4.696-2.225,9.415-3.286,14.098c-4.656,20.557-9.471,41.814-20.43,56.323
		c-7.271,9.626-21.137,22.423-57.456,22.423c-10.217,0-18.5,8.283-18.5,18.5s8.283,18.5,18.5,18.5
		c39.662,0,68.113-12.143,86.98-37.123c7.434-9.841,12.688-20.9,16.718-32.277c14.554,15.04,34.938,24.402,57.471,24.402
		c44.11,0,79.997-35.886,79.997-79.996S392.05,235.584,347.939,235.584z M347.939,358.577c-23.701,0-42.985-19.278-42.997-42.977
		c8.165-30.907,16.818-43.017,42.997-43.017c23.709,0,42.997,19.288,42.997,42.997C390.937,339.289,371.648,358.577,347.939,358.577
		z"/>
</g>
<g id="Layer_1">
</g>
</svg>
