<?xml version="1.0" encoding="iso-8859-1"?>
<!-- Generator: Adobe Illustrator 18.1.1, SVG Export Plug-In . SVG Version: 6.00 Build 0)  -->
<!DOCTYPE svg PUBLIC "-//W3C//DTD SVG 1.1//EN" "http://www.w3.org/Graphics/SVG/1.1/DTD/svg11.dtd">
<svg version="1.1" xmlns="http://www.w3.org/2000/svg" xmlns:xlink="http://www.w3.org/1999/xlink" x="0px" y="0px"
	 viewBox="0 0 512 512" enable-background="new 0 0 512 512" xml:space="preserve">
<g id="Layer_5">
	<path fill="#FFFFFF" d="M255.349,399.922c-2.383,0-4.787-0.461-7.076-1.409c-6.913-2.863-11.42-9.609-11.42-17.092v-42.333
		l-55.414,55.414c-5.291,5.292-13.247,6.876-20.161,4.011c-6.913-2.863-11.42-9.609-11.42-17.092v-43.083l-56.164,56.164
		c-7.226,7.225-18.939,7.226-26.163,0c-7.225-7.225-7.225-18.938,0-26.162l87.746-87.746c5.292-5.291,13.248-6.873,20.161-4.011
		c6.913,2.863,11.42,9.609,11.42,17.092v43.083l55.414-55.414c5.292-5.291,13.251-6.874,20.162-4.011
		c6.912,2.863,11.42,9.609,11.42,17.092v42.333l55.623-55.623c5.297-5.298,13.265-6.877,20.181-4.002
		c6.917,2.874,11.418,9.637,11.4,17.127l-0.101,42.392l56.019-56.018c5.291-5.291,13.25-6.873,20.161-4.011
		c6.912,2.863,11.42,9.609,11.42,17.092v87.706c0,10.217-8.282,18.5-18.5,18.5c-10.217,0-18.5-8.283-18.5-18.5v-43.043
		l-56.125,56.124c-5.297,5.298-13.265,6.878-20.181,4.002c-6.917-2.874-11.418-9.637-11.4-17.127l0.101-42.392l-55.516,55.517
		C264.896,398.041,260.163,399.921,255.349,399.922z"/>
</g>
<g id="Layer_1">
</g>
</svg>
