<?xml version="1.0" encoding="iso-8859-1"?>
<!-- Generator: Adobe Illustrator 18.1.1, SVG Export Plug-In . SVG Version: 6.00 Build 0)  -->
<!DOCTYPE svg PUBLIC "-//W3C//DTD SVG 1.1//EN" "http://www.w3.org/Graphics/SVG/1.1/DTD/svg11.dtd">
<svg version="1.1" xmlns="http://www.w3.org/2000/svg" xmlns:xlink="http://www.w3.org/1999/xlink" x="0px" y="0px"
	 viewBox="0 0 512 512" enable-background="new 0 0 512 512" xml:space="preserve">
<g id="Layer_5">
	<path fill="#FFFFFF" d="M194.156,449.052c-11.593,0-23.184-1.522-34.315-4.548c-17.688-4.809-34.539-13.548-48.729-25.274
		c-14.164-11.705-25.927-26.579-34.018-43.015c-8.333-16.925-12.939-35.892-13.321-54.851c-0.384-19.083,3.483-38.317,11.185-55.625
		c7.424-16.684,18.564-31.962,32.217-44.186c5.346-4.787,11.143-9.17,17.229-13.026c9.941-6.298,23.106-3.344,29.405,6.598
		c6.298,9.942,3.344,23.107-6.598,29.405c-4.103,2.599-8.008,5.551-11.606,8.773c-9.207,8.243-16.713,18.534-21.71,29.763
		c-5.173,11.626-7.771,24.573-7.512,37.44c0.257,12.763,3.351,25.518,8.947,36.884c5.45,11.069,13.379,21.092,22.931,28.985
		c9.551,7.893,20.879,13.771,32.76,17.001c12.542,3.41,25.964,3.983,38.814,1.662c12.209-2.207,24.068-7.131,34.292-14.24
		c10.147-7.056,18.874-16.376,25.236-26.954c1.741-2.895,3.33-5.927,4.726-9.016c4.843-10.726,17.463-15.497,28.191-10.65
		c10.726,4.843,15.494,17.465,10.65,28.191c-2.079,4.604-4.45,9.128-7.047,13.444c-9.437,15.689-22.379,29.514-37.426,39.977
		c-15.209,10.575-32.86,17.901-51.044,21.188C209.754,448.363,201.954,449.052,194.156,449.052z"/>
</g>
<g id="Layer_1">
</g>
</svg>
