<?xml version="1.0" encoding="iso-8859-1"?>
<!-- Generator: Adobe Illustrator 18.1.1, SVG Export Plug-In . SVG Version: 6.00 Build 0)  -->
<!DOCTYPE svg PUBLIC "-//W3C//DTD SVG 1.1//EN" "http://www.w3.org/Graphics/SVG/1.1/DTD/svg11.dtd">
<svg version="1.1" xmlns="http://www.w3.org/2000/svg" xmlns:xlink="http://www.w3.org/1999/xlink" x="0px" y="0px"
	 viewBox="0 0 512 512" enable-background="new 0 0 512 512" xml:space="preserve">
<g id="Layer_2">
	<path fill="#FF473E" d="M1,312.52v101.445c0,7.251,4.94,13.588,11.981,15.318c159.163,39.106,318.326-43.539,477.489-8.034
		c9.83,2.193,19.149-5.331,19.149-15.403V312.52C340.079,264.196,170.54,360.844,1,312.52z"/>
</g>
<g id="Layer_3">
	<path fill="#0B67B2" d="M1,198.935c0,37.862,0,75.724,0,113.586c169.54,48.324,339.079-48.324,508.619,0
		c0-37.862,0-75.724,0-113.586C340.079,150.611,170.54,247.259,1,198.935z"/>
</g>
<g id="Layer_4">
	<path fill="#E8E8E8" d="M1,101.194v97.741c169.54,48.324,339.079-48.324,508.619,0V93.075c0-7.251-4.94-13.588-11.981-15.318
		c-159.163-39.106-318.326,43.539-477.489,8.034C10.319,83.599,1,91.122,1,101.194z"/>
</g>
</svg>
