<?xml version="1.0" encoding="iso-8859-1"?>
<!-- Generator: Adobe Illustrator 18.1.1, SVG Export Plug-In . SVG Version: 6.00 Build 0)  -->
<!DOCTYPE svg PUBLIC "-//W3C//DTD SVG 1.1//EN" "http://www.w3.org/Graphics/SVG/1.1/DTD/svg11.dtd">
<svg version="1.1" xmlns="http://www.w3.org/2000/svg" xmlns:xlink="http://www.w3.org/1999/xlink" x="0px" y="0px"
	 viewBox="0 0 512 512" enable-background="new 0 0 512 512" xml:space="preserve">
<g id="Layer_2">
	<path fill="#FFB636" d="M1.793,161.987v8.875v17.754v8.875v11.267v1.196v5.291v8.875v11.267v1.196v5.29v8.875v11.267v1.196v5.288
		v0.003v3.585v5.29v11.267v1.196v5.288v0.003v3.585v5.29v11.267v1.196v5.288v0.003v3.585v5.29v1.193v1.196v8.878v1.196v5.288v0.003
		c169.54,52.36,339.079-52.36,508.619,0v-0.003V343.1v-1.196v-8.878v-1.196v-1.193v-5.29v-3.585v-0.003v-5.288v-1.196v-11.267v-5.29
		v-3.585v-0.003v-5.288v-1.196v-11.267v-5.29v-3.585V268.5v-5.288v-1.196v-11.267v-8.875v-5.29v-1.196V224.12v-8.875v-5.291v-1.196
		v-11.267v-8.875v-17.754v-8.875C340.872,109.627,171.333,214.346,1.793,161.987z"/>
</g>
<g id="Layer_3">
	<path fill="#E8E8E8" d="M171.242,289.342h-36.121v-41.325h30.361c3.181,0,5.76,2.579,5.76,5.76V289.342z"/>
</g>
<g id="Layer_4">
	<path fill="#E2A042" d="M172.313,220.667h-31.481c0.948-2.526,1.518-5.688,1.518-9.131c0-8.248-3.237-14.934-7.229-14.934
		c-3.992,0-7.229,6.686-7.229,14.934c0,3.443,0.57,6.605,1.518,9.131H97.959c-2.445,0-4.177,2.389-3.416,4.713l3.651,11.157
		c0.481,1.471,1.851,2.469,3.398,2.477l67.015,0.334c1.569,0.008,2.961-1.002,3.44-2.496l3.688-11.491
		C176.48,223.04,174.75,220.667,172.313,220.667z"/>
</g>
<g id="Layer_5">
	<path fill="#E8E8E8" d="M87.304,281.017c0-5.139-4.166-9.304-9.304-9.304c-5.139,0-9.304,4.166-9.304,9.304
		c0,3.705,2.171,6.894,5.304,8.391v31.509c0,0.787,0.638,1.425,1.425,1.425h5.15c0.787,0,1.425-0.638,1.425-1.425v-31.509
		C85.134,287.911,87.304,284.722,87.304,281.017z"/>
</g>
<g id="Layer_6">
	<path fill="#E8E8E8" d="M198.971,281.017c0-5.139-4.166-9.304-9.304-9.304c-5.139,0-9.304,4.166-9.304,9.304
		c0,3.705,2.17,6.894,5.304,8.391v31.509c0,0.787,0.638,1.425,1.425,1.425h5.15c0.787,0,1.425-0.638,1.425-1.425v-31.509
		C196.8,287.911,198.971,284.722,198.971,281.017z"/>
</g>
<g id="Layer_7">
	<path fill="#FF473E" d="M510.412,94.03v14.699v26.629v8.875v17.754c-169.54-52.36-339.079,52.36-508.619,0v-17.754v-8.875v-26.629
		v-4.282c0-11.042,10.303-19.16,21.051-16.631c158.611,37.323,317.223-51.454,475.834-9.093
		C505.602,80.572,510.412,86.863,510.412,94.03z M1.793,348.39v3.585v5.29v1.193v1.196v8.878v1.196v5.288v0.003v3.585v5.29v1.193
		v1.196v8.878v1.193v0.003v5.288v0.003v3.585v5.29v5.823c0,7.167,4.81,13.458,11.734,15.307
		c159.129,42.499,318.258-46.998,477.387-8.724c9.944,2.392,19.499-5.177,19.499-15.405v-2.293v-3.585v-0.003v-5.288v-0.003v-1.193
		v-8.878v-1.196v-1.193v-5.29v-3.585v-0.003v-5.288v-1.196v-8.878v-1.196v-1.193v-5.29v-3.585
		C340.872,296.03,171.333,400.75,1.793,348.39z M135.121,289.342v-41.325h-30.362c-3.181,0-5.759,2.578-5.759,5.759v35.566v14.94
		c0,9.975,8.086,18.06,18.061,18.06h0c9.975,0,18.06-8.086,18.06-18.06c0,9.975,8.086,18.06,18.061,18.06h0
		c9.975,0,18.06-8.086,18.06-18.06v-14.94H135.121z M141.68,221.517c-4.372,0.174-8.745,0.353-13.117,0.528
		c0,6.161,0,12.321,0,18.481c4.372-0.153,8.745-0.312,13.117-0.464C141.68,233.88,141.68,227.698,141.68,221.517z M106.667,241.116
		c4.372-0.07,8.745-0.172,13.117-0.303c0-6.147,0-12.294,0-18.44c-4.372,0.154-8.745,0.289-13.117,0.38
		C106.667,228.873,106.667,234.995,106.667,241.116z M163.576,220.808c-4.372,0.092-8.745,0.227-13.117,0.381
		c0,6.195,0,12.39,0,18.586c4.372-0.132,8.745-0.234,13.117-0.304C163.576,233.25,163.576,227.029,163.576,220.808z"/>
</g>
<g id="Layer_8">
	<path fill="#E2A042" d="M127.793,289.342h7.328v14.94c0,5.949-2.89,11.211-7.328,14.501V289.342z M106.328,318.783v-29.441H99
		v14.94C99,310.231,101.89,315.492,106.328,318.783z M120.725,289.342h-7.328v32.627c1.183,0.244,2.408,0.373,3.664,0.373h0
		c1.255,0,2.481-0.129,3.664-0.373V289.342z"/>
</g>
<g id="Layer_9">
	<path fill="#575A5B" d="M147.459,289.342c0,6.814-5.524,12.338-12.338,12.338s-12.338-5.524-12.338-12.338
		c0-6.814,5.524-12.338,12.338-12.338S147.459,282.528,147.459,289.342z M87.304,324.431v-3.086c0-2.568-2.082-4.649-4.649-4.649
		h-9.31c-2.568,0-4.649,2.082-4.649,4.649v3.086c0,2.568,2.082,4.649,4.649,4.649h9.31C85.223,329.08,87.304,326.999,87.304,324.431
		z M198.971,324.431v-3.086c0-2.568-2.082-4.649-4.649-4.649h-9.31c-2.568,0-4.649,2.082-4.649,4.649v3.086
		c0,2.568,2.082,4.649,4.649,4.649h9.31C196.889,329.08,198.971,326.999,198.971,324.431z"/>
</g>
<g id="nyt_x5F_exporter_x5F_info" display="none">
	<text transform="matrix(1 0 0 1 220 220)" display="inline"><tspan x="0" y="0" font-family="'MyriadPro-Regular'" font-size="12">&lt;nyt_prefs&gt;</tspan><tspan x="0" y="14.4" font-family="'MyriadPro-Regular'" font-size="12">  &lt;nyt_prefix&gt;1F1EA&lt;/nyt_prefix&gt;</tspan><tspan x="0" y="28.8" font-family="'MyriadPro-Regular'" font-size="12">  &lt;nyt_suffix&gt;&lt;/nyt_suffix&gt;</tspan><tspan x="0" y="43.2" font-family="'MyriadPro-Regular'" font-size="12">  &lt;nyt_base_path&gt;~/Dropbox/github/mozilla/fonts/FirefoxOS-Colored-Emoji-Font-Tool/svgs/places&lt;/nyt_base_path&gt;</tspan><tspan x="0" y="57.6" font-family="'MyriadPro-Regular'" font-size="12">  &lt;nyt_scaling&gt;100&lt;/nyt_scaling&gt;</tspan><tspan x="0" y="72" font-family="'MyriadPro-Regular'" font-size="12">  &lt;nyt_transparency&gt;false&lt;/nyt_transparency&gt;</tspan><tspan x="0" y="86.4" font-family="'MyriadPro-Regular'" font-size="12">  &lt;nyt_embedImage&gt;false&lt;/nyt_embedImage&gt;</tspan><tspan x="0" y="100.8" font-family="'MyriadPro-Regular'" font-size="12">  &lt;nyt_trimEdges&gt;false&lt;/nyt_trimEdges&gt;</tspan><tspan x="0" y="115.2" font-family="'MyriadPro-Regular'" font-size="12">  &lt;nyt_innerPadding&gt;false&lt;/nyt_innerPadding&gt;</tspan><tspan x="0" y="129.6" font-family="'MyriadPro-Regular'" font-size="12">  &lt;nyt_format&gt;SVG&lt;/nyt_format&gt;</tspan><tspan x="0" y="144" font-family="'MyriadPro-Regular'" font-size="12">  &lt;nyt_artboards&gt;all&lt;/nyt_artboards&gt;</tspan><tspan x="0" y="158.4" font-family="'MyriadPro-Regular'" font-size="12">  &lt;nyt_layers&gt;all&lt;/nyt_layers&gt;</tspan><tspan x="0" y="172.8" font-family="'MyriadPro-Regular'" font-size="12">  &lt;nyt_exportArtboards&gt;false&lt;/nyt_exportArtboards&gt;</tspan><tspan x="0" y="187.2" font-family="'MyriadPro-Regular'" font-size="12">  &lt;nyt_ignoreWarnings&gt;true&lt;/nyt_ignoreWarnings&gt;</tspan><tspan x="0" y="201.6" font-family="'MyriadPro-Regular'" font-size="12">  &lt;nyt_embedFont&gt;false&lt;/nyt_embedFont&gt;</tspan><tspan x="0" y="216" font-family="'MyriadPro-Regular'" font-size="12">&lt;/nyt_prefs&gt;</tspan></text>
</g>
</svg>
