<?xml version="1.0" encoding="iso-8859-1"?>
<!-- Generator: Adobe Illustrator 18.1.1, SVG Export Plug-In . SVG Version: 6.00 Build 0)  -->
<!DOCTYPE svg PUBLIC "-//W3C//DTD SVG 1.1//EN" "http://www.w3.org/Graphics/SVG/1.1/DTD/svg11.dtd">
<svg version="1.1" xmlns="http://www.w3.org/2000/svg" xmlns:xlink="http://www.w3.org/1999/xlink" x="0px" y="0px"
	 viewBox="0 0 512 512" enable-background="new 0 0 512 512" xml:space="preserve">
<g id="Layer_2">
	<path fill="#597B91" d="M500.951,39.183c0-15.84-12.96-28.8-28.8-28.8H35.636c-14.256,0-25.92,11.664-25.92,25.92v439.394
		c0,14.256,11.664,25.92,25.92,25.92h436.514c15.84,0,28.8-12.96,28.8-28.8V39.183z"/>
</g>
<g id="Layer_3">
	<path fill="#F9F9F7" d="M360.268,165.506c0,29.291-12.328,51.536-34.294,66.02c-8.511,5.612-7.633,18.312,1.606,22.622
		c25.791,12.031,44.073,35.653,44.073,74.209c0,55.439-45.044,102.463-128.203,102.463c-45.532,0-80.8-15.002-106.508-41.128
		c-5.092-5.175-5.003-13.503,0.248-18.516l25.144-24.001c4.971-4.745,12.814-4.881,17.84-0.194
		c17.668,16.476,36.163,23.45,58.326,23.45c30.195,0,51.974-17.324,51.974-48.014c0-34.154-19.304-47.519-54.449-47.519h-12.961
		c-7.993,0-14.081-7.165-12.79-15.053l4.668-28.529c1.025-6.267,6.44-10.867,12.79-10.867h8.293
		c29.204,0,47.519-15.84,47.519-43.064c0-24.254-17.324-38.114-44.053-38.114c-21.049,0-38.876,7.161-55.916,20.873
		c-5.247,4.222-12.877,3.64-17.493-1.264l-21.863-23.23c-5.164-5.487-4.568-14.198,1.274-18.956
		C174.529,93.04,208.715,80.863,248.4,80.863C321.164,80.863,360.268,118.482,360.268,165.506z"/>
</g>
<g id="Layer_4">
	<path fill="#2B5770" d="M475.031,10.383h-0.149v453.166c0,6.6-5.4,12-12,12H9.716v0.149c0,14.256,11.664,25.92,25.92,25.92h439.394
		c14.256,0,25.92-11.664,25.92-25.92V36.303C500.951,22.047,489.287,10.383,475.031,10.383z"/>
</g>
</svg>
