<?xml version="1.0" encoding="iso-8859-1"?>
<!-- Generator: Adobe Illustrator 18.1.1, SVG Export Plug-In . SVG Version: 6.00 Build 0)  -->
<!DOCTYPE svg PUBLIC "-//W3C//DTD SVG 1.1//EN" "http://www.w3.org/Graphics/SVG/1.1/DTD/svg11.dtd">
<svg version="1.1" xmlns="http://www.w3.org/2000/svg" xmlns:xlink="http://www.w3.org/1999/xlink" x="0px" y="0px"
	 viewBox="0 0 512 512" enable-background="new 0 0 512 512" xml:space="preserve">
<g id="Layer_3">
	<path fill="#F9F9F7" d="M335.694,144.222h-96.743c-7.158,0-12.96,5.802-12.96,12.96v37.983c0,8.719,8.428,14.914,16.771,12.38
		c11.111-3.374,22.002-4.914,32.233-4.914c54.943,0,96.522,39.599,96.522,108.898c0,71.278-51.974,119.292-132.162,119.292
		c-45.115,0-77.827-16.667-102.252-41.082c-5.201-5.199-5.008-13.694,0.398-18.68l25.402-23.427
		c5.063-4.669,12.935-4.604,17.826,0.245c14.949,14.817,33.207,23.546,55.655,23.546c33.659,0,53.953-20.79,53.953-58.904
		c0-41.578-19.304-55.439-47.023-55.439c-12.511,0-23.288,2.603-36.795,9.839c-1.884,1.01-3.992,1.546-6.13,1.546h-37.173
		c-7.158,0-12.96-5.802-12.96-12.96V100.753c0-7.158,5.802-12.96,12.96-12.96h177.294c7.964,0,14.043,7.115,12.801,14.981
		l-4.817,30.509C347.501,139.582,342.072,144.222,335.694,144.222z"/>
</g>
<g id="Layer_1">
</g>
</svg>
