<?xml version="1.0" encoding="iso-8859-1"?>
<!-- Generator: Adobe Illustrator 18.1.1, SVG Export Plug-In . SVG Version: 6.00 Build 0)  -->
<!DOCTYPE svg PUBLIC "-//W3C//DTD SVG 1.1//EN" "http://www.w3.org/Graphics/SVG/1.1/DTD/svg11.dtd">
<svg version="1.1" xmlns="http://www.w3.org/2000/svg" xmlns:xlink="http://www.w3.org/1999/xlink" x="0px" y="0px"
	 viewBox="0 0 512 512" enable-background="new 0 0 512 512" xml:space="preserve">
<g id="Layer_3">
	<path fill="#F9F9F7" d="M371.656,166.991c0,23.656-11.091,46.304-35.764,64.62c-7.278,5.403-6.933,16.484,0.74,21.31
		c32.875,20.678,48.388,46.362,48.388,78.902c0,53.953-48.014,98.997-131.667,98.997c-80.684,0-127.708-44.054-127.708-97.513
		c0-32.957,16.115-57,43.779-73.84c7.547-4.594,8.253-15.3,1.467-20.959c-22.82-19.032-31.882-42.288-31.882-67.557
		c0-53.954,49.004-90.088,116.323-90.088C322.652,80.863,371.656,112.047,371.656,166.991z M243.827,273.983
		c-3.909-1.38-8.234-0.791-11.663,1.539c-18.336,12.462-27.32,30.898-27.32,53.826c0,27.224,19.8,44.549,50.984,44.549
		c33.164,0,49.994-18.81,49.994-42.569c0-27.225-14.355-39.6-50.984-53.459L243.827,273.983z M259.768,220.083
		c4.178,1.519,8.86,0.805,12.365-1.929c17.996-14.038,23.295-28.786,23.295-47.203c0-21.78-13.365-36.629-39.599-36.629
		c-24.254,0-40.59,12.375-40.59,37.619c0,22.77,13.365,35.639,40.095,46.529L259.768,220.083z"/>
</g>
<g id="Layer_1">
</g>
</svg>
