<?xml version="1.0" encoding="iso-8859-1"?>
<!-- Generator: Adobe Illustrator 18.1.1, SVG Export Plug-In . SVG Version: 6.00 Build 0)  -->
<!DOCTYPE svg PUBLIC "-//W3C//DTD SVG 1.1//EN" "http://www.w3.org/Graphics/SVG/1.1/DTD/svg11.dtd">
<svg version="1.1" xmlns="http://www.w3.org/2000/svg" xmlns:xlink="http://www.w3.org/1999/xlink" x="0px" y="0px"
	 viewBox="0 0 512 512" enable-background="new 0 0 512 512" xml:space="preserve">
<g id="Layer_2">
	<path fill="#2B3B47" d="M256,42c28.906,0,56.928,5.653,83.287,16.802c25.479,10.776,48.368,26.212,68.034,45.877
		c19.665,19.665,35.101,42.555,45.877,68.034C464.347,199.072,470,227.094,470,256s-5.653,56.928-16.802,83.287
		c-10.776,25.479-26.212,48.368-45.877,68.034c-19.665,19.665-42.555,35.101-68.034,45.877C312.928,464.347,284.906,470,256,470
		s-56.928-5.653-83.287-16.802c-25.479-10.776-48.368-26.212-68.034-45.877c-19.665-19.665-35.101-42.555-45.877-68.034
		C47.653,312.928,42,284.906,42,256s5.653-56.928,16.802-83.287c10.776-25.479,26.212-48.368,45.877-68.034
		c19.665-19.665,42.555-35.101,68.034-45.877C199.072,47.653,227.094,42,256,42 M256,5C117.376,5,5,117.376,5,256
		s112.376,251,251,251s251-112.376,251-251S394.624,5,256,5L256,5z"/>
</g>
<g id="Layer_3">
	<path fill="#2B3B47" d="M256,390.195c-73.996,0-134.195-60.2-134.195-134.195c0-73.996,60.2-134.195,134.195-134.195
		c41.211,0,79.55,18.54,105.188,50.866c6.349,8.005,5.006,19.641-2.999,25.99c-8.004,6.348-19.642,5.008-25.991-2.999
		c-18.577-23.423-46.351-36.857-76.198-36.857c-53.594,0-97.195,43.602-97.195,97.195s43.602,97.195,97.195,97.195
		c29.848,0,57.621-13.435,76.198-36.858c6.351-8.007,17.985-9.345,25.991-2.999c8.005,6.35,9.348,17.985,2.999,25.991
		C335.55,371.655,297.21,390.195,256,390.195z"/>
</g>
</svg>
