<?xml version="1.0" encoding="iso-8859-1"?>
<!-- Generator: Adobe Illustrator 18.1.1, SVG Export Plug-In . SVG Version: 6.00 Build 0)  -->
<!DOCTYPE svg PUBLIC "-//W3C//DTD SVG 1.1//EN" "http://www.w3.org/Graphics/SVG/1.1/DTD/svg11.dtd">
<svg version="1.1" xmlns="http://www.w3.org/2000/svg" xmlns:xlink="http://www.w3.org/1999/xlink" x="0px" y="0px"
	 viewBox="0 0 512 512" enable-background="new 0 0 512 512" xml:space="preserve">
<g id="Layer_4">
	<path fill="#597B91" d="M408.825,152.722c-1.158-0.343-2.874-0.947-5.11-1.525c-2.231-0.506-5.012-1.286-8.266-1.743
		c-1.63-0.256-3.402-0.587-5.263-0.724c-0.943-0.087-1.91-0.177-2.9-0.269c-0.501-0.044-1.008-0.088-1.521-0.132
		c-0.51-0.018-1.026-0.036-1.547-0.054c-4.193-0.169-8.844-0.127-13.788,0.364c-1.246,0.13-2.509,0.262-3.788,0.395
		c-1.27,0.176-2.549,0.393-3.862,0.603c-2.65,0.385-5.272,1.006-8.016,1.622c-1.387,0.289-2.707,0.706-4.091,1.078
		c-1.363,0.397-2.791,0.757-4.155,1.222c-2.74,0.917-5.59,1.85-8.345,2.99c-5.614,2.176-11.149,4.857-16.595,7.865
		c-5.475,2.99-10.687,6.436-15.779,10.081c-5.045,3.677-9.828,7.651-14.344,11.78c-4.448,4.182-8.672,8.479-12.45,12.941
		c-3.793,4.455-7.245,8.968-10.243,13.548c-3.04,4.5-5.599,9.155-7.774,13.518c-0.728,1.509-1.395,3.015-2.024,4.464
		c-0.227-0.545-0.461-1.094-0.704-1.645c-1.832-4.008-3.993-8.324-6.612-12.567c-2.573-4.309-5.573-8.614-8.894-12.904
		c-3.306-4.298-7.043-8.485-10.995-12.599c-4.021-4.062-8.302-8.015-12.85-11.714c-4.593-3.665-9.314-7.177-14.311-10.268
		c-4.969-3.109-10.045-5.934-15.228-8.286c-2.541-1.229-5.182-2.258-7.725-3.281c-1.266-0.519-2.595-0.931-3.865-1.385
		c-1.29-0.428-2.52-0.905-3.817-1.252c-2.565-0.735-5.023-1.482-7.517-1.996c-1.235-0.275-2.441-0.558-3.64-0.801
		c-1.21-0.202-2.405-0.402-3.583-0.598c-4.685-0.766-9.127-1.091-13.161-1.197c-0.502-0.016-0.998-0.033-1.489-0.049
		c-0.494,0.01-0.984,0.02-1.467,0.03c-0.958,0.024-1.893,0.047-2.805,0.069c-1.804,0.006-3.528,0.211-5.119,0.347
		c-3.176,0.216-5.913,0.781-8.118,1.109c-2.211,0.4-3.918,0.863-5.073,1.11c-1.149,0.269-1.762,0.412-1.762,0.412v1.386
		c0,0,0.598,0.165,1.719,0.475c1.114,0.331,2.748,0.715,4.771,1.385c2.015,0.741,4.45,1.467,7.111,2.693
		c1.333,0.585,2.747,1.138,4.177,1.915c0.714,0.365,1.446,0.74,2.195,1.123c0.371,0.19,0.745,0.382,1.124,0.577
		c0.37,0.218,0.744,0.439,1.122,0.662c3.018,1.748,6.15,3.762,9.219,6.153c0.76,0.593,1.531,1.194,2.311,1.803
		c0.745,0.651,1.499,1.309,2.261,1.975c1.529,1.279,2.97,2.772,4.433,4.204c0.743,0.694,1.42,1.518,2.129,2.274
		c0.694,0.785,1.418,1.51,2.081,2.34c1.336,1.643,2.69,3.23,3.923,4.98c2.542,3.377,4.813,7.027,6.868,10.712
		c2.081,3.664,3.806,7.529,5.366,11.273c1.521,3.787,2.751,7.568,3.768,11.191c0.94,3.661,1.721,7.145,2.165,10.414
		c0.458,3.257,0.719,6.264,0.713,8.893c0.07,2.649-0.186,4.875-0.431,6.697c-0.155,0.894-0.361,1.654-0.499,2.368
		c-0.214,0.612-0.411,1.173-0.589,1.681c-0.275,0.068-0.499,0.012-0.656-0.002l-0.111-0.021c-0.038,0.133-0.076,0.359-0.112,0.522
		c-0.072,0.352-0.137,0.671-0.195,0.957c-0.233,1.144-0.358,1.755-0.358,1.755l80.326-2.752c0,0-0.006-0.021-0.007-0.024
		l81.769,2.801c0,0-0.127-0.61-0.366-1.755c-0.06-0.286-0.126-0.606-0.2-0.957c-0.036-0.162-0.076-0.39-0.114-0.521l-0.114,0.033
		c-0.162,0.031-0.392,0.105-0.675,0.057c-0.185-0.497-0.389-1.047-0.612-1.646c-0.147-0.703-0.361-1.452-0.526-2.335
		c-0.265-1.802-0.543-4.009-0.497-6.643c-0.03-2.614,0.205-5.609,0.637-8.857c0.418-3.26,1.171-6.737,2.083-10.395
		c0.989-3.619,2.19-7.399,3.683-11.187c1.532-3.745,3.23-7.615,5.284-11.284c2.029-3.691,4.273-7.349,6.791-10.736
		c1.221-1.756,2.564-3.347,3.888-4.997c0.658-0.832,1.377-1.56,2.065-2.349c0.703-0.76,1.376-1.587,2.114-2.284
		c1.453-1.439,2.884-2.939,4.405-4.225c0.758-0.67,1.508-1.332,2.249-1.986c0.776-0.612,1.543-1.217,2.299-1.814
		c3.054-2.407,6.174-4.437,9.183-6.2c0.377-0.225,0.75-0.448,1.118-0.668c0.378-0.196,0.752-0.391,1.121-0.582
		c0.748-0.387,1.478-0.765,2.19-1.134c1.427-0.784,2.838-1.345,4.169-1.937c2.656-1.24,5.088-1.978,7.102-2.728
		c2.021-0.68,3.654-1.072,4.768-1.408c1.121-0.315,1.719-0.483,1.719-0.483v-1.386C410.59,153.281,409.976,153.086,408.825,152.722z
		"/>
</g>
<g id="Layer_1">
</g>
</svg>
