<?xml version="1.0" encoding="iso-8859-1"?>
<!-- Generator: Adobe Illustrator 18.1.1, SVG Export Plug-In . SVG Version: 6.00 Build 0)  -->
<!DOCTYPE svg PUBLIC "-//W3C//DTD SVG 1.1//EN" "http://www.w3.org/Graphics/SVG/1.1/DTD/svg11.dtd">
<svg version="1.1" xmlns="http://www.w3.org/2000/svg" xmlns:xlink="http://www.w3.org/1999/xlink" x="0px" y="0px"
	 viewBox="0 0 512 512" enable-background="new 0 0 512 512" xml:space="preserve">
<g id="Layer_2">
	<path fill="#E5E4DF" d="M423.403,512H88.597c-7.953,0-14.4-6.447-14.4-14.4V18.117c0-7.953,6.447-14.4,14.4-14.4h334.806
		c7.953,0,14.4,6.447,14.4,14.4V497.6C437.803,505.553,431.356,512,423.403,512z"/>
</g>
<g id="Layer_3">
	<path fill="#FF473E" d="M367.514,135.232c-8.45-3.856-18.151-1.421-23.885,5.32l-83.549,14.142
		c-0.067-2.041-0.14-4.052-0.219-6.025c-0.34-8.44-0.782-16.23-1.364-23.254c-0.63-7.03-1.338-13.293-2.358-18.759
		c-1.011-5.462-2.213-10.189-4.127-14.582c-0.257-0.562-0.5-1.091-0.727-1.587c-0.058-0.123-0.116-0.244-0.172-0.363l-0.125-0.245
		l-0.175-0.323c-0.233-0.426-0.468-0.833-0.701-1.221c-0.466-0.776-0.931-1.469-1.369-2.086c-0.223-0.304-0.436-0.593-0.638-0.867
		c-0.067-0.08-0.13-0.155-0.19-0.226c-0.432-0.507-0.655-0.769-0.655-0.769c-6.169-7.218-17.013-8.444-24.624-2.586
		c-7.626,5.871-9.21,16.653-3.769,24.468c0.002,0.01,0,0.021,0.004,0.031c0.122,0.349,0.969,2.953,1.673,6.966
		c0.725,4.007,1.555,9.347,2.25,15.666c0.727,6.327,1.377,13.637,1.953,21.682c0.229,3.203,0.445,6.528,0.65,9.953l-57.792,9.782
		c-0.109-0.19-0.217-0.379-0.32-0.555c-0.137-0.225-0.267-0.44-0.391-0.644c-0.122-0.196-0.147-0.208-0.219-0.313
		c-0.488-0.655-0.749-1.004-0.749-1.004c-4.267-5.736-12.19-7.682-18.721-4.256c-7.23,3.793-10.017,12.729-6.224,19.96l0.063,0.119
		c0,0,0.203,0.386,0.582,1.11c0.032,0.069,0.135,0.233,0.117,0.239l-0.066-0.005c-0.04-0.009-0.077-0.023-0.107-0.045
		c-0.015-0.011-0.029-0.023-0.039-0.038c-0.005,0,0.044,0.154,0.066,0.227c0.055,0.187,0.119,0.382,0.196,0.583
		c0.074,0.181,0.157,0.449,0.244,0.738c0.089,0.281,0.182,0.575,0.278,0.881c0.207,0.688,0.43,1.431,0.669,2.226
		c0.458,1.697,1.043,3.662,1.603,5.969c0.611,2.267,1.205,4.824,1.874,7.554c0.668,2.733,1.377,5.656,2.064,8.713
		c1.38,6.114,2.66,12.766,3.923,19.446c1.216,6.69,2.366,13.423,3.362,19.751c0.484,3.167,0.953,6.229,1.397,9.132
		c0.364,2.579,0.709,5.024,1.032,7.317c-0.079,0.561-0.128,1.131-0.119,1.715c0.024,1.486,0.344,2.898,0.899,4.183
		c0.085,0.653,0.169,1.29,0.248,1.898c0.248,2.057,0.463,3.85,0.641,5.327c0.336,2.947,0.528,4.631,0.528,4.631l0.023,0.22
		c0.457,4.032,3.696,7.322,7.895,7.695c4.797,0.426,9.032-3.118,9.458-7.915c0,0,0.159-1.792,0.438-4.928
		c0.011-0.137,0.022-0.289,0.033-0.431l50.3-0.813c0.091,8.162,0.181,16.3,0.27,24.343c0.095,10.821,0.188,21.471,0.278,31.777
		c0.116,10.315,0.229,20.287,0.335,29.743c0.135,9.465,0.263,18.413,0.381,26.673c0.089,8.264,0.285,15.845,0.684,22.572
		c0.382,6.726,0.915,12.598,1.472,17.436c0.565,4.838,1.142,8.644,1.585,11.239c0.448,2.597,0.753,3.98,0.753,3.98
		c0.648,2.905,2.908,5.334,6.004,6.035c4.28,0.969,8.536-1.715,9.506-5.995l0.009-0.039c0,0,0.31-1.369,0.765-3.932
		c0.461-2.566,1.069-6.327,1.716-11.12c0.634-4.793,1.289-10.616,1.843-17.304c0.569-6.687,0.98-14.24,1.317-22.485
		c0.372-8.249,0.776-17.186,1.203-26.638c0.388-9.461,0.797-19.439,1.219-29.76c0.435-10.326,0.741-21.002,1.077-31.855
		c0.23-8.315,0.462-16.731,0.696-25.171l88.741-1.434c6.077-0.099,10.924-5.104,10.826-11.182c-0.066-4.003-2.278-7.461-5.504-9.335
		c0.298-2.846,0.75-6.855,1.363-11.637c1.253-9.839,3.239-22.934,5.898-35.645c0.663-3.177,1.373-6.323,2.107-9.391
		c0.748-3.058,1.513-6.043,2.315-8.87c0.799-2.829,1.612-5.523,2.444-7.993c0.413-1.239,0.812-2.444,1.236-3.558
		c0.412-1.129,0.803-2.224,1.219-3.211c0.791-2.035,1.582-3.766,2.278-5.26c0.357-0.718,0.691-1.389,1-2.01
		c0.287-0.527,0.505-0.844,0.712-1.222c0.099-0.178,0.193-0.347,0.282-0.505l0.064-0.118l0.119-0.197
		c0.08-0.133,0.158-0.261,0.233-0.384c0.3-0.494,0.554-0.913,0.761-1.254c0.413-0.681,0.634-1.044,0.634-1.044l0.086-0.138
		c0.383-0.641,0.735-1.31,1.052-2.006C382.216,151.935,377.718,139.888,367.514,135.232z M219.979,107.878
		c-0.231-0.259-0.47-0.56-0.69-0.91c-0.101-0.16-0.198-0.333-0.292-0.511c0.124,0.174,0.233,0.355,0.364,0.526l0.203,0.263
		c0,0,0.21,0.273,0.617,0.801c0.042,0.056,0.126,0.159,0.141,0.188C220.21,108.126,220.095,108.007,219.979,107.878z
		 M333.611,164.571c-0.393,1.41-0.727,2.847-1.076,4.336c-0.372,1.512-0.688,3.051-1.014,4.632c-0.66,3.166-1.242,6.462-1.779,9.852
		c-0.54,3.39-1.005,6.863-1.436,10.378c-0.414,3.512-0.784,7.064-1.097,10.601c-1.254,14.149-1.704,28.102-1.804,38.57
		c-0.053,5.154-0.03,9.452,0.012,12.516l-65.199,1.054c0.11-6.266,0.195-12.513,0.28-18.705c0.135-10.886,0.218-21.61,0.233-32.005
		c0.014-9.977-0.03-19.642-0.153-28.867L333.611,164.571z M227.325,206.247c0.288,10.242,0.518,20.845,0.703,31.63
		c0.089,6.335,0.179,12.732,0.269,19.15l-49.109,0.794c0.03-2.787,0.063-5.7,0.022-8.707c-0.035-3.332-0.088-6.775-0.186-10.276
		c-0.092-3.501-0.264-7.057-0.44-10.619c-0.2-3.562-0.381-7.131-0.683-10.648c-0.277-3.517-0.599-6.99-0.951-10.365
		c-0.355-3.376-0.74-6.658-1.209-9.791c-0.31-2.054-0.665-4.031-1.043-5.943l51.808-8.769
		C226.82,190.265,227.092,198.142,227.325,206.247z"/>
</g>
</svg>
