<?xml version="1.0" encoding="iso-8859-1"?>
<!-- Generator: Adobe Illustrator 18.1.1, SVG Export Plug-In . SVG Version: 6.00 Build 0)  -->
<!DOCTYPE svg PUBLIC "-//W3C//DTD SVG 1.1//EN" "http://www.w3.org/Graphics/SVG/1.1/DTD/svg11.dtd">
<svg version="1.1" xmlns="http://www.w3.org/2000/svg" xmlns:xlink="http://www.w3.org/1999/xlink" x="0px" y="0px"
	 viewBox="0 0 512 512" enable-background="new 0 0 512 512" xml:space="preserve">
<g id="Layer_9">
	<path fill="#2B3B47" d="M142.266,153.974c0,8.344-6.764,15.109-15.109,15.109s-15.109-6.764-15.109-15.109
		s6.764-15.109,15.109-15.109S142.266,145.629,142.266,153.974z M404.307,138.865c-8.344,0-15.109,6.764-15.109,15.109
		s6.764,15.109,15.109,15.109c8.344,0,15.109-6.764,15.109-15.109S412.651,138.865,404.307,138.865z M230.406,244.416
		c-5.731,0-10.377,4.646-10.377,10.377v15.886c0,5.731,4.646,10.377,10.377,10.377l0,0c5.731,0,10.377-4.646,10.377-10.377v-15.886
		C240.783,249.062,236.137,244.416,230.406,244.416L230.406,244.416z M301.782,244.416c-5.731,0-10.377,4.646-10.377,10.377v15.886
		c0,5.731,4.646,10.377,10.377,10.377l0,0c5.731,0,10.377-4.646,10.377-10.377v-15.886
		C312.159,249.062,307.513,244.416,301.782,244.416L301.782,244.416z"/>
</g>
<g id="Layer_1">
</g>
</svg>
