<?xml version="1.0" encoding="iso-8859-1"?>
<!-- Generator: Adobe Illustrator 19.1.0, SVG Export Plug-In . SVG Version: 6.00 Build 0)  -->
<!DOCTYPE svg PUBLIC "-//W3C//DTD SVG 1.1//EN" "http://www.w3.org/Graphics/SVG/1.1/DTD/svg11.dtd">
<svg version="1.1" xmlns="http://www.w3.org/2000/svg" xmlns:xlink="http://www.w3.org/1999/xlink" x="0px" y="0px"
	 viewBox="0 0 512 512" enable-background="new 0 0 512 512" xml:space="preserve">
<g id="Layer_2">
	<path fill="#132028" d="M496,496h-40v-16h24v-24h16V496z M430.468,480h-68.085v16h68.085V480z M336.851,480h-68.085v16h68.085V480z
		 M243.234,480h-68.085v16h68.085V480z M149.617,480H81.532v16h68.085V480z M56,480H32v-24H16v40h40V480z M32,362.383H16v68.085h16
		V362.383z M32,268.766H16v68.085h16V268.766z M32,175.148H16v68.085h16V175.148z M32,81.532H16v68.085h16V81.532z M32,32h24V16H16
		v40h16V32z M430.468,16h-68.085v16h68.085V16z M336.851,16h-68.085v16h68.085V16z M243.234,16h-68.085v16h68.085V16z M149.617,16
		H81.532v16h68.085V16z M496,16h-40v16h24v24h16V16z M496,362.383h-16v68.085h16V362.383z M496,268.766h-16v68.085h16V268.766z
		 M496,175.149h-16v68.085h16V175.149z M496,81.532h-16v68.085h16V81.532z"/>
</g>
<g id="Layer_3">
	<path fill="#132028" d="M367.961,116.125l-22.748,27.104c-21.296-16.94-41.14-24.684-65.339-24.684
		c-52.271,0-95.347,35.332-95.347,137.454c0,97.283,41.624,136.486,94.862,136.486c31.943,0,52.271-13.552,71.147-28.071
		l21.296,27.104c-18.393,18.876-49.852,36.784-93.895,36.784c-79.859,0-137.938-60.5-137.938-172.303
		c0-113.254,61.951-172.301,137.454-172.301C318.593,83.698,341.825,95.314,367.961,116.125z"/>
</g>
</svg>
