<?xml version="1.0" encoding="iso-8859-1"?>
<!-- Generator: Adobe Illustrator 18.1.1, SVG Export Plug-In . SVG Version: 6.00 Build 0)  -->
<!DOCTYPE svg PUBLIC "-//W3C//DTD SVG 1.1//EN" "http://www.w3.org/Graphics/SVG/1.1/DTD/svg11.dtd">
<svg version="1.1" xmlns="http://www.w3.org/2000/svg" xmlns:xlink="http://www.w3.org/1999/xlink" x="0px" y="0px"
	 viewBox="0 0 512 512" enable-background="new 0 0 512 512" xml:space="preserve">
<g id="Layer_2">
	<path fill="#E8E8E8" d="M509.619,108.728v26.629c-169.54-52.36-339.079,52.36-508.619,0v-26.629
		C170.54,161.088,340.079,56.369,509.619,108.728z M1,161.986v8.875v17.754c169.54,52.36,339.079-52.36,508.619,0v-17.754v-8.875
		C340.079,109.627,170.54,214.346,1,161.986z M1,215.245v8.875v11.267v1.196v5.29c169.54,52.36,339.079-52.36,508.619,0v-5.29
		v-1.196V224.12v-8.875C340.079,162.885,170.54,267.604,1,215.245z M1,268.503v3.585v5.29v11.267v1.196v5.288v0.003
		c169.54,52.36,339.079-52.36,508.619,0v-0.003v-5.288v-1.196v-11.267v-5.29v-3.585C340.079,216.143,170.54,320.862,1,268.503z
		 M1,321.761v3.585v5.29v1.193v1.196v8.878v1.196v5.288v0.003c169.54,52.36,339.079-52.36,508.619,0v-0.003V343.1v-1.196v-8.878
		v-1.196v-1.193v-5.29v-3.585C340.079,269.401,170.54,374.121,1,321.761z M1,375.019v3.585v5.29v1.193v1.196v8.878v1.193v0.003
		v5.288v0.003c169.54,52.36,339.079-52.36,508.619,0v-0.003v-5.288v-0.003v-1.193v-8.878v-1.196v-1.193v-5.29v-3.585
		C340.079,322.66,170.54,427.379,1,375.019z"/>
</g>
<g id="Layer_3">
	<path fill="#FF473E" d="M22.051,87.816c158.611,37.323,317.223-51.454,475.834-9.093c6.924,1.849,11.734,8.14,11.734,15.307v14.699
		c-169.54-52.36-339.079,52.36-508.619,0v-4.282C1,93.405,11.303,85.286,22.051,87.816z M1,135.357v8.875v17.754
		c169.54,52.36,339.079-52.36,508.619,0v-17.754v-8.875C340.079,82.998,170.54,187.717,1,135.357z M1,188.616v8.875v11.267v1.196
		v5.291c169.54,52.36,339.079-52.36,508.619,0v-5.291v-1.196v-11.267v-8.875C340.079,136.256,170.54,240.975,1,188.616z M1,241.874
		v8.875v11.267v1.196v5.288v0.003c169.54,52.36,339.079-52.36,508.619,0V268.5v-5.288v-1.196v-11.267v-8.875
		C340.079,189.514,170.54,294.233,1,241.874z M1,295.132v3.585v5.29v11.267v1.196v5.288v0.003c169.54,52.36,339.079-52.36,508.619,0
		v-0.003v-5.288v-1.196v-11.267v-5.29v-3.585C340.079,242.772,170.54,347.492,1,295.132z M1,348.39v3.585v5.29v1.193v1.196v8.878
		v1.196v5.288v0.003c169.54,52.36,339.079-52.36,508.619,0v-0.003v-5.288v-1.196v-8.878v-1.196v-1.193v-5.29v-3.585
		C340.079,296.03,170.54,400.75,1,348.39z M1,401.648v3.585v5.29v5.823c0,7.167,4.81,13.458,11.734,15.307
		c159.129,42.499,318.258-46.998,477.387-8.724c9.944,2.392,19.499-5.177,19.499-15.405v-2.293v-3.585
		C340.079,349.289,170.54,454.008,1,401.648z"/>
</g>
<g id="Layer_4">
	<path fill="#0B67B2" d="M241.405,270.643V84.239c-73.635,11.269-147.271,20.918-220.906,3.207C10.555,85.054,1,92.623,1,102.851
		v5.878v26.629v8.875v17.754v8.875v17.754v8.875v11.267v1.196v5.291v8.875v11.267v1.196v5.29v8.875v11.267v1.196v5.288v0.003
		C81.135,293.251,161.27,282.906,241.405,270.643z"/>
</g>
<g id="Layer_5">
	<path fill="#FFD469" d="M13.51,110.627l-3.94,2.071c-0.584,0.307-1.267-0.189-1.156-0.84l0.752-4.387
		c0.044-0.258-0.041-0.522-0.229-0.705l-3.187-3.107c-0.473-0.461-0.212-1.263,0.441-1.358l4.405-0.64
		c0.259-0.038,0.484-0.201,0.6-0.436l1.97-3.992c0.292-0.592,1.136-0.592,1.428,0l1.97,3.992c0.116,0.235,0.34,0.398,0.6,0.436
		l4.405,0.64c0.653,0.095,0.914,0.898,0.441,1.358l-3.187,3.107c-0.188,0.183-0.273,0.447-0.229,0.705l0.752,4.387
		c0.112,0.651-0.571,1.147-1.156,0.84l-3.94-2.071C14.019,110.505,13.742,110.505,13.51,110.627z M98.951,120.281l3.94,2.071
		c0.584,0.307,1.267-0.189,1.156-0.84l-0.752-4.387c-0.044-0.258,0.041-0.522,0.229-0.705l3.187-3.107
		c0.473-0.461,0.212-1.263-0.441-1.358l-4.405-0.64c-0.259-0.038-0.484-0.201-0.6-0.436l-1.97-3.992
		c-0.292-0.592-1.136-0.592-1.428,0l-1.97,3.992c-0.116,0.235-0.34,0.398-0.6,0.436l-4.405,0.64
		c-0.653,0.095-0.914,0.898-0.441,1.358l3.187,3.107c0.188,0.183,0.273,0.447,0.229,0.705l-0.752,4.387
		c-0.112,0.651,0.571,1.147,1.156,0.84l3.94-2.071C98.441,120.159,98.719,120.159,98.951,120.281z M56.601,117.875l3.94,2.071
		c0.584,0.307,1.267-0.189,1.156-0.84l-0.752-4.387c-0.044-0.258,0.041-0.522,0.229-0.705l3.187-3.107
		c0.473-0.461,0.212-1.263-0.441-1.358l-4.405-0.64c-0.259-0.038-0.484-0.201-0.6-0.436l-1.97-3.992
		c-0.292-0.592-1.136-0.592-1.428,0l-1.97,3.992c-0.116,0.235-0.34,0.398-0.6,0.436l-4.405,0.64
		c-0.653,0.095-0.914,0.898-0.441,1.358l3.187,3.107c0.188,0.183,0.273,0.447,0.229,0.705l-0.752,4.387
		c-0.112,0.651,0.571,1.147,1.156,0.84l3.94-2.071C56.092,117.754,56.369,117.754,56.601,117.875z M141.3,120.281l3.94,2.071
		c0.584,0.307,1.267-0.189,1.156-0.84l-0.752-4.387c-0.044-0.258,0.041-0.522,0.229-0.705l3.187-3.107
		c0.473-0.461,0.212-1.263-0.441-1.358l-4.405-0.64c-0.259-0.038-0.484-0.201-0.6-0.436l-1.97-3.992
		c-0.292-0.592-1.136-0.592-1.428,0l-1.97,3.992c-0.116,0.235-0.34,0.398-0.6,0.436l-4.405,0.64
		c-0.653,0.095-0.914,0.898-0.441,1.358l3.187,3.107c0.188,0.183,0.273,0.447,0.229,0.705l-0.752,4.387
		c-0.112,0.651,0.571,1.147,1.156,0.84l3.94-2.071C140.791,120.159,141.068,120.159,141.3,120.281z M183.65,116.942l3.94,2.071
		c0.584,0.307,1.267-0.189,1.156-0.84l-0.752-4.387c-0.044-0.258,0.041-0.522,0.229-0.705l3.187-3.107
		c0.473-0.461,0.212-1.263-0.441-1.358l-4.405-0.64c-0.259-0.038-0.484-0.201-0.6-0.436l-1.97-3.992
		c-0.292-0.592-1.136-0.592-1.428,0l-1.97,3.992c-0.116,0.235-0.34,0.398-0.6,0.436l-4.405,0.64
		c-0.653,0.095-0.914,0.898-0.441,1.358l3.187,3.107c0.188,0.183,0.273,0.447,0.229,0.705l-0.752,4.387
		c-0.112,0.651,0.571,1.147,1.156,0.84l3.94-2.071C183.141,116.82,183.418,116.82,183.65,116.942z M226,110.596l3.94,2.071
		c0.584,0.307,1.267-0.189,1.156-0.84l-0.752-4.387c-0.044-0.258,0.041-0.522,0.229-0.705l3.187-3.107
		c0.473-0.461,0.212-1.263-0.441-1.358l-4.405-0.64c-0.259-0.038-0.484-0.201-0.6-0.436l-1.97-3.992
		c-0.292-0.592-1.136-0.592-1.428,0l-1.97,3.992c-0.116,0.235-0.34,0.398-0.6,0.436l-4.405,0.64
		c-0.653,0.095-0.914,0.898-0.441,1.358l3.187,3.107c0.188,0.183,0.273,0.447,0.229,0.705l-0.752,4.387
		c-0.112,0.651,0.571,1.147,1.156,0.84l3.94-2.071C225.491,110.474,225.768,110.474,226,110.596z M34.426,129.313l3.94,2.071
		c0.584,0.307,1.267-0.189,1.156-0.84l-0.752-4.387c-0.044-0.258,0.041-0.522,0.229-0.705l3.187-3.107
		c0.473-0.461,0.212-1.263-0.441-1.358l-4.405-0.64c-0.259-0.038-0.484-0.201-0.6-0.436l-1.97-3.992
		c-0.292-0.592-1.136-0.592-1.428,0l-1.97,3.992c-0.116,0.235-0.34,0.398-0.6,0.436l-4.405,0.64
		c-0.653,0.095-0.914,0.898-0.441,1.358l3.187,3.107c0.188,0.183,0.273,0.447,0.229,0.705l-0.752,4.387
		c-0.112,0.651,0.571,1.147,1.156,0.84l3.94-2.071C33.917,129.191,34.194,129.191,34.426,129.313z M119.125,138.968l3.94,2.071
		c0.584,0.307,1.267-0.189,1.156-0.84l-0.752-4.387c-0.044-0.258,0.041-0.522,0.229-0.705l3.187-3.107
		c0.473-0.461,0.212-1.263-0.441-1.358l-4.405-0.64c-0.259-0.038-0.484-0.201-0.6-0.436l-1.97-3.992
		c-0.292-0.592-1.136-0.592-1.428,0l-1.97,3.992c-0.116,0.235-0.34,0.398-0.6,0.436l-4.405,0.64
		c-0.653,0.095-0.914,0.898-0.441,1.358l3.187,3.107c0.188,0.183,0.273,0.447,0.229,0.705l-0.752,4.387
		c-0.112,0.651,0.571,1.147,1.156,0.84l3.94-2.071C118.616,138.846,118.893,138.846,119.125,138.968z M76.776,136.562l3.94,2.071
		c0.584,0.307,1.267-0.189,1.156-0.84l-0.752-4.387c-0.044-0.258,0.041-0.522,0.229-0.705l3.187-3.107
		c0.473-0.461,0.212-1.263-0.441-1.358l-4.405-0.64c-0.259-0.038-0.484-0.201-0.6-0.436l-1.97-3.992
		c-0.292-0.592-1.136-0.592-1.428,0l-1.97,3.992c-0.116,0.235-0.34,0.398-0.6,0.436l-4.405,0.64
		c-0.653,0.095-0.914,0.898-0.441,1.358l3.187,3.107c0.188,0.183,0.273,0.447,0.229,0.705l-0.752,4.387
		c-0.112,0.651,0.571,1.147,1.156,0.84l3.94-2.071C76.266,136.44,76.544,136.44,76.776,136.562z M161.475,138.968l3.94,2.071
		c0.584,0.307,1.267-0.189,1.156-0.84l-0.752-4.387c-0.044-0.258,0.041-0.522,0.229-0.705l3.187-3.107
		c0.473-0.461,0.212-1.263-0.441-1.358l-4.405-0.64c-0.259-0.038-0.484-0.201-0.6-0.436l-1.97-3.992
		c-0.292-0.592-1.136-0.592-1.428,0l-1.97,3.992c-0.116,0.235-0.34,0.398-0.6,0.436l-4.405,0.64
		c-0.653,0.095-0.914,0.898-0.441,1.358l3.187,3.107c0.188,0.183,0.273,0.447,0.229,0.705l-0.752,4.387
		c-0.112,0.651,0.571,1.147,1.156,0.84l3.94-2.071C160.966,138.846,161.243,138.846,161.475,138.968z M203.825,135.629l3.94,2.071
		c0.584,0.307,1.267-0.189,1.156-0.84l-0.752-4.387c-0.044-0.258,0.041-0.522,0.229-0.705l3.187-3.107
		c0.473-0.461,0.212-1.263-0.441-1.358l-4.405-0.64c-0.259-0.038-0.484-0.201-0.6-0.436l-1.97-3.992
		c-0.292-0.592-1.136-0.592-1.428,0l-1.97,3.992c-0.116,0.235-0.34,0.398-0.6,0.436l-4.405,0.64
		c-0.653,0.095-0.914,0.898-0.441,1.358l3.187,3.107c0.188,0.183,0.273,0.447,0.229,0.705l-0.752,4.387
		c-0.112,0.651,0.571,1.147,1.156,0.84l3.94-2.071C203.316,135.507,203.593,135.507,203.825,135.629z M34.426,167.062l3.94,2.071
		c0.584,0.307,1.267-0.189,1.156-0.84l-0.752-4.387c-0.044-0.258,0.041-0.522,0.229-0.705l3.187-3.107
		c0.473-0.461,0.212-1.263-0.441-1.358l-4.405-0.64c-0.259-0.038-0.484-0.201-0.6-0.436l-1.97-3.992
		c-0.292-0.592-1.136-0.592-1.428,0l-1.97,3.992c-0.116,0.235-0.34,0.398-0.6,0.436l-4.405,0.64
		c-0.653,0.095-0.914,0.898-0.441,1.358l3.187,3.107c0.188,0.183,0.273,0.447,0.229,0.705l-0.752,4.387
		c-0.112,0.651,0.571,1.147,1.156,0.84l3.94-2.071C33.917,166.94,34.194,166.94,34.426,167.062z M119.125,176.717l3.94,2.071
		c0.584,0.307,1.267-0.189,1.156-0.84l-0.752-4.387c-0.044-0.258,0.041-0.522,0.229-0.705l3.187-3.107
		c0.473-0.461,0.212-1.263-0.441-1.358l-4.405-0.64c-0.259-0.038-0.484-0.201-0.6-0.436l-1.97-3.992
		c-0.292-0.592-1.136-0.592-1.428,0l-1.97,3.992c-0.116,0.235-0.34,0.398-0.6,0.436l-4.405,0.64
		c-0.653,0.095-0.914,0.898-0.441,1.358l3.187,3.107c0.188,0.183,0.273,0.447,0.229,0.705l-0.752,4.387
		c-0.112,0.651,0.571,1.147,1.156,0.84l3.94-2.071C118.616,176.595,118.893,176.595,119.125,176.717z M76.776,174.311l3.94,2.071
		c0.584,0.307,1.267-0.189,1.156-0.84l-0.752-4.387c-0.044-0.258,0.041-0.522,0.229-0.705l3.187-3.107
		c0.473-0.461,0.212-1.263-0.441-1.358l-4.405-0.64c-0.259-0.038-0.484-0.201-0.6-0.436l-1.97-3.992
		c-0.292-0.592-1.136-0.592-1.428,0l-1.97,3.992c-0.116,0.235-0.34,0.398-0.6,0.436l-4.405,0.64
		c-0.653,0.095-0.914,0.898-0.441,1.358l3.187,3.107c0.188,0.183,0.273,0.447,0.229,0.705l-0.752,4.387
		c-0.112,0.651,0.571,1.147,1.156,0.84l3.94-2.071C76.266,174.189,76.544,174.189,76.776,174.311z M161.475,176.717l3.94,2.071
		c0.584,0.307,1.267-0.189,1.156-0.84l-0.752-4.387c-0.044-0.258,0.041-0.522,0.229-0.705l3.187-3.107
		c0.473-0.461,0.212-1.263-0.441-1.358l-4.405-0.64c-0.259-0.038-0.484-0.201-0.6-0.436l-1.97-3.992
		c-0.292-0.592-1.136-0.592-1.428,0l-1.97,3.992c-0.116,0.235-0.34,0.398-0.6,0.436l-4.405,0.64
		c-0.653,0.095-0.914,0.898-0.441,1.358l3.187,3.107c0.188,0.183,0.273,0.447,0.229,0.705l-0.752,4.387
		c-0.112,0.651,0.571,1.147,1.156,0.84l3.94-2.071C160.966,176.595,161.243,176.595,161.475,176.717z M203.825,173.378l3.94,2.071
		c0.584,0.307,1.267-0.189,1.156-0.84l-0.752-4.387c-0.044-0.258,0.041-0.522,0.229-0.705l3.187-3.107
		c0.473-0.461,0.212-1.263-0.441-1.358l-4.405-0.64c-0.259-0.038-0.484-0.201-0.6-0.436l-1.97-3.992
		c-0.292-0.592-1.136-0.592-1.428,0l-1.97,3.992c-0.116,0.235-0.34,0.398-0.6,0.436l-4.405,0.64
		c-0.653,0.095-0.914,0.898-0.441,1.358l3.187,3.107c0.188,0.183,0.273,0.447,0.229,0.705l-0.752,4.387
		c-0.112,0.651,0.571,1.147,1.156,0.84l3.94-2.071C203.316,173.256,203.593,173.256,203.825,173.378z M34.426,203.811l3.94,2.071
		c0.584,0.307,1.267-0.189,1.156-0.84l-0.752-4.387c-0.044-0.258,0.041-0.522,0.229-0.705l3.187-3.107
		c0.473-0.461,0.212-1.263-0.441-1.358l-4.405-0.64c-0.259-0.038-0.484-0.201-0.6-0.436l-1.97-3.992
		c-0.292-0.592-1.136-0.592-1.428,0l-1.97,3.992c-0.116,0.235-0.34,0.398-0.6,0.436l-4.405,0.64
		c-0.653,0.095-0.914,0.898-0.441,1.358l3.187,3.107c0.188,0.183,0.273,0.447,0.229,0.705l-0.752,4.387
		c-0.112,0.651,0.571,1.147,1.156,0.84l3.94-2.071C33.917,203.689,34.194,203.689,34.426,203.811z M119.125,213.466l3.94,2.071
		c0.584,0.307,1.267-0.189,1.156-0.84l-0.752-4.387c-0.044-0.258,0.041-0.522,0.229-0.705l3.187-3.107
		c0.473-0.461,0.212-1.263-0.441-1.358l-4.405-0.64c-0.259-0.038-0.484-0.201-0.6-0.436l-1.97-3.992
		c-0.292-0.592-1.136-0.592-1.428,0l-1.97,3.992c-0.116,0.235-0.34,0.398-0.6,0.436l-4.405,0.64
		c-0.653,0.095-0.914,0.898-0.441,1.358l3.187,3.107c0.188,0.183,0.273,0.447,0.229,0.705l-0.752,4.387
		c-0.112,0.651,0.571,1.147,1.156,0.84l3.94-2.071C118.616,213.344,118.893,213.344,119.125,213.466z M76.776,211.06l3.94,2.071
		c0.584,0.307,1.267-0.189,1.156-0.84l-0.752-4.387c-0.044-0.258,0.041-0.522,0.229-0.705l3.187-3.107
		c0.473-0.461,0.212-1.263-0.441-1.358l-4.405-0.64c-0.259-0.038-0.484-0.201-0.6-0.436l-1.97-3.992
		c-0.292-0.592-1.136-0.592-1.428,0l-1.97,3.992c-0.116,0.235-0.34,0.398-0.6,0.436l-4.405,0.64
		c-0.653,0.095-0.914,0.898-0.441,1.358l3.187,3.107c0.188,0.183,0.273,0.447,0.229,0.705l-0.752,4.387
		c-0.112,0.651,0.571,1.147,1.156,0.84l3.94-2.071C76.266,210.938,76.544,210.938,76.776,211.06z M161.475,213.466l3.94,2.071
		c0.584,0.307,1.267-0.189,1.156-0.84l-0.752-4.387c-0.044-0.258,0.041-0.522,0.229-0.705l3.187-3.107
		c0.473-0.461,0.212-1.263-0.441-1.358l-4.405-0.64c-0.259-0.038-0.484-0.201-0.6-0.436l-1.97-3.992
		c-0.292-0.592-1.136-0.592-1.428,0l-1.97,3.992c-0.116,0.235-0.34,0.398-0.6,0.436l-4.405,0.64
		c-0.653,0.095-0.914,0.898-0.441,1.358l3.187,3.107c0.188,0.183,0.273,0.447,0.229,0.705l-0.752,4.387
		c-0.112,0.651,0.571,1.147,1.156,0.84l3.94-2.071C160.966,213.344,161.243,213.344,161.475,213.466z M203.825,210.127l3.94,2.071
		c0.584,0.307,1.267-0.189,1.156-0.84l-0.752-4.387c-0.044-0.258,0.041-0.522,0.229-0.705l3.187-3.107
		c0.473-0.461,0.212-1.263-0.441-1.358l-4.405-0.64c-0.259-0.038-0.484-0.201-0.6-0.436l-1.97-3.992
		c-0.292-0.592-1.136-0.592-1.428,0l-1.97,3.992c-0.116,0.235-0.34,0.398-0.6,0.436l-4.405,0.64
		c-0.653,0.095-0.914,0.898-0.441,1.358l3.187,3.107c0.188,0.183,0.273,0.447,0.229,0.705l-0.752,4.387
		c-0.112,0.651,0.571,1.147,1.156,0.84l3.94-2.071C203.316,210.005,203.593,210.005,203.825,210.127z M34.426,241.561l3.94,2.071
		c0.584,0.307,1.267-0.189,1.156-0.84l-0.752-4.387c-0.044-0.258,0.041-0.522,0.229-0.705l3.187-3.107
		c0.473-0.461,0.212-1.263-0.441-1.358l-4.405-0.64c-0.259-0.038-0.484-0.201-0.6-0.436l-1.97-3.992
		c-0.292-0.592-1.136-0.592-1.428,0l-1.97,3.992c-0.116,0.235-0.34,0.398-0.6,0.436l-4.405,0.64
		c-0.653,0.095-0.914,0.898-0.441,1.358l3.187,3.107c0.188,0.183,0.273,0.447,0.229,0.705l-0.752,4.387
		c-0.112,0.651,0.571,1.147,1.156,0.84l3.94-2.071C33.917,241.439,34.194,241.439,34.426,241.561z M119.125,251.215l3.94,2.071
		c0.584,0.307,1.267-0.189,1.156-0.84l-0.752-4.387c-0.044-0.258,0.041-0.522,0.229-0.705l3.187-3.107
		c0.473-0.461,0.212-1.263-0.441-1.358l-4.405-0.64c-0.259-0.038-0.484-0.201-0.6-0.436l-1.97-3.992
		c-0.292-0.592-1.136-0.592-1.428,0l-1.97,3.992c-0.116,0.235-0.34,0.398-0.6,0.436l-4.405,0.64
		c-0.653,0.095-0.914,0.898-0.441,1.358l3.187,3.107c0.188,0.183,0.273,0.447,0.229,0.705l-0.752,4.387
		c-0.112,0.651,0.571,1.147,1.156,0.84l3.94-2.071C118.616,251.093,118.893,251.093,119.125,251.215z M76.776,248.809l3.94,2.071
		c0.584,0.307,1.267-0.189,1.156-0.84l-0.752-4.387c-0.044-0.258,0.041-0.522,0.229-0.705l3.187-3.107
		c0.473-0.461,0.212-1.263-0.441-1.358l-4.405-0.64c-0.259-0.038-0.484-0.201-0.6-0.436l-1.97-3.992
		c-0.292-0.592-1.136-0.592-1.428,0l-1.97,3.992c-0.116,0.235-0.34,0.398-0.6,0.436l-4.405,0.64
		c-0.653,0.095-0.914,0.898-0.441,1.358l3.187,3.107c0.188,0.183,0.273,0.447,0.229,0.705l-0.752,4.387
		c-0.112,0.651,0.571,1.147,1.156,0.84l3.94-2.071C76.266,248.687,76.544,248.687,76.776,248.809z M161.475,251.215l3.94,2.071
		c0.584,0.307,1.267-0.189,1.156-0.84l-0.752-4.387c-0.044-0.258,0.041-0.522,0.229-0.705l3.187-3.107
		c0.473-0.461,0.212-1.263-0.441-1.358l-4.405-0.64c-0.259-0.038-0.484-0.201-0.6-0.436l-1.97-3.992
		c-0.292-0.592-1.136-0.592-1.428,0l-1.97,3.992c-0.116,0.235-0.34,0.398-0.6,0.436l-4.405,0.64
		c-0.653,0.095-0.914,0.898-0.441,1.358l3.187,3.107c0.188,0.183,0.273,0.447,0.229,0.705l-0.752,4.387
		c-0.112,0.651,0.571,1.147,1.156,0.84l3.94-2.071C160.966,251.093,161.243,251.093,161.475,251.215z M203.825,247.876l3.94,2.071
		c0.584,0.307,1.267-0.189,1.156-0.84l-0.752-4.387c-0.044-0.258,0.041-0.522,0.229-0.705l3.187-3.107
		c0.473-0.461,0.212-1.263-0.441-1.358l-4.405-0.64c-0.259-0.038-0.484-0.201-0.6-0.436l-1.97-3.992
		c-0.292-0.592-1.136-0.592-1.428,0l-1.97,3.992c-0.116,0.235-0.34,0.398-0.6,0.436l-4.405,0.64
		c-0.653,0.095-0.914,0.898-0.441,1.358l3.187,3.107c0.188,0.183,0.273,0.447,0.229,0.705l-0.752,4.387
		c-0.112,0.651,0.571,1.147,1.156,0.84l3.94-2.071C203.316,247.754,203.593,247.754,203.825,247.876z M14.251,148.345l3.94,2.071
		c0.584,0.307,1.267-0.189,1.156-0.84l-0.752-4.387c-0.044-0.258,0.041-0.522,0.229-0.705l3.187-3.107
		c0.473-0.461,0.212-1.263-0.441-1.358l-4.405-0.64c-0.259-0.038-0.484-0.201-0.6-0.436l-1.97-3.992
		c-0.292-0.592-1.136-0.592-1.428,0l-1.97,3.992c-0.116,0.235-0.34,0.398-0.6,0.436l-4.405,0.64
		c-0.653,0.095-0.914,0.898-0.441,1.358l3.187,3.107c0.188,0.183,0.273,0.447,0.229,0.705l-0.752,4.387
		c-0.112,0.651,0.571,1.147,1.156,0.84l3.94-2.071C13.742,148.223,14.019,148.223,14.251,148.345z M98.951,158l3.94,2.071
		c0.584,0.307,1.267-0.189,1.156-0.84l-0.752-4.387c-0.044-0.258,0.041-0.522,0.229-0.705l3.187-3.107
		c0.473-0.461,0.212-1.263-0.441-1.358l-4.405-0.64c-0.259-0.038-0.484-0.201-0.6-0.436l-1.97-3.992
		c-0.292-0.592-1.136-0.592-1.428,0l-1.97,3.992c-0.116,0.235-0.34,0.398-0.6,0.436l-4.405,0.64
		c-0.653,0.095-0.914,0.898-0.441,1.358l3.187,3.107c0.188,0.183,0.273,0.447,0.229,0.705l-0.752,4.387
		c-0.112,0.651,0.571,1.147,1.156,0.84l3.94-2.071C98.441,157.878,98.719,157.878,98.951,158z M56.601,155.594l3.94,2.071
		c0.584,0.307,1.267-0.189,1.156-0.84l-0.752-4.387c-0.044-0.258,0.041-0.522,0.229-0.705l3.187-3.107
		c0.473-0.461,0.212-1.263-0.441-1.358l-4.405-0.64c-0.259-0.038-0.484-0.201-0.6-0.436l-1.97-3.992
		c-0.292-0.592-1.136-0.592-1.428,0l-1.97,3.992c-0.116,0.235-0.34,0.398-0.6,0.436l-4.405,0.64
		c-0.653,0.095-0.914,0.898-0.441,1.358l3.187,3.107c0.188,0.183,0.273,0.447,0.229,0.705l-0.752,4.387
		c-0.112,0.651,0.571,1.147,1.156,0.84l3.94-2.071C56.092,155.472,56.369,155.472,56.601,155.594z M141.3,158l3.94,2.071
		c0.584,0.307,1.267-0.189,1.156-0.84l-0.752-4.387c-0.044-0.258,0.041-0.522,0.229-0.705l3.187-3.107
		c0.473-0.461,0.212-1.263-0.441-1.358l-4.405-0.64c-0.259-0.038-0.484-0.201-0.6-0.436l-1.97-3.992
		c-0.292-0.592-1.136-0.592-1.428,0l-1.97,3.992c-0.116,0.235-0.34,0.398-0.6,0.436l-4.405,0.64
		c-0.653,0.095-0.914,0.898-0.441,1.358l3.187,3.107c0.188,0.183,0.273,0.447,0.229,0.705l-0.752,4.387
		c-0.112,0.651,0.571,1.147,1.156,0.84l3.94-2.071C140.791,157.878,141.068,157.878,141.3,158z M183.65,154.661l3.94,2.071
		c0.584,0.307,1.267-0.189,1.156-0.84l-0.752-4.387c-0.044-0.258,0.041-0.522,0.229-0.705l3.187-3.107
		c0.473-0.461,0.212-1.263-0.441-1.358l-4.405-0.64c-0.259-0.038-0.484-0.201-0.6-0.436l-1.97-3.992
		c-0.292-0.592-1.136-0.592-1.428,0l-1.97,3.992c-0.116,0.235-0.34,0.398-0.6,0.436l-4.405,0.64
		c-0.653,0.095-0.914,0.898-0.441,1.358l3.187,3.107c0.188,0.183,0.273,0.447,0.229,0.705l-0.752,4.387
		c-0.112,0.651,0.571,1.147,1.156,0.84l3.94-2.071C183.141,154.539,183.418,154.539,183.65,154.661z M226,148.314l3.94,2.071
		c0.584,0.307,1.267-0.189,1.156-0.84l-0.752-4.387c-0.044-0.258,0.041-0.522,0.229-0.705l3.187-3.107
		c0.473-0.461,0.212-1.263-0.441-1.358l-4.405-0.64c-0.259-0.038-0.484-0.201-0.6-0.436l-1.97-3.992
		c-0.292-0.592-1.136-0.592-1.428,0l-1.97,3.992c-0.116,0.235-0.34,0.398-0.6,0.436l-4.405,0.64
		c-0.653,0.095-0.914,0.898-0.441,1.358l3.187,3.107c0.188,0.183,0.273,0.447,0.229,0.705l-0.752,4.387
		c-0.112,0.651,0.571,1.147,1.156,0.84l3.94-2.071C225.491,148.192,225.768,148.192,226,148.314z M14.251,186.064l3.94,2.071
		c0.584,0.307,1.267-0.189,1.156-0.84l-0.752-4.387c-0.044-0.258,0.041-0.522,0.229-0.705l3.187-3.107
		c0.473-0.461,0.212-1.263-0.441-1.358l-4.405-0.64c-0.259-0.038-0.484-0.201-0.6-0.436l-1.97-3.992
		c-0.292-0.592-1.136-0.592-1.428,0l-1.97,3.992c-0.116,0.235-0.34,0.398-0.6,0.436l-4.405,0.64
		c-0.653,0.095-0.914,0.898-0.441,1.358l3.187,3.107c0.188,0.183,0.273,0.447,0.229,0.705l-0.752,4.387
		c-0.112,0.651,0.571,1.147,1.156,0.84l3.94-2.071C13.742,185.942,14.019,185.942,14.251,186.064z M98.951,195.719l3.94,2.071
		c0.584,0.307,1.267-0.189,1.156-0.84l-0.752-4.387c-0.044-0.258,0.041-0.522,0.229-0.705l3.187-3.107
		c0.473-0.461,0.212-1.263-0.441-1.358l-4.405-0.64c-0.259-0.038-0.484-0.201-0.6-0.436l-1.97-3.992
		c-0.292-0.592-1.136-0.592-1.428,0l-1.97,3.992c-0.116,0.235-0.34,0.398-0.6,0.436l-4.405,0.64
		c-0.653,0.095-0.914,0.898-0.441,1.358l3.187,3.107c0.188,0.183,0.273,0.447,0.229,0.705l-0.752,4.387
		c-0.112,0.651,0.571,1.147,1.156,0.84l3.94-2.071C98.441,195.597,98.719,195.597,98.951,195.719z M56.601,193.313l3.94,2.071
		c0.584,0.307,1.267-0.189,1.156-0.84l-0.752-4.387c-0.044-0.258,0.041-0.522,0.229-0.705l3.187-3.107
		c0.473-0.461,0.212-1.263-0.441-1.358l-4.405-0.64c-0.259-0.038-0.484-0.201-0.6-0.436l-1.97-3.992
		c-0.292-0.592-1.136-0.592-1.428,0l-1.97,3.992c-0.116,0.235-0.34,0.398-0.6,0.436l-4.405,0.64
		c-0.653,0.095-0.914,0.898-0.441,1.358l3.187,3.107c0.188,0.183,0.273,0.447,0.229,0.705l-0.752,4.387
		c-0.112,0.651,0.571,1.147,1.156,0.84l3.94-2.071C56.092,193.191,56.369,193.191,56.601,193.313z M141.3,195.719l3.94,2.071
		c0.584,0.307,1.267-0.189,1.156-0.84l-0.752-4.387c-0.044-0.258,0.041-0.522,0.229-0.705l3.187-3.107
		c0.473-0.461,0.212-1.263-0.441-1.358l-4.405-0.64c-0.259-0.038-0.484-0.201-0.6-0.436l-1.97-3.992
		c-0.292-0.592-1.136-0.592-1.428,0l-1.97,3.992c-0.116,0.235-0.34,0.398-0.6,0.436l-4.405,0.64
		c-0.653,0.095-0.914,0.898-0.441,1.358l3.187,3.107c0.188,0.183,0.273,0.447,0.229,0.705l-0.752,4.387
		c-0.112,0.651,0.571,1.147,1.156,0.84l3.94-2.071C140.791,195.597,141.068,195.597,141.3,195.719z M183.65,192.38l3.94,2.071
		c0.584,0.307,1.267-0.189,1.156-0.84l-0.752-4.387c-0.044-0.258,0.041-0.522,0.229-0.705l3.187-3.107
		c0.473-0.461,0.212-1.263-0.441-1.358l-4.405-0.64c-0.259-0.038-0.484-0.201-0.6-0.436l-1.97-3.992
		c-0.292-0.592-1.136-0.592-1.428,0l-1.97,3.992c-0.116,0.235-0.34,0.398-0.6,0.436l-4.405,0.64
		c-0.653,0.095-0.914,0.898-0.441,1.358l3.187,3.107c0.188,0.183,0.273,0.447,0.229,0.705l-0.752,4.387
		c-0.112,0.651,0.571,1.147,1.156,0.84l3.94-2.071C183.141,192.258,183.418,192.258,183.65,192.38z M226,186.033l3.94,2.071
		c0.584,0.307,1.267-0.189,1.156-0.84l-0.752-4.387c-0.044-0.258,0.041-0.522,0.229-0.705l3.187-3.107
		c0.473-0.461,0.212-1.263-0.441-1.358l-4.405-0.64c-0.259-0.038-0.484-0.201-0.6-0.436l-1.97-3.992
		c-0.292-0.592-1.136-0.592-1.428,0l-1.97,3.992c-0.116,0.235-0.34,0.398-0.6,0.436l-4.405,0.64
		c-0.653,0.095-0.914,0.898-0.441,1.358l3.187,3.107c0.188,0.183,0.273,0.447,0.229,0.705l-0.752,4.387
		c-0.112,0.651,0.571,1.147,1.156,0.84l3.94-2.071C225.491,185.911,225.768,185.911,226,186.033z M14.251,223.782l3.94,2.071
		c0.584,0.307,1.267-0.189,1.156-0.84l-0.752-4.387c-0.044-0.258,0.041-0.522,0.229-0.705l3.187-3.107
		c0.473-0.461,0.212-1.263-0.441-1.358l-4.405-0.64c-0.259-0.038-0.484-0.201-0.6-0.436l-1.97-3.992
		c-0.292-0.592-1.136-0.592-1.428,0l-1.97,3.992c-0.116,0.235-0.34,0.398-0.6,0.436l-4.405,0.64
		c-0.653,0.095-0.914,0.898-0.441,1.358l3.187,3.107c0.188,0.183,0.273,0.447,0.229,0.705l-0.752,4.387
		c-0.112,0.651,0.571,1.147,1.156,0.84l3.94-2.071C13.742,223.66,14.019,223.66,14.251,223.782z M98.951,233.437l3.94,2.071
		c0.584,0.307,1.267-0.189,1.156-0.84l-0.752-4.387c-0.044-0.258,0.041-0.522,0.229-0.705l3.187-3.107
		c0.473-0.461,0.212-1.263-0.441-1.358l-4.405-0.64c-0.259-0.038-0.484-0.201-0.6-0.436l-1.97-3.992
		c-0.292-0.592-1.136-0.592-1.428,0l-1.97,3.992c-0.116,0.235-0.34,0.398-0.6,0.436l-4.405,0.64
		c-0.653,0.095-0.914,0.898-0.441,1.358l3.187,3.107c0.188,0.183,0.273,0.447,0.229,0.705l-0.752,4.387
		c-0.112,0.651,0.571,1.147,1.156,0.84l3.94-2.071C98.441,233.315,98.719,233.315,98.951,233.437z M56.601,231.031l3.94,2.071
		c0.584,0.307,1.267-0.189,1.156-0.84l-0.752-4.387c-0.044-0.258,0.041-0.522,0.229-0.705l3.187-3.107
		c0.473-0.461,0.212-1.263-0.441-1.358l-4.405-0.64c-0.259-0.038-0.484-0.201-0.6-0.436l-1.97-3.992
		c-0.292-0.592-1.136-0.592-1.428,0l-1.97,3.992c-0.116,0.235-0.34,0.398-0.6,0.436l-4.405,0.64
		c-0.653,0.095-0.914,0.898-0.441,1.358l3.187,3.107c0.188,0.183,0.273,0.447,0.229,0.705l-0.752,4.387
		c-0.112,0.651,0.571,1.147,1.156,0.84l3.94-2.071C56.092,230.909,56.369,230.909,56.601,231.031z M141.3,233.437l3.94,2.071
		c0.584,0.307,1.267-0.189,1.156-0.84l-0.752-4.387c-0.044-0.258,0.041-0.522,0.229-0.705l3.187-3.107
		c0.473-0.461,0.212-1.263-0.441-1.358l-4.405-0.64c-0.259-0.038-0.484-0.201-0.6-0.436l-1.97-3.992
		c-0.292-0.592-1.136-0.592-1.428,0l-1.97,3.992c-0.116,0.235-0.34,0.398-0.6,0.436l-4.405,0.64
		c-0.653,0.095-0.914,0.898-0.441,1.358l3.187,3.107c0.188,0.183,0.273,0.447,0.229,0.705l-0.752,4.387
		c-0.112,0.651,0.571,1.147,1.156,0.84l3.94-2.071C140.791,233.315,141.068,233.315,141.3,233.437z M183.65,230.098l3.94,2.071
		c0.584,0.307,1.267-0.189,1.156-0.84l-0.752-4.387c-0.044-0.258,0.041-0.522,0.229-0.705l3.187-3.107
		c0.473-0.461,0.212-1.263-0.441-1.358l-4.405-0.64c-0.259-0.038-0.484-0.201-0.6-0.436l-1.97-3.992
		c-0.292-0.592-1.136-0.592-1.428,0l-1.97,3.992c-0.116,0.235-0.34,0.398-0.6,0.436l-4.405,0.64
		c-0.653,0.095-0.914,0.898-0.441,1.358l3.187,3.107c0.188,0.183,0.273,0.447,0.229,0.705l-0.752,4.387
		c-0.112,0.651,0.571,1.147,1.156,0.84l3.94-2.071C183.141,229.976,183.418,229.976,183.65,230.098z M226,223.751l3.94,2.071
		c0.584,0.307,1.267-0.189,1.156-0.84l-0.752-4.387c-0.044-0.258,0.041-0.522,0.229-0.705l3.187-3.107
		c0.473-0.461,0.212-1.263-0.441-1.358l-4.405-0.64c-0.259-0.038-0.484-0.201-0.6-0.436l-1.97-3.992
		c-0.292-0.592-1.136-0.592-1.428,0l-1.97,3.992c-0.116,0.235-0.34,0.398-0.6,0.436l-4.405,0.64
		c-0.653,0.095-0.914,0.898-0.441,1.358l3.187,3.107c0.188,0.183,0.273,0.447,0.229,0.705l-0.752,4.387
		c-0.112,0.651,0.571,1.147,1.156,0.84l3.94-2.071C225.491,223.629,225.768,223.629,226,223.751z M14.251,261.501l3.94,2.071
		c0.584,0.307,1.267-0.189,1.156-0.84l-0.752-4.387c-0.044-0.258,0.041-0.522,0.229-0.705l3.187-3.107
		c0.473-0.461,0.212-1.263-0.441-1.358l-4.405-0.64c-0.259-0.038-0.484-0.201-0.6-0.436l-1.97-3.992
		c-0.292-0.592-1.136-0.592-1.428,0l-1.97,3.992c-0.116,0.235-0.34,0.398-0.6,0.436l-4.405,0.64
		c-0.653,0.095-0.914,0.898-0.441,1.358l3.187,3.107c0.188,0.183,0.273,0.447,0.229,0.705l-0.752,4.387
		c-0.112,0.651,0.571,1.147,1.156,0.84l3.94-2.071C13.742,261.379,14.019,261.379,14.251,261.501z M98.951,271.156l3.94,2.071
		c0.584,0.307,1.267-0.189,1.156-0.84L103.294,268c-0.044-0.258,0.041-0.522,0.229-0.705l3.187-3.107
		c0.473-0.461,0.212-1.263-0.441-1.358l-4.405-0.64c-0.259-0.038-0.484-0.201-0.6-0.436l-1.97-3.992
		c-0.292-0.592-1.136-0.592-1.428,0l-1.97,3.992c-0.116,0.235-0.34,0.398-0.6,0.436l-4.405,0.64
		c-0.653,0.095-0.914,0.898-0.441,1.358l3.187,3.107c0.188,0.183,0.273,0.447,0.229,0.705l-0.752,4.387
		c-0.112,0.651,0.571,1.147,1.156,0.84l3.94-2.071C98.441,271.034,98.719,271.034,98.951,271.156z M56.601,268.75l3.94,2.071
		c0.584,0.307,1.267-0.189,1.156-0.84l-0.752-4.387c-0.044-0.258,0.041-0.522,0.229-0.705l3.187-3.107
		c0.473-0.461,0.212-1.263-0.441-1.358l-4.405-0.64c-0.259-0.038-0.484-0.201-0.6-0.436l-1.97-3.992
		c-0.292-0.592-1.136-0.592-1.428,0l-1.97,3.992c-0.116,0.235-0.34,0.398-0.6,0.436l-4.405,0.64
		c-0.653,0.095-0.914,0.898-0.441,1.358l3.187,3.107c0.188,0.183,0.273,0.447,0.229,0.705l-0.752,4.387
		c-0.112,0.651,0.571,1.147,1.156,0.84l3.94-2.071C56.092,268.628,56.369,268.628,56.601,268.75z M141.3,271.156l3.94,2.071
		c0.584,0.307,1.267-0.189,1.156-0.84L145.643,268c-0.044-0.258,0.041-0.522,0.229-0.705l3.187-3.107
		c0.473-0.461,0.212-1.263-0.441-1.358l-4.405-0.64c-0.259-0.038-0.484-0.201-0.6-0.436l-1.97-3.992
		c-0.292-0.592-1.136-0.592-1.428,0l-1.97,3.992c-0.116,0.235-0.34,0.398-0.6,0.436l-4.405,0.64
		c-0.653,0.095-0.914,0.898-0.441,1.358l3.187,3.107c0.188,0.183,0.273,0.447,0.229,0.705l-0.752,4.387
		c-0.112,0.651,0.571,1.147,1.156,0.84l3.94-2.071C140.791,271.034,141.068,271.034,141.3,271.156z M183.65,267.817l3.94,2.071
		c0.584,0.307,1.267-0.189,1.156-0.84l-0.752-4.387c-0.044-0.258,0.041-0.522,0.229-0.705l3.187-3.107
		c0.473-0.461,0.212-1.263-0.441-1.358l-4.405-0.64c-0.259-0.038-0.484-0.201-0.6-0.436l-1.97-3.992
		c-0.292-0.592-1.136-0.592-1.428,0l-1.97,3.992c-0.116,0.235-0.34,0.398-0.6,0.436l-4.405,0.64
		c-0.653,0.095-0.914,0.898-0.441,1.358l3.187,3.107c0.188,0.183,0.273,0.447,0.229,0.705l-0.752,4.387
		c-0.112,0.651,0.571,1.147,1.156,0.84l3.94-2.071C183.141,267.695,183.418,267.695,183.65,267.817z M226,261.47l3.94,2.071
		c0.584,0.307,1.267-0.189,1.156-0.84l-0.752-4.387c-0.044-0.258,0.041-0.522,0.229-0.705l3.187-3.107
		c0.473-0.461,0.212-1.263-0.441-1.358l-4.405-0.64c-0.259-0.038-0.484-0.201-0.6-0.436l-1.97-3.992
		c-0.292-0.592-1.136-0.592-1.428,0l-1.97,3.992c-0.116,0.235-0.34,0.398-0.6,0.436l-4.405,0.64
		c-0.653,0.095-0.914,0.898-0.441,1.358l3.187,3.107c0.188,0.183,0.273,0.447,0.229,0.705l-0.752,4.387
		c-0.112,0.651,0.571,1.147,1.156,0.84l3.94-2.071C225.491,261.348,225.768,261.348,226,261.47z"/>
</g>
</svg>
