<?xml version="1.0" encoding="iso-8859-1"?>
<!-- Generator: Adobe Illustrator 18.1.1, SVG Export Plug-In . SVG Version: 6.00 Build 0)  -->
<!DOCTYPE svg PUBLIC "-//W3C//DTD SVG 1.1//EN" "http://www.w3.org/Graphics/SVG/1.1/DTD/svg11.dtd">
<svg version="1.1" xmlns="http://www.w3.org/2000/svg" xmlns:xlink="http://www.w3.org/1999/xlink" x="0px" y="0px"
	 viewBox="0 0 512 512" enable-background="new 0 0 512 512" xml:space="preserve">
<g id="Layer_2">
	<path fill="#FF473E" d="M509.334,32.666C509.334,16.35,495.985,3,479.668,3H30.033C15.349,3,3.334,15.015,3.334,29.699v452.602
		C3.334,496.985,15.349,509,30.033,509h449.635c16.316,0,29.666-13.35,29.666-29.666V32.666z"/>
</g>
<g id="Layer_3">
	<path fill="#D32A2A" d="M479.668,488.915H30.033c-14.684,0-26.699-12.015-26.699-26.699v20.085
		C3.334,496.985,15.349,509,30.033,509h449.635c16.316,0,29.666-13.35,29.666-29.666v-20.085
		C509.334,475.565,495.985,488.915,479.668,488.915z"/>
</g>
<g id="Layer_4">
	<path fill="#FFFFFF" d="M233.347,86.866c88.723,0,143.578,22.419,143.578,84.43c0,32.537-17.652,52.746-39.641,63.632
		c-5.729,2.836-5.125,11.124,0.905,13.246c28.452,10.013,52.569,30.162,52.569,72.902c0,75.367-61.057,96.355-144.532,96.355
		H146.099c-3.976,0-7.2-3.224-7.2-7.2V94.066c0-3.976,3.224-7.2,7.2-7.2H233.347z M218.559,149.875v61.921
		c0,3.976,3.224,7.2,7.2,7.2h20.944c32.436,0,49.609-12.402,49.609-40.068c0-26.712-17.649-36.252-55.333-36.252h-15.219
		C221.783,142.675,218.559,145.899,218.559,149.875z M218.559,352.99c0,3.976,3.224,7.2,7.2,7.2h20.944
		c36.729,0,62.01-7.633,62.01-43.408c0-33.391-22.419-45.792-56.286-45.792h-26.668c-3.976,0-7.2,3.224-7.2,7.2V352.99z"/>
</g>
</svg>
