<?xml version="1.0" encoding="iso-8859-1"?>
<!-- Generator: Adobe Illustrator 18.1.1, SVG Export Plug-In . SVG Version: 6.00 Build 0)  -->
<!DOCTYPE svg PUBLIC "-//W3C//DTD SVG 1.1//EN" "http://www.w3.org/Graphics/SVG/1.1/DTD/svg11.dtd">
<svg version="1.1" xmlns="http://www.w3.org/2000/svg" xmlns:xlink="http://www.w3.org/1999/xlink" x="0px" y="0px"
	 viewBox="0 0 512 512" enable-background="new 0 0 512 512" xml:space="preserve">
<g id="Layer_4">
	<path fill="#E8E8E8" d="M412.888,323.5l97.873,59.603c0,7.805,0,15.611,0,23.416L374.437,323.5H323.17l164.304,100.059
		c-16.638-3.504-33.277-5.733-49.915-6.981L322.881,346.74v73.625c-6,0.676-12,1.403-18,2.162V305.5h205.881c0,6,0,12,0,18H412.888z
		 M187.881,438.26c6-0.676,12-1.403,18-2.162V305.5H0c0,6,0,12,0,18h99.873L0,384.321c0,7.805,0,15.611,0,23.416L138.325,323.5
		h49.556v1.043L11.733,431.814c1.391,0.735,2.852,1.312,4.368,1.663c7.902,1.84,15.805,3.375,23.707,4.656l148.073-90.174V438.26z
		 M0,188.5c0,6,0,12,0,18h205.881V89.472c-6,0.759-12,1.486-18,2.162v75.997L68.742,95.077c-17.189-1.476-34.379-4.044-51.568-7.988
		L183.698,188.5H132.43L0,107.852c0,7.805,0,15.611,0,23.416L93.979,188.5H0z M322.881,73.74c-6,0.676-12,1.403-18,2.162V206.5
		h205.881c0-6,0-12,0-18h-91.979l91.979-56.014c0-7.805,0-15.611,0-23.416l-130.43,79.43h-51.268L502.765,82.719
		c-2.382-2.009-5.146-3.51-8.104-4.196c-5.85-1.362-11.7-2.545-17.551-3.596l-154.229,93.923V73.74z"/>
</g>
<g id="Layer_1">
</g>
</svg>
