<?xml version="1.0" encoding="iso-8859-1"?>
<!-- Generator: Adobe Illustrator 18.1.1, SVG Export Plug-In . SVG Version: 6.00 Build 0)  -->
<!DOCTYPE svg PUBLIC "-//W3C//DTD SVG 1.1//EN" "http://www.w3.org/Graphics/SVG/1.1/DTD/svg11.dtd">
<svg version="1.1" xmlns="http://www.w3.org/2000/svg" xmlns:xlink="http://www.w3.org/1999/xlink" x="0px" y="0px"
	 viewBox="0 0 512 512" enable-background="new 0 0 512 512" xml:space="preserve">
<g id="Layer_9">
	<path fill="#575A5B" d="M147.459,289.342c0,6.814-5.524,12.338-12.338,12.338s-12.338-5.524-12.338-12.338
		c0-6.814,5.524-12.338,12.338-12.338S147.459,282.528,147.459,289.342z M87.304,324.431v-3.086c0-2.568-2.082-4.649-4.649-4.649
		h-9.31c-2.568,0-4.649,2.082-4.649,4.649v3.086c0,2.568,2.082,4.649,4.649,4.649h9.31C85.223,329.08,87.304,326.999,87.304,324.431
		z M198.971,324.431v-3.086c0-2.568-2.082-4.649-4.649-4.649h-9.31c-2.568,0-4.649,2.082-4.649,4.649v3.086
		c0,2.568,2.082,4.649,4.649,4.649h9.31C196.889,329.08,198.971,326.999,198.971,324.431z"/>
</g>
<g id="Layer_1">
</g>
</svg>
