<?xml version="1.0" encoding="iso-8859-1"?>
<!-- Generator: Adobe Illustrator 18.1.1, SVG Export Plug-In . SVG Version: 6.00 Build 0)  -->
<!DOCTYPE svg PUBLIC "-//W3C//DTD SVG 1.1//EN" "http://www.w3.org/Graphics/SVG/1.1/DTD/svg11.dtd">
<svg version="1.1" xmlns="http://www.w3.org/2000/svg" xmlns:xlink="http://www.w3.org/1999/xlink" x="0px" y="0px"
	 viewBox="0 0 512 512" enable-background="new 0 0 512 512" xml:space="preserve">
<g id="Layer_5">
	<path fill="#FFFFFF" d="M284.999,127.17c68.708,0,133.354,21.056,133.354,126.704c0,103.062-62.06,129.29-127.812,129.29h-65.453
		c-6.695,0-12.122-5.427-12.122-12.122v-231.75c0-6.695,5.427-12.122,12.122-12.122H284.999z M274.656,183.62v143.094
		c0,6.695,5.427,12.122,12.122,12.122h7.826c36.201,0,60.212-17.361,60.212-84.961c0-68.339-25.488-82.376-60.951-82.376h-7.086
		C280.083,171.498,274.656,176.925,274.656,183.62z"/>
</g>
<g id="Layer_1">
</g>
</svg>
