<?xml version="1.0" encoding="iso-8859-1"?>
<!-- Generator: Adobe Illustrator 18.1.1, SVG Export Plug-In . SVG Version: 6.00 Build 0)  -->
<!DOCTYPE svg PUBLIC "-//W3C//DTD SVG 1.1//EN" "http://www.w3.org/Graphics/SVG/1.1/DTD/svg11.dtd">
<svg version="1.1" xmlns="http://www.w3.org/2000/svg" xmlns:xlink="http://www.w3.org/1999/xlink" x="0px" y="0px"
	 viewBox="0 0 512 512" enable-background="new 0 0 512 512" xml:space="preserve">
<g id="Layer_5">
	<path fill="#FFFFFF" d="M346.597,135.679c64.587,0,104.521,16.321,104.521,61.463c0,21.951-11.037,36.194-25.395,44.471
		c-5.225,3.012-4.603,10.658,0.985,12.928c19.02,7.726,34.481,22.44,34.481,51.637c0,54.865-44.447,70.143-105.216,70.143h-70.93
		c-3.976,0-7.2-3.224-7.2-7.2V142.879c0-3.976,3.224-7.2,7.2-7.2H346.597z M335.832,183.507v41.159c0,3.976,3.224,7.2,7.2,7.2
		h13.287c23.613,0,36.114-9.028,36.114-29.168c0-19.446-12.849-26.391-40.281-26.391h-9.12
		C339.056,176.307,335.832,179.531,335.832,183.507z M335.832,327.451c0,3.976,3.224,7.2,7.2,7.2h13.287
		c26.738,0,45.142-5.556,45.142-31.6c0-24.307-16.321-33.335-40.975-33.335h-17.454c-3.976,0-7.2,3.224-7.2,7.2V327.451z"/>
</g>
<g id="Layer_1">
</g>
</svg>
