<?xml version="1.0" encoding="iso-8859-1"?>
<!-- Generator: Adobe Illustrator 18.1.1, SVG Export Plug-In . SVG Version: 6.00 Build 0)  -->
<!DOCTYPE svg PUBLIC "-//W3C//DTD SVG 1.1//EN" "http://www.w3.org/Graphics/SVG/1.1/DTD/svg11.dtd">
<svg version="1.1" xmlns="http://www.w3.org/2000/svg" xmlns:xlink="http://www.w3.org/1999/xlink" x="0px" y="0px"
	 viewBox="0 0 512 512" enable-background="new 0 0 512 512" xml:space="preserve">
<g id="Layer_2">
	<path fill="#597B91" d="M508.333,32.666C508.333,16.35,494.984,3,478.668,3H29.032C14.348,3,2.333,15.015,2.333,29.699v452.602
		C2.333,496.985,14.348,509,29.032,509h449.635c16.316,0,29.666-13.35,29.666-29.666V32.666z"/>
</g>
<g id="Layer_3">
	<path fill="#2B5770" d="M478.668,488.915H29.032c-14.684,0-26.699-12.015-26.699-26.699v20.085
		C2.333,496.985,14.348,509,29.032,509h449.635c16.316,0,29.666-13.35,29.666-29.666v-20.085
		C508.333,475.565,494.984,488.915,478.668,488.915z"/>
</g>
<g id="Layer_4">
	<path fill="#FFFFFF" d="M231.962,369.225h-50.399c-3.014,0-5.709-1.878-6.754-4.705L137.49,263.496
		c-2.864-7.753-14.395-5.368-13.94,2.884c0.475,8.63,0.769,17.97,0.769,28.064v67.581c0,3.976-3.224,7.2-7.2,7.2H87.303
		c-3.976,0-7.2-3.224-7.2-7.2v-191.25c0-3.976,3.224-7.2,7.2-7.2h49.252c2.994,0,5.676,1.853,6.735,4.654l38.273,101.244
		c2.909,7.696,14.345,5.284,13.923-2.932c-0.34-6.61-0.539-13.545-0.539-20.765v-75.001c0-3.976,3.224-7.2,7.2-7.2h29.816
		c3.976,0,7.2,3.224,7.2,7.2v191.25C239.162,366.002,235.939,369.225,231.962,369.225z"/>
</g>
<g id="Layer_5">
	<path fill="#FFFFFF" d="M429.763,189.433l-15.727,16.089c-2.502,2.56-6.527,2.923-9.395,0.781
		c-11.122-8.306-21.568-12.162-36.096-12.162c-28.785,0-49.854,21.366-49.854,72.111c0,53.712,13.948,72.111,42.14,72.111
		c8.357,0,16.103-1.629,23.239-4.717c2.643-1.144,4.359-3.745,4.359-6.625v-34.577c0-3.976-3.224-7.2-7.2-7.2h-12.936
		c-3.596,0-6.641-2.654-7.132-6.216l-2.762-20.023c-0.597-4.327,2.765-8.184,7.132-8.184h63.178c3.976,0,7.2,3.224,7.2,7.2v90.612
		c0,2.513-1.304,4.85-3.451,6.156c-20.264,12.319-45.782,19.482-71.035,19.482c-62.614,0-93.773-37.688-93.773-108.315
		c0-69.44,43.622-107.721,98.226-107.721c26.378,0,46.78,8.275,63.026,20.374C432.404,181.217,432.816,186.31,429.763,189.433z"/>
</g>
</svg>
