<?xml version="1.0" encoding="iso-8859-1"?>
<!-- Generator: Adobe Illustrator 18.1.1, SVG Export Plug-In . SVG Version: 6.00 Build 0)  -->
<!DOCTYPE svg PUBLIC "-//W3C//DTD SVG 1.1//EN" "http://www.w3.org/Graphics/SVG/1.1/DTD/svg11.dtd">
<svg version="1.1" xmlns="http://www.w3.org/2000/svg" xmlns:xlink="http://www.w3.org/1999/xlink" x="0px" y="0px"
	 viewBox="0 0 512 512" enable-background="new 0 0 512 512" xml:space="preserve">
<g id="Layer_6">
	<path fill="#FFFFFF" d="M366.667,283.432H144c-10.217,0-18.5-8.282-18.5-18.5c0-10.217,8.283-18.5,18.5-18.5h222.667
		c10.218,0,18.5,8.283,18.5,18.5C385.167,275.149,376.885,283.432,366.667,283.432z M416.667,308.6H94
		c-10.217,0-18.5,8.283-18.5,18.5s8.283,18.5,18.5,18.5h143.5v46.627c0,7.281-5.924,13.205-13.205,13.205H202
		c-10.217,0-18.5,8.283-18.5,18.5s8.283,18.5,18.5,18.5h22.295c27.683,0,50.205-22.521,50.205-50.205V345.6h142.167
		c10.217,0,18.5-8.283,18.5-18.5S426.884,308.6,416.667,308.6z M105.199,451.068c16.824-7.852,29.995-17.79,40.264-30.384
		c8.784-10.772,15.297-23.203,20.498-39.122c3.173-9.712-2.128-20.157-11.84-23.33c-9.711-3.175-20.157,2.128-23.331,11.84
		c-6.53,19.987-16.042,35.709-41.238,47.467c-9.259,4.321-13.262,15.329-8.941,24.588c3.14,6.729,9.811,10.681,16.776,10.681
		C100.007,452.808,102.669,452.249,105.199,451.068z M430.056,442.127c4.32-9.259,0.317-20.267-8.941-24.588
		c-25.195-11.758-34.708-27.479-41.238-47.467c-3.174-9.713-13.62-15.016-23.33-11.84c-9.712,3.173-15.014,13.618-11.84,23.33
		c7.385,22.605,20.966,50.935,60.762,69.506c2.53,1.181,5.191,1.739,7.812,1.739C420.244,452.808,426.916,448.855,430.056,442.127z"
		/>
</g>
<g id="Layer_1">
</g>
</svg>
