<?xml version="1.0" encoding="iso-8859-1"?>
<!-- Generator: Adobe Illustrator 18.1.1, SVG Export Plug-In . SVG Version: 6.00 Build 0)  -->
<!DOCTYPE svg PUBLIC "-//W3C//DTD SVG 1.1//EN" "http://www.w3.org/Graphics/SVG/1.1/DTD/svg11.dtd">
<svg version="1.1" xmlns="http://www.w3.org/2000/svg" xmlns:xlink="http://www.w3.org/1999/xlink" x="0px" y="0px"
	 viewBox="0 0 512 512" enable-background="new 0 0 512 512" xml:space="preserve">
<g id="Layer_4">
	<path fill="#FFFFFF" d="M419.582,157.94H369.87V70.499c0-10.217-8.283-18.5-18.5-18.5c-10.218,0-18.5,8.283-18.5,18.5v87.441
		H185.887V70.499c0-10.217-8.283-18.5-18.5-18.5s-18.5,8.283-18.5,18.5v87.441H99.175c-10.217,0-18.5,8.283-18.5,18.5
		s8.283,18.5,18.5,18.5h49.711v114.562c0,10.217,8.283,18.5,18.5,18.5s18.5-8.283,18.5-18.5V194.94H332.87v85.562
		c0,37.659-5.206,67.214-15.917,90.354c-11.008,23.783-28.292,41.517-52.838,54.214c-9.076,4.693-12.627,15.855-7.933,24.931
		c3.289,6.358,9.75,10.005,16.448,10.005c2.861,0,5.767-0.667,8.483-2.072c60.554-31.32,88.757-87.701,88.757-177.432V194.94h49.712
		c10.218,0,18.5-8.283,18.5-18.5S429.8,157.94,419.582,157.94z"/>
</g>
<g id="Layer_1">
</g>
</svg>
