<?xml version="1.0" encoding="iso-8859-1"?>
<!-- Generator: Adobe Illustrator 18.1.1, SVG Export Plug-In . SVG Version: 6.00 Build 0)  -->
<!DOCTYPE svg PUBLIC "-//W3C//DTD SVG 1.1//EN" "http://www.w3.org/Graphics/SVG/1.1/DTD/svg11.dtd">
<svg version="1.1" xmlns="http://www.w3.org/2000/svg" xmlns:xlink="http://www.w3.org/1999/xlink" x="0px" y="0px"
	 viewBox="0 0 512 512" enable-background="new 0 0 512 512" xml:space="preserve">
<g id="Layer_2">
	<path fill="#FF473E" d="M255.333,33c30.117,0,59.318,5.892,86.793,17.513c26.551,11.23,50.403,27.313,70.891,47.802
		c20.489,20.489,36.571,44.34,47.802,70.891c11.621,27.475,17.513,56.677,17.513,86.793s-5.892,59.318-17.513,86.793
		c-11.23,26.551-27.313,50.403-47.802,70.891c-20.489,20.489-44.34,36.571-70.891,47.802C314.652,473.108,285.45,479,255.333,479
		s-59.318-5.892-86.793-17.513c-26.551-11.23-50.403-27.313-70.891-47.802c-20.489-20.489-36.571-44.34-47.802-70.891
		C38.226,315.318,32.333,286.117,32.333,256s5.892-59.318,17.513-86.793c11.23-26.551,27.313-50.403,47.802-70.891
		s44.34-36.571,70.891-47.802C196.015,38.892,225.217,33,255.333,33 M255.333,6c-138.071,0-250,111.929-250,250s111.929,250,250,250
		s250-111.929,250-250S393.405,6,255.333,6L255.333,6z"/>
</g>
<g id="Layer_1">
</g>
</svg>
