<?xml version="1.0" encoding="iso-8859-1"?>
<!-- Generator: Adobe Illustrator 18.1.1, SVG Export Plug-In . SVG Version: 6.00 Build 0)  -->
<!DOCTYPE svg PUBLIC "-//W3C//DTD SVG 1.1//EN" "http://www.w3.org/Graphics/SVG/1.1/DTD/svg11.dtd">
<svg version="1.1" xmlns="http://www.w3.org/2000/svg" xmlns:xlink="http://www.w3.org/1999/xlink" x="0px" y="0px"
	 viewBox="0 0 512 512" enable-background="new 0 0 512 512" xml:space="preserve">
<g id="Layer_2">
	<circle fill="#FFB636" cx="256" cy="256" r="254.106"/>
</g>
<g id="Layer_3">
	<path fill="#ED9B43" d="M256,487.106C119.516,487.106,8.18,379.5,2.165,244.5c-0.17,3.813-0.271,7.645-0.271,11.5
		c0,140.339,113.767,254.106,254.106,254.106S510.106,396.339,510.106,256c0-3.855-0.101-7.687-0.271-11.5
		C503.82,379.5,392.484,487.106,256,487.106z"/>
</g>
<g id="Layer_4">
	<path fill="#FFFFFF" d="M292.938,176.496H150.362c-10.217,0-18.5,8.283-18.5,18.5v132v10.577v30.726c0,10.217,8.283,18.5,18.5,18.5
		s18.5-8.283,18.5-18.5v-12.226h124.077c10.217,0,18.5-8.283,18.5-18.5V194.996C311.438,184.779,303.155,176.496,292.938,176.496z
		 M274.438,319.073H168.862V213.496h105.577V319.073z"/>
</g>
<g id="Layer_5">
	<path fill="#FFFFFF" d="M401.862,103.575H110.138c-10.217,0-18.5,8.283-18.5,18.5s8.283,18.5,18.5,18.5h234.225V389.68
		c0,1.59-1.293,2.883-2.883,2.883h-22.617c-10.217,0-18.5,8.283-18.5,18.5s8.283,18.5,18.5,18.5h22.617
		c21.991,0,39.883-17.892,39.883-39.883V140.575h20.5c10.217,0,18.5-8.283,18.5-18.5S412.079,103.575,401.862,103.575z"/>
</g>
</svg>
