<?xml version="1.0" encoding="iso-8859-1"?>
<!-- Generator: Adobe Illustrator 19.1.0, SVG Export Plug-In . SVG Version: 6.00 Build 0)  -->
<!DOCTYPE svg PUBLIC "-//W3C//DTD SVG 1.1//EN" "http://www.w3.org/Graphics/SVG/1.1/DTD/svg11.dtd">
<svg version="1.1" xmlns="http://www.w3.org/2000/svg" xmlns:xlink="http://www.w3.org/1999/xlink" x="0px" y="0px"
	 viewBox="0 0 512 512" enable-background="new 0 0 512 512" xml:space="preserve">
<g id="Layer_2">
	<path fill="#FF473E" d="M508.333,32.666C508.333,16.35,494.984,3,478.668,3H29.032C14.348,3,2.333,15.015,2.333,29.699v452.602
		C2.333,496.985,14.348,509,29.032,509h449.635c16.316,0,29.666-13.35,29.666-29.666V32.666z"/>
</g>
<g id="Layer_3">
	<path fill="#D32A2A" d="M478.668,488.915H29.032c-14.684,0-26.699-12.015-26.699-26.699v20.085
		C2.333,496.985,14.348,509,29.032,509h449.635c16.316,0,29.666-13.35,29.666-29.666v-20.085
		C508.333,475.565,494.984,488.915,478.668,488.915z"/>
</g>
<g id="Layer_4">
	<path fill="#FFFFFF" d="M435.167,194.998c0,10.217-8.283,18.5-18.5,18.5c-45.592,0-90.909-21.82-131.055-63.103
		c-12.514-12.869-22.673-25.701-30.279-36.303c-7.606,10.603-17.765,23.435-30.279,36.303
		C184.909,191.677,139.591,213.498,94,213.498c-10.217,0-18.5-8.283-18.5-18.5s8.283-18.5,18.5-18.5
		c86.617,0,144.506-104.284,145.081-105.337c0.079-0.146,0.174-0.277,0.257-0.419c0.209-0.362,0.422-0.721,0.656-1.07
		c0.108-0.16,0.224-0.31,0.336-0.466c0.247-0.343,0.498-0.683,0.769-1.01c0.123-0.148,0.253-0.286,0.379-0.429
		c0.276-0.313,0.556-0.621,0.855-0.916c0.138-0.136,0.283-0.263,0.425-0.395c0.302-0.28,0.608-0.557,0.932-0.819
		c0.151-0.122,0.309-0.234,0.464-0.351c0.33-0.25,0.661-0.497,1.011-0.727c0.15-0.099,0.306-0.186,0.459-0.279
		c0.297-0.183,0.584-0.377,0.895-0.545c0.081-0.044,0.166-0.076,0.247-0.118c0.074-0.039,0.151-0.07,0.226-0.108
		c6.2-3.139,13.371-2.46,18.776,1.228c0.017,0.012,0.034,0.025,0.051,0.037c0.478,0.329,0.942,0.68,1.39,1.055
		c0.062,0.052,0.12,0.108,0.182,0.161c0.389,0.334,0.767,0.682,1.13,1.051c0.096,0.097,0.184,0.199,0.277,0.298
		c0.312,0.332,0.617,0.67,0.907,1.028c0.12,0.148,0.228,0.302,0.343,0.453c0.245,0.323,0.488,0.647,0.713,0.989
		c0.13,0.197,0.245,0.401,0.367,0.603c0.156,0.258,0.325,0.505,0.471,0.773c0.563,1.032,58.452,105.316,145.069,105.316
		C426.884,176.498,435.167,184.78,435.167,194.998z M346.865,226.212c0-10.217-8.283-18.5-18.5-18.5H180.032
		c-10.217,0-18.5,8.283-18.5,18.5s8.283,18.5,18.5,18.5h148.333C338.582,244.712,346.865,236.43,346.865,226.212z"/>
</g>
<g id="Layer_5">
	<path fill="#FFFFFF" d="M386.667,275.498H124c-10.217,0-18.5,8.283-18.5,18.5v139.129c0,10.217,8.283,18.5,18.5,18.5
		s18.5-8.283,18.5-18.5v-3.887h225.667v3.887c0,10.217,8.283,18.5,18.5,18.5s18.5-8.283,18.5-18.5V293.998
		C405.167,283.781,396.884,275.498,386.667,275.498z M142.5,392.24v-79.742h225.667v79.742H142.5z"/>
</g>
</svg>
