<?xml version="1.0" encoding="iso-8859-1"?>
<!-- Generator: Adobe Illustrator 18.1.1, SVG Export Plug-In . SVG Version: 6.00 Build 0)  -->
<!DOCTYPE svg PUBLIC "-//W3C//DTD SVG 1.1//EN" "http://www.w3.org/Graphics/SVG/1.1/DTD/svg11.dtd">
<svg version="1.1" xmlns="http://www.w3.org/2000/svg" xmlns:xlink="http://www.w3.org/1999/xlink" x="0px" y="0px"
	 viewBox="0 0 512 512" enable-background="new 0 0 512 512" xml:space="preserve">
<g id="Layer_2">
	<path fill="#FF473E" d="M508.333,32.666C508.333,16.35,494.984,3,478.668,3H29.032C14.348,3,2.333,15.015,2.333,29.699v452.602
		C2.333,496.985,14.348,509,29.032,509h449.635c16.316,0,29.666-13.35,29.666-29.666V32.666z"/>
</g>
<g id="Layer_3">
	<path fill="#D32A2A" d="M478.668,488.915H29.032c-14.684,0-26.699-12.015-26.699-26.699v20.085
		C2.333,496.985,14.348,509,29.032,509h449.635c16.316,0,29.666-13.35,29.666-29.666v-20.085
		C508.333,475.565,494.984,488.915,478.668,488.915z"/>
</g>
<g id="Layer_4">
	<path fill="#FFFFFF" d="M416.667,156.498c-86.617,0-144.506-104.284-145.069-105.316c-0.145-0.268-0.314-0.515-0.471-0.773
		c-0.122-0.201-0.237-0.406-0.367-0.603c-0.226-0.342-0.468-0.666-0.713-0.989c-0.115-0.151-0.223-0.305-0.343-0.453
		c-0.289-0.358-0.595-0.696-0.907-1.028c-0.093-0.099-0.181-0.201-0.277-0.298c-0.363-0.369-0.741-0.717-1.13-1.051
		c-0.062-0.053-0.119-0.108-0.182-0.161c-0.448-0.375-0.912-0.726-1.39-1.055c-0.017-0.012-0.034-0.025-0.051-0.037
		c-5.405-3.688-12.576-4.367-18.776-1.228c-0.075,0.038-0.152,0.069-0.226,0.108c-0.082,0.043-0.166,0.074-0.247,0.118
		c-0.311,0.168-0.598,0.362-0.895,0.545c-0.153,0.094-0.309,0.181-0.459,0.279c-0.35,0.23-0.681,0.477-1.011,0.727
		c-0.155,0.117-0.312,0.229-0.464,0.351c-0.324,0.262-0.629,0.538-0.932,0.819c-0.142,0.132-0.287,0.258-0.425,0.395
		c-0.299,0.295-0.579,0.604-0.855,0.916c-0.127,0.143-0.257,0.282-0.379,0.429c-0.271,0.327-0.522,0.667-0.769,1.01
		c-0.112,0.156-0.229,0.306-0.336,0.466c-0.234,0.348-0.447,0.708-0.656,1.07c-0.083,0.143-0.178,0.274-0.257,0.419
		C238.506,52.213,180.617,156.498,94,156.498c-10.217,0-18.5,8.283-18.5,18.5s8.283,18.5,18.5,18.5
		c45.591,0,90.909-21.82,131.055-63.103c12.514-12.869,22.673-25.701,30.279-36.303c7.606,10.603,17.764,23.435,30.279,36.303
		c40.146,41.282,85.463,63.103,131.055,63.103c10.217,0,18.5-8.283,18.5-18.5S426.884,156.498,416.667,156.498z"/>
</g>
<g id="Layer_5">
	<path fill="#FFFFFF" d="M328.365,224.712H180.032c-10.217,0-18.5-8.283-18.5-18.5s8.283-18.5,18.5-18.5h148.333
		c10.217,0,18.5,8.283,18.5,18.5S338.582,224.712,328.365,224.712z"/>
</g>
<g id="Layer_6">
	<path fill="#FFFFFF" d="M416.667,269.498H94c-10.217,0-18.5,8.283-18.5,18.5v139.129c0,10.217,8.283,18.5,18.5,18.5
		s18.5-8.283,18.5-18.5v-3.887h285.667v3.887c0,10.217,8.283,18.5,18.5,18.5s18.5-8.283,18.5-18.5V287.998
		C435.167,277.781,426.884,269.498,416.667,269.498z M112.5,386.24v-79.742h285.667v79.742H112.5z"/>
</g>
</svg>
