<?xml version="1.0" encoding="iso-8859-1"?>
<!-- Generator: Adobe Illustrator 18.1.1, SVG Export Plug-In . SVG Version: 6.00 Build 0)  -->
<!DOCTYPE svg PUBLIC "-//W3C//DTD SVG 1.1//EN" "http://www.w3.org/Graphics/SVG/1.1/DTD/svg11.dtd">
<svg version="1.1" xmlns="http://www.w3.org/2000/svg" xmlns:xlink="http://www.w3.org/1999/xlink" x="0px" y="0px"
	 viewBox="0 0 512 512" enable-background="new 0 0 512 512" xml:space="preserve">
<g id="Layer_2">
	<path fill="#FF473E" d="M508.333,32.666C508.333,16.35,494.984,3,478.668,3H29.032C14.348,3,2.333,15.015,2.333,29.699v452.602
		C2.333,496.985,14.348,509,29.032,509h449.635c16.316,0,29.666-13.35,29.666-29.666V32.666z"/>
</g>
<g id="Layer_3">
	<path fill="#D32A2A" d="M478.668,488.915H29.032c-14.684,0-26.699-12.015-26.699-26.699v20.085
		C2.333,496.985,14.348,509,29.032,509h449.635c16.316,0,29.666-13.35,29.666-29.666v-20.085
		C508.333,475.565,494.984,488.915,478.668,488.915z"/>
</g>
<g id="Layer_4">
	<path fill="#FFFFFF" d="M236.078,143.6c-16.003-7.869-24.005-18.709-27.666-25.396h13.009c10.217,0,18.5-8.283,18.5-18.5
		s-8.283-18.5-18.5-18.5h-15.006v-7c0-10.217-8.283-18.5-18.5-18.5s-18.5,8.283-18.5,18.5v7h-37.997c-10.217,0-18.5,8.283-18.5,18.5
		s8.283,18.5,18.5,18.5h34.387c-6.081,12.514-21.833,34.756-61.951,57.718c-8.868,5.076-11.941,16.379-6.866,25.246
		c3.417,5.97,9.655,9.313,16.073,9.313c3.116,0,6.275-0.789,9.173-2.447c20.182-11.552,35.516-23.255,47.181-34.354v5.524
		c0,10.217,8.283,18.5,18.5,18.5s18.5-8.283,18.5-18.5V169.03c4.016,2.746,8.444,5.367,13.336,7.773
		c2.626,1.291,5.409,1.902,8.15,1.902c6.83,0,13.398-3.797,16.615-10.341C249.024,159.196,245.247,148.108,236.078,143.6z"/>
</g>
<g id="Layer_5">
	<path fill="#FFFFFF" d="M410.104,175.922c-40.118-22.963-55.87-45.205-61.951-57.719h34.386c10.217,0,18.5-8.283,18.5-18.5
		s-8.283-18.5-18.5-18.5h-37.996v-7c0-10.217-8.282-18.5-18.5-18.5s-18.5,8.283-18.5,18.5v7h-15.007c-10.217,0-18.5,8.283-18.5,18.5
		s8.283,18.5,18.5,18.5h12.989c-3.672,6.628-11.738,17.574-27.645,25.396c-9.169,4.509-12.947,15.596-8.438,24.765
		c3.218,6.543,9.785,10.341,16.615,10.341c2.74,0,5.524-0.612,8.149-1.903c4.892-2.406,9.321-5.027,13.337-7.773v10.174
		c0,10.217,8.282,18.5,18.5,18.5s18.5-8.283,18.5-18.5v-5.523c11.665,11.098,26.998,22.802,47.18,34.353
		c2.899,1.66,6.057,2.447,9.173,2.447c6.418,0,12.657-3.344,16.073-9.313C422.046,192.301,418.972,180.998,410.104,175.922z"/>
</g>
<g id="Layer_6">
	<path fill="#FFFFFF" d="M366.667,283.432H144c-10.217,0-18.5-8.282-18.5-18.5c0-10.217,8.283-18.5,18.5-18.5h222.667
		c10.218,0,18.5,8.283,18.5,18.5C385.167,275.149,376.885,283.432,366.667,283.432z M416.667,308.6H94
		c-10.217,0-18.5,8.283-18.5,18.5s8.283,18.5,18.5,18.5h143.5v46.627c0,7.281-5.924,13.205-13.205,13.205H202
		c-10.217,0-18.5,8.283-18.5,18.5s8.283,18.5,18.5,18.5h22.295c27.683,0,50.205-22.521,50.205-50.205V345.6h142.167
		c10.217,0,18.5-8.283,18.5-18.5S426.884,308.6,416.667,308.6z M105.199,451.068c16.824-7.852,29.995-17.79,40.264-30.384
		c8.784-10.772,15.297-23.203,20.498-39.122c3.173-9.712-2.128-20.157-11.84-23.33c-9.711-3.175-20.157,2.128-23.331,11.84
		c-6.53,19.987-16.042,35.709-41.238,47.467c-9.259,4.321-13.262,15.329-8.941,24.588c3.14,6.729,9.811,10.681,16.776,10.681
		C100.007,452.808,102.669,452.249,105.199,451.068z M430.056,442.127c4.32-9.259,0.317-20.267-8.941-24.588
		c-25.195-11.758-34.708-27.479-41.238-47.467c-3.174-9.713-13.62-15.016-23.33-11.84c-9.712,3.173-15.014,13.618-11.84,23.33
		c7.385,22.605,20.966,50.935,60.762,69.506c2.53,1.181,5.191,1.739,7.812,1.739C420.244,452.808,426.916,448.855,430.056,442.127z"
		/>
</g>
</svg>
