<?xml version="1.0" encoding="iso-8859-1"?>
<!-- Generator: Adobe Illustrator 18.1.1, SVG Export Plug-In . SVG Version: 6.00 Build 0)  -->
<!DOCTYPE svg PUBLIC "-//W3C//DTD SVG 1.1//EN" "http://www.w3.org/Graphics/SVG/1.1/DTD/svg11.dtd">
<svg version="1.1" xmlns="http://www.w3.org/2000/svg" xmlns:xlink="http://www.w3.org/1999/xlink" x="0px" y="0px"
	 viewBox="0 0 512 512" enable-background="new 0 0 512 512" xml:space="preserve">
<g id="Layer_5">
	<path fill="#FFFFFF" d="M410.104,175.922c-40.118-22.963-55.87-45.205-61.951-57.719h34.386c10.217,0,18.5-8.283,18.5-18.5
		s-8.283-18.5-18.5-18.5h-37.996v-7c0-10.217-8.282-18.5-18.5-18.5s-18.5,8.283-18.5,18.5v7h-15.007c-10.217,0-18.5,8.283-18.5,18.5
		s8.283,18.5,18.5,18.5h12.989c-3.672,6.628-11.738,17.574-27.645,25.396c-9.169,4.509-12.947,15.596-8.438,24.765
		c3.218,6.543,9.785,10.341,16.615,10.341c2.74,0,5.524-0.612,8.149-1.903c4.892-2.406,9.321-5.027,13.337-7.773v10.174
		c0,10.217,8.282,18.5,18.5,18.5s18.5-8.283,18.5-18.5v-5.523c11.665,11.098,26.998,22.802,47.18,34.353
		c2.899,1.66,6.057,2.447,9.173,2.447c6.418,0,12.657-3.344,16.073-9.313C422.046,192.301,418.972,180.998,410.104,175.922z"/>
</g>
<g id="Layer_1">
</g>
</svg>
