<?xml version="1.0" encoding="iso-8859-1"?>
<!-- Generator: Adobe Illustrator 18.1.1, SVG Export Plug-In . SVG Version: 6.00 Build 0)  -->
<!DOCTYPE svg PUBLIC "-//W3C//DTD SVG 1.1//EN" "http://www.w3.org/Graphics/SVG/1.1/DTD/svg11.dtd">
<svg version="1.1" xmlns="http://www.w3.org/2000/svg" xmlns:xlink="http://www.w3.org/1999/xlink" x="0px" y="0px"
	 viewBox="0 0 512 512" enable-background="new 0 0 512 512" xml:space="preserve">
<g id="Layer_4">
	<path fill="#FFFFFF" d="M236.078,143.6c-16.003-7.869-24.005-18.709-27.666-25.396h13.009c10.217,0,18.5-8.283,18.5-18.5
		s-8.283-18.5-18.5-18.5h-15.006v-7c0-10.217-8.283-18.5-18.5-18.5s-18.5,8.283-18.5,18.5v7h-37.997c-10.217,0-18.5,8.283-18.5,18.5
		s8.283,18.5,18.5,18.5h34.387c-6.081,12.514-21.833,34.756-61.951,57.718c-8.868,5.076-11.941,16.379-6.866,25.246
		c3.417,5.97,9.655,9.313,16.073,9.313c3.116,0,6.275-0.789,9.173-2.447c20.182-11.552,35.516-23.255,47.181-34.354v5.524
		c0,10.217,8.283,18.5,18.5,18.5s18.5-8.283,18.5-18.5V169.03c4.016,2.746,8.444,5.367,13.336,7.773
		c2.626,1.291,5.409,1.902,8.15,1.902c6.83,0,13.398-3.797,16.615-10.341C249.024,159.196,245.247,148.108,236.078,143.6z"/>
</g>
<g id="Layer_1">
</g>
</svg>
