<?xml version="1.0" encoding="iso-8859-1"?>
<!-- Generator: Adobe Illustrator 19.1.0, SVG Export Plug-In . SVG Version: 6.00 Build 0)  -->
<!DOCTYPE svg PUBLIC "-//W3C//DTD SVG 1.1//EN" "http://www.w3.org/Graphics/SVG/1.1/DTD/svg11.dtd">
<svg version="1.1" xmlns="http://www.w3.org/2000/svg" xmlns:xlink="http://www.w3.org/1999/xlink" x="0px" y="0px"
	 viewBox="0 0 512 512" enable-background="new 0 0 512 512" xml:space="preserve">
<g id="Layer_2">
	<path fill="#FDE364" d="M159.035,400.089l-0.038,0.008c13.087-20.624,12.247-28.911,12.247-36.246
		c0-12.502,38.144,3.06,54.538-14.73c2.798-3.03,0.495-7.927-3.614-7.612c-19.635,1.53-42.787-2.535-42.787-9.93
		c0-5.22,11.55-17.107,15.547-30.404c-23.571-1.732-56.51-7.792-46.378-23.714c11.43-17.969,49.356-76.265,37.506-116.246
		c-1.469-3.585-3.022-7.125-4.642-10.627c-0.015-0.023-0.022-0.038-0.038-0.06l0.016,0.023
		c-20.722-44.556-54.156-82.002-95.637-107.741c-7.207-4.47-6.284-15.157,1.568-18.367C116.294,12.622,147.928,6,181.151,6
		c138.07,0,249.996,111.934,249.996,250.004S319.221,506,181.151,506c-32.902,0-64.235-6.495-92.974-18.097
		c-8.205-3.307-9.165-14.49-1.665-19.184C115.026,450.892,139.708,427.508,159.035,400.089"/>
</g>
<g id="Layer_1">
</g>
</svg>
