<?xml version="1.0" encoding="iso-8859-1"?>
<!-- Generator: Adobe Illustrator 18.1.1, SVG Export Plug-In . SVG Version: 6.00 Build 0)  -->
<!DOCTYPE svg PUBLIC "-//W3C//DTD SVG 1.1//EN" "http://www.w3.org/Graphics/SVG/1.1/DTD/svg11.dtd">
<svg version="1.1" xmlns="http://www.w3.org/2000/svg" xmlns:xlink="http://www.w3.org/1999/xlink" x="0px" y="0px"
	 viewBox="0 0 512 512" enable-background="new 0 0 512 512" xml:space="preserve">
<g id="Layer_3">
	<path fill="#FFCA55" d="M497.44,448.567c0.209-1.083,0.427-2.211,0.654-3.383c0.453-2.343,0.94-4.861,1.459-7.548
		c0.431-2.598,0.888-5.358,1.372-8.275c1.796-11.529,3.399-24.952,4.341-39.451c0.964-14.522,1.193-30.046,0.563-46.102
		c-0.7-15.986-2.397-32.365-5.279-48.602c-2.881-16.238-6.934-32.347-12.238-47.901c-5.339-15.518-11.855-30.555-19.606-44.703
		c-7.735-14.165-16.662-27.486-26.603-39.793c-9.92-12.328-20.916-23.58-32.9-33.495c-11.979-9.921-24.929-18.523-38.598-25.711
		c-13.691-7.167-28.044-12.975-42.748-17.39c-14.693-4.427-29.712-7.484-44.519-9.362c-14.798-1.888-29.41-2.571-43.095-2.444
		c-13.686,0.129-26.469,1.093-37.512,2.402c-11.047,1.313-20.302,2.921-26.969,4.373c-3.22,0.613-5.921,1.315-7.665,1.712
		c-0.87,0.196-1.581,0.396-2.042,0.515c-0.465,0.122-0.701,0.185-0.701,0.185c-34.574,9.197-63.523,36.216-73.286,73.286
		c0,0-0.062,0.236-0.185,0.701c-0.119,0.461-0.319,1.172-0.515,2.041c-0.396,1.744-1.099,4.445-1.712,7.665
		c-1.453,6.667-3.06,15.922-4.373,26.969c-1.309,11.042-2.273,23.825-2.402,37.512c-0.127,13.684,0.556,28.296,2.444,43.095
		c1.878,14.807,4.936,29.826,9.362,44.519c4.415,14.704,10.224,29.057,17.39,42.748c7.188,13.669,15.791,26.619,25.711,38.598
		c9.916,11.984,21.168,22.98,33.495,32.9c12.306,9.941,25.628,18.868,39.793,26.603c14.148,7.752,29.186,14.267,44.703,19.606
		c15.553,5.304,31.662,9.357,47.901,12.238c16.236,2.883,32.616,4.579,48.602,5.28c16.056,0.63,31.58,0.401,46.102-0.563
		c14.499-0.942,27.922-2.545,39.451-4.341c2.917-0.484,5.677-0.941,8.275-1.372c2.686-0.519,5.205-1.006,7.548-1.459
		c1.172-0.226,2.299-0.444,3.383-0.654c1.078-0.204,2.117-0.405,3.169-0.656c1.008-0.228,1.969-0.445,2.886-0.652l6.659,3.464
		c6.159,3.15,13.815,3.435,20.42,0c10.841-5.639,15.059-18.998,9.42-29.84l-3.464-6.659c0.207-0.917,0.424-1.878,0.652-2.886
		C497.035,450.683,497.237,449.644,497.44,448.567z"/>
</g>
<g id="Layer_1">
</g>
</svg>
