<svg xmlns="http://www.w3.org/2000/svg" viewBox="0 0 512 512" enable-background="new 0 0 512 512"><path fill="#2B3B47" d="M395.12 106.563c-22.644 22.643-70.243 23.147-130.638 23.147H255.926c-75.26 0-119.735-3.69-139.193-23.146-5.117-5.117-5.117-13.413 0-18.53 5.117-5.115 13.412-5.115 18.53 0 .294.296.615.584.948.868l-.022-.085c11.642 11.094 45.137-31.312 60.995-52.97 5.517-7.534 14.28-11.994 23.62-11.994h9.614c3.837-4.713 7.346-9.354 10.072-13.077 3.55-4.85 9.118-7.782 15.1-7.986l.01-.02c.11 0 .217.008.326.01.11-.002.218-.01.327-.01l.01.02c5.98.204 11.55 3.137 15.1 7.986 2.726 3.723 6.235 8.364 10.072 13.077h10.525c9.338 0 18.102 4.46 23.62 11.994 14.753 20.15 44.77 58.25 58.254 54.525 1-.74 1.93-1.512 2.756-2.337 5.117-5.116 13.412-5.116 18.53 0 5.115 5.116 5.115 13.412 0 18.528zM139.67 428.406v-44.37c0-.993-.806-1.8-1.8-1.8h-16.946c-.994 0-1.8.807-1.8 1.8v44.37c0 .994.806 1.8 1.8 1.8h16.946c.995 0 1.8-.805 1.8-1.8zm35.754 0v-44.37c0-.993-.806-1.8-1.8-1.8H156.68c-.994 0-1.8.807-1.8 1.8v44.37c0 .994.806 1.8 1.8 1.8h16.946c.994 0 1.8-.805 1.8-1.8zm72.896 0v-44.37c0-.993-.806-1.8-1.8-1.8h-16.946c-.994 0-1.8.807-1.8 1.8v44.37c0 .994.806 1.8 1.8 1.8h16.946c.994 0 1.8-.805 1.8-1.8zm35.754 0v-44.37c0-.993-.806-1.8-1.8-1.8H265.33c-.994 0-1.8.807-1.8 1.8v44.37c0 .994.806 1.8 1.8 1.8h16.946c.994 0 1.8-.805 1.8-1.8zm72.896 0v-44.37c0-.993-.806-1.8-1.8-1.8h-16.946c-.994 0-1.8.807-1.8 1.8v44.37c0 .994.806 1.8 1.8 1.8h16.946c.994 0 1.8-.805 1.8-1.8zm35.754 0v-44.37c0-.993-.806-1.8-1.8-1.8H373.98c-.994 0-1.8.807-1.8 1.8v44.37c0 .994.806 1.8 1.8 1.8h16.946c.994 0 1.8-.805 1.8-1.8zm116.08-88.4c-3.19-3.057-8.136-3.614-12.908-1.458-2.104.95-9.69.423-24.785-7.59-11.32-6.008-24.39-14.922-35.12-23.935-3.142-4.082-6.133-7.95-8.95-11.406-6.3-7.722-11.524-8.335-17.7-8.335l-2.855.01H313.18c-12.577-10.182-27.808-29.787-36.737-41.98-.5-.683-1.035-1.33-1.592-1.954l17.655.03h.01c.28 0 .553-.037.825-.082l133.07-.152c.342.074.695.118 1.06.118 15.835 0 25.947-3.464 28.475-9.753 1.13-2.817.522-5.824-1.59-7.848-2.48-2.376-6.335-2.805-10.063-1.118-.04.02-4.556 1.85-21.9-8.516-11.086-6.623-22.695-15.42-30.182-21.698-.016-.02-.03-.04-.047-.06-5.007-6.137-11.99-9.657-19.16-9.657H323.08V158.91c0-10.663-7.734-19.308-17.274-19.308s-17.273 8.645-17.273 19.31v25.6H223.32v-25.6c0-10.665-7.733-19.31-17.273-19.31s-17.273 8.645-17.273 19.31v25.6h-48.946c-6.916 0-13.654 3.284-18.617 9.027-6.484 5.245-16.38 12.928-26.513 19.59-19.61 12.89-24.387 11.433-24.414 11.425-3.708-1.676-7.51-1.28-9.925 1.034-2.043 1.957-2.63 4.87-1.533 7.603 2.43 6.05 12.064 9.475 27.173 9.72.354.08.72.128 1.097.128h.02l133.632.227c.35.076.71.12 1.076.12h.006l15.16-.016c-.553.62-1.085 1.264-1.58 1.942-8.888 12.137-24.018 31.615-36.56 41.838h-92.505c-.706 0-1.367-.008-1.99-.015-.602-.007-1.17-.013-1.714-.013-6.482 0-11.052 1.296-16.626 8.13-2.01 2.463-4.187 5.165-6.48 8.012-.958 1.19-1.934 2.403-2.92 3.625-10.758 9.058-23.903 18.03-35.28 24.07-15.096 8.012-22.684 8.54-24.786 7.59-4.773-2.16-9.72-1.6-12.908 1.457-2.732 2.618-3.522 6.506-2.06 10.146 3.114 7.75 15.236 12.1 34.17 12.33.025 0 .048.005.073.005h.22c.433.004.85.018 1.29.018.105 0 .206-.01.308-.016l172.853.29c.455.098.922.153 1.396.153h.006l54.333-.06 36.64.06h.01c.382 0 .76-.04 1.13-.104l176.498-.2c.744 0 1.457-.132 2.123-.36 15.532-1 25.46-5.21 28.234-12.12 1.462-3.638.673-7.526-2.06-10.144z"/></svg>