<svg xmlns="http://www.w3.org/2000/svg" viewBox="0 0 512 512" enable-background="new 0 0 512 512"><path fill="#2BA52E" d="M486.196 173.324s-3.373-1.726-8.57-3.446c-5.245-1.81-12.306-3.593-20.142-4.56-15.668-1.92-33.552 1.08-48.59 9.332-15.063 8.21-27.303 21.635-34.3 35.74-3.487 7.073-5.882 13.91-7.256 19.255-.062.23-.12.455-.178.68-21.65 7.708-47.89 12.72-78.69 9.772.79-1.038 1.58-2.076 2.362-3.106l6.342-8.364 5.99-8.372 2.937-4.11 2.785-4.15 5.416-8.144c1.78-2.673 3.38-5.417 5.036-8.05 1.627-2.656 3.258-5.24 4.796-7.82l4.37-7.688c1.41-2.52 2.863-4.94 4.14-7.39l3.73-7.186 3.525-6.82 3.08-6.568 2.884-6.154 1.357-2.92 1.2-2.86 4.303-10.26c1.127-2.57 1.98-4.963 2.772-7.108 6.71 1.126 15.155 1.89 24.293 1.692 20.28-.456 42.47-7.575 60.07-20.852 17.636-13.226 30.72-32.562 37.01-51.793 3.127-9.64 4.908-18.778 5.667-25.83.83-6.954.674-11.774.674-11.775 0 0-4.608-1.573-11.534-2.8-7.007-1.33-16.315-2.293-26.46-2.072-20.28.456-42.47 7.575-60.07 20.852-17.636 13.227-30.72 32.562-37.01 51.793-2.015 6.215-3.464 12.21-4.448 17.58-.83.824-1.537 1.798-2.054 2.924l-.186.405-2.19 4.764-2.626 5.717c-1.05 2.24-2.157 4.86-3.662 7.674l-4.802 9.386-1.334 2.61-1.494 2.657-3.162 5.595c-1.087 1.925-2.21 3.912-3.364 5.958l-3.814 6.17-4.012 6.483c-1.373 2.21-2.924 4.387-4.425 6.654l-4.648 6.904c-1.63 2.315-3.354 4.63-5.07 7.008-1.746 2.358-3.43 4.81-5.3 7.198-1.866 2.388-3.76 4.812-5.678 7.27l-2.893 3.71-3.05 3.677-6.195 7.482-6.558 7.482-3.327 3.79c-1.15 1.245-2.302 2.496-3.46 3.752l-7.016 7.576-2.308 2.383c.184-13.16-3.823-24.708-7.58-35.53-3.81-10.976-7.456-21.5-7.106-33.45 4.105-3.31 8.883-7.802 13.462-13.18 10.224-12.03 17.56-28.61 18.944-45.71 1.432-17.094-3.043-34.7-10.97-48.304-3.988-6.804-8.38-12.566-12.086-16.654-3.614-4.08-6.497-6.482-6.498-6.483 0 0-3.297 1.865-7.592 5.26-4.398 3.383-9.772 8.297-14.89 14.31-10.224 12.026-17.56 28.61-18.945 45.71-1.432 17.093 3.043 34.7 10.97 48.303 3.988 6.805 8.38 12.567 12.087 16.655.208.235.413.463.616.686-.195 14.287 4.06 26.553 7.945 37.74 5.672 16.338 10.72 30.92 2.266 50.147-.27.26-.53.523-.8.78-10.35 10.07-21.218 20.07-32.17 30.073-11.07 10.05-22.14 20.1-33.035 29.995-8.97 8.168-17.794 16.418-26.344 24.658 2.135-23.515 1.06-46.036-3.222-66.562 1.522-4.32 2.96-9.135 4.12-14.285 4.165-18.576 2.695-40.39-5.42-59.42-8.06-19.053-22.714-35.337-38.808-45.41-8.074-5.027-15.994-8.714-22.244-11-6.148-2.327-10.573-3.274-10.574-3.274 0 0-2.474 3.843-5.156 9.873-2.796 6.08-5.775 14.34-7.867 23.63-4.167 18.573-2.697 40.39 5.42 59.42 8.06 19.05 22.714 35.335 38.81 45.41 8.07 5.025 15.99 8.712 22.242 10.997 2.996 1.135 5.577 1.94 7.442 2.47 2.45 20.275 1.825 42.297-1.87 65.093-6.09 6.263-11.933 12.543-17.512 18.72-2.22 2.534-4.41 5.035-6.57 7.498l-1.61 1.845c-.52.63-1.037 1.26-1.552 1.886-1.03 1.253-2.05 2.497-3.065 3.73l-3.014 3.673c-1 1.21-1.984 2.415-2.912 3.66l-5.54 7.26c-.898 1.194-1.82 2.344-2.668 3.542-.847 1.2-1.683 2.39-2.51 3.563l-4.84 6.893c-.806 1.11-1.53 2.26-2.254 3.388-.724 1.128-1.44 2.24-2.144 3.338l-4.1 6.402c-2.566 4.202-4.794 8.26-6.922 11.964-.527.94-1.05 1.812-1.524 2.77-.475.96-.94 1.896-1.393 2.814-.904 1.836-1.777 3.584-2.566 5.262l-2.255 4.75c-.76 1.562-1.17 2.728-1.67 3.928-.965 2.35-1.726 4.37-2.367 6-1.25 3.274-1.866 5.04-1.866 5.04-4.185 11.98 1.136 25.478 12.81 31.218 12.62 6.204 27.88 1.003 34.083-11.617 0 0 .826-1.678 2.276-4.867.71-1.6 1.614-3.564 2.61-5.9 1.024-2.505 2.133-4.597 3.352-7.178.622-1.27 1.234-2.63 1.888-4.05l1-2.185c.347-.745.793-1.543 1.183-2.346.81-1.612 1.656-3.29 2.53-5.03.9-1.73 1.716-3.58 2.724-5.416l3.136-5.686 1.636-2.976c.55-1.006 1.1-2.033 1.734-3.035l3.79-6.232 1.96-3.235c.665-1.09 1.415-2.154 2.13-3.25 1.45-2.187 2.928-4.42 4.435-6.695.733-1.148 1.54-2.276 2.36-3.41l2.467-3.447 2.508-3.508c.42-.59.845-1.183 1.27-1.777l1.107-1.45c11.97 1.407 23.773 2.12 35.294 2.12 17.086 0 33.555-1.536 49.06-4.543-.067.48-.098.748-.098.748s4.926 2.523 12.523 5.037c7.67 2.645 17.99 5.252 29.443 6.664 22.902 2.804 49.04-1.578 71.022-13.64 22.016-12 39.906-31.623 50.133-52.24 5.098-10.34 8.598-20.332 10.607-28.144 2.073-7.692 2.686-13.143 2.686-13.144 0 0-4.93-2.525-12.523-5.04-7.67-2.644-17.99-5.25-29.444-6.663-22.9-2.806-49.04 1.576-71.023 13.64-22.015 12-39.905 31.62-50.133 52.237-4.358 8.844-7.54 17.424-9.63 24.613-23.47 5.325-49.67 6.897-77.11 4.507 6.184-7.654 12.806-15.52 19.967-23.45 9.107-10.178 18.8-20.58 28.932-31.116 10.092-10.564 20.54-21.234 30.93-32.152 10.38-10.922 20.766-21.935 30.75-33.126 2.522-2.752 4.947-5.623 7.407-8.41 2.45-2.8 4.894-5.57 7.25-8.42l7.07-8.42c.03-.04.06-.078.092-.117 10.243 1.47 20.032 2.16 29.403 2.16 25.865 0 48.593-5.18 69.24-13.166 4.96 1.557 11.195 3.02 18.018 3.86 15.67 1.92 33.553-1.078 48.59-9.33 15.064-8.21 27.304-21.635 34.3-35.74 3.488-7.074 5.883-13.91 7.257-19.256 1.418-5.258 1.838-8.987 1.838-8.99z"/></svg>