<?xml version="1.0" encoding="iso-8859-1"?>
<!-- Generator: Adobe Illustrator 18.1.0, SVG Export Plug-In . SVG Version: 6.00 Build 0)  -->
<!DOCTYPE svg PUBLIC "-//W3C//DTD SVG 1.1//EN" "http://www.w3.org/Graphics/SVG/1.1/DTD/svg11.dtd">
<svg version="1.1" xmlns="http://www.w3.org/2000/svg" xmlns:xlink="http://www.w3.org/1999/xlink" x="0px" y="0px"
	 viewBox="0 0 512 512" enable-background="new 0 0 512 512" xml:space="preserve">
<g id="Layer_2">
	<path fill="#FC7E17" d="M500.951,489.617c0,6.6-5.4,12-12,12H21.716c-6.6,0-12-5.4-12-12V22.383c0-6.6,5.4-12,12-12h467.234
		c6.6,0,12,5.4,12,12"/>
</g>
<g id="Layer_3">
	<circle fill="#FFC033" cx="263.672" cy="131.315" r="95.714"/>
</g>
<g id="Layer_4">
	<path fill="#D1552A" d="M455.237,501.617V331.889c0-1.79,1.451-3.242,3.242-3.242h42.472v160.97c0,6.6-5.4,12-12,12H455.237z
		 M63.237,270.443H9.716v219.174c0,6.6,5.4,12,12,12h44.763V273.685C66.479,271.894,65.028,270.443,63.237,270.443z
		 M430.968,203.854H293.092c-2.306,0-4.176,1.869-4.176,4.176v293.588h146.226V208.03
		C435.143,205.724,433.274,203.854,430.968,203.854z M233.318,311.891h-87.85c-1.469,0-2.661,1.191-2.661,2.661v187.066h93.171
		V314.551C235.979,313.082,234.787,311.891,233.318,311.891z"/>
</g>
<g id="Layer_5">
	<path fill="#ED8135" d="M25.246,334.437h-8.44c-1.292,0-2.34-1.048-2.34-2.34v-25.908c0-1.292,1.048-2.34,2.34-2.34h8.44
		c1.292,0,2.34,1.048,2.34,2.34v25.908C27.586,333.39,26.538,334.437,25.246,334.437z M52.299,332.098v-25.908
		c0-1.292-1.048-2.34-2.34-2.34h-8.44c-1.292,0-2.34,1.048-2.34,2.34v25.908c0,1.292,1.048,2.34,2.34,2.34h8.44
		C51.251,334.437,52.299,333.39,52.299,332.098z M27.586,380.228v-25.908c0-1.292-1.048-2.34-2.34-2.34h-8.44
		c-1.292,0-2.34,1.048-2.34,2.34v25.908c0,1.292,1.048,2.34,2.34,2.34h8.44C26.538,382.567,27.586,381.52,27.586,380.228z
		 M52.299,380.228v-25.908c0-1.292-1.048-2.34-2.34-2.34h-8.44c-1.292,0-2.34,1.048-2.34,2.34v25.908c0,1.292,1.048,2.34,2.34,2.34
		h8.44C51.251,382.567,52.299,381.52,52.299,380.228z M27.586,427.263v-25.908c0-1.292-1.048-2.34-2.34-2.34h-8.44
		c-1.292,0-2.34,1.048-2.34,2.34v25.908c0,1.292,1.048,2.34,2.34,2.34h8.44C26.538,429.602,27.586,428.555,27.586,427.263z
		 M52.299,427.263v-25.908c0-1.292-1.048-2.34-2.34-2.34h-8.44c-1.292,0-2.34,1.048-2.34,2.34v25.908c0,1.292,1.048,2.34,2.34,2.34
		h8.44C51.251,429.602,52.299,428.555,52.299,427.263z M27.586,475.393v-25.908c0-1.292-1.048-2.34-2.34-2.34h-8.44
		c-1.292,0-2.34,1.048-2.34,2.34v25.908c0,1.292,1.048,2.34,2.34,2.34h8.44C26.538,477.732,27.586,476.685,27.586,475.393z
		 M52.299,475.393v-25.908c0-1.292-1.048-2.34-2.34-2.34h-8.44c-1.292,0-2.34,1.048-2.34,2.34v25.908c0,1.292,1.048,2.34,2.34,2.34
		h8.44C51.251,477.732,52.299,476.685,52.299,475.393z M353.216,283.268v-33.371c0-1.664-1.349-3.014-3.014-3.014h-10.871
		c-1.664,0-3.014,1.349-3.014,3.014v33.371c0,1.664,1.349,3.014,3.014,3.014h10.871
		C351.866,286.282,353.216,284.933,353.216,283.268z M385.047,283.268v-33.371c0-1.664-1.349-3.014-3.014-3.014h-10.871
		c-1.664,0-3.014,1.349-3.014,3.014v33.371c0,1.664,1.349,3.014,3.014,3.014h10.871
		C383.698,286.282,385.047,284.933,385.047,283.268z M416.878,283.268v-33.371c0-1.664-1.349-3.014-3.014-3.014h-10.871
		c-1.664,0-3.014,1.349-3.014,3.014v33.371c0,1.664,1.349,3.014,3.014,3.014h10.871
		C415.529,286.282,416.878,284.933,416.878,283.268z M353.216,345.262v-33.371c0-1.664-1.349-3.014-3.014-3.014h-10.871
		c-1.664,0-3.014,1.349-3.014,3.014v33.371c0,1.664,1.349,3.014,3.014,3.014h10.871
		C351.866,348.276,353.216,346.926,353.216,345.262z M385.047,345.262v-33.371c0-1.664-1.349-3.014-3.014-3.014h-10.871
		c-1.664,0-3.014,1.349-3.014,3.014v33.371c0,1.664,1.349,3.014,3.014,3.014h10.871
		C383.698,348.276,385.047,346.926,385.047,345.262z M416.878,345.262v-33.371c0-1.664-1.349-3.014-3.014-3.014h-10.871
		c-1.664,0-3.014,1.349-3.014,3.014v33.371c0,1.664,1.349,3.014,3.014,3.014h10.871
		C415.529,348.276,416.878,346.926,416.878,345.262z M353.216,405.845v-33.371c0-1.664-1.349-3.014-3.014-3.014h-10.871
		c-1.664,0-3.014,1.349-3.014,3.014v33.371c0,1.664,1.349,3.014,3.014,3.014h10.871C351.866,408.859,353.216,407.51,353.216,405.845
		z M385.047,405.845v-33.371c0-1.664-1.349-3.014-3.014-3.014h-10.871c-1.664,0-3.014,1.349-3.014,3.014v33.371
		c0,1.664,1.349,3.014,3.014,3.014h10.871C383.698,408.859,385.047,407.51,385.047,405.845z M353.216,467.839v-33.371
		c0-1.664-1.349-3.014-3.014-3.014h-10.871c-1.664,0-3.014,1.349-3.014,3.014v33.371c0,1.664,1.349,3.014,3.014,3.014h10.871
		C351.866,470.852,353.216,469.503,353.216,467.839z M385.047,467.839v-33.371c0-1.664-1.349-3.014-3.014-3.014h-10.871
		c-1.664,0-3.014,1.349-3.014,3.014v33.371c0,1.664,1.349,3.014,3.014,3.014h10.871
		C383.698,470.852,385.047,469.503,385.047,467.839z"/>
</g>
<g id="Layer_6">
	<path fill="#2B3B47" d="M342.349,246.034v255.583H215.052V246.034c0-2.008,1.627-3.635,3.635-3.635h120.027
		C340.722,242.399,342.349,244.026,342.349,246.034z M478.514,369.686H372.888c-1.513,0-2.579,1.484-2.097,2.918l3.973,11.805
		c0.12,0.357,0.328,0.665,0.591,0.91c-0.049,0.192-0.084,0.389-0.084,0.597v115.701h100.86V385.916c0-0.207-0.034-0.405-0.084-0.597
		c0.263-0.245,0.471-0.553,0.591-0.91l3.973-11.805C481.093,371.171,480.027,369.686,478.514,369.686z"/>
</g>
<g id="Layer_7">
	<path fill="#2B3B47" d="M190.378,228.355c2.393,0,4.333-1.94,4.333-4.333v-10.48c0-2.393-1.94-4.333-4.333-4.333h-5.086h-25.424
		v-15.214c3.396-1.251,5.823-4.506,5.823-8.336v-17.782c0-4.911-3.981-8.891-8.891-8.891H77.326c-4.911,0-8.891,3.981-8.891,8.891
		v17.782c0,3.83,2.427,7.085,5.823,8.336v15.214h-24.36h-6.15c-2.393,0-4.333,1.94-4.333,4.333v10.48
		c0,2.393,1.94,4.333,4.333,4.333h2.049v66.674h-2.049c-2.393,0-4.333,1.94-4.333,4.333v10.48c0,2.393,1.94,4.333,4.333,4.333h2.049
		v120.485h-2.049c-2.393,0-4.333,1.94-4.333,4.333v10.48c0,2.393,1.94,4.333,4.333,4.333h2.049v47.81h143.597v-47.81h0.985
		c2.393,0,4.333-1.94,4.333-4.333v-10.48c0-2.393-1.94-4.333-4.333-4.333h-0.985V314.176h0.985c2.393,0,4.333-1.94,4.333-4.333
		v-10.48c0-2.393-1.94-4.333-4.333-4.333h-0.985v-66.674H190.378z M152.053,209.209h-69.98V194.55h69.98V209.209z"/>
</g>
<g id="Layer_8">
	<path fill="#FFCF53" d="M240.693,314.157h-9.464c-1.449,0-2.624-1.175-2.624-2.624v-29.051c0-1.449,1.175-2.624,2.624-2.624h9.464
		c1.449,0,2.624,1.175,2.624,2.624v29.051C243.316,312.982,242.142,314.157,240.693,314.157z M271.027,311.533v-29.051
		c0-1.449-1.175-2.624-2.624-2.624h-9.464c-1.449,0-2.624,1.175-2.624,2.624v29.051c0,1.449,1.175,2.624,2.624,2.624h9.464
		C269.853,314.157,271.027,312.982,271.027,311.533z M298.738,311.533v-29.051c0-1.449-1.175-2.624-2.624-2.624h-9.464
		c-1.449,0-2.624,1.175-2.624,2.624v29.051c0,1.449,1.175,2.624,2.624,2.624h9.464C297.563,314.157,298.738,312.982,298.738,311.533
		z M326.449,311.533v-29.051c0-1.449-1.175-2.624-2.624-2.624h-9.464c-1.449,0-2.624,1.175-2.624,2.624v29.051
		c0,1.449,1.175,2.624,2.624,2.624h9.464C325.274,314.157,326.449,312.982,326.449,311.533z M243.316,365.502v-29.051
		c0-1.449-1.175-2.624-2.624-2.624h-9.464c-1.449,0-2.624,1.175-2.624,2.624v29.051c0,1.449,1.175,2.624,2.624,2.624h9.464
		C242.142,368.125,243.316,366.951,243.316,365.502z M271.027,365.502v-29.051c0-1.449-1.175-2.624-2.624-2.624h-9.464
		c-1.449,0-2.624,1.175-2.624,2.624v29.051c0,1.449,1.175,2.624,2.624,2.624h9.464C269.853,368.125,271.027,366.951,271.027,365.502
		z M298.738,365.502v-29.051c0-1.449-1.175-2.624-2.624-2.624h-9.464c-1.449,0-2.624,1.175-2.624,2.624v29.051
		c0,1.449,1.175,2.624,2.624,2.624h9.464C297.563,368.125,298.738,366.951,298.738,365.502z M326.449,365.502v-29.051
		c0-1.449-1.175-2.624-2.624-2.624h-9.464c-1.449,0-2.624,1.175-2.624,2.624v29.051c0,1.449,1.175,2.624,2.624,2.624h9.464
		C325.274,368.125,326.449,366.951,326.449,365.502z M243.316,418.243v-29.051c0-1.449-1.175-2.624-2.624-2.624h-9.464
		c-1.449,0-2.624,1.175-2.624,2.624v29.051c0,1.449,1.175,2.624,2.624,2.624h9.464C242.142,420.866,243.316,419.692,243.316,418.243
		z M271.027,418.243v-29.051c0-1.449-1.175-2.624-2.624-2.624h-9.464c-1.449,0-2.624,1.175-2.624,2.624v29.051
		c0,1.449,1.175,2.624,2.624,2.624h9.464C269.853,420.866,271.027,419.692,271.027,418.243z M298.738,418.243v-29.051
		c0-1.449-1.175-2.624-2.624-2.624h-9.464c-1.449,0-2.624,1.175-2.624,2.624v29.051c0,1.449,1.175,2.624,2.624,2.624h9.464
		C297.563,420.866,298.738,419.692,298.738,418.243z M326.449,418.243v-29.051c0-1.449-1.175-2.624-2.624-2.624h-9.464
		c-1.449,0-2.624,1.175-2.624,2.624v29.051c0,1.449,1.175,2.624,2.624,2.624h9.464C325.274,420.866,326.449,419.692,326.449,418.243
		z M243.316,472.211V443.16c0-1.449-1.175-2.624-2.624-2.624h-9.464c-1.449,0-2.624,1.175-2.624,2.624v29.051
		c0,1.449,1.175,2.624,2.624,2.624h9.464C242.142,474.835,243.316,473.66,243.316,472.211z M271.027,472.211V443.16
		c0-1.449-1.175-2.624-2.624-2.624h-9.464c-1.449,0-2.624,1.175-2.624,2.624v29.051c0,1.449,1.175,2.624,2.624,2.624h9.464
		C269.853,474.835,271.027,473.66,271.027,472.211z M298.738,472.211V443.16c0-1.449-1.175-2.624-2.624-2.624h-9.464
		c-1.449,0-2.624,1.175-2.624,2.624v29.051c0,1.449,1.175,2.624,2.624,2.624h9.464C297.563,474.835,298.738,473.66,298.738,472.211z
		 M326.449,472.211V443.16c0-1.449-1.175-2.624-2.624-2.624h-9.464c-1.449,0-2.624,1.175-2.624,2.624v29.051
		c0,1.449,1.175,2.624,2.624,2.624h9.464C325.274,474.835,326.449,473.66,326.449,472.211z M74.327,364.136v-26.151
		c0-1.304-1.057-2.362-2.362-2.362h-8.519c-1.304,0-2.362,1.057-2.362,2.362v26.151c0,1.304,1.057,2.362,2.362,2.362h8.519
		C73.27,366.497,74.327,365.44,74.327,364.136z M99.271,364.136v-26.151c0-1.304-1.057-2.362-2.362-2.362h-8.519
		c-1.304,0-2.362,1.057-2.362,2.362v26.151c0,1.304,1.057,2.362,2.362,2.362h8.519C98.214,366.497,99.271,365.44,99.271,364.136z
		 M124.215,364.136v-26.151c0-1.304-1.057-2.362-2.362-2.362h-8.519c-1.304,0-2.362,1.057-2.362,2.362v26.151
		c0,1.304,1.057,2.362,2.362,2.362h8.519C123.158,366.497,124.215,365.44,124.215,364.136z M149.159,364.136v-26.151
		c0-1.304-1.057-2.362-2.362-2.362h-8.519c-1.304,0-2.362,1.057-2.362,2.362v26.151c0,1.304,1.057,2.362,2.362,2.362h8.519
		C148.102,366.497,149.159,365.44,149.159,364.136z M174.104,364.136v-26.151c0-1.304-1.057-2.362-2.362-2.362h-8.519
		c-1.304,0-2.362,1.057-2.362,2.362v26.151c0,1.304,1.057,2.362,2.362,2.362h8.519C173.046,366.497,174.104,365.44,174.104,364.136z
		 M74.327,276.989v-26.151c0-1.304-1.057-2.362-2.362-2.362h-8.519c-1.304,0-2.362,1.057-2.362,2.362v26.151
		c0,1.304,1.057,2.362,2.362,2.362h8.519C73.27,279.35,74.327,278.293,74.327,276.989z M99.271,276.989v-26.151
		c0-1.304-1.057-2.362-2.362-2.362h-8.519c-1.304,0-2.362,1.057-2.362,2.362v26.151c0,1.304,1.057,2.362,2.362,2.362h8.519
		C98.214,279.35,99.271,278.293,99.271,276.989z M124.215,276.989v-26.151c0-1.304-1.057-2.362-2.362-2.362h-8.519
		c-1.304,0-2.362,1.057-2.362,2.362v26.151c0,1.304,1.057,2.362,2.362,2.362h8.519C123.158,279.35,124.215,278.293,124.215,276.989z
		 M149.159,276.989v-26.151c0-1.304-1.057-2.362-2.362-2.362h-8.519c-1.304,0-2.362,1.057-2.362,2.362v26.151
		c0,1.304,1.057,2.362,2.362,2.362h8.519C148.102,279.35,149.159,278.293,149.159,276.989z M174.104,276.989v-26.151
		c0-1.304-1.057-2.362-2.362-2.362h-8.519c-1.304,0-2.362,1.057-2.362,2.362v26.151c0,1.304,1.057,2.362,2.362,2.362h8.519
		C173.046,279.35,174.104,278.293,174.104,276.989z M74.327,412.716v-26.151c0-1.304-1.057-2.362-2.362-2.362h-8.519
		c-1.304,0-2.362,1.057-2.362,2.362v26.151c0,1.304,1.057,2.362,2.362,2.362h8.519C73.27,415.077,74.327,414.02,74.327,412.716z
		 M99.271,412.716v-26.151c0-1.304-1.057-2.362-2.362-2.362h-8.519c-1.304,0-2.362,1.057-2.362,2.362v26.151
		c0,1.304,1.057,2.362,2.362,2.362h8.519C98.214,415.077,99.271,414.02,99.271,412.716z M124.215,412.716v-26.151
		c0-1.304-1.057-2.362-2.362-2.362h-8.519c-1.304,0-2.362,1.057-2.362,2.362v26.151c0,1.304,1.057,2.362,2.362,2.362h8.519
		C123.158,415.077,124.215,414.02,124.215,412.716z M149.159,412.716v-26.151c0-1.304-1.057-2.362-2.362-2.362h-8.519
		c-1.304,0-2.362,1.057-2.362,2.362v26.151c0,1.304,1.057,2.362,2.362,2.362h8.519C148.102,415.077,149.159,414.02,149.159,412.716z
		 M174.104,412.716v-26.151c0-1.304-1.057-2.362-2.362-2.362h-8.519c-1.304,0-2.362,1.057-2.362,2.362v26.151
		c0,1.304,1.057,2.362,2.362,2.362h8.519C173.046,415.077,174.104,414.02,174.104,412.716z M416.608,443.653V415.54
		c0-3.419-2.772-6.191-6.191-6.191h-13.393c-3.419,0-6.191,2.772-6.191,6.191v28.113c0,3.419,2.772,6.191,6.191,6.191h13.393
		C413.837,449.843,416.608,447.072,416.608,443.653z M460.968,443.653V415.54c0-3.419-2.772-6.191-6.191-6.191h-13.393
		c-3.419,0-6.191,2.772-6.191,6.191v28.113c0,3.419,2.772,6.191,6.191,6.191h13.393
		C458.196,449.843,460.968,447.072,460.968,443.653z"/>
</g>
</svg>
