<?xml version="1.0" encoding="iso-8859-1"?>
<!-- Generator: Adobe Illustrator 18.1.1, SVG Export Plug-In . SVG Version: 6.00 Build 0)  -->
<!DOCTYPE svg PUBLIC "-//W3C//DTD SVG 1.1//EN" "http://www.w3.org/Graphics/SVG/1.1/DTD/svg11.dtd">
<svg version="1.1" xmlns="http://www.w3.org/2000/svg" xmlns:xlink="http://www.w3.org/1999/xlink" x="0px" y="0px"
	 viewBox="0 0 512 512" enable-background="new 0 0 512 512" xml:space="preserve">
<g id="Layer_7">
	<path fill="#D1CFC3" d="M257.528,105.574c54.99,0,106.557,5.502,145.203,15.492c42.355,10.949,52.5,23.068,53.005,27.26
		c-0.012,0.149-0.023,0.302-0.031,0.464c-0.253,5.645-14.786,17.663-53.787,27.639c-38.548,9.861-89.826,15.291-144.389,15.291
		c-54.56,0-105.838-5.43-144.385-15.291c-39.001-9.975-53.535-21.993-53.791-27.696c-0.008-0.141-0.018-0.281-0.03-0.422
		c0.526-4.205,10.697-16.309,53.006-27.245C150.974,111.076,202.542,105.574,257.528,105.574 M257.528,94.555
		c-115.561,0-209.247,24.217-209.247,54.092c0,0.214,0.054,0.426,0.064,0.64c1.332,29.578,94.45,53.451,209.182,53.451
		c114.738,0,207.856-23.875,209.184-53.454c0.011-0.214,0.062-0.424,0.062-0.637C466.774,118.772,373.095,94.555,257.528,94.555
		L257.528,94.555z"/>
</g>
<g id="Layer_1">
</g>
</svg>
