<?xml version="1.0" encoding="iso-8859-1"?>
<!-- Generator: Adobe Illustrator 19.1.0, SVG Export Plug-In . SVG Version: 6.00 Build 0)  -->
<!DOCTYPE svg PUBLIC "-//W3C//DTD SVG 1.1//EN" "http://www.w3.org/Graphics/SVG/1.1/DTD/svg11.dtd">
<svg version="1.1" xmlns="http://www.w3.org/2000/svg" xmlns:xlink="http://www.w3.org/1999/xlink" x="0px" y="0px"
	 viewBox="0 0 512 512" enable-background="new 0 0 512 512" xml:space="preserve">
<g id="Layer_3">
	<path fill="#D4D8D5" d="M333.221,36.63c-13.205-8.15-28.894-8.866-42.204-3.326c-2.241-8.566-7.644-16.319-15.773-21.336
		c-16.515-10.193-38.079-5.296-48.623,10.866c-3.294-4.219-7.376-7.937-12.198-10.913c-21.792-13.45-50.361-6.687-63.811,15.105
		c-3.043,4.931-5.042,10.21-6.075,15.582c-14.828,14.675-30.634,35.862-37.472,63.17c-1.628,6.503,5.484,11.706,11.126,8.087
		c10.144-6.505,24.739-14.071,40.479-16.452c0.648,12.998,10.822,23.834,24.147,24.949c8.828,0.739,16.998-2.962,22.325-9.236
		c2.403,12.233,9.695,23.469,21.14,30.533c21.792,13.45,50.361,6.687,63.811-15.105c1.687-2.734,3.056-5.575,4.117-8.479
		c19.955,6.668,42.587-0.956,54.115-19.634C361.776,78.648,355.013,50.079,333.221,36.63z"/>
</g>
<g id="Layer_1">
</g>
</svg>
