<?xml version="1.0" encoding="iso-8859-1"?>
<!-- Generator: Adobe Illustrator 19.1.0, SVG Export Plug-In . SVG Version: 6.00 Build 0)  -->
<!DOCTYPE svg PUBLIC "-//W3C//DTD SVG 1.1//EN" "http://www.w3.org/Graphics/SVG/1.1/DTD/svg11.dtd">
<svg version="1.1" xmlns="http://www.w3.org/2000/svg" xmlns:xlink="http://www.w3.org/1999/xlink" x="0px" y="0px"
	 viewBox="0 0 512 512" enable-background="new 0 0 512 512" xml:space="preserve">
<g id="Layer_26">
	<path fill="#F6CAAE" d="M184.138,308.891c0.033,4.723-3.77,8.579-8.493,8.611c-4.723,0.033-8.579-3.77-8.611-8.493
		s3.77-8.579,8.493-8.611C180.25,300.366,184.106,304.168,184.138,308.891z M339.324,227.247c-4.723,0.033-8.526,3.888-8.493,8.611
		c0.033,4.723,3.888,8.526,8.611,8.493c4.723-0.033,8.526-3.888,8.493-8.611C347.903,231.017,344.047,227.215,339.324,227.247z
		 M392.202,257.943c-4.723,0.033-8.526,3.888-8.493,8.611c0.033,4.723,3.888,8.526,8.611,8.493c4.723-0.033,8.526-3.888,8.493-8.611
		C400.781,261.713,396.925,257.91,392.202,257.943z M327.229,304.268c-4.723,0.033-8.526,3.888-8.493,8.611
		c0.033,4.723,3.888,8.526,8.611,8.493c4.723-0.033,8.526-3.888,8.493-8.611S331.952,304.235,327.229,304.268z"/>
</g>
<g id="Layer_1">
</g>
</svg>
