<svg xmlns="http://www.w3.org/2000/svg" viewBox="0 0 511.9 511.9" enable-background="new 0 0 511.9 511.9"><path fill="#FFD3B6" d="M254 205.9c-1.3-2.3-2.2-4.8-2.7-7.3-2.1 2.2-4.2 4.5-6.3 6.7l-14.9 16-4.9 5.3-47.1-38.7c.7-1.8 1-3.8.7-5.9l-.6-4.2c-.2-1.4-.4-2.8-.7-4.2-.2-1.4-.5-2.8-.7-4.2s-.5-2.8-.8-4.2c-1.1-5.3-6-9.1-11.5-8.8-.4 0-.8.1-1.2.1-4-4-10.5-4.2-14.8-.4-2.2 2-4.5 3.9-6.7 6l-1 .9c-4 3.7-4.4 9.9-.8 14.1 2.7 3.2 5.5 6.4 8.4 9.4.7.8 1.5 1.5 2.2 2.3s1.5 1.5 2.2 2.3c1.5 1.5 3.1 3 4.7 4.4.6.5 1.3.9 2 1.2l56.4 62.7.1.1c5.4 5.9 14.6 6.3 20.5.8l1.7-1.6 14.9-15.8 15-15.7 7.8-8.1c-8.8-.1-17.3-4.9-21.9-13.2z"/></svg>