<?xml version="1.0" encoding="iso-8859-1"?>
<!-- Generator: Adobe Illustrator 18.1.1, SVG Export Plug-In . SVG Version: 6.00 Build 0)  -->
<!DOCTYPE svg PUBLIC "-//W3C//DTD SVG 1.1//EN" "http://www.w3.org/Graphics/SVG/1.1/DTD/svg11.dtd">
<svg version="1.1" xmlns="http://www.w3.org/2000/svg" xmlns:xlink="http://www.w3.org/1999/xlink" x="0px" y="0px"
	 viewBox="0 0 512 512" enable-background="new 0 0 512 512" xml:space="preserve">
<g id="Layer_5">
	<path fill="#FF473E" d="M254.874,407.084c-82.179,0-147.776-65.439-149.341-148.978c-1.559-83.231,62.438-147.59,148.86-149.706
		c82.218-2.061,149.827,65.771,149.827,149.339C404.22,340.088,337.224,407.084,254.874,407.084z M257.632,158.735
		c-0.771,0-1.552,0.011-2.328,0.029c-57.695,1.412-100.429,43.819-99.401,98.644c1.041,55.681,44.516,99.298,98.969,99.298
		c54.573,0,98.969-44.397,98.969-98.968C353.842,203.147,310.682,158.735,257.632,158.735z"/>
</g>
<g id="Layer_1">
</g>
</svg>
