<?xml version="1.0" encoding="iso-8859-1"?>
<!-- Generator: Adobe Illustrator 18.1.1, SVG Export Plug-In . SVG Version: 6.00 Build 0)  -->
<!DOCTYPE svg PUBLIC "-//W3C//DTD SVG 1.1//EN" "http://www.w3.org/Graphics/SVG/1.1/DTD/svg11.dtd">
<svg version="1.1" xmlns="http://www.w3.org/2000/svg" xmlns:xlink="http://www.w3.org/1999/xlink" x="0px" y="0px"
	 viewBox="0 0 512 512" enable-background="new 0 0 512 512" xml:space="preserve">
<g id="Layer_2">
	<path fill="#00B1FF" d="M96.894,12.915c0-1.678-0.886-3.232-2.332-4.085c-1.447-0.853-3.235-0.88-4.705-0.068L35.109,38.986
		c-1.513,0.835-2.451,2.427-2.451,4.154v63.756c-2.039-0.93-4.298-1.462-6.685-1.462c-8.918,0-16.147,7.229-16.147,16.147
		c0,8.918,7.229,16.147,16.147,16.147c8.762,0,15.877-6.983,16.124-15.686c0.017-0.153,0.05-0.292,0.05-0.461V65.988l45.26-24.987
		v34.057c-2.032-0.922-4.282-1.449-6.659-1.449c-8.918,0-16.147,7.229-16.147,16.147c0,8.918,7.229,16.147,16.147,16.147
		c8.918,0,16.147-7.229,16.147-16.147c0-0.092-0.012-0.18-0.014-0.271c0.001-0.046,0.014-0.089,0.014-0.136V12.915z"/>
</g>
<g id="Layer_3">
	<path fill="#00B1FF" d="M492.144,5.346l-25.341,13.99c-1.69,0.933-2.739,2.712-2.739,4.642v71.243
		c-2.279-1.039-4.803-1.633-7.47-1.633c-9.965,0-18.044,8.078-18.044,18.044c0,9.965,8.078,18.043,18.044,18.043
		c9.793,0,17.746-7.807,18.018-17.534c0.019-0.169,0.055-0.323,0.055-0.509V51.603c0-1.292,0.702-2.482,1.833-3.106l19.074-10.53
		c1.131-0.624,1.833-1.814,1.833-3.106V8.452C497.407,5.751,494.509,4.04,492.144,5.346z"/>
</g>
<g id="Layer_4">
	<path fill="#176068" d="M178.715,115.298c-5.569,0-11.02-2.748-14.249-7.785c-5.038-7.86-2.749-18.316,5.111-23.354
		c57.774-37.027,134.635-36.991,191.261,0.083c7.811,5.114,9.997,15.592,4.883,23.403c-5.115,7.811-15.592,9.996-23.403,4.883
		c-45.668-29.901-107.756-29.861-154.498,0.096C184.997,114.434,181.837,115.298,178.715,115.298z"/>
</g>
<g id="Layer_5">
	<path fill="#B9C5C6" d="M436.526,252.625c-10.69,0-19.355-8.666-19.355-19.355c0-84.311-68.592-152.903-152.903-152.903
		S111.364,148.959,111.364,233.27c0,10.69-8.666,19.355-19.355,19.355s-19.356-8.666-19.356-19.355
		c0-105.657,85.958-191.614,191.614-191.614s191.614,85.958,191.614,191.614C455.881,243.959,447.216,252.625,436.526,252.625z"/>
</g>
<g id="Layer_6">
	<path fill="#96A9B2" d="M92.009,360.936c-3.665,0-6.636-2.971-6.636-6.636V233.27c0-3.665,2.971-6.636,6.636-6.636
		s6.636,2.971,6.636,6.636V354.3C98.646,357.965,95.674,360.936,92.009,360.936z M443.161,354.3V233.27
		c0-3.665-2.971-6.636-6.636-6.636s-6.636,2.971-6.636,6.636V354.3c0,3.665,2.971,6.636,6.636,6.636S443.161,357.965,443.161,354.3z
		"/>
</g>
<g id="Layer_7">
	<path fill="#B9C5C6" d="M136.653,263.524c-40.721,0-73.732,33.011-73.732,73.733c0,40.721,33.011,73.732,73.732,73.732h21.888
		v-73.732v-73.733H136.653z"/>
</g>
<g id="Layer_8">
	<path fill="#B9C5C6" d="M394.246,263.524h-21.888v73.733v73.732h21.888c40.721,0,73.732-33.011,73.732-73.732
		C467.978,296.535,434.967,263.524,394.246,263.524z"/>
</g>
<g id="Layer_9">
	<path fill="#96A9B2" d="M90.976,508.633c-3.549,0.001-7.036-0.446-10.426-1.354c-12.688-3.4-22.309-13.065-25.736-25.855
		c-2.185-8.156-4.706-29.688,19.031-53.425c2.688-2.688,5.149-5.001,7.32-7.04c12.419-11.666,16.167-15.188,16.167-46.836
		c0-3.665,2.971-6.636,6.636-6.636s6.636,2.971,6.636,6.636c0,35.957-5.875,42.909-20.352,56.51c-2.1,1.973-4.48,4.209-7.023,6.751
		c-18.846,18.846-17.184,34.674-15.595,40.604c2.218,8.277,8.178,14.28,16.351,16.471c12.449,3.336,27.47-2.63,41.209-16.368
		c20.292-20.293,44.154-27.753,63.826-19.963c15.289,6.057,25.119,20.537,25.656,37.792c0.114,3.663-2.763,6.725-6.426,6.839
		c-3.669,0.105-6.725-2.763-6.839-6.427c-0.375-12.059-6.834-21.728-17.278-25.864c-14.597-5.782-33.122,0.576-49.553,17.008
		C120.792,501.261,105.387,508.633,90.976,508.633z"/>
</g>
<g id="Layer_10">
	<g>
		<g>
			<path fill="#176068" d="M170.616,263.088v5.554V405.87v5.554c0,3.601-2.919,6.52-6.52,6.52h-11.109
				c-3.601,0-6.52-2.919-6.52-6.52v-5.554V268.643v-5.554c0-3.601,2.919-6.52,6.52-6.52h11.109
				C167.697,256.568,170.616,259.487,170.616,263.088z M377.912,256.568h-11.109c-3.601,0-6.52,2.919-6.52,6.52v5.554V405.87v5.554
				c0,3.601,2.919,6.52,6.52,6.52h11.109c3.601,0,6.52-2.919,6.52-6.52v-5.554V268.643v-5.554
				C384.432,259.487,381.513,256.568,377.912,256.568z M436.526,226.749c-3.601,0-6.52,2.919-6.52,6.52s2.919,6.52,6.52,6.52
				c3.601,0,6.52-2.919,6.52-6.52S440.127,226.749,436.526,226.749z M92.009,226.749c-3.601,0-6.52,2.919-6.52,6.52
				s2.919,6.52,6.52,6.52s6.52-2.919,6.52-6.52S95.61,226.749,92.009,226.749z"/>
		</g>
	</g>
</g>
</svg>
