<?xml version="1.0" encoding="iso-8859-1"?>
<!-- Generator: Adobe Illustrator 18.1.0, SVG Export Plug-In . SVG Version: 6.00 Build 0)  -->
<!DOCTYPE svg PUBLIC "-//W3C//DTD SVG 1.1//EN" "http://www.w3.org/Graphics/SVG/1.1/DTD/svg11.dtd">
<svg version="1.1" xmlns="http://www.w3.org/2000/svg" xmlns:xlink="http://www.w3.org/1999/xlink" x="0px" y="0px"
	 viewBox="0 0 512 512" enable-background="new 0 0 512 512" xml:space="preserve">
<g id="Layer_2">
	<path fill="#DADBDC" d="M29.888,131.912L252.423,20.926c2.093-1.044,4.554-1.045,6.647-0.003l222.98,110.986
		c7.047,3.508,4.551,14.125-3.321,14.125H33.214C25.345,146.034,22.846,135.424,29.888,131.912z M482.8,154.269H29.2
		c-3.976,0-7.2,3.224-7.2,7.2v58.666c0,3.976,3.224,7.2,7.2,7.2h15.3v219.419c0,7.953,6.447,14.4,14.4,14.4h394.2
		c7.953,0,14.4-6.447,14.4-14.4V227.335h15.3c3.976,0,7.2-3.224,7.2-7.2v-58.666C490,157.492,486.776,154.269,482.8,154.269z"/>
</g>
<g id="Layer_3">
	<path fill="#767777" d="M138.993,446.754H93.614V205h45.379V446.754z M417.932,205h-45.379v241.754h45.379V205z"/>
</g>
<g id="Layer_4">
	<path fill="#767777" d="M489.627,135.637L259.649,21.168c-2.465-1.227-5.363-1.226-7.827,0.003L22.304,135.64
		c-8.291,4.135-5.348,16.628,3.917,16.628h2.23c1.355,0,2.692-0.314,3.906-0.917L252.115,42.125c2.45-1.218,5.327-1.223,7.781-0.015
		l221.945,109.256c1.206,0.594,2.532,0.902,3.876,0.902h0C494.985,152.269,497.924,139.767,489.627,135.637z"/>
</g>
<g id="Layer_5">
	<path fill="#999999" d="M496.3,137.114H15.7c-3.976,0-7.2,3.224-7.2,7.2v19.909c0,3.977,3.224,7.2,7.2,7.2h480.6
		c3.976,0,7.2-3.224,7.2-7.2v-19.909C503.5,140.337,500.276,137.114,496.3,137.114z"/>
</g>
<g id="Layer_6">
	<path fill="#999999" d="M496.3,204.269H15.7c-3.976,0-7.2,3.224-7.2,7.2v19.909c0,3.976,3.224,7.2,7.2,7.2h163.549v208.176H41.852
		c-4.724,0-9.1,2.485-11.521,6.542l-18.225,30.545c-5.336,8.943,1.108,20.29,11.521,20.29h464.746
		c10.413,0,16.857-11.347,11.521-20.29l-18.225-30.545c-2.421-4.057-6.797-6.542-11.521-6.542h-137.85V238.578H496.3
		c3.976,0,7.2-3.224,7.2-7.2v-19.909C503.5,207.492,500.276,204.269,496.3,204.269z"/>
</g>
<g id="Layer_7">
	<rect x="179.273" y="446.754" transform="matrix(1 -0.0013 0.0013 1 -0.6215 0.3421)" fill="#C8CACB" width="153" height="37.36"/>
</g>
<g id="Layer_8">
	<path fill="#EBECED" d="M354.773,504.131h-198v-20.667c0-3.976,3.224-7.2,7.2-7.2h183.6c3.976,0,7.2,3.224,7.2,7.2V504.131z"/>
</g>
<g id="Layer_9">
	<path fill="#2B3B47" d="M309.565,446.754H201.982V348.44c0-33.032,24.083-59.81,53.792-59.81h0
		c29.708,0,53.792,26.778,53.792,59.81V446.754z"/>
</g>
</svg>
