<?xml version="1.0" encoding="iso-8859-1"?>
<!-- Generator: Adobe Illustrator 18.1.1, SVG Export Plug-In . SVG Version: 6.00 Build 0)  -->
<!DOCTYPE svg PUBLIC "-//W3C//DTD SVG 1.1//EN" "http://www.w3.org/Graphics/SVG/1.1/DTD/svg11.dtd">
<svg version="1.1" xmlns="http://www.w3.org/2000/svg" xmlns:xlink="http://www.w3.org/1999/xlink" x="0px" y="0px"
	 viewBox="0 0 512 512" enable-background="new 0 0 512 512" xml:space="preserve">
<g id="Layer_2">
	<path fill="#FFD469" d="M440.246,391.463c-0.204-6.636-1.013-13.448-2.446-20.301c-1.477-6.838-3.574-13.724-6.44-20.402
		c-5.677-13.387-14.333-25.876-24.816-36.17c-5.247-5.145-10.899-9.801-16.828-13.873c-0.008-0.006-0.016-0.01-0.024-0.016
		c-18.472-38.492-55.922-66.79-101.476-71.365c0,0-0.137-0.014-0.407-0.041c-0.278-0.035-0.668-0.064-1.155-0.077
		c-0.495-0.02-1.11-0.045-1.84-0.075c-0.678,0.019-1.516-0.008-2.363,0.055c-1.236,0.038-2.585,0.175-4.05,0.376
		c3.754-61.293-66.816-45.669-66.816-45.669c37.528,1.324,51.007,43.526,27.906,67.673c-0.287,0.23-0.563,0.452-0.852,0.685
		c-1.286,0.995-2.594,2.007-3.922,3.034c-1.297,1.066-2.678,2.074-4.065,3.111c-1.382,1.046-2.782,2.106-4.2,3.18
		c-1.44,1.051-2.898,2.114-4.371,3.189c-2.912,2.202-6.008,4.304-9.081,6.563c-6.237,4.392-12.746,8.927-19.469,13.524
		c-6.762,4.532-13.704,9.191-20.828,13.758c-7.132,4.555-14.446,8.982-21.799,13.312c-7.393,4.229-14.859,8.212-22.204,12.135
		c-1.847,0.975-3.679,1.941-5.494,2.898c-1.819,0.977-3.619,1.987-5.434,2.886c-1.808,0.966-3.597,1.922-5.364,2.867
		c-1.788,0.938-3.553,1.865-5.296,2.779c-3.485,1.92-6.945,3.616-10.291,5.463c-3.359,1.771-6.643,3.479-9.816,5.209
		c-3.185,1.641-6.261,3.311-9.216,4.904c-2.964,1.51-5.787,3.153-8.479,4.56c-2.688,1.454-5.232,2.8-7.599,4.144
		c-2.368,1.324-4.57,2.463-6.567,3.629c-3.997,2.284-7.202,4.078-9.399,5.414c-1.099,0.667-1.946,1.187-2.518,1.563
		c-0.573,0.366-0.868,0.555-0.868,0.555l-4.466,2.85c-7.142,4.6-13.131,11.182-17.048,19.418
		c-11.209,23.574-1.186,51.771,22.388,62.98c0,0,0.366,0.174,1.075,0.511c0.71,0.347,1.765,0.824,3.147,1.434
		c2.763,1.178,6.842,2.978,12.096,4.732c2.629,0.924,5.554,1.887,8.758,2.852c3.202,0.94,6.681,1.849,10.428,2.836
		c1.87,0.449,3.802,0.855,5.801,1.302c2,0.451,4.061,0.881,6.182,1.295c4.24,0.81,8.71,1.484,13.409,2.18
		c4.68,0.556,9.595,1.151,14.681,1.521c5.083,0.348,10.372,0.687,15.793,0.732c10.875,0.274,22.333-0.284,34.178-1.431
		c11.833-1.214,23.979-3.274,36.32-5.761c12.315-2.579,24.75-5.814,37.078-9.614c12.27-3.942,24.422-8.458,36.127-13.598
		c11.65-5.25,22.931-10.947,33.495-17.136c10.532-6.241,20.521-12.663,29.598-19.354c9.158-6.569,17.456-13.31,24.98-19.683
		c3.709-3.257,7.283-6.354,10.591-9.405c1.642-1.54,3.242-3.041,4.797-4.5c1.541-1.474,3.091-2.847,4.474-4.306
		c0.193-0.206,0.368-0.414,0.557-0.621c0.289,0.477,0.587,0.949,0.865,1.433c4.151,7.318,6.983,15.444,8.579,23.899
		c0.806,4.223,1.263,8.538,1.436,12.848c0.161,2.153,0.114,4.317,0.133,6.465c-0.081,2.152-0.12,4.294-0.328,6.419
		c-0.553,8.528-2.23,16.752-4.138,24.4c-0.979,3.82-2.125,7.465-3.232,10.969c-0.558,1.749-1.196,3.428-1.766,5.086
		c-0.279,0.832-0.604,1.633-0.914,2.43c-0.302,0.802-0.6,1.592-0.893,2.37c-0.564,1.57-1.214,3.048-1.809,4.497
		c-0.594,1.45-1.183,2.844-1.78,4.178c-0.589,1.343-1.154,2.63-1.693,3.861c-0.578,1.219-1.13,2.382-1.653,3.486
		c-1.016,2.264-1.987,4.146-2.817,5.844c-0.417,0.855-0.767,1.632-1.156,2.378c-0.4,0.752-0.763,1.434-1.088,2.046
		c-1.269,2.47-1.946,3.788-1.946,3.788c-1.465,2.873-1.148,6.489,1.099,9.072c2.953,3.397,8.101,3.756,11.498,0.803
		c0,0,1.118-0.972,3.215-2.794c2.007-1.721,5.254-4.867,8.968-8.751c3.759-3.893,8.069-8.898,12.707-14.994
		c2.344-3.036,4.634-6.426,7.02-10.062c1.138-1.851,2.397-3.709,3.522-5.713c1.111-2.012,2.34-4.028,3.422-6.197
		c1.118-2.148,2.269-4.346,3.324-6.662c0.541-1.151,1.084-2.313,1.591-3.511c0.497-1.205,0.998-2.42,1.503-3.646
		c1.959-4.937,3.87-10.169,5.311-15.765C438.795,417.222,440.701,404.748,440.246,391.463z"/>
</g>
<g id="Layer_1">
</g>
</svg>
