<svg xmlns="http://www.w3.org/2000/svg" viewBox="0 0 512 512" enable-background="new 0 0 512 512"><path fill="#00A6C1" d="M296.182 430.156c-11.982 19.98-33.88 32.39-57.143 32.39-18.505 0-36.137-7.857-48.61-21.122-12.473 13.266-30.105 21.123-48.61 21.123s-36.135-7.858-48.608-21.123c-12.473 13.266-30.105 21.123-48.61 21.123-12.193 0-24.01-3.415-34.22-9.537v-25.287c8.735 9.468 20.967 14.92 34.22 14.92 16.56 0 31.542-8.494 40.075-22.724.02-.035.044-.064.065-.097.15-.245.31-.486.482-.72.062-.082.13-.158.193-.238.138-.174.275-.348.425-.513.106-.117.22-.224.332-.336.117-.117.23-.237.354-.35.16-.143.326-.275.493-.407.088-.07.17-.144.26-.21.224-.166.455-.318.69-.463.043-.027.08-.057.124-.083.004-.003.01-.004.013-.007.266-.158.538-.303.816-.435.025-.012.05-.027.074-.04.088-.04.18-.07.27-.11.49-.212.988-.387 1.493-.516l.04-.012c.26-.065.52-.113.78-.156.058-.01.113-.024.17-.032.22-.032.438-.05.657-.067.105-.01.21-.024.314-.03.172-.008.342-.003.512-.003.156 0 .312-.005.47.003.12.006.238.023.358.033.204.017.41.032.612.063.076.01.15.03.227.044.24.04.48.085.72.144.052.013.103.032.155.046.256.068.51.14.763.23.62.22 1.216.502 1.784.84l.008.005c.025.015.047.033.072.05.254.154.504.32.745.498.08.06.154.126.232.188.175.14.35.28.517.43.12.11.23.226.344.34.115.113.232.223.34.343.152.167.29.343.43.518.06.08.127.153.187.234.178.24.342.488.497.742.016.026.035.05.05.075 8.534 14.23 23.515 22.726 40.075 22.726s31.54-8.495 40.074-22.725c.016-.025.034-.048.05-.074.155-.254.32-.503.498-.743.057-.077.12-.146.178-.22.142-.18.285-.36.44-.533.102-.113.212-.215.318-.322.12-.122.24-.246.367-.362.156-.14.32-.27.483-.4.09-.072.176-.148.27-.217.223-.167.455-.32.69-.464.042-.026.08-.056.12-.08l.014-.008c.273-.163.554-.312.84-.448l.05-.026c.28-.132.57-.25.862-.353.286-.102.576-.188.867-.263.026-.007.05-.016.076-.022.254-.063.51-.11.765-.153.062-.01.123-.026.184-.035.217-.032.434-.05.65-.066.108-.008.214-.023.32-.028.172-.008.34-.003.512-.003.156 0 .312-.006.47.002.122.006.243.023.365.034.203.017.405.032.606.062.082.012.162.032.243.047.235.04.47.083.704.14.064.017.126.04.19.057.244.066.487.134.728.22.62.22 1.218.502 1.787.842l.006.003c.022.013.04.03.062.042.26.156.512.324.756.506.075.056.143.117.216.174.182.143.363.287.535.443.115.104.22.215.328.324.12.12.24.234.355.36.145.16.278.33.412.497.068.086.14.166.205.254.172.232.33.472.48.717.02.034.045.064.065.098 8.534 14.23 23.515 22.725 40.074 22.725s31.54-8.495 40.075-22.725c2.825-4.71 8.937-6.242 13.65-3.416 4.72 2.824 6.25 8.936 3.422 13.65zm136.954-76.53c-16.56 0-31.54-8.496-40.074-22.725-.015-.024-.034-.047-.05-.072-.154-.255-.32-.504-.498-.745-.058-.078-.12-.148-.18-.224-.142-.18-.284-.36-.438-.53-.105-.115-.218-.22-.328-.33-.118-.12-.232-.24-.356-.352-.16-.146-.33-.28-.5-.414-.084-.067-.164-.138-.25-.203-.232-.17-.47-.327-.714-.477-.035-.022-.066-.047-.102-.068l-.01-.006c-.568-.34-1.164-.62-1.782-.84-.25-.09-.503-.16-.756-.228-.055-.015-.108-.035-.163-.048-.234-.06-.47-.1-.707-.14-.08-.015-.16-.035-.243-.048-.197-.03-.394-.043-.592-.06-.127-.01-.254-.03-.38-.035-.15-.006-.296 0-.444-.002-.18 0-.36-.006-.54.003-.094.006-.19.02-.284.027-.23.018-.458.036-.687.07-.046.007-.09.018-.134.025-.93.15-1.85.435-2.734.864-.26.126-.518.26-.767.41l-.016.008c-.055.032-.102.07-.155.103-.223.14-.444.282-.656.44-.1.073-.19.153-.285.23-.158.126-.318.25-.47.387-.13.118-.25.245-.373.37-.104.104-.212.204-.31.315-.157.17-.3.35-.443.532-.06.074-.122.143-.178.22-.18.24-.344.49-.5.744-.015.025-.034.047-.05.073-8.533 14.228-23.514 22.723-40.073 22.723-16.562 0-31.542-8.495-40.076-22.724-1.95-3.254-5.466-4.988-9.007-4.823-3.54-.163-7.053 1.572-9.003 4.822-8.534 14.228-23.515 22.723-40.074 22.723-5.496 0-9.95 4.455-9.95 9.95s4.454 9.952 9.95 9.952c18.737 0 36.582-8.055 49.08-21.625 12.496 13.57 30.34 21.625 49.08 21.625 18.503 0 36.135-7.857 48.607-21.123 12.473 13.266 30.105 21.123 48.608 21.123 5.496 0 9.95-4.455 9.95-9.95s-4.453-9.95-9.95-9.95z"/></svg>