<?xml version="1.0" encoding="iso-8859-1"?>
<!-- Generator: Adobe Illustrator 18.1.1, SVG Export Plug-In . SVG Version: 6.00 Build 0)  -->
<!DOCTYPE svg PUBLIC "-//W3C//DTD SVG 1.1//EN" "http://www.w3.org/Graphics/SVG/1.1/DTD/svg11.dtd">
<svg version="1.1" xmlns="http://www.w3.org/2000/svg" xmlns:xlink="http://www.w3.org/1999/xlink" x="0px" y="0px"
	 viewBox="0 0 512 512" enable-background="new 0 0 512 512" xml:space="preserve">
<g id="Layer_2">
	<path fill="#E8E8E6" d="M32.439,296.116L1.838,181.914c-1.029-3.841,1.25-7.789,5.091-8.818l193.004-51.715
		c3.841-1.029,7.789,1.25,8.818,5.091l30.601,114.203c1.029,3.841-1.25,7.789-5.091,8.818L41.257,301.208
		C37.416,302.237,33.468,299.957,32.439,296.116z M480.795,296.116l30.601-114.203c1.029-3.841-1.25-7.789-5.091-8.818L313.3,121.38
		c-3.841-1.029-7.789,1.25-8.818,5.091l-30.601,114.203c-1.029,3.841,1.25,7.789,5.091,8.818l193.004,51.715
		C475.818,302.237,479.766,299.957,480.795,296.116z"/>
</g>
<g id="Layer_1">
</g>
</svg>
