<?xml version="1.0" encoding="iso-8859-1"?>
<!-- Generator: Adobe Illustrator 19.2.1, SVG Export Plug-In . SVG Version: 6.00 Build 0)  -->
<!DOCTYPE svg PUBLIC "-//W3C//DTD SVG 1.1//EN" "http://www.w3.org/Graphics/SVG/1.1/DTD/svg11.dtd">
<svg version="1.1" xmlns="http://www.w3.org/2000/svg" xmlns:xlink="http://www.w3.org/1999/xlink" x="0px" y="0px"
	 viewBox="0 0 512 512" enable-background="new 0 0 512 512" xml:space="preserve">
<g id="Layer_9">
	<path fill="#FFD469" d="M187.666,288.102c0,0-0.063-0.042-0.186-0.122c-0.125-0.086-0.304-0.198-0.532-0.325
		c-0.229-0.133-0.512-0.297-0.845-0.489c-0.322-0.164-0.699-0.371-1.105-0.558c-0.407-0.19-0.859-0.405-1.334-0.591
		c-0.484-0.21-0.99-0.392-1.529-0.581c-1.08-0.384-2.262-0.716-3.51-0.967c-2.498-0.505-5.256-0.666-8.017-0.311
		c-1.383,0.173-2.76,0.491-4.129,0.9c-1.371,0.397-2.741,0.863-4.097,1.367c-0.049-1.356-0.131-2.71-0.274-4.041
		c-0.14-1.421-0.367-2.817-0.731-4.162c-0.717-2.69-1.911-5.181-3.325-7.302c-0.706-1.06-1.461-2.028-2.225-2.882
		c-0.379-0.427-0.739-0.827-1.117-1.195c-0.352-0.369-0.723-0.706-1.053-1.01c-0.327-0.305-0.662-0.575-0.935-0.811
		c-0.304-0.235-0.563-0.434-0.773-0.596c-0.203-0.162-0.375-0.286-0.502-0.369c-0.121-0.083-0.183-0.126-0.183-0.126
		c-4.114-2.823-9.761-2.767-13.848,0.524c0,0-0.059,0.047-0.173,0.14c-0.12,0.092-0.282,0.229-0.473,0.406
		c-0.197,0.177-0.44,0.396-0.725,0.653c-0.255,0.256-0.568,0.551-0.871,0.879c-0.306,0.329-0.65,0.693-0.973,1.087
		c-0.349,0.395-0.678,0.821-1.024,1.276c-0.697,0.91-1.378,1.932-2.001,3.042c-1.249,2.221-2.252,4.795-2.764,7.532
		c-0.261,1.369-0.383,2.777-0.415,4.205c-0.045,1.428-0.023,2.877,0.039,4.324c0.003,0.057,0.009,0.114,0.012,0.171
		c-1.339-0.34-2.686-0.646-4.029-0.886c-1.404-0.264-2.807-0.436-4.2-0.464c-2.784-0.065-5.509,0.383-7.941,1.147
		c-1.215,0.38-2.356,0.834-3.39,1.329c-0.516,0.245-1.001,0.478-1.46,0.738c-0.453,0.235-0.88,0.496-1.265,0.728
		c-0.384,0.228-0.737,0.474-1.041,0.671c-0.311,0.226-0.575,0.419-0.789,0.575c-0.213,0.15-0.379,0.28-0.495,0.379
		c-0.114,0.093-0.172,0.141-0.172,0.141c-3.863,3.159-5.39,8.596-3.376,13.44c0,0,0.029,0.07,0.085,0.206
		c0.055,0.141,0.14,0.335,0.257,0.567c0.115,0.239,0.257,0.533,0.424,0.879c0.174,0.317,0.37,0.7,0.6,1.083
		c0.23,0.386,0.483,0.818,0.771,1.239c0.282,0.446,0.598,0.88,0.938,1.34c0.678,0.924,1.468,1.864,2.36,2.773
		c1.782,1.822,3.973,3.505,6.456,4.763c1.241,0.634,2.559,1.145,3.92,1.576c0.379,0.124,0.767,0.233,1.152,0.348
		c-0.233,0.327-0.471,0.652-0.694,0.983c-0.809,1.177-1.534,2.391-2.122,3.654c-1.185,2.52-1.876,5.194-2.161,7.727
		c-0.143,1.266-0.189,2.492-0.155,3.638c0.015,0.571,0.033,1.109,0.085,1.633c0.032,0.509,0.098,1.006,0.154,1.451
		c0.054,0.444,0.135,0.866,0.193,1.223c0.081,0.376,0.151,0.695,0.207,0.954c0.051,0.255,0.103,0.46,0.146,0.606
		c0.039,0.142,0.059,0.215,0.059,0.215c1.328,4.81,5.683,8.405,10.929,8.521c0,0,0.076,0.002,0.223,0.005
		c0.151,0.007,0.363,0.007,0.623-0.006c0.265-0.009,0.591-0.019,0.976-0.032c0.36-0.031,0.79-0.055,1.233-0.111
		c0.446-0.054,0.943-0.111,1.445-0.204c0.521-0.078,1.047-0.191,1.605-0.316c1.119-0.246,2.298-0.59,3.49-1.037
		c2.387-0.894,4.812-2.217,6.966-3.98c1.082-0.878,2.082-1.877,3.026-2.949c0.267-0.297,0.523-0.608,0.784-0.913
		c0.205,0.345,0.406,0.695,0.618,1.033c0.75,1.215,1.567,2.369,2.485,3.418c1.826,2.102,3.992,3.816,6.194,5.1
		c1.1,0.643,2.203,1.18,3.265,1.612c0.529,0.217,1.027,0.418,1.528,0.583c0.478,0.177,0.959,0.317,1.389,0.445
		c0.427,0.13,0.847,0.226,1.196,0.318c0.376,0.077,0.696,0.143,0.956,0.196c0.254,0.056,0.463,0.092,0.613,0.111
		c0.145,0.022,0.22,0.033,0.22,0.033c4.936,0.73,9.985-1.801,12.211-6.552c0,0,0.032-0.069,0.094-0.202
		c0.067-0.136,0.153-0.329,0.247-0.572c0.099-0.246,0.221-0.549,0.365-0.905c0.117-0.342,0.269-0.745,0.397-1.173
		c0.13-0.43,0.28-0.908,0.397-1.404c0.14-0.508,0.248-1.035,0.359-1.596c0.227-1.123,0.389-2.34,0.462-3.612
		c0.147-2.544-0.083-5.297-0.824-7.981c-0.366-1.344-0.876-2.663-1.474-3.96c-0.587-1.303-1.243-2.594-1.934-3.867
		c-0.568-1.039-1.182-2.049-1.812-3.041c1.13-0.322,2.261-0.668,3.376-1.066c1.362-0.491,2.711-1.019,4.016-1.602
		c1.309-0.571,2.567-1.217,3.734-1.977c2.339-1.511,4.341-3.414,5.923-5.412c0.792-0.998,1.48-2.014,2.057-3.005
		c0.29-0.493,0.559-0.958,0.793-1.431c0.242-0.449,0.449-0.905,0.637-1.313c0.189-0.405,0.343-0.806,0.484-1.14
		c0.13-0.362,0.24-0.669,0.33-0.919c0.092-0.243,0.156-0.445,0.196-0.591c0.042-0.141,0.063-0.213,0.063-0.213
		C193.847,296.333,192.054,290.978,187.666,288.102z"/>
</g>
<g id="Layer_1">
</g>
</svg>
