<?xml version="1.0" encoding="iso-8859-1"?>
<!-- Generator: Adobe Illustrator 19.1.0, SVG Export Plug-In . SVG Version: 6.00 Build 0)  -->
<!DOCTYPE svg PUBLIC "-//W3C//DTD SVG 1.1//EN" "http://www.w3.org/Graphics/SVG/1.1/DTD/svg11.dtd">
<svg version="1.1" xmlns="http://www.w3.org/2000/svg" xmlns:xlink="http://www.w3.org/1999/xlink" x="0px" y="0px"
	 viewBox="0 0 512 512" enable-background="new 0 0 512 512" xml:space="preserve">
<g id="Layer_4">
	<path fill="#2BA52E" d="M434.753,205.002c-0.098-4.231-0.623-9.342-1.869-15.013c-1.236-5.673-3.168-11.914-5.931-18.429
		c-2.785-6.49-6.375-13.276-10.921-20.032c-2.272-3.379-4.798-6.737-7.544-10.083c-2.797-3.3-5.778-6.624-9.095-9.807
		c-6.616-6.377-14.315-12.487-23.537-17.642c-1.161-0.647-2.337-1.275-3.524-1.891c-1.229-0.589-2.46-1.18-3.693-1.771
		c-1.235-0.588-2.556-1.119-3.841-1.672l-0.975-0.401l-0.245-0.099c0.342,0.109-0.607-0.206-0.537-0.185l-0.085-0.035l-0.342-0.14
		l-0.684-0.281c-0.245-0.098-0.38-0.166-0.867-0.332l-2.46-0.844l-2.088-0.675c-1.381-0.438-2.779-0.813-4.154-1.161
		c-2.765-0.696-5.504-1.327-8.243-1.746c-10.934-1.826-21.75-1.82-32.32-0.235c-5.16,0.771-10.263,1.948-15.24,3.514
		c2.364-3.095,4.855-6.217,7.463-9.336c3.918-4.714,8.086-9.411,12.361-14.047c4.282-4.626,8.66-9.212,13.087-13.601
		c4.411-4.411,8.824-8.707,13.169-12.766c4.344-4.058,8.605-7.904,12.668-11.497c4.063-3.591,7.939-6.904,11.492-9.876
		c3.554-2.966,6.775-5.627,9.513-7.806c0.688-0.525,1.335-1.074,1.951-1.583c0.606-0.489,1.173-0.948,1.701-1.375
		c0.535-0.417,1.028-0.849,1.488-1.23c0.459-0.385,0.941-0.72,1.338-1.027c1.619-1.254,2.473-1.982,2.473-1.982
		c0.582-0.5,1.08-1.154,1.399-1.909c1.102-2.61-0.121-5.619-2.731-6.72c0,0-1.034-0.436-2.955-1.143
		c-1.837-0.704-5.039-1.556-8.779-2.369c-1.904-0.397-4.019-0.786-6.344-1.135c-2.309-0.307-4.835-0.604-7.523-0.769
		c-5.387-0.363-11.493-0.364-18.111,0.21c-6.617,0.569-13.732,1.735-21.121,3.584c-7.386,1.852-15.023,4.421-22.697,7.707
		c-3.804,1.693-7.672,3.48-11.456,5.541c-3.834,1.988-7.58,4.25-11.315,6.63c-3.728,2.392-7.373,5.003-10.965,7.748
		c-3.568,2.781-7.07,5.705-10.445,8.826c-6.739,6.243-13.059,13.13-18.644,20.645c-2.821,3.728-5.434,7.633-7.761,11.71
		c-2.347,4.053-4.414,8.277-6.178,12.605c-3.552,8.628-5.846,17.732-6.731,26.676c-0.475,4.456-0.498,8.922-0.297,13.192
		c0.065,1.009,0.148,2.006,0.242,2.995c-1.547-0.781-3.127-1.563-4.769-2.351c-0.546-0.26-1.096-0.521-1.649-0.784
		c-0.559-0.227-1.121-0.455-1.686-0.685c-1.142-0.455-2.298-0.914-3.465-1.379c-4.708-1.981-9.718-3.393-15.056-4.988
		c-2.655-0.693-5.374-1.271-8.181-1.894c-1.397-0.283-2.836-0.653-4.253-0.855c-1.422-0.217-2.864-0.452-4.323-0.639
		c-5.873-0.898-11.866-1.198-18.139-1.452c-3.071,0.064-6.206,0.148-9.392,0.283c-1.602,0.062-3.151,0.265-4.732,0.438
		c-1.576,0.185-3.174,0.351-4.768,0.578c-12.702,1.848-25.483,5.786-37.302,11.862c-1.462,0.774-2.899,1.599-4.337,2.43
		c-1.444,0.821-2.874,1.674-4.296,2.543c-0.708,0.438-1.435,0.853-2.126,1.314l-2.042,1.43c-1.364,0.951-2.718,1.92-4.055,2.915
		c-1.333,0.997-2.705,1.953-3.976,3.026c-1.266,1.078-2.549,2.135-3.78,3.257l-3.707,3.337l-0.922,0.837
		c-0.304,0.275-0.663,0.643-0.991,0.96l-2.003,1.984l-3.886,4.072l-1.914,2.048l-0.95,1.026l-0.581,0.73
		c-1.517,1.891-2.954,3.858-4.426,5.784l-0.549,0.725c0.218-0.225-2.125,2.257-1.177,1.266l-0.089,0.123l-0.179,0.247l-0.357,0.494
		l-1.42,1.975c-0.92,1.331-1.839,2.66-2.756,3.987c-1.858,2.632-3.531,5.351-5.115,8.108c-3.321,5.408-6.002,11.084-8.582,16.636
		c-1.185,2.836-2.299,5.67-3.403,8.46c-0.581,1.379-1.027,2.818-1.483,4.24c-0.451,1.417-0.901,2.829-1.348,4.235
		c-3.418,11.277-5.508,22.386-6.152,32.985c-0.091,1.314-0.181,2.619-0.271,3.915c-0.083,1.292-0.044,2.609-0.062,3.89
		c-0.003,2.572-0.016,5.078,0.056,7.536c0.158,2.485,0.32,4.907,0.552,7.271c0.112,1.175,0.224,2.339,0.334,3.492
		c0.131,1.153,0.346,2.306,0.534,3.434c0.395,2.235,0.782,4.423,1.161,6.561c0.405,2.118,0.929,4.193,1.477,6.185
		c0.558,1.996,1.041,3.908,1.639,5.761c0.615,1.857,1.226,3.639,1.894,5.346c1.246,3.406,2.604,6.533,4.05,9.345
		c0.7,1.391,1.372,2.726,2.014,4.001c0.706,1.333,1.471,2.57,2.158,3.727c0.696,1.136,1.354,2.212,1.974,3.223
		c0.308,0.497,0.637,0.969,0.937,1.425c0.154,0.222,0.299,0.461,0.453,0.656c0.156,0.187,0.309,0.371,0.46,0.551
		c1.186,1.446,2.257,2.664,3.132,3.65c0.851,0.991,1.586,1.735,2.049,2.242c0.472,0.506,0.716,0.767,0.716,0.767l1.212,1.298
		c1.005,1.075,2.38,1.816,3.955,2.007c3.559,0.433,6.795-2.102,7.228-5.661c0,0,0.038-0.315,0.112-0.924
		c0.067-0.608,0.203-1.518,0.298-2.688c0.108-1.173,0.242-2.62,0.399-4.321c0.039-0.89,0.276-1.651,0.417-2.542
		c0.148-0.86,0.306-1.774,0.473-2.739c0.161-0.955,0.352-1.952,0.501-2.979c0.228-1.082,0.466-2.214,0.714-3.395
		c0.255-1.174,0.509-2.385,0.741-3.631c0.212-1.244,0.636-2.539,0.958-3.857c0.359-1.32,0.688-2.671,1.019-4.052
		c0.359-1.381,0.853-2.793,1.286-4.228c0.483-1.434,0.825-2.901,1.35-4.384c0.529-1.471,1.07-2.975,1.623-4.512
		c0.27-0.76,0.542-1.528,0.818-2.303c0.312-0.766,0.627-1.54,0.944-2.321c0.628-1.545,1.267-3.119,1.917-4.719
		c0.769-1.566,1.467-3.165,2.195-4.773c0.372-0.802,0.701-1.618,1.109-2.418c0.417-0.794,0.838-1.595,1.261-2.4
		c3.165-6.487,7.126-12.947,11.414-19.294c1.12-1.564,2.177-3.169,3.339-4.717c1.161-1.537,2.33-3.086,3.506-4.643
		c1.205-1.526,2.526-2.976,3.773-4.475c1.193-1.541,2.546-2.956,3.867-4.396c1.319-1.441,2.602-2.915,4.054-4.23l2.102-2.039
		l1.02-1.045l0.255-0.262l0.127-0.131l0.064-0.065c0.564-0.594-0.699,0.738-0.536,0.571l0.665-0.612
		c1.773-1.631,3.549-3.266,5.328-4.902l0.66-0.603l0.514-0.379l1.021-0.762l2.013-1.538c1.175-1.052,2.851-2.199,4.381-3.325
		c0.78-0.556,1.521-1.159,2.276-1.745c0.757-0.581,1.573-1.071,2.352-1.615c1.609-1.005,3.039-2.29,4.668-3.23
		c1.612-0.969,3.138-2.071,4.7-3.109c0.879-0.549,1.76-1.078,2.64-1.615c-0.356,0.402-0.723,0.794-1.073,1.201
		c-6.963,8.108-12.721,17.264-16.989,27.496c-1.102,2.542-2.024,5.197-2.905,7.909c-0.436,1.349-0.862,2.733-1.226,4.135
		l-0.539,2.128l-0.593,2.532c-0.119,0.501-0.133,0.651-0.18,0.911l-0.126,0.728l-0.063,0.364l-0.016,0.091
		c0.019-0.07-0.218,0.901-0.129,0.553l-0.046,0.26l-0.179,1.039c-0.215,1.383-0.468,2.783-0.627,4.142
		c-0.155,1.359-0.31,2.715-0.464,4.07c-0.109,1.332-0.203,2.663-0.273,3.99c-0.539,10.551,0.541,20.321,2.424,29.315
		c0.931,4.502,2.161,8.794,3.468,12.918c1.374,4.106,2.874,8.03,4.527,11.751c3.304,7.442,7.142,14.092,11.156,19.902
		c4.047,5.805,8.305,10.759,12.452,14.823c4.14,4.071,8.189,7.233,11.72,9.567c1.717,1.199,3.426,2.119,4.844,2.927
		c1.47,0.839,2.902,1.515,3.929,2.015c1.924,0.676,2.991,0.995,2.991,0.995c1.593,0.478,3.341,0.491,5.042-0.067
		c4.426-1.451,6.837-6.216,5.386-10.642l-0.002-0.006c0,0-0.347-1.059-1.074-2.965c-0.228-0.859-0.384-1.825-0.689-2.998
		c-0.321-1.235-0.631-2.65-0.991-4.213c-1.362-6.28-2.76-15.146-3.514-25.52c-0.354-5.197-0.589-10.747-0.57-16.476
		c0.004-1.431,0.006-2.869,0.065-4.321c-0.003-1.442,0.086-2.898,0.139-4.353c0.141-2.905,0.345-5.825,0.625-8.699
		c0.059-0.722,0.174-1.432,0.252-2.147c0.064-0.716,0.144-1.425,0.251-2.126c0.162-1.417,0.435-2.798,0.624-4.174
		c0.249-1.353,0.475-2.716,0.787-4.006c0.24-1.321,0.576-2.566,0.891-3.799c0.185-0.599,0.347-1.2,0.494-1.801l0.535-1.706
		c0.169-0.571,0.396-1.072,0.579-1.611l0.134-0.399l0.032-0.1c0.102-0.408-0.123,0.503-0.087,0.374l0.03-0.087l0.119-0.35l0.239-0.7
		c0.076-0.216,0.176-0.544,0.198-0.515c0.077-0.102,0.148-0.204,0.213-0.307l0.339-0.693c0.25-0.469,0.439-0.96,0.697-1.457
		c0.466-0.995,1.037-1.999,1.568-3.052c2.231-4.166,4.925-8.504,7.746-12.474c2.829-3.991,5.805-7.594,8.699-10.747
		c2.913-3.144,5.735-5.836,8.652-8.18c2.917-2.327,6.008-4.362,9.505-5.968c3.478-1.599,7.346-2.771,11.213-3.49
		c3.865-0.758,7.683-1.043,11.018-1.232c1.685-0.123,3.186-0.078,4.581-0.149c1.367-0.007,2.563-0.005,3.564-0.026
		c1.967,0.03,3.113-0.019,3.113-0.019l0.778-0.031c1.07-0.049,2.149-0.296,3.185-0.761c3.155-1.415,5.054-4.466,5.167-7.703
		c0.819-0.579,1.557-1.301,2.16-2.175l0.424-0.616c0,0,0.651-0.944,1.672-2.626c0.55-0.836,1.185-1.851,1.917-3.004
		c0.801-1.144,1.561-2.439,2.562-3.8c1.933-2.724,4.205-5.806,6.903-8.676c2.665-2.893,5.715-5.545,8.918-7.64
		c3.219-2.108,6.587-3.643,10.109-4.876c3.536-1.224,7.317-2.182,11.529-2.977c4.209-0.774,8.844-1.378,13.728-1.652
		c4.861-0.278,9.968-0.252,14.683,0.074c1.174,0.11,2.327,0.161,3.418,0.295c0.558,0.046,1.073,0.147,1.604,0.185l0.767,0.081
		c0.122,0,0.246-0.006,0.373-0.017c-0.014-0.034,0.318,0.056,0.541,0.106l0.719,0.17l0.359,0.085l0.09,0.021
		c0.129,0.039-0.763-0.255-0.363-0.125l0.102,0.026l0.409,0.099c0.553,0.132,1.099,0.207,1.672,0.367l1.729,0.454
		c0.587,0.196,1.181,0.378,1.788,0.54c1.212,0.389,2.445,0.767,3.691,1.266c1.258,0.422,2.533,0.955,3.811,1.464
		c1.266,0.572,2.581,1.075,3.867,1.692c0.65,0.283,1.294,0.592,1.934,0.919c0.648,0.314,1.31,0.595,1.953,0.929
		c2.583,1.292,5.164,2.671,7.699,4.097c1.26,0.729,2.541,1.429,3.761,2.198c1.261,0.722,2.48,1.485,3.694,2.243
		c4.862,3.03,9.437,6.18,13.65,9.244c8.385,6.156,15.15,12.054,19.743,16.548c1.132,1.136,2.166,2.151,3.041,3.08
		c0.831,0.882,1.566,1.528,2.172,2.178c1.228,1.63,1.94,2.487,1.94,2.487l0.002,0.003c1.062,1.281,2.512,2.261,4.237,2.739
		c4.489,1.244,9.136-1.386,10.38-5.874c0,0,0.297-1.073,0.748-3.063c0.123-1.136,0.312-2.708,0.383-4.399
		C434.725,209.03,434.855,207.094,434.753,205.002z"/>
</g>
<g id="Layer_1">
</g>
</svg>
