<?xml version="1.0" encoding="iso-8859-1"?>
<!-- Generator: Adobe Illustrator 18.1.1, SVG Export Plug-In . SVG Version: 6.00 Build 0)  -->
<!DOCTYPE svg PUBLIC "-//W3C//DTD SVG 1.1//EN" "http://www.w3.org/Graphics/SVG/1.1/DTD/svg11.dtd">
<svg version="1.1" xmlns="http://www.w3.org/2000/svg" xmlns:xlink="http://www.w3.org/1999/xlink" x="0px" y="0px"
	 viewBox="0 0 512 512" enable-background="new 0 0 512 512" xml:space="preserve">
<g id="Layer_11">
	<path fill="#16992B" d="M353.788,45.526c15.641-5.27,23.374,3.308,5.836,16.988c-9.78,7.629-19.341,9.934-24.973,8.692
		c-0.475-0.105-0.974-0.095-1.439,0.046c-3.616,1.103-6.582-0.701-7.323-5.797c-0.201-1.382-1.291-2.415-2.653-2.719
		c-3.318-0.741-6.823-5.229-9.154-14.726c-6.912-28.157,8.369-41.82,16.253-14.762c0.013,0.044,0.026,0.088,0.038,0.132
		c0.737,2.554,3.965,3.227,5.693,1.207c7.168-8.382,14.77-6.597,13.375,7.538C349.207,44.503,351.523,46.289,353.788,45.526z"/>
</g>
<g id="Layer_1">
</g>
</svg>
