<?xml version="1.0" encoding="iso-8859-1"?>
<!-- Generator: Adobe Illustrator 18.1.1, SVG Export Plug-In . SVG Version: 6.00 Build 0)  -->
<!DOCTYPE svg PUBLIC "-//W3C//DTD SVG 1.1//EN" "http://www.w3.org/Graphics/SVG/1.1/DTD/svg11.dtd">
<svg version="1.1" xmlns="http://www.w3.org/2000/svg" xmlns:xlink="http://www.w3.org/1999/xlink" x="0px" y="0px"
	 viewBox="0 0 512 512" enable-background="new 0 0 512 512" xml:space="preserve">
<g id="Layer_2">
	<path fill="#00B1FF" d="M96.894,12.915c0-1.678-0.886-3.232-2.332-4.085c-1.447-0.853-3.235-0.88-4.705-0.068L35.109,38.986
		c-1.513,0.835-2.451,2.427-2.451,4.154v63.756c-2.039-0.93-4.298-1.462-6.685-1.462c-8.918,0-16.147,7.229-16.147,16.147
		c0,8.918,7.229,16.147,16.147,16.147c8.762,0,15.877-6.983,16.124-15.686c0.017-0.153,0.05-0.292,0.05-0.461V65.988l45.26-24.987
		v34.057c-2.032-0.922-4.282-1.449-6.659-1.449c-8.918,0-16.147,7.229-16.147,16.147c0,8.918,7.229,16.147,16.147,16.147
		c8.918,0,16.147-7.229,16.147-16.147c0-0.092-0.012-0.18-0.014-0.271c0.001-0.046,0.014-0.089,0.014-0.136V12.915z"/>
</g>
<g id="Layer_1">
</g>
</svg>
