<?xml version="1.0" encoding="iso-8859-1"?>
<!-- Generator: Adobe Illustrator 19.1.0, SVG Export Plug-In . SVG Version: 6.00 Build 0)  -->
<!DOCTYPE svg PUBLIC "-//W3C//DTD SVG 1.1//EN" "http://www.w3.org/Graphics/SVG/1.1/DTD/svg11.dtd">
<svg version="1.1" xmlns="http://www.w3.org/2000/svg" xmlns:xlink="http://www.w3.org/1999/xlink" x="0px" y="0px"
	 viewBox="0 0 509.04 509.04" enable-background="new 0 0 509.04 509.04" xml:space="preserve">
<g id="Layer_22">
	<path fill="#00B89C" d="M283.644,179.065c1.466-6.383-0.475-13.348-5.688-18.039c-11.007-9.906-54.306-40.691-63.987-51.885
		l-2.432-4.126l-4.107-6.891c-2.714-4.612-5.165-9.345-7.691-13.954c-2.474-4.629-4.805-9.313-6.725-13.887
		c-1.076-2.283-1.953-4.524-2.777-6.712c-0.822-2.226-1.423-4.24-2.05-6.231l-0.583-1.864c-1.826-5.79-30.735-9.884-27.249,4.583
		c0.099,3.619,0.383,7.186,0.949,10.447c0.536,3.292,1.153,6.515,1.919,9.574c1.56,6.185,3.512,11.982,5.569,17.705
		c2,5.75,4.482,11.197,6.94,16.636l2.694,5.682c-7.947-5.292-15.91-10.565-23.932-15.766c-3.804-13.014-13.169-45.055-15.203-52.015
		c-0.475-1.624-1.725-2.699-3.435-3.335l0.167,0.489c1.926,5.631-18.865,11.451-20.398,6.975l-0.99-2.893
		c-1.412,1.211-2.199,2.52-1.986,3.81c1.042,6.653,3.332,15.302,4.603,21.889c0,0,2.304,11.004,3.811,19.764
		c4.041,23.499,22.646,40.274,22.646,40.274c4.314,4.198,8.96,7.992,13.423,12.008c2.282,1.947,4.442,4.042,6.824,5.867l7.08,5.555
		c2.342,1.873,4.714,3.71,7.214,5.391c2.464,1.725,4.893,3.491,7.482,5.064l4.159,2.527c0.31,0.188,0.631,0.343,0.948,0.512
		l-15.454,93.375l112.721,12.542l9.154-101.555L283.644,179.065z"/>
</g>
<g id="Layer_1">
</g>
</svg>
