<?xml version="1.0" encoding="iso-8859-1"?>
<!-- Generator: Adobe Illustrator 19.1.0, SVG Export Plug-In . SVG Version: 6.00 Build 0)  -->
<!DOCTYPE svg PUBLIC "-//W3C//DTD SVG 1.1//EN" "http://www.w3.org/Graphics/SVG/1.1/DTD/svg11.dtd">
<svg version="1.1" xmlns="http://www.w3.org/2000/svg" xmlns:xlink="http://www.w3.org/1999/xlink" x="0px" y="0px"
	 viewBox="0 0 509.04 509.04" enable-background="new 0 0 509.04 509.04" xml:space="preserve">
<g id="Layer_7">
	<path fill="#999999" d="M496.78,170.902H16.18c-3.976,0-7.2-3.224-7.2-7.2v-18.909c0-3.976,3.224-7.2,7.2-7.2h480.6
		c3.976,0,7.2,3.224,7.2,7.2v18.909C503.98,167.679,500.756,170.902,496.78,170.902z M503.98,231.858v-19.909
		c0-3.976-3.224-7.2-7.2-7.2H16.18c-3.976,0-7.2,3.224-7.2,7.2v19.909c0,3.976,3.224,7.2,7.2,7.2h480.6
		C500.756,239.058,503.98,235.834,503.98,231.858z"/>
</g>
<g id="Layer_1">
</g>
</svg>
