<?xml version="1.0" encoding="iso-8859-1"?>
<!-- Generator: Adobe Illustrator 19.2.0, SVG Export Plug-In . SVG Version: 6.00 Build 0)  -->
<!DOCTYPE svg PUBLIC "-//W3C//DTD SVG 1.1//EN" "http://www.w3.org/Graphics/SVG/1.1/DTD/svg11.dtd">
<svg version="1.1" xmlns="http://www.w3.org/2000/svg" xmlns:xlink="http://www.w3.org/1999/xlink" x="0px" y="0px"
	 viewBox="0 0 512 512" enable-background="new 0 0 512 512" xml:space="preserve">
<g id="Layer_3">
	<path fill="#31434F" d="M74.73,364.062c-1.598,0-3.196-0.609-4.415-1.828c-2.438-2.438-2.438-6.392,0-8.83l80.351-80.352
		c2.438-2.438,6.392-2.438,8.83,0c2.438,2.438,2.438,6.392,0,8.83l-80.351,80.352C77.926,363.453,76.328,364.062,74.73,364.062z
		 M102.103,385.192l57.471-57.471c2.438-2.438,2.438-6.392,0-8.83c-2.438-2.438-6.392-2.438-8.83,0l-57.471,57.471
		c-2.438,2.438-2.438,6.392,0,8.83c1.219,1.219,2.817,1.828,4.415,1.828S100.884,386.411,102.103,385.192z M125.061,408.149
		l80.352-80.352c2.438-2.438,2.438-6.392,0-8.83c-2.438-2.438-6.392-2.438-8.83,0l-80.352,80.352c-2.438,2.438-2.438,6.392,0,8.83
		c1.219,1.219,2.817,1.828,4.415,1.828S123.841,409.368,125.061,408.149z"/>
</g>
<g id="Layer_1">
</g>
</svg>
