<?xml version="1.0" encoding="iso-8859-1"?>
<!-- Generator: Adobe Illustrator 18.1.1, SVG Export Plug-In . SVG Version: 6.00 Build 0)  -->
<!DOCTYPE svg PUBLIC "-//W3C//DTD SVG 1.1//EN" "http://www.w3.org/Graphics/SVG/1.1/DTD/svg11.dtd">
<svg version="1.1" xmlns="http://www.w3.org/2000/svg" xmlns:xlink="http://www.w3.org/1999/xlink" x="0px" y="0px"
	 viewBox="0 0 512 512" enable-background="new 0 0 512 512" xml:space="preserve">
<g id="Layer_2">
	<path fill="#2B3B47" d="M455.18,78.623c0,0,1.222,0.056,3.125,0.541c1.914,0.468,4.507,1.369,7.378,2.848
		c2.872,1.476,6.014,3.544,9.125,6.18c1.552,1.324,3.099,2.785,4.702,4.218c1.575,1.48,3.177,2.98,4.751,4.527
		c1.568,1.556,3.139,3.108,4.643,4.705c1.526,1.56,2.976,3.183,4.394,4.728c1.395,1.583,2.744,3.111,3.99,4.617
		c1.255,1.49,2.417,2.94,3.475,4.301c2.12,2.717,3.816,5.098,4.97,6.82c0.568,0.876,1.014,1.565,1.318,2.034
		c0.294,0.486,0.451,0.745,0.451,0.745c4.907,8.099,2.319,18.643-5.78,23.55c-3.12,1.89-6.597,2.667-9.98,2.447
		c0,0-0.302-0.019-0.869-0.056c-0.557-0.053-1.373-0.13-2.413-0.228c-2.06-0.227-4.956-0.629-8.345-1.252
		c-1.697-0.308-3.519-0.668-5.421-1.091c-1.911-0.407-3.891-0.897-5.939-1.402c-2.025-0.543-4.134-1.077-6.224-1.709
		c-2.111-0.596-4.214-1.27-6.319-1.941c-2.099-0.68-4.17-1.406-6.211-2.118c-2.013-0.758-4.023-1.455-5.915-2.218
		c-3.776-1.539-7.062-3.368-9.699-5.232c-2.639-1.861-4.637-3.744-5.937-5.224c-1.311-1.463-1.925-2.521-1.925-2.521
		c-8.735-15.035-3.628-34.305,11.408-43.04C443.369,79.692,449.334,78.346,455.18,78.623z"/>
</g>
<g id="Layer_1">
</g>
</svg>
