<?xml version="1.0" encoding="iso-8859-1"?>
<!-- Generator: Adobe Illustrator 18.1.1, SVG Export Plug-In . SVG Version: 6.00 Build 0)  -->
<!DOCTYPE svg PUBLIC "-//W3C//DTD SVG 1.1//EN" "http://www.w3.org/Graphics/SVG/1.1/DTD/svg11.dtd">
<svg version="1.1" xmlns="http://www.w3.org/2000/svg" xmlns:xlink="http://www.w3.org/1999/xlink" x="0px" y="0px"
	 viewBox="0 0 512 512" enable-background="new 0 0 512 512" xml:space="preserve">
<g id="Layer_6">
	<path fill="#CED6D5" d="M505.097,46.903l-98.164,120.655c7.888,15.39,5.692,35.861-7.065,51.541
		c-1.217,2.61-2.91,5.367-4.989,8.179c-4.838-13.249-19.936-22.918-37.822-22.918c-21.79,0-39.454,14.344-39.454,32.038
		c0,11.447,7.398,21.485,18.519,27.151c-8.009,0.696-15.55-0.823-21.785-5.485c-27.014-20.199-8.625-63.634,19.47-92.712
		c13.609-16.727,35.003-22.804,52.326-16.341l97.369-119.678c4.854-5.964,13.622-6.863,19.583-2.013
		C509.047,32.172,509.948,40.939,505.097,46.903z"/>
</g>
<g id="Layer_1">
</g>
</svg>
