<svg xmlns="http://www.w3.org/2000/svg" viewBox="0 0 512 512" enable-background="new 0 0 512 512"><path fill="#D1CFC3" d="M360.494 108.84v78.934c0 .923-2.228 1.672-4.976 1.672H156.334c-2.748 0-4.976-.748-4.976-1.672V108.84c0-.922 2.228-1.67 4.976-1.67h199.184c2.748 0 4.976.748 4.976 1.67zM483.32 511.13H256.222c-.05 0-.096-.005-.147-.005-.05 0-.096.005-.147.005H28.802c-10.205 0-15.53-12.2-8.536-19.633 45.777-48.658 52.874-85.83 53.763-128.96v-25.77c0-.08.02-.16.053-.24-.028-4.26-.054-8.596-.054-13.03 0-16.096 12.583-20.822 31.127-19.05v-88.047c0-1.352 3.212-2.448 7.174-2.448h287.192c3.962 0 7.174 1.096 7.174 2.448v86.863c18.708-1.736 31.426 3.307 31.426 20.235 0 64.617-5.177 105.377 53.74 168.005 6.99 7.43 1.66 19.628-8.542 19.628z"/></svg>