<?xml version="1.0" encoding="iso-8859-1"?>
<!-- Generator: Adobe Illustrator 18.1.0, SVG Export Plug-In . SVG Version: 6.00 Build 0)  -->
<!DOCTYPE svg PUBLIC "-//W3C//DTD SVG 1.1//EN" "http://www.w3.org/Graphics/SVG/1.1/DTD/svg11.dtd">
<svg version="1.1" xmlns="http://www.w3.org/2000/svg" xmlns:xlink="http://www.w3.org/1999/xlink" x="0px" y="0px"
	 viewBox="0 0 512 512" enable-background="new 0 0 512 512" xml:space="preserve">
<g id="Layer_2">
	<path fill="#3BCCFF" d="M167.935,31.49c9.308-3.637,18.888-6.728,28.715-9.205c10.943-2.758,22.182-4.769,33.659-5.98
		c2.23,9.985,1.836,12.318-1.218,29.602c-2.443-4.684-4.411-9.709-7.462-13.957c-5.144-7.163-12.117-5.83-15.671,2.568
		c-3.185,7.527-11.048,12.758-18.467,11.891c-1.669-0.195-4.415-1.53-4.584-2.654C181.372,33.55,174.781,32.284,167.935,31.49z
		 M314.66,46.278c-0.144-0.146-0.288-0.291-0.433-0.437l0.471,0.444c-2.97-3.778-6.283-7.34-8.831-11.385
		c-3.387-5.376-6.371-11.006-9.451-16.576c-5.277-0.887-10.609-1.611-15.996-2.151C282.811,33.822,292.749,42.538,314.66,46.278z
		 M246.671,138.103c3.037-0.459,5.775-2.62,8.785-3.613c3.766-1.243,10.388,3.164,10.892-3.463
		c0.243-3.193-4.578-7.377-7.936-10.079c-3.918-3.152-8.664-5.344-13.266-7.494c-0.643-0.3-3.699,2.907-3.637,2.99
		c4.687,6.248,1.081,11.974-2.013,19.283C242.202,136.698,244.59,138.417,246.671,138.103z M498.049,257
		c0,133.68-108.369,242.049-242.049,242.049S13.951,390.68,13.951,257c0-56.103,19.101-107.737,51.136-148.784
		c5.392,3.867,10.79,7.725,16.469,11.109c6.492,3.869,8.534,9.078,8.222,16.11c-0.258,5.81-1.045,11.864,0.197,17.407
		c1.783,7.957,3.14,17.514,8.308,22.92c14.362,15.027,25.697,32.071,37.467,48.925c4.351,6.23,6.707,4.11,8.16-2.244
		c0.453-1.981,2.634-3.566,4.023-5.333c1.305,1.209,3.138,2.171,3.835,3.664c9.982,21.378,26.649,33.883,49.666,38.594
		c3.19,0.653,7.693,3.277,8.451,5.897c2.595,8.967,8.733,10.285,16.43,9.787c7.065-0.457,12.599,1.408,15.349,8.827
		c3.677,9.92,9.965,15.422,21.695,15.42c8.139-0.001,9.23,3.55,6.608,11.678c-0.984,3.052-2.158,6.046-3.057,9.121
		c-6.489,22.2-4.676,42.16,15.389,57.277c3.087,2.325,5.803,5.144,8.678,7.748c8.642,7.827,12.631,17.512,12.657,29.231
		c0.031,13.655-1.055,27.019-6.232,39.825c-2.947,7.291-6.077,15.99,0.932,21.325c6.741,5.132,14.87,0.631,21.634-3.427
		c2.748-1.648,5.06-4.01,7.646-5.946c9.812-7.347,19.354-15.109,29.57-21.847c10.528-6.943,18.674-15.401,24.291-26.847
		c6.045-12.32,14.277-22.955,27.598-28.684c13.633-5.862,19.447-18.478,24.561-31.038c3.443-8.455,1.813-17.093-6.333-22.345
		c-6.886-4.439-14.389-8.46-22.179-10.809c-7.823-2.359-12.822-5.94-17.249-13.198c-12.445-20.404-30.285-33.004-55.43-32.486
		c-4.514,0.093-9.549,1.017-13.461-0.59c-12.011-4.934-21.706-2.2-32.488,4.516c-13.16,8.197-21.322,2.923-22.406-12.796
		c-0.374-5.425-0.504-11.582-6.201-12.929c-11.93-2.82-17.913-7.178-10.137-19.831c0.724-1.178-2.44-6.836-4.184-7.035
		c-4.732-0.54-10.113-0.275-14.399,1.593c-3.895,1.698-6.465,6.211-10.026,8.958c-4.192,3.234-14.298,1-17.065-3.358
		c-7.401-11.656-4.608-32.061,5.71-38.974c10.363-6.943,22.241-5.432,33.827-5.119c6.936,0.187,9.398,5.595,12.828,10.362
		c3.898,5.419,6.959,14.32,15.612,11.407c7.558-2.545,7.897-10.999,8.656-18.118c0.068-0.638,0.056-1.301-0.026-1.938
		c-1.768-13.682,5.967-22.901,14.187-32.449c8.784-10.203,17.331-18.801,32.601-16.041c3.312,0.599,7.465-3.46,11.231-5.374
		c-1.88-2.992-3.096-6.973-5.777-8.77c-5.662-3.795-2.972-6.721,0.86-7.709c5.927-1.529,11.738-2.86,17.903,2.415
		c7.648,6.544,14.06,5.179,17.523-1.163c4.145-7.589,1.957-14.85-5.528-19.388c-21.44-12.999-42.813-26.108-64.212-39.174
		c-5.355-1.635-10.789-1.366-13.979,3.403c-2.295,3.431-2.957,8.08-3.818,12.294c-0.503,2.46,0.293,5.156,0.054,7.704
		c-0.476,5.092-5.726,8.399-9.379,5.109c-9.309-8.383-19.119-11.404-31.644-8.872c-4.049,0.818-10.086-2.543-10.146-9.391
		c-0.06-6.768,2.508-11.638,9.832-11.513c8.79,0.15,14.248-2.125,16.152-12.025c0.954-4.958,14.368-7.619,18.644-2.773
		c7.476,8.47,18.067,8.388,26.705,13.155c4.459,0.462,8.928,1.393,13.374,1.287c8.809-0.21,9.727-2.307,6.215-12.466
		c-0.409-1.184-0.901-2.339-1.355-3.508c0.011,0.011,0.021,0.022,0.032,0.032c0.138,0.139,0.275,0.278,0.413,0.417
		c0,0-0.004-0.004-0.004-0.005c0.001,0.002,0.003,0.003,0.004,0.005l-0.142-0.145c-0.132-0.135-0.308-0.315-0.308-0.315
		c21.269,8.955,43.962,14.551,59.806,34.09c11.696,14.423,29.819,12.387,41.989-2.181c-3.308-3.734-6.209-7.984-9.82-11.333
		c43.952,36.326,74.863,87.872,84.645,146.57C496.917,229.953,498.049,243.344,498.049,257z"/>
</g>
<g id="Layer_3">
	<path fill="#13A031" d="M305.867,34.9c-3.387-5.376-6.371-11.006-9.451-16.576c11.503,1.935,22.734,4.67,33.625,8.165
		c23.741,7.62,45.882,18.809,65.798,32.93c2.798,2.009,5.571,4.071,8.323,6.177c2.003,1.553,3.983,3.135,5.935,4.749
		c3.612,3.349,6.513,7.599,9.82,11.333c-12.17,14.568-30.293,16.604-41.989,2.181c-15.844-19.539-38.537-25.135-59.806-34.09
		c0.001,0.003,0.003,0.007,0.004,0.01c-1.156-1.167-2.312-2.334-3.467-3.501c0.013,0.002,0.025,0.005,0.038,0.007l-0.471-0.444
		l0.471,0.444C311.727,42.506,308.415,38.944,305.867,34.9z M326.41,233.657c-1.859-1.23-5.021-0.864-7.548-0.642
		c-8.781,0.771-16.016-1.26-22.597-7.933c-3.109-3.153-9.212-3.353-10.418-3.743c-5.838,0-7.786-0.168-9.698,0.027
		c-11.421,1.167-19.55,6.392-19.48,12.422c0.069,6.011,7.747,10.027,20.62,9.419c9.26-0.438,16.738,0.409,24.431,7.399
		c8.276,7.52,21.486,5.951,28.337-0.804c2.023-1.994,4.111-5.969,3.422-8.178C332.498,238.487,329.339,235.594,326.41,233.657z
		 M494.77,216.045c-8.158-8.158-23.52-10.361-28.77,13.297s7.558,65.711,29.986,57.408
		C498.685,263.045,498.117,239.439,494.77,216.045z M81.556,119.325c-5.679-3.384-11.077-7.242-16.469-11.109
		c7.875-10.09,16.519-19.55,25.867-28.268c8.518-7.944,17.61-15.281,27.207-21.941c15.386-10.678,32.077-19.601,49.774-26.517
		c6.845,0.794,13.437,2.06,14.973,12.265c0.169,1.124,2.914,2.459,4.584,2.654c7.419,0.867,15.282-4.364,18.467-11.891
		c3.554-8.398,10.527-9.731,15.671-2.568c3.051,4.248,5.019,9.272,7.462,13.957c3.054-17.284,3.448-19.618,1.218-29.602
		c1.483-0.156,2.969-0.303,4.459-0.433c6.996-0.608,14.077-0.921,21.231-0.921c8.243,0,16.389,0.417,24.421,1.222
		c2.39,17.649,12.328,26.365,34.239,30.105c1.156,1.167,2.312,2.334,3.468,3.501c0.454,1.168,0.946,2.324,1.355,3.508
		c3.512,10.159,2.594,12.255-6.215,12.466c-4.445,0.106-8.915-0.825-13.374-1.287c-8.638-4.767-19.23-4.685-26.705-13.155
		c-4.277-4.845-17.691-2.184-18.644,2.773c-1.904,9.899-7.362,12.175-16.152,12.025c-7.325-0.125-9.893,4.745-9.832,11.513
		c0.061,6.848,6.098,10.209,10.146,9.391c12.525-2.532,22.335,0.489,31.644,8.872c3.653,3.29,8.903-0.017,9.379-5.109
		c0.238-2.548-0.557-5.245-0.054-7.704c0.861-4.214,1.523-8.863,3.818-12.294c3.19-4.769,8.624-5.038,13.979-3.403
		c21.399,13.066,42.773,26.175,64.212,39.174c7.485,4.538,9.673,11.799,5.528,19.388c-3.464,6.342-9.875,7.707-17.523,1.163
		c-6.165-5.275-11.976-3.944-17.903-2.415c-3.832,0.988-6.522,3.914-0.86,7.709c2.681,1.797,3.897,5.779,5.777,8.77
		c-3.766,1.914-7.92,5.972-11.231,5.374c-15.27-2.76-23.817,5.838-32.601,16.041c-8.22,9.547-15.955,18.767-14.187,32.449
		c0.082,0.637,0.094,1.299,0.026,1.938c-0.759,7.118-1.098,15.573-8.656,18.118c-8.653,2.913-11.714-5.988-15.612-11.407
		c-3.43-4.767-5.891-10.175-12.828-10.362c-11.586-0.312-23.464-1.824-33.827,5.119c-10.318,6.913-13.111,27.318-5.71,38.974
		c2.767,4.358,12.873,6.592,17.065,3.358c3.56-2.746,6.131-7.26,10.026-8.958c4.286-1.868,9.667-2.133,14.399-1.593
		c1.744,0.199,4.908,5.857,4.184,7.035c-7.775,12.653-1.792,17.011,10.137,19.831c5.697,1.347,5.827,7.504,6.201,12.929
		c1.084,15.719,9.245,20.993,22.406,12.796c10.782-6.716,20.477-9.45,32.488-4.516c3.912,1.607,8.946,0.683,13.461,0.59
		c25.145-0.517,42.985,12.083,55.43,32.486c4.427,7.259,9.426,10.839,17.249,13.198c7.79,2.349,15.292,6.37,22.179,10.809
		c8.147,5.251,9.776,13.89,6.333,22.345c-5.114,12.559-10.929,25.176-24.561,31.038c-13.321,5.728-21.553,16.363-27.598,28.684
		c-5.616,11.446-13.763,19.903-24.291,26.847c-10.216,6.738-19.758,14.5-29.57,21.847c-2.586,1.936-4.897,4.298-7.646,5.946
		c-6.765,4.057-14.893,8.559-21.634,3.427c-7.008-5.335-3.879-14.034-0.932-21.325c5.176-12.806,6.262-26.169,6.232-39.825
		c-0.026-11.719-4.015-21.403-12.657-29.231c-2.875-2.604-5.591-5.423-8.678-7.748c-20.065-15.117-21.878-35.077-15.389-57.277
		c0.899-3.075,2.073-6.069,3.057-9.121c2.622-8.128,1.531-11.679-6.608-11.678c-11.729,0.002-18.017-5.5-21.695-15.42
		c-2.75-7.419-8.284-9.284-15.349-8.827c-7.697,0.498-13.835-0.82-16.43-9.787c-0.758-2.62-5.261-5.244-8.451-5.897
		c-23.017-4.712-39.684-17.216-49.666-38.594c-0.697-1.493-2.53-2.455-3.835-3.664c-1.39,1.766-3.57,3.352-4.023,5.333
		c-1.453,6.354-3.81,8.474-8.16,2.244c-11.77-16.854-23.105-33.897-37.467-48.925c-5.167-5.406-6.525-14.963-8.308-22.92
		c-1.242-5.544-0.454-11.598-0.197-17.407C90.091,128.403,88.048,123.193,81.556,119.325z"/>
</g>
</svg>
