<svg xmlns="http://www.w3.org/2000/svg" viewBox="0 0 512 512" enable-background="new 0 0 512 512"><path fill="#597B91" d="M403.27 365.73s0 12.843-8.218 12.843c-8.22 0-64.726 15.925-78.083 15.925s-11.302 8.733-17.98 8.733c-.896 0-10.23 7.806-13.357 10.388s-19.82 4.075-24.658-.01c-3.727-3.145 8.434-6.703 6.314-12.486-1.24-3.38-.47-2.208 1.904-4.055 13.738-10.682 23.63-14.897 41.096-14.202 17.466.695 51.884-10.455 64.213-17.133h28.768zM175.19 319.497s-80.65-14.384-100.172-11.3c-19.52 3.08-9.76 21.06-9.76 28.766 0 7.706-6.678 15.41-6.678 37.773 0 22.362 3.596 14.624 8.22 23.87 4.622 9.248 16.437 15.002 16.437 15.002s15.945 12.896 16.438 7.48c.272-2.987-2.055-23.05-2.645-26.59-.554-3.322-13.922-6.872-15.848-10.018-7.706-12.586-8.22-41.867 0-48.85 8.22-6.98 20.034 3.387 39.04 3.387s17.98-2.055 36.71-3.386l18.258-16.133z"/></svg>