<?xml version="1.0" encoding="iso-8859-1"?>
<!-- Generator: Adobe Illustrator 18.1.1, SVG Export Plug-In . SVG Version: 6.00 Build 0)  -->
<!DOCTYPE svg PUBLIC "-//W3C//DTD SVG 1.1//EN" "http://www.w3.org/Graphics/SVG/1.1/DTD/svg11.dtd">
<svg version="1.1" xmlns="http://www.w3.org/2000/svg" xmlns:xlink="http://www.w3.org/1999/xlink" x="0px" y="0px"
	 viewBox="0 0 512 512" enable-background="new 0 0 512 512" xml:space="preserve">
<g id="Layer_2">
	<path fill="#FF1A1A" d="M429.725,175.045c-74.584-74.584-277.675-194.859-327.59-21.509S-48.492,398.983,37.809,485.284
		S670.491,415.81,429.725,175.045z"/>
</g>
<g id="Layer_3">
	<path fill="#FF5C5C" d="M192.935,137.43c0,0-0.083,0.217-0.256,0.588c-0.182,0.351-0.416,0.937-0.775,1.55
		c-0.353,0.627-0.764,1.426-1.286,2.235c-0.514,0.825-1.115,1.713-1.791,2.635c-0.678,0.92-1.431,1.875-2.256,2.825
		c-0.823,0.953-1.714,1.912-2.659,2.851c-1.898,1.862-4.018,3.646-6.24,5.209c-2.216,1.578-4.539,2.927-6.817,3.976
		c-2.276,1.053-4.51,1.802-6.51,2.263c-1.003,0.224-1.938,0.395-2.787,0.503c-0.851,0.104-1.607,0.165-2.246,0.18
		c-1.272,0.043-2.061-0.067-2.061-0.067c-5.521-0.765-9.377-5.862-8.611-11.384c0.199-1.439,0.722-2.806,1.44-3.966
		c0,0,0.423-0.676,1.271-1.624c0.422-0.48,0.953-1.021,1.579-1.607c0.628-0.581,1.359-1.189,2.174-1.815
		c1.636-1.238,3.644-2.471,5.913-3.541c2.266-1.075,4.792-1.99,7.423-2.678c2.625-0.701,5.354-1.182,8-1.444
		c1.327-0.122,2.633-0.19,3.893-0.21c1.258-0.024,2.474,0.012,3.614,0.082c1.141,0.072,2.207,0.182,3.17,0.316
		c0.956,0.119,1.832,0.317,2.54,0.448c0.701,0.117,1.301,0.315,1.686,0.4c0.395,0.106,0.615,0.181,0.615,0.181
		c0.838,0.289,1.284,1.202,0.995,2.04C192.948,137.394,192.94,137.416,192.935,137.43z M362.331,248.547
		c0,0-0.157,0.147-0.411,0.422c-0.232,0.274-0.651,0.679-1.038,1.189c-0.402,0.511-0.932,1.132-1.421,1.84
		c-0.506,0.709-1.031,1.508-1.551,2.377c-0.518,0.869-1.034,1.81-1.512,2.802c-0.483,0.993-0.94,2.038-1.355,3.117
		c-0.812,2.158-1.456,4.452-1.856,6.738c-0.416,2.287-0.58,4.565-0.495,6.693c0.08,2.128,0.413,4.106,0.898,5.794
		c0.249,0.844,0.517,1.616,0.8,2.3c0.289,0.683,0.574,1.277,0.847,1.765c0.533,0.977,0.984,1.53,0.984,1.53
		c0.581,0.703,1.294,1.386,2.073,1.94c4.794,3.413,11.447,2.293,14.859-2.501c0,0,0.414-0.582,0.881-1.592
		c0.24-0.505,0.485-1.117,0.728-1.818c0.238-0.7,0.453-1.489,0.646-2.348c0.372-1.717,0.573-3.712,0.512-5.841
		c-0.056-2.129-0.371-4.391-0.937-6.645c-0.551-2.255-1.345-4.501-2.298-6.6c-0.486-1.049-1.011-2.062-1.558-3.02
		c-0.543-0.959-1.12-1.863-1.695-2.696c-0.576-0.833-1.152-1.595-1.705-2.27c-0.535-0.675-1.105-1.26-1.54-1.742
		c-0.419-0.483-0.865-0.859-1.114-1.117c-0.272-0.257-0.438-0.394-0.438-0.394C363.969,247.92,362.979,247.938,362.331,248.547z
		 M280.471,257.113c0,0-0.201-0.076-0.56-0.183c-0.348-0.087-0.896-0.286-1.523-0.408c-0.635-0.136-1.425-0.338-2.277-0.465
		c-0.859-0.142-1.806-0.261-2.815-0.345c-1.008-0.082-2.078-0.131-3.179-0.123c-1.103,0.004-2.241,0.054-3.391,0.157
		c-2.292,0.221-4.633,0.654-6.859,1.302c-2.233,0.634-4.348,1.49-6.218,2.504c-1.872,1.009-3.498,2.179-4.798,3.358
		c-0.647,0.596-1.221,1.176-1.708,1.731c-0.485,0.56-0.892,1.078-1.209,1.537c-0.641,0.908-0.937,1.557-0.937,1.557
		c-0.373,0.829-0.67,1.766-0.824,2.706c-0.952,5.81,2.985,11.292,8.795,12.244c0,0,0.704,0.115,1.815,0.09
		c0.559-0.007,1.215-0.057,1.95-0.147c0.733-0.095,1.534-0.249,2.389-0.454c1.703-0.422,3.581-1.121,5.462-2.113
		c1.884-0.988,3.773-2.267,5.544-3.768c1.778-1.487,3.442-3.189,4.903-4.969c0.726-0.898,1.402-1.816,2.02-2.729
		c0.62-0.91,1.176-1.826,1.669-2.708c0.493-0.884,0.922-1.737,1.283-2.53c0.369-0.778,0.642-1.546,0.883-2.149
		c0.248-0.589,0.389-1.155,0.51-1.492c0.111-0.357,0.16-0.567,0.16-0.567C281.755,258.307,281.302,257.427,280.471,257.113z
		 M103.792,303.892c0,0-0.201-0.076-0.56-0.183c-0.348-0.087-0.896-0.286-1.523-0.408c-0.635-0.136-1.425-0.338-2.277-0.465
		c-0.859-0.142-1.806-0.261-2.815-0.345c-1.008-0.082-2.078-0.131-3.179-0.123c-1.103,0.004-2.241,0.054-3.391,0.157
		c-2.292,0.221-4.633,0.654-6.859,1.302c-2.233,0.634-4.348,1.49-6.218,2.504c-1.872,1.009-3.498,2.179-4.798,3.358
		c-0.647,0.596-1.221,1.176-1.708,1.731c-0.485,0.56-0.892,1.078-1.209,1.537c-0.641,0.908-0.937,1.557-0.937,1.557
		c-0.373,0.829-0.67,1.766-0.824,2.706c-0.952,5.81,2.985,11.292,8.795,12.244c0,0,0.704,0.115,1.815,0.09
		c0.559-0.007,1.215-0.057,1.95-0.147c0.733-0.095,1.534-0.249,2.389-0.454c1.703-0.422,3.581-1.121,5.462-2.113
		c1.884-0.988,3.773-2.267,5.544-3.768c1.778-1.487,3.442-3.189,4.903-4.969c0.726-0.898,1.402-1.816,2.02-2.729
		c0.62-0.91,1.176-1.826,1.669-2.708c0.493-0.884,0.922-1.737,1.283-2.53c0.369-0.778,0.642-1.546,0.883-2.149
		c0.248-0.589,0.389-1.155,0.51-1.492c0.111-0.357,0.16-0.567,0.16-0.567C105.077,305.086,104.624,304.206,103.792,303.892z
		 M165.455,224.269c0,0-0.209-0.025-0.574-0.041c-0.35-0.001-0.917-0.06-1.538-0.027c-0.632,0.021-1.427,0.016-2.259,0.097
		c-0.843,0.068-1.762,0.179-2.729,0.338c-0.965,0.161-1.98,0.367-3.007,0.635c-1.027,0.267-2.086,0.575-3.118,0.96
		c-1.059,0.357-2.084,0.799-3.101,1.274c-1.014,0.478-2.008,1.002-2.957,1.574c-1.91,1.13-3.648,2.443-5.113,3.847
		c-1.468,1.401-2.66,2.897-3.547,4.322c-0.888,1.424-1.473,2.775-1.812,3.794c-0.179,0.5-0.266,0.949-0.347,1.233
		c-0.072,0.293-0.094,0.467-0.094,0.467c-0.075,0.65-0.102,1.377-0.058,2.053c0.397,6.063,5.634,10.655,11.696,10.258
		c0,0,0.175-0.011,0.471-0.067c0.288-0.065,0.741-0.126,1.251-0.277c1.037-0.282,2.419-0.789,3.89-1.596
		c1.473-0.805,3.034-1.911,4.515-3.298c1.484-1.384,2.893-3.044,4.128-4.888c0.624-0.915,1.204-1.878,1.738-2.863
		c0.531-0.989,1.03-1.987,1.446-3.024c0.443-1.008,0.81-2.048,1.134-3.059c0.325-1.01,0.588-2.012,0.803-2.966
		c0.213-0.956,0.376-1.867,0.491-2.705c0.127-0.826,0.167-1.62,0.224-2.25c0.067-0.618,0.04-1.188,0.059-1.537
		c0.004-0.365-0.009-0.576-0.009-0.576C166.989,225.093,166.333,224.372,165.455,224.269z M285.527,176.904
		c0.492-0.754,0.28-1.765-0.474-2.257c0,0-0.192-0.125-0.543-0.32c-0.346-0.173-0.871-0.506-1.508-0.784
		c-0.641-0.294-1.427-0.691-2.304-1.032c-0.881-0.357-1.866-0.714-2.929-1.052c-1.063-0.336-2.205-0.656-3.4-0.929
		c-1.195-0.276-2.445-0.517-3.726-0.71c-2.559-0.368-5.242-0.542-7.876-0.477c-2.637,0.049-5.222,0.345-7.597,0.856
		c-2.376,0.506-4.541,1.231-6.355,2.049c-0.906,0.415-1.728,0.834-2.448,1.251c-0.718,0.422-1.338,0.822-1.84,1.189
		c-1.007,0.721-1.553,1.278-1.553,1.278c-0.892,0.919-1.663,2.058-2.172,3.32c-2.106,5.22,0.418,11.158,5.637,13.264
		c0,0,0.723,0.292,1.935,0.549c0.607,0.135,1.335,0.254,2.163,0.353c0.826,0.094,1.747,0.148,2.744,0.166
		c1.99,0.022,4.264-0.18,6.644-0.668c2.381-0.483,4.868-1.247,7.304-2.258c2.439-0.996,4.829-2.23,7.026-3.591
		c1.097-0.69,2.146-1.411,3.13-2.143c0.985-0.728,1.904-1.479,2.743-2.212c0.839-0.736,1.598-1.457,2.263-2.137
		c0.668-0.663,1.229-1.342,1.699-1.868c0.472-0.51,0.82-1.025,1.068-1.323c0.243-0.32,0.369-0.511,0.369-0.511L285.527,176.904z
		 M297.421,326.987c0,0-0.161,0.153-0.424,0.439c-0.24,0.286-0.672,0.706-1.074,1.24c-0.418,0.534-0.967,1.183-1.478,1.927
		c-0.528,0.744-1.078,1.583-1.625,2.498c-0.545,0.915-1.09,1.907-1.6,2.956c-0.514,1.049-1.003,2.155-1.452,3.298
		c-0.88,2.288-1.595,4.728-2.067,7.167c-0.488,2.44-0.723,4.879-0.706,7.165c0.013,2.286,0.283,4.42,0.715,6.248
		c0.223,0.914,0.465,1.752,0.727,2.495c0.268,0.743,0.533,1.39,0.791,1.923c0.501,1.066,0.936,1.675,0.936,1.675
		c0.654,0.909,1.49,1.764,2.455,2.447c4.683,3.318,11.17,2.211,14.487-2.473c0,0,0.432-0.61,0.931-1.678
		c0.256-0.534,0.52-1.182,0.785-1.926c0.26-0.743,0.5-1.582,0.72-2.497c0.426-1.83,0.69-3.964,0.696-6.25
		c0.011-2.286-0.232-4.725-0.727-7.163c-0.479-2.438-1.202-4.876-2.089-7.161c-0.453-1.143-0.946-2.247-1.462-3.294
		c-0.513-1.047-1.061-2.037-1.609-2.951c-0.55-0.914-1.102-1.751-1.632-2.493c-0.514-0.742-1.064-1.389-1.484-1.922
		c-0.404-0.533-0.837-0.951-1.078-1.237c-0.263-0.285-0.425-0.438-0.425-0.438C299.085,326.38,298.07,326.372,297.421,326.987z
		 M270.42,410.758c0,0-0.203,0.09-0.547,0.271c-0.322,0.189-0.87,0.44-1.428,0.808c-0.573,0.363-1.307,0.79-2.038,1.32
		c-0.747,0.524-1.546,1.13-2.368,1.81c-0.82,0.68-1.666,1.431-2.498,2.249c-0.835,0.816-1.667,1.694-2.474,2.621
		c-1.596,1.861-3.087,3.92-4.349,6.06c-1.277,2.135-2.316,4.354-3.066,6.514c-0.754,2.159-1.214,4.259-1.42,6.127
		c-0.096,0.936-0.149,1.807-0.151,2.594c0.003,0.789,0.037,1.488,0.101,2.077c0.115,1.173,0.32,1.892,0.32,1.892
		c0.311,1.076,0.813,2.161,1.493,3.128c3.301,4.695,9.783,5.825,14.478,2.524c0,0,0.612-0.43,1.439-1.269
		c0.42-0.417,0.886-0.94,1.385-1.551c0.494-0.613,1.001-1.323,1.515-2.111c1.015-1.581,1.978-3.504,2.75-5.656
		c0.776-2.151,1.364-4.529,1.715-6.992c0.365-2.458,0.501-4.997,0.431-7.447c-0.044-1.228-0.138-2.434-0.274-3.594
		c-0.132-1.158-0.317-2.275-0.527-3.319c-0.212-1.045-0.451-2.019-0.702-2.896c-0.235-0.872-0.537-1.666-0.754-2.308
		c-0.202-0.637-0.47-1.177-0.601-1.527c-0.153-0.357-0.254-0.555-0.254-0.555C272.191,410.744,271.238,410.397,270.42,410.758z
		 M393.426,327.053c-0.537-0.676-1.52-0.788-2.196-0.251c0,0-0.188,0.149-0.5,0.435c-0.295,0.289-0.784,0.704-1.302,1.248
		c-1.067,1.084-2.457,2.655-3.874,4.58c-0.708,0.963-1.431,2.012-2.128,3.134c-0.702,1.12-1.391,2.31-2.046,3.55
		c-1.293,2.483-2.453,5.167-3.372,7.889c-0.934,2.72-1.62,5.48-2.027,8.105c-0.412,2.625-0.541,5.115-0.455,7.281
		c0.05,1.084,0.134,2.084,0.255,2.978c0.126,0.895,0.268,1.68,0.423,2.333c0.297,1.303,0.612,2.072,0.612,2.072
		c0.579,1.394,1.501,2.721,2.727,3.77c4.165,3.567,10.434,3.082,14.001-1.083c0,0,0.54-0.631,1.23-1.776
		c0.352-0.571,0.732-1.273,1.132-2.083c0.395-0.811,0.787-1.735,1.174-2.749c0.76-2.03,1.417-4.436,1.848-7.058
		c0.435-2.621,0.648-5.456,0.613-8.332c-0.02-2.873-0.281-5.785-0.732-8.548c-0.234-1.383-0.516-2.729-0.832-4.013
		c-0.312-1.283-0.669-2.507-1.04-3.642c-0.742-2.272-1.572-4.199-2.245-5.562c-0.321-0.679-0.656-1.226-0.846-1.593
		c-0.207-0.37-0.339-0.57-0.339-0.57C393.484,327.129,393.455,327.089,393.426,327.053z M223.482,365.379
		c0,0-0.219,0.04-0.595,0.137c-0.357,0.109-0.948,0.226-1.577,0.455c-0.641,0.22-1.455,0.465-2.289,0.811
		c-0.848,0.336-1.766,0.741-2.723,1.21c-0.956,0.471-1.953,1.005-2.952,1.607c-1.002,0.6-2.015,1.26-3.015,1.975
		c-1.984,1.439-3.913,3.096-5.637,4.885c-1.738,1.78-3.264,3.698-4.494,5.625c-1.234,1.925-2.17,3.861-2.804,5.63
		c-0.311,0.888-0.564,1.723-0.749,2.489c-0.18,0.769-0.31,1.456-0.384,2.044c-0.16,1.167-0.128,1.915-0.128,1.915
		c0.053,1.118,0.289,2.291,0.726,3.389c2.121,5.333,8.164,7.937,13.497,5.817c0,0,0.695-0.276,1.694-0.9
		c0.505-0.309,1.08-0.708,1.707-1.187c0.623-0.482,1.281-1.055,1.964-1.702c1.354-1.302,2.738-2.949,3.988-4.863
		c1.254-1.912,2.379-4.089,3.291-6.403c0.926-2.306,1.647-4.744,2.148-7.143c0.243-1.205,0.431-2.399,0.568-3.559
		c0.14-1.157,0.22-2.286,0.258-3.351c0.037-1.066,0.03-2.069-0.011-2.98c-0.027-0.902-0.136-1.745-0.198-2.42
		c-0.048-0.667-0.184-1.254-0.231-1.625c-0.066-0.383-0.118-0.599-0.118-0.599C225.208,365.776,224.362,365.217,223.482,365.379z
		 M100.594,389.05c0.031-0.709-0.519-1.309-1.228-1.339c0,0-0.17-0.007-0.487-0.021c-0.299,0.008-0.779-0.028-1.312,0.015
		c-0.541,0.033-1.22,0.049-1.937,0.137c-0.725,0.078-1.519,0.194-2.357,0.352c-0.837,0.159-1.719,0.359-2.617,0.61
		c-0.898,0.251-1.826,0.537-2.737,0.888c-1.85,0.671-3.679,1.548-5.392,2.555c-3.45,1.989-6.304,4.648-8.021,7.118
		c-0.429,0.618-0.802,1.208-1.107,1.758c-0.303,0.554-0.549,1.056-0.732,1.493c-0.363,0.875-0.506,1.448-0.506,1.448
		c-0.234,0.952-0.309,1.991-0.178,3.022c0.573,4.495,4.681,7.675,9.176,7.102c0,0,0.586-0.075,1.498-0.333
		c0.455-0.13,0.983-0.316,1.568-0.551c0.583-0.239,1.212-0.54,1.876-0.893c2.655-1.416,5.63-3.938,8.01-7.131
		c1.202-1.583,2.287-3.297,3.17-5.055c0.455-0.863,0.848-1.751,1.203-2.614c0.355-0.862,0.656-1.715,0.913-2.527
		c0.255-0.813,0.464-1.588,0.627-2.299c0.172-0.701,0.267-1.374,0.363-1.907c0.105-0.524,0.125-1.005,0.168-1.301
		c0.024-0.317,0.036-0.487,0.036-0.487C100.592,389.079,100.594,389.062,100.594,389.05z M416.179,249.756
		c0,0-0.063,0.213-0.147,0.592c-0.064,0.368-0.228,0.948-0.308,1.612c-0.094,0.672-0.243,1.508-0.313,2.408
		c-0.084,0.909-0.139,1.91-0.153,2.976c-0.012,1.065,0.013,2.197,0.098,3.359c0.081,1.165,0.212,2.367,0.397,3.582
		c0.386,2.421,0.99,4.89,1.805,7.238c0.801,2.355,1.82,4.584,2.982,6.553c1.158,1.972,2.461,3.682,3.751,5.048
		c0.651,0.679,1.281,1.283,1.88,1.794c0.604,0.508,1.158,0.935,1.648,1.268c0.969,0.671,1.65,0.98,1.65,0.98
		c1.021,0.459,2.173,0.779,3.351,0.887c5.716,0.523,10.773-3.687,11.295-9.403c0,0,0.068-0.745-0.036-1.919
		c-0.046-0.59-0.143-1.283-0.286-2.06c-0.148-0.773-0.361-1.62-0.629-2.521c-0.549-1.797-1.391-3.776-2.531-5.757
		c-1.137-1.984-2.57-3.972-4.22-5.833c-1.637-1.869-3.485-3.616-5.398-5.149c-0.964-0.762-1.945-1.47-2.917-2.117
		c-0.969-0.649-1.94-1.231-2.871-1.747c-0.934-0.515-1.831-0.963-2.663-1.339c-0.817-0.385-1.617-0.668-2.248-0.919
		c-0.617-0.259-1.201-0.403-1.553-0.53c-0.371-0.115-0.587-0.165-0.587-0.165C417.315,248.397,416.433,248.898,416.179,249.756z
		 M186.307,326.154c0,0-0.222-0.011-0.61-0.002c-0.373,0.025-0.975,0.004-1.639,0.084c-0.675,0.068-1.523,0.122-2.414,0.268
		c-0.903,0.134-1.888,0.319-2.928,0.558c-1.038,0.241-2.131,0.534-3.24,0.893c-1.112,0.356-2.249,0.769-3.385,1.237
		c-2.26,0.95-4.515,2.124-6.602,3.473c-2.097,1.338-4.02,2.857-5.657,4.454c-1.64,1.593-2.992,3.266-4.012,4.843
		c-0.505,0.794-0.942,1.549-1.296,2.253c-0.35,0.707-0.633,1.348-0.84,1.902c-0.422,1.1-0.56,1.835-0.56,1.835
		c-0.203,1.101-0.24,2.296-0.065,3.466c0.851,5.676,6.142,9.588,11.818,8.737c0,0,0.74-0.111,1.855-0.491
		c0.562-0.185,1.212-0.444,1.933-0.768c0.716-0.328,1.487-0.735,2.3-1.21c1.615-0.96,3.337-2.248,4.991-3.827
		c1.657-1.576,3.247-3.44,4.663-5.486c1.427-2.034,2.684-4.244,3.718-6.466c0.511-1.118,0.966-2.238,1.363-3.336
		c0.4-1.095,0.734-2.176,1.014-3.204c0.278-1.029,0.5-2.008,0.668-2.904c0.18-0.885,0.265-1.73,0.359-2.402
		c0.105-0.66,0.106-1.263,0.145-1.634c0.023-0.388,0.021-0.61,0.021-0.61C187.897,326.934,187.2,326.197,186.307,326.154z
		 M155.256,441.29c0.192-0.683-0.205-1.393-0.888-1.585c0,0-0.163-0.046-0.47-0.132c-0.292-0.061-0.752-0.206-1.28-0.287
		c-0.534-0.092-1.199-0.233-1.916-0.311c-0.724-0.09-1.523-0.159-2.375-0.198c-0.851-0.037-1.756-0.045-2.687-0.007
		c-0.932,0.038-1.9,0.103-2.867,0.236c-1.954,0.228-3.936,0.662-5.834,1.25c-3.814,1.144-7.202,3.077-9.44,5.087
		c-0.559,0.503-1.057,0.991-1.481,1.457c-0.422,0.47-0.777,0.902-1.055,1.285c-0.555,0.768-0.825,1.293-0.825,1.293
		c-0.446,0.873-0.758,1.867-0.867,2.9c-0.474,4.507,2.795,8.544,7.302,9.018c0,0,0.587,0.062,1.534,0.02
		c0.473-0.022,1.029-0.082,1.653-0.177c0.622-0.099,1.303-0.247,2.031-0.439c2.909-0.769,6.383-2.541,9.432-5.103
		c1.533-1.265,2.983-2.684,4.245-4.192c0.641-0.736,1.227-1.51,1.77-2.268c0.543-0.758,1.032-1.519,1.468-2.25
		c0.435-0.733,0.816-1.439,1.137-2.094c0.328-0.643,0.575-1.276,0.791-1.773c0.222-0.486,0.353-0.95,0.462-1.228
		c0.096-0.303,0.147-0.465,0.147-0.465C155.248,441.318,155.253,441.301,155.256,441.29z"/>
</g>
<g id="Layer_4">
	<path fill="#16992B" d="M395.111,100.598c3.439-55.18-39.063-88.094-54.406-98.118c-2.545-1.663-5.933-0.023-6.203,3.005
		c-0.71,7.954-1.198,23.232,2.017,44.583c0.897,5.958-2.098,7.578-6.625,3.601c-18.845-16.557-64.797-51.102-101.087-31.213
		c-2.157,1.182-2.824,3.955-1.366,5.937c5.726,7.784,23.483,27.71,71.251,56.975c8.79,5.385,7.607,8.735-2.615,7.405
		c-27.365-3.561-75.173-6.042-107.013,13.163c-2.887,1.742-2.502,6.043,0.658,7.219c25.725,9.578,112.862,40.864,147.243,38.483
		c17.01-1.178-3.292,55.755-11.173,76.34c-1.182,3.088,1.652,6.21,4.833,5.309c20.126-5.702,72.766-23.973,73.086-59.174
		c0.032-3.576,4.242-5.432,6.81-2.944l88.711,85.931c0,0,0.001,0.002,0.001,0.001c0.014-0.062,16.823-72.469-54.355-107.871
		c-17.239-8.574,40.096-8.394,58.965-8.115c2.996,0.044,4.994-3.1,3.666-5.785c-15.824-31.987-89.198-31.216-108.248-30.458
		C396.883,104.968,394.963,102.974,395.111,100.598z"/>
</g>
</svg>
