<?xml version="1.0" encoding="iso-8859-1"?>
<!-- Generator: Adobe Illustrator 18.1.1, SVG Export Plug-In . SVG Version: 6.00 Build 0)  -->
<!DOCTYPE svg PUBLIC "-//W3C//DTD SVG 1.1//EN" "http://www.w3.org/Graphics/SVG/1.1/DTD/svg11.dtd">
<svg version="1.1" xmlns="http://www.w3.org/2000/svg" xmlns:xlink="http://www.w3.org/1999/xlink" x="0px" y="0px"
	 viewBox="0 0 512 512" enable-background="new 0 0 512 512" xml:space="preserve">
<g id="Layer_10">
	<path fill="#959DA3" d="M173.573,77.689l0.255,1.583l0,0l0.001,0.004c0.1,0.621-0.324,1.206-0.944,1.306
		c-0.621,0.1-1.206-0.323-1.306-0.944l-0.001-0.004l-0.002,0l-0.255-1.583l0.011-0.002c-0.041-0.583,0.363-1.114,0.951-1.209
		c0.587-0.094,1.139,0.283,1.279,0.85L173.573,77.689z M227.981,68.935c-0.14-0.567-0.692-0.944-1.279-0.85
		c-0.588,0.095-0.991,0.626-0.951,1.209l-0.011,0.002l0.255,1.583l0.002,0l0.001,0.004c0.1,0.621,0.685,1.044,1.306,0.944
		c0.62-0.1,1.044-0.685,0.944-1.306l-0.001-0.004l0,0l-0.255-1.583L227.981,68.935z"/>
</g>
<g id="Layer_1">
</g>
</svg>
