<?xml version="1.0" encoding="iso-8859-1"?>
<!-- Generator: Adobe Illustrator 18.1.1, SVG Export Plug-In . SVG Version: 6.00 Build 0)  -->
<!DOCTYPE svg PUBLIC "-//W3C//DTD SVG 1.1//EN" "http://www.w3.org/Graphics/SVG/1.1/DTD/svg11.dtd">
<svg version="1.1" xmlns="http://www.w3.org/2000/svg" xmlns:xlink="http://www.w3.org/1999/xlink" x="0px" y="0px"
	 viewBox="0 0 512 512" enable-background="new 0 0 512 512" xml:space="preserve">
<g id="Layer_3">
	<path fill="#FFECC3" d="M480.846,97.01c-0.044-3.528,0.015-6.924-0.279-10.252c-0.418-6.63-0.893-12.791-1.424-18.452
		c-0.339-2.956-0.737-5.832-1.119-8.538c-0.369-2.712-0.769-5.285-1.147-7.715c-0.367-2.429-0.772-4.717-1.13-6.858
		c-0.433-1.947-0.942-3.616-1.36-5.253c-0.435-1.616-0.837-3.111-1.206-4.481c-0.396-1.371-0.756-2.616-1.078-3.731
		c-1.29-4.46-2.104-6.842-2.104-6.842c-3.425-9.88-11.014-18.428-21.489-22.606c-19.141-7.635-40.848,1.693-48.483,20.834
		c0,0-0.932,2.338-2.447,6.727c-0.378,1.097-0.8,2.323-1.265,3.671c-0.437,1.349-0.915,2.822-1.43,4.414
		c-0.513,1.57-1.065,3.352-1.652,5.079c-0.637,1.527-1.339,3.138-2.019,4.828c-1.393,3.386-2.855,7.054-4.367,11.035
		c-1.786,4.219-3.619,8.742-5.487,13.528c-0.892,2.4-2.008,4.83-3.108,7.323c-1.116,2.491-2.171,5.054-3.292,7.661
		c-0.584,1.299-1.052,2.636-1.691,3.95c-0.624,1.313-1.256,2.643-1.896,3.987c-1.27,2.683-2.499,5.427-3.776,8.207
		c-0.32,0.695-0.634,1.394-0.94,2.098c-0.35,0.691-0.703,1.386-1.057,2.085c-0.705,1.391-1.418,2.796-2.137,4.214
		c-1.388,2.824-2.802,5.701-4.241,8.627c-1.583,2.863-3.124,5.779-4.704,8.718c-0.797,1.466-1.543,2.96-2.317,4.452
		c-0.779,1.49-1.702,2.937-2.549,4.419c-1.731,2.95-3.39,5.96-5.096,8.981c-1.782,2.989-3.667,5.965-5.502,8.987
		c-0.927,1.507-1.849,3.022-2.741,4.558c-0.915,1.526-1.97,2.991-2.949,4.498c-2.015,2.985-3.94,6.04-5.895,9.101
		c-8.048,11.602-16.551,23.262-25.715,34.646c-27.634-50.771-94.608-115.841-185.502-61.487
		C11.329,210.168,54.969,280.207,68.102,258.32s91.926-76.199,136.413-72.33c32.681,2.843,67.274-6.703,74.037,54.82
		c1.71,15.554,8.407,18.588,15.614,16.864c34.529,0.66,120.577,26.35,123.007,123.783c2.582,103.516-53.838,106.434-47.029,123.944
		c6.809,17.51,120.854-61.899,96.303-187.256c-5.251-26.812-15.277-44.761-27.414-56.606c3.765-6.94,7.288-13.917,10.567-20.889
		c2.096-4.81,4.162-9.574,6.114-14.327c0.967-2.38,2.001-4.71,2.887-7.094c0.881-2.387,1.724-4.774,2.552-7.149
		c0.827-2.371,1.65-4.73,2.468-7.075c0.792-2.352,1.678-4.645,2.327-7.018c1.348-4.725,2.706-9.367,3.951-13.966
		c0.605-2.306,1.279-4.565,1.804-6.856c0.508-2.298,1.035-4.567,1.502-6.834c0.947-4.53,1.894-8.969,2.758-13.338
		c0.702-4.419,1.343-8.762,1.945-13.014c0.287-2.126,0.572-4.231,0.854-6.317c0.138-1.04,0.275-2.075,0.411-3.105
		c0.087-1.04,0.174-2.075,0.261-3.104c0.316-4.12,0.646-8.133,0.9-12.054c0.123-1.957,0.244-3.892,0.364-5.803
		c0.13-1.905,0.101-3.814,0.126-5.684C480.837,104.166,480.887,100.538,480.846,97.01z"/>
</g>
<g id="Layer_1">
</g>
</svg>
