<?xml version="1.0" encoding="iso-8859-1"?>
<!-- Generator: Adobe Illustrator 18.1.1, SVG Export Plug-In . SVG Version: 6.00 Build 0)  -->
<!DOCTYPE svg PUBLIC "-//W3C//DTD SVG 1.1//EN" "http://www.w3.org/Graphics/SVG/1.1/DTD/svg11.dtd">
<svg version="1.1" xmlns="http://www.w3.org/2000/svg" xmlns:xlink="http://www.w3.org/1999/xlink" x="0px" y="0px"
	 viewBox="0 0 512 512" enable-background="new 0 0 512 512" xml:space="preserve">
<g id="Layer_7">
	<path fill="#FFD3B6" d="M258.102,71.075c-0.885-5.498-6.061-9.241-11.557-8.357c-0.079,0.013-0.155,0.035-0.234,0.05l-0.06-1.399
		c-4.034-25.075-27.633-42.136-52.717-38.101c-25.075,4.034-42.131,27.637-38.097,52.712l0.38,1.34
		c-0.029,0.004-0.057,0.005-0.086,0.009c-5.495,0.884-9.237,6.062-8.352,11.56c0.885,5.498,6.061,9.241,11.557,8.357
		c0.823-0.132,1.601-0.371,2.336-0.682l0.831,2.931c2.917,18.131,16.738,31.784,33.688,35.367l1.412,8.774
		c0.679,4.217,8.066,6.536,16.501,5.179s14.722-5.876,14.044-10.094c-0.075-0.466-0.245-0.905-0.476-1.323l-1.172-7.284
		c15.16-8.661,24.142-26.076,21.205-44.329l-0.133-3.08c0.841,0.081,1.704,0.07,2.578-0.071
		C255.245,81.751,258.986,76.573,258.102,71.075z"/>
</g>
<g id="Layer_1">
</g>
</svg>
