<?xml version="1.0" encoding="iso-8859-1"?>
<!-- Generator: Adobe Illustrator 19.1.0, SVG Export Plug-In . SVG Version: 6.00 Build 0)  -->
<!DOCTYPE svg PUBLIC "-//W3C//DTD SVG 1.1//EN" "http://www.w3.org/Graphics/SVG/1.1/DTD/svg11.dtd">
<svg version="1.1" xmlns="http://www.w3.org/2000/svg" xmlns:xlink="http://www.w3.org/1999/xlink" x="0px" y="0px"
	 viewBox="0 0 512 512" enable-background="new 0 0 512 512" xml:space="preserve">
<g id="Layer_3">
	<path fill="#2B3B47" d="M234.551,336.73h-18.074c-2.767,0-5.011-2.243-5.011-5.011v-73.954c0-2.767,2.243-5.011,5.011-5.011h18.074
		c2.767,0,5.011,2.243,5.011,5.011v73.954C239.562,334.487,237.318,336.73,234.551,336.73z M286.149,331.72v-73.954
		c0-2.767-2.243-5.011-5.011-5.011h-18.074c-2.767,0-5.011,2.243-5.011,5.011v73.954c0,2.767,2.243,5.011,5.011,5.011h18.074
		C283.906,336.73,286.149,334.487,286.149,331.72z M332.737,331.72v-73.954c0-2.767-2.243-5.011-5.011-5.011h-18.074
		c-2.767,0-5.011,2.243-5.011,5.011v73.954c0,2.767,2.243,5.011,5.011,5.011h18.074C330.493,336.73,332.737,334.487,332.737,331.72z
		 M239.562,479.925v-73.954c0-2.767-2.243-5.011-5.011-5.011h-18.074c-2.767,0-5.011,2.243-5.011,5.011v73.954
		c0,2.767,2.243,5.011,5.011,5.011h18.074C237.318,484.935,239.562,482.692,239.562,479.925z M286.149,479.925v-73.954
		c0-2.767-2.243-5.011-5.011-5.011h-18.074c-2.767,0-5.011,2.243-5.011,5.011v73.954c0,2.767,2.243,5.011,5.011,5.011h18.074
		C283.906,484.935,286.149,482.692,286.149,479.925z M332.737,479.925v-73.954c0-2.767-2.243-5.011-5.011-5.011h-18.074
		c-2.767,0-5.011,2.243-5.011,5.011v73.954c0,2.767,2.243,5.011,5.011,5.011h18.074
		C330.493,484.935,332.737,482.692,332.737,479.925z M364.305,224.674v-12.445c0-2.842-2.304-5.145-5.145-5.145H185.043
		c-2.842,0-5.145,2.304-5.145,5.145v12.445c0,2.842,2.304,5.145,5.145,5.145H359.16
		C362.002,229.819,364.305,227.516,364.305,224.674z M364.305,373.84v-12.445c0-2.842-2.304-5.145-5.145-5.145H185.043
		c-2.842,0-5.145,2.304-5.145,5.145v12.445c0,2.842,2.304,5.145,5.145,5.145H359.16C362.002,378.986,364.305,376.682,364.305,373.84
		z"/>
</g>
<g id="Layer_1">
</g>
</svg>
