<?xml version="1.0" encoding="iso-8859-1"?>
<!-- Generator: Adobe Illustrator 18.1.1, SVG Export Plug-In . SVG Version: 6.00 Build 0)  -->
<!DOCTYPE svg PUBLIC "-//W3C//DTD SVG 1.1//EN" "http://www.w3.org/Graphics/SVG/1.1/DTD/svg11.dtd">
<svg version="1.1" xmlns="http://www.w3.org/2000/svg" xmlns:xlink="http://www.w3.org/1999/xlink" x="0px" y="0px"
	 viewBox="0 0 512 512" enable-background="new 0 0 512 512" xml:space="preserve">
<g id="Layer_2">
	<path fill="#CED6D5" d="M401.196,25.4c-0.018-5.425-2.143-10.903-6.353-14.97c-8.268-7.986-21.444-7.757-29.429,0.511L351.447,25.4
		c0,0-0.26,0.269-0.763,0.79c-0.523,0.521-1.202,1.294-2.114,2.303c-1.751,2.017-4.181,4.976-6.917,8.741
		c-0.682,0.941-1.343,1.933-2.068,2.973c-0.359,0.52-0.726,1.052-1.102,1.596c-0.347,0.544-0.701,1.1-1.063,1.667
		c-0.718,1.135-1.466,2.316-2.241,3.541c-0.711,1.225-1.447,2.494-2.208,3.805c-3.041,5.245-5.949,11.162-8.665,17.617
		c-2.716,6.455-5.115,13.448-7.146,20.845c-2.023,7.397-3.551,15.196-4.632,23.265c-1.184,8.069-2.04,16.407-2.57,24.879
		c-0.514,8.472-0.632,17.079-0.153,25.686c0.453,8.607,1.429,17.214,2.703,25.686c1.239,8.472,2.885,16.81,4.377,24.879
		c0.797,4.034,1.582,8.002,2.349,11.885c0.772,3.883,1.507,7.682,2.344,11.381c1.706,7.396,3.741,14.39,6.137,20.845
		c2.273,6.455,4.914,12.372,7.501,17.617c2.564,5.245,5.24,9.817,7.622,13.583c2.374,3.766,4.51,6.724,6.082,8.741
		c0.773,1.009,1.409,1.782,1.852,2.303c0.447,0.521,0.678,0.79,0.678,0.79l0,0v183.56c0,13.737,11.137,24.874,24.874,24.874
		s24.874-11.137,24.874-24.874V300.829c0-0.003,0-0.006,0-0.008V25.4z"/>
</g>
<g id="Layer_3">
	<path fill="#CED6D5" d="M251.499,22.271c0-9.369-7.622-16.991-16.991-16.991h-1.377c-9.369,0-16.99,7.622-16.99,16.991v121.688
		h-1.078l-0.023,0.991c-0.123,5.203-4.293,9.279-9.494,9.279c-5.114,0-9.372-4.163-9.493-9.279l-0.023-0.991h-0.912V22.271
		c0-9.369-7.622-16.991-16.99-16.991h-1.377c-9.369,0-16.991,7.622-16.991,16.991v121.688h-1.033l-0.006,1.009
		c-0.031,5.21-4.294,9.449-9.503,9.449s-9.472-4.239-9.503-9.449l-0.006-1.009h-0.972V22.271c0-9.369-7.622-16.991-16.99-16.991
		h-1.377c-9.369,0-16.99,7.622-16.99,16.991V188.5c0,1.028,0.107,2.029,0.283,3.007c1.804,33.68,21.681,61.988,48.903,72.91V484.38
		c0,13.737,11.137,24.874,24.875,24.874s24.875-11.137,24.875-24.874V264.416c27.222-10.922,47.1-39.23,48.903-72.91
		c0.176-0.978,0.283-1.979,0.283-3.007V22.271z"/>
</g>
</svg>
