<svg xmlns="http://www.w3.org/2000/svg" viewBox="0 0 512 512" enable-background="new 0 0 512 512"><path fill="#DADBDC" d="M29.888 131.912L252.423 20.926c2.093-1.044 4.554-1.045 6.647-.003L482.05 131.91c7.047 3.507 4.55 14.124-3.32 14.124H33.213c-7.87 0-10.368-10.61-3.326-14.122zM482.8 154.27H29.2c-3.976 0-7.2 3.223-7.2 7.2v58.665c0 3.976 3.224 7.2 7.2 7.2h15.3v219.42c0 7.952 6.447 14.4 14.4 14.4h394.2c7.953 0 14.4-6.448 14.4-14.4v-219.42h15.3c3.976 0 7.2-3.224 7.2-7.2V161.47c0-3.978-3.224-7.2-7.2-7.2z"/></svg>