<svg xmlns="http://www.w3.org/2000/svg" viewBox="0 0 512 512" enable-background="new 0 0 512 512"><path fill="#8E7B70" d="M269.357 288.65h-54.952c-3.976 0-7.2-3.223-7.2-7.2v-3.835c0-3.976 3.224-7.2 7.2-7.2h54.952c3.976 0 7.2 3.224 7.2 7.2v3.836c0 3.977-3.223 7.2-7.2 7.2zm166.432-7.2v-3.835c0-3.976-3.225-7.2-7.2-7.2h-54.953c-3.976 0-7.2 3.224-7.2 7.2v3.836c0 3.977 3.224 7.2 7.2 7.2h54.952c3.975 0 7.2-3.223 7.2-7.2zm-57.57 105.707c8.352 0 14.322-7.854 12.443-15.99-7.25-31.39-35.375-54.79-68.966-54.79s-61.717 23.4-68.966 54.79c-1.878 8.137 4.092 15.99 12.444 15.99H378.22z"/></svg>