<?xml version="1.0" encoding="iso-8859-1"?>
<!-- Generator: Adobe Illustrator 19.2.1, SVG Export Plug-In . SVG Version: 6.00 Build 0)  -->
<!DOCTYPE svg PUBLIC "-//W3C//DTD SVG 1.1//EN" "http://www.w3.org/Graphics/SVG/1.1/DTD/svg11.dtd">
<svg version="1.1" xmlns="http://www.w3.org/2000/svg" xmlns:xlink="http://www.w3.org/1999/xlink" x="0px" y="0px"
	 viewBox="0 0 512 512" enable-background="new 0 0 512 512" xml:space="preserve">
<g id="Layer_4">
	<path fill="#FFFFFF" d="M54.785,346.869l-7.352,7.352c-3.241,3.241-8.495,3.241-11.735,0l-0.489-0.489
		c-3.241-3.241-3.241-8.495,0-11.735l7.352-7.352c3.241-3.241,8.495-3.241,11.735,0l0.489,0.489
		C58.026,338.374,58.026,343.628,54.785,346.869z M88.93,300.988l-0.489-0.489c-3.241-3.241-8.495-3.241-11.735,0l-7.352,7.352
		c-3.241,3.241-3.241,8.495,0,11.735l0.489,0.489c3.241,3.241,8.495,3.241,11.735,0l7.352-7.352
		C92.171,309.483,92.171,304.229,88.93,300.988z M123.076,266.843l-0.489-0.489c-3.241-3.241-8.495-3.241-11.735,0l-7.352,7.352
		c-3.241,3.241-3.241,8.495,0,11.735l0.489,0.489c3.241,3.241,8.495,3.241,11.735,0l7.352-7.352
		C126.316,275.338,126.316,270.084,123.076,266.843z M157.221,232.698l-0.489-0.489c-3.241-3.241-8.495-3.241-11.735,0l-7.352,7.352
		c-3.241,3.241-3.241,8.495,0,11.735l0.489,0.489c3.241,3.241,8.495,3.241,11.735,0l7.352-7.352
		C160.461,241.192,160.461,235.938,157.221,232.698z M187.747,202.172l-0.489-0.489c-3.241-3.241-8.495-3.241-11.735,0l-7.352,7.352
		c-3.241,3.241-3.241,8.495,0,11.735l0.489,0.489c3.241,3.241,8.495,3.241,11.735,0l7.352-7.352
		C190.987,210.666,190.987,205.412,187.747,202.172z M221.892,168.027l-0.489-0.489c-3.241-3.241-8.495-3.241-11.735,0l-7.352,7.352
		c-3.241,3.241-3.241,8.495,0,11.735l0.489,0.489c3.241,3.241,8.495,3.241,11.735,0l7.352-7.352
		C225.133,176.521,225.133,171.267,221.892,168.027z M256.037,133.881l-0.489-0.489c-3.241-3.241-8.495-3.241-11.735,0l-7.352,7.352
		c-3.241,3.241-3.241,8.495,0,11.735l0.489,0.489c3.241,3.241,8.495,3.241,11.735,0l7.352-7.352
		C259.278,142.376,259.278,137.122,256.037,133.881z M290.182,99.736l-0.489-0.489c-3.241-3.241-8.495-3.241-11.735,0l-7.352,7.352
		c-3.241,3.241-3.241,8.495,0,11.735l0.489,0.489c3.241,3.241,8.495,3.241,11.735,0l7.352-7.352
		C293.423,108.231,293.423,102.977,290.182,99.736z M324.328,65.591l-0.489-0.489c-3.241-3.241-8.495-3.241-11.735,0l-7.352,7.352
		c-3.241,3.241-3.241,8.495,0,11.735l0.489,0.489c3.241,3.241,8.495,3.241,11.735,0l7.352-7.352
		C327.568,74.086,327.568,68.832,324.328,65.591z M358.473,31.446l-0.489-0.489c-3.241-3.241-8.495-3.241-11.735,0l-7.352,7.352
		c-3.241,3.241-3.241,8.495,0,11.735l0.489,0.489c3.241,3.241,8.495,3.241,11.735,0l7.352-7.352
		C361.713,39.941,361.713,34.686,358.473,31.446z M171.465,451.814l-0.489-0.489c-3.241-3.241-8.495-3.241-11.735,0l-7.352,7.352
		c-3.241,3.241-3.241,8.495,0,11.735l0.489,0.489c3.241,3.241,8.495,3.241,11.735,0l7.352-7.352
		C174.706,460.308,174.706,455.054,171.465,451.814z M205.611,417.668l-0.489-0.489c-3.241-3.241-8.495-3.241-11.735,0l-7.352,7.352
		c-3.241,3.241-3.241,8.495,0,11.735l0.489,0.489c3.241,3.241,8.495,3.241,11.735,0l7.352-7.352
		C208.851,426.163,208.851,420.909,205.611,417.668z M239.756,383.523l-0.489-0.489c-3.241-3.241-8.495-3.241-11.735,0l-7.352,7.352
		c-3.241,3.241-3.241,8.495,0,11.735l0.489,0.489c3.241,3.241,8.495,3.241,11.735,0l7.352-7.352
		C242.996,392.018,242.996,386.764,239.756,383.523z M273.901,349.378l-0.489-0.489c-3.241-3.241-8.495-3.241-11.735,0l-7.352,7.352
		c-3.241,3.241-3.241,8.495,0,11.735l0.489,0.489c3.241,3.241,8.495,3.241,11.735,0l7.352-7.352
		C277.142,357.873,277.142,352.619,273.901,349.378z M304.427,318.852l-0.489-0.489c-3.241-3.241-8.495-3.241-11.735,0l-7.352,7.352
		c-3.241,3.241-3.241,8.495,0,11.735l0.489,0.489c3.241,3.241,8.495,3.241,11.735,0l7.352-7.352
		C307.668,327.347,307.668,322.093,304.427,318.852z M338.572,284.707l-0.489-0.489c-3.241-3.241-8.495-3.241-11.735,0l-7.352,7.352
		c-3.241,3.241-3.241,8.495,0,11.735l0.489,0.489c3.241,3.241,8.495,3.241,11.735,0l7.352-7.352
		C341.813,293.201,341.813,287.947,338.572,284.707z M372.717,250.562l-0.489-0.489c-3.241-3.241-8.495-3.241-11.735,0l-7.352,7.352
		c-3.241,3.241-3.241,8.495,0,11.735l0.489,0.489c3.241,3.241,8.495,3.241,11.735,0l7.352-7.352
		C375.958,259.056,375.958,253.802,372.717,250.562z M406.863,216.417l-0.489-0.489c-3.241-3.241-8.495-3.241-11.735,0l-7.352,7.352
		c-3.241,3.241-3.241,8.495,0,11.735l0.489,0.489c3.241,3.241,8.495,3.241,11.735,0l7.352-7.352
		C410.103,224.911,410.103,219.657,406.863,216.417z M441.008,182.271l-0.489-0.489c-3.241-3.241-8.495-3.241-11.735,0l-7.352,7.352
		c-3.241,3.241-3.241,8.495,0,11.735l0.489,0.489c3.241,3.241,8.495,3.241,11.735,0l7.352-7.352
		C444.248,190.766,444.248,185.512,441.008,182.271z M475.153,148.126l-0.489-0.489c-3.241-3.241-8.495-3.241-11.735,0l-7.352,7.352
		c-3.241,3.241-3.241,8.495,0,11.735l0.489,0.489c3.241,3.241,8.495,3.241,11.735,0l7.352-7.352
		C478.394,156.621,478.394,151.367,475.153,148.126z"/>
</g>
<g id="Layer_1">
</g>
</svg>
