<?xml version="1.0" encoding="iso-8859-1"?>
<!-- Generator: Adobe Illustrator 18.1.1, SVG Export Plug-In . SVG Version: 6.00 Build 0)  -->
<!DOCTYPE svg PUBLIC "-//W3C//DTD SVG 1.1//EN" "http://www.w3.org/Graphics/SVG/1.1/DTD/svg11.dtd">
<svg version="1.1" xmlns="http://www.w3.org/2000/svg" xmlns:xlink="http://www.w3.org/1999/xlink" x="0px" y="0px"
	 viewBox="0 0 512 512" enable-background="new 0 0 512 512" xml:space="preserve">
<g id="Layer_4">
	<path fill="#16992B" d="M395.111,100.598c3.439-55.18-39.063-88.094-54.406-98.118c-2.545-1.663-5.933-0.023-6.203,3.005
		c-0.71,7.954-1.198,23.232,2.017,44.583c0.897,5.958-2.098,7.578-6.625,3.601c-18.845-16.557-64.797-51.102-101.087-31.213
		c-2.157,1.182-2.824,3.955-1.366,5.937c5.726,7.784,23.483,27.71,71.251,56.975c8.79,5.385,7.607,8.735-2.615,7.405
		c-27.365-3.561-75.173-6.042-107.013,13.163c-2.887,1.742-2.502,6.043,0.658,7.219c25.725,9.578,112.862,40.864,147.243,38.483
		c17.01-1.178-3.292,55.755-11.173,76.34c-1.182,3.088,1.652,6.21,4.833,5.309c20.126-5.702,72.766-23.973,73.086-59.174
		c0.032-3.576,4.242-5.432,6.81-2.944l88.711,85.931c0,0,0.001,0.002,0.001,0.001c0.014-0.062,16.823-72.469-54.355-107.871
		c-17.239-8.574,40.096-8.394,58.965-8.115c2.996,0.044,4.994-3.1,3.666-5.785c-15.824-31.987-89.198-31.216-108.248-30.458
		C396.883,104.968,394.963,102.974,395.111,100.598z"/>
</g>
<g id="Layer_1">
</g>
</svg>
