<?xml version="1.0" encoding="iso-8859-1"?>
<!-- Generator: Adobe Illustrator 19.1.0, SVG Export Plug-In . SVG Version: 6.00 Build 0)  -->
<!DOCTYPE svg PUBLIC "-//W3C//DTD SVG 1.1//EN" "http://www.w3.org/Graphics/SVG/1.1/DTD/svg11.dtd">
<svg version="1.1" xmlns="http://www.w3.org/2000/svg" xmlns:xlink="http://www.w3.org/1999/xlink" x="0px" y="0px"
	 viewBox="0 0 512 512" enable-background="new 0 0 512 512" xml:space="preserve">
<g id="Layer_2">
	<path fill="#1B871B" d="M256.885,413.973c-28.978,0-52.469-23.491-52.469-52.469V73.804c0-28.978,23.491-66.692,52.469-66.692
		s52.469,37.713,52.469,66.692v287.699C309.354,390.482,285.863,413.973,256.885,413.973z"/>
</g>
<g id="Layer_3">
	<path fill="#175F17" d="M309.145,213.558H204.541c-6.632,0-12.01-5.382-12.01-12.014c0-6.632,5.378-12.014,12.01-12.014h104.604
		c6.632,0,12.01,5.382,12.01,12.014C321.155,208.176,315.777,213.558,309.145,213.558z M321.158,288.301
		c0-6.632-5.378-12.014-12.01-12.014H204.539c-6.632,0-12.01,5.382-12.01,12.014s5.379,12.014,12.01,12.014h104.608
		C315.779,300.315,321.158,294.933,321.158,288.301z"/>
</g>
<g id="Layer_4">
	<path fill="#F9E7C0" d="M257,17.988c-21.685,0-39,31.801-39,53.486v39.264c0,21.685,17.315,53.486,39,53.486
		c21.685,0,39-31.801,39-53.486V71.474C296,49.789,278.685,17.988,257,17.988z"/>
</g>
<g id="Layer_5">
	<path fill="#5BB25B" d="M487.925,185.485c-1.769-5.026-7.271-7.657-12.298-5.888l-5.685,2.003l-2.846,1.008l-2.948,1.097
		l-5.9,2.212l-5.787,2.288l-2.883,1.147l-2.872,1.204l-5.736,2.421c-3.79,1.693-7.606,3.328-11.358,5.122
		c-7.536,3.492-14.97,7.251-22.291,11.219c-7.333,3.949-14.534,8.164-21.609,12.601c-7.073,4.43-14.02,9.083-20.776,14.001
		c-6.77,4.912-13.381,10.047-19.807,15.409c-12.842,10.743-24.93,22.419-36.122,34.886c-11.194,12.467-21.468,25.747-30.773,39.634
		c-1.429,2.131-2.827,4.282-4.21,6.441c-1.537-4.459-3.103-8.909-4.699-13.347c9.108-26.861,19.348-53.293,30.991-79.017
		c8.177-18.033,17.044-35.711,26.76-52.831c4.862-8.563,9.939-16.981,15.244-25.227c5.312-8.24,10.858-16.302,16.665-24.143
		c5.818-7.834,11.878-15.453,18.235-22.767c6.351-7.334,13-14.35,19.941-21.012c6.947-6.655,14.192-12.949,21.753-18.768
		c7.544-5.838,15.434-11.149,23.579-15.954c3.537-2.091,4.792-6.642,2.79-10.255c-2.047-3.683-6.68-5.007-10.363-2.966l-0.127,0.07
		c-8.867,4.925-17.463,10.389-25.665,16.398c-8.22,5.983-16.087,12.467-23.623,19.319c-7.524,6.858-14.73,14.078-21.601,21.601
		c-6.889,7.517-13.443,15.333-19.738,23.351c-6.275,8.037-12.278,16.283-18.02,24.707c-5.743,8.424-11.238,17.018-16.499,25.747
		c-10.527,17.462-20.149,35.463-29.049,53.8c-8.65,17.853-16.619,36.022-24.005,54.426c-7.386-18.404-15.355-36.573-24.005-54.426
		c-8.899-18.337-18.521-36.338-29.049-53.8c-5.261-8.728-10.756-17.323-16.499-25.747c-5.743-8.424-11.745-16.67-18.02-24.707
		c-6.295-8.018-12.849-15.834-19.738-23.351c-6.871-7.524-14.077-14.743-21.601-21.601c-7.536-6.852-15.403-13.336-23.623-19.319
		c-8.202-6.009-16.798-11.472-25.665-16.398l-0.127-0.07c-3.683-2.041-8.316-0.716-10.363,2.966
		c-2.002,3.613-0.747,8.164,2.79,10.255c8.144,4.804,16.035,10.116,23.579,15.954c7.561,5.818,14.806,12.113,21.753,18.768
		c6.94,6.661,13.59,13.678,19.941,21.012c6.357,7.314,12.417,14.933,18.235,22.767c5.806,7.841,11.352,15.903,16.665,24.143
		c5.305,8.246,10.382,16.663,15.244,25.227c9.716,17.12,18.583,34.798,26.76,52.831c11.644,25.724,21.884,52.155,30.991,79.017
		c-1.596,4.439-3.162,8.888-4.699,13.347c-1.383-2.159-2.781-4.31-4.21-6.441c-9.305-13.887-19.578-27.166-30.773-39.634
		c-11.193-12.467-23.28-24.143-36.122-34.886c-6.427-5.362-13.037-10.496-19.807-15.409c-6.756-4.919-13.703-9.571-20.776-14.001
		c-7.075-4.437-14.275-8.652-21.609-12.601c-7.321-3.968-14.755-7.726-22.291-11.219c-3.753-1.794-7.569-3.429-11.358-5.122
		l-5.736-2.421l-2.872-1.204l-2.883-1.147l-5.787-2.288l-5.9-2.212l-2.948-1.097l-2.846-1.008l-5.685-2.003
		c-5.026-1.768-10.529,0.862-12.298,5.888c-1.749,4.944,0.786,10.363,5.667,12.214l0.215,0.082l5.642,2.136l2.821,1.065l2.756,1.103
		l5.497,2.206l5.489,2.32l2.737,1.166l2.719,1.217l5.427,2.434c3.581,1.699,7.186,3.347,10.718,5.141
		c7.112,3.492,14.09,7.225,20.948,11.156c6.871,3.898,13.59,8.049,20.169,12.391c6.578,4.336,13.019,8.867,19.261,13.647
		c6.256,4.76,12.347,9.723,18.255,14.883c11.789,10.344,22.811,21.506,32.978,33.371c10.161,11.872,19.441,24.46,27.82,37.625
		c5.106,8.017,9.87,16.249,14.326,24.653c-3.981,12.818-7.757,25.703-11.278,38.668c-2.676,9.85-5.216,19.738-7.614,29.682
		c-1.198,4.969-2.357,9.958-3.472,14.965l-1.636,7.536l-0.792,3.803l-0.774,3.924c-0.115,0.716-0.184,1.46-0.184,2.207
		c0,7.726,6.263,13.921,13.989,13.921h0.045h13.469l0.704,0.055c5.616-0.133,10.769-3.75,12.556-9.404l7.276-22.985
		c1.811-5.663,3.685-11.258,5.601-16.834c1.916,5.576,3.79,11.184,5.601,16.847l7.276,23.004c1.787,5.654,6.94,9.238,12.556,9.371
		l0.704-0.054h13.469h0.045c7.726,0,13.989-6.195,13.989-13.921c0-0.748-0.07-1.525-0.184-2.241l-0.774-3.907l-0.792-3.795
		l-1.636-7.532c-1.116-5.008-2.275-9.994-3.472-14.963c-2.397-9.945-4.938-19.831-7.614-29.681
		c-3.522-12.964-7.297-25.849-11.278-38.667c4.455-8.404,9.22-16.635,14.325-24.652c8.38-13.165,17.66-25.753,27.82-37.625
		c10.167-11.865,21.189-23.027,32.978-33.371c5.908-5.16,11.999-10.123,18.255-14.883c6.242-4.779,12.683-9.311,19.261-13.647
		c6.58-4.342,13.299-8.493,20.17-12.391c6.858-3.93,13.836-7.663,20.948-11.156c3.531-1.794,7.137-3.442,10.718-5.141l5.427-2.434
		l2.719-1.217l2.737-1.166l5.489-2.32l5.497-2.206l2.756-1.103l2.821-1.065l5.642-2.136l0.215-0.082
		C487.139,195.848,489.674,190.428,487.925,185.485z M256.591,359.248c0.198,0.672,0.398,1.344,0.595,2.017
		c-0.198,0.375-0.398,0.749-0.595,1.125c-0.197-0.376-0.397-0.75-0.595-1.125C256.193,360.592,256.393,359.92,256.591,359.248z"/>
</g>
<g id="Layer_6">
	<path fill="#5DC15D" d="M159.266,494.544c-28.978,0-52.469-23.491-52.469-52.469v-299.59c0-28.978,23.491-66.692,52.469-66.692
		s52.469,37.713,52.469,66.692v299.59C211.735,471.053,188.244,494.544,159.266,494.544z M403.736,442.074v-299.59
		c0-28.978-23.491-66.692-52.469-66.692c-28.978,0-52.469,37.713-52.469,66.692v299.59c0,28.978,23.491,52.469,52.469,52.469
		C380.244,494.544,403.736,471.053,403.736,442.074z"/>
</g>
<g id="Layer_7">
	<path fill="#F2E3BD" d="M199,142.484v39.264c0,21.685-17.815,53.486-39.5,53.486S120,203.433,120,181.748v-39.264
		c0-21.685,17.815-53.486,39.5-53.486S199,120.799,199,142.484z M351.5,88.998c-21.685,0-39.5,31.801-39.5,53.486v39.264
		c0,21.685,17.815,53.486,39.5,53.486c21.685,0,39.5-31.801,39.5-53.486v-39.264C391,120.799,373.185,88.998,351.5,88.998z"/>
</g>
<g id="Layer_8">
	<path fill="#1B871B" d="M211.527,267.891H106.919c-6.632,0-12.01-5.382-12.01-12.014c0-6.632,5.378-12.014,12.01-12.014h104.608
		c6.632,0,12.01,5.382,12.01,12.014C223.537,262.509,218.159,267.891,211.527,267.891z M415.538,312.766
		c0-6.632-5.378-12.014-12.01-12.014H298.919c-6.632,0-12.01,5.382-12.01,12.014s5.378,12.014,12.01,12.014h104.608
		C410.159,324.78,415.538,319.398,415.538,312.766z"/>
</g>
<g id="Layer_9">
	<path fill="#E6CA82" d="M395.714,501.773c-6.632,0-12.01-5.382-12.01-12.014V385.148c0-6.632,5.378-12.014,12.01-12.014
		c6.632,0,12.01,5.382,12.01,12.014v104.611C407.724,496.391,402.346,501.773,395.714,501.773z M376.661,489.759V385.148
		c0-6.632-5.378-12.014-12.01-12.014c-6.632,0-12.01,5.382-12.01,12.014v104.611c0,6.632,5.378,12.014,12.01,12.014
		C371.282,501.773,376.661,496.391,376.661,489.759z M345.597,489.759V385.148c0-6.632-5.378-12.014-12.01-12.014
		c-6.632,0-12.01,5.382-12.01,12.014v104.611c0,6.632,5.378,12.014,12.01,12.014C340.219,501.773,345.597,496.391,345.597,489.759z
		 M314.534,489.759V385.148c0-6.632-5.378-12.014-12.01-12.014c-6.632,0-12.01,5.382-12.01,12.014v104.611
		c0,6.632,5.378,12.014,12.01,12.014C309.155,501.773,314.534,496.391,314.534,489.759z M283.47,489.759V385.148
		c0-6.632-5.378-12.014-12.01-12.014s-12.01,5.382-12.01,12.014v104.611c0,6.632,5.378,12.014,12.01,12.014
		S283.47,496.391,283.47,489.759z M252.406,489.759V385.148c0-6.632-5.378-12.014-12.01-12.014c-6.632,0-12.01,5.382-12.01,12.014
		v104.611c0,6.632,5.378,12.014,12.01,12.014C247.028,501.773,252.406,496.391,252.406,489.759z M221.343,489.759V385.148
		c0-6.632-5.378-12.014-12.01-12.014c-6.632,0-12.01,5.382-12.01,12.014v104.611c0,6.632,5.378,12.014,12.01,12.014
		C215.964,501.773,221.343,496.391,221.343,489.759z M190.279,489.759V385.148c0-6.632-5.378-12.014-12.01-12.014
		c-6.632,0-12.01,5.382-12.01,12.014v104.611c0,6.632,5.378,12.014,12.01,12.014C184.901,501.773,190.279,496.391,190.279,489.759z
		 M159.215,489.759V385.148c0-6.632-5.378-12.014-12.01-12.014c-6.632,0-12.01,5.382-12.01,12.014v104.611
		c0,6.632,5.378,12.014,12.01,12.014C153.837,501.773,159.215,496.391,159.215,489.759z M128.152,489.759V385.148
		c0-6.632-5.378-12.014-12.01-12.014s-12.01,5.382-12.01,12.014v104.611c0,6.632,5.378,12.014,12.01,12.014
		S128.152,496.391,128.152,489.759z"/>
</g>
<g id="Layer_10">
	<path fill="#F2E3BD" d="M381.492,508.884c-6.632,0-12.01-5.382-12.01-12.014V392.259c0-6.632,5.378-12.014,12.01-12.014
		c6.632,0,12.01,5.382,12.01,12.014V496.87C393.502,503.502,388.124,508.884,381.492,508.884z M424.566,496.87V392.259
		c0-6.632-5.378-12.014-12.01-12.014c-6.632,0-12.01,5.382-12.01,12.014V496.87c0,6.632,5.378,12.014,12.01,12.014
		C419.187,508.884,424.566,503.502,424.566,496.87z M362.439,496.87V392.259c0-6.632-5.378-12.014-12.01-12.014
		c-6.632,0-12.01,5.382-12.01,12.014V496.87c0,6.632,5.378,12.014,12.01,12.014C357.06,508.884,362.439,503.502,362.439,496.87z
		 M331.375,496.87V392.259c0-6.632-5.378-12.014-12.01-12.014c-6.632,0-12.01,5.382-12.01,12.014V496.87
		c0,6.632,5.378,12.014,12.01,12.014C325.997,508.884,331.375,503.502,331.375,496.87z M300.311,496.87V392.259
		c0-6.632-5.378-12.014-12.01-12.014s-12.01,5.382-12.01,12.014V496.87c0,6.632,5.378,12.014,12.01,12.014
		S300.311,503.502,300.311,496.87z M269.248,496.87V392.259c0-6.632-5.378-12.014-12.01-12.014c-6.632,0-12.01,5.382-12.01,12.014
		V496.87c0,6.632,5.378,12.014,12.01,12.014C263.869,508.884,269.248,503.502,269.248,496.87z M238.184,496.87V392.259
		c0-6.632-5.378-12.014-12.01-12.014c-6.632,0-12.01,5.382-12.01,12.014V496.87c0,6.632,5.378,12.014,12.01,12.014
		C232.806,508.884,238.184,503.502,238.184,496.87z M207.12,496.87V392.259c0-6.632-5.378-12.014-12.01-12.014
		c-6.632,0-12.01,5.382-12.01,12.014V496.87c0,6.632,5.378,12.014,12.01,12.014C201.742,508.884,207.12,503.502,207.12,496.87z
		 M176.057,496.87V392.259c0-6.632-5.378-12.014-12.01-12.014c-6.632,0-12.01,5.382-12.01,12.014V496.87
		c0,6.632,5.378,12.014,12.01,12.014C170.678,508.884,176.057,503.502,176.057,496.87z M144.993,496.87V392.259
		c0-6.632-5.378-12.014-12.01-12.014c-6.632,0-12.01,5.382-12.01,12.014V496.87c0,6.632,5.378,12.014,12.01,12.014
		C139.615,508.884,144.993,503.502,144.993,496.87z M113.93,496.87V392.259c0-6.632-5.378-12.014-12.01-12.014
		s-12.01,5.382-12.01,12.014V496.87c0,6.632,5.378,12.014,12.01,12.014S113.93,503.502,113.93,496.87z"/>
</g>
<g id="Layer_11">
	<path fill="#4C311E" d="M258.262,453.769c-46.457,0-90.146-2.966-123.018-8.351c-34.58-5.665-52.113-12.93-52.113-21.593
		c0-0.828,0.671-1.5,1.5-1.5s1.5,0.672,1.5,1.5c0,2.465,3.577,11.094,49.598,18.632c32.717,5.36,76.233,8.312,122.533,8.312
		s89.815-2.951,122.532-8.312c46.021-7.538,49.598-16.167,49.598-18.632c0-0.828,0.672-1.5,1.5-1.5s1.5,0.672,1.5,1.5
		c0,8.663-17.533,15.928-52.112,21.593C348.407,450.803,304.719,453.769,258.262,453.769z"/>
</g>
</svg>
