<?xml version="1.0" encoding="iso-8859-1"?>
<!-- Generator: Adobe Illustrator 18.1.1, SVG Export Plug-In . SVG Version: 6.00 Build 0)  -->
<!DOCTYPE svg PUBLIC "-//W3C//DTD SVG 1.1//EN" "http://www.w3.org/Graphics/SVG/1.1/DTD/svg11.dtd">
<svg version="1.1" xmlns="http://www.w3.org/2000/svg" xmlns:xlink="http://www.w3.org/1999/xlink" x="0px" y="0px"
	 viewBox="0 0 512 512" enable-background="new 0 0 512 512" xml:space="preserve">
<g id="Layer_5">
	<path fill="#2B3B47" d="M490.941,36.671c-0.906-0.905-2.373-0.905-3.279,0l-235.11,235.11c-1.19-2.1-2.599-4.107-4.224-5.995
		L482.553,31.562c0.905-0.906,0.905-2.374,0-3.279c-0.906-0.905-2.373-0.905-3.279,0L245.1,262.456
		c-1.835-1.671-3.796-3.124-5.849-4.369L474.165,23.174c0.905-0.906,0.905-2.374,0-3.279c-0.906-0.905-2.373-0.905-3.279,0
		L234.937,255.844c-13.837-6.097-30.584-3.489-41.919,7.846c-11.335,11.335-13.944,28.082-7.846,41.919l-64.254,64.254l-8.13-8.129
		c-4.92-4.92-13.177-3.778-16.578,2.291l-9.105,16.251c-2.297,4.1-1.589,9.228,1.735,12.552l29.169,29.169
		c3.323,3.323,8.451,4.032,12.552,1.735l16.251-9.105c6.07-3.401,7.211-11.658,2.291-16.578l-8.13-8.13l64.55-64.55
		c13.628,5.518,29.825,2.752,40.875-8.299c11.05-11.05,13.816-27.248,8.299-40.875L490.941,39.951
		C491.847,39.045,491.847,37.577,490.941,36.671z M187.415,309.924c1.244,2.053,2.698,4.014,4.369,5.849l-62.479,62.479
		l-5.109-5.109L187.415,309.924z M137.693,386.64l-5.109-5.109l62.53-62.53c1.887,1.625,3.895,3.033,5.995,4.224L137.693,386.64z"/>
</g>
<g id="Layer_1">
</g>
</svg>
