<?xml version="1.0" encoding="iso-8859-1"?>
<!-- Generator: Adobe Illustrator 18.1.1, SVG Export Plug-In . SVG Version: 6.00 Build 0)  -->
<!DOCTYPE svg PUBLIC "-//W3C//DTD SVG 1.1//EN" "http://www.w3.org/Graphics/SVG/1.1/DTD/svg11.dtd">
<svg version="1.1" xmlns="http://www.w3.org/2000/svg" xmlns:xlink="http://www.w3.org/1999/xlink" x="0px" y="0px"
	 viewBox="0 0 512 512" enable-background="new 0 0 512 512" xml:space="preserve">
<g id="Layer_6">
	<path fill="#FFA9BA" d="M85.822,233.181c-1.009,0-2.035-0.119-3.059-0.367l-33.902-8.217c-6.947-1.684-11.214-8.681-9.53-15.628
		c1.684-6.946,8.68-11.211,15.628-9.53l33.902,8.217c6.947,1.684,11.214,8.681,9.53,15.628
		C96.955,229.206,91.658,233.181,85.822,233.181z M424.478,291.436l31.557-13.744c6.554-2.854,9.553-10.48,6.698-17.034
		c-2.854-6.554-10.482-9.554-17.034-6.698l-31.557,13.744c-6.554,2.854-9.553,10.48-6.698,17.034
		c2.121,4.871,6.878,7.778,11.873,7.778C421.041,292.516,422.796,292.169,424.478,291.436z M260.437,112.013
		c1.707-6.941-2.537-13.952-9.479-15.659l-31.009-7.624c-6.937-1.706-13.952,2.537-15.659,9.479
		c-1.707,6.941,2.537,13.952,9.479,15.659l31.009,7.624c1.038,0.255,2.077,0.377,3.1,0.377
		C253.697,121.869,258.985,117.917,260.437,112.013z"/>
</g>
<g id="Layer_1">
</g>
</svg>
