<?xml version="1.0" encoding="iso-8859-1"?>
<!-- Generator: Adobe Illustrator 19.1.0, SVG Export Plug-In . SVG Version: 6.00 Build 0)  -->
<!DOCTYPE svg PUBLIC "-//W3C//DTD SVG 1.1//EN" "http://www.w3.org/Graphics/SVG/1.1/DTD/svg11.dtd">
<svg version="1.1" xmlns="http://www.w3.org/2000/svg" xmlns:xlink="http://www.w3.org/1999/xlink" x="0px" y="0px"
	 viewBox="0 0 512 512" enable-background="new 0 0 512 512" xml:space="preserve">
<g id="Layer_2">
	<path fill="#37AA1B" d="M137.112,340.754c-0.447,0-0.897-0.021-1.352-0.062c-7.998-0.736-13.883-7.817-13.146-15.814
		c9.317-101.104,51.014-148.284,87.802-189.91c25.714-29.096,46.757-52.904,53.455-90.668c1.355-23.671,2.738-26.605,3.397-28.004
		c2.954-6.271,9.964-9.624,16.693-7.956c5.126,1.271,11.112,5.967,11.116,15.017c0,0.857-0.031,1.967-0.097,3.395
		c-0.331,7.203-1.049,14.021-2.109,20.497c-1.437,25.008-2.691,67.945,0.126,112.333c5.153,81.218,21.894,136.246,47.136,154.944
		c6.453,4.781,7.81,13.888,3.029,20.342c-4.781,6.453-13.889,7.81-20.342,3.029c-33.79-25.031-53.691-86.078-59.149-181.445
		c-0.766-13.373-1.18-26.369-1.355-38.553c-9.174,12.644-19.541,24.374-30.107,36.33c-35.49,40.157-72.188,81.681-80.633,173.318
		C150.88,335.089,144.541,340.754,137.112,340.754z"/>
</g>
<g id="Layer_3">
	<circle fill="#D81637" cx="356.682" cy="388.155" r="119.216"/>
</g>
<g id="Layer_4">
	<path fill="#EF5454" d="M297.786,350.908c-3.659,0-7.35-1.135-10.511-3.486c-7.812-5.812-9.435-16.858-3.622-24.671
		c10.584-14.227,26.096-25.017,43.678-30.382c9.314-2.843,19.168,2.404,22.011,11.718c2.842,9.314-2.404,19.168-11.718,22.011
		c-10.435,3.185-19.554,9.471-25.678,17.702C308.485,348.451,303.17,350.908,297.786,350.908z"/>
</g>
<g id="Layer_5">
	<path fill="#56C140" d="M470.391,151.902c0,0-1.227-0.258-3.366-0.85c-2.129-0.599-5.197-1.515-8.843-2.855
		c-0.455-0.167-0.923-0.338-1.402-0.514c-0.469-0.124-0.951-0.25-1.443-0.38c-0.996-0.244-1.949-0.547-2.978-0.821
		c-2.024-0.572-4.128-1.184-6.273-1.828c-2.254-0.641-4.626-1.321-6.989-2.05c-1.213-0.333-2.336-0.793-3.59-1.094
		c-1.256-0.302-2.451-0.67-3.698-0.998c-1.252-0.323-2.448-0.708-3.681-1.063c-1.229-0.301-2.48-0.608-3.753-0.92
		c-1.261-0.293-2.487-0.623-3.703-0.962c-0.603-0.183-1.257-0.261-1.882-0.395c-0.613-0.135-1.23-0.272-1.851-0.409
		c-1.206-0.27-2.428-0.544-3.665-0.822c-1.242-0.206-2.462-0.428-3.657-0.672c-0.597-0.124-1.199-0.237-1.782-0.374
		c-0.588-0.129-1.214-0.179-1.808-0.283c-1.199-0.188-2.377-0.391-3.531-0.62c-1.167-0.207-2.382-0.312-3.529-0.519
		c-0.58-0.092-1.158-0.184-1.723-0.296c-0.571-0.104-1.187-0.136-1.766-0.226c-1.177-0.151-2.317-0.342-3.465-0.533
		c-1.197-0.138-2.381-0.286-3.538-0.484c-4.765-0.652-9.602-1.428-14.977-2.332c-2.764-0.417-5.455-0.962-8.458-1.489
		c-1.504-0.294-3.006-0.587-4.503-0.879c-0.776-0.144-1.542-0.333-2.312-0.498l-2.369-0.544c-6.308-1.499-13.337-3.515-20.5-6.27
		c-3.521-1.338-7.29-2.967-10.853-4.68c-1.859-0.914-3.679-1.85-5.456-2.806c-1.766-0.949-3.64-2.075-5.378-3.129
		c-0.871-0.547-1.737-1.09-2.596-1.629c-0.875-0.601-1.744-1.197-2.607-1.789c-1.709-1.241-3.33-2.399-4.96-3.675
		c-1.615-1.35-3.18-2.66-4.676-3.977c-0.739-0.667-1.467-1.339-2.19-2.068c-0.716-0.719-1.433-1.396-2.106-2.127
		c-0.67-0.718-1.333-1.429-1.989-2.132c-0.649-0.697-1.284-1.381-1.879-2.163c-1.197-1.517-2.359-2.947-3.406-4.432
		c-0.527-0.738-1.047-1.439-1.537-2.174c-0.489-0.742-0.934-1.52-1.381-2.258c-0.893-1.478-1.712-2.93-2.455-4.357
		c-0.782-1.369-1.372-2.889-1.963-4.273c-0.594-1.382-1.085-2.775-1.563-4.064c-0.242-0.641-0.441-1.306-0.636-1.945
		c-0.169-0.658-0.334-1.303-0.495-1.932c-0.305-1.262-0.611-2.415-0.827-3.566c-0.943-4.531-1.005-8.3-0.974-10.871
		c-0.001-1.266,0.081-2.281,0.135-2.958c0.054-0.672,0.082-1.019,0.082-1.019c0.305-3.782,3.346-6.688,7.023-6.93l0.786-0.052
		c0,0,0.341-0.023,1.001-0.067c0.66-0.049,1.641-0.132,2.813-0.184c2.426-0.193,5.594-0.178,9.501-0.666
		c1.913-0.204,3.82-0.27,5.993-0.685c2.119-0.343,4.205-0.62,6.382-1.058c2.246-0.527,4.284-0.844,6.535-1.463
		c1.12-0.314,2.181-0.543,3.258-0.832c1.061-0.274,2.215-0.599,3.305-0.913c1.117-0.321,2.102-0.523,3.289-0.903
		c1.095-0.296,2.21-0.598,3.344-0.906c1.098-0.257,2.328-0.596,3.472-0.886c1.173-0.266,2.365-0.535,3.573-0.809
		c0.608-0.123,1.22-0.247,1.836-0.372c0.623-0.114,1.25-0.23,1.881-0.345c1.317-0.234,2.628-0.44,3.935-0.616
		c2.8-0.386,5.533-0.649,8.666-0.825c6.124-0.316,12.892-0.196,20.561,0.723l1.406,0.166l1.473,0.214
		c0.981,0.153,1.969,0.282,2.95,0.457c0.988,0.172,1.955,0.322,2.963,0.514l3.081,0.633c4.046,0.822,8.371,1.927,12.619,3.16
		c8.622,2.527,17.549,6.11,25.997,10.609c2.121,1.153,4.203,2.351,6.255,3.552c2.043,1.278,4.044,2.628,6.008,3.965
		c0.981,0.676,1.956,1.336,2.905,2.052c0.947,0.721,1.877,1.461,2.799,2.197c1.84,1.477,3.66,2.928,5.378,4.474
		c1.699,1.579,3.35,3.168,4.953,4.756c0.796,0.8,1.601,1.579,2.349,2.405c0.747,0.826,1.468,1.672,2.188,2.502
		c1.437,1.663,2.82,3.328,4.152,4.985c1.3,1.679,2.457,3.441,3.626,5.127c1.157,1.69,2.298,3.357,3.29,5.069
		c0.981,1.714,1.92,3.406,2.788,5.102c0.868,1.69,1.762,3.304,2.483,4.981c0.702,1.684,1.404,3.3,2.011,4.937
		c0.612,1.632,1.238,3.183,1.762,4.757c0.284,0.773,0.501,1.564,0.724,2.337c0.226,0.771,0.441,1.535,0.633,2.302
		c0.804,3.042,1.476,5.908,2.012,8.655c0.498,2.861,0.868,5.531,1.13,7.993c0.115,1.243,0.258,2.395,0.311,3.541
		c0.031,0.566,0.062,1.118,0.092,1.657c-0.014,0.512-0.028,1.01-0.042,1.496c-0.119,3.885-0.414,7.074-0.654,9.274
		c-0.249,2.207-0.468,3.442-0.468,3.442c-0.774,4.38-4.951,7.303-9.331,6.529C470.574,151.938,470.463,151.916,470.391,151.902z"/>
</g>
<g id="Layer_6">
	<circle fill="#E84951" cx="137.095" cy="352.864" r="119.216"/>
</g>
<g id="Layer_7">
	<path fill="#F47171" d="M77.198,310.613c-3.66,0-7.35-1.135-10.511-3.487c-7.812-5.812-9.434-16.857-3.621-24.671
		c10.585-14.227,26.097-25.016,43.678-30.381c9.312-2.84,19.167,2.404,22.01,11.718c2.842,9.314-2.404,19.168-11.718,22.011
		c-10.434,3.184-19.553,9.471-25.678,17.703C87.897,308.156,82.581,310.613,77.198,310.613z"/>
</g>
</svg>
