<?xml version="1.0" encoding="iso-8859-1"?>
<!-- Generator: Adobe Illustrator 18.1.1, SVG Export Plug-In . SVG Version: 6.00 Build 0)  -->
<!DOCTYPE svg PUBLIC "-//W3C//DTD SVG 1.1//EN" "http://www.w3.org/Graphics/SVG/1.1/DTD/svg11.dtd">
<svg version="1.1" xmlns="http://www.w3.org/2000/svg" xmlns:xlink="http://www.w3.org/1999/xlink" x="0px" y="0px"
	 viewBox="0 0 512 512" enable-background="new 0 0 512 512" xml:space="preserve">
<g id="Layer_2">
	<path fill="#E01212" d="M35.953,189.649c-0.087-2.088-0.148-4.182-0.148-6.288c0-99.065,97.53-179.373,217.84-179.373
		s217.84,80.308,217.84,179.373c0,2.106-0.06,4.2-0.148,6.288l0.037-0.009c-2.798,33.154-63.481,44.476-83.001,47.266
		c-3.542,0.506-6.5,2.961-7.623,6.358c-6.573,19.875-35.305,85.845-127.105,85.845h0c-88.71,0-118.526-61.605-126.364-83.687
		c-1.674-4.715-5.803-8.111-10.748-8.87c-21.641-3.323-77.926-15.011-80.617-46.913L35.953,189.649z"/>
</g>
<g id="Layer_1">
</g>
</svg>
