<?xml version="1.0" encoding="iso-8859-1"?>
<!-- Generator: Adobe Illustrator 18.1.1, SVG Export Plug-In . SVG Version: 6.00 Build 0)  -->
<!DOCTYPE svg PUBLIC "-//W3C//DTD SVG 1.1//EN" "http://www.w3.org/Graphics/SVG/1.1/DTD/svg11.dtd">
<svg version="1.1" xmlns="http://www.w3.org/2000/svg" xmlns:xlink="http://www.w3.org/1999/xlink" x="0px" y="0px"
	 viewBox="0 0 512 512" enable-background="new 0 0 512 512" xml:space="preserve">
<g id="Layer_5">
	<path fill="#FFE1AB" d="M100.597,149.518c0-6.407,5.194-11.601,11.601-11.601c6.407,0,11.601,5.194,11.601,11.601
		c0,6.407-5.194,11.601-11.601,11.601C105.79,161.119,100.597,155.925,100.597,149.518z M381.202,436.691
		c6.407,0,11.601-5.194,11.601-11.601c0-6.407-5.194-11.601-11.601-11.601s-11.601,5.194-11.601,11.601
		C369.602,431.497,374.795,436.691,381.202,436.691z M444.126,290.564c4.084,0,7.395-3.311,7.395-7.395s-3.311-7.395-7.395-7.395
		s-7.395,3.311-7.395,7.395S440.042,290.564,444.126,290.564z M328.343,92.801c4.084,0,7.395-3.311,7.395-7.395
		c0-4.084-3.311-7.395-7.395-7.395c-4.084,0-7.395,3.311-7.395,7.395C320.948,89.49,324.259,92.801,328.343,92.801z M451.521,413.49
		c2.793,0,5.058-2.264,5.058-5.058s-2.264-5.058-5.058-5.058c-2.793,0-5.058,2.264-5.058,5.058S448.728,413.49,451.521,413.49z
		 M407.877,54.365c2.793,0,5.058-2.264,5.058-5.058c0-2.793-2.264-5.058-5.058-5.058s-5.058,2.264-5.058,5.058
		C402.819,52.101,405.084,54.365,407.877,54.365z M53.599,97.859c2.793,0,5.058-2.264,5.058-5.058c0-2.793-2.264-5.058-5.058-5.058
		c-2.793,0-5.058,2.264-5.058,5.058C48.542,95.594,50.806,97.859,53.599,97.859z M171.773,440.79c2.793,0,5.058-2.264,5.058-5.058
		s-2.264-5.058-5.058-5.058c-2.793,0-5.058,2.264-5.058,5.058S168.98,440.79,171.773,440.79z M60.995,238.197
		c4.084,0,7.395-3.311,7.395-7.395c0-4.084-3.311-7.395-7.395-7.395s-7.395,3.311-7.395,7.395
		C53.599,234.886,56.91,238.197,60.995,238.197z"/>
</g>
<g id="Layer_1">
</g>
</svg>
