<?xml version="1.0" encoding="iso-8859-1"?>
<!-- Generator: Adobe Illustrator 18.1.1, SVG Export Plug-In . SVG Version: 6.00 Build 0)  -->
<!DOCTYPE svg PUBLIC "-//W3C//DTD SVG 1.1//EN" "http://www.w3.org/Graphics/SVG/1.1/DTD/svg11.dtd">
<svg version="1.1" xmlns="http://www.w3.org/2000/svg" xmlns:xlink="http://www.w3.org/1999/xlink" x="0px" y="0px"
	 viewBox="0 0 512 512" enable-background="new 0 0 512 512" xml:space="preserve">
<g id="Layer_4">
	<path fill="#FFE1AB" d="M208.135,362.91c-2.175,0-4.351-0.83-6.01-2.489l-51.165-51.164c-3.32-3.319-3.32-8.701,0-12.021
		c3.319-3.318,8.701-3.318,12.021,0l51.165,51.164c3.32,3.319,3.32,8.701,0,12.021C212.485,362.08,210.31,362.91,208.135,362.91z
		 M239.727,334.839c3.32-3.319,3.32-8.702,0-12.021l-51.164-51.164c-3.319-3.318-8.701-3.318-12.021,0
		c-3.32,3.319-3.32,8.702,0,12.021l51.164,51.164c1.66,1.659,3.835,2.489,6.01,2.489S238.067,336.498,239.727,334.839z
		 M265.31,309.257c3.319-3.319,3.319-8.702,0-12.021l-51.165-51.164c-3.319-3.319-8.701-3.319-12.021,0
		c-3.32,3.319-3.32,8.701,0,12.021l51.164,51.164c1.66,1.659,3.834,2.489,6.01,2.489S263.649,310.916,265.31,309.257z
		 M290.892,283.675c3.319-3.319,3.319-8.702,0-12.021l-51.165-51.164c-3.319-3.319-8.701-3.319-12.021,0
		c-3.32,3.319-3.32,8.701,0,12.021l51.164,51.165c1.66,1.659,3.835,2.489,6.011,2.489S289.231,285.334,290.892,283.675z
		 M316.474,258.093c3.319-3.32,3.319-8.702,0-12.021l-51.164-51.164c-3.32-3.319-8.702-3.319-12.021,0
		c-3.32,3.319-3.32,8.701,0,12.021l51.164,51.165c1.66,1.659,3.835,2.489,6.011,2.489S314.813,259.752,316.474,258.093z
		 M342.056,232.51c3.319-3.319,3.319-8.701,0-12.021l-51.164-51.164c-3.32-3.319-8.701-3.319-12.021,0
		c-3.319,3.319-3.319,8.701,0,12.021l51.164,51.164c1.66,1.66,3.835,2.49,6.011,2.49S340.396,234.17,342.056,232.51z
		 M367.638,206.928c3.319-3.319,3.319-8.701,0-12.021l-51.164-51.164c-3.32-3.319-8.701-3.319-12.021,0
		c-3.319,3.319-3.319,8.701,0,12.021l51.164,51.164c1.66,1.66,3.835,2.49,6.011,2.49S365.978,208.588,367.638,206.928z"/>
</g>
<g id="Layer_1">
</g>
</svg>
