<svg xmlns="http://www.w3.org/2000/svg" viewBox="0 0 512 512" enable-background="new 0 0 512 512"><path fill="#FF6F1F" d="M65.626 275.915c24.73-40.567 95.993-45.316 95.993-45.316s59.852 38.434 61.965 85.9c2.376 53.33-29.43 108.343-69.04 142.15 6.61-5.615 18.96-16.08-.31.293-4.656 3.934-3.43 2.886-.513.407-11.274 9.49-32.144 22.035-46.15 30.077-7.986 4.585-18.176 2.03-23.043-5.787-8.62-13.846-21.22-35.07-26.553-48.888 1.36 3.578 1.93 5.087-.253-.604-8.99-23.635-3.217-8.513-.132-.407-18.408-48.712-19.756-112.24 8.033-157.824zM363.13 364.06c-10.767-4.833-30.874-13.828.52.264 7.576 3.376 5.577 2.47.824.338 18.428 8.167 50.973 16.465 72.592 21.493 12.204 2.838 24.468-4.508 27.74-16.603 5.74-21.217 13.75-53.37 15.468-73.35-.422 5.193-.593 7.38.1-.884 2.787-34.3.976-12.346.02-.582 5.582-70.645-16.748-154.184-70.354-203.218-47.705-43.64-142.283-23.028-142.283-23.028s-64.004 73.14-48.765 135.974c17.124 70.6 79.55 130.434 144.14 159.595z"/></svg>