<?xml version="1.0" encoding="iso-8859-1"?>
<!-- Generator: Adobe Illustrator 19.1.0, SVG Export Plug-In . SVG Version: 6.00 Build 0)  -->
<!DOCTYPE svg PUBLIC "-//W3C//DTD SVG 1.1//EN" "http://www.w3.org/Graphics/SVG/1.1/DTD/svg11.dtd">
<svg version="1.1" id="Layer_2" xmlns="http://www.w3.org/2000/svg" xmlns:xlink="http://www.w3.org/1999/xlink" x="0px" y="0px"
	 viewBox="0 0 512 512" enable-background="new 0 0 512 512" xml:space="preserve">
<path fill="#CED6D5" d="M418.185,507.181c-13.377,2.098-26.026-6.896-28.388-20.289c-0.114-0.647-0.206-1.347-0.269-1.99
	l-15.07-160.012c-0.911-9.672-7.534-17.854-16.805-20.759h0c0,0-0.558-0.175-1.639-0.513c-0.505-0.176-1.132-0.394-1.877-0.653
	c-0.734-0.261-1.51-0.576-2.43-0.926c-3.588-1.416-8.254-3.597-13.261-6.538c-4.912-2.958-9.983-6.706-14.428-11.248
	c-4.425-4.546-8.181-9.892-10.696-16.003c-2.642-6.089-3.176-13.096-4.529-20.368c-1.159-7.306-2.339-15.019-3.372-23.03
	c-0.565-3.997-1.018-8.082-1.508-12.212c-0.515-4.125-0.905-8.324-1.34-12.549c-0.847-8.454-1.501-17.078-2.068-25.718
	c-0.484-8.654-0.908-17.319-1.065-25.895c-0.219-8.565-0.187-17.037-0.052-25.254c0.147-8.219,0.507-16.203,0.952-23.792
	c0.258-3.801,0.492-7.495,0.848-11.091c0.334-3.592,0.609-7.055,0.959-10.394c0.396-3.347,0.775-6.555,1.136-9.606
	c0.363-3.051,0.85-5.971,1.23-8.701c0.369-2.728,0.837-5.303,1.25-7.68c0.206-1.189,0.404-2.329,0.593-3.418
	c0.216-1.094,0.421-2.138,0.616-3.128c0.763-3.958,1.494-7.091,2.006-9.23c0.552-2.146,0.847-3.29,0.847-3.29l2.542-9.875
	c3.198-12.422,15.56-20.537,28.097-17.824c9.766,2.113,16.726,9.911,18.354,19.06l39.649,224.862l0,0l40.052,227.145l0.251,1.423
	C441.199,491.442,431.985,505.017,418.185,507.181z M245.916,52.915c-0.06-3.512-0.044-6.726-0.156-9.579
	c-0.095-2.851-0.178-5.336-0.247-7.382c-0.138-4.089-0.216-6.425-0.216-6.425c-0.23-6.148-5.861-11.169-12.565-9.853
	c-4.555,0.894-7.879,4.852-8.233,9.48l-0.013,0.176c0,0-0.173,2.263-0.477,6.224c-0.151,1.978-0.335,4.38-0.546,7.135
	c-0.194,2.754-0.554,5.857-0.868,9.241c-0.34,3.383-0.657,7.047-1.148,10.913c-0.476,3.866-0.901,7.944-1.479,12.15
	c-0.594,4.205-1.145,8.551-1.816,12.953c-0.706,4.398-1.339,8.872-2.122,13.323c-0.783,4.451-1.505,8.906-2.366,13.266
	c-0.414,2.181-0.824,4.344-1.229,6.482c-0.436,2.13-0.867,4.234-1.29,6.303c-0.823,4.142-1.739,8.115-2.56,11.888
	c-0.366,1.594-0.96,4.104-1.542,6.544c-0.947,3.975-4.827,6.522-8.851,5.813h0c-4.037-0.712-6.814-4.454-6.325-8.523l14.24-118.688
	c0.644-5.55-3.251-10.861-9.083-11.588c-5.344-0.666-10.265,3.06-11.49,8.303l-27.28,116.688c-0.852,3.645-4.404,5.989-8.09,5.339
	c-3.673-0.648-6.207-4.043-5.78-7.749c0.309-2.681,0.644-5.547,0.862-7.307c0.519-3.827,1.017-7.873,1.66-12.047
	c0.31-2.09,0.625-4.214,0.943-6.364c0.35-2.147,0.705-4.321,1.062-6.512c0.682-4.391,1.528-8.824,2.314-13.275
	c0.786-4.451,1.722-8.871,2.563-13.245c0.876-4.366,1.844-8.638,2.724-12.793c0.896-4.15,1.891-8.127,2.766-11.923
	c0.86-3.801,1.816-7.352,2.653-10.647c0.861-3.287,1.585-6.326,2.344-8.98c0.744-2.661,1.393-4.981,1.928-6.892
	c1.07-3.825,1.681-6.011,1.681-6.011l0.082-0.289c1.387-5.035-1.195-10.418-6.156-12.415c-5.336-2.148-11.402,0.436-13.55,5.772
	c0,0-0.873,2.169-2.401,5.964c-0.764,1.9-1.692,4.206-2.757,6.852c-1.081,2.643-2.165,5.668-3.422,8.948
	c-1.233,3.288-2.619,6.837-3.933,10.64c-1.329,3.798-2.806,7.786-4.199,11.953c-1.378,4.171-2.861,8.469-4.26,12.87
	c-1.365,4.41-2.833,8.873-4.153,13.379c-1.32,4.506-2.7,9.002-3.909,13.469c-0.621,2.231-1.237,4.444-1.845,6.631
	c-0.578,2.197-1.148,4.367-1.71,6.502c-1.146,4.265-2.133,8.425-3.115,12.361c-0.939,3.95-1.821,7.687-2.588,11.159
	c-0.768,3.471-1.461,6.661-2.034,9.512c-0.599,2.835-2.66,20.721-1.983,22.823c-2.079,30.307,13.005,57.884,37.113,69.586
	l-51.525,241.63c-0.116,0.553-0.228,1.175-0.307,1.743c-1.904,13.614,7.588,26.194,21.202,28.098s26.194-7.588,28.098-21.202
	l34.224-244.677c27.266-2.813,51.343-24.463,59.231-54.707c1.091-1.83,3.143-10.677,3.501-12.775c0.325-2.075,0.753-4.6,1.161-7.469
	c0.436-2.875,0.877-6.11,1.342-9.634c0.466-3.525,0.916-7.339,1.385-11.372c0.424-4.035,0.919-8.281,1.301-12.681
	c0.203-2.198,0.409-4.432,0.617-6.694c0.176-2.263,0.354-4.553,0.534-6.862c0.391-4.612,0.633-9.308,0.933-13.994
	c0.301-4.686,0.447-9.382,0.673-13.993c0.19-4.614,0.266-9.161,0.398-13.551c0.116-4.392,0.093-8.645,0.142-12.668
	C246.038,60.235,245.95,56.426,245.916,52.915z"/>
</svg>
