<svg xmlns="http://www.w3.org/2000/svg" viewBox="0 0 512 512" enable-background="new 0 0 512 512"><path fill="#D32A2A" d="M353.192 21.28c2.378-8.797-6.327-16.528-14.74-13.03-14.774 6.14-35.014 15.415-57.004 27.964l-2.708-4.696c-1.08-1.79-2.092-3.463-3.028-5.01l-2.69-4.254c-1.667-2.568-3.04-4.586-4.008-5.962l-1.527-2.11c-1.136-1.555-2.576-3.03-4.22-4.22-8.437-6.106-20.225-4.216-26.33 4.22l-1.528 2.11c-.97 1.376-2.344 3.394-4.01 5.962l-2.69 4.254-3.03 5.01c-1.03 1.79-2.13 3.692-3.284 5.698l-3.456 6.317c-2.31 4.403-4.803 9.172-7.22 14.217-2.44 5.045-4.87 10.365-7.232 15.868-2.366 5.503-4.706 11.19-6.9 16.97-1.796 4.71-3.54 9.48-5.19 14.263-10.712 11.586-20.49 24.176-28.785 37.78-17.443 22.977-27.8 51.624-27.8 82.694 0 3.992.18 7.864.515 11.63 0 .062-.003.124-.003.187h.02c6.1 67.416 64.81 98.64 136.352 98.64 75.598 0 136.884-34.858 136.884-110.458 0-115.52-72.494-144.467-56.39-204.04z"/></svg>