<?xml version="1.0" encoding="iso-8859-1"?>
<!-- Generator: Adobe Illustrator 19.1.0, SVG Export Plug-In . SVG Version: 6.00 Build 0)  -->
<!DOCTYPE svg PUBLIC "-//W3C//DTD SVG 1.1//EN" "http://www.w3.org/Graphics/SVG/1.1/DTD/svg11.dtd">
<svg version="1.1" xmlns="http://www.w3.org/2000/svg" xmlns:xlink="http://www.w3.org/1999/xlink" x="0px" y="0px"
	 viewBox="0 0 512 512" enable-background="new 0 0 512 512" xml:space="preserve">
<g id="Layer_6">
	<path fill="#D1D1D1" d="M7.84,343.501c0-2.731,0.153-5.425,0.436-8.081c4.921-76.933,44.847-67.152,44.847-104.487
		c0-39.456-19.169-37.044-19.169-91.961c0-24.067,19.51-43.577,43.577-43.577s43.577,19.51,43.577,43.577
		c0,54.916-19.169,52.504-19.169,91.961c0,37.334,39.926,27.554,44.847,104.487c0.283,2.656,0.436,5.35,0.436,8.081
		c0,0.521-0.029,1.035-0.039,1.554c0.026,1.418,0.039,2.86,0.039,4.33c0,40.207-37.383,129.446-37.383,129.446
		c0,17.238-64.614,17.238-64.614,0c0,0-37.383-89.239-37.383-129.446c0-1.471,0.014-2.913,0.039-4.33
		C7.868,344.536,7.84,344.022,7.84,343.501z"/>
</g>
<g id="Layer_1">
</g>
</svg>
