<?xml version="1.0" encoding="iso-8859-1"?>
<!-- Generator: Adobe Illustrator 18.1.1, SVG Export Plug-In . SVG Version: 6.00 Build 0)  -->
<!DOCTYPE svg PUBLIC "-//W3C//DTD SVG 1.1//EN" "http://www.w3.org/Graphics/SVG/1.1/DTD/svg11.dtd">
<svg version="1.1" xmlns="http://www.w3.org/2000/svg" xmlns:xlink="http://www.w3.org/1999/xlink" x="0px" y="0px"
	 viewBox="0 0 512 512" enable-background="new 0 0 512 512" xml:space="preserve">
<g id="Layer_4">
	<path fill="#2B3B47" d="M300.873,374.42c0,0-12.408-15.629-14.54-17.342l10.528-35.007c5.426-12.863,3.082-27.684-6.024-38.266
		c-1.417-1.647-2.567-2.951-3.203-3.658l-75.66-80.355L139.3,270.956l53.912,65.806c3.806,4.645,6.774,9.917,8.774,15.579
		l-11.708,52.973c0,0,0.003,0.003,0.003,0.003c-1.358,5.042-0.032,10.914,4.083,15.62c0,0,1.344,1.537,3.36,3.843
		c1.807,2.191,17.43,14.453,17.43,14.453c4.747,3.801,11.299,4.953,16.578,2.431c6.946-3.318,9.057-11.74,4.715-18.811
		c0,0-1.883-3.067-5.13-7.366c-1.842-2.57-5.124-5.165-6.947-7.94c-0.549-0.793-1.03-1.488-1.444-2.086
		c0,0,19.908-57.16,9.171-80.812c-8.885-19.573-14.426-29.505-11.563-31.371c3.843-2.504,14.447-0.245,27.567,5.958
		c9.577,4.528,16.857,12.806,20.149,22.875l-8.447,39.325c-4.223,8.44,0.194,16.759,7.482,22.993
		c0.532,0.455,1.074,0.867,1.625,1.237l0.191,0.125c0,0,1.598,1.058,3.995,2.644c2.66,1.658,5.283,4.939,7.76,6.643
		c4.158,3.032,7.086,4.72,7.086,4.72c6.752,3.893,14.164,0.54,16.556-7.49C306.316,386.206,304.711,379.16,300.873,374.42z"/>
</g>
<g id="Layer_1">
</g>
</svg>
