<?xml version="1.0" encoding="iso-8859-1"?>
<!-- Generator: Adobe Illustrator 19.2.1, SVG Export Plug-In . SVG Version: 6.00 Build 0)  -->
<!DOCTYPE svg PUBLIC "-//W3C//DTD SVG 1.1//EN" "http://www.w3.org/Graphics/SVG/1.1/DTD/svg11.dtd">
<svg version="1.1" xmlns="http://www.w3.org/2000/svg" xmlns:xlink="http://www.w3.org/1999/xlink" x="0px" y="0px"
	 viewBox="0 0 512 512" enable-background="new 0 0 512 512" xml:space="preserve">
<g id="Layer_3">
	<path fill="#76DFFF" d="M162.843,260.414c0,0-0.359,1.621-0.988,4.458c-0.35,1.438-0.734,3.184-0.76,4.824
		c-0.092,1.79-0.365,3.415-0.339,5.751c0.003,2.242-0.166,4.545,0.074,7.104c0.116,2.509,0.314,5.125,0.736,7.855
		c0.66,5.395,1.976,11.114,3.575,16.647c3.231,11.107,8.165,21.538,12.413,28.164c2.089,3.379,3.969,5.617,5.21,7.023
		c1.198,1.067,1.882,1.677,1.882,1.677c13.78,12.276,14.999,33.399,2.723,47.178c-12.276,13.78-33.399,14.999-47.178,2.723
		c-5.059-4.507-8.425-10.206-10.052-16.297l-1.615-6.023c0,0-0.63-2.343-1.732-6.442c-0.812-3.863-1.753-9.208-2.185-15.196
		c-1.008-12.035-0.447-27.26,2.327-42.032c1.404-7.384,3.223-14.623,5.595-21.229c1.089-3.3,2.381-6.436,3.69-9.356
		c1.174-2.926,2.719-5.607,3.97-8.048c1.172-2.386,2.827-4.801,4.005-6.736c1.241-2.097,2.348-3.445,3.264-4.538
		c1.826-2.259,2.87-3.549,2.87-3.549c2.478-3.065,6.972-3.54,10.037-1.062C162.539,255.068,163.405,257.857,162.843,260.414z"/>
</g>
<g id="Layer_1">
</g>
</svg>
