<?xml version="1.0" encoding="iso-8859-1"?>
<!-- Generator: Adobe Illustrator 19.1.0, SVG Export Plug-In . SVG Version: 6.00 Build 0)  -->
<!DOCTYPE svg PUBLIC "-//W3C//DTD SVG 1.1//EN" "http://www.w3.org/Graphics/SVG/1.1/DTD/svg11.dtd">
<svg version="1.1" xmlns="http://www.w3.org/2000/svg" xmlns:xlink="http://www.w3.org/1999/xlink" x="0px" y="0px"
	 viewBox="0 0 509.04 509.04" enable-background="new 0 0 509.04 509.04" xml:space="preserve">
<g id="Layer_6">
	<path fill="#FFD3B6" d="M361.83,60.06c-0.033-1.047-0.1-2.089-0.199-3.11c-0.072-1.029-0.228-2.021-0.349-2.995
		c-0.15-0.966-0.305-1.9-0.493-2.778c-0.194-0.878-0.349-1.718-0.566-2.482c-0.389-1.532-0.817-2.815-1.153-3.745
		c-0.205-0.513-0.366-0.917-0.475-1.192c-0.111-0.252-0.171-0.387-0.171-0.387c-0.911-2.061-2.27-3.783-3.904-5.122l1.548-0.423
		c0,0,1.156-3.033-1.472-3.033c-2.629,0-4.894-1.162-8.99-1.162c-4.096,0-7.192,1.162-8.99,1.162l2.148,2.144
		c-6.05,3.472-8.668,11.002-5.84,17.561l0.111,0.257c0,0,0.03,0.069,0.086,0.199c0.019,0.039,0.043,0.086,0.071,0.142
		c0.044,0.097,0.095,0.209,0.151,0.334c0.269,0.554,0.654,1.345,1.116,2.294c0.499,1.004,1.081,2.176,1.705,3.431
		c0.636,1.288,1.314,2.662,1.992,4.036c0.348,0.695,0.681,1.392,1.002,2.086c0.357,0.691,0.634,1.378,0.961,2.045
		c0.326,0.669,0.639,1.311,0.97,1.928c0.351,0.62,0.682,1.206,0.988,1.747c0.132,0.228,0.273,0.446,0.413,0.66l-1.045,2.388
		l-2.18,5.183l-4.355,10.368l-8.355,20.844c-1.4,3.472-2.784,6.948-4.111,10.442l-4.034,10.465l-3.952,10.49l-3.936,10.495
		l0.561-1.546l-9.894,19.715l-4.947,9.858l-2.463,4.933l-2.382,4.968l-2.505,5.233c-0.103-0.001-0.197-0.013-0.302-0.013
		c-4.05,0,7.802,51.152,21.513,51.152v-16.631c0,0,0.007-0.053,0.018-0.136c0.229-0.477,0.458-0.954,0.689-1.431l2.392-4.963
		l4.606-10.003c1.539-3.333,2.956-6.717,4.439-10.074l2.202-5.044l2.115-5.081l4.208-10.172c0.716-1.689,1.365-3.407,2.037-5.115
		l2.004-5.129l4.009-10.257l0.37-0.946c0.074-0.194,0.138-0.395,0.191-0.601l2.769-10.848l1.384-5.424
		c0.457-1.809,0.939-3.611,1.35-5.434l2.561-10.91l1.269-5.459l1.179-5.486c0.769-3.662,1.608-7.304,2.32-10.983l2.147-11.035
		l0.981-5.546c0.322-1.85,0.669-3.692,0.95-5.555l0.881-5.576l0.381-2.769c0.355-0.387,0.677-0.814,0.959-1.281
		c0,0,0.075-0.125,0.216-0.359c0.15-0.235,0.333-0.581,0.563-1.026c0.221-0.446,0.476-0.991,0.74-1.625
		c0.234-0.629,0.494-1.342,0.723-2.13c0.238-0.79,0.444-1.644,0.597-2.545c0.162-0.904,0.316-1.867,0.371-2.845
		C361.873,64.247,361.912,62.147,361.83,60.06z"/>
</g>
<g id="Layer_1">
</g>
</svg>
