<?xml version="1.0" encoding="iso-8859-1"?>
<!-- Generator: Adobe Illustrator 19.1.0, SVG Export Plug-In . SVG Version: 6.00 Build 0)  -->
<!DOCTYPE svg PUBLIC "-//W3C//DTD SVG 1.1//EN" "http://www.w3.org/Graphics/SVG/1.1/DTD/svg11.dtd">
<svg version="1.1" xmlns="http://www.w3.org/2000/svg" xmlns:xlink="http://www.w3.org/1999/xlink" x="0px" y="0px"
	 viewBox="0 0 512 512" enable-background="new 0 0 512 512" xml:space="preserve">
<g id="Layer_3">
	<path fill="#496170" d="M440.896,344.172c0,18.972-18.895,34.357-42.196,34.357c-23.31,0-42.204-15.385-42.204-34.357
		c0-18.971,18.894-34.356,42.204-34.356C422.001,309.816,440.896,325.201,440.896,344.172 M79.079,79.375
		c14.483,10.978,35.227,17.861,58.277,17.861c43.769,0,79.256-24.797,79.256-55.381c0-11.204-4.778-21.624-12.965-30.34
		C155.551,21.763,112.572,45.827,79.079,79.375z M34.04,253.014c-9.864,0-19.3,1.817-28.011,5.11
		c0.47,56.362,19.586,108.269,51.486,149.865c32.313-10.006,55.782-40.123,55.782-75.72
		C113.296,288.502,77.816,253.014,34.04,253.014z M476.091,266.188c0,17.228,10.333,32.037,25.138,38.592
		c3.121-15.779,4.772-32.086,4.772-48.781c0-10.018-0.607-19.893-1.753-29.603C487.846,232.183,476.091,247.81,476.091,266.188z
		 M255.999,198.814c-39.345,0-71.238,25.959-71.238,57.991c0,32.032,31.893,57.991,71.238,57.991s71.238-25.959,71.238-57.991
		C327.237,224.773,295.344,198.814,255.999,198.814z M298.214,43.125c0,23.302,18.886,42.196,42.196,42.196
		c23.301,0,42.196-18.894,42.196-42.196c0-0.934-0.041-1.859-0.101-2.778c-21.726-12.772-45.547-22.36-70.831-28.11
		C303.397,19.941,298.214,30.926,298.214,43.125z M208.556,501.482c15.363,2.952,31.221,4.516,47.445,4.516
		c37.88,0,73.782-8.44,105.954-23.516c-13.773-26.355-41.35-44.354-73.148-44.354C249.835,438.127,217.194,465.154,208.556,501.482z
		"/>
</g>
<g id="Layer_1">
</g>
</svg>
