<?xml version="1.0" encoding="iso-8859-1"?>
<!-- Generator: Adobe Illustrator 19.1.0, SVG Export Plug-In . SVG Version: 6.00 Build 0)  -->
<!DOCTYPE svg PUBLIC "-//W3C//DTD SVG 1.1//EN" "http://www.w3.org/Graphics/SVG/1.1/DTD/svg11.dtd">
<svg version="1.1" xmlns="http://www.w3.org/2000/svg" xmlns:xlink="http://www.w3.org/1999/xlink" x="0px" y="0px"
	 viewBox="0 0 512 512" enable-background="new 0 0 512 512" xml:space="preserve">
<g id="Layer_3">
	<path fill="#1B871B" d="M477.584,109.253c0,0-0.167-0.264-0.491-0.776c-0.328-0.508-0.793-1.283-1.448-2.244
		c-0.647-0.969-1.445-2.163-2.384-3.568c-0.425-0.696-1.103-1.474-1.742-2.28c-0.677-0.802-1.396-1.654-2.156-2.554
		c-0.776-0.908-1.594-1.865-2.451-2.868c-0.881-0.923-1.803-1.888-2.764-2.894c-1.918-2.043-4.087-4.174-6.554-6.26
		c-1.215-1.076-2.495-2.162-3.823-3.279c-1.338-1.098-2.781-2.116-4.241-3.226c-1.47-1.087-2.977-2.239-4.586-3.285
		c-1.626-1.034-3.289-2.093-4.988-3.174c-0.857-0.536-1.716-1.104-2.611-1.612c-0.905-0.488-1.819-0.98-2.742-1.477
		c-1.863-0.992-3.76-2.003-5.691-3.031c-1.97-0.935-4.005-1.823-6.075-2.745c-1.038-0.449-2.076-0.944-3.145-1.364
		c-1.074-0.408-2.156-0.819-3.245-1.232c-8.718-3.388-18.32-5.962-28.484-7.672c-1.274-0.206-2.553-0.412-3.838-0.619
		c-1.287-0.207-2.58-0.434-3.888-0.518c-2.62-0.232-5.26-0.465-7.915-0.7c-5.329-0.245-10.767-0.504-16.246-0.131
		c-2.743,0.118-5.505,0.206-8.262,0.547c-1.382,0.145-2.766,0.289-4.152,0.434l-2.078,0.251l-0.52,0.063l-0.26,0.032l-0.13,0.016
		c0.608-0.128-0.976,0.192-0.852,0.167l-0.889,0.156c-2.372,0.415-4.75,0.831-7.129,1.247l-0.902,0.161l-1.103,0.262l-2.207,0.53
		l-4.419,1.089c-3.038,0.743-5.627,1.663-8.334,2.546c-1.35,0.435-2.681,0.919-4.018,1.385c-1.332,0.48-2.626,1.068-3.938,1.6
		c-1.31,0.538-2.61,1.1-3.9,1.677l-1.937,0.857c-0.642,0.294-1.264,0.635-1.896,0.951c-2.526,1.269-4.992,2.637-7.456,3.972
		c-9.693,5.706-18.441,12.704-25.898,20.44c-0.912,0.988-1.819,1.972-2.723,2.952c-0.894,0.986-1.804,1.934-2.617,2.992
		c-1.647,2.06-3.279,4.1-4.893,6.118c-1.6,2.309-3.167,4.574-4.65,6.851c-0.755-1.987-1.681-4.022-2.658-6.177
		c-0.522-1.198-1.144-2.374-1.797-3.573c-0.638-1.209-1.327-2.427-2.029-3.677c-1.432-2.478-3.111-4.943-4.847-7.511
		c-1.874-2.449-3.753-5.062-5.956-7.508c-1.1-1.224-2.204-2.479-3.358-3.716c-1.176-1.214-2.399-2.411-3.653-3.605
		c-2.46-2.442-5.231-4.647-8.007-6.931c-5.71-4.371-11.994-8.377-18.718-11.74c-6.759-3.296-13.839-6.119-21.081-8.288
		c-7.273-2.089-14.66-3.589-21.964-4.413c-7.318-0.774-14.526-0.889-21.407-0.471c-1.724,0.141-3.427,0.324-5.104,0.49
		c-0.839,0.094-1.669,0.151-2.497,0.279c-0.825,0.13-1.646,0.26-2.462,0.389c-1.628,0.267-3.229,0.501-4.801,0.827
		c-1.572,0.349-3.115,0.678-4.626,1.045c-3.026,0.671-5.912,1.654-8.673,2.468c-2.743,0.998-5.364,1.92-7.817,2.976
		c-1.226,0.534-2.411,1.097-3.563,1.626c-1.153,0.53-2.27,1.047-3.336,1.627c-1.072,0.549-2.099,1.132-3.092,1.682
		c-0.992,0.556-1.955,1.071-2.858,1.655c-1.82,1.119-3.472,2.249-4.992,3.244c-1.498,1.065-2.824,2.129-4.023,3.038
		c-1.204,0.899-2.228,1.792-3.103,2.585c-0.88,0.78-1.605,1.478-2.196,2.023c-1.155,1.13-1.771,1.732-1.771,1.732
		c-1.171,1.149-1.942,2.734-2.034,4.502c-0.195,3.745,2.683,6.938,6.428,7.133l0.588,0.031c0,0,0.795,0.041,2.286,0.119
		c0.727,0.023,1.624,0.052,2.678,0.086c0.517,0.012,1.074,0.024,1.667,0.038c0.6,0.043,1.234,0.087,1.893,0.114
		c1.319,0.058,2.775,0.163,4.315,0.212c1.561,0.118,3.242,0.299,4.982,0.405c3.514,0.335,7.378,0.764,11.465,1.417
		c1.013,0.106,2.06,0.367,3.104,0.539c1.037,0.184,2.093,0.372,3.167,0.563c1.059,0.231,2.136,0.466,3.23,0.705
		c1.083,0.224,2.172,0.439,3.271,0.752c1.098,0.294,2.2,0.549,3.306,0.823c1.097,0.315,2.206,0.634,3.329,0.957
		c2.227,0.584,4.452,1.419,6.685,2.099c4.448,1.606,8.883,3.331,13.209,5.313c1.106,0.527,2.205,1.063,3.298,1.607
		c-0.686,0.032-1.374,0.059-2.055,0.114c-2.048,0.144-4.13,0.184-6.153,0.424l-6.09,0.679c-8.046,1.124-15.971,2.586-23.495,4.707
		c-0.945,0.253-1.893,0.488-2.826,0.754c-0.927,0.284-1.853,0.568-2.776,0.851c-1.84,0.579-3.678,1.122-5.481,1.723
		c-3.573,1.296-7.126,2.474-10.505,3.915c-1.702,0.682-3.381,1.377-5.032,2.088c-1.637,0.747-3.262,1.461-4.85,2.22
		c-3.2,1.445-6.232,3.078-9.19,4.61c-2.937,1.588-5.743,3.218-8.434,4.814c-1.337,0.82-2.639,1.645-3.91,2.464
		c-1.27,0.822-2.526,1.589-3.717,2.434c-2.394,1.657-4.67,3.244-6.787,4.838c-2.108,1.615-4.087,3.155-5.914,4.647
		c-1.81,1.534-3.484,2.98-5.012,4.337c-1.523,1.383-2.906,2.737-4.145,3.907c-2.496,2.397-4.186,4.368-5.407,5.737
		c-1.194,1.379-1.815,2.146-1.815,2.146c-0.514,0.638-0.805,1.469-0.749,2.351c0.119,1.872,1.733,3.293,3.605,3.174
		c0,0,0.985-0.062,2.8-0.239c0.901-0.102,2.011-0.228,3.317-0.377c1.299-0.199,2.766-0.321,4.38-0.501
		c3.183-0.413,7.109-0.809,11.506-1.419c4.352-0.557,9.262-1.185,14.618-1.87c2.647-0.337,5.404-0.639,8.208-1.038
		c2.807-0.335,5.708-0.681,8.691-1.037c1.479-0.169,2.978-0.34,4.495-0.514c1.505-0.203,3.033-0.363,4.576-0.514
		c1.545-0.146,3.086-0.349,4.646-0.526c1.567-0.137,3.14-0.283,4.716-0.458c1.576-0.18,3.169-0.32,4.763-0.454
		c1.589-0.145,3.19-0.292,4.801-0.439c1.6-0.124,3.209-0.249,4.827-0.375c1.615-0.124,3.227-0.27,4.842-0.35
		c1.614-0.106,3.235-0.179,4.847-0.316c1.607-0.07,3.218-0.141,4.833-0.211l2.411-0.123l2.398-0.057
		c1.595-0.024,3.2-0.106,4.779-0.124c6.342-0.08,12.521,0.056,18.467,0.372c2.92,0.279,5.866,0.376,8.627,0.791
		c2.839,0.233,5.476,0.684,8.166,0.9c1.296,0.191,2.573,0.38,3.864,0.516c0.634,0.088,1.307,0.109,1.912,0.222
		c0.612,0.107,1.228,0.195,1.844,0.282c0.614,0.092,1.233,0.161,1.85,0.236c0.308,0.04,0.618,0.07,0.929,0.097l0.885,0.148
		c1.171,0.213,2.351,0.39,3.545,0.526c0.613,0.049,1.145,0.208,1.716,0.298c0.571,0.098,1.137,0.194,1.7,0.291
		c0.565,0.099,1.134,0.19,1.713,0.259c0.588,0.061,1.09,0.224,1.64,0.329c1.08,0.232,2.19,0.411,3.286,0.615
		c1.094,0.192,2.088,0.505,3.16,0.716c4.256,0.883,8.189,2.089,11.993,3.283c1.01,0.24,1.822,0.662,2.738,0.968
		c0.887,0.333,1.767,0.659,2.646,0.966c0.443,0.157,0.876,0.311,1.3,0.461c0.405,0.179,0.801,0.353,1.189,0.524
		c0.812,0.342,1.587,0.668,2.322,0.977c3.067,1.213,5.441,2.47,7.24,3.26c0.892,0.402,1.599,0.717,2.104,0.917
		c0.108,0.046,0.2,0.084,0.285,0.12c0.039,5.137,0.588,9.666,1.396,13.436c0.251,1.177,0.484,2.281,0.742,3.313
		c0.279,1.033,0.571,1.992,0.847,2.879c0.528,1.773,1.106,3.252,1.593,4.436c0.453,1.187,0.922,2.074,1.195,2.673
		c0.3,0.594,0.455,0.9,0.455,0.9c0.273,0.535,0.65,1.05,1.116,1.482c2.122,1.966,5.436,1.839,7.402-0.283l2.06-2.224
		c0,0,0.073-0.078,0.216-0.233c0.137-0.154,0.372-0.385,0.618-0.681c0.49-0.592,1.314-1.468,2.226-2.554
		c1.671-1.986,4.123-4.899,7.242-8.606c2.55-3.06,5.646-6.776,9.197-11.038c0.389-0.486,0.802-0.97,1.224-1.454
		c0.203-0.237,0.391-0.505,0.586-0.723l0.574-0.586l0.269-0.296c0.096-0.118,0.162-0.149,0.29-0.359
		c0.229-0.348,0.46-0.698,0.693-1.051l0.335-0.535l0.168-0.269c-0.157,0.578-0.021,0.134-0.045,0.251l0.04-0.046l0.08-0.091
		c0.211-0.244,0.434-0.484,0.636-0.731c0.816-0.986,1.618-1.984,2.414-2.988l0.602-0.753l0.701-0.728
		c0.462-0.481,0.928-0.968,1.4-1.46c1.742-1.987,3.99-3.819,6.072-5.677c1.131-0.896,2.353-1.751,3.505-2.625
		c0.603-0.425,1.117-0.889,1.781-1.282c0.642-0.404,1.295-0.796,1.914-1.209c4.957-3.302,10.574-6.051,16.23-8.679
		c5.664-2.623,11.339-5.19,17.079-7.919c5.755-2.627,11.601-5.295,17.447-7.963c0.59-0.281,1.181-0.573,1.774-0.877l0.89-0.464
		l0.446-0.238l0.847-0.274c2.313-0.716,4.604-1.523,6.9-2.284l0.86-0.289c0.326-0.072-2.424,0.489-1.225,0.241l0.077-0.023
		l0.154-0.047l0.308-0.094l1.235-0.38l2.467-0.833c0.829-0.26,1.639-0.622,2.488-0.81c0.843-0.215,1.685-0.45,2.528-0.704
		c1.686-0.498,3.376-1.043,5.101-1.385c1.717-0.405,3.438-0.904,5.173-1.267c1.737-0.328,3.481-0.706,5.231-1.072
		c1.75-0.362,3.504-0.586,5.264-0.898c0.885-0.151,1.767-0.302,2.644-0.452c0.883-0.107,1.762-0.213,2.636-0.319
		c0.885-0.111,1.766-0.222,2.642-0.333c0.884-0.131,1.772-0.271,2.642-0.316c1.748-0.131,3.5-0.283,5.261-0.474
		c0.886-0.116,1.742-0.114,2.608-0.154c0.863-0.028,1.738-0.106,2.606-0.157c3.524-0.36,6.832-0.099,10.262-0.281
		c1.686,0.039,3.344,0.077,4.971,0.114c0.83,0.021,1.651,0.041,2.465,0.062c0.802,0.057,1.598,0.112,2.401,0.15
		c1.622,0.092,3.21,0.182,4.762,0.271c1.569,0.099,3.027,0.362,4.557,0.462c1.5,0.152,3.02,0.249,4.446,0.452
		c1.409,0.229,2.799,0.45,4.194,0.62c1.37,0.205,2.781,0.324,4.036,0.603c1.265,0.268,2.524,0.495,3.757,0.708
		c1.238,0.227,2.426,0.445,3.561,0.653c1.04,0.248,2.096,0.432,3.093,0.644c1.016,0.214,1.978,0.417,2.883,0.609
		c0.934,0.217,1.805,0.29,2.684,0.62c1.719,0.558,3.217,0.992,4.436,1.341c1.205,0.364,2.176,0.591,2.812,0.764
		c0.641,0.167,0.972,0.254,0.972,0.254l1.272,0.332c1.397,0.359,2.933,0.163,4.248-0.669
		C478.432,115.131,479.185,111.783,477.584,109.253z"/>
</g>
<g id="Layer_1">
</g>
</svg>
