<svg xmlns="http://www.w3.org/2000/svg" viewBox="0 0 512 512" enable-background="new 0 0 512 512"><path fill="#FFCF53" d="M240.693 314.157h-9.464c-1.45 0-2.625-1.175-2.625-2.624v-29.05c0-1.45 1.175-2.625 2.624-2.625h9.463c1.45 0 2.624 1.175 2.624 2.624v29.05c0 1.45-1.175 2.625-2.624 2.625zm30.334-2.624v-29.05c0-1.45-1.175-2.625-2.624-2.625h-9.464c-1.45 0-2.625 1.175-2.625 2.624v29.05c0 1.45 1.175 2.625 2.624 2.625h9.463c1.45 0 2.624-1.175 2.624-2.624zm27.71 0v-29.05c0-1.45-1.174-2.625-2.623-2.625h-9.464c-1.45 0-2.624 1.175-2.624 2.624v29.05c0 1.45 1.175 2.625 2.624 2.625h9.464c1.45 0 2.624-1.175 2.624-2.624zm27.712 0v-29.05c0-1.45-1.176-2.625-2.625-2.625h-9.464c-1.448 0-2.623 1.175-2.623 2.624v29.05c0 1.45 1.175 2.625 2.624 2.625h9.465c1.45 0 2.624-1.175 2.624-2.624zm-83.134 53.97V336.45c0-1.448-1.175-2.623-2.624-2.623h-9.464c-1.45 0-2.624 1.175-2.624 2.624v29.052c0 1.45 1.175 2.624 2.624 2.624h9.464c1.45 0 2.624-1.175 2.624-2.624zm27.71 0V336.45c0-1.448-1.174-2.623-2.623-2.623h-9.464c-1.45 0-2.625 1.175-2.625 2.624v29.052c0 1.45 1.175 2.624 2.624 2.624h9.463c1.45 0 2.624-1.175 2.624-2.624zm27.712 0V336.45c0-1.448-1.175-2.623-2.624-2.623h-9.464c-1.45 0-2.624 1.175-2.624 2.624v29.052c0 1.45 1.175 2.624 2.624 2.624h9.464c1.45 0 2.624-1.175 2.624-2.624zm27.71 0V336.45c0-1.448-1.174-2.623-2.623-2.623h-9.464c-1.448 0-2.623 1.175-2.623 2.624v29.052c0 1.45 1.175 2.624 2.624 2.624h9.465c1.45 0 2.624-1.175 2.624-2.624zm-83.132 52.74v-29.05c0-1.45-1.175-2.625-2.624-2.625h-9.464c-1.45 0-2.624 1.175-2.624 2.624v29.05c0 1.45 1.175 2.625 2.624 2.625h9.464c1.45 0 2.624-1.175 2.624-2.624zm27.71 0v-29.05c0-1.45-1.174-2.625-2.623-2.625h-9.464c-1.45 0-2.625 1.175-2.625 2.624v29.05c0 1.45 1.175 2.625 2.624 2.625h9.463c1.45 0 2.624-1.175 2.624-2.624zm27.712 0v-29.05c0-1.45-1.175-2.625-2.624-2.625h-9.464c-1.45 0-2.624 1.175-2.624 2.624v29.05c0 1.45 1.175 2.625 2.624 2.625h9.464c1.45 0 2.624-1.175 2.624-2.624zm27.71 0v-29.05c0-1.45-1.174-2.625-2.623-2.625h-9.464c-1.448 0-2.623 1.175-2.623 2.624v29.05c0 1.45 1.175 2.625 2.624 2.625h9.465c1.45 0 2.624-1.175 2.624-2.624zm-83.132 53.968v-29.05c0-1.45-1.175-2.624-2.624-2.624h-9.464c-1.45 0-2.624 1.175-2.624 2.624v29.05c0 1.45 1.175 2.625 2.624 2.625h9.464c1.45 0 2.624-1.175 2.624-2.624zm27.71 0v-29.05c0-1.45-1.174-2.624-2.623-2.624h-9.464c-1.45 0-2.625 1.175-2.625 2.624v29.05c0 1.45 1.175 2.625 2.624 2.625h9.463c1.45 0 2.624-1.175 2.624-2.624zm27.712 0v-29.05c0-1.45-1.175-2.624-2.624-2.624h-9.464c-1.45 0-2.624 1.175-2.624 2.624v29.05c0 1.45 1.175 2.625 2.624 2.625h9.464c1.45 0 2.624-1.175 2.624-2.624zm27.71 0v-29.05c0-1.45-1.174-2.624-2.623-2.624h-9.464c-1.448 0-2.623 1.175-2.623 2.624v29.05c0 1.45 1.175 2.625 2.624 2.625h9.465c1.45 0 2.624-1.175 2.624-2.624zM75.23 332.2v-28.046c0-1.4-1.134-2.533-2.533-2.533h-9.137c-1.4 0-2.533 1.135-2.533 2.534V332.2c0 1.4 1.134 2.534 2.533 2.534h9.137c1.4 0 2.533-1.134 2.533-2.533zm26.753 0v-28.046c0-1.4-1.133-2.533-2.532-2.533H90.31c-1.398 0-2.532 1.135-2.532 2.534V332.2c0 1.4 1.134 2.534 2.533 2.534h9.138c1.4 0 2.533-1.134 2.533-2.533zm26.754 0v-28.046c0-1.4-1.134-2.533-2.533-2.533h-9.136c-1.4 0-2.533 1.135-2.533 2.534V332.2c0 1.4 1.135 2.534 2.534 2.534h9.137c1.4 0 2.534-1.134 2.534-2.533zm26.753 0v-28.046c0-1.4-1.134-2.533-2.533-2.533h-9.137c-1.4 0-2.533 1.135-2.533 2.534V332.2c0 1.4 1.134 2.534 2.533 2.534h9.137c1.4 0 2.533-1.134 2.533-2.533zm26.754 0v-28.046c0-1.4-1.133-2.533-2.532-2.533h-9.137c-1.398 0-2.532 1.135-2.532 2.534V332.2c0 1.4 1.134 2.534 2.533 2.534h9.138c1.4 0 2.533-1.134 2.533-2.533zM75.23 238.734v-28.047c0-1.4-1.134-2.533-2.533-2.533h-9.137c-1.4 0-2.533 1.134-2.533 2.533v28.047c0 1.4 1.134 2.533 2.533 2.533h9.137c1.4 0 2.533-1.134 2.533-2.533zm26.753 0v-28.047c0-1.4-1.133-2.533-2.532-2.533H90.31c-1.398 0-2.532 1.134-2.532 2.533v28.047c0 1.4 1.134 2.533 2.533 2.533h9.138c1.4 0 2.533-1.134 2.533-2.533zm26.754 0v-28.047c0-1.4-1.134-2.533-2.533-2.533h-9.136c-1.4 0-2.533 1.134-2.533 2.533v28.047c0 1.4 1.135 2.533 2.534 2.533h9.137c1.4 0 2.534-1.134 2.534-2.533zm26.753 0v-28.047c0-1.4-1.134-2.533-2.533-2.533h-9.137c-1.4 0-2.533 1.134-2.533 2.533v28.047c0 1.4 1.134 2.533 2.533 2.533h9.137c1.4 0 2.533-1.134 2.533-2.533zm26.754 0v-28.047c0-1.4-1.133-2.533-2.532-2.533h-9.137c-1.398 0-2.532 1.134-2.532 2.533v28.047c0 1.4 1.134 2.533 2.533 2.533h9.138c1.4 0 2.533-1.134 2.533-2.533zM75.23 384.303v-28.046c0-1.4-1.134-2.533-2.533-2.533h-9.137c-1.4 0-2.533 1.134-2.533 2.533v28.047c0 1.4 1.134 2.533 2.533 2.533h9.137c1.4 0 2.533-1.134 2.533-2.533zm26.753 0v-28.046c0-1.4-1.133-2.533-2.532-2.533H90.31c-1.398 0-2.532 1.134-2.532 2.533v28.047c0 1.4 1.134 2.533 2.533 2.533h9.138c1.4 0 2.533-1.134 2.533-2.533zm26.754 0v-28.046c0-1.4-1.134-2.533-2.533-2.533h-9.136c-1.4 0-2.533 1.134-2.533 2.533v28.047c0 1.4 1.135 2.533 2.534 2.533h9.137c1.4 0 2.534-1.134 2.534-2.533zm26.753 0v-28.046c0-1.4-1.134-2.533-2.533-2.533h-9.137c-1.4 0-2.533 1.134-2.533 2.533v28.047c0 1.4 1.134 2.533 2.533 2.533h9.137c1.4 0 2.533-1.134 2.533-2.533zm26.754 0v-28.046c0-1.4-1.133-2.533-2.532-2.533h-9.137c-1.398 0-2.532 1.134-2.532 2.533v28.047c0 1.4 1.134 2.533 2.533 2.533h9.138c1.4 0 2.533-1.134 2.533-2.533zm234.368 59.35V415.54c0-3.42-2.772-6.19-6.19-6.19h-13.394c-3.42 0-6.19 2.77-6.19 6.19v28.113c0 3.42 2.77 6.19 6.19 6.19h13.393c3.42 0 6.19-2.77 6.19-6.19zm44.36 0V415.54c0-3.42-2.772-6.19-6.19-6.19h-13.394c-3.42 0-6.19 2.77-6.19 6.19v28.113c0 3.42 2.77 6.19 6.19 6.19h13.393c3.42 0 6.19-2.77 6.19-6.19zM47.285 68.86c-7.368 0-13.34 5.972-13.34 13.34s5.973 13.34 13.34 13.34 13.34-5.974 13.34-13.34-5.972-13.34-13.34-13.34zm181.32-28.723c-7.367 0-13.34 5.973-13.34 13.34s5.974 13.34 13.34 13.34 13.34-5.973 13.34-13.34-5.972-13.34-13.34-13.34zM460.97 176.304c-4.656 0-8.43 3.774-8.43 8.43s3.774 8.43 8.43 8.43 8.43-3.774 8.43-8.43-3.774-8.43-8.43-8.43zm-346.436-47.642c-3.795 0-6.872 3.077-6.872 6.872s3.077 6.872 6.872 6.872 6.872-3.077 6.872-6.872-3.077-6.872-6.872-6.872zM432.26 28.532c-9.61 0-18.44 3.307-25.435 8.833.804-.06 1.613-.1 2.43-.1 17.864 0 32.344 14.48 32.344 32.343s-14.482 32.343-32.344 32.343c-.82 0-1.628-.04-2.43-.1 6.995 5.527 15.825 8.835 25.433 8.835 22.685 0 41.076-18.39 41.076-41.077S454.946 28.53 432.26 28.53z"/></svg>