<?xml version="1.0" encoding="iso-8859-1"?>
<!-- Generator: Adobe Illustrator 18.1.0, SVG Export Plug-In . SVG Version: 6.00 Build 0)  -->
<!DOCTYPE svg PUBLIC "-//W3C//DTD SVG 1.1//EN" "http://www.w3.org/Graphics/SVG/1.1/DTD/svg11.dtd">
<svg version="1.1" xmlns="http://www.w3.org/2000/svg" xmlns:xlink="http://www.w3.org/1999/xlink" x="0px" y="0px"
	 viewBox="0 0 512 512" enable-background="new 0 0 512 512" xml:space="preserve">
<g id="Layer_2">
	<path fill="#2BA52E" d="M384.351,245.938c0-85.017-59.161-153.936-132.139-153.936s-132.139,68.92-132.139,153.936
		c0,77.979,49.774,127.605,114.328,135.288v38.235c-0.024-0.007-0.047-0.014-0.071-0.021c-0.904-0.277-1.792-0.431-2.695-0.651
		c-0.897-0.197-1.812-0.426-2.698-0.58c-1.784-0.35-3.596-0.654-5.371-0.87c-1.792-0.257-3.561-0.401-5.331-0.539
		c-1.768-0.127-3.506-0.238-5.246-0.285c-1.727-0.016-3.452-0.065-5.134-0.034c-3.389,0.061-6.668,0.243-9.828,0.544
		c-3.154,0.293-6.176,0.682-9.02,1.164c-2.843,0.462-5.512,0.999-7.959,1.567c-2.448,0.556-4.676,1.147-6.641,1.724
		c-1.968,0.565-3.663,1.121-5.07,1.609c-1.412,0.474-2.499,0.926-3.227,1.202c-0.735,0.305-1.127,0.467-1.127,0.467
		c-1.319,0.551-2.445,1.606-3.043,3.028c-1.21,2.876,0.141,6.188,3.017,7.398c0,0,0.391,0.165,1.124,0.473
		c0.74,0.276,1.806,0.74,3.134,1.239c2.676,1.027,6.497,2.387,10.987,3.888c2.247,0.748,4.661,1.553,7.19,2.355
		c1.264,0.415,2.551,0.841,3.868,1.24c1.307,0.434,2.643,0.863,3.987,1.282c2.683,0.887,5.438,1.723,8.152,2.664
		c2.734,0.871,5.43,1.838,8.055,2.76c2.609,0.976,5.137,1.926,7.487,2.88c2.323,0.98,4.536,1.905,6.373,2.867
		c0.987,0.432,1.784,0.908,2.6,1.341c0.426,0.208,0.725,0.428,1.091,0.628c0.341,0.204,0.73,0.392,0.974,0.595
		c0.275,0.199,0.565,0.362,0.848,0.53c0.267,0.167,0.425,0.331,0.648,0.479c0.507,0.29,0.648,0.512,0.989,0.698
		c0.374,0.339,0.667,0.401,0.727,0.313c0.033-0.024,0.083-0.053,0.147-0.082c0.018-0.025,0.015-0.049,0.061-0.083
		c0.038-0.032,0.09-0.065,0.152-0.096c0.038-0.021,0.044-0.026,0.092-0.043c0.065-0.019,0.212-0.068,0.288-0.044
		c0.054,0.032,0.129,0.06,0.204,0.086c0.175,0.06,0.268,0.093,0.268,0.093v29.539c0,9.836,7.974,17.811,17.811,17.811
		s17.81-7.975,17.81-17.811v-29.536c0-0.001,0-0.002,0-0.003c0,0,0.126-0.082,0.274-0.214c0.077-0.067,0.148-0.141,0.209-0.234
		c0.144-0.132,0.268-0.281,0.379-0.445c0.066-0.135,0.315-0.424,0.476-0.678c0.112-0.141,0.11-0.255,0.272-0.446
		c0.132-0.179,0.261-0.364,0.386-0.556c0.467-0.776,1.254-1.857,2.168-3.134c0.507-0.659,1.047-1.354,1.648-2.104
		c0.659-0.763,1.243-1.554,2.039-2.39c0.369-0.425,0.742-0.857,1.12-1.293c0.417-0.437,0.84-0.879,1.267-1.326
		c0.792-0.928,1.789-1.841,2.705-2.799c1.932-1.915,4.002-3.92,6.258-5.941c2.218-2.04,4.626-4.06,7.026-6.151
		c1.237-1.006,2.458-2.036,3.716-3.036c1.242-1.022,2.497-2.026,3.774-2.989c2.507-2.009,5.068-3.88,7.548-5.743
		c2.5-1.809,4.942-3.585,7.288-5.203c2.35-1.639,4.592-3.123,6.685-4.506c1.051-0.671,2.057-1.313,3.015-1.924
		c0.965-0.589,1.88-1.147,2.74-1.672c0.866-0.505,1.676-0.977,2.425-1.414c0.737-0.401,1.455-0.801,2.059-1.149
		c0.537-0.298,1.035-0.594,1.481-0.864c0.114-0.066,0.224-0.13,0.329-0.192c0.138-0.054,0.269-0.105,0.396-0.154
		c0.252-0.099,0.481-0.188,0.687-0.268c0.82-0.34,1.258-0.521,1.258-0.521l0.04-0.017c1.439-0.604,2.616-1.808,3.135-3.409
		c0.945-2.917-0.654-6.047-3.571-6.992c0,0-0.45-0.146-1.293-0.419c-0.211-0.063-0.446-0.134-0.705-0.212
		c-0.129-0.039-0.265-0.08-0.406-0.122c-0.172-0.032-0.351-0.065-0.538-0.1c-0.754-0.139-1.636-0.285-2.643-0.415
		c-1.838-0.239-4.033-0.442-6.53-0.495c-1.251-0.04-2.544,0.002-3.944,0.023c-1.369,0.049-2.81,0.143-4.31,0.261
		c-2.971,0.273-6.188,0.668-9.502,1.31c-0.833,0.158-1.677,0.318-2.532,0.48c-0.842,0.193-1.695,0.389-2.557,0.587
		c-1.74,0.38-3.47,0.857-5.245,1.349c-3.533,1-7.134,2.198-10.746,3.575c-3.607,1.382-7.217,2.974-10.778,4.723
		c-2.541,1.259-5.052,2.6-7.505,4.05v-26.855C334.576,373.544,384.351,323.918,384.351,245.938z"/>
</g>
<g id="Layer_3">
	<path fill="#D32A2A" d="M353.192,21.28c2.378-8.797-6.327-16.528-14.741-13.03c-14.773,6.141-35.013,15.415-57.003,27.964
		c-0.942-1.634-1.853-3.214-2.708-4.696c-1.081-1.789-2.092-3.463-3.028-5.01c-0.978-1.548-1.877-2.97-2.689-4.254
		c-1.668-2.568-3.042-4.586-4.009-5.962c-0.996-1.376-1.527-2.11-1.527-2.11c-1.136-1.555-2.576-3.03-4.22-4.22
		c-8.437-6.106-20.225-4.216-26.331,4.22c0,0-0.531,0.734-1.527,2.11c-0.967,1.376-2.341,3.394-4.009,5.962
		c-0.812,1.284-1.71,2.706-2.689,4.254c-0.935,1.548-1.947,3.222-3.028,5.01c-1.031,1.789-2.129,3.692-3.285,5.698
		c-1.098,2.006-2.252,4.116-3.456,6.317c-2.31,4.403-4.804,9.172-7.221,14.217c-2.44,5.045-4.868,10.365-7.232,15.868
		c-2.365,5.503-4.705,11.19-6.898,16.969c-1.797,4.71-3.541,9.482-5.19,14.264c-10.713,11.583-20.492,24.173-28.786,37.78
		c-17.443,22.974-27.801,51.621-27.801,82.691c0,3.992,0.181,7.864,0.516,11.629c0,0.063-0.003,0.125-0.003,0.188l0.02-0.001
		c6.099,67.417,64.811,98.639,136.352,98.639c75.599,0,136.885-34.856,136.885-110.456
		C409.585,109.801,337.088,80.852,353.192,21.28z"/>
</g>
<g id="Layer_4">
	<path fill="#FF473E" d="M375.668,236.958c0.335-3.768,0.516-7.641,0.516-11.635c0-31.083-10.367-59.742-27.823-82.72
		C303.776,69.48,216.055,25.92,173.55,8.25c-8.415-3.498-17.12,4.233-14.741,13.03c16.104,59.572-56.393,88.521-56.393,204.043
		c0,75.599,61.285,110.456,136.885,110.456c71.541,0,130.253-31.221,136.352-98.639l0.02,0.001
		C375.671,237.079,375.668,237.019,375.668,236.958z"/>
</g>
</svg>
