<?xml version="1.0" encoding="iso-8859-1"?>
<!-- Generator: Adobe Illustrator 18.1.1, SVG Export Plug-In . SVG Version: 6.00 Build 0)  -->
<!DOCTYPE svg PUBLIC "-//W3C//DTD SVG 1.1//EN" "http://www.w3.org/Graphics/SVG/1.1/DTD/svg11.dtd">
<svg version="1.1" xmlns="http://www.w3.org/2000/svg" xmlns:xlink="http://www.w3.org/1999/xlink" x="0px" y="0px"
	 viewBox="0 0 512 512" enable-background="new 0 0 512 512" xml:space="preserve">
<g id="Layer_2">
	<path fill="#F4E3C1" d="M385.148,259.903c-1.26,0.796-2.548,1.511-3.858,2.148l-0.055,0.023c0,0-0.949,0.459-2.729,1.318
		c-0.893,0.422-1.993,0.941-3.288,1.553c-0.324,0.15-0.66,0.305-1.007,0.466c-0.34,0.139-0.691,0.283-1.053,0.431
		c-0.726,0.294-1.497,0.606-2.312,0.936c-3.293,1.383-7.159,2.691-11.577,4.095c-2.171,0.62-4.5,1.307-6.922,1.946
		c-2.387,0.566-4.921,1.203-7.518,1.759c-2.567,0.494-5.283,1.088-8.014,1.528c-2.724,0.426-5.579,0.944-8.421,1.276
		c-1.43,0.183-2.879,0.369-4.346,0.557c-1.462,0.177-2.919,0.304-4.403,0.458c-2.975,0.325-5.964,0.54-9.003,0.758
		c-3.049,0.244-6.084,0.337-9.188,0.509c-3.07,0.089-6.189,0.214-9.295,0.244c-6.222,0.09-12.482,0.034-18.69-0.152
		c-24.838-0.726-48.892-3.484-66.944-6.211c-4.517-0.696-8.652-1.36-12.341-2.011c-3.684-0.637-6.914-1.246-9.612-1.778
		c-2.575-0.505-5.258-1.052-6.434-1.323c-1.317-0.296-2.019-0.454-2.019-0.454c-16.229-3.652-26.424-19.769-22.772-35.998
		c2.209-9.816,8.981-17.418,17.577-21.091c-1.374-3.446-2.138-7.202-2.138-11.138c0-13.852,9.362-25.51,22.102-29.012
		c-2.725-4.527-4.295-9.828-4.295-15.496c0-16.62,13.473-30.093,30.093-30.093c0.222,0,0.646-0.002,1.236-0.012
		c-0.705-1.327-1.312-2.714-1.815-4.15c-1.189-1.603-2.222-3.359-3.052-5.267c-5.886-13.523,0.305-29.257,13.828-35.144
		c1.422-0.619,3.014-1.135,4.471-1.492c0,0,2.023-0.482,5.562-1.325c0.748-0.186,1.547-0.355,2.481-0.601
		c0.953-0.263,1.985-0.547,3.086-0.851c1.082-0.332,2.233-0.685,3.446-1.057c1.176-0.411,2.461-0.807,3.733-1.282
		c2.605-0.887,5.307-1.979,8.09-3.225c2.778-1.25,5.561-2.714,8.248-4.384c2.68-1.68,5.294-3.518,7.633-5.603
		c1.206-1.027,2.265-2.136,3.336-3.265c1.004-1.149,1.993-2.332,2.843-3.571c1.725-2.473,3.056-5.131,3.953-7.899
		c0.887-2.756,1.395-5.643,1.339-8.463c-0.046-2.811-0.548-5.577-1.481-7.984c-0.887-2.428-2.118-4.584-3.545-6.186
		c-0.708-0.809-1.449-1.509-2.202-2.088c-0.756-0.563-1.517-1.006-2.264-1.398c-1.498-0.706-2.976-1.039-4.27-1.091
		c-1.293-0.054-2.381,0.149-3.143,0.268c-0.761,0.192-1.167,0.295-1.167,0.295l-0.232,0.059c-2.778,0.702-5.6-0.981-6.302-3.76
		c-0.486-1.922,0.176-3.869,1.547-5.116c0,0,0.528-0.478,1.517-1.375c1.059-0.838,2.673-2.111,5.186-3.209
		c2.487-1.13,5.899-1.996,9.972-2.007c4.054,0.013,8.639,1.085,13.063,3.237c4.424,2.18,8.606,5.458,12.251,9.59
		c3.579,4.174,6.572,9.211,8.652,14.874c2.026,5.669,3.11,11.925,3.141,18.322c-0.018,1.972-0.147,3.952-0.359,5.926
		c6.133,1.103,11.978,4.11,16.574,8.998c6.287,6.685,8.916,15.485,7.979,23.943c4.787,1.491,9.269,4.193,12.949,8.106
		c9.691,10.306,10.704,25.634,3.326,36.991c5.746,1.246,11.187,4.18,15.519,8.786c11.386,12.107,10.801,31.152-1.307,42.538
		c-0.827,0.778-1.676,1.518-2.518,2.27c11.648,1.152,22.664,7.46,29.399,18.123C408.988,224.026,403.506,248.308,385.148,259.903z"
		/>
</g>
<g id="Layer_1">
</g>
</svg>
