<?xml version="1.0" encoding="iso-8859-1"?>
<!-- Generator: Adobe Illustrator 18.1.0, SVG Export Plug-In . SVG Version: 6.00 Build 0)  -->
<!DOCTYPE svg PUBLIC "-//W3C//DTD SVG 1.1//EN" "http://www.w3.org/Graphics/SVG/1.1/DTD/svg11.dtd">
<svg version="1.1" xmlns="http://www.w3.org/2000/svg" xmlns:xlink="http://www.w3.org/1999/xlink" x="0px" y="0px"
	 viewBox="0 0 512 512" enable-background="new 0 0 512 512" xml:space="preserve">
<g id="Layer_2">
	<path fill="#FFA9BA" d="M475.539,198.425c-2.007-5.904,2.156-13.382,10.772-21.137c3.44-3.096,3.889-8.305,1.173-12.052
		c-23.598-32.546-65.977-48.31-106.704-36.215c-5.602,1.664-10.942,3.786-15.991,6.314c-6.649,3.328-14.239-2.335-12.947-9.657
		c0.977-5.538,1.487-11.237,1.487-17.055c0-44.619-29.975-82.231-70.885-93.811c-4.513-1.278-9.22,1.134-10.923,5.505
		c-4.717,12.101-10.84,19.411-17.533,19.411c-6.551,0-12.555-7.003-17.229-18.646c-1.759-4.38-6.669-6.634-11.157-5.172
		c-39.044,12.724-67.261,49.421-67.261,92.712c0,5.798,0.506,11.479,1.477,16.999c1.287,7.316-6.293,12.972-12.94,9.655
		c-5.015-2.502-10.316-4.605-15.875-6.256c-44.043-13.08-90.014,6.42-112.081,44.489c-2.354,4.061-1.204,9.225,2.614,11.957
		c10.812,7.738,16.524,15.646,14.802,22.215c-1.668,6.362-10.023,10.403-22.554,11.961c-4.744,0.59-8.148,4.863-7.814,9.632
		c2.756,39.384,29.443,74.763,69.52,86.665c4.801,1.426,9.625,2.464,14.438,3.133c7.222,1.004,10.349,9.68,5.427,15.06
		c-3.28,3.586-6.333,7.462-9.121,11.623c-26.054,38.88-20.417,89.715,10.876,122.033c2.702,2.791,6.921,3.594,10.425,1.916
		c6.878-3.293,12.693-3.915,16.675-1.261c3.835,2.556,5.515,7.852,5.283,15.043c-0.126,3.906,2.315,7.475,6.009,8.749
		c40.818,14.073,87.547-0.377,112.714-37.935c0.03-0.044,0.059-0.089,0.089-0.133c3.635-5.444,11.535-5.444,15.17,0
		c0.03,0.044,0.059,0.089,0.089,0.133c27.591,41.174,81.096,54.579,124.316,33.073c3.576-1.779,5.512-5.718,4.853-9.657
		c-1.456-8.698-0.316-15.255,3.848-18.455c3.829-2.943,9.743-2.684,16.913,0.211c3.832,1.547,8.269,0.265,10.656-3.109
		c22.675-32.05,24.554-76.051,1.397-110.607c-2.788-4.161-5.841-8.037-9.121-11.623c-4.922-5.38-1.796-14.056,5.427-15.06
		c4.813-0.669,9.637-1.707,14.438-3.133c44.103-13.098,71.995-54.626,69.618-98.637c-0.247-4.573-3.816-8.327-8.384-8.646
		C485.661,207.827,477.579,204.424,475.539,198.425z M255.949,267.798c0,0-0.022,0.113-0.057,0.294
		c-0.035-0.181-0.057-0.294-0.057-0.294s0.128-0.141,0.354-0.392C256.033,267.66,255.949,267.798,255.949,267.798z"/>
</g>
<g id="Layer_3">
	<path fill="#E6A4FF" d="M345.186,368.042c-3.032,0-6.065-1.148-8.392-3.447l-89.351-88.306c-4.689-4.635-4.734-12.193-0.1-16.883
		c4.635-4.69,12.193-4.733,16.883-0.1l89.351,88.306c4.689,4.635,4.734,12.193,0.1,16.883
		C351.342,366.858,348.264,368.042,345.186,368.042z"/>
</g>
<g id="Layer_4">
	<path fill="#FF6E83" d="M351.021,238.828c-4.531-16.939-21.934-26.999-38.874-22.468l-24.598,6.579v-25.463
		c0-17.534-14.215-31.749-31.749-31.749c-17.534,0-31.749,14.215-31.749,31.749v25.656l-24.814-6.517
		c-16.957-4.452-34.318,5.684-38.772,22.644c-4.454,16.959,5.684,34.318,22.643,38.772l20.995,5.514l-14.293,20.843
		c-9.917,14.461-6.233,34.223,8.229,44.139c5.488,3.764,11.74,5.568,17.927,5.568c10.116,0,20.059-4.824,26.212-13.797
		l13.032-19.005l12.636,19.27c6.096,9.296,16.235,14.342,26.579,14.342c5.972,0,12.013-1.683,17.38-5.203
		c14.663-9.615,18.755-29.297,9.14-43.96l-14.51-22.127l22.117-5.915C345.493,273.172,355.552,255.767,351.021,238.828z"/>
</g>
<g id="Layer_5">
	<circle fill="#FFD469" cx="255.835" cy="267.798" r="30.165"/>
</g>
<g id="Layer_6">
	<path fill="#FFEED4" d="M367.149,291.758l-107.558-25.862l18.068-82.27c0.355-1.618-0.668-3.218-2.286-3.574
		c-1.62-0.358-3.219,0.668-3.573,2.287l-17.254,78.562l-61.095-87.885c-0.946-1.36-2.815-1.697-4.176-0.751
		s-1.697,2.815-0.751,4.176l62.815,90.358L175.96,307.08c-1.461,0.78-2.013,2.598-1.232,4.06c0.541,1.011,1.577,1.587,2.648,1.587
		c0.477,0,0.961-0.114,1.412-0.355l77.092-41.197l109.867,26.417c0.235,0.057,0.472,0.084,0.704,0.084
		c1.354,0,2.583-0.925,2.914-2.3C369.753,293.766,368.761,292.146,367.149,291.758z"/>
</g>
<g id="Layer_7">
	<path fill="#FF473E" d="M208.987,174.728c0,9.941-8.059,18-18,18s-18-8.059-18-18c0-9.941,8.059-18,18-18
		S208.987,164.787,208.987,174.728z M378.416,308.12c7.425-6.61,8.087-17.987,1.477-25.413c-6.61-7.425-17.988-8.087-25.413-1.477
		c-7.425,6.61-8.087,17.987-1.477,25.413C359.613,314.068,370.99,314.73,378.416,308.12z M288.191,171.033
		c-6.599-7.435-17.976-8.112-25.411-1.513c-7.435,6.599-8.112,17.976-1.513,25.411c6.599,7.435,17.976,8.112,25.411,1.513
		C294.113,189.845,294.79,178.468,288.191,171.033z M159.569,307.084c-1.459,9.833,5.33,18.988,15.163,20.447
		c9.833,1.459,18.988-5.329,20.447-15.163c1.459-9.833-5.33-18.988-15.163-20.447S161.028,297.25,159.569,307.084z"/>
</g>
</svg>
