<?xml version="1.0" encoding="iso-8859-1"?>
<!-- Generator: Adobe Illustrator 19.1.0, SVG Export Plug-In . SVG Version: 6.00 Build 0)  -->
<!DOCTYPE svg PUBLIC "-//W3C//DTD SVG 1.1//EN" "http://www.w3.org/Graphics/SVG/1.1/DTD/svg11.dtd">
<svg version="1.1" xmlns="http://www.w3.org/2000/svg" xmlns:xlink="http://www.w3.org/1999/xlink" x="0px" y="0px"
	 viewBox="0 0 512 512" enable-background="new 0 0 512 512" xml:space="preserve">
<g id="Layer_4">
	<path fill="#00A4DD" d="M203.007,398.587c3.844,15.023,24.638,41.194,51.891,60.406c8.318,5.864,3.618,18.872-6.529,18.084
		c-9.301-0.722-20.584-2.991-33.667-8.098c-6.061-2.366-12.89,1.661-13.469,8.141c-0.276,3.091,0.083,7.052,1.535,12.121
		c2.15,7.504-5.013,14.499-12.46,12.158c-17.755-5.583-40.212-24.139-26.607-84.29 M132.34,347.936
		c-19.011-5.201-38.92,7.019-44.468,27.295c-5.547,20.276,9.905,60.455,17.895,36.336c3.869-11.68,3.949-8.185,22.921-28.037
		C143.212,368.333,151.351,353.137,132.34,347.936z M221.767,396.644c0,0,33.345,7.67,50.093-7.471s23.776-39.243,5.809-80.419
		c-10.797-24.744-26.809-47.055-59.79-61.629"/>
</g>
<g id="Layer_1">
</g>
</svg>
