<?xml version="1.0" encoding="iso-8859-1"?>
<!-- Generator: Adobe Illustrator 19.1.0, SVG Export Plug-In . SVG Version: 6.00 Build 0)  -->
<!DOCTYPE svg PUBLIC "-//W3C//DTD SVG 1.1//EN" "http://www.w3.org/Graphics/SVG/1.1/DTD/svg11.dtd">
<svg version="1.1" xmlns="http://www.w3.org/2000/svg" xmlns:xlink="http://www.w3.org/1999/xlink" x="0px" y="0px"
	 viewBox="0 0 509.04 509.04" enable-background="new 0 0 509.04 509.04" xml:space="preserve">
<g id="Layer_2">
	<path fill="#8E7B70" d="M489.473,265.035c0,3.634-2.946,6.58-6.58,6.58H407.81c-3.634,0-6.58-2.946-6.58-6.58v-56.913
		c0-3.634,2.946-6.58,6.58-6.58h75.083c3.634,0,6.58,2.946,6.58,6.58V265.035z"/>
</g>
<g id="Layer_3">
	<path fill="#597B91" d="M454.628,243.598c0,2.199-1.783,3.981-3.981,3.981h-45.435c-2.199,0-3.981-1.783-3.981-3.981v-45.435
		c0-2.199,1.783-3.981,3.981-3.981h45.435c2.199,0,3.981,1.783,3.981,3.981V243.598z"/>
</g>
<g id="Layer_4">
	<path fill="#2B3B47" d="M120.808,292.834c-0.253,0-0.507-0.097-0.701-0.29c-0.387-0.387-0.387-1.014,0-1.4l47.23-47.231
		c0.388-0.387,1.014-0.387,1.401,0c0.387,0.387,0.387,1.014,0,1.401l-47.23,47.23C121.315,292.738,121.062,292.834,120.808,292.834z
		"/>
</g>
<g id="Layer_5">
	<path fill="#2B3B47" d="M177.82,269.219h-66.794c-0.547,0-0.991-0.443-0.991-0.99s0.444-0.99,0.991-0.99h66.794
		c0.547,0,0.991,0.443,0.991,0.99S178.367,269.219,177.82,269.219z"/>
</g>
<g id="Layer_6">
	<path fill="#2B3B47" d="M144.424,225.556c-23.53,0-42.673,19.143-42.673,42.673c0,23.53,19.143,42.673,42.673,42.673
		s42.673-19.143,42.673-42.673C187.096,244.699,167.953,225.556,144.424,225.556z M166.522,268.229
		c0,5.746-2.194,10.979-5.789,14.909l-15.319-15.319v-21.663C157.159,246.674,166.522,256.357,166.522,268.229z M145.414,270.621
		l13.918,13.918c-3.703,3.387-8.563,5.527-13.918,5.764V270.621z M143.433,265.837l-13.918-13.918
		c3.703-3.387,8.563-5.527,13.918-5.764V265.837z M122.325,268.229c0-5.746,2.194-10.978,5.789-14.909l15.319,15.319v21.663
		C131.688,289.784,122.325,280.101,122.325,268.229z"/>
</g>
<g id="Layer_7">
	<circle fill="#FF473E" cx="144.423" cy="268.229" r="8.1"/>
</g>
<g id="Layer_8">
	<path fill="#597B91" d="M424.498,260.8H256.291l-8.161,33.859c0,0,9.3,8.148,55.822,8.148s120.547,0,120.547,0V260.8z"/>
</g>
<g id="Layer_9">
	<path fill="#BFBCAF" d="M504.572,193.639h-30.377v-4.152c0-2.425-1.966-4.39-4.39-4.39h-44.617c-2.425,0-4.39,1.966-4.39,4.39v8.62
		v15.392c-57.288-28.648-139.521-34.171-139.521-26.037c0,10.759,10.058,29.087-2.407,40.685h-54.703
		c-8.852,0-16.457,4.995-20.398,12.268c-13.714,0.684-32.421,1.072-58.681,1.072c-79.431,0-121.416,28.532-121.416,28.532v9.567
		H8.293c-1.143,0-2.069,0.926-2.069,2.069v13.929c0,1.143,0.926,2.069,2.069,2.069h30.284c1.143,0,2.069-0.927,2.069-2.069V280.7
		h1.181c0,0,100.99,0,140.706,0c39.715,0,53.332,17.851,100.99,17.851c2.804,0,40.199-0.867,50.495-2.722
		c22.03-3.972,10.024-16.516,65.821-16.516l21.613,0.399c0.783,1.295,2.19,2.169,3.813,2.169h79.306
		c2.468,0,4.468-2.001,4.468-4.468v-79.306C509.04,195.639,507.039,193.639,504.572,193.639z"/>
</g>
<g id="Layer_10">
	<path fill="#FFFFFF" d="M125.616,281.881c0,18.445-14.952,33.397-33.397,33.397s-33.397-14.952-33.397-33.397
		c0-18.445,14.952-33.397,33.397-33.397S125.616,263.437,125.616,281.881z M420.797,244.774c-20.494,0-37.108,16.614-37.108,37.108
		c0,20.494,16.614,37.108,37.108,37.108c20.494,0,37.108-16.614,37.108-37.108C457.905,261.387,441.291,244.774,420.797,244.774z"/>
</g>
<g id="Layer_11">
	<path fill="#597B91" d="M70.018,306.911l-2.828-2.828l47.231-47.23l2.828,2.828L70.018,306.911z M125.616,279.881H58.822v4h66.794
		V279.881z"/>
</g>
<g id="Layer_12">
	<path fill="#FF473E" d="M228.561,228.147h-4.394c-8.384,0-15.645,4.485-19.738,11.138c-5.447-0.063-13.173-0.152-22.43-0.26
		c-9.358-0.006-20.276-0.013-31.974-0.02c-11.708,0.18-24.208,0.398-36.742,1.28c-6.274,0.47-12.531,1.084-18.66,1.905
		c-6.078,0.809-12.06,1.605-17.85,2.376c-5.756,0.664-11.446,1.64-16.893,2.499c-5.389,1.033-10.454,2.369-15.064,3.774
		c-4.579,1.559-8.779,3.012-12.348,4.767c-3.662,1.505-6.633,3.389-9.165,4.742c-4.87,2.999-7.773,5.551-7.594,5.41
		c-1.858,1.683,4.236,8.411,6.094,6.728c0.164-0.148,1.879-1.829,6.17-4.77c2.229-1.292,4.794-3.106,8.115-4.621
		c3.19-1.746,7.036-3.246,11.245-4.882c4.254-1.487,8.969-2.944,14.035-4.135c5.099-1.008,10.497-2.208,16.333-3.047
		c5.767-0.954,11.727-1.941,17.783-2.943c6.007-1,12.132-1.797,18.273-2.453c12.305-1.259,24.727-1.872,36.376-2.42
		c11.668-0.363,22.559-0.701,31.893-0.991c9.516-0.192,17.41-0.35,22.873-0.46l55.157,55.157c6.903,1.008,14.592,1.629,23.468,1.629
		c1.077,0,7.266-0.129,15.049-0.391L228.561,228.147z"/>
</g>
<g id="Layer_13">
	<path fill="#597B91" d="M94.219,315.278h-4v-66.793h4V315.278z M117.249,304.082l-47.231-47.23l-2.828,2.828l47.231,47.23
		L117.249,304.082z"/>
</g>
<g id="Layer_14">
	<path fill="#2B3B47" d="M92.219,259.783c12.205,0,22.099,9.894,22.099,22.099c0,12.205-9.894,22.099-22.099,22.099
		s-22.099-9.894-22.099-22.099C70.12,269.677,80.014,259.783,92.219,259.783 M92.219,239.209c-23.53,0-42.673,19.143-42.673,42.673
		c0,23.53,19.143,42.673,42.673,42.673s42.673-19.143,42.673-42.673C134.892,258.352,115.749,239.209,92.219,239.209L92.219,239.209
		z"/>
</g>
<g id="Layer_15">
	<path fill="#597B91" d="M422.797,318.989h-4v-74.215h4V318.989z M448.451,257.056l-2.828-2.828l-52.479,52.479l2.828,2.828
		L448.451,257.056z"/>
</g>
<g id="Layer_16">
	<path fill="#597B91" d="M457.905,283.881H383.69v-4h74.215V283.881z M448.451,306.707l-52.479-52.479l-2.828,2.828l52.479,52.479
		L448.451,306.707z"/>
</g>
<g id="Layer_17">
	<path fill="#2B3B47" d="M420.797,257.327c13.561,0,24.554,10.993,24.554,24.554c0,13.561-10.993,24.554-24.554,24.554
		c-13.561,0-24.554-10.993-24.554-24.554C396.243,268.32,407.237,257.327,420.797,257.327 M420.797,234.467
		c-26.144,0-47.414,21.27-47.414,47.414s21.27,47.414,47.414,47.414s47.414-21.27,47.414-47.414S446.942,234.467,420.797,234.467
		L420.797,234.467z"/>
</g>
<g id="Layer_18">
	<path fill="#FF473E" d="M100.319,281.881c0,4.473-3.626,8.1-8.1,8.1s-8.1-3.626-8.1-8.1c0-4.473,3.626-8.1,8.1-8.1
		S100.319,277.408,100.319,281.881z M420.797,272.882c-4.97,0-9,4.029-9,9c0,4.97,4.029,9,9,9c4.97,0,9-4.029,9-9
		C429.797,276.911,425.768,272.882,420.797,272.882z"/>
</g>
<g id="Layer_19">
	<path fill="#597B91" d="M420.799,214.439c-15.236,0-30.101,5.209-41.985,14.67c-1.419-0.301-2.939-0.562-4.537-0.891
		c-2.635-0.497-5.509-1.111-8.534-1.512c-3.006-0.19-6.177-0.391-9.456-0.598c-3.176-0.226-6.808-0.464-10.236-0.36
		c-3.451,0.014-6.956,0.028-10.461,0.042c-14.021,0.114-28.043-0.04-38.559,0.368c-10.516,0.355-17.527,1.114-17.527,1.114
		c-0.102,0.011-0.186,0.091-0.197,0.197c-0.013,0.122,0.075,0.232,0.197,0.245c0,0,7.011,0.759,17.527,1.114
		c10.516,0.409,24.537,0.254,38.559,0.368c3.505,0.014,7.011,0.028,10.461,0.042c3.479-0.075,6.623,0.174,10.003,0.433
		c3.278,0.234,6.447,0.46,9.452,0.674c2.905,0.5,5.651,0.972,8.186,1.408c2.529,0.463,4.875,0.722,6.902,1.337
		c2.041,0.524,3.82,0.981,5.285,1.357c2.927,0.761,4.508,1.356,4.508,1.356c0.805,0.303,1.711-0.091,2.034-0.894
		c0.327-0.814-0.067-1.739-0.881-2.066l-0.035-0.014c0,0-1.694-0.681-4.685-1.534c-1.18-0.333-2.567-0.723-4.12-1.161
		c10.98-8.091,24.382-12.52,38.101-12.52c35.432,0,64.261,28.829,64.261,64.264h3.182
		C488.241,244.691,457.983,214.439,420.799,214.439z"/>
</g>
<g id="Layer_20">
	<path fill="#FF473E" d="M322.025,297.046c5.062-0.344,9.395-0.749,11.995-1.218c8.773-1.581,12.168-4.523,16.577-7.49
		l-67.021-67.021c-0.974,2.437-2.465,4.744-4.706,6.829h-25.745"/>
</g>
<g id="Layer_21">
	<path fill="#597B91" d="M39.646,301.241H4.412c-1.982,0-3.589-1.606-3.589-3.589s1.607-3.589,3.589-3.589h35.234
		c1.982,0,3.589,1.606,3.589,3.589S41.628,301.241,39.646,301.241z"/>
</g>
</svg>
