<?xml version="1.0" encoding="iso-8859-1"?>
<!-- Generator: Adobe Illustrator 19.1.0, SVG Export Plug-In . SVG Version: 6.00 Build 0)  -->
<!DOCTYPE svg PUBLIC "-//W3C//DTD SVG 1.1//EN" "http://www.w3.org/Graphics/SVG/1.1/DTD/svg11.dtd">
<svg version="1.1" xmlns="http://www.w3.org/2000/svg" xmlns:xlink="http://www.w3.org/1999/xlink" x="0px" y="0px"
	 viewBox="0 0 512 512" enable-background="new 0 0 512 512" xml:space="preserve">
<g id="Layer_7">
	<path fill="#D8D8D8" d="M507.204,371.797c-0.006-0.092,0.099-0.185,0.081-0.276c-0.016-0.08,0.01-0.155-0.014-0.232
		c-0.018-0.058-0.003-0.117-0.027-0.174c-0.034-0.083-0.067-0.159-0.111-0.236c-0.026-0.046-0.039-0.094-0.068-0.138
		c-0.159-0.238-0.36-0.443-0.598-0.602c-0.055-0.037-0.113-0.062-0.17-0.093c-0.067-0.036-0.13-0.077-0.2-0.106
		c-0.073-0.03-0.148-0.048-0.224-0.07c-0.061-0.018-0.118,0.072-0.181,0.06c-0.14-0.028-0.282,0.07-0.425,0.07H461.07
		c-0.142,0-0.285-0.098-0.425-0.07c-0.063,0.012-0.12-0.021-0.181-0.003c-0.075,0.022-0.151,0.011-0.224,0.041
		c-0.071,0.029-0.135,0.055-0.201,0.092c-0.057,0.031-0.117,0.049-0.172,0.086c-0.238,0.159-0.443,0.361-0.602,0.599
		c-0.029,0.044-0.049,0.09-0.075,0.136c-0.044,0.077-0.09,0.152-0.124,0.236c-0.023,0.057-0.036,0.115-0.054,0.174
		c-0.024,0.077-0.053,0.151-0.069,0.232c-0.018,0.091,0.028,0.184,0.021,0.276c-0.003,0.049,0.035,0.095,0.035,0.145V414h-42.128
		c-0.142,0-0.285,0.001-0.425,0.029c-0.063,0.012-0.12,0.029-0.181,0.047c-0.075,0.022-0.151,0.036-0.224,0.066
		c-0.071,0.029-0.135,0.068-0.201,0.104c-0.057,0.031-0.117,0.056-0.172,0.092c-0.238,0.159-0.443,0.364-0.602,0.602
		c-0.029,0.044-0.049,0.092-0.075,0.138c-0.044,0.077-0.09,0.153-0.124,0.236c-0.023,0.057-0.036,0.116-0.054,0.174
		c-0.024,0.077-0.053,0.152-0.069,0.232c-0.018,0.091,0.127,0.184,0.121,0.276c-0.003,0.049,0.134,0.095,0.134,0.145V458h-42.326
		c-0.142,0-0.285,0.099-0.425,0.127c-0.063,0.012-0.12,0.078-0.181,0.096c-0.075,0.022-0.151,0.061-0.224,0.091
		c-0.071,0.029-0.135,0.08-0.201,0.117c-0.057,0.031-0.117,0.062-0.172,0.098c-0.238,0.159-0.443,0.367-0.602,0.605
		c-0.029,0.044-0.049,0.093-0.075,0.139c-0.044,0.077-0.09,0.154-0.124,0.237c-0.023,0.057-0.036,0.116-0.054,0.174
		c-0.024,0.077-0.053,0.152-0.069,0.232c-0.018,0.091,0.226,0.184,0.22,0.276c-0.003,0.049,0.233,0.095,0.233,0.145v44.198
		c0,0.05-0.236,0.096-0.233,0.145c0.006,0.092-0.114,0.185-0.096,0.276c0.016,0.081-0.017,0.156,0.007,0.233
		c0.018,0.058,0,0.117,0.023,0.173c0.034,0.083,0.065,0.159,0.109,0.237c0.026,0.045,0.037,0.093,0.067,0.137
		c0.159,0.238,0.36,0.443,0.598,0.603c0.054,0.036,0.11,0.06,0.166,0.091c0.068,0.037,0.132,0.078,0.204,0.108
		c0.072,0.03,0.146,0.047,0.219,0.068c0.062,0.018,0.121,0.19,0.185,0.202c0.14,0.028,0.282,0.19,0.424,0.19h44.198h44.198h44.197
		c0.142,0,0.284-0.162,0.424-0.19c0.064-0.013,0.123-0.11,0.185-0.129c0.074-0.022,0.148-0.076,0.22-0.105
		c0.072-0.03,0.137-0.089,0.205-0.127c0.056-0.031,0.114-0.064,0.168-0.1c0.238-0.159,0.443-0.369,0.602-0.607
		c0.029-0.044,0.049-0.094,0.074-0.139c0.044-0.078,0.09-0.155,0.125-0.238c0.023-0.056,0.035-0.116,0.054-0.174
		c0.024-0.077,0.053-0.152,0.069-0.233c0.018-0.091-0.197-0.184-0.19-0.276c0.003-0.049-0.204-0.095-0.204-0.145v-44.198v-44.197
		v-44.198C507,371.893,507.207,371.846,507.204,371.797z M375,465.573l16.864,16.864L375,499.301V465.573z M442.136,482.437
		L459,465.573v33.728L442.136,482.437z M398.136,482.437L415,465.573v33.728L398.136,482.437z M463,455.103v-33.727l16.863,16.863
		L463,455.103z M483.169,441.137L500.032,458h-33.727L483.169,441.137z M466.306,418h33.727l-16.863,16.863L466.306,418z
		 M466.306,414l16.863-16.864L500.032,414H466.306z M459,455.103l-16.864-16.863L459,421.376V455.103z M455.835,458h-33.727
		l16.864-16.863L455.835,458z M435.864,482.437L419,499.301v-33.728L435.864,482.437z M422.107,463h33.728l-16.864,16.864
		L422.107,463z M479.863,482.437L463,499.301v-33.727L479.863,482.437z M466.306,463h33.727l-16.863,16.864L466.306,463z
		 M486.137,438.239L503,421.376v33.727L486.137,438.239z M486.137,394.042L503,377.178v33.727L486.137,394.042z M483.169,390.864
		L466.306,374h33.727L483.169,390.864z M479.863,394.042L463,410.905v-33.727L479.863,394.042z M438.971,434.863L422.107,418h33.727
		L438.971,434.863z M435.864,438.239L419,455.103v-33.727L435.864,438.239z M394.773,479.864L377.909,463h33.728L394.773,479.864z
		 M394.773,485.136L411.637,502h-33.728L394.773,485.136z M438.971,485.136L455.835,502h-33.728L438.971,485.136z M483.169,485.136
		L500.032,502h-33.727L483.169,485.136z M486.137,482.437L503,465.573v33.727L486.137,482.437z"/>
</g>
<g id="Layer_1">
</g>
</svg>
