<?xml version="1.0" encoding="iso-8859-1"?>
<!-- Generator: Adobe Illustrator 18.1.1, SVG Export Plug-In . SVG Version: 6.00 Build 0)  -->
<!DOCTYPE svg PUBLIC "-//W3C//DTD SVG 1.1//EN" "http://www.w3.org/Graphics/SVG/1.1/DTD/svg11.dtd">
<svg version="1.1" xmlns="http://www.w3.org/2000/svg" xmlns:xlink="http://www.w3.org/1999/xlink" x="0px" y="0px"
	 viewBox="0 0 512 512" enable-background="new 0 0 512 512" xml:space="preserve">
<g id="Layer_7">
	<path fill="#FF473E" d="M320.68,281.5c-1.64,2.188-4.63,2.769-6.947,1.451l-0.433-0.246c0,0-0.888-0.504-2.442-1.385
		c-0.799-0.413-1.811-0.868-2.936-1.418c-1.177-0.476-2.493-1.037-3.969-1.55c-1.496-0.476-3.088-1.037-4.844-1.422
		c-1.719-0.494-3.596-0.754-5.496-1.115c-0.962-0.105-1.94-0.213-2.929-0.321c-0.983-0.14-1.987-0.159-2.993-0.185
		c-0.502-0.017-1.006-0.034-1.511-0.051l-0.757-0.027l-0.758,0.038c-1.006,0.045-2.016,0.09-3.026,0.135
		c-1.004,0.077-1.996,0.25-2.983,0.362l-1.474,0.186c-0.481,0.107-0.96,0.214-1.438,0.321c-0.951,0.219-1.899,0.394-2.819,0.627
		c-0.902,0.287-1.794,0.571-2.67,0.85c-0.436,0.141-0.872,0.262-1.295,0.411c-0.413,0.178-0.822,0.354-1.226,0.528
		c-0.806,0.34-1.594,0.672-2.362,0.996c-1.494,0.738-2.849,1.546-4.126,2.205c-1.114,0.751-2.065,1.436-2.949,2.007
		c-0.22,0.144-0.432,0.283-0.637,0.417c-0.256,0.209-0.502,0.41-0.739,0.603c-0.474,0.386-0.909,0.742-1.302,1.062
		c-1.572,1.283-2.471,2.016-2.471,2.016c-4.288,3.498-10.6,2.858-14.098-1.43c-3.498-4.288-2.858-10.6,1.43-14.098
		c0.311-0.254,0.634-0.486,0.965-0.697l0.058-0.035c0,0,0.982-0.616,2.702-1.693c0.43-0.269,0.906-0.567,1.424-0.892
		c0.259-0.162,0.529-0.331,0.808-0.506c0.365-0.195,0.743-0.398,1.134-0.607c1.567-0.823,3.349-1.774,5.275-2.693
		c1.901-0.734,3.929-1.588,6.122-2.329c1.116-0.315,2.262-0.638,3.434-0.969c0.584-0.161,1.175-0.324,1.771-0.488
		c0.604-0.132,1.222-0.233,1.839-0.35c1.235-0.221,2.49-0.445,3.76-0.673c1.277-0.16,2.576-0.249,3.877-0.37
		c0.65-0.055,1.303-0.11,1.957-0.165c0.655-0.004,1.312-0.007,1.97-0.011c1.314,0.01,2.632-0.031,3.94,0.034
		c1.303,0.105,2.607,0.211,3.905,0.316l0.969,0.082l0.957,0.149c0.635,0.101,1.269,0.202,1.9,0.302
		c1.261,0.197,2.508,0.391,3.714,0.709c1.211,0.29,2.407,0.559,3.571,0.863c0.27,0.085,0.535,0.166,0.802,0.249
		c-1.159-1.145-2.493-2.211-3.812-3.354c-0.779-0.574-1.57-1.158-2.372-1.749c-0.779-0.615-1.638-1.135-2.495-1.664l-1.281-0.804
		l-0.641-0.403l-0.674-0.348c-0.893-0.466-1.789-0.935-2.685-1.403c-0.906-0.438-1.851-0.787-2.761-1.186l-1.368-0.58
		c-0.47-0.149-0.938-0.297-1.404-0.445c-0.932-0.289-1.84-0.614-2.752-0.874c-0.924-0.205-1.838-0.407-2.736-0.606
		c-0.447-0.097-0.886-0.212-1.326-0.296c-0.446-0.054-0.888-0.107-1.326-0.159c-0.868-0.111-1.716-0.22-2.543-0.325
		c-1.663-0.112-3.241-0.095-4.675-0.166c-1.341,0.09-2.507,0.204-3.558,0.254c-0.262,0.014-0.516,0.027-0.761,0.04
		c-0.326,0.052-0.64,0.102-0.942,0.15c-0.604,0.096-1.158,0.185-1.659,0.264c-2.004,0.319-3.149,0.501-3.149,0.501
		c-5.465,0.87-10.601-2.854-11.471-8.319c-0.87-5.465,2.854-10.601,8.319-11.471c0.397-0.063,0.792-0.102,1.184-0.118l0.068-0.001
		c0,0,1.159-0.039,3.186-0.106c0.507-0.017,1.068-0.036,1.679-0.056c0.306-0.01,0.623-0.021,0.953-0.032
		c0.414,0.014,0.843,0.029,1.286,0.045c1.769,0.076,3.787,0.149,5.914,0.322c2.013,0.321,4.195,0.601,6.463,1.062
		c1.123,0.288,2.277,0.585,3.456,0.888c0.586,0.154,1.178,0.31,1.777,0.468c0.589,0.189,1.173,0.412,1.766,0.621
		c1.178,0.429,2.376,0.866,3.589,1.308c1.184,0.503,2.353,1.079,3.538,1.628c0.589,0.279,1.181,0.56,1.775,0.841l1.709,0.98
		c1.131,0.669,2.291,1.295,3.39,2.009c1.074,0.746,2.148,1.492,3.218,2.235l0.796,0.558l0.753,0.609
		c0.499,0.407,0.996,0.812,1.491,1.216c0.991,0.804,1.972,1.598,2.855,2.479c0.901,0.859,1.801,1.693,2.654,2.54
		c1.624,1.782,3.236,3.447,4.561,5.206c1.408,1.681,2.564,3.414,3.651,4.983c1.056,1.596,1.931,3.128,2.714,4.469
		c0.714,1.401,1.352,2.599,1.831,3.621c0.887,2.091,1.394,3.286,1.394,3.286c0.2,0.472,0.323,0.957,0.383,1.442
		c1.471,1.103,2.304,1.727,2.304,1.727C321.977,275.76,322.459,279.126,320.68,281.5z"/>
</g>
<g id="Layer_1">
</g>
</svg>
