<?xml version="1.0" encoding="iso-8859-1"?>
<!-- Generator: Adobe Illustrator 18.1.0, SVG Export Plug-In . SVG Version: 6.00 Build 0)  -->
<!DOCTYPE svg PUBLIC "-//W3C//DTD SVG 1.1//EN" "http://www.w3.org/Graphics/SVG/1.1/DTD/svg11.dtd">
<svg version="1.1" xmlns="http://www.w3.org/2000/svg" xmlns:xlink="http://www.w3.org/1999/xlink" x="0px" y="0px"
	 viewBox="0 0 512 512" enable-background="new 0 0 512 512" xml:space="preserve">
<g id="Layer_2">
	<path fill="#59CAFC" d="M500.951,489.617c0,6.6-5.4,12-12,12H21.716c-6.6,0-12-5.4-12-12V22.383c0-6.6,5.4-12,12-12h467.234
		c6.6,0,12,5.4,12,12"/>
</g>
<g id="Layer_3">
	<path fill="#597B91" d="M456.361,117.069l-38.404,38.404l-27.625-27.625l-5.656,5.657l27.624,27.624l-32.716,32.716v-42.458h-28
		v69.708l-37.122,37.123l-6.296-6.297l-5.656,5.657l6.296,6.296l-48.544,48.545l5.656,5.656l48.545-48.544l37.122,37.122v17.188
		l-37.123,37.123l-45.544-45.544l-5.656,5.656l45.544,45.544l-33.998,33.998v-63.531h-28v90.781l-35.841,35.841l-48.543-48.544
		l-3.704,3.703l-3.704-3.703l-9.604,9.604h-3.382v3.382l-35.559,35.558L65.255,422.49v-34.492h-28v6.242L9.716,366.701v11.313
		l27.539,27.539v24.877L9.716,457.97v11.313l27.539-27.539v55.24L9.716,469.445v11.313l20.858,20.858h34.681v-67.814l35.561,35.561
		l-32.253,32.253h11.313l26.596-26.596l26.596,26.596h36.962v-67.532l35.28,35.279l-32.253,32.253h11.313l26.596-26.596
		l26.597,26.596h37.244v-66.25l33.998,33.997l-32.253,32.253h11.313l26.597-26.597l26.597,26.597h38.526v-64.969l32.716,32.716
		l-32.253,32.253h11.313l26.597-26.597l26.597,26.597h11.313l-32.253-32.253l32.748-32.747v65h28V51.628h-28V117.069z
		 M142.032,499.266l-29.902-29.902l29.902-29.902V499.266z M156.727,424.768l1.994-1.994l1.994,1.994H156.727z M246.809,499.549
		l-30.184-30.185l30.184-30.185V499.549z M351.585,500.83l-31.466-31.466l31.466-31.466V500.83z M351.585,426.586l-37.123,37.122
		l-39.654-39.653V411.93l39.654-39.654l37.123,37.123V426.586z M351.585,398.086l-31.466-31.466l31.466-31.466V398.086z
		 M351.585,295.341l-31.466-31.466l31.466-31.466V295.341z M379.585,231.159l32.716,32.716l-32.716,32.716V231.159z
		 M379.585,333.903l32.716,32.716l-32.716,32.716V333.903z M456.361,425.305l-38.404,38.403l-38.373-38.372v-14.687l38.373-38.373
		l38.404,38.404V425.305z M456.361,399.367l-32.748-32.748l32.748-32.748V399.367z M456.361,322.56l-38.404,38.404l-38.373-38.373
		v-14.687l38.373-38.372l38.404,38.404V322.56z M456.361,296.622l-32.747-32.747l32.747-32.747V296.622z M456.361,219.814
		l-38.404,38.404l-38.373-38.373v-14.687l38.373-38.372l38.404,38.404V219.814z M456.361,193.876l-32.747-32.747l32.747-32.747
		V193.876z"/>
</g>
<g id="Layer_4">
	<path fill="#132028" d="M500.951,28.833c-32.823,7.964-59.668,23.208-82.856,43.662c-0.604-1.607-1.546-3.116-2.85-4.399
		c-4.803-4.726-12.528-4.665-17.254,0.138c-4.726,4.803-4.665,12.527,0.138,17.254c1.155,1.136,2.481,1.989,3.891,2.572
		c-13.65,14.445-26.062,30.777-37.828,48.466c1.196-4.16,0.135-8.828-3.167-12.078c-4.803-4.726-12.528-4.665-17.254,0.138
		c-4.726,4.803-4.665,12.527,0.138,17.254c4.505,4.433,11.58,4.654,16.34,0.701c-7.616,11.781-14.984,24.116-22.268,36.863
		c-0.302-4.006-2.563-7.78-6.36-9.831c-5.929-3.202-13.331-0.992-16.533,4.937c-3.202,5.929-0.992,13.331,4.937,16.533
		c3.652,1.972,7.859,1.885,11.303,0.147c-6.756,12.101-13.484,24.514-20.318,37.127c-3.397,6.27-6.817,12.575-10.268,18.904
		c-0.558-3.653-2.749-7.012-6.251-8.904c-5.929-3.202-13.331-0.992-16.533,4.937c-3.202,5.929-0.992,13.331,4.937,16.533
		c3.453,1.865,7.4,1.883,10.732,0.411c-7.532,13.646-15.301,27.392-23.48,41.171c-0.154-3.591-1.877-7.08-5.011-9.357
		c-5.452-3.96-13.082-2.751-17.042,2.701s-2.751,13.082,2.701,17.042c3.74,2.717,8.505,3,12.407,1.15
		c-8.479,13.878-17.425,27.772-27.051,41.617c-4.106,5.906-8.304,11.356-12.586,16.381c2.251-5.138,0.719-11.324-4.005-14.756
		c-5.452-3.96-13.082-2.751-17.042,2.701c-3.96,5.452-2.751,13.082,2.701,17.042c4.044,2.938,9.284,3.025,13.338,0.652
		c-24.919,26.837-52.653,39.178-82.725,36.697c-43.33-3.563-83.698-36.459-109.932-63.429c-5.445-5.597-10.855-11.548-16.181-17.766
		v34.113c19.208,19.701,38.817,35.583,58.289,47.202c22.415,13.375,44.6,21.047,65.938,22.802c3.262,0.268,6.49,0.401,9.697,0.401
		c42.135,0,79.573-23.145,111.392-68.912c30.091-43.28,53.53-86.54,76.197-128.376c28.805-53.162,56.012-103.375,90.347-138.43
		c23.543-24.037,49.462-39.871,79.373-48.197V28.833z"/>
</g>
<g id="Layer_5">
	<path fill="#FFD3B6" d="M251.091,176.475c5.929,3.202,8.139,10.604,4.937,16.533c-3.202,5.929-10.604,8.139-16.533,4.937
		c-5.929-3.202-8.139-10.604-4.937-16.533C237.761,175.483,245.163,173.273,251.091,176.475z M253.119,147.048
		c-3.202,5.929-0.992,13.331,4.937,16.533c5.929,3.202,13.331,0.992,16.533-4.937c3.202-5.929,0.992-13.331-4.937-16.533
		C263.724,138.909,256.322,141.119,253.119,147.048z M318.724,52.441c-4.726,4.803-4.665,12.528,0.138,17.254
		s12.527,4.665,17.254-0.138c4.726-4.803,4.665-12.528-0.138-17.254C331.175,47.577,323.45,47.638,318.724,52.441z M346.119,24.604
		c-4.726,4.803-4.665,12.528,0.138,17.254c4.803,4.726,12.527,4.665,17.254-0.138c4.726-4.803,4.665-12.528-0.138-17.254
		C358.57,19.739,350.845,19.801,346.119,24.604z M167.359,290.875c-3.96,5.452-2.751,13.082,2.701,17.042
		c5.452,3.96,13.082,2.751,17.042-2.701c3.96-5.452,2.751-13.082-2.701-17.042C178.95,284.214,171.32,285.423,167.359,290.875z
		 M190.314,259.276c-3.96,5.452-2.751,13.082,2.701,17.042c5.452,3.96,13.082,2.751,17.042-2.701s2.751-13.082-2.701-17.042
		C201.904,252.615,194.274,253.824,190.314,259.276z"/>
</g>
<g id="Layer_6">
	<path fill="#FF473E" d="M332.445,168.046l-50.487,93.471c-3.178,5.885-10.526,8.078-16.41,4.9l0,0
		c-23.303-12.587-31.99-41.681-19.403-64.984l33.452-61.932c3.178-5.885,10.526-8.078,16.41-4.9l31.539,17.035
		C333.429,154.815,335.623,162.162,332.445,168.046z M416.324,49.734l-25.548-25.143c-4.767-4.691-12.434-4.63-17.126,0.137
		l-49.373,50.169c-18.577,18.877-18.334,49.239,0.542,67.817l0,0c4.767,4.691,12.434,4.63,17.126-0.137l74.516-75.717
		C421.152,62.092,421.091,54.425,416.324,49.734z M263.473,273.693l-29.001-21.067c-5.411-3.931-12.984-2.731-16.915,2.681
		l-41.369,56.949c-15.566,21.428-10.813,51.417,10.615,66.983l0,0c5.411,3.931,12.984,2.731,16.915-2.681l62.436-85.951
		C270.084,285.197,268.884,277.624,263.473,273.693z"/>
</g>
</svg>
