<?xml version="1.0" encoding="iso-8859-1"?>
<!-- Generator: Adobe Illustrator 18.1.1, SVG Export Plug-In . SVG Version: 6.00 Build 0)  -->
<!DOCTYPE svg PUBLIC "-//W3C//DTD SVG 1.1//EN" "http://www.w3.org/Graphics/SVG/1.1/DTD/svg11.dtd">
<svg version="1.1" xmlns="http://www.w3.org/2000/svg" xmlns:xlink="http://www.w3.org/1999/xlink" x="0px" y="0px"
	 viewBox="0 0 512 512" enable-background="new 0 0 512 512" xml:space="preserve">
<g id="Layer_2">
	<path fill="#00B1FF" d="M509.56,332.873c-1.365,12.374-12.65,22.318-29.242,27.874c-11.779,3.945-18.486,16.148-15.503,28.206
		c4.203,16.986,1.857,31.843-7.858,39.627c-17.254,13.826-51.216,0.108-75.856-30.641c-13.432-16.762-21.31-35.12-22.912-50.596
		c-40.568,45.428-108.107,59.659-164.809,30.536c-58.995-30.301-86.679-97.476-69.372-158.937
		c-13.927,6.959-33.668,10.157-55.042,7.8c-39.165-4.32-68.95-25.638-66.526-47.615c1.365-12.374,12.65-22.318,29.242-27.874
		c11.779-3.945,18.486-16.148,15.503-28.206c-4.203-16.986-1.857-31.843,7.858-39.627c17.254-13.826,51.216-0.108,75.856,30.641
		c13.411,16.736,21.285,35.064,22.904,50.526c40.568-45.435,108.112-59.669,164.817-30.545
		c59.025,30.316,86.706,97.544,69.345,159.03c13.929-6.968,33.682-10.172,55.069-7.813
		C482.199,289.578,511.984,310.896,509.56,332.873z"/>
</g>
<g id="Layer_3">
	<path fill="#76DFFF" d="M207.845,192.707c-7.473,0-14.779-3.719-19.057-10.508c-6.625-10.513-3.473-24.406,7.041-31.031
		c20.406-12.858,43.98-18.525,66.389-15.945c12.345,1.419,21.202,12.578,19.782,24.923c-1.42,12.345-12.583,21.2-24.923,19.782
		c-12.082-1.388-25.662,2.004-37.258,9.312C216.094,191.587,211.944,192.707,207.845,192.707z"/>
</g>
<g id="Layer_4">
	<path fill="#0082BC" d="M124.009,218.939c-6.092,3.042-13.294,5.366-21.261,6.819c2.759-13.376,7.348-26.606,13.892-39.348
		c8.376-16.308,19.263-30.482,31.941-42.305c2.793,7.111,4.547,14.042,5.222,20.48c-7.604,8.516-14.263,18.126-19.722,28.755
		C129.798,201.679,126.456,210.252,124.009,218.939z M387.963,293.075c-2.444,8.655-5.776,17.196-10.044,25.504
		c-5.461,10.633-12.123,20.246-19.731,28.765c0.67,6.457,2.427,13.414,5.231,20.55c12.677-11.823,23.565-25.997,31.941-42.305
		c6.544-12.742,11.133-25.972,13.892-39.348C401.273,287.698,394.061,290.027,387.963,293.075z"/>
</g>
</svg>
