<?xml version="1.0" encoding="iso-8859-1"?>
<!-- Generator: Adobe Illustrator 19.2.1, SVG Export Plug-In . SVG Version: 6.00 Build 0)  -->
<!DOCTYPE svg PUBLIC "-//W3C//DTD SVG 1.1//EN" "http://www.w3.org/Graphics/SVG/1.1/DTD/svg11.dtd">
<svg version="1.1" xmlns="http://www.w3.org/2000/svg" xmlns:xlink="http://www.w3.org/1999/xlink" x="0px" y="0px"
	 viewBox="0 0 512 512" enable-background="new 0 0 512 512" xml:space="preserve">
<g id="Layer_2">
	<path fill="#FFC639" d="M260.622,42.537l58.117-39.696c3.641-2.487,8.643-1.147,10.552,2.828l30.483,63.437
		c1.285,2.674,4.077,4.286,7.035,4.062l70.179-5.32c4.397-0.333,8.058,3.328,7.725,7.725l-5.32,70.179
		c-0.224,2.958,1.388,5.75,4.062,7.035l63.437,30.483c3.975,1.91,5.315,6.911,2.828,10.552l-39.696,58.117
		c-1.673,2.449-1.673,5.674,0,8.123l39.696,58.117c2.487,3.641,1.147,8.643-2.828,10.552l-63.437,30.483
		c-2.674,1.285-4.286,4.077-4.062,7.035l5.32,70.179c0.333,4.397-3.328,8.058-7.725,7.725l-70.179-5.32
		c-2.958-0.224-5.75,1.388-7.035,4.062l-30.483,63.437c-1.91,3.975-6.911,5.315-10.552,2.828l-58.117-39.696
		c-2.449-1.673-5.674-1.673-8.123,0l-58.117,39.696c-3.641,2.487-8.643,1.147-10.552-2.828l-30.483-63.437
		c-1.285-2.674-4.077-4.286-7.035-4.062l-70.179,5.32c-4.397,0.333-8.058-3.328-7.725-7.725l5.32-70.179
		c0.224-2.958-1.388-5.75-4.062-7.035L6.228,328.731c-3.975-1.91-5.315-6.911-2.828-10.552l39.696-58.117
		c1.673-2.449,1.673-5.674,0-8.123L3.401,193.821c-2.487-3.641-1.147-8.643,2.828-10.552l63.437-30.483
		c2.674-1.285,4.286-4.077,4.062-7.035l-5.32-70.179c-0.333-4.397,3.328-8.058,7.725-7.725l70.179,5.32
		c2.958,0.224,5.75-1.388,7.035-4.062l30.483-63.437c1.91-3.975,6.911-5.315,10.552-2.828l58.117,39.696
		C254.948,44.21,258.172,44.21,260.622,42.537z"/>
</g>
<g id="Layer_3">
	<circle fill="#FFE564" cx="256.56" cy="256" r="194.415"/>
</g>
</svg>
