<?xml version="1.0" encoding="iso-8859-1"?>
<!-- Generator: Adobe Illustrator 19.1.0, SVG Export Plug-In . SVG Version: 6.00 Build 0)  -->
<!DOCTYPE svg PUBLIC "-//W3C//DTD SVG 1.1//EN" "http://www.w3.org/Graphics/SVG/1.1/DTD/svg11.dtd">
<svg version="1.1" xmlns="http://www.w3.org/2000/svg" xmlns:xlink="http://www.w3.org/1999/xlink" x="0px" y="0px"
	 viewBox="0 0 509.04 509.04" enable-background="new 0 0 509.04 509.04" xml:space="preserve">
<g id="Layer_10">
	<path fill="#AAA9A2" d="M392.14,204.187h-21.137c1.292-1.645,2.069-3.714,2.069-5.967v-41.929c0-5.345-4.333-9.679-9.679-9.679
		h-10.739c-5.345,0-9.679,4.333-9.679,9.679v41.929c0,2.254,0.777,4.322,2.069,5.967h-38.177c1.292-1.645,2.069-3.714,2.069-5.967
		v-41.929c0-5.345-4.333-9.679-9.679-9.679h-10.74c-5.345,0-9.679,4.333-9.679,9.679v41.929c0,2.254,0.777,4.322,2.069,5.967H259.77
		c-2.214,0-4.009,1.795-4.009,4.009v297.315c0,2.214,1.795,4.009,4.009,4.009h132.37c2.214,0,4.009-1.795,4.009-4.009V208.196
		C396.149,205.982,394.354,204.187,392.14,204.187z"/>
</g>
<g id="Layer_1">
</g>
</svg>
