<?xml version="1.0" encoding="iso-8859-1"?>
<!-- Generator: Adobe Illustrator 18.1.1, SVG Export Plug-In . SVG Version: 6.00 Build 0)  -->
<!DOCTYPE svg PUBLIC "-//W3C//DTD SVG 1.1//EN" "http://www.w3.org/Graphics/SVG/1.1/DTD/svg11.dtd">
<svg version="1.1" xmlns="http://www.w3.org/2000/svg" xmlns:xlink="http://www.w3.org/1999/xlink" x="0px" y="0px"
	 viewBox="0 0 512 512" enable-background="new 0 0 512 512" xml:space="preserve">
<g id="Layer_2">
	<path fill="#FF473E" d="M501.132,308.508L307.916,501.724L127.641,321.449l193.217-193.217L501.132,308.508z"/>
</g>
<g id="Layer_3">
	<path fill="#C2CACE" d="M503.244,330.984L330.392,503.836c-5.624,5.624-14.741,5.624-20.365,0l-3.632-3.632l193.217-193.217
		l3.632,3.632C508.868,316.243,508.868,325.361,503.244,330.984z"/>
</g>
<g id="Layer_4">
	<path fill="#C47955" d="M302.011,139.104L138.512,302.603c-5.624,5.624-14.741,5.624-20.365,0L7.836,192.292
		c-5.624-5.624-5.624-14.741,0-20.365L171.335,8.428c5.624-5.624,14.741-5.624,20.365,0l110.312,110.312
		C307.635,124.363,307.635,133.48,302.011,139.104z"/>
</g>
<g id="Layer_5">
	<path fill="#E22020" d="M327.407,134.783l12.38,12.38L233.228,427.036l-21.151-21.151L327.407,134.783z"/>
</g>
<g id="Layer_6">
	<path fill="#8C4B3B" d="M168.763,156.356l43.652,43.652l-12.999,12.999l-43.652-43.652l-85.432,85.432l-12.999-12.999
		l85.432-85.432L83.086,96.677l12.999-12.999l59.679,59.679l85.433-85.433l12.999,12.999L168.763,156.356z"/>
</g>
<g id="Layer_7">
	<path fill="#C2CACE" d="M307.941,115.317l24.589,24.589L209.716,411.099c-5.012,11.068-19.541,13.713-28.133,5.122l-81.126-81.126
		c-6.79-6.79-6.79-17.799,0-24.589l195.189-195.189C299.042,111.922,304.546,111.922,307.941,115.317z"/>
</g>
</svg>
