<?xml version="1.0" encoding="iso-8859-1"?>
<!-- Generator: Adobe Illustrator 18.1.1, SVG Export Plug-In . SVG Version: 6.00 Build 0)  -->
<!DOCTYPE svg PUBLIC "-//W3C//DTD SVG 1.1//EN" "http://www.w3.org/Graphics/SVG/1.1/DTD/svg11.dtd">
<svg version="1.1" xmlns="http://www.w3.org/2000/svg" xmlns:xlink="http://www.w3.org/1999/xlink" x="0px" y="0px"
	 viewBox="0 0 512 512" enable-background="new 0 0 512 512" xml:space="preserve">
<g id="Layer_5">
	<path fill="#FFD4DE" d="M391.09,74.124c-0.021,2.381-1.341,4.561-3.442,5.681L148.934,207.05c-0.332,0.177-0.675,0.323-1.026,0.438
		l-0.807,0.451v237.47c0,2.303-1.218,4.434-3.203,5.602c-1.017,0.599-2.157,0.898-3.297,0.898c-1.086,0-2.172-0.271-3.154-0.816
		l-40-22.201c-2.065-1.146-3.346-3.322-3.346-5.684V192.123c0-6.42,2.337-12.622,6.581-17.464c1.017-1.159,2.138-2.232,3.332-3.191
		l0.236-0.184c0.524-0.41,1.021-0.771,1.532-1.116c0.191-0.13,0.314-0.213,0.439-0.294c0.688-0.443,1.31-0.812,1.913-1.134
		l231.74-123.528c1.945-1.037,4.283-1.018,6.212,0.053l41.659,23.121C389.826,69.541,391.109,71.742,391.09,74.124z
		 M413.103,174.655c-1.018-1.159-2.138-2.232-3.285-3.152c-0.093-0.076-0.188-0.15-0.321-0.253
		c-0.484-0.379-0.982-0.741-1.542-1.118c-0.125-0.085-0.25-0.17-0.397-0.266c-0.691-0.446-1.297-0.805-1.905-1.129L173.914,45.211
		c-1.946-1.038-4.284-1.018-6.212,0.053l-41.659,23.121c-2.082,1.156-3.366,3.357-3.345,5.739c0.02,2.381,1.341,4.561,3.442,5.681
		L364.854,207.05c0.332,0.177,0.676,0.323,1.027,0.439l0.806,0.451v237.47c0,2.303,1.218,4.434,3.202,5.602
		c1.018,0.599,2.157,0.898,3.298,0.898c1.086,0,2.173-0.271,3.154-0.816l40-22.201c2.064-1.146,3.346-3.322,3.346-5.684V192.123
		C419.687,185.704,417.35,179.501,413.103,174.655z"/>
</g>
<g id="Layer_1">
</g>
</svg>
