<?xml version="1.0" encoding="iso-8859-1"?>
<!-- Generator: Adobe Illustrator 18.1.1, SVG Export Plug-In . SVG Version: 6.00 Build 0)  -->
<!DOCTYPE svg PUBLIC "-//W3C//DTD SVG 1.1//EN" "http://www.w3.org/Graphics/SVG/1.1/DTD/svg11.dtd">
<svg version="1.1" xmlns="http://www.w3.org/2000/svg" xmlns:xlink="http://www.w3.org/1999/xlink" x="0px" y="0px"
	 viewBox="0 0 512 512" enable-background="new 0 0 512 512" xml:space="preserve">
<g id="Layer_11">
	<path fill="#E2CCFF" d="M328.824,362.018c0,6.049-4.904,10.953-10.953,10.953c-6.049,0-10.953-4.904-10.953-10.953
		c0-6.049,4.904-10.953,10.953-10.953C323.92,351.065,328.824,355.969,328.824,362.018z M353.597,400.019
		c-6.049,0-10.953,4.904-10.953,10.953s4.904,10.953,10.953,10.953c6.049,0,10.953-4.904,10.953-10.953
		S359.646,400.019,353.597,400.019z M461.222,410.972c-6.049,0-10.953,4.904-10.953,10.953c0,6.049,4.904,10.953,10.953,10.953
		c6.049,0,10.953-4.904,10.953-10.953C472.175,415.875,467.272,410.972,461.222,410.972z M461.222,362.018
		c-6.049,0-10.953,4.904-10.953,10.953c0,6.049,4.904,10.953,10.953,10.953c6.049,0,10.953-4.904,10.953-10.953
		C472.175,366.922,467.272,362.018,461.222,362.018z M317.871,454.959c-6.049,0-10.953,4.904-10.953,10.953
		c0,6.049,4.904,10.953,10.953,10.953c6.049,0,10.953-4.904,10.953-10.953C328.824,459.863,323.92,454.959,317.871,454.959z"/>
</g>
<g id="Layer_1">
</g>
</svg>
