<?xml version="1.0" encoding="iso-8859-1"?>
<!-- Generator: Adobe Illustrator 18.1.0, SVG Export Plug-In . SVG Version: 6.00 Build 0)  -->
<!DOCTYPE svg PUBLIC "-//W3C//DTD SVG 1.1//EN" "http://www.w3.org/Graphics/SVG/1.1/DTD/svg11.dtd">
<svg version="1.1" xmlns="http://www.w3.org/2000/svg" xmlns:xlink="http://www.w3.org/1999/xlink" x="0px" y="0px"
	 viewBox="0 0 512 512" enable-background="new 0 0 512 512" xml:space="preserve">
<g id="Layer_2">
	<path fill="#00B89C" d="M381.122,365.026c-9.02,1.001-23.124,2.833-31.633,5.267c2.159-0.628,3.069-0.895-0.37,0.096
		c-14.265,4.147-5.133,1.503-0.241,0.082c-29.373,8.602-62.584,29.942-79.944,58.102c-1.063,1.725-2.085,3.593-3.07,5.565v-199.24
		c0-5.448-4.417-9.865-9.865-9.865s-9.865,4.417-9.865,9.865v260.205c0,5.448,4.417,9.865,9.865,9.865
		c0.494,0,0.975-0.048,1.45-0.118c1.478,0.349,3.059,0.422,4.691,0.118c17.91-3.329,46.796-9.882,63.347-19.842
		c27.742-16.695,48.684-49.268,58.102-79.944c0.076-0.247,0.129-0.419,0.171-0.551c0.88-3.056,0.614-2.149,0.006-0.06
		c2.444-8.541,4.167-22.795,5.084-31.889C389.333,367.911,385.889,364.497,381.122,365.026z"/>
</g>
<g id="Layer_3">
	<path fill="#009E83" d="M223.088,499.832c4.87,1.495-14.024-4.065,0.241,0.082c3.439,0.991,2.529,0.724,0.37,0.096
		c8.541,2.444,22.795,4.167,31.889,5.084c4.772,0.481,8.186-2.963,7.657-7.73c-1.001-9.02-2.833-23.124-5.267-31.633
		c0.628,2.159,0.895,3.069-0.096-0.37c-4.147-14.265-1.503-5.133-0.082-0.241c-8.602-29.373-29.942-62.584-58.102-79.944
		c-16.441-10.136-45.312-16.679-63.227-19.981c-7.829-1.443-14.623,5.361-13.169,13.187c3.329,17.91,9.882,46.796,19.842,63.347
		C159.839,469.471,192.412,490.413,223.088,499.832z"/>
</g>
<g id="Layer_4">
	<path fill="#FFE564" d="M431.232,130.963c-15.328-32.577-54.163-46.56-86.742-31.232l-30.193,14.206l5.923-32.838
		c1.302-7.373,1.406-15.344,0-23.142c-6.391-35.432-40.293-58.975-75.727-52.585c-35.432,6.391-58.975,40.293-52.585,75.727
		l6.007,33.3l-30.684-14.267c-6.802-3.131-14.482-5.257-22.383-5.878c-35.894-2.819-67.277,23.992-70.094,59.886
		c-2.819,35.894,23.992,67.277,59.886,70.096l24.875,1.954l-21.112,21.744c-4.924,5.114-9.288,11.307-12.425,18.118
		c-15.037,32.654-0.754,71.312,31.898,86.347c32.654,15.037,71.312,0.754,86.347-31.898l10.731-23.305l10.246,23.52
		c2.862,6.496,6.935,12.885,12.047,18.373c24.503,26.302,65.689,27.763,91.993,3.26c26.302-24.503,27.763-65.691,3.26-91.993
		l-22.692-24.358l27.837-2.314c7.458-0.648,15.185-2.604,22.355-5.979C432.577,202.377,446.56,163.542,431.232,130.963z"/>
</g>
<g id="Layer_5">
	<circle fill="#FFB636" cx="256.098" cy="194.372" r="40.527"/>
</g>
</svg>
