<svg xmlns="http://www.w3.org/2000/svg" viewBox="0 0 512 512" enable-background="new 0 0 512 512"><path fill="#FF473E" d="M332.445 168.046l-50.487 93.47c-3.178 5.886-10.526 8.08-16.41 4.9-23.303-12.586-31.99-41.68-19.403-64.983l33.452-61.932c3.178-5.884 10.526-8.077 16.41-4.9l31.54 17.036c5.882 3.18 8.076 10.526 4.898 16.41zm83.88-118.312l-25.55-25.143c-4.766-4.69-12.433-4.63-17.125.138l-49.373 50.17c-18.577 18.876-18.334 49.238.542 67.816 4.766 4.69 12.433 4.63 17.125-.137L416.46 66.86c4.692-4.768 4.63-12.435-.136-17.126zm-152.852 223.96l-29-21.068c-5.412-3.93-12.985-2.73-16.916 2.68l-41.37 56.95c-15.565 21.428-10.812 51.417 10.616 66.983 5.41 3.93 12.984 2.73 16.915-2.682l62.436-85.95c3.93-5.41 2.73-12.984-2.68-16.915z"/></svg>