<svg xmlns="http://www.w3.org/2000/svg" viewBox="0 0 512 512" enable-background="new 0 0 512 512"><path fill="#AAA9A2" d="M393.42 202.894v269.053c0 2.004-1.625 3.628-3.63 3.628H270.005c-2.004 0-3.628-1.624-3.628-3.628V202.894c0-2.004 1.624-3.628 3.628-3.628h19.127c-1.168-1.49-1.87-3.36-1.87-5.4v-37.944c0-4.837 3.92-8.76 8.758-8.76h9.72c4.836 0 8.758 3.922 8.758 8.76v37.944c0 2.04-.703 3.91-1.872 5.4h12.694v227.446c0 1.627 1.32 2.946 2.946 2.946h3.27c1.626 0 2.945-1.32 2.945-2.946V199.266h12.695c-1.17-1.49-1.872-3.36-1.872-5.4v-37.944c0-4.837 3.922-8.76 8.76-8.76h9.72c4.836 0 8.758 3.922 8.758 8.76v37.944c0 2.04-.702 3.91-1.87 5.4h19.126c2.002 0 3.626 1.624 3.626 3.628zm-48.846-74.044V91.01c0-5.213-4.226-9.44-9.44-9.44H324.66c-5.21 0-9.437 4.227-9.437 9.44v37.84h29.352z"/></svg>