<?xml version="1.0" encoding="iso-8859-1"?>
<!-- Generator: Adobe Illustrator 18.1.1, SVG Export Plug-In . SVG Version: 6.00 Build 0)  -->
<!DOCTYPE svg PUBLIC "-//W3C//DTD SVG 1.1//EN" "http://www.w3.org/Graphics/SVG/1.1/DTD/svg11.dtd">
<svg version="1.1" xmlns="http://www.w3.org/2000/svg" xmlns:xlink="http://www.w3.org/1999/xlink" x="0px" y="0px"
	 viewBox="0 0 512 512" enable-background="new 0 0 512 512" xml:space="preserve">
<g id="Layer_3">
	<path fill="#F4F3EF" d="M110.171,468.114H55.075c-11.929,0-21.6-9.671-21.6-21.6V95.264h76.697c11.929,0,21.6,9.671,21.6,21.6
		v329.651C131.771,458.444,122.101,468.114,110.171,468.114z M247.588,446.514V116.864c0-11.929-9.671-21.6-21.6-21.6h-55.097
		c-11.929,0-21.6,9.671-21.6,21.6v329.651c0,11.929,9.671,21.6,21.6,21.6h55.097C237.917,468.114,247.588,458.444,247.588,446.514z
		 M363.405,446.514V116.864c0-11.929-9.671-21.6-21.6-21.6h-55.097c-11.929,0-21.6,9.671-21.6,21.6v329.651
		c0,11.929,9.671,21.6,21.6,21.6h55.097C353.734,468.114,363.405,458.444,363.405,446.514z M479.221,446.514V95.264h-76.697
		c-11.929,0-21.6,9.671-21.6,21.6v329.651c0,11.929,9.671,21.6,21.6,21.6h55.097C469.551,468.114,479.221,458.444,479.221,446.514z"
		/>
</g>
<g id="Layer_1">
</g>
</svg>
