<?xml version="1.0" encoding="iso-8859-1"?>
<!-- Generator: Adobe Illustrator 18.1.1, SVG Export Plug-In . SVG Version: 6.00 Build 0)  -->
<!DOCTYPE svg PUBLIC "-//W3C//DTD SVG 1.1//EN" "http://www.w3.org/Graphics/SVG/1.1/DTD/svg11.dtd">
<svg version="1.1" id="Layer_2" xmlns="http://www.w3.org/2000/svg" xmlns:xlink="http://www.w3.org/1999/xlink" x="0px" y="0px"
	 viewBox="0 0 512 512" enable-background="new 0 0 512 512" xml:space="preserve">
<path fill="#00B1FF" d="M475.112,53.85c0-18.413-14.945-33.331-33.359-33.296l-271.282,0.514
	C152.108,21.103,137.239,36,137.239,54.364v274.845c-10.718-4.883-22.617-7.626-35.163-7.626c-46.906,0-84.931,38.025-84.931,84.931
	s38.025,84.931,84.931,84.931c45.865,0,83.216-36.361,84.853-81.826c0.138-0.975,0.217-2.004,0.217-3.105v-247.99
	c0-9.503,7.712-17.203,17.216-17.188l203.683,0.327c9.482,0.015,17.16,7.706,17.16,17.188v170.295
	c-10.682-4.844-22.532-7.563-35.024-7.563c-46.906,0-84.931,38.025-84.931,84.931s38.025,84.931,84.931,84.931
	s84.931-38.025,84.931-84.931c0-0.357-0.023-0.708-0.027-1.064c0.015-0.357,0.027-0.716,0.027-1.077V53.85z"/>
</svg>
