<?xml version="1.0" encoding="iso-8859-1"?>
<!-- Generator: Adobe Illustrator 18.1.1, SVG Export Plug-In . SVG Version: 6.00 Build 0)  -->
<!DOCTYPE svg PUBLIC "-//W3C//DTD SVG 1.1//EN" "http://www.w3.org/Graphics/SVG/1.1/DTD/svg11.dtd">
<svg version="1.1" xmlns="http://www.w3.org/2000/svg" xmlns:xlink="http://www.w3.org/1999/xlink" x="0px" y="0px"
	 viewBox="0 0 512 512" enable-background="new 0 0 512 512" xml:space="preserve">
<g id="Layer_4">
	<path fill="#16992B" d="M80.521,29.317c0,0,0.662-0.639,1.892-1.631c1.242-1.027,2.957-2.382,5.524-3.858
		c2.562-1.5,5.471-3.07,8.846-4.577c3.352-1.501,7.118-2.927,11.095-4.156c4.003-1.23,8.185-2.274,12.483-3.075
		c4.252-0.818,8.646-1.392,12.898-1.754c4.268-0.369,8.521-0.465,12.585-0.446c4.07,0.006,8.076,0.328,11.888,0.562
		c3.82,0.242,7.555,0.6,11.197,0.93c3.7,0.346,7.342,0.687,10.866,1.016c3.606,0.285,7.295,0.626,10.968,0.756
		c0.941,0.046,1.869,0.092,2.784,0.136c0.938,0.021,1.861,0.041,2.769,0.061c0.939,0.046,1.87,0.075,2.776,0.049
		c0.937,0.002,1.856,0.004,2.756,0.006c3.65-0.026,7.261-0.089,10.588-0.26c3.391-0.07,6.405-0.367,9.13-0.426
		c2.64-0.166,4.84-0.301,6.4-0.351c1.557-0.057,2.455-0.051,2.455-0.051l0.055,0c1.105,0.008,1.995,0.906,1.987,2.011
		c0,0-0.004,0.879-0.139,2.457c-0.078,0.779-0.151,1.773-0.322,2.879c-0.166,1.111-0.314,2.449-0.653,3.81
		c-0.309,1.392-0.682,2.935-1.16,4.584c-0.246,0.817-0.492,1.686-0.795,2.556c-0.326,0.857-0.663,1.744-1.012,2.661
		c-1.423,3.684-3.431,7.648-6.081,11.74c-1.366,1.994-2.794,4.148-4.51,6.143c-0.841,1.021-1.732,2.026-2.639,3.07
		c-0.91,1.041-1.924,1.967-2.926,2.981c-4.038,4.004-8.843,7.672-14.152,10.961c-5.317,3.295-11.173,5.952-17.247,8.132
		c-6.08,2.126-12.339,3.586-18.532,4.526c-6.206,0.94-12.252,1.286-18.06,1.115c-5.82-0.16-11.277-0.89-16.394-1.964
		c-5.135-1.068-9.793-2.577-14.125-4.266c-4.284-1.701-8.21-3.641-11.695-5.67c-3.51-2.033-6.612-4.152-9.352-6.221
		c-2.719-2.055-5.124-4.082-6.946-5.867c-0.96-0.923-1.737-1.706-2.588-2.489c-0.815-0.748-1.507-1.406-2.066-1.985
		c-1.12-1.116-1.711-1.821-1.711-1.821C73.81,44.986,74.428,35.234,80.521,29.317z"/>
</g>
<g id="Layer_1">
</g>
</svg>
