<?xml version="1.0" encoding="iso-8859-1"?>
<!-- Generator: Adobe Illustrator 18.1.1, SVG Export Plug-In . SVG Version: 6.00 Build 0)  -->
<!DOCTYPE svg PUBLIC "-//W3C//DTD SVG 1.1//EN" "http://www.w3.org/Graphics/SVG/1.1/DTD/svg11.dtd">
<svg version="1.1" xmlns="http://www.w3.org/2000/svg" xmlns:xlink="http://www.w3.org/1999/xlink" x="0px" y="0px"
	 viewBox="0 0 512 512" enable-background="new 0 0 512 512" xml:space="preserve">
<g id="Layer_10">
	<path fill="#FFD366" d="M235.511,85.091c0,0-0.075-0.919-0.037-2.516l0.006-0.152l0.033-0.307c0.026-0.217,0.052-0.439,0.079-0.667
		c0.058-0.455,0.117-0.933,0.198-1.428c0.16-0.991,0.341-2.065,0.597-3.193c0.067-0.325,0.115-0.436,0.175-0.664
		c0.058-0.201,0.117-0.405,0.176-0.613c0.128-0.412,0.259-0.836,0.394-1.27c0.271-0.85,0.571-1.833,0.921-2.609
		c0.333-0.829,0.712-1.681,1.105-2.559c0.383-0.89,0.822-1.619,1.259-2.466c0.892-1.712,1.849-3.168,2.893-4.78
		c1.011-1.461,2.122-3.026,3.227-4.406c0.541-0.707,1.14-1.447,1.696-2.119c0.562-0.685,1.126-1.372,1.69-2.059
		c1.116-1.33,2.232-2.66,3.33-3.969c0.53-0.646,1.065-1.29,1.618-1.926c0.517-0.635,1.027-1.262,1.529-1.879
		c1.058-1.247,1.95-2.449,2.884-3.629c0.484-0.59,0.898-1.164,1.299-1.732c0.421-0.575,0.827-1.13,1.217-1.663
		c0.794-1.081,1.432-2.1,2.058-3.037c0.648-0.935,1.134-1.773,1.545-2.482c0.851-1.418,1.403-2.286,1.403-2.286l0.204-0.321
		c1.034-1.627,3.191-2.108,4.818-1.074c0.554,0.352,0.981,0.848,1.255,1.395c0,0,0.473,0.955,1.188,2.727
		c0.328,0.884,0.815,1.99,1.119,3.256c0.167,0.643,0.345,1.328,0.532,2.05c0.173,0.727,0.413,1.518,0.514,2.31
		c0.247,1.589,0.567,3.4,0.688,5.248c0.122,1.848,0.251,3.867,0.192,5.856c-0.007,1.006-0.038,2.049-0.087,3.074
		c-0.055,1.016-0.135,2.044-0.226,3.083c-0.158,2.086-0.452,4.102-0.719,6.139c-0.318,1.972-0.611,3.984-0.965,5.805
		c-0.353,1.902-0.677,3.568-1.054,5.234c-0.291,1.538-0.695,3.097-0.925,4.314c-0.128,0.615-0.301,1.285-0.397,1.791
		c-0.093,0.516-0.183,1.01-0.3,1.473c-0.137,0.505-0.131,0.803-0.209,1.15c-0.031,0.166-0.056,0.33-0.095,0.484l-0.058,0.228
		c-0.01,0.05-0.061,0.206-0.034,0.157c0.052-0.035,0.042-0.086,0.026-0.131c-0.007-0.023-0.032-0.047-0.055-0.068l-0.039-0.032
		c-0.007,0.001-0.015-0.025-0.021,0l-0.015,0.151c-0.181,1.588-0.381,2.489-0.381,2.489l-0.024,0.109
		c-2.193,9.901-11.998,16.149-21.899,13.956C241.788,99.748,236.154,92.903,235.511,85.091z"/>
</g>
<g id="Layer_1">
</g>
</svg>
