<?xml version="1.0" encoding="iso-8859-1"?>
<!-- Generator: Adobe Illustrator 18.1.1, SVG Export Plug-In . SVG Version: 6.00 Build 0)  -->
<!DOCTYPE svg PUBLIC "-//W3C//DTD SVG 1.1//EN" "http://www.w3.org/Graphics/SVG/1.1/DTD/svg11.dtd">
<svg version="1.1" xmlns="http://www.w3.org/2000/svg" xmlns:xlink="http://www.w3.org/1999/xlink" x="0px" y="0px"
	 viewBox="0 0 512 512" enable-background="new 0 0 512 512" xml:space="preserve">
<g id="Layer_2">
	<path fill="#2B3B47" d="M502.456,489.617c0,6.6-5.4,12-12,12H23.222c-6.6,0-12-5.4-12-12V22.383c0-6.6,5.4-12,12-12h467.234
		c6.6,0,12,5.4,12,12"/>
</g>
<g id="Layer_3">
	<path fill="#FFB636" d="M138.966,159.067c0,0,0.525,0.095,1.508,0.272c0.492,0.089,1.098,0.198,1.812,0.327
		c0.357,0.064,0.74,0.134,1.149,0.207c0.204,0.037,0.415,0.075,0.632,0.114c0.241,0.057,0.488,0.115,0.743,0.175
		c1.021,0.247,2.15,0.521,3.381,0.819c0.607,0.155,1.265,0.298,1.897,0.483c0.621,0.193,1.265,0.394,1.93,0.601
		c1.319,0.436,2.761,0.811,4.203,1.373c1.447,0.546,2.969,1.12,4.557,1.719c1.546,0.672,3.156,1.372,4.823,2.096
		c1.638,0.77,3.304,1.611,5.026,2.452c1.699,0.879,3.406,1.841,5.166,2.792c1.73,0.998,3.468,2.058,5.246,3.113
		c1.732,1.122,3.505,2.242,5.266,3.417c1.731,1.215,3.519,2.394,5.247,3.674c3.475,2.536,6.942,5.178,10.284,7.953
		c3.374,2.738,6.622,5.609,9.782,8.462c3.143,2.872,6.172,5.757,9.034,8.612c2.865,2.852,5.579,5.657,8.097,8.364
		c2.527,2.699,4.857,5.302,6.983,7.723c4.24,4.854,7.632,9.013,9.959,11.964c1.16,1.479,2.062,2.648,2.67,3.457
		c0.609,0.816,0.934,1.252,0.934,1.252c0.526,0.705,0.381,1.702-0.324,2.228c-0.669,0.499-1.601,0.394-2.144-0.221l-0.033-0.037
		c0,0-0.345-0.393-0.992-1.13c-0.666-0.734-1.643-1.81-2.886-3.18c-2.517-2.718-6.18-6.546-10.723-10.982
		c-2.277-2.212-4.766-4.584-7.45-7.031c-2.676-2.456-5.548-4.987-8.562-7.546c-1.496-1.292-3.065-2.547-4.625-3.849
		c-1.587-1.268-3.187-2.558-4.822-3.825c-3.282-2.52-6.637-5.043-10.086-7.413c-3.422-2.41-6.934-4.668-10.42-6.812
		c-1.736-1.085-3.512-2.06-5.233-3.077c-1.744-0.973-3.488-1.887-5.188-2.809c-1.73-0.849-3.432-1.683-5.097-2.5
		c-1.691-0.744-3.33-1.506-4.944-2.185c-1.629-0.637-3.201-1.283-4.733-1.86c-1.543-0.53-3.033-1.041-4.464-1.532
		c-1.442-0.416-2.825-0.814-4.139-1.194c-1.308-0.399-2.576-0.61-3.749-0.9c-0.588-0.134-1.157-0.264-1.706-0.39
		c-0.543-0.114-1.039-0.172-1.529-0.257c-0.97-0.16-1.861-0.307-2.665-0.44c-0.202-0.034-0.399-0.066-0.59-0.098
		c-0.219-0.022-0.433-0.043-0.639-0.064c-0.413-0.041-0.801-0.08-1.161-0.116c-0.721-0.072-1.334-0.133-1.832-0.183
		c-0.995-0.099-1.525-0.152-1.525-0.152l-0.007-0.001c-3.85-0.384-6.66-3.816-6.276-7.666s3.816-6.66,7.666-6.276
		C138.597,159.008,138.791,159.036,138.966,159.067z M231.945,317.872c1.224-0.431,2.022-1.672,1.845-3.01
		c-0.203-1.534-1.611-2.613-3.145-2.411c0,0-0.398,0.053-1.145,0.151c-0.723,0.108-1.768,0.271-3.076,0.535
		c-1.313,0.256-2.889,0.613-4.684,1.083c-1.8,0.46-3.799,1.075-5.977,1.792c-2.16,0.755-4.503,1.607-6.924,2.665
		c-2.428,1.043-4.958,2.245-7.513,3.635c-2.578,1.355-5.14,2.955-7.723,4.647c-2.547,1.738-5.1,3.6-7.525,5.638l-1.821,1.533
		c-0.599,0.521-1.173,1.067-1.76,1.601c-1.187,1.058-2.307,2.175-3.408,3.301c-2.215,2.241-4.273,4.582-6.165,6.939
		c-0.983,1.156-1.835,2.369-2.71,3.539c-0.89,1.163-1.68,2.348-2.447,3.51c-1.59,2.297-2.872,4.592-4.118,6.695
		c-1.117,2.15-2.252,4.106-3.047,5.91c-0.823,1.795-1.615,3.354-2.119,4.674c-1.076,2.637-1.691,4.144-1.691,4.144
		c-0.302,0.755-0.562,1.613-0.714,2.444c-1.235,6.729,3.219,13.186,9.948,14.421c6.729,1.235,13.186-3.219,14.421-9.948l0.056-0.303
		c0,0,0.232-1.266,0.639-3.481c0.17-1.128,0.54-2.428,0.882-3.968c0.315-1.554,0.89-3.209,1.399-5.091
		c0.631-1.816,1.246-3.843,2.115-5.883c0.408-1.036,0.83-2.105,1.34-3.154c0.496-1.058,0.963-2.173,1.551-3.237
		c1.105-2.177,2.351-4.388,3.756-6.559c0.696-1.091,1.411-2.189,2.196-3.243c0.386-0.532,0.76-1.08,1.161-1.607l1.23-1.564
		c1.642-2.095,3.439-4.078,5.277-5.992c1.875-1.868,3.772-3.696,5.746-5.317c1.949-1.655,3.931-3.156,5.869-4.513
		c1.931-1.372,3.843-2.551,5.627-3.625c1.8-1.036,3.48-1.964,5.003-2.707c1.519-0.755,2.868-1.369,3.986-1.838
		c1.118-0.478,2.004-0.811,2.6-1.031c0.578-0.204,0.886-0.312,0.886-0.312L231.945,317.872z M183.795,270.431
		c0.47,0.338,1.129,0.307,1.565-0.105c0.494-0.467,0.517-1.247,0.049-1.742c0,0-0.164-0.174-0.473-0.5
		c-0.307-0.311-0.757-0.759-1.355-1.293c-1.191-1.077-2.977-2.514-5.319-3.994c-1.173-0.735-2.487-1.472-3.924-2.181
		c-1.447-0.681-3.004-1.375-4.683-1.929c-1.67-0.583-3.448-1.065-5.291-1.431c-1.842-0.378-3.75-0.615-5.674-0.738
		c-0.963-0.082-1.925-0.059-2.892-0.088c-0.961,0.018-1.921,0.059-2.876,0.106c-0.945,0.094-1.894,0.167-2.823,0.286
		c-0.921,0.145-1.842,0.273-2.738,0.437c-0.89,0.191-1.765,0.379-2.622,0.564c-0.844,0.231-1.669,0.456-2.473,0.676
		c-0.812,0.211-1.559,0.503-2.308,0.742c-0.745,0.246-1.465,0.491-2.129,0.769c-1.349,0.527-2.588,1.024-3.64,1.534
		c-1.068,0.489-2.005,0.916-2.736,1.319c-1.49,0.782-2.342,1.228-2.342,1.228c-0.346,0.184-0.712,0.418-1.03,0.671
		c-2.827,2.246-3.299,6.358-1.053,9.186c2.246,2.827,6.358,3.299,9.186,1.053l0.161-0.128c0,0,0.622-0.494,1.709-1.358
		c0.538-0.452,1.222-0.931,2.009-1.491c0.777-0.586,1.688-1.163,2.69-1.797c0.496-0.334,1.028-0.634,1.583-0.941
		c0.557-0.3,1.121-0.665,1.728-0.948c0.606-0.299,1.229-0.605,1.865-0.919c0.651-0.276,1.317-0.559,1.994-0.846
		c0.685-0.265,1.39-0.501,2.105-0.764c0.719-0.235,1.456-0.433,2.201-0.66c0.749-0.179,1.51-0.361,2.279-0.526
		c0.771-0.118,1.55-0.295,2.335-0.374c1.57-0.199,3.162-0.306,4.738-0.285c1.577,0.01,3.139,0.127,4.645,0.351
		c1.514,0.194,2.957,0.537,4.329,0.887c1.363,0.377,2.643,0.804,3.807,1.257c2.324,0.915,4.19,1.905,5.44,2.668
		c0.63,0.377,1.104,0.699,1.422,0.917c0.304,0.218,0.466,0.335,0.466,0.335L183.795,270.431z M366.671,385.584
		c3.814,5.657,11.491,7.151,17.148,3.338s7.151-11.491,3.338-17.148c0,0-0.967-1.435-2.66-3.946
		c-0.386-0.592-0.994-1.421-1.579-2.246c-0.6-0.836-1.249-1.74-1.943-2.706c-0.692-0.972-1.448-1.876-2.234-2.897
		c-0.795-1-1.596-2.074-2.515-3.128c-0.902-1.063-1.841-2.171-2.813-3.317c-1.009-1.108-2.052-2.253-3.124-3.43
		c-2.181-2.312-4.52-4.698-7.03-7.053c-2.499-2.365-5.159-4.708-7.915-7c-1.367-1.159-2.805-2.251-4.212-3.383
		c-1.431-1.103-2.888-2.181-4.337-3.26c-2.941-2.105-5.901-4.157-8.892-6.044c-2.967-1.921-5.968-3.668-8.875-5.325
		c-5.842-3.276-11.442-5.993-16.311-8.128c-4.877-2.126-9.015-3.686-11.955-4.692c-1.466-0.509-2.635-0.878-3.44-1.127
		c-0.832-0.248-1.275-0.381-1.275-0.381c-1.28-0.383-2.689,0.195-3.307,1.431c-0.692,1.384-0.131,3.066,1.253,3.758l0.137,0.068
		c0,0,0.36,0.18,1.035,0.517c0.694,0.355,1.719,0.885,3.01,1.601c2.586,1.418,6.235,3.57,10.462,6.357
		c4.221,2.798,9.012,6.248,13.883,10.214c2.422,2.001,4.9,4.083,7.306,6.312c2.432,2.197,4.796,4.532,7.115,6.887
		c1.137,1.202,2.276,2.395,3.384,3.604c1.082,1.235,2.194,2.425,3.227,3.667c2.091,2.46,4.072,4.928,5.892,7.373
		c1.832,2.436,3.494,4.855,5.021,7.165c0.741,1.166,1.463,2.3,2.16,3.398c0.655,1.118,1.287,2.198,1.895,3.235
		c0.624,1.022,1.137,2.052,1.658,3.007c0.499,0.955,1.037,1.878,1.426,2.707c0.399,0.829,0.773,1.604,1.119,2.322
		c0.35,0.735,0.651,1.308,0.972,2.05c1.238,2.764,1.946,4.343,1.946,4.343C365.92,384.342,366.282,385.006,366.671,385.584z
		 M312.622,223.905c0.09,0.604,0.617,1.062,1.244,1.049c0.68-0.014,1.22-0.577,1.206-1.257c0,0-0.008-0.387,0.052-0.965
		c0.012-0.288,0.07-0.681,0.142-1.143c0.068-0.46,0.131-0.986,0.285-1.576c0.148-0.588,0.253-1.243,0.471-1.943
		c0.22-0.696,0.458-1.449,0.712-2.254c0.642-1.571,1.281-3.363,2.314-5.187c0.88-1.883,2.198-3.75,3.462-5.76
		c0.706-0.967,1.484-1.926,2.245-2.921c0.383-0.495,0.77-0.995,1.16-1.5c0.437-0.473,0.878-0.95,1.322-1.431
		c0.886-0.957,1.786-1.931,2.698-2.916c0.962-0.941,2-1.839,3.006-2.771c0.506-0.462,1.014-0.926,1.524-1.392l0.764-0.698
		l0.825-0.644c1.102-0.853,2.209-1.71,3.316-2.567c2.138-1.783,4.581-3.226,6.858-4.768c0.574-0.379,1.146-0.757,1.715-1.133
		c0.561-0.385,1.134-0.748,1.738-1.068c1.183-0.665,2.351-1.323,3.501-1.969c2.299-1.285,4.469-2.586,6.698-3.574
		c2.18-1.046,4.242-2.036,6.145-2.949c0.474-0.228,0.939-0.451,1.392-0.669c0.462-0.205,0.928-0.382,1.373-0.568
		c0.895-0.364,1.744-0.71,2.541-1.035c1.592-0.649,2.98-1.215,4.122-1.681c2.28-0.931,3.583-1.463,3.583-1.463l0.323-0.131
		c0.222-0.091,0.441-0.195,0.656-0.313c3.159-1.726,4.32-5.686,2.594-8.845c-1.726-3.159-5.686-4.32-8.845-2.594
		c0,0-1.311,0.717-3.606,1.97c-1.145,0.626-2.534,1.387-4.128,2.26c-0.795,0.436-1.642,0.9-2.534,1.389
		c-0.444,0.248-0.906,0.488-1.367,0.759c-0.456,0.286-0.922,0.578-1.398,0.876c-1.898,1.193-3.955,2.485-6.13,3.851
		c-2.201,1.299-4.38,2.953-6.657,4.592c-1.135,0.822-2.289,1.658-3.457,2.505c-0.592,0.407-1.16,0.864-1.717,1.345
		c-0.563,0.47-1.128,0.943-1.696,1.418c-2.25,1.925-4.623,3.731-6.724,5.915c-1.075,1.049-2.15,2.098-3.221,3.143l-0.796,0.785
		l-0.741,0.847c-0.492,0.563-0.983,1.124-1.472,1.684c-0.968,1.125-1.957,2.206-2.871,3.333c-0.863,1.174-1.715,2.334-2.554,3.475
		c-0.415,0.57-0.827,1.134-1.235,1.694c-0.363,0.596-0.722,1.186-1.078,1.769c-0.702,1.171-1.414,2.293-2.052,3.42
		c-1.139,2.349-2.303,4.498-3.037,6.662c-0.879,2.086-1.368,4.133-1.858,5.9c-0.177,0.907-0.342,1.756-0.495,2.542
		c-0.148,0.784-0.188,1.53-0.273,2.187c-0.09,0.655-0.098,1.26-0.114,1.781c-0.02,0.518-0.034,0.96-0.008,1.351
		c0.02,0.781,0.07,1.117,0.07,1.117L312.622,223.905z M356.039,260.933c0.357,0.876,1.357,1.296,2.233,0.939
		c0,0,0.875-0.357,2.407-0.982c0.778-0.351,1.662-0.58,2.689-0.936c0.995-0.369,2.242-0.616,3.518-0.975
		c1.316-0.248,2.718-0.568,4.222-0.71c0.373-0.045,0.751-0.091,1.134-0.137c0.384-0.021,0.773-0.042,1.166-0.063
		c0.39-0.022,0.785-0.044,1.183-0.066c0.398,0.003,0.8,0.007,1.205,0.01c0.403,0.004,0.809,0.009,1.217,0.013
		c0.407,0.031,0.817,0.063,1.23,0.095c0.822,0.042,1.648,0.155,2.474,0.282c1.653,0.227,3.297,0.638,4.908,1.087
		c1.601,0.52,3.177,1.066,4.667,1.772c1.501,0.662,2.92,1.452,4.26,2.249c2.667,1.636,4.981,3.43,6.817,5.112
		c1.848,1.668,3.23,3.198,4.118,4.259c0.442,0.531,0.766,0.949,0.953,1.21c0.217,0.29,0.217,0.332,0.194,0.302
		c2.713,3.13,7.45,3.467,10.58,0.754c3.13-2.713,3.467-7.45,0.754-10.58c-0.025-0.028-0.331-0.344-0.723-0.693
		c-0.418-0.381-1.002-0.886-1.752-1.491c-1.498-1.205-3.649-2.801-6.381-4.439c-2.718-1.652-6.04-3.323-9.757-4.7
		c-1.868-0.669-3.817-1.294-5.848-1.755c-2.014-0.503-4.113-0.809-6.196-1.051c-2.099-0.172-4.193-0.268-6.246-0.155
		c-1.025,0.043-2.036,0.106-3.029,0.243c-0.495,0.059-0.987,0.118-1.475,0.177c-0.483,0.088-0.963,0.175-1.439,0.262
		c-0.473,0.09-0.941,0.178-1.405,0.266c-0.457,0.115-0.91,0.229-1.358,0.342c-0.445,0.113-0.886,0.226-1.321,0.337
		c-0.427,0.137-0.848,0.272-1.264,0.406c-1.67,0.498-3.172,1.156-4.56,1.714c-1.351,0.672-2.589,1.182-3.657,1.824
		c-1.055,0.607-2.039,1.107-2.694,1.572c-1.385,0.906-2.176,1.423-2.176,1.423C356.016,259.291,355.724,260.16,356.039,260.933z
		 M209.714,245.915c1.021,0.897,2.57,0.94,3.644,0.041c1.186-0.993,1.342-2.759,0.349-3.945c0,0-0.333-0.398-0.959-1.145
		c-0.623-0.722-1.537-1.767-2.74-3.045c-1.198-1.287-2.686-2.806-4.441-4.504c-1.749-1.706-3.79-3.552-6.057-5.534
		c-2.293-1.944-4.799-4.044-7.57-6.116c-2.751-2.101-5.739-4.212-8.913-6.292c-1.592-1.032-3.214-2.083-4.902-3.077
		c-1.666-1.034-3.4-1.998-5.15-2.979c-1.744-0.993-3.56-1.883-5.361-2.838c-1.835-0.877-3.669-1.796-5.541-2.632
		c-3.746-1.669-7.556-3.25-11.397-4.588c-0.961-0.338-1.917-0.675-2.87-1.011c-0.958-0.319-1.922-0.603-2.876-0.903
		c-0.957-0.296-1.909-0.59-2.853-0.881c-0.956-0.256-1.904-0.51-2.845-0.763c-0.944-0.251-1.88-0.499-2.808-0.745
		c-0.936-0.212-1.863-0.421-2.781-0.628c-1.838-0.41-3.64-0.827-5.414-1.114c-1.772-0.298-3.494-0.662-5.174-0.876
		c-1.684-0.224-3.311-0.441-4.873-0.649c-1.566-0.188-3.073-0.289-4.508-0.425c-1.435-0.124-2.8-0.263-4.082-0.296
		c-2.564-0.09-4.816-0.258-6.661-0.23c-3.704,0.012-5.82,0.018-5.82,0.018c-0.598,0.006-1.274,0.054-1.883,0.15
		c-6.742,1.061-11.347,7.387-10.286,14.129c1.061,6.742,7.387,11.347,14.129,10.286l0.397-0.063c0,0,1.761-0.277,4.844-0.762
		c1.546-0.271,3.431-0.404,5.602-0.67c1.086-0.146,2.242-0.199,3.465-0.281c1.222-0.069,2.512-0.188,3.858-0.233
		c1.349-0.028,2.754-0.057,4.208-0.087c1.459-0.044,2.96,0.049,4.515,0.066c1.557,0.005,3.146,0.13,4.778,0.237
		c0.817,0.055,1.643,0.111,2.477,0.168c0.831,0.09,1.67,0.18,2.517,0.271c0.849,0.092,1.705,0.184,2.567,0.277
		c0.858,0.128,1.723,0.256,2.593,0.385c0.87,0.133,1.752,0.249,2.631,0.398c0.877,0.165,1.759,0.332,2.644,0.499
		c3.552,0.651,7.127,1.531,10.694,2.5c1.783,0.486,3.544,1.057,5.316,1.588c1.741,0.61,3.509,1.157,5.22,1.812
		c1.716,0.644,3.428,1.275,5.086,1.983c1.678,0.668,3.304,1.4,4.909,2.12c3.201,1.457,6.256,2.979,9.101,4.532
		c2.865,1.524,5.49,3.117,7.913,4.603c2.395,1.522,4.577,2.958,6.456,4.302c1.886,1.335,3.501,2.545,4.799,3.571
		c1.307,1.019,2.296,1.853,2.962,2.42c0.642,0.563,0.985,0.864,0.985,0.864L209.714,245.915z M334.11,239.212
		c-1.043,0.855-1.344,2.363-0.647,3.569c0.775,1.34,2.489,1.799,3.829,1.024c0,0,0.421-0.243,1.143-0.61
		c0.712-0.38,1.832-0.928,3.25-1.623c1.439-0.666,3.166-1.505,5.205-2.367c1.015-0.434,2.096-0.897,3.234-1.384
		c1.154-0.455,2.367-0.933,3.633-1.432c0.632-0.248,1.277-0.501,1.934-0.759c0.666-0.238,1.345-0.481,2.036-0.728
		c1.378-0.492,2.802-1.001,4.266-1.524c1.481-0.474,3.002-0.961,4.557-1.459c0.775-0.248,1.559-0.499,2.35-0.753
		c0.801-0.226,1.609-0.454,2.424-0.684c1.627-0.457,3.28-0.921,4.954-1.391c1.678-0.448,3.401-0.826,5.118-1.248
		c1.728-0.389,3.437-0.878,5.202-1.192c1.753-0.344,3.513-0.689,5.272-1.034l2.631-0.517l2.65-0.399
		c1.758-0.265,3.509-0.529,5.247-0.791c1.727-0.297,3.466-0.444,5.174-0.622c1.705-0.176,3.39-0.349,5.047-0.52
		c1.649-0.204,3.286-0.277,4.885-0.355c1.595-0.084,3.155-0.166,4.674-0.245c3.025-0.228,5.902-0.159,8.543-0.165
		c1.319,0,2.583,0.001,3.785,0.001c1.2-0.004,2.336-0.014,3.407,0.074c2.134,0.121,3.995,0.227,5.527,0.314
		c3.052,0.17,4.795,0.267,4.795,0.267l0.66,0.038c0.623,0.03,1.257,0.014,1.897-0.053c6.793-0.706,11.728-6.785,11.022-13.579
		c-0.706-6.793-6.785-11.728-13.579-11.022c0,0-1.947,0.202-5.355,0.557c-1.697,0.179-3.758,0.397-6.123,0.646
		c-1.181,0.099-2.43,0.308-3.745,0.524c-1.313,0.212-2.694,0.435-4.135,0.667c-2.877,0.473-5.993,0.915-9.241,1.686
		c-1.625,0.352-3.294,0.714-5.001,1.084c-1.704,0.365-3.443,0.732-5.186,1.235c-1.745,0.47-3.519,0.948-5.315,1.432
		c-1.792,0.486-3.609,0.947-5.404,1.559c-1.799,0.577-3.613,1.158-5.434,1.742l-2.727,0.878l-2.696,0.996
		c-1.792,0.664-3.585,1.327-5.37,1.988c-1.791,0.631-3.517,1.434-5.256,2.135c-1.729,0.733-3.454,1.419-5.13,2.17
		c-1.665,0.772-3.31,1.535-4.928,2.285c-0.806,0.376-1.605,0.749-2.397,1.118c-0.78,0.396-1.553,0.789-2.317,1.177
		c-1.524,0.776-3.015,1.534-4.467,2.273c-1.427,0.786-2.814,1.55-4.157,2.29c-0.669,0.37-1.327,0.733-1.973,1.089
		c-0.636,0.376-1.26,0.746-1.871,1.108c-1.219,0.725-2.386,1.419-3.497,2.079c-1.093,0.692-2.129,1.349-3.103,1.967
		c-1.949,1.225-3.601,2.384-4.972,3.312c-1.356,0.961-2.418,1.712-3.158,2.275c-0.747,0.549-1.087,0.828-1.087,0.828L334.11,239.212
		z M302.407,267.861c-0.412,1.491,0.463,3.033,1.954,3.444l0.091,0.025c0,0,0.584,0.161,1.679,0.464
		c1.105,0.316,2.733,0.796,4.796,1.459c4.126,1.313,9.987,3.355,16.87,6.148c3.441,1.397,7.139,2.977,10.995,4.757
		c3.868,1.749,7.873,3.748,11.978,5.858c4.086,2.151,8.266,4.434,12.409,6.913c1.035,0.618,2.075,1.239,3.117,1.861
		c1.027,0.646,2.056,1.294,3.088,1.944c2.075,1.276,4.093,2.654,6.123,4.005c2.038,1.338,3.994,2.796,5.982,4.177
		c1.958,1.426,3.871,2.89,5.781,4.318c1.86,1.496,3.723,2.949,5.522,4.43c1.767,1.52,3.542,2.981,5.227,4.481
		c1.662,1.527,3.323,2.993,4.894,4.48c1.546,1.509,3.059,2.985,4.531,4.422c1.415,1.484,2.792,2.927,4.123,4.323
		c1.322,1.399,2.517,2.825,3.707,4.148c1.2,1.315,2.277,2.635,3.292,3.896c1.016,1.259,2.005,2.429,2.887,3.564
		c1.711,2.314,3.248,4.284,4.429,5.966c2.317,3.386,3.64,5.32,3.64,5.32l0.287,0.421c0.261,0.376,0.546,0.742,0.855,1.095
		c4.486,5.131,12.282,5.653,17.413,1.167c5.131-4.486,5.653-12.282,1.167-17.413c0,0-1.77-2.024-4.866-5.565
		c-1.568-1.747-3.568-3.778-5.807-6.142c-1.145-1.158-2.408-2.344-3.714-3.615c-0.655-0.632-1.328-1.28-2.016-1.944
		c-0.691-0.659-1.435-1.294-2.174-1.963c-1.497-1.317-3.014-2.733-4.659-4.108c-1.65-1.363-3.356-2.772-5.11-4.22
		c-1.798-1.381-3.646-2.8-5.534-4.25c-1.907-1.418-3.9-2.801-5.898-4.237c-2.019-1.407-4.121-2.76-6.218-4.166
		c-2.125-1.364-4.308-2.687-6.486-4.046c-2.223-1.287-4.447-2.603-6.707-3.87c-2.287-1.22-4.54-2.512-6.861-3.671
		c-2.314-1.173-4.611-2.368-6.95-3.452c-1.163-0.552-2.324-1.104-3.481-1.653c-1.169-0.522-2.334-1.043-3.494-1.561
		c-4.637-2.075-9.269-3.935-13.767-5.66c-4.516-1.683-8.892-3.252-13.092-4.582c-4.187-1.361-8.178-2.533-11.876-3.546
		c-7.398-2.026-13.632-3.4-18.028-4.246c-2.196-0.429-3.934-0.724-5.128-0.918c-1.209-0.184-1.854-0.282-1.854-0.282
		C304.143,265.626,302.788,266.479,302.407,267.861z M274.382,193.829c0.821,0.353,1.773-0.025,2.126-0.846
		c0,0,0.455-1.058,1.175-2.886c0.724-1.837,1.717-4.473,2.807-7.682c1.088-3.21,2.284-6.99,3.387-11.119
		c0.545-2.066,1.091-4.213,1.572-6.423c0.501-2.205,0.931-4.475,1.32-6.766c0.384-2.292,0.693-4.615,0.929-6.931
		c0.214-2.321,0.376-4.63,0.399-6.908c0.016-1.138,0.028-2.262-0.029-3.379c-0.02-0.558-0.04-1.11-0.06-1.655
		c-0.046-0.552-0.091-1.096-0.135-1.634c-0.049-0.54-0.098-1.073-0.146-1.598c-0.075-0.531-0.149-1.053-0.221-1.567
		c-0.127-1.027-0.322-2.032-0.536-3.002c-0.103-0.485-0.205-0.96-0.304-1.425c-0.131-0.468-0.259-0.925-0.385-1.37
		c-0.252-0.892-0.486-1.741-0.806-2.54c-0.304-0.798-0.561-1.551-0.865-2.241c-0.328-0.689-0.629-1.322-0.902-1.893
		c-0.262-0.575-0.547-1.078-0.817-1.512c-0.263-0.435-0.487-0.806-0.668-1.106c-0.37-0.599-0.568-0.919-0.568-0.919
		c-0.28-0.447-0.629-0.915-1-1.316c-3.208-3.467-8.62-3.676-12.086-0.467c-3.467,3.208-3.676,8.62-0.467,12.086l0.193,0.209
		c0,0,0.123,0.133,0.353,0.381c0.119,0.124,0.265,0.277,0.438,0.456c0.181,0.172,0.381,0.385,0.576,0.667
		c0.21,0.27,0.443,0.569,0.696,0.894c0.249,0.339,0.479,0.757,0.757,1.177c0.29,0.409,0.536,0.916,0.81,1.445
		c0.139,0.265,0.282,0.536,0.429,0.814c0.128,0.298,0.258,0.604,0.391,0.915c0.277,0.619,0.557,1.28,0.793,2.01
		c0.128,0.36,0.258,0.725,0.39,1.097c0.113,0.386,0.228,0.779,0.345,1.176c0.116,0.401,0.234,0.808,0.354,1.22
		c0.1,0.425,0.2,0.855,0.302,1.29c0.222,0.865,0.39,1.779,0.562,2.714c0.352,1.866,0.6,3.854,0.812,5.897
		c0.19,2.048,0.323,4.157,0.382,6.287c0.251,8.527-0.534,17.282-1.424,23.798c-0.439,3.263-0.895,5.978-1.243,7.869
		c-0.349,1.9-0.577,2.952-0.577,2.952C273.28,192.738,273.659,193.517,274.382,193.829z M218.775,162.085
		c0.468,0.724,1.416,0.997,2.207,0.604c0.851-0.422,1.198-1.454,0.776-2.304c0,0-0.061-0.123-0.18-0.362
		c-0.125-0.239-0.312-0.594-0.555-1.056c-0.493-0.897-1.219-2.204-2.233-3.801c-2.006-3.209-5.114-7.643-9.417-12.525
		c-2.132-2.459-4.619-4.965-7.329-7.55c-2.768-2.515-5.756-5.124-9.067-7.555c-0.808-0.636-1.658-1.227-2.517-1.82
		c-0.86-0.595-1.726-1.194-2.597-1.797c-0.896-0.567-1.798-1.137-2.704-1.71l-1.367-0.861l-1.408-0.803
		c-0.943-0.537-1.891-1.076-2.841-1.616c-0.962-0.518-1.947-0.999-2.926-1.502c-1.946-1.037-3.977-1.904-5.998-2.814
		c-1.005-0.472-2.037-0.868-3.069-1.267c-1.033-0.402-2.064-0.803-3.094-1.204c-2.079-0.742-4.177-1.41-6.257-2.1
		c-2.104-0.577-4.194-1.179-6.273-1.717c-2.097-0.462-4.168-0.918-6.206-1.366c-2.058-0.346-4.082-0.686-6.063-1.019
		c-1.988-0.277-3.941-0.472-5.844-0.701c-1.905-0.262-3.757-0.303-5.555-0.441c-1.797-0.112-3.539-0.253-5.202-0.243
		c-1.669-0.023-3.269-0.046-4.79-0.067c-1.527-0.048-2.956,0.072-4.313,0.097c-2.707,0.096-5.079,0.151-7.005,0.354
		c-3.875,0.324-6.09,0.509-6.09,0.509c-0.321,0.028-0.654,0.073-0.977,0.135c-4.928,0.958-8.147,5.729-7.189,10.658
		s5.729,8.147,10.658,7.189l0.366-0.071c0,0,1.96-0.381,5.391-1.048c1.717-0.38,3.811-0.65,6.219-1.002
		c1.204-0.153,2.488-0.412,3.842-0.512c1.357-0.129,2.783-0.265,4.271-0.407c1.493-0.178,3.043-0.215,4.652-0.291
		c1.607-0.05,3.282-0.206,4.987-0.152c1.708,0.021,3.473-0.001,5.271,0.051c1.796,0.103,3.63,0.208,5.495,0.315
		c1.858,0.201,3.748,0.404,5.66,0.611c1.902,0.278,3.82,0.612,5.768,0.917c1.916,0.416,3.864,0.807,5.804,1.266l2.892,0.777
		c0.968,0.256,1.94,0.508,2.886,0.836c1.904,0.62,3.834,1.198,5.689,1.946c0.934,0.358,1.878,0.695,2.803,1.069
		c0.916,0.397,1.829,0.792,2.739,1.186l1.366,0.59l1.329,0.649c0.886,0.433,1.768,0.863,2.644,1.291
		c0.858,0.465,1.711,0.927,2.558,1.386c0.85,0.457,1.693,0.915,2.498,1.42c3.297,1.904,6.324,4.017,9.164,6.078
		c2.783,2.131,5.376,4.224,7.631,6.316c4.548,4.146,7.962,8.032,10.185,10.854c1.125,1.406,1.937,2.556,2.486,3.336
		c0.261,0.387,0.461,0.683,0.595,0.883c0.132,0.206,0.2,0.312,0.2,0.312L218.775,162.085z M278.491,235.984
		c-5.486,0-9.932,4.447-9.932,9.932c0,5.486,4.447,9.932,9.932,9.932s9.932-4.447,9.932-9.932
		C288.423,240.431,283.976,235.984,278.491,235.984z M248.046,291.567c-2.743,0-4.966,2.223-4.966,4.966
		c0,2.743,2.223,4.966,4.966,4.966s4.966-2.223,4.966-4.966C253.012,293.791,250.788,291.567,248.046,291.567z M254.07,205.017
		c0.029,0.99,0.81,1.812,1.818,1.871c1.066,0.063,1.98-0.75,2.043-1.816c0,0,0.037-0.622,0.105-1.788
		c0.061-1.159,0.118-2.848,0.156-4.999c0.02-2.149,0.041-4.76-0.049-7.751c-0.068-2.993-0.23-6.367-0.491-10.047
		c-0.276-3.678-0.641-7.663-1.19-11.865c-0.241-2.106-0.606-4.253-0.917-6.461c-0.39-2.193-0.734-4.449-1.199-6.722
		c-0.456-2.275-0.911-4.594-1.48-6.92c-0.514-2.339-1.14-4.684-1.778-7.05c-0.604-2.375-1.394-4.722-2.093-7.109
		c-0.8-2.355-1.574-4.736-2.454-7.083c-0.923-2.331-1.753-4.704-2.796-6.987c-0.501-1.151-1.001-2.3-1.499-3.445
		c-0.512-1.141-1.086-2.251-1.624-3.373c-0.555-1.114-1.073-2.243-1.656-3.333c-0.595-1.086-1.188-2.166-1.777-3.239
		c-1.135-2.174-2.464-4.211-3.711-6.254c-2.554-4.049-5.276-7.829-8.053-11.281c-0.342-0.436-0.681-0.869-1.018-1.299
		c-0.347-0.422-0.715-0.822-1.069-1.229c-0.714-0.81-1.417-1.607-2.109-2.391c-1.351-1.602-2.799-3.018-4.18-4.393
		c-2.688-2.83-5.489-5.073-7.861-7.198c-2.51-1.949-4.708-3.66-6.566-5c-3.826-2.531-6.013-3.978-6.013-3.978
		c-0.195-0.128-0.41-0.259-0.618-0.372c-4.128-2.253-9.3-0.733-11.553,3.394c-2.253,4.128-0.733,9.3,3.394,11.553l0.463,0.253
		c0,0,1.957,1.068,5.383,2.938c1.672,1.006,3.658,2.306,5.958,3.782c2.166,1.655,4.758,3.359,7.279,5.615
		c1.295,1.086,2.665,2.202,3.954,3.503c0.662,0.633,1.336,1.276,2.02,1.93c0.34,0.33,0.695,0.65,1.031,0.995
		c0.327,0.353,0.656,0.709,0.988,1.067c2.699,2.827,5.402,5.972,8,9.409c1.271,1.739,2.632,3.466,3.824,5.352
		c0.618,0.929,1.24,1.864,1.865,2.803c0.616,0.947,1.173,1.94,1.768,2.916c0.579,0.985,1.195,1.957,1.754,2.966
		c0.548,1.017,1.099,2.037,1.65,3.059c1.146,2.024,2.099,4.165,3.146,6.262c1.006,2.117,1.917,4.284,2.859,6.431
		c0.843,2.188,1.781,4.335,2.54,6.533c0.793,2.186,1.577,4.36,2.254,6.545c0.731,2.168,1.351,4.343,1.972,6.482
		c0.631,2.137,1.142,4.27,1.697,6.347c0.476,2.094,1.006,4.134,1.409,6.144c0.873,4.008,1.554,7.833,2.124,11.376
		c0.556,3.545,0.991,6.811,1.304,9.714c0.335,2.902,0.528,5.439,0.687,7.529c0.14,2.089,0.224,3.733,0.259,4.846
		c0.029,1.106,0.044,1.696,0.044,1.696L254.07,205.017z M200.24,298.367c0.922-0.183,1.577-1.036,1.492-1.994
		c-0.091-1.026-0.997-1.784-2.023-1.693c0,0-0.567,0.05-1.629,0.145c-1.043,0.113-2.566,0.29-4.486,0.585
		c-3.837,0.593-9.289,1.618-15.711,3.354c-3.218,0.847-6.667,1.897-10.291,3.1c-3.621,1.209-7.4,2.612-11.269,4.181
		c-3.861,1.585-7.816,3.328-11.759,5.266c-1.976,0.962-3.96,1.951-5.917,3.011c-1.982,1.02-3.924,2.125-5.87,3.233
		c-3.892,2.214-7.692,4.594-11.386,7.021c-1.846,1.214-3.627,2.491-5.418,3.718c-1.771,1.251-3.473,2.551-5.176,3.799
		c-3.346,2.566-6.553,5.101-9.486,7.632c-0.74,0.626-1.471,1.244-2.19,1.852c-0.699,0.631-1.387,1.252-2.064,1.862
		c-1.346,1.23-2.68,2.39-3.904,3.56c-2.419,2.365-4.715,4.475-6.595,6.485c-1.903,1.99-3.621,3.684-4.92,5.175
		c-2.656,2.942-4.174,4.622-4.174,4.622c-0.204,0.227-0.407,0.475-0.592,0.728c-2.961,4.052-2.077,9.737,1.974,12.698
		c4.052,2.961,9.737,2.077,12.698-1.974l0.161-0.22c0,0,1.234-1.689,3.394-4.644c1.054-1.504,2.47-3.213,4.034-5.234
		c1.542-2.042,3.454-4.191,5.464-6.618c1.019-1.2,2.138-2.394,3.267-3.664c0.568-0.632,1.146-1.274,1.732-1.927
		c0.608-0.632,1.225-1.273,1.85-1.923c2.476-2.633,5.208-5.291,8.076-8.007c1.463-1.322,2.926-2.704,4.458-4.043
		c1.55-1.314,3.093-2.686,4.702-4c3.22-2.628,6.555-5.234,10-7.697c1.723-1.231,3.447-2.467,5.216-3.621
		c1.745-1.194,3.522-2.322,5.297-3.427c3.543-2.223,7.124-4.266,10.642-6.157c3.526-1.875,6.994-3.589,10.336-5.104
		c3.344-1.509,6.548-2.86,9.549-3.992c5.99-2.307,11.13-3.836,14.745-4.785c1.809-0.474,3.237-0.791,4.207-0.999
		c0.957-0.187,1.467-0.286,1.467-0.286L200.24,298.367z M294.105,331.238c-0.856,0.575-1.085,1.735-0.51,2.592l0.025,0.037
		c0,0,1.006,1.498,2.766,4.12c1.746,2.639,4.208,6.436,7.072,11.042c5.736,9.201,13.062,21.676,19.496,34.471
		c1.615,3.195,3.152,6.415,4.629,9.59c1.448,3.186,2.827,6.329,4.07,9.387c1.238,3.059,2.37,6.023,3.333,8.841
		c0.975,2.815,1.801,5.481,2.459,7.929c0.682,2.45,1.158,4.679,1.55,6.634c0.163,0.97,0.315,1.878,0.455,2.717
		c0.127,0.833,0.176,1.578,0.259,2.258c0.189,1.37,0.158,2.371,0.201,3.073c0.03,0.695,0.046,1.065,0.046,1.065l0.022,0.53
		c0.017,0.339,0.053,0.681,0.109,1.025c0.81,4.958,5.485,8.321,10.443,7.511s8.321-5.485,7.511-10.443c0,0-0.087-0.531-0.249-1.527
		c-0.177-0.985-0.366-2.482-0.822-4.225c-0.217-0.879-0.426-1.875-0.718-2.909c-0.306-1.022-0.637-2.127-0.991-3.308
		c-0.768-2.312-1.672-4.882-2.794-7.571c-1.103-2.703-2.391-5.547-3.836-8.482c-1.435-2.941-3.042-5.961-4.755-9.034
		c-1.718-3.07-3.568-6.175-5.484-9.294c-1.94-3.101-3.938-6.221-5.999-9.287c-2.059-3.067-4.147-6.104-6.257-9.048
		c-2.095-2.954-4.208-5.817-6.265-8.574c-4.122-5.507-8.091-10.536-11.541-14.802c-3.451-4.265-6.39-7.761-8.472-10.191
		c-2.102-2.42-3.303-3.803-3.303-3.803C295.947,330.862,294.896,330.707,294.105,331.238z M359.996,323.653
		c-0.225,0.278-0.182,0.687,0.097,0.912l0.01,0.008c0,0,1.479,1.195,4.067,3.287c1.281,1.062,2.837,2.352,4.622,3.831
		c1.783,1.479,3.76,3.194,5.934,5.037c2.146,1.879,4.489,3.89,6.924,6.066c2.428,2.184,5.01,4.457,7.609,6.889
		c1.306,1.206,2.635,2.433,3.979,3.675c1.323,1.263,2.661,2.542,4.011,3.831c2.719,2.554,5.383,5.246,8.068,7.91
		c2.703,2.646,5.259,5.429,7.849,8.089c2.547,2.7,4.963,5.431,7.345,8.027c2.28,2.672,4.484,5.254,6.575,7.703
		c1.977,2.515,3.845,4.893,5.57,7.087c1.66,2.228,3.081,4.321,4.392,6.142c1.348,1.805,2.302,3.478,3.147,4.823
		c1.67,2.694,2.624,4.233,2.624,4.233l0.237,0.383c0.103,0.166,0.215,0.328,0.335,0.487c2.148,2.835,6.187,3.392,9.022,1.244
		s3.392-6.187,1.244-9.022c0,0-1.208-1.595-3.322-4.385c-1.064-1.384-2.301-3.119-3.907-4.899c-1.578-1.81-3.312-3.898-5.284-6.076
		c-2.018-2.119-4.204-4.415-6.516-6.842c-2.393-2.318-4.917-4.763-7.527-7.292c-2.69-2.427-5.424-4.981-8.276-7.48
		c-2.89-2.454-5.751-5.029-8.738-7.445c-2.971-2.436-5.917-4.895-8.9-7.208c-1.481-1.168-2.95-2.326-4.402-3.471
		c-1.47-1.119-2.922-2.225-4.35-3.313c-2.841-2.192-5.65-4.228-8.29-6.184c-2.646-1.948-5.185-3.74-7.51-5.414
		c-2.352-1.64-4.489-3.164-6.414-4.474c-1.924-1.309-3.602-2.45-4.984-3.39c-2.787-1.845-4.38-2.9-4.38-2.9
		C360.583,323.339,360.208,323.391,359.996,323.653z M278.213,222.163c0.321,0.16,0.71,0.029,0.87-0.291c0,0,1.354-2.717,3.919-7.39
		c2.571-4.665,6.35-11.272,11.162-19.015c2.427-3.859,5.07-8.026,7.988-12.349c2.884-4.343,6.052-8.834,9.367-13.44
		c3.36-4.575,6.873-9.261,10.595-13.892c0.929-1.158,1.861-2.32,2.797-3.486c0.958-1.146,1.918-2.295,2.88-3.446
		c1.904-2.318,3.904-4.565,5.885-6.824c1.961-2.276,4.049-4.434,6.054-6.643c2.05-2.168,4.135-4.281,6.186-6.388
		c2.119-2.036,4.173-4.103,6.279-6.053c2.138-1.914,4.172-3.89,6.301-5.673c4.197-3.64,8.359-7.003,12.411-10.002
		c4.037-3.026,7.986-5.649,11.656-7.987c1.861-1.114,3.644-2.182,5.341-3.198c1.72-0.959,3.379-1.804,4.918-2.633
		c0.774-0.403,1.51-0.823,2.242-1.175c0.737-0.34,1.448-0.667,2.13-0.981c1.361-0.63,2.611-1.208,3.739-1.73
		c2.284-0.963,4.105-1.621,5.328-2.118c1.227-0.482,1.881-0.74,1.881-0.74l0.525-0.206c0.273-0.108,0.544-0.23,0.812-0.365
		c4.886-2.459,6.853-8.413,4.394-13.299c-2.459-4.886-8.413-6.853-13.299-4.394c0,0-0.735,0.37-2.114,1.064
		c-1.369,0.708-3.414,1.684-5.932,3.044c-1.234,0.718-2.6,1.514-4.087,2.379c-0.741,0.433-1.513,0.884-2.313,1.352
		c-0.791,0.479-1.576,1.025-2.404,1.561c-1.642,1.093-3.411,2.225-5.225,3.477c-1.77,1.302-3.631,2.67-5.573,4.099
		c-3.793,2.95-7.82,6.221-11.854,9.888c-4.055,3.644-8.147,7.648-12.214,11.913c-2.069,2.101-4.012,4.373-6.06,6.595
		c-2.012,2.253-3.951,4.61-5.953,6.939c-1.926,2.391-3.879,4.788-5.784,7.23c-1.857,2.479-3.796,4.908-5.591,7.439
		c-1.816,2.515-3.647,5.014-5.371,7.571c-0.872,1.27-1.742,2.538-2.609,3.802c-0.842,1.28-1.681,2.556-2.516,3.827
		c-3.345,5.079-6.462,10.178-9.424,15.132c-2.915,4.985-5.683,9.822-8.176,14.478c-2.528,4.636-4.79,9.083-6.86,13.191
		c-4.098,8.24-7.256,15.219-9.388,20.135c-2.122,4.917-3.227,7.784-3.227,7.784C277.781,221.655,277.912,222.013,278.213,222.163z
		 M275.661,318.058c-1.127-0.395-2.361,0.198-2.756,1.325c0,0-0.744,2.122-2.046,5.836c-0.651,1.857-1.442,4.112-2.348,6.699
		c-0.847,2.624-1.716,5.645-2.713,8.919c-0.49,1.643-1,3.354-1.529,5.125c-0.457,1.779-0.93,3.618-1.417,5.509
		c-0.486,1.894-0.986,3.839-1.497,5.828c-0.544,1.985-0.913,4.045-1.391,6.125c-0.906,4.169-1.894,8.477-2.638,12.896
		c-0.403,2.208-0.809,4.433-1.217,6.666c-0.389,2.237-0.693,4.494-1.044,6.748c-0.33,2.256-0.704,4.51-0.995,6.764
		c-0.275,2.256-0.549,4.504-0.821,6.734c-0.598,4.46-0.914,8.871-1.351,13.138c-0.341,4.271-0.649,8.408-0.871,12.337
		c-0.192,3.931-0.398,7.651-0.465,11.094c-0.123,3.44-0.138,6.605-0.163,9.412c-0.008,2.811,0.018,5.265,0.057,7.3
		c0.046,2.034,0.091,3.641,0.145,4.762c0.058,1.163,0.089,1.783,0.089,1.783c0.015,0.282,0.043,0.581,0.085,0.866
		c0.728,4.963,5.341,8.397,10.305,7.669s8.397-5.341,7.669-10.305l-0.027-0.186c0,0-0.073-0.498-0.21-1.432
		c-0.143-0.975-0.326-2.449-0.552-4.337c-0.218-1.888-0.466-4.201-0.715-6.859c-0.232-2.664-0.509-5.672-0.708-8.971
		c-0.254-3.294-0.399-6.875-0.579-10.667c-0.15-3.791-0.237-7.797-0.306-11.944c0.028-4.143-0.082-8.44,0.083-12.794
		c0.055-2.181,0.11-4.379,0.166-6.585c0.072-2.207,0.224-4.416,0.333-6.631c0.13-2.213,0.212-4.434,0.381-6.636
		c0.187-2.202,0.373-4.395,0.557-6.571c0.308-4.366,0.865-8.627,1.355-12.765c0.27-2.064,0.435-4.117,0.778-6.09
		c0.311-1.981,0.615-3.92,0.911-5.807c0.296-1.89,0.584-3.729,0.863-5.507c0.345-1.755,0.678-3.451,0.998-5.079
		c0.659-3.258,1.211-6.251,1.794-8.912c0.655-2.662,1.225-4.982,1.695-6.893c0.94-3.822,1.477-6.006,1.477-6.006
		C277.303,319.55,276.718,318.429,275.661,318.058z M259.757,315.162c-0.018-0.03-0.058-0.039-0.088-0.021
		c0,0-0.305,0.175-0.859,0.547c-0.559,0.367-1.353,0.933-2.335,1.698c-0.486,0.39-1.024,0.822-1.61,1.292
		c-0.564,0.497-1.173,1.035-1.824,1.609c-0.669,0.562-1.299,1.234-2.008,1.908c-0.701,0.681-1.447,1.393-2.158,2.192
		c-0.73,0.788-1.49,1.609-2.278,2.459c-0.742,0.889-1.51,1.807-2.299,2.752c-0.392,0.476-0.804,0.95-1.195,1.446
		c-0.379,0.505-0.763,1.017-1.152,1.534c-0.777,1.039-1.571,2.101-2.379,3.18c-0.751,1.118-1.515,2.255-2.288,3.406
		c-0.779,1.151-1.571,2.319-2.273,3.546c-1.44,2.436-2.995,4.884-4.287,7.457c-0.676,1.276-1.352,2.553-2.026,3.824
		c-0.696,1.266-1.236,2.585-1.857,3.866c-1.186,2.58-2.443,5.103-3.405,7.629c-1.005,2.512-2.042,4.933-2.91,7.263
		c-0.822,2.347-1.599,4.565-2.317,6.613c-0.356,1.028-0.697,2.013-1.021,2.95c-0.282,0.947-0.55,1.845-0.801,2.689
		c-0.503,1.692-0.942,3.166-1.303,4.381c-0.723,2.435-1.136,3.827-1.136,3.827c-0.079,0.274-0.152,0.592-0.196,0.882
		c-0.527,3.523,1.903,6.807,5.426,7.333c3.523,0.527,6.807-1.903,7.333-5.426l0.04-0.27c0,0,0.203-1.36,0.559-3.739
		c0.178-1.193,0.394-2.641,0.642-4.302c0.124-0.832,0.256-1.718,0.395-2.652c0.18-0.923,0.37-1.893,0.568-2.906
		c0.403-2.03,0.839-4.229,1.3-6.555c0.507-2.315,1.161-4.72,1.775-7.239c0.572-2.537,1.419-5.061,2.197-7.672
		c0.415-1.293,0.752-2.637,1.24-3.919c0.467-1.295,0.937-2.594,1.406-3.894c0.883-2.635,2.025-5.145,3.07-7.671
		c0.505-1.274,1.1-2.486,1.687-3.687c0.583-1.207,1.16-2.399,1.727-3.572c0.626-1.141,1.241-2.263,1.843-3.361
		c0.303-0.551,0.602-1.096,0.898-1.634c0.308-0.53,0.637-1.037,0.949-1.547c0.631-1.018,1.245-2.009,1.839-2.967
		c0.642-0.926,1.263-1.821,1.859-2.68c0.582-0.875,1.202-1.661,1.787-2.416c0.593-0.747,1.118-1.497,1.687-2.129
		c0.555-0.649,1.074-1.257,1.554-1.819c0.506-0.539,0.971-1.034,1.39-1.482c0.852-0.883,1.556-1.552,2.048-1.985
		c0.489-0.44,0.769-0.659,0.769-0.659C259.766,315.226,259.774,315.19,259.757,315.162z"/>
</g>
<g id="Layer_4">
	<path fill="#F9F8F2" d="M268.558,284.779c0-4.889,3.964-8.853,8.853-8.853c4.889,0,8.853,3.964,8.853,8.853
		c0,4.889-3.964,8.853-8.853,8.853C272.522,293.631,268.558,289.668,268.558,284.779z"/>
</g>
<g id="Layer_5">
	<path fill="#FFE1AB" d="M309.955,289.745c0,2.743-2.223,4.966-4.966,4.966c-2.743,0-4.966-2.223-4.966-4.966
		s2.223-4.966,4.966-4.966C307.732,284.779,309.955,287.002,309.955,289.745z M309.955,245.361c-2.743,0-4.966,2.223-4.966,4.966
		c0,2.743,2.223,4.966,4.966,4.966c2.743,0,4.966-2.223,4.966-4.966C314.921,247.584,312.698,245.361,309.955,245.361z
		 M259.705,216.643c-2.743,0-4.966,2.223-4.966,4.966c0,2.743,2.223,4.966,4.966,4.966c2.743,0,4.966-2.223,4.966-4.966
		C264.672,218.866,262.448,216.643,259.705,216.643z M231.851,252.39c-8.944,0-16.194,7.25-16.194,16.194
		c0,8.944,7.25,16.194,16.194,16.194s16.194-7.25,16.194-16.194C248.046,259.641,240.795,252.39,231.851,252.39z M84.584,324.046
		c4.889,0,8.853-3.964,8.853-8.853s-3.964-8.853-8.853-8.853c-4.889,0-8.853,3.964-8.853,8.853S79.695,324.046,84.584,324.046z
		 M457.174,269.214c4.889,0,8.853-3.964,8.853-8.853c0-4.889-3.964-8.853-8.853-8.853c-4.889,0-8.853,3.964-8.853,8.853
		C448.321,265.251,452.284,269.214,457.174,269.214z M412.302,425.453c4.889,0,8.853-3.964,8.853-8.853
		c0-4.889-3.964-8.853-8.853-8.853c-4.889,0-8.853,3.964-8.853,8.853C403.449,421.49,407.413,425.453,412.302,425.453z
		 M168.646,425.453c4.889,0,8.853-3.964,8.853-8.853s-3.964-8.853-8.853-8.853s-8.853,3.964-8.853,8.853
		S163.757,425.453,168.646,425.453z M313.842,123.257c4.889,0,8.853-3.964,8.853-8.853c0-4.889-3.964-8.853-8.853-8.853
		c-4.889,0-8.853,3.964-8.853,8.853C304.989,119.293,308.952,123.257,313.842,123.257z M268.558,69.418
		c4.889,0,8.853-3.964,8.853-8.853s-3.964-8.853-8.853-8.853s-8.853,3.964-8.853,8.853S263.669,69.418,268.558,69.418z
		 M421.155,60.566c4.889,0,8.853-3.964,8.853-8.853s-3.964-8.853-8.853-8.853c-4.889,0-8.853,3.964-8.853,8.853
		S416.265,60.566,421.155,60.566z M93.437,77.577c4.889,0,8.853-3.964,8.853-8.853c0-4.889-3.964-8.853-8.853-8.853
		c-4.889,0-8.853,3.964-8.853,8.853C84.584,73.614,88.548,77.577,93.437,77.577z M75.732,254.769c4.889,0,8.853-3.964,8.853-8.853
		c0-4.889-3.964-8.853-8.853-8.853c-4.889,0-8.853,3.964-8.853,8.853C66.879,250.806,70.842,254.769,75.732,254.769z"/>
</g>
<g id="Layer_6">
	<path fill="#F9F8F2" d="M111.61,435.36l3.092-7.395c0.326-0.78,1.499-0.399,1.304,0.424l-1.845,7.8
		c-0.141,0.594,0.505,1.063,1.027,0.746l6.848-4.165c0.722-0.439,1.447,0.558,0.806,1.109l-6.078,5.226
		c-0.463,0.398-0.216,1.157,0.392,1.207l7.989,0.655c0.842,0.069,0.842,1.302,0,1.371l-7.989,0.655
		c-0.609,0.05-0.855,0.809-0.392,1.207l6.078,5.226c0.641,0.551-0.084,1.548-0.806,1.109l-6.848-4.165
		c-0.522-0.317-1.167,0.152-1.027,0.746l1.845,7.8c0.195,0.822-0.978,1.203-1.304,0.424l-3.092-7.395
		c-0.236-0.563-1.034-0.563-1.269,0l-3.092,7.395c-0.326,0.78-1.499,0.399-1.304-0.424l1.845-7.8
		c0.141-0.594-0.505-1.063-1.027-0.746l-6.848,4.165c-0.722,0.439-1.447-0.558-0.806-1.109l6.078-5.226
		c0.463-0.398,0.216-1.157-0.392-1.207l-7.989-0.655c-0.842-0.069-0.842-1.302,0-1.371l7.989-0.655
		c0.609-0.05,0.855-0.809,0.392-1.207l-6.078-5.226c-0.641-0.551,0.084-1.548,0.806-1.109l6.848,4.165
		c0.522,0.317,1.167-0.152,1.027-0.746l-1.845-7.8c-0.195-0.822,0.978-1.203,1.304-0.424l3.092,7.395
		C110.576,435.923,111.375,435.923,111.61,435.36z M66.244,143.301l-3.092-7.395c-0.326-0.78-1.499-0.399-1.304,0.424l1.845,7.8
		c0.141,0.594-0.505,1.063-1.027,0.746l-6.848-4.165c-0.722-0.439-1.447,0.558-0.806,1.109l6.078,5.226
		c0.463,0.398,0.216,1.157-0.392,1.207l-7.989,0.655c-0.842,0.069-0.842,1.302,0,1.371l7.989,0.655
		c0.609,0.05,0.855,0.809,0.392,1.207l-6.078,5.226c-0.641,0.551,0.084,1.548,0.806,1.109l6.848-4.165
		c0.522-0.317,1.167,0.152,1.027,0.746l-1.845,7.8c-0.195,0.822,0.978,1.203,1.304,0.424l3.092-7.395
		c0.236-0.563,1.034-0.563,1.269,0l3.092,7.395c0.326,0.78,1.499,0.399,1.304-0.424l-1.845-7.8
		c-0.141-0.594,0.505-1.063,1.027-0.746l6.848,4.165c0.722,0.439,1.447-0.558,0.806-1.109l-6.078-5.226
		c-0.463-0.398-0.216-1.157,0.392-1.207l7.989-0.655c0.842-0.069,0.842-1.302,0-1.371l-7.989-0.655
		c-0.609-0.05-0.855-0.809-0.392-1.207l6.078-5.226c0.641-0.551-0.084-1.548-0.806-1.109l-6.848,4.165
		c-0.522,0.317-1.167-0.152-1.027-0.746l1.845-7.8c0.195-0.822-0.978-1.203-1.304-0.424l-3.092,7.395
		C67.278,143.864,66.48,143.864,66.244,143.301z M338.104,44.914l-2.065-4.939c-0.421-1.006-1.934-0.514-1.683,0.547l1.232,5.21
		c0.181,0.767-0.652,1.372-1.325,0.963l-4.574-2.782c-0.931-0.567-1.867,0.72-1.04,1.431l4.059,3.49
		c0.597,0.514,0.279,1.493-0.506,1.558l-5.336,0.438c-1.087,0.089-1.087,1.68,0,1.769l5.336,0.438
		c0.785,0.064,1.103,1.044,0.506,1.558l-4.059,3.49c-0.827,0.711,0.108,1.998,1.04,1.431l4.574-2.782
		c0.673-0.409,1.506,0.196,1.325,0.963l-1.232,5.21c-0.251,1.061,1.262,1.553,1.683,0.547l2.065-4.939
		c0.304-0.727,1.334-0.727,1.638,0l2.065,4.939c0.421,1.006,1.934,0.514,1.683-0.547l-1.232-5.21
		c-0.181-0.767,0.652-1.372,1.325-0.963l4.574,2.782c0.931,0.567,1.867-0.72,1.04-1.431l-4.059-3.49
		c-0.597-0.514-0.279-1.493,0.506-1.558l5.336-0.438c1.087-0.089,1.087-1.68,0-1.769l-5.336-0.438
		c-0.785-0.064-1.103-1.044-0.506-1.558l4.059-3.49c0.827-0.711-0.108-1.998-1.04-1.431l-4.574,2.782
		c-0.673,0.409-1.506-0.196-1.325-0.963l1.232-5.21c0.251-1.061-1.262-1.553-1.683-0.547l-2.065,4.939
		C339.438,45.641,338.408,45.641,338.104,44.914z"/>
</g>
</svg>
