<?xml version="1.0" encoding="iso-8859-1"?>
<!-- Generator: Adobe Illustrator 18.1.1, SVG Export Plug-In . SVG Version: 6.00 Build 0)  -->
<!DOCTYPE svg PUBLIC "-//W3C//DTD SVG 1.1//EN" "http://www.w3.org/Graphics/SVG/1.1/DTD/svg11.dtd">
<svg version="1.1" xmlns="http://www.w3.org/2000/svg" xmlns:xlink="http://www.w3.org/1999/xlink" x="0px" y="0px"
	 viewBox="0 0 512 512" enable-background="new 0 0 512 512" xml:space="preserve">
<g id="Layer_2">
	<path fill="#D8E9EA" d="M21.716,501.617h467.234c6.6,0,12-5.4,12-12V206.002L9.716,387.766v101.851
		C9.716,496.217,15.116,501.617,21.716,501.617z"/>
</g>
<g id="Layer_3">
	<path fill="#597B91" d="M55.85,410.107c-5.48,0-10.777-0.91-15.768-2.733c-9.283-3.393-22.02-11.787-29.987-32.511
		c-2.279-5.928,0.68-12.581,6.608-14.86c5.928-2.277,12.582,0.679,14.861,6.608c3.906,10.161,9.428,16.607,16.413,19.159
		c7.278,2.662,14.999,0.838,20.193-1.159l389.441-149.709c5.925-2.277,12.581,0.68,14.86,6.608
		c2.278,5.928-0.68,12.582-6.607,14.861L76.423,406.08C69.446,408.762,62.513,410.107,55.85,410.107z"/>
</g>
<g id="Layer_4">
	<path fill="#464A4C" d="M195,63.073l-6.917,2.659c-7.16,2.752-10.733,10.788-7.98,17.947l25.094,65.278
		c0.697,1.812,2.73,2.716,4.542,2.02l26.283-10.104c1.812-0.697,2.716-2.73,2.02-4.542l-25.094-65.278
		C210.195,63.894,202.16,60.321,195,63.073z"/>
</g>
<g id="Layer_5">
	<path fill="#FF473E" d="M292.368,87.006c-4.515-11.745-17.697-17.607-29.442-13.091l-47.258,18.167
		c-15.559,5.981-23.323,23.443-17.342,39.002l33.92,88.236c0.002,0.005,0.004,0.01,0.006,0.016l-50.015,19.227
		c-30.025,11.542-45.008,45.239-33.466,75.264l1.981,5.155c7.491,19.487,29.362,29.212,48.849,21.721l128.49-49.394
		c20.601-7.919,30.881-31.04,22.962-51.64l-10.861-28.252c-0.141-0.367-0.295-0.725-0.449-1.084l0.028-0.011L292.368,87.006z"/>
</g>
<g id="Layer_6">
	<path fill="#464A4C" d="M336.373,201.479c-28.07,18.083-40.601,53.934-28.147,86.331c1.267,3.295,2.759,6.436,4.435,9.428
		l15.43-5.932c20.601-7.919,30.881-31.04,22.962-51.64l-10.861-28.252c-0.141-0.367-0.295-0.725-0.449-1.084l0.028-0.011
		L336.373,201.479z"/>
</g>
<g id="Layer_7">
	<path fill="#BFBCAF" d="M159.76,333.75c10.233,10.427,26.054,14.394,40.559,8.818l128.49-49.394
		c14.86-5.713,24.347-19.335,25.51-34.216L159.76,333.75z"/>
</g>
<g id="Layer_8">
	<path fill="#464A4C" d="M255.476,206.334c1.457-2.754,1.77-6.095,0.564-9.232c-1.305-3.395-4.091-5.775-7.334-6.713
		c-0.576-1.221-1.153-2.413-1.729-3.574c1.964-2.919,2.528-6.714,1.169-10.248c-1.784-4.639-6.326-7.401-11.035-7.143
		c-0.129-0.2-0.259-0.398-0.388-0.596c3.758-2.948,5.332-8.105,3.529-12.795c-2.214-5.758-8.676-8.632-14.434-6.418
		c-0.832,0.32-1.596,0.737-2.301,1.22c-7.731-9.721-14.399-17.722-18.86-29.328c-5.741-14.935,0.39-25.341,11.012-29.424
		c-15.559,5.981-31.816,1.351-25.835,16.91l42.412,110.328c0.002,0.005,0.004,0.01,0.006,0.016l-50.015,19.227
		c-14.688,5.646-24.204,13.59-29.455,25.108c-8.545,14.718-10.593,33.032-4.011,50.156l1.982,5.154
		c7.491,19.487,29.362,29.212,48.849,21.721l15.591-5.993l-27.132-70.58l1.888-0.717c3.017,2.603,7.332,3.506,11.312,1.976
		c3.951-1.519,6.542-5.038,7.066-8.957l2.232-0.848c3.013,2.554,7.29,3.428,11.237,1.91c3.916-1.506,6.493-4.978,7.048-8.856
		l8.956-3.402C262.396,235.778,263.573,227.554,255.476,206.334z"/>
</g>
<g id="Layer_9">
	<path fill="#FFE1AB" d="M212.081,170.863c-1.607,0-3.124-0.976-3.734-2.566c-0.793-2.062,0.236-4.376,2.298-5.168l16.422-6.313
		c2.061-0.794,4.376,0.236,5.168,2.298c0.793,2.062-0.236,4.376-2.298,5.168l-16.422,6.313
		C213.043,170.777,212.558,170.863,212.081,170.863z M221.409,191.131l16.422-6.313c2.062-0.792,3.091-3.106,2.298-5.168
		c-0.792-2.062-3.108-3.092-5.168-2.298l-16.422,6.313c-2.062,0.792-3.091,3.106-2.298,5.168c0.611,1.59,2.127,2.566,3.734,2.566
		C220.452,191.398,220.938,191.312,221.409,191.131z M229.303,211.666l16.422-6.313c2.062-0.792,3.091-3.106,2.298-5.168
		c-0.792-2.062-3.108-3.091-5.168-2.298l-16.422,6.313c-2.062,0.792-3.091,3.106-2.298,5.168c0.611,1.59,2.127,2.566,3.734,2.566
		C228.346,211.933,228.832,211.847,229.303,211.666z M218.435,248.753c2.062-0.792,3.091-3.106,2.298-5.168l-6.313-16.422
		c-0.792-2.062-3.107-3.091-5.168-2.298c-2.062,0.792-3.091,3.106-2.298,5.168l6.313,16.422c0.611,1.59,2.127,2.566,3.734,2.566
		C217.478,249.021,217.963,248.935,218.435,248.753z M197.901,256.647c2.062-0.792,3.091-3.107,2.298-5.169l-6.313-16.422
		c-0.793-2.062-3.105-3.09-5.169-2.298c-2.062,0.792-3.091,3.107-2.298,5.169l6.313,16.422c0.611,1.59,2.127,2.565,3.734,2.565
		C196.943,256.915,197.429,256.829,197.901,256.647z M248.011,231.983c0.989-1.976,0.189-4.379-1.786-5.368l-16.705-8.364
		c-1.975-0.99-4.379-0.189-5.368,1.786c-0.989,1.976-0.189,4.379,1.786,5.368l16.705,8.364c0.575,0.288,1.186,0.424,1.788,0.424
		C245.897,234.193,247.31,233.383,248.011,231.983z"/>
</g>
<g id="Layer_10">
	<path fill="#85DBF9" d="M344.121,145.933c-4.019,0-7.808-2.439-9.336-6.415c-1.981-5.155,0.591-10.941,5.746-12.922l92.407-35.523
		c5.152-1.981,10.94,0.59,12.922,5.746s-0.591,10.941-5.746,12.922l-92.407,35.523C346.527,145.717,345.314,145.933,344.121,145.933
		z M410.171,169.8l92.407-35.523c5.155-1.981,7.728-7.767,5.746-12.922c-1.982-5.155-7.77-7.727-12.922-5.746l-92.407,35.523
		c-5.155,1.981-7.728,7.767-5.746,12.922c1.528,3.975,5.317,6.415,9.336,6.415C407.778,170.469,408.991,170.254,410.171,169.8z
		 M399.755,222.353l72.88-28.016c5.155-1.981,7.728-7.767,5.746-12.922c-1.982-5.156-7.769-7.726-12.922-5.746l-72.88,28.016
		c-5.155,1.981-7.728,7.767-5.746,12.922c1.528,3.975,5.317,6.415,9.336,6.415C397.362,223.022,398.575,222.807,399.755,222.353z"/>
</g>
</svg>
