<svg xmlns="http://www.w3.org/2000/svg" viewBox="0 0 512 512" enable-background="new 0 0 512 512"><path fill="#FFAD29" d="M441.375 61.47c.01.003.017.01.027.014-.12-.004-.232-.015-.36-.015-36.41 0-288.088 97.512-288.088 97.512l58.35 80.977S400.526 113.055 438.04 73.26c.426-.87.818-1.697 1.176-2.48-16.852 36.763-107.528 172.253-149.333 234.06l-2.775 4.466 44.47 82.846c.002 0 124.618-326.135 109.798-330.684zm.403.37c-.037-.07-.082-.132-.132-.185.05.053.095.115.132.186zm.07 1.748c.1-.576.118-1.042.05-1.39.07.348.05.813-.05 1.39zm.04-1.44c-.022-.095-.05-.18-.085-.257.035.08.063.164.084.26zm-.27-.525c-.064-.058-.134-.106-.216-.14.08.034.152.082.215.14zm-.346 4.12c-.182.545-.4 1.137-.652 1.776.252-.64.47-1.234.652-1.777zm.562-2.08c-.03.167-.068.343-.112.528.044-.183.08-.36.112-.526zm-.14.647c-.046.184-.098.376-.156.577.058-.2.11-.393.155-.577zm-.188.69c-.07.236-.146.48-.232.738.085-.258.162-.503.232-.738zm-1.8 4.692c-.15.335-.303.678-.465 1.032.164-.353.32-.697.466-1.032zm.882-2.097c-.113.285-.233.58-.36.882.127-.303.247-.597.36-.882zm-.427 1.043c-.12.288-.247.584-.38.887.133-.303.26-.6.38-.887z"/></svg>