<?xml version="1.0" encoding="iso-8859-1"?>
<!-- Generator: Adobe Illustrator 18.1.1, SVG Export Plug-In . SVG Version: 6.00 Build 0)  -->
<!DOCTYPE svg PUBLIC "-//W3C//DTD SVG 1.1//EN" "http://www.w3.org/Graphics/SVG/1.1/DTD/svg11.dtd">
<svg version="1.1" xmlns="http://www.w3.org/2000/svg" xmlns:xlink="http://www.w3.org/1999/xlink" x="0px" y="0px"
	 viewBox="0 0 512 512" enable-background="new 0 0 512 512" xml:space="preserve">
<g id="Layer_2">
	<path fill="#F2A74E" d="M429.01,434.037h-59.559c-31.505,0-57.137-25.632-57.137-57.137V231.269
		c0-31.505,25.632-57.137,57.137-57.137h59.559c31.505,0,57.137,25.631,57.137,57.137V376.9
		C486.146,408.405,460.515,434.037,429.01,434.037z M369.451,216.405c-8.195,0-14.863,6.667-14.863,14.863V376.9
		c0,8.195,6.668,14.863,14.863,14.863h59.559c8.195,0,14.863-6.668,14.863-14.863V231.269c0-8.196-6.668-14.863-14.863-14.863
		H369.451z"/>
</g>
<g id="Layer_3">
	<path fill="#F9CB3A" d="M391.489,146.472l-11.511,287.777l-0.986,52.272c0,14.258-60.831,25.817-135.87,25.817
		s-135.87-11.559-135.87-25.817l-0.993-53.612l0.08,0L94.882,146.472c-0.832-20.791,15.798-38.099,36.606-38.099h223.396
		C375.691,108.373,392.321,125.681,391.489,146.472z"/>
</g>
<g id="Layer_4">
	<path fill="#F2A74E" d="M168.541,463.002c-7.931,0-14.52-6.261-14.851-14.259l-10.254-247.755
		c-0.34-8.208,6.039-15.137,14.246-15.477c8.227-0.338,15.137,6.039,15.477,14.246l10.254,247.755
		c0.34,8.208-6.039,15.137-14.246,15.477C168.957,462.998,168.748,463.002,168.541,463.002z M332.681,448.743l10.254-247.755
		c0.34-8.208-6.038-15.137-14.246-15.477c-8.222-0.346-15.137,6.039-15.477,14.246l-10.254,247.755
		c-0.34,8.208,6.038,15.137,14.246,15.477c0.21,0.009,0.418,0.013,0.626,0.013C325.761,463.002,332.35,456.741,332.681,448.743z
		 M259.952,448.128V195.269c0-8.215-6.659-14.874-14.874-14.874s-14.874,6.659-14.874,14.874v252.859
		c0,8.215,6.659,14.874,14.874,14.874S259.952,456.343,259.952,448.128z"/>
</g>
<g id="Layer_5">
	<path fill="#F7EAD7" d="M427.19,130.058c0,23.112-18.736,41.848-41.848,41.848c-15.129,0-28.381-8.03-35.732-20.059
		c-9.672,6.089-21.113,9.625-33.386,9.625c-15.423,0-29.538-5.572-40.465-14.801c-1.007,0.395-2.025,0.768-3.054,1.119
		c0.079,1.293,0.133,2.593,0.133,3.907c0,34.665-28.102,62.767-62.767,62.767c-30.008,0-55.083-21.065-61.282-49.21
		c-7.133,2.816-14.897,4.38-23.031,4.38c-34.665,0-62.767-28.102-62.767-62.767s28.102-62.767,62.767-62.767
		c0-23.112,18.736-41.848,41.848-41.848c15.129,0,28.381,8.03,35.732,20.059c12.518-10.158,28.466-16.254,45.844-16.254
		c24.38,0,45.946,11.994,59.163,30.39c2.583-0.324,5.21-0.51,7.881-0.51c31.304,0,57.249,22.919,61.987,52.89
		c2.319-0.398,4.699-0.618,7.131-0.618C408.454,88.21,427.19,106.946,427.19,130.058z"/>
</g>
</svg>
