<?xml version="1.0" encoding="iso-8859-1"?>
<!-- Generator: Adobe Illustrator 19.1.0, SVG Export Plug-In . SVG Version: 6.00 Build 0)  -->
<!DOCTYPE svg PUBLIC "-//W3C//DTD SVG 1.1//EN" "http://www.w3.org/Graphics/SVG/1.1/DTD/svg11.dtd">
<svg version="1.1" xmlns="http://www.w3.org/2000/svg" xmlns:xlink="http://www.w3.org/1999/xlink" x="0px" y="0px"
	 viewBox="0 0 512 512" enable-background="new 0 0 512 512" xml:space="preserve">
<g id="Layer_5">
	<path fill="#AF773F" d="M318.175,268.546l-60.315,16.305c-3.527-15.905-8.413-28.641-14.237-40.93l55.098-19.448
		c6.677,12.292,12.41,25.127,17.335,38.253C316.781,264.659,317.484,266.601,318.175,268.546z M265.113,368.513l73.876-7.585
		c-1.791-15.502-4.286-30.885-7.624-46.061l-67.403,11.547C265.116,340.358,265.457,354.419,265.113,368.513z M256.643,449.572
		h85.769c0.36-13.039,0.402-26.109,0.039-39.161h-80.217C260.796,423.531,258.896,436.607,256.643,449.572z"/>
</g>
<g id="Layer_1">
</g>
</svg>
