<?xml version="1.0" encoding="iso-8859-1"?>
<!-- Generator: Adobe Illustrator 19.2.1, SVG Export Plug-In . SVG Version: 6.00 Build 0)  -->
<!DOCTYPE svg PUBLIC "-//W3C//DTD SVG 1.1//EN" "http://www.w3.org/Graphics/SVG/1.1/DTD/svg11.dtd">
<svg version="1.1" xmlns="http://www.w3.org/2000/svg" xmlns:xlink="http://www.w3.org/1999/xlink" x="0px" y="0px"
	 viewBox="0 0 512 512" enable-background="new 0 0 512 512" xml:space="preserve">
<g id="Layer_2">
	<path fill="#BAC5C6" d="M402.879,488.793c0,11.182-9.065,20.247-20.247,20.247H126.247c-11.182,0-20.247-9.065-20.247-20.247
		V20.247C106,9.065,115.065,0,126.247,0h256.385c11.182,0,20.247,9.065,20.247,20.247V488.793z"/>
</g>
<g id="Layer_3">
	<path fill="#989FA0" d="M275.342,440.869c0,6.157-4.991,11.147-11.147,11.147h-19.465c-6.157,0-11.147-4.991-11.147-11.147V68.171
		c0-6.157,4.991-11.147,11.147-11.147h19.465c6.157,0,11.147,4.991,11.147,11.147V440.869z"/>
</g>
<g id="Layer_4">
	<path fill="#DBDBDB" d="M200.613,259.221c-4.737,0-8.577-3.84-8.577-8.577v-43.85c0-4.737,3.84-8.577,8.577-8.577h107.699
		c4.737,0,8.577,3.84,8.577,8.577v43.85c0,4.737-3.84,8.577-8.577,8.577h-32.967l-0.003,5.453h-41.76l0.002-5.453H200.613z"/>
</g>
<g id="Layer_5">
	<path fill="#464A4C" d="M200.613,238.935c-4.737,0-8.577-3.84-8.577-8.577v-43.85c0-4.737,3.84-8.577,8.577-8.577h107.699
		c4.737,0,8.577,3.84,8.577,8.577v43.85c0,4.737-3.84,8.577-8.577,8.577H200.613z"/>
</g>
</svg>
