<?xml version="1.0" encoding="iso-8859-1"?>
<!-- Generator: Adobe Illustrator 19.2.1, SVG Export Plug-In . SVG Version: 6.00 Build 0)  -->
<!DOCTYPE svg PUBLIC "-//W3C//DTD SVG 1.1//EN" "http://www.w3.org/Graphics/SVG/1.1/DTD/svg11.dtd">
<svg version="1.1" xmlns="http://www.w3.org/2000/svg" xmlns:xlink="http://www.w3.org/1999/xlink" x="0px" y="0px"
	 viewBox="0 0 512 512" enable-background="new 0 0 512 512" xml:space="preserve">
<g id="Layer_4">
	<path fill="#00B89C" d="M502.766,153.514l-0.283-0.327c0,0-1.869-2.162-5.14-5.947c-0.822-0.942-1.858-1.912-2.919-3.005
		c-1.091-1.074-2.209-2.276-3.522-3.478c-1.354-1.172-2.795-2.419-4.314-3.733c-0.387-0.322-0.752-0.669-1.171-0.981
		c-0.421-0.31-0.847-0.623-1.279-0.941c-0.864-0.631-1.748-1.277-2.651-1.937c-3.638-2.605-7.932-5.085-12.735-7.263
		c-0.583-0.301-1.207-0.539-1.842-0.767c-0.631-0.234-1.266-0.469-1.906-0.706c-0.64-0.234-1.284-0.469-1.931-0.705
		c-0.643-0.245-1.299-0.471-1.985-0.63c-1.357-0.352-2.729-0.708-4.114-1.067c-0.347-0.085-0.692-0.182-1.043-0.257l-1.068-0.174
		c-0.714-0.113-1.431-0.227-2.151-0.341c-1.44-0.227-2.89-0.474-4.367-0.516c-1.472-0.083-2.957-0.193-4.446-0.234
		c-1.483,0.048-2.975,0.096-4.475,0.145l-1.125,0.044l-1.111,0.129l-2.227,0.266c-5.927,0.771-11.776,2.228-17.22,4.321
		c-5.455,2.067-10.689,4.501-15.493,7.288c-2.664,1.531-5.242,3.112-7.729,4.731l0,0c-18.101-16.315-43.373-21.208-65.862-13.871
		c-0.058,0.243,0.005,0.434-0.076,0.684c-2.118,6.49-3.865,13.251,24.207,43.798c28.072,30.547,53.754,57.173,58.312,45.703
		c7.534-18.957,7.245-40.592-2.774-58.908c1.609-0.782,3.228-1.541,4.857-2.259c4.215-1.884,8.517-3.283,12.7-4.349
		c4.191-1.097,8.265-1.53,12.04-1.543l1.406,0.006l0.696-0.003l0.679,0.077c0.901,0.099,1.789,0.185,2.666,0.257
		c0.85,0.168,1.695,0.334,2.534,0.499c0.84,0.108,1.634,0.394,2.42,0.637c0.392,0.116,0.783,0.232,1.171,0.347l0.58,0.164
		c0.19,0.071,0.375,0.161,0.561,0.239c0.744,0.323,1.476,0.626,2.2,0.912c0.18,0.075,0.363,0.133,0.539,0.22l0.522,0.291
		c0.346,0.188,0.69,0.376,1.032,0.562c0.341,0.179,0.681,0.357,1.018,0.535c0.338,0.165,0.673,0.338,0.992,0.58
		c2.595,1.667,4.976,3.451,7.084,5.431c0.525,0.497,1.039,0.984,1.542,1.46c0.252,0.234,0.501,0.465,0.747,0.693
		c0.245,0.23,0.47,0.519,0.702,0.768c0.919,1.016,1.791,1.979,2.61,2.885c0.806,0.938,1.515,1.938,2.196,2.784
		c0.668,0.881,1.313,1.611,1.843,2.394c2.117,3.113,3.327,4.891,3.327,4.891c0.347,0.508,0.733,1.014,1.144,1.49
		c5.878,6.801,16.157,7.549,22.959,1.671C507.897,170.595,508.645,160.316,502.766,153.514z M399.617,142.532
		c0.557,0.621,1.106,1.254,1.644,1.901C400.723,143.786,400.174,143.154,399.617,142.532z M397.966,140.758
		c0.114,0.118,0.224,0.242,0.337,0.361C398.19,140.999,398.08,140.876,397.966,140.758z M404.894,149.253
		c0.1,0.146,0.201,0.291,0.3,0.437C405.095,149.543,404.994,149.398,404.894,149.253z M403.078,146.732
		c0.147,0.193,0.289,0.388,0.432,0.583C403.366,147.121,403.224,146.925,403.078,146.732z"/>
</g>
<g id="Layer_1">
</g>
</svg>
