<?xml version="1.0" encoding="iso-8859-1"?>
<!-- Generator: Adobe Illustrator 18.1.0, SVG Export Plug-In . SVG Version: 6.00 Build 0)  -->
<!DOCTYPE svg PUBLIC "-//W3C//DTD SVG 1.1//EN" "http://www.w3.org/Graphics/SVG/1.1/DTD/svg11.dtd">
<svg version="1.1" xmlns="http://www.w3.org/2000/svg" xmlns:xlink="http://www.w3.org/1999/xlink" x="0px" y="0px"
	 viewBox="0 0 512 512" enable-background="new 0 0 512 512" xml:space="preserve">
<g id="Layer_2">
	<polygon fill="#00B1FF" points="259,7.246 328.667,27.91 328.667,29.091 259,49.755 	"/>
</g>
<g id="Layer_3">
	<path fill="#597B91" d="M256,82.167c-1.657,0-3-1.343-3-3V5.833c0-1.657,1.343-3,3-3c1.657,0,3,1.343,3,3v73.333
		C259,80.824,257.657,82.167,256,82.167z"/>
</g>
<g id="Layer_4">
	<path fill="#FF473E" d="M28.954,318.476v131.898c0,29.679,101.652,53.739,227.046,53.739s227.046-24.06,227.046-53.739V318.476
		H28.954z"/>
</g>
<g id="Layer_5">
	<path fill="#2B3B47" d="M335.078,500.769c-56.113,0-74.894-77.146-78.425-94.601c-0.144-0.712-1.159-0.712-1.302,0.001
		c-3.516,17.456-22.227,94.6-78.34,94.6c0,0,34.164,3.344,78.989,3.344v-0.007c0.03,0,0.058,0.007,0.089,0.007
		C300.914,504.112,335.078,500.769,335.078,500.769z"/>
</g>
<g id="Layer_6">
	<path fill="#FF6E83" d="M335.078,500.769c24.588,0-6.412-37.881-6.412-37.881s-17.333,37.881-40.438,14.58
		C288.229,477.468,304.067,500.769,335.078,500.769z"/>
</g>
<g id="Layer_7">
	<path fill="#D5DEE4" d="M497.55,293.558c-0.138-3.588-1.671-7.096-4.479-10.497c-0.371-0.815-0.986-1.51-1.786-1.989
		c-6.383-6.489-17.436-12.552-32.271-17.983C395.669,226.229,260.5,138.993,260.5,65.766c0-2.485-2.015-4.5-4.5-4.5
		s-4.5,2.015-4.5,4.5c0,73.215-135.189,160.468-198.529,197.327c-14.826,5.429-25.873,11.491-32.255,17.977
		c-0.802,0.479-1.418,1.175-1.789,1.992c-2.807,3.401-4.34,6.909-4.478,10.496h-0.028v36.054c0,14.425,11.694,26.119,26.119,26.119
		h2.587c14.176,0,25.706-11.295,26.1-25.376c14.529,4.187,31.526,7.875,50.459,10.944v10.133c0,14.425,11.694,26.119,26.119,26.119
		h2.24c14.425,0,26.119-11.694,26.119-26.119V347.9c17.346,1.478,35.612,2.498,54.541,3.002v10.203
		c0,15.279,12.386,27.665,27.665,27.665h0.974c15.279,0,27.665-12.386,27.665-27.665v-10.249
		c18.287-0.518,35.944-1.519,52.741-2.948v3.524c0,14.425,11.694,26.119,26.119,26.119h1.539c14.425,0,26.119-11.694,26.119-26.119
		v-10.005c19.365-3.112,36.717-6.873,51.506-11.149c0.355,14.116,11.901,25.453,26.102,25.453h2.587
		c14.425,0,26.119-11.694,26.119-26.119v-36.054H497.55z"/>
</g>
<g id="Layer_8">
	<path fill="#FFFFFF" d="M256.007,63.253c0,128.984-101.909,216.252-129.582,237.571c-4.336,3.34-6.867,8.504-6.875,13.977
		l-0.038,26.954c0,14.425-11.694,26.119-26.119,26.119h-1.525c-14.425,0-26.119-11.694-26.119-26.119v-25.632
		c0-6.461,3.074-12.538,8.29-16.352c36.591-26.759,181.836-135.373,181.836-236.518H256.007z M256.066,63.779
		c0,101.141-66.22,219.636-79.769,242.82c-1.577,2.699-2.404,5.761-2.404,8.887v41.912c0,14.425,11.694,26.119,26.119,26.119h2.587
		c14.425,0,26.119-11.694,26.119-26.119v-44.872c0-1.223,0.163-2.433,0.486-3.612c3.68-13.396,26.992-103.694,26.992-241.162
		L256.066,63.779z M338.582,315.533c-0.012-3.141-0.864-6.216-2.477-8.912c-14.078-23.522-80.161-139.447-80.161-242.842
		l-0.132,3.973c0,133.843,23.253,222.984,28.052,239.959c0.569,2.013,0.86,4.092,0.86,6.185v43.502
		c0,14.425,11.694,26.119,26.119,26.119h1.772c14.425,0,26.119-11.694,26.119-26.119L338.582,315.533z M446.313,320.842
		c-0.034-9.378-4.483-18.184-12.013-23.774c-41.699-30.954-178.168-135.774-178.168-233.815H256
		c0,126.93,98.053,213.462,127.377,236.502c5.167,4.06,8.187,10.257,8.187,16.828v25.171c0,14.425,11.694,26.119,26.119,26.119
		h2.587c14.425,0,26.119-11.694,26.119-26.119L446.313,320.842z"/>
</g>
</svg>
