<svg xmlns="http://www.w3.org/2000/svg" viewBox="0 0 512 512" enable-background="new 0 0 512 512"><path fill="#C4A6FF" d="M465.377 57.533c0 7.483-6.067 13.55-13.55 13.55s-13.55-6.067-13.55-13.55 6.067-13.55 13.55-13.55 13.55 6.067 13.55 13.55zm-254.072 105.49c-7.483 0-13.55 6.066-13.55 13.55s6.067 13.55 13.55 13.55 13.55-6.068 13.55-13.55-6.066-13.55-13.55-13.55zM27.13 173.027c-7.482 0-13.55 6.067-13.55 13.55s6.068 13.55 13.55 13.55 13.55-6.067 13.55-13.55-6.066-13.55-13.55-13.55zm125.824 67.348c-4.11 0-7.444 3.333-7.444 7.444 0 4.11 3.333 7.442 7.444 7.442 4.11 0 7.444-3.333 7.444-7.444 0-4.11-3.333-7.445-7.444-7.445zm197.265-47.69c-4.114 0-7.447 3.332-7.447 7.443 0 4.11 3.333 7.443 7.444 7.443s7.443-3.33 7.443-7.442c0-4.113-3.332-7.445-7.443-7.445zM85.79 36.54c-4.11 0-7.444 3.333-7.444 7.444s3.333 7.444 7.444 7.444c4.11 0 7.444-3.333 7.444-7.444S89.9 36.54 85.79 36.54zm179.612 287.512c-7.865 0-14.24 6.376-14.24 14.24s6.376 14.24 14.24 14.24 14.24-6.376 14.24-14.24-6.375-14.24-14.24-14.24z"/></svg>