<?xml version="1.0" encoding="iso-8859-1"?>
<!-- Generator: Adobe Illustrator 19.1.0, SVG Export Plug-In . SVG Version: 6.00 Build 0)  -->
<!DOCTYPE svg PUBLIC "-//W3C//DTD SVG 1.1//EN" "http://www.w3.org/Graphics/SVG/1.1/DTD/svg11.dtd">
<svg version="1.1" xmlns="http://www.w3.org/2000/svg" xmlns:xlink="http://www.w3.org/1999/xlink" x="0px" y="0px"
	 viewBox="0 0 509.04 509.04" enable-background="new 0 0 509.04 509.04" xml:space="preserve">
<g id="Layer_14">
	<path fill="#E5AB83" d="M257.453,149.864c-0.002,0-0.004,0-0.005,0c-3.042-0.001-5.81-1.512-7.403-4.041
		c-0.542-0.859-0.284-1.994,0.575-2.535c0.858-0.543,1.994-0.284,2.535,0.575c0.917,1.454,2.522,2.323,4.294,2.324
		c0.001,0,0.002,0,0.003,0c1.773,0,3.382-0.869,4.302-2.326c0.542-0.858,1.677-1.116,2.536-0.572
		c0.858,0.542,1.115,1.678,0.573,2.536C263.266,148.354,260.496,149.864,257.453,149.864z M268.991,162.939
		c0.537-0.915,0.231-2.092-0.684-2.629c-0.917-0.538-2.093-0.23-2.629,0.684c-1.697,2.89-4.771,4.614-8.225,4.614
		c-0.001,0-0.002,0-0.002,0c-3.452,0-6.525-1.726-8.22-4.614c-0.537-0.915-1.714-1.222-2.629-0.685s-1.221,1.714-0.685,2.629
		c2.393,4.076,6.704,6.51,11.533,6.511c0.001,0,0.002,0,0.003,0C262.283,169.45,266.597,167.016,268.991,162.939z M236.197,116.426
		c0.049,0.01,0.098,0.017,0.148,0.023c1.01,0.114,1.922-0.612,2.036-1.622c0.114-1.01-0.612-1.922-1.622-2.036
		c0,0-0.21-0.024-0.577-0.065c-0.361-0.037-0.867-0.079-1.477-0.112c-1.217-0.068-2.845-0.085-4.5,0.092
		c-0.825,0.077-1.66,0.224-2.445,0.42c-0.39,0.077-0.775,0.228-1.133,0.339c-0.359,0.106-0.701,0.293-1.011,0.423
		c-0.312,0.124-0.59,0.337-0.837,0.478c-0.249,0.14-0.453,0.309-0.616,0.459c-0.325,0.29-0.511,0.456-0.511,0.456
		c-0.49,0.436-0.586,1.18-0.199,1.73c0.416,0.591,1.232,0.733,1.824,0.317l0.245-0.172c0,0,0.112-0.079,0.308-0.217
		c0.09-0.074,0.206-0.161,0.379-0.232c0.172-0.07,0.319-0.191,0.556-0.256c0.232-0.067,0.448-0.179,0.733-0.234
		c0.282-0.057,0.556-0.149,0.881-0.183c0.628-0.101,1.323-0.167,2.037-0.173c1.421-0.033,2.882,0.101,3.964,0.254
		c0.541,0.074,0.99,0.15,1.297,0.208c0.299,0.06,0.47,0.094,0.47,0.094L236.197,116.426z M278.148,112.814
		c-0.997,0.198-1.645,1.167-1.447,2.164c0.198,0.997,1.167,1.645,2.165,1.447l0.047-0.009c0,0,0.171-0.034,0.471-0.094
		c0.307-0.058,0.756-0.134,1.297-0.208c1.082-0.153,2.542-0.287,3.964-0.254c0.714,0.005,1.409,0.072,2.037,0.173
		c0.326,0.034,0.6,0.126,0.881,0.183c0.285,0.055,0.501,0.166,0.733,0.234c0.237,0.065,0.384,0.185,0.556,0.256
		c0.173,0.071,0.289,0.158,0.379,0.232c0.196,0.138,0.308,0.217,0.308,0.217l0.245,0.172c0.536,0.378,1.283,0.302,1.73-0.199
		c0.481-0.539,0.434-1.367-0.105-1.848c0,0-0.186-0.166-0.511-0.456c-0.164-0.149-0.367-0.319-0.616-0.459
		c-0.246-0.141-0.525-0.354-0.837-0.478c-0.31-0.13-0.653-0.316-1.011-0.423c-0.358-0.11-0.743-0.261-1.133-0.339
		c-0.785-0.196-1.621-0.342-2.445-0.42c-1.655-0.176-3.282-0.159-4.5-0.092c-0.609,0.032-1.116,0.075-1.477,0.112
		c-0.367,0.041-0.577,0.065-0.577,0.065C278.251,112.796,278.198,112.804,278.148,112.814z"/>
</g>
<g id="Layer_1">
</g>
</svg>
