<?xml version="1.0" encoding="iso-8859-1"?>
<!-- Generator: Adobe Illustrator 19.2.1, SVG Export Plug-In . SVG Version: 6.00 Build 0)  -->
<!DOCTYPE svg PUBLIC "-//W3C//DTD SVG 1.1//EN" "http://www.w3.org/Graphics/SVG/1.1/DTD/svg11.dtd">
<svg version="1.1" xmlns="http://www.w3.org/2000/svg" xmlns:xlink="http://www.w3.org/1999/xlink" x="0px" y="0px"
	 viewBox="0 0 512 512" enable-background="new 0 0 512 512" xml:space="preserve">
<g id="Layer_2">
	<path fill="#FF473E" d="M23.074,363.228c0,0,1.268-0.609,3.647-1.75c1.191-0.562,2.659-1.254,4.385-2.069
		c0.863-0.406,1.791-0.842,2.781-1.308c0.486-0.234,1.025-0.471,1.511-0.722c0.44-0.255,0.893-0.518,1.358-0.788
		c1.854-1.085,3.889-2.256,6.078-3.494c2.126-1.182,4.658-2.716,7.284-4.287c2.629-1.58,5.409-3.197,8.27-5.107
		c1.431-0.914,2.898-1.852,4.4-2.812c0.745-0.477,1.499-0.959,2.261-1.447c0.751-0.518,1.511-1.042,2.278-1.572
		c6.142-4.162,12.578-8.907,19.178-14.065c1.637-1.296,3.296-2.609,4.975-3.939c1.669-1.328,3.314-2.792,4.995-4.175
		c1.67-1.421,3.369-2.771,5.037-4.27c1.661-1.482,3.337-2.978,5.028-4.486c1.688-1.473,3.352-3.054,5.027-4.625
		c1.664-1.563,3.34-3.136,5.026-4.72c1.648-1.635,3.307-3.279,4.973-4.932c0.826-0.822,1.654-1.646,2.484-2.472
		c0.819-0.849,1.64-1.699,2.462-2.552c6.607-6.671,12.979-13.924,19.256-21.085c3.108-3.666,6.195-7.279,9.186-11.033
		c3.029-3.646,5.963-7.458,8.874-11.129c2.871-3.804,5.72-7.468,8.461-11.263c2.777-3.697,5.462-7.467,8.091-11.139
		c1.315-1.833,2.597-3.719,3.873-5.542c1.275-1.826,2.533-3.638,3.762-5.478c1.237-1.811,2.461-3.603,3.67-5.374
		c1.198-1.796,2.381-3.57,3.549-5.32c2.331-3.484,4.573-6.973,6.741-10.305c2.168-3.391,4.228-6.639,6.303-9.766
		c4.123-6.179,8.178-11.777,12.003-16.557c1.922-2.418,3.787-4.654,5.553-6.67c1.791-2.068,3.505-3.895,5.062-5.542
		c3.205-3.355,5.877-5.827,7.854-7.548c1.94-1.693,3.067-2.505,3.067-2.505c48.016-34.586,114.978-23.699,149.564,24.318
		c27.297,37.897,26.268,87.595,1.015,123.863l-0.557,0.746c0,0-0.771,1.103-2.388,2.999c-1.581,1.869-4.127,4.662-7.564,8.007
		c-1.771,1.697-3.741,3.571-5.961,5.533c-2.262,1.998-4.746,4.109-7.487,6.32c-5.53,4.448-12.032,9.261-19.628,14.228
		c-7.57,4.936-16.143,10.049-25.233,15.457c-9.067,5.41-18.93,10.925-29.209,16.441c-10.298,5.528-21.173,10.982-32.353,16.239
		c-11.242,5.233-22.799,10.255-34.568,14.865c-2.917,1.175-5.919,2.261-8.86,3.381c-2.948,1.116-5.897,2.202-8.9,3.219
		c-2.977,1.023-5.949,2.044-8.912,3.062c-2.992,0.953-5.975,1.904-8.946,2.851c-1.481,0.464-2.96,0.928-4.435,1.39
		c-1.496,0.428-2.988,0.855-4.477,1.28c-2.967,0.835-5.92,1.666-8.854,2.491c-2.961,0.753-5.904,1.502-8.826,2.245
		c-1.455,0.363-2.906,0.725-4.35,1.086c-1.444,0.355-2.92,0.651-4.365,0.975c-2.892,0.624-5.759,1.243-8.599,1.856
		c-2.826,0.613-5.696,1.089-8.481,1.619c-2.801,0.507-5.542,1.029-8.293,1.451c-2.747,0.404-5.461,0.803-8.138,1.197
		c-10.671,1.559-20.854,2.399-30.17,2.989c-9.339,0.532-17.841,0.767-25.395,0.559c-3.768-0.059-7.201-0.093-10.674-0.267
		c-3.389-0.134-6.477-0.291-9.251-0.46c-0.692-0.041-1.365-0.081-2.019-0.119c-0.612-0.057-1.146-0.14-1.696-0.206
		c-1.085-0.138-2.102-0.268-3.049-0.388c-1.893-0.244-3.503-0.451-4.809-0.619c-2.614-0.354-4.008-0.543-4.008-0.543
		c-16.258-2.201-27.654-17.165-25.452-33.423C7.869,375.814,14.463,367.438,23.074,363.228z"/>
</g>
<g id="Layer_1">
</g>
</svg>
