<?xml version="1.0" encoding="iso-8859-1"?>
<!-- Generator: Adobe Illustrator 18.1.1, SVG Export Plug-In . SVG Version: 6.00 Build 0)  -->
<!DOCTYPE svg PUBLIC "-//W3C//DTD SVG 1.1//EN" "http://www.w3.org/Graphics/SVG/1.1/DTD/svg11.dtd">
<svg version="1.1" xmlns="http://www.w3.org/2000/svg" xmlns:xlink="http://www.w3.org/1999/xlink" x="0px" y="0px"
	 viewBox="0 0 512 512" enable-background="new 0 0 512 512" xml:space="preserve">
<g id="Layer_2">
	<path fill="#D8D6CE" d="M275.194,294.903v133.242c28.887,13.815,80.361,40.096,80.361,51.97c0,16.505-44.53,29.885-99.46,29.885
		c-54.93,0-99.46-13.38-99.46-29.885c0-11.873,51.463-38.15,80.352-51.966V294.914C21.068,281.527,124.263,37.383,124.263,37.383
		h0.206c-0.133,0.729-0.206,1.462-0.206,2.201c0,21.861,58.98,39.583,131.737,39.583s131.737-17.722,131.737-39.583
		c0-0.739-0.073-1.472-0.206-2.201h0.206C387.737,37.383,490.874,281.391,275.194,294.903z"/>
</g>
<g id="Layer_3">
	<path fill="#E8E7E2" d="M387.737,39.583c0,21.861-58.98,39.583-131.737,39.583S124.263,61.445,124.263,39.583S183.244,0,256,0
		S387.737,17.722,387.737,39.583z"/>
</g>
<g id="Layer_4">
	<path fill="#930635" d="M372.607,52.914c0,0,84.547,219.093-116.607,219.093S139.393,52.914,139.393,52.914H372.607z"/>
</g>
<g id="Layer_5">
	<path fill="#B52D6B" d="M372.607,52.914c0,17.282-52.207,31.291-116.607,31.291s-116.607-14.01-116.607-31.291
		S191.6,21.622,256,21.622S372.607,35.632,372.607,52.914z"/>
</g>
<g id="Layer_6">
	<path fill="#BF4F7A" d="M184.917,226.039c-5.028,0-9.925-2.58-12.669-7.221c-23.576-39.861-22.511-81.21-18.95-112.781
		c0.91-8.069,8.186-13.875,16.26-12.963c8.069,0.911,13.873,8.19,12.963,16.26c-3.237,28.69-3.981,62.355,15.039,94.513
		c4.134,6.99,1.819,16.007-5.17,20.141C190.041,225.377,187.462,226.039,184.917,226.039z"/>
</g>
</svg>
