<?xml version="1.0" encoding="iso-8859-1"?>
<!-- Generator: Adobe Illustrator 19.1.0, SVG Export Plug-In . SVG Version: 6.00 Build 0)  -->
<!DOCTYPE svg PUBLIC "-//W3C//DTD SVG 1.1//EN" "http://www.w3.org/Graphics/SVG/1.1/DTD/svg11.dtd">
<svg version="1.1" xmlns="http://www.w3.org/2000/svg" xmlns:xlink="http://www.w3.org/1999/xlink" x="0px" y="0px"
	 viewBox="0 0 512 512" enable-background="new 0 0 512 512" xml:space="preserve">
<g id="Layer_6">
	<path fill="#E2DFD3" d="M180.53,281.432c22.848,0,16.32-11.242,40.343-11.242c17.76,0,19.094,13.842,19.094,24.269
		c0,13.637,11.055,24.692,24.692,24.692c13.637,0,24.692-11.054,24.692-24.692c0-38.79,9.555-26.71,24.692-26.71
		c4.818,0,9.21,1.421,12.631,0.424l-53.171-75.392l-0.004-0.005c-5.198-6.052-11.959-9.835-19.111-11.348
		c-11.921-2.522-24.927,1.261-33.59,11.348l-59.183,85.669C165.022,280.039,170.769,281.432,180.53,281.432z"/>
</g>
<g id="Layer_1">
</g>
</svg>
