<?xml version="1.0" encoding="iso-8859-1"?>
<!-- Generator: Adobe Illustrator 19.1.0, SVG Export Plug-In . SVG Version: 6.00 Build 0)  -->
<!DOCTYPE svg PUBLIC "-//W3C//DTD SVG 1.1//EN" "http://www.w3.org/Graphics/SVG/1.1/DTD/svg11.dtd">
<svg version="1.1" xmlns="http://www.w3.org/2000/svg" xmlns:xlink="http://www.w3.org/1999/xlink" x="0px" y="0px"
	 viewBox="0 0 512 512" enable-background="new 0 0 512 512" xml:space="preserve">
<g id="Layer_2">
	<path fill="#2B3B47" d="M217.968,341.743c0,0-0.541,0.698-1.555,2.008c-1.038,1.286-2.523,3.208-4.48,5.588
		c-1.95,2.387-4.337,5.266-7.125,8.52c-1.385,1.636-2.872,3.362-4.455,5.168c-1.571,1.818-3.237,3.714-4.992,5.676
		c-1.744,1.973-3.571,4.019-5.485,6.113c-1.905,2.103-3.873,4.279-5.93,6.481c-4.082,4.437-8.452,9.051-12.992,13.804
		c-2.284,2.363-4.606,4.765-6.957,7.197c-2.376,2.406-4.781,4.842-7.205,7.297c-2.411,2.468-4.911,4.887-7.382,7.352
		c-2.474,2.463-4.97,4.924-7.497,7.353c-2.52,2.437-5.039,4.874-7.549,7.301c-2.537,2.4-5.064,4.791-7.571,7.163
		c-5.058,4.701-10.059,9.303-14.976,13.679c-9.821,8.767-19.22,16.716-27.451,23.354c-4.112,3.323-7.941,6.31-11.358,8.933
		c-3.428,2.613-6.45,4.857-8.968,6.676C58.995,495.039,56,497,56,497c-14.924,9.771-34.943,5.594-44.714-9.33
		c-7.249-11.072-6.798-24.968,0-35.383c0,0,1.961-2.995,5.592-8.039c1.819-2.519,4.063-5.541,6.676-8.968
		c2.624-3.417,5.611-7.246,8.933-11.358c6.638-8.232,14.587-17.631,23.354-27.452c4.377-4.917,8.978-9.919,13.679-14.976
		c2.372-2.507,4.763-5.034,7.163-7.571c2.427-2.51,4.864-5.029,7.301-7.549c2.43-2.527,4.89-5.023,7.353-7.497
		c2.466-2.471,4.885-4.971,7.352-7.382c2.455-2.424,4.891-4.829,7.297-7.205c2.432-2.351,4.834-4.673,7.197-6.957
		c4.754-4.54,9.367-8.91,13.804-12.992c2.202-2.057,4.378-4.025,6.481-5.93c2.094-1.914,4.14-3.741,6.113-5.485
		c1.962-1.755,3.858-3.422,5.676-4.992c1.806-1.582,3.533-3.07,5.168-4.455c3.254-2.787,6.133-5.174,8.52-7.125
		c2.38-1.957,4.302-3.443,5.588-4.48c1.309-1.014,2.008-1.555,2.008-1.555c16.006-12.395,39.03-9.469,51.425,6.537
		C228.418,310.348,227.952,328.847,217.968,341.743z"/>
</g>
<g id="Layer_1">
</g>
</svg>
