<?xml version="1.0" encoding="iso-8859-1"?>
<!-- Generator: Adobe Illustrator 18.1.1, SVG Export Plug-In . SVG Version: 6.00 Build 0)  -->
<!DOCTYPE svg PUBLIC "-//W3C//DTD SVG 1.1//EN" "http://www.w3.org/Graphics/SVG/1.1/DTD/svg11.dtd">
<svg version="1.1" xmlns="http://www.w3.org/2000/svg" xmlns:xlink="http://www.w3.org/1999/xlink" x="0px" y="0px"
	 viewBox="0 0 512 512" enable-background="new 0 0 512 512" xml:space="preserve">
<g id="Layer_2">
	<path fill="#2B3B47" d="M478.251,307.661c-7.935-0.173-13.957,3.19-18.637,8.436C450.252,398.14,411.545,481,259.499,481
		C109.661,481,65.62,394.48,53.748,315.873c-4.652-5.117-10.612-8.383-18.432-8.212c-40.275,0.88-41.762-67.195-1.487-68.075
		c20.862,0,44.929-52.357,92.864-71.393l-22.105,84.631l-6.175,4.042h316.743l-6.175-4.042l-22.105-84.631
		c47.935,19.036,72.002,71.393,92.864,71.393C520.013,240.465,518.526,308.54,478.251,307.661z"/>
</g>
<g id="Layer_3">
	<path fill="#597B91" d="M462.446,256.865c0,63.313-92.393,114.639-206.366,114.639S49.715,320.178,49.715,256.865
		s92.393-114.639,206.366-114.639S462.446,193.552,462.446,256.865z"/>
</g>
<g id="Layer_4">
	<path fill="#F9E7C0" d="M437.204,271.745c0,50.78-81.092,91.946-181.123,91.946S74.957,322.526,74.957,271.745
		s81.092-91.946,181.123-91.946S437.204,220.965,437.204,271.745z"/>
</g>
<g id="Layer_5">
	<path fill="#2ABA34" d="M263.988,174.248c7.694-23.254-7.551-20.958-20.198,3.705c-0.165-0.023-0.326-0.043-0.485-0.061
		c7.171-23.129-9.621-19.125-22.351,8.522c7.644-21.068-5.303-20.509-18.356-4.583c2.765-16.364-11.652-11.24-23.151,12.879
		c-5.273-0.923-7.484,2.209-4.319,8.938c-0.857,0.319-1.737,0.668-2.642,1.054c-16.687-13.402-27.58-9.484-14.473,8.089
		c-0.079,0.054-0.159,0.11-0.238,0.165c-19.602-19.687-35.078-17.99-22.464,0.257c-0.228,0.069-0.46,0.147-0.698,0.233
		c-18.554-17.695-32.673-15.849-21.198,1.284c-3.157,0.23-6.891,0.772-11.315,1.714c-32.527,6.922-20.605,21.051,11.611,15.529
		c-14.832,19.492,0.331,22.274,20.306,3.059c0.148,0.075,0.294,0.146,0.439,0.216c-14.297,19.544,2.885,21.213,23.907-0.797
		c-14.074,17.441-1.648,21.119,15.871,10.298c-8.81,16.192,11.042,14.203,32.393-11.693c6.138-0.078,13.903-1.226,22.825-3.972
		c0,0,2.089-3.822,0.849-7.071c10.459,0.333,11.609-6.721-4.205-16.684c26.408,13.881,41.983,7.255,23.56-6.319
		c0.193-0.14,0.388-0.289,0.584-0.447c23.296,10.706,36.05,4.373,19.631-8.102c2.911-1.244,6.266-2.969,10.144-5.297
		C308.528,168.047,292.662,158.558,263.988,174.248z M144.075,223.834c0.019-0.024,0.038-0.048,0.056-0.072
		c0.084,0.087,0.165,0.167,0.248,0.253c-0.03,0.029-0.06,0.058-0.091,0.088C144.217,224.013,144.146,223.923,144.075,223.834z
		 M167.267,223.895c0.085-0.114,0.171-0.223,0.256-0.338c0,0-0.001-0.006-0.002-0.014c0.248,0.241,0.492,0.471,0.735,0.7
		c-0.146,0.124-0.292,0.249-0.438,0.376C167.635,224.375,167.451,224.135,167.267,223.895z M215.206,198.783
		c0.253,0.171,0.504,0.338,0.756,0.505c-0.044,0.135-0.089,0.267-0.132,0.402c0,0,0.003,0.005,0.006,0.013
		c-0.313-0.147-0.618-0.285-0.923-0.423C215.011,199.116,215.109,198.951,215.206,198.783z M237.627,191.626
		c0.096,0.061,0.193,0.124,0.289,0.184c-0.01,0.029-0.02,0.057-0.03,0.086c-0.107-0.055-0.21-0.105-0.317-0.158
		C237.588,191.701,237.607,191.663,237.627,191.626z M212.041,218.235c-1.544-1.239-3.389-2.543-5.544-3.901
		c2.668,1.402,5.226,2.596,7.649,3.594C213.472,218.015,212.767,218.119,212.041,218.235z"/>
</g>
<g id="Layer_6">
	<path fill="#F9F9F7" d="M336.375,200.704c42,0,42,42.645,0,42.645S294.375,200.704,336.375,200.704z M367.875,293.068
		c42,0,42-42.645,0-42.645S325.875,293.068,367.875,293.068z M346.375,334.718c42,0,42-42.645,0-42.645
		S304.375,334.718,346.375,334.718z"/>
</g>
<g id="Layer_7">
	<path fill="#FF473E" d="M320.68,281.5c-1.64,2.188-4.63,2.769-6.947,1.451l-0.433-0.246c0,0-0.888-0.504-2.442-1.385
		c-0.799-0.413-1.811-0.868-2.936-1.418c-1.177-0.476-2.493-1.037-3.969-1.55c-1.496-0.476-3.088-1.037-4.844-1.422
		c-1.719-0.494-3.596-0.754-5.496-1.115c-0.962-0.105-1.94-0.213-2.929-0.321c-0.983-0.14-1.987-0.159-2.993-0.185
		c-0.502-0.017-1.006-0.034-1.511-0.051l-0.757-0.027l-0.758,0.038c-1.006,0.045-2.016,0.09-3.026,0.135
		c-1.004,0.077-1.996,0.25-2.983,0.362l-1.474,0.186c-0.481,0.107-0.96,0.214-1.438,0.321c-0.951,0.219-1.899,0.394-2.819,0.627
		c-0.902,0.287-1.794,0.571-2.67,0.85c-0.436,0.141-0.872,0.262-1.295,0.411c-0.413,0.178-0.822,0.354-1.226,0.528
		c-0.806,0.34-1.594,0.672-2.362,0.996c-1.494,0.738-2.849,1.546-4.126,2.205c-1.114,0.751-2.065,1.436-2.949,2.007
		c-0.22,0.144-0.432,0.283-0.637,0.417c-0.256,0.209-0.502,0.41-0.739,0.603c-0.474,0.386-0.909,0.742-1.302,1.062
		c-1.572,1.283-2.471,2.016-2.471,2.016c-4.288,3.498-10.6,2.858-14.098-1.43c-3.498-4.288-2.858-10.6,1.43-14.098
		c0.311-0.254,0.634-0.486,0.965-0.697l0.058-0.035c0,0,0.982-0.616,2.702-1.693c0.43-0.269,0.906-0.567,1.424-0.892
		c0.259-0.162,0.529-0.331,0.808-0.506c0.365-0.195,0.743-0.398,1.134-0.607c1.567-0.823,3.349-1.774,5.275-2.693
		c1.901-0.734,3.929-1.588,6.122-2.329c1.116-0.315,2.262-0.638,3.434-0.969c0.584-0.161,1.175-0.324,1.771-0.488
		c0.604-0.132,1.222-0.233,1.839-0.35c1.235-0.221,2.49-0.445,3.76-0.673c1.277-0.16,2.576-0.249,3.877-0.37
		c0.65-0.055,1.303-0.11,1.957-0.165c0.655-0.004,1.312-0.007,1.97-0.011c1.314,0.01,2.632-0.031,3.94,0.034
		c1.303,0.105,2.607,0.211,3.905,0.316l0.969,0.082l0.957,0.149c0.635,0.101,1.269,0.202,1.9,0.302
		c1.261,0.197,2.508,0.391,3.714,0.709c1.211,0.29,2.407,0.559,3.571,0.863c0.27,0.085,0.535,0.166,0.802,0.249
		c-1.159-1.145-2.493-2.211-3.812-3.354c-0.779-0.574-1.57-1.158-2.372-1.749c-0.779-0.615-1.638-1.135-2.495-1.664l-1.281-0.804
		l-0.641-0.403l-0.674-0.348c-0.893-0.466-1.789-0.935-2.685-1.403c-0.906-0.438-1.851-0.787-2.761-1.186l-1.368-0.58
		c-0.47-0.149-0.938-0.297-1.404-0.445c-0.932-0.289-1.84-0.614-2.752-0.874c-0.924-0.205-1.838-0.407-2.736-0.606
		c-0.447-0.097-0.886-0.212-1.326-0.296c-0.446-0.054-0.888-0.107-1.326-0.159c-0.868-0.111-1.716-0.22-2.543-0.325
		c-1.663-0.112-3.241-0.095-4.675-0.166c-1.341,0.09-2.507,0.204-3.558,0.254c-0.262,0.014-0.516,0.027-0.761,0.04
		c-0.326,0.052-0.64,0.102-0.942,0.15c-0.604,0.096-1.158,0.185-1.659,0.264c-2.004,0.319-3.149,0.501-3.149,0.501
		c-5.465,0.87-10.601-2.854-11.471-8.319c-0.87-5.465,2.854-10.601,8.319-11.471c0.397-0.063,0.792-0.102,1.184-0.118l0.068-0.001
		c0,0,1.159-0.039,3.186-0.106c0.507-0.017,1.068-0.036,1.679-0.056c0.306-0.01,0.623-0.021,0.953-0.032
		c0.414,0.014,0.843,0.029,1.286,0.045c1.769,0.076,3.787,0.149,5.914,0.322c2.013,0.321,4.195,0.601,6.463,1.062
		c1.123,0.288,2.277,0.585,3.456,0.888c0.586,0.154,1.178,0.31,1.777,0.468c0.589,0.189,1.173,0.412,1.766,0.621
		c1.178,0.429,2.376,0.866,3.589,1.308c1.184,0.503,2.353,1.079,3.538,1.628c0.589,0.279,1.181,0.56,1.775,0.841l1.709,0.98
		c1.131,0.669,2.291,1.295,3.39,2.009c1.074,0.746,2.148,1.492,3.218,2.235l0.796,0.558l0.753,0.609
		c0.499,0.407,0.996,0.812,1.491,1.216c0.991,0.804,1.972,1.598,2.855,2.479c0.901,0.859,1.801,1.693,2.654,2.54
		c1.624,1.782,3.236,3.447,4.561,5.206c1.408,1.681,2.564,3.414,3.651,4.983c1.056,1.596,1.931,3.128,2.714,4.469
		c0.714,1.401,1.352,2.599,1.831,3.621c0.887,2.091,1.394,3.286,1.394,3.286c0.2,0.472,0.323,0.957,0.383,1.442
		c1.471,1.103,2.304,1.727,2.304,1.727C321.977,275.76,322.459,279.126,320.68,281.5z"/>
</g>
<g id="Layer_8">
	<path fill="#E2AF8D" d="M233.776,342.505c-31.657-8.718-11.5-76.618,23.59-72.893S354.567,375.77,233.776,342.505z M205.635,277.9
		c14.777-32.045-64.199-57.756-82.605-30.564C52.801,351.089,190.859,309.945,205.635,277.9z"/>
</g>
<g id="Layer_9">
	<path fill="#D19878" d="M177.42,346.598c-31.657-8.718-11.5-76.618,23.59-72.893C236.101,277.43,298.211,379.863,177.42,346.598z"
		/>
</g>
<g id="Layer_10">
	<path fill="#D7F4F7" d="M234.442,12.492c0,0,0.598,0.061,1.718,0.173c1.137,0.188,2.681,0.083,5.002,1.036
		c1.12,0.41,2.489,0.777,3.638,1.569c1.195,0.747,2.641,1.431,3.787,2.639c0.614,0.57,1.247,1.158,1.9,1.763
		c0.645,0.62,1.119,1.401,1.708,2.141c1.245,1.463,2.025,3.278,2.933,5.158c1.481,3.834,2.559,8.36,2.036,13.19
		c-0.465,4.781-2.074,9.934-5.502,14.325c-3.307,4.462-8.59,7.811-14.15,9.086l-2.098,0.516c-0.257,0.1-1.064,0.232-1.57,0.348
		l-1.734,0.358l-1.275,0.414c-1.674,0.471-3.555,1.401-5.182,2.309c-3.27,1.957-6.125,4.627-8.11,7.923
		c-1.963,3.282-3.443,6.94-3.962,10.723c-0.555,3.756-0.534,7.54,0.186,11.006c0.722,3.459,1.94,6.631,3.539,9.303
		c1.621,2.656,3.553,4.838,5.52,6.539c1.96,1.726,4.001,2.862,5.705,3.794c1.76,0.803,3.191,1.464,4.219,1.754
		c1.018,0.36,1.561,0.552,1.561,0.552l0.139,0.049c0.737,0.261,1.124,1.07,0.863,1.806c-0.215,0.608-0.804,0.977-1.417,0.941
		c0,0-0.624-0.036-1.794-0.105c-1.18-0.048-2.906-0.271-5.095-0.773c-2.145-0.609-4.85-1.376-7.607-3.06
		c-2.782-1.602-5.747-3.893-8.288-7.044c-5.164-6.185-8.644-15.737-7.652-25.966c0.456-5.084,1.897-10.381,4.742-15.143
		c2.761-4.789,6.917-8.969,11.773-11.938c2.545-1.365,4.978-2.515,7.882-3.302l2.133-0.581l1.741-0.322
		c0.647-0.128,1.008-0.167,1.888-0.369l1.321-0.32c3.508-0.789,6.694-2.315,8.864-4.96c2.195-2.562,3.705-5.741,4.388-9.03
		c0.689-3.312,0.368-6.595-0.249-9.525c-0.461-1.416-0.834-2.841-1.544-4.014c-0.327-0.598-0.549-1.273-0.937-1.793
		c-0.395-0.525-0.778-1.034-1.15-1.528c-0.66-1.104-1.681-1.711-2.44-2.523c-0.773-0.865-1.629-1.238-2.372-1.748
		c-1.361-1.071-3.126-1.577-4.131-1.988c-1.046-0.416-1.604-0.638-1.604-0.638c-0.732-0.292-1.09-1.122-0.798-1.854
		C233.206,12.778,233.824,12.43,234.442,12.492z M151.965,65.311c-0.645-1.013-1.991-1.311-3.003-0.666c0,0-0.4,0.255-1.149,0.732
		c-0.755,0.564-1.834,0.973-3.259,2.293c-0.7,0.63-1.476,1.328-2.32,2.088c-0.73,0.825-1.518,1.715-2.361,2.667
		c-1.553,2.024-3.098,4.489-4.462,7.392c-1.196,2.949-2.278,6.299-2.712,9.991c-0.597,3.686-0.302,7.665,0.364,11.721
		c0.695,4.079,2.336,8.12,4.523,11.944c1.199,1.85,2.403,3.736,3.933,5.388c0.725,0.859,1.451,1.723,2.308,2.456l2.225,1.983
		c1.287,1.194,3.127,2.63,3.664,3.51c0.843,0.858,1.663,2.135,2.493,3.335c1.434,2.533,2.673,5.14,3.396,7.874
		c0.663,2.724,1.183,5.46,1.149,8.106c0.096,2.648-0.185,5.178-0.657,7.507c-0.343,1.119-0.489,2.294-0.857,3.326
		c-0.388,1.019-0.703,2.039-1.094,2.958c-0.418,0.924-0.81,1.788-1.172,2.589c-0.449,0.75-0.867,1.455-1.229,2.122
		c-0.693,1.366-1.525,2.222-1.955,2.962c-0.475,0.709-0.728,1.087-0.728,1.087l-0.189,0.281c-0.425,0.638-0.499,1.481-0.121,2.208
		c0.553,1.064,1.864,1.479,2.928,0.926c0,0,0.454-0.237,1.305-0.678c0.818-0.491,2.193-1.055,3.582-2.239
		c0.728-0.557,1.554-1.176,2.389-1.924c0.777-0.814,1.617-1.695,2.515-2.636c1.665-2.012,3.311-4.508,4.744-7.471
		c1.223-3.016,2.45-6.438,2.831-10.234c0.565-3.777,0.285-7.868-0.532-11.986c-0.844-4.131-2.603-8.217-4.97-11.988
		c-1.287-1.819-2.528-3.644-4.329-5.442c-1.815-2.04-3.044-2.814-4.523-4.14l-2.015-1.7c-0.62-0.429-1.123-0.976-1.639-1.512
		c-1.113-1.003-1.971-2.22-2.889-3.388c-1.614-2.481-2.972-5.134-3.843-7.92c-0.814-2.785-1.321-5.632-1.317-8.369
		c-0.149-2.754,0.277-5.355,0.775-7.75c0.572-2.38,1.351-4.524,2.232-6.364c0.473-0.913,0.917-1.767,1.327-2.557
		c0.472-0.712,0.906-1.366,1.298-1.958c0.658-1.229,1.784-2.239,2.278-2.907c0.576-0.675,0.884-1.035,0.884-1.035
		C152.388,67.186,152.492,66.137,151.965,65.311z M347.48,65.311c-0.645-1.013-1.991-1.311-3.003-0.666c0,0-0.4,0.255-1.149,0.732
		c-0.755,0.564-1.834,0.973-3.259,2.293c-0.7,0.63-1.476,1.328-2.32,2.088c-0.73,0.825-1.518,1.715-2.361,2.667
		c-1.553,2.024-3.098,4.489-4.462,7.392c-1.196,2.949-2.278,6.299-2.712,9.991c-0.597,3.686-0.302,7.665,0.364,11.721
		c0.695,4.079,2.336,8.12,4.523,11.944c1.199,1.85,2.403,3.736,3.933,5.388c0.725,0.859,1.451,1.723,2.308,2.456l2.225,1.983
		c1.287,1.194,3.127,2.63,3.664,3.51c0.843,0.858,1.663,2.135,2.493,3.335c1.434,2.533,2.673,5.14,3.396,7.874
		c0.663,2.724,1.183,5.46,1.149,8.106c0.096,2.648-0.185,5.178-0.657,7.507c-0.343,1.119-0.489,2.294-0.857,3.326
		c-0.388,1.019-0.703,2.039-1.094,2.958c-0.418,0.924-0.81,1.788-1.172,2.589c-0.449,0.75-0.867,1.455-1.229,2.122
		c-0.693,1.366-1.525,2.222-1.955,2.962c-0.475,0.709-0.728,1.087-0.728,1.087l-0.189,0.281c-0.425,0.638-0.499,1.481-0.121,2.208
		c0.553,1.064,1.864,1.479,2.928,0.926c0,0,0.454-0.237,1.305-0.678c0.818-0.491,2.193-1.055,3.582-2.239
		c0.728-0.557,1.554-1.176,2.389-1.924c0.777-0.814,1.617-1.695,2.515-2.636c1.665-2.012,3.311-4.508,4.744-7.471
		c1.223-3.016,2.45-6.438,2.831-10.234c0.565-3.777,0.285-7.868-0.532-11.986c-0.844-4.131-2.603-8.217-4.97-11.988
		c-1.287-1.819-2.528-3.644-4.329-5.442c-1.815-2.04-3.044-2.814-4.523-4.14l-2.015-1.7c-0.62-0.429-1.123-0.976-1.639-1.512
		c-1.113-1.003-1.971-2.22-2.889-3.388c-1.614-2.481-2.972-5.134-3.843-7.92c-0.814-2.785-1.321-5.632-1.317-8.369
		c-0.149-2.754,0.277-5.355,0.775-7.75c0.572-2.38,1.351-4.524,2.232-6.364c0.473-0.913,0.917-1.767,1.327-2.557
		c0.472-0.712,0.906-1.366,1.298-1.958c0.658-1.229,1.784-2.239,2.278-2.907c0.576-0.675,0.884-1.035,0.884-1.035
		C347.903,67.186,348.006,66.137,347.48,65.311z M275.66,164.286c0.609-0.437,0.749-1.287,0.312-1.897c0,0-0.173-0.241-0.496-0.691
		c-0.284-0.443-0.896-1.132-1.278-1.931c-0.489-0.753-0.967-1.77-1.479-2.94c-0.429-1.186-0.87-2.516-0.985-3.98
		c-0.241-1.44-0.082-3.001,0.271-4.54c0.351-1.547,1.067-3.085,2.077-4.51c1.01-1.42,2.284-2.774,3.838-3.92
		c0.373-0.299,0.752-0.594,1.186-0.84l1.503-0.964c1.003-0.718,1.825-1.108,3.08-2.367c2.399-2.182,3.783-4.396,5.098-6.853
		c1.272-2.416,1.953-4.984,2.434-7.454c0.485-2.479,0.47-4.925,0.308-7.202c-0.186-2.284-0.697-4.404-1.338-6.294
		c-0.65-1.887-1.518-3.529-2.39-4.889c-0.91-1.352-1.806-2.436-2.68-3.216c-0.761-0.852-1.614-1.296-2.088-1.66
		c-0.499-0.34-0.765-0.521-0.765-0.521c-0.399-0.272-0.933-0.32-1.389-0.079c-0.659,0.348-0.911,1.164-0.564,1.823l0.116,0.22
		c0,0,0.131,0.249,0.377,0.715c0.202,0.498,0.664,1.057,0.981,1.961c0.37,0.858,0.804,1.871,1.113,3.11
		c0.338,1.214,0.657,2.591,0.791,4.128c0.245,1.507,0.204,3.186,0.167,4.919c-0.037,1.746-0.379,3.553-0.74,5.382
		c-0.406,1.825-1.063,3.628-1.856,5.339c-0.781,1.625-1.966,3.424-3.033,4.412c-0.317,0.498-1.537,1.314-2.378,2.016l-0.044,0.034
		c-0.06,0.042,0.456-0.306,0.225-0.15l-0.026,0.019l-0.103,0.074l-0.204,0.148l-0.409,0.297l-0.81,0.596
		c-0.549,0.377-1.059,0.823-1.558,1.279c-2.039,1.74-3.801,3.856-5.028,6.208c-1.236,2.326-2.112,4.825-2.261,7.282
		c-0.159,2.432,0.045,4.753,0.712,6.716c0.604,1.985,1.538,3.597,2.392,4.953c0.958,1.281,1.855,2.335,2.713,3.135
		c0.825,0.864,1.471,1.21,1.913,1.589c0.441,0.336,0.676,0.516,0.676,0.516C274.503,164.613,275.162,164.644,275.66,164.286z"/>
</g>
</svg>
