<svg xmlns="http://www.w3.org/2000/svg" viewBox="0 0 512 512" enable-background="new 0 0 512 512"><path fill="#FF6E83" d="M384.074 54.182s.265.437.707 1.255c.43.812 1.134 2.044 1.874 3.58l1.29 2.59 1.388 3.045c1.02 2.204 2.107 4.702 3.19 7.444 4.406 11.002 9.136 26.075 11.833 42.936 2.747 16.882 3.455 35.55 1.194 54.31-1.113 9.39-2.94 18.81-5.504 28.093-2.53 9.297-5.836 18.438-9.71 27.345-3.906 8.895-8.352 17.567-13.363 25.843-4.976 8.29-10.544 16.172-16.475 23.578-5.942 7.404-12.324 14.295-18.918 20.607-3.298 3.155-6.653 6.164-10.035 9.02-1.677 1.43-3.413 2.804-5.108 4.155-1.666 1.364-3.4 2.66-5.1 3.93-13.573 10.17-27.126 17.72-37.618 22.59l-3.773 1.71-3.467 1.447c-2.112.915-4.067 1.63-5.632 2.215-3.144 1.168-5.01 1.713-5.01 1.713-12.378 3.62-25.27-2.03-31.262-12.862 0 0-.94-1.7-2.353-4.742-.7-1.517-1.586-3.4-2.442-5.537-.45-1.077-.93-2.234-1.444-3.468-.464-1.215-.957-2.505-1.48-3.868-4.024-10.845-8.34-25.747-10.827-42.523-.316-2.1-.636-4.24-.86-6.38-.253-2.155-.52-4.35-.705-6.55-.395-4.408-.66-8.906-.784-13.47-.242-9.125.073-18.512 1.06-27.95.997-9.436 2.587-18.955 4.885-28.347 2.263-9.406 5.207-18.697 8.692-27.764 3.516-9.056 7.6-17.878 12.344-26.263 4.71-8.4 10.044-16.38 15.86-23.832 11.594-14.92 25.235-27.686 39.066-37.748 13.783-10.082 27.75-17.463 38.624-22.178 2.7-1.188 5.23-2.198 7.504-3.047l3.13-1.186 2.738-.933c1.606-.57 2.972-.95 3.848-1.226.89-.27 1.386-.394 1.386-.394 12.404-3.11 24.96 2.475 31.264 12.862z"/></svg>