<?xml version="1.0" encoding="iso-8859-1"?>
<!-- Generator: Adobe Illustrator 18.1.1, SVG Export Plug-In . SVG Version: 6.00 Build 0)  -->
<!DOCTYPE svg PUBLIC "-//W3C//DTD SVG 1.1//EN" "http://www.w3.org/Graphics/SVG/1.1/DTD/svg11.dtd">
<svg version="1.1" xmlns="http://www.w3.org/2000/svg" xmlns:xlink="http://www.w3.org/1999/xlink" x="0px" y="0px"
	 viewBox="0 0 512 512" enable-background="new 0 0 512 512" xml:space="preserve">
<g id="Layer_7">
	<path fill="#F9F9F7" d="M348.192,266.272c0,1.83-0.219,3.558-0.622,5.201c-6.933,43.113-72.125,76.909-151.538,76.909
		c-82.571,0-149.775-36.537-152.093-82.094c-0.042-0.01-0.067-0.015-0.067-0.015c0-0.455,0.018-0.905,0.024-1.358
		c-0.008-0.353-0.024-0.705-0.024-1.059c0-1.989,0.133-3.961,0.377-5.916c6.018-68.951,85.868-116.082,151.783-116.082
		c65.506,0,144.781,49.558,151.669,115.2c0.321,2.243,0.491,4.509,0.491,6.798c0,0.363-0.016,0.724-0.025,1.085
		C348.174,265.385,348.192,265.827,348.192,266.272z"/>
</g>
<g id="Layer_1">
</g>
</svg>
