<svg xmlns="http://www.w3.org/2000/svg" viewBox="0 0 512 512" enable-background="new 0 0 512 512"><path fill="#D5DEE4" d="M405.294 283.064l-3.808 15.762c-.497 2.055-2.336 3.503-4.45 3.503h-16.797c-3.078 0-5.28-2.976-4.38-5.92l29.596-96.738c.59-1.925 2.366-3.24 4.378-3.24h23.94c2.013 0 3.79 1.315 4.378 3.24l29.593 96.74c.9 2.942-1.3 5.917-4.378 5.917H445.96c-2.115 0-3.954-1.45-4.45-3.504l-3.81-15.76c-.496-2.056-2.335-3.504-4.45-3.504h-23.507c-2.113 0-3.952 1.447-4.45 3.502zm26.062-27.5l-5.486-22.608c-1.132-4.665-7.767-4.665-8.9 0l-5.484 22.61c-.7 2.88 1.484 5.657 4.45 5.657h10.97c2.966 0 5.15-2.776 4.45-5.658z"/></svg>