<?xml version="1.0" encoding="iso-8859-1"?>
<!-- Generator: Adobe Illustrator 19.1.0, SVG Export Plug-In . SVG Version: 6.00 Build 0)  -->
<!DOCTYPE svg PUBLIC "-//W3C//DTD SVG 1.1//EN" "http://www.w3.org/Graphics/SVG/1.1/DTD/svg11.dtd">
<svg version="1.1" xmlns="http://www.w3.org/2000/svg" xmlns:xlink="http://www.w3.org/1999/xlink" x="0px" y="0px"
	 viewBox="0 0 509.04 509.04" enable-background="new 0 0 509.04 509.04" xml:space="preserve">
<g id="Layer_6">
	<path fill="#2B3B47" d="M391.059,306.672h-15.218c-3.885,0-7.035-3.15-7.035-7.035v-31.945c0-3.885,3.15-7.035,7.035-7.035h15.218
		c3.885,0,7.035,3.15,7.035,7.035v31.945C398.094,303.523,394.944,306.672,391.059,306.672z M469.476,299.638v-31.945
		c0-3.885-3.15-7.035-7.035-7.035h-15.218c-3.885,0-7.035,3.15-7.035,7.035v31.945c0,3.885,3.15,7.035,7.035,7.035h15.218
		C466.327,306.672,469.476,303.523,469.476,299.638z M222.07,261.307v-50.121c0-6.096-4.941-11.037-11.037-11.037h-23.877
		c-6.096,0-11.037,4.941-11.037,11.037v50.121c0,6.096,4.941,11.037,11.037,11.037h23.877
		C217.129,272.343,222.07,267.402,222.07,261.307z M294.659,322.848h-52.1v68.586h52.1V322.848z M108.836,300.819v-30.544
		c0-3.715-3.011-6.726-6.726-6.726H87.559c-3.715,0-6.726,3.011-6.726,6.726v30.544c0,3.715,3.011,6.726,6.726,6.726h14.551
		C105.825,307.545,108.836,304.534,108.836,300.819z M108.836,364.408v-30.544c0-3.715-3.011-6.726-6.726-6.726H87.559
		c-3.715,0-6.726,3.011-6.726,6.726v30.544c0,3.715,3.011,6.726,6.726,6.726h14.551
		C105.825,371.134,108.836,368.123,108.836,364.408z M6.362,244.855h124.705c3.871,0,5.388-5.023,2.163-7.166l-62.352-28.057
		c-1.311-0.871-3.016-0.871-4.326,0L4.199,237.689C0.974,239.831,2.491,244.855,6.362,244.855z"/>
</g>
<g id="Layer_1">
</g>
</svg>
