<?xml version="1.0" encoding="iso-8859-1"?>
<!-- Generator: Adobe Illustrator 18.1.1, SVG Export Plug-In . SVG Version: 6.00 Build 0)  -->
<!DOCTYPE svg PUBLIC "-//W3C//DTD SVG 1.1//EN" "http://www.w3.org/Graphics/SVG/1.1/DTD/svg11.dtd">
<svg version="1.1" xmlns="http://www.w3.org/2000/svg" xmlns:xlink="http://www.w3.org/1999/xlink" x="0px" y="0px"
	 viewBox="0 0 512 512" enable-background="new 0 0 512 512" xml:space="preserve">
<g id="Layer_4">
	<path fill="#EABC54" d="M372.988,325.216h-81.542h-24.302h-81.542l4.85,30.478c10.449,3.56,23.444,6.878,38.894,9.262
		l-23.129,23.129l-10.225-10.225l2.494,15.701l1.128,1.128l-0.819,0.819l1.81,11.397l5.612-5.612l25.786,25.786l-24.33,24.33
		l3.044,19.163l21.286,21.286l-5.824,5.824c2.5,1.769,5.28,3.409,8.307,4.9l4.121-4.121l9.262,9.262
		c5.166,1.507,10.729,2.65,16.581,3.374l-19.239-19.239l25.786-25.786l25.786,25.786l-20.11,20.11
		c0.83,0.017,1.659,0.033,2.496,0.033c3.819,0,7.557-0.186,11.202-0.525l13.015-13.015l8.759,8.759
		c3.387-1.057,6.586-2.276,9.576-3.631l-11.732-11.732l25.786-25.786l11.058,11.058l1.813-11.394l-6.267-6.267l8.64-8.64
		l2.499-15.706l-17.742,17.742l-25.786-25.786l25.786-25.786l19.951,19.951l1.813-11.394l-15.161-15.161l20.899-20.899l2.668-16.768
		c0.711-0.242,1.412-0.486,2.098-0.731L372.988,325.216z M279.168,368.601c3.937,0,7.754-0.05,11.457-0.146l-19.629,19.629
		l-20.659-20.659C259.312,368.171,268.912,368.601,279.168,368.601z M212.82,394.688l25.786-25.786l25.786,25.786l-25.786,25.786
		L212.82,394.688z M238.606,485.253l-25.786-25.786l25.786-25.786l25.786,25.786L238.606,485.253z M245.209,427.077l25.786-25.786
		l25.786,25.786l-25.786,25.786L245.209,427.077z M329.171,459.467l-25.786,25.786l-25.786-25.786l25.786-25.786L329.171,459.467z
		 M303.385,420.474l-25.786-25.786l25.786-25.786l25.786,25.786L303.385,420.474z M361.56,362.298l-25.786,25.786l-21.009-21.009
		c17.797-1.626,32.218-4.422,43.82-7.751L361.56,362.298z"/>
</g>
<g id="Layer_1">
</g>
</svg>
