<svg xmlns="http://www.w3.org/2000/svg" viewBox="0 0 512 512" enable-background="new 0 0 512 512"><path fill="#3BCCFF" d="M495.64 222.776c-.265-2.245-.55-4.488-.87-6.73-.068-.07-.144-.122-.214-.188-8.68-50.682-33.118-95.976-68.09-130.674-4.01 4.41-9.513 5.057-18.373 2.71-7.6-2.012-14.63-6.08-22.158-8.465-22.014-6.974-36.926-.367-46.89 20.3-.287.596-.66 1.172-.826 1.8-3.88 14.6-21.48 15.487-27.617 27.11-5.823 11.027-10.008 21.904-20.978 30.2-10.618 8.03-18.926 19.9-26.114 31.413-5.054 8.097-3.072 17.984 3.36 25.893 1.65 2.024 3.997 3.46 5.85 5.336 16.586 16.786 16.96 31.736-.016 47.707-8.158 7.673-14.38 14.303-17.058 26.752-2.922 13.585-15.997 16.08-29.82 14.882-2.414-.21-4.62-1.502-5.874-3.573-5.594-9.234-12.608-17.02-26.07-17.273-4.608-.086-8.847-7.33-13.677-10.69-9.655-6.713-18.92-14.614-29.573-19.135-22.15-9.402-42.698.37-50.03 23.78-4.094 13.064-5.306 27.07-7.35 40.723-1.252 8.354.404 18.68-9.66 21.902-10.82 3.463-16.597-5.548-22.4-12.78-11.15-13.9-15.81-30.254-17.7-47.6-.357-3.276-.14-6.612-.392-9.905-1.796-23.417-7.282-29.333-28.945-29.16-.132 3.28-.204 6.576-.204 9.89 0 133.68 108.37 242.048 242.05 242.048S498.05 390.68 498.05 257c0-11.618-.828-23.043-2.41-34.224z"/></svg>