<?xml version="1.0" encoding="iso-8859-1"?>
<!-- Generator: Adobe Illustrator 18.1.0, SVG Export Plug-In . SVG Version: 6.00 Build 0)  -->
<!DOCTYPE svg PUBLIC "-//W3C//DTD SVG 1.1//EN" "http://www.w3.org/Graphics/SVG/1.1/DTD/svg11.dtd">
<svg version="1.1" xmlns="http://www.w3.org/2000/svg" xmlns:xlink="http://www.w3.org/1999/xlink" x="0px" y="0px"
	 viewBox="0 0 512 512" enable-background="new 0 0 512 512" xml:space="preserve">
<g id="Layer_2">
	<path fill="#C8CACB" d="M496.348,127.312H15.652c-7.953,0-14.4,6.447-14.4,14.4V496.6c0,7.953,6.447,14.4,14.4,14.4h480.696
		c7.953,0,14.4-6.447,14.4-14.4V141.712C510.748,133.759,504.301,127.312,496.348,127.312z"/>
</g>
<g id="Layer_3">
	<path fill="#DADBDC" d="M387.596,21.161H131.287c-4.139,0-7.495,5.387-7.495,12.032v465.774c0,6.645,3.356,12.032,7.495,12.032
		h256.309c4.139,0,7.495-5.387,7.495-12.032V33.194C395.091,26.548,391.736,21.161,387.596,21.161z"/>
</g>
<g id="Layer_4">
	<rect x="218.62" y="412.38" fill="#2B3B47" width="81.644" height="98.62"/>
</g>
<g id="Layer_5">
	<path fill="#0096D1" d="M88.099,342.258H34.561c-3.976,0-7.2-3.224-7.2-7.2v-49.36c0-3.976,3.224-7.2,7.2-7.2h53.538
		c3.976,0,7.2,3.224,7.2,7.2v49.36C95.299,339.034,92.075,342.258,88.099,342.258z M95.299,221.077v-49.36
		c0-3.976-3.224-7.2-7.2-7.2H34.561c-3.976,0-7.2,3.224-7.2,7.2v49.36c0,3.976,3.224,7.2,7.2,7.2h53.538
		C92.075,228.277,95.299,225.053,95.299,221.077z M95.299,449.039v-49.36c0-3.976-3.224-7.2-7.2-7.2H34.561
		c-3.976,0-7.2,3.224-7.2,7.2v49.36c0,3.976,3.224,7.2,7.2,7.2h53.538C92.075,456.239,95.299,453.016,95.299,449.039z
		 M485.719,335.058v-49.36c0-3.976-3.224-7.2-7.2-7.2h-53.538c-3.976,0-7.2,3.224-7.2,7.2v49.36c0,3.976,3.224,7.2,7.2,7.2h53.538
		C482.496,342.258,485.719,339.034,485.719,335.058z M485.719,221.077v-49.36c0-3.976-3.224-7.2-7.2-7.2h-53.538
		c-3.976,0-7.2,3.224-7.2,7.2v49.36c0,3.976,3.224,7.2,7.2,7.2h53.538C482.496,228.277,485.719,225.053,485.719,221.077z
		 M485.719,449.039v-49.36c0-3.976-3.224-7.2-7.2-7.2h-53.538c-3.976,0-7.2,3.224-7.2,7.2v49.36c0,3.976,3.224,7.2,7.2,7.2h53.538
		C482.496,456.239,485.719,453.016,485.719,449.039z M195.429,486.29v-52.412c0-3.976-3.224-7.2-7.2-7.2h-35.32
		c-3.976,0-7.2,3.224-7.2,7.2v52.412c0,3.976,3.224,7.2,7.2,7.2h35.32C192.205,493.49,195.429,490.267,195.429,486.29z
		 M373.174,486.29v-52.412c0-3.976-3.224-7.2-7.2-7.2h-35.32c-3.976,0-7.2,3.224-7.2,7.2v52.412c0,3.976,3.224,7.2,7.2,7.2h35.32
		C369.951,493.49,373.174,490.267,373.174,486.29z"/>
</g>
<g id="Layer_6">
	<path fill="#00B1FF" d="M174.33,160.643h-21.992c-3.976,0-7.2-3.224-7.2-7.2V83.989c0-3.976,3.224-7.2,7.2-7.2h21.992
		c3.976,0,7.2,3.224,7.2,7.2v69.454C181.53,157.419,178.306,160.643,174.33,160.643z M245.177,153.443V83.989
		c0-3.976-3.224-7.2-7.2-7.2h-21.992c-3.976,0-7.2,3.224-7.2,7.2v69.454c0,3.976,3.224,7.2,7.2,7.2h21.992
		C241.954,160.643,245.177,157.419,245.177,153.443z M308.825,153.443V83.989c0-3.976-3.224-7.2-7.2-7.2h-21.992
		c-3.976,0-7.2,3.224-7.2,7.2v69.454c0,3.976,3.224,7.2,7.2,7.2h21.992C305.602,160.643,308.825,157.419,308.825,153.443z
		 M372.473,153.443V83.989c0-3.976-3.224-7.2-7.2-7.2h-21.992c-3.976,0-7.2,3.224-7.2,7.2v69.454c0,3.976,3.224,7.2,7.2,7.2h21.992
		C369.249,160.643,372.473,157.419,372.473,153.443z M181.53,224.263v-21.79c0-3.976-3.224-7.2-7.2-7.2h-21.992
		c-3.976,0-7.2,3.224-7.2,7.2v21.79c0,3.976,3.224,7.2,7.2,7.2h21.992C178.306,231.463,181.53,228.239,181.53,224.263z
		 M245.177,224.263v-21.79c0-3.976-3.224-7.2-7.2-7.2h-21.992c-3.976,0-7.2,3.224-7.2,7.2v21.79c0,3.976,3.224,7.2,7.2,7.2h21.992
		C241.954,231.463,245.177,228.239,245.177,224.263z M308.825,224.263v-21.79c0-3.976-3.224-7.2-7.2-7.2h-21.992
		c-3.976,0-7.2,3.224-7.2,7.2v21.79c0,3.976,3.224,7.2,7.2,7.2h21.992C305.602,231.463,308.825,228.239,308.825,224.263z
		 M245.177,294.081v-21.79c0-3.976-3.224-7.2-7.2-7.2h-21.992c-3.976,0-7.2,3.224-7.2,7.2v21.79c0,3.976,3.224,7.2,7.2,7.2h21.992
		C241.954,301.281,245.177,298.058,245.177,294.081z M308.825,294.081v-21.79c0-3.976-3.224-7.2-7.2-7.2h-21.992
		c-3.976,0-7.2,3.224-7.2,7.2v21.79c0,3.976,3.224,7.2,7.2,7.2h21.992C305.602,301.281,308.825,298.058,308.825,294.081z
		 M245.177,363.9v-21.79c0-3.976-3.224-7.2-7.2-7.2h-21.992c-3.976,0-7.2,3.224-7.2,7.2v21.79c0,3.976,3.224,7.2,7.2,7.2h21.992
		C241.954,371.1,245.177,367.877,245.177,363.9z M308.825,363.9v-21.79c0-3.976-3.224-7.2-7.2-7.2h-21.992
		c-3.976,0-7.2,3.224-7.2,7.2v21.79c0,3.976,3.224,7.2,7.2,7.2h21.992C305.602,371.1,308.825,367.877,308.825,363.9z
		 M372.473,224.263v-21.79c0-3.976-3.224-7.2-7.2-7.2h-21.992c-3.976,0-7.2,3.224-7.2,7.2v21.79c0,3.976,3.224,7.2,7.2,7.2h21.992
		C369.249,231.463,372.473,228.239,372.473,224.263z M181.53,294.081v-21.79c0-3.976-3.224-7.2-7.2-7.2h-21.992
		c-3.976,0-7.2,3.224-7.2,7.2v21.79c0,3.976,3.224,7.2,7.2,7.2h21.992C178.306,301.281,181.53,298.058,181.53,294.081z
		 M372.473,294.081v-21.79c0-3.976-3.224-7.2-7.2-7.2h-21.992c-3.976,0-7.2,3.224-7.2,7.2v21.79c0,3.976,3.224,7.2,7.2,7.2h21.992
		C369.249,301.281,372.473,298.058,372.473,294.081z M181.53,363.9v-21.79c0-3.976-3.224-7.2-7.2-7.2h-21.992
		c-3.976,0-7.2,3.224-7.2,7.2v21.79c0,3.976,3.224,7.2,7.2,7.2h21.992C178.306,371.1,181.53,367.877,181.53,363.9z M372.473,363.9
		v-21.79c0-3.976-3.224-7.2-7.2-7.2h-21.992c-3.976,0-7.2,3.224-7.2,7.2v21.79c0,3.976,3.224,7.2,7.2,7.2h21.992
		C369.249,371.1,372.473,367.877,372.473,363.9z"/>
</g>
<g id="Layer_7">
	<path fill="#597B91" d="M394.696,33.865H124.188c-3.976,0-7.2-3.224-7.2-7.2V21.2c0-3.976,3.224-7.2,7.2-7.2h270.508
		c3.976,0,7.2,3.224,7.2,7.2v5.465C401.896,30.642,398.672,33.865,394.696,33.865z M312.776,421.133
		c-5.606-24.274-27.357-42.371-53.335-42.371s-47.729,18.096-53.335,42.371c-1.453,6.293,3.164,12.367,9.622,12.367h41.004v77.327
		h5.416V433.5h41.005C309.613,433.5,314.23,427.426,312.776,421.133z"/>
</g>
</svg>
