<?xml version="1.0" encoding="iso-8859-1"?>
<!-- Generator: Adobe Illustrator 19.1.0, SVG Export Plug-In . SVG Version: 6.00 Build 0)  -->
<!DOCTYPE svg PUBLIC "-//W3C//DTD SVG 1.1//EN" "http://www.w3.org/Graphics/SVG/1.1/DTD/svg11.dtd">
<svg version="1.1" xmlns="http://www.w3.org/2000/svg" xmlns:xlink="http://www.w3.org/1999/xlink" x="0px" y="0px"
	 viewBox="0 0 509.04 509.04" enable-background="new 0 0 509.04 509.04" xml:space="preserve">
<g id="Layer_3">
	<path fill="#FFD3B6" d="M303.278,399.943l-5.891,74.215c-0.303,3.819-3.645,6.669-7.464,6.366
		c-3.447-0.274-6.104-3.025-6.366-6.366l-5.891-74.215c-0.561-7.072,4.717-13.261,11.789-13.822
		c7.072-0.561,13.261,4.717,13.822,11.789C303.331,398.573,303.325,399.3,303.278,399.943z M236.727,397.911
		c-0.561-7.072-6.75-12.35-13.822-11.789s-12.351,6.75-11.789,13.822l5.891,74.215c0.262,3.341,2.919,6.093,6.366,6.366
		c3.819,0.303,7.161-2.547,7.464-6.366l5.891-74.215C236.774,399.3,236.78,398.573,236.727,397.911z"/>
</g>
<g id="Layer_1">
</g>
</svg>
