<?xml version="1.0" encoding="utf-8"?>
<!-- Generator: Adobe Illustrator 18.0.0, SVG Export Plug-In . SVG Version: 6.00 Build 0)  -->
<!DOCTYPE svg PUBLIC "-//W3C//DTD SVG 1.1 Tiny//EN" "http://www.w3.org/Graphics/SVG/1.1/DTD/svg11-tiny.dtd">
<svg version="1.1" baseProfile="tiny" id="Layer_1" xmlns="http://www.w3.org/2000/svg" xmlns:xlink="http://www.w3.org/1999/xlink"
	 x="0px" y="0px" width="511.9px" height="511.9px" viewBox="0 0 511.9 511.9" xml:space="preserve">
<path fill="#E5E5E5" d="M49.9,450.5c0,0,1.1,0.9,2.9,2.5c0.9,0.8,2,1.7,3.3,2.8c1.3,1.1,2.8,2.2,4.4,3.4c0.8,0.6,1.7,1.3,2.6,1.9
	c0.9,0.6,1.9,1.3,2.8,2c1.9,1.4,4,2.8,6.1,4.3l0.8,0.6l0.1,0.1l0.1,0l0,0c0,0-0.1-0.1,0,0l0.2,0.1l0.4,0.3c0.6,0.4,1.1,0.7,1.7,1.1
	c1.1,0.7,2.3,1.5,3.4,2.2c2.3,1.5,4.6,3,7,4.6c2.3,1.5,4.7,2.8,7.1,4.1c2.3,1.3,4.7,2.7,7,4.1c2.3,1.4,4.5,2.6,6.6,3.9
	c2,1.3,3.9,2.6,5.7,3.8c7,4.7,11.7,7.8,11.7,7.8l-4.7,6.4c0,0-4.5-3.3-11.2-8.1c-1.7-1.2-3.5-2.5-5.4-3.9c-1.9-1.4-4.1-2.7-6.2-4.1
	c-2.2-1.4-4.4-2.8-6.8-4.3c-2.4-1.5-4.8-3-7.1-4.6c-2.3-1.6-4.5-3.3-6.8-4.9c-1.1-0.8-2.2-1.6-3.3-2.4c-0.5-0.4-1.1-0.8-1.6-1.2
	l-0.9-0.6l-0.8-0.6c-2.1-1.6-4.1-3.2-6-4.6c-1-0.7-1.9-1.5-2.8-2.1c-0.9-0.7-1.7-1.4-2.6-2.1c-1.6-1.4-3.2-2.5-4.4-3.7
	c-1.3-1.2-2.4-2.2-3.3-3c-1.8-1.7-2.8-2.6-2.8-2.6L49.9,450.5z"/>
<path fill="#E5E5E5" d="M474,459.2c0,0-0.2-1.4-0.5-3.8c-0.1-1.2-0.4-2.6-0.6-4.3c-0.2-1.7-0.6-3.5-1-5.5c-0.2-1-0.4-2.1-0.6-3.2
	c-0.2-1.1-0.5-2.2-0.8-3.4c-0.5-2.3-1.1-4.8-1.7-7.3l-0.2-1l0-0.1l0-0.1l0,0c0,0,0,0.1,0,0.1l-0.1-0.2l-0.1-0.5
	c-0.2-0.6-0.3-1.3-0.5-1.9c-0.3-1.3-0.7-2.6-1-3.9c-0.7-2.7-1.4-5.4-2.1-8.1c-0.8-2.7-1.7-5.2-2.5-7.8c-0.8-2.5-1.7-5.2-2.5-7.7
	c-0.8-2.5-1.6-5-2.2-7.3c-0.6-2.3-1.2-4.6-1.7-6.6c-2.1-8.2-3.5-13.6-3.5-13.6l7.8-1.7c0,0,1.2,5.4,2.9,13.5c0.4,2,0.9,4.2,1.4,6.6
	c0.5,2.3,1.2,4.7,1.9,7.2c0.7,2.5,1.3,5,2.1,7.8c0.7,2.7,1.6,5.4,2.3,8.2c0.6,2.7,1.2,5.4,1.8,8.1c0.3,1.3,0.6,2.7,0.9,4
	c0.1,0.7,0.3,1.3,0.4,2l0.2,1.1l0.2,1c0.5,2.6,1,5.1,1.4,7.5c0.2,1.2,0.4,2.3,0.6,3.5c0.2,1.1,0.3,2.2,0.5,3.3
	c0.3,2.1,0.7,4,0.8,5.7c0.2,1.7,0.4,3.2,0.5,4.4c0.2,2.4,0.3,3.8,0.3,3.8L474,459.2z"/>
</svg>
