<?xml version="1.0" encoding="iso-8859-1"?>
<!-- Generator: Adobe Illustrator 19.1.0, SVG Export Plug-In . SVG Version: 6.00 Build 0)  -->
<!DOCTYPE svg PUBLIC "-//W3C//DTD SVG 1.1//EN" "http://www.w3.org/Graphics/SVG/1.1/DTD/svg11.dtd">
<svg version="1.1" xmlns="http://www.w3.org/2000/svg" xmlns:xlink="http://www.w3.org/1999/xlink" x="0px" y="0px"
	 viewBox="0 0 509.04 509.04" enable-background="new 0 0 509.04 509.04" xml:space="preserve">
<g id="Layer_7">
	<path fill="#8E7B70" d="M364.406,303.605v1.046c0-3.216,2.607-5.823,5.823-5.823h26.443c3.216,0,5.823,2.607,5.823,5.823v-1.046
		c0,3.216-2.607,5.823-5.823,5.823h-26.443C367.013,309.428,364.406,306.821,364.406,303.605z M443.1,309.428h24.954
		c3.216,0,5.823-2.607,5.823-5.823v1.046c0-3.216-2.607-5.823-5.823-5.823H443.1c-3.216,0-5.823,2.607-5.823,5.823v-1.046
		C437.277,306.821,439.884,309.428,443.1,309.428z"/>
</g>
<g id="Layer_1">
</g>
</svg>
