<svg xmlns="http://www.w3.org/2000/svg" viewBox="0 0 512 512" enable-background="new 0 0 512 512"><path fill="#1B871B" d="M440.128 23.23s-.91-.41-2.61-1.094c-1.724-.664-4.14-1.662-7.475-2.64-1.645-.472-3.508-1.07-5.504-1.575-1.99-.505-4.153-1.02-6.475-1.54-2.32-.49-4.794-.93-7.42-1.39-2.622-.44-5.38-.77-8.28-1.14-2.895-.32-5.913-.547-9.054-.78-3.127-.132-6.382-.293-9.723-.3-1.672-.005-3.366.02-5.083.05-1.72.014-3.46.08-5.214.194-1.754.105-3.54.185-5.333.318l-5.432.528c-3.654.362-7.362.95-11.118 1.535-1.878.315-3.763.688-5.654 1.072-1.893.376-3.803.75-5.703 1.238l-5.732 1.424c-1.914.53-3.817 1.124-5.736 1.69-.958.292-1.92.563-2.878.875l-2.86 1c-1.905.687-3.823 1.313-5.724 2.062-3.776 1.557-7.587 3.04-11.287 4.896-3.742 1.684-7.382 3.764-10.988 5.752-7.2 4.17-13.978 9.122-20.033 14.707-5.798 5.568-10.93 11.632-15 18.102-4.217-6.657-9.57-12.87-15.675-18.443-6.163-5.504-13.16-10.133-20.347-14.304-3.642-1.922-7.28-4-11.042-5.634-1.875-.835-3.732-1.78-5.63-2.52l-5.693-2.264c-7.63-2.793-15.31-5.23-22.948-6.898-.952-.22-1.9-.46-2.85-.664l-2.85-.555c-1.895-.355-3.773-.74-5.647-1.06-3.763-.535-7.452-1.166-11.11-1.484-1.824-.2-3.632-.375-5.424-.525-1.796-.11-3.566-.245-5.324-.32-3.504-.23-6.948-.216-10.278-.256-3.338.02-6.58.14-9.707.28-1.565.096-3.103.21-4.61.337-1.507.13-2.977.215-4.425.4-2.892.337-5.647.667-8.265 1.078-2.62.433-5.09.862-7.405 1.32-2.32.5-4.477.99-6.463 1.47-1.996.503-3.854 1.047-5.497 1.498-3.33.94-5.748 1.886-7.47 2.52-1.702.655-2.61 1.04-2.61 1.04-.754.32-1.402.918-1.767 1.722-.776 1.708-.02 3.72 1.688 4.496 0 0 .898.408 2.584 1.106l3.103 1.227c1.24.435 2.59 1.018 4.1 1.618 3.005 1.133 6.656 2.63 10.823 4.16l13.78 5.226c2.494.95 5.07 1.98 7.73 2.947l8.158 3.173 4.21 1.66c1.423.53 2.848 1.106 4.28 1.698 1.43.597 2.887 1.144 4.347 1.72 1.446.617 2.903 1.228 4.376 1.815 1.475.583 2.947 1.208 4.417 1.84l4.443 1.87 4.436 1.94c1.483.65 2.974 1.28 4.436 1.97 1.473.665 2.938 1.363 4.425 2l4.366 2.087 2.186 1.025 2.143 1.078c1.418.73 2.873 1.412 4.275 2.138 5.634 2.914 11.023 5.94 16.12 9.016 2.447 1.62 5 3.09 7.242 4.756 2.396 1.542 4.51 3.18 6.783 4.636 1.054.778 2.092 1.546 3.167 2.273.518.376 1.102.71 1.583 1.095.49.382.992.75 1.494 1.116.497.37 1.012.723 1.52 1.08.254.18.513.353.776.523l.712.547c.933.738 1.89 1.45 2.88 2.13.52.332.914.722 1.375 1.07l1.363 1.056c.453.353.91.7 1.39 1.034.49.33.857.71 1.293 1.062.843.713 1.74 1.393 2.61 2.088.874.684 1.604 1.427 2.45 2.118 3.34 2.78 6.244 5.695 9.04 8.538.78.687 1.295 1.44 1.96 2.142.626.712 1.25 1.412 1.88 2.097l.93 1.018.804 1.02 1.59 1.955c1.064 1.25 1.97 2.43 2.763 3.49.45.956.877 1.78 1.23 2.47.474.915.87 1.6 1.153 2.06l.416.694c.232.386.548.746.93 1.033.9.674 2.008.85 3.02.602 1.34.146 2.712-.43 3.502-1.635l.455-.693c.312-.46.73-1.15 1.254-2.067.63-1.152 1.492-2.67 2.315-4.566.365-.467.742-.945 1.112-1.444 1.845-2.582 4.32-5.436 6.887-8.383 2.73-2.907 5.61-5.897 8.965-8.742.833-.715 1.594-1.46 2.464-2.166.882-.707 1.79-1.396 2.645-2.12.444-.357.818-.74 1.316-1.076.486-.338.956-.687 1.417-1.043l1.39-1.063c.475-.348.884-.737 1.41-1.07 1.003-.687 2-1.382 2.953-2.118l.728-.544.8-.51c.515-.355 1.034-.71 1.555-1.07 1.993-1.468 4.308-2.827 6.438-4.342 4.53-2.887 9.31-5.872 14.34-8.988 5.162-2.955 10.54-5.987 16.21-8.785 5.685-2.8 11.476-5.61 17.415-8.174 2.92-1.38 5.94-2.538 8.863-3.877 2.99-1.177 5.894-2.535 8.852-3.66l4.368-1.813c1.46-.554 2.902-1.155 4.337-1.725 2.856-1.195 5.708-2.228 8.47-3.373 5.625-2.193 10.943-4.265 15.852-6.18l7.185-2.792c2.298-.87 4.49-1.745 6.563-2.567 2.074-.79 4.026-1.56 5.84-2.3l4.962-2.005c2.983-1.274 5.537-2.235 7.202-2.967 1.684-.726 2.582-1.157 2.582-1.157.703-.338 1.3-.92 1.645-1.686.776-1.722.005-3.75-1.722-4.527z"/></svg>