<?xml version="1.0" encoding="iso-8859-1"?>
<!-- Generator: Adobe Illustrator 18.1.1, SVG Export Plug-In . SVG Version: 6.00 Build 0)  -->
<!DOCTYPE svg PUBLIC "-//W3C//DTD SVG 1.1//EN" "http://www.w3.org/Graphics/SVG/1.1/DTD/svg11.dtd">
<svg version="1.1" xmlns="http://www.w3.org/2000/svg" xmlns:xlink="http://www.w3.org/1999/xlink" x="0px" y="0px"
	 viewBox="0 0 512 512" enable-background="new 0 0 512 512" xml:space="preserve">
<g id="Layer_2">
	<path fill="#FFAA3B" d="M501.617,489.617c0,6.6-5.4,12-12,12H22.383c-6.6,0-12-5.4-12-12V22.383c0-6.6,5.4-12,12-12h467.234
		c6.6,0,12,5.4,12,12V489.617z"/>
</g>
<g id="Layer_3">
	<path fill="#FFE564" d="M411.466,251.861c-2.933-4.294-2.933-9.946,0-14.24l20.587-30.141c4.36-6.383,2.011-15.15-4.956-18.497
		l-32.9-15.809c-4.687-2.252-7.513-7.147-7.12-12.332l2.759-36.396c0.584-7.708-5.833-14.125-13.541-13.541l-36.396,2.759
		c-5.185,0.393-10.08-2.433-12.332-7.12l-15.809-32.9c-3.348-6.967-12.115-9.316-18.497-4.956L263.12,89.275
		c-4.294,2.933-9.946,2.933-14.24,0l-30.141-20.587c-6.383-4.36-15.15-2.011-18.497,4.956l-15.809,32.9
		c-2.252,4.687-7.147,7.513-12.332,7.12l-36.396-2.759c-7.708-0.584-14.125,5.833-13.541,13.541l2.759,36.396
		c0.393,5.185-2.433,10.08-7.12,12.332l-32.9,15.809c-6.967,3.348-9.316,12.115-4.956,18.497l20.587,30.141
		c2.933,4.294,2.933,9.946,0,14.24l-20.587,30.141c-4.36,6.383-2.011,15.15,4.956,18.497l32.9,15.809
		c4.687,2.252,7.513,7.147,7.12,12.332l-2.759,36.396c-0.584,7.708,5.833,14.125,13.541,13.541l36.396-2.759
		c5.185-0.393,10.08,2.433,12.332,7.12l15.809,32.9c3.348,6.967,12.115,9.316,18.497,4.956l30.141-20.587
		c4.294-2.933,9.946-2.933,14.24,0l30.141,20.587c6.383,4.36,15.15,2.011,18.497-4.956l15.809-32.9
		c2.252-4.686,7.147-7.513,12.332-7.12l36.396,2.759c7.708,0.584,14.125-5.833,13.541-13.541l-2.759-36.396
		c-0.393-5.185,2.433-10.08,7.12-12.332l32.9-15.809c6.967-3.348,9.316-12.115,4.956-18.497L411.466,251.861z"/>
</g>
<g id="Layer_4">
	<path fill="#00BEEA" d="M501.617,489.617V285.451c-91.608-3.474-176.571-9.532-243.183,2.022
		c-65.74,11.403-151.714,33.375-248.051,41.364v160.78c0,6.6,5.4,12,12,12h467.234C496.217,501.617,501.617,496.217,501.617,489.617
		z"/>
</g>
<g id="Layer_5">
	<path fill="#00A6C1" d="M296.182,430.156c-11.982,19.979-33.879,32.391-57.143,32.391c-18.504,0-36.136-7.858-48.609-21.123
		c-12.473,13.266-30.105,21.123-48.609,21.123s-36.136-7.858-48.609-21.123c-12.473,13.266-30.105,21.123-48.609,21.123
		c-12.194,0-24.01-3.415-34.221-9.537v-25.287c8.735,9.468,20.967,14.921,34.221,14.921c16.56,0,31.541-8.495,40.074-22.725
		c0.02-0.034,0.044-0.063,0.065-0.096c0.151-0.245,0.31-0.486,0.482-0.719c0.062-0.083,0.13-0.159,0.193-0.239
		c0.138-0.174,0.275-0.348,0.425-0.513c0.106-0.117,0.22-0.224,0.332-0.336c0.117-0.117,0.23-0.237,0.354-0.349
		c0.159-0.144,0.326-0.276,0.493-0.408c0.087-0.069,0.169-0.143,0.26-0.21c0.223-0.165,0.454-0.317,0.689-0.462
		c0.043-0.027,0.081-0.057,0.124-0.083c0.004-0.003,0.009-0.004,0.013-0.007c0.266-0.158,0.538-0.303,0.816-0.435
		c0.025-0.012,0.049-0.027,0.074-0.039c0.088-0.041,0.181-0.072,0.271-0.111c0.489-0.212,0.987-0.387,1.492-0.516
		c0.013-0.003,0.026-0.008,0.04-0.012c0.259-0.065,0.519-0.113,0.781-0.156c0.057-0.009,0.112-0.024,0.169-0.032
		c0.219-0.032,0.438-0.049,0.657-0.067c0.105-0.009,0.209-0.023,0.314-0.029c0.171-0.008,0.341-0.003,0.511-0.003
		c0.156,0,0.312-0.005,0.469,0.003c0.12,0.006,0.239,0.023,0.359,0.033c0.204,0.017,0.409,0.032,0.612,0.063
		c0.076,0.011,0.151,0.03,0.227,0.044c0.241,0.041,0.482,0.085,0.721,0.144c0.052,0.013,0.103,0.032,0.155,0.046
		c0.256,0.068,0.511,0.14,0.763,0.23c0.619,0.219,1.216,0.502,1.784,0.841c0.002,0.001,0.005,0.003,0.008,0.004
		c0.025,0.015,0.047,0.033,0.072,0.049c0.254,0.155,0.504,0.32,0.745,0.499c0.081,0.06,0.154,0.126,0.232,0.188
		c0.176,0.139,0.351,0.278,0.518,0.429c0.12,0.109,0.23,0.226,0.344,0.339c0.114,0.114,0.231,0.224,0.339,0.344
		c0.152,0.167,0.29,0.343,0.429,0.518c0.062,0.078,0.128,0.152,0.188,0.233c0.178,0.24,0.342,0.488,0.497,0.742
		c0.016,0.026,0.035,0.049,0.05,0.075c8.534,14.229,23.515,22.725,40.075,22.725s31.541-8.495,40.075-22.725
		c0.016-0.026,0.034-0.049,0.05-0.075c0.155-0.254,0.32-0.503,0.498-0.743c0.057-0.077,0.12-0.146,0.178-0.221
		c0.142-0.18,0.285-0.36,0.44-0.532c0.102-0.113,0.212-0.215,0.318-0.322c0.121-0.122,0.239-0.246,0.367-0.362
		c0.156-0.141,0.32-0.27,0.483-0.4c0.09-0.072,0.176-0.148,0.269-0.217c0.224-0.166,0.456-0.318,0.691-0.463
		c0.042-0.026,0.079-0.056,0.121-0.081c0.004-0.002,0.008-0.004,0.013-0.007c0.273-0.163,0.554-0.312,0.841-0.448
		c0.016-0.008,0.032-0.018,0.048-0.026c0.282-0.132,0.57-0.249,0.863-0.353c0.286-0.103,0.576-0.189,0.867-0.264
		c0.025-0.007,0.05-0.016,0.075-0.022c0.254-0.063,0.509-0.11,0.765-0.153c0.061-0.01,0.122-0.026,0.183-0.035
		c0.217-0.032,0.434-0.049,0.651-0.066c0.107-0.009,0.213-0.024,0.32-0.029c0.171-0.008,0.34-0.003,0.511-0.003
		c0.156,0,0.312-0.005,0.469,0.003c0.123,0.006,0.244,0.023,0.366,0.034c0.202,0.017,0.404,0.032,0.605,0.062
		c0.082,0.012,0.162,0.032,0.243,0.047c0.236,0.041,0.471,0.083,0.705,0.141c0.064,0.016,0.126,0.039,0.19,0.056
		c0.244,0.066,0.487,0.134,0.728,0.22c0.62,0.219,1.218,0.502,1.787,0.842c0.002,0.001,0.004,0.002,0.007,0.003
		c0.022,0.013,0.041,0.029,0.062,0.042c0.259,0.157,0.512,0.325,0.756,0.507c0.075,0.056,0.143,0.117,0.216,0.174
		c0.182,0.143,0.363,0.287,0.535,0.443c0.115,0.104,0.219,0.215,0.328,0.324c0.119,0.119,0.241,0.234,0.355,0.36
		c0.145,0.16,0.278,0.329,0.412,0.497c0.068,0.086,0.14,0.166,0.205,0.254c0.172,0.232,0.33,0.472,0.48,0.717
		c0.021,0.034,0.045,0.064,0.065,0.098c8.534,14.229,23.515,22.725,40.074,22.725s31.541-8.495,40.075-22.725
		c2.826-4.711,8.938-6.242,13.652-3.416C297.479,419.331,299.009,425.443,296.182,430.156z M433.136,353.625
		c-16.56,0-31.54-8.495-40.074-22.724c-0.015-0.025-0.034-0.048-0.049-0.073c-0.155-0.255-0.32-0.504-0.499-0.745
		c-0.058-0.078-0.121-0.148-0.181-0.224c-0.141-0.179-0.283-0.358-0.437-0.528c-0.105-0.116-0.218-0.222-0.328-0.332
		c-0.118-0.118-0.232-0.239-0.356-0.351c-0.161-0.146-0.331-0.28-0.5-0.414c-0.084-0.067-0.164-0.138-0.251-0.203
		c-0.231-0.171-0.469-0.328-0.713-0.478c-0.035-0.022-0.066-0.047-0.102-0.068c-0.003-0.002-0.007-0.004-0.011-0.006
		c-0.567-0.338-1.163-0.62-1.781-0.839c-0.25-0.089-0.503-0.16-0.756-0.228c-0.055-0.015-0.108-0.035-0.163-0.048
		c-0.234-0.059-0.47-0.101-0.707-0.141c-0.081-0.014-0.161-0.034-0.243-0.047c-0.197-0.029-0.394-0.043-0.592-0.06
		c-0.127-0.011-0.254-0.029-0.381-0.035c-0.148-0.007-0.295-0.002-0.443-0.003c-0.179-0.001-0.358-0.006-0.538,0.003
		c-0.095,0.005-0.19,0.018-0.285,0.026c-0.229,0.018-0.458,0.036-0.687,0.07c-0.045,0.007-0.088,0.018-0.133,0.025
		c-0.931,0.151-1.851,0.435-2.734,0.864c-0.261,0.126-0.518,0.26-0.767,0.409c-0.005,0.003-0.011,0.005-0.016,0.009
		c-0.054,0.032-0.101,0.07-0.154,0.103c-0.223,0.139-0.444,0.282-0.656,0.44c-0.099,0.073-0.189,0.153-0.284,0.229
		c-0.158,0.127-0.318,0.251-0.469,0.388c-0.131,0.118-0.251,0.245-0.374,0.369c-0.104,0.105-0.212,0.205-0.311,0.316
		c-0.156,0.172-0.299,0.352-0.442,0.533c-0.058,0.074-0.121,0.143-0.177,0.219c-0.179,0.241-0.344,0.49-0.5,0.745
		c-0.015,0.025-0.034,0.047-0.049,0.073c-8.534,14.229-23.515,22.724-40.074,22.724c-16.561,0-31.541-8.495-40.075-22.724
		c-1.951-3.253-5.466-4.987-9.007-4.822c-3.54-0.163-7.053,1.572-9.003,4.822c-8.534,14.229-23.515,22.724-40.074,22.724
		c-5.496,0-9.951,4.455-9.951,9.951s4.455,9.951,9.951,9.951c18.737,0,36.582-8.055,49.079-21.625
		c12.497,13.57,30.342,21.625,49.08,21.625c18.504,0,36.136-7.857,48.608-21.123c12.473,13.266,30.105,21.123,48.608,21.123
		c5.496,0,9.951-4.455,9.951-9.951S438.632,353.625,433.136,353.625z"/>
</g>
</svg>
