<?xml version="1.0" encoding="iso-8859-1"?>
<!-- Generator: Adobe Illustrator 19.1.0, SVG Export Plug-In . SVG Version: 6.00 Build 0)  -->
<!DOCTYPE svg PUBLIC "-//W3C//DTD SVG 1.1//EN" "http://www.w3.org/Graphics/SVG/1.1/DTD/svg11.dtd">
<svg version="1.1" xmlns="http://www.w3.org/2000/svg" xmlns:xlink="http://www.w3.org/1999/xlink" x="0px" y="0px"
	 viewBox="0 0 509.04 509.04" enable-background="new 0 0 509.04 509.04" xml:space="preserve">
<g id="Layer_11">
	<path fill="#FFFFFF" d="M229.584,126.439v1.576l0,0v0.004c0,0.618-0.502,1.12-1.12,1.12c-0.618,0-1.12-0.502-1.12-1.12v-0.004
		h-0.002v-1.576h0.011c0.052-0.572,0.526-1.025,1.111-1.025c0.584,0,1.061,0.452,1.108,1.025H229.584z M283.747,126.439
		c-0.047-0.572-0.524-1.025-1.108-1.025c-0.585,0-1.059,0.452-1.111,1.025h-0.011v1.576h0.002v0.004c0,0.618,0.501,1.12,1.12,1.12
		c0.617,0,1.12-0.502,1.12-1.12v-0.004l0,0v-1.576H283.747z"/>
</g>
<g id="Layer_1">
</g>
</svg>
