<?xml version="1.0" encoding="iso-8859-1"?>
<!-- Generator: Adobe Illustrator 19.1.0, SVG Export Plug-In . SVG Version: 6.00 Build 0)  -->
<!DOCTYPE svg PUBLIC "-//W3C//DTD SVG 1.1//EN" "http://www.w3.org/Graphics/SVG/1.1/DTD/svg11.dtd">
<svg version="1.1" xmlns="http://www.w3.org/2000/svg" xmlns:xlink="http://www.w3.org/1999/xlink" x="0px" y="0px"
	 viewBox="0 0 512 512" enable-background="new 0 0 512 512" xml:space="preserve">
<g id="Layer_11">
	<path fill="#00B1FF" d="M454.55,446.306c-3.603,8.241-11.734,13.565-20.716,13.565c-8.5,0-16.233-4.774-20.093-12.272
		c-3.859,7.498-11.592,12.272-20.093,12.272c-8.98,0-17.112-5.324-20.716-13.565c-0.15-0.344,0.007-0.745,0.351-0.896
		c0.344-0.153,0.745,0.007,0.896,0.351c3.387,7.746,11.029,12.751,19.47,12.751c8.441,0,16.084-5.005,19.47-12.751
		c0.015-0.033,0.041-0.056,0.06-0.086c0.026-0.042,0.049-0.084,0.084-0.12c0.041-0.041,0.089-0.068,0.138-0.097
		c0.024-0.015,0.042-0.037,0.069-0.048c0.003-0.002,0.007-0.001,0.01-0.002c0.054-0.023,0.111-0.029,0.169-0.037
		c0.031-0.004,0.062-0.017,0.093-0.017c0.031,0,0.062,0.013,0.093,0.017c0.058,0.008,0.115,0.015,0.168,0.037
		c0.004,0.002,0.007,0.001,0.011,0.002c0.028,0.012,0.046,0.035,0.071,0.05c0.047,0.029,0.095,0.055,0.135,0.095
		c0.035,0.036,0.058,0.079,0.084,0.121c0.019,0.03,0.045,0.052,0.06,0.085c3.387,7.746,11.029,12.751,19.47,12.751
		c8.441,0,16.084-5.005,19.47-12.751c0.15-0.344,0.551-0.504,0.896-0.351C454.543,445.561,454.7,445.962,454.55,446.306z
		 M471.705,365.8c-0.332-0.145-0.718,0.006-0.863,0.338c-3.264,7.463-10.628,12.285-18.761,12.285
		c-8.134,0-15.497-4.822-18.76-12.285c-0.014-0.033-0.04-0.055-0.059-0.084c-0.025-0.039-0.046-0.08-0.08-0.114
		c-0.036-0.036-0.079-0.059-0.122-0.086c-0.027-0.017-0.047-0.041-0.077-0.054c-0.004-0.002-0.009-0.001-0.013-0.003
		c-0.047-0.02-0.098-0.024-0.149-0.032c-0.034-0.005-0.067-0.018-0.101-0.018c-0.034,0-0.068,0.013-0.102,0.019
		c-0.05,0.008-0.1,0.012-0.147,0.032c-0.005,0.002-0.009,0.001-0.014,0.003c-0.032,0.014-0.054,0.04-0.083,0.058
		c-0.04,0.025-0.081,0.047-0.115,0.081c-0.035,0.035-0.057,0.077-0.083,0.117c-0.018,0.028-0.043,0.05-0.057,0.081
		c-3.263,7.463-10.626,12.285-18.76,12.285c-0.361,0-0.655,0.294-0.655,0.655s0.294,0.655,0.655,0.655
		c8.191,0,15.642-4.6,19.36-11.824c3.718,7.224,11.169,11.824,19.36,11.824c8.653,0,16.489-5.131,19.962-13.07
		C472.188,366.331,472.036,365.945,471.705,365.8z M433.39,290.121c-8.441,0-16.084-5.005-19.47-12.75
		c-0.014-0.033-0.041-0.056-0.06-0.085c-0.026-0.042-0.049-0.085-0.084-0.12c-0.039-0.039-0.087-0.065-0.134-0.094
		c-0.026-0.016-0.045-0.039-0.073-0.051c-0.004-0.002-0.008-0.001-0.011-0.002c-0.057-0.024-0.117-0.031-0.179-0.039
		c-0.027-0.003-0.053-0.015-0.08-0.015c-0.042,0-0.083,0.015-0.126,0.023c-0.046,0.009-0.092,0.012-0.135,0.03
		c-0.005,0.002-0.01,0.001-0.015,0.003c-0.034,0.015-0.058,0.042-0.088,0.062c-0.041,0.026-0.083,0.048-0.117,0.082
		c-0.037,0.037-0.061,0.081-0.088,0.125c-0.018,0.029-0.044,0.05-0.057,0.082c-3.387,7.745-11.029,12.75-19.47,12.75
		c-8.441,0-16.084-5.005-19.47-12.75c-0.014-0.033-0.041-0.056-0.06-0.085c-0.026-0.042-0.049-0.085-0.084-0.12
		c-0.039-0.039-0.087-0.065-0.134-0.094c-0.026-0.016-0.045-0.039-0.073-0.051c-0.004-0.002-0.008-0.001-0.011-0.002
		c-0.057-0.024-0.119-0.031-0.181-0.039c-0.026-0.003-0.052-0.014-0.078-0.014c-0.041,0-0.082,0.015-0.124,0.023
		c-0.047,0.009-0.094,0.012-0.138,0.03c-0.005,0.002-0.01,0.001-0.014,0.003c-0.033,0.015-0.056,0.041-0.086,0.06
		c-0.042,0.026-0.085,0.049-0.12,0.084c-0.036,0.036-0.06,0.081-0.087,0.123c-0.018,0.029-0.044,0.051-0.058,0.083
		c-3.387,7.745-11.029,12.75-19.47,12.75c-0.376,0-0.68,0.305-0.68,0.68s0.304,0.68,0.68,0.68c8.5,0,16.233-4.774,20.093-12.271
		c3.859,7.497,11.592,12.271,20.093,12.271c8.5,0,16.233-4.774,20.093-12.271c3.859,7.497,11.592,12.271,20.093,12.271
		c0.376,0,0.68-0.305,0.68-0.68S433.766,290.121,433.39,290.121z"/>
</g>
<g id="Layer_1">
</g>
</svg>
