<?xml version="1.0" encoding="utf-8"?>
<!-- Generator: Adobe Illustrator 18.0.0, SVG Export Plug-In . SVG Version: 6.00 Build 0)  -->
<!DOCTYPE svg PUBLIC "-//W3C//DTD SVG 1.1 Tiny//EN" "http://www.w3.org/Graphics/SVG/1.1/DTD/svg11-tiny.dtd">
<svg version="1.1" baseProfile="tiny" id="Layer_1" xmlns="http://www.w3.org/2000/svg" xmlns:xlink="http://www.w3.org/1999/xlink"
	 x="0px" y="0px" width="511.9px" height="511.9px" viewBox="0 0 511.9 511.9" xml:space="preserve">
<path fill="#FFD3B6" d="M302.3,101.7c-6.3-1.2-33.4-11.9-33.4-23.3c0-11.1-9.8-11.7-12.3-11.7c-3.4,0-5.1-2.4-5.1-5.8
	c0-43.3-27.4-31.2-28.9-31.2c-2.8,0,0-6-2.4-6c-0.8,0-1.5-0.1-2.2-0.1c-6.8,7.2-10.7,17.2-10.7,29.7l0.1,6.9l0,0c0,0,0,0,0,0l0,0.1
	c-0.1,1.3-4.5,14.8-7.3,20.7c-3.2,6.6,1,8,7.8,8.2l0.2,11.2c0,2.1,5.9,1.8,7.9,0.7c1.5-0.8,3.4-0.2,4.2,1.3c0.8,1.5,0.2,3.4-1.3,4.2
	c-1.7,0.9-5.1,1.5-7.5,1.9c-1.3,0.2-2.2,1.6-1.9,2.9c3.9,13.1,15.4,18.5,30.4,20.4v15.8c0,5.3,8.6,9.6,19.2,9.6
	c10.6,0,19.2-4.3,19.2-9.6c0-0.6-0.1-1.2-0.3-1.7v-17.4C289.9,122.8,297.5,112.6,302.3,101.7z"/>
<path fill="#2B3B47" d="M226.9,65c-0.2-2.3-2.1-4-4.4-4c-2.3,0-4.2,1.8-4.4,4h-0.1v6.2h0c0,0,0,0,0,0c0,2.4,2,4.4,4.4,4.4
	c2.4,0,4.4-2,4.4-4.4c0,0,0,0,0,0h0L226.9,65L226.9,65z"/>
<path fill="#FFFFFF" d="M221.6,65.2c0-0.6-0.5-1-1.1-1c-0.6,0-1,0.4-1.1,1h0v1.5h0v0c0,0.6,0.5,1.1,1.1,1.1c0.6,0,1.1-0.5,1.1-1.1v0
	l0,0L221.6,65.2L221.6,65.2z"/>
<path fill="#E5AB83" d="M215.3,51.5c0,0,0.2,0,0.7-0.1c0.4,0,1-0.1,1.7-0.1c0.7,0,1.5-0.1,2.4-0.1c0.9,0,1.9,0.1,2.8,0.2
	c1,0.1,1.9,0.3,2.9,0.5c0.5,0.1,0.9,0.3,1.3,0.4c0.4,0.1,0.8,0.3,1.2,0.5c0.4,0.1,0.7,0.4,1,0.6c0.3,0.2,0.5,0.4,0.7,0.5
	c0.4,0.3,0.6,0.5,0.6,0.5c0.6,0.6,0.7,1.5,0.1,2.2c-0.5,0.6-1.4,0.7-2,0.2l-0.3-0.2c0,0-0.1-0.1-0.4-0.3c-0.1-0.1-0.2-0.2-0.4-0.3
	c-0.2-0.1-0.4-0.2-0.7-0.3c-0.3-0.1-0.5-0.2-0.9-0.3c-0.3-0.1-0.7-0.2-1-0.2c-0.7-0.1-1.5-0.2-2.4-0.2c-0.8,0-1.7,0-2.5,0.1
	c-0.8,0.1-1.5,0.1-2.2,0.2c-0.6,0.1-1.2,0.2-1.5,0.2c-0.4,0.1-0.6,0.1-0.6,0.1l-0.1,0c-1.2,0.2-2.3-0.5-2.5-1.7
	c-0.2-1.2,0.5-2.3,1.7-2.5C215.1,51.5,215.2,51.5,215.3,51.5z"/>
<path fill="#EDC0A2" d="M258.4,91.4c-1.4,0-2.4-1.1-2.4-2.4s1.1-2.4,2.4-2.4c4.4,0,8-3.6,8-8s-3.6-8-8-8c-1.4,0-2.4-1.1-2.4-2.4
	s1.1-2.4,2.4-2.4c7.1,0,12.9,5.8,12.9,12.9S265.5,91.4,258.4,91.4z"/>
<path fill="#2B3B47" d="M129.6,476.7c-4.1,0-8.3-1.3-11.9-4c-6.7-4.8-9.8-12.8-8-20.7c0.2-1.1,1.3-1.7,2.4-1.5
	c1.1,0.2,1.7,1.3,1.5,2.4c-1.4,6.3,1,12.7,6.4,16.6c5.4,3.9,12.2,4.2,17.7,0.9c0.9-0.6,2.2-0.3,2.7,0.7c0.6,0.9,0.3,2.2-0.7,2.7
	C136.6,475.7,133.1,476.7,129.6,476.7z"/>
<path fill="#76DFFF" d="M139.7,473.8c-3.2,1.9-6.7,2.8-10.2,2.8c-4.1,0-8.3-1.3-11.9-4c-6.7-4.8-9.8-12.8-8-20.7
	c0.2-1.1,1.3-1.7,2.4-1.5c1.1,0.2,1.7,1.3,1.5,2.4c-0.7,3.2-0.4,6.4,0.7,9.3c4.2-0.6,7.7-2.2,5.7-6.5c-7.5-16-7.9-0.8-24.9-0.4
	c-3.9,0-9.4-0.6-17.4-2.3c-13.4-2.8-22.3-10.6-27.4-2.3c0.4,0.4,1.3,1.1,2.7,2.3c0.9,0.8,2,1.7,3.3,2.8c1.3,1.1,2.8,2.2,4.4,3.4
	c0.8,0.6,1.7,1.3,2.6,1.9c0.9,0.6,1.9,1.3,2.8,2c1.9,1.4,4,2.8,6.1,4.3l0.8,0.6l0.1,0.1l0,0c0,0,0,0,0,0l0.2,0.1l0.4,0.3
	c0.6,0.4,1.1,0.7,1.7,1.1c1.1,0.7,2.3,1.5,3.4,2.2c2.3,1.5,4.6,3,7,4.6c2.3,1.5,4.7,2.8,7.1,4.1c2.3,1.3,4.7,2.7,7,4.1
	c2.3,1.4,4.5,2.6,6.6,3.9c2,1.3,3.9,2.6,5.7,3.8c7,4.7,11.7,7.8,11.7,7.8c3.1-4.3,8.5-11.8,11.5-16c2.9-3.9,5-7.7,4.9-10.7
	C140,473.7,139.9,473.7,139.7,473.8z"/>
<path fill="#E5E5E5" d="M49.9,450.5c0,0,1.1,0.9,2.9,2.5c0.9,0.8,2,1.7,3.3,2.8c1.3,1.1,2.8,2.2,4.4,3.4c0.8,0.6,1.7,1.3,2.6,1.9
	c0.9,0.6,1.9,1.3,2.8,2c1.9,1.4,4,2.8,6.1,4.3l0.8,0.6l0.1,0.1l0.1,0l0,0c0,0-0.1-0.1,0,0l0.2,0.1l0.4,0.3c0.6,0.4,1.1,0.7,1.7,1.1
	c1.1,0.7,2.3,1.5,3.4,2.2c2.3,1.5,4.6,3,7,4.6c2.3,1.5,4.7,2.8,7.1,4.1c2.3,1.3,4.7,2.7,7,4.1c2.3,1.4,4.5,2.6,6.6,3.9
	c2,1.3,3.9,2.6,5.7,3.8c7,4.7,11.7,7.8,11.7,7.8l-4.7,6.4c0,0-4.5-3.3-11.2-8.1c-1.7-1.2-3.5-2.5-5.4-3.9c-1.9-1.4-4.1-2.7-6.2-4.1
	c-2.2-1.4-4.4-2.8-6.8-4.3c-2.4-1.5-4.8-3-7.1-4.6c-2.3-1.6-4.5-3.3-6.8-4.9c-1.1-0.8-2.2-1.6-3.3-2.4c-0.5-0.4-1.1-0.8-1.6-1.2
	l-0.9-0.6l-0.8-0.6c-2.1-1.6-4.1-3.2-6-4.6c-1-0.7-1.9-1.5-2.8-2.1c-0.9-0.7-1.7-1.4-2.6-2.1c-1.6-1.4-3.2-2.5-4.4-3.7
	c-1.3-1.2-2.4-2.2-3.3-3c-1.8-1.7-2.8-2.6-2.8-2.6L49.9,450.5z"/>
<circle fill="#00B1FF" cx="99.9" cy="460.8" r="2.2"/>
<circle fill="#00B1FF" cx="106.7" cy="460.8" r="2.4"/>
<path fill="#2B3B47" d="M106.7,461.9c-0.5,0-1-0.4-1-1c-0.1-2.2-0.9-6.7-2.8-6.9c-0.6-0.1-1-0.6-0.9-1.1c0.1-0.6,0.6-1,1.1-0.9
	c4.2,0.4,4.7,8,4.7,8.9C107.8,461.4,107.3,461.9,106.7,461.9C106.7,461.9,106.7,461.9,106.7,461.9z"/>
<path fill="#2B3B47" d="M99.9,461.9c-0.5,0-1-0.4-1-1c-0.1-2.2-0.9-6.7-2.8-6.9c-0.6-0.1-1-0.6-0.9-1.1c0.1-0.6,0.6-1,1.1-0.9
	c4.2,0.4,4.7,8,4.7,8.9C101,461.4,100.5,461.8,99.9,461.9C99.9,461.9,99.9,461.9,99.9,461.9z"/>
<path fill="#00B1FF" d="M110.7,491.6c0.4,0.3,0.9,0.6,1.3,0.9c7,4.7,11.7,7.8,11.7,7.8c3.1-4.3,8.5-11.8,11.5-16
	c0.2-0.3,0.5-0.6,0.7-1C126.8,480.4,116.6,483.5,110.7,491.6z"/>
<path fill="#FFD3B6" d="M253,204.9c-1.3-2.3-2.2-4.8-2.7-7.3c-2.1,2.2-4.2,4.5-6.3,6.7l-14.9,16l-4.9,5.3l-47.1-38.7
	c0.7-1.8,1-3.8,0.7-5.9l-0.6-4.2c-0.2-1.4-0.4-2.8-0.7-4.2c-0.2-1.4-0.5-2.8-0.7-4.2c-0.2-1.4-0.5-2.8-0.8-4.2
	c-1.1-5.3-6-9.1-11.5-8.8c-0.4,0-0.8,0.1-1.2,0.1c-4-4-10.5-4.2-14.8-0.4c-2.2,2-4.5,3.9-6.7,6l-1,0.9c-4,3.7-4.4,9.9-0.8,14.1
	c2.7,3.2,5.5,6.4,8.4,9.4c0.7,0.8,1.5,1.5,2.2,2.3c0.7,0.8,1.5,1.5,2.2,2.3c1.5,1.5,3.1,3,4.7,4.4c0.6,0.5,1.3,0.9,2,1.2l56.4,62.7
	c0,0,0.1,0.1,0.1,0.1c5.4,5.9,14.6,6.3,20.5,0.8l1.7-1.6l0,0l14.9-15.8l15-15.7c2.6-2.7,5.2-5.4,7.8-8.1
	C266.1,218,257.6,213.2,253,204.9z"/>
<path fill="#FFD3B6" d="M357.9,196.5l-1.7-1L320,176.3l-8.3-4.5l2.6,33.6l18.7,9.7l-14.2,47.8l2.8,35.8c0.1,0.4,0.1,0.8,0.1,1.1
	c0,2.5-1.3,4.9-3.6,7.1l2.7,6.8c1.6-1.1,3-2.7,3.9-4.7l8.8-20.5c0.6-1.5,1-3.3,1-5c0-2.1-0.5-4.1-1.4-5.8l29.8-64.9
	C365.6,207,363.5,199.9,357.9,196.5z"/>
<path fill="#FFD3B6" d="M182.5,362.6c-0.9,1.1-1.7,2.3-2.6,3.4c-1.9,2.6-3.8,5.2-5.7,7.8l-0.2,0.2l-0.1,0.1l0,0.1
	c0.3-0.3,0.1-0.1,0.1-0.1l-0.4,0.5l-0.7,1l-1.5,2l-2.9,3.9c-2,2.6-3.9,5.2-5.8,7.9c-1.9,2.6-3.8,5.2-5.7,7.9
	c-1.8,2.6-3.7,5.3-5.5,7.9c-1.8,2.6-3.5,5.2-5.2,7.8c-3.4,5.1-6.7,10.1-9.7,15c-1.5,2.4-3,4.8-4.3,7c-1.4,2.3-2.7,4.5-4,6.7
	c-1.3,2.1-2.5,4.2-3.6,6.2c-1.1,2-2.2,3.9-3.2,5.7c-1,1.8-1.9,3.5-2.7,5c-0.8,1.6-1.6,3-2.2,4.3c-0.4,0.7-0.7,1.4-1,2.1
	c1.1,1.7,2.6,3.3,4.3,4.6c4.6,3.3,10.3,4.1,15.3,2.1c0.9-1,1.9-1.9,3-3c2.8-2.8,6-6,9.4-9.5c6.8-7,14.7-15.2,23.2-23.9
	c8.4-8.8,17.3-18.3,26.3-27.7c2.3-2.4,4.6-4.8,6.9-7.3c2.2-2.4,4.3-4.8,6.5-7.2c0.7-0.8,1.4-1.5,2-2.2L182.5,362.6z"/>
<path fill="#FFFFFF" d="M88.5,473.2c4.1,2.6,8.7,3.8,13.2,3.8c5.3,0,10.6-1.7,15-5c0,0,0,0,0,0c-1.1-0.9-2-1.8-2.9-2.8
	c-7.1,5-16.8,5.2-24.2,0c0.9-4.8,0.3-9.8-1.6-14.4c-1.5-0.2-3-0.4-4.8-0.7c3.6,6.3,3.8,14.3,0.1,20.8c0.8,0.5,1.6,1,2.4,1.6
	c0.3,0.2,0.6,0.4,1,0.6C87.4,475.8,88,474.5,88.5,473.2z"/>
<path fill="#68442A" d="M267,0c-21.5,0-51.3,4.9-52.3,5.7c-1,0.8,2,6.9,1,7.8c-2,1.9-3.9,4-5.9,6.4c-1.8,2.2,1,3.5,10.2,3.8
	c2.4,0.1-0.4,6,2.4,6c1.5,0,28.9-12.1,28.9,31.2c0,3.4,1.6,5.6,4.8,5.8c0.4-0.7,1.2-1.2,2.1-1.2c7.1,0,12.9,5.8,12.9,12.9
	c0,1.7-0.3,3.3-0.9,4.8c6.5,10.7,32.2,19.5,33.2,18.5c7.2-7.7,14.3-27.6,14.3-47.4C317.9,34.6,304.3,0,267,0z"/>
<path fill="#FFD3B6" d="M425.4,408.6c1.4-4.5,5.1-3.4,8.5-1.1c1-2.8,1.3-6,0.6-9.2c-1.4-6.5-6.2-11.3-12.6-12.5
	c-0.7-0.1-1.2-0.6-1.4-1.2l-75,7.7l-4.7-9.9c-0.1,0-0.2,0.1-0.2,0.1l-38.9,14l12.5,26.7l1.2,2.6c3.4,7.3,11.6,11.3,19.7,9.2
	l89.5-23.3C424.7,410.9,425,409.8,425.4,408.6z"/>
<path fill="#76DFFF" d="M473.5,455.4c-0.1-1.2-0.4-2.6-0.6-4.3c-0.2-1.7-0.6-3.5-1-5.5c-0.2-1-0.4-2.1-0.6-3.2
	c-0.2-1.1-0.5-2.2-0.8-3.4c-0.5-2.3-1.1-4.8-1.7-7.3l-0.2-1l0-0.1l0,0c0,0,0,0,0,0l-0.1-0.2l-0.1-0.5c-0.2-0.6-0.3-1.3-0.5-1.9
	c-0.3-1.3-0.7-2.6-1-3.9c-0.7-2.7-1.4-5.4-2.1-8.1c-0.8-2.7-1.7-5.2-2.5-7.8c-0.8-2.5-1.7-5.2-2.5-7.7c-0.8-2.5-1.6-5-2.2-7.3
	c-0.6-2.3-1.2-4.6-1.7-6.6c-2.1-8.2-3.5-13.6-3.5-13.6c-5.2,1.1-14.2,3.1-19.2,4.2c-4.8,1-8.8,2.4-10.8,4.7c0.1,0,0.3,0,0.4,0
	c7.9,1.5,14,7.5,15.7,15.6c1.8,8.1-1.3,16-7.9,20.7c-0.3,0.2-0.8,0.4-1.1,0.4c-0.6,0-1.2-0.3-1.6-0.8c-0.6-0.9-0.4-2.1,0.5-2.8
	c2.7-1.9,4.6-4.5,5.7-7.4c-3.5-2.4-7.2-3.5-8.6,1.1c-5.1,16.9,5.3,5.8,18.2,16.9c2.9,2.6,6.6,6.7,11.5,13.3
	c8.2,11,9.5,22.8,18.9,20.1C473.9,458.4,473.7,457.2,473.5,455.4z"/>
<path fill="#E5E5E5" d="M474,459.2c0,0-0.2-1.4-0.5-3.8c-0.1-1.2-0.4-2.6-0.6-4.3c-0.2-1.7-0.6-3.5-1-5.5c-0.2-1-0.4-2.1-0.6-3.2
	c-0.2-1.1-0.5-2.2-0.8-3.4c-0.5-2.3-1.1-4.8-1.7-7.3l-0.2-1l0-0.1l0-0.1l0,0c0,0,0,0.1,0,0.1l-0.1-0.2l-0.1-0.5
	c-0.2-0.6-0.3-1.3-0.5-1.9c-0.3-1.3-0.7-2.6-1-3.9c-0.7-2.7-1.4-5.4-2.1-8.1c-0.8-2.7-1.7-5.2-2.5-7.8c-0.8-2.5-1.7-5.2-2.5-7.7
	c-0.8-2.5-1.6-5-2.2-7.3c-0.6-2.3-1.2-4.6-1.7-6.6c-2.1-8.2-3.5-13.6-3.5-13.6l7.8-1.7c0,0,1.2,5.4,2.9,13.5c0.4,2,0.9,4.2,1.4,6.6
	c0.5,2.3,1.2,4.7,1.9,7.2c0.7,2.5,1.3,5,2.1,7.8c0.7,2.7,1.6,5.4,2.3,8.2c0.6,2.7,1.2,5.4,1.8,8.1c0.3,1.3,0.6,2.7,0.9,4
	c0.1,0.7,0.3,1.3,0.4,2l0.2,1.1l0.2,1c0.5,2.6,1,5.1,1.4,7.5c0.2,1.2,0.4,2.3,0.6,3.5c0.2,1.1,0.3,2.2,0.5,3.3
	c0.3,2.1,0.7,4,0.8,5.7c0.2,1.7,0.4,3.2,0.5,4.4c0.2,2.4,0.3,3.8,0.3,3.8L474,459.2z"/>
<circle fill="#00B1FF" cx="443.7" cy="418.2" r="2.2"/>
<circle fill="#00B1FF" cx="438.6" cy="413.6" r="2.4"/>
<path fill="#2B3B47" d="M436.1,423.1c-0.3,0-0.6-0.1-0.8-0.3c-2.9-3.1,1.9-9.1,2.4-9.8c0.4-0.4,1-0.5,1.5-0.1c0.4,0.4,0.5,1,0.1,1.5
	c-1.4,1.7-3.8,5.6-2.5,7.1c0.4,0.4,0.4,1.1-0.1,1.5C436.6,423,436.4,423.1,436.1,423.1z"/>
<path fill="#2B3B47" d="M441.2,427.6c-0.3,0-0.6-0.1-0.8-0.3c-2.9-3.1,1.9-9.1,2.4-9.8c0.4-0.4,1-0.5,1.5-0.1s0.5,1,0.1,1.5
	c-1.4,1.7-3.8,5.6-2.5,7.1c0.4,0.4,0.4,1.1-0.1,1.5C441.7,427.5,441.4,427.6,441.2,427.6z"/>
<path fill="#2B3B47" d="M429.4,418.6c-0.6,0-1.2-0.3-1.6-0.8c-0.6-0.9-0.4-2.1,0.5-2.8c5.3-3.8,7.7-10.1,6.3-16.6
	s-6.2-11.3-12.6-12.5c-1.1-0.2-1.8-1.2-1.6-2.3c0.2-1.1,1.3-1.8,2.3-1.6c7.9,1.5,14,7.5,15.7,15.6c1.8,8.1-1.3,16-7.9,20.7
	C430.2,418.4,429.8,418.6,429.4,418.6z"/>
<path fill="#00B1FF" d="M456.3,388.1l-1.2-15.7c-3.8,0.8-15.9,3.4-22,4.8c-0.4,0.1-0.8,0.2-1.2,0.3
	C436.7,385.6,446.4,390.2,456.3,388.1z"/>
<path fill="#FFFFFF" d="M464.7,416c-0.1-0.4-0.2-0.7-0.3-1.1c-1.4,0.5-2.7,1-4,1.7c-2.9-10.1-11.7-17-21.8-17.9
	c0.2,1.4,0.3,2.7,0.3,4c3.1,0.4,6.2,1.4,8.9,3.2c4.7,3,7.9,7.6,9.1,13c-3.9,3-6.8,7.1-8.4,11.8c1,1.1,2,2.3,3.1,3.7
	c1.5-7.1,6.7-13.2,13.9-15.6C465.2,417.8,464.9,416.9,464.7,416z"/>
<path fill="#00B1FF" d="M344.4,374l-26.3-67.1c-8.6,8.3-31.7,14.2-58.9,14.2c-22.6,0-36.7-4.1-43.8-10.2l-36.7,39.2
	c-2.5,2.6-2.4,6.8,0.3,9.3l36,33.9c2.6,2.5,6.8,2.4,9.3-0.3l30.3-32.6c3.3-3.5,9.2-2.4,10.9,2.1l13.8,35.3c1.3,3.3,5,5,8.4,3.8
	l52.8-19C344,381.3,345.8,377.4,344.4,374z"/>
<path fill="#597B91" d="M321.6,298.6l-10.1-129c0-14.5-13.9-26.8-33.4-31.7v7.8c0.2,0.6,0.3,1.1,0.3,1.7c0,5.3-8.6,9.6-19.2,9.6
	c-10.6,0-19.2-4.3-19.2-9.6v-8.8c-14.4,5.3-19.9,17.2-19.9,31l-3.9,49.4l7.9,6.5l4.9-5.3l14.9-16c2.1-2.2,4.2-4.5,6.3-6.7
	c0.5,2.5,1.4,4.9,2.7,7.3c4.6,8.3,13.1,13,22,13.2c-2.6,2.7-5.2,5.4-7.8,8.1l-15,15.7l-14.9,15.8l0,0l-1.7,1.6
	c-5.9,5.4-15.1,5.1-20.5-0.8c0,0-0.1-0.1-0.1-0.1l-1.5-1.7l-3.2,40.9c-0.1,0.7-0.2,1.4-0.2,2.1c0,11.8,14.8,21.3,49.3,21.3
	c34.5,0,62.5-9.5,62.5-21.3C321.7,299.3,321.7,299,321.6,298.6z"/>
</svg>
