<?xml version="1.0" encoding="iso-8859-1"?>
<!-- Generator: Adobe Illustrator 19.1.0, SVG Export Plug-In . SVG Version: 6.00 Build 0)  -->
<!DOCTYPE svg PUBLIC "-//W3C//DTD SVG 1.1//EN" "http://www.w3.org/Graphics/SVG/1.1/DTD/svg11.dtd">
<svg version="1.1" xmlns="http://www.w3.org/2000/svg" xmlns:xlink="http://www.w3.org/1999/xlink" x="0px" y="0px"
	 viewBox="0 0 509.04 509.04" enable-background="new 0 0 509.04 509.04" xml:space="preserve">
<g id="Layer_11">
	<path fill="#2BA52E" d="M153.885,350.697c0.645-0.774,1.043-1.521,1.221-2.243c1.22-3.166,0.919-7.112-1.688-9.973
		c-12.92-14.182-26.929-35.896-39.542-57.818c7.133,2.404,14.385,3.848,20.978,4.686c5.99,0.761,9.498-7.81,5.093-12.645
		c-11.27-12.37-23.536-31.638-34.411-50.762c6.037,2.165,12.235,3.425,17.831,4.137c4.733,0.602,7.504-6.171,4.024-9.991
		c-14.949-16.409-32.118-48.173-42.569-68.975c-0.419-1.343-1.237-2.356-2.226-2.992c-0.015-0.01-0.03-0.018-0.045-0.028
		c-0.175-0.11-0.353-0.211-0.538-0.297c-0.128-0.062-0.257-0.113-0.388-0.161c-0.093-0.033-0.185-0.065-0.28-0.092
		c-0.163-0.047-0.326-0.084-0.491-0.111c-0.097-0.017-0.194-0.029-0.292-0.039c-0.141-0.013-0.281-0.021-0.422-0.02
		c-0.141-0.001-0.281,0.007-0.422,0.02c-0.098,0.01-0.195,0.022-0.292,0.039c-0.165,0.027-0.328,0.064-0.491,0.111
		c-0.094,0.027-0.187,0.059-0.28,0.092c-0.131,0.048-0.26,0.099-0.388,0.161c-0.185,0.085-0.362,0.186-0.538,0.297
		c-0.015,0.01-0.03,0.018-0.045,0.028c-0.99,0.636-1.807,1.648-2.226,2.992c-10.452,20.802-27.62,52.566-42.569,68.975
		c-3.48,3.82-0.709,10.592,4.024,9.991c5.597-0.711,11.795-1.971,17.831-4.137c-10.875,19.124-23.141,38.392-34.411,50.762
		c-4.405,4.835-0.897,13.407,5.093,12.645c6.593-0.838,13.844-2.281,20.978-4.686C33.793,302.586,19.783,324.3,6.863,338.482
		c-4.044,4.44-2.544,11.491,1.594,14.182c17.751,18.496,40.411,19.935,72.029,19.935c32.498,0,58.336-5.34,72.388-20.759
		C153.242,351.494,153.579,351.111,153.885,350.697z"/>
</g>
<g id="Layer_1">
</g>
</svg>
