<?xml version="1.0" encoding="iso-8859-1"?>
<!-- Generator: Adobe Illustrator 18.1.1, SVG Export Plug-In . SVG Version: 6.00 Build 0)  -->
<!DOCTYPE svg PUBLIC "-//W3C//DTD SVG 1.1//EN" "http://www.w3.org/Graphics/SVG/1.1/DTD/svg11.dtd">
<svg version="1.1" xmlns="http://www.w3.org/2000/svg" xmlns:xlink="http://www.w3.org/1999/xlink" x="0px" y="0px"
	 viewBox="0 0 512 512" enable-background="new 0 0 512 512" xml:space="preserve">
<g id="Layer_6">
	<path fill="#E2A042" d="M270.931,251.416c-2.987,13.071-14.069,21.687-24.752,19.246c-10.683-2.441-16.923-15.016-13.936-28.087
		c2.987-13.071,14.069-21.687,24.752-19.246C267.679,225.771,273.918,238.345,270.931,251.416z M277.086,160.464
		c-10.683-2.441-21.765,6.175-24.752,19.246c-2.987,13.071,3.252,25.645,13.936,28.087c10.683,2.441,21.765-6.175,24.752-19.246
		S287.77,162.906,277.086,160.464z M297.177,97.6c-10.683-2.441-21.765,6.175-24.752,19.246
		c-2.987,13.071,3.252,25.645,13.936,28.087s21.765-6.175,24.752-19.246C314.1,112.616,307.861,100.041,297.177,97.6z"/>
</g>
<g id="Layer_1">
</g>
</svg>
