<?xml version="1.0" encoding="iso-8859-1"?>
<!-- Generator: Adobe Illustrator 19.1.0, SVG Export Plug-In . SVG Version: 6.00 Build 0)  -->
<!DOCTYPE svg PUBLIC "-//W3C//DTD SVG 1.1//EN" "http://www.w3.org/Graphics/SVG/1.1/DTD/svg11.dtd">
<svg version="1.1" xmlns="http://www.w3.org/2000/svg" xmlns:xlink="http://www.w3.org/1999/xlink" x="0px" y="0px"
	 viewBox="0 0 509.04 509.04" enable-background="new 0 0 509.04 509.04" xml:space="preserve">
<g id="Layer_2">
	<path fill="#AAA8A0" d="M113.804,437.298h375.131c14.129,0,22.95-15.305,15.868-27.531L332.163,66.742
		c-8.812-15.212-30.776-15.212-39.588,0l-183.668,362.06C106.722,432.575,109.444,437.298,113.804,437.298z"/>
</g>
<g id="Layer_3">
	<path fill="#C1BFB4" d="M13.354,437.298h388.284L224.104,185.565c-16.226-18.894-45.471-18.894-61.697,0L3.428,415.69
		C-3.858,424.174,2.17,437.298,13.354,437.298z"/>
</g>
<g id="Layer_4">
	<path fill="#CFE7E8" d="M115.263,289.355c26.748,0,19.106-13.161,47.23-13.161c20.792,0,22.354,16.205,22.354,28.412
		c0,15.965,12.942,28.907,28.907,28.907s28.907-12.941,28.907-28.907c0-45.412,11.186-31.269,28.907-31.269
		c5.641,0,10.782,1.664,14.787,0.496l-62.247-88.262l-0.005-0.006c-6.085-7.085-14-11.514-22.373-13.285
		c-13.956-2.952-29.182,1.476-39.324,13.285L93.121,285.858C97.107,287.724,103.835,289.355,115.263,289.355z"/>
</g>
<g id="Layer_5">
	<path fill="#B9D3DB" d="M332.163,66.742c-8.812-15.211-30.776-15.211-39.588,0L240.4,169.594
		c14.993,0.857,21.326,12.194,20.772,21.229c-0.437,7.122,3.632,14.056,9.892,17.479c16.774,9.172,33.717-2.731,33.717-18.59
		c0-32.068,7.402-40.975,19.319-41.97c0.799,0.067,1.564,0.215,2.388,0.215c20.034,0,28.894,16.877,27.329,27.888
		c-0.956,6.724,2.704,13.313,8.272,17.204c12.537,8.761,25.295,7.048,33.731,0.174L332.163,66.742z"/>
</g>
</svg>
