<?xml version="1.0" encoding="iso-8859-1"?>
<!-- Generator: Adobe Illustrator 19.1.0, SVG Export Plug-In . SVG Version: 6.00 Build 0)  -->
<!DOCTYPE svg PUBLIC "-//W3C//DTD SVG 1.1//EN" "http://www.w3.org/Graphics/SVG/1.1/DTD/svg11.dtd">
<svg version="1.1" xmlns="http://www.w3.org/2000/svg" xmlns:xlink="http://www.w3.org/1999/xlink" x="0px" y="0px"
	 viewBox="0 0 512 512" enable-background="new 0 0 512 512" xml:space="preserve">
<g id="Layer_2">
	<path fill="#D1552A" d="M471.485,189.613l-0.148,0.035c0.087-2.088,0.148-4.182,0.148-6.288c0-99.065-97.53-179.373-217.84-179.373
		S35.806,84.295,35.806,183.361c0,2.106,0.06,4.2,0.148,6.288l-0.148-0.035l0.202,1.21c0.582,11.699,2.519,23.108,5.696,34.124
		l35.246,211.165c2.377,14.245,10.863,26.782,23.306,34.112c25.943,15.282,77.193,37.884,153.39,37.884
		c76.198,0,127.447-22.602,153.391-37.884c12.443-7.33,20.928-19.867,23.306-34.112l35.246-211.165
		c3.176-11.016,5.114-22.426,5.696-34.124L471.485,189.613z"/>
</g>
<g id="Layer_1">
</g>
</svg>
