<?xml version="1.0" encoding="iso-8859-1"?>
<!-- Generator: Adobe Illustrator 18.1.1, SVG Export Plug-In . SVG Version: 6.00 Build 0)  -->
<!DOCTYPE svg PUBLIC "-//W3C//DTD SVG 1.1//EN" "http://www.w3.org/Graphics/SVG/1.1/DTD/svg11.dtd">
<svg version="1.1" xmlns="http://www.w3.org/2000/svg" xmlns:xlink="http://www.w3.org/1999/xlink" x="0px" y="0px"
	 viewBox="0 0 512 512" enable-background="new 0 0 512 512" xml:space="preserve">
<g id="Layer_5">
	<path fill="#F7EAD7" d="M427.19,130.058c0,23.112-18.736,41.848-41.848,41.848c-15.129,0-28.381-8.03-35.732-20.059
		c-9.672,6.089-21.113,9.625-33.386,9.625c-15.423,0-29.538-5.572-40.465-14.801c-1.007,0.395-2.025,0.768-3.054,1.119
		c0.079,1.293,0.133,2.593,0.133,3.907c0,34.665-28.102,62.767-62.767,62.767c-30.008,0-55.083-21.065-61.282-49.21
		c-7.133,2.816-14.897,4.38-23.031,4.38c-34.665,0-62.767-28.102-62.767-62.767s28.102-62.767,62.767-62.767
		c0-23.112,18.736-41.848,41.848-41.848c15.129,0,28.381,8.03,35.732,20.059c12.518-10.158,28.466-16.254,45.844-16.254
		c24.38,0,45.946,11.994,59.163,30.39c2.583-0.324,5.21-0.51,7.881-0.51c31.304,0,57.249,22.919,61.987,52.89
		c2.319-0.398,4.699-0.618,7.131-0.618C408.454,88.21,427.19,106.946,427.19,130.058z"/>
</g>
<g id="Layer_1">
</g>
</svg>
