<?xml version="1.0" encoding="iso-8859-1"?>
<!-- Generator: Adobe Illustrator 19.2.1, SVG Export Plug-In . SVG Version: 6.00 Build 0)  -->
<!DOCTYPE svg PUBLIC "-//W3C//DTD SVG 1.1//EN" "http://www.w3.org/Graphics/SVG/1.1/DTD/svg11.dtd">
<svg version="1.1" xmlns="http://www.w3.org/2000/svg" xmlns:xlink="http://www.w3.org/1999/xlink" x="0px" y="0px"
	 viewBox="0 0 512 512" enable-background="new 0 0 512 512" xml:space="preserve">
<g id="Layer_2">
	<path fill="#70838E" d="M391.751,89h-72.902h-96.55h-67.14c-13.838,0-26.292,8.098-32.075,20.669
		c-7.83,17.02-16.583,35.306-17.993,61.575c-0.035,0.199-0.078,0.381-0.108,0.586c-0.199,1.069-0.413,2.215-0.641,3.441
		c0.001,2.071,0.002,4.271,0.002,6.597c-0.017,4.832,0.239,10.191,0.876,15.981c0.664,5.296,1.629,10.173,2.986,15.764
		c2.641,10.945,7.492,22.75,13.594,34.746c6.017,12.055,12.822,24.436,21.151,36.476c8.164,12.026,17.287,23.86,27.507,34.902
		c10.098,11.047,20.702,21.63,31.561,31.513c5.491,4.891,11.007,9.629,16.532,14.194l4.586,3.718
		c12.53,13.242,18.284,27.252,3.194,46.126c-1.628,1.388-3.359,2.792-5.094,4.17c-4.315,3.362-8.75,6.856-12.907,10.583
		c-8.344,7.376-15.484,15.832-19.754,24.339c-4.523,8.35-6.425,16.265-6.981,22.522c-0.57,6.292-0.069,11.001,0.109,14.151
		c0.403,3.119,0.618,4.782,0.618,4.782c0.111,0.852,0.706,1.604,1.582,1.87c1.193,0.363,2.454-0.31,2.816-1.503l0.112-0.368
		c0,0,0.463-1.523,1.332-4.379c1.012-2.777,2.517-6.835,5.272-11.202c2.724-4.367,6.696-8.914,12.095-12.349
		c5.434-3.448,12.161-5.757,20.262-7.371c4.049-0.825,8.466-1.474,13.4-2.195c4.97-0.776,10.314-1.416,17.24-3.336
		c1.698-0.457,4.628-1.71,5.542-1.852c2.355-1.015,3.472-1.217,5.248-1.904c3.242-1.158,6.488-2.398,9.742-3.79
		c6.519-2.77,13.136-6.042,19.863-10.128c6.708-4.241,13.897-9.118,20.902-15.531l0.134,0.153
		c98.028-92.893,41.379-154.678,25.615-188.175c-22.687-48.21,22.802-96.12,56.049-122.959C408.558,103.528,403.357,89,391.751,89z"
		/>
</g>
<g id="Layer_3">
	<path fill="#A7C1C9" d="M295.566,131.861c0,19.282-15.631,35.139-34.913,35.139H76.75C51.483,167,31,146.29,31,121.023
		c0-25.267,20.483-45.977,45.75-45.977c0-33.607,27.244-60.851,60.851-60.851c28.312,0,52.104,19.336,58.901,45.521
		c5.823-3.993,12.868-6.334,20.462-6.334c20.009,0,36.229,16.221,36.229,36.229c0,2.797-0.327,5.515-0.927,8.13
		c2.687-0.663,5.495-1.021,8.387-1.021C279.935,96.721,295.566,112.579,295.566,131.861z M450.957,244.141
		c-1.891,0-3.738,0.183-5.532,0.517c0.359-2.641,0.56-5.332,0.56-8.072c0-32.841-26.623-59.464-59.464-59.464
		c-29.056,0-53.229,20.845-58.419,48.394c-0.348-0.009-0.694-0.026-1.045-0.026c-21.743,0-39.368,17.512-39.368,39.255
		c0,21.743,17.626,39.255,39.368,39.255h123.9C467.549,304,481,290.663,481,274.071S467.549,244.141,450.957,244.141z"/>
</g>
</svg>
