<?xml version="1.0" encoding="iso-8859-1"?>
<!-- Generator: Adobe Illustrator 19.1.0, SVG Export Plug-In . SVG Version: 6.00 Build 0)  -->
<!DOCTYPE svg PUBLIC "-//W3C//DTD SVG 1.1//EN" "http://www.w3.org/Graphics/SVG/1.1/DTD/svg11.dtd">
<svg version="1.1" xmlns="http://www.w3.org/2000/svg" xmlns:xlink="http://www.w3.org/1999/xlink" x="0px" y="0px"
	 viewBox="0 0 509.04 509.04" enable-background="new 0 0 509.04 509.04" xml:space="preserve">
<g id="Layer_2">
	<path fill="#DADBDC" d="M29.888,131.912L252.423,20.926c2.093-1.044,4.554-1.045,6.647-0.003l222.98,110.986
		c7.047,3.508,4.551,14.125-3.321,14.125H33.214C25.345,146.034,22.846,135.424,29.888,131.912z M482.8,154.269H29.2
		c-3.976,0-7.2,2.223-7.2,6.199v59.667c0,3.976,3.224,7.2,7.2,7.2h15.3v219.419c0,7.953,6.447,14.4,14.4,14.4h394.2
		c7.953,0,14.4-6.447,14.4-14.4V227.335h15.3c3.976,0,7.2-3.224,7.2-7.2v-59.667C490,156.491,486.776,154.269,482.8,154.269z"/>
</g>
<g id="Layer_3">
	<path fill="#999999" d="M488.373,504.131H23.627c-10.413,0-16.857-11.347-11.521-20.29l18.225-30.545
		c2.421-4.057,6.797-6.542,11.521-6.542h428.296c4.724,0,9.1,2.485,11.521,6.542l18.225,30.545
		C505.229,492.783,498.786,504.131,488.373,504.131z"/>
</g>
<g id="Layer_4">
	<path fill="#C8CACB" d="M332.298,484.012l-153,0.204l-0.05-37.36l153-0.204L332.298,484.012z"/>
</g>
<g id="Layer_5">
	<path fill="#EBECED" d="M354.773,504.131h-198v-20.667c0-3.976,3.224-7.2,7.2-7.2h183.6c3.976,0,7.2,3.224,7.2,7.2V504.131z"/>
</g>
<g id="Layer_6">
	<path fill="#767777" d="M127.875,446.754H82.496V205h45.379V446.754z M228.418,205h-45.379v241.754h45.379V205z M328.961,205
		h-45.379v241.754h45.379V205z M429.504,205h-45.379v241.754h45.379V205z"/>
</g>
<g id="Layer_7">
	<path fill="#999999" d="M496.3,170.423H15.7c-3.976,0-7.2-3.224-7.2-7.2v-18.909c0-3.976,3.224-7.2,7.2-7.2h480.6
		c3.976,0,7.2,3.224,7.2,7.2v18.909C503.5,167.199,500.276,170.423,496.3,170.423z M503.5,231.378v-19.909
		c0-3.976-3.224-7.2-7.2-7.2H15.7c-3.976,0-7.2,3.224-7.2,7.2v19.909c0,3.976,3.224,7.2,7.2,7.2h480.6
		C500.276,238.578,503.5,235.354,503.5,231.378z"/>
</g>
</svg>
