<svg xmlns="http://www.w3.org/2000/svg" viewBox="0 0 512 512" enable-background="new 0 0 512 512"><path fill="#00B1FF" d="M284.323 249.558H262.33c-3.975 0-7.2-3.224-7.2-7.2v-21.79c0-3.976 3.225-7.2 7.2-7.2h21.993c3.976 0 7.2 3.224 7.2 7.2v21.79c0 3.976-3.223 7.2-7.2 7.2zm70.848-7.2v-21.79c0-3.976-3.223-7.2-7.2-7.2h-21.99c-3.976 0-7.2 3.224-7.2 7.2v21.79c0 3.976 3.224 7.2 7.2 7.2h21.992c3.976 0 7.2-3.224 7.2-7.2zm63.65 0v-21.79c0-3.976-3.225-7.2-7.2-7.2h-21.993c-3.976 0-7.2 3.224-7.2 7.2v21.79c0 3.976 3.224 7.2 7.2 7.2h21.992c3.975 0 7.2-3.224 7.2-7.2zm-63.65 69.82v-21.79c0-3.977-3.223-7.2-7.2-7.2h-21.99c-3.976 0-7.2 3.223-7.2 7.2v21.79c0 3.975 3.224 7.2 7.2 7.2h21.992c3.976 0 7.2-3.225 7.2-7.2zm63.65 0v-21.79c0-3.977-3.225-7.2-7.2-7.2h-21.993c-3.976 0-7.2 3.223-7.2 7.2v21.79c0 3.975 3.224 7.2 7.2 7.2h21.992c3.975 0 7.2-3.225 7.2-7.2zm-63.65 69.817v-21.79c0-3.976-3.223-7.2-7.2-7.2h-21.99c-3.976 0-7.2 3.224-7.2 7.2v21.79c0 3.976 3.224 7.2 7.2 7.2h21.992c3.976 0 7.2-3.223 7.2-7.2zm63.65 0v-21.79c0-3.976-3.225-7.2-7.2-7.2h-21.993c-3.976 0-7.2 3.224-7.2 7.2v21.79c0 3.976 3.224 7.2 7.2 7.2h21.992c3.975 0 7.2-3.223 7.2-7.2zm63.647-139.637v-21.79c0-3.976-3.224-7.2-7.2-7.2h-21.992c-3.976 0-7.2 3.224-7.2 7.2v21.79c0 3.976 3.224 7.2 7.2 7.2h21.992c3.976 0 7.2-3.224 7.2-7.2zm-190.944 69.82v-21.79c0-3.977-3.224-7.2-7.2-7.2H262.33c-3.975 0-7.2 3.223-7.2 7.2v21.79c0 3.975 3.225 7.2 7.2 7.2h21.993c3.977 0 7.2-3.225 7.2-7.2zm190.944 0v-21.79c0-3.977-3.224-7.2-7.2-7.2h-21.992c-3.976 0-7.2 3.223-7.2 7.2v21.79c0 3.975 3.224 7.2 7.2 7.2h21.992c3.976 0 7.2-3.225 7.2-7.2zm-190.944-139.64v-21.79c0-3.975-3.224-7.2-7.2-7.2H262.33c-3.975 0-7.2 3.225-7.2 7.2v21.79c0 3.977 3.225 7.2 7.2 7.2h21.993c3.977 0 7.2-3.223 7.2-7.2zm63.648 0v-21.79c0-3.975-3.223-7.2-7.2-7.2h-21.99c-3.976 0-7.2 3.225-7.2 7.2v21.79c0 3.977 3.224 7.2 7.2 7.2h21.992c3.976 0 7.2-3.223 7.2-7.2zm63.65 0v-21.79c0-3.975-3.225-7.2-7.2-7.2h-21.993c-3.976 0-7.2 3.225-7.2 7.2v21.79c0 3.977 3.224 7.2 7.2 7.2h21.992c3.975 0 7.2-3.223 7.2-7.2zm63.647 0v-21.79c0-3.975-3.224-7.2-7.2-7.2h-21.992c-3.976 0-7.2 3.225-7.2 7.2v21.79c0 3.977 3.224 7.2 7.2 7.2h21.992c3.976 0 7.2-3.223 7.2-7.2zM291.523 102.72V80.93c0-3.976-3.224-7.2-7.2-7.2H262.33c-3.975 0-7.2 3.224-7.2 7.2v21.79c0 3.976 3.225 7.2 7.2 7.2h21.993c3.977 0 7.2-3.223 7.2-7.2zm63.648 0V80.93c0-3.976-3.223-7.2-7.2-7.2h-21.99c-3.976 0-7.2 3.224-7.2 7.2v21.79c0 3.976 3.224 7.2 7.2 7.2h21.992c3.976 0 7.2-3.223 7.2-7.2zm63.65 0V80.93c0-3.976-3.225-7.2-7.2-7.2h-21.993c-3.976 0-7.2 3.224-7.2 7.2v21.79c0 3.976 3.224 7.2 7.2 7.2h21.992c3.975 0 7.2-3.223 7.2-7.2zm63.647 0V80.93c0-3.976-3.224-7.2-7.2-7.2h-21.992c-3.976 0-7.2 3.224-7.2 7.2v21.79c0 3.976 3.224 7.2 7.2 7.2h21.992c3.976 0 7.2-3.223 7.2-7.2zM291.523 381.995v-21.79c0-3.976-3.224-7.2-7.2-7.2H262.33c-3.975 0-7.2 3.224-7.2 7.2v21.79c0 3.976 3.225 7.2 7.2 7.2h21.993c3.977 0 7.2-3.223 7.2-7.2zm190.944 0v-21.79c0-3.976-3.224-7.2-7.2-7.2h-21.992c-3.976 0-7.2 3.224-7.2 7.2v21.79c0 3.976 3.224 7.2 7.2 7.2h21.992c3.976 0 7.2-3.223 7.2-7.2zM100.04 242.358v-21.79c0-3.976-3.225-7.2-7.2-7.2H70.847c-3.976 0-7.2 3.224-7.2 7.2v21.79c0 3.976 3.224 7.2 7.2 7.2H92.84c3.976 0 7.2-3.224 7.2-7.2zm63.647 0v-21.79c0-3.976-3.224-7.2-7.2-7.2h-21.992c-3.976 0-7.2 3.224-7.2 7.2v21.79c0 3.976 3.224 7.2 7.2 7.2h21.992c3.977 0 7.2-3.224 7.2-7.2zm-63.648 69.82v-21.79c0-3.977-3.225-7.2-7.2-7.2H70.847c-3.976 0-7.2 3.223-7.2 7.2v21.79c0 3.975 3.224 7.2 7.2 7.2H92.84c3.976 0 7.2-3.225 7.2-7.2zm63.647 0v-21.79c0-3.977-3.224-7.2-7.2-7.2h-21.992c-3.976 0-7.2 3.223-7.2 7.2v21.79c0 3.975 3.224 7.2 7.2 7.2h21.992c3.977 0 7.2-3.225 7.2-7.2zm-63.648 69.817v-21.79c0-3.976-3.225-7.2-7.2-7.2H70.847c-3.976 0-7.2 3.224-7.2 7.2v21.79c0 3.976 3.224 7.2 7.2 7.2H92.84c3.976 0 7.2-3.223 7.2-7.2zm63.647 0v-21.79c0-3.976-3.224-7.2-7.2-7.2h-21.992c-3.976 0-7.2 3.224-7.2 7.2v21.79c0 3.976 3.224 7.2 7.2 7.2h21.992c3.977 0 7.2-3.223 7.2-7.2zm63.648-139.637v-21.79c0-3.976-3.224-7.2-7.2-7.2h-21.992c-3.976 0-7.2 3.224-7.2 7.2v21.79c0 3.976 3.224 7.2 7.2 7.2h21.992c3.976 0 7.2-3.224 7.2-7.2zm0 69.82v-21.79c0-3.977-3.224-7.2-7.2-7.2h-21.992c-3.976 0-7.2 3.223-7.2 7.2v21.79c0 3.975 3.224 7.2 7.2 7.2h21.992c3.976 0 7.2-3.225 7.2-7.2zM100.04 172.537v-21.79c0-3.975-3.225-7.2-7.2-7.2H70.847c-3.976 0-7.2 3.225-7.2 7.2v21.79c0 3.977 3.224 7.2 7.2 7.2H92.84c3.976 0 7.2-3.223 7.2-7.2zm63.647 0v-21.79c0-3.975-3.224-7.2-7.2-7.2h-21.992c-3.976 0-7.2 3.225-7.2 7.2v21.79c0 3.977 3.224 7.2 7.2 7.2h21.992c3.977 0 7.2-3.223 7.2-7.2zm63.648 0v-21.79c0-3.975-3.224-7.2-7.2-7.2h-21.992c-3.976 0-7.2 3.225-7.2 7.2v21.79c0 3.977 3.224 7.2 7.2 7.2h21.992c3.976 0 7.2-3.223 7.2-7.2zm0 209.457v-21.79c0-3.976-3.224-7.2-7.2-7.2h-21.992c-3.976 0-7.2 3.224-7.2 7.2v21.79c0 3.976 3.224 7.2 7.2 7.2h21.992c3.976 0 7.2-3.223 7.2-7.2z"/></svg>