<?xml version="1.0" encoding="iso-8859-1"?>
<!-- Generator: Adobe Illustrator 18.1.1, SVG Export Plug-In . SVG Version: 6.00 Build 0)  -->
<!DOCTYPE svg PUBLIC "-//W3C//DTD SVG 1.1//EN" "http://www.w3.org/Graphics/SVG/1.1/DTD/svg11.dtd">
<svg version="1.1" xmlns="http://www.w3.org/2000/svg" xmlns:xlink="http://www.w3.org/1999/xlink" x="0px" y="0px"
	 viewBox="0 0 512 512" enable-background="new 0 0 512 512" xml:space="preserve">
<g id="Layer_2">
	<path fill="#2BA52E" d="M488.076,370.127c0,0-0.089-0.406-0.262-1.194c-0.178-0.784-0.416-1.965-0.786-3.466
		c-0.625-1.755-1.709-4.35-2.927-7.021c-0.603-1.263-1.257-2.64-2.002-4.102c-0.746-1.461-1.676-2.894-2.626-4.49
		c-0.941-1.616-2.067-3.168-3.254-4.853c-1.173-1.718-2.512-3.364-3.941-5.11c-2.831-3.537-6.287-6.899-10.125-10.389
		c-0.961-0.887-1.959-1.673-2.979-2.535c-1.021-0.834-2.069-1.735-3.143-2.55c-2.145-1.593-4.412-3.37-6.757-4.901
		c-1.176-0.791-2.374-1.607-3.612-2.391c-1.235-0.735-2.486-1.478-3.751-2.231c-2.564-1.554-5.164-2.869-7.893-4.335
		c-10.823-5.456-22.896-10.117-35.563-13.712c-1.582-0.448-3.181-0.916-4.799-1.35c-1.603-0.398-3.216-0.798-4.839-1.201
		c-1.636-0.412-3.27-0.793-4.902-1.147c-1.644-0.362-3.298-0.726-4.961-1.093c-3.285-0.655-6.679-1.368-10.025-1.887
		c-1.687-0.277-3.381-0.556-5.084-0.836c-1.693-0.249-3.394-0.499-5.102-0.749c-1.72-0.26-3.427-0.482-5.14-0.697
		c-1.715-0.223-3.448-0.443-5.176-0.623c-3.428-0.335-6.934-0.716-10.395-0.981c-1.741-0.14-3.488-0.281-5.239-0.422
		c-1.743-0.117-3.491-0.234-5.243-0.352c-3.516-0.218-6.993-0.316-10.528-0.462c-11.52-0.414-23.098-0.327-34.609,0.061
		c0.006-0.134,0.012-0.266,0.018-0.4c0.151-3.61,0.125-7.238,0.182-10.858c0.014-1.808,0.028-3.619,0.041-5.434
		c-0.041-1.81-0.081-3.623-0.122-5.438c-0.093-3.623-0.168-7.249-0.306-10.855c-0.138-3.608-0.338-7.215-0.452-10.804
		c-0.124-3.588-0.401-7.167-0.607-10.735c-0.83-14.257-2.76-28.373-6.014-41.925c-0.396-1.691-0.791-3.379-1.185-5.063
		c-0.442-1.676-0.93-3.341-1.392-4.998c-0.916-3.315-1.927-6.594-2.958-9.827c-1.098-3.208-2.189-6.396-3.273-9.561
		c-1.113-3.147-2.381-6.227-3.602-9.269c-4.794-12.185-10.169-23.534-15.327-34.033c-2.755-5.21-5.114-10.293-7.779-15.066
		c-2.634-4.78-5.057-9.38-7.661-13.676c-2.543-4.313-4.93-8.417-7.408-12.22c-2.451-3.811-4.635-7.438-7.033-10.699
		c-2.332-3.294-4.451-6.326-6.506-9.149c-2.124-2.843-4.035-5.435-5.814-7.732c-0.892-1.139-1.734-2.247-2.527-3.221
		c-0.795-0.925-1.539-1.793-2.232-2.6c-1.387-1.614-2.566-2.986-3.523-4.099c-1.95-2.21-2.99-3.389-2.99-3.389
		c-2.487-2.808-6.019-4.75-10.046-5.157c-8.5-0.858-16.086,5.337-16.944,13.837l-0.275,2.729c0,0-0.042,0.421-0.125,1.238
		c-0.063,0.808-0.156,2.007-0.277,3.571c-0.079,1.546-0.177,3.453-0.292,5.695c-0.056,1.12-0.059,2.301-0.094,3.573
		c-0.066,1.231-0.191,2.481-0.296,3.822c-0.214,2.664-0.321,5.529-0.526,8.633c-0.056,0.793-0.113,1.602-0.171,2.427
		c-0.045,0.825-0.091,1.666-0.138,2.522c-0.1,1.71-0.197,3.471-0.26,5.268c-0.116,3.592-0.406,7.427-0.583,11.384
		c-0.095,1.98-0.127,3.983-0.298,6.06c-0.115,2.05-0.232,4.147-0.352,6.288c-0.366,8.488-1.021,17.575-2.373,27.058
		c-0.368,2.375-0.8,4.776-1.205,7.184c-0.419,2.41-0.794,4.827-1.345,7.274c-0.511,2.424-1.027,4.874-1.548,7.348
		c-0.237,1.225-0.576,2.462-0.858,3.692c-0.287,1.226-0.575,2.458-0.864,3.695c-0.602,2.467-1.05,4.922-1.726,7.391
		c-0.563,2.46-1.157,4.922-1.65,7.375c-1.174,4.906-2.066,9.801-2.976,14.663c-1.663,9.74-2.894,19.388-3.603,29.02
		c-0.651,9.648-1.473,19.197-1.934,28.704c-0.425,9.525-0.748,18.958-0.852,28.35c-0.05,2.338-0.01,4.705-0.069,7.028
		c-0.049,2.339-0.098,4.656-0.147,6.948c0.042,2.346-0.085,4.607-0.156,6.885c-0.04,1.142-0.081,2.277-0.12,3.405
		c-0.033,1.136-0.077,2.264-0.176,3.361c-0.301,4.431-0.488,8.874-0.993,13.069c-0.083,0.763-0.156,1.526-0.231,2.288
		c-2.743,2.27-5.365,4.633-7.815,7.135c-3.852,3.886-7.367,7.965-10.543,12.166c-3.165,4.219-5.988,8.563-8.489,12.912
		c-5.013,8.674-8.663,17.476-11.236,25.388c-0.655,1.945-1.199,3.945-1.715,5.788c-0.256,0.922-0.504,1.816-0.744,2.68
		c-0.213,0.911-0.419,1.79-0.618,2.638c-0.396,1.696-0.758,3.257-1.029,4.797c-0.28,1.523-0.559,2.839-0.738,4.162
		c-0.405,2.548-0.639,4.612-0.781,6.027c-0.118,1.455-0.179,2.206-0.179,2.206l-0.597,7.322
		c-0.726,8.801,5.272,16.925,14.141,18.654c0,0,0.474,0.092,1.391,0.271c0.894,0.144,2.222,0.359,3.953,0.638
		c3.437,0.528,8.36,1.135,14.42,1.66c6.053,0.512,13.268,0.979,21.255,1.101c7.998,0.141,16.813,0.017,26.19-0.465
		c2.329-0.145,4.706-0.293,7.129-0.445c2.39-0.206,4.824-0.416,7.301-0.63c4.921-0.421,10.008-0.857,15.237-1.305
		c10.43-0.844,21.464-1.316,32.596-2.138c11.118-0.89,22.347-2.046,33.244-4.498c10.926-2.38,21.631-5.677,32.14-9.539
		c10.507-3.898,20.936-7.633,31.136-11.248c10.177-3.537,20.132-7.014,29.612-10.057c4.766-1.568,9.361-2.936,13.891-4.353
		c1.119-0.324,2.232-0.646,3.339-0.966l1.667-0.507l1.629-0.461c2.17-0.611,4.313-1.214,6.428-1.81
		c1.069-0.315,2.105-0.591,3.126-0.849c1.034-0.267,2.06-0.533,3.078-0.796c2.005-0.473,3.979-0.939,5.921-1.397
		c3.931-1.011,7.523-1.592,11.093-2.313c1.697-0.285,3.508-0.661,5.111-0.855c0.834-0.117,1.659-0.233,2.474-0.347
		c0.776-0.066,1.575-0.191,2.369-0.293c0.401-0.053,0.799-0.107,1.195-0.159c0.381-0.037,0.759-0.073,1.135-0.109
		c0.766-0.069,1.522-0.138,2.266-0.205c1.48-0.082,2.917-0.162,4.309-0.24c5.561-0.196,10.478,0.208,14.711,0.988
		c2.126,0.377,3.982,0.913,5.725,1.381c0.469,0.135,0.77,0.195,1.12,0.281c0.351,0.083,0.687,0.163,1.008,0.239
		c0.341,0.079,0.666,0.154,0.976,0.225c0.159,0.038,0.313,0.076,0.464,0.112c0.151,0.035,0.294,0.057,0.48,0.19
		c1.375,0.843,2.497,1.446,3.227,1.868c0.737,0.418,1.118,0.634,1.118,0.634l1.591,0.902c3.229,1.824,7.116,2.511,11.023,1.653
		C484.598,386.874,489.925,378.548,488.076,370.127z"/>
</g>
<g id="Layer_1">
</g>
</svg>
