<?xml version="1.0" encoding="iso-8859-1"?>
<!-- Generator: Adobe Illustrator 18.1.1, SVG Export Plug-In . SVG Version: 6.00 Build 0)  -->
<!DOCTYPE svg PUBLIC "-//W3C//DTD SVG 1.1//EN" "http://www.w3.org/Graphics/SVG/1.1/DTD/svg11.dtd">
<svg version="1.1" xmlns="http://www.w3.org/2000/svg" xmlns:xlink="http://www.w3.org/1999/xlink" x="0px" y="0px"
	 viewBox="0 0 512 512" enable-background="new 0 0 512 512" xml:space="preserve">
<g id="Layer_5">
	<path fill="#FFD45F" d="M403.587,268.98l-9.547,48.333c-0.876,4.435-4.06,7.916-8.151,9.313c-0.203,0.231-0.423,0.456-0.683,0.67
		c-12.147,9.983-42.161,24.158-106.038,24.158c-63.877,0-100.95-17.704-109.32-26.073c-2.801-1.767-4.872-4.628-5.552-8.067
		l-9.547-48.333c-1.621-8.205,6.01-15.25,14.043-12.922c16.964,4.917,49.253,9.943,110.376,9.943s93.412-5.026,110.376-9.943
		C397.576,253.73,405.207,260.775,403.587,268.98z"/>
</g>
<g id="Layer_1">
</g>
</svg>
