<?xml version="1.0" encoding="iso-8859-1"?>
<!-- Generator: Adobe Illustrator 18.1.1, SVG Export Plug-In . SVG Version: 6.00 Build 0)  -->
<!DOCTYPE svg PUBLIC "-//W3C//DTD SVG 1.1//EN" "http://www.w3.org/Graphics/SVG/1.1/DTD/svg11.dtd">
<svg version="1.1" xmlns="http://www.w3.org/2000/svg" xmlns:xlink="http://www.w3.org/1999/xlink" x="0px" y="0px"
	 viewBox="0 0 512 512" enable-background="new 0 0 512 512" xml:space="preserve">
<g id="Layer_2">
	<path fill="#D32A2A" d="M409.409,353.092c-4.1-0.09-8.028,2.355-9.45,5.884l-18.783,46.613c-2.206,5.474-9.889,7.703-14.481,4.217
		c-25.257-19.174-47.271-78.237-61.161-116.871c-16.56-46.06-24.322-82.328-24.747-104.473c-0.088-4.596,2.298-8.482,6.027-9.823
		l50.833-18.276l30.668-11.026c4.262-1.532,8.217,3.086,8.177,8.159c-0.145,18.62,31.099,139.559,85.616,183.168
		c5.67,4.535,0.181,13.592-7.856,13.415L409.409,353.092z"/>
</g>
<g id="Layer_1">
</g>
</svg>
