<svg xmlns="http://www.w3.org/2000/svg" viewBox="0 0 512 512" enable-background="new 0 0 512 512"><path fill="#D5DEE4" d="M497.55 293.558c-.138-3.588-1.67-7.096-4.48-10.497-.37-.814-.985-1.51-1.785-1.988-6.383-6.49-17.436-12.552-32.27-17.983C395.668 226.23 260.5 138.992 260.5 65.765c0-2.485-2.015-4.5-4.5-4.5s-4.5 2.015-4.5 4.5c0 73.215-135.19 160.468-198.53 197.327-14.825 5.43-25.872 11.49-32.254 17.977-.802.48-1.418 1.175-1.79 1.992-2.806 3.4-4.34 6.91-4.477 10.496h-.03v36.054c0 14.425 11.695 26.12 26.12 26.12h2.587c14.176 0 25.706-11.296 26.1-25.377 14.53 4.187 31.526 7.875 50.46 10.944v10.132c0 14.425 11.693 26.12 26.118 26.12h2.24c14.425 0 26.12-11.695 26.12-26.12V347.9c17.345 1.478 35.61 2.498 54.54 3.002v10.203c0 15.28 12.386 27.665 27.665 27.665h.974c15.28 0 27.665-12.386 27.665-27.665v-10.25c18.286-.517 35.943-1.518 52.74-2.947v3.524c0 14.425 11.694 26.12 26.12 26.12h1.538c14.425 0 26.12-11.695 26.12-26.12v-10.005c19.364-3.112 36.716-6.873 51.505-11.15.355 14.117 11.9 25.454 26.102 25.454h2.587c14.425 0 26.12-11.693 26.12-26.118v-36.054h-.292z"/></svg>