<?xml version="1.0" encoding="iso-8859-1"?>
<!-- Generator: Adobe Illustrator 18.1.1, SVG Export Plug-In . SVG Version: 6.00 Build 0)  -->
<!DOCTYPE svg PUBLIC "-//W3C//DTD SVG 1.1//EN" "http://www.w3.org/Graphics/SVG/1.1/DTD/svg11.dtd">
<svg version="1.1" xmlns="http://www.w3.org/2000/svg" xmlns:xlink="http://www.w3.org/1999/xlink" x="0px" y="0px"
	 viewBox="0 0 512 512" enable-background="new 0 0 512 512" xml:space="preserve">
<g id="Layer_8">
	<path fill="#B1E87E" d="M71.863,162.558c0,0-0.16-0.026-0.47-0.076c-0.318-0.045-0.763-0.128-1.322-0.246
		c-1.121-0.235-2.693-0.618-4.497-1.21c-0.449-0.149-0.923-0.306-1.419-0.47c-0.467-0.18-0.957-0.368-1.467-0.565
		c-1.051-0.376-2.032-0.865-3.146-1.354c-2.171-1.006-4.379-2.27-6.57-3.765c-4.387-2.986-8.537-6.985-11.81-11.894
		c-1.665-2.439-3.013-5.158-4.322-7.953c-1.286-2.807-2.549-5.682-3.652-8.642c-2.256-5.893-4.045-12.035-5.274-18.032
		c-1.254-5.983-1.904-11.844-2.127-17.046c-0.055-1.301-0.078-2.563-0.085-3.772c0.021-1.223,0.04-2.383,0.058-3.474
		c0.061-1.113,0.117-2.155,0.17-3.118c0.089-0.982,0.17-1.885,0.244-2.7c0.185-1.65,0.384-2.975,0.545-3.892
		c0.185-0.93,0.284-1.426,0.284-1.426c0.775-3.892,4.559-6.418,8.451-5.643c0.465,0.093,0.947,0.245,1.369,0.418
		c0,0,0.466,0.195,1.341,0.561c0.85,0.379,2.06,0.954,3.532,1.723c0.717,0.394,1.511,0.831,2.375,1.306
		c0.828,0.495,1.724,1.03,2.68,1.601c0.915,0.594,1.888,1.226,2.913,1.893c0.998,0.681,2.032,1.406,3.08,2.178
		c4.189,3.091,8.687,6.905,12.948,11.289c4.286,4.37,8.38,9.285,12.007,14.45c1.838,2.569,3.517,5.223,5.127,7.858
		c1.587,2.647,3.088,5.284,4.181,8.028c2.243,5.457,3.24,11.134,3.265,16.44c0.016,2.652-0.17,5.189-0.549,7.552
		c-0.217,1.196-0.36,2.284-0.635,3.365c-0.122,0.533-0.239,1.043-0.351,1.532c-0.141,0.504-0.275,0.984-0.403,1.44
		c-0.517,1.827-1.078,3.344-1.509,4.405c-0.215,0.53-0.395,0.944-0.535,1.234c-0.132,0.285-0.2,0.432-0.2,0.432
		C83.528,160.537,77.617,163.483,71.863,162.558z"/>
</g>
<g id="Layer_1">
</g>
</svg>
