<?xml version="1.0" encoding="iso-8859-1"?>
<!-- Generator: Adobe Illustrator 18.1.1, SVG Export Plug-In . SVG Version: 6.00 Build 0)  -->
<!DOCTYPE svg PUBLIC "-//W3C//DTD SVG 1.1//EN" "http://www.w3.org/Graphics/SVG/1.1/DTD/svg11.dtd">
<svg version="1.1" xmlns="http://www.w3.org/2000/svg" xmlns:xlink="http://www.w3.org/1999/xlink" x="0px" y="0px"
	 viewBox="0 0 512 512" enable-background="new 0 0 512 512" xml:space="preserve">
<g id="Layer_4">
	<path fill="#56C140" d="M139.516,91.312c0.006,0.481-0.013,0.869-0.025,1.128c-0.011,0.259-0.016,0.393-0.016,0.393
		c-0.054,1.304-1.155,2.317-2.459,2.262c-0.095-0.004-0.188-0.013-0.279-0.028l-0.041-0.007c0,0-0.132-0.022-0.388-0.065
		c-0.257-0.042-0.64-0.103-1.109-0.206c-0.96-0.188-2.29-0.523-3.919-0.988c-1.604-0.488-3.488-1.117-5.545-1.876
		c-2.042-0.776-4.228-1.742-6.502-2.786c-1.131-0.534-2.271-1.115-3.423-1.729c-1.157-0.585-2.321-1.206-3.481-1.867
		c-1.128-0.664-2.286-1.346-3.47-2.043c-0.568-0.354-1.142-0.712-1.721-1.073c-0.565-0.368-1.122-0.772-1.703-1.117
		c-0.563-0.365-1.13-0.732-1.701-1.102c-0.552-0.386-1.108-0.775-1.667-1.167c-0.545-0.413-1.097-0.792-1.659-1.164
		c-0.561-0.374-1.091-0.788-1.64-1.184c-0.062-0.043-0.119-0.092-0.18-0.136c2.199,3.988,4.164,8.065,5.576,12.187
		c1.733,4.953,2.772,9.911,3.236,14.407c0.231,2.249,0.342,4.368,0.312,6.321c0.011,1.929-0.119,3.692-0.247,5.155
		c-0.163,1.484-0.333,2.674-0.5,3.515c-0.074,0.415-0.149,0.744-0.202,0.966c-0.051,0.222-0.077,0.336-0.077,0.336
		c-0.621,2.717-3.327,4.415-6.044,3.794c-0.116-0.026-0.242-0.061-0.354-0.095c0,0-0.112-0.034-0.33-0.101
		c-0.22-0.065-0.542-0.164-0.938-0.307c-0.812-0.275-1.928-0.721-3.295-1.32c-1.332-0.619-2.925-1.386-4.591-2.357
		c-1.708-0.948-3.489-2.102-5.323-3.423c-3.665-2.645-7.443-6.018-10.872-9.991c-3.051-3.49-5.749-7.493-8.233-11.657
		c-0.026,0.092-0.047,0.185-0.074,0.277c-0.218,0.756-0.435,1.51-0.652,2.261c-0.247,0.744-0.452,1.506-0.655,2.268
		c-0.435,1.516-0.865,3.024-1.36,4.51c-0.436,1.505-0.893,3.003-1.362,4.475c-0.996,2.927-1.873,5.86-2.925,8.607
		c-0.983,2.775-1.974,5.433-3.019,7.889c-0.986,2.45-1.978,4.714-2.969,6.737c-0.971,2.009-1.841,3.878-2.649,5.354
		c-0.787,1.493-1.486,2.665-1.978,3.463c-0.518,0.798-0.794,1.223-0.794,1.223c-0.674,1.038-2.062,1.333-3.099,0.658
		c-0.302-0.196-0.547-0.464-0.718-0.755c0,0-0.255-0.439-0.732-1.262c-0.451-0.822-1.091-2.027-1.803-3.558
		c-0.355-0.766-0.759-1.613-1.136-2.535c-0.398-0.917-0.823-1.917-1.185-3.018c-0.799-2.186-1.589-4.673-2.327-7.403
		c-0.678-2.717-1.338-5.669-1.847-8.817c-0.24-1.579-0.438-3.204-0.625-4.869c-0.083-0.833-0.167-1.675-0.252-2.526
		c-0.045-0.856-0.09-1.72-0.135-2.591c-0.058-1.743-0.136-3.519-0.117-5.319c0.029-1.809,0.129-3.635,0.228-5.481
		c0.082-1.841,0.336-3.71,0.566-5.576c0.226-1.869,0.507-3.741,0.902-5.609c0.686-3.742,1.701-7.444,2.849-11.035
		c1.271-3.56,2.677-7.012,4.413-10.178c0.432-0.79,0.86-1.574,1.284-2.351c0.453-0.761,0.937-1.495,1.396-2.229
		c0.59-0.893,1.178-1.762,1.773-2.614c-6.598-9.72-15.54-16.986-31.603-27.115c-4.438-2.798-5.767-8.665-2.968-13.103
		c2.799-4.438,8.666-5.766,13.103-2.968c14.905,9.399,24.743,17.203,32.048,25.723c0.299-0.104,0.606-0.209,0.935-0.316
		c0.763-0.248,1.609-0.534,2.518-0.781c0.893-0.285,1.935-0.512,3.047-0.69c2.214-0.403,4.807-0.809,7.55-0.961
		c1.364-0.066,2.791-0.11,4.268-0.111c1.482-0.025,3.013,0.013,4.576,0.186c1.571,0.133,3.182,0.323,4.834,0.538
		c1.646,0.244,3.305,0.641,5.006,1.015c0.847,0.207,1.7,0.415,2.56,0.626c0.856,0.234,1.695,0.539,2.553,0.816
		c0.857,0.279,1.717,0.574,2.574,0.889c0.853,0.323,1.742,0.588,2.57,0.992c1.686,0.747,3.38,1.53,5.061,2.36
		c0.855,0.393,1.636,0.903,2.454,1.362c0.807,0.475,1.628,0.934,2.422,1.434c1.632,0.948,3.125,2.052,4.626,3.148
		c1.522,1.073,2.971,2.219,4.303,3.442c1.34,1.213,2.703,2.422,3.884,3.713c0.586,0.653,1.168,1.303,1.746,1.947
		c0.559,0.661,1.113,1.317,1.663,1.968c1.047,1.335,1.983,2.694,2.896,4.037c0.44,0.681,0.875,1.355,1.305,2.021
		c0.385,0.687,0.765,1.365,1.14,2.035c0.728,1.354,1.399,2.694,2.018,4.005c0.566,1.334,1.087,2.635,1.55,3.908
		c0.948,2.541,1.58,4.978,2.06,7.198c0.245,1.104,0.411,2.186,0.59,3.157c0.134,1.003,0.242,1.933,0.329,2.779
		C139.464,88.951,139.527,90.331,139.516,91.312z"/>
</g>
<g id="Layer_1">
</g>
</svg>
