<svg xmlns="http://www.w3.org/2000/svg" viewBox="0 0 512 512" enable-background="new 0 0 512 512"><path fill="#D1552A" d="M443.67 128.85v372.767H258.007V128.85c0-2.928 2.374-5.302 5.302-5.302h175.06c2.926 0 5.3 2.374 5.3 5.302zM233.318 311.89h-87.85c-1.47 0-2.66 1.192-2.66 2.662v187.066h93.17V314.55c0-1.468-1.19-2.66-2.66-2.66zm267.633-95.32h-36.188c-2.095 0-3.794 1.7-3.794 3.794v266.77h39.983V216.57zM62.64 234.404H9.717v255.213c0 6.6 5.4 12 12 12h44.72v-263.42c0-2.094-1.7-3.793-3.795-3.793z"/></svg>