<?xml version="1.0" encoding="iso-8859-1"?>
<!-- Generator: Adobe Illustrator 19.1.0, SVG Export Plug-In . SVG Version: 6.00 Build 0)  -->
<!DOCTYPE svg PUBLIC "-//W3C//DTD SVG 1.1//EN" "http://www.w3.org/Graphics/SVG/1.1/DTD/svg11.dtd">
<svg version="1.1" xmlns="http://www.w3.org/2000/svg" xmlns:xlink="http://www.w3.org/1999/xlink" x="0px" y="0px"
	 viewBox="0 0 512 512" enable-background="new 0 0 512 512" xml:space="preserve">
<g id="Layer_4">
	<path fill="#FFB93E" d="M440.412,111.232c0,0,0.448,2.07,1.037,5.879c0.073,0.476,0.151,0.98,0.233,1.511
		c0.08,0.535,0.181,1.063,0.222,1.749c0.077,1.313,0.161,2.745,0.252,4.294c0.075,1.541,0.188,3.271,0.234,5.01
		c0.036,1.708,0.1,3.541,0.103,5.467c0.043,7.711-0.356,17.114-1.832,27.815c-1.452,10.704-3.924,22.734-7.857,35.594
		c-3.912,12.865-9.379,26.501-16.492,40.373c-0.852,1.761-1.821,3.458-2.766,5.194c-0.477,0.866-0.955,1.736-1.434,2.608
		l-0.723,1.311l-0.182,0.329c0.611-0.747-0.936,1.204-0.803,1.051l-0.075,0.137l-0.301,0.548c-1.595,2.936-3.307,5.829-4.984,8.797
		l-0.158,0.277l-0.23,0.347l-0.464,0.697l-0.932,1.398c-0.635,0.925-1.273,1.853-1.911,2.783c-1.294,1.858-2.596,3.726-3.903,5.603
		l-0.988,1.404l-0.935,1.276c-0.621,0.855-1.257,1.701-1.9,2.545c-1.287,1.693-2.58,3.393-3.879,5.1
		c-10.527,13.565-22.827,26.553-36.497,38.478c-13.679,11.912-28.763,22.717-44.763,31.964
		c-15.985,9.275-32.873,17.001-50.035,23.002c-17.17,5.983-34.607,10.237-51.667,12.753c-17.062,2.524-33.725,3.344-49.396,2.793
		c-7.833-0.211-15.431-0.937-22.714-1.761c-7.288-0.998-14.269-2.054-20.895-3.548c-1.653-0.35-3.288-0.697-4.906-1.039
		c-1.613-0.347-3.199-0.812-4.765-1.208c-3.132-0.809-6.173-1.637-9.118-2.484c-2.941-0.887-5.783-1.841-8.53-2.771
		c-1.369-0.465-2.719-0.924-4.049-1.376c-1.326-0.451-2.614-1.002-3.886-1.486c-2.542-0.983-4.981-1.989-7.321-2.959
		c-2.349-0.921-4.566-2.007-6.692-3.005c-4.245-2.036-8.106-3.87-11.493-5.827c-3.399-1.906-6.386-3.658-8.955-5.216
		c-2.545-1.65-4.668-3.121-6.381-4.309c-3.422-2.38-5.178-3.767-5.178-3.767c-16.342-12.916-19.119-36.634-6.203-52.976
		c5.395-6.826,12.675-11.286,20.515-13.223l4.414-1.09c0,0,1.85-0.458,5.189-1.094c1.668-0.316,3.714-0.713,6.07-1.099
		c2.377-0.481,5.076-0.997,8.044-1.518c2.956-0.449,6.236-1.211,9.715-1.821c3.474-0.567,7.219-1.462,11.125-2.179
		c3.91-0.734,8.034-1.765,12.286-2.574c2.136-0.53,4.307-1.034,6.51-1.51c2.203-0.463,4.444-1.052,6.714-1.604
		c1.131-0.277,2.273-0.557,3.427-0.84c0.574-0.13,1.15-0.26,1.729-0.392c0.577-0.156,1.157-0.313,1.74-0.471
		c1.159-0.312,2.328-0.627,3.508-0.945c1.172-0.29,2.355-0.582,3.547-0.877c1.183-0.344,2.375-0.692,3.577-1.042
		c1.195-0.324,2.4-0.65,3.613-0.978c0.604-0.163,1.21-0.327,1.818-0.492c0.605-0.19,1.211-0.382,1.82-0.573
		c1.216-0.378,2.441-0.719,3.668-1.08c9.812-2.946,19.883-6.258,30.038-9.997c20.319-7.448,40.981-16.592,60.873-27.37
		c9.94-5.398,19.706-11.16,29.192-17.224c9.504-6.043,18.688-12.426,27.595-18.914c1.1-0.829,2.195-1.655,3.286-2.478
		c0.546-0.414,1.095-0.822,1.658-1.219l0.838-0.599l0.714-0.528c0.956-0.7,1.907-1.396,2.853-2.089l1.441-1.034l0.738-0.503
		l0.37-0.251l0.186-0.127l0.24-0.211c2.569-2.241,5.057-4.501,7.611-6.656l0.476-0.406l0.119-0.101
		c0.199-0.232-1.285,1.638-0.613,0.81l0.192-0.159l0.767-0.635l1.532-1.267c1.022-0.848,2.038-1.69,3.047-2.526
		c8.042-6.758,15.726-13.493,22.789-20.089c7.076-6.583,13.618-12.971,19.495-18.872c5.896-5.891,11.062-11.319,15.437-15.896
		c1.07-1.152,2.144-2.233,3.131-3.267c0.974-1.01,1.88-1.882,2.735-2.749c0.86-0.863,1.656-1.661,2.385-2.393
		c0.377-0.333,0.754-0.79,1.108-1.19c0.355-0.404,0.691-0.787,1.009-1.148c2.545-2.894,4.036-4.399,4.036-4.399
		c11.473-11.577,30.159-11.66,41.736-0.187C436.565,100.699,439.251,105.823,440.412,111.232z"/>
</g>
<g id="Layer_1">
</g>
</svg>
