<svg xmlns="http://www.w3.org/2000/svg" viewBox="0 0 512 512" enable-background="new 0 0 512 512"><path fill="#F9F9F7" d="M435.995 365.09c-.066-.22-.152-.435-.232-.65-.07-.568-.13-1.164-.13-1.793 0-6.164-21.574-19.007-21.574-38.528 0-19.522 16.95-26.2 16.95-59.59s-11.3-60.617-47.773-60.617-45.206 21.575-103.254 21.575-78.136-50.694-87.33-66.78c-10.024-17.544-32.954-53.086-60.506-65.76 1.138-23.636-13.466-39.036-12.953-30.303.445 7.568-6.436 15.138-8.28 25.744-12.043.793-21 10.214-21 10.214-9.248 10.274-12.33 27.74-11.816 41.096s-9.717 20.282-14.384 38.014c-5.137 19.52 10.274 26.2 13.1 27.226 2.824 1.027 5.14.107 10.53-19.52 1.424-5.185 9.754-1.02 8.917 4.553-1.44 9.585-5.03 20.406 3.927 17.536 8.957-2.872 10.788-9.248 11.3-22.09.515-12.843 19.522-24.658 23.118-25.17 3.596-.515 0 31.335 0 31.335s-7.706 34.026-7.706 49.12c0 6.995.776 21.745 3.398 37.538 1.31 7.882-4.77 15.026-12.758 14.98-8.325-.045-15.978-.4-20.95-1.98-11.3-3.596-22.602-12.143-29.28-12.143-6.678 0-20.034 4.438-21.062 20.876C45.22 316.414 26.728 333.88 25.7 342.1c-1.027 8.218 9.857 41.948 22.09 47.62 5.1 2.367 6.104-15.04 6.25-25.572.06-4.237-2.896-7.895-7.04-8.778-4.486-.956-8.714-2.5-4.35-4.538 7.707-3.596 6.165 1.217 8.22-19.426 2.055-20.643 6.678-26.837 19.52-26.565 12.843.273 22.09 26.566 73.974 26.566h.09c5.033-.004 9.888 1.853 13.587 5.267 12.433 11.475 22.205 14.16 43.345 14.16 69.564 0 94.007-31.337 112.5-31.337s1.54 5.65 19.52 23.63c17.98 17.98 41.097 33.904 74.488 31.336l.033-.003c1.735-.135 3.184 1.314 3.047 3.048-2.163 27.408-43.427 48.394-57.02 62.194-6.322 6.42-10.047 27.74-10.047 27.74s-2.28 11.815.923 14.897c3.203 3.08 14.51-1.273 22.48-10.275 2.858-3.23-1.076-10.688 1.027-15.41 1.85-4.152 9.89-5.783 10.274-6.165 3.597-3.596-9.246-6.678 11.816-21.268 21.064-14.588 49.06-52.626 45.57-64.133z"/></svg>