<?xml version="1.0" encoding="iso-8859-1"?>
<!-- Generator: Adobe Illustrator 19.1.0, SVG Export Plug-In . SVG Version: 6.00 Build 0)  -->
<!DOCTYPE svg PUBLIC "-//W3C//DTD SVG 1.1//EN" "http://www.w3.org/Graphics/SVG/1.1/DTD/svg11.dtd">
<svg version="1.1" xmlns="http://www.w3.org/2000/svg" xmlns:xlink="http://www.w3.org/1999/xlink" x="0px" y="0px"
	 viewBox="0 0 509.04 509.04" enable-background="new 0 0 509.04 509.04" xml:space="preserve">
<g id="Layer_5">
	<path fill="#B9D3DB" d="M332.643,67.222c-8.812-15.211-30.776-15.211-39.588,0L240.88,170.074
		c14.993,0.857,21.326,12.194,20.772,21.229c-0.437,7.122,3.632,14.056,9.892,17.479c16.774,9.172,33.717-2.731,33.717-18.59
		c0-32.068,7.402-40.975,19.319-41.97c0.799,0.067,1.564,0.215,2.388,0.215c20.034,0,28.894,16.877,27.329,27.888
		c-0.956,6.724,2.704,13.313,8.272,17.204c12.537,8.761,25.295,7.048,33.731,0.174L332.643,67.222z"/>
</g>
<g id="Layer_1">
</g>
</svg>
