<?xml version="1.0" encoding="iso-8859-1"?>
<!-- Generator: Adobe Illustrator 18.1.1, SVG Export Plug-In . SVG Version: 6.00 Build 0)  -->
<!DOCTYPE svg PUBLIC "-//W3C//DTD SVG 1.1//EN" "http://www.w3.org/Graphics/SVG/1.1/DTD/svg11.dtd">
<svg version="1.1" xmlns="http://www.w3.org/2000/svg" xmlns:xlink="http://www.w3.org/1999/xlink" x="0px" y="0px"
	 viewBox="0 0 512 512" enable-background="new 0 0 512 512" xml:space="preserve">
<g id="Layer_6">
	<path fill="#FFD469" d="M350.674,335.552c-1.688,0-3.377-0.027-5.071-0.082c-33.255-1.078-63.315-12.381-84.646-31.826
		c-4.897-4.465-5.248-12.055-0.783-16.953c4.466-4.898,12.057-5.247,16.953-0.783c17.11,15.6,41.705,24.683,69.253,25.575
		c24.38,0.799,48.492-5.297,62.957-15.886c18.262-13.368,12.212-26.484,10.224-30.795c-11.492-24.914-49.73-27.084-90.215-29.382
		c-31.746-1.802-64.572-3.665-90.322-16.552c-11.953-5.982-20.591-12.811-25.676-20.295c-5.882-8.658-7.03-18.196-3.234-26.857
		c5.257-11.996,19.387-20.443,38.766-23.178c18.715-2.641,40.625,0.299,61.694,8.278c6.197,2.347,9.319,9.274,6.973,15.472
		c-2.348,6.198-9.276,9.317-15.473,6.972c-38.477-14.571-66.859-5.027-69.978,2.089c-0.812,1.853,2.509,8.47,17.669,16.057
		c21.317,10.669,51.628,12.389,80.941,14.053c45.779,2.598,93.116,5.285,110.647,43.291c10.182,22.073,3.513,44.583-17.84,60.213
		C405.715,327.991,378.784,335.552,350.674,335.552z M170.743,318.428c0.444-6.612-4.556-12.333-11.168-12.777
		c-21.911-1.474-32.979-10.62-36.032-18.689c-2.308-6.101-0.462-12.607,5.196-18.323c28.778-29.068,107.147-14.382,165.515,7.026
		c6.223,2.284,13.115-0.91,15.398-7.133c2.282-6.223-0.911-13.116-7.133-15.399c-47.335-17.364-88.787-25.657-123.204-24.632
		c-37.985,1.124-57.745,13.266-67.632,23.253c-12.286,12.41-16.244,28.747-10.587,43.7c7.37,19.48,28.629,32.245,56.87,34.143
		c0.274,0.019,0.546,0.028,0.817,0.028C165.042,329.623,170.317,324.767,170.743,318.428z M80.067,243.625
		c23.056-6.52,42.642-34.492,58.214-83.139c12.913-40.339,18.793-82.399,18.793-104.408c0-20.764,8.603-30.838,12.174-32.857
		c0.789,1.439,2.17,5.072,2.17,12.857c0,12.953-2.005,28.072-4.127,44.08c-4.98,37.556-10.625,80.123,4.927,120.558
		c2.379,6.186,9.321,9.271,15.508,6.892c6.186-2.379,9.271-9.322,6.892-15.508c-13.357-34.726-8.14-74.072-3.536-108.786
		c2.23-16.815,4.336-32.698,4.336-47.235c0-10.476-1.895-18.986-5.633-25.296c-4.487-7.575-11.694-11.92-19.773-11.92
		c-17.764,0-36.938,21.875-36.938,57.216c0,20.846-6.063,60.89-17.651,97.092c-12.235,38.222-27.894,63.404-41.887,67.361
		c-6.377,1.804-10.085,8.435-8.282,14.812c1.495,5.286,6.307,8.738,11.541,8.738C77.876,244.081,78.976,243.934,80.067,243.625z"/>
</g>
<g id="Layer_1">
</g>
</svg>
