<?xml version="1.0" encoding="iso-8859-1"?>
<!-- Generator: Adobe Illustrator 19.1.0, SVG Export Plug-In . SVG Version: 6.00 Build 0)  -->
<!DOCTYPE svg PUBLIC "-//W3C//DTD SVG 1.1//EN" "http://www.w3.org/Graphics/SVG/1.1/DTD/svg11.dtd">
<svg version="1.1" xmlns="http://www.w3.org/2000/svg" xmlns:xlink="http://www.w3.org/1999/xlink" x="0px" y="0px"
	 viewBox="0 0 512 512" enable-background="new 0 0 512 512" xml:space="preserve">
<g id="Layer_4">
	<path fill="#179967" d="M258.823,110.844c0,0,0.233-0.223,0.683-0.656c0.446-0.413,1.112-1.047,1.955-1.767
		c0.423-0.367,0.896-0.777,1.416-1.228c0.512-0.417,1.071-0.872,1.675-1.364c0.297-0.249,0.627-0.494,0.928-0.772
		c0.25-0.281,0.508-0.572,0.774-0.873c0.518-0.593,1.042-1.226,1.562-1.896c0.524-0.699,1.02-1.298,1.513-1.983
		c0.12-0.168,0.242-0.338,0.365-0.51c0.145-0.181,0.292-0.364,0.441-0.549c0.292-0.372,0.591-0.752,0.896-1.139
		c0.593-0.734,1.182-1.482,1.763-2.244c0.283-0.367,0.57-0.74,0.863-1.12c0.29-0.399,0.585-0.805,0.885-1.218
		c1.185-1.633,2.254-3.157,3.418-4.874c1.064-1.585,2.182-3.251,3.349-4.99c2.187-3.263,4.536-6.67,7.044-9.748
		c0.652-0.848,1.326-1.588,1.991-2.353c0.636-0.764,1.389-1.528,2.114-2.286c0.366-0.372,0.72-0.779,1.094-1.123
		c0.38-0.357,0.762-0.716,1.146-1.077c0.398-0.371,0.79-0.762,1.193-1.119c0.406-0.342,0.815-0.686,1.224-1.031
		c0.42-0.356,0.842-0.714,1.265-1.073c0.443-0.336,0.889-0.673,1.336-1.011c0.892-0.679,1.766-1.345,2.766-1.987
		c0.974-0.641,1.932-1.334,2.938-1.912c1.029-0.641,2.1-1.246,3.172-1.828c1.055-0.575,2.193-1.143,3.348-1.716
		c1.167-0.551,2.297-1.068,3.529-1.587c1.227-0.529,2.488-0.983,3.733-1.479l1.913-0.747c0.654-0.242,1.32-0.453,1.98-0.681
		c1.326-0.44,2.623-0.909,4.026-1.342c1.393-0.403,2.784-0.805,4.173-1.206c1.42-0.425,2.908-0.722,4.351-1.086l2.182-0.52
		l2.275-0.434c1.528-0.27,2.984-0.615,4.548-0.809c1.567-0.217,3.125-0.432,4.675-0.646c1.597-0.148,3.185-0.294,4.761-0.44
		c1.605-0.13,3.164-0.184,4.797-0.251c1.618-0.083,3.254-0.046,4.852-0.046c0.8,0.006,1.588,0.001,2.417,0.033
		c0.821,0.046,1.638,0.091,2.451,0.137c1.63,0.095,3.186,0.169,4.82,0.373c1.632,0.195,3.22,0.344,4.804,0.613
		c3.12,0.437,6.344,1.164,9.294,1.867c1.518,0.413,3.026,0.84,4.476,1.285c1.468,0.487,2.853,0.917,4.26,1.444
		c1.391,0.566,2.752,1.12,4.083,1.662c1.322,0.599,2.569,1.146,3.825,1.79c1.247,0.66,2.441,1.311,3.583,1.947
		c1.15,0.689,2.224,1.297,3.29,2.01c1.058,0.727,2.062,1.43,3.015,2.119c0.952,0.72,1.852,1.407,2.701,2.085
		c0.85,0.716,1.659,1.439,2.41,2.141c0.737,0.727,1.44,1.421,2.106,2.079c0.652,0.671,1.261,1.253,1.816,1.897
		c0.556,0.641,1.066,1.285,1.532,1.861c0.936,1.132,1.68,2.234,2.275,3.074c1.181,1.728,1.74,2.761,1.74,2.761l0.252,0.467
		c1.433,2.648,0.727,5.88-1.522,7.717c0,0-0.772,0.631-2.119,1.657c-1.351,1.056-3.238,2.375-5.481,4.175
		c-0.548,0.437-1.126,0.898-1.732,1.382c-0.595,0.473-1.2,0.89-1.828,1.409c-0.617,0.523-1.26,1.067-1.926,1.632
		c-0.639,0.524-1.302,1.068-1.986,1.629c-0.666,0.507-1.365,1.157-2.055,1.751c-0.681,0.578-1.381,1.173-2.1,1.784
		c-0.7,0.552-1.432,1.231-2.155,1.873c-0.715,0.615-1.446,1.244-2.193,1.887c-0.735,0.608-1.502,1.308-2.254,1.971
		c-0.75,0.639-1.513,1.291-2.29,1.953c-0.782,0.696-1.576,1.347-2.365,2.031c-0.795,0.664-1.602,1.338-2.42,2.021
		c-0.816,0.718-1.657,1.353-2.489,2.028c-0.83,0.686-1.714,1.395-2.581,2.065c-0.433,0.34-0.869,0.683-1.307,1.027
		c-0.447,0.336-0.897,0.674-1.348,1.014c-0.912,0.687-1.816,1.409-2.75,2.046c-3.755,2.778-7.722,5.406-12.079,8.039l-1.616,0.981
		l-1.685,0.957c-1.134,0.629-2.243,1.308-3.404,1.898c-1.181,0.621-2.364,1.243-3.548,1.866c-1.177,0.597-2.433,1.181-3.667,1.783
		c-4.938,2.317-10.197,4.62-15.796,6.365c-5.536,1.786-11.536,3.172-17.576,4.028c-6.077,0.858-12.393,1.135-18.529,0.799
		c-6.238-0.401-12.222-1.348-17.844-3.038c-2.751-0.755-5.442-1.787-7.921-2.863c-1.232-0.504-2.417-1.073-3.584-1.697
		c-1.157-0.586-2.258-1.244-3.304-1.842c-4.234-2.529-7.448-5.313-10.284-7.983c-0.67-0.672-1.279-1.307-1.833-1.902
		c-0.276-0.302-0.543-0.576-0.789-0.874c-0.208-0.3-0.37-0.595-0.548-0.876c-0.345-0.564-0.664-1.086-0.956-1.564
		c-0.286-0.504-0.546-0.961-0.779-1.371c-0.469-0.805-0.81-1.498-1.043-1.952c-0.233-0.455-0.353-0.689-0.353-0.689
		c-1.282-2.504-0.705-5.471,1.224-7.325L258.823,110.844z"/>
</g>
<g id="Layer_1">
</g>
</svg>
