<?xml version="1.0" encoding="iso-8859-1"?>
<!-- Generator: Adobe Illustrator 19.1.0, SVG Export Plug-In . SVG Version: 6.00 Build 0)  -->
<!DOCTYPE svg PUBLIC "-//W3C//DTD SVG 1.1//EN" "http://www.w3.org/Graphics/SVG/1.1/DTD/svg11.dtd">
<svg version="1.1" xmlns="http://www.w3.org/2000/svg" xmlns:xlink="http://www.w3.org/1999/xlink" x="0px" y="0px"
	 viewBox="0 0 509.04 509.04" enable-background="new 0 0 509.04 509.04" xml:space="preserve">
<g id="Layer_14">
	<path fill="#B1EAFE" d="M482.544,42.895c-1.227,0-2.412,0.167-3.551,0.449c0.256-1.109,0.405-2.26,0.405-3.447
		c0-8.438-6.841-15.279-15.279-15.279c-3.203,0-6.173,0.989-8.629,2.674c-2.865-11.045-12.9-19.2-24.841-19.2
		c-14.173,0-25.663,11.49-25.663,25.663c-10.656,0-19.294,8.638-19.294,19.294c0,10.656,8.638,19.294,19.294,19.294h77.558
		c8.132,0,14.724-6.592,14.724-14.724C497.268,49.487,490.676,42.895,482.544,42.895z"/>
</g>
<g id="Layer_1">
</g>
</svg>
