<?xml version="1.0" encoding="iso-8859-1"?>
<!-- Generator: Adobe Illustrator 18.1.1, SVG Export Plug-In . SVG Version: 6.00 Build 0)  -->
<!DOCTYPE svg PUBLIC "-//W3C//DTD SVG 1.1//EN" "http://www.w3.org/Graphics/SVG/1.1/DTD/svg11.dtd">
<svg version="1.1" xmlns="http://www.w3.org/2000/svg" xmlns:xlink="http://www.w3.org/1999/xlink" x="0px" y="0px"
	 viewBox="0 0 512 512" enable-background="new 0 0 512 512" xml:space="preserve">
<g id="Layer_11">
	<path fill="#68442A" d="M244.065,41.289c-2.108-13.099-12.138-28.359-29.629-33.902c-2.59-0.822,3.137-4.87,0.222-5.227
		c-2.372-0.287-13.323,3.029-15.899,3.089c-2.534,0.063-5.186,0.303-7.927,0.744c-32.153,5.173-42.391,32.052-39.47,50.211
		l3.709,23.051c6.203-0.998,5.226-2.38,5.212-16.667c-0.04-27.791,39.496-24.875,39.496-24.875l-0.001-0.003
		c6.745,1.956,15.847,4.363,19.609,4.306c3.059-0.046-10.207-7.559-6.673-7.126c8.834,1.085,17.076,6.265,21.406,14.011
		c5.68,10.175,7.245,15.075,13.436,14.079L244.065,41.289z"/>
</g>
<g id="Layer_1">
</g>
</svg>
