<?xml version="1.0" encoding="iso-8859-1"?>
<!-- Generator: Adobe Illustrator 18.1.1, SVG Export Plug-In . SVG Version: 6.00 Build 0)  -->
<!DOCTYPE svg PUBLIC "-//W3C//DTD SVG 1.1//EN" "http://www.w3.org/Graphics/SVG/1.1/DTD/svg11.dtd">
<svg version="1.1" xmlns="http://www.w3.org/2000/svg" xmlns:xlink="http://www.w3.org/1999/xlink" x="0px" y="0px"
	 viewBox="0 0 512 512" enable-background="new 0 0 512 512" xml:space="preserve">
<g id="Layer_2">
	<path fill="#F98787" d="M213.635,476.854c-111.62,0-155.951-149.659-173.777-173.735c-1.218-0.99-2.424-2.058-3.617-3.191
		c-0.008-0.002-0.016-0.006-0.024-0.007v-0.015c-10.946-10.403-20.675-26.662-26.476-46.16
		c-11.339-38.108-11.574-92.367,9.564-98.656c10.639-3.166,24.665,6.427,37.419,21.594c6.408-21.313,17.145-38.694,27.945-41.908
		c21.138-6.289,44.833,42.423,45.846,82.17c0.621,24.369-0.636,53.641-5.252,76.405c-0.002,0.01-0.002,0.018-0.004,0.028
		c-13.547,83.292,68.485,82.886,77.741,87.011C254.399,403.292,242.686,476.854,213.635,476.854z"/>
</g>
<g id="Layer_3">
	<path fill="#F96B6B" d="M47.669,275.819c-2.991,0-5.561-2.258-5.885-5.299c-3.93-36.884-1.647-64.187,7.183-85.924
		c1.232-3.032,4.691-4.489,7.721-3.26c3.032,1.232,4.491,4.688,3.26,7.721c-8.067,19.855-10.094,45.342-6.378,80.207
		c0.347,3.254-2.01,6.174-5.265,6.521C48.091,275.808,47.879,275.819,47.669,275.819z"/>
</g>
<g id="Layer_4">
	<path fill="#FFC878" d="M511,274.771c0,158.615-93.64,214.71-285.712,214.71c-88.979,0-67.731-131.534-12.136-131.534
		c70.249,0,109.232-14.479,121.789-35.204c0.046-0.441,0.11-0.955,0.199-1.559c7.635-52.059-28.905-52.059-76.844-52.059
		c-52.78,0-73.067-59.523-73.067-119.639c0-60.116,42.786-108.85,95.566-108.85c0.85,0,1.696,0.014,2.541,0.039
		C360.44,42.308,511,117.89,511,274.771z"/>
</g>
</svg>
