<?xml version="1.0" encoding="iso-8859-1"?>
<!-- Generator: Adobe Illustrator 19.2.0, SVG Export Plug-In . SVG Version: 6.00 Build 0)  -->
<!DOCTYPE svg PUBLIC "-//W3C//DTD SVG 1.1//EN" "http://www.w3.org/Graphics/SVG/1.1/DTD/svg11.dtd">
<svg version="1.1" xmlns="http://www.w3.org/2000/svg" xmlns:xlink="http://www.w3.org/1999/xlink" x="0px" y="0px"
	 viewBox="0 0 512 512" enable-background="new 0 0 512 512" xml:space="preserve">
<g id="Layer_5">
	<path fill="#597B91" d="M66.216,217.122c-17.936,0-32.976-5.5-43.764-16.288C5.924,184.306,1.81,157.798,10.866,126.193
		c8.65-30.19,28.433-61.835,55.704-89.106c2.699-2.699,7.076-2.699,9.775,0c2.7,2.7,2.7,7.077,0,9.776
		c-25.64,25.64-44.174,55.166-52.189,83.138c-7.609,26.558-4.742,48.241,8.072,61.056c12.817,12.816,34.502,15.682,61.057,8.073
		c27.973-8.015,57.498-26.55,83.139-52.19c2.699-2.699,7.076-2.699,9.775,0c2.7,2.7,2.7,7.077,0,9.776
		c-27.271,27.271-58.916,47.054-89.105,55.704C86.119,215.565,75.757,217.122,66.216,217.122z"/>
</g>
<g id="Layer_1">
</g>
</svg>
