<?xml version="1.0" encoding="iso-8859-1"?>
<!-- Generator: Adobe Illustrator 19.1.0, SVG Export Plug-In . SVG Version: 6.00 Build 0)  -->
<!DOCTYPE svg PUBLIC "-//W3C//DTD SVG 1.1//EN" "http://www.w3.org/Graphics/SVG/1.1/DTD/svg11.dtd">
<svg version="1.1" xmlns="http://www.w3.org/2000/svg" xmlns:xlink="http://www.w3.org/1999/xlink" x="0px" y="0px"
	 viewBox="0 0 512 512" enable-background="new 0 0 512 512" xml:space="preserve">
<g id="Layer_12">
	<path fill="#FECB21" d="M485.197,81.577L438.36,265.442c-3.011,11.821-15.036,18.963-26.857,15.952h0
		c-4.082-1.04-7.605-3.155-10.346-5.965c-3.309,4.183-8.131,7.188-13.812,8.101c-12.044,1.937-23.377-6.257-25.314-18.301
		L331.909,77.899c-1.937-12.044,6.257-23.378,18.301-25.314h0c12.044-1.937,23.377,6.257,25.314,18.301l25.854,160.781
		l41.012-160.995c3.011-11.821,15.036-18.963,26.857-15.952h0C481.067,57.732,488.209,69.756,485.197,81.577z"/>
</g>
<g id="Layer_1">
</g>
</svg>
