<?xml version="1.0" encoding="iso-8859-1"?>
<!-- Generator: Adobe Illustrator 19.1.0, SVG Export Plug-In . SVG Version: 6.00 Build 0)  -->
<!DOCTYPE svg PUBLIC "-//W3C//DTD SVG 1.1//EN" "http://www.w3.org/Graphics/SVG/1.1/DTD/svg11.dtd">
<svg version="1.1" xmlns="http://www.w3.org/2000/svg" xmlns:xlink="http://www.w3.org/1999/xlink" x="0px" y="0px"
	 viewBox="0 0 512 512" enable-background="new 0 0 512 512" xml:space="preserve">
<g id="Layer_2">
	<path fill="#5BB25B" d="M396.644,225.03c-0.42-3.559-3.645-6.103-7.204-5.683c-8.084,0.954-16.747,2.191-25.044,3.638
		c-8.358,1.487-16.692,3.252-24.979,5.322c-16.572,4.125-32.946,9.638-48.725,16.79c-15.773,7.144-30.92,15.987-44.898,26.415
		c-13.987,10.418-26.784,22.342-38.419,35.074c-11.625,12.752-22.134,26.264-32.027,39.951
		c-9.892,13.697-19.186,27.576-28.429,41.288c-1.84,2.734-3.678,5.456-5.517,8.175c4.344-16.46,8.418-32.956,12.275-49.446
		c4.867-20.716,9.43-41.42,14.121-61.96c4.703-20.535,9.516-40.924,15.194-60.857c5.676-19.922,12.27-39.396,20.899-57.626
		c4.288-9.128,9.192-17.857,14.677-26.138c5.465-8.299,11.69-16,18.524-23.112c6.816-7.135,14.418-13.493,22.524-19.216
		c8.112-5.72,16.8-10.72,25.904-15.019c18.203-8.639,37.892-14.649,58.041-19.009c2.563-0.559,4.277-3.04,3.843-5.657
		c-0.448-2.702-3.001-4.529-5.702-4.081l-0.059,0.01c-20.906,3.464-41.687,8.658-61.512,16.893
		c-9.91,4.098-19.538,9.012-28.677,14.804c-9.13,5.792-17.842,12.381-25.749,19.879c-7.926,7.47-15.223,15.663-21.663,24.467
		c-6.463,8.787-12.265,18.056-17.36,27.649c-10.249,19.183-18.157,39.37-25.034,59.68c-6.875,20.33-12.776,40.836-18.519,61.271
		c-5.729,20.442-11.279,40.831-17.091,61.067c-5.791,20.244-11.859,40.328-18.358,60.216c-2.652,8.069-5.397,16.094-8.196,24.094
		c-1.262-8.912-2.34-18.478-3.094-28.513c-1.319-16.995-1.693-35.263-1.421-53.774c0.12-9.258,0.39-18.578,0.648-27.868
		c0.255-9.288,0.514-18.541,0.524-27.691c0.021-9.139-0.222-18.194-0.997-27.021c-0.816-8.836-2.15-17.464-4.436-25.565
		c-2.224-8.084-5.387-15.583-9.065-21.849c-3.63-6.304-7.721-11.317-11.306-15.093c-3.587-3.813-6.731-6.35-8.843-8.093
		c-2.166-1.644-3.321-2.521-3.321-2.521c-3.624-2.74-8.822-2.229-11.812,1.27c-3.105,3.633-2.676,9.096,0.957,12.2l0.685,0.586
		c0,0,0.896,0.766,2.576,2.201c1.612,1.504,4.018,3.675,6.636,6.816c2.629,3.117,5.542,7.139,8.05,12.167
		c2.549,4.998,4.688,10.974,6.119,17.697c1.479,6.711,2.208,14.171,2.473,22.092c0.229,7.934-0.023,16.344-0.553,25.08
		c-0.517,8.734-1.294,17.795-2.082,27.047c-0.791,9.25-1.607,18.696-2.273,28.195c-1.364,18.991-2.069,38.216-1.682,56.342
		c0.343,18.126,1.747,35.123,3.616,49.643c0.91,7.265,1.996,13.899,2.993,19.78c1.047,5.883,2.039,10.955,2.942,15.204
		c0.466,2.136,0.881,4.044,1.243,5.704c0.362,1.568,0.67,2.901,0.92,3.983c0.499,2.155,0.766,3.305,0.766,3.305
		c0.072,0.304,0.164,0.662,0.253,0.965c2.697,9.202,12.344,14.476,21.546,11.778c1.274-0.374,2.464-0.892,3.577-1.512
		c0.214,0.093,0.422,0.196,0.643,0.279c7.12,2.674,15.059-0.931,17.733-8.051l0.274-0.73c0,0,0.418-1.112,1.2-3.197
		c0.764-2.093,1.959-5.129,3.49-8.987c0.796-1.914,1.678-4.032,2.638-6.339c1.014-2.279,2.045-4.776,3.271-7.38
		c2.373-5.247,5.224-11.073,8.57-17.269c3.349-6.194,7.215-12.75,11.683-19.371c4.472-6.614,9.587-13.263,15.367-19.579
		c5.805-6.28,12.296-12.225,19.501-17.186c7.173-5.002,15.057-8.996,23.322-11.533c8.257-2.563,16.875-3.652,25.379-3.342
		c8.512,0.281,16.879,2.035,24.776,4.557c3.946,1.295,7.772,2.812,11.471,4.439c3.689,1.666,7.243,3.461,10.649,5.345
		c6.809,3.779,12.998,7.927,18.554,12.008c5.554,4.09,10.463,8.146,14.724,11.862c4.263,3.715,7.846,7.138,10.778,9.975
		c2.891,2.845,5.061,5.028,6.676,6.728c1.573,1.634,2.412,2.506,2.412,2.506c4.167,4.324,11.056,4.537,15.474,0.432
		c4.468-4.152,4.725-11.139,0.573-15.607l-0.313-0.336c0,0-0.824-0.886-2.368-2.549c-1.478-1.618-3.956-4.199-7.061-7.349
		c-3.109-3.107-6.916-6.861-11.501-10.988c-4.584-4.126-9.901-8.666-16.023-13.321c-6.126-4.645-13.035-9.437-20.845-13.924
		c-3.908-2.238-8.035-4.401-12.382-6.434c-4.368-1.999-8.942-3.886-13.748-5.532c-9.625-3.226-20.173-5.607-31.281-6.117
		c-11.08-0.549-22.636,0.764-33.595,4.035c-4.063,1.197-8.032,2.654-11.882,4.324c1.294-2.06,2.581-4.13,3.892-6.172
		c8.786-13.68,17.99-26.933,28.109-39.341c10.13-12.385,21.21-23.898,33.446-34.11c12.227-10.214,25.624-19.07,39.887-26.501
		c14.262-7.433,29.357-13.476,44.919-18.264c7.779-2.402,15.666-4.53,23.632-6.401c7.998-1.844,15.933-3.429,24.14-4.861
		l0.031-0.005C394.696,231.586,397.05,228.463,396.644,225.03z"/>
</g>
<g id="Layer_1">
</g>
</svg>
