<?xml version="1.0" encoding="iso-8859-1"?>
<!-- Generator: Adobe Illustrator 18.1.1, SVG Export Plug-In . SVG Version: 6.00 Build 0)  -->
<!DOCTYPE svg PUBLIC "-//W3C//DTD SVG 1.1//EN" "http://www.w3.org/Graphics/SVG/1.1/DTD/svg11.dtd">
<svg version="1.1" xmlns="http://www.w3.org/2000/svg" xmlns:xlink="http://www.w3.org/1999/xlink" x="0px" y="0px"
	 viewBox="0 0 512 512" enable-background="new 0 0 512 512" xml:space="preserve">
<g id="Layer_13">
	<path fill="#E5AB83" d="M204.197,98.742c-2.538,0-4.942-1.062-6.63-2.98c-0.683-0.775-0.607-1.957,0.168-2.64
		c0.776-0.682,1.958-0.608,2.64,0.168c1.156,1.313,2.912,1.927,4.689,1.641c1.784-0.286,3.26-1.419,3.949-3.032
		c0.406-0.95,1.505-1.39,2.455-0.985c0.95,0.406,1.391,1.505,0.985,2.455c-1.197,2.801-3.738,4.766-6.797,5.256
		C205.167,98.703,204.68,98.742,204.197,98.742z M176.321,66.436c0.058,0.003,0.116,0.004,0.175,0.002
		c1.116-0.034,1.994-0.966,1.96-2.082s-0.966-1.994-2.082-1.96c0,0-0.22,0.007-0.605,0.018c-0.377,0.015-0.905,0.047-1.538,0.104
		c-1.264,0.11-2.942,0.334-4.621,0.761c-0.838,0.202-1.679,0.477-2.461,0.795c-0.391,0.138-0.767,0.351-1.121,0.518
		c-0.355,0.163-0.683,0.407-0.985,0.588c-0.304,0.175-0.563,0.438-0.797,0.62c-0.238,0.182-0.424,0.389-0.572,0.568
		c-0.295,0.35-0.463,0.55-0.463,0.55c-0.461,0.546-0.453,1.364,0.045,1.902c0.539,0.582,1.448,0.616,2.03,0.077l0.246-0.228
		c0,0,0.102-0.094,0.279-0.259c0.08-0.086,0.183-0.189,0.349-0.285c0.164-0.095,0.294-0.236,0.526-0.335
		c0.226-0.101,0.429-0.244,0.711-0.34c0.279-0.097,0.544-0.23,0.872-0.31c0.626-0.191,1.326-0.358,2.055-0.464
		c1.448-0.235,2.963-0.306,4.092-0.303c0.565-0.001,1.035,0.013,1.357,0.029c0.314,0.018,0.494,0.029,0.494,0.029L176.321,66.436z
		 M220.813,55.441c-1.053,0.372-1.604,1.527-1.232,2.58c0.372,1.053,1.527,1.604,2.58,1.232l0.048-0.017c0,0,0.17-0.06,0.466-0.165
		c0.305-0.105,0.753-0.248,1.296-0.404c1.084-0.316,2.559-0.669,4.015-0.845c0.73-0.1,1.449-0.134,2.103-0.125
		c0.337-0.014,0.628,0.04,0.923,0.056c0.298,0.013,0.532,0.095,0.778,0.129c0.25,0.031,0.414,0.131,0.598,0.176
		c0.186,0.046,0.314,0.117,0.415,0.177c0.217,0.109,0.34,0.171,0.34,0.171l0.299,0.151c0.638,0.322,1.432,0.125,1.839-0.485
		c0.441-0.659,0.264-1.551-0.395-1.992c0,0-0.217-0.145-0.598-0.4c-0.192-0.132-0.429-0.278-0.708-0.387
		c-0.276-0.11-0.597-0.291-0.938-0.375c-0.34-0.09-0.723-0.233-1.109-0.291c-0.386-0.063-0.807-0.163-1.221-0.187
		c-0.84-0.089-1.723-0.12-2.585-0.081c-1.732,0.056-3.406,0.307-4.651,0.552c-0.623,0.121-1.139,0.237-1.506,0.327
		c-0.373,0.096-0.586,0.15-0.586,0.15C220.928,55.404,220.868,55.422,220.813,55.441z"/>
</g>
<g id="Layer_1">
</g>
</svg>
