<svg xmlns="http://www.w3.org/2000/svg" viewBox="0 0 512 512" enable-background="new 0 0 512 512"><path fill="#132028" d="M66.48 273.685v227.932H21.715c-6.6 0-12-5.4-12-12V270.443h53.52c1.792 0 3.243 1.45 3.243 3.242zm364.488-69.83H293.092c-2.306 0-4.176 1.868-4.176 4.175v293.588h146.226V208.03c0-2.306-1.868-4.176-4.174-4.176zM233.318 311.89h-87.85c-1.47 0-2.66 1.192-2.66 2.662v187.066h93.17V314.55c0-1.468-1.19-2.66-2.66-2.66zM488.95 501.618c6.6 0 12-5.4 12-12v-160.97h-42.47c-1.79 0-3.243 1.45-3.243 3.242v169.728h33.714z"/></svg>