<?xml version="1.0" encoding="iso-8859-1"?>
<!-- Generator: Adobe Illustrator 19.1.0, SVG Export Plug-In . SVG Version: 6.00 Build 0)  -->
<!DOCTYPE svg PUBLIC "-//W3C//DTD SVG 1.1//EN" "http://www.w3.org/Graphics/SVG/1.1/DTD/svg11.dtd">
<svg version="1.1" xmlns="http://www.w3.org/2000/svg" xmlns:xlink="http://www.w3.org/1999/xlink" x="0px" y="0px"
	 viewBox="0 0 509.04 509.04" enable-background="new 0 0 509.04 509.04" xml:space="preserve">
<g id="Layer_17">
	<path fill="#FFD3B6" d="M345.191,75.078c0,0-0.119-0.023-0.343-0.066c0.039-0.001-0.633-0.093-1.153-0.22
		c-0.256-0.06-0.635-0.156-0.837-0.228c-0.176-0.067-0.364-0.138-0.562-0.214c-0.809-0.313-1.523-0.701-2.279-1.155
		c-0.732-0.452-1.462-0.966-2.178-1.532c-1.432-1.135-2.88-2.48-4.281-3.991c-1.402-1.511-2.784-3.167-4.049-4.919
		c-1.266-1.751-2.436-3.572-3.408-5.403c-0.974-1.827-1.758-3.651-2.286-5.34c-0.265-0.844-0.464-1.655-0.605-2.398
		c-0.132-0.752-0.227-1.415-0.252-1.998c-0.047-0.565-0.032-1.039-0.021-1.359c0.011-0.318,0.017-0.488,0.017-0.488
		c0.046-1.339,1.17-2.387,2.509-2.341c0.401,0.014,0.777,0.125,1.104,0.309l3.579,2.032c0.018,0.01,0.038,0.268,0.211,0.8
		c0.068,0.257,0.208,0.598,0.37,0.985c0.174,0.393,0.398,0.843,0.684,1.34c0.573,0.994,1.399,2.162,2.417,3.362
		c1.015,1.203,2.237,2.43,3.521,3.584c2.561,2.305,5.495,4.298,7.479,5.226c0.492,0.236,0.91,0.395,1.222,0.488
		c0.294,0.079,0.519,0.116,0.516,0.06l0.007-0.025c-0.022-0.016-0.225-0.085-0.322-0.106c-0.199-0.06-0.601-0.071-0.334-0.069
		c0.228-0.005,0.349-0.007,0.349-0.007l0.079-0.002c3.809-0.08,6.962,2.944,7.042,6.754c0.08,3.809-2.944,6.962-6.754,7.042
		C346.152,75.209,345.646,75.162,345.191,75.078z"/>
</g>
<g id="Layer_1">
</g>
</svg>
