<?xml version="1.0" encoding="iso-8859-1"?>
<!-- Generator: Adobe Illustrator 19.1.0, SVG Export Plug-In . SVG Version: 6.00 Build 0)  -->
<!DOCTYPE svg PUBLIC "-//W3C//DTD SVG 1.1//EN" "http://www.w3.org/Graphics/SVG/1.1/DTD/svg11.dtd">
<svg version="1.1" xmlns="http://www.w3.org/2000/svg" xmlns:xlink="http://www.w3.org/1999/xlink" x="0px" y="0px"
	 viewBox="0 0 512 512" enable-background="new 0 0 512 512" xml:space="preserve">
<g id="Layer_14">
	<path fill="#C048FF" d="M287.963,422.99c13.46,12.903,10.603,13.412,19.562,16.65c18.5,9.012-16.418,14.979-32.137,9.373
		c-15.719-4.68-22.832-13.836-15.887-26.592C266.446,409.468,277.659,413.285,287.963,422.99z M306.947,371.482
		c0-17.765-4.271-32.169-10.193-39.346c-2.299-2.793-5.118,0.79-3.966,4.552c2.67,8.674,4.853,22.552,4.853,38.221
		c0,15.703-2.183,29.605-4.853,38.142c-1.153,3.666,1.667,5.226,3.966,1.742C302.676,405.812,306.947,389.291,306.947,371.482z
		 M324.611,395.307c-1.656,2.89-3.687,1.666-2.857-1.352c1.924-7.01,3.496-17.904,3.496-29.368c0-11.466-1.572-20.887-3.496-26.487
		c-0.831-2.424,1.201-4.939,2.857-3.221c4.266,4.421,7.343,14.216,7.343,27.2C331.954,375.058,328.877,387.861,324.611,395.307z"/>
</g>
<g id="Layer_1">
</g>
</svg>
