<?xml version="1.0" encoding="iso-8859-1"?>
<!-- Generator: Adobe Illustrator 18.1.1, SVG Export Plug-In . SVG Version: 6.00 Build 0)  -->
<!DOCTYPE svg PUBLIC "-//W3C//DTD SVG 1.1//EN" "http://www.w3.org/Graphics/SVG/1.1/DTD/svg11.dtd">
<svg version="1.1" xmlns="http://www.w3.org/2000/svg" xmlns:xlink="http://www.w3.org/1999/xlink" x="0px" y="0px"
	 viewBox="0 0 512 512" enable-background="new 0 0 512 512" xml:space="preserve">
<g id="Layer_7">
	<path fill="#F2E3BD" d="M192.939,123.987v41.835c0,23.105-18.73,41.835-41.835,41.835s-41.835-18.73-41.835-41.835v-41.835
		c0-23.105,18.73-41.835,41.835-41.835S192.939,100.882,192.939,123.987z M374.279,190.52c-23.105,0-41.835,18.73-41.835,41.835
		v41.835c0,23.105,18.73,41.835,41.835,41.835c23.105,0,41.835-18.73,41.835-41.835v-41.835
		C416.114,209.25,397.384,190.52,374.279,190.52z M262.692,14.07c-23.105,0-41.835,18.73-41.835,41.835V97.74
		c0,23.105,18.73,41.835,41.835,41.835s41.835-18.73,41.835-41.835V55.905C304.527,32.8,285.797,14.07,262.692,14.07z"/>
</g>
<g id="Layer_1">
</g>
</svg>
