<?xml version="1.0" encoding="iso-8859-1"?>
<!-- Generator: Adobe Illustrator 19.1.0, SVG Export Plug-In . SVG Version: 6.00 Build 0)  -->
<!DOCTYPE svg PUBLIC "-//W3C//DTD SVG 1.1//EN" "http://www.w3.org/Graphics/SVG/1.1/DTD/svg11.dtd">
<svg version="1.1" xmlns="http://www.w3.org/2000/svg" xmlns:xlink="http://www.w3.org/1999/xlink" x="0px" y="0px"
	 viewBox="0 0 512 512" enable-background="new 0 0 512 512" xml:space="preserve">
<g id="Layer_6">
	<path fill="#16992B" d="M244.095,115.74c0,0-0.134-0.109-0.392-0.32c-0.25-0.212-0.663-0.522-1.124-0.936
		c-0.456-0.414-1.067-0.919-1.684-1.524c-0.159-0.151-0.323-0.307-0.493-0.469c-0.173-0.152-0.367-0.238-0.557-0.36
		c-0.363-0.216-0.748-0.445-1.156-0.687c-0.807-0.474-1.584-0.832-2.552-1.41c-0.471-0.264-0.954-0.526-1.447-0.781
		c-0.253-0.125-0.482-0.258-0.713-0.39c-0.254-0.123-0.513-0.249-0.775-0.376c-0.524-0.247-1.054-0.488-1.588-0.719
		c-0.518-0.231-1.064-0.472-1.642-0.691c-0.538-0.217-1.089-0.44-1.654-0.667c-0.572-0.213-1.158-0.43-1.756-0.653
		c-1.149-0.422-2.345-0.862-3.583-1.317c-0.611-0.217-1.287-0.463-1.905-0.703c-0.631-0.234-1.255-0.473-1.94-0.748
		c-2.574-1.023-5.503-2.257-8.463-3.776c-0.766-0.387-1.511-0.801-2.273-1.202c-0.803-0.419-1.589-0.88-2.379-1.334
		c-0.768-0.447-1.608-0.96-2.42-1.472c-0.817-0.519-1.613-1.02-2.465-1.611c-3.298-2.214-6.794-4.947-10.192-8.092
		c-3.395-3.123-6.836-6.829-9.856-11.008c-3.037-4.135-5.629-8.987-7.517-13.96c-0.456-1.271-0.884-2.534-1.279-3.789
		c-0.387-1.261-0.675-2.585-0.967-3.855c-0.266-1.289-0.536-2.538-0.693-3.829c-0.159-1.285-0.275-2.555-0.393-3.791
		c-0.176-2.494-0.059-4.961,0.055-7.271c0.275-2.342,0.627-4.563,1.09-6.649c0.569-2.086,1.188-4.035,1.872-5.84
		c0.36-0.9,0.768-1.756,1.18-2.582c0.4-0.824,0.811-1.613,1.235-2.366c1.683-3.01,3.671-5.386,5.293-7.269
		c1.817-1.847,3.356-3.184,4.514-4.063c0.554-0.441,1.031-0.766,1.348-0.983c0.316-0.216,0.479-0.328,0.479-0.328
		c1.861-1.275,4.312-1.037,5.895,0.441l0.25,0.235c0,0,0.144,0.134,0.423,0.395c0.281,0.259,0.703,0.642,1.186,1.123
		c1.02,0.966,2.339,2.334,3.907,3.932c0.78,0.757,1.643,1.595,2.583,2.507c0.84,0.873,1.78,1.792,2.787,2.677
		c1.006,0.892,1.952,1.805,2.94,2.696c1.056,0.867,2.067,1.728,3.044,2.574c0.51,0.393,1.031,0.794,1.562,1.202
		c0.484,0.385,0.977,0.777,1.478,1.176c0.5,0.36,1.008,0.727,1.524,1.099c0.482,0.365,0.91,0.739,1.446,1.071
		c0.471,0.339,0.948,0.683,1.431,1.031c0.407,0.357,0.945,0.68,1.409,1.014c0.442,0.338,0.89,0.679,1.341,1.024
		c0.474,0.342,0.922,0.691,1.349,1.045c1.815,1.427,3.435,2.989,5.295,4.892c1.815,1.902,3.622,4.11,5.767,6.61
		c2.113,2.507,4.305,5.252,6.66,8.37c2.344,3.113,4.649,6.468,6.921,10.188c0.555,0.952,1.106,1.895,1.651,2.83
		c0.536,0.965,1.038,1.902,1.566,2.921c0.527,0.991,0.991,2.014,1.47,2.995c0.49,1.029,0.925,2.092,1.356,3.116
		c0.214,0.521,0.428,1.006,0.631,1.543c0.193,0.542,0.386,1.08,0.576,1.613c0.378,1.073,0.74,2.078,1.043,3.168
		c0.625,2.191,1.155,4.231,1.497,6.391c0.165,1.066,0.356,2.06,0.451,3.09c0.084,1.052,0.177,2.054,0.21,3.04
		c0.14,1.919-0.044,3.892-0.176,5.612c-0.08,1.705-0.515,3.4-0.822,4.845c-0.28,1.392-0.781,2.935-1.208,4.145
		c-0.801,2.607-1.962,3.805-2.674,4.877c-0.357,0.506-0.691,0.901-0.887,1.163c-0.205,0.264-0.311,0.4-0.311,0.4
		c-1.617,2.081-4.615,2.457-6.696,0.839C244.161,115.793,244.118,115.759,244.095,115.74z"/>
</g>
<g id="Layer_1">
</g>
</svg>
