<?xml version="1.0" encoding="iso-8859-1"?>
<!-- Generator: Adobe Illustrator 19.1.0, SVG Export Plug-In . SVG Version: 6.00 Build 0)  -->
<!DOCTYPE svg PUBLIC "-//W3C//DTD SVG 1.1//EN" "http://www.w3.org/Graphics/SVG/1.1/DTD/svg11.dtd">
<svg version="1.1" xmlns="http://www.w3.org/2000/svg" xmlns:xlink="http://www.w3.org/1999/xlink" x="0px" y="0px"
	 viewBox="0 0 512 512" enable-background="new 0 0 512 512" xml:space="preserve">
<g id="Layer_20">
	<path fill="#F4F3EF" d="M339.743,63.737c-0.714-0.789-1.743-0.85-2.534-0.135L303,94.742V64.189c0-0.761-0.638-1.452-1.333-1.761
		c-0.694-0.311-1.508-0.183-2.073,0.327L264,94.762V65.767c0-0.133-0.11-0.263-0.135-0.389c0.104-0.57-0.089-1.178-0.508-1.641
		c-0.714-0.789-2.049-0.85-2.84-0.135L226,94.742V64.189c0-0.761-0.355-1.452-1.051-1.761c-0.696-0.311-1.649-0.182-2.215,0.327
		L187,94.762V65.767c0-0.132,0.172-0.262,0.147-0.387c0.105-0.57,0.053-1.18-0.367-1.643c-0.716-0.79-1.763-0.85-2.553-0.135
		L150,94.742V64.189c0-0.761-0.573-1.452-1.268-1.761c-0.697-0.311-1.54-0.182-2.106,0.327L111,94.762V65.767
		c0-0.132-0.045-0.262-0.07-0.387c0.105-0.57-0.056-1.18-0.475-1.643c-0.715-0.79-2.099-0.85-2.889-0.135L73,94.742V64.189
		c0-0.761-0.29-1.452-0.986-1.761c-0.696-0.311-1.43-0.182-1.996,0.327L36.843,92.622c-0.792,0.712-0.837,1.932-0.125,2.724
		c0.712,0.791,1.711,0.856,2.504,0.145L69,68.517v30.572c0,0.763,0.678,1.454,1.375,1.763c0.251,0.111,0.632,0.166,0.896,0.166
		c0.47,0,0.95-0.171,1.312-0.499L107,69.379v29.711c0,0.761,0.488,1.452,1.184,1.761c0.252,0.112,0.54,0.167,0.805,0.167
		c0.467,0,0.992-0.17,1.353-0.495L146,68.517v30.572c0,0.763,0.396,1.454,1.093,1.763c0.697,0.308,1.726,0.177,2.292-0.333
		L184,69.379v29.711c0,0.761,0.206,1.452,0.901,1.761c0.696,0.311,1.223,0.182,1.79-0.327L222,68.517v30.572
		c0,0.763,0.613,1.454,1.31,1.763c0.251,0.111,0.6,0.166,0.864,0.166c0.47,0,0.999-0.171,1.361-0.499L260,69.379v29.711
		c0,0.761,0.423,1.452,1.119,1.761c0.252,0.112,0.507,0.167,0.773,0.167c0.467,0,1.041-0.17,1.401-0.495L299,68.517v30.572
		c0,0.763,0.331,1.454,1.028,1.763c0.695,0.309,1.451,0.179,2.017-0.333l37.592-34.058
		C340.427,65.747,340.458,64.527,339.743,63.737z"/>
</g>
<g id="Layer_1">
</g>
</svg>
