<?xml version="1.0" encoding="iso-8859-1"?>
<!-- Generator: Adobe Illustrator 18.1.1, SVG Export Plug-In . SVG Version: 6.00 Build 0)  -->
<!DOCTYPE svg PUBLIC "-//W3C//DTD SVG 1.1//EN" "http://www.w3.org/Graphics/SVG/1.1/DTD/svg11.dtd">
<svg version="1.1" xmlns="http://www.w3.org/2000/svg" xmlns:xlink="http://www.w3.org/1999/xlink" x="0px" y="0px"
	 viewBox="0 0 512 512" enable-background="new 0 0 512 512" xml:space="preserve">
<g id="Layer_2">
	<path fill="#FECB21" d="M51.6,72.608l199.566-34.825L464.28,72.608c19.867,0,32.553,21.19,23.171,38.701l-206.224,384.92
		c-9.908,18.492-36.421,18.499-46.337,0.011L28.435,111.32C19.042,93.808,31.728,72.608,51.6,72.608z"/>
</g>
<g id="Layer_3">
	<path fill="#F43B22" d="M270.254,307.902c0,28.665-23.238,51.902-51.902,51.902s-51.902-23.237-51.902-51.902
		S189.687,256,218.352,256S270.254,279.237,270.254,307.902z M336.116,389.856c-25.323-13.433-56.74-3.794-70.173,21.528
		c-13.433,25.323-3.794,56.74,21.528,70.173 M336.116,139.477c-28.665,0-51.902,23.237-51.902,51.902s23.237,51.902,51.902,51.902
		s51.902-23.237,51.902-51.902S364.781,139.477,336.116,139.477z M154.014,105.714c-28.665,0-51.902,23.237-51.902,51.902
		s23.237,51.902,51.902,51.902s51.902-23.237,51.902-51.902S182.679,105.714,154.014,105.714z"/>
</g>
<g id="Layer_4">
	<path fill="#C4790C" d="M41.204,130.519c-13.328,0.001-26.256-7.039-33.184-19.518C-2.147,92.693,4.454,69.61,22.763,59.444
		c34.605-19.215,72.08-34.048,111.383-44.088C173.48,5.309,214.284,0.142,255.425,0c40.982-0.14,81.845,4.711,121.369,14.423
		c40.306,9.904,78.8,24.757,114.412,44.147c18.393,10.014,25.184,33.041,15.17,51.433c-10.014,18.391-33.043,25.185-51.433,15.169
		c-29.887-16.273-62.269-28.757-96.246-37.105c-33.046-8.12-67.199-12.236-101.53-12.236c-0.496,0-0.986,0.001-1.481,0.002
		c-34.903,0.121-69.481,4.494-102.772,12.998c-33.009,8.432-64.412,20.851-93.338,36.912
		C53.747,128.982,47.431,130.519,41.204,130.519z"/>
</g>
</svg>
