<?xml version="1.0" encoding="utf-8"?>
<!-- Generator: Adobe Illustrator 18.0.0, SVG Export Plug-In . SVG Version: 6.00 Build 0)  -->
<!DOCTYPE svg PUBLIC "-//W3C//DTD SVG 1.1 Tiny//EN" "http://www.w3.org/Graphics/SVG/1.1/DTD/svg11-tiny.dtd">
<svg version="1.1" baseProfile="tiny" id="Layer_1" xmlns="http://www.w3.org/2000/svg" xmlns:xlink="http://www.w3.org/1999/xlink"
	 x="0px" y="0px" width="511.9px" height="511.9px" viewBox="0 0 511.9 511.9" xml:space="preserve">
<path fill="#597B91" d="M442.3,341.8c0,0-0.1,0.1-0.4,0.2l-1.6,29.8l-0.2,3.5c0,3.6-1.2,7.1-3.4,10.5c-10.9,16.9-47.7,31-97.5,38.5
	c-25,3.8-53.2,5.9-83.2,5.9s-58.2-2.1-83.2-5.9c-49.8-7.5-86.6-21.6-97.5-38.5c-2.2-3.4-3.4-6.9-3.4-10.5l-0.2-3.5l-1.6-29.5
	c-0.3-0.3-0.5-0.5-0.5-0.5c-42.4,13.6-68.5,31.8-68.5,51.8c0,6.7,2.9,13.1,8.3,19.2c6,6.8,15.1,13.3,26.9,19.2
	c44.3,22.4,126,37.5,219.6,37.5s175.3-15.1,219.6-37.5c11.7-5.9,20.9-12.4,26.9-19.2c5.4-6.1,8.3-12.6,8.3-19.2
	C510.7,373.5,484.7,355.3,442.3,341.8z"/>
<path fill="#597B91" d="M440.2,37.4c-5.5-3.3-12.1-6.4-19.7-9.3c-5.7-2.2-12-4.3-18.7-6.2c-4.5-1.3-9.2-2.5-14.1-3.7
	c-7.3-1.8-15.1-3.4-23.2-4.9c-2.7-0.5-5.4-1-8.2-1.4c-5.5-0.9-11.2-1.8-17-2.5C313,5.8,284.6,3.9,256,3.9s-57,1.9-83.1,5.4
	c-5.8,0.8-11.5,1.6-17,2.5c-2.8,0.5-5.5,0.9-8.2,1.4c-8.1,1.5-15.9,3.1-23.2,4.9c-4.9,1.2-9.6,2.4-14.1,3.7c-6.7,1.9-13,4-18.7,6.2
	c-7.6,2.9-14.3,6-19.7,9.3C60.8,44,54.6,51.2,54.6,58.8l0,0c0,30.3,99.7,54.9,201.4,54.9s201.3-24.6,201.4-54.9l0,0
	C457.3,51.2,451.1,44,440.2,37.4z"/>
</svg>
