<svg xmlns="http://www.w3.org/2000/svg" viewBox="0 0 512 512" enable-background="new 0 0 512 512"><path fill="#2B3B47" d="M342.35 246.034v255.583H215.05V246.034c0-2.008 1.627-3.635 3.635-3.635h120.027c2.008 0 3.635 1.626 3.635 3.634zm-142.654-59.462c2.567 0 4.647-2.08 4.647-4.647v-11.24c0-2.567-2.08-4.647-4.647-4.647H42.43c-2.568 0-4.648 2.08-4.648 4.647v11.24c0 2.567 2.08 4.647 4.647 4.647h2.197v71.51H42.43c-2.568 0-4.648 2.08-4.648 4.647v11.24c0 2.566 2.08 4.646 4.647 4.646h2.197V407.84H42.43c-2.568 0-4.648 2.08-4.648 4.647v11.24c0 2.567 2.08 4.647 4.647 4.647h2.197v73.48H198.64v-73.48h1.056c2.567 0 4.647-2.08 4.647-4.647v-11.24c0-2.567-2.08-4.647-4.647-4.647h-1.057V278.617h1.056c2.567 0 4.647-2.08 4.647-4.647v-11.24c0-2.567-2.08-4.647-4.647-4.647h-1.057v-71.51h1.056zm278.818 183.114H372.888c-1.513 0-2.58 1.484-2.097 2.918l3.974 11.805c.12.356.328.664.59.91-.048.19-.083.388-.083.596v115.7h100.86v-115.7c0-.207-.033-.405-.083-.597.263-.246.47-.554.59-.91l3.974-11.806c.483-1.433-.583-2.918-2.096-2.918z"/></svg>