<svg xmlns="http://www.w3.org/2000/svg" viewBox="0 0 512 512" enable-background="new 0 0 512 512"><path fill="#F7F9AA" d="M148.157 60.35c0 3.794-3.077 6.87-6.872 6.87s-6.872-3.076-6.872-6.87 3.077-6.873 6.872-6.873 6.872 3.077 6.872 6.872zm258.668 165.778c-3.795 0-6.872 3.077-6.872 6.872s3.077 6.872 6.872 6.872 6.872-3.077 6.872-6.872-3.077-6.872-6.872-6.872zM151.3 134.988l-3.463 7.016c-.347.703-1.017 1.19-1.793 1.302l-7.742 1.125c-1.953.285-2.732 2.684-1.32 4.062l5.603 5.46c.56.547.817 1.335.685 2.107l-1.322 7.71c-.334 1.944 1.708 3.427 3.454 2.51l6.924-3.64c.694-.366 1.522-.366 2.216 0l6.924 3.64c1.747.917 3.788-.566 3.454-2.51l-1.322-7.71c-.132-.773.124-1.56.685-2.108l5.602-5.46c1.413-1.377.633-3.777-1.32-4.06l-7.74-1.126c-.776-.113-1.447-.6-1.794-1.302l-3.46-7.015c-.875-1.77-3.398-1.77-4.27 0zm191.383-47.65c-8.19 0-14.83 6.64-14.83 14.83s6.64 14.83 14.83 14.83c8.19 0 14.83-6.64 14.83-14.83s-6.64-14.83-14.83-14.83z"/></svg>