<?xml version="1.0" encoding="iso-8859-1"?>
<!-- Generator: Adobe Illustrator 18.1.0, SVG Export Plug-In . SVG Version: 6.00 Build 0)  -->
<!DOCTYPE svg PUBLIC "-//W3C//DTD SVG 1.1//EN" "http://www.w3.org/Graphics/SVG/1.1/DTD/svg11.dtd">
<svg version="1.1" id="Layer_1" xmlns="http://www.w3.org/2000/svg" xmlns:xlink="http://www.w3.org/1999/xlink" x="0px" y="0px"
	 viewBox="0 0 512 512" enable-background="new 0 0 512 512" xml:space="preserve">
<g id="Layer_2">
	<path fill="#F4580B" d="M477.708,280.089c-10.909-2.152-28.504-6.238-26.553-9.882c0,0,8.642-49.927,11.543-66.746
		c0.465-2.696-1.9-4.953-4.593-4.476l-66.358,11.746c-3.268,1.759-6.746-14.548-8.612-24.993c-0.628-3.512-4.902-4.855-7.428-2.336
		c-10,9.973-24.305,24.267-39.209,39.428c1.095-58.606,1.567-120.438,1.714-143.423c0.025-3.919-4.326-6.22-7.581-4.037
		c-10.178,6.824-27.072,17.351-28.392,12.991c0,0-32.171-45.638-43.016-61.005c-1.738-2.463-5.34-2.379-7.068,0.091l-42.556,60.861
		c-1.175,3.917-16.592-6.079-26.187-12.765c-3.226-2.248-7.603,0.036-7.608,3.968c-0.031,23.192-0.036,85.471,0.64,144.272
		c-15.24-15.515-29.937-30.2-40.147-40.382c-2.526-2.52-6.801-1.177-7.428,2.336c-1.867,10.446-5.345,26.752-8.612,24.993
		l-66.358-11.746c-2.694-0.477-5.058,1.781-4.593,4.476c2.901,16.819,11.543,66.746,11.543,66.746
		c1.951,3.645-15.644,7.73-26.553,9.882c-3.489,0.688-4.805,4.956-2.274,7.455c29.903,29.521,99.523,97.073,114.282,104.934
		c13.252,7.059,29.12,7.579,43.714,5.509L164.8,423.201c-5.439,5.439-0.048,14.545,7.336,12.394l82.796-24.126
		c1.351-0.394,2.786-0.396,4.138-0.006l75.674,24.287c7.646,2.203,12.941-7.526,6.939-12.75l-18.529-24.853
		c14.268,1.877,29.645,1.202,42.544-5.669c14.759-7.861,84.379-75.413,114.282-104.934
		C482.513,285.045,481.197,280.777,477.708,280.089z"/>
</g>
<g id="Layer_3">
	<path fill="#FF6F1F" d="M256.161,482.249c-5.25,0-9.508-4.253-9.513-9.504l-0.161-176.327c-0.005-5.254,4.25-9.517,9.504-9.521
		c0.003,0,0.006,0,0.009,0c5.25,0,9.508,4.253,9.513,9.504l0.161,176.327c0.005,5.254-4.25,9.517-9.504,9.521
		C256.167,482.249,256.164,482.249,256.161,482.249z"/>
</g>
</svg>
