<?xml version="1.0" encoding="iso-8859-1"?>
<!-- Generator: Adobe Illustrator 19.2.1, SVG Export Plug-In . SVG Version: 6.00 Build 0)  -->
<!DOCTYPE svg PUBLIC "-//W3C//DTD SVG 1.1//EN" "http://www.w3.org/Graphics/SVG/1.1/DTD/svg11.dtd">
<svg version="1.1" xmlns="http://www.w3.org/2000/svg" xmlns:xlink="http://www.w3.org/1999/xlink" x="0px" y="0px"
	 viewBox="0 0 512 512" enable-background="new 0 0 512 512" xml:space="preserve">
<g id="Layer_1">
</g>
<g id="Layer_2">
	<path fill="#BFBCAF" d="M30.706,86.687v8.534H10.124c-1.757,0-3.18-1.424-3.18-3.18v-1.197v-0.931V78.561v-1.087v-1.042
		c0-1.781,1.444-3.225,3.225-3.225h20.537v8.534V86.687z M60.363,28.852v-8.534H39.825c-1.781,0-3.225,1.444-3.225,3.225v1.042
		v1.087v11.351v0.931v1.197c0,1.756,1.424,3.18,3.18,3.18h20.582v-8.534V28.852z"/>
</g>
<g id="Layer_3">
	<path fill="#2B3B47" d="M136.542,248.418h-7.327V140.434c0-34.873,3.537-52.27,12.614-62.048
		c9.554-10.292,24.299-11.061,45.704-11.061c6.913,0,12.598-1.784,16.44-5.159c3.191-2.803,4.948-6.592,4.948-10.669
		c0-7.951-6.693-16.508-21.388-16.508H60.363v-7.327h127.17c18.852,0,28.716,11.99,28.716,23.835
		c0,11.152-8.986,23.155-28.716,23.155c-19.474,0-32.803,0.607-40.334,8.719c-7.569,8.154-10.657,24.686-10.657,57.062V248.418z
		 M81.801,219.794c0-30.424-3.584-45.602-12.783-54.133c-9.162-8.497-22.644-9.109-43.758-9.109c-11.234,0-16.35-7.424-16.35-14.321
		c0-3.8,1.492-7.328,4.201-9.932c3.204-3.08,7.946-4.708,13.72-4.708c0,0,27.003-0.051,53.478-0.051
		c8.72,0,16.077-2.414,21.276-6.981c4.797-4.214,7.439-9.958,7.439-16.174c0-11.844-9.864-23.834-28.716-23.834H41.289v7.327h39.019
		c14.695,0,21.388,8.557,21.388,16.507c0,4.077-1.757,7.866-4.948,10.669c-3.842,3.375-9.527,5.159-16.44,5.159
		c-26.481,0-53.491,0.051-53.484,0.051c-7.698,0-14.196,2.334-18.792,6.752c-4.16,3.999-6.451,9.402-6.451,15.215
		c0,10.758,8.133,21.648,23.678,21.648c19.326,0,31.58,0.482,38.775,7.155c7.414,6.875,10.438,21.002,10.438,48.76v20.076h7.327
		V219.794z"/>
</g>
<g id="Layer_4">
	<path fill="#597B91" d="M91.683,228.031c0,7.481-6.065,13.546-13.546,13.546s-13.546-6.065-13.546-13.546
		c0-7.481,6.065-13.546,13.546-13.546S91.683,220.55,91.683,228.031z M132.751,214.485c-7.481,0-13.546,6.065-13.546,13.546
		c0,7.481,6.065,13.546,13.546,13.546c7.481,0,13.546-6.065,13.546-13.546C146.296,220.55,140.232,214.485,132.751,214.485z
		 M36.309,70.488c-0.311,0-0.615-0.218-0.92-0.197C35.285,70.272,35.183,70,35.075,70H18.989C17.951,70,17,71.329,17,72.367V96.06
		c0,1.038,0.951,1.94,1.989,1.94h16.086c0.108,0,0.21-0.058,0.315-0.076c0.305,0.02,0.609,0.031,0.92,0.031
		c7.581,0,13.726-6.153,13.726-13.734S43.89,70.488,36.309,70.488z M65.966,17.599c-0.311,0-0.615,0.227-0.92,0.247
		C64.942,17.828,64.84,18,64.732,18H48.646C47.608,18,47,18.441,47,19.479v23.693C47,44.21,47.608,45,48.646,45h16.086
		c0.108,0,0.21-0.003,0.315-0.021c0.305,0.02,0.609,0.059,0.92,0.059c7.581,0,13.726-6.139,13.726-13.72
		S73.547,17.599,65.966,17.599z"/>
</g>
<g id="Layer_5">
	<path fill="#2B3B47" d="M488.995,489.901H35.33c-7.704,0-13.948-6.245-13.948-13.948V241.979c0-7.704,8.821-13.948,16.525-13.948
		h453.666c7.704,0,13.948,6.245,13.948,13.948l-2.576,233.973C502.944,483.656,496.699,489.901,488.995,489.901z"/>
</g>
<g id="Layer_6">
	<path fill="#597B91" d="M67.639,335.532H51.383c-2.475,0-4.482,2.007-4.482,4.482v16.256c0,2.475,2.007,4.482,4.482,4.482h16.256
		c2.475,0,4.482-2.007,4.482-4.482v-16.256C72.121,337.539,70.114,335.532,67.639,335.532z"/>
</g>
<g id="Layer_7">
	<path fill="#00B1FF" d="M69.233,461.131v-72.353c0-2.723-2.208-4.931-4.931-4.931h-9.581c-2.723,0-4.931,2.208-4.931,4.931v72.353
		c0,2.723,2.208,4.931,4.931,4.931h9.581C67.025,466.062,69.233,463.854,69.233,461.131z"/>
</g>
<g id="Layer_8">
	<path fill="#F9F9F7" d="M464.958,324.475H108.239c-5.982,0-10.831,4.849-10.831,10.831v154.594h377.957V334.882
		C475.364,329.134,470.705,324.475,464.958,324.475z"/>
</g>
<g id="Layer_9">
	<path fill="#2B3B47" d="M227.052,294h-15.23c-4.11,0-7.822,3.331-7.822,7.441v101.396c0,4.11,3.712,7.163,7.822,7.163H216v80h7v-80
		h4.052c4.11,0,6.948-3.053,6.948-7.163V301.441C234,297.331,231.162,294,227.052,294z M182.633,294h-15.23
		c-4.11,0-7.403,3.331-7.403,7.441v101.396c0,4.11,3.293,7.163,7.403,7.163H172v80h6v-80h4.633c4.11,0,7.367-3.053,7.367-7.163
		V301.441C190,297.331,186.743,294,182.633,294z M134,490h-7V316h7V490z M267,490h-6V321h6V490z M323,301.441v101.396
		c0,4.11-3,7.163-7.11,7.163H312v80h-7v-80h-4.34c-4.11,0-7.66-3.053-7.66-7.163V301.441c0-4.11,3.55-7.441,7.66-7.441h15.229
		C320,294,323,297.331,323,301.441z M368,301.441v101.396c0,4.11-3.581,7.163-7.691,7.163H356v80h-7v-80h-3.921
		c-4.11,0-7.079-3.053-7.079-7.163V301.441c0-4.11,2.969-7.441,7.079-7.441h15.229C364.419,294,368,297.331,368,301.441z
		 M412,301.441v101.396c0,4.11-3.162,7.163-7.272,7.163H400v80h-6v-80h-4.502c-4.11,0-7.498-3.053-7.498-7.163V301.441
		c0-4.11,3.388-7.441,7.498-7.441h15.229C408.838,294,412,297.331,412,301.441z M445,490h-7V310h7V490z"/>
</g>
<g id="Layer_10">
	<circle fill="#FF473E" cx="59.511" cy="300.871" r="12.61"/>
</g>
<g id="Layer_11">
	<path fill="#0096D1" d="M71.797,442.552v-1.771c0-2.412-1.955-4.367-4.367-4.367H51.592c-2.412,0-4.367,1.955-4.367,4.367v1.771
		c0,2.412,1.955,4.367,4.367,4.367H67.43C69.842,446.919,71.797,444.964,71.797,442.552z"/>
</g>
</svg>
