<svg xmlns="http://www.w3.org/2000/svg" viewBox="0 0 512 512" enable-background="new 0 0 512 512"><path fill="#FF473E" d="M289.77 189.566h-67.54l2.678-28.7h62.183l2.68 28.7zm-6.46-69.24c-.642-6.87-6.41-12.123-13.31-12.123h-28c-6.9 0-12.667 5.253-13.308 12.124l-1.454 15.585h57.526l-1.455-15.585zm-135.745 0c-.64-6.87-6.408-12.123-13.308-12.123h-28c-6.902 0-12.668 5.253-13.31 12.124l-1.453 15.585h57.526l-1.455-15.585zm271.487 0c-.64-6.87-6.408-12.123-13.308-12.123h-28c-6.902 0-12.668 5.253-13.31 12.124l-1.453 15.585h57.527l-1.455-15.585zm3.783 40.54h-62.183l-2.678 28.7h67.54l-2.68-28.7zm-266.48 53.653H84.158l-2.643 28.7h77.483l-2.643-28.7zm271.487 0h-72.197l-2.643 28.7h77.483l-2.643-28.7zm41.295 28.323h-38.652l.035.377h-77.553l.035-.377h-58.26l.034.377h-77.553l.035-.377h-58.26l.034.377H81.48l.035-.377H42.863c-11.472 0-20.772 9.3-20.772 20.772V489.72c0 11.472 9.3 20.772 20.773 20.772h426.273c11.472 0 20.772-9.3 20.772-20.772V263.614c0-11.47-9.3-20.77-20.77-20.77zm-177.04-28.324h-72.196l-2.642 28.7h77.483l-2.642-28.7zm-140.75-53.655H89.166l-2.678 28.7h67.54l-2.68-28.7z"/></svg>