<?xml version="1.0" encoding="iso-8859-1"?>
<!-- Generator: Adobe Illustrator 18.1.1, SVG Export Plug-In . SVG Version: 6.00 Build 0)  -->
<!DOCTYPE svg PUBLIC "-//W3C//DTD SVG 1.1//EN" "http://www.w3.org/Graphics/SVG/1.1/DTD/svg11.dtd">
<svg version="1.1" xmlns="http://www.w3.org/2000/svg" xmlns:xlink="http://www.w3.org/1999/xlink" x="0px" y="0px"
	 viewBox="0 0 512 512" enable-background="new 0 0 512 512" xml:space="preserve">
<g id="Layer_2">
	<path fill="#FCDDB1" d="M213.671,336.298c10.518-10.519,10.518-27.571,0-38.09c-10.518-10.518-27.571-10.518-38.089,0
		l-96.961,96.961c-19.065,16.974-26.559,16.049-35.415,15.377c-11.271-3.135-23.858-0.281-32.721,8.582
		c-13.092,13.092-13.092,34.319,0,47.412c6.838,6.838,15.894,10.096,24.852,9.792c-0.305,8.958,2.954,18.014,9.792,24.852
		c13.092,13.092,34.319,13.092,47.412,0c8.036-8.036,11.131-19.136,9.302-29.54l0,0c0-9.755-4.138-15.198,6.712-30.229
		L213.671,336.298z"/>
</g>
<g id="Layer_1">
</g>
</svg>
