<?xml version="1.0" encoding="iso-8859-1"?>
<!-- Generator: Adobe Illustrator 18.1.1, SVG Export Plug-In . SVG Version: 6.00 Build 0)  -->
<!DOCTYPE svg PUBLIC "-//W3C//DTD SVG 1.1//EN" "http://www.w3.org/Graphics/SVG/1.1/DTD/svg11.dtd">
<svg version="1.1" xmlns="http://www.w3.org/2000/svg" xmlns:xlink="http://www.w3.org/1999/xlink" x="0px" y="0px"
	 viewBox="0 0 512 512" enable-background="new 0 0 512 512" xml:space="preserve">
<g id="Layer_3">
	<path fill="#AF773F" d="M473.085,38.115c-3.32-3.319-8.701-3.319-12.021,0l-91.426,91.426l-11.142-11.142
		c-10.01-10.01-23.32-15.523-37.477-15.523s-27.466,5.513-37.477,15.523l-163.24,163.24c-20.665,20.665-20.665,54.289,0,74.953
		l11.142,11.142l-96.359,96.359c-3.32,3.319-3.32,8.702,0,12.021c1.66,1.659,3.835,2.489,6.01,2.489s4.351-0.83,6.01-2.489
		l96.36-96.36l11.143,11.143c10.011,10.01,23.32,15.523,37.477,15.523s27.466-5.513,37.477-15.523l163.24-163.24
		c20.665-20.665,20.665-54.289,0-74.953l-11.143-11.143l91.426-91.426C476.404,46.816,476.404,41.434,473.085,38.115z
		 M132.323,344.571c-14.059-14.059-14.059-36.853,0-50.912l163.24-163.24c7.029-7.029,16.243-10.544,25.456-10.544
		s18.426,3.515,25.456,10.544l11.142,11.142L143.465,355.713L132.323,344.571z M380.781,164.725
		c14.059,14.059,14.059,36.853,0,50.912l-163.24,163.24c-7.029,7.029-16.243,10.544-25.456,10.544
		c-9.213,0-18.426-3.515-25.456-10.544l-11.143-11.143l214.152-214.152L380.781,164.725z"/>
</g>
<g id="Layer_1">
</g>
</svg>
