<?xml version="1.0" encoding="iso-8859-1"?>
<!-- Generator: Adobe Illustrator 19.1.0, SVG Export Plug-In . SVG Version: 6.00 Build 0)  -->
<!DOCTYPE svg PUBLIC "-//W3C//DTD SVG 1.1//EN" "http://www.w3.org/Graphics/SVG/1.1/DTD/svg11.dtd">
<svg version="1.1" xmlns="http://www.w3.org/2000/svg" xmlns:xlink="http://www.w3.org/1999/xlink" x="0px" y="0px"
	 viewBox="0 0 512 512" enable-background="new 0 0 512 512" xml:space="preserve">
<g id="Layer_4">
	<path fill="#FFC63A" d="M147.568,172.666c0,20.753-19.39,37.579-43.304,37.579s-43.296-16.826-43.296-37.579
		c0-20.753,19.382-37.579,43.296-37.579S147.568,151.913,147.568,172.666 M247.105,426.749c0-25.719-24.51-46.565-54.738-46.565
		c-30.235,0-54.737,20.846-54.737,46.565c0,25.719,24.502,46.565,54.737,46.565C222.595,473.315,247.105,452.468,247.105,426.749
		 M256,6.003c-37.879,0-73.781,8.44-105.953,23.516c13.773,26.355,41.349,44.353,73.147,44.353c15.169,0,29.37-4.112,41.582-11.254
		C262.626,27.943,259.701,6.003,256,6.003z M48.36,272.363c-15.014,0-28.934,5.497-40.42,14.863
		c7.03,56.416,32.853,106.993,71.011,145.269c24.033-13.52,40.646-42.464,40.646-75.996
		C119.597,310.027,87.705,272.363,48.36,272.363z M197.835,225.782c0,32.032,31.892,57.991,71.238,57.991
		c0.036,0,0.071-0.002,0.106-0.002c0.206-39.034-0.024-78.976-0.689-115.968C229.414,168.059,197.835,193.909,197.835,225.782z"/>
</g>
<g id="Layer_1">
</g>
</svg>
