<?xml version="1.0" encoding="iso-8859-1"?>
<!-- Generator: Adobe Illustrator 18.1.1, SVG Export Plug-In . SVG Version: 6.00 Build 0)  -->
<!DOCTYPE svg PUBLIC "-//W3C//DTD SVG 1.1//EN" "http://www.w3.org/Graphics/SVG/1.1/DTD/svg11.dtd">
<svg version="1.1" xmlns="http://www.w3.org/2000/svg" xmlns:xlink="http://www.w3.org/1999/xlink" x="0px" y="0px"
	 viewBox="0 0 512 512" enable-background="new 0 0 512 512" xml:space="preserve">
<g id="Layer_2">
	<path fill="#BFBCAF" d="M435.527,292.935c-2.139-28.571-81.693-51.54-179.527-51.54c-87.633,0-160.592,18.43-176.394,42.806
		c-2.721,0.984-4.67,3.583-4.67,6.643v160.039c0,17.305,19.378,32.141,56.04,42.903c33.492,9.832,77.893,15.247,125.023,15.247
		s91.531-5.415,125.023-15.247c36.662-10.763,56.04-25.599,56.04-42.903V297.327C437.063,295.666,436.487,294.142,435.527,292.935z
		 M422.88,451.685l-40.201-40.201l40.244-40.244v79.644C422.923,451.149,422.906,451.417,422.88,451.685z M314.15,460.016
		l-48.532-48.532l48.532-48.532l48.532,48.532L314.15,460.016z M314.15,480.013l10.698,10.698
		c-7.574,0.979-15.533,1.81-23.863,2.467L314.15,480.013z M148.558,411.484l48.532-48.532l48.532,48.532l-48.532,48.532
		L148.558,411.484z M210.189,493.113c-8.277-0.666-16.187-1.503-23.712-2.487l10.612-10.612L210.189,493.113z M89.081,450.963
		c0-0.026-0.004-0.053-0.004-0.079v-78.883l39.483,39.483L89.081,450.963z M89.077,313.59c3.569,2.634,7.843,5.163,12.749,7.568
		l-12.749,12.749V313.59z M90.027,352.953l25.863-25.864c16.071,5.878,36.341,10.723,59.479,14.142l11.721,11.721l-48.532,48.532
		L90.027,352.953z M207.088,352.953l7.527-7.527c13.287,0.92,27.141,1.409,41.385,1.409c13.99,0,27.606-0.47,40.675-1.359
		l7.476,7.476l-48.532,48.532L207.088,352.953z M324.149,352.953l11.592-11.592c23.24-3.387,43.624-8.208,59.812-14.069l25.66,25.66
		l-48.532,48.532L324.149,352.953z M409.666,321.41c5.122-2.48,9.564-5.094,13.257-7.82v21.077L409.666,321.41z M142.327,273.945
		c31.195-8.072,71.565-12.518,113.673-12.518s82.479,4.445,113.673,12.518c29.693,7.684,41.897,16.335,45.214,20.17
		c-3.317,3.835-15.521,12.487-45.214,20.17c-31.195,8.072-71.565,12.518-113.673,12.518s-82.479-4.445-113.673-12.518
		c-29.693-7.683-41.897-16.335-45.214-20.17C100.429,290.28,112.634,281.629,142.327,273.945z M97.076,462.965l41.483-41.483
		l48.532,48.532l-17.969,17.969C133.805,481.82,108.976,472.346,97.076,462.965z M231.469,494.395l-24.381-24.381l48.532-48.532
		l48.532,48.532l-24.415,24.415c-7.656,0.303-15.571,0.464-23.736,0.464C247.55,494.894,239.373,494.719,231.469,494.395z
		 M342.23,488.096l-18.081-18.081l48.532-48.532l41.815,41.815C402.361,472.627,377.472,482.008,342.23,488.096z"/>
</g>
<g id="Layer_1">
</g>
</svg>
