<?xml version="1.0" encoding="iso-8859-1"?>
<!-- Generator: Adobe Illustrator 19.1.0, SVG Export Plug-In . SVG Version: 6.00 Build 0)  -->
<!DOCTYPE svg PUBLIC "-//W3C//DTD SVG 1.1//EN" "http://www.w3.org/Graphics/SVG/1.1/DTD/svg11.dtd">
<svg version="1.1" xmlns="http://www.w3.org/2000/svg" xmlns:xlink="http://www.w3.org/1999/xlink" x="0px" y="0px"
	 viewBox="0 0 512 512" enable-background="new 0 0 512 512" xml:space="preserve">
<g id="Layer_2">
	<path fill="#825527" d="M177.28,170.892L340.78,334.392c5.624,5.624,14.741,5.624,20.365,0l142.1-142.1
		c5.624-5.624,5.624-14.741,0-20.365L339.745,8.428c-5.624-5.624-14.741-5.624-20.365,0l-142.1,142.1
		C171.657,156.151,171.657,165.269,177.28,170.892z"/>
</g>
<g id="Layer_3">
	<polygon fill="#00B1FF" points="9.948,308.508 203.164,501.724 383.439,321.449 183.417,135.038 	"/>
</g>
<g id="Layer_4">
	<path fill="#59CAFC" d="M130.076,300.922l80.673,80.673c7.194,7.194,18.857,7.194,26.05,0l73.058-73.058
		c7.373-7.373,7.162-19.392-0.467-26.501l-83.515-77.832c-7.258-6.764-18.569-6.565-25.584,0.45l-70.216,70.216
		C122.883,282.066,122.883,293.729,130.076,300.922z"/>
</g>
<g id="Layer_5">
	<path fill="#CFD2D3" d="M7.836,330.984l172.852,172.852c5.624,5.624,14.741,5.624,20.365,0l29.432-29.432L37.268,281.188
		L7.836,310.619C2.212,316.243,2.212,325.361,7.836,330.984z"/>
</g>
<g id="Layer_6">
	<polygon fill="#009FD6" points="299.003,405.886 269.444,435.444 183.673,134.783 	"/>
</g>
<g id="Layer_7">
	<polygon fill="#6B3F18" points="463.932,132.614 449.789,118.472 383.225,185.035 330.054,131.864 396.617,65.301 382.475,51.158 
		315.911,117.721 262.999,64.809 248.856,78.952 301.769,131.864 234.356,199.276 248.499,213.419 315.911,146.007 369.083,199.178 
		301.67,266.59 315.812,280.732 383.225,213.32 432.721,262.815 446.863,248.673 397.368,199.178 	"/>
</g>
<g id="Layer_8">
	<path fill="#3DBBE8" d="M202.975,202.444l47.272,165.705l22.943-22.943l-62.031-145.814
		C208.276,199.731,205.464,200.751,202.975,202.444z"/>
</g>
<g id="Layer_9">
	<path fill="#CFD2D3" d="M181.698,131.926l-0.394,0.394c-2.961,2.961-3.778,7.447-2.05,11.262l120.576,266.252
		c5.434,12,21.187,14.867,30.501,5.553l86.965-86.965c3.433-3.433,3.433-9,0-12.433L195.242,131.305
		C191.245,127.981,185.374,128.25,181.698,131.926z"/>
</g>
</svg>
