<?xml version="1.0" encoding="iso-8859-1"?>
<!-- Generator: Adobe Illustrator 18.1.1, SVG Export Plug-In . SVG Version: 6.00 Build 0)  -->
<!DOCTYPE svg PUBLIC "-//W3C//DTD SVG 1.1//EN" "http://www.w3.org/Graphics/SVG/1.1/DTD/svg11.dtd">
<svg version="1.1" xmlns="http://www.w3.org/2000/svg" xmlns:xlink="http://www.w3.org/1999/xlink" x="0px" y="0px"
	 viewBox="0 0 512 512" enable-background="new 0 0 512 512" xml:space="preserve">
<g id="Layer_2">
	<path fill="#2B3B47" d="M384.619,132.759c0,5.405-4.381,9.786-9.786,9.786c-53.909,0-100.22-33.129-119.662-80.093
		c-19.443,46.965-65.754,80.093-119.664,80.093c-5.405,0-9.786-4.381-9.786-9.786s4.381-9.786,9.786-9.786
		c60.586,0,109.877-49.291,109.877-109.877c0-5.405,4.381-9.786,9.786-9.786s9.787,4.381,9.787,9.786
		c0,60.586,49.29,109.877,109.876,109.877C380.238,122.973,384.619,127.354,384.619,132.759z"/>
</g>
<g id="Layer_1">
</g>
</svg>
