<?xml version="1.0" encoding="iso-8859-1"?>
<!-- Generator: Adobe Illustrator 18.1.1, SVG Export Plug-In . SVG Version: 6.00 Build 0)  -->
<!DOCTYPE svg PUBLIC "-//W3C//DTD SVG 1.1//EN" "http://www.w3.org/Graphics/SVG/1.1/DTD/svg11.dtd">
<svg version="1.1" xmlns="http://www.w3.org/2000/svg" xmlns:xlink="http://www.w3.org/1999/xlink" x="0px" y="0px"
	 viewBox="0 0 512 512" enable-background="new 0 0 512 512" xml:space="preserve">
<g id="Layer_4">
	<path fill="#0082BC" d="M124.009,218.939c-6.092,3.042-13.294,5.366-21.261,6.819c2.759-13.376,7.348-26.606,13.892-39.348
		c8.376-16.308,19.263-30.482,31.941-42.305c2.793,7.111,4.547,14.042,5.222,20.48c-7.604,8.516-14.263,18.126-19.722,28.755
		C129.798,201.679,126.456,210.252,124.009,218.939z M387.963,293.075c-2.444,8.655-5.776,17.196-10.044,25.504
		c-5.461,10.633-12.123,20.246-19.731,28.765c0.67,6.457,2.427,13.414,5.231,20.55c12.677-11.823,23.565-25.997,31.941-42.305
		c6.544-12.742,11.133-25.972,13.892-39.348C401.273,287.698,394.061,290.027,387.963,293.075z"/>
</g>
<g id="Layer_1">
</g>
</svg>
