<?xml version="1.0" encoding="iso-8859-1"?>
<!-- Generator: Adobe Illustrator 19.1.0, SVG Export Plug-In . SVG Version: 6.00 Build 0)  -->
<!DOCTYPE svg PUBLIC "-//W3C//DTD SVG 1.1//EN" "http://www.w3.org/Graphics/SVG/1.1/DTD/svg11.dtd">
<svg version="1.1" xmlns="http://www.w3.org/2000/svg" xmlns:xlink="http://www.w3.org/1999/xlink" x="0px" y="0px"
	 viewBox="0 0 512 512" enable-background="new 0 0 512 512" xml:space="preserve">
<g id="Layer_13">
	<path fill="#FF6F1F" d="M471.485,187.252c0,35.005-63.13,46.798-83.112,49.654c-3.542,0.506-6.5,2.961-7.623,6.358
		c-6.573,19.875-35.305,85.845-127.105,85.845l0,0h0c-88.71,0-118.526-61.605-126.364-83.687c-1.674-4.715-5.803-8.111-10.748-8.87
		c-22.173-3.405-80.727-15.588-80.727-49.3c0,2.106,0.06,4.2,0.148,6.288l-0.148-0.035l0.202,1.21
		c0.57,11.456,2.44,22.635,5.5,33.439c0.13,0.457,0.235,0.921,0.313,1.389L75.79,433.058c3.248,19.458,15.277,36.391,32.689,45.664
		C136.33,493.553,184.806,512,253.645,512h0l0,0c70.763,0,120.009-19.492,147.453-34.513c16.009-8.762,27.065-24.432,30.069-42.433
		l34.338-205.727c0.054-0.325,0.127-0.646,0.218-0.963c3.096-10.869,4.986-22.119,5.56-33.649l0.202-1.21l-0.148,0.035
		C471.425,191.452,471.485,189.358,471.485,187.252z"/>
</g>
<g id="Layer_1">
</g>
</svg>
