<?xml version="1.0" encoding="iso-8859-1"?>
<!-- Generator: Adobe Illustrator 18.1.1, SVG Export Plug-In . SVG Version: 6.00 Build 0)  -->
<!DOCTYPE svg PUBLIC "-//W3C//DTD SVG 1.1//EN" "http://www.w3.org/Graphics/SVG/1.1/DTD/svg11.dtd">
<svg version="1.1" xmlns="http://www.w3.org/2000/svg" xmlns:xlink="http://www.w3.org/1999/xlink" x="0px" y="0px"
	 viewBox="0 0 512 512" enable-background="new 0 0 512 512" xml:space="preserve">
<g id="Layer_2">
	<path fill="#BC7535" d="M322.927,70.687c-10.48,0-20.778,0.501-30.82,1.473H175.32v0.197c0,0,0,0,0,0
		c-0.14,0.004-0.279,0.01-0.419,0.014c-1.33,0.039-2.657,0.084-3.98,0.138c-0.525,0.022-1.047,0.05-1.571,0.075
		c-0.936,0.043-1.873,0.086-2.805,0.137c-0.6,0.033-1.197,0.073-1.796,0.109c-0.852,0.052-1.704,0.102-2.552,0.161
		c-0.627,0.043-1.252,0.092-1.877,0.139c-0.817,0.061-1.633,0.122-2.447,0.189c-0.64,0.053-1.277,0.111-1.915,0.168
		c-0.793,0.071-1.585,0.141-2.374,0.218c-0.647,0.063-1.292,0.13-1.938,0.196c-0.777,0.08-1.553,0.162-2.327,0.247
		c-0.646,0.072-1.29,0.147-1.934,0.223c-0.767,0.09-1.534,0.183-2.298,0.278c-0.644,0.081-1.287,0.164-1.929,0.249
		c-0.759,0.1-1.516,0.203-2.271,0.309c-0.638,0.089-1.276,0.18-1.912,0.274c-0.755,0.111-1.507,0.225-2.258,0.342
		c-0.63,0.098-1.26,0.196-1.888,0.298c-0.754,0.122-1.504,0.248-2.254,0.376c-0.617,0.105-1.235,0.21-1.849,0.319
		c-0.757,0.134-1.511,0.274-2.264,0.414c-0.602,0.112-1.204,0.222-1.803,0.337c-0.765,0.147-1.525,0.301-2.285,0.454
		c-0.58,0.117-1.161,0.231-1.739,0.352c-0.791,0.165-1.577,0.337-2.363,0.508c-0.539,0.117-1.081,0.232-1.618,0.352
		c-0.871,0.195-1.734,0.399-2.599,0.602c-0.445,0.105-0.893,0.205-1.336,0.312c-1.298,0.312-2.588,0.633-3.871,0.963
		c-0.074,0.019-0.147,0.039-0.221,0.059c-1.22,0.315-2.434,0.638-3.64,0.97c-0.433,0.119-0.86,0.244-1.292,0.365
		c-0.839,0.236-1.679,0.471-2.511,0.714c-0.502,0.147-0.998,0.299-1.497,0.449c-0.753,0.225-1.506,0.45-2.252,0.682
		c-0.53,0.165-1.056,0.335-1.583,0.503c-0.708,0.225-1.416,0.451-2.119,0.682c-0.539,0.177-1.073,0.36-1.609,0.54
		c-0.684,0.231-1.367,0.462-2.045,0.698c-0.539,0.188-1.074,0.379-1.609,0.57c-0.666,0.238-1.331,0.477-1.991,0.72
		c-0.537,0.198-1.071,0.399-1.604,0.6c-0.65,0.245-1.298,0.493-1.943,0.743c-0.531,0.207-1.061,0.416-1.588,0.626
		c-0.638,0.254-1.273,0.511-1.905,0.77c-0.524,0.215-1.046,0.431-1.566,0.649c-0.628,0.264-1.252,0.531-1.875,0.8
		c-0.513,0.222-1.025,0.444-1.533,0.669c-0.624,0.276-1.243,0.556-1.861,0.837c-0.497,0.226-0.994,0.452-1.487,0.681
		c-0.62,0.289-1.234,0.582-1.848,0.876c-0.481,0.23-0.963,0.459-1.44,0.693c-0.624,0.306-1.241,0.617-1.859,0.929
		c-0.455,0.229-0.913,0.457-1.364,0.689c-0.642,0.331-1.276,0.668-1.91,1.005c-0.416,0.221-0.836,0.439-1.249,0.662
		c-0.699,0.379-1.389,0.765-2.078,1.151c-0.338,0.189-0.681,0.375-1.016,0.566c-1.021,0.581-2.031,1.169-3.029,1.767
		C24.108,122.649,5.017,150.08,3.571,179.983c-0.003,0.05-0.01,0.164-0.012,0.213c-0.058,1.262-0.086,2.391-0.086,3.453
		c0,27.939,16.526,52.665,41.763,63.484v139.901c0,30.069,24.463,54.533,54.533,54.533h169.374c1.046,0,2.083-0.037,3.115-0.095
		c0.244-0.014,0.486-0.038,0.729-0.056c0.818-0.057,1.632-0.13,2.44-0.223c0.211-0.025,0.421-0.053,0.631-0.08
		c0.876-0.111,1.745-0.243,2.607-0.396c0.123-0.022,0.246-0.043,0.368-0.066c0.996-0.183,1.982-0.391,2.958-0.628h125.623
		c30.069,0,54.533-24.463,54.533-54.532V245.589c25.236-10.818,41.763-35.544,41.763-63.483
		C503.909,114.421,432.869,70.687,322.927,70.687z"/>
</g>
<g id="Layer_3">
	<path fill="#FCDEA2" d="M356.302,183.649c0-63.753-69.775-102.283-171.847-102.283c-100.109,0-169.143,44.97-171.761,99.091
		c-0.003,0.053-0.007,0.106-0.009,0.159c-0.046,1.008-0.077,2.018-0.077,3.033c0,26.772,17.546,49.438,41.763,57.148v146.237
		c0,25.072,20.325,45.397,45.397,45.397h169.374c25.072,0,45.397-20.325,45.397-45.397V240.797
		C338.756,233.087,356.302,210.42,356.302,183.649z"/>
</g>
</svg>
