<?xml version="1.0" encoding="iso-8859-1"?>
<!-- Generator: Adobe Illustrator 19.1.0, SVG Export Plug-In . SVG Version: 6.00 Build 0)  -->
<!DOCTYPE svg PUBLIC "-//W3C//DTD SVG 1.1//EN" "http://www.w3.org/Graphics/SVG/1.1/DTD/svg11.dtd">
<svg version="1.1" xmlns="http://www.w3.org/2000/svg" xmlns:xlink="http://www.w3.org/1999/xlink" x="0px" y="0px"
	 viewBox="0 0 509.04 509.04" enable-background="new 0 0 509.04 509.04" xml:space="preserve">
<g id="Layer_2">
	<path fill="#BFBCAF" d="M437.734,119.681c0,0-0.377-2.186-2.449-3.958c-0.982-0.94-2.419-1.745-4.116-2.451
		c-1.781-0.621-3.588-1.378-5.562-1.967c-3.865-1.261-8.055-2.197-11.384-2.712c-1.705-0.217-3.126-0.398-4.12-0.525
		c-1.059-0.062-1.664-0.098-1.664-0.098c-0.217-0.011-0.471-0.013-0.693,0c-0.009,0.001-0.017,0.002-0.026,0.003L82.32,1.291
		c-2.351-0.761-4.82,0.498-5.582,2.824c-0.758,2.323,0.505,4.82,2.824,5.582l322.697,105.795c0.008,0.13,0.015,0.248,0.023,0.396
		c0.127,0.995,0.308,2.415,0.525,4.12c0.515,3.329,1.451,7.52,2.712,11.384c0.589,1.974,1.345,3.781,1.967,5.562
		c0.706,1.697,1.511,3.134,2.451,4.117c1.772,2.072,3.958,2.449,3.958,2.449c2.235,0.376,4.653,0.407,7.012,0
		C432.137,141.584,439.671,130.911,437.734,119.681z"/>
</g>
<g id="Layer_3">
	<path fill="#006652" d="M277.659,136.692c-5.359-6.384-41.094-15.949-45.36-6.743c-4.266,9.206,19.984,16.84,19.984,16.84
		l25.377-2.975V136.692z"/>
</g>
<g id="Layer_4">
	<path fill="#FFD3B6" d="M134.627,8.707c-6.399-4.02-14.846-2.091-18.866,4.308c0,0-0.079,0.126-0.227,0.362
		c-0.15,0.258-0.37,0.638-0.649,1.12c-0.473,0.882-1.093,2.104-1.712,3.582c-0.331,0.734-0.613,1.553-0.94,2.404
		c-0.321,0.853-0.616,1.766-0.913,2.712c-0.268,0.958-0.575,1.93-0.803,2.951c-0.254,1.009-0.479,2.043-0.672,3.087
		c-0.4,2.079-0.681,4.19-0.833,6.186c-0.095,0.988-0.089,1.976-0.067,2.906c0.013,0.925,0.086,1.811,0.2,2.637
		c0.105,0.822,0.252,1.575,0.386,2.24c0.163,0.674,0.331,1.258,0.48,1.737c0.158,0.481,0.285,0.854,0.397,1.111
		c0.103,0.255,0.158,0.391,0.158,0.391c0.352,0.866,0.876,1.71,1.555,2.432c0.272,0.289,0.565,0.544,0.868,0.783l2.16,6.314
		c1.533,4.477,22.324-1.344,20.398-6.975l-3.045-8.904c-0.216-0.632-0.492-1.225-0.808-1.788c0.156-0.235,0.305-0.471,0.465-0.706
		c0.867-1.319,1.767-2.614,2.585-3.819c0.812-1.187,1.57-2.295,2.22-3.245c0.608-0.9,1.114-1.651,1.469-2.176
		c0.077-0.12,0.145-0.226,0.205-0.319c0.038-0.055,0.07-0.102,0.096-0.14c0.077-0.125,0.118-0.191,0.118-0.191l0.146-0.237
		C142.934,21.085,140.993,12.706,134.627,8.707z"/>
</g>
<g id="Layer_5">
	<path fill="#68442A" d="M208.849,52.817c-0.557,0-1.122-0.087-1.68-0.27L79.262,10.614c-2.828-0.927-4.369-3.971-3.442-6.799
		c0.927-2.828,3.972-4.367,6.799-3.442l127.907,41.934c2.828,0.927,4.369,3.971,3.442,6.799
		C213.224,51.376,211.115,52.817,208.849,52.817z"/>
</g>
<g id="Layer_6">
	<path fill="#BFBCAF" d="M291.176,489.647c-27.584-0.374-3.958-39.514-2.85-43.111c0.418-5.566-2.878-5.559,2.737-8.042
		c7.388-3.267,15.02-11.435,22.088-1.088c7.068,10.347-1.29,18.394-1.198,25.218C312.106,473.93,300.639,489.775,291.176,489.647z
		 M178.724,487.478c-0.128,0.535-0.221,1.087-0.276,1.655c-0.747,7.786,5.944,15.62,14.945,17.498
		c9.001,1.878,16.904-2.911,17.651-10.697c0,0,0.154-1.605,0.385-4.012c0.298-2.219-1.995-18.134-1.995-18.134
		c-0.642-4.873-4.51-9.595-10.14-11.712c-7.408-2.786-15.06-0.006-17.091,6.209c0,0-1.761,12.638-2.473,15.153
		c-0.576,2.315-0.96,3.858-0.96,3.858L178.724,487.478z"/>
</g>
<g id="Layer_7">
	<path fill="#C49270" d="M308.424,434.338c-3.079-12.655-6.211-20.307-9.474-32.808l-4.704-18.626
		c-0.711-3.018-1.494-6.113-2.076-8.992c-0.314-1.462-0.645-2.949-0.841-4.233c-0.241-1.3-0.548-3.076-0.326-2.599
		c0.03-0.165,0.005,0.29-0.031-0.357l-0.04-1.23c0,0,0.016,0.024,0.06,0.98l0.001-0.04l-6.965-75.358l0-7.456l-46.459-20.737
		l-15.63-8.873h-0.001l-6.419-1.684c-1.586-0.403-3.227-0.676-4.914-0.807c-15.842-1.222-29.676,10.63-30.898,26.472
		c-1.123,14.566-2.025,29.172-3.331,43.706l-3.895,43.605l-0.366,4.103v0.012c0,0,3.362,92.725,3.432,93.644
		c0.781,10.219,37.786,14.847,37.005,4.629c-0.261-3.414,0.82-28.296,0.881-31.711c-0.11-3.414,0.18-6.828,0.309-10.242
		c0.344-6.828,1.057-13.656,1.567-20.484c0,0-1.666-69.66,12.746-69.66s13.162,37.751,18.91,52.116
		c5.748,14.365,8.896,17.238,11.85,23.27c5.659,12.173,11.61,24.004,18.433,35.653l0.147,0.26
		C283.356,462.511,313.019,453.223,308.424,434.338z"/>
</g>
<g id="Layer_8">
	<path fill="#00B89C" d="M287.629,281.656c-1.318,11.847-24.033,19.043-58.747,15.18s-55.292-15.875-53.974-27.722
		c1.318-11.847,24.033-19.043,58.747-15.18C268.369,257.796,288.947,269.809,287.629,281.656z"/>
</g>
<g id="Layer_9">
	
		<ellipse transform="matrix(0.9939 0.1106 -0.1106 0.9939 20.7657 -25.9327)" fill="#00B89C" cx="244.18" cy="174.248" rx="52.927" ry="34.461"/>
</g>
<g id="Layer_10">
	
		<ellipse transform="matrix(0.9939 0.1106 -0.1106 0.9939 18.192 -27.1964)" fill="#FFD3B6" cx="254.287" cy="150.412" rx="16.993" ry="8.497"/>
</g>
<g id="Layer_11">
	<path fill="#008E76" d="M228.614,139.686c-0.856,1.787-0.776,3.881,0.215,5.597l12.032,23.111l5.451-11.376
		c0.761-1.589,0.786-3.433,0.068-5.042c0,0-9.981-22.312-11.545-23.061C233.272,128.167,228.614,139.686,228.614,139.686z"/>
</g>
<g id="Layer_12">
	<path fill="#FFD3B6" d="M309.256,81.603c-0.072-0.019-0.144-0.028-0.216-0.045l0.471-1.205
		c5.945-22.692-7.655-52.267-30.355-58.214c-22.692-5.945-45.884,13.99-51.829,36.682l-0.179,1.274
		c-0.026-0.007-0.05-0.017-0.076-0.024c-4.973-1.303-10.066,1.677-11.37,6.652s1.674,10.07,6.647,11.372
		c0.745,0.195,1.491,0.284,2.228,0.295l-0.391,2.786c-4.413,16.845,2.642,33.989,16.32,43.181c-0.375,1.001-0.648,2.056-0.772,3.167
		l-2.337,21.008l33.494,3.727l2.337-21.008c0.058-0.522,0.076-1.038,0.073-1.551c13.252-3.658,24.255-14.068,27.99-28.322
		l1.037-2.652c0.68,0.383,1.414,0.695,2.205,0.902c4.973,1.303,10.066-1.677,11.37-6.652C317.207,88,314.229,82.906,309.256,81.603z
		"/>
</g>
<g id="Layer_13">
	<path fill="#008E76" d="M278.615,149.093c0,1.982-0.978,3.836-2.613,4.955l-20.837,15.644v-12.614c0-1.762,0.774-3.436,2.117-4.576
		c0,0,18.642-15.809,20.376-15.809C279.392,136.692,278.615,149.093,278.615,149.093z"/>
</g>
<g id="Layer_14">
	<path fill="#FFD3B6" d="M138.608,7.309c-2.059-0.301-4.09,0.203-5.264,3.91c0.381-4.926-1.365-6.078-3.635-6.41
		c-2.328-0.341-4.519,0.266-5.561,5.443c0.133-4.243-1.542-5.284-3.681-5.597c-2.505-0.367-4.689,0.387-5.616,6.723
		c-0.927,6.336,0.833,8.481,3.338,8.848c2.331,0.341,4.483-0.983,5.518-6.273c-0.138,4.458,1.576,6.113,3.724,6.427
		c2.049,0.3,3.96-0.687,5.096-4.522c-0.322,4.959,1.549,6.692,3.803,7.022c2.505,0.367,4.806-1.185,5.733-7.521
		C142.99,9.024,141.113,7.676,138.608,7.309z"/>
</g>
<g id="Layer_15">
	<path fill="#FFD3B6" d="M124.035,37.81c0,0,0.137,0.017,0.394,0.048l0.05,0.006c0.029,0.003,0.035,0.004-0.023,0
		c-0.076-0.002-0.157-0.005-0.241-0.007c-0.169,0.002-0.354,0.017-0.549,0.054c-0.097,0.018-0.197,0.042-0.297,0.072
		c-0.029,0.01-0.02,0.009-0.032,0.015c-0.014,0.01-0.028,0.024-0.04,0.042c-0.036,0.047,0.099,0.001,0.159,0.018
		c0.118-0.028,0.267-0.064,0.445-0.117c0.383-0.139,0.872-0.328,1.458-0.633c2.347-1.163,5.756-3.554,8.821-6.227
		c3.093-2.671,5.89-5.697,7.494-8.032c0.409-0.581,0.744-1.116,1.005-1.58c0.144-0.236,0.249-0.449,0.347-0.645
		c0.103-0.198,0.196-0.38,0.254-0.532c0.147-0.32,0.233-0.551,0.278-0.699c0.057-0.155,0.087-0.238,0.087-0.238l0.223-0.605
		c0.669-1.819,2.685-2.751,4.504-2.082c1.557,0.572,2.463,2.134,2.273,3.712c0,0-0.023,0.187-0.065,0.539
		c-0.038,0.362-0.115,0.869-0.255,1.47c-0.061,0.315-0.149,0.636-0.249,0.981c-0.097,0.351-0.206,0.728-0.342,1.102
		c-0.259,0.772-0.586,1.601-0.978,2.463c-1.552,3.474-4.135,7.495-7.101,11.209c-2.98,3.725-6.254,7.144-9.436,9.601
		c-0.784,0.616-1.613,1.175-2.414,1.666c-0.422,0.247-0.842,0.476-1.254,0.685c-0.485,0.215-0.835,0.397-1.337,0.568
		c-0.246,0.08-0.479,0.156-0.698,0.227c-0.114,0.034-0.225,0.067-0.333,0.098c-0.202,0.04-0.397,0.078-0.584,0.114
		c-0.38,0.064-0.736,0.105-1.062,0.13c-0.236,0.012-0.451,0.024-0.643,0.034c-0.259,0.015-0.397,0.024-0.397,0.024
		c-3.737,0.221-6.946-2.628-7.167-6.365c-0.221-3.737,2.628-6.946,6.365-7.167c0.405-0.024,0.803-0.012,1.192,0.033L124.035,37.81z"
		/>
</g>
<g id="Layer_16">
	<path fill="#2B3B47" d="M247.035,68.109l-1.506,5.747l-0.009-0.002c-0.002,0.009,0.004,0.018,0.004,0.018
		c-0.591,2.257-2.902,3.608-5.159,3.017c-2.257-0.591-3.608-2.902-3.016-5.164c0,0,0.001-0.003,0.003-0.012l-0.018-0.005
		l1.506-5.747l0.049,0.013c0.731-2.046,2.895-3.239,5.036-2.678c2.135,0.559,3.436,2.661,3.068,4.801L247.035,68.109z
		 M295.943,80.922c0.369-2.141-0.935-4.243-3.076-4.804c-2.133-0.559-4.3,0.634-5.028,2.68l-0.049-0.013l-1.506,5.747l0.018,0.005
		c-0.002,0.009-0.003,0.012-0.003,0.012c-0.592,2.261,0.759,4.572,3.007,5.161c2.257,0.591,4.568-0.76,5.159-3.017
		c0,0,0.002-0.007,0.004-0.016l0,0l1.506-5.747L295.943,80.922z"/>
</g>
<g id="Layer_17">
	<path fill="#FFFFFF" d="M242.012,67.032l-0.375,1.432l0,0l-0.001,0.004c-0.147,0.562-0.723,0.898-1.285,0.751
		c-0.562-0.147-0.898-0.723-0.751-1.285l0.001-0.004l-0.002-0.001l0.375-1.432l0.01,0.003c0.183-0.508,0.722-0.806,1.254-0.667
		c0.531,0.139,0.857,0.664,0.763,1.195L242.012,67.032z M291.25,79.932c0.094-0.531-0.232-1.056-0.763-1.195
		c-0.532-0.139-1.071,0.159-1.254,0.667l-0.01-0.003l-0.375,1.432l0.002,0.001l-0.001,0.004c-0.147,0.562,0.189,1.137,0.751,1.285
		c0.561,0.147,1.137-0.189,1.285-0.751l0.001-0.004l0,0l0.375-1.432L291.25,79.932z"/>
</g>
<g id="Layer_18">
	<path fill="#68442A" d="M302.766,22.873c-1.881-1.661,4.467-2.945,2.137-4.333c-1.897-1.128-12.387-2.411-14.586-3.321
		c-2.164-0.892-4.495-1.679-6.976-2.329c-29.098-7.624-47.776,11.268-52.081,27.702l-5.465,20.86
		c5.613,1.471,10.666-10.071,15.984-22.149c5.445-12.382,15.768-12.529,24.316-9.899c6.773,4.956,22.395,16.169,24.955,16.065
		c19.856-0.802,13.358,35.265,18.961,36.732l5.143-19.63C318.26,50.718,315.477,34.082,302.766,22.873z"/>
</g>
<g id="Layer_19">
	<path fill="#E5AB83" d="M263.911,95.323c-0.72,0-1.447-0.093-2.168-0.282c-2.792-0.733-4.969-2.786-5.823-5.49
		c-0.301-0.953,0.228-1.968,1.18-2.27c0.96-0.3,1.969,0.229,2.27,1.18c0.479,1.514,1.709,2.666,3.293,3.082
		c1.587,0.417,3.229,0.017,4.392-1.07c0.729-0.682,1.875-0.642,2.556,0.087c0.682,0.73,0.643,1.875-0.087,2.556
		C267.981,94.555,265.982,95.323,263.911,95.323z M269.202,109.659c0.739-0.737,0.742-1.933,0.006-2.672
		c-0.737-0.74-1.935-0.742-2.672-0.005c-2.21,2.201-5.386,3.031-8.497,2.213c-3.108-0.815-5.469-3.093-6.313-6.093
		c-0.284-1.004-1.326-1.587-2.331-1.307c-1.004,0.283-1.589,1.327-1.307,2.331c1.212,4.304,4.574,7.565,8.992,8.724
		c1.113,0.292,2.231,0.435,3.335,0.435C263.695,113.285,266.83,112.022,269.202,109.659z M250.376,59.578
		c0.046,0.022,0.094,0.043,0.142,0.062c0.934,0.359,1.981-0.107,2.34-1.04c0.359-0.934-0.107-1.981-1.04-2.34
		c0,0-0.186-0.072-0.511-0.197c-0.32-0.119-0.772-0.278-1.32-0.452c-1.094-0.351-2.573-0.752-4.126-0.984
		c-0.771-0.125-1.569-0.19-2.333-0.198c-0.374-0.022-0.763,0.024-1.117,0.04c-0.353,0.012-0.712,0.101-1.027,0.146
		c-0.315,0.039-0.622,0.168-0.882,0.238c-0.262,0.069-0.489,0.176-0.676,0.274c-0.368,0.189-0.579,0.297-0.579,0.297
		c-0.571,0.292-0.848,0.971-0.621,1.589c0.245,0.667,0.984,1.009,1.651,0.764l0.281-0.103c0,0,0.118-0.043,0.326-0.12
		c0.098-0.044,0.221-0.095,0.393-0.117c0.171-0.022,0.33-0.095,0.559-0.097c0.225-0.005,0.445-0.054,0.715-0.035
		c0.268,0.016,0.536-0.002,0.839,0.046c0.591,0.059,1.236,0.165,1.883,0.331c1.294,0.31,2.586,0.782,3.529,1.179
		c0.473,0.197,0.861,0.373,1.125,0.499c0.256,0.125,0.403,0.197,0.403,0.197L250.376,59.578z M289.399,66.131
		c-0.999-0.058-1.855,0.705-1.912,1.704c-0.058,0.999,0.705,1.855,1.704,1.912l0.045,0.003c0,0,0.163,0.009,0.448,0.026
		c0.292,0.02,0.717,0.057,1.225,0.117c1.017,0.116,2.374,0.339,3.654,0.703c0.646,0.173,1.259,0.396,1.803,0.635
		c0.287,0.107,0.512,0.254,0.753,0.371c0.245,0.116,0.413,0.267,0.606,0.381c0.199,0.114,0.302,0.255,0.44,0.359
		c0.139,0.104,0.222,0.209,0.286,0.295c0.143,0.168,0.225,0.264,0.225,0.264l0.194,0.228c0.416,0.488,1.141,0.601,1.689,0.238
		c0.593-0.392,0.755-1.191,0.363-1.783c0,0-0.13-0.197-0.359-0.542c-0.114-0.177-0.26-0.382-0.455-0.57
		c-0.192-0.188-0.396-0.451-0.652-0.64c-0.253-0.194-0.521-0.447-0.824-0.631c-0.301-0.187-0.617-0.418-0.954-0.583
		c-0.67-0.368-1.397-0.702-2.13-0.971c-1.466-0.559-2.953-0.934-4.078-1.165c-0.563-0.117-1.035-0.2-1.372-0.253
		c-0.345-0.05-0.542-0.079-0.542-0.079C289.506,66.139,289.451,66.134,289.399,66.131z"/>
</g>
<g id="Layer_20">
	<path fill="#EDC0A2" d="M249.94,125.338c-8.81-2.308-16.292-7.128-21.886-13.487c5.149,8.789,13.647,15.618,24.279,18.403
		c21.279,5.575,43.06-7.158,48.636-28.44l0.641-1.915C293.229,119.734,271.378,130.955,249.94,125.338z"/>
</g>
<g id="Layer_21">
	<path fill="#FFD3B6" d="M200.769,33.012c-0.451-1.206-1.794-1.818-3-1.367l-3.871,1.447c-0.02,0.007-0.076,0.273-0.326,0.798
		c-0.106,0.256-0.295,0.586-0.514,0.961c-0.232,0.378-0.522,0.808-0.883,1.275c-0.365,0.466-0.783,0.97-1.281,1.489
		c-0.027,0.03-0.061,0.06-0.089,0.09c0.394-1.449,0.542-2.932,0.454-4.396c0.434-1.082,0.79-2.456,1.036-4.204
		c0.893-6.341-0.991-7.679-3.497-8.032c-1.74-0.245-4.545-1.729-8.417-2.365c-0.162-0.034-0.327-0.063-0.496-0.087
		c-0.171-0.024-0.34-0.041-0.507-0.054c-3.823-0.444-6.196,0.307-8.736-0.051c-2.507-0.353-4.687,0.413-5.58,6.753
		c-0.199,1.414-0.259,2.608-0.215,3.63c-0.424,0.825-0.924,1.859-1.427,3.08c-0.327,0.736-0.605,1.556-0.927,2.409
		c-0.316,0.855-0.607,1.77-0.898,2.717c-0.263,0.96-0.564,1.933-0.787,2.955c-0.249,1.01-0.468,2.045-0.655,3.091
		c-0.389,2.081-0.659,4.194-0.8,6.191c-0.089,0.989-0.079,1.977-0.051,2.906c0.018,0.925,0.095,1.811,0.214,2.636
		c0.11,0.822,0.261,1.573,0.398,2.238c0.167,0.673,0.338,1.256,0.489,1.734c0.16,0.48,0.29,0.852,0.402,1.109
		c0.104,0.255,0.16,0.391,0.16,0.391c0.357,0.864,0.885,1.706,1.568,2.424c2.973,3.13,7.921,3.257,11.051,0.283l0.853-0.81
		c0,0,0.093-0.088,0.266-0.253c0.182-0.163,0.413-0.406,0.703-0.709c0.281-0.305,0.609-0.673,0.956-1.092
		c0.009-0.011,0.021-0.024,0.03-0.035c0.156-0.019,0.306-0.04,0.411-0.062c0.184-0.042,0.38-0.086,0.588-0.133
		c0.846-0.196,1.612-0.482,2.431-0.827c0.795-0.347,1.599-0.756,2.397-1.221c1.598-0.932,3.246-2.073,4.872-3.389
		c1.627-1.315,3.257-2.781,4.782-4.36c1.526-1.578,2.966-3.239,4.207-4.938c1.242-1.695,2.293-3.413,3.066-5.031
		c0.387-0.809,0.703-1.592,0.951-2.316c0.24-0.734,0.43-1.384,0.538-1.964c0.128-0.558,0.18-1.034,0.215-1.355
		c0.034-0.319,0.053-0.49,0.053-0.49C200.939,33.731,200.899,33.36,200.769,33.012z"/>
</g>
<g id="Layer_22">
	<path fill="#00B89C" d="M283.164,178.585c1.466-6.383-0.475-13.348-5.688-18.039c-11.007-9.906-54.306-40.691-63.987-51.885
		l-2.432-4.126l-4.107-6.891c-2.714-4.612-5.165-9.345-7.691-13.954c-2.474-4.629-4.805-9.313-6.725-13.887
		c-1.076-2.283-1.953-4.524-2.777-6.712c-0.822-2.226-1.423-4.24-2.05-6.231l-0.583-1.864c-1.826-5.79-30.735-9.884-27.249,4.583
		c0.099,3.619,0.383,7.186,0.949,10.447c0.536,3.292,1.153,6.515,1.919,9.574c1.56,6.185,3.512,11.982,5.569,17.705
		c2,5.75,4.482,11.197,6.94,16.636l2.694,5.682c-7.947-5.292-15.91-10.565-23.932-15.766c-3.804-13.014-13.169-45.055-15.203-52.015
		c-0.475-1.624-1.725-2.699-3.435-3.335l0.167,0.489c1.926,5.631-18.865,11.451-20.398,6.975l-0.99-2.893
		c-1.412,1.211-2.199,2.52-1.986,3.81c1.042,6.653,3.332,15.302,4.603,21.889c0,0,2.304,11.004,3.811,19.764
		c4.041,23.499,22.646,40.274,22.646,40.274c4.314,4.198,8.96,7.992,13.423,12.008c2.282,1.947,4.442,4.042,6.824,5.867l7.08,5.555
		c2.342,1.873,4.714,3.71,7.214,5.391c2.464,1.725,4.893,3.491,7.482,5.064l4.159,2.527c0.31,0.188,0.631,0.343,0.948,0.512
		l-15.454,93.375l112.721,12.542l9.154-101.555L283.164,178.585z"/>
</g>
<g id="Layer_23">
	<path fill="#008E76" d="M253.184,189.728c0,0-0.351-0.186-1.009-0.535c-0.665-0.34-1.605-0.881-2.812-1.577
		c-1.198-0.707-2.689-1.511-4.305-2.564c-1.624-1.044-3.457-2.222-5.456-3.507c-2.008-1.278-4.081-2.791-6.314-4.342
		c-2.193-1.601-4.51-3.282-6.855-5.084c-2.337-1.81-4.764-3.664-7.123-5.667c-1.197-0.984-2.394-1.977-3.553-3.038
		c-1.157-1.027-2.361-2.107-3.526-3.228c-2.288-2.239-4.531-4.453-6.659-6.734c-2.122-2.274-4.21-4.512-6.23-6.677
		c-1.994-2.188-3.954-4.267-5.721-6.329c-1.764-2.063-3.431-4.014-4.971-5.815c-1.523-1.816-2.933-3.464-4.11-4.997
		c-1.197-1.511-2.22-2.849-3.05-3.959c-0.841-1.099-1.445-2.018-1.848-2.642c-0.385-0.651-0.552-1.001-0.552-1.001
		s0.211,0.332,0.657,0.916c0.471,0.566,1.17,1.388,2.106,2.393c1.86,2.021,4.588,4.843,7.911,8.179
		c6.66,6.658,15.645,15.437,24.985,23.832c2.334,2.1,4.746,4.111,7.094,6.119c2.36,1.995,4.683,3.957,6.931,5.857
		c4.509,3.784,8.754,7.272,12.432,10.212c3.676,2.943,6.78,5.344,8.966,7.007c2.193,1.654,3.447,2.599,3.447,2.599
		c0.159,0.12,0.191,0.347,0.071,0.506c-0.108,0.144-0.304,0.184-0.458,0.102L253.184,189.728z"/>
</g>
</svg>
