<?xml version="1.0" encoding="iso-8859-1"?>
<!-- Generator: Adobe Illustrator 18.1.0, SVG Export Plug-In . SVG Version: 6.00 Build 0)  -->
<!DOCTYPE svg PUBLIC "-//W3C//DTD SVG 1.1//EN" "http://www.w3.org/Graphics/SVG/1.1/DTD/svg11.dtd">
<svg version="1.1" xmlns="http://www.w3.org/2000/svg" xmlns:xlink="http://www.w3.org/1999/xlink" x="0px" y="0px"
	 viewBox="0 0 512 512" enable-background="new 0 0 512 512" xml:space="preserve">
<g id="Layer_2">
	<path fill="#FF6E83" d="M490.174,232.684H21.826c-7.953,0-14.4,6.447-14.4,14.4V496.6c0,7.953,6.447,14.4,14.4,14.4h468.348
		c7.953,0,14.4-6.447,14.4-14.4V247.084C504.574,239.131,498.127,232.684,490.174,232.684z"/>
</g>
<g id="Layer_3">
	<path fill="#FF473E" d="M497.374,227.786H14.626c-3.976,0-7.2,3.224-7.2,7.2V253.7h497.148v-18.714
		C504.574,231.009,501.35,227.786,497.374,227.786z"/>
</g>
<g id="Layer_4">
	<path fill="#2B3B47" d="M473.254,361.386H368.131c-3.976,0-7.2-3.224-7.2-7.2v-42.119c0-3.976,3.224-7.2,7.2-7.2h105.123
		c3.976,0,7.2,3.224,7.2,7.2v42.119C480.454,358.162,477.23,361.386,473.254,361.386z M482.917,449.223v-42.119
		c0-3.976-3.224-7.2-7.2-7.2H368.131c-3.976,0-7.2,3.224-7.2,7.2v42.119c0,3.976,3.224,7.2,7.2,7.2h107.587
		C479.694,456.423,482.917,453.199,482.917,449.223z M149.29,354.186v-42.119c0-3.976-3.224-7.2-7.2-7.2H36.967
		c-3.976,0-7.2,3.224-7.2,7.2v42.119c0,3.976,3.224,7.2,7.2,7.2H142.09C146.066,361.386,149.29,358.162,149.29,354.186z
		 M151.753,449.223v-42.119c0-3.976-3.224-7.2-7.2-7.2H36.967c-3.976,0-7.2,3.224-7.2,7.2v42.119c0,3.976,3.224,7.2,7.2,7.2h107.587
		C148.53,456.423,151.753,453.199,151.753,449.223z"/>
</g>
<g id="Layer_5">
	<path fill="#FFA9BA" d="M383.928,139.018H127.619c-4.139,0-7.495,4.091-7.495,9.137v353.707c0,5.046,3.356,9.137,7.495,9.137
		h256.309c4.139,0,7.495-4.091,7.495-9.137V148.155C391.423,143.109,388.067,139.018,383.928,139.018z"/>
</g>
<g id="Layer_6">
	<rect x="169.533" y="416.505" fill="#2B3B47" width="172.48" height="94.495"/>
</g>
<g id="Layer_7">
	<path fill="#597B91" d="M273.496,269.592h-35.437c-3.976,0-7.2-3.224-7.2-7.2v-44.54c0-3.976,3.224-7.2,7.2-7.2h35.437
		c3.976,0,7.2,3.224,7.2,7.2v44.54C280.696,266.369,277.472,269.592,273.496,269.592z M367.859,262.392v-44.54
		c0-3.976-3.224-7.2-7.2-7.2h-35.437c-3.976,0-7.2,3.224-7.2,7.2v44.54c0,3.976,3.224,7.2,7.2,7.2h35.437
		C364.635,269.592,367.859,266.369,367.859,262.392z M280.696,356.854v-44.54c0-3.976-3.224-7.2-7.2-7.2h-35.437
		c-3.976,0-7.2,3.224-7.2,7.2v44.54c0,3.976,3.224,7.2,7.2,7.2h35.437C277.472,364.054,280.696,360.83,280.696,356.854z
		 M367.859,356.854v-44.54c0-3.976-3.224-7.2-7.2-7.2h-35.437c-3.976,0-7.2,3.224-7.2,7.2v44.54c0,3.976,3.224,7.2,7.2,7.2h35.437
		C364.635,364.054,367.859,360.83,367.859,356.854z M193.533,262.392v-44.54c0-3.976-3.224-7.2-7.2-7.2h-35.437
		c-3.976,0-7.2,3.224-7.2,7.2v44.54c0,3.976,3.224,7.2,7.2,7.2h35.437C190.309,269.592,193.533,266.369,193.533,262.392z
		 M193.533,356.854v-44.54c0-3.976-3.224-7.2-7.2-7.2h-35.437c-3.976,0-7.2,3.224-7.2,7.2v44.54c0,3.976,3.224,7.2,7.2,7.2h35.437
		C190.309,364.054,193.533,360.83,193.533,356.854z M342.014,416.354c0-5.442-4.412-9.854-9.854-9.854H179.388
		c-5.442,0-9.854,4.412-9.854,9.854v8.122h172.48V416.354z"/>
</g>
<g id="Layer_8">
	<path fill="#FF473E" d="M385.211,137H126.789c-3.976,0-7.2,3.224-7.2,7.2v22.688h272.822V144.2
		C392.411,140.224,389.187,137,385.211,137z"/>
</g>
<g id="Layer_9">
	<path fill="#FF6E83" d="M334.021,18.806c-18.982-22.44-52.578-23.516-72.943-3.21c-0.019,0.019-0.038,0.038-0.057,0.057
		c-2.815,2.818-7.25,2.812-10.055-0.015c-0.024-0.024-0.048-0.048-0.071-0.072C231.583-3.801,200.246-3.86,180.86,15.416
		c-16.491,16.398-19.189,42.835-6.503,62.325c3.97,6.1,8.946,10.821,14.449,14.402l63.627,51.503c2.276,1.842,5.531,1.836,7.8-0.015
		l63.231-51.577c5.307-3.52,10.101-8.138,13.981-13.982C349.487,59.938,348.08,35.426,334.021,18.806z"/>
</g>
<g id="Layer_10">
	<path fill="#FFFFFF" d="M189.302,53.741c-0.172,0-0.345-0.007-0.52-0.021c-3.465-0.283-6.045-3.322-5.762-6.788
		c1.297-15.861,12.614-28.848,28.161-32.317c3.393-0.758,6.758,1.38,7.515,4.774c0.757,3.393-1.38,6.758-4.774,7.515
		c-10.132,2.26-17.508,10.721-18.353,21.054C195.3,51.249,192.546,53.741,189.302,53.741z"/>
</g>
</svg>
