<?xml version="1.0" encoding="iso-8859-1"?>
<!-- Generator: Adobe Illustrator 19.1.0, SVG Export Plug-In . SVG Version: 6.00 Build 0)  -->
<!DOCTYPE svg PUBLIC "-//W3C//DTD SVG 1.1//EN" "http://www.w3.org/Graphics/SVG/1.1/DTD/svg11.dtd">
<svg version="1.1" xmlns="http://www.w3.org/2000/svg" xmlns:xlink="http://www.w3.org/1999/xlink" x="0px" y="0px"
	 viewBox="0 0 512 512" enable-background="new 0 0 512 512" xml:space="preserve">
<g id="Layer_2">
	<path fill="#DDBD7C" d="M455.978,227.618H50.798c-5.59,0-10.122,2.044-10.122,4.566v273.16H466.1v-273.16
		C466.1,229.662,461.568,227.618,455.978,227.618z"/>
</g>
<g id="Layer_3">
	<path fill="#5B666B" d="M459.575,195.321H47.155c-2.787,0-5.262,1.779-6.151,4.42l-11.656,34.634
		c-1.416,4.206,1.713,8.561,6.151,8.561H471.23c4.438,0,7.567-4.354,6.151-8.561l-11.656-34.634
		C464.837,197.1,462.361,195.321,459.575,195.321z"/>
</g>
<g id="Layer_4">
	<path fill="#FFE1AB" d="M394.296,48.857H112.479c-3.888,0-7.04,3.36-7.04,7.506v448.982h295.897V56.362
		C401.336,52.217,398.184,48.857,394.296,48.857z"/>
</g>
<g id="Layer_5">
	<path fill="#2B3B47" d="M389.27,8.282H117.506c-6.876,0-12.659,5.157-13.443,11.988L91.146,132.766
		c-0.922,8.032,5.358,15.075,13.443,15.075h297.598c8.085,0,14.365-7.043,13.443-15.075L402.713,20.27
		C401.928,13.439,396.146,8.282,389.27,8.282z"/>
</g>
<g id="Layer_6">
	<path fill="#FFC661" d="M331.068,64.388l-32.502-16.643c-3.402-1.739-7.577-0.396-9.321,3.008
		c-1.743,3.404-0.397,7.577,3.008,9.321l0.636,0.326c-0.005,0.012-0.01,0.023-0.015,0.036c-0.532,1.373-1.336,2.786-2.152,4.406
		c-0.387,0.828-0.895,1.609-1.399,2.444c-0.517,0.823-1.003,1.73-1.593,2.587c-0.602,0.856-1.221,1.734-1.854,2.633
		c-0.159,0.228-0.318,0.457-0.478,0.687c-0.176,0.215-0.353,0.431-0.531,0.648c-0.357,0.437-0.718,0.879-1.082,1.324
		c-0.365,0.451-0.733,0.905-1.104,1.363c-0.371,0.462-0.801,0.862-1.204,1.304c-0.83,0.854-1.633,1.786-2.522,2.636
		c-0.129,0.118-0.26,0.238-0.389,0.356c0.07-0.916,0.117-1.839,0.117-2.773c0-19.89-16.183-36.073-36.073-36.073
		c-19.891,0-36.074,16.182-36.074,36.073c0,3.865,0.618,7.586,1.748,11.079c-0.379-0.271-0.758-0.542-1.134-0.812
		c-0.431-0.32-0.831-0.681-1.245-1.016c-0.823-0.681-1.637-1.354-2.437-2.016c-1.521-1.432-3.026-2.789-4.372-4.177
		c-1.308-1.43-2.607-2.724-3.707-4.026c-1.093-1.312-2.096-2.515-2.984-3.581c-0.872-1.084-1.574-2.085-2.183-2.882
		c-1.204-1.609-1.891-2.529-1.891-2.529l-0.147-0.196c-1.398-1.86-4.019-2.344-5.999-1.057c-2.066,1.344-2.652,4.108-1.308,6.175
		c0,0,0.671,1.032,1.845,2.837c0.598,0.897,1.28,2.013,2.147,3.246c0.89,1.221,1.895,2.599,2.991,4.102
		c1.11,1.496,2.451,3.032,3.801,4.704c1.397,1.639,2.99,3.286,4.611,5.011c0.866,0.819,1.747,1.651,2.638,2.493
		c0.452,0.416,0.886,0.855,1.361,1.26c0.482,0.397,0.967,0.797,1.454,1.198c0.988,0.787,1.932,1.643,2.981,2.386
		c1.051,0.745,2.106,1.492,3.161,2.239c1.067,0.734,2.208,1.366,3.31,2.048c1.094,0.7,2.252,1.28,3.402,1.858
		c2.267,1.224,4.635,2.151,6.915,3.066c1.162,0.397,2.305,0.787,3.424,1.168c1.123,0.37,2.245,0.627,3.328,0.932
		c0.543,0.143,1.079,0.284,1.607,0.423c0.454,0.093,0.9,0.185,1.342,0.276c0.819,0.274,1.648,0.528,2.493,0.743l0.01,0.3
		c0,0,0.909,0.087,2.533,0.242c2.073,0.372,4.204,0.577,6.383,0.577c0.635,0,1.266-0.018,1.894-0.05
		c0.446,0.009,0.895,0.018,1.361,0.028c0.367,0.006,0.751,0.012,1.13,0.019c0.009,0,0.027,0.001,0.027,0.001l0.027,0.002
		c0.142,0.007,0.284,0.01,0.428,0.008c0.012,0,0.024-0.002,0.036-0.002c0.034,0.001,0.065,0.001,0.099,0.002
		c0.299,0.004,0.602,0.009,0.908,0.013c0.296-0.012,0.596-0.024,0.899-0.036c1.215-0.056,2.48-0.115,3.789-0.175
		c1.314-0.07,2.683-0.097,4.076-0.296c2.794-0.335,5.782-0.608,8.832-1.275c0.768-0.148,1.543-0.298,2.323-0.448
		c0.391-0.076,0.784-0.153,1.178-0.23c0.394-0.08,0.779-0.199,1.171-0.297c1.571-0.422,3.161-0.848,4.764-1.278
		c0.813-0.198,1.598-0.486,2.394-0.76c0.797-0.277,1.597-0.555,2.398-0.833c0.805-0.283,1.611-0.567,2.417-0.851
		c0.792-0.322,1.575-0.669,2.366-1.006l2.373-1.029c0.79-0.348,1.594-0.675,2.348-1.091c1.536-0.803,3.066-1.603,4.584-2.396
		c1.504-0.831,2.93-1.768,4.38-2.65c0.713-0.456,1.454-0.876,2.134-1.362c0.682-0.488,1.358-0.973,2.029-1.454
		c0.672-0.486,1.339-0.969,2-1.447c0.33-0.241,0.659-0.481,0.986-0.72c0.311-0.257,0.62-0.512,0.928-0.766
		c1.233-1.029,2.439-2.035,3.614-3.015c1.163-1,2.204-2.06,3.261-3.052c1.044-1.003,2.074-1.964,2.957-2.972
		c1.81-1.983,3.527-3.793,4.853-5.537c0.833-1.054,1.612-2.009,2.301-2.9l0.879,0.45c1.01,0.517,2.088,0.762,3.151,0.762
		c2.516,0,4.944-1.377,6.17-3.771C335.819,70.305,334.473,66.132,331.068,64.388z M242.611,55.829
		c12.253,0,22.222,9.969,22.222,22.222c0,12.255-9.969,22.223-22.222,22.223c-12.254,0-22.223-9.969-22.223-22.223
		C220.388,65.797,230.356,55.829,242.611,55.829z"/>
</g>
<g id="Layer_7">
	<path fill="#374954" d="M180.42,420.027v56.881c0,1.988-1.612,3.6-3.6,3.6h-29.299c-1.988,0-3.6-1.612-3.6-3.6v-56.881
		c0-10.079,8.171-18.25,18.25-18.25S180.42,409.948,180.42,420.027z M222.378,401.777c-10.079,0-18.25,8.171-18.25,18.25v56.881
		c0,1.988,1.612,3.6,3.6,3.6h29.299c1.988,0,3.6-1.612,3.6-3.6v-56.881C240.628,409.948,232.457,401.777,222.378,401.777z
		 M282.585,401.777c-10.079,0-18.25,8.171-18.25,18.25v56.881c0,1.988,1.612,3.6,3.6,3.6h29.299c1.988,0,3.6-1.612,3.6-3.6v-56.881
		C300.835,409.948,292.664,401.777,282.585,401.777z M342.793,401.777c-10.079,0-18.25,8.171-18.25,18.25v56.881
		c0,1.988,1.612,3.6,3.6,3.6h29.299c1.988,0,3.6-1.612,3.6-3.6v-56.881C361.042,409.948,352.872,401.777,342.793,401.777z
		 M170.437,212.626c-13.669,0-24.749,11.081-24.749,24.749v55.844c0,1.988,1.612,3.6,3.6,3.6h42.299c1.988,0,3.6-1.612,3.6-3.6
		v-55.844C195.187,223.707,184.106,212.626,170.437,212.626z M253.365,174.871c-13.669,0-24.749,11.081-24.749,24.749v93.598
		c0,1.988,1.612,3.6,3.6,3.6h42.299c1.988,0,3.6-1.612,3.6-3.6V199.62C278.114,185.952,267.034,174.871,253.365,174.871z
		 M336.293,212.626c-13.669,0-24.749,11.081-24.749,24.749v55.844c0,1.988,1.612,3.6,3.6,3.6h42.299c1.988,0,3.6-1.612,3.6-3.6
		v-55.844C361.042,223.707,349.962,212.626,336.293,212.626z"/>
</g>
<g id="Layer_8">
	<path fill="#D19B61" d="M181.211,483.684h-38.08c-1.549,0-2.805-1.256-2.805-2.805v-7.625c0-1.549,1.256-2.805,2.805-2.805h38.08
		c1.549,0,2.805,1.256,2.805,2.805v7.625C184.016,482.428,182.76,483.684,181.211,483.684z M244.223,480.879v-7.625
		c0-1.549-1.256-2.805-2.805-2.805h-38.08c-1.549,0-2.805,1.256-2.805,2.805v7.625c0,1.549,1.256,2.805,2.805,2.805h38.08
		C242.967,483.684,244.223,482.428,244.223,480.879z M304.431,480.879v-7.625c0-1.549-1.256-2.805-2.805-2.805h-38.08
		c-1.549,0-2.805,1.256-2.805,2.805v7.625c0,1.549,1.256,2.805,2.805,2.805h38.08C303.175,483.684,304.431,482.428,304.431,480.879z
		 M364.638,480.879v-7.625c0-1.549-1.256-2.805-2.805-2.805h-38.08c-1.549,0-2.805,1.256-2.805,2.805v7.625
		c0,1.549,1.256,2.805,2.805,2.805h38.08C363.382,483.684,364.638,482.428,364.638,480.879z M407.873,360.249v-17.065
		c0-3.897-3.86-7.055-8.622-7.055H107.479c-4.762,0-8.622,3.159-8.622,7.055v17.065c0,3.897,3.86,7.055,8.622,7.055h291.773
		C404.013,367.304,407.873,364.145,407.873,360.249z M282.585,302.866v-12.094c0-1.549-1.256-2.805-2.805-2.805h-52.83
		c-1.549,0-2.805,1.256-2.805,2.805v12.094c0,1.549,1.256,2.805,2.805,2.805h52.83C281.329,305.671,282.585,304.415,282.585,302.866
		z M365.513,302.866v-12.094c0-1.549-1.256-2.805-2.805-2.805h-52.83c-1.549,0-2.805,1.256-2.805,2.805v12.094
		c0,1.549,1.256,2.805,2.805,2.805h52.83C364.257,305.671,365.513,304.415,365.513,302.866z M199.657,302.866v-12.094
		c0-1.549-1.256-2.805-2.805-2.805h-52.83c-1.549,0-2.805,1.256-2.805,2.805v12.094c0,1.549,1.256,2.805,2.805,2.805h52.83
		C198.401,305.671,199.657,304.415,199.657,302.866z"/>
</g>
</svg>
