<svg xmlns="http://www.w3.org/2000/svg" viewBox="0 0 512 512" enable-background="new 0 0 512 512"><path fill="#C2CDCE" d="M494.022 448.357c0-32.81-26.6-59.41-59.41-59.41-27.64 0-50.87 18.878-57.506 44.443-5.685-3.9-12.563-6.184-19.977-6.184-19.538 0-35.375 15.836-35.375 35.372 0 2.73.32 5.384.905 7.937-2.623-.647-5.364-.997-8.187-.997-.755 0-1.502.033-2.245.082-5.298-2.455-11.196-3.835-17.42-3.835-16.972 0-31.556 10.2-37.977 24.8-6.41-9.028-16.94-14.926-28.854-14.926-12.862 0-24.118 6.863-30.31 17.13-7.564-5.886-17.065-9.4-27.39-9.4 0-32.81-26.6-59.41-59.41-59.41-27.642 0-50.872 18.88-57.507 44.443-5.686-3.9-12.564-6.184-19.978-6.184-9.1 0-17.397 3.44-23.665 9.09v18.306c0 6.6 5.4 12 12 12H488.95c6.6 0 12-5.4 12-12v-40.723c-2.258-.35-4.57-.537-6.928-.537z"/></svg>