<?xml version="1.0" encoding="iso-8859-1"?>
<!-- Generator: Adobe Illustrator 18.1.1, SVG Export Plug-In . SVG Version: 6.00 Build 0)  -->
<!DOCTYPE svg PUBLIC "-//W3C//DTD SVG 1.1//EN" "http://www.w3.org/Graphics/SVG/1.1/DTD/svg11.dtd">
<svg version="1.1" xmlns="http://www.w3.org/2000/svg" xmlns:xlink="http://www.w3.org/1999/xlink" x="0px" y="0px"
	 viewBox="0 0 512 512" enable-background="new 0 0 512 512" xml:space="preserve">
<g id="Layer_2">
	<path fill="#16992B" d="M114.881,85.514c0,0,0.084-0.294,0.246-0.863c0.163-0.568,0.394-1.43,0.75-2.462
		c0.189-0.525,0.329-1.111,0.614-1.756c0.307-0.64,0.642-1.338,1.004-2.093c0.37-0.759,0.793-1.6,1.269-2.414
		c0.462-0.807,0.954-1.664,1.473-2.57c1.056-1.85,2.362-3.665,3.841-5.71c0.754-0.964,1.555-1.969,2.409-3.004
		c0.863-1.025,1.767-2.036,2.736-3.069c3.862-4.122,8.615-8.292,14.098-12.132c5.479-3.846,11.676-7.361,18.321-10.345
		c6.642-3.019,13.736-5.464,20.99-7.339c7.257-1.872,14.712-3.174,22.107-3.934c7.395-0.782,14.785-0.962,21.945-0.884
		c7.173,0.08,14.156,0.493,20.801,1.115c6.667,0.636,12.964,1.462,18.865,2.422c2.916,0.465,5.769,0.948,8.462,1.477
		c0.669,0.121,1.334,0.242,1.995,0.362c0.65,0.11,1.337,0.279,1.959,0.392c0.639,0.125,1.274,0.25,1.905,0.374
		c0.631,0.115,1.225,0.239,1.844,0.374c2.36,0.499,4.656,0.984,6.877,1.453c2.086,0.459,4.101,0.902,6.035,1.328
		c3.779,0.825,6.978,1.531,10.113,1.806c3.106,0.288,6.102-0.057,8.847-0.912c1.335-0.429,2.568-0.981,3.699-1.516
		c1.035-0.587,2.063-1.126,2.835-1.626c1.61-1.082,2.469-1.66,2.469-1.66l0.576-0.387c2.484-1.67,5.852-1.01,7.522,1.474
		c0.151,0.225,0.296,0.486,0.409,0.723c0,0,0.511,1.091,1.226,3.306c0.608,2.2,1.446,5.621,1.163,10.256
		c-0.096,2.325-0.465,4.966-1.262,7.794c-0.364,1.449-0.93,2.837-1.496,4.379c-0.621,1.471-1.347,2.988-2.162,4.528
		c-1.675,3.016-3.781,6.069-6.248,8.962c-0.625,0.749-1.257,1.395-1.917,2.112c-0.657,0.699-1.343,1.433-2.026,2.087
		c-0.708,0.659-1.423,1.326-2.147,2.001c-0.732,0.633-1.472,1.272-2.22,1.919c-0.768,0.649-1.54,1.245-2.317,1.835
		c-0.778,0.589-1.59,1.216-2.388,1.789c-1.598,1.12-3.283,2.246-4.948,3.285c-1.706,1.086-3.393,2-5.157,3.003
		c-1.708,0.933-3.526,1.839-5.281,2.684c-7.151,3.404-14.516,6.1-21.955,8.241c-7.402,2.121-14.887,3.711-22.23,4.872
		c-7.365,1.163-14.621,1.92-21.687,2.373c-7.078,0.445-13.927,0.675-20.54,0.496c-6.614-0.166-12.934-0.626-18.981-1.351
		c-6.05-0.735-11.783-1.669-17.233-2.79c-5.447-1.093-10.608-2.325-15.489-3.568c-4.879-1.243-9.486-2.491-13.772-3.628
		c-2.202-0.581-4.263-1.124-6.168-1.626c-2.013-0.508-3.862-0.974-5.532-1.395c-0.878-0.216-1.709-0.421-2.491-0.614
		c-0.754-0.173-1.467-0.379-2.163-0.565c-0.702-0.178-1.351-0.342-1.946-0.493c-0.615-0.154-1.261-0.238-1.794-0.343
		c-1.078-0.177-1.946-0.383-2.523-0.51c-0.578-0.127-0.877-0.193-0.877-0.193c-3.221-0.709-5.257-3.895-4.548-7.115
		C114.816,85.755,114.85,85.625,114.881,85.514z"/>
</g>
<g id="Layer_1">
</g>
</svg>
