<?xml version="1.0" encoding="iso-8859-1"?>
<!-- Generator: Adobe Illustrator 19.1.0, SVG Export Plug-In . SVG Version: 6.00 Build 0)  -->
<!DOCTYPE svg PUBLIC "-//W3C//DTD SVG 1.1//EN" "http://www.w3.org/Graphics/SVG/1.1/DTD/svg11.dtd">
<svg version="1.1" xmlns="http://www.w3.org/2000/svg" xmlns:xlink="http://www.w3.org/1999/xlink" x="0px" y="0px"
	 viewBox="0 0 509.04 509.04" enable-background="new 0 0 509.04 509.04" xml:space="preserve">
<g id="Layer_18">
	<path fill="#597B91" d="M492.763,344.809H370.462c-1.996,0-3.614-1.618-3.614-3.614v-8.741c0-1.996,1.618-3.614,3.614-3.614
		h122.301c1.996,0,3.614,1.618,3.614,3.614v8.741C496.377,343.191,494.759,344.809,492.763,344.809z M496.377,412.776v-8.741
		c0-1.996-1.618-3.614-3.614-3.614H370.462c-1.996,0-3.614,1.618-3.614,3.614v8.741c0,1.996,1.618,3.614,3.614,3.614h122.301
		C494.759,416.39,496.377,414.772,496.377,412.776z"/>
</g>
<g id="Layer_1">
</g>
</svg>
