<?xml version="1.0" encoding="iso-8859-1"?>
<!-- Generator: Adobe Illustrator 18.1.1, SVG Export Plug-In . SVG Version: 6.00 Build 0)  -->
<!DOCTYPE svg PUBLIC "-//W3C//DTD SVG 1.1//EN" "http://www.w3.org/Graphics/SVG/1.1/DTD/svg11.dtd">
<svg version="1.1" xmlns="http://www.w3.org/2000/svg" xmlns:xlink="http://www.w3.org/1999/xlink" x="0px" y="0px"
	 viewBox="0 0 512 512" enable-background="new 0 0 512 512" xml:space="preserve">
<g id="Layer_4">
	<path fill="#445056" d="M369.574,263.102l-65.405-65.405c-14.708-14.708-38.86-13.654-52.23,2.279L119.667,357.601
		c-4.382,5.221-7.165,11.595-8.018,18.358l-5.776,45.829c-0.765,6.069,0.049,11.892,2.065,17.131l-47.44,47.44
		c-5.637,5.637-5.637,14.777,0,20.414v0c5.637,5.637,14.777,5.637,20.414,0l47.44-47.44c5.239,2.017,11.063,2.831,17.132,2.066
		l45.829-5.776c6.763-0.852,13.136-3.636,18.358-8.017l157.624-132.272C383.228,301.962,384.282,277.81,369.574,263.102z"/>
</g>
<g id="Layer_1">
</g>
</svg>
