<?xml version="1.0" encoding="iso-8859-1"?>
<!-- Generator: Adobe Illustrator 18.1.1, SVG Export Plug-In . SVG Version: 6.00 Build 0)  -->
<!DOCTYPE svg PUBLIC "-//W3C//DTD SVG 1.1//EN" "http://www.w3.org/Graphics/SVG/1.1/DTD/svg11.dtd">
<svg version="1.1" xmlns="http://www.w3.org/2000/svg" xmlns:xlink="http://www.w3.org/1999/xlink" x="0px" y="0px"
	 viewBox="0 0 512 512" enable-background="new 0 0 512 512" xml:space="preserve">
<g id="Layer_4">
	<path fill="#EA963B" d="M239.624,321.362c-0.152,0-0.303-0.003-0.456-0.009c-5.982-0.248-10.631-5.298-10.383-11.28l7.474-180.577
		c0.248-5.982,5.319-10.624,11.28-10.383c5.982,0.248,10.631,5.298,10.384,11.28l-7.474,180.577
		C250.207,316.799,245.404,321.362,239.624,321.362z M131.27,321.354c5.982-0.248,10.631-5.298,10.383-11.28l-7.474-180.577
		c-0.248-5.982-5.312-10.636-11.28-10.383c-5.982,0.248-10.631,5.298-10.383,11.28l7.474,180.577
		c0.241,5.83,5.043,10.393,10.824,10.393C130.965,321.362,131.118,321.359,131.27,321.354z M194.68,310.521V126.224
		c0-5.987-4.854-10.841-10.841-10.841s-10.841,4.854-10.841,10.841v184.297c0,5.987,4.854,10.841,10.841,10.841
		S194.68,316.509,194.68,310.521z"/>
</g>
<g id="Layer_1">
</g>
</svg>
