<?xml version="1.0" encoding="iso-8859-1"?>
<!-- Generator: Adobe Illustrator 18.1.1, SVG Export Plug-In . SVG Version: 6.00 Build 0)  -->
<!DOCTYPE svg PUBLIC "-//W3C//DTD SVG 1.1//EN" "http://www.w3.org/Graphics/SVG/1.1/DTD/svg11.dtd">
<svg version="1.1" xmlns="http://www.w3.org/2000/svg" xmlns:xlink="http://www.w3.org/1999/xlink" x="0px" y="0px"
	 viewBox="0 0 512 512" enable-background="new 0 0 512 512" xml:space="preserve">
<g id="Layer_9">
	<path fill="#FFBD03" d="M115.415,51.328c0,0-0.091-0.742-0.063-2.027c0.006-0.16,0.012-0.329,0.019-0.507
		c0.048-0.417,0.107-0.912,0.185-1.396c0.157-0.981,0.342-2.047,0.615-3.165c0.131-0.543,0.284-1.169,0.438-1.682
		c0.144-0.422,0.31-0.852,0.476-1.293c0.33-0.883,0.708-1.8,1.13-2.739c0.418-0.84,0.895-1.662,1.393-2.521
		c0.248-0.413,0.506-0.894,0.771-1.258c0.262-0.362,0.528-0.729,0.797-1.101c0.269-0.371,0.544-0.745,0.836-1.113l0.434-0.55
		l0.412-0.467c0.544-0.632,1.146-1.243,1.734-1.873c0.536-0.531,1.125-1.039,1.701-1.565l0.436-0.393
		c0.133-0.116,0.269-0.222,0.408-0.331l0.834-0.656l0.845-0.662l0.798-0.57l1.588-1.132c1.003-0.694,2.005-1.388,2.992-2.07
		c1.024-0.692,1.845-1.369,2.829-2.086c0.438-0.375,0.869-0.744,1.291-1.105c0.437-0.372,0.919-0.736,1.28-1.137
		c0.407-0.403,0.802-0.796,1.185-1.175c0.386-0.393,0.813-0.773,1.123-1.18c0.717-0.835,1.375-1.601,1.958-2.279
		c0.562-0.755,1.053-1.413,1.457-1.955c0.841-1.125,1.386-1.819,1.386-1.819l0.257-0.327c1.254-1.599,3.567-1.878,5.167-0.624
		c0.344,0.27,0.634,0.601,0.853,0.951c0,0,0.48,0.771,1.207,2.211c0.333,0.72,0.814,1.612,1.216,2.667
		c0.347,1.057,0.762,2.286,1.142,3.669c0.393,1.382,0.561,2.909,0.805,4.584c0.202,1.667,0.184,3.428,0.181,5.314
		c-0.049,0.915-0.145,1.842-0.234,2.801c-0.049,0.477-0.091,0.967-0.154,1.448c-0.081,0.465-0.162,0.932-0.244,1.401
		c-0.175,0.93-0.33,1.932-0.557,2.846c-0.229,0.911-0.46,1.825-0.69,2.739c-0.247,0.93-0.501,1.715-0.756,2.583l-0.385,1.269
		l-0.368,1.142c-0.241,0.734-0.48,1.462-0.716,2.181c-0.214,0.648-0.405,1.301-0.636,1.911c-0.152,0.528-0.278,1.056-0.447,1.54
		l-0.119,0.364c-0.027,0.108-0.035,0.197-0.054,0.295c-0.029,0.193-0.071,0.374-0.115,0.55c-0.043,0.175-0.086,0.347-0.129,0.517
		c-0.036,0.168-0.009,0.247-0.024,0.365c-0.007,0.214-0.034,0.422-0.071,0.582c0.054,0.098,0.08,0.175,0.075,0.237
		c-0.001,0.031,0.001,0.062-0.013,0.088c0.028-0.055,0.1-0.226,0.131-0.334c0.083-0.245,0.09-0.493,0.083-0.718
		c-0.002-0.106-0.026-0.239-0.048-0.309c-0.019,0.176-0.037,0.344-0.054,0.504c-0.158,1.275-0.355,1.996-0.355,1.996
		c-2.689,9.863-12.866,15.679-22.729,12.99c-7.469-2.037-12.617-8.366-13.508-15.601L115.415,51.328z M355.624,51.354
		c0.892,7.236,6.04,13.565,13.508,15.601c9.863,2.689,20.04-3.126,22.729-12.99c0,0,0.197-0.721,0.355-1.996
		c0.017-0.16,0.035-0.328,0.054-0.504c0.022,0.07,0.046,0.203,0.048,0.309c0.007,0.225,0,0.474-0.083,0.718
		c-0.031,0.108-0.104,0.278-0.131,0.334c0.014-0.025,0.012-0.056,0.013-0.088c0.005-0.062-0.021-0.138-0.075-0.237
		c0.037-0.16,0.065-0.369,0.071-0.582c0.016-0.118-0.012-0.197,0.024-0.365c0.042-0.17,0.085-0.342,0.129-0.517
		c0.044-0.176,0.086-0.357,0.115-0.55c0.019-0.098,0.027-0.187,0.054-0.295l0.119-0.364c0.169-0.484,0.295-1.012,0.447-1.54
		c0.231-0.61,0.423-1.262,0.636-1.911c0.236-0.719,0.475-1.447,0.716-2.181l0.368-1.142l0.385-1.269
		c0.256-0.868,0.51-1.654,0.757-2.583c0.23-0.914,0.46-1.829,0.69-2.739c0.227-0.914,0.382-1.916,0.557-2.846
		c0.082-0.469,0.163-0.936,0.244-1.401c0.062-0.481,0.105-0.972,0.154-1.448c0.088-0.959,0.185-1.887,0.234-2.801
		c0.003-1.885,0.021-3.646-0.181-5.314c-0.244-1.674-0.412-3.201-0.805-4.584c-0.379-1.383-0.795-2.613-1.142-3.669
		c-0.402-1.055-0.883-1.947-1.216-2.667c-0.727-1.44-1.207-2.211-1.207-2.211c-0.22-0.35-0.509-0.682-0.853-0.951
		c-1.599-1.254-3.912-0.975-5.167,0.624l-0.257,0.327c0,0-0.545,0.694-1.386,1.819c-0.404,0.542-0.894,1.2-1.457,1.955
		c-0.583,0.679-1.241,1.444-1.958,2.279c-0.31,0.407-0.737,0.788-1.123,1.18c-0.383,0.379-0.778,0.772-1.185,1.175
		c-0.361,0.401-0.843,0.766-1.28,1.137c-0.422,0.361-0.853,0.73-1.291,1.105c-0.984,0.717-1.805,1.394-2.829,2.086
		c-0.987,0.683-1.989,1.377-2.992,2.07l-1.588,1.132l-0.798,0.57l-0.846,0.662l-0.834,0.656c-0.139,0.109-0.276,0.215-0.408,0.331
		l-0.436,0.393c-0.576,0.526-1.165,1.033-1.701,1.565c-0.589,0.63-1.191,1.242-1.734,1.873l-0.412,0.467l-0.434,0.55
		c-0.292,0.368-0.567,0.742-0.836,1.113c-0.269,0.372-0.535,0.739-0.797,1.101c-0.266,0.365-0.523,0.845-0.771,1.258
		c-0.499,0.859-0.975,1.681-1.393,2.521c-0.421,0.939-0.8,1.856-1.13,2.739c-0.166,0.441-0.332,0.871-0.476,1.293
		c-0.154,0.512-0.306,1.138-0.438,1.682c-0.273,1.118-0.458,2.184-0.615,3.165c-0.079,0.484-0.138,0.979-0.185,1.396
		c-0.007,0.177-0.013,0.346-0.019,0.507c-0.027,1.285,0.063,2.027,0.063,2.027L355.624,51.354z"/>
</g>
<g id="Layer_1">
</g>
</svg>
