<?xml version="1.0" encoding="iso-8859-1"?>
<!-- Generator: Adobe Illustrator 18.1.0, SVG Export Plug-In . SVG Version: 6.00 Build 0)  -->
<!DOCTYPE svg PUBLIC "-//W3C//DTD SVG 1.1//EN" "http://www.w3.org/Graphics/SVG/1.1/DTD/svg11.dtd">
<svg version="1.1" xmlns="http://www.w3.org/2000/svg" xmlns:xlink="http://www.w3.org/1999/xlink" x="0px" y="0px"
	 viewBox="0 0 512 512" enable-background="new 0 0 512 512" xml:space="preserve">
<g id="Layer_2">
	<path fill="#8E6049" d="M374.151,335.414c-3.728-1.414-7.902,0.461-9.318,4.191c-5.635,14.846-12.63,30.639-22.121,43.788
		c-0.846-6.772-2.461-13.479-3.758-18.857c-0.493-2.044-0.959-3.976-1.107-4.89c-0.64-3.938-4.355-6.608-8.29-5.974
		c-3.939,0.641-6.613,4.352-5.974,8.29c0.236,1.455,0.717,3.443,1.323,5.962c1.316,5.456,3.306,13.702,3.795,20.948
		c0.526,7.777-0.932,10.873-1.876,11.477c-0.46,0.294-0.871,0.634-1.24,1.006c-8.395,6.348-18.204,10.626-29.778,11.723V302.972
		c0-16.123-13.073-29.211-29.203-29.211s-29.203,13.088-29.203,29.211v192.936c0,16.123,58.406,16.123,58.406,0V427.58
		c15.846-1.192,28.914-7.106,39.773-15.74c0.276-0.206,0.54-0.422,0.799-0.642c20.858-17.01,33.459-44.055,41.964-66.465
		C379.759,341.002,377.882,336.83,374.151,335.414z"/>
</g>
<g id="Layer_3">
	<path fill="#2BA52E" d="M425.834,166.186c-3.365-3.365-6.962-6.352-10.723-9.004c2.662-1.997,5.222-4.194,7.643-6.615
		c27.648-27.648,27.648-72.473,0-100.121c-27.528-27.528-72.078-27.637-99.754-0.349c-2.219-10.262-7.301-20.029-15.276-28.004
		c-22.101-22.101-57.934-22.101-80.036,0c-3.167,3.167-5.864,6.622-8.123,10.272c-28.698-14.07-64.337-9.195-88.199,14.667
		c-27.576,27.576-29.802,70.878-6.721,101.019c-16.384,2.038-32.241,9.325-44.82,21.905c-30.023,30.023-30.023,78.699,0,108.721
		c15.196,15.196,35.171,22.687,55.087,22.5c-3.492,15.27,0.698,31.942,12.592,43.836c18.389,18.389,48.203,18.389,66.592,0
		c2.557-2.557,4.745-5.34,6.59-8.277c0.277,0.286,0.539,0.582,0.822,0.865c29.47,29.47,77.249,29.47,106.719,0
		c10.028-10.028,16.635-22.178,19.838-35.003c26.93,6.874,56.689-0.212,77.768-21.29
		C457.624,249.517,457.624,197.975,425.834,166.186z"/>
</g>
<g id="Layer_4">
	<path fill="#8E6049" d="M254.365,411.485c-1.01,0-2.037-0.213-3.015-0.662c-34.656-15.938-80.328-43.021-76.842-93.966
		c0.272-3.981,3.722-6.987,7.701-6.715c3.981,0.272,6.987,3.72,6.715,7.701c-2.843,41.56,35.095,64.505,68.464,79.851
		c3.626,1.668,5.213,5.958,3.546,9.583C259.716,409.925,257.1,411.485,254.365,411.485z"/>
</g>
</svg>
