<?xml version="1.0" encoding="iso-8859-1"?>
<!-- Generator: Adobe Illustrator 18.1.1, SVG Export Plug-In . SVG Version: 6.00 Build 0)  -->
<!DOCTYPE svg PUBLIC "-//W3C//DTD SVG 1.1//EN" "http://www.w3.org/Graphics/SVG/1.1/DTD/svg11.dtd">
<svg version="1.1" xmlns="http://www.w3.org/2000/svg" xmlns:xlink="http://www.w3.org/1999/xlink" x="0px" y="0px"
	 viewBox="0 0 512 512" enable-background="new 0 0 512 512" xml:space="preserve">
<g id="Layer_4">
	<path fill="#EDE6D9" d="M145.811,330.724c-23.49,0-45.522-2.351-62.036-6.62c-18.06-4.669-22.831-9.911-22.831-12.03
		c0-2.12,4.771-7.362,22.831-12.03c16.515-4.269,38.547-6.621,62.036-6.621c23.491,0,45.523,2.351,62.037,6.621
		c18.06,4.668,22.831,9.91,22.831,12.03c0,2.119-4.771,7.361-22.831,12.03C191.332,328.373,169.3,330.724,145.811,330.724z
		 M434.376,43.862c21.975-5.681,27.781-12.06,27.781-14.638c0-2.58-5.806-8.959-27.781-14.64
		c-20.095-5.194-46.903-8.055-75.486-8.055c-28.583,0-55.391,2.861-75.488,8.055c-21.975,5.681-27.781,12.06-27.781,14.64
		c0,2.578,5.806,8.958,27.781,14.638c20.096,5.195,46.904,8.055,75.488,8.055C387.472,51.917,414.281,49.057,434.376,43.862z"/>
</g>
<g id="Layer_1">
</g>
</svg>
