<?xml version="1.0" encoding="iso-8859-1"?>
<!-- Generator: Adobe Illustrator 18.1.1, SVG Export Plug-In . SVG Version: 6.00 Build 0)  -->
<!DOCTYPE svg PUBLIC "-//W3C//DTD SVG 1.1//EN" "http://www.w3.org/Graphics/SVG/1.1/DTD/svg11.dtd">
<svg version="1.1" xmlns="http://www.w3.org/2000/svg" xmlns:xlink="http://www.w3.org/1999/xlink" x="0px" y="0px"
	 viewBox="0 0 512 512" enable-background="new 0 0 512 512" xml:space="preserve">
<g id="Layer_16">
	<path fill="#E5AB83" d="M205.844,63.677c0,0,0.165-0.069,0.453-0.19c0.284-0.116,0.686-0.27,1.173-0.441
		c0.486-0.172,1.061-0.355,1.683-0.532c0.627-0.169,1.298-0.34,1.993-0.46c0.688-0.133,1.402-0.212,2.085-0.239
		c0.335-0.029,0.683,0.002,1.001,0.007c0.316,0.001,0.639,0.072,0.922,0.104c0.283,0.027,0.56,0.134,0.793,0.19
		c0.236,0.055,0.441,0.144,0.609,0.227c0.333,0.158,0.523,0.249,0.523,0.249c0.552,0.263,0.787,0.924,0.524,1.476
		c-0.244,0.513-0.833,0.752-1.358,0.572l-0.24-0.082c0,0-0.11-0.037-0.301-0.103c-0.091-0.038-0.205-0.082-0.363-0.099
		c-0.156-0.017-0.304-0.079-0.512-0.076c-0.204,0-0.406-0.039-0.651-0.016c-0.242,0.021-0.487,0.011-0.759,0.061
		c-0.534,0.067-1.114,0.178-1.695,0.343c-0.581,0.15-1.16,0.351-1.7,0.546c-0.539,0.204-1.038,0.409-1.459,0.6
		c-0.422,0.189-0.769,0.357-1.004,0.476c-0.229,0.119-0.36,0.187-0.36,0.187l-0.036,0.019c-0.763,0.397-1.704,0.101-2.101-0.662
		c-0.397-0.763-0.101-1.704,0.662-2.101C205.764,63.713,205.805,63.694,205.844,63.677z"/>
</g>
<g id="Layer_1">
</g>
</svg>
