<?xml version="1.0" encoding="iso-8859-1"?>
<!-- Generator: Adobe Illustrator 18.1.1, SVG Export Plug-In . SVG Version: 6.00 Build 0)  -->
<!DOCTYPE svg PUBLIC "-//W3C//DTD SVG 1.1//EN" "http://www.w3.org/Graphics/SVG/1.1/DTD/svg11.dtd">
<svg version="1.1" xmlns="http://www.w3.org/2000/svg" xmlns:xlink="http://www.w3.org/1999/xlink" x="0px" y="0px"
	 viewBox="0 0 512 512" enable-background="new 0 0 512 512" xml:space="preserve">
<g id="Layer_2">
	<path fill="#E5E4DF" d="M363.12,263.976c0-2.856-0.16-5.674-0.456-8.452c-5.147-80.467-46.907-70.237-46.907-109.286
		c0-41.268,20.049-38.746,20.049-96.185c0-25.172-20.406-45.578-45.578-45.578s-45.578,20.406-45.578,45.578
		c0,57.439,20.049,54.916,20.049,96.185c0,39.049-41.759,28.82-46.907,109.286c-0.296,2.778-0.456,5.596-0.456,8.452
		c0,0.545,0.03,1.083,0.041,1.625c-0.027,1.483-0.041,2.991-0.041,4.529c0,42.054,22.632,135.392,39.1,135.392s51.114,0,67.582,0
		s39.1-93.338,39.1-135.392c0-1.538-0.014-3.047-0.041-4.529C363.09,265.058,363.12,264.521,363.12,263.976z"/>
</g>
<g id="Layer_3">
	<path fill="#FF473E" d="M241.244,187.562c8.448-9.904,16.848-16.244,20.919-26.668h56.132
		c4.071,10.424,12.471,16.764,20.919,26.668H241.244z M258.092,112.173c3.04,7.349,5.604,15.101,6.372,26.668h51.529
		c0.768-11.567,3.332-19.319,6.372-26.668H258.092z"/>
</g>
<g id="Layer_4">
	<circle fill="#597B91" cx="206.952" cy="338.47" r="168.807"/>
</g>
<g id="Layer_5">
	<path fill="#2B3B47" d="M138.686,308.097c5.567,15.064-2.131,31.788-17.195,37.356s-31.788-2.131-37.356-17.195
		c-5.567-15.064,2.131-31.788,17.195-37.356C116.394,285.335,133.119,293.033,138.686,308.097z M187.778,258.953
		c-15.064,5.567-22.762,22.292-17.195,37.356c5.567,15.064,22.292,22.762,37.356,17.195c15.064-5.567,22.762-22.292,17.195-37.356
		C219.566,261.085,202.842,253.386,187.778,258.953z M172.322,344.518c-15.064,5.567-22.762,22.292-17.195,37.356
		c5.567,15.064,22.292,22.762,37.356,17.195c15.064-5.567,22.762-22.292,17.195-37.356
		C204.111,346.649,187.386,338.95,172.322,344.518z"/>
</g>
<g id="Layer_6">
	<path fill="#E5E4DF" d="M474.735,365.731c0-2.856-0.16-5.674-0.456-8.452c-5.147-80.467-46.907-70.237-46.907-109.286
		c0-41.268,20.049-38.746,20.049-96.185c0-25.172-20.406-45.578-45.578-45.578s-45.578,20.406-45.578,45.578
		c0,57.439,20.049,54.916,20.049,96.185c0,39.049-41.759,28.82-46.907,109.286c-0.296,2.778-0.456,5.596-0.456,8.452
		c0,0.545,0.03,1.083,0.041,1.625c-0.027,1.483-0.041,2.991-0.041,4.529c0,42.054,22.632,135.392,39.1,135.392s51.114,0,67.582,0
		s39.1-93.338,39.1-135.392c0-1.538-0.014-3.047-0.041-4.529C474.704,366.814,474.735,366.276,474.735,365.731z"/>
</g>
<g id="Layer_7">
	<path fill="#FF473E" d="M450.829,289.317c-8.448-9.904-16.848-16.244-20.919-26.668h-56.132
		c-4.072,10.424-12.471,16.764-20.919,26.668H450.829z M369.706,213.928c3.04,7.349,5.604,15.101,6.372,26.668h51.529
		c0.768-11.567,3.332-19.319,6.372-26.668H369.706z"/>
</g>
</svg>
