<?xml version="1.0" encoding="iso-8859-1"?>
<!-- Generator: Adobe Illustrator 19.1.0, SVG Export Plug-In . SVG Version: 6.00 Build 0)  -->
<!DOCTYPE svg PUBLIC "-//W3C//DTD SVG 1.1//EN" "http://www.w3.org/Graphics/SVG/1.1/DTD/svg11.dtd">
<svg version="1.1" xmlns="http://www.w3.org/2000/svg" xmlns:xlink="http://www.w3.org/1999/xlink" x="0px" y="0px"
	 viewBox="0 0 512 512" enable-background="new 0 0 512 512" xml:space="preserve">
<g id="Layer_2">
	
		<ellipse transform="matrix(0.9971 -0.0757 0.0757 0.9971 -21.5277 20.3606)" fill="#FFA52E" cx="257.836" cy="294.176" rx="233.768" ry="214.658"/>
</g>
<g id="Layer_3">
	<path fill="#75432E" d="M254.094,97.848c0,0,0.009-1.419,0.024-3.903c0.004-0.31,0.008-0.637,0.012-0.979
		c0.012-0.344,0.029-0.713-0.029-0.997c-0.076-0.605-0.158-1.26-0.246-1.96c-0.083-0.676-0.172-1.396-0.265-2.155
		c-0.155-0.819-0.318-1.68-0.488-2.578c-0.263-1.767-0.854-3.664-1.338-5.609c-0.205-0.972-0.623-1.96-0.956-2.955
		c-0.173-0.494-0.348-0.993-0.525-1.497c-0.162-0.502-0.354-1.002-0.585-1.501c-0.424-0.986-0.855-1.989-1.291-3.004
		c-0.43-1.001-1.026-1.971-1.522-2.951c-0.256-0.485-0.512-0.972-0.77-1.461l-0.893-1.412c-0.604-0.932-1.114-1.889-1.763-2.775
		c-0.646-0.871-1.291-1.742-1.934-2.61c-0.294-0.439-0.665-0.834-1.019-1.231l-1.044-1.182c-0.332-0.392-0.664-0.782-0.993-1.171
		c-0.344-0.375-0.726-0.717-1.078-1.072c-0.721-0.697-1.392-1.399-2.082-2.049c-0.73-0.6-1.449-1.19-2.152-1.768
		c-0.352-0.279-0.662-0.588-1.026-0.832c-0.361-0.242-0.719-0.482-1.071-0.718c-0.7-0.468-1.317-0.967-1.929-1.427
		c-0.673-0.388-1.3-0.772-1.852-1.187c-1.113-0.831-2.17-1.487-3.079-2.098c-0.446-0.317-0.836-0.649-1.207-0.943
		c-0.404-0.242-0.751-0.496-1.067-0.724c-0.64-0.443-1.097-0.868-1.411-1.16c-0.305-0.309-0.468-0.473-0.468-0.473l-4.392-4.437
		c-6.411-6.477-6.358-16.924,0.119-23.335c5.844-5.784,14.921-6.302,21.349-1.592c0,0,0.337,0.247,0.969,0.709
		c0.638,0.448,1.575,1.105,2.767,1.941c0.594,0.418,1.248,0.886,1.974,1.371c0.686,0.539,1.428,1.123,2.221,1.746
		c0.788,0.628,1.627,1.297,2.511,2.002c0.891,0.697,1.737,1.524,2.667,2.342c0.923,0.827,1.885,1.688,2.88,2.579
		c0.928,0.956,1.887,1.944,2.873,2.96c0.497,0.508,1.001,1.023,1.511,1.544c0.508,0.524,0.951,1.107,1.438,1.671
		c0.952,1.148,1.924,2.32,2.912,3.512c0.922,1.238,1.808,2.535,2.727,3.84c0.45,0.657,0.928,1.307,1.36,1.987
		c0.41,0.692,0.822,1.388,1.236,2.087c0.411,0.703,0.824,1.408,1.238,2.115c0.414,0.709,0.839,1.417,1.181,2.164
		c0.72,1.485,1.442,2.975,2.164,4.466c0.705,1.502,1.25,3.068,1.871,4.605c0.301,0.773,0.602,1.544,0.902,2.313
		c0.251,0.787,0.501,1.571,0.75,2.352c0.473,1.572,1.029,3.117,1.403,4.69c0.364,1.581,0.723,3.143,1.077,4.68
		c0.191,0.768,0.324,1.541,0.43,2.314c0.115,0.772,0.229,1.536,0.342,2.292c0.205,1.517,0.483,2.996,0.54,4.466
		c0.191,2.931,0.439,5.715,0.347,8.323c-0.016,1.304-0.031,2.555-0.045,3.744c-0.101,1.302-0.237,2.577-0.362,3.758
		c-0.139,1.188-0.269,2.3-0.39,3.328c-0.031,0.236-0.067,0.556-0.095,0.709c-0.029,0.172-0.057,0.341-0.084,0.506
		c-0.055,0.33-0.107,0.644-0.157,0.942c-0.397,2.386-0.624,3.749-0.624,3.749c-1.076,6.47-7.194,10.842-13.663,9.766
		c-5.838-0.971-9.968-6.048-9.928-11.783L254.094,97.848z"/>
</g>
<g id="Layer_4">
	<path fill="#179967" d="M258.823,110.844c0,0,0.233-0.223,0.683-0.656c0.446-0.413,1.112-1.047,1.955-1.767
		c0.423-0.367,0.896-0.777,1.416-1.228c0.512-0.417,1.071-0.872,1.675-1.364c0.297-0.249,0.627-0.494,0.928-0.772
		c0.25-0.281,0.508-0.572,0.774-0.873c0.518-0.593,1.042-1.226,1.562-1.896c0.524-0.699,1.02-1.298,1.513-1.983
		c0.12-0.168,0.242-0.338,0.365-0.51c0.145-0.181,0.292-0.364,0.441-0.549c0.292-0.372,0.591-0.752,0.896-1.139
		c0.593-0.734,1.182-1.482,1.763-2.244c0.283-0.367,0.57-0.74,0.863-1.12c0.29-0.399,0.585-0.805,0.885-1.218
		c1.185-1.633,2.254-3.157,3.418-4.874c1.064-1.585,2.182-3.251,3.349-4.99c2.187-3.263,4.536-6.67,7.044-9.748
		c0.652-0.848,1.326-1.588,1.991-2.353c0.636-0.764,1.389-1.528,2.114-2.286c0.366-0.372,0.72-0.779,1.094-1.123
		c0.38-0.357,0.762-0.716,1.146-1.077c0.398-0.371,0.79-0.762,1.193-1.119c0.406-0.342,0.815-0.686,1.224-1.031
		c0.42-0.356,0.842-0.714,1.265-1.073c0.443-0.336,0.889-0.673,1.336-1.011c0.892-0.679,1.766-1.345,2.766-1.987
		c0.974-0.641,1.932-1.334,2.938-1.912c1.029-0.641,2.1-1.246,3.172-1.828c1.055-0.575,2.193-1.143,3.348-1.716
		c1.167-0.551,2.297-1.068,3.529-1.587c1.227-0.529,2.488-0.983,3.733-1.479l1.913-0.747c0.654-0.242,1.32-0.453,1.98-0.681
		c1.326-0.44,2.623-0.909,4.026-1.342c1.393-0.403,2.784-0.805,4.173-1.206c1.42-0.425,2.908-0.722,4.351-1.086l2.182-0.52
		l2.275-0.434c1.528-0.27,2.984-0.615,4.548-0.809c1.567-0.217,3.125-0.432,4.675-0.646c1.597-0.148,3.185-0.294,4.761-0.44
		c1.605-0.13,3.164-0.184,4.797-0.251c1.618-0.083,3.254-0.046,4.852-0.046c0.8,0.006,1.588,0.001,2.417,0.033
		c0.821,0.046,1.638,0.091,2.451,0.137c1.63,0.095,3.186,0.169,4.82,0.373c1.632,0.195,3.22,0.344,4.804,0.613
		c3.12,0.437,6.344,1.164,9.294,1.867c1.518,0.413,3.026,0.84,4.476,1.285c1.468,0.487,2.853,0.917,4.26,1.444
		c1.391,0.566,2.752,1.12,4.083,1.662c1.322,0.599,2.569,1.146,3.825,1.79c1.247,0.66,2.441,1.311,3.583,1.947
		c1.15,0.689,2.224,1.297,3.29,2.01c1.058,0.727,2.062,1.43,3.015,2.119c0.952,0.72,1.852,1.407,2.701,2.085
		c0.85,0.716,1.659,1.439,2.41,2.141c0.737,0.727,1.44,1.421,2.106,2.079c0.652,0.671,1.261,1.253,1.816,1.897
		c0.556,0.641,1.066,1.285,1.532,1.861c0.936,1.132,1.68,2.234,2.275,3.074c1.181,1.728,1.74,2.761,1.74,2.761l0.252,0.467
		c1.433,2.648,0.727,5.88-1.522,7.717c0,0-0.772,0.631-2.119,1.657c-1.351,1.056-3.238,2.375-5.481,4.175
		c-0.548,0.437-1.126,0.898-1.732,1.382c-0.595,0.473-1.2,0.89-1.828,1.409c-0.617,0.523-1.26,1.067-1.926,1.632
		c-0.639,0.524-1.302,1.068-1.986,1.629c-0.666,0.507-1.365,1.157-2.055,1.751c-0.681,0.578-1.381,1.173-2.1,1.784
		c-0.7,0.552-1.432,1.231-2.155,1.873c-0.715,0.615-1.446,1.244-2.193,1.887c-0.735,0.608-1.502,1.308-2.254,1.971
		c-0.75,0.639-1.513,1.291-2.29,1.953c-0.782,0.696-1.576,1.347-2.365,2.031c-0.795,0.664-1.602,1.338-2.42,2.021
		c-0.816,0.718-1.657,1.353-2.489,2.028c-0.83,0.686-1.714,1.395-2.581,2.065c-0.433,0.34-0.869,0.683-1.307,1.027
		c-0.447,0.336-0.897,0.674-1.348,1.014c-0.912,0.687-1.816,1.409-2.75,2.046c-3.755,2.778-7.722,5.406-12.079,8.039l-1.616,0.981
		l-1.685,0.957c-1.134,0.629-2.243,1.308-3.404,1.898c-1.181,0.621-2.364,1.243-3.548,1.866c-1.177,0.597-2.433,1.181-3.667,1.783
		c-4.938,2.317-10.197,4.62-15.796,6.365c-5.536,1.786-11.536,3.172-17.576,4.028c-6.077,0.858-12.393,1.135-18.529,0.799
		c-6.238-0.401-12.222-1.348-17.844-3.038c-2.751-0.755-5.442-1.787-7.921-2.863c-1.232-0.504-2.417-1.073-3.584-1.697
		c-1.157-0.586-2.258-1.244-3.304-1.842c-4.234-2.529-7.448-5.313-10.284-7.983c-0.67-0.672-1.279-1.307-1.833-1.902
		c-0.276-0.302-0.543-0.576-0.789-0.874c-0.208-0.3-0.37-0.595-0.548-0.876c-0.345-0.564-0.664-1.086-0.956-1.564
		c-0.286-0.504-0.546-0.961-0.779-1.371c-0.469-0.805-0.81-1.498-1.043-1.952c-0.233-0.455-0.353-0.689-0.353-0.689
		c-1.282-2.504-0.705-5.471,1.224-7.325L258.823,110.844z"/>
</g>
<g id="Layer_5">
	<path fill="#179967" d="M172.338,49.708c0,0,0.149-0.024,0.439-0.07c0.289-0.046,0.725-0.122,1.258-0.178
		c0.542-0.082,1.21-0.114,1.938-0.211c0.718-0.161,1.458-0.282,2.272-0.476c0.764-0.194,1.764-0.302,2.73-0.498
		c0.958-0.148,1.993-0.309,3.1-0.48c2.158-0.308,4.549-0.596,7.052-0.756c2.549-0.17,5.204-0.213,8.03-0.067
		c2.793,0.146,5.756,0.493,8.755,1.083c3.037,0.576,6.112,1.431,9.24,2.554c3.128,1.122,6.246,2.544,9.369,4.197
		c3.106,1.635,6.205,3.533,9.156,5.678c2.964,2.113,5.811,4.527,8.407,7.105c2.604,2.633,4.975,5.381,6.996,8.334
		c2.031,2.882,3.69,5.964,4.958,8.894c0.624,1.49,1.136,2.984,1.587,4.364c0.19,0.726,0.374,1.433,0.554,2.121
		c0.145,0.691,0.285,1.362,0.421,2.012c0.115,0.66,0.208,1.309,0.294,1.923c0.057,0.624,0.113,1.225,0.166,1.802
		c0.117,1.126,0.066,2.246,0.038,3.202c-0.022,1.899-0.36,3.465-0.569,4.482c-0.235,1.031-0.406,1.571-0.406,1.571
		c-0.523,1.65-2.284,2.564-3.935,2.041c-0.023-0.007-0.046-0.015-0.07-0.023l-0.242-0.084c0,0-0.506-0.176-1.454-0.506
		c-0.918-0.323-2.145-0.807-3.707-1.291c-0.379-0.119-0.777-0.244-1.196-0.375c-0.404-0.131-0.796-0.277-1.257-0.395
		c-0.441-0.118-0.9-0.241-1.376-0.369c-0.453-0.134-0.897-0.276-1.375-0.403c-0.488-0.113-0.992-0.23-1.511-0.351
		c-0.486-0.122-0.986-0.247-1.499-0.376c-1.01-0.227-2.071-0.466-3.179-0.716c-2.102-0.457-4.38-0.952-6.789-1.476
		c-2.313-0.539-4.798-1.099-7.275-1.782c-2.541-0.654-5.091-1.44-7.749-2.332c-2.662-0.872-5.342-1.898-8.088-3.033
		c-2.714-1.148-5.5-2.385-8.193-3.857c-2.696-1.465-5.375-3.106-7.899-4.961c-2.559-1.847-4.973-3.851-7.237-6.024
		c-2.243-2.146-4.328-4.474-6.127-6.804c-1.821-2.369-3.363-4.745-4.603-7.059c-0.611-1.181-1.138-2.274-1.619-3.354
		c-0.217-0.552-0.425-1.081-0.624-1.587c-0.183-0.496-0.384-0.972-0.557-1.501c-0.337-1.018-0.625-1.876-0.801-2.678
		c-0.147-0.763-0.193-1.4-0.246-1.953c-0.058-0.532-0.074-0.974-0.091-1.266c-0.016-0.292-0.024-0.443-0.024-0.443
		C169.307,51.544,170.605,49.991,172.338,49.708z"/>
</g>
<g id="Layer_6">
	<path fill="#FFC392" d="M100.475,266.802c-3.543,0-7.144-0.661-10.635-2.057c-14.7-5.878-21.852-22.561-15.973-37.26
		c10.813-27.041,30.897-50.701,56.551-66.622c13.452-8.347,31.124-4.209,39.472,9.242c8.348,13.452,4.21,31.124-9.242,39.472
		c-15.331,9.514-27.246,23.434-33.548,39.195C122.618,259.98,111.852,266.802,100.475,266.802z"/>
</g>
</svg>
