<svg xmlns="http://www.w3.org/2000/svg" viewBox="0 0 512 512" enable-background="new 0 0 512 512"><path fill="#2BA52E" d="M195.785 286.803c-2.82 0-5.118-2.273-5.143-5.1-.025-2.84 2.258-5.162 5.1-5.187l20.412-.178h.046c2.82 0 5.118 2.273 5.143 5.1.025 2.84-2.258 5.162-5.1 5.187l-20.412.178h-.044zM283 127.226V11.144C283 8.304 280.695 6 277.854 6c-2.84 0-5.144 2.303-5.144 5.144v116.082c0 2.84 2.304 5.144 5.145 5.144 2.84 0 5.144-2.303 5.144-5.144zm34.898-33.365V27.134c0-2.84-2.303-5.144-5.144-5.144-2.84 0-5.144 2.302-5.144 5.143v66.73c0 2.84 2.303 5.143 5.144 5.143 2.84 0 5.144-2.303 5.144-5.144zm10.287 100.097v-66.73c0-2.84-2.303-5.144-5.144-5.144-2.84 0-5.142 2.303-5.142 5.144v66.73c0 2.84 2.303 5.144 5.144 5.144 2.842 0 5.145-2.302 5.145-5.143zm-95.16 15.85v-66.73c0-2.84-2.303-5.143-5.144-5.143s-5.142 2.303-5.142 5.144v66.73c0 2.84 2.303 5.143 5.144 5.143s5.145-2.302 5.145-5.143zm36.007 68.63v-120.91c0-2.84-2.303-5.144-5.144-5.144-2.84 0-5.144 2.303-5.144 5.144v120.905c0 2.84 2.303 5.144 5.144 5.144 2.84 0 5.144-2.304 5.144-5.145zm37.966 30.512v-66.73c0-2.84-2.303-5.145-5.144-5.145-2.84 0-5.144 2.303-5.144 5.144v66.73c0 2.84 2.303 5.143 5.144 5.143 2.84 0 5.144-2.303 5.144-5.144zm-69.633 62.947v-66.73c0-2.84-2.303-5.144-5.144-5.144s-5.142 2.303-5.142 5.144v66.73c0 2.84 2.303 5.144 5.144 5.144s5.145-2.302 5.145-5.143zM283 476.15V352.09c0-2.84-2.304-5.144-5.145-5.144-2.84 0-5.144 2.303-5.144 5.144v124.06c0 2.84 2.305 5.144 5.146 5.144 2.84 0 5.144-2.303 5.144-5.144zm45.185-48.438v-66.73c0-2.84-2.303-5.144-5.144-5.144-2.84 0-5.142 2.303-5.142 5.144v66.73c0 2.84 2.303 5.144 5.144 5.144 2.842 0 5.145-2.303 5.145-5.144zM258.02 56.582V13.587c0-2.84-2.303-5.144-5.144-5.144s-5.144 2.303-5.144 5.144V56.58c0 2.842 2.303 5.145 5.144 5.145s5.144-2.303 5.144-5.144zM125.482 194.9v-43.377c0-1.365-.542-2.673-1.507-3.637L112.26 136.17c-2.01-2.008-5.268-2.008-7.276 0-2.01 2.01-2.01 5.265 0 7.274l10.21 10.21V194.9c0 2.84 2.302 5.145 5.143 5.145s5.144-2.303 5.144-5.144zm26.56 43.2v-66.086c0-2.84-2.302-5.144-5.143-5.144-2.843 0-5.146 2.303-5.146 5.144V238.1c0 2.84 2.303 5.145 5.144 5.145 2.84 0 5.143-2.303 5.143-5.144zm-32.417 29.385v-34.603c0-2.84-2.303-5.144-5.144-5.144s-5.142 2.303-5.142 5.144v34.603c0 2.84 2.303 5.144 5.144 5.144s5.145-2.303 5.145-5.144zm19.65 56.684v-59.016c0-2.84-2.304-5.144-5.145-5.144s-5.144 2.304-5.144 5.145v59.016c0 2.843 2.303 5.146 5.144 5.146s5.144-2.303 5.144-5.144zm38.996-8.46v-34.6c0-2.84-2.3-5.144-5.142-5.144s-5.144 2.303-5.144 5.144v34.603c0 2.842 2.303 5.145 5.144 5.145s5.144-2.303 5.144-5.144zm69.3 136.512V418.86c0-2.842-2.3-5.145-5.142-5.145s-5.144 2.303-5.144 5.144v33.362c0 2.84 2.303 5.144 5.144 5.144s5.144-2.303 5.144-5.144zm-11.494-417c.03-.02.056-.04.085-.062l-10.507-10.507c-2.008-2.008-5.266-2.008-7.274 0-2.01 2.01-2.01 5.265 0 7.274l8.7 8.7V93.86c0 2.842 2.302 5.145 5.143 5.145 2.84 0 5.144-2.303 5.144-5.144V38.6c0-1.297-.498-2.47-1.29-3.374z"/></svg>