<?xml version="1.0" encoding="iso-8859-1"?>
<!-- Generator: Adobe Illustrator 18.1.0, SVG Export Plug-In . SVG Version: 6.00 Build 0)  -->
<!DOCTYPE svg PUBLIC "-//W3C//DTD SVG 1.1//EN" "http://www.w3.org/Graphics/SVG/1.1/DTD/svg11.dtd">
<svg version="1.1" xmlns="http://www.w3.org/2000/svg" xmlns:xlink="http://www.w3.org/1999/xlink" x="0px" y="0px"
	 viewBox="0 0 512 512" enable-background="new 0 0 512 512" xml:space="preserve">
<g id="Layer_2">
	<path fill="#C8CACB" d="M490.174,179.128H21.826c-7.953,0-14.4,6.447-14.4,14.4V496.6c0,7.953,6.447,14.4,14.4,14.4h468.348
		c7.953,0,14.4-6.447,14.4-14.4V193.528C504.574,185.575,498.127,179.128,490.174,179.128z"/>
</g>
<g id="Layer_3">
	<path fill="#597B91" d="M6.943,187.458h498.932c5.561,0,6.646-7.889,1.291-9.39l-246.096-68.991
		c-0.834-0.234-1.715-0.237-2.551-0.009L5.684,178.059C0.3,179.528,1.362,187.458,6.943,187.458z"/>
</g>
<g id="Layer_4">
	<path fill="#DADBDC" d="M387.596,76.789H131.287c-4.139,0-7.495,4.775-7.495,10.666v412.88c0,5.891,3.356,10.666,7.495,10.666
		h256.309c4.139,0,7.495-4.775,7.495-10.666V87.455C395.091,81.564,391.736,76.789,387.596,76.789z"/>
</g>
<g id="Layer_5">
	<rect x="209.208" y="416.505" fill="#2B3B47" width="100.467" height="94.495"/>
</g>
<g id="Layer_6">
	<path fill="#0096D1" d="M88.099,292.798H34.561c-3.976,0-7.2-3.224-7.2-7.2v-42.119c0-3.976,3.224-7.2,7.2-7.2h53.538
		c3.976,0,7.2,3.224,7.2,7.2v42.119C95.299,289.575,92.075,292.798,88.099,292.798z M95.299,380.635v-42.119
		c0-3.976-3.224-7.2-7.2-7.2H34.561c-3.976,0-7.2,3.224-7.2,7.2v42.119c0,3.976,3.224,7.2,7.2,7.2h53.538
		C92.075,387.835,95.299,384.612,95.299,380.635z M485.719,285.598v-42.119c0-3.976-3.224-7.2-7.2-7.2h-53.538
		c-3.976,0-7.2,3.224-7.2,7.2v42.119c0,3.976,3.224,7.2,7.2,7.2h53.538C482.496,292.798,485.719,289.575,485.719,285.598z
		 M485.719,380.635v-42.119c0-3.976-3.224-7.2-7.2-7.2h-53.538c-3.976,0-7.2,3.224-7.2,7.2v42.119c0,3.976,3.224,7.2,7.2,7.2h53.538
		C482.496,387.835,485.719,384.612,485.719,380.635z"/>
</g>
<g id="Layer_7">
	<path fill="#00B1FF" d="M277.164,294.009h-35.437c-3.976,0-7.2-3.224-7.2-7.2v-44.54c0-3.976,3.224-7.2,7.2-7.2h35.437
		c3.976,0,7.2,3.224,7.2,7.2v44.54C284.364,290.785,281.14,294.009,277.164,294.009z M371.527,286.809v-44.54
		c0-3.976-3.224-7.2-7.2-7.2H328.89c-3.976,0-7.2,3.224-7.2,7.2v44.54c0,3.976,3.224,7.2,7.2,7.2h35.437
		C368.303,294.009,371.527,290.785,371.527,286.809z M284.364,381.27v-44.54c0-3.976-3.224-7.2-7.2-7.2h-35.437
		c-3.976,0-7.2,3.224-7.2,7.2v44.54c0,3.976,3.224,7.2,7.2,7.2h35.437C281.14,388.47,284.364,385.246,284.364,381.27z
		 M371.527,381.27v-44.54c0-3.976-3.224-7.2-7.2-7.2H328.89c-3.976,0-7.2,3.224-7.2,7.2v44.54c0,3.976,3.224,7.2,7.2,7.2h35.437
		C368.303,388.47,371.527,385.246,371.527,381.27z M197.201,286.809v-44.54c0-3.976-3.224-7.2-7.2-7.2h-35.437
		c-3.976,0-7.2,3.224-7.2,7.2v44.54c0,3.976,3.224,7.2,7.2,7.2h35.437C193.977,294.009,197.201,290.785,197.201,286.809z
		 M197.201,381.27v-44.54c0-3.976-3.224-7.2-7.2-7.2h-35.437c-3.976,0-7.2,3.224-7.2,7.2v44.54c0,3.976,3.224,7.2,7.2,7.2h35.437
		C193.977,388.47,197.201,385.246,197.201,381.27z"/>
</g>
<g id="Layer_8">
	<path fill="#597B91" d="M119.208,81.969l137.78-81.505c1.041-0.616,2.333-0.619,3.377-0.008l139.201,81.505
		c2.93,1.715,1.713,6.202-1.682,6.202H120.902C117.515,88.163,116.292,83.693,119.208,81.969z M309.675,415.521
		c0-5.443-4.412-9.854-9.854-9.854h-80.758c-5.442,0-9.854,4.412-9.854,9.854v11.821h47.128v83.473h6.209v-83.473h47.129V415.521z"
		/>
</g>
<g id="Layer_9">
	<path fill="#FF473E" d="M332.691,136.443H186.2c-3.976,0-7.2-3.224-7.2-7.2v-3.937c0-3.976,3.224-7.2,7.2-7.2h146.491
		c3.976,0,7.2,3.224,7.2,7.2v3.937C339.891,133.219,336.668,136.443,332.691,136.443z M332.691,152.28H186.2
		c-3.976,0-7.2,3.224-7.2,7.2v3.937c0,3.976,3.224,7.2,7.2,7.2h64.077v35.707c0,3.976,3.224,7.2,7.2,7.2h3.937
		c3.976,0,7.2-3.224,7.2-7.2v-35.707h64.077c3.976,0,7.2-3.224,7.2-7.2v-3.937C339.891,155.504,336.668,152.28,332.691,152.28z"/>
</g>
</svg>
