<?xml version="1.0" encoding="iso-8859-1"?>
<!-- Generator: Adobe Illustrator 18.1.1, SVG Export Plug-In . SVG Version: 6.00 Build 0)  -->
<!DOCTYPE svg PUBLIC "-//W3C//DTD SVG 1.1//EN" "http://www.w3.org/Graphics/SVG/1.1/DTD/svg11.dtd">
<svg version="1.1" xmlns="http://www.w3.org/2000/svg" xmlns:xlink="http://www.w3.org/1999/xlink" x="0px" y="0px"
	 viewBox="0 0 512 512" enable-background="new 0 0 512 512" xml:space="preserve">
<g id="Layer_3">
	<path fill="#CE7E61" d="M393.371,82.983c0,0-0.01,0.14-0.03,0.417c-0.042,0.287-0.008,0.67,0.036,1.175
		c0.022,0.252,0.046,0.535,0.074,0.847c0.037,0.305,0.044,0.625,0.028,1.004c-0.011,0.734-0.023,1.584-0.037,2.546
		c-0.111,3.813-0.417,9.058-0.966,15.328c-0.329,3.016-0.631,6.448-1.072,9.896c-0.454,3.454-0.959,7.07-1.577,10.778
		c-0.633,3.647-1.307,7.52-2.147,11.27c-0.383,1.943-0.862,3.799-1.296,5.752c-0.24,0.937-0.483,1.884-0.729,2.843
		c-0.236,0.97-0.485,1.939-0.757,2.876c-0.262,0.949-0.526,1.907-0.794,2.875c-0.286,0.93-0.574,1.87-0.866,2.818
		c-0.548,1.948-1.217,3.757-1.827,5.675c-1.341,3.655-2.686,7.473-4.298,10.979c-0.752,1.839-1.601,3.572-2.44,5.337
		c-0.406,0.901-0.871,1.728-1.32,2.582c-0.444,0.86-0.891,1.724-1.34,2.594c-1.876,3.36-3.901,6.607-5.888,9.971
		c-3.939,6.6-8.008,13.419-12.144,20.349c-1.979,3.484-4.126,6.787-6.095,10.268c-2.031,3.375-4.07,6.764-6.11,10.152
		c-2.022,3.335-4.044,6.669-6.058,9.991c-1.001,1.649-1.994,3.296-3.019,4.894c-0.987,1.626-1.972,3.247-2.952,4.862
		c-0.982,1.606-2.031,3.138-2.987,4.729c-0.953,1.595-1.92,3.159-2.913,4.68c-1.949,3.052-3.874,6.067-5.767,9.033
		c-0.924,1.492-1.942,2.882-2.867,4.324c-0.914,1.448-1.826,2.873-2.769,4.247c-1.864,2.752-3.687,5.445-5.461,8.066
		c-1.779,2.601-3.609,5.062-5.293,7.482c-1.677,2.429-3.394,4.7-5.049,6.877c-0.852,1.072-1.604,2.171-2.393,3.212
		c-0.799,1.033-1.58,2.042-2.341,3.025c-1.567,1.936-3.053,3.773-4.45,5.5c-2.752,3.472-5.505,6.291-7.599,8.718
		c-1.106,1.177-2.076,2.242-2.958,3.147c-0.91,0.889-1.685,1.646-2.312,2.259c-0.661,0.595-1.168,1.052-1.51,1.359
		c-0.357,0.299-0.541,0.453-0.541,0.453l-30.068,25.169C187.38,399.455,105.342,392.18,59.23,337.092
		c-35.981-42.984-39.296-102.584-12.916-148.515c0,0,0.183-0.317,0.537-0.93c0.367-0.606,0.91-1.505,1.62-2.678
		c0.736-1.156,1.644-2.582,2.712-4.258c1.107-1.651,2.379-3.548,3.804-5.674c2.89-4.226,6.667-9.15,11.084-14.734
		c2.144-2.839,4.667-5.671,7.276-8.686c1.307-1.504,2.647-3.046,4.02-4.626c1.413-1.546,2.837-3.148,4.352-4.724
		c3.035-3.15,6.127-6.474,9.483-9.781c0.832-0.83,1.671-1.668,2.517-2.512c0.856-0.832,1.747-1.649,2.631-2.481
		c1.776-1.653,3.58-3.332,5.408-5.033c1.855-1.675,3.709-3.392,5.631-5.08c1.95-1.658,3.925-3.335,5.92-5.031
		c3.976-3.396,8.137-6.752,12.448-10.049c2.155-1.644,4.328-3.301,6.516-4.971c2.193-1.658,4.492-3.228,6.751-4.852
		c4.518-3.249,9.197-6.402,13.956-9.484c2.389-1.523,4.787-3.053,7.193-4.587c2.41-1.516,4.896-2.956,7.357-4.418
		c2.475-1.447,4.909-2.933,7.418-4.332l7.557-4.133c4.994-2.781,10.197-5.283,15.26-7.851c2.555-1.259,5.148-2.452,7.722-3.643
		c2.576-1.187,5.122-2.383,7.701-3.51c10.341-4.484,20.57-8.607,30.687-12.125c2.52-0.875,5.02-1.743,7.495-2.603
		c2.483-0.841,5.014-1.568,7.468-2.333c4.996-1.415,10.01-2.601,14.988-3.535c9.997-1.856,19.854-2.76,29.348-2.79
		c9.452-0.082,18.499,0.706,26.745,1.984c8.251,1.31,15.706,3.096,21.963,4.945c6.292,1.924,11.417,3.839,14.995,5.346
		c0.907,0.369,1.721,0.735,2.411,1.033c0.659,0.305,1.382,0.532,1.881,0.755c0.522,0.209,0.919,0.367,1.122,0.507
		c0.225,0.128,0.339,0.194,0.339,0.194c14.365,8.211,21.988,23.678,20.892,39.148L393.371,82.983z"/>
</g>
<g id="Layer_1">
</g>
</svg>
