<?xml version="1.0" encoding="iso-8859-1"?>
<!-- Generator: Adobe Illustrator 18.1.1, SVG Export Plug-In . SVG Version: 6.00 Build 0)  -->
<!DOCTYPE svg PUBLIC "-//W3C//DTD SVG 1.1//EN" "http://www.w3.org/Graphics/SVG/1.1/DTD/svg11.dtd">
<svg version="1.1" xmlns="http://www.w3.org/2000/svg" xmlns:xlink="http://www.w3.org/1999/xlink" x="0px" y="0px"
	 viewBox="0 0 512 512" enable-background="new 0 0 512 512" xml:space="preserve">
<g id="Layer_5">
	<path fill="#6DBA31" d="M137.048,24.856c0,0-0.658,1.739-1.892,4.999c-0.617,1.63-1.378,3.641-2.273,6.004
		c-0.221,0.589-0.45,1.2-0.687,1.832c-0.212,0.614-0.431,1.25-0.657,1.906c-0.452,1.311-0.933,2.705-1.441,4.177
		c-2.072,5.812-4.409,13.214-6.979,21.659c-1.208,4.261-2.603,8.75-3.876,13.559c-0.64,2.403-1.296,4.868-1.967,7.391
		c-0.336,1.261-0.676,2.537-1.019,3.827c-0.317,1.3-0.637,2.613-0.961,3.941c-1.297,5.309-2.676,10.829-3.919,16.602
		c-0.636,2.882-1.316,5.801-1.947,8.784c-0.612,2.988-1.233,6.022-1.863,9.098c-0.314,1.538-0.631,3.086-0.95,4.644
		c-0.293,1.566-0.588,3.141-0.885,4.727c-0.594,3.17-1.196,6.378-1.804,9.622c-0.559,3.256-1.124,6.547-1.695,9.87
		c-0.58,3.32-1.144,6.677-1.656,10.076c-0.53,3.394-1.065,6.817-1.604,10.264c-0.493,3.457-0.989,6.939-1.489,10.443
		c-0.249,1.752-0.498,3.509-0.748,5.27c-0.228,1.767-0.457,3.538-0.686,5.314c-0.456,3.552-0.914,7.121-1.374,10.705
		c-1.721,14.358-3.297,28.972-4.626,43.624c-1.3,14.656-2.49,29.326-3.391,43.801c-0.505,7.23-0.862,14.421-1.281,21.515
		c-0.343,7.104-0.731,14.115-0.998,21.024c-0.618,13.808-1.01,27.174-1.355,39.848c-0.294,12.679-0.525,24.669-0.625,35.744
		c-0.129,11.073-0.158,21.228-0.159,30.23c0.003,9.003,0.035,16.852,0.094,23.319C82.474,481.609,82.552,489,82.552,489l0.001,0.133
		c0.12,11.263-8.913,20.492-20.177,20.612c-11.263,0.12-20.492-8.913-20.612-20.177c-0.002-0.158,0-0.411,0.002-0.568
		c0,0,0.129-7.481,0.354-20.573c0.122-6.546,0.311-14.498,0.562-23.619c0.254-9.121,0.571-19.412,1.015-30.641
		c0.415-11.227,0.988-23.392,1.645-36.256c0.709-12.865,1.486-26.43,2.506-40.46c0.468-7.015,1.061-14.145,1.612-21.362
		c0.627-7.216,1.196-14.521,1.915-21.879c1.329-14.72,2.959-29.663,4.705-44.593c1.775-14.93,3.804-29.843,5.978-44.505
		c0.574-3.663,1.146-7.311,1.714-10.941c0.286-1.815,0.571-3.625,0.856-5.43c0.307-1.803,0.613-3.601,0.919-5.394
		c0.613-3.584,1.223-7.147,1.829-10.684c0.653-3.532,1.301-7.039,1.944-10.516c0.625-3.479,1.302-6.923,1.995-10.331
		c0.684-3.409,1.361-6.785,2.032-10.125c0.721-3.333,1.435-6.631,2.139-9.888c0.353-1.628,0.703-3.247,1.051-4.855
		c0.375-1.604,0.747-3.199,1.116-4.782c0.741-3.166,1.472-6.288,2.192-9.364c0.74-3.072,1.53-6.089,2.274-9.059
		c1.457-5.946,3.052-11.66,4.556-17.147c0.376-1.372,0.748-2.729,1.115-4.072c0.396-1.338,0.788-2.66,1.175-3.968
		c0.775-2.615,1.532-5.169,2.269-7.659c1.47-4.98,3.064-9.664,4.455-14.085c0.687-2.212,1.44-4.335,2.154-6.386
		c0.713-2.051,1.401-4.027,2.061-5.927c1.272-3.785,2.658-7.318,3.845-10.489c0.6-1.587,1.167-3.088,1.701-4.501
		c0.267-0.706,0.526-1.39,0.776-2.052c0.257-0.631,0.505-1.241,0.745-1.829c0.96-2.338,1.777-4.326,2.439-5.939
		c1.325-3.225,2.031-4.944,2.031-4.944c2.889-7.033,10.932-10.392,17.964-7.503c6.908,2.837,10.271,10.647,7.652,17.588
		L137.048,24.856z M454.984,18.643c-0.648-7.575-7.314-13.191-14.889-12.543c0,0-2.306,0.197-6.631,0.565
		c-1.081,0.092-2.288,0.195-3.617,0.308c-1.36,0.133-2.982,0.367-4.66,0.574c-3.382,0.443-7.334,0.887-11.512,1.688
		c-2.115,0.374-4.344,0.769-6.681,1.182c-2.322,0.512-4.752,1.048-7.285,1.607c-2.544,0.516-5.15,1.239-7.86,1.97
		c-2.709,0.733-5.53,1.442-8.383,2.402c-11.496,3.516-24.246,8.433-37.44,15.261c-13.189,6.815-26.819,15.512-40.039,26.139
		c-1.625,1.359-3.261,2.726-4.908,4.103c-0.821,0.692-1.644,1.385-2.47,2.081c-0.8,0.723-1.603,1.448-2.408,2.175
		c-1.608,1.458-3.226,2.925-4.853,4.4c-1.57,1.53-3.149,3.068-4.737,4.615c-0.792,0.776-1.585,1.554-2.381,2.335
		c-0.768,0.804-1.539,1.61-2.311,2.419c-1.54,1.621-3.088,3.251-4.643,4.888c-2.976,3.381-6.09,6.718-8.964,10.279
		c-11.802,14.032-22.507,29.593-32.202,45.976c-4.782,8.225-9.361,16.635-13.638,25.215c-4.22,8.599-8.324,17.296-12.014,26.136
		c-3.737,8.823-7.257,17.725-10.473,26.675c-3.27,8.936-6.246,17.917-9.032,26.867c-2.818,8.944-5.303,17.889-7.705,26.739
		c-2.316,8.866-4.519,17.644-6.463,26.318c-3.959,17.336-7.115,34.208-9.765,50.25c-2.607,16.047-4.64,31.274-6.241,45.357
		c-3.177,28.17-4.587,51.763-5.278,68.314c-0.354,8.274-0.487,14.795-0.59,19.24c-0.068,4.451-0.104,6.825-0.104,6.825
		c-0.001,0.118-0.003,0.338-0.002,0.456c0.08,11.263,9.275,20.329,20.539,20.25c11.263-0.08,20.329-9.275,20.249-20.539L195.592,489
		c0,0-0.016-2.255-0.046-6.484c0.004-4.233-0.009-10.444,0.153-18.363c0.306-15.831,1.152-38.507,3.596-65.609
		c1.234-13.546,2.857-28.195,5.01-43.615c2.194-15.411,4.85-31.61,8.252-48.204c1.666-8.307,3.575-16.694,5.584-25.162
		c2.092-8.44,4.255-16.975,6.727-25.475c2.442-8.51,5.056-17.036,7.938-25.489c2.831-8.475,5.939-16.871,9.237-25.174
		c3.255-8.327,6.885-16.465,10.606-24.51c3.774-8.016,7.813-15.839,12.02-23.471c8.534-15.177,17.918-29.482,28.192-42.259
		c2.501-3.258,5.209-6.269,7.79-9.354c1.349-1.483,2.691-2.96,4.026-4.429c0.669-0.734,1.336-1.466,2.001-2.196
		c0.689-0.705,1.376-1.407,2.061-2.108c1.372-1.4,2.737-2.793,4.094-4.178c1.405-1.33,2.801-2.653,4.19-3.968
		c0.694-0.658,1.386-1.314,2.076-1.968c0.712-0.626,1.422-1.25,2.13-1.872c1.418-1.242,2.827-2.477,4.226-3.703
		c11.382-9.57,23.071-17.396,34.413-23.588c11.345-6.2,22.351-10.735,32.354-14.039c2.475-0.906,4.942-1.573,7.306-2.271
		c2.365-0.695,4.639-1.392,6.874-1.889c2.223-0.545,4.355-1.067,6.393-1.566c2.062-0.411,4.027-0.802,5.893-1.174
		c3.764-0.815,6.999-1.23,9.846-1.681c1.44-0.213,2.694-0.442,3.985-0.598c1.326-0.143,2.531-0.273,3.609-0.389
		c4.315-0.465,6.616-0.713,6.616-0.713C450.154,32.695,455.623,26.109,454.984,18.643z"/>
</g>
<g id="Layer_1">
</g>
</svg>
