<?xml version="1.0" encoding="iso-8859-1"?>
<!-- Generator: Adobe Illustrator 18.1.1, SVG Export Plug-In . SVG Version: 6.00 Build 0)  -->
<!DOCTYPE svg PUBLIC "-//W3C//DTD SVG 1.1//EN" "http://www.w3.org/Graphics/SVG/1.1/DTD/svg11.dtd">
<svg version="1.1" xmlns="http://www.w3.org/2000/svg" xmlns:xlink="http://www.w3.org/1999/xlink" x="0px" y="0px"
	 viewBox="0 0 512 512" enable-background="new 0 0 512 512" xml:space="preserve">
<g id="Layer_3">
	<path fill="#7A2F18" d="M486.181,304.74c0-19.926-11.381-38.147-29.371-46.716c-33.964-16.179-98.681-37.982-200.81-37.982
		S89.154,241.845,55.19,258.024c-17.99,8.569-29.371,26.79-29.371,46.716v0c0,0.288,0.017,0.572,0.022,0.858
		c-0.005,0.287-0.022,0.571-0.022,0.858v0c0,19.926,11.381,38.147,29.371,46.716c33.964,16.179,98.681,37.982,200.81,37.982
		s166.846-21.802,200.81-37.982c17.99-8.569,29.371-26.79,29.371-46.716v0c0-0.288-0.017-0.572-0.022-0.858
		C486.164,305.312,486.181,305.028,486.181,304.74L486.181,304.74z"/>
</g>
<g id="Layer_1">
</g>
</svg>
