<?xml version="1.0" encoding="iso-8859-1"?>
<!-- Generator: Adobe Illustrator 18.1.1, SVG Export Plug-In . SVG Version: 6.00 Build 0)  -->
<!DOCTYPE svg PUBLIC "-//W3C//DTD SVG 1.1//EN" "http://www.w3.org/Graphics/SVG/1.1/DTD/svg11.dtd">
<svg version="1.1" xmlns="http://www.w3.org/2000/svg" xmlns:xlink="http://www.w3.org/1999/xlink" x="0px" y="0px"
	 viewBox="0 0 512 512" enable-background="new 0 0 512 512" xml:space="preserve">
<g id="Layer_2">
	<path fill="#D8D6CE" d="M275.194,294.903v133.242c28.887,13.815,80.361,40.096,80.361,51.97c0,16.505-44.53,29.885-99.46,29.885
		c-54.93,0-99.46-13.38-99.46-29.885c0-11.873,51.463-38.15,80.352-51.966V294.914C21.068,281.527,124.263,37.383,124.263,37.383
		h0.206c-0.133,0.729-0.206,1.462-0.206,2.201c0,21.861,58.98,39.583,131.737,39.583s131.737-17.722,131.737-39.583
		c0-0.739-0.073-1.472-0.206-2.201h0.206C387.737,37.383,490.874,281.391,275.194,294.903z"/>
</g>
<g id="Layer_1">
</g>
</svg>
