<?xml version="1.0" encoding="iso-8859-1"?>
<!-- Generator: Adobe Illustrator 18.1.1, SVG Export Plug-In . SVG Version: 6.00 Build 0)  -->
<!DOCTYPE svg PUBLIC "-//W3C//DTD SVG 1.1//EN" "http://www.w3.org/Graphics/SVG/1.1/DTD/svg11.dtd">
<svg version="1.1" xmlns="http://www.w3.org/2000/svg" xmlns:xlink="http://www.w3.org/1999/xlink" x="0px" y="0px"
	 viewBox="0 0 512 512" enable-background="new 0 0 512 512" xml:space="preserve">
<g id="Layer_4">
	<path fill="#FFB636" d="M412.163,351.034l-104.546-67.97c-0.583-0.379-1.247-0.413-1.812-0.2c-0.999,0.376-1.446,1.553-1.106,2.566
		l32.758,97.64c1.394,4.156-3.978,7.177-6.805,3.828l-65.055-77.08V477.08c0,7.732-6.269,14-14,14s-14-6.268-14-14V306.236
		l-77.088,70.434c-1.642,1.5-4.181-0.257-3.355-2.322l33.86-84.655c0.6-1.501-0.655-3.087-2.254-2.847L63.404,305.637
		c-2.368,0.355-3.38-2.901-1.228-3.951l99.374-48.509c1.41-0.688,1.589-2.626,0.329-3.562l-78.356-58.156
		c-1.747-1.297-0.602-4.067,1.551-3.752l103.22,15.137c1.749,0.256,3.009-1.636,2.097-3.151L108.588,63.857
		c-2.39-3.969,2.833-8.096,6.141-4.852l111.669,109.49c1.137,1.115,3.054,0.602,3.482-0.933l29.876-107.29
		c0.617-2.216,3.837-1.959,4.096,0.326l13.811,121.935c0.19,1.677,2.185,2.451,3.456,1.341l77.58-67.759
		c1.644-1.436,4.113,0.288,3.331,2.326l-31.868,83.082c-0.416,1.083,0.13,2.298,1.216,2.708l64.019,24.145
		c2.072,0.781,1.67,3.825-0.534,4.041l-59.045,5.794c-1.628,0.16-2.452,2.042-1.464,3.346l80.617,106.459
		C416.388,349.885,414.129,352.312,412.163,351.034z"/>
</g>
<g id="Layer_1">
</g>
</svg>
