<?xml version="1.0" encoding="iso-8859-1"?>
<!-- Generator: Adobe Illustrator 18.1.1, SVG Export Plug-In . SVG Version: 6.00 Build 0)  -->
<!DOCTYPE svg PUBLIC "-//W3C//DTD SVG 1.1//EN" "http://www.w3.org/Graphics/SVG/1.1/DTD/svg11.dtd">
<svg version="1.1" xmlns="http://www.w3.org/2000/svg" xmlns:xlink="http://www.w3.org/1999/xlink" x="0px" y="0px"
	 viewBox="0 0 512 512" enable-background="new 0 0 512 512" xml:space="preserve">
<g id="Layer_6">
	<path fill="#E0A882" d="M222.445,340.36c-0.005,0-0.01,0-0.015,0c-9.736-0.005-18.594-4.84-23.694-12.933
		c-1.732-2.75-0.908-6.383,1.841-8.116c2.749-1.734,6.383-0.909,8.116,1.841c2.934,4.656,8.072,7.437,13.743,7.44
		c0.003,0,0.006,0,0.009,0c5.679,0,10.826-2.783,13.771-7.445c1.736-2.748,5.371-3.569,8.117-1.833
		c2.748,1.735,3.569,5.37,1.833,8.117C241.052,335.527,232.184,340.36,222.445,340.36z M303.422,383.394
		c7.923-6.019,9.463-17.321,3.444-25.241c-6.015-7.92-17.321-9.47-25.241-3.444c-35.983,27.336-82.477,27.339-118.45,0
		c-7.917-6.019-19.219-4.476-25.242,3.442c-6.019,7.923-4.479,19.224,3.443,25.243c24.231,18.416,52.621,27.622,81.02,27.622
		C250.788,411.016,279.192,401.805,303.422,383.394z"/>
</g>
<g id="Layer_1">
</g>
</svg>
