<?xml version="1.0" encoding="iso-8859-1"?>
<!-- Generator: Adobe Illustrator 19.2.1, SVG Export Plug-In . SVG Version: 6.00 Build 0)  -->
<!DOCTYPE svg PUBLIC "-//W3C//DTD SVG 1.1//EN" "http://www.w3.org/Graphics/SVG/1.1/DTD/svg11.dtd">
<svg version="1.1" xmlns="http://www.w3.org/2000/svg" xmlns:xlink="http://www.w3.org/1999/xlink" x="0px" y="0px"
	 viewBox="0 0 512 512" enable-background="new 0 0 512 512" xml:space="preserve">
<g id="Layer_2">
	<path fill="#FFD60D" d="M322.879,231.55L184.271,367.952l-2.173-5.245l137.404-0.29l0.045,0c1.845-0.004,3.344,1.489,3.348,3.334
		c0.002,0.94-0.392,1.798-1.016,2.406L189.75,496.205c-0.189,0.183-0.49,0.178-0.673-0.011c-0.179-0.185-0.178-0.479,0-0.663
		l128.048-132.13l2.377,5.74l-137.404-0.29c-1.699-0.004-3.073-1.383-3.069-3.082c0.002-0.835,0.336-1.592,0.878-2.145l0.019-0.019
		l136.402-138.608c1.795-1.824,4.728-1.847,6.551-0.053c1.824,1.795,1.847,4.728,0.053,6.551
		C322.92,231.51,322.891,231.539,322.879,231.55z"/>
</g>
<g id="Layer_3">
	<path fill="#95A7AF" d="M411.429,171.587c2.312-5.604,3.596-11.742,3.596-18.181c0-26.35-21.361-47.71-47.71-47.71
		c-5.079,0-9.97,0.801-14.561,2.271c-10.505-52.378-56.755-91.835-112.225-91.835c-63.218,0-114.467,51.249-114.467,114.467
		c-47.53,0-86.061,38.671-86.061,86.201S78.531,303,126.061,303h280.264C442.596,303,472,273.456,472,237.185
		C472,202.633,445.312,174.194,411.429,171.587z"/>
</g>
</svg>
