<?xml version="1.0" encoding="iso-8859-1"?>
<!-- Generator: Adobe Illustrator 19.1.0, SVG Export Plug-In . SVG Version: 6.00 Build 0)  -->
<!DOCTYPE svg PUBLIC "-//W3C//DTD SVG 1.1//EN" "http://www.w3.org/Graphics/SVG/1.1/DTD/svg11.dtd">
<svg version="1.1" xmlns="http://www.w3.org/2000/svg" xmlns:xlink="http://www.w3.org/1999/xlink" x="0px" y="0px"
	 viewBox="0 0 512 512" enable-background="new 0 0 512 512" xml:space="preserve">
<g id="Layer_5">
	<path fill="#496170" d="M308.355,500.486c-8.188-8.716-12.966-19.137-12.966-30.342c0-30.584,35.487-55.38,79.255-55.38
		c23.05,0,43.795,6.883,58.278,17.861C399.429,466.173,356.45,490.237,308.355,500.486z M505.972,253.874
		c-0.469-56.359-19.585-108.266-51.487-149.864c-32.308,10.007-55.781,40.123-55.781,75.718c0,43.769,35.487,79.256,79.255,79.256
		C487.824,258.985,497.261,257.168,505.972,253.874z M256,6.003c3.701,0,6.626,21.938,8.776,56.613
		c19.155-11.21,33.393-29.912,38.669-52.097C288.082,7.567,272.225,6.003,256,6.003z M268.49,167.803
		c0.665,36.993,0.895,76.935,0.689,115.968c-0.036,0-0.071,0.002-0.106,0.002c39.345,0,71.238-25.959,71.238-57.991
		c0-32.032-31.893-57.991-71.238-57.991"/>
</g>
<g id="Layer_1">
</g>
</svg>
