<?xml version="1.0" encoding="iso-8859-1"?>
<!-- Generator: Adobe Illustrator 19.1.0, SVG Export Plug-In . SVG Version: 6.00 Build 0)  -->
<!DOCTYPE svg PUBLIC "-//W3C//DTD SVG 1.1//EN" "http://www.w3.org/Graphics/SVG/1.1/DTD/svg11.dtd">
<svg version="1.1" xmlns="http://www.w3.org/2000/svg" xmlns:xlink="http://www.w3.org/1999/xlink" x="0px" y="0px"
	 viewBox="0 0 512 512" enable-background="new 0 0 512 512" xml:space="preserve">
<g id="Layer_3">
	<path fill="#FFD469" d="M323.612,80.484c0,0,0.214-0.131,0.606-0.33c0.388-0.175,0.97-0.501,1.685-0.79
		c0.72-0.31,1.584-0.638,2.564-0.953c0.981-0.322,2.076-0.628,3.256-0.889c2.366-0.548,5.068-0.902,7.9-0.96
		c2.833-0.064,5.795,0.163,8.7,0.68c2.908,0.499,5.751,1.328,8.352,2.422c2.601,1.095,4.959,2.468,6.928,3.903
		c0.489,0.376,0.957,0.737,1.403,1.079c0.439,0.377,0.855,0.734,1.246,1.07c0.774,0.713,1.441,1.373,1.98,1.969
		c0.542,0.579,0.949,1.129,1.234,1.47c0.282,0.352,0.425,0.576,0.425,0.576c1.021,1.591,0.587,3.701-0.953,4.771
		c0,0-0.218,0.151-0.614,0.368c-0.394,0.206-0.981,0.557-1.704,0.883c-0.727,0.343-1.596,0.696-2.585,1.057
		c-0.49,0.16-1.012,0.33-1.562,0.509c-0.543,0.145-1.114,0.298-1.71,0.457c-2.37,0.568-5.074,0.93-7.896,0.941
		c-2.822,0.01-5.765-0.317-8.641-0.974c-2.88-0.64-5.703-1.569-8.293-2.716c-2.592-1.142-4.951-2.507-6.924-3.923
		c-0.989-0.694-1.883-1.398-2.664-2.072c-0.783-0.667-1.455-1.302-2.001-1.865c-0.55-0.541-0.962-1.066-1.252-1.377
		c-0.286-0.334-0.433-0.537-0.433-0.537c-1.074-1.482-0.743-3.554,0.739-4.628C323.466,80.578,323.542,80.527,323.612,80.484z
		 M302.236,52.581c0,0,0.283-0.012,0.77-0.072c0.465-0.079,1.211-0.139,2.043-0.317c0.852-0.161,1.841-0.396,2.918-0.714
		c1.084-0.313,2.254-0.712,3.461-1.207c2.44-0.967,5.021-2.327,7.485-4.043c2.47-1.711,4.83-3.775,6.919-6.073
		c2.106-2.284,3.903-4.834,5.293-7.48c1.389-2.648,2.357-5.402,2.946-7.972c0.131-0.656,0.257-1.286,0.376-1.884
		c0.088-0.626,0.171-1.219,0.249-1.777c0.118-1.149,0.185-2.182,0.191-3.075c0.022-0.879-0.049-1.646-0.066-2.143
		c-0.007-0.246-0.038-0.458-0.052-0.594c-0.015-0.138-0.023-0.209-0.023-0.209c-0.255-2.221-2.179-3.928-4.453-3.854
		c0,0-0.071,0.002-0.21,0.007c-0.137,0.006-0.351,0.005-0.596,0.034c-0.494,0.054-1.263,0.093-2.13,0.242
		c-0.883,0.134-1.895,0.349-3.016,0.63c-0.541,0.157-1.116,0.325-1.723,0.501c-0.575,0.204-1.18,0.419-1.811,0.642
		c-2.459,0.951-5.046,2.305-7.467,4.059c-2.42,1.755-4.686,3.9-6.644,6.311c-1.974,2.397-3.679,5.028-5.018,7.718
		c-1.345,2.685-2.32,5.434-2.928,7.988c-0.317,1.266-0.544,2.481-0.698,3.598c-0.161,1.112-0.252,2.124-0.288,2.99
		c-0.057,0.849-0.009,1.596-0.021,2.067c0.01,0.49,0.04,0.772,0.04,0.772C298.019,50.963,299.957,52.674,302.236,52.581z
		 M262.208,65.12c1.139,1.597,3.357,1.969,4.954,0.831c0,0,0.211-0.151,0.558-0.443c0.322-0.297,0.866-0.718,1.426-1.279
		c0.583-0.557,1.238-1.243,1.926-2.042c0.695-0.798,1.42-1.709,2.132-2.718c1.454-2.012,2.848-4.417,4.003-7.057
		c1.161-2.639,2.088-5.513,2.709-8.444c0.639-2.928,0.931-5.922,0.869-8.792c-0.062-2.87-0.491-5.619-1.132-8.027
		c-0.178-0.605-0.349-1.186-0.512-1.737c-0.199-0.559-0.387-1.088-0.564-1.586c-0.398-1.004-0.784-1.887-1.159-2.625
		c-0.356-0.734-0.736-1.33-0.96-1.73c-0.235-0.402-0.398-0.623-0.398-0.623c-1.16-1.568-3.36-2.009-5.037-0.951
		c0,0-0.232,0.147-0.598,0.435c-0.354,0.29-0.925,0.706-1.524,1.26c-0.618,0.55-1.3,1.231-2.036,2.021
		c-0.346,0.399-0.715,0.824-1.104,1.271c-0.353,0.454-0.723,0.932-1.11,1.431c-1.475,2.008-2.877,4.411-3.982,7.061
		c-1.104,2.65-1.925,5.544-2.398,8.503c-0.491,2.956-0.677,5.97-0.558,8.851c0.112,2.88,0.533,5.627,1.153,8.03
		c0.295,1.199,0.637,2.312,0.994,3.308c0.349,0.995,0.709,1.873,1.048,2.604c0.316,0.727,0.67,1.317,0.861,1.711
		c0.216,0.398,0.358,0.615,0.358,0.615C262.149,65.036,262.182,65.084,262.208,65.12z M274.557,102.17c0,0,0.169,0.223,0.492,0.586
		c0.327,0.335,0.797,0.908,1.414,1.488c0.614,0.606,1.367,1.283,2.24,1.989c0.872,0.714,1.866,1.453,2.961,2.171
		c2.186,1.47,4.781,2.848,7.613,3.947c2.831,1.106,5.896,1.938,9.008,2.429c3.109,0.512,6.27,0.635,9.283,0.378
		c3.014-0.259,5.882-0.913,8.381-1.779c0.628-0.237,1.229-0.464,1.801-0.679c0.577-0.256,1.125-0.499,1.64-0.727
		c1.036-0.505,1.945-0.989,2.702-1.451c0.754-0.441,1.362-0.899,1.771-1.173c0.204-0.134,0.365-0.27,0.472-0.353
		c0.108-0.084,0.163-0.128,0.163-0.128c1.723-1.354,2.068-3.847,0.753-5.617c0,0-0.042-0.057-0.124-0.166
		c-0.082-0.107-0.201-0.281-0.363-0.465c-0.323-0.371-0.788-0.974-1.399-1.598c-0.609-0.645-1.358-1.352-2.224-2.112
		c-0.436-0.356-0.901-0.734-1.39-1.133c-0.495-0.359-1.015-0.736-1.558-1.13c-2.183-1.494-4.777-2.881-7.616-3.924
		c-2.839-1.043-5.921-1.756-9.054-2.082c-3.131-0.346-6.308-0.352-9.33-0.031c-3.021,0.314-5.888,0.959-8.384,1.802
		c-1.246,0.405-2.399,0.856-3.428,1.314c-1.029,0.45-1.934,0.906-2.685,1.328c-0.748,0.397-1.352,0.826-1.756,1.063
		c-0.408,0.264-0.629,0.435-0.629,0.435C273.564,97.9,273.224,100.407,274.557,102.17z M344.5,43.237c0,0,0.217,0.091,0.6,0.217
		c0.372,0.104,0.951,0.321,1.627,0.478c0.687,0.177,1.496,0.346,2.396,0.481c0.903,0.142,1.894,0.247,2.94,0.292
		c2.105,0.115,4.423-0.024,6.751-0.479c2.331-0.45,4.675-1.213,6.879-2.252c2.212-1.023,4.266-2.361,6.038-3.918
		c0.886-0.779,1.699-1.617,2.435-2.481c0.743-0.851,1.381-1.782,1.966-2.651c0.279-0.461,0.546-0.904,0.8-1.324
		c0.237-0.454,0.462-0.884,0.674-1.288c0.403-0.848,0.736-1.624,0.985-2.313c0.257-0.673,0.413-1.292,0.536-1.683
		c0.117-0.401,0.163-0.649,0.163-0.649c0.333-1.818-0.562-3.712-2.304-4.562c0,0-0.226-0.11-0.619-0.254
		c-0.387-0.133-0.978-0.375-1.672-0.567c-0.703-0.209-1.525-0.401-2.447-0.58c-0.451-0.07-0.931-0.144-1.437-0.222
		c-0.489-0.045-1.004-0.093-1.54-0.142c-1.046-0.045-2.174-0.084-3.3,0.009c-1.132,0.079-2.29,0.237-3.442,0.487
		c-2.305,0.502-4.601,1.36-6.737,2.534c-2.145,1.157-4.149,2.591-5.895,4.2c-1.749,1.603-3.236,3.386-4.393,5.149
		c-0.585,0.868-1.088,1.729-1.51,2.54c-0.425,0.804-0.771,1.556-1.035,2.214c-0.275,0.637-0.444,1.232-0.581,1.593
		c-0.126,0.383-0.181,0.612-0.181,0.612C341.748,40.522,342.691,42.475,344.5,43.237z M395.603,46.87c0,0,0.103,0.21,0.308,0.554
		c0.211,0.32,0.504,0.861,0.908,1.419c0.399,0.58,0.896,1.234,1.482,1.92c0.584,0.694,1.257,1.417,2.011,2.129
		c1.5,1.454,3.323,2.852,5.359,4.016c2.034,1.17,4.28,2.112,6.6,2.752c2.315,0.658,4.715,0.974,7.047,0.939
		c1.166-0.017,2.315-0.126,3.424-0.306c1.105-0.165,2.184-0.458,3.183-0.739c0.506-0.17,0.992-0.333,1.453-0.488
		c0.471-0.191,0.917-0.372,1.336-0.542c0.849-0.383,1.6-0.757,2.231-1.119c0.627-0.344,1.144-0.714,1.488-0.931
		c0.347-0.229,0.541-0.387,0.541-0.387c1.425-1.168,1.98-3.18,1.224-4.962c0,0-0.098-0.231-0.299-0.594
		c-0.203-0.352-0.489-0.92-0.884-1.516c-0.39-0.615-0.881-1.294-1.455-2.028c-0.292-0.346-0.603-0.713-0.931-1.101
		c-0.337-0.352-0.691-0.722-1.06-1.108c-0.753-0.713-1.572-1.474-2.474-2.134c-0.898-0.674-1.865-1.306-2.889-1.863
		c-2.048-1.114-4.319-1.951-6.675-2.445c-2.351-0.512-4.777-0.723-7.122-0.633c-2.344,0.084-4.608,0.474-6.611,1.063
		c-0.998,0.28-1.931,0.608-2.77,0.95c-0.838,0.335-1.581,0.682-2.204,1.011c-0.617,0.306-1.128,0.649-1.464,0.834
		c-0.342,0.209-0.531,0.347-0.531,0.347C395.296,43.023,394.739,45.11,395.603,46.87z M423.869,68.471
		c-1.603,0.008-2.896,1.314-2.888,2.917c0,0,0.001,0.211,0.033,0.579c0.046,0.353,0.071,0.913,0.182,1.549
		c0.2,1.292,0.593,3.034,1.263,4.931c0.332,0.951,0.734,1.941,1.2,2.948c0.469,1.004,1.011,2.017,1.618,3.019
		c1.212,2.007,2.69,3.968,4.35,5.752c1.649,1.794,3.505,3.387,5.444,4.687c0.97,0.65,1.963,1.223,2.951,1.723
		c0.979,0.508,1.987,0.908,2.925,1.27c0.486,0.164,0.952,0.321,1.396,0.471c0.465,0.128,0.906,0.25,1.321,0.365
		c0.855,0.204,1.624,0.358,2.291,0.453c0.656,0.106,1.231,0.13,1.602,0.168c0.378,0.031,0.602,0.025,0.602,0.025
		c1.589-0.042,2.914-1.302,2.997-2.916c0,0,0.012-0.224-0.009-0.602c-0.027-0.372-0.036-0.947-0.123-1.606
		c-0.076-0.669-0.21-1.442-0.39-2.303c-0.103-0.418-0.213-0.862-0.328-1.33c-0.137-0.447-0.282-0.918-0.432-1.408
		c-0.337-0.947-0.708-1.966-1.189-2.959c-0.472-1.001-1.018-2.01-1.641-2.997c-1.245-1.974-2.786-3.874-4.535-5.572
		c-1.737-1.708-3.656-3.24-5.629-4.507c-0.985-0.635-1.983-1.204-2.973-1.701c-0.993-0.494-1.972-0.923-2.913-1.281
		c-1.877-0.723-3.608-1.163-4.894-1.399c-0.632-0.128-1.191-0.169-1.543-0.225c-0.366-0.042-0.578-0.049-0.578-0.049
		C423.947,68.471,423.902,68.47,423.869,68.471z M354.348,63.646c-1.134,1.119-1.146,2.944-0.027,4.078c0,0,0.169,0.171,0.49,0.449
		c0.323,0.256,0.79,0.694,1.396,1.137c1.209,0.915,2.95,2.068,5.066,3.157c1.058,0.549,2.21,1.083,3.434,1.587
		c1.224,0.5,2.522,0.958,3.87,1.363c2.697,0.814,5.599,1.411,8.526,1.741c2.925,0.346,5.879,0.388,8.675,0.136
		c1.398-0.126,2.757-0.33,4.052-0.591c1.294-0.248,2.529-0.603,3.669-0.941c0.573-0.195,1.122-0.382,1.644-0.559
		c0.525-0.209,1.023-0.408,1.491-0.595c0.94-0.411,1.762-0.805,2.444-1.178c0.68-0.357,1.223-0.725,1.59-0.945
		c0.368-0.23,0.567-0.386,0.567-0.386c0.045-0.035,0.097-0.078,0.14-0.117c1.256-1.107,1.376-3.023,0.269-4.279
		c0,0-0.167-0.19-0.486-0.484c-0.32-0.284-0.785-0.746-1.388-1.223c-0.601-0.493-1.336-1.031-2.184-1.61
		c-0.425-0.27-0.878-0.557-1.355-0.86c-0.48-0.271-0.985-0.556-1.512-0.853c-1.059-0.543-2.206-1.121-3.432-1.603
		c-1.225-0.495-2.523-0.947-3.873-1.33c-2.701-0.765-5.612-1.269-8.551-1.47c-2.937-0.217-5.9-0.167-8.701,0.135
		c-1.4,0.149-2.76,0.359-4.056,0.624c-1.296,0.268-2.527,0.581-3.668,0.925c-2.282,0.679-4.206,1.49-5.563,2.166
		c-0.677,0.323-1.217,0.667-1.582,0.859c-0.366,0.213-0.564,0.35-0.564,0.35C354.602,63.42,354.465,63.532,354.348,63.646z
		 M229.222,35.491c-1.708-1.401-4.229-1.153-5.631,0.555c0,0-0.178,0.218-0.457,0.62c-0.251,0.4-0.701,0.994-1.124,1.736
		c-0.449,0.744-0.936,1.643-1.423,2.666c-0.495,1.024-0.986,2.173-1.435,3.418c-0.93,2.493-1.677,5.369-2.097,8.413
		c-0.428,3.045-0.535,6.259-0.299,9.44c0.215,3.183,0.819,6.328,1.76,9.241c0.943,2.912,2.237,5.59,3.653,7.856
		c0.374,0.564,0.733,1.105,1.074,1.62c0.381,0.511,0.743,0.995,1.083,1.45c0.729,0.905,1.409,1.69,2.032,2.331
		c0.602,0.642,1.188,1.136,1.547,1.477c0.177,0.171,0.347,0.298,0.452,0.385c0.107,0.087,0.162,0.131,0.162,0.131
		c1.71,1.386,4.225,1.148,5.641-0.547c0,0,0.045-0.054,0.134-0.16c0.086-0.105,0.228-0.263,0.369-0.464
		c0.288-0.403,0.767-1.001,1.235-1.747c0.488-0.748,1.005-1.649,1.546-2.678c0.246-0.512,0.508-1.057,0.784-1.631
		c0.236-0.57,0.484-1.17,0.743-1.796c0.954-2.495,1.709-5.372,2.074-8.411c0.364-3.039,0.353-6.242-0.049-9.407
		c-0.381-3.167-1.104-6.301-2.109-9.207c-0.998-2.907-2.284-5.585-3.676-7.853c-0.68-1.136-1.383-2.169-2.065-3.079
		c-0.674-0.911-1.325-1.699-1.909-2.343c-0.558-0.647-1.114-1.143-1.437-1.488c-0.351-0.341-0.568-0.521-0.568-0.521L229.222,35.491
		z M182.511,67.351c0,0-0.12,0.25-0.292,0.698c-0.146,0.439-0.437,1.112-0.667,1.916c-0.254,0.813-0.507,1.78-0.73,2.864
		c-0.231,1.087-0.428,2.291-0.561,3.573c-0.296,2.576-0.323,5.465,0.006,8.429c0.323,2.966,0.996,6.009,1.992,8.933
		c0.977,2.931,2.321,5.728,3.935,8.219c1.615,2.491,3.513,4.673,5.429,6.437c0.498,0.434,0.976,0.85,1.43,1.245
		c0.492,0.382,0.959,0.743,1.397,1.084c0.923,0.663,1.77,1.226,2.527,1.668c0.737,0.449,1.423,0.763,1.853,0.99
		c0.213,0.115,0.407,0.191,0.529,0.246c0.124,0.054,0.188,0.082,0.188,0.082c1.997,0.865,4.35,0.02,5.32-1.954
		c0,0,0.031-0.063,0.09-0.184c0.058-0.121,0.157-0.305,0.244-0.53c0.18-0.452,0.5-1.135,0.771-1.954
		c0.291-0.827,0.572-1.804,0.847-2.907c0.114-0.543,0.236-1.121,0.364-1.73c0.09-0.595,0.185-1.221,0.284-1.875
		c0.319-2.585,0.354-5.476-0.028-8.421c-0.383-2.944-1.168-5.946-2.321-8.812c-1.133-2.874-2.59-5.629-4.264-8.099
		c-1.667-2.472-3.557-4.657-5.451-6.429c-0.931-0.892-1.861-1.681-2.74-2.361c-0.872-0.682-1.691-1.255-2.411-1.711
		c-0.696-0.464-1.353-0.788-1.748-1.029c-0.422-0.231-0.675-0.343-0.675-0.343C185.829,64.509,183.465,65.364,182.511,67.351z
		 M369.058,246.649c-1.651,0.816-2.329,2.815-1.513,4.467c0,0,0.11,0.224,0.334,0.598c0.232,0.352,0.548,0.933,0.996,1.553
		c0.44,0.641,0.991,1.371,1.646,2.151c0.652,0.787,1.408,1.621,2.259,2.459c1.692,1.704,3.769,3.419,6.109,4.95
		c2.338,1.537,4.937,2.894,7.64,3.974c2.697,1.097,5.512,1.88,8.264,2.311c2.753,0.43,5.448,0.496,7.85,0.306
		c0.607-0.064,1.188-0.125,1.741-0.184c0.565-0.091,1.102-0.177,1.605-0.258c1.023-0.201,1.928-0.413,2.692-0.638
		c0.758-0.208,1.388-0.463,1.805-0.604c0.421-0.152,0.659-0.267,0.659-0.267c1.678-0.816,2.447-2.819,1.708-4.555
		c0,0-0.103-0.243-0.321-0.634c-0.221-0.381-0.528-0.987-0.963-1.642c-0.428-0.672-0.97-1.427-1.608-2.251
		c-0.326-0.392-0.674-0.81-1.04-1.25c-0.378-0.408-0.776-0.836-1.191-1.284c-1.685-1.723-3.759-3.445-6.116-4.931
		c-2.357-1.485-4.992-2.747-7.746-3.693c-2.747-0.963-5.598-1.65-8.37-2.03c-2.77-0.385-5.462-0.459-7.857-0.288
		c-1.193,0.072-2.31,0.203-3.319,0.368c-1.006,0.157-1.902,0.345-2.655,0.539c-0.745,0.173-1.365,0.403-1.772,0.515
		c-0.415,0.134-0.645,0.23-0.645,0.23C369.191,246.587,369.12,246.619,369.058,246.649z M369.837,210.559
		c0,0,0.246,0.026,0.674,0.035c0.412-0.01,1.064,0.032,1.805-0.017c0.757-0.032,1.641-0.11,2.613-0.25
		c0.977-0.134,2.04-0.331,3.147-0.607c2.234-0.528,4.641-1.378,6.995-2.55c2.358-1.167,4.668-2.652,6.774-4.373
		c2.119-1.707,4.008-3.682,5.556-5.793c0.775-1.055,1.461-2.148,2.061-3.243c0.61-1.084,1.094-2.216,1.534-3.27
		c0.2-0.55,0.392-1.077,0.574-1.578c0.158-0.529,0.308-1.031,0.45-1.503c0.253-0.977,0.448-1.86,0.571-2.63
		c0.135-0.756,0.175-1.427,0.226-1.858c0.043-0.439,0.041-0.703,0.041-0.703c-0.012-1.902-1.395-3.574-3.335-3.886
		c0,0-0.26-0.042-0.701-0.066c-0.433-0.015-1.103-0.078-1.871-0.059c-0.78,0.005-1.682,0.063-2.686,0.165
		c-0.488,0.068-1.007,0.14-1.554,0.216c-0.523,0.104-1.073,0.214-1.647,0.328c-1.108,0.275-2.301,0.582-3.465,1.02
		c-1.174,0.427-2.358,0.939-3.518,1.545c-2.321,1.211-4.56,2.778-6.569,4.613c-2.021,1.821-3.839,3.878-5.351,6.032
		c-1.515,2.149-2.72,4.399-3.582,6.527c-0.44,1.053-0.797,2.073-1.077,3.019c-0.286,0.94-0.497,1.802-0.644,2.545
		c-0.161,0.725-0.219,1.376-0.291,1.782c-0.056,0.424-0.068,0.671-0.068,0.671C366.41,208.631,367.862,210.354,369.837,210.559z
		 M335.048,218.208c0,0,0.239-0.051,0.645-0.173c0.384-0.135,1.01-0.295,1.691-0.568c0.701-0.261,1.506-0.605,2.374-1.033
		c0.874-0.424,1.808-0.934,2.759-1.53c1.927-1.178,3.911-2.709,5.74-4.525c1.835-1.813,3.519-3.91,4.936-6.165
		c1.433-2.246,2.561-4.672,3.326-7.121c0.383-1.224,0.67-2.457,0.875-3.666c0.218-1.201,0.303-2.409,0.371-3.53
		c0.008-0.576,0.016-1.128,0.024-1.652c-0.024-0.544-0.048-1.06-0.069-1.544c-0.082-0.992-0.188-1.878-0.324-2.636
		c-0.12-0.749-0.303-1.39-0.396-1.808c-0.104-0.424-0.192-0.67-0.192-0.67c-0.637-1.782-2.468-2.921-4.407-2.618
		c0,0-0.258,0.04-0.68,0.152c-0.412,0.118-1.062,0.264-1.777,0.517c-0.731,0.243-1.56,0.573-2.471,0.976
		c-0.436,0.213-0.9,0.439-1.39,0.678c-0.457,0.258-0.938,0.528-1.44,0.811c-0.952,0.596-1.972,1.248-2.923,2.014
		c-0.963,0.758-1.909,1.6-2.801,2.522c-1.785,1.843-3.377,3.994-4.664,6.326c-1.303,2.323-2.339,4.804-3.054,7.283
		c-0.721,2.475-1.117,4.95-1.23,7.205c-0.069,1.12-0.07,2.184-0.025,3.155c0.039,0.967,0.122,1.839,0.228,2.579
		c0.086,0.728,0.245,1.355,0.31,1.757c0.087,0.414,0.156,0.649,0.156,0.649C331.199,217.456,333.111,218.623,335.048,218.208z
		 M407.27,231.047c0,0,0.105,0.225,0.319,0.597c0.222,0.349,0.523,0.931,0.95,1.543c0.419,0.634,0.945,1.355,1.569,2.119
		c0.622,0.771,1.342,1.584,2.154,2.395c1.613,1.65,3.593,3.285,5.823,4.709c2.228,1.43,4.705,2.655,7.281,3.585
		c2.57,0.948,5.251,1.56,7.873,1.812c1.311,0.126,2.609,0.156,3.864,0.111c1.25-0.031,2.478-0.194,3.614-0.355
		c0.578-0.109,1.131-0.214,1.658-0.314c0.538-0.135,1.049-0.263,1.529-0.383c0.974-0.282,1.836-0.567,2.564-0.856
		c0.722-0.271,1.321-0.58,1.719-0.757c0.401-0.188,0.627-0.325,0.627-0.325c1.632-0.983,2.357-3.033,1.623-4.857
		c0,0-0.099-0.245-0.306-0.636c-0.211-0.38-0.504-0.988-0.918-1.638c-0.408-0.668-0.926-1.414-1.534-2.225
		c-0.311-0.385-0.642-0.794-0.992-1.225c-0.361-0.396-0.74-0.813-1.136-1.248c-0.811-0.812-1.693-1.68-2.674-2.457
		c-0.976-0.791-2.031-1.546-3.155-2.234c-2.246-1.376-4.757-2.498-7.381-3.286c-2.617-0.805-5.333-1.315-7.973-1.512
		c-2.638-0.203-5.203-0.087-7.484,0.262c-1.136,0.16-2.2,0.376-3.161,0.619c-0.958,0.236-1.811,0.495-2.528,0.75
		c-0.709,0.233-1.3,0.517-1.687,0.662c-0.395,0.169-0.614,0.285-0.614,0.285C407.158,227.112,406.426,229.248,407.27,231.047z
		 M319.155,264.467c0,0,0.099,0.261,0.308,0.7c0.22,0.413,0.51,1.095,0.94,1.825c0.419,0.754,0.952,1.615,1.592,2.538
		c0.637,0.93,1.383,1.918,2.232,2.915c1.685,2.025,3.79,4.076,6.199,5.925c2.406,1.856,5.116,3.515,7.964,4.859
		c2.84,1.364,5.839,2.369,8.804,2.968c2.965,0.598,5.901,0.774,8.543,0.645c0.669-0.051,1.31-0.1,1.919-0.147
		c0.626-0.084,1.22-0.163,1.778-0.237c1.136-0.194,2.144-0.404,3-0.634c0.848-0.211,1.56-0.481,2.029-0.628
		c0.234-0.071,0.426-0.157,0.552-0.206c0.127-0.051,0.192-0.077,0.192-0.077c2.034-0.816,3.065-3.112,2.299-5.18
		c0,0-0.024-0.066-0.072-0.194c-0.048-0.126-0.114-0.327-0.218-0.548c-0.205-0.447-0.483-1.156-0.895-1.926
		c-0.403-0.79-0.924-1.679-1.542-2.651c-0.319-0.464-0.658-0.957-1.016-1.478c-0.374-0.483-0.768-0.992-1.178-1.522
		c-1.676-2.046-3.776-4.105-6.208-5.904c-2.432-1.797-5.19-3.347-8.106-4.54c-2.908-1.211-5.955-2.108-8.946-2.648
		c-2.988-0.547-5.92-0.732-8.552-0.624c-1.309,0.039-2.542,0.148-3.659,0.299c-1.114,0.144-2.11,0.327-2.95,0.521
		c-0.83,0.171-1.529,0.413-1.984,0.527c-0.466,0.139-0.726,0.241-0.726,0.241C319.401,260.09,318.371,262.401,319.155,264.467z
		 M405.406,202.462c-0.829,1.541-0.251,3.463,1.29,4.292c0,0,0.211,0.113,0.595,0.282c0.378,0.146,0.95,0.425,1.646,0.662
		c0.702,0.257,1.542,0.523,2.491,0.77c0.951,0.254,2.009,0.487,3.146,0.672c1.139,0.192,2.356,0.338,3.627,0.429
		c1.27,0.087,2.592,0.109,3.94,0.061c2.698-0.092,5.504-0.468,8.238-1.117c2.739-0.633,5.397-1.576,7.811-2.76
		c1.207-0.592,2.352-1.248,3.42-1.938c1.071-0.677,2.052-1.442,2.955-2.158c0.444-0.384,0.87-0.753,1.275-1.103
		c0.397-0.383,0.773-0.746,1.126-1.088c0.697-0.722,1.295-1.387,1.775-1.984c0.484-0.581,0.841-1.127,1.093-1.468
		c0.249-0.351,0.373-0.572,0.373-0.572c0.875-1.561,0.37-3.553-1.169-4.497c0,0-0.216-0.132-0.604-0.318
		c-0.386-0.175-0.964-0.478-1.669-0.75c-0.71-0.288-1.556-0.577-2.517-0.868c-0.475-0.126-0.981-0.26-1.513-0.401
		c-0.524-0.109-1.076-0.223-1.651-0.342c-1.137-0.185-2.366-0.376-3.632-0.446c-1.269-0.083-2.589-0.098-3.931-0.027
		c-2.685,0.142-5.466,0.613-8.166,1.395c-2.704,0.765-5.338,1.803-7.739,3.037c-1.201,0.615-2.344,1.277-3.411,1.972
		c-1.066,0.699-2.058,1.419-2.959,2.141c-0.903,0.715-1.714,1.434-2.421,2.119c-0.708,0.678-1.313,1.319-1.801,1.886
		c-0.493,0.546-0.856,1.068-1.116,1.38c-0.253,0.334-0.382,0.536-0.382,0.536C405.486,202.321,405.443,202.394,405.406,202.462z
		 M489.846,236.304c1.753-0.808,2.519-2.883,1.712-4.636c0,0-0.11-0.24-0.337-0.642c-0.236-0.379-0.554-1.004-1.01-1.673
		c-0.447-0.691-1.01-1.481-1.681-2.327c-0.668-0.853-1.444-1.759-2.322-2.674c-1.743-1.858-3.895-3.741-6.33-5.441
		c-2.433-1.705-5.15-3.231-7.984-4.47c-2.827-1.256-5.79-2.185-8.696-2.74c-2.907-0.555-5.764-0.725-8.318-0.613
		c-0.646,0.045-1.264,0.088-1.853,0.129c-0.602,0.075-1.174,0.146-1.711,0.212c-1.091,0.174-2.057,0.364-2.875,0.573
		c-0.81,0.191-1.486,0.436-1.933,0.57c-0.451,0.145-0.707,0.257-0.707,0.257c-1.803,0.796-2.679,2.885-1.95,4.735
		c0,0,0.102,0.259,0.321,0.68c0.223,0.41,0.531,1.059,0.971,1.766c0.434,0.724,0.986,1.539,1.638,2.431
		c0.334,0.425,0.69,0.878,1.065,1.355c0.389,0.443,0.798,0.91,1.225,1.396c1.735,1.878,3.883,3.769,6.338,5.421
		c2.455,1.652,5.213,3.078,8.105,4.178c2.885,1.116,5.888,1.946,8.817,2.448c2.926,0.508,5.78,0.686,8.326,0.594
		c1.267-0.032,2.457-0.129,3.532-0.264c1.072-0.129,2.028-0.293,2.832-0.469c0.795-0.154,1.46-0.374,1.895-0.477
		c0.444-0.126,0.691-0.219,0.691-0.219C489.685,236.374,489.77,236.339,489.846,236.304z"/>
</g>
<g id="Layer_1">
</g>
</svg>
