<?xml version="1.0" encoding="utf-8"?>
<!-- Generator: Adobe Illustrator 18.0.0, SVG Export Plug-In . SVG Version: 6.00 Build 0)  -->
<!DOCTYPE svg PUBLIC "-//W3C//DTD SVG 1.1 Tiny//EN" "http://www.w3.org/Graphics/SVG/1.1/DTD/svg11-tiny.dtd">
<svg version="1.1" baseProfile="tiny" id="Layer_1" xmlns="http://www.w3.org/2000/svg" xmlns:xlink="http://www.w3.org/1999/xlink"
	 x="0px" y="0px" width="511.9px" height="511.9px" viewBox="0 0 511.9 511.9" xml:space="preserve">
<path fill="#FFFFFF" d="M221.6,65.2c0-0.6-0.5-1-1.1-1c-0.6,0-1,0.4-1.1,1h0v1.5h0v0c0,0.6,0.5,1.1,1.1,1.1c0.6,0,1.1-0.5,1.1-1.1v0
	l0,0L221.6,65.2L221.6,65.2z"/>
<path fill="#FFFFFF" d="M88.5,473.2c4.1,2.6,8.7,3.8,13.2,3.8c5.3,0,10.6-1.7,15-5c0,0,0,0,0,0c-1.1-0.9-2-1.8-2.9-2.8
	c-7.1,5-16.8,5.2-24.2,0c0.9-4.8,0.3-9.8-1.6-14.4c-1.5-0.2-3-0.4-4.8-0.7c3.6,6.3,3.8,14.3,0.1,20.8c0.8,0.5,1.6,1,2.4,1.6
	c0.3,0.2,0.6,0.4,1,0.6C87.4,475.8,88,474.5,88.5,473.2z"/>
<path fill="#FFFFFF" d="M464.7,416c-0.1-0.4-0.2-0.7-0.3-1.1c-1.4,0.5-2.7,1-4,1.7c-2.9-10.1-11.7-17-21.8-17.9
	c0.2,1.4,0.3,2.7,0.3,4c3.1,0.4,6.2,1.4,8.9,3.2c4.7,3,7.9,7.6,9.1,13c-3.9,3-6.8,7.1-8.4,11.8c1,1.1,2,2.3,3.1,3.7
	c1.5-7.1,6.7-13.2,13.9-15.6C465.2,417.8,464.9,416.9,464.7,416z"/>
</svg>
