<?xml version="1.0" encoding="iso-8859-1"?>
<!-- Generator: Adobe Illustrator 19.1.0, SVG Export Plug-In . SVG Version: 6.00 Build 0)  -->
<!DOCTYPE svg PUBLIC "-//W3C//DTD SVG 1.1//EN" "http://www.w3.org/Graphics/SVG/1.1/DTD/svg11.dtd">
<svg version="1.1" xmlns="http://www.w3.org/2000/svg" xmlns:xlink="http://www.w3.org/1999/xlink" x="0px" y="0px"
	 viewBox="0 0 509.04 509.04" enable-background="new 0 0 509.04 509.04" xml:space="preserve">
<g id="Layer_12">
	<path fill="#FFD3B6" d="M309.736,82.083c-0.072-0.019-0.144-0.028-0.216-0.045l0.471-1.205
		c5.945-22.692-7.655-52.267-30.355-58.214c-22.692-5.945-45.884,13.99-51.829,36.682l-0.179,1.274
		c-0.026-0.007-0.05-0.017-0.076-0.024c-4.973-1.303-10.066,1.677-11.37,6.652s1.674,10.07,6.647,11.372
		c0.745,0.195,1.491,0.284,2.228,0.295l-0.391,2.786c-4.413,16.845,2.642,33.989,16.32,43.181c-0.375,1.001-0.648,2.056-0.772,3.167
		l-2.337,21.008l33.494,3.727l2.337-21.008c0.058-0.522,0.076-1.038,0.073-1.551c13.252-3.658,24.255-14.068,27.99-28.322
		l1.037-2.652c0.68,0.383,1.414,0.695,2.205,0.902c4.973,1.303,10.066-1.677,11.37-6.652
		C317.687,88.48,314.709,83.386,309.736,82.083z"/>
</g>
<g id="Layer_1">
</g>
</svg>
