<svg xmlns="http://www.w3.org/2000/svg" viewBox="0 0 512 512" enable-background="new 0 0 512 512"><path fill="#597B91" d="M377.485 489.34c-2.313 1.195-4.786 1.76-7.222 1.762-5.714 0-11.228-3.114-14.028-8.542l-100.26-194.246-100.26 194.246c-3.996 7.74-13.51 10.78-21.25 6.78-7.742-3.994-10.778-13.508-6.783-21.25l101.672-196.98c-2.65-4.488-4.178-9.72-4.178-15.31 0-16.65 13.5-30.15 30.15-30.15s30.15 13.5 30.15 30.15c0 5.097-1.27 9.896-3.503 14.106L384.267 468.09c3.996 7.74.96 17.256-6.782 21.25z"/></svg>