<?xml version="1.0" encoding="iso-8859-1"?>
<!-- Generator: Adobe Illustrator 19.1.0, SVG Export Plug-In . SVG Version: 6.00 Build 0)  -->
<!DOCTYPE svg PUBLIC "-//W3C//DTD SVG 1.1//EN" "http://www.w3.org/Graphics/SVG/1.1/DTD/svg11.dtd">
<svg version="1.1" xmlns="http://www.w3.org/2000/svg" xmlns:xlink="http://www.w3.org/1999/xlink" x="0px" y="0px"
	 viewBox="0 0 512 512" enable-background="new 0 0 512 512" xml:space="preserve">
<g id="Layer_4">
	<path fill="#FF473E" d="M404.559,328.013v7.623c0,12.229-1.87,24.042-5.336,35.169H112.777c-3.466-11.127-5.336-22.94-5.336-35.169
		v-7.623H404.559z M107.441,174.843v12.487h297.118v-12.487c0-12.229-1.87-24.042-5.336-35.169H112.777
		C109.311,150.801,107.441,162.614,107.441,174.843z M393.338,124.551c-19.046-40.527-60.3-68.766-107.836-68.766h-59.002
		c-47.536,0-88.791,28.239-107.836,68.766H393.338z M118.662,385.929c19.046,40.527,60.3,68.766,107.836,68.766h59.002
		c47.536,0,88.791-28.239,107.836-68.766H118.662z M107.441,265.233v47.657h297.118v-47.657H107.441z M107.441,202.453v47.657
		h297.118v-47.657H107.441z"/>
</g>
<g id="Layer_1">
</g>
</svg>
