<?xml version="1.0" encoding="iso-8859-1"?>
<!-- Generator: Adobe Illustrator 19.1.0, SVG Export Plug-In . SVG Version: 6.00 Build 0)  -->
<!DOCTYPE svg PUBLIC "-//W3C//DTD SVG 1.1//EN" "http://www.w3.org/Graphics/SVG/1.1/DTD/svg11.dtd">
<svg version="1.1" xmlns="http://www.w3.org/2000/svg" xmlns:xlink="http://www.w3.org/1999/xlink" x="0px" y="0px"
	 viewBox="0 0 512 512" enable-background="new 0 0 512 512" xml:space="preserve">
<g id="Layer_2">
	<path fill="#75432E" d="M383.446,131.739c0,0,0.913-1.272,2.512-3.498c0.4-0.556,0.842-1.173,1.324-1.843
		c0.506-0.687,0.93-1.349,1.684-2.252c1.398-1.721,2.975-3.663,4.696-5.782c1.757-2.029,3.72-4.059,5.776-6.286
		c1.05-1.09,2.231-2.139,3.386-3.246c0.584-0.548,1.175-1.102,1.772-1.662c0.595-0.561,1.192-1.129,1.857-1.65
		c2.609-2.122,5.23-4.391,8.204-6.371c2.848-2.125,6.013-3.933,9.127-5.8c3.234-1.669,6.45-3.395,9.79-4.708
		c0.826-0.347,1.649-0.693,2.468-1.037c0.82-0.342,1.663-0.597,2.488-0.895c1.659-0.556,3.284-1.178,4.914-1.641
		c1.633-0.449,3.239-0.891,4.811-1.323c1.574-0.415,3.128-0.692,4.635-1.025c0.754-0.157,1.498-0.312,2.231-0.465
		c0.733-0.115,1.455-0.227,2.165-0.338c1.42-0.216,2.794-0.44,4.11-0.618c2.619-0.251,5.042-0.578,7.152-0.675
		c2.111-0.108,3.972-0.264,5.47-0.275c3.007-0.053,4.725-0.084,4.725-0.084l0.216-0.004c8.839-0.157,16.131,6.882,16.288,15.721
		c0.157,8.839-6.882,16.131-15.721,16.288c-0.243,0.004-0.542,0.001-0.783-0.005c0,0-1.367-0.043-3.76-0.117
		c-1.207-0.058-2.608,0.007-4.256,0c-1.652-0.018-3.429,0.159-5.425,0.228c-0.972,0.097-1.984,0.198-3.032,0.303
		c-0.525,0.051-1.059,0.104-1.601,0.157c-0.529,0.085-1.066,0.171-1.611,0.258c-1.084,0.188-2.228,0.312-3.352,0.552
		c-1.123,0.245-2.27,0.496-3.436,0.751c-1.168,0.258-2.3,0.65-3.485,0.967c-0.584,0.177-1.193,0.31-1.77,0.523
		c-0.579,0.211-1.16,0.424-1.744,0.637c-2.38,0.765-4.653,1.884-6.993,2.9c-2.237,1.226-4.553,2.335-6.669,3.78
		c-2.208,1.275-4.202,2.881-6.213,4.321c-0.512,0.346-0.978,0.757-1.444,1.16c-0.469,0.4-0.933,0.796-1.392,1.187
		c-0.912,0.795-1.846,1.518-2.692,2.319c-1.646,1.642-3.304,3.178-4.689,4.618c-1.318,1.448-2.526,2.775-3.596,3.951
		c-0.522,0.515-1.108,1.334-1.61,1.955c-0.511,0.65-0.98,1.247-1.403,1.786c-1.695,2.157-2.663,3.389-2.663,3.389l-0.359,0.457
		c-4.718,6.004-13.41,7.046-19.413,2.328C380.296,146.087,379.168,137.717,383.446,131.739z"/>
</g>
<g id="Layer_1">
</g>
</svg>
