<svg xmlns="http://www.w3.org/2000/svg" viewBox="0 0 512 512" enable-background="new 0 0 512 512"><path fill="#597B91" d="M360.755 249.793h-42.823c-3.976 0-7.2-3.224-7.2-7.2v-44.59c0-3.977 3.224-7.2 7.2-7.2h42.823c3.976 0 7.2 3.223 7.2 7.2v44.59c0 3.976-3.224 7.2-7.2 7.2zm107.28-7.2v-44.59c0-3.977-3.223-7.2-7.2-7.2h-42.822c-3.976 0-7.2 3.223-7.2 7.2v44.59c0 3.976 3.224 7.2 7.2 7.2h42.823c3.977 0 7.2-3.224 7.2-7.2zm-100.08 95.632v-44.59c0-3.977-3.224-7.2-7.2-7.2h-42.823c-3.976 0-7.2 3.223-7.2 7.2v44.59c0 3.976 3.224 7.2 7.2 7.2h42.823c3.976 0 7.2-3.224 7.2-7.2zm100.08 0v-44.59c0-3.977-3.223-7.2-7.2-7.2h-42.822c-3.976 0-7.2 3.223-7.2 7.2v44.59c0 3.976 3.224 7.2 7.2 7.2h42.823c3.977 0 7.2-3.224 7.2-7.2zm-200.16-95.632v-44.59c0-3.977-3.225-7.2-7.2-7.2H217.85c-3.975 0-7.2 3.223-7.2 7.2v44.59c0 3.976 3.225 7.2 7.2 7.2h42.824c3.976 0 7.2-3.224 7.2-7.2zm0 95.632v-44.59c0-3.977-3.225-7.2-7.2-7.2H217.85c-3.975 0-7.2 3.223-7.2 7.2v44.59c0 3.976 3.225 7.2 7.2 7.2h42.824c3.976 0 7.2-3.224 7.2-7.2zm100.08-191.434V102.2c0-3.976-3.224-7.2-7.2-7.2h-42.823c-3.976 0-7.2 3.224-7.2 7.2v44.59c0 3.977 3.224 7.2 7.2 7.2h42.823c3.976 0 7.2-3.223 7.2-7.2zm100.08 0V102.2c0-3.976-3.223-7.2-7.2-7.2h-42.822c-3.976 0-7.2 3.224-7.2 7.2v44.59c0 3.977 3.224 7.2 7.2 7.2h42.823c3.977 0 7.2-3.223 7.2-7.2zm-200.16 0V102.2c0-3.976-3.225-7.2-7.2-7.2H217.85c-3.975 0-7.2 3.224-7.2 7.2v44.59c0 3.977 3.225 7.2 7.2 7.2h42.824c3.976 0 7.2-3.223 7.2-7.2zm138.153 231.312H272.804c-5.442 0-9.854 4.412-9.854 9.854v16.835c0 2.607 2.113 4.72 4.72 4.72h68.246V512h7V409.51h68.248c2.606 0 4.72-2.113 4.72-4.72v-16.834c0-5.442-4.413-9.854-9.856-9.854z"/></svg>