<svg xmlns="http://www.w3.org/2000/svg" viewBox="0 0 512 512" enable-background="new 0 0 512 512"><path fill="#F4F3EF" d="M336.503 118.088v69.878c0 .817-1.717 1.48-3.834 1.48H179.183c-2.118 0-3.834-.663-3.834-1.48v-69.878c0-.817 1.717-1.48 3.834-1.48H332.67c2.116 0 3.833.662 3.833 1.48zm19.617 91.696H155.732c-2.765 0-5.006.865-5.006 1.932v91.232c0 1.067 2.24 1.932 5.006 1.932H356.12c2.765 0 5.006-.865 5.006-1.932v-91.232c0-1.067-2.24-1.932-5.006-1.932zm50.305 138.188H105.427c-4.153 0-7.52 1.004-7.52 2.243v105.883c0 1.24 3.368 2.243 7.52 2.243h300.997c4.153 0 7.52-1.003 7.52-2.242V350.215c0-1.24-3.366-2.243-7.52-2.243z"/></svg>