<?xml version="1.0" encoding="iso-8859-1"?>
<!-- Generator: Adobe Illustrator 18.1.1, SVG Export Plug-In . SVG Version: 6.00 Build 0)  -->
<!DOCTYPE svg PUBLIC "-//W3C//DTD SVG 1.1//EN" "http://www.w3.org/Graphics/SVG/1.1/DTD/svg11.dtd">
<svg version="1.1" xmlns="http://www.w3.org/2000/svg" xmlns:xlink="http://www.w3.org/1999/xlink" x="0px" y="0px"
	 viewBox="0 0 512 512" enable-background="new 0 0 512 512" xml:space="preserve">
<g id="Layer_5">
	<path fill="#FAC33A" d="M350.849,258.982c-4.834,0-9.668-1.844-13.356-5.532l-10.609-10.609
		c-7.377-7.376-7.377-19.336-0.001-26.713c7.377-7.377,19.337-7.377,26.714,0l10.609,10.609c7.377,7.376,7.377,19.336,0.001,26.713
		C360.518,257.139,355.683,258.982,350.849,258.982z M430.033,127.673c7.376-7.377,7.376-19.337-0.001-26.713l-10.609-10.609
		c-7.377-7.377-19.337-7.376-26.714,0c-7.376,7.377-7.376,19.337,0.001,26.713l10.609,10.609c3.688,3.688,8.522,5.532,13.356,5.532
		S426.345,131.362,430.033,127.673z M328.135,128.772c7.376-7.377,7.376-19.337-0.001-26.713L317.524,91.45
		c-7.377-7.377-19.337-7.376-26.714,0c-7.376,7.377-7.376,19.337,0.001,26.713l10.609,10.609c3.688,3.688,8.522,5.532,13.356,5.532
		S324.446,132.461,328.135,128.772z M381.79,178.795c7.376-7.377,7.376-19.337-0.001-26.713l-10.609-10.609
		c-7.377-7.377-19.337-7.376-26.714,0c-7.376,7.377-7.376,19.337,0.001,26.713l10.609,10.609c3.688,3.688,8.522,5.532,13.356,5.532
		S378.102,182.483,381.79,178.795z M302.027,196.7c7.376-7.377,7.376-19.337-0.001-26.713l-10.609-10.609
		c-7.377-7.377-19.337-7.376-26.714,0c-7.376,7.377-7.376,19.337,0.001,26.713l10.609,10.609c3.688,3.688,8.522,5.532,13.356,5.532
		S298.339,200.389,302.027,196.7z M224.02,228.439c7.376-7.377,7.376-19.337,0-26.714l-10.609-10.609
		c-7.377-7.377-19.337-7.377-26.714,0c-7.376,7.377-7.376,19.337,0,26.714l10.609,10.609c3.688,3.688,8.523,5.532,13.357,5.532
		S220.331,232.127,224.02,228.439z M277.676,278.461c7.376-7.377,7.376-19.337-0.001-26.713l-10.609-10.609
		c-7.377-7.377-19.337-7.376-26.713,0c-7.377,7.377-7.376,19.337,0,26.713l10.609,10.609c3.688,3.688,8.522,5.532,13.356,5.532
		S273.987,282.149,277.676,278.461z M248.371,119.964l-6.846-6.846c-2.857,2.168-5.703,4.361-8.526,6.597
		c-7.093,5.591-14.07,11.398-20.918,17.387l9.576,9.576c3.688,3.688,8.523,5.532,13.357,5.532s9.668-1.844,13.357-5.532
		C255.748,139.301,255.748,127.341,248.371,119.964z M335.416,56.504c0.764,3.348,2.43,6.532,5.038,9.14l10.609,10.609
		c3.688,3.688,8.522,5.532,13.356,5.532s9.668-1.844,13.356-5.532c7.377-7.377,7.377-19.337,0-26.714l-7.477-7.477
		c-2.148,0.786-4.307,1.586-6.489,2.418C354.563,48.031,345.059,52.048,335.416,56.504z M442,33.064l-6.656-6.657
		c-0.805-0.805-1.672-1.506-2.574-2.135c-8.141,1.62-17.39,3.765-27.402,6.521c-3.866,7.157-2.785,16.279,3.261,22.326l6.656,6.657
		c3.688,3.689,8.522,5.533,13.357,5.533c4.834,0,9.668-1.844,13.355-5.531C449.376,52.401,449.377,40.441,442,33.064z"/>
</g>
<g id="Layer_1">
</g>
</svg>
