<?xml version="1.0" encoding="iso-8859-1"?>
<!-- Generator: Adobe Illustrator 19.1.0, SVG Export Plug-In . SVG Version: 6.00 Build 0)  -->
<!DOCTYPE svg PUBLIC "-//W3C//DTD SVG 1.1//EN" "http://www.w3.org/Graphics/SVG/1.1/DTD/svg11.dtd">
<svg version="1.1" xmlns="http://www.w3.org/2000/svg" xmlns:xlink="http://www.w3.org/1999/xlink" x="0px" y="0px"
	 viewBox="0 0 512 512" enable-background="new 0 0 512 512" xml:space="preserve">
<g id="Layer_2">
	<path fill="#050505" d="M183.138,68.91c-0.794-5.335-1.126-10.751-1.126-15.011v-4.353c0-15.276,13.601-20.711,16.848-22.798
		c0.451-0.29,0.919-0.506,1.417-0.654c4.147-1.239,25.692-7.219,55.35-7.219c29.989,0,52.293,6.113,56.208,7.258
		c0.418,0.122,0.812,0.301,1.191,0.543c3.032,1.933,16.961,7.594,16.961,22.87v4.353c0,4.261-0.288,9.677-1.024,15.011H183.138z
		 M183.036,442.591c-0.736,5.11-1.024,10.298-1.024,14.379v4.17c0,14.632,13.929,20.055,16.961,21.907
		c0.379,0.232,0.773,0.403,1.191,0.52c3.916,1.097,26.22,6.953,56.208,6.953c29.659,0,51.203-5.728,55.35-6.915
		c0.497-0.142,0.966-0.349,1.417-0.627c3.248-1.999,16.848-7.206,16.848-21.838v-4.17c0-4.081-0.332-9.269-1.126-14.379H183.036z"/>
</g>
<g id="Layer_1">
</g>
</svg>
