<?xml version="1.0" encoding="iso-8859-1"?>
<!-- Generator: Adobe Illustrator 18.1.0, SVG Export Plug-In . SVG Version: 6.00 Build 0)  -->
<!DOCTYPE svg PUBLIC "-//W3C//DTD SVG 1.1//EN" "http://www.w3.org/Graphics/SVG/1.1/DTD/svg11.dtd">
<svg version="1.1" id="Layer_2" xmlns="http://www.w3.org/2000/svg" xmlns:xlink="http://www.w3.org/1999/xlink" x="0px" y="0px"
	 viewBox="0 0 512 512" enable-background="new 0 0 512 512" xml:space="preserve">
<path fill="#42CC4B" d="M333.026,233.9c56.227-10.483,156.791-36.787,108.289-85.228c-28.98-28.944-35.552-11.975-61.457-37.805
	c-25.856-25.87-8.898-32.463-37.877-61.406c-47.84-47.78-73.881,49.489-84.533,106.148C246.964,99.381,220.66-1.183,172.218,47.319
	c-28.943,28.98-11.976,35.551-37.803,61.455c-25.872,25.86-32.465,8.9-61.408,37.88c-47.78,47.84,49.489,73.881,106.148,84.533
	c-56.227,10.483-156.791,36.787-108.289,85.228c28.98,28.944,35.552,11.975,61.457,37.805c25.856,25.87,8.898,32.463,37.877,61.406
	c37.305,37.258,61.353-13.682,75.188-64.79c-0.178,4.356-0.305,8.817-0.372,13.351c-0.047,6.199-0.015,12.527,0.275,18.901
	c0.315,6.374,0.728,12.785,1.527,19.132c0.785,6.343,1.744,12.625,3.116,18.703c0.163,0.761,0.325,1.519,0.487,2.273
	c0.188,0.753,0.375,1.502,0.56,2.248c0.381,1.494,0.759,2.973,1.133,4.437c0.434,1.459,0.864,2.902,1.288,4.328
	c0.217,0.713,0.418,1.425,0.647,2.128c0.242,0.7,0.483,1.396,0.721,2.087c0.484,1.384,0.961,2.749,1.431,4.094
	c0.533,1.333,1.059,2.646,1.575,3.937c0.984,2.602,2.221,5.034,3.289,7.414c1.131,2.357,2.364,4.566,3.474,6.697
	c1.242,2.076,2.42,4.046,3.527,5.897c1.221,1.798,2.363,3.481,3.419,5.037c1.065,1.556,2.182,2.892,3.127,4.148
	c1.879,2.528,3.591,4.326,4.689,5.616c1.121,1.273,1.718,1.951,1.718,1.951c0.483,0.54,1.069,1.133,1.629,1.622
	c7.304,6.377,18.395,5.625,24.772-1.679s5.625-18.395-1.679-24.772l-0.505-0.441c0,0-0.476-0.416-1.368-1.195
	c-0.877-0.797-2.274-1.863-3.822-3.47c-0.78-0.797-1.72-1.614-2.623-2.623c-0.912-1.009-1.898-2.101-2.952-3.267
	c-0.994-1.239-2.051-2.558-3.165-3.948c-1.024-1.476-2.177-2.978-3.274-4.643c-1.043-1.704-2.26-3.399-3.291-5.332
	c-0.542-0.951-1.093-1.918-1.653-2.899c-0.517-1.017-1.042-2.05-1.573-3.097c-0.267-0.525-0.537-1.054-0.808-1.586
	c-0.261-0.539-0.499-1.097-0.754-1.651c-0.505-1.113-1.015-2.24-1.532-3.379c-0.473-1.17-0.95-2.353-1.433-3.548
	c-0.24-0.6-0.482-1.203-0.725-1.809c-0.221-0.618-0.444-1.239-0.667-1.862c-1.857-4.96-3.426-10.302-4.88-15.818
	c-1.469-5.513-2.625-11.275-3.705-17.083c-1.056-5.817-1.883-11.727-2.628-17.578c-0.7-5.863-1.29-11.676-1.763-17.335
	c-0.009-0.107-0.017-0.211-0.026-0.317c13.573,53.399,38.251,111.427,77.367,72.263c28.943-28.98,11.976-35.551,37.803-61.455
	c25.872-25.86,32.465-8.9,61.408-37.88C486.954,270.593,389.685,244.552,333.026,233.9z"/>
</svg>
