<?xml version="1.0" encoding="iso-8859-1"?>
<!-- Generator: Adobe Illustrator 18.1.1, SVG Export Plug-In . SVG Version: 6.00 Build 0)  -->
<!DOCTYPE svg PUBLIC "-//W3C//DTD SVG 1.1//EN" "http://www.w3.org/Graphics/SVG/1.1/DTD/svg11.dtd">
<svg version="1.1" xmlns="http://www.w3.org/2000/svg" xmlns:xlink="http://www.w3.org/1999/xlink" x="0px" y="0px"
	 viewBox="0 0 512 512" enable-background="new 0 0 512 512" xml:space="preserve">
<g id="Layer_8">
	<path fill="#FF6E83" d="M204.224,146.555c-1.898,0-3.796-0.724-5.244-2.172l-4.615-4.615c-2.896-2.896-2.896-7.592,0-10.488
		c2.896-2.896,7.592-2.896,10.488,0l4.615,4.615c2.896,2.896,2.896,7.592,0,10.488C208.02,145.832,206.122,146.555,204.224,146.555z
		 M226.963,212.106l4.708-3.716c3.215-2.538,3.764-7.201,1.226-10.416c-2.539-3.215-7.202-3.764-10.416-1.226l-4.708,3.716
		c-3.215,2.538-3.764,7.201-1.226,10.416c1.463,1.854,3.634,2.821,5.826,2.821C223.982,213.702,225.603,213.18,226.963,212.106z
		 M307.588,152.487c1.456-3.828-0.467-8.112-4.295-9.568l-5.605-2.132c-3.828-1.455-8.112,0.466-9.568,4.295
		c-1.456,3.828,0.467,8.112,4.295,9.568l5.605,2.132c0.868,0.33,1.759,0.486,2.636,0.486
		C303.645,157.269,306.462,155.447,307.588,152.487z M268.499,114.636l4.708-3.716c3.215-2.538,3.765-7.201,1.227-10.416
		c-2.538-3.215-7.201-3.765-10.416-1.227l-4.708,3.716c-3.215,2.538-3.764,7.201-1.227,10.416c1.464,1.854,3.634,2.822,5.826,2.822
		C265.518,116.231,267.139,115.71,268.499,114.636z"/>
</g>
<g id="Layer_1">
</g>
</svg>
