<?xml version="1.0" encoding="iso-8859-1"?>
<!-- Generator: Adobe Illustrator 18.1.1, SVG Export Plug-In . SVG Version: 6.00 Build 0)  -->
<!DOCTYPE svg PUBLIC "-//W3C//DTD SVG 1.1//EN" "http://www.w3.org/Graphics/SVG/1.1/DTD/svg11.dtd">
<svg version="1.1" xmlns="http://www.w3.org/2000/svg" xmlns:xlink="http://www.w3.org/1999/xlink" x="0px" y="0px"
	 viewBox="0 0 512 512" enable-background="new 0 0 512 512" xml:space="preserve">
<g id="Layer_2">
	<path fill="#E8E8E6" d="M32.439,296.116L1.838,181.914c-1.029-3.841,1.25-7.789,5.091-8.818l193.004-51.715
		c3.841-1.029,7.789,1.25,8.818,5.091l30.601,114.203c1.029,3.841-1.25,7.789-5.091,8.818L41.257,301.208
		C37.416,302.237,33.468,299.957,32.439,296.116z M480.795,296.116l30.601-114.203c1.029-3.841-1.25-7.789-5.091-8.818L313.3,121.38
		c-3.841-1.029-7.789,1.25-8.818,5.091l-30.601,114.203c-1.029,3.841,1.25,7.789,5.091,8.818l193.004,51.715
		C475.818,302.237,479.766,299.957,480.795,296.116z"/>
</g>
<g id="Layer_3">
	<path fill="#C1C5C6" d="M319.655,102.746l-53.18,198.035l43.846,163.145c1.361,5.067-1.643,10.278-6.709,11.641
		c-0.826,0.222-1.655,0.327-2.472,0.327c-4.191,0-8.028-2.795-9.169-7.036l-35.33-131.458l-35.301,131.456
		c-1.139,4.241-4.977,7.038-9.169,7.038c-0.816,0-1.644-0.105-2.47-0.327c-5.067-1.36-8.072-6.571-6.711-11.639l43.81-163.143
		l-53.223-198.036c-1.362-5.067,1.642-10.278,6.708-11.64c5.066-1.365,10.279,1.642,11.64,6.708l44.708,166.35l44.671-166.348
		c1.36-5.066,6.57-8.073,11.639-6.711C318.012,92.468,321.017,97.679,319.655,102.746z"/>
</g>
<g id="Layer_4">
	<path fill="#FF473E" d="M158.098,201.245c5.864,21.884-7.123,44.379-29.007,50.242s-44.379-7.123-50.242-29.007
		c-5.864-21.884,7.123-44.379,29.007-50.242C129.74,166.374,152.235,179.361,158.098,201.245z M204.223,105.77
		c5.068-1.358,8.076-6.567,6.718-11.635l-2.535-9.462c-1.358-5.068-6.567-8.079-11.635-6.718c-5.068,1.358-8.076,6.567-6.718,11.635
		l2.535,9.462c1.137,4.245,4.976,7.044,9.17,7.044C202.572,106.096,203.399,105.99,204.223,105.77z M355.135,201.245
		c-5.864,21.884,7.123,44.379,29.007,50.242c21.884,5.864,44.379-7.123,50.242-29.007c5.864-21.884-7.123-44.379-29.008-50.242
		C383.493,166.374,360.999,179.361,355.135,201.245z M320.646,99.052l2.535-9.462c1.357-5.068-1.65-10.277-6.718-11.635
		c-5.07-1.358-10.277,1.65-11.636,6.718l-2.535,9.462c-1.357,5.068,1.65,10.277,6.718,11.635c0.824,0.221,1.65,0.326,2.465,0.326
		C315.67,106.096,319.509,103.296,320.646,99.052z"/>
</g>
</svg>
