<?xml version="1.0" encoding="iso-8859-1"?>
<!-- Generator: Adobe Illustrator 19.1.0, SVG Export Plug-In . SVG Version: 6.00 Build 0)  -->
<!DOCTYPE svg PUBLIC "-//W3C//DTD SVG 1.1//EN" "http://www.w3.org/Graphics/SVG/1.1/DTD/svg11.dtd">
<svg version="1.1" xmlns="http://www.w3.org/2000/svg" xmlns:xlink="http://www.w3.org/1999/xlink" x="0px" y="0px"
	 viewBox="0 0 512 512" enable-background="new 0 0 512 512" xml:space="preserve">
<g id="Layer_2">
	<circle fill="#A5B0B5" cx="256" cy="259.978" r="229.489"/>
</g>
<g id="Layer_3">
	<path fill="#2B3B47" d="M169.075,225.398v30.911h-0.046c0,0.046,0.046,0.086,0.046,0.086c0,12.14-9.85,21.989-21.989,21.989
		c-12.14,0-21.989-9.85-21.989-22.013c0,0,0-0.016,0-0.062h-0.094v-30.911h0.265c0.981-11.26,10.301-20.12,21.818-20.12
		c11.485,0,20.805,8.86,21.772,20.12H169.075z M386.82,225.398c-0.967-11.26-10.301-20.12-21.818-20.12
		c-11.471,0-20.805,8.86-21.772,20.12h-0.265v30.911h0.094c0,0.046,0,0.062,0,0.062c0,12.164,9.85,22.013,21.943,22.013
		c12.14,0,21.989-9.85,21.989-21.989c0,0,0-0.04,0-0.086l0,0v-30.911H386.82z M291.854,399.745c4.172-3.17,4.984-9.123,1.813-13.296
		c-3.169-4.172-9.123-4.982-13.296-1.813c-14.807,11.25-33.943,11.251-48.749,0c-4.17-3.171-10.124-2.359-13.296,1.813
		c-3.171,4.172-2.359,10.125,1.813,13.296c10.724,8.15,23.288,12.224,35.855,12.224C268.561,411.969,281.13,407.894,291.854,399.745
		z"/>
</g>
<g id="Layer_4">
	<path fill="#8F9B9E" d="M255.99,334.087c-0.008,0-0.014,0-0.021,0c-13.402-0.008-25.599-6.669-32.626-17.819
		c-2.792-4.43-1.463-10.284,2.966-13.076c4.431-2.79,10.285-1.463,13.077,2.967c3.536,5.61,9.739,8.962,16.593,8.966
		c0.003,0,0.008,0,0.011,0c6.864,0,13.079-3.354,16.629-8.975c2.797-4.428,8.65-5.75,13.079-2.952
		c4.427,2.796,5.749,8.652,2.952,13.079C281.605,327.43,269.396,334.087,255.99,334.087z M184.168,177.073
		c4.232-3.084,5.163-9.015,2.079-13.247c-9.505-13.042-23.765-20.527-39.124-20.533c-0.008,0-0.013,0-0.02,0
		c-15.367,0-29.642,7.481-39.166,20.527c-3.087,4.229-2.162,10.161,2.067,13.248c4.23,3.086,10.16,2.162,13.248-2.067
		c5.914-8.101,14.605-12.745,23.85-12.745c0.003,0,0.008,0,0.012,0c9.233,0.004,17.91,4.647,23.807,12.739
		c1.856,2.547,4.743,3.898,7.67,3.898C180.529,178.892,182.483,178.3,184.168,177.073z M341.142,175
		c5.913-8.101,14.604-12.745,23.85-12.745c0.003,0,0.008,0,0.012,0c9.232,0.004,17.909,4.647,23.807,12.739
		c3.083,4.232,9.015,5.163,13.246,2.079s5.162-9.015,2.078-13.247c-9.504-13.043-23.765-20.527-39.123-20.533
		c-0.007,0-0.014,0-0.021,0c-15.367,0-29.642,7.481-39.165,20.527c-3.087,4.229-2.161,10.161,2.068,13.248
		c1.686,1.231,3.643,1.824,5.582,1.824C336.4,178.892,339.285,177.543,341.142,175z M93.591,97.844
		c13.294,10.078,32.337,16.397,53.499,16.397c40.18,0,72.753-22.762,72.753-50.84c0-10.287-4.386-19.853-11.902-27.855
		C163.791,44.954,124.337,67.046,93.591,97.844z M52.25,257.238c-9.055,0-17.717,1.667-25.714,4.69
		c0.432,51.737,17.98,99.384,47.263,137.569c29.659-9.185,51.204-36.829,51.204-69.506C125.003,289.811,92.43,257.238,52.25,257.238
		z M458.037,269.33c0,15.816,9.484,29.409,23.071,35.426c2.865-14.484,4.38-29.453,4.38-44.778c0-9.197-0.557-18.263-1.609-27.177
		C468.827,238.114,458.037,252.459,458.037,269.33z M386.991,309.381c-21.393,0-38.736,14.119-38.736,31.535
		c0,17.417,17.343,31.535,38.736,31.535s38.736-14.119,38.736-31.535C425.727,323.5,408.384,309.381,386.991,309.381z
		 M294.747,64.566c0,21.393,17.343,38.736,38.736,38.736s38.736-17.343,38.736-38.736c0-0.858-0.038-1.707-0.093-2.551
		c-19.944-11.725-41.81-20.527-65.019-25.806C299.507,43.281,294.747,53.366,294.747,64.566z M212.449,485.321
		c14.103,2.71,28.658,4.145,43.551,4.145c34.771,0,67.728-7.748,97.261-21.588c-12.644-24.194-37.959-40.717-67.149-40.717
		C250.338,427.161,220.378,451.973,212.449,485.321z"/>
</g>
</svg>
