<?xml version="1.0" encoding="iso-8859-1"?>
<!-- Generator: Adobe Illustrator 18.1.1, SVG Export Plug-In . SVG Version: 6.00 Build 0)  -->
<!DOCTYPE svg PUBLIC "-//W3C//DTD SVG 1.1//EN" "http://www.w3.org/Graphics/SVG/1.1/DTD/svg11.dtd">
<svg version="1.1" xmlns="http://www.w3.org/2000/svg" xmlns:xlink="http://www.w3.org/1999/xlink" x="0px" y="0px"
	 viewBox="0 0 512 512" enable-background="new 0 0 512 512" xml:space="preserve">
<g id="Layer_2">
	<path fill="#F4F3EF" d="M385.925,131.645c0,23.305-62.875,42.197-140.435,42.197s-140.435-18.892-140.435-42.197
		S167.93,89.448,245.49,89.448S385.925,108.341,385.925,131.645z"/>
</g>
<g id="Layer_3">
	<path fill="#E8E7E2" d="M281.873,390.924c0.006,0.987,0.003,1.968-0.039,2.937c-0.252,6.484-1.457,12.535-3.294,17.722
		c-0.904,2.594-1.941,4.971-3.028,7.078c-0.535,1.054-1.12,2.04-1.632,2.951c-0.58,0.912-1.061,1.749-1.604,2.506
		c-0.761,1.133-1.48,2.083-2.083,2.83c28.206,13.43,80.946,40.139,80.946,52.086c0,16.307-43.997,29.527-98.269,29.527
		s-98.269-13.22-98.269-29.527c0-11.947,52.74-38.656,80.946-52.086c-0.602-0.747-1.322-1.697-2.083-2.83
		c-0.543-0.756-1.025-1.594-1.604-2.506c-0.511-0.912-1.097-1.898-1.632-2.951c-1.087-2.107-2.124-4.485-3.028-7.078
		c-1.837-5.187-3.042-11.238-3.294-17.722c-0.021-0.479-0.02-0.965-0.026-1.449C9.465,377.01,105.055,129.299,105.055,129.299h0.22
		c-0.142,0.777-0.22,1.559-0.22,2.346c0,23.305,62.875,42.197,140.435,42.197s140.435-18.892,140.435-42.197
		c0-0.787-0.078-1.569-0.22-2.346h0.22C385.925,129.299,477.02,365.367,281.873,390.924z"/>
</g>
<g id="Layer_4">
	<path fill="#FF6F1F" d="M369.796,145.856c0,0,90.13,233.559-124.306,233.559S121.183,145.856,121.183,145.856H369.796z"/>
</g>
<g id="Layer_5">
	<path fill="#FFA683" d="M369.796,145.856c0,18.423-55.654,33.357-124.306,33.357s-124.306-14.935-124.306-33.357
		s55.654-33.357,124.306-33.357S369.796,127.433,369.796,145.856z"/>
</g>
<g id="Layer_6">
	<path fill="#FFE1AB" d="M299.092,223.876c-0.422,0-0.851-0.063-1.275-0.197c-2.234-0.704-3.476-3.086-2.772-5.321L358.94,15.419
		c0.704-2.235,3.082-3.477,5.321-2.773c2.234,0.704,3.476,3.086,2.772,5.321l-63.896,202.939
		C302.567,222.718,300.895,223.876,299.092,223.876z"/>
</g>
<g id="Layer_7">
	<path fill="#59CAFC" d="M412.814,98.242c2.279,4.55,0.25,10.11-4.454,12.051c-11.812,4.875-36.364,10.585-74.388-1.387
		c-38.053-11.981-54.902-30.747-61.78-41.506c-2.735-4.278-1.232-9.98,3.224-12.413c22.963-12.538,90.882-49.623,90.882-49.623
		l0.001,0L412.814,98.242z"/>
</g>
<g id="Layer_8">
	<path fill="#00B1FF" d="M366.173,5.432c0.128,2.72,2.719,60.201-5.013,109.576c-8.145-1.04-17.197-2.956-27.189-6.102
		c-10.115-3.185-18.718-6.851-26.048-10.717c21.447-44.368,55.621-89.433,58.095-92.673C366.081,5.482,366.132,5.454,366.173,5.432z
		"/>
</g>
<g id="Layer_9">
	<path fill="#FFE1AB" d="M365.485,15.707c-0.691,0-1.395-0.104-2.089-0.323c-3.657-1.153-5.688-5.052-4.534-8.708l0.701-2.225
		c1.152-3.657,5.052-5.686,8.708-4.535c3.657,1.153,5.688,5.052,4.534,8.708l-0.701,2.225
		C371.171,13.812,368.435,15.707,365.485,15.707z"/>
</g>
<g id="Layer_10">
	<path fill="#FFAF8F" d="M167.395,336.926c-6.396,0-12.625-3.281-16.118-9.186c-23.951-40.495-22.94-84.294-18.281-125.593
		c1.159-10.265,10.42-17.646,20.685-16.49c10.265,1.158,17.648,10.419,16.49,20.685c-3.93,34.831-5.038,71.338,13.307,102.354
		c5.259,8.892,2.314,20.363-6.578,25.622C173.912,336.085,170.631,336.926,167.395,336.926z"/>
</g>
</svg>
