<?xml version="1.0" encoding="iso-8859-1"?>
<!-- Generator: Adobe Illustrator 19.1.0, SVG Export Plug-In . SVG Version: 6.00 Build 0)  -->
<!DOCTYPE svg PUBLIC "-//W3C//DTD SVG 1.1//EN" "http://www.w3.org/Graphics/SVG/1.1/DTD/svg11.dtd">
<svg version="1.1" xmlns="http://www.w3.org/2000/svg" xmlns:xlink="http://www.w3.org/1999/xlink" x="0px" y="0px"
	 viewBox="0 0 512 512" enable-background="new 0 0 512 512" xml:space="preserve">
<g id="Layer_9">
	<path fill="#C048FF" d="M494.005,413.08c-1.354-0.92-38.845-10.35-75.999-7.289c-37.154,1.018-73.969,14.526-73.969,12.309
		c-6.424-1.875-10.807-46.925-11.052-51.851c-0.17-4.291,1.681-30.767,4.921-47.364l-111.572,21.353
		c12.901-31.999,30.791-51.012,50.255-60.439c32.39-15.387,50.403-4.82,61.053,4.706c5.516,5.066,6.118,13.799,5.421,21.13
		c2.387,1.237,37.877-12.556,73.827-10.57c37.224-0.444,74.931,16.032,76.865,23.395c3.867,8.926,0.652,14.676-7.272,12.956
		c-1.241-0.235-2.462-0.384-3.631-0.446c-12.115-2.142-41.629,0.351-40.847,13.804c0.763,11.07,31.873,32.357,44.473,46.321
		C494.2,399.015,497.486,408.421,494.005,413.08z"/>
</g>
<g id="Layer_1">
</g>
</svg>
