<?xml version="1.0" encoding="utf-8"?>
<!-- Generator: Adobe Illustrator 19.1.0, SVG Export Plug-In . SVG Version: 6.00 Build 0)  -->
<!DOCTYPE svg PUBLIC "-//W3C//DTD SVG 1.1//EN" "http://www.w3.org/Graphics/SVG/1.1/DTD/svg11.dtd">
<svg version="1.1" id="Layer_1" xmlns="http://www.w3.org/2000/svg" xmlns:xlink="http://www.w3.org/1999/xlink" x="0px" y="0px"
	 viewBox="0 0 512 512" style="enable-background:new 0 0 512 512;" xml:space="preserve">
<path style="fill:#FDE364;" d="M352.966,400.089l0.03,0.008c-13.08-20.624-12.24-28.911-12.24-36.246
	c0-12.502-38.136,3.06-54.538-14.73c-2.797-3.03-0.495-7.927,3.615-7.612c19.634,1.53,42.786-2.535,42.786-9.93
	c0-5.22-11.55-17.107-15.547-30.404c23.572-1.732,56.51-7.792,46.378-23.714c-11.43-17.969-49.356-76.265-37.506-116.246
	c1.47-3.585,3.015-7.125,4.642-10.627c0.015-0.023,0.022-0.038,0.038-0.06l-0.015,0.023c20.722-44.556,54.156-82.002,95.637-107.741
	c7.207-4.47,6.284-15.157-1.568-18.367C395.706,12.622,364.072,6,330.849,6C192.779,6,80.853,117.934,80.853,256.004
	S192.779,506,330.849,506c32.902,0,64.235-6.495,92.974-18.097c8.205-3.307,9.165-14.49,1.665-19.184
	C396.974,450.892,372.292,427.508,352.966,400.089"/>
<path style="fill:#2C3C47;" d="M234.328,182.415c-10.845,0-19.635,8.79-19.635,19.634v24.134c0,10.837,8.79,19.634,19.635,19.634
	c10.844,0,19.634-8.797,19.634-19.634V202.05C253.962,191.205,245.172,182.415,234.328,182.415"/>
<path style="fill:#FBB436;" d="M257.365,159.609c-2.116,0-4.203-0.976-5.545-2.818c-4.328-5.939-10.697-9.346-17.476-9.35
	c-0.002,0-0.005,0-0.007,0c-6.786,0-13.165,3.409-17.503,9.353c-2.232,3.058-6.519,3.727-9.579,1.496
	c-3.057-2.231-3.727-6.519-1.496-9.577c6.949-9.52,17.365-14.98,28.578-14.98c0.004,0,0.008,0,0.013,0
	c11.208,0.003,21.613,5.465,28.549,14.984c2.23,3.06,1.557,7.347-1.502,9.577C260.179,159.182,258.766,159.609,257.365,159.609z"/>
</svg>
