<?xml version="1.0" encoding="utf-8"?>
<!-- Generator: Adobe Illustrator 18.0.0, SVG Export Plug-In . SVG Version: 6.00 Build 0)  -->
<!DOCTYPE svg PUBLIC "-//W3C//DTD SVG 1.1 Tiny//EN" "http://www.w3.org/Graphics/SVG/1.1/DTD/svg11-tiny.dtd">
<svg version="1.1" baseProfile="tiny" id="Layer_1" xmlns="http://www.w3.org/2000/svg" xmlns:xlink="http://www.w3.org/1999/xlink"
	 x="0px" y="0px" width="511.9px" height="511.9px" viewBox="0 0 511.9 511.9" xml:space="preserve">
<path fill="#FFA1E0" d="M184.5,183.2L64.7,388.6c-6.3,15.1,7.7,30.8,23.5,26.2l28.8-8.4c8.8-2.6,18.2,1.3,22.6,9.4l14.3,26.4
	c7.8,14.4,28.8,13.3,35.1-1.8l77.3-233.7c4.1-9.9-0.6-21.3-10.5-25.5l-45.7-8.4C200,168.6,188.6,173.3,184.5,183.2z"/>
<path fill="#FFA1E0" d="M328.6,183.2l119.8,205.4c6.3,15.1-7.7,30.8-23.5,26.2l-28.8-8.4c-8.8-2.6-18.2,1.3-22.6,9.4l-14.3,26.4
	c-7.8,14.4-28.8,13.3-35.1-1.8l-77.3-233.7c-4.1-9.9,0.6-21.3,10.5-25.5l45.7-8.4C313.1,168.6,324.5,173.3,328.6,183.2z"/>
</svg>
