<svg xmlns="http://www.w3.org/2000/svg" viewBox="0 0 512 512" enable-background="new 0 0 512 512"><path fill="#00B1FF" d="M277.164 294.01h-35.437c-3.976 0-7.2-3.225-7.2-7.2v-44.54c0-3.977 3.224-7.2 7.2-7.2h35.437c3.976 0 7.2 3.223 7.2 7.2v44.54c0 3.975-3.224 7.2-7.2 7.2zm94.363-7.2v-44.54c0-3.977-3.224-7.2-7.2-7.2H328.89c-3.976 0-7.2 3.223-7.2 7.2v44.54c0 3.975 3.224 7.2 7.2 7.2h35.437c3.976 0 7.2-3.225 7.2-7.2zm-87.163 94.46v-44.54c0-3.976-3.224-7.2-7.2-7.2h-35.437c-3.976 0-7.2 3.224-7.2 7.2v44.54c0 3.976 3.224 7.2 7.2 7.2h35.437c3.976 0 7.2-3.224 7.2-7.2zm87.163 0v-44.54c0-3.976-3.224-7.2-7.2-7.2H328.89c-3.976 0-7.2 3.224-7.2 7.2v44.54c0 3.976 3.224 7.2 7.2 7.2h35.437c3.976 0 7.2-3.224 7.2-7.2zM197.2 286.81v-44.54c0-3.977-3.223-7.2-7.2-7.2h-35.436c-3.976 0-7.2 3.223-7.2 7.2v44.54c0 3.975 3.224 7.2 7.2 7.2H190c3.977 0 7.2-3.225 7.2-7.2zm0 94.46v-44.54c0-3.976-3.223-7.2-7.2-7.2h-35.436c-3.976 0-7.2 3.224-7.2 7.2v44.54c0 3.976 3.224 7.2 7.2 7.2H190c3.977 0 7.2-3.224 7.2-7.2z"/></svg>