<?xml version="1.0" encoding="iso-8859-1"?>
<!-- Generator: Adobe Illustrator 18.1.1, SVG Export Plug-In . SVG Version: 6.00 Build 0)  -->
<!DOCTYPE svg PUBLIC "-//W3C//DTD SVG 1.1//EN" "http://www.w3.org/Graphics/SVG/1.1/DTD/svg11.dtd">
<svg version="1.1" xmlns="http://www.w3.org/2000/svg" xmlns:xlink="http://www.w3.org/1999/xlink" x="0px" y="0px"
	 viewBox="0 0 512 512" enable-background="new 0 0 512 512" xml:space="preserve">
<g id="Layer_4">
	<path fill="#F2A74E" d="M168.541,463.002c-7.931,0-14.52-6.261-14.851-14.259l-10.254-247.755
		c-0.34-8.208,6.039-15.137,14.246-15.477c8.227-0.338,15.137,6.039,15.477,14.246l10.254,247.755
		c0.34,8.208-6.039,15.137-14.246,15.477C168.957,462.998,168.748,463.002,168.541,463.002z M332.681,448.743l10.254-247.755
		c0.34-8.208-6.038-15.137-14.246-15.477c-8.222-0.346-15.137,6.039-15.477,14.246l-10.254,247.755
		c-0.34,8.208,6.038,15.137,14.246,15.477c0.21,0.009,0.418,0.013,0.626,0.013C325.761,463.002,332.35,456.741,332.681,448.743z
		 M259.952,448.128V195.269c0-8.215-6.659-14.874-14.874-14.874s-14.874,6.659-14.874,14.874v252.859
		c0,8.215,6.659,14.874,14.874,14.874S259.952,456.343,259.952,448.128z"/>
</g>
<g id="Layer_1">
</g>
</svg>
