<?xml version="1.0" encoding="iso-8859-1"?>
<!-- Generator: Adobe Illustrator 18.1.1, SVG Export Plug-In . SVG Version: 6.00 Build 0)  -->
<!DOCTYPE svg PUBLIC "-//W3C//DTD SVG 1.1//EN" "http://www.w3.org/Graphics/SVG/1.1/DTD/svg11.dtd">
<svg version="1.1" xmlns="http://www.w3.org/2000/svg" xmlns:xlink="http://www.w3.org/1999/xlink" x="0px" y="0px"
	 viewBox="0 0 512 512" enable-background="new 0 0 512 512" xml:space="preserve">
<g id="Layer_6">
	<path fill="#3DCAEA" d="M331.489,105.508c-1.606,0-3.213-0.613-4.438-1.839c-2.451-2.451-2.451-6.426,0-8.877l18.83-18.831
		c2.451-2.451,6.426-2.452,8.877,0c2.451,2.451,2.451,6.426,0,8.877l-18.83,18.831C334.702,104.895,333.096,105.508,331.489,105.508
		z M356.346,124.087l18.83-18.83c2.451-2.451,2.451-6.426,0-8.877s-6.426-2.451-8.877,0l-18.83,18.83
		c-2.451,2.451-2.451,6.426,0,8.877c1.226,1.226,2.832,1.839,4.438,1.839S355.12,125.312,356.346,124.087z M376.763,144.504
		l18.83-18.83c2.451-2.451,2.451-6.426,0-8.877s-6.426-2.451-8.877,0l-18.83,18.83c-2.451,2.451-2.451,6.426,0,8.877
		c1.226,1.226,2.832,1.839,4.438,1.839S375.537,145.73,376.763,144.504z M397.181,164.922l18.83-18.83
		c2.451-2.451,2.451-6.426,0-8.877s-6.426-2.451-8.877,0l-18.83,18.83c-2.451,2.451-2.451,6.426,0,8.877
		c1.226,1.226,2.832,1.839,4.438,1.839S395.955,166.147,397.181,164.922z M417.598,185.339l18.83-18.83
		c2.451-2.451,2.451-6.426,0-8.877s-6.426-2.451-8.877,0l-18.83,18.83c-2.451,2.451-2.451,6.426,0,8.877
		c1.226,1.226,2.832,1.839,4.438,1.839S416.372,186.565,417.598,185.339z"/>
</g>
<g id="Layer_1">
</g>
</svg>
