<?xml version="1.0" encoding="iso-8859-1"?>
<!-- Generator: Adobe Illustrator 19.1.0, SVG Export Plug-In . SVG Version: 6.00 Build 0)  -->
<!DOCTYPE svg PUBLIC "-//W3C//DTD SVG 1.1//EN" "http://www.w3.org/Graphics/SVG/1.1/DTD/svg11.dtd">
<svg version="1.1" xmlns="http://www.w3.org/2000/svg" xmlns:xlink="http://www.w3.org/1999/xlink" x="0px" y="0px"
	 viewBox="0 0 512 512" enable-background="new 0 0 512 512" xml:space="preserve">
<g id="Layer_9">
	<path fill="#00B89C" d="M428.304,282.9c0,0,0.436,3.076,1.199,8.458c0.191,1.346,0.402,2.836,0.632,4.457
		c0.207,1.708,0.432,3.556,0.672,5.53c0.463,3.95,1.058,8.457,1.485,13.234c0.235,2.403,0.481,4.907,0.735,7.498
		c0.261,2.59,0.421,5.282,0.645,8.042c0.196,2.763,0.456,5.596,0.612,8.503c0.156,2.908,0.315,5.879,0.477,8.9
		c0.19,3.018,0.255,6.1,0.354,9.217c0.074,3.119,0.237,6.268,0.239,9.458c0.021,3.188,0.043,6.401,0.064,9.626
		c0.024,3.226-0.091,6.475-0.131,9.719l-0.089,4.866c-0.067,1.624-0.134,3.246-0.201,4.864c-0.153,3.239-0.254,6.463-0.451,9.666
		c-0.226,3.205-0.45,6.385-0.671,9.526c-0.056,0.785-0.112,1.569-0.167,2.349c-0.077,0.781-0.153,1.56-0.229,2.336
		c-0.153,1.552-0.305,3.093-0.456,4.62c-0.527,6.111-1.401,12.025-2.102,17.631c-0.407,2.803-0.875,5.531-1.292,8.169
		c-0.425,2.638-0.816,5.187-1.327,7.632c-0.97,4.89-1.772,9.377-2.762,13.342c-0.95,3.967-1.665,7.432-2.498,10.27
		c-1.558,5.683-2.448,8.93-2.448,8.93c-3.406,12.422-16.237,19.732-28.659,16.326c-12.422-3.406-19.732-16.237-16.326-28.659
		c0.016-0.058,0.032-0.116,0.048-0.173l0.288-0.999c0,0,0.789-2.734,2.168-7.52c0.746-2.367,1.39-5.368,2.257-8.752
		c0.905-3.369,1.646-7.289,2.555-11.526c0.479-2.11,0.85-4.355,1.255-6.672c0.397-2.319,0.846-4.705,1.242-7.18
		c0.682-4.981,1.545-10.199,2.088-15.692c0.155-1.368,0.311-2.748,0.468-4.138c0.079-0.695,0.158-1.392,0.238-2.092
		c0.059-0.704,0.119-1.411,0.178-2.119c0.24-2.835,0.482-5.705,0.727-8.598c0.219-2.898,0.348-5.836,0.53-8.776
		c0.082-1.472,0.165-2.947,0.247-4.423l0.14-4.447c0.076-2.968,0.229-5.928,0.245-8.891c0.021-2.963,0.042-5.914,0.063-8.842
		c0.042-2.927-0.074-5.842-0.101-8.716c-0.052-2.876-0.067-5.716-0.208-8.514c-0.111-2.797-0.219-5.548-0.326-8.24
		c-0.105-2.693-0.315-5.327-0.46-7.891c-0.173-2.564-0.282-5.061-0.493-7.472c-0.203-2.412-0.399-4.742-0.587-6.979
		c-0.338-4.512-0.816-8.482-1.18-12.058c-0.189-1.787-0.367-3.46-0.53-5.007c-0.207-1.625-0.398-3.118-0.57-4.466
		c-0.688-5.393-1.081-8.474-1.081-8.474c-1.534-12.023,6.969-23.013,18.992-24.547C415.714,262.689,426.618,271.046,428.304,282.9z"
		/>
</g>
<g id="Layer_1">
</g>
</svg>
