<?xml version="1.0" encoding="iso-8859-1"?>
<!-- Generator: Adobe Illustrator 18.1.1, SVG Export Plug-In . SVG Version: 6.00 Build 0)  -->
<!DOCTYPE svg PUBLIC "-//W3C//DTD SVG 1.1//EN" "http://www.w3.org/Graphics/SVG/1.1/DTD/svg11.dtd">
<svg version="1.1" xmlns="http://www.w3.org/2000/svg" xmlns:xlink="http://www.w3.org/1999/xlink" x="0px" y="0px"
	 viewBox="0 0 512 512" enable-background="new 0 0 512 512" xml:space="preserve">
<g id="Layer_6">
	<path fill="#EF5454" d="M296.785,343.844c-3.659,0-7.35-1.135-10.512-3.487c-7.812-5.812-9.434-16.857-3.62-24.671
		c10.585-14.227,26.097-25.016,43.677-30.381c9.315-2.845,19.168,2.405,22.011,11.718c2.842,9.314-2.404,19.168-11.718,22.011
		c-10.435,3.184-19.554,9.471-25.679,17.703C307.484,341.387,302.169,343.844,296.785,343.844z M91.357,336.736
		c6.125-8.232,15.244-14.52,25.678-17.703c9.314-2.843,14.56-12.696,11.718-22.011c-2.843-9.312-12.699-14.562-22.01-11.718
		c-17.581,5.365-33.093,16.154-43.678,30.381c-5.812,7.813-4.191,18.858,3.621,24.671c3.162,2.353,6.852,3.487,10.511,3.487
		C82.581,343.844,87.897,341.387,91.357,336.736z"/>
</g>
<g id="Layer_1">
</g>
</svg>
