<?xml version="1.0" encoding="iso-8859-1"?>
<!-- Generator: Adobe Illustrator 18.1.1, SVG Export Plug-In . SVG Version: 6.00 Build 0)  -->
<!DOCTYPE svg PUBLIC "-//W3C//DTD SVG 1.1//EN" "http://www.w3.org/Graphics/SVG/1.1/DTD/svg11.dtd">
<svg version="1.1" xmlns="http://www.w3.org/2000/svg" xmlns:xlink="http://www.w3.org/1999/xlink" x="0px" y="0px"
	 viewBox="0 0 512 512" enable-background="new 0 0 512 512" xml:space="preserve">
<g id="Layer_3">
	<path fill="#445056" d="M353.18,265.535c-10.243-12.833-24.932-21.294-41.359-23.824c-4.461-0.687-8.919-0.93-13.308-0.716
		l-6.16-45.733c13.871-12.608,22.807-21.397,27.287-26.837c23.998-29.137,26.034-54.011,28.003-78.065l0.245-2.972
		c1.109-13.292-0.127-28.968-3.392-43.01c-2.772-11.928-8.397-28.535-19.441-39.916c-1.659-1.711-3.785-2.798-6.501-3.323
		c-0.878-0.169-1.819-0.255-2.801-0.255c-8.868,0-22.379,7.032-31.088,22.471c-23.182,41.1-23.684,75.752-16.5,125.32
		c0.071,0.496,0.38,2.785,0.887,6.572l-1.174,0.973c-33.835,28.044-80.174,66.453-84.606,121.705
		c-2.218,27.638,7.39,57.756,25.072,78.604c18.379,21.668,46.443,36.61,71.498,38.067c7.158,0.417,14.18,0.151,20.892-0.788
		c3.35,25.176,5.134,38.51,5.449,40.717c2.875,20.122,0.062,35.247-8.358,44.957c-8.552,9.861-20.731,11.334-27.23,11.334
		c-2.72,0-5.453-0.241-8.123-0.717c-1.823-0.325-2.215-1.775-2.299-2.384c-0.083-0.604-0.097-2.096,1.559-2.895
		c6.765-3.264,15-10.256,15.819-25.03c0.579-10.426-2.715-19.986-9.273-26.919c-5.961-6.302-14.258-9.916-22.765-9.916
		c-7.686,0-15.039,2.834-21.264,8.195c-12.113,10.431-15.961,28.994-9.576,46.191c6.052,16.301,22.896,33.719,52.022,33.716
		c3.204,0,6.527-0.215,9.878-0.637c16.351-2.062,30.119-9.463,38.769-20.839c9.612-12.644,12.949-29.562,9.916-50.289
		c-0.147-1.011-2.412-17.759-6.733-49.8c29.776-10.57,49.062-36.018,50.65-67.249C370.319,299.688,364.789,280.079,353.18,265.535z
		 M227.981,352.572c-24.694-28.795-17.042-59.83-10.284-75.768c8.803-20.755,25.299-37.911,47.359-57.285l0.752-0.661
		c3.095-2.718,6.681-5.867,10.476-9.222l4.619,34.801c-13.816,4.875-25.786,14.62-33.999,27.771
		c-8.585,13.747-12.116,30.044-9.687,44.714c4.525,27.323,23.29,41.771,38.812,43.631c0.439,0.053,0.843,0.078,1.234,0.078
		c3.021,0,5.415-1.585,6.567-4.348c0.641-1.536,0.647-3.221,0.019-4.745c-0.841-2.037-2.688-3.623-5.643-4.848
		c-2.757-1.145-5.727-3.274-8.36-5.995c-13.18-13.615-7.869-32.543-1.084-41.944c4.484-6.212,10.524-10.583,17.646-12.816
		c4.185,31.537,8.418,63.438,11.893,89.58c-6.142,1.039-12.963,1.52-20.425,1.425C260.842,376.73,240.313,366.697,227.981,352.572z
		 M339.673,328.405c-0.337,20.145-8.324,34.149-23.763,41.712c-3.441-25.53-7.481-55.516-11.495-85.305
		C322.671,287.863,340.095,303.144,339.673,328.405z M289.958,86.988c6.063-17.736,17.575-36.826,28.52-36.826
		c0.356,0,0.717,0.02,1.072,0.059c2.959,0.326,5.012,1.601,6.457,4.013c4.058,6.766,2.716,21.472-3.337,36.593l-0.046,0.113
		c-4.118,10.293-8.009,20.016-26.537,40.121c-2.828,3.069-6.329,6.446-10.964,10.56c-0.242-1.793-0.402-2.977-0.472-3.485
		C281.759,116.936,284.537,102.847,289.958,86.988z"/>
</g>
<g id="Layer_1">
</g>
</svg>
