<?xml version="1.0" encoding="iso-8859-1"?>
<!-- Generator: Adobe Illustrator 18.1.1, SVG Export Plug-In . SVG Version: 6.00 Build 0)  -->
<!DOCTYPE svg PUBLIC "-//W3C//DTD SVG 1.1//EN" "http://www.w3.org/Graphics/SVG/1.1/DTD/svg11.dtd">
<svg version="1.1" xmlns="http://www.w3.org/2000/svg" xmlns:xlink="http://www.w3.org/1999/xlink" x="0px" y="0px"
	 viewBox="0 0 512 512" enable-background="new 0 0 512 512" xml:space="preserve">
<g id="Layer_5">
	<path fill="#F2A74E" d="M451.525,451.219h-26.764c-28.6,0-51.868-23.269-51.868-51.868v-91.38c0-28.6,23.269-51.868,51.868-51.868
		h26.764c28.6,0,51.868,23.268,51.868,51.868v91.38C503.394,427.95,480.125,451.219,451.525,451.219z M424.762,287.839
		c-11.101,0-20.132,9.031-20.132,20.132v91.38c0,11.101,9.031,20.132,20.132,20.132h26.764c11.101,0,20.132-9.031,20.132-20.132
		v-91.38c0-11.101-9.031-20.132-20.132-20.132H424.762z"/>
</g>
<g id="Layer_1">
</g>
</svg>
