<?xml version="1.0" encoding="iso-8859-1"?>
<!-- Generator: Adobe Illustrator 18.1.0, SVG Export Plug-In . SVG Version: 6.00 Build 0)  -->
<!DOCTYPE svg PUBLIC "-//W3C//DTD SVG 1.1//EN" "http://www.w3.org/Graphics/SVG/1.1/DTD/svg11.dtd">
<svg version="1.1" xmlns="http://www.w3.org/2000/svg" xmlns:xlink="http://www.w3.org/1999/xlink" x="0px" y="0px"
	 viewBox="0 0 512 512" enable-background="new 0 0 512 512" xml:space="preserve">
<g id="Layer_2">
	<path fill="#98D4FA" d="M488.951,10.383H21.716c-6.6,0-12,5.4-12,12v467.234c0,6.6,5.4,12,12,12H297.12h191.83c6.6,0,12-5.4,12-12
		v-204.44V22.383C500.951,15.783,495.551,10.383,488.951,10.383z"/>
</g>
<g id="Layer_3">
	<path fill="#0096D1" d="M215.218,489.383c0,4.101,0.107,8.176,0.278,12.234h40.953c-0.2-4.053-0.305-8.132-0.305-12.234
		c0-135.203,109.604-244.807,244.807-244.807V203.65C343.145,203.65,215.218,331.577,215.218,489.383z"/>
</g>
<g id="Layer_4">
	<path fill="#21C14B" d="M167.45,489.383c0,4.098,0.1,8.172,0.247,12.234h47.799c-0.171-4.059-0.278-8.134-0.278-12.234
		c0-157.806,127.927-285.733,285.733-285.733v-47.768C316.763,155.882,167.45,305.195,167.45,489.383z"/>
</g>
<g id="Layer_5">
	<path fill="#FFD469" d="M121.973,489.383c0,4.094,0.073,8.171,0.201,12.234h45.523c-0.147-4.062-0.247-8.136-0.247-12.234
		c0-184.187,149.313-333.501,333.501-333.501v-45.477C291.647,110.405,121.973,280.079,121.973,489.383z"/>
</g>
<g id="Layer_6">
	<path fill="#FF7B39" d="M70.294,489.383c0,4.092,0.063,8.17,0.176,12.234h51.704c-0.129-4.063-0.201-8.14-0.201-12.234
		c0-209.304,169.674-378.978,378.978-378.978V58.726C263.105,58.726,70.294,251.538,70.294,489.383z"/>
</g>
<g id="Layer_7">
	<path fill="#FF473E" d="M488.951,10.383h-88.713c-221.962,46.434-388.67,243.245-388.67,479c0,2.228,0.017,4.451,0.047,6.672
		c2.138,3.335,5.868,5.563,10.102,5.563H70.47c-0.113-4.065-0.176-8.142-0.176-12.234c0-237.845,192.812-430.657,430.657-430.657
		V22.383C500.951,15.783,495.551,10.383,488.951,10.383z"/>
</g>
</svg>
