<?xml version="1.0" encoding="iso-8859-1"?>
<!-- Generator: Adobe Illustrator 19.1.0, SVG Export Plug-In . SVG Version: 6.00 Build 0)  -->
<!DOCTYPE svg PUBLIC "-//W3C//DTD SVG 1.1//EN" "http://www.w3.org/Graphics/SVG/1.1/DTD/svg11.dtd">
<svg version="1.1" xmlns="http://www.w3.org/2000/svg" xmlns:xlink="http://www.w3.org/1999/xlink" x="0px" y="0px"
	 viewBox="0 0 512 512" enable-background="new 0 0 512 512" xml:space="preserve">
<g id="Layer_2">
	<path fill="#597B91" d="M133.4,130.097h-23.43c-6.214,0-11.357,4.832-11.745,11.033L87.827,307.456
		c-0.424,6.775,4.957,12.502,11.745,12.502h44.227c6.788,0,12.168-5.727,11.745-12.502L145.145,141.13
		C144.757,134.928,139.614,130.097,133.4,130.097z"/>
</g>
<g id="Layer_3">
	<path fill="#D4D8D5" d="M333.221,36.63c-13.205-8.15-28.894-8.866-42.204-3.326c-2.241-8.566-7.644-16.319-15.773-21.336
		c-16.515-10.193-38.079-5.296-48.623,10.866c-3.294-4.219-7.376-7.937-12.198-10.913c-21.792-13.45-50.361-6.687-63.811,15.105
		c-3.043,4.931-5.042,10.21-6.075,15.582c-14.828,14.675-30.634,35.862-37.472,63.17c-1.628,6.503,5.484,11.706,11.126,8.087
		c10.144-6.505,24.739-14.071,40.479-16.452c0.648,12.998,10.822,23.834,24.147,24.949c8.828,0.739,16.998-2.962,22.325-9.236
		c2.403,12.233,9.695,23.469,21.14,30.533c21.792,13.45,50.361,6.687,63.811-15.105c1.687-2.734,3.056-5.575,4.117-8.479
		c19.955,6.668,42.587-0.956,54.115-19.634C361.776,78.648,355.013,50.079,333.221,36.63z"/>
</g>
<g id="Layer_4">
	<path fill="#2B3B47" d="M340.917,256.707v-53.393c0-6.197-6.784-10.005-12.074-6.777l-109.7,66.946
		c-5.29,3.228-12.074-0.579-12.074-6.777v-53.689c0-6.133-6.658-9.95-11.951-6.851L82.167,262.312
		c-0.649,0.38-1.256,0.839-1.765,1.393c-4.608,5.01-7.181,11.579-7.181,18.414v217.939c0,4.384,3.554,7.939,7.939,7.939h385.667
		c4.384,0,7.939-3.554,7.939-7.939V287.067v-16.215v-67.538c0-6.197-6.784-10.005-12.074-6.777l-109.699,66.946
		C347.702,266.712,340.917,262.904,340.917,256.707z"/>
</g>
<g id="Layer_5">
	<rect x="73.221" y="307.182" fill="#FFB636" width="401.544" height="25.551"/>
</g>
<g id="Layer_6">
	<path fill="#597B91" d="M161.815,411.156h-34.87c-3.65,0-6.609-2.959-6.609-6.609v-10.827c0-3.65,2.959-6.609,6.609-6.609h34.87
		c3.65,0,6.609,2.959,6.609,6.609v10.827C168.423,408.197,165.465,411.156,161.815,411.156z M168.423,463.003v-10.827
		c0-3.65-2.959-6.609-6.609-6.609h-34.87c-3.65,0-6.609,2.959-6.609,6.609v10.827c0,3.65,2.959,6.609,6.609,6.609h34.87
		C165.465,469.612,168.423,466.653,168.423,463.003z M272.761,463.003v-69.282c0-3.65-2.959-6.609-6.609-6.609h-34.87
		c-3.65,0-6.609,2.959-6.609,6.609v69.282c0,3.65,2.959,6.609,6.609,6.609h34.87C269.803,469.612,272.761,466.653,272.761,463.003z
		 M352.257,463.003v-69.282c0-3.65-2.959-6.609-6.609-6.609h-34.87c-3.65,0-6.609,2.959-6.609,6.609v69.282
		c0,3.65,2.959,6.609,6.609,6.609h34.87C349.298,469.612,352.257,466.653,352.257,463.003z M431.753,463.003v-69.282
		c0-3.65-2.959-6.609-6.609-6.609h-34.87c-3.65,0-6.609,2.959-6.609,6.609v69.282c0,3.65,2.959,6.609,6.609,6.609h34.87
		C428.794,469.612,431.753,466.653,431.753,463.003z"/>
</g>
</svg>
