<?xml version="1.0" encoding="iso-8859-1"?>
<!-- Generator: Adobe Illustrator 18.1.1, SVG Export Plug-In . SVG Version: 6.00 Build 0)  -->
<!DOCTYPE svg PUBLIC "-//W3C//DTD SVG 1.1//EN" "http://www.w3.org/Graphics/SVG/1.1/DTD/svg11.dtd">
<svg version="1.1" xmlns="http://www.w3.org/2000/svg" xmlns:xlink="http://www.w3.org/1999/xlink" x="0px" y="0px"
	 viewBox="0 0 512 512" enable-background="new 0 0 512 512" xml:space="preserve">
<g id="Layer_7">
	<path fill="#FFB941" d="M321,404.248c-15.578,0-30.127-3.559-40.818-9.015c-21.456-10.95-24.76-26.71-20.698-37.807
		c4.202-11.481,16.084-25.626,48.825-27.803c17.47-1.159,33.286,1.591,33.951,1.709c5.71,1.011,9.52,6.46,8.508,12.17
		c-1.011,5.711-6.466,9.525-12.17,8.508c-0.131-0.022-14.267-2.455-29.233-1.41c-11.714,0.818-26.455,3.92-30.16,14.044
		c-1.388,3.791,4.285,8.7,10.523,11.884c22.689,11.58,65.587,10.599,87.121-21.359c3.24-4.81,9.765-6.081,14.575-2.841
		c4.81,3.24,6.081,9.767,2.841,14.575C375.764,394.361,346.958,404.248,321,404.248z M285.097,437.067
		c5.796-0.16,10.365-4.99,10.205-10.786c-0.161-5.797-4.968-10.337-10.787-10.206c-22.5,0.626-32.579-12.39-44.239-27.457
		c-14.031-18.131-31.492-40.692-71.247-19.061c-5.093,2.771-6.976,9.147-4.204,14.241c2.771,5.094,9.147,6.975,14.242,4.204
		c24.05-13.09,30.919-4.212,44.601,13.467c12.313,15.911,27.571,35.628,59.267,35.628
		C283.646,437.098,284.367,437.088,285.097,437.067z M250.232,323.044c7.885-11.785,22.042-11.799,44.492-10.854
		c20.003,0.847,42.674,1.801,60.346-12.461c4.513-3.642,5.218-10.253,1.576-14.766c-3.643-4.511-10.251-5.22-14.766-1.576
		c-11.509,9.29-28.393,8.577-46.271,7.822c-22.491-0.953-47.986-2.026-62.83,20.155c-3.225,4.82-1.932,11.342,2.887,14.566
		c1.793,1.2,3.822,1.774,5.83,1.774C244.882,327.705,248.207,326.069,250.232,323.044z M274.915,270.66
		c-8.832-40.416-9.608-90.977-10.232-131.604c-0.305-19.831-0.568-36.957-1.729-49.482c-0.678-7.32-1.61-12.585-2.934-16.568
		c-0.591-1.777-1.281-3.282-2.029-4.592c-1.217-4.453-5.281-7.73-10.119-7.73c-0.392,0-0.773,0.019-1.15,0.048
		c-0.378-0.029-0.743-0.048-1.078-0.048c-4.146,0-7.721,2.41-9.427,5.899c-5.218,6.359-7.634,16.52-9.317,23.615
		c-3.258,13.736-6.198,32.295-9.603,53.785c-5.648,35.652-12.678,80.023-23.806,115.804c-11.955,38.438-26.458,60.236-43.109,64.79
		c-5.594,1.529-8.888,7.304-7.359,12.897c1.276,4.667,5.507,7.733,10.122,7.733c0.917,0,1.849-0.121,2.776-0.375
		c24.352-6.659,43.201-32.438,57.623-78.81c11.579-37.231,18.74-82.434,24.494-118.754c1.616-10.198,3.378-21.317,5.191-31.563
		c0.211,7.852,0.338,16.052,0.455,23.672c0.629,40.933,1.416,91.716,10.303,133.814c7.606,1.036,15.162,2.53,22.572,4.461
		C275.995,275.408,275.445,273.085,274.915,270.66z"/>
</g>
<g id="Layer_1">
</g>
</svg>
