<?xml version="1.0" encoding="iso-8859-1"?>
<!-- Generator: Adobe Illustrator 18.1.1, SVG Export Plug-In . SVG Version: 6.00 Build 0)  -->
<!DOCTYPE svg PUBLIC "-//W3C//DTD SVG 1.1//EN" "http://www.w3.org/Graphics/SVG/1.1/DTD/svg11.dtd">
<svg version="1.1" xmlns="http://www.w3.org/2000/svg" xmlns:xlink="http://www.w3.org/1999/xlink" x="0px" y="0px"
	 viewBox="0 0 512 512" enable-background="new 0 0 512 512" xml:space="preserve">
<g id="Layer_5">
	<path fill="#2ABA34" d="M263.988,174.248c7.694-23.254-7.551-20.958-20.198,3.705c-0.165-0.023-0.326-0.043-0.485-0.061
		c7.171-23.129-9.621-19.125-22.351,8.522c7.644-21.068-5.303-20.509-18.356-4.583c2.765-16.364-11.652-11.24-23.151,12.879
		c-5.273-0.923-7.484,2.209-4.319,8.938c-0.857,0.319-1.737,0.668-2.642,1.054c-16.687-13.402-27.58-9.484-14.473,8.089
		c-0.079,0.054-0.159,0.11-0.238,0.165c-19.602-19.687-35.078-17.99-22.464,0.257c-0.228,0.069-0.46,0.147-0.698,0.233
		c-18.554-17.695-32.673-15.849-21.198,1.284c-3.157,0.23-6.891,0.772-11.315,1.714c-32.527,6.922-20.605,21.051,11.611,15.529
		c-14.832,19.492,0.331,22.274,20.306,3.059c0.148,0.075,0.294,0.146,0.439,0.216c-14.297,19.544,2.885,21.213,23.907-0.797
		c-14.074,17.441-1.648,21.119,15.871,10.298c-8.81,16.192,11.042,14.203,32.393-11.693c6.138-0.078,13.903-1.226,22.825-3.972
		c0,0,2.089-3.822,0.849-7.071c10.459,0.333,11.609-6.721-4.205-16.684c26.408,13.881,41.983,7.255,23.56-6.319
		c0.193-0.14,0.388-0.289,0.584-0.447c23.296,10.706,36.05,4.373,19.631-8.102c2.911-1.244,6.266-2.969,10.144-5.297
		C308.528,168.047,292.662,158.558,263.988,174.248z M144.075,223.834c0.019-0.024,0.038-0.048,0.056-0.072
		c0.084,0.087,0.165,0.167,0.248,0.253c-0.03,0.029-0.06,0.058-0.091,0.088C144.217,224.013,144.146,223.923,144.075,223.834z
		 M167.267,223.895c0.085-0.114,0.171-0.223,0.256-0.338c0,0-0.001-0.006-0.002-0.014c0.248,0.241,0.492,0.471,0.735,0.7
		c-0.146,0.124-0.292,0.249-0.438,0.376C167.635,224.375,167.451,224.135,167.267,223.895z M215.206,198.783
		c0.253,0.171,0.504,0.338,0.756,0.505c-0.044,0.135-0.089,0.267-0.132,0.402c0,0,0.003,0.005,0.006,0.013
		c-0.313-0.147-0.618-0.285-0.923-0.423C215.011,199.116,215.109,198.951,215.206,198.783z M237.627,191.626
		c0.096,0.061,0.193,0.124,0.289,0.184c-0.01,0.029-0.02,0.057-0.03,0.086c-0.107-0.055-0.21-0.105-0.317-0.158
		C237.588,191.701,237.607,191.663,237.627,191.626z M212.041,218.235c-1.544-1.239-3.389-2.543-5.544-3.901
		c2.668,1.402,5.226,2.596,7.649,3.594C213.472,218.015,212.767,218.119,212.041,218.235z"/>
</g>
<g id="Layer_1">
</g>
</svg>
