<?xml version="1.0" encoding="iso-8859-1"?>
<!-- Generator: Adobe Illustrator 18.1.1, SVG Export Plug-In . SVG Version: 6.00 Build 0)  -->
<!DOCTYPE svg PUBLIC "-//W3C//DTD SVG 1.1//EN" "http://www.w3.org/Graphics/SVG/1.1/DTD/svg11.dtd">
<svg version="1.1" xmlns="http://www.w3.org/2000/svg" xmlns:xlink="http://www.w3.org/1999/xlink" x="0px" y="0px"
	 viewBox="0 0 512 512" enable-background="new 0 0 512 512" xml:space="preserve">
<g id="Layer_2">
	<path fill="#F2A74E" d="M358.15,152.85c-39.978-39.978-100.691-44.082-134.82-9.953c-33.908,33.908-36.249,59.289-56.986,66.607
		c-15.601,5.506,26.512,24.434,9.434,44.58c-0.156,0.148-0.311,0.284-0.469,0.442c-15.835,15.835-30,15.073-39.04,11.707
		c-1.809-1.798-3.757-3.796-5.902-5.998c-1.866-1.917-3.8-3.901-5.827-5.929c-4.741-4.741-12.429-4.741-17.17,0
		c-3.242,3.242-4.264,7.86-3.073,11.973c-19.089,6.352-47.197,18.048-69.305,37.014c-0.311,0.266-0.618,0.539-0.926,0.808
		c-0.372,0.325-0.744,0.651-1.112,0.98c-0.356,0.318-0.71,0.64-1.062,0.963c-0.379,0.347-0.756,0.697-1.131,1.048
		c-0.287,0.27-0.576,0.538-0.861,0.811c-0.673,0.643-1.341,1.291-1.999,1.949c-47.841,47.841-26.383,103.949,21.458,151.79
		c47.841,47.841,103.949,69.299,151.79,21.458c0.658-0.658,1.306-1.326,1.949-1.999c0.273-0.285,0.541-0.574,0.811-0.861
		c0.351-0.375,0.701-0.751,1.048-1.131c0.323-0.353,0.644-0.707,0.963-1.062c0.329-0.368,0.655-0.74,0.98-1.112
		c0.27-0.309,0.542-0.616,0.808-0.926c19.599-22.846,31.434-52.097,37.631-71.184c0.143,0.005,0.286,0.021,0.43,0.021
		c3.107,0,6.214-1.186,8.585-3.556c4.741-4.741,4.741-12.429,0-17.17c-1.969-1.968-3.905-3.854-5.783-5.682
		c-1.164-1.134-2.266-2.212-3.314-3.248c-3.431-9.15-4.554-23.726,11.218-39.498c0.816-0.816,1.492-1.611,2.064-2.388
		c19.379-12.802,37.239,26.035,42.561,10.956c6.699-18.982,28.537-22.567,58.191-49.041c3.092-2.262,6.04-4.775,8.813-7.548
		C402.232,253.541,398.128,192.828,358.15,152.85z"/>
</g>
<g id="Layer_3">
	<path fill="#FFE1AB" d="M162.135,414.472c-4.237,0-8.474-1.616-11.707-4.85l-49.697-49.697c-6.465-6.465-6.465-16.947,0-23.412
		c6.466-6.467,16.947-6.467,23.413,0l49.697,49.697c6.465,6.465,6.465,16.947,0,23.412
		C170.609,412.855,166.372,414.472,162.135,414.472z"/>
</g>
<g id="Layer_4">
	<path fill="#2B3B47" d="M453.693,66.081l-8.774-8.774c-2.348-2.348-6.128-2.434-8.58-0.193L226.155,247.798
		c-2.613,2.388-2.705,6.473-0.202,8.976l2.693,2.693L92.518,395.596c-5.633-1.99-12.224-0.261-16.049,4.915l-40.449,54.749
		c-4.147,5.613-3.564,13.415,1.37,18.35l0,0c4.935,4.935,12.737,5.517,18.35,1.37l54.749-40.449
		c5.176-3.824,6.905-10.416,4.915-16.049l136.128-136.128l2.694,2.694c2.503,2.503,6.589,2.411,8.976-0.202L453.887,74.661
		C456.127,72.21,456.041,68.43,453.693,66.081z M232.818,263.64l5.186,5.186L102.845,403.983l-5.064-5.064
		c-0.041-0.041-0.087-0.074-0.128-0.115L232.818,263.64z M112.196,413.347c-0.04-0.041-0.073-0.087-0.114-0.128l-5.064-5.064
		l135.158-135.158l5.185,5.185L112.196,413.347z"/>
</g>
<g id="Layer_5">
	<path fill="#F2A74E" d="M405.78,64.467l56.41-56.41c3.983-3.983,10.441-3.983,14.425,0l25.682,25.682
		c3.983,3.983,3.983,10.441,0,14.425l-56.41,56.41c-3.983,3.983-10.441,3.983-14.425,0L405.78,78.892
		C401.797,74.909,401.797,68.451,405.78,64.467z"/>
</g>
<g id="Layer_6">
	<path fill="#A36119" d="M73.903,325.653c-2.012,0-3.933-0.336-5.75-1.084c-4.292-1.767-7.2-5.468-8.644-11
		c-0.77-2.949,0.998-5.964,3.947-6.733c2.95-0.771,5.963,0.998,6.733,3.946c0.521,2,1.25,3.204,2.166,3.581
		c4.375,1.803,16.296-5.253,24.997-10.404c12.74-7.545,23.743-14.059,32.278-10.547c2.603,1.071,6.028,3.586,7.566,9.48
		c0.77,2.949-0.998,5.964-3.947,6.733c-2.944,0.772-5.963-0.998-6.733-3.946c-0.11-0.425-0.516-1.826-1.087-2.062
		c-3.445-1.409-14.883,5.355-22.454,9.838C92.439,319.694,82.374,325.653,73.903,325.653z M204.034,447.414
		c0.77-2.949-0.998-5.964-3.947-6.733c-1.999-0.521-3.204-1.25-3.581-2.166c-1.803-4.379,5.253-16.296,10.405-24.996
		c7.544-12.741,14.059-23.744,10.547-32.278c-1.072-2.603-3.586-6.027-9.481-7.565c-2.949-0.771-5.964,0.997-6.733,3.946
		c-0.77,2.949,0.998,5.964,3.947,6.733c0.424,0.11,1.826,0.516,2.061,1.088c1.418,3.443-5.355,14.883-9.837,22.452
		c-7.72,13.038-15.011,25.354-11.114,34.821c1.767,4.293,5.468,7.201,11,8.645c0.467,0.122,0.936,0.18,1.397,0.18
		C201.148,451.54,203.386,449.896,204.034,447.414z M443.561,9.25c-4.142,4.142-5.052,9.948-2.033,12.967s8.825,2.109,12.967-2.033
		s5.052-9.948,2.033-12.967S447.703,5.108,443.561,9.25z M425.266,27.544c-4.142,4.142-5.052,9.948-2.033,12.967
		c3.019,3.019,8.825,2.109,12.967-2.033s5.052-9.948,2.033-12.967S429.409,23.402,425.266,27.544z M406.972,45.838
		c-4.142,4.142-5.052,9.948-2.033,12.967c3.019,3.019,8.825,2.109,12.967-2.033s5.052-9.948,2.033-12.967
		C416.92,40.786,411.115,41.696,406.972,45.838z M490.816,56.505c-4.142,4.142-5.052,9.948-2.033,12.967s8.825,2.109,12.967-2.033
		s5.052-9.948,2.033-12.967C500.764,51.453,494.958,52.363,490.816,56.505z M472.522,74.799c-4.142,4.142-5.052,9.948-2.033,12.967
		c3.019,3.019,8.825,2.109,12.967-2.033s5.052-9.948,2.033-12.967C482.47,69.747,476.664,70.657,472.522,74.799z M454.228,93.093
		c-4.142,4.142-5.052,9.948-2.033,12.967c3.019,3.019,8.825,2.109,12.967-2.033c4.142-4.142,5.052-9.948,2.033-12.967
		S458.37,88.951,454.228,93.093z"/>
</g>
</svg>
