<?xml version="1.0" encoding="iso-8859-1"?>
<!-- Generator: Adobe Illustrator 18.1.0, SVG Export Plug-In . SVG Version: 6.00 Build 0)  -->
<!DOCTYPE svg PUBLIC "-//W3C//DTD SVG 1.1//EN" "http://www.w3.org/Graphics/SVG/1.1/DTD/svg11.dtd">
<svg version="1.1" xmlns="http://www.w3.org/2000/svg" xmlns:xlink="http://www.w3.org/1999/xlink" x="0px" y="0px"
	 viewBox="0 0 512 512" enable-background="new 0 0 512 512" xml:space="preserve">
<g id="Layer_2">
	<path fill="#00B89C" d="M417.245,322.145c-12.042,1.336-30.871,3.782-42.231,7.032c2.883-0.838,4.097-1.195-0.493,0.128
		c-19.044,5.536-6.853,2.007-0.321,0.109c-37.487,10.978-79.641,37.503-103.53,72.66V139c0-11.303-9.163-20.466-20.467-20.466
		c-11.303,0-20.466,9.163-20.466,20.466v317.589c0,9.087,5.926,16.779,14.12,19.452c-1.185,5.515-2.205,10.711-3.061,15.352
		c-1.926,10.451,7.157,19.523,17.606,17.58c23.91-4.444,62.475-13.193,84.57-26.49c37.036-22.289,64.994-65.775,77.568-106.728
		c0.1-0.325,0.175-0.568,0.231-0.744c1.172-4.069,0.816-2.858,0.006-0.071c3.262-11.403,5.563-30.432,6.787-42.573
		C428.207,325.996,423.609,321.439,417.245,322.145z"/>
</g>
<g id="Layer_3">
	<path fill="#009E83" d="M206.264,502.115c6.502,1.996-18.723-5.427,0.321,0.109c4.591,1.323,3.376,0.966,0.493,0.128
		c11.403,3.262,30.432,5.563,42.573,6.787c6.371,0.642,10.928-3.956,10.222-10.32c-1.336-12.042-3.782-30.871-7.032-42.231
		c0.838,2.883,1.195,4.097-0.128-0.493c-5.536-19.044-2.007-6.853-0.109-0.321c-11.484-39.215-39.974-83.551-77.569-106.728
		c-21.95-13.532-60.493-22.267-84.41-26.675c-10.451-1.926-19.523,7.157-17.58,17.606c4.444,23.91,13.193,62.475,26.49,84.57
		C121.825,461.582,165.311,489.541,206.264,502.115z"/>
</g>
<g id="Layer_4">
	<path fill="#FF473E" d="M267.106,9.941c0,0,0.411,0.318,1.132,0.933c0.706,0.615,1.824,1.528,3.092,2.719
		c0.651,0.595,1.377,1.26,2.177,1.992c0.747,0.732,1.562,1.531,2.443,2.394c1.781,1.727,3.737,3.712,5.781,5.935
		c8.261,8.893,18.37,21.596,27.28,36.841c8.963,15.244,16.721,33.03,21.768,52.085c2.543,9.528,4.439,19.373,5.599,29.377
		c1.198,10.004,1.618,20.167,1.423,30.33c-0.227,10.163-1.039,20.326-2.525,30.33c-1.449,10.004-3.599,19.85-6.266,29.377
		c-2.679,9.528-5.959,18.738-9.656,27.472c-1.85,4.367-3.807,8.615-5.849,12.724c-1.007,2.054-2.09,4.074-3.143,6.057
		c-1.022,1.982-2.133,3.928-3.222,5.833c-8.683,15.244-18.344,27.948-26.193,36.841c-1.001,1.112-1.947,2.164-2.839,3.154
		c-0.945,0.99-1.831,1.918-2.656,2.781c-1.605,1.727-3.141,3.196-4.365,4.387c-2.464,2.382-3.981,3.652-3.981,3.652
		c-9.937,8.319-24.21,8.047-33.806,0c0,0-1.517-1.27-3.981-3.652c-1.224-1.191-2.761-2.66-4.365-4.387
		c-0.824-0.863-1.71-1.791-2.656-2.781c-0.891-0.99-1.838-2.042-2.839-3.154c-7.849-8.893-17.51-21.596-26.193-36.841
		c-1.09-1.906-2.2-3.851-3.222-5.833c-1.053-1.982-2.136-4.002-3.143-6.057c-2.041-4.109-3.999-8.357-5.849-12.724
		c-3.697-8.734-6.977-17.944-9.656-27.472c-2.667-9.528-4.817-19.373-6.266-29.377c-1.485-10.004-2.298-20.167-2.525-30.33
		c-0.194-10.163,0.226-20.326,1.423-30.33c1.16-10.004,3.056-19.85,5.599-29.377c5.046-19.056,12.805-36.841,21.768-52.085
		c8.91-15.244,19.019-27.948,27.28-36.841c2.044-2.223,4-4.208,5.781-5.935c0.881-0.863,1.696-1.662,2.443-2.394
		c0.8-0.732,1.526-1.397,2.177-1.992c1.269-1.191,2.386-2.104,3.092-2.719c0.72-0.615,1.132-0.933,1.132-0.933
		C243.468,2.084,257.39,2.437,267.106,9.941z"/>
</g>
<g id="Layer_5">
	<path fill="#FFA9BA" d="M147.596,41.32c0,0,0.496,0.124,1.386,0.394c0.877,0.275,2.242,0.657,3.848,1.227
		c0.818,0.279,1.732,0.59,2.737,0.933c0.957,0.363,2.001,0.759,3.13,1.186c2.275,0.848,4.805,1.859,7.504,3.046
		c10.873,4.716,24.84,12.096,38.623,22.178c13.831,10.062,27.473,22.827,39.067,37.748c5.816,7.453,11.148,15.432,15.858,23.832
		c4.745,8.385,8.828,17.207,12.344,26.262c3.485,9.068,6.429,18.358,8.692,27.764c2.297,9.392,3.888,18.911,4.886,28.346
		c0.986,9.439,1.302,18.827,1.058,27.951c-0.123,4.563-0.389,9.062-0.783,13.469c-0.185,2.199-0.452,4.396-0.705,6.548
		c-0.224,2.141-0.544,4.283-0.859,6.381c-2.487,16.775-6.803,31.678-10.828,42.523c-0.521,1.363-1.014,2.653-1.479,3.867
		c-0.514,1.235-0.996,2.392-1.445,3.468c-0.856,2.137-1.743,4.019-2.442,5.538c-1.412,3.042-2.354,4.742-2.354,4.742
		c-6.248,11.283-19.383,16.34-31.263,12.862c0,0-1.865-0.545-5.009-1.713c-1.565-0.587-3.52-1.3-5.632-2.216
		c-1.076-0.449-2.233-0.932-3.467-1.448c-1.184-0.536-2.442-1.105-3.772-1.707c-10.492-4.873-24.045-12.423-37.617-22.592
		c-1.7-1.269-3.435-2.566-5.101-3.929c-1.695-1.351-3.431-2.724-5.109-4.156c-3.381-2.855-6.736-5.864-10.035-9.019
		c-6.594-6.312-12.976-13.203-18.918-20.604c-5.93-7.405-11.499-15.288-16.476-23.578c-5.011-8.276-9.458-16.948-13.362-25.843
		c-3.874-8.908-7.181-18.049-9.711-27.345c-2.565-9.282-4.391-18.704-5.503-28.092c-2.261-18.76-1.553-37.429,1.194-54.311
		c2.697-16.862,7.427-31.935,11.834-42.936c1.082-2.742,2.169-5.241,3.188-7.444c0.501-1.098,0.964-2.115,1.389-3.046
		c0.473-0.951,0.903-1.815,1.289-2.589c0.74-1.535,1.442-2.767,1.871-3.58c0.443-0.818,0.707-1.255,0.707-1.255
		C122.956,43.244,135.807,38.376,147.596,41.32z"/>
</g>
<g id="Layer_6">
	<path fill="#FF6E83" d="M384.074,54.182c0,0,0.265,0.437,0.707,1.255c0.429,0.812,1.131,2.044,1.871,3.58
		c0.385,0.774,0.815,1.638,1.289,2.589c0.425,0.931,0.888,1.947,1.389,3.046c1.019,2.204,2.106,4.702,3.188,7.444
		c4.407,11.002,9.137,26.075,11.834,42.936c2.747,16.882,3.455,35.551,1.194,54.311c-1.112,9.388-2.939,18.81-5.503,28.092
		c-2.53,9.297-5.836,18.438-9.711,27.345c-3.905,8.895-8.351,17.567-13.362,25.843c-4.977,8.29-10.545,16.172-16.476,23.578
		c-5.942,7.401-12.324,14.292-18.918,20.604c-3.298,3.155-6.653,6.164-10.035,9.019c-1.678,1.432-3.414,2.805-5.109,4.156
		c-1.666,1.363-3.4,2.66-5.101,3.929c-13.572,10.169-27.125,17.72-37.617,22.592c-1.329,0.602-2.588,1.171-3.772,1.707
		c-1.234,0.515-2.391,0.998-3.467,1.448c-2.112,0.916-4.067,1.629-5.632,2.216c-3.144,1.168-5.009,1.713-5.009,1.713
		c-12.379,3.619-25.27-2.031-31.263-12.862c0,0-0.941-1.7-2.354-4.742c-0.699-1.518-1.586-3.401-2.442-5.538
		c-0.449-1.077-0.931-2.234-1.445-3.468c-0.464-1.214-0.957-2.504-1.479-3.867c-4.025-10.845-8.341-25.747-10.828-42.523
		c-0.315-2.099-0.635-4.24-0.859-6.381c-0.253-2.153-0.521-4.35-0.705-6.548c-0.394-4.408-0.66-8.906-0.783-13.469
		c-0.243-9.125,0.072-18.512,1.058-27.951c0.998-9.435,2.588-18.954,4.886-28.346c2.263-9.406,5.207-18.697,8.692-27.764
		c3.516-9.055,7.599-17.877,12.344-26.262c4.71-8.4,10.043-16.379,15.858-23.832c11.595-14.92,25.236-27.686,39.067-37.748
		c13.782-10.082,27.75-17.463,38.623-22.178c2.699-1.187,5.229-2.197,7.504-3.046c1.129-0.428,2.173-0.824,3.13-1.186
		c1.006-0.343,1.919-0.654,2.737-0.933c1.606-0.57,2.972-0.952,3.848-1.227c0.89-0.27,1.386-0.394,1.386-0.394
		C365.214,38.21,377.77,43.795,384.074,54.182z"/>
</g>
</svg>
