<?xml version="1.0" encoding="iso-8859-1"?>
<!-- Generator: Adobe Illustrator 18.1.1, SVG Export Plug-In . SVG Version: 6.00 Build 0)  -->
<!DOCTYPE svg PUBLIC "-//W3C//DTD SVG 1.1//EN" "http://www.w3.org/Graphics/SVG/1.1/DTD/svg11.dtd">
<svg version="1.1" xmlns="http://www.w3.org/2000/svg" xmlns:xlink="http://www.w3.org/1999/xlink" x="0px" y="0px"
	 viewBox="0 0 512 512" enable-background="new 0 0 512 512" xml:space="preserve">
<g id="Layer_11">
	<path fill="#68442A" d="M203.478,39.816c-2.163-13.446-12.46-29.111-30.414-34.801c-2.658-0.844,3.22-4.999,0.228-5.365
		c-2.435-0.295-13.676,3.109-16.32,3.171c-2.601,0.064-5.323,0.311-8.138,0.764c-33.006,5.31-43.515,32.901-40.516,51.542
		l3.807,23.662c6.367-1.024,9.533-6.395,9.519-21.061c-0.041-28.528,36.374-21.582,36.374-21.582l-0.001-0.003
		c6.924,2.008,16.267,4.479,20.129,4.42c3.141-0.047-10.477-7.759-6.85-7.315c9.068,1.114,17.528,6.431,21.974,14.383
		c5.831,10.444,7.437,15.475,13.792,14.452L203.478,39.816z"/>
</g>
<g id="Layer_1">
</g>
</svg>
