<?xml version="1.0" encoding="iso-8859-1"?>
<!-- Generator: Adobe Illustrator 18.1.1, SVG Export Plug-In . SVG Version: 6.00 Build 0)  -->
<!DOCTYPE svg PUBLIC "-//W3C//DTD SVG 1.1//EN" "http://www.w3.org/Graphics/SVG/1.1/DTD/svg11.dtd">
<svg version="1.1" xmlns="http://www.w3.org/2000/svg" xmlns:xlink="http://www.w3.org/1999/xlink" x="0px" y="0px"
	 viewBox="0 0 512 512" enable-background="new 0 0 512 512" xml:space="preserve">
<g id="Layer_6">
	<path fill="#FF6E83" d="M335.602,137.083c0,16.311-20.006,28.149-47.569,28.149c-11.241,0-21.222-1.971-29.104-5.409
		c-2.036-0.888-4.362-0.812-6.345,0.189c-8.215,4.146-19.108,6.562-31.548,6.562c-27.563,0-47.569-11.838-47.569-28.149
		c0-8.212,5.072-15.289,13.626-20.294c3.37-1.971,4.785-6.178,3.116-9.707c-6.097-12.894-5.901-24.991,1.577-32.469
		c3.873-3.873,9.177-5.92,15.34-5.92c4.33,0,9.032,1.023,13.863,2.944c3.87,1.538,8.235-0.301,9.844-4.142
		c4.965-11.851,13.18-19.15,23.03-19.15c9.682,0,17.787,7.051,22.776,18.547c1.656,3.816,6.027,5.637,9.872,4.05
		c5.048-2.083,9.966-3.197,14.482-3.197c7.785,0,12.639,3.219,15.34,5.92c7.351,7.351,7.667,19.164,1.885,31.811
		c-1.622,3.548-0.184,7.746,3.212,9.665C330.312,121.501,335.602,128.7,335.602,137.083z"/>
</g>
<g id="Layer_1">
</g>
</svg>
