<?xml version="1.0" encoding="iso-8859-1"?>
<!-- Generator: Adobe Illustrator 19.2.1, SVG Export Plug-In . SVG Version: 6.00 Build 0)  -->
<!DOCTYPE svg PUBLIC "-//W3C//DTD SVG 1.1//EN" "http://www.w3.org/Graphics/SVG/1.1/DTD/svg11.dtd">
<svg version="1.1" xmlns="http://www.w3.org/2000/svg" xmlns:xlink="http://www.w3.org/1999/xlink" x="0px" y="0px"
	 viewBox="0 0 512 512" enable-background="new 0 0 512 512" xml:space="preserve">
<g id="Layer_2">
	<path fill="#7F4AFF" d="M362.173,85.841H152.314l5.657-75.499h204.203V85.841z"/>
</g>
<g id="Layer_3">
	<path fill="#A97DFF" d="M207.683,221.511L124.164,66.799c-10.33-18.11-4.025-41.165,14.081-51.496
		c18.109-10.323,41.164-4.015,51.496,14.081l96.718,177.847c8.193,14.359-30.519,43.522-42.682,41.427
		C231.613,246.563,220.121,244.478,207.683,221.511z"/>
</g>
<g id="Layer_4">
	<path fill="#C6C6C6" d="M256.769,302.985c-36.526,0-66.241-29.716-66.241-66.241c0-36.526,29.715-66.241,66.241-66.241
		c36.525,0,66.241,29.716,66.241,66.241C323.01,273.269,293.294,302.985,256.769,302.985z M256.769,191.093
		c-25.172,0-45.65,20.479-45.65,45.651s20.479,45.65,45.65,45.65c25.172,0,45.65-20.478,45.65-45.65
		S281.941,191.093,256.769,191.093z"/>
</g>
<g id="Layer_5">
	<path fill="#FFD60D" d="M373.458,384.969c0,64.445-52.243,116.688-116.688,116.688s-116.688-52.243-116.688-116.688
		s52.243-116.688,116.688-116.688S373.458,320.524,373.458,384.969z"/>
</g>
<g id="Layer_6">
	<path fill="#FFE780" d="M252.78,436.774l-35.042,18.423c-6.289,3.306-13.64-2.034-12.439-9.037l6.692-39.02
		c0.477-2.781-0.445-5.619-2.466-7.588l-28.349-27.634c-5.088-4.96-2.28-13.601,4.751-14.623l39.178-5.693
		c2.792-0.406,5.206-2.159,6.455-4.69l17.521-35.501c3.145-6.372,12.23-6.372,15.375,0l17.521,35.501
		c1.249,2.53,3.663,4.284,6.455,4.69l39.178,5.693c7.032,1.022,9.839,9.663,4.751,14.623l-28.349,27.634
		c-2.02,1.97-2.942,4.807-2.466,7.588l6.692,39.02c1.201,7.003-6.149,12.344-12.439,9.037l-35.042-18.423
		C258.261,435.461,255.277,435.461,252.78,436.774z"/>
</g>
<g id="Layer_7">
	<path fill="#A4ECF4" d="M113.658,309.261c22.987-5.823,41.082-23.919,46.905-46.906c0.56-2.211,3.405-2.211,3.965,0
		c5.823,22.987,23.918,41.083,46.905,46.906c2.211,0.56,2.211,3.405,0,3.965c-22.987,5.822-41.082,23.917-46.905,46.903
		c-0.56,2.211-3.405,2.211-3.965,0c-5.823-22.986-23.918-41.08-46.905-46.903C111.447,312.666,111.447,309.821,113.658,309.261z"/>
</g>
<g id="Layer_8">
	<path fill="#A97DFF" d="M394.432,67.665l-96.89,164.087c-5.584,9.114-14.876,15.33-25.431,17.014h-24.329l-7.448-23.617
		l0.592-0.083c-10.227-7.434-16.773-15.675-12.835-22.102L329.205,29.609c10.301-16.813,31.791-24.298,49.507-15.641
		C399.033,23.899,405.965,48.844,394.432,67.665z"/>
</g>
</svg>
