<svg xmlns="http://www.w3.org/2000/svg" viewBox="0 0 512 512" enable-background="new 0 0 512 512"><path fill="#13A031" d="M349.44 393.742c.103 9.897-3.51 18.437-9.652 25.996-3.77 4.64-8.686 6.44-14.413 4.504-5.783-1.955-5.418-7.305-5.34-11.89.19-11.503 4.066-21.096 15.103-26.605 9.826-4.904 14.138-2.55 14.3 7.995zM91.583 81.54c-.316-.5-.516-1.038-.63-1.592 8.518-7.944 17.61-15.28 27.207-21.94 1.232.483 2.386 1.32 3.292 2.377 3.08 3.596 5.73 7.625 8.123 11.727 2.16 3.706-2.15 11.006 4.675 11.684 5.773.573 13.342 3.14 17.664-2.028 14.204-16.986 32.433-16.783 52.133-15.374 11.357.813 22.66-14.498 21.027-25.803-.716-4.95-5.256-4.525-7.766-2.315-4.568 4.022-8.302 9.003-12.3 13.656-9.666 11.25-40.127 12.28-50.274 1.633-2.03-2.13-3.058-4.59-.955-7.246 1.685-2.13 3.21-4.774 5.454-6.016 12.23-6.765 24.565-13.367 37.416-18.016 12.357-3.115 25.09-5.28 38.12-6.413 3.194.147 6.432.468 9.723 1.005 12.536 2.047 26.002 4.728 36.538 11.2 15.63 9.6 29.5 8.202 44.43.84 1.55-.765 3.07-1.59 4.584-2.428 85.122 27.324 149.71 100.484 164.7 190.43-3.15 2.725-6.23 5.552-9.584 8-9.038 6.6-13.394 14.957-12.525 26.482.675 8.962.554 18.68-11.313 21.006-9.954 1.952-16.178-4.176-19.85-19.01-2.14-8.648-3.178-17.632-5.99-26.038-4.716-14.11-13.36-23.953-30.048-22.895-14.24.902-24.367-7.99-35.218-15.092-4.604-3.01-10.706-7.722-14.182-1.727-2.39 4.122 2.502 10.44 7.685 13.05 4.84 2.437 10.33 3.543 15.364 5.647 9.19 3.842 11.562 9.046 7.234 17.792-7.154 14.454-19.692 22.694-34.807 26.704-10.033 2.662-17.304-3.352-22.75-10.823-10.095-13.86-19.61-28.143-29.366-42.252-2.335-3.375-4.463-6.922-7.07-10.072-1.253-1.513-3.68-2.44-5.437-.822-1.392 1.28-3.09 3.53-2.835 5.044.675 3.998 1.837 8.087 3.69 11.685 9.833 19.09 23.195 35.642 38.04 50.987 4.805 4.967 11.495 7.104 17.818 9.874 13.488 5.908 15.454 13.42 7.21 25.96-6.483 9.858-15.226 17.797-24.706 24.605-15.838 11.374-21.555 25.28-15.685 44.59 4.014 13.21.71 26.118-9.266 36.163-6.984 7.032-11.57 14.926-14.624 24.34-2.29 7.06-5.97 13.908-10.174 20.073-20.384 29.895-60.3 29.142-80.558-1.116-11.367-16.98-19.054-34.783-15.887-55.924 1.88-12.558-.9-24.348-6.27-35.93-4.012-8.653-6.153-18.158-9.43-27.174-7.03-19.355-18.18-27.1-38.91-26.782-6.137.094-12.244 1.56-18.39 1.853-35.475 1.69-56.308-24.48-51.12-59.663 6.405-43.458 28.974-71.376 70.763-84.1 20.914-15.86 24.705-15.695 46.69-.67 15.953 10.904 33.473 15.88 52.53 9.51 8.044-2.69 15.86-3.6 23.712-2.224-7.744-4.434-13.593-12.96-23.224-13.315-12.352-.454-24.79-7.61-36.89 2.956-4.67 4.08-13.21 2.305-16.816-2.935-9.91-14.404-20.793-9-31.97-3.044-6.054 3.226-12.222 5.68-19.128 5.992-5.48-.03-10.995.302-16.438-.174-9.94-.87-14.822-5.672-14.523-13.556.36-9.438 7.21-18.3 15.158-19.038 4.052-.377 8.23.51 12.26.046 4.175-.48 5.016-3.996 4.937-7.635-.09-4.086-1.615-6.024-6.264-5.12-4.67.908-11.763 1.88-13.108-2.553-2.313-7.623-8.072-12.003-11.898-18.047z"/></svg>