<?xml version="1.0" encoding="iso-8859-1"?>
<!-- Generator: Adobe Illustrator 19.1.0, SVG Export Plug-In . SVG Version: 6.00 Build 0)  -->
<!DOCTYPE svg PUBLIC "-//W3C//DTD SVG 1.1//EN" "http://www.w3.org/Graphics/SVG/1.1/DTD/svg11.dtd">
<svg version="1.1" xmlns="http://www.w3.org/2000/svg" xmlns:xlink="http://www.w3.org/1999/xlink" x="0px" y="0px"
	 viewBox="0 0 509.04 509.04" enable-background="new 0 0 509.04 509.04" xml:space="preserve">
<g id="Layer_4">
	<path fill="#CFE7E8" d="M115.743,289.836c26.748,0,19.106-13.161,47.23-13.161c20.792,0,22.354,16.205,22.354,28.412
		c0,15.965,12.942,28.907,28.907,28.907s28.907-12.941,28.907-28.907c0-45.412,11.186-31.269,28.907-31.269
		c5.641,0,10.782,1.664,14.787,0.496l-62.247-88.262l-0.005-0.006c-6.085-7.085-14-11.514-22.373-13.285
		c-13.956-2.952-29.182,1.476-39.324,13.285L93.601,286.338C97.588,288.204,104.315,289.836,115.743,289.836z"/>
</g>
<g id="Layer_1">
</g>
</svg>
