<svg xmlns="http://www.w3.org/2000/svg" viewBox="0 0 512 512" enable-background="new 0 0 512 512"><path fill="#2BA52E" d="M412.825 421.268c1.43-1.698 2.3-3.335 2.676-4.916 2.565-6.723 1.91-15.078-3.615-21.143-21.53-23.636-44.487-57.104-66.32-92.915 9.213 2.21 18.28 3.768 26.827 4.854 12.744 1.62 20.206-16.616 10.835-26.9-23.973-26.315-50.068-67.3-73.202-107.983 12.84 4.606 26.027 7.282 37.932 8.795 10.068 1.28 15.963-13.127 8.56-21.253-31.795-34.9-68.31-102.455-90.546-146.708-1.062-3.435-3.34-5.89-6.02-7.115-1.27-.604-2.61-.89-3.95-.884-1.34-.006-2.68.28-3.95.884-2.68 1.226-4.96 3.68-6.02 7.115-22.236 44.253-58.75 111.806-90.547 146.707-7.403 8.125-1.508 22.532 8.56 21.252 11.906-1.513 25.09-4.19 37.932-8.795-23.133 40.68-49.23 81.668-73.202 107.982-9.37 10.285-1.91 28.52 10.834 26.9 8.546-1.087 17.614-2.647 26.828-4.855-21.834 35.81-44.79 69.28-66.32 92.913-8.577 9.413-5.434 24.348 3.304 30.114 37.773 39.423 86.004 42.46 153.312 42.46 69.135 0 124.1-11.36 153.993-44.16.765-.713 1.466-1.502 2.102-2.356z"/></svg>