<svg xmlns="http://www.w3.org/2000/svg" viewBox="0 0 512 512" enable-background="new 0 0 512 512"><path fill="#FFE564" d="M412.026 251.12c-2.933-4.294-2.933-9.946 0-14.24l20.587-30.14c4.36-6.384 2.01-15.15-4.956-18.498l-32.9-15.81c-4.687-2.25-7.513-7.146-7.12-12.33l2.76-36.397c.583-7.708-5.834-14.125-13.542-13.54l-36.396 2.758c-5.186.393-10.08-2.433-12.333-7.12l-15.81-32.9c-3.347-6.967-12.114-9.316-18.496-4.956l-30.14 20.587c-4.294 2.933-9.946 2.933-14.24 0L219.3 67.947c-6.383-4.36-15.15-2.01-18.497 4.956l-15.81 32.9c-2.25 4.686-7.146 7.513-12.33 7.12l-36.397-2.76c-7.708-.583-14.125 5.834-13.54 13.542l2.758 36.396c.393 5.186-2.433 10.08-7.12 12.333l-32.9 15.81c-6.967 3.347-9.316 12.114-4.956 18.496l20.587 30.14c2.933 4.294 2.933 9.946 0 14.24l-20.588 30.14c-4.36 6.383-2.01 15.15 4.956 18.497l32.9 15.81c4.687 2.25 7.513 7.146 7.12 12.33l-2.76 36.397c-.583 7.708 5.834 14.125 13.542 13.54l36.396-2.758c5.186-.393 10.08 2.433 12.333 7.12l15.81 32.9c3.347 6.967 12.114 9.316 18.496 4.956l30.14-20.587c4.294-2.933 9.946-2.933 14.24 0l30.14 20.587c6.384 4.36 15.15 2.01 18.498-4.956l15.81-32.9c2.25-4.687 7.146-7.513 12.33-7.12l36.397 2.76c7.708.583 14.125-5.834 13.54-13.542l-2.758-36.396c-.393-5.185 2.433-10.08 7.12-12.332l32.9-15.81c6.967-3.347 9.316-12.114 4.956-18.496l-20.587-30.14z"/></svg>