<?xml version="1.0" encoding="iso-8859-1"?>
<!-- Generator: Adobe Illustrator 19.1.0, SVG Export Plug-In . SVG Version: 6.00 Build 0)  -->
<!DOCTYPE svg PUBLIC "-//W3C//DTD SVG 1.1//EN" "http://www.w3.org/Graphics/SVG/1.1/DTD/svg11.dtd">
<svg version="1.1" xmlns="http://www.w3.org/2000/svg" xmlns:xlink="http://www.w3.org/1999/xlink" x="0px" y="0px"
	 viewBox="0 0 509.04 509.04" enable-background="new 0 0 509.04 509.04" xml:space="preserve">
<g id="Layer_17">
	<path fill="#FFFFFF" d="M405.237,386.71h-12.696c-1.944,0-3.519-1.576-3.519-3.519v-18.751c0-1.944,1.576-3.519,3.519-3.519h12.696
		c1.944,0,3.519,1.576,3.519,3.519v18.751C408.756,385.134,407.18,386.71,405.237,386.71z M441.479,383.19v-18.751
		c0-1.944-1.576-3.519-3.519-3.519h-12.696c-1.944,0-3.519,1.576-3.519,3.519v18.751c0,1.944,1.576,3.519,3.519,3.519h12.696
		C439.904,386.71,441.479,385.134,441.479,383.19z M474.203,383.19v-18.751c0-1.944-1.576-3.519-3.519-3.519h-12.696
		c-1.944,0-3.519,1.576-3.519,3.519v18.751c0,1.944,1.576,3.519,3.519,3.519h12.696C472.627,386.71,474.203,385.134,474.203,383.19z
		 M408.756,487.291v-51.946c0-1.944-1.576-3.519-3.519-3.519h-12.696c-1.944,0-3.519,1.576-3.519,3.519v51.946
		c0,1.944,1.576,3.519,3.519,3.519h12.696C407.18,490.81,408.756,489.234,408.756,487.291z M441.479,487.291v-51.946
		c0-1.944-1.576-3.519-3.519-3.519h-12.696c-1.944,0-3.519,1.576-3.519,3.519v51.946c0,1.944,1.576,3.519,3.519,3.519h12.696
		C439.904,490.81,441.479,489.234,441.479,487.291z M474.203,487.291v-51.946c0-1.944-1.576-3.519-3.519-3.519h-12.696
		c-1.944,0-3.519,1.576-3.519,3.519v51.946c0,1.944,1.576,3.519,3.519,3.519h12.696C472.627,490.81,474.203,489.234,474.203,487.291
		z"/>
</g>
<g id="Layer_1">
</g>
</svg>
