<?xml version="1.0" encoding="iso-8859-1"?>
<!-- Generator: Adobe Illustrator 19.1.0, SVG Export Plug-In . SVG Version: 6.00 Build 0)  -->
<!DOCTYPE svg PUBLIC "-//W3C//DTD SVG 1.1//EN" "http://www.w3.org/Graphics/SVG/1.1/DTD/svg11.dtd">
<svg version="1.1" xmlns="http://www.w3.org/2000/svg" xmlns:xlink="http://www.w3.org/1999/xlink" x="0px" y="0px"
	 viewBox="0 0 512 512" enable-background="new 0 0 512 512" xml:space="preserve">
<g id="Layer_2">
	<path fill="#D3BBA3" d="M265.75,178.359c0,0,2.114,3.885,5.814,10.684c3.37,6.798,8.183,16.51,13.96,28.164
		c5.384,11.654,11.567,25.251,17.579,39.818c3.169,7.284,6.142,14.811,9.102,22.459c2.929,7.648,6.198,15.418,8.934,23.186
		c5.536,15.54,11.463,31.078,15.82,45.645c2.493,7.284,4.08,14.325,5.929,21.002c1.879,6.677,2.91,12.99,4.26,18.817
		c4.661,23.308,4.262,38.847,4.262,38.847c-1.326,51.617-44.246,68.937-95.863,67.61c-49.922-1.283-89.701-18.275-91.059-67.61
		c0,0-0.399-15.539,4.262-38.847c1.35-5.827,2.381-12.14,4.26-18.817c1.85-6.677,3.437-13.718,5.929-21.002
		c4.357-14.567,10.284-30.106,15.82-45.645c2.736-7.769,6.005-15.539,8.934-23.186c2.96-7.648,5.933-15.175,9.102-22.459
		c6.012-14.567,12.195-28.164,17.579-39.818c5.776-11.654,10.59-21.366,13.96-28.164c3.7-6.798,5.814-10.684,5.814-10.684
		c2.345-4.308,7.738-5.899,12.047-3.555C263.759,175.656,264.96,176.902,265.75,178.359z"/>
</g>
<g id="Layer_3">
	<path fill="#FF473E" d="M432.053,285.524c42.202-13.375,65.741-57.992,52.814-100.333C455.199,88.02,364.828,17.337,257.949,17.337
		S60.698,88.02,31.031,185.19c-12.927,42.342,10.612,86.959,52.814,100.333c37.112,11.761,93.058,22.379,174.104,22.379
		S394.941,297.285,432.053,285.524z"/>
</g>
<g id="Layer_4">
	<path fill="#FFA9BA" d="M426.76,278.404c0,2.989-0.141,5.944-0.402,8.864c-37.061,11.045-91.397,20.634-168.409,20.634
		c-8.103,0-15.943-0.111-23.55-0.313c-2.86-9.221-4.402-19.023-4.402-29.185c0-54.334,44.047-98.381,98.381-98.381
		C382.713,180.023,426.76,224.07,426.76,278.404z M476.633,162.482c-18.391-43.627-49.456-80.597-88.583-106.308
		c-10.014,12.164-16.028,27.745-16.028,44.73c0,38.897,31.532,70.43,70.43,70.43C454.859,171.334,466.509,168.114,476.633,162.482z
		 M230.668,18.901c-48.575,5.563-92.687,25.793-127.801,56.158c-1.308,5.978-2.018,12.18-2.018,18.551
		c0,47.725,38.688,86.413,86.413,86.413s86.413-38.688,86.413-86.413C273.675,61.713,256.38,33.872,230.668,18.901z"/>
</g>
</svg>
