<?xml version="1.0" encoding="iso-8859-1"?>
<!-- Generator: Adobe Illustrator 18.1.1, SVG Export Plug-In . SVG Version: 6.00 Build 0)  -->
<!DOCTYPE svg PUBLIC "-//W3C//DTD SVG 1.1//EN" "http://www.w3.org/Graphics/SVG/1.1/DTD/svg11.dtd">
<svg version="1.1" xmlns="http://www.w3.org/2000/svg" xmlns:xlink="http://www.w3.org/1999/xlink" x="0px" y="0px"
	 viewBox="0 0 512 512" enable-background="new 0 0 512 512" xml:space="preserve">
<g id="Layer_2">
	<path fill="#2B3B47" d="M502.456,489.617c0,6.6-5.4,12-12,12H23.222c-6.6,0-12-5.4-12-12V22.383c0-6.6,5.4-12,12-12h467.234
		c6.6,0,12,5.4,12,12"/>
</g>
<g id="Layer_3">
	<path fill="#F9F8F2" d="M434.012,149.227l7.714-18.449c0.763-1.826,3.51-0.934,3.054,0.992l-4.604,19.46
		c-0.329,1.392,1.183,2.491,2.405,1.747l17.085-10.392c1.691-1.029,3.388,1.308,1.888,2.598l-15.163,13.037
		c-1.084,0.932-0.507,2.71,0.919,2.827l19.93,1.635c1.973,0.162,1.973,3.05,0,3.211l-19.93,1.635
		c-1.425,0.117-2.003,1.895-0.919,2.827l15.163,13.037c1.501,1.29-0.197,3.627-1.888,2.598l-17.085-10.392
		c-1.222-0.743-2.734,0.356-2.405,1.747l4.604,19.46c0.456,1.926-2.291,2.818-3.054,0.992l-7.714-18.449
		c-0.552-1.32-2.421-1.32-2.973,0l-7.714,18.449c-0.763,1.826-3.51,0.934-3.054-0.992l4.604-19.46
		c0.329-1.392-1.183-2.491-2.405-1.747l-17.085,10.392c-1.691,1.029-3.388-1.308-1.888-2.598l15.163-13.037
		c1.084-0.932,0.507-2.71-0.919-2.827l-19.93-1.635c-1.973-0.162-1.973-3.05,0-3.211l19.93-1.635
		c1.425-0.117,2.003-1.895,0.919-2.827l-15.163-13.037c-1.501-1.29,0.197-3.627,1.888-2.598l17.085,10.392
		c1.222,0.743,2.734-0.356,2.405-1.747l-4.604-19.46c-0.456-1.926,2.291-2.818,3.054-0.992l7.714,18.449
		C431.591,150.547,433.46,150.547,434.012,149.227z M101.338,360.048l-7.631-18.251c-0.755-1.806-3.472-0.924-3.021,0.982
		l4.554,19.25c0.326,1.377-1.17,2.464-2.379,1.729l-16.901-10.28c-1.673-1.017-3.352,1.294-1.867,2.57l14.999,12.897
		c1.073,0.922,0.501,2.681-0.909,2.797l-19.715,1.617c-1.951,0.16-1.951,3.017,0,3.177l19.715,1.617
		c1.41,0.116,1.982,1.875,0.909,2.797l-14.999,12.897c-1.485,1.276,0.195,3.588,1.867,2.57l16.901-10.28
		c1.209-0.735,2.705,0.352,2.379,1.729l-4.554,19.25c-0.451,1.905,2.266,2.788,3.021,0.982l7.631-18.251
		c0.546-1.305,2.395-1.305,2.941,0l7.631,18.251c0.755,1.806,3.472,0.924,3.021-0.982l-4.554-19.25
		c-0.326-1.377,1.17-2.464,2.379-1.729l16.901,10.28c1.673,1.017,3.352-1.294,1.867-2.57l-14.999-12.897
		c-1.073-0.922-0.501-2.681,0.909-2.797l19.715-1.617c1.951-0.16,1.951-3.017,0-3.177l-19.715-1.617
		c-1.41-0.116-1.982-1.875-0.909-2.797l14.999-12.897c1.485-1.276-0.195-3.588-1.867-2.57l-16.901,10.28
		c-1.209,0.735-2.705-0.352-2.379-1.729l4.554-19.25c0.451-1.905-2.266-2.788-3.021-0.982l-7.631,18.251
		C103.733,361.354,101.884,361.354,101.338,360.048z M193.366,54.567l-4.799-11.478c-0.475-1.136-2.184-0.581-1.9,0.617
		l2.864,12.106c0.205,0.866-0.736,1.549-1.496,1.087l-10.629-6.465c-1.052-0.64-2.108,0.814-1.174,1.616l9.433,8.111
		c0.675,0.58,0.315,1.686-0.572,1.759l-12.399,1.017c-1.227,0.101-1.227,1.897,0,1.998l12.399,1.017
		c0.887,0.073,1.246,1.179,0.572,1.759l-9.433,8.111c-0.934,0.803,0.122,2.256,1.174,1.616l10.629-6.465
		c0.76-0.462,1.701,0.221,1.496,1.087l-2.864,12.106c-0.283,1.198,1.425,1.753,1.9,0.617l4.799-11.478
		c0.343-0.821,1.506-0.821,1.85,0l4.799,11.478c0.475,1.136,2.184,0.581,1.9-0.617l-2.864-12.106
		c-0.205-0.866,0.736-1.549,1.496-1.087l10.629,6.465c1.052,0.64,2.108-0.814,1.174-1.616l-9.433-8.111
		c-0.675-0.58-0.315-1.686,0.572-1.759l12.399-1.017c1.227-0.101,1.227-1.897,0-1.998l-12.399-1.017
		c-0.887-0.073-1.246-1.179-0.572-1.759l9.433-8.111c0.934-0.803-0.122-2.256-1.174-1.616L200.546,56.9
		c-0.76,0.462-1.701-0.221-1.496-1.087l2.864-12.106c0.283-1.198-1.425-1.753-1.9-0.617l-4.799,11.478
		C194.872,55.388,193.709,55.388,193.366,54.567z"/>
</g>
<g id="Layer_4">
	<path fill="#FFB636" d="M412.163,351.034l-104.546-67.97c-0.583-0.379-1.247-0.413-1.812-0.2c-0.999,0.376-1.446,1.553-1.106,2.566
		l32.758,97.64c1.394,4.156-3.978,7.177-6.805,3.828l-65.055-77.08V477.08c0,7.732-6.269,14-14,14s-14-6.268-14-14V306.236
		l-77.088,70.434c-1.642,1.5-4.181-0.257-3.355-2.322l33.86-84.655c0.6-1.501-0.655-3.087-2.254-2.847L63.404,305.637
		c-2.368,0.355-3.38-2.901-1.228-3.951l99.374-48.509c1.41-0.688,1.589-2.626,0.329-3.562l-78.356-58.156
		c-1.747-1.297-0.602-4.067,1.551-3.752l103.22,15.137c1.749,0.256,3.009-1.636,2.097-3.151L108.588,63.857
		c-2.39-3.969,2.833-8.096,6.141-4.852l111.669,109.49c1.137,1.115,3.054,0.602,3.482-0.933l29.876-107.29
		c0.617-2.216,3.837-1.959,4.096,0.326l13.811,121.935c0.19,1.677,2.185,2.451,3.456,1.341l77.58-67.759
		c1.644-1.436,4.113,0.288,3.331,2.326l-31.868,83.082c-0.416,1.083,0.13,2.298,1.216,2.708l64.019,24.145
		c2.072,0.781,1.67,3.825-0.534,4.041l-59.045,5.794c-1.628,0.16-2.452,2.042-1.464,3.346l80.617,106.459
		C416.388,349.885,414.129,352.312,412.163,351.034z"/>
</g>
<g id="Layer_5">
	<path fill="#FFE1AB" d="M100.597,149.518c0-6.407,5.194-11.601,11.601-11.601c6.407,0,11.601,5.194,11.601,11.601
		c0,6.407-5.194,11.601-11.601,11.601C105.79,161.119,100.597,155.925,100.597,149.518z M381.202,436.691
		c6.407,0,11.601-5.194,11.601-11.601c0-6.407-5.194-11.601-11.601-11.601s-11.601,5.194-11.601,11.601
		C369.602,431.497,374.795,436.691,381.202,436.691z M444.126,290.564c4.084,0,7.395-3.311,7.395-7.395s-3.311-7.395-7.395-7.395
		s-7.395,3.311-7.395,7.395S440.042,290.564,444.126,290.564z M328.343,92.801c4.084,0,7.395-3.311,7.395-7.395
		c0-4.084-3.311-7.395-7.395-7.395c-4.084,0-7.395,3.311-7.395,7.395C320.948,89.49,324.259,92.801,328.343,92.801z M451.521,413.49
		c2.793,0,5.058-2.264,5.058-5.058s-2.264-5.058-5.058-5.058c-2.793,0-5.058,2.264-5.058,5.058S448.728,413.49,451.521,413.49z
		 M407.877,54.365c2.793,0,5.058-2.264,5.058-5.058c0-2.793-2.264-5.058-5.058-5.058s-5.058,2.264-5.058,5.058
		C402.819,52.101,405.084,54.365,407.877,54.365z M53.599,97.859c2.793,0,5.058-2.264,5.058-5.058c0-2.793-2.264-5.058-5.058-5.058
		c-2.793,0-5.058,2.264-5.058,5.058C48.542,95.594,50.806,97.859,53.599,97.859z M171.773,440.79c2.793,0,5.058-2.264,5.058-5.058
		s-2.264-5.058-5.058-5.058c-2.793,0-5.058,2.264-5.058,5.058S168.98,440.79,171.773,440.79z M60.995,238.197
		c4.084,0,7.395-3.311,7.395-7.395c0-4.084-3.311-7.395-7.395-7.395s-7.395,3.311-7.395,7.395
		C53.599,234.886,56.91,238.197,60.995,238.197z"/>
</g>
<g id="Layer_6">
	<path fill="#F9F8F2" d="M252.59,314.409c-7.604,0-13.841-6.087-13.992-13.725l-1-50.791c-0.152-7.73,5.991-14.121,13.722-14.272
		c7.744-0.176,14.121,5.991,14.273,13.722l1,50.791c0.152,7.73-5.991,14.12-13.722,14.272
		C252.777,314.408,252.683,314.409,252.59,314.409z"/>
</g>
</svg>
