<?xml version="1.0" encoding="iso-8859-1"?>
<!-- Generator: Adobe Illustrator 19.1.0, SVG Export Plug-In . SVG Version: 6.00 Build 0)  -->
<!DOCTYPE svg PUBLIC "-//W3C//DTD SVG 1.1//EN" "http://www.w3.org/Graphics/SVG/1.1/DTD/svg11.dtd">
<svg version="1.1" xmlns="http://www.w3.org/2000/svg" xmlns:xlink="http://www.w3.org/1999/xlink" x="0px" y="0px"
	 viewBox="0 0 512 512" enable-background="new 0 0 512 512" xml:space="preserve">
<g id="Layer_10">
	<path fill="#FD8C97" d="M144.394,198.939c0,0,2.023,0.524,5.408,1.548c3.246,1.121,7.994,2.646,13.493,4.613
		c5.407,2.032,11.488,4.56,17.83,7.39c6.198,2.93,12.896,5.995,19.076,9.421c3.1,1.706,6.383,3.284,9.284,5.068
		c2.904,1.782,5.89,3.447,8.549,5.218c5.296,3.558,10.091,6.982,13.75,10.231C239.275,248.805,243,254.75,243,254.75l-88.249,59.974
		c0,0-3.412-4.676-6.796-13.914c-1.778-4.559-3.327-10.243-4.828-16.445c-0.74-3.108-1.265-6.486-1.93-9.828
		c-0.668-3.34-1.01-6.966-1.535-10.465c-1.07-6.984-1.622-14.33-2.221-21.159c-0.454-6.93-0.718-13.51-0.748-19.286
		c0.062-5.84,0.278-10.822,0.352-14.255c0.213-3.53,0.424-5.609,0.424-5.609L144.394,198.939z"/>
</g>
<g id="Layer_1">
</g>
</svg>
