<?xml version="1.0" encoding="iso-8859-1"?>
<!-- Generator: Adobe Illustrator 19.2.1, SVG Export Plug-In . SVG Version: 6.00 Build 0)  -->
<!DOCTYPE svg PUBLIC "-//W3C//DTD SVG 1.1//EN" "http://www.w3.org/Graphics/SVG/1.1/DTD/svg11.dtd">
<svg version="1.1" id="Layer_2" xmlns="http://www.w3.org/2000/svg" xmlns:xlink="http://www.w3.org/1999/xlink" x="0px" y="0px"
	 viewBox="0 0 512 512" enable-background="new 0 0 512 512" xml:space="preserve">
<path fill="#D3DDE0" d="M305.688,346.998c0,0-0.999-0.824-2.872-2.368c-1.881-1.426-4.698-3.515-8.538-5.765
	c-3.837-2.237-8.737-4.561-14.616-6.426c-5.876-1.856-12.758-3.144-20.307-3.418c-7.545-0.199-15.759,0.72-24.002,3.223
	c-8.234,2.499-16.444,6.67-23.756,12.493c-0.917,0.724-1.827,1.463-2.693,2.262c-0.914,0.811-1.832,1.626-2.753,2.443l-1.388,1.23
	l-1.533,1.235c-0.514,0.407-1.024,0.834-1.544,1.226l-1.574,1.143c-4.214,3.04-8.804,5.675-13.664,7.8
	c-9.724,4.246-20.479,6.479-31.248,6.525c-10.77-0.042-21.525-2.278-31.249-6.523c-4.86-2.126-9.453-4.755-13.666-7.797
	l-1.574-1.144c-0.517-0.389-1.013-0.805-1.519-1.206l-1.506-1.211l-1.442-1.277c-0.922-0.818-1.841-1.634-2.756-2.446
	c-0.457-0.399-0.917-0.828-1.368-1.2l-1.342-1.076c-7.267-5.789-15.511-9.98-23.733-12.474c-8.242-2.504-16.456-3.421-24-3.224
	c-7.548,0.273-14.43,1.564-20.306,3.417c-5.879,1.864-10.778,4.187-14.616,6.424c-3.838,2.248-6.656,4.336-8.56,5.782
	c-1.847,1.52-2.832,2.331-2.832,2.331l-0.045,0.037c-0.46,0.379-1.14,0.313-1.519-0.147c-0.365-0.444-0.315-1.094,0.102-1.479
	c0,0,0.968-0.892,2.782-2.565c1.886-1.586,4.649-3.958,8.559-6.441c3.894-2.492,8.899-5.131,14.982-7.343
	c6.075-2.209,13.27-3.881,21.257-4.376c7.974-0.46,16.745,0.246,25.611,2.76c8.864,2.489,17.786,6.727,25.79,12.978l1.519,1.192
	c0.494,0.399,0.933,0.798,1.403,1.199c0.927,0.801,1.857,1.605,2.791,2.412l1.348,1.165l1.409,1.1
	c0.473,0.364,0.935,0.744,1.418,1.097l1.469,1.037c3.937,2.748,8.194,5.135,12.684,7.092c8.997,3.883,18.954,5.901,28.911,5.907
	c9.957-0.002,19.914-2.023,28.912-5.906c4.49-1.958,8.751-4.338,12.686-7.09l1.469-1.037c0.479-0.351,0.927-0.719,1.392-1.077
	l1.382-1.076l1.402-1.211c0.935-0.808,1.866-1.613,2.794-2.415c0.947-0.849,1.94-1.635,2.939-2.404
	c7.959-6.216,16.914-10.475,25.766-12.958c8.865-2.515,17.635-3.218,25.609-2.76c7.987,0.493,15.181,2.169,21.256,4.375
	c6.082,2.211,11.088,4.849,14.982,7.341c3.907,2.481,6.671,4.852,8.58,6.458c1.788,1.649,2.741,2.528,2.741,2.528
	c0.439,0.405,0.466,1.088,0.062,1.527C306.783,347.323,306.128,347.359,305.688,346.998z M508.773,264.119
	c0.405-0.439,0.377-1.122-0.062-1.527c0,0-0.954-0.879-2.741-2.528c-1.909-1.606-4.674-3.977-8.58-6.458
	c-3.894-2.491-8.9-5.13-14.982-7.341c-6.075-2.206-13.269-3.881-21.256-4.375c-7.974-0.458-16.744,0.245-25.609,2.76
	c-8.852,2.484-17.808,6.743-25.766,12.958c-1,0.769-1.992,1.556-2.939,2.404c-0.928,0.802-1.859,1.607-2.794,2.415l-1.402,1.211
	l-1.382,1.076c-0.465,0.357-0.913,0.726-1.392,1.077l-1.469,1.037c-3.935,2.752-8.197,5.132-12.686,7.09
	c-8.998,3.882-18.955,5.904-28.912,5.906c-9.957-0.006-19.914-2.024-28.911-5.908c-4.49-1.957-8.747-4.344-12.684-7.092
	l-1.469-1.037c-0.483-0.353-0.945-0.733-1.418-1.097l-1.409-1.1l-1.348-1.164c-0.934-0.807-1.864-1.611-2.791-2.412
	c-0.47-0.4-0.909-0.8-1.403-1.199l-1.519-1.192c-8.004-6.251-16.926-10.489-25.79-12.978c-8.866-2.514-17.636-3.221-25.611-2.76
	c-7.987,0.495-15.182,2.167-21.257,4.376c-6.082,2.212-11.088,4.851-14.982,7.343c-3.909,2.483-6.672,4.855-8.559,6.441
	c-1.814,1.673-2.782,2.565-2.782,2.565c-0.416,0.385-0.467,1.036-0.102,1.479c0.379,0.46,1.059,0.526,1.519,0.147l0.045-0.037
	c0,0,0.985-0.811,2.832-2.331c1.903-1.445,4.722-3.534,8.56-5.782c3.838-2.237,8.737-4.56,14.616-6.424
	c5.876-1.853,12.758-3.144,20.306-3.417c7.544-0.197,15.758,0.719,24,3.224c8.222,2.494,16.466,6.685,23.733,12.474l1.342,1.076
	c0.451,0.372,0.912,0.801,1.368,1.2c0.915,0.812,1.834,1.628,2.756,2.446l1.442,1.277l1.506,1.211
	c0.506,0.401,1.002,0.816,1.519,1.206l1.574,1.144c4.213,3.043,8.806,5.672,13.666,7.797c9.724,4.245,20.479,6.481,31.249,6.523
	c10.77-0.046,21.525-2.279,31.248-6.525c4.86-2.125,9.449-4.76,13.664-7.8l1.574-1.143c0.521-0.392,1.031-0.819,1.544-1.226
	l1.533-1.235l1.388-1.23c0.921-0.817,1.839-1.632,2.753-2.443c0.866-0.799,1.776-1.538,2.693-2.262
	c7.313-5.824,15.522-9.994,23.756-12.493c8.242-2.504,16.457-3.423,24.002-3.223c7.549,0.274,14.431,1.562,20.307,3.418
	c5.879,1.865,10.778,4.189,14.616,6.426c3.84,2.25,6.657,4.339,8.538,5.765c1.873,1.544,2.872,2.368,2.872,2.368
	C507.728,264.577,508.383,264.542,508.773,264.119z M100.754,165.1c-0.405,0.439-0.377,1.122,0.062,1.527
	c0,0,0.954,0.879,2.741,2.528c1.909,1.606,4.674,3.977,8.58,6.458c3.894,2.491,8.9,5.13,14.982,7.341
	c6.075,2.206,13.269,3.881,21.256,4.375c7.974,0.458,16.744-0.245,25.609-2.76c8.852-2.484,17.808-6.743,25.766-12.958
	c1-0.769,1.992-1.556,2.939-2.404c0.928-0.802,1.859-1.607,2.794-2.415l1.402-1.211l1.382-1.076
	c0.465-0.357,0.913-0.726,1.392-1.077l1.469-1.037c3.935-2.752,8.197-5.132,12.686-7.09c8.998-3.882,18.955-5.904,28.912-5.906
	c9.957,0.006,19.914,2.024,28.911,5.907c4.49,1.957,8.747,4.344,12.684,7.092l1.469,1.037c0.483,0.353,0.945,0.733,1.418,1.097
	l1.409,1.1l1.348,1.165c0.934,0.807,1.864,1.611,2.791,2.412c0.47,0.4,0.909,0.8,1.403,1.199l1.519,1.192
	c8.004,6.251,16.926,10.489,25.79,12.978c8.866,2.514,17.636,3.221,25.611,2.76c7.987-0.495,15.182-2.167,21.257-4.376
	c6.082-2.212,11.088-4.851,14.982-7.343c3.909-2.483,6.672-4.855,8.559-6.441c1.814-1.673,2.782-2.565,2.782-2.565
	c0.416-0.385,0.467-1.036,0.102-1.479c-0.379-0.46-1.059-0.526-1.519-0.147l-0.045,0.037c0,0-0.985,0.811-2.832,2.331
	c-1.903,1.445-4.722,3.534-8.56,5.782c-3.838,2.237-8.737,4.56-14.616,6.424c-5.876,1.853-12.758,3.144-20.306,3.417
	c-7.544,0.197-15.758-0.719-24-3.224c-8.222-2.494-16.466-6.685-23.733-12.474l-1.342-1.076c-0.451-0.372-0.912-0.801-1.368-1.2
	c-0.915-0.812-1.834-1.628-2.756-2.446l-1.442-1.277l-1.506-1.211c-0.506-0.401-1.002-0.816-1.519-1.206l-1.574-1.144
	c-4.213-3.043-8.806-5.672-13.666-7.797c-9.724-4.245-20.479-6.481-31.249-6.523c-10.77,0.046-21.525,2.279-31.248,6.525
	c-4.86,2.125-9.449,4.76-13.664,7.8l-1.574,1.143c-0.521,0.392-1.031,0.819-1.544,1.226l-1.533,1.235l-1.388,1.23
	c-0.921,0.817-1.839,1.632-2.753,2.443c-0.866,0.799-1.776,1.538-2.693,2.262c-7.313,5.824-15.523,9.994-23.756,12.493
	c-8.242,2.504-16.457,3.423-24.002,3.223c-7.549-0.274-14.431-1.562-20.307-3.418c-5.879-1.865-10.778-4.189-14.616-6.426
	c-3.84-2.25-6.657-4.339-8.538-5.765c-1.873-1.544-2.872-2.368-2.872-2.368C101.8,164.641,101.144,164.677,100.754,165.1z"/>
</svg>
