<?xml version="1.0" encoding="iso-8859-1"?>
<!-- Generator: Adobe Illustrator 18.1.1, SVG Export Plug-In . SVG Version: 6.00 Build 0)  -->
<!DOCTYPE svg PUBLIC "-//W3C//DTD SVG 1.1//EN" "http://www.w3.org/Graphics/SVG/1.1/DTD/svg11.dtd">
<svg version="1.1" xmlns="http://www.w3.org/2000/svg" xmlns:xlink="http://www.w3.org/1999/xlink" x="0px" y="0px"
	 viewBox="0 0 512 512" enable-background="new 0 0 512 512" xml:space="preserve">
<g id="Layer_9">
	<path fill="#FFE1AB" d="M212.081,170.863c-1.607,0-3.124-0.976-3.734-2.566c-0.793-2.062,0.236-4.376,2.298-5.168l16.422-6.313
		c2.061-0.794,4.376,0.236,5.168,2.298c0.793,2.062-0.236,4.376-2.298,5.168l-16.422,6.313
		C213.043,170.777,212.558,170.863,212.081,170.863z M221.409,191.131l16.422-6.313c2.062-0.792,3.091-3.106,2.298-5.168
		c-0.792-2.062-3.108-3.092-5.168-2.298l-16.422,6.313c-2.062,0.792-3.091,3.106-2.298,5.168c0.611,1.59,2.127,2.566,3.734,2.566
		C220.452,191.398,220.938,191.312,221.409,191.131z M229.303,211.666l16.422-6.313c2.062-0.792,3.091-3.106,2.298-5.168
		c-0.792-2.062-3.108-3.091-5.168-2.298l-16.422,6.313c-2.062,0.792-3.091,3.106-2.298,5.168c0.611,1.59,2.127,2.566,3.734,2.566
		C228.346,211.933,228.832,211.847,229.303,211.666z M218.435,248.753c2.062-0.792,3.091-3.106,2.298-5.168l-6.313-16.422
		c-0.792-2.062-3.107-3.091-5.168-2.298c-2.062,0.792-3.091,3.106-2.298,5.168l6.313,16.422c0.611,1.59,2.127,2.566,3.734,2.566
		C217.478,249.021,217.963,248.935,218.435,248.753z M197.901,256.647c2.062-0.792,3.091-3.107,2.298-5.169l-6.313-16.422
		c-0.793-2.062-3.105-3.09-5.169-2.298c-2.062,0.792-3.091,3.107-2.298,5.169l6.313,16.422c0.611,1.59,2.127,2.565,3.734,2.565
		C196.943,256.915,197.429,256.829,197.901,256.647z M248.011,231.983c0.989-1.976,0.189-4.379-1.786-5.368l-16.705-8.364
		c-1.975-0.99-4.379-0.189-5.368,1.786c-0.989,1.976-0.189,4.379,1.786,5.368l16.705,8.364c0.575,0.288,1.186,0.424,1.788,0.424
		C245.897,234.193,247.31,233.383,248.011,231.983z"/>
</g>
<g id="Layer_1">
</g>
</svg>
