<?xml version="1.0" encoding="iso-8859-1"?>
<!-- Generator: Adobe Illustrator 19.2.1, SVG Export Plug-In . SVG Version: 6.00 Build 0)  -->
<!DOCTYPE svg PUBLIC "-//W3C//DTD SVG 1.1//EN" "http://www.w3.org/Graphics/SVG/1.1/DTD/svg11.dtd">
<svg version="1.1" xmlns="http://www.w3.org/2000/svg" xmlns:xlink="http://www.w3.org/1999/xlink" x="0px" y="0px"
	 viewBox="0 0 512 512" enable-background="new 0 0 512 512" xml:space="preserve">
<g id="Layer_3">
	<path fill="#2B3B47" d="M136.542,248.418h-7.327V140.434c0-34.873,3.537-52.27,12.614-62.048
		c9.554-10.292,24.299-11.061,45.704-11.061c6.913,0,12.598-1.784,16.44-5.159c3.191-2.803,4.948-6.592,4.948-10.669
		c0-7.951-6.693-16.508-21.388-16.508H60.363v-7.327h127.17c18.852,0,28.716,11.99,28.716,23.835
		c0,11.152-8.986,23.155-28.716,23.155c-19.474,0-32.803,0.607-40.334,8.719c-7.569,8.154-10.657,24.686-10.657,57.062V248.418z
		 M81.801,219.794c0-30.424-3.584-45.602-12.783-54.133c-9.162-8.497-22.644-9.109-43.758-9.109c-11.234,0-16.35-7.424-16.35-14.321
		c0-3.8,1.492-7.328,4.201-9.932c3.204-3.08,7.946-4.708,13.72-4.708c0,0,27.003-0.051,53.478-0.051
		c8.72,0,16.077-2.414,21.276-6.981c4.797-4.214,7.439-9.958,7.439-16.174c0-11.844-9.864-23.834-28.716-23.834H41.289v7.327h39.019
		c14.695,0,21.388,8.557,21.388,16.507c0,4.077-1.757,7.866-4.948,10.669c-3.842,3.375-9.527,5.159-16.44,5.159
		c-26.481,0-53.491,0.051-53.484,0.051c-7.698,0-14.196,2.334-18.792,6.752c-4.16,3.999-6.451,9.402-6.451,15.215
		c0,10.758,8.133,21.648,23.678,21.648c19.326,0,31.58,0.482,38.775,7.155c7.414,6.875,10.438,21.002,10.438,48.76v20.076h7.327
		V219.794z"/>
</g>
<g id="Layer_1">
</g>
</svg>
