<?xml version="1.0" encoding="iso-8859-1"?>
<!-- Generator: Adobe Illustrator 18.1.1, SVG Export Plug-In . SVG Version: 6.00 Build 0)  -->
<!DOCTYPE svg PUBLIC "-//W3C//DTD SVG 1.1//EN" "http://www.w3.org/Graphics/SVG/1.1/DTD/svg11.dtd">
<svg version="1.1" xmlns="http://www.w3.org/2000/svg" xmlns:xlink="http://www.w3.org/1999/xlink" x="0px" y="0px"
	 viewBox="0 0 512 512" enable-background="new 0 0 512 512" xml:space="preserve">
<g id="Layer_6">
	<path fill="#2B3B47" d="M350.281,374.144c0,0-12.087-15.225-14.164-16.894l10.257-34.103c5.285-12.531,3.003-26.969-5.868-37.278
		c-1.381-1.604-2.501-2.875-3.12-3.563l-54.27-55.621l-13.35-48.761c0.046-0.026,0.098-0.055,0.145-0.082
		c3.334-0.526,7.591-3.077,11.281-7.088c5.054-5.493,7.303-11.821,5.574-15.035c-0.078-0.24-0.157-0.481-0.256-0.722
		c-3.839-9.321-25.343-22.105-49.781-22.629c-7.742-1.765-16.586-2.084-25.768-0.607c-16.826,2.707-30.685,10.778-37.76,20.723
		c-12.939,8.593-21.397,19.677-22.084,26.659c-0.024,0.242-0.019,0.474-0.025,0.709c-0.772,3.55,3.186,8.956,9.595,12.75
		c4.353,2.577,8.815,3.801,12.092,3.58l11.992,70.273l0.565-0.139c0.222,1.176,0.562,2.386,1.036,3.632
		c14.775,38.827,59.031,67.51,59.031,67.51c3.707,4.525,6.599,9.661,8.547,15.177l-11.405,51.605c0,0,0.003,0.003,0.003,0.003
		c-1.323,4.912-0.031,10.632,3.977,15.216c0,0,1.309,1.497,3.273,3.743c1.761,2.135,16.98,14.08,16.98,14.08
		c4.625,3.703,11.008,4.825,16.15,2.369c6.767-3.232,8.823-11.436,4.593-18.325c0,0-1.835-2.988-4.997-7.176
		c-1.794-2.503-4.992-5.031-6.767-7.734c-0.534-0.772-1.004-1.45-1.407-2.032c0,0,21.342-55.684,10.882-78.725
		c-8.656-19.067-27.924-37.023-25.134-38.841c3.744-2.44,25.995,8.042,38.776,14.084c9.33,4.411,16.421,12.475,19.629,22.284
		l-8.229,38.31c-4.114,8.222,0.189,16.326,7.288,22.399c0.518,0.443,1.047,0.845,1.583,1.205l0.186,0.122
		c0,0,1.557,1.03,3.892,2.575c2.591,1.615,5.147,4.811,7.559,6.471c4.05,2.953,6.903,4.598,6.903,4.598
		c6.577,3.792,13.798,0.526,16.128-7.296C355.583,385.626,354.02,378.762,350.281,374.144z"/>
</g>
<g id="Layer_1">
</g>
</svg>
