<?xml version="1.0" encoding="utf-8"?>
<!-- Generator: Adobe Illustrator 18.1.0, SVG Export Plug-In . SVG Version: 6.00 Build 0)  -->
<!DOCTYPE svg PUBLIC "-//W3C//DTD SVG 1.0//EN" "http://www.w3.org/TR/2001/REC-SVG-20010904/DTD/svg10.dtd">
<svg version="1.0" id="Layer_1" xmlns="http://www.w3.org/2000/svg" xmlns:xlink="http://www.w3.org/1999/xlink" x="0px" y="0px"
	 width="72px" height="72px" viewBox="0 0 72 72" enable-background="new 0 0 72 72" xml:space="preserve">
<path fill="#E5AB83" d="M20.9,15.5C20.9,15.5,20.9,15.5,20.9,15.5c-0.5,0-1-0.3-1.3-0.7c-0.1-0.1,0-0.3,0.1-0.4
	c0.1-0.1,0.3,0,0.4,0.1c0.2,0.2,0.4,0.4,0.7,0.4h0c0.3,0,0.6-0.1,0.7-0.4c0.1-0.1,0.3-0.2,0.4-0.1c0.1,0.1,0.2,0.3,0.1,0.4
	C21.9,15.2,21.4,15.5,20.9,15.5z"/>
<path fill="#E5AB83" d="M17.2,9.6c0,0-0.5-0.1-1-0.1c-0.1,0-0.2,0-0.3,0c-0.1,0-0.2,0.1-0.3,0.1c-0.1,0-0.1,0.1-0.2,0.1
	c0,0-0.1,0-0.1,0l-0.1,0c-0.1,0.1-0.2,0-0.3-0.1c-0.1-0.1,0-0.2,0.1-0.3c0,0,0,0,0.1-0.1c0.1,0,0.1-0.1,0.2-0.2
	c0.1,0,0.2-0.1,0.4-0.1C15.9,9,16.1,9,16.2,9c0.6-0.1,1.1,0,1.1,0l0,0c0.2,0,0.3,0.2,0.3,0.4C17.6,9.5,17.4,9.7,17.2,9.6
	C17.3,9.6,17.2,9.6,17.2,9.6z"/>
<path fill="#E5AB83" d="M24.5,9c0,0,0.6-0.1,1.1,0c0.1,0,0.3,0,0.4,0.1c0.1,0,0.3,0.1,0.4,0.1c0.1,0,0.2,0.1,0.2,0.2
	c0.1,0,0.1,0.1,0.1,0.1c0.1,0.1,0.1,0.2,0,0.3c-0.1,0.1-0.2,0.1-0.3,0.1l-0.1,0c0,0,0,0-0.1,0c0,0-0.1-0.1-0.2-0.1
	c-0.1,0-0.2-0.1-0.3-0.1c-0.1,0-0.2,0-0.3,0c-0.5,0-1,0.1-1,0.1c-0.2,0-0.3-0.1-0.4-0.2C24.1,9.2,24.3,9.1,24.5,9
	C24.4,9,24.4,9,24.5,9L24.5,9z"/>
</svg>
