<?xml version="1.0" encoding="iso-8859-1"?>
<!-- Generator: Adobe Illustrator 18.1.1, SVG Export Plug-In . SVG Version: 6.00 Build 0)  -->
<!DOCTYPE svg PUBLIC "-//W3C//DTD SVG 1.1//EN" "http://www.w3.org/Graphics/SVG/1.1/DTD/svg11.dtd">
<svg version="1.1" xmlns="http://www.w3.org/2000/svg" xmlns:xlink="http://www.w3.org/1999/xlink" x="0px" y="0px"
	 viewBox="0 0 512 512" enable-background="new 0 0 512 512" xml:space="preserve">
<g id="Layer_3">
	<path fill="#F4580B" d="M359.717,432.147c0,0-0.167-0.529-0.615-1.309c-0.444-0.784-1.179-1.809-2.22-2.89
		c-1.05-1.073-2.413-2.195-4.05-3.232c-1.648-1.026-3.44-2.09-5.286-3.102c-0.92-0.509-1.851-1.008-2.785-1.482
		c-0.923-0.485-1.864-0.932-2.768-1.37c-0.911-0.432-1.802-0.84-2.671-1.203c-0.869-0.364-1.657-0.739-2.446-1.029
		c-1.538-0.616-2.869-1.083-3.813-1.398c-0.957-0.303-1.522-0.459-1.522-0.459c-1.481-0.402-3.122-0.486-4.728-0.154
		c-0.535,0.111-1.046,0.273-1.541,0.461c-8.934-8.979-17.208-23.625-19.288-37.922H315c17.232,0,14.77-61.543-6.154-61.543h-44.275
		c-2.845,0-4.485,3.4-2.848,5.876c8.282,12.528,13.288,35.667,3.648,49.725c-1.696,2.473-0.077,5.941,2.801,5.941h4.906
		c-0.123,1.207-0.234,2.409-0.344,3.596c-1.416,15.315-3.213,25.45-14.353,29.922c-1.378-1.361-3.16-2.342-5.206-2.731
		c0,0-0.576-0.109-1.569-0.259c-0.986-0.133-2.386-0.301-4.038-0.427c-0.835-0.087-1.708-0.098-2.649-0.155
		c-0.941-0.057-1.92-0.084-2.928-0.098c-1.005-0.005-2.046-0.019-3.088,0.009c-1.048,0.014-2.103,0.051-3.154,0.102
		c-2.103,0.094-4.181,0.258-6.112,0.453c-1.927,0.208-3.645,0.615-5.06,1.115c-1.411,0.511-2.523,1.106-3.267,1.614
		c-0.746,0.503-1.129,0.904-1.129,0.904c-2.908,3.04-4.848,7.069-5.232,11.588c-0.894,10.512,6.903,19.758,17.414,20.651
		c0,0,0.553,0.047,1.445-0.069c0.894-0.111,2.122-0.4,3.518-0.95c1.392-0.561,2.95-1.393,4.533-2.51
		c1.578-1.132,3.244-2.383,4.884-3.703c0.821-0.657,1.638-1.327,2.433-2.009c0.8-0.668,1.572-1.367,2.323-2.035
		c0.747-0.678,1.464-1.345,2.132-2.01c0.668-0.665,1.316-1.25,1.885-1.868c1.156-1.187,2.095-2.239,2.747-2.991
		c0.645-0.769,1.005-1.232,1.005-1.232c0.854-1.108,1.498-2.445,1.84-3.891c18.485-6.784,20.115-24.255,21.433-38.513
		c0.146-1.576,0.29-3.076,0.446-4.503h13.068c0.647,5.433,2.072,11.075,4.286,16.792c4.247,10.97,10.998,21.311,18.592,28.704
		c-0.235,1.255-0.24,2.574,0.034,3.901c0,0,0.119,0.574,0.359,1.549c0.253,0.962,0.633,2.321,1.146,3.896
		c0.238,0.805,0.561,1.616,0.867,2.508c0.306,0.891,0.655,1.807,1.026,2.744c0.379,0.93,0.763,1.898,1.187,2.851
		c0.413,0.963,0.85,1.924,1.297,2.876c0.89,1.908,1.834,3.766,2.751,5.477c0.928,1.701,1.959,3.135,2.961,4.252
		c1.011,1.11,1.985,1.91,2.739,2.404c0.75,0.497,1.266,0.699,1.266,0.699c3.92,1.528,8.384,1.784,12.707,0.415
		C357.33,452.939,362.902,442.204,359.717,432.147z"/>
</g>
<g id="Layer_1">
</g>
</svg>
