<?xml version="1.0" encoding="utf-8"?>
<!-- Generator: Adobe Illustrator 18.1.0, SVG Export Plug-In . SVG Version: 6.00 Build 0)  -->
<!DOCTYPE svg PUBLIC "-//W3C//DTD SVG 1.0//EN" "http://www.w3.org/TR/2001/REC-SVG-20010904/DTD/svg10.dtd">
<svg version="1.0" id="Layer_1" xmlns="http://www.w3.org/2000/svg" xmlns:xlink="http://www.w3.org/1999/xlink" x="0px" y="0px"
	 width="72px" height="72px" viewBox="0 0 72 72" enable-background="new 0 0 72 72" xml:space="preserve">
<path fill="#FFFFFF" d="M38.7,12.8c-0.5-0.1-1-0.1-1.4,0.1c-0.1,0-0.2,0-0.2-0.2c0.1-0.5,0-0.9-0.3-1.3c-0.2-0.3-0.4-0.5-0.7-0.7
	c-0.3,0.2-0.5,0.4-0.7,0.7c-0.3,0.4-0.3,0.9-0.3,1.3c0,0.1-0.1,0.2-0.2,0.2c-0.4-0.2-0.9-0.2-1.4-0.1c-0.2,0.1-0.3,0.1-0.5,0.2
	c0,0.2,0.1,0.3,0.2,0.5c0.3,0.5,0.8,0.9,1.4,0.9c0.1,0,0.1,0.2,0.1,0.2c-0.4,0.4-0.7,0.9-0.7,1.6c0,0.2,0,0.4,0.1,0.5c0,0,0,0,0,0
	c0.2,0,0.4,0,0.5-0.1c0.7-0.2,1.2-0.7,1.4-1.4c0,0,0,0,0-0.1c0-0.1,0-0.2,0-0.3c0,0.1,0,0.3,0.1,0.4c0.2,0.7,0.7,1.2,1.4,1.4
	c0.2,0.1,0.4,0.1,0.5,0.1l0,0c0-0.2,0.1-0.4,0.1-0.5c0-0.8-0.4-1.4-1-1.8l0,0c-0.1-0.1-0.1-0.1,0,0c0,0,0,0,0.1,0
	c0.7,0,1.4-0.3,1.7-1c0.1-0.2,0.2-0.3,0.2-0.5C39.1,13,38.9,12.9,38.7,12.8z M36.2,14.3L36.2,14.3L36.2,14.3L36.2,14.3L36.2,14.3
	L36.2,14.3L36.2,14.3L36.2,14.3L36.2,14.3L36.2,14.3z M29.4,12.6c-0.1,0-0.2-0.1-0.2-0.2c0.2-0.4,0.2-0.9,0-1.4
	c-0.1-0.3-0.3-0.6-0.5-0.8c-0.3,0.1-0.6,0.3-0.8,0.5c-0.4,0.4-0.6,1-0.5,1.6c0.4,0.3,0.6,0.8,0.6,1.3c0,0,0,0,0,0c0,0,0,0,0,0
	s0,0,0,0l0,0l0,0c0,0,0,0,0,0c0,0,0,0,0,0l0,0c0,0,0,0,0,0c0,0,0,0,0,0c0,0,0,0,0,0l0,0l0,0l0,0l0,0l0,0c0,0,0,0,0,0
	c0-0.5-0.3-1-0.6-1.3c-0.4-0.4-1-0.6-1.5-0.6c-0.2,0-0.4,0.1-0.5,0.1c0,0.2,0,0.4,0.1,0.5c0.3,0.7,0.9,1.2,1.5,1.3l0,0
	c-0.7,0.2-1.2,0.8-1.3,1.5c0,0.2,0,0.4,0,0.6c0,0,0,0,0,0c0.2,0,0.4,0.1,0.6,0c0.7-0.1,1.3-0.5,1.7-1.1c0,0,0,0,0-0.1
	c0-0.3,0-0.7,0.2-1l0,0c-0.2,0.3-0.2,0.7-0.2,1.1c0,0.7,0.4,1.4,1.1,1.7c0.2,0.1,0.3,0.1,0.5,0.2c0,0,0,0,0,0
	c0.1-0.2,0.2-0.3,0.2-0.5c0.1-0.6,0-1.2-0.4-1.7c-0.1-0.1,0-0.2,0.1-0.2c0.6,0,1.2-0.2,1.6-0.6c0.1-0.1,0.2-0.3,0.3-0.5
	c-0.1-0.1-0.3-0.2-0.4-0.3C30.3,12.6,29.9,12.5,29.4,12.6z M28,13.7L28,13.7L28,13.7L28,13.7z M22.3,10c-0.1,0-0.2-0.1-0.1-0.2
	c0.2-0.4,0.4-0.9,0.3-1.3c0-0.3-0.2-0.6-0.3-0.9c-0.3,0-0.6,0.1-0.9,0.3c-0.4,0.3-0.7,0.7-0.8,1.1c0,0.1-0.2,0.1-0.2,0.1
	c-0.3-0.3-0.7-0.6-1.2-0.7c-0.2,0-0.4,0-0.6,0c0,0.2,0,0.4,0,0.6c0.1,0.6,0.4,1.1,0.9,1.5c0.1,0.1,0.1,0.2,0,0.2
	c-0.6,0.2-1,0.5-1.3,1.1c-0.1,0.2-0.1,0.4-0.2,0.5c0,0,0,0,0,0c0.2,0.1,0.3,0.1,0.5,0.2c0.6,0.1,1.2-0.1,1.6-0.5
	c0.1-0.1,0.2,0,0.2,0.1c0,0.6,0.2,1.1,0.7,1.5c0.1,0.1,0.3,0.2,0.5,0.3c0,0,0,0,0,0c0.1-0.1,0.2-0.3,0.3-0.5c0.3-0.7,0.2-1.4-0.2-2
	l0,0c-0.2-0.3-0.5-0.5-0.8-0.7c0,0,0,0,0,0c0,0,0,0,0,0c0.4,0,0.8-0.2,1-0.4c-0.3,0.2-0.6,0.4-1,0.4c0.3,0.2,0.6,0.4,0.8,0.7
	c0,0,0,0,0.1,0c0.6,0.3,1.4,0.3,2-0.2c0.2-0.1,0.3-0.2,0.4-0.4c-0.1-0.2-0.2-0.3-0.4-0.4C23.2,10.2,22.7,10,22.3,10z M21.1,11
	c-0.1-0.1-0.3-0.2-0.5-0.3l0,0C20.9,10.8,21,10.9,21.1,11z M20.7,10.7L20.7,10.7L20.7,10.7L20.7,10.7L20.7,10.7L20.7,10.7L20.7,10.7
	L20.7,10.7z M45.3,12.2c-0.1,0.1-0.2,0-0.2-0.1c0-0.5-0.2-0.9-0.5-1.3c-0.2-0.2-0.5-0.4-0.8-0.5c-0.2,0.2-0.4,0.5-0.5,0.8
	c-0.2,0.5-0.2,0.9,0,1.4c0,0.1,0,0.2-0.2,0.2c-0.4-0.1-0.9,0-1.4,0.2c-0.2,0.1-0.3,0.2-0.4,0.3c0.1,0.2,0.2,0.3,0.3,0.5
	c0.4,0.5,1,0.7,1.6,0.6c0.1,0,0.2,0.1,0.1,0.2c-0.4,0.5-0.5,1.1-0.4,1.7c0,0.2,0.1,0.4,0.2,0.5c0,0,0,0,0,0c0.2,0,0.4-0.1,0.5-0.2
	c0.6-0.3,0.9-0.8,1-1.3c0-0.1,0.2-0.1,0.2,0c0.3,0.5,0.9,0.8,1.5,0.8c0.2,0,0.4,0,0.6,0c0-0.2,0-0.4,0-0.6c0,0.2,0,0.4,0,0.6
	c0,0,0,0,0,0c0-0.2,0-0.4,0-0.6c-0.1-0.6-0.5-1.1-1-1.4c-0.1-0.1-0.1-0.2,0-0.2c0.5-0.2,1-0.6,1.2-1.2c0.1-0.2,0.1-0.4,0.1-0.5
	c-0.2-0.1-0.3-0.1-0.5-0.1C46.1,11.8,45.7,11.9,45.3,12.2z M44.4,13.7C44.4,13.7,44.4,13.7,44.4,13.7C44.4,13.7,44.4,13.7,44.4,13.7
	C44.4,13.7,44.4,13.7,44.4,13.7C44.4,13.7,44.4,13.7,44.4,13.7z M44.4,13.7L44.4,13.7L44.4,13.7L44.4,13.7z M44.4,13.7L44.4,13.7
	L44.4,13.7C44.4,13.7,44.4,13.7,44.4,13.7C44.4,13.7,44.4,13.7,44.4,13.7z M54.5,11.7c-0.3-0.6-0.7-1-1.3-1.1c-0.1,0-0.1-0.2,0-0.2
	c0.5-0.3,0.8-0.8,0.9-1.5c0-0.2,0-0.4,0-0.6c-0.2,0-0.4,0-0.6,0C53,8.4,52.6,8.7,52.3,9C52.2,9.1,52.1,9.1,52,9
	c-0.1-0.4-0.4-0.8-0.8-1.1c-0.3-0.2-0.6-0.3-0.9-0.3C50.1,7.8,50,8.1,50,8.4c-0.1,0.5,0.1,1,0.3,1.3c0.1,0.1,0,0.2-0.1,0.2
	c-0.5,0-0.9,0.2-1.3,0.5c-0.1,0.1-0.3,0.3-0.4,0.4c0.1,0.1,0.2,0.3,0.4,0.4c0.5,0.3,1.1,0.4,1.7,0.3c0.1,0,0.2,0.1,0.2,0.2
	c-0.2,0.5-0.3,1.1,0,1.7c0.1,0.2,0.2,0.3,0.3,0.5c0,0,0,0,0,0c0.2-0.1,0.3-0.2,0.5-0.3c0.5-0.4,0.7-1,0.7-1.5c0-0.1,0.1-0.2,0.2-0.1
	c0.4,0.4,1,0.6,1.6,0.5c0.2,0,0.4-0.1,0.5-0.2c0,0,0,0,0,0C54.6,12.1,54.6,11.9,54.5,11.7z M51.8,10.7L51.8,10.7
	c0.2-0.1,0.4-0.1,0.5-0.2C52.1,10.6,51.9,10.6,51.8,10.7L51.8,10.7z M51.8,10.7c-0.2,0.1-0.3,0.2-0.5,0.3
	C51.4,10.9,51.6,10.8,51.8,10.7L51.8,10.7z M51.8,10.7L51.8,10.7L51.8,10.7L51.8,10.7z M50.7,10.3c0.3,0.2,0.6,0.4,1,0.4
	c0,0,0,0,0,0c0,0,0,0,0,0C51.4,10.7,51,10.5,50.7,10.3z M51.8,10.7L51.8,10.7C51.8,10.7,51.8,10.7,51.8,10.7
	C51.8,10.7,51.8,10.7,51.8,10.7z"/>
</svg>
