<?xml version="1.0" encoding="utf-8"?>
<!-- Generator: Adobe Illustrator 18.1.0, SVG Export Plug-In . SVG Version: 6.00 Build 0)  -->
<!DOCTYPE svg PUBLIC "-//W3C//DTD SVG 1.0//EN" "http://www.w3.org/TR/2001/REC-SVG-20010904/DTD/svg10.dtd">
<svg version="1.0" id="Layer_1" xmlns="http://www.w3.org/2000/svg" xmlns:xlink="http://www.w3.org/1999/xlink" x="0px" y="0px"
	 width="72px" height="72px" viewBox="0 0 72 72" enable-background="new 0 0 72 72" xml:space="preserve">
<path fill="#2B3B47" d="M43.2,64c-0.6,2.2,1.5,1.9,4.8,2.8c3.2,0.9,6.3-0.2,6.9-2.5c0.1-0.5,0.1-1.1,0-1.6c2.5,1.3,5.1,1.4,6.8-0.1
	c2.3-2.1,1.7-6.6-1.4-9.9c-0.3-0.4-0.7-0.7-1.1-1c2.7,0.6,5.3,0.2,7.1-1.4c3.5-3.2,2.5-10-2.2-15.1c-0.8-0.9-1.6-1.6-2.5-2.2
	c2-0.7,3.5-2.1,4-3.9c0.7-2.8-1.3-5.9-4.8-7.8c2-2,2.9-4.4,2.2-6.6c-1.2-3.8-6.5-5.4-12-3.7c-0.2,0.1-0.4,0.1-0.6,0.2
	c1-3.3,0.3-6.5-2-7.7c-2.2-1.2-5.2,0-7.4,2.6c-0.6-3.4-2.7-5.8-5.2-5.9c-2.4,0-4.5,2.2-5.3,5.2c-2.1-2.2-4.8-3.1-6.8-2
	c-2.3,1.2-3,4.4-2,7.7c-0.2-0.1-0.4-0.1-0.6-0.2c-5.4-1.7-10.8,0-12,3.7c-0.7,2.2,0.2,4.7,2.2,6.6C8,23.1,6,26.2,6.7,29
	c0.5,1.8,2,3.1,4,3.9c-0.9,0.6-1.7,1.4-2.5,2.2C3.5,40.2,2.5,46.9,6,50.2c1.8,1.6,4.4,2.1,7.1,1.4c-0.4,0.3-0.7,0.6-1.1,1
	c-3.1,3.3-3.7,7.8-1.4,9.9c1.6,1.5,4.3,1.5,6.8,0.1c-0.2,0.5-0.2,1.1,0,1.6c0.6,2.2,3.7,3.3,6.9,2.5c3.2-0.9,5.4-0.5,4.8-2.8"/>
</svg>
