<?xml version="1.0" encoding="iso-8859-1"?>
<!-- Generator: Adobe Illustrator 18.1.1, SVG Export Plug-In . SVG Version: 6.00 Build 0)  -->
<!DOCTYPE svg PUBLIC "-//W3C//DTD SVG 1.1//EN" "http://www.w3.org/Graphics/SVG/1.1/DTD/svg11.dtd">
<svg version="1.1" xmlns="http://www.w3.org/2000/svg" xmlns:xlink="http://www.w3.org/1999/xlink" x="0px" y="0px"
	 viewBox="0 0 512 512" enable-background="new 0 0 512 512" xml:space="preserve">
<g id="Layer_3">
	<path fill="#597B91" d="M125.504,298.766c9.077-2.174,17.369-2.709,25.456-1.735c2.29,0.272,3.78,2.107,3.321,4.058
		c-0.783,3.308-1.582,6.593-2.398,9.853c-0.454,1.821-2.529,3.074-4.765,2.885c-8.651-0.727-16.369,0.363-24.132,3.241
		c-8.927,3.29-12.865,7.849-9.37,13.014c3.49,5.158,9.525,6.446,29.095,3.925c23.802-3.285,38.892-2.963,49.336,12.471
		c8.167,12.069,5.421,26.687-9.215,37.458c-1.45,1.055-1.801,2.736-0.88,4.096c3.252,4.806,6.504,9.612,9.756,14.418
		c1.13,1.671,0.304,3.743-1.87,4.593c-3.637,1.423-7.321,2.775-11.058,4.05c-2.233,0.763-4.981-0.006-6.112-1.676
		c-3.01-4.448-6.019-8.896-9.029-13.344c-1.018-1.505-3.38-2.311-5.544-1.884c-13.74,2.708-26.803,1.286-38.061-1.952
		c-2.683-0.774-4.922-1.435-4.064-2.967c1.863-3.35,3.672-6.78,5.429-10.286c1.159-2.32,2.917-1.669,5.336-1.112
		c10.499,2.404,20.583,2.42,30.181-0.894c10.862-3.789,14.48-10.348,10.253-16.596c-4.147-6.128-9.61-6.875-28.233-5.092
		c-29.374,2.378-45.145-4.751-53.301-16.804c-8.212-12.136-1.08-22.507,14.475-30.581c1.679-0.873,3.221-0.961,2.267-2.371
		c-2.059-3.043-8.563-12.656-10.959-16.195c-1.131-1.672,0.935-1.912,3.168-2.675c3.737-1.275,7.421-2.627,11.058-4.05
		c2.174-0.85,4.833-0.213,5.965,1.459c2.937,4.341,5.874,8.681,8.811,13.022C121.386,298.526,123.519,299.24,125.504,298.766z"/>
</g>
<g id="Layer_1">
</g>
</svg>
