<svg xmlns="http://www.w3.org/2000/svg" viewBox="0 0 512 512" enable-background="new 0 0 512 512"><path fill="#FFB636" d="M479.804 320.374c-6.192-48.324-41.002-87.31-87.17-99.533-.29-1.42-.655-2.82-.65-4.324 0-76.16-61.72-137.9-137.88-137.9-25.174 0-48.698 6.856-69.01 18.64-.015.838-.127 1.65-.127 2.492 0 26.277 20.103 80.33 44.03 101.074 4.198 3.925 8.63 7.58 13.288 10.965 32.272 25.32 36.482 47.082 27.868 65.665-26.902 58.033 11.214 106.89 60.067 109.557 39.334 2.145 61.757-38.84 94.41-32.63 37.672 7.162 56.698-18.894 55.174-34.004z"/></svg>