<?xml version="1.0" encoding="iso-8859-1"?>
<!-- Generator: Adobe Illustrator 19.1.0, SVG Export Plug-In . SVG Version: 6.00 Build 0)  -->
<!DOCTYPE svg PUBLIC "-//W3C//DTD SVG 1.1//EN" "http://www.w3.org/Graphics/SVG/1.1/DTD/svg11.dtd">
<svg version="1.1" xmlns="http://www.w3.org/2000/svg" xmlns:xlink="http://www.w3.org/1999/xlink" x="0px" y="0px"
	 viewBox="0 0 512 512" enable-background="new 0 0 512 512" xml:space="preserve">
<g id="Layer_2">
	<path fill="#00B1FF" d="M315.441,375.133c29.222,39.684,23.023,38.75,42.477,49.205c40.166,21.585-35.655,36.476-69.779,20.388
		c-34.134-16.08-49.581-55.064-34.495-87.066C268.722,325.658,293.064,344.751,315.441,375.133 M501.32,381.589l-2.598-3.253
		c0,0-0.542-0.678-1.545-1.838c-0.994-1.198-2.545-2.711-4.255-4.896c-0.444-0.528-0.889-1.1-1.385-1.649
		c-0.474-0.573-1.01-1.107-1.477-1.785c-0.956-1.333-2.041-2.651-3.155-4.066c-1.025-1.529-2.125-3.096-3.291-4.678
		c-1.055-1.702-2.192-3.427-3.322-5.204c-2.109-3.721-4.384-7.562-6.229-11.847c-0.451-1.078-1.046-2.064-1.423-3.194
		c-0.415-1.114-0.866-2.206-1.333-3.299c-0.248-0.534-0.422-1.114-0.602-1.687c-0.196-0.565-0.392-1.137-0.587-1.709
		c-0.392-1.13-0.837-2.253-1.123-3.442c-0.339-1.168-0.656-2.343-1.04-3.502c-0.293-1.183-0.534-2.395-0.836-3.586
		c-0.143-0.602-0.331-1.182-0.444-1.792l-0.302-1.838l-0.354-1.823c-0.12-0.61-0.279-1.204-0.309-1.838
		c-0.12-1.242-0.316-2.47-0.489-3.712c-0.038-0.287-0.12-0.648-0.12-0.889l-0.023-0.701c-0.022-0.467-0.06-0.934-0.106-1.4
		c-0.045-0.467-0.105-0.927-0.165-1.394l-0.03-0.173l-0.007-0.084l-0.007-0.173l-0.015-0.715l-0.045-1.423l-0.139-4.564l0.003-0.046
		l0.007-0.234l0.023-0.474l0.03-0.949l0.052-1.898c0.03-0.633-0.023-1.272,0.045-1.898l0.174-1.883l0.15-1.876
		c0.03-0.633,0.053-1.258,0.174-1.876c0.173-1.235,0.369-2.462,0.489-3.712c0.03-0.625,0.188-1.228,0.309-1.831l0.354-1.831
		l0.302-1.83c0.113-0.61,0.302-1.191,0.444-1.793c0.302-1.19,0.542-2.402,0.836-3.593c0.384-1.152,0.701-2.327,1.04-3.502
		c0.286-1.19,0.731-2.305,1.123-3.442c0.196-0.572,0.392-1.137,0.587-1.702c0.18-0.573,0.354-1.152,0.602-1.687
		c0.467-1.092,0.918-2.192,1.333-3.299c0.377-1.13,0.972-2.116,1.423-3.193c1.845-4.286,4.12-8.135,6.229-11.847
		c1.13-1.785,2.267-3.503,3.322-5.212c1.167-1.574,2.266-3.141,3.291-4.67c1.114-1.416,2.199-2.734,3.155-4.067
		c0.512-0.708,0.881-1.137,1.288-1.664c0.399-0.497,0.76-1.025,1.122-1.507c0.362-0.497,0.708-0.972,1.032-1.416
		c0.075-0.113,0.158-0.226,0.234-0.339c0.135-0.128,0.271-0.256,0.399-0.383c0.264-0.249,0.519-0.49,0.76-0.724
		c0.987-0.918,1.8-1.732,2.47-2.395c1.326-1.326,2.012-2.064,2.012-2.064c4.285-4.661,6.62-11.192,5.739-17.962
		c-1.59-12.149-12.721-20.705-24.869-19.116c0,0-1.002,0.136-2.847,0.445c-0.926,0.158-2.063,0.354-3.382,0.625
		c-0.331,0.06-0.678,0.128-1.032,0.196c-0.174,0.037-0.354,0.074-0.542,0.105c-0.226,0.075-0.46,0.151-0.693,0.234
		c-0.949,0.324-1.95,0.67-3.013,1.04c-1.062,0.383-2.199,0.768-3.374,1.227c-1.152,0.451-2.485,0.941-3.577,1.439
		c-2.32,0.994-4.783,2.184-7.464,3.45c-2.583,1.385-5.295,2.967-8.164,4.677c-2.756,1.838-5.656,3.834-8.594,6.048
		c-5.717,4.594-11.764,9.979-17.217,16.585c-1.192,1.339-2.321,2.76-3.43,4.217c-18.948-61.637-55.38-97.798-97.567-125.726
		c-75.496-49.972-125.785-44.399-161.658-16.412c-35.88,27.988-32.234,96.849-32.234,96.849l283.366,57.231
		c-0.04,0.067-0.079,0.133-0.12,0.2c-1.182,1.996-2.425,3.999-3.427,6.145c-1.047,2.125-2.124,4.263-3.141,6.455
		c-0.941,2.214-1.831,4.481-2.727,6.763c-0.429,1.153-0.896,2.298-1.281,3.465c-0.369,1.175-0.737,2.357-1.107,3.54
		c-0.347,1.198-0.701,2.388-1.055,3.585c-0.346,1.198-0.723,2.395-0.964,3.623c-0.565,2.447-1.055,4.918-1.567,7.396
		c-0.542,2.47-0.746,4.994-1.092,7.51l-0.452,3.781c-0.158,1.265-0.166,2.531-0.241,3.803l-0.158,3.804l-0.067,1.906l-0.038,0.949
		l-0.016,0.482l-0.007,0.234v0.12c0.007,0.64-0.03-1.258,0.023,1.461l0.241,5.709l0.06,1.423l0.038,0.708l0.007,0.188l0.03,0.264
		l0.053,0.534l0.459,4.271l0.512,4.256l0.287,2.116c0.105,0.701,0.241,1.258,0.361,1.898c0.512,2.478,1.001,4.948,1.567,7.388
		c0.241,1.228,0.618,2.425,0.964,3.631c0.354,1.197,0.708,2.388,1.055,3.577c0.37,1.19,0.738,2.365,1.107,3.548
		c0.384,1.167,0.851,2.312,1.281,3.457c0.896,2.289,1.785,4.549,2.727,6.77c1.017,2.184,2.093,4.331,3.141,6.455
		c1.001,2.147,2.244,4.142,3.427,6.146c1.205,1.98,2.32,3.984,3.645,5.829c2.606,3.713,5.144,7.321,7.999,10.53
		c5.453,6.605,11.501,11.99,17.217,16.584c2.937,2.215,5.837,4.211,8.594,6.048c2.869,1.71,5.581,3.291,8.164,4.678
		c2.681,1.258,5.144,2.455,7.464,3.441c2.312,1.002,4.534,1.733,6.5,2.411c0.987,0.331,1.913,0.64,2.794,0.934
		c0.866,0.309,1.74,0.467,2.515,0.678c1.567,0.406,2.907,0.708,3.992,0.941c2.161,0.474,3.314,0.678,3.314,0.678
		c5.807,0.979,12.072-0.406,17.036-4.368C507.187,404.313,508.701,390.838,501.32,381.589z"/>
</g>
<g id="Layer_3">
	<path fill="#59CAFC" d="M440.024,284.917c0,45.996-97.158,153.524-217.016,153.524c-85.566,0-159.564-35.037-194.902-85.935
		c-2.493-3.586,0.271-8.458,4.625-8.082c4.722,0.415,10.469,0.867,15.982,1.168c6.997,0.392,10.153-8.601,4.459-12.683
		c-10.876-7.803-25.05-17.684-34.344-23.085c-7.584-4.42-12.465-12.381-12.766-21.156C6.023,287.425,6,286.175,6,284.917
		c0-84.79,97.157-153.523,217.007-153.523C342.866,131.393,440.024,238.922,440.024,284.917"/>
</g>
<g id="Layer_4">
	<path fill="#2B3B47" d="M85.367,231.356c9.151,0,16.577,7.411,16.577,16.592v20.374c0,9.165-7.426,16.592-16.577,16.592
		c-9.166,0-16.592-7.427-16.592-16.592v-20.374C68.775,238.767,76.201,231.356,85.367,231.356"/>
</g>
<g id="Layer_5">
	<path fill="#00B1FF" d="M225.435,374.209c-4.791,6.726-10.673,1.431-8.27-6.477c5.566-18.301,10.122-47.637,10.122-80.693
		c0-33.064-4.556-62.391-10.122-80.693c-2.403-7.908,3.479-13.202,8.27-6.477c12.351,17.33,21.253,49.882,21.253,87.171
		C246.688,324.335,237.786,356.88,225.435,374.209 M283.524,349.835c8.894-12.487,15.311-35.933,15.311-62.798
		c0-26.865-6.417-50.312-15.311-62.799c-3.458-4.843-7.691-1.024-5.958,4.67c4.014,13.188,7.29,34.313,7.29,58.129
		c0,23.815-3.276,44.948-7.29,58.136C275.833,350.868,280.066,354.686,283.524,349.835"/>
</g>
</svg>
