<?xml version="1.0" encoding="utf-8"?>
<!-- Generator: Adobe Illustrator 18.1.0, SVG Export Plug-In . SVG Version: 6.00 Build 0)  -->
<!DOCTYPE svg PUBLIC "-//W3C//DTD SVG 1.0//EN" "http://www.w3.org/TR/2001/REC-SVG-20010904/DTD/svg10.dtd">
<svg version="1.0" id="Layer_1" xmlns="http://www.w3.org/2000/svg" xmlns:xlink="http://www.w3.org/1999/xlink" x="0px" y="0px"
	 width="72px" height="72px" viewBox="0 0 72 72" enable-background="new 0 0 72 72" xml:space="preserve">
<path fill="#FFD3B6" d="M22.4,23.2c-0.3-2.5-0.3-4.8,0.4-7.8c1.2-5.2,4.2-2,6.2-3.7c1.8-1.5,0.8-2-3.5-3c-0.3-0.1,2.9-8.5,2.9-8.5
	s-5.6,0-6.7,0c-0.9,0-2.2,8.2-2.8,8.6c-2.4,6-0.7,12.1,0.8,16.9C20.3,27.5,22.8,26.4,22.4,23.2z"/>
<path fill="#FFD3B6" d="M50.3,23.2c0.3-2.5,0.3-4.8-0.4-7.8c-1.2-5.2-4.2-2-6.2-3.7c-1.8-1.5-0.8-2,3.5-3c0.3-0.1-2.9-8.5-2.9-8.5
	s5.6,0,6.7,0c0.9,0,2.2,8.2,2.8,8.6c2.4,6,0.7,12.1-0.8,16.9C52.4,27.5,49.9,26.4,50.3,23.2z"/>
</svg>
