<?xml version="1.0" encoding="utf-8"?>
<!-- Generator: Adobe Illustrator 18.1.0, SVG Export Plug-In . SVG Version: 6.00 Build 0)  -->
<!DOCTYPE svg PUBLIC "-//W3C//DTD SVG 1.1//EN" "http://www.w3.org/Graphics/SVG/1.1/DTD/svg11.dtd">
<svg version="1.1" id="Layer_1" xmlns="http://www.w3.org/2000/svg" xmlns:xlink="http://www.w3.org/1999/xlink" x="0px" y="0px"
	 width="72px" height="72px" viewBox="0 0 72 72" enable-background="new 0 0 72 72" xml:space="preserve">
<path fill="#00B1FF" d="M26.5,19.7l-9.2,10H0.1c0,0,0.1-0.6,0.5-1l15.8-18.5c0.1-0.1,0.2-0.2,0.3-0.2c0.2-0.3,0.5-0.4,0.9-0.4
	c0.7,0,1.2,0.6,1.2,1.2c0,0.2-0.1,0.4-0.2,0.6L26.5,19.7z M35.9,29.7l12.8,13.5l5.9-13.5H35.9z M17.3,29.7l5.9,13.5l12.8-13.5H17.3z
	 M26.1,49.8l9.7,22c0.1,0.1,0.2,0.1,0.3,0l9.7-22H26.1z M48.7,43.1l-2.9,6.7H55l0,0L48.7,43.1z"/>
</svg>
