<?xml version="1.0" encoding="iso-8859-1"?>
<!-- Generator: Adobe Illustrator 18.1.1, SVG Export Plug-In . SVG Version: 6.00 Build 0)  -->
<!DOCTYPE svg PUBLIC "-//W3C//DTD SVG 1.1//EN" "http://www.w3.org/Graphics/SVG/1.1/DTD/svg11.dtd">
<svg version="1.1" xmlns="http://www.w3.org/2000/svg" xmlns:xlink="http://www.w3.org/1999/xlink" x="0px" y="0px"
	 viewBox="0 0 512 512" enable-background="new 0 0 512 512" xml:space="preserve">
<g id="Layer_5">
	<path fill="#DCE2E2" d="M29.365,223.604c-1.72,4.647,195.71,153.721,195.71,153.721c24.716,18.239,37.717,18.527,62.159,0
		c0,0,197.142-148.953,195.482-153.537l0.04-0.033c-0.02-0.04-0.054-0.067-0.08-0.104c-1.686-4.6-4.135-8.835-7.193-12.542
		c-1.305-1.582-2.877-2.907-4.389-4.286l0.074-0.057c-0.12-0.107-0.281-0.157-0.401-0.264c-6.41-5.717-14.493-9.421-23.472-10.478
		c-0.141-0.017-0.254-0.09-0.395-0.107h-0.542c-1.365-0.13-2.663-0.458-4.061-0.458H69.577c-18.353,0-33.903,11.542-40.079,27.721
		c-0.074,0.12-0.187,0.207-0.254,0.331L29.365,223.604z"/>
</g>
<g id="Layer_1">
</g>
</svg>
