<svg xmlns="http://www.w3.org/2000/svg" viewBox="0 0 512 512" enable-background="new 0 0 512 512"><path fill="#FFB636" d="M375.902 470.186c6.318-4.978 9.364-13.44 7.038-21.66-3.08-10.882-14.395-17.207-25.276-14.128-.58.164-1.182.366-1.736.576 0 0-1.907.73-5.244 2.004-3.32 1.262-8.038 3.054-13.62 5.08-2.788 1.008-5.795 2.072-8.95 3.142-3.15 1.057-6.468 2.153-9.842 3.153-3.394 1.04-6.833 1.96-10.294 2.818-3.44.825-6.865 1.52-10.17 2.04-3.268.474-6.4.76-9.208.816-2.8.046-5.154-.21-7.014-.578-1.863-.382-3.19-.85-4.308-1.435-1.065-.624-2.013-1.52-2.95-2.636-.816-1.266-1.62-2.68-2.153-4.23-.237-.77-.57-1.547-.727-2.18-.154-.63-.316-1.214-.474-1.746-.18-.387-.258-1.37-.347-2.035l-.22-1.774-.18-1.476-.154-1.243c-.896-7.267-7-12.605-14.108-12.774-.153-.006-.306-.012-.46-.013-.152 0-.305.007-.458.013-7.11.17-13.212 5.507-14.108 12.775l-.155 1.244-.182 1.477-.22 1.775c-.088.666-.165 1.65-.346 2.036-.158.533-.32 1.117-.474 1.747-.157.633-.49 1.41-.727 2.18-.533 1.55-1.336 2.964-2.154 4.23-.935 1.117-1.883 2.012-2.95 2.636-1.115.586-2.444 1.053-4.307 1.435-1.86.367-4.215.624-7.014.578-2.806-.054-5.94-.342-9.206-.816-3.306-.522-6.73-1.216-10.17-2.04-3.462-.858-6.9-1.778-10.295-2.817-3.375-1-6.693-2.096-9.843-3.153-3.156-1.07-6.163-2.134-8.95-3.142-5.583-2.026-10.3-3.817-13.62-5.08l-5.245-2.004c-.554-.21-1.155-.412-1.736-.576-10.88-3.08-22.198 3.246-25.276 14.127-2.325 8.22.72 16.683 7.04 21.66-5.757 3.644-9.582 10.058-9.557 17.373.04 11.31 9.24 20.448 20.55 20.41l1.79-.007 5.554-.017c3.536-.032 8.587-.074 14.662-.233 12.154-.327 28.377-1.006 44.85-2.912 4.116-.46 8.26-1.04 12.353-1.673 4.105-.67 8.158-1.394 12.137-2.285 3.983-.897 7.857-1.864 11.634-3.087 1.865-.553 3.75-1.28 5.544-1.925.296-.123.585-.242.876-.36.29.12.58.237.876.36 1.793.644 3.68 1.372 5.544 1.925 3.777 1.223 7.65 2.19 11.633 3.087 3.98.89 8.032 1.614 12.137 2.285 4.094.633 8.237 1.213 12.352 1.673 16.473 1.906 32.697 2.585 44.853 2.91 6.073.16 11.124.202 14.66.234l5.553.02 1.79.005c11.31.04 20.512-9.098 20.55-20.41.03-7.314-3.796-13.728-9.552-17.37z"/></svg>