<?xml version="1.0" encoding="utf-8"?>
<!-- Generator: Adobe Illustrator 18.0.0, SVG Export Plug-In . SVG Version: 6.00 Build 0)  -->
<!DOCTYPE svg PUBLIC "-//W3C//DTD SVG 1.1 Tiny//EN" "http://www.w3.org/Graphics/SVG/1.1/DTD/svg11-tiny.dtd">
<svg version="1.1" baseProfile="tiny" id="Layer_1" xmlns="http://www.w3.org/2000/svg" xmlns:xlink="http://www.w3.org/1999/xlink"
	 x="0px" y="0px" width="511.4px" height="470.4px" viewBox="0 0 511.4 470.4" xml:space="preserve">
<path fill="#FFD3B6" d="M507.4,114.2c0-20-15.1-33.6-33.4-35c-0.6-0.2-1.1-0.5-1.7-0.7c-1.2-1.4-0.6-4.4,1.5-5.3
	c13.3-5.9,22.5-19,22.5-34.6c0-21.3-17.2-38.5-38.3-38.5h-17.9l0,0H195.3c-37.1,0-70.2,17-92,43.6H27.5C12.3,43.7,0,56,0,71.2v174.1
	c0,15.2,12.3,27.5,27.5,27.5h56.9c6.6,14.6,17.2,27,30.3,36c12.3,11.2,44.5,27.7,85,122.9c6.2,20,26.9,44.3,45.6,37.6
	c22.2-8,46.7-38.2,23.1-112.4c-5.3-16.8-14.2-42.6-23.1-53.5h59.8l0.2-0.4c1.7,0.3,3.5,0.4,5.3,0.4h28h38.8h8h6.9h28h37.8
	c30.8,0,46.3-16.6,46.3-37.9c0-15.6-2.2-29-15.5-35c-2.7-1.2-2.7-4.8,0-6c13.3-5.9,22.5-19,22.5-34.6s-9.2-29-22.5-35
	c-2.7-1.2-2.7-4.8,0-6C502.1,143,507.3,129.9,507.4,114.2z"/>
</svg>
