<?xml version="1.0" encoding="utf-8"?>
<!-- Generator: Adobe Illustrator 18.1.0, SVG Export Plug-In . SVG Version: 6.00 Build 0)  -->
<!DOCTYPE svg PUBLIC "-//W3C//DTD SVG 1.0//EN" "http://www.w3.org/TR/2001/REC-SVG-20010904/DTD/svg10.dtd">
<svg version="1.0" id="Layer_1" xmlns="http://www.w3.org/2000/svg" xmlns:xlink="http://www.w3.org/1999/xlink" x="0px" y="0px"
	 width="72px" height="72px" viewBox="0 0 72 72" enable-background="new 0 0 72 72" xml:space="preserve">
<path fill="#FFB636" d="M68.4,10.8c-0.6,1.4-1,3.3-1.1,4.5c0,0,0,0,0,0c-1.6,0-2.9,1.3-2.9,2.9c0,1.6,1.3,2.9,2.9,2.9
	c0.2,0,0.4,0,0.6-0.1c-0.2,4.3-3.7,7.7-8.1,7.7c-4.4,0-7.9-3.4-8.1-7.7c1.3-0.2,2.4-1.4,2.4-2.8c0-1.6-1.3-2.9-2.9-2.9
	c-0.1,0-0.2,0-0.3,0c-0.4-2-1.5-5.2-2.8-5.2c-1.3,0-2.4,3.1-2.8,5.2c-0.2,0-0.4-0.1-0.6-0.1c-1.6,0-2.9,1.3-2.9,2.9
	c0,1.4,1,2.6,2.4,2.9c-0.2,4.3-3.7,7.7-8.1,7.7c-4.4,0-7.9-3.5-8.1-7.8c1.3-0.3,2.2-1.4,2.2-2.8c0-1.6-1.3-2.9-2.9-2.9
	c-0.1,0-0.2,0-0.3,0c-0.4-2-1.5-5.2-2.8-5.2c-1.3,0-2.4,3.1-2.8,5.2c-0.2,0-0.4-0.1-0.6-0.1c-1.6,0-2.9,1.3-2.9,2.9
	c0,1.5,1.1,2.7,2.6,2.9c-0.2,4.3-3.8,7.7-8.1,7.7c-4.4,0-7.9-3.4-8.1-7.7c0.2,0,0.4,0.1,0.6,0.1c1.6,0,2.9-1.3,2.9-2.9
	c0-1.6-1.3-2.9-2.9-2.9c-0.1,0-0.1,0-0.2,0c-0.2-1.3-0.5-3-0.9-4.4c-0.3-1.1-1.8-0.9-1.8,0.3v9.4v1.5v35.9h68.4V22.2v-1.5v-9.4
	C70.2,10.1,68.9,9.8,68.4,10.8z"/>
</svg>
