<?xml version="1.0" encoding="utf-8"?>
<!-- Generator: Adobe Illustrator 18.1.0, SVG Export Plug-In . SVG Version: 6.00 Build 0)  -->
<!DOCTYPE svg PUBLIC "-//W3C//DTD SVG 1.1//EN" "http://www.w3.org/Graphics/SVG/1.1/DTD/svg11.dtd">
<svg version="1.1" id="Layer_1" xmlns="http://www.w3.org/2000/svg" xmlns:xlink="http://www.w3.org/1999/xlink" x="0px" y="0px"
	 width="72px" height="72px" viewBox="0 0 72 72" enable-background="new 0 0 72 72" xml:space="preserve">
<path fill="#2B3B47" d="M25.6,37.5C25.3,35,23.2,33,20.6,33c-2.6,0-4.7,2-4.9,4.6h-0.1v7h0c0,0,0,0,0,0c0,2.8,2.2,5,5,5s5-2.2,5-5
	c0,0,0,0,0,0h0L25.6,37.5L25.6,37.5z"/>
<path fill="#2B3B47" d="M58.3,37.5C58,35,55.9,33,53.3,33c-2.6,0-4.7,2-4.9,4.6h-0.1v7h0c0,0,0,0,0,0c0,2.8,2.2,5,5,5
	c2.8,0,5-2.2,5-5c0,0,0,0,0,0l0,0L58.3,37.5L58.3,37.5z"/>
<g>
	<path fill="#2B3B47" d="M37.5,49c0,0,0,0,0.1,0c0.1,0,0.2,0,0.4,0.1c0.3,0.1,0.7,0.2,1,0.4c0.8,0.4,1.5,1.1,1.9,2
		c0.4,0.8,0.6,1.8,0.5,2.7c-0.1,0.4-0.2,0.8-0.3,1.1c0,0.1-0.1,0.3-0.1,0.3c0,0.1-0.1,0.1-0.1,0.1c-0.2,0.4-0.7,0.7-1.1,0.6
		c0,0,0,0-0.1,0c-0.1,0-0.2,0-0.4-0.1c-0.3-0.1-0.7-0.2-1.1-0.4c-0.8-0.4-1.5-1.1-1.9-2C36,53,35.8,52,36,51.2
		c0.1-0.4,0.2-0.8,0.3-1.1c0-0.1,0.1-0.3,0.1-0.3c0-0.1,0.1-0.1,0.1-0.1C36.6,49.2,37.1,48.9,37.5,49z"/>
</g>
<g>
	<path fill="#2B3B47" d="M38.1,49.6c0,0,0,0,0.1,0.1c0,0.1,0.1,0.2,0.1,0.3c0.1,0.3,0.2,0.7,0.3,1.1c0.1,0.9,0,1.9-0.5,2.7
		c-0.4,0.9-1.2,1.6-1.9,2c-0.4,0.2-0.8,0.3-1.1,0.4c-0.1,0-0.3,0.1-0.4,0.1c-0.1,0-0.1,0-0.1,0c-0.5,0.1-0.9-0.1-1.1-0.6
		c0,0,0,0-0.1-0.1c0-0.1-0.1-0.2-0.1-0.3c-0.1-0.3-0.2-0.7-0.3-1.1c-0.1-0.9,0-1.9,0.5-2.7c0.4-0.8,1.2-1.6,1.9-2
		c0.4-0.2,0.8-0.4,1-0.4c0.1,0,0.3-0.1,0.4-0.1c0.1,0,0.1,0,0.1,0C37.5,48.9,37.9,49.2,38.1,49.6z"/>
</g>
</svg>
