<?xml version="1.0" encoding="iso-8859-1"?>
<!-- Generator: Adobe Illustrator 19.1.0, SVG Export Plug-In . SVG Version: 6.00 Build 0)  -->
<!DOCTYPE svg PUBLIC "-//W3C//DTD SVG 1.1//EN" "http://www.w3.org/Graphics/SVG/1.1/DTD/svg11.dtd">
<svg version="1.1" xmlns="http://www.w3.org/2000/svg" xmlns:xlink="http://www.w3.org/1999/xlink" x="0px" y="0px"
	 viewBox="0 0 512 512" enable-background="new 0 0 512 512" xml:space="preserve">
<g id="Layer_6">
	<path fill="#6B83A5" d="M315.932,402.701H197.897c-6.6,0-12,5.4-12,12v6.957c0,6.6,5.4,12,12,12h38.122
		c-11.367,4.229-23.369,14.285-23.369,25.946v4.68c9.123,10.254,17.619,28.081,33.802,28.081h21.89
		c12.748,0,21.804-13.762,32.836-28.081v-4.68c0-11.661-11.451-21.717-22.548-25.946h37.302c6.6,0,12-5.4,12-12v-6.957
		C327.932,408.101,322.532,402.701,315.932,402.701z"/>
</g>
<g id="Layer_1">
</g>
</svg>
