<?xml version="1.0" encoding="iso-8859-1"?>
<!-- Generator: Adobe Illustrator 18.1.1, SVG Export Plug-In . SVG Version: 6.00 Build 0)  -->
<!DOCTYPE svg PUBLIC "-//W3C//DTD SVG 1.1//EN" "http://www.w3.org/Graphics/SVG/1.1/DTD/svg11.dtd">
<svg version="1.1" xmlns="http://www.w3.org/2000/svg" xmlns:xlink="http://www.w3.org/1999/xlink" x="0px" y="0px"
	 viewBox="0 0 512 512" enable-background="new 0 0 512 512" xml:space="preserve">
<g id="Layer_5">
	<path fill="#DCE2E2" d="M123.9,168.734c-2.339,3.971,138.467,131.347,138.467,131.347c17.707,15.585,28.761,15.831,53.112,0
		c0,0,196.315-127.274,195.755-131.19l0.041-0.029c-0.01-0.034-0.033-0.057-0.049-0.089c-0.58-3.931-1.88-7.549-3.799-10.717
		c-0.819-1.352-1.914-2.484-2.949-3.662l0.074-0.049c-0.083-0.091-0.211-0.134-0.294-0.226c-4.407-4.885-10.621-8.05-18.095-8.953
		c-0.117-0.014-0.2-0.077-0.317-0.091h-0.463c-1.142-0.111-2.19-0.392-3.385-0.392H163.525c-15.682,0-31.128,9.862-39.431,23.686
		c-0.085,0.103-0.199,0.177-0.279,0.283L123.9,168.734z"/>
</g>
<g id="Layer_1">
</g>
</svg>
