<?xml version="1.0" encoding="utf-8"?>
<!-- Generator: Adobe Illustrator 18.0.0, SVG Export Plug-In . SVG Version: 6.00 Build 0)  -->
<!DOCTYPE svg PUBLIC "-//W3C//DTD SVG 1.1 Tiny//EN" "http://www.w3.org/Graphics/SVG/1.1/DTD/svg11-tiny.dtd">
<svg version="1.1" baseProfile="tiny" id="Layer_1" xmlns="http://www.w3.org/2000/svg" xmlns:xlink="http://www.w3.org/1999/xlink"
	 x="0px" y="0px" width="511.9px" height="511.9px" viewBox="0 0 511.9 511.9" xml:space="preserve">
<path fill="#59CAFC" d="M142.3,150.8L336.5,228c61.2,18.6,126-16,144.5-77.3c18.6-61.2-16-126-77.3-144.5c-22.8-6.9-46.1-6.5-67.3,0
	L142.3,83.3c-18.6,5.6-29.2,25.4-23.5,44C122.4,138.9,131.6,147.5,142.3,150.8z"/>
<path fill="#00B1FF" d="M336.5,228L308,216.7c63.6,17.8,130-18.3,149.3-81.8C470,93.1,459.1,50,432.4,19.4
	c42.7,27.2,64.1,80.4,48.6,131.3C462.4,212,397.7,246.5,336.5,228z"/>
<path fill="#76DFFF" d="M68.7,248.6L184.9,360c32.6,37,29.1,93.4-7.9,126c-37,32.6-93.4,29.1-126.1-7.9
	C38.8,464.4,31.7,448,29.4,431l-8.1-160.8c-2-14.9,8.4-28.6,23.3-30.6C54,238.4,62.9,242.1,68.7,248.6z"/>
<path fill="#59CAFC" d="M207.3,425.9l-0.5-23.6c-4.3,50.7-48.2,89-99.3,85.8C74,486,45.8,466.5,30.9,439
	c8.2,38.2,40.8,67.9,81.7,70.5C161.8,512.6,204.2,475.2,207.3,425.9z"/>
<path fill="#B0E9FF" d="M260.5,364.7l52.7,105c18.8,30.7,58.9,40.4,89.6,21.6c30.7-18.8,40.4-58.9,21.6-89.6
	c-7-11.4-16.9-19.9-28.2-25.1l-110.4-40.2c-9.9-4.6-21.7-0.3-26.3,9.7C256.5,352.2,257.2,359.2,260.5,364.7z"/>
<path fill="#76DFFF" d="M313.1,469.7l-7.7-15.4c20,31.2,61.4,40.9,93.3,21.5c20.9-12.8,32.5-35,32.7-57.8
	c7.8,27.4-3.2,57.7-28.7,73.3C372,510,331.9,500.4,313.1,469.7z"/>
</svg>
