<?xml version="1.0" encoding="utf-8"?>
<!-- Generator: Adobe Illustrator 18.1.0, SVG Export Plug-In . SVG Version: 6.00 Build 0)  -->
<!DOCTYPE svg PUBLIC "-//W3C//DTD SVG 1.0//EN" "http://www.w3.org/TR/2001/REC-SVG-20010904/DTD/svg10.dtd">
<svg version="1.0" id="Layer_1" xmlns="http://www.w3.org/2000/svg" xmlns:xlink="http://www.w3.org/1999/xlink" x="0px" y="0px"
	 width="72px" height="72px" viewBox="0 0 72 72" enable-background="new 0 0 72 72" xml:space="preserve">
<path fill="#FFD3B6" d="M58,41.6h-0.7l0.7-11C58,18.3,47.4,11.9,35,11.9c-12.3,0-21.6,6.4-21.6,18.7l0.7,11.1
	c-0.2,0-0.5-0.1-0.7-0.1c-2.8,0-5.1,2.3-5.1,5.1c0,2.8,2.3,5.1,5.1,5.1c0.5,0,1-0.1,1.4-0.2C15.1,63,24.3,72,35.7,72
	c11.3,0,20.5-9,20.9-20.2H58c2.8,0,5.1-2.3,5.1-5.1C63.1,43.9,60.8,41.6,58,41.6z"/>
</svg>
