<?xml version="1.0" encoding="utf-8"?>
<!-- Generator: Adobe Illustrator 18.0.0, SVG Export Plug-In . SVG Version: 6.00 Build 0)  -->
<!DOCTYPE svg PUBLIC "-//W3C//DTD SVG 1.1 Tiny//EN" "http://www.w3.org/Graphics/SVG/1.1/DTD/svg11-tiny.dtd">
<svg version="1.1" baseProfile="tiny" id="Layer_1" xmlns="http://www.w3.org/2000/svg" xmlns:xlink="http://www.w3.org/1999/xlink"
	 x="0px" y="0px" width="511.9px" height="511.9px" viewBox="0 0 511.9 511.9" xml:space="preserve">
<path fill="#D8B09A" d="M442.3,391.6l-2.3-2.3l-16.6-16.6c11.1-13.9,15.3-31.4,12.8-48.1c0-0.3-0.1-0.6-0.2-0.9
	c-0.1-0.4-0.1-0.7-0.2-1.1c-0.1-1.3-0.6-3.3-1.4-5.9c-0.4-1.3-0.8-2.5-1.2-3.8c-8.9-26.1-36.5-93.1-31.7-159.1
	c0.1-14.8-9.8-28.2-23.8-27.4c-14,0.8-39.5,8.1-40.9,74.1c-0.2,12.2-1.9,18.1-1.4,28.1L175.7,68.9c-10.4-10.4-26.9-10.6-37.3-0.2
	c-10.4,10.4-10.4,27.3-0.1,37.6l94.5,94.5c0.1,0.1,0.1,0.2,0.2,0.2c8.8,8.8-1.8,21-11.1,15.7L108.8,103.7
	c-10.4-10.4-26.9-10.6-37.3-0.2C61.1,114,61,130.8,71.4,141.2l113.4,113.4c5.5,8.3-5,18.3-13.2,11.6l-99-99
	c-10.4-10.4-26.9-10.6-37.3-0.2c-10.4,10.4-10.5,27.2-0.1,37.6l97.5,97.5c0.1,0.2,0.3,0.5,0.6,0.8c8.5,8.5-1.6,20.2-10.6,15.3
	l-69.8-69.8c-10.4-10.4-26.9-10.6-37.3-0.2c-10.4,10.4-10.5,27.2-0.1,37.6L179.6,450c33.4,33.4,81.7,42.5,123.3,27.5l5.1,5.1
	l21.6,21.6c10.4,10.4,27.2,10.4,37.6,0l75.1-75.1C452.7,418.8,452.7,401.9,442.3,391.6z"/>
<path fill="#00BEEA" d="M377.9,33c-0.3-0.9-0.9-1.6-1.8-1.9l-29.9-10.9c-0.9-0.3-1.8-0.2-2.6,0.3c-0.8,0.5-1.2,1.3-1.3,2.2
	l-4.6,59.2c-0.1,1.3,0.7,2.5,1.9,2.9c0.3,0.1,0.7,0.2,1,0.2c0.9,0,1.8-0.4,2.4-1.2l34.5-48.3C378.1,34.8,378.2,33.9,377.9,33z"/>
<path fill="#00BEEA" d="M439,90.6l-13.4-28.8c-0.4-0.8-1.1-1.4-2-1.6c-0.9-0.2-1.8,0-2.5,0.6L376,99.4c-1,0.8-1.3,2.2-0.7,3.4
	c0.5,1,1.5,1.7,2.6,1.7c0.2,0,0.3,0,0.5,0l58.5-9.7c0.9-0.1,1.7-0.7,2.1-1.5C439.4,92.4,439.4,91.4,439,90.6z"/>
<path fill="#00BEEA" d="M298,75.5L288.3,17c-0.1-0.9-0.7-1.7-1.5-2.1c-0.8-0.4-1.7-0.4-2.6-0.1l-28.8,13.4c-0.8,0.4-1.4,1.1-1.6,2
	c-0.2,0.9,0,1.8,0.6,2.5L293,77.9c0.6,0.7,1.4,1,2.2,1c0.4,0,0.8-0.1,1.2-0.3C297.6,78.1,298.2,76.8,298,75.5z"/>
<path fill="#FFD3B6" d="M500.4,391.6l-18.9-18.9c11.1-13.9,15.3-31.4,12.8-48.1c0-0.3-0.1-0.6-0.2-0.9c-0.1-0.4-0.1-0.7-0.2-1.1
	c-0.1-1.3-0.6-3.3-1.4-5.9c-0.4-1.3-0.8-2.5-1.2-3.8c-8.9-26.1-36.5-93.1-31.7-159.1c0.1-14.8-9.8-28.2-23.8-27.4
	s-39.5,8.1-40.9,74.1c-0.2,12.2-1.9,18.1-1.4,28.1L233.8,68.9c-10.4-10.4-26.9-10.6-37.3-0.2c-10.4,10.4-10.4,27.3-0.1,37.6
	l94.5,94.5c0.1,0.1,0.1,0.2,0.2,0.2c8.8,8.8-1.8,21-11.1,15.7L166.9,103.7c-10.4-10.4-26.9-10.6-37.3-0.2
	c-10.4,10.4-10.5,27.2-0.1,37.6l113.4,113.4c5.5,8.3-5,18.3-13.2,11.6l-99-99c-10.4-10.4-26.9-10.6-37.3-0.2
	c-10.4,10.4-10.5,27.2-0.1,37.6l97.5,97.5c0.1,0.2,0.3,0.5,0.6,0.8c8.5,8.5-1.6,20.2-10.6,15.3l-69.8-69.8
	c-10.4-10.4-26.9-10.6-37.3-0.2c-10.4,10.4-10.5,27.2-0.1,37.6L237.7,450c33.4,33.4,81.7,42.5,123.3,27.5l26.7,26.7
	c10.4,10.4,27.2,10.4,37.6,0l75.1-75.1C510.8,418.8,510.8,401.9,500.4,391.6z"/>
<path fill="#F2C7AA" d="M481.3,372.4c-1.5,2.1-3,4-4.5,5.5L419.6,435l0-0.3L404.4,450c-12.7,12.7-27.5,21.8-43.3,27.5l23.8,23.8
	c5.2-1.6,9.6-3.8,12.4-6.6l93.9-93.9c2.7-2.7,5-6.8,6.9-11.6L481.3,372.4z"/>
</svg>
