<svg xmlns="http://www.w3.org/2000/svg" viewBox="0 0 512 512" enable-background="new 0 0 512 512"><path fill="#2B3B47" d="M150.118 210.228c14.344 0 25.972 11.628 25.972 25.972v38.66c0 14.343-11.628 25.97-25.972 25.97-14.344 0-25.972-11.627-25.972-25.97V236.2c0-14.344 11.628-25.972 25.972-25.972zm211.4 0c-14.345 0-25.973 11.628-25.973 25.972v38.66c0 14.343 11.628 25.97 25.972 25.97 14.344 0 25.972-11.627 25.972-25.97V236.2c0-14.344-11.63-25.972-25.974-25.972zm-83.4 140.04s-10.99.393-21.977.555l-21.973-.555c-4.816-.094-9.71 1.933-13.01 5.94-5.735 6.958-4.742 17.247 2.217 22.98l10.793 8.894s2.747 2.263 6.868 4.153c2.06.68 4.464 1.745 7.04 2.396l4.76.57v40.99c1.01-.74 2.008-1.5 2.985-2.29.976.79 1.973 1.55 2.983 2.29v-40.586c1.845-.17 3.666-.615 5.408-.74 2.577-.036 4.98-1.594 7.04-2.283 4.12-1.81 6.87-4.497 6.87-4.497l11.466-11.228c2.987-2.948 4.777-7.09 4.615-11.615-.31-8.577-7.51-15.28-16.082-14.972z"/></svg>