<?xml version="1.0" encoding="utf-8"?>
<!-- Generator: Adobe Illustrator 18.1.0, SVG Export Plug-In . SVG Version: 6.00 Build 0)  -->
<!DOCTYPE svg PUBLIC "-//W3C//DTD SVG 1.0//EN" "http://www.w3.org/TR/2001/REC-SVG-20010904/DTD/svg10.dtd">
<svg version="1.0" id="Layer_1" xmlns="http://www.w3.org/2000/svg" xmlns:xlink="http://www.w3.org/1999/xlink" x="0px" y="0px"
	 width="72px" height="72px" viewBox="0 0 72 72" enable-background="new 0 0 72 72" xml:space="preserve">
<path fill="#E5AB83" d="M32.5,63.2C32.5,63.2,32.5,63.2,32.5,63.2c-0.8,0-1.5-0.4-1.9-1c-0.1-0.2-0.1-0.5,0.1-0.6
	c0.2-0.1,0.5-0.1,0.6,0.1c0.2,0.4,0.6,0.6,1.1,0.6h0c0.5,0,0.9-0.2,1.1-0.6c0.1-0.2,0.4-0.3,0.6-0.1c0.2,0.1,0.3,0.4,0.1,0.6
	C34,62.8,33.3,63.2,32.5,63.2z"/>
</svg>
