<?xml version="1.0" encoding="iso-8859-1"?>
<!-- Generator: Adobe Illustrator 18.1.0, SVG Export Plug-In . SVG Version: 6.00 Build 0)  -->
<!DOCTYPE svg PUBLIC "-//W3C//DTD SVG 1.1//EN" "http://www.w3.org/Graphics/SVG/1.1/DTD/svg11.dtd">
<svg version="1.1" xmlns="http://www.w3.org/2000/svg" xmlns:xlink="http://www.w3.org/1999/xlink" x="0px" y="0px"
	 viewBox="0 0 72 72" enable-background="new 0 0 72 72" xml:space="preserve">
<g id="Layer_10">
	<path fill="#BFBCAF" d="M68.446,20.781c-0.769-1.018-2.008-1.578-3.49-1.578c-1.535,0-3.163,0.591-4.585,1.665
		c-2.25,1.699-3.355,4.12-2.991,6.123c-0.117,0.073-0.343,0.216-0.669,0.437c-0.373,0.268-0.897,0.602-1.488,1.033
		c-0.171-0.856-0.288-1.446-0.333-1.669c0.595-0.507,1.079-1.2,1.394-2.045c0.505-1.356,0.567-2.987,0.175-4.593
		c-0.747-3.058-2.986-5.277-5.324-5.277c-0.296,0-0.592,0.035-0.879,0.105c-2.612,0.639-3.981,3.911-3.117,7.449
		c0.653,2.672,2.445,4.703,4.447,5.173c0.018,0.105,0.067,0.372,0.156,0.767c0.132,0.514,0.263,1.263,0.527,2.135
		c0.017,0.056,0.033,0.117,0.049,0.174c-0.078,0.065-0.156,0.125-0.234,0.192c-0.478,0.393-0.972,0.8-1.474,1.213
		c-0.497,0.419-1.022,0.818-1.508,1.271c-0.987,0.884-1.975,1.768-2.9,2.596c-0.465,0.411-0.886,0.848-1.301,1.241
		c-0.411,0.398-0.799,0.774-1.158,1.122c-0.715,0.697-1.28,1.322-1.69,1.739c-0.401,0.429-0.623,0.684-0.623,0.684l-0.018,0.021
		c-0.048,0.056-0.057,0.139-0.016,0.204c0.051,0.081,0.157,0.105,0.238,0.055c0,0,4.483-2.803,8.967-5.606
		c0.888-0.573,1.774-1.144,2.626-1.694c0.157,0.47,0.316,0.948,0.479,1.437c0.196,0.566,0.364,1.149,0.595,1.715
		c0.438,1.139,0.875,2.278,1.285,3.346c0.201,0.535,0.443,1.04,0.646,1.525c0.21,0.484,0.408,0.941,0.592,1.363
		c0.369,0.844,0.729,1.533,0.957,2.022c0.242,0.485,0.392,0.759,0.392,0.759l0.014,0.026c0.035,0.063,0.107,0.1,0.182,0.086
		c0.094-0.017,0.156-0.107,0.139-0.201c0,0-0.874-4.788-1.747-9.576c-0.29-1.466-0.577-2.914-0.84-4.242
		c1.909-1.231,3.292-2.124,3.517-2.269c0.619,0.305,1.335,0.478,2.128,0.478c1.535,0,3.164-0.591,4.586-1.665
		C69.06,26.329,70.067,22.927,68.446,20.781z M49.47,21.862c-0.573-2.346,0.255-4.28,1.357-4.55
		c0.101-0.024,0.204-0.037,0.309-0.037c1.058,0,2.467,1.29,2.994,3.448c0.275,1.127,0.242,2.288-0.093,3.185
		c-0.162,0.434-0.541,1.188-1.265,1.365C51.649,25.545,50.049,24.233,49.47,21.862z M64.708,26.61
		c-0.993,0.75-2.138,1.18-3.141,1.18c-0.412,0-1.165-0.081-1.575-0.625c-0.684-0.905-0.103-2.929,1.824-4.384
		c0.993-0.75,2.138-1.18,3.14-1.18c0.413,0,1.166,0.082,1.576,0.625C67.216,23.131,66.635,25.154,64.708,26.61z"/>
</g>
<g id="Layer_1">
</g>
</svg>
