<?xml version="1.0" encoding="utf-8"?>
<!-- Generator: Adobe Illustrator 18.0.0, SVG Export Plug-In . SVG Version: 6.00 Build 0)  -->
<!DOCTYPE svg PUBLIC "-//W3C//DTD SVG 1.1 Tiny//EN" "http://www.w3.org/Graphics/SVG/1.1/DTD/svg11-tiny.dtd">
<svg version="1.1" baseProfile="tiny" id="Layer_1" xmlns="http://www.w3.org/2000/svg" xmlns:xlink="http://www.w3.org/1999/xlink"
	 x="0px" y="0px" width="511.9px" height="511.9px" viewBox="0 0 511.9 511.9" xml:space="preserve">
<path fill="#76DFFF" d="M151.4,310.1c0.1,0,0.2,0,0.4,0c0.1,0,0.2,0,0.4,0c6.1,0,11,4.9,11,11v29.8c0,52.2,42.4,94.6,94.6,94.6
	c34.5,0,66.3-18.8,82.9-49.1c0.7-1.3,1.7-2.4,2.8-3.3c-31.3-19.5-52.2-54.2-52.2-93.7c0-6.1,4.9-11,11-11c6.1,0,11,4.9,11,11
	c0,48.7,39.6,88.3,88.3,88.3c48.7,0,88.3-39.6,88.3-88.3s-39.6-88.3-88.3-88.3c-1.4,0-2.8-0.3-4-0.8c-7.7,23.8-22.5,45-42.9,60.9
	c-2,1.6-4.4,2.3-6.8,2.3c-3.3,0-6.5-1.5-8.7-4.2c-3.7-4.8-2.9-11.7,1.9-15.5c17-13.2,29.2-30.8,35.6-50.6c-0.1,0-0.2,0-0.3,0.1
	c1.8-5.2,3.1-10.5,4.1-15.9c0.9-5.5,1.3-11.1,1.3-16.7c0-58.2-47.3-105.5-105.5-105.5c-58.2,0-105.5,47.3-105.5,105.5V187
	c0,6.1-4.9,11-11,11c-0.4,0-0.8,0-1.2-0.1c-0.6,0.1-1.1,0.1-1.7,0.1H51.5v112H151.4z"/>
</svg>
