<?xml version="1.0" encoding="utf-8"?>
<!-- Generator: Adobe Illustrator 18.1.0, SVG Export Plug-In . SVG Version: 6.00 Build 0)  -->
<!DOCTYPE svg PUBLIC "-//W3C//DTD SVG 1.0//EN" "http://www.w3.org/TR/2001/REC-SVG-20010904/DTD/svg10.dtd">
<svg version="1.0" id="Layer_1" xmlns="http://www.w3.org/2000/svg" xmlns:xlink="http://www.w3.org/1999/xlink" x="0px" y="0px"
	 width="72px" height="72px" viewBox="0 0 72 72" enable-background="new 0 0 72 72" xml:space="preserve">
<path fill="#2B3B47" d="M23.6,40.6c-0.1-1.3-1.2-2.3-2.5-2.3c-1.3,0-2.4,1-2.5,2.3h0v3.6h0c0,0,0,0,0,0c0,1.4,1.1,2.5,2.5,2.5
	c1.4,0,2.5-1.1,2.5-2.5c0,0,0,0,0,0v0L23.6,40.6L23.6,40.6z"/>
<path fill="#2B3B47" d="M53.3,40.6c-0.1-1.3-1.2-2.3-2.5-2.3c-1.3,0-2.4,1-2.5,2.3h0v3.6h0c0,0,0,0,0,0c0,1.4,1.1,2.5,2.5,2.5
	c1.4,0,2.5-1.1,2.5-2.5c0,0,0,0,0,0v0L53.3,40.6L53.3,40.6z"/>
</svg>
