<?xml version="1.0" encoding="utf-8"?>
<!-- Generator: Adobe Illustrator 18.1.0, SVG Export Plug-In . SVG Version: 6.00 Build 0)  -->
<!DOCTYPE svg PUBLIC "-//W3C//DTD SVG 1.1//EN" "http://www.w3.org/Graphics/SVG/1.1/DTD/svg11.dtd">
<svg version="1.1" id="Layer_1" xmlns="http://www.w3.org/2000/svg" xmlns:xlink="http://www.w3.org/1999/xlink" x="0px" y="0px"
	 width="72px" height="72px" viewBox="0 0 72 72" enable-background="new 0 0 72 72" xml:space="preserve">
<path fill="#CECECE" d="M29.7,71.8c-1.2,0-2.1-1-2.1-2.1v-2.8c0-1.2,1-2.1,2.1-2.1c1.2,0,2.1,1,2.1,2.1v2.8
	C31.8,70.8,30.8,71.8,29.7,71.8z"/>
<path fill="#CECECE" d="M35.1,71.8c-1.2,0-2.1-1-2.1-2.1v-2.8c0-1.2,1-2.1,2.1-2.1s2.1,1,2.1,2.1v2.8C37.3,70.8,36.3,71.8,35.1,71.8
	z"/>
<path fill="#CECECE" d="M40.6,71.8c-1.2,0-2.1-1-2.1-2.1v-2.8c0-1.2,1-2.1,2.1-2.1s2.1,1,2.1,2.1v2.8C42.7,70.8,41.7,71.8,40.6,71.8
	z"/>
<path fill="#CECECE" d="M46,71.8c-1.2,0-2.1-1-2.1-2.1v-2.8c0-1.2,1-2.1,2.1-2.1s2.1,1,2.1,2.1v2.8C48.2,70.8,47.2,71.8,46,71.8z"/>
<path fill="#E5E4DF" d="M65.5,42.1L67,29.7C67,13.3,53.7,0,37.3,0C20.9,0,7.6,13.3,7.6,29.7L9,42.1c-1.1,1.8-1.7,4-1.7,6.3
	C7.4,55.3,13,61,20,61c1.2,0,2.3-0.2,3.4-0.5v2.2c0,2.4,1.9,4.3,4.3,4.3h19.8c2.4,0,4.3-1.9,4.3-4.3v-2.1c0.9,0.2,1.8,0.3,2.8,0.3
	c7,0,12.6-5.7,12.6-12.6C67.2,46.1,66.6,43.9,65.5,42.1z"/>
<path fill="#2B3B47" d="M25.6,37.5C25.3,35,23.2,33,20.6,33c-2.6,0-4.7,2-4.9,4.6h-0.1v7h0c0,0,0,0,0,0c0,2.8,2.2,5,5,5s5-2.2,5-5
	c0,0,0,0,0,0h0L25.6,37.5L25.6,37.5z"/>
<path fill="#2B3B47" d="M58.3,37.5C58,35,55.9,33,53.3,33c-2.6,0-4.7,2-4.9,4.6h-0.1v7h0c0,0,0,0,0,0c0,2.8,2.2,5,5,5
	c2.8,0,5-2.2,5-5c0,0,0,0,0,0l0,0L58.3,37.5L58.3,37.5z"/>
<g>
	<path fill="#2B3B47" d="M37.5,49c0,0,0,0,0.1,0c0.1,0,0.2,0,0.4,0.1c0.3,0.1,0.7,0.2,1,0.4c0.8,0.4,1.5,1.1,1.9,2
		c0.4,0.8,0.6,1.8,0.5,2.7c-0.1,0.4-0.2,0.8-0.3,1.1c0,0.1-0.1,0.3-0.1,0.3c0,0.1-0.1,0.1-0.1,0.1c-0.2,0.4-0.7,0.7-1.1,0.6
		c0,0,0,0-0.1,0c-0.1,0-0.2,0-0.4-0.1c-0.3-0.1-0.7-0.2-1.1-0.4c-0.8-0.4-1.5-1.1-1.9-2C36,53,35.8,52,36,51.2
		c0.1-0.4,0.2-0.8,0.3-1.1c0-0.1,0.1-0.3,0.1-0.3c0-0.1,0.1-0.1,0.1-0.1C36.6,49.2,37.1,48.9,37.5,49z"/>
</g>
<g>
	<path fill="#2B3B47" d="M38.1,49.6c0,0,0,0,0.1,0.1c0,0.1,0.1,0.2,0.1,0.3c0.1,0.3,0.2,0.7,0.3,1.1c0.1,0.9,0,1.9-0.5,2.7
		c-0.4,0.9-1.2,1.6-1.9,2c-0.4,0.2-0.8,0.3-1.1,0.4c-0.1,0-0.3,0.1-0.4,0.1c-0.1,0-0.1,0-0.1,0c-0.5,0.1-0.9-0.1-1.1-0.6
		c0,0,0,0-0.1-0.1c0-0.1-0.1-0.2-0.1-0.3c-0.1-0.3-0.2-0.7-0.3-1.1c-0.1-0.9,0-1.9,0.5-2.7c0.4-0.8,1.2-1.6,1.9-2
		c0.4-0.2,0.8-0.4,1-0.4c0.1,0,0.3-0.1,0.4-0.1c0.1,0,0.1,0,0.1,0C37.5,48.9,37.9,49.2,38.1,49.6z"/>
</g>
</svg>
