<?xml version="1.0" encoding="utf-8"?>
<!-- Generator: Adobe Illustrator 18.1.0, SVG Export Plug-In . SVG Version: 6.00 Build 0)  -->
<!DOCTYPE svg PUBLIC "-//W3C//DTD SVG 1.0//EN" "http://www.w3.org/TR/2001/REC-SVG-20010904/DTD/svg10.dtd">
<svg version="1.0" id="Layer_1" xmlns="http://www.w3.org/2000/svg" xmlns:xlink="http://www.w3.org/1999/xlink" x="0px" y="0px"
	 width="72px" height="72px" viewBox="0 0 72 72" enable-background="new 0 0 72 72" xml:space="preserve">
<path fill="#FF6F1F" d="M71.9,19.8L71.9,19.8c0-4.1-3.8-10.2-8.9-12.8c-0.2-0.1-0.7-0.3-1.2-0.5c0-0.1,0-0.3,0-0.4
	c0-3.4-2.7-6.1-6.1-6.1c-3.4,0-6.1,2.7-6.1,6.1c0,0.2,0,0.4,0,0.6c-0.4,0-0.7,0.1-1,0.2c-5.4,2.4-8.2,7.4-8.2,11.7
	c0,2.3,0.4,5,1,6.7c0,0.9,0,1.9,0,3.1c0,0.7,0.7,1.4,1.8,2L43,26.5c0.2-0.7,0.3-1.9,0.3-3.8c0-4.9,4.1-7.4,6.5-8.6
	c0.6-0.3,1.3-0.3,1.9,0.1c4.8,3.6,13.5,7.6,17,9.1l-0.4,5.3c2.2-1.9,3.6-4.6,3.6-8.2C72,20.2,72,20,71.9,19.8z"/>
</svg>
