<?xml version="1.0" encoding="utf-8"?>
<!-- Generator: Adobe Illustrator 18.1.0, SVG Export Plug-In . SVG Version: 6.00 Build 0)  -->
<!DOCTYPE svg PUBLIC "-//W3C//DTD SVG 1.0//EN" "http://www.w3.org/TR/2001/REC-SVG-20010904/DTD/svg10.dtd">
<svg version="1.0" id="Layer_1" xmlns="http://www.w3.org/2000/svg" xmlns:xlink="http://www.w3.org/1999/xlink" x="0px" y="0px"
	 width="72px" height="72px" viewBox="0 0 72 72" enable-background="new 0 0 72 72" xml:space="preserve">
<g>
	<path fill="#E5AB83" d="M36,51.6C36,51.6,36,51.6,36,51.6c-1.7,0-3.3-0.9-4.2-2.3c-0.3-0.5-0.2-1.1,0.3-1.4s1.1-0.2,1.4,0.3
		C34,49,35,49.5,36,49.5c0,0,0,0,0,0c1,0,1.9-0.5,2.5-1.3c0.3-0.5,1-0.6,1.4-0.3c0.5,0.3,0.6,1,0.3,1.4C39.3,50.8,37.7,51.6,36,51.6
		z"/>
</g>
</svg>
