<?xml version="1.0" encoding="iso-8859-1"?>
<!-- Generator: Adobe Illustrator 18.1.1, SVG Export Plug-In . SVG Version: 6.00 Build 0)  -->
<!DOCTYPE svg PUBLIC "-//W3C//DTD SVG 1.1//EN" "http://www.w3.org/Graphics/SVG/1.1/DTD/svg11.dtd">
<svg version="1.1" xmlns="http://www.w3.org/2000/svg" xmlns:xlink="http://www.w3.org/1999/xlink" x="0px" y="0px"
	 viewBox="0 0 512 512" enable-background="new 0 0 512 512" xml:space="preserve">
<g id="Layer_2">
	<path fill="#D0C9BF" d="M328.965,140.508c-1.767,0-3.538-0.632-4.947-1.915c-3.004-2.733-3.223-7.384-0.489-10.388
		c16.239-17.844,36.276-29.311,57.947-33.16c17.961-3.188,36.882-1.113,53.273,5.849c3.737,1.587,5.48,5.905,3.894,9.643
		c-1.589,3.738-5.905,5.479-9.644,3.893c-25.471-10.818-63.695-10.281-94.594,23.673
		C332.954,139.698,330.963,140.508,328.965,140.508z"/>
</g>
<g id="Layer_3">
	<path fill="#384C59" d="M344.472,183.587l11.735-11.735c14.059-14.059,14.059-36.853,0-50.912l-13.455-13.455
		c-14.059-14.059-36.853-14.059-50.912,0l-20.097,20.097c-22.701-9.815-47.729-15.264-74.034-15.264
		c-103.131,0-186.735,83.604-186.735,186.735s83.604,186.735,186.735,186.735s186.735-83.604,186.735-186.735
		C384.444,255.463,369.506,215.362,344.472,183.587z"/>
</g>
<g id="Layer_4">
	<path fill="#FFC145" d="M453.976,104.663c0,12.186-9.915,22.101-22.102,22.101s-22.101-9.915-22.101-22.101
		s9.914-22.101,22.101-22.101S453.976,92.477,453.976,104.663z M440.208,67.405V39.952c0-4.603-3.731-8.334-8.334-8.334
		s-8.334,3.731-8.334,8.334v27.453c0,4.603,3.731,8.334,8.334,8.334S440.208,72.007,440.208,67.405z M411.422,84.21
		c3.255-3.255,3.255-8.531,0-11.786L392.01,53.012c-3.254-3.254-8.531-3.254-11.785,0c-3.255,3.255-3.255,8.531,0,11.786
		l19.412,19.412c1.627,1.627,3.76,2.441,5.893,2.441S409.795,85.837,411.422,84.21z M392.01,156.312l19.412-19.412
		c3.255-3.255,3.255-8.531,0-11.786c-3.254-3.254-8.531-3.254-11.785,0l-19.412,19.412c-3.255,3.255-3.255,8.531,0,11.786
		c1.627,1.627,3.76,2.441,5.893,2.441S390.383,157.939,392.01,156.312z M440.208,169.373V141.92c0-4.603-3.731-8.334-8.334-8.334
		s-8.334,3.731-8.334,8.334v27.453c0,4.603,3.731,8.334,8.334,8.334S440.208,173.976,440.208,169.373z M483.524,156.312
		c3.255-3.255,3.255-8.531,0-11.786l-19.412-19.412c-3.254-3.254-8.531-3.254-11.785,0c-3.255,3.255-3.255,8.531,0,11.786
		l19.412,19.412c1.627,1.627,3.76,2.441,5.893,2.441S481.897,157.939,483.524,156.312z M504.919,104.663
		c0-4.603-3.731-8.334-8.334-8.334h-27.453c-4.603,0-8.334,3.731-8.334,8.334s3.731,8.334,8.334,8.334h27.453
		C501.188,112.997,504.919,109.265,504.919,104.663z M464.112,84.21l19.412-19.412c3.255-3.255,3.255-8.531,0-11.786
		c-3.254-3.254-8.531-3.254-11.785,0l-19.412,19.412c-3.255,3.255-3.255,8.531,0,11.786c1.627,1.627,3.76,2.441,5.893,2.441
		S462.485,85.837,464.112,84.21z"/>
</g>
<g id="Layer_5">
	
		<ellipse transform="matrix(-0.9155 0.4024 -0.4024 -0.9155 339.8584 301.3446)" fill="#80878C" cx="138.274" cy="186.373" rx="57" ry="35.419"/>
</g>
</svg>
