<?xml version="1.0" encoding="utf-8"?>
<!-- Generator: Adobe Illustrator 18.1.0, SVG Export Plug-In . SVG Version: 6.00 Build 0)  -->
<!DOCTYPE svg PUBLIC "-//W3C//DTD SVG 1.0//EN" "http://www.w3.org/TR/2001/REC-SVG-20010904/DTD/svg10.dtd">
<svg version="1.0" id="Layer_1" xmlns="http://www.w3.org/2000/svg" xmlns:xlink="http://www.w3.org/1999/xlink" x="0px" y="0px"
	 width="72px" height="72px" viewBox="0 0 72 72" enable-background="new 0 0 72 72" xml:space="preserve">
<path fill="#FFB636" d="M18.6,19.2C18.6,19.2,18.6,19.2,18.6,19.2L16,17.8c-0.7-0.4-1.4-0.6-2.1-0.6h0c-1.6,0-3.1,0.9-3.8,2.2
	L8.6,22c-1.2,2.1-0.5,4.8,1.6,6c0,0,0.1,0,0.1,0l2.6,1.3c0.7,0.4,1.4,0.6,2.1,0.6c1.6,0,3.1-0.9,3.8-2.2l1.4-2.5
	C21.5,23.1,20.7,20.4,18.6,19.2z M18.7,24.3l-0.6,1c0,0,0,0,0,0l-2.6-1.4c-0.4-0.2-0.8-0.1-1,0.3c-0.2,0.4-0.1,0.8,0.3,1l2.6,1.4
	c0,0,0,0,0,0l-0.2,0.3c-0.5,0.8-1.3,1.3-2.2,1.3c-0.4,0-0.9-0.1-1.3-0.3l-2.6-1.3c-1.2-0.7-1.7-2.3-1-3.5l1.4-2.5
	c0.5-0.8,1.3-1.3,2.2-1.3c0.4,0,0.9,0.1,1.3,0.3l2.6,1.3C19,21.5,19.4,23.1,18.7,24.3z"/>
</svg>
