<?xml version="1.0" encoding="iso-8859-1"?>
<!-- Generator: Adobe Illustrator 18.1.1, SVG Export Plug-In . SVG Version: 6.00 Build 0)  -->
<!DOCTYPE svg PUBLIC "-//W3C//DTD SVG 1.1//EN" "http://www.w3.org/Graphics/SVG/1.1/DTD/svg11.dtd">
<svg version="1.1" xmlns="http://www.w3.org/2000/svg" xmlns:xlink="http://www.w3.org/1999/xlink" x="0px" y="0px"
	 viewBox="0 0 512 512" enable-background="new 0 0 512 512" xml:space="preserve">
<g id="Layer_2">
	<path fill="#8F9799" d="M479.364,128.57c0,1.123-0.911,2.034-2.034,2.034h-55.532H387.72c-1.123,0-2.034-0.911-2.034-2.034V64.851
		c0-1.123,0.911-2.034,2.034-2.034h89.61c1.123,0,2.034,0.911,2.034,2.034V128.57z"/>
</g>
<g id="Layer_3">
	<path fill="#ADB8BC" d="M479.499,460.581H32.969c-11.929,0-21.6-9.671-21.6-21.6V123.699c0-11.929,9.671-21.6,21.6-21.6h446.53
		c11.929,0,21.6,9.671,21.6,21.6v315.282C501.099,450.91,491.428,460.581,479.499,460.581z"/>
</g>
<g id="Layer_4">
	<path fill="#FFFBDE" d="M476.54,177.002c0,0.678-0.722,1.228-1.613,1.228h-71.093c-0.891,0-1.613-0.55-1.613-1.228v-38.484
		c0-0.678,0.722-1.228,1.613-1.228h71.093c0.891,0,1.613,0.55,1.613,1.228V177.002z"/>
</g>
<g id="Layer_5">
	<circle fill="#FF473E" cx="68.458" cy="157.76" r="25.659"/>
</g>
<g id="Layer_6">
	<path fill="#1C4C5A" d="M476.54,200.998c0,0.511-0.722,0.926-1.613,0.926h-71.093c-0.891,0-1.613-0.415-1.613-0.926v-29.009
		c0-0.511,0.722-0.926,1.613-0.926h71.093c0.891,0,1.613,0.415,1.613,0.926V200.998z M256.234,137.289
		c-76.212,0-137.993,61.782-137.993,137.993s61.782,137.993,137.993,137.993s137.993-61.782,137.993-137.993
		S332.446,137.289,256.234,137.289z"/>
</g>
<g id="Layer_7">
	<path fill="#1C4C5A" d="M256.234,188.598c47.874,0,86.685,38.819,86.685,86.685c0,47.874-38.811,86.685-86.685,86.685
		s-86.685-38.811-86.685-86.685C169.549,227.417,208.36,188.598,256.234,188.598z"/>
</g>
<g id="Layer_8">
	<path fill="#F4F3EF" d="M256.234,188.598c-47.874,0-86.685,38.819-86.685,86.685c0,47.874,38.811,86.685,86.685,86.685
		s86.685-38.811,86.685-86.685C342.919,227.417,304.116,188.598,256.234,188.598z"/>
</g>
<g id="Layer_9">
	<circle fill="#00BEEA" cx="256.234" cy="274.136" r="63.993"/>
</g>
<g id="Layer_10">
	<path fill="#FFFFFF" d="M279.875,235.881c8.7,0,15.761,7.061,15.761,15.761c0,8.708-7.061,15.761-15.761,15.761
		c-8.7,0-15.761-7.053-15.761-15.761S271.175,235.881,279.875,235.881z"/>
</g>
</svg>
