<?xml version="1.0" encoding="iso-8859-1"?>
<!-- Generator: Adobe Illustrator 18.1.1, SVG Export Plug-In . SVG Version: 6.00 Build 0)  -->
<!DOCTYPE svg PUBLIC "-//W3C//DTD SVG 1.1//EN" "http://www.w3.org/Graphics/SVG/1.1/DTD/svg11.dtd">
<svg version="1.1" xmlns="http://www.w3.org/2000/svg" xmlns:xlink="http://www.w3.org/1999/xlink" x="0px" y="0px"
	 viewBox="0 0 512 512" enable-background="new 0 0 512 512" xml:space="preserve">
<g id="Layer_3">
	<path fill="#FFB636" d="M468.298,394.658V201.174c0-13.122-10.638-23.76-23.76-23.76H226.847c-9.287,0-17.723-5.411-21.596-13.852
		l-12.709-27.701c-3.873-8.441-12.309-13.852-21.596-13.852H44.939c-13.122,0-23.76,10.638-23.76,23.76v31.646v52.883v210.066
		c0,13.122,10.638,23.76,23.76,23.76h399.599c1.385,0,2.741-0.125,4.061-0.353c1.639,0.227,3.31,0.353,5.012,0.353
		c20.04,0,36.285-16.245,36.285-36.285C489.896,413.027,481.018,400.297,468.298,394.658z"/>
</g>
<g id="Layer_1">
</g>
</svg>
