<?xml version="1.0" encoding="utf-8"?>
<!-- Generator: Adobe Illustrator 18.1.0, SVG Export Plug-In . SVG Version: 6.00 Build 0)  -->
<!DOCTYPE svg PUBLIC "-//W3C//DTD SVG 1.0//EN" "http://www.w3.org/TR/2001/REC-SVG-20010904/DTD/svg10.dtd">
<svg version="1.0" id="Layer_1" xmlns="http://www.w3.org/2000/svg" xmlns:xlink="http://www.w3.org/1999/xlink" x="0px" y="0px"
	 width="72px" height="72px" viewBox="0 0 72 72" enable-background="new 0 0 72 72" xml:space="preserve">
<path fill="#E5AB83" d="M48.1,17.9L48.1,17.9c-0.5,0-0.9-0.2-1.2-0.7c-0.1-0.1,0-0.3,0.1-0.4c0.1-0.1,0.3,0,0.4,0.1
	c0.1,0.2,0.4,0.4,0.7,0.4c0,0,0,0,0,0c0.3,0,0.5-0.1,0.7-0.4c0.1-0.1,0.3-0.2,0.4-0.1c0.1,0.1,0.2,0.3,0.1,0.4
	C49,17.7,48.6,17.9,48.1,17.9z M51.3,12c-0.1,0.1-0.1,0.2-0.1,0.3s0.2,0.1,0.3,0.1c0,0,0,0,0.1-0.1c0,0,0.1-0.1,0.2-0.1
	c0.1-0.1,0.4-0.1,0.6-0.1c0.1,0,0.2,0,0.3,0.1c0.1,0,0.2,0.1,0.3,0.1c0.1,0,0.1,0.1,0.1,0.1c0,0,0.1,0.1,0.1,0.1l0,0
	c0,0,0.1,0.1,0.2,0c0.1,0,0.1-0.1,0-0.2c0,0,0,0-0.1-0.1c0,0-0.1-0.1-0.2-0.2c-0.1-0.1-0.2-0.2-0.3-0.2c-0.1-0.1-0.3-0.1-0.4-0.1
	c-0.3,0-0.6,0-0.8,0.1c-0.1,0-0.2,0.1-0.2,0.1C51.3,12,51.3,12,51.3,12C51.3,12,51.3,12,51.3,12z M44.6,12.4c0.1,0.1,0.3,0,0.3-0.1
	s0-0.3-0.1-0.3c0,0,0,0-0.1,0c-0.1,0-0.1-0.1-0.2-0.1c-0.2-0.1-0.5-0.1-0.8-0.1c-0.1,0-0.3,0.1-0.4,0.1c-0.1,0-0.2,0.1-0.3,0.2
	c-0.1,0.1-0.1,0.2-0.2,0.2c0,0.1-0.1,0.1-0.1,0.1c0,0.1,0,0.1,0,0.2c0.1,0,0.1,0,0.2,0l0,0c0,0,0,0,0.1-0.1c0,0,0.1-0.1,0.1-0.1
	c0.1,0,0.1-0.1,0.3-0.1c0.1,0,0.2-0.1,0.3-0.1c0.2,0,0.5,0.1,0.6,0.1C44.4,12.3,44.5,12.4,44.6,12.4C44.6,12.4,44.6,12.4,44.6,12.4
	C44.6,12.4,44.6,12.4,44.6,12.4z M23.8,15.1c0.1-0.1,0-0.3-0.1-0.4c-0.1-0.1-0.3,0-0.4,0.1c-0.2,0.2-0.4,0.4-0.7,0.4c0,0,0,0,0,0
	c-0.3,0-0.6-0.1-0.7-0.4c-0.1-0.1-0.3-0.2-0.4-0.1c-0.1,0.1-0.2,0.3-0.1,0.4c0.3,0.4,0.7,0.6,1.2,0.6c0,0,0,0,0,0
	C23.1,15.7,23.5,15.5,23.8,15.1z M25.7,9.6c-0.1,0.1-0.2,0.3-0.1,0.4c0.1,0.1,0.3,0.2,0.4,0.1c0,0,0,0,0.1-0.1c0,0,0.1-0.1,0.2-0.1
	c0.1-0.1,0.4-0.1,0.6-0.1c0.1,0,0.2,0,0.3,0.1c0.1,0,0.2,0.1,0.3,0.1c0.1,0,0.1,0.1,0.1,0.1c0,0,0.1,0.1,0.1,0.1l0,0
	c0.1,0.1,0.1,0.1,0.2,0c0.1,0,0.1-0.1,0-0.2c0,0,0,0-0.1-0.1c0-0.1-0.1-0.1-0.2-0.2c-0.1-0.1-0.2-0.2-0.3-0.2
	c-0.1-0.1-0.3-0.1-0.4-0.1c-0.3,0-0.6,0-0.9,0.1c-0.1,0-0.2,0.1-0.2,0.1C25.8,9.5,25.8,9.6,25.7,9.6C25.7,9.6,25.7,9.6,25.7,9.6z
	 M19.1,10.1c0.1,0.1,0.3,0,0.4-0.1c0.1-0.1,0-0.3-0.1-0.4c0,0,0,0-0.1,0c-0.1,0-0.1-0.1-0.2-0.1c-0.2-0.1-0.5-0.1-0.9-0.1
	c-0.2,0-0.3,0.1-0.4,0.1c-0.1,0-0.2,0.2-0.3,0.2c-0.1,0.1-0.1,0.2-0.2,0.2c0,0.1-0.1,0.1-0.1,0.1c0,0.1,0,0.1,0,0.2
	c0.1,0.1,0.2,0.1,0.2,0l0,0c0,0,0,0,0.1-0.1c0,0,0.1-0.1,0.1-0.1c0.1,0,0.1-0.1,0.3-0.1c0.1,0,0.2,0,0.3-0.1c0.2,0,0.5,0.1,0.6,0.1
	c0.1,0,0.1,0.1,0.2,0.1C19,10,19,10,19.1,10.1C19.1,10.1,19.1,10.1,19.1,10.1z"/>
</svg>
