<?xml version="1.0" encoding="iso-8859-1"?>
<!-- Generator: Adobe Illustrator 19.1.0, SVG Export Plug-In . SVG Version: 6.00 Build 0)  -->
<!DOCTYPE svg PUBLIC "-//W3C//DTD SVG 1.1//EN" "http://www.w3.org/Graphics/SVG/1.1/DTD/svg11.dtd">
<svg version="1.1" xmlns="http://www.w3.org/2000/svg" xmlns:xlink="http://www.w3.org/1999/xlink" x="0px" y="0px"
	 viewBox="0 0 512 512" enable-background="new 0 0 512 512" xml:space="preserve">
<g id="Layer_10">
	<path fill="#00B89C" d="M215.22,204.87c0,4.84-1.853,8.637-5.307,11.341c-1.858,1.454-1.774,4.339,0.29,5.481
		c4.14,2.292,7.002,6.455,7.002,13.042c0,10.105-8.21,18.767-24.09,18.767c-8.353,0-14.754-2.669-19.422-7.066
		c-1.357-1.278-1.343-3.446-0.004-4.743l4.031-3.905c1.236-1.198,3.173-1.219,4.474-0.092c3.008,2.604,6.13,3.716,9.838,3.716
		c5.053,0,8.752-2.797,8.752-7.939c0-5.685-3.158-8.121-9.384-8.121h-1.346c-2.035,0-3.583-1.827-3.248-3.834l0.707-4.241
		c0.265-1.588,1.638-2.752,3.248-2.752h0.819c5.233,0,8.12-2.707,8.12-7.038c0-4.15-2.978-6.406-7.489-6.406
		c-3.493,0-6.648,1.183-9.51,3.326c-1.34,1.003-3.215,0.853-4.366-0.363l-3.425-3.62c-1.343-1.419-1.163-3.693,0.385-4.885
		c5.263-4.052,11.552-6.188,18.811-6.188C207.822,189.351,215.22,196.118,215.22,204.87z"/>
</g>
<g id="Layer_1">
</g>
</svg>
