<svg xmlns="http://www.w3.org/2000/svg" viewBox="0 0 512 512" enable-background="new 0 0 512 512"><path fill="#AF773F" d="M257.448 295.108c-6.467 5.698-10.455 13.12-10.455 22.7 0 31.95-12.383 114.582-36.592 114.582-24.3 0-30.217-30.783-37.94-101.908-1.996-18.39-5.313-36.05-9.863-52.306 18.998 14.476 40.286 22.588 62.767 22.588 11.026.002 21.762-1.96 32.085-5.656zm153.568 5.658c-13.636 0-26.83-2.99-39.345-8.568 5.564 7.863 3.1 19.95 7.976 34.324 11.44 33.734-3.574 103.87 30.737 103.87 24.228 0 40.614-74.528 48.153-120.095 1.538-9.295 3.72-18.054 6.47-26-16.69 10.617-34.91 16.47-53.99 16.47zm85.948 17.08s-.17.198-.485.57c-.3.388-.73.873-1.22 1.517-.497.663-1.063 1.472-1.657 2.41-.6.94-1.204 2.01-1.83 3.188-1.223 2.36-2.374 5.168-3.26 8.247-.89 3.08-1.512 6.434-1.77 9.858-.14 1.714-.18 3.44-.143 5.164.04 1.715.245 3.435.59 5.1.347 1.67.844 3.297 1.476 4.84.635 1.545 1.377 3 2.252 4.328.853 1.318 1.785 2.524 2.76 3.518.47.508.99.966 1.45 1.362.47.415.99.757 1.404 1.055.925.603 1.72.954 2.31 1.155.277.105.505.165.663.2l.232.055.526-.285.388-.814c.23-.482.655-1.202 1.108-1.958l1.614-2.623.464-.746.442-.766c.34-.54.584-1.055.91-1.635 1.22-2.263 2.29-4.838 2.99-7.673.355-1.417.6-2.885.753-4.406.134-1.516.25-3.075.283-4.647.102-3.148-.04-6.36-.43-9.428-.382-3.07-1.017-6-1.807-8.556-.407-1.28-.817-2.464-1.25-3.522-.426-1.06-.86-1.994-1.253-2.767-.394-.792-.747-1.436-1.012-1.817l-.424-.613-6.07-.308z"/></svg>