<?xml version="1.0" encoding="utf-8"?>
<!-- Generator: Adobe Illustrator 18.1.0, SVG Export Plug-In . SVG Version: 6.00 Build 0)  -->
<!DOCTYPE svg PUBLIC "-//W3C//DTD SVG 1.0//EN" "http://www.w3.org/TR/2001/REC-SVG-20010904/DTD/svg10.dtd">
<svg version="1.0" id="Layer_1" xmlns="http://www.w3.org/2000/svg" xmlns:xlink="http://www.w3.org/1999/xlink" x="0px" y="0px"
	 width="72px" height="72px" viewBox="0 0 72 72" enable-background="new 0 0 72 72" xml:space="preserve">
<path fill="#2B3B47" d="M24.5,44.6v3.3h0c0,0,0,0,0,0c0,1.3-1,2.3-2.3,2.3c-1.3,0-2.3-1-2.3-2.3c0,0,0,0,0,0h0v-3.3h0
	c0.1-1.2,1.1-2.1,2.3-2.1C23.3,42.5,24.3,43.4,24.5,44.6L24.5,44.6z M52.2,44.6c-0.1-1.2-1.1-2.1-2.3-2.1c-1.2,0-2.2,0.9-2.3,2.1h0
	v3.3h0c0,0,0,0,0,0c0,1.3,1,2.3,2.3,2.3c1.3,0,2.3-1,2.3-2.3c0,0,0,0,0,0l0,0L52.2,44.6L52.2,44.6z M63.8,18c0-9.9-8.1-17.8-18-17.8
	H26.2c-9.9,0-18,7.8-18,17.8v22.7c0,9.9,8.1,0.6,18,0.6h19.6c9.9,0,18,9.4,18-0.6V18z"/>
</svg>
