<?xml version="1.0" encoding="iso-8859-1"?>
<!-- Generator: Adobe Illustrator 18.1.1, SVG Export Plug-In . SVG Version: 6.00 Build 0)  -->
<!DOCTYPE svg PUBLIC "-//W3C//DTD SVG 1.1//EN" "http://www.w3.org/Graphics/SVG/1.1/DTD/svg11.dtd">
<svg version="1.1" xmlns="http://www.w3.org/2000/svg" xmlns:xlink="http://www.w3.org/1999/xlink" x="0px" y="0px"
	 viewBox="0 0 512 512" enable-background="new 0 0 512 512" xml:space="preserve">
<g id="Layer_3">
	<path fill="#96A9B2" d="M346.361,73.381H65.863c-4.173,0-7.557-3.383-7.557-7.557s3.383-7.557,7.557-7.557h280.499
		c4.174,0,7.557,3.383,7.557,7.557S350.535,73.381,346.361,73.381z M294.464,115.547c0-4.173-3.383-7.557-7.557-7.557H65.863
		c-4.173,0-7.557,3.383-7.557,7.557s3.383,7.557,7.557,7.557h221.044C291.081,123.104,294.464,119.72,294.464,115.547z
		 M353.918,165.27c0-4.173-3.383-7.557-7.557-7.557H65.863c-4.173,0-7.557,3.383-7.557,7.557s3.383,7.557,7.557,7.557h280.499
		C350.535,172.826,353.918,169.443,353.918,165.27z M336.315,214.992c0-4.173-3.383-7.557-7.557-7.557H65.863
		c-4.173,0-7.557,3.383-7.557,7.557s3.383,7.557,7.557,7.557h262.896C332.933,222.548,336.315,219.165,336.315,214.992z
		 M164.499,264.714c0-4.174-3.383-7.557-7.557-7.557H65.863c-4.173,0-7.557,3.383-7.557,7.557s3.383,7.557,7.557,7.557h91.079
		C161.115,272.271,164.499,268.888,164.499,264.714z M353.918,314.437c0-4.174-3.383-7.557-7.557-7.557H65.863
		c-4.173,0-7.557,3.383-7.557,7.557s3.383,7.557,7.557,7.557h280.499C350.535,321.993,353.918,318.61,353.918,314.437z
		 M164.499,364.159c0-4.174-3.383-7.557-7.557-7.557H65.863c-4.173,0-7.557,3.383-7.557,7.557s3.383,7.557,7.557,7.557h91.079
		C161.115,371.716,164.499,368.333,164.499,364.159z"/>
</g>
<g id="Layer_1">
</g>
</svg>
