<?xml version="1.0" encoding="iso-8859-1"?>
<!-- Generator: Adobe Illustrator 18.1.1, SVG Export Plug-In . SVG Version: 6.00 Build 0)  -->
<!DOCTYPE svg PUBLIC "-//W3C//DTD SVG 1.1//EN" "http://www.w3.org/Graphics/SVG/1.1/DTD/svg11.dtd">
<svg version="1.1" xmlns="http://www.w3.org/2000/svg" xmlns:xlink="http://www.w3.org/1999/xlink" x="0px" y="0px"
	 viewBox="0 0 512 512" enable-background="new 0 0 512 512" xml:space="preserve">
<g id="Layer_2">
	<path fill="#464A4C" d="M461.406,495H50.594c-19.882,0-36-16.118-36-36V48.188c0-19.882,16.118-36,36-36h410.812
		c19.882,0,36,16.118,36,36V459C497.406,478.882,481.289,495,461.406,495z"/>
</g>
<g id="Layer_3">
	<path fill="#FFD469" d="M256,40.627c-119.276,0-215.968,96.692-215.968,215.968S136.724,472.564,256,472.564
		s215.968-96.692,215.968-215.968S375.276,40.627,256,40.627z M256,301.679c-24.899,0-45.083-20.184-45.083-45.083
		c0-24.899,20.184-45.083,45.083-45.083c24.899,0,45.083,20.184,45.083,45.083C301.083,281.495,280.899,301.679,256,301.679z"/>
</g>
<g id="Layer_4">
	<path fill="#FFB636" d="M161.081,226.189l-93.578-31.672C86.43,138.594,129.37,92.828,182.367,72.092l35.996,92.001
		C192.579,174.182,170.63,197.975,161.081,226.189z M293.637,349.098l35.996,92.001c52.997-20.735,95.937-66.502,114.864-122.424
		l-93.578-31.672C341.37,315.216,319.421,339.01,293.637,349.098z"/>
</g>
<g id="Layer_5">
	<path fill="#FFE1AB" d="M179.716,192.869c8.162-9.917,17.979-18.229,28.758-24.14c5.505-3.019,10.796-2.32,8.508-8.168
		l-31.202-79.747c-4.361-11.147-9.154-6.516-15.684-3.39c-23.418,11.208-44.492,27.405-61.938,47.138L179.716,192.869z"/>
</g>
<g id="Layer_6">
	<path fill="#FFE1AB" d="M332.285,320.323c-10.598,12.878-23.989,23.049-38.65,28.771l35.997,92.003
		c28.342-11.075,53.767-29.342,74.211-52.466L332.285,320.323z"/>
</g>
<g id="Layer_7">
	<path fill="#F2A74E" d="M256,338.795c-45.325,0-82.2-36.874-82.2-82.199s36.875-82.2,82.2-82.2c45.325,0,82.2,36.875,82.2,82.2
		S301.325,338.795,256,338.795z M256,194.804c-34.072,0-61.792,27.72-61.792,61.792s27.72,61.792,61.792,61.792
		c34.073,0,61.792-27.719,61.792-61.792S290.073,194.804,256,194.804z"/>
</g>
<g id="Layer_8">
	<path fill="#EDEDED" d="M341.493,200.979h127.113c15.906,0,28.8,12.894,28.8,28.8v52.442c0,15.906-12.894,28.8-28.8,28.8H341.493
		c-15.906,0-28.8-12.894-28.8-28.8v-52.442C312.693,213.873,325.587,200.979,341.493,200.979z"/>
</g>
</svg>
