<?xml version="1.0" encoding="utf-8"?>
<!-- Generator: Adobe Illustrator 18.0.0, SVG Export Plug-In . SVG Version: 6.00 Build 0)  -->
<!DOCTYPE svg PUBLIC "-//W3C//DTD SVG 1.1 Tiny//EN" "http://www.w3.org/Graphics/SVG/1.1/DTD/svg11-tiny.dtd">
<svg version="1.1" baseProfile="tiny" id="Layer_1" xmlns="http://www.w3.org/2000/svg" xmlns:xlink="http://www.w3.org/1999/xlink"
	 x="0px" y="0px" width="511.9px" height="511.9px" viewBox="0 0 511.9 511.9" xml:space="preserve">
<path fill="#FF473E" d="M414.1,41.7c0,0-1.9,4.8-5.8,12.8c-1,2-2.1,4.2-3.2,6.6c-1.8,2.8-4.2,5.8-6.6,9c-4.9,6.4-10.7,14-17.5,19.8
	c-6.5,6.7-14.3,13.2-23.4,18.9c-8.7,6.5-19,11.2-29.7,16.2c-11.1,3.7-22.4,8.8-34.7,10.4c-12.1,2.8-24.7,3.3-37.3,4.1
	c-12.6-0.8-25.1-1.3-37.3-4.1c-12.3-1.6-23.6-6.7-34.7-10.4c-10.7-5.1-21-9.7-29.7-16.2c-9.1-5.7-16.9-12.2-23.4-18.9
	c-7-6-12.1-12.9-16.6-18.9c-4.8-5.7-8-11.3-10.4-16.1c-5-9.4-7.3-14.8-7.3-14.8c-6.3-14.6,0.5-31.6,15.1-37.9
	c8.7-3.7,18.2-2.9,25.9,1.6l5.5,3.3c0,0,3.9,2.3,9.9,6.4c5.7,4.3,14.7,9.3,24.9,14.4c5.1,2.7,10.7,5,16.8,7.2
	c5.7,2.8,12.7,3.5,18.9,6.1c13.5,2.7,27.8,5.1,42.3,5c14.5,0.1,28.8-2.3,42.3-5c6.2-2.6,13.2-3.3,18.9-6.1c6-2.2,11.7-4.5,16.8-7.2
	c5.6-2.5,9.3-4.7,13.1-6.7c2-1,3.9-1.9,5.6-2.7c2.1-1.7,4-3.2,5.8-4.5c7.1-5.4,11.4-8.3,11.4-8.3c13.7-9.2,32.2-5.6,41.4,8.1
	C416.9,22.4,417.6,32.9,414.1,41.7z"/>
</svg>
