<?xml version="1.0" encoding="utf-8"?>
<!-- Generator: Adobe Illustrator 18.1.0, SVG Export Plug-In . SVG Version: 6.00 Build 0)  -->
<!DOCTYPE svg PUBLIC "-//W3C//DTD SVG 1.0//EN" "http://www.w3.org/TR/2001/REC-SVG-20010904/DTD/svg10.dtd">
<svg version="1.0" id="Layer_1" xmlns="http://www.w3.org/2000/svg" xmlns:xlink="http://www.w3.org/1999/xlink" x="0px" y="0px"
	 width="72px" height="72px" viewBox="0 0 72 72" enable-background="new 0 0 72 72" xml:space="preserve">
<path fill="#FFE0CF" d="M35.7,47.7c0,1.9-1.5,3.4-3.4,3.4c-0.3,0-0.6-0.1-0.9-0.1c-0.2,7.4-6.2,13.3-13.6,13.3
	c-7.5,0-13.6-6.1-13.6-13.6L3.3,37.1c0-8,6.1-12.2,14.1-12.2c8,0,15,4.1,15,12.2l-0.5,7.2c0.2,0,0.3,0,0.5,0
	C34.2,44.3,35.7,45.8,35.7,47.7z M2,50.7l0-6.1c-1.2,0.5-2,1.7-2,3C0,49,0.8,50.2,2,50.7z"/>
</svg>
