<svg xmlns="http://www.w3.org/2000/svg" viewBox="0 0 512 512" enable-background="new 0 0 512 512"><path fill="#2B3B47" d="M412.208 35.827c-.638 0-1.255-.338-1.584-.936-.75-1.364-.926-2.94-.492-4.434.434-1.495 1.425-2.73 2.79-3.48 1.364-.75 2.938-.924 4.433-.49 1.492.435 2.728 1.427 3.48 2.792.48.874.16 1.972-.714 2.452-.87.478-1.97.16-2.45-.713-.285-.52-.756-.9-1.324-1.065-.565-.166-1.163-.1-1.683.187-.52.284-.897.754-1.062 1.322-.164.57-.1 1.17.19 1.69.48.874.16 1.97-.713 2.452-.276.15-.574.222-.868.222z"/></svg>