<?xml version="1.0" encoding="iso-8859-1"?>
<!-- Generator: Adobe Illustrator 19.1.0, SVG Export Plug-In . SVG Version: 6.00 Build 0)  -->
<!DOCTYPE svg PUBLIC "-//W3C//DTD SVG 1.1//EN" "http://www.w3.org/Graphics/SVG/1.1/DTD/svg11.dtd">
<svg version="1.1" xmlns="http://www.w3.org/2000/svg" xmlns:xlink="http://www.w3.org/1999/xlink" x="0px" y="0px"
	 viewBox="0 0 512 512" enable-background="new 0 0 512 512" xml:space="preserve">
<g id="Layer_3">
	<path fill="#EF4B44" d="M289.575,127.608c-14.412-2.035-27.239,9.324-27.239,23.873v334.08c0,14.55,12.827,25.909,27.239,23.874
		c93.595-13.229,165.587-93.664,165.587-190.908C455.162,221.272,383.17,140.837,289.575,127.608z M345.131,176.983
		c23.746,0,43.001,19.255,43.001,43c0,23.746-19.255,43.002-43.001,43.002c-23.746,0-43.001-19.255-43.001-43.002
		C302.13,196.238,321.385,176.983,345.131,176.983z M292.252,309.364c0-10.38,8.414-18.805,18.795-18.805
		c10.391,0,18.805,8.425,18.805,18.805c0,10.381-8.414,18.806-18.805,18.806C300.666,328.17,292.252,319.745,292.252,309.364z
		 M358.744,438.907c-23.335,0-42.248-18.923-42.248-42.259c0-23.334,18.913-42.258,42.248-42.258
		c23.335,0,42.258,18.923,42.258,42.258C401.002,419.984,382.079,438.907,358.744,438.907z"/>
</g>
<g id="Layer_1">
</g>
</svg>
