<?xml version="1.0" encoding="utf-8"?>
<!-- Generator: Adobe Illustrator 18.1.0, SVG Export Plug-In . SVG Version: 6.00 Build 0)  -->
<!DOCTYPE svg PUBLIC "-//W3C//DTD SVG 1.1//EN" "http://www.w3.org/Graphics/SVG/1.1/DTD/svg11.dtd">
<svg version="1.1" id="Layer_1" xmlns="http://www.w3.org/2000/svg" xmlns:xlink="http://www.w3.org/1999/xlink" x="0px" y="0px"
	 width="72px" height="72px" viewBox="0 0 72 72" enable-background="new 0 0 72 72" xml:space="preserve">
<path fill="#597B91" d="M49.6,56c0-3.2-0.4-4-3.9-4.3c-0.6,0-1-0.5-1-1.1l0-1.6c0-0.4,0.2-0.8,0.6-1c4.3-2.9,7.1-7.8,7.1-13.3
	l0.1-0.7c0.1-0.5,0.5-0.9,1-1c1.4-0.3,2.6-1.4,2.9-2.8c0.4-2.1-1-3.9-2.9-4.3c-0.3-0.1-0.5-0.4-0.5-0.7l0.4-6.4
	C53.6-5.7,18.1-6,17.9,18.4l0.6,7c0,0.3-0.1,0.5-0.4,0.6c-1.6,0.6-2.7,2.4-2.2,4.3c0.3,1.3,1.6,2.2,3,2.6c0.6,0.1,1,0.6,1,1.2l0,0.6
	c0,5.6,2.9,10.6,7.3,13.5c0.2,0.1,0.3,0.3,0.3,0.5l0,2c0,0.5-0.4,1-1,1c-3.6,0.2-4,1.1-4.1,4.2c-0.1,0.1-0.2,0.3-0.3,0.4
	c-6,2.5-10.4,6.1-10.2,14.8c0,0.5,0.4,0.9,1,0.9c6.1,0,40.1,0,46.2,0c0.5,0,1-0.4,1-0.9C60.2,62.4,56,59.1,50,56.5
	C49.9,56.3,49.8,56.2,49.6,56z"/>
</svg>
