<?xml version="1.0" encoding="utf-8"?>
<!-- Generator: Adobe Illustrator 18.0.0, SVG Export Plug-In . SVG Version: 6.00 Build 0)  -->
<!DOCTYPE svg PUBLIC "-//W3C//DTD SVG 1.1 Tiny//EN" "http://www.w3.org/Graphics/SVG/1.1/DTD/svg11-tiny.dtd">
<svg version="1.1" baseProfile="tiny" id="Layer_1" xmlns="http://www.w3.org/2000/svg" xmlns:xlink="http://www.w3.org/1999/xlink"
	 x="0px" y="0px" width="511.9px" height="511.9px" viewBox="0 0 511.9 511.9" xml:space="preserve">
<path fill="#FFD469" d="M36,166.9c0,0-0.5-1-1.6-3.1c-1-2-2.6-5.1-4.5-9.1c-3.7-8.1-9.2-20-14-36.2c-2.4-8.1-4.7-17.2-6-27.5
	c-0.7-5.1-1.1-10.6-1.1-16.3c0-5.7,0.5-11.7,1.6-17.9c0.6-3.1,1.4-6.2,2.4-9.4c1.1-3.1,2.3-6.3,3.9-9.4c0.7-1.6,1.7-3.1,2.6-4.6
	c0.5-0.8,1-1.5,1.5-2.3c0.5-0.8,1-1.5,1.6-2.2c0.6-0.7,1.1-1.5,1.7-2.2c0.6-0.7,1.2-1.4,1.8-2.1l0.5-0.5l0.2-0.3
	c0-0.1,0.5-0.5,0.4-0.4l0.8-0.9l0.8-0.9l0.4-0.4l0.5-0.5c0.8-0.7,1.5-1.4,2.3-2c0.8-0.6,1.5-1.2,2.3-1.8c0.7-0.6,1.5-1.2,2.3-1.7
	c0.8-0.5,1.6-1.1,2.4-1.6c3.3-2.1,6.7-3.8,10.3-5.3c7.2-3,14.9-4.8,22.7-5.9c7.8-1,15.7-1.1,23.6-0.6c7.9,0.4,15.9,1.5,23.8,3
	c15.9,3,31.7,7.8,47.4,13.8c15.7,6,31.4,13.2,46.9,21.4c15.5,8.2,31,17.3,46.2,27.2c15.2,10,30.2,20.7,44.9,32.3
	c14.6,11.6,29.1,23.8,43.1,36.8c27.9,25.9,54.4,54.5,78.1,85.5c11.9,15.5,23.1,31.6,33.4,48.4c10.3,16.7,19.8,34.1,27.9,52.3
	c8.1,18.2,14.9,37.2,19.1,57.6c2,10.2,3.4,20.8,3.6,31.9c0.2,11.1-1,22.7-4.6,34.6c-1.8,5.9-4.2,11.9-7.4,17.6
	c-3.2,5.7-7.1,11.1-11.7,16l-0.9,0.9l-0.4,0.5c0,0-1.4,1.4-1,0.9l-1.2,1.1l-0.6,0.6c-0.2,0.2-0.3,0.3-0.8,0.7l-2.2,1.9l-1.1,0.9
	c-0.4,0.3-0.8,0.6-1.1,0.9l-2,1.5c-1.3,1-2.7,1.9-4,2.8c-5.5,3.5-11.2,6.2-16.9,8.3c-11.4,4.2-22.7,5.8-33.1,6.2
	c-2.6,0.1-5.2,0.1-7.8,0.1c-2.5-0.1-5.1-0.1-7.5-0.3c-5-0.3-9.8-0.9-14.4-1.6c-9.4-1.4-18.2-3.5-26.7-5.8
	c-8.5-2.4-16.6-5.1-24.3-8.1c-15.5-5.9-29.8-12.7-43-19.7c-26.5-14.1-49-29.3-68.2-43.5c-19.2-14.2-35-27.7-47.7-39
	c-12.7-11.3-22.2-20.8-28.6-27.2c-3.2-3.2-5.6-5.7-7.3-7.4c-1.6-1.7-2.5-2.6-2.5-2.6c-9.7-10.1-9.4-26.2,0.7-35.9
	c9.8-9.4,25.2-9.4,34.9-0.3l0.3,0.3c0,0,0.8,0.8,2.4,2.3c1.6,1.5,4,3.7,7.1,6.6c6.2,5.8,15.5,14.1,27.6,24.3
	c12.1,10.2,27.2,22.1,45,34.9c8.9,6.4,18.6,12.8,28.9,19.3c10.4,6.4,21.4,12.9,33.1,18.9c11.7,6,24.1,11.8,37,16.6
	c6.5,2.4,13,4.6,19.6,6.5c6.6,1.9,13.3,3.4,19.9,4.4c1.7,0.3,3.3,0.4,4.9,0.7c1.6,0.1,3.3,0.3,4.9,0.4c1.6,0.1,3.2,0.2,4.8,0.2
	c1.5,0,3.1,0,4.6,0c6.1-0.2,11.6-1.1,16.2-2.8c2.3-0.8,4.3-1.8,6-2.9c0.4-0.3,0.9-0.5,1.3-0.8l0.6-0.4c0.1-0.1,0.2-0.1,0.2-0.1
	l0.1-0.1c0.1-0.1,0.2-0.1,0.3-0.2c0,0,0.2-0.2,0.4-0.4l0.6-0.6l1.2-1.1c0.6-0.6-0.5,0.5-0.4,0.4l0.1-0.1l0.3-0.3
	c2.8-2.8,5-6.5,6.6-11.5c1.6-5,2.5-11.1,2.5-18c0.1-6.8-0.7-14.2-2.1-21.7c-1.4-7.6-3.4-15.4-5.9-23.2c-2.4-7.8-5.4-15.7-8.7-23.6
	c-6.6-15.8-14.7-31.4-23.5-46.7c-8.9-15.4-18.8-30.4-29.3-45.1c-21-29.3-44.6-57.1-69.4-83c-12.4-12.9-25.1-25.4-38.2-37.2
	c-13-11.8-26.3-23.1-39.8-33.6c-26.9-21-54.7-39.2-82.5-52.7c-13.9-6.8-27.9-12.3-41.6-16.2c-13.7-3.9-27.3-6-39.8-5.5
	c-6.2,0.3-12.2,1.3-17.6,3c-2.7,0.9-5.3,1.9-7.7,3.2c-0.6,0.3-1.2,0.7-1.8,1c-0.6,0.3-1.2,0.7-1.7,1.1c-0.5,0.4-1.1,0.7-1.7,1.1
	l-1.4,1.1c-0.1,0.1-0.2,0.2-0.4,0.3L41.1,35l-0.9,0.8l-0.9,0.8c-0.3,0.2,0.1-0.1,0,0l-0.2,0.2l-0.4,0.3l-1.4,1.4L36,39.9
	c-0.5,0.5-0.9,1-1.3,1.5c-0.4,0.5-0.8,1-1.2,1.5C32.8,44,32,45,31.4,46.1c-1.4,2.2-2.5,4.5-3.5,6.9c-1,2.4-1.8,4.8-2.5,7.3
	c-2.8,9.9-3.2,20.2-2.8,29.6c0.4,9.5,1.8,18.2,3.4,26.1c3.3,15.7,7.4,27.9,10.3,36.1c1.5,4.1,2.6,7.2,3.5,9.3
	c0.8,2.1,1.2,3.2,1.2,3.2c0.5,1.4-0.2,3-1.6,3.5C38,168.7,36.6,168.1,36,166.9z"/>
</svg>
