<svg xmlns="http://www.w3.org/2000/svg" viewBox="0 0 512 512" enable-background="new 0 0 512 512"><path fill="#442A2A" d="M286.673 252.54h-61.64v-47.808c0-18.926 13.798-34.268 30.82-34.268 17.02 0 30.82 15.342 30.82 34.268v47.808zm7.966 111.113c0-23.853-17.392-43.19-38.844-43.19-21.453 0-38.843 19.337-38.843 43.19v95.545h77.687v-95.545zm-107.982 45.752c0-16.573-12.083-30.007-26.988-30.007s-26.988 13.435-26.988 30.007v49.326h53.976v-49.325zm192.252 0c0-16.573-12.083-30.007-26.988-30.007s-26.988 13.435-26.988 30.007v49.326h53.976v-49.325z"/></svg>