<svg xmlns="http://www.w3.org/2000/svg" viewBox="0 0 512 512" enable-background="new 0 0 512 512"><path fill="#CECECA" d="M388.493 125.498c-68.62 0-57.185 12.553-117.228 12.553-49.495 0-60.14-17.055-99.617-23.05-8.13-19.105-23.84-40.71-53.35-40.71-30.023 0-41.46 15.726-57.64 48.174l.013.002c6.963-6.824 14.68-13.452 23.223-19.79 30.49-22.618 42.744 4.51 47.67 30.54.087.454.17.907.252 1.36l.05.275c3.113 17.48 3.01 33.976 3.01 33.976-23.015 23.015-14.336 72.128-31.49 94.797-11.12 14.694-33.048 16.71-47.102 16.31l47.353 6.784c7.458 1.07 13.15 7.215 13.647 14.733 2.436 36.93 15.193 59.21 26.332 71.854 10.096 11.46 16.95 25.41 20.238 40.324 7.72 35.008 21.637 50.652 45.94 50.652 17.156 0 28.593-41.165 28.593-56.89 0-15.727 44.318-19.642 77.2-19.642s45.032 7.134 45.032 23.93-3.574 52.602 30.737 52.602c24.228 0 40.614-38.16 48.153-60.588 3.044-9.055 8.607-17.084 16.11-23 15.713-12.39 42.874-44.185 49.35-118.5C513.85 160.272 457.115 125.5 388.494 125.5z"/></svg>