<?xml version="1.0" encoding="utf-8"?>
<!-- Generator: Adobe Illustrator 18.0.0, SVG Export Plug-In . SVG Version: 6.00 Build 0)  -->
<!DOCTYPE svg PUBLIC "-//W3C//DTD SVG 1.1 Tiny//EN" "http://www.w3.org/Graphics/SVG/1.1/DTD/svg11-tiny.dtd">
<svg version="1.1" baseProfile="tiny" id="Layer_1" xmlns="http://www.w3.org/2000/svg" xmlns:xlink="http://www.w3.org/1999/xlink"
	 x="0px" y="0px" width="511.4px" height="470.4px" viewBox="0 0 511.4 470.4" xml:space="preserve">
<path fill="#FFD3B6" d="M507.4,114.2c0-20-15.1-33.6-33.4-35c-0.6-0.2-1.1-0.5-1.7-0.7c-1.2-1.4-0.6-4.4,1.5-5.3
	c13.3-5.9,22.5-19,22.5-34.6c0-21.3-17.2-38.5-38.3-38.5h-17.9l0,0H195.3c-37.1,0-70.2,17-92,43.6H27.5C12.3,43.7,0,56,0,71.2v174.1
	c0,15.2,12.3,27.5,27.5,27.5h56.9c6.6,14.6,17.2,27,30.3,36c12.3,11.2,44.5,27.7,85,122.9c6.2,20,26.9,44.3,45.6,37.6
	c22.2-8,46.7-38.2,23.1-112.4c-5.3-16.8-14.2-42.6-23.1-53.5h59.8l0.2-0.4c1.7,0.3,3.5,0.4,5.3,0.4h28h38.8h8h6.9h28h37.8
	c30.8,0,46.3-16.6,46.3-37.9c0-15.6-2.2-29-15.5-35c-2.7-1.2-2.7-4.8,0-6c13.3-5.9,22.5-19,22.5-34.6s-9.2-29-22.5-35
	c-2.7-1.2-2.7-4.8,0-6C502.1,143,507.3,129.9,507.4,114.2z"/>
<path fill="#EDC0A2" d="M310.6,0.3h-21.1c-21.2,0-38.3,16.6-38.3,37.9c0,15.6,9.2,29,22.5,35c2.7,1.2,2.7,4.8,0,6
	c-13.3,5.9-22.5,19-22.5,34.6s9.2,29,22.5,35c2.7,1.2,2.7,4.8,0,6c-13.3,5.9-22.5,19-22.5,34.6s9.2,29,22.5,35c2.7,1.2,2.7,4.8,0,6
	c-13.3,5.9-22.5,19-22.5,34.6c0,21.3,17.2,38.5,38.3,38.5h21.1c-21.2,0-38.3-17.3-38.3-38.5c0-15.6,9.2-28.7,22.5-34.6
	c2.7-1.1,2.7-4.8,0-6c-13.3-6-22.5-19.4-22.5-35s9.2-28.7,22.5-34.6c2.6-1.2,2.7-4.5,0.4-5.9c-8.4-3.8-15.3-10.5-19.2-18.9l0,0
	c-0.4-0.7-0.7-1.5-1-2.3c0-0.1-0.1-0.2-0.1-0.3c-0.3-0.8-0.5-1.6-0.8-2.4c-0.1-0.1-0.1-0.1-0.1-0.2c-0.2-0.8-0.4-1.5-0.6-2.3
	c0-0.1-0.1-0.3-0.1-0.5c-0.2-0.8-0.4-1.7-0.5-2.5c0-0.1,0-0.1,0-0.2c-0.2-0.7-0.2-1.5-0.3-2.3c0-0.3,0-0.5,0-0.7
	c-0.1-0.9-0.1-1.7-0.1-2.6l0,0l0,0l0,0c0-0.9,0-1.7,0.1-2.6c0-0.3,0-0.5,0-0.7c0.1-0.8,0.2-1.5,0.3-2.3c0-0.1,0-0.1,0-0.2
	c0.2-0.9,0.3-1.7,0.5-2.5c0-0.1,0.1-0.3,0.1-0.5c0.2-0.7,0.4-1.5,0.6-2.2c0.1-0.1,0.1-0.1,0.1-0.2c0.2-0.8,0.5-1.6,0.8-2.4
	c0-0.1,0.1-0.2,0.1-0.3c0.3-0.7,0.7-1.5,1-2.2v-0.1c0.4-0.8,0.8-1.6,1.2-2.4l0,0c4-7.2,10.3-12.8,17.9-16.1c2.4-1.4,2.3-4.7-0.3-5.9
	c-13.3-6-22.5-19.4-22.5-35C272.3,16.8,289.4,0.2,310.6,0.3z"/>
<path fill="#EDC0A2" d="M103.3,43.7H72.1c-11.6,0-21,9.4-21,21v187.1c0,11.6,9.4,21,21,21h12.3c-5.1-11.2-8-23.6-8-36.7V121.6
	c0-0.1,0-0.3,0-0.5c0-0.7,0-1.4,0-2.1C76.4,90.5,86.5,64.2,103.3,43.7z"/>
</svg>
