<?xml version="1.0" encoding="utf-8"?>
<!-- Generator: Adobe Illustrator 18.1.0, SVG Export Plug-In . SVG Version: 6.00 Build 0)  -->
<!DOCTYPE svg PUBLIC "-//W3C//DTD SVG 1.0//EN" "http://www.w3.org/TR/2001/REC-SVG-20010904/DTD/svg10.dtd">
<svg version="1.0" id="Layer_1" xmlns="http://www.w3.org/2000/svg" xmlns:xlink="http://www.w3.org/1999/xlink" x="0px" y="0px"
	 width="72px" height="72px" viewBox="0 0 72 72" enable-background="new 0 0 72 72" xml:space="preserve">
<path fill="#FFD3B6" d="M41.7,27.9l0.5-8.1c0-9.4-8.1-14.2-17.5-14.2c-9.4,0-16.5,4.9-16.5,14.2l0.5,8.1c-1.9,0.1-3.3,1.6-3.3,3.5
	C5.4,33.4,7,35,9,35c0.1,0,0.2,0,0.3,0l0,0.5c0,6.3,3.7,11.7,9,14.3v7c0,1.9,3.1,3.4,6.9,3.4c3.8,0,6.9-1.5,6.9-3.4
	c0-0.2,0-0.4-0.1-0.6V50c5.5-2.5,9.3-8.1,9.3-14.5l0-0.5c0.2,0,0.3,0,0.5,0c2,0,3.6-1.6,3.6-3.6C45.2,29.5,43.6,27.9,41.7,27.9z"/>
</svg>
