<?xml version="1.0" encoding="iso-8859-1"?>
<!-- Generator: Adobe Illustrator 18.1.1, SVG Export Plug-In . SVG Version: 6.00 Build 0)  -->
<!DOCTYPE svg PUBLIC "-//W3C//DTD SVG 1.1//EN" "http://www.w3.org/Graphics/SVG/1.1/DTD/svg11.dtd">
<svg version="1.1" xmlns="http://www.w3.org/2000/svg" xmlns:xlink="http://www.w3.org/1999/xlink" x="0px" y="0px"
	 viewBox="0 0 512 512" enable-background="new 0 0 512 512" xml:space="preserve">
<g id="Layer_4">
	<path fill="#132028" d="M457.702,383.997H46.616c-6.627,0-11.999-5.372-11.999-11.999v-6.268c0-6.627,5.372-11.999,11.999-11.999
		h411.087c6.627,0,11.999,5.372,11.999,11.999v6.268C469.702,378.625,464.329,383.997,457.702,383.997z M163.418,189.445H82.263
		c-14.847,18.74-23.715,42.432-23.715,68.198c0,26.151,9.139,50.165,24.389,69.035h80.481V189.445z M348.582,326.677h81.155
		c14.847-18.74,23.715-42.432,23.715-68.198c0-26.151-9.139-50.165-24.389-69.035h-80.481V326.677z"/>
</g>
<g id="Layer_1">
</g>
</svg>
