<?xml version="1.0" encoding="iso-8859-1"?>
<!-- Generator: Adobe Illustrator 19.1.0, SVG Export Plug-In . SVG Version: 6.00 Build 0)  -->
<!DOCTYPE svg PUBLIC "-//W3C//DTD SVG 1.1//EN" "http://www.w3.org/Graphics/SVG/1.1/DTD/svg11.dtd">
<svg version="1.1" xmlns="http://www.w3.org/2000/svg" xmlns:xlink="http://www.w3.org/1999/xlink" x="0px" y="0px"
	 viewBox="0 0 512 512" enable-background="new 0 0 512 512" xml:space="preserve">
<g id="Layer_2">
	<path fill="#2C3C47" d="M489.807,302.675h-58.664c0.285-4.293,0.441-8.624,0.441-12.993c0-24.538-4.587-47.952-12.892-69.369
		c16.763-20.689,26.823-47.02,26.823-75.661c0-8.943-7.25-16.193-16.193-16.193c-8.943,0-16.193,7.25-16.193,16.193
		c0,15.499-4.033,30.072-11.097,42.733c-19.388-30.413-47.173-54.449-79.888-68.488c2.295-6.949,3.555-14.369,3.555-22.088
		c0-29.727-18.437-55.135-44.487-65.46l5.963-19.167c1.106-3.551-0.538-7.474-3.992-9.118c-3.796-1.801-8.326-0.186-10.127,3.6
		l-9.609,20.223c-2.674-0.308-5.388-0.484-8.145-0.484c-2.76,0-5.478,0.176-8.155,0.485l-9.608-20.224
		c-1.595-3.366-5.46-5.136-9.119-3.992c-4.012,1.243-6.252,5.499-5,9.511l5.963,19.167c-26.053,10.326-44.488,35.732-44.488,65.459
		c0,7.737,1.266,15.173,3.572,22.136c-31.569,13.574-58.539,36.463-77.794,65.405c-6.057-11.933-9.475-25.421-9.475-39.693
		c0-8.943-7.25-16.193-16.193-16.193c-8.943,0-16.193,7.25-16.193,16.193c0,27.249,9.106,52.408,24.427,72.607
		c-9.072,22.235-14.099,46.711-14.099,72.418c0,3.664,0.114,7.299,0.315,10.91h-57.26C13.25,300.592,6,307.841,6,316.784
		c0,8.943,7.25,16.193,16.193,16.193h51.835c5.361,23.339,24.951,44.952,37.886,63.895C84.249,418.948,66.487,452.937,66.487,491
		c0,8.943,7.25,16.193,16.193,16.193c8.943,0,16.193-7.25,16.193-16.193c0-27.997,13.143-52.981,33.583-69.109
		c31.747,32.36,75.099,52.301,122.905,52.301c38.744,0,74.56-13.102,103.649-35.291c10.06-0.062,19.286-3.638,26.513-9.566
		c15.626,15.891,25.282,37.669,25.282,61.663c0,8.943,7.25,16.193,16.193,16.193c8.943,0,16.193-7.25,16.193-16.193
		c0-36.606-16.428-69.443-42.293-91.541c0.061-0.93,0.103-1.864,0.103-2.809c0-0.978-0.045-1.945-0.111-2.906
		c11.507-17.608,20.176-37.408,25.315-58.682h63.601c8.943,0,16.193-7.25,16.193-16.193S498.75,302.675,489.807,302.675z"/>
</g>
<g id="Layer_1">
</g>
</svg>
