<?xml version="1.0" encoding="utf-8"?>
<!-- Generator: Adobe Illustrator 18.1.0, SVG Export Plug-In . SVG Version: 6.00 Build 0)  -->
<!DOCTYPE svg PUBLIC "-//W3C//DTD SVG 1.0//EN" "http://www.w3.org/TR/2001/REC-SVG-20010904/DTD/svg10.dtd">
<svg version="1.0" id="Layer_1" xmlns="http://www.w3.org/2000/svg" xmlns:xlink="http://www.w3.org/1999/xlink" x="0px" y="0px"
	 width="72px" height="72px" viewBox="0 0 72 72" enable-background="new 0 0 72 72" xml:space="preserve">
<path fill="#E5AB83" d="M54,53.4C54,53.4,54,53.4,54,53.4c-1,0-2-0.5-2.5-1.4c-0.2-0.3-0.1-0.6,0.2-0.8c0.3-0.2,0.7-0.1,0.8,0.2
	c0.3,0.5,0.9,0.8,1.5,0.8c0,0,0,0,0,0c0.6,0,1.2-0.3,1.5-0.8c0.2-0.3,0.5-0.4,0.8-0.2c0.3,0.2,0.4,0.5,0.2,0.8
	C56,52.8,55,53.4,54,53.4z M65.3,42.7c0.2-0.1,0.4-0.4,0.3-0.6c-0.3-0.7-0.9-1.3-1.6-1.5c-0.7-0.3-1.5-0.2-2.2,0.2
	c-0.2,0.1-0.3,0.4-0.2,0.7c0.1,0.2,0.4,0.3,0.7,0.2c0.4-0.2,0.9-0.3,1.4-0.1c0.5,0.2,0.8,0.5,1,1c0.1,0.2,0.3,0.3,0.5,0.3
	C65.2,42.7,65.3,42.7,65.3,42.7z M43.4,42.4c0.2-0.5,0.6-0.8,1-1c0.5-0.2,1-0.1,1.4,0.1c0.2,0.1,0.5,0,0.7-0.2
	c0.1-0.2,0-0.5-0.2-0.7c-0.7-0.4-1.5-0.4-2.2-0.2c-0.7,0.3-1.3,0.8-1.6,1.5c-0.1,0.2,0,0.5,0.3,0.6c0.1,0,0.1,0,0.2,0
	C43.1,42.7,43.3,42.6,43.4,42.4z"/>
</svg>
