<?xml version="1.0" encoding="utf-8"?>
<!-- Generator: Adobe Illustrator 18.1.0, SVG Export Plug-In . SVG Version: 6.00 Build 0)  -->
<!DOCTYPE svg PUBLIC "-//W3C//DTD SVG 1.0//EN" "http://www.w3.org/TR/2001/REC-SVG-20010904/DTD/svg10.dtd">
<svg version="1.0" id="Layer_1" xmlns="http://www.w3.org/2000/svg" xmlns:xlink="http://www.w3.org/1999/xlink" x="0px" y="0px"
	 width="72px" height="72px" viewBox="0 0 72 72" enable-background="new 0 0 72 72" xml:space="preserve">
<path fill="#332A23" d="M51.8,0.2L51.8,0.2l-2.4,0c-5.5,0-7,3.7-7,7.1s0,1.9,0,3.4c0,0.6,0.5,1.1,0.8,0.3c0.4-1.3,0.6-6.8,2.6-5.1
	C47.1,7,54.6,6.8,54,5.9c-0.2-0.2-0.4-0.5-0.6-0.7c3.3,1.7,3.9,5.1,4.1,5.6c0.4,0.8,0.6,0.6,0.6-0.1c0-1.7,0,0,0-3.1
	C58.1,4.5,56.9,0.5,51.8,0.2z"/>
</svg>
