<?xml version="1.0" encoding="iso-8859-1"?>
<!-- Generator: Adobe Illustrator 18.1.1, SVG Export Plug-In . SVG Version: 6.00 Build 0)  -->
<!DOCTYPE svg PUBLIC "-//W3C//DTD SVG 1.1//EN" "http://www.w3.org/Graphics/SVG/1.1/DTD/svg11.dtd">
<svg version="1.1" xmlns="http://www.w3.org/2000/svg" xmlns:xlink="http://www.w3.org/1999/xlink" x="0px" y="0px"
	 viewBox="0 0 512 512" enable-background="new 0 0 512 512" xml:space="preserve">
<g id="Layer_6">
	<path fill="#597B91" d="M291.401,154.645h-38.632c-3.399,0-6.155,2.756-6.155,6.155v21.722c0,3.399,2.756,6.155,6.155,6.155h31.415
		c3.399,0,6.155,2.756,6.155,6.155v11.616c0,3.399-2.756,6.155-6.155,6.155h-31.415c-3.399,0-6.155,2.756-6.155,6.155v23.578
		c0,3.399,2.756,6.155,6.155,6.155h41.316c3.399,0,6.155,2.756,6.155,6.155v12.441c0,3.399-2.756,6.155-6.155,6.155h-75.76
		c-3.399,0-6.155-2.756-6.155-6.155V136.461c0-3.399,2.756-6.155,6.155-6.155h74.81c3.749,0,6.627,3.322,6.092,7.033l-1.733,12.028
		C297.057,152.396,294.462,154.645,291.401,154.645z"/>
</g>
<g id="Layer_1">
</g>
</svg>
