<?xml version="1.0" encoding="iso-8859-1"?>
<!-- Generator: Adobe Illustrator 18.1.1, SVG Export Plug-In . SVG Version: 6.00 Build 0)  -->
<!DOCTYPE svg PUBLIC "-//W3C//DTD SVG 1.1//EN" "http://www.w3.org/Graphics/SVG/1.1/DTD/svg11.dtd">
<svg version="1.1" xmlns="http://www.w3.org/2000/svg" xmlns:xlink="http://www.w3.org/1999/xlink" x="0px" y="0px"
	 viewBox="0 0 512 512" enable-background="new 0 0 512 512" xml:space="preserve">
<g id="Layer_2">
	<path fill="#96A9B2" d="M486.182,483.414c1.746-4.72-198.773-156.127-198.773-156.127c-25.103-18.525-38.307-18.817-63.132,0
		c0,0-200.227,151.285-198.542,155.94l-0.041,0.034c0.02,0.041,0.054,0.068,0.082,0.105c1.713,4.672,4.2,8.974,7.305,12.738
		c1.325,1.607,2.922,2.953,4.458,4.353l-0.075,0.058c0.122,0.109,0.285,0.16,0.408,0.268c6.51,5.807,14.719,9.568,23.839,10.642
		c0.143,0.017,0.258,0.092,0.401,0.109h0.55c1.386,0.133,2.705,0.466,4.125,0.466H445.34c18.64,0,34.434-11.723,40.706-28.154
		c0.075-0.122,0.19-0.211,0.258-0.336L486.182,483.414z"/>
</g>
<g id="Layer_3">
	<path fill="#B9C5C6" d="M256.119,309.911L26.753,481.936V238.234c0-23.754,19.252-43.006,43.006-43.006h372.72
		c23.754,0,43.006,19.252,43.006,43.006v243.701L256.119,309.911z"/>
</g>
<g id="Layer_4">
	<path fill="#EDECE6" d="M29.429,223.281l195.83,153.814c24.716,18.239,37.717,18.527,62.159,0l195.522-153.57
		c-3.392-6.149-8.471-11.007-14.278-14.881l2.69-2.108c-6.564-5.975-14.954-9.849-24.268-10.849l-381.911,0.013
		c-9.287,0.987-17.691,4.874-24.241,10.836l2.67,2.081C37.859,212.438,32.828,217.212,29.429,223.281z"/>
</g>
<g id="Layer_5">
	<path fill="#DCE2E2" d="M29.365,223.604c-1.72,4.647,195.71,153.721,195.71,153.721c24.716,18.239,37.717,18.527,62.159,0
		c0,0,197.142-148.953,195.482-153.537l0.04-0.033c-0.02-0.04-0.054-0.067-0.08-0.104c-1.686-4.6-4.135-8.835-7.193-12.542
		c-1.305-1.582-2.877-2.907-4.389-4.286l0.074-0.057c-0.12-0.107-0.281-0.157-0.401-0.264c-6.41-5.717-14.493-9.421-23.472-10.478
		c-0.141-0.017-0.254-0.09-0.395-0.107h-0.542c-1.365-0.13-2.663-0.458-4.061-0.458H69.577c-18.353,0-33.903,11.542-40.079,27.721
		c-0.074,0.12-0.187,0.207-0.254,0.331L29.365,223.604z"/>
</g>
<g id="Layer_6">
	<path fill="#FF473E" d="M314.311,81.508h-22.949V14.4c0-7.953-6.447-14.4-14.4-14.4h-44.577c-7.953,0-14.4,6.447-14.4,14.4v67.108
		H188.65c-12.819,0-18.952,15.752-9.507,24.42l66.219,60.768c5.593,5.133,14.25,4.899,19.558-0.527l59.442-60.768
		C333.069,96.499,326.763,81.508,314.311,81.508z"/>
</g>
</svg>
