<?xml version="1.0" encoding="iso-8859-1"?>
<!-- Generator: Adobe Illustrator 18.1.0, SVG Export Plug-In . SVG Version: 6.00 Build 0)  -->
<!DOCTYPE svg PUBLIC "-//W3C//DTD SVG 1.1//EN" "http://www.w3.org/Graphics/SVG/1.1/DTD/svg11.dtd">
<svg version="1.1" xmlns="http://www.w3.org/2000/svg" xmlns:xlink="http://www.w3.org/1999/xlink" x="0px" y="0px"
	 viewBox="0 0 512 512" enable-background="new 0 0 512 512" xml:space="preserve">
<g id="Layer_2">
	<path fill="#00B89C" d="M490.256,265.799h-3.835c-0.591-7.204-6.614-12.868-13.97-12.868c-7.356,0-13.379,5.665-13.97,12.868
		H435.05c0-22.063-18.646-39.772-41.039-38.227c-18.267,1.26-33.18,15.609-35.33,33.634H348.04l-11.602-8.849l-11.602,8.849h-1.527
		l-11.602-8.849l-11.602,8.849h-1.527l-11.602-8.849l-11.602,8.849h-1.527l-11.602-8.849l-11.602,8.849h-1.527l-11.602-8.849
		l-11.602,8.849h-1.527l-11.602-8.849l-11.602,8.849h-1.527l-11.602-8.849l-11.602,8.849h-1.527l-11.602-8.849l-12.459,9.503
		c-3.106,0.029-6.489,0.078-10.14,0.156c-2.843,0.058-5.869,0.119-9.059,0.184c-0.286,0.026-0.958-0.004-1.502-0.007
		c-0.57-0.001-1.14-0.049-1.723-0.063c-1.158-0.075-2.344-0.154-3.552-0.275c-2.415-0.239-4.917-0.642-7.478-1.231
		c-2.573-0.551-5.2-1.324-7.857-2.3c-5.336-1.904-10.759-4.746-15.962-8.483c-5.16-3.776-10.106-8.458-14.235-14.046
		c-4.212-5.536-7.576-11.95-9.965-18.905c-1.202-3.481-2.046-7.115-2.7-10.841c-0.09-0.465-0.146-0.935-0.224-1.404l-0.055-0.352
		l-0.028-0.176l-0.014-0.088c-0.005-0.108-0.013,0.659-0.015,0.273l-0.087-1.013l-0.087-1.013l-0.042-0.475l-0.035-0.277
		l-0.153-1.125c-0.163-1.893-0.249-3.792-0.266-5.693c-0.013-7.591,1.047-15.229,3.204-22.549
		c2.142-7.321,5.319-14.326,9.233-20.676c3.933-6.329,8.553-12.046,13.506-16.868c2.45-2.454,5-4.655,7.546-6.672
		c2.531-2.055,5.105-3.821,7.598-5.471c5.008-3.248,9.807-5.691,13.924-7.56c4.124-1.84,7.564-3.103,9.942-3.938
		c2.411-0.819,3.696-1.255,3.696-1.255l0.234-0.079c1.265-0.439,2.302-1.469,2.694-2.855c0.638-2.255-0.673-4.601-2.929-5.239
		c0,0-0.354-0.1-1.041-0.294c-0.689-0.199-1.713-0.488-3.066-0.793c-2.706-0.638-6.73-1.423-12.008-1.868
		c-5.265-0.41-11.81-0.493-19.345,0.514c-7.53,0.985-16.049,3.059-24.998,6.744c-8.917,3.708-18.249,9.053-27.071,16.362
		c-8.836,7.272-17.156,16.51-23.945,27.499C16.054,160.665,10.846,173.396,7.999,187c-0.715,3.398-1.303,6.845-1.753,10.327
		c-0.184,1.728-0.369,3.458-0.554,5.191l-0.113,1.011c-0.003-0.302-0.015,0.542-0.015,0.526l-0.011,0.165l-0.021,0.33l-0.042,0.661
		c-0.051,0.882-0.121,1.764-0.151,2.65c-0.317,7.084,0.01,14.284,0.927,21.456c1.771,14.368,6.259,28.525,12.776,41.477
		c6.609,12.908,15.249,24.636,25.321,34.369c10.009,9.81,21.376,17.653,33.016,23.496c5.837,2.891,11.731,5.313,17.579,7.25
		c5.849,1.939,11.651,3.367,17.275,4.429c2.811,0.541,5.585,0.949,8.303,1.276c1.36,0.145,2.704,0.311,4.035,0.418
		c1.355,0.11,2.557,0.228,4.128,0.303c1.256,0.059,2.496,0.118,3.719,0.175c0.452,0.018,0.9,0.036,1.346,0.054
		c0.617,0.011,1.229,0.022,1.837,0.033c1.684,0.036,3.319,0.07,4.909,0.104v42.581c0,3.156,2.558,5.714,5.714,5.714h9.406h16.014
		h27.311c3.885,0,6.604-3.784,5.439-7.491c-3.181-10.122-12.638-17.463-23.81-17.463c-0.907,0-1.803,0.05-2.683,0.148
		c-3.351,0.37-6.257-2.307-6.257-5.678v-16.996h117.163v42.393c0,2.81,2.278,5.088,5.087,5.088h6.319h19.727h24.427
		c3.339,0,5.781-3.166,4.927-6.394c-2.824-10.684-12.556-18.56-24.127-18.56c-0.018,0-0.036,0-0.054,0
		c-2.835,0.006-5.173-2.197-5.173-5.032v-17.495h73.279v-0.02c0.268,0.007,0.534,0.02,0.804,0.02
		c11.003,0,20.689-5.622,26.352-14.148h57.838c8.773,0,15.885-7.112,15.885-15.885v-0.021c0-3.496-1.143-6.718-3.057-9.341h2.996
		c8.494,0,15.38-6.886,15.38-15.381v-3.78C509.417,274.377,500.838,265.799,490.256,265.799z"/>
</g>
<g id="Layer_3">
	<path fill="#E5E4DF" d="M408.922,304.064c0,4.791-3.884,8.675-8.675,8.675c-4.791,0-8.675-3.884-8.675-8.675 M408.922,304.064
		c0,4.791,3.884,8.675,8.675,8.675c4.791,0,8.675-3.884,8.675-8.675 M426.272,304.064c0,4.791,3.884,8.675,8.675,8.675
		c4.791,0,8.675-3.884,8.675-8.675 M443.622,304.064c0,4.791,3.884,8.675,8.675,8.675c4.791,0,8.675-3.884,8.675-8.675
		 M460.972,304.064c0,4.791,3.884,8.675,8.675,8.675c4.791,0,8.675-3.884,8.675-8.675 M478.323,304.064
		c0,4.791,3.884,8.675,8.675,8.675c4.791,0,8.675-3.884,8.675-8.675"/>
</g>
<g id="Layer_4">
	<path fill="#2B3B47" d="M404.85,257.71v9.723h-0.015c0,0.015,0.015,0.02,0.015,0.027c0,3.818-3.098,6.916-6.916,6.916
		c-3.818,0-6.916-3.098-6.916-6.916c0-0.008,0-0.013,0-0.027h-0.03v-9.723h0.083c0.309-3.542,3.24-6.328,6.863-6.328
		c3.612,0,6.544,2.787,6.848,6.328H404.85z M479.382,267.65h-0.068c-0.304-3.542-3.236-6.328-6.848-6.328
		c-3.622,0-6.554,2.787-6.863,6.328h-0.083"/>
</g>
</svg>
