<?xml version="1.0" encoding="utf-8"?>
<!-- Generator: Adobe Illustrator 18.0.0, SVG Export Plug-In . SVG Version: 6.00 Build 0)  -->
<!DOCTYPE svg PUBLIC "-//W3C//DTD SVG 1.1 Tiny//EN" "http://www.w3.org/Graphics/SVG/1.1/DTD/svg11-tiny.dtd">
<svg version="1.1" baseProfile="tiny" id="Layer_1" xmlns="http://www.w3.org/2000/svg" xmlns:xlink="http://www.w3.org/1999/xlink"
	 x="0px" y="0px" width="511.9px" height="511.9px" viewBox="0 0 511.9 511.9" xml:space="preserve">
<path fill="#D32A2A" d="M173.2,320.2c-0.5,0-0.9,0-1.4,0c-16.2-0.4-31.4-7.6-42.7-20.2c-3.5-3.9-3.2-10,0.8-13.5
	c3.9-3.5,10-3.2,13.5,0.8c7.8,8.7,18,13.6,28.9,13.9c10.8,0.2,21.3-4.2,29.4-12.4c3.7-3.8,9.7-3.8,13.5-0.1
	c3.8,3.7,3.8,9.7,0.1,13.5C203.7,313.8,188.8,320.2,173.2,320.2z"/>
<path fill="#D32A2A" d="M475.8,239.5c-14.7-17.7-40.9-20.1-58.5-5.4c0,0-0.2,0.2-0.5,0.5c-0.4,0.3-0.8,0.8-1.8,1.4
	c-0.2,0.2-0.5,0.3-0.8,0.5c-0.3,0.2-0.5,0.4-0.9,0.6c-0.7,0.4-1.5,0.8-2.3,1.3c-0.9,0.5-1.9,0.9-3,1.4c-0.5,0.3-1.1,0.5-1.7,0.8
	c-0.6,0.3-1.2,0.5-1.9,0.8c-2.6,1.1-5.6,2.2-8.9,3.3c-3.3,1.1-6.9,2.2-10.8,3.3c-1.9,0.5-3.9,1-5.9,1.6c-2,0.5-4.1,1-6.2,1.5
	c-4.2,1-8.6,1.9-13,2.8c-4.4,0.9-8.8,1.7-13.3,2.5c-4.4,0.8-8.8,1.5-13,2.1c-8.5,1.3-16.5,2.3-23.4,3.1c-6.9,0.8-12.6,1.4-16.6,1.8
	c-3.9,0.4-6.2,0.6-6.2,0.6l-0.8,0.1c-10.5,1-19.4,9-20.9,19.9c-1.8,12.7,7.1,24.5,19.8,26.3c0,0,2.5,0.4,6.9,1
	c4.3,0.6,10.4,1.4,17.8,2.2c7.3,0.8,15.9,1.7,25.2,2.5c4.2,0.3,8.5,0.6,12.9,0.9c5.8,2.1,11.8,3.2,18.1,3.4c0.5,0,0.9,0,1.4,0
	c5.6,0,11-0.8,16.3-2.4c1.2,0,2.4,0,3.5,0c2.5-0.1,5-0.1,7.5-0.2c5-0.2,9.8-0.5,14.5-0.9c4.7-0.4,9.3-1,13.6-1.6
	c1.1-0.2,2.2-0.3,3.2-0.5c1-0.2,2.1-0.3,3.1-0.6c2.1-0.4,4-0.8,5.9-1.2c1.9-0.5,3.7-0.9,5.4-1.4c0.8-0.2,1.7-0.5,2.5-0.7
	c0.8-0.3,1.6-0.5,2.3-0.7c2.8-0.8,5.3-1.9,7-2.5c1.7-0.7,2.5-1,2.5-1l4.6-1.8c3.9-1.6,7.6-3.8,11-6.6
	C488,283.4,490.4,257.2,475.8,239.5z"/>
</svg>
