<?xml version="1.0" encoding="utf-8"?>
<!-- Generator: Adobe Illustrator 18.1.0, SVG Export Plug-In . SVG Version: 6.00 Build 0)  -->
<!DOCTYPE svg PUBLIC "-//W3C//DTD SVG 1.0//EN" "http://www.w3.org/TR/2001/REC-SVG-20010904/DTD/svg10.dtd">
<svg version="1.0" id="Layer_1" xmlns="http://www.w3.org/2000/svg" xmlns:xlink="http://www.w3.org/1999/xlink" x="0px" y="0px"
	 width="72px" height="72px" viewBox="0 0 72 72" enable-background="new 0 0 72 72" xml:space="preserve">
<path fill="#00ADE1" d="M16,2l1,65.9c0,1,0.9,1.9,1.9,1.9h9.6c1,0,1.9-0.9,1.9-1.9l2-44.7c0-2,1.6-3.5,3.6-3.5c2,0,3.6,1.6,3.6,3.5
	l2,44.7c0,1,0.9,1.9,1.9,1.9H53c1,0,1.9-0.9,1.9-1.9l1-65.9c0-1-0.9-0.9-1.9-0.9H17.9C16.9,1.1,16,1,16,2z"/>
</svg>
