<?xml version="1.0" encoding="iso-8859-1"?>
<!-- Generator: Adobe Illustrator 18.1.1, SVG Export Plug-In . SVG Version: 6.00 Build 0)  -->
<!DOCTYPE svg PUBLIC "-//W3C//DTD SVG 1.1//EN" "http://www.w3.org/Graphics/SVG/1.1/DTD/svg11.dtd">
<svg version="1.1" xmlns="http://www.w3.org/2000/svg" xmlns:xlink="http://www.w3.org/1999/xlink" x="0px" y="0px"
	 viewBox="0 0 512 512" enable-background="new 0 0 512 512" xml:space="preserve">
<g id="Layer_6">
	<path fill="#FCB535" d="M435.731,209.207c-18.943-42.058-69.857-48.669-98.815-19.794l-3.364,3.361
		c-1.738,1.737-4.582,1.608-6.171-0.266c-0.909-1.072-1.863-2.118-2.873-3.131c-28.642-28.724-78.99-22.591-98.362,18.459
		c-5.666,12.006-6.768,25.716-3.222,38.509c4.769,17.206,14.4,28.826,25.936,36.332l80.295,64.995
		c1.157,0.937,2.813,0.934,3.966-0.007l79.803-65.095c10.591-7.026,19.506-17.64,24.597-32.528
		C442.083,236.702,441.52,222.06,435.731,209.207z"/>
</g>
<g id="Layer_1">
</g>
</svg>
