<?xml version="1.0" encoding="iso-8859-1"?>
<!-- Generator: Adobe Illustrator 18.1.1, SVG Export Plug-In . SVG Version: 6.00 Build 0)  -->
<!DOCTYPE svg PUBLIC "-//W3C//DTD SVG 1.1//EN" "http://www.w3.org/Graphics/SVG/1.1/DTD/svg11.dtd">
<svg version="1.1" xmlns="http://www.w3.org/2000/svg" xmlns:xlink="http://www.w3.org/1999/xlink" x="0px" y="0px"
	 viewBox="0 0 512 512" enable-background="new 0 0 512 512" xml:space="preserve">
<g id="Layer_7">
	<path fill="#DCE2E2" d="M454.328,279.356l-2.115-1.955c-1.004-1.004-1.004-2.632,0-3.635l2.294-2.294
		c1.004-1.004,1.004-2.632,0-3.635l-2.294-2.294c-1.004-1.004-1.004-2.631,0-3.635l2.294-2.294c1.004-1.004,1.004-2.632,0-3.635
		l-2.294-2.294c-1.004-1.004-1.004-2.631,0-3.635l2.294-2.294c1.004-1.004,1.004-2.632,0-3.635l-2.294-2.294
		c-1.004-1.004-1.004-2.631,0-3.635l2.294-2.294c1.004-1.004,1.004-2.632,0-3.635l-2.294-2.294c-1.004-1.004-1.004-2.631,0-3.635
		l2.294-2.294c1.004-1.004,1.004-2.632,0-3.635l-2.294-2.294c-1.004-1.004-1.004-2.632,0-3.635l2.294-2.294
		c1.004-1.004,1.004-2.632,0-3.635l-2.294-2.294c-1.004-1.004-1.004-2.632,0-3.635l2.294-2.294c1.004-1.004,1.004-1.501,0-2.504
		l-4.111,0.036H125.894c-2.946-0.964-6.046-1.489-9.25-1.489c-19.171,0-34.712,18.425-34.712,41.154s15.541,41.154,34.712,41.154
		v0.836h333.753"/>
</g>
<g id="Layer_1">
</g>
</svg>
