<?xml version="1.0" encoding="utf-8"?>
<!-- Generator: Adobe Illustrator 18.1.0, SVG Export Plug-In . SVG Version: 6.00 Build 0)  -->
<!DOCTYPE svg PUBLIC "-//W3C//DTD SVG 1.0//EN" "http://www.w3.org/TR/2001/REC-SVG-20010904/DTD/svg10.dtd">
<svg version="1.0" id="Layer_1" xmlns="http://www.w3.org/2000/svg" xmlns:xlink="http://www.w3.org/1999/xlink" x="0px" y="0px"
	 width="72px" height="72px" viewBox="0 0 72 72" enable-background="new 0 0 72 72" xml:space="preserve">
<path fill="#2B3B47" d="M46,58.1c0,0,0,0.1,0,0.1l-0.2,0.3c-0.4,0.6-0.8,1.2-1.2,1.6c-0.4,0.5-0.8,0.9-1.2,1.2
	c-0.8,0.7-1.6,1.3-2.5,1.7c-0.2,0.1-0.4,0.2-0.7,0.3c-1.3-0.9-2.7,0.3-4.3,0.3c-1.6,0-3-1.2-4.3-0.3c-0.2-0.1-0.4-0.2-0.7-0.3
	c-0.8-0.5-1.6-1-2.5-1.7c-0.4-0.4-0.8-0.8-1.2-1.2c-0.4-0.5-0.8-1-1.2-1.6l-0.2-0.3c-0.1-0.1-0.1-0.3,0.1-0.4c0,0,0.1,0,0.1,0
	c0.6-0.1,1.2-0.1,1.8-0.1c0,0,0,0,0,0.1l0,0c0,0,0.3,0.1,0.7,0.2c0.4,0.1,1.1,0.2,1.8,0.3c0.8,0.1,1.6,0.2,2.6,0.2
	c0.9,0.1,1.9,0.1,3,0.1c1,0,2,0,3-0.1c0.9,0,1.8-0.2,2.6-0.2c0.8-0.1,1.4-0.2,1.8-0.3c0.4-0.1,0.7-0.2,0.7-0.2l0,0c0,0,0,0,0-0.1
	c0.6,0,1.2,0.1,1.7,0.1C46,57.8,46.1,57.9,46,58.1z M24,38.9c-0.1-1.2-1.1-2.2-2.4-2.2c-1.3,0-2.3,1-2.4,2.2h0v3.4h0c0,0,0,0,0,0
	c0,1.3,1.1,2.4,2.4,2.4s2.4-1.1,2.4-2.4c0,0,0,0,0,0h0L24,38.9L24,38.9z M52.7,38.9c-0.1-1.2-1.1-2.2-2.4-2.2c-1.3,0-2.3,1-2.4,2.2
	h0v3.4h0c0,0,0,0,0,0c0,1.3,1.1,2.4,2.4,2.4c1.3,0,2.4-1.1,2.4-2.4c0,0,0,0,0,0l0,0L52.7,38.9L52.7,38.9z"/>
</svg>
