<?xml version="1.0" encoding="iso-8859-1"?>
<!-- Generator: Adobe Illustrator 18.1.1, SVG Export Plug-In . SVG Version: 6.00 Build 0)  -->
<!DOCTYPE svg PUBLIC "-//W3C//DTD SVG 1.1//EN" "http://www.w3.org/Graphics/SVG/1.1/DTD/svg11.dtd">
<svg version="1.1" xmlns="http://www.w3.org/2000/svg" xmlns:xlink="http://www.w3.org/1999/xlink" x="0px" y="0px"
	 viewBox="0 0 72 72" enable-background="new 0 0 72 72" xml:space="preserve">
<g id="Layer_4">
	<path fill="#E5E4DF" d="M31.852,58.512l-0.998,0.998c-0.02,0.02-0.046,0.028-0.068,0.045c-0.022,0.026-0.036,0.059-0.061,0.084
		c-1.09,1.09-3.915,0.163-7.196-2.11c-0.001,0.084-0.032,0.168-0.096,0.232l-9.051,9.051c-0.011,0.011-0.028,0.007-0.04,0.016
		c-0.011,0.013-0.012,0.036-0.025,0.048c-0.811,0.811-3.537-0.599-6.088-3.15c-2.551-2.551-3.961-5.277-3.15-6.088
		c0.013-0.013,0.035-0.014,0.048-0.025c0.009-0.012,0.005-0.029,0.016-0.04l9.051-9.051c0.064-0.064,0.148-0.095,0.232-0.096
		c-2.273-3.281-3.2-6.106-2.11-7.195c0.024-0.024,0.058-0.038,0.084-0.061c0.017-0.022,0.025-0.048,0.045-0.068l0.998-0.998
		c0.257-0.257,0.675-0.257,0.932,0l1.022,1.022c2.444,0.839,5.816,3.146,9.05,6.381s5.543,6.606,6.381,9.051l1.022,1.022
		C32.109,57.838,32.109,58.255,31.852,58.512z"/>
</g>
<g id="Layer_1">
</g>
</svg>
