<svg xmlns="http://www.w3.org/2000/svg" viewBox="0 0 512 512" enable-background="new 0 0 512 512"><path fill="#D9DBD5" d="M261.87 427.053c-10.692 16.608-38.054-16.08-29.807-25.856 2.726-3.23 12.05-14.66 14.234-17.233 4.658 11.365 22.022 21.81 22.022 25.1 0 8.497-5.67 16.776-6.45 17.99zM20.987 151.948c-3.226 3.343-6.558 6.727-9.714 10.014h.005C6.416 166.038 3.32 172.15 3.32 178.99c0 11.61 8.915 21.127 20.27 22.11.594.065 1.24.1 1.94.1.74 0 1.495-.044 2.26-.115l.048-.006c10.048-.96 22.072-7.87 33.26-15.14-4.44-16.082-24.157-33.792-40.11-33.993zm155.028 270.095c-6.253 11.32-12.828 21.767-23.24 28.282 2.907 1.717 13.366 10.66 17.012 12.8 11.03 6.474 42.276-28.64 20.74-38.895-1.304-.62-13.177-1.977-14.512-2.187zm-88.253-46.83c-9.097 8.087-16.547 14.892-28.093 17.178 1.172 4.07 7.577 14.685 10.33 17.89 8.327 9.7 46.17-9.535 29.212-26.314-1.026-1.016-10.276-8.098-11.45-8.752zm227.488 67.775c-12.91-.773-26.937-2.75-37.298-9.345-.3 3.363-1.322 18.076-1.684 22.288-1.096 12.745 44.1 20.83 43.253 1.098-.06-1.44-3.884-12.743-4.27-14.04z"/></svg>