<?xml version="1.0" encoding="utf-8"?>
<!-- Generator: Adobe Illustrator 18.1.0, SVG Export Plug-In . SVG Version: 6.00 Build 0)  -->
<!DOCTYPE svg PUBLIC "-//W3C//DTD SVG 1.1//EN" "http://www.w3.org/Graphics/SVG/1.1/DTD/svg11.dtd">
<svg version="1.1" id="Layer_1" xmlns="http://www.w3.org/2000/svg" xmlns:xlink="http://www.w3.org/1999/xlink" x="0px" y="0px"
	 width="72px" height="72px" viewBox="0 0 72 72" enable-background="new 0 0 72 72" xml:space="preserve">
<path fill="#597B91" d="M54.4,34.1c-5.4-1.4-6-3.1-10-4.2c-2.4-0.6-4.9,0.8-5.5,3.2c-1.6,6.1,8.7,9.1,6.1,18.8
	c-1.3,5-4.1,5.8-5.6,11.7c-0.9,3.3,1.1,6.6,4.3,7.5c2.2,0.6,4.4-0.1,5.9-1.6c0.7-0.5,1.2-1.4,1.6-2.8c1.1-4,0.6-7.1,1.9-11.8
	c1.5-5.8,5-10.5,5.7-13.3C60.2,36.5,56.3,34.5,54.4,34.1z"/>
<ellipse transform="matrix(-0.9659 -0.2588 0.2588 -0.9659 78.4431 57.8525)" fill="#597B91" cx="43" cy="23.8" rx="2.6" ry="3.9"/>
<ellipse transform="matrix(-0.9659 -0.2588 0.2588 -0.9659 87.9174 63.1255)" fill="#597B91" cx="48.1" cy="25.8" rx="2.1" ry="3.1"/>
<ellipse transform="matrix(-0.9659 -0.2588 0.2588 -0.9659 95.7503 68.2143)" fill="#597B91" cx="52.4" cy="27.8" rx="1.8" ry="2.7"/>
<ellipse transform="matrix(-0.9659 -0.2588 0.2588 -0.9659 101.7928 72.9716)" fill="#597B91" cx="55.7" cy="29.8" rx="1.4" ry="2.2"/>
<ellipse transform="matrix(-0.9387 -0.3449 0.3449 -0.9387 102.4612 81.3533)" fill="#597B91" cx="58.5" cy="31.6" rx="1.3" ry="2"/>
<path fill="#597B91" d="M27,33c-2.6-9.7,7.7-12.7,6.1-18.8c-0.6-2.4-3.1-3.9-5.5-3.2c-3.9,1.1-4.6,2.7-10,4.2
	c-1.9,0.5-5.7,2.5-4.4,7.6c0.8,2.8,4.2,7.6,5.7,13.3c1.3,4.7,0.8,7.8,1.9,11.8c0.4,1.4,0.9,2.3,1.6,2.8c1.5,1.5,3.7,2.2,5.9,1.6
	c3.3-0.9,5.2-4.2,4.3-7.5C31.1,38.8,28.4,38,27,33z"/>
<ellipse transform="matrix(0.9659 -0.2588 0.2588 0.9659 -0.2661 7.6631)" fill="#597B91" cx="29" cy="4.8" rx="2.6" ry="3.9"/>
<ellipse transform="matrix(0.9659 -0.2588 0.2588 0.9659 -0.9603 6.4157)" fill="#597B91" cx="23.9" cy="6.9" rx="2.1" ry="3.1"/>
<ellipse transform="matrix(0.9659 -0.2588 0.2588 0.9659 -1.6303 5.3845)" fill="#597B91" cx="19.6" cy="8.9" rx="1.8" ry="2.7"/>
<ellipse transform="matrix(0.9659 -0.2588 0.2588 0.9659 -2.2566 4.589)" fill="#597B91" cx="16.3" cy="10.9" rx="1.4" ry="2.2"/>
<ellipse transform="matrix(0.9387 -0.3449 0.3449 0.9387 -3.5299 5.4427)" fill="#597B91" cx="13.5" cy="12.6" rx="1.3" ry="2"/>
</svg>
