<svg xmlns="http://www.w3.org/2000/svg" viewBox="0 0 512 512" enable-background="new 0 0 512 512"><path fill="#FFA9BA" d="M248.032 294.946l.623-.337c.408-.218 1.03-.578 1.797-.94.78-.394 1.73-.85 2.82-1.323 1.11-.52 2.34-1.008 3.718-1.558 2.76-1.104 6.002-2.188 9.642-3.238 3.633-1.034 7.616-1.923 11.833-2.585 8.436-1.33 17.76-1.64 27.118-.456 9.384 1.123 18.782 3.784 27.65 7.72 4.43 1.97 8.75 4.213 12.87 6.735 4.132 2.496 8.045 5.318 11.733 8.286 7.362 5.97 13.7 12.82 18.736 19.643 2.516 3.417 4.73 6.77 6.574 10.024.925 1.622 1.805 3.103 2.55 4.637.77 1.48 1.468 2.857 2.057 4.2l.853 1.864.715 1.734c.454 1.057.806 2.035 1.095 2.817.297.763.487 1.44.632 1.856l.212.65c2.01 6.17-.868 12.757-6.498 15.58l-.61.305c-.396.19-1.01.533-1.762.858-.76.344-1.702.783-2.77 1.205-.54.22-1.12.46-1.736.713-.604.22-1.246.457-1.925.705-1.37.528-2.84 1-4.43 1.496-1.616.55-3.288.966-5.09 1.45-3.61.98-7.55 1.767-11.75 2.384-8.39 1.22-17.72 1.54-27.14.51-4.704-.532-9.462-1.327-14.143-2.505-4.69-1.153-9.323-2.645-13.842-4.407-9.037-3.53-17.54-8.334-24.94-14.212-7.428-5.815-13.77-12.657-18.76-19.588-2.497-3.462-4.668-6.917-6.49-10.226-1.815-3.326-3.327-6.393-4.485-9.13-.58-1.365-1.1-2.583-1.51-3.737-.432-1.107-.776-2.104-1.045-2.935-.282-.8-.464-1.495-.598-1.937-.13-.45-.2-.68-.2-.68-1.81-6.187 1.046-12.63 6.495-15.58zM130.657 115.75l-.054.64c-.03.418-.104 1.065-.126 1.837-.043.793-.077 1.75-.073 2.833-.028 1.114.014 2.32.06 3.674.09 2.71.37 5.824.825 9.266.464 3.43 1.18 7.11 2.17 10.916 1.976 7.615 5.13 15.65 9.544 23.225 4.37 7.62 10.033 14.745 16.567 21 3.27 3.126 6.72 6.067 10.336 8.747 3.597 2.697 7.386 5.102 11.214 7.268 7.68 4.308 15.723 7.456 23.263 9.507 3.774 1.022 7.386 1.806 10.778 2.31 1.695.256 3.255.52 4.808.652 1.517.17 2.923.312 4.26.373.66.04 1.282.08 1.87.115l1.71.04c1.047.038 1.992.017 2.752.007.745.002 1.38-.058 1.78-.07l.62-.035c5.652-.32 10.33-4.852 10.635-10.634 0 0 .01-.21.033-.62.013-.4.074-1.035.07-1.782.01-.76.033-1.705-.006-2.753l-.04-1.71-.115-1.87c-.06-1.337-.204-2.742-.373-4.26-.132-1.553-.396-3.112-.65-4.805-.505-3.393-1.29-7.004-2.31-10.78-2.052-7.54-5.2-15.58-9.508-23.26-2.166-3.83-4.57-7.618-7.268-11.215-2.68-3.614-5.62-7.067-8.747-10.335-6.253-6.533-13.38-12.195-20.996-16.567-7.575-4.414-15.61-7.568-23.225-9.544-3.806-.99-7.486-1.708-10.917-2.174-3.442-.455-6.557-.736-9.266-.825-1.353-.045-2.56-.087-3.674-.06-1.083-.003-2.04.03-2.833.074-.772.022-1.42.095-1.838.126l-.64.055c-5.566.462-10.152 4.883-10.635 10.634z"/></svg>