<?xml version="1.0" encoding="iso-8859-1"?>
<!-- Generator: Adobe Illustrator 18.1.1, SVG Export Plug-In . SVG Version: 6.00 Build 0)  -->
<!DOCTYPE svg PUBLIC "-//W3C//DTD SVG 1.1//EN" "http://www.w3.org/Graphics/SVG/1.1/DTD/svg11.dtd">
<svg version="1.1" xmlns="http://www.w3.org/2000/svg" xmlns:xlink="http://www.w3.org/1999/xlink" x="0px" y="0px"
	 viewBox="0 0 512 512" enable-background="new 0 0 512 512" xml:space="preserve">
<g id="Layer_10">
	<path fill="#90B776" d="M269.854,192.852v9.644c2.47-1.131,4.964-1.697,7.484-1.697c2.88,0,5.465,0.682,7.754,2.044
		c2.288,1.363,4.089,3.344,5.4,5.941c1.312,2.598,1.968,5.671,1.968,9.22c0,3.704-0.875,6.982-2.623,9.837
		c-1.749,2.854-4.231,5.067-7.445,6.635c-3.216,1.568-6.957,2.353-11.227,2.353c-7.458,0-13.451-2.751-17.977-8.255l7.639-7.021
		c2.674,3.395,5.914,5.092,9.721,5.092c2.52,0,4.462-0.733,5.825-2.199c1.362-1.466,2.045-3.561,2.045-6.288
		c0-5.4-2.237-8.101-6.713-8.101c-0.978,0-1.929,0.142-2.854,0.424c-0.926,0.283-1.955,0.76-3.086,1.427h-9.104V183.13h33.177
		l-1.466,9.722H269.854z"/>
</g>
<g id="Layer_1">
</g>
</svg>
