<svg xmlns="http://www.w3.org/2000/svg" viewBox="0 0 512 512" enable-background="new 0 0 512 512"><path fill="#FFB636" d="M299.457 67.097l.548.13c.356.088.916.205 1.563.396.67.18 1.476.412 2.373.71.935.28 1.923.642 3.03 1.047 2.22.808 4.72 1.884 7.435 3.19 2.702 1.312 5.535 2.896 8.386 4.737 5.71 3.68 11.4 8.438 16.32 14.1 4.97 5.638 9.134 12.196 12.305 19.23 1.584 3.516 2.957 7.134 4.064 10.813 1.126 3.67 1.95 7.416 2.565 11.13 1.202 7.44 1.33 14.862.7 21.575-.318 3.36-.783 6.52-1.412 9.427-.31 1.452-.574 2.797-.945 4.1-.33 1.286-.644 2.472-1.007 3.58l-.48 1.558-.497 1.407c-.292.866-.602 1.632-.845 2.25-.228.61-.474 1.112-.61 1.435l-.218.497c-2.078 4.722-7.276 7.104-12.11 5.793l-.523-.142c-.336-.097-.882-.22-1.5-.425-.634-.198-1.424-.437-2.282-.753l-1.407-.497-1.515-.602c-1.09-.413-2.213-.912-3.42-1.46-1.248-.53-2.46-1.17-3.786-1.838-2.66-1.333-5.413-2.954-8.23-4.813-5.62-3.722-11.32-8.476-16.362-14.08-2.507-2.807-4.908-5.8-7.06-8.98-2.17-3.168-4.126-6.508-5.872-9.947-3.488-6.88-5.984-14.237-7.258-21.644-1.322-7.382-1.456-14.8-.743-21.554.354-3.376.897-6.575 1.57-9.503.687-2.934 1.416-5.554 2.18-7.79.38-1.116.717-2.113 1.085-3.015.33-.886.655-1.66.936-2.294.257-.624.517-1.133.672-1.466l.243-.51c2.208-4.625 7.316-6.933 12.11-5.793zM93.23 377.297s.14.13.41.385c.27.25.677.65 1.194 1.085.52.46 1.16 1.003 1.902 1.587.75.624 1.596 1.248 2.545 1.95 1.9 1.404 4.177 2.893 6.765 4.436 2.586 1.53 5.47 3.016 8.58 4.377 6.22 2.727 13.33 4.847 20.766 5.825 7.445 1.03 15.21.882 22.826-.356 3.807-.62 7.582-1.473 11.26-2.58 3.68-1.087 7.26-2.468 10.697-4.006 6.868-3.106 13.126-7.097 18.377-11.326 2.624-2.12 5.003-4.253 7.08-6.383 1.038-1.06 2.014-2.02 2.897-3.05.89-.983 1.705-1.9 2.43-2.816l1.03-1.26c.32-.425.62-.822.9-1.19.562-.723 1.03-1.404 1.41-1.948.383-.527.665-1.01.86-1.3.195-.3.295-.457.295-.457 2.714-4.21 2.02-9.885-1.852-13.296 0 0-.14-.122-.407-.36-.267-.225-.67-.612-1.183-1.014-.515-.42-1.15-.947-1.888-1.488l-1.19-.9c-.42-.29-.867-.602-1.34-.93-.946-.682-1.98-1.342-3.105-2.045-1.13-.748-2.333-1.407-3.622-2.143-2.58-1.48-5.45-2.882-8.555-4.204-6.207-2.633-13.318-4.76-20.773-5.87-3.726-.54-7.546-.89-11.384-.93-3.84-.06-7.705.153-11.537.596-7.663.89-15.175 2.87-22.053 5.897-6.886 2.973-13.145 6.957-18.383 11.28-2.62 2.16-4.987 4.378-7.056 6.556-2.067 2.19-3.85 4.243-5.292 6.114-.722.934-1.366 1.766-1.916 2.57-.555.765-1.02 1.462-1.395 2.047-.376.56-.657 1.057-.85 1.37-.19.32-.29.483-.29.483-2.54 4.22-1.89 9.787 1.85 13.293z"/></svg>