<?xml version="1.0" encoding="utf-8"?>
<!-- Generator: Adobe Illustrator 18.1.0, SVG Export Plug-In . SVG Version: 6.00 Build 0)  -->
<!DOCTYPE svg PUBLIC "-//W3C//DTD SVG 1.0//EN" "http://www.w3.org/TR/2001/REC-SVG-20010904/DTD/svg10.dtd">
<svg version="1.0" id="Layer_1" xmlns="http://www.w3.org/2000/svg" xmlns:xlink="http://www.w3.org/1999/xlink" x="0px" y="0px"
	 width="72px" height="72px" viewBox="0 0 72 72" enable-background="new 0 0 72 72" xml:space="preserve">
<path fill="#FFD3B6" d="M69.1,31.2H63c-0.7-1.5-1.8-2.9-3.2-3.8c0,0,0,0,0,0c-0.1-0.1-0.4-0.3-0.8-0.5c0,0-0.1,0-0.1-0.1
	c-3.3-1.7-14-6-20.8-13.8c-1.6-1.6-4.1-2-5.5-0.4c-1.4,1.6-3.4,5.1,3.6,12.3c1.3,1.4,1.8,2.2,2.9,3.2H4c-2.2,0-4.1,1.8-4.1,4
	c0,2.3,1.8,4.1,4.1,4.1h18.3c-0.1,0.3-0.3,0.6-0.6,0.9c-0.1,0.1-0.1,0.1-0.1,0.2c-0.6,0.7-1,1.6-1,2.7c0,1.1,0.5,2.2,1.2,2.9
	c0.7,0.8,0.8,1.6-0.1,2.4c-0.1,0.1-0.1,0.1-0.1,0.2c-0.6,0.7-1,1.6-1,2.7c0,1.1,0.4,2.1,1.1,2.8c0,0,0,0,0,0c0,0,0,0,0,0
	c0,0,0,0,0,0c0.8,0.8,0.7,1.6,0,2.4c-0.1,0.1-0.1,0.1-0.1,0.2c-0.6,0.7-1,1.6-1,2.7c0,2.3,1.8,4.1,4.1,4.1h0.4h24.6h1.5
	c4,0,7.5-1.8,9.8-4.6h8.1c1.6,0,2.9-1.3,2.9-2.9V34.2C72,32.6,70.7,31.2,69.1,31.2z"/>
</svg>
