<?xml version="1.0" encoding="utf-8"?>
<!-- Generator: Adobe Illustrator 18.1.0, SVG Export Plug-In . SVG Version: 6.00 Build 0)  -->
<!DOCTYPE svg PUBLIC "-//W3C//DTD SVG 1.0//EN" "http://www.w3.org/TR/2001/REC-SVG-20010904/DTD/svg10.dtd">
<svg version="1.0" id="Layer_1" xmlns="http://www.w3.org/2000/svg" xmlns:xlink="http://www.w3.org/1999/xlink" x="0px" y="0px"
	 width="72px" height="72px" viewBox="0 0 72 72" enable-background="new 0 0 72 72" xml:space="preserve">
<path fill="#00D1AE" d="M47.6,31.7c0,0,1.9-8.6,3.9-14.5c0.1-0.4,0.2-0.7,0.2-1c0.1-0.7,0.2-1.4,0.2-2.2c0-2.8-3.3-6.7-5.5-6.7
	c-2.7,0-6.1,2.3-8.6,4.4c-0.5,0.4-1.1,0.4-1.6,0c-2.4-2.1-5.6-4.4-8.6-4.4c-2.2,0-5.5,3.9-5.5,6.7c0,1.9,0.3,3.4,0.9,4.6
	c1.8,5.6,3.2,12.7,3.3,13.1c0,0,0,0,0,0c-3.5,3.6-12.6,34.7-12.6,34.7s2.5,3.3,12.4,4.9l0.1-0.9l2.1,0.3l-0.1,0.9
	c2.5,0.3,5.4,0.5,8.8,0.5c3.4,0,6.3-0.2,8.8-0.5l-0.1-0.9l2.1-0.3l0.1,0.9c10-1.5,12.4-4.9,12.4-4.9C60.3,66.4,50.9,35,47.6,31.7z"
	/>
</svg>
