<svg xmlns="http://www.w3.org/2000/svg" viewBox="0 0 512 512" enable-background="new 0 0 512 512"><path fill="#D19B61" d="M202.873 256.89c-28.77 48.886-33.902 42.986-76.24 53.953-42.338 10.967-59.615-8.386-57.4 18.256 2.298 24.027 4.62 30.672 19.292 46.8 20.944 23.022-17.926 48.626-30.447 12.537s-8.11-64.733-8.11-64.733l.016.005c-2.483-25.004 15.88-32.86 40.787-39.313 27.83-7.21 37.674-23.24 32-45.143 0 0 108.874-31.253 80.104 17.634zm143.834-13.85c20.458 15.24 36.064 19.007-6.512 29.61-25.46 6.34-35.786 34.948-27.62 58.775l-.672-.34c.344.426.662.828.992 1.242 2.39 6.56 6.2 12.725 11.5 17.926 1.937 7.942-8.208 8.625-32.57 8.625-22.16 0-35.37 12.254-42.408 22.09-4.932 5.304-10.455 12.232-15.798 21.023-10.798 17.765 33.903 36.085 33.846 9.865-.044-20.273 10.872-32.432 25.502-34.714l-.238-.09c3.973-.783 8.597-1.252 14.03-1.252 36.37 0 49.327-10.755 49.974-21.197.714-1.677-1.058-4.467-7.04-8.923-24.174-18.006 8.152-16.274 47.7-45.732 39.547-29.458 49.03-27.093 49.03-81.125 0-54.034-99.72 24.22-99.72 24.22z"/></svg>