<?xml version="1.0" encoding="iso-8859-1"?>
<!-- Generator: Adobe Illustrator 18.1.1, SVG Export Plug-In . SVG Version: 6.00 Build 0)  -->
<!DOCTYPE svg PUBLIC "-//W3C//DTD SVG 1.1//EN" "http://www.w3.org/Graphics/SVG/1.1/DTD/svg11.dtd">
<svg version="1.1" xmlns="http://www.w3.org/2000/svg" xmlns:xlink="http://www.w3.org/1999/xlink" x="0px" y="0px"
	 viewBox="0 0 512 512" enable-background="new 0 0 512 512" xml:space="preserve">
<g id="Layer_2">
	<path fill="#2B3B47" d="M415.424,406.307h19.833c1.816,0,3.288,1.472,3.288,3.288v17.938c0,1.816-1.472,3.288-3.288,3.288h-32.705
		c-1.816,0-3.288,1.472-3.288,3.288v14.394c0,1.816,1.472,3.288,3.288,3.288h32.705c1.816,0,3.288,1.472,3.288,3.288v17.643
		c0,1.816-1.472,3.288-3.288,3.288h-32.705c-1.816,0-3.288,1.472-3.288,3.288v27.684c0,1.816-1.472,3.288-3.288,3.288h-40.384
		c-1.816,0-3.288-1.472-3.288-3.288v-27.684c0-1.816-1.472-3.288-3.288-3.288h-32.409c-1.816,0-3.288-1.472-3.288-3.288v-17.643
		c0-1.816,1.472-3.288,3.288-3.288h32.409c1.816,0,3.288-1.472,3.288-3.288v-14.394c0-1.816-1.472-3.288-3.288-3.288h-32.409
		c-1.816,0-3.288-1.472-3.288-3.288v-17.938c0-1.816,1.472-3.288,3.288-3.288h19.227c2.496,0,4.082-2.673,2.885-4.864
		l-46.961-85.963c-1.197-2.191,0.389-4.864,2.885-4.864h42.536c1.295,0,2.47,0.761,3,1.942l33.318,74.305
		c1.165,2.598,4.858,2.587,6.008-0.018l32.773-74.269c0.526-1.192,1.705-1.96,3.008-1.96h41.062c2.493,0,4.079,2.666,2.889,4.857
		l-46.703,85.977C411.345,403.641,412.931,406.307,415.424,406.307z"/>
</g>
<g id="Layer_3">
	<path fill="#2B3B47" d="M160.145,36.22c15.248,3.088,27.757,9.34,38.494,18.341c3.043,2.551,3.403,7.144,0.831,10.169
		l-13.103,15.406c-2.437,2.865-6.663,3.349-9.709,1.144c-11.794-8.538-24.017-12.61-38.053-12.61
		c-16.123,0-26.274,6.867-26.274,19.109c0,12.539,7.464,17.615,38.218,27.17c37.62,11.944,59.118,27.768,59.118,64.194
		c0,28.886-18.267,51.059-49.958,59.38c-3.127,0.821-5.279,3.692-5.279,6.925v25.325c0,3.974-3.221,7.195-7.195,7.195h-19.946
		c-3.974,0-7.195-3.221-7.195-7.195v-22.771c0-3.577-2.625-6.649-6.172-7.114c-22.509-2.955-40.002-11.482-53.109-22.424
		c-3.122-2.606-5.71-4.764-2.973-7.771l17.909-19.678c3.944-4.334,5.849-2.176,8.801,0.107
		c12.825,9.918,27.386,15.491,44.502,15.491c19.407,0,31.052-8.957,31.052-23.887c0-14.331-7.167-20.9-35.83-29.857
		c-44.786-13.735-60.611-32.246-60.611-61.507c0-28.725,20.453-48.949,50.835-55.414c3.282-0.698,5.596,0.111,5.596-3.244
		c0-7.235,0-21.135,0-29.553c0-3.974,3.221-3.152,7.195-3.152h19.946c3.974,0,7.195,3.221,7.195,7.195v22.005
		C154.428,32.598,156.813,35.545,160.145,36.22z"/>
</g>
<g id="Layer_4">
	<path fill="#2B3B47" d="M440.003,108.485l-31.63,31.63l-83.831-83.831c-5.287-5.287-13.859-5.287-19.146,0L290.549,71.13
		c-5.287,5.287-5.287,13.859,0,19.146l83.832,83.831l-31.63,31.63c-7.247,7.247-2.114,19.638,8.134,19.638h97.252
		c6.353,0,11.504-5.15,11.504-11.504v-97.252C459.641,106.371,447.25,101.238,440.003,108.485z"/>
</g>
<g id="Layer_5">
	<path fill="#2B3B47" d="M221.451,470.462l-83.831-83.832l31.63-31.63c7.247-7.247,2.114-19.638-8.134-19.638H63.863
		c-6.353,0-11.504,5.15-11.504,11.504v97.252c0,10.249,12.391,15.381,19.638,8.134l31.63-31.63l83.832,83.831
		c5.287,5.287,13.859,5.287,19.146,0l14.847-14.847C226.737,484.321,226.737,475.749,221.451,470.462z"/>
</g>
</svg>
