<svg xmlns="http://www.w3.org/2000/svg" viewBox="0 0 512 512" enable-background="new 0 0 512 512"><path fill="#2B3B47" d="M3.994 224.875H16.07c4.906 0 7.526 3.72 4.292 6.093l-5.633 4.135C3.775 242.15-.916 224.875 3.99 224.875zm32.754-1.01V211.45c1.014 1.978 3.07 3.335 5.446 3.335 3.38 0 6.122-2.74 6.122-6.122v-8.847c0-1.945-.91-3.674-2.323-4.795 1.478-.06 3.122-.073 4.943-.073.656 0 1.188-.532 1.188-1.188s-.532-1.19-1.188-1.19c-8.52 0-16.564 0-16.564 8.808v23.23c.786-.24 1.58-.488 2.376-.742zm117.892-47.17c.194-3.504.49-6.787.808-9.796l.552-4.28c.227-1.338.42-2.614.636-3.79.157-.735.3-1.43.44-2.1-3.114-.96-6.06-1.92-9.79-2.768-.166 1.055-.312 2.165-.483 3.357-.156 1.33-.276 2.73-.426 4.212l-.292 4.628c-.13 3.213-.212 6.676-.175 10.317.03 3.642.128 7.47.336 11.412.18 3.943.473 8.004.8 12.123.35 4.117.748 8.29 1.22 12.452 1.857 16.652 4.638 33.154 7.51 45.395.707 3.06 1.447 5.854 2.134 8.32.72 2.464 1.403 4.6 2.058 6.34.646 1.746 1.276 3.097 1.746 4.01l.822 1.39c.27.454.854.632 1.335.39.506-.253.708-.865.455-1.368l-.068-.135-.62-1.23c-.363-.845-.864-2.124-1.372-3.83-.515-1.703-1.04-3.818-1.587-6.26-.514-2.457-1.06-5.236-1.557-8.294-2.037-12.218-3.72-28.724-4.473-45.23-.195-4.125-.318-8.25-.397-12.308-.057-4.057-.083-8.046-.007-11.896.047-3.85.196-7.56.396-11.064zm41.99 11.24c.34-3.37.74-6.672 1.214-9.843.457-3.175 1.008-6.21 1.573-9.067.497-2.337 1.004-4.545 1.548-6.592-3.564-.095-6.802-.224-9.78-.378-.323 1.728-.622 3.518-.907 5.377-.428 3.07-.825 6.3-1.113 9.637-.307 3.335-.524 6.78-.68 10.274-.16 3.495-.237 7.042-.26 10.585-.082 14.172.89 28.276 2.36 38.825.37 2.638.762 5.054 1.177 7.197.418 2.143.83 4.01 1.26 5.557.207.77.395 1.46.61 2.07.207.606.344 1.11.537 1.54.346.85.532 1.3.532 1.3.44 1.06 1.634 1.618 2.734 1.24 1.145-.39 1.756-1.635 1.365-2.78l-.073-.216-.36-1.047c-.13-.324-.23-.805-.377-1.33-.152-.524-.29-1.16-.436-1.877-.31-1.42-.6-3.203-.88-5.262-.28-2.06-.524-4.41-.74-6.983-.843-10.3-1.01-24.198-.144-37.978.22-3.446.49-6.884.837-10.252zm40.186-22.238c-.244 1.358-.526 2.786-.758 4.27-.443 2.967-.854 6.17-1.113 9.54-.302 3.372-.46 6.912-.593 10.565-.09 3.65-.146 7.415-.097 11.228.023 3.815.147 7.678.285 11.537.617 15.43 2.024 30.738 3.19 42.19l1.98 19.058.003.018c.056.528.512.93 1.05.914.566-.018 1.01-.492.99-1.057l-.625-19.157c-.35-11.475-.662-26.778-.19-41.995.134-3.802.28-7.6.524-11.323.217-3.727.53-7.376.868-10.894.38-3.506.77-6.89 1.284-10.05.472-3.175 1.068-6.118 1.664-8.8.308-1.337.653-2.59.955-3.793.364-1.166.677-2.29 1.02-3.31.374-.995.683-1.958 1.032-2.79.05-.11.095-.217.143-.325-3.33.275-6.92.505-10.807.684-.27 1.11-.52 2.27-.802 3.494zm40.892-8.693c.36 2.764.66 5.79 1.007 8.985.255 3.214.604 6.594.822 10.122.24 3.523.487 7.166.662 10.883.21 3.71.36 7.49.514 11.272.6 15.126.87 30.312 1.236 41.716l.28 7.787.3 6.015.386 5.256c.057.747.682 1.336 1.44 1.33.792-.008 1.428-.654 1.42-1.446v-.057l-.043-5.17.09-5.96.227-7.75c.375-11.364 1.092-26.535 1.476-41.766.09-3.81.187-7.616.217-11.375.067-3.755.057-7.46.046-11.047.01-3.586-.12-7.07-.17-10.367-.143-3.31-.25-6.435-.437-9.337-.05-.667-.1-1.317-.15-1.957-2.922.91-5.968 1.824-9.35 2.698l.023.168zm40.076-1.46c.27 3.217.633 6.598.866 10.126.255 3.524.52 7.168.71 10.885.227 3.71.392 7.493.565 11.274.667 15.13 1.003 30.32 1.417 41.716l.312 7.782.326 6.004c.12 1.667.234 2.978.26 3.872.042.894.03 1.373.03 1.373 0 .044 0 .095.006.14.064.565.572.97 1.136.906.564-.064.97-.572.905-1.136l-.004-.035s-.053-.47-.088-1.352c-.042-.883-.06-2.178-.053-3.83.032-1.655.07-3.665.116-5.97l.26-7.753c.425-11.37 1.207-26.537 1.658-41.765.106-3.808.22-7.616.266-11.373.084-3.755.09-7.46.094-11.046.027-3.585-.088-7.067-.122-10.365-.117-3-.208-5.843-.353-8.51-3.376.165-6.445.41-9.27.714.336 2.59.63 5.387.966 8.337zm39.044-6.807c.287 3.64.653 7.472.89 11.464l.403 6.075.346 6.235c.245 4.194.42 8.466.616 12.737.74 17.09 1.174 34.227 1.624 47.09.215 6.432.454 11.802.66 15.564.1 1.88.232 3.37.298 4.38l.113 1.55c.056.75.687 1.34 1.45 1.33.79-.012 1.422-.663 1.41-1.454v-.05l-.022-1.528c-.006-.998-.05-2.45-.044-4.317.01-3.733.08-9.074.235-15.495.29-12.842.845-29.98 1.088-47.163.05-4.295.12-8.59.117-12.827l.015-6.295c-.017-2.08-.036-4.133-.054-6.153-.003-3.03-.09-5.994-.16-8.854-2.92-1.02-5.925-1.887-9.005-2.592.01.104.02.205.028.31zm25.864 10.42c1.046 2.7 2.032 5.552 3.003 8.5 1.218 3.853 2.357 7.888 3.39 12.032 1.004 4.15 1.944 8.4 2.744 12.685 3.23 17.152 4.715 34.714 5.45 47.892.365 6.593.57 12.1.68 15.956l.165 6.063v.024c.034 1.167.98 2.11 2.157 2.133 1.213.022 2.214-.944 2.236-2.157l.11-6.1c.06-3.884.105-9.434.034-16.102-.145-13.33-.836-31.164-3.363-48.944-.624-4.444-1.396-8.876-2.245-13.232-.88-4.35-1.878-8.618-2.977-12.728-.31-1.106-.624-2.2-.94-3.28-1.723-.572-3.413-1.08-5.056-1.517-1.862-.492-3.656-.894-5.393-1.23zm52.824 32.59c-2.92 2.485-5.666 4.943-7.79 6.888-2.547 2.327-4.202 3.942-4.202 3.942-.336.328-.413.857-.154 1.273.298.48.93.626 1.41.328 0 0 1.925-1.196 4.885-2.904 2.494-1.442 5.713-3.255 9.07-5.033-1.03-1.55-2.108-3.04-3.22-4.49zm.902 24.788l-1.645.17c-1.03.124-2.496.318-4.236.57l-5.957.87c.707 1.505 1.355 3.055 1.94 4.65l4.96-1.995c1.618-.65 2.963-1.17 3.904-1.52l1.468-.522.063-.022c.483-.17.805-.656.75-1.188-.063-.624-.622-1.078-1.247-1.013zm9.483 37.038l-.04.002-1.57.09c-1.006.042-2.445.085-4.176.104-2.793.02-6.345-.038-10.025-.188l-.167 1.828-.288 3.34-.075 1.06c4.072-.79 8-1.667 11.02-2.424 1.72-.436 3.15-.827 4.148-1.114l1.568-.475c.492-.15.837-.62.807-1.154-.035-.627-.573-1.107-1.2-1.07zm-2.336 28.473l-5.11.335c-2.54.174-5.778.38-9.106.52.03.438.048.874.082 1.31.124 1.636.29 3.27.472 4.9 3.45-1.11 6.747-2.26 9.288-3.153l4.81-1.685.02-.005c.47-.165.794-.63.76-1.153-.042-.63-.586-1.106-1.216-1.064zm12.873 47.152c2.26-2.21 4.45-4.457 6.366-6.468-.91-.94-1.778-1.98-2.606-3.104-2.276 1.532-4.86 3.23-7.478 4.86-1.914 1.2-3.845 2.353-5.657 3.392-1.043.598-2.04 1.142-2.98 1.637 1.61 2.18 3.396 4.25 5.37 6.166.656-.564 1.326-1.153 2.006-1.77 1.63-1.484 3.327-3.08 4.98-4.71zm14.18 10.43c-.534-3.408-.966-5.68-.966-5.68-.09-.46-.487-.817-.976-.83-.565-.016-1.036.43-1.052.993 0 0-.064 2.27-.275 5.68-.104 1.714-.24 3.71-.412 5.85 1.538.357 3.1.592 4.666.713-.333-2.474-.68-4.785-.983-6.72zm18.725-4.94c-2.554-2.32-4.316-3.817-4.316-3.817-.358-.3-.892-.33-1.282-.032-.45.342-.536.984-.194 1.433 0 0 1.37 1.806 3.348 4.594.982 1.382 2.115 3.002 3.306 4.748.83-.54 1.622-1.103 2.36-1.695.444-.35.87-.705 1.284-1.066-1.636-1.54-3.18-2.96-4.504-4.16zm17.01-18.69c-1.296-1.21-2.52-2.334-3.595-3.308-2.555-2.32-4.317-3.816-4.317-3.816-.358-.304-.892-.33-1.282-.035-.45.34-.537.98-.195 1.43 0 0 1.37 1.806 3.35 4.594 1.32 1.86 2.92 4.156 4.56 6.608.637-1.948 1.106-3.783 1.48-5.475zm-54.576-16.795c-2.364 2.043-4.558 4.013-6.322 5.628-2.546 2.33-4.2 3.945-4.2 3.945-.337.328-.414.857-.155 1.273.297.48.93.627 1.41.328 0 0 1.924-1.196 4.884-2.904 1.623-.937 3.558-2.035 5.632-3.176-.475-1.655-.887-3.355-1.25-5.09zm-.008-66.762c-.117-1.025-.243-2.052-.396-3.075-.175-1.153-.375-2.3-.595-3.442-.34.28-.68.553-1.017.836-3.565 2.97-7 6.036-9.547 8.37-2.545 2.325-4.2 3.94-4.2 3.94-.336.33-.413.857-.154 1.273.3.48.93.627 1.41.328 0 0 1.924-1.195 4.884-2.903 2.63-1.522 6.064-3.454 9.616-5.323zm-35.777 73.946c-.037-.17-.062-.35-.097-.522-3.895 2.033-7.67 4.154-10.492 5.842-1.47.886-2.684 1.65-3.53 2.194l-1.317.88c-.414.274-.602.806-.424 1.293.21.57.84.865 1.412.656l.036-.015 1.43-.524c.92-.32 2.24-.763 3.84-1.266 3.122-.973 7.306-2.15 11.525-3.195-.803-1.794-1.6-3.58-2.38-5.345zm10.533 54.21c.282-.393.28-.94-.04-1.335-.382-.475-1.078-.55-1.553-.166l-3.857 3.112c-2.3 1.864-5.37 4.33-8.473 6.672-1.557 1.16-3.113 2.307-4.587 3.3-1.132.785-2.21 1.466-3.178 2.052-.058 1.514-.12 2.99-.196 4.4-.13 2.92-.3 5.59-.57 7.975.515-.188 1.016-.433 1.47-.787l1.076-.835c.387-.305.967-.785 1.553-1.282.572-.5 1.06-1.005 1.667-1.59 1.122-1.16 2.37-2.516 3.6-3.993 1.25-1.47 2.494-3.062 3.728-4.654 2.443-3.193 4.757-6.423 6.48-8.842l2.866-4.01.01-.016zM412.47 336.81c.306-.392.318-.956-.005-1.363-.378-.477-1.07-.557-1.548-.18l-.03.025-1.194.947c-.77.592-1.885 1.43-3.244 2.41-2.727 1.95-6.44 4.46-10.216 6.826-1.892 1.173-3.786 2.334-5.58 3.354-1.114.65-2.178 1.23-3.174 1.76l2.114 1.84 4.596 4.048c.427-.394.858-.797 1.293-1.213 1.585-1.492 3.21-3.123 4.823-4.758 3.206-3.287 6.286-6.66 8.53-9.258 1.118-1.305 2.03-2.41 2.66-3.194l.975-1.248zm-41.768-3.415c1.25-1.773 2.522-3.673 3.783-5.573l6.768-10.445c.92-1.416 1.694-2.575 2.242-3.378l.87-1.23.04-.054c.286-.405.27-.967-.07-1.358-.4-.46-1.094-.507-1.552-.108l-1.206 1.05c-.746.674-1.797 1.643-3.033 2.812l-9.004 8.532c-1.642 1.52-3.285 3.034-4.84 4.394-.63.557-1.237 1.08-1.828 1.578l6.588 5.52c.412-.566.827-1.144 1.244-1.743zm-41.13-1.976c2.35.64 4.675 1.33 6.822 2.01 1.077.332 2.09.693 3.06 1.013.604.223 1.177.432 1.73.637.347-1.775.683-3.55 1.037-5.326.24-1.217.5-2.434.744-3.65-.508-.07-1.03-.137-1.568-.21-1.093-.112-2.247-.255-3.43-.355-2.366-.21-4.872-.39-7.37-.515-4.995-.263-9.96-.353-13.683-.374-3.72-.023-6.21.04-6.21.04-.507.015-.956.378-1.055.896-.115.598.276 1.176.874 1.292 0 0 2.4.464 5.993 1.28 3.59.814 8.364 1.958 13.06 3.258zm6.07 20.922c-4.994-.262-9.958-.352-13.682-.373-3.72-.026-6.212.04-6.212.04-.506.012-.955.375-1.054.893-.115.6.276 1.177.874 1.293 0 0 2.4.465 5.993 1.282 3.59.812 8.365 1.957 13.06 3.256.715.195 1.425.395 2.13.598.066-.265.14-.526.2-.793.17-.767.327-1.54.47-2.32.077-.388.138-.78.2-1.17l.05-.295.043-.346.082-.707.038-.354.018-.175.018-.09.067-.366.034-.184.01-.052c-.78-.048-1.555-.1-2.336-.14zm-6.645 25.382c-1.044-.11-2.137-.242-3.26-.336-2.367-.21-4.873-.39-7.37-.514-4.996-.263-9.96-.353-13.684-.374-2.84-.02-4.96.013-5.806.03-.136.743-.273 1.486-.416 2.227.584.114 2.764.55 5.826 1.25 3.59.81 8.364 1.956 13.06 3.255 2.35.64 4.673 1.33 6.82 2.01.49.153.966.31 1.433.468.4-.954.796-1.91 1.193-2.865.614-1.484 1.26-2.96 1.893-4.438.1-.238.21-.476.312-.715zm-5.144-76.44l-.184.054-.525.15c-.34.1-.814.254-1.527.39-.688.153-1.523.332-2.516.494-.977.183-2.095.36-3.32.542-2.442.376-5.318.747-8.396 1.13-3.084.368-6.377.74-9.674 1.078-2.905.3-5.805.58-8.57.83l.495 1.816 1.566 5.746c2.5-.645 5.095-1.328 7.69-2.03 3.232-.87 6.456-1.772 9.473-2.64 3.015-.88 5.824-1.715 8.226-2.494 1.2-.382 2.3-.745 3.274-1.094.97-.325 1.824-.656 2.524-.936.69-.25 1.267-.538 1.652-.725l.587-.286c.465-.227.716-.763.57-1.28-.17-.577-.773-.91-1.35-.744zM212.06 378.35c-1.31-.38-2.607-.776-3.903-1.098-1.292-.335-2.563-.646-3.806-.904-2.47-.548-4.806-.922-6.81-1.192-1.014-.105-1.926-.237-2.754-.288-.828-.05-1.537-.12-2.134-.13l-1.87-.03c-.51-.008-.97.342-1.086.86-.132.59.24 1.177.832 1.31l.075.016 1.708.38c.54.123 1.197.327 1.944.53.748.2 1.586.505 2.495.792 1.814.638 3.91 1.432 6.102 2.416 1.1.475 2.22 1.008 3.347 1.563 1.13.542 2.25 1.156 3.37 1.746.35.2.697.398 1.046.594.556-2.086 1.13-4.246 1.716-6.478l-.266-.085zm4.617-21.465c-1.31-.38-2.607-.775-3.903-1.097-1.292-.335-2.563-.646-3.806-.904-2.472-.548-4.81-.922-6.814-1.192-1.013-.105-1.925-.237-2.753-.288-.825-.05-1.534-.12-2.13-.13l-1.87-.03c-.51-.007-.973.343-1.088.86-.13.592.24 1.178.833 1.31l.075.017 1.707.384c.54.122 1.196.326 1.943.528.747.2 1.585.507 2.494.794 1.816.638 3.912 1.432 6.104 2.416 1.1.474 2.22 1.007 3.347 1.562 1.132.542 2.252 1.156 3.373 1.746.637.366 1.274.723 1.904 1.084l.373-1.444c.44-1.74.886-3.495 1.332-5.255-.37-.12-.743-.237-1.115-.358zm7.488-28.554c-1.31-.376-2.607-.772-3.903-1.094-1.292-.335-2.563-.646-3.806-.904-2.472-.547-4.81-.92-6.814-1.19-1.013-.106-1.925-.238-2.753-.29-.83-.05-1.54-.12-2.137-.13l-1.87-.03c-.51-.006-.972.343-1.087.86-.132.593.24 1.18.832 1.31l.074.018 1.707.38c.54.123 1.196.327 1.943.53.747.2 1.585.505 2.494.792 1.814.637 3.91 1.43 6.102 2.415 1.1.475 2.22 1.008 3.346 1.563 1.13.542 2.25 1.156 3.37 1.746.525.3 1.053.594 1.574.89.51-2.117 1.01-4.213 1.504-6.262l.09-.385-.672-.217zm-3.766-27.333c1.11.577 2.21 1.227 3.312 1.852 1.08.666 2.177 1.297 3.2 1.995.996.634 1.936 1.3 2.838 1.95l1.658-7.944c-.395-.162-.786-.327-1.186-.48-1.25-.52-2.548-.95-3.828-1.413-1.297-.42-2.58-.858-3.866-1.22-1.28-.376-2.542-.728-3.775-1.025-2.453-.624-4.777-1.072-6.772-1.405-1.01-.138-1.914-.298-2.74-.375-.825-.078-1.53-.17-2.13-.2l-1.865-.088c-.51-.024-.983.31-1.115.823-.15.587.202 1.185.79 1.336l.074.02 1.694.436c.535.14 1.184.363 1.925.59.74.223 1.568.554 2.468.87 1.795.695 3.866 1.555 6.025 2.61 1.082.51 2.184 1.08 3.293 1.67zm-75.48 25.482l-.075-.026-1.65-.575c-.523-.185-1.152-.463-1.87-.75-.72-.286-1.516-.686-2.386-1.076-1.73-.843-3.72-1.874-5.783-3.106-1.038-.6-2.088-1.258-3.144-1.94-1.06-.668-2.102-1.408-3.148-2.123-1.02-.755-2.06-1.476-3.02-2.257-.976-.743-1.89-1.514-2.762-2.265.012.35.03.69.034 1.048.03 1.48.085 3 .07 4.59 0 1.1-.003 2.225-.016 3.365.84.396 1.686.778 2.53 1.167 1.257.528 2.5 1.07 3.75 1.54 1.244.483 2.47.94 3.676 1.338 2.392.83 4.67 1.47 6.63 1.97.995.223 1.884.46 2.7.605.817.146 1.514.296 2.106.377l1.853.243c.505.067 1.006-.227 1.18-.727.198-.573-.104-1.2-.676-1.4zm-7.07 33.724l-.073-.025s-.6-.21-1.652-.576c-.522-.184-1.15-.462-1.87-.75-.718-.285-1.515-.685-2.385-1.075-1.73-.844-3.72-1.875-5.782-3.107-1.038-.598-2.088-1.257-3.144-1.94-1.06-.668-2.102-1.408-3.148-2.123l-.367-.27-.517 4.938c-.07.62-.143 1.227-.213 1.844.56.233 1.12.462 1.68.673 1.246.482 2.474.938 3.678 1.337 2.39.83 4.67 1.47 6.63 1.97.993.223 1.883.46 2.7.605.816.146 1.513.296 2.105.377l1.854.244c.504.067 1.005-.227 1.18-.727.197-.57-.106-1.2-.678-1.396zM127.11 387.7l-.07-.026-1.65-.575c-.524-.187-1.153-.465-1.87-.75-.72-.288-1.517-.688-2.387-1.078-1.73-.843-3.72-1.874-5.783-3.106-.02-.012-.04-.026-.062-.038-.17 1.066-.337 2.115-.503 3.124l-.29 1.763c1.958.64 3.82 1.164 5.454 1.58.99.223 1.88.46 2.7.605.814.146 1.51.296 2.103.377l1.854.243c.504.067 1.005-.227 1.18-.727.198-.573-.104-1.2-.677-1.398zm34.06-29.268c.28-.533.563-1.064.844-1.597 1.094-2.11 2.174-4.232 3.24-6.36-2.242-.498-4.982-1.022-7.74-1.392-3.213-.45-6.445-.684-8.87-.72-1.217-.015-2.23.013-2.937.047l-1.113.072c-.453.03-.86.34-.993.8-.17.588.17 1.2.76 1.37l.055.015 1 .286c.632.193 1.53.488 2.595.882 2.13.797 4.906 2.025 7.583 3.427 2.002 1.035 3.943 2.16 5.577 3.17zm-15.433 15.907c-3.214-.45-6.446-.687-8.872-.72-1.216-.018-2.228.01-2.936.044l-1.115.072c-.453.03-.86.34-.993.8-.17.588.17 1.2.76 1.37l.053.015 1 .287c.632.192 1.53.487 2.595.88 2.13.798 4.908 2.026 7.585 3.428 1.318.68 2.608 1.4 3.803 2.102.988-1.67 1.993-3.382 3.01-5.138.4-.687.804-1.404 1.205-2.1-1.88-.386-3.983-.76-6.097-1.044zm-37.167-223.3h-.307c-.315.16-.642.33-.962.494-.056 1.904-.212 3.834-.494 5.775 3.082-.913 6.113-1.693 8.468-2.253 1.356-.31 2.485-.57 3.276-.75l1.23-.26.05-.01c.242-.053.484-.13.72-.234 1.115-.486 1.868-1.44 2.165-2.528-4.114-.15-8.777-.235-14.143-.235zm5.017 18.68c-2.045.66-4.08 1.35-5.982 2.03-1.97.718-3.796 1.424-5.348 2.094-.774.356-1.483.643-2.104.966-.62.327-1.16.594-1.598.843l-1.36.885c-.306.198-.435.595-.287.943.166.39.617.576 1.008.41l.12-.05 1.3-.55c.43-.154.98-.315 1.592-.512.613-.195 1.35-.352 2.126-.557 1.574-.373 3.44-.742 5.448-1.1 2.013-.343 4.17-.675 6.333-.975l.755-.102c-.606-1.466-1.275-2.907-2.003-4.32zm-12.502 23.368c-.056.427.246.82.673.874l17.898 2.33c.026-.65.05-1.3.05-1.96 0-1.416-.07-2.828-.187-4.233l-17.765 2.314c-.34.045-.625.315-.672.674zm10.74 27.165l-18.012-4.487c-.335-.084-.698.063-.873.38-.208.378-.07.853.307 1.06l14.61 8.043c1.442-1.573 2.765-3.24 3.97-4.997zM67.748 139.87c-.373-.012-.745-.028-1.12-.028-2.103 0-4.17.147-6.203.404-.363.533-.715 1.062-1.057 1.558-.542.83-1.006 1.66-1.453 2.397-.443.745-.772 1.49-1.098 2.11-.333.62-.56 1.205-.743 1.685l-.582 1.488c-.17.44-.027.957.377 1.24.472.33 1.123.212 1.453-.26l.073-.106.835-1.198c.26-.38.57-.84 1.01-1.33.43-.49.86-1.066 1.42-1.64.57-.573 1.147-1.207 1.814-1.84.69-.62 1.375-1.29 2.146-1.94.785-.643 1.545-1.333 2.397-1.973l.73-.565zm-27.612 7.605c-.904 1.768-1.72 3.44-2.37 4.912-.327.788-.652 1.48-.888 2.14-.234.66-.447 1.22-.6 1.703l-.397 1.572c-.09.355.087.733.43.89.39.173.844 0 1.02-.387l.052-.12.58-1.286c.213-.41.508-.9.82-1.46.32-.56.754-1.177 1.183-1.853.9-1.346 2.018-2.884 3.25-4.51 1.243-1.62 2.6-3.33 3.983-5.02l.3-.362c-2.558 1.064-5.016 2.33-7.36 3.777z"/></svg>