<?xml version="1.0" encoding="utf-8"?>
<!-- Generator: Adobe Illustrator 18.1.0, SVG Export Plug-In . SVG Version: 6.00 Build 0)  -->
<!DOCTYPE svg PUBLIC "-//W3C//DTD SVG 1.0//EN" "http://www.w3.org/TR/2001/REC-SVG-20010904/DTD/svg10.dtd">
<svg version="1.0" id="Layer_1" xmlns="http://www.w3.org/2000/svg" xmlns:xlink="http://www.w3.org/1999/xlink" x="0px" y="0px"
	 width="72px" height="72px" viewBox="0 0 72 72" enable-background="new 0 0 72 72" xml:space="preserve">
<path fill="#FFC7EF" d="M8.9,53.2c2.8,0.7,4.9,2.9,5.6,5.6c0.1,0.3,0.4,0.3,0.5,0c0.7-2.8,2.9-4.9,5.6-5.6c0.3-0.1,0.3-0.4,0-0.5
	c-2.8-0.7-4.9-2.9-5.6-5.6c-0.1-0.3-0.4-0.3-0.5,0c-0.7,2.8-2.9,4.9-5.6,5.6C8.6,52.8,8.6,53.1,8.9,53.2z"/>
<path fill="#FFC7EF" d="M56.2,18c3.6,0.9,6.4,3.7,7.3,7.3c0.1,0.3,0.5,0.3,0.6,0c0.9-3.6,3.7-6.4,7.3-7.3c0.3-0.1,0.3-0.5,0-0.6
	c-3.6-0.9-6.4-3.7-7.3-7.3c-0.1-0.3-0.5-0.3-0.6,0c-0.9,3.6-3.7,6.4-7.3,7.3C55.9,17.4,55.9,17.9,56.2,18z"/>
</svg>
