<?xml version="1.0" encoding="iso-8859-1"?>
<!-- Generator: Adobe Illustrator 19.1.0, SVG Export Plug-In . SVG Version: 6.00 Build 0)  -->
<!DOCTYPE svg PUBLIC "-//W3C//DTD SVG 1.1//EN" "http://www.w3.org/Graphics/SVG/1.1/DTD/svg11.dtd">
<svg version="1.1" xmlns="http://www.w3.org/2000/svg" xmlns:xlink="http://www.w3.org/1999/xlink" x="0px" y="0px"
	 viewBox="0 0 512 512" enable-background="new 0 0 512 512" xml:space="preserve">
<g id="Layer_4">
	<path fill="#EF4B44" d="M222.425,127.61C128.83,140.839,56.838,221.274,56.838,318.518c0,97.255,71.992,177.69,165.587,190.919
		c14.412,2.035,27.239-9.324,27.239-23.874V151.484C249.664,136.925,236.837,125.575,222.425,127.61z M131.091,370.588
		c-29.715,0-53.793-24.088-53.793-53.803c0-29.714,24.079-53.802,53.793-53.802s53.803,24.088,53.803,53.802
		C184.894,346.5,160.806,370.588,131.091,370.588z M189.19,457.709c-10.381,0-18.795-8.425-18.795-18.806
		c0-10.38,8.414-18.805,18.795-18.805c10.391,0,18.805,8.425,18.805,18.805C207.996,449.284,199.581,457.709,189.19,457.709z
		 M186.877,226.28c-16.31,0-29.529-13.218-29.529-29.529c0-16.31,13.218-29.528,29.529-29.528c16.31,0,29.529,13.218,29.529,29.528
		C216.406,213.062,203.187,226.28,186.877,226.28z"/>
</g>
<g id="Layer_1">
</g>
</svg>
