<?xml version="1.0" encoding="iso-8859-1"?>
<!-- Generator: Adobe Illustrator 18.1.1, SVG Export Plug-In . SVG Version: 6.00 Build 0)  -->
<!DOCTYPE svg PUBLIC "-//W3C//DTD SVG 1.1//EN" "http://www.w3.org/Graphics/SVG/1.1/DTD/svg11.dtd">
<svg version="1.1" xmlns="http://www.w3.org/2000/svg" xmlns:xlink="http://www.w3.org/1999/xlink" x="0px" y="0px"
	 viewBox="0 0 512 512" enable-background="new 0 0 512 512" xml:space="preserve">
<g id="Layer_2">
	<path fill="#D32A2A" d="M427.932,4.041H134.917c-1.925-0.15-3.865-0.25-5.829-0.25c-40.814,0-73.901,33.086-73.901,73.9
		c0,1.986,0.08,3.952,0.234,5.898h-0.234v387.997c0,19.558,15.855,35.414,35.414,35.414h40.633v-81.18
		c3.453,1.059,7.118,1.631,10.918,1.631h297.662c20.544,0,37.199-16.654,37.199-37.199V53.121
		C477.013,26.015,455.039,4.041,427.932,4.041z"/>
</g>
<g id="Layer_3">
	<path fill="#DCE2E2" d="M455.931,67.945c0-21.992-20.75-39.972-46.96-41.336v-0.093H129.088c-20.407,0-36.95,12.668-36.95,28.294
		s16.543,28.294,36.95,28.294v0.485H331.89v390.972l73.882,8.673c28.693,0,50.159-56.776,50.159-84.813V69.915h-0.06
		C455.908,69.262,455.931,68.606,455.931,67.945z"/>
</g>
<g id="Layer_4">
	<path fill="#FF473E" d="M390.578,83.59H131.234V507h259.344c20.252,0,36.669-16.417,36.669-36.669V120.259
		C427.247,100.007,410.83,83.59,390.578,83.59z"/>
</g>
<g id="Layer_5">
	<path fill="#2B3B47" d="M333.49,240.399H200.546c-7.953,0-14.4-6.447-14.4-14.4v-50.115c0-7.953,6.447-14.4,14.4-14.4H333.49
		c7.953,0,14.4,6.447,14.4,14.4v50.115C347.89,233.952,341.443,240.399,333.49,240.399z"/>
</g>
</svg>
