<svg xmlns="http://www.w3.org/2000/svg" viewBox="0 0 512 512" enable-background="new 0 0 512 512"><path fill="#2B3B47" d="M391.912 229.86c-6.77 0-12.9.043-18.397.278 5.262 4.176 8.64 10.622 8.64 17.86v32.944c0 12.59-10.204 22.795-22.794 22.795-8.84 0-16.5-5.037-20.28-12.394v78.242c0 2.443-1.98 4.425-4.424 4.425s-4.425-1.98-4.425-4.425v-115.78c0-14.97 6.465-24.46 19.763-29.01 11.06-3.785 26.05-3.785 41.92-3.785 2.443 0 4.425 1.98 4.425 4.425s-1.98 4.425-4.425 4.425zm-276.36-4.425c0 2.444 1.982 4.425 4.426 4.425 7.022 0 13.352.047 19.003.306-5.24 4.176-8.603 10.61-8.603 17.833v32.94c0 12.59 10.206 22.796 22.795 22.796 8.366 0 15.675-4.51 19.64-11.227v77.074c0 2.443 1.98 4.425 4.425 4.425s4.425-1.98 4.425-4.426v-115.78c0-14.97-6.464-24.46-19.762-29.01-11.058-3.785-26.05-3.785-41.92-3.785-2.444 0-4.425 1.98-4.425 4.424zm93.134 199.142c-.022-1.104-.91-1.945-2.04-1.96-102.068 2.055-132.938 17.762-134.202 18.43-.977.516-1.35 1.726-.834 2.702.358.68 1.052 1.064 1.77 1.064.315 0 .635-.074.933-.23.3-.16 31.29-15.933 132.414-17.968 1.104-.022 1.982-.935 1.96-2.04zm-13.39 13.625c-.25-1.076-1.32-1.743-2.4-1.5-59.543 13.745-108.462 28.97-108.95 29.12-1.054.33-1.642 1.452-1.313 2.507.268.853 1.057 1.402 1.91 1.402.196 0 .397-.03.596-.092.484-.15 49.267-15.33 108.656-29.04 1.075-.247 1.746-1.322 1.498-2.398zm23.81 4.12c-71.37 16.475-114.176 57.22-114.6 57.63-.794.767-.816 2.032-.05 2.826.393.406.916.61 1.44.61.5 0 1-.186 1.39-.56.416-.402 42.484-40.397 112.72-56.608 1.075-.25 1.747-1.323 1.498-2.4s-1.324-1.74-2.4-1.498zm211.835-1.954c-1.262-.668-32.13-16.375-134.2-18.43-1.09.01-2.017.855-2.04 1.96-.02 1.104.856 2.018 1.96 2.04 100.8 2.028 132.114 17.81 132.415 17.967.298.157.617.23.932.23.718 0 1.412-.386 1.77-1.065.516-.976.143-2.186-.835-2.702zm-11.5 24.777c-.485-.152-49.404-15.376-108.95-29.12-1.07-.24-2.15.423-2.397 1.5-.248 1.075.423 2.15 1.5 2.398 59.39 13.708 108.17 28.888 108.656 29.04.2.062.4.092.597.092.852 0 1.64-.55 1.908-1.404.33-1.053-.26-2.175-1.313-2.504zm-134.477-22.823c-1.073-.243-2.15.423-2.4 1.5-.247 1.075.424 2.15 1.5 2.398 70.234 16.212 112.303 56.206 112.72 56.607.388.375.89.562 1.39.562.522 0 1.045-.207 1.437-.613.767-.794.744-2.06-.05-2.827-.424-.408-43.23-41.153-114.598-57.628zm18.335-37.958c11.42-8.384 2.166-21.518-15.162-21.518H223.95c-17.328 0-26.582 13.134-15.162 21.518l19.894 14.604c15.048 11.047 39.672 11.047 54.72 0l19.895-14.604zM465.182 235.57c-.04-10.204-1.073-20.34-2.994-30.32-.552 2.492-1.126 5.007-1.733 7.566-.913 3.73-1.87 7.52-2.91 11.276-.52 1.878-1.038 3.763-1.598 5.617-.54 1.866-1.104 3.713-1.687 5.537-1.143 3.662-2.363 7.223-3.604 10.65-1.244 3.422-2.537 6.69-3.828 9.76-1.305 3.06-2.61 5.92-3.895 8.514-.614 1.325-1.295 2.513-1.9 3.69-.6 1.18-1.218 2.26-1.812 3.27-1.144 2.06-2.26 3.75-3.17 5.173-.9 1.43-1.71 2.448-2.22 3.2l-.802 1.128-.153.215c-1.02 1.434-.976 3.43.223 4.826 1.41 1.643 3.885 1.83 5.527.42l1.15-.988c.73-.658 1.894-1.568 3.22-2.845 1.335-1.27 2.987-2.81 4.733-4.684.9-.923 1.842-1.918 2.78-3.002.94-1.08 1.992-2.194 2.972-3.417 2.033-2.412 4.147-5.09 6.31-7.974 2.148-2.89 4.345-5.99 6.523-9.25 1.117-1.674 2.237-3.392 3.35-5.14-1.198-4.533-2.7-8.947-4.48-13.22zM380.9 146.83l.96-.85c.616-.56 1.58-1.353 2.67-2.453.557-.546 1.173-1.15 1.843-1.81l2.08-2.196c1.453-1.59 3.076-3.41 4.747-5.452.86-1.012 1.707-2.088 2.585-3.206.893-1.11 1.776-2.28 2.68-3.487 1.82-2.41 3.666-4.99 5.533-7.69 1.87-2.697 3.74-5.518 5.61-8.404.426-.66.848-1.337 1.272-2.005-3.896-4.022-7.978-7.898-12.217-11.63-.82 2.288-1.65 4.565-2.498 6.802-1.176 3.072-2.362 6.085-3.57 8.967-1.206 2.885-2.413 5.655-3.623 8.24-.6 1.297-1.19 2.558-1.792 3.752-.59 1.205-1.165 2.37-1.752 3.46-1.14 2.21-2.264 4.175-3.28 5.91-.52.855-1.01 1.655-1.462 2.396l-1.31 1.977c-.778 1.215-1.47 2.075-1.918 2.7l-.697.946-.11.15c-.792 1.075-.757 2.594.164 3.635 1.06 1.196 2.89 1.308 4.087.25zm-60.237-21.95c1.253.983 3.067.765 4.05-.488l.95-1.207c.295-.397.72-.882 1.11-1.468l1.37-2.02c.967-1.525 2.118-3.394 3.29-5.57.62-1.086 1.21-2.25 1.84-3.482.646-1.23 1.27-2.53 1.923-3.892 1.314-2.72 2.65-5.69 4.015-8.845 1.37-3.155 2.746-6.5 4.134-9.97 2.77-6.94 5.54-14.39 8.19-21.872-5.273-2.604-10.686-4.994-16.213-7.18-.15.966-.303 1.933-.457 2.9-1.224 7.674-2.567 15.32-3.99 22.437-.716 3.556-1.44 6.986-2.185 10.214-.74 3.23-1.488 6.27-2.248 9.037-.377 1.388-.738 2.72-1.125 3.958-.374 1.248-.724 2.44-1.103 3.52-.71 2.204-1.43 4.05-2.035 5.563-.323.738-.61 1.397-.862 1.97-.248.58-.51 1-.695 1.384l-.594 1.144-.14.27c-.63 1.208-.33 2.727.777 3.597zm-65.315-14.316c1.596.22 3.07-.896 3.288-2.493l8.813-64.01c-3.875-.21-7.775-.323-11.705-.323-3.93 0-7.83.114-11.703.322l8.813 64.01c.174 1.263 1.168 2.31 2.492 2.493zm-83.71-22.625c1.388 3.47 2.763 6.814 4.132 9.97 1.364 3.155 2.7 6.124 4.015 8.845.653 1.36 1.277 2.662 1.923 3.892.63 1.23 1.22 2.396 1.84 3.48 1.172 2.178 2.323 4.047 3.29 5.573.514.756.972 1.432 1.37 2.02.39.585.815 1.07 1.11 1.467l.95 1.207c.838 1.07 2.345 1.428 3.595.78 1.415-.734 1.967-2.475 1.233-3.89l-.14-.27s-.206-.4-.594-1.146c-.186-.382-.447-.803-.695-1.384-.25-.573-.54-1.23-.862-1.97-.606-1.51-1.325-3.358-2.035-5.562-.38-1.08-.73-2.272-1.103-3.52-.387-1.238-.747-2.57-1.124-3.957-.76-2.768-1.507-5.807-2.248-9.037-.746-3.227-1.47-6.657-2.184-10.214-1.423-7.116-2.765-14.762-3.99-22.437-.222-1.393-.44-2.785-.654-4.177-5.633 2.123-11.142 4.47-16.52 7.025l.5 1.422c2.652 7.486 5.422 14.94 8.193 21.882zm-60.657 31.744c1.868 2.698 3.714 5.28 5.535 7.69.904 1.207 1.787 2.376 2.68 3.488.878 1.118 1.727 2.195 2.585 3.206 1.67 2.043 3.293 3.86 4.746 5.452l2.08 2.197 1.842 1.81c1.09 1.098 2.055 1.892 2.67 2.453l.96.85c1 .885 2.518.986 3.637.16 1.287-.948 1.56-2.76.612-4.048l-.11-.15-.697-.945c-.447-.625-1.14-1.485-1.92-2.7l-1.308-1.977-1.463-2.397c-1.018-1.733-2.14-3.698-3.28-5.91-.588-1.087-1.16-2.253-1.753-3.458-.603-1.194-1.192-2.455-1.792-3.752-1.21-2.585-2.417-5.355-3.622-8.24-1.21-2.882-2.396-5.896-3.57-8.967-1.135-2.99-2.247-6.044-3.325-9.113-4.43 3.773-8.686 7.708-12.756 11.792.875 1.396 1.754 2.784 2.637 4.155 1.87 2.887 3.74 5.708 5.61 8.405zM72.947 286.088c1.33 1.145 3.32 1.29 4.818.23 1.767-1.25 2.187-3.695.938-5.462l-.158-.225-.79-1.115c-.5-.744-1.3-1.75-2.18-3.167-.888-1.41-1.984-3.084-3.095-5.13-.576-1.002-1.18-2.07-1.758-3.244-.58-1.173-1.246-2.346-1.83-3.664-.597-1.31-1.254-2.63-1.86-4.056-.6-1.43-1.247-2.88-1.853-4.41-1.22-3.055-2.43-6.304-3.585-9.71-1.15-3.41-2.27-6.953-3.306-10.598-.53-1.816-1.04-3.653-1.52-5.512-.504-1.846-.964-3.72-1.424-5.59-.922-3.738-1.75-7.51-2.538-11.22-.76-3.723-1.48-7.387-2.104-10.953-.124-.687-.243-1.37-.36-2.05-2.646 11.798-4.04 23.844-4.04 35.98 0 .386.013.766.016 1.15-1.46 3.694-2.707 7.49-3.743 11.37 1.06 1.748 2.13 3.463 3.198 5.136 2.1 3.282 4.232 6.4 6.32 9.308 1.04 1.455 2.118 2.84 3.12 4.187 1.014 1.345 2.077 2.604 3.048 3.825.958 1.228 2.003 2.342 2.924 3.427.92 1.088 1.856 2.08 2.74 3.006 1.72 1.878 3.363 3.41 4.684 4.68 1.315 1.272 2.47 2.176 3.197 2.83l1.14.982z"/></svg>