<?xml version="1.0" encoding="iso-8859-1"?>
<!-- Generator: Adobe Illustrator 18.1.1, SVG Export Plug-In . SVG Version: 6.00 Build 0)  -->
<!DOCTYPE svg PUBLIC "-//W3C//DTD SVG 1.1//EN" "http://www.w3.org/Graphics/SVG/1.1/DTD/svg11.dtd">
<svg version="1.1" xmlns="http://www.w3.org/2000/svg" xmlns:xlink="http://www.w3.org/1999/xlink" x="0px" y="0px"
	 viewBox="0 0 512 512" enable-background="new 0 0 512 512" xml:space="preserve">
<g id="Layer_8">
	<path fill="#819096" d="M458.909,349.821h-95.922c-6.017,0-10.896-4.878-10.896-10.896v-2.933c0-6.017,4.878-10.896,10.896-10.896
		h95.922c6.017,0,10.896,4.878,10.896,10.896v2.933C469.805,344.943,464.926,349.821,458.909,349.821z M469.805,391.324v-2.933
		c0-6.017-4.878-10.896-10.896-10.896h-95.922c-6.017,0-10.896,4.878-10.896,10.896v2.933c0,6.017,4.878,10.896,10.896,10.896
		h95.922C464.926,402.22,469.805,397.341,469.805,391.324z M469.805,443.722v-2.933c0-6.017-4.878-10.896-10.896-10.896h-95.922
		c-6.017,0-10.896,4.878-10.896,10.896v2.933c0,6.017,4.878,10.896,10.896,10.896h95.922
		C464.926,454.618,469.805,449.74,469.805,443.722z M455.764,194.278v-2.933c0-6.017-4.878-10.896-10.896-10.896h-19.207
		c-6.017,0-10.896,4.878-10.896,10.896v2.933c0,6.017,4.878,10.896,10.896,10.896h19.207
		C450.885,205.173,455.764,200.295,455.764,194.278z"/>
</g>
<g id="Layer_1">
</g>
</svg>
