<svg xmlns="http://www.w3.org/2000/svg" viewBox="0 0 512 512" enable-background="new 0 0 512 512"><path fill="#626566" d="M469.61 348.09c-.067-7.198-.6-15.202-1.68-23.767-2.152-17.133-6.56-36.468-13.204-56.337-3.323-9.932-7.193-20.005-11.55-30.036-4.37-10.026-9.188-20.027-14.35-29.854-5.165-9.827-10.585-19.526-16.346-28.852-5.738-9.338-11.713-18.358-17.838-26.897-6.003-8.32-12.147-16.18-18.32-23.45.355-.014.657.11.896.398C373.36 122.025 334.658 5 256 5c-80.648 0-119.302 123.047-121.45 124.652l.157.396c-5.846 6.948-11.66 14.414-17.348 22.298-6.127 8.54-12.1 17.558-17.84 26.897-5.76 9.327-11.18 19.026-16.346 28.852-5.164 9.827-9.982 19.828-14.352 29.854-4.356 10.03-8.227 20.102-11.55 30.034-6.645 19.87-11.052 39.204-13.202 56.337-1.08 8.566-1.613 16.57-1.68 23.767-.048 3.59.05 6.992.227 10.153.08 1.57.23 3.108.36 4.564.13 1.447.258 2.844.448 4.175.728 5.32 1.622 9.492 2.52 12.365.378 1.405.83 2.53 1.08 3.248l.418 1.096c.51 1.332 1.49 2.503 2.85 3.222 2.98 1.576 6.675.438 8.252-2.542l.36-.68 1.794-3.39c1.16-2.17 2.937-5.363 5.287-9.326 1.146-1.985 2.446-4.186 3.917-6.56l4.662-7.69 11.17-18.412c3.108-5.165 6.38-10.676 9.755-16.47-.7 7.485-1.06 14.596-1.06 21.23 0 97.128 77.286 144.51 161.57 144.51s161.57-47.382 161.57-144.51c0-6.634-.363-13.745-1.06-21.23 3.373 5.795 6.646 11.306 9.753 16.47l11.17 18.412 4.662 7.69c1.47 2.375 2.77 4.575 3.917 6.56 2.35 3.963 4.126 7.155 5.29 9.325l1.793 3.39.365.69c.67 1.26 1.78 2.293 3.22 2.84 3.15 1.2 6.678-.38 7.878-3.53l.418-1.097c.25-.717.7-1.843 1.08-3.248.898-2.874 1.792-7.048 2.52-12.367.19-1.332.32-2.73.448-4.176.13-1.455.28-2.994.36-4.563.175-3.16.274-6.56.225-10.15zM256 475.19c-69.95 0-126.655-62.522-126.655-139.648 0-45.09 19.387-109.206 49.466-154.698 19.167 20.84 46.646 33.912 77.19 33.912s58.025-13.07 77.19-33.912c30.08 45.492 49.466 109.607 49.466 154.698 0 77.126-56.705 139.65-126.655 139.65z"/></svg>