<?xml version="1.0" encoding="utf-8"?>
<!-- Generator: Adobe Illustrator 18.1.0, SVG Export Plug-In . SVG Version: 6.00 Build 0)  -->
<!DOCTYPE svg PUBLIC "-//W3C//DTD SVG 1.0//EN" "http://www.w3.org/TR/2001/REC-SVG-20010904/DTD/svg10.dtd">
<svg version="1.0" id="Layer_1" xmlns="http://www.w3.org/2000/svg" xmlns:xlink="http://www.w3.org/1999/xlink" x="0px" y="0px"
	 width="72px" height="72px" viewBox="0 0 72 72" enable-background="new 0 0 72 72" xml:space="preserve">
<path fill="#FFD3B6" d="M57.6,49.8l-0.1,1.1c0,12.1-9.8,21-22,21c-6.1,0-12.2-2.5-16.1-6.4c3.2,2.1,7.3,3.5,11.4,4
	c-1.1-0.6-1.9-1.3-2.6-2c-0.4-0.4-0.7-0.8-0.9-1.2c-0.2-0.4-0.4-0.7-0.6-1c-0.2-0.3-0.2-0.5-0.3-0.7c-0.1-0.2-0.1-0.2-0.1-0.2
	c0,0,0,0,0,0c0,0,0,0,0,0c0,0,0.2,0.3,0.6,0.7c0.2,0.2,0.4,0.5,0.7,0.8c0.3,0.3,0.6,0.6,1,0.9c0.4,0.3,0.8,0.6,1.3,0.9
	c0.5,0.3,1,0.5,1.6,0.8c0.6,0.2,1.2,0.4,1.8,0.5c0.6,0.1,1.3,0.2,1.9,0.2c0.7,0,1.3-0.1,1.9-0.2c0.6-0.1,1.2-0.3,1.8-0.5
	c1.2-0.4,2.1-1.1,2.9-1.7c0.4-0.3,0.7-0.6,1-0.9c0.3-0.3,0.5-0.6,0.7-0.8c0.4-0.5,0.6-0.7,0.6-0.7c0,0,0,0,0.1,0c0,0,0,0,0,0
	c0,0,0,0.1-0.1,0.2c-0.1,0.2-0.1,0.4-0.3,0.7c-0.1,0.3-0.3,0.6-0.6,1c-0.2,0.4-0.5,0.8-0.9,1.2c-0.2,0.3-0.5,0.5-0.8,0.8
	C50.2,65.4,56.3,58.7,57.6,49.8z M41.6,51C41.6,51,41.6,51,41.6,51c0,0-0.1,0.2-0.1,0.6c0,0.2,0,0.4,0,0.7c0.1,0.3,0.1,0.6,0.3,0.8
	c0.1,0.3,0.3,0.6,0.5,0.9c0.2,0.3,0.4,0.6,0.6,0.9c0.2,0.3,0.4,0.6,0.7,0.9c0.2,0.3,0.5,0.6,0.7,0.9c0.5,0.6,0.8,1.2,1.2,1.8
	c0.1,0.3,0.3,0.6,0.4,0.9c0.1,0.3,0.3,0.6,0.3,0.8c0.1,0.3,0.2,0.5,0.3,0.7c0.1,0.2,0.1,0.4,0.2,0.6c0.1,0.3,0.2,0.5,0.2,0.5
	c0,0,0,0,0,0c0,0,0,0,0,0c0,0,0-0.2,0.1-0.6c0.1-0.4,0.1-0.9,0.1-1.5c0-0.3-0.1-0.6-0.1-1c-0.1-0.4-0.2-0.7-0.3-1.1
	c-0.2-0.4-0.3-0.8-0.5-1.1c-0.2-0.4-0.4-0.7-0.7-1.1c-1-1.3-2.2-2.3-2.9-3.2c-0.2-0.2-0.3-0.4-0.4-0.6c-0.1-0.2-0.2-0.4-0.3-0.5
	C41.7,51.2,41.7,51,41.6,51C41.7,51,41.7,51,41.6,51z M29.4,51C29.4,51,29.3,51,29.4,51c0,0-0.1,0.2-0.2,0.5
	c-0.1,0.2-0.2,0.3-0.3,0.5c-0.1,0.2-0.3,0.4-0.4,0.6c-0.7,0.9-1.9,1.9-2.9,3.2c-0.2,0.3-0.5,0.7-0.7,1.1c-0.2,0.4-0.4,0.7-0.5,1.1
	c-0.1,0.4-0.3,0.7-0.3,1.1c-0.1,0.4-0.1,0.7-0.1,1c0,0.6,0,1.1,0.1,1.5c0.1,0.4,0.1,0.6,0.1,0.6c0,0,0,0,0,0c0,0,0,0,0,0
	c0,0,0.1-0.2,0.2-0.5c0-0.2,0.1-0.4,0.2-0.6c0.1-0.2,0.2-0.5,0.3-0.7c0.1-0.3,0.2-0.5,0.3-0.8c0.1-0.3,0.3-0.6,0.4-0.9
	c0.3-0.6,0.7-1.2,1.2-1.8c0.2-0.3,0.5-0.6,0.7-0.9c0.2-0.3,0.5-0.6,0.7-0.9c0.2-0.3,0.4-0.6,0.6-0.9c0.2-0.3,0.3-0.6,0.5-0.9
	c0.1-0.3,0.2-0.6,0.3-0.8c0-0.3,0.1-0.5,0-0.7C29.5,51.2,29.4,51,29.4,51C29.4,51,29.4,51,29.4,51z"/>
</svg>
