<?xml version="1.0" encoding="utf-8"?>
<!-- Generator: Adobe Illustrator 18.1.0, SVG Export Plug-In . SVG Version: 6.00 Build 0)  -->
<!DOCTYPE svg PUBLIC "-//W3C//DTD SVG 1.0//EN" "http://www.w3.org/TR/2001/REC-SVG-20010904/DTD/svg10.dtd">
<svg version="1.0" id="Layer_1" xmlns="http://www.w3.org/2000/svg" xmlns:xlink="http://www.w3.org/1999/xlink" x="0px" y="0px"
	 width="72px" height="72px" viewBox="0 0 72 72" enable-background="new 0 0 72 72" xml:space="preserve">
<path fill="#8E6049" d="M46.7,9.7c0,0-0.1,0-0.3-0.1c-0.2,0-0.4-0.1-0.7-0.1c-0.1,0-0.2,0-0.3,0c-0.1,0-0.2,0-0.3,0.1
	c-0.1,0-0.1,0.1-0.1,0.1c0,0-0.1,0-0.1,0l-0.1,0.1c-0.1,0.1-0.3,0-0.4-0.1c-0.1-0.1,0-0.3,0.1-0.4c0,0,0,0,0.1-0.1
	c0.1,0,0.2-0.1,0.3-0.2C45,9.1,45.1,9,45.2,9c0.1,0,0.3-0.1,0.4-0.1c0.3,0,0.6,0,0.8,0c0.2,0,0.4,0,0.4,0l0,0c0.2,0,0.4,0.2,0.4,0.5
	C47.2,9.6,47,9.8,46.7,9.7C46.7,9.8,46.7,9.7,46.7,9.7z"/>
<path fill="#8E6049" d="M53.9,8.9c0,0,0.1,0,0.4,0c0.2,0,0.5,0,0.8,0c0.1,0,0.3,0.1,0.4,0.1c0.1,0,0.3,0.1,0.4,0.1
	c0.1,0.1,0.2,0.1,0.3,0.2c0.1,0,0.1,0.1,0.1,0.1c0.1,0.1,0.1,0.3,0,0.4c-0.1,0.1-0.2,0.1-0.4,0.1l-0.1-0.1c0,0,0,0-0.1,0
	c0,0-0.1,0-0.1-0.1c-0.1,0-0.2,0-0.3-0.1c-0.1,0-0.2,0-0.3,0c-0.2,0-0.5,0-0.7,0.1c-0.2,0-0.3,0.1-0.3,0.1c-0.2,0.1-0.5-0.1-0.5-0.3
	C53.5,9.2,53.6,9,53.9,8.9C53.8,8.9,53.9,8.9,53.9,8.9L53.9,8.9z"/>
</svg>
