<?xml version="1.0" encoding="iso-8859-1"?>
<!-- Generator: Adobe Illustrator 18.1.0, SVG Export Plug-In . SVG Version: 6.00 Build 0)  -->
<!DOCTYPE svg PUBLIC "-//W3C//DTD SVG 1.1//EN" "http://www.w3.org/Graphics/SVG/1.1/DTD/svg11.dtd">
<svg version="1.1" id="Layer_1" xmlns="http://www.w3.org/2000/svg" xmlns:xlink="http://www.w3.org/1999/xlink" x="0px" y="0px"
	 viewBox="0 0 72 72" enable-background="new 0 0 72 72" xml:space="preserve">
<path fill="#AF773F" d="M69.011,45.792c-0.032-0.671-0.121-1.353-0.306-1.997c-0.708-2.617-2.531-4.783-4.649-6.185
	c-2.13-1.42-4.52-2.128-6.69-2.415c-2.182-0.286-4.164-0.172-5.804,0.039c-0.149,0.019-0.282,0.043-0.425,0.064
	c2.861-2.803,4.687-6.944,4.687-12.714c0-5.505-4.463-9.968-9.968-9.968c-2.248,0-4.319,0.746-5.986,2.002
	c-1.07,0.807-2.507,0.809-3.577,0.002c-1.921-1.449-4.382-2.219-7.03-1.949c-4.518,0.461-8.827,3.998-8.827,8.539
	c0,6.797,2.198,11.439,5.452,14.414c-0.292,0-0.664,0-1.111,0c-0.517-0.018-0.914-0.082-1.507-0.104
	c-0.616-0.128-1.37-0.166-2.124-0.401c-0.78-0.17-1.588-0.459-2.437-0.783c-0.406-0.195-0.84-0.372-1.265-0.584
	c-0.403-0.242-0.839-0.463-1.253-0.725c-0.81-0.545-1.623-1.151-2.335-1.87c-0.35-0.363-0.727-0.716-1.018-1.127l-0.477-0.596
	l-0.402-0.639c-0.56-0.847-0.927-1.777-1.255-2.707c-0.108-0.477-0.242-0.95-0.327-1.427l-0.08-0.719l-0.046-0.358l-0.012-0.089
	c0.001-0.05-0.012,0.399-0.007,0.202l0-0.015l0-0.03l0.001-0.059l0.004-0.236c0.005-0.314,0.01-0.625,0.015-0.934l0.007-0.46
	l0.046-0.292c0.081-0.393,0.04-0.725,0.186-1.181c0.178-0.868,0.474-1.668,0.789-2.396c0.178-0.358,0.348-0.702,0.51-1.028
	c0.2-0.311,0.389-0.606,0.568-0.884c0.131-0.21,0.272-0.386,0.41-0.563c-0.211-1.791-0.796-3.662-2.477-4.018
	c-0.876-0.185-1.764-0.059-2.627,0.232c-0.136,0.156-0.273,0.318-0.409,0.493c-0.297,0.386-0.612,0.797-0.945,1.23
	c-0.29,0.469-0.595,0.962-0.913,1.477c-0.586,1.062-1.155,2.269-1.57,3.627c-0.25,0.63-0.38,1.49-0.547,2.277l-0.111,0.605L3.125,22
	c-0.031,0.307-0.063,0.617-0.095,0.929l-0.024,0.235l-0.006,0.059l-0.003,0.029l-0.009,0.246l0.002,0.147L3,24.238
	c0.011,0.398,0.022,0.799,0.033,1.202c0.064,0.803,0.198,1.615,0.331,2.431c0.374,1.606,0.886,3.224,1.661,4.704l0.58,1.112
	l0.673,1.044c0.435,0.711,0.96,1.337,1.476,1.967c1.042,1.25,2.22,2.324,3.418,3.282c0.606,0.467,1.234,0.877,1.84,1.298
	c0.622,0.388,1.253,0.728,1.862,1.074c1.245,0.623,2.454,1.163,3.609,1.537c1.141,0.442,2.229,0.637,3.195,0.896
	c1.026,0.175,2.034,0.342,2.684,0.413c0.201,0.017,0.382,0.033,0.552,0.048c0.233,1.88,0.859,3.638,1.792,5.192
	c-0.899,1.337-1.521,2.808-1.829,4.31c-0.133,0.597-0.198,1.201-0.237,1.796c-0.015,0.596-0.026,1.187,0.052,1.761l0.126,1.061
	l0.17,0.47c0.043,0.075,0.148,0.544,0.241,0.832c0.098,0.31,0.201,0.68,0.32,0.904c0.227,0.507,0.475,0.993,0.774,1.445
	c0.095,0.16,0.207,0.307,0.316,0.457l-1.614,1.192c-1.473,1.087-1.785,3.162-0.698,4.635c1.087,1.473,3.162,1.785,4.635,0.698
	l4.838-3.571c0.05-0.037,0.107-0.082,0.155-0.122c1.391-1.162,1.576-3.232,0.414-4.623l-0.327-0.391
	c-0.199-0.238-0.374-0.488-0.504-0.756c-0.046-0.143-0.126-0.268-0.15-0.414c-0.049-0.137-0.068-0.281-0.091-0.421
	c-0.027-0.089,0.006-0.081-0.002-0.118c0.003-0.054-0.016,0.027-0.013-0.196l-0.003-0.479l0-0.06l0-0.015
	c0.011,0.386,0.003,0.106,0.006,0.192l0-0.002l0.001-0.003l0.003-0.013l0.011-0.053l0.018-0.105
	c0.008-0.142,0.069-0.271,0.097-0.403c0.052-0.127,0.093-0.254,0.162-0.37c0.239-0.478,0.642-0.858,1.085-1.098
	c0.228-0.112,0.461-0.189,0.694-0.24c0.107-0.003,0.25-0.033,0.249-0.015c0.046-0.003,0.239-0.004,0.431-0.005
	c0.665,0.103,1.341,0.172,2.035,0.172c0.691,0,1.365-0.069,2.028-0.171c0.123,0.001,0.221,0.002,0.253,0.004
	c-0.001-0.018,0.142,0.011,0.249,0.015c0.233,0.05,0.466,0.128,0.694,0.24c0.442,0.24,0.846,0.621,1.085,1.098
	c0.069,0.116,0.11,0.243,0.162,0.37c0.029,0.132,0.09,0.261,0.097,0.403l0.018,0.105l0.011,0.053l0.003,0.013l0.001,0.003l0,0.002
	c0.002-0.086-0.005,0.194,0.006-0.192l0,0.015l0,0.06l-0.003,0.479c0.003,0.223-0.015,0.143-0.013,0.196
	c-0.008,0.036,0.025,0.029-0.002,0.118c-0.023,0.141-0.042,0.285-0.091,0.421c-0.024,0.147-0.104,0.271-0.15,0.414
	c-0.13,0.268-0.305,0.518-0.504,0.756l-0.327,0.391c-1.162,1.391-0.977,3.461,0.414,4.623c0.048,0.04,0.105,0.085,0.155,0.122
	L46.992,70c1.473,1.087,3.548,0.775,4.635-0.698c1.087-1.473,0.775-3.548-0.698-4.635l-1.614-1.192
	c0.109-0.149,0.221-0.297,0.316-0.457c0.299-0.452,0.547-0.938,0.774-1.445c0.119-0.224,0.222-0.594,0.32-0.904
	c0.093-0.289,0.198-0.757,0.241-0.832l0.17-0.47l0.126-1.061c0.077-0.574,0.067-1.165,0.052-1.761
	c-0.039-0.595-0.104-1.199-0.237-1.796c-0.297-1.447-0.89-2.863-1.736-4.16c1.169-1.889,1.874-4.089,1.963-6.452
	c0.101-0.038,0.189-0.074,0.306-0.112c0.442-0.16,0.941-0.315,1.483-0.459c1.083-0.287,2.348-0.516,3.628-0.518
	c1.275-0.005,2.562,0.224,3.609,0.723c1.05,0.487,1.826,1.267,2.155,1.981c0.168,0.369,0.242,0.577,0.22,1.209
	c-0.016,0.548-0.104,1.146-0.217,1.658c-0.226,1.049-0.581,1.794-0.793,2.138c-0.224,0.339-0.774,1.077-0.777,1.098l0.219,1.729
	c-0.07,0.575,0.079,1.178,0.465,1.67c0.771,0.985,2.194,1.158,3.179,0.387c0,0,0.164-0.128,0.47-0.368
	c0.292-0.245,0.665-0.615,1.049-1.093c0.752-0.954,1.479-2.291,1.998-3.917c0.262-0.823,0.485-1.7,0.62-2.735
	c0.025-0.265,0.05-0.533,0.075-0.805l0.011-0.153l0.005-0.077l0.003-0.194L69.011,45.792z"/>
<path fill="#FFB636" d="M45.566,16.077c-2.475-0.031-4.674,1.154-6.038,2.996c-0.657,0.888-1.937,0.888-2.594,0
	c-1.364-1.842-3.563-3.027-6.038-2.996c-3.879,0.049-7.142,3.225-7.289,7.101c-0.148,3.904,2.733,7.166,6.48,7.623
	c0.508,0.062,0.897,0.457,0.961,0.965c0.448,3.569,3.493,6.33,7.183,6.33c3.67,0,6.702-2.73,7.176-6.271
	c0.073-0.542,0.486-0.961,1.028-1.032c3.718-0.484,6.568-3.732,6.42-7.615C52.708,19.301,49.445,16.125,45.566,16.077z"/>
<path fill="#E2A042" d="M63.299,59.49l-2.868,2.469c-1.681,1.447-4.217,1.258-5.665-0.423c-1.447-1.681-1.258-4.217,0.423-5.665
	l2.868-2.469c0.068-0.059,0.146-0.098,0.217-0.152c-0.874-0.209-1.892-0.419-2.405,0.023c-0.488,0.419-1.225,0.366-1.647-0.123
	c-0.421-0.488-0.366-1.226,0.123-1.647c1.208-1.04,2.79-1.414,4.455-1.048c1.713,0.373,3.437,1.519,4.983,3.317
	c0.123,0.143,0.193,0.308,0.236,0.479C65.112,55.913,64.846,58.159,63.299,59.49z M38.068,44.431c-3.144,0-5.693,2.549-5.693,5.693
	c0,3.144,2.549,4.295,5.693,4.295s5.693-1.151,5.693-4.295C43.761,46.98,41.212,44.431,38.068,44.431z M19.765,10.665
	c-0.753-0.608-1.858-0.488-2.464,0.265c-0.495,0.614-1.032,1.041-1.603,1.315l2.584-3.209c1.683-2.09,1.353-5.15-0.737-6.833
	s-5.15-1.353-6.833,0.737L7.839,6.507c-1.6,1.987-1.606,5.139,0.189,6.894c0.08,0.101,0.169,0.196,0.274,0.281
	c2.138,1.721,4.145,2.411,5.929,2.411c2.425,0,4.437-1.275,5.798-2.965C20.636,12.375,20.517,11.272,19.765,10.665z M24.986,59.838
	l-0.17-0.47l-0.126-1.061c-0.077-0.574-0.067-1.165-0.052-1.761c0.037-0.564,0.101-1.135,0.221-1.701
	c-1.814,1.422-4.127,2.838-6.678,3.829c-0.367,0.141-0.737,0.268-1.106,0.381l-0.55,0.155l-0.451,0.105l-0.668,0.098
	c-0.205,0.024-0.3,0.008-0.455,0.022c-0.28,0.006-0.668,0.001-0.993-0.059c-1.366-0.173-2.69-0.868-3.659-1.898
	C9.323,56.441,8.7,55.114,8.64,53.631l-0.033-0.342l0.041-0.194c0.024-0.126,0.041-0.252,0.049-0.38
	c-0.011-0.119,0.044-0.275,0.098-0.43l0.138-0.463c0.096-0.307,0.299-0.566,0.425-0.86c0.174-0.266,0.401-0.491,0.583-0.75
	c0.239-0.205,0.476-0.408,0.71-0.609c0.269-0.152,0.543-0.288,0.803-0.447c0.291-0.093,0.579-0.185,0.863-0.276l0.053-0.018
	l0.026-0.009l0.002,0l0.304-0.029l0.601-0.058c0.207,0.072,0.362,0.047,0.598,0.104c0.235,0.105,0.509,0.104,0.717,0.257
	c0.215,0.128,0.46,0.208,0.63,0.389c0.192,0.151,0.39,0.291,0.52,0.49c0.157,0.175,0.311,0.348,0.396,0.559
	c0.109,0.196,0.235,0.381,0.272,0.599l0.097,0.305l0.026,0.075l0.013,0.037l0.002,0.006l0.009,0.093
	c0.018,0.267,0.089,0.687,0.026,0.715c-0.013,0.173-0.099,0.549-0.227,0.805c-0.081,0.125-0.12,0.27-0.209,0.375
	c-0.091,0.103-0.172,0.206-0.246,0.308c-0.362,0.341-0.705,0.541-0.959,0.628c-0.259,0.073-0.394,0.129-0.394,0.129l-0.39,0.164
	c-0.7,0.294-1.105,1.058-0.924,1.821c0.201,0.849,1.053,1.375,1.902,1.173c0,0,0.312-0.074,0.89-0.246
	c0.568-0.188,1.385-0.592,2.208-1.371c0.188-0.21,0.382-0.437,0.58-0.679c0.195-0.243,0.336-0.543,0.508-0.837
	c0.3-0.619,0.546-1.274,0.608-2.234c0.057-0.534-0.005-0.699-0.016-1.032l-0.016-0.227l-0.025-0.184l-0.005-0.018l-0.009-0.037
	l-0.019-0.073l-0.039-0.148c-0.055-0.197-0.111-0.397-0.167-0.599c-0.093-0.413-0.294-0.796-0.501-1.189
	c-0.184-0.408-0.455-0.77-0.753-1.126c-0.271-0.381-0.628-0.689-1.002-0.997c-0.351-0.336-0.796-0.555-1.231-0.803
	c-0.425-0.271-0.939-0.369-1.425-0.546c-0.512-0.142-1.159-0.182-1.741-0.225l-0.602,0.043l-0.304,0.022l-0.153,0.011
	c-0.365,0.049-0.115,0.017-0.202,0.03l-0.023,0.006l-0.047,0.012l-0.094,0.025c-0.501,0.138-1.018,0.267-1.519,0.448
	c-0.478,0.239-0.969,0.479-1.44,0.754c-0.43,0.335-0.877,0.669-1.287,1.044c-0.361,0.422-0.754,0.834-1.072,1.3
	c-0.272,0.495-0.602,0.974-0.803,1.512l-0.278,0.823c-0.093,0.273-0.184,0.546-0.214,0.885c-0.044,0.323-0.081,0.65-0.11,0.976
	l-0.036,0.486l0.024,0.342c0.054,2.183,0.994,4.493,2.542,6.188c1.535,1.719,3.668,2.909,5.934,3.268
	c0.281,0.058,0.565,0.089,0.85,0.106c0.287,0.02,0.557,0.052,0.882,0.036c0.298-0.009,0.658-0.015,0.901-0.04l0.671-0.082
	l0.188-0.027l0.097-0.019l0.194-0.039l0.385-0.08c0.247-0.062,0.501-0.118,0.739-0.188c0.482-0.134,0.949-0.283,1.4-0.444
	c2.005-0.729,3.801-1.623,5.417-2.602C25.022,59.936,25,59.862,24.986,59.838z M20.436,21.212c0-1.334,0.38-2.578,1.02-3.686
	c-3.622,0.099-6.531,3.06-6.531,6.706c0,3.709,3.007,6.716,6.716,6.716c0.266,0,0.526-0.02,0.784-0.049
	C21.184,28.315,20.436,25.131,20.436,21.212z M54.947,17.516c-0.17,0-0.337,0.013-0.503,0.025c0.872,1.481,1.38,3.201,1.38,5.043
	c0,3.283-0.599,6.031-1.632,8.318c0.248,0.028,0.5,0.045,0.755,0.045c3.709,0,6.716-3.007,6.716-6.716S58.656,17.516,54.947,17.516z
	 M29.263,12.672c2.648-0.27,5.109,0.5,7.03,1.949c1.07,0.807,2.507,0.804,3.577-0.002c1.666-1.256,3.738-2.002,5.986-2.002
	c3.318,0,6.249,1.627,8.06,4.12C51.622,10.234,45.44,5.565,38.151,5.565c-6.96,0-12.924,4.251-15.445,10.297
	C24.381,14.104,26.788,12.924,29.263,12.672z"/>
<path fill="#E576CB" d="M39.849,26.513c0,0-0.221,0.285-0.553,0.488c-0.331,0.216-0.773,0.359-1.215,0.365
	c-0.442-0.005-0.884-0.146-1.215-0.363c-0.331-0.203-0.552-0.49-0.552-0.49c-0.051-0.066-0.048-0.156,0-0.219
	c0,0,0.221-0.287,0.552-0.49c0.332-0.217,0.773-0.358,1.215-0.363c0.442,0.006,0.884,0.149,1.215,0.365
	c0.332,0.202,0.553,0.488,0.553,0.488C39.9,26.359,39.898,26.45,39.849,26.513z M42.209,32.519c0,0.09-0.014,0.206-0.041,0.292
	c-0.753,2.384-2.28,3.808-4.087,3.808c-1.806,0-3.334-1.424-4.086-3.808c-0.03-0.095-0.043-0.191-0.041-0.286
	c-0.002-0.18,0.051-0.361,0.163-0.519c0.958-1.348,2.379-2.139,3.901-2.169c0.027,0,0.056-0.001,0.084-0.001
	c1.507,0,2.976,0.807,3.944,2.17C42.152,32.156,42.209,32.335,42.209,32.519z"/>
<path fill="#2B3B47" d="M32.155,24.911h-0.004c0,0.004,0.004,0.006,0.004,0.008c0,1.101-0.893,1.993-1.993,1.993
	c-1.101,0-1.993-0.893-1.993-1.993c0-0.002,0-0.004,0-0.008h-0.009l0.024-2.802c0.089-1.021,0.934-1.824,1.978-1.824
	c1.041,0,1.886,0.803,1.974,1.824L32.155,24.911z M38.081,34.85c0.891,0,1.731-0.814,2.253-2.154
	c-0.625-0.695-1.475-1.098-2.281-1.088c-0.813,0.016-1.62,0.417-2.224,1.088C36.35,34.035,37.19,34.85,38.081,34.85z M48.153,22.109
	c-0.088-1.021-0.934-1.824-1.978-1.824c-1.04,0-1.886,0.803-1.974,1.824l-0.024,2.802h0.009c0,0.004,0,0.006,0,0.008
	c0,1.101,0.893,1.993,1.989,1.993c1.101,0,1.993-0.893,1.993-1.993c0-0.002,0-0.004,0-0.008L48.153,22.109z"/>
</svg>
