<?xml version="1.0" encoding="utf-8"?>
<!-- Generator: Adobe Illustrator 18.1.0, SVG Export Plug-In . SVG Version: 6.00 Build 0)  -->
<!DOCTYPE svg PUBLIC "-//W3C//DTD SVG 1.0//EN" "http://www.w3.org/TR/2001/REC-SVG-20010904/DTD/svg10.dtd">
<svg version="1.0" id="Layer_1" xmlns="http://www.w3.org/2000/svg" xmlns:xlink="http://www.w3.org/1999/xlink" x="0px" y="0px"
	 width="72px" height="72px" viewBox="0 0 72 72" enable-background="new 0 0 72 72" xml:space="preserve">
<path fill="#2B3B47" d="M18.9,12.1v1.1v0c0,0,0,0,0,0c0,0.4-0.3,0.8-0.8,0.8c-0.4,0-0.8-0.3-0.8-0.8c0,0,0,0,0,0h0v-1.1h0
	c0-0.4,0.4-0.7,0.7-0.7C18.6,11.4,18.9,11.7,18.9,12.1L18.9,12.1z M27.7,12.1c0-0.4-0.4-0.7-0.7-0.7c-0.4,0-0.7,0.3-0.7,0.7h0v1.1h0
	c0,0,0,0,0,0c0,0.4,0.3,0.8,0.8,0.8c0.4,0,0.8-0.3,0.8-0.8c0,0,0,0,0,0v0L27.7,12.1L27.7,12.1z M46.6,11.3c0-0.4-0.4-0.7-0.8-0.7
	c-0.4,0-0.7,0.3-0.8,0.7h0v1.1h0c0,0,0,0,0,0c0,0.4,0.3,0.8,0.8,0.8c0.4,0,0.8-0.3,0.8-0.8c0,0,0,0,0,0h0L46.6,11.3L46.6,11.3z
	 M55.7,11.3c0-0.4-0.4-0.7-0.8-0.7c-0.4,0-0.7,0.3-0.8,0.7h0v1.1h0c0,0,0,0,0,0c0,0.4,0.3,0.8,0.8,0.8c0.4,0,0.8-0.3,0.8-0.8
	c0,0,0,0,0,0l0,0L55.7,11.3L55.7,11.3z"/>
</svg>
