<?xml version="1.0" encoding="utf-8"?>
<!-- Generator: Adobe Illustrator 18.1.0, SVG Export Plug-In . SVG Version: 6.00 Build 0)  -->
<!DOCTYPE svg PUBLIC "-//W3C//DTD SVG 1.0//EN" "http://www.w3.org/TR/2001/REC-SVG-20010904/DTD/svg10.dtd">
<svg version="1.0" id="Layer_1" xmlns="http://www.w3.org/2000/svg" xmlns:xlink="http://www.w3.org/1999/xlink" x="0px" y="0px"
	 width="72px" height="72px" viewBox="0 0 72 72" enable-background="new 0 0 72 72" xml:space="preserve">
<path fill="#FF929D" d="M22.6,19C22.6,19,22.6,19,22.6,19c-0.8,0-1.5-0.4-1.9-1.1c-0.1-0.2,0-0.4,0.1-0.5c0.2-0.1,0.4,0,0.5,0.1
	c0.3,0.5,0.8,0.7,1.3,0.7c0,0,0,0,0,0c0.5,0,1-0.3,1.3-0.7c0.1-0.2,0.3-0.2,0.5-0.1c0.2,0.1,0.2,0.3,0.1,0.5
	C24.1,18.6,23.4,19,22.6,19z M49.7,19.9c0.1-0.1,0.2-0.4,0-0.5c-0.1-0.1-0.4-0.2-0.5,0c-0.7,0.6-1.6,0.6-2.3,0
	c-0.1-0.1-0.4-0.1-0.5,0c-0.1,0.1-0.1,0.4,0,0.5c0.5,0.4,1.1,0.7,1.6,0.7C48.6,20.5,49.2,20.3,49.7,19.9z"/>
</svg>
