<svg xmlns="http://www.w3.org/2000/svg" viewBox="0 0 512 512" enable-background="new 0 0 512 512"><path fill="#2B3B47" d="M189.904 219v33.622h-.05c0 .05.05.068.05.094 0 13.204-10.713 23.916-23.916 23.916-13.204 0-23.916-10.713-23.916-23.916v-.094h-.102v-33.62h.288c1.067-12.248 11.204-21.885 23.73-21.885 12.493 0 22.63 9.637 23.68 21.884h.236zm179.892 0c-1.052-12.246-11.188-21.883-23.68-21.883-12.527 0-22.663 9.637-23.73 21.884h-.29v33.623h.103v.094c0 13.204 10.71 23.916 23.914 23.916s23.916-10.713 23.916-23.916c0-.026-.05-.043-.05-.094h.05v-33.62h-.234z"/></svg>