<?xml version="1.0" encoding="utf-8"?>
<!-- Generator: Adobe Illustrator 18.0.0, SVG Export Plug-In . SVG Version: 6.00 Build 0)  -->
<!DOCTYPE svg PUBLIC "-//W3C//DTD SVG 1.1 Tiny//EN" "http://www.w3.org/Graphics/SVG/1.1/DTD/svg11-tiny.dtd">
<svg version="1.1" baseProfile="tiny" id="Layer_1" xmlns="http://www.w3.org/2000/svg" xmlns:xlink="http://www.w3.org/1999/xlink"
	 x="0px" y="0px" width="511.9px" height="511.9px" viewBox="0 0 511.9 511.9" xml:space="preserve">
<path fill="#EDC0A2" d="M332.1,457.7c-1.7,0-3.4-0.1-5.1-0.4c-19.9-2.8-33.7-21.1-30.9-41l31.9-227.9l9.4-129.9
	c1.5-20,19.1-35.4,38.9-33.6c20,1.4,26.3,17,25.5,40.9c-0.8,23.9,5.9,28.5,4.8,43.8c-1.1,15.3-3.8,68.5-6.3,86.5
	S368,426.3,368,426.3C365.5,444.5,349.9,457.7,332.1,457.7z"/>
<path fill="#F2C7AA" d="M310,475.1c-2,0-4-0.2-6.1-0.5c-19.8-3.3-33.1-22.1-29.8-41.9l37.3-222.3c-2.7-10.3-8.7-31.8-18.4-55.4
	c-17.3-42.1-35-105-35.7-107.7c-5.4-19.3,5.9-39.4,25.2-44.8c19.3-5.3,27.2,9.7,34.8,26.4c6.9,15.1,19.8,29,23.6,41.8
	c6.4,21.3,9.5,32.9,19.3,56.7c15.9,38.9,23.1,65.3,25.2,80.7s-39.7,236.6-39.7,236.6C342.8,462.6,327.4,475.1,310,475.1z"/>
<path fill="#FFD3B6" d="M400.5,324.8c0.4-4.2,0.6-8.5,0.6-12.8c0-90-79.7-184.1-88.8-194.5c-0.8-0.9-1.6-1.8-2.5-2.6
	c0,0-40.1-38.4-56.2-53.8c-16.1-15.5-25.8-15-40.8-23.5c-14.3-8.1-36.4-25.9-51.6-10.1c-15.1,15.8-14.6,40.9,1.2,56.1l49.6,47.5
	l41.6,39.8c2.5,3,5.6,6.8,9.1,11.3c-27.6-7.3-57.1-5.4-87.5-0.5c-18.5,3-50.1,21.5-61.4,36c-6.7,8.6-12.8,24.1-24.1,35.1
	c-10.5,10.1-26.6,23.8-11.7,47.2c14.8,23.4,48.9,23.4,72.4,8.6l53.5-42.1c33-5.4,69.3,25.8,78.1,58.7c9.4,35.1-11.4,71.3-46.5,80.7
	c-30.5,8.2-62.7-6.5-76.4-34.9c-12-25-42.1-35.5-67-23.5c-25,12-11.8,35.2,0.3,60.2c6.8,14.1,7.3,38.8,17.3,50
	c27.5,30.9,73.6,52.8,107.6,52.8c0,0,0,0,0.1,0c69.4-0.1,110.9-5.5,145.9-40.5c31-31,38.5-81.7,38.5-125.8
	C401.7,337.7,401.3,331.2,400.5,324.8z"/>
</svg>
