<?xml version="1.0" encoding="utf-8"?>
<!-- Generator: Adobe Illustrator 18.1.0, SVG Export Plug-In . SVG Version: 6.00 Build 0)  -->
<!DOCTYPE svg PUBLIC "-//W3C//DTD SVG 1.0//EN" "http://www.w3.org/TR/2001/REC-SVG-20010904/DTD/svg10.dtd">
<svg version="1.0" id="Layer_1" xmlns="http://www.w3.org/2000/svg" xmlns:xlink="http://www.w3.org/1999/xlink" x="0px" y="0px"
	 width="72px" height="72px" viewBox="0 0 72 72" enable-background="new 0 0 72 72" xml:space="preserve">
<path fill="#FFD3B6" d="M56.3,37.9l0.6-5.2c0-11.6-9.4-21-21-21c-11.6,0-21,9.4-21,21l0.6,5.2c-2.8,0.3-5,2.7-5,5.5
	c0,3.1,2.5,5.6,5.6,5.6c0.3,0,0.6,0,0.8-0.1c2.3,8.4,9.9,14.5,19,14.5c9.1,0,16.7-6.2,19-14.5c0.3,0,0.6,0.1,0.9,0.1
	c3.1,0,5.6-2.5,5.6-5.6C61.4,40.5,59.2,38.1,56.3,37.9z"/>
<path fill="#EDC0A2" d="M33.4,61.9c-2.7,0-5.3-0.5-7.6-1.3c3,1.8,6.5,2.9,10.2,2.9c10.8,0,19.5-8.6,19.7-19.4
	C53.3,54.3,44.3,61.9,33.4,61.9z"/>
<path fill="#E5AB83" d="M37.3,11.8c0,0,0.1,0,0.1,0c0.1,0.1,0.4,0.1,0.5,0.2c0.2,0.1,0.4,0.2,0.6,0.4c0.2,0.2,0.4,0.4,0.5,0.6
	c0.3,0.5,0.5,1.1,0.5,1.9c0,0.4,0,0.8-0.2,1.2c-0.1,0.4-0.2,0.8-0.5,1.2c-0.2,0.4-0.5,0.7-0.8,1c-0.3,0.3-0.7,0.5-1,0.7
	c-0.4,0.2-0.8,0.3-1.2,0.4c-0.4,0.1-0.8,0.1-1.2,0.1c-0.8,0-1.5-0.1-2-0.2c-0.5-0.1-0.8-0.2-0.8-0.2l0,0c-0.1,0-0.1,0-0.2,0.1
	c-0.1,0.1,0,0.2,0,0.2c0,0,0.2,0.2,0.7,0.5c0.2,0.2,0.5,0.3,0.8,0.5c0.3,0.2,0.7,0.4,1.2,0.5c0.5,0.1,1,0.3,1.5,0.3
	c0.6,0.1,1.2,0,1.8-0.1c1.3-0.3,2.5-1.2,3.4-2.4c0.8-1.2,1.3-2.6,1.3-4c0-0.7-0.1-1.4-0.4-2.1c0,0,0,0,0,0c-0.3-0.6-0.6-1.3-1.1-1.7
	c-0.5-0.5-1-0.8-1.5-1c-0.2-0.1-0.5-0.2-0.7-0.2c-0.2-0.1-0.5-0.1-0.7-0.1c-0.1,0-0.2,0-0.3,0c-0.1,0-0.1,0-0.2,0
	c-0.1,0-0.2,0-0.3,0c-0.1,0-0.2,0-0.2,0c-0.1,0-0.1,0-0.2,0c-1.6-0.2-4.2,0.3-6,2.8c1.6-0.4,3.2-0.6,4.8-0.6
	C36.4,11.7,36.8,11.7,37.3,11.8C37.3,11.8,37.3,11.8,37.3,11.8"/>
<path fill="#E5AB83" d="M36,47.8C36,47.8,36,47.8,36,47.8c-1.4,0-2.7-0.7-3.4-1.9c-0.3-0.4-0.1-0.9,0.3-1.2c0.4-0.3,0.9-0.1,1.2,0.3
	c0.4,0.7,1.2,1.1,2,1.1h0c0.8,0,1.6-0.4,2-1.1c0.3-0.4,0.8-0.5,1.2-0.3c0.4,0.3,0.5,0.8,0.3,1.2C38.7,47.1,37.4,47.8,36,47.8z"/>
<path fill="#2B3B47" d="M26.3,39.2v3.5h0c0,0,0,0,0,0c0,1.4-1.1,2.5-2.5,2.5s-2.5-1.1-2.5-2.5c0,0,0,0,0,0h0v-3.5h0
	c0.1-1.3,1.2-2.3,2.5-2.3C25.1,36.9,26.1,37.9,26.3,39.2L26.3,39.2z"/>
<path fill="#2B3B47" d="M50.7,39.2c-0.1-1.3-1.2-2.3-2.5-2.3c-1.3,0-2.4,1-2.5,2.3h0v3.5h0c0,0,0,0,0,0c0,1.4,1.1,2.5,2.5,2.5
	c1.4,0,2.5-1.1,2.5-2.5c0,0,0,0,0,0l0,0L50.7,39.2L50.7,39.2z"/>
<path fill="#2B3B47" d="M36,58.8c-3.6,0-6.8-1.8-8.6-4.9c-0.3-0.4-0.3-1,0-1.4c0.2-0.4,0.7-0.7,1.2-0.7h14.9c0.5,0,0.9,0.3,1.2,0.7
	c0.2,0.4,0.2,1,0,1.4C42.8,56.9,39.6,58.8,36,58.8z"/>
<path fill="#959DA3" d="M23.2,39.3v0.9l0,0v0c0,0.3-0.3,0.6-0.6,0.6c-0.3,0-0.6-0.3-0.6-0.6v0h0v-0.9h0c0-0.3,0.3-0.6,0.6-0.6
	C22.9,38.7,23.2,39,23.2,39.3L23.2,39.3z M47.8,39.3c0-0.3-0.3-0.6-0.6-0.6c-0.3,0-0.6,0.3-0.6,0.6h0v0.9h0v0c0,0.3,0.3,0.6,0.6,0.6
	c0.3,0,0.6-0.3,0.6-0.6v0l0,0L47.8,39.3L47.8,39.3z"/>
<path fill="#FF7DDA" d="M40.9,57.5c-1.3-1.2-3.1-1.2-5-1.2c-1.9,0-3.7-0.1-5,1.2c1.5,0.8,3.2,1.3,5,1.3
	C37.8,58.8,39.5,58.3,40.9,57.5z"/>
</svg>
