<?xml version="1.0" encoding="utf-8"?>
<!-- Generator: Adobe Illustrator 18.0.0, SVG Export Plug-In . SVG Version: 6.00 Build 0)  -->
<!DOCTYPE svg PUBLIC "-//W3C//DTD SVG 1.1 Tiny//EN" "http://www.w3.org/Graphics/SVG/1.1/DTD/svg11-tiny.dtd">
<svg version="1.1" baseProfile="tiny" id="Layer_1" xmlns="http://www.w3.org/2000/svg" xmlns:xlink="http://www.w3.org/1999/xlink"
	 x="0px" y="0px" width="511.9px" height="511.9px" viewBox="0 0 511.9 511.9" xml:space="preserve">
<path fill="#FF473E" d="M427,119.7C427,53.6,373.4,0,307.3,0c-48.8,0-27.5,5.3-61.4,5.3c-33.9,0-11.5-5.3-67.8-5.3
	C112.1,0,58.5,53.6,58.5,119.7c0,0,0,0,0,0c-8.2,80.4-1,203.2,18.4,257.8c23.2,65.4,63.2,83.7,158.2,125.4
	C340.1,548.9,427,419.1,427,119.7C427,119.7,427,119.7,427,119.7z"/>
</svg>
