<?xml version="1.0" encoding="iso-8859-1"?>
<!-- Generator: Adobe Illustrator 18.1.1, SVG Export Plug-In . SVG Version: 6.00 Build 0)  -->
<!DOCTYPE svg PUBLIC "-//W3C//DTD SVG 1.1//EN" "http://www.w3.org/Graphics/SVG/1.1/DTD/svg11.dtd">
<svg version="1.1" xmlns="http://www.w3.org/2000/svg" xmlns:xlink="http://www.w3.org/1999/xlink" x="0px" y="0px"
	 viewBox="0 0 512 512" enable-background="new 0 0 512 512" xml:space="preserve">
<g id="Layer_2">
	<path fill="#FFB636" d="M473.417,205.623L364.902,314.137l0,0l-54.257,54.257L143.114,200.863l54.257-54.257L305.886,38.091
		c46.263-46.262,121.269-46.262,167.531,0C519.679,84.354,519.679,159.36,473.417,205.623z"/>
</g>
<g id="Layer_3">
	<path fill="#FF3131" d="M315.438,363.303l0.149,0.149L207.073,471.967c-46.262,46.263-121.269,46.263-167.531,0
		c-46.263-46.262-46.263-121.269,0-167.531l108.515-108.515l0.149,0.149c46.52-41.403,117.837-39.81,162.44,4.793
		C355.248,245.466,356.841,316.783,315.438,363.303z"/>
</g>
<g id="Layer_4">
	<path fill="#FF9292" d="M123.307,336.745c-8.269,0-16.538-3.154-22.846-9.463c-12.618-12.618-12.618-33.075,0-45.693l74.404-74.404
		c12.617-12.618,33.074-12.618,45.692,0c12.618,12.617,12.618,33.075,0,45.692l-74.404,74.405
		C139.845,333.591,131.576,336.745,123.307,336.745z"/>
</g>
</svg>
