<?xml version="1.0" encoding="iso-8859-1"?>
<!-- Generator: Adobe Illustrator 18.1.1, SVG Export Plug-In . SVG Version: 6.00 Build 0)  -->
<!DOCTYPE svg PUBLIC "-//W3C//DTD SVG 1.1//EN" "http://www.w3.org/Graphics/SVG/1.1/DTD/svg11.dtd">
<svg version="1.1" xmlns="http://www.w3.org/2000/svg" xmlns:xlink="http://www.w3.org/1999/xlink" x="0px" y="0px"
	 viewBox="0 0 72 72" enable-background="new 0 0 72 72" xml:space="preserve">
<g id="Layer_2">
	<path fill="#E5E4DF" d="M15.752,70.729l-0.788,0.788c-0.016,0.016-0.036,0.022-0.054,0.036c-0.018,0.021-0.029,0.047-0.048,0.066
		c-1.276,1.276-5.561-0.941-9.572-4.952c-4.011-4.011-6.228-8.296-4.952-9.572c0.019-0.019,0.045-0.03,0.066-0.048
		c0.013-0.017,0.02-0.038,0.036-0.054l0.788-0.788c0.203-0.203,0.532-0.203,0.735,0l0.806,0.806
		c1.928,0.662,4.589,2.483,7.141,5.035s4.373,5.213,5.035,7.141l0.807,0.807C15.955,70.196,15.955,70.526,15.752,70.729z"/>
</g>
<g id="Layer_1">
</g>
</svg>
