<?xml version="1.0" encoding="utf-8"?>
<!-- Generator: Adobe Illustrator 18.1.0, SVG Export Plug-In . SVG Version: 6.00 Build 0)  -->
<!DOCTYPE svg PUBLIC "-//W3C//DTD SVG 1.0//EN" "http://www.w3.org/TR/2001/REC-SVG-20010904/DTD/svg10.dtd">
<svg version="1.0" id="Layer_1" xmlns="http://www.w3.org/2000/svg" xmlns:xlink="http://www.w3.org/1999/xlink" x="0px" y="0px"
	 width="72px" height="72px" viewBox="0 0 72 72" enable-background="new 0 0 72 72" xml:space="preserve">
<path fill="#FFA9BA" d="M67,18.7c-7.6-8.9-20.9-9.4-29-1.3c0,0,0,0,0,0c-1.1,1.1-2.9,1.1-4,0c0,0,0,0,0,0
	c-7.7-7.7-20.1-7.7-27.9-0.1c-6.6,6.5-7.6,17-2.6,24.8c1.6,2.4,3.6,4.3,5.7,5.7l25.3,20.5c0.9,0.7,2.2,0.7,3.1,0l25.2-20.5
	c2.1-1.4,4-3.2,5.6-5.6C73.2,35.1,72.6,25.3,67,18.7z"/>
<path fill="#FF6E83" d="M60.2,23.4c-5.9-7-16.3-7.3-22.6-1c0,0,0,0,0,0c-0.9,0.9-2.3,0.9-3.1,0c0,0,0,0,0,0c-6-6-15.7-6-21.7,0
	c-5.1,5.1-6,13.3-2,19.3c1.2,1.9,2.8,3.4,4.5,4.5l19.8,16c0.7,0.6,1.7,0.6,2.4,0l19.6-16c1.6-1.1,3.1-2.5,4.3-4.3
	C65,36.2,64.6,28.6,60.2,23.4z"/>
<path fill="#FF473E" d="M50.7,30c-3.6-4.2-9.9-4.4-13.8-0.6c0,0,0,0,0,0c-0.5,0.5-1.4,0.5-1.9,0c0,0,0,0,0,0
	c-3.7-3.7-9.6-3.7-13.2,0c-3.1,3.1-3.6,8.1-1.2,11.8c0.8,1.2,1.7,2,2.7,2.7l12,9.7c0.4,0.3,1,0.3,1.5,0l12-9.8
	c1-0.7,1.9-1.5,2.6-2.6C53.7,37.8,53.4,33.2,50.7,30z"/>
</svg>
