<svg xmlns="http://www.w3.org/2000/svg" viewBox="0 0 512 512" enable-background="new 0 0 512 512"><path fill="#E7EDF1" d="M256 66.3c-93.73 0-169.713 81.728-169.713 175.458v230.864C92.757 484.748 105.527 493 120.23 493c14.7 0 27.47-8.253 33.942-20.376 6.47 12.123 19.24 20.376 33.943 20.376s27.472-8.253 33.943-20.376C228.528 484.747 241.298 493 256 493c14.063 0 26.343-7.56 33.048-18.828C295.754 485.44 308.034 493 322.096 493c14.702 0 27.472-8.253 33.943-20.376h1.787c6.47 12.123 19.24 20.376 33.942 20.376 14.7 0 27.47-8.253 33.942-20.376V241.758C425.712 148.03 349.73 66.3 256 66.3z"/></svg>