<?xml version="1.0" encoding="iso-8859-1"?>
<!-- Generator: Adobe Illustrator 19.2.1, SVG Export Plug-In . SVG Version: 6.00 Build 0)  -->
<!DOCTYPE svg PUBLIC "-//W3C//DTD SVG 1.1//EN" "http://www.w3.org/Graphics/SVG/1.1/DTD/svg11.dtd">
<svg version="1.1" xmlns="http://www.w3.org/2000/svg" xmlns:xlink="http://www.w3.org/1999/xlink" x="0px" y="0px"
	 viewBox="0 0 512 512" enable-background="new 0 0 512 512" xml:space="preserve">
<g id="Layer_2">
	<path fill="#684321" d="M231.918,415.674h-90.452c-4.682,0-8.477-3.796-8.477-8.477v0c0-20.826,16.882-37.708,37.708-37.708h61.221
		V415.674z"/>
</g>
<g id="Layer_3">
	<path fill="#AF773F" d="M432.876,332.56c-1.522-22.992-21.453-40.397-44.444-38.875c-2.178,0.144-4.432,0.455-6.432,0.915v-56.682
		C382,168.951,326.21,113,257.242,113h-1.071c-18.104-1.348-24.257-36.76-39.242-52.328c0.63-1.378,1.225-2.784,1.728-4.241
		c1.468-4.185,2.325-8.65,2.554-13.114c0.232-4.464-0.181-8.929-1.233-13.114c-1.03-4.185-2.678-8.091-4.616-11.44
		c-0.955-1.674-2.023-3.209-3.026-4.569c-1.029-1.36-2.023-2.546-2.941-3.523c-0.895-0.977-1.706-1.744-2.287-2.267
		c-0.278-0.262-0.535-0.462-0.692-0.597c-0.161-0.135-0.245-0.205-0.245-0.205c-1.977-1.66-4.919-1.716-6.967,0
		c0,0-0.083,0.07-0.244,0.205c-0.157,0.135-0.414,0.336-0.692,0.597c-0.581,0.523-1.392,1.29-2.287,2.267
		c-0.918,0.977-1.912,2.162-2.941,3.523c-1.003,1.36-2.07,2.895-3.026,4.569c-0.557,0.963-1.087,1.977-1.589,3.025
		c-1.037-3.877-2.588-7.499-4.4-10.629c-0.955-1.674-2.023-3.209-3.026-4.569c-1.029-1.36-2.023-2.546-2.941-3.523
		c-0.895-0.977-1.706-1.744-2.287-2.267c-0.278-0.262-0.535-0.462-0.692-0.597C174.923,0.07,174.84,0,174.84,0
		c-1.977-1.66-4.92-1.716-6.967,0c0,0-0.083,0.07-0.245,0.205c-0.157,0.135-0.414,0.336-0.692,0.597
		c-0.581,0.523-1.392,1.29-2.287,2.267c-0.918,0.977-1.912,2.162-2.941,3.523c-1.003,1.36-2.07,2.895-3.026,4.569
		c-1.938,3.348-3.586,7.254-4.616,11.44c-1.052,4.185-1.465,8.649-1.233,13.114c0.132,2.572,0.479,5.143,1.025,7.662
		c-22.12,0.66-41.811,8.768-55.194,21.226c-0.038,0.028-0.075,0.05-0.113,0.08c-7.893,6.24-22.868,26.043-33.397,37.89
		c-16.521,14.128-8.031,39.067,15.472,40.008h0c30.024,10.252,60.733,30.441,64.214,96.51l-3.69,38.24
		c-3.761,43.793,17.473,85.42,53.779,108.454c-20.038,0.888-35.93,17.414-35.93,37.67v0.035c0,4.682,3.633,8.512,8.315,8.512
		h123.538c1.279,0,2.559,0,3.84,0h40.509c-0.289,0-0.569,0.383-0.873,0.547c-4.185,2.261-9.727,4.368-16.079,5.933
		c-3.158,0.822-6.46,1.579-9.908,2.174c-3.425,0.617-6.943,1.14-10.508,1.551c-7.118,0.84-14.34,1.347-21.352,1.604
		c-7.01,0.26-13.793,0.298-20.124,0.351c-6.338,0.007-12.221-0.102-17.456-0.234c-5.247-0.152-9.844-0.344-13.646-0.498
		c-3.805-0.138-6.804-0.261-8.855-0.361c-2.048-0.093-3.141-0.142-3.141-0.142l-1.525-0.07c-15.466-0.656-29.099,10.666-31.048,26.3
		c-2.052,16.463,9.63,31.471,26.093,33.523c0,0,1.15,0.143,3.307,0.412c2.161,0.26,5.33,0.641,9.364,1.126
		c4.041,0.485,8.959,1.086,14.628,1.703c5.678,0.599,12.105,1.234,19.179,1.795c7.081,0.511,14.803,1.094,23.092,1.454
		c8.287,0.36,17.152,0.482,26.529,0.149c4.685-0.158,9.508-0.456,14.456-0.925c4.939-0.444,10.026-1.118,15.22-2.008
		c10.381-1.706,21.37-4.454,32.48-9.179c5.544-2.369,11.107-5.263,16.474-8.769c5.364-3.499,10.555-7.578,15.248-12.19
		c4.702-4.6,8.906-9.694,12.486-14.989c3.587-5.296,6.555-10.777,8.992-16.201c0.585-1.353,1.199-2.713,1.735-4.059
		c0.52-1.349,1.037-2.692,1.552-4.028c0.937-2.66,1.824-5.316,2.598-7.9c1.56-5.181,2.804-10.23,3.717-15.041
		c1.891-9.674,2.958-18.48,3.582-26.5c0.729-8.009,0.935-15.179,1.171-21.484c0.038-1.572,0.075-3.094,0.11-4.562
		c0.007-1.454,0.027-2.858,0.063-4.211c0.072-2.716,0.05-5.15,0.074-7.389c0-2.303-0.001-4.359-0.001-6.148
		c0.002-0.848,0.003-1.633,0.005-2.352c0.015-0.662,0.029-1.263,0.042-1.802c0.05-2.154,0.076-3.303,0.076-3.303
		C432.98,335.073,432.957,333.783,432.876,332.56z"/>
</g>
<g id="Layer_4">
	<path fill="#684321" d="M245.059,144.989c0,0,0.688-0.061,1.977-0.175c0.645-0.057,1.44-0.127,2.375-0.21
		c0.468-0.039,0.971-0.082,1.508-0.127c0.551-0.013,1.137-0.026,1.756-0.04c1.246-0.025,2.626-0.053,4.129-0.084
		c1.487,0.033,3.095,0.11,4.823,0.175c1.728,0.065,3.549,0.292,5.491,0.449c0.974,0.065,1.957,0.222,2.966,0.379
		c1.012,0.154,2.047,0.312,3.104,0.474c2.112,0.35,4.289,0.844,6.564,1.305c1.121,0.296,2.26,0.596,3.417,0.902
		c1.16,0.304,2.337,0.623,3.505,1.022c1.178,0.38,2.371,0.765,3.58,1.155c1.202,0.413,2.395,0.891,3.617,1.344
		c0.61,0.231,1.223,0.463,1.84,0.696c0.615,0.238,1.209,0.529,1.819,0.794c1.216,0.546,2.444,1.097,3.682,1.652
		c4.863,2.402,9.827,5.098,14.568,8.336c4.717,3.265,9.305,6.9,13.642,10.848c4.258,4.027,8.243,8.356,11.889,12.868
		c3.592,4.552,6.767,9.325,9.502,14.143c1.291,2.449,2.6,4.843,3.639,7.301c0.533,1.222,1.11,2.409,1.585,3.623
		c0.451,1.222,0.897,2.43,1.337,3.621c0.911,2.368,1.55,4.761,2.232,7.043c0.553,2.322,1.147,4.546,1.57,6.713
		c0.783,4.349,1.369,8.343,1.58,11.91c0.045,1.791-0.012,3.474-0.16,5.026c-0.2,1.557-0.484,2.985-0.801,4.265
		c-0.144,0.639-0.34,1.245-0.493,1.81c-0.207,0.568-0.396,1.096-0.604,1.587c-0.401,0.981-0.801,1.807-1.151,2.472
		c-0.347,0.665-0.667,1.169-0.884,1.508c-0.206,0.339-0.345,0.512-0.345,0.512c-0.673,0.838-1.899,0.972-2.737,0.299
		c-0.088-0.071-0.169-0.148-0.241-0.23l-0.06-0.069c0,0-0.148-0.169-0.371-0.495c-0.234-0.326-0.579-0.807-0.958-1.428
		c-0.794-1.24-1.679-3.04-2.711-5.263c-0.502-1.113-0.977-2.337-1.411-3.663c-0.512-1.318-0.964-2.74-1.341-4.266
		c-0.38-1.518-0.784-3.134-1.21-4.838c-0.398-1.703-1.013-3.447-1.538-5.283c-0.554-1.83-1.225-3.706-1.872-5.654
		c-0.373-0.959-0.77-1.927-1.135-2.92c-0.357-0.997-0.728-2.005-1.175-3c-1.635-4.041-3.636-8.169-5.782-12.406
		c-2.271-4.171-4.754-8.416-7.582-12.557c-2.862-4.113-6.046-8.114-9.496-11.903c-3.479-3.759-7.221-7.294-11.128-10.537
		c-3.953-3.181-8.006-6.144-12.132-8.748c-2.108-1.213-4.144-2.501-6.236-3.58c-1.04-0.552-2.057-1.131-3.089-1.648
		c-1.042-0.498-2.072-0.989-3.088-1.474c-2.023-1.009-4.093-1.737-6.041-2.619c-1.995-0.738-3.918-1.51-5.803-2.136
		c-3.774-1.241-7.299-2.25-10.469-3.026c-1.595-0.359-3.089-0.695-4.469-1.006c-1.383-0.253-2.653-0.485-3.8-0.694
		c-0.578-0.105-1.125-0.205-1.64-0.299c-0.532-0.075-1.03-0.146-1.494-0.212c-0.929-0.13-1.72-0.24-2.361-0.33
		c-1.282-0.179-1.966-0.274-1.966-0.274c-0.836-0.117-1.42-0.889-1.303-1.726C243.78,145.582,244.366,145.051,245.059,144.989z
		 M264.321,179.454c-1.021,1.3-0.794,3.181,0.505,4.201c0,0,0.579,0.455,1.665,1.308c1.066,0.842,2.764,2.08,4.621,3.662
		c0.95,0.798,2.007,1.635,3.133,2.619c1.115,1.013,2.346,2.065,3.643,3.203c1.273,1.17,2.594,2.45,3.996,3.771
		c1.361,1.361,2.793,2.792,4.286,4.284c2.872,3.093,5.927,6.459,8.924,10.195c3.049,3.688,5.937,7.824,8.826,12.114
		c2.869,4.313,5.516,8.952,8.045,13.717c2.486,4.794,4.715,9.794,6.701,14.869c1.993,5.076,3.578,10.289,4.929,15.451
		c1.351,5.168,2.263,10.333,3.108,15.32c0.348,2.508,0.717,4.966,0.966,7.388c0.118,1.211,0.32,2.401,0.405,3.587
		c0.102,1.185,0.197,2.356,0.321,3.51c0.143,1.153,0.164,2.298,0.251,3.423c0.079,1.127,0.157,2.236,0.234,3.327
		c0.065,2.185,0.215,4.302,0.245,6.338c0.016,1.02,0.032,2.018,0.047,2.993c0.025,0.978,0.049,1.934,0.018,2.865
		c-0.013,0.933-0.025,1.843-0.038,2.727c0,0.887,0.004,1.75-0.049,2.582c-0.198,3.33-0.23,6.255,0.484,8.852
		c0.169,0.647,0.363,1.27,0.59,1.869c0.177,0.589,0.42,1.16,0.622,1.69c0.465,1.072,0.952,2.018,1.415,2.809
		c0.969,1.591,1.747,2.53,1.747,2.53l0.028,0.035c0.693,0.836,1.883,1.146,2.924,0.684c0,0,1.094-0.486,2.655-1.57
		c1.495-1.097,3.506-2.796,5.038-5.251c0.777-1.223,1.496-2.62,2.065-4.186c0.522-1.574,0.812-3.325,1.234-5.183
		c0.754-3.728,1.424-7.984,1.869-12.667c0.152-1.169,0.194-2.368,0.266-3.59c0.065-1.224,0.131-2.47,0.198-3.738
		c0.011-2.537,0.072-5.169-0.063-7.867c-0.212-5.4-0.863-11.079-1.945-16.874c-0.26-1.45-0.587-2.9-0.906-4.362
		c-0.165-0.729-0.331-1.461-0.498-2.195c-0.193-0.728-0.386-1.458-0.579-2.191c-0.399-1.462-0.774-2.938-1.203-4.406
		c-0.466-1.457-0.935-2.922-1.406-4.392c-1.995-5.839-4.265-11.676-6.971-17.304c-2.723-5.615-5.698-11.097-9.039-16.223
		c-0.809-1.296-1.698-2.536-2.544-3.789l-1.287-1.861c-0.45-0.603-0.9-1.204-1.348-1.803c-0.904-1.191-1.772-2.394-2.69-3.547
		c-0.936-1.137-1.865-2.266-2.786-3.385c-3.754-4.414-7.614-8.462-11.512-12.028c-1.903-1.827-3.862-3.487-5.754-5.083
		c-1.904-1.583-3.835-3.002-5.631-4.413c-1.877-1.319-3.63-2.626-5.366-3.774c-1.764-1.113-3.416-2.183-4.992-3.147
		c-1.606-0.924-3.091-1.803-4.487-2.574c-1.409-0.767-2.758-1.423-3.94-2.035c-1.19-0.615-2.25-1.151-3.163-1.525
		c-0.916-0.403-1.694-0.745-2.326-1.023c-1.268-0.546-1.945-0.837-1.945-0.837C266.641,178.031,265.177,178.364,264.321,179.454z
		 M72.069,123.952c0.428,0.736,1.372,0.985,2.108,0.556c0,0,0.485-0.283,1.395-0.812c0.894-0.534,2.23-1.324,3.896-2.457
		c3.316-2.21,7.881-5.628,12.925-10.217c2.515-2.292,5.151-4.86,7.836-7.615c2.686-2.756,5.431-5.683,8.228-8.611
		c1.41-1.46,2.829-2.906,4.268-4.334c1.445-1.418,2.936-2.772,4.43-4.101c3.033-2.592,6.188-4.933,9.591-6.773
		c3.365-1.916,7.013-3.273,10.753-4.384l0.174-0.054c0.047-0.013-0.257,0.061-0.105,0.024l0.05-0.012l0.099-0.025l0.396-0.099
		l0.79-0.198c0.512-0.124,1.083-0.281,1.544-0.376c0.903-0.157,1.718-0.398,2.677-0.539c1.879-0.331,3.758-0.557,5.623-0.697
		c3.728-0.294,7.4-0.214,10.895,0.136c3.497,0.335,6.827,0.894,9.885,1.609c6.125,1.41,11.199,3.235,14.703,4.646
		c1.75,0.714,3.133,1.292,4.05,1.724c0.903,0.419,1.385,0.642,1.385,0.642l0.109,0.051c0.558,0.257,1.24,0.161,1.708-0.292
		c0.608-0.589,0.624-1.56,0.035-2.168c0,0-0.107-0.111-0.315-0.325c-0.201-0.203-0.493-0.51-0.892-0.878
		c-0.798-0.737-1.966-1.823-3.561-3.064c-3.174-2.496-8.007-5.755-14.491-8.558c-3.237-1.401-6.895-2.641-10.9-3.58
		c-2-0.482-4.098-0.816-6.256-1.122c-2.165-0.254-4.399-0.417-6.683-0.435c-0.572-0.004-1.146-0.008-1.722-0.012
		c-0.577,0.027-1.155,0.054-1.736,0.081c-1.164,0.037-2.331,0.168-3.509,0.283c-1.164,0.104-2.45,0.331-3.678,0.523
		c-0.599,0.105-1.078,0.22-1.625,0.329l-0.798,0.166l-0.399,0.083l-0.354,0.08l-0.219,0.057c-4.674,1.132-9.393,2.884-13.753,5.312
		c-2.19,1.197-4.25,2.593-6.233,4.036c-1.98,1.455-3.78,3.063-5.523,4.663c-3.426,3.252-6.406,6.656-9.061,9.977
		c-2.68,3.311-5.077,6.546-7.342,9.568c-2.26,3.028-4.374,5.864-6.36,8.456c-1.983,2.591-3.846,4.927-5.511,7.004
		c-1.678,2.056-3.174,3.851-4.407,5.312c-0.621,0.721-1.173,1.375-1.647,1.955c-0.5,0.574-0.926,1.061-1.27,1.457
		c-0.681,0.803-1.044,1.231-1.044,1.231C71.817,122.663,71.732,123.373,72.069,123.952z M107.258,128.735
		c-0.491-0.028-0.979,0.214-1.244,0.668c-0.376,0.644-0.159,1.472,0.485,1.848c0,0,0.318,0.186,0.915,0.535
		c0.606,0.328,1.472,0.848,2.602,1.441c2.265,1.203,5.557,2.86,9.773,4.441c2.117,0.767,4.452,1.543,7.014,2.159
		c2.562,0.608,5.332,1.117,8.27,1.361c2.938,0.232,6.038,0.222,9.186-0.139c3.155-0.318,6.33-1.123,9.404-2.173
		c3.073-1.075,6-2.545,8.671-4.257c0.662-0.436,1.321-0.87,1.977-1.301c0.615-0.48,1.228-0.959,1.836-1.434
		c1.242-0.921,2.312-1.988,3.408-2.988c1.042-1.048,2.04-2.096,2.974-3.152c0.875-1.101,1.767-2.143,2.551-3.214
		c0.749-1.094,1.489-2.143,2.169-3.176c0.62-1.064,1.218-2.092,1.793-3.079c0.567-0.987,1.013-1.98,1.47-2.903
		c0.435-0.935,0.882-1.798,1.199-2.66c0.664-1.707,1.281-3.163,1.645-4.424c0.768-2.502,1.121-3.944,1.121-3.944
		c0.114-0.469-0.028-0.986-0.414-1.329c-0.557-0.495-1.409-0.444-1.904,0.112l-0.041,0.046c0,0-0.981,1.104-2.549,3.058
		c-0.763,0.99-1.793,2.112-2.866,3.446c-0.533,0.671-1.146,1.344-1.78,2.057c-0.646,0.702-1.247,1.497-1.978,2.232
		c-0.701,0.751-1.431,1.533-2.187,2.343c-0.777,0.768-1.581,1.562-2.407,2.379c-0.845,0.772-1.714,1.564-2.601,2.374
		c-0.934,0.741-1.837,1.544-2.803,2.29c-1.958,1.446-3.978,2.903-6.161,4.091c-2.177,1.193-4.42,2.315-6.793,3.095
		c-2.348,0.84-4.767,1.494-7.228,1.905c-2.46,0.405-4.939,0.646-7.389,0.742c-2.451,0.067-4.868,0.001-7.188-0.137
		c-2.322-0.136-4.549-0.382-6.627-0.611c-4.243-0.543-7.779-0.996-10.254-1.313c-2.551-0.303-4.026-0.389-4.026-0.389
		L107.258,128.735z M234.943,175.204c0.476-6.976-4.792-13.017-11.768-13.494s-13.017,4.792-13.494,11.768
		c0,0-0.046,0.671-0.132,1.929c-0.046,0.396-0.103,0.885-0.17,1.46c-0.089,0.669-0.21,1.434-0.38,2.285
		c-0.675,3.397-2.177,8.188-5.673,13.541c-1.739,2.672-3.967,5.471-6.679,8.267c-2.72,2.791-5.916,5.577-9.502,8.253
		c-7.184,5.351-15.897,10.232-25.113,14.347c-9.214,4.134-18.916,7.54-28.182,10.254c-4.633,1.363-9.164,2.542-13.483,3.574
		c-4.281,1.018-8.699,1.947-13.057,3.143c-2.187,0.603-4.376,1.278-6.594,2.13c-2.217,0.862-4.481,1.892-6.79,3.387
		c-1.154,0.754-2.316,1.631-3.439,2.679c-1.124,1.055-2.204,2.295-3.126,3.689c-1.886,2.792-2.879,6.177-3.069,8.877
		c-0.217,2.74,0.13,4.862,0.493,6.496c0.378,1.644,0.811,2.845,1.17,3.781c0.364,0.929,0.665,1.583,0.869,2.014
		c0.206,0.429,0.312,0.651,0.312,0.651c2.58,5.36,8.977,7.76,14.459,5.339c5.595-2.471,8.128-9.01,5.657-14.606l-0.198-0.449
		c0,0-0.037-0.083-0.107-0.243c-0.072-0.159-0.166-0.387-0.255-0.636c-0.086-0.243-0.163-0.515-0.183-0.657
		c-0.031-0.146,0.025-0.134,0.012,0.256c0.005,0.361-0.229,1.164-0.524,1.596c-0.131,0.215-0.242,0.33-0.245,0.341
		c0.004,0.01,0.111-0.074,0.335-0.209c0.453-0.276,1.372-0.722,2.594-1.158c1.227-0.441,2.744-0.888,4.457-1.32
		c3.445-0.878,7.605-1.665,12.342-2.696c4.695-1.034,9.627-2.225,14.699-3.619c10.144-2.779,20.868-6.316,31.379-10.806
		c10.506-4.478,20.812-9.937,29.944-16.479c4.559-3.276,8.815-6.826,12.618-10.592c3.798-3.772,7.133-7.769,9.872-11.813
		c2.741-4.041,4.883-8.113,6.438-11.904c1.578-3.784,2.562-7.276,3.205-10.175c0.32-1.452,0.552-2.759,0.726-3.9
		c0.182-1.159,0.301-2.315,0.399-3.15c0.108-1.257,0.166-1.927,0.166-1.927C234.93,175.376,234.939,175.257,234.943,175.204z
		 M415.127,341.711c-1.503-0.303-2.966,0.67-3.269,2.173l-0.002,0.009c0,0-0.127,0.633-0.221,1.786
		c-0.046,0.608-0.136,1.225-0.25,1.961c-0.086,0.745-0.184,1.602-0.295,2.562c-0.175,1.947-0.423,4.328-0.559,7.042
		c-0.162,2.723-0.351,5.802-0.781,9.161c-0.371,3.356-1.007,6.98-1.689,10.791c-0.742,3.807-1.606,7.796-2.609,11.889
		c-1.045,4.081-2.123,8.291-3.433,12.495c-1.265,4.218-2.675,8.456-4.275,12.613l-1.193,3.12l-1.299,3.062
		c-0.836,2.056-1.824,4.018-2.724,6.014c-1.981,3.882-3.907,7.739-6.149,11.229c-0.554,0.876-1.074,1.77-1.643,2.613
		c-0.584,0.831-1.151,1.665-1.701,2.5c-1.071,1.699-2.309,3.199-3.429,4.746c-1.131,1.538-2.393,2.885-3.507,4.302
		c-1.152,1.378-2.358,2.621-3.471,3.873c-2.343,2.367-4.519,4.554-6.6,6.325c-0.513,0.456-1.009,0.897-1.488,1.322
		c-0.488,0.414-0.984,0.779-1.442,1.159c-0.931,0.747-1.785,1.434-2.557,2.054c-1.582,1.191-2.872,2.08-3.737,2.717
		c-0.867,0.638-1.33,0.979-1.33,0.979l-0.179,0.131c-1.05,0.773-1.493,2.183-0.99,3.453c0.598,1.512,2.309,2.253,3.821,1.655
		c0,0,0.568-0.225,1.634-0.646c1.05-0.455,2.657-1.017,4.598-1.948c0.964-0.485,2.03-1.023,3.192-1.608
		c0.58-0.298,1.199-0.589,1.804-0.946c0.602-0.365,1.225-0.742,1.869-1.133c0.646-0.393,1.313-0.798,1.999-1.216
		c0.343-0.211,0.692-0.424,1.045-0.64c0.339-0.235,0.683-0.474,1.031-0.716c1.38-0.983,2.864-1.996,4.329-3.151
		c1.435-1.187,2.987-2.379,4.498-3.715c0.749-0.674,1.487-1.385,2.248-2.098c0.756-0.718,1.545-1.43,2.265-2.221
		c1.456-1.566,3.052-3.113,4.474-4.854c0.737-0.852,1.471-1.724,2.2-2.614c0.722-0.895,1.393-1.837,2.101-2.768
		c2.827-3.731,5.467-7.779,7.911-12.026c1.142-2.158,2.41-4.289,3.435-6.535c0.535-1.115,1.07-2.231,1.606-3.349l1.484-3.405
		c0.499-1.136,0.947-2.288,1.382-3.444c0.438-1.155,0.876-2.309,1.313-3.461c0.79-2.329,1.584-4.651,2.24-6.988
		c1.394-4.654,2.408-9.324,3.212-13.863c0.389-2.273,0.726-4.513,0.968-6.719c0.299-2.195,0.451-4.363,0.623-6.465
		c0.286-4.214,0.401-8.202,0.335-11.896c-0.033-3.686-0.221-7.08-0.51-10.086c-0.338-3.014-0.899-5.626-1.598-7.762
		c-0.163-0.534-0.343-1.033-0.502-1.502c-0.183-0.485-0.375-0.955-0.554-1.375c-0.382-0.84-0.67-1.57-0.993-2.029
		c-0.585-0.997-0.974-1.51-0.974-1.51C416.396,342.236,415.815,341.85,415.127,341.711z M392.571,331.305
		c-0.033-0.034-0.066-0.067-0.102-0.099c-0.846-0.769-2.155-0.707-2.924,0.138c0,0-0.204,0.225-0.512,0.659
		c-0.322,0.437-0.796,1.073-1.28,1.925c-0.995,1.728-2.179,4.223-3.14,7.271c-0.956,3.068-1.669,6.708-1.901,10.875
		c-0.386,4.156-0.875,8.821-1.6,13.847c-0.783,5.012-1.617,10.43-2.918,16.022c-1.269,5.596-2.751,11.449-4.76,17.304
		c-0.242,0.737-0.485,1.477-0.729,2.219c-0.285,0.724-0.57,1.45-0.857,2.179c-0.583,1.453-1.074,2.969-1.721,4.415
		c-0.648,1.448-1.301,2.904-1.956,4.368c-0.644,1.474-1.456,2.856-2.179,4.305l-1.118,2.161c-0.394,0.708-0.837,1.385-1.254,2.083
		c-0.858,1.378-1.669,2.802-2.568,4.167c-1.915,2.638-3.723,5.404-5.918,7.855l-1.576,1.902c-0.265,0.315-0.519,0.642-0.794,0.948
		l-0.862,0.883c-1.15,1.183-2.298,2.366-3.444,3.545c-0.554,0.614-1.184,1.144-1.805,1.683l-1.85,1.634l-1.845,1.639
		c-0.311,0.269-0.606,0.557-0.93,0.81l-0.986,0.737c-2.645,1.936-5.171,4.034-7.968,5.693c-1.369,0.881-2.73,1.757-4.082,2.626
		c-1.422,0.763-2.834,1.52-4.235,2.271c-1.415,0.729-2.776,1.552-4.21,2.194c-1.442,0.626-2.867,1.26-4.276,1.903
		c-1.419,0.616-2.791,1.319-4.214,1.85c-1.43,0.521-2.842,1.036-4.236,1.544c-1.399,0.511-2.779,1.016-4.139,1.512
		c-1.378,0.448-2.764,0.796-4.109,1.215c-1.353,0.403-2.683,0.798-3.988,1.187c-1.308,0.389-2.589,0.798-3.878,1.051
		c-5.13,1.112-9.835,2.379-14.102,2.983c-4.25,0.698-7.968,1.475-11.065,1.758c-3.09,0.364-5.528,0.707-7.193,0.916
		c-1.667,0.226-2.556,0.347-2.556,0.347s0.891,0.073,2.562,0.208c1.672,0.119,4.13,0.329,7.27,0.524
		c3.144,0.297,6.957,0.254,11.358,0.247c4.413,0.129,9.363-0.33,14.809-0.723c1.367-0.064,2.742-0.282,4.15-0.479
		c1.411-0.198,2.848-0.4,4.31-0.606c1.464-0.211,2.957-0.412,4.462-0.687c1.496-0.333,3.015-0.672,4.555-1.015
		c1.546-0.346,3.112-0.698,4.698-1.053c1.586-0.369,3.145-0.918,4.752-1.38c1.602-0.479,3.221-0.979,4.853-1.499
		c1.629-0.527,3.21-1.246,4.844-1.873c1.627-0.657,3.268-1.319,4.92-1.985c1.604-0.794,3.219-1.593,4.844-2.398
		c3.32-1.503,6.414-3.534,9.609-5.474l1.197-0.734c0.394-0.253,0.763-0.544,1.147-0.814l2.286-1.661l2.293-1.675
		c0.765-0.561,1.539-1.116,2.24-1.759c1.44-1.248,2.883-2.499,4.328-3.751l1.084-0.944c0.349-0.327,0.677-0.676,1.016-1.014
		l2.021-2.047c2.781-2.664,5.164-5.674,7.649-8.601c1.181-1.505,2.269-3.075,3.402-4.611c0.554-0.776,1.135-1.536,1.664-2.324
		l1.514-2.403c4.129-6.356,7.408-13.071,10.021-19.734c2.721-6.642,4.515-13.317,5.889-19.664
		c1.396-6.356,2.093-12.432,2.564-18.024c0.446-5.596,0.499-10.716,0.459-15.233c0.016-4.51-0.63-8.44-1.691-11.604
		c-0.522-1.591-1.097-2.981-1.702-4.191c-0.58-1.214-1.192-2.178-1.72-3.004c-0.522-0.817-1.001-1.461-1.338-1.886
		c-0.319-0.428-0.529-0.648-0.529-0.648L392.571,331.305z"/>
</g>
<g id="Layer_5">
	<path fill="#2B3B47" d="M140.567,81.159c-7.069-0.001-12.801,5.729-12.802,12.798l-0.003,15.601
		c-0.001,7.069,5.729,12.801,12.798,12.802l0,0c7.069,0.001,12.801-5.729,12.802-12.798l0.003-15.601
		C153.366,86.891,147.636,81.16,140.567,81.159L140.567,81.159z"/>
</g>
<g id="Layer_6">
	<path fill="#AF773F" d="M230.752,165.558c0,0-0.111,0.69-0.319,1.984c-0.052,0.323-0.11,0.685-0.174,1.082
		c-0.032,0.199-0.065,0.407-0.1,0.624c-0.06,0.326-0.122,0.666-0.187,1.02c-0.297,1.552-0.666,3.332-1.127,5.301
		c-0.503,1.697-1.05,3.555-1.732,5.547c-0.383,0.975-0.782,1.99-1.195,3.043c-0.212,0.523-0.427,1.055-0.647,1.596
		c-0.249,0.522-0.503,1.053-0.761,1.592c-1.986,4.374-4.787,8.883-8.139,13.322c-3.366,4.435-7.372,8.715-11.838,12.595
		c-4.46,3.902-9.353,7.47-14.505,10.687c-10.315,6.436-21.633,11.501-33.011,15.49c-11.386,3.985-22.847,6.941-33.627,9.14
		c-2.696,0.547-5.349,1.045-7.948,1.502c-1.301,0.218-2.588,0.433-3.859,0.646l-0.95,0.157l-0.059,0.01
		c0.312-0.08-0.782,0.192,0.684-0.176l-0.112,0.024l-0.224,0.048l-0.447,0.096c-0.595,0.128-1.186,0.255-1.773,0.382
		c-0.401,0.078-0.314,0.091-0.399,0.118c-0.055,0.023-0.113,0.04-0.174,0.052c-0.061,0.011-0.125,0.017-0.192,0.018l-0.105-0.003
		l-0.183,0.081c-0.49,0.241-1.06,0.354-1.505,0.669c-0.238,0.132-0.483,0.254-0.731,0.374c-0.212,0.167-0.43,0.325-0.654,0.477
		c-0.485,0.265-0.823,0.684-1.247,1.012c-1.584,1.44-2.63,3.269-3.246,4.983c-0.649,1.727-0.73,3.36-0.724,4.703
		c0.022,0.335,0.034,0.657,0.037,0.964c0.021,0.304,0.108,0.579,0.143,0.845c0.041,0.267,0.078,0.515,0.113,0.742
		c0.033,0.229,0.13,0.422,0.177,0.605c0.225,0.724,0.321,1.132,0.321,1.132l0.502,2.14c1.291,5.497-2.119,10.999-7.616,12.29
		c-4.697,1.103-9.399-1.233-11.473-5.363c0,0-0.442-0.879-1.225-2.569c-0.186-0.427-0.431-0.887-0.624-1.429
		c-0.187-0.546-0.39-1.142-0.61-1.786c-0.205-0.65-0.463-1.341-0.652-2.102c-0.164-0.77-0.338-1.589-0.522-2.454
		c-0.615-3.467-0.958-7.875-0.017-12.791c0.908-4.892,2.958-10.326,6.782-15.308c0.987-1.215,1.955-2.503,3.161-3.623
		c0.591-0.573,1.188-1.151,1.79-1.735c0.648-0.532,1.314-1.059,1.992-1.585c1.324-1.102,2.851-1.959,4.375-2.885l0.584-0.34
		l0.707-0.338c0.478-0.218,0.959-0.437,1.441-0.657c0.489-0.208,0.979-0.418,1.471-0.628c0.468-0.193,1.094-0.446,1.28-0.501
		c0.567-0.199,1.137-0.399,1.712-0.6l0.431-0.151l0.216-0.076l0.108-0.038l0.796-0.202l0.053-0.016l0.844-0.251
		c1.127-0.338,2.267-0.68,3.42-1.025c2.299-0.711,4.636-1.461,6.996-2.258c9.435-3.194,19.26-7.116,28.483-11.718
		c9.219-4.589,17.797-9.922,24.614-15.521c3.41-2.793,6.372-5.642,8.803-8.411c2.451-2.764,4.311-5.463,5.68-7.927
		c1.351-2.471,2.348-4.685,2.864-6.642c0.08-0.241,0.158-0.478,0.236-0.711c0.05-0.236,0.099-0.468,0.147-0.696
		c0.106-0.448,0.209-0.88,0.307-1.295c0.125-0.825,0.24-1.583,0.344-2.267c-0.032-0.435-0.018-0.801,0.019-1.116l0.015-0.115
		l0.008-0.056l0.006-0.16c0.008-0.219,0.015-0.43,0.022-0.631c0.014-0.402,0.026-0.768,0.038-1.095
		c0.045-1.31,0.069-2.008,0.069-2.008c0.409-11.903,10.389-21.22,22.292-20.811c11.903,0.409,21.22,10.389,20.811,22.292
		c-0.03,0.868-0.111,1.723-0.239,2.561L230.752,165.558z"/>
</g>
</svg>
