<svg xmlns="http://www.w3.org/2000/svg" viewBox="0 0 512 512" enable-background="new 0 0 512 512"><path fill="#E2E2D9" d="M300.523 359.7s2.114.17 5.813.463l1.065.096c.196.013.366.042.594.05l.724.007c.988.002 2.058.056 3.217.033 1.16-.05 2.402-.053 3.72-.133 1.32-.123 2.72-.167 4.182-.353 1.46-.19 3.003-.32 4.588-.614.798-.13 1.61-.26 2.433-.392l2.502-.515c1.708-.31 3.423-.807 5.216-1.225.887-.236 1.774-.512 2.68-.77.908-.255 1.825-.52 2.73-.84 3.684-1.143 7.382-2.658 11.127-4.298 3.72-1.685 7.387-3.645 10.978-5.772 3.54-2.182 6.967-4.562 10.19-7.107 3.154-2.59 6.17-5.294 8.823-8.142 2.62-2.86 5.07-5.757 7.043-8.72 1.07-1.446 1.91-2.946 2.807-4.38.862-1.448 1.566-2.904 2.32-4.29.62-1.422 1.286-2.782 1.82-4.11.485-1.338 1.003-2.608 1.41-3.825l1.035-3.453c.28-1.08.477-2.087.693-2.996.218-.91.398-1.727.483-2.446l.28-1.83.238-1.53.03-.19c.36-2.32 2.536-3.91 4.856-3.55 1.94.303 3.368 1.876 3.573 3.74l.19 1.746.23 2.115c.113.836.16 1.797.19 2.88.034 1.08.108 2.29.114 3.61-.04 1.32-.086 2.75-.134 4.28-.096 1.53-.294 3.15-.458 4.883-.215 1.72-.56 3.512-.87 5.416-.437 1.854-.838 3.835-1.41 5.836-.603 1.985-1.172 4.092-1.984 6.16-1.467 4.227-3.483 8.505-5.795 12.855-2.343 4.333-5.146 8.598-8.226 12.81-3.135 4.15-6.596 8.186-10.3 12.03-3.744 3.78-7.697 7.406-11.82 10.725-4.148 3.273-8.377 6.398-12.707 9.088-1.066.707-2.152 1.356-3.237 1.99-1.084.637-2.153 1.287-3.23 1.894-2.18 1.16-4.296 2.377-6.447 3.386l-3.17 1.544-3.145 1.385c-2.055.94-4.12 1.695-6.09 2.47-1.973.774-3.93 1.38-5.774 2.023-1.86.603-3.664 1.097-5.353 1.596-1.7.475-3.328.837-4.826 1.21l-1.104.264c-.368.084-.786.152-1.164.226l-2.21.403-7.285 1.256c-12.922 2.227-25.204-6.44-27.432-19.364-2.23-12.922 6.44-25.204 19.362-27.432 1.957-.338 3.9-.425 5.795-.286l1.123.09zm-89.152 47.13c1.894.236 3.845.246 5.824.006 13.016-1.58 22.288-13.41 20.71-26.426-1.58-13.016-13.41-22.288-26.426-20.71l-1.72.21c-.562.067-1.254.15-2.068.25l-1.085.136-.957.133-1.078.16c-.197.027-.37.07-.6.087l-.732.046c-1 .052-2.082.16-3.258.195-1.177.006-2.438.063-3.78.046-1.343-.06-2.77-.04-4.265-.157-1.493-.123-3.07-.185-4.696-.41l-2.5-.286c-.845-.133-1.703-.27-2.573-.41-1.76-.236-3.53-.663-5.383-1.01-.917-.2-1.836-.443-2.775-.665-.94-.22-1.89-.452-2.83-.738-3.825-1.007-7.685-2.395-11.61-3.92-3.904-1.573-7.774-3.436-11.586-5.49-3.762-2.108-7.427-4.44-10.902-6.97-3.41-2.58-6.69-5.303-9.615-8.212-2.89-2.922-5.612-5.916-7.845-9.016-1.2-1.513-2.167-3.094-3.185-4.61-.984-1.53-1.804-3.08-2.667-4.558-.73-1.52-1.5-2.978-2.13-4.406-.582-1.442-1.188-2.814-1.675-4.132l-1.254-3.75c-.345-1.173-.6-2.27-.865-3.263-.268-.992-.49-1.886-.612-2.673l-.37-2.002-.31-1.68-.093-.503c-.344-1.86-1.914-3.32-3.886-3.445-2.327-.148-4.333 1.62-4.48 3.947 0 0-.043.66-.12 1.896-.04.62-.085 1.388-.14 2.29-.076.904-.08 1.942-.06 3.108.018 1.167 0 2.468.06 3.88l.354 4.576c.176 1.63.462 3.353.723 5.19.313 1.822.76 3.71 1.18 5.712.548 1.948 1.066 4.022 1.76 6.106.723 2.067 1.42 4.254 2.362 6.388 1.728 4.366 4.015 8.74 6.597 13.15 2.612 4.394 5.68 8.677 9.015 12.877 3.388 4.136 7.09 8.123 11.015 11.893 3.965 3.706 8.12 7.236 12.427 10.442 4.328 3.16 8.72 6.156 13.19 8.712 1.1.673 2.22 1.288 3.337 1.888 1.116.602 2.217 1.216 3.325 1.788 2.24 1.09 4.41 2.236 6.61 3.174l3.24 1.437 3.21 1.28c2.098.87 4.198 1.557 6.2 2.265 2.006.706 3.99 1.247 5.858 1.826 1.883.54 3.708.975 5.413 1.416 1.716.415 3.36.723 4.867 1.045l1.112.23c.37.07.79.13 1.17.19l2.225.335c1.324.185 2.506.35 3.534.495l2.053.27 1.71.223 1.05.14z"/></svg>