<?xml version="1.0" encoding="utf-8"?>
<!-- Generator: Adobe Illustrator 18.0.0, SVG Export Plug-In . SVG Version: 6.00 Build 0)  -->
<!DOCTYPE svg PUBLIC "-//W3C//DTD SVG 1.1 Tiny//EN" "http://www.w3.org/Graphics/SVG/1.1/DTD/svg11-tiny.dtd">
<svg version="1.1" baseProfile="tiny" id="Layer_1" xmlns="http://www.w3.org/2000/svg" xmlns:xlink="http://www.w3.org/1999/xlink"
	 x="0px" y="0px" width="511.9px" height="511.9px" viewBox="0 0 511.9 511.9" xml:space="preserve">
<path fill="#00BEEA" d="M377.9,33c-0.3-0.9-0.9-1.6-1.8-1.9l-29.9-10.9c-0.9-0.3-1.8-0.2-2.6,0.3c-0.8,0.5-1.2,1.3-1.3,2.2
	l-4.6,59.2c-0.1,1.3,0.7,2.5,1.9,2.9c0.3,0.1,0.7,0.2,1,0.2c0.9,0,1.8-0.4,2.4-1.2l34.5-48.3C378.1,34.8,378.2,33.9,377.9,33z"/>
<path fill="#00BEEA" d="M439,90.6l-13.4-28.8c-0.4-0.8-1.1-1.4-2-1.6c-0.9-0.2-1.8,0-2.5,0.6L376,99.4c-1,0.8-1.3,2.2-0.7,3.4
	c0.5,1,1.5,1.7,2.6,1.7c0.2,0,0.3,0,0.5,0l58.5-9.7c0.9-0.1,1.7-0.7,2.1-1.5C439.4,92.4,439.4,91.4,439,90.6z"/>
<path fill="#00BEEA" d="M298,75.5L288.3,17c-0.1-0.9-0.7-1.7-1.5-2.1c-0.8-0.4-1.7-0.4-2.6-0.1l-28.8,13.4c-0.8,0.4-1.4,1.1-1.6,2
	c-0.2,0.9,0,1.8,0.6,2.5L293,77.9c0.6,0.7,1.4,1,2.2,1c0.4,0,0.8-0.1,1.2-0.3C297.6,78.1,298.2,76.8,298,75.5z"/>
</svg>
