<?xml version="1.0" encoding="utf-8"?>
<!-- Generator: Adobe Illustrator 18.0.0, SVG Export Plug-In . SVG Version: 6.00 Build 0)  -->
<!DOCTYPE svg PUBLIC "-//W3C//DTD SVG 1.1 Tiny//EN" "http://www.w3.org/Graphics/SVG/1.1/DTD/svg11-tiny.dtd">
<svg version="1.1" baseProfile="tiny" id="Layer_1" xmlns="http://www.w3.org/2000/svg" xmlns:xlink="http://www.w3.org/1999/xlink"
	 x="0px" y="0px" width="511.9px" height="511.9px" viewBox="0 0 511.9 511.9" xml:space="preserve">
<path fill="#2B3B47" d="M135.2,217.6c14.7,0,26.7,11.9,26.7,26.7v59.8c0,14.7-11.9,26.7-26.7,26.7l0,0c-14.7,0-26.7-11.9-26.7-26.7
	v-59.8C108.5,229.5,120.5,217.6,135.2,217.6L135.2,217.6z"/>
<path fill="#2B3B47" d="M377.6,217.6c14.7,0,26.7,11.9,26.7,26.7v59.8c0,14.7-11.9,26.7-26.7,26.7l0,0c-14.7,0-26.7-11.9-26.7-26.7
	v-59.8C350.9,229.5,362.9,217.6,377.6,217.6L377.6,217.6z"/>
<path fill="#2B3B47" d="M301,422.8c-3.7,0-7.4-1.1-10.5-3.5c-1.3-0.9-14-8.7-34.5-8.7c-21.2,0-34.2,8.6-34.3,8.7
	c-6.4,4.6-15,4.5-21.3-0.2c-6.3-4.7-8.9-12.9-6.4-20.3c0.4-1.2,4.1-11.8,13.1-22.4c12.7-14.9,29.6-22.7,49-22.7s36.3,7.9,49,22.7
	c7.5,8.8,11.3,17.6,12.6,21c0.8,1.9,1.3,3.9,1.4,6.1c0.4,6.1-2.2,12.2-7.3,15.9C308.4,421.7,304.7,422.8,301,422.8z"/>
</svg>
