<svg xmlns="http://www.w3.org/2000/svg" viewBox="0 0 512 512" enable-background="new 0 0 512 512"><path fill="#7E9AA8" d="M155.92 254.302l.545.627.67.767c.26.278.558.6.897.966 1.375 1.45 3.472 3.58 6.338 5.903 2.878 2.305 6.577 4.818 11.15 6.742 4.558 1.923 9.945 3.32 15.91 3.456 5.952.167 12.446-.82 19.002-3.106 6.56-2.253 13.2-5.68 19.5-10.12 6.315-4.412 12.35-9.754 17.747-15.804 5.402-6.053 10.17-12.735 14.56-19.53 4.382-6.795 8.28-13.91 10.84-21.304 2.586-7.375 3.856-14.943 3.642-22.166-.105-3.612-.592-7.137-1.44-10.51-.212-.842-.44-1.678-.7-2.5l-.405-1.277-.47-1.426-1.845-5.462c-2.468-7.185-5.09-13.94-7.617-20.116-2.512-6.19-5.044-11.765-7.338-16.683-2.314-4.91-4.522-9.078-6.41-12.476-1.93-3.36-3.527-5.955-4.663-7.686l-1.782-2.63-.063-.093c-.65-.957-.4-2.258.557-2.906.846-.573 1.96-.444 2.657.255l2.36 2.37c1.52 1.56 3.67 3.92 6.24 7.056 2.53 3.15 5.532 7.046 8.752 11.65 3.233 4.6 6.64 9.936 10.217 15.845 3.557 5.925 7.206 12.444 10.864 19.52.906 1.786 1.846 3.653 2.698 5.42l.657 1.35.352.733.347.79c.47 1.057.9 2.138 1.31 3.235 1.644 4.386 2.834 9.065 3.515 13.883 1.38 9.652.618 19.764-1.692 29.466-2.33 9.71-6.1 19.137-11.242 27.675-5.14 8.547-11.76 16.038-18.96 22.523-7.2 6.49-14.973 12.09-23.12 16.485-8.144 4.383-16.627 7.64-25.07 9.388-8.43 1.745-16.806 2.01-24.325.718-7.525-1.26-14.11-3.94-19.253-7.18-5.183-3.21-9.01-6.815-11.86-9.925-2.86-3.128-4.708-5.822-5.948-7.694l-.812-1.25-.53-.873-.43-.71c-.828-1.365-.393-3.14.97-3.97 1.22-.74 2.77-.47 3.676.572z"/></svg>