<?xml version="1.0" encoding="utf-8"?>
<!-- Generator: Adobe Illustrator 18.1.0, SVG Export Plug-In . SVG Version: 6.00 Build 0)  -->
<!DOCTYPE svg PUBLIC "-//W3C//DTD SVG 1.0//EN" "http://www.w3.org/TR/2001/REC-SVG-20010904/DTD/svg10.dtd">
<svg version="1.0" id="Layer_1" xmlns="http://www.w3.org/2000/svg" xmlns:xlink="http://www.w3.org/1999/xlink" x="0px" y="0px"
	 width="72px" height="72px" viewBox="0 0 72 72" enable-background="new 0 0 72 72" xml:space="preserve">
<path fill="#2B3B47" d="M24.9,39.1v3.4v0c0,0,0,0,0,0c0,1.4-1.1,2.4-2.4,2.4c-1.4,0-2.4-1.1-2.4-2.4c0,0,0,0,0,0h0v-3.4h0
	c0.1-1.3,1.2-2.2,2.4-2.2C23.7,36.8,24.8,37.8,24.9,39.1L24.9,39.1z M53.5,39.1c-0.1-1.3-1.1-2.2-2.4-2.2c-1.3,0-2.3,1-2.4,2.2h0
	v3.4h0c0,0,0,0,0,0c0,1.4,1.1,2.4,2.4,2.4c1.3,0,2.4-1.1,2.4-2.4c0,0,0,0,0,0v0L53.5,39.1L53.5,39.1z"/>
</svg>
