<?xml version="1.0" encoding="utf-8"?>
<!-- Generator: Adobe Illustrator 18.1.0, SVG Export Plug-In . SVG Version: 6.00 Build 0)  -->
<!DOCTYPE svg PUBLIC "-//W3C//DTD SVG 1.0//EN" "http://www.w3.org/TR/2001/REC-SVG-20010904/DTD/svg10.dtd">
<svg version="1.0" id="Layer_1" xmlns="http://www.w3.org/2000/svg" xmlns:xlink="http://www.w3.org/1999/xlink" x="0px" y="0px"
	 width="72px" height="72px" viewBox="0 0 72 72" enable-background="new 0 0 72 72" xml:space="preserve">
<path fill="#FFB636" d="M56.5,10.1L56.5,10.1c0-2.1-2-5.3-4.6-6.7c-0.1-0.1-0.4-0.1-0.6-0.2c0-0.1,0-0.1,0-0.2
	c0-1.8-1.4-3.2-3.2-3.2S44.9,1.2,44.9,3c0,0.1,0,0.2,0,0.3c-0.2,0-0.4,0-0.5,0.1c-2.8,1.3-4.3,3.9-4.3,6.1c0,1.2,0.2,2.6,0.5,3.5
	c0,0.3,0,0.6,0,1c0.1,0,0.2-0.1,0.3-0.1v0c0.1,0,0.2,0,0.3,0c0.1,0,0.1,0,0.2,0c0,0,0.1,0,0.1,0l-0.2-2.5l-0.1-0.9
	c0-3,1.8-4.8,4.4-5.5c0.6,0.8,1.5,1.2,2.5,1.2c1,0,1.9-0.5,2.4-1.2c2,0.6,3.6,1.8,4.2,3.7c0.1,0.2,0.1,0.5,0.2,0.7c0,0,0,0.1,0,0.1
	c0,0.3,0.1,0.5,0.1,0.8l-0.1,1.8l-0.1,1.6c0.1,0,0.1,0,0.2,0c0.2,0,0.4,0,0.5,0.1c0.7-0.9,1.1-2,1.1-3.4
	C56.6,10.4,56.5,10.3,56.5,10.1z"/>
</svg>
