<?xml version="1.0" encoding="utf-8"?>
<!-- Generator: Adobe Illustrator 18.1.0, SVG Export Plug-In . SVG Version: 6.00 Build 0)  -->
<!DOCTYPE svg PUBLIC "-//W3C//DTD SVG 1.0//EN" "http://www.w3.org/TR/2001/REC-SVG-20010904/DTD/svg10.dtd">
<svg version="1.0" id="Layer_1" xmlns="http://www.w3.org/2000/svg" xmlns:xlink="http://www.w3.org/1999/xlink" x="0px" y="0px"
	 width="72px" height="72px" viewBox="0 0 72 72" enable-background="new 0 0 72 72" xml:space="preserve">
<path fill="#959DA3" d="M47.5,26.8v0.5l0,0v0c0,0.2-0.1,0.3-0.3,0.3c-0.2,0-0.3-0.1-0.3-0.3v0h0v-0.5h0c0-0.2,0.2-0.3,0.3-0.3
	C47.4,26.5,47.5,26.6,47.5,26.8L47.5,26.8z M25.5,58.5c0-0.2-0.2-0.3-0.3-0.3c-0.2,0-0.3,0.1-0.3,0.3h0V59h0v0
	c0,0.2,0.2,0.3,0.3,0.3c0.2,0,0.3-0.2,0.3-0.3v0l0,0L25.5,58.5L25.5,58.5z M39,58.5c0-0.2-0.2-0.3-0.3-0.3c-0.2,0-0.3,0.1-0.3,0.3h0
	V59h0v0c0,0.2,0.2,0.3,0.3,0.3c0.2,0,0.3-0.2,0.3-0.3v0l0,0L39,58.5L39,58.5z M7.5,22.2c0-0.2-0.2-0.3-0.3-0.3
	c-0.2,0-0.3,0.1-0.3,0.3h0v0.5h0v0C6.9,22.8,7,23,7.2,23c0.2,0,0.3-0.2,0.3-0.3v0l0,0L7.5,22.2L7.5,22.2z M24,22.2
	c0-0.2-0.2-0.3-0.3-0.3c-0.2,0-0.3,0.1-0.3,0.3h0v0.5h0v0c0,0.2,0.2,0.3,0.3,0.3c0.2,0,0.3-0.2,0.3-0.3v0l0,0L24,22.2L24,22.2z
	 M63.7,26.8c0-0.2-0.2-0.3-0.3-0.3c-0.2,0-0.3,0.1-0.3,0.3h0v0.5h0v0c0,0.2,0.1,0.3,0.3,0.3c0.2,0,0.3-0.1,0.3-0.3v0l0,0L63.7,26.8
	L63.7,26.8z"/>
</svg>
