<?xml version="1.0" encoding="utf-8"?>
<!-- Generator: Adobe Illustrator 18.1.0, SVG Export Plug-In . SVG Version: 6.00 Build 0)  -->
<!DOCTYPE svg PUBLIC "-//W3C//DTD SVG 1.0//EN" "http://www.w3.org/TR/2001/REC-SVG-20010904/DTD/svg10.dtd">
<svg version="1.0" id="Layer_1" xmlns="http://www.w3.org/2000/svg" xmlns:xlink="http://www.w3.org/1999/xlink" x="0px" y="0px"
	 width="72px" height="72px" viewBox="0 0 72 72" enable-background="new 0 0 72 72" xml:space="preserve">
<path fill="#FF473E" d="M67.3,16.6c-6.9-8.1-19-8.5-26.3-1.2c0,0,0,0,0,0c-1,1-2.6,1-3.6,0c0,0,0,0,0,0c-6.4-6.5-16.6-7-23.6-1.5
	l2,2c0.2,0.2,0.3,0.4,0.4,0.6c-0.7,0.6-1.4,1.3-2,2.1c-0.3-0.1-0.5-0.2-0.7-0.4l-2.1-2.1c-5.3,6-6,15-1.6,21.7
	c1.4,2.2,3.2,3.9,5.2,5.2l23,18.6c0.8,0.7,2,0.7,2.8,0l22.8-18.6c1.9-1.3,3.6-2.9,5-5C72.8,31.5,72.3,22.6,67.3,16.6z"/>
</svg>
