<?xml version="1.0" encoding="iso-8859-1"?>
<!-- Generator: Adobe Illustrator 19.1.0, SVG Export Plug-In . SVG Version: 6.00 Build 0)  -->
<!DOCTYPE svg PUBLIC "-//W3C//DTD SVG 1.1//EN" "http://www.w3.org/Graphics/SVG/1.1/DTD/svg11.dtd">
<svg version="1.1" xmlns="http://www.w3.org/2000/svg" xmlns:xlink="http://www.w3.org/1999/xlink" x="0px" y="0px"
	 viewBox="0 0 511.92 513.326" enable-background="new 0 0 511.92 513.326" xml:space="preserve">
<g id="Layer_6">
	<path fill="#2B3B47" d="M316.741,99.855v7.223v0.004v0.016c0,2.834-2.303,5.133-5.133,5.133c-2.834,0-5.133-2.299-5.133-5.133
		v-0.02h-0.011v-7.223h0.051c0.237-2.623,2.412-4.696,5.093-4.696c2.677,0,4.864,2.073,5.079,4.696H316.741z M376.825,99.855
		c-0.226-2.623-2.401-4.696-5.089-4.696c-2.681,0-4.857,2.073-5.082,4.696h-0.062v7.223h0.022l-0.011,0.02
		c0,2.834,2.299,5.133,5.133,5.133c2.83,0,5.133-2.299,5.133-5.133v-0.016v-0.004v-7.223H376.825z M135.406,85.994
		c-0.216-2.644-2.421-4.735-5.12-4.735c-2.703,0-4.896,2.09-5.135,4.735h-0.051v7.283h0.011c0,0,0,0.009,0,0.02
		c0,2.857,2.318,5.176,5.175,5.176c2.854,0,5.175-2.318,5.175-5.176c0-0.011,0-0.016,0-0.016v-0.004v-7.283H135.406z
		 M196.038,85.994c-0.228-2.644-2.421-4.735-5.131-4.735c-2.703,0-4.896,2.09-5.124,4.735h-0.062v7.283h0.022
		c0,0-0.011,0.009-0.011,0.02c0,2.857,2.318,5.176,5.176,5.176c2.853,0,5.175-2.318,5.175-5.176c0-0.011,0-0.016,0-0.016v-0.004
		v-7.283H196.038z"/>
</g>
<g id="Layer_1">
</g>
</svg>
