<?xml version="1.0" encoding="utf-8"?>
<!-- Generator: Adobe Illustrator 18.1.0, SVG Export Plug-In . SVG Version: 6.00 Build 0)  -->
<!DOCTYPE svg PUBLIC "-//W3C//DTD SVG 1.1//EN" "http://www.w3.org/Graphics/SVG/1.1/DTD/svg11.dtd">
<svg version="1.1" id="Layer_1" xmlns="http://www.w3.org/2000/svg" xmlns:xlink="http://www.w3.org/1999/xlink" x="0px" y="0px"
	 width="511.9px" height="511.9px" viewBox="240 -239.9 511.9 511.9" enable-background="new 240 -239.9 511.9 511.9"
	 xml:space="preserve">
<path fill="#20BFE8" d="M718.2-138.6c-54.1-64-150-67.1-208.1-9.2c-0.1,0.1-0.1,0.1-0.2,0.2c-8,8-20.7,8-28.7,0
	c-0.1-0.1-0.1-0.1-0.2-0.2c-55-55.3-144.4-55.4-199.7-0.4c-47,46.8-54.7,122.2-18.6,177.8C274,47,288.2,60.5,303.9,70.7l181.5,146.9
	c6.5,5.3,15.8,5.2,22.3,0L688.1,70.5c15.1-10,28.8-23.2,39.9-39.9C762.3-21.2,758.3-91.2,718.2-138.6z"/>
<path fill="#84DFF3" d="M305.3-38.9c-0.5,0-1,0-1.5-0.1c-9.9-0.8-17.2-9.5-16.4-19.4c3.7-45.2,36-82.3,80.3-92.2
	c9.7-2.2,19.3,3.9,21.4,13.6c2.2,9.7-3.9,19.3-13.6,21.4c-28.9,6.4-49.9,30.6-52.4,60.1C322.5-46,314.6-38.9,305.3-38.9z"/>
</svg>
