<?xml version="1.0" encoding="iso-8859-1"?>
<!-- Generator: Adobe Illustrator 18.1.1, SVG Export Plug-In . SVG Version: 6.00 Build 0)  -->
<!DOCTYPE svg PUBLIC "-//W3C//DTD SVG 1.1//EN" "http://www.w3.org/Graphics/SVG/1.1/DTD/svg11.dtd">
<svg version="1.1" xmlns="http://www.w3.org/2000/svg" xmlns:xlink="http://www.w3.org/1999/xlink" x="0px" y="0px"
	 viewBox="0 0 512 512" enable-background="new 0 0 512 512" xml:space="preserve">
<g id="Layer_2">
	<path fill="#C4A6FF" d="M504.8,447H9.528c-3.976,0-7.2-3.224-7.2-7.2V159.2c0-3.976,3.224-7.2,7.2-7.2H504.8
		c3.976,0,7.2,3.224,7.2,7.2v280.6C512,443.776,508.776,447,504.8,447z"/>
</g>
<g id="Layer_3">
	<path fill="#597B91" d="M309.35,456h-102.2c-7.953,0-14.4-6.447-14.4-14.4V155.4c0-7.953,6.447-14.4,14.4-14.4h102.2
		c7.953,0,14.4,6.447,14.4,14.4v286.2C323.75,449.553,317.303,456,309.35,456z"/>
</g>
<g id="Layer_4">
	<path fill="#597B91" d="M156.791,242.116l-14.437,10.459c-2.531,1.834-6.071,1.528-8.162-0.796
		c-5.672-6.302-11.604-8.731-19.098-8.731c-12.739,0-18.234,8.492-18.234,22.481v15.793c0,3.418,2.771,6.189,6.189,6.189h33.583
		c3.418,0,6.189,2.771,6.189,6.189v8.354c0,3.418-2.771,6.189-6.189,6.189h-33.583c-3.418,0-6.189,2.771-6.189,6.189v10.796
		c0,8.474-1.1,15.114-4.91,20.643c-2.792,4.052,0.254,9.581,5.175,9.581h53.006c3.781,0,6.678,3.36,6.122,7.1l-2.655,17.846
		c-0.451,3.033-3.055,5.278-6.122,5.278H42.85c-3.418,0-6.189-2.771-6.189-6.189V361.47c0-2.599,1.595-4.957,4.035-5.852
		c15.415-5.656,16.697-13.605,16.697-28.392v-12.794c0-3.418-2.771-6.189-6.189-6.189h-4.357c-3.418,0-6.189-2.771-6.189-6.189
		V293.7c0-3.418,2.771-6.189,6.189-6.189h4.357c3.418,0,6.189-2.771,6.189-6.189v-15.793c0-29.975,18.235-52.206,53.455-52.206
		c20.38,0,35.259,6.483,46.903,19.623C160.194,235.704,159.774,239.955,156.791,242.116z"/>
</g>
</svg>
