<?xml version="1.0" encoding="iso-8859-1"?>
<!-- Generator: Adobe Illustrator 18.1.1, SVG Export Plug-In . SVG Version: 6.00 Build 0)  -->
<!DOCTYPE svg PUBLIC "-//W3C//DTD SVG 1.1//EN" "http://www.w3.org/Graphics/SVG/1.1/DTD/svg11.dtd">
<svg version="1.1" xmlns="http://www.w3.org/2000/svg" xmlns:xlink="http://www.w3.org/1999/xlink" x="0px" y="0px"
	 viewBox="0 0 512 512" enable-background="new 0 0 512 512" xml:space="preserve">
<g id="Layer_2">
	<path fill="#2B3B47" d="M513.715,494.756c0,8.419-6.681,15.244-14.923,15.244H14.757c-8.242,0-14.923-6.825-14.923-15.244V57.845
		c0-8.419,6.681-15.244,14.923-15.244h484.034c8.242,0,14.923,6.825,14.923,15.244V494.756z"/>
</g>
<g id="Layer_3">
	<path fill="#DCE2E2" d="M488.357,464.129c0,7.428-6.022,13.45-13.45,13.45H38.643c-7.428,0-13.45-6.022-13.45-13.45V78.63
		c0-7.428,6.022-13.45,13.45-13.45h436.264c7.428,0,13.45,6.022,13.45,13.45V464.129z"/>
</g>
<g id="Layer_4">
	<path fill="#FF473E" d="M488.357,249.322V77.191c0-6.634-6.022-12.011-13.45-12.011H38.642c-7.428,0-13.45,5.378-13.45,12.011
		v172.131H488.357z"/>
</g>
<g id="Layer_5">
	<path fill="#505A60" d="M219.711,456.712h-27.087c-4.379,0-7.929-3.55-7.929-7.929V327.648c0-6.181-6.759-9.985-12.043-6.778
		L151.346,333.8c-3.66,2.221-8.423,1.136-10.759-2.453l-10.334-15.876c-2.444-3.755-1.294-8.789,2.539-11.109l53.864-32.602
		c1.238-0.75,2.658-1.146,4.106-1.146h28.95c4.379,0,7.929,3.55,7.929,7.929v170.239C227.64,453.162,224.09,456.712,219.711,456.712
		z"/>
</g>
<g id="Layer_6">
	<path fill="#505A60" d="M380.567,301.832l-64.786,152.56c-1.613,3.799-5.871,5.725-9.79,4.428l-24.766-8.198
		c-4.417-1.462-6.631-6.395-4.789-10.667L330.45,314.72c2.257-5.234-1.58-11.069-7.281-11.069h-54.895
		c-4.379,0-7.929-3.55-7.929-7.929v-17.177c0-4.379,3.55-7.929,7.929-7.929h104.995c4.379,0,7.929,3.55,7.929,7.929v20.189
		C381.197,299.798,380.983,300.852,380.567,301.832z"/>
</g>
<g id="Layer_7">
	<path fill="#2B3B47" d="M136.823,101.891c0,12.127-9.831,21.957-21.957,21.957s-21.957-9.831-21.957-21.957
		s9.831-21.957,21.957-21.957S136.823,89.765,136.823,101.891z M386.441,79.934c-12.127,0-21.957,9.831-21.957,21.957
		s9.831,21.957,21.957,21.957s21.957-9.831,21.957-21.957S398.568,79.934,386.441,79.934z"/>
</g>
<g id="Layer_8">
	<path fill="#BFBFBB" d="M176.598,57.977H155.28c0-18.337-14.918-33.256-33.256-33.256S88.768,39.639,88.768,57.977
		s14.919,33.256,33.256,33.256c5.887,0,10.659,4.772,10.659,10.659s-4.772,10.659-10.659,10.659
		c-30.092,0-54.574-24.481-54.574-54.573c0-30.092,24.481-54.574,54.574-54.574C152.116,3.403,176.598,27.884,176.598,57.977z
		 M409.013,5.169L409.013,5.169C409.012,5.169,409.012,5.169,409.013,5.169c-4.491-1.172-9.14-1.766-13.815-1.766
		c-30.092,0-54.574,24.481-54.574,54.574c0,30.092,24.482,54.573,54.574,54.573c5.887,0,10.659-4.772,10.659-10.659
		s-4.772-10.659-10.659-10.659c-18.338,0-33.256-14.918-33.256-33.256s14.918-33.256,33.256-33.256c2.86,0,5.697,0.362,8.431,1.076
		l0,0c14.617,3.815,24.825,17.048,24.825,32.181h21.318C449.771,33.148,433.011,11.433,409.013,5.169z"/>
</g>
<g id="Layer_9">
	<path fill="#FFFFFF" d="M76.847,205.482c0,13.515-7.668,18.782-16.599,21.937c-0.916,0.323-1.923-0.143-2.265-1.052l-2.381-6.331
		c-0.327-0.871,0.073-1.846,0.915-2.24c5.959-2.786,6.799-6.535,6.799-12.804v-45.575c0-0.983,0.797-1.781,1.781-1.781h9.969
		c0.983,0,1.781,0.797,1.781,1.781V205.482z"/>
</g>
<g id="Layer_10">
	<path fill="#FFFFFF" d="M130.478,195.294c0,11.493-7.417,20.214-22.17,20.214c-14.834,0-22.17-8.232-22.17-20.214v-35.876
		c0-0.983,0.797-1.781,1.781-1.781h10.05c0.983,0,1.781,0.797,1.781,1.781v35.387c0,7.173,2.527,10.678,8.558,10.678
		c6.032,0,8.558-3.505,8.558-10.678v-35.387c0-0.983,0.797-1.781,1.781-1.781h10.05c0.983,0,1.781,0.797,1.781,1.781V195.294z"/>
</g>
<g id="Layer_11">
	<path fill="#FFFFFF" d="M155.325,203.444h18.184c1.08,0,1.911,0.953,1.764,2.023l-0.978,7.116
		c-0.121,0.882-0.874,1.538-1.764,1.538h-30.818c-0.983,0-1.781-0.797-1.781-1.781v-52.923c0-0.983,0.797-1.781,1.781-1.781h10.05
		c0.983,0,1.781,0.797,1.781,1.781v42.245C153.545,202.647,154.342,203.444,155.325,203.444z"/>
</g>
</svg>
