<?xml version="1.0" encoding="iso-8859-1"?>
<!-- Generator: Adobe Illustrator 18.1.1, SVG Export Plug-In . SVG Version: 6.00 Build 0)  -->
<!DOCTYPE svg PUBLIC "-//W3C//DTD SVG 1.1//EN" "http://www.w3.org/Graphics/SVG/1.1/DTD/svg11.dtd">
<svg version="1.1" xmlns="http://www.w3.org/2000/svg" xmlns:xlink="http://www.w3.org/1999/xlink" x="0px" y="0px"
	 viewBox="0 0 512 512" enable-background="new 0 0 512 512" xml:space="preserve">
<g id="Layer_2">
	<path fill="#DCE2E2" d="M506.526,492.072c0,8.011-6.494,14.506-14.506,14.506H21.529c-8.011,0-14.506-6.494-14.506-14.506V76.329
		c0-8.011,6.494-14.506,14.506-14.506H492.02c8.011,0,14.506,6.494,14.506,14.506V492.072z"/>
</g>
<g id="Layer_3">
	<path fill="#FF473E" d="M506.526,260.413V74.777c0-7.154-6.494-12.954-14.506-12.954H21.529c-8.011,0-14.505,5.8-14.505,12.954
		v185.636H506.526z"/>
</g>
<g id="Layer_4">
	<path fill="#505A60" d="M212.49,484.073h-29.212c-4.723,0-8.551-3.828-8.551-8.551V344.883c0-6.666-7.289-10.769-12.987-7.31
		l-22.979,13.946c-3.947,2.396-9.084,1.225-11.603-2.645l-11.145-17.121c-2.636-4.05-1.395-9.478,2.739-11.98l58.09-35.16
		c1.335-0.808,2.867-1.236,4.428-1.236h31.221c4.723,0,8.551,3.828,8.551,8.551v183.595
		C221.041,480.245,217.212,484.073,212.49,484.073z"/>
</g>
<g id="Layer_5">
	<path fill="#505A60" d="M385.965,317.042l-69.868,164.53c-1.74,4.097-6.332,6.174-10.558,4.775l-26.709-8.842
		c-4.763-1.577-7.152-6.897-5.165-11.504l58.252-135.061c2.435-5.645-1.704-11.937-7.852-11.937h-59.202
		c-4.723,0-8.551-3.828-8.551-8.551v-18.525c0-4.723,3.828-8.551,8.551-8.551h113.232c4.723,0,8.551,3.828,8.551,8.551V313.7
		C386.645,314.849,386.414,315.985,385.965,317.042z"/>
</g>
<g id="Layer_6">
	<path fill="#FFFFFF" d="M131.778,107.585c0,12.637-10.244,22.881-22.881,22.881s-22.881-10.244-22.881-22.881
		s10.244-22.881,22.881-22.881S131.778,94.948,131.778,107.585z M391.894,84.704c-12.637,0-22.881,10.244-22.881,22.881
		s10.244,22.881,22.881,22.881s22.881-10.244,22.881-22.881S404.531,84.704,391.894,84.704z"/>
</g>
<g id="Layer_7">
	<path fill="#BFBFBB" d="M116.357,4.955C85,4.955,59.489,30.466,59.489,61.823S85,118.692,116.357,118.692
		c6.134,0,11.107-4.973,11.107-11.107s-4.973-11.107-11.107-11.107c-19.108,0-34.655-15.546-34.655-34.655
		s15.546-34.655,34.655-34.655s34.655,15.546,34.655,34.655h22.214C173.226,30.466,147.715,4.955,116.357,4.955z"/>
</g>
<g id="Layer_8">
	<path fill="#BFBFBB" d="M415.415,6.795L415.415,6.795C415.415,6.795,415.414,6.795,415.415,6.795
		c-4.68-1.221-9.523-1.84-14.396-1.84c-31.357,0-56.869,25.511-56.869,56.869s25.512,56.869,56.869,56.869
		c6.135,0,11.107-4.973,11.107-11.107s-4.973-11.107-11.107-11.107c-19.108,0-34.654-15.546-34.654-34.655
		s15.546-34.655,34.654-34.655c2.981,0,5.937,0.377,8.785,1.12l0,0c15.231,3.976,25.869,17.766,25.869,33.534h22.215
		C457.888,35.951,440.422,13.323,415.415,6.795z"/>
</g>
<g id="Layer_9">
	<path fill="#FFFFFF" d="M58.417,213.133c0,14.575-8.27,20.256-17.901,23.658c-0.988,0.349-2.074-0.154-2.442-1.134l-2.568-6.827
		c-0.353-0.939,0.078-1.991,0.987-2.416c6.426-3.005,7.332-7.048,7.332-13.808v-49.151c0-1.061,0.86-1.92,1.92-1.92h10.751
		c1.061,0,1.92,0.86,1.92,1.92V213.133z"/>
</g>
<g id="Layer_10">
	<path fill="#FFFFFF" d="M116.256,202.145c0,12.394-7.999,21.8-23.909,21.8c-15.998,0-23.909-8.878-23.909-21.8v-38.69
		c0-1.061,0.86-1.92,1.92-1.92h10.839c1.061,0,1.92,0.86,1.92,1.92v38.163c0,7.735,2.725,11.515,9.23,11.515
		c6.505,0,9.23-3.78,9.23-11.515v-38.163c0-1.061,0.86-1.92,1.92-1.92h10.839c1.061,0,1.92,0.86,1.92,1.92V202.145z"/>
</g>
<g id="Layer_11">
	<path fill="#FFFFFF" d="M143.052,210.935h19.611c1.165,0,2.061,1.028,1.903,2.182l-1.054,7.674
		c-0.131,0.951-0.943,1.659-1.903,1.659h-33.236c-1.061,0-1.92-0.86-1.92-1.92v-57.075c0-1.061,0.86-1.92,1.92-1.92h10.839
		c1.061,0,1.92,0.86,1.92,1.92v45.56C141.132,210.076,141.992,210.935,143.052,210.935z"/>
</g>
</svg>
