<?xml version="1.0" encoding="iso-8859-1"?>
<!-- Generator: Adobe Illustrator 18.1.0, SVG Export Plug-In . SVG Version: 6.00 Build 0)  -->
<!DOCTYPE svg PUBLIC "-//W3C//DTD SVG 1.1//EN" "http://www.w3.org/Graphics/SVG/1.1/DTD/svg11.dtd">
<svg version="1.1" id="Layer_1" xmlns="http://www.w3.org/2000/svg" xmlns:xlink="http://www.w3.org/1999/xlink" x="0px" y="0px"
	 viewBox="0 0 512 512" enable-background="new 0 0 512 512" xml:space="preserve">
<path fill="#A9B8C2" d="M509.507,277.512c-0.132-6.324-0.469-12.764-1.039-19.213c-0.633-6.446-1.429-12.903-2.615-19.244
	c-1.206-6.336-2.63-12.568-4.475-18.537c-1.869-5.961-3.991-11.684-6.497-16.98c-0.596-1.332-1.308-2.607-1.946-3.884
	c-0.327-0.636-0.652-1.267-0.975-1.893c-0.356-0.613-0.709-1.222-1.059-1.825c-0.713-1.201-1.389-2.395-2.106-3.543
	c-0.758-1.129-1.502-2.237-2.231-3.322c-0.704-1.1-1.51-2.112-2.28-3.113c-0.78-0.994-1.506-1.99-2.286-2.913
	c-0.804-0.908-1.587-1.793-2.348-2.653c-0.383-0.429-0.76-0.852-1.131-1.268c-0.4-0.394-0.793-0.782-1.181-1.164
	c-1.561-1.519-2.987-2.979-4.479-4.161c-1.474-1.219-2.713-2.35-4.159-3.325c-1.088-0.779-2.095-1.49-2.999-2.118
	c-17.825-20.005-42.045-32.731-73.603-32.262c-65.688,0.978-93.648,12.662-135.097-21.204
	c-18.747-41.434-58.358-72.004-117.606-57.282C50.467,79.708,17.34,103.01,10.62,151.743c-1.177,3.953-1.833,8.131-1.861,12.463
	l-0.057,9.042c0,0-0.006,0.972-0.018,2.794c-0.015,0.799-0.034,1.785-0.056,2.945c-0.038,1.238-0.081,2.662-0.13,4.256
	c-0.217,6.425-0.762,15.903-1.466,27.59c-0.686,11.681-1.511,25.551-1.832,40.698c-0.166,7.57-0.185,15.468,0.016,23.566
	c0.214,8.102,0.645,16.406,1.457,24.801c0.798,8.391,1.978,16.872,3.64,25.288c1.69,8.416,3.835,16.767,6.669,24.841
	c2.779,8.07,6.282,15.85,10.323,23.028c4.088,7.169,8.782,13.704,13.741,19.314c4.984,5.601,10.209,10.249,15.126,13.946
	c4.911,3.723,9.528,6.466,13.381,8.522c0.968,0.508,1.884,0.988,2.746,1.441c0.875,0.413,1.695,0.799,2.458,1.159
	c1.526,0.725,2.832,1.311,3.903,1.732c2.137,0.873,3.276,1.338,3.276,1.338c7.498,3.063,16.404,0.769,21.39-6.07
	c5.868-8.047,4.101-19.328-3.946-25.196l-4.269-3.113c0,0-0.685-0.499-1.968-1.435c-0.647-0.447-1.408-1.05-2.277-1.77
	c-0.435-0.353-0.902-0.733-1.4-1.138c-0.473-0.428-0.976-0.882-1.507-1.362c-2.101-1.915-4.49-4.328-6.8-7.322
	c-2.324-2.976-4.592-6.485-6.566-10.505c-1.954-4.048-3.62-8.601-4.9-13.612c-1.242-5.053-2.145-10.52-2.577-16.423
	c-0.471-5.865-0.484-12.146-0.174-18.621c0.171-3.342,0.436-6.743,0.782-10.183c2.131-5.07,4.632-11.539,7.389-19.013
	c2.705,0.653,5.462,1.061,8.26,1.231c0.002,0.006,0.003,0.013,0.003,0.013c7.479,1.072,23.013,9.409,23.51,16.948
	c2.443,37.036,15.236,59.378,26.407,72.059c10.125,11.493,16.997,25.482,20.296,40.438c7.743,35.107,0.007,76.796,46.071,76.796
	c46.064,0,20.081-48.647,34.932-78.646c14.851-29.999,51.294-23.999,51.294-23.999c32.974,0,47.557,10.896,55.469,25.766
	c10.232,19.231-3.267,76.878,47.382,76.878c49.845,0,35.889-67.901,50.29-86.76c18.116-23.724,41.401-51.331,54.368-84.851
	c-0.153,2.274-0.318,4.484-0.491,6.604c-0.398,4.602-0.795,8.821-1.228,12.555c-0.387,3.738-0.841,6.987-1.168,9.668
	c-0.748,5.352-1.175,8.411-1.175,8.411l-0.013,0.09c-0.468,3.383,1.821,6.557,5.213,7.157c3.472,0.613,6.783-1.704,7.397-5.175
	c0,0,0.551-3.12,1.516-8.58c0.435-2.739,1.02-6.057,1.557-9.887c0.583-3.823,1.149-8.152,1.73-12.882
	c0.558-4.734,1.1-9.874,1.552-15.33c0.201-2.731,0.459-5.532,0.603-8.408c0.084-1.437,0.168-2.89,0.254-4.357
	c0.059-1.47,0.119-2.954,0.179-4.45C509.57,290.044,509.606,283.835,509.507,277.512z"/>
<path fill="#2B3B47" d="M80.323,159.559c-8.071-0.431-14.963,5.763-15.394,13.834l-1.349,25.271
	c-0.431,8.071,5.763,14.963,13.834,15.394l0,0c8.071,0.431,14.963-5.763,15.394-13.834l1.349-25.271
	C94.588,166.882,88.394,159.99,80.323,159.559L80.323,159.559z"/>
<g>
	<path fill="#7E9AA8" d="M155.919,254.302c0,0,0.186,0.214,0.546,0.627c0.18,0.207,0.404,0.464,0.67,0.769
		c0.259,0.278,0.558,0.601,0.897,0.966c1.375,1.451,3.472,3.58,6.338,5.903c2.878,2.305,6.577,4.818,11.149,6.742
		c4.559,1.924,9.946,3.32,15.912,3.457c5.951,0.167,12.445-0.82,19.001-3.106c6.559-2.253,13.199-5.68,19.501-10.119
		c6.314-4.413,12.349-9.755,17.746-15.805c5.404-6.053,10.171-12.735,14.562-19.529c4.382-6.796,8.28-13.91,10.839-21.305
		c2.587-7.375,3.857-14.943,3.643-22.166c-0.105-3.612-0.592-7.137-1.44-10.509c-0.212-0.843-0.44-1.679-0.701-2.5l-0.404-1.278
		l-0.47-1.425c-0.623-1.844-1.238-3.666-1.845-5.463c-2.468-7.186-5.09-13.941-7.617-20.117c-2.512-6.191-5.044-11.765-7.338-16.683
		c-2.314-4.909-4.522-9.078-6.409-12.476c-1.932-3.359-3.528-5.955-4.664-7.686c-1.162-1.714-1.782-2.629-1.782-2.629l-0.063-0.093
		c-0.648-0.957-0.399-2.258,0.558-2.906c0.846-0.573,1.961-0.444,2.657,0.255c0,0,0.821,0.824,2.359,2.369
		c1.522,1.562,3.672,3.921,6.24,7.057c2.531,3.151,5.533,7.045,8.753,11.651c3.233,4.598,6.64,9.934,10.217,15.843
		c3.557,5.925,7.206,12.444,10.864,19.519c0.906,1.787,1.846,3.654,2.698,5.421l0.657,1.35l0.352,0.733l0.347,0.792
		c0.469,1.056,0.901,2.137,1.311,3.234c1.642,4.386,2.832,9.065,3.513,13.883c1.38,9.652,0.618,19.764-1.692,29.466
		c-2.33,9.709-6.101,19.137-11.242,27.675c-5.142,8.548-11.762,16.039-18.959,22.524c-7.201,6.491-14.975,12.089-23.123,16.485
		c-8.143,4.383-16.626,7.64-25.07,9.388c-8.43,1.745-16.805,2.011-24.324,0.718c-7.525-1.261-14.111-3.94-19.253-7.182
		c-5.183-3.209-9.009-6.814-11.86-9.924c-2.86-3.128-4.708-5.822-5.948-7.694c-0.307-0.473-0.578-0.891-0.812-1.252
		c-0.21-0.346-0.387-0.638-0.529-0.872c-0.285-0.469-0.431-0.711-0.431-0.711c-0.828-1.364-0.393-3.14,0.971-3.968
		C153.462,252.99,155.013,253.261,155.919,254.302z"/>
</g>
<g>
	<path fill="#E8EBED" d="M88.503,271.766c0,0-0.605,0.386-1.664,1.06c-0.664,0.433-1.469,0.958-2.394,1.56
		c-1.02,0.689-2.111,1.282-3.305,1.943c-1.196,0.656-2.56,1.31-3.992,1.952c-0.728,0.301-1.476,0.61-2.24,0.926
		c-0.77,0.293-1.571,0.556-2.372,0.832c-0.798,0.29-1.628,0.499-2.456,0.731c-0.829,0.237-1.664,0.451-2.507,0.615
		c-1.684,0.391-3.368,0.628-5.034,0.869c-1.653,0.163-3.296,0.343-4.868,0.388c-1.586,0.099-3.099,0.074-4.563,0.082
		c-1.453-0.027-2.841-0.078-4.145-0.139c-1.29-0.089-2.51-0.173-3.636-0.251c-2.228-0.2-4.065-0.381-5.339-0.542
		c-1.275-0.148-2.004-0.233-2.004-0.233c-2.678-0.312-4.597-2.736-4.286-5.414c0.234-2.008,1.655-3.59,3.481-4.124l0.128-0.036
		c0,0,0.674-0.196,1.853-0.54c1.183-0.331,2.847-0.849,4.817-1.479c0.969-0.333,2.018-0.693,3.128-1.074
		c1.089-0.403,2.223-0.835,3.371-1.296c1.126-0.49,2.304-0.962,3.408-1.526c1.141-0.521,2.199-1.139,3.26-1.716
		c1.007-0.636,2.009-1.242,2.885-1.915c0.459-0.312,0.88-0.653,1.279-0.996c0.402-0.34,0.812-0.648,1.163-1.008
		c0.36-0.35,0.719-0.67,1.05-1.007c0.319-0.346,0.631-0.684,0.935-1.013c0.587-0.684,1.119-1.315,1.589-1.953
		c0.466-0.641,0.915-1.219,1.16-1.691c0.296-0.492,0.47-0.797,0.905-1.41c0.714-1.033,1.122-1.624,1.122-1.624
		c4.451-6.442,13.282-8.055,19.724-3.604c6.442,4.451,8.055,13.282,3.604,19.724c-1.096,1.586-2.457,2.879-3.982,3.861
		L88.503,271.766z"/>
</g>
</svg>
