<?xml version="1.0" encoding="iso-8859-1"?>
<!-- Generator: Adobe Illustrator 18.1.1, SVG Export Plug-In . SVG Version: 6.00 Build 0)  -->
<!DOCTYPE svg PUBLIC "-//W3C//DTD SVG 1.1//EN" "http://www.w3.org/Graphics/SVG/1.1/DTD/svg11.dtd">
<svg version="1.1" xmlns="http://www.w3.org/2000/svg" xmlns:xlink="http://www.w3.org/1999/xlink" x="0px" y="0px"
	 viewBox="0 0 512 512" enable-background="new 0 0 512 512" xml:space="preserve">
<g id="Layer_2">
	<path fill="#AF773F" d="M502.218,427.96H173.435V91.976h328.783c3.976,0,7.2,3.224,7.2,7.2V420.76
		C509.418,424.736,506.195,427.96,502.218,427.96z"/>
</g>
<g id="Layer_3">
	<path fill="#E5AA6E" d="M335.983,427.96H7.2c-3.976,0-7.2-3.224-7.2-7.2V99.176c0-3.976,3.224-7.2,7.2-7.2h328.783V427.96z"/>
</g>
<g id="Layer_4">
	<path fill="#332A23" d="M201.019,231.489h-66.055c-13.495,0-24.436-10.94-24.436-24.436v0c0-13.495,10.94-24.436,24.436-24.436
		h66.055c13.495,0,24.436,10.94,24.436,24.436v0C225.455,220.549,214.515,231.489,201.019,231.489z"/>
</g>
<g id="Layer_5">
	<path fill="#3F6072" d="M207.592,141.397c0,4.199-3.404,7.604-7.604,7.604h-63.993c-4.199,0-7.604-3.404-7.604-7.604v-49.42h79.2
		V141.397z M128.392,427.96h79.2v-49.42c0-4.199-3.404-7.604-7.604-7.604h-63.993c-4.199,0-7.604,3.404-7.604,7.604V427.96z"/>
</g>
</svg>
