<?xml version="1.0" encoding="iso-8859-1"?>
<!-- Generator: Adobe Illustrator 19.1.0, SVG Export Plug-In . SVG Version: 6.00 Build 0)  -->
<!DOCTYPE svg PUBLIC "-//W3C//DTD SVG 1.1//EN" "http://www.w3.org/Graphics/SVG/1.1/DTD/svg11.dtd">
<svg version="1.1" xmlns="http://www.w3.org/2000/svg" xmlns:xlink="http://www.w3.org/1999/xlink" x="0px" y="0px"
	 viewBox="0 0 511.92 513.326" enable-background="new 0 0 511.92 513.326" xml:space="preserve">
<g id="Layer_4">
	<path fill="#CECECE" d="M142.144,494.723c0,0-1.442,1.156-3.605,2.889c-2.427,1.828-4.383,5.162-6.6,7.014
		c-3.677,3.268-6.385,5.154-6.385,5.154c-6.245,4.349-15.134,2.033-19.853-5.173c-3.587-5.475-3.733-12.199-0.857-17.02
		c0,0,9.219-15.869,11.062-17.692c1.917-2.035,3.195-3.392,3.195-3.392c6.199-6.583,16.74-5.929,23.544,1.46
		c6.804,7.389,7.295,18.715,1.096,25.298c-0.453,0.48-0.928,0.922-1.423,1.325L142.144,494.723z M179.033,494.723
		c0,0,1.442,1.156,3.605,2.889c2.427,1.828,4.383,5.162,6.6,7.014c3.677,3.268,6.385,5.154,6.385,5.154
		c6.245,4.349,15.134,2.033,19.853-5.173c3.587-5.475,3.733-12.199,0.857-17.02c0,0-9.219-15.869-11.062-17.692
		c-1.917-2.035-3.195-3.392-3.195-3.392c-6.199-6.583-16.74-5.929-23.544,1.46c-6.804,7.389-7.295,18.715-1.096,25.298
		c0.453,0.48,0.928,0.922,1.423,1.325L179.033,494.723z"/>
</g>
<g id="Layer_1">
</g>
</svg>
