<svg xmlns="http://www.w3.org/2000/svg" viewBox="0 0 512 512" enable-background="new 0 0 512 512"><path fill="#A9B8C2" d="M514.84 125.62c-.926-4.733-2.613-9.324-4.75-13.6-2.146-4.29-5.067-8.103-8.165-11.44l-2.477-2.313-1.233-1.112-1.308-.982-2.584-1.883c-.864-.587-1.77-1.062-2.634-1.572-.876-.49-1.727-1-2.583-1.42l-2.554-1.115c-.835-.35-1.65-.712-2.45-1.01l-2.352-.73c-3.06-1.03-5.724-1.39-7.94-1.817l-.81-.14c-.255-.025-.505-.048-.747-.07l-1.364-.123c-.85-.07-1.57-.13-2.157-.18l-1.8-.135c-.035-.003-.126-.01-.162-.01-5.777-.35-10.743 4.054-11.09 9.832-.35 5.778 4.054 10.744 9.832 11.092l1.42.086 1.183.07 1.42.078.9.044c.323.003.66.034 1.002.106 1.377.258 3.115.39 4.926.987.463.122.94.25 1.432.378.474.17.94.38 1.434.57l1.51.59c.5.23.974.525 1.482.786.495.28 1.036.514 1.53.838l1.48 1.035.765.52.703.624 1.454 1.26c1.79 1.9 3.603 4.02 4.982 6.625 1.364 2.593 2.567 5.453 3.263 8.57.686 3.11 1.077 6.377 1.026 9.666-.096 3.285-.544 6.555-1.327 9.673-.87 3.09-2.05 5.994-3.47 8.613l-1.17 1.86c-.36.636-.804 1.19-1.24 1.74-.336.41-.644.842-.975 1.244C470.302 129.71 434.25 125.5 388.487 125.5c-68.62 0-110.497 12.552-170.54 12.552-56.952 0-34.99-34.22-90.828-59.24-1.103-.82-2.285-1.652-3.56-2.488-2.107-1.372-4.443-2.735-6.935-4.005-2.5-1.286-5.148-2.466-7.895-3.546-2.736-1.07-5.577-2.04-8.41-2.858-2.854-.828-5.704-1.533-8.474-2.19-2.794-.643-5.493-1.223-8.087-1.752l-7.44-1.47c-1.213-.215-2.313-.457-3.443-.696-1.09-.233-2.212-.446-3.226-.705-1.063-.24-2.046-.48-3.052-.737-.92-.293-1.962-.504-2.83-.81-1.84-.555-3.513-1.18-5.046-1.816-1.516-.644-2.897-1.288-4.013-1.896-1.155-.583-2.07-1.113-2.68-1.492l-1-.57-.57-.328c-.61-.346-1.304-.572-2.048-.644-2.846-.276-5.377 1.807-5.653 4.653 0 0-.046.458-.083 1.328-.015.86-.09 2.167.057 3.797.063.82.128 1.75.312 2.72.17.976.324 2.085.637 3.19.287 1.126.594 2.363 1.05 3.583l.69 1.92c.25.642.54 1.283.832 1.95.29.675.605 1.344.945 2.008.33.676.69 1.36 1.067 2.045.775 1.31 1.572 2.762 2.49 4.078.912 1.373 1.875 2.696 2.898 4.058 1.034 1.285 2.12 2.636 3.23 3.9 2.26 2.544 4.638 5.008 7.075 7.29.862.81 1.732 1.58 2.602 2.355-6.475 9.015-12.81 16.486-18.792 22.864-10.752 8.68-19.514 16.872-25.93 24.893-11.02 10.514-17.364 18.913-15.38 33.31 4.32 31.325 36.198 29.46 36.198 29.46s4.412.845 11.152 1.667c7.81 1.645 21.75 4.165 35.78 4.658l20.365 5.65c14.385 0 35.935 58.177 56.997 106.78 15.245 35.178 38.998 14.998 31.498 86.995-3.958 38 2.495 48.317 15.995 48.317 12.16 0 20.018-39.412 27-60.317 18.663-55.89-9.996-70.496 93.5-70.496 32.88 0 58.496 4.5 50.996 50.997-3.283 20.368-11.997 79.817 5.41 79.817 11.09 0 27.55-31.492 35.09-53.92 3.044-9.055 21.67-73.978 29.173-79.893 15.714-12.39 48.296-58.746 48.296-93.214 0-23.99-2.574-42.874-7.4-57.727.284-.232.566-.465.858-.694.784-.66 1.645-1.28 2.363-2.045l2.266-2.266c.764-.77 1.403-1.643 2.116-2.484.705-.85 1.41-1.715 2.005-2.652.622-.923 1.26-1.857 1.87-2.813 2.302-3.893 4.18-8.155 5.57-12.64 1.3-4.503 2.1-9.21 2.37-13.98.227-4.777-.166-9.607-1.086-14.335z"/></svg>