<?xml version="1.0" encoding="utf-8"?>
<!-- Generator: Adobe Illustrator 18.0.0, SVG Export Plug-In . SVG Version: 6.00 Build 0)  -->
<!DOCTYPE svg PUBLIC "-//W3C//DTD SVG 1.1 Tiny//EN" "http://www.w3.org/Graphics/SVG/1.1/DTD/svg11-tiny.dtd">
<svg version="1.1" baseProfile="tiny" id="Layer_1" xmlns="http://www.w3.org/2000/svg" xmlns:xlink="http://www.w3.org/1999/xlink"
	 x="0px" y="0px" width="511.9px" height="511.9px" viewBox="0 0 511.9 511.9" xml:space="preserve">
<circle fill="#422714" cx="119.5" cy="232.8" r="7.6"/>
<circle fill="#422714" cx="119.5" cy="270.4" r="7.6"/>
<circle fill="#422714" cx="344.7" cy="232.8" r="7.6"/>
<circle fill="#422714" cx="344.7" cy="270.4" r="7.6"/>
<g>
	<path fill="#422714" d="M232.1,25.2c-11.7,0-22.9,2-33.3,5.7C172,53.8,155,87.8,155,125.7v26.1c1.1,0,2.2,0,3.4,0
		c7,0,13.9,0,20.9,0v-26.1c0-47.2,32.7-86.9,76.6-97.6C248.3,26.2,240.3,25.2,232.1,25.2z"/>
	<path fill="#422714" d="M279.8,0.9c-8.2,0-16.1,0.8-23.8,2.3c21.5,4.2,41.1,13.9,57.2,27.7c39.1,13.8,67.1,51.1,67.1,94.8v26.1
		c7,0,13.9,0,20.9,0c1.1,0,2.3,0,3.4,0.1v-26.1C404.6,56.9,348.6,0.9,279.8,0.9z"/>
</g>
</svg>
