<?xml version="1.0" encoding="iso-8859-1"?>
<!-- Generator: Adobe Illustrator 19.1.0, SVG Export Plug-In . SVG Version: 6.00 Build 0)  -->
<!DOCTYPE svg PUBLIC "-//W3C//DTD SVG 1.1//EN" "http://www.w3.org/Graphics/SVG/1.1/DTD/svg11.dtd">
<svg version="1.1" xmlns="http://www.w3.org/2000/svg" xmlns:xlink="http://www.w3.org/1999/xlink" x="0px" y="0px"
	 viewBox="0 0 511.92 513.326" enable-background="new 0 0 511.92 513.326" xml:space="preserve">
<g id="Layer_11">
	<path fill="#FF929D" d="M160.59,136.183c-0.003,0-0.006,0-0.009,0c-5.644-0.003-10.681-2.852-13.475-7.62
		c-0.688-1.173-0.293-2.682,0.88-3.369c1.173-0.688,2.682-0.294,3.369,0.88c1.901,3.245,5.351,5.183,9.229,5.185
		c0.002,0,0.004,0,0.006,0c3.882,0,7.337-1.939,9.245-5.188c0.688-1.172,2.196-1.565,3.37-0.876c1.172,0.688,1.564,2.197,0.876,3.37
		C171.279,133.336,166.236,136.183,160.59,136.183z M353.182,142.783c1.041-0.947,1.116-2.558,0.17-3.598
		c-0.947-1.04-2.557-1.118-3.598-0.169c-4.723,4.296-11.371,4.227-16.171-0.167c-1.037-0.951-2.648-0.879-3.598,0.158
		c-0.95,1.038-0.88,2.648,0.158,3.599c3.39,3.104,7.539,4.66,11.673,4.66C345.864,147.264,349.897,145.772,353.182,142.783z"/>
</g>
<g id="Layer_1">
</g>
</svg>
