<?xml version="1.0" encoding="iso-8859-1"?>
<!-- Generator: Adobe Illustrator 19.2.0, SVG Export Plug-In . SVG Version: 6.00 Build 0)  -->
<!DOCTYPE svg PUBLIC "-//W3C//DTD SVG 1.1//EN" "http://www.w3.org/Graphics/SVG/1.1/DTD/svg11.dtd">
<svg version="1.1" xmlns="http://www.w3.org/2000/svg" xmlns:xlink="http://www.w3.org/1999/xlink" x="0px" y="0px"
	 viewBox="0 0 512 512" enable-background="new 0 0 512 512" xml:space="preserve">
<g id="Layer_10">
	<path fill="#FFD469" d="M94.821,100.963l35.44-45.081c0.989-1.258,3.006-0.422,2.816,1.166l-6.817,56.937
		c-0.122,1.018,0.742,1.882,1.76,1.76l56.937-6.817c1.589-0.19,2.424,1.827,1.167,2.816l-45.081,35.44
		c-0.806,0.634-0.806,1.855,0,2.489l45.081,35.44c1.258,0.989,0.422,3.006-1.167,2.816l-56.937-6.817
		c-1.018-0.122-1.882,0.742-1.76,1.76l6.817,56.937c0.19,1.589-1.827,2.424-2.816,1.166l-35.44-45.081
		c-0.634-0.806-1.855-0.806-2.489,0l-35.44,45.081c-0.989,1.258-3.006,0.422-2.816-1.166l6.817-56.937
		c0.122-1.018-0.742-1.882-1.76-1.76l-56.937,6.817c-1.589,0.19-2.424-1.827-1.166-2.816l45.081-35.44
		c0.806-0.634,0.806-1.855,0-2.489l-45.081-35.44c-1.258-0.989-0.422-3.006,1.166-2.816l56.937,6.817
		c1.018,0.122,1.882-0.742,1.76-1.76l-6.817-56.937c-0.19-1.589,1.827-2.424,2.816-1.166l35.44,45.081
		C92.966,101.769,94.188,101.769,94.821,100.963z"/>
</g>
<g id="Layer_1">
</g>
</svg>
