<?xml version="1.0" encoding="iso-8859-1"?>
<!-- Generator: Adobe Illustrator 18.1.1, SVG Export Plug-In . SVG Version: 6.00 Build 0)  -->
<!DOCTYPE svg PUBLIC "-//W3C//DTD SVG 1.1//EN" "http://www.w3.org/Graphics/SVG/1.1/DTD/svg11.dtd">
<svg version="1.1" xmlns="http://www.w3.org/2000/svg" xmlns:xlink="http://www.w3.org/1999/xlink" x="0px" y="0px"
	 viewBox="0 0 72 72" enable-background="new 0 0 72 72" xml:space="preserve">
<g id="Layer_14">
	<path fill="#FF473E" d="M63.113,32.338l1.987,5c0.478,1.577-0.412,3.244-1.99,3.722c-1.577,0.479-3.244-0.412-3.722-1.99
		c-0.178-0.587-0.166-1.186,0-1.732l1.987-5c0.145-0.48,0.653-0.751,1.133-0.606C62.806,31.824,63.026,32.061,63.113,32.338z
		 M70.138,13.661c-0.329-0.1-0.677,0.086-0.777,0.415l-1.362,3.428c-0.114,0.374-0.122,0.785,0,1.187
		c0.328,1.082,1.471,1.692,2.552,1.364c1.082-0.328,1.692-1.47,1.364-2.552l-1.362-3.428C70.494,13.886,70.344,13.723,70.138,13.661
		z"/>
</g>
<g id="Layer_1">
</g>
</svg>
