<?xml version="1.0" encoding="utf-8"?>
<!-- Generator: Adobe Illustrator 18.1.0, SVG Export Plug-In . SVG Version: 6.00 Build 0)  -->
<!DOCTYPE svg PUBLIC "-//W3C//DTD SVG 1.0//EN" "http://www.w3.org/TR/2001/REC-SVG-20010904/DTD/svg10.dtd">
<svg version="1.0" id="Layer_1" xmlns="http://www.w3.org/2000/svg" xmlns:xlink="http://www.w3.org/1999/xlink" x="0px" y="0px"
	 width="72px" height="72px" viewBox="0 0 72 72" enable-background="new 0 0 72 72" xml:space="preserve">
<path fill="#AFA394" d="M53.6,2.1c-0.1-0.4-0.3-0.6-0.4-0.8C53.1,1.2,53,1.1,53,1.1c0,0-0.1-0.1-0.2,0c0,0-0.1,0.1,0,0.2l0,0
	c0,0,0.1,0.1,0.2,0.2c0.1,0.2,0.3,0.4,0.3,0.8c0.1,0.3,0.1,0.8,0,1.3c-0.1,0.5-0.3,1-0.7,1.5c-0.2,0.3-0.6,0.6-1,0.9
	c-0.1-0.3-0.2-0.6-0.3-1c-0.2-0.4-0.4-0.8-0.6-1.2c-0.3-0.4-0.6-0.8-1.1-1c-0.5-0.2-1.2-0.1-1.6,0.2c-0.4,0.2-0.8,0.7-0.8,1.3
	c0,0.6,0.2,1,0.5,1.4c0.3,0.4,0.7,0.6,1,0.8c0.6,0.3,1.2,0.5,1.9,0.4c0,0.2,0,0.5,0,0.7c-0.2,0.6-0.5,1.2-1,1.6
	c-0.5,0.4-1,0.7-1.5,0.8c-0.7,0.2-1.4,0.2-1.9,0.1c0-0.3,0.1-0.7,0.1-1.1c0-4.8-4.6-8.7-10.3-8.7S25.7,4,25.7,8.8s4.6,8.7,10.3,8.7
	c4.5,0,8.4-2.5,9.8-5.9c0.8,0.1,1.8,0,2.9-0.4c0.7-0.3,1.4-0.7,2-1.3c0.6-0.6,1-1.4,1.2-2.4c0-0.5,0-0.9-0.1-1.3
	C52.3,6,52.7,5.6,53,5.2c0.4-0.5,0.6-1.1,0.7-1.7C53.8,3,53.7,2.5,53.6,2.1z M49.1,5.9c-0.6-0.4-1.2-1-1.2-1.7
	c0-0.3,0.2-0.5,0.6-0.7c0.3-0.2,0.6-0.2,0.9-0.1c0.6,0.3,0.9,1.1,1.1,1.8c0.1,0.3,0.2,0.7,0.2,1.1C50.2,6.3,49.6,6.2,49.1,5.9z"/>
</svg>
