<?xml version="1.0" encoding="utf-8"?>
<!-- Generator: Adobe Illustrator 18.0.0, SVG Export Plug-In . SVG Version: 6.00 Build 0)  -->
<!DOCTYPE svg PUBLIC "-//W3C//DTD SVG 1.1 Tiny//EN" "http://www.w3.org/Graphics/SVG/1.1/DTD/svg11-tiny.dtd">
<svg version="1.1" baseProfile="tiny" id="Layer_1" xmlns="http://www.w3.org/2000/svg" xmlns:xlink="http://www.w3.org/1999/xlink"
	 x="0px" y="0px" width="511.9px" height="511.9px" viewBox="0 0 511.9 511.9" xml:space="preserve">
<path fill="#A57655" d="M431.6,269.1c10.7-19.6,12.4-38.3,12.4-48.5c0-41.7-30.7-76.2-70.7-82.2C358,33.1,270.9,1.8,269.9,1.4
	c-2-0.7-4.3,0.1-5.4,1.9c-1.1,1.8-0.9,4.2,0.7,5.7c8.6,8.6,12.2,16.5,11,24.2c-2.8,18.7-33.6,35-58.3,48c-5.8,3.1-11.4,6-16.4,8.9
	c-10.7,6.1-22.1,11.6-33.2,16.9c-38.2,18.4-77.4,37.3-89.3,83c-3.7,9.4-5.8,19.7-5.8,30.4c0,8.7,1.5,27,11.8,46.7
	c-38.1,13-65.6,49.2-65.6,91.8c0,28.5,10.6,98.4,108.6,132.7c45.3,15.8,94.6,19.1,127.9,19.1c174.4,0,236.5-78.4,236.5-151.8
	C492.5,318.3,467.3,283.4,431.6,269.1z"/>
<path fill="#2B3B47" d="M179,219.9c13.2,0,23.9,10.7,23.9,23.9v36.6c0,13.2-10.7,23.9-23.9,23.9l0,0c-13.2,0-23.9-10.7-23.9-23.9
	v-36.6C155.1,230.6,165.8,219.9,179,219.9L179,219.9z"/>
<path fill="#2B3B47" d="M343.5,219.9c13.2,0,23.9,10.7,23.9,23.9v36.6c0,13.2-10.7,23.9-23.9,23.9l0,0c-13.2,0-23.9-10.7-23.9-23.9
	v-36.6C319.6,230.6,330.3,219.9,343.5,219.9L343.5,219.9z"/>
<path fill="#2B3B47" d="M373.9,359.7c-3.2-5.6-9.2-9.1-15.7-9.1H162.7c-6.5,0-12.5,3.5-15.7,9.1c-3.2,5.6-3.2,12.5,0.1,18.1
	c12.3,21,29.9,37.5,50.6,48.5c16.8-13.7,38.6-13.2,62.7-13.2c24.1,0,45.9-0.5,62.7,13.2c20.7-11,38.3-27.5,50.6-48.5
	C377,372.3,377.1,365.3,373.9,359.7z"/>
<path fill="#FF473E" d="M197.7,426.4c18.8,10,40.2,15.4,62.7,15.4c22.5,0,43.9-5.5,62.7-15.4c-16.8-13.7-38.6-13.2-62.7-13.2
	C236.4,413.1,214.6,412.7,197.7,426.4z"/>
</svg>
