<?xml version="1.0" encoding="utf-8"?>
<!-- Generator: Adobe Illustrator 18.1.0, SVG Export Plug-In . SVG Version: 6.00 Build 0)  -->
<!DOCTYPE svg PUBLIC "-//W3C//DTD SVG 1.0//EN" "http://www.w3.org/TR/2001/REC-SVG-20010904/DTD/svg10.dtd">
<svg version="1.0" id="Layer_1" xmlns="http://www.w3.org/2000/svg" xmlns:xlink="http://www.w3.org/1999/xlink" x="0px" y="0px"
	 width="72px" height="72px" viewBox="0 0 72 72" enable-background="new 0 0 72 72" xml:space="preserve">
<path fill="#2B3B47" d="M23.4,39.9L23.4,39.9C23.4,39.9,23.4,39.9,23.4,39.9c0,1.4-1.1,2.5-2.5,2.5c-1.4,0-2.5-1.1-2.5-2.5
	c0,0,0,0,0,0h0l0-3.5c0.1-1.3,1.2-2.3,2.5-2.3c1.3,0,2.4,1,2.5,2.3L23.4,39.9z M53.5,36.3C53.4,35,52.3,34,51,34
	c-1.3,0-2.4,1-2.5,2.3l0,3.5h0c0,0,0,0,0,0c0,1.4,1.1,2.5,2.5,2.5c1.4,0,2.5-1.1,2.5-2.5c0,0,0,0,0,0l0,0L53.5,36.3z"/>
</svg>
