<?xml version="1.0" encoding="utf-8"?>
<!-- Generator: Adobe Illustrator 18.0.0, SVG Export Plug-In . SVG Version: 6.00 Build 0)  -->
<!DOCTYPE svg PUBLIC "-//W3C//DTD SVG 1.1 Tiny//EN" "http://www.w3.org/Graphics/SVG/1.1/DTD/svg11-tiny.dtd">
<svg version="1.1" baseProfile="tiny" id="Layer_1" xmlns="http://www.w3.org/2000/svg" xmlns:xlink="http://www.w3.org/1999/xlink"
	 x="0px" y="0px" width="511.9px" height="511.9px" viewBox="0 0 511.9 511.9" xml:space="preserve">
<path fill="#FCD2B6" d="M508.3,341.2c0-13.2-10.7-23.9-24-23.9c-0.3,0-0.5,0-0.8,0c-3.7-12.5-6.5-32.4-17.1-53.4
	c-4.8-9.5-14.3-18.1-25.7-25.6c-4.9-3.2-11-4-16.6-2.3c-24.7,7.8-66.7,20.1-87.8,20.1c-4.9,0-10.3-3.5-13.6-6.9
	c-13.8-14.3-21.9,44.5-32,68.1c-0.6,0-1.2-0.1-1.8-0.1c-13.2,0-24,10.7-24,23.9c0,13.2,10.7,23.9,24,23.9c0.1,0,0.3,0,0.4,0
	c1.8,52.2,44.7,93.9,97.3,93.9c52.6,0,95.5-41.7,97.3-93.9h6.4v-0.8C500.7,361.7,508.3,352.4,508.3,341.2z"/>
<path fill="#FDDFCE" d="M232.2,317.3h-3.4l3.4-51.3c0-57.3-49.5-86.9-106.8-86.9c-57.3,0-100.7,29.6-100.7,86.9l6.4,95.7
	c0,53.8,43.6,97.3,97.4,97.3c52.6,0,95.5-41.7,97.3-93.9h6.4c13.2,0,24-10.7,24-23.9C256.1,328,245.4,317.3,232.2,317.3z"/>
<path fill="#EBBFA1" d="M128.4,382.1C128.4,382.1,128.4,382.1,128.4,382.1c-7.4,0-14.1-3.7-18-9.8c-1.3-2.1-0.7-4.9,1.4-6.3
	c2.1-1.3,4.9-0.7,6.3,1.4c2.2,3.5,6,5.6,10.3,5.6c0,0,0,0,0,0c4.3,0,8.1-2.1,10.3-5.6c1.3-2.1,4.1-2.7,6.3-1.4
	c2.1,1.3,2.7,4.1,1.4,6.3C142.5,378.5,135.8,382.1,128.4,382.1z"/>
<path fill="#FCD2B6" d="M119.7,448.9c-22.3,0-42.9-6.8-60.1-18.3c17.6,17.6,41.9,28.5,68.8,28.5c53.8,0,97.4-43.6,97.4-97.3l0.3-4.9
	C218.6,408.9,173.9,448.9,119.7,448.9z"/>
<path fill="#E4AA82" d="M386.7,381.8C386.7,381.8,386.7,381.8,386.7,381.8c-7.3,0-13.9-3.6-17.7-9.7c-1.3-2-0.7-4.6,1.3-5.9
	c2-1.3,4.6-0.7,5.9,1.3c2.2,3.6,6.2,5.7,10.5,5.7c0,0,0,0,0,0c4.3,0,8.3-2.1,10.5-5.7c1.3-2,3.9-2.6,5.9-1.3c2,1.3,2.6,3.9,1.3,5.9
	C400.6,378.2,394,381.8,386.7,381.8z"/>
<path fill="#EBBFA1" d="M378,448.9c-22.3,0-42.9-6.8-60.1-18.3c17.6,17.6,41.9,28.5,68.8,28.5c53.8,0,97.4-43.6,97.4-97.3l0.3-4.9
	C476.8,408.9,432.1,448.9,378,448.9z"/>
<path fill="#69452B" d="M390.1,157.1c-1.5-0.1-3-0.2-4.6-0.3c-0.3,0-0.7-0.1-1-0.1c-0.1,0-0.2,0-0.3,0c-0.1,0-0.1,0-0.2,0
	c-0.1,0-0.2,0-0.3,0c-3,0-5.7,0.2-8.2,0.5c-53.1,5-102.3,72.7-102.3,113.2c0,5.2,8.4,49.3,8.4,49.3c0.7,3.7,5.6,4.6,7.4,1.3
	c11-20.3,19.2-86.9,33.7-71.8c3.3,3.4,8.7,6.9,13.6,6.9c21.2,0,63.2-12.2,87.8-20.1c5.6-1.8,11.7-1,16.6,2.3
	c11.4,7.5,20.9,16.1,25.7,25.6c11.6,23.1,13.9,44.8,18.3,56.9c1.9,5.4,10,3.9,10-1.8l0.5-45.8v-2.8
	C495.3,211.6,444.3,160.5,390.1,157.1z"/>
<path fill="#EBBFA1" d="M68.8,357.7c-4,0-7.9-0.9-11.6-2.6c-1.6-0.8-2.3-2.8-1.6-4.4c0.8-1.6,2.7-2.3,4.4-1.6
	c5.7,2.7,12.4,2.6,18.2-0.3c1.6-0.8,3.6-0.1,4.4,1.5c0.8,1.6,0.1,3.6-1.5,4.4C77.2,356.8,73,357.7,68.8,357.7z"/>
<path fill="#2C3C47" d="M84.9,335.9c-0.1-0.4-0.2-0.8-0.3-1.2c-2.9-6.5-8.8-10.6-15.4-10.6c-6.6,0-12.5,4.1-15.4,10.6
	c-0.2,0.4-0.3,0.8-0.3,1.2c-0.9,1.9-0.5,4.3,1.2,5.7c0.9,0.8,2.1,1.2,3.2,1.2c1.3,0,2.7-0.6,3.7-1.6c1.9-2.2,4.8-3.5,7.7-3.5
	c0,0,0,0,0,0c3,0,5.8,1.3,7.7,3.5c1.8,2,4.9,2.2,6.9,0.4C85.4,340.2,85.8,337.8,84.9,335.9z"/>
<path fill="#EBBFA1" d="M49.3,314.4c-0.4,0-0.8-0.1-1.2-0.2c-1.7-0.7-2.5-2.6-1.9-4.3c2-5.1,6.1-9.1,11.3-10.9
	c5.2-1.9,10.9-1.5,15.7,1.1c1.6,0.9,2.2,2.9,1.3,4.5c-0.9,1.6-2.9,2.2-4.5,1.3c-3.1-1.7-6.9-2-10.3-0.7c-3.4,1.2-6.1,3.8-7.4,7.2
	C51.9,313.6,50.6,314.4,49.3,314.4z"/>
<path fill="#EBBFA1" d="M190,357.7c-4.2,0-8.4-1-12.3-2.9c-1.6-0.8-2.3-2.8-1.5-4.4c0.8-1.6,2.8-2.3,4.4-1.5
	c5.8,2.9,12.4,3,18.2,0.3c1.6-0.8,3.6-0.1,4.4,1.6c0.8,1.6,0.1,3.6-1.6,4.4C197.9,356.9,194,357.7,190,357.7z"/>
<path fill="#2C3C47" d="M205.4,335.9c-0.1-0.4-0.2-0.8-0.3-1.2c-2.9-6.5-8.8-10.6-15.4-10.6c-6.6,0-12.5,4.1-15.4,10.6
	c-0.2,0.4-0.3,0.8-0.3,1.2c-0.9,1.9-0.5,4.3,1.2,5.7c2,1.8,5.1,1.6,6.9-0.4c1.9-2.2,4.8-3.5,7.7-3.5c0,0,0,0,0,0
	c3,0,5.8,1.3,7.7,3.5c1,1.1,2.3,1.6,3.7,1.6c1.1,0,2.3-0.4,3.2-1.2C205.9,340.2,206.3,337.8,205.4,335.9z"/>
<path fill="#EBBFA1" d="M200.8,314.4c-1.3,0-2.6-0.8-3.1-2.1c-1.3-3.3-4-5.9-7.4-7.2c-3.4-1.2-7.1-1-10.3,0.7
	c-1.6,0.9-3.6,0.3-4.5-1.3c-0.9-1.6-0.3-3.6,1.3-4.5c4.8-2.6,10.5-3,15.7-1.1c5.2,1.9,9.3,5.9,11.3,10.9c0.7,1.7-0.2,3.6-1.9,4.3
	C201.6,314.3,201.2,314.4,200.8,314.4z"/>
<path fill="#F48F9C" d="M146.5,412.1c0.8-1.3,1.3-2.7,1.3-4.3c0-4.5-3.6-8.1-8.1-8.1c-1.5,0-2.7,1.2-2.7,2.7c0,1.5,1.2,2.7,2.7,2.7
	c1.5,0,2.7,1.2,2.7,2.7c0,1.5-1.2,2.7-2.7,2.7h-13.6c-1.5,0-2.7,1.2-2.7,2.7s1.2,2.7,2.7,2.7h13.6h1.4c2.4,0,4.4,2,4.4,4.4
	c0,2.4-2,4.4-4.4,4.4h-11.8c-1.5,0-2.7,1.2-2.7,2.7s1.2,2.7,2.7,2.7h11.8c5.4,0,9.8-4.4,9.8-9.8
	C150.9,416.9,149.2,413.9,146.5,412.1z"/>
<path fill="#EBBFA1" d="M446,349.1c-4.2,0-8.4-1-12.3-2.9c-1.6-0.8-2.3-2.8-1.5-4.4c0.8-1.6,2.8-2.3,4.4-1.5
	c5.8,2.9,12.4,3,18.2,0.3c1.6-0.8,3.6-0.1,4.4,1.6c0.8,1.6,0.1,3.6-1.6,4.4C453.9,348.2,450,349.1,446,349.1z"/>
<path fill="#2C3C47" d="M461.4,327.3c-0.1-0.4-0.2-0.8-0.3-1.2c-2.9-6.5-8.8-10.6-15.4-10.6c-6.6,0-12.5,4.1-15.4,10.6
	c-0.2,0.4-0.3,0.8-0.3,1.2c-0.9,1.9-0.5,4.3,1.2,5.7c0.9,0.8,2.1,1.2,3.2,1.2c1.3,0,2.7-0.6,3.7-1.6c1.9-2.2,4.8-3.5,7.7-3.5
	c0,0,0,0,0,0c3,0,5.8,1.3,7.7,3.5c1.8,2,4.9,2.2,6.9,0.4C461.9,331.5,462.3,329.2,461.4,327.3z"/>
<path fill="#E4AA82" d="M461.1,305.9c-1.4,0-2.7-0.8-3.2-2.2c-1.3-3.3-4-5.9-7.3-7.1c-3.3-1.2-7-0.9-10.1,0.7
	c-1.7,0.9-3.8,0.3-4.7-1.4c-0.9-1.7-0.3-3.8,1.4-4.7c4.8-2.6,10.6-3,15.8-1.2c5.2,1.9,9.4,5.9,11.4,11c0.7,1.8-0.2,3.8-2,4.5
	C462,305.8,461.6,305.9,461.1,305.9z"/>
<path fill="#EBBFA1" d="M324.8,349.1c-4,0-7.9-0.9-11.6-2.6c-1.6-0.8-2.3-2.8-1.6-4.4c0.8-1.6,2.8-2.3,4.4-1.6
	c5.7,2.7,12.4,2.6,18.2-0.3c1.6-0.8,3.6-0.1,4.4,1.5c0.8,1.6,0.1,3.6-1.5,4.4C333.2,348.1,329,349.1,324.8,349.1z"/>
<path fill="#2C3C47" d="M340.9,327.3c-0.1-0.4-0.2-0.8-0.3-1.2c-2.9-6.5-8.8-10.6-15.4-10.6c-6.6,0-12.5,4.1-15.4,10.6
	c-0.2,0.4-0.3,0.8-0.3,1.2c-0.9,1.9-0.5,4.3,1.2,5.7c0.9,0.8,2.1,1.2,3.2,1.2c1.3,0,2.7-0.6,3.7-1.6c1.9-2.2,4.8-3.5,7.7-3.5
	c0,0,0,0,0,0c3,0,5.8,1.3,7.7,3.5c1.8,2,4.9,2.2,6.9,0.4C341.4,331.5,341.8,329.2,340.9,327.3z"/>
<path fill="#E4AA82" d="M309.6,305.9c-0.4,0-0.9-0.1-1.3-0.2c-1.8-0.7-2.7-2.7-2-4.5c2-5.1,6.2-9.2,11.4-11c5.2-1.9,11-1.5,15.8,1.2
	c1.7,0.9,2.3,3,1.4,4.7c-0.9,1.7-3,2.3-4.7,1.4c-3.1-1.7-6.8-1.9-10.1-0.7c-3.3,1.2-6,3.8-7.3,7.1
	C312.3,305.1,311,305.9,309.6,305.9z"/>
<path fill="#E4AA82" d="M390.1,410.5h-13.6c-1.5,0-2.7-1.2-2.7-2.7c0-1.5,1.2-2.7,2.7-2.7c1.5,0,2.7-1.2,2.7-2.7
	c0-1.5-1.2-2.7-2.7-2.7c-4.5,0-8.1,3.6-8.1,8.1c0,1.6,0.5,3.1,1.3,4.3c-2.6,1.8-4.4,4.7-4.4,8.1c0,5.4,4.4,9.8,9.8,9.8h9.9
	c1.5,0,2.7-1.2,2.7-2.7s-1.2-2.7-2.7-2.7h-9.9c-2.4,0-4.4-2-4.4-4.4c0-2.4,2-4.4,4.4-4.4h1.4h13.6c1.5,0,2.7-1.2,2.7-2.7
	S391.6,410.5,390.1,410.5z"/>
<path fill="#FBB436" d="M243.9,262.4c0-63.8-55.1-112.1-118.8-112.1C61.4,150.3,13.2,198.5,13,262c0,0.2,0,0.5,0,0.7l2.2,32.3
	l0.4,72c-1,26.9-8.3,57.2-11.8,70.4c-0.9,3.5,1.7,6.8,5.3,6.8h18.1c4.2,0,9-16.6,9-16.6c2.4,4.6,3.5,9,4.1,12.1
	c0.5,2.6,2.7,4.6,5.4,4.6H65h12c-0.8-0.5-1.7-1.1-2.5-1.6c-0.3-0.2-0.5-0.4-0.8-0.6c-0.5-0.4-1.1-0.7-1.6-1.1
	c-0.3-0.2-0.6-0.5-0.9-0.7c-0.5-0.3-1-0.7-1.4-1.1c-0.3-0.3-0.7-0.5-1-0.8c-0.4-0.3-0.9-0.7-1.3-1c-0.3-0.3-0.7-0.6-1-0.8
	c-0.4-0.3-0.8-0.7-1.2-1c-0.3-0.3-0.7-0.6-1-0.9c-0.4-0.4-0.8-0.7-1.2-1.1c-0.3-0.3-0.7-0.6-1-0.9c-0.4-0.4-0.8-0.7-1.1-1.1
	c-0.3-0.3-0.7-0.6-1-1c-0.4-0.4-0.7-0.7-1.1-1.1c-0.3-0.3-0.6-0.7-1-1c-0.4-0.4-0.7-0.8-1.1-1.1c-0.3-0.3-0.6-0.7-0.9-1
	c-0.3-0.4-0.7-0.8-1-1.2c-0.3-0.4-0.6-0.7-0.9-1.1c-0.3-0.4-0.7-0.8-1-1.2c-0.3-0.4-0.6-0.7-0.9-1.1c-0.3-0.4-0.6-0.8-0.9-1.2
	c-0.3-0.4-0.6-0.7-0.9-1.1c-0.3-0.4-0.6-0.8-0.9-1.2c-0.3-0.4-0.6-0.8-0.8-1.1c-0.3-0.4-0.6-0.9-0.9-1.3c-0.3-0.4-0.5-0.8-0.8-1.2
	c-0.4-0.6-0.8-1.2-1.1-1.8c-0.4-0.6-0.8-1.3-1.2-1.9c-0.2-0.4-0.5-0.8-0.7-1.2c-0.3-0.5-0.5-0.9-0.8-1.4c-0.2-0.4-0.4-0.8-0.7-1.2
	c-0.2-0.5-0.5-0.9-0.7-1.4c-0.2-0.4-0.4-0.8-0.6-1.2c-0.2-0.5-0.5-1-0.7-1.4c-0.2-0.4-0.4-0.8-0.6-1.2c-0.2-0.5-0.4-1-0.7-1.5
	c-0.2-0.4-0.4-0.8-0.5-1.2c-0.2-0.5-0.4-1-0.6-1.5c-0.2-0.4-0.3-0.8-0.5-1.2c-0.2-0.5-0.4-1-0.6-1.5c-0.2-0.4-0.3-0.8-0.4-1.3
	c-0.2-0.5-0.4-1-0.5-1.6c-0.1-0.4-0.3-0.8-0.4-1.3c-0.2-0.5-0.3-1.1-0.5-1.6c-0.1-0.4-0.2-0.8-0.4-1.3c-0.2-0.5-0.3-1.1-0.4-1.6
	c-0.1-0.4-0.2-0.8-0.3-1.3c-0.1-0.6-0.3-1.1-0.4-1.7c-0.1-0.4-0.2-0.8-0.3-1.2c-0.1-0.6-0.2-1.2-0.4-1.7c-0.1-0.4-0.1-0.8-0.2-1.2
	c-0.1-0.6-0.2-1.2-0.3-1.8c-0.1-0.4-0.1-0.7-0.2-1.1c-0.1-0.7-0.2-1.3-0.3-2c0-0.2,0-0.3-0.1-0.5c-0.2-1.8-0.4-3.6-0.5-5.5
	c0,0,0,0,0,0c0-24.2,0-81.8,0-85.9c0-5.7,0.7-10.8,1.9-15.5c5,1.1,17.2,24,20.2,24h127.4c4.5,0,5-18.3,5-18.3
	c3.8,7.3,5.5,15.6,6.2,17.1c0.3,0.7,1,1.2,1.8,1.2h36.7l-1.8,26.5c1.1-0.2,2.3-0.2,3.4-0.2c0.5,0,0.9,0,1.4,0c0.2,0,0.3,0,0.5,0
	c0.3,0,0.6,0,0.9,0.1c0.2,0,0.4,0.1,0.6,0.1c0.3,0,0.5,0.1,0.8,0.1c0.2,0,0.4,0.1,0.6,0.1c0.2,0,0.5,0.1,0.7,0.2
	c0.2,0,0.4,0.1,0.6,0.2c0.2,0.1,0.5,0.1,0.7,0.2c0.2,0.1,0.4,0.1,0.6,0.2c0.2,0.1,0.4,0.2,0.7,0.2c0.2,0.1,0.4,0.1,0.6,0.2
	c0.2,0.1,0.5,0.2,0.7,0.3c0.2,0.1,0.3,0.1,0.5,0.2c0.4,0.2,0.8,0.4,1.2,0.6C244,287.8,243.9,262.4,243.9,262.4z"/>
<path fill="#FBB436" d="M238.9,364.2c-0.1,0-0.2,0-0.2,0.1c-0.6,0.2-1.3,0.3-1.9,0.4c-0.1,0-0.2,0-0.3,0.1c-0.6,0.1-1.3,0.2-2,0.3
	c-0.1,0-0.2,0-0.2,0c-0.7,0.1-1.4,0.1-2.1,0.1c-2.2,0-4.4-0.3-6.4-0.9c-0.9,33.8-19,63.3-45.9,80.1h46.7h1.4c2.5,0,4.8-1.7,5.3-4.2
	c0,0,0,0,0-0.1c0.2-0.4,0.3-0.8,0.5-1.3c4.1-16.7,6.5-45.8,8-75.6c-0.3,0.1-0.7,0.3-1,0.4C240.2,363.8,239.5,364,238.9,364.2z"/>
<path fill="#FDDFCE" d="M15.5,360.5l-0.2-38.4c-5.8,4.4-9.5,11.3-9.5,19.1C5.8,349.1,9.6,356.1,15.5,360.5z"/>
<path fill="#EF4B44" d="M377.3,64.2c-30.8-30.8-80.6-30.9-111.4-0.2c0,0-0.1,0.1-0.1,0.1c-4.5,4.5-11.5,4.5-16,0
	c0,0-0.1-0.1-0.1-0.1c-30.5-30.6-79.9-30.9-110.8-0.8c-26.8,26.1-31.3,69-10.6,100.2c6.2,9.4,14,16.8,22.6,22.3l96.3,77.9
	c6.5,5.2,15.8,5.2,22.2,0l95.6-78c6.5-4.3,12.6-9.7,17.8-16.2C407.8,138.5,405.3,92.3,377.3,64.2z"/>
</svg>
