<?xml version="1.0" encoding="utf-8"?>
<!-- Generator: Adobe Illustrator 18.0.0, SVG Export Plug-In . SVG Version: 6.00 Build 0)  -->
<!DOCTYPE svg PUBLIC "-//W3C//DTD SVG 1.1 Tiny//EN" "http://www.w3.org/Graphics/SVG/1.1/DTD/svg11-tiny.dtd">
<svg version="1.1" baseProfile="tiny" id="Layer_1" xmlns="http://www.w3.org/2000/svg" xmlns:xlink="http://www.w3.org/1999/xlink"
	 x="0px" y="0px" width="512px" height="512px" viewBox="0 0 512 512" xml:space="preserve">
<path fill="#FF473E" d="M505,249.4c-4.9-4.9-14.1-6.8-19.5-9.1c-22.8-9.7-30-21.5-50.2-35.9c-21.8-15.6-40.2-35.5-64.4-47.7
	c-23.6-11.9-50-14-75.1-5.6c-12.2,4.1-23.7,10.2-34.4,17.2c-3.3,2.2-7.6,2.5-11.1,0.7c-10.3-5.3-30-16.7-33.8-17.9
	c-59-19.7-96,22.3-139.5,53.3c-20.2,14.4-27.5,26.2-50.2,35.9c-5.8,2.5-15,4.1-19.6,9c-3.6,3.8-3.5,7.2-3.5,11.1
	c0,26.4,68.9,142.4,252.1,142.4S508,286.4,508,260.9C508,259.3,508.4,252.8,505,249.4z"/>
<path fill="#FF929D" stroke="#FF929D" stroke-width="22.6509" stroke-linecap="round" stroke-linejoin="round" stroke-miterlimit="10" d="
	M255.7,186.1"/>
<path fill="#D32A2A" d="M16.3,265.9c5.3,0.3,10.6,0.5,16,0l16-0.7c5.3-0.1,10.6-0.7,16-1.1l16.2-1.2c5.4-0.4,10.6-1.1,15.9-1.6
	c5.3-0.6,10.6-1,15.8-1.8c5.3-0.7,10.5-1.2,15.8-2.2c5.2-0.9,10.4-1.7,15.7-2.7l15.9-2.9c5.4-0.9,11.1-1.8,16.9-2.3l4.4-0.3l2.2-0.1
	l1.1-0.1l0.5,0l0.1,0l0.9,0l0.3,0l8.1,0.4c1.2,0,3.1,0.4,4.7,0.7c1.7,0.3,3.4,0.7,5.1,1.1c3.5,0.7,6,2,9,3c2.8,1.1,5.2,2.2,7.8,3.3
	l6.9,2.8l6.7,2c2.3,0.5,4.6,0.8,6.9,1.2c2.2,0.5,4.7,0.5,7.1,0.6l3.6,0.2l1.8,0.1l0.9,0l0.5,0l0.1,0l0.1,0c-1.3,0.2,3-0.4-2.9,0.4
	l0.2-0.1l1.3-0.3l1.6-0.1c3.8-0.2,11-0.2,15-0.9l6.4-1.1l6.7-2l6.9-2.7c2.6-1.1,5-2.2,7.8-3.3c5.6-2.2,11.9-4,18.3-4.7l9.4-0.5
	l0.6,0l0.9,0l1,0.1l2,0.1l4,0.3c5.2,0.4,11.9,1.4,17.1,2.3l16,2.8c5.3,1.1,10.5,1.8,15.7,2.7c5.2,1,10.5,1.4,15.8,2.2
	c5.3,0.8,10.6,1.2,15.9,1.8c10.6,1.3,21.3,2.1,32,2.8l8,0.7l2,0.2l0.5,0c-0.2,0,0.2,0,0.3,0l1,0l4.1,0.2l16.2,0.7
	c5.5,0.5,10.7,0.2,16,0c5.4,0,5.8,2.3,0.5,3.4c-5.4,1.3-10.9,2.4-16.2,2.9l-16.1,1.8l-4,0.4l-1,0.1l-1.2,0.1l-2,0.1l-8.1,0.5
	c-10.9,0.5-21.8,0.9-32.7,0.9c-5.5,0.1-10.9,0-16.4-0.3c-5.5-0.3-11-0.4-16.5-0.9c-10.9-0.8-22.1-2.1-32.5-3.5
	c-5.5-0.6-9.6-1.1-15.1-1.3l-4-0.1l-2,0l-1,0l-0.3,0l-0.1,0l-0.1,0c-0.4,0,0.5,0,0.4,0l-0.4,0l-6.8,0.7c-2.2,0.3-4.3,1.1-6.4,1.4
	c-2.1,0.5-4.3,1.6-6.5,2.3c-2.3,0.9-4.8,2.1-7.1,3.1l-8.1,3.4l-8.8,2.8c-3.1,0.7-6.3,1.2-9.5,1.8c-3.4,0.7-5.8,0.7-8.6,0.9l-4,0.3
	l-2,0.1l-1,0.1l-1.2,0l-0.5-0.1l3-0.4l-0.2,0.1c-5.9,0.8-1.7,0.2-3,0.4l-0.1,0l-0.1,0l-0.6,0l-1.1-0.1l-2.2-0.1l-4.4-0.3
	c-3-0.2-5.9-0.3-8.9-1c-3-0.6-6-1-9-1.8l-8.8-2.8l-8.1-3.4c-2.4-1-4.9-2.2-7.1-3.1c-2.1-0.7-4.5-1.9-6.3-2.2
	c-0.9-0.2-1.9-0.4-2.8-0.7c-1-0.3-1.7-0.6-3.2-0.7l-8.1-0.8l-6.7,0.1c-5,0.1-10,0.7-15.3,1.3c-10.4,1.4-21.5,2.7-32.4,3.5
	c-5.5,0.5-11,0.6-16.4,0.9c-5.5,0.3-11,0.4-16.5,0.3c-11,0.1-21.8-0.3-32.6-0.9c-5.3-0.3-10.9-0.5-16.3-1.2l-16.3-1.8
	c-5.4-0.5-10.8-1.6-16.2-2.9C10.5,268.1,10.8,265.8,16.3,265.9z"/>
</svg>
