<?xml version="1.0" encoding="utf-8"?>
<!-- Generator: Adobe Illustrator 18.0.0, SVG Export Plug-In . SVG Version: 6.00 Build 0)  -->
<!DOCTYPE svg PUBLIC "-//W3C//DTD SVG 1.1 Tiny//EN" "http://www.w3.org/Graphics/SVG/1.1/DTD/svg11-tiny.dtd">
<svg version="1.1" baseProfile="tiny" id="Layer_1" xmlns="http://www.w3.org/2000/svg" xmlns:xlink="http://www.w3.org/1999/xlink"
	 x="0px" y="0px" width="511.9px" height="511.9px" viewBox="0 0 511.9 511.9" xml:space="preserve">
<path fill="#FFB636" d="M258.8,49.9l-22.6,16.7c-1.3,1-3.1,1-4.5,0.1l-21.8-14.5c-2.6-1.7-6.1,0.1-6.1,3.3v59.3
	c0,37.1,46.7,59,55.8,62.9c1,0.4,2,0.4,3,0c9-3.9,55.8-25.8,55.8-62.9v-59c0-3.2-3.6-5-6.2-3.2l-20.2,14.2c-1.3,0.9-3.1,0.9-4.5,0
	l-24.1-16.9C262,48.8,260.1,48.9,258.8,49.9z"/>
</svg>
