<?xml version="1.0" encoding="utf-8"?>
<!-- Generator: Adobe Illustrator 18.1.0, SVG Export Plug-In . SVG Version: 6.00 Build 0)  -->
<!DOCTYPE svg PUBLIC "-//W3C//DTD SVG 1.0//EN" "http://www.w3.org/TR/2001/REC-SVG-20010904/DTD/svg10.dtd">
<svg version="1.0" id="Layer_1" xmlns="http://www.w3.org/2000/svg" xmlns:xlink="http://www.w3.org/1999/xlink" x="0px" y="0px"
	 width="72px" height="72px" viewBox="0 0 72 72" enable-background="new 0 0 72 72" xml:space="preserve">
<path fill="#597B91" d="M52.9,21.7v1.2c0,0.1,0,0.1,0,0.2c0,0.7-1.2,1.3-2.6,1.3s-2.6-0.6-2.6-1.3v-1.4c-4.8,0.7-8.5,4.5-8.7,6.4
	c0,0,0,0.1,0,0.1c-0.1,0.6,0.5,1.5,1.6,2.1c0.4,0.2,0.8,0.4,1.2,0.5l-1.2,13.8c0,1.8,4.3,3.3,9.7,3.3s9.7-1.5,9.7-3.3l-1.2-13.1
	c0.3-0.1,0.7-0.2,1.1-0.3c1.1-0.5,1.9-1.4,1.8-2c0,0,0-0.1,0-0.1C61.7,27,58,22.6,52.9,21.7z"/>
</svg>
