<?xml version="1.0" encoding="utf-8"?>
<!-- Generator: Adobe Illustrator 18.1.0, SVG Export Plug-In . SVG Version: 6.00 Build 0)  -->
<!DOCTYPE svg PUBLIC "-//W3C//DTD SVG 1.0//EN" "http://www.w3.org/TR/2001/REC-SVG-20010904/DTD/svg10.dtd">
<svg version="1.0" id="Layer_1" xmlns="http://www.w3.org/2000/svg" xmlns:xlink="http://www.w3.org/1999/xlink" x="0px" y="0px"
	 width="72px" height="72px" viewBox="0 0 72 72" enable-background="new 0 0 72 72" xml:space="preserve">
<path fill="#959DA3" d="M19.2,37.4v1l0,0v0c0,0.4-0.3,0.7-0.7,0.7c-0.4,0-0.7-0.3-0.7-0.7v0h0v-1h0c0-0.3,0.3-0.6,0.7-0.6
	C18.9,36.7,19.1,37,19.2,37.4L19.2,37.4z M52.4,37.4c0-0.3-0.3-0.6-0.7-0.6c-0.4,0-0.6,0.3-0.7,0.6h0v1h0v0c0,0.4,0.3,0.7,0.7,0.7
	c0.4,0,0.7-0.3,0.7-0.7v0l0,0L52.4,37.4L52.4,37.4z"/>
</svg>
