<?xml version="1.0" encoding="utf-8"?>
<!-- Generator: Adobe Illustrator 18.1.0, SVG Export Plug-In . SVG Version: 6.00 Build 0)  -->
<!DOCTYPE svg PUBLIC "-//W3C//DTD SVG 1.1//EN" "http://www.w3.org/Graphics/SVG/1.1/DTD/svg11.dtd">
<svg version="1.1" id="Layer_1" xmlns="http://www.w3.org/2000/svg" xmlns:xlink="http://www.w3.org/1999/xlink" x="0px" y="0px"
	 width="72px" height="72px" viewBox="0 0 72 72" enable-background="new 0 0 72 72" xml:space="preserve">
<path fill="#2B3B47" d="M63.4,58.9c0-2.6-0.4-3.3-3.2-3.5c-0.5,0-0.8-0.4-0.8-0.9l0-1.3c0-0.3,0.2-0.7,0.5-0.8
	c3.5-2.4,5.8-6.4,5.8-10.9l0.1-0.6c0.1-0.4,0.4-0.7,0.8-0.8c1.2-0.3,2.1-1.1,2.4-2.3c0.3-1.7-0.8-3.2-2.4-3.5
	c-0.3-0.1-0.4-0.3-0.4-0.6l0.4-5.2C66.7,8.3,37.6,8,37.4,28.1l0.5,5.7c0,0.2-0.1,0.4-0.3,0.5c-1.3,0.5-2.2,2-1.8,3.5
	c0.3,1.1,1.3,1.8,2.5,2.1c0.5,0.1,0.8,0.5,0.8,1l0,0.5c0,4.6,2.4,8.7,6,11.1c0.2,0.1,0.2,0.3,0.2,0.4l0,1.6c0,0.4-0.3,0.8-0.8,0.8
	c-3,0.2-3.3,0.9-3.4,3.4C41,58.9,41,59,40.9,59.1c-4.9,2.1-8.5,5-8.4,12.1c0,0.4,0.4,0.8,0.8,0.8c5,0,32.9,0,37.9,0
	c0.4,0,0.8-0.3,0.8-0.8c0.1-7.1-3.3-9.8-8.3-11.9C63.6,59.1,63.5,59,63.4,58.9z"/>
</svg>
