<?xml version="1.0" encoding="utf-8"?>
<!-- Generator: Adobe Illustrator 18.0.0, SVG Export Plug-In . SVG Version: 6.00 Build 0)  -->
<!DOCTYPE svg PUBLIC "-//W3C//DTD SVG 1.1 Tiny//EN" "http://www.w3.org/Graphics/SVG/1.1/DTD/svg11-tiny.dtd">
<svg version="1.1" baseProfile="tiny" id="Layer_1" xmlns="http://www.w3.org/2000/svg" xmlns:xlink="http://www.w3.org/1999/xlink"
	 x="0px" y="0px" width="512.4px" height="511.9px" viewBox="0 0 512.4 511.9" xml:space="preserve">
<path fill="#2B3B47" d="M480.3,100.6H336.2V75.6c0-17.7-14.3-32-32-32h-96.1c-17.7,0-32,14.3-32,32v24.9H32c-17.7,0-32,14.3-32,32
	v118.7c0,17.7,14.3,32,32,32h448.3c17.7,0,32-14.3,32-32V132.6C512.4,114.9,498,100.6,480.3,100.6z M208.1,91.7c0-8.8,7.2-16,16-16
	h64c8.9,0,16,7.2,16,16v8.9h-96.1V91.7z"/>
</svg>
