<?xml version="1.0" encoding="utf-8"?>
<!-- Generator: Adobe Illustrator 18.0.0, SVG Export Plug-In . SVG Version: 6.00 Build 0)  -->
<!DOCTYPE svg PUBLIC "-//W3C//DTD SVG 1.1 Tiny//EN" "http://www.w3.org/Graphics/SVG/1.1/DTD/svg11-tiny.dtd">
<svg version="1.1" baseProfile="tiny" id="Layer_1" xmlns="http://www.w3.org/2000/svg" xmlns:xlink="http://www.w3.org/1999/xlink"
	 x="0px" y="0px" width="511.9px" height="511.9px" viewBox="0 0 511.9 511.9" xml:space="preserve">
<path fill="#FF473E" d="M321.4,272.3c-36.2-42.1-99.7-43.6-137.8-4.9c0,0-0.1,0.1-0.1,0.1c-5.3,5.4-13.6,5.4-19,0.1
	c0,0-0.1-0.1-0.1-0.1c-36.8-36.3-96-35.9-132.3,0.8C1.3,299.6-3.4,349.6,20.9,386.2c7.6,11.5,17.1,20.3,27.5,27l121,96.2
	c4.3,3.4,10.5,3.4,14.7-0.2l118.6-98.4c10-6.7,18.9-15.5,26.2-26.6C351.3,349.7,348.3,303.5,321.4,272.3z"/>
<path fill="#FFD4DE" d="M469.8,192.1c0,0,0.1,0.3,0.4,0.9c0.2,0.6,0.6,1.4,1.1,2.5c0.5,1.1,1,2.5,1.6,4.1c0.5,1.7,1,3.7,1.5,6.1
	c0.6,2.4,0.8,4.9,1.1,7.7c0.1,0.7,0.1,1.4,0.2,2.2c0.1,0.7,0,1.5,0.1,2.2c0,1.5,0,3.1,0,4.8c0,0.8,0,1.7-0.1,2.5
	c-0.1,0.8-0.2,1.7-0.3,2.6c-0.2,1.8-0.4,3.6-0.6,5.4c-0.3,1.8-0.7,3.7-1.1,5.6c-0.2,1-0.4,1.9-0.6,2.9c-0.3,1-0.5,1.9-0.8,2.9
	c-2.2,8-5.8,16.2-10.5,24.4c-1.2,2-2.4,4-3.7,6.1c-1.3,2-2.8,3.9-4.2,5.9c-1.4,2-3,3.9-4.6,5.8c-0.8,1-1.6,1.9-2.4,2.9
	c-0.8,1-1.7,1.8-2.5,2.8c-6.8,7.5-14.6,14.2-23,20.4c-8.4,6.2-17.4,11.4-26.7,16c-2.3,1.1-4.7,2.2-7,3.3c-2.4,1-4.7,2-7.1,2.9
	c-1.2,0.5-2.4,1-3.6,1.4c-1.2,0.4-2.4,0.8-3.6,1.3c-2.4,0.8-4.8,1.7-7.2,2.4c-2.4,0.7-4.8,1.4-7.2,2.1c-2.4,0.7-4.8,1.2-7.2,1.8
	c-2.4,0.5-4.7,1.1-7.1,1.5c-2.4,0.4-4.7,0.8-7,1.2c-1.2,0.2-2.3,0.4-3.5,0.6c-1.2,0.1-2.3,0.3-3.5,0.4c-2.3,0.3-4.6,0.5-6.8,0.7
	c-2.2,0.3-4.5,0.3-6.7,0.5c-2.2,0.1-4.4,0.2-6.5,0.3c-2.2,0-4.3,0-6.4,0c-2.1,0-4.1,0-6.2-0.1c-2-0.1-4-0.3-5.9-0.4
	c-1.9-0.1-3.8-0.2-5.7-0.5c-3.7-0.5-7.3-0.9-10.6-1.5c-1.7-0.3-3.3-0.6-4.9-0.9c-1.6-0.3-3.1-0.6-4.6-1c-3-0.7-5.7-1.3-8.3-2.1
	c-2.5-0.7-4.9-1.4-7-2.1c-2.1-0.7-3.9-1.4-5.5-2c-1.6-0.6-3-1.2-4.1-1.7c-1.1-0.5-1.9-0.9-2.5-1.1c-0.6-0.3-0.9-0.4-0.9-0.4
	l-0.6-0.3c-0.8-0.4-1.1-1.3-0.7-2.1c0.3-0.5,0.8-0.9,1.3-0.9c0,0,1.2,0,3.3-0.1c2.2-0.1,5.3-0.2,9.4-0.4c2-0.1,4.2-0.3,6.7-0.5
	c1.2-0.1,2.5-0.2,3.8-0.3c1.3-0.1,2.7-0.3,4.1-0.4c2.8-0.3,5.8-0.5,8.9-0.9c3.1-0.4,6.4-0.8,9.8-1.2c3.4-0.5,7-1.1,10.6-1.6
	c3.7-0.7,7.4-1.4,11.3-2.1c3.8-0.9,7.8-1.7,11.8-2.7c2-0.5,4-1,6.1-1.5c1-0.3,2.1-0.5,3.1-0.8c1-0.3,2.1-0.6,3.1-0.9
	c2.1-0.6,4.2-1.2,6.3-1.8c2.1-0.6,4.2-1.3,6.3-2c4.2-1.3,8.4-2.9,12.7-4.4c2.1-0.8,4.2-1.7,6.3-2.5c2.1-0.8,4.2-1.7,6.3-2.6
	c2.1-0.9,4.2-1.8,6.3-2.8l6.2-3c8.2-4,16.2-8.4,23.7-13.4c7.5-4.9,14.7-10.1,21-15.8c0.8-0.7,1.6-1.4,2.4-2.1
	c0.8-0.7,1.5-1.5,2.3-2.2c1.5-1.5,3.1-2.8,4.4-4.3c1.4-1.5,2.8-2.9,4.2-4.4c1.3-1.5,2.6-3,3.8-4.5c1.3-1.5,2.4-3,3.5-4.5
	c1.1-1.5,2.3-3,3.3-4.5c1-1.5,2-3,3-4.5c0.9-1.5,1.7-3,2.6-4.5c0.4-0.7,0.8-1.5,1.2-2.2c0.4-0.7,0.7-1.5,1.1-2.2
	c0.7-1.5,1.4-2.9,2-4.3c0.6-1.4,1.1-2.8,1.7-4.2c0.3-0.7,0.5-1.4,0.8-2c0.3-0.7,0.4-1.3,0.7-2c0.8-2.6,1.7-5.1,2.1-7.4
	c0.5-2.3,1.1-4.5,1.3-6.4c0.3-1.9,0.5-3.7,0.8-5.2c0.1-1.6,0.2-2.9,0.3-4c0.1-2.2,0.2-3.3,0.2-3.3c0.1-0.8,0.8-1.5,1.6-1.4
	c0.6,0,1.1,0.4,1.3,0.9L469.8,192.1z"/>
<path fill="#FF7DDA" d="M488.8,26c-28.7-33.4-79-34.5-109.3-3.9c0,0-0.1,0.1-0.1,0.1c-4.2,4.3-10.8,4.3-15.1,0.1
	c0,0-0.1-0.1-0.1-0.1c-29.2-28.8-76.1-28.4-104.9,0.7c-24.5,24.8-28.2,64.4-8.9,93.4c6,9.1,13.5,16.1,21.8,21.4l95.9,76.3
	c3.4,2.7,8.3,2.7,11.7-0.1l94-78.1c7.9-5.3,15-12.3,20.8-21.1C512.4,87.4,510,50.7,488.8,26z"/>
<path fill="#FFD4DE" d="M259.3,22.9c1.2-1.2,2.4-2.3,3.6-3.4c-0.9,0-1.9,0-2.9,0c-1.5,0-3.1,0.1-4.7,0.1c-1.6,0.1-3.3,0.1-5,0.2
	c-3.4,0.2-7.1,0.5-10.8,0.8c-3.8,0.4-7.7,0.9-11.8,1.4c-4.1,0.6-8.2,1.4-12.5,2.1c-2.1,0.4-4.3,0.9-6.5,1.4
	c-2.2,0.5-4.4,0.9-6.6,1.5c-2.2,0.6-4.5,1.1-6.7,1.8c-1.1,0.3-2.3,0.6-3.4,0.9c-1.1,0.4-2.3,0.7-3.4,1.1c-2.3,0.7-4.6,1.4-6.9,2.2
	c-2.3,0.8-4.6,1.7-6.9,2.5c-2.3,0.9-4.7,1.7-7,2.6c-2.3,0.9-4.6,2-7,2.9c-9.3,4.1-18.5,8.7-27.4,14.1c-8.9,5.4-17.5,11.2-25.4,17.9
	c-1,0.8-2,1.6-3,2.4c-1,0.9-1.9,1.7-2.9,2.6c-0.9,0.9-1.9,1.7-2.8,2.6c-0.9,0.9-1.9,1.7-2.8,2.6c-1.8,1.8-3.6,3.6-5.4,5.4
	c-1.8,1.8-3.4,3.7-5,5.6c-0.8,0.9-1.6,1.8-2.4,2.8c-0.8,1-1.5,1.9-2.3,2.9c-1.5,1.9-3,3.8-4.4,5.8c-1.4,2-2.7,3.9-4,5.9
	c-1.2,2-2.5,4-3.6,6c-4.5,8-8.1,15.9-10.3,23.6c-0.3,0.9-0.6,1.9-0.9,2.8c-0.2,1-0.5,1.9-0.7,2.8c-0.4,1.9-0.9,3.6-1.3,5.4
	c-0.3,1.8-0.5,3.5-0.8,5.2c-0.1,0.8-0.2,1.7-0.4,2.5c-0.1,0.8-0.1,1.6-0.2,2.4c-0.1,1.6-0.2,3.1-0.2,4.6c0,0.7-0.1,1.4-0.1,2.2
	c0,0.7,0.1,1.4,0.1,2.1c0.1,1.4,0.1,2.7,0.2,3.9c0,0.6,0,1.2,0.1,1.8c0.1,0.6,0.1,1.2,0.2,1.8c0.3,2.3,0.6,4.2,0.9,5.9
	c0.4,1.6,0.8,2.9,1.1,4c0.3,1.1,0.5,1.9,0.7,2.5c0.2,0.6,0.3,0.9,0.3,0.9l0.1,0.5c0.2,0.6,0.7,1.1,1.4,1.1c0.9,0,1.6-0.6,1.7-1.5
	c0,0,0.1-1.2,0.2-3.3c0.1-1.1,0.1-2.4,0.2-4c0.2-1.5,0.5-3.3,0.7-5.2c0.2-1.9,0.8-4.1,1.3-6.4c0.4-2.4,1.3-4.8,2.1-7.4
	c0.2-0.7,0.4-1.3,0.6-2c0.3-0.7,0.5-1.3,0.8-2c0.5-1.4,1.1-2.8,1.7-4.2c0.7-1.4,1.3-2.8,2-4.3c0.3-0.7,0.7-1.5,1.1-2.2
	c0.4-0.7,0.8-1.5,1.2-2.2c0.8-1.5,1.7-3,2.6-4.5c1-1.5,2-3,3-4.5c1-1.6,2.1-3,3.3-4.5c1.1-1.5,2.2-3.1,3.5-4.5
	c1.3-1.5,2.5-3,3.8-4.5c1.4-1.5,2.8-2.9,4.2-4.4c1.4-1.5,2.9-2.9,4.5-4.3c0.8-0.7,1.5-1.4,2.3-2.2c0.8-0.7,1.6-1.4,2.4-2.1
	c6.4-5.7,13.6-10.8,21.1-15.7c7.5-4.9,15.6-9.3,23.8-13.2l6.2-3c2.1-0.9,4.2-1.8,6.3-2.7c2.1-0.9,4.2-1.7,6.3-2.6
	c2.1-0.8,4.2-1.7,6.3-2.4c4.3-1.5,8.4-3,12.7-4.3c2.1-0.7,4.2-1.3,6.3-1.9c2.1-0.6,4.2-1.2,6.3-1.7c1-0.3,2.1-0.6,3.1-0.9
	c1-0.2,2.1-0.5,3.1-0.7c2.1-0.5,4.1-1,6.1-1.5c4-0.9,8-1.7,11.9-2.5c3.9-0.7,7.7-1.3,11.3-1.9c2.4-0.3,4.8-0.7,7.1-1
	C243.5,44.3,249.8,32.5,259.3,22.9z"/>
</svg>
