<?xml version="1.0" encoding="iso-8859-1"?>
<!-- Generator: Adobe Illustrator 19.1.0, SVG Export Plug-In . SVG Version: 6.00 Build 0)  -->
<!DOCTYPE svg PUBLIC "-//W3C//DTD SVG 1.1//EN" "http://www.w3.org/Graphics/SVG/1.1/DTD/svg11.dtd">
<svg version="1.1" xmlns="http://www.w3.org/2000/svg" xmlns:xlink="http://www.w3.org/1999/xlink" x="0px" y="0px"
	 viewBox="0 0 512 512" enable-background="new 0 0 512 512" xml:space="preserve">
<g id="Layer_2">
	<path fill="#FF473E" d="M448.691,233.303H63.313c-6.717,0-12.162,5.445-12.162,12.162v46.368c0,6.717,5.445,12.162,12.162,12.162
		h385.378c6.717,0,12.162-5.445,12.162-12.162v-46.368C460.853,238.748,455.408,233.303,448.691,233.303z"/>
</g>
<g id="Layer_3">
	<path fill="#FFA9BA" d="M291.024,303.995V186.389h-17.539l-56.329-37.669c-0.78-0.388-1.696-0.388-2.475,0.001l-69.302,34.564
		c-1.484,0.74-2.468,1.852-3.01,3.105h-8.719v117.606H63.752v169.55h384.499v-169.55H291.024z"/>
</g>
<g id="Layer_4">
	<path fill="#899296" d="M194.853,118.579l8.375-101.898c0.414-5.04,4.835-8.789,9.875-8.375c4.531,0.372,8.019,3.987,8.375,8.375
		l8.375,101.898c0.794,9.665-6.397,18.144-16.062,18.938c-9.665,0.794-18.144-6.397-18.938-16.062
		C194.776,120.517,194.785,119.49,194.853,118.579z"/>
</g>
<g id="Layer_5">
	<path fill="#899296" d="M465.9,508.382H46.1c-6.921,0-11.203-7.542-7.657-13.485l19.529-32.731
		c1.609-2.696,4.517-4.348,7.657-4.348H446.37c3.14,0,6.048,1.651,7.657,4.348l19.529,32.731
		C477.103,500.84,472.82,508.382,465.9,508.382z"/>
</g>
<g id="Layer_6">
	
		<rect x="143.217" y="457.666" transform="matrix(1 -0.0013 0.0013 1 -0.6308 0.283)" fill="#C8CACB" width="138.274" height="33.076"/>
</g>
<g id="Layer_7">
	<path fill="#EBECED" d="M299.582,508.382H125.093v-17.358c0-3.976,3.224-7.2,7.2-7.2h160.089c3.976,0,7.2,3.224,7.2,7.2V508.382z"
		/>
</g>
<g id="Layer_8">
	<path fill="#FF6E83" d="M456.072,86.882c-2.907,4.248-6.455,7.627-10.368,10.223l-48.259,39.365
		c-1.732,1.412-4.216,1.417-5.953,0.011l-48.561-39.308c-4.047-2.633-7.72-6.075-10.693-10.487
		c-9.859-14.63-8.309-34.45,3.828-47.253c14.721-15.529,39.244-15.757,54.253-0.705c0.018,0.018,0.037,0.037,0.055,0.055
		c2.145,2.162,5.521,2.166,7.674,0.011c0.015-0.015,0.029-0.029,0.044-0.044c15.543-15.498,41.184-14.677,55.671,2.45
		C464.659,54.081,465.6,72.956,456.072,86.882z M116.677,90.479c-8.431-9.967-23.354-10.445-32.399-1.426
		c-0.008,0.008-0.017,0.017-0.025,0.025c-1.253,1.254-3.217,1.252-4.466-0.007c-0.011-0.011-0.021-0.021-0.032-0.032
		c-8.735-8.76-23.007-8.627-31.574,0.41c-7.063,7.451-7.966,18.986-2.228,27.5c1.73,2.568,3.868,4.571,6.223,6.103l28.261,22.876
		c1.011,0.818,2.457,0.816,3.465-0.007l28.085-22.909c2.278-1.511,4.342-3.477,6.034-5.949
		C123.566,108.961,123.019,97.976,116.677,90.479z"/>
</g>
<g id="Layer_9">
	<path fill="#C8CACB" d="M229.14,145.477h-33.604c-5.576,0-10.095-4.52-10.095-10.095v-28.198c0-5.576,4.52-10.095,10.095-10.095
		h33.604c5.576,0,10.095,4.52,10.095,10.095v28.198C239.235,140.957,234.715,145.477,229.14,145.477z"/>
</g>
<g id="Layer_10">
	<path fill="#FF473E" d="M298.409,178.35l-77.91-57.075c-4.91-3.597-11.585-3.594-16.491,0.008l-77.754,57.075
		c-10.861,7.972-5.222,25.184,8.251,25.184h3.727c2.897,0,5.722-0.902,8.083-2.582l58.032-41.287
		c4.81-3.422,11.254-3.444,16.087-0.056l59.05,41.398c2.345,1.644,5.14,2.526,8.004,2.526h2.68
		C303.649,203.541,309.283,186.316,298.409,178.35z"/>
</g>
<g id="Layer_11">
	<path fill="#442A2A" d="M333.024,457.574h-42v-75.26c0-12.895,9.402-23.349,21-23.349h0c11.598,0,21,10.454,21,23.349V457.574z
		 M415.202,382.315c0-12.895-9.402-23.349-21-23.349h0c-11.598,0-21,10.454-21,23.349v75.26h42V382.315z M133.529,382.315
		c0-12.895-9.402-23.349-21-23.349h0c-11.598,0-21,10.454-21,23.349v75.26h42V382.315z M251.181,332.787
		c0-23.853-17.391-43.189-38.843-43.189h0c-21.453,0-38.843,19.336-38.843,43.189v124.787h77.687V332.787z"/>
</g>
</svg>
