<?xml version="1.0" encoding="iso-8859-1"?>
<!-- Generator: Adobe Illustrator 19.1.0, SVG Export Plug-In . SVG Version: 6.00 Build 0)  -->
<!DOCTYPE svg PUBLIC "-//W3C//DTD SVG 1.1//EN" "http://www.w3.org/Graphics/SVG/1.1/DTD/svg11.dtd">
<svg version="1.1" xmlns="http://www.w3.org/2000/svg" xmlns:xlink="http://www.w3.org/1999/xlink" x="0px" y="0px"
	 viewBox="0 0 512 512" enable-background="new 0 0 512 512" xml:space="preserve">
<g id="Layer_5">
	<path fill="#2C3C47" d="M342.169,359.562c-8.742,18.152-20.584,34.525-34.849,48.434H202.191
		c-14.264-13.909-26.107-30.282-34.85-48.434H342.169z M150.438,285.302c0,6.818,0.421,13.535,1.195,20.145h206.24
		c0.774-6.61,1.195-13.327,1.195-20.145c0-9.637-0.797-19.087-2.325-28.289h-203.98
		C151.235,266.216,150.438,275.666,150.438,285.302z M171.206,203.498h167.1c-9.405-17.281-21.686-32.768-36.218-45.805
		c4.082-7.807,6.402-17.01,6.402-27.291c0-15.702-12.073-29.991-24.771-40.684c0.112-0.185,0.22-0.37,0.336-0.556
		c0.969-1.529,1.988-3.092,3.119-4.641c1.104-1.564,2.308-3.113,3.531-4.648c4.924-6.127,10.541-11.815,14.899-15.855
		c2.18-2.023,4.033-3.644,5.329-4.733c1.301-1.104,2.002-1.642,2.002-1.642c0.629-0.495,1.273-1.096,1.81-1.733
		c4.239-5.016,3.615-12.515-1.401-16.753c-5.009-4.246-12.514-3.616-16.753,1.401l-0.34,0.403c0,0-0.791,0.927-2.009,2.49
		c-1.232,1.564-2.921,3.799-4.854,6.523c-3.869,5.448-8.709,12.904-12.79,20.906c-1.012,2.01-1.995,4.033-2.895,6.077
		c-0.617,1.375-1.176,2.756-1.711,4.13c-11.37-6.362-25.462-5.958-36.484,1.215c-0.672-1.768-1.387-3.565-2.188-5.347
		c-0.891-2.044-1.874-4.061-2.886-6.07c-4.088-8.002-8.921-15.465-12.792-20.913c-1.938-2.724-3.622-4.953-4.852-6.523
		c-1.225-1.557-2.011-2.491-2.011-2.491l-0.382-0.453c-0.523-0.609-1.111-1.175-1.769-1.684c-5.199-4.012-12.664-3.049-16.682,2.143
		c-4.012,5.2-3.05,12.664,2.144,16.676c0,0,0.706,0.545,2.009,1.641c1.289,1.09,3.149,2.71,5.327,4.734
		c4.36,4.039,9.97,9.728,14.901,15.861c1.216,1.529,2.418,3.085,3.529,4.641c1.126,1.557,2.152,3.12,3.114,4.648
		c0.415,0.66,0.798,1.313,1.182,1.957c-12.077,10.525-23.128,24.255-23.128,39.279c0,10.282,2.32,19.486,6.402,27.293
		C192.894,170.731,180.612,186.218,171.206,203.498z"/>
</g>
<g id="Layer_1">
</g>
</svg>
