<?xml version="1.0" encoding="iso-8859-1"?>
<!-- Generator: Adobe Illustrator 18.1.0, SVG Export Plug-In . SVG Version: 6.00 Build 0)  -->
<!DOCTYPE svg PUBLIC "-//W3C//DTD SVG 1.1//EN" "http://www.w3.org/Graphics/SVG/1.1/DTD/svg11.dtd">
<svg version="1.1" id="Layer_2" xmlns="http://www.w3.org/2000/svg" xmlns:xlink="http://www.w3.org/1999/xlink" x="0px" y="0px"
	 viewBox="0 0 512 512" enable-background="new 0 0 512 512" xml:space="preserve">
<path fill="#464A4C" d="M246.264,230.852c1.584,23.479-11.879,46.075-33.251,55.924c-3.071,1.415-6.236,2.563-9.476,3.431
	c-0.005,0.001-0.005,0.001-0.005,0.001c-5.948,1.594-11.988,2.221-17.937,1.919c-9.997-0.508-19.773,2.113-28.176,7.553
	c-5.001,3.238-10.546,5.716-16.491,7.309c-3.212,0.861-6.497,1.446-9.833,1.758c-23.487,2.196-46.534-10.69-56.892-31.884
	c-4.751-9.721-6.778-20.348-5.745-31.164c1.04-10.892,5.237-21.195,11.777-29.714c4.942-6.437,8.132-13.927,9.447-21.935
	c3.568-21.725,19.457-40.468,42.067-46.526c22.609-6.058,45.739,2.228,59.692,19.256c5.144,6.278,11.653,11.171,19.153,14.274
	c9.926,4.107,18.713,10.933,25.061,19.85C241.974,209.778,245.533,220.025,246.264,230.852z M65.024,60.972
	c-11.923,5.836-13.892,26.29-4.399,45.686s26.855,30.388,38.778,24.552c11.923-5.836,13.892-26.29,4.399-45.686
	S76.947,55.136,65.024,60.972z M18.611,137.5c-10.006,8.723-6.615,28.99,7.576,45.267s33.805,22.402,43.811,13.679
	s6.615-28.99-7.576-45.267S28.617,128.777,18.611,137.5z M124.955,79.856c1.476,21.544,13.409,38.273,26.652,37.366
	c13.244-0.907,22.783-19.108,21.307-40.652s-13.409-38.273-26.652-37.366C133.019,40.112,123.479,58.312,124.955,79.856z
	 M193.619,116.025c-4.15,21.192,3.046,40.439,16.073,42.991c13.027,2.551,26.952-12.56,31.102-33.752s-3.046-40.439-16.073-42.991
	C211.694,79.722,197.769,94.833,193.619,116.025z M443.541,409.55c-1.039-10.896-5.236-21.201-11.779-29.721
	c-4.943-6.438-8.134-13.929-9.45-21.938c-3.569-21.723-19.458-40.464-42.067-46.522c-22.61-6.058-45.742,2.229-59.694,19.259
	c-5.143,6.277-11.651,11.169-19.149,14.272c-9.923,4.108-18.71,10.932-25.056,19.844c-6.302,8.85-9.861,19.067-10.607,29.861
	c-1.627,23.534,11.889,46.216,33.328,56.058c3.045,1.398,6.183,2.534,9.394,3.394c5.945,1.593,11.986,2.219,17.936,1.916
	c9.997-0.51,19.774,2.109,28.178,7.548c5.001,3.236,10.546,5.713,16.494,7.307c0,0,0,0,0.005,0.001
	c3.24,0.868,6.555,1.456,9.922,1.766c23.433,2.157,46.391-10.68,56.758-31.806C442.535,431.048,444.576,420.395,443.541,409.55z
	 M365.736,203.05c-13.244-0.907-25.176,15.822-26.652,37.366c-1.476,21.544,8.063,39.744,21.307,40.652
	c13.244,0.907,25.176-15.822,26.652-37.366C388.519,222.157,378.979,203.957,365.736,203.05z M287.277,246.118
	c-13.027,2.551-20.223,21.799-16.073,42.991c4.15,21.192,18.075,36.303,31.102,33.752c13.027-2.551,20.223-21.799,16.073-42.991
	C314.229,258.678,300.304,243.567,287.277,246.118z M408.196,249.369c-9.494,19.396-7.524,39.85,4.399,45.686
	s29.285-5.156,38.778-24.552c9.494-19.396,7.524-39.85-4.399-45.686C435.051,218.981,417.69,229.974,408.196,249.369z
	 M449.576,315.024c-14.19,16.277-17.582,36.544-7.576,45.267c10.006,8.723,29.621,2.599,43.811-13.679
	c14.19-16.277,17.582-36.544,7.576-45.267C483.381,292.622,463.766,298.746,449.576,315.024z"/>
</svg>
