<?xml version="1.0" encoding="utf-8"?>
<!-- Generator: Adobe Illustrator 18.1.0, SVG Export Plug-In . SVG Version: 6.00 Build 0)  -->
<!DOCTYPE svg PUBLIC "-//W3C//DTD SVG 1.0//EN" "http://www.w3.org/TR/2001/REC-SVG-20010904/DTD/svg10.dtd">
<svg version="1.0" id="Layer_1" xmlns="http://www.w3.org/2000/svg" xmlns:xlink="http://www.w3.org/1999/xlink" x="0px" y="0px"
	 width="72px" height="72px" viewBox="0 0 72 72" enable-background="new 0 0 72 72" xml:space="preserve">
<path fill="#FF7DDA" d="M62.9,34.4c-0.5-0.5-0.5-1.2,0-1.7l4-4c1.1-1.1,2.8-1,3.8,0.2c0.9,1,0.7,2.6-0.3,3.6l-3.7,3.7
	c-0.6,0.6-1.5,0.6-2.1,0L62.9,34.4z M61.2,23.7c0.6,0.6,1.5,0.6,2.1,0l3.7-3.7c1-1,1.1-2.5,0.3-3.6c-1-1.2-2.7-1.2-3.8-0.2l-4,4
	c-0.5,0.5-0.5,1.2,0,1.7L61.2,23.7z M55.9,13.6c0.6,0.6,1.5,0.6,2.1,0l3.7-3.7c1-1,1.1-2.5,0.3-3.6c-1-1.2-2.7-1.2-3.8-0.2l-4,4
	c-0.5,0.5-0.5,1.2,0,1.7L55.9,13.6z M45,8.2c0.6,0.6,1.5,0.6,2.1,0l3.7-3.7c1-1,1.1-2.5,0.3-3.6c-1-1.2-2.7-1.2-3.8-0.2l-4,4
	c-0.5,0.5-0.5,1.2,0,1.7L45,8.2z"/>
</svg>
