<?xml version="1.0" encoding="utf-8"?>
<!-- Generator: Adobe Illustrator 18.0.0, SVG Export Plug-In . SVG Version: 6.00 Build 0)  -->
<!DOCTYPE svg PUBLIC "-//W3C//DTD SVG 1.1 Tiny//EN" "http://www.w3.org/Graphics/SVG/1.1/DTD/svg11-tiny.dtd">
<svg version="1.1" baseProfile="tiny" id="Layer_1" xmlns="http://www.w3.org/2000/svg" xmlns:xlink="http://www.w3.org/1999/xlink"
	 x="0px" y="0px" width="511.9px" height="511.9px" viewBox="0 0 511.9 511.9" xml:space="preserve">
<path fill="#FFD3B6" d="M434.7,252.4l0.7-6c0-99.8-80.9-180.8-180.8-180.8c-99.8,0-180.8,81-180.8,180.8l0.7,6.1c0,0,0,0,0,0
	c-17.5,3.4-30.6,18.8-30.6,37.3c0,21,17,38,37.9,38c0.5,0,1,0,1.5,0l1.7,14.1c0,93.7,75.9,169.6,169.6,169.6
	c93.7,0,169.7-76,169.7-169.6l1.7-14.1c0.7,0,1.4,0.1,2.1,0.1c20.9,0,37.9-17,37.9-38C465.9,271.1,452.4,255.6,434.7,252.4z"/>
<path fill="#E5AB83" d="M254.6,362.8C254.6,362.8,254.6,362.8,254.6,362.8c-12.2,0-23.3-6-29.6-16.2c-2.2-3.4-1.1-8,2.3-10.1
	c3.4-2.2,8-1.1,10.1,2.3c3.7,5.8,10.1,9.3,17.2,9.3c0,0,0,0,0,0c7.1,0,13.5-3.5,17.2-9.3c2.2-3.4,6.7-4.5,10.1-2.3
	c3.4,2.2,4.5,6.7,2.3,10.1C277.8,356.8,266.8,362.8,254.6,362.8z"/>
<path fill="#2B3B47" d="M164.8,263.4c-0.8-9.2-8.4-16.5-17.8-16.5c-9.4,0-17,7.2-17.8,16.5l-0.2,25.3h0.1c0,0,0,0.1,0,0.1
	c0,9.9,8.1,18,18,18s18-8.1,18-18c0,0,0,0,0-0.1h0L164.8,263.4z"/>
<path fill="#2B3B47" d="M380.2,263.4c-0.8-9.2-8.4-16.5-17.8-16.5c-9.4,0-17,7.2-17.8,16.5l-0.2,25.3h0.1c0,0,0,0.1,0,0.1
	c0,9.9,8.1,18,17.9,18c9.9,0,18-8.1,18-18c0,0,0,0,0-0.1l0,0L380.2,263.4z"/>
<path fill="#FFFFFF" d="M143.1,264.4c-0.2-2.3-2.1-4.1-4.4-4.1c-2.3,0-4.2,1.8-4.4,4.1h0v6.3h0v0c0,2.5,2,4.5,4.5,4.5
	c2.5,0,4.5-2,4.5-4.5v0l0,0L143.1,264.4L143.1,264.4z"/>
<path fill="#FFFFFF" d="M359.8,264.4c-0.2-2.3-2.1-4.1-4.4-4.1c-2.3,0-4.2,1.8-4.4,4.1h0v6.3h0v0c0,2.5,2,4.5,4.5,4.5
	c2.5,0,4.5-2,4.5-4.5v0l0,0L359.8,264.4L359.8,264.4z"/>
<path fill="#EDC0A2" d="M239.9,494.3c-38.7,0-74.7-11.8-104.6-31.9c30.7,30.6,73,49.5,119.7,49.5c93.6,0,169.4-75.9,169.4-169.4
	l0.6-8.6C412,424.6,334.2,494.3,239.9,494.3z"/>
<path fill="#2B3B47" d="M328.5,407.7c-4.4-0.4-8.8-0.7-13.2-0.9c-0.1,0.1-0.1,0.3-0.2,0.3l-0.2,0.1c0,0-1.9,0.5-5.2,1.1
	c-3.3,0.5-8,1.6-13.6,2.1c-5.6,0.5-12.2,1.5-19.3,1.8c-7.1,0.5-14.6,0.6-22.1,0.7c-7.5-0.1-15.1-0.2-22.1-0.7
	c-7.1-0.4-13.6-1.3-19.3-1.8c-5.6-0.5-10.4-1.7-13.6-2.1c-3.3-0.6-5.2-1.1-5.2-1.1l-0.2-0.1c-0.1,0-0.2-0.2-0.3-0.3
	c-4.4,0.3-8.8,0.5-13.3,0.9c-0.3,0-0.6,0.1-0.9,0.3c-0.8,0.6-1,1.8-0.5,2.7l1.3,2c3.1,4.7,6.2,8.7,9.2,12c3.1,3.5,6.2,6.4,9.2,9.2
	c6.2,5.4,12.3,9.4,18.5,12.8c1.7,0.9,3.4,1.5,5,2.3c9.4-6.6,20.3,2.3,31.9,2.3c11.7,0,22.6-8.8,32-2.2c1.7-0.7,3.3-1.4,5-2.2
	c6.2-3.4,12.3-7.4,18.5-12.8c3.1-2.8,6.2-5.7,9.2-9.2c3.1-3.4,6.2-7.4,9.2-12.1l1.4-2.1c0.2-0.3,0.3-0.6,0.3-0.9
	C330.2,408.8,329.5,407.8,328.5,407.7z"/>
<path fill="#FFFFFF" d="M194.3,407.2c0,0,1.9,0.5,5.2,1.1c3.3,0.5,8,1.6,13.6,2.1c5.6,0.5,12.2,1.5,19.3,1.8
	c7.1,0.5,14.6,0.6,22.1,0.7c7.5-0.1,15.1-0.2,22.1-0.7c7.1-0.3,13.6-1.3,19.3-1.8c5.6-0.5,10.4-1.7,13.6-2.1
	c3.3-0.6,5.2-1.1,5.2-1.1l0.2-0.1c0.1,0,0.2-0.2,0.2-0.3c-1.8-0.1-3.5-0.2-5.3-0.3l-18.5-0.7c-12.3-0.4-24.7-0.4-37-0.6
	c-12.3,0.2-24.7,0.2-37,0.6l-18.5,0.7c-1.7,0.1-3.5,0.2-5.2,0.3c0.1,0.1,0.1,0.3,0.3,0.3L194.3,407.2z"/>
<path fill="#FF473E" d="M286.4,449.2c0,0,0.1,0,0.1,0c-9.4-6.6-20.3-4.4-31.9-3l0,0l0,0c-11.6-1.4-22.5-3.5-31.9,3c0,0,0.1,0,0.1,0
	c0,0-0.1,0-0.1,0c10.5,4.7,20.9,6.9,31.4,6.9c0.2,0,0.3,0,0.5,0l0,0l0,0c0.2,0,0.3,0,0.5,0c10.5-0.1,20.9-2.3,31.4-6.9
	C286.5,449.2,286.4,449.2,286.4,449.2z"/>
<path fill="#FFB636" d="M447.6,181.8c0-72.5-42.7-170.2-170.7-170.2c0,0-13.7,8.3-32.1,20.8c-7.1-12.8-11.4-20.8-11.4-20.8
	c-128,0-169.1,84.9-169.1,164.2c0,55.7,1.9,76.1,3.8,84.4c3.2,13.8,9.3,6.5,12.3-1.8c11.2-30.4,20.8-155.2,65.9-116.6
	c32.3,27.7,214.1,67.4,198.6,48.4c-2.6-3.2-5.2-6.5-7.9-10c61,27.3,87.2,67.1,90.9,75.7c3.5,8.2,11.1,15.2,14.2-2.2
	C447.8,221,447.6,207.1,447.6,181.8z"/>
<path fill="#00B1FF" d="M488.8,123.5c0,68.2-104.3,97.6-232.9,97.6S23.1,191.6,23.1,123.5S127.3,0,256,0S488.8,55.3,488.8,123.5z"/>
<path fill="#597B91" d="M390.3,113.6H113c-24.8,0-44.9,24.4-44.9,54.4v13.6c0,5.1,4.2,9.3,9.3,9.3h357c5.2,0,9.3-4.1,9.3-9.3v-3.3
	C443.8,142.6,419.9,113.6,390.3,113.6z"/>
<path fill="#FFB636" d="M258.8,49.9l-22.6,16.7c-1.3,1-3.1,1-4.5,0.1l-21.8-14.5c-2.6-1.7-6.1,0.1-6.1,3.3v59.3
	c0,37.1,46.7,59,55.8,62.9c1,0.4,2,0.4,3,0c9-3.9,55.8-25.8,55.8-62.9v-59c0-3.2-3.6-5-6.2-3.2l-20.2,14.2c-1.3,0.9-3.1,0.9-4.5,0
	l-24.1-16.9C262,48.8,260.1,48.9,258.8,49.9z"/>
<path fill="#2B3B47" d="M434.4,190.9h-357c-1.2,0-2.3-0.2-3.3-0.6c35.7,33.8,103.8,56.6,182,56.6c78.5,0,146.7-23,182.4-56.9
	c0,0,0,0,0,0C437.3,190.6,435.9,190.9,434.4,190.9z"/>
</svg>
