<svg xmlns="http://www.w3.org/2000/svg" viewBox="0 0 512 512" enable-background="new 0 0 512 512"><path fill="#877F81" d="M313.176 265.95c0 30.592-26.297 55.385-58.743 55.385-18.725 0-27.363 2.67-34.325 5.047-3.055 1.043-5.115 3.903-5.115 7.13v.742c0 4.073-3.297 7.4-7.37 7.403-5.108.005-7.617-1.19-8.85-2.38-.646-.624-1.69-.648-2.296.016-1.077 1.182-3.2 2.364-7.39 2.364h-1.51c-4.09 0-7.403-3.315-7.403-7.403v-7.393c-11.658-2.48-25.58-5.524-45.572-5.524-2.37 0-2.623-1.618.25-10.395 1.603.125 3.22.204 4.855.204 33.74 0 37.118 8.674 54.57 8.674s18.438-8.674 52.18-8.674c32.445 0 58.743-24.793 58.743-55.385 0-10.043-2.85-19.45-7.807-27.567 9.786 9.893 15.783 23.162 15.783 37.758zm-2.982 178.695c0-19.076 4.22-36.14 11.883-48.053 8.895-13.825 22.05-20.836 39.103-20.836 1.708 0 3.092-1.384 3.092-3.092s-1.384-3.092-3.092-3.092c-42.15 0-57.17 38.78-57.17 75.072 0 1.708 1.385 3.092 3.093 3.092s3.09-1.383 3.09-3.09z"/></svg>