<?xml version="1.0" encoding="utf-8"?>
<!-- Generator: Adobe Illustrator 18.0.0, SVG Export Plug-In . SVG Version: 6.00 Build 0)  -->
<!DOCTYPE svg PUBLIC "-//W3C//DTD SVG 1.1 Tiny//EN" "http://www.w3.org/Graphics/SVG/1.1/DTD/svg11-tiny.dtd">
<svg version="1.1" baseProfile="tiny" id="Layer_1" xmlns="http://www.w3.org/2000/svg" xmlns:xlink="http://www.w3.org/1999/xlink"
	 x="0px" y="0px" width="511.9px" height="511.9px" viewBox="0 0 511.9 511.9" xml:space="preserve">
<path fill="#FFD3B6" d="M434.7,252.4l0.7-6c0-99.8-80.9-180.8-180.8-180.8c-99.8,0-180.8,81-180.8,180.8l0.7,6.1c0,0,0,0,0,0
	c-17.5,3.4-30.6,18.8-30.6,37.3c0,21,17,38,37.9,38c0.5,0,1,0,1.5,0l1.7,14.1c0,93.7,75.9,169.6,169.6,169.6
	c93.7,0,169.7-76,169.7-169.6l1.7-14.1c0.7,0,1.4,0.1,2.1,0.1c20.9,0,37.9-17,37.9-38C465.9,271.1,452.4,255.6,434.7,252.4z"/>
</svg>
