<?xml version="1.0" encoding="iso-8859-1"?>
<!-- Generator: Adobe Illustrator 18.1.1, SVG Export Plug-In . SVG Version: 6.00 Build 0)  -->
<!DOCTYPE svg PUBLIC "-//W3C//DTD SVG 1.1//EN" "http://www.w3.org/Graphics/SVG/1.1/DTD/svg11.dtd">
<svg version="1.1" xmlns="http://www.w3.org/2000/svg" xmlns:xlink="http://www.w3.org/1999/xlink" x="0px" y="0px"
	 viewBox="0 0 512 512" enable-background="new 0 0 512 512" xml:space="preserve">
<g id="Layer_6">
	<path fill="#597B91" d="M376.688,91.616v35.219h-0.061c-0.313,4.494-4.019,8.054-8.593,8.054H143.014
		c-4.573,0-8.28-3.56-8.594-8.054h-0.061V91.616c0-4.78,3.875-8.655,8.655-8.655h225.021
		C372.815,82.961,376.688,86.836,376.688,91.616z M142.81,254.08h139.515c4.668,0,8.451-3.784,8.451-8.451v-17.716
		c0-4.668-3.784-8.451-8.451-8.451H142.81c-4.668,0-8.451,3.784-8.451,8.451v17.716C134.358,250.296,138.142,254.08,142.81,254.08z
		 M431.591,228.114c-0.001-4.779-3.875-8.652-8.654-8.652c-0.005,0-0.01,0.001-0.014,0.001l-0.001-0.001h-97.549l-0.001,0.001
		c-4.768,0.013-8.63,3.88-8.631,8.651l0,0v147.131c0,4.772,3.862,8.641,8.631,8.653l0.001,0.001h97.549l0.001-0.001
		c0.005,0,0.01,0.001,0.014,0.001c4.78,0,8.655-3.875,8.655-8.655L431.591,228.114L431.591,228.114z"/>
</g>
<g id="Layer_1">
</g>
</svg>
