<?xml version="1.0" encoding="utf-8"?>
<!-- Generator: Adobe Illustrator 18.1.0, SVG Export Plug-In . SVG Version: 6.00 Build 0)  -->
<!DOCTYPE svg PUBLIC "-//W3C//DTD SVG 1.0//EN" "http://www.w3.org/TR/2001/REC-SVG-20010904/DTD/svg10.dtd">
<svg version="1.0" id="Layer_1" xmlns="http://www.w3.org/2000/svg" xmlns:xlink="http://www.w3.org/1999/xlink" x="0px" y="0px"
	 width="72px" height="72px" viewBox="0 0 72 72" enable-background="new 0 0 72 72" xml:space="preserve">
<path fill="#2B3B47" d="M55.2,60.2c-6.5,0-38.9-18-41.6-8.8l-0.1,0.4c-0.2-0.3,0.1-0.7,0.1-0.7c-2.3,1.2-3.1,20,1.1,20.5
	c1,0.1,2.6,0,6,0c1.8,0,2.3-4,2.4-5.8l0-0.4c0.1-1.6,0.8-2.7,2.3-2.3c1,0.3,6.5,3,7.3,3.4l0,0c4.9,2.9,9.8,5.4,15.1,5.4
	c0.6,0,4.1,0,4.8,0c5.6,0,12.8-2,12.8-4.2C65.5,63.2,61.7,60.2,55.2,60.2z"/>
</svg>
