<?xml version="1.0" encoding="iso-8859-1"?>
<!-- Generator: Adobe Illustrator 18.1.1, SVG Export Plug-In . SVG Version: 6.00 Build 0)  -->
<!DOCTYPE svg PUBLIC "-//W3C//DTD SVG 1.1//EN" "http://www.w3.org/Graphics/SVG/1.1/DTD/svg11.dtd">
<svg version="1.1" xmlns="http://www.w3.org/2000/svg" xmlns:xlink="http://www.w3.org/1999/xlink" x="0px" y="0px"
	 viewBox="0 0 512 512" enable-background="new 0 0 512 512" xml:space="preserve">
<g id="Layer_2">
	<path fill="#DCE2E2" d="M478.685,44.5H32c-2.485,0-4.5-2.015-4.5-4.5s2.015-4.5,4.5-4.5h446.685c2.485,0,4.5,2.015,4.5,4.5
		S481.17,44.5,478.685,44.5z M483.185,89.418c0-2.485-2.015-4.5-4.5-4.5H32c-2.485,0-4.5,2.015-4.5,4.5s2.015,4.5,4.5,4.5h446.685
		C481.17,93.918,483.185,91.903,483.185,89.418z M483.185,138.836c0-2.485-2.015-4.5-4.5-4.5H32c-2.485,0-4.5,2.015-4.5,4.5
		s2.015,4.5,4.5,4.5h446.685C481.17,143.336,483.185,141.321,483.185,138.836z M483.185,188.254c0-2.485-2.015-4.5-4.5-4.5H32
		c-2.485,0-4.5,2.015-4.5,4.5s2.015,4.5,4.5,4.5h446.685C481.17,192.754,483.185,190.739,483.185,188.254z M483.185,237.672
		c0-2.485-2.015-4.5-4.5-4.5H32c-2.485,0-4.5,2.015-4.5,4.5s2.015,4.5,4.5,4.5h446.685
		C481.17,242.172,483.185,240.157,483.185,237.672z M483.185,287.09c0-2.485-2.015-4.5-4.5-4.5H32c-2.485,0-4.5,2.015-4.5,4.5
		s2.015,4.5,4.5,4.5h446.685C481.17,291.59,483.185,289.575,483.185,287.09z M483.185,336.508c0-2.485-2.015-4.5-4.5-4.5H32
		c-2.485,0-4.5,2.015-4.5,4.5s2.015,4.5,4.5,4.5h446.685C481.17,341.008,483.185,338.993,483.185,336.508z M483.185,385.926
		c0-2.485-2.015-4.5-4.5-4.5H32c-2.485,0-4.5,2.015-4.5,4.5s2.015,4.5,4.5,4.5h446.685
		C481.17,390.426,483.185,388.411,483.185,385.926z M483.185,435.344c0-2.485-2.015-4.5-4.5-4.5H32c-2.485,0-4.5,2.015-4.5,4.5
		s2.015,4.5,4.5,4.5h446.685C481.17,439.844,483.185,437.829,483.185,435.344z"/>
</g>
<g id="Layer_3">
	<path fill="#FF473E" d="M183.96,483.418H82.669V137.39c0-12.364,10.023-22.387,22.387-22.387h56.517
		c12.364,0,22.387,10.023,22.387,22.387V483.418z"/>
</g>
<g id="Layer_4">
	<path fill="#00B1FF" d="M318.431,483.418H217.14V296.187c0-12.364,10.023-22.387,22.387-22.387h56.517
		c12.364,0,22.387,10.023,22.387,22.387V483.418z"/>
</g>
<g id="Layer_5">
	<path fill="#A97DFF" d="M452.902,483.418h-101.29V80.91c0-12.364,10.023-22.387,22.387-22.387h56.517
		c12.364,0,22.387,10.023,22.387,22.387V483.418z"/>
</g>
<g id="Layer_6">
	<path fill="#B9C5C6" d="M478.685,489.418H32c-3.866,0-7-3.134-7-7V40c0-3.866,3.134-7,7-7s7,3.134,7,7v435.418h439.685
		c3.866,0,7,3.134,7,7S482.551,489.418,478.685,489.418z"/>
</g>
</svg>
