<svg xmlns="http://www.w3.org/2000/svg" viewBox="0 0 72 72" enable-background="new 0 0 72 72"><path fill="#E576CB" d="M39.85 26.513s-.222.285-.554.488c-.33.218-.773.36-1.215.367-.44-.005-.882-.146-1.213-.363-.33-.203-.552-.49-.552-.49-.05-.066-.048-.156 0-.22 0 0 .22-.286.552-.49.332-.216.773-.357 1.215-.362.443.007.885.15 1.216.366.332.202.553.488.553.488.05.065.05.156 0 .22zm2.36 6.006c0 .09-.015.204-.042.29-.753 2.384-2.28 3.81-4.087 3.81-1.804 0-3.332-1.426-4.084-3.81-.03-.095-.043-.19-.04-.286-.003-.18.05-.36.162-.52.958-1.347 2.38-2.138 3.9-2.168h.085c1.507 0 2.976.806 3.944 2.17.106.15.163.328.163.512z"/></svg>