<?xml version="1.0" encoding="iso-8859-1"?>
<!-- Generator: Adobe Illustrator 18.1.0, SVG Export Plug-In . SVG Version: 6.00 Build 0)  -->
<!DOCTYPE svg PUBLIC "-//W3C//DTD SVG 1.1//EN" "http://www.w3.org/Graphics/SVG/1.1/DTD/svg11.dtd">
<svg version="1.1" xmlns="http://www.w3.org/2000/svg" xmlns:xlink="http://www.w3.org/1999/xlink" x="0px" y="0px"
	 viewBox="0 0 512 512" enable-background="new 0 0 512 512" xml:space="preserve">
<g id="Layer_2">
	<path fill="#AF773F" d="M90.441,116.07c-15.94-54.175-3.664-82.26,28.807-37.719s17.584,98.012-3.92,113.688 M144.89,271.582
		c0.833,56.714-6.142,102.559-13.484,145.072c-4.608-1.145-9.154-1.772-12.563-1.772c-9.048,0-12.962,11.212-12.962,11.212
		c-4.84,6.649,0.077,15.994,8.301,15.994H141.6c4.081,0,7.346-2.303,9.01-5.434l0.49,0.085c0,0,22.425-48.452,28.155-81.55
		s14.527-83.909,14.527-83.909L144.89,271.582z M436.222,240.613l-86.377-22.069c-43.131,37.243-2.034,122.161,14.36,144.739
		c15.482,21.321,13.588,45.504,10.139,60.332c-4.075-0.915-8.008-1.414-11.041-1.414c-9.048,0-12.962,11.212-12.962,11.212
		c-4.84,6.649,0.077,15.994,8.301,15.994h27.418c3.095,0,5.721-1.324,7.535-3.329c1.642-1.326,2.77-3.723,3.055-7.618
		c1.516-20.692,18.207-37.204,12.432-55.134C391.178,327.736,431.721,302.05,436.222,240.613z"/>
</g>
<g id="Layer_3">
	<path fill="#D19B61" d="M469.391,137.423c-2.001-7.466-5.731-14.435-11.228-20.222c-2.743-2.891-6.007-5.402-9.623-7.368
		c-3.618-1.96-7.629-3.306-11.643-3.856c-4.013-0.55-7.978-0.38-11.557,0.34c-3.598,0.72-6.804,1.942-9.657,3.337
		c-0.721,0.344-1.391,0.725-2.076,1.087c-0.658,0.386-1.307,0.775-1.936,1.169c-0.684,0.455-1.362,0.906-2.035,1.354
		c-0.585,0.462-1.165,0.92-1.74,1.374c-0.823,0.641-1.371,1.189-1.98,1.762c-0.584,0.588-1.155,1.176-1.674,1.801
		c-1.057,1.232-1.972,2.541-2.787,3.864c-3.214,5.328-4.418,11.317-3.583,16.632c0.396,2.651,1.298,5.094,2.499,7.111
		c1.187,2.03,2.666,3.607,4.096,4.764c1.432,1.156,2.816,1.959,4.029,2.475c1.207,0.543,2.241,0.874,3.068,1.087
		c0.827,0.244,1.464,0.315,1.886,0.394c0.422,0.069,0.64,0.104,0.64,0.104c1.685,0.272,3.466-0.382,4.552-1.848
		c1.552-2.094,1.112-5.05-0.982-6.602l-0.703-0.521c0,0-0.111-0.082-0.327-0.242c-0.213-0.157-0.538-0.384-0.896-0.702
		c-0.743-0.596-1.682-1.61-2.209-2.808c-0.547-1.207-0.585-2.515-0.146-4.013c0.216-0.748,0.621-1.567,1.144-2.388
		c0.538-0.82,1.282-1.628,2.121-2.357c0.444-0.352,0.897-0.696,1.404-0.987c0.247-0.149,0.51-0.284,0.761-0.426
		c0.26-0.117,0.567-0.296,0.684-0.285l0.113-0.03l0.054-0.018l0.172-0.08l0.782-0.368l0.196-0.092
		c0.077-0.044-0.484,0.295-0.229,0.145l0.038-0.015l0.076-0.029l0.304-0.118l0.607-0.239c0.813-0.288,1.619-0.558,2.412-0.773
		c1.589-0.422,3.14-0.656,4.546-0.618c1.41-0.014,2.668,0.227,3.809,0.632c1.131,0.443,2.182,0.994,3.198,1.799
		c1.018,0.8,1.968,1.854,2.887,3.069c1.81,2.462,3.185,5.809,3.788,9.205c0.572,3.405,0.394,6.825-0.493,9.382
		c-0.214,0.642-0.471,1.233-0.731,1.778c-0.129,0.259-0.316,0.598-0.316,0.598c-0.022,0.038,0.009,0.001-0.052,0.105l-0.267,0.432
		l-0.267,0.431l-0.033,0.054c-0.003,0.005-0.003,0.005-0.005,0.009c0.065-0.105,0.183-0.296,0.155-0.252l-0.053,0.077l-0.105,0.154
		c-1.123,1.642-2.301,3.21-3.546,4.693c-1.276,1.455-2.578,2.859-3.951,4.159c-1.391,1.277-2.789,2.52-4.247,3.635
		c-2.905,2.24-5.906,4.159-8.816,5.697c-1.501,0.812-2.973,1.518-4.385,2.138c-8.878-5.463-18.81-8.177-28.53-8.226
		c-28.668-0.147-49.803,14.413-102.361,14.144c-37.936-0.194-72.313-5.654-93.552-19.25c-1.337-1.143-2.869-2.226-4.62-3.237
		c-0.28-0.217-0.567-0.421-0.852-0.629c-3.208-2.824-7.257-11.265-13.383-20.931c2.809-17.848,2.35-39.654-3.584-55.781
		c-18.435-50.096-53.779-38.368-50.7,17.562c-43.415-4.158-68.681,20.145-72.826,56.897c-0.565,5.012-0.462,9.969,0.248,14.808
		c1.307,8.913-11.886,16.462-12.873,25.417c-0.013,0.12-0.026,0.24-0.038,0.36c-1.589,16.034,29.778,28.274,41.266,29.57
		c20.692,2.334,40.487-16.686,45.652,0.614c4.484,33.585,27.575,83.671,60.329,102.036c12.803,42.355,21.6,62.091,13.719,93.546
		c-4.442-1.07-8.792-1.656-12.082-1.656c-9.048,0-12.962,11.212-12.962,11.212c-4.84,6.649,0.077,15.994,8.301,15.994h27.418
		c6.109,0,10.389-5.157,10.205-10.534h0.761c0,0,10.143-36.07,10.143-59.566c0-10.696,0.764-28.802,1.597-45.356
		c46.046-10.263,60.681-22.346,84.105-28.656c14.08-3.793,29.017,1.338,38.051,12.784c13.341,16.902,30.099,30.056,47.707,35.37
		c28.015,8.454,37.276,42.911,40.155,59.603c0.339,1.968,0.846,3.893,1.486,5.768c-3.063-0.688-5.965-1.058-8.275-1.058
		c-7.999,0-11.46,11.212-11.46,11.212c-4.279,6.649,0.068,15.994,7.339,15.994h24.24c3.915,0,6.966-2.717,8.295-6.256
		c1.179-0.891,1.9-2.955,1.9-6.678c0-106.201-30.012-75.888-17.37-158.682c0.479-2.546,2.365-14.132,2.979-17.41
		c0,0-0.027-9.724-0.001-14.847c0.092-18.01-3.99-32.528-10.602-43.709c3.068-1.263,6.179-2.813,9.254-4.716
		c2.528-1.566,5.055-3.331,7.463-5.373c1.211-1.012,2.398-2.085,3.571-3.2c1.166-1.123,2.275-2.328,3.374-3.562
		c1.085-1.246,2.148-2.533,3.165-3.872c1.004-1.349,1.961-2.748,2.863-4.191l0.505-0.81l0.256-0.437l0.257-0.438l0.436-0.787
		c0.654-1.186,1.062-2.073,1.503-3.052c0.869-1.938,1.518-3.943,2.042-5.95C471.718,152.99,471.418,144.876,469.391,137.423z"/>
</g>
<g id="Layer_4">
	<path fill="#EADFD6" d="M78.62,213.947c1.882,4.349-0.146,9.413-4.521,11.233c-6.872,2.859-16.995,6.073-25.779,5.082
		c-16.683-1.882-32.243-9.975-34.937-27.864c-2.694-17.889-9.001-38.112,28.353-33.898C61.504,170.729,72.195,199.098,78.62,213.947
		z"/>
</g>
<g id="Layer_5">
	<path fill="#AF773F" d="M117.69,150.621c-3.24,10.251,1.894,16.551-0.916,27.322c-0.115,0.472-0.24,0.944-0.389,1.415
		c-3.573,11.304-15.633,17.572-26.937,13.999c-11.304-3.573-17.572-15.633-13.999-26.937c2.395-7.58,3.304-5.8,4.897-12.24
		c1.492-6.028,0.605-8.188,3.235-14.338l0,0c0,0,0-0.001,0-0.001c2.977-9.419,13.025-14.641,22.444-11.664
		C115.445,131.154,120.667,141.202,117.69,150.621z M51.17,212.394c0.832,0.094,1.583-0.505,1.676-1.337
		c0.094-0.832-0.505-1.583-1.337-1.676c-0.832-0.094-1.583,0.505-1.676,1.337C49.739,211.55,50.338,212.301,51.17,212.394z
		 M49.562,195.393c0.832,0.094,1.583-0.505,1.676-1.337s-0.505-1.583-1.337-1.676c-0.832-0.094-1.583,0.505-1.676,1.337
		C48.132,194.549,48.73,195.299,49.562,195.393z M39.135,205.094c0.832,0.094,1.583-0.505,1.676-1.337
		c0.094-0.832-0.505-1.583-1.337-1.676c-0.832-0.094-1.583,0.505-1.676,1.337C37.705,204.249,38.303,205,39.135,205.094z"/>
</g>
<g id="Layer_6">
	<path fill="#2B3B47" d="M16.059,168.262c0,0,4.613,0.639,9.226,1.277c4.634,0.454,9.278,0.81,9.278,0.81
		c3.625,0.278,6.338,3.442,6.06,7.066c-0.147,1.913-1.097,3.572-2.495,4.671l-5.361,4.183c0,0-1.284,1.002-3.105,1.568
		c-0.9,0.192-1.986,0.734-3.072,0.626c-1.093-0.044-2.292,0.205-3.432-0.076c-1.141-0.268-2.282-0.536-3.351-0.788
		c-1.053-0.396-2.015-0.959-2.85-1.343C11.958,184.753,10.383,167.621,16.059,168.262z M100.117,152.041
		c-4.679-0.528-8.899,2.837-9.427,7.516l-1.422,12.61c-0.528,4.679,2.837,8.899,7.516,9.427l0,0
		c4.679,0.528,8.899-2.837,9.427-7.516l1.422-12.61C108.161,156.789,104.796,152.568,100.117,152.041L100.117,152.041z"/>
</g>
<g id="Layer_7">
	<path fill="#FF9DDD" d="M124.657,95.384c-0.127-22.871,8.759-36.355,15.492-15.06c3.026,9.573,4.239,19.59,2.495,28.787
		c-1.597,8.426-13.364,8.211-15.066,0.799C126.622,105.744,124.69,101.288,124.657,95.384z"/>
</g>
</svg>
