<svg xmlns="http://www.w3.org/2000/svg" viewBox="0 0 512 512" enable-background="new 0 0 512 512"><path fill="#E5E4DF" d="M293.903 117.436h-75.99c-11.445 0-20.723-9.278-20.723-20.723V6.323c0-3.492 2.83-6.323 6.323-6.323h104.79c3.492 0 6.323 2.83 6.323 6.323v90.39c0 11.445-9.28 20.723-20.723 20.723zm-144.898 118.87v-5.946c0-14.083-11.416-25.5-25.5-25.5H87.053c-14.083 0-25.5 11.417-25.5 25.5v5.945c0 14.083 11.417 25.5 25.5 25.5h36.453c14.083 0 25.5-11.417 25.5-25.5zm303.033 0v-5.946c0-14.083-11.416-25.5-25.5-25.5h-36.452c-14.083 0-25.5 11.417-25.5 25.5v5.945c0 14.083 11.417 25.5 25.5 25.5h36.453c14.08 0 25.498-11.417 25.498-25.5z"/></svg>