<svg xmlns="http://www.w3.org/2000/svg" viewBox="0 0 512 512" enable-background="new 0 0 512 512"><path fill="#fec" d="M79.27 221.8c-.442 0-.83-.324-.898-.775-.075-.496.267-.96.764-1.034 34.9-5.256 46.363-1.695 46.833-1.542.476.156.736.67.58 1.146-.156.477-.67.737-1.146.58-.11-.034-11.667-3.558-45.998 1.614-.046.008-.09.01-.136.01zm44.972 6.76c.067-.497-.283-.954-.78-1.02-.175-.023-17.713-2.353-38.782-3.56-.502-.027-.93.355-.96.857-.027.5.355.93.857.96 20.996 1.2 38.47 3.52 38.644 3.544.042.006.083.01.123.01.448 0 .838-.333.9-.79zm-5.453 13.087c.282-.415.175-.98-.24-1.263-.17-.115-17.157-11.516-42.46-12.965-.503-.027-.93.353-.958.855-.028.5.354.93.856.96 24.773 1.417 41.374 12.54 41.54 12.65.156.107.333.16.51.16.29 0 .575-.14.75-.398z"/></svg>