<?xml version="1.0" encoding="iso-8859-1"?>
<!-- Generator: Adobe Illustrator 19.1.0, SVG Export Plug-In . SVG Version: 6.00 Build 0)  -->
<!DOCTYPE svg PUBLIC "-//W3C//DTD SVG 1.1//EN" "http://www.w3.org/Graphics/SVG/1.1/DTD/svg11.dtd">
<svg version="1.1" xmlns="http://www.w3.org/2000/svg" xmlns:xlink="http://www.w3.org/1999/xlink" x="0px" y="0px"
	 viewBox="0 0 512 512" enable-background="new 0 0 512 512" xml:space="preserve">
<g id="Layer_6">
	<path fill="#BFBFBB" d="M175.823,57.977h-21.317c0-18.337-14.919-33.256-33.256-33.256S87.993,39.639,87.993,57.977
		s14.919,33.256,33.256,33.256c5.887,0,10.659,4.772,10.659,10.659s-4.772,10.659-10.659,10.659
		c-30.092,0-54.574-24.481-54.574-54.573c0-30.092,24.481-54.574,54.574-54.574S175.823,27.884,175.823,57.977z M408.238,5.169
		L408.238,5.169C408.238,5.169,408.238,5.169,408.238,5.169c-4.491-1.172-9.14-1.766-13.815-1.766
		c-30.092,0-54.574,24.481-54.574,54.574c0,30.092,24.482,54.573,54.574,54.573c5.887,0,10.659-4.772,10.659-10.659
		s-4.772-10.659-10.659-10.659c-18.338,0-33.256-14.918-33.256-33.256s14.918-33.256,33.256-33.256c2.86,0,5.697,0.362,8.431,1.076
		l0,0c14.617,3.815,24.825,17.048,24.825,32.181h21.318C448.997,33.148,432.236,11.433,408.238,5.169z"/>
</g>
<g id="Layer_1">
</g>
</svg>
