<?xml version="1.0" encoding="utf-8"?>
<!-- Generator: Adobe Illustrator 18.1.0, SVG Export Plug-In . SVG Version: 6.00 Build 0)  -->
<!DOCTYPE svg PUBLIC "-//W3C//DTD SVG 1.0//EN" "http://www.w3.org/TR/2001/REC-SVG-20010904/DTD/svg10.dtd">
<svg version="1.0" id="Layer_1" xmlns="http://www.w3.org/2000/svg" xmlns:xlink="http://www.w3.org/1999/xlink" x="0px" y="0px"
	 width="72px" height="72px" viewBox="0 0 72 72" enable-background="new 0 0 72 72" xml:space="preserve">
<path fill="#FF473E" d="M28.6,45.3C28.6,45.3,28.6,45.3,28.6,45.3L28.6,45.3C28.6,45.3,28.6,45.3,28.6,45.3c-1-0.7-2.1-0.5-3.4-0.3
	l0,0l0,0c-1.2-0.1-2.4-0.4-3.4,0.3c0,0,0,0,0,0c0,0,0,0,0,0c1.1,0.5,2.2,0.7,3.3,0.7c0,0,0,0,0.1,0l0,0l0,0c0,0,0,0,0.1,0
	C26.4,46.1,27.5,45.8,28.6,45.3L28.6,45.3L28.6,45.3z"/>
</svg>
