<?xml version="1.0" encoding="iso-8859-1"?>
<!-- Generator: Adobe Illustrator 18.1.0, SVG Export Plug-In . SVG Version: 6.00 Build 0)  -->
<!DOCTYPE svg PUBLIC "-//W3C//DTD SVG 1.1//EN" "http://www.w3.org/Graphics/SVG/1.1/DTD/svg11.dtd">
<svg version="1.1" xmlns="http://www.w3.org/2000/svg" xmlns:xlink="http://www.w3.org/1999/xlink" x="0px" y="0px"
	 viewBox="0 0 512 512" enable-background="new 0 0 512 512" xml:space="preserve">
<g id="Layer_2">
	<path fill="#2B3B47" d="M120.965,227.598c-22.179,1.905-39.631,20.262-39.631,42.885c0,22.686,17.452,41.043,39.631,42.976v0.522
		h60.887v-0.185c0.091,0,0.123,0,0.17,0c23.911,0,43.312-19.401,43.312-43.312s-19.401-43.312-43.312-43.312
		c-0.047,0-0.079,0.091-0.17,0.091v-0.091h-60.887V227.598z"/>
</g>
<g id="Layer_3">
	<path fill="#ADBCBB" d="M342.806,88.829C341.459,80.115,355,69.147,355,69.147c0-1.186-0.961-2.147-2.147-2.147h-39.38
		c-1.596,0-2.634-1.679-1.92-3.107l5.48-10.96c0.802-1.605-0.593-3.43-2.35-3.063c-12.299,2.565-51.739,14.027-89.985,30.758
		c-17.707,5.925-34.344,14.895-49.476,26.226c-11.825,7.924-21.587,16.366-27.716,25.13l0.009-0.002
		c-35.468,38.585-57.606,91.326-57.606,143.974c0,101.526,82.303,183.829,183.829,183.829s183.829-82.303,183.829-183.829
		C457.566,198.862,410.102,121.57,342.806,88.829z"/>
</g>
<g id="Layer_4">
	<path fill="#E5E4DF" d="M309.365,247c-2.832-32.971-30.121-58.914-63.751-58.914c-33.723,0-61.013,25.943-63.886,58.914
		l-0.776,41.426h0.276c0,0.135,0,0.182,0,0.252c0,35.546,28.84,64.386,64.386,64.386S310,324.224,310,288.679
		c0-0.07-0.135-0.117-0.135-0.252H310V247H309.365z"/>
</g>
<g id="Layer_5">
	<path fill="#2B3B47" d="M269.263,256.567c-1.054-12.276-11.215-21.935-23.736-21.935c-12.556,0-22.717,9.659-23.787,21.935h-0.289
		v33.7h0.103c0,0.05,0,0.068,0,0.094c0,13.235,10.738,23.973,23.973,23.973s23.973-10.738,23.973-23.973
		c0-0.026-0.05-0.043-0.05-0.094h0.05v-33.7H269.263z"/>
</g>
<g id="Layer_6">
	<path fill="#D1CFC3" d="M112.6,286.502c31.605,0,62.185,75.77,50.569,87.386c-11.616,11.616-96.428,9.162-124.523,0
		C10.085,364.574,96.185,286.502,112.6,286.502z"/>
</g>
</svg>
