<?xml version="1.0" encoding="iso-8859-1"?>
<!-- Generator: Adobe Illustrator 18.1.0, SVG Export Plug-In . SVG Version: 6.00 Build 0)  -->
<!DOCTYPE svg PUBLIC "-//W3C//DTD SVG 1.1//EN" "http://www.w3.org/Graphics/SVG/1.1/DTD/svg11.dtd">
<svg version="1.1" xmlns="http://www.w3.org/2000/svg" xmlns:xlink="http://www.w3.org/1999/xlink" x="0px" y="0px"
	 viewBox="0 0 512 512" enable-background="new 0 0 512 512" xml:space="preserve">
<g id="Layer_2">
	<circle fill="#D5DEE4" cx="256" cy="95.176" r="93.176"/>
</g>
<g id="Layer_3">
	<rect x="142.096" y="145.096" fill="#F4F3EF" width="221.989" height="335.984"/>
</g>
<g id="Layer_4">
	<path fill="#FF473E" d="M364.085,461.09v19.991H262.293l-120.197-55.809v-67.254L364.085,461.09z M364.085,291.128v-67.254
		l-169.664-78.778h-52.325v42.96L364.085,291.128z"/>
</g>
<g id="Layer_5">
	<polygon fill="#00B1FF" points="142.096,306.664 364.085,409.736 364.085,342.482 142.096,239.409 	"/>
</g>
<g id="Layer_6">
	<path fill="#BCC4C9" d="M364.085,192.229H142.096c-14.359,0-26-11.641-26-26s11.641-26,26-26h221.989c14.359,0,26,11.641,26,26
		S378.444,192.229,364.085,192.229z M390.085,481.08c0-14.359-11.641-26-26-26H142.096c-14.359,0-26,11.641-26,26s11.641,26,26,26
		h221.989C378.444,507.08,390.085,495.439,390.085,481.08z"/>
</g>
</svg>
