<?xml version="1.0" encoding="utf-8"?>
<!-- Generator: Adobe Illustrator 18.0.0, SVG Export Plug-In . SVG Version: 6.00 Build 0)  -->
<!DOCTYPE svg PUBLIC "-//W3C//DTD SVG 1.1 Tiny//EN" "http://www.w3.org/Graphics/SVG/1.1/DTD/svg11-tiny.dtd">
<svg version="1.1" baseProfile="tiny" id="Layer_1" xmlns="http://www.w3.org/2000/svg" xmlns:xlink="http://www.w3.org/1999/xlink"
	 x="0px" y="0px" width="511.9px" height="511.9px" viewBox="0 0 511.9 511.9" xml:space="preserve">
<path fill="#BFBCAF" d="M33.2,227.7c7.7-16.4,18.4-31.2,31.3-43.1c4-3.9,8.4-7.6,13.3-10.9c3.9-2.6,8-5,12.4-7.2
	c14.7-7.6,31.1-12,48.5-12c78.1,0,156.2,0,234.4,0c45.1,0,83,29,103.3,68.7c0-2.1,0-4.3-0.1-6.8c-0.2-4.1-0.8-8.5-1.7-13.4
	c-1-4.8-2.5-10.1-4.5-15.6c-2.1-5.5-4.8-11.1-8.2-16.9c-3.5-5.7-7.6-11.5-12.7-17c-10-11.1-23.5-21.2-39.9-28
	c-8.2-3.4-17-6.1-26.4-7.4c-1.3-0.2-2.5-0.3-3.8-0.5l-1.9-0.2c-0.4,0-0.5,0-0.8-0.1l-0.7-0.1c-1-0.1-2-0.1-3-0.2l-0.7-0.1l-0.2,0
	c0.4,0-0.8,0-0.7,0l-0.4,0l-1.5,0c-4-0.1-8.1-0.2-12.1-0.2c-16.3,0-33.2,1-50.4,1.3c-8.6,0.2-17.2,0.1-25.9,0.1
	c-8.7,0-17.4,0-26.1,0c-8.7,0-17.4,0-26.1-0.1c-5.8-0.1-11.6-0.2-17.4-0.4c17.2-10.9,27.5-23.3,30.7-37.2c7-3.3,11.9-10.4,11.9-18.7
	c0-11.4-9.2-20.7-20.7-20.7c-11.4,0-20.7,9.2-20.7,20.7c0,7.2,3.7,13.5,9.3,17.2c-6,16-29.3,28.6-55.6,37.9
	c-4.7,0.1-9.3,0.2-13.9,0.4c-2,0.1-4.1,0.2-6.1,0.3c-2,0.1-4,0.3-6,0.4c-1.8,0.1-4.4,0.4-6.7,0.6c-1.2,0.1-2.3,0.3-3.5,0.4
	c-1.2,0.2-2.3,0.3-3.5,0.5c-9.2,1.4-18,4.1-26,7.5c-8.1,3.4-15.5,7.6-22.1,12.3c-6.6,4.7-12.4,9.9-17.4,15.4
	c-10,10.9-16.6,22.6-20.9,33.3c-2.1,5.4-3.6,10.6-4.6,15.4c-1,4.8-1.7,9.2-1.9,13.3c-0.1,1-0.1,2-0.2,2.9c0,0.9,0,1.9-0.1,2.8
	c0,0.9,0,1.7,0,2.6c0,0.8,0,1.6,0.1,2.4C33.2,227.4,33.2,227.6,33.2,227.7z"/>
</svg>
