<?xml version="1.0" encoding="iso-8859-1"?>
<!-- Generator: Adobe Illustrator 18.1.0, SVG Export Plug-In . SVG Version: 6.00 Build 0)  -->
<!DOCTYPE svg PUBLIC "-//W3C//DTD SVG 1.1//EN" "http://www.w3.org/Graphics/SVG/1.1/DTD/svg11.dtd">
<svg version="1.1" xmlns="http://www.w3.org/2000/svg" xmlns:xlink="http://www.w3.org/1999/xlink" x="0px" y="0px"
	 viewBox="0 0 512 512" enable-background="new 0 0 512 512" xml:space="preserve">
<g id="Layer_2">
	<path fill="#A9B8C2" d="M398.116,429.875c0.65,2.372,1.004,4.866,1.004,7.444c0,15.52-12.582,18.335-28.102,18.335
		s-28.102-2.815-28.102-18.335s12.582-28.102,28.102-28.102c1.872,0,3.7,0.187,5.469,0.536c1.055-13.855-0.993-30.924-12.283-46.472
		c-16.394-22.577-57.491-107.496-14.36-144.739l86.377,22.069c-4.501,61.438-45.044,87.124-27.139,142.712
		C414.037,398.706,402.465,413.047,398.116,429.875z M282.403,418.027c-3.511-16.419-11.692-51.071-22.459-73.53
		c-14.521-30.289-36.813-76.789-36.813-76.789l-39.661,28.593c30.419,41.445,50.433,79.335,67.814,115.028
		c-10.214,4.208-17.406,14.257-17.406,25.989c0,15.52,12.582,18.335,28.102,18.335s28.102-2.815,28.102-18.335
		C290.082,429.847,287.16,423.061,282.403,418.027z"/>
</g>
<g id="Layer_3">
	<path fill="#CAD3D8" d="M442.585,273.41c0.479-2.546,2.365-14.132,2.979-17.41c0,0-0.027-9.724-0.001-14.847
		c0.072-13.993-2.378-25.876-6.572-35.729c10.01-9.981,27.855-28.089,27.872-48.292c0.008-9.422-3.795-18.008-11.304-25.517
		c-2.806-2.807-7.355-2.807-10.163,0c-2.806,2.806-2.806,7.357,0,10.163c4.779,4.779,7.1,9.797,7.095,15.341
		c-0.011,12.829-12.172,26.482-20.835,35.298c-11.513-15.823-28.586-23.545-45.052-23.629
		c-28.668-0.147-49.803,14.413-102.361,14.144c-40.82-0.209-70.878,0.142-91.521-15.836c-14.032-10.861-40.676-16.519-53.578-4.337
		c-11.046,10.428-20.821,27.261-20.958,54.198c-0.157,30.684,21.898,70.306,55.448,84.974l-2.333,0.226
		c14.52,55.09,27.419,78.003,24.228,107.96c-2.262-0.587-4.634-0.901-7.08-0.901c-15.52,0-28.102,12.582-28.102,28.102
		s12.582,18.335,28.102,18.335s28.102-2.815,28.102-18.335c0-1.454-0.11-2.883-0.323-4.277c2.842-11.19,8.587-35.993,8.587-53.678
		c0-18.605,2.312-59.626,3.275-75.901c44.724-10.509,59.29-24.2,82.427-30.432c14.08-3.793,29.017,1.338,38.051,12.784
		c13.341,16.902,30.099,62.377,47.707,67.691c25.996,7.845,35.839,38.07,39.424,55.725c-15.278,0.28-27.578,12.744-27.578,28.089
		c0,15.52,12.582,18.335,28.102,18.335s28.102-2.815,28.102-18.335c0-5.597-1.643-10.808-4.464-15.188
		C458.041,327.755,430.356,353.502,442.585,273.41z"/>
</g>
<g id="Layer_4">
	<path fill="#A9B8C2" d="M275.423,258.754c0,56.628-36.949,85.642-82.527,85.642s-93.569-30.129-101.529-85.887
		C77.546,161.692,147.318,156.22,192.896,156.22S275.423,202.126,275.423,258.754z M431.766,102.899
		c-12.078,6.737-15.496,23.623-7.635,37.715c7.861,14.093,24.025,20.055,36.102,13.318c12.078-6.737,15.496-23.623,7.635-37.715
		S443.844,96.162,431.766,102.899z"/>
</g>
<g id="Layer_5">
	<path fill="#CAD3D8" d="M163.947,156.715c-6.019-3.861-13.419-34.405-46.656-42.945c-31.762-8.161-61.353,19.602-62.701,19.13
		c-36.535-12.791-34.817,10.164-34.674,24.016c0.142,13.852,20.654,20.321,33.105,23.52c0.877,0.225,1.782,0.393,2.701,0.516
		c0,0,0,0,0,0c18.045,2.528,52.854-5.249,53.999,8.909C111.386,210.418,197.962,178.533,163.947,156.715z"/>
</g>
<g id="Layer_6">
	<path fill="#2B3B47" d="M24.456,128.48c0,0,3.43,0.974,6.86,1.949c3.466,0.836,6.95,1.6,6.95,1.6
		c2.719,0.596,4.44,3.283,3.844,6.002c-0.315,1.435-1.211,2.592-2.388,3.277l-4.51,2.602c0,0-1.08,0.623-2.521,0.859
		c-0.703,0.05-1.584,0.346-2.396,0.149c-0.824-0.149-1.76-0.088-2.594-0.422c-0.837-0.325-1.673-0.649-2.458-0.953
		c-0.757-0.412-1.426-0.941-2.018-1.321C19.595,140.55,20.22,127.391,24.456,128.48z"/>
</g>
<g id="Layer_7">
	<path fill="#798891" d="M174.38,90.05c-0.513,0-1.021,0.033-1.53,0.057c-2.198-7.144-6.64-13.303-12.505-17.656l0.002,0
		c-8.586-7.188-24.223-12.58-28.435-13.48c-0.434-0.093-0.783,0.3-0.556,0.623l1.869,2.657c0.338,0.48-0.155,1.071-0.81,0.971
		l-13.122-2.006c-0.398-0.094-0.754,0.23-0.609,0.554l0.463,1.034c0.234,0.521,1.142,2.64,0.603,2.83l-5.87,2.745
		c-12.558,3.129-24.185,19.034-34.73,24.349c-26.94,13.58-17.139,42.273,13.031,42.273h26.774c3.213,0,6.245-0.75,8.959-2.056
		c0.137,0.05,0.277,0.093,0.415,0.141c-4.908,13.434-7.738,29.182-7.738,46.029c0,49.188,24.082,69.457,53.788,69.457
		s53.788-20.268,53.788-69.457C228.168,129.925,204.086,90.05,174.38,90.05z"/>
</g>
</svg>
