<?xml version="1.0" encoding="iso-8859-1"?>
<!-- Generator: Adobe Illustrator 18.1.0, SVG Export Plug-In . SVG Version: 6.00 Build 0)  -->
<!DOCTYPE svg PUBLIC "-//W3C//DTD SVG 1.1//EN" "http://www.w3.org/Graphics/SVG/1.1/DTD/svg11.dtd">
<svg version="1.1" xmlns="http://www.w3.org/2000/svg" xmlns:xlink="http://www.w3.org/1999/xlink" x="0px" y="0px"
	 viewBox="0 0 72 72" enable-background="new 0 0 72 72" xml:space="preserve">
<g id="Layer_4">
	<path fill="#2B3B47" d="M14.051,28.155v2.506v0.001c0,0,0,0.002,0,0.006c0,0.983-0.799,1.781-1.781,1.781
		c-0.983,0-1.781-0.798-1.781-1.781c0-0.004,0-0.007,0-0.007h-0.004v-2.506h0.018c0.082-0.91,0.837-1.629,1.767-1.629
		c0.929,0,1.687,0.719,1.762,1.629H14.051z M34.895,28.155c-0.078-0.91-0.833-1.629-1.766-1.629c-0.93,0-1.685,0.719-1.763,1.629
		h-0.021v2.506h0.008c0,0-0.004,0.003-0.004,0.007c0,0.983,0.798,1.781,1.781,1.781c0.982,0,1.781-0.798,1.781-1.781
		c0-0.004,0-0.006,0-0.006v-0.001v-2.506H34.895z M26.059,41.22c-1.051,0.073-2.172,0.085-3.293,0.103
		c-1.121-0.018-2.242-0.031-3.293-0.105c-1.051-0.054-2.032-0.198-2.873-0.274c-0.709-0.066-1.31-0.194-1.778-0.275
		c-0.022,0.061-0.026,0.128,0.012,0.186l0.142,0.215c0.324,0.49,0.648,0.911,0.973,1.267c0.325,0.367,0.648,0.674,0.973,0.967
		c0.647,0.572,1.296,0.993,1.946,1.35c0.177,0.093,0.354,0.162,0.531,0.241c0.987-0.691,2.141-0.468,3.359-0.318l0.003,0l0.003,0
		c1.217-0.15,2.372-0.373,3.359,0.318c-0.003,0.002-0.007,0.002-0.01,0.004c0.003,0.002,0.006,0.003,0.01,0.005l0.001,0
		c0.175-0.078,0.35-0.145,0.526-0.237c0.648-0.357,1.296-0.778,1.945-1.351c0.324-0.294,0.648-0.602,0.972-0.973
		c0.325-0.355,0.649-0.779,0.973-1.273l0.142-0.217c0.018-0.029,0.03-0.062,0.033-0.099c0.003-0.03-0.015-0.053-0.024-0.08
		c-0.465,0.082-1.059,0.208-1.759,0.272C28.091,41.021,27.11,41.168,26.059,41.22z"/>
</g>
<g id="Layer_1">
</g>
</svg>
