<?xml version="1.0" encoding="utf-8"?>
<!-- Generator: Adobe Illustrator 18.0.0, SVG Export Plug-In . SVG Version: 6.00 Build 0)  -->
<!DOCTYPE svg PUBLIC "-//W3C//DTD SVG 1.1 Tiny//EN" "http://www.w3.org/Graphics/SVG/1.1/DTD/svg11-tiny.dtd">
<svg version="1.1" baseProfile="tiny" id="Layer_1" xmlns="http://www.w3.org/2000/svg" xmlns:xlink="http://www.w3.org/1999/xlink"
	 x="0px" y="0px" width="511.9px" height="511.9px" viewBox="0 0 511.9 511.9" xml:space="preserve">
<path fill="#E5E4DF" d="M256,0C122.2,0,13.7,108.6,13.7,242.5c0,62.2,23.4,118.9,61.8,161.8l-6.2,91.9c-0.1,0.7-0.2,1.5-0.2,2.2
	l0,0.2l0,0c0.1,3.4,1.8,6.7,4.9,8.7c3,2,6.7,2.3,9.9,1.1c0,0,0,0,0,0l0.1-0.1c0.7-0.3,1.4-0.6,2-1l79.4-39.8
	c28,11.3,58.5,17.5,90.6,17.5c133.8,0,242.2-108.6,242.2-242.5S389.7,0,256,0z"/>
<ellipse fill="#2B3B47" cx="284.7" cy="281.3" rx="11" ry="11"/>
<ellipse fill="#2B3B47" cx="326.8" cy="281.3" rx="11" ry="11"/>
<ellipse fill="#2B3B47" cx="368.9" cy="281.3" rx="11" ry="11"/>
<path fill="none" stroke="#2B3B47" stroke-width="22.4447" stroke-linecap="round" stroke-miterlimit="10" d="M89,214.2h332.6
	 M89,281.3h146.7"/>
</svg>
