<?xml version="1.0" encoding="utf-8"?>
<!-- Generator: Adobe Illustrator 18.1.0, SVG Export Plug-In . SVG Version: 6.00 Build 0)  -->
<!DOCTYPE svg PUBLIC "-//W3C//DTD SVG 1.0//EN" "http://www.w3.org/TR/2001/REC-SVG-20010904/DTD/svg10.dtd">
<svg version="1.0" id="Layer_1" xmlns="http://www.w3.org/2000/svg" xmlns:xlink="http://www.w3.org/1999/xlink" x="0px" y="0px"
	 width="72px" height="72px" viewBox="0 0 72 72" enable-background="new 0 0 72 72" xml:space="preserve">
<path fill="#59CAFC" d="M40.8,11.9l1.9,2.4l4.9-6.8c0,0,0.1-0.2,0.1-0.3h-5.1L40.8,11.9z"/>
<path fill="#0096D1" d="M31.4,7.2l-5.1,0c0,0.2,0.3,0.6,0.3,0.6l4.7,6.6l1.9-2.4L31.4,7.2z"/>
<path fill="#00B1FF" d="M34.2,3.6l-2.7-3.4c-0.1-0.1-0.2-0.1-0.3,0l-4.7,6.6c-0.1,0.1,0,0.4,0.1,0.4h4.8L34.2,3.6z"/>
<path fill="#76DFFF" d="M42.5,7.2h4.8c0.2,0,0.2-0.2,0.1-0.4L42.6,0l-2.9,3.6L42.5,7.2z"/>
<polygon fill="#00B1FF" points="37,7.2 40.8,11.9 42.5,7.2 "/>
<polygon fill="#00B1FF" points="31.4,7.2 33.2,11.9 37,7.2 "/>
<polygon fill="#27C7FF" points="34.2,3.6 31.4,7.2 37,7.2 "/>
<polygon fill="#B0E9FF" points="39.8,3.6 37,7.2 42.5,7.2 "/>
<polygon fill="#59CAFC" points="42.6,0 37.2,0 37,0 39.8,3.6 "/>
<path fill="#59CAFC" d="M37,0h-0.2h-5.1c-0.1,0-0.3,0-0.3,0.1l2.8,3.5L37,0z"/>
<polygon fill="#76DFFF" points="37,7.2 39.8,3.6 37,0 34.2,3.6 "/>
<polygon fill="#00B1FF" points="40.8,11.9 39.9,14.3 42.6,14.3 42.6,14.3 "/>
<polygon fill="#0074A8" points="33.2,11.9 31.3,14.3 31.3,14.3 34,14.3 "/>
<polygon fill="#0096D1" points="33.2,11.9 34,14.3 39.9,14.3 40.8,11.9 37,7.2 "/>
<path fill="#D1CFC3" d="M40.3,13.8l2.3-3.6c0.2-0.3,0.1-0.7-0.2-0.9c-0.3-0.2-0.7-0.1-0.9,0.2l-2.2,3.4h-4.5l-2.2-3.4
	c-0.2-0.3-0.6-0.4-0.9-0.2c-0.3,0.2-0.4,0.6-0.2,0.9l2.3,3.6C19.4,15.7,8.3,27.9,8.3,42.6c0,15.9,13,28.9,28.9,28.9
	c15.9,0,28.9-13,28.9-28.9C66.1,27.7,54.8,15.4,40.3,13.8z M37.2,67.5c-13.7,0-24.9-11.2-24.9-24.9s11.2-24.9,24.9-24.9
	s24.9,11.2,24.9,24.9S51,67.5,37.2,67.5z"/>
<path fill="#B0E9FF" d="M52.1,7.3c1.9,0.5,3.4,2,3.9,3.9c0,0.2,0.3,0.2,0.3,0c0.5-1.9,2-3.4,3.9-3.9c0.2,0,0.2-0.3,0-0.3
	c-1.9-0.5-3.4-2-3.9-3.9c0-0.2-0.3-0.2-0.3,0C55.4,5,54,6.5,52.1,7C51.9,7,51.9,7.3,52.1,7.3z"/>
<path fill="#B0E9FF" d="M9.3,12c3.3,0.8,6,3.5,6.8,6.8c0.1,0.3,0.5,0.3,0.6,0c0.8-3.3,3.5-6,6.8-6.8c0.3-0.1,0.3-0.5,0-0.6
	c-3.3-0.8-6-3.5-6.8-6.8c-0.1-0.3-0.5-0.3-0.6,0c-0.8,3.3-3.5,6-6.8,6.8C9,11.5,9,12,9.3,12z"/>
</svg>
