<?xml version="1.0" encoding="iso-8859-1"?>
<!-- Generator: Adobe Illustrator 18.1.0, SVG Export Plug-In . SVG Version: 6.00 Build 0)  -->
<!DOCTYPE svg PUBLIC "-//W3C//DTD SVG 1.1//EN" "http://www.w3.org/Graphics/SVG/1.1/DTD/svg11.dtd">
<svg version="1.1" xmlns="http://www.w3.org/2000/svg" xmlns:xlink="http://www.w3.org/1999/xlink" x="0px" y="0px"
	 viewBox="0 0 512 512" enable-background="new 0 0 512 512" xml:space="preserve">
<g id="Layer_2">
	<path fill="#AF773F" d="M191.216,372.712c51.878-56.326,102.039-218.309-14.63-325.765s-227.993,5.899-98.297,125.353"/>
</g>
<g id="Layer_3">
	<path fill="#D19B61" d="M335.307,46.959c-6.664,6.128-12.778,12.435-18.386,18.89c-19.271-5.848-39.798-9.071-61.103-9.071
		c-111.059,0-201.089,87.282-201.089,180.213c0,12.498,1.631,24.677,4.723,36.397c5.695,21.586,8.35,43.841,8.409,66.166
		c0.001,0.298,0.003,0.597,0.007,0.896c0.589,43.554,36.149,79.14,79.703,79.75c21.301,0.298,40.741-7.645,55.347-20.839
		c16.858,3.837,34.591,5.897,52.901,5.897s36.043-2.06,52.901-5.897c14.605,13.194,34.045,21.137,55.345,20.839
		c43.554-0.609,79.115-36.194,79.704-79.749c0.004-0.3,0.006-0.599,0.007-0.898c0.058-22.325,2.715-44.582,8.409-66.169
		c3.091-11.719,4.722-23.897,4.722-36.394c0-24.339-6.185-48.287-17.297-70.385C559.694,49.427,450.173-58.669,335.307,46.959z"/>
</g>
<g id="Layer_4">
	<path fill="#AF773F" d="M414.23,199.93c5.795-29.53-13.446-58.167-42.976-63.962c-29.53-5.795-58.167,13.446-63.962,42.976
		c0,0.001,0,0.002,0,0.003l-0.001-0.001c-5.863,19.516-2.439,25.752-4.897,44.511c-2.625,20.04-5.982,14.962-10.646,38.726
		c-6.955,35.441,16.137,69.81,51.578,76.765c34.817,6.833,68.579-15.342,76.353-49.726c0.146-0.594,0.286-1.206,0.412-1.852
		C427.266,250.81,407.649,233.463,414.23,199.93z"/>
</g>
<g id="Layer_5">
	<path fill="#FFA1E0" d="M295.789,443.158c0,30.607-17.896,55.419-39.972,55.419s-39.972-24.812-39.972-55.419
		s17.896-55.419,39.972-55.419S295.789,412.551,295.789,443.158z M419.657,135.353l3.014-5.339
		c69.728-64.12,9.969-125.065-52.756-67.386c-6.321,5.812-11.717,11.927-16.309,18.247
		C379.773,94.586,402.348,113.395,419.657,135.353z M89.156,129.933l2.958,5.25c17.332-21.935,39.92-40.72,66.095-54.403
		c-4.576-6.3-9.951-12.395-16.244-18.191C79.286,4.86,19.479,65.758,89.156,129.933z"/>
</g>
<g id="Layer_6">
	<path fill="#EADFD6" d="M367.328,354.672c-7.578-28.283-28.764-48.98-53.673-55.891v-55.806c0-31.943-25.895-57.837-57.837-57.837
		s-57.837,25.895-57.837,57.837v55.806c-24.909,6.911-46.095,27.608-53.673,55.891c-11.052,41.245,11.018,82.994,49.293,93.25
		c20.902,5.601,42.302,0.631,59.233-11.735V387.74h5.969v48.447c16.931,12.366,38.331,17.336,59.233,11.735
		C356.311,437.666,378.38,395.916,367.328,354.672z"/>
</g>
<g id="Layer_7">
	<path fill="#AF773F" d="M190.818,405.257c0-1.976,1.602-3.578,3.578-3.578c1.976,0,3.578,1.602,3.578,3.578
		c0,1.976-1.602,3.578-3.578,3.578C192.42,408.836,190.818,407.234,190.818,405.257z M186.128,369.386
		c1.976,0,3.578-1.602,3.578-3.578c0-1.976-1.602-3.578-3.578-3.578c-1.976,0-3.578,1.602-3.578,3.578
		C182.55,367.784,184.152,369.386,186.128,369.386z M164.239,394.896c1.976,0,3.578-1.602,3.578-3.578
		c0-1.976-1.602-3.578-3.578-3.578c-1.976,0-3.578,1.602-3.578,3.578C160.661,393.294,162.263,394.896,164.239,394.896z
		 M316.882,362.229c-1.976,0-3.578,1.602-3.578,3.578c0,1.976,1.602,3.578,3.578,3.578c1.976,0,3.578-1.602,3.578-3.578
		C320.46,363.831,318.858,362.229,316.882,362.229z M325.15,401.679c-1.976,0-3.578,1.602-3.578,3.578
		c0,1.976,1.602,3.578,3.578,3.578s3.578-1.602,3.578-3.578C328.728,403.281,327.126,401.679,325.15,401.679z M347.039,376.169
		c-1.976,0-3.578,1.602-3.578,3.578c0,1.976,1.602,3.578,3.578,3.578c1.976,0,3.578-1.602,3.578-3.578
		C350.618,377.771,349.016,376.169,347.039,376.169z"/>
</g>
<g id="Layer_8">
	<path fill="#2B3B47" d="M150.118,210.228c14.344,0,25.972,11.628,25.972,25.972v38.659c0,14.344-11.628,25.972-25.972,25.972l0,0
		c-14.344,0-25.972-11.628-25.972-25.972V236.2C124.146,221.856,135.774,210.228,150.118,210.228L150.118,210.228z M361.517,210.228
		c-14.344,0-25.972,11.628-25.972,25.972v38.659c0,14.344,11.628,25.972,25.972,25.972l0,0c14.344,0,25.972-11.628,25.972-25.972
		V236.2C387.489,221.856,375.861,210.228,361.517,210.228L361.517,210.228z M278.117,350.268c0,0-10.988,0.393-21.976,0.555
		c-10.988-0.277-21.975-0.555-21.975-0.555c-4.816-0.094-9.71,1.933-13.011,5.939c-5.734,6.959-4.741,17.248,2.218,22.982
		l10.793,8.893c0,0,2.747,2.263,6.868,4.153c2.06,0.68,4.464,1.745,7.039,2.396c1.537,0.183,3.138,0.374,4.762,0.567v40.989
		c1.01-0.738,2.007-1.498,2.984-2.288c0.977,0.79,1.974,1.55,2.984,2.288v-40.584c1.845-0.169,3.666-0.615,5.408-0.741
		c2.575-0.035,4.979-1.593,7.039-2.282c4.121-1.809,6.868-4.498,6.868-4.498l11.467-11.228c2.987-2.948,4.777-7.091,4.615-11.615
		C293.891,356.663,286.691,349.961,278.117,350.268z"/>
</g>
</svg>
