<?xml version="1.0" encoding="utf-8"?>
<!-- Generator: Adobe Illustrator 18.0.0, SVG Export Plug-In . SVG Version: 6.00 Build 0)  -->
<!DOCTYPE svg PUBLIC "-//W3C//DTD SVG 1.1 Tiny//EN" "http://www.w3.org/Graphics/SVG/1.1/DTD/svg11-tiny.dtd">
<svg version="1.1" baseProfile="tiny" id="Layer_1" xmlns="http://www.w3.org/2000/svg" xmlns:xlink="http://www.w3.org/1999/xlink"
	 x="0px" y="0px" width="511.9px" height="512.3px" viewBox="0 0 511.9 512.3" xml:space="preserve">
<path fill="#EDC0A2" d="M302.4,434.1c-2.1,0-4.2-0.1-6.4-0.2c-27.9-1.7-53.4-14.1-71.9-35c-3.4-3.8-3.1-9.7,0.8-13.1
	c3.8-3.4,9.7-3.1,13.1,0.8c15.2,17.2,36.2,27.4,59.1,28.7c22.9,1.4,45-6.3,62.1-21.5c3.8-3.4,9.7-3.1,13.1,0.8
	c3.4,3.8,3.1,9.7-0.8,13.1C352.3,424.8,328,434.1,302.4,434.1z"/>
</svg>
