<svg xmlns="http://www.w3.org/2000/svg" viewBox="0 0 512 512" enable-background="new 0 0 512 512"><path fill="#2B3B47" d="M16.06 168.262s4.612.64 9.225 1.277c4.634.452 9.278.81 9.278.81 3.625.276 6.338 3.44 6.06 7.064-.147 1.913-1.097 3.572-2.495 4.67l-5.36 4.184s-1.285 1-3.106 1.567c-.9.192-1.986.734-3.072.626-1.093-.043-2.292.206-3.432-.075l-3.35-.788c-1.054-.397-2.016-.96-2.85-1.344-5-1.503-6.575-18.635-.9-17.994zm84.057-16.22c-4.68-.53-8.9 2.836-9.427 7.515l-1.422 12.61c-.528 4.68 2.837 8.9 7.516 9.427 4.68.528 8.9-2.837 9.427-7.516l1.424-12.61c.528-4.68-2.837-8.9-7.516-9.427z"/></svg>