<?xml version="1.0" encoding="iso-8859-1"?>
<!-- Generator: Adobe Illustrator 18.1.1, SVG Export Plug-In . SVG Version: 6.00 Build 0)  -->
<!DOCTYPE svg PUBLIC "-//W3C//DTD SVG 1.1//EN" "http://www.w3.org/Graphics/SVG/1.1/DTD/svg11.dtd">
<svg version="1.1" xmlns="http://www.w3.org/2000/svg" xmlns:xlink="http://www.w3.org/1999/xlink" x="0px" y="0px"
	 viewBox="0 0 512 512" enable-background="new 0 0 512 512" xml:space="preserve">
<g id="Layer_2">
	<path fill="#DCE2E2" d="M433.694,507.594H78.306c-11.929,0-21.6-9.671-21.6-21.6V25.317c0-11.929,9.671-21.6,21.6-21.6h263.026
		l113.961,112.739v369.538C455.294,497.923,445.623,507.594,433.694,507.594z"/>
</g>
<g id="Layer_3">
	<path fill="#96A9B2" d="M292.284,79.728H106.557c-4.365,0-7.904-3.539-7.904-7.904s3.539-7.904,7.904-7.904h185.728
		c4.365,0,7.904,3.539,7.904,7.904S296.649,79.728,292.284,79.728z M271.69,126.218c0-4.365-3.539-7.904-7.904-7.904H106.557
		c-4.365,0-7.904,3.539-7.904,7.904s3.539,7.904,7.904,7.904h157.229C268.151,134.122,271.69,130.583,271.69,126.218z
		 M394.959,180.612c0-4.365-3.539-7.904-7.904-7.904H106.557c-4.365,0-7.904,3.539-7.904,7.904s3.539,7.904,7.904,7.904h280.498
		C391.42,188.516,394.959,184.977,394.959,180.612z M377.356,235.005c0-4.365-3.539-7.904-7.904-7.904H106.557
		c-4.365,0-7.904,3.539-7.904,7.904s3.539,7.904,7.904,7.904h262.896C373.817,242.909,377.356,239.371,377.356,235.005z
		 M271.69,289.399c0-4.365-3.539-7.904-7.904-7.904H106.557c-4.365,0-7.904,3.539-7.904,7.904s3.539,7.904,7.904,7.904h157.229
		C268.151,297.304,271.69,293.765,271.69,289.399z M394.959,343.793c0-4.365-3.539-7.904-7.904-7.904H106.557
		c-4.365,0-7.904,3.539-7.904,7.904s3.539,7.904,7.904,7.904h280.498C391.42,351.697,394.959,348.158,394.959,343.793z
		 M394.959,398.187c0-4.365-3.539-7.904-7.904-7.904H106.557c-4.365,0-7.904,3.539-7.904,7.904s3.539,7.904,7.904,7.904h280.498
		C391.42,406.091,394.959,402.552,394.959,398.187z M394.959,452.58c0-4.365-3.539-7.904-7.904-7.904H106.557
		c-4.365,0-7.904,3.539-7.904,7.904s3.539,7.904,7.904,7.904h280.498C391.42,460.484,394.959,456.945,394.959,452.58z"/>
</g>
<g id="Layer_4">
	<path fill="#B9C5C6" d="M341.333,3.717l112.739,112.739h-88.776c-13.235,0-23.963-10.729-23.963-23.963V3.717z"/>
</g>
<g id="Layer_5">
	<path fill="#B9C5C6" d="M455.072,371.895h-63.22c-4.147,0-8.15-1.52-11.252-4.272l-27.383-24.292
		c-7.605-6.746-7.605-18.623,0-25.369l27.383-24.292c3.102-2.752,7.105-4.272,11.252-4.272h63.22"/>
</g>
<g id="Layer_6">
	<path fill="#FF6E83" d="M470.619,356.562h-98.101c-4.147,0-8.15-1.853-11.252-5.207l-31.151-33.685
		c-5.792-6.264-5.792-16.513,0-22.777l31.151-33.685c3.102-3.355,7.105-5.207,11.252-5.207h98.101
		c9.365,0,16.956,9.254,16.956,20.67v59.223C487.575,347.308,479.983,356.562,470.619,356.562z"/>
</g>
</svg>
