<?xml version="1.0" encoding="utf-8"?>
<!-- Generator: Adobe Illustrator 18.0.0, SVG Export Plug-In . SVG Version: 6.00 Build 0)  -->
<!DOCTYPE svg PUBLIC "-//W3C//DTD SVG 1.1 Tiny//EN" "http://www.w3.org/Graphics/SVG/1.1/DTD/svg11-tiny.dtd">
<svg version="1.1" baseProfile="tiny" id="Layer_1" xmlns="http://www.w3.org/2000/svg" xmlns:xlink="http://www.w3.org/1999/xlink"
	 x="0px" y="0px" width="511.9px" height="511.9px" viewBox="0 0 511.9 511.9" xml:space="preserve">
<path fill="#2C3C47" d="M84.9,335.9c-0.1-0.4-0.2-0.8-0.3-1.2c-2.9-6.5-8.8-10.6-15.4-10.6c-6.6,0-12.5,4.1-15.4,10.6
	c-0.2,0.4-0.3,0.8-0.3,1.2c-0.9,1.9-0.5,4.3,1.2,5.7c0.9,0.8,2.1,1.2,3.2,1.2c1.3,0,2.7-0.6,3.7-1.6c1.9-2.2,4.8-3.5,7.7-3.5
	c0,0,0,0,0,0c3,0,5.8,1.3,7.7,3.5c1.8,2,4.9,2.2,6.9,0.4C85.4,340.2,85.8,337.8,84.9,335.9z"/>
<path fill="#2C3C47" d="M205.4,335.9c-0.1-0.4-0.2-0.8-0.3-1.2c-2.9-6.5-8.8-10.6-15.4-10.6c-6.6,0-12.5,4.1-15.4,10.6
	c-0.2,0.4-0.3,0.8-0.3,1.2c-0.9,1.9-0.5,4.3,1.2,5.7c2,1.8,5.1,1.6,6.9-0.4c1.9-2.2,4.8-3.5,7.7-3.5c0,0,0,0,0,0
	c3,0,5.8,1.3,7.7,3.5c1,1.1,2.3,1.6,3.7,1.6c1.1,0,2.3-0.4,3.2-1.2C205.9,340.2,206.3,337.8,205.4,335.9z"/>
<path fill="#2C3C47" d="M461.4,327.3c-0.1-0.4-0.2-0.8-0.3-1.2c-2.9-6.5-8.8-10.6-15.4-10.6c-6.6,0-12.5,4.1-15.4,10.6
	c-0.2,0.4-0.3,0.8-0.3,1.2c-0.9,1.9-0.5,4.3,1.2,5.7c0.9,0.8,2.1,1.2,3.2,1.2c1.3,0,2.7-0.6,3.7-1.6c1.9-2.2,4.8-3.5,7.7-3.5
	c0,0,0,0,0,0c3,0,5.8,1.3,7.7,3.5c1.8,2,4.9,2.2,6.9,0.4C461.9,331.5,462.3,329.2,461.4,327.3z"/>
<path fill="#2C3C47" d="M340.9,327.3c-0.1-0.4-0.2-0.8-0.3-1.2c-2.9-6.5-8.8-10.6-15.4-10.6c-6.6,0-12.5,4.1-15.4,10.6
	c-0.2,0.4-0.3,0.8-0.3,1.2c-0.9,1.9-0.5,4.3,1.2,5.7c0.9,0.8,2.1,1.2,3.2,1.2c1.3,0,2.7-0.6,3.7-1.6c1.9-2.2,4.8-3.5,7.7-3.5
	c0,0,0,0,0,0c3,0,5.8,1.3,7.7,3.5c1.8,2,4.9,2.2,6.9,0.4C341.4,331.5,341.8,329.2,340.9,327.3z"/>
</svg>
