<?xml version="1.0" encoding="iso-8859-1"?>
<!-- Generator: Adobe Illustrator 18.1.1, SVG Export Plug-In . SVG Version: 6.00 Build 0)  -->
<!DOCTYPE svg PUBLIC "-//W3C//DTD SVG 1.1//EN" "http://www.w3.org/Graphics/SVG/1.1/DTD/svg11.dtd">
<svg version="1.1" xmlns="http://www.w3.org/2000/svg" xmlns:xlink="http://www.w3.org/1999/xlink" x="0px" y="0px"
	 viewBox="0 0 512 512" enable-background="new 0 0 512 512" xml:space="preserve">
<g id="Layer_2">
	<path fill="#B6C7CE" d="M301.232,465.181c0,25.858-20.962,46.819-46.819,46.819s-46.819-20.962-46.819-46.819
		s20.962-46.819,46.819-46.819S301.232,439.323,301.232,465.181z"/>
</g>
<g id="Layer_3">
	<path fill="#FFD469" d="M413.895,215.236C388.047,299.396,305.2,356.909,305.2,441.054H256h-49.2
		c0-84.144-82.847-141.657-108.695-225.818c-3.891-12.366-6.362-25.359-7.239-38.788c-0.02-0.304-0.039-0.608-0.058-0.913
		c-0.078-1.298-0.139-2.6-0.187-3.906c-0.015-0.406-0.034-0.81-0.046-1.217c-0.048-1.631-0.078-3.267-0.078-4.909
		C90.497,74.098,164.595,0,256,0s165.504,74.098,165.504,165.504c0,1.643-0.031,3.278-0.078,4.909
		c-0.012,0.407-0.031,0.811-0.046,1.217c-0.048,1.306-0.109,2.608-0.187,3.906c-0.019,0.305-0.038,0.609-0.058,0.913
		C420.257,189.877,417.786,202.87,413.895,215.236z"/>
</g>
<g id="Layer_4">
	<path fill="#FFB636" d="M305.927,230.261l-38.023,44.617v173.559c0,6.574-5.329,11.903-11.903,11.903
		c-6.574,0-11.903-5.329-11.903-11.903V278.602l-41.198-48.341c-4.264-5.003-3.665-12.516,1.339-16.78
		c5.003-4.263,12.517-3.665,16.78,1.339l33.396,39.185l33.395-39.185c4.265-5.003,11.776-5.603,16.78-1.339
		S310.19,225.257,305.927,230.261z"/>
</g>
<g id="Layer_5">
	<path fill="#597B91" d="M298.921,490.809h-89.016c-5.772,0-10.451-4.679-10.451-10.451v-48.713c0-5.772,4.679-10.451,10.451-10.451
		h89.016c5.772,0,10.451,4.679,10.451,10.451v48.713C309.372,486.13,304.693,490.809,298.921,490.809z"/>
</g>
<g id="Layer_6">
	<path fill="#B6C7CE" d="M199.442,488.626c-4.546,0-8.569-3.267-9.372-7.898c-0.898-5.183,2.575-10.111,7.757-11.009l109.918-19.045
		c5.178-0.89,10.111,2.575,11.009,7.757c0.897,5.183-2.575,10.111-7.757,11.009l-109.919,19.045
		C200.53,488.579,199.982,488.626,199.442,488.626z M201.079,453.481l109.919-19.045c5.182-0.897,8.654-5.826,7.757-11.009
		c-0.897-5.182-5.831-8.647-11.009-7.757l-109.918,19.045c-5.182,0.897-8.655,5.826-7.757,11.009
		c0.803,4.632,4.825,7.898,9.372,7.898C199.982,453.623,200.53,453.576,201.079,453.481z"/>
</g>
</svg>
