<?xml version="1.0" encoding="utf-8"?>
<!-- Generator: Adobe Illustrator 18.0.0, SVG Export Plug-In . SVG Version: 6.00 Build 0)  -->
<!DOCTYPE svg PUBLIC "-//W3C//DTD SVG 1.1 Tiny//EN" "http://www.w3.org/Graphics/SVG/1.1/DTD/svg11-tiny.dtd">
<svg version="1.1" baseProfile="tiny" id="Layer_1" xmlns="http://www.w3.org/2000/svg" xmlns:xlink="http://www.w3.org/1999/xlink"
	 x="0px" y="0px" width="511.9px" height="511.9px" viewBox="0 0 511.9 511.9" xml:space="preserve">
<path fill="#FCD2B6" d="M508.3,341.2c0-13.2-10.7-23.9-24-23.9c-0.3,0-0.5,0-0.8,0c-3.7-12.5-6.5-32.4-17.1-53.4
	c-4.8-9.5-14.3-18.1-25.7-25.6c-4.9-3.2-11-4-16.6-2.3c-24.7,7.8-66.7,20.1-87.8,20.1c-4.9,0-10.3-3.5-13.6-6.9
	c-13.8-14.3-21.9,44.5-32,68.1c-0.6,0-1.2-0.1-1.8-0.1c-13.2,0-24,10.7-24,23.9c0,13.2,10.7,23.9,24,23.9c0.1,0,0.3,0,0.4,0
	c1.8,52.2,44.7,93.9,97.3,93.9c52.6,0,95.5-41.7,97.3-93.9h6.4v-0.8C500.7,361.7,508.3,352.4,508.3,341.2z"/>
</svg>
