<?xml version="1.0" encoding="iso-8859-1"?>
<!-- Generator: Adobe Illustrator 19.1.0, SVG Export Plug-In . SVG Version: 6.00 Build 0)  -->
<!DOCTYPE svg PUBLIC "-//W3C//DTD SVG 1.1//EN" "http://www.w3.org/Graphics/SVG/1.1/DTD/svg11.dtd">
<svg version="1.1" xmlns="http://www.w3.org/2000/svg" xmlns:xlink="http://www.w3.org/1999/xlink" x="0px" y="0px"
	 viewBox="0 0 512 512" enable-background="new 0 0 512 512" xml:space="preserve">
<g id="Layer_7">
	<path fill="#FFD469" d="M429.288,263.482c0.051-0.074,0.104-0.147,0.152-0.222c7.023-10.063-3.722-34.289-25.084-55.651
		c-21.362-21.362-45.587-32.107-55.65-25.085c-0.076,0.049-0.149,0.101-0.223,0.153c-0.091,0.067-0.184,0.13-0.272,0.2
		c-0.248,0.191-0.49,0.393-0.718,0.62l-128.46,128.46c0,0-36.341,89.931-22.648,103.623
		c13.692,13.692,103.623-22.648,103.623-22.648l128.46-128.46c0.227-0.227,0.43-0.469,0.62-0.718
		C429.157,263.667,429.221,263.573,429.288,263.482z"/>
</g>
<g id="Layer_1">
</g>
</svg>
