<?xml version="1.0" encoding="utf-8"?>
<!-- Generator: Adobe Illustrator 18.1.0, SVG Export Plug-In . SVG Version: 6.00 Build 0)  -->
<!DOCTYPE svg PUBLIC "-//W3C//DTD SVG 1.0//EN" "http://www.w3.org/TR/2001/REC-SVG-20010904/DTD/svg10.dtd">
<svg version="1.0" id="Layer_1" xmlns="http://www.w3.org/2000/svg" xmlns:xlink="http://www.w3.org/1999/xlink" x="0px" y="0px"
	 width="72px" height="72px" viewBox="0 0 72 72" enable-background="new 0 0 72 72" xml:space="preserve">
<path fill="#FFD3B6" d="M68,28.1h-35c1.2-1,1.6-1.9,2.9-3.2c6.9-7.2,5-10.7,3.6-12.3c-1.4-1.6-3.9-1.2-5.5,0.4
	C26.2,22,13.5,26.2,12.2,27.4c-1.3,0.8-2.3,2.3-3,3.8H2.9c-1.6,0-2.9,1.3-2.9,2.9v18.6c0,1.6,1.3,2.9,2.9,2.9H11
	c2.3,2.8,5.9,4.6,9.8,4.6h1.5h24.6h0.4c2.2,0,4.1-1.8,4.1-4.1c0-1-0.4-2-1-2.7c0,0,0-0.1-0.1-0.2c-0.8-0.8-0.8-1.6,0-2.4
	c0,0,0,0,0,0c0,0,0,0,0,0c0,0,0,0,0,0c0.7-0.7,1.1-1.7,1.1-2.8c0-1.1-0.4-2-1-2.7c0,0,0-0.1-0.1-0.2c-0.8-0.8-0.8-1.6-0.1-2.4
	c0.7-0.7,1.2-1.8,1.2-2.9c0-1.1-0.4-2-1-2.7c0,0,0-0.1-0.1-0.1c-0.3-0.3-0.5-0.6-0.6-0.9H68c2.2,0,4.1-1.8,4.1-4.1
	C72,29.9,70.2,28.1,68,28.1z"/>
</svg>
