<?xml version="1.0" encoding="iso-8859-1"?>
<!-- Generator: Adobe Illustrator 18.1.1, SVG Export Plug-In . SVG Version: 6.00 Build 0)  -->
<!DOCTYPE svg PUBLIC "-//W3C//DTD SVG 1.1//EN" "http://www.w3.org/Graphics/SVG/1.1/DTD/svg11.dtd">
<svg version="1.1" xmlns="http://www.w3.org/2000/svg" xmlns:xlink="http://www.w3.org/1999/xlink" x="0px" y="0px"
	 viewBox="0 0 512 512" enable-background="new 0 0 512 512" xml:space="preserve">
<g id="Layer_9">
	<path fill="#F9F9F7" d="M203.472,337.459c0,9.192-7.452,16.644-16.644,16.644c-9.192,0-16.644-7.452-16.644-16.644
		c0-9.192,7.452-16.644,16.644-16.644C196.02,320.815,203.472,328.267,203.472,337.459z M236.688,320.815
		c-9.192,0-16.644,7.452-16.644,16.644c0,9.192,7.452,16.644,16.644,16.644c9.192,0,16.644-7.452,16.644-16.644
		C253.332,328.267,245.881,320.815,236.688,320.815z M286.549,320.815c-9.192,0-16.644,7.452-16.644,16.644
		c0,9.192,7.452,16.644,16.644,16.644s16.644-7.452,16.644-16.644C303.193,328.267,295.742,320.815,286.549,320.815z
		 M186.827,373.213c-9.192,0-16.644,7.452-16.644,16.644c0,9.192,7.452,16.644,16.644,16.644c9.192,0,16.644-7.452,16.644-16.644
		C203.472,380.665,196.02,373.213,186.827,373.213z M236.688,373.213c-9.192,0-16.644,7.452-16.644,16.644
		c0,9.192,7.452,16.644,16.644,16.644c9.192,0,16.644-7.452,16.644-16.644C253.332,380.665,245.881,373.213,236.688,373.213z
		 M286.549,373.213c-9.192,0-16.644,7.452-16.644,16.644c0,9.192,7.452,16.644,16.644,16.644s16.644-7.452,16.644-16.644
		C303.193,380.665,295.742,373.213,286.549,373.213z M186.827,425.612c-9.192,0-16.644,7.452-16.644,16.644
		c0,9.192,7.452,16.644,16.644,16.644c9.192,0,16.644-7.452,16.644-16.644C203.472,433.064,196.02,425.612,186.827,425.612z
		 M236.688,425.612c-9.192,0-16.644,7.452-16.644,16.644c0,9.192,7.452,16.644,16.644,16.644c9.192,0,16.644-7.452,16.644-16.644
		C253.332,433.064,245.881,425.612,236.688,425.612z M286.549,425.612c-9.192,0-16.644,7.452-16.644,16.644
		c0,9.192,7.452,16.644,16.644,16.644s16.644-7.452,16.644-16.644C303.193,433.064,295.742,425.612,286.549,425.612z
		 M455.764,269.428v-26.53c0-7.456-6.044-13.5-13.5-13.5h-55.676c-7.456,0-13.5,6.044-13.5,13.5v26.53c0,7.456,6.044,13.5,13.5,13.5
		h55.676C449.719,282.928,455.764,276.884,455.764,269.428z"/>
</g>
<g id="Layer_1">
</g>
</svg>
