<?xml version="1.0" encoding="utf-8"?>
<!-- Generator: Adobe Illustrator 18.1.0, SVG Export Plug-In . SVG Version: 6.00 Build 0)  -->
<!DOCTYPE svg PUBLIC "-//W3C//DTD SVG 1.0//EN" "http://www.w3.org/TR/2001/REC-SVG-20010904/DTD/svg10.dtd">
<svg version="1.0" id="Layer_1" xmlns="http://www.w3.org/2000/svg" xmlns:xlink="http://www.w3.org/1999/xlink" x="0px" y="0px"
	 width="72px" height="72px" viewBox="0 0 72 72" enable-background="new 0 0 72 72" xml:space="preserve">
<path fill="#E5AB83" d="M36,49.6C36,49.6,36,49.6,36,49.6c-1.7,0-3.2-0.8-4.1-2.3c-0.3-0.5-0.2-1.1,0.3-1.4c0.5-0.3,1.1-0.2,1.4,0.3
	c0.5,0.8,1.4,1.3,2.4,1.3c0,0,0,0,0,0c1,0,1.9-0.5,2.4-1.3c0.3-0.5,0.9-0.6,1.4-0.3c0.5,0.3,0.6,0.9,0.3,1.4
	C39.2,48.7,37.7,49.6,36,49.6z M40.7,59.6c0.5-0.4,0.6-1,0.2-1.5c-0.4-0.5-1-0.6-1.5-0.2c-2.1,1.6-4.8,1.6-6.9,0
	c-0.5-0.4-1.1-0.3-1.5,0.2c-0.4,0.5-0.3,1.1,0.2,1.5c1.4,1.1,3.1,1.6,4.8,1.6S39.3,60.7,40.7,59.6z"/>
</svg>
