<?xml version="1.0" encoding="iso-8859-1"?>
<!-- Generator: Adobe Illustrator 18.1.0, SVG Export Plug-In . SVG Version: 6.00 Build 0)  -->
<!DOCTYPE svg PUBLIC "-//W3C//DTD SVG 1.1//EN" "http://www.w3.org/Graphics/SVG/1.1/DTD/svg11.dtd">
<svg version="1.1" xmlns="http://www.w3.org/2000/svg" xmlns:xlink="http://www.w3.org/1999/xlink" x="0px" y="0px"
	 viewBox="0 0 512 512" enable-background="new 0 0 512 512" xml:space="preserve">
<g id="Layer_2">
	<path fill="#AF773F" d="M505.769,339.18c0-79.323-66.074-89.722-67.631-128.426c-0.052-4.03-0.249-8.025-0.56-11.988
		c29.177-13.125,49.505-42.427,49.505-76.495c0-46.314-37.545-83.86-83.86-83.86c-20.089,0-38.522,7.072-52.963,18.851
		C322.761,40.598,290.503,31,255.999,31c-35.799,0-69.181,10.33-97.338,28.167c-14.751-12.913-34.053-20.756-55.197-20.756
		c-46.314,0-83.86,37.545-83.86,83.86c0,36.043,22.743,66.768,54.658,78.626c-0.227,3.404-0.369,6.831-0.406,10.284
		c-1.963,37.891-65.001,48.714-66.53,125.162c-0.72,5.559-1.096,11.227-1.096,16.982c0,72.27,58.586,130.856,130.856,130.856
		c0.336,0,0.686-0.006,1.048-0.016c13.734-0.108,26.959-2.335,39.374-6.366c8.255-1.677,16.951-3.494,25.495-5.206
		c36.02,18.846,75.361,23.353,103.252,4.547c22.013,4.937,46.859,9.13,68.655,7.041c0,0,0,0,0,0h0
		c72.27,0,130.856-58.586,130.856-130.856c0-4.325-0.216-8.6-0.626-12.817C505.55,340.107,505.769,339.666,505.769,339.18z
		 M215.157,470.227c3.247-0.61,6.424-1.185,9.497-1.71C221.584,469.345,218.413,469.92,215.157,470.227z"/>
</g>
<g id="Layer_3">
	<path fill="#D19B61" d="M277.806,304.361c0,0,7.646,9.475,20.474,23.688c6.353,7.106,13.072,15.397,23.922,24.28
		c10.512,8.883,23.621,18.358,30.381,27.833c6.869,9.475,7.806,18.95,8.496,27.833c0.347,8.883-1.352,17.174-4.29,24.28
		c-2.957,7.106-6.92,13.028-10.807,17.174c-3.471,4.145-6.726,6.514-6.726,6.514c-50.847,37.002-118.23,35.043-166.513,0
		c0,0-3.255-2.369-6.726-6.514c-3.888-4.145-7.85-10.067-10.808-17.174c-2.937-7.106-4.636-15.397-4.289-24.28
		c0.69-8.883,1.628-18.358,8.495-27.833c6.759-9.475,19.869-18.95,30.381-27.833c10.851-8.883,17.569-17.174,23.922-24.28
		c12.83-14.212,20.475-23.688,20.475-23.688c9.718-12.043,27.359-13.928,39.402-4.21
		C275.136,301.394,276.601,302.887,277.806,304.361z"/>
</g>
<g id="Layer_4">
	<path fill="#2B3B47" d="M145.578,241.842c15.148,0,27.428,12.28,27.428,27.428v33.716c0,15.148-12.28,27.428-27.428,27.428l0,0
		c-15.148,0-27.428-12.28-27.428-27.428V269.27C118.15,254.122,130.43,241.842,145.578,241.842L145.578,241.842z M366.422,241.842
		c-15.148,0-27.428,12.28-27.428,27.428v33.716c0,15.148,12.28,27.428,27.428,27.428l0,0c15.148,0,27.428-12.28,27.428-27.428
		V269.27C393.85,254.122,381.57,241.842,366.422,241.842L366.422,241.842z M234.534,357.328c0,0-0.722,0.197-2.076,0.566
		c-0.332,0.092-0.702,0.195-1.109,0.309c-0.359,0.113-0.75,0.237-1.173,0.371c-0.822,0.268-1.895,0.575-2.776,0.919
		c-0.94,0.344-1.981,0.726-3.114,1.141c-1.002,0.415-2.124,0.864-3.136,1.344c-1.103,0.48-2.04,0.99-3.106,1.528
		c-0.929,0.538-1.989,1.104-2.831,1.694c-3.72,2.362-6.117,5.117-7.139,8.069c-0.493,1.476-0.52,3.001-0.031,4.551
		c0.461,1.55,1.454,3.124,2.402,4.699c0.963,1.574,1.972,3.149,2.737,4.699c0.408,0.775,0.812,1.544,1.212,2.303
		c0.434,0.76,0.862,1.51,1.283,2.248c0.456,0.738,0.904,1.464,1.343,2.174c0.473,0.71,0.936,1.405,1.386,2.082
		c0.949,1.353,1.891,2.632,2.829,3.813c0.95,1.181,1.836,2.263,2.73,3.223c0.882,0.959,1.629,1.796,2.352,2.485
		c0.675,0.689,1.262,1.23,1.673,1.599c0.395,0.369,0.642,0.566,0.642,0.566c15.658,12.476,38.409,13.002,54.736,0
		c0,0,0.247-0.197,0.642-0.566c0.41-0.369,0.998-0.91,1.673-1.599c0.723-0.689,1.47-1.525,2.352-2.485
		c0.894-0.959,1.78-2.042,2.73-3.223c0.938-1.181,1.88-2.46,2.829-3.813c0.45-0.677,0.913-1.371,1.386-2.082
		c0.439-0.71,0.887-1.436,1.343-2.174c0.421-0.738,0.85-1.488,1.283-2.248c0.4-0.76,0.804-1.528,1.212-2.303
		c0.765-1.55,1.774-3.124,2.737-4.699c0.948-1.574,1.941-3.149,2.402-4.699c0.489-1.55,0.462-3.075-0.031-4.551
		c-1.022-2.952-3.419-5.707-7.139-8.069c-0.843-0.59-1.902-1.156-2.831-1.694c-1.066-0.538-2.004-1.049-3.106-1.528
		c-1.012-0.48-2.134-0.929-3.136-1.344c-1.133-0.415-2.174-0.796-3.114-1.141c-0.881-0.344-1.954-0.652-2.776-0.919
		c-0.423-0.134-0.815-0.258-1.173-0.371c-0.408-0.113-0.778-0.216-1.109-0.309c-1.354-0.369-2.076-0.566-2.076-0.566
		C263.957,353.694,249.004,353.384,234.534,357.328z"/>
</g>
<g id="Layer_5">
	<path fill="#E583C9" d="M60.088,122.271c0-23.956,19.42-43.376,43.376-43.376c8.351,0,16.147,2.365,22.766,6.455
		c-20.32,20.633-35.755,46.084-44.439,74.488C68.822,152.339,60.088,138.329,60.088,122.271z M429.303,156.93
		c10.504-7.916,17.296-20.493,17.296-34.659c0-23.956-19.42-43.376-43.376-43.376c-6.952,0-13.517,1.644-19.341,4.552
		C404.434,103.712,420.19,128.824,429.303,156.93z"/>
</g>
</svg>
