<?xml version="1.0" encoding="iso-8859-1"?>
<!-- Generator: Adobe Illustrator 18.1.1, SVG Export Plug-In . SVG Version: 6.00 Build 0)  -->
<!DOCTYPE svg PUBLIC "-//W3C//DTD SVG 1.1//EN" "http://www.w3.org/Graphics/SVG/1.1/DTD/svg11.dtd">
<svg version="1.1" xmlns="http://www.w3.org/2000/svg" xmlns:xlink="http://www.w3.org/1999/xlink" x="0px" y="0px"
	 viewBox="0 0 512 512" enable-background="new 0 0 512 512" xml:space="preserve">
<g id="Layer_2">
	<path fill="#96A9B2" d="M511.824,425.007c1.941-5.245-220.916-173.519-220.916-173.519c-27.9-20.589-42.574-20.913-70.164,0
		c0,0-222.532,168.138-220.659,173.311l-0.045,0.038c0.023,0.045,0.06,0.076,0.091,0.117c1.903,5.192,4.668,9.973,8.119,14.157
		c1.473,1.786,3.248,3.282,4.955,4.837l-0.083,0.064c0.136,0.121,0.317,0.177,0.453,0.298c7.235,6.454,16.359,10.634,26.495,11.827
		c0.159,0.019,0.287,0.102,0.446,0.121h0.612c1.541,0.147,3.006,0.517,4.584,0.517h420.721c20.717,0,38.269-13.028,45.241-31.291
		c0.083-0.136,0.211-0.234,0.287-0.374L511.824,425.007z"/>
</g>
<g id="Layer_1">
</g>
</svg>
