<?xml version="1.0" encoding="utf-8"?>
<!-- Generator: Adobe Illustrator 18.1.0, SVG Export Plug-In . SVG Version: 6.00 Build 0)  -->
<!DOCTYPE svg PUBLIC "-//W3C//DTD SVG 1.0//EN" "http://www.w3.org/TR/2001/REC-SVG-20010904/DTD/svg10.dtd">
<svg version="1.0" id="Layer_1" xmlns="http://www.w3.org/2000/svg" xmlns:xlink="http://www.w3.org/1999/xlink" x="0px" y="0px"
	 width="72px" height="72px" viewBox="0 0 72 72" enable-background="new 0 0 72 72" xml:space="preserve">
<path fill="#8E6049" d="M3,29c0,0,1.4-3.8,3.4-9.4c1.5-4.1,6.2-6.4,8.7-7.4c0.8-0.3,1.7,0.1,2,1c0.9,2.9,2.1,9.1,9.8,11.9
	c10.2,3.7,12.8-4,13.2-4.9s2.1-2.3,4.5,1.6c2.4,4,2.9,7.3,5.3,12.4c2.4,5.1,1.5,10.3,13.5,14.7c2.2,0.8,9.1,3,6.1,11.1
	c0,0-12.5-1.5-21-4.6s-16.3-8.2-19.3-13.3S3,29,3,29z"/>
<g>
	<path fill="#2B3B47" d="M44.7,30.2c-0.2,0-0.4-0.1-0.5-0.3c-0.1-0.3,0-0.6,0.3-0.7l3-1.3c0.3-0.1,0.6,0,0.7,0.3
		c0.1,0.3,0,0.6-0.3,0.7l-3,1.3C44.9,30.2,44.8,30.2,44.7,30.2z"/>
</g>
<g>
	<path fill="#2B3B47" d="M43.5,27.7c-0.2,0-0.4-0.1-0.5-0.3c-0.1-0.3,0-0.6,0.3-0.7l3-1.3c0.3-0.1,0.6,0,0.7,0.3
		c0.1,0.3,0,0.6-0.3,0.7l-3,1.3C43.7,27.7,43.6,27.7,43.5,27.7z"/>
</g>
<g>
	<path fill="#2B3B47" d="M45.8,32.5c-0.2,0-0.4-0.1-0.5-0.3c-0.1-0.3,0-0.6,0.3-0.7l2.7-1.2c0.3-0.1,0.6,0,0.7,0.3
		c0.1,0.3,0,0.6-0.3,0.7L46,32.5C45.9,32.5,45.8,32.5,45.8,32.5z"/>
</g>
<g>
	<path fill="#2B3B47" d="M46.8,34.8c-0.2,0-0.4-0.1-0.5-0.3c-0.1-0.3,0-0.6,0.3-0.7l2.6-1.1c0.3-0.1,0.6,0,0.7,0.3
		c0.1,0.3,0,0.6-0.3,0.7L47,34.8C46.9,34.8,46.9,34.8,46.8,34.8z"/>
</g>
<path fill="#68442A" d="M39.2,42.5c1.8,0.7,3.7,0.9,5.4,0.8c3.3-0.1,5.9-1.5,7.2-3.6c-0.2-0.5-0.4-1-0.5-1.5c0,0,0,0,0,0
	c-0.8,2.3-3.3,3.7-6.7,3.9c-3.7,0.2-8.3-1.4-9.9-4.8c-3.6-7.7-9-14.7-22.4-8.4c-0.3,0.1-0.4,0.5-0.3,0.7s0.5,0.4,0.7,0.3
	c10-4.7,16.1-2.4,20.9,7.9C34.8,40.2,36.9,41.7,39.2,42.5z"/>
<path fill="#68442A" d="M50.7,55c0.3,0.1,0.6,0,0.7-0.3c1.3-3.6,3.4-7.9,5.2-9.1c-0.4-0.2-0.7-0.4-1.1-0.6c-2.3,2-4.4,7-5.2,9.3
	C50.2,54.5,50.4,54.9,50.7,55z"/>
<path fill="#2B3B47" d="M71.1,58.9c-0.1,0-11.5-1.7-16.6-3.6l-8.7-3.2c-9.3-3.4-11.6-6.3-14.3-9.7c-3.6-4.5-7.7-9.7-27.4-16.9
	l-1.1,3c0,0,0,0,0,0c0,0,0,0,0,0.1l-2.5,6.9c-0.3,0.9,0.1,1.8,0.8,2.1l18.2,6.6c0.8,0.3,1.7-0.2,2-1.1l1.7-4.6c0,0,0,0,0-0.1
	c2.8,2.2,4.3,4.1,5.8,5.9c2.9,3.6,5.6,7,15.7,10.7l8.7,3.2c5.4,2,16.7,3.7,17.2,3.7C71.6,61.4,72,59.5,71.1,58.9z"/>
</svg>
