<?xml version="1.0" encoding="iso-8859-1"?>
<!-- Generator: Adobe Illustrator 18.1.0, SVG Export Plug-In . SVG Version: 6.00 Build 0)  -->
<!DOCTYPE svg PUBLIC "-//W3C//DTD SVG 1.1//EN" "http://www.w3.org/Graphics/SVG/1.1/DTD/svg11.dtd">
<svg version="1.1" xmlns="http://www.w3.org/2000/svg" xmlns:xlink="http://www.w3.org/1999/xlink" x="0px" y="0px"
	 viewBox="0 0 512 512" enable-background="new 0 0 512 512" xml:space="preserve">
<g id="Layer_2">
	<path fill="#FFA1E0" d="M440.978,323.425c3.819-14.914,5.852-30.544,5.852-46.649c0-103.524-83.926-187.46-187.46-187.46
		c-22.642,0-44.346,4.014-64.439,11.37C155.334,47.479,86.815,29.536,77.048,38.428c-13.158,11.98-32.999,74.787-5.471,141.8
		c3.49,8.496,8.713,16.362,15.139,23.411c-9.532,22.473-14.806,47.189-14.806,73.136c0,16.106,2.033,31.735,5.852,46.649
		c-6.345,11.508-9.789,23.817-9.789,36.614c0,63.903,49.429,115.707,191.397,115.707s191.397-51.804,191.397-115.707
		C450.767,347.242,447.323,334.932,440.978,323.425z"/>
</g>
<g id="Layer_3">
	<path fill="#FFC7EF" d="M259.37,299.192c-80.334,0-99.93,33.493-99.93,74.808c0,41.316,19.596,74.808,99.93,74.808
		S359.3,415.316,359.3,374C359.3,332.685,339.705,299.192,259.37,299.192z"/>
</g>
<g id="Layer_4">
	<path fill="#E583C9" d="M228.347,366.537c0,14.532-7.888,26.312-17.617,26.312s-17.617-11.78-17.617-26.312
		s7.888-26.312,17.617-26.312S228.347,352.005,228.347,366.537z M308.011,340.225c-9.73,0-17.617,11.78-17.617,26.312
		s7.888,26.312,17.617,26.312s17.617-11.78,17.617-26.312S317.74,340.225,308.011,340.225z"/>
</g>
<g id="Layer_5">
	<path fill="#2B3B47" d="M376.812,230.085v1.615v38.49v1.615c0,13.985-11.337,25.321-25.321,25.321s-25.321-11.337-25.321-25.321
		v-1.615V231.7v-1.615c0-13.985,11.337-25.321,25.321-25.321S376.812,216.1,376.812,230.085z M167.25,204.763
		c-13.985,0-25.321,11.337-25.321,25.321v1.615v38.49v1.615c0,13.985,11.337,25.321,25.321,25.321s25.321-11.337,25.321-25.321
		v-1.615V231.7v-1.615C192.571,216.1,181.234,204.763,167.25,204.763z M210.73,348.855c-9.73,0-17.617,11.78-17.617,26.312
		s7.888,26.312,17.617,26.312s17.617-11.78,17.617-26.312S220.46,348.855,210.73,348.855z M308.011,348.855
		c-9.73,0-17.617,11.78-17.617,26.312s7.888,26.312,17.617,26.312s17.617-11.78,17.617-26.312S317.74,348.855,308.011,348.855z"/>
</g>
<g id="Layer_6">
	<path fill="#E583C9" d="M93.158,182.158c-20.737-50.48-9.529-93.588,0.383-102.612c6.398-5.825,46.27,3.638,76.174,32.563
		c-31.392,17.129-57.338,42.974-74.602,74.281C94.405,184.999,93.747,183.59,93.158,182.158z M428.959,196.821
		c12.297-13.871,28.025-49.209,38.205-68.102c0,0-30.307-15.857-66.709-46.109c-18.014-14.971-27.164-24.931-63.187,23.616
		C377.5,124.632,410.082,156.854,428.959,196.821z"/>
</g>
<g id="Layer_7">
	<path fill="#FFA1E0" d="M359.3,81.64c71.309-5.37,65.299,64.754,65.628,88.668c0,0,52.798-6.458,53.367-28.893
		S422.704,19.681,359.3,81.64z"/>
</g>
</svg>
