<svg xmlns="http://www.w3.org/2000/svg" viewBox="0 0 512 512" enable-background="new 0 0 512 512"><path fill="#2B3B47" d="M311.277 438.87c-6.35 4.99-14.012 7.543-21.822 7.543-5.455 0-10.982-1.245-16.19-3.775-7.733-3.76-13.666-9.832-17.127-17.11-3.46 7.278-9.394 13.35-17.128 17.11-5.206 2.53-10.735 3.775-16.19 3.775-7.81 0-15.47-2.553-21.822-7.544-1.52-1.196-1.784-3.397-.59-4.916 1.195-1.52 3.397-1.783 4.916-.59 8.663 6.808 20.397 7.947 30.627 2.977 10.248-4.98 16.613-14.925 16.61-25.955 0-.652.19-1.255.5-1.778-.25-.484-.41-1.026-.41-1.61v-26.203c0-1.933 1.57-3.5 3.5-3.5 1.935 0 3.5 1.567 3.5 3.5v26.203c0 .593-.16 1.144-.42 1.633.3.52.488 1.113.488 1.755 0 11.03 6.364 20.976 16.61 25.956 10.23 4.974 21.965 3.83 30.627-2.975 1.518-1.194 3.72-.93 4.914.59 1.193 1.52.93 3.72-.59 4.915zM136.024 310.65c10.078 0 18.93 5.22 24.017 13.102 1.516-3.326 2.366-7.02 2.366-10.912v-59.143c0-14.57-11.81-26.38-26.38-26.38-14.57 0-26.382 11.81-26.382 26.38v59.143c0 3.893.85 7.585 2.364 10.912 5.087-7.88 13.94-13.103 24.017-13.103zm239.126 0c10.078 0 18.93 5.22 24.017 13.102 1.514-3.326 2.364-7.02 2.364-10.912v-59.143c0-14.57-11.81-26.38-26.38-26.38-14.57 0-26.38 11.81-26.38 26.38v59.143c0 3.893.85 7.585 2.364 10.912 5.086-7.88 13.94-13.103 24.017-13.103z"/></svg>