<?xml version="1.0" encoding="iso-8859-1"?>
<!-- Generator: Adobe Illustrator 18.1.0, SVG Export Plug-In . SVG Version: 6.00 Build 0)  -->
<!DOCTYPE svg PUBLIC "-//W3C//DTD SVG 1.1//EN" "http://www.w3.org/Graphics/SVG/1.1/DTD/svg11.dtd">
<svg version="1.1" xmlns="http://www.w3.org/2000/svg" xmlns:xlink="http://www.w3.org/1999/xlink" x="0px" y="0px"
	 viewBox="0 0 512 512" enable-background="new 0 0 512 512" xml:space="preserve">
<g id="Layer_2">
	<path fill="#FFB636" d="M241.365,477.019c-2.675,8.061-10.499,14.484-27.904,22.911c-9.585,4.641-18.697,8.199-19.08,8.349
		c-1.853,0.721-3.76,1.063-5.635,1.063c-6.22,0-12.092-3.761-14.485-9.905c-0.86-2.208-1.163-4.49-1.009-6.706
		c-4.9-1.914-8.712-6.261-9.675-11.823c-1.463-8.457,4.206-16.499,12.663-17.963l28.56-4.943
		c-5.919-19.557-9.768-48.241,0.909-73.544c3.336-7.907,12.452-11.611,20.359-8.276c7.908,3.337,11.613,12.452,8.276,20.36
		c-10.458,24.785,1.312,58.803,5.264,65.259c0.043,0.068,0.074,0.142,0.116,0.211c0.231,0.383,0.449,0.773,0.648,1.178
		C242.521,467.429,242.904,472.382,241.365,477.019z M334.365,462.944l-28.56-4.943c5.919-19.557,9.768-48.241-0.91-73.544
		c-3.337-7.907-12.452-11.614-20.359-8.275c-7.907,3.336-11.612,12.452-8.275,20.359c10.458,24.784-1.312,58.803-5.259,65.251
		c-0.044,0.071-0.077,0.147-0.12,0.219c-0.23,0.382-0.449,0.772-0.647,1.176c-2.15,4.244-2.533,9.196-0.995,13.832
		c2.675,8.061,10.498,14.484,27.904,22.911c9.584,4.641,18.696,8.199,19.079,8.349c1.854,0.722,3.76,1.063,5.635,1.063
		c6.218,0,12.089-3.76,14.482-9.902c0.861-2.208,1.164-4.491,1.01-6.709c4.901-1.914,8.714-6.262,9.677-11.823
		C348.491,472.45,342.822,464.408,334.365,462.944z"/>
</g>
<g id="Layer_3">
	<path fill="#FFD833" d="M436.057,310.593c-20.924-43.034-43.457-93.86-43.457-144.784l-0.461,1.411
		c0.003-0.404,0.015-0.805,0.015-1.209c0-58.928-37.27-111.968-89.523-132.442c-32.33-16.167-71.025-27.568-81.788-29.812
		c-1.307-0.273-2.345,1.085-1.748,2.279l4.077,8.154c0.531,1.062-0.241,2.311-1.428,2.311h-29.298c-0.882,0-1.597,0.715-1.597,1.597
		c0,0,14.88,12.043,6.696,18.491l2.495,0.478c-47.958,22.571-81.419,73.112-81.419,128.944c0,0.412,0.019,0.82,0.022,1.231
		l-0.468-1.433c0,50.924-22.533,101.75-43.457,144.784s0.407,40.138,43.457,25.117c2.05-0.715,3.996-1.542,5.852-2.458
		c13.654,59.945,67.281,104.683,131.361,104.683s117.707-44.738,131.361-104.683c1.855,0.915,3.802,1.742,5.852,2.458
		C435.65,350.73,456.981,353.627,436.057,310.593z"/>
</g>
<g id="Layer_4">
	<path fill="#2B3B47" d="M202.123,147.671v27.094h-0.041c0,0.041,0.041,0.055,0.041,0.076c0,10.64-8.633,19.274-19.274,19.274
		c-10.64,0-19.274-8.633-19.274-19.274c0-0.021,0-0.035,0-0.076h-0.083v-27.094h0.232c0.86-9.87,9.029-17.636,19.124-17.636
		c10.067,0,18.236,7.766,19.083,17.636H202.123z M347.092,147.671c-0.848-9.87-9.016-17.636-19.083-17.636
		c-10.095,0-18.264,7.766-19.124,17.636h-0.232v27.094h0.083c0,0.041,0,0.055,0,0.076c0,10.64,8.633,19.274,19.274,19.274
		c10.64,0,19.274-8.633,19.274-19.274c0-0.021-0.041-0.035-0.041-0.076h0.041v-27.094H347.092z"/>
</g>
<g id="Layer_5">
	<path fill="#FFE576" d="M325.399,333.737c0,38.666-31.345,70.011-70.011,70.011s-70.011-31.345-70.011-70.011
		s31.345-59.334,70.011-59.334S325.399,295.07,325.399,333.737z"/>
</g>
<g id="Layer_6">
	<path fill="#FFB636" d="M216.794,182.101c0-18.49,17.279-26.232,38.593-26.232s38.593,7.742,38.593,26.232
		s-25.589,46.871-38.593,46.871C242.383,228.972,216.794,200.591,216.794,182.101z"/>
</g>
</svg>
