<?xml version="1.0" encoding="utf-8"?>
<!-- Generator: Adobe Illustrator 18.0.0, SVG Export Plug-In . SVG Version: 6.00 Build 0)  -->
<!DOCTYPE svg PUBLIC "-//W3C//DTD SVG 1.1 Tiny//EN" "http://www.w3.org/Graphics/SVG/1.1/DTD/svg11-tiny.dtd">
<svg version="1.1" baseProfile="tiny" id="Layer_1" xmlns="http://www.w3.org/2000/svg" xmlns:xlink="http://www.w3.org/1999/xlink"
	 x="0px" y="0px" width="511.9px" height="511.9px" viewBox="0 0 511.9 511.9" xml:space="preserve">
<path fill="#E4AA82" d="M386.7,381.8C386.7,381.8,386.7,381.8,386.7,381.8c-7.3,0-13.9-3.6-17.7-9.7c-1.3-2-0.7-4.6,1.3-5.9
	c2-1.3,4.6-0.7,5.9,1.3c2.2,3.6,6.2,5.7,10.5,5.7c0,0,0,0,0,0c4.3,0,8.3-2.1,10.5-5.7c1.3-2,3.9-2.6,5.9-1.3c2,1.3,2.6,3.9,1.3,5.9
	C400.6,378.2,394,381.8,386.7,381.8z"/>
<path fill="#E4AA82" d="M461.1,305.9c-1.4,0-2.7-0.8-3.2-2.2c-1.3-3.3-4-5.9-7.3-7.1c-3.3-1.2-7-0.9-10.1,0.7
	c-1.7,0.9-3.8,0.3-4.7-1.4c-0.9-1.7-0.3-3.8,1.4-4.7c4.8-2.6,10.6-3,15.8-1.2c5.2,1.9,9.4,5.9,11.4,11c0.7,1.8-0.2,3.8-2,4.5
	C462,305.8,461.6,305.9,461.1,305.9z"/>
<path fill="#E4AA82" d="M309.6,305.9c-0.4,0-0.9-0.1-1.3-0.2c-1.8-0.7-2.7-2.7-2-4.5c2-5.1,6.2-9.2,11.4-11c5.2-1.9,11-1.5,15.8,1.2
	c1.7,0.9,2.3,3,1.4,4.7c-0.9,1.7-3,2.3-4.7,1.4c-3.1-1.7-6.8-1.9-10.1-0.7c-3.3,1.2-6,3.8-7.3,7.1
	C312.3,305.1,311,305.9,309.6,305.9z"/>
<path fill="#E4AA82" d="M390.1,410.5h-13.6c-1.5,0-2.7-1.2-2.7-2.7c0-1.5,1.2-2.7,2.7-2.7c1.5,0,2.7-1.2,2.7-2.7
	c0-1.5-1.2-2.7-2.7-2.7c-4.5,0-8.1,3.6-8.1,8.1c0,1.6,0.5,3.1,1.3,4.3c-2.6,1.8-4.4,4.7-4.4,8.1c0,5.4,4.4,9.8,9.8,9.8h9.9
	c1.5,0,2.7-1.2,2.7-2.7s-1.2-2.7-2.7-2.7h-9.9c-2.4,0-4.4-2-4.4-4.4c0-2.4,2-4.4,4.4-4.4h1.4h13.6c1.5,0,2.7-1.2,2.7-2.7
	S391.6,410.5,390.1,410.5z"/>
</svg>
