<?xml version="1.0" encoding="utf-8"?>
<!-- Generator: Adobe Illustrator 18.1.0, SVG Export Plug-In . SVG Version: 6.00 Build 0)  -->
<!DOCTYPE svg PUBLIC "-//W3C//DTD SVG 1.0//EN" "http://www.w3.org/TR/2001/REC-SVG-20010904/DTD/svg10.dtd">
<svg version="1.0" id="Layer_1" xmlns="http://www.w3.org/2000/svg" xmlns:xlink="http://www.w3.org/1999/xlink" x="0px" y="0px"
	 width="72px" height="72px" viewBox="0 0 72 72" enable-background="new 0 0 72 72" xml:space="preserve">
<path fill="#FFD3B6" d="M57.2,20.6c-1,0-2,0.4-2.7,1c0,0-0.1,0-0.2,0.1c-0.8,0.8-1.6,0.8-2.4,0c0,0,0,0,0,0c0,0,0,0,0,0c0,0,0,0,0,0
	c-0.7-0.7-1.7-1.1-2.8-1.1c-1.1,0-2,0.4-2.7,1c0,0-0.1,0-0.2,0.1c-0.8,0.8-1.6,0.8-2.4,0.1c-0.7-0.7-1.8-1.2-2.9-1.2
	c-1.1,0-2,0.4-2.7,1c0,0-0.1,0-0.2,0.1c-0.3,0.3-0.6,0.5-0.9,0.6V4c0-2.2-1.8-4.1-4.1-4.1c-2.3,0-4,1.8-4,4.1v35
	c-1-1.2-1.9-1.6-3.2-2.9c-7.2-6.9-10.7-5-12.3-3.6C12,34,12.4,36.5,14,38c7.9,6.8,12.1,17.5,13.8,20.8c0,0,0,0.1,0.1,0.1
	c0.2,0.4,0.4,0.7,0.5,0.8c0,0,0,0,0,0c1,1.4,2.3,2.5,3.8,3.2v6.1c0,1.6,1.3,2.9,2.9,2.9h18.6c1.6,0,2.9-1.3,2.9-2.9V61
	c2.8-2.3,4.6-5.9,4.6-9.8v-1.5V25.1v-0.4C61.3,22.4,59.4,20.6,57.2,20.6z"/>
<path fill="#F2C7AA" d="M48.6,63.9c-0.1,0-0.1,0-0.2,0c0,0-0.1,0-0.1,0H36.1c-1.4,0-2.7-0.3-3.9-0.9v1.3c0,1.2,1,2.2,2.2,2.2h20
	c1.2,0,2.2-1,2.2-2.2V61C54.4,62.8,51.6,63.9,48.6,63.9z"/>
</svg>
