<?xml version="1.0" encoding="utf-8"?>
<!-- Generator: Adobe Illustrator 18.0.0, SVG Export Plug-In . SVG Version: 6.00 Build 0)  -->
<!DOCTYPE svg PUBLIC "-//W3C//DTD SVG 1.1 Tiny//EN" "http://www.w3.org/Graphics/SVG/1.1/DTD/svg11-tiny.dtd">
<svg version="1.1" baseProfile="tiny" id="Layer_1" xmlns="http://www.w3.org/2000/svg" xmlns:xlink="http://www.w3.org/1999/xlink"
	 x="0px" y="0px" width="511.9px" height="511.9px" viewBox="0 0 511.9 511.9" xml:space="preserve">
<path fill="#FFD3B6" d="M488.9,332.1c-2.7-1.2-2.7-4.8,0-6c13.3-6,22.5-19.4,22.5-35c0-15.6-9.2-28.7-22.5-34.6
	c-2.7-1.2-2.7-4.8,0-6c13.3-6,15.5-19.4,15.5-35c0-21.3-15.5-37.9-46.3-37.9h-37.8h-28h-6.9h-8h-38.8h-28c-1.8,0-3.6,0.1-5.3,0.4
	l-0.2-0.4h-59.8c8.9-10.9,17.8-36.7,23.1-53.5c23.6-74.2-0.9-104.4-23.1-112.4c-18.7-6.7-39.4,17.6-45.6,37.6
	C159.2,144.5,127,161,114.7,172.2c-13.1,9-23.7,21.4-30.3,36H27.5C12.3,208.2,0,220.5,0,235.7v174.1c0,15.2,12.3,27.5,27.5,27.5
	h75.8c21.8,26.6,54.9,43.6,92,43.6h244.8l0,0H458c21.1,0,38.3-17.2,38.3-38.5c0-15.6-9.2-28.7-22.5-34.6c-2.1-0.9-2.7-3.9-1.5-5.3
	c0.6-0.2,1.1-0.5,1.7-0.7c18.3-1.4,33.4-15,33.4-35C507.3,351.1,502.1,338,488.9,332.1z"/>
</svg>
