<?xml version="1.0" encoding="utf-8"?>
<!-- Generator: Adobe Illustrator 18.1.0, SVG Export Plug-In . SVG Version: 6.00 Build 0)  -->
<!DOCTYPE svg PUBLIC "-//W3C//DTD SVG 1.0//EN" "http://www.w3.org/TR/2001/REC-SVG-20010904/DTD/svg10.dtd">
<svg version="1.0" id="Layer_1" xmlns="http://www.w3.org/2000/svg" xmlns:xlink="http://www.w3.org/1999/xlink" x="0px" y="0px"
	 width="72px" height="72px" viewBox="0 0 72 72" enable-background="new 0 0 72 72" xml:space="preserve">
<path fill="#FFD3B6" d="M44,29c0,0.1-0.1,0.2-0.2,0.2l-0.1,0.1c0,0,0,0.1-0.1,0.1c-0.1,0.1-0.2,0.3-0.3,0.4c0,0.1-0.1,0.2-0.2,0.3
	c-0.1,0.3-0.3,0.5-0.4,0.9c-0.3,0.7-0.6,1.5-0.9,2.4c-0.3,0.9-0.6,1.9-0.9,2.9c-0.6,2-1.1,4-1.5,5.5c-0.3,1.3-0.5,2.2-0.6,2.5l0.2,2
	c0,0.4-0.3,0.8-0.7,0.8c0,0.2,0,0.5-0.1,0.7c0,0.1,0,0.1-0.1,0.2c0,0.1,0,0.1,0,0.2l0,0c0.1,0.6-0.2,1.1-0.8,1.3
	c-0.6,0.1-1.1-0.2-1.3-0.8l0,0c-0.1-0.4-0.2-0.8-0.2-1.3c0-0.4,0-0.7,0-1.1c0,0,0,0-0.1,0c-0.3-0.1-0.5-0.4-0.5-0.7l0-1.9
	c-0.1-0.2-0.4-1.1-0.8-2.3c-0.5-1.4-1.2-3.3-1.9-5.2c-0.4-0.9-0.8-1.8-1.1-2.7c-0.4-0.8-0.7-1.6-1.1-2.2c-0.2-0.3-0.3-0.5-0.5-0.8
	c-0.1-0.1-0.2-0.2-0.2-0.3c-0.1-0.1-0.3-0.3-0.3-0.4c-0.1-0.1-0.1-0.1-0.1-0.1l-0.1-0.1c-0.8-0.8-0.8-2.2,0.1-3
	c0.8-0.8,2.2-0.8,3,0.1c0.1,0.1,0.1,0.1,0.2,0.2c0,0,0,0.1,0.1,0.1c0.1,0.1,0.2,0.2,0.3,0.4c0.2,0.3,0.4,0.7,0.6,1.1
	c0.1,0.3,0.3,0.7,0.5,1.1c0.3,0.8,0.6,1.7,0.9,2.6c0.3,0.9,0.5,1.9,0.8,2.9c0.5,2,0.9,4,1.2,5.5c0.1,0.3,0.1,0.5,0.2,0.8
	c0-0.1,0-0.2,0-0.3c0.2-1.6,0.4-3.7,0.8-5.8c0.2-1.1,0.3-2.1,0.5-3.1c0.2-1,0.4-1.9,0.6-2.8c0.1-0.4,0.3-0.8,0.4-1.2
	c0.2-0.4,0.4-0.8,0.5-1.2c0.1-0.3,0.2-0.4,0.3-0.5c0.1-0.1,0.1-0.2,0.1-0.2c0.6-1,2-1.4,3-0.8C44.3,26.6,44.6,28,44,29z M16.1,27.3
	c-1.1-0.5-2.3,0-2.8,1c0,0,0,0.1-0.1,0.2c-0.1,0.1-0.1,0.2-0.2,0.5c-0.1,0.3-0.3,0.7-0.4,1.2c-0.1,0.3-0.2,0.7-0.2,1.1
	c-0.1,0.8-0.3,1.7-0.3,2.7c-0.1,1-0.2,2-0.2,3c-0.1,2.1-0.2,4.1-0.2,5.6c0,1.1,0,2,0,2.3c-0.2,0.3-0.4,0.7-0.4,1
	c-0.1,0.5-0.1,0.9-0.1,1.3c0,0.4,0.1,0.8,0.2,1.2c0.1,0.4,0.2,0.8,0.3,1.2l0,0c0.2,0.5,0.8,0.8,1.3,0.6s0.8-0.8,0.6-1.3l0,0
	c-0.1-0.3-0.2-0.6-0.2-0.9c0-0.1,0-0.1,0-0.2c0.1,0,0.2,0,0.2,0c0.4-0.1,0.7-0.5,0.6-0.9l-0.4-1.9c0-0.2,0.2-1.1,0.3-2.4
	c0.2-1.5,0.5-3.5,0.9-5.4c0.2-1,0.4-2,0.6-2.9c0.2-0.9,0.4-1.7,0.6-2.4c0.1-0.3,0.2-0.6,0.3-0.9c0.1-0.1,0.1-0.2,0.2-0.3
	c0.1-0.1,0.2-0.3,0.3-0.4c0.1-0.1,0.1-0.2,0.1-0.2l0.1-0.1c0-0.1,0.1-0.2,0.1-0.2C17.6,29.1,17.2,27.8,16.1,27.3z M29.8,12
	c-0.1,0-0.2,0-0.2,0l0.2-3.6c0-4-3.4-6-7.4-6c-4,0-7,2.1-7,6l0.2,3.6c-0.1,0-0.2,0-0.2,0c-0.9,0-1.7,0.7-1.7,1.7
	c0,0.9,0.7,1.7,1.7,1.7c0.2,0,0.3,0,0.5-0.1c0.1,2.7,1.7,5.1,4.1,6.1V23c0,0.7,1.2,1.3,2.6,1.3s2.6-0.6,2.6-1.3c0-0.1,0-0.1,0-0.2
	v-1.5c2.4-1,4.1-3.3,4.2-6.1c0.1,0,0.3,0.1,0.5,0.1c0.9,0,1.7-0.7,1.7-1.7C31.5,12.8,30.7,12,29.8,12z M58,10.8
	C58,10.8,58,10.8,58,10.8l0-0.2c0-4.2-3.4-7.6-7.6-7.6c-4.2,0-7.6,3.4-7.6,7.6l0,0.2c0,0,0,0,0,0c-0.9,0-1.7,0.7-1.7,1.7
	c0,0.9,0.7,1.7,1.7,1.7c0.1,0,0.3,0,0.4-0.1l0.1,0.5c0,3,1.9,5.6,4.6,6.7V23c0,0.7,1.2,1.3,2.6,1.3S53,23.8,53,23c0-0.1,0-0.1,0-0.2
	v-1.6c2.7-1,4.6-3.6,4.6-6.7l0.1-0.5c0.1,0,0.3,0.1,0.4,0.1c0.9,0,1.7-0.7,1.7-1.7C59.7,11.5,58.9,10.8,58,10.8z M62.9,46.1
	c-0.1-0.4-0.2-0.7-0.5-1.1c0-0.4,0-1.3,0-2.4c0-1.6-0.1-3.7-0.2-5.9c-0.1-1.1-0.1-2.1-0.2-3.2c-0.1-1-0.2-2-0.4-2.8
	c-0.1-0.4-0.2-0.8-0.2-1.2c-0.1-0.5-0.3-0.9-0.4-1.2c-0.1-0.3-0.2-0.4-0.2-0.5c-0.1-0.1-0.1-0.2-0.1-0.2c0-0.1-0.1-0.2-0.1-0.3
	c-0.7-1-2-1.3-3-0.7c-1,0.7-1.3,2-0.7,3l0,0.1c0,0,0,0.1,0.1,0.2c0.1,0.1,0.2,0.3,0.3,0.4c0,0.1,0.1,0.2,0.2,0.4
	c0.1,0.3,0.2,0.6,0.3,0.9c0.2,0.7,0.4,1.5,0.7,2.5c0.2,0.9,0.4,1.9,0.6,3c0.4,2,0.7,4.1,0.9,5.7c0.2,1.3,0.3,2.3,0.3,2.5L60,47.3
	c-0.1,0.3,0.1,0.7,0.4,0.8c0.1,0.1,0.3,0.1,0.4,0.1c0,0.1,0,0.1,0,0.2c-0.1,0.3-0.2,0.7-0.3,0.9l0,0l0,0c-0.2,0.5,0.1,1.1,0.6,1.3
	c0.5,0.2,1.1-0.1,1.3-0.6c0.2-0.4,0.2-0.8,0.3-1.2C63,48.4,63,48,63,47.5C63,47.1,63,46.6,62.9,46.1z"/>
</svg>
