<?xml version="1.0" encoding="iso-8859-1"?>
<!-- Generator: Adobe Illustrator 19.1.0, SVG Export Plug-In . SVG Version: 6.00 Build 0)  -->
<!DOCTYPE svg PUBLIC "-//W3C//DTD SVG 1.1//EN" "http://www.w3.org/Graphics/SVG/1.1/DTD/svg11.dtd">
<svg version="1.1" xmlns="http://www.w3.org/2000/svg" xmlns:xlink="http://www.w3.org/1999/xlink" x="0px" y="0px"
	 viewBox="0 0 512 512" enable-background="new 0 0 512 512" xml:space="preserve">
<g id="Layer_2">
	<path fill="#FFD469" d="M391.765,115.993l75.102-74.385c3.189-3.158,8.463-2.639,10.975,1.08l17.325,25.649
		c2.386,3.533,1.177,8.355-2.594,10.344l-92.427,48.736c-3.233,1.704-7.23,0.702-9.275-2.326v0
		C388.942,122.237,389.318,118.416,391.765,115.993z M404.185,179.872L404.185,179.872c0.583,2.849,3.217,4.802,6.113,4.531
		l82.782-7.728c3.378-0.315,5.734-3.493,5.053-6.817l-4.939-24.129c-0.716-3.498-4.436-5.484-7.741-4.131l-77.843,31.856
		C405.074,174.493,403.635,177.188,404.185,179.872z M342.376,92.028L342.376,92.028c2.427,1.602,5.67,1.12,7.526-1.118l53.071-64
		c2.165-2.611,1.584-6.525-1.247-8.394L381.173,4.947c-2.98-1.967-7.015-0.741-8.395,2.553L340.26,85.069
		C339.201,87.596,340.089,90.519,342.376,92.028z"/>
</g>
<g id="Layer_1">
</g>
</svg>
