<?xml version="1.0" encoding="iso-8859-1"?>
<!-- Generator: Adobe Illustrator 18.1.1, SVG Export Plug-In . SVG Version: 6.00 Build 0)  -->
<!DOCTYPE svg PUBLIC "-//W3C//DTD SVG 1.1//EN" "http://www.w3.org/Graphics/SVG/1.1/DTD/svg11.dtd">
<svg version="1.1" xmlns="http://www.w3.org/2000/svg" xmlns:xlink="http://www.w3.org/1999/xlink" x="0px" y="0px"
	 viewBox="0 0 512 512" enable-background="new 0 0 512 512" xml:space="preserve">
<g id="Layer_2">
	<path fill="#D19B61" d="M402.634,505.687H109.366c-19.882,0-36-16.118-36-36V93.822c0-19.882,16.118-36,36-36h293.267
		c19.882,0,36,16.118,36,36v375.864C438.634,489.569,422.516,505.687,402.634,505.687z"/>
</g>
<g id="Layer_3">
	<path fill="#F9F9F7" d="M386.152,463.673H125.848c-7.953,0-14.4-6.447-14.4-14.4V102.306c0-7.953,6.447-14.4,14.4-14.4h260.305
		c7.953,0,14.4,6.447,14.4,14.4v346.967C400.552,457.226,394.105,463.673,386.152,463.673z"/>
</g>
<g id="Layer_4">
	<path fill="#A9B8C2" d="M340.027,200.306H153.508c-4.292,0-7.772-3.479-7.772-7.772s3.479-7.772,7.772-7.772h186.519
		c4.292,0,7.772,3.479,7.772,7.772S344.319,200.306,340.027,200.306z M263.772,236.371c0-4.292-3.48-7.772-7.772-7.772H153.508
		c-4.292,0-7.772,3.479-7.772,7.772s3.479,7.772,7.772,7.772H256C260.292,244.143,263.772,240.664,263.772,236.371z
		 M263.772,148.355c0-4.292-3.48-7.772-7.772-7.772H153.508c-4.292,0-7.772,3.479-7.772,7.772s3.479,7.772,7.772,7.772H256
		C260.292,156.127,263.772,152.647,263.772,148.355z M347.8,280.208c0-4.292-3.48-7.772-7.772-7.772H153.508
		c-4.292,0-7.772,3.48-7.772,7.772s3.479,7.772,7.772,7.772h186.519C344.319,287.98,347.8,284.5,347.8,280.208z M291.844,324.046
		c0-4.292-3.48-7.772-7.772-7.772H153.508c-4.292,0-7.772,3.48-7.772,7.772s3.479,7.772,7.772,7.772h130.563
		C288.363,331.818,291.844,328.338,291.844,324.046z M347.8,367.883c0-4.292-3.48-7.772-7.772-7.772H153.508
		c-4.292,0-7.772,3.48-7.772,7.772s3.479,7.772,7.772,7.772h186.519C344.319,375.655,347.8,372.175,347.8,367.883z M226.562,411.72
		c0-4.292-3.479-7.772-7.772-7.772h-65.282c-4.292,0-7.772,3.48-7.772,7.772s3.479,7.772,7.772,7.772h65.282
		C223.083,419.492,226.562,416.012,226.562,411.72z"/>
</g>
<g id="Layer_5">
	<path fill="#B9C5C6" d="M307.042,35.654h-15.388C291.654,15.963,275.691,0,256,0s-35.654,15.963-35.654,35.654h-15.388
		c-19.882,0-36,16.118-36,36v36.98c0,3.976,3.224,7.2,7.2,7.2h159.685c3.976,0,7.2-3.224,7.2-7.2v-36.98
		C343.042,51.772,326.925,35.654,307.042,35.654z"/>
</g>
<g id="Layer_6">
	<circle fill="#2B3B47" cx="256" cy="35.654" r="23.41"/>
</g>
</svg>
