<?xml version="1.0" encoding="iso-8859-1"?>
<!-- Generator: Adobe Illustrator 19.1.0, SVG Export Plug-In . SVG Version: 6.00 Build 0)  -->
<!DOCTYPE svg PUBLIC "-//W3C//DTD SVG 1.1//EN" "http://www.w3.org/Graphics/SVG/1.1/DTD/svg11.dtd">
<svg version="1.1" xmlns="http://www.w3.org/2000/svg" xmlns:xlink="http://www.w3.org/1999/xlink" x="0px" y="0px"
	 viewBox="0 0 512 512" enable-background="new 0 0 512 512" xml:space="preserve">
<g id="Layer_2">
	<path fill="#ACBBBA" d="M505.887,488.278c-9.28-65.128-20.39-203.79-28.585-247.723c-8.713-46.767-22.748-117.157-68.53-117.695
		c-42.133-4.366-60.014-16.837-68.416-28.833c-0.421-17.254-7.706-22.479-10.484-25.081c-0.909-1.104-2.108-1.597-3.893-1.307
		c-14.313,2.328-35.011,5.73-37.876,5.988c-17.665,1.611-11.816-6.544-19.286-24.797c-3.362-8.186-16.75-9.508-32.207-8.424
		c-23.821,1.671-62.532,5.818-98.03,9.876c-1.114,0.13-2.029-0.824-1.91-1.939c1.164-10.086-4.605-17.337-20.012-20.42
		C89.505,22.492,32.175,13.889,12.143,10.925c-3.551-0.527-6.594,2.506-6.087,6.046C8.9,37.084,17.215,94.762,22.646,121.925
		c3.202,16.015,10.911,21.614,21.613,19.854c0.676-0.109,1.283,0.427,1.193,1.113c-4.297,35.867-8.663,75.065-10.344,99.026
		c-2.039,29.092,9.32,42.649,33.758,36.513c-4.914,37.546-9.23,73.214-11.448,98.109c-2.347,26.438,2.675,44.381,14.989,52.497
		c1.85,1.223,3.829,2.257,5.808,3.253c1.622,0.815,4.217,2.048,7.579,3.581c58.683,26.825,124.736,31.619,187.239,15.625
		c25.96-6.644,55.948-7.27,81.421,10.912C394.389,490.894,510.115,517.879,505.887,488.278z"/>
</g>
<g id="Layer_3">
	<path fill="#819A97" d="M63.364,196.233c56.813-59.926,72.498-95.872,75.662-132.256c0.318-3.74,5.739-4.087,6.515-0.418
		c3.611,16.919,4.297,44.61-15.646,75.821c-19.405,30.356-44.818,50.538-62.353,61.956
		C64.239,203.484,60.649,199.099,63.364,196.233 M123.988,304.183c-2.616,2.686,0.845,6.883,3.928,4.755
		c27.054-18.728,72.797-54.963,110.523-107.589c40.044-55.848,40.452-99.552,36.99-120.986c-0.547-3.402-5.47-3.442-6.097-0.05
		C258.661,138.09,230.413,194.774,123.988,304.183"/>
</g>
<g id="Layer_4">
	<path fill="#819A97" d="M424.665,449.611c-46.241-21.006-144.958-58.762-80.039-123.691c33.231-33.22,44.291-42.969,52.785-78.706
		c10.941-46.031,65.746,0.925,57.41,57.411c-8.335,56.485-0.626,71.594,0.925,106.494
		C457.308,446.011,472.426,471.314,424.665,449.611"/>
</g>
<g id="Layer_5">
	<path fill="#6F7F7D" d="M425.359,282.598c20.917,24.151,9.2,43.814,25.651,68.183c-0.02-12.145,0.945-26.686,3.819-46.161
		c8.335-56.486-46.479-103.432-57.42-57.411c-5.997,25.254-13.288,37.538-28.774,54.287
		C373.559,301.437,400.453,253.844,425.359,282.598"/>
</g>
</svg>
