<?xml version="1.0" encoding="utf-8"?>
<!-- Generator: Adobe Illustrator 18.0.0, SVG Export Plug-In . SVG Version: 6.00 Build 0)  -->
<!DOCTYPE svg PUBLIC "-//W3C//DTD SVG 1.1 Tiny//EN" "http://www.w3.org/Graphics/SVG/1.1/DTD/svg11-tiny.dtd">
<svg version="1.1" baseProfile="tiny" id="Layer_1" xmlns="http://www.w3.org/2000/svg" xmlns:xlink="http://www.w3.org/1999/xlink"
	 x="0px" y="0px" width="511.9px" height="511.9px" viewBox="0 0 511.9 511.9" xml:space="preserve">
<path fill="#D1CFC3" d="M136.5,293.4h-33.9c-10.9,0-19.7,8.8-19.7,19.7v13.7c0,10.9,8.8,19.7,19.7,19.7h33.9
	c10.9,0,19.7-8.8,19.7-19.7v-13.7C156.2,302.2,147.3,293.4,136.5,293.4z M146.1,326.8c0,5.3-4.3,9.6-9.6,9.6h-11.9v-10.5
	c0-2.8-2.3-5.1-5.1-5.1s-5.1,2.3-5.1,5.1v10.5h-11.9c-5.3,0-9.6-4.3-9.6-9.6v-13.7c0-5.3,4.3-9.6,9.6-9.6h33.9
	c5.3,0,9.6,4.3,9.6,9.6V326.8z"/>
<path fill="#D1CFC3" d="M361.7,293.4h-33.9c-10.9,0-19.7,8.8-19.7,19.7v13.7c0,10.9,8.8,19.7,19.7,19.7h33.9
	c10.9,0,19.7-8.8,19.7-19.7v-13.7C381.4,302.2,372.6,293.4,361.7,293.4z M371.3,326.8c0,5.3-4.3,9.6-9.6,9.6h-11.9v-10.5
	c0-2.8-2.3-5.1-5.1-5.1s-5.1,2.3-5.1,5.1v10.5h-11.9c-5.3,0-9.6-4.3-9.6-9.6v-13.7c0-5.3,4.3-9.6,9.6-9.6h33.9
	c5.3,0,9.6,4.3,9.6,9.6V326.8z"/>
</svg>
