<?xml version="1.0" encoding="utf-8"?>
<!-- Generator: Adobe Illustrator 18.1.0, SVG Export Plug-In . SVG Version: 6.00 Build 0)  -->
<!DOCTYPE svg PUBLIC "-//W3C//DTD SVG 1.0//EN" "http://www.w3.org/TR/2001/REC-SVG-20010904/DTD/svg10.dtd">
<svg version="1.0" id="Layer_1" xmlns="http://www.w3.org/2000/svg" xmlns:xlink="http://www.w3.org/1999/xlink" x="0px" y="0px"
	 width="72px" height="72px" viewBox="0 0 72 72" enable-background="new 0 0 72 72" xml:space="preserve">
<path fill="#FFD3B6" d="M36.6,43c-0.4,0-1.8,0-3.6,0.3c-3.6,0.5-4.9-0.9-7.1,0c-5.3,2.1-12.3,0.6-12.3,0.6l0,0
	c-0.4-0.1-0.8-0.5-0.8-1c0-0.6,0.4-1.2,1.1-1.2L36,35.3L36.6,43z M50.9,54.8c-0.7-2.3,0.7-3.4,0.4-7.1c-0.1-1.8,0-3.2,0-3.6
	l-7.7,0.2l5.9,22.1l0,0c0,0.6,0.5,1,1,1c0.6,0,1-0.5,1-1c0,0,0,0,0,0C51.4,66.3,52.6,60.1,50.9,54.8z M59.1,26.1L59,26l-3.8-2.9
	l-1.9-1.5l-1.9-1.4c-0.1,0-0.1-0.1-0.2-0.1c-0.4-0.2-0.9-0.3-1.4-0.2c-0.8-0.2-1.7-0.4-2.7-0.5V17c0-0.1,0-0.2,0-0.4
	c1.3-0.6,2.3-1.8,2.6-3.3c0.1,0.1,0.2,0.1,0.3,0.1c0.6,0.1,1.3-0.3,1.4-0.9c0.1-0.6-0.3-1.3-0.9-1.4c-0.1,0-0.1,0-0.2,0l0.7-2.5
	c0.6-2.8-1.6-4.8-4.4-5.3c-2.8-0.6-5.2,0.4-5.8,3.2l-0.6,4.7c-0.5,2.3,0.8,4.6,2.8,5.4c0,0.1,0,0.2,0,0.3v2.4
	c-1.8,0.2-3.2,0.6-4,1.1c-0.5,0-1.2-0.1-2.1-0.2c-0.9-0.1-1.9-0.2-3-0.4c-0.5-0.1-1.1-0.2-1.5-0.3l0,0l0,0l0,0c0.1,0,0.1,0,0.1,0.1
	l0,0l-0.1-0.1c0,0,0,0,0,0l0,0l0,0c0,0-0.1,0-0.1-0.1c-0.1-0.1-0.3-0.3-0.5-0.5C31,18.1,30.4,17,29.9,16c-0.5-1-0.9-2-1.3-2.8
	c-0.5-1.3-0.9-2.2-1.1-2.6c0-0.1,0-0.2,0.1-0.3c0-0.2,0-0.4,0-0.6c0-0.4,0-0.8-0.1-1.1c-0.1-0.7-0.2-1.4-0.4-2.1l0,0
	c-0.1-0.5-0.7-0.9-1.2-0.8c-0.5,0.1-0.9,0.7-0.8,1.2l0,0c0.1,0.6,0.3,1.3,0.3,1.9c0,0,0,0.1,0,0.1l-0.2-0.1
	c-0.3-0.2-0.6-0.2-0.9,0.1c-0.3,0.3-0.3,0.7-0.1,1l1.2,1.4c0.1,0.4,0.4,1.4,0.8,2.8c0.3,0.9,0.6,1.9,1.1,3c0.4,1.1,0.9,2.3,1.6,3.5
	c0.2,0.3,0.4,0.6,0.7,0.9c0.1,0.1,0.1,0.2,0.2,0.2l0.1,0.1l0.2,0.2c0.1,0.1,0.3,0.2,0.3,0.2l0.1,0.1l0,0l0.1,0.1l0.1,0
	c0.7,0.4,1.3,0.6,1.9,0.8c1.2,0.4,2.3,0.6,3.2,0.9c1.8,0.4,3.1,0.7,3.1,0.7l0,0c0.1,0,0.2,0,0.3,0c0.4,0,0.8-0.1,1.2-0.3
	c1.1,0.3,2.5,0.4,4.1,0.4c1.9,0,3.6-0.2,5-0.6l1.4,0.8l2,1.1l2.5,1.4l-3.5,3.9c0,0,0,0,0,0l-1.6,1.2c-0.3,0.2-0.4,0.6-0.3,0.9
	c0.2,0.4,0.6,0.6,1,0.4l0.2-0.1c0,0.1-0.1,0.2-0.1,0.4c-0.1,0.4-0.1,0.8-0.2,1.1c0,0.4-0.1,0.8-0.1,1.1l0,0
	c-0.1,0.6,0.4,1.1,0.9,1.1c0.6,0.1,1.1-0.4,1.1-0.9c0-0.4,0.1-0.7,0.1-1.1c0-0.4,0.1-0.7,0.2-1.1c0.1-0.6,0.2-1.2,0.4-1.8l5.4-4.5
	c0.1-0.1,0.2-0.2,0.2-0.2C59.9,27.5,59.8,26.6,59.1,26.1z"/>
<path fill="#2B3B47" d="M42.1,9.8c0-0.3-0.2-0.5-0.5-0.6c-0.3,0-0.5,0.1-0.6,0.4l0,0l-0.1,0.8l0,0c0,0,0,0,0,0
	c0,0.3,0.2,0.6,0.5,0.6c0.3,0,0.6-0.2,0.6-0.5c0,0,0,0,0,0l0,0L42.1,9.8L42.1,9.8z"/>
<path fill="#2B3B47" d="M47.5,10.7c0-0.3-0.2-0.5-0.5-0.6c-0.3,0-0.5,0.1-0.6,0.4l0,0l-0.1,0.8l0,0c0,0,0,0,0,0
	c0,0.3,0.2,0.6,0.5,0.6c0.3,0,0.6-0.2,0.6-0.5c0,0,0,0,0,0l0,0L47.5,10.7L47.5,10.7z"/>
<path fill="#959DA3" d="M41.5,9.6c0-0.1,0-0.1-0.1-0.1c-0.1,0-0.1,0-0.1,0.1l0,0l0,0.2l0,0l0,0c0,0.1,0,0.1,0.1,0.1
	c0.1,0,0.1,0,0.1-0.1l0,0l0,0L41.5,9.6L41.5,9.6z"/>
<path fill="#959DA3" d="M46.9,10.6c0-0.1,0-0.1-0.1-0.1c-0.1,0-0.1,0-0.1,0.1l0,0l0,0.2l0,0l0,0c0,0.1,0,0.1,0.1,0.1
	c0.1,0,0.1,0,0.1-0.1l0,0l0,0L46.9,10.6L46.9,10.6z"/>
<path fill="#EDC0A2" d="M43.5,16.5c-1.1-0.2-2-0.8-2.8-1.5c0.7,1,1.8,1.8,3.1,2.1c2.6,0.5,5.2-1.2,5.7-3.8l0.1-0.2
	C48.8,15.5,46.2,17,43.5,16.5z"/>
<path fill="#FF473E" d="M45.2,14.6c0,0-0.7,0.8-1.8,0.6c-1.1-0.2-1.5-1.1-1.5-1.1s0.2,0,0.5,0s0.6-0.2,0.8-0.2
	c0.2,0,0.3,0.2,0.4,0.2c0,0,0.2-0.1,0.4-0.1c0.3,0.1,0.5,0.3,0.8,0.4C45,14.6,45.2,14.6,45.2,14.6z M13.6,43.8L13.6,43.8
	c-0.4-0.2-0.8-0.5-0.8-1c0-0.6,0.4-1.2,1.1-1.2l0.9-0.2c-0.2-0.1-0.4-0.2-0.7-0.2c0,0-0.2,0-0.5,0c-0.3,0-4,0.4-4,0.4
	c-0.6,0.1-1.2,0.6-1.5,1.4c-0.3,1,0.2,1.9,1,2.2c0,0,0.4,0.1,0.9,0.2c0.3,0.1,2.3-0.1,2.7,0c0.3,0.1,0.5,0.1,0.5,0.1l0,0
	c0.1,0,0.1,0,0.2,0c0.8,0,1.6-0.5,1.9-1.2C14.3,44,13.6,43.8,13.6,43.8z M52.4,69.3c0-0.1,0-0.2,0-0.2l0,0c0,0-0.1-0.2-0.1-0.5
	c-0.1-0.3,0-1.4-0.1-1.7c-0.1-0.6-0.2-0.9-0.2-0.9c-0.1-0.2-0.2-0.4-0.3-0.5c-0.1,0.6-0.1,1-0.1,1c0,0,0,0,0,0c0,0.6-0.4,1-1,1
	c-0.6,0-1-0.4-1-1l0,0l-0.3-1.1c-0.4,0.3-0.7,0.8-0.7,1.2c0,0-0.2,2.7-0.2,3c0,0.3,0.1,0.5,0.1,0.5c0.1,1.1,1.2,1.7,2.3,1.5
	C51.7,71.4,52.6,70.3,52.4,69.3z M53.1,36.2c0,0.2,0,0.4-0.1,0.6c-0.1,0.6-0.6,1-1.1,0.9c-0.6-0.1-1-0.6-0.9-1.1l0,0
	c0-0.4,0.1-0.8,0.1-1.1c0.1-0.4,0.1-0.8,0.2-1.1c0-0.1,0-0.2,0.1-0.3c0,0,0,0,0,0L51.2,34c-0.4,0.2-0.8,0-1-0.4
	c-0.1-0.3,0-0.6,0.1-0.8c-0.1-0.1-0.2-0.2-0.2-0.2c-0.2-0.3-0.3-1.4-0.3-1.8c0.1-1.1,0.4-2.6,0.9-4c0.1-0.1,0.1-0.3,0.2-0.4
	c0,0,0-0.1,0-0.1c0-0.1,0.1-0.2,0.1-0.3c0-0.3,0.1-0.5,0.1-0.8c0-0.7-0.5-1.5-1-2v-2.9c0-0.4-0.3-0.8-0.8-0.8s-0.8,0.3-0.8,0.8v2.2
	c-1.6,0-5.9,0-7.7,0l-0.2-2.2c0-0.4-0.4-0.7-0.8-0.7c-0.4,0-0.7,0.4-0.7,0.8l0.2,2.7c-0.6,0.6-1.2,1.4-1.2,2.2
	c0,0.8,0.2,1.4,0.4,1.9c0.4,1.4,0.7,2.8,0.8,3.8c0,0.3,0,1.4-0.2,1.7c0,0,0,0.1-0.1,0.1c-6.4,4.3-14.3,0.2-13.9,4
	c0.4,3.2,2.3,3.7,6.2,5.8c5.2,2.8,0,8.8,6.7,9.1c6.7,0.3,3.7-5.2,8.7-4.2c5.1,1.1,7,6.2,11,2.3C60.8,47.3,56.4,40.5,53.1,36.2z"/>
<path fill="#68442A" d="M54.5,17.6c-1-3.3-0.7-7-2.8-11.7c-0.1-0.3-0.2-0.5-0.4-0.8c0,0,0-0.1-0.1-0.1c0,0,0-0.1-0.1-0.1
	c-0.5-0.8-1.1-1.5-1.8-2c-0.3-0.2-1.4-0.7-1.7-0.8c-0.3-0.1-0.9-0.2-0.9-0.2c0,0,0,0,0,0l0,0c-0.3-0.1-0.7-0.1-1-0.1
	c-0.3,0-1.6,0.2-1.9,0.3c-2.1,0.7-3.9,2.8-4.2,4.4c0,0.1-0.1,0.2-0.1,0.3c-1,6.7,0.7,11.5,0.7,11.5c0.4,0.4,1.5,0.6,2.5,0.4V17
	c0-0.1,0-0.2,0-0.3c-2.1-0.9-3.3-3.1-2.8-5.4l0.4-2.7c1.9,0,6.3-0.4,6.6-2.4c0,0,1.3,5.3,3.6,5.3c0.1,0,0.1,0,0.2,0
	c0.3,0.3,0.5,0.7,0.4,1.1c-0.1,0.6-0.8,1.1-1.4,0.9c-0.1,0-0.2-0.1-0.3-0.1c-0.3,1.5-1.3,2.7-2.6,3.3c0,0.1,0,0.2,0,0.4v1.6
	C50.2,19.3,55.2,19.9,54.5,17.6z"/>
<path fill="#E5AB83" d="M43.6,12.9c-0.1,0-0.1,0-0.2,0c-0.3-0.1-0.6-0.3-0.8-0.6c0-0.1,0-0.2,0.1-0.2c0.1,0,0.2,0,0.2,0.1
	c0.1,0.2,0.3,0.3,0.5,0.4c0.2,0,0.5,0,0.6-0.2c0.1-0.1,0.2-0.1,0.3,0c0.1,0.1,0.1,0.2,0,0.3C44.1,12.8,43.8,12.9,43.6,12.9z
	 M46.4,8.4c-0.2,0.1-0.2,0.3-0.1,0.4C46.4,9,46.5,9.1,46.7,9c0,0,0,0,0.1,0c0,0,0.1-0.1,0.1-0.1c0.1,0,0.3-0.1,0.4,0
	c0.2,0,0.3,0.1,0.4,0.2c0.1,0.1,0.1,0.2,0.1,0.2l0,0c0,0.1,0.1,0.1,0.2,0.1c0.1,0,0.1-0.1,0.1-0.2c0,0,0-0.1-0.1-0.3
	c-0.1-0.1-0.3-0.3-0.5-0.4c-0.2-0.1-0.5-0.1-0.7,0c-0.1,0-0.2,0-0.2,0C46.5,8.4,46.5,8.4,46.4,8.4C46.4,8.4,46.4,8.4,46.4,8.4z"/>
</svg>
