<?xml version="1.0" encoding="utf-8"?>
<!-- Generator: Adobe Illustrator 18.1.0, SVG Export Plug-In . SVG Version: 6.00 Build 0)  -->
<!DOCTYPE svg PUBLIC "-//W3C//DTD SVG 1.0//EN" "http://www.w3.org/TR/2001/REC-SVG-20010904/DTD/svg10.dtd">
<svg version="1.0" id="Layer_1" xmlns="http://www.w3.org/2000/svg" xmlns:xlink="http://www.w3.org/1999/xlink" x="0px" y="0px"
	 width="72px" height="72px" viewBox="0 0 72 72" enable-background="new 0 0 72 72" xml:space="preserve">
<path fill="#FFB636" d="M28.9,57.2v1.6c0,0.5-0.4,0.8-0.8,0.8s-0.8-0.4-0.8-0.8v-1.6H28.9z M31.1,57.2v2.5c0,0.7,0.6,1.3,1.3,1.3
	c0.7,0,1.3-0.6,1.3-1.3v-2.5H31.1z M39.4,57.2v2.5c0,0.7,0.6,1.3,1.3,1.3c0.7,0,1.3-0.6,1.3-1.3v-2.5H39.4z M44.1,57.1v1.7
	c0,0.5,0.4,0.9,0.9,0.9c0.5,0,0.9-0.4,0.9-0.9v-1.7H44.1z M25.3,25c1-1.3,0.7-3.2-0.6-4.1c-4.3-3.2-7.1-7.9-7.8-13.1
	c-0.2-1.6-1.7-2.8-3.3-2.6c-1.6,0.2-2.8,1.7-2.6,3.3c0.9,6.8,4.6,13,10.2,17.1c0.5,0.4,1.1,0.6,1.7,0.6C23.8,26.2,24.7,25.7,25.3,25
	z M50,25.6c5.6-4.1,9.3-10.3,10.2-17.1c0.2-1.6-0.9-3.1-2.6-3.3C56,5,54.5,6.1,54.3,7.7c-0.7,5.2-3.5,9.9-7.8,13.1
	c-1.3,1-1.6,2.8-0.6,4.1c0.6,0.8,1.5,1.2,2.4,1.2C48.9,26.2,49.5,26,50,25.6z"/>
</svg>
