<?xml version="1.0" encoding="iso-8859-1"?>
<!-- Generator: Adobe Illustrator 18.1.0, SVG Export Plug-In . SVG Version: 6.00 Build 0)  -->
<!DOCTYPE svg PUBLIC "-//W3C//DTD SVG 1.1//EN" "http://www.w3.org/Graphics/SVG/1.1/DTD/svg11.dtd">
<svg version="1.1" xmlns="http://www.w3.org/2000/svg" xmlns:xlink="http://www.w3.org/1999/xlink" x="0px" y="0px"
	 viewBox="0 0 512 512" enable-background="new 0 0 512 512" xml:space="preserve">
<g id="Layer_2">
	<path fill="#D19B61" d="M441.223,221.519c0,0,0.32,0.238,0.919,0.685c0.654,0.491,1.349,0.998,2.393,1.736
		c2.119,1.494,5.309,3.529,9.431,6.102c2.055,1.295,4.338,2.741,6.754,4.428c2.412,1.687,4.96,3.624,7.444,5.903
		c2.479,2.286,4.865,4.94,6.925,7.877c2.075,2.931,3.772,6.156,5.093,9.443c1.325,3.291,2.278,6.649,2.968,9.945
		c0.157,0.824,0.314,1.645,0.47,2.462c0.123,0.816,0.245,1.628,0.367,2.435c0.204,1.511,0.405,3.003,0.603,4.471
		c0.092,0.758,0.208,1.454,0.328,2.134c0.116,0.688,0.232,1.37,0.346,2.045c0.2,1.353,0.542,2.679,0.795,3.974
		c0.566,2.581,1.238,4.973,1.924,7.159c0.734,2.155,1.466,4.117,2.254,5.764c0.748,1.681,1.559,3.023,2.238,4.113
		c0.705,1.062,1.317,1.82,1.741,2.289c0.438,0.463,0.611,0.604,0.547,0.563c0.916,0.581,1.188,1.795,0.606,2.711
		c-0.581,0.916-1.795,1.188-2.711,0.606c-0.065-0.037-0.554-0.344-1.219-0.889c-0.663-0.554-1.55-1.397-2.551-2.541
		c-0.964-1.156-2.104-2.592-3.184-4.338c-1.129-1.73-2.215-3.758-3.331-6.006c-1.06-2.26-2.13-4.745-3.103-7.417
		c-0.458-1.346-1.002-2.694-1.425-4.148c-0.223-0.722-0.449-1.452-0.677-2.189c-0.234-0.743-0.46-1.487-0.643-2.197
		c-0.395-1.458-0.796-2.94-1.202-4.441c-0.186-0.698-0.374-1.4-0.563-2.106c-0.215-0.692-0.43-1.387-0.647-2.085
		c-0.912-2.763-2.025-5.455-3.373-7.946c-1.347-2.492-2.916-4.785-4.713-6.788c-1.789-2.011-3.766-3.768-5.869-5.309
		c-4.222-3.066-8.902-5.35-13.143-7.406c-4.247-2.033-8.014-3.874-10.635-5.312c-1.327-0.727-2.481-1.391-3.065-1.736
		c-0.645-0.378-0.989-0.579-0.989-0.579c-3.843-2.249-5.135-7.187-2.887-11.03c2.249-3.843,7.187-5.135,11.03-2.887
		C440.73,221.171,440.987,221.343,441.223,221.519z M107.801,66.77c-0.304,0.54-0.451,0.876-0.451,0.876l0.01,0.013
		c-4.503,9.935-3.251,22.109-3.251,22.109c0.195-0.04,0.342-0.094,0.537-0.135c-0.04,0.195-0.089,0.344-0.13,0.539
		c0,0,13.486,1.429,23.711-3.847c0.085-0.037,0.152-0.048,0.244-0.091c0.031-0.025,0.068-0.044,0.106-0.075
		c1.129-0.595,2.225-1.282,3.244-2.069c10.553-7.307,15.72-21.03,16.808-24.276c0.037-0.149,0.084-0.285,0.134-0.434
		c0.019-0.091,0.101-0.331,0.101-0.331l-0.012-0.033c1.166-4.068,1.105-8.29,0.876-10.983c-0.137-1.614-1.604-3.054-3.203-3.173
		c-1.976-0.147-4.74-0.207-7.48,0.217l-0.01-0.014c-0.041,0.012-0.064,0.031-0.094,0.023c-2.417,0.4-5.077,1.138-7.856,2.449
		c-8.952,3.481-14.792,8.508-18.504,12.69C110.546,62.088,109.009,64.346,107.801,66.77z"/>
</g>
<g id="Layer_3">
	<path fill="#AF773F" d="M432.733,387.859c10.535,19.783-4.748,58.06-9.826,69.633c-0.913,2.081-2.765,3.395-4.795,3.395h-12.807
		c-3.753,0-6.348-4.303-5.018-8.33c5.355-16.219,16.53-39.585,16.53-51.489c0-10.704-22.85-33.436-37.306-67.885
		c-0.554,24.888-1.857,49.166-2.076,62.504c-0.369,22.41-10.396,50.232-15.474,61.805c-0.913,2.081-2.765,3.395-4.795,3.395h-12.807
		c-3.753,0-6.348-4.303-5.018-8.33c5.355-16.219,16.53-39.585,16.53-51.489c0-13.869-12.78-55.516-38.37-104.111
		c-19.134-3.175-39.051,0.178-62.412,3.968c-9.809,25.739-18.989,93.552-16.668,104c2.058,9.262,8.656,34.411,12.006,47.083
		c1.004,3.798-1.861,7.512-5.79,7.512H229.32c-3.533,0-6.272-3.038-5.959-6.557c1.039-11.693-0.639-32.525-1.308-35.922
		c-1.884-9.57-5.784-26.946-3.23-38.714c2.243-10.336,4.78-27.539-12.284-60.617c-8.845,24.22-16.054,77.246-13.839,87.215
		c2.058,9.262,8.656,34.411,12.006,47.083c1.004,3.798-1.861,7.512-5.79,7.512h-15.317c-3.533,0-6.272-3.038-5.959-6.557
		c1.039-11.693-0.639-32.525-1.308-35.922c-1.884-9.57-5.784-26.946-3.23-38.714c2.356-10.859,3.626-33.631-17.094-72.106
		c-65.275-11.019-10.956-157.771-60.066-169.579c-21.191,1.607-58.327-2.586-73.469-2.586c-23.053,0-17.572-14.347-13.613-22.815
		C20.574,86.18,47.621,77.781,55.014,77.781c18.574,0,26.536-22.041,49.559-22.041c3.751,0,8.885,1.973,14.432,5.418
		c0.526-0.251,1.059-0.49,1.612-0.693c5.025-2.453,12.339-4.877,21.942-4.687c3.069-0.154,5.809,0.176,8.197,0.727
		c0.025,0.019,0.054,0.011,0.096,0.015l0.004,0.017c2.694,0.652,5.227,1.76,6.999,2.648c1.433,0.719,2.241,2.609,1.754,4.154
		c-0.814,2.578-2.365,6.505-4.993,9.822l-0.001,0.035c0,0-0.167,0.19-0.219,0.267c-0.103,0.119-0.198,0.227-0.29,0.35
		c-1.355,1.563-5.556,6.092-11.426,10.039c6.457,9.157,11.099,19.787,11.536,30.698c0.007-0.006,0.014-0.012,0.021-0.018
		c0.234,1.484,0.481,3.167,0.743,5.008c31.243,206.452,70.952-46.342,152.005-46.342c76.21,0,78.292,57.505,104.095,88.801
		c21.032,25.509,47.596,57.602,47.596,93.736c0,14.291-10.483,31.746-28.881,48.848C416.98,339.537,423.015,369.61,432.733,387.859z
		 M489.013,298.837c-2.505,1.343-3.447,4.462-2.104,6.966l0.032,0.06c0,0,0.073,0.136,0.209,0.391
		c0.072,0.124,0.16,0.277,0.264,0.457l0.078,0.138l0.014,0.096c0.008,0.066,0.022,0.131,0.037,0.198
		c0.032,0.139,0.053,0.265,0.112,0.427c0.091,0.238,0.187,0.496,0.302,0.758c0.229,0.503,0.465,1.198,0.764,1.856
		c0.255,0.729,0.601,1.454,0.894,2.294c0.33,0.811,0.648,1.684,0.984,2.584c0.347,0.894,0.656,1.841,1.006,2.786
		c0.293,0.963,0.683,1.918,0.942,2.904c0.358,0.969,0.572,1.959,0.88,2.926c0.294,0.972,0.499,1.929,0.814,2.869
		c0.21,0.936,0.484,1.856,0.729,2.742c0.19,0.88,0.435,1.737,0.656,2.546c0.161,0.798,0.357,1.557,0.545,2.25
		c0.197,0.694,0.284,1.297,0.432,1.821c0.238,1.036,0.463,1.69,0.463,1.69l0.068,0.201c0.093,0.268,0.248,0.519,0.465,0.73
		c0.747,0.728,1.942,0.714,2.671-0.033c0,0,0.489-0.502,1.191-1.487c0.345-0.493,0.826-1.098,1.191-1.84
		c0.379-0.739,0.792-1.596,1.189-2.56c0.359-0.963,0.657-2.033,0.955-3.187c0.252-1.149,0.416-2.378,0.554-3.662
		c0.041-0.636,0.052-1.284,0.061-1.943c0.017-0.66,0.025-1.332-0.048-1.992c-0.083-1.334-0.25-2.685-0.498-4.011
		c-0.235-1.335-0.568-2.639-0.942-3.913c-0.383-1.269-0.832-2.494-1.32-3.658c-0.26-0.575-0.516-1.141-0.767-1.695
		c-0.268-0.546-0.568-1.068-0.841-1.58c-0.543-1.02-1.189-1.951-1.755-2.798c-0.644-0.849-1.181-1.594-1.808-2.257
		c-0.294-0.332-0.582-0.632-0.845-0.908c-0.321-0.334-0.663-0.653-0.952-0.922c-0.148-0.133-0.289-0.26-0.421-0.378
		c-0.067-0.057-0.132-0.113-0.195-0.167l-0.138-0.089c-0.175-0.111-0.323-0.205-0.444-0.282c-0.248-0.146-0.38-0.224-0.38-0.224
		C492.563,298.063,490.653,297.958,489.013,298.837z"/>
</g>
<g id="Layer_4">
	<path fill="#2B3B47" d="M75.73,83.962c3.431-0.249,6.414,2.329,6.663,5.76l0.781,10.741c0.249,3.431-2.329,6.414-5.76,6.663l0,0
		c-3.431,0.249-6.414-2.329-6.663-5.76L69.97,90.625C69.721,87.195,72.3,84.212,75.73,83.962L75.73,83.962z M17.205,108.839
		c-1.686,0.123-2.954,1.589-2.832,3.276l0.384,5.28c0.123,1.686,1.589,2.954,3.276,2.832l0,0c1.686-0.123,2.954-1.589,2.832-3.276
		l-0.384-5.28C20.358,109.984,18.891,108.716,17.205,108.839L17.205,108.839 M201.669,440.469h-23.734
		c0.083,4.512,0.021,8.929-0.296,12.494c-0.313,3.519,2.426,6.557,5.959,6.557h15.317c3.929,0,6.794-3.714,5.79-7.512
		C203.859,448.808,202.804,444.805,201.669,440.469z M247.39,440.469h-23.734c0.083,4.512,0.021,8.928-0.296,12.494
		c-0.313,3.519,2.426,6.557,5.959,6.557h15.317c3.929,0,6.794-3.714,5.79-7.512C249.58,448.808,248.525,444.805,247.39,440.469z
		 M404.696,440.469c-1.638,4.253-3.179,8.362-4.409,12.088c-1.33,4.027,1.266,8.33,5.018,8.33h12.807
		c2.03,0,3.882-1.315,4.795-3.395c1.567-3.571,4.103-9.694,6.554-17.022H404.696z M343.75,440.469
		c-1.638,4.254-3.179,8.362-4.409,12.088c-1.33,4.027,1.266,8.33,5.018,8.33h12.807c2.03,0,3.882-1.315,4.795-3.395
		c1.762-4.016,4.121-9.997,6.465-17.022H343.75z"/>
</g>
</svg>
