<?xml version="1.0" encoding="utf-8"?>
<!-- Generator: Adobe Illustrator 18.0.0, SVG Export Plug-In . SVG Version: 6.00 Build 0)  -->
<!DOCTYPE svg PUBLIC "-//W3C//DTD SVG 1.1 Tiny//EN" "http://www.w3.org/Graphics/SVG/1.1/DTD/svg11-tiny.dtd">
<svg version="1.1" baseProfile="tiny" id="Layer_1" xmlns="http://www.w3.org/2000/svg" xmlns:xlink="http://www.w3.org/1999/xlink"
	 x="0px" y="0px" width="511.9px" height="511.9px" viewBox="0 0 511.9 511.9" xml:space="preserve">
<circle fill="#B0E9FF" cx="78.4" cy="447.9" r="29.9"/>
<circle fill="#B0E9FF" cx="140.5" cy="391.4" r="35.9"/>
<circle fill="#B0E9FF" cx="24.4" cy="488" r="18.7"/>
<path fill="#B0E9FF" d="M481.1,193.8c3.8-13.2,5.8-27.1,5.8-41.5C486.8,68.6,419,0.7,335.3,0.7c-57.6,0-107.7,32.2-133.4,79.5
	c-16.5-14.1-38-22.6-61.4-22.6c-52.3,0-94.7,42.4-94.7,94.7c0,24.1,9,46.2,23.9,62.9c-14.6,12.6-23.9,31.2-23.9,52
	c0,37.9,30.7,68.7,68.7,68.7c15.4,0,29.7-5.1,41.2-13.7c14.6,40.4,53.3,69.3,98.7,69.3c42.9,0,79.8-25.8,96-62.7
	c15.8,11.9,35.5,18.9,56.8,18.9c52.3,0,94.7-42.4,94.7-94.7C501.9,230.6,494.1,210,481.1,193.8z"/>
</svg>
