<?xml version="1.0" encoding="iso-8859-1"?>
<!-- Generator: Adobe Illustrator 19.1.0, SVG Export Plug-In . SVG Version: 6.00 Build 0)  -->
<!DOCTYPE svg PUBLIC "-//W3C//DTD SVG 1.1//EN" "http://www.w3.org/Graphics/SVG/1.1/DTD/svg11.dtd">
<svg version="1.1" xmlns="http://www.w3.org/2000/svg" xmlns:xlink="http://www.w3.org/1999/xlink" x="0px" y="0px"
	 viewBox="0 0 511.92 513.326" enable-background="new 0 0 511.92 513.326" xml:space="preserve">
<g id="Layer_5">
	<path fill="#FFD3B6" d="M450.515,336.82c-0.01,1.408-0.068,2.806-0.169,4.204c-0.048,0.699-0.114,1.399-0.187,2.104
		c-0.079,0.725-0.155,1.375-0.289,2.233c-0.599,3.844-4.202,6.475-8.046,5.876c-3.844-0.599-6.475-4.202-5.876-8.046l0.001-0.009
		l0.01-0.065c0.059-0.377,0.134-0.968,0.189-1.486c0.055-0.538,0.107-1.083,0.145-1.631c0.08-1.096,0.125-2.198,0.133-3.289
		c0.004-0.468-0.003-0.933-0.013-1.396c-0.961,0.362-2.035,0.448-3.103,0.165c-2.292-0.607-3.806-2.682-3.806-4.947l0.005-13.138
		c-0.225-0.675-0.69-2.065-1.359-4.068c-0.978-2.9-2.392-7.044-4.129-12c-3.471-9.91-8.246-23.078-13.388-35.978
		c-2.569-6.448-5.229-12.828-7.841-18.668c-1.303-2.922-2.602-5.699-3.855-8.288c-0.637-1.276-1.256-2.517-1.855-3.717
		c-0.614-1.162-1.208-2.285-1.777-3.363c-0.583-1.029-1.141-2.016-1.672-2.954c-0.538-0.875-1.049-1.704-1.529-2.484
		c-0.477-0.697-0.923-1.348-1.335-1.951c-0.39-0.495-0.747-0.95-1.07-1.361c-0.203-0.29-0.189-0.172-0.232-0.202
		c-0.031-0.005-0.05-0.015-0.062-0.029c-0.006-0.007-0.01-0.015-0.013-0.023l-0.003-0.013c0,0,0.002-0.002-0.004-0.009l-0.071-0.066
		c-0.186-0.173-0.355-0.33-0.506-0.471c-0.605-0.563-0.928-0.863-0.928-0.863l-0.137-0.127c-5.952-5.535-6.29-14.847-0.755-20.799
		c5.535-5.952,14.847-6.29,20.799-0.755c0.472,0.439,0.961,0.968,1.363,1.451c0,0,0.279,0.341,0.803,0.981
		c0.131,0.16,0.277,0.339,0.438,0.535c0.283,0.366,0.591,0.766,0.924,1.199c0.348,0.464,0.715,0.967,1.097,1.509
		c0.364,0.521,0.844,1.202,1.036,1.574c0.509,0.885,1.098,1.887,1.667,2.941c0.5,1.013,1.041,2.108,1.618,3.278
		c0.496,1.129,1.024,2.331,1.58,3.598c0.492,1.238,1.01,2.541,1.55,3.899c0.489,1.339,0.998,2.734,1.525,4.177
		c0.485,1.431,1.011,2.915,1.502,4.428c0.987,3.027,1.975,6.204,2.931,9.48c1.919,6.551,3.764,13.507,5.493,20.459
		c3.459,13.902,6.453,27.793,8.586,38.235c1.067,5.22,1.92,9.575,2.507,12.63c0.229,1.208,0.417,2.204,0.563,2.978
		c0,0,0.001,0,0.001,0.001c0.336,0.337,0.642,0.686,0.929,1.045c0.288,0.358,0.6,0.712,0.849,1.082l0.77,1.11l0.681,1.128
		c0.418,0.755,0.828,1.52,1.154,2.28c0.356,0.764,0.634,1.523,0.92,2.285c0.252,0.756,0.506,1.516,0.702,2.266
		c0.219,0.755,0.378,1.497,0.544,2.243c0.152,0.742,0.291,1.481,0.4,2.213C450.379,331.147,450.535,334.004,450.515,336.82z
		 M150.29,374.681h-32.106l2.677,103.263h0c0,0,0,0,0,0c0,5.914,4.794,10.708,10.708,10.708c5.914,0,10.708-4.794,10.708-10.708
		c0,0,0-0.001,0-0.002l2.677-75.8c0-3.909,2.321-7.256,5.648-8.798C150.553,381.058,150.437,386.968,150.29,374.681z
		 M202.896,374.681h-35.399c0.143,12.027,0.253,11.844,0.306,23.872c6.506,1.238,10.924,5.489,8.324,9.576l2.677,69.815
		c0,0,0,0.001,0,0.001c0,5.914,4.794,10.708,10.708,10.708c5.914,0,10.708-4.794,10.708-10.708c0,0,0-0.001,0-0.001L202.896,374.681
		z M296.399,203.334c-7.152-3.862-16.08-1.196-19.943,5.956c0,0-0.21,0.388-0.602,1.116c-0.098,0.182-0.208,0.385-0.329,0.609
		c-0.208,0.413-0.435,0.865-0.68,1.352c-0.253,0.521-0.518,1.086-0.79,1.69c-0.258,0.58-0.6,1.34-0.718,1.742
		c-0.331,0.965-0.72,2.061-1.078,3.204c-0.298,1.089-0.621,2.267-0.966,3.526c-0.272,1.203-0.562,2.483-0.868,3.833
		c-0.248,1.309-0.509,2.686-0.781,4.123c-0.226,1.407-0.461,2.874-0.704,4.391c-0.204,1.497-0.439,3.054-0.633,4.632
		c-0.394,3.16-0.76,6.467-1.077,9.864c-0.639,6.796-1.129,13.976-1.506,21.131c-0.754,14.306-1.055,28.513-1.166,39.17
		c-0.046,4.338-0.061,8.071-0.063,10.993c-0.092-0.393-0.191-0.786-0.306-1.184c-0.201-0.766-0.46-1.544-0.718-2.317
		c-0.292-0.78-0.577-1.555-0.941-2.337c-0.333-0.778-0.753-1.56-1.18-2.332l-0.697-1.154l-0.788-1.135
		c-0.255-0.378-0.573-0.741-0.868-1.107c-0.294-0.367-0.607-0.725-0.95-1.069c-0.024-0.026-0.051-0.049-0.075-0.074
		c-0.2-0.922-0.468-2.158-0.803-3.705c-0.786-3.499-1.909-8.497-3.256-14.495c-2.753-11.984-6.558-27.93-10.812-43.866
		c-1.065-3.984-2.151-7.969-3.264-11.893c-1.11-3.925-2.23-7.788-3.378-11.534c-1.132-3.745-2.286-7.371-3.442-10.825
		c-1.147-3.452-2.312-6.733-3.468-9.79c-1.155-3.057-2.323-5.9-3.484-8.48c-1.176-2.589-2.341-4.919-3.554-6.987
		c-0.423-0.842-1.465-2.344-2.22-3.379c-0.401-0.535-0.772-1.031-1.112-1.484c-0.21-0.26-0.401-0.496-0.572-0.707
		c-0.606-0.739-0.93-1.133-0.93-1.133c-0.362-0.434-0.805-0.921-1.223-1.321c-2.273-2.178-5.052-3.497-7.939-3.975
		c-6.771-3.749-17.12-6.644-29.388-8.119c0.073-0.334,0.117-0.672,0.117-1.015c0-0.564-0.117-1.114-0.311-1.651v-14.255
		c16.096-6.864,27.503-22.572,28.15-41.017h3.086c6.305,0,11.414-5.1,11.414-11.404c0-6.3-5.108-11.403-11.414-11.403h-1.624
		l1.629-24.412c0-27.29-23.574-41.39-50.862-41.39c-27.295,0-47.961,14.1-47.961,41.39l1.641,24.542
		c-0.536-0.077-1.079-0.131-1.636-0.131c-6.302,0-11.413,5.103-11.413,11.403c0,6.304,5.111,11.404,11.413,11.404
		c1.066,0,2.094-0.157,3.073-0.431c0.479,18.511,11.796,34.318,27.852,41.306v16.047c0,0.331,0.038,0.657,0.106,0.978
		c-11.08,1.305-20.62,3.761-27.399,6.965c-4.874,0.624-9.322,3.675-11.487,8.484c0,0-0.202,0.449-0.582,1.292
		c-0.095,0.211-0.201,0.446-0.317,0.705c-0.06,0.134-0.122,0.273-0.187,0.419c-0.089,0.216-0.183,0.44-0.279,0.674
		c-0.384,0.934-0.815,2.013-1.274,3.223c-0.695,2.061-1.431,4.399-2.1,7.011c-0.685,2.615-1.339,5.489-1.96,8.582
		c-2.499,12.359-4.48,28.282-5.984,44.187c-1.509,15.892-2.561,31.72-3.229,43.597c-0.334,5.938-0.574,10.886-0.732,14.355
		c-0.067,1.567-0.12,2.813-0.159,3.731c-0.033,0.051-0.072,0.1-0.104,0.151c-0.264,0.392-0.497,0.791-0.709,1.195
		c-0.214,0.403-0.451,0.808-0.624,1.216l-0.542,1.228l-0.452,1.23c-0.265,0.815-0.521,1.639-0.695,2.442
		c-0.203,0.813-0.331,1.605-0.466,2.403c-0.103,0.785-0.207,1.575-0.257,2.343c-0.072,0.778-0.086,1.532-0.108,2.291
		c-0.008,0.752-0.004,1.5,0.027,2.235c0.112,2.948,0.499,5.766,1.05,8.509c0.276,1.372,0.596,2.725,0.959,4.069
		c0.179,0.673,0.376,1.343,0.58,2.018c0.214,0.692,0.411,1.312,0.703,2.124l0.003,0.008c1.315,3.636,5.329,5.518,8.965,4.203
		c3.636-1.315,5.518-5.329,4.203-8.965l-0.022-0.061c-0.129-0.357-0.314-0.919-0.465-1.414c-0.155-0.515-0.309-1.036-0.449-1.564
		c-0.285-1.054-0.537-2.121-0.75-3.184c-0.092-0.455-0.173-0.909-0.251-1.362c0.586,0.1,1.197,0.105,1.815-0.014
		c2.756-0.535,4.557-3.202,4.022-5.958l-2.464-12.705c0.135-0.823,0.395-2.403,0.762-4.635c0.565-3.378,1.388-8.208,2.42-13.993
		c2.063-11.569,4.976-26.969,8.298-42.178c0.828-3.803,1.69-7.588,2.558-11.301c0.474-2.01,0.953-3.99,1.435-5.944l7.703,51.97
		h73.489l9.926-66.969c0.412,0.848,0.827,1.711,1.246,2.6c1.442,3.039,2.931,6.3,4.429,9.716c1.51,3.406,3.027,6.973,4.547,10.615
		c1.524,3.64,3.037,7.368,4.535,11.107c5.989,14.964,11.614,30.18,15.733,41.623c2.032,5.732,3.726,10.509,4.912,13.852
		c0.792,2.289,1.345,3.885,1.618,4.675l-0.006,13.387c0,2.316,1.548,4.438,3.892,5.059c1.092,0.289,2.191,0.201,3.174-0.169
		c0.01,0.474,0.017,0.95,0.013,1.428c-0.008,1.116-0.054,2.243-0.135,3.364c-0.038,0.561-0.092,1.118-0.148,1.668
		c-0.056,0.53-0.132,1.134-0.193,1.52l-0.01,0.066l-0.001,0.009c-0.613,3.932,2.078,7.616,6.01,8.229
		c1.488,0.232,2.939-0.011,4.203-0.613c0.174,1.304,0.389,2.59,0.643,3.857c0.278,1.381,0.6,2.742,0.965,4.095
		c0.18,0.677,0.378,1.352,0.584,2.03c0.215,0.697,0.413,1.32,0.708,2.138l0.003,0.008c1.323,3.659,5.362,5.552,9.021,4.229
		s5.552-5.362,4.229-9.021l-0.022-0.062c-0.13-0.359-0.316-0.925-0.468-1.423c-0.156-0.518-0.311-1.042-0.452-1.574
		c-0.286-1.061-0.54-2.134-0.755-3.204c-0.092-0.458-0.174-0.914-0.252-1.371c0.59,0.1,1.205,0.106,1.826-0.014
		c2.773-0.538,4.586-3.222,4.048-5.996l-2.501-12.898c0.093-0.705,0.285-2.158,0.561-4.252c0.409-3.033,1.01-7.37,1.773-12.565
		c1.525-10.389,3.711-24.224,6.309-37.866c1.297-6.818,2.697-13.587,4.151-19.818c0.724-3.117,1.471-6.089,2.21-8.87
		c0.383-1.373,0.755-2.709,1.115-4.002c0.382-1.258,0.751-2.473,1.106-3.64c0.376-1.121,0.737-2.196,1.08-3.217
		c0.362-0.961,0.706-1.872,1.029-2.729c0.336-0.774,0.65-1.499,0.94-2.169c0.288-0.56,0.553-1.075,0.792-1.539
		c0.144-0.324,0.153-0.204,0.189-0.243c0.029-0.011,0.047-0.024,0.056-0.04c0.005-0.008,0.007-0.016,0.008-0.025l0-0.014
		c0,0-0.003-0.002,0.002-0.01l0.057-0.078c0.15-0.205,0.286-0.391,0.407-0.558c0.487-0.667,0.747-1.023,0.747-1.023l0.161-0.218
		c0.367-0.51,0.705-1.049,1.012-1.617C306.218,216.125,303.551,207.196,296.399,203.334z M390.841,99.918
		c-0.551,0-1.089,0.053-1.619,0.129l1.624-24.341c0-27.068-23.382-41.053-50.448-41.053c-27.072,0-47.57,13.985-47.57,41.053
		l1.628,24.342c-0.531-0.077-1.07-0.13-1.623-0.13c-6.251,0-11.32,5.062-11.32,11.31c0,6.252,5.07,11.311,11.32,11.311
		c1.058,0,2.077-0.156,3.048-0.427c0.468,18.094,11.385,33.58,26.94,40.66v10.175c0,4.99,8.091,9.036,18.071,9.036
		s18.071-4.045,18.071-9.036c0-0.552-0.114-1.089-0.304-1.614v-7.632c16.712-6.578,28.648-22.655,29.139-41.587
		c0.969,0.27,1.986,0.425,3.042,0.425c6.254,0,11.32-5.058,11.32-11.311C402.162,104.98,397.095,99.918,390.841,99.918z"/>
</g>
<g id="Layer_1">
</g>
</svg>
