<?xml version="1.0" encoding="utf-8"?>
<!-- Generator: Adobe Illustrator 18.1.0, SVG Export Plug-In . SVG Version: 6.00 Build 0)  -->
<!DOCTYPE svg PUBLIC "-//W3C//DTD SVG 1.0//EN" "http://www.w3.org/TR/2001/REC-SVG-20010904/DTD/svg10.dtd">
<svg version="1.0" id="Layer_1" xmlns="http://www.w3.org/2000/svg" xmlns:xlink="http://www.w3.org/1999/xlink" x="0px" y="0px"
	 width="72px" height="72px" viewBox="0 0 72 72" enable-background="new 0 0 72 72" xml:space="preserve">
<path fill="#F4F3EF" d="M0.6,26.1c-0.3,0.7,30.6,24,30.6,24c3.9,2.9,5.9,2.9,9.7,0c0,0,30.8-23.3,30.6-24l0,0c0,0,0,0,0,0
	c-0.3-0.7-0.6-1.4-1.1-2c-0.2-0.2-0.4-0.5-0.7-0.7l0,0c0,0,0,0-0.1,0c-1-0.9-2.3-1.5-3.7-1.6c0,0,0,0-0.1,0h-0.1
	c-0.2,0-0.4-0.1-0.6-0.1H6.8C4,21.7,1.5,23.5,0.6,26.1C0.6,26,0.5,26,0.6,26.1L0.6,26.1z"/>
</svg>
