<?xml version="1.0" encoding="utf-8"?>
<!-- Generator: Adobe Illustrator 18.1.0, SVG Export Plug-In . SVG Version: 6.00 Build 0)  -->
<!DOCTYPE svg PUBLIC "-//W3C//DTD SVG 1.0//EN" "http://www.w3.org/TR/2001/REC-SVG-20010904/DTD/svg10.dtd">
<svg version="1.0" id="Layer_1" xmlns="http://www.w3.org/2000/svg" xmlns:xlink="http://www.w3.org/1999/xlink" x="0px" y="0px"
	 width="72px" height="72px" viewBox="0 0 72 72" enable-background="new 0 0 72 72" xml:space="preserve">
<path fill="#FFD3B6" d="M15.3,29.6c0,0.1-0.1,0.2-0.1,0.3L15.1,30c0,0,0,0.1-0.1,0.2c-0.1,0.1-0.2,0.3-0.3,0.4
	c0,0.1-0.1,0.2-0.2,0.4c-0.1,0.3-0.2,0.6-0.3,0.9c-0.2,0.7-0.4,1.5-0.7,2.5c-0.2,0.9-0.4,2-0.6,3c-0.4,2-0.7,4.1-0.9,5.7
	c-0.2,1.3-0.3,2.3-0.4,2.5l0.4,1.9c0.1,0.4-0.2,0.8-0.6,0.9c-0.1,0-0.2,0-0.3,0c0,0.1,0,0.1,0,0.2c0.1,0.3,0.2,0.7,0.3,0.9l0,0
	c0.2,0.6-0.1,1.2-0.6,1.4c-0.6,0.2-1.2-0.1-1.4-0.6l0,0c-0.2-0.4-0.2-0.8-0.3-1.2C9,48.5,9,48.1,8.9,47.7c0-0.4,0-0.9,0.1-1.4
	c0.1-0.4,0.2-0.7,0.5-1.1c0-0.4,0-1.3,0-2.4c0-1.6,0.1-3.7,0.2-5.9c0.1-1.1,0.1-2.2,0.2-3.2c0.1-1,0.2-2,0.4-2.8
	c0.1-0.4,0.2-0.8,0.2-1.2c0.1-0.5,0.3-0.9,0.4-1.2c0.1-0.3,0.2-0.4,0.2-0.5c0.1-0.1,0.1-0.2,0.1-0.2c0.5-1.1,1.8-1.6,2.9-1.1
	C15.3,27.2,15.8,28.5,15.3,29.6z M38.5,46.5c0-0.4-0.1-0.9-0.1-1.3c-0.1-0.4-0.2-0.9-0.4-1.3c-0.2-0.3-0.4-0.6-0.7-0.9
	c-0.1-0.4-0.3-1.2-0.6-2.4c-0.4-1.6-0.9-3.6-1.5-5.7c-0.3-1-0.6-2.1-1-3.1c-0.3-1-0.7-1.9-1-2.7c-0.2-0.4-0.4-0.8-0.5-1.1
	c-0.2-0.4-0.5-0.8-0.7-1.1c-0.2-0.2-0.3-0.3-0.4-0.5c-0.1-0.1-0.1-0.2-0.1-0.2c-0.1-0.1-0.1-0.2-0.2-0.2c-0.9-0.9-2.3-0.8-3.1,0.1
	s-0.8,2.3,0.1,3.1l0.1,0.1c0,0,0,0,0.1,0.1c0.1,0.1,0.3,0.2,0.4,0.4c0.1,0.1,0.1,0.2,0.2,0.3c0.2,0.2,0.3,0.5,0.5,0.8
	c0.4,0.6,0.8,1.4,1.2,2.3c0.4,0.9,0.9,1.8,1.3,2.8c0.9,1.9,1.7,3.9,2.2,5.4c0.5,1.3,0.8,2.2,0.9,2.4l0.1,2c0,0.3,0.3,0.6,0.6,0.7
	c0.2,0,0.3,0,0.5-0.1c0,0.1,0,0.1,0,0.2c0,0.3,0,0.7,0,1l0,0l0,0c-0.1,0.6,0.4,1.1,0.9,1.2s1.1-0.4,1.2-0.9
	C38.5,47.3,38.5,46.9,38.5,46.5z M28.6,10.9C28.6,10.9,28.6,10.9,28.6,10.9l0-0.2c0-4.3-3.5-7.7-7.7-7.7c-4.3,0-7.7,3.5-7.7,7.7
	l0,0.2c0,0,0,0,0,0c-0.9,0-1.7,0.8-1.7,1.7s0.8,1.7,1.7,1.7c0.1,0,0.3,0,0.4-0.1l0.1,0.5c0,3.1,1.9,5.7,4.7,6.8V23
	c0,0.7,1.2,1.3,2.6,1.3c1.4,0,2.6-0.6,2.6-1.3c0-0.1,0-0.1,0-0.2v-1.3c2.7-1,4.7-3.7,4.7-6.8l0.1-0.5c0.1,0,0.3,0.1,0.4,0.1
	c0.9,0,1.7-0.8,1.7-1.7S29.6,10.9,28.6,10.9z"/>
</svg>
