<svg xmlns="http://www.w3.org/2000/svg" viewBox="0 0 512 512" enable-background="new 0 0 512 512"><path fill="#FFA1E0" d="M295.79 443.158c0 30.607-17.897 55.42-39.973 55.42s-39.972-24.813-39.972-55.42 17.896-55.42 39.972-55.42 39.972 24.813 39.972 55.42zm123.867-307.805l3.014-5.34c69.73-64.12 9.97-125.064-52.754-67.385-6.32 5.812-11.717 11.927-16.31 18.247 26.168 13.71 48.743 32.52 66.052 54.478zm-330.5-5.42l2.957 5.25c17.332-21.935 39.92-40.72 66.095-54.403-4.578-6.3-9.953-12.395-16.246-18.19-62.68-57.73-122.486 3.168-52.81 67.343z"/></svg>