<?xml version="1.0" encoding="iso-8859-1"?>
<!-- Generator: Adobe Illustrator 18.1.1, SVG Export Plug-In . SVG Version: 6.00 Build 0)  -->
<!DOCTYPE svg PUBLIC "-//W3C//DTD SVG 1.1//EN" "http://www.w3.org/Graphics/SVG/1.1/DTD/svg11.dtd">
<svg version="1.1" xmlns="http://www.w3.org/2000/svg" xmlns:xlink="http://www.w3.org/1999/xlink" x="0px" y="0px"
	 viewBox="0 0 512 512" enable-background="new 0 0 512 512" xml:space="preserve">
<g id="Layer_4">
	<path fill="#FFFFFF" d="M446.399,174.38c-34.356-76.279-126.697-88.268-179.217-35.9l-6.101,6.095
		c-3.153,3.15-8.309,2.916-11.192-0.483c-1.648-1.943-3.378-3.841-5.21-5.678C192.734,86.32,101.419,97.443,66.284,171.893
		c-10.276,21.774-12.275,46.64-5.844,69.842c8.65,31.207,26.117,52.28,47.039,65.893l145.627,117.879
		c2.099,1.699,5.101,1.693,7.193-0.014l144.736-118.06c19.209-12.742,35.377-31.993,44.611-58.995
		C457.921,224.247,456.899,197.692,446.399,174.38z"/>
</g>
<g id="Layer_1">
</g>
</svg>
