<?xml version="1.0" encoding="utf-8"?>
<!-- Generator: Adobe Illustrator 18.1.0, SVG Export Plug-In . SVG Version: 6.00 Build 0)  -->
<!DOCTYPE svg PUBLIC "-//W3C//DTD SVG 1.0//EN" "http://www.w3.org/TR/2001/REC-SVG-20010904/DTD/svg10.dtd">
<svg version="1.0" id="Layer_1" xmlns="http://www.w3.org/2000/svg" xmlns:xlink="http://www.w3.org/1999/xlink" x="0px" y="0px"
	 width="72px" height="72px" viewBox="0 0 72 72" enable-background="new 0 0 72 72" xml:space="preserve">
<path fill="#A57656" d="M36,51.6C36,51.6,36,51.6,36,51.6c-1.7,0-3.2-0.8-4-2.2c-0.3-0.5-0.2-1.2,0.3-1.5c0.5-0.3,1.2-0.2,1.5,0.3
	c0.5,0.7,1.3,1.2,2.2,1.2c0,0,0,0,0,0c0.9,0,1.7-0.4,2.2-1.2c0.3-0.5,1-0.7,1.5-0.3c0.5,0.3,0.7,1,0.3,1.5
	C39.1,50.8,37.6,51.6,36,51.6z M24.1,35.3c0,0,0.1,0,0.1,0c0.6,0.1,1.1-0.4,1.2-1c0.1-0.6-0.4-1.1-1-1.2c0,0-0.1,0-0.3,0
	c-0.2,0-0.4,0-0.8-0.1c-0.6,0-1.5,0-2.3,0.1c-0.8,0.1-1.7,0.3-2.4,0.6c-0.2,0.1-0.3,0.2-0.4,0.3c-0.1,0.1-0.2,0.2-0.3,0.2
	c-0.2,0.2-0.3,0.2-0.3,0.2c-0.3,0.3-0.3,0.7-0.1,1c0.2,0.3,0.7,0.4,1.1,0.2l0.2-0.1c0,0,0.1,0,0.1-0.1c0,0,0.1-0.1,0.2-0.1
	c0.1,0,0.2-0.1,0.3-0.1c0.4-0.2,1.1-0.3,1.8-0.3c0.7,0,1.5,0.1,2,0.1c0.3,0,0.5,0.1,0.7,0.1C24,35.3,24,35.3,24.1,35.3L24.1,35.3z
	 M47.4,33.2c-0.6,0.1-1,0.7-0.8,1.3c0.1,0.6,0.7,1,1.3,0.8l0,0c0,0,0.1,0,0.2,0c0.2,0,0.4-0.1,0.7-0.1c0.5-0.1,1.3-0.2,2-0.1
	c0.7,0,1.4,0.1,1.8,0.3c0.1,0,0.2,0.1,0.3,0.1c0.1,0,0.1,0.1,0.2,0.1c0.1,0.1,0.1,0.1,0.1,0.1l0.2,0.1c0.3,0.2,0.7,0.2,1-0.1
	c0.3-0.3,0.3-0.8-0.1-1.1c0,0-0.1-0.1-0.3-0.2c-0.1-0.1-0.2-0.2-0.3-0.2c-0.1-0.1-0.3-0.2-0.4-0.3c-0.7-0.3-1.5-0.5-2.4-0.6
	C50,33,49.2,33,48.6,33.1c-0.3,0-0.6,0-0.8,0.1c-0.2,0-0.3,0-0.3,0C47.5,33.2,47.4,33.2,47.4,33.2z"/>
</svg>
