<?xml version="1.0" encoding="utf-8"?>
<!-- Generator: Adobe Illustrator 18.1.0, SVG Export Plug-In . SVG Version: 6.00 Build 0)  -->
<!DOCTYPE svg PUBLIC "-//W3C//DTD SVG 1.0//EN" "http://www.w3.org/TR/2001/REC-SVG-20010904/DTD/svg10.dtd">
<svg version="1.0" id="Layer_1" xmlns="http://www.w3.org/2000/svg" xmlns:xlink="http://www.w3.org/1999/xlink" x="0px" y="0px"
	 width="72px" height="72px" viewBox="0 0 72 72" enable-background="new 0 0 72 72" xml:space="preserve">
<path fill="#FFD3B6" d="M63.4,47.2c0,0.4,0,0.8-0.1,1.2c-0.1,0.5-0.6,0.9-1.1,0.8c-0.5-0.1-0.9-0.6-0.8-1.1l0,0l0,0
	c0-0.3,0.1-0.6,0.1-0.9c0-0.1,0-0.1,0-0.2c-0.1,0-0.3,0.1-0.4,0c-0.3-0.1-0.5-0.4-0.5-0.7l0-1.8c-0.1-0.2-0.4-1.1-0.8-2.3
	c-0.5-1.4-1.2-3.2-1.9-5.1c-0.4-0.9-0.7-1.8-1.1-2.6c-0.4-0.8-0.7-1.6-1.1-2.2c-0.2-0.3-0.3-0.5-0.5-0.8c-0.1-0.1-0.2-0.2-0.2-0.3
	c-0.1-0.1-0.3-0.3-0.3-0.3c-0.1-0.1-0.1-0.1-0.1-0.1l-0.1-0.1c-0.8-0.8-0.8-2.1,0.1-2.9c0.8-0.8,2.1-0.8,2.9,0.1
	c0.1,0.1,0.1,0.1,0.2,0.2c0,0,0,0.1,0.1,0.1c0.1,0.1,0.2,0.2,0.3,0.4c0.2,0.3,0.4,0.6,0.6,1c0.1,0.3,0.3,0.7,0.4,1.1
	c0.3,0.8,0.6,1.6,0.8,2.5c0.3,0.9,0.5,1.9,0.8,2.9c0.5,2,0.9,3.9,1.2,5.4c0.2,1.1,0.4,1.9,0.4,2.2c0.3,0.3,0.5,0.6,0.6,0.9
	c0.2,0.4,0.3,0.9,0.4,1.3C63.3,46.4,63.4,46.8,63.4,47.2z M55,13.9c-0.1,0-0.2,0-0.2,0l0.2-3.4c0-3.8-3.3-5.8-7.1-5.8
	c-3.8,0-6.7,2-6.7,5.8l0.2,3.4c-0.1,0-0.2,0-0.2,0c-0.9,0-1.6,0.7-1.6,1.6c0,0.9,0.7,1.6,1.6,1.6c0.2,0,0.3,0,0.4-0.1
	c0.1,2.5,1.6,4.7,3.8,5.7v1.4c0,0.7,1.1,1.3,2.5,1.3s2.5-0.6,2.5-1.3c0-0.1,0-0.1,0-0.2v-1.1c2.3-0.9,4-3.2,4.1-5.8
	c0.1,0,0.3,0.1,0.4,0.1c0.9,0,1.6-0.7,1.6-1.6C56.6,14.6,55.9,13.9,55,13.9z M16.6,52.5L17,67c0,0.8,0.7,1.5,1.5,1.5
	c0.8,0,1.5-0.7,1.5-1.5l0.4-10.7c0-0.5,0.3-1,0.8-1.2c0-1.7,0-0.9,0-2.6H16.6z M28.5,52.5h-5c0,1.7,0,1.7,0,3.4
	c0.9,0.2,1.5,0.8,1.2,1.3l0.4,9.8c0,0.8,0.7,1.5,1.5,1.5c0.8,0,1.5-0.7,1.5-1.5c0,0,0,0,0,0L28.5,52.5z M41.6,28.3
	c-1-0.5-2.3,0-2.8,1c0,0,0,0.1-0.1,0.2c-0.1,0.1-0.1,0.2-0.2,0.5c-0.1,0.3-0.3,0.7-0.4,1.1c-0.1,0.3-0.1,0.7-0.2,1.1
	c-0.1,0.8-0.2,1.7-0.3,2.7c-0.1,1-0.2,2-0.2,3c-0.1,2-0.1,4-0.2,5.5c0,0.6,0,1.2,0,1.6c-0.1-0.3-0.1-0.6-0.3-0.9
	c-0.1-0.3-0.4-0.6-0.6-0.9c-0.2-0.9-1.1-4.9-2.1-8.8c-0.6-2.2-1.3-4.5-1.9-6.2c-0.2-0.4-0.3-0.8-0.5-1.2c-0.2-0.4-0.4-0.8-0.6-1.2
	c-0.1-0.2-0.2-0.2-0.2-0.3c-0.1-0.1-0.1-0.1-0.1-0.2c-0.1-0.1-0.1-0.2-0.1-0.2c0-0.1-0.1-0.1-0.2-0.2c-0.3-0.4-0.8-0.6-1.3-0.7
	c-1-0.5-2.4-0.9-4.1-1.1c0,0,0-0.1,0-0.1c0-0.1,0-0.1,0-0.2v-2c2.3-1,3.9-3.2,4-5.8c0.1,0,0.3,0.1,0.4,0.1c0.9,0,1.6-0.7,1.6-1.6
	c0-0.9-0.7-1.6-1.6-1.6c-0.1,0-0.2,0-0.2,0l0.2-3.5c0-3.8-3.3-5.8-7.2-5.8c-3.8,0-6.7,2-6.7,5.8l0.2,3.5c-0.1,0-0.2,0-0.2,0
	c-0.9,0-1.6,0.7-1.6,1.6c0,0.9,0.7,1.6,1.6,1.6c0.2,0,0.3,0,0.4-0.1c0.1,2.6,1.7,4.8,3.9,5.8V23c0,0,0,0.1,0,0.1
	c-1.5,0.2-2.9,0.5-3.8,1c-0.7,0.1-1.4,0.5-1.7,1.3c0,0-0.1,0.3-0.3,0.7c-0.1,0.3-0.2,0.7-0.3,1.1c-0.1,0.4-0.2,0.8-0.3,1.2
	c-0.4,1.7-0.6,4-0.8,6.2c-0.4,3.9-0.5,7.8-0.6,8.7c-0.2,0.3-0.4,0.7-0.4,1c-0.1,0.5-0.1,0.9-0.1,1.3c0,0.4,0.1,0.8,0.1,1.2
	c0.1,0.4,0.2,0.8,0.3,1.2l0,0c0.2,0.5,0.7,0.8,1.3,0.6c0.5-0.2,0.8-0.7,0.6-1.3l0,0c-0.1-0.3-0.2-0.6-0.2-0.9c0-0.1,0-0.1,0-0.2
	c0.1,0,0.2,0,0.2,0c0.4-0.1,0.6-0.5,0.6-0.8l-0.3-1.8c0-0.3,0.2-1.3,0.4-2.6c0.3-1.6,0.7-3.8,1.2-5.9c0.2-0.8,0.4-1.6,0.6-2.4
	l1.1,7.3h10.3l1.4-9.4c0.7,1.3,1.4,3.1,2.1,4.8c1.6,3.9,2.9,7.9,3.1,8.5l0,1.9c0,0.3,0.2,0.6,0.5,0.7c0.2,0,0.3,0,0.4,0
	c0,0.1,0,0.1,0,0.2c0,0.3,0,0.6-0.1,0.9l0,0l0,0c-0.1,0.6,0.3,1.1,0.9,1.2c0.2,0,0.4,0,0.6-0.1c0,0.2,0.1,0.4,0.1,0.6
	c0.1,0.4,0.2,0.8,0.3,1.2l0,0c0.2,0.5,0.7,0.8,1.3,0.6c0.5-0.2,0.8-0.7,0.6-1.3l0,0c-0.1-0.3-0.2-0.6-0.2-0.9c0-0.1,0-0.1,0-0.2
	c0.1,0,0.2,0,0.2,0c0.4-0.1,0.6-0.5,0.6-0.8l-0.4-1.8c0-0.2,0.2-1.1,0.3-2.4c0.2-1.5,0.5-3.4,0.9-5.3c0.2-1,0.4-1.9,0.6-2.8
	c0.2-0.9,0.4-1.7,0.6-2.3c0.1-0.3,0.2-0.6,0.3-0.8c0.1-0.1,0.1-0.2,0.2-0.3c0.1-0.1,0.2-0.3,0.3-0.4c0.1-0.1,0.1-0.1,0.1-0.1
	l0.1-0.1c0-0.1,0.1-0.2,0.1-0.2C43.1,30,42.6,28.8,41.6,28.3z"/>
</svg>
