<?xml version="1.0" encoding="iso-8859-1"?>
<!-- Generator: Adobe Illustrator 19.1.0, SVG Export Plug-In . SVG Version: 6.00 Build 0)  -->
<!DOCTYPE svg PUBLIC "-//W3C//DTD SVG 1.1//EN" "http://www.w3.org/Graphics/SVG/1.1/DTD/svg11.dtd">
<svg version="1.1" xmlns="http://www.w3.org/2000/svg" xmlns:xlink="http://www.w3.org/1999/xlink" x="0px" y="0px"
	 viewBox="0 0 512 512" enable-background="new 0 0 512 512" xml:space="preserve">
<g id="Layer_2">
	<path fill="#00B1FF" d="M482.405,205.593c0-46.41-25.138-78.075-30.294-106.083c-0.001,0.001-0.003,0.001-0.004,0.002
		c-0.17-1.13-0.354-2.279-0.583-3.416c-0.555-2.911-1.074-6.199-1.843-9.414c-1.407-6.567-3.139-13.624-5.298-20.643
		c-4.093-14.109-9.891-28.108-15.721-38.429c-2.909-5.16-5.695-9.422-7.844-12.379c-2.107-2.969-3.587-4.601-3.587-4.601
		l-0.115-0.127c-2.825-3.114-7.64-3.348-10.753-0.523c-0.852,0.773-1.5,1.729-1.918,2.724c0,0-1.427,1.997-1.852,5.665
		c-7.273,62.845-80.161,45.306-85.483,59.351c-3.395,8.958-0.632,12.536,3.386,16.558c1.693,1.695,3.838,2.676,6.045,2.943
		c-0.063,0.013,0.711,0.086,1.496,0.363c0.789,0.209,2.072,0.662,3.838,1.025c3.429,0.823,8.321,2.032,13.939,3.483
		c2.817,0.672,5.797,1.622,8.896,2.503c3.123,0.741,6.256,2.052,9.538,2.88c3.144,1.349,6.533,2.107,9.693,3.546
		c3.217,1.285,6.482,2.463,9.542,4.029c3.231,1.224,6.148,2.975,9.156,4.452c3.099,1.338,5.728,3.327,8.595,4.807
		c2.946,1.378,5.28,3.495,7.921,4.989c2.688,1.452,4.909,3.31,7.135,4.889c0.022,0.016,0.044,0.033,0.067,0.051
		c1.946,1.471,3.78,3.073,5.512,4.768c1.906,6.173,2.686,12.677,2.057,19.245c-1.432,14.931-8.018,29.432-19.716,40.616
		c-19.35,18.499-44.463,17.947-70.358,15.426l-46.496-4.753c0.209-20.037,2.171-40.974,4.201-57.511
		c1.777-14.474-13.009-25.204-26.277-19.153c-56.468,25.756-80.537,56.985-90.777,78.057c-1.23,0.397-2.46,0.803-3.688,1.229
		C85.883,241.64,38.711,330.827,59.916,416.417c1.438,28.198-13.931,49.145-28.318,64.886c-16.033,17.54,3.819,33.405,33.828,25.385
		c30.009-8.02,45.642-7.457,105.557-28.252c18.555-6.44,34.382-11.607,46.25-15.363c12.813-4.055,39.806,0.807,48.808,10.786
		c2.232,2.474,4.561,4.784,6.835,6.612c1.243,1.1,2.48,2.091,3.691,2.922c2.739,1.895,5.573,3.676,8.555,5.2
		c2.939,1.575,6.147,2.746,9.27,3.856c6.339,2.109,12.955,3.239,19.156,3.571c3.086,0.183,6.102,0.127,8.912-0.087
		c2.689-0.069,5.245-0.383,7.426-0.733c2.07-0.216,3.996-0.747,5.221-1.002c1.245-0.28,1.91-0.429,1.91-0.429
		c3.493-0.786,6.172-3.838,6.32-7.585c0,0,0.027-0.68,0.077-1.956c0.03-1.251,0.204-3.242,0.044-5.316
		c-0.049-2.209-0.201-4.78-0.619-7.436c-0.296-2.803-0.785-5.779-1.523-8.781c-1.446-6.039-3.751-12.342-6.969-18.197
		c-1.656-2.872-3.386-5.816-5.466-8.422c-1.806-2.358-3.797-4.56-5.869-6.67C415.774,397.339,482.405,309.257,482.405,205.593z"/>
</g>
<g id="Layer_3">
	<path fill="#2B3B47" d="M136.236,353.747c9.085-3.153,19.018,1.648,22.181,10.763l7.021,20.23
		c3.158,9.1-1.658,19.039-10.744,22.192l0,0c-9.1,3.158-19.038-1.66-22.196-10.76l-7.021-20.23
		C122.314,366.828,127.136,356.905,136.236,353.747L136.236,353.747z"/>
</g>
<g id="Layer_4">
	<path fill="#7EDBFC" d="M173.441,33.676l-27.405,6.038c-8.52,1.14-16.353-4.841-17.493-13.364
		c-1.143-8.521,4.841-16.353,13.364-17.495c3.173-0.425,6.245,0.137,8.916,1.452l24.074,14.419c2.349,1.151,3.318,3.991,2.168,6.34
		C176.346,32.531,174.94,33.465,173.441,33.676z M150.534,99.99c-1.413-2.201-4.344-2.845-6.546-1.432l-24.808,13.116
		c-2.509,1.603-4.581,3.939-5.862,6.873c-3.44,7.881,0.157,17.057,8.037,20.496c7.88,3.442,17.054-0.157,20.495-8.035l9.039-26.566
		C151.484,103.05,151.415,101.364,150.534,99.99z M254.139,66.947c0.728-2.405-0.629-4.948-3.034-5.676l-25.05-9.955
		c-2.736-0.834-5.735-0.892-8.678,0c-7.904,2.398-12.368,10.748-9.97,18.65c2.396,7.904,10.746,12.366,18.648,9.97l25.05-9.954
		C252.495,69.549,253.683,68.447,254.139,66.947z"/>
</g>
<g id="Layer_5">
	<path fill="#7EDBFC" d="M272.876,480.471c-2.274-1.828-4.603-4.138-6.835-6.612c-9.003-9.979-35.996-14.841-48.809-10.786
		c-11.868,3.756-27.695,8.923-46.25,15.363c-59.914,20.794-75.548,20.232-105.557,28.252c-25.37,6.78,120.622-45.232,173.15-73.552
		c6.455,18.902,23.972,36.501,28.483,41.501C268.959,476.744,270.924,478.745,272.876,480.471z M303.549,413.107
		c2.807,2.656,4.696,4.588,5.337,4.983c4.71,2.898,9.258,6.408,13.336,10.508c0.261,0.26,0.516,0.528,0.775,0.791
		c69.662-24.077,124.569-79.738,147.606-149.876C444.861,354.04,343.833,396.844,303.549,413.107z"/>
</g>
</svg>
