<?xml version="1.0" encoding="iso-8859-1"?>
<!-- Generator: Adobe Illustrator 18.1.1, SVG Export Plug-In . SVG Version: 6.00 Build 0)  -->
<!DOCTYPE svg PUBLIC "-//W3C//DTD SVG 1.1//EN" "http://www.w3.org/Graphics/SVG/1.1/DTD/svg11.dtd">
<svg version="1.1" xmlns="http://www.w3.org/2000/svg" xmlns:xlink="http://www.w3.org/1999/xlink" x="0px" y="0px"
	 viewBox="0 0 512 512" enable-background="new 0 0 512 512" xml:space="preserve">
<g id="Layer_6">
	<path fill="#FF473E" d="M59.639,449.102c0,0,1.499-0.547,4.309-1.574c1.407-0.506,3.143-1.129,5.184-1.862
		c2.063-0.73,4.321-1.599,7.125-2.45c2.756-0.876,5.806-1.847,9.128-2.903c1.665-0.524,3.397-1.069,5.194-1.634
		c1.805-0.562,3.615-1.05,5.519-1.606c3.794-1.088,7.831-2.246,12.087-3.467c1.065-0.305,2.143-0.614,3.235-0.927
		c1.094-0.286,2.202-0.576,3.322-0.869c2.242-0.582,4.536-1.178,6.878-1.786c4.687-1.2,9.566-2.521,14.627-3.758
		c5.057-1.253,10.308-2.45,15.698-3.723c5.388-1.297,10.94-2.494,16.614-3.74c5.673-1.247,11.47-2.531,17.384-3.724
		c5.919-1.164,11.937-2.348,18.028-3.546c6.091-1.209,12.273-2.332,18.515-3.409c6.241-1.08,12.523-2.224,18.848-3.27
		c6.336-0.986,12.696-1.977,19.056-2.967c3.182-0.487,6.356-1.015,9.545-1.442c3.189-0.431,6.374-0.862,9.553-1.292
		c6.358-0.864,12.691-1.723,18.983-2.512c6.309-0.706,12.567-1.406,18.75-2.097c3.092-0.336,6.166-0.669,9.218-1
		c3.055-0.311,6.101-0.562,9.117-0.82c6.033-0.508,11.965-1.008,17.771-1.497c2.9-0.251,5.785-0.41,8.636-0.565
		c2.849-0.161,5.663-0.32,8.44-0.477c5.552-0.306,10.952-0.603,16.176-0.891c5.247-0.118,10.316-0.233,15.183-0.343
		c4.868-0.084,9.515-0.268,13.963-0.255c4.453,0.07,8.677,0.137,12.646,0.2c3.965,0.07,7.676,0.136,11.107,0.197
		c1.71,0.016,3.371,0.149,4.95,0.237c1.58,0.095,3.087,0.186,4.517,0.272c5.718,0.328,10.203,0.673,13.259,0.875
		c3.054,0.227,4.683,0.349,4.683,0.349c8.314,0.619,14.551,7.86,13.932,16.174c-0.571,7.668-6.776,13.57-14.26,13.955l-0.688,0.034
		c0,0-1.557,0.082-4.475,0.235c-2.917,0.128-7.193,0.364-12.624,0.553c-1.357,0.052-2.787,0.106-4.287,0.163
		c-1.5,0.063-3.063,0.09-4.712,0.239c-3.287,0.222-6.842,0.462-10.64,0.719c-3.794,0.249-7.831,0.514-12.086,0.794
		c-4.258,0.289-8.752,0.739-13.428,1.127c-4.677,0.405-9.549,0.828-14.591,1.265c-5.049,0.516-10.268,1.049-15.634,1.597
		c-2.682,0.276-5.4,0.556-8.153,0.839c-2.752,0.277-5.536,0.559-8.352,0.935c-5.634,0.668-11.39,1.35-17.243,2.044
		c-2.927,0.342-5.878,0.687-8.851,1.035c-2.972,0.394-5.964,0.79-8.976,1.189c-6.024,0.777-12.121,1.564-18.266,2.357
		c-6.142,0.871-12.332,1.749-18.547,2.63c-3.108,0.435-6.222,0.871-9.34,1.307c-3.114,0.469-6.232,0.939-9.349,1.408
		c-6.235,0.942-12.471,1.885-18.682,2.823c-6.21,0.947-12.384,1.984-18.517,2.961c-12.281,1.874-24.302,4.076-35.983,5.971
		c-5.824,1.026-11.55,2.035-17.156,3.023c-5.608,0.976-11.103,1.91-16.415,2.947c-5.324,0.996-10.494,2.007-15.517,2.889
		c-5.017,0.907-9.823,1.902-14.461,2.792c-9.287,1.783-17.717,3.538-25.215,5.071c-1.862,0.39-3.717,0.74-5.412,1.129
		c-1.706,0.375-3.351,0.737-4.932,1.084c-3.169,0.686-6.079,1.316-8.708,1.885c-1.313,0.281-2.556,0.545-3.776,0.864
		c-1.209,0.29-2.342,0.562-3.397,0.815c-2.109,0.506-3.903,0.936-5.357,1.285c-2.913,0.683-4.467,1.047-4.467,1.047l-0.049,0.011
		c-8.128,1.905-16.261-3.139-18.167-11.267C48.342,459.219,52.546,451.683,59.639,449.102z"/>
</g>
<g id="Layer_1">
</g>
</svg>
