<?xml version="1.0" encoding="iso-8859-1"?>
<!-- Generator: Adobe Illustrator 18.1.1, SVG Export Plug-In . SVG Version: 6.00 Build 0)  -->
<!DOCTYPE svg PUBLIC "-//W3C//DTD SVG 1.1//EN" "http://www.w3.org/Graphics/SVG/1.1/DTD/svg11.dtd">
<svg version="1.1" xmlns="http://www.w3.org/2000/svg" xmlns:xlink="http://www.w3.org/1999/xlink" x="0px" y="0px"
	 viewBox="0 0 512 512" enable-background="new 0 0 512 512" xml:space="preserve">
<g id="Layer_2">
	<path fill="#D32A2A" d="M120.563,304.401v0.199c-43.902,2.838-78.638,39.325-78.638,83.944s34.736,81.106,78.638,83.944v0.199
		h81.488V304.401H120.563z"/>
</g>
<g id="Layer_3">
	<path fill="#132028" d="M57.041,173.52v0.155c-30.374,2.207-54.407,30.584-54.407,65.286s24.032,63.078,54.407,65.286v0.155h56.379
		V173.52H57.041z"/>
</g>
<g id="Layer_4">
	<path fill="#005877" d="M145.275,26.809v0.173c-34.048,2.474-60.987,34.283-60.987,73.182s26.939,70.708,60.987,73.182v0.173h74.39
		V26.809H145.275z"/>
</g>
<g id="Layer_5">
	<path fill="#00B1FF" d="M458.673,142.072V58.258c0-4.396,3.564-7.96,7.96-7.96h16.712c4.396,0,7.96-3.564,7.96-7.96v-7.57
		c0-4.396-3.564-7.96-7.96-7.96h-255.78c-4.396,0-7.96,3.564-7.96,7.96v130.792c0,4.396,3.564,7.96,7.96,7.96h255.78
		c4.396,0,7.96-3.564,7.96-7.96v-7.57c0-4.396-3.564-7.96-7.96-7.96h-16.712C462.237,150.031,458.673,146.468,458.673,142.072z"/>
</g>
<g id="Layer_6">
	<path fill="#445056" d="M417.803,197.862h50.514c5.975,0,10.819-3.734,10.819-8.341v-7.661c0-4.606-4.844-8.341-10.819-8.341
		H111.215v0.198c-29.736,2.488-53.188,30.736-53.188,65.242s23.452,62.754,53.188,65.242v0.198h357.102
		c5.975,0,10.819-3.734,10.819-8.341v-8.364c0-4.606-4.844-8.341-10.819-8.341h-50.514c-5.975,0-10.819-3.734-10.819-8.341v-64.812
		C406.984,201.596,411.828,197.862,417.803,197.862z"/>
</g>
<g id="Layer_7">
	<path fill="#DCE2E2" d="M454.328,279.356l-2.115-1.955c-1.004-1.004-1.004-2.632,0-3.635l2.294-2.294
		c1.004-1.004,1.004-2.632,0-3.635l-2.294-2.294c-1.004-1.004-1.004-2.631,0-3.635l2.294-2.294c1.004-1.004,1.004-2.632,0-3.635
		l-2.294-2.294c-1.004-1.004-1.004-2.631,0-3.635l2.294-2.294c1.004-1.004,1.004-2.632,0-3.635l-2.294-2.294
		c-1.004-1.004-1.004-2.631,0-3.635l2.294-2.294c1.004-1.004,1.004-2.632,0-3.635l-2.294-2.294c-1.004-1.004-1.004-2.631,0-3.635
		l2.294-2.294c1.004-1.004,1.004-2.632,0-3.635l-2.294-2.294c-1.004-1.004-1.004-2.632,0-3.635l2.294-2.294
		c1.004-1.004,1.004-2.632,0-3.635l-2.294-2.294c-1.004-1.004-1.004-2.632,0-3.635l2.294-2.294c1.004-1.004,1.004-1.501,0-2.504
		l-4.111,0.036H125.894c-2.946-0.964-6.046-1.489-9.25-1.489c-19.171,0-34.712,18.425-34.712,41.154s15.541,41.154,34.712,41.154
		v0.836h333.753"/>
</g>
<g id="Layer_8">
	<path fill="#0074A8" d="M219.605,26.809c-40.513,0-73.355,32.842-73.355,73.355s32.842,73.355,73.355,73.355h36.678V26.809H219.605
		z"/>
</g>
<g id="Layer_9">
	<path fill="#DCE2E2" d="M478.974,66.903c1.004-1.004,1.004-2.631,0-3.635l-2.294-2.294c-1.004-1.004-1.004-2.632,0-3.635
		l2.294-2.294c1.004-1.004,1.165-3.743,0.162-4.747l-4.273,0H223.054c-27.54,0-49.866,22.326-49.866,49.866
		s22.326,49.866,49.866,49.866h251.809h4.122c1.004-1.004,0.994-2.754-0.01-3.758l-2.294-2.294c-1.004-1.004-1.004-2.631,0-3.635
		l2.294-2.294c1.004-1.004,1.004-2.632,0-3.635l-2.294-2.294c-1.004-1.004-1.004-2.631,0-3.635l2.294-2.294
		c1.004-1.004,1.004-2.632,0-3.635l-2.294-2.294c-1.004-1.004-1.004-2.631,0-3.635l2.294-2.294c1.004-1.004,1.004-2.632,0-3.635
		l-2.294-2.294c-1.004-1.004-1.004-2.631,0-3.635l2.294-2.294c1.004-1.004,1.004-2.632,0-3.635l-2.294-2.294
		c-1.004-1.004-1.004-2.631,0-3.635l2.294-2.294c1.004-1.004,1.004-2.632,0-3.635l-2.294-2.294c-1.004-1.004-1.004-2.631,0-3.635
		l2.294-2.294c1.004-1.004,1.004-2.632,0-3.635l-2.294-2.294c-1.004-1.004-1.004-2.632,0-3.635L478.974,66.903z"/>
</g>
<g id="Layer_10">
	<path fill="#FF473E" d="M478.809,331.344h19.17c5.042,0,9.13-4.088,9.13-9.13v-8.683c0-5.042-4.088-9.13-9.13-9.13H192.695
		c-0.792,0-1.555,0.111-2.288,0.301c-2.259-0.182-4.536-0.301-6.843-0.301c-46.471,0-84.143,37.672-84.143,84.143
		s37.672,84.143,84.143,84.143c2.306,0,4.583-0.119,6.843-0.301c0.732,0.189,1.496,0.301,2.288,0.301h305.283
		c5.042,0,9.13-4.088,9.13-9.13v-8.683c0-5.042-4.088-9.13-9.13-9.13h-19.17c-5.042,0-9.13-4.088-9.13-9.13v-96.139
		C469.679,335.432,473.767,331.344,478.809,331.344z"/>
</g>
<g id="Layer_11">
	<path fill="#DCE2E2" d="M493.309,350.901c1.104-1.104,1.104-2.895,0-3.999l-2.523-2.523c-1.104-1.104-1.104-2.895,0-3.999
		l2.523-2.523c1.104-1.104,1.104-2.895,0-3.999l-2.45-2.513h-2.073H187.521c-31.59,0-57.199,25.609-57.199,57.199
		s25.609,57.199,57.199,57.199h301.265l1,0l3.523-3.523c1.104-1.104,1.104-2.895,0-3.999l-2.523-2.523
		c-1.104-1.104-1.104-2.895,0-3.999l2.523-2.523c1.104-1.104,1.104-2.895,0-4l-2.523-2.523c-1.104-1.104-1.104-2.895,0-3.999
		l2.523-2.523c1.104-1.104,1.104-2.895,0-3.999l-2.523-2.523c-1.104-1.104-1.104-2.895,0-4l2.523-2.523
		c1.104-1.104,1.104-2.895,0-3.999l-2.523-2.523c-1.104-1.104-1.104-2.895,0-3.999l2.523-2.523c1.104-1.104,1.104-2.895,0-4
		l-2.523-2.523c-1.104-1.104-1.104-2.895,0-3.999l2.523-2.523c1.104-1.104,1.104-2.895,0-3.999l-2.523-2.523
		c-1.104-1.104-1.104-2.895,0-3.999l2.523-2.523c1.104-1.104,1.104-2.895,0-3.999l-2.523-2.523c-1.104-1.104-1.104-2.895,0-3.999
		L493.309,350.901z"/>
</g>
</svg>
