<?xml version="1.0" encoding="utf-8"?>
<!-- Generator: Adobe Illustrator 18.0.0, SVG Export Plug-In . SVG Version: 6.00 Build 0)  -->
<!DOCTYPE svg PUBLIC "-//W3C//DTD SVG 1.1 Tiny//EN" "http://www.w3.org/Graphics/SVG/1.1/DTD/svg11-tiny.dtd">
<svg version="1.1" baseProfile="tiny" id="Layer_1" xmlns="http://www.w3.org/2000/svg" xmlns:xlink="http://www.w3.org/1999/xlink"
	 x="0px" y="0px" width="511.9px" height="511.9px" viewBox="0 0 511.9 511.9" xml:space="preserve">
<path fill="#FF473E" d="M470.1,414.2c0,0-4.8-1.9-12.8-5.8c-2-1-4.2-2.1-6.6-3.3c-2.8-1.8-5.8-4.2-9-6.6c-6.4-4.9-14-10.7-19.8-17.5
	c-6.7-6.5-13.2-14.3-18.9-23.4c-6.5-8.7-11.2-19-16.2-29.7c-3.7-11.1-8.8-22.4-10.4-34.7c-2.8-12.1-3.3-24.7-4.1-37.3
	c0.8-12.6,1.3-25.1,4.1-37.3c1.6-12.3,6.7-23.6,10.4-34.7c5.1-10.7,9.7-21,16.2-29.7c5.7-9.1,12.2-16.9,18.9-23.4
	c6-7,12.9-12.1,18.9-16.6c5.7-4.8,11.3-8,16.1-10.4c9.4-5,14.8-7.3,14.8-7.3c14.6-6.3,31.6,0.5,37.9,15.1c3.7,8.7,2.9,18.2-1.6,25.9
	l-3.3,5.5c0,0-2.3,3.9-6.4,9.9c-4.3,5.7-9.3,14.7-14.4,24.9c-2.7,5.1-5,10.7-7.2,16.8c-2.8,5.7-3.5,12.7-6.1,18.9
	c-2.7,13.5-5.1,27.8-5,42.3c-0.1,14.5,2.3,28.8,5,42.3c2.6,6.2,3.3,13.2,6.1,18.9c2.2,6,4.5,11.7,7.2,16.8c2.5,5.6,4.7,9.3,6.7,13.1
	c1,2,1.9,3.9,2.7,5.6c1.7,2.1,3.2,4,4.5,5.8c5.4,7.1,8.3,11.4,8.3,11.4c9.2,13.7,5.6,32.2-8.1,41.4C489.5,417,479,417.7,470.1,414.2
	z"/>
</svg>
