<?xml version="1.0" encoding="utf-8"?>
<!-- Generator: Adobe Illustrator 18.1.0, SVG Export Plug-In . SVG Version: 6.00 Build 0)  -->
<!DOCTYPE svg PUBLIC "-//W3C//DTD SVG 1.0//EN" "http://www.w3.org/TR/2001/REC-SVG-20010904/DTD/svg10.dtd">
<svg version="1.0" id="Layer_1" xmlns="http://www.w3.org/2000/svg" xmlns:xlink="http://www.w3.org/1999/xlink" x="0px" y="0px"
	 width="72px" height="72px" viewBox="0 0 72 72" enable-background="new 0 0 72 72" xml:space="preserve">
<path fill="#FFD3B6" d="M63.5,44.6c0-2.5-1.8-4.5-4.1-4.9l0.8-12.4c0-12.9-11.1-19.6-24.1-19.6c-12.9,0-22.7,6.7-22.7,19.6l1.4,21.6
	c0,12.1,9.8,21.9,21.9,21.9c11.9,0,21.5-9.4,21.9-21.2C61.4,49.5,63.5,47.3,63.5,44.6z"/>
<path fill="#EDC0A2" d="M34.9,68.5c-5,0-9.7-1.5-13.5-4.1c4,4,9.4,6.4,15.5,6.4c12.1,0,21.9-9.8,21.9-21.9l0.1-1.1
	C57.2,59.5,47.1,68.5,34.9,68.5z"/>
<path fill="#FF929D" d="M43.7,58.9c-1.6-0.5-3.2-1.5-4.8-1.6c-1-0.1-1.7,0.6-1.9,0.7c-0.2,0-1.2-0.7-2.2-0.7c-1.6,0-2.9,0.9-4.5,1.6
	c-0.8,0.3-1.4,0.4-1.9,0.3c-0.3,0-0.5,0.3-0.3,0.6c1.2,1.5,4.1,4.5,9,4.5c5,0,7.9-3.1,9.1-4.6c0.2-0.3,0-0.6-0.3-0.6
	C45.3,59.2,44.6,59.1,43.7,58.9z"/>
<path fill="#2B3B47" d="M24.9,39.1v3.4v0c0,0,0,0,0,0c0,1.4-1.1,2.4-2.4,2.4c-1.4,0-2.4-1.1-2.4-2.4c0,0,0,0,0,0h0v-3.4h0
	c0.1-1.3,1.2-2.2,2.4-2.2C23.7,36.8,24.8,37.8,24.9,39.1L24.9,39.1z M53.5,39.1c-0.1-1.3-1.1-2.2-2.4-2.2c-1.3,0-2.3,1-2.4,2.2h0
	v3.4h0c0,0,0,0,0,0c0,1.4,1.1,2.4,2.4,2.4c1.3,0,2.4-1.1,2.4-2.4c0,0,0,0,0,0v0L53.5,39.1L53.5,39.1z"/>
<path fill="#959DA3" d="M22.1,38.9v0.8l0,0v0c0,0.3-0.3,0.6-0.6,0.6c-0.3,0-0.6-0.3-0.6-0.6v0h0v-0.8h0c0-0.3,0.3-0.5,0.6-0.5
	C21.9,38.4,22.1,38.6,22.1,38.9L22.1,38.9z M50.8,38.9c0-0.3-0.3-0.5-0.6-0.5c-0.3,0-0.6,0.2-0.6,0.5h0v0.8h0v0
	c0,0.3,0.3,0.6,0.6,0.6c0.3,0,0.6-0.3,0.6-0.6v0l0,0L50.8,38.9L50.8,38.9z"/>
<path fill="#E5AB83" d="M36.9,52C36.9,52,36.8,52,36.9,52c-1.6,0-3.1-0.8-4-2.2c-0.3-0.4-0.1-1,0.3-1.3c0.5-0.3,1-0.1,1.3,0.3
	c0.5,0.8,1.4,1.3,2.4,1.3c0,0,0,0,0,0c1,0,1.9-0.5,2.4-1.3c0.3-0.4,0.9-0.6,1.3-0.3c0.4,0.3,0.6,0.9,0.3,1.3
	C40,51.2,38.5,52,36.9,52z M47.3,32.4c-0.4,0.3-0.5,0.9-0.2,1.3s0.9,0.5,1.3,0.2c0,0,0.1-0.1,0.2-0.2c0.1-0.1,0.1-0.1,0.2-0.2
	c0.1-0.1,0.2-0.1,0.3-0.2c0.5-0.3,1.3-0.5,2-0.4c0.8,0,1.5,0.3,1.9,0.6c0.1,0.1,0.2,0.2,0.3,0.2c0.1,0.1,0.2,0.2,0.2,0.2
	c0.1,0.1,0.2,0.2,0.2,0.2l0,0.1c0.2,0.2,0.5,0.2,0.7,0.1c0.2-0.2,0.3-0.5,0.2-0.7c0,0-0.1-0.1-0.2-0.3c-0.1-0.1-0.1-0.2-0.2-0.3
	c-0.1-0.1-0.2-0.3-0.4-0.4c-0.6-0.6-1.5-1.1-2.6-1.2c-1-0.2-2.1,0-2.8,0.3c-0.2,0.1-0.4,0.1-0.5,0.2c-0.2,0.1-0.3,0.2-0.4,0.2
	c-0.2,0.1-0.3,0.2-0.3,0.2C47.4,32.4,47.3,32.4,47.3,32.4z M24.9,34c0.5,0.3,1.1,0.1,1.3-0.4c0.3-0.5,0.1-1.1-0.4-1.3
	c0,0-0.1-0.1-0.3-0.2c-0.1,0-0.2-0.1-0.4-0.2c-0.2-0.1-0.3-0.1-0.5-0.2c-0.7-0.3-1.8-0.4-2.8-0.3c-1,0.1-2,0.7-2.6,1.2
	c-0.2,0.1-0.3,0.3-0.4,0.4c-0.1,0.1-0.2,0.2-0.2,0.3c-0.1,0.2-0.2,0.3-0.2,0.3c-0.1,0.2-0.1,0.5,0.1,0.7c0.2,0.2,0.5,0.2,0.7-0.1
	l0-0.1c0,0,0.1-0.1,0.2-0.2c0.1-0.1,0.1-0.1,0.2-0.2c0.1-0.1,0.2-0.2,0.3-0.2c0.4-0.3,1.2-0.6,1.9-0.6c0.8,0,1.5,0.2,2,0.4
	c0.1,0.1,0.2,0.1,0.3,0.2c0.1,0.1,0.1,0.1,0.2,0.2c0.2,0.1,0.2,0.2,0.2,0.2C24.8,34,24.9,34,24.9,34z"/>
<path fill="#68442A" d="M62.6,41.8c-0.2-0.2-0.3-0.4-0.5-0.6c0-0.1-0.1-0.1-0.1-0.2c-0.1-0.1-0.2-0.2-0.3-0.3
	c-0.7,1.2-2.2,1.3-2.2-0.6c0-0.1,0-0.3,0-0.4c0,0,0,0-0.1,0l0-0.5c-0.3-6.3-3.2-18.4-18.4-19.8c-2.7,3.6-7,7-13.1,9.2
	C18.3,32.2,16,40.2,14.7,45.5l0.2,3.3c0,0.5,0,1.1,0.1,1.6c0,0.2,0,0.3,0.1,0.5c0,0.4,0.1,0.7,0.1,1.1c0,0.2,0.1,0.4,0.1,0.6
	c0.1,0.4,0.1,0.7,0.2,1.1c0,0.2,0.1,0.3,0.1,0.5c0.7,2.7,1.9,5.3,3.5,7.5h-2.3h-2.5c-1.3,0-2.4-0.8-2.8-2c-1.2-3.1-3.2-9.5-3.2-16.1
	c0-10.6,1.5-17.8,3-22.4c2.3-11.7,12.2-20,24.7-20c12.1,0,16.2,6.5,16.2,6.5s10.6,2,10.6,18.8C62.9,26.5,62.9,33.8,62.6,41.8z
	 M61.6,48.5c-0.1,0.1-0.2,0.2-0.3,0.2c-0.2,0.1-0.4,0.2-0.6,0.3c-0.1,0-0.2,0.1-0.2,0.1c-0.2,0.1-0.5,0.2-0.7,0.3c0,0-0.1,0-0.1,0
	c-0.3,0.1-0.6,0.1-0.9,0.1c-0.2,4.5-1.7,8.7-4.2,12.1h3.5h0.1c1.4,0,2.7-1,3-2.4c0.6-2.6,1-6.9,1.2-11.6c-0.1,0.2-0.3,0.3-0.4,0.5
	C61.8,48.3,61.7,48.4,61.6,48.5z"/>
<path fill="#D7DDDD" d="M66,26.6C66,13.1,55.3,2.2,42,1.8C49.3,3.3,52,7.4,52.2,7.7c-9.2,7.8-23.9,7.6-32.9-0.4
	c3.1-2.7,7-4.6,11.3-5.5C17.1,1.9,6.1,13,6.1,26.6c0,0.6,0,1.2,0.1,1.7c0,0.2-0.1,0.4-0.1,0.6v36c0,1.6,1.3,2.9,2.9,2.9l17,0
	c-2.7-1.6-5.1-3.7-6.9-6.3c0,0.1,0.1,0.1,0.1,0.2h-2.3h-2.5c-1.3,0-2.4-0.8-2.8-2c-1.2-3.1-3.2-9.5-3.2-16.1c0-10.6,1.5-17.8,3-22.4
	c1-5,3.4-9.4,6.8-12.8c4.9,4.4,11.4,6.6,17.9,6.6c6.6,0,13.1-2.2,18-6.7c3,1.4,8.8,5.7,8.8,18.1c0,0,0,7.3-0.2,15.3
	c0.6,0.8,0.9,1.8,0.9,2.8c0,1.2-0.4,2.3-1.1,3.1c0,0,0,0,0,0c-0.3,4.7-0.6,9-1.2,11.6c-0.3,1.4-1.5,2.4-3,2.4h-0.1h-3.5
	c0,0,0-0.1,0.1-0.1c-1.8,2.5-4.2,4.7-7,6.3l15.3,0c1.6,0,2.9-1.3,2.9-2.9V28.9c0,0,0,0,0,0C66,28.1,66,27.4,66,26.6z"/>
<path fill="#FFFFFF" d="M38.7,12.8c-0.5-0.1-1-0.1-1.4,0.1c-0.1,0-0.2,0-0.2-0.2c0.1-0.5,0-0.9-0.3-1.3c-0.2-0.3-0.4-0.5-0.7-0.7
	c-0.3,0.2-0.5,0.4-0.7,0.7c-0.3,0.4-0.3,0.9-0.3,1.3c0,0.1-0.1,0.2-0.2,0.2c-0.4-0.2-0.9-0.2-1.4-0.1c-0.2,0.1-0.3,0.1-0.5,0.2
	c0,0.2,0.1,0.3,0.2,0.5c0.3,0.5,0.8,0.9,1.4,0.9c0.1,0,0.1,0.2,0.1,0.2c-0.4,0.4-0.7,0.9-0.7,1.6c0,0.2,0,0.4,0.1,0.5c0,0,0,0,0,0
	c0.2,0,0.4,0,0.5-0.1c0.7-0.2,1.2-0.7,1.4-1.4c0,0,0,0,0-0.1c0-0.1,0-0.2,0-0.3c0,0.1,0,0.3,0.1,0.4c0.2,0.7,0.7,1.2,1.4,1.4
	c0.2,0.1,0.4,0.1,0.5,0.1l0,0c0-0.2,0.1-0.4,0.1-0.5c0-0.8-0.4-1.4-1-1.8l0,0c-0.1-0.1-0.1-0.1,0,0c0,0,0,0,0.1,0
	c0.7,0,1.4-0.3,1.7-1c0.1-0.2,0.2-0.3,0.2-0.5C39.1,13,38.9,12.9,38.7,12.8z M36.2,14.3L36.2,14.3L36.2,14.3L36.2,14.3L36.2,14.3
	L36.2,14.3L36.2,14.3L36.2,14.3L36.2,14.3L36.2,14.3z M29.4,12.6c-0.1,0-0.2-0.1-0.2-0.2c0.2-0.4,0.2-0.9,0-1.4
	c-0.1-0.3-0.3-0.6-0.5-0.8c-0.3,0.1-0.6,0.3-0.8,0.5c-0.4,0.4-0.6,1-0.5,1.6c0.4,0.3,0.6,0.8,0.6,1.3c0,0,0,0,0,0c0,0,0,0,0,0
	s0,0,0,0l0,0l0,0c0,0,0,0,0,0c0,0,0,0,0,0l0,0c0,0,0,0,0,0c0,0,0,0,0,0c0,0,0,0,0,0l0,0l0,0l0,0l0,0l0,0c0,0,0,0,0,0
	c0-0.5-0.3-1-0.6-1.3c-0.4-0.4-1-0.6-1.5-0.6c-0.2,0-0.4,0.1-0.5,0.1c0,0.2,0,0.4,0.1,0.5c0.3,0.7,0.9,1.2,1.5,1.3l0,0
	c-0.7,0.2-1.2,0.8-1.3,1.5c0,0.2,0,0.4,0,0.6c0,0,0,0,0,0c0.2,0,0.4,0.1,0.6,0c0.7-0.1,1.3-0.5,1.7-1.1c0,0,0,0,0-0.1
	c0-0.3,0-0.7,0.2-1l0,0c-0.2,0.3-0.2,0.7-0.2,1.1c0,0.7,0.4,1.4,1.1,1.7c0.2,0.1,0.3,0.1,0.5,0.2c0,0,0,0,0,0
	c0.1-0.2,0.2-0.3,0.2-0.5c0.1-0.6,0-1.2-0.4-1.7c-0.1-0.1,0-0.2,0.1-0.2c0.6,0,1.2-0.2,1.6-0.6c0.1-0.1,0.2-0.3,0.3-0.5
	c-0.1-0.1-0.3-0.2-0.4-0.3C30.3,12.6,29.9,12.5,29.4,12.6z M28,13.7L28,13.7L28,13.7L28,13.7z M22.3,10c-0.1,0-0.2-0.1-0.1-0.2
	c0.2-0.4,0.4-0.9,0.3-1.3c0-0.3-0.2-0.6-0.3-0.9c-0.3,0-0.6,0.1-0.9,0.3c-0.4,0.3-0.7,0.7-0.8,1.1c0,0.1-0.2,0.1-0.2,0.1
	c-0.3-0.3-0.7-0.6-1.2-0.7c-0.2,0-0.4,0-0.6,0c0,0.2,0,0.4,0,0.6c0.1,0.6,0.4,1.1,0.9,1.5c0.1,0.1,0.1,0.2,0,0.2
	c-0.6,0.2-1,0.5-1.3,1.1c-0.1,0.2-0.1,0.4-0.2,0.5c0,0,0,0,0,0c0.2,0.1,0.3,0.1,0.5,0.2c0.6,0.1,1.2-0.1,1.6-0.5
	c0.1-0.1,0.2,0,0.2,0.1c0,0.6,0.2,1.1,0.7,1.5c0.1,0.1,0.3,0.2,0.5,0.3c0,0,0,0,0,0c0.1-0.1,0.2-0.3,0.3-0.5c0.3-0.7,0.2-1.4-0.2-2
	l0,0c-0.2-0.3-0.5-0.5-0.8-0.7c0,0,0,0,0,0c0,0,0,0,0,0c0.4,0,0.8-0.2,1-0.4c-0.3,0.2-0.6,0.4-1,0.4c0.3,0.2,0.6,0.4,0.8,0.7
	c0,0,0,0,0.1,0c0.6,0.3,1.4,0.3,2-0.2c0.2-0.1,0.3-0.2,0.4-0.4c-0.1-0.2-0.2-0.3-0.4-0.4C23.2,10.2,22.7,10,22.3,10z M21.1,11
	c-0.1-0.1-0.3-0.2-0.5-0.3l0,0C20.9,10.8,21,10.9,21.1,11z M20.7,10.7L20.7,10.7L20.7,10.7L20.7,10.7L20.7,10.7L20.7,10.7L20.7,10.7
	L20.7,10.7z M45.3,12.2c-0.1,0.1-0.2,0-0.2-0.1c0-0.5-0.2-0.9-0.5-1.3c-0.2-0.2-0.5-0.4-0.8-0.5c-0.2,0.2-0.4,0.5-0.5,0.8
	c-0.2,0.5-0.2,0.9,0,1.4c0,0.1,0,0.2-0.2,0.2c-0.4-0.1-0.9,0-1.4,0.2c-0.2,0.1-0.3,0.2-0.4,0.3c0.1,0.2,0.2,0.3,0.3,0.5
	c0.4,0.5,1,0.7,1.6,0.6c0.1,0,0.2,0.1,0.1,0.2c-0.4,0.5-0.5,1.1-0.4,1.7c0,0.2,0.1,0.4,0.2,0.5c0,0,0,0,0,0c0.2,0,0.4-0.1,0.5-0.2
	c0.6-0.3,0.9-0.8,1-1.3c0-0.1,0.2-0.1,0.2,0c0.3,0.5,0.9,0.8,1.5,0.8c0.2,0,0.4,0,0.6,0c0-0.2,0-0.4,0-0.6c0,0.2,0,0.4,0,0.6
	c0,0,0,0,0,0c0-0.2,0-0.4,0-0.6c-0.1-0.6-0.5-1.1-1-1.4c-0.1-0.1-0.1-0.2,0-0.2c0.5-0.2,1-0.6,1.2-1.2c0.1-0.2,0.1-0.4,0.1-0.5
	c-0.2-0.1-0.3-0.1-0.5-0.1C46.1,11.8,45.7,11.9,45.3,12.2z M44.4,13.7C44.4,13.7,44.4,13.7,44.4,13.7C44.4,13.7,44.4,13.7,44.4,13.7
	C44.4,13.7,44.4,13.7,44.4,13.7C44.4,13.7,44.4,13.7,44.4,13.7z M44.4,13.7L44.4,13.7L44.4,13.7L44.4,13.7z M44.4,13.7L44.4,13.7
	L44.4,13.7C44.4,13.7,44.4,13.7,44.4,13.7C44.4,13.7,44.4,13.7,44.4,13.7z M54.5,11.7c-0.3-0.6-0.7-1-1.3-1.1c-0.1,0-0.1-0.2,0-0.2
	c0.5-0.3,0.8-0.8,0.9-1.5c0-0.2,0-0.4,0-0.6c-0.2,0-0.4,0-0.6,0C53,8.4,52.6,8.7,52.3,9C52.2,9.1,52.1,9.1,52,9
	c-0.1-0.4-0.4-0.8-0.8-1.1c-0.3-0.2-0.6-0.3-0.9-0.3C50.1,7.8,50,8.1,50,8.4c-0.1,0.5,0.1,1,0.3,1.3c0.1,0.1,0,0.2-0.1,0.2
	c-0.5,0-0.9,0.2-1.3,0.5c-0.1,0.1-0.3,0.3-0.4,0.4c0.1,0.1,0.2,0.3,0.4,0.4c0.5,0.3,1.1,0.4,1.7,0.3c0.1,0,0.2,0.1,0.2,0.2
	c-0.2,0.5-0.3,1.1,0,1.7c0.1,0.2,0.2,0.3,0.3,0.5c0,0,0,0,0,0c0.2-0.1,0.3-0.2,0.5-0.3c0.5-0.4,0.7-1,0.7-1.5c0-0.1,0.1-0.2,0.2-0.1
	c0.4,0.4,1,0.6,1.6,0.5c0.2,0,0.4-0.1,0.5-0.2c0,0,0,0,0,0C54.6,12.1,54.6,11.9,54.5,11.7z M51.8,10.7L51.8,10.7
	c0.2-0.1,0.4-0.1,0.5-0.2C52.1,10.6,51.9,10.6,51.8,10.7L51.8,10.7z M51.8,10.7c-0.2,0.1-0.3,0.2-0.5,0.3
	C51.4,10.9,51.6,10.8,51.8,10.7L51.8,10.7z M51.8,10.7L51.8,10.7L51.8,10.7L51.8,10.7z M50.7,10.3c0.3,0.2,0.6,0.4,1,0.4
	c0,0,0,0,0,0c0,0,0,0,0,0C51.4,10.7,51,10.5,50.7,10.3z M51.8,10.7L51.8,10.7C51.8,10.7,51.8,10.7,51.8,10.7
	C51.8,10.7,51.8,10.7,51.8,10.7z"/>
</svg>
