<svg xmlns="http://www.w3.org/2000/svg" viewBox="0 0 512 512" enable-background="new 0 0 512 512"><path fill="#00BC74" d="M492.435 364.927c-1.25-9.27-3.1-17.283-5.13-24.065-2.013-6.786-4.056-12.38-5.88-16.824-1.832-4.442-3.344-7.77-4.4-9.995l-1.63-3.352c-1.89-3.89-6.293-6.093-10.676-5.042-5.064 1.214-8.183 6.302-6.97 11.364l.068.28.796 3.32c.52 2.184 1.265 5.43 2.067 9.66.798 4.23 1.693 9.436 2.286 15.533.304 3.047.524 6.31.698 9.764.13 3.455.157 7.105.002 10.917-.334 7.615-1.314 15.893-3.548 24.322-2.256 8.4-5.806 16.963-10.99 24.594-2.596 3.804-5.57 7.38-8.932 10.464-3.352 3.083-7.066 5.7-10.907 7.564-3.83 1.882-7.806 2.934-11.33 3.113-.443.037-.874.025-1.3.03-.218.014-.424-.018-.634-.02-.18-.014-.492 0-.516-.038-.082-.026-.163-.044-.244-.053l-1.166-.078-.662-.044c-.255-.008.866 0 .333-.02l-.137-.028-.553-.105c-.736-.168-1.46-.385-2.18-.63-.72-.263-1.43-.586-2.143-.927-2.837-1.406-5.663-3.69-8.13-6.835-2.465-3.135-4.58-7.075-5.957-11.585-1.39-4.5-2.11-9.527-2.073-14.828.035-2.656.254-5.378.667-8.146.443-2.77 1.042-5.586 1.82-8.433 1.545-5.698 3.964-11.467 6.988-17.233.758-1.44 1.56-2.88 2.4-4.317.425-.695.873-1.48 1.273-2.106l1.238-1.94 1.597-2.428 2.022-3.167c1.325-2.137 2.653-4.287 3.913-6.504 5.068-8.837 9.654-18.29 13.42-28.42 3.77-10.12 6.69-20.94 8.31-32.355 1.602-11.41 1.927-23.428.305-35.697-1.63-12.245-5.19-24.746-11.347-36.652-6.142-11.867-14.918-23.223-26.93-32.187-5.993-4.466-12.796-8.3-20.296-11.07-7.485-2.773-15.682-4.445-24.04-4.65-8.354-.228-16.817 1.04-24.637 3.585-7.83 2.534-15.015 6.277-21.24 10.678-6.24 4.4-11.614 9.407-16.21 14.636-4.62 5.232-8.473 10.692-11.833 16.2-6.66 11.04-11.273 22.25-14.8 33.315-3.513 11.08-5.91 22.05-7.647 32.89-1.74 10.843-2.76 21.546-3.36 32.135-.275 5.288-.483 10.56-.54 15.787-.05 2.57-.04 5.44-.043 7.998l.032 3.614.01 3.4c-.03 7.9-.74 15.502-2.114 22.564-1.398 7.042-3.486 13.534-6.212 19.093-2.72 5.562-6.034 10.188-9.647 13.67-3.614 3.473-7.506 5.807-11.236 7.044-3.732 1.248-7.266 1.39-10.16.787-2.92-.61-5.157-1.863-7.07-3.716-1.907-1.853-3.65-4.496-4.895-8.382-1.25-3.846-1.908-8.835-1.73-14.423.152-5.582 1.128-11.73 2.716-17.992.803-3.136 1.76-6.308 2.848-9.486.544-1.59 1.126-3.18 1.727-4.77l.932-2.386.877-2.135 2.383-5.533c.87-2.06 1.734-4.114 2.597-6.16 1.696-4.098 3.308-8.182 4.86-12.25 3.093-8.136 5.918-16.21 8.493-24.225 5.146-16.027 9.338-31.8 12.55-47.3 3.182-15.507 5.416-30.73 6.515-45.673 1.09-14.942 1.067-29.61-.53-43.982-1.61-14.346-4.817-28.483-10.44-41.78-2.81-6.635-6.227-13.03-10.24-18.94-4.006-5.913-8.607-11.32-13.53-15.987-4.91-4.687-10.16-8.585-15.307-11.758-5.163-3.165-10.233-5.595-14.976-7.466-9.057-3.557-16.814-5.186-23.03-6.166-8.696-3.327-18.32-5.258-28.48-5.412-39.33-.594-100.3 25.207-105.197 57.74-.047.308-.082.633-.108.972-.74 9.696 7.34 17.818 17.065 17.746l40.555-.3c3.586-.027 5.18 4.49 2.374 6.72-11.518 9.162-29.363 24.33-21.268 24.33 18.27 0 52.545-.13 64.97-.082 16.666.066 32.017-2.443 44.227-7.835 1.4 4.582 2.542 10.013 3.244 16.17 1.05 9.05 1.198 19.562.397 30.982-.793 11.426-2.526 23.772-5.13 36.683-2.584 12.916-6.02 26.42-10.32 40.2-2.15 6.89-4.52 13.847-7.104 20.823-1.297 3.487-2.64 6.98-4.048 10.465l-2.15 5.223-2.465 5.9-1.453 3.654-1.305 3.464c-.852 2.332-1.68 4.693-2.47 7.096-1.578 4.807-3.015 9.77-4.258 14.91-2.46 10.29-4.208 21.294-4.395 33.166-.177 11.83 1.188 24.63 5.623 37.685 2.22 6.507 5.212 13.045 9.154 19.29 3.926 6.24 8.78 12.182 14.49 17.386 5.702 5.205 12.234 9.665 19.262 13.09 7.026 3.44 14.537 5.826 22.146 7.138 15.247 2.65 30.782.915 44.604-4.12 13.87-5.014 26.026-13.258 35.77-23.08 9.757-9.85 17.175-21.198 22.523-32.86 5.363-11.683 8.743-23.665 10.807-35.46 2.025-11.803 2.755-23.453 2.557-34.807l-.148-7.436c-.015-2.26-.05-4.212-.03-6.464 0-4.42.134-8.798.313-13.156.4-8.7 1.14-17.278 2.383-25.54 1.23-8.263 2.928-16.243 5.18-23.605 2.24-7.357 5.065-14.1 8.31-19.597 3.228-5.49 6.9-9.623 10.057-11.877 1.577-1.162 2.995-1.85 4.242-2.292 1.255-.43 2.354-.608 3.515-.61 1.157.002 2.402.196 3.81.684 1.404.486 2.955 1.28 4.54 2.424 3.18 2.27 6.404 5.974 8.876 10.617 2.497 4.64 4.275 10.183 5.145 16.162.468 2.982.67 6.096.71 9.26.006 3.175-.187 6.415-.58 9.69-.825 6.55-2.425 13.23-4.68 19.86-2.264 6.626-5.212 13.186-8.66 19.57-.853 1.6-1.748 3.19-2.654 4.772l-3.19 5.454c-.677 1.213-1.35 2.424-2.027 3.633-.677 1.237-1.235 2.35-1.852 3.528-1.19 2.34-2.33 4.71-3.41 7.115-4.32 9.614-7.6 19.814-9.62 30.35-2.06 10.522-2.63 21.428-1.66 32.238.497 5.406 1.413 10.788 2.733 16.073 1.37 5.28 3.132 10.463 5.382 15.46 4.46 9.982 10.695 19.287 18.74 26.99 8.006 7.7 17.845 13.827 28.72 17.188 5.428 1.675 11.075 2.634 16.683 2.857l2.1.04 1.52.012.66-.036 1.478-.076 2.39-.152c.853-.054 1.414-.14 2.106-.218.66-.085 1.33-.15 1.977-.263 1.303-.205 2.6-.42 3.864-.7 10.18-2.128 18.958-6.376 26.37-11.404 7.44-5.042 13.538-10.973 18.56-17.184 5.027-6.213 9.008-12.71 12.11-19.214 6.264-13.01 9.153-25.88 10.354-37.538 1.188-11.69.708-22.258-.557-31.52z"/></svg>