<?xml version="1.0" encoding="iso-8859-1"?>
<!-- Generator: Adobe Illustrator 18.1.1, SVG Export Plug-In . SVG Version: 6.00 Build 0)  -->
<!DOCTYPE svg PUBLIC "-//W3C//DTD SVG 1.1//EN" "http://www.w3.org/Graphics/SVG/1.1/DTD/svg11.dtd">
<svg version="1.1" xmlns="http://www.w3.org/2000/svg" xmlns:xlink="http://www.w3.org/1999/xlink" x="0px" y="0px"
	 viewBox="0 0 512 512" enable-background="new 0 0 512 512" xml:space="preserve">
<g id="Layer_2">
	<path fill="#A06C33" d="M256.126,506c-111.671,0-202.198-24.188-202.198-54.026c0-29.838,90.527-54.026,202.198-54.026
		s202.198,24.188,202.198,54.026C458.325,481.812,367.797,506,256.126,506z"/>
</g>
<g id="Layer_3">
	<path fill="#FFD469" d="M281.877,308.597c0,0,0.224,0.559,0.643,1.606c0.395,1.047,0.974,2.583,1.711,4.538
		c0.715,1.955,1.561,4.329,2.487,7.052c0.922,2.723,1.955,5.795,3,9.147c1.077,3.351,2.158,6.982,3.303,10.822
		c1.109,3.84,2.274,7.89,3.393,12.079c1.167,4.189,2.234,8.518,3.367,12.917c1.061,4.399,2.188,8.867,3.179,13.336
		c0.507,2.234,1.015,4.469,1.52,6.694c0.475,2.226,0.947,4.442,1.416,6.642c0.969,4.399,1.777,8.728,2.619,12.917
		c1.754,8.379,2.669,16.199,2.869,22.902c0.1,3.351,0.046,6.424-0.129,9.147c-0.162,2.723-0.463,5.097-0.759,7.052
		c-0.323,1.955-0.652,3.491-0.919,4.538c-0.271,1.047-0.463,1.606-0.463,1.606c-10.085,29.336-42.042,44.942-71.379,34.857
		c-16.922-5.817-29.368-19.186-34.857-34.857c0,0-0.192-0.559-0.463-1.606c-0.267-1.047-0.596-2.583-0.919-4.538
		c-0.296-1.955-0.598-4.329-0.759-7.052c-0.175-2.723-0.23-5.795-0.129-9.147c0.2-6.703,1.116-14.523,2.869-22.902
		c0.842-4.189,1.651-8.518,2.619-12.917c0.469-2.199,0.942-4.416,1.416-6.642c0.505-2.226,1.013-4.46,1.52-6.694
		c0.99-4.469,2.118-8.937,3.179-13.336c1.133-4.399,2.199-8.728,3.367-12.917c1.119-4.189,2.285-8.239,3.393-12.079
		c1.145-3.84,2.227-7.471,3.303-10.822c1.045-3.351,2.078-6.424,3-9.147c0.925-2.723,1.772-5.097,2.487-7.052
		c0.737-1.955,1.316-3.491,1.711-4.538c0.42-1.047,0.644-1.606,0.644-1.606c5.728-14.293,21.958-21.237,36.251-15.51
		C273.698,296.025,279.131,301.811,281.877,308.597z"/>
</g>
<g id="Layer_4">
	<path fill="#FFB636" d="M457.424,455.12c0.587-1.465,0.901-2.948,0.901-4.449c0-26.063-90.527-47.191-202.198-47.191
		S53.928,424.608,53.928,450.671c0,1.84,0.467,3.655,1.346,5.441c-6.395-8.7-7.646-20.611-0.95-32.289
		c28.285-49.326,63.734-133.652,63.734-246.49c0-68.049,49.278-124.579,114.093-135.877V27.403
		c0-13.242,10.734-23.976,23.976-23.976s23.976,10.734,23.976,23.976v14.048c6.445,1.091,12.952,2.612,19.498,4.623
		c56.621,17.397,94.521,70.409,94.343,129.642c-0.341,113.633,35.301,198.521,63.719,248.085
		C464.112,435.049,463.202,446.514,457.424,455.12z"/>
</g>
<g id="Layer_5">
	<path fill="#FFD469" d="M323.754,77.527c0,0,0.382,0.252,1.098,0.726c0.358,0.237,0.8,0.529,1.319,0.872
		c0.134,0.089,0.272,0.181,0.416,0.276c0.263,0.19,0.534,0.386,0.815,0.589c0.555,0.414,1.146,0.854,1.769,1.318
		c2.733,2.039,4.756,3.927,7.228,6.366c2.371,2.426,4.834,5.244,7.135,8.368c0.565,0.783,1.143,1.583,1.731,2.398
		c0.594,0.818,1.09,1.648,1.649,2.498c0.536,0.848,1.117,1.716,1.631,2.593c0.504,0.878,1.015,1.768,1.534,2.672
		c0.531,0.907,1.017,1.822,1.482,2.746c0.473,0.927,0.952,1.865,1.436,2.813c0.865,1.884,1.815,3.826,2.61,5.777
		c1.685,3.918,3.113,7.93,4.455,11.995c1.276,4.053,2.471,8.161,3.439,12.234c3.996,16.315,5.655,32.289,6.271,44.424
		c0.147,3.035,0.235,5.83,0.274,8.327c0.038,2.496,0.028,4.701,0.005,6.53c-0.037,1.843-0.072,3.295-0.122,4.32
		c-0.042,1.012-0.064,1.552-0.064,1.552c-0.541,13.177-11.661,23.42-24.838,22.88c-12.921-0.53-23.022-11.234-22.899-24.074
		l0.007-0.641c0,0,0.004-0.376,0.012-1.08c0.017-0.691,0.009-1.758,0-3.12c-0.022-1.377-0.061-3.064-0.146-5.031
		c-0.085-1.966-0.219-4.204-0.405-6.654c-0.389-4.899-1.014-10.647-1.979-16.697c-0.498-3.018-1.043-6.125-1.71-9.217
		c-0.656-3.096-1.39-6.199-2.229-9.209c-0.806-3.037-1.76-5.939-2.72-8.741c-1.005-2.753-2.031-5.408-3.138-7.768
		c-0.527-1.22-1.121-2.286-1.65-3.398c-0.285-0.515-0.567-1.024-0.846-1.527c-0.271-0.514-0.546-1.002-0.834-1.44
		c-0.278-0.455-0.551-0.903-0.821-1.345c-0.269-0.437-0.555-0.803-0.819-1.2c-0.522-0.818-1.059-1.467-1.554-2.109
		c-0.996-1.272-1.909-2.206-2.678-2.953c-0.733-0.662-1.605-1.391-1.47-1.233c-0.017-0.017-0.027-0.039-0.034-0.066l-0.008-0.043
		c-0.137-0.086-0.27-0.169-0.398-0.249c-0.529-0.329-0.978-0.608-1.343-0.835c-0.729-0.453-1.118-0.695-1.118-0.695l-0.02-0.012
		c-11.961-7.438-15.627-23.164-8.189-35.124c7.438-11.96,23.164-15.627,35.124-8.189C323.328,77.251,323.591,77.421,323.754,77.527z
		"/>
</g>
</svg>
