<?xml version="1.0" encoding="iso-8859-1"?>
<!-- Generator: Adobe Illustrator 19.2.0, SVG Export Plug-In . SVG Version: 6.00 Build 0)  -->
<!DOCTYPE svg PUBLIC "-//W3C//DTD SVG 1.1//EN" "http://www.w3.org/Graphics/SVG/1.1/DTD/svg11.dtd">
<svg version="1.1" xmlns="http://www.w3.org/2000/svg" xmlns:xlink="http://www.w3.org/1999/xlink" x="0px" y="0px"
	 viewBox="0 0 512 512" enable-background="new 0 0 512 512" xml:space="preserve">
<g id="Layer_2">
	<path fill="#F9E7C0" d="M437.567,512H88.004c-4.519,0-8.182-3.663-8.182-8.182V8.182C79.822,3.663,83.485,0,88.004,0H437.83
		c4.374,0,7.92,3.546,7.92,7.92v149.04v346.858C445.75,508.337,442.086,512,437.567,512z"/>
</g>
<g id="Layer_3">
	<path fill="#597B91" d="M368.727,92.401H126.453c-6.147,0-11.13-4.983-11.13-11.13s4.983-11.13,11.13-11.13h242.273
		c6.146,0,11.13,4.983,11.13,11.13S374.873,92.401,368.727,92.401z M328.13,154.124c0-6.147-4.983-11.13-11.13-11.13H126.453
		c-6.147,0-11.13,4.983-11.13,11.13s4.983,11.13,11.13,11.13H317C323.146,165.254,328.13,160.271,328.13,154.124z M231.195,226.978
		c0-6.147-4.983-11.13-11.13-11.13h-93.612c-6.147,0-11.13,4.983-11.13,11.13s4.983,11.13,11.13,11.13h93.612
		C226.212,238.107,231.195,233.125,231.195,226.978z M340.246,299.831c0-6.146-4.983-11.13-11.13-11.13H126.453
		c-6.147,0-11.13,4.983-11.13,11.13s4.983,11.13,11.13,11.13h202.663C335.263,310.961,340.246,305.978,340.246,299.831z
		 M390.13,226.978c0-6.147-4.983-11.13-11.13-11.13H276.612c-6.146,0-11.13,4.983-11.13,11.13s4.983,11.13,11.13,11.13H379
		C385.146,238.107,390.13,233.125,390.13,226.978z M297.75,372.685c0-6.146-4.983-11.13-11.13-11.13H126.453
		c-6.147,0-11.13,4.983-11.13,11.13s4.983,11.13,11.13,11.13H286.62C292.767,383.814,297.75,378.831,297.75,372.685z
		 M364.254,445.538c0-6.146-4.983-11.13-11.13-11.13H126.453c-6.147,0-11.13,4.983-11.13,11.13s4.983,11.13,11.13,11.13h226.671
		C359.271,456.668,364.254,451.685,364.254,445.538z M390.13,372.685c0-6.146-4.983-11.13-11.13-11.13h-51.752
		c-6.146,0-11.13,4.983-11.13,11.13s4.983,11.13,11.13,11.13H379C385.146,383.814,390.13,378.831,390.13,372.685z"/>
</g>
</svg>
