<?xml version="1.0" encoding="iso-8859-1"?>
<!-- Generator: Adobe Illustrator 19.2.0, SVG Export Plug-In . SVG Version: 6.00 Build 0)  -->
<!DOCTYPE svg PUBLIC "-//W3C//DTD SVG 1.1//EN" "http://www.w3.org/Graphics/SVG/1.1/DTD/svg11.dtd">
<svg version="1.1" xmlns="http://www.w3.org/2000/svg" xmlns:xlink="http://www.w3.org/1999/xlink" x="0px" y="0px"
	 viewBox="0 0 512 512" enable-background="new 0 0 512 512" xml:space="preserve">
<g id="Layer_2">
	<path fill="#C6965C" d="M345.506,194.188l-22.645,18.459c-6.9,5.625-17.174,9.231-26.301,9.231H128.456
		c-12.896,0-27.249,7.089-32.06,15.833L8.71,397.099c-4.811,8.744,1.744,15.833,14.639,15.833h346.87
		c12.896,0,27.249-7.089,32.06-15.833l77.009-139.981l19.387-35.24l11.601-21.088c4.811-8.744-1.744-15.833-14.639-15.833h-123.83
		C362.68,184.958,352.406,188.564,345.506,194.188z"/>
</g>
<g id="Layer_3">
	<path fill="#D6A667" d="M311.029,163.947l-19.735,21.011c-6.014,6.403-15.719,10.507-24.846,10.507H98.343
		c-12.896,0-26.132,8.069-29.564,18.022L6.215,394.91c-3.432,9.953,4.239,18.022,17.135,18.022h346.87
		c12.896,0,26.132-8.069,29.564-18.022l54.946-159.334l13.832-40.112l8.277-24.003c3.432-9.953-4.239-18.022-17.135-18.022h-123.83
		C326.748,153.44,317.043,157.544,311.029,163.947z"/>
</g>
<g id="Layer_4">
	<path fill="#EAC083" d="M265.825,129.524l-15.921,23.916c-4.851,7.288-13.812,11.959-22.938,11.959H58.861
		c-12.896,0-24.667,9.184-26.292,20.513L2.943,392.418c-1.625,11.329,7.511,20.513,20.407,20.513h346.87
		c12.896,0,24.667-9.184,26.292-20.513l26.018-181.362l6.55-45.657l3.92-27.321c1.625-11.329-7.511-20.513-20.407-20.513h-123.83
		C279.636,117.564,270.676,122.236,265.825,129.524z"/>
</g>
<g id="Layer_5">
	<path fill="#F9E7C0" d="M225.167,90.342l-12.49,27.223c-3.806,8.295-12.096,13.613-21.222,13.613H23.349
		C10.454,131.177,0,141.631,0,154.526v235.056c0,12.896,10.454,23.349,23.349,23.349h346.87c12.896,0,23.349-10.454,23.349-23.349
		V183.146v-51.969v-31.099c0-12.896-10.454-23.349-23.349-23.349h-123.83C237.263,76.729,228.972,82.046,225.167,90.342z"/>
</g>
</svg>
