<?xml version="1.0" encoding="iso-8859-1"?>
<!-- Generator: Adobe Illustrator 19.2.1, SVG Export Plug-In . SVG Version: 6.00 Build 0)  -->
<!DOCTYPE svg PUBLIC "-//W3C//DTD SVG 1.1//EN" "http://www.w3.org/Graphics/SVG/1.1/DTD/svg11.dtd">
<svg version="1.1" xmlns="http://www.w3.org/2000/svg" xmlns:xlink="http://www.w3.org/1999/xlink" x="0px" y="0px"
	 viewBox="0 0 512 512" enable-background="new 0 0 512 512" xml:space="preserve">
<g id="Layer_3">
	<path fill="#13A031" d="M-3.619,209.272c5.029-3.084,10.121-6.033,15.75-7.933c0.718-0.242,1.716-0.687,1.638-1.555
		c-0.09-1.005-1.303-0.568-1.939-0.942c-2.591-1.524-5.277-2.915-7.733-4.634c-3.034-2.124-2.893-3.882,0.231-5.785
		c0.674-0.411,1.467-0.624,2.201-0.94c0.841-0.363,2.553-0.113,2.217-1.354c-0.295-1.09-1.758-0.06-2.699-0.113
		c-0.791-0.044-1.641,0.001-2.354-0.278c-1.375-0.538-2.588-1.563-2.342-3.127c0.313-1.991,2.081-2.145,3.738-2.164
		c0.738-0.009,1.796,0.856,2.124-0.068c0.305-0.858-0.959-0.995-1.596-1.408c-4.759-3.09-4.741-3.846,0.053-6.629
		c1.213-0.704,2.349-1.569,3.622-2.132c3.619-1.6,7.02-2.569,11.291-1.067c4.629,1.628,9.835,1.533,14.718,2.54
		c6.058,1.249,11.81,1.278,17.988-0.292c5.934-1.508,12.295-0.386,18.247,1.707c0.715,0.251,1.632,0.883,2.188,0.053
		c0.503-0.751-0.111-1.566-0.784-2.019c-1.005-0.675-1.924-1.242-2.179-2.642c-0.289-1.586-1.227-1.94-2.45-0.625
		c-1.45,1.559-3.195,1.531-4.975,0.756c-1.822-0.793-3.215-1.957-1.954-4.155c0.706-1.231,1.479-2.355,1.394-3.874
		c-0.12-2.131,1.743-2.6,2.805-1.918c3.417,2.192,7.701,0.977,11.172,3.659c2.854,2.206,6.795,2.853,10.56,0.558
		c2.173-1.324,4.466-1.617,3.991,2.29c-0.184,1.517,0.325,3.173,1.449,3.768c3.086,1.633,5.675,2.892,1.282,6.087
		c-0.921,0.67-0.236,1.932,0.91,2.257c1.366,0.387,3.325,0.656,3.482-1.086c0.184-2.041,0.892-3.149,2.485-4.326
		c2.599-1.92,2.162-3.092-1.176-3.127c-2.712-0.029-3.641-2.839-5.682-3.958c2.377-0.428,3.311-3.279,5.874-3.455
		c1.395-0.096,2.777-0.398,4.162-0.626c1.976-0.325,3.329-1.309,3.62-3.431c0.148-1.076,0.07-2.068-1.201-2.321
		c-1.813-0.36-3.407-1.438-5.043,1.187c-2.31,3.705-6.887,0.604-10.086,2.301c-0.276-0.732-0.553-1.464-0.829-2.195
		c0.501-0.532,0.557-1.063-0.002-1.594c0.411-2.134-1.138-4.058-0.103-6.451c1.736-4.014,2.172-4.424,5.672-2.206
		c1.044,0.662,2.38,1.408,1.972,2.693c-0.547,1.718-2.002,0.262-3.042,0.332c-1.291,0.087-2.534,0.203-2.548,1.823
		c-0.014,1.594,1.163,1.877,2.495,1.869c1.403-0.008,2.81,0.13,4.208,0.055c2.579-0.138,4.086-1.013,2.013-3.684
		c-0.902-1.163-2.06-2.447-0.573-3.621c1.548-1.223,2.622,0.554,3.372,1.5c0.749,0.945,3.376,0.944,1.821,3.541
		c-0.471,0.787,2.022,1.324,3.295,1.638c0.609,0.15,1.208-0.222,1.36-0.901c0.308-1.379-0.349-2.298-1.527-2.923
		c-0.181-0.096-0.37-0.204-0.535-0.326c-7.44-5.468-7.351-7.183,0.638-11.885c1.385-0.815,2.84-1.403,4.442-1.784
		c8.178-1.95,16.559-2.513,24.859-3.484c3.469-0.406,7.144,0.782,10.702,1.387c1.352,0.23,3.715,0.788,3.748,1.315
		c0.097,1.532-2.031,1.476-2.982,2.454c-0.54,0.556-1.547,0.952-1.01,1.886c0.613,1.065,1.97,1.116,2.556,0.33
		c3.491-4.677,8.36-3.494,13.149-3.792c3.897-0.242,7.833-0.755,11.838-2.133c4.41-1.518,9.67-1.958,14.625-2.355
		c0.993-0.079,2.27,0.485,2.964,0.043c5.994-3.812,11.006,1.861,16.602,1.591c0.667-0.032,1.181,0.532,0.967,1.201
		c-0.16,0.5-0.678,1.218-1.085,1.251c-2.796,0.229-5.606,0.289-8.41,0.44c-0.578,0.031-1.148,0.221-1.722,0.338
		c0.34,0.981,1.212,0.646,1.845,0.645c5.989-0.014,11.967,0.832,17.975,0.112c1.459-0.175,3.574-0.383,3.861,1.812
		c0.226,1.727-1.61,2.054-2.804,2.709c-4.292,2.356-9.078,4.428-5.79,10.858c0.411,0.803-0.656,1.545-0.638,2.169
		c0.162,5.545-4.685,9.879-3.65,15.66c0.291,1.626-0.73,3.322-2.383,3.832c-3.611,1.114-6.42,4.297-10.544,4.04
		c-0.39-0.024-0.873,0.003-1.175,0.21c-5.904,4.038-13.766,5.954-15.743,14.283c-0.751,3.163-2.603,3.558-5.428,2.75
		c-4.475-1.28-6.688-4.685-8.936-8.361c-2.329-3.809-3.339-7.257,0.228-10.834c0.557-0.558,0.518-1.258-0.261-1.987
		c-1.779-1.664-4.923-7.116-5.395-8.929c-1.447-5.562-6.985-10.103-12.472-8.637c-6.063,1.62-8.245-2.416-11.29-5.61
		c-1.238-1.298-0.153-2.206,0.966-2.765c1.601-0.801,3.487-0.796,5.038-1.903c1.257-0.897,1.342-1.663,0.701-2.983
		c-0.676-1.393-1.504-0.903-2.42-0.536c-5.449,2.182-10.285,4.855-12.074,11.194c-0.599,2.125-2.277,3.859-2.827,6.293
		c-0.473,2.094-3.341,1.617-5.275,1.931c-0.705,0.115-1.926-0.552-1.988,0.424c-0.046,0.724,1.419,0.378,2.047,0.739
		c4.346,2.494,9.736,0.976,14.074,4.117c3.454,2.501,7.524,3.812,9.205,8.514c0.82,2.295,3.999,3.125,6.393,4.131
		c1.119,0.47,2.742,0.833,1.52,2.28c-0.957,1.133-1.411,3.85-3.971,2.5c-0.862-0.455-1.504-1.32-2.265-1.976
		c-0.442-0.381-1.041-0.89-1.532-0.46c-0.542,0.474-0.014,1.064,0.363,1.493c0.53,0.604,1.178,1.115,1.648,1.758
		c0.858,1.174,3.106,2.272,1.347,3.889c-1.327,1.221-2.998,3.186-5.245,2.132c-4.427-2.075-8.393-5.417-13.816-4.453
		c-0.514,0.091-1.019-0.59-1.028-1.245c-0.011-0.733,0.511-1.033,1.164-1.085c0.999-0.08,2.056,0.066,2.99-0.212
		c2.564-0.764,4.139-3.933,3.226-6.217c-1.061-2.653-7.489-5.738-10.532-5.389c-2.157,0.248-0.749,1.097-0.895,2.014
		c-0.411,2.584,1.648,6.679-3.852,6.9c-1.953,0.079-0.407,1.688,0.38,2.417c1.43,1.325,4.775,1.534,4.383,3.464
		c-0.373,1.84-3.634-0.835-5.287,1.039c-0.688,0.78-1.971,0.861-2.793,0.19c-3.226-2.632-5.174,0.1-7.234,1.732
		c-6.128,4.856-5.875,7.54,1.239,10.968c1.609,0.775,3.092,1.941,4.814,2.36c4.486,1.093,8.308,2.765,9.435,7.897
		c0.199,0.904,1.315,2.542,2.664,1.276c0.742-0.697,0.747-1.859,0.174-2.7c-1.757-2.58-1.425-4.292,1.589-5.611
		c1.345-0.588,0.936-2.137,0.373-3.212c-1.001-1.91-0.617-3.925-0.709-5.908c-0.234-5.085,2.622-6.946,7.201-4.53
		c1.741,0.919,3.744,1.997,4.719,3.566c1.636,2.633,2.922,3.998,6.088,2.035c2.058-1.276,3.522,0.683,4.187,2.277
		c1.455,3.487,4.116,5.733,6.824,8.14c2.062,1.833,5.325,3.479,3.383,7.402c-0.628,1.267,0.79,1.547,1.567,2.071
		c1.35,0.911,2.613,1.92,2.913,3.658c0.138,0.799-0.379,2.208-0.477,2.132c-2.21-1.711-4.849-0.082-7.023-0.954
		c-1.466-0.588-1.548-2.142-0.999-3.658c0.843-2.329-0.378-2.269-2.114-1.839c-1.154,0.286-2.426,0.469-3.585,0.294
		c-4.178-0.629-3.943,0.791-2.673,4.123c1.127,2.957,2.281,2.726,4.383,1.539c0.983-0.555,2.018-0.43,2.478,0.723
		c0.437,1.095-0.245,2.376-1.08,2.511c-3.133,0.508-5.691,4.283-9.413,1.629c-1.12-0.798-3.002-0.192-3.194,0.699
		c-0.76,3.536-3.74,4.467-6.198,6.09c-0.464,0.306-0.803,0.933-1.006,1.483c-1.809,4.878-4.394,9.053-8.68,12.332
		c-2.178,1.666-2.319,4.563-0.084,6.958c1.097,1.175,1.407,2.797-0.071,3.643c-1.464,0.837-1.67-1.264-2.549-1.914
		c-0.937-0.693-1.729-1.699-2.323-2.72c-1.751-3.008-4.44-3.332-7.304-2.414c-1.753,0.562-3.446,0.987-5.273,0.988
		c-3.596,0.002-6.806-0.176-5.972,5.452c0.311,2.099-2.691,4.457,0.055,7.137c2,1.951,3.807,2.877,6.33,1.302
		c0.851-0.531,1.647-1.154,2.508-1.669c1.254-0.751,2.814-1.327,4.01-0.586c1.835,1.138,0.038,2.569-0.447,3.556
		c-1.56,3.181-1.253,4.829,2.74,4.796c2.13-0.017,3.319,1.407,3.368,3.501c0.046,1.962-0.786,4.429,1.723,5.187
		c2.617,0.79,5.939,1.058,7.981-0.574c4.396-3.513,8.727-2.769,13.453-1.288c1.271,0.398,2.591,0.586,3.92,0.673
		c7.666,0.506,11.885,7.746,18.923,9.456c2.4,8.306,10.977,7.022,16.499,10.471c1.431,0.894,3.269,1.353,4.817,2.308
		c2.985,1.844,3.808,4.211,1.543,6.99c-2.265,2.778-2.851,6.034-3.815,9.325c-1.585,5.409-2.561,11.657-10.337,12.149
		c-2.096,0.133-3.185,2.105-3.805,4.21c-2.488,8.448-3.387,9.339-12.514,12.865c-0.708,0.274-0.913,0.554-0.681,1.204
		c1.434,4.014-1.315,5.107-4.224,5.379c-2.719,0.255-2.858,2.516-3.937,3.988c-1.94,2.647-2.392,6.252-5.284,8.354
		c-0.18,0.131,0.022,1.294,0.367,1.559c1.87,1.435,1.041,2.36-0.148,3.854c-3.944,4.96-3.873,5.232-0.331,10.392
		c0.566,0.824,1.66,1.438-0.117,2.036c-4.804,1.616-9.314-0.618-11.134-5.401c-1.42-3.73-1.504-7.806-0.512-11.293
		c2.071-7.282,1.769-14.849,3.529-22.233c1.347-5.653,2.434-11.942,2.524-18.096c0.057-3.851-1.479-6.816-4.529-8.619
		c-3.376-1.996-5.268-4.8-6.54-8.294c-0.338-0.928-0.945-1.756-1.372-2.656c-1.127-2.375-5.605-3.16-3.035-7.365
		c1.39-2.274,0.779-5.583,3.34-7.463c1.649-1.21,1.733-2.97,1.828-4.841c0.102-1.999-0.38-2.823-2.579-3.037
		c-3.977-0.386-8.146-0.815-9.126-6.011c-0.213-1.129-1.565-1.253-2.46-1.434c-4.62-0.939-8.264-4.006-13.604-4.201
		c-4.507-0.164-10.581-2.451-12.868-8.454c-1.01-2.651-2.14-4.578-6.319-3.732c-3.418,0.692-5.636-3.607-6.796-6.722
		c-1.809-4.855-4.388-8.583-8.565-11.926c-4.515-3.613-5.755-9.549-5.641-15.318c0.078-3.942,0.377-7.673-3.863-9.818
		c-0.903-0.457-1.273-1.192-1.398-2.372c-0.497-4.68-0.881-4.942-5.851-5.337c-1.599-0.127-1.536-1.485-2.124-2.475
		c-3.615-6.082-8.206-10.585-15.877-11.414c-2.78-0.301-4.487,1.133-6.706,1.562c-2.355,0.455-5.158-0.643-3.61,3.734
		c0.457,1.294-1.57,3.253-3.228,2.717c-3.031-0.981-4.475,0.643-6.029,2.569c-0.37,0.459-0.842,1.166-1.289,1.183
		c-5.492,0.209-10.032,3.851-15.455,4.248C-3.458,209.751-3.429,209.837-3.619,209.272z M110.55,164.376
		c-0.985,0.166-1.969,0.36-2.652,1.179c-0.779,0.934-0.486,1.914,0.165,2.696c2.108,2.531,3.675,5.667,7.404,6.421
		c0.724,0.146-0.188,2.349,1.373,1.964c0.762-0.187,1.547-1.317,1.823-2.18c0.356-1.113-0.657-1.889-1.601-2.122
		c-3.235-0.798-4.377-3.089-4.724-6.085C112.219,165.226,111.907,164.274,110.55,164.376z"/>
</g>
<g id="Layer_1">
</g>
</svg>
