<?xml version="1.0" encoding="iso-8859-1"?>
<!-- Generator: Adobe Illustrator 19.2.0, SVG Export Plug-In . SVG Version: 6.00 Build 0)  -->
<!DOCTYPE svg PUBLIC "-//W3C//DTD SVG 1.1//EN" "http://www.w3.org/Graphics/SVG/1.1/DTD/svg11.dtd">
<svg version="1.1" xmlns="http://www.w3.org/2000/svg" xmlns:xlink="http://www.w3.org/1999/xlink" x="0px" y="0px"
	 viewBox="0 0 512 512" enable-background="new 0 0 512 512" xml:space="preserve">
<g id="Layer_2">
	<path fill="#ADB8BC" d="M58.549,321.445H453.66c5.524,0,10.493,3.58,12.555,9.044l44.808,118.763
		c0.646,1.712,0.978,3.54,0.978,5.386v10.932c0,7.969-6.059,14.43-13.533,14.43H16.494c-7.474,0-13.533-6.46-13.533-14.43v-11.089
		c0-1.743,0.296-3.472,0.875-5.103l42.055-118.606C47.881,325.159,52.921,321.445,58.549,321.445z"/>
</g>
<g id="Layer_3">
	<path fill="#C5CFD1" d="M61.062,19.264h391.41c6.618,0,11.983,5.365,11.983,11.983v278.649c0,6.618-5.365,11.983-11.983,11.983
		H61.062c-6.618,0-11.983-5.365-11.983-11.983V31.247C49.078,24.629,54.444,19.264,61.062,19.264z"/>
</g>
<g id="Layer_4">
	<path fill="#00B1FF" d="M86.537,67.887h340.46c6.823,0,12.355,5.531,12.355,12.355v203.031c0,6.823-5.531,12.355-12.355,12.355
		H86.537c-6.823,0-12.355-5.531-12.355-12.355V80.242C74.182,73.419,79.714,67.887,86.537,67.887z"/>
</g>
<g id="Layer_5">
	<circle fill="#FF473E" cx="425.63" cy="44.619" r="10.833"/>
</g>
<g id="Layer_6">
	<circle fill="#D7F4F7" cx="392.937" cy="44.619" r="10.833"/>
</g>
<g id="Layer_7">
	<path fill="#1C4C5A" d="M121.703,391.88l-4.954,14.05c-0.875,2.482-3.405,4.165-6.261,4.165h-32.36
		c-4.461,0-7.628-3.968-6.261-7.845l4.954-14.05c0.875-2.482,3.405-4.165,6.261-4.165h32.36
		C119.903,384.035,123.07,388.003,121.703,391.88z M195.146,384.035h-32.725c-3.101,0-5.781,1.977-6.431,4.745l-3.301,14.05
		c-0.878,3.738,2.243,7.264,6.431,7.264h32.725c3.101,0,5.781-1.977,6.431-4.745l3.301-14.05
		C202.455,387.561,199.334,384.035,195.146,384.035z M362.273,402.83l-3.301-14.05c-0.65-2.768-3.33-4.745-6.431-4.745h-32.725
		c-4.188,0-7.309,3.526-6.431,7.264l3.301,14.05c0.65,2.768,3.33,4.745,6.431,4.745h32.725
		C360.03,410.094,363.151,406.569,362.273,402.83z M280.84,403.239l-2.202-14.05c-0.464-2.958-3.238-5.154-6.511-5.154h-29.288
		c-3.272,0-6.047,2.196-6.511,5.153l-2.205,14.05c-0.568,3.618,2.507,6.856,6.511,6.856h33.695
		C278.332,410.094,281.407,406.857,280.84,403.239z M383.912,451.354l-6.272-14.473c-0.478-3.047-3.336-5.31-6.707-5.31H148.42
		c-3.371,0-6.229,2.262-6.707,5.308l-6.274,14.473c-0.585,3.727,2.583,7.063,6.707,7.063h235.059
		C381.329,458.416,384.496,455.081,383.912,451.354z M443.094,402.25l-4.954-14.05c-0.875-2.482-3.405-4.165-6.261-4.165h-32.36
		c-4.461,0-7.628,3.968-6.261,7.845l4.954,14.05c0.875,2.482,3.405,4.165,6.261,4.165h32.36
		C441.294,410.094,444.461,406.126,443.094,402.25z M128.8,341.2H99.484c-2.588,0-4.879,1.525-5.672,3.773l-4.488,12.728
		c-1.238,3.512,1.631,7.107,5.672,7.107h29.316c2.588,0,4.879-1.525,5.672-3.773l4.488-12.728
		C135.711,344.795,132.842,341.2,128.8,341.2z M201.008,341.2h-29.647c-2.809,0-5.237,1.791-5.826,4.299l-2.991,12.728
		c-0.796,3.387,2.032,6.581,5.826,6.581h29.647c2.809,0,5.237-1.791,5.826-4.299l2.991-12.728
		C207.63,344.394,204.803,341.2,201.008,341.2z M352.417,358.227l-2.991-12.728c-0.589-2.508-3.017-4.299-5.826-4.299h-29.647
		c-3.794,0-6.622,3.194-5.826,6.581l2.991,12.728c0.589,2.508,3.017,4.299,5.826,4.299h29.647
		C350.385,364.808,353.213,361.614,352.417,358.227z M278.643,358.598l-1.995-12.728c-0.42-2.679-2.934-4.669-5.899-4.669h-26.534
		c-2.964,0-5.478,1.989-5.899,4.669l-1.997,12.728c-0.514,3.278,2.271,6.211,5.899,6.211h30.526
		C276.371,364.808,279.157,361.875,278.643,358.598z M425.638,357.701l-4.488-12.728c-0.793-2.249-3.085-3.773-5.672-3.773h-29.316
		c-4.041,0-6.91,3.595-5.672,7.107l4.488,12.728c0.793,2.249,3.085,3.773,5.672,3.773h29.316
		C424.007,364.808,426.876,361.213,425.638,357.701z M242.893,49.758h24.787c4.411,0,7.986-3.576,7.986-7.986v0
		c0-4.411-3.576-7.986-7.986-7.986h-24.787c-4.411,0-7.986,3.576-7.986,7.986v0C234.906,46.182,238.482,49.758,242.893,49.758z"/>
</g>
</svg>
