<?xml version="1.0" encoding="iso-8859-1"?>
<!-- Generator: Adobe Illustrator 19.2.0, SVG Export Plug-In . SVG Version: 6.00 Build 0)  -->
<!DOCTYPE svg PUBLIC "-//W3C//DTD SVG 1.1//EN" "http://www.w3.org/Graphics/SVG/1.1/DTD/svg11.dtd">
<svg version="1.1" xmlns="http://www.w3.org/2000/svg" xmlns:xlink="http://www.w3.org/1999/xlink" x="0px" y="0px"
	 viewBox="0 0 512 512" enable-background="new 0 0 512 512" xml:space="preserve">
<g id="Layer_3">
	<path fill="#597B91" d="M471.171,293.387c-2.256,0-4.528-0.718-6.454-2.2c-4.634-3.569-5.498-10.219-1.93-14.854
		c23.755-30.848,31.096-71.443,19.636-108.591c-11.461-37.148-40.396-66.552-77.4-78.655c-5.56-1.818-8.593-7.799-6.774-13.359
		c1.819-5.56,7.806-8.59,13.358-6.774c43.532,14.238,77.572,48.834,91.057,92.544c13.484,43.709,4.852,91.47-23.093,127.759
		C477.484,291.966,474.345,293.387,471.171,293.387z M440.895,279.253c22.862-29.691,29.926-68.767,18.893-104.528
		c-11.032-35.762-38.883-64.067-74.498-75.717c-5.562-1.816-11.54,1.215-13.359,6.774c-1.818,5.56,1.215,11.54,6.773,13.359
		c29.09,9.515,51.835,32.628,60.844,61.828c9.008,29.199,3.238,61.11-15.436,85.36c-3.568,4.635-2.704,11.285,1.93,14.854
		c1.926,1.482,4.198,2.2,6.454,2.2C435.669,283.383,438.809,281.962,440.895,279.253z M401.872,261.684
		c16.004-20.782,20.947-48.136,13.225-73.172c-7.724-25.035-27.219-44.85-52.15-53.004c-5.554-1.815-11.539,1.214-13.358,6.774
		c-1.818,5.56,1.215,11.541,6.774,13.359c18.404,6.02,32.795,20.642,38.494,39.115c5.698,18.474,2.047,38.663-9.768,54.005
		c-3.568,4.634-2.705,11.285,1.93,14.853c1.926,1.482,4.198,2.2,6.454,2.2C396.646,265.813,399.786,264.393,401.872,261.684z"/>
</g>
<g id="Layer_1">
</g>
</svg>
