<?xml version="1.0" encoding="iso-8859-1"?>
<!-- Generator: Adobe Illustrator 19.2.1, SVG Export Plug-In . SVG Version: 6.00 Build 0)  -->
<!DOCTYPE svg PUBLIC "-//W3C//DTD SVG 1.1//EN" "http://www.w3.org/Graphics/SVG/1.1/DTD/svg11.dtd">
<svg version="1.1" id="Layer_2" xmlns="http://www.w3.org/2000/svg" xmlns:xlink="http://www.w3.org/1999/xlink" x="0px" y="0px"
	 viewBox="0 0 512 512" enable-background="new 0 0 512 512" xml:space="preserve">
<path d="M470.872,291.72c-0.806-3.223-1.978-6.354-3.466-9.322c-0.748-1.482-1.575-2.923-2.47-4.323
	c-0.455-0.694-0.93-1.375-1.407-2.056c-0.493-0.668-1.007-1.322-1.523-1.974c-0.537-0.634-1.08-1.265-1.634-1.885
	c-0.572-0.604-1.143-1.211-1.737-1.795c-1.204-1.153-2.463-2.25-3.781-3.278c-1.325-1.02-2.712-1.959-4.143-2.831
	c-1.434-0.869-2.926-1.642-4.452-2.341c-3.055-1.394-6.281-2.422-9.563-3.062c-1.642-0.317-3.294-0.548-4.948-0.676
	c-0.826-0.05-1.653-0.1-2.477-0.123c-0.533-0.005-1.065,0.005-1.597,0.012c-2.127-0.257-4.256-0.498-6.384-0.746
	c-2.958-0.332-5.928-0.601-8.893-0.894c-2.973-0.248-5.94-0.531-8.919-0.751l-8.932-0.676l-17.866-1.343
	c-2.971-0.262-5.949-0.483-8.914-0.78c-2.966-0.287-5.936-0.556-8.892-0.898c-2.961-0.316-5.919-0.649-8.867-1.037
	c-2.953-0.359-5.902-0.746-8.844-1.166c-2.942-0.421-5.88-0.868-8.811-1.351s-5.857-0.993-8.772-1.566
	c-1.187-0.229-2.372-0.469-3.557-0.713c-1.351-4.484-2.88-8.568-4.57-12.288c3.931,0.19,7.85,0.476,11.757,0.849
	c2.362,0.218,4.719,0.479,7.073,0.759c2.354,0.278,4.704,0.589,7.052,0.92c2.35,0.312,4.696,0.651,7.039,1.014
	c2.346,0.343,4.687,0.719,7.027,1.107c2.342,0.371,4.678,0.788,7.016,1.194c2.339,0.397,4.669,0.86,7.004,1.287
	c4.669,0.858,9.333,1.76,13.995,2.671l13.997,2.657c4.672,0.838,9.347,1.751,14.036,2.46c0.573,0.083,1.221,0.225,1.818,0.225h0.073
	l2.233-0.133c0.745-0.035,1.493-0.145,2.239-0.201c1.494-0.141,2.981-0.405,4.456-0.718c2.945-0.641,5.845-1.587,8.572-2.887
	c2.729-1.29,5.317-2.874,7.682-4.723c1.175-0.934,2.297-1.932,3.369-2.976c0.529-0.529,1.042-1.074,1.556-1.616l1.465-1.695
	c0.462-0.586,0.923-1.173,1.364-1.774c0.425-0.613,0.85-1.226,1.257-1.849c0.799-1.259,1.537-2.553,2.205-3.884
	c0.659-1.335,1.253-2.702,1.771-4.097c0.512-1.398,0.953-2.821,1.315-4.264c0.721-2.886,1.121-5.85,1.194-8.806
	c0.035-1.479-0.013-2.953-0.129-4.417c-0.073-0.729-0.148-1.459-0.247-2.182l-0.365-2.153l0.164,1.434l-0.284-2.451l-0.302-2.296
	l-0.655-4.524c-0.46-2.999-0.938-5.976-1.493-8.936c-0.546-2.962-1.132-5.91-1.748-8.85c-0.619-2.939-1.247-5.872-1.958-8.788
	c-0.701-2.917-1.422-5.827-2.195-8.724c-0.746-2.902-1.566-5.787-2.414-8.662c-0.846-2.876-1.732-5.739-2.645-8.593
	c-0.934-2.85-1.884-5.69-2.908-8.51c-0.993-2.826-2.051-5.634-3.141-8.426c-1.128-2.782-2.218-5.568-3.424-8.318
	c-1.175-2.756-2.442-5.479-3.704-8.195c-0.621-1.361-1.309-2.7-1.972-4.042c-0.665-1.343-1.331-2.682-2.043-4.004l-2.106-3.968
	l-2.224-3.908c-0.727-1.305-1.505-2.588-2.299-3.859c-0.799-1.269-1.55-2.556-2.385-3.803c-1.651-2.501-3.257-5.011-5.046-7.412
	c-1.717-2.437-3.59-4.776-5.436-7.103c-0.726-0.914-1.995-1.284-3.131-0.821c-1.38,0.562-2.042,2.136-1.48,3.516l0.052,0.128
	c1.096,2.69,2.327,5.274,3.341,7.974c0.512,1.346,1.092,2.648,1.591,3.995l1.509,4.02c0.511,1.331,0.942,2.704,1.416,4.049
	c0.458,1.353,0.947,2.688,1.372,4.054l1.316,4.065l1.236,4.09c0.838,2.715,1.553,5.477,2.324,8.207
	c0.727,2.749,1.446,5.493,2.092,8.26c0.703,2.745,1.294,5.528,1.919,8.291c0.571,2.782,1.187,5.544,1.714,8.332
	c0.569,2.773,1.032,5.576,1.542,8.359c0.493,2.79,0.958,5.582,1.384,8.382c0.415,2.802,0.838,5.599,1.219,8.402
	c0.395,2.8,0.74,5.608,1.064,8.415c0.654,5.613,1.243,11.228,1.672,16.838c0.216,2.804,0.44,5.601,0.598,8.385l0.217,4.156
	l0.08,2.049l0.044,1.899l0.164,1.434c0.006,0.246,0.019,0.49,0.038,0.732c0,0.242-0.008,0.482,0.003,0.72
	c-0.014,0.476-0.043,0.945-0.099,1.408c-0.116,0.924-0.332,1.819-0.641,2.679c-0.157,0.429-0.336,0.849-0.532,1.26
	c-0.203,0.409-0.427,0.806-0.665,1.193c-0.247,0.384-0.512,0.753-0.789,1.113l-0.437,0.521c-0.16,0.162-0.311,0.329-0.455,0.502
	c-0.165,0.155-0.321,0.317-0.477,0.478l-0.5,0.45c-0.346,0.285-0.697,0.557-1.061,0.809c-0.368,0.246-0.728,0.495-1.107,0.714
	c-0.38,0.215-0.768,0.413-1.163,0.589c-0.4,0.167-0.799,0.329-1.204,0.478c-0.408,0.142-0.823,0.262-1.245,0.364
	c-0.424,0.099-0.856,0.163-1.292,0.244l-0.665,0.085c-0.099,0.004-0.199,0.015-0.298,0.022c-4.214-0.444-8.436-0.824-12.662-1.171
	l-14.21-1.023c-4.74-0.316-9.479-0.641-14.212-1.009c-1.714-0.135-3.43-0.258-5.144-0.394c5.356-3.146,10.049-7.634,13.438-13.116
	c3.446-5.557,5.62-12.132,5.903-18.824c0.029-0.833,0.075-1.67,0.047-2.5c-0.01-0.795-0.042-1.802-0.077-2.204
	c-0.071-1.115-0.143-2.231-0.215-3.349c-0.159-2.278-0.335-4.511-0.572-6.758c-0.445-4.487-0.987-8.954-1.582-13.405
	c-0.594-4.45-1.36-8.867-2.124-13.257c-0.405-2.191-0.809-4.377-1.213-6.557c-0.458-2.168-0.915-4.33-1.37-6.483
	c-1.842-8.606-4.047-16.989-6.413-25.044c-1.225-4.018-2.49-7.953-3.792-11.788c-1.309-3.833-2.717-7.548-4.119-11.154
	c-2.848-7.198-5.873-13.904-9.031-19.947c-3.135-6.05-6.394-11.443-9.622-16.03c-3.198-4.6-6.387-8.382-9.232-11.296
	c-2.834-2.927-5.361-4.957-7.128-6.254c-0.882-0.653-1.592-1.11-2.073-1.415c-0.476-0.306-0.721-0.464-0.721-0.464
	c-0.919-0.588-2.147-0.587-3.076,0.101c-1.202,0.89-1.455,2.586-0.565,3.788l0.102,0.138c0,0,0.154,0.209,0.454,0.613
	c0.306,0.393,0.733,1.004,1.28,1.801c1.089,1.598,2.605,3.985,4.26,7.19c1.657,3.204,3.458,7.209,5.245,11.943
	c0.893,2.367,1.774,4.916,2.668,7.619c0.879,2.711,1.727,5.593,2.594,8.607c1.689,6.045,3.331,12.666,4.857,19.735
	c0.786,3.528,1.494,7.181,2.221,10.913c0.734,3.73,1.424,7.558,2.067,11.462c1.373,7.789,2.547,15.892,3.666,24.12
	c0.51,4.118,1.023,8.27,1.539,12.437c0.493,4.166,0.874,8.356,1.293,12.529c0.405,4.173,0.757,8.344,1.016,12.476
	c0.122,2.055,0.245,4.106,0.366,6.151c0.049,1.03,0.098,2.058,0.147,3.085c0.035,0.668,0.019,0.732,0.028,1.008
	c0.021,0.24-0.014,0.471-0.013,0.706c-0.101,1.857-0.615,3.598-1.512,5.195c-0.453,0.795-1.03,1.517-1.649,2.195
	c-0.616,0.682-1.304,1.307-2.063,1.814c-0.755,0.512-1.561,0.93-2.396,1.252c-0.827,0.348-1.691,0.599-2.584,0.746
	c-0.222,0.044-0.45,0.052-0.675,0.091c-0.201,0.026-0.228,0.029-0.353,0.069l-0.039,0.014l-0.181-0.006l-0.362-0.012l-0.723-0.025
	l-0.18-0.006c0.725,0.067,0.149,0.015,0.288,0.029l-0.09-0.006l-0.36-0.022l-0.718-0.044c-1.915-0.09-3.807-0.179-5.673-0.266
	c-1.866-0.087-3.707-0.172-5.52-0.256c-1.816-0.058-3.604-0.115-5.363-0.172c-3.515-0.131-6.918-0.197-10.186-0.245
	c-6.534-0.121-12.538-0.093-17.864-0.021c-4.164,0.063-7.909,0.176-11.182,0.307c8.924-10.256,14.506-24.827,14.506-41.004
	c0-31.048-20.536-56.217-45.867-56.217s-45.867,25.169-45.867,56.217c0,15.181,4.918,28.946,12.897,39.061
	c-3.425-0.04-7.398-0.052-11.853-0.001c-5.312,0.067-11.3,0.189-17.819,0.454c-3.261,0.121-6.656,0.261-10.164,0.46
	c-1.755,0.092-3.54,0.185-5.352,0.279c-1.81,0.117-3.647,0.236-5.51,0.357c-1.863,0.121-3.751,0.244-5.662,0.369l-0.717,0.056
	l-0.359,0.028l-0.09,0.007c0.147-0.014-0.456,0.04,0.306-0.029l-0.18,0.009l-0.722,0.036l-0.362,0.018l-0.18,0.009l-0.032-0.012
	c-0.108-0.034-0.114-0.029-0.303-0.047c-0.214-0.031-0.43-0.031-0.642-0.066c-0.85-0.113-1.679-0.323-2.479-0.629
	c-0.807-0.283-1.592-0.66-2.334-1.131c-0.746-0.466-1.429-1.05-2.048-1.693c-0.621-0.64-1.202-1.331-1.666-2.095
	c-0.92-1.537-1.475-3.233-1.638-5.073c-0.006-0.233-0.049-0.462-0.035-0.701c0.002-0.274-0.023-0.337,0.01-1.006
	c0.042-1.027,0.085-2.056,0.127-3.086c0.107-2.046,0.214-4.098,0.322-6.154c0.224-4.136,0.543-8.311,0.913-12.489
	c0.383-4.178,0.744-8.373,1.208-12.545c0.242-2.086,0.484-4.168,0.725-6.244c0.249-2.077,0.497-4.149,0.745-6.212
	c1.076-8.242,2.229-16.356,3.581-24.157c0.638-3.909,1.324-7.742,2.054-11.478c0.724-3.737,1.438-7.393,2.225-10.926
	c1.534-7.076,3.192-13.703,4.909-19.749c0.878-3.015,1.743-5.896,2.638-8.606c0.909-2.703,1.809-5.249,2.72-7.612
	c1.823-4.727,3.663-8.72,5.354-11.907c1.689-3.189,3.215-5.575,4.342-7.139c0.561-0.784,0.994-1.389,1.305-1.776
	c0.304-0.399,0.461-0.604,0.461-0.604l0.105-0.137c0.677-0.89,0.754-2.145,0.102-3.129c-0.824-1.245-2.502-1.586-3.746-0.762
	c0,0-0.243,0.161-0.714,0.473c-0.476,0.311-1.18,0.773-2.048,1.439c-1.728,1.331-4.246,3.362-7.046,6.305
	c-2.811,2.93-5.96,6.724-9.123,11.331c-3.191,4.594-6.416,9.989-9.526,16.038c-3.13,6.042-6.139,12.742-8.978,19.933
	c-1.401,3.601-2.803,7.313-4.115,11.141c-1.306,3.829-2.575,7.759-3.805,11.772c-2.386,8.043-4.612,16.415-6.498,25.008
	c-0.975,4.291-1.861,8.637-2.652,13.022c-0.792,4.385-1.58,8.796-2.209,13.241c-0.63,4.446-1.206,8.908-1.685,13.392
	c-0.255,2.245-0.446,4.477-0.617,6.754c-0.078,1.118-0.156,2.234-0.234,3.348c-0.036,0.401-0.076,1.41-0.094,2.206
	c-0.035,0.831,0.004,1.67,0.025,2.505c0.222,6.708,2.355,13.33,5.778,18.946c2.929,4.815,6.855,8.892,11.364,11.998l-17.192,1.5
	c-9.05,0.79-18.078,1.745-27.085,2.865l-0.615-0.049c-0.433-0.053-0.861-0.117-1.282-0.206c-0.837-0.19-1.664-0.416-2.455-0.762
	c-0.396-0.171-0.783-0.365-1.165-0.575c-0.375-0.221-0.755-0.441-1.123-0.686c-0.364-0.251-0.716-0.522-1.062-0.806l-0.501-0.449
	c-0.156-0.161-0.313-0.322-0.478-0.477c-0.145-0.172-0.297-0.339-0.456-0.502l-0.436-0.522c-0.276-0.36-0.541-0.729-0.787-1.113
	c-0.238-0.388-0.461-0.785-0.664-1.194c-0.196-0.411-0.375-0.831-0.53-1.26c-0.308-0.859-0.522-1.755-0.637-2.678
	c-0.056-0.462-0.084-0.931-0.097-1.407c0.011-0.238,0.003-0.478,0.003-0.72c0.019-0.242,0.032-0.486,0.038-0.732l0.164-1.436
	l0.045-1.898l0.081-2.049l0.219-4.155c0.159-2.784,0.385-5.581,0.601-8.384c0.43-5.609,1.022-11.223,1.677-16.836
	c0.325-2.807,0.671-5.615,1.066-8.414c0.382-2.803,0.805-5.6,1.22-8.401c0.426-2.799,0.892-5.592,1.384-8.381
	c0.51-2.783,0.972-5.586,1.541-8.359c0.527-2.787,1.143-5.549,1.714-8.332c0.625-2.762,1.215-5.546,1.917-8.29
	c0.645-2.768,1.363-5.511,2.09-8.26c0.77-2.729,1.484-5.492,2.321-8.207l1.235-4.09l1.314-4.066c0.424-1.366,0.912-2.701,1.37-4.054
	c0.472-1.346,0.902-2.719,1.413-4.05l1.506-4.021c0.498-1.347,1.077-2.65,1.588-3.996c1.012-2.701,2.241-5.286,3.334-7.977
	l0.054-0.131c0.438-1.08,0.136-2.362-0.822-3.124c-1.166-0.927-2.863-0.734-3.791,0.433c-1.849,2.325-3.723,4.664-5.443,7.099
	c-1.792,2.4-3.399,4.91-5.051,7.41c-0.835,1.247-1.588,2.533-2.387,3.802c-0.795,1.271-1.574,2.554-2.301,3.859l-2.226,3.907
	l-2.108,3.968c-0.713,1.322-1.38,2.662-2.045,4.004c-0.664,1.342-1.352,2.681-1.973,4.042c-1.263,2.716-2.531,5.439-3.707,8.195
	c-1.207,2.749-2.297,5.535-3.426,8.318c-1.09,2.791-2.148,5.6-3.141,8.426c-1.024,2.821-1.975,5.661-2.908,8.511
	c-0.913,2.854-1.799,5.718-2.644,8.594c-0.848,2.875-1.668,5.761-2.413,8.663c-0.772,2.898-1.493,5.808-2.193,8.725
	c-0.711,2.916-1.337,5.849-1.956,8.789c-0.615,2.94-1.2,5.888-1.746,8.85c-0.555,2.961-1.031,5.938-1.49,8.937l-0.653,4.525
	l-0.301,2.296l-0.283,2.451l0.164-1.435l-0.365,2.154c-0.099,0.724-0.174,1.454-0.247,2.183c-0.115,1.464-0.163,2.939-0.128,4.418
	c0.075,2.957,0.476,5.921,1.198,8.807c0.363,1.443,0.804,2.866,1.317,4.263c0.519,1.395,1.113,2.761,1.773,4.097
	c0.668,1.331,1.407,2.625,2.206,3.883c0.407,0.623,0.833,1.235,1.258,1.848c0.442,0.6,0.902,1.188,1.364,1.774l1.464,1.695
	c0.513,0.543,1.026,1.086,1.555,1.616c1.071,1.045,2.193,2.04,3.368,2.975c1.182,0.926,2.405,1.805,3.689,2.594
	c1.285,0.788,2.611,1.512,3.976,2.163c2.732,1.291,5.608,2.313,8.566,2.954c1.478,0.323,2.97,0.562,4.466,0.731
	c0.748,0.068,1.498,0.137,2.246,0.183l2.243,0.063c0.521,0.011,1.107-0.015,1.64-0.087l0.281-0.038
	c9.397-1.268,18.77-2.721,28.12-4.349l28.05-4.885c4.675-0.814,9.352-1.609,14.036-2.358l7.029-1.098
	c2.342-0.374,4.69-0.695,7.036-1.043c2.345-0.35,4.693-0.673,7.043-0.987c2.341-0.306,4.675-0.665,7.025-0.904
	c-1.802,3.887-3.422,8.184-4.847,12.92c-1.097,0.224-2.195,0.448-3.294,0.66c-2.915,0.573-5.841,1.083-8.772,1.566
	s-5.869,0.93-8.811,1.351c-2.942,0.42-5.891,0.807-8.844,1.166c-2.948,0.388-5.906,0.721-8.867,1.037
	c-2.956,0.342-5.926,0.611-8.892,0.898c-2.965,0.297-5.943,0.517-8.914,0.78l-17.866,1.343l-8.932,0.676
	c-2.978,0.22-5.945,0.503-8.919,0.751c-2.965,0.294-5.935,0.562-8.893,0.894c-2.128,0.248-4.258,0.489-6.384,0.746
	c-0.532-0.007-1.064-0.017-1.597-0.012c-0.824,0.024-1.651,0.073-2.477,0.123c-1.654,0.128-3.306,0.359-4.948,0.676
	c-3.282,0.64-6.509,1.668-9.563,3.062c-1.526,0.699-3.019,1.472-4.452,2.341c-1.431,0.872-2.819,1.811-4.143,2.831
	c-1.318,1.028-2.577,2.125-3.781,3.278c-0.594,0.584-1.165,1.191-1.737,1.795c-0.554,0.62-1.097,1.252-1.634,1.885
	c-0.516,0.651-1.03,1.306-1.523,1.974c-0.477,0.681-0.952,1.363-1.407,2.056c-0.895,1.4-1.722,2.841-2.47,4.323
	c-1.488,2.968-2.66,6.099-3.466,9.322c-0.802,3.224-1.246,6.535-1.325,9.835c-0.038,1.651,0.017,3.296,0.149,4.928
	c0.081,0.813,0.167,1.626,0.279,2.432l0.411,2.398l-0.071-0.622c0.052,0.423,0.105,0.818,0.16,1.244l0.324,2.339L44,318.866
	c0.493,3.038,0.986,6.05,1.589,9.04c0.591,2.992,1.222,5.966,1.884,8.932c0.668,2.964,1.327,5.924,2.107,8.859
	c0.762,2.938,1.545,5.867,2.379,8.783c0.802,2.922,1.691,5.823,2.623,8.71c0.923,2.889,1.887,5.765,2.878,8.63
	c0.476,1.437,1.037,2.854,1.557,4.277c0.521,1.423,1.064,2.84,1.623,4.253c1.088,2.83,2.23,5.644,3.434,8.43
	c1.236,2.78,2.434,5.56,3.747,8.303c1.293,2.745,2.685,5.454,4.067,8.152c0.68,1.353,1.429,2.683,2.163,4.011
	c0.732,1.33,1.465,2.656,2.245,3.964c0.773,1.309,1.519,2.626,2.311,3.92l2.443,3.847c0.799,1.283,1.648,2.545,2.519,3.79
	c0.873,1.245,1.699,2.504,2.607,3.724c1.802,2.444,3.604,4.866,5.555,7.189c1.873,2.361,3.953,4.588,5.99,6.796
	c0.699,0.755,1.799,1.083,2.842,0.747c1.434-0.462,2.222-2,1.76-3.434l-0.044-0.135c-0.905-2.809-1.929-5.505-2.788-8.281
	c-0.429-1.387-0.922-2.729-1.333-4.114l-1.257-4.124c-0.438-1.358-0.795-2.758-1.193-4.128c-0.382-1.379-0.801-2.735-1.152-4.122
	l-1.097-4.126l-1.031-4.138c-0.708-2.742-1.276-5.535-1.932-8.279c-0.607-2.766-1.202-5.524-1.729-8.303
	c-0.596-2.751-1.079-5.541-1.596-8.305c-0.457-2.788-0.988-5.544-1.421-8.328c-0.479-2.768-0.839-5.568-1.27-8.34
	c-0.415-2.778-0.802-5.559-1.151-8.345l-1.01-8.354c-0.333-2.781-0.616-5.57-0.88-8.357l-0.773-8.349
	c-0.238-2.781-0.446-5.561-0.615-8.335c-0.168-2.774-0.377-5.536-0.502-8.281l-0.173-4.089l-0.058-2.006
	c-0.012-0.626-0.029-1.374-0.019-1.803l-0.22-1.925c0.011-0.165,0.014-0.328,0.009-0.488c0.013-0.16,0.033-0.316,0.029-0.47
	c0.03-0.308,0.065-0.606,0.118-0.896c0.111-0.58,0.282-1.128,0.51-1.649c0.116-0.26,0.236-0.517,0.369-0.767
	c0.139-0.249,0.29-0.489,0.448-0.725c0.166-0.232,0.343-0.455,0.524-0.673c0.098-0.104,0.2-0.204,0.288-0.314
	c0.108-0.095,0.207-0.195,0.296-0.302c0.11-0.09,0.21-0.187,0.308-0.286c0.114-0.084,0.218-0.175,0.319-0.269
	c0.214-0.176,0.428-0.346,0.649-0.504c0.225-0.151,0.441-0.311,0.669-0.45c0.233-0.13,0.454-0.274,0.688-0.397
	c0.468-0.243,0.945-0.463,1.457-0.654c0.257-0.095,0.524-0.167,0.8-0.261c0.142-0.028,0.282-0.074,0.427-0.112
	c0.149-0.019,0.298-0.054,0.449-0.1l3.347-0.298c2.9-0.657,5.785-1.395,8.676-2.102c2.889-0.719,5.766-1.502,8.648-2.259
	c2.874-0.803,5.753-1.571,8.622-2.402l8.608-2.477l16.158-4.658c-0.484,0.243-0.968,0.486-1.454,0.73
	c-5.06,2.621-9.828,6.215-13.873,10.639c-4.037,4.43-7.353,9.676-9.664,15.432c-1.189,2.867-2.017,5.893-2.694,8.959
	c-0.258,1.549-0.567,3.099-0.722,4.67l-0.21,2.364c-0.027,0.414-0.075,0.746-0.081,1.228l-0.019,1.385
	c-0.006,0.924,0.002,1.85,0.022,2.774l0.009,0.325l0.014,0.2l0.029,0.399l0.057,0.8l0.057,0.8l0.029,0.4l0.075,0.873l0.023,0.205
	l0.188,1.643c0.24,2.195,0.513,4.389,0.808,6.583c0.298,2.193,0.597,4.39,0.896,6.589l1.011,6.579
	c1.402,8.764,3.042,17.485,4.927,26.026c0.923,4.273,1.952,8.494,2.975,12.662c1.09,4.157,2.196,8.257,3.338,12.282
	c1.12,4.031,2.393,7.956,3.632,11.803c0.639,1.921,1.241,3.821,1.897,5.694c0.674,1.866,1.317,3.708,2.01,5.52
	c2.67,7.261,5.569,14.038,8.523,20.214c1.499,3.079,3.004,6.014,4.523,8.774c1.538,2.751,3.099,5.332,4.604,7.734
	c0.797,1.184,1.569,2.33,2.314,3.436c0.79,1.088,1.552,2.137,2.285,3.145c0.726,1.002,1.543,1.93,2.256,2.824
	c0.708,0.895,1.455,1.729,2.17,2.512c1.379,1.574,2.806,2.895,3.993,4.039c0.28,0.281,0.614,0.566,0.94,0.839
	c0.32,0.269,0.626,0.526,0.92,0.773c0.583,0.48,1.113,0.917,1.588,1.307c1.74,1.121,2.667,1.719,2.667,1.719
	c1.646,1.058,3.838,1.089,5.544-0.098c2.258-1.572,2.815-4.676,1.243-6.935l-0.013-0.018c0,0-0.63-0.905-1.811-2.602
	c-0.391-0.742-0.874-1.657-1.441-2.732c-0.594-1.198-1.283-2.52-1.95-4.137c-0.355-0.781-0.723-1.602-1.061-2.52
	c-0.344-0.911-0.73-1.816-1.079-2.829c-0.356-0.999-0.726-2.039-1.11-3.117c-0.349-1.102-0.711-2.244-1.085-3.424
	c-0.734-2.376-1.479-4.914-2.179-7.643c-0.724-2.717-1.458-5.589-2.135-8.628c-1.42-6.052-2.738-12.706-4.061-19.779
	c-0.622-3.551-1.261-7.199-1.915-10.928c-0.647-3.734-1.186-7.583-1.834-11.474c-0.617-3.899-1.193-7.878-1.749-11.911
	c-0.558-4.035-1.123-8.118-1.693-12.235c-1.089-8.243-2.143-16.63-3.126-25.016c-0.469-4.192-0.937-8.384-1.404-12.559
	c-0.218-2.085-0.435-4.166-0.651-6.24l-0.148-1.421l-0.016-0.254l-0.049-0.801l-0.049-0.8l-0.025-0.4l-0.012-0.2
	c-0.003-0.06,0.006-0.048,0.009-0.075c0.031-0.143,0.05-0.284,0.055-0.425c0.002-0.07,0.002-0.141-0.002-0.212
	c-0.014-0.05,0.024-0.247,0.031-0.363l0.066-0.81c0.036-0.541,0.18-1.067,0.229-1.606c0.153-0.519,0.233-1.055,0.395-1.569
	c0.195-0.503,0.285-1.04,0.512-1.53c0.756-2.012,1.799-3.904,3.072-5.614c1.289-1.699,2.825-3.175,4.528-4.451l0.645-0.475
	l0.168-0.126l0.313-0.186l0.625-0.372c0.826-0.506,1.647-1.008,2.464-1.508c1.637-0.991,3.238-2.001,4.817-2.998
	c6.315-3.991,12.192-7.949,17.529-11.772c1.376-0.985,2.715-1.958,4.02-2.919c-0.214,4.746-0.328,9.717-0.328,14.94
	c0,88.337,31.384,169.266,70.098,169.266s70.098-80.929,70.098-169.266c0-5.291-0.116-10.326-0.336-15.129
	c1.385,1.023,2.808,2.058,4.275,3.108c5.337,3.823,11.213,7.782,17.529,11.772c1.579,0.997,3.18,2.007,4.817,2.998
	c0.816,0.5,1.638,1.002,2.464,1.508l0.625,0.372l0.313,0.186l0.168,0.126l0.645,0.475c1.704,1.276,3.239,2.752,4.528,4.451
	c1.272,1.709,2.316,3.601,3.072,5.614c0.228,0.49,0.317,1.027,0.512,1.53c0.161,0.514,0.241,1.05,0.395,1.569
	c0.049,0.539,0.193,1.064,0.229,1.606l0.066,0.81c0.007,0.116,0.044,0.312,0.031,0.363c-0.005,0.071-0.005,0.141-0.002,0.212
	c0.005,0.141,0.024,0.282,0.055,0.425c0.002,0.027,0.012,0.015,0.009,0.075l-0.012,0.2l-0.025,0.4l-0.049,0.8l-0.049,0.801
	l-0.016,0.254l-0.148,1.421c-0.216,2.075-0.433,4.156-0.651,6.24c-0.467,4.175-0.935,8.367-1.404,12.559
	c-0.982,8.386-2.037,16.773-3.126,25.016c-0.569,4.116-1.134,8.2-1.693,12.235c-0.556,4.033-1.132,8.011-1.749,11.911
	c-0.648,3.891-1.187,7.74-1.834,11.474c-0.653,3.729-1.292,7.377-1.915,10.928c-1.324,7.073-2.641,13.727-4.061,19.779
	c-0.677,3.039-1.411,5.912-2.135,8.628c-0.7,2.729-1.445,5.267-2.179,7.643c-0.374,1.18-0.736,2.321-1.085,3.424
	c-0.384,1.079-0.754,2.118-1.11,3.117c-0.349,1.013-0.735,1.918-1.079,2.829c-0.338,0.919-0.706,1.74-1.061,2.52
	c-0.667,1.618-1.355,2.94-1.95,4.137c-0.567,1.076-1.049,1.99-1.441,2.732c-1.181,1.697-1.811,2.602-1.811,2.602l-0.016,0.02
	c-1.116,1.608-1.221,3.795-0.095,5.542c1.491,2.313,4.573,2.979,6.886,1.489c0,0,0.928-0.598,2.667-1.719
	c0.475-0.391,1.005-0.827,1.588-1.307c0.293-0.246,0.6-0.504,0.92-0.773c0.326-0.273,0.661-0.558,0.94-0.839
	c1.187-1.144,2.614-2.465,3.993-4.039c0.714-0.783,1.461-1.616,2.17-2.512c0.713-0.895,1.53-1.823,2.256-2.824
	c0.732-1.008,1.494-2.057,2.285-3.145c0.745-1.106,1.517-2.252,2.314-3.436c1.505-2.401,3.065-4.983,4.604-7.734
	c1.519-2.76,3.024-5.695,4.523-8.774c2.954-6.176,5.853-12.953,8.523-20.214c0.693-1.812,1.336-3.654,2.01-5.52
	c0.657-1.873,1.259-3.772,1.897-5.694c1.239-3.847,2.512-7.772,3.632-11.803c1.142-4.025,2.248-8.125,3.338-12.282
	c1.023-4.168,2.052-8.389,2.975-12.662c1.885-8.54,3.525-17.261,4.927-26.026l1.011-6.579c0.299-2.199,0.598-4.396,0.896-6.589
	c0.294-2.194,0.568-4.389,0.808-6.583l0.188-1.643l0.023-0.205l0.075-0.873l0.029-0.4l0.057-0.8l0.057-0.8l0.029-0.399l0.014-0.2
	l0.009-0.325c0.02-0.924,0.028-1.85,0.022-2.774l-0.019-1.385c-0.006-0.482-0.054-0.814-0.081-1.228l-0.21-2.364
	c-0.155-1.571-0.464-3.121-0.722-4.67c-0.676-3.067-1.504-6.093-2.694-8.959c-2.31-5.757-5.627-11.002-9.664-15.432
	c-4.045-4.424-8.813-8.018-13.873-10.639c-0.486-0.244-0.97-0.487-1.454-0.73l16.158,4.658l8.608,2.477
	c2.868,0.831,5.748,1.599,8.622,2.402c2.882,0.757,5.759,1.54,8.648,2.259c2.891,0.707,5.776,1.446,8.676,2.102l3.347,0.298
	c0.151,0.046,0.3,0.081,0.449,0.1c0.145,0.039,0.285,0.085,0.427,0.112c0.276,0.093,0.543,0.166,0.8,0.261
	c0.513,0.191,0.989,0.411,1.458,0.654c0.234,0.123,0.455,0.268,0.688,0.397c0.228,0.139,0.444,0.299,0.669,0.45
	c0.221,0.158,0.435,0.328,0.649,0.504c0.101,0.094,0.205,0.185,0.319,0.269c0.098,0.099,0.198,0.197,0.308,0.286
	c0.09,0.107,0.188,0.207,0.296,0.302c0.088,0.11,0.189,0.21,0.288,0.314c0.18,0.219,0.358,0.441,0.524,0.673
	c0.158,0.236,0.309,0.477,0.448,0.725c0.134,0.25,0.253,0.506,0.369,0.767c0.228,0.522,0.399,1.07,0.51,1.649
	c0.053,0.29,0.089,0.588,0.118,0.896c-0.004,0.155,0.016,0.311,0.029,0.47c-0.005,0.16-0.003,0.323,0.009,0.488l-0.22,1.925
	c0.011,0.429-0.006,1.177-0.018,1.803l-0.058,2.006l-0.173,4.089c-0.125,2.745-0.333,5.507-0.502,8.281
	c-0.169,2.774-0.377,5.555-0.615,8.335l-0.773,8.349c-0.263,2.786-0.547,5.575-0.88,8.357l-1.01,8.354
	c-0.349,2.786-0.736,5.567-1.151,8.345c-0.431,2.772-0.79,5.572-1.27,8.34c-0.433,2.784-0.964,5.54-1.421,8.328
	c-0.517,2.764-1,5.554-1.596,8.305c-0.527,2.779-1.122,5.537-1.729,8.303c-0.656,2.743-1.224,5.536-1.932,8.279l-1.031,4.138
	l-1.097,4.126c-0.352,1.388-0.77,2.744-1.152,4.122c-0.399,1.37-0.756,2.77-1.194,4.128l-1.257,4.124
	c-0.411,1.385-0.904,2.728-1.333,4.114c-0.859,2.775-1.883,5.472-2.788,8.281l-0.045,0.138c-0.314,0.98-0.058,2.096,0.748,2.84
	c1.108,1.022,2.834,0.952,3.856-0.155c2.037-2.208,4.117-4.434,5.99-6.796c1.951-2.323,3.753-4.745,5.555-7.189
	c0.908-1.22,1.733-2.479,2.607-3.724c0.87-1.245,1.72-2.507,2.519-3.79l2.443-3.847c0.792-1.293,1.538-2.61,2.311-3.92
	c0.78-1.308,1.513-2.634,2.245-3.964c0.734-1.329,1.482-2.659,2.163-4.011c1.383-2.699,2.774-5.407,4.067-8.152
	c1.314-2.743,2.511-5.523,3.747-8.303c1.204-2.786,2.346-5.6,3.434-8.43c0.559-1.412,1.102-2.83,1.623-4.253
	c0.52-1.423,1.081-2.841,1.557-4.277c0.991-2.865,1.954-5.741,2.878-8.63c0.931-2.887,1.82-5.789,2.623-8.71
	c0.834-2.916,1.617-5.845,2.379-8.783c0.78-2.935,1.439-5.895,2.107-8.859c0.661-2.965,1.292-5.94,1.884-8.932
	c0.603-2.99,1.096-6.002,1.589-9.04l0.698-4.591l0.324-2.339c0.055-0.427,0.107-0.823,0.16-1.247l-0.072,0.625l0.412-2.398
	c0.113-0.806,0.198-1.62,0.279-2.432c0.132-1.632,0.187-3.277,0.149-4.928C472.118,298.255,471.674,294.944,470.872,291.72z"/>
</svg>
