<?xml version="1.0" encoding="iso-8859-1"?>
<!-- Generator: Adobe Illustrator 19.2.0, SVG Export Plug-In . SVG Version: 6.00 Build 0)  -->
<!DOCTYPE svg PUBLIC "-//W3C//DTD SVG 1.1//EN" "http://www.w3.org/Graphics/SVG/1.1/DTD/svg11.dtd">
<svg version="1.1" xmlns="http://www.w3.org/2000/svg" xmlns:xlink="http://www.w3.org/1999/xlink" x="0px" y="0px"
	 viewBox="0 0 512 512" enable-background="new 0 0 512 512" xml:space="preserve">
<g id="Layer_4">
	<path fill="#B9C5C6" d="M490.215,21.878L490.215,21.878c-27.713-27.713-72.644-27.713-100.356,0l-109.6,109.6
		c-0.526,0.526-1.001,1.081-1.451,1.651c-14.954,13.049-24.452,32.195-24.608,53.567c2.137-2.223,4.262-4.434,6.363-6.619
		c2.58-2.695,5.104-5.359,7.601-8.003c3.167-5.766,7.374-10.874,12.352-15.101c0.226-0.192,0.454-0.383,0.683-0.571
		c0.697-0.572,1.404-1.131,2.129-1.669c0.068-0.051,0.134-0.105,0.203-0.155c0.819-0.601,1.659-1.174,2.513-1.729
		c8.409-5.471,18.436-8.663,29.216-8.663c29.659,0,53.702,24.043,53.702,53.702c0,8.976-2.217,17.427-6.114,24.861
		c-0.24,0.459-0.486,0.913-0.739,1.364c-0.139,0.248-0.282,0.495-0.425,0.741c-0.239,0.411-0.483,0.818-0.732,1.222
		c-0.172,0.279-0.348,0.555-0.526,0.83c-0.234,0.363-0.471,0.725-0.713,1.082c-0.208,0.307-0.421,0.61-0.635,0.912
		c-0.225,0.317-0.452,0.633-0.683,0.945c-0.246,0.331-0.497,0.658-0.75,0.984c-0.215,0.276-0.43,0.552-0.65,0.823
		c-0.281,0.347-0.569,0.689-0.858,1.029c-5.307,6.232-12.003,11.243-19.624,14.531c-1.499,1.423-3,2.849-4.514,4.298
		c-2.554,2.455-5.144,4.945-7.75,7.45c0.572,0.013,1.141,0.043,1.716,0.043c25.218,0,47.374-13.019,60.17-32.69l104.081-104.08
		C517.927,94.522,517.927,49.591,490.215,21.878z"/>
</g>
<g id="Layer_1">
</g>
</svg>
