<?xml version="1.0" encoding="iso-8859-1"?>
<!-- Generator: Adobe Illustrator 19.2.0, SVG Export Plug-In . SVG Version: 6.00 Build 0)  -->
<!DOCTYPE svg PUBLIC "-//W3C//DTD SVG 1.1//EN" "http://www.w3.org/Graphics/SVG/1.1/DTD/svg11.dtd">
<svg version="1.1" xmlns="http://www.w3.org/2000/svg" xmlns:xlink="http://www.w3.org/1999/xlink" x="0px" y="0px"
	 viewBox="0 0 512 512" enable-background="new 0 0 512 512" xml:space="preserve">
<g id="Layer_2">
	<path fill="#0074A8" d="M491,326V153.845v-30.057V92.143C491,79.021,480.259,68,467.137,68H341.13
		c-9.287,0-17.723,5.603-21.596,14.044l-12.709,27.903C302.952,118.388,294.516,124,285.229,124H67.538
		C54.416,124,44,134.426,44,147.549v216.363C44,377.034,54.416,388,67.538,388h399.599c0.628,0,1.248-0.36,1.863-0.408V433h0.342
		c0,6,4.877,10.636,10.829,10.636c5.952,0,10.829-4.967,10.829-10.919V326L491,326z"/>
</g>
<g id="Layer_3">
	<path fill="#59CAFC" d="M480.171,443.636c-5.952,0-10.829-4.636-10.829-10.636H469v-29.335V326V210.181
		C469,197.058,458.661,186,445.539,186H45.94C32.818,186,22,197.058,22,210.181v29.123V449.37C22,462.492,32.818,473,45.94,473
		h399.599c1.385,0,2.741-0.06,4.061-0.288c1.639,0.227,3.31,0.385,5.012,0.385c20.04,0,36.136-16.229,36.136-36.269
		c0-0.534-0.036-1.058-0.058-1.586C489.543,440.008,485.255,443.636,480.171,443.636z"/>
</g>
</svg>
