<?xml version="1.0" encoding="iso-8859-1"?>
<!-- Generator: Adobe Illustrator 19.2.1, SVG Export Plug-In . SVG Version: 6.00 Build 0)  -->
<!DOCTYPE svg PUBLIC "-//W3C//DTD SVG 1.1//EN" "http://www.w3.org/Graphics/SVG/1.1/DTD/svg11.dtd">
<svg version="1.1" xmlns="http://www.w3.org/2000/svg" xmlns:xlink="http://www.w3.org/1999/xlink" x="0px" y="0px"
	 viewBox="0 0 512 512" enable-background="new 0 0 512 512" xml:space="preserve">
<g id="Layer_2">
	<path fill="#2B2622" d="M75.702,480.187l-55.765,23.617c-4.174,1.768-8.99-0.183-10.758-4.357c-0.898-2.121-0.826-4.432,0-6.401
		l23.617-55.765c7.05-16.646,26.259-24.426,42.906-17.376c16.646,7.05,24.426,26.259,17.376,42.906
		C89.637,470.935,83.223,476.98,75.702,480.187z"/>
</g>
<g id="Layer_3">
	<path fill="#E5AA6E" d="M153.573,449.535L46.981,492.678l-26.676-26.676L63.449,359.41L153.573,449.535z"/>
</g>
<g id="Layer_4">
	<path fill="#FFD469" d="M352.023,90.77l70.191,70.191c6.025,6.025,6.025,15.794,0,21.819L157.73,447.263
		c-2.812,2.812-7.371,2.812-10.182,0l-81.827-81.827c-2.812-2.812-2.812-7.371,0-10.182L330.204,90.77
		C336.229,84.744,345.998,84.744,352.023,90.77z"/>
</g>
<g id="Layer_5">
	<path fill="#FF6E83" d="M450.433,23.129l39.421,39.421c14.522,14.522,14.522,38.066,0,52.588l-33.615,33.615
		c-2.812,2.812-7.371,2.812-10.182,0l-81.827-81.827c-2.812-2.812-2.812-7.371,0-10.182l33.615-33.615
		C412.367,8.607,435.911,8.607,450.433,23.129z"/>
</g>
<g id="Layer_6">
	<path fill="#B9C5C6" d="M366.373,54.6l92.009,92.009l-62.809,62.809l-92.009-92.009L366.373,54.6z"/>
</g>
<g id="Layer_7">
	<path fill="#96A9B2" d="M435.29,169.702l-92.009-92.009l8.33-8.33l92.009,92.009L435.29,169.702z M420.509,184.483L328.5,92.474
		l-8.33,8.33l92.009,92.009L420.509,184.483z"/>
</g>
</svg>
