<?xml version="1.0" encoding="iso-8859-1"?>
<!-- Generator: Adobe Illustrator 19.1.0, SVG Export Plug-In . SVG Version: 6.00 Build 0)  -->
<!DOCTYPE svg PUBLIC "-//W3C//DTD SVG 1.1//EN" "http://www.w3.org/Graphics/SVG/1.1/DTD/svg11.dtd">
<svg version="1.1" xmlns="http://www.w3.org/2000/svg" xmlns:xlink="http://www.w3.org/1999/xlink" x="0px" y="0px"
	 viewBox="0 0 512 512" enable-background="new 0 0 512 512" xml:space="preserve">
<g id="Layer_2">
	<path fill="#AAB8B9" d="M186.694,194.52c-23.34-21.518-66.974-6.975-65.227,22.26c1.818,30.42-21.206,38.662-34.668,55.781
		c-6.208,7.894-12.825,6.308-20.166,0.641c-21.769-16.806-42.809-34.295-58.154-57.513c-4.198-6.352-11.615-14.445-4.559-20.966
		c15.741-14.547,24.524-36.768,51.932-38.686c27.628-1.933,43.392-21.384,44.978-49.269c0.648-11.388,2.958-20.156,10.81-28.84
		C172.107,11.055,284.77-8.773,362.554,34.337c5.828,3.23,14.617,5.389,13.155,13.569c-1.62,9.057-8.997,14.933-18.531,15.989
		c-6.75,0.748-13.649,0.145-20.481,0.145c-34.747-1.814-73.293,9.372-93.985,26.509c-22.111,18.312-23.987,36.855-4.562,57.185
		l34.404,33.467l-52.641,47.51L186.694,194.52z"/>
</g>
<g id="Layer_3">
	<path fill="#8E6049" d="M502.204,421.228l-41.668,41.668c-8.684,8.684-22.764,8.684-31.448,0L221.541,255.35
		c-8.684-8.684-8.684-22.764,0-31.448l41.668-41.668c8.684-8.684,22.764-8.684,31.448,0l207.547,207.547
		C510.888,398.465,510.888,412.544,502.204,421.228z"/>
</g>
<g id="Layer_4">
	<path fill="#D3E2E2" d="M35.338,215.382c-3.261,0-6.521-1.244-9.009-3.732c-4.976-4.976-4.976-13.043,0-18.019l14.695-14.695
		c4.976-4.976,13.043-4.976,18.019,0s4.976,13.043,0,18.019L44.347,211.65C41.859,214.138,38.599,215.382,35.338,215.382z
		 M136.932,105.305L160.8,81.437c4.976-4.976,4.976-13.043,0-18.019s-13.043-4.976-18.019,0l-23.868,23.868
		c-4.976,4.976-4.976,13.043,0,18.019c2.488,2.488,5.749,3.732,9.009,3.732S134.444,107.793,136.932,105.305z"/>
</g>
<g id="Layer_5">
	<path fill="#909999" d="M114.415,193.82c-3.261,0-6.521-1.244-9.009-3.732l-14.44-14.44c-4.976-4.976-4.976-13.043,0-18.019
		s13.043-4.976,18.019,0l14.44,14.44c4.976,4.976,4.976,13.043,0,18.019C120.936,192.576,117.675,193.82,114.415,193.82z"/>
</g>
</svg>
