<?xml version="1.0" encoding="iso-8859-1"?>
<!-- Generator: Adobe Illustrator 19.2.0, SVG Export Plug-In . SVG Version: 6.00 Build 0)  -->
<!DOCTYPE svg PUBLIC "-//W3C//DTD SVG 1.1//EN" "http://www.w3.org/Graphics/SVG/1.1/DTD/svg11.dtd">
<svg version="1.1" xmlns="http://www.w3.org/2000/svg" xmlns:xlink="http://www.w3.org/1999/xlink" x="0px" y="0px"
	 viewBox="0 0 512 512" enable-background="new 0 0 512 512" xml:space="preserve">
<g id="Layer_2">
	<path fill="#819096" d="M79.098,254.454h-14c0-28.365,3.564-54.231,10.307-74.802c7.534-22.984,18.618-38.782,32.946-46.954
		c21.216-12.102,43.911-3.853,59.213,5.197c5.16,3.051,8.223,2.576,10.08,1.951c10.565-3.556,20.046-26.799,29.215-49.277
		c14.515-35.585,30.967-75.918,64.396-82.662c24.648-4.969,53.613,9.605,88.564,44.556l-9.9,9.899
		c-30.942-30.943-56.468-44.65-75.896-40.732c-26.069,5.259-41.015,41.899-54.201,74.226
		c-11.307,27.718-21.071,51.656-37.712,57.257c-6.898,2.323-14.19,1.256-21.672-3.169c-17.613-10.417-32.803-12.128-45.15-5.086
		C92.964,157.591,79.098,199.585,79.098,254.454z"/>
</g>
<g id="Layer_3">
	<path fill="#ADB8BC" d="M84.916,293.948H59.279c-6.767,0-12.253-5.486-12.253-12.253v-25.637c0-6.767,5.486-12.253,12.253-12.253
		h25.637c6.767,0,12.253,5.486,12.253,12.253v25.637C97.169,288.462,91.684,293.948,84.916,293.948z"/>
</g>
<g id="Layer_4">
	<path fill="#C5CFD1" d="M444.836,507.858H24.377c-12.357,0-22.375-10.018-22.375-22.375V294.438
		c0-12.357,10.018-22.375,22.375-22.375h420.46c12.357,0,22.375,10.018,22.375,22.375v191.046
		C467.211,497.84,457.193,507.858,444.836,507.858z"/>
</g>
<g id="Layer_5">
	<path fill="#597B91" d="M351.971,444.517v25.135c0,4.028-3.265,7.293-7.293,7.293H124.387c-4.028,0-7.293-3.265-7.293-7.293
		v-25.135c0-4.028,3.265-7.293,7.293-7.293h220.292C348.706,437.224,351.971,440.49,351.971,444.517z M84.665,372.368H59.53
		c-4.028,0-7.293,3.265-7.293,7.293v25.135c0,4.028,3.265,7.293,7.293,7.293h25.135c4.028,0,7.293-3.265,7.293-7.293v-25.135
		C91.958,375.633,88.693,372.368,84.665,372.368z M149.669,372.368h-25.135c-4.028,0-7.293,3.265-7.293,7.293v25.135
		c0,4.028,3.265,7.293,7.293,7.293h25.135c4.028,0,7.293-3.265,7.293-7.293v-25.135
		C156.961,375.633,153.696,372.368,149.669,372.368z M214.672,372.368h-25.135c-4.028,0-7.293,3.265-7.293,7.293v25.135
		c0,4.028,3.265,7.293,7.293,7.293h25.135c4.028,0,7.293-3.265,7.293-7.293v-25.135C221.965,375.633,218.7,372.368,214.672,372.368z
		 M279.675,372.368h-25.135c-4.028,0-7.293,3.265-7.293,7.293v25.135c0,4.028,3.265,7.293,7.293,7.293h25.135
		c4.028,0,7.293-3.265,7.293-7.293v-25.135C286.968,375.633,283.703,372.368,279.675,372.368z M344.679,372.368h-25.135
		c-4.028,0-7.293,3.265-7.293,7.293v25.135c0,4.028,3.265,7.293,7.293,7.293h25.135c4.028,0,7.293-3.265,7.293-7.293v-25.135
		C351.971,375.633,348.706,372.368,344.679,372.368z M409.682,372.368h-25.135c-4.028,0-7.293,3.265-7.293,7.293v25.135
		c0,4.028,3.265,7.293,7.293,7.293h25.135c4.028,0,7.293-3.265,7.293-7.293v-25.135C416.975,375.633,413.71,372.368,409.682,372.368
		z M84.665,309.058H59.53c-4.028,0-7.293,3.265-7.293,7.293v25.135c0,4.028,3.265,7.293,7.293,7.293h25.135
		c4.028,0,7.293-3.265,7.293-7.293v-25.135C91.958,312.323,88.693,309.058,84.665,309.058z M149.669,309.058h-25.135
		c-4.028,0-7.293,3.265-7.293,7.293v25.135c0,4.028,3.265,7.293,7.293,7.293h25.135c4.028,0,7.293-3.265,7.293-7.293v-25.135
		C156.961,312.323,153.696,309.058,149.669,309.058z M214.672,309.058h-25.135c-4.028,0-7.293,3.265-7.293,7.293v25.135
		c0,4.028,3.265,7.293,7.293,7.293h25.135c4.028,0,7.293-3.265,7.293-7.293v-25.135C221.965,312.323,218.7,309.058,214.672,309.058z
		 M279.675,309.058h-25.135c-4.028,0-7.293,3.265-7.293,7.293v25.135c0,4.028,3.265,7.293,7.293,7.293h25.135
		c4.028,0,7.293-3.265,7.293-7.293v-25.135C286.968,312.323,283.703,309.058,279.675,309.058z M344.679,309.058h-25.135
		c-4.028,0-7.293,3.265-7.293,7.293v25.135c0,4.028,3.265,7.293,7.293,7.293h25.135c4.028,0,7.293-3.265,7.293-7.293v-25.135
		C351.971,312.323,348.706,309.058,344.679,309.058z M409.682,309.058h-25.135c-4.028,0-7.293,3.265-7.293,7.293v25.135
		c0,4.028,3.265,7.293,7.293,7.293h25.135c4.028,0,7.293-3.265,7.293-7.293v-25.135C416.975,312.323,413.71,309.058,409.682,309.058
		z"/>
</g>
<g id="Layer_6">
	<path fill="#ADB8BC" d="M459.543,64.167c61.513,61.513,55.816,99.656,28.775,126.696s-66.205,31.716-126.696-28.775
		C327.65,128.115,322.03,78.654,349.07,51.614S425.571,30.194,459.543,64.167z"/>
</g>
<g id="Layer_7">
	<path fill="#819096" d="M452.924,58.067c-4.797,10.986-15.62,30.356-38.967,54.19l-62.765-62.766l-4.244,4.245l62.757,62.758
		c-19.084,18.685-35.212,29.194-45.519,34.744c-3.284,1.769-6.178,3.147-8.663,4.23c1.571,1.85,3.235,3.656,4.959,5.432
		c12.31-5.68,32.226-17.526,56.287-41.588c24.061-24.061,35.908-43.977,41.587-56.287C456.581,61.303,454.775,59.638,452.924,58.067
		z"/>
</g>
<g id="Layer_8">
	<path fill="#1C4C5A" d="M398.159,98.273l-2.431,2.431c-4.458,4.458-11.686,4.458-16.144,0l-17.368-17.368
		c-4.458-4.458-4.458-11.686,0-16.144l2.431-2.431c4.458-4.458,11.686-4.458,16.144,0l17.368,17.368
		C402.617,86.586,402.617,93.814,398.159,98.273z"/>
</g>
</svg>
