<?xml version="1.0" encoding="iso-8859-1"?>
<!-- Generator: Adobe Illustrator 19.2.1, SVG Export Plug-In . SVG Version: 6.00 Build 0)  -->
<!DOCTYPE svg PUBLIC "-//W3C//DTD SVG 1.1//EN" "http://www.w3.org/Graphics/SVG/1.1/DTD/svg11.dtd">
<svg version="1.1" xmlns="http://www.w3.org/2000/svg" xmlns:xlink="http://www.w3.org/1999/xlink" x="0px" y="0px"
	 viewBox="0 0 512 512" enable-background="new 0 0 512 512" xml:space="preserve">
<g id="Layer_5">
	<path fill="#F4F9F9" d="M212.891,179.082c0,7.857-11.904,14.226-26.588,14.226s-26.588-6.369-26.588-14.226
		c0-7.857,11.904-14.226,26.588-14.226S212.891,171.225,212.891,179.082z M256,164.856c-14.684,0-26.588,6.369-26.588,14.226
		c0,7.857,11.904,14.226,26.588,14.226c14.684,0,26.588-6.369,26.588-14.226C282.588,171.225,270.684,164.856,256,164.856z
		 M325.697,164.856c-14.684,0-26.588,6.369-26.588,14.226c0,7.857,11.904,14.226,26.588,14.226s26.588-6.369,26.588-14.226
		C352.285,171.225,340.381,164.856,325.697,164.856z M171.708,208.275c-17.919,0-32.444,7.772-32.444,17.36
		c0,9.587,14.526,17.36,32.444,17.36s32.444-7.772,32.444-17.36C204.152,216.048,189.626,208.275,171.708,208.275z M256,208.275
		c-17.919,0-32.444,7.772-32.444,17.36c0,9.587,14.526,17.36,32.444,17.36s32.444-7.772,32.444-17.36
		C288.444,216.048,273.919,208.275,256,208.275z M340.292,208.275c-17.919,0-32.444,7.772-32.444,17.36
		c0,9.587,14.526,17.36,32.444,17.36s32.444-7.772,32.444-17.36C372.737,216.048,358.211,208.275,340.292,208.275z M155.939,258.154
		c-21.413,0-38.772,9.288-38.772,20.745c0,11.457,17.359,20.745,38.772,20.745s38.772-9.288,38.772-20.745
		C194.711,267.442,177.352,258.154,155.939,258.154z M256,258.154c-21.413,0-38.772,9.288-38.772,20.745
		c0,11.457,17.359,20.745,38.772,20.745s38.772-9.288,38.772-20.745C294.772,267.442,277.413,258.154,256,258.154z M356.061,258.154
		c-21.413,0-38.772,9.288-38.772,20.745c0,11.457,17.359,20.745,38.772,20.745c21.413,0,38.772-9.288,38.772-20.745
		C394.833,267.442,377.474,258.154,356.061,258.154z"/>
</g>
<g id="Layer_1">
</g>
</svg>
