<?xml version="1.0" encoding="iso-8859-1"?>
<!-- Generator: Adobe Illustrator 19.2.0, SVG Export Plug-In . SVG Version: 6.00 Build 0)  -->
<!DOCTYPE svg PUBLIC "-//W3C//DTD SVG 1.1//EN" "http://www.w3.org/Graphics/SVG/1.1/DTD/svg11.dtd">
<svg version="1.1" xmlns="http://www.w3.org/2000/svg" xmlns:xlink="http://www.w3.org/1999/xlink" x="0px" y="0px"
	 viewBox="0 0 512 512" enable-background="new 0 0 512 512" xml:space="preserve">
<g id="Layer_2">
	<path fill="#597B91" d="M495.864,323.559c-73.411,0-106.132-68.677-107.424-128.792c0.034-1.232,0.054-2.468,0.054-3.708
		c0-73.232-59.366-132.598-132.598-132.598s-132.598,59.366-132.598,132.598c0,2.238,0.057,4.462,0.167,6.673
		C121.398,263.263,88.64,323.559,16.17,323.559c-6.26,0-11.17,5.075-11.17,11.334v84.643C5,425.797,9.77,431,16.03,431h236.593
		c1.193,0,2.343-0.187,3.423-0.529c1.08,0.342,2.23,0.529,3.423,0.529h236.593c6.26,0,10.938-5.203,10.938-11.463v-84.643
		C507,328.634,502.124,323.559,495.864,323.559z"/>
</g>
<g id="Layer_1">
</g>
</svg>
