<?xml version="1.0" encoding="iso-8859-1"?>
<!-- Generator: Adobe Illustrator 19.2.0, SVG Export Plug-In . SVG Version: 6.00 Build 0)  -->
<!DOCTYPE svg PUBLIC "-//W3C//DTD SVG 1.1//EN" "http://www.w3.org/Graphics/SVG/1.1/DTD/svg11.dtd">
<svg version="1.1" xmlns="http://www.w3.org/2000/svg" xmlns:xlink="http://www.w3.org/1999/xlink" x="0px" y="0px"
	 viewBox="0 0 512 512" enable-background="new 0 0 512 512" xml:space="preserve">
<g id="Layer_2">
	<path fill="#FFD469" d="M450.812,462.658H74.759c-4.861,0-8.802-3.941-8.802-8.802V77.802c0-4.861,3.941-8.802,8.802-8.802h376.215
		c4.772,0,8.64,3.868,8.64,8.64v160.214v216.001C459.614,458.717,455.673,462.658,450.812,462.658z"/>
</g>
<g id="Layer_3">
	<path fill="#597B91" d="M393.375,168.403H126.007c-6.613,0-11.974-5.36-11.974-11.973s5.361-11.973,11.974-11.973h267.368
		c6.612,0,11.974,5.36,11.974,11.973S399.987,168.403,393.375,168.403z M340.316,234.804c0-6.613-5.361-11.974-11.974-11.974
		H126.007c-6.613,0-11.974,5.361-11.974,11.974s5.361,11.974,11.974,11.974h202.335
		C334.955,246.777,340.316,241.417,340.316,234.804z M254.837,313.178c0-6.612-5.361-11.974-11.974-11.974H126.007
		c-6.613,0-11.974,5.361-11.974,11.974s5.361,11.974,11.974,11.974h116.856C249.476,325.151,254.837,319.79,254.837,313.178z
		 M356.002,391.552c0-6.612-5.361-11.974-11.974-11.974H126.007c-6.613,0-11.974,5.361-11.974,11.974s5.361,11.974,11.974,11.974
		h218.021C350.641,403.525,356.002,398.164,356.002,391.552z M396.336,313.178c0-6.612-5.361-11.974-11.974-11.974h-80.668
		c-6.612,0-11.974,5.361-11.974,11.974s5.361,11.974,11.974,11.974h80.668C390.975,325.151,396.336,319.79,396.336,313.178z"/>
</g>
</svg>
