<?xml version="1.0" encoding="iso-8859-1"?>
<!-- Generator: Adobe Illustrator 18.1.1, SVG Export Plug-In . SVG Version: 6.00 Build 0)  -->
<!DOCTYPE svg PUBLIC "-//W3C//DTD SVG 1.1//EN" "http://www.w3.org/Graphics/SVG/1.1/DTD/svg11.dtd">
<svg version="1.1" xmlns="http://www.w3.org/2000/svg" xmlns:xlink="http://www.w3.org/1999/xlink" x="0px" y="0px"
	 viewBox="0 0 512 512" enable-background="new 0 0 512 512" xml:space="preserve">
<g id="Layer_2">
	<path fill="#597B91" d="M508.333,32.666C508.333,16.35,494.984,3,478.668,3H29.032C14.348,3,2.333,15.015,2.333,29.699v452.602
		C2.333,496.985,14.348,509,29.032,509h449.635c16.316,0,29.666-13.35,29.666-29.666V32.666z"/>
</g>
<g id="Layer_3">
	<path fill="#2B5770" d="M478.668,488.915H29.032c-14.684,0-26.699-12.015-26.699-26.699v20.085
		C2.333,496.985,14.348,509,29.032,509h449.635c16.316,0,29.666-13.35,29.666-29.666v-20.085
		C508.333,475.565,494.984,488.915,478.668,488.915z"/>
</g>
<g id="Layer_4">
	<path fill="#F9F9F7" d="M450.79,359.432l-106.461-70.626c-5.889-3.907-13.758,0.316-13.758,7.383v46.042
		c-33.378,0-64.104-19.525-78.28-49.745L203.228,187.89c-22.235-47.403-70.435-78.032-122.793-78.032
		c-13.577,0-24.583,11.006-24.583,24.583s11.006,24.583,24.583,24.583c33.378,0,64.105,19.526,78.28,49.745l49.063,104.596
		c22.236,47.402,70.435,78.032,122.793,78.032v46.042c0,7.067,7.868,11.29,13.758,7.383l106.461-70.626
		C456.072,370.693,456.072,362.936,450.79,359.432z"/>
</g>
<g id="Layer_5">
	<path fill="#597B91" d="M80.435,419.559H57.003v-84h23.432c26.655,0,51.192-15.593,62.512-39.726l49.063-104.596
		c12.368-26.366,31.896-48.557,56.475-64.177c24.579-15.619,52.964-23.875,82.086-23.875h30.432v84h-30.432
		c-26.655,0-51.192,15.593-62.513,39.725l-49.062,104.596c-12.368,26.366-31.896,48.558-56.475,64.178
		C137.942,411.303,109.557,419.559,80.435,419.559z"/>
</g>
<g id="Layer_6">
	<path fill="#F9F9F7" d="M450.79,137.802L344.329,67.177c-5.889-3.907-13.758,0.316-13.758,7.383v46.042
		c-52.358,0-100.558,30.629-122.793,78.032l-49.063,104.596c-14.175,30.22-44.901,49.745-78.28,49.745
		c-13.577,0-24.583,11.007-24.583,24.584s11.006,24.584,24.583,24.584c52.358,0,100.558-30.63,122.793-78.032l49.062-104.596
		c14.176-30.219,44.902-49.745,78.28-49.745v46.042c0,7.067,7.868,11.29,13.758,7.383l106.461-70.626
		C456.072,149.064,456.072,141.307,450.79,137.802z"/>
</g>
</svg>
