<svg xmlns="http://www.w3.org/2000/svg" viewBox="0 0 566.93 566.93" enable-background="new 0 0 566.93 566.93"><path fill="#F9F9F7" d="M323.357 238.14H304.51l-7.412-125.69h.082V81.373c0-4.403-3.57-7.972-7.972-7.972h-1.25l-.75-34.576c-.046-1.99-1.65-3.62-3.662-3.663-2.067-.045-3.78 1.596-3.826 3.663l-.75 34.576h-1.167c-4.403 0-7.972 3.57-7.972 7.972v31.075l-7.41 125.69h-18.848c-4.403 0-7.972 3.57-7.972 7.973v64.25c0 4.402 3.57 7.97 7.972 7.97h79.783c4.403 0 7.972-3.57 7.972-7.97v-64.25c.003-4.403-3.567-7.972-7.97-7.972z"/></svg>