<?xml version="1.0" encoding="iso-8859-1"?>
<!-- Generator: Adobe Illustrator 19.2.1, SVG Export Plug-In . SVG Version: 6.00 Build 0)  -->
<!DOCTYPE svg PUBLIC "-//W3C//DTD SVG 1.1//EN" "http://www.w3.org/Graphics/SVG/1.1/DTD/svg11.dtd">
<svg version="1.1" xmlns="http://www.w3.org/2000/svg" xmlns:xlink="http://www.w3.org/1999/xlink" x="0px" y="0px"
	 viewBox="0 0 512 512" enable-background="new 0 0 512 512" xml:space="preserve">
<g id="Layer_4">
	<path fill="#597B91" d="M398.638,291.936H111.448c-4.142,0-7.5-3.357-7.5-7.5s3.358-7.5,7.5-7.5h287.189c4.143,0,7.5,3.357,7.5,7.5
		S402.78,291.936,398.638,291.936z M406.138,343.354c0-4.143-3.357-7.5-7.5-7.5H111.448c-4.142,0-7.5,3.357-7.5,7.5
		s3.358,7.5,7.5,7.5h287.189C402.78,350.854,406.138,347.497,406.138,343.354z M406.138,402.274c0-4.143-3.357-7.5-7.5-7.5H111.448
		c-4.142,0-7.5,3.357-7.5,7.5s3.358,7.5,7.5,7.5h287.189C402.78,409.774,406.138,406.417,406.138,402.274z"/>
</g>
<g id="Layer_1">
</g>
</svg>
