<?xml version="1.0" encoding="iso-8859-1"?>
<!-- Generator: Adobe Illustrator 19.2.0, SVG Export Plug-In . SVG Version: 6.00 Build 0)  -->
<!DOCTYPE svg PUBLIC "-//W3C//DTD SVG 1.1//EN" "http://www.w3.org/Graphics/SVG/1.1/DTD/svg11.dtd">
<svg version="1.1" xmlns="http://www.w3.org/2000/svg" xmlns:xlink="http://www.w3.org/1999/xlink" x="0px" y="0px"
	 viewBox="0 0 512 512" enable-background="new 0 0 512 512" xml:space="preserve">
<g id="Layer_7">
	<path fill="#819096" d="M373.342,193.045v-55.893c0.202-0.558,0.33-1.151,0.33-1.779s-0.128-1.221-0.33-1.779V58.039
		c0-8.585-6.984-15.57-15.57-15.57H154.228c-8.585,0-15.57,6.984-15.57,15.57v75.556c-0.202,0.558-0.33,1.151-0.33,1.779
		s0.128,1.221,0.33,1.779v55.893c-0.202,0.558-0.33,1.151-0.33,1.779s0.128,1.221,0.33,1.779v37.48c0,8.585,6.984,15.57,15.57,15.57
		h203.543c8.586,0,15.57-6.984,15.57-15.57v-37.48c0.202-0.558,0.33-1.151,0.33-1.779S373.543,193.603,373.342,193.045z
		 M148.512,140.63h214.977v48.937H148.512V140.63z M154.228,52.322h203.543c3.152,0,5.717,2.564,5.717,5.716v72.078H148.512V58.039
		C148.512,54.887,151.076,52.322,154.228,52.322z M357.771,239.799H154.228c-3.152,0-5.716-2.564-5.716-5.716v-34.002h214.977
		v34.002C363.488,237.234,360.924,239.799,357.771,239.799z"/>
</g>
<g id="Layer_1">
</g>
</svg>
