<?xml version="1.0" encoding="iso-8859-1"?>
<!-- Generator: Adobe Illustrator 19.2.0, SVG Export Plug-In . SVG Version: 6.00 Build 0)  -->
<!DOCTYPE svg PUBLIC "-//W3C//DTD SVG 1.1//EN" "http://www.w3.org/Graphics/SVG/1.1/DTD/svg11.dtd">
<svg version="1.1" xmlns="http://www.w3.org/2000/svg" xmlns:xlink="http://www.w3.org/1999/xlink" x="0px" y="0px"
	 viewBox="0 0 511.92 512.062" enable-background="new 0 0 511.92 512.062" xml:space="preserve">
<g id="Layer_2">
	<path fill="#CCCCCC" d="M328.96,301.041l-14.897-91.763l-24.701,9l-18.645,80.535l-108.828,10.575c0,0-16.427,48.834,12.232,50.068
		c7.764,0.334,15.26,0.188,23.033-0.14c9.001-0.38,9.261,2.48,22.001,0.87c17.988-2.273,28.634-1.095,57.019-4.273
		c44.521-4.986,58.656-12.024,48.758-53.962L328.96,301.041z"/>
</g>
<g id="Layer_3">
	<path fill="#E0E0E0" d="M308.883,233.37c-3.015,0-5.906,1.198-8.038,3.33h0c-3.875,1.433-2.848,7.175,1.284,7.175l59.796,11.88
		c20.022,2.939,34.495,16.628,31.217,36.597l0,0c-3.2,19.496-21.439,32.827-40.987,29.958c0,0-19.306-1.521-68.842-3.535
		s-166.149,54.042-206.328,19.43c-18.113-15.604-23.787-27.558-37.566-27.558h0c-18.136,0-26.214-12.146-30.64-29.734
		c-1.511-6.002-2.458-13.132-2.458-21.577c0-41.609,18.759-47.848,18.759-47.848l158.491-51.61c0,0,8.656-7.637,39.407-7.637
		c103.455,0,266.495,24.852,266.495,24.852c10.865,0,19.672,1.802,19.672,12.666v2.433c0,27.671-34.664,41.179-63.836,41.179
		c-55.28,0-64.784-2.573-90.939-2.573L308.883,233.37z"/>
</g>
</svg>
