<?xml version="1.0" encoding="iso-8859-1"?>
<!-- Generator: Adobe Illustrator 19.2.0, SVG Export Plug-In . SVG Version: 6.00 Build 0)  -->
<!DOCTYPE svg PUBLIC "-//W3C//DTD SVG 1.1//EN" "http://www.w3.org/Graphics/SVG/1.1/DTD/svg11.dtd">
<svg version="1.1" xmlns="http://www.w3.org/2000/svg" xmlns:xlink="http://www.w3.org/1999/xlink" x="0px" y="0px"
	 viewBox="0 0 512 512" enable-background="new 0 0 512 512" xml:space="preserve">
<g id="Layer_2">
	<path d="M386.855,241.607l0.504-4.313c0-1.685-0.043-3.36-0.107-5.03c0.07-1.01,0.107-2.114,0.107-3.313c0-5.99,0-8.843,0-10.101
		c0-0.026,0-0.263,0-0.881c0-2.096,0-8.638,0-26.716c0-50.027-20.382-116.93-104.559-121.112v-0.207h-39.474
		c-91.277,0-116.76,60.526-116.76,117.073c0,26.56,0,32.028,0,32.959c0-0.009,0,0.031,0,0.17c0,0.538,0,2.603,0,9.455
		c0,4.233,1.373,8.263,3.313,10.429l0.192,1.638c0,0-0.001,0-0.002,0c-12.448,2.428-21.851,13.402-21.851,26.564
		c0,14.942,12.118,27.064,27.053,27.064c0.364,0,0.717-0.04,1.078-0.054l1.183,10.098c0,36.647,16.3,69.485,42.042,91.664
		c21.208,18.436,48.905,29.603,79.214,29.603c66.698,0,120.797-54.083,120.797-120.791l0.32-4.773l0.681-5.823
		c0.495,0.027,0.984,0.075,1.486,0.075c14.935,0,27.053-12.122,27.053-27.064C409.125,254.917,399.506,243.871,386.855,241.607z"/>
</g>
<g id="Layer_3">
	<path fill="#2B3B47" d="M430.429,217.678c-9.769-6.282-21.768-12.857-36.187-18.955L358.085,16.497
		c-1.426-7.186-7.652-12.133-14.609-12.293c-2.154-0.05-4.271,0.536-6.235,1.422c-9.288,4.193-49.096,21.234-82.568,21.234
		c-33.949,0-76.709-17.549-85.745-21.427c-1.468-0.63-3.005-1.105-4.6-1.199c-7.632-0.45-14.647,4.919-15.937,12.764
		l-30.112,183.093c-15.417,6.601-28.393,13.749-39.052,20.579c-7.285,4.668-1.999,22.502,6.235,19.844
		c35.633-11.504,92.695-13.527,171.714-13.527c79.123,0,133.772,0.49,167.155,10.578
		C432.534,240.043,437.636,222.313,430.429,217.678z"/>
</g>
<g id="Layer_4">
	<path fill="#2B3B47" d="M420.641,428.243l21.951-78.883c3.491-12.567-5.443-24.984-15.419-21.411l-51.546,18.556
		c-1.259,0.423-2.552,0.495-3.908,1.495c0,0-0.001,0-0.001,0l-15.378,5.416c-74.658,25.091-138.386,21.568-221.052-8.038
		l-48.537-17.406c-9.976-3.573-18.93,8.832-15.439,21.399l21.406,76.975C64.83,441.861,44,466.46,44,505.017
		c0,0.013,0,0.026,0,0.039c0,2.177,1.719,3.943,3.896,3.943h38.252h29.507h19.892h14.559h213.732h5.552h5.177h23.722h63.928
		c2.175,0,3.784-1.765,3.784-3.941c0-0.014,0-0.028,0-0.042C466,467.998,446.855,443.843,420.641,428.243z"/>
</g>
</svg>
