<?xml version="1.0" encoding="iso-8859-1"?>
<!-- Generator: Adobe Illustrator 19.2.1, SVG Export Plug-In . SVG Version: 6.00 Build 0)  -->
<!DOCTYPE svg PUBLIC "-//W3C//DTD SVG 1.1//EN" "http://www.w3.org/Graphics/SVG/1.1/DTD/svg11.dtd">
<svg version="1.1" xmlns="http://www.w3.org/2000/svg" xmlns:xlink="http://www.w3.org/1999/xlink" x="0px" y="0px"
	 viewBox="0 0 512 512" enable-background="new 0 0 512 512" xml:space="preserve">
<g id="Layer_3">
	<path fill="#132028" d="M494.299,201.135l-6.559,6.559c-21.56,21.56-56.515,21.56-78.075,0l0,0c-1.107-1.107-2.901-1.107-4.007,0
		l-82.228,82.228c-5.252,5.252-5.873,13.471-1.655,19.585c20.016,29.012,17.127,69.057-8.687,94.871l-32.108,32.108
		c-17.237,17.237-45.183,17.237-62.42,0L72.154,290.079c-17.237-17.237-17.237-45.183,0-62.42l32.108-32.108
		c25.815-25.815,65.859-28.703,94.871-8.687c6.114,4.218,14.333,3.597,19.585-1.655l82.228-82.228c1.107-1.107,1.107-2.901,0-4.007
		l0,0c-21.56-21.56-21.56-56.515,0-78.075l6.559-6.559c8.189-8.189,21.467-8.189,29.656,0l157.139,157.139
		C502.488,179.668,502.488,192.946,494.299,201.135z"/>
</g>
<g id="Layer_1">
</g>
</svg>
