<?xml version="1.0" encoding="iso-8859-1"?>
<!-- Generator: Adobe Illustrator 18.1.1, SVG Export Plug-In . SVG Version: 6.00 Build 0)  -->
<!DOCTYPE svg PUBLIC "-//W3C//DTD SVG 1.1//EN" "http://www.w3.org/Graphics/SVG/1.1/DTD/svg11.dtd">
<svg version="1.1" xmlns="http://www.w3.org/2000/svg" xmlns:xlink="http://www.w3.org/1999/xlink" x="0px" y="0px"
	 viewBox="0 0 512 512" enable-background="new 0 0 512 512" xml:space="preserve">
<g id="Layer_4">
	<path fill="#FFB636" d="M457.424,453.12c0.587-1.465,0.901-2.948,0.901-4.449c0-26.063-90.527-47.191-202.198-47.191
		S53.928,422.608,53.928,448.671c0,1.84,0.467,3.655,1.346,5.441c-6.395-8.7-7.646-20.611-0.95-32.289
		c28.285-49.326,63.734-133.652,63.734-246.49c0-68.049,49.278-124.579,114.093-135.877V25.403
		c0-13.242,10.734-23.976,23.976-23.976s23.976,10.734,23.976,23.976v14.048c6.445,1.091,12.952,2.612,19.498,4.623
		c56.621,17.397,94.521,70.409,94.343,129.642c-0.341,113.633,35.301,198.521,63.719,248.085
		C464.112,433.049,463.202,444.514,457.424,453.12z"/>
</g>
<g id="Layer_1">
</g>
</svg>
