<?xml version="1.0" encoding="iso-8859-1"?>
<!-- Generator: Adobe Illustrator 18.1.1, SVG Export Plug-In . SVG Version: 6.00 Build 0)  -->
<!DOCTYPE svg PUBLIC "-//W3C//DTD SVG 1.1//EN" "http://www.w3.org/Graphics/SVG/1.1/DTD/svg11.dtd">
<svg version="1.1" xmlns="http://www.w3.org/2000/svg" xmlns:xlink="http://www.w3.org/1999/xlink" x="0px" y="0px"
	 viewBox="0 0 512 512" enable-background="new 0 0 512 512" xml:space="preserve">
<g id="Layer_4">
	<path fill="#2B3B47" d="M311.678,479.294h-43.386c-3.097,0-5.867-1.929-6.94-4.835l-30.934-83.738
		c-2.922-7.91-14.679-5.564-14.33,2.861c0.246,5.943,0.389,12.239,0.389,18.902v59.411c0,4.086-3.313,7.399-7.399,7.399h-24.705
		c-4.086,0-7.399-3.313-7.399-7.399v-168.93c0-4.086,3.313-7.399,7.399-7.399h42.367c3.077,0,5.833,1.904,6.921,4.783l31.829,84.196
		c2.961,7.833,14.608,5.5,14.311-2.868c-0.146-4.101-0.226-8.329-0.226-12.673v-66.039c0-4.086,3.313-7.399,7.399-7.399h24.705
		c4.086,0,7.399,3.313,7.399,7.399v168.93C319.076,475.981,315.764,479.294,311.678,479.294z"/>
</g>
<g id="Layer_1">
</g>
</svg>
