<?xml version="1.0" encoding="iso-8859-1"?>
<!-- Generator: Adobe Illustrator 18.1.1, SVG Export Plug-In . SVG Version: 6.00 Build 0)  -->
<!DOCTYPE svg PUBLIC "-//W3C//DTD SVG 1.1//EN" "http://www.w3.org/Graphics/SVG/1.1/DTD/svg11.dtd">
<svg version="1.1" xmlns="http://www.w3.org/2000/svg" xmlns:xlink="http://www.w3.org/1999/xlink" x="0px" y="0px"
	 viewBox="0 0 512 512" enable-background="new 0 0 512 512" xml:space="preserve">
<g id="Layer_2">
	<path fill="#597B91" d="M508.333,32.666C508.333,16.35,494.984,3,478.668,3H29.032C14.348,3,2.333,15.015,2.333,29.699v452.602
		C2.333,496.985,14.348,509,29.032,509h449.635c16.316,0,29.666-13.35,29.666-29.666V32.666z"/>
</g>
<g id="Layer_3">
	<path fill="#2B5770" d="M478.668,488.915H29.032c-14.684,0-26.699-12.015-26.699-26.699v20.085
		C2.333,496.985,14.348,509,29.032,509h449.635c16.316,0,29.666-13.35,29.666-29.666v-20.085
		C508.333,475.565,494.984,488.915,478.668,488.915z"/>
</g>
<g id="Layer_4">
	<path fill="#F9F9F7" d="M324.382,386.698H149.998c-16.209,0-29.35-13.141-29.35-29.35s13.14-29.35,29.35-29.35h174.384
		c35.989,0,65.269-29.279,65.269-65.269v-26.472c0-16.209,13.141-29.35,29.35-29.35s29.35,13.14,29.35,29.35v26.472
		C448.35,331.087,392.738,386.698,324.382,386.698z"/>
</g>
<g id="Layer_5">
	<path fill="#F9F9F7" d="M414.743,133.708L300.369,57.833c-6.327-4.197-14.78,0.339-14.78,7.932v46.526H174.475
		c-3.839,0-7.502,0.745-10.863,2.085c-57.566,10.684-101.295,61.269-101.295,121.883c0,16.209,13.14,29.35,29.35,29.35
		s29.35-13.141,29.35-29.35c0-35.989,29.279-65.269,65.269-65.269h99.304v46.526c0,7.593,8.453,12.129,14.78,7.932l114.375-75.875
		C420.419,145.807,420.419,137.473,414.743,133.708z"/>
</g>
<g id="Layer_6">
	<path fill="#F9F9F7" d="M165.815,458.212c-51.619,0-93.613-41.995-93.613-93.613s41.995-93.613,93.613-93.613
		s93.613,41.995,93.613,93.613S217.434,458.212,165.815,458.212z"/>
</g>
<g id="Layer_7">
	<path fill="#597B91" d="M165.815,280.986c46.178,0,83.613,37.435,83.613,83.613s-37.435,83.613-83.613,83.613
		s-83.613-37.435-83.613-83.613S119.637,280.986,165.815,280.986 M165.815,260.986c-57.132,0-103.613,46.481-103.613,103.613
		s46.481,103.613,103.613,103.613s103.613-46.481,103.613-103.613S222.948,260.986,165.815,260.986L165.815,260.986z"/>
</g>
<g id="Layer_8">
	<path fill="#597B91" d="M177.183,417.034h-12.695c-2.884,0-5.222-2.338-5.222-5.222v-62.631c0-4.071-4.452-6.577-7.932-4.465
		l-9.25,5.614c-2.411,1.463-5.548,0.748-7.086-1.615l-4.53-6.959c-1.61-2.473-0.852-5.789,1.673-7.317l27.956-16.921
		c0.816-0.494,1.751-0.755,2.704-0.755h14.383c2.884,0,5.222,2.338,5.222,5.222v89.827
		C182.406,414.696,180.068,417.034,177.183,417.034z"/>
</g>
</svg>
