<?xml version="1.0" encoding="iso-8859-1"?>
<!-- Generator: Adobe Illustrator 18.1.1, SVG Export Plug-In . SVG Version: 6.00 Build 0)  -->
<!DOCTYPE svg PUBLIC "-//W3C//DTD SVG 1.1//EN" "http://www.w3.org/Graphics/SVG/1.1/DTD/svg11.dtd">
<svg version="1.1" xmlns="http://www.w3.org/2000/svg" xmlns:xlink="http://www.w3.org/1999/xlink" x="0px" y="0px"
	 viewBox="0 0 512 512" enable-background="new 0 0 512 512" xml:space="preserve">
<g id="Layer_5">
	<path fill="#9CADB5" d="M441.988,158.063c-0.916-8.876-3.54-17.251-7.516-24.832c-12.106-30.799-31.877-58.255-31.877-58.255
		c0-10.469,3.183-18.956-14.859-18.956H205.012c-13.991,0-25.333,14.47-25.333,32.319v3.281H14.17
		c-6.581,0-11.915,4.895-11.915,10.934v57.691c0,24.285,21.454,43.972,47.92,43.972h153.758v30.961
		c0,51.258,41.701,92.958,92.959,92.958s92.958-41.7,92.958-92.958c0-0.823-0.012-1.643-0.033-2.461
		c26.298-7.034,46.538-28.462,51.4-55.122c1.554-0.94,2.449-2.157,2.449-3.717C443.665,168.786,443.054,163.471,441.988,158.063z
		 M296.891,297.62c-34.433,0-62.445-28.013-62.445-62.444v-30.366c29.266,2.302,9.614,29.355,124.889,30.338
		c0,0.01,0.001,0.019,0.001,0.029C359.335,269.607,331.322,297.62,296.891,297.62z"/>
</g>
<g id="Layer_1">
</g>
</svg>
