<?xml version="1.0" encoding="iso-8859-1"?>
<!-- Generator: Adobe Illustrator 19.1.0, SVG Export Plug-In . SVG Version: 6.00 Build 0)  -->
<!DOCTYPE svg PUBLIC "-//W3C//DTD SVG 1.1//EN" "http://www.w3.org/Graphics/SVG/1.1/DTD/svg11.dtd">
<svg version="1.1" xmlns="http://www.w3.org/2000/svg" xmlns:xlink="http://www.w3.org/1999/xlink" x="0px" y="0px"
	 viewBox="0 0 512 512" enable-background="new 0 0 512 512" xml:space="preserve">
<g id="Layer_4">
	<path fill="#7D9DAF" d="M142.017,131.92c4.336,0,8.579,2.15,11.075,6.082c3.878,6.11,2.07,14.207-4.04,18.087
		c-25.883,16.43-44.359,44.487-49.423,75.05c-6.99,42.19,12.698,86.263,48.992,109.671c6.082,3.923,7.832,12.032,3.909,18.114
		c-3.921,6.083-12.03,7.835-18.115,3.91C89.472,333.845,65.102,279.2,73.775,226.855c6.264-37.803,29.154-72.53,61.231-92.893
		C137.184,132.58,139.616,131.92,142.017,131.92z M91.743,95.791c-42.775,27.153-73.3,73.467-81.654,123.89
		c-11.564,69.796,20.938,142.665,80.876,181.322c6.085,3.925,14.194,2.173,18.115-3.91c3.923-6.082,2.173-14.192-3.909-18.114
		c-51.288-33.078-79.107-95.374-69.227-155.015c7.155-43.183,33.266-82.828,69.846-106.048c6.109-3.878,7.918-11.976,4.04-18.087
		c-2.496-3.932-6.739-6.082-11.075-6.082C96.353,93.749,93.921,94.409,91.743,95.791z M171.484,185.644
		c-17.855,11.337-30.093,29.896-33.576,50.92c-4.758,28.721,8.601,58.696,33.243,74.588c6.08,3.922,14.192,2.172,18.114-3.91
		c3.923-6.082,2.173-14.192-3.91-18.115c-15.989-10.312-24.667-29.714-21.592-48.279c2.233-13.476,10.371-25.841,21.768-33.078
		c6.11-3.879,7.918-11.978,4.04-18.087c-2.497-3.932-6.739-6.082-11.075-6.082C176.092,183.602,173.662,184.262,171.484,185.644z"/>
</g>
<g id="Layer_1">
</g>
</svg>
