<?xml version="1.0" encoding="iso-8859-1"?>
<!-- Generator: Adobe Illustrator 19.1.0, SVG Export Plug-In . SVG Version: 6.00 Build 0)  -->
<!DOCTYPE svg PUBLIC "-//W3C//DTD SVG 1.1//EN" "http://www.w3.org/Graphics/SVG/1.1/DTD/svg11.dtd">
<svg version="1.1" xmlns="http://www.w3.org/2000/svg" xmlns:xlink="http://www.w3.org/1999/xlink" x="0px" y="0px"
	 viewBox="0 0 512 512" enable-background="new 0 0 512 512" xml:space="preserve">
<g id="Layer_4">
	<path fill="#68442A" d="M200.27,224.48c0,0-0.1-0.025-0.288-0.072c-0.219-0.048-0.539-0.119-0.947-0.21
		c-0.838-0.178-2.072-0.417-3.563-0.656c-2.979-0.486-7.011-0.948-10.897-0.961c-0.97-0.004-1.928,0.021-2.855,0.073
		c-0.922,0.059-1.822,0.134-2.657,0.253c-0.421,0.055-0.831,0.113-1.215,0.19c-0.396,0.064-0.768,0.141-1.119,0.227
		c-0.365,0.074-0.694,0.166-1.009,0.258c-0.328,0.082-0.615,0.182-0.889,0.279c-0.287,0.088-0.538,0.188-0.764,0.288
		c-0.235,0.095-0.463,0.183-0.64,0.283c-0.184,0.097-0.376,0.177-0.526,0.264c-0.146,0.088-0.28,0.168-0.401,0.241
		c-0.26,0.136-0.384,0.276-0.514,0.351c-0.118,0.08-0.181,0.123-0.181,0.123l-0.842,0.572c-2.498,1.697-5.9,1.047-7.596-1.451
		c-1.498-2.205-1.165-5.114,0.651-6.933c0,0,0.14-0.14,0.402-0.404c0.267-0.248,0.648-0.677,1.171-1.092
		c0.262-0.213,0.553-0.449,0.869-0.706c0.319-0.247,0.67-0.476,1.047-0.738c0.378-0.27,0.781-0.505,1.209-0.753
		c0.429-0.258,0.882-0.508,1.353-0.733c0.473-0.241,0.968-0.482,1.476-0.689c0.511-0.223,1.04-0.443,1.578-0.632
		c0.542-0.207,1.097-0.398,1.66-0.567c0.567-0.187,1.14-0.346,1.723-0.5c1.168-0.317,2.361-0.571,3.571-0.801
		c1.207-0.222,2.426-0.405,3.637-0.551c4.845-0.583,9.573-0.609,13.118-0.478c1.773,0.064,3.252,0.164,4.307,0.254
		c0.538,0.05,0.961,0.09,1.249,0.117c0.318,0.036,0.487,0.056,0.487,0.056l0.121,0.014c4.214,0.483,7.239,4.29,6.757,8.504
		c-0.483,4.214-4.29,7.239-8.504,6.757C200.929,224.62,200.574,224.553,200.27,224.48z M256.003,330.726
		c-26.739,0-45.942,9.447-60.869,9.447c-69.806,0-47.291-85.986-69.806-85.986l6.424,56.259
		c0,68.598,55.605,124.211,124.217,124.211c68.585,0,124.217-55.613,124.217-124.211l5.993-59.726
		c-25.235,0,6.43,89.95-72.585,89.95C299.571,340.669,281.395,330.726,256.003,330.726z M308.881,209.4
		c-0.311,0.038-0.623,0.095-0.934,0.172c-4.117,1.023-6.625,5.189-5.602,9.306c1.023,4.117,5.189,6.625,9.306,5.602
		c0,0,0.1-0.025,0.288-0.072c0.219-0.048,0.539-0.119,0.947-0.21c0.838-0.178,2.072-0.417,3.563-0.656
		c2.979-0.486,7.011-0.948,10.897-0.961c0.97-0.004,1.928,0.021,2.855,0.073c0.922,0.059,1.822,0.134,2.657,0.253
		c0.421,0.055,0.832,0.113,1.215,0.19c0.396,0.064,0.768,0.141,1.119,0.227c0.365,0.074,0.694,0.166,1.009,0.258
		c0.328,0.082,0.615,0.182,0.889,0.279c0.287,0.088,0.538,0.188,0.764,0.288c0.235,0.095,0.463,0.183,0.64,0.283
		c0.184,0.097,0.376,0.177,0.526,0.264c0.146,0.088,0.28,0.168,0.401,0.241c0.26,0.136,0.384,0.276,0.514,0.351
		c0.118,0.08,0.181,0.123,0.181,0.123l0.843,0.574c2.125,1.446,5.044,1.229,6.932-0.653c2.139-2.132,2.145-5.595,0.012-7.734
		c0,0-0.14-0.14-0.402-0.404c-0.267-0.248-0.648-0.677-1.171-1.092c-0.262-0.213-0.553-0.449-0.869-0.706
		c-0.319-0.247-0.67-0.476-1.047-0.738c-0.378-0.27-0.781-0.505-1.209-0.753c-0.429-0.258-0.882-0.508-1.353-0.733
		c-0.473-0.241-0.968-0.482-1.476-0.689c-0.511-0.223-1.04-0.443-1.578-0.632c-0.542-0.207-1.097-0.398-1.66-0.567
		c-0.567-0.187-1.14-0.346-1.723-0.5c-1.168-0.317-2.361-0.571-3.571-0.801c-1.207-0.222-2.426-0.405-3.637-0.551
		c-4.845-0.583-9.573-0.609-13.118-0.478c-1.773,0.064-3.252,0.164-4.307,0.254c-0.538,0.05-0.961,0.09-1.249,0.117
		c-0.318,0.036-0.487,0.056-0.487,0.056L308.881,209.4z"/>
</g>
<g id="Layer_1">
</g>
</svg>
