<?xml version="1.0" encoding="iso-8859-1"?>
<!-- Generator: Adobe Illustrator 19.2.1, SVG Export Plug-In . SVG Version: 6.00 Build 0)  -->
<!DOCTYPE svg PUBLIC "-//W3C//DTD SVG 1.1//EN" "http://www.w3.org/Graphics/SVG/1.1/DTD/svg11.dtd">
<svg version="1.1" xmlns="http://www.w3.org/2000/svg" xmlns:xlink="http://www.w3.org/1999/xlink" x="0px" y="0px"
	 viewBox="0 0 512 512" enable-background="new 0 0 512 512" xml:space="preserve">
<g id="Layer_2">
	<path fill="#464A4C" d="M435.664,496H46.258c-16.936,0-30.664-13.729-30.664-30.664V43.852c0-16.936,13.729-30.664,30.664-30.664
		h421.484c16.936,0,30.664,13.729,30.664,30.664v364.111c0,2.607-0.765,5.156-2.201,7.332l-49.246,74.625
		C444.454,493.716,440.211,496,435.664,496z"/>
</g>
<g id="Layer_3">
	<path fill="#EDEDED" d="M248.671,187.094c-36.95,0-66.905,29.954-66.905,66.905c0,36.95,29.954,66.904,66.905,66.904
		s66.904-29.954,66.904-66.904C315.576,217.048,285.622,187.094,248.671,187.094z M248.671,269.59
		c-8.611,0-15.591-6.981-15.591-15.591c0-8.611,6.98-15.591,15.591-15.591c8.611,0,15.591,6.98,15.591,15.591
		C264.263,262.609,257.282,269.59,248.671,269.59z"/>
</g>
<g id="Layer_4">
	<path fill="#597B91" d="M90.094,109.098H58.145c-5.564,0-10.074-4.51-10.074-10.074V50.176c0-5.564,4.51-10.074,10.074-10.074
		h31.949c5.564,0,10.074,4.51,10.074,10.074v48.848C100.168,104.587,95.657,109.098,90.094,109.098z"/>
</g>
<g id="Layer_5">
	<path fill="#597B91" d="M367.687,495.322H129.655v-137.27c0-7.92,6.48-14.4,14.4-14.4h209.232c7.92,0,14.4,6.48,14.4,14.4V495.322z
		"/>
</g>
<g id="Layer_6">
	<path fill="#EDEDED" d="M231.664,487.878h-82c-6.6,0-12-5.4-12-12V364.334c0-6.6,5.4-12,12-12h82c6.6,0,12,5.4,12,12v111.544
		C243.664,482.478,238.264,487.878,231.664,487.878z"/>
</g>
</svg>
