<?xml version="1.0" encoding="iso-8859-1"?>
<!-- Generator: Adobe Illustrator 19.1.0, SVG Export Plug-In . SVG Version: 6.00 Build 0)  -->
<!DOCTYPE svg PUBLIC "-//W3C//DTD SVG 1.1//EN" "http://www.w3.org/Graphics/SVG/1.1/DTD/svg11.dtd">
<svg version="1.1" xmlns="http://www.w3.org/2000/svg" xmlns:xlink="http://www.w3.org/1999/xlink" x="0px" y="0px"
	 viewBox="0 0 512 512" enable-background="new 0 0 512 512" xml:space="preserve">
<g id="Layer_2">
	<path fill="#005189" d="M443.219,68.781c-63.726-63.726-167.046-63.726-230.771,0c-58.318,58.318-63.255,149.79-14.834,213.736
		l-25.117,25.117l31.87,31.87l25.117-25.117c63.946,48.421,155.418,43.484,213.736-14.834
		C506.945,235.826,506.945,132.507,443.219,68.781z"/>
</g>
<g id="Layer_3">
	<circle fill="#70C4EA" cx="327.833" cy="184.167" r="133.074"/>
</g>
<g id="Layer_4">
	<path fill="#00A7E0" d="M237.851,105.901c51.969-51.969,136.227-51.969,188.195,0c14.373,14.373,24.752,31.222,31.174,49.168
		c-5.25-24.028-17.178-46.889-35.86-65.571c-51.969-51.969-136.227-51.969-188.196,0c-37.596,37.596-47.974,92.085-31.174,139.028
		C192.636,185.714,204.564,139.187,237.851,105.901z"/>
</g>
<g id="Layer_5">
	<path fill="#1F356B" d="M37.651,474.349L37.651,474.349c-15.283-15.283-21.129-34.444-12.993-42.581l142.057-130.425
		c8.137-8.137,21.482-8.106,36.764,7.177l0,0c15.283,15.283,15.313,28.628,7.177,36.764L80.232,487.342
		C72.095,495.478,52.934,489.632,37.651,474.349z"/>
</g>
<g id="Layer_6">
	<polygon fill="#5BC0A4" points="53.165,405.596 106.404,458.835 170.629,388.882 123.118,341.371 	"/>
</g>
</svg>
