<?xml version="1.0" encoding="iso-8859-1"?>
<!-- Generator: Adobe Illustrator 19.2.0, SVG Export Plug-In . SVG Version: 6.00 Build 0)  -->
<!DOCTYPE svg PUBLIC "-//W3C//DTD SVG 1.1//EN" "http://www.w3.org/Graphics/SVG/1.1/DTD/svg11.dtd">
<svg version="1.1" xmlns="http://www.w3.org/2000/svg" xmlns:xlink="http://www.w3.org/1999/xlink" x="0px" y="0px"
	 viewBox="0 0 512 512" enable-background="new 0 0 512 512" xml:space="preserve">
<g id="Layer_2">
	<path fill="#ABBAC1" d="M418.114,464.367l79.139,44.448c7.69,4.319,16.202-4.193,11.883-11.883l-44.448-79.139
		c-18.064-32.164-40.451-61.7-66.536-87.785L222.693,154.55c-0.98-0.98-2.568-0.98-3.548,0l-64.274,64.274
		c-0.98,0.98-0.98,2.568,0,3.548l175.458,175.458C356.414,423.915,385.95,446.302,418.114,464.367z"/>
</g>
<g id="Layer_3">
	<path fill="#384C59" d="M273.504,110h-51.875c-6.84,0-13.4,2.907-18.236,7.744l-8.657,8.753L141.04,72.85
		c-12.78-12.78-29.056-21.709-47.611-26.164L65.73,40.046c-1.658-0.398-3.401-0.496-5.168-0.344
		c2.315-9.296-0.158-19.537-7.425-26.804C42.115,1.875,24.244,1.877,13.221,12.899s-11.023,28.894,0,39.917
		c7.267,7.267,17.511,9.741,26.807,7.425c-0.152,1.766-0.048,3.51,0.35,5.168l6.651,27.699
		c4.456,18.555,13.408,34.831,26.188,47.611l53.695,53.695l-8.508,8.657c-4.837,4.836-7.405,11.396-7.405,18.236v51.875
		c0,14.243,11.257,25.79,25.5,25.79s25.5-11.547,25.5-25.79V231.99l35.155-35.015c0,0,0.07,0,0.071,0s0.035,0.02,0.035,0.02
		L232.311,162h41.193c14.243,0,25.79-11.757,25.79-26S287.747,110,273.504,110z"/>
</g>
<g id="Layer_4">
	<path fill="#DEE4E7" d="M339.364,327.281c-3.708,0-7.415-1.414-10.244-4.243l-96.882-96.882c-5.657-5.658-5.657-14.831,0-20.488
		c5.658-5.657,14.83-5.657,20.488,0l96.882,96.882c5.657,5.658,5.657,14.83,0,20.488
		C346.779,325.867,343.072,327.281,339.364,327.281z"/>
</g>
</svg>
