<?xml version="1.0" encoding="iso-8859-1"?>
<!-- Generator: Adobe Illustrator 19.2.0, SVG Export Plug-In . SVG Version: 6.00 Build 0)  -->
<!DOCTYPE svg PUBLIC "-//W3C//DTD SVG 1.1//EN" "http://www.w3.org/Graphics/SVG/1.1/DTD/svg11.dtd">
<svg version="1.1" xmlns="http://www.w3.org/2000/svg" xmlns:xlink="http://www.w3.org/1999/xlink" x="0px" y="0px"
	 viewBox="0 0 512 512" enable-background="new 0 0 512 512" xml:space="preserve">
<g id="Layer_2">
	<path fill="#BBECFF" d="M422.114,279.444l85.356-21.364c2.165-0.542,2.165-3.619,0-4.16l-85.356-21.364
		c-1.632-0.408-2.18-2.452-0.97-3.621l63.239-61.18c1.604-1.552,0.066-4.216-2.08-3.603l-84.603,24.176
		c-1.618,0.462-3.113-1.033-2.651-2.651l24.177-84.603c0.613-2.146-2.051-3.684-3.603-2.08l-61.18,63.239
		c-1.17,1.209-3.213,0.662-3.621-0.97l-21.364-85.356c-0.542-2.165-3.619-2.165-4.16,0l-20.044,80.085
		c-0.542,2.165-3.619,2.165-4.16,0l-20.044-80.085c-0.542-2.165-3.619-2.165-4.16,0l-20.221,80.79c-0.542,2.165-3.619,2.165-4.16,0
		l-20.221-80.79c-0.542-2.165-3.619-2.165-4.16,0l-20.221,80.79c-0.542,2.165-3.619,2.165-4.16,0l-20.221-80.79
		c-0.542-2.165-3.619-2.165-4.16,0l-21.364,85.356c-0.408,1.632-2.452,2.18-3.621,0.97l-61.18-63.239
		c-1.552-1.604-4.216-0.066-3.603,2.08l24.177,84.602c0.462,1.618-1.033,3.113-2.651,2.651l-84.603-24.176
		c-2.146-0.613-3.684,2.051-2.08,3.603l63.239,61.18c1.209,1.17,0.662,3.213-0.97,3.621L1.347,253.92
		c-2.165,0.542-2.165,3.619,0,4.16l85.356,21.364c1.632,0.408,2.18,2.452,0.97,3.621l-63.239,61.18
		c-1.604,1.552-0.066,4.216,2.08,3.603l84.603-24.177c1.618-0.462,3.113,1.033,2.651,2.651l-24.177,84.603
		c-0.613,2.146,2.051,3.684,3.603,2.08l61.18-63.239c1.17-1.209,3.213-0.662,3.621,0.97l21.364,85.356
		c0.542,2.165,3.619,2.165,4.16,0l20.044-80.084c0.542-2.165,3.619-2.165,4.16,0l20.044,80.084c0.542,2.165,3.619,2.165,4.16,0
		l20.221-80.79c0.542-2.165,3.619-2.165,4.16,0l20.221,80.79c0.542,2.165,3.619,2.165,4.16,0l20.221-80.79
		c0.542-2.165,3.619-2.165,4.16,0l20.221,80.79c0.542,2.165,3.619,2.165,4.16,0l21.364-85.356c0.409-1.632,2.452-2.18,3.621-0.97
		l61.18,63.239c1.552,1.604,4.216,0.066,3.603-2.08l-24.177-84.603c-0.462-1.618,1.033-3.113,2.651-2.651l84.603,24.177
		c2.146,0.613,3.684-2.051,2.08-3.603l-63.239-61.18C419.934,281.896,420.481,279.853,422.114,279.444z"/>
</g>
<g id="Layer_3">
	<path fill="#FDB436" d="M370.468,257.318l-103.086-19.069c-2.55-0.472-3.697-3.476-2.109-5.527l77.994-100.727
		c2.345-3.029-1.234-7.061-4.519-5.092L131.71,250.965c-2.72,1.63-2.002,5.754,1.109,6.37l93.892,18.566
		c2.448,0.484,3.596,3.319,2.176,5.37l-68.126,98.377c-2.112,3.05,1.399,6.836,4.6,4.96L371.59,263.713
		C374.358,262.09,373.623,257.902,370.468,257.318z"/>
</g>
</svg>
