<?xml version="1.0" encoding="iso-8859-1"?>
<!-- Generator: Adobe Illustrator 19.1.0, SVG Export Plug-In . SVG Version: 6.00 Build 0)  -->
<!DOCTYPE svg PUBLIC "-//W3C//DTD SVG 1.1//EN" "http://www.w3.org/Graphics/SVG/1.1/DTD/svg11.dtd">
<svg version="1.1" id="Layer_1" xmlns="http://www.w3.org/2000/svg" xmlns:xlink="http://www.w3.org/1999/xlink" x="0px" y="0px"
	 viewBox="0 0 511.92 511.92" enable-background="new 0 0 511.92 511.92" xml:space="preserve">
<path fill="#FFD3B6" d="M396.298,361.014c0-0.002,0-0.003,0-0.005V215.359c0-1.086-0.064-2.157-0.179-3.213v-2.234
	c0-16.819-13.736-30.463-30.646-30.463c-8.771,0-16.544,3.653-22.01,9.505c-4.668,4.414-8.268,4.625-12.58,1.09
	c-5.622-6.483-13.937-10.595-23.213-10.595c-9.151,0-17.217,3.974-22.708,10.275c-7.533,7.023-15.556,5.426-16.169-2.794
	l20.143-145.666c2.445-17.684-10-34.029-27.764-36.486c-17.813-2.463-33.68,9.95-36.127,27.651c0,0-10.73,77.596-18.953,137.064
	c-0.115,0.256-0.212,0.638-0.286,1.162c-1.562,10.984-10.012,8.54-11.808-2.602L171.662,29.465
	c-2.664-17.653-19.23-29.802-36.963-27.126c-17.781,2.684-29.481,19.084-26.814,36.752c0,0,30.473,182.108,30.473,201.891
	S126.18,281.928,126.18,344.02c0.045,0.189,0.111,0.372,0.182,0.553c-0.116,2.205-0.182,4.435-0.182,6.698
	c0,44.706,22.944,79.102,59.426,93.805v11.117v34.478c0,11.735,9.513,21.248,21.248,21.248h134.533
	c11.735,0,21.248-9.513,21.248-21.248v-58.271v-0.312C383.184,415.242,396.298,389.661,396.298,361.014z"/>
</svg>
