<?xml version="1.0" encoding="iso-8859-1"?>
<!-- Generator: Adobe Illustrator 18.1.1, SVG Export Plug-In . SVG Version: 6.00 Build 0)  -->
<!DOCTYPE svg PUBLIC "-//W3C//DTD SVG 1.1//EN" "http://www.w3.org/Graphics/SVG/1.1/DTD/svg11.dtd">
<svg version="1.1" xmlns="http://www.w3.org/2000/svg" xmlns:xlink="http://www.w3.org/1999/xlink" x="0px" y="0px"
	 viewBox="0 0 512 512" enable-background="new 0 0 512 512" xml:space="preserve">
<g id="Layer_8">
	<path fill="#C4A6FF" d="M154.227,294.784c0,11.121-9.015,20.136-20.136,20.136s-20.136-9.015-20.136-20.136
		s9.015-20.136,20.136-20.136S154.227,283.664,154.227,294.784z M146.362,203.461c-4.676,0-8.467,3.791-8.467,8.467
		s3.791,8.467,8.467,8.467s8.467-3.791,8.467-8.467S151.038,203.461,146.362,203.461z M294.191,211.929
		c-4.676,0-8.467,3.791-8.467,8.467s3.791,8.467,8.467,8.467s8.467-3.791,8.467-8.467S298.867,211.929,294.191,211.929z
		 M274.281,361.367c-8.946,0-16.199,7.253-16.199,16.199s7.253,16.199,16.199,16.199s16.199-7.253,16.199-16.199
		S283.227,361.367,274.281,361.367z"/>
</g>
<g id="Layer_1">
</g>
</svg>
