<?xml version="1.0" encoding="iso-8859-1"?>
<!-- Generator: Adobe Illustrator 19.2.1, SVG Export Plug-In . SVG Version: 6.00 Build 0)  -->
<!DOCTYPE svg PUBLIC "-//W3C//DTD SVG 1.1//EN" "http://www.w3.org/Graphics/SVG/1.1/DTD/svg11.dtd">
<svg version="1.1" xmlns="http://www.w3.org/2000/svg" xmlns:xlink="http://www.w3.org/1999/xlink" x="0px" y="0px"
	 viewBox="0 0 512 512" enable-background="new 0 0 512 512" xml:space="preserve">
<g id="Layer_2">
	<path fill="#B9C5C6" d="M508.016,412.884c-0.075,0.138-0.202,0.167-0.284,0.302C500.836,431.249,483.475,444,462.983,444H46.839
		c-1.561,0-3.011,0-4.535,0h-0.605c-0.157,0-0.283-0.221-0.44-0.239c-10.025-1.18-19.049-5.435-26.206-11.819
		c-0.134-0.12-0.312-0.176-0.447-0.295l0.085-0.063c-1.688-1.539-3.439-3.018-4.895-4.785c-3.414-4.139-6.138-8.867-8.02-14.003
		c-0.03-0.041-0.046-0.071-0.068-0.116l0.088-0.037C1.71,412.406,2,411.826,3,410.937V143.32c0-6.033,1.133-11.799,3.178-17.107
		l-0.409-0.321c0,0,4.297-12.75,10.664-18.407c6.367-5.657,18.419-10.827,28.628-11.912l419.838-0.015
		c10.239,1.1,18.626,0,28.658,11.927s10.76,18.675,10.76,18.675l-0.4,0.314c1.986,5.236,3.083,10.911,3.083,16.845v267.902
		l-0.708-0.539c1.098,1.147,1.692,1.887,1.589,2.164L508.016,412.884z"/>
</g>
<g id="Layer_3">
	<path fill="#F4F3EF" d="M475.558,176.309h-90.95v-52.356h90.95V176.309z"/>
</g>
<g id="Layer_4">
	<path fill="#597B91" d="M398.638,242.647H111.448c-4.142,0-7.5-3.358-7.5-7.5s3.358-7.5,7.5-7.5h287.189c4.143,0,7.5,3.358,7.5,7.5
		S402.78,242.647,398.638,242.647z M406.138,294.067c0-4.143-3.357-7.5-7.5-7.5H111.448c-4.142,0-7.5,3.357-7.5,7.5
		s3.358,7.5,7.5,7.5h287.189C402.78,301.567,406.138,298.21,406.138,294.067z M406.138,352.987c0-4.143-3.357-7.5-7.5-7.5H111.448
		c-4.142,0-7.5,3.357-7.5,7.5s3.358,7.5,7.5,7.5h287.189C402.78,360.487,406.138,357.13,406.138,352.987z"/>
</g>
<g id="Layer_5">
	<path fill="#B9C5C6" d="M480.844,134.37c0,2.919-2.366,5.286-5.285,5.286s-5.286-2.366-5.286-5.286s2.366-5.285,5.286-5.285
		S480.844,131.451,480.844,134.37z M475.558,161.252c-2.919,0-5.286,2.366-5.286,5.285c0,2.919,2.366,5.286,5.286,5.286
		s5.285-2.366,5.285-5.286C480.844,163.618,478.478,161.252,475.558,161.252z M475.558,144.846c-2.919,0-5.286,2.366-5.286,5.286
		s2.366,5.285,5.286,5.285s5.285-2.366,5.285-5.285S478.478,144.846,475.558,144.846z M384.609,129.085
		c-2.919,0-5.285,2.366-5.285,5.285s2.366,5.286,5.285,5.286s5.286-2.366,5.286-5.286S387.528,129.085,384.609,129.085z
		 M384.609,161.252c-2.919,0-5.285,2.366-5.285,5.285c0,2.919,2.366,5.286,5.285,5.286s5.286-2.366,5.286-5.286
		C389.894,163.618,387.528,161.252,384.609,161.252z M384.609,144.846c-2.919,0-5.285,2.366-5.285,5.286s2.366,5.285,5.285,5.285
		s5.286-2.366,5.286-5.285S387.528,144.846,384.609,144.846z"/>
</g>
</svg>
