<?xml version="1.0" encoding="iso-8859-1"?>
<!-- Generator: Adobe Illustrator 18.1.1, SVG Export Plug-In . SVG Version: 6.00 Build 0)  -->
<!DOCTYPE svg PUBLIC "-//W3C//DTD SVG 1.1//EN" "http://www.w3.org/Graphics/SVG/1.1/DTD/svg11.dtd">
<svg version="1.1" xmlns="http://www.w3.org/2000/svg" xmlns:xlink="http://www.w3.org/1999/xlink" x="0px" y="0px"
	 viewBox="0 0 512 512" enable-background="new 0 0 512 512" xml:space="preserve">
<g id="Layer_3">
	<path fill="#576F7A" d="M413.109,502.695c-1.505,0-3.035-0.295-4.508-0.919c-5.889-2.492-8.642-9.286-6.149-15.175l48.411-114.379
		c2.492-5.889,9.289-8.643,15.175-6.149c5.889,2.492,8.642,9.286,6.149,15.175l-48.411,114.379
		C421.908,500.043,417.62,502.695,413.109,502.695z M392.124,463.975l48.411-114.38c2.492-5.889-0.261-12.683-6.149-15.175
		c-5.887-2.493-12.684,0.261-15.175,6.149L370.8,454.949c-2.492,5.889,0.261,12.683,6.149,15.175
		c1.473,0.624,3.003,0.919,4.508,0.919C385.968,471.043,390.256,468.391,392.124,463.975z M360.471,432.321l48.411-114.379
		c2.492-5.889-0.261-12.683-6.149-15.175c-5.887-2.494-12.683,0.261-15.175,6.149l-48.411,114.379
		c-2.492,5.889,0.261,12.683,6.149,15.175c1.473,0.624,3.003,0.919,4.508,0.919C354.314,439.39,358.603,436.737,360.471,432.321z
		 M328.817,400.668l48.411-114.379c2.492-5.889-0.261-12.683-6.149-15.175c-5.887-2.494-12.684,0.261-15.175,6.149l-48.411,114.379
		c-2.492,5.889,0.261,12.683,6.149,15.175c1.473,0.624,3.003,0.919,4.508,0.919C322.661,407.736,326.949,405.084,328.817,400.668z
		 M233.859,305.709L282.27,191.33c2.492-5.889-0.261-12.683-6.149-15.175c-5.886-2.492-12.684,0.261-15.175,6.15l-48.411,114.379
		c-2.493,5.889,0.261,12.683,6.149,15.175c1.473,0.624,3.002,0.919,4.507,0.919C227.702,312.777,231.99,310.125,233.859,305.709z
		 M202.206,274.056l48.411-114.379c2.493-5.889-0.261-12.683-6.149-15.175s-12.682,0.262-15.175,6.15L180.881,265.03
		c-2.493,5.889,0.261,12.683,6.149,15.175c1.473,0.624,3.002,0.919,4.507,0.919C196.049,281.124,200.337,278.472,202.206,274.056z
		 M170.553,242.403l48.411-114.379c2.493-5.889-0.261-12.683-6.149-15.175c-5.889-2.492-12.683,0.262-15.175,6.15l-48.411,114.379
		c-2.493,5.889,0.261,12.683,6.149,15.175c1.473,0.624,3.002,0.918,4.507,0.918C164.396,249.471,168.684,246.818,170.553,242.403z"
		/>
</g>
<g id="Layer_1">
</g>
</svg>
