<?xml version="1.0" encoding="iso-8859-1"?>
<!-- Generator: Adobe Illustrator 19.2.0, SVG Export Plug-In . SVG Version: 6.00 Build 0)  -->
<!DOCTYPE svg PUBLIC "-//W3C//DTD SVG 1.1//EN" "http://www.w3.org/Graphics/SVG/1.1/DTD/svg11.dtd">
<svg version="1.1" id="Layer_2" xmlns="http://www.w3.org/2000/svg" xmlns:xlink="http://www.w3.org/1999/xlink" x="0px" y="0px"
	 viewBox="0 0 511.92 512.062" enable-background="new 0 0 511.92 512.062" xml:space="preserve">
<path fill="#464A4C" d="M311.62,483.011V234.203c7.42,8.228,13.186,11.434,22.796,20.665c51.197,49.178,76.106,35.292,87.357,25.271
	c11.251-10.022,8.527-27.666-2.75-38.837C355.549,186.409,325.24,96.029,316.761,86.841c-5.927-8.993-16.352-16.442-27.17-21.533
	V21.84c0-11.509-9.33-20.839-20.839-20.839H136.805c-11.509,0-20.839,9.33-20.839,20.839v56.455
	C95.812,94.819,82.95,119.909,82.95,148.004v10.792v174.733v2.756c0,15.945,13.022,28.88,29.053,28.88
	c7.479,0,14.194-2.799,19.24-7.397c0.245-0.098,0.566-0.372,0.974-0.78c5.429-5.429,10.971-5.853,16.651-0.579
	c5.281,5.398,12.659,8.757,20.823,8.757c7.532,0,14.293-2.837,19.351-7.494c0.249-0.126,0.537-0.342,0.878-0.683
	c5.623-5.623,11.11-5.625,16.485-0.736c5.29,5.489,12.731,8.914,20.973,8.914c7.532,0,14.293-2.837,19.351-7.494
	c0.249-0.126,0.537-0.342,0.878-0.683c2.138-2.138,4.257-3.455,6.357-4.01v130.034c0,15.959,13.022,28.909,29.053,28.909
	C299.09,511.92,311.62,498.985,311.62,483.011z"/>
</svg>
