<?xml version="1.0" encoding="iso-8859-1"?>
<!-- Generator: Adobe Illustrator 19.2.0, SVG Export Plug-In . SVG Version: 6.00 Build 0)  -->
<!DOCTYPE svg PUBLIC "-//W3C//DTD SVG 1.1//EN" "http://www.w3.org/Graphics/SVG/1.1/DTD/svg11.dtd">
<svg version="1.1" id="Layer_2" xmlns="http://www.w3.org/2000/svg" xmlns:xlink="http://www.w3.org/1999/xlink" x="0px" y="0px"
	 viewBox="0 0 512 512" enable-background="new 0 0 512 512" xml:space="preserve">
<path fill="#E0E0E0" d="M422.024,133H313V25.855C313,16.544,305.541,9,296.231,9h-80.462C206.459,9,199,16.544,199,25.855V133
	H89.976C82.06,133,76,138.942,76,146.858v85.512c0,7.916,6.06,14.63,13.976,14.63H199v244.139c0,9.311,7.459,16.861,16.769,16.861
	h80.462c9.31,0,16.769-7.551,16.769-16.861V247h109.024c7.916,0,13.976-6.714,13.976-14.63v-85.512
	C436,138.942,429.94,133,422.024,133z"/>
</svg>
