<?xml version="1.0" encoding="iso-8859-1"?>
<!-- Generator: Adobe Illustrator 18.1.1, SVG Export Plug-In . SVG Version: 6.00 Build 0)  -->
<!DOCTYPE svg PUBLIC "-//W3C//DTD SVG 1.1//EN" "http://www.w3.org/Graphics/SVG/1.1/DTD/svg11.dtd">
<svg version="1.1" xmlns="http://www.w3.org/2000/svg" xmlns:xlink="http://www.w3.org/1999/xlink" x="0px" y="0px"
	 viewBox="0 0 512 512" enable-background="new 0 0 512 512" xml:space="preserve">
<g id="Layer_3">
	<path fill="#96A9B2" d="M124.169,489.273c-1.821,0-3.672-0.364-5.45-1.133c-6.971-3.014-10.179-11.108-7.166-18.079l63.273-146.353
		c3.014-6.972,11.111-10.177,18.08-7.165c6.971,3.014,10.179,11.108,7.166,18.079l-63.273,146.353
		C134.554,486.169,129.489,489.273,124.169,489.273z M326.729,488.141c6.971-3.014,10.179-11.108,7.165-18.079l-63.272-146.353
		c-3.013-6.971-11.107-10.18-18.079-7.165c-6.971,3.014-10.179,11.108-7.166,18.079l63.273,146.353
		c2.245,5.193,7.31,8.298,12.629,8.298C323.1,489.273,324.951,488.909,326.729,488.141z M236.475,475.519V329.166
		c0-7.595-6.157-13.752-13.751-13.752s-13.751,6.157-13.751,13.752v146.353c0,7.595,6.157,13.752,13.751,13.752
		S236.475,483.113,236.475,475.519z"/>
</g>
<g id="Layer_1">
</g>
</svg>
