<?xml version="1.0" encoding="iso-8859-1"?>
<!-- Generator: Adobe Illustrator 19.2.1, SVG Export Plug-In . SVG Version: 6.00 Build 0)  -->
<!DOCTYPE svg PUBLIC "-//W3C//DTD SVG 1.1//EN" "http://www.w3.org/Graphics/SVG/1.1/DTD/svg11.dtd">
<svg version="1.1" xmlns="http://www.w3.org/2000/svg" xmlns:xlink="http://www.w3.org/1999/xlink" x="0px" y="0px"
	 viewBox="0 0 512 512" enable-background="new 0 0 512 512" xml:space="preserve">
<g id="Layer_2">
	<path fill="#B9C5C6" d="M256.954,250.063L4.811,427.505V159.602c0-26.113,21.164-47.277,47.277-47.277h409.733
		c26.113,0,47.277,21.164,47.277,47.277v267.902L256.954,250.063z"/>
</g>
<g id="Layer_3">
	<path fill="#96A9B2" d="M509.864,429.13c1.92-5.188-218.512-171.631-218.512-171.631c-27.596-20.365-42.111-20.686-69.401,0
		c0,0-220.111,166.308-218.258,171.426l-0.045,0.037c0.022,0.045,0.06,0.075,0.09,0.116c1.883,5.136,4.617,9.865,8.031,14.003
		c1.457,1.767,3.212,3.246,4.901,4.785l-0.082,0.064c0.134,0.12,0.314,0.176,0.448,0.295c7.157,6.384,16.181,10.518,26.207,11.699
		c0.157,0.019,0.284,0.101,0.441,0.12h0.605c1.524,0.146,2.973,0.512,4.535,0.512h416.144c20.492,0,37.853-12.887,44.748-30.95
		c0.082-0.134,0.209-0.232,0.284-0.37L509.864,429.13z"/>
</g>
<g id="Layer_4">
	<path fill="#DCE2E2" d="M7.752,142.174l215.277,169.089c27.171,20.051,41.462,20.367,68.331,0L506.3,142.443
		c0,0-0.728-6.749-10.76-18.675s-18.419-10.827-28.658-11.927l-419.837,0.015c-10.209,1.085-22.262,6.255-28.628,11.912
		C12.05,129.424,7.752,142.174,7.752,142.174z"/>
</g>
</svg>
