<?xml version="1.0" encoding="iso-8859-1"?>
<!-- Generator: Adobe Illustrator 19.2.1, SVG Export Plug-In . SVG Version: 6.00 Build 0)  -->
<!DOCTYPE svg PUBLIC "-//W3C//DTD SVG 1.1//EN" "http://www.w3.org/Graphics/SVG/1.1/DTD/svg11.dtd">
<svg version="1.1" xmlns="http://www.w3.org/2000/svg" xmlns:xlink="http://www.w3.org/1999/xlink" x="0px" y="0px"
	 viewBox="0 0 512 512" enable-background="new 0 0 512 512" xml:space="preserve">
<g id="Layer_2">
	<path fill="#FFB636" d="M209.357,307.11l-34.694-34.694c-30.35-30.35-30.35-79.732,0-110.082l25,25
		c-16.565,16.564-16.565,43.518,0,60.082l34.694,34.694L209.357,307.11z"/>
</g>
<g id="Layer_3">
	<path fill="#FF473E" d="M214.135,226.93c-19.933,0-39.866-7.587-55.041-22.762c-30.349-30.35-30.349-79.732,0-110.082
		l68.928-68.927c14.701-14.702,34.249-22.798,55.041-22.798c20.791,0,40.339,8.097,55.041,22.798
		c30.349,30.35,30.349,79.732,0,110.081l-68.928,68.928C254.001,219.342,234.068,226.93,214.135,226.93z M283.062,37.715
		c-11.349,0-22.017,4.419-30.041,12.443l-68.928,68.927c-16.564,16.565-16.564,43.518,0,60.083
		c8.024,8.024,18.693,12.443,30.041,12.443c11.348,0,22.017-4.419,30.041-12.443l68.928-68.928
		c16.564-16.564,16.564-43.517,0-60.082C305.079,42.135,294.41,37.715,283.062,37.715z"/>
</g>
<g id="Layer_4">
	<path fill="#009AAF" d="M242.509,504.369c-20.792,0-40.338-8.097-55.041-22.799c-14.702-14.701-22.799-34.249-22.799-55.04
		c0-20.792,8.097-40.339,22.799-55.041l68.927-68.928l25,25l-68.928,68.928c-8.024,8.023-12.444,18.692-12.444,30.041
		c0,11.348,4.419,22.017,12.443,30.04c16.565,16.564,43.518,16.564,60.083,0l68.927-68.927l25,25L297.55,481.57
		C282.848,496.272,263.3,504.369,242.509,504.369z"/>
</g>
<g id="Layer_5">
	<path fill="#FFB636" d="M298.631,364.104c-19.933,0-39.866-7.587-55.041-22.762l-49.615-49.615l25-25l49.615,49.615
		c16.563,16.564,43.517,16.564,60.082,0c16.564-16.564,16.564-43.517,0-60.082l-68.928-68.927l25-25l68.928,68.927
		c30.349,30.35,30.349,79.732,0,110.082C338.497,356.518,318.563,364.104,298.631,364.104z"/>
</g>
<g id="Layer_6">
	<path fill="#FFB636" d="M199.662,187.334l-24.999-25c14.702-14.702,34.249-22.798,55.041-22.798
		c20.792,0,40.338,8.097,55.041,22.799l-25,24.999c-8.024-8.024-18.692-12.443-30.041-12.443S207.687,179.31,199.662,187.334z"/>
</g>
<g id="Layer_7">
	<path fill="#009AAF" d="M366.476,412.644l-24.998-25c8.023-8.024,12.443-18.692,12.443-30.041c0-11.348-4.42-22.017-12.444-30.041
		c-16.563-16.562-43.516-16.564-60.081,0l-25-25c30.35-30.351,79.731-30.349,110.081,0c14.702,14.702,22.799,34.25,22.799,55.041
		C389.275,378.395,381.179,397.942,366.476,412.644z"/>
</g>
</svg>
