<?xml version="1.0" encoding="iso-8859-1"?>
<!-- Generator: Adobe Illustrator 19.2.0, SVG Export Plug-In . SVG Version: 6.00 Build 0)  -->
<!DOCTYPE svg PUBLIC "-//W3C//DTD SVG 1.1//EN" "http://www.w3.org/Graphics/SVG/1.1/DTD/svg11.dtd">
<svg version="1.1" xmlns="http://www.w3.org/2000/svg" xmlns:xlink="http://www.w3.org/1999/xlink" x="0px" y="0px"
	 viewBox="0 0 512 512" enable-background="new 0 0 512 512" xml:space="preserve">
<g id="Layer_2">
	<path fill="#96A9B2" d="M223,219H28.922c-2.044,0-3.922,2.118-3.922,4.163v249.382l0.176,0.005
		c0.956,15.068,13.529,26.996,28.838,26.996c13.906,0,25.385-9.839,28.113-22.935L223,486.649V219z"/>
</g>
<g id="Layer_3">
	<path fill="#E5E4DF" d="M474.925,91h-1.366L424,48.172v23.241L423.97,91h-5.511L404,42.109V20.448c0-4.78-3.377-8.448-8.157-8.448
		H82.765l0.172,458.799l-0.054-0.033C82.873,486.691,70,499.798,54,499.798V500h370.21h30.52C470.663,500,484,486.629,484,470.696
		V99.669C484,94.889,479.704,91,474.925,91z"/>
</g>
<g id="Layer_4">
	<path fill="#597B91" d="M368.035,82.961H143.014c-4.78,0-8.655,3.875-8.655,8.655v35.219h0.061
		c0.315,4.494,4.021,8.054,8.594,8.054h225.021c4.573,0,8.28-3.56,8.593-8.054h0.061V91.616
		C376.688,86.836,372.815,82.961,368.035,82.961z"/>
</g>
<g id="Layer_5">
	<path fill="#96A9B2" d="M427.204,466.111H138.686c-2.39,0-4.327-1.937-4.327-4.327v0c0-2.39,1.937-4.327,4.327-4.327h288.518
		c2.39,0,4.327,1.937,4.327,4.327v0C431.531,464.174,429.594,466.111,427.204,466.111z"/>
</g>
<g id="Layer_6">
	<path fill="#96A9B2" d="M173.304,62.345h-34.619c-2.39,0-4.327-1.937-4.327-4.327v0c0-2.39,1.937-4.327,4.327-4.327h34.619
		c2.39,0,4.327,1.937,4.327,4.327v0C177.632,60.408,175.694,62.345,173.304,62.345z"/>
</g>
<g id="Layer_7">
	<path fill="#96A9B2" d="M142.81,254.08h139.515c4.668,0,8.451-3.784,8.451-8.451v-17.716c0-4.668-3.784-8.451-8.451-8.451H142.81
		c-4.668,0-8.451,3.784-8.451,8.451v17.716C134.358,250.296,138.142,254.08,142.81,254.08z"/>
</g>
<g id="Layer_8">
	<path fill="#BFBCAF" d="M427.145,297.353H138.686c-2.39,0-4.327-1.937-4.327-4.327v-8.655c0-2.39,1.937-4.327,4.327-4.327h288.459
		c2.39,0,4.327,1.937,4.327,4.327v8.655C431.472,295.415,429.535,297.353,427.145,297.353z M431.531,336.299v-8.655
		c0-2.39-1.937-4.327-4.327-4.327H138.745c-2.39,0-4.327,1.937-4.327,4.327v8.655c0,2.39,1.937,4.327,4.327,4.327h288.459
		C429.594,340.626,431.531,338.689,431.531,336.299z M431.531,379.572v-8.655c0-2.39-1.937-4.327-4.327-4.327H138.745
		c-2.39,0-4.327,1.937-4.327,4.327v8.655c0,2.39,1.937,4.327,4.327,4.327h288.459C429.594,383.899,431.531,381.962,431.531,379.572z
		 M431.531,422.845v-8.655c0-2.39-1.937-4.327-4.327-4.327H138.745c-2.39,0-4.327,1.937-4.327,4.327v8.655
		c0,2.39,1.937,4.327,4.327,4.327h288.459C429.594,427.172,431.531,425.235,431.531,422.845z"/>
</g>
<g id="Layer_9">
	<path fill="#BFBCAF" d="M482.646,95.787h-73.925c-3.465,0-6.274-2.809-6.274-6.274V14.971l78.463,78.463L482.646,95.787z"/>
</g>
<g id="Layer_10">
	<path fill="#FF473E" d="M321.19,304.28c13.502-14.771,23.135-33.679,23.919-53.936c0.693-17.912-6.414-36.789-19.892-48.837
		c-3.39-3.03-7.139-5.661-11.197-7.714c-2.382-1.204-5.36-0.628-6.765,1.774c-1.287,2.2-0.618,5.555,1.774,6.765
		c7.106,3.593,12.917,8.905,17.17,15.372c4.569,6.948,7.272,14.267,8.541,22.588c1.145,7.51,0.363,16.378-1.803,24.174
		c-2.442,8.791-6.61,16.925-11.889,24.379c-20.281,28.636-55.637,43.24-89.671,44.345c-34.303,1.113-69.245-10.949-94.325-34.779
		c-6.318-6.003-11.773-12.471-16.403-19.742c-4.795-7.53-9.265-15.798-9.337-24.774c-0.151-18.67,13.647-33.384,28.851-42.513
		c17.085-10.258,36.926-16.659,56.658-19.168c19.267-2.449,40.345-2.175,58.538,5.368c4.312,1.788,8.411,4.115,12.229,6.794
		c2.187,1.535,5.496,0.396,6.765-1.774c1.444-2.469,0.418-5.227-1.774-6.765c-17.477-12.263-39.842-15.319-60.721-14.686
		c-22.461,0.681-44.628,6.016-64.98,15.519c-18.573,8.672-36.303,21.885-43.008,42.065c-3.284,9.881-3.338,20.767,0.641,30.446
		c3.761,9.148,9.176,17.533,15.375,25.21c23.786,29.455,61.384,46.356,98.783,48.526C256.084,345.087,295.514,332.368,321.19,304.28
		z"/>
</g>
</svg>
