<?xml version="1.0" encoding="iso-8859-1"?>
<!-- Generator: Adobe Illustrator 18.1.1, SVG Export Plug-In . SVG Version: 6.00 Build 0)  -->
<!DOCTYPE svg PUBLIC "-//W3C//DTD SVG 1.1//EN" "http://www.w3.org/Graphics/SVG/1.1/DTD/svg11.dtd">
<svg version="1.1" xmlns="http://www.w3.org/2000/svg" xmlns:xlink="http://www.w3.org/1999/xlink" x="0px" y="0px"
	 viewBox="0 0 512 512" enable-background="new 0 0 512 512" xml:space="preserve">
<g id="Layer_2">
	<path fill="#FFB636" d="M460.927,229.26l-51.44-77.54c-2.552-3.848-8.202-3.848-10.755,0l-51.44,77.54
		c-2.846,4.289,0.23,10.02,5.377,10.02h25.469v97.374c0,26.517-21.572,48.089-48.089,48.089c-24.647,0-45.01-18.64-47.761-42.562
		c0.1-1.83,0.155-3.672,0.155-5.527V124.657c0,0,0,0,0,0h42.801c6.93,0,11.071-7.716,7.24-13.491L263.231,6.773
		c-3.436-5.18-11.043-5.18-14.479,0l-69.254,104.393c-3.831,5.775,0.31,13.491,7.24,13.491h43.284c0,0,0,0,0,0v211.998
		c0,1.855,0.055,3.697,0.155,5.527c-2.751,23.922-23.115,42.562-47.761,42.562c-26.517,0-48.089-21.572-48.089-48.089V239.28h25.469
		c5.147,0,8.223-5.731,5.377-10.02l-51.44-77.54c-2.552-3.848-8.202-3.848-10.755,0l-51.44,77.54
		c-2.846,4.289,0.23,10.02,5.377,10.02h25.469v97.374c0,55.157,44.874,100.03,100.031,100.03c11.019,0,21.625-1.796,31.548-5.102
		l30.734,72.5c4.228,9.973,18.362,9.973,22.59,0l30.793-72.638c10.044,3.397,20.797,5.24,31.972,5.24
		c55.157,0,100.03-44.873,100.03-100.03V239.28h25.469C460.698,239.28,463.773,233.549,460.927,229.26z"/>
</g>
<g id="Layer_1">
</g>
</svg>
