<?xml version="1.0" encoding="iso-8859-1"?>
<!-- Generator: Adobe Illustrator 19.2.0, SVG Export Plug-In . SVG Version: 6.00 Build 0)  -->
<!DOCTYPE svg PUBLIC "-//W3C//DTD SVG 1.1//EN" "http://www.w3.org/Graphics/SVG/1.1/DTD/svg11.dtd">
<svg version="1.1" xmlns="http://www.w3.org/2000/svg" xmlns:xlink="http://www.w3.org/1999/xlink" x="0px" y="0px"
	 viewBox="0 0 512 512" enable-background="new 0 0 512 512" xml:space="preserve">
<g id="Layer_2">
	<path fill="#CAC7BC" d="M282.525,235.985c-74.68,0-135.221,60.613-135.221,135.384c0,17.5,3.317,34.223,9.355,49.576
		l-22.916,74.876c-0.195,0.46-0.337,0.766-0.434,1.25L133.28,497h0.017c-0.419,3,0.174,4.789,1.845,6.57
		c1.67,1.78,4.016,2.606,6.266,2.327c-0.001,0.005,0,0.053,0,0.053l0.095,0.003c0.496-0.069,0.987-0.171,1.464-0.34l71.651-17.159
		c19.957,11.627,43.154,18.295,67.908,18.295c74.68,0,135.221-60.612,135.221-135.382S357.206,235.985,282.525,235.985z"/>
</g>
<g id="Layer_1">
</g>
</svg>
