<?xml version="1.0" encoding="iso-8859-1"?>
<!-- Generator: Adobe Illustrator 19.2.0, SVG Export Plug-In . SVG Version: 6.00 Build 0)  -->
<!DOCTYPE svg PUBLIC "-//W3C//DTD SVG 1.1//EN" "http://www.w3.org/Graphics/SVG/1.1/DTD/svg11.dtd">
<svg version="1.1" id="Layer_2" xmlns="http://www.w3.org/2000/svg" xmlns:xlink="http://www.w3.org/1999/xlink" x="0px" y="0px"
	 viewBox="0 0 512 512" enable-background="new 0 0 512 512" xml:space="preserve">
<path fill="#E3E2DD" d="M157.694,394.522c0,16.346-13.235,29.597-29.561,29.597s-29.561-13.251-29.561-29.597
	s13.235-29.597,29.561-29.597S157.694,378.176,157.694,394.522z M72.502,433.082c-12.891,0-23.342,10.463-23.342,23.37
	c0,12.907,10.45,23.37,23.342,23.37s23.342-10.463,23.342-23.37C95.844,443.545,85.393,433.082,72.502,433.082z M411.514,121.903
	c-9.268,0-18.228,1.315-26.709,3.763c1.347-6.423,2.06-13.079,2.06-19.903c0-53.215-43.088-96.355-96.239-96.355
	c-44.464,0-81.878,30.193-92.923,71.216c-13.764-22.039-38.204-36.709-66.08-36.709c-43.019,0-77.894,34.916-77.894,77.988
	c0,13.817,3.604,26.784,9.898,38.039C26.528,173.319,0,208.866,0,250.62c0,53.215,43.088,96.355,96.239,96.355
	c22.663,0,43.492-7.847,59.935-20.97c9.504,19.518,29.508,32.969,52.655,32.969c12.229,0,23.578-3.758,32.969-10.178
	c14.751,18.727,37.599,30.764,63.27,30.764c40.443,0,73.916-29.842,79.672-68.73c8.5,2.46,17.483,3.783,26.774,3.783
	c53.151,0,96.239-43.14,96.239-96.355S464.666,121.903,411.514,121.903z"/>
</svg>
