<?xml version="1.0" encoding="iso-8859-1"?>
<!-- Generator: Adobe Illustrator 18.1.1, SVG Export Plug-In . SVG Version: 6.00 Build 0)  -->
<!DOCTYPE svg PUBLIC "-//W3C//DTD SVG 1.1//EN" "http://www.w3.org/Graphics/SVG/1.1/DTD/svg11.dtd">
<svg version="1.1" xmlns="http://www.w3.org/2000/svg" xmlns:xlink="http://www.w3.org/1999/xlink" x="0px" y="0px"
	 viewBox="0 0 512 512" enable-background="new 0 0 512 512" xml:space="preserve">
<g id="Layer_3">
	<path fill="#FFB636" d="M256,116.5c-10.3,0-18.65-8.35-18.65-18.65V19.333c0-10.3,8.35-18.65,18.65-18.65
		c10.3,0,18.65,8.35,18.65,18.65V97.85C274.65,108.15,266.3,116.5,256,116.5z M157.359,157.359c7.283-7.284,7.283-19.092,0-26.376
		l-55.52-55.52c-7.284-7.283-19.092-7.283-26.376,0c-7.283,7.284-7.283,19.092,0,26.376l55.52,55.52
		c3.642,3.642,8.415,5.462,13.188,5.462S153.717,161,157.359,157.359z M116.5,256c0-10.3-8.35-18.65-18.65-18.65H19.333
		c-10.3,0-18.65,8.35-18.65,18.65c0,10.3,8.35,18.65,18.65,18.65H97.85C108.15,274.65,116.5,266.3,116.5,256z M101.839,436.536
		l55.52-55.52c7.283-7.283,7.283-19.092,0-26.375c-7.284-7.283-19.092-7.283-26.376,0l-55.52,55.52
		c-7.283,7.283-7.283,19.092,0,26.375c3.642,3.642,8.415,5.463,13.188,5.463S98.197,440.178,101.839,436.536z M274.65,492.667
		V414.15c0-10.301-8.351-18.65-18.65-18.65c-10.3,0-18.65,8.35-18.65,18.65v78.517c0,10.3,8.35,18.65,18.65,18.65
		C266.3,511.317,274.65,502.967,274.65,492.667z M436.536,436.536c7.283-7.283,7.283-19.092,0-26.375l-55.52-55.52
		c-7.283-7.283-19.092-7.283-26.375,0s-7.283,19.092,0,26.375l55.52,55.52c3.642,3.642,8.414,5.463,13.188,5.463
		S432.895,440.178,436.536,436.536z M511.317,256c0-10.3-8.351-18.65-18.65-18.65H414.15c-10.301,0-18.65,8.35-18.65,18.65
		c0,10.3,8.35,18.65,18.65,18.65h78.517C502.967,274.65,511.317,266.3,511.317,256z M381.017,157.359l55.52-55.52
		c7.283-7.284,7.283-19.092,0-26.376c-7.283-7.283-19.092-7.283-26.375,0l-55.52,55.52c-7.283,7.284-7.283,19.092,0,26.376
		c3.642,3.642,8.414,5.462,13.188,5.462S377.375,161,381.017,157.359z"/>
</g>
<g id="Layer_1">
</g>
</svg>
