<?xml version="1.0" encoding="iso-8859-1"?>
<!-- Generator: Adobe Illustrator 19.2.0, SVG Export Plug-In . SVG Version: 6.00 Build 0)  -->
<!DOCTYPE svg PUBLIC "-//W3C//DTD SVG 1.1//EN" "http://www.w3.org/Graphics/SVG/1.1/DTD/svg11.dtd">
<svg version="1.1" xmlns="http://www.w3.org/2000/svg" xmlns:xlink="http://www.w3.org/1999/xlink" x="0px" y="0px"
	 viewBox="0 0 512 512" enable-background="new 0 0 512 512" xml:space="preserve">
<g id="Layer_10">
	<path fill="#FF473E" d="M321.19,304.28c13.502-14.771,23.135-33.679,23.919-53.936c0.693-17.912-6.414-36.789-19.892-48.837
		c-3.39-3.03-7.139-5.661-11.197-7.714c-2.382-1.204-5.36-0.628-6.765,1.774c-1.287,2.2-0.618,5.555,1.774,6.765
		c7.106,3.593,12.917,8.905,17.17,15.372c4.569,6.948,7.272,14.267,8.541,22.588c1.145,7.51,0.363,16.378-1.803,24.174
		c-2.442,8.791-6.61,16.925-11.889,24.379c-20.281,28.636-55.637,43.24-89.671,44.345c-34.303,1.113-69.245-10.949-94.325-34.779
		c-6.318-6.003-11.773-12.471-16.403-19.742c-4.795-7.53-9.265-15.798-9.337-24.774c-0.151-18.67,13.647-33.384,28.851-42.513
		c17.085-10.258,36.926-16.659,56.658-19.168c19.267-2.449,40.345-2.175,58.538,5.368c4.312,1.788,8.411,4.115,12.229,6.794
		c2.187,1.535,5.496,0.396,6.765-1.774c1.444-2.469,0.418-5.227-1.774-6.765c-17.477-12.263-39.842-15.319-60.721-14.686
		c-22.461,0.681-44.628,6.016-64.98,15.519c-18.573,8.672-36.303,21.885-43.008,42.065c-3.284,9.881-3.338,20.767,0.641,30.446
		c3.761,9.148,9.176,17.533,15.375,25.21c23.786,29.455,61.384,46.356,98.783,48.526C256.084,345.087,295.514,332.368,321.19,304.28
		z"/>
</g>
<g id="Layer_1">
</g>
</svg>
