<?xml version="1.0" encoding="iso-8859-1"?>
<!-- Generator: Adobe Illustrator 19.2.0, SVG Export Plug-In . SVG Version: 6.00 Build 0)  -->
<!DOCTYPE svg PUBLIC "-//W3C//DTD SVG 1.1//EN" "http://www.w3.org/Graphics/SVG/1.1/DTD/svg11.dtd">
<svg version="1.1" xmlns="http://www.w3.org/2000/svg" xmlns:xlink="http://www.w3.org/1999/xlink" x="0px" y="0px"
	 viewBox="0 0 512 512" enable-background="new 0 0 512 512" xml:space="preserve">
<g id="Layer_2">
	<path fill="#E5E4DF" d="M79.926,244.293c-1.112-7.281,4.485-13.858,11.851-13.926l226.4-2.084
		c33.123,0.12,19.836,4.067,49.806-8.817c0.319-0.137,0.64-0.291,0.946-0.456c0,0,52.233-27.178,52.584-27.4
		c22.873-14.489,74.791,20.564,74.791,66.746v0c0,30.865-21.834,57.417-52.117,63.38l-118.483,21.1
		c-0.916,0.163-1.811,0.432-2.666,0.8L149.907,418.22c-4.492,1.935-9.708,0.976-13.217-2.432l-32.988-32.033
		c-1.893-1.839-3.134-4.246-3.532-6.855L79.926,244.293z"/>
</g>
<g id="Layer_1">
</g>
</svg>
