<?xml version="1.0" encoding="iso-8859-1"?>
<!-- Generator: Adobe Illustrator 19.2.0, SVG Export Plug-In . SVG Version: 6.00 Build 0)  -->
<!DOCTYPE svg PUBLIC "-//W3C//DTD SVG 1.1//EN" "http://www.w3.org/Graphics/SVG/1.1/DTD/svg11.dtd">
<svg version="1.1" xmlns="http://www.w3.org/2000/svg" xmlns:xlink="http://www.w3.org/1999/xlink" x="0px" y="0px"
	 viewBox="0 0 512 512" enable-background="new 0 0 512 512" xml:space="preserve">
<g id="Layer_5">
	<path fill="#0074A8" d="M287.904,280.77l68.051-86.073c3.573-4.52,2.806-11.08-1.714-14.654l-20.502-16.209
		c-4.52-3.573-11.08-2.806-14.654,1.713l-61.14,77.332l-61.14-77.332c-3.573-4.52-10.134-5.287-14.654-1.713l-20.502,16.209
		c-4.52,3.573-5.287,10.134-1.714,14.654l68.051,86.073l-68.051,86.074c-3.573,4.52-2.806,11.08,1.714,14.654l20.502,16.209
		c4.52,3.573,11.08,2.806,14.654-1.714l61.14-77.331l61.14,77.331c3.573,4.52,10.134,5.287,14.654,1.714l20.502-16.209
		c4.52-3.573,5.287-10.134,1.714-14.654L287.904,280.77z"/>
</g>
<g id="Layer_1">
</g>
</svg>
