<?xml version="1.0" encoding="iso-8859-1"?>
<!-- Generator: Adobe Illustrator 19.2.0, SVG Export Plug-In . SVG Version: 6.00 Build 0)  -->
<!DOCTYPE svg PUBLIC "-//W3C//DTD SVG 1.1//EN" "http://www.w3.org/Graphics/SVG/1.1/DTD/svg11.dtd">
<svg version="1.1" xmlns="http://www.w3.org/2000/svg" xmlns:xlink="http://www.w3.org/1999/xlink" x="0px" y="0px"
	 viewBox="0 0 512 512" enable-background="new 0 0 512 512" xml:space="preserve">
<g id="Layer_2">
	<path fill="#FF473E" d="M418.163,12.046c-4.574-0.317-9.053,1.357-12.295,4.599l-20.435,20.435l-6.441,6.441
		c15.408,1.711,40.389,7.974,61.827,29.411c20.943,20.943,26.346,44.006,27.46,58.358l9.463-9.463l17.22-17.22
		c3.039-3.039,4.701-7.176,4.635-11.473c-0.181-11.678-3.506-34.62-24.082-55.197C455.085,17.507,430.963,12.934,418.163,12.046z"/>
</g>
<g id="Layer_3">
	<path fill="#FFD469" d="M444.703,69.048C414.925,39.27,378.33,38.77,370.036,39.079l-28.982,28.982L41.106,368.01l1.377,0.237
		l0.044-0.269c-0.24,1.601-5.508,39.608,27.268,72.383c27.821,27.821,61.59,30.084,72.675,30.009l304.796-304.796l24.79-24.79
		C472.694,135.442,475.585,99.93,444.703,69.048z"/>
</g>
<g id="Layer_4">
	<path fill="#FF473E" d="M139.752,455.387l1.014-0.41l-0.905-0.905c0.624-9.051,0.16-35.459-22.77-58.389
		c-22.93-22.93-61.09-25.471-61.09-25.471l-0.453,1.119c-1.205,0.056-1.882,0.129-1.882,0.129l-38.243,99.006l0.217,0.217
		L4.959,495.9c-0.777,1.852-0.845,4.025,0,6.02c1.662,3.926,6.192,5.76,10.118,4.098l25.219-10.68l0.217,0.217l99.006-38.243
		C139.518,457.311,139.634,456.619,139.752,455.387z"/>
</g>
<g id="Layer_5">
	<path fill="#FFB636" d="M356.716,256.124L252.205,360.635c-0.729-0.576-1.438-1.18-2.102-1.844
		c-16.313-16.313-6.084-52.991,22.847-81.922c28.931-28.931,65.609-39.16,81.922-22.847
		C355.536,254.686,356.139,255.395,356.716,256.124z M421.239,191.601c-5.726-19.451-16.68-41.493-37.138-61.952
		c-21.455-21.455-45.127-32.897-65.71-38.924l-46.14,46.14c8.33-0.308,44.91,0.214,74.666,29.969
		c30.882,30.882,27.991,66.394,27.353,71.736L421.239,191.601z M144.32,369.431c30.882,30.882,27.991,66.394,27.353,71.736
		l46.969-46.969c-5.726-19.451-16.68-41.493-37.138-61.952c-21.455-21.455-45.127-32.897-65.71-38.924l-46.14,46.14
		C77.983,339.154,114.564,339.675,144.32,369.431z"/>
</g>
</svg>
