<?xml version="1.0" encoding="iso-8859-1"?>
<!-- Generator: Adobe Illustrator 18.1.1, SVG Export Plug-In . SVG Version: 6.00 Build 0)  -->
<!DOCTYPE svg PUBLIC "-//W3C//DTD SVG 1.1//EN" "http://www.w3.org/Graphics/SVG/1.1/DTD/svg11.dtd">
<svg version="1.1" xmlns="http://www.w3.org/2000/svg" xmlns:xlink="http://www.w3.org/1999/xlink" x="0px" y="0px"
	 viewBox="0 0 512 512" enable-background="new 0 0 512 512" xml:space="preserve">
<g id="Layer_5">
	<path fill="#2B3B47" d="M418.276,464.387h-28.193c-1.988,0-3.6-1.612-3.6-3.6v-139.67c0-1.988,1.612-3.6,3.6-3.6h28.193
		c1.988,0,3.6,1.612,3.6,3.6v139.67C421.876,462.775,420.264,464.387,418.276,464.387z M454.106,385.46l45.934,73.417
		c1.5,2.398-0.224,5.509-3.052,5.509h-32.144c-1.27,0-2.445-0.669-3.094-1.76l-44.41-74.688c-0.714-1.2-0.669-2.705,0.115-3.86
		l44.058-64.981c0.67-0.988,1.786-1.58,2.98-1.58h28.012c2.921,0,4.626,3.295,2.939,5.679l-41.224,58.276
		C453.38,382.657,453.336,384.23,454.106,385.46z"/>
</g>
<g id="Layer_1">
</g>
</svg>
