<?xml version="1.0" encoding="iso-8859-1"?>
<!-- Generator: Adobe Illustrator 19.2.0, SVG Export Plug-In . SVG Version: 6.00 Build 0)  -->
<!DOCTYPE svg PUBLIC "-//W3C//DTD SVG 1.1//EN" "http://www.w3.org/Graphics/SVG/1.1/DTD/svg11.dtd">
<svg version="1.1" xmlns="http://www.w3.org/2000/svg" xmlns:xlink="http://www.w3.org/1999/xlink" x="0px" y="0px"
	 viewBox="0 0 512 512" enable-background="new 0 0 512 512" xml:space="preserve">
<g id="Layer_7">
	<path fill="#AF773F" d="M320.962,217.97l-41.461,57.267c-2.031,2.805-5.284,4.467-8.748,4.467h-82.211
		c-3.464,0-6.717-1.661-8.748-4.467l-41.461-57.267c-2.419-3.341-6.293-5.319-10.418-5.319l-115.053,0.054
		C5.758,212.705,0,218.463,0,225.567v196.742c0,5.965,4.835,10.8,10.8,10.8h435.574c5.965,0,10.8-4.835,10.8-10.8V225.567
		c0-7.103-5.758-12.862-12.862-12.862l-112.933-0.054C327.255,212.651,323.38,214.629,320.962,217.97z"/>
</g>
<g id="Layer_1">
</g>
</svg>
