<?xml version="1.0" encoding="iso-8859-1"?>
<!-- Generator: Adobe Illustrator 19.2.0, SVG Export Plug-In . SVG Version: 6.00 Build 0)  -->
<!DOCTYPE svg PUBLIC "-//W3C//DTD SVG 1.1//EN" "http://www.w3.org/Graphics/SVG/1.1/DTD/svg11.dtd">
<svg version="1.1" xmlns="http://www.w3.org/2000/svg" xmlns:xlink="http://www.w3.org/1999/xlink" x="0px" y="0px"
	 viewBox="0 0 512 512" enable-background="new 0 0 512 512" xml:space="preserve">
<g id="Layer_5">
	<path fill="#939393" d="M173.84,69h-20.754c0-18-14.524-32.408-32.376-32.408S88.334,51.084,88.334,68.936
		s14.524,32.377,32.376,32.377c5.731,0,10.377,4.648,10.377,10.379s-4.646,10.381-10.377,10.381
		c-29.296,0-53.13-23.826-53.13-53.122s23.834-53.114,53.13-53.114S173.84,40,173.84,69z M335.976,17.557
		c-4.372-1.141-8.897-1.736-13.45-1.736c-29.296,0-53.13,23.826-53.13,53.122s23.834,53.126,53.13,53.126
		c5.731,0,10.377-4.648,10.377-10.379s-4.646-10.378-10.377-10.378c-17.853,0-32.376-14.524-32.376-32.376
		s14.523-32.376,32.376-32.376c2.785,0,5.547,0.384,8.208,1.079C344.963,41.352,354.901,54,354.901,69h20.754
		C375.655,45,359.338,23.656,335.976,17.557z"/>
</g>
<g id="Layer_1">
</g>
</svg>
