<?xml version="1.0" encoding="utf-8"?>
<!-- Generator: Adobe Illustrator 18.1.0, SVG Export Plug-In . SVG Version: 6.00 Build 0)  -->
<!DOCTYPE svg PUBLIC "-//W3C//DTD SVG 1.1//EN" "http://www.w3.org/Graphics/SVG/1.1/DTD/svg11.dtd">
<svg version="1.1" id="Layer_1" xmlns="http://www.w3.org/2000/svg" xmlns:xlink="http://www.w3.org/1999/xlink" x="0px" y="0px"
	 width="72px" height="72px" viewBox="0 0 72 72" enable-background="new 0 0 72 72" xml:space="preserve">
<path fill="#FF8F1F" d="M70,34.9c0,19.6-16.5,35.3-36.4,33.9c-16.5-1.1-30-14.4-31.5-30.9c-0.9-9.9,2.5-19,8.5-25.7
	c0.5-0.6,1.5-0.1,1.2,0.7c-0.6,2.1-0.9,4.5-0.9,7c0,4.3,3.3,8.5,7.6,9c5.3,0.6,9.7-3.4,9.7-8.6c0-5.2-2.2-15.3,8.5-18.5
	c0.7-0.2,1.4,0.5,1.1,1.2c-0.4,0.9-0.6,1.8-0.6,2.8c0,4.2,3.7,7.5,8,6.9c2.4-0.3,4.5-2,5.4-4.3C50.9,7.8,51,7,51,6.3
	c0-0.7,0.8-0.9,1.3-0.4c8.4,9.9,2.5,13.4,2.1,22.3c-0.3,1.7,1.1,7,6,7c3.4,0,6.1-2.7,6.1-6.1c0-1.4-0.1-2.7-0.1-3.8
	c0-0.6,0.7-0.8,1-0.3C69,27.8,70,30.9,70,34.9z"/>
</svg>
