<?xml version="1.0" encoding="iso-8859-1"?>
<!-- Generator: Adobe Illustrator 19.2.0, SVG Export Plug-In . SVG Version: 6.00 Build 0)  -->
<!DOCTYPE svg PUBLIC "-//W3C//DTD SVG 1.1//EN" "http://www.w3.org/Graphics/SVG/1.1/DTD/svg11.dtd">
<svg version="1.1" xmlns="http://www.w3.org/2000/svg" xmlns:xlink="http://www.w3.org/1999/xlink" x="0px" y="0px"
	 viewBox="0 0 512 512" enable-background="new 0 0 512 512" xml:space="preserve">
<g id="Layer_2">
	<path fill="#ADB8BC" d="M486.394,105.201h-40.943c-2.397,0-4.693,0.965-6.37,2.676l-22.641,23.101
		c-1.678,1.712-3.974,2.676-6.37,2.676h-36.721c-2.397,0-4.693-0.965-6.37-2.676l-22.641-23.101
		c-1.678-1.712-3.974-2.676-6.37-2.676H25.606c-12.679,0-22.957,10.278-22.957,22.957v279.086c0,12.679,10.278,22.957,22.957,22.957
		h460.789c12.679,0,22.957-10.278,22.957-22.957V128.158C509.351,115.48,499.073,105.201,486.394,105.201z"/>
</g>
<g id="Layer_1">
</g>
</svg>
