<?xml version="1.0" encoding="iso-8859-1"?>
<!-- Generator: Adobe Illustrator 19.2.0, SVG Export Plug-In . SVG Version: 6.00 Build 0)  -->
<!DOCTYPE svg PUBLIC "-//W3C//DTD SVG 1.1//EN" "http://www.w3.org/Graphics/SVG/1.1/DTD/svg11.dtd">
<svg version="1.1" xmlns="http://www.w3.org/2000/svg" xmlns:xlink="http://www.w3.org/1999/xlink" x="0px" y="0px"
	 viewBox="0 0 511.92 511.92" enable-background="new 0 0 511.92 511.92" xml:space="preserve">
<g id="Layer_2">
	<path fill="#FFD3B6" d="M480.428,67.433h-74.57c-21.446-26.158-54.009-42.85-90.473-42.85H74.599l0,0h-17.63
		c-20.775,0-37.629,16.967-37.629,37.856c0,15.364,9.067,28.238,22.105,34.012c2.063,0.914,2.676,3.877,1.486,5.246
		c-0.567,0.228-1.127,0.469-1.68,0.723c-18.004,1.382-32.809,14.708-32.809,34.442c0,15.364,5.07,28.238,18.109,34.012
		c2.65,1.173,2.669,4.747,0.031,5.947c-13.049,5.938-22.137,19.132-22.137,34.463c0,15.364,9.067,28.238,22.105,34.012
		c2.65,1.173,2.669,4.747,0.031,5.948c-13.049,5.938-15.236,19.131-15.236,34.463c0,20.945,16.835,37.309,37.63,37.309h7.878h37.204
		h27.571h6.786h7.878h38.144h27.571c1.768,0,3.505-0.132,5.209-0.37l0.165,0.37h58.801c-8.765,10.727-17.501,36.118-22.733,52.603
		c-23.168,73.001,0.874,102.725,22.731,110.594c18.399,6.624,38.785-17.306,44.873-36.988c39.834-93.75,71.52-110.043,83.56-121.045
		c12.891-8.835,23.269-21.067,29.851-35.404h55.965c14.937,0,27.047-12.109,27.047-27.047V94.48
		C507.474,79.543,495.365,67.433,480.428,67.433z"/>
</g>
<g id="Layer_1">
</g>
</svg>
