<?xml version="1.0" encoding="iso-8859-1"?>
<!-- Generator: Adobe Illustrator 19.2.1, SVG Export Plug-In . SVG Version: 6.00 Build 0)  -->
<!DOCTYPE svg PUBLIC "-//W3C//DTD SVG 1.1//EN" "http://www.w3.org/Graphics/SVG/1.1/DTD/svg11.dtd">
<svg version="1.1" xmlns="http://www.w3.org/2000/svg" xmlns:xlink="http://www.w3.org/1999/xlink" x="0px" y="0px"
	 viewBox="0 0 512 512" enable-background="new 0 0 512 512" xml:space="preserve">
<g id="Layer_2">
	<path d="M484.558,507.003H28.006c-9.94,0-17.998-8.058-17.998-17.998v-85.929c0-9.94,8.058-17.998,17.998-17.998h456.552
		c9.94,0,17.998,8.058,17.998,17.998v85.929C502.556,498.945,494.498,507.003,484.558,507.003z"/>
</g>
<g id="Layer_3">
	<path fill="#132028" d="M507.167,112.893C507.167,53.585,394.716,5.507,256,5.507S4.833,53.585,4.833,112.893
		c0,1.85,0.11,3.69,0.326,5.517c-0.202,2.325-0.326,4.672-0.326,7.05c0,44.418,36.008,80.427,80.427,80.427
		c9.631,0,18.865-1.698,27.424-4.803c40.646,12.097,90.039,19.195,143.317,19.195s102.671-7.098,143.317-19.195
		c8.559,3.105,17.793,4.803,27.424,4.803c44.418,0,80.427-36.008,80.427-80.427c0-2.377-0.124-4.725-0.326-7.05
		C507.058,116.582,507.167,114.743,507.167,112.893z"/>
</g>
<g id="Layer_4">
	<path fill="#5A5D5E" d="M473.477,288.609l-45.639-127.294C415.415,135.367,387,117.332,354,113.615V72.102
		c0-13.518-10.982-24.476-24.5-24.476S305,58.584,305,72.102V113h-98V72.102c0-13.518-10.982-24.476-24.5-24.476
		S158,58.584,158,72.102v41.513c-33,3.717-61.415,21.751-73.838,47.7L38.595,288.609c-6.415,13.399-8.321,28.1-4.948,42.235
		C48.116,391.481,112.91,405,190.697,405h130.607c77.787,0,142.617-13.519,157.086-74.157
		C481.762,316.709,479.893,302.008,473.477,288.609z"/>
</g>
<g id="Layer_5">
	<path fill="#F4F9F9" d="M212.891,179.082c0,7.857-11.904,14.226-26.588,14.226s-26.588-6.369-26.588-14.226
		c0-7.857,11.904-14.226,26.588-14.226S212.891,171.225,212.891,179.082z M256,164.856c-14.684,0-26.588,6.369-26.588,14.226
		c0,7.857,11.904,14.226,26.588,14.226c14.684,0,26.588-6.369,26.588-14.226C282.588,171.225,270.684,164.856,256,164.856z
		 M325.697,164.856c-14.684,0-26.588,6.369-26.588,14.226c0,7.857,11.904,14.226,26.588,14.226s26.588-6.369,26.588-14.226
		C352.285,171.225,340.381,164.856,325.697,164.856z M171.708,208.275c-17.919,0-32.444,7.772-32.444,17.36
		c0,9.587,14.526,17.36,32.444,17.36s32.444-7.772,32.444-17.36C204.152,216.048,189.626,208.275,171.708,208.275z M256,208.275
		c-17.919,0-32.444,7.772-32.444,17.36c0,9.587,14.526,17.36,32.444,17.36s32.444-7.772,32.444-17.36
		C288.444,216.048,273.919,208.275,256,208.275z M340.292,208.275c-17.919,0-32.444,7.772-32.444,17.36
		c0,9.587,14.526,17.36,32.444,17.36s32.444-7.772,32.444-17.36C372.737,216.048,358.211,208.275,340.292,208.275z M155.939,258.154
		c-21.413,0-38.772,9.288-38.772,20.745c0,11.457,17.359,20.745,38.772,20.745s38.772-9.288,38.772-20.745
		C194.711,267.442,177.352,258.154,155.939,258.154z M256,258.154c-21.413,0-38.772,9.288-38.772,20.745
		c0,11.457,17.359,20.745,38.772,20.745s38.772-9.288,38.772-20.745C294.772,267.442,277.413,258.154,256,258.154z M356.061,258.154
		c-21.413,0-38.772,9.288-38.772,20.745c0,11.457,17.359,20.745,38.772,20.745c21.413,0,38.772-9.288,38.772-20.745
		C394.833,267.442,377.474,258.154,356.061,258.154z"/>
</g>
<g id="Layer_6">
	<circle fill="#FF473E" cx="66.789" cy="454.325" r="21.2"/>
</g>
<g id="Layer_7">
	<circle fill="#FFB636" cx="410.423" cy="454.325" r="11.895"/>
</g>
<g id="Layer_8">
	<circle fill="#BCBCBC" cx="460.139" cy="454.325" r="11.895"/>
</g>
<g id="Layer_9">
	<path fill="#BCBCBC" d="M297.852,433.124H150.347c-11.709,0-21.2,9.492-21.2,21.2v0c0,11.709,9.492,21.2,21.2,21.2h147.505
		c11.709,0,21.2-9.492,21.2-21.2v0C319.052,442.616,309.561,433.124,297.852,433.124z"/>
</g>
</svg>
