<?xml version="1.0" encoding="iso-8859-1"?>
<!-- Generator: Adobe Illustrator 19.2.0, SVG Export Plug-In . SVG Version: 6.00 Build 0)  -->
<!DOCTYPE svg PUBLIC "-//W3C//DTD SVG 1.1//EN" "http://www.w3.org/Graphics/SVG/1.1/DTD/svg11.dtd">
<svg version="1.1" xmlns="http://www.w3.org/2000/svg" xmlns:xlink="http://www.w3.org/1999/xlink" x="0px" y="0px"
	 viewBox="0 0 512 512" enable-background="new 0 0 512 512" xml:space="preserve">
<g id="Layer_5">
	<path fill="#FFB636" d="M356.716,256.124L252.205,360.635c-0.729-0.576-1.438-1.18-2.102-1.844
		c-16.313-16.313-6.084-52.991,22.847-81.922c28.931-28.931,65.609-39.16,81.922-22.847
		C355.536,254.686,356.139,255.395,356.716,256.124z M421.239,191.601c-5.726-19.451-16.68-41.493-37.138-61.952
		c-21.455-21.455-45.127-32.897-65.71-38.924l-46.14,46.14c8.33-0.308,44.91,0.214,74.666,29.969
		c30.882,30.882,27.991,66.394,27.353,71.736L421.239,191.601z M144.32,369.431c30.882,30.882,27.991,66.394,27.353,71.736
		l46.969-46.969c-5.726-19.451-16.68-41.493-37.138-61.952c-21.455-21.455-45.127-32.897-65.71-38.924l-46.14,46.14
		C77.983,339.154,114.564,339.675,144.32,369.431z"/>
</g>
<g id="Layer_1">
</g>
</svg>
