<?xml version="1.0" encoding="iso-8859-1"?>
<!-- Generator: Adobe Illustrator 19.2.0, SVG Export Plug-In . SVG Version: 6.00 Build 0)  -->
<!DOCTYPE svg PUBLIC "-//W3C//DTD SVG 1.1//EN" "http://www.w3.org/Graphics/SVG/1.1/DTD/svg11.dtd">
<svg version="1.1" xmlns="http://www.w3.org/2000/svg" xmlns:xlink="http://www.w3.org/1999/xlink" x="0px" y="0px"
	 viewBox="0 0 512 512" enable-background="new 0 0 512 512" xml:space="preserve">
<g id="Layer_6">
	<path fill="#597B91" d="M401.872,188.5H55c-3.038,0-5.5-2.462-5.5-5.5s2.462-5.5,5.5-5.5h346.872c3.037,0,5.5,2.462,5.5,5.5
		S404.909,188.5,401.872,188.5z M284.546,223.083c0-3.038-2.463-5.5-5.5-5.5H55c-3.038,0-5.5,2.462-5.5,5.5s2.462,5.5,5.5,5.5
		h224.046C282.083,228.583,284.546,226.121,284.546,223.083z M384.5,263.166c0-3.037-2.463-5.5-5.5-5.5H252.998
		c-3.038,0-5.5,2.463-5.5,5.5s2.462,5.5,5.5,5.5H379C382.037,268.666,384.5,266.203,384.5,263.166z M218.989,263.166
		c0-3.037-2.462-5.5-5.5-5.5H55c-3.038,0-5.5,2.463-5.5,5.5s2.462,5.5,5.5,5.5h158.489
		C216.526,268.666,218.989,266.203,218.989,263.166z"/>
</g>
<g id="Layer_1">
</g>
</svg>
