<?xml version="1.0" encoding="iso-8859-1"?>
<!-- Generator: Adobe Illustrator 19.1.0, SVG Export Plug-In . SVG Version: 6.00 Build 0)  -->
<!DOCTYPE svg PUBLIC "-//W3C//DTD SVG 1.1//EN" "http://www.w3.org/Graphics/SVG/1.1/DTD/svg11.dtd">
<svg version="1.1" xmlns="http://www.w3.org/2000/svg" xmlns:xlink="http://www.w3.org/1999/xlink" x="0px" y="0px"
	 viewBox="0 0 512 512" enable-background="new 0 0 512 512" xml:space="preserve">
<g id="Layer_1">
</g>
<g id="Layer_2">
	<path fill="#16AFE4" d="M221.574,304.285l267.477-44.782c3.955-0.662,3.955-6.345,0-7.007l-267.477-44.782
		c-2.166-0.363-4.139,1.307-4.139,3.504v89.563C217.435,302.978,219.408,304.648,221.574,304.285z"/>
</g>
<g id="Layer_3">
	<path fill="#16AFE4" d="M307.024,491.505l183.6-142.612c3.079-2.392,0.614-7.28-3.14-6.226l-223.821,62.855
		c-2.153,0.604-3.218,3.023-2.212,5.02l40.22,79.756C302.68,492.296,305.258,492.877,307.024,491.505z"/>
</g>
<g id="Layer_4">
	<path fill="#16AFE4" d="M263.664,106.476l223.821,62.855c3.754,1.054,6.219-3.834,3.14-6.226l-183.6-142.612
		c-1.766-1.372-4.344-0.79-5.351,1.206l-40.22,79.756C260.446,103.453,261.512,105.872,263.664,106.476z"/>
</g>
</svg>
