<?xml version="1.0" encoding="iso-8859-1"?>
<!-- Generator: Adobe Illustrator 19.2.0, SVG Export Plug-In . SVG Version: 6.00 Build 0)  -->
<!DOCTYPE svg PUBLIC "-//W3C//DTD SVG 1.1//EN" "http://www.w3.org/Graphics/SVG/1.1/DTD/svg11.dtd">
<svg version="1.1" xmlns="http://www.w3.org/2000/svg" xmlns:xlink="http://www.w3.org/1999/xlink" x="0px" y="0px"
	 viewBox="0 0 512 512" enable-background="new 0 0 512 512" xml:space="preserve">
<g id="Layer_6">
	<path fill="#626566" d="M231.606,441.485c-0.196-2.503-0.492-5.129-0.888-7.95c-0.372-2.795-0.82-5.81-1.328-8.956
		c-0.519-3.162-1.141-6.506-1.873-9.985c-0.755-3.501-1.653-7.137-2.742-10.87c-1.109-3.742-2.394-7.57-3.871-11.427
		c-1.505-3.852-3.201-7.716-5.088-11.526c-1.931-3.781-4.015-7.516-6.264-11.119c-0.262-0.439-0.586-0.936-0.909-1.43l-0.966-1.472
		c-0.627-0.95-1.382-2.088-1.766-2.634l-2.972-4.288c-3.353-4.792-6.588-9.886-10.025-15.173c-1.766-2.734-3.519-5.447-5.25-8.127
		c-0.923-1.398-1.866-2.815-2.833-4.247l13.342-3.493c-18.891,4.946-43.376-26.075-54.689-69.287s-5.169-82.251,13.722-87.197
		l-40.558,10.618L59.544,197.87c-18.891,4.946-25.035,43.985-13.722,87.197c11.313,43.212,35.798,74.233,54.689,69.287h0
		l1.665-0.436c1.428-0.07,2.867-0.224,4.313-0.489c0,0,0.203-0.037,0.597-0.109c0.197-0.036,0.441-0.081,0.731-0.134
		c0.145-0.027,0.302-0.094,0.47-0.125l0.128-0.062h0.048l0.09,0.041c0.124,0.003,0.259,0.012,0.407,0.001
		c0.224-0.02,0.469-0.031,0.733-0.055c0.549-0.049,1.13-0.066,1.718-0.072c1.159-0.011,2.244,0.121,2.793,0.302
		c0.595,0.218,0.524,0.297,0.948,0.581c0.229,0.173,0.61,0.416,1.242,0.965c0.632,0.502,1.506,1.311,2.553,2.416
		c2.121,2.189,4.92,5.717,8.075,10.028c1.585,2.164,3.248,4.521,4.999,7.036c1.828,2.593,3.677,5.218,5.542,7.864
		c3.831,5.469,8.1,11.224,12.623,17.01l0.866,1.078l0.433,0.539l0.108,0.135c0.291,0.39-0.336-0.455-0.254-0.346l0.047,0.061
		l0.19,0.244l1.518,1.952c0.607,0.77,0.759,1.005,1.066,1.409l0.428,0.563c0.143,0.184,0.285,0.362,0.457,0.621
		c1.354,1.889,2.576,3.804,3.736,5.731c1.127,1.94,2.197,3.894,3.172,5.902c0.955,2.022,1.841,4.095,2.661,6.227
		c0.795,2.155,1.551,4.37,2.268,6.634c0.696,2.297,1.354,4.633,1.963,7.024c1.252,4.786,2.191,9.755,3.436,14.527
		c1.235,4.782,2.74,9.351,4.361,13.421c1.638,4.065,3.372,7.639,5.017,10.526c1.628,2.887,3.145,5.105,4.262,6.583
		c0.578,0.732,1.02,1.294,1.319,1.673c0.32,0.371,0.485,0.562,0.485,0.562c2.808,3.231,6.584,5.817,10.977,7.169
		c12.526,3.857,25.808-3.17,29.665-15.697l0.707-2.297c0,0,0.064-0.208,0.188-0.612c0.103-0.396,0.255-0.983,0.454-1.748
		c0.36-1.518,0.805-3.706,1.206-6.456c0.397-2.746,0.73-6.038,0.921-9.878C232.003,450.83,231.999,446.458,231.606,441.485z"/>
</g>
<g id="Layer_1">
</g>
</svg>
