<?xml version="1.0" encoding="iso-8859-1"?>
<!-- Generator: Adobe Illustrator 19.2.0, SVG Export Plug-In . SVG Version: 6.00 Build 0)  -->
<!DOCTYPE svg PUBLIC "-//W3C//DTD SVG 1.1//EN" "http://www.w3.org/Graphics/SVG/1.1/DTD/svg11.dtd">
<svg version="1.1" xmlns="http://www.w3.org/2000/svg" xmlns:xlink="http://www.w3.org/1999/xlink" x="0px" y="0px"
	 viewBox="0 0 512 512" enable-background="new 0 0 512 512" xml:space="preserve">
<g id="Layer_3">
	<path fill="#FF473E" d="M366.341,353.205c-21.155-28.853-42.309-57.706-63.464-86.559c40.37-41.458,78.854-84.796,109.943-133.798
		c10.264-16.178,8.398-37.756-7.806-49.549c-14.759-10.742-39.234-8.453-49.549,7.806c-27.187,42.852-59.968,81.298-94.893,117.84
		c-12.049-16.433-24.098-32.867-36.147-49.301c-16.628-22.679-31.369-49.022-58.379-60.373
		c-17.664-7.423-39.122,3.262-45.704,20.699c-6.99,18.517,2.982,38.258,20.7,45.704c-3.323-1.396,4.576,6.398,4.782,6.669
		c3.367,4.449,6.602,9.005,9.901,13.504l23.103,31.51c10.382,14.16,20.764,28.32,31.146,42.481
		c-16.295,16.026-32.626,32.015-48.682,48.281c-24.564,24.886-48.318,50.208-60.215,83.818
		c-15.197,42.934,51.113,68.203,66.403,25.005c9.309-26.299,30.406-45.795,49.735-65.096c11.579-11.562,23.257-23.024,34.925-34.497
		l58.702,80.064C337.897,434.317,393.275,389.941,366.341,353.205z"/>
</g>
<g id="Layer_1">
</g>
</svg>
