<?xml version="1.0" encoding="iso-8859-1"?>
<!-- Generator: Adobe Illustrator 19.1.0, SVG Export Plug-In . SVG Version: 6.00 Build 0)  -->
<!DOCTYPE svg PUBLIC "-//W3C//DTD SVG 1.1//EN" "http://www.w3.org/Graphics/SVG/1.1/DTD/svg11.dtd">
<svg version="1.1" xmlns="http://www.w3.org/2000/svg" xmlns:xlink="http://www.w3.org/1999/xlink" x="0px" y="0px"
	 viewBox="0 0 512 512" enable-background="new 0 0 512 512" xml:space="preserve">
<g id="Layer_2">
	<path fill="#464A4C" d="M247.643,90.39c0,0,0.434,0.504,1.248,1.448c0.798,0.892,2.057,2.498,3.442,3.781
		c0.732,0.706,1.43,1.49,2.374,2.337c0.938,0.845,1.951,1.76,3.035,2.736c1.134,0.908,2.342,1.873,3.614,2.891
		c1.34,0.93,2.708,1.944,4.183,2.928c3.006,1.889,6.277,3.875,9.955,5.507c1.789,0.904,3.737,1.597,5.671,2.381
		c0.969,0.389,1.997,0.667,3,1.013c1.01,0.333,2.019,0.686,3.076,0.928c1.041,0.273,2.091,0.548,3.148,0.825
		c1.07,0.211,2.148,0.424,3.232,0.638c0.542,0.1,1.077,0.231,1.625,0.309l1.652,0.215c1.106,0.126,2.196,0.337,3.315,0.406
		c4.451,0.426,8.98,0.363,13.45,0.061c-0.859,0.012-0.202-0.001-0.378,0l0.062-0.006l0.124-0.013l0.248-0.026l0.496-0.052
		l0.992-0.103l1.983-0.207l0.991-0.103c0.333-0.034,0.681-0.065,0.894-0.124l1.476-0.303l1.465-0.285
		c0.481-0.087,0.964-0.173,1.515-0.326c1.061-0.263,2.118-0.525,3.172-0.787c1.051-0.25,2.066-0.639,3.088-0.94l1.522-0.474
		c0.503-0.164,0.991-0.378,1.484-0.562c0.979-0.377,1.952-0.752,2.918-1.125c0.939-0.431,1.871-0.859,2.796-1.284
		c0.934-0.39,1.814-0.885,2.69-1.355c0.87-0.483,1.758-0.893,2.584-1.407c1.648-1.036,3.291-1.957,4.767-3.065
		c3.05-2.04,5.653-4.337,8-6.448c1.145-1.095,2.187-2.199,3.208-3.199c0.947-1.074,1.845-2.093,2.689-3.051
		c0.782-1.002,1.513-1.939,2.19-2.806c0.679-0.857,1.203-1.727,1.732-2.459c1.071-1.457,1.736-2.723,2.253-3.533
		c0.502-0.82,0.77-1.257,0.77-1.257l0.275-0.448c5.883-9.6,18.435-12.613,28.035-6.73c9.6,5.883,12.613,18.435,6.73,28.035
		c-0.501,0.817-1.125,1.674-1.716,2.394c0,0-0.523,0.628-1.503,1.805c-0.998,1.161-2.373,2.931-4.365,4.969
		c-0.99,1.023-2.027,2.203-3.27,3.38c-1.244,1.168-2.59,2.431-4.028,3.781c-1.509,1.26-3.115,2.602-4.807,4.016
		c-1.771,1.314-3.606,2.719-5.58,4.092c-4.007,2.67-8.417,5.436-13.367,7.791c-2.424,1.265-5.041,2.306-7.673,3.416
		c-1.318,0.552-2.703,0.988-4.07,1.486c-1.373,0.485-2.752,0.983-4.186,1.365c-1.421,0.404-2.853,0.811-4.296,1.221
		c-1.461,0.327-2.933,0.657-4.413,0.988c-0.741,0.155-1.477,0.338-2.227,0.466c-0.751,0.12-1.504,0.24-2.26,0.36
		c-1.512,0.219-3.015,0.513-4.546,0.656c-1.527,0.143-3.06,0.287-4.597,0.431c-0.744,0.082-1.573,0.115-2.406,0.143l-2.478,0.084
		l-2.474,0.067c-0.445,0.019-0.759,0-1.088-0.014l-0.995-0.042l-1.992-0.083l-0.997-0.042l-0.498-0.021l-0.249-0.01l-0.125-0.005
		l-0.062-0.003c-0.217,0.002,0.398-0.009-0.502,0.004c-6.14-0.472-12.22-1.332-18.055-2.783c-1.464-0.324-2.89-0.797-4.32-1.19
		c-0.712-0.207-1.421-0.413-2.129-0.619c-0.705-0.214-1.393-0.481-2.085-0.719c-1.375-0.495-2.742-0.987-4.099-1.475
		c-1.325-0.564-2.64-1.124-3.944-1.68c-1.311-0.529-2.56-1.17-3.8-1.792c-1.233-0.635-2.479-1.203-3.653-1.88
		c-2.345-1.362-4.659-2.631-6.769-4.1c-4.323-2.764-8.065-5.84-11.413-8.732c-1.645-1.485-3.153-2.98-4.606-4.364
		c-1.367-1.47-2.663-2.865-3.882-4.175c-1.136-1.374-2.2-2.661-3.183-3.85c-0.978-1.187-1.841-2.453-2.628-3.501
		c-1.678-2.212-2.458-3.642-3.175-4.721c-0.669-1.053-1.025-1.614-1.025-1.614c-2.356-3.71-1.259-8.627,2.451-10.984
		C240.727,86.723,245.107,87.443,247.643,90.39z"/>
</g>
<g id="Layer_3">
	<path fill="#464A4C" d="M306.58,85.686l-30.291-30.291c-3.913-3.913-3.913-10.256,0-14.168l30.291-30.291
		c3.913-3.913,10.256-3.913,14.168,0l30.291,30.291c3.913,3.913,3.913,10.256,0,14.168l-30.291,30.291
		C316.836,89.598,310.493,89.598,306.58,85.686z"/>
</g>
<g id="Layer_4">
	<path fill="#464A4C" d="M495.234,341.663c-0.094-4.641-0.234-7.117-0.234-7.117v-0.127c0,0,0.008-2.525-0.145-7.26
		c-0.194-4.744-0.453-11.701-1.043-20.627c-0.141-2.233-0.258-4.586-0.456-7.067c-0.152-2.476-0.379-5.076-0.6-7.795
		c-0.509-5.438-1.034-11.352-2.049-17.729c-0.991-6.374-2.312-13.208-4.354-20.463c-2.06-7.246-4.82-14.939-8.968-22.85
		c-0.559-0.98-1.121-1.965-1.686-2.955l-0.858-1.486l-0.956-1.471c-0.65-0.98-1.304-1.964-1.961-2.954
		c-0.731-0.964-1.464-1.932-2.202-2.906l-1.13-1.453l-1.239-1.412c-0.842-0.935-1.649-1.899-2.549-2.81
		c-1.836-1.802-3.678-3.632-5.779-5.272c-2.003-1.737-4.278-3.205-6.524-4.731c-2.345-1.366-4.7-2.802-7.216-3.91
		c-2.474-1.255-5.062-2.129-7.664-3.105c-2.609-0.75-5.275-1.632-7.934-2.108c-1.357-0.264-2.623-0.579-4.077-0.783
		c-1.461-0.199-2.933-0.385-4.412-0.557c-1.665-0.21-2.486-0.226-3.618-0.315l-1.617-0.113l-0.81-0.057l-0.203-0.014
		c0.46,0.005-0.837-0.021-0.811-0.021l-0.504-0.002c-2.699,0.02-5.375-0.075-8.185,0.193c-1.398,0.12-2.781,0.16-4.206,0.367
		c-1.424,0.209-2.852,0.419-4.284,0.629c-5.75,1.048-11.64,2.749-17.37,5.334c-5.701,2.644-11.142,6.144-15.971,10.271
		c-4.843,4.116-9.067,8.856-12.562,13.823c-3.522,4.968-6.464,10.151-8.951,15.389c-0.365,0.79-0.705,1.584-1.053,2.376
		c-11.121-3.21-22.824-3.916-34.489-1.91c-14.906,2.561-35.304,10.458-55.135,32.269c-1.673-2.432-3.306-4.695-4.871-6.756
		c-4.573-6.101-8.468-10.558-11.237-13.708c-1.938-2.149-3.208-3.556-3.757-4.166c1.609-8.065,2.218-16.372,1.938-24.608
		c-0.041-1.18-0.113-2.409-0.179-3.604c-0.022-0.65-0.084-1.059-0.129-1.58l-0.145-1.491l-0.032-0.373l-0.016-0.187l-0.008-0.093
		c-0.005-0.472-0.008-0.192-0.013-0.324l-0.096-0.845l-0.193-1.688c-0.103-1.126-0.308-2.242-0.451-3.361
		c-0.662-4.469-1.566-8.883-2.703-13.227c-2.237-8.7-5.565-17.078-9.791-24.944c-0.53-0.976-1.145-2.042-1.72-3.059
		c-0.31-0.551-0.554-0.952-0.806-1.372l-0.758-1.264c-0.628-0.972-1.255-1.942-1.88-2.909c-0.59-0.95-1.258-1.835-1.89-2.75
		c-2.575-3.621-5.36-7.061-8.317-10.3c-5.912-6.475-12.573-12.093-19.642-16.509c-1.762-1.126-3.545-2.124-5.357-3.126
		c-1.806-0.897-3.585-1.78-5.335-2.648l-0.551-0.269l-0.275-0.132l-0.137-0.066l-0.069-0.033c-0.689-0.216-0.241-0.08-0.417-0.138
		c-0.46-0.186-0.919-0.372-1.375-0.557c-0.917-0.359-1.821-0.754-2.738-1.066c-0.917-0.324-1.826-0.645-2.726-0.962
		c-0.914-0.277-1.818-0.551-2.714-0.823c-3.598-1.048-7.128-1.845-10.529-2.354c-3.398-0.578-6.666-0.822-9.749-0.976
		c-6.173-0.29-11.597,0.241-15.975,1.073c-1.095,0.214-2.132,0.411-3.096,0.656c-0.96,0.257-1.86,0.499-2.698,0.723
		c-1.747,0.497-3.422,1.103-4.537,1.501c-1.738,0.734-2.64,1.2-2.64,1.2c-7.702,3.991-12.347,12.623-10.849,21.643
		c1.861,11.205,12.453,18.78,23.659,16.919c0,0,1.001-0.166,2.833-0.618c0.688-0.136,1.237-0.188,2.12-0.408
		c0.972-0.207,2.088-0.444,3.339-0.71c2.503-0.533,5.548-1.193,9.15-1.822c3.604-0.583,7.767-0.948,12.41-0.907
		c0.581,0.014,1.169,0.029,1.762,0.043c0.595,0.031,1.196,0.063,1.803,0.095c0.615,0.014,1.218,0.102,1.842,0.148l0.939,0.083
		c-0.128-0.044,0.37,0.105-0.272-0.097l0.075,0.013l0.15,0.026l0.301,0.052l0.605,0.101c0.758,0.121,1.521,0.242,2.291,0.365
		c0.567,0.077,1.139,0.154,1.716,0.232c1.291,0.259,2.666,0.524,4.016,0.885c5.438,1.375,11.216,3.56,16.659,6.962
		c2.728,1.684,5.366,3.663,7.826,5.92c0.598,0.578,1.24,1.13,1.812,1.743l0.885,0.905l0.435,0.462l0.054,0.058
		c0.044,0.053-0.19-0.269-0.063-0.099l0.118,0.141l0.236,0.282l0.947,1.13c0.318,0.379,0.651,0.772,0.866,1.053
		c0.486,0.639,1,1.19,1.48,1.91c4.073,5.572,7.057,12.153,8.673,19.029c0.794,3.442,1.211,6.966,1.234,10.459
		c-0.017,0.874,0.004,1.744-0.056,2.612l-0.088,1.299l-0.044,0.647c-0.002-0.071-0.002,0.272-0.007-0.138l-0.009,0.093l-0.018,0.186
		l-0.036,0.373l-0.164,1.489c-0.061,0.472-0.094,1.055-0.185,1.394l-0.489,2.321c-1.462,6.675-4.404,12.778-7.924,17.92
		c-1.753,2.581-3.636,4.948-5.6,7.083c-0.977,1.07-1.958,2.095-2.958,3.059c-0.496,0.485-0.968,0.976-1.487,1.421l-0.753,0.678
		l-0.368,0.339l-0.18,0.171c0.492-0.628,0.102-0.142,0.197-0.267l-0.06,0.056l-0.119,0.112c-0.634,0.595-1.265,1.186-1.89,1.773
		c-0.35,0.352-0.539,0.449-0.765,0.613l-0.653,0.467l-0.617,0.481l-0.753,0.56c-0.503,0.367-0.974,0.752-1.478,1.096
		c-1.962,1.431-3.931,2.677-5.812,3.845c-7.635,4.538-14.401,7.128-19.208,8.728c-0.596,0.224-1.169,0.398-1.709,0.563
		c-0.563,0.172-0.986,0.345-1.566,0.513c-0.957,0.302-1.772,0.558-2.432,0.766c-0.555,0.188-0.981,0.333-1.268,0.43
		c-0.259,0.098-0.393,0.149-0.393,0.149l-3.21,1.209c-7.812,2.973-13.269,10.632-13.037,19.462
		c0.294,11.179,9.595,20.003,20.774,19.709c0,0,0.364-0.01,1.07-0.028c0.697-0.036,1.719-0.09,2.978-0.206
		c1.262-0.137,2.722-0.308,4.366-0.557c0.752-0.121,1.749-0.314,2.706-0.501c0.98-0.199,2.025-0.4,3.108-0.691
		c4.358-1.064,9.571-2.766,15.179-5.508c5.601-2.737,11.603-6.5,17.396-11.481c1.432-1.267,2.884-2.561,4.264-3.99
		c1.41-1.391,2.79-2.867,4.127-4.421c0.671-0.773,1.306-1.596,1.961-2.402l0.976-1.222c0.347-0.462,0.695-0.926,1.044-1.391
		c0.339-0.471,0.679-0.945,1.021-1.419c0.332-0.469,0.718-0.995,0.89-1.314c0.444-0.734,0.892-1.473,1.342-2.217l0.084-0.14
		l0.042-0.07c0.128-0.168-0.227,0.276,0.298-0.393l0.205-0.35l0.404-0.706l0.059-0.104c1.697,1.878,3.589,4.105,5.581,6.679
		c1.997,2.568,4.051,5.535,6.181,8.832c2.069,3.336,4.229,7.001,6.235,11.075c0.997,2.04,1.984,4.165,2.95,6.374
		c0.235,0.555,0.471,1.114,0.71,1.677l0.359,0.847l0.09,0.213l0.045,0.106c-0.033-0.073,0.137,0.315-0.062-0.138l0.177,0.47
		c0.473,1.257,0.952,2.53,1.437,3.82c0.243,0.645,0.487,1.294,0.733,1.948c0.233,0.64,0.386,1.193,0.586,1.798
		c0.38,1.184,0.765,2.382,1.155,3.594c0.394,1.205,0.722,2.557,1.094,3.848c0.344,1.314,0.751,2.624,1.024,3.984
		c1.302,5.384,2.267,11.06,2.916,16.94c0.567,5.892,0.8,11.981,0.615,18.188c-0.456,12.411-2.872,25.265-7.365,37.489
		c-4.538,12.176-11.27,23.792-20.43,32.798c-4.514,4.544-9.607,8.384-14.947,11.584c-1.354,0.776-2.662,1.606-4.076,2.26
		c-1.386,0.696-2.738,1.431-4.172,2.015l-2.105,0.942c-0.698,0.318-1.437,0.557-2.148,0.843l-2.141,0.835l-0.133,0.053
		c-0.634,0.27,0.719-0.309,0.51-0.226l-0.358,0.123l-0.714,0.251l-1.428,0.502l-2.855,1.004l-1.917,0.482l-1.829,0.505
		c-0.741,0.159-1.484,0.309-2.216,0.49c-0.736,0.169-1.462,0.369-2.2,0.522l-2.229,0.386c-0.743,0.125-1.469,0.322-2.218,0.414
		l-2.241,0.297c-5.966,0.817-12.026,1.044-18.128,0.736c-12.199-0.705-24.436-4.107-35.629-9.415
		c-5.62-2.619-10.963-5.75-16.016-9.17c-2.548-1.683-4.957-3.532-7.349-5.36c-1.163-0.962-2.319-1.917-3.467-2.867
		c-1.143-0.96-2.224-1.983-3.341-2.954c-8.772-7.959-16.104-16.771-22.027-25.584c-1.551-2.163-2.84-4.431-4.218-6.59
		c-1.252-2.183-2.475-4.315-3.668-6.393c-0.613-1.193-1.217-2.371-1.814-3.533c-0.496-1.014-0.994-1.96-1.484-2.995
		c-0.496-1.054-0.984-2.093-1.466-3.117c-0.457-1.036-0.906-2.057-1.349-3.061c-3.414-8.093-5.798-15.456-7.414-21.631
		c-1.581-6.183-2.515-11.158-3.067-14.567c-0.283-1.706-0.458-3.02-0.59-3.906c-0.129-0.888-0.196-1.347-0.196-1.347l-0.085-0.607
		c-0.84-5.773-5.547-10.431-11.611-10.973c-7.092-0.634-13.354,4.601-13.988,11.693c0,0-0.049,0.549-0.144,1.613
		c-0.096,1.065-0.251,2.648-0.335,4.716c-0.222,4.137-0.393,10.237,0.169,18c0.512,7.762,1.785,17.193,4.457,27.786
		c0.352,1.319,0.709,2.66,1.072,4.021c0.396,1.353,0.799,2.727,1.207,4.121c0.433,1.405,0.953,2.903,1.444,4.384
		c0.454,1.307,0.915,2.631,1.381,3.972l0.172,0.489l0.086,0.245l0.2,0.485l0.428,1.082c0.287,0.724,0.576,1.453,0.867,2.186
		c0.594,1.462,1.149,2.966,1.82,4.439c1.361,2.937,2.653,6.004,4.247,9.008c6.097,12.15,14.322,24.682,24.989,36.482
		c10.625,11.818,23.85,22.766,39.411,31.514c7.785,4.36,16.186,8.087,25.075,11.038c8.891,2.943,18.309,4.975,28.02,5.991
		c9.705,1.043,19.739,0.853,29.654-0.699l3.713-0.627c1.237-0.212,2.459-0.525,3.687-0.797l3.669-0.885
		c1.215-0.326,2.418-0.708,3.625-1.065c1.207-0.358,2.405-0.747,3.604-1.127l3.888-1.452l1.935-0.744l0.963-0.382l0.48-0.193
		c0.171-0.067,0.318-0.129,0.416-0.179l2.736-1.294c18.373-8.467,33.729-22.042,44.987-37.326
		c5.644-7.656,10.328-15.736,14.173-23.947c3.826-8.227,6.718-16.637,8.8-25.005c2.089-8.369,3.36-16.701,3.944-24.838
		c0.58-8.137,0.562-16.08-0.054-23.721c-0.592-7.642-1.677-14.985-3.126-21.972c-0.821-3.474-1.56-6.895-2.513-10.189
		c-0.469-1.648-0.868-3.297-1.386-4.894c-0.513-1.596-1.02-3.176-1.522-4.74c-0.474-1.571-1.089-3.077-1.626-4.587
		c-0.016-0.042-0.03-0.083-0.045-0.125l0.366,0.238c11.744-18.037,25.805-29.275,39.593-31.646c5.586-0.96,10.559-0.369,14.83,0.966
		c-2.436,16.156-3.292,32.148-3.572,47.817c-0.13,10.431,0.056,20.901,0.927,31.442l0.322,3.95l0.406,3.959
		c0.246,2.633,0.619,5.285,0.943,7.924c0.755,5.29,1.627,10.575,2.761,15.875c2.196,10.583,5.335,21.193,9.82,31.643
		c2.291,5.219,4.962,10.399,8.093,15.446c3.141,5.038,6.911,9.932,11.224,14.483c4.338,4.531,9.298,8.725,14.881,12.123
		c5.554,3.419,11.631,6.011,17.762,7.714c1.538,0.388,3.073,0.828,4.605,1.125c1.534,0.278,3.065,0.541,4.591,0.788l0.576,0.089
		l0.642,0.065l1.283,0.122l2.56,0.213l1.276,0.091c0.41,0.026,0.913,0.066,1.119,0.054l1.631-0.184l1.626-0.184h0.811
		c-0.112,0,1.629,0.202,1.025,0.185l0.273,0.076l0.546,0.014c1.452-0.095,2.899-0.168,4.342-0.263
		c1.445-0.123,2.914-0.358,4.357-0.554c0.724-0.11,1.444-0.196,2.165-0.328l2.168-0.467l2.153-0.485
		c0.716-0.153,1.427-0.334,2.136-0.564c1.412-0.441,2.819-0.88,4.22-1.317c2.754-1.063,5.498-2.101,8.061-3.484
		c1.298-0.654,2.587-1.308,3.793-2.082c1.217-0.754,2.453-1.477,3.615-2.275c1.134-0.828,2.264-1.653,3.39-2.474
		c1.126-0.821,2.117-1.748,3.163-2.622l1.535-1.332l1.425-1.393c0.931-0.936,1.893-1.853,2.765-2.807
		c1.7-1.93,3.412-3.837,4.854-5.821c3.043-3.916,5.469-7.925,7.657-11.862c4.248-7.908,7.16-15.607,9.376-22.882
		c2.194-7.284,3.748-14.148,4.901-20.576c1.178-6.428,1.894-12.405,2.457-17.913c0.542-5.508,0.88-10.534,1.102-15.065
		C495.32,353.645,495.263,346.62,495.234,341.663z M465.994,327.533c-0.09,4.491,0.006,6.886,0.006,6.886v-0.127
		c0,0-0.244,2.445-0.433,7.028c-0.242,4.265-0.702,10.773-1.618,18.878c-0.91,8.091-2.43,17.867-5.186,28.475
		c-1.388,5.289-3.064,10.8-5.25,16.239c-2.171,5.434-4.83,10.815-8.017,15.668c-1.625,2.374-3.325,4.702-5.211,6.681
		c-0.902,1.064-1.908,1.926-2.863,2.867c-0.489,0.448-1.011,0.823-1.506,1.249L435.168,432l-0.784,0.535
		c-0.527,0.342-1.014,0.772-1.558,1.065c-0.538,0.305-1.069,0.618-1.594,0.942c-0.537,0.298-1.101,0.521-1.64,0.802
		c-0.53,0.301-1.106,0.492-1.671,0.704c-1.1,0.493-2.295,0.767-3.45,1.143c-0.612,0.114-1.219,0.241-1.822,0.381
		c-0.295,0.084-0.609,0.131-0.933,0.157l-0.954,0.119l-0.95,0.138c-0.326,0.029-0.667,0.027-0.999,0.047
		c-0.674,0.017-1.32,0.103-2.013,0.095c-0.643-0.024-1.286-0.037-1.928-0.044l-0.756-0.056l-1.621-0.121l-1.626-0.121
		c-0.34-0.014-0.376-0.057-0.507-0.088l-0.349-0.094c-0.232-0.059-0.465-0.112-0.697-0.157l-0.35-0.063l-0.175-0.028l-0.232-0.066
		c-0.629-0.173-1.259-0.331-1.892-0.476c-0.626-0.162-1.198-0.421-1.805-0.603c-2.362-0.87-4.525-2.021-6.617-3.469
		c-2.095-1.437-4.049-3.36-5.979-5.578c-3.87-4.414-7.305-10.562-10.164-17.579c-1.365-3.569-2.708-7.272-3.811-11.21
		c-1.098-3.938-2.109-7.99-2.949-12.196c-1.717-8.373-2.886-17.196-3.676-26.194c-0.396-4.497-0.651-9.06-0.895-13.636
		c-0.183-4.586-0.305-9.217-0.329-13.83l-0.032-3.69l0.002-3.493c-0.007-2.286,0.025-4.615,0.069-6.957
		c0.084-4.67,0.23-9.289,0.446-13.871c0.513-9.126,1.255-18.094,2.657-26.55c0.648-4.254,1.522-8.32,2.475-12.279
		c1.021-3.904,2.151-7.639,3.468-11.131c2.713-6.884,6.089-12.686,10.154-16.693c2.021-2.047,4.199-3.742,6.606-5.156
		c2.446-1.348,5.15-2.403,8.079-3.214c0.754-0.175,1.507-0.35,2.257-0.524c0.748-0.191,1.572-0.247,2.353-0.388
		c1.548-0.313,3.249-0.34,4.884-0.514l0.309-0.036c0.173-0.005-1-0.022-0.405-0.022h0.203l0.812,0.003l1.621-0.004
		c1.022,0.001,2.355-0.033,2.817,0.04c0.652,0.045,1.305,0.076,1.962,0.092c0.663,0.021,1.471,0.18,2.201,0.25
		c0.752,0.082,1.505,0.16,2.197,0.336c0.712,0.139,1.422,0.278,2.129,0.417c1.323,0.427,2.726,0.703,3.956,1.246
		c1.31,0.413,2.471,1.058,3.688,1.606c1.123,0.704,2.323,1.274,3.371,2.104c4.384,2.969,8.051,7.318,11.196,12.195
		c3.089,4.967,5.488,10.533,7.388,16.133c1.906,5.608,3.33,11.261,4.465,16.687c2.268,10.876,3.329,20.858,3.776,29.105
		c0.229,4.131,0.365,7.843,0.393,11.082C466,322.524,466.004,325.297,465.994,327.533z"/>
</g>
</svg>
