<?xml version="1.0" encoding="iso-8859-1"?>
<!-- Generator: Adobe Illustrator 19.2.0, SVG Export Plug-In . SVG Version: 6.00 Build 0)  -->
<!DOCTYPE svg PUBLIC "-//W3C//DTD SVG 1.1//EN" "http://www.w3.org/Graphics/SVG/1.1/DTD/svg11.dtd">
<svg version="1.1" id="Layer_2" xmlns="http://www.w3.org/2000/svg" xmlns:xlink="http://www.w3.org/1999/xlink" x="0px" y="0px"
	 viewBox="0 0 512 512" enable-background="new 0 0 512 512" xml:space="preserve">
<path fill="#464A4C" d="M452.439,164H371.14c-12.693-28.478-35.647-51.409-64.14-64.074V18.679C307,12.226,301.675,7,295.222,7
	h-78.444C210.325,7,205,12.226,205,18.679v81.247c-28.493,12.664-51.447,35.596-64.14,64.074H59.561
	C53.108,164,48,169.443,48,175.896v78.444c0,6.453,5.108,11.66,11.561,11.66h81.195c12.671,28.587,35.672,51.61,64.243,64.31
	v168.005c0,6.453,5.325,11.686,11.778,11.686h78.444c6.453,0,11.778-5.233,11.778-11.686V330.31
	c28.571-12.699,51.572-35.723,64.243-64.31h81.195c6.453,0,11.561-5.207,11.561-11.66v-78.444C464,169.443,458.892,164,452.439,164z
	 M330.737,176.876l-40.104,26.792l-23.237-23.21l26.794-40.104C309.865,148.394,322.688,161.208,330.737,176.876z M217.795,140.361
	l26.784,40.123l-23.225,23.237l-40.1-26.83C189.302,161.221,202.123,148.404,217.795,140.361z M181.224,253.285l40.143-26.776
	l26.857,26.86c0.188,0.188,0.387,0.358,0.584,0.53c-0.945,0.742-1.809,1.633-2.528,2.71l-23.731,35.529
	C204.697,284.353,190.068,270.541,181.224,253.285z M289.457,292.134l-23.714-35.525c-0.719-1.077-1.594-1.966-2.54-2.709
	c0.198-0.171,0.391-0.34,0.578-0.528l26.854-26.857l40.14,26.77C321.933,270.539,307.306,284.35,289.457,292.134z"/>
</svg>
