<?xml version="1.0" encoding="iso-8859-1"?>
<!-- Generator: Adobe Illustrator 19.2.0, SVG Export Plug-In . SVG Version: 6.00 Build 0)  -->
<!DOCTYPE svg PUBLIC "-//W3C//DTD SVG 1.1//EN" "http://www.w3.org/Graphics/SVG/1.1/DTD/svg11.dtd">
<svg version="1.1" xmlns="http://www.w3.org/2000/svg" xmlns:xlink="http://www.w3.org/1999/xlink" x="0px" y="0px"
	 viewBox="0 0 512 512" enable-background="new 0 0 512 512" xml:space="preserve">
<g id="Layer_4">
	<path fill="#597B91" d="M235.078,92.401H126.453c-6.147,0-11.13-4.983-11.13-11.13s4.983-11.13,11.13-11.13h108.625
		c6.147,0,11.13,4.983,11.13,11.13S241.225,92.401,235.078,92.401z M246.208,154.124c0-6.147-4.983-11.13-11.13-11.13H126.453
		c-6.147,0-11.13,4.983-11.13,11.13s4.983,11.13,11.13,11.13h108.625C241.225,165.254,246.208,160.271,246.208,154.124z
		 M246.208,226.978c0-6.147-4.983-11.13-11.13-11.13H126.453c-6.147,0-11.13,4.983-11.13,11.13s4.983,11.13,11.13,11.13h108.625
		C241.225,238.107,246.208,233.125,246.208,226.978z M340.246,299.831c0-6.146-4.983-11.13-11.13-11.13H126.453
		c-6.147,0-11.13,4.983-11.13,11.13s4.983,11.13,11.13,11.13h202.663C335.263,310.961,340.246,305.978,340.246,299.831z
		 M377.739,226.978c0-6.147-4.983-11.13-11.13-11.13h-74.985c-6.146,0-11.13,4.983-11.13,11.13s4.983,11.13,11.13,11.13h74.985
		C372.756,238.107,377.739,233.125,377.739,226.978z M299.92,372.685c0-6.146-4.983-11.13-11.13-11.13H126.453
		c-6.147,0-11.13,4.983-11.13,11.13s4.983,11.13,11.13,11.13H288.79C294.937,383.814,299.92,378.831,299.92,372.685z
		 M366.13,445.538c0-6.146-4.983-11.13-11.13-11.13H126.453c-6.147,0-11.13,4.983-11.13,11.13s4.983,11.13,11.13,11.13H355
		C361.146,456.668,366.13,451.685,366.13,445.538z"/>
</g>
<g id="Layer_1">
</g>
</svg>
