<?xml version="1.0" encoding="iso-8859-1"?>
<!-- Generator: Adobe Illustrator 19.1.0, SVG Export Plug-In . SVG Version: 6.00 Build 0)  -->
<!DOCTYPE svg PUBLIC "-//W3C//DTD SVG 1.1//EN" "http://www.w3.org/Graphics/SVG/1.1/DTD/svg11.dtd">
<svg version="1.1" xmlns="http://www.w3.org/2000/svg" xmlns:xlink="http://www.w3.org/1999/xlink" x="0px" y="0px"
	 viewBox="0 0 512 512" enable-background="new 0 0 512 512" xml:space="preserve">
<g id="Layer_2">
	<path fill="#597B91" d="M99.692,493.598c-14.635,0-26.499-11.864-26.499-26.499v-70.675c0-10.718,6.457-20.38,16.358-24.481
		c9.903-4.103,21.301-1.833,28.878,5.744c35.461,35.461,82.033,55.848,131.137,57.404c49.314,1.572,95.288-16.394,129.457-50.562
		c10.408-10.409,11.156-20.265-4.431-61.61c-7.87-20.877-16.791-44.54-16.791-69.575c0-25.182,8.99-48.65,16.922-69.357
		c15.484-40.423,14.776-49.575,4.3-60.052c-34.169-34.17-80.154-52.124-129.457-50.563c-49.104,1.557-95.676,21.943-131.137,57.404
		c-7.579,7.579-18.977,9.844-28.878,5.744c-9.901-4.102-16.358-13.764-16.358-24.481V55.352c0-14.635,11.864-26.499,26.499-26.499
		s26.499,11.864,26.499,26.499v1.997c36.544-22.729,78.317-35.573,121.695-36.948c64.145-2.037,123.98,21.429,168.611,66.06
		c17.159,17.158,24.826,38.222,22.79,62.605c-1.552,18.578-8.426,36.523-15.074,53.878c-6.898,18.01-13.414,35.021-13.414,50.399
		c0,15.378,6.501,32.623,13.384,50.881c6.65,17.641,13.527,35.883,15.097,54.663c2.063,24.7-5.602,45.936-22.782,63.116
		c-42.844,42.845-99.748,66.179-160.939,66.181c-2.553,0-5.104-0.04-7.672-0.122c-43.378-1.375-85.151-14.219-121.695-36.948v15.985
		C126.191,481.733,114.327,493.598,99.692,493.598z M262.013,387.771c21.393,0,38.735-17.342,38.735-38.735
		c0-21.393-17.342-38.735-38.735-38.735c-21.393,0-38.735,17.342-38.735,38.735C223.278,370.429,240.62,387.771,262.013,387.771z
		 M123.021,299.96c21.393,0,38.735-17.342,38.735-38.735c0-21.393-17.342-38.735-38.735-38.735s-38.735,17.342-38.735,38.735
		C84.286,282.618,101.628,299.96,123.021,299.96z M262.013,198.162c21.393,0,38.735-17.342,38.735-38.735
		s-17.342-38.735-38.735-38.735c-21.393,0-38.735,17.342-38.735,38.735S240.62,198.162,262.013,198.162z"/>
</g>
<g id="Layer_1">
</g>
</svg>
