<?xml version="1.0" encoding="iso-8859-1"?>
<!-- Generator: Adobe Illustrator 19.2.0, SVG Export Plug-In . SVG Version: 6.00 Build 0)  -->
<!DOCTYPE svg PUBLIC "-//W3C//DTD SVG 1.1//EN" "http://www.w3.org/Graphics/SVG/1.1/DTD/svg11.dtd">
<svg version="1.1" xmlns="http://www.w3.org/2000/svg" xmlns:xlink="http://www.w3.org/1999/xlink" x="0px" y="0px"
	 viewBox="0 0 512 512" enable-background="new 0 0 512 512" xml:space="preserve">
<g id="Layer_5">
	<path fill="#2B3B47" d="M273.369,123.179c-5.217-1.221-10.838-1.89-16.7-1.89c-6.073,0-11.887,0.718-17.261,2.024l0.011-0.017
		c-17.204,0-53.825,4.55-53.825,33.863c0,32.33,0.724,101.777,0.724,101.777l16.474,2.031l2.69,11.03
		c0.031,0.129,0.034,0.264,0.054,0.393c1.526,0.903,3.247,1.76,5.151,2.568L220,392.241v0.001c0,8.155,6.845,14.767,15,14.767
		s15-6.611,15-14.766v0.061L252.697,314c0-8,6.776-8,6.776,0L264,392.303v-0.03c0,8.155,6.345,14.751,14.5,14.751
		c8.155,0,14.5-6.619,14.5-14.774v-0.004l9.48-117.268c0.027-0.011,0.128-0.023,0.154-0.035c0.031-0.195,0.101-0.391,0.159-0.583
		l3.875-12.86l0.216-0.694l13.779-1.816c0,0,3.853-69.392,3.853-101.722C324.518,129.391,291.411,123.673,273.369,123.179z"/>
</g>
<g id="Layer_1">
</g>
</svg>
