<?xml version="1.0" encoding="iso-8859-1"?>
<!-- Generator: Adobe Illustrator 18.1.1, SVG Export Plug-In . SVG Version: 6.00 Build 0)  -->
<!DOCTYPE svg PUBLIC "-//W3C//DTD SVG 1.1//EN" "http://www.w3.org/Graphics/SVG/1.1/DTD/svg11.dtd">
<svg version="1.1" xmlns="http://www.w3.org/2000/svg" xmlns:xlink="http://www.w3.org/1999/xlink" x="0px" y="0px"
	 viewBox="0 0 512 512" enable-background="new 0 0 512 512" xml:space="preserve">
<g id="Layer_6">
	<path fill="#F9F9F7" d="M208.439,68.596v11.629c0,5.065-4.106,9.172-9.172,9.172h-1.558h-22.108h-0.816c-4.865,0-48.751,0-56.704,0
		c-0.327,0-0.616,0-0.816,0H95.157h-1.558c-5.065,0-9.172-4.106-9.172-9.172V68.596c0-0.155,0.016-0.307,0.023-0.46
		c0.007-0.14,0.008-0.282,0.021-0.42c0.018-0.184,0.049-0.363,0.077-0.544c0.021-0.133,0.034-0.267,0.061-0.398
		c0.125-0.621,0.314-1.219,0.558-1.787c0.026-0.06,0.058-0.116,0.085-0.175c0.102-0.224,0.208-0.446,0.327-0.66
		c0.043-0.077,0.092-0.149,0.137-0.225c0.113-0.19,0.228-0.378,0.354-0.559c0.058-0.084,0.122-0.163,0.182-0.244
		c0.122-0.164,0.246-0.326,0.379-0.48c0.075-0.087,0.154-0.17,0.232-0.255c0.129-0.139,0.259-0.276,0.395-0.407
		c0.091-0.087,0.185-0.171,0.28-0.254c0.133-0.117,0.268-0.232,0.408-0.342c0.107-0.084,0.216-0.165,0.326-0.244
		c0.136-0.098,0.275-0.191,0.417-0.282c0.121-0.077,0.244-0.152,0.369-0.224c0.141-0.081,0.285-0.156,0.431-0.229
		c0.132-0.066,0.264-0.132,0.4-0.193c0.15-0.067,0.304-0.125,0.458-0.184c0.137-0.052,0.274-0.106,0.414-0.152
		c0.166-0.054,0.336-0.097,0.505-0.142c0.135-0.035,0.268-0.075,0.406-0.104c0.197-0.042,0.399-0.071,0.601-0.1
		c0.116-0.017,0.229-0.04,0.346-0.053c0.322-0.034,0.649-0.054,0.98-0.054h0.002h105.665h0.001c0.331,0,0.658,0.02,0.98,0.054
		c0.117,0.012,0.231,0.036,0.347,0.053c0.202,0.029,0.403,0.058,0.6,0.1c0.138,0.029,0.271,0.069,0.407,0.105
		c0.169,0.044,0.339,0.088,0.504,0.142c0.141,0.046,0.277,0.099,0.415,0.152c0.154,0.059,0.308,0.117,0.458,0.184
		c0.136,0.06,0.268,0.126,0.4,0.193c0.145,0.073,0.289,0.148,0.43,0.229c0.125,0.072,0.247,0.147,0.369,0.224
		c0.142,0.09,0.281,0.184,0.418,0.282c0.111,0.079,0.22,0.16,0.327,0.244c0.139,0.109,0.274,0.223,0.406,0.341
		c0.095,0.084,0.19,0.168,0.281,0.256c0.136,0.131,0.266,0.267,0.394,0.406c0.078,0.085,0.157,0.168,0.232,0.256
		c0.133,0.155,0.256,0.317,0.379,0.48c0.061,0.081,0.124,0.161,0.182,0.244c0.125,0.18,0.24,0.368,0.353,0.557
		c0.045,0.076,0.095,0.15,0.138,0.227c0.118,0.212,0.223,0.432,0.324,0.654c0.028,0.061,0.061,0.12,0.088,0.182
		c0.244,0.568,0.432,1.166,0.557,1.787c0.027,0.132,0.04,0.267,0.061,0.401c0.028,0.18,0.059,0.358,0.077,0.541
		c0.013,0.14,0.015,0.283,0.021,0.425C208.423,68.292,208.439,68.442,208.439,68.596z M208.416,121.257L208.416,121.257
		c-0.007-0.142-0.008-0.285-0.021-0.425v0c-0.017-0.183-0.049-0.361-0.077-0.541l0-0.001c-0.021-0.133-0.035-0.269-0.061-0.4l0,0
		l0,0c-0.337-1.664-1.134-3.172-2.253-4.386l0,0c-0.085-0.092-0.174-0.18-0.262-0.27c-0.212-0.212-0.434-0.413-0.666-0.603
		c-0.052-0.043-0.102-0.088-0.154-0.129l0,0c-0.351-0.276-0.722-0.526-1.113-0.75l0,0c-0.141-0.081-0.285-0.156-0.43-0.229l0,0
		c-0.132-0.067-0.264-0.132-0.4-0.193h0c-0.15-0.066-0.304-0.125-0.458-0.184l0,0c-0.137-0.052-0.274-0.106-0.414-0.152l0,0
		c-0.165-0.054-0.335-0.097-0.504-0.142l-0.001,0c-0.234-0.061-0.471-0.112-0.712-0.155c-0.098-0.016-0.195-0.035-0.294-0.049
		c-0.001,0-0.001,0-0.002,0c-0.134-0.019-0.267-0.042-0.403-0.056c-0.304-0.031-0.611-0.051-0.922-0.051h-0.001H93.601h-0.002
		c-0.341,0-0.676,0.022-1.008,0.058c-0.107,0.013-0.212,0.033-0.318,0.049c-0.001,0-0.002,0-0.003,0
		c-0.201,0.029-0.402,0.058-0.598,0.1h0c-0.138,0.029-0.271,0.069-0.406,0.104l-0.001,0c-0.169,0.045-0.339,0.088-0.504,0.142h0
		c-0.039,0.013-0.077,0.028-0.115,0.042c-0.257,0.088-0.51,0.184-0.756,0.293c0,0,0,0,0,0c-0.136,0.06-0.268,0.126-0.4,0.193l0,0
		c-0.194,0.097-0.382,0.202-0.568,0.312c-0.077,0.046-0.155,0.092-0.231,0.141l0,0c-0.142,0.09-0.28,0.183-0.417,0.281c0,0,0,0,0,0
		c-0.111,0.079-0.219,0.16-0.326,0.244c0,0-0.001,0.001-0.001,0.001c-0.139,0.109-0.273,0.223-0.406,0.34
		c0,0-0.001,0.001-0.001,0.001c-0.087,0.077-0.173,0.154-0.257,0.234c-0.144,0.138-0.282,0.281-0.418,0.428l0,0.001
		c-0.033,0.036-0.066,0.073-0.099,0.109c-0.179,0.201-0.349,0.41-0.511,0.626l0,0c-0.061,0.081-0.124,0.161-0.182,0.244l0,0
		c-0.146,0.21-0.281,0.428-0.409,0.65c-0.028,0.044-0.056,0.088-0.081,0.134l0,0c-0.118,0.213-0.224,0.434-0.326,0.657
		c0,0.001-0.001,0.002-0.001,0.003c-0.027,0.059-0.059,0.116-0.085,0.175v0c-0.244,0.569-0.432,1.166-0.558,1.787l0,0
		c-0.026,0.131-0.04,0.265-0.061,0.398c0,0.001,0,0.002,0,0.003c-0.072,0.464-0.121,0.936-0.121,1.421v11.629v0
		c0,2.216,0.786,4.249,2.094,5.834c0.187,0.226,0.384,0.444,0.592,0.651c0.622,0.622,1.334,1.156,2.114,1.579
		c1.3,0.706,2.789,1.107,4.372,1.107h1.558h22.108c5.065,0,9.172,4.106,9.172,9.172v69.342c0,5.065,4.106,9.172,9.172,9.172h20.833
		c5.065,0,9.172-4.106,9.172-9.172v-69.342c0-5.065,4.106-9.172,9.172-9.172h0.816h22.108h1.558c5.065,0,9.172-4.106,9.172-9.172
		v-11.629C208.439,121.559,208.423,121.409,208.416,121.257z"/>
</g>
<g id="Layer_1">
</g>
</svg>
