<?xml version="1.0" encoding="utf-8"?>
<!-- Generator: Adobe Illustrator 18.1.0, SVG Export Plug-In . SVG Version: 6.00 Build 0)  -->
<!DOCTYPE svg PUBLIC "-//W3C//DTD SVG 1.1//EN" "http://www.w3.org/Graphics/SVG/1.1/DTD/svg11.dtd">
<svg version="1.1" id="Layer_1" xmlns="http://www.w3.org/2000/svg" xmlns:xlink="http://www.w3.org/1999/xlink" x="0px" y="0px"
	 width="72px" height="72px" viewBox="0 0 72 72" enable-background="new 0 0 72 72" xml:space="preserve">
<path fill="#FFB636" d="M57.7,37.3c-0.3-0.5-1-0.3-1,0.3c0.1,1.6,0,3.4-0.4,5.2c-0.6,3.1-3.7,5.7-6.8,5.4c-3.9-0.3-6.6-3.9-5.8-7.7
	c0.8-3.7,3.9-6.1-3.5-10c-0.5-0.3-1.1,0.2-1,0.7c0.1,0.7,0.2,1.4,0,2.1c-0.6,3-3.8,4.9-6.8,3.8c-1.7-0.6-7.9-1.3-8.9,5.2
	c-0.1,1.3-1.8,4.9-5.4,4.2c-2.4-0.5-4-2.9-3.5-5.3c0.2-1,0.4-2,0.7-2.7c0.1-0.4-0.4-0.7-0.7-0.4c-1.6,1.8-2.8,4-3.3,6.9
	c-1,5-0.5,10,1.4,14.5c5.6,5.3,12.9,8.7,20.9,9.2c10,0.7,19.1-2.9,25.7-9.2c0.3-0.8,0.6-1.6,0.8-2.4C62.2,50.2,61.1,43.1,57.7,37.3z
	"/>
</svg>
