<?xml version="1.0" encoding="iso-8859-1"?>
<!-- Generator: Adobe Illustrator 19.2.0, SVG Export Plug-In . SVG Version: 6.00 Build 0)  -->
<!DOCTYPE svg PUBLIC "-//W3C//DTD SVG 1.1//EN" "http://www.w3.org/Graphics/SVG/1.1/DTD/svg11.dtd">
<svg version="1.1" xmlns="http://www.w3.org/2000/svg" xmlns:xlink="http://www.w3.org/1999/xlink" x="0px" y="0px"
	 viewBox="0 0 512 512" enable-background="new 0 0 512 512" xml:space="preserve">
<g id="Layer_2">
	<path fill="#464A4C" d="M469.908,104.371V81.272c0-3.976,3.224-7.2,7.2-7.2h13.098c3.976,0,7.2-3.224,7.2-7.2V51.188
		c0-19.882-16.118-36-36-36h-29.614H50.594c-19.882,0-36,16.118-36,36v357.174V462c0,19.882,16.118,36,36,36h29.614h381.198
		c19.882,0,36-16.118,36-36V118.771c0-3.976-3.224-7.2-7.2-7.2h-13.098C473.131,111.571,469.908,108.347,469.908,104.371z"/>
</g>
<g id="Layer_3">
	<path fill="#597B91" d="M322.145,109.133V76.509c0-3.209,2.602-5.811,5.811-5.811h68.304c3.209,0,5.811,2.602,5.811,5.811v32.625
		c0,3.209-2.602,5.811-5.811,5.811h-68.304C324.746,114.944,322.145,112.343,322.145,109.133z"/>
</g>
<g id="Layer_4">
	<path fill="#EDEDED" d="M56.225,51.882h305.883v81.879H56.225V51.882z M259.997,180.673c-42.999,0-77.856,34.858-77.856,77.856
		s34.858,77.857,77.856,77.857s77.856-34.858,77.856-77.857S302.996,180.673,259.997,180.673z M282.876,445.992v-51.15
		c0-11.547-9.361-20.908-20.908-20.908h-3.941c-11.547,0-20.908,9.361-20.908,20.908v51.15c0,11.547,9.361,20.908,20.908,20.908
		h3.941C273.515,466.9,282.876,457.539,282.876,445.992z"/>
</g>
<g id="Layer_5">
	<circle fill="#464A4C" cx="259.997" cy="258.529" r="18.643"/>
</g>
</svg>
