<?xml version="1.0" encoding="iso-8859-1"?>
<!-- Generator: Adobe Illustrator 19.2.1, SVG Export Plug-In . SVG Version: 6.00 Build 0)  -->
<!DOCTYPE svg PUBLIC "-//W3C//DTD SVG 1.1//EN" "http://www.w3.org/Graphics/SVG/1.1/DTD/svg11.dtd">
<svg version="1.1" xmlns="http://www.w3.org/2000/svg" xmlns:xlink="http://www.w3.org/1999/xlink" x="0px" y="0px"
	 viewBox="0 0 512 512" enable-background="new 0 0 512 512" xml:space="preserve">
<g id="Layer_7">
	<path fill="#132028" d="M138.542,150.951c1.312,3.451-0.423,7.312-3.873,8.623c-3.451,1.312-7.312-0.423-8.623-3.873
		c-1.312-3.451,0.423-7.312,3.873-8.623C133.37,145.766,137.23,147.5,138.542,150.951z M165.296,133.631
		c-3.451,1.312-5.185,5.172-3.873,8.623c1.312,3.451,5.172,5.185,8.623,3.873c3.451-1.312,5.185-5.172,3.873-8.623
		C172.607,134.053,168.747,132.319,165.296,133.631z M200.673,120.184c-3.451,1.312-5.185,5.172-3.873,8.623
		c1.312,3.451,5.172,5.185,8.623,3.873c3.451-1.312,5.185-5.172,3.873-8.623C207.985,120.607,204.124,118.873,200.673,120.184z
		 M156.388,160.123c-3.451,1.312-5.185,5.172-3.873,8.623c1.312,3.451,5.172,5.185,8.623,3.873s5.185-5.172,3.873-8.623
		C163.699,160.546,159.839,158.811,156.388,160.123z M191.765,146.676c-3.451,1.312-5.185,5.172-3.873,8.623
		c1.312,3.451,5.172,5.185,8.623,3.873c3.451-1.312,5.185-5.172,3.873-8.623C199.077,147.099,195.216,145.365,191.765,146.676z
		 M327.855,424.663c-3.418,1.59-4.432,4.422-2.266,6.324c2.167,1.902,6.694,2.155,10.112,0.565c3.418-1.59,4.432-4.422,2.266-6.324
		C335.8,423.325,331.273,423.072,327.855,424.663z M322.105,443.434c-3.418,1.59-4.432,4.422-2.266,6.324
		c2.167,1.902,6.694,2.155,10.112,0.565c3.418-1.59,4.432-4.422,2.266-6.324S325.523,441.843,322.105,443.434z M357.145,427.129
		c-3.418,1.59-4.432,4.422-2.266,6.324c2.167,1.902,6.694,2.155,10.112,0.565c3.418-1.59,4.432-4.422,2.266-6.324
		S360.563,425.539,357.145,427.129z"/>
</g>
<g id="Layer_1">
</g>
</svg>
