<?xml version="1.0" encoding="iso-8859-1"?>
<!-- Generator: Adobe Illustrator 19.2.0, SVG Export Plug-In . SVG Version: 6.00 Build 0)  -->
<!DOCTYPE svg PUBLIC "-//W3C//DTD SVG 1.1//EN" "http://www.w3.org/Graphics/SVG/1.1/DTD/svg11.dtd">
<svg version="1.1" id="Layer_2" xmlns="http://www.w3.org/2000/svg" xmlns:xlink="http://www.w3.org/1999/xlink" x="0px" y="0px"
	 viewBox="0 0 512 512" enable-background="new 0 0 512 512" xml:space="preserve">
<path fill="#E3E2DD" d="M102.934,177.001L65.044,88.864c-2.256-5.249,3.632-10.256,8.45-7.185l84.635,53.948
	c3.553,2.265,8.259,0.107,8.862-4.063l12.729-88.034c0.792-5.476,8.07-6.842,10.794-2.026l52.698,93.168
	c1.731,3.06,5.763,3.89,8.562,1.763l75.485-57.364c3.857-2.931,9.396-0.124,9.313,4.72l-1.097,63.706
	c-0.072,4.155,4.12,7.036,7.973,5.481l84.094-33.934c4.944-1.995,9.735,3.173,7.373,7.952l-38.975,78.865
	c-1.533,3.103-0.027,6.85,3.228,8.027l69.23,25.047c5.029,1.819,5.128,8.896,0.152,10.855l-81.784,32.211
	c-3.3,1.3-4.672,5.229-2.899,8.3l119.822,207.527c3.019,5.228-2.961,11.017-8.088,7.83L282.902,373.455
	c-3.163-1.966-7.332-0.486-8.548,3.034l-25.589,74.072c-1.446,4.187-6.861,5.274-9.812,1.971l-68.36-76.532
	c-1.982-2.219-5.321-2.579-7.731-0.834l-83.128,60.198c-4.436,3.212-10.444-0.944-9.001-6.228l25.335-92.787
	c0.877-3.21-1.121-6.499-4.374-7.2L15.191,312.64c-5.179-1.118-6.274-8.022-1.695-10.687l52.341-30.464
	c3.136-1.825,3.846-6.049,1.48-8.799l-58.51-68.007c-3.236-3.762-0.564-9.587,4.399-9.587h84.397
	C101.771,185.095,104.58,180.831,102.934,177.001z"/>
</svg>
