<?xml version="1.0" encoding="iso-8859-1"?>
<!-- Generator: Adobe Illustrator 19.2.0, SVG Export Plug-In . SVG Version: 6.00 Build 0)  -->
<!DOCTYPE svg PUBLIC "-//W3C//DTD SVG 1.1//EN" "http://www.w3.org/Graphics/SVG/1.1/DTD/svg11.dtd">
<svg version="1.1" xmlns="http://www.w3.org/2000/svg" xmlns:xlink="http://www.w3.org/1999/xlink" x="0px" y="0px"
	 viewBox="0 0 512 512" enable-background="new 0 0 512 512" xml:space="preserve">
<g id="Layer_6">
	<path fill="#597B91" d="M155.96,305.981c1.233,20.423-4.651,40.66-20.256,56.265c-23.141,23.141-60.66,23.141-83.801,0
		c-11.057-11.057-15.51-26.218-13.359-40.581c0.233-1.556,1.442-2.788,2.994-3.046l114.208-18.947 M35.889,300.433
		c0.226,0,0.454-0.016,0.684-0.048l116.932-16.47c-0.808-3.292-1.834-6.432-3.07-9.378L35.218,290.766
		c-2.656,0.375-4.506,2.831-4.132,5.487C31.428,298.679,33.507,300.433,35.889,300.433z M53.026,268.41
		c0.226,0,0.454-0.016,0.684-0.048l85.692-12.071c-1.001-1.201-2.048-2.376-3.176-3.504c-1.803-1.803-3.683-3.482-5.613-5.067
		l-78.258,11.023c-2.656,0.375-4.506,2.831-4.132,5.487C48.565,266.656,50.644,268.41,53.026,268.41z"/>
</g>
<g id="Layer_1">
</g>
</svg>
