<?xml version="1.0" encoding="iso-8859-1"?>
<!-- Generator: Adobe Illustrator 19.2.0, SVG Export Plug-In . SVG Version: 6.00 Build 0)  -->
<!DOCTYPE svg PUBLIC "-//W3C//DTD SVG 1.1//EN" "http://www.w3.org/Graphics/SVG/1.1/DTD/svg11.dtd">
<svg version="1.1" xmlns="http://www.w3.org/2000/svg" xmlns:xlink="http://www.w3.org/1999/xlink" x="0px" y="0px"
	 viewBox="0 0 512 512" enable-background="new 0 0 512 512" xml:space="preserve">
<g id="Layer_2">
	<path fill="#ADB8BC" d="M486.394,105.201h-40.943c-2.397,0-4.693,0.965-6.37,2.676l-22.641,23.101
		c-1.678,1.712-3.974,2.676-6.37,2.676h-36.721c-2.397,0-4.693-0.965-6.37-2.676l-22.641-23.101
		c-1.678-1.712-3.974-2.676-6.37-2.676H25.606c-12.679,0-22.957,10.278-22.957,22.957v279.086c0,12.679,10.278,22.957,22.957,22.957
		h460.789c12.679,0,22.957-10.278,22.957-22.957V128.158C509.351,115.48,499.073,105.201,486.394,105.201z"/>
</g>
<g id="Layer_3">
	<path fill="#597B91" d="M396.993,430.481H115.007v-42.09c0-7.2,5.837-13.037,13.037-13.037h255.912
		c7.2,0,13.037,5.837,13.037,13.037V430.481z"/>
</g>
<g id="Layer_4">
	<path fill="#132028" d="M366,196.011L150.711,173.52c-5.75-1.212-11.616-1.86-17.726-1.86c-47.487,0-85.937,38.496-85.937,85.983
		s38.519,85.983,86.006,85.983c47.487,0,85.994-38.496,85.994-85.983c0-26.86-12.5-50.837-31.793-66.605L366,209.851V196.011z"/>
</g>
<g id="Layer_5">
	<circle fill="#464A4C" cx="366.367" cy="257.643" r="61.632"/>
</g>
<g id="Layer_6">
	<path fill="#8F9799" d="M160.495,257.643c0,15.143-12.276,27.419-27.419,27.419c-15.143,0-27.419-12.276-27.419-27.419
		c0-15.143,12.276-27.419,27.419-27.419C148.219,230.224,160.495,242.5,160.495,257.643z M366.367,230.224
		c-15.143,0-27.419,12.276-27.419,27.419c0,15.143,12.276,27.419,27.419,27.419s27.419-12.276,27.419-27.419
		C393.785,242.5,381.51,230.224,366.367,230.224z"/>
</g>
</svg>
