<?xml version="1.0" encoding="iso-8859-1"?>
<!-- Generator: Adobe Illustrator 18.1.1, SVG Export Plug-In . SVG Version: 6.00 Build 0)  -->
<!DOCTYPE svg PUBLIC "-//W3C//DTD SVG 1.1//EN" "http://www.w3.org/Graphics/SVG/1.1/DTD/svg11.dtd">
<svg version="1.1" xmlns="http://www.w3.org/2000/svg" xmlns:xlink="http://www.w3.org/1999/xlink" x="0px" y="0px"
	 viewBox="0 0 512 512" enable-background="new 0 0 512 512" xml:space="preserve">
<g id="Layer_2">
	<path fill="#597B91" d="M500.951,39.183c0-15.84-12.96-28.8-28.8-28.8H35.636c-14.256,0-25.92,11.664-25.92,25.92v439.394
		c0,14.256,11.664,25.92,25.92,25.92h436.514c15.84,0,28.8-12.96,28.8-28.8V39.183z"/>
</g>
<g id="Layer_3">
	<path fill="#2B5770" d="M475.031,10.383h-0.149v453.166c0,6.6-5.4,12-12,12H9.716v0.149c0,14.256,11.664,25.92,25.92,25.92h439.394
		c14.256,0,25.92-11.664,25.92-25.92V36.303C500.951,22.047,489.287,10.383,475.031,10.383z"/>
</g>
<g id="Layer_4">
	<path fill="#F9F9F7" d="M408.204,175.117c-12.794-25.457-31.72-47.283-55.387-63.718c-28.711-19.938-62.42-30.476-97.483-30.476
		c-49.565,0-94.268,21.195-125.541,54.99l-0.836-0.836l-34.149-34.149c-8.122-8.122-22.018-3.932-24.296,7.326L39.97,259.184
		c-2.044,10.099,6.871,19.014,16.97,16.97l150.93-30.542c11.258-2.278,15.448-16.174,7.326-24.296l-34.149-34.149l-10.686-10.686
		c20.847-23.432,51.216-38.215,84.973-38.215c23.315,0,45.713,6.997,64.775,20.234c15.112,10.494,27.317,24.277,35.798,40.316
		c3.429,6.485,11.164,9.378,17.993,6.698l26.711-10.481C408.515,191.931,412.017,182.704,408.204,175.117z"/>
</g>
<g id="Layer_5">
	<path fill="#F9F9F7" d="M439.384,257.397l-150.93,30.542c-11.258,2.278-15.448,16.174-7.326,24.296l34.149,34.149l4.393,4.393
		c-5.312,3.656-10.922,6.87-16.771,9.567c-17.208,7.938-36.414,11.437-55.546,10.112c-19.812-1.368-38.987-7.953-55.454-19.042
		c-16.127-10.861-29.291-25.745-38.067-43.043c-1.812-3.573-6.089-5.122-9.768-3.538l-38.786,16.697
		c-3.957,1.703-5.731,6.368-3.847,10.242c0.415,0.854,0.837,1.703,1.264,2.545c13.189,25.993,32.959,48.353,57.174,64.659
		c24.806,16.706,53.691,26.625,83.533,28.687c3.946,0.272,7.892,0.408,11.837,0.408c24.752,0,49.315-5.341,71.678-15.655
		c11.998-5.533,23.333-12.494,33.749-20.645l6.703,6.703l34.149,34.149c8.122,8.122,22.018,3.932,24.296-7.326l30.542-150.93
		C458.397,264.268,449.482,255.354,439.384,257.397z"/>
</g>
</svg>
