<?xml version="1.0" encoding="iso-8859-1"?>
<!-- Generator: Adobe Illustrator 19.2.0, SVG Export Plug-In . SVG Version: 6.00 Build 0)  -->
<!DOCTYPE svg PUBLIC "-//W3C//DTD SVG 1.1//EN" "http://www.w3.org/Graphics/SVG/1.1/DTD/svg11.dtd">
<svg version="1.1" xmlns="http://www.w3.org/2000/svg" xmlns:xlink="http://www.w3.org/1999/xlink" x="0px" y="0px"
	 viewBox="0 0 512 512" enable-background="new 0 0 512 512" xml:space="preserve">
<g id="Layer_2">
	<path fill="#BCBCBC" d="M507.167,162.077c0-59.308-112.452-107.386-251.167-107.386S4.833,102.769,4.833,162.077
		c0,1.85,0.11,3.69,0.326,5.517c-0.202,2.325-0.326,4.672-0.326,7.05c0,44.418,36.008,80.427,80.427,80.427
		c9.631,0,18.865-1.698,27.424-4.803c40.646,12.097,90.039,19.195,143.317,19.195s102.671-7.098,143.317-19.195
		c8.559,3.105,17.793,4.803,27.424,4.803c44.418,0,80.427-36.008,80.427-80.427c0-2.377-0.124-4.725-0.326-7.05
		C507.058,165.767,507.167,163.927,507.167,162.077z"/>
</g>
<g id="Layer_1">
</g>
</svg>
