<?xml version="1.0" encoding="iso-8859-1"?>
<!-- Generator: Adobe Illustrator 19.2.1, SVG Export Plug-In . SVG Version: 6.00 Build 0)  -->
<!DOCTYPE svg PUBLIC "-//W3C//DTD SVG 1.1//EN" "http://www.w3.org/Graphics/SVG/1.1/DTD/svg11.dtd">
<svg version="1.1" id="Layer_2" xmlns="http://www.w3.org/2000/svg" xmlns:xlink="http://www.w3.org/1999/xlink" x="0px" y="0px"
	 viewBox="0 0 512 512" enable-background="new 0 0 512 512" xml:space="preserve">
<path d="M507.58,195.042c-1.814-5.797-7.983-9.028-13.784-7.211l-9.865,3.088c-12.256-5.924-69.997-34.516-116.526-69.161
	C315.383,83.02,266.439,28.558,265.951,28.012c-0.289-0.323-0.951-0.619-0.951-0.9v-4.618c0-6.075-4.926-11-11-11
	c-6.075,0-11,4.925-11,11v4.991c0,0.173-0.316,0.341-0.483,0.528c-0.487,0.545-49.314,54.964-101.395,93.744
	c-45.754,34.069-102.454,62.336-115.908,68.867l-8.877-2.79c-5.8-1.821-11.968,1.403-13.789,7.198
	c-1.82,5.796,1.404,11.97,7.199,13.791l10.651,3.345c8.141,14.667,37.413,68.957,54.983,121.891
	c17.42,52.48,26.431,113.018,28.764,130.184c-0.08,0.24-0.15,0.483-0.213,0.73l-7.275,10.118c-3.546,4.933-2.423,11.807,2.51,15.353
	c1.943,1.397,4.188,2.07,6.412,2.07c3.42,0,6.791-1.591,8.94-4.579l7.572-10.532c17.684-3.449,77.193-14.23,131.981-14.667
	c54.203-0.434,113.342,9.214,131.689,12.47l9.109,12.655c2.149,2.986,5.519,4.575,8.937,4.575c2.227,0,4.473-0.674,6.417-2.073
	c4.931-3.549,6.051-10.424,2.502-15.354l-3.357-4.664c0.109-0.439,0.201-0.885,0.256-1.345c0.087-0.727,8.953-73.385,29.386-134.942
	c18.29-55.104,49.325-111.787,55.894-123.523l5.461-1.709C506.166,207.011,509.395,200.839,507.58,195.042z M354.228,139.402
	c34.872,25.966,74.873,48.181,99.48,60.97l-38.652,12.101c-0.483-0.088-0.963-0.148-1.448-0.171
	c-0.113-0.059-0.217-0.125-0.333-0.18c-0.446-0.212-45.023-21.517-79.95-47.783s-67.804-63.181-68.131-63.551
	c-0.05-0.056-0.195-0.104-0.195-0.159V59.244C284,78.916,317.952,112.39,354.228,139.402z M147.187,306.366
	c-7.795-23.076-18.489-46.063-26.98-62.849l31.982,10.046c4.125,7.459,14.721,27.406,21.3,46.884
	c6.944,20.556,10.664,44.372,11.686,51.538l-20.046,27.88C161.848,360.955,156.04,332.575,147.187,306.366z M194.331,293.405
	c-3.644-10.789-8.325-21.54-12.641-30.576l55.135,17.318l-33.676,46.836C201.076,316.832,198.176,304.789,194.331,293.405z
	 M265,198.251c8,7.565,17.628,16.594,27.971,24.371c9.617,7.233,20.141,13.772,29.138,18.929L265,259.42V198.251z M243,259.052
	l-54.882-17.251c9.091-5.194,19.802-11.831,29.574-19.179c9.212-6.928,18.308-14.849,25.308-21.843V259.052z M254.646,293.05
	l33.635,46.728c-9.655-1.081-20.808-1.944-31.684-1.909c-12.619,0.057-25.586,1.336-36.153,2.749L254.646,293.05z M315.635,293.405
	c-3.932,11.641-6.878,23.977-8.96,34.269l-34.202-47.515l55.881-17.491C324.016,271.738,319.301,282.551,315.635,293.405z
	 M351.587,232.342c-6.37-3.155-27.89-14.169-45.355-27.303c-20.582-15.479-40.054-37.314-40.246-37.531
	c-0.299-0.338-0.986-0.645-0.986-0.937v-33.842c13,13.698,33.651,33.089,55.065,49.193c22.162,16.666,47.376,31.112,64.302,40.154
	L351.587,232.342z M243,169.334c-5,5.569-21.348,22.798-38.511,35.705c-17.85,13.424-40.022,24.683-45.775,27.52l-32.726-10.282
	c16.927-9.027,42.299-23.565,64.624-40.354C210.683,166.829,230,148.849,243,135.373V169.334z M202.268,365.897
	c2.711-0.549,29.867-5.918,54.429-6.029c19.093-0.073,39.841,3.01,49.377,4.626l20.084,27.901
	c-18.565-2.698-45.018-5.705-70.687-5.705c-0.486,0-0.974,0.001-1.459,0.003c-25.696,0.116-52.315,3.325-71.159,6.208
	L202.268,365.897z M344.723,380.532l-20.031-27.829c0.854-6.136,4.589-30.947,11.787-52.257c6.6-19.54,17.296-39.644,21.372-47.011
	l31.952-10.001c-8.498,16.793-19.215,39.818-27.023,62.933C353.823,332.883,347.981,361.628,344.723,380.532z M154.241,139.402
	C190.269,112.575,224,79.374,243,59.65v43.842c-8,9.006-36.123,38.676-65.605,60.847c-34.927,26.266-79.486,47.57-79.932,47.783
	c-0.115,0.055-0.21,0.121-0.322,0.179c-0.773-0.021-1.545,0.04-2.317,0.186L55.341,200.09
	C79.99,187.257,119.626,165.177,154.241,139.402z M50.448,221.606l39.902,12.533c7.042,12.751,24.903,46.434,35.993,79.268
	c13.985,41.402,20.232,90.414,20.294,90.904c0.043,0.347,0.103,0.688,0.177,1.022l-24.193,33.648
	c-4.488-27.516-12.946-71.445-26.359-111.853C82.83,286.66,63.304,246.335,50.448,221.606z M253.898,440.735
	c-42.03,0.336-85.756,6.349-113.319,10.956l23.95-33.309c11.219-2.164,52.065-9.521,89.579-9.689
	c0.446-0.002,0.891-0.003,1.337-0.003c37.777,0,78.703,7.105,88.915,8.994l23.194,32.222
	C339.935,445.735,296.03,440.397,253.898,440.735z M418.134,327.128c-14.375,43.307-23.06,90.659-27.264,117.514l-27.875-38.726
	c0.146-0.521,0.265-1.054,0.334-1.607c0.062-0.489,6.285-49.431,20.294-90.902c11.103-32.873,28.993-66.597,36.018-79.314
	l45.167-14.138C451.976,244.514,431.869,285.747,418.134,327.128z"/>
</svg>
