<?xml version="1.0" encoding="iso-8859-1"?>
<!-- Generator: Adobe Illustrator 18.1.1, SVG Export Plug-In . SVG Version: 6.00 Build 0)  -->
<!DOCTYPE svg PUBLIC "-//W3C//DTD SVG 1.1//EN" "http://www.w3.org/Graphics/SVG/1.1/DTD/svg11.dtd">
<svg version="1.1" xmlns="http://www.w3.org/2000/svg" xmlns:xlink="http://www.w3.org/1999/xlink" x="0px" y="0px"
	 viewBox="0 0 512 512" enable-background="new 0 0 512 512" xml:space="preserve">
<g id="Layer_2">
	<path fill="#A1A6A8" d="M501.462,72.065c-1.463-3.673-6.232-4.622-9.028-1.826l-59.658,59.658c-6.433,6.433-16.864,6.433-23.297,0
		l-27.377-27.377c-6.433-6.433-6.433-16.864,0-23.297l59.656-59.657c2.81-2.81,1.823-7.578-1.87-9.047
		C400.248-5.252,353.3,2.893,321.21,34.965c-34.385,34.365-41.42,85.383-21.074,126.561L158.767,302.895
		c-41.145-20.212-92.276-13.211-126.498,21.011C0.165,356.009-7.982,402.993,7.818,442.654c1.463,3.673,6.232,4.622,9.028,1.826
		l59.658-59.658c6.433-6.433,16.864-6.433,23.297,0l27.377,27.377c6.433,6.433,6.433,16.864,0,23.297l-59.656,59.657
		c-2.81,2.81-1.823,7.578,1.87,9.047c39.642,15.773,86.589,7.627,118.68-24.445c34.385-34.365,41.42-85.383,21.074-126.561
		l141.368-141.368c41.145,20.212,92.276,13.211,126.498-21.011C509.115,158.71,517.262,111.727,501.462,72.065z"/>
</g>
<g id="Layer_1">
</g>
</svg>
