<?xml version="1.0" encoding="iso-8859-1"?>
<!-- Generator: Adobe Illustrator 18.1.1, SVG Export Plug-In . SVG Version: 6.00 Build 0)  -->
<!DOCTYPE svg PUBLIC "-//W3C//DTD SVG 1.1//EN" "http://www.w3.org/Graphics/SVG/1.1/DTD/svg11.dtd">
<svg version="1.1" xmlns="http://www.w3.org/2000/svg" xmlns:xlink="http://www.w3.org/1999/xlink" x="0px" y="0px"
	 viewBox="0 0 512 512" enable-background="new 0 0 512 512" xml:space="preserve">
<g id="Layer_2">
	<path fill="#597B91" d="M349.04,310.31l-42.233-42.233c48.757-65.821,43.309-159.164-16.355-218.828
		c-65.666-65.666-172.132-65.666-237.798,0s-65.666,172.132,0,237.798c59.664,59.664,153.006,65.111,218.828,16.355l42.233,42.233
		c9.755,9.755,25.57,9.755,35.325,0S358.795,320.065,349.04,310.31z"/>
</g>
<g id="Layer_3">
	<circle fill="#B0E9FF" cx="171.553" cy="168.149" r="119.41"/>
</g>
<g id="Layer_4">
	<path fill="#2B3B47" d="M498.406,483.439l-13.285,13.285c-16.793,16.793-44.019,16.793-60.811,0L299.717,372.131
		c-10.993-10.993-10.993-28.815,0-39.808l34.289-34.289c10.993-10.993,28.815-10.993,39.808,0l124.593,124.593
		C515.198,439.42,515.198,466.646,498.406,483.439z"/>
</g>
</svg>
