<?xml version="1.0" encoding="iso-8859-1"?>
<!-- Generator: Adobe Illustrator 19.2.0, SVG Export Plug-In . SVG Version: 6.00 Build 0)  -->
<!DOCTYPE svg PUBLIC "-//W3C//DTD SVG 1.1//EN" "http://www.w3.org/Graphics/SVG/1.1/DTD/svg11.dtd">
<svg version="1.1" xmlns="http://www.w3.org/2000/svg" xmlns:xlink="http://www.w3.org/1999/xlink" x="0px" y="0px"
	 viewBox="0 0 512 512" enable-background="new 0 0 512 512" xml:space="preserve">
<g id="Layer_3">
	<path fill="#FF473E" d="M279.047,441.203c-0.117,0-0.234-0.002-0.353-0.005c-4.373-0.129-8.329-2.626-10.326-6.519L166.973,237.004
		L49.25,379.458c-4.222,5.108-11.786,5.828-16.894,1.605c-5.109-4.222-5.828-11.785-1.606-16.895l129.332-156.501
		c2.571-3.112,6.531-4.726,10.547-4.286c4.013,0.437,7.538,2.861,9.38,6.453l99.766,194.497L468.347,84.379
		c3.365-5.708,10.721-7.611,16.431-4.245c5.71,3.365,7.61,10.721,4.245,16.431L289.384,435.296
		C287.223,438.963,283.286,441.203,279.047,441.203z"/>
</g>
<g id="Layer_1">
</g>
</svg>
