<?xml version="1.0" encoding="iso-8859-1"?>
<!-- Generator: Adobe Illustrator 18.1.1, SVG Export Plug-In . SVG Version: 6.00 Build 0)  -->
<!DOCTYPE svg PUBLIC "-//W3C//DTD SVG 1.1//EN" "http://www.w3.org/Graphics/SVG/1.1/DTD/svg11.dtd">
<svg version="1.1" xmlns="http://www.w3.org/2000/svg" xmlns:xlink="http://www.w3.org/1999/xlink" x="0px" y="0px"
	 viewBox="0 0 512 512" enable-background="new 0 0 512 512" xml:space="preserve">
<g id="Layer_4">
	<path fill="#2B3B47" d="M367.577,332.84l-12.494,14.807c-1.233,1.462-3.41,1.736-4.926,0.57c-7.07-5.433-14.606-8.447-23.648-8.447
		c-18.439,0-31.578,15.047-31.578,50.863c0,34.97,12.927,50.228,32.426,50.228c10.364,0,18.047-4.523,25.583-10.145
		c1.575-1.175,3.796-0.892,5.006,0.657l11.707,14.985c1.149,1.471,1.001,3.592-0.378,4.85c-9.891,9.024-25.054,16.781-43.825,16.781
		c-40.267,0-67.182-26.915-67.182-77.355c0-49.38,28.187-76.931,66.123-76.931c18.333,0,31.281,5.205,42.645,13.963
		C368.655,328.915,368.897,331.275,367.577,332.84z"/>
</g>
<g id="Layer_1">
</g>
</svg>
