<?xml version="1.0" encoding="iso-8859-1"?>
<!-- Generator: Adobe Illustrator 19.2.0, SVG Export Plug-In . SVG Version: 6.00 Build 0)  -->
<!DOCTYPE svg PUBLIC "-//W3C//DTD SVG 1.1//EN" "http://www.w3.org/Graphics/SVG/1.1/DTD/svg11.dtd">
<svg version="1.1" xmlns="http://www.w3.org/2000/svg" xmlns:xlink="http://www.w3.org/1999/xlink" x="0px" y="0px"
	 viewBox="0 0 512 512" enable-background="new 0 0 512 512" xml:space="preserve">
<g id="Layer_2">
	<ellipse fill="#A06C33" cx="256.126" cy="451.974" rx="202.198" ry="54.026"/>
</g>
<g id="Layer_3">
	<path fill="#FFD469" d="M277.67,322.741c0,0-0.118,0.59-0.339,1.697c-0.242,1.093-0.596,2.696-1.048,4.736
		c-0.47,2.028-1.058,4.479-1.772,7.265c-0.716,2.785-1.53,5.922-2.487,9.3c-0.93,3.395-2.009,7.027-3.148,10.868
		c-1.171,3.822-2.408,7.85-3.76,11.97c-1.312,4.146-2.785,8.355-4.24,12.657c-1.516,4.263-3.014,8.622-4.627,12.905
		c-0.796,2.148-1.593,4.297-2.386,6.437c-0.819,2.123-1.635,4.238-2.444,6.336c-1.593,4.213-3.282,8.28-4.866,12.249
		c-3.111,7.975-6.618,15.024-10.114,20.747c-1.747,2.862-3.472,5.405-5.107,7.589c-1.624,2.192-3.173,4.015-4.49,5.491
		c-1.339,1.461-2.454,2.567-3.25,3.299c-0.799,0.729-1.265,1.092-1.265,1.092c-24.479,19.056-59.77,14.659-78.826-9.82
		c-10.992-14.12-14.108-32.117-10.14-48.241c0,0,0.144-0.573,0.49-1.598c0.349-1.023,0.913-2.489,1.711-4.303
		c0.82-1.799,1.865-3.952,3.218-6.321c1.342-2.376,2.975-4.979,4.891-7.73c3.831-5.504,8.871-11.553,14.919-17.611
		c2.995-3.048,6.038-6.231,9.253-9.386c1.595-1.586,3.202-3.184,4.816-4.788c1.64-1.588,3.285-3.181,4.931-4.775
		c3.271-3.201,6.658-6.327,9.95-9.431c3.353-3.065,6.612-6.107,9.879-8.977c3.227-2.897,6.416-5.651,9.443-8.261
		c3.058-2.59,5.948-5.04,8.681-7.258c2.707-2.236,5.251-4.244,7.511-6.02c2.263-1.775,4.27-3.3,5.937-4.547
		c1.686-1.234,3.01-2.204,3.913-2.866c0.924-0.648,1.417-0.993,1.417-0.993c12.608-8.84,29.995-5.785,38.835,6.824
		C277.692,307.743,279.078,315.558,277.67,322.741z"/>
</g>
<g id="Layer_4">
	<path fill="#FFB636" d="M457.664,423.802c-28.418-49.564-64.06-134.453-63.719-248.085c0.178-59.233-37.774-112.245-94.395-129.642
		c-6.547-2.012-12.55-3.533-19.55-4.623V27.403c0-13.242-10.758-23.976-24-23.976s-24,10.734-24,23.976v14.053
		c-65,11.299-114.018,67.829-114.018,135.877c0,112.837-35.411,197.164-63.696,246.49c-6.696,11.678-5.426,23.588,0.968,32.289
		c-0.878-1.786-1.336-3.6-1.336-5.441c0-26.063,90.532-47.191,202.203-47.191s202.201,21.128,202.201,47.191
		c0,1.501-0.313,2.984-0.9,4.449C463.201,446.514,464.112,435.049,457.664,423.802z"/>
</g>
<g id="Layer_5">
	<path fill="#FFD469" d="M323.754,77.527c0,0,0.382,0.252,1.098,0.726c0.358,0.237,0.8,0.529,1.319,0.872
		c0.134,0.089,0.272,0.181,0.416,0.276c0.263,0.19,0.534,0.386,0.815,0.589c0.555,0.414,1.146,0.854,1.769,1.318
		c2.733,2.039,4.756,3.927,7.228,6.366c2.371,2.426,4.834,5.244,7.135,8.368c0.565,0.783,1.143,1.583,1.731,2.398
		c0.594,0.818,1.09,1.648,1.649,2.498c0.536,0.848,1.117,1.716,1.631,2.593c0.504,0.878,1.015,1.768,1.534,2.672
		c0.531,0.907,1.017,1.822,1.482,2.746c0.473,0.927,0.952,1.865,1.436,2.813c0.865,1.884,1.815,3.826,2.61,5.777
		c1.685,3.918,3.113,7.93,4.455,11.995c1.276,4.053,2.471,8.161,3.439,12.234c3.996,16.315,5.655,32.289,6.271,44.424
		c0.147,3.035,0.235,5.83,0.274,8.327c0.038,2.496,0.028,4.701,0.005,6.53c-0.037,1.843-0.072,3.295-0.122,4.32
		c-0.042,1.012-0.064,1.552-0.064,1.552c-0.541,13.177-11.661,23.42-24.838,22.88c-12.921-0.53-23.022-11.234-22.899-24.074
		l0.007-0.641c0,0,0.004-0.376,0.012-1.08c0.017-0.691,0.009-1.758,0-3.12c-0.022-1.377-0.061-3.064-0.146-5.031
		c-0.085-1.966-0.219-4.204-0.405-6.654c-0.389-4.899-1.014-10.647-1.979-16.697c-0.498-3.018-1.043-6.125-1.71-9.217
		c-0.656-3.096-1.39-6.199-2.229-9.209c-0.806-3.037-1.76-5.939-2.72-8.741c-1.005-2.753-2.031-5.408-3.138-7.768
		c-0.527-1.22-1.121-2.286-1.65-3.398c-0.285-0.515-0.567-1.024-0.846-1.527c-0.271-0.514-0.546-1.002-0.834-1.44
		c-0.278-0.455-0.551-0.903-0.821-1.345c-0.269-0.437-0.555-0.803-0.819-1.2c-0.522-0.818-1.059-1.467-1.554-2.109
		c-0.996-1.272-1.909-2.206-2.678-2.953c-0.733-0.662-1.605-1.391-1.47-1.233c-0.017-0.017-0.027-0.039-0.034-0.066l-0.008-0.043
		c-0.137-0.086-0.27-0.169-0.398-0.249c-0.529-0.329-0.978-0.608-1.343-0.835c-0.729-0.453-1.118-0.695-1.118-0.695l-0.02-0.012
		c-11.961-7.438-15.627-23.164-8.189-35.124c7.438-11.96,23.164-15.627,35.124-8.189C323.328,77.251,323.591,77.421,323.754,77.527z
		"/>
</g>
</svg>
