<?xml version="1.0" encoding="iso-8859-1"?>
<!-- Generator: Adobe Illustrator 18.1.1, SVG Export Plug-In . SVG Version: 6.00 Build 0)  -->
<!DOCTYPE svg PUBLIC "-//W3C//DTD SVG 1.1//EN" "http://www.w3.org/Graphics/SVG/1.1/DTD/svg11.dtd">
<svg version="1.1" xmlns="http://www.w3.org/2000/svg" xmlns:xlink="http://www.w3.org/1999/xlink" x="0px" y="0px"
	 viewBox="0 0 512 512" enable-background="new 0 0 512 512" xml:space="preserve">
<g id="Layer_2">
	<path fill="#2B3B47" d="M61.175,317.517c39.42,0,63.792,9.961,63.792,37.513c0,14.098-7.459,22.987-16.891,27.905
		c-2.72,1.418-2.458,5.457,0.421,6.518c12.317,4.537,22.616,13.506,22.616,32.124c0,33.485-27.127,42.81-64.215,42.81H22.812
		c-1.988,0-3.6-1.612-3.6-3.6v-139.67c0-1.988,1.612-3.6,3.6-3.6H61.175z M54.605,345.913v26.709c0,1.988,1.612,3.6,3.6,3.6h8.904
		c14.411,0,22.041-5.51,22.041-17.802c0-11.868-7.841-16.107-24.584-16.107h-6.361C56.217,342.313,54.605,343.925,54.605,345.913z
		 M54.605,435.355c0,1.988,1.612,3.6,3.6,3.6h8.904c16.319,0,27.551-3.391,27.551-19.286c0-14.835-9.961-20.346-25.008-20.346
		H58.205c-1.988,0-3.6,1.612-3.6,3.6V435.355z"/>
</g>
<g id="Layer_1">
</g>
</svg>
