<?xml version="1.0" encoding="iso-8859-1"?>
<!-- Generator: Adobe Illustrator 19.2.0, SVG Export Plug-In . SVG Version: 6.00 Build 0)  -->
<!DOCTYPE svg PUBLIC "-//W3C//DTD SVG 1.1//EN" "http://www.w3.org/Graphics/SVG/1.1/DTD/svg11.dtd">
<svg version="1.1" xmlns="http://www.w3.org/2000/svg" xmlns:xlink="http://www.w3.org/1999/xlink" x="0px" y="0px"
	 viewBox="0 0 512 512" enable-background="new 0 0 512 512" xml:space="preserve">
<g id="Layer_7">
	<path fill="#1C4C5A" d="M460.465,277.475l-37.12-7.512c-2.053-0.416-2.818-2.95-1.336-4.431l9.078-9.078l-27.118-27.118
		l-9.078,9.078c-1.481,1.481-4.016,0.717-4.431-1.336l-7.512-37.12c-0.373-1.842,1.253-3.468,3.095-3.095l37.12,7.512
		c2.053,0.416,2.818,2.95,1.336,4.431l-9.078,9.078l27.118,27.118l9.078-9.078c1.481-1.481,4.016-0.717,4.431,1.336l7.512,37.12
		C463.933,276.221,462.307,277.847,460.465,277.475z M310.814,366.987l-31.647-20.937c-1.746-1.158-4.166,0.094-4.166,2.189V361h-38
		v-12.761c0-2.095-2.42-3.347-4.166-2.189l-31.604,20.937c-1.566,1.039-1.588,3.338-0.022,4.377l31.636,20.937
		c1.746,1.158,4.155-0.094,4.155-2.189V377h38v13.112c0,2.095,2.42,3.347,4.166,2.189l31.604-20.937
		C312.336,370.325,312.38,368.026,310.814,366.987z M123.9,196.861l-37.12,7.512c-2.053,0.416-2.818,2.95-1.336,4.431l9.078,9.078
		l-27.118,27.118l-9.078-9.078c-1.481-1.481-4.016-0.717-4.431,1.336l-7.512,37.12c-0.373,1.842,1.253,3.468,3.095,3.095
		l37.12-7.512c2.053-0.416,2.818-2.95,1.336-4.431l-9.078-9.078l27.118-27.118l9.078,9.078c1.481,1.481,4.016,0.717,4.431-1.336
		l7.512-37.12C127.368,198.115,125.742,196.489,123.9,196.861z"/>
</g>
<g id="Layer_1">
</g>
</svg>
