<?xml version="1.0" encoding="iso-8859-1"?>
<!-- Generator: Adobe Illustrator 18.1.1, SVG Export Plug-In . SVG Version: 6.00 Build 0)  -->
<!DOCTYPE svg PUBLIC "-//W3C//DTD SVG 1.1//EN" "http://www.w3.org/Graphics/SVG/1.1/DTD/svg11.dtd">
<svg version="1.1" xmlns="http://www.w3.org/2000/svg" xmlns:xlink="http://www.w3.org/1999/xlink" x="0px" y="0px"
	 viewBox="0 0 512 512" enable-background="new 0 0 512 512" xml:space="preserve">
<g id="Layer_2">
	<path fill="#2B3B47" d="M199.943,378.54h-39.699c-4.118,0-7.457-3.339-7.457-7.457V209.745c0-5.813-6.356-9.391-11.325-6.375
		l-33.26,20.185c-3.442,2.089-7.921,1.068-10.118-2.307l-16.01-24.596c-2.299-3.532-1.217-8.265,2.388-10.447l71.447-43.244
		c1.165-0.705,2.5-1.078,3.861-1.078h40.174c4.118,0,7.457,3.339,7.457,7.457v221.743C207.4,375.201,204.062,378.54,199.943,378.54z
		"/>
</g>
<g id="Layer_3">
	<path fill="#2B3B47" d="M419.897,197.897c0,17.335-8.42,33.904-27.221,47.094c-4.393,3.082-4.137,9.684,0.459,12.453
		c24.617,14.832,36.215,33.368,36.215,57.03c0,38.16-33.957,70.016-93.122,70.016c-57.064,0-90.322-31.157-90.322-68.966
		c0-24.072,12.154-41.419,32.907-53.376c4.529-2.61,4.952-9.021,0.844-12.254c-17.428-13.716-24.298-30.693-24.298-49.198
		c0-38.159,34.658-63.715,82.269-63.715C385.239,136.983,419.897,159.038,419.897,197.897z M328.682,273.282
		c-2.141-0.756-4.53-0.525-6.437,0.708c-13.645,8.817-20.326,22.105-20.326,38.735c0,19.254,14.004,31.507,36.059,31.507
		c23.455,0,35.358-13.303,35.358-30.107c0-19.255-10.152-28.006-36.059-37.809L328.682,273.282z M341.644,235.766
		c2.385,0.867,5.05,0.456,7.074-1.076c13.364-10.111,17.267-20.701,17.267-33.993c0-15.403-9.452-25.906-28.006-25.906
		c-17.154,0-28.707,8.752-28.707,26.607c0,16.104,9.452,25.206,28.356,32.908L341.644,235.766z"/>
</g>
<g id="Layer_4">
	<path fill="#FF473E" d="M255.107,1.894C114.768,1.894,1.001,115.661,1.001,256s113.767,254.106,254.106,254.106
		S509.213,396.339,509.213,256S395.446,1.894,255.107,1.894z M105.832,405.274C65.96,365.402,44.001,312.388,44.001,256
		c0-49.613,17.006-96.609,48.249-134.345l297.202,297.202c-37.736,31.243-84.732,48.249-134.345,48.249
		C198.718,467.106,145.705,445.147,105.832,405.274z M419.663,388.256L122.85,91.444c37.375-30.156,83.553-46.55,132.257-46.55
		c56.388,0,109.402,21.959,149.274,61.831c39.873,39.872,61.831,92.886,61.831,149.274
		C466.213,304.703,449.819,350.881,419.663,388.256z"/>
</g>
</svg>
