<?xml version="1.0" encoding="iso-8859-1"?>
<!-- Generator: Adobe Illustrator 18.1.1, SVG Export Plug-In . SVG Version: 6.00 Build 0)  -->
<!DOCTYPE svg PUBLIC "-//W3C//DTD SVG 1.1//EN" "http://www.w3.org/Graphics/SVG/1.1/DTD/svg11.dtd">
<svg version="1.1" xmlns="http://www.w3.org/2000/svg" xmlns:xlink="http://www.w3.org/1999/xlink" x="0px" y="0px"
	 viewBox="0 0 512 512" enable-background="new 0 0 512 512" xml:space="preserve">
<g id="Layer_4">
	<path fill="#778A91" d="M346.775,192.948c0,0-0.053,0.321-0.153,0.923c-0.05,0.301-0.111,0.672-0.184,1.108
		c-0.096,0.636-0.206,1.367-0.329,2.185c-0.066,0.405-0.137,0.832-0.21,1.28c-0.08,0.384-0.163,0.786-0.25,1.205
		c-0.173,0.839-0.362,1.744-0.595,2.662c-0.445,1.87-0.99,3.907-1.646,6.056c-0.64,2.165-1.404,4.424-2.244,6.779
		c-0.843,2.352-1.785,4.779-2.806,7.25c-2.056,4.936-4.417,10.048-7.04,15.029c-2.618,4.984-5.446,9.85-8.413,14.309
		c-1.459,2.231-2.998,4.358-4.488,6.352c-1.543,1.993-3.026,3.85-4.565,5.537c-1.49,1.687-3.031,3.205-4.454,4.519
		c-0.728,0.658-1.465,1.264-2.117,1.816c-0.721,0.542-1.383,1.04-1.981,1.49c-1.311,0.879-2.339,1.532-3.183,1.95
		c-0.799,0.413-1.225,0.633-1.225,0.633c-3.812,1.968-8.499,0.473-10.467-3.339c-1.478-2.863-1.003-6.218,0.939-8.545l1.521-1.815
		c0,0,0.112-0.134,0.322-0.385c0.199-0.197,0.543-0.668,0.977-1.215c0.223-0.322,0.471-0.677,0.74-1.065
		c0.269-0.435,0.56-0.906,0.87-1.41c0.611-1.076,1.297-2.319,1.983-3.826c0.703-1.462,1.393-3.188,2.098-5.007
		c0.679-1.866,1.375-3.84,2.007-5.964c1.295-4.212,2.427-8.873,3.353-13.563c0.933-4.689,1.616-9.432,2.08-13.82
		c0.226-2.195,0.395-4.304,0.5-6.277c0.102-1.97,0.167-3.816,0.153-5.464c0.006-1.658-0.048-3.13-0.133-4.379
		c-0.028-0.639-0.088-1.197-0.141-1.712c-0.025-0.257-0.049-0.504-0.072-0.74c-0.028-0.212-0.07-0.337-0.099-0.496
		c-0.064-0.312-0.113-0.529-0.158-0.819c-0.054-0.439-0.1-0.812-0.137-1.115c-0.075-0.605-0.114-0.928-0.114-0.928l-0.003-0.028
		c-1.352-10.986,6.457-20.988,17.443-22.34c10.986-1.352,20.988,6.457,22.34,17.443
		C347.131,189.143,347.067,191.128,346.775,192.948z"/>
</g>
<g id="Layer_1">
</g>
</svg>
