<?xml version="1.0" encoding="iso-8859-1"?>
<!-- Generator: Adobe Illustrator 19.2.0, SVG Export Plug-In . SVG Version: 6.00 Build 0)  -->
<!DOCTYPE svg PUBLIC "-//W3C//DTD SVG 1.1//EN" "http://www.w3.org/Graphics/SVG/1.1/DTD/svg11.dtd">
<svg version="1.1" xmlns="http://www.w3.org/2000/svg" xmlns:xlink="http://www.w3.org/1999/xlink" x="0px" y="0px"
	 viewBox="0 0 512 512" enable-background="new 0 0 512 512" xml:space="preserve">
<g id="Layer_2">
	<path fill="#445056" d="M414.284,102.919c-18.72-21.553-51.368-23.849-72.921-5.129c0,0-1.078,0.936-3.061,2.728
		c-1.973,1.802-4.88,4.432-8.481,7.878c-3.638,3.409-7.95,7.654-12.905,12.515c-4.932,4.883-10.416,10.473-16.342,16.627
		c-4.558,4.714-9.334,9.809-14.322,15.167c-7.524,4.841-13.766,11.5-18.088,19.368c-2.497,2.645-5.021,5.308-7.601,8.003
		c-7.401,7.699-15.05,15.655-22.821,23.739c-7.787,8.068-15.723,16.24-23.535,24.536c-7.814,8.293-15.565,16.65-22.983,25.087
		c-7.463,8.392-14.618,16.842-21.398,25.162c-6.782,8.318-13.193,16.505-19.169,24.371c-2.982,3.939-5.889,7.764-8.61,11.556
		c-2.695,3.817-5.187,7.618-7.472,11.372c-4.544,7.537-8.279,14.875-11.209,21.761c-2.947,6.868-5.133,13.239-6.691,18.728
		c-6.877,17.521,11.299,30.555,29.013,29.013c5.489-1.558,11.86-3.744,18.728-6.691c6.885-2.93,14.224-6.665,21.76-11.209
		c3.755-2.286,7.555-4.777,11.372-7.472c3.791-2.721,7.617-5.628,11.556-8.61c7.866-5.976,16.052-12.387,24.371-19.169
		c8.32-6.781,16.769-13.935,25.162-21.398c8.437-7.418,16.794-15.169,25.087-22.983c8.296-7.812,16.467-15.747,24.536-23.535
		c8.084-7.772,16.04-15.42,23.739-22.821c1.514-1.449,3.015-2.875,4.514-4.298c11.46-4.944,20.846-13.766,26.525-24.812
		c4.021-3.759,7.874-7.396,11.5-10.901c6.155-5.926,11.744-11.41,16.627-16.342c4.861-4.954,9.106-9.267,12.515-12.905
		c3.446-3.601,6.076-6.508,7.878-8.481c1.792-1.983,2.728-3.061,2.728-3.061C430.936,151.581,431.392,122.615,414.284,102.919z"/>
</g>
<g id="Layer_3">
	<path fill="#B9C5C6" d="M35.468,400.194l-20.879,81.278c-0.488,1.901,1.844,3.231,3.231,1.843l50.025-50.025
		c2.292-2.292,3.222-5.583,2.574-8.76c-1.525-7.472,0.89-15.587,7.249-21.017c8.137-6.947,20.341-6.886,28.415,0.134
		c9.653,8.394,10.035,23.043,1.146,31.932c-5.438,5.438-13.032,7.404-20.03,5.902c-3.093-0.664-6.307,0.384-8.544,2.621
		l-50.024,50.024c-1.388,1.388-0.057,3.719,1.843,3.231l81.278-20.879c1.203-0.309,2.234-1.085,2.864-2.155l56.749-87.607
		c0,0-9.871-20.844-19.823-30.796c-9.952-9.952-26.313-15.339-26.313-15.339L37.624,397.33
		C36.553,397.96,35.777,398.991,35.468,400.194z"/>
</g>
<g id="Layer_4">
	<path fill="#B9C5C6" d="M490.215,21.878L490.215,21.878c-27.713-27.713-72.644-27.713-100.356,0l-109.6,109.6
		c-0.526,0.526-1.001,1.081-1.451,1.651c-14.954,13.049-24.452,32.195-24.608,53.567c2.137-2.223,4.262-4.434,6.363-6.619
		c2.58-2.695,5.104-5.359,7.601-8.003c3.167-5.766,7.374-10.874,12.352-15.101c0.226-0.192,0.454-0.383,0.683-0.571
		c0.697-0.572,1.404-1.131,2.129-1.669c0.068-0.051,0.134-0.105,0.203-0.155c0.819-0.601,1.659-1.174,2.513-1.729
		c8.409-5.471,18.436-8.663,29.216-8.663c29.659,0,53.702,24.043,53.702,53.702c0,8.976-2.217,17.427-6.114,24.861
		c-0.24,0.459-0.486,0.913-0.739,1.364c-0.139,0.248-0.282,0.495-0.425,0.741c-0.239,0.411-0.483,0.818-0.732,1.222
		c-0.172,0.279-0.348,0.555-0.526,0.83c-0.234,0.363-0.471,0.725-0.713,1.082c-0.208,0.307-0.421,0.61-0.635,0.912
		c-0.225,0.317-0.452,0.633-0.683,0.945c-0.246,0.331-0.497,0.658-0.75,0.984c-0.215,0.276-0.43,0.552-0.65,0.823
		c-0.281,0.347-0.569,0.689-0.858,1.029c-5.307,6.232-12.003,11.243-19.624,14.531c-1.499,1.423-3,2.849-4.514,4.298
		c-2.554,2.455-5.144,4.945-7.75,7.45c0.572,0.013,1.141,0.043,1.716,0.043c25.218,0,47.374-13.019,60.17-32.69l104.081-104.08
		C517.927,94.522,517.927,49.591,490.215,21.878z"/>
</g>
</svg>
