<?xml version="1.0" encoding="iso-8859-1"?>
<!-- Generator: Adobe Illustrator 19.2.0, SVG Export Plug-In . SVG Version: 6.00 Build 0)  -->
<!DOCTYPE svg PUBLIC "-//W3C//DTD SVG 1.1//EN" "http://www.w3.org/Graphics/SVG/1.1/DTD/svg11.dtd">
<svg version="1.1" xmlns="http://www.w3.org/2000/svg" xmlns:xlink="http://www.w3.org/1999/xlink" x="0px" y="0px"
	 viewBox="0 0 512 512" enable-background="new 0 0 512 512" xml:space="preserve">
<g id="Layer_2">
	<path fill="#464A4C" d="M469.908,104.371V81.272c0-3.976,3.224-7.2,7.2-7.2h13.098c3.976,0,7.2-3.224,7.2-7.2V51.188
		c0-19.882-16.118-36-36-36h-29.614H50.594c-19.882,0-36,16.118-36,36v357.174V462c0,19.882,16.118,36,36,36h29.614h381.198
		c19.882,0,36-16.118,36-36V118.771c0-3.976-3.224-7.2-7.2-7.2h-13.098C473.131,111.571,469.908,108.347,469.908,104.371z"/>
</g>
<g id="Layer_1">
</g>
</svg>
