<?xml version="1.0" encoding="iso-8859-1"?>
<!-- Generator: Adobe Illustrator 19.2.0, SVG Export Plug-In . SVG Version: 6.00 Build 0)  -->
<!DOCTYPE svg PUBLIC "-//W3C//DTD SVG 1.1//EN" "http://www.w3.org/Graphics/SVG/1.1/DTD/svg11.dtd">
<svg version="1.1" xmlns="http://www.w3.org/2000/svg" xmlns:xlink="http://www.w3.org/1999/xlink" x="0px" y="0px"
	 viewBox="0 0 512 512" enable-background="new 0 0 512 512" xml:space="preserve">
<g id="Layer_2">
	<path fill="#DCE2E2" d="M478.685,36H32c-2.485,0-4.5,2.015-4.5,4.5S29.515,45,32,45h107v101H32c-2.485,0-4.5,2.015-4.5,4.5
		s2.015,4.5,4.5,4.5h107v102H32c-2.485,0-4.5,2.015-4.5,4.5s2.015,4.5,4.5,4.5h107v101H32c-2.485,0-4.5,2.015-4.5,4.5
		s2.015,4.5,4.5,4.5h107v110.685c0,2.485,2.015,4.5,4.5,4.5s4.5-2.015,4.5-4.5V376h103v110.685c0,2.485,2.015,4.5,4.5,4.5
		c2.485,0,4.5-2.015,4.5-4.5V376h103v110.685c0,2.485,2.015,4.5,4.5,4.5s4.5-2.015,4.5-4.5V376h102v110.685
		c0,2.485,2.015,4.5,4.5,4.5s4.5-2.015,4.5-4.5V40C483,37.515,481.17,36,478.685,36z M363,146H260V45h103V146z M372,45h102v101H372
		V45z M363,155v102H260V155H363z M372,155h102v102H372V155z M148,45h103v101H148V45z M148,155h103v102H148V155z M148,367V266h103
		v101H148z M260,367V266h103v101H260z M372,367V266h102v101H372z"/>
</g>
<g id="Layer_3">
	<path fill="#FF473E" d="M279.047,441.203c-0.117,0-0.234-0.002-0.353-0.005c-4.373-0.129-8.329-2.626-10.326-6.519L166.973,237.004
		L49.25,379.458c-4.222,5.108-11.786,5.828-16.894,1.605c-5.109-4.222-5.828-11.785-1.606-16.895l129.332-156.501
		c2.571-3.112,6.531-4.726,10.547-4.286c4.013,0.437,7.538,2.861,9.38,6.453l99.766,194.497L468.347,84.379
		c3.365-5.708,10.721-7.611,16.431-4.245c5.71,3.365,7.61,10.721,4.245,16.431L289.384,435.296
		C287.223,438.963,283.286,441.203,279.047,441.203z"/>
</g>
<g id="Layer_4">
	<path fill="#B9C5C6" d="M478.685,489.418H32c-3.866,0-7-3.134-7-7V40c0-3.866,3.134-7,7-7s7,3.134,7,7v435.418h439.685
		c3.866,0,7,3.134,7,7S482.551,489.418,478.685,489.418z"/>
</g>
</svg>
