<?xml version="1.0" encoding="iso-8859-1"?>
<!-- Generator: Adobe Illustrator 19.1.0, SVG Export Plug-In . SVG Version: 6.00 Build 0)  -->
<!DOCTYPE svg PUBLIC "-//W3C//DTD SVG 1.1//EN" "http://www.w3.org/Graphics/SVG/1.1/DTD/svg11.dtd">
<svg version="1.1" xmlns="http://www.w3.org/2000/svg" xmlns:xlink="http://www.w3.org/1999/xlink" x="0px" y="0px"
	 viewBox="0 0 512 512" enable-background="new 0 0 512 512" xml:space="preserve">
<g id="Layer_2">
	<path fill="#FFC145" d="M503.73,144.318c-8.358-8.358-21.908-8.358-30.266,0c-2.14,2.14-3.724,4.624-4.768,7.271
		c-7.717-1.332-14.954-4.996-20.641-10.683c-14.092-14.093-14.923-36.497-2.5-51.574c6.216,0.668,12.667-1.37,17.432-6.135
		c8.358-8.358,8.358-21.908,0-30.266c-8.358-8.358-21.908-8.358-30.266,0c-5.054,5.054-7.03,12.004-5.972,18.559
		c-6.768,5.39-15.093,8.324-23.873,8.324c-10.262,0-19.91-3.997-27.167-11.253c-8.212-8.212-12.212-19.654-11.035-31.117
		c0.338-0.298,0.682-0.586,1.006-0.909c8.358-8.358,8.358-21.908,0-30.266c-8.358-8.358-21.908-8.358-30.266,0
		c-8.358,8.358-8.358,21.908,0,30.266c1.394,1.394,2.942,2.534,4.576,3.463c-0.312,14.233,4.211,28.174,12.852,39.514
		c-43.976-6.317-98.849,2.534-133.594,37.28c-25.299,25.299-25.484,65.939-0.276,91.329c13.875,13.975,27.706,20.358,39.371,22.964
		l-30.147,30.147l-10.527-10.527c-5.057-5.056-13.254-5.056-18.312,0c-4.023,4.023-4.834,10.03-2.455,14.866
		c-4.836-2.379-10.843-1.568-14.867,2.456c-4.023,4.023-4.834,10.031-2.455,14.867c-4.836-2.379-10.844-1.568-14.867,2.455
		c-5.057,5.057-5.057,13.255,0,18.311l10.527,10.527L25.871,463.556c-7.702,7.701-7.702,20.189,0,27.891
		c3.851,3.852,8.898,5.777,13.946,5.777s10.095-1.926,13.946-5.777l13.748-13.748l23.927,23.927c2.695,2.695,6.228,4.043,9.76,4.043
		s7.065-1.348,9.761-4.043c5.391-5.391,5.39-14.131,0-19.521l-23.927-23.927l14.434-14.434l14.819,14.819
		c2.695,2.695,6.228,4.043,9.76,4.043s7.065-1.348,9.761-4.043c5.391-5.391,5.39-14.131,0-19.521l-14.818-14.818l12.366-12.366
		l23.927,23.927c2.695,2.695,6.228,4.043,9.761,4.043s7.065-1.348,9.761-4.043c5.391-5.391,5.391-14.131,0-19.521l-23.927-23.927
		l50.259-50.259l9.13,9.13c2.528,2.528,5.842,3.793,9.156,3.793s6.627-1.265,9.156-3.793c4.023-4.023,4.834-10.03,2.456-14.865
		c1.796,0.883,3.751,1.337,5.71,1.337c3.313,0,6.627-1.265,9.156-3.793c4.023-4.022,4.834-10.029,2.455-14.865
		c1.797,0.884,3.752,1.337,5.711,1.337c3.313,0,6.627-1.265,9.156-3.793c5.057-5.056,5.057-13.254,0-18.311l-9.13-9.13
		l30.897-30.897c2.201,11.861,8.558,26.466,23.87,41.778c25.296,25.296,66.31,25.296,91.606,0c0.734-0.734,1.441-1.484,2.132-2.243
		c0.545-0.479,1.093-0.983,1.646-1.535c30.796-30.796,38.186-87.068,31.113-132.27c10.928,8.244,24.234,12.694,37.886,12.693
		c0.213,0,0.427-0.012,0.641-0.015c8.378,6.216,20.255,5.549,27.853-2.048C512.088,166.226,512.088,152.676,503.73,144.318z
		 M412.782,104.186c-0.191-0.191-0.396-0.377-0.592-0.566c0.34-0.05,0.675-0.119,1.014-0.175c-0.055,0.335-0.12,0.669-0.169,1.005
		C412.95,104.365,412.868,104.271,412.782,104.186z"/>
</g>
<g id="Layer_1">
</g>
</svg>
