<?xml version="1.0" encoding="iso-8859-1"?>
<!-- Generator: Adobe Illustrator 19.1.0, SVG Export Plug-In . SVG Version: 6.00 Build 0)  -->
<!DOCTYPE svg PUBLIC "-//W3C//DTD SVG 1.1//EN" "http://www.w3.org/Graphics/SVG/1.1/DTD/svg11.dtd">
<svg version="1.1" xmlns="http://www.w3.org/2000/svg" xmlns:xlink="http://www.w3.org/1999/xlink" x="0px" y="0px"
	 viewBox="0 0 511.92 512.062" enable-background="new 0 0 511.92 512.062" xml:space="preserve">
<g id="Layer_3">
	<path fill="#E0E0E0" d="M234.682,205.269c0,3.015,1.198,5.906,3.33,8.038v0c1.433,3.875,7.175,2.848,7.175-1.284l11.88-59.796
		c2.939-20.022,16.628-34.495,36.597-31.217l0,0c19.496,3.2,32.827,21.439,29.958,40.987c0,0-1.521,19.306-3.535,68.842
		s54.042,166.149,19.43,206.328c-15.604,18.113-27.558,23.787-27.558,37.566v0c0,18.136-12.146,26.214-29.734,30.64
		c-6.002,1.511-13.132,2.458-21.577,2.458c-41.609,0-47.848-18.759-47.848-18.759l-51.61-158.491c0,0-7.637-8.656-7.637-39.407
		c0-103.455,24.852-266.495,24.852-266.495c0-10.865,1.802-19.672,12.666-19.672h2.433c27.671,0,41.179,34.664,41.179,63.836
		c0,55.28-2.573,64.784-2.573,90.939L234.682,205.269z"/>
</g>
<g id="Layer_1">
</g>
</svg>
