<?xml version="1.0" encoding="iso-8859-1"?>
<!-- Generator: Adobe Illustrator 19.1.0, SVG Export Plug-In . SVG Version: 6.00 Build 0)  -->
<!DOCTYPE svg PUBLIC "-//W3C//DTD SVG 1.1//EN" "http://www.w3.org/Graphics/SVG/1.1/DTD/svg11.dtd">
<svg version="1.1" xmlns="http://www.w3.org/2000/svg" xmlns:xlink="http://www.w3.org/1999/xlink" x="0px" y="0px"
	 viewBox="0 0 512 512" enable-background="new 0 0 512 512" xml:space="preserve">
<g id="Layer_10">
	<path fill="#C5CFD1" d="M141.636,187.545v229.439c0,10.931-8.861,19.792-19.792,19.792H98.772
		c-10.931,0-19.792-8.861-19.792-19.792V314.805H9.842c-4.883,0-8.842-3.958-8.842-8.841v-33.697c0-4.883,3.958-8.842,8.842-8.842
		H78.98V213.88c0-19.159,15.531-34.69,34.69-34.69h19.612C137.896,179.19,141.636,182.931,141.636,187.545z M453.317,215.739H379.46
		c-0.25-20.227-16.715-36.549-37.001-36.549h-16.729c-4.923,0-8.914,3.991-8.914,8.914v230.584
		c0,29.681,24.061,53.742,53.742,53.742h0c4.923,0,8.914-3.991,8.914-8.914v-52.847h73.846c4.344,0,7.865-3.521,7.865-7.865v-179.2
		C461.182,219.261,457.661,215.739,453.317,215.739z"/>
</g>
<g id="Layer_1">
</g>
</svg>
