<?xml version="1.0" encoding="iso-8859-1"?>
<!-- Generator: Adobe Illustrator 19.2.0, SVG Export Plug-In . SVG Version: 6.00 Build 0)  -->
<!DOCTYPE svg PUBLIC "-//W3C//DTD SVG 1.1//EN" "http://www.w3.org/Graphics/SVG/1.1/DTD/svg11.dtd">
<svg version="1.1" xmlns="http://www.w3.org/2000/svg" xmlns:xlink="http://www.w3.org/1999/xlink" x="0px" y="0px"
	 viewBox="0 0 512 512" enable-background="new 0 0 512 512" xml:space="preserve">
<g id="Layer_2">
	<path fill="#ADB8BC" d="M272.824,179.132h-33.648v-56.141h33.648V179.132z M433.155,448.207h-33.648v56.141h33.648V448.207z
		 M112.493,448.207H78.845v56.141h33.648V448.207z"/>
</g>
<g id="Layer_3">
	<path fill="#C5CFD1" d="M183.85,167.182h144.3c4.79,0,8.674,3.883,8.674,8.674v3.062c0,4.79-3.883,8.674-8.674,8.674h-144.3
		c-4.79,0-8.674-3.883-8.674-8.674v-3.062C175.176,171.065,179.06,167.182,183.85,167.182z M160.331,5.982V145.08
		c0,3.304,2.678,5.982,5.982,5.982h179.374c3.304,0,5.982-2.678,5.982-5.982V5.982c0-3.304-2.678-5.982-5.982-5.982H166.313
		C163.009,0,160.331,2.678,160.331,5.982z M335.507,501.071v3.062c0,4.79,3.883,8.674,8.674,8.674h144.3
		c4.79,0,8.674-3.883,8.674-8.674v-3.062c0-4.79-3.883-8.674-8.674-8.674h-144.3C339.391,492.397,335.507,496.28,335.507,501.071z
		 M320.662,331.197v139.098c0,3.304,2.678,5.982,5.982,5.982h179.374c3.304,0,5.982-2.678,5.982-5.982V331.197
		c0-3.304-2.678-5.982-5.982-5.982H326.644C323.34,325.215,320.662,327.893,320.662,331.197z M14.845,501.071v3.062
		c0,4.79,3.883,8.674,8.674,8.674h144.3c4.79,0,8.674-3.883,8.674-8.674v-3.062c0-4.79-3.883-8.674-8.674-8.674h-144.3
		C18.729,492.397,14.845,496.28,14.845,501.071z M0,331.197v139.098c0,3.304,2.678,5.982,5.982,5.982h179.374
		c3.304,0,5.982-2.678,5.982-5.982V331.197c0-3.304-2.678-5.982-5.982-5.982H5.982C2.678,325.215,0,327.893,0,331.197z"/>
</g>
<g id="Layer_4">
	<path fill="#00B1FF" d="M183.735,19.021h144.529c3.304,0,5.982,2.678,5.982,5.982v101.055c0,3.304-2.678,5.982-5.982,5.982H183.735
		c-3.304,0-5.982-2.678-5.982-5.982V25.003C177.753,21.7,180.432,19.021,183.735,19.021z M338.085,350.218v101.055
		c0,3.304,2.678,5.982,5.982,5.982h144.529c3.304,0,5.982-2.678,5.982-5.982V350.218c0-3.304-2.678-5.982-5.982-5.982H344.067
		C340.763,344.236,338.085,346.915,338.085,350.218z M17.422,350.218v101.055c0,3.304,2.678,5.982,5.982,5.982h144.529
		c3.304,0,5.982-2.678,5.982-5.982V350.218c0-3.304-2.678-5.982-5.982-5.982H23.404C20.101,344.236,17.422,346.915,17.422,350.218z"
		/>
</g>
<g id="Layer_5">
	<path fill="#F9F9F7" d="M324.845,141.551c0,2.826-2.291,5.118-5.118,5.118c-2.826,0-5.118-2.291-5.118-5.118
		c0-2.826,2.291-5.118,5.118-5.118C322.554,136.433,324.845,138.725,324.845,141.551z M480.059,461.648
		c-2.826,0-5.118,2.291-5.118,5.118s2.291,5.118,5.118,5.118s5.118-2.291,5.118-5.118S482.885,461.648,480.059,461.648z
		 M159.396,461.648c-2.826,0-5.118,2.291-5.118,5.118s2.291,5.118,5.118,5.118c2.826,0,5.118-2.291,5.118-5.118
		S162.223,461.648,159.396,461.648z"/>
</g>
<g id="Layer_6">
	<path fill="#1C4C5A" d="M289.508,141.551L289.508,141.551c0-2.084,1.689-3.773,3.773-3.773h11.709c2.084,0,3.773,1.689,3.773,3.773
		l0,0c0,2.084-1.689,3.773-3.773,3.773H293.28C291.197,145.324,289.508,143.635,289.508,141.551z M453.612,470.539h11.709
		c2.084,0,3.773-1.689,3.773-3.773l0,0c0-2.084-1.689-3.773-3.773-3.773h-11.709c-2.084,0-3.773,1.689-3.773,3.773l0,0
		C449.839,468.85,451.528,470.539,453.612,470.539z M132.949,470.539h11.709c2.084,0,3.773-1.689,3.773-3.773l0,0
		c0-2.084-1.689-3.773-3.773-3.773h-11.709c-2.084,0-3.773,1.689-3.773,3.773l0,0C129.177,468.85,130.866,470.539,132.949,470.539z"
		/>
</g>
<g id="Layer_7">
	<path fill="#1C4C5A" d="M460.465,277.475l-37.12-7.512c-2.053-0.416-2.818-2.95-1.336-4.431l9.078-9.078l-27.118-27.118
		l-9.078,9.078c-1.481,1.481-4.016,0.717-4.431-1.336l-7.512-37.12c-0.373-1.842,1.253-3.468,3.095-3.095l37.12,7.512
		c2.053,0.416,2.818,2.95,1.336,4.431l-9.078,9.078l27.118,27.118l9.078-9.078c1.481-1.481,4.016-0.717,4.431,1.336l7.512,37.12
		C463.933,276.221,462.307,277.847,460.465,277.475z M310.814,366.987l-31.647-20.937c-1.746-1.158-4.166,0.094-4.166,2.189V361h-38
		v-12.761c0-2.095-2.42-3.347-4.166-2.189l-31.604,20.937c-1.566,1.039-1.588,3.338-0.022,4.377l31.636,20.937
		c1.746,1.158,4.155-0.094,4.155-2.189V377h38v13.112c0,2.095,2.42,3.347,4.166,2.189l31.604-20.937
		C312.336,370.325,312.38,368.026,310.814,366.987z M123.9,196.861l-37.12,7.512c-2.053,0.416-2.818,2.95-1.336,4.431l9.078,9.078
		l-27.118,27.118l-9.078-9.078c-1.481-1.481-4.016-0.717-4.431,1.336l-7.512,37.12c-0.373,1.842,1.253,3.468,3.095,3.095
		l37.12-7.512c2.053-0.416,2.818-2.95,1.336-4.431l-9.078-9.078l27.118-27.118l9.078,9.078c1.481,1.481,4.016,0.717,4.431-1.336
		l7.512-37.12C127.368,198.115,125.742,196.489,123.9,196.861z"/>
</g>
</svg>
