<?xml version="1.0" encoding="iso-8859-1"?>
<!-- Generator: Adobe Illustrator 18.1.0, SVG Export Plug-In . SVG Version: 6.00 Build 0)  -->
<!DOCTYPE svg PUBLIC "-//W3C//DTD SVG 1.1//EN" "http://www.w3.org/Graphics/SVG/1.1/DTD/svg11.dtd">
<svg version="1.1" xmlns="http://www.w3.org/2000/svg" xmlns:xlink="http://www.w3.org/1999/xlink" x="0px" y="0px"
	 viewBox="0 0 512 512" enable-background="new 0 0 512 512" xml:space="preserve">
<g id="Layer_2">
	<path fill="#A3A8A8" d="M203.546,21.676l-42.12,54.685c-5.809,9.269-5.187,21.185,1.555,29.8l8.544,10.917
		c3.135,4.006,3.323,9.579,0.465,13.788L85.447,236.048c-4.4,6.477-1.32,15.364,6.144,17.731l22.791,7.226
		c8.578,2.72,11.005,13.701,4.371,19.782l-9.466,8.678c-4.911,4.502-5.078,12.19-0.367,16.902l0,0
		c3.214,3.214,6.173,12.58,4.621,16.852l-14.827,23.244c-0.347,0.545-0.644,1.124-0.824,1.744
		c-2.263,7.776,0.215,21.088,5.194,27.052l13.259,15.883c2.167,2.596,3.105,6.003,2.573,9.343l-7.35,43.175
		C107.087,471.712,119.385,512,256,512s172.581-36.66,172.581-73.445V315.594c0-9.97-1.874-19.851-5.524-29.129l-9.658-24.547
		c-1.003-2.548-1.643-5.225-1.902-7.951L389.905,48.939C386.594,14.09,357.327,0,322.321,0H242.71
		C226.794,0,211.998,8.189,203.546,21.676z"/>
</g>
<g id="Layer_3">
	<path fill="#444B4F" d="M209.43,83.229c9.013-1.31,23.611-2.552,46.57-2.552c24.724,0,42.32,10.091,53.639,20.001
		c8.954,7.839,6.029,22.444-5.228,26.306c-17.753,6.09-42.639,14.476-58.407,19.147c-7.763,2.3-16.027-1.694-18.947-9.246
		c-6.101-15.778-16.509-34.193-22.446-42.735C201.637,89.87,204.273,83.979,209.43,83.229z M162.419,77.189
		c-0.517-0.427-1.291-0.269-1.608,0.323l-5.255,9.832c-1.772,3.315-1.563,7.339,0.543,10.453l15.891,33.069l16.564-30.452
		c3.894-7.158-0.197-16.046-8.168-17.741C172.729,81.045,164.709,79.08,162.419,77.189z M91.143,254.353l27.935,11.321
		c1.577,0.639,2.697,2.066,2.943,3.75l-0.888,6.436c-0.134,0.969,0.937,1.644,1.754,1.105l31.971-21.095
		c1.986-1.416,1.036-4.544-1.402-4.616l-63.906-0.598C86.713,250.573,88.513,253.287,91.143,254.353z M111.835,312.176
		c2.063,4.19,1.918,8.702-0.414,12.833l-5.88,10.419l63.885-22.834c7.107-1.285,7.006-7.791-0.139-8.987
		c-22.158-3.71-54.288,2.735-62.412,0L111.835,312.176z M112.189,386.168l5.613,17.301c0.301,0.713,0.396,1.497,0.274,2.261
		l-2.574,16.138c-0.601,3.768,3.784,6.272,6.724,3.839l47.273-44.203c3.308-2.737,3.56-5.294-0.653-4.465
		c-16.317,3.212-42.288,8.133-54.485,7.629C111.353,384.544,111.018,383.394,112.189,386.168z M334.334,222.075
		c4.565,7.835,14.36,19.61,32.006,19.61c17.877,0,27.697-12.086,32.183-19.917c0.767-1.339-0.807-2.745-2.056-1.84
		c-16.169,11.722-45.421,10.697-60.101,0.291C335.123,219.338,333.567,220.759,334.334,222.075z"/>
</g>
</svg>
