<?xml version="1.0" encoding="iso-8859-1"?>
<!-- Generator: Adobe Illustrator 19.2.1, SVG Export Plug-In . SVG Version: 6.00 Build 0)  -->
<!DOCTYPE svg PUBLIC "-//W3C//DTD SVG 1.1//EN" "http://www.w3.org/Graphics/SVG/1.1/DTD/svg11.dtd">
<svg version="1.1" xmlns="http://www.w3.org/2000/svg" xmlns:xlink="http://www.w3.org/1999/xlink" x="0px" y="0px"
	 viewBox="0 0 512 512" enable-background="new 0 0 512 512" xml:space="preserve">
<g id="Layer_4">
	<path fill="#597B91" d="M398.638,242.647H111.448c-4.142,0-7.5-3.358-7.5-7.5s3.358-7.5,7.5-7.5h287.189c4.143,0,7.5,3.358,7.5,7.5
		S402.78,242.647,398.638,242.647z M406.138,294.067c0-4.143-3.357-7.5-7.5-7.5H111.448c-4.142,0-7.5,3.357-7.5,7.5
		s3.358,7.5,7.5,7.5h287.189C402.78,301.567,406.138,298.21,406.138,294.067z M406.138,352.987c0-4.143-3.357-7.5-7.5-7.5H111.448
		c-4.142,0-7.5,3.357-7.5,7.5s3.358,7.5,7.5,7.5h287.189C402.78,360.487,406.138,357.13,406.138,352.987z"/>
</g>
<g id="Layer_1">
</g>
</svg>
