<?xml version="1.0" encoding="iso-8859-1"?>
<!-- Generator: Adobe Illustrator 19.2.0, SVG Export Plug-In . SVG Version: 6.00 Build 0)  -->
<!DOCTYPE svg PUBLIC "-//W3C//DTD SVG 1.1//EN" "http://www.w3.org/Graphics/SVG/1.1/DTD/svg11.dtd">
<svg version="1.1" xmlns="http://www.w3.org/2000/svg" xmlns:xlink="http://www.w3.org/1999/xlink" x="0px" y="0px"
	 viewBox="0 0 512 512" enable-background="new 0 0 512 512" xml:space="preserve">
<g id="Layer_3">
	<path fill="#FFD3B6" d="M469.88,337.218c-25.654-12.388-56.651-1.595-69.039,24.165c-14.116,29.296-47.293,44.369-78.663,35.942
		c-36.128-9.703-57.608-46.974-47.905-83.129c8.669-32.198,39.362-82.775,71.606-82.932c2.972-0.015,5.806,1.257,7.796,3.465
		l56.23,62.4c24.192,15.286,59.31,15.259,74.543-8.853c15.286-24.138-1.218-38.16-12.076-48.608
		c-11.74-11.295-17.924-27.252-24.876-36.116c-11.704-14.925-30.555-66.479-59.655-81.363
		c-30.893-15.801-177.026-25.76-212.049,41.995C144.617,213.17,65.129,310.344,24.77,340.419
		c-14.732,10.978-21.706,29.534-17.844,47.496l16.878,78.494c4.954,23.042,26.231,38.834,49.721,36.903l12.351-1.015
		c9.057-0.744,17.703-4.103,24.888-9.667l2.709-2.098c11.035-8.546,25.294-11.732,38.919-8.705
		c23.977,5.327,65.559,13.576,110.374,18.038c21.878,4.074,47.311,5.143,78.074,5.178c0.027,0,0.027,0,0.053,0
		c34.994,0,82.526-22.526,110.856-54.338c10.298-11.564,10.867-36.96,17.865-51.494C482.002,373.478,495.613,349.606,469.88,337.218
		z"/>
</g>
<g id="Layer_1">
</g>
</svg>
