<?xml version="1.0" encoding="iso-8859-1"?>
<!-- Generator: Adobe Illustrator 19.2.0, SVG Export Plug-In . SVG Version: 6.00 Build 0)  -->
<!DOCTYPE svg PUBLIC "-//W3C//DTD SVG 1.1//EN" "http://www.w3.org/Graphics/SVG/1.1/DTD/svg11.dtd">
<svg version="1.1" xmlns="http://www.w3.org/2000/svg" xmlns:xlink="http://www.w3.org/1999/xlink" x="0px" y="0px"
	 viewBox="0 0 512 512" enable-background="new 0 0 512 512" xml:space="preserve">
<g id="Layer_2">
	<path fill="#FFB636" d="M468.686,498.459h-80.832V68.935h80.832c7.953,0,14.4,6.447,14.4,14.4v400.724
		C483.086,492.012,476.639,498.459,468.686,498.459z"/>
</g>
<g id="Layer_3">
	<path fill="#FFD469" d="M410.07,68.935l-367.604,0c-7.485,0-13.552,5.418-13.552,12.102v1.449c0,0,0,0.001,0,0.001v402.42
		c0,7.484,6.067,13.552,13.552,13.552H410.07V254.467h0V68.935z"/>
</g>
<g id="Layer_4">
	<path fill="#FFFFFF" d="M135.117,111.688c0,11.806-9.571,21.376-21.376,21.376s-21.376-9.571-21.376-21.376
		s9.571-21.376,21.376-21.376S135.117,99.882,135.117,111.688z M314.001,90.311c-11.806,0-21.376,9.571-21.376,21.376
		s9.571,21.376,21.376,21.376c11.806,0,21.376-9.571,21.376-21.376S325.807,90.311,314.001,90.311z"/>
</g>
<g id="Layer_5">
	<path fill="#939393" d="M173.84,69h-20.754c0-18-14.524-32.408-32.376-32.408S88.334,51.084,88.334,68.936
		s14.524,32.377,32.376,32.377c5.731,0,10.377,4.648,10.377,10.379s-4.646,10.381-10.377,10.381
		c-29.296,0-53.13-23.826-53.13-53.122s23.834-53.114,53.13-53.114S173.84,40,173.84,69z M335.976,17.557
		c-4.372-1.141-8.897-1.736-13.45-1.736c-29.296,0-53.13,23.826-53.13,53.122s23.834,53.126,53.13,53.126
		c5.731,0,10.377-4.648,10.377-10.379s-4.646-10.378-10.377-10.378c-17.853,0-32.376-14.524-32.376-32.376
		s14.523-32.376,32.376-32.376c2.785,0,5.547,0.384,8.208,1.079C344.963,41.352,354.901,54,354.901,69h20.754
		C375.655,45,359.338,23.656,335.976,17.557z"/>
</g>
<g id="Layer_6">
	<path fill="#464A4C" d="M179.713,448.661h-29.212c-4.723,0-8.551-3.828-8.551-8.551V309.471c0-6.666-7.289-10.768-12.987-7.31
		l-22.979,13.946c-3.947,2.396-9.084,1.225-11.603-2.645L83.236,296.34c-2.636-4.05-1.395-9.478,2.739-11.98l58.09-35.16
		c1.335-0.808,2.867-1.236,4.428-1.236h31.221c4.723,0,8.551,3.828,8.551,8.551V440.11
		C188.264,444.832,184.436,448.661,179.713,448.661z"/>
</g>
<g id="Layer_7">
	<path fill="#464A4C" d="M353.188,281.63L283.32,446.16c-1.74,4.097-6.332,6.174-10.558,4.775l-26.709-8.842
		c-4.763-1.577-7.152-6.897-5.165-11.504l58.252-135.061c2.435-5.645-1.704-11.937-7.852-11.937h-59.202
		c-4.723,0-8.551-3.828-8.551-8.551v-18.525c0-4.723,3.828-8.551,8.551-8.551h113.232c4.723,0,8.551,3.828,8.551,8.551v21.773
		C353.869,279.436,353.637,280.573,353.188,281.63z"/>
</g>
<g id="Layer_8">
	<path fill="#464A4C" d="M104.884,209.106c0,14.575-8.27,20.256-17.901,23.658c-0.988,0.349-2.074-0.154-2.442-1.134l-2.568-6.827
		c-0.353-0.939,0.078-1.991,0.987-2.416c6.426-3.005,7.332-7.048,7.332-13.808v-49.151c0-1.061,0.86-1.92,1.92-1.92h10.751
		c1.061,0,1.92,0.86,1.92,1.92V209.106z"/>
</g>
<g id="Layer_9">
	<path fill="#464A4C" d="M162.723,198.118c0,12.394-7.999,21.8-23.909,21.8c-15.998,0-23.909-8.878-23.909-21.8v-38.69
		c0-1.061,0.86-1.92,1.92-1.92h10.839c1.061,0,1.92,0.86,1.92,1.92v38.163c0,7.735,2.725,11.515,9.23,11.515
		c6.505,0,9.23-3.78,9.23-11.515v-38.163c0-1.061,0.86-1.92,1.92-1.92h10.839c1.061,0,1.92,0.86,1.92,1.92V198.118z"/>
</g>
<g id="Layer_10">
	<path fill="#464A4C" d="M189.52,206.908h19.611c1.165,0,2.061,1.028,1.903,2.182l-1.054,7.674
		c-0.131,0.951-0.943,1.659-1.903,1.659H174.84c-1.061,0-1.92-0.86-1.92-1.92v-57.075c0-1.061,0.86-1.92,1.92-1.92h10.839
		c1.061,0,1.92,0.86,1.92,1.92v45.56C187.599,206.049,188.459,206.908,189.52,206.908z"/>
</g>
</svg>
