<?xml version="1.0" encoding="iso-8859-1"?>
<!-- Generator: Adobe Illustrator 19.1.0, SVG Export Plug-In . SVG Version: 6.00 Build 0)  -->
<!DOCTYPE svg PUBLIC "-//W3C//DTD SVG 1.1//EN" "http://www.w3.org/Graphics/SVG/1.1/DTD/svg11.dtd">
<svg version="1.1" xmlns="http://www.w3.org/2000/svg" xmlns:xlink="http://www.w3.org/1999/xlink" x="0px" y="0px"
	 viewBox="0 0 512 512" enable-background="new 0 0 512 512" xml:space="preserve">
<g id="Layer_2">
	<path fill="#ADB8BC" d="M275.566,62.546l151.318,153.699c18.786,19.082,18.786,49.708,0,68.79L275.566,438.735
		c-30.772,31.257-83.962,9.467-83.962-34.395V96.941C191.604,53.079,244.794,31.29,275.566,62.546z"/>
</g>
<g id="Layer_3">
	<path fill="#597B91" d="M354.628,142.238h89.869c15.84,0,28.8,12.96,28.8,28.8v159.206c0,15.84-12.96,28.8-28.8,28.8h-89.869
		V142.238z"/>
</g>
<g id="Layer_4">
	<path fill="#7D9DAF" d="M116.253,131.92c4.336,0,8.579,2.15,11.075,6.082c3.878,6.11,2.07,14.207-4.04,18.087
		c-25.883,16.43-44.359,44.487-49.423,75.05c-6.99,42.19,12.698,86.263,48.992,109.671c6.082,3.923,7.832,12.032,3.909,18.114
		c-3.921,6.083-12.03,7.835-18.115,3.91C63.708,333.845,39.338,279.2,48.011,226.855c6.264-37.803,29.154-72.53,61.231-92.893
		C111.42,132.58,113.851,131.92,116.253,131.92z"/>
</g>
</svg>
