<?xml version="1.0" encoding="utf-8"?>
<!-- Generator: Adobe Illustrator 18.0.0, SVG Export Plug-In . SVG Version: 6.00 Build 0)  -->
<!DOCTYPE svg PUBLIC "-//W3C//DTD SVG 1.1 Tiny//EN" "http://www.w3.org/Graphics/SVG/1.1/DTD/svg11-tiny.dtd">
<svg version="1.1" baseProfile="tiny" id="Layer_1" xmlns="http://www.w3.org/2000/svg" xmlns:xlink="http://www.w3.org/1999/xlink"
	 x="0px" y="0px" width="511.9px" height="511.9px" viewBox="0 0 511.9 511.9" xml:space="preserve">
<path fill="#FFD3B6" d="M238.4,255.5c-9.2-3.1-27.5-5-45.4,37.2c-2.9,6.9-7.1,12.6-8,7.3V154c0-10.2-8-18.4-18.2-18.4
	c-10.2,0-18.5,8.2-18.5,18.4v92.7c0,0.1,0,0.1,0,0.2c0,8.7-11.2,9.4-13.2,2.3V138.2c0-10.2-8-18.4-18.2-18.4
	c-10.2,0-18.5,8.2-18.5,18.4v111.2c-1.4,6.8-11.4,6.5-12.2-0.8v-97.1c0-10.2-8-18.4-18.2-18.4c-10.2,0-18.5,8.2-18.5,18.4v95.6
	c-0.1,0.1-0.1,0.4-0.1,0.7c0,8.3-10.7,9.1-12.7,2.3v-68.5c0-10.2-8-18.4-18.2-18.4C8.3,163.3,0,171.6,0,181.7v161.1
	c0,32.7,19.2,60.9,47,74V443c0,10.2,8.3,18.4,18.4,18.4h73.7c10.2,0,18.4-8.3,18.4-18.4v-18.6c12.2-1.4,22.9-7.8,29.8-17.3
	c0.1-0.1,0.2-0.3,0.3-0.4c0.2-0.3,0.4-0.5,0.6-0.8c5.6-6.4,34.9-78.1,58.5-126.6C250.5,269.8,247.6,258.6,238.4,255.5z"/>
<path fill="#00BEEA" d="M273.2,44.5c-0.5-0.7-1.4-1.1-2.2-1.1h-30.9c-0.9,0-1.7,0.4-2.2,1.1c-0.5,0.7-0.7,1.6-0.5,2.5l15.4,55.5
	c0.3,1.2,1.4,2.1,2.7,2.1c1.3,0,2.4-0.8,2.7-2.1L273.6,47C273.9,46.1,273.7,45.2,273.2,44.5z"/>
<path fill="#00BEEA" d="M354.5,82.7l-21.8-21.8c-0.6-0.6-1.5-0.9-2.4-0.8c-0.9,0.1-1.6,0.6-2.1,1.4l-28.3,50.2
	c-0.6,1.1-0.4,2.5,0.5,3.4c0.5,0.5,1.3,0.8,2,0.8c0.5,0,0.9-0.1,1.4-0.4l50.2-28.3c0.8-0.4,1.3-1.2,1.4-2.1
	C355.4,84.2,355.1,83.4,354.5,82.7z"/>
<path fill="#00BEEA" d="M212,111.7l-28.3-50.2c-0.4-0.8-1.2-1.3-2.1-1.4c-0.9-0.1-1.7,0.2-2.4,0.8l-21.8,21.8
	c-0.6,0.6-0.9,1.5-0.8,2.4s0.6,1.6,1.4,2.1l50.2,28.3c0.4,0.2,0.9,0.4,1.4,0.4c0.7,0,1.4-0.3,2-0.8
	C212.4,114.2,212.6,112.8,212,111.7z"/>
<path fill="#FFD3B6" d="M493.4,163.3c-10.2,0-18.2,8.2-18.2,18.4v68.5c-2,6.8-12.7,6-12.7-2.3c0-0.3,0-0.5-0.1-0.7v-95.6
	c0-10.1-8.3-18.4-18.5-18.4c-10.2,0-18.2,8.2-18.2,18.4v97.1c-0.7,7.3-10.8,7.5-12.2,0.8V138.2c0-10.1-8.3-18.4-18.5-18.4
	c-10.2,0-18.2,8.2-18.2,18.4v110.9c-2,7.1-13.2,6.4-13.2-2.3c0-0.1,0-0.2,0-0.2V154c0-10.2-8.3-18.4-18.5-18.4
	c-10.2,0-18.2,8.2-18.2,18.4v146.1c-1,5.3-5.1-0.4-8-7.3c-17.8-42.2-36.2-40.3-45.4-37.2c-9.2,3.1-12.1,14.2-8.3,23.7
	c23.6,48.5,52.9,120.2,58.5,126.6c0.2,0.3,0.4,0.5,0.6,0.8c0.1,0.1,0.2,0.3,0.3,0.4c6.9,9.4,17.6,15.9,29.8,17.3V443
	c0,10.2,8.3,18.4,18.4,18.4h73.7c10.2,0,18.4-8.3,18.4-18.4v-26.2c27.8-13.1,47-41.3,47-74V181.7
	C511.9,171.6,503.6,163.3,493.4,163.3z"/>
<path fill="#F2C7AA" d="M430.2,424.5h-14.9l0.1,0.1h-56c-0.3,0-0.7,0-1,0c-1.3,0-2.6-0.1-3.9-0.3v16.3c3.3,1.4,6.4,2.3,9.1,2.3h92.1
	c2.7,0,5.9-1.1,9.3-2.8v-23.3C454.4,421.7,442.6,424.5,430.2,424.5z"/>
<path fill="#F2C7AA" d="M153.6,424.6c-0.3,0-0.7,0-1,0h-56l0.1-0.1H81.7c-12.4,0-24.2-2.8-34.7-7.7v23.3c3.4,1.7,6.5,2.8,9.3,2.8
	h92.1c2.7,0,5.8-0.9,9.1-2.3v-16.3C156.2,424.5,154.9,424.6,153.6,424.6z"/>
</svg>
