<?xml version="1.0" encoding="iso-8859-1"?>
<!-- Generator: Adobe Illustrator 18.1.1, SVG Export Plug-In . SVG Version: 6.00 Build 0)  -->
<!DOCTYPE svg PUBLIC "-//W3C//DTD SVG 1.1//EN" "http://www.w3.org/Graphics/SVG/1.1/DTD/svg11.dtd">
<svg version="1.1" xmlns="http://www.w3.org/2000/svg" xmlns:xlink="http://www.w3.org/1999/xlink" x="0px" y="0px"
	 viewBox="0 0 512 512" enable-background="new 0 0 512 512" xml:space="preserve">
<g id="Layer_8">
	<path fill="#2B3B47" d="M277.78,129.735h-1.418c-0.92,0-1.666-0.746-1.666-1.666V115.2c0-0.92-0.746-1.666-1.666-1.666h-2.222
		c-0.92,0-1.666-0.746-1.666-1.666v-0.304c0-0.92,0.746-1.666,1.666-1.666h12.517c1.008,0,1.785,0.888,1.651,1.887l-0.041,0.304
		c-0.111,0.827-0.817,1.445-1.651,1.445h-2.172c-0.92,0-1.666,0.746-1.666,1.666v12.869
		C279.446,128.989,278.7,129.735,277.78,129.735z"/>
</g>
<g id="Layer_1">
</g>
</svg>
