<?xml version="1.0" encoding="iso-8859-1"?>
<!-- Generator: Adobe Illustrator 18.1.1, SVG Export Plug-In . SVG Version: 6.00 Build 0)  -->
<!DOCTYPE svg PUBLIC "-//W3C//DTD SVG 1.1//EN" "http://www.w3.org/Graphics/SVG/1.1/DTD/svg11.dtd">
<svg version="1.1" xmlns="http://www.w3.org/2000/svg" xmlns:xlink="http://www.w3.org/1999/xlink" x="0px" y="0px"
	 viewBox="0 0 500 500" enable-background="new 0 0 500 500" xml:space="preserve">
<g id="Layer_4">
	<path fill="#FFB636" d="M468.295,236.595l-2.71-5.585c-5.426-11.182-9.403-22.966-11.867-35.067
		c-5.159-25.343-13.09-50.041-24.52-73.24l-4.204-8.533c-11.353-23.042-34.809-37.634-60.495-37.634H135.773
		c-25.762,0-49.273,14.677-60.588,37.821l-4.541,9.29c-11.099,22.703-18.967,46.809-23.954,71.582
		c-2.469,12.265-6.491,24.205-11.999,35.524l-2.953,6.07c-6.726,5.502-11.021,13.865-11.021,23.232V412.26
		c0,16.571,13.434,30.005,30.005,30.005h398.879c16.571,0,30.005-13.434,30.005-30.005V260.057
		C479.606,250.556,475.187,242.093,468.295,236.595z"/>
</g>
<g id="Layer_1">
</g>
</svg>
