<?xml version="1.0" encoding="utf-8"?>
<!-- Generator: Adobe Illustrator 18.0.0, SVG Export Plug-In . SVG Version: 6.00 Build 0)  -->
<!DOCTYPE svg PUBLIC "-//W3C//DTD SVG 1.1 Tiny//EN" "http://www.w3.org/Graphics/SVG/1.1/DTD/svg11-tiny.dtd">
<svg version="1.1" baseProfile="tiny" id="Layer_1" xmlns="http://www.w3.org/2000/svg" xmlns:xlink="http://www.w3.org/1999/xlink"
	 x="0px" y="0px" width="511.9px" height="511.9px" viewBox="0 0 511.9 511.9" xml:space="preserve">
<path fill="#FFD469" d="M255.9,28.5C134,28.5,35.2,127.3,35.2,249.2c0,3.3,0.1,6.6,0.2,9.9c-12.8,1.7-22.8,12.6-22.8,25.9
	c0,14.5,11.7,26.2,26.2,26.2h5.2c26.8,91.7,111.4,158.7,211.7,158.7c121.8,0,220.6-98.8,220.6-220.6
	C476.5,127.3,377.7,28.5,255.9,28.5z"/>
<path fill="#FFB636" d="M476.2,259c0.1-3.3,0.2-6.6,0.2-9.9c0-58.9-23.1-112.5-60.8-152c21.3,34.5,33.6,75.2,33.6,118.8
	c0,125.2-101.5,226.7-226.7,226.7c-43.6,0-84.2-12.3-118.8-33.6c39.6,37.7,93.1,60.8,152,60.8c100.3,0,185-67,211.7-158.7h5.2
	c14.5,0,26.2-11.7,26.2-26.2C499,271.6,489.1,260.7,476.2,259z"/>
<path fill="#F2A74E" d="M347,163.4c-2,0-4-0.8-5.5-2.3c-3-3-2.9-7.9,0.1-10.9c15.4-15,39.6-17.3,57.5-5.5c3.5,2.3,4.5,7.1,2.2,10.7
	c-2.3,3.5-7.1,4.5-10.7,2.2c-11.9-7.8-28-6.3-38.3,3.7C350.8,162.7,348.9,163.4,347,163.4z"/>
<path fill="#F2A74E" d="M166.9,165.6c-2.1,0-4.3-0.9-5.8-2.6c-9.9-11.3-27.4-13.8-40-5.5c-3.5,2.3-8.3,1.4-10.7-2.2
	c-2.3-3.5-1.4-8.3,2.2-10.7c19.2-12.6,45-9.1,60,8.3c2.8,3.2,2.5,8.1-0.7,10.9C170.5,165,168.7,165.6,166.9,165.6z"/>
<path fill="#2B3B47" d="M311.3,336.9c-0.9,0-1.9-0.1-2.9-0.4c-32.9-9.6-72.3-9.6-105.3,0c-5.4,1.6-11-1.5-12.6-6.9
	c-1.6-5.4,1.5-11,6.9-12.6c36.5-10.7,80.1-10.7,116.6,0c5.4,1.6,8.5,7.2,6.9,12.6C319.8,334,315.7,336.9,311.3,336.9z"/>
<path fill="#2B3B47" d="M397.3,205.6c-4.3-3.8-10.8-3.4-14.6,0.9c-4.1,4.7-10.1,7.3-16.4,7.3c-6.3,0-12.2-2.7-16.4-7.3
	c-3.8-4.3-10.3-4.7-14.6-0.9c-3.4,3-4.2,7.8-2.5,11.8c0.1,0.9,0.3,1.9,0.7,2.8c6.1,13.8,18.7,22.4,32.7,22.4
	c14,0,26.6-8.6,32.7-22.4c0.4-0.9,0.6-1.8,0.7-2.8C401.5,213.4,400.7,208.6,397.3,205.6z"/>
<path fill="#2B3B47" d="M176.3,205.6c-4.3-3.8-10.8-3.4-14.6,0.9c-4.1,4.7-10.1,7.3-16.4,7.3h0c-6.3,0-12.2-2.7-16.4-7.3
	c-3.8-4.3-10.3-4.7-14.6-0.9c-3.4,3-4.2,7.8-2.5,11.8c0.1,0.9,0.3,1.9,0.7,2.8c6.1,13.8,18.7,22.4,32.7,22.4
	c14,0,26.6-8.6,32.7-22.4c0.4-0.9,0.6-1.8,0.7-2.8C180.6,213.4,179.8,208.6,176.3,205.6z"/>
<path fill="#B0E9FF" d="M443.2,412.7c18.8-18.8,18.8-49.2,0-68c-18.8-18.8-49.2-18.8-68,0c-1.5,1.5-2.7,3.1-3.9,4.7l-86.1-74.2
	c-5.4-3.7-9.4,0.1-6.6,6.1l40.6,132.5c-11.6,14.9-10.8,36.5,3,50.2c13.2,13.2,33.5,14.6,48.4,4.5c0.2,0.2,0.3,0.4,0.5,0.6
	c17.1,17.1,44.9,17.1,62.1,0c14.4-14.4,16.6-36.4,6.7-53.2C440.9,414.9,442.1,413.9,443.2,412.7z"/>
<path fill="#B0E9FF" d="M228.4,274.3l-100.5,86c-10.9-9.7-27.6-9.4-38.1,1.1c-10.4,10.4-10.7,27-1.2,37.9c-4.9-1.3-10.2-0.1-14,3.7
	c-5.7,5.7-5.7,14.9,0,20.6c2.5,2.5,5.7,3.8,9,4.1c-5.3,12.7-2.8,27.8,7.5,38.1c13.6,13.6,35.8,13.6,49.4,0c3.2-3.3,5.7-7,7.4-11
	c1,1.3,1.9,2.6,3.1,3.8c11.9,11.9,31.2,11.9,43.1,0c10.6-10.6,11.7-27.2,3.3-39.1c3.6-0.1,7.1-1.5,9.8-4.2c5.7-5.7,5.7-14.9,0-20.6
	c-1.9-1.9-4.2-3.1-6.6-3.7l34.1-111.1C237.4,271.2,234.2,269.1,228.4,274.3z"/>
</svg>
