<?xml version="1.0" encoding="iso-8859-1"?>
<!-- Generator: Adobe Illustrator 18.1.1, SVG Export Plug-In . SVG Version: 6.00 Build 0)  -->
<!DOCTYPE svg PUBLIC "-//W3C//DTD SVG 1.1//EN" "http://www.w3.org/Graphics/SVG/1.1/DTD/svg11.dtd">
<svg version="1.1" xmlns="http://www.w3.org/2000/svg" xmlns:xlink="http://www.w3.org/1999/xlink" x="0px" y="0px"
	 viewBox="0 0 512 512" enable-background="new 0 0 512 512" xml:space="preserve">
<g id="Layer_10">
	<path fill="#2B3B47" d="M311.1,110.86l1.012,2.17c0.594,1.275,2.404,1.285,3.012,0.017l1.057-2.204
		c0.277-0.578,0.861-0.945,1.502-0.945h1.072c1.283,0,2.085,1.39,1.442,2.5l-3.354,5.799c-0.289,0.499-0.299,1.113-0.026,1.621
		l4,7.464c0.595,1.11-0.209,2.453-1.468,2.453h-1.273c-0.651,0-1.242-0.379-1.514-0.97l-1.492-3.242
		c-0.597-1.297-2.443-1.292-3.031,0.009l-1.459,3.223c-0.27,0.596-0.864,0.979-1.518,0.979h-1.187c-1.257,0-2.062-1.339-1.47-2.449
		l3.879-7.284c0.266-0.499,0.26-1.1-0.015-1.594l-3.36-6.034c-0.618-1.111,0.184-2.477,1.456-2.477h1.227
		C310.237,109.897,310.826,110.273,311.1,110.86z"/>
</g>
<g id="Layer_1">
</g>
</svg>
