<?xml version="1.0" encoding="iso-8859-1"?>
<!-- Generator: Adobe Illustrator 19.1.0, SVG Export Plug-In . SVG Version: 6.00 Build 0)  -->
<!DOCTYPE svg PUBLIC "-//W3C//DTD SVG 1.1//EN" "http://www.w3.org/Graphics/SVG/1.1/DTD/svg11.dtd">
<svg version="1.1" xmlns="http://www.w3.org/2000/svg" xmlns:xlink="http://www.w3.org/1999/xlink" x="0px" y="0px"
	 viewBox="0 0 512 512" enable-background="new 0 0 512 512" xml:space="preserve">
<g id="Layer_3">
	<path fill="#FF473E" d="M255.107,1.894C114.768,1.894,1.001,115.661,1.001,256s113.767,254.106,254.106,254.106
		S509.213,396.339,509.213,256S395.446,1.894,255.107,1.894z M105.832,405.274C65.96,365.402,44.001,312.388,44.001,256
		c0-49.613,17.006-96.609,48.249-134.345l297.202,297.202c-37.736,31.243-84.732,48.249-134.345,48.249
		C198.718,467.106,145.705,445.147,105.832,405.274z M419.663,388.256L122.85,91.444c37.375-30.156,83.553-46.55,132.257-46.55
		c56.388,0,109.402,21.959,149.274,61.831c39.873,39.872,61.831,92.886,61.831,149.274
		C466.213,304.703,449.819,350.881,419.663,388.256z"/>
</g>
<g id="Layer_1">
</g>
</svg>
