<?xml version="1.0" encoding="iso-8859-1"?>
<!-- Generator: Adobe Illustrator 18.1.1, SVG Export Plug-In . SVG Version: 6.00 Build 0)  -->
<!DOCTYPE svg PUBLIC "-//W3C//DTD SVG 1.1//EN" "http://www.w3.org/Graphics/SVG/1.1/DTD/svg11.dtd">
<svg version="1.1" xmlns="http://www.w3.org/2000/svg" xmlns:xlink="http://www.w3.org/1999/xlink" x="0px" y="0px"
	 viewBox="0 0 512 512" enable-background="new 0 0 512 512" xml:space="preserve">
<g id="Layer_4">
	<path fill="#31CAFF" d="M145.174,392.59l52.678-52.679c5.001-5.001,5.001-13.11,0-18.111c-5.001-5.002-13.11-5.002-18.111,0
		l-52.678,52.679c-5.001,5.001-5.001,13.11,0,18.111c2.5,2.501,5.778,3.751,9.056,3.751S142.674,395.091,145.174,392.59z
		 M118.835,249.073l36.148-36.148c5.001-5.001,5.001-13.11,0-18.111c-5.001-5.002-13.11-5.002-18.111,0l-36.148,36.148
		c-5.001,5.001-5.001,13.11,0,18.111c2.5,2.501,5.778,3.751,9.056,3.751S116.335,251.574,118.835,249.073z M48.325,237.194
		l96.849-96.849c5.001-5.001,5.001-13.11,0-18.111c-5.001-5.002-13.11-5.002-18.111,0l-96.849,96.849
		c-5.001,5.001-5.001,13.11,0,18.111c2.5,2.501,5.778,3.751,9.056,3.751S45.825,239.695,48.325,237.194z M178.997,265.603
		l52.678-52.678c5.001-5.001,5.001-13.11,0-18.111c-5.001-5.002-13.11-5.002-18.111,0l-52.678,52.678
		c-5.001,5.001-5.001,13.11,0,18.111c2.5,2.501,5.778,3.751,9.056,3.751S176.497,268.104,178.997,265.603z M24.056,344.619
		l52.678-52.678c5.001-5.001,5.001-13.11,0-18.111c-5.001-5.002-13.11-5.002-18.111,0L5.944,326.508
		c-5.001,5.001-5.001,13.11,0,18.111c2.5,2.501,5.778,3.751,9.056,3.751S21.555,347.12,24.056,344.619z M61.013,387.925
		l84.161-84.162c5.001-5.001,5.001-13.11,0-18.111c-5.001-5.002-13.11-5.002-18.111,0l-84.161,84.162
		c-5.001,5.001-5.001,13.11,0,18.111c2.5,2.501,5.778,3.751,9.056,3.751S58.513,390.426,61.013,387.925z M212.81,305.502
		c-3.277,0-6.555-1.25-9.056-3.751c-5.001-5.001-5.001-13.11,0-18.111l36.148-36.148c5.001-5.002,13.11-5.002,18.111,0
		c5.002,5.001,5.002,13.11,0,18.111l-36.148,36.148C219.365,304.252,216.087,305.502,212.81,305.502z"/>
</g>
<g id="Layer_1">
</g>
</svg>
