<?xml version="1.0" encoding="iso-8859-1"?>
<!-- Generator: Adobe Illustrator 18.1.0, SVG Export Plug-In . SVG Version: 6.00 Build 0)  -->
<!DOCTYPE svg PUBLIC "-//W3C//DTD SVG 1.1//EN" "http://www.w3.org/Graphics/SVG/1.1/DTD/svg11.dtd">
<svg version="1.1" xmlns="http://www.w3.org/2000/svg" xmlns:xlink="http://www.w3.org/1999/xlink" x="0px" y="0px"
	 viewBox="0 0 512 512" enable-background="new 0 0 512 512" xml:space="preserve">
<g id="Layer_2">
	<path fill="#575A5B" d="M224.614,75.901c-6.446,0-11.671-5.225-11.671-11.671V36.267c0-6.446,5.225-11.671,11.671-11.671
		s11.671,5.225,11.671,11.671V64.23C236.285,70.676,231.06,75.901,224.614,75.901z"/>
</g>
<g id="Layer_3">
	<path fill="#8CA3AF" d="M242.537,66.178h-35.846c-5.622,0-10.179-4.557-10.179-10.179s4.557-10.179,10.179-10.179h35.846
		c5.622,0,10.179,4.557,10.179,10.179S248.159,66.178,242.537,66.178z"/>
</g>
<g id="Layer_4">
	<path fill="#B1B8BC" d="M443.74,499.848c2.358,3.463-0.123,8.152-4.312,8.152h-212.73H13.968c-4.189,0-6.669-4.689-4.312-8.152
		l127.269-186.943c0.971-1.427,2.586-2.281,4.312-2.281h85.461h85.461c1.726,0,3.341,0.854,4.312,2.281L443.74,499.848z
		 M468.899,422.574L512,418.63V296.532H368.417L468.899,422.574z"/>
</g>
<g id="Layer_5">
	<polygon fill="#89999B" points="293.155,359.316 226.698,359.316 160.241,359.316 59.019,508 226.698,508 394.377,508 	"/>
</g>
<g id="Layer_6">
	<path fill="#606E72" d="M376.001,508l-99.674-146.41c-11.178,3.73-23.135,5.76-35.568,5.76h-28.121
		c-12.433,0-24.389-2.03-35.568-5.76L77.395,508H44.788l107.658-158.136c-9.595-6.103-18.207-13.614-25.532-22.253l7.241-10.637
		c19.528,14.129,43.523,22.463,69.469,22.463h46.149c25.946,0,49.941-8.334,69.469-22.463l7.242,10.637
		c-7.325,8.64-15.937,16.15-25.532,22.253L408.608,508H376.001z M469.027,418.63l-0.128-0.213L368.417,296.532v25.516
		c0,1.451,0.438,2.868,1.258,4.065l97.08,141.905c1.342,1.962,3.566,3.135,5.942,3.135H512V418.63H469.027z M461.008,202.743h-6.998
		c-1.988,0-3.6,1.612-3.6,3.6v119.906c0,1.988,1.612,3.6,3.6,3.6h6.998c1.988,0,3.6-1.612,3.6-3.6V206.343
		C464.608,204.355,462.996,202.743,461.008,202.743z"/>
</g>
<g id="Layer_7">
	<path fill="#B1B8BC" d="M289.302,391.552H168.72c-8.884,0-16.086-7.202-16.086-16.086s7.202-16.086,16.086-16.086h120.582
		c8.884,0,16.086,7.202,16.086,16.086S298.186,391.552,289.302,391.552z M339.839,434.343c0-8.884-7.202-16.086-16.086-16.086
		H128.116c-8.884,0-16.086,7.202-16.086,16.086s7.202,16.086,16.086,16.086h195.637
		C332.637,450.429,339.839,443.227,339.839,434.343z M353.751,478.872H98.118c-8.884,0-16.086,7.202-16.086,16.086
		c0,5.375,2.646,10.121,6.696,13.042h137.97h136.443c4.05-2.921,6.696-7.667,6.696-13.042
		C369.837,486.074,362.635,478.872,353.751,478.872z"/>
</g>
<g id="Layer_8">
	<path fill="#89999B" d="M482.59,228.773h-50.164c-7.953,0-14.4-6.447-14.4-14.4v-30.218c0-7.953,6.447-14.4,14.4-14.4h50.164
		c7.953,0,14.4,6.447,14.4,14.4v30.218C496.99,222.326,490.543,228.773,482.59,228.773z"/>
</g>
<g id="Layer_9_1_">
	<path fill="#7DC437" d="M249.772,339.437h-46.149c-65.526,0-118.644-53.119-118.644-118.644V106.4c0-27.835,22.565-50.4,50.4-50.4
		h182.637c27.835,0,50.4,22.565,50.4,50.4v114.393C368.417,286.318,315.298,339.437,249.772,339.437z"/>
</g>
<g id="Layer_10_1_">
	<path fill="#E5E4DF" d="M274.565,287.946h-95.734c-51.833,0-93.852-42.019-93.852-93.852V106.4c0-27.835,22.565-50.4,50.4-50.4
		h182.637c27.835,0,50.4,22.565,50.4,50.4v87.695C368.417,245.928,326.398,287.946,274.565,287.946z"/>
</g>
<g id="Layer_11">
	<path fill="#8CA3AF" d="M285.454,289.79H167.942c-22.174,0-40.15-17.976-40.15-40.15v-94.727h197.814v94.727
		C325.605,271.814,307.629,289.79,285.454,289.79z"/>
</g>
<g id="Layer_12">
	<path fill="#59CAFC" d="M279.475,224.478H173.921c-25.477,0-46.13-20.653-46.13-46.13v-57.236c0-20.464,16.59-37.054,37.054-37.054
		h123.705c20.464,0,37.054,16.59,37.054,37.054v57.236C325.605,203.825,304.952,224.478,279.475,224.478z"/>
</g>
<g id="Layer_13">
	<path fill="#575A5B" d="M325.605,126.073H127.791v-5.062c0-20.409,16.545-36.953,36.953-36.953h123.907
		c20.409,0,36.953,16.545,36.953,36.953V126.073z"/>
</g>
<g id="Layer_14">
	<path fill="#8CA3AF" d="M242.537,115.244h-35.846c-5.622,0-10.179-4.557-10.179-10.179s4.557-10.179,10.179-10.179h35.846
		c5.622,0,10.179,4.557,10.179,10.179S248.159,115.244,242.537,115.244z"/>
</g>
<g id="Layer_15">
	<path fill="#FFD469" d="M181.95,256.779c0,12.119-9.824,21.943-21.943,21.943c-12.119,0-21.943-9.824-21.943-21.943
		c0-12.119,9.824-21.943,21.943-21.943C172.126,234.836,181.95,244.66,181.95,256.779z M293.389,234.836
		c-12.119,0-21.943,9.824-21.943,21.943c0,12.119,9.824,21.943,21.943,21.943c12.119,0,21.943-9.824,21.943-21.943
		C315.333,244.66,305.508,234.836,293.389,234.836z M477.1,203.475v-8.423c0-3.976-3.224-7.2-7.2-7.2h-24.783
		c-3.976,0-7.2,3.224-7.2,7.2v8.423c0,3.976,3.224,7.2,7.2,7.2H469.9C473.876,210.675,477.1,207.451,477.1,203.475z"/>
</g>
</svg>
