<?xml version="1.0" encoding="iso-8859-1"?>
<!-- Generator: Adobe Illustrator 18.1.0, SVG Export Plug-In . SVG Version: 6.00 Build 0)  -->
<!DOCTYPE svg PUBLIC "-//W3C//DTD SVG 1.1//EN" "http://www.w3.org/Graphics/SVG/1.1/DTD/svg11.dtd">
<svg version="1.1" xmlns="http://www.w3.org/2000/svg" xmlns:xlink="http://www.w3.org/1999/xlink" x="0px" y="0px"
	 viewBox="0 0 512 512" enable-background="new 0 0 512 512" xml:space="preserve">
<g id="Layer_2">
	<path fill="#EBECED" d="M414.106,33.134H309.363V32.06c0-12.764-10.347-23.111-23.111-23.111h-63.47
		c-12.764,0-23.111,10.347-23.111,23.111v1.074H96.049c-23.7,0-42.912,19.266-42.912,43.032v321.021
		c0,23.766,19.213,43.032,42.912,43.032h318.057c23.7,0,42.912-19.266,42.912-43.032V76.166
		C457.018,52.4,437.806,33.134,414.106,33.134z"/>
</g>
<g id="Layer_3">
	<path fill="#9BA5A8" d="M506.329,138.554v76.944c0,3.976-3.224,7.2-7.2,7.2h-19.98c-3.977,0-7.2-3.224-7.2-7.2v-10.905h-26.388
		v-13.691h26.388v-27.753h-26.388v-13.691h26.388v-10.905c0-3.976,3.224-7.2,7.2-7.2h19.98
		C503.105,131.354,506.329,134.577,506.329,138.554z M64.65,163.149v-13.691H38.262v-10.905c0-3.976-3.224-7.2-7.2-7.2h-19.98
		c-3.976,0-7.2,3.224-7.2,7.2v76.944c0,3.976,3.224,7.2,7.2,7.2h19.98c3.976,0,7.2-3.224,7.2-7.2v-10.905H64.65v-13.691H38.262
		v-27.753H64.65z"/>
</g>
<g id="Layer_4">
	<path fill="#2B3B47" d="M136.005,501.552h-23.529c-13.182,0-23.868-10.686-23.868-23.868v-49.201
		c0-13.182,10.686-23.868,23.868-23.868h23.529c13.182,0,23.868,10.686,23.868,23.868v49.201
		C159.873,490.866,149.187,501.552,136.005,501.552z M420.426,477.684v-49.201c0-13.182-10.686-23.868-23.868-23.868h-23.529
		c-13.182,0-23.868,10.686-23.868,23.868v49.201c0,13.182,10.686,23.868,23.868,23.868h23.529
		C409.74,501.552,420.426,490.866,420.426,477.684z"/>
</g>
<g id="Layer_5">
	<path fill="#FFD469" d="M438.546,382.211H71.61c-10.202,0-18.473-8.27-18.473-18.473V229.28h403.882v134.458
		C457.018,373.94,448.748,382.211,438.546,382.211z"/>
</g>
<g id="Layer_6">
	<path fill="#FFAB24" d="M457.018,407.33c0,18.164-14.725,32.889-32.889,32.889H85.758c-18.164,0-32.889-14.725-32.889-32.889
		v-93.372h404.15V407.33z M288.133,35.423v-0.417c0-6.309-5.115-11.424-11.424-11.424h-43.53c-6.309,0-11.424,5.115-11.424,11.424
		v0.417c0,6.309,5.115,11.424,11.424,11.424h43.53C283.018,46.848,288.133,41.733,288.133,35.423z"/>
</g>
<g id="Layer_7">
	<path fill="#FF473E" d="M52.868,346.757h34.83v36.874c0,4.615-3.741,8.357-8.357,8.357H52.868V346.757z M422.189,384.73
		c0,4.615,3.741,8.357,8.357,8.357h26.473v-46.33h-34.83V384.73z"/>
</g>
<g id="Layer_8">
	<path fill="#FFFFFF" d="M160.782,381.886H87.698v-35.129h73.083V381.886z M421.335,346.757h-73.083v35.129h73.083V346.757z"/>
</g>
<g id="Layer_9">
	<path fill="#2B3B47" d="M322.822,357.035H186.211c-3.976,0-7.2-3.224-7.2-7.2v-2.923h151.011v2.923
		C330.022,353.811,326.798,357.035,322.822,357.035z M330.022,375.074v-0.181c0-2.745-2.225-4.971-4.971-4.971H183.982
		c-2.745,0-4.971,2.225-4.971,4.971v0.181c0,2.745,2.225,4.971,4.971,4.971h141.069
		C327.796,380.044,330.022,377.819,330.022,375.074z M435.768,90.903H74.119c-11.736,0-21.25,9.514-21.25,21.25v131.901
		c0,8.841,7.167,16.007,16.007,16.007h372.135c8.841,0,16.007-7.167,16.007-16.007V112.154
		C457.018,100.417,447.504,90.903,435.768,90.903z"/>
</g>
<g id="Layer_10">
	<path fill="#9BA5A8" d="M456.071,466.067H52.907c-6.117,0-11.076-4.959-11.076-11.076v-30.728c0-6.117,4.959-11.076,11.076-11.076
		h403.165c6.117,0,11.076,4.959,11.076,11.076v30.728C467.147,461.108,462.188,466.067,456.071,466.067z"/>
</g>
<g id="Layer_11">
	<path fill="#00B1FF" d="M420.376,111.536H88.657c-6.872,0-12.443,5.571-12.443,12.443V232.23c0,3.976,3.224,7.2,7.2,7.2h342.205
		c3.976,0,7.2-3.224,7.2-7.2V123.979C432.819,117.107,427.248,111.536,420.376,111.536z"/>
</g>
</svg>
