<?xml version="1.0" encoding="utf-8"?>
<!-- Generator: Adobe Illustrator 18.1.0, SVG Export Plug-In . SVG Version: 6.00 Build 0)  -->
<!DOCTYPE svg PUBLIC "-//W3C//DTD SVG 1.0//EN" "http://www.w3.org/TR/2001/REC-SVG-20010904/DTD/svg10.dtd">
<svg version="1.0" id="Layer_1" xmlns="http://www.w3.org/2000/svg" xmlns:xlink="http://www.w3.org/1999/xlink" x="0px" y="0px"
	 width="72px" height="72px" viewBox="0 0 72 72" enable-background="new 0 0 72 72" xml:space="preserve">
<path fill="#2B3B47" d="M25.6,66.2c-0.1,0-0.1,0-0.1-0.1c-0.1-0.3-0.3-0.9-0.6-0.9c-0.1,0-0.1-0.1-0.2-0.1c0-0.1,0.1-0.1,0.1-0.2
	c0.6,0,0.8,1,0.8,1.1C25.7,66.1,25.7,66.2,25.6,66.2C25.6,66.2,25.6,66.2,25.6,66.2z M24.7,66.3c0.1,0,0.1-0.1,0.1-0.2
	c0-0.1-0.3-1.1-0.8-1.1c-0.1,0-0.1,0.1-0.1,0.2c0,0.1,0.1,0.1,0.1,0.1c0,0,0,0,0,0c0.3,0,0.5,0.6,0.5,0.9
	C24.5,66.3,24.6,66.4,24.7,66.3C24.7,66.4,24.7,66.3,24.7,66.3z M30.4,66.6c-0.1-0.1-0.3-0.1-0.4,0c-0.7,0.6-1.6,0.7-2.4,0.3
	c-0.4-0.2-0.7-0.5-0.9-0.8c-0.2,0.1-0.4,0.1-0.5,0.1c0.3,0.5,0.7,0.9,1.3,1.2c0.4,0.2,0.8,0.3,1.2,0.3c0.6,0,1.3-0.2,1.8-0.7
	C30.5,66.9,30.5,66.7,30.4,66.6z M48.8,66.8c0.1-0.2,0.7-0.1,1,0c0.1,0,0.2,0,0.2-0.1c0-0.1,0-0.2-0.1-0.2c-0.1,0-1.1-0.4-1.4,0.2
	c0,0.1,0,0.2,0.1,0.2c0,0,0,0,0.1,0C48.7,66.9,48.7,66.9,48.8,66.8z M48.4,67.7c0.1-0.2,0.7-0.1,1,0c0.1,0,0.2,0,0.2-0.1
	c0-0.1,0-0.2-0.1-0.2c-0.1,0-1.1-0.4-1.4,0.2c0,0.1,0,0.2,0.1,0.2c0,0,0,0,0.1,0C48.3,67.7,48.4,67.7,48.4,67.7z M53.1,63.1
	c0-0.1-0.2-0.2-0.3-0.2c-0.1,0-0.2,0.2-0.2,0.3c0.1,0.9-0.2,1.7-1,2.2c-0.4,0.2-0.8,0.4-1.2,0.4c0,0.2-0.1,0.4-0.2,0.5
	c0.1,0,0.1,0,0.2,0c0.5,0,1-0.2,1.5-0.5C52.8,65.3,53.3,64.2,53.1,63.1z"/>
</svg>
