<?xml version="1.0" encoding="iso-8859-1"?>
<!-- Generator: Adobe Illustrator 18.1.1, SVG Export Plug-In . SVG Version: 6.00 Build 0)  -->
<!DOCTYPE svg PUBLIC "-//W3C//DTD SVG 1.1//EN" "http://www.w3.org/Graphics/SVG/1.1/DTD/svg11.dtd">
<svg version="1.1" xmlns="http://www.w3.org/2000/svg" xmlns:xlink="http://www.w3.org/1999/xlink" x="0px" y="0px"
	 viewBox="0 0 512 512" enable-background="new 0 0 512 512" xml:space="preserve">
<g id="Layer_3">
	<g>
		<path fill="#FF473E" d="M255.107,44.894c56.388,0,109.402,21.959,149.274,61.832c39.873,39.873,61.831,92.886,61.831,149.274
			s-21.959,109.402-61.831,149.274c-39.872,39.873-92.886,61.831-149.274,61.831s-109.402-21.959-149.274-61.831
			C65.96,365.402,44.001,312.388,44.001,256s21.959-109.402,61.832-149.274C145.705,66.853,198.718,44.894,255.107,44.894
			 M255.107,1.894C114.768,1.894,1.001,115.661,1.001,256s113.767,254.106,254.106,254.106S509.213,396.339,509.213,256
			S395.446,1.894,255.107,1.894L255.107,1.894z"/>
	</g>
</g>
<g id="Layer_1">
</g>
</svg>
