<?xml version="1.0" encoding="iso-8859-1"?>
<!-- Generator: Adobe Illustrator 18.1.1, SVG Export Plug-In . SVG Version: 6.00 Build 0)  -->
<!DOCTYPE svg PUBLIC "-//W3C//DTD SVG 1.1//EN" "http://www.w3.org/Graphics/SVG/1.1/DTD/svg11.dtd">
<svg version="1.1" xmlns="http://www.w3.org/2000/svg" xmlns:xlink="http://www.w3.org/1999/xlink" x="0px" y="0px"
	 viewBox="0 0 512 512" enable-background="new 0 0 512 512" xml:space="preserve">
<g id="Layer_2">
	<path fill="#2B3B47" d="M457.568,496.212h-55.304c-11.735,0-21.249-9.513-21.249-21.249v-83.265
		c0-11.735,9.513-21.249,21.249-21.249h55.304c11.735,0,21.249,9.513,21.249,21.249v83.265
		C478.817,486.698,469.304,496.212,457.568,496.212z M131.318,474.963v-83.265c0-11.735-9.513-21.249-21.249-21.249H54.765
		c-11.735,0-21.249,9.513-21.249,21.249v83.265c0,11.735,9.513,21.249,21.249,21.249h55.304
		C121.805,496.212,131.318,486.698,131.318,474.963z"/>
</g>
<g id="Layer_3">
	<path fill="#0096D1" d="M14.215,162.34l38.656-2.037c7.024-0.37,12.871,7.03,12.871,16.288v20.708
		c0,9.258-5.847,16.658-12.871,16.288l-38.656-2.037c-6.638-0.35-11.882-7.539-11.882-16.288v-16.635
		C2.333,169.878,7.578,162.689,14.215,162.34z M510,195.262v-16.635c0-8.749-5.244-15.938-11.882-16.288l-38.656-2.037
		c-7.024-0.37-12.871,7.03-12.871,16.288v20.708c0,9.258,5.847,16.658,12.871,16.288l38.656-2.037
		C504.756,211.2,510,204.011,510,195.262z"/>
</g>
<g id="Layer_4">
	<path fill="#00B1FF" d="M475.685,234.033l0.269,0c-5.691-23.763-9.862-36.122-12.446-48.815
		c-5.411-26.579-13.728-52.483-25.716-76.814l-4.409-8.949c-11.906-24.166-36.507-39.47-63.447-39.47H142.342
		c-27.019,0-51.678,15.393-63.544,39.667l-4.763,9.743c-11.64,23.811-19.892,49.092-25.122,75.075
		c-2.589,12.863-6.808,25.386-12.584,49.294l0.785,0c-9.224,5.302-15.441,15.246-15.441,26.649v129.969
		c0,16.969,13.756,30.725,30.725,30.725h407.538c16.969,0,30.725-13.756,30.725-30.725V260.414
		C490.66,249.203,484.653,239.399,475.685,234.033z"/>
</g>
<g id="Layer_5">
	<path fill="#597B91" d="M477.702,435.734H32.913c-12.291,0-22.255-9.964-22.255-22.255v-16.791
		c0-12.291,9.964-22.255,22.255-22.255h444.789c12.291,0,22.255,9.964,22.255,22.255v16.791
		C499.957,425.77,489.993,435.734,477.702,435.734z"/>
</g>
<g id="Layer_6">
	<path fill="#9BA5A8" d="M215.221,301.566h81.682c4.318,0,5.289,9.287,1.185,11.341c-9.663,4.833-23.639,9.379-42.026,9.379
		s-32.363-4.546-42.026-9.379C209.932,310.853,210.904,301.566,215.221,301.566z"/>
</g>
<g id="Layer_7">
	<path fill="#FFB636" d="M132.146,342.003H45.175c-6.151,0-11.137-4.986-11.137-11.137v-26.104c0-6.891,6.194-12.128,12.989-10.982
		l83.074,14.006c4.1,0.691,7.474,3.609,8.749,7.567l3.897,12.098C145.064,334.641,139.701,342.003,132.146,342.003z
		 M379.141,342.003h88.391c5.944,0,10.763-4.819,10.763-10.763v-26.946c0-6.65-5.971-11.709-12.531-10.617l-84.749,14.114
		c-4.106,0.684-7.449,3.674-8.586,7.678l-3.642,12.832C366.837,335.172,371.998,342.003,379.141,342.003z"/>
</g>
<g id="Layer_8">
	<path fill="#FF473E" d="M92.48,343.002H46.069c-8.337,0-15.096-6.759-15.096-15.096v-20.278c0-9.282,8.297-16.365,17.464-14.909
		l33.366,6.239 M419.853,343.002h46.411c8.337,0,15.096-6.759,15.096-15.096v-20.278c0-9.282-8.297-16.365-17.464-14.909
		l-33.366,6.239"/>
</g>
<g id="Layer_9">
	<path fill="#FFFFFF" d="M425.005,112.81l8.131,44.978c3.855,21.327-13.976,40.299-35.506,37.815
		c-34.996-4.037-81.933-8.659-141.568-8.659c-59.641,0-106.583,4.622-141.58,8.66c-21.527,2.484-39.357-16.482-35.507-37.807
		l8.119-44.979c2.775-15.371,16.155-26.552,31.775-26.552h274.363C408.849,86.266,422.227,97.443,425.005,112.81z M82.335,288.83
		c-18.185,0-32.927,14.742-32.927,32.927c0,18.185,14.742,32.927,32.927,32.927s32.927-14.742,32.927-32.927
		C115.262,303.572,100.52,288.83,82.335,288.83z M397.071,321.757c0,18.185,14.742,32.927,32.927,32.927
		c18.185,0,32.927-14.742,32.927-32.927c0-18.185-14.742-32.927-32.927-32.927C411.813,288.83,397.071,303.572,397.071,321.757z"/>
</g>
<g id="Layer_10">
	<path fill="#00B1FF" d="M100.135,321.757c0,9.831-7.969,17.8-17.8,17.8s-17.8-7.969-17.8-17.8c0-9.831,7.969-17.8,17.8-17.8
		S100.135,311.926,100.135,321.757z M412.198,321.757c0,9.831,7.969,17.8,17.8,17.8c9.831,0,17.8-7.969,17.8-17.8
		c0-9.831-7.969-17.8-17.8-17.8C420.168,303.957,412.198,311.926,412.198,321.757z"/>
</g>
<g id="Layer_11">
	<path fill="#8A8D8E" d="M256.047,179.803c0,0,0.558-0.061,1.605-0.174c1.047-0.103,2.583-0.303,4.537-0.468
		c1.955-0.168,4.328-0.414,7.051-0.602c2.723-0.198,5.794-0.461,9.145-0.64c3.351-0.188,6.981-0.452,10.821-0.594
		c3.84-0.15,7.889-0.39,12.078-0.49c4.189-0.114,8.518-0.233,12.917-0.353c4.399-0.051,8.868-0.103,13.337-0.154
		c4.469-0.089,8.938,0.018,13.337,0.017c2.2,0.019,4.382,0.008,6.538,0.052c2.156,0.051,4.286,0.101,6.381,0.15
		c2.095,0.049,4.155,0.098,6.171,0.145c2.017,0.082,3.989,0.161,5.91,0.239c1.921,0.079,3.789,0.156,5.596,0.23
		c1.807,0.103,3.553,0.203,5.229,0.298c1.676,0.098,3.283,0.192,4.81,0.281c1.528,0.115,2.977,0.224,4.339,0.326
		c2.724,0.19,5.099,0.409,7.055,0.594c1.956,0.165,3.493,0.362,4.54,0.473c1.048,0.117,1.607,0.179,1.607,0.179l0.424,0.047
		c1.91,0.213,3.285,1.934,3.072,3.844c-0.199,1.779-1.723,3.094-3.472,3.093c0,0-8.938-0.036-22.345-0.09
		c-13.407,0.011-31.283,0.025-49.158,0.04c-17.875,0.11-35.751,0.219-49.157,0.302c-13.406,0.142-22.344,0.236-22.344,0.236
		c-1.923,0.02-3.498-1.522-3.518-3.444c-0.019-1.803,1.336-3.3,3.09-3.497L256.047,179.803z"/>
</g>
<g id="Layer_12">
	<path fill="#0074A8" d="M157.93,269.212c0,0-1.194-0.7-3.184-2.034c-1.001-0.66-2.206-1.474-3.555-2.445
		c-1.365-0.952-2.885-2.049-4.516-3.275c-3.266-2.448-6.994-5.393-10.89-8.657c-1.947-1.633-3.935-3.347-5.938-5.107
		c-1.991-1.773-4.011-3.578-5.994-5.423c-2.001-1.826-3.959-3.698-5.894-5.532c-1.92-1.852-3.802-3.681-5.598-5.481
		c-1.797-1.798-3.522-3.549-5.133-5.237c-1.619-1.679-3.125-3.293-4.503-4.798c-1.388-1.493-2.609-2.917-3.715-4.154
		c-1.111-1.231-2.025-2.365-2.804-3.27c-1.534-1.835-2.371-2.928-2.371-2.928c-0.444-0.579-0.333-1.409,0.246-1.852
		c0.449-0.344,1.051-0.353,1.504-0.071c0,0,1.166,0.73,3.137,2.086c0.974,0.69,2.188,1.494,3.518,2.485
		c1.335,0.985,2.868,2.067,4.484,3.309c1.627,1.23,3.376,2.578,5.199,4.033c1.832,1.445,3.737,2.999,5.696,4.619
		c1.96,1.619,3.958,3.322,5.982,5.059c2.008,1.755,4.056,3.529,6.061,5.349c2.023,1.801,4.009,3.643,5.961,5.459
		c1.94,1.829,3.833,3.648,5.641,5.433c3.615,3.573,6.897,7.008,9.64,10.03c1.373,1.509,2.608,2.919,3.684,4.189
		c1.092,1.252,2.016,2.375,2.767,3.31c1.515,1.857,2.324,2.98,2.324,2.98c0.429,0.595,0.294,1.426-0.301,1.855
		C158.939,269.461,158.37,269.469,157.93,269.212z M350.867,268.738c0.371,0.633,1.185,0.845,1.818,0.474c0,0,1.194-0.7,3.184-2.034
		c1.001-0.66,2.206-1.474,3.555-2.445c1.365-0.952,2.885-2.049,4.516-3.275c3.266-2.448,6.994-5.393,10.89-8.657
		c1.947-1.633,3.935-3.347,5.938-5.107c1.991-1.773,4.011-3.578,5.994-5.423c2.001-1.826,3.959-3.698,5.894-5.532
		c1.92-1.852,3.802-3.681,5.598-5.481c1.797-1.798,3.522-3.549,5.133-5.237c1.619-1.679,3.125-3.293,4.503-4.798
		c1.388-1.493,2.609-2.917,3.715-4.154c1.111-1.231,2.025-2.365,2.804-3.27c1.534-1.835,2.371-2.928,2.371-2.928
		c0.324-0.425,0.371-1.025,0.071-1.504c-0.387-0.618-1.203-0.806-1.821-0.419c0,0-1.166,0.73-3.137,2.086
		c-0.974,0.69-2.188,1.494-3.518,2.485c-1.335,0.985-2.868,2.067-4.484,3.309c-1.627,1.23-3.376,2.578-5.199,4.033
		c-1.832,1.445-3.737,2.999-5.696,4.619c-1.96,1.619-3.958,3.322-5.982,5.059c-2.008,1.755-4.056,3.529-6.061,5.349
		c-2.023,1.801-4.009,3.643-5.961,5.459c-1.94,1.829-3.833,3.648-5.641,5.433c-3.615,3.573-6.897,7.008-9.64,10.03
		c-1.373,1.509-2.608,2.919-3.684,4.189c-1.092,1.252-2.016,2.375-2.767,3.31c-1.515,1.857-2.324,2.98-2.324,2.98
		C350.638,267.703,350.592,268.271,350.867,268.738z"/>
</g>
<g id="Layer_13">
	<path fill="#2B3B47" d="M171.158,288.83h169.808c9.626,0,11.791,20.705,2.641,25.282c-21.542,10.775-46.554,20.91-87.545,20.91
		s-66.003-10.135-87.545-20.91C159.367,309.535,161.533,288.83,171.158,288.83z M272.436,187.02
		c-3.846-4.798-9.746-7.877-16.373-7.877c-6.627,0-12.527,3.08-16.373,7.877H272.436z M334.78,400.356v-5.876
		c0-2.578-2.09-4.669-4.669-4.669H180.504c-2.578,0-4.669,2.09-4.669,4.669v5.876c0,11.045,8.953,19.998,19.998,19.998h118.949
		C325.827,420.354,334.78,411.401,334.78,400.356z"/>
</g>
</svg>
