<?xml version="1.0" encoding="utf-8"?>
<!-- Generator: Adobe Illustrator 18.0.0, SVG Export Plug-In . SVG Version: 6.00 Build 0)  -->
<!DOCTYPE svg PUBLIC "-//W3C//DTD SVG 1.1 Tiny//EN" "http://www.w3.org/Graphics/SVG/1.1/DTD/svg11-tiny.dtd">
<svg version="1.1" baseProfile="tiny" id="Layer_1" xmlns="http://www.w3.org/2000/svg" xmlns:xlink="http://www.w3.org/1999/xlink"
	 x="0px" y="0px" width="511.9px" height="511.9px" viewBox="0 0 511.9 511.9" xml:space="preserve">
<path fill="#F2A74E" d="M408.7,150.8c-3.1,0-6-1.8-7.2-4.9c-3.2-8.1-9.8-14.4-18-17.4c-8.2-3-17.3-2.3-25,1.8
	c-3.7,2-8.4,0.6-10.4-3.1c-2-3.7-0.6-8.4,3.1-10.4c11.5-6.2,25.2-7.2,37.6-2.7c12.4,4.5,22.2,14.1,27,26.2c1.6,4-0.4,8.4-4.3,10
	C410.6,150.7,409.7,150.8,408.7,150.8z"/>
<path fill="#F2A74E" d="M102.8,150.8c-0.9,0-1.9-0.2-2.8-0.5c-4-1.6-5.9-6-4.3-10c4.8-12.2,14.6-21.7,27-26.2
	c12.4-4.5,26.1-3.5,37.6,2.7c3.7,2,5.1,6.7,3.1,10.4c-2,3.7-6.7,5.1-10.4,3.1c-7.6-4.1-16.7-4.8-25-1.8c-8.2,3-14.8,9.4-18,17.4
	C108.8,149,105.9,150.8,102.8,150.8z"/>
</svg>
