<?xml version="1.0" encoding="utf-8"?>
<!-- Generator: Adobe Illustrator 16.0.4, SVG Export Plug-In . SVG Version: 6.00 Build 0)  -->
<!DOCTYPE svg PUBLIC "-//W3C//DTD SVG 1.1//EN" "http://www.w3.org/Graphics/SVG/1.1/DTD/svg11.dtd">
<svg version="1.1" id="Layer_1" xmlns="http://www.w3.org/2000/svg" xmlns:xlink="http://www.w3.org/1999/xlink" x="0px" y="0px"
	 width="500px" height="500px" viewBox="0 0 500 500" enable-background="new 0 0 500 500" xml:space="preserve">
<path fill="#F04C44" d="M159.8,318.1c-1.6,1.5-8.7,8.3-14.4,14.2c-2.1,2.1-4,4.2-5.3,5.8c-9.9,12-21.4,25.8-21.4,25.8
	c-14.3,20.5-9.4,48.7,11.2,63.1c20.5,14.3,48.7,9.3,63-11.2c0,0,18-21.5,31.9-38.2c0.5-0.6,1.1-1.3,1.6-1.9
	c3.8-4.6,10.1-12.7,13-16.5C207.5,356.2,178.8,341.4,159.8,318.1"/>
</svg>
