<svg xmlns="http://www.w3.org/2000/svg" viewBox="0 0 512 512" enable-background="new 0 0 512 512"><path fill="#2B3B47" d="M289.207 267.54l8.677-196.768c0-3.338 2.706-6.044 6.044-6.044h160.054v164.955l-28.194 6.107V113.68c0-11.464-9.294-20.758-20.758-20.758h-68.193c-11.464 0-20.758 9.294-20.758 20.758l-8.255 147.662-28.618 6.2zM85.342 357.105c-31.99 0-57.922 25.933-57.922 57.922s25.933 57.922 57.922 57.922 57.922-25.933 57.922-57.922-25.932-57.922-57.922-57.922zm319.91-95.232c-58.287 0-105.538 47.25-105.538 105.538s47.25 105.538 105.538 105.538S510.79 425.698 510.79 367.41s-47.25-105.538-105.538-105.538zm-122.576 16.604H10.58L8.437 301.64h274.238v-23.164zM209.812 113.08c-6.95 0-12.585 1.143-12.585 2.552 0 1.41 5.634 2.55 12.585 2.55s12.585-1.14 12.585-2.55-5.635-2.55-12.585-2.55z"/></svg>