<svg xmlns="http://www.w3.org/2000/svg" viewBox="0 0 512 512" enable-background="new 0 0 512 512"><path fill="#464A4C" d="M106.404 241.302c-58.4 0-105.74 47.342-105.74 105.74s47.34 105.74 105.74 105.74 105.74-47.34 105.74-105.74-47.34-105.74-105.74-105.74zm0 29.218c42.195 0 76.523 34.328 76.523 76.523s-34.328 76.523-76.523 76.523-76.523-34.328-76.523-76.523 34.33-76.523 76.524-76.523m300.487-29.218c-58.398 0-105.74 47.342-105.74 105.74s47.342 105.74 105.74 105.74 105.74-47.34 105.74-105.74-47.34-105.74-105.74-105.74zm0 29.218c42.196 0 76.524 34.328 76.524 76.523s-34.328 76.523-76.523 76.523-76.522-34.328-76.522-76.523 34.328-76.523 76.523-76.523M183.405 148.524c-50.608 0-66.8-21.862-68.48-24.354-2.585-3.84-2.843-8.792-.67-12.878 2.175-4.087 6.427-6.64 11.056-6.64h35.373c6.916 0 12.522 5.605 12.522 12.52 0 2.102-.517 4.08-1.43 5.82 3.544.31 7.413.49 11.63.49 6.915 0 12.52 5.605 12.52 12.52s-5.605 12.522-12.52 12.522zM119.27 347.042c0 7.105-5.76 12.865-12.866 12.865s-12.865-5.76-12.865-12.865 5.76-12.865 12.864-12.865 12.865 5.76 12.865 12.865zm300.398 0c0 7.057-5.72 12.777-12.777 12.777-7.056 0-12.776-5.72-12.776-12.778s5.72-12.777 12.777-12.777c7.058 0 12.778 5.72 12.778 12.777zM293.173 147.466l65.803-5.372c9.994-.816 18.757 6.625 19.573 16.618.815 9.994-6.626 18.757-16.62 19.573-.756.062-1.507.076-2.247.046l-2.448-.12-65.392-3.153c-7.587-.366-13.44-6.813-13.075-14.4.337-6.985 5.827-12.5 12.617-13.047l1.788-.144z"/></svg>