<?xml version="1.0" encoding="utf-8"?>
<!-- Generator: Adobe Illustrator 18.0.0, SVG Export Plug-In . SVG Version: 6.00 Build 0)  -->
<!DOCTYPE svg PUBLIC "-//W3C//DTD SVG 1.1 Tiny//EN" "http://www.w3.org/Graphics/SVG/1.1/DTD/svg11-tiny.dtd">
<svg version="1.1" baseProfile="tiny" id="Layer_1" xmlns="http://www.w3.org/2000/svg" xmlns:xlink="http://www.w3.org/1999/xlink"
	 x="0px" y="0px" width="511.9px" height="511.9px" viewBox="0 0 511.9 511.9" xml:space="preserve">
<path fill="#2B3B47" d="M198.7,232.4c-0.1-0.8-0.4-1.6-0.7-2.4c-6.1-13.6-18.4-22.1-32.3-22.1s-26.3,8.5-32.3,22.1
	c-0.3,0.8-0.6,1.6-0.7,2.4c-1.9,4-1.1,9,2.4,12.1c4.2,3.7,10.7,3.3,14.4-0.9c4.1-4.6,10-7.2,16.2-7.2c0,0,0,0,0,0
	c6.2,0,12.1,2.6,16.2,7.2c2,2.3,4.8,3.4,7.6,3.4c2.4,0,4.8-0.8,6.8-2.6C199.8,241.4,200.7,236.5,198.7,232.4z"/>
<path fill="#2B3B47" d="M386.7,181.9c13.4,0,24.2,10.8,24.2,24.2v54.3c0,13.4-10.8,8.1-24.2,8.1l0,0c-13.4,0-24.2,5.3-24.2-8.1
	v-54.3C362.4,192.8,373.3,181.9,386.7,181.9L386.7,181.9z"/>
</svg>
