<?xml version="1.0" encoding="utf-8"?>
<!-- Generator: Adobe Illustrator 18.0.0, SVG Export Plug-In . SVG Version: 6.00 Build 0)  -->
<!DOCTYPE svg PUBLIC "-//W3C//DTD SVG 1.1 Tiny//EN" "http://www.w3.org/Graphics/SVG/1.1/DTD/svg11-tiny.dtd">
<svg version="1.1" baseProfile="tiny" id="Layer_1" xmlns="http://www.w3.org/2000/svg" xmlns:xlink="http://www.w3.org/1999/xlink"
	 x="0px" y="0px" width="511.9px" height="511.9px" viewBox="0 0 511.9 511.9" xml:space="preserve">
<path fill="#FFD469" d="M255.9,35.3C134,35.3,35.2,134.1,35.2,256c0,3.3,0.1,6.6,0.2,9.9c-12.8,1.7-22.8,12.6-22.8,25.9
	c0,14.5,11.7,26.2,26.2,26.2h5.2c26.8,91.7,111.4,158.7,211.7,158.7c121.8,0,220.6-98.8,220.6-220.6
	C476.5,134.1,377.7,35.3,255.9,35.3z"/>
<path fill="#FFB636" d="M476.2,265.8c0.1-3.3,0.2-6.6,0.2-9.9c0-58.9-23.1-112.5-60.8-152c21.3,34.5,33.6,75.2,33.6,118.8
	c0,125.2-101.5,226.7-226.7,226.7c-43.6,0-84.2-12.3-118.8-33.6c39.6,37.7,93.1,60.8,152,60.8c100.3,0,185-67,211.7-158.7h5.2
	c14.5,0,26.2-11.7,26.2-26.2C499,278.4,489.1,267.5,476.2,265.8z"/>
<path fill="#2B3B47" d="M365.7,189.3c13.4,0,24.2,10.8,24.2,24.2v54.3c0,13.4-10.8,17.5-24.2,17.5l0,0c-13.4,0-24.2-4.1-24.2-17.5
	v-54.3C341.5,200.2,352.3,189.3,365.7,189.3L365.7,189.3z"/>
<path fill="#2B3B47" d="M146.1,189.3c13.4,0,24.2,10.8,24.2,24.2v54.3c0,13.4-10.8,17.5-24.2,17.5l0,0c-13.4,0-24.2-4.1-24.2-17.5
	v-54.3C121.9,200.2,132.7,189.3,146.1,189.3L146.1,189.3z"/>
<path fill="#2B3B47" d="M301.9,371.6h-94.5c-6.8,0-12.3-5.5-12.3-12.3s5.5-12.3,12.3-12.3h94.5c6.8,0,12.3,5.5,12.3,12.3
	S308.6,371.6,301.9,371.6z"/>
<path fill="#F2A74E" d="M168.1,286.6h-44.1c-4.2,0-7.6-3.4-7.6-7.6s3.4-7.6,7.6-7.6h44.1c4.2,0,7.6,3.4,7.6,7.6
	S172.3,286.6,168.1,286.6z"/>
<path fill="#F2A74E" d="M387.2,286.6h-44.1c-4.2,0-7.6-3.4-7.6-7.6s3.4-7.6,7.6-7.6h44.1c4.2,0,7.6,3.4,7.6,7.6
	S391.4,286.6,387.2,286.6z"/>
</svg>
