<?xml version="1.0" encoding="utf-8"?>
<!-- Generator: Adobe Illustrator 18.0.0, SVG Export Plug-In . SVG Version: 6.00 Build 0)  -->
<!DOCTYPE svg PUBLIC "-//W3C//DTD SVG 1.1 Tiny//EN" "http://www.w3.org/Graphics/SVG/1.1/DTD/svg11-tiny.dtd">
<svg version="1.1" baseProfile="tiny" id="Layer_1" xmlns="http://www.w3.org/2000/svg" xmlns:xlink="http://www.w3.org/1999/xlink"
	 x="0px" y="0px" width="511.9px" height="511.9px" viewBox="0 0 511.9 511.9" xml:space="preserve">
<path fill="#2B3B47" d="M171.3,245v37c0,13.4-10.8,24.2-24.2,24.2l0,0c-13.4,0-24.2-10.8-24.2-24.2v-46.8
	C122.9,221.8,171.3,245,171.3,245z"/>
<path fill="#2B3B47" d="M391.5,235.2V282c0,13.4-10.8,24.2-24.2,24.2l0,0c-13.4,0-24.2-10.8-24.2-24.2v-36.4
	C343,245.6,391.5,221.8,391.5,235.2z"/>
<path fill="#2B3B47" d="M220.7,374.6c-3.4,0-6.7-1.7-8.6-4.7c-3-4.7-1.6-11,3.2-14c26.4-16.6,61.8-16.6,88.2,0c4.7,3,6.2,9.2,3.2,14
	c-3,4.7-9.3,6.2-14,3.2c-19.6-12.3-47-12.3-66.6,0C224.4,374.1,222.5,374.6,220.7,374.6z"/>
</svg>
