<?xml version="1.0" encoding="utf-8"?>
<!-- Generator: Adobe Illustrator 18.0.0, SVG Export Plug-In . SVG Version: 6.00 Build 0)  -->
<!DOCTYPE svg PUBLIC "-//W3C//DTD SVG 1.1 Tiny//EN" "http://www.w3.org/Graphics/SVG/1.1/DTD/svg11-tiny.dtd">
<svg version="1.1" baseProfile="tiny" id="Layer_1" xmlns="http://www.w3.org/2000/svg" xmlns:xlink="http://www.w3.org/1999/xlink"
	 x="0px" y="0px" width="511.9px" height="511.9px" viewBox="0 0 511.9 511.9" xml:space="preserve">
<path fill="#2B3B47" d="M279.5,359.4c-1.2-0.7-1.7-0.6-2.4-0.7c-1.1-0.1-10.9-2.8-14.2-2.8c-1.4,0-2.7,0.2-4,0.4
	c-2.3,0.4-4.5,0.4-6.8,0c-1.3-0.2-2.6-0.4-4-0.4c-3.2,0-13.4,2.8-13.4,2.8c-0.6,0-0.9-0.1-2.3,0.3c-0.1-0.1-1.7,1-1.7,1.4l0,0.1
	c0.1-0.6-0.2,0.8-0.1,0.7l0,0.1l0,0.1c0.1,0.3,0.2,0.7,0.3,1c0.3,0.8,0.7,0.8,1,1.3c2.8,2.5,5.8,3.3,8.8,4.5
	c0.9,0.3,1.8,0.5,2.8,0.8c2.9,1.8,7.1,2.9,12,2.9c4.8,0,8.8-1,11.7-2.7c1.8-0.5,3.5-0.9,5-1.6c1.8-0.7,3.4-1.5,4.7-2.2
	c0.6-0.4,1.2-0.8,1.7-1.2c0.7-0.6,1.1-1.2,1.4-1.7c0.3-0.7,0.3-0.8,0.3-0.9l0.1-0.5C280.5,361.3,280.5,360.1,279.5,359.4z"/>
<path fill="#2B3B47" d="M397,235.4c-4.2-3.7-10.7-3.3-14.4,0.9c-4.1,4.6-10,7.2-16.2,7.2c-6.2,0-12.1-2.6-16.2-7.3
	c-3.7-4.2-10.2-4.6-14.4-0.9c-3.4,3-4.2,7.7-2.5,11.7c0.1,0.9,0.3,1.9,0.7,2.8c6.1,13.7,18.5,22.1,32.3,22.1
	c13.9,0,26.3-8.5,32.3-22.1c0.4-0.9,0.6-1.8,0.7-2.8C401.2,243.2,400.4,238.4,397,235.4z"/>
<path fill="#2B3B47" d="M178.5,235.4c-4.2-3.7-10.7-3.4-14.4,0.9c-4.1,4.6-10,7.2-16.2,7.2h0c-6.2,0-12.1-2.6-16.2-7.3
	c-3.7-4.2-10.2-4.6-14.4-0.9c-3.4,3-4.2,7.7-2.5,11.7c0.1,0.9,0.3,1.9,0.7,2.8c6.1,13.7,18.5,22.1,32.3,22.1
	c13.9,0,26.3-8.5,32.3-22.1c0.4-0.9,0.6-1.8,0.7-2.8C182.7,243.2,181.9,238.4,178.5,235.4z"/>
</svg>
