<?xml version="1.0" encoding="utf-8"?>
<!-- Generator: Adobe Illustrator 18.1.0, SVG Export Plug-In . SVG Version: 6.00 Build 0)  -->
<!DOCTYPE svg PUBLIC "-//W3C//DTD SVG 1.0//EN" "http://www.w3.org/TR/2001/REC-SVG-20010904/DTD/svg10.dtd">
<svg version="1.0" id="Layer_1" xmlns="http://www.w3.org/2000/svg" xmlns:xlink="http://www.w3.org/1999/xlink" x="0px" y="0px"
	 width="72px" height="72px" viewBox="0 0 72 72" enable-background="new 0 0 72 72" xml:space="preserve">
<path fill="#00B1FF" d="M30,68.4c0,0,0,0.1-0.1,0.1c-0.3,0.6-0.9,1.8-1.2,2.4c0,0-0.7-0.3-1.8-0.8c-0.1,0-0.1-0.1-0.2-0.1
	C27.5,68.8,28.8,68.2,30,68.4z M24.4,66.1c-0.1,0.1,0,0.3,0.1,0.4c0.1,0.1,0.3,0,0.4-0.1c0.1-0.1,0-0.3-0.1-0.4S24.5,65.9,24.4,66.1
	z M25.3,65.9c-0.1,0.2,0,0.4,0.2,0.4c0.2,0.1,0.4,0,0.4-0.2c0.1-0.2,0-0.4-0.2-0.4C25.6,65.7,25.4,65.7,25.3,65.9z M54.2,64.2
	c0,0-0.1-0.1-0.1-0.1c-0.8,1-1,2.5-0.2,3.6l2-0.9C55.6,66.4,54.7,64.9,54.2,64.2z M49.2,67.7c0.1,0.1,0.3,0.2,0.4,0.1
	c0.1-0.1,0.2-0.3,0.1-0.4c-0.1-0.1-0.3-0.2-0.4-0.1C49.2,67.4,49.2,67.5,49.2,67.7z M49.6,66.8c0.1,0.2,0.3,0.2,0.4,0.1
	c0.2-0.1,0.2-0.3,0.1-0.4c-0.1-0.2-0.3-0.2-0.4-0.1C49.5,66.5,49.5,66.7,49.6,66.8z"/>
</svg>
