<svg xmlns="http://www.w3.org/2000/svg" viewBox="0 0 512 512" enable-background="new 0 0 512 512"><path fill="#606E72" d="M376 508l-99.673-146.41c-11.178 3.73-23.135 5.76-35.568 5.76h-28.122c-12.433 0-24.39-2.03-35.568-5.76L77.395 508H44.788l107.658-158.136c-9.595-6.103-18.207-13.614-25.532-22.253l7.24-10.636c19.53 14.13 43.524 22.463 69.47 22.463h46.15c25.945 0 49.94-8.334 69.468-22.463l7.242 10.637c-7.325 8.64-15.937 16.15-25.532 22.254L408.608 508H376zm93.027-89.37l-.128-.213-100.483-121.885v25.516c0 1.45.438 2.868 1.258 4.065l97.08 141.905c1.342 1.962 3.566 3.135 5.942 3.135H512V418.63h-42.973zm-8.02-215.887h-6.997c-1.988 0-3.6 1.612-3.6 3.6V326.25c0 1.987 1.612 3.6 3.6 3.6h6.998c1.988 0 3.6-1.613 3.6-3.6V206.342c0-1.988-1.612-3.6-3.6-3.6z"/></svg>