<svg xmlns="http://www.w3.org/2000/svg" viewBox="0 0 512 512" enable-background="new 0 0 512 512"><path fill="#59CAFC" d="M231.988 172.667l37.882 21.69c3.595 2.057 5.762 5.496 5.79 9.185l.867 117.29c.046 6.19-5.837 11.228-13.106 11.223l-38.748-.024c-7.23-.003-13.087-4.996-13.087-11.153V181.923c0-8.928 11.703-14.237 20.403-9.256zM37.533 252.585c0 29.612 10.283 57.1 27.858 79.837h112.792c7.233 0 13.097-5.18 13.097-11.572V155.405c0-3.853-2.172-7.454-5.79-9.604l-43.766-25.996c-60.86 20.128-104.19 71.98-104.19 132.78z"/></svg>