<?xml version="1.0" encoding="iso-8859-1"?>
<!-- Generator: Adobe Illustrator 18.1.1, SVG Export Plug-In . SVG Version: 6.00 Build 0)  -->
<!DOCTYPE svg PUBLIC "-//W3C//DTD SVG 1.1//EN" "http://www.w3.org/Graphics/SVG/1.1/DTD/svg11.dtd">
<svg version="1.1" xmlns="http://www.w3.org/2000/svg" xmlns:xlink="http://www.w3.org/1999/xlink" x="0px" y="0px"
	 viewBox="0 0 512 512" enable-background="new 0 0 512 512" xml:space="preserve">
<g id="Layer_2">
	<path fill="#00B1FF" d="M508.333,32.666C508.333,16.35,494.984,3,478.668,3H29.032C14.348,3,2.333,15.015,2.333,29.699v452.602
		C2.333,496.985,14.348,509,29.032,509h449.635c16.316,0,29.666-13.35,29.666-29.666V32.666z"/>
</g>
<g id="Layer_3">
	<path fill="#0096D1" d="M478.668,488.915H29.032c-14.684,0-26.699-12.015-26.699-26.699v20.085
		C2.333,496.985,14.348,509,29.032,509h449.635c16.316,0,29.666-13.35,29.666-29.666v-20.085
		C508.333,475.565,494.984,488.915,478.668,488.915z"/>
</g>
<g id="Layer_4">
	<path fill="#FFFFFF" d="M343.274,217.094h-92.755v-37.073c0-4.128-0.727-8.085-2.057-11.754h50.049
		c12.012,0,21.749-9.737,21.749-21.749v0c0-12.012-9.737-21.749-21.749-21.749H133.52c-12.012,0-21.749,9.737-21.749,21.749v0
		c0,12.012,9.737,21.749,21.749,21.749h50.049c-1.329,3.669-2.057,7.626-2.057,11.754v37.073H86.687c-7.953,0-14.4,6.447-14.4,14.4
		v48.478c0,7.953,6.447,14.4,14.4,14.4h37.909v26.313c0,50.49,40.93,91.42,91.42,91.42h0c50.49,0,91.42-40.93,91.42-91.42v-26.313
		h35.839c15.349,0,27.836,10.755,27.836,23.974v43.784c0,7.953,6.447,14.4,14.4,14.4h48.477c7.953,0,14.4-6.447,14.4-14.4v-43.784
		C448.388,262.516,401.234,217.094,343.274,217.094z"/>
</g>
</svg>
