<?xml version="1.0" encoding="utf-8"?>
<!-- Generator: Adobe Illustrator 18.0.0, SVG Export Plug-In . SVG Version: 6.00 Build 0)  -->
<!DOCTYPE svg PUBLIC "-//W3C//DTD SVG 1.1 Tiny//EN" "http://www.w3.org/Graphics/SVG/1.1/DTD/svg11-tiny.dtd">
<svg version="1.1" baseProfile="tiny" id="Layer_1" xmlns="http://www.w3.org/2000/svg" xmlns:xlink="http://www.w3.org/1999/xlink"
	 x="0px" y="0px" width="511.9px" height="511.9px" viewBox="0 0 511.9 511.9" xml:space="preserve">
<path fill="#FFFFFF" d="M481.4,259.2c-2.7-5-8.9-6.9-13.9-4.3l-87.1,46.2c-9.2-13.6-24.7-22.6-42.4-22.6H173.6
	c-17.7,0-33.2,9-42.4,22.6L44.2,255c-5-2.7-11.2-0.7-13.9,4.3c-2.7,5-0.7,11.2,4.3,13.9l88.9,47.1c-0.6,3-0.9,6.2-0.9,9.4v35.2
	l-44.2,9.1c-5.6,1.1-9.1,6.6-8,12.1c1,4.9,5.3,8.2,10,8.2c0.7,0,1.4-0.1,2.1-0.2l42.3-8.7c6.4,20.9,25.8,36.1,48.8,36.1h164.4
	c23,0,42.4-15.2,48.8-36.1l42.3,8.7c0.7,0.1,1.4,0.2,2.1,0.2c4.8,0,9-3.3,10-8.2c1.1-5.5-2.4-11-8-12.1l-44.2-9.1v-35.2
	c0-3.2-0.3-6.3-0.9-9.4l88.9-47.1C482.2,270.5,484.1,264.3,481.4,259.2z"/>
</svg>
