<?xml version="1.0" encoding="iso-8859-1"?>
<!-- Generator: Adobe Illustrator 18.1.1, SVG Export Plug-In . SVG Version: 6.00 Build 0)  -->
<!DOCTYPE svg PUBLIC "-//W3C//DTD SVG 1.1//EN" "http://www.w3.org/Graphics/SVG/1.1/DTD/svg11.dtd">
<svg version="1.1" xmlns="http://www.w3.org/2000/svg" xmlns:xlink="http://www.w3.org/1999/xlink" x="0px" y="0px"
	 viewBox="0 0 500 500" enable-background="new 0 0 500 500" xml:space="preserve">
<g id="Layer_16">
	<path fill="#E08820" d="M154.837,285.161c0,0-1.216-0.629-3.223-1.862c-1.009-0.611-2.225-1.363-3.587-2.26
		c-1.359-0.901-2.879-1.934-4.507-3.091c-3.258-2.314-6.957-5.127-10.799-8.273c-0.954-0.794-1.924-1.601-2.905-2.418
		c-0.967-0.833-1.945-1.677-2.933-2.526c-1.949-1.727-3.927-3.483-5.857-5.291c-1.953-1.783-3.854-3.625-5.734-5.427
		c-1.861-1.823-3.685-3.627-5.416-5.407c-1.733-1.779-3.396-3.515-4.938-5.196c-1.555-1.669-2.993-3.28-4.306-4.786
		c-1.316-1.501-2.5-2.902-3.533-4.161c-1.044-1.247-1.905-2.389-2.638-3.304c-0.731-0.916-1.266-1.68-1.648-2.18
		c-0.369-0.516-0.566-0.79-0.566-0.79c-0.53-0.739-0.36-1.769,0.38-2.299c0.544-0.39,1.246-0.4,1.79-0.084
		c0,0,0.292,0.17,0.84,0.489c0.533,0.335,1.344,0.795,2.324,1.437c0.979,0.644,2.196,1.394,3.536,2.315
		c1.351,0.911,2.856,1.958,4.474,3.128c1.622,1.165,3.361,2.447,5.169,3.838c1.818,1.379,3.702,2.871,5.636,4.43
		c1.936,1.558,3.901,3.204,5.892,4.886c1.971,1.703,3.981,3.423,5.94,5.2c1.98,1.753,3.915,3.557,5.817,5.336
		c0.938,0.902,1.87,1.798,2.791,2.683c0.905,0.9,1.8,1.791,2.68,2.666c3.493,3.529,6.64,6.949,9.25,9.976
		c1.306,1.513,2.476,2.929,3.5,4.197c1.021,1.272,1.884,2.412,2.587,3.359c1.416,1.882,2.156,3.034,2.156,3.034
		c0.498,0.775,0.272,1.807-0.502,2.305C155.985,285.416,155.349,285.424,154.837,285.161z M343.241,284.445
		c0.423,0.818,1.429,1.139,2.247,0.716c0,0,1.216-0.629,3.223-1.862c1.009-0.611,2.225-1.363,3.587-2.26
		c1.359-0.901,2.879-1.934,4.507-3.091c3.258-2.314,6.957-5.127,10.799-8.273c0.954-0.794,1.924-1.601,2.905-2.418
		c0.967-0.833,1.945-1.677,2.933-2.526c1.949-1.727,3.927-3.483,5.857-5.291c1.953-1.783,3.854-3.625,5.734-5.427
		c1.861-1.823,3.685-3.627,5.416-5.407c1.733-1.779,3.396-3.515,4.938-5.196c1.555-1.669,2.993-3.28,4.306-4.786
		c1.316-1.501,2.5-2.902,3.533-4.161c1.044-1.247,1.905-2.389,2.638-3.304c0.731-0.916,1.266-1.68,1.648-2.18
		c0.369-0.516,0.566-0.79,0.566-0.79c0.365-0.512,0.421-1.211,0.084-1.79c-0.458-0.786-1.467-1.052-2.253-0.594
		c0,0-0.292,0.17-0.84,0.489c-0.533,0.335-1.344,0.795-2.324,1.437c-0.979,0.644-2.196,1.394-3.536,2.315
		c-1.351,0.911-2.856,1.958-4.474,3.128c-1.622,1.165-3.361,2.447-5.169,3.838c-1.818,1.379-3.702,2.871-5.636,4.43
		c-1.936,1.558-3.901,3.204-5.892,4.886c-1.971,1.703-3.981,3.423-5.94,5.2c-1.98,1.753-3.915,3.557-5.817,5.336
		c-0.938,0.902-1.87,1.798-2.791,2.683c-0.905,0.9-1.8,1.791-2.68,2.666c-3.493,3.529-6.64,6.949-9.25,9.976
		c-1.306,1.513-2.476,2.929-3.5,4.197c-1.021,1.272-1.884,2.412-2.587,3.359c-1.416,1.882-2.156,3.034-2.156,3.034
		C343.01,283.264,342.958,283.897,343.241,284.445z M110.21,364.227c-0.922-0.075-1.78,0.539-1.987,1.467
		c-0.227,1.015,0.413,2.021,1.428,2.247c0,0,0.271,0.061,0.798,0.178c0.538,0.116,1.33,0.29,2.348,0.482
		c2.047,0.396,5.038,0.955,8.863,1.549c3.822,0.581,8.467,1.278,13.807,1.904c5.338,0.652,11.367,1.332,17.953,1.906
		c6.584,0.614,13.723,1.194,21.279,1.657c3.778,0.228,7.659,0.461,11.627,0.7c3.967,0.226,8.023,0.366,12.147,0.554
		c8.248,0.266,16.771,0.662,25.433,0.746c8.673,0.178,17.438,0.198,26.279,0.288c8.784-0.09,17.537-0.109,26.226-0.288
		c8.677-0.084,17.196-0.48,25.444-0.746c4.124-0.188,8.18-0.328,12.147-0.554c3.967-0.239,7.849-0.473,11.627-0.7
		c7.557-0.463,14.694-1.043,21.279-1.657c6.586-0.575,12.615-1.254,17.953-1.906c5.341-0.627,9.985-1.323,13.807-1.904
		c3.824-0.594,6.816-1.153,8.863-1.549c1.021-0.192,1.807-0.365,2.338-0.48c0.541-0.12,0.82-0.182,0.82-0.182
		c0.903-0.199,1.544-1.038,1.469-1.986c-0.083-1.036-0.989-1.809-2.025-1.726l-0.077,0.006c0,0-1.073,0.086-3.085,0.246
		c-2.029,0.169-5.031,0.319-8.843,0.554c-3.819,0.201-8.459,0.396-13.783,0.617c-5.326,0.2-11.338,0.374-17.896,0.564
		c-6.562,0.139-13.669,0.289-21.187,0.448c-7.521,0.099-15.452,0.203-23.656,0.312c-8.204,0.047-16.682,0.096-25.296,0.146
		c-8.592,0.097-17.396,0.035-26.168,0.044c-8.714-0.009-17.506,0.054-26.113-0.043c-8.618-0.05-17.1-0.099-25.308-0.146
		c-8.204-0.108-16.136-0.213-23.656-0.312c-7.518-0.159-14.626-0.31-21.187-0.448c-6.559-0.19-12.57-0.364-17.896-0.564
		c-5.324-0.221-9.965-0.416-13.783-0.617c-3.812-0.234-6.813-0.385-8.843-0.554c-2.021-0.162-3.098-0.248-3.098-0.248
		L110.21,364.227z"/>
</g>
<g id="Layer_1">
</g>
</svg>
