<?xml version="1.0" encoding="utf-8"?>
<!-- Generator: Adobe Illustrator 18.0.0, SVG Export Plug-In . SVG Version: 6.00 Build 0)  -->
<!DOCTYPE svg PUBLIC "-//W3C//DTD SVG 1.1 Tiny//EN" "http://www.w3.org/Graphics/SVG/1.1/DTD/svg11-tiny.dtd">
<svg version="1.1" baseProfile="tiny" id="Layer_1" xmlns="http://www.w3.org/2000/svg" xmlns:xlink="http://www.w3.org/1999/xlink"
	 x="0px" y="0px" width="511.9px" height="511.9px" viewBox="0 0 511.9 511.9" xml:space="preserve">
<path fill="#F2A74E" d="M146,300c-8.4,0-16.8-1.8-24.6-5.5c-3.8-1.8-5.4-6.3-3.6-10.1c1.8-3.8,6.3-5.4,10.1-3.6
	c11.8,5.6,25.4,5.4,37.4-0.5c3.8-1.9,8.3-0.3,10.2,3.4c1.9,3.8,0.3,8.3-3.4,10.2C163.9,297.9,154.9,300,146,300z"/>
<path fill="#F2A74E" d="M364.6,300c-8.4,0-16.8-1.8-24.6-5.5c-3.8-1.8-5.4-6.3-3.6-10.1c1.8-3.8,6.3-5.4,10.1-3.6
	c11.8,5.6,25.4,5.4,37.4-0.5c3.8-1.9,8.3-0.3,10.2,3.4c1.9,3.8,0.3,8.3-3.4,10.2C382.4,297.9,373.5,300,364.6,300z"/>
<path fill="#F2A74E" d="M392.3,184.1c-15.3,0-31.1-1.5-38.5-4.8c-3.8-1.7-5.6-6.2-3.9-10c1.7-3.8,6.2-5.6,10-3.9
	c6.3,2.8,29.7,4.6,49.4,2.8c4.2-0.4,7.9,2.7,8.3,6.9c0.4,4.2-2.7,7.9-6.9,8.3C405.1,183.8,398.7,184.1,392.3,184.1z"/>
<path fill="#F2A74E" d="M125.3,184.1c-6.4,0-12.8-0.3-18.5-0.8c-4.2-0.4-7.3-4.1-6.9-8.3c0.4-4.2,4.1-7.2,8.3-6.9
	c19.7,1.9,43.1,0,49.4-2.8c3.8-1.7,8.3,0,10,3.9c1.7,3.8-0.1,8.3-3.9,10C156.4,182.5,140.6,184.1,125.3,184.1z"/>
</svg>
