<?xml version="1.0" encoding="utf-8"?>
<!-- Generator: Adobe Illustrator 16.0.4, SVG Export Plug-In . SVG Version: 6.00 Build 0)  -->
<!DOCTYPE svg PUBLIC "-//W3C//DTD SVG 1.1//EN" "http://www.w3.org/Graphics/SVG/1.1/DTD/svg11.dtd">
<svg version="1.1" id="Layer_1" xmlns="http://www.w3.org/2000/svg" xmlns:xlink="http://www.w3.org/1999/xlink" x="0px" y="0px"
	 width="500px" height="500px" viewBox="0 0 500 500" enable-background="new 0 0 500 500" xml:space="preserve">
<path fill="#F2A84E" d="M168,156.4c-2.1,0-4.2-0.9-5.7-2.6c-5.8-6.6-14.2-10.3-23-10.3h0c-8.8,0-17.2,3.8-23,10.3
	c-2.8,3.2-7.6,3.4-10.8,0.7c-3.2-2.8-3.5-7.6-0.7-10.8c8.7-9.8,21.3-15.5,34.5-15.5h0c13.2,0,25.8,5.6,34.5,15.5
	c2.8,3.2,2.5,8-0.7,10.8C171.6,155.7,169.8,156.4,168,156.4"/>
<path fill="#F2A84E" d="M389.6,156.3c-2.1,0-4.2-0.9-5.7-2.6c-5.8-6.6-14.2-10.3-23-10.3h0c-8.8,0-17.2,3.8-23,10.3
	c-2.8,3.2-7.6,3.4-10.8,0.6c-3.2-2.8-3.4-7.6-0.7-10.8c8.7-9.8,21.3-15.5,34.5-15.5h0c13.2,0,25.8,5.6,34.5,15.5
	c2.8,3.2,2.5,8-0.7,10.8C393.2,155.7,391.4,156.3,389.6,156.3"/>
</svg>
