<svg xmlns="http://www.w3.org/2000/svg" viewBox="0 0 512 512" enable-background="new 0 0 512 512"><path fill="#FF473E" d="M431.383 110.846h-233.44c-19.782 0-38.723 3.172-56.22 8.958L185.49 145.8c3.618 2.15 5.79 5.75 5.79 9.605V320.85c0 6.39-5.865 11.57-13.098 11.57H65.392c-.46-.593.448.6 0 0 28.702 38.375 76.597 61.903 132.55 61.903 52.604 0 99.293-22.373 128.546-56.938 63.803-63.72 10.42-196.39 104.895-196.39 34.104 0 31.376-30.15 0-30.15zM263.42 332.056l-38.748-.025c-7.23-.003-13.087-4.996-13.087-11.153V181.923c0-8.928 11.703-14.238 20.403-9.257l37.882 21.69c3.595 2.057 5.762 5.496 5.79 9.185l.867 117.29c.046 6.19-5.837 11.23-13.106 11.225z"/></svg>