<?xml version="1.0" encoding="utf-8"?>
<!-- Generator: Adobe Illustrator 18.0.0, SVG Export Plug-In . SVG Version: 6.00 Build 0)  -->
<!DOCTYPE svg PUBLIC "-//W3C//DTD SVG 1.1 Tiny//EN" "http://www.w3.org/Graphics/SVG/1.1/DTD/svg11-tiny.dtd">
<svg version="1.1" baseProfile="tiny" id="Layer_1" xmlns="http://www.w3.org/2000/svg" xmlns:xlink="http://www.w3.org/1999/xlink"
	 x="0px" y="0px" width="511.9px" height="511.9px" viewBox="0 0 511.9 511.9" xml:space="preserve">
<path fill="#2B3B47" d="M298.1,374.3c-4.1-8.6-17.6-23.1-42.5-23.1c-24.8,0-38.4,14.5-42.5,23.1c-1.6,3.4-1.6,7.3,0,10.7
	c1.6,3.4,4.6,5.9,8.2,6.9c1.2,0.3,12.3,3.1,32.7,3.1c20.4,0,34.6-2.8,35.2-2.9c3.8-0.8,7-3.2,8.8-6.7
	C299.8,381.9,299.8,377.8,298.1,374.3z"/>
<path fill="#2B3B47" d="M396.1,248.4c-4.3-3.8-10.8-3.4-14.6,0.9c-4.1,4.7-10.1,7.3-16.4,7.3c-6.3,0-12.2-2.7-16.4-7.3
	c-3.8-4.3-10.3-4.7-14.6-0.9c-3.4,3-4.2,7.8-2.5,11.8c0.1,0.9,0.3,1.9,0.7,2.8c6.1,13.8,18.7,22.4,32.7,22.4
	c14,0,26.6-8.6,32.7-22.4c0.4-0.9,0.6-1.9,0.7-2.8C400.3,256.3,399.5,251.5,396.1,248.4z"/>
<path fill="#2B3B47" d="M170.3,248.4c-4.3-3.8-10.8-3.4-14.6,0.9c-4.1,4.7-10.1,7.3-16.4,7.3h0c-6.3,0-12.2-2.7-16.4-7.3
	c-3.8-4.3-10.3-4.7-14.6-0.9c-3.4,3-4.2,7.8-2.5,11.8c0.1,0.9,0.3,1.9,0.7,2.8c6.1,13.8,18.7,22.4,32.7,22.4
	c14,0,26.6-8.6,32.7-22.4c0.4-0.9,0.6-1.9,0.7-2.8C174.6,256.3,173.8,251.5,170.3,248.4z"/>
</svg>
