<?xml version="1.0" encoding="utf-8"?>
<!-- Generator: Adobe Illustrator 18.0.0, SVG Export Plug-In . SVG Version: 6.00 Build 0)  -->
<!DOCTYPE svg PUBLIC "-//W3C//DTD SVG 1.1 Tiny//EN" "http://www.w3.org/Graphics/SVG/1.1/DTD/svg11-tiny.dtd">
<svg version="1.1" baseProfile="tiny" id="Layer_1" xmlns="http://www.w3.org/2000/svg" xmlns:xlink="http://www.w3.org/1999/xlink"
	 x="0px" y="0px" width="511.9px" height="511.9px" viewBox="0 0 511.9 511.9" xml:space="preserve">
<path fill="#FFB636" d="M328.7,177.4c-24.8-0.3-46.8,11.5-60.4,30c-6.6,8.9-19.4,8.9-26,0c-13.6-18.4-35.6-30.3-60.4-30
	c-38.8,0.5-71.4,32.3-72.9,71c-1.5,39.1,27.3,71.7,64.8,76.3c5.1,0.6,9,4.6,9.6,9.6c4.5,35.7,34.9,63.3,71.9,63.3
	c36.7,0,67-27.3,71.8-62.7c0.7-5.4,4.9-9.6,10.3-10.3c37.2-4.8,65.7-37.3,64.2-76.2C400.2,209.7,367.5,177.9,328.7,177.4z"/>
</svg>
