<svg xmlns="http://www.w3.org/2000/svg" viewBox="0 0 512 512" enable-background="new 0 0 512 512"><path fill="#597B91" d="M93.48 433.86c0 14.588-11.827 26.414-26.415 26.414S40.65 448.447 40.65 433.86c0-14.59 11.827-26.416 26.415-26.416S93.48 419.27 93.48 433.86zm72.253-26.416c-14.59 0-26.415 11.827-26.415 26.415s11.827 26.414 26.415 26.414 26.415-11.827 26.415-26.415c0-14.59-11.826-26.416-26.415-26.416zm180.534 0c-14.59 0-26.415 11.827-26.415 26.415s11.827 26.414 26.415 26.414c14.59 0 26.415-11.827 26.415-26.415 0-14.59-11.827-26.416-26.415-26.416zm98.668 0c-14.59 0-26.415 11.827-26.415 26.415s11.827 26.414 26.415 26.414c14.59 0 26.415-11.827 26.415-26.415 0-14.59-11.826-26.416-26.415-26.416z"/></svg>