<?xml version="1.0" encoding="utf-8"?>
<!-- Generator: Adobe Illustrator 18.0.0, SVG Export Plug-In . SVG Version: 6.00 Build 0)  -->
<!DOCTYPE svg PUBLIC "-//W3C//DTD SVG 1.1//EN" "http://www.w3.org/Graphics/SVG/1.1/DTD/svg11.dtd">
<svg version="1.1" id="Layer_1" xmlns="http://www.w3.org/2000/svg" xmlns:xlink="http://www.w3.org/1999/xlink" x="0px" y="0px"
	 width="511.9px" height="511.9px" viewBox="0 0 511.9 511.9" enable-background="new 0 0 511.9 511.9" xml:space="preserve">
<path fill="#F2A74E" d="M134,156.7c-6.2,0-12.4-1.3-18.1-3.8c-3.9-1.7-5.6-6.2-3.9-10c1.7-3.9,6.2-5.6,10-3.9
	c8,3.5,17.1,3.3,25.1-0.4c8-3.7,14-10.6,16.4-19c1.2-4,5.5-6.3,9.5-5.1c4,1.2,6.3,5.4,5.1,9.5c-3.7,12.5-12.7,22.9-24.6,28.4
	C147.3,155.3,140.7,156.7,134,156.7z"/>
<path fill="#F2A74E" d="M375.3,156.7c-6.6,0-13.3-1.4-19.5-4.3c-11.9-5.6-20.9-15.9-24.6-28.4c-1.2-4,1.1-8.3,5.1-9.5
	c4.1-1.2,8.3,1.1,9.5,5.1c2.5,8.3,8.5,15.3,16.4,19c8,3.7,17.1,3.9,25.1,0.4c3.8-1.7,8.3,0.1,10,4c1.7,3.9-0.1,8.3-4,10
	C387.6,155.4,381.5,156.7,375.3,156.7z"/>
<path fill="#F2A74E" d="M144.1,259c-8.4,0-16.8-1.8-24.6-5.5c-3.8-1.8-5.4-6.3-3.6-10.1c1.8-3.8,6.3-5.4,10.1-3.6
	c11.8,5.6,25.4,5.4,37.4-0.5c3.8-1.9,8.3-0.3,10.2,3.4c1.9,3.8,0.3,8.3-3.4,10.2C161.9,256.9,153,259,144.1,259z"/>
<path fill="#F2A74E" d="M363.7,259c-8.4,0-16.8-1.8-24.6-5.5c-3.8-1.8-5.4-6.3-3.6-10.1c1.8-3.8,6.3-5.4,10.1-3.6
	c11.8,5.6,25.4,5.4,37.4-0.5c3.8-1.9,8.3-0.3,10.2,3.4c1.9,3.8,0.3,8.3-3.4,10.2C381.6,256.9,372.6,259,363.7,259z"/>
</svg>
