<?xml version="1.0" encoding="utf-8"?>
<!-- Generator: Adobe Illustrator 18.0.0, SVG Export Plug-In . SVG Version: 6.00 Build 0)  -->
<!DOCTYPE svg PUBLIC "-//W3C//DTD SVG 1.1 Tiny//EN" "http://www.w3.org/Graphics/SVG/1.1/DTD/svg11-tiny.dtd">
<svg version="1.1" baseProfile="tiny" id="Layer_1" xmlns="http://www.w3.org/2000/svg" xmlns:xlink="http://www.w3.org/1999/xlink"
	 x="0px" y="0px" width="511.9px" height="511.9px" viewBox="0 0 511.9 511.9" xml:space="preserve">
<path fill="#2B3B47" d="M180.9,217.2c-0.1-0.9-0.3-1.9-0.7-2.8c-6.1-13.7-18.5-22.1-32.3-22.1c-13.9,0-26.3,8.5-32.3,22.1
	c-0.4,0.9-0.6,1.8-0.7,2.8c-1.7,4-0.9,8.7,2.5,11.7c4.2,3.7,10.7,3.3,14.4-0.9c4.1-4.6,10-7.2,16.2-7.2h0c6.2,0,12.1,2.6,16.2,7.3
	c2,2.3,4.8,3.4,7.6,3.4c2.4,0,4.8-0.8,6.8-2.6C181.9,225.8,182.7,221.1,180.9,217.2z"/>
<path fill="#2B3B47" d="M399.5,217.2c-0.1-0.9-0.3-1.9-0.7-2.8c-6.1-13.7-18.5-22.1-32.3-22.1c-13.9,0-26.3,8.5-32.3,22.1
	c-0.4,0.9-0.6,1.8-0.7,2.8c-1.7,4-0.9,8.7,2.5,11.7c4.2,3.7,10.7,3.3,14.4-0.9c4.1-4.6,10-7.2,16.2-7.2c6.2,0,12.1,2.6,16.2,7.3
	c2,2.3,4.8,3.4,7.7,3.4c2.4,0,4.8-0.8,6.8-2.6C400.4,225.8,401.2,221.1,399.5,217.2z"/>
</svg>
