<svg xmlns="http://www.w3.org/2000/svg" viewBox="0 0 512 512" enable-background="new 0 0 512 512"><path fill="#2B3B47" d="M184.148 359.207c0 31.556-25.58 57.137-57.137 57.137s-57.136-25.58-57.136-57.137 25.58-57.137 57.137-57.137 57.138 25.58 57.138 57.137zm201.514-57.137c-31.556 0-57.137 25.58-57.137 57.137s25.58 57.137 57.137 57.137 57.137-25.58 57.137-57.137-25.582-57.137-57.138-57.137zm-192.687-92.843c-2.784 1.647-5.585 3.508-7.985 5.487l-8.37-25.334-19.673 32.88c-2.735 4.368.4 10.04 5.553 10.048l19.652.02c2.868 2.95 6.97 5.663 11.014 7.91 5.79 3.215 13.65-.136 13.65-5.833v-19.458c0-5.782-8.085-9.126-13.84-5.72zm236.958 23.464c4.343-.012 7.173-4.567 5.26-8.466l-27.438-55.94c-1.687-3.438-5.183-5.617-9.013-5.617h-13.08v70.154l44.27-.13z"/></svg>