<svg xmlns="http://www.w3.org/2000/svg" viewBox="0 0 512 512" enable-background="new 0 0 512 512"><path fill="#FF473E" d="M498.63 264.06l-29.252-22.65-37.29-76.418c-8.132-16.662-25.05-27.23-43.59-27.23H199.953c-16.08 0-30.92 8.635-38.862 22.615l-45.143 79.45c-44.09 1.192-86.09 29.912-86.09 29.912-16.017 7.14-17.25 27.917-17.25 45.454 0 4.287.662 7.763-3.625 7.763s-7.763 3.476-7.763 7.763v27.724c0 4.287 3.474 7.763 7.762 7.763h469.044c18.586 0 33.652-15.067 33.652-33.652v-41.887c0-10.41-4.818-20.235-13.05-26.608z"/></svg>