<?xml version="1.0" encoding="utf-8"?>
<!-- Generator: Adobe Illustrator 18.0.0, SVG Export Plug-In . SVG Version: 6.00 Build 0)  -->
<!DOCTYPE svg PUBLIC "-//W3C//DTD SVG 1.1 Tiny//EN" "http://www.w3.org/Graphics/SVG/1.1/DTD/svg11-tiny.dtd">
<svg version="1.1" baseProfile="tiny" id="Layer_1" xmlns="http://www.w3.org/2000/svg" xmlns:xlink="http://www.w3.org/1999/xlink"
	 x="0px" y="0px" width="511.9px" height="511.9px" viewBox="0 0 511.9 511.9" xml:space="preserve">
<path fill="#2B3B47" d="M311.3,336.9c-0.9,0-1.9-0.1-2.9-0.4c-32.9-9.6-72.3-9.6-105.3,0c-5.4,1.6-11-1.5-12.6-6.9
	c-1.6-5.4,1.5-11,6.9-12.6c36.5-10.7,80.1-10.7,116.6,0c5.4,1.6,8.5,7.2,6.9,12.6C319.8,334,315.7,336.9,311.3,336.9z"/>
<path fill="#2B3B47" d="M397.3,205.6c-4.3-3.8-10.8-3.4-14.6,0.9c-4.1,4.7-10.1,7.3-16.4,7.3c-6.3,0-12.2-2.7-16.4-7.3
	c-3.8-4.3-10.3-4.7-14.6-0.9c-3.4,3-4.2,7.8-2.5,11.8c0.1,0.9,0.3,1.9,0.7,2.8c6.1,13.8,18.7,22.4,32.7,22.4
	c14,0,26.6-8.6,32.7-22.4c0.4-0.9,0.6-1.8,0.7-2.8C401.5,213.4,400.7,208.6,397.3,205.6z"/>
<path fill="#2B3B47" d="M176.3,205.6c-4.3-3.8-10.8-3.4-14.6,0.9c-4.1,4.7-10.1,7.3-16.4,7.3h0c-6.3,0-12.2-2.7-16.4-7.3
	c-3.8-4.3-10.3-4.7-14.6-0.9c-3.4,3-4.2,7.8-2.5,11.8c0.1,0.9,0.3,1.9,0.7,2.8c6.1,13.8,18.7,22.4,32.7,22.4
	c14,0,26.6-8.6,32.7-22.4c0.4-0.9,0.6-1.8,0.7-2.8C180.6,213.4,179.8,208.6,176.3,205.6z"/>
</svg>
