<?xml version="1.0" encoding="iso-8859-1"?>
<!-- Generator: Adobe Illustrator 18.1.0, SVG Export Plug-In . SVG Version: 6.00 Build 0)  -->
<!DOCTYPE svg PUBLIC "-//W3C//DTD SVG 1.1//EN" "http://www.w3.org/Graphics/SVG/1.1/DTD/svg11.dtd">
<svg version="1.1" xmlns="http://www.w3.org/2000/svg" xmlns:xlink="http://www.w3.org/1999/xlink" x="0px" y="0px"
	 viewBox="0 0 512 512" enable-background="new 0 0 512 512" xml:space="preserve">
<g id="Layer_2">
	<path fill="#FFB636" d="M13.102,176.808c6.471,39.616,12.314,53.485,25.548,68.719c13.234,15.234,113.244,79.171,169.453,91.874
		c80.388,18.167,265.716,57.473,273.483-119.522L13.102,176.808z"/>
</g>
<g id="Layer_3">
	<path fill="#FFD469" d="M462.872,189.484c-76.745-29.717-325.71-49.282-424.251-23.891c-12.154,2.354-23.838,6.385-25.519,11.216
		c-7.538,21.663,275.462,113.36,403.407,123.078c4.293,1.052,8.594,0.549,12.341-1.122c0.012-0.002,0.029-0.002,0.041-0.003
		C456.91,294.829,509.871,207.683,462.872,189.484z"/>
</g>
<g id="Layer_4">
	<ellipse fill="#A86D26" cx="426.033" cy="241.942" rx="9.65" ry="5.79"/>
</g>
<g id="Layer_5">
	<path fill="#A86D26" d="M390.517,217.381l-21.268,36.82c-3.345,5.791-9.921,8.912-16.523,7.84l-95.406-15.484
		c-11.125-1.806-17.001-14.188-11.364-23.948l21.268-36.82c3.345-5.791,9.921-8.912,16.523-7.84l95.406,15.484
		C390.278,195.239,396.154,207.622,390.517,217.381z"/>
</g>
<g id="Layer_6">
	<path fill="#2B3B47" d="M426.312,247.733c-0.233,0-0.471-0.021-0.709-0.066c-2.096-0.389-3.479-2.404-3.09-4.5l22.058-118.742
		c0.389-2.095,2.402-3.48,4.5-3.09c2.096,0.389,3.479,2.404,3.09,4.5l-22.058,118.742
		C429.759,246.435,428.137,247.733,426.312,247.733z"/>
</g>
<g id="Layer_7">
	<path fill="#FF473E" d="M447.942,117.992c5.139,8.53,18.304,25.275,42.77,26.006c1.764,0.053,2.647,2.158,1.417,3.423
		c-8.3,8.534-31.759,28.599-54.865,10.919c-0.609-0.466-0.888-1.252-0.735-2.004l7.695-37.707
		C444.594,116.82,446.989,116.41,447.942,117.992z"/>
</g>
<g id="Layer_8">
	<path fill="#B0E9FF" d="M258.896,240.517c3.381-11.461,13.496-32.445,41.967-30.025c4.283,0.364,8.116-2.768,8.539-7.046
		c1.992-20.144,8.681-36.452,21.603-47.67c5.216-4.528,2.782-13.03-4.066-13.937c-11.547-1.529-28.451,1.155-47.865,19.688
		c-27.112,25.882-38.567,58.022-36.395,70.029c1.605,8.868,1.156,12.071,5.542,13.979
		C252.54,247.414,257.564,245.032,258.896,240.517z"/>
</g>
<g id="Layer_9">
	<path fill="#FFB636" d="M347.086,261.151c10.388,1.705,20.316,7.681,37.962-27.611s3.396-53.817-10.574-42.421
		C369.708,195.006,333.551,258.929,347.086,261.151z"/>
</g>
<g id="Layer_10">
	<path fill="#59CAFC" d="M489.617,501.617c6.6,0,12-5.4,12-12V341.037c-32.249,1.53-59.317,1.11-67.557-3.643
		c-30.004-17.306,3.167-32.167-8.869-32.167c-28,0-36.165,22.584-53.964,19.744c-36.001-5.744-2.426-38.761-11.303-38.761
		c-40.698,0-66.982,50.722-92.698,40.517c-31.5-12.5,6.042-55.041-4-55.041c-62,0-93.404,33.464-151.995,56.902
		c-27.208,10.884-71.953,8.055-100.85,4.568v156.46c0,6.6,5.4,12,12,12H489.617z"/>
</g>
</svg>
