<?xml version="1.0" encoding="utf-8"?>
<!-- Generator: Adobe Illustrator 16.0.4, SVG Export Plug-In . SVG Version: 6.00 Build 0)  -->
<!DOCTYPE svg PUBLIC "-//W3C//DTD SVG 1.1//EN" "http://www.w3.org/Graphics/SVG/1.1/DTD/svg11.dtd">
<svg version="1.1" id="Layer_1" xmlns="http://www.w3.org/2000/svg" xmlns:xlink="http://www.w3.org/1999/xlink" x="0px" y="0px"
	 width="500px" height="500px" viewBox="0 0 500 500" enable-background="new 0 0 500 500" xml:space="preserve">
<path fill="#2C3C48" d="M251.8,380.1c-46.1,0-88.5-21.2-113.3-56.6c-3.2-4.6-2.1-10.9,2.5-14.1c4.6-3.2,10.9-2.1,14.1,2.5
	c21,30.1,57.2,48,96.7,48c39.5,0,75.7-17.9,96.7-48c3.2-4.6,9.5-5.7,14.1-2.5c4.6,3.2,5.7,9.5,2.5,14.1
	C340.3,359,297.9,380.1,251.8,380.1"/>
<path fill="#2C3C48" d="M171.7,223.9c-6.1-13.7-18.5-22.3-32.5-22.3c-13.9,0-26.4,8.5-32.5,22.3c-0.4,0.9-0.6,1.8-0.7,2.8
	c-1.7,4-0.9,8.7,2.5,11.7c2,1.7,4.4,2.6,6.8,2.6c2.8,0,5.7-1.2,7.7-3.5c4.1-4.6,10-7.3,16.3-7.3h0c6.2,0,12.2,2.7,16.3,7.3
	c3.8,4.2,10.2,4.6,14.5,0.9c3.4-3,4.2-7.8,2.5-11.7C172.3,225.7,172.1,224.8,171.7,223.9"/>
<path fill="#2C3C48" d="M394,226.6c-0.1-0.9-0.3-1.9-0.7-2.8c-6.1-13.7-18.5-22.3-32.5-22.3h0c-13.9,0-26.4,8.5-32.5,22.3
	c-0.4,0.9-0.6,1.8-0.7,2.8c-1.7,4-1,8.7,2.5,11.7c2,1.7,4.4,2.6,6.8,2.6c2.8,0,5.7-1.2,7.7-3.5c4.1-4.6,10-7.3,16.3-7.3h0
	c6.2,0,12.2,2.7,16.3,7.3c3.8,4.2,10.2,4.6,14.5,0.9C394.9,235.4,395.7,230.6,394,226.6"/>
</svg>
