<?xml version="1.0" encoding="iso-8859-1"?>
<!-- Generator: Adobe Illustrator 18.1.1, SVG Export Plug-In . SVG Version: 6.00 Build 0)  -->
<!DOCTYPE svg PUBLIC "-//W3C//DTD SVG 1.1//EN" "http://www.w3.org/Graphics/SVG/1.1/DTD/svg11.dtd">
<svg version="1.1" xmlns="http://www.w3.org/2000/svg" xmlns:xlink="http://www.w3.org/1999/xlink" x="0px" y="0px"
	 viewBox="0 0 512 512" enable-background="new 0 0 512 512" xml:space="preserve">
<g id="Layer_13">
	<path fill="#543420" d="M61.745,135.811c20.729-5.514,50.845-8.476,51.959-7.968c1.123,0.513-0.139,7.202,1.003,7.829
		c2.382,1.306,4.818,2.864,7.356,4.697c2.346,1.694-0.049,3.61-8.886,6.337c-2.3,0.71,1.892,5.713-0.792,6.47
		c-1.465,0.414-31.022-4.267-19.892,37.575c0.889,3.343-0.183,6.066-3.475,6.942c-2.423,0.644-11.717,3.692-8.856,14.449
		c3.262,12.262-26.198,32.269-27.525,31.438c-8.925-5.592-20.933-22.985-26.025-42.13S25.717,145.395,61.745,135.811z"/>
</g>
<g id="Layer_1">
</g>
</svg>
