<?xml version="1.0" encoding="utf-8" ?>
<!-- Generator: Adobe Illustrator 18.0.0, SVG Export Plug-In . SVG Version: 6.00 Build 0)  -->
<!DOCTYPE svg PUBLIC "-//W3C//DTD SVG 1.1 Tiny//EN" "http://www.w3.org/Graphics/SVG/1.1/DTD/svg11-tiny.dtd">
<svg version="1.1" baseProfile="tiny" id="Layer_1" xmlns="http://www.w3.org/2000/svg" xmlns:xlink="http://www.w3.org/1999/xlink" x="0px" y="0px" width="511.9px" height="511.9px" viewBox="0 0 511.9 511.9" xml:space="preserve">
  <path fill="#FFD469" d="M255.9,35.3C134,35.3,35.2,134.1,35.2,256c0,3.3,0.1,6.6,0.2,9.9c-12.8,1.7-22.8,12.6-22.8,25.9
  c0,14.5,11.7,26.2,26.2,26.2h5.2c26.8,91.7,111.4,158.7,211.7,158.7c121.8,0,220.6-98.8,220.6-220.6
  C476.5,134.1,377.7,35.3,255.9,35.3z" />
  <path fill="#FFB636" d="M476.2,265.8c0.1-3.3,0.2-6.6,0.2-9.9c0-58.9-23.1-112.5-60.8-152c21.3,34.5,33.6,75.2,33.6,118.8
 c0,125.2-101.5,226.7-226.7,226.7c-43.6,0-84.2-12.3-118.8-33.6c39.6,37.7,93.1,60.8,152,60.8c100.3,0,185-67,211.7-158.7h5.2
 c14.5,0,26.2-11.7,26.2-26.2C499,278.4,489.1,267.5,476.2,265.8z" />
  <path fill="#2B3B47" d="M146.1,155.9c13.4,0,24.2,10.8,24.2,24.2v54.3c0,13.4-10.8,24.2-24.2,24.2l0,0c-13.4,0-24.2-10.8-24.2-24.2
 v-54.3C121.9,166.8,132.8,155.9,146.1,155.9L146.1,155.9z" />
  <path fill="#2B3B47" d="M365.8,155.9c13.4,0,24.2,10.8,24.2,24.2v54.3c0,13.4-10.8,24.2-24.2,24.2l0,0c-13.4,0-24.2-10.8-24.2-24.2
 v-54.3C341.5,166.8,352.4,155.9,365.8,155.9L365.8,155.9z" />
  <path fill="#2B3B47" d="M341.4,354c-3.2-30.3-27.2-72.5-82.8-72.5c-57.6,0-81.3,45.3-83.1,75.7c-0.5,8.1,3.3,15.8,9.8,20.7
 c6.5,4.8,15.2,5.9,22.8,3c0.2-0.1,16.6-6.2,47.4-6.2c32.4,0,55.1,6.7,55.3,6.8c2.3,0.7,4.6,1,7,1c0,0,0.1,0,0.1,0
 c13.2,0,23.9-10.7,23.9-23.9C341.8,357.1,341.7,355.5,341.4,354z" />
  <path fill="#F2A74E" d="M407,149.5c-3.3,0-6.4-2.2-7.4-5.5c-2.5-8.3-8.4-15.2-16.4-18.9c-8-3.7-17.1-3.9-25.1-0.4
 c-3.9,1.7-8.4-0.1-10.1-4c-1.7-3.9,0.1-8.4,4-10.1c12-5.2,25.7-5,37.7,0.6c11.9,5.6,20.9,15.9,24.6,28.5c1.2,4.1-1.1,8.4-5.2,9.6
 C408.5,149.4,407.7,149.5,407,149.5z" />
  <path fill="#F2A74E" d="M104.9,149.5c-0.7,0-1.5-0.1-2.2-0.3c-4.1-1.2-6.4-5.5-5.2-9.6c3.7-12.6,12.7-22.9,24.6-28.5
 c11.9-5.6,25.6-5.8,37.6-0.5c3.9,1.7,5.7,6.2,4,10.1c-1.7,3.9-6.2,5.7-10.1,4c-8-3.5-17.1-3.3-25,0.4c-7.9,3.7-13.9,10.6-16.4,18.9
 C111.3,147.4,108.2,149.5,104.9,149.5z" />
</svg>
