<?xml version="1.0" encoding="utf-8"?>
<!-- Generator: Adobe Illustrator 18.0.0, SVG Export Plug-In . SVG Version: 6.00 Build 0)  -->
<!DOCTYPE svg PUBLIC "-//W3C//DTD SVG 1.1 Tiny//EN" "http://www.w3.org/Graphics/SVG/1.1/DTD/svg11-tiny.dtd">
<svg version="1.1" baseProfile="tiny" id="Layer_1" xmlns="http://www.w3.org/2000/svg" xmlns:xlink="http://www.w3.org/1999/xlink"
	 x="0px" y="0px" width="511.9px" height="511.9px" viewBox="0 0 511.9 511.9" xml:space="preserve">
<path fill="#F2A74E" d="M407,149.5c-3.3,0-6.4-2.2-7.4-5.5c-2.5-8.3-8.4-15.2-16.4-18.9c-8-3.7-17.1-3.9-25.1-0.4
	c-3.9,1.7-8.4-0.1-10.1-4c-1.7-3.9,0.1-8.4,4-10.1c12-5.2,25.7-5,37.7,0.6c11.9,5.6,20.9,15.9,24.6,28.5c1.2,4.1-1.1,8.4-5.2,9.6
	C408.5,149.4,407.7,149.5,407,149.5z"/>
<path fill="#F2A74E" d="M104.9,149.5c-0.7,0-1.5-0.1-2.2-0.3c-4.1-1.2-6.4-5.5-5.2-9.6c3.7-12.6,12.7-22.9,24.6-28.5
	c11.9-5.6,25.6-5.8,37.6-0.5c3.9,1.7,5.7,6.2,4,10.1c-1.7,3.9-6.2,5.7-10.1,4c-8-3.5-17.1-3.3-25,0.4c-7.9,3.7-13.9,10.6-16.4,18.9
	C111.3,147.4,108.2,149.5,104.9,149.5z"/>
</svg>
