<?xml version="1.0" encoding="utf-8"?>
<!-- Generator: Adobe Illustrator 18.0.0, SVG Export Plug-In . SVG Version: 6.00 Build 0)  -->
<!DOCTYPE svg PUBLIC "-//W3C//DTD SVG 1.1 Tiny//EN" "http://www.w3.org/Graphics/SVG/1.1/DTD/svg11-tiny.dtd">
<svg version="1.1" baseProfile="tiny" id="Layer_1" xmlns="http://www.w3.org/2000/svg" xmlns:xlink="http://www.w3.org/1999/xlink"
	 x="0px" y="0px" width="511.9px" height="511.9px" viewBox="0 0 511.9 511.9" xml:space="preserve">
<circle fill="#E2A042" cx="254.5" cy="217.6" r="167.4"/>
<path fill="#E2A042" d="M147.3,412.6c0,0,0.1,0.1,0.3,0.2c0,0,0.1,0.1,0.2,0.1l0.1,0.1c0,0,0,0,0,0c0,0,0,0,0,0.1c0,0,0,0.1,0.1,0.1
	l0,0.1c0,0,0,0,0,0c0,0-0.1,0.1-0.2,0.1c-0.4,0-1.1-0.1-2.4-0.5c-1.2-0.4-2.8-1-4.7-1.9c-1.9-0.9-4.1-2-6.4-3.4
	c-2.4-1.4-4.9-3-7.6-4.9c-2.7-1.9-5.4-4.1-8.2-6.5c-1.4-1.2-2.8-2.5-4.2-3.8c-1.4-1.4-2.8-2.7-4.2-4.2c-0.7-0.7-1.4-1.5-2.1-2.2
	c-0.7-0.8-1.3-1.5-2-2.3c-1.4-1.5-2.7-3.2-4-4.8c-0.7-0.8-1.3-1.6-1.9-2.5l-1.9-2.5c-1.2-1.7-2.4-3.5-3.6-5.2
	c-1.1-1.8-2.2-3.6-3.3-5.4c-1-1.8-2.1-3.7-3.1-5.4c-1-1.8-1.8-3.7-2.8-5.5c-0.9-1.8-1.7-3.6-2.5-5.4c-0.8-1.8-1.5-3.5-2.2-5.2
	c-0.7-1.7-1.4-3.4-1.9-5c-1.1-3.2-2.2-6.3-3-8.9c-0.8-2.6-1.6-4.7-2-7.1c-1-4.4-1.6-6.9-1.6-6.9l-1-4.5c-1-4.3-3-8.3-5.7-11.7
	c13.3-30.3,5.1-82.4,5.1-82.4c5.4-32.2,7.9-74-12-77.3c-20-3.3-44.9,26.4-53.8,80c-6.4,38.5-1.6,71.8,9,88.6
	c-0.9,2.7-1.5,5.7-1.6,8.7c0,0-0.1,2.5-0.2,6.9c0,0.6,0,1.1-0.1,1.7c0,0.2,0,0.3,0,0.5c0,0.2,0,0.4,0,0.6c0,0.4,0,0.8,0,1.3
	c0,1.7,0.1,3.6,0.1,5.6c0,4.1,0.3,8.1,0.6,12.8c0.1,2.3,0.4,4.7,0.7,7.2c0.2,2.5,0.5,5,0.9,7.7c0.4,2.6,0.7,5.3,1.2,8.1
	c0.5,2.8,1,5.6,1.6,8.5c0.6,2.9,1.3,5.8,2,8.7c0.8,2.9,1.6,5.9,2.4,8.9c0.9,3,1.8,6,2.9,9c0.5,1.5,1.1,3,1.6,4.5
	c0.5,1.5,1.1,3,1.7,4.5c1.2,3,2.4,6,3.7,8.9c0.7,1.5,1.3,2.9,2,4.4c0.7,1.4,1.4,2.9,2.1,4.3c1.4,2.9,2.9,5.6,4.4,8.4
	c1.5,2.7,3.1,5.4,4.7,8c3.2,5.2,6.5,10.1,9.8,14.7c3.4,4.6,6.7,8.8,10,12.6c3.3,3.8,6.4,7.2,9.4,10.2c3,3,5.8,5.6,8.2,7.7
	c2.4,2.1,4.6,3.9,6.2,5.2c0.4,0.3,0.8,0.6,1.2,0.9c0.4,0.3,0.8,0.6,1,0.8c0.4,0.3,0.7,0.5,0.9,0.6c0.3,0.2,0.5,0.3,0.5,0.3
	c23.7,15.4,55.4,8.6,70.8-15.2S171,428,147.3,412.6z"/>
<path fill="#E2A042" d="M505.2,348.8c-0.1-2.3-0.1-4.5-0.3-6.7c-0.4-4.3-0.6-8.1-1.1-11.7c-0.4-3.5-0.8-6.7-1.2-8.8
	c-0.8-4.4-1.3-6.9-1.3-6.9l-0.9-4.6c-0.2-1-0.4-2-0.7-3c10.9-16.7,15.9-50.2,9.3-89.2c-9-53.5-33.9-83.3-53.8-80
	c-20,3.3-17.4,45.1-12,77.3c0,0-8,51,4.7,81.4c-3.7,4.6-6.2,10.3-6.7,16.7c0,0-0.2,2.5-0.5,6.9c0,0.5-0.1,1.1-0.1,1.7
	c0,0.2,0,0.3,0,0.5l0,0.3c0,0.2-0.1,0.4-0.1,0.7c-0.1,0.9-0.3,1.9-0.4,3c-0.2,2-0.8,4.9-1.3,7.8c-0.2,1.5-0.6,3-0.9,4.5
	c-0.3,1.6-0.7,3.2-1.1,4.8c-0.4,1.6-0.8,3.3-1.3,4.9c-0.5,1.7-1,3.4-1.6,5.1c-0.6,1.7-1.2,3.4-1.8,5.1c-0.7,1.7-1.4,3.4-2,5.1
	c-0.8,1.7-1.5,3.4-2.3,5.1l-1.2,2.5c-0.4,0.8-0.8,1.7-1.3,2.5c-0.9,1.6-1.7,3.3-2.7,4.8c-0.5,0.8-0.9,1.6-1.4,2.3
	c-0.5,0.8-1,1.5-1.5,2.3c-0.9,1.5-2,2.9-3,4.4c-1,1.4-2,2.8-3.1,4.1c-2.1,2.6-4.2,5.1-6.2,7.3c-2.1,2.2-4,4.2-5.9,5.9
	c-1.9,1.7-3.6,3.2-5.1,4.4c-1.5,1.2-2.8,2.1-3.8,2.8c-1,0.7-1.6,1-1.9,1.1c0,0-0.1,0-0.1,0c0,0,0,0,0,0l0,0c0,0,0.1,0,0.1-0.1
	c0,0,0,0,0.1-0.1c0.1,0,0.1-0.1,0.1-0.1c-23.4,15.5-30,46.9-14.7,70.5c15.4,23.7,47.1,30.5,70.8,15.2c0,0,0.2-0.1,0.5-0.3
	c0.1-0.1,0.2-0.1,0.3-0.2c0,0,0.1-0.1,0.2-0.1l0.1-0.1c0.1-0.1,0.2-0.2,0.4-0.3c0.1-0.1,0.3-0.2,0.5-0.4c0.1-0.1,0.2-0.1,0.3-0.2
	c0.1-0.1,0.2-0.1,0.2-0.2c0.3-0.3,0.7-0.6,1.1-1c1.5-1.4,3.5-3.4,5.7-5.8c2.2-2.4,4.7-5.3,7.3-8.6c2.6-3.3,5.4-7,8.1-11.2
	c2.8-4.1,5.6-8.7,8.3-13.5c2.7-4.9,5.3-10.1,7.8-15.5c1.2-2.7,2.4-5.5,3.5-8.3c1.1-2.8,2.2-5.7,3.2-8.6c0.5-1.5,1-2.9,1.5-4.4
	c0.4-1.5,0.9-2.9,1.3-4.4c0.9-2.9,1.6-5.9,2.4-8.9c0.4-1.5,0.7-3,1-4.5c0.3-1.5,0.6-3,0.9-4.4c0.6-3,1.1-5.9,1.6-8.8
	c0.4-2.9,0.8-5.8,1.1-8.7c0.3-2.9,0.5-5.7,0.8-8.4c0.2-2.8,0.3-5.5,0.4-8.1c0.1-2.6,0.1-5.2,0.1-7.7
	C505.4,353.5,505.3,351.1,505.2,348.8z"/>
</svg>
