<?xml version="1.0" encoding="iso-8859-1"?>
<!-- Generator: Adobe Illustrator 18.1.1, SVG Export Plug-In . SVG Version: 6.00 Build 0)  -->
<!DOCTYPE svg PUBLIC "-//W3C//DTD SVG 1.1//EN" "http://www.w3.org/Graphics/SVG/1.1/DTD/svg11.dtd">
<svg version="1.1" xmlns="http://www.w3.org/2000/svg" xmlns:xlink="http://www.w3.org/1999/xlink" x="0px" y="0px"
	 viewBox="0 0 500 500" enable-background="new 0 0 500 500" xml:space="preserve">
<g id="Layer_12">
	<path fill="#597B91" d="M126.053,341.902H43.128c-5.864,0-10.619-4.754-10.619-10.619v-24.89c0-6.57,5.906-11.563,12.385-10.472
		l79.209,13.354c3.909,0.659,7.126,3.441,8.342,7.215l3.716,11.535C138.369,334.883,133.256,341.902,126.053,341.902z
		 M373.275,341.902h84.279c5.668,0,10.263-4.595,10.263-10.263v-25.692c0-6.341-5.693-11.165-11.948-10.123l-80.807,13.457
		c-3.915,0.652-7.103,3.503-8.187,7.32l-3.473,12.235C361.544,335.39,366.465,341.902,373.275,341.902z"/>
</g>
<g id="Layer_1">
</g>
</svg>
