<?xml version="1.0" encoding="utf-8"?>
<!-- Generator: Adobe Illustrator 18.0.0, SVG Export Plug-In . SVG Version: 6.00 Build 0)  -->
<!DOCTYPE svg PUBLIC "-//W3C//DTD SVG 1.1 Tiny//EN" "http://www.w3.org/Graphics/SVG/1.1/DTD/svg11-tiny.dtd">
<svg version="1.1" baseProfile="tiny" id="Layer_1" xmlns="http://www.w3.org/2000/svg" xmlns:xlink="http://www.w3.org/1999/xlink"
	 x="0px" y="0px" width="511.9px" height="511.9px" viewBox="0 0 511.9 511.9" xml:space="preserve">
<path fill="#2B3B47" d="M366.4,184c13.3,0,24.1,10.8,24.1,24.1v54.1c0,13.3-10.8,3-24.1,3l0,0c-13.3,0-24.1,10.3-24.1-3v-54.1
	C342.3,194.8,353.1,184,366.4,184L366.4,184z"/>
<path fill="#2B3B47" d="M147.8,184c13.3,0,24.1,10.8,24.1,24.1v54.1c0,13.3-10.8,3-24.1,3l0,0c-13.3,0-24.1,10.3-24.1-3v-54.1
	C123.7,194.8,134.5,184,147.8,184L147.8,184z"/>
</svg>
