<?xml version="1.0" encoding="utf-8"?>
<!-- Generator: Adobe Illustrator 18.0.0, SVG Export Plug-In . SVG Version: 6.00 Build 0)  -->
<!DOCTYPE svg PUBLIC "-//W3C//DTD SVG 1.1 Tiny//EN" "http://www.w3.org/Graphics/SVG/1.1/DTD/svg11-tiny.dtd">
<svg version="1.1" baseProfile="tiny" id="Layer_1" xmlns="http://www.w3.org/2000/svg" xmlns:xlink="http://www.w3.org/1999/xlink"
	 x="0px" y="0px" width="511.9px" height="511.9px" viewBox="0 0 511.9 511.9" xml:space="preserve">
<path fill="#00BEEA" d="M255.9,35.3C134,35.3,35.2,134.1,35.2,256c0,3.3,0.1,6.6,0.2,9.9c-12.8,1.7-22.8,12.6-22.8,25.9
	c0,14.5,11.7,26.2,26.2,26.2h5.2c26.8,91.7,111.4,158.7,211.7,158.7c121.8,0,220.6-98.8,220.6-220.6
	C476.5,134.1,377.7,35.3,255.9,35.3z"/>
<path fill="#00ADC9" d="M476.2,265.8c0.1-3.3,0.2-6.6,0.2-9.9c0-58.9-23.1-112.5-60.8-152c21.3,34.5,33.6,75.2,33.6,118.8
	c0,125.2-101.5,226.7-226.7,226.7c-43.6,0-84.2-12.3-118.8-33.6c39.6,37.7,93.1,60.8,152,60.8c100.3,0,185-67,211.7-158.7h5.2
	c14.5,0,26.2-11.7,26.2-26.2C499,278.4,489.1,267.5,476.2,265.8z"/>
<path fill="#2B3B47" d="M146.5,176.1c-13.4,0-24.2,10.8-24.2,24.2v54.3c0,13.4,10.8,24.2,24.2,24.2c13.4,0,24.2-10.8,24.2-24.2
	v-54.3C170.7,186.9,159.8,176.1,146.5,176.1z"/>
<path fill="#2B3B47" d="M366.1,176.1c-13.4,0-24.2,10.8-24.2,24.2v54.3c0,13.4,10.8,24.2,24.2,24.2c13.4,0,24.2-10.8,24.2-24.2
	v-54.3C390.3,186.9,379.5,176.1,366.1,176.1z"/>
<path fill="#2B3B47" d="M255.9,310.1c-39.7,0-56,31.2-57.3,52.2c-0.3,5.6,2.3,10.9,6.8,14.2c4.5,3.3,10.5,4.1,15.7,2.1
	c0.1,0,11.4-4.2,32.7-4.2c22.3,0,38,4.6,38.1,4.7c1.6,0.5,3.2,0.7,4.8,0.7c3.6,0,7.2-1.2,10.2-3.5c4.3-3.3,6.6-8.6,6.3-14
	C311.9,341.3,295.6,310.1,255.9,310.1z"/>
<path fill="#009AAF" d="M125,187.5c-8.9,0-17.7-2.6-25.2-7.6c-3.5-2.3-4.5-7.1-2.2-10.7c2.3-3.6,7.1-4.5,10.7-2.2
	c7.2,4.8,16.2,6.2,24.7,4c8.5-2.3,15.6-8,19.4-15.8c1.9-3.8,6.5-5.3,10.3-3.4c3.8,1.9,5.3,6.5,3.4,10.3
	c-5.9,11.7-16.5,20.4-29.2,23.8C133,187,129,187.5,125,187.5z"/>
<path fill="#009AAF" d="M381.5,187.5c-4,0-8-0.5-12-1.6c-12.7-3.4-23.3-12.1-29.2-23.8c-1.9-3.8-0.4-8.4,3.4-10.3
	c3.8-1.9,8.4-0.4,10.3,3.5c3.9,7.8,10.9,13.5,19.4,15.8c8.5,2.3,17.5,0.8,24.7-4c3.6-2.3,8.3-1.4,10.7,2.2c2.3,3.5,1.4,8.3-2.2,10.7
	C399.2,185,390.4,187.5,381.5,187.5z"/>
</svg>
