<?xml version="1.0" encoding="iso-8859-1"?>
<!-- Generator: Adobe Illustrator 18.1.1, SVG Export Plug-In . SVG Version: 6.00 Build 0)  -->
<!DOCTYPE svg PUBLIC "-//W3C//DTD SVG 1.1//EN" "http://www.w3.org/Graphics/SVG/1.1/DTD/svg11.dtd">
<svg version="1.1" xmlns="http://www.w3.org/2000/svg" xmlns:xlink="http://www.w3.org/1999/xlink" x="0px" y="0px"
	 viewBox="0 0 512 512" enable-background="new 0 0 512 512" xml:space="preserve">
<g id="Layer_9">
	<path fill="#00B1FF" d="M236.361,405.126c0.934,0.218,1.515,1.152,1.297,2.086s-1.152,1.515-2.086,1.297
		c-0.934-0.218-1.515-1.152-1.297-2.086C234.493,405.488,235.427,404.908,236.361,405.126z M239.129,404.287
		c-0.238,1.021,0.397,2.043,1.418,2.281c1.021,0.238,2.043-0.397,2.281-1.418c0.238-1.021-0.397-2.043-1.418-2.281
		S239.368,403.266,239.129,404.287z M253.369,426.198l11.77,4.5c0.699-2.995,2.95-12.645,4.083-17.502
		c0.072-0.307,0.14-0.611,0.205-0.913C261.838,412.943,255.194,418.376,253.369,426.198z M268.986,401.846
		c-0.706-0.518-1.699-0.366-2.218,0.34c-3.063,4.17-8.182,6.011-13.357,4.804c-2.548-0.594-4.754-1.848-6.447-3.573
		c-0.947,0.56-1.978,1.055-2.959,1.473c2.179,2.532,5.169,4.37,8.684,5.19c6.433,1.501,12.807-0.805,16.636-6.016
		C269.84,403.359,269.692,402.364,268.986,401.846z"/>
</g>
<g id="Layer_1">
</g>
</svg>
