<?xml version="1.0" encoding="iso-8859-1"?>
<!-- Generator: Adobe Illustrator 18.1.0, SVG Export Plug-In . SVG Version: 6.00 Build 0)  -->
<!DOCTYPE svg PUBLIC "-//W3C//DTD SVG 1.1//EN" "http://www.w3.org/Graphics/SVG/1.1/DTD/svg11.dtd">
<svg version="1.1" xmlns="http://www.w3.org/2000/svg" xmlns:xlink="http://www.w3.org/1999/xlink" x="0px" y="0px"
	 viewBox="0 0 512 512" enable-background="new 0 0 512 512" xml:space="preserve">
<g id="Layer_2">
	<path fill="#C7CFD3" d="M504.505,377.843H171.057V115.342c0-26.6,21.563-48.163,48.163-48.163h237.123
		c26.6,0,48.163,21.563,48.163,48.163V377.843z"/>
</g>
<g id="Layer_3">
	<path fill="#FF473E" d="M87.196,198.558h61.285c12.468,0,22.576,11.188,22.576,24.989v153.961H6.812v-75.8
		c0-8.864,2.664-17.477,7.573-24.481l44.302-63.211C65.521,204.264,76.045,198.558,87.196,198.558z"/>
</g>
<g id="Layer_4">
	<path fill="#2B3B47" d="M15.467,420.116h482.79c7.354,0,13.315-5.961,13.315-13.315V384.22c0-3.707-3.005-6.712-6.712-6.712H6.908
		c-2.626,0-4.756,2.129-4.756,4.755v24.537C2.152,414.154,8.114,420.116,15.467,420.116z"/>
</g>
<g id="Layer_5">
	<path fill="#76DFFF" d="M37.741,282.906l38.847-55.394c0.905-1.291,2.297-2.046,3.771-2.046h45.922
		c2.639,0,4.778,2.375,4.778,5.304v55.394c0,2.929-2.139,5.304-4.778,5.304H41.512C37.535,291.468,35.298,286.389,37.741,282.906z"
		/>
</g>
<g id="Layer_6">
	<path fill="#FFD469" d="M20.039,352.665H6.812v-35.062h13.227c6.202,0,11.229,5.027,11.229,11.229v12.603
		C31.268,347.638,26.241,352.665,20.039,352.665z"/>
</g>
<g id="Layer_7">
	<path fill="#597B91" d="M128.69,432.253c0,22.227-18.018,40.245-40.245,40.245S48.2,454.48,48.2,432.253
		s18.018-40.245,40.245-40.245S128.69,410.027,128.69,432.253z M281.606,392.009c-22.227,0-40.245,18.018-40.245,40.245
		s18.018,40.245,40.245,40.245s40.245-18.018,40.245-40.245S303.832,392.009,281.606,392.009z M393.956,392.009
		c-22.227,0-40.245,18.018-40.245,40.245s18.018,40.245,40.245,40.245c22.227,0,40.245-18.018,40.245-40.245
		S416.183,392.009,393.956,392.009z"/>
</g>
<g id="Layer_8">
	<path fill="#2B3B47" d="M114.823,432.253c0,14.568-11.81,26.378-26.378,26.378s-26.378-11.81-26.378-26.378
		s11.81-26.378,26.378-26.378S114.823,417.685,114.823,432.253z M281.606,405.876c-14.568,0-26.378,11.81-26.378,26.378
		s11.81,26.378,26.378,26.378s26.378-11.81,26.378-26.378S296.174,405.876,281.606,405.876z M393.956,405.876
		c-14.568,0-26.378,11.81-26.378,26.378s11.81,26.378,26.378,26.378c14.568,0,26.378-11.81,26.378-26.378
		S408.524,405.876,393.956,405.876z"/>
</g>
</svg>
