<svg xmlns="http://www.w3.org/2000/svg" viewBox="0 0 512 512" enable-background="new 0 0 512 512"><path fill="#76DFFF" d="M38.706 328.473H6.978V203.08h31.728c13.552 0 24.538 10.985 24.538 24.537v76.318c0 13.552-10.986 24.538-24.538 24.538zm138.772-.306v-94.782c0-3.976-3.224-7.2-7.2-7.2h-49.445c-3.976 0-7.2 3.224-7.2 7.2v94.782c0 3.976 3.224 7.2 7.2 7.2h49.445c3.977 0 7.2-3.223 7.2-7.2zm110.444-16.408v-61.966c0-3.976-3.224-7.2-7.2-7.2h-49.445c-3.976 0-7.2 3.224-7.2 7.2v61.965c0 3.975 3.224 7.2 7.2 7.2h49.445c3.977 0 7.2-3.225 7.2-7.2zm110.445 16.407v-94.782c0-3.976-3.224-7.2-7.2-7.2h-49.445c-3.976 0-7.2 3.224-7.2 7.2v94.782c0 3.976 3.224 7.2 7.2 7.2h49.445c3.976 0 7.2-3.223 7.2-7.2zm50.388-85.55v76.318c0 13.552 10.986 24.538 24.538 24.538h31.728V218.08h-31.727c-13.55 0-24.538 10.985-24.538 24.537z"/></svg>