<?xml version="1.0" encoding="iso-8859-1"?>
<!-- Generator: Adobe Illustrator 19.1.0, SVG Export Plug-In . SVG Version: 6.00 Build 0)  -->
<!DOCTYPE svg PUBLIC "-//W3C//DTD SVG 1.1//EN" "http://www.w3.org/Graphics/SVG/1.1/DTD/svg11.dtd">
<svg version="1.1" xmlns="http://www.w3.org/2000/svg" xmlns:xlink="http://www.w3.org/1999/xlink" x="0px" y="0px"
	 viewBox="0 0 511.92 511.92" enable-background="new 0 0 511.92 511.92" xml:space="preserve">
<g id="Layer_2">
	<path fill="#FFA1E0" d="M255.852,35.415c-121.806,0-220.544,98.75-220.544,220.545c0,3.536,0.102,7.048,0.267,10.543
		c-12.925,1.614-22.963,12.516-22.963,25.878c0,14.473,11.732,26.205,26.205,26.205h5.565
		c26.993,91.294,111.425,157.917,211.47,157.917c121.807,0,220.545-98.727,220.545-220.544
		C476.398,134.166,377.66,35.415,255.852,35.415z"/>
</g>
<g id="Layer_3">
	<path fill="#E274C8" d="M173.32,179.415c-2.102,0-4.192-0.865-5.697-2.561c-5.773-6.518-14.116-10.255-22.896-10.258h-0.007
		c-8.783,0-17.133,3.739-22.915,10.261c-2.786,3.135-7.588,3.429-10.736,0.644c-3.142-2.786-3.429-7.594-0.644-10.736
		c8.667-9.773,21.166-15.377,34.295-15.377c0,0,0.007,0,0.01,0c13.129,0.003,25.622,5.611,34.279,15.38
		c2.782,3.145,2.492,7.951-0.65,10.736C176.911,178.785,175.112,179.415,173.32,179.415z M342.133,176.854
		c5.782-6.518,14.126-10.258,22.912-10.258h0.007c8.779,0.003,17.123,3.739,22.899,10.258c2.786,3.149,7.598,3.429,10.733,0.65
		c3.142-2.786,3.432-7.591,0.647-10.736c-8.654-9.769-21.15-15.377-34.279-15.38h-0.007c-13.129,0-25.632,5.604-34.292,15.38
		c-2.786,3.142-2.495,7.948,0.647,10.733c1.446,1.284,3.248,1.914,5.043,1.914C338.542,179.415,340.628,178.55,342.133,176.854z"/>
</g>
<g id="Layer_4">
	<path fill="#2B3B47" d="M255.941,376.045c-32.889,0-65.769-11.314-90.8-33.955c-4.845-4.383-5.221-11.862-0.838-16.707
		c4.383-4.845,11.862-5.221,16.707-0.838c41.322,37.368,108.553,37.355,149.882,0c4.852-4.39,12.344-4,16.707,0.838
		c4.383,4.852,4.007,12.331-0.838,16.707C321.716,364.724,288.824,376.045,255.941,376.045z M177.036,232.863
		c-6.063-13.647-18.446-22.126-32.315-22.126c-0.003,0-0.003,0-0.003,0c-13.872,0-26.255,8.476-32.322,22.126
		c-0.402,0.904-0.613,1.836-0.741,2.769c-1.722,3.949-0.935,8.67,2.464,11.681c4.218,3.736,10.677,3.35,14.417-0.878
		c4.073-4.601,9.968-7.241,16.172-7.245h0.003c6.208,0,12.11,2.644,16.189,7.248c2.017,2.277,4.825,3.439,7.647,3.439
		c2.406,0,4.825-0.845,6.769-2.568c3.397-3.01,4.182-7.729,2.461-11.677C177.649,234.699,177.438,233.767,177.036,232.863z
		 M398.105,235.639c-0.127-0.937-0.338-1.872-0.742-2.78c-6.066-13.648-18.45-22.123-32.318-22.123
		c-13.875,0-26.259,8.476-32.325,22.123c-0.403,0.907-0.615,1.842-0.742,2.778c-1.718,3.947-0.929,8.668,2.471,11.674
		c4.225,3.749,10.68,3.337,14.416-0.878c4.066-4.601,9.961-7.241,16.166-7.245c0,0,0,0,0.007,0c6.205,0,12.106,2.644,16.185,7.248
		c2.02,2.277,4.825,3.439,7.651,3.439c2.402,0,4.819-0.845,6.766-2.568C399.034,244.302,399.823,239.586,398.105,235.639z"/>
</g>
<g id="Layer_5">
	<path fill="#E583C9" d="M476.148,265.824c0.144-3.272,0.25-6.555,0.25-9.863c0-58.925-23.14-112.425-60.814-151.962
		c21.312,34.518,33.623,75.18,33.623,118.733c0,125.13-101.453,226.593-226.593,226.593c-43.542,0-84.205-12.312-118.741-33.609
		c39.556,37.65,93.056,60.788,151.979,60.788c100.301,0,184.902-66.966,211.67-158.618h5.21c14.472,0,26.204-11.732,26.204-26.203
		C498.936,278.381,488.988,267.514,476.148,265.824z"/>
</g>
</svg>
