<svg xmlns="http://www.w3.org/2000/svg" viewBox="0 0 512 512" enable-background="new 0 0 512 512"><path fill="#2B3B47" d="M114.102 442.59c-.796 0-1.603-.067-2.414-.205-7.81-1.324-13.065-8.727-11.742-16.535l8.826-52.064c1.323-7.808 8.727-13.07 16.535-11.742 7.81 1.324 13.065 8.727 11.742 16.535l-8.827 52.063c-1.186 6.997-7.254 11.946-14.12 11.946zm169.235-.205c7.81-1.324 13.065-8.728 11.742-16.535l-8.827-52.064c-1.324-7.81-8.733-13.062-16.535-11.742-7.81 1.324-13.065 8.728-11.742 16.535l8.826 52.063c1.187 6.998 7.254 11.946 14.12 11.946.797 0 1.604-.07 2.415-.205z"/></svg>