<?xml version="1.0" encoding="utf-8"?>
<!-- Generator: Adobe Illustrator 18.0.0, SVG Export Plug-In . SVG Version: 6.00 Build 0)  -->
<!DOCTYPE svg PUBLIC "-//W3C//DTD SVG 1.1 Tiny//EN" "http://www.w3.org/Graphics/SVG/1.1/DTD/svg11-tiny.dtd">
<svg version="1.1" baseProfile="tiny" id="Layer_1" xmlns="http://www.w3.org/2000/svg" xmlns:xlink="http://www.w3.org/1999/xlink"
	 x="0px" y="0px" width="511.9px" height="511.9px" viewBox="0 0 511.9 511.9" xml:space="preserve">
<path fill="#FFA1E0" d="M104.8,476.2c0,32.3,77.5,35.8,155.6,35.8S416,508.4,416,476.2c0-48-49.9-96.9-161.2-96.9
	S104.8,429.2,104.8,476.2z"/>
<path fill="#FFD3B6" d="M377.8,206.5l3.8-57.4c0-66.8-57.7-101.3-124.4-101.3c-66.8,0-117.3,34.5-117.3,101.3l3.8,57.5
	c-13.3,0.8-23.8,11.8-23.8,25.2c0,14,11.3,25.3,25.3,25.3c0.6,0,1.3,0,1.9-0.1l0.2,3.6c0,44.8,26,83.5,63.7,102v41.2
	c0,13.5,21.9,24.4,48.9,24.4c27,0,48.9-10.9,48.9-24.4c0-1.5-0.3-3-0.8-4.4v-35.6c39.1-17.9,66.2-57.4,66.2-103.1l0.2-3.7
	c1.1,0.1,2.2,0.2,3.3,0.2c14,0,25.3-11.3,25.3-25.3C403,217.9,391.7,206.6,377.8,206.5z"/>
<path fill="#E5AB83" d="M260.1,289.3C260.1,289.3,260.1,289.3,260.1,289.3c-8.5,0-16.2-4.2-20.7-11.3c-1.5-2.3-0.8-5.4,1.6-6.9
	s5.4-0.8,6.9,1.6c2.6,4.2,7.2,6.6,12.3,6.6c0,0,0,0,0,0c5.1,0,9.7-2.5,12.3-6.6c1.5-2.3,4.5-3,6.9-1.5c2.3,1.5,3,4.5,1.5,6.9
	C276.4,285.1,268.6,289.3,260.1,289.3z"/>
<path fill="#2B3B47" d="M198.7,225.8c-0.5-6.5-5.9-11.6-12.5-11.6c-6.6,0-12,5.1-12.6,11.6h-0.1v17.8h0c0,0,0,0,0,0
	c0,7,5.7,12.7,12.7,12.7c7,0,12.7-5.7,12.7-12.7c0,0,0,0,0,0v0v-17.8H198.7z"/>
<path fill="#2B3B47" d="M347.1,225.8c-0.6-6.5-5.9-11.6-12.6-11.6c-6.6,0-12,5.1-12.5,11.6h-0.2v17.8h0.1c0,0,0,0,0,0
	c0,7,5.7,12.7,12.7,12.7c7,0,12.7-5.7,12.7-12.7c0,0,0,0,0,0v0v-17.8H347.1z"/>
<path fill="#FFFFFF" d="M184.7,225.2c-0.1-1.5-1.4-2.8-3-2.8c-1.6,0-2.9,1.2-3,2.8h0v4.3h0v0c0,1.7,1.4,3,3,3c1.7,0,3-1.4,3-3v0l0,0
	L184.7,225.2L184.7,225.2z"/>
<path fill="#FFFFFF" d="M333,225.2c-0.1-1.5-1.4-2.8-3-2.8c-1.6,0-2.9,1.2-3,2.8h0v4.3h0v0c0,1.7,1.4,3,3,3c1.7,0,3-1.4,3-3v0l0,0
	L333,225.2L333,225.2z"/>
<path fill="#EDC0A2" d="M250.6,362.2c-25.9,0-50-7.9-70-21.4c20.5,20.5,48.9,33.2,80.2,33.2c62.6,0,113.4-50.8,113.4-113.4l0.4-5.7
	C365.8,315.5,313.7,362.2,250.6,362.2z"/>
<path fill="#2B3B47" d="M295.4,333.1c-1.3-2.8-11-21.2-35.3-21.2c-25.7,0-35.1,20.6-35.4,21.5c-0.3,0.8-0.3,1.7,0.2,2.4
	c0.5,0.7,1.3,1.2,2.1,1.2h66.2c0,0,0,0,0,0c1.4,0,2.6-1.1,2.6-2.6C295.8,333.9,295.7,333.4,295.4,333.1z"/>
<path fill="#E5AB83" d="M200.7,208.1c0,0-0.5,0.1-1.4,0.2c-0.4,0.1-1.1,0.1-1.7,0.2c-0.7,0.1-1.4,0.1-2.2,0.2
	c-1.6,0.1-3.4,0.2-5.4,0.2c-2,0-4.1-0.1-6.1-0.3c-1-0.1-2.1-0.2-3.1-0.3c-1-0.1-2-0.3-3-0.5c-1-0.2-1.9-0.4-2.8-0.6
	c-0.9-0.2-1.7-0.5-2.5-0.7c-0.8-0.3-1.5-0.5-2.1-0.8c-0.6-0.3-1.2-0.5-1.6-0.7c-0.9-0.5-1.4-0.8-1.4-0.8c-1.2-0.7-1.7-2.2-1-3.4
	c0.6-1.1,1.9-1.6,3.1-1.2l0.3,0.1c0,0,0.4,0.1,1.1,0.4c0.3,0.1,0.8,0.2,1.3,0.4c0.5,0.1,1.1,0.2,1.8,0.4c0.7,0.1,1.4,0.2,2.2,0.3
	c0.8,0.1,1.6,0.2,2.5,0.2c0.9,0.1,1.8,0.1,2.7,0.1c0.9,0,1.9,0,2.8-0.1c1.9-0.1,3.8-0.3,5.5-0.5c1.8-0.2,3.4-0.5,4.7-0.8
	c0.7-0.1,1.3-0.3,1.8-0.4c0.5-0.1,0.9-0.2,1.3-0.4c0.8-0.2,1.3-0.4,1.3-0.4l0,0c2.5-0.7,5,0.7,5.7,3.1c0.7,2.5-0.7,5-3.1,5.7
	C201.1,208.1,200.9,208.1,200.7,208.1z"/>
<path fill="#E5AB83" d="M319.5,199.1c0,0,0.5,0.1,1.3,0.4c0.5,0.1,0.8,0.2,1.3,0.4c0.5,0.1,1.1,0.3,1.8,0.4c1.4,0.3,3,0.6,4.7,0.8
	c1.8,0.2,3.6,0.4,5.5,0.5c0.9,0,1.9,0.1,2.8,0.1c0.9,0,1.8,0,2.7-0.1c0.9,0,1.7-0.1,2.5-0.2c0.8-0.1,1.5-0.2,2.2-0.3
	c0.6-0.1,1.3-0.2,1.8-0.4c0.5-0.1,1-0.2,1.3-0.4c0.7-0.3,1.1-0.4,1.1-0.4l0.3-0.1c1.3-0.5,2.7,0.2,3.2,1.5c0.4,1.2-0.1,2.5-1.2,3.1
	c0,0-0.5,0.3-1.4,0.8c-0.5,0.2-1,0.4-1.6,0.7c-0.6,0.3-1.3,0.5-2.1,0.8c-0.8,0.2-1.6,0.5-2.5,0.7c-0.9,0.2-1.8,0.4-2.8,0.6
	c-1,0.2-2,0.3-3,0.5c-1,0.1-2.1,0.2-3.1,0.3c-2.1,0.2-4.2,0.3-6.1,0.3c-2,0-3.8-0.1-5.4-0.2c-0.8-0.1-1.5-0.1-2.2-0.2
	c-0.7-0.1-1.3-0.2-1.7-0.2c-0.9-0.1-1.4-0.2-1.4-0.2c-2.5-0.4-4.3-2.7-3.9-5.3c0.4-2.5,2.7-4.3,5.3-3.9
	C319.1,199,319.3,199,319.5,199.1L319.5,199.1z"/>
<path fill="#FFD3B6" d="M217.9,210c-14.5,23-48.9,23-63.4,0"/>
<path fill="#FFD3B6" d="M364.7,210c-14.5,23-48.9,23-63.4,0"/>
<g>
	<path fill="#68442A" d="M395.3,144.8c0-74.3-64.2-130.6-138.5-130.6c-74.3,0-130.6,56.3-130.6,130.6l2.6,38.7l0.5,81c0,0,0,0,0.1,0
		c1.2,41.4,17.9,84.5,17.9,84.5c0,7.3,27.5,12,63.7,14.3v-0.9c-27.8-13.6-49.2-38.2-58.6-68.1l0,0c-0.4-1.3-0.8-2.7-1.2-4
		c0,0,0,0,0,0c-0.4-1.3-0.7-2.7-1-4c0,0,0-0.1,0-0.1c-0.3-1.3-0.6-2.6-0.8-3.9c0-0.1,0-0.2-0.1-0.3c-0.2-1.2-0.4-2.5-0.6-3.7
		c0-0.2-0.1-0.4-0.1-0.5c-0.2-1.2-0.3-2.3-0.5-3.5c0-0.3-0.1-0.5-0.1-0.8c-0.1-1.1-0.2-2.2-0.3-3.3c0-0.3-0.1-0.6-0.1-1
		c0-0.4,0-0.7-0.1-1.1c0-16.3,0-37,0-55.2c3.6-16.9,36.6-66.6,64.8-106.8c0.5,0.6,1.1,1.1,1.6,1.7c46.6,46.6,132.8,69.7,165.5,72.7
		l-1.7,26.1c0.8,0,1.5,0,2.3,0.1c0.3,0,0.5,0.1,0.7,0.1c0.5,0.1,1,0.1,1.5,0.2c0.3,0.1,0.6,0.1,0.9,0.2c0.4,0.1,0.9,0.2,1.3,0.3
		c0.3,0.1,0.6,0.2,0.9,0.3c0.4,0.1,0.8,0.3,1.2,0.4c0.3,0.1,0.6,0.2,0.9,0.4c0.4,0.2,0.7,0.3,1.1,0.5c0.3,0.1,0.6,0.3,0.9,0.4
		c0.4,0.2,0.7,0.4,1,0.6c0.3,0.2,0.6,0.3,0.8,0.5c0.3,0.2,0.7,0.4,1,0.7c0.3,0.2,0.5,0.4,0.8,0.5c0.5,0.4,1,0.8,1.5,1.2
		C395.5,175.8,395.3,144.8,395.3,144.8z"/>
	<path fill="#68442A" d="M391,253.3c-0.3,0.2-0.6,0.4-1,0.6c-0.2,0.1-0.5,0.3-0.7,0.4c-0.3,0.2-0.7,0.3-1,0.5
		c-0.3,0.1-0.5,0.2-0.8,0.4c-0.3,0.1-0.7,0.3-1,0.4c-0.3,0.1-0.5,0.2-0.8,0.3c-0.4,0.1-0.7,0.2-1.1,0.3c-0.3,0.1-0.5,0.2-0.8,0.2
		c-0.4,0.1-0.8,0.2-1.2,0.3c-0.3,0.1-0.5,0.1-0.8,0.2c-0.4,0.1-0.9,0.1-1.3,0.2c-0.2,0-0.5,0.1-0.7,0.1c-0.7,0.1-1.4,0.1-2.1,0.1
		c-1.1,0-2.2-0.1-3.3-0.2l-0.2,3.7c0,1.3,0,2.5-0.1,3.8c0,0.3,0,0.6,0,0.8c0,1.2-0.1,2.5-0.2,3.7c0,0.2,0,0.4,0,0.6
		c-0.1,1.1-0.2,2.2-0.3,3.3c0,0.3-0.1,0.5-0.1,0.8c-0.1,1.2-0.3,2.4-0.5,3.5c0,0.3-0.1,0.6-0.1,0.9c-0.2,1.1-0.3,2.1-0.5,3.2
		c0,0.2-0.1,0.4-0.1,0.5c-0.2,1.1-0.5,2.3-0.7,3.4c-0.1,0.3-0.2,0.7-0.2,1c-0.3,1.1-0.5,2.2-0.8,3.3c-0.1,0.3-0.1,0.5-0.2,0.8
		c-0.2,0.9-0.5,1.8-0.8,2.7c-0.1,0.4-0.2,0.7-0.3,1.1c-0.3,1-0.6,2-1,3c-0.1,0.4-0.3,0.8-0.4,1.1c-0.3,0.8-0.5,1.5-0.8,2.3
		c-0.1,0.4-0.3,0.8-0.4,1.1c-0.4,0.9-0.7,1.9-1.1,2.8c-0.2,0.4-0.4,0.9-0.6,1.3c-0.3,0.7-0.6,1.4-0.9,2c-0.3,0.6-0.6,1.2-0.9,1.9
		c-0.3,0.6-0.6,1.2-0.9,1.8c-0.2,0.5-0.5,1-0.7,1.5c-0.4,0.7-0.7,1.4-1.1,2.1c-0.3,0.6-0.7,1.2-1,1.8c-0.3,0.5-0.5,0.9-0.8,1.4
		c-0.3,0.6-0.7,1.1-1,1.7c-0.4,0.7-0.9,1.4-1.3,2.1c-0.3,0.5-0.7,1.1-1,1.6c-0.3,0.4-0.5,0.8-0.8,1.1c-0.6,0.9-1.2,1.7-1.8,2.6
		c-0.2,0.3-0.5,0.7-0.7,1c-0.4,0.5-0.8,1.1-1.2,1.6c-0.2,0.3-0.5,0.6-0.7,0.9c-0.7,0.9-1.4,1.8-2.1,2.6c-0.2,0.3-0.5,0.6-0.7,0.9
		c-0.4,0.5-0.9,1-1.4,1.6c-10.4,11.7-23.2,21.2-37.6,27.9v0.2c41-2,73.6-7,73.6-14.9c0,0,3.6-7.5,6.8-40.3c2.1-15.7,3.6-36,4.6-56.9
		c-0.4,0.3-0.9,0.7-1.4,1C391.5,253,391.3,253.1,391,253.3z"/>
</g>
</svg>
