<svg xmlns="http://www.w3.org/2000/svg" viewBox="0 0 512 512" enable-background="new 0 0 512 512"><path fill="#B1B8BC" d="M328 378.74H189.32c-10.217 0-18.5-8.284-18.5-18.5s8.283-18.5 18.5-18.5H328c10.217 0 18.5 8.282 18.5 18.5s-8.283 18.5-18.5 18.5zm58.122 46.88c0-10.217-8.283-18.5-18.5-18.5h-225c-10.217 0-18.5 8.283-18.5 18.5s8.283 18.5 18.5 18.5h225c10.217 0 18.5-8.283 18.5-18.5zm26.8 82.38c4.657-3.36 7.7-8.82 7.7-15 0-10.217-8.283-18.5-18.5-18.5h-294c-10.217 0-18.5 8.283-18.5 18.5 0 6.18 3.043 11.64 7.7 15H412.92z"/></svg>