<?xml version="1.0" encoding="utf-8"?>
<!-- Generator: Adobe Illustrator 18.0.0, SVG Export Plug-In . SVG Version: 6.00 Build 0)  -->
<!DOCTYPE svg PUBLIC "-//W3C//DTD SVG 1.1 Tiny//EN" "http://www.w3.org/Graphics/SVG/1.1/DTD/svg11-tiny.dtd">
<svg version="1.1" baseProfile="tiny" id="Layer_1" xmlns="http://www.w3.org/2000/svg" xmlns:xlink="http://www.w3.org/1999/xlink"
	 x="0px" y="0px" width="512px" height="512px" viewBox="0 0 512 512" xml:space="preserve">
<path fill="#FFAF8F" d="M119.8,320c-8.8,0-17.7-1.9-25.9-5.8c-4-1.9-5.7-6.7-3.8-10.7c1.9-4,6.7-5.7,10.7-3.8
	c12.4,5.9,26.8,5.7,39.4-0.6c4-2,8.8-0.4,10.7,3.6c2,4,0.4,8.8-3.6,10.7C138.6,317.8,129.2,320,119.8,320z"/>
<path fill="#FFAF8F" d="M383.5,320c-8.8,0-17.7-1.9-25.9-5.8c-4-1.9-5.7-6.7-3.8-10.7c1.9-4,6.7-5.7,10.7-3.8
	c12.4,5.9,26.8,5.7,39.4-0.6c4-2,8.8-0.4,10.7,3.6s0.4,8.8-3.6,10.7C402.3,317.8,392.9,320,383.5,320z"/>
</svg>
