<svg xmlns="http://www.w3.org/2000/svg" viewBox="0 0 512 512" enable-background="new 0 0 512 512"><path fill="#9BA5A8" d="M168.517 314.112c21.542 10.775 46.554 20.91 87.545 20.91s66.003-10.135 87.545-20.91c9.15-4.577 6.985-25.282-2.64-25.282h-169.81c-9.624 0-11.79 20.705-2.64 25.282zM510 178.628v16.635c0 8.75-5.244 15.938-11.882 16.288L470.602 213c-3.032-11.31-5.403-19.475-7.094-27.78-1.698-8.343-3.684-16.62-5.978-24.8.633-.097 1.275-.15 1.932-.117l38.656 2.037c6.638.35 11.882 7.538 11.882 16.288zM41.643 212.995l-27.428-1.445c-6.638-.35-11.882-7.54-11.882-16.288v-16.635c0-8.75 5.244-15.938 11.882-16.288L52.87 160.3c.62-.033 1.227.016 1.825.1-2.228 7.94-4.153 15.97-5.783 24.068-1.714 8.52-4.145 16.896-7.27 28.525z"/></svg>