<?xml version="1.0" encoding="utf-8"?>
<!-- Generator: Adobe Illustrator 18.0.0, SVG Export Plug-In . SVG Version: 6.00 Build 0)  -->
<!DOCTYPE svg PUBLIC "-//W3C//DTD SVG 1.1 Tiny//EN" "http://www.w3.org/Graphics/SVG/1.1/DTD/svg11-tiny.dtd">
<svg version="1.1" baseProfile="tiny" id="Layer_1" xmlns="http://www.w3.org/2000/svg" xmlns:xlink="http://www.w3.org/1999/xlink"
	 x="0px" y="0px" width="511.9px" height="511.9px" viewBox="0 0 511.9 511.9" xml:space="preserve">
<path fill="#2B3B47" d="M171.7,217c-8.4-12.5-22.3-18.8-36.1-16.4c-13.8,2.4-24.7,13.1-28.3,27.7c-0.2,0.9-0.3,1.7-0.3,2.6
	c-1.2,4.3,0.5,9.1,4.5,11.5c1.7,1,3.5,1.5,5.4,1.5c3.5,0,6.9-1.7,8.8-4.9c3.3-5.3,8.7-9,14.9-10.1c6.2-1.1,12.5,0.5,17.4,4.4
	c4.5,3.6,11,2.8,14.5-1.7c2.9-3.6,2.8-8.4,0.4-12.1C172.6,218.7,172.2,217.8,171.7,217z"/>
<path fill="#2B3B47" d="M403.6,231.3c0-0.9-0.1-1.7-0.3-2.6c-3.6-14.7-14.5-25.3-28.3-27.7c-13.8-2.4-27.6,3.8-36.1,16.4
	c-0.6,0.8-0.9,1.7-1.2,2.6c-2.4,3.6-2.5,8.5,0.4,12.1c3.5,4.5,10.1,5.2,14.5,1.7c4.9-3.9,11.2-5.5,17.4-4.4
	c6.2,1.1,11.6,4.8,14.8,10.1c1.9,3.2,5.3,4.9,8.8,4.9c1.8,0,3.7-0.5,5.4-1.5C403.1,240.3,404.8,235.6,403.6,231.3z"/>
</svg>
