<?xml version="1.0" encoding="iso-8859-1"?>
<!-- Generator: Adobe Illustrator 18.1.1, SVG Export Plug-In . SVG Version: 6.00 Build 0)  -->
<!DOCTYPE svg PUBLIC "-//W3C//DTD SVG 1.1//EN" "http://www.w3.org/Graphics/SVG/1.1/DTD/svg11.dtd">
<svg version="1.1" xmlns="http://www.w3.org/2000/svg" xmlns:xlink="http://www.w3.org/1999/xlink" x="0px" y="0px"
	 viewBox="0 0 512 512" enable-background="new 0 0 512 512" xml:space="preserve">
<g id="Layer_3">
	<path fill="#C62424" d="M224.291,226.405h-56.172c-11.929,0-21.6-9.671-21.6-21.6V63.682c0-11.929,9.671-21.6,21.6-21.6h56.172
		c11.929,0,21.6,9.671,21.6,21.6v141.123C245.891,216.734,236.221,226.405,224.291,226.405z M383.574,204.805V63.682
		c0-11.929-9.671-21.6-21.6-21.6h-56.172c-11.929,0-21.6,9.671-21.6,21.6v141.123c0,11.929,9.671,21.6,21.6,21.6h56.172
		C373.903,226.405,383.574,216.734,383.574,204.805z M245.891,433.629v-96.407c0-11.929-9.671-21.6-21.6-21.6h-56.172
		c-11.929,0-21.6,9.671-21.6,21.6v96.407c0,11.929,9.671,21.6,21.6,21.6h56.172C236.221,455.229,245.891,445.558,245.891,433.629z
		 M383.574,433.629v-96.407c0-11.929-9.671-21.6-21.6-21.6h-56.172c-11.929,0-21.6,9.671-21.6,21.6v96.407
		c0,11.929,9.671,21.6,21.6,21.6h56.172C373.903,455.229,383.574,445.558,383.574,433.629z"/>
</g>
<g id="Layer_1">
</g>
</svg>
