<?xml version="1.0" encoding="iso-8859-1"?>
<!-- Generator: Adobe Illustrator 18.1.1, SVG Export Plug-In . SVG Version: 6.00 Build 0)  -->
<!DOCTYPE svg PUBLIC "-//W3C//DTD SVG 1.1//EN" "http://www.w3.org/Graphics/SVG/1.1/DTD/svg11.dtd">
<svg version="1.1" xmlns="http://www.w3.org/2000/svg" xmlns:xlink="http://www.w3.org/1999/xlink" x="0px" y="0px"
	 viewBox="0 0 512 512" enable-background="new 0 0 512 512" xml:space="preserve">
<g id="Layer_11">
	<path fill="#2B3B47" d="M335.099,113.361h-0.761c-0.92,0-1.666,0.746-1.666,1.666v9.549c0,0.92,0.746,1.666,1.666,1.666h0.761
		c0.92,0,1.666,0.746,1.666,1.666v0.161c0,0.92-0.746,1.666-1.666,1.666h-9.606c-0.92,0-1.666-0.746-1.666-1.666v-0.161
		c0-0.92,0.746-1.666,1.666-1.666h0.761c0.92,0,1.666-0.746,1.666-1.666v-9.549c0-0.92-0.746-1.666-1.666-1.666h-0.761
		c-0.92,0-1.666-0.746-1.666-1.666v-0.131c0-0.92,0.746-1.666,1.666-1.666h9.606c0.92,0,1.666,0.746,1.666,1.666v0.131
		C336.765,112.615,336.019,113.361,335.099,113.361z"/>
</g>
<g id="Layer_1">
</g>
</svg>
