<?xml version="1.0" encoding="utf-8"?>
<!-- Generator: Adobe Illustrator 18.0.0, SVG Export Plug-In . SVG Version: 6.00 Build 0)  -->
<!DOCTYPE svg PUBLIC "-//W3C//DTD SVG 1.1 Tiny//EN" "http://www.w3.org/Graphics/SVG/1.1/DTD/svg11-tiny.dtd">
<svg version="1.1" baseProfile="tiny" id="Layer_1" xmlns="http://www.w3.org/2000/svg" xmlns:xlink="http://www.w3.org/1999/xlink"
	 x="0px" y="0px" width="511.9px" height="511.9px" viewBox="0 0 511.9 511.9" xml:space="preserve">
<path fill="#00BEEA" d="M255.9,35.3C134,35.3,35.2,134.1,35.2,256c0,3.3,0.1,6.6,0.2,9.9c-12.8,1.7-22.8,12.6-22.8,25.9
	c0,14.5,11.7,26.2,26.2,26.2h5.2c26.8,91.7,111.4,158.7,211.7,158.7c121.8,0,220.6-98.8,220.6-220.6
	C476.5,134.1,377.7,35.3,255.9,35.3z"/>
<path fill="#00ADC9" d="M476.2,265.8c0.1-3.3,0.2-6.6,0.2-9.9c0-58.9-23.1-112.5-60.8-152c21.3,34.5,33.6,75.2,33.6,118.8
	c0,125.2-101.5,226.7-226.7,226.7c-43.6,0-84.2-12.3-118.8-33.6c39.6,37.7,93.1,60.8,152,60.8c100.3,0,185-67,211.7-158.7h5.2
	c14.5,0,26.2-11.7,26.2-26.2C499,278.4,489.1,267.5,476.2,265.8z"/>
<path fill="#009AAF" d="M129.6,159.5c-6.2,0-12.4-1.3-18.2-3.8c-3.9-1.7-5.7-6.2-4-10.1c1.7-3.9,6.2-5.7,10.1-4
	c8,3.5,17.1,3.3,25-0.4c8-3.7,13.9-10.6,16.4-18.9c1.2-4.1,5.5-6.4,9.6-5.2c4.1,1.2,6.4,5.5,5.2,9.6c-3.7,12.6-12.7,22.9-24.7,28.5
	C142.8,158,136.2,159.5,129.6,159.5z"/>
<path fill="#009AAF" d="M382.5,159.4c-6.7,0-13.3-1.4-19.5-4.3c-11.9-5.6-20.9-15.9-24.6-28.5c-1.2-4.1,1.1-8.4,5.2-9.6
	c4.1-1.2,8.4,1.1,9.6,5.2c2.5,8.3,8.4,15.2,16.4,18.9c7.9,3.7,17.1,3.9,25.1,0.4c3.9-1.7,8.4,0.1,10.1,4c1.7,3.9-0.1,8.4-4,10.1
	C394.9,158.2,388.7,159.4,382.5,159.4z"/>
<path fill="#FFFFFF" d="M99.2,243.8l-5.7,45.6c-1.5,12-12.4,20.5-24.4,19.1C57.1,307,48.5,296,50,284c0.7-5.9,3.8-11,8.1-14.5
	l36-28.6c1.3-1.1,3.3-0.8,4.4,0.5C99.1,242.2,99.3,243.1,99.2,243.8z"/>
<path fill="#009AAF" d="M253.9,422c-11.6,0-23.1-2.5-33.9-7.7c-3.8-1.8-5.4-6.4-3.6-10.2c1.8-3.8,6.4-5.4,10.2-3.6
	c17.9,8.5,38.5,8.2,56.7-0.8c3.8-1.9,8.4-0.3,10.3,3.4c1.9,3.8,0.3,8.4-3.4,10.3C278.6,419.2,266.2,422,253.9,422z"/>
<path fill="#2B3B47" d="M278.6,275.8c-7.3,0.1-14.7,0.3-22.1,0.4c-7.4-0.1-14.8-0.3-22.1-0.4c-7.3,0-14.5-0.7-21.4-1
	c-2.6-0.1-5.1-0.3-7.6-0.5c-22.3,15.5-36.9,40.8-36.9,69.5c0,47.2,39.3,29.7,87.8,29.7c48.5,0,87.8,17.4,87.8-29.7
	c0-28.6-14.6-53.9-36.8-69.4c-2.5,0.2-5,0.4-7.5,0.5C293,275.1,285.9,275.8,278.6,275.8z"/>
<path fill="#009AAF" d="M144.6,259.6c-8.5,0-16.9-1.9-24.8-5.6c-4.1-1.9-5.8-6.8-3.9-10.9c1.9-4.1,6.8-5.8,10.9-3.9
	c11.6,5.5,25.1,5.3,36.9-0.5c4-2,9-0.4,11,3.7c2,4,0.4,8.9-3.7,11C162.6,257.5,153.6,259.6,144.6,259.6z"/>
<path fill="#009AAF" d="M364.2,259.6c-8.5,0-16.9-1.9-24.8-5.6c-4.1-1.9-5.8-6.8-3.9-10.9c1.9-4.1,6.8-5.8,10.9-3.9
	c11.7,5.5,25.1,5.3,36.9-0.5c4-2,8.9-0.4,11,3.7c2,4,0.4,8.9-3.7,11C382.2,257.5,373.2,259.6,364.2,259.6z"/>
<path fill="#2B3B47" d="M177.2,206.1c-0.3-0.9-0.7-1.8-1.2-2.6c-8.3-12.4-22-18.6-35.7-16.2c-13.7,2.4-24.4,12.9-28,27.4
	c-0.2,1-0.3,1.9-0.2,2.8c-1,4.2,0.6,8.7,4.5,11.1c4.8,2.9,11.1,1.4,14-3.4c3.2-5.2,8.6-8.9,14.7-9.9l0,0c6.1-1.1,12.4,0.5,17.2,4.3
	c2.4,1.9,5.4,2.5,8.1,2.1c2.4-0.4,4.6-1.7,6.2-3.7C179.6,214.5,179.5,209.7,177.2,206.1z"/>
<path fill="#2B3B47" d="M398.2,217.6c0-0.9,0-1.9-0.2-2.8c-3.6-14.5-14.3-25-28-27.4c-13.7-2.4-27.3,3.8-35.7,16.2
	c-0.6,0.8-0.9,1.7-1.2,2.6c-2.4,3.6-2.4,8.4,0.4,11.9c3.5,4.4,10,5.2,14.4,1.6c4.8-3.8,11.1-5.4,17.2-4.3c6.1,1.1,11.5,4.7,14.7,10
	c1.6,2.6,4.2,4.2,6.9,4.7c2.4,0.4,4.9,0,7.1-1.4C397.7,226.3,399.3,221.8,398.2,217.6z"/>
<path fill="#FFFFFF" d="M205.5,274.3c2.5,0.2,5,0.4,7.6,0.5c6.9,0.3,14.1,1,21.4,1c7.3,0.1,14.7,0.3,22.1,0.4
	c7.4-0.1,14.8-0.3,22.1-0.4c7.3,0,14.5-0.7,21.4-1c2.6-0.1,5-0.3,7.5-0.5c-14.4-10-32-16-51-16C237.4,258.4,219.9,264.3,205.5,274.3
	z"/>
</svg>
