<?xml version="1.0" encoding="iso-8859-1"?>
<!-- Generator: Adobe Illustrator 18.1.1, SVG Export Plug-In . SVG Version: 6.00 Build 0)  -->
<!DOCTYPE svg PUBLIC "-//W3C//DTD SVG 1.1//EN" "http://www.w3.org/Graphics/SVG/1.1/DTD/svg11.dtd">
<svg version="1.1" xmlns="http://www.w3.org/2000/svg" xmlns:xlink="http://www.w3.org/1999/xlink" x="0px" y="0px"
	 viewBox="0 0 512 512" enable-background="new 0 0 512 512" xml:space="preserve">
<g id="Layer_2">
	<path fill="#8299A3" d="M166.794,505.096c-11.369,0-20.585-9.216-20.585-20.585v-37.876c0-11.369,9.216-20.585,20.585-20.585
		s20.585,9.216,20.585,20.585v37.876C187.379,495.88,178.163,505.096,166.794,505.096z M427.813,484.511v-37.876
		c0-11.369-9.216-20.585-20.585-20.585s-20.585,9.216-20.585,20.585v37.876c0,11.369,9.216,20.585,20.585,20.585
		S427.813,495.88,427.813,484.511z M455.572,253.958c0-6.943-5.629-12.572-12.572-12.572h-23.863
		c-6.943,0-12.572,5.629-12.572,12.572s5.629,12.572,12.572,12.572H443C449.943,266.53,455.572,260.901,455.572,253.958z"/>
</g>
<g id="Layer_3">
	<path fill="#C3CCD1" d="M387.42,4.501c-39.273,0-71.225,31.951-71.225,71.225c0,0.342,0.024,0.678,0.051,1.012
		c-25.435,4.184-46.57,21.109-56.633,44.014c-3.649,8.306,2.324,17.638,11.396,17.638h115.075c9.072,0,15.044-9.332,11.396-17.637
		c-10.062-22.906-31.197-39.832-56.633-44.015c0.027-0.335,0.051-0.67,0.051-1.012c0-25.652,20.87-46.522,46.522-46.522
		s46.522,20.87,46.522,46.522v231.292c0,6.821,5.529,12.352,12.351,12.352s12.352-5.53,12.352-12.352V75.726
		C458.645,36.453,426.693,4.501,387.42,4.501z"/>
</g>
<g id="Layer_4">
	<path fill="#C3CCD1" d="M480.645,300.069h-91.532h-85.168H20.228c0,101.865,82.578,184.443,184.443,184.443h202.228
		c37.918,0,69.999-28.028,75.089-65.602l13.759-101.554C496.986,308.208,489.875,300.069,480.645,300.069z"/>
</g>
<g id="Layer_5">
	<path fill="#8299A3" d="M493.348,333.823c-0.202,0-0.406-0.004-0.61-0.012L17.982,316.525c-9.089-0.331-16.189-7.967-15.858-17.057
		c0.331-9.089,7.968-16.204,17.056-15.857l474.756,17.286c9.089,0.331,16.188,7.967,15.857,17.057
		C509.471,326.839,502.166,333.823,493.348,333.823z"/>
</g>
<g id="Layer_6">
	<path fill="#8299A3" d="M356.653,96.572h-56.214c-5.212,0-9.884-3.216-11.744-8.084s-0.524-10.38,3.36-13.856
		c10.048-8.992,23.007-13.944,36.491-13.944c13.483,0,26.442,4.952,36.491,13.944c3.884,3.476,5.22,8.988,3.359,13.856
		S361.865,96.572,356.653,96.572z"/>
</g>
</svg>
