<?xml version="1.0" encoding="utf-8"?>
<!-- Generator: Adobe Illustrator 18.0.0, SVG Export Plug-In . SVG Version: 6.00 Build 0)  -->
<!DOCTYPE svg PUBLIC "-//W3C//DTD SVG 1.1 Tiny//EN" "http://www.w3.org/Graphics/SVG/1.1/DTD/svg11-tiny.dtd">
<svg version="1.1" baseProfile="tiny" id="Layer_1" xmlns="http://www.w3.org/2000/svg" xmlns:xlink="http://www.w3.org/1999/xlink"
	 x="0px" y="0px" width="511.9px" height="511.9px" viewBox="0 0 511.9 511.9" xml:space="preserve">
<path fill="#F2C7AA" d="M430.2,424.5h-14.9l0.1,0.1h-56c-0.3,0-0.7,0-1,0c-1.3,0-2.6-0.1-3.9-0.3v16.3c3.3,1.4,6.4,2.3,9.1,2.3h92.1
	c2.7,0,5.9-1.1,9.3-2.8v-23.3C454.4,421.7,442.6,424.5,430.2,424.5z"/>
<path fill="#F2C7AA" d="M153.6,424.6c-0.3,0-0.7,0-1,0h-56l0.1-0.1H81.7c-12.4,0-24.2-2.8-34.7-7.7v23.3c3.4,1.7,6.5,2.8,9.3,2.8
	h92.1c2.7,0,5.8-0.9,9.1-2.3v-16.3C156.2,424.5,154.9,424.6,153.6,424.6z"/>
</svg>
