<svg xmlns="http://www.w3.org/2000/svg" viewBox="0 0 512 512" enable-background="new 0 0 512 512"><path fill="#9BA5A8" d="M471 158.89h-48.506V109H471c4.97 0 9-4.03 9-9s-4.03-9-9-9H221.003c-18.896 0-34.27 15.373-34.27 34.27v17.35c0 18.897 15.374 34.27 34.27 34.27H471c4.97 0 9-4.03 9-9s-4.03-9-9-9zm-224.772 0h-25.225c-8.97 0-16.27-7.298-16.27-16.27v-17.35c0-8.972 7.3-16.27 16.27-16.27h25.225v49.89zm52.755 0h-34.755V109h34.755v49.89zm52.756 0h-34.757V109h34.756v49.89zm52.754 0H369.74V109h34.754v49.89z"/></svg>