<?xml version="1.0" encoding="utf-8"?>
<!-- Generator: Adobe Illustrator 18.1.0, SVG Export Plug-In . SVG Version: 6.00 Build 0)  -->
<!DOCTYPE svg PUBLIC "-//W3C//DTD SVG 1.0//EN" "http://www.w3.org/TR/2001/REC-SVG-20010904/DTD/svg10.dtd">
<svg version="1.0" id="Layer_1" xmlns="http://www.w3.org/2000/svg" xmlns:xlink="http://www.w3.org/1999/xlink" x="0px" y="0px"
	 width="72px" height="72px" viewBox="0 0 72 72" enable-background="new 0 0 72 72" xml:space="preserve">
<path fill="#FFD3B6" d="M52.5,62.8L45,53.2l-3.1-15.1c-0.1-0.3-0.1-0.5-0.3-0.7l5.7-5.2c0.7-0.6,0.8-1.7,0.2-2.4l-0.1-0.1l-3.5-4.3
	l-1.7-2.2l-0.8-1c-0.3-0.3-0.5-0.7-0.8-1.1l0-0.1c0,0,0,0,0,0c-0.3-0.5-0.9-0.7-1.4-0.8c0-0.1,0-0.1,0-0.2v-2.4
	c4.4-2.1,4.5-9.1,4.5-9.1c0-4-3.2-7.2-7.2-7.2c-4,0-6.9,2.1-6.9,6l0,0.9l0,0c0,0-0.6,2-1,2.8c-0.4,0.9,0.1,1.1,1.1,1.1l0,1.5
	c0,0.3,0.8,0.2,1.1,0.1c0.2-0.1,0.5,0,0.6,0.2c0.1,0.2,0,0.5-0.2,0.6c-0.2,0.1-0.7,0.2-1,0.3c-0.2,0-0.3,0.2-0.3,0.4
	c0.5,1.8,2.1,2.5,4.2,2.8v2.2c0,0.7,1.1,1.3,2.6,1.3l-0.9,6.2l-2.2,3.9l-8.8-1.3c0-0.3-0.1-0.5-0.3-0.7c-0.5-0.6-1-1.2-1.5-1.7
	c-0.5-0.6-1.4-0.7-2-0.2c0,0-0.1,0.1-0.1,0.1c-0.7-0.2-1.5,0.3-1.7,1c-0.1,0.4-0.3,0.8-0.4,1.2l-0.1,0.2c-0.2,0.7,0.2,1.4,0.9,1.7
	c1.1,0.4,2.2,0.7,3.3,0.9c0.1,0,0.2,0,0.3,0L34,36c0.8,0.3,1.8-0.1,2.2-0.9l0.1-0.2l3-5.1c0,0,1.4-0.8,2.4-1.2l1.8,2.2l-9.7,9.9
	c-0.3,0.4-0.6,0.9-0.8,1.4l-0.7,1.4l-0.7,1.4c-0.2,0.5-0.4,1-0.6,1.4c-0.4,1-0.8,2-1.1,2.9c-0.2,0.5-0.3,1-0.5,1.5l-0.5,1.5
	l-0.1,0.3l-0.4,1.9c-0.1,0.6-0.3,1.3-0.4,1.9c-0.2,1.3-0.4,2.6-0.6,3.9c-0.1,0.7-0.2,1.3-0.2,2l-0.2,2l-0.1,2c0,0.7-0.1,1.3-0.1,2
	l0,0.3c0,0.4,0.3,0.8,0.7,1c0.5,0.2,1.2-0.1,1.4-0.6l1.3-3.7l1.2-3.7l2.4-7.2l2.5-5.7l1.3-2.9l0.1-0.2l1.9,9.4l0.1,0.3
	c0.1,0.3,0.2,0.6,0.5,0.9l9.4,8.9l0.2,0.2c0.7,0.6,1.7,0.7,2.4,0.1C53,64.8,53.2,63.6,52.5,62.8z"/>
<path fill="#76DFFF" d="M30,68.5c-0.3,0.6-0.8,1.8-1.2,2.4c0,0-0.7-0.3-1.8-0.8c-0.5-0.2-1.1-0.5-1.8-0.7c-0.7-0.3-1.4-0.5-2.1-0.8
	c-0.4-0.1-0.7-0.3-1-0.4c-0.3-0.1-0.7-0.3-1-0.4c-0.6-0.3-1.2-0.6-1.7-0.8c-0.5-0.2-0.9-0.5-1.2-0.6c-0.2-0.1-0.3-0.2-0.4-0.2
	c0.5-1.2,1.9-0.4,3.7-0.4c1.1,0,1.9,0,2.4-0.1c1.5-0.3,1.9-1.4,2.4-1.4c0,0,0,0,0,0c0,0,0.1,0,0.1,0c0,0,0,0,0,0c0,0,0.1,0,0.1,0
	c0,0,0,0,0.1,0c0,0,0.1,0.1,0.1,0.1c0,0,0.1,0,0.1,0.1c0,0,0.1,0.1,0.1,0.1c0.1,0.1,0.2,0.3,0.3,0.4c0,0.1,0.1,0.1,0.1,0.2
	c0,0,0,0,0,0.1c0,0,0,0.1,0,0.1c0,0,0,0,0,0.1c0,0,0,0.1,0,0.1c0,0,0,0,0,0.1c0,0,0,0,0,0.1c0,0,0,0-0.1,0.1c0,0,0,0-0.1,0
	c0,0-0.1,0-0.1,0.1c0,0,0,0-0.1,0c0,0-0.1,0-0.1,0.1c0,0,0,0,0,0c-0.1,0-0.1,0-0.2,0.1c0,0,0,0,0,0c0,0,0,0,0,0
	c-0.2,0.1-0.4,0.1-0.5,0.1c0.3,0.5,0.7,0.9,1.3,1.2c0.4,0.2,0.8,0.3,1.2,0.3c0.6,0,1.3-0.2,1.8-0.7c0,0,0,0,0,0
	C30.5,67.3,30.3,67.9,30,68.5z M54.2,64.2c-0.4-0.7-0.9-1.2-1.4-1.2c0.3,1-0.1,2.1-1,2.7c-0.5,0.3-1,0.4-1.5,0.4
	c0-0.1,0-0.2,0.1-0.2c0,0,0,0,0-0.1c0-0.1,0-0.1,0-0.2c0,0,0,0,0-0.1c0,0,0-0.1,0-0.1c0,0,0-0.1,0-0.1c0,0,0-0.1,0-0.1
	c0,0,0,0,0-0.1c0,0,0-0.1,0-0.1c0,0,0,0,0-0.1c0,0,0-0.1-0.1-0.1c0,0,0,0,0,0c0,0-0.1,0-0.1,0c0,0,0,0-0.1,0c-0.1,0-0.1,0-0.2,0
	c-2.4,0.2-0.5,1-1.3,3.1l0,0c-0.1,0.3-0.4,0.7-0.9,1.1c-1.4,1.3-2.3,0.9-1.7,2.2c0,0,1.7,0.4,3.1-0.1c1.4-0.5,1.7-0.3,2.7-1.4
	c0.7-0.7,4.1-2.7,4.1-2.7S54.8,65.1,54.2,64.2z"/>
<path fill="#FFFFFF" d="M22.3,65.7c0.2,0,0.5,0,0.7,0c0.4,0.6,0.6,1.2,0.6,1.9c0.7,0.3,1.5,0.4,2.2,0.1c0.5-0.2,0.9-0.5,1.2-0.9
	c0.1,0.1,0.3,0.2,0.5,0.3c-0.4,0.5-0.9,0.9-1.5,1.1c-0.4,0.1-0.8,0.2-1.1,0.2c-0.4,0-0.9-0.1-1.3-0.3c0,0.2-0.1,0.4-0.2,0.6
	c0,0-0.1,0-0.1,0c-0.1-0.1-0.2-0.1-0.4-0.2C23.1,67.5,22.9,66.5,22.3,65.7z M51.7,65.8c-0.2,0.1-0.3,0.2-0.5,0.2
	c0.2,0.5,0.2,1,0.1,1.5c-0.1,0.6-0.4,1.1-0.9,1.5c-0.5-0.5-1.2-0.9-1.9-1c-0.1,0.1-0.2,0.3-0.3,0.5c1.1,0.1,2.1,0.8,2.5,2
	c0,0,0,0.1,0,0.1c0.2-0.1,0.3-0.2,0.5-0.3c0,0,0,0,0,0c-0.1-0.3-0.3-0.6-0.4-0.9C51.8,68.5,52.1,67,51.7,65.8z"/>
<path fill="#00B1FF" d="M30,68.4c0,0,0,0.1-0.1,0.1c-0.3,0.6-0.9,1.8-1.2,2.4c0,0-0.7-0.3-1.8-0.8c-0.1,0-0.1-0.1-0.2-0.1
	C27.5,68.8,28.8,68.2,30,68.4z M24.4,66.1c-0.1,0.1,0,0.3,0.1,0.4c0.1,0.1,0.3,0,0.4-0.1c0.1-0.1,0-0.3-0.1-0.4S24.5,65.9,24.4,66.1
	z M25.3,65.9c-0.1,0.2,0,0.4,0.2,0.4c0.2,0.1,0.4,0,0.4-0.2c0.1-0.2,0-0.4-0.2-0.4C25.6,65.7,25.4,65.7,25.3,65.9z M54.2,64.2
	c0,0-0.1-0.1-0.1-0.1c-0.8,1-1,2.5-0.2,3.6l2-0.9C55.6,66.4,54.7,64.9,54.2,64.2z M49.2,67.7c0.1,0.1,0.3,0.2,0.4,0.1
	c0.1-0.1,0.2-0.3,0.1-0.4c-0.1-0.1-0.3-0.2-0.4-0.1C49.2,67.4,49.2,67.5,49.2,67.7z M49.6,66.8c0.1,0.2,0.3,0.2,0.4,0.1
	c0.2-0.1,0.2-0.3,0.1-0.4c-0.1-0.2-0.3-0.2-0.4-0.1C49.5,66.5,49.5,66.7,49.6,66.8z"/>
<path fill="#2B3B47" d="M25.6,66.2c-0.1,0-0.1,0-0.1-0.1c-0.1-0.3-0.3-0.9-0.6-0.9c-0.1,0-0.1-0.1-0.2-0.1c0-0.1,0.1-0.1,0.1-0.2
	c0.6,0,0.8,1,0.8,1.1C25.7,66.1,25.7,66.2,25.6,66.2C25.6,66.2,25.6,66.2,25.6,66.2z M24.7,66.3c0.1,0,0.1-0.1,0.1-0.2
	c0-0.1-0.3-1.1-0.8-1.1c-0.1,0-0.1,0.1-0.1,0.2c0,0.1,0.1,0.1,0.1,0.1c0,0,0,0,0,0c0.3,0,0.5,0.6,0.5,0.9
	C24.5,66.3,24.6,66.4,24.7,66.3C24.7,66.4,24.7,66.3,24.7,66.3z M30.4,66.6c-0.1-0.1-0.3-0.1-0.4,0c-0.7,0.6-1.6,0.7-2.4,0.3
	c-0.4-0.2-0.7-0.5-0.9-0.8c-0.2,0.1-0.4,0.1-0.5,0.1c0.3,0.5,0.7,0.9,1.3,1.2c0.4,0.2,0.8,0.3,1.2,0.3c0.6,0,1.3-0.2,1.8-0.7
	C30.5,66.9,30.5,66.7,30.4,66.6z M48.8,66.8c0.1-0.2,0.7-0.1,1,0c0.1,0,0.2,0,0.2-0.1c0-0.1,0-0.2-0.1-0.2c-0.1,0-1.1-0.4-1.4,0.2
	c0,0.1,0,0.2,0.1,0.2c0,0,0,0,0.1,0C48.7,66.9,48.7,66.9,48.8,66.8z M48.4,67.7c0.1-0.2,0.7-0.1,1,0c0.1,0,0.2,0,0.2-0.1
	c0-0.1,0-0.2-0.1-0.2c-0.1,0-1.1-0.4-1.4,0.2c0,0.1,0,0.2,0.1,0.2c0,0,0,0,0.1,0C48.3,67.7,48.4,67.7,48.4,67.7z M53.1,63.1
	c0-0.1-0.2-0.2-0.3-0.2c-0.1,0-0.2,0.2-0.2,0.3c0.1,0.9-0.2,1.7-1,2.2c-0.4,0.2-0.8,0.4-1.2,0.4c0,0.2-0.1,0.4-0.2,0.5
	c0.1,0,0.1,0,0.2,0c0.5,0,1-0.2,1.5-0.5C52.8,65.3,53.3,64.2,53.1,63.1z"/>
<path fill="#E5E5E5" d="M17.7,66c0,0,0.2,0.1,0.5,0.3c0.3,0.2,0.7,0.4,1.2,0.6c0.5,0.2,1.1,0.5,1.7,0.8c0.3,0.1,0.7,0.3,1,0.4
	c0.3,0.1,0.7,0.3,1,0.4c0.7,0.3,1.4,0.5,2.1,0.8c0.7,0.2,1.3,0.5,1.8,0.7c1.1,0.5,1.8,0.8,1.8,0.8l-0.5,1c0,0-0.7-0.3-1.7-0.8
	c-0.5-0.3-1.1-0.5-1.8-0.8c-0.6-0.3-1.4-0.6-2.1-0.9c-0.3-0.2-0.7-0.3-1-0.5c-0.3-0.2-0.7-0.3-1-0.5c-0.6-0.3-1.2-0.7-1.7-0.9
	c-0.5-0.3-0.9-0.5-1.2-0.7c-0.3-0.2-0.4-0.3-0.4-0.3L17.7,66z M46,71.7c0,0,0.2,0,0.5,0c0.3,0.1,0.8,0.1,1.4,0
	c0.3,0,0.6-0.1,0.9-0.2c0.3-0.1,0.6-0.2,0.9-0.3c0.3-0.1,0.6-0.2,1-0.3c0.3-0.1,0.7-0.3,1-0.4c0.7-0.3,1.3-0.8,1.8-1.2
	c0.5-0.4,1-0.7,1.5-1c0.9-0.6,1.5-0.9,1.5-0.9l-0.6-0.9c0,0-0.6,0.4-1.5,1c-0.4,0.3-0.9,0.7-1.5,1.1c-0.5,0.4-1,0.9-1.6,1.2
	c-0.3,0.2-0.6,0.3-0.9,0.4c-0.3,0.1-0.6,0.3-0.9,0.4c-0.3,0.1-0.6,0.2-0.9,0.3c-0.3,0.1-0.5,0.2-0.8,0.2c-0.5,0.1-0.8,0.1-1.2,0
	c-0.3,0-0.5,0-0.5,0L46,71.7z"/>
<path fill="#00B1FF" d="M47.1,51.1l-5-12.7l-10.3-1.9l-3.5,8.8l-1.6,4.9c-0.1,0.5,0.1,1,0.6,1.1l7.2,2.5c0.5,0.2,1-0.1,1.2-0.6
	l0.9-3l1.6,4c0.2,0.5,0.7,0.7,1.1,0.5l7.2-2.6C47.1,52.1,47.3,51.5,47.1,51.1z"/>
<path fill="#597B91" d="M43.6,23.2c0-2-1.9-3.7-4.6-4.3v1.1c0,0.1,0,0.1,0,0.2c0,0.7-1.2,1.3-2.6,1.3s-2.6-0.6-2.6-1.3v-1.2
	c-2,0.7-2.7,2.3-2.7,4.2l-0.6,8l2.8,0.4l2.2-3.9l0.4-0.7c0.3,1,1,1.9,2,2.4c0.4,0.2,0.9,0.3,1.4,0.3c0,0,0.1,0,0.1,0l-0.2,0.3
	l-3,5.1l-0.1,0.2c-0.5,0.8-1.4,1.1-2.2,0.9l-3.8-1.1l-0.5,6c0,1.6,2,2.9,6.7,2.9s8.5-1.3,8.5-2.9L43.6,23.2z"/>
<path fill="#EDC0A2" d="M36.4,12.5c-0.2,0-0.3-0.1-0.3-0.3s0.1-0.3,0.3-0.3c0.6,0,1.1-0.5,1.1-1.1S37,9.6,36.4,9.6
	c-0.2,0-0.3-0.1-0.3-0.3S36.2,9,36.4,9c1,0,1.8,0.8,1.8,1.8S37.3,12.5,36.4,12.5z"/>
<path fill="#E5AB83" d="M30.5,7c0,0,0.5-0.1,1,0c0.1,0,0.3,0,0.4,0.1c0.1,0,0.2,0.1,0.3,0.1c0.1,0,0.2,0.1,0.2,0.2
	c0.1,0,0.1,0.1,0.1,0.1c0.1,0.1,0.1,0.2,0,0.3c-0.1,0.1-0.2,0.1-0.3,0.1l-0.1,0c0,0,0,0-0.1,0c0,0-0.1-0.1-0.1-0.1
	c-0.1,0-0.2-0.1-0.3-0.1c-0.1,0-0.2,0-0.3,0c-0.5,0-0.9,0.1-0.9,0.1c-0.2,0-0.3-0.1-0.3-0.2C30.2,7.2,30.3,7.1,30.5,7
	C30.4,7,30.5,7,30.5,7L30.5,7z"/>
<path fill="#2B3B47" d="M32.1,8.9c0-0.3-0.3-0.5-0.6-0.5c-0.3,0-0.6,0.2-0.6,0.5h0v0.8h0c0,0,0,0,0,0c0,0.3,0.3,0.6,0.6,0.6
	c0.3,0,0.6-0.3,0.6-0.6c0,0,0,0,0,0h0L32.1,8.9L32.1,8.9z"/>
<path fill="#959DA3" d="M31.3,8.9c0-0.1-0.1-0.1-0.1-0.1c-0.1,0-0.1,0.1-0.1,0.1h0v0.2h0v0c0,0.1,0.1,0.1,0.1,0.1
	c0.1,0,0.1-0.1,0.1-0.1v0l0,0L31.3,8.9L31.3,8.9z"/>
<path fill="#68442A" d="M37.5,0c-2.9,0-7,1.1-7.1,1.2c-0.1,0.1,0.3,0.5,0.1,0.6c-0.3,0.3-0.5,0.5-0.8,0.9c-0.3,0.3,0.1,0.5,1.4,0.5
	c0.3,0,0,0.8,0.3,0.8c0.2,0,3.9-1.7,3.9,4.3c0,0.5,0.2,0.8,0.7,0.8c0.3,0,1.7,0.1,1.7,1.6c0,1.7,4.6,3.3,4.7,3.2c1-1.1,2-3.8,2-6.5
	S42.6,0,37.5,0z"/>
</svg>
