<?xml version="1.0" encoding="utf-8"?>
<!-- Generator: Adobe Illustrator 18.0.0, SVG Export Plug-In . SVG Version: 6.00 Build 0)  -->
<!DOCTYPE svg PUBLIC "-//W3C//DTD SVG 1.1 Tiny//EN" "http://www.w3.org/Graphics/SVG/1.1/DTD/svg11-tiny.dtd">
<svg version="1.1" baseProfile="tiny" id="Layer_1" xmlns="http://www.w3.org/2000/svg" xmlns:xlink="http://www.w3.org/1999/xlink"
	 x="0px" y="0px" width="511.9px" height="511.9px" viewBox="0 0 511.9 511.9" xml:space="preserve">
<path fill="#E583C9" d="M425.2,451.7c-11.4-36.3-43.4-104.8-117.4-104.8c-19.2,0-34.8,17.6-34.8,39.4c0,4.6,0.7,9.1,2,13.2h-27.3
	c1.3-4.1,2-8.6,2-13.2c0-21.7-15.6-39.4-34.8-39.4c-74,0-106,68.5-117.4,104.8c-4.2,13.3,19.9,24.4,38.5,26c0,0.2,0,0.3,0,0.5
	c0,0.5,0,1,0.1,1.4l-0.1,2.3h0.8c6.8,16.9,59.5,30.1,123.5,30.1c64,0,116.7-13.2,123.5-30.1h0.8l-0.1-2.3c0.1-0.5,0.1-0.9,0.1-1.4
	c0-0.1,0-0.2,0-0.4C403.4,477,429.6,465.5,425.2,451.7z"/>
<circle fill="#FFD3B6" cx="140.3" cy="195.9" r="18.6"/>
<path fill="#FFD3B6" d="M307.7,398.9v-56c0-20.8-16.8-37.6-37.6-37.6H249c-20.8,0-37.6,16.8-37.6,37.6v60.4
	c0,13.4,21.7,24.3,48.6,24.3c26.8,0,48.6-10.9,48.6-24.3C308.5,401.8,308.3,400.3,307.7,398.9z"/>
<circle fill="#FFD3B6" cx="380.4" cy="195.9" r="18.6"/>
<path fill="#FFD3B6" d="M257.4,32.9c-62.9,0-110.6,32.5-110.6,95.4l7,105.1c0,59,47.9,106.9,106.9,106.9
	c59,0,106.9-47.9,106.9-106.9l7-105.1C374.6,65.5,320.3,32.9,257.4,32.9z"/>
<path fill="#68442A" d="M387.5,124.4C387.5,54.4,327,1.3,257,1.3c-70,0-123.1,53-123.1,123.1l2.4,36.5l0.5,76.4c0,0,0,0,0.1,0
	c1.1,40,16.9,93.8,16.9,93.8c0,20,220.8,20,220.8,0c0,0,4.5-15,7.8-63.4C388,214.1,387.5,124.4,387.5,124.4z M260.7,340.4
	c-48,0-88.5-31.6-102.1-75l0,0c-0.3-1-0.6-1.9-0.8-2.9c0-0.2-0.1-0.3-0.1-0.5c-0.2-0.8-0.4-1.6-0.6-2.4c0-0.2-0.1-0.4-0.1-0.5
	c-0.2-0.8-0.4-1.7-0.6-2.5c0-0.1-0.1-0.2-0.1-0.3c-1.1-5.1-1.8-10.2-2.2-15.5c0-26.2,0-64,0-82.9c13.3-20.5,36.5-49.5,57.3-74.3
	c1.5,2,3.3,4,5.3,6c44.1,44.1,126,59.7,156.5,61.5l-5.5,82.5c0,0.9,0,1.8,0,2.7c0,0.3,0,0.6,0,0.9c0,0.6,0,1.2-0.1,1.7
	c0,0.4,0,0.7-0.1,1.1c0,0.5-0.1,1-0.1,1.6c0,0.4-0.1,0.8-0.1,1.1c0,0.5-0.1,1-0.1,1.5c0,0.4-0.1,0.8-0.1,1.2
	c-0.1,0.5-0.1,0.9-0.2,1.4c0,0.4-0.1,0.8-0.2,1.2c-0.1,0.5-0.1,0.9-0.2,1.4c-0.1,0.4-0.1,0.8-0.2,1.2c-0.1,0.4-0.1,0.9-0.2,1.3
	c-0.1,0.4-0.1,0.8-0.2,1.3c-0.1,0.4-0.2,0.8-0.2,1.2c-0.1,0.4-0.2,0.9-0.3,1.3c-0.1,0.4-0.2,0.8-0.3,1.2c-0.1,0.4-0.2,0.9-0.3,1.3
	c-0.1,0.4-0.2,0.7-0.3,1.1c-0.1,0.5-0.2,0.9-0.3,1.4c-0.1,0.3-0.2,0.6-0.2,0.9c-0.7,2.7-1.6,5.4-2.5,8.1c-0.1,0.2-0.1,0.3-0.2,0.5
	c-0.2,0.6-0.4,1.2-0.7,1.7c-0.1,0.2-0.1,0.4-0.2,0.6c-0.2,0.6-0.4,1.1-0.7,1.7c-0.1,0.2-0.2,0.4-0.2,0.6c-0.2,0.6-0.5,1.1-0.7,1.7
	c-0.1,0.2-0.2,0.4-0.2,0.6c-0.3,0.6-0.5,1.1-0.8,1.7c-0.1,0.2-0.2,0.3-0.2,0.5c-0.3,0.6-0.5,1.1-0.8,1.7c-0.1,0.2-0.2,0.3-0.2,0.5
	c-0.3,0.6-0.6,1.2-0.9,1.8c-0.1,0.1-0.1,0.2-0.2,0.3c-0.3,0.6-0.7,1.2-1,1.8c0,0.1-0.1,0.1-0.1,0.2c-3.8,6.9-8.4,13.4-13.6,19.2
	C321.1,326.5,292.5,340.4,260.7,340.4z"/>
<path fill="#E5AB83" d="M260.1,240C260.1,240,260.1,240,260.1,240c-8,0-15.3-4-19.5-10.6c-1.4-2.2-0.7-5.1,1.5-6.5
	c2.2-1.4,5.1-0.7,6.5,1.5c2.5,3.9,6.8,6.3,11.5,6.3c0,0,0,0,0,0c4.8,0,9.1-2.3,11.6-6.3c1.4-2.2,4.3-2.8,6.5-1.5s2.8,4.3,1.5,6.5
	C275.4,236,268.1,240,260.1,240z"/>
<path fill="#2B3B47" d="M202.2,180.2c-0.5-6.1-5.6-10.9-11.8-10.9c-6.2,0-11.3,4.8-11.8,10.9h-0.1V197h0c0,0,0,0,0,0
	c0,6.6,5.3,11.9,11.9,11.9c6.6,0,11.9-5.3,11.9-11.9c0,0,0,0,0,0v0v-16.8H202.2z"/>
<path fill="#2B3B47" d="M342,180.2c-0.5-6.1-5.6-10.9-11.8-10.9c-6.2,0-11.3,4.8-11.8,10.9h-0.1V197h0.1c0,0,0,0,0,0
	c0,6.6,5.3,11.9,11.9,11.9c6.6,0,11.9-5.3,11.9-11.9c0,0,0,0,0,0v0v-16.8H342z"/>
<path fill="#959DA3" d="M328.8,179.6c-0.1-1.5-1.3-2.6-2.8-2.6c-1.5,0-2.7,1.2-2.8,2.6h0v4h0v0c0,1.6,1.3,2.9,2.9,2.9
	c1.6,0,2.9-1.3,2.9-2.9v0l0,0L328.8,179.6L328.8,179.6z"/>
<path fill="#959DA3" d="M189,179.6c-0.1-1.5-1.3-2.6-2.8-2.6c-1.5,0-2.7,1.2-2.8,2.6h0v4h0v0c0,1.6,1.3,2.9,2.9,2.9
	c1.6,0,2.9-1.3,2.9-2.9v0l0,0L189,179.6L189,179.6z"/>
<path fill="#2B3B47" d="M237.7,271.4c0-8.4,10.1-10.1,22.5-10.1c12.4,0,22.5,1.7,22.5,10.1c0,8.4-10.1,5.4-22.5,5.4
	C247.7,276.9,237.7,279.9,237.7,271.4z"/>
<path fill="#E5AB83" d="M312.7,152.7c0,0,0.5-0.3,1.2-0.7c0.3-0.2,1.1-0.6,1.8-0.9c0.8-0.4,1.5-0.7,2.4-1c0.9-0.3,1.8-0.5,2.8-0.8
	c0.5-0.1,1-0.2,1.6-0.3c0.5-0.1,1.1-0.2,1.6-0.2c0.6-0.1,1.1-0.1,1.7-0.2c0.6,0,1.2,0,1.8,0c0.6,0,1.2,0,1.8,0.1
	c0.6,0.1,1.2,0.1,1.8,0.2l1.8,0.3c0.6,0.2,1.2,0.3,1.7,0.5c0.6,0.1,1.1,0.4,1.7,0.6c0.5,0.2,1.1,0.4,1.6,0.7c0.5,0.3,1,0.5,1.5,0.8
	c0.5,0.2,0.9,0.6,1.3,0.9c0.9,0.6,1.6,1.2,2.3,1.9c0.7,0.6,1.2,1.3,1.7,1.8c0.5,0.5,0.8,1.1,1.1,1.5c0.6,0.9,0.9,1.4,0.9,1.4
	c0.7,1.1,0.4,2.6-0.7,3.3c-1,0.7-2.4,0.4-3.1-0.5l-0.2-0.3c0,0-0.3-0.3-0.8-0.9c-0.2-0.3-0.5-0.7-1-1c-0.4-0.3-0.8-0.8-1.4-1.2
	c-0.5-0.4-1.1-0.8-1.8-1.1c-0.3-0.2-0.6-0.4-1-0.5c-0.4-0.1-0.7-0.3-1.1-0.4c-0.4-0.2-0.8-0.2-1.2-0.3c-0.4-0.1-0.8-0.2-1.2-0.3
	c-0.4-0.1-0.9-0.1-1.3-0.2l-1.3-0.1c-0.4,0-0.9,0-1.3,0c-0.4,0-0.9,0-1.3,0.1c-0.4,0.1-0.9,0.1-1.3,0.2c-0.4,0.1-0.8,0.2-1.2,0.3
	c-0.4,0.1-0.8,0.2-1.2,0.3c-0.4,0.1-0.7,0.2-1.1,0.4c-0.7,0.3-1.4,0.5-1.9,0.8c-0.6,0.3-1.1,0.6-1.4,0.8c-0.4,0.3-0.6,0.4-1.1,0.7
	c-0.7,0.5-1.1,0.9-1.1,0.9l0,0c-2,1.5-4.8,1.1-6.2-0.9c-1.5-2-1.1-4.8,0.9-6.2C312.4,152.9,312.6,152.8,312.7,152.7z"/>
<path fill="#E5AB83" d="M200.8,160.1c0,0-0.4-0.3-1.1-0.9c-0.4-0.3-0.7-0.4-1.1-0.7c-0.3-0.2-0.9-0.5-1.4-0.8
	c-0.6-0.3-1.2-0.5-1.9-0.8c-0.4-0.1-0.7-0.2-1.1-0.4c-0.4-0.1-0.8-0.2-1.2-0.3c-0.4-0.1-0.8-0.2-1.2-0.3c-0.4-0.1-0.8-0.1-1.3-0.2
	c-0.4-0.1-0.9-0.1-1.3-0.1c-0.4,0-0.9-0.1-1.3,0l-1.3,0.1c-0.4,0.1-0.9,0.1-1.3,0.2c-0.4,0-0.8,0.2-1.2,0.3
	c-0.4,0.1-0.8,0.2-1.2,0.3c-0.4,0.1-0.8,0.3-1.1,0.4c-0.4,0.1-0.7,0.3-1,0.5c-0.7,0.3-1.2,0.7-1.8,1.1c-0.6,0.3-1,0.8-1.4,1.2
	c-0.4,0.3-0.7,0.7-1,1c-0.5,0.6-0.8,0.9-0.8,0.9l-0.2,0.3c-0.9,1-2.4,1.1-3.4,0.3c-0.9-0.8-1.1-2.1-0.5-3.1c0,0,0.3-0.5,0.9-1.4
	c0.3-0.4,0.6-1,1.1-1.5c0.5-0.5,1-1.2,1.7-1.8c0.7-0.6,1.4-1.3,2.3-1.9c0.4-0.3,0.9-0.6,1.3-0.9c0.5-0.3,1-0.5,1.5-0.8
	c0.5-0.3,1-0.4,1.6-0.7c0.5-0.2,1.1-0.4,1.7-0.6c0.6-0.2,1.2-0.3,1.7-0.5l1.8-0.3c0.6-0.1,1.2-0.1,1.8-0.2c0.6,0,1.2-0.1,1.8-0.1
	c0.6,0,1.2,0,1.8,0c0.6,0.1,1.1,0.1,1.7,0.2c0.6,0,1.1,0.1,1.6,0.2c0.5,0.1,1.1,0.2,1.6,0.3c1,0.3,2,0.5,2.8,0.8
	c0.9,0.3,1.6,0.6,2.4,1c0.7,0.3,1.5,0.7,1.8,0.9c0.8,0.5,1.2,0.7,1.2,0.7c2.1,1.2,2.9,3.9,1.7,6.1c-1.2,2.1-3.9,2.9-6.1,1.7
	C201.1,160.4,200.9,160.3,200.8,160.1L200.8,160.1z"/>
<path fill="#FFD3B6" d="M454.8,122.5c0,0-5.8,14.7-13,35.3s3.9,2.7,3.9,2.7c7.5-6,10.8-9.9,16.8-2.5c4.8,6,5.6,12.4,1.7,18.5
	c0,0-8.9,16.9-26.3,35.1s-30.4,25.1-30.4,25.1c-10.9,5.9-17.3-6.1-23.1-17.1c-3.7-6.8-3.4-14.7-0.1-21.1l1.8-3.4
	c0,0,15.3-33.6,32.9-60.2c14.5-21.8,23-48.3,34-47.5C466,88.5,461,111,454.8,122.5z"/>
<path fill="#FFD3B6" d="M58.8,129.9c0,0,7.2,14.1,16.4,33.9s-3.6,3.1-3.6,3.1c-8-5.2-11.7-8.8-16.9-0.8c-4.2,6.4-4.4,12.9,0.1,18.6
	c0,0,10.5,15.9,29.6,32.3s32.7,21.9,32.7,21.9c11.5,4.8,16.6-7.8,21.3-19.3c3-7.2,2-15-2-21l-2.1-3.2c0,0-18.5-31.9-38.7-56.6
	C79.1,118.5,67.9,93,57,94.9C44.4,97.2,51.5,119,58.8,129.9z"/>
<path fill="#FFA1E0" d="M403.6,413c-6.8-5.4-42.1-35.1-84.5-70.7l89.7-92.3c9.5-11.2-20.3-64.2-32.1-53.1c0,0-55.6,46.8-115.2,97
	c-59.6-50.2-115.2-97-115.2-97c-11.8-11.1-41.7,41.9-32.2,53.1l89.7,92.4c-42.4,35.7-77.8,65.3-84.6,70.7
	c-42.4,34.1-32.7,88.9,6.9,87.2c33-1.4,92.7-54.4,135.3-96.9c42.6,42.6,102.3,95.5,135.2,96.9C436.3,501.9,446,447.1,403.6,413z"/>
</svg>
