<?xml version="1.0" encoding="iso-8859-1"?>
<!-- Generator: Adobe Illustrator 18.1.1, SVG Export Plug-In . SVG Version: 6.00 Build 0)  -->
<!DOCTYPE svg PUBLIC "-//W3C//DTD SVG 1.1//EN" "http://www.w3.org/Graphics/SVG/1.1/DTD/svg11.dtd">
<svg version="1.1" xmlns="http://www.w3.org/2000/svg" xmlns:xlink="http://www.w3.org/1999/xlink" x="0px" y="0px"
	 viewBox="0 0 512 512" enable-background="new 0 0 512 512" xml:space="preserve">
<g id="Layer_2">
	<path fill="#FF5FD2" d="M508.333,32.666C508.333,16.35,494.984,3,478.668,3H29.032C14.348,3,2.333,15.015,2.333,29.699v452.602
		C2.333,496.985,14.348,509,29.032,509h449.635c16.316,0,29.666-13.35,29.666-29.666V32.666z"/>
</g>
<g id="Layer_3">
	<path fill="#EF2EC2" d="M478.668,488.915H29.032c-14.684,0-26.699-12.015-26.699-26.699v20.085
		C2.333,496.985,14.348,509,29.032,509h449.635c16.316,0,29.666-13.35,29.666-29.666v-20.085
		C508.333,475.565,494.984,488.915,478.668,488.915z"/>
</g>
<g id="Layer_4">
	<path fill="#FFFFFF" d="M290.691,93.283c0,21.06-17.073,38.133-38.133,38.133s-38.133-17.073-38.133-38.133
		s17.073-38.133,38.133-38.133S290.691,72.223,290.691,93.283z M355.355,277.242l-27.743-109.137
		c-0.049-0.194-0.103-0.387-0.16-0.579c-3.115-10.422-12.458-18.865-23.548-22.189c-1.942-0.968-4.124-1.526-6.441-1.526h-1.848
		h-1.945H213.8h-1.945c-14.574,0-27.667,9.753-31.838,23.717c-0.08,0.269-0.153,0.54-0.217,0.813l-25.799,109.137
		c-1.839,7.778,2.977,15.575,10.755,17.413c1.12,0.265,2.239,0.392,3.342,0.392c6.558,0,12.498-4.487,14.072-11.146l25.667-108.58
		c0.615-1.662,2.23-2.8,4.018-2.8h1.945c1.76,0,2.828,0.979,3.308,1.562s1.234,1.82,0.895,3.547l-7.369,37.486l-26.257,110.671
		c-1.644,8.858,3.993,17.244,11.495,17.102l12.658-0.24v91.052c0,9.938,8.056,17.993,17.993,17.993s17.993-8.056,17.993-17.993
		v-91.733l16.142-0.306v92.039c0,9.938,8.056,17.993,17.993,17.993s17.993-8.056,17.993-17.993v-92.72l16.844-0.319
		c7.447-0.141,12.854-8.619,11.079-17.371l-28.102-110.072l-6.996-35.588c-0.187-0.948,0.514-1.975,0.948-2.502
		c1.066-1.296,2.689-2.239,4.257-2.521c2.318,0.388,4.585,1.979,5.014,2.895l27.616,108.635c1.665,6.551,7.554,10.91,14.016,10.91
		c1.181,0,2.38-0.146,3.576-0.449C352.642,292.865,357.325,284.988,355.355,277.242z"/>
</g>
</svg>
