<?xml version="1.0" encoding="utf-8"?>
<!-- Generator: Adobe Illustrator 18.0.0, SVG Export Plug-In . SVG Version: 6.00 Build 0)  -->
<!DOCTYPE svg PUBLIC "-//W3C//DTD SVG 1.1 Tiny//EN" "http://www.w3.org/Graphics/SVG/1.1/DTD/svg11-tiny.dtd">
<svg version="1.1" baseProfile="tiny" id="Layer_1" xmlns="http://www.w3.org/2000/svg" xmlns:xlink="http://www.w3.org/1999/xlink"
	 x="0px" y="0px" width="511.9px" height="511.9px" viewBox="0 0 511.9 511.9" xml:space="preserve">
<g>
	<path fill="#68442A" d="M395.3,144.8c0-74.3-64.2-130.6-138.5-130.6c-74.3,0-130.6,56.3-130.6,130.6l2.6,38.7l0.5,81c0,0,0,0,0.1,0
		c1.2,41.4,17.9,84.5,17.9,84.5c0,7.3,27.5,12,63.7,14.3v-0.9c-27.8-13.6-49.2-38.2-58.6-68.1l0,0c-0.4-1.3-0.8-2.7-1.2-4
		c0,0,0,0,0,0c-0.4-1.3-0.7-2.7-1-4c0,0,0-0.1,0-0.1c-0.3-1.3-0.6-2.6-0.8-3.9c0-0.1,0-0.2-0.1-0.3c-0.2-1.2-0.4-2.5-0.6-3.7
		c0-0.2-0.1-0.4-0.1-0.5c-0.2-1.2-0.3-2.3-0.5-3.5c0-0.3-0.1-0.5-0.1-0.8c-0.1-1.1-0.2-2.2-0.3-3.3c0-0.3-0.1-0.6-0.1-1
		c0-0.4,0-0.7-0.1-1.1c0-16.3,0-37,0-55.2c3.6-16.9,36.6-66.6,64.8-106.8c0.5,0.6,1.1,1.1,1.6,1.7c46.6,46.6,132.8,69.7,165.5,72.7
		l-1.7,26.1c0.8,0,1.5,0,2.3,0.1c0.3,0,0.5,0.1,0.7,0.1c0.5,0.1,1,0.1,1.5,0.2c0.3,0.1,0.6,0.1,0.9,0.2c0.4,0.1,0.9,0.2,1.3,0.3
		c0.3,0.1,0.6,0.2,0.9,0.3c0.4,0.1,0.8,0.3,1.2,0.4c0.3,0.1,0.6,0.2,0.9,0.4c0.4,0.2,0.7,0.3,1.1,0.5c0.3,0.1,0.6,0.3,0.9,0.4
		c0.4,0.2,0.7,0.4,1,0.6c0.3,0.2,0.6,0.3,0.8,0.5c0.3,0.2,0.7,0.4,1,0.7c0.3,0.2,0.5,0.4,0.8,0.5c0.5,0.4,1,0.8,1.5,1.2
		C395.5,175.8,395.3,144.8,395.3,144.8z"/>
	<path fill="#68442A" d="M391,253.3c-0.3,0.2-0.6,0.4-1,0.6c-0.2,0.1-0.5,0.3-0.7,0.4c-0.3,0.2-0.7,0.3-1,0.5
		c-0.3,0.1-0.5,0.2-0.8,0.4c-0.3,0.1-0.7,0.3-1,0.4c-0.3,0.1-0.5,0.2-0.8,0.3c-0.4,0.1-0.7,0.2-1.1,0.3c-0.3,0.1-0.5,0.2-0.8,0.2
		c-0.4,0.1-0.8,0.2-1.2,0.3c-0.3,0.1-0.5,0.1-0.8,0.2c-0.4,0.1-0.9,0.1-1.3,0.2c-0.2,0-0.5,0.1-0.7,0.1c-0.7,0.1-1.4,0.1-2.1,0.1
		c-1.1,0-2.2-0.1-3.3-0.2l-0.2,3.7c0,1.3,0,2.5-0.1,3.8c0,0.3,0,0.6,0,0.8c0,1.2-0.1,2.5-0.2,3.7c0,0.2,0,0.4,0,0.6
		c-0.1,1.1-0.2,2.2-0.3,3.3c0,0.3-0.1,0.5-0.1,0.8c-0.1,1.2-0.3,2.4-0.5,3.5c0,0.3-0.1,0.6-0.1,0.9c-0.2,1.1-0.3,2.1-0.5,3.2
		c0,0.2-0.1,0.4-0.1,0.5c-0.2,1.1-0.5,2.3-0.7,3.4c-0.1,0.3-0.2,0.7-0.2,1c-0.3,1.1-0.5,2.2-0.8,3.3c-0.1,0.3-0.1,0.5-0.2,0.8
		c-0.2,0.9-0.5,1.8-0.8,2.7c-0.1,0.4-0.2,0.7-0.3,1.1c-0.3,1-0.6,2-1,3c-0.1,0.4-0.3,0.8-0.4,1.1c-0.3,0.8-0.5,1.5-0.8,2.3
		c-0.1,0.4-0.3,0.8-0.4,1.1c-0.4,0.9-0.7,1.9-1.1,2.8c-0.2,0.4-0.4,0.9-0.6,1.3c-0.3,0.7-0.6,1.4-0.9,2c-0.3,0.6-0.6,1.2-0.9,1.9
		c-0.3,0.6-0.6,1.2-0.9,1.8c-0.2,0.5-0.5,1-0.7,1.5c-0.4,0.7-0.7,1.4-1.1,2.1c-0.3,0.6-0.7,1.2-1,1.8c-0.3,0.5-0.5,0.9-0.8,1.4
		c-0.3,0.6-0.7,1.1-1,1.7c-0.4,0.7-0.9,1.4-1.3,2.1c-0.3,0.5-0.7,1.1-1,1.6c-0.3,0.4-0.5,0.8-0.8,1.1c-0.6,0.9-1.2,1.7-1.8,2.6
		c-0.2,0.3-0.5,0.7-0.7,1c-0.4,0.5-0.8,1.1-1.2,1.6c-0.2,0.3-0.5,0.6-0.7,0.9c-0.7,0.9-1.4,1.8-2.1,2.6c-0.2,0.3-0.5,0.6-0.7,0.9
		c-0.4,0.5-0.9,1-1.4,1.6c-10.4,11.7-23.2,21.2-37.6,27.9v0.2c41-2,73.6-7,73.6-14.9c0,0,3.6-7.5,6.8-40.3c2.1-15.7,3.6-36,4.6-56.9
		c-0.4,0.3-0.9,0.7-1.4,1C391.5,253,391.3,253.1,391,253.3z"/>
</g>
</svg>
