<?xml version="1.0" encoding="iso-8859-1"?>
<!-- Generator: Adobe Illustrator 19.1.0, SVG Export Plug-In . SVG Version: 6.00 Build 0)  -->
<!DOCTYPE svg PUBLIC "-//W3C//DTD SVG 1.1//EN" "http://www.w3.org/Graphics/SVG/1.1/DTD/svg11.dtd">
<svg version="1.1" xmlns="http://www.w3.org/2000/svg" xmlns:xlink="http://www.w3.org/1999/xlink" x="0px" y="0px"
	 viewBox="0 0 511.92 511.92" enable-background="new 0 0 511.92 511.92" xml:space="preserve">
<g id="Layer_4">
	<path fill="#D32A2A" d="M335.066,236.446c-3.331,0-6.461-2.043-7.691-5.346c-1.577-4.247,0.585-8.969,4.829-10.55l63.837-23.736
		c4.257-1.571,8.976,0.588,10.553,4.832c1.577,4.247-0.585,8.969-4.829,10.55l-63.837,23.736
		C336.984,236.282,336.016,236.446,335.066,236.446z M184.339,231.1c1.577-4.247-0.585-8.969-4.832-10.55l-63.834-23.736
		c-4.235-1.568-8.967,0.585-10.55,4.832c-1.577,4.247,0.585,8.969,4.832,10.55l63.834,23.736c0.941,0.35,1.909,0.515,2.859,0.515
		C179.976,236.446,183.109,234.403,184.339,231.1z"/>
</g>
<g id="Layer_1">
</g>
</svg>
