<?xml version="1.0" encoding="iso-8859-1"?>
<!-- Generator: Adobe Illustrator 19.1.0, SVG Export Plug-In . SVG Version: 6.00 Build 0)  -->
<!DOCTYPE svg PUBLIC "-//W3C//DTD SVG 1.1//EN" "http://www.w3.org/Graphics/SVG/1.1/DTD/svg11.dtd">
<svg version="1.1" xmlns="http://www.w3.org/2000/svg" xmlns:xlink="http://www.w3.org/1999/xlink" x="0px" y="0px"
	 viewBox="0 0 511.92 511.92" enable-background="new 0 0 511.92 511.92" xml:space="preserve">
<g id="Layer_3">
	<path fill="#2B3B47" d="M395.874,246.967c-0.128,0.931-0.339,1.861-0.74,2.764c-6.065,13.646-18.448,22.124-32.314,22.124
		c-13.867,0-26.249-8.478-32.315-22.124c-0.401-0.901-0.612-1.83-0.74-2.76c-1.727-3.95-0.941-8.673,2.456-11.684
		c4.238-3.742,10.679-3.343,14.415,0.871c4.079,4.607,9.98,7.247,16.191,7.247c6.204-0.003,12.098-2.643,16.177-7.244
		c3.729-4.218,10.184-4.617,14.415-0.878C396.815,238.295,397.601,243.019,395.874,246.967z M173.114,235.283
		c-4.231-3.736-10.686-3.346-14.415,0.878c-4.072,4.6-9.966,7.24-16.171,7.244h-0.003c-6.211,0-12.111-2.643-16.191-7.247
		c-3.746-4.224-10.194-4.61-14.415-0.871c-3.399,3.011-4.182,7.735-2.456,11.684c0.128,0.93,0.339,1.86,0.74,2.761
		c6.062,13.646,18.444,22.124,32.314,22.124c13.871,0,26.252-8.478,32.315-22.124c0.401-0.901,0.612-1.83,0.739-2.76
		C177.3,243.021,176.514,238.296,173.114,235.283z M253.732,336.242c-19.164,0-41.185,0.709-41.185,19.874s22.021,34.7,41.185,34.7
		s41.185-15.536,41.185-34.7S272.896,336.242,253.732,336.242z"/>
</g>
<g id="Layer_1">
</g>
</svg>
