<?xml version="1.0" encoding="utf-8"?>
<!-- Generator: Adobe Illustrator 18.0.0, SVG Export Plug-In . SVG Version: 6.00 Build 0)  -->
<!DOCTYPE svg PUBLIC "-//W3C//DTD SVG 1.1 Tiny//EN" "http://www.w3.org/Graphics/SVG/1.1/DTD/svg11-tiny.dtd">
<svg version="1.1" baseProfile="tiny" id="Layer_1" xmlns="http://www.w3.org/2000/svg" xmlns:xlink="http://www.w3.org/1999/xlink"
	 x="0px" y="0px" width="511.9px" height="511.9px" viewBox="0 0 511.9 511.9" xml:space="preserve">
<path fill="#FFD469" d="M255.9,35.3C134,35.3,35.2,134.1,35.2,256c0,3.3,0.1,6.6,0.2,9.9c-12.8,1.7-22.8,12.6-22.8,25.9
	c0,14.5,11.7,26.2,26.2,26.2h5.2c26.8,91.7,111.4,158.7,211.7,158.7c121.8,0,220.6-98.8,220.6-220.6
	C476.5,134.1,377.7,35.3,255.9,35.3z"/>
<path fill="#FFB636" d="M476.2,265.8c0.1-3.3,0.2-6.6,0.2-9.9c0-58.9-23.1-112.5-60.8-152c21.3,34.5,33.6,75.2,33.6,118.8
	c0,125.2-101.5,226.7-226.7,226.7c-43.6,0-84.2-12.3-118.8-33.6c39.6,37.7,93.1,60.8,152,60.8c100.3,0,185-67,211.7-158.7h5.2
	c14.5,0,26.2-11.7,26.2-26.2C499,278.4,489.1,267.5,476.2,265.8z"/>
<path fill="#2B3B47" d="M407.3,314.4c-0.6-1.1-1.4-2-2.7-2.2c-12.4-1.2-284-1.2-296.3,0c-0.5,0-1.1,0.3-1.6,0.6
	c-0.1,0-0.2,0-0.2,0.1c-1.7,1.3-2.1,3.8-0.9,5.7l2.7,4.3c6.2,9.8,12.3,18.2,18.5,25.3c6.2,7.3,12.3,13.5,18.5,19.3
	c12.3,11.4,24.7,19.8,37,26.9c3.3,1.8,6.7,3.2,10.1,4.8c0.2-0.1,0.5-0.3,0.7-0.4c20.1,9.8,41.6,15.4,64.2,15.4
	c22.1,0,43.3-5.4,63-14.8l0,0c3.3-1.5,6.7-2.9,10-4.7c12.3-7.1,24.7-15.5,37-27c6.2-5.9,12.3-12,18.5-19.4
	c6.2-7.1,12.3-15.5,18.5-25.4l2.7-4.3c0.3-0.6,0.6-1.2,0.6-2C408,315.9,407.7,315.1,407.3,314.4z"/>
<path fill="#FF473E" d="M188.6,311.4v85c0,37.5,30.4,67.9,67.9,67.9l0,0c37.4,0,67.8-30.4,67.8-67.9v-85H188.6z"/>
<rect x="188.6" y="311.5" fill="#C44747" width="135.7" height="24.5"/>
<path fill="#C44747" d="M256.5,444.3c-5.8,0-10.5-4.7-10.5-10.5v-71.4c0-5.8,4.7-10.5,10.5-10.5c5.8,0,10.5,4.7,10.5,10.5v71.4
	C267,439.6,262.3,444.3,256.5,444.3z"/>
<path fill="#F2A74E" d="M341,173.6c-1.8,0-3.6-0.6-5-1.9c-3.1-2.8-3.4-7.6-0.6-10.7c8.7-9.8,21.2-15.4,34.3-15.4c0,0,0,0,0,0
	c13.1,0,25.6,5.6,34.3,15.4c2.8,3.1,2.5,8-0.7,10.7c-3.1,2.8-8,2.5-10.7-0.7c-5.8-6.5-14.1-10.3-22.9-10.3h0
	c-8.8,0-17.1,3.7-22.9,10.3C345.2,172.7,343.1,173.6,341,173.6z"/>
<path fill="#F2A74E" d="M368.9,274.2c-8.4,0-16.8-1.8-24.6-5.5c-3.8-1.8-5.4-6.3-3.6-10.1c1.8-3.8,6.3-5.4,10.1-3.6
	c11.8,5.6,25.4,5.4,37.4-0.5c3.8-1.9,8.3-0.3,10.2,3.4c1.9,3.8,0.3,8.3-3.4,10.2C386.7,272.1,377.8,274.2,368.9,274.2z"/>
<path fill="#2B3B47" d="M402.7,225.7c-0.1-0.9-0.3-1.9-0.7-2.8c-6.1-13.7-18.5-22.1-32.3-22.1s-26.3,8.5-32.3,22.1
	c-0.4,0.9-0.6,1.8-0.7,2.8c-1.7,4-0.9,8.7,2.5,11.7c4.2,3.7,10.7,3.3,14.4-0.9c4.1-4.6,10-7.2,16.2-7.2c6.2,0,12.1,2.6,16.2,7.3
	c2,2.3,4.8,3.4,7.7,3.4c2.4,0,4.8-0.8,6.8-2.6C403.6,234.4,404.4,229.7,402.7,225.7z"/>
<path fill="#F2A74E" d="M172,173.6c-2.1,0-4.2-0.9-5.7-2.6c-5.8-6.5-14.1-10.3-22.9-10.3h0c-8.8,0-17.1,3.7-22.9,10.3
	c-2.8,3.1-7.6,3.4-10.7,0.6c-3.1-2.8-3.4-7.6-0.6-10.7c8.7-9.8,21.2-15.4,34.3-15.4c0,0,0,0,0,0c13.1,0,25.6,5.6,34.3,15.4
	c2.8,3.1,2.5,8-0.7,10.7C175.6,173,173.8,173.6,172,173.6z"/>
<path fill="#F2A74E" d="M142.6,274.2c-8.4,0-16.8-1.8-24.6-5.5c-3.8-1.8-5.4-6.3-3.6-10.1c1.8-3.8,6.3-5.4,10.1-3.6
	c11.8,5.6,25.4,5.4,37.4-0.5c3.8-1.9,8.3-0.3,10.2,3.4c1.9,3.8,0.3,8.3-3.4,10.2C160.5,272.1,151.5,274.2,142.6,274.2z"/>
<path fill="#2B3B47" d="M176.4,225.7c-0.1-0.9-0.3-1.9-0.7-2.8c-6.1-13.7-18.5-22.1-32.3-22.1c-13.9,0-26.3,8.5-32.3,22.1
	c-0.4,0.9-0.6,1.8-0.7,2.8c-1.7,4-0.9,8.7,2.5,11.7c4.2,3.7,10.7,3.3,14.4-0.9c4.1-4.6,10-7.2,16.2-7.2h0c6.2,0,12.1,2.6,16.2,7.3
	c2,2.3,4.8,3.4,7.6,3.4c2.4,0,4.8-0.8,6.8-2.6C177.4,234.4,178.2,229.7,176.4,225.7z"/>
</svg>
