<?xml version="1.0" encoding="utf-8"?>
<!-- Generator: Adobe Illustrator 18.0.0, SVG Export Plug-In . SVG Version: 6.00 Build 0)  -->
<!DOCTYPE svg PUBLIC "-//W3C//DTD SVG 1.1 Tiny//EN" "http://www.w3.org/Graphics/SVG/1.1/DTD/svg11-tiny.dtd">
<svg version="1.1" baseProfile="tiny" id="Layer_1" xmlns="http://www.w3.org/2000/svg" xmlns:xlink="http://www.w3.org/1999/xlink"
	 x="0px" y="0px" width="511.9px" height="511.9px" viewBox="0 0 511.9 511.9" xml:space="preserve">
<path fill="#009AAF" d="M129.6,159.5c-6.2,0-12.4-1.3-18.2-3.8c-3.9-1.7-5.7-6.2-4-10.1c1.7-3.9,6.2-5.7,10.1-4
	c8,3.5,17.1,3.3,25-0.4c8-3.7,13.9-10.6,16.4-18.9c1.2-4.1,5.5-6.4,9.6-5.2c4.1,1.2,6.4,5.5,5.2,9.6c-3.7,12.6-12.7,22.9-24.7,28.5
	C142.8,158,136.2,159.5,129.6,159.5z"/>
<path fill="#009AAF" d="M382.5,159.4c-6.7,0-13.3-1.4-19.5-4.3c-11.9-5.6-20.9-15.9-24.6-28.5c-1.2-4.1,1.1-8.4,5.2-9.6
	c4.1-1.2,8.4,1.1,9.6,5.2c2.5,8.3,8.4,15.2,16.4,18.9c7.9,3.7,17.1,3.9,25.1,0.4c3.9-1.7,8.4,0.1,10.1,4c1.7,3.9-0.1,8.4-4,10.1
	C394.9,158.2,388.7,159.4,382.5,159.4z"/>
<path fill="#009AAF" d="M253.9,422c-11.6,0-23.1-2.5-33.9-7.7c-3.8-1.8-5.4-6.4-3.6-10.2c1.8-3.8,6.4-5.4,10.2-3.6
	c17.9,8.5,38.5,8.2,56.7-0.8c3.8-1.9,8.4-0.3,10.3,3.4c1.9,3.8,0.3,8.4-3.4,10.3C278.6,419.2,266.2,422,253.9,422z"/>
<path fill="#009AAF" d="M144.6,259.6c-8.5,0-16.9-1.9-24.8-5.6c-4.1-1.9-5.8-6.8-3.9-10.9c1.9-4.1,6.8-5.8,10.9-3.9
	c11.6,5.5,25.1,5.3,36.9-0.5c4-2,9-0.4,11,3.7c2,4,0.4,8.9-3.7,11C162.6,257.5,153.6,259.6,144.6,259.6z"/>
<path fill="#009AAF" d="M364.2,259.6c-8.5,0-16.9-1.9-24.8-5.6c-4.1-1.9-5.8-6.8-3.9-10.9c1.9-4.1,6.8-5.8,10.9-3.9
	c11.7,5.5,25.1,5.3,36.9-0.5c4-2,8.9-0.4,11,3.7c2,4,0.4,8.9-3.7,11C382.2,257.5,373.2,259.6,364.2,259.6z"/>
</svg>
