<?xml version="1.0" encoding="utf-8"?>
<!-- Generator: Adobe Illustrator 18.0.0, SVG Export Plug-In . SVG Version: 6.00 Build 0)  -->
<!DOCTYPE svg PUBLIC "-//W3C//DTD SVG 1.1 Tiny//EN" "http://www.w3.org/Graphics/SVG/1.1/DTD/svg11-tiny.dtd">
<svg version="1.1" baseProfile="tiny" id="Layer_1" xmlns="http://www.w3.org/2000/svg" xmlns:xlink="http://www.w3.org/1999/xlink"
	 x="0px" y="0px" width="511.9px" height="511.9px" viewBox="0 0 511.9 511.9" xml:space="preserve">
<path fill="#FFD469" d="M255.9,35.3C134,35.3,35.2,134.1,35.2,256c0,3.3,0.1,6.6,0.2,9.9c-12.8,1.7-22.8,12.6-22.8,25.9
	c0,14.5,11.7,26.2,26.2,26.2h5.2c26.8,91.7,111.4,158.7,211.7,158.7c121.8,0,220.6-98.8,220.6-220.6
	C476.5,134.1,377.7,35.3,255.9,35.3z"/>
<path fill="#FFB636" d="M476.2,265.8c0.1-3.3,0.2-6.6,0.2-9.9c0-58.9-23.1-112.5-60.8-152c21.3,34.5,33.6,75.2,33.6,118.8
	c0,125.2-101.5,226.7-226.7,226.7c-43.6,0-84.2-12.3-118.8-33.6c39.6,37.7,93.1,60.8,152,60.8c100.3,0,185-67,211.7-158.7h5.2
	c14.5,0,26.2-11.7,26.2-26.2C499,278.4,489.1,267.5,476.2,265.8z"/>
<path fill="#F2A74E" d="M174.5,150.1c-2.1,0-4.2-0.9-5.7-2.6c-5.8-6.5-14.1-10.3-22.9-10.3c0,0,0,0,0,0c-8.8,0-17.1,3.7-22.9,10.3
	c-2.8,3.1-7.6,3.4-10.7,0.6c-3.1-2.8-3.4-7.6-0.6-10.7c8.7-9.8,21.2-15.4,34.3-15.4h0c13.1,0,25.6,5.6,34.3,15.4
	c2.8,3.1,2.5,8-0.7,10.7C178.1,149.5,176.3,150.1,174.5,150.1z"/>
<path fill="#F2A74E" d="M397.2,150.1c-2.1,0-4.2-0.9-5.7-2.6c-5.8-6.5-14.1-10.3-22.9-10.3c0,0,0,0,0,0c-8.8,0-17.1,3.7-22.9,10.3
	c-2.8,3.1-7.6,3.4-10.7,0.6c-3.1-2.8-3.4-7.6-0.6-10.7c8.7-9.8,21.2-15.4,34.3-15.4c0,0,0,0,0,0c13.1,0,25.6,5.6,34.3,15.4
	c2.8,3.1,2.5,8-0.6,10.7C400.8,149.5,399,150.1,397.2,150.1z"/>
<path fill="#2B3B47" d="M147.3,170.4c13.2,0,24,10.7,24,24V248c0,13.2-10.7,24-24,24l0,0c-13.2,0-24-10.7-24-24v-53.7
	C123.3,181.1,134,170.4,147.3,170.4L147.3,170.4z"/>
<path fill="#2B3B47" d="M364.5,170.4c13.2,0,24,10.7,24,24V248c0,13.2-10.7,24-24,24l0,0c-13.2,0-24-10.7-24-24v-53.7
	C340.5,181.1,351.2,170.4,364.5,170.4L364.5,170.4z"/>
<path fill="#2B3B47" d="M407.3,314.4c-0.6-1.1-1.4-2-2.7-2.2c-12.4-1.2-284-1.2-296.3,0c-0.5,0-1.1,0.3-1.6,0.6
	c-0.1,0-0.2,0-0.2,0.1c-1.7,1.3-2.1,3.8-0.9,5.7l2.7,4.3c6.2,9.8,12.3,18.2,18.5,25.3c6.2,7.3,12.3,13.5,18.5,19.3
	c12.3,11.4,24.7,19.8,37,26.9c3.3,1.8,6.7,3.2,10.1,4.8c0.2-0.1,0.5-0.3,0.7-0.4c20.1,9.8,41.6,15.4,64.2,15.4
	c22.1,0,43.3-5.4,63-14.8l0,0c3.3-1.5,6.7-2.9,10-4.7c12.3-7.1,24.7-15.5,37-27c6.2-5.9,12.3-12,18.5-19.4
	c6.2-7.1,12.3-15.5,18.5-25.4l2.7-4.3c0.3-0.6,0.6-1.2,0.6-2C408,315.9,407.7,315.1,407.3,314.4z"/>
<path fill="#FF473E" d="M188.6,311.4v85c0,37.5,30.4,67.9,67.9,67.9l0,0c37.4,0,67.8-30.4,67.8-67.9v-85H188.6z"/>
<rect x="188.6" y="311.5" fill="#C44747" width="135.7" height="24.5"/>
<path fill="#C44747" d="M256.5,444.3c-5.8,0-10.5-4.7-10.5-10.5v-71.4c0-5.8,4.7-10.5,10.5-10.5c5.8,0,10.5,4.7,10.5,10.5v71.4
	C267,439.6,262.3,444.3,256.5,444.3z"/>
</svg>
