<?xml version="1.0" encoding="iso-8859-1"?>
<!-- Generator: Adobe Illustrator 19.1.0, SVG Export Plug-In . SVG Version: 6.00 Build 0)  -->
<!DOCTYPE svg PUBLIC "-//W3C//DTD SVG 1.1//EN" "http://www.w3.org/Graphics/SVG/1.1/DTD/svg11.dtd">
<svg version="1.1" xmlns="http://www.w3.org/2000/svg" xmlns:xlink="http://www.w3.org/1999/xlink" x="0px" y="0px"
	 viewBox="0 0 512 512" enable-background="new 0 0 512 512" xml:space="preserve">
<g id="Layer_2">
	<polygon fill="#132028" points="312,27.429 301,16.429 301,16 211,16 211,16.429 200,27.429 244.571,72 232,84.571 243.429,96 
		256,83.429 268.571,96 280,84.571 267.429,72 	"/>
</g>
<g id="Layer_3">
	<rect x="128" y="64" fill="#FF473E" width="256" height="368"/>
</g>
<g id="Layer_4">
	<rect x="136" y="72" fill="#F9F9F7" width="240" height="224"/>
</g>
<g id="Layer_5">
	<path fill="#FFD469" d="M276,340c0,11.046-8.954,20-20,20c-11.046,0-20-8.954-20-20s8.954-20,20-20
		C267.046,320,276,328.954,276,340z M179,336c-6.627,0-12,5.373-12,12s5.373,12,12,12s12-5.373,12-12S185.627,336,179,336z M331,336
		c-6.627,0-12,5.373-12,12s5.373,12,12,12s12-5.373,12-12S337.627,336,331,336z"/>
</g>
<g id="Layer_6">
	<path fill="#132028" d="M353,118H161V86h192V118z M252,134H144v144h108V134z M260,134v144h108V134H260z M209,496l16-64h-32l-64,64
		H209z M384,496l-64-64h-32l16,64H384z"/>
</g>
<g id="Layer_7">
	<polygon fill="#FFFFFF" points="227.429,32 284.571,32 256,60.571 	"/>
</g>
</svg>
