<?xml version="1.0" encoding="iso-8859-1"?>
<!-- Generator: Adobe Illustrator 18.1.1, SVG Export Plug-In . SVG Version: 6.00 Build 0)  -->
<!DOCTYPE svg PUBLIC "-//W3C//DTD SVG 1.1//EN" "http://www.w3.org/Graphics/SVG/1.1/DTD/svg11.dtd">
<svg version="1.1" xmlns="http://www.w3.org/2000/svg" xmlns:xlink="http://www.w3.org/1999/xlink" x="0px" y="0px"
	 viewBox="0 0 512 512" enable-background="new 0 0 512 512" xml:space="preserve">
<g id="Layer_2">
	<path fill="#9BA5A8" d="M484.053,83.124H187c-58,0-84.837,81.532-84.837,81.532c0,10.018,46.919,1.321,56.407,1.321h325.483
		c9.488,0,17.18-8.121,17.18-18.139v-46.574C501.233,91.245,493.541,83.124,484.053,83.124z"/>
</g>
<g id="Layer_3">
	<path fill="#DEE1E2" d="M10.391,378.041v-113.86c0-35.282,87.992-118.581,107.136-136.285c2.326-2.151,5.374-3.345,8.542-3.345H478
		c23.797,0,25.333-0.103,25.333,20.516v232.974c0,20.62-19.292,37.335-43.089,37.335H53.48
		C29.683,415.376,10.391,398.661,10.391,378.041z"/>
</g>
<g id="Layer_4">
	<path fill="#9BA5A8" d="M49.653,414.451c0-33.938,27.513-61.451,61.451-61.451s61.451,27.513,61.451,61.451 M450.546,414.451
		c0-33.938-27.513-61.451-61.451-61.451s-61.451,27.513-61.451,61.451"/>
</g>
<g id="Layer_5">
	<path fill="#2B3B47" d="M155.983,414.451c0,24.786-20.093,44.879-44.879,44.879s-44.879-20.093-44.879-44.879
		c0-24.786,20.093-44.879,44.879-44.879S155.983,389.665,155.983,414.451z M389.095,369.572c-24.786,0-44.879,20.093-44.879,44.879
		c0,24.786,20.093,44.879,44.879,44.879c24.786,0,44.879-20.093,44.879-44.879C433.974,389.665,413.881,369.572,389.095,369.572z"/>
</g>
<g id="Layer_6">
	<rect x="10.391" y="303.492" fill="#597B91" width="492.942" height="39.617"/>
</g>
<g id="Layer_7">
	<path fill="#9BA5A8" d="M131.555,414.451c0,11.295-9.156,20.451-20.451,20.451s-20.451-9.156-20.451-20.451
		c0-11.295,9.156-20.451,20.451-20.451S131.555,403.156,131.555,414.451z M389.095,394c-11.295,0-20.451,9.156-20.451,20.451
		c0,11.295,9.156,20.451,20.451,20.451s20.451-9.156,20.451-20.451C409.546,403.156,400.39,394,389.095,394z"/>
</g>
<g id="Layer_8">
	<path fill="#00B1FF" d="M129.83,164.656h79.071c4.327,0,7.834,3.507,7.834,7.834v67.114c0,4.327-3.507,7.834-7.834,7.834H63.84
		c-7.487,0-10.708-9.496-4.767-14.051l50.568-59.404C114.679,168.066,122.059,164.656,129.83,164.656z M334,233.038v-53.982
		c0-7.953-6.447-14.4-14.4-14.4h-57.2c-7.953,0-14.4,6.447-14.4,14.4v53.982c0,7.953,6.447,14.4,14.4,14.4h57.2
		C327.553,247.438,334,240.991,334,233.038z M502.38,164.656H376.22c-7.953,0-14.4,6.447-14.4,14.4v53.982
		c0,7.953,6.447,14.4,14.4,14.4h126.16V164.656z"/>
</g>
<g id="Layer_9">
	<path fill="#597B91" d="M462.8,112.4H178.257c-3.976,0-7.2-3.224-7.2-7.2v0c0-3.976,3.224-7.2,7.2-7.2H462.8
		c3.976,0,7.2,3.224,7.2,7.2v0C470,109.176,466.776,112.4,462.8,112.4z"/>
</g>
</svg>
