<svg xmlns="http://www.w3.org/2000/svg" viewBox="0 0 512 512" enable-background="new 0 0 512 512"><path fill="#597B91" d="M320.466 432.5c5.305 0 9.604-4.3 9.604-9.604V224.33c0-5.304-4.3-9.604-9.604-9.604h-52.92v-42.13c0-6.19-5.017-11.207-11.205-11.207s-11.205 5.016-11.205 11.205v42.13h-52.92c-5.305 0-9.605 4.3-9.605 9.606v198.566c0 5.305 4.3 9.604 9.605 9.604h52.92v27.112h-34.83c-14.24 0-25.78 11.542-25.78 25.78V501.8c0 3.976 3.224 7.2 7.2 7.2h128.503c3.976 0 7.2-3.224 7.2-7.2v-16.41c0-14.237-11.542-25.778-25.78-25.778h-34.102V432.5h52.92zM201.82 413.29V233.937h109.04V413.29H201.82z"/></svg>