<?xml version="1.0" encoding="utf-8"?>
<!-- Generator: Adobe Illustrator 18.0.0, SVG Export Plug-In . SVG Version: 6.00 Build 0)  -->
<!DOCTYPE svg PUBLIC "-//W3C//DTD SVG 1.1//EN" "http://www.w3.org/Graphics/SVG/1.1/DTD/svg11.dtd">
<svg version="1.1" id="Layer_1" xmlns="http://www.w3.org/2000/svg" xmlns:xlink="http://www.w3.org/1999/xlink" x="0px" y="0px"
	 width="511.9px" height="511.9px" viewBox="0 0 511.9 511.9" enable-background="new 0 0 511.9 511.9" xml:space="preserve">
<path fill="#FF473E" d="M325.3,403.2c0.1,0,0.1-0.1,0.2-0.1c-20.4-14.3-44.3-9.7-69.5-6.6l-0.1,0l-0.1,0
	c-25.2-3.1-49.1-7.7-69.5,6.6c0.1,0,0.1,0.1,0.2,0.1c-0.1,0-0.1,0.1-0.2,0.1c22.8,10.2,45.6,15,68.4,15.1c0.4,0,0.7,0.1,1.1,0.1
	l0.1,0l0.1,0c0.4,0,0.7-0.1,1.1-0.1c22.8-0.1,45.6-4.9,68.4-15.1C325.4,403.2,325.4,403.2,325.3,403.2z"/>
</svg>
