<?xml version="1.0" encoding="iso-8859-1"?>
<!-- Generator: Adobe Illustrator 19.1.0, SVG Export Plug-In . SVG Version: 6.00 Build 0)  -->
<!DOCTYPE svg PUBLIC "-//W3C//DTD SVG 1.1//EN" "http://www.w3.org/Graphics/SVG/1.1/DTD/svg11.dtd">
<svg version="1.1" xmlns="http://www.w3.org/2000/svg" xmlns:xlink="http://www.w3.org/1999/xlink" x="0px" y="0px"
	 viewBox="0 0 512 512" enable-background="new 0 0 512 512" xml:space="preserve">
<g id="Layer_2">
	<path fill="#2B3B47" d="M161.388,283.947l-13.553,13.553c-2.218,2.218-5.815,2.218-8.033,0l-13.553-13.553
		c-2.218-2.218-2.218-5.815,0-8.033l13.553-13.553c2.218-2.218,5.815-2.218,8.033,0l13.553,13.553
		C163.607,278.133,163.607,281.729,161.388,283.947z M195.891,334.295v-19.167c0-3.137-2.543-5.68-5.68-5.68h-19.167
		c-3.137,0-5.68,2.543-5.68,5.68v19.167c0,3.137,2.543,5.68,5.68,5.68h19.167C193.348,339.975,195.891,337.432,195.891,334.295z
		 M152.313,373.77l8.913-16.968c1.459-2.777,0.39-6.211-2.387-7.67l-16.968-8.913c-2.777-1.459-6.211-0.39-7.67,2.387l-8.913,16.968
		c-1.459,2.777-0.39,6.211,2.387,7.67l16.968,8.913C147.42,377.616,150.854,376.548,152.313,373.77z M305.85,150.975
		c20.91,0,37.861-16.951,37.861-37.861S326.76,75.254,305.85,75.254s-37.861,16.951-37.861,37.861S284.94,150.975,305.85,150.975z
		 M356.959,164.243H253.867c-0.238,0-0.469,0.023-0.704,0.036c-0.109,0.005-0.219,0.01-0.328,0.017
		c-0.126,0.01-0.253,0.015-0.377,0.029c-15.815,1.085-28.352,14.29-28.352,30.375v31.646l-49.118-0.001
		c-7.093,0-12.844,5.751-12.844,12.845c-0.001,7.094,5.75,12.845,12.844,12.845l61.963,0.001c3.406,0,6.674-1.353,9.082-3.762
		c2.409-2.409,3.762-5.676,3.762-9.083v-44.49c0-2.629,2.138-4.767,4.767-4.767c2.629,0,4.767,2.138,4.767,4.767v71.254
		c0,0.699,0.071,1.38,0.179,2.049v30.531c-0.134,1.438-0.211,2.892-0.211,4.364v114.756c0,10.545,8.548,19.093,19.093,19.093
		c10.545,0,19.093-8.549,19.093-19.093V302.897c0-4.627,3.764-8.391,8.392-8.391c4.627,0,8.391,3.764,8.391,8.391v114.756
		c0,10.545,8.549,19.093,19.093,19.093s19.093-8.549,19.093-19.093V302.897c0-1.655-0.09-3.289-0.259-4.901V194.688
		c0.006-2.623,2.142-4.756,4.767-4.756c2.629,0,4.767,2.138,4.767,4.767v116.034c0,7.094,5.75,12.844,12.844,12.844
		s12.844-5.75,12.844-12.844V194.699C387.415,177.906,373.753,164.243,356.959,164.243z"/>
</g>
<g id="Layer_1">
</g>
</svg>
