<?xml version="1.0" encoding="utf-8"?>
<!-- Generator: Adobe Illustrator 18.0.0, SVG Export Plug-In . SVG Version: 6.00 Build 0)  -->
<!DOCTYPE svg PUBLIC "-//W3C//DTD SVG 1.1 Tiny//EN" "http://www.w3.org/Graphics/SVG/1.1/DTD/svg11-tiny.dtd">
<svg version="1.1" baseProfile="tiny" id="Layer_1" xmlns="http://www.w3.org/2000/svg" xmlns:xlink="http://www.w3.org/1999/xlink"
	 x="0px" y="0px" width="511.9px" height="511.9px" viewBox="0 0 511.9 511.9" xml:space="preserve">
<path fill="#FFD3B6" d="M377.7,214.7l3.9-58.5c0-66.8-57.7-101.3-124.4-101.3c-66.8,0-117.3,34.5-117.3,101.3l3.9,58.1
	c-1.8-0.4-3.7-0.6-5.7-0.6c-14,0-25.3,11.3-25.3,25.3c0,14,11.3,25.3,25.3,25.3c3.1,0,6.1-0.6,8.9-1.6l0.3,5.1
	c0,44.8,26,83.5,63.7,102v34.1c0,13.5,21.9,24.4,48.9,24.4c27,0,48.9-10.9,48.9-24.4c0-1.5-0.3-3-0.8-4.4v-28.5
	c39.1-17.9,66.2-57.4,66.2-103.1l0.3-3.8c12.1-1.9,21.4-12.3,21.4-25C395.9,227.4,388.2,217.7,377.7,214.7z"/>
</svg>
