<?xml version="1.0" encoding="utf-8"?>
<!-- Generator: Adobe Illustrator 18.0.0, SVG Export Plug-In . SVG Version: 6.00 Build 0)  -->
<!DOCTYPE svg PUBLIC "-//W3C//DTD SVG 1.1 Tiny//EN" "http://www.w3.org/Graphics/SVG/1.1/DTD/svg11-tiny.dtd">
<svg version="1.1" baseProfile="tiny" id="Layer_1" xmlns="http://www.w3.org/2000/svg" xmlns:xlink="http://www.w3.org/1999/xlink"
	 x="0px" y="0px" width="511.9px" height="511.9px" viewBox="0 0 511.9 511.9" xml:space="preserve">
<path fill="#F2A74E" d="M384.2,228.2c-5.3,0-10.7-0.9-15.8-2.8c-12.4-4.5-22.2-14.1-27-26.2c-1.6-4,0.4-8.4,4.3-10
	c3.9-1.6,8.4,0.4,10,4.3c3.2,8.1,9.8,14.4,18,17.4c8.2,3,17.3,2.3,25-1.8c3.7-2,8.4-0.6,10.4,3.1c2,3.7,0.6,8.4-3.1,10.4
	C399.3,226.4,391.8,228.2,384.2,228.2z"/>
<path fill="#F2A74E" d="M114.6,228.2c-7.5,0-15-1.9-21.8-5.5c-3.7-2-5.1-6.7-3.1-10.4c2-3.7,6.7-5.1,10.4-3.1
	c7.7,4.1,16.8,4.8,25,1.8c8.2-3,14.8-9.3,18-17.4c1.6-3.9,6-5.9,10-4.3c4,1.6,5.9,6,4.3,10c-4.8,12.2-14.6,21.7-27,26.2
	C125.3,227.3,119.9,228.2,114.6,228.2z"/>
</svg>
