<?xml version="1.0" encoding="iso-8859-1"?>
<!-- Generator: Adobe Illustrator 18.1.0, SVG Export Plug-In . SVG Version: 6.00 Build 0)  -->
<!DOCTYPE svg PUBLIC "-//W3C//DTD SVG 1.1//EN" "http://www.w3.org/Graphics/SVG/1.1/DTD/svg11.dtd">
<svg version="1.1" xmlns="http://www.w3.org/2000/svg" xmlns:xlink="http://www.w3.org/1999/xlink" x="0px" y="0px"
	 viewBox="0 0 512 512" enable-background="new 0 0 512 512" xml:space="preserve">
<g id="Layer_2">
	<path fill="#C4C5C6" d="M497.822,498.579H14.178c-3.976,0-7.2-3.224-7.2-7.2v-18.177c0-3.976,3.224-7.2,7.2-7.2h483.643
		c3.976,0,7.2,3.224,7.2,7.2v18.177C505.022,495.355,501.798,498.579,497.822,498.579z M458.766,22.102
		c0-5.799-4.701-10.5-10.5-10.5H63.734c-5.799,0-10.5,4.701-10.5,10.5s4.701,10.5,10.5,10.5h384.531
		C454.064,32.602,458.766,27.901,458.766,22.102z M385.851,133.735v-3.895c0-11.929-9.671-21.6-21.6-21.6H147.749
		c-11.929,0-21.6,9.671-21.6,21.6v3.895c0,11.929,9.671,21.6,21.6,21.6h216.503C376.181,155.335,385.851,145.664,385.851,133.735z"
		/>
</g>
<g id="Layer_3">
	<path fill="#9BA5A8" d="M340.96,40.128c0.109-0.022,0.215-0.048,0.323-0.071c0.456-0.099,0.906-0.214,1.349-0.347
		c0.092-0.027,0.185-0.05,0.276-0.079c0.473-0.15,0.936-0.323,1.392-0.509c0.149-0.061,0.297-0.124,0.445-0.188
		c0.432-0.19,0.858-0.391,1.272-0.613c0.141-0.076,0.277-0.16,0.416-0.239c0.301-0.171,0.596-0.351,0.886-0.538
		c0.166-0.107,0.332-0.211,0.494-0.324c0.347-0.241,0.685-0.495,1.014-0.758c0.182-0.146,0.359-0.296,0.535-0.449
		c0.209-0.181,0.412-0.367,0.613-0.557c0.266-0.251,0.522-0.509,0.773-0.775c0.169-0.18,0.337-0.362,0.498-0.549
		c0.172-0.199,0.342-0.398,0.506-0.604c0.239-0.3,0.469-0.607,0.689-0.922c2.08-2.979,3.309-6.596,3.309-10.504
		s-1.229-7.525-3.309-10.504c-0.22-0.315-0.451-0.621-0.689-0.922c-0.164-0.206-0.334-0.406-0.506-0.604
		c-0.162-0.187-0.329-0.368-0.498-0.549c-0.25-0.266-0.507-0.524-0.773-0.775c-0.201-0.19-0.404-0.376-0.613-0.557
		c-0.176-0.152-0.353-0.303-0.535-0.449c-0.329-0.264-0.667-0.517-1.014-0.758c-0.162-0.112-0.328-0.217-0.494-0.324
		c-0.29-0.188-0.585-0.367-0.886-0.538c-0.139-0.079-0.275-0.163-0.416-0.239c-0.414-0.222-0.84-0.423-1.272-0.613
		c-0.147-0.065-0.295-0.128-0.445-0.188c-0.456-0.186-0.918-0.359-1.392-0.509c-0.091-0.029-0.184-0.052-0.276-0.079
		c-0.443-0.133-0.893-0.247-1.349-0.347c-0.108-0.023-0.214-0.05-0.323-0.071c-0.515-0.102-1.038-0.181-1.567-0.239
		c-0.115-0.013-0.23-0.022-0.345-0.032c-0.554-0.05-1.113-0.085-1.681-0.085H215.177c-0.568,0-1.126,0.034-1.681,0.085
		c-0.115,0.01-0.231,0.02-0.345,0.032c-0.529,0.058-1.052,0.137-1.567,0.239c-0.109,0.022-0.215,0.048-0.323,0.072
		c-0.456,0.099-0.906,0.214-1.349,0.347c-0.092,0.027-0.185,0.05-0.276,0.079c-0.473,0.15-0.936,0.323-1.392,0.509
		c-0.149,0.061-0.297,0.124-0.445,0.188c-0.432,0.19-0.858,0.391-1.272,0.613c-0.141,0.076-0.277,0.16-0.416,0.239
		c-0.3,0.171-0.596,0.35-0.885,0.538c-0.166,0.107-0.333,0.212-0.495,0.324c-0.347,0.241-0.684,0.494-1.013,0.758
		c-0.182,0.146-0.359,0.297-0.535,0.449c-0.209,0.18-0.412,0.367-0.612,0.556c-0.266,0.251-0.523,0.509-0.773,0.776
		c-0.169,0.18-0.337,0.362-0.499,0.549c-0.172,0.198-0.342,0.398-0.505,0.603c-0.239,0.301-0.47,0.608-0.691,0.924
		c-2.079,2.978-3.307,6.595-3.307,10.502s1.228,7.524,3.307,10.502c0.22,0.316,0.452,0.623,0.691,0.924
		c0.164,0.206,0.333,0.405,0.505,0.603c0.162,0.187,0.329,0.369,0.499,0.549c0.25,0.266,0.507,0.525,0.773,0.776
		c0.2,0.19,0.403,0.376,0.612,0.556c0.176,0.152,0.353,0.303,0.535,0.449c0.329,0.264,0.666,0.517,1.013,0.758
		c0.162,0.112,0.329,0.217,0.495,0.324c0.29,0.187,0.585,0.367,0.885,0.538c0.139,0.079,0.275,0.163,0.416,0.239
		c0.414,0.222,0.84,0.423,1.272,0.613c0.147,0.065,0.295,0.128,0.445,0.188c0.456,0.186,0.918,0.359,1.392,0.509
		c0.091,0.029,0.184,0.052,0.276,0.079c0.443,0.133,0.892,0.247,1.349,0.347c0.108,0.023,0.215,0.05,0.323,0.072
		c0.515,0.102,1.038,0.181,1.567,0.239c0.115,0.013,0.23,0.022,0.345,0.032c0.554,0.05,1.113,0.085,1.681,0.085h39.552l21.73,25.409
		l-34.43,40.256c-0.57,0.667-1.064,1.372-1.523,2.091h48.111l26-30.4c5.883-6.879,5.883-17.017,0-23.896l-11.512-13.461h34.26
		c0.568,0,1.126-0.034,1.681-0.085c0.115-0.01,0.231-0.02,0.345-0.032C339.922,40.309,340.445,40.23,340.96,40.128z"/>
</g>
<g id="Layer_4">
	<path fill="#2B3B47" d="M109.475,433.859c0,23.423-18.988,42.411-42.411,42.411s-42.411-18.988-42.411-42.411
		c0-23.423,18.988-42.411,42.411-42.411S109.475,410.436,109.475,433.859z M165.733,391.448c-23.423,0-42.411,18.988-42.411,42.411
		c0,23.423,18.988,42.411,42.411,42.411s42.411-18.988,42.411-42.411C208.144,410.436,189.156,391.448,165.733,391.448z
		 M346.267,391.448c-23.423,0-42.411,18.988-42.411,42.411c0,23.423,18.988,42.411,42.411,42.411
		c23.423,0,42.411-18.988,42.411-42.411C388.677,410.436,369.689,391.448,346.267,391.448z M444.935,391.448
		c-23.423,0-42.411,18.988-42.411,42.411c0,23.423,18.988,42.411,42.411,42.411c23.423,0,42.411-18.988,42.411-42.411
		C487.346,410.436,468.358,391.448,444.935,391.448z"/>
</g>
<g id="Layer_5">
	<path fill="#597B91" d="M93.48,433.859c0,14.589-11.827,26.415-26.415,26.415s-26.415-11.827-26.415-26.415
		c0-14.589,11.827-26.415,26.415-26.415S93.48,419.27,93.48,433.859z M165.733,407.444c-14.589,0-26.415,11.827-26.415,26.415
		c0,14.589,11.827,26.415,26.415,26.415s26.415-11.827,26.415-26.415C192.149,419.27,180.322,407.444,165.733,407.444z
		 M346.267,407.444c-14.589,0-26.415,11.827-26.415,26.415c0,14.589,11.827,26.415,26.415,26.415
		c14.589,0,26.415-11.827,26.415-26.415C372.682,419.27,360.855,407.444,346.267,407.444z M444.935,407.444
		c-14.589,0-26.415,11.827-26.415,26.415c0,14.589,11.827,26.415,26.415,26.415c14.589,0,26.415-11.827,26.415-26.415
		C471.351,419.27,459.524,407.444,444.935,407.444z"/>
</g>
<g id="Layer_6">
	<path fill="#EBECED" d="M489.137,438.203H22.863c-8.773,0-15.885-7.112-15.885-15.885V171.522c0-23.364,18.94-42.304,42.304-42.304
		h413.436c23.364,0,42.304,18.94,42.304,42.304v250.796C505.022,431.091,497.91,438.203,489.137,438.203z"/>
</g>
<g id="Layer_7">
	<rect x="6.978" y="191.594" fill="#FF473E" width="498.043" height="200.779"/>
</g>
<g id="Layer_8">
	<rect x="6.978" y="371.429" fill="#D32A2A" width="498.043" height="41.887"/>
</g>
<g id="Layer_9">
	<path fill="#00B1FF" d="M38.706,328.473H6.978V203.079h31.728c13.552,0,24.538,10.986,24.538,24.538v76.318
		C63.245,317.487,52.258,328.473,38.706,328.473z M177.478,328.167v-94.782c0-3.976-3.224-7.2-7.2-7.2h-49.445
		c-3.976,0-7.2,3.224-7.2,7.2v94.782c0,3.976,3.224,7.2,7.2,7.2h49.445C174.255,335.367,177.478,332.144,177.478,328.167z
		 M287.922,311.759v-61.965c0-3.976-3.224-7.2-7.2-7.2h-49.445c-3.976,0-7.2,3.224-7.2,7.2v61.965c0,3.976,3.224,7.2,7.2,7.2h49.445
		C284.699,318.959,287.922,315.735,287.922,311.759z M398.367,328.167v-94.782c0-3.976-3.224-7.2-7.2-7.2h-49.445
		c-3.976,0-7.2,3.224-7.2,7.2v94.782c0,3.976,3.224,7.2,7.2,7.2h49.445C395.143,335.367,398.367,332.144,398.367,328.167z
		 M448.755,242.617v76.318c0,13.552,10.986,24.538,24.538,24.538h31.728V218.079h-31.728
		C459.742,218.079,448.755,229.065,448.755,242.617z"/>
</g>
</svg>
