<?xml version="1.0" encoding="utf-8"?>
<!-- Generator: Adobe Illustrator 18.0.0, SVG Export Plug-In . SVG Version: 6.00 Build 0)  -->
<!DOCTYPE svg PUBLIC "-//W3C//DTD SVG 1.1 Tiny//EN" "http://www.w3.org/Graphics/SVG/1.1/DTD/svg11-tiny.dtd">
<svg version="1.1" baseProfile="tiny" id="_x25_head"
	 xmlns="http://www.w3.org/2000/svg" xmlns:xlink="http://www.w3.org/1999/xlink" x="0px" y="0px" width="511.9px" height="511.9px"
	 viewBox="0 0 511.9 511.9" xml:space="preserve">
<path fill="#F2A74E" d="M141.6,197.6c-1.8,0-3.6-0.6-5-1.9c-3.1-2.8-3.4-7.6-0.6-10.7c8.7-9.8,21.2-15.4,34.3-15.4c0,0,0,0,0,0
	c13.1,0,25.6,5.6,34.3,15.4c2.8,3.1,2.5,8-0.7,10.7c-3.1,2.8-8,2.5-10.7-0.7c-5.8-6.5-14.1-10.3-22.9-10.3h0
	c-8.8,0-17.1,3.7-22.9,10.3C145.8,196.7,143.7,197.6,141.6,197.6z"/>
<path fill="#F2A74E" d="M418.5,156.7c-2.1,0-4.2-0.9-5.7-2.6c-5.8-6.5-14.1-10.3-22.9-10.3c0,0,0,0,0,0c-8.8,0-17.1,3.7-22.9,10.3
	c-2.8,3.1-7.6,3.4-10.7,0.6c-3.1-2.8-3.4-7.6-0.6-10.7c8.7-9.8,21.2-15.4,34.3-15.4c0,0,0,0,0,0c13.1,0,25.6,5.6,34.3,15.4
	c2.8,3.1,2.5,8-0.6,10.7C422.1,156.1,420.3,156.7,418.5,156.7z"/>
<path fill="#F2A74E" d="M169.5,274.8c-8.4,0-16.8-1.8-24.6-5.6c-3.8-1.8-5.4-6.3-3.6-10.1c1.8-3.8,6.3-5.4,10.1-3.6
	c11.8,5.6,25.4,5.4,37.4-0.5c3.8-1.9,8.3-0.3,10.2,3.4c1.9,3.8,0.3,8.3-3.4,10.2C187.3,272.8,178.3,274.8,169.5,274.8z"/>
<path fill="#F2A74E" d="M413.7,272.4H366c-4.2,0-7.6-3.4-7.6-7.6s3.4-7.6,7.6-7.6h47.7c4.2,0,7.6,3.4,7.6,7.6
	S417.9,272.4,413.7,272.4z"/>
</svg>
