<svg xmlns="http://www.w3.org/2000/svg" viewBox="0 0 512 512" enable-background="new 0 0 512 512"><path fill="#FC6868" d="M170.247 176.37c.177.227.476.6.4.532.005.014.012.026.022.037l.01.01.053.08.108.163.44.658.47.725c.633.982 1.284 2.025 1.934 3.072 1.302 2.104 2.607 4.26 3.907 6.42 2.602 4.328 5.19 8.703 7.767 13.086l2.882 4.406 7.653 13.22 4.13 6.923c4.078 10.277 76.478.28 76.478.28 2.964-2.048 3.705-6.112 1.656-9.075-1.862-2.692-5.386-3.548-8.237-2.147l-54.837-6.88-7.552-13.393-2.782-4.586c-2.552-4.453-5.114-8.902-7.726-13.362-1.308-2.232-2.622-4.46-3.983-6.717-.685-1.13-1.374-2.262-2.11-3.436l-.564-.89-.613-.942-.36-.542-.527-.748c-.43-.6-.536-.72-.747-1-3.787-5.022-10.926-6.022-15.946-2.237-5.02 3.786-6.02 10.925-2.236 15.945l.083.108.227.292z"/></svg>