<?xml version="1.0" encoding="iso-8859-1"?>
<!-- Generator: Adobe Illustrator 18.1.1, SVG Export Plug-In . SVG Version: 6.00 Build 0)  -->
<!DOCTYPE svg PUBLIC "-//W3C//DTD SVG 1.1//EN" "http://www.w3.org/Graphics/SVG/1.1/DTD/svg11.dtd">
<svg version="1.1" xmlns="http://www.w3.org/2000/svg" xmlns:xlink="http://www.w3.org/1999/xlink" x="0px" y="0px"
	 viewBox="0 0 512 512" enable-background="new 0 0 512 512" xml:space="preserve">
<g id="Layer_2">
	<path fill="#00B1FF" d="M498.629,264.06l-29.251-22.649l-37.291-76.419c-8.131-16.662-25.048-27.231-43.588-27.231H199.952
		c-16.079,0-30.919,8.636-38.862,22.616l-45.143,79.451c-44.091,1.191-86.09,29.911-86.09,29.911
		c-16.017,7.14-17.251,27.918-17.251,45.455c0,4.287,0.663,7.763-3.624,7.763h0c-4.287,0-7.763,3.476-7.763,7.763v27.724
		c0,4.287,3.475,7.763,7.763,7.763h469.044c18.586,0,33.652-15.067,33.652-33.652v-41.887
		C511.678,280.257,506.86,270.433,498.629,264.06z"/>
</g>
<g id="Layer_1">
</g>
</svg>
