<?xml version="1.0" encoding="utf-8"?>
<!-- Generator: Adobe Illustrator 18.0.0, SVG Export Plug-In . SVG Version: 6.00 Build 0)  -->
<!DOCTYPE svg PUBLIC "-//W3C//DTD SVG 1.1 Tiny//EN" "http://www.w3.org/Graphics/SVG/1.1/DTD/svg11-tiny.dtd">
<svg version="1.1" baseProfile="tiny" id="Layer_1" xmlns="http://www.w3.org/2000/svg" xmlns:xlink="http://www.w3.org/1999/xlink"
	 x="0px" y="0px" width="511.9px" height="511.9px" viewBox="0 0 511.9 511.9" xml:space="preserve">
<path fill="#2B3B47" d="M252.5,404.7c-10,0-20.1-1.1-30.1-3.5c-5.9-1.4-9.6-7.3-8.2-13.3c1.4-5.9,7.3-9.6,13.3-8.2
	c42,9.9,87-6,111.9-39.4c3.6-4.9,10.6-5.9,15.4-2.3c4.9,3.6,5.9,10.6,2.3,15.4C332.9,385.9,293.3,404.7,252.5,404.7z"/>
<path fill="#2B3B47" d="M145.7,210.2c13.4,0,24.2,10.8,24.2,24.2v54.3c0,13.4-10.8,6.6-24.2,6.6l0,0c-13.4,0-24.2,6.8-24.2-6.6
	v-54.3C121.5,221.1,132.3,210.2,145.7,210.2L145.7,210.2z"/>
<path fill="#2B3B47" d="M365.3,226.6c13.4,0,24.2,10.8,24.2,24.2v38c0,13.4-10.8,7.9-24.2,7.9l0,0c-13.4,0-24.2,5.5-24.2-7.9v-38
	C341.1,237.4,352,226.6,365.3,226.6L365.3,226.6z"/>
</svg>
