<svg xmlns="http://www.w3.org/2000/svg" viewBox="0 0 512 512" enable-background="new 0 0 512 512"><path fill="#45565B" d="M165 277.9H65.353v-51.807c0-11.93 9.67-21.6 21.6-21.6H143.4c11.93 0 21.6 9.67 21.6 21.6V277.9zM40.634 226.094c0-11.93-9.67-21.6-21.6-21.6H-.31v76.09h40.945v-54.49zm296.95 76.63v-76.63c0-11.93-9.67-21.6-21.6-21.6h-64.637c-11.93 0-21.6 9.67-21.6 21.6v76.63c0 11.93 9.67 21.6 21.6 21.6h64.638c11.93 0 21.6-9.67 21.6-21.6zm147.072 0v-76.63c0-11.93-9.67-21.6-21.6-21.6h-64.638c-11.93 0-21.6 9.67-21.6 21.6v76.63c0 11.93 9.67 21.6 21.6 21.6h64.638c11.93 0 21.6-9.67 21.6-21.6z"/></svg>