<?xml version="1.0" encoding="iso-8859-1"?>
<!-- Generator: Adobe Illustrator 18.1.1, SVG Export Plug-In . SVG Version: 6.00 Build 0)  -->
<!DOCTYPE svg PUBLIC "-//W3C//DTD SVG 1.1//EN" "http://www.w3.org/Graphics/SVG/1.1/DTD/svg11.dtd">
<svg version="1.1" xmlns="http://www.w3.org/2000/svg" xmlns:xlink="http://www.w3.org/1999/xlink" x="0px" y="0px"
	 viewBox="0 0 512 512" enable-background="new 0 0 512 512" xml:space="preserve">
<g id="Layer_2">
	<path fill="#FF473E" d="M120.712,111.024H94.44c-3.976,0-7.2,3.224-7.2,7.2v26.651c0,3.976,3.224,7.2,7.2,7.2h26.271V111.024z"/>
</g>
<g id="Layer_3">
	<path fill="#FFB636" d="M120.365,151.965h24.841c3.976,0,7.2-3.224,7.2-7.2v-26.431c0-3.976-3.224-7.2-7.2-7.2h-24.841V151.965z"/>
</g>
<g id="Layer_4">
	<path fill="#FF473E" d="M504.505,377.843H153.571V216.053c0-26.6,21.563-48.163,48.163-48.163h254.608
		c26.6,0,48.163,21.563,48.163,48.163V377.843z"/>
</g>
<g id="Layer_5">
	<path fill="#2B3B47" d="M15.467,420.116h482.79c7.354,0,13.315-5.961,13.315-13.315V384.22c0-3.707-3.005-6.712-6.712-6.712H6.908
		c-2.626,0-4.756,2.129-4.756,4.755v24.537C2.152,414.154,8.114,420.116,15.467,420.116z"/>
</g>
<g id="Layer_6">
	<path fill="#597B91" d="M136.363,432.253c0,24.346-19.736,44.081-44.081,44.081S48.2,456.599,48.2,432.253
		c0-24.345,19.736-44.081,44.081-44.081S136.363,407.908,136.363,432.253z M404.82,388.172c-24.345,0-44.081,19.736-44.081,44.081
		c0,24.346,19.736,44.081,44.081,44.081c24.346,0,44.081-19.736,44.081-44.081C448.902,407.908,429.166,388.172,404.82,388.172z"/>
</g>
<g id="Layer_7">
	<path fill="#DEE1E2" d="M66.234,137h82.247c12.468,0,22.576,15.037,22.576,33.585v206.923H6.812V275.634
		c0-11.914,2.664-23.489,7.573-32.902l23.34-84.956C44.559,144.669,55.083,137,66.234,137z"/>
</g>
<g id="Layer_8">
	<path fill="#00B1FF" d="M38.741,250.363l21.885-74.449c0.905-1.735,2.297-2.75,3.771-2.75h73.884c2.639,0,4.778,3.192,4.778,7.129
		v74.449c0,3.937-2.139,7.129-4.778,7.129H42.512C38.535,261.87,36.298,255.045,38.741,250.363z"/>
</g>
<g id="Layer_9">
	<path fill="#2B3B47" d="M121.174,432.253c0,15.957-12.936,28.892-28.892,28.892s-28.892-12.936-28.892-28.892
		s12.936-28.892,28.892-28.892S121.174,416.296,121.174,432.253z M404.82,403.361c-15.957,0-28.892,12.936-28.892,28.892
		s12.936,28.892,28.892,28.892s28.892-12.936,28.892-28.892S420.777,403.361,404.82,403.361z"/>
</g>
<g id="Layer_10">
	<path fill="#FFB636" d="M23.794,356.315H6.812v-50.361h16.981c6.202,0,11.229,5.027,11.229,11.229v27.902
		C35.023,351.287,29.995,356.315,23.794,356.315z"/>
</g>
<g id="Layer_11">
	<path fill="#9BA5A8" d="M471,158.89h-48.506V109H471c4.971,0,9-4.029,9-9s-4.029-9-9-9H221.003
		c-18.896,0-34.269,15.373-34.269,34.269v17.352c0,18.896,15.373,34.269,34.269,34.269H471c4.971,0,9-4.029,9-9
		S475.971,158.89,471,158.89z M246.228,158.89h-25.225c-8.971,0-16.269-7.298-16.269-16.269v-17.352
		c0-8.971,7.298-16.269,16.269-16.269h25.225V158.89z M298.983,158.89h-34.755V109h34.755V158.89z M351.739,158.89h-34.756V109
		h34.756V158.89z M404.494,158.89h-34.755V109h34.755V158.89z"/>
</g>
<g id="Layer_12">
	<rect x="171.057" y="238.091" fill="#9BA5A8" width="333.449" height="46.869"/>
</g>
</svg>
