<?xml version="1.0" encoding="utf-8"?>
<!-- Generator: Adobe Illustrator 18.0.0, SVG Export Plug-In . SVG Version: 6.00 Build 0)  -->
<!DOCTYPE svg PUBLIC "-//W3C//DTD SVG 1.1 Tiny//EN" "http://www.w3.org/Graphics/SVG/1.1/DTD/svg11-tiny.dtd">
<svg version="1.1" baseProfile="tiny" id="Layer_1" xmlns="http://www.w3.org/2000/svg" xmlns:xlink="http://www.w3.org/1999/xlink"
	 x="0px" y="0px" width="511.9px" height="511.9px" viewBox="0 0 511.9 511.9" xml:space="preserve">
<path fill="#FFA1E0" d="M104.8,476.2c0,32.3,77.5,35.8,155.6,35.8S416,508.4,416,476.2c0-48-49.9-96.9-161.2-96.9
	S104.8,429.2,104.8,476.2z"/>
<path fill="#FFD3B6" d="M377.7,214.7l3.9-58.5c0-66.8-57.7-101.3-124.4-101.3c-66.8,0-117.3,34.5-117.3,101.3l3.9,58.1
	c-1.8-0.4-3.7-0.6-5.7-0.6c-14,0-25.3,11.3-25.3,25.3c0,14,11.3,25.3,25.3,25.3c3.1,0,6.1-0.6,8.9-1.6l0.3,5.1
	c0,44.8,26,83.5,63.7,102v34.1c0,13.5,21.9,24.4,48.9,24.4c27,0,48.9-10.9,48.9-24.4c0-1.5-0.3-3-0.8-4.4v-28.5
	c39.1-17.9,66.2-57.4,66.2-103.1l0.3-3.8c12.1-1.9,21.4-12.3,21.4-25C395.9,227.4,388.2,217.7,377.7,214.7z"/>
<path fill="#EDC0A2" d="M250.6,369.3c-25.9,0-50-7.9-70-21.4c20.5,20.5,48.9,33.2,80.2,33.2c62.6,0,113.4-50.8,113.4-113.4l0.4-5.7
	C365.8,322.6,313.7,369.3,250.6,369.3z"/>
<path fill="#E5AB83" d="M284.4,287.4C284.4,287.4,284.4,287.4,284.4,287.4c-8.5,0-16.2-4.2-20.7-11.3c-1.5-2.3-0.8-5.4,1.6-6.9
	c2.3-1.5,5.4-0.8,6.9,1.6c2.6,4.2,7.2,6.6,12.3,6.6c0,0,0,0,0,0c5.1,0,9.7-2.5,12.3-6.6c1.5-2.3,4.5-3,6.9-1.5
	c2.3,1.5,3,4.5,1.5,6.9C300.6,283.2,292.9,287.4,284.4,287.4z"/>
<path fill="#2B3B47" d="M213,225.8c-0.5-6.5-5.9-11.6-12.5-11.6c-6.6,0-12,5.1-12.6,11.6h-0.1v17.8h0c0,0,0,0,0,0
	c0,7,5.7,12.7,12.7,12.7c7,0,12.7-5.7,12.7-12.7c0,0,0,0,0,0v0v-17.8H213z"/>
<path fill="#2B3B47" d="M361.3,225.8c-0.6-6.5-5.9-11.6-12.6-11.6c-6.6,0-12,5.1-12.5,11.6H336v17.8h0.1c0,0,0,0,0,0
	c0,7,5.7,12.7,12.7,12.7c7,0,12.7-5.7,12.7-12.7c0,0,0,0,0,0v0v-17.8H361.3z"/>
<path fill="#FFFFFF" d="M198.9,225.2c-0.1-1.5-1.4-2.8-3-2.8c-1.6,0-2.9,1.2-3,2.8h0v4.3h0v0c0,1.7,1.4,3,3,3c1.7,0,3-1.4,3-3v0l0,0
	L198.9,225.2L198.9,225.2z"/>
<path fill="#FFFFFF" d="M347.2,225.2c-0.1-1.5-1.4-2.8-3-2.8c-1.6,0-2.9,1.2-3,2.8h0v4.3h0v0c0,1.7,1.4,3,3,3c1.7,0,3-1.4,3-3v0l0,0
	L347.2,225.2L347.2,225.2z"/>
<path fill="#2B3B47" d="M256.8,323.8c-1.3,0-2.6-0.6-3.6-1.7c-1.6-2-1.4-4.9,0.6-6.5c13.6-11.3,34.4-12.5,49.6-2.9
	c2.2,1.4,2.8,4.2,1.4,6.4c-1.4,2.2-4.2,2.8-6.4,1.4c-11.9-7.5-28.2-6.6-38.7,2.2C258.9,323.5,257.9,323.8,256.8,323.8z"/>
<path fill="#E5AB83" d="M280,334.2c-4.2,0-8.3-0.7-12.3-2.1c-1.6-0.6-2.4-2.3-1.8-3.8s2.3-2.4,3.8-1.8c7,2.5,14.7,2.4,21.6-0.4
	c1.5-0.6,3.3,0.1,3.9,1.7s-0.1,3.3-1.7,3.9C289.3,333.3,284.6,334.2,280,334.2z"/>
<path fill="#E5AB83" d="M332.9,201.9c0,0,0.1-0.1,0.3-0.3c0.1-0.1,0.2-0.2,0.4-0.3c0.2-0.2,0.4-0.3,0.7-0.5c0.6-0.4,1.1-0.8,1.8-1.3
	c0.7-0.4,1.5-0.9,2.3-1.3c3.4-1.8,8.1-3.4,12.9-4.1c4.8-0.8,9.8-0.7,13.6,0.4c0.9,0.3,1.8,0.6,2.6,0.9c0.8,0.3,1.4,0.7,1.9,1.1
	c0.5,0.3,0.9,0.7,1.2,0.9c0.3,0.2,0.4,0.3,0.4,0.3c1,0.9,1.1,2.5,0.2,3.5c-0.8,0.9-2.2,1.1-3.2,0.5l-0.3-0.2c0,0-0.1-0.1-0.2-0.2
	c-0.1-0.1-0.4-0.2-0.7-0.4c-0.3-0.2-0.7-0.3-1.2-0.5c-0.5-0.2-1.1-0.3-1.8-0.4c-0.7-0.1-1.5-0.2-2.3-0.2c-0.8,0-1.7,0-2.7,0.1
	c-1.9,0.2-3.9,0.6-5.9,1.1c-4,1.1-7.7,2.9-10.1,4.6c-0.6,0.4-1.1,0.8-1.5,1.1c-0.4,0.3-0.8,0.7-1,0.9c-0.1,0.1-0.2,0.2-0.3,0.3
	c-0.1,0.1-0.2,0.3-0.3,0.4c-0.2,0.2-0.3,0.3-0.3,0.3l0,0c-1.8,1.9-4.7,1.9-6.5,0.2c-1.9-1.8-1.9-4.7-0.2-6.5
	C332.6,202.1,332.7,202,332.9,201.9z"/>
<path fill="#E5AB83" d="M208.4,208.6c0,0-0.1-0.1-0.3-0.3c-0.1-0.1-0.2-0.2-0.3-0.4c-0.1-0.1-0.2-0.2-0.3-0.3
	c-0.2-0.2-0.6-0.5-1-0.9c-0.4-0.4-0.9-0.7-1.5-1.1c-2.4-1.6-6.1-3.5-10.1-4.6c-2-0.6-4-1-5.9-1.1c-0.9-0.1-1.8-0.1-2.7-0.1
	c-0.8,0-1.6,0.1-2.3,0.2c-0.7,0.1-1.3,0.2-1.8,0.4c-0.5,0.2-0.9,0.3-1.2,0.5c-0.3,0.2-0.6,0.3-0.7,0.4c-0.2,0.1-0.2,0.2-0.2,0.2
	l-0.3,0.2c-1.2,0.7-2.7,0.4-3.4-0.8c-0.7-1.1-0.5-2.4,0.5-3.2c0,0,0.1-0.1,0.4-0.3c0.3-0.2,0.6-0.5,1.2-0.9c0.5-0.3,1.2-0.7,1.9-1.1
	c0.8-0.4,1.6-0.7,2.6-0.9c3.8-1.1,8.8-1.2,13.6-0.4c4.8,0.7,9.5,2.3,12.9,4.1c0.9,0.4,1.6,0.9,2.3,1.3c0.7,0.4,1.3,0.8,1.8,1.3
	c0.3,0.2,0.5,0.4,0.7,0.5c0.1,0.1,0.3,0.2,0.4,0.3c0.2,0.2,0.3,0.3,0.3,0.3c2,1.6,2.2,4.6,0.6,6.5c-1.6,2-4.6,2.2-6.5,0.6
	C208.7,208.9,208.5,208.8,208.4,208.6L208.4,208.6z"/>
<path fill="#68442A" d="M385.1,259.6c-0.3,0.2-0.6,0.4-0.9,0.6c-0.2,0.2-0.5,0.3-0.7,0.4c-0.3,0.2-0.6,0.4-0.9,0.5
	c-0.4,0.2-0.9,0.5-1.3,0.7c-0.2,0.1-0.5,0.2-0.7,0.3c-0.4,0.2-0.8,0.4-1.3,0.5c-0.2,0.1-0.3,0.1-0.5,0.2c-0.6,0.2-1.2,0.4-1.8,0.5
	c-0.2,0-0.3,0.1-0.5,0.1c-0.7,0.2-1.3,0.3-2,0.4l-0.3,3.8c0,1.3,0,2.6-0.1,3.8c0,0.4,0,0.8,0,1.1c0,0.9-0.1,1.9-0.2,2.8
	c0,0.4,0,0.8-0.1,1.1c-0.1,1.2-0.2,2.5-0.3,3.7c0,0,0,0,0,0c-0.1,1.2-0.3,2.5-0.5,3.7c-0.1,0.4-0.1,0.7-0.2,1.1
	c-0.1,0.9-0.3,1.8-0.5,2.7c-0.1,0.4-0.1,0.7-0.2,1.1c-0.2,1.2-0.5,2.4-0.7,3.6c0,0,0,0.1,0,0.1c-0.3,1.2-0.6,2.4-0.9,3.6
	c-0.1,0.4-0.2,0.7-0.3,1.1c-0.2,0.9-0.5,1.7-0.7,2.6c-0.1,0.4-0.2,0.7-0.3,1c-0.3,1.1-0.7,2.3-1.1,3.4c0,0,0,0.1,0,0.1
	c-0.4,1.2-0.8,2.3-1.2,3.4c-0.1,0.3-0.3,0.7-0.4,1c-0.3,0.8-0.7,1.7-1,2.5c-0.1,0.3-0.3,0.7-0.4,1c-0.5,1.1-0.9,2.1-1.4,3.2
	c0,0,0,0.1,0,0.1c-0.5,1.1-1,2.2-1.6,3.2c-0.2,0.3-0.3,0.6-0.5,0.9c-0.4,0.8-0.8,1.6-1.3,2.4c-0.2,0.3-0.3,0.6-0.5,0.9
	c-0.6,1-1.2,2-1.8,3c0,0,0,0.1,0,0.1c-0.6,1-1.3,2-1.9,3.1c-0.2,0.3-0.4,0.6-0.6,0.8c-0.5,0.8-1,1.5-1.5,2.2
	c-0.2,0.3-0.4,0.6-0.6,0.8c-0.7,1-1.4,1.9-2.1,2.9c0,0,0,0,0,0c-0.7,1-1.5,1.9-2.2,2.8c-0.2,0.2-0.4,0.5-0.6,0.7
	c-0.6,0.7-1.2,1.4-1.8,2.1c-0.2,0.2-0.4,0.5-0.6,0.7c-1.6,1.8-3.2,3.6-4.9,5.3c-0.2,0.2-0.4,0.4-0.6,0.6c-0.7,0.7-1.4,1.3-2,2
	c-0.2,0.2-0.4,0.4-0.7,0.6c-8.7,8-18.6,14.7-29.4,19.7c37.5-2.2,66.4-7,66.4-14.5c6.8-10.5,11.7-55.6,15-100.8
	C388.4,257,386.8,258.4,385.1,259.6z"/>
<path fill="#68442A" d="M256.8,21.4c-60.5,0-109,37.3-125,91.2c-6.5,15.2-10.1,31.7-10.1,48.7l0.7,110.4c0,0,0,0,0.1,0
	c1.2,41.4,17.9,84.5,17.9,84.5c0,7.7,31.1,12.6,70.6,14.7v-1.3c-27.8-13.6-49.2-38.2-58.6-68.1v0c-0.4-1.3-0.8-2.7-1.2-4
	c0,0,0,0,0,0c-0.4-1.3-0.7-2.7-1-4c0,0,0-0.1,0-0.1c-0.3-1.3-0.6-2.6-0.8-3.9c0-0.1,0-0.2-0.1-0.3c0-0.1,0-0.2-0.1-0.3
	c0-18.4,0-49.3,0-74.3c7.9-20.5,37.5-64.8,63.1-101.4c0.5,0.6,1.1,1.1,1.6,1.7c46.6,46.6,132.8,69.7,165.5,72.7l-1.8,27.1
	c0.8,0.2,1.5,0.5,2.2,0.8c0.2,0.1,0.3,0.1,0.5,0.2c0.6,0.2,1.1,0.5,1.7,0.8c0.1,0.1,0.3,0.2,0.4,0.2c0.6,0.3,1.1,0.6,1.6,0.9
	c0.1,0.1,0.3,0.2,0.4,0.3c0.5,0.3,1,0.7,1.5,1.1c2.2,1.7,4.1,3.8,5.7,6.1c2.4-39.9,3.5-73.2,3.5-73.2
	C395.3,77.7,331.1,21.4,256.8,21.4z"/>
</svg>
