<svg xmlns="http://www.w3.org/2000/svg" viewBox="0 0 512 512" enable-background="new 0 0 512 512"><path fill="#EBECED" d="M419.787 125.14L380.67 73.88c-2.682-3.513-6.848-5.574-11.266-5.574H142.596c-4.42 0-8.585 2.06-11.265 5.574l-39.117 51.26c-1.885 2.47-2.906 5.49-2.906 8.597V387.52c0 7.826 6.345 14.17 14.17 14.17h44.73v32.94c0 5.006 4.06 9.064 9.066 9.064h3.09c5.008 0 9.066-4.06 9.066-9.065v-32.94h173.14v32.94c0 5.006 4.06 9.064 9.066 9.064h3.09c5.008 0 9.066-4.06 9.066-9.065v-32.94h44.73c7.826 0 14.17-6.344 14.17-14.17V133.736c0-3.106-1.02-6.127-2.905-8.596z"/></svg>