<?xml version="1.0" encoding="utf-8"?>
<!-- Generator: Adobe Illustrator 18.0.0, SVG Export Plug-In . SVG Version: 6.00 Build 0)  -->
<!DOCTYPE svg PUBLIC "-//W3C//DTD SVG 1.1 Tiny//EN" "http://www.w3.org/Graphics/SVG/1.1/DTD/svg11-tiny.dtd">
<svg version="1.1" baseProfile="tiny" id="Layer_1" xmlns="http://www.w3.org/2000/svg" xmlns:xlink="http://www.w3.org/1999/xlink"
	 x="0px" y="0px" width="511.9px" height="512.3px" viewBox="0 0 511.9 512.3" xml:space="preserve">
<path fill="#E5AB83" d="M260.1,261.2C260.1,261.2,260.1,261.2,260.1,261.2c-8.5,0-16.2-4.2-20.6-11.3c-1.5-2.3-0.8-5.4,1.6-6.9
	c2.3-1.5,5.4-0.8,6.9,1.6c2.6,4.1,7.2,6.6,12.2,6.6c0,0,0,0,0,0c5.1,0,9.6-2.5,12.3-6.6c1.5-2.3,4.5-3,6.9-1.5
	c2.3,1.5,3,4.5,1.5,6.9C276.3,257,268.6,261.2,260.1,261.2z"/>
<path fill="#E5AB83" d="M315.8,168.8c0,0,0.5-0.3,1.3-0.7c0.3-0.2,1.1-0.6,1.9-1c0.8-0.4,1.6-0.7,2.6-1c0.9-0.4,1.9-0.6,3-0.9
	c0.5-0.1,1.1-0.2,1.7-0.3c0.6-0.1,1.1-0.2,1.7-0.2c0.6-0.1,1.2-0.1,1.8-0.2c0.6,0,1.2,0,1.9,0c0.6,0,1.3,0,1.9,0.1
	c0.6,0.1,1.3,0.1,1.9,0.2l1.9,0.3c0.6,0.2,1.2,0.3,1.8,0.5c0.6,0.1,1.2,0.4,1.8,0.6c0.6,0.2,1.2,0.4,1.7,0.7
	c0.5,0.3,1.1,0.6,1.6,0.8c0.5,0.3,1,0.6,1.4,0.9c0.9,0.6,1.7,1.3,2.4,2c0.7,0.6,1.2,1.3,1.8,1.9c0.5,0.6,0.9,1.1,1.2,1.6
	c0.6,0.9,0.9,1.4,0.9,1.4c0.8,1.2,0.4,2.8-0.8,3.5c-1.1,0.7-2.5,0.5-3.3-0.5l-0.2-0.3c0,0-0.3-0.4-0.8-1c-0.3-0.3-0.6-0.7-1-1.1
	c-0.4-0.4-0.8-0.9-1.4-1.2c-0.6-0.4-1.2-0.8-1.9-1.2c-0.4-0.2-0.7-0.4-1.1-0.5c-0.4-0.1-0.8-0.3-1.2-0.4c-0.4-0.2-0.8-0.2-1.3-0.4
	c-0.4-0.1-0.9-0.2-1.3-0.3c-0.4-0.1-0.9-0.1-1.4-0.2l-1.4-0.1c-0.5,0-0.9,0-1.4,0c-0.5,0-0.9,0-1.4,0.1c-0.5,0.1-0.9,0.1-1.4,0.2
	c-0.4,0.1-0.9,0.2-1.3,0.3c-0.4,0.1-0.8,0.2-1.2,0.3c-0.4,0.1-0.8,0.2-1.2,0.4c-0.7,0.3-1.4,0.5-2,0.9c-0.6,0.3-1.2,0.6-1.5,0.8
	c-0.4,0.3-0.7,0.4-1.1,0.7c-0.8,0.6-1.2,0.9-1.2,0.9l0,0c-2.1,1.6-5,1.1-6.6-1c-1.6-2.1-1.1-5,1-6.6
	C315.5,169,315.7,168.9,315.8,168.8z"/>
<path fill="#E5AB83" d="M197.2,176.7c0,0-0.4-0.3-1.2-0.9c-0.4-0.4-0.7-0.5-1.1-0.7c-0.3-0.3-0.9-0.5-1.5-0.8
	c-0.6-0.3-1.3-0.6-2-0.9c-0.4-0.1-0.8-0.2-1.2-0.4c-0.4-0.1-0.8-0.3-1.2-0.3c-0.4-0.1-0.9-0.2-1.3-0.3c-0.4-0.1-0.9-0.1-1.4-0.2
	c-0.5-0.1-0.9-0.1-1.4-0.1c-0.5,0-0.9-0.1-1.4,0l-1.4,0.1c-0.5,0.1-0.9,0.1-1.4,0.2c-0.5,0-0.9,0.2-1.3,0.3
	c-0.4,0.1-0.9,0.2-1.3,0.4c-0.4,0.2-0.8,0.3-1.2,0.4c-0.4,0.1-0.7,0.4-1.1,0.5c-0.7,0.3-1.3,0.8-1.9,1.2c-0.6,0.4-1,0.9-1.4,1.2
	c-0.4,0.4-0.8,0.8-1,1.1c-0.5,0.6-0.8,1-0.8,1l-0.2,0.3c-0.9,1.1-2.5,1.2-3.6,0.3c-1-0.8-1.2-2.3-0.5-3.3c0,0,0.3-0.5,0.9-1.4
	c0.3-0.5,0.7-1,1.2-1.6c0.5-0.6,1-1.3,1.8-1.9c0.7-0.6,1.5-1.4,2.4-2c0.5-0.3,0.9-0.7,1.4-0.9c0.5-0.3,1-0.6,1.6-0.8
	c0.5-0.3,1.1-0.5,1.7-0.7c0.6-0.2,1.2-0.5,1.8-0.6c0.6-0.2,1.2-0.3,1.8-0.5l1.9-0.3c0.6-0.1,1.3-0.2,1.9-0.2c0.6,0,1.3-0.1,1.9-0.1
	c0.6,0,1.2,0,1.9,0c0.6,0.1,1.2,0.1,1.8,0.2c0.6,0,1.2,0.1,1.7,0.2c0.6,0.1,1.1,0.2,1.7,0.3c1.1,0.3,2.1,0.5,3,0.9
	c0.9,0.3,1.7,0.6,2.6,1c0.8,0.4,1.6,0.7,1.9,1c0.8,0.5,1.3,0.7,1.3,0.7c2.3,1.3,3.1,4.2,1.8,6.4s-4.2,3.1-6.4,1.8
	C197.6,176.9,197.4,176.8,197.2,176.7L197.2,176.7z"/>
</svg>
