<?xml version="1.0" encoding="iso-8859-1"?>
<!-- Generator: Adobe Illustrator 18.1.1, SVG Export Plug-In . SVG Version: 6.00 Build 0)  -->
<!DOCTYPE svg PUBLIC "-//W3C//DTD SVG 1.1//EN" "http://www.w3.org/Graphics/SVG/1.1/DTD/svg11.dtd">
<svg version="1.1" xmlns="http://www.w3.org/2000/svg" xmlns:xlink="http://www.w3.org/1999/xlink" x="0px" y="0px"
	 viewBox="0 0 512 512" enable-background="new 0 0 512 512" xml:space="preserve">
<g id="Layer_9">
	<path fill="#FFFFFF" d="M425.005,112.81l8.131,44.978c3.855,21.327-13.976,40.299-35.506,37.815
		c-34.996-4.037-81.933-8.659-141.568-8.659c-59.641,0-106.583,4.622-141.58,8.66c-21.527,2.484-39.357-16.482-35.507-37.807
		l8.119-44.979c2.775-15.371,16.155-26.552,31.775-26.552h274.363C408.849,86.266,422.227,97.443,425.005,112.81z M82.335,288.83
		c-18.185,0-32.927,14.742-32.927,32.927c0,18.185,14.742,32.927,32.927,32.927s32.927-14.742,32.927-32.927
		C115.262,303.572,100.52,288.83,82.335,288.83z M397.071,321.757c0,18.185,14.742,32.927,32.927,32.927
		c18.185,0,32.927-14.742,32.927-32.927c0-18.185-14.742-32.927-32.927-32.927C411.813,288.83,397.071,303.572,397.071,321.757z"/>
</g>
<g id="Layer_1">
</g>
</svg>
