<?xml version="1.0" encoding="utf-8"?>
<!-- Generator: Adobe Illustrator 18.0.0, SVG Export Plug-In . SVG Version: 6.00 Build 0)  -->
<!DOCTYPE svg PUBLIC "-//W3C//DTD SVG 1.1 Tiny//EN" "http://www.w3.org/Graphics/SVG/1.1/DTD/svg11-tiny.dtd">
<svg version="1.1" baseProfile="tiny" id="Layer_1" xmlns="http://www.w3.org/2000/svg" xmlns:xlink="http://www.w3.org/1999/xlink"
	 x="0px" y="0px" width="511.9px" height="511.9px" viewBox="0 0 511.9 511.9" xml:space="preserve">
<path fill="#00BEEA" d="M255.9,35.3C134,35.3,35.2,134.1,35.2,255.9c0,3.5,0.1,7.1,0.3,10.6c-12.9,1.7-22.8,12.6-22.8,25.9
	c0,14.5,11.7,26.2,26.2,26.2h5.4c27,91.3,111.5,158,211.6,158c121.9,0,220.6-98.8,220.6-220.7C476.5,134.1,377.7,35.3,255.9,35.3z"
	/>
<path fill="#009AAF" d="M140,171c-7.7,0-15.4-1.9-22.4-5.8c-3.7-2.1-5-6.7-2.9-10.4c2.1-3.7,6.7-5,10.4-2.9c12.5,7,28.5,4.4,38-6.3
	c2.8-3.1,7.6-3.4,10.7-0.6c3.1,2.8,3.4,7.6,0.6,10.7C165.5,165.7,152.8,171,140,171z"/>
<path fill="#009AAF" d="M371.9,171c-12.8,0-25.5-5.3-34.4-15.3c-2.8-3.1-2.5-8,0.6-10.7c3.1-2.8,7.9-2.5,10.7,0.6
	c9.5,10.7,25.5,13.4,38,6.3c3.7-2.1,8.3-0.8,10.4,2.9c2.1,3.7,0.7,8.3-2.9,10.4C387.4,169.1,379.6,171,371.9,171z"/>
<path fill="#2B3B47" d="M145.9,190.3c13.4,0,24.2,10.8,24.2,24.2v54.3c0,13.4-48.5,13.4-48.5,0v-54.3
	C121.7,201.1,132.5,190.3,145.9,190.3L145.9,190.3z"/>
<path fill="#2B3B47" d="M365.8,190.3c13.4,0,24.2,10.8,24.2,24.2v54.3c0,13.4-48.5,13.4-48.5,0v-54.3
	C341.5,201.1,352.4,190.3,365.8,190.3L365.8,190.3z"/>
<path fill="#009AAF" d="M123.9,285.8c-2.8,0-5.5-1.5-6.8-4.2c-1.9-3.8-0.3-8.3,3.4-10.2c16.2-8,34.7-8.3,50.7-0.7
	c3.8,1.8,5.4,6.3,3.6,10.1c-1.8,3.8-6.3,5.4-10.1,3.6c-11.8-5.6-25.4-5.4-37.4,0.5C126.2,285.5,125,285.8,123.9,285.8z"/>
<path fill="#009AAF" d="M343.7,285.8c-2.8,0-5.5-1.5-6.8-4.2c-1.9-3.8-0.3-8.3,3.4-10.2c16.2-8,34.7-8.3,50.7-0.7
	c3.8,1.8,5.4,6.3,3.6,10.1c-1.8,3.8-6.3,5.4-10.1,3.6c-11.8-5.6-25.5-5.4-37.4,0.5C346,285.5,344.9,285.8,343.7,285.8z"/>
<path fill="#2B3B47" d="M312.5,343.3c-5.7-6.5-22.3-21.2-56.7-21.2c-41.7,0-57.2,21.5-58.9,24c-4.9,7.3-3.8,17.1,2.6,23.1
	c3.4,3.2,7.8,4.8,12.1,4.8c3.8,0,7.6-1.2,10.8-3.8c0.4-0.3,10.8-7.7,31.1-7.7c21.5,0,36.8,8.6,37.3,8.8c2.8,1.7,5.9,2.5,9,2.5
	c0.1,0,0.1,0,0.1,0c9.8,0,17.8-8,17.8-17.8C317.9,351,315.8,346.5,312.5,343.3z"/>
<path fill="#00ADC9" d="M476.2,265.8c0.1-3.3,0.3-6.6,0.3-9.9c0-58.9-23.1-112.4-60.8-152c21.3,34.5,33.6,75.2,33.6,118.8
	c0,125.2-101.5,226.7-226.7,226.7c-43.6,0-84.2-12.3-118.8-33.6c39.6,37.7,93.1,60.9,152,60.9c100.3,0,185-67,211.7-158.7h5.2
	c14.5,0,26.2-11.7,26.2-26.2C499,278.4,489.1,267.5,476.2,265.8z"/>
</svg>
