<?xml version="1.0" encoding="utf-8"?>
<!-- Generator: Adobe Illustrator 18.0.0, SVG Export Plug-In . SVG Version: 6.00 Build 0)  -->
<!DOCTYPE svg PUBLIC "-//W3C//DTD SVG 1.1 Tiny//EN" "http://www.w3.org/Graphics/SVG/1.1/DTD/svg11-tiny.dtd">
<svg version="1.1" baseProfile="tiny" id="Layer_1" xmlns="http://www.w3.org/2000/svg" xmlns:xlink="http://www.w3.org/1999/xlink"
	 x="0px" y="0px" width="511.9px" height="511.9px" viewBox="0 0 511.9 511.9" xml:space="preserve">
<path fill="#FFD3B6" d="M377.8,206.5l3.8-57.4c0-66.8-57.7-101.3-124.4-101.3c-66.8,0-117.3,34.5-117.3,101.3l3.8,57.5
	c-13.3,0.8-23.8,11.8-23.8,25.2c0,14,11.3,25.3,25.3,25.3c0.6,0,1.3,0,1.9-0.1l0.2,3.6c0,44.8,26,83.5,63.7,102v41.2
	c0,13.5,21.9,24.4,48.9,24.4c27,0,48.9-10.9,48.9-24.4c0-1.5-0.3-3-0.8-4.4v-35.6c39.1-17.9,66.2-57.4,66.2-103.1l0.2-3.7
	c1.1,0.1,2.2,0.2,3.3,0.2c14,0,25.3-11.3,25.3-25.3C403,217.9,391.7,206.6,377.8,206.5z"/>
</svg>
