<svg xmlns="http://www.w3.org/2000/svg" viewBox="0 0 512 512" enable-background="new 0 0 512 512"><path fill="#FFA9BA" d="M509.185 97.227c-38.543 7.643-68.91 38.01-76.553 76.55-.42 2.11-3.31 2.11-3.728 0-7.643-38.54-38.01-68.906-76.553-76.55-2.11-.42-2.11-3.31 0-3.73 38.544-7.642 68.91-38.01 76.554-76.55.42-2.11 3.31-2.11 3.728 0 7.644 38.54 38.01 68.907 76.553 76.55 2.11.42 2.11 3.312 0 3.73zM55.335 283.043c-.94 5.876 2.197 11.653 7.652 14.03 6.793 2.96 17.42 6.998 31.848 10.762 19.065 4.974 36.7 6.457 45.52 6.9 3.336.166 6.24-2.254 6.69-5.562 3.665-26.856 19.092-139.85 23.12-168.54.504-3.592-2.053-6.89-5.656-7.29-7.104-.79-18.905-2.293-30.256-4.592-11.417-2.312-22.667-5.49-29.306-7.484-3.368-1.012-6.923.873-7.987 4.226-7.4 23.34-33.728 108.118-41.625 157.55z"/></svg>