<?xml version="1.0" encoding="utf-8"?>
<!-- Generator: Adobe Illustrator 18.0.0, SVG Export Plug-In . SVG Version: 6.00 Build 0)  -->
<!DOCTYPE svg PUBLIC "-//W3C//DTD SVG 1.1 Tiny//EN" "http://www.w3.org/Graphics/SVG/1.1/DTD/svg11-tiny.dtd">
<svg version="1.1" baseProfile="tiny" id="Layer_1" xmlns="http://www.w3.org/2000/svg" xmlns:xlink="http://www.w3.org/1999/xlink"
	 x="0px" y="0px" width="511.9px" height="511.9px" viewBox="0 0 511.9 511.9" xml:space="preserve">
<path fill="#2B3B47" d="M381.4,311.6c-4.3-0.4-8.5-0.7-12.8-1c-1.2,0.3-4.3,1.1-9.2,2c-6.2,0.9-15,3-25.6,4c-10.6,1-23,2.8-36.3,3.5
	c-13.3,0.9-27.4,1.1-41.6,1.3c-14.1-0.2-28.3-0.4-41.6-1.3c-13.3-0.7-25.6-2.5-36.3-3.5c-10.6-1-19.5-3.1-25.6-4
	c-4.9-0.9-8.1-1.7-9.2-2c-4.3,0.3-8.7,0.6-13,1c-0.5,0-1,0.2-1.5,0.6c-1.4,1-1.8,3.1-0.8,4.6l2.3,3.5c5.2,7.9,10.5,14.7,15.7,20.4
	c5.3,5.9,10.5,10.9,15.7,15.6c10.4,9.2,20.9,16,31.4,21.8c2.9,1.5,5.7,2.6,8.6,3.9c15.9-11.2,34.4,3.9,54.2,3.9
	c19.8,0,38.3-15,54.3-3.8c2.8-1.3,5.7-2.3,8.5-3.8c10.5-5.8,20.9-12.6,31.4-21.8c5.2-4.7,10.5-9.7,15.7-15.7
	c5.2-5.7,10.5-12.6,15.7-20.5l2.3-3.5c0.3-0.5,0.5-1,0.5-1.6C384.4,313.4,383.1,311.7,381.4,311.6z"/>
<path fill="#FFFFFF" d="M178.2,316.6c10.6,1,23,2.8,36.3,3.5c13.3,0.9,27.4,1.1,41.6,1.3c14.1-0.2,28.3-0.4,41.6-1.3
	c13.3-0.7,25.6-2.5,36.3-3.5c10.6-1,19.5-3.1,25.6-4c4.9-0.9,8.1-1.7,9.2-2c-6.2-0.4-12.4-0.8-18.6-1.2l-31.4-1.2
	c-20.9-0.7-41.9-0.6-62.8-1c-20.9,0.4-41.9,0.3-62.8,1l-31.4,1.2c-6.1,0.4-12.3,0.8-18.4,1.2c1.1,0.3,4.3,1.1,9.2,2
	C158.7,313.5,167.6,315.6,178.2,316.6z"/>
</svg>
