<?xml version="1.0" encoding="utf-8"?>
<!-- Generator: Adobe Illustrator 18.0.0, SVG Export Plug-In . SVG Version: 6.00 Build 0)  -->
<!DOCTYPE svg PUBLIC "-//W3C//DTD SVG 1.1 Tiny//EN" "http://www.w3.org/Graphics/SVG/1.1/DTD/svg11-tiny.dtd">
<svg version="1.1" baseProfile="tiny" id="Layer_1" xmlns="http://www.w3.org/2000/svg" xmlns:xlink="http://www.w3.org/1999/xlink"
	 x="0px" y="0px" width="511.9px" height="511.9px" viewBox="0 0 511.9 511.9" xml:space="preserve">
<path fill="#FFFFFF" d="M198.9,225.2c-0.1-1.5-1.4-2.8-3-2.8c-1.6,0-2.9,1.2-3,2.8h0v4.3h0v0c0,1.7,1.4,3,3,3c1.7,0,3-1.4,3-3v0l0,0
	L198.9,225.2L198.9,225.2z"/>
<path fill="#FFFFFF" d="M347.2,225.2c-0.1-1.5-1.4-2.8-3-2.8c-1.6,0-2.9,1.2-3,2.8h0v4.3h0v0c0,1.7,1.4,3,3,3c1.7,0,3-1.4,3-3v0l0,0
	L347.2,225.2L347.2,225.2z"/>
</svg>
