<?xml version="1.0" encoding="utf-8"?>
<!-- Generator: Adobe Illustrator 18.0.0, SVG Export Plug-In . SVG Version: 6.00 Build 0)  -->
<!DOCTYPE svg PUBLIC "-//W3C//DTD SVG 1.1 Tiny//EN" "http://www.w3.org/Graphics/SVG/1.1/DTD/svg11-tiny.dtd">
<svg version="1.1" baseProfile="tiny" id="Layer_1" xmlns="http://www.w3.org/2000/svg" xmlns:xlink="http://www.w3.org/1999/xlink"
	 x="0px" y="0px" width="511.9px" height="511.9px" viewBox="0 0 511.9 511.9" xml:space="preserve">
<path fill="#FFB636" d="M350.2,73.7c14.2,3.6,25.3,14.7,28.9,28.9c0.3,1.4,2.1,1.4,2.4,0c3.6-14.2,14.7-25.3,28.9-28.9
	c1.4-0.3,1.4-2.1,0-2.4c-14.2-3.6-25.3-14.7-28.9-28.9c-0.3-1.4-2.1-1.4-2.4,0c-3.6,14.2-14.7,25.3-28.9,28.9
	C348.8,71.6,348.8,73.4,350.2,73.7z"/>
<path fill="#FFB636" d="M73.4,48.6c11.3,2.9,20.3,11.8,23.1,23.1c0.3,1.1,1.7,1.1,2,0c2.9-11.3,11.8-20.3,23.1-23.1
	c1.1-0.3,1.1-1.7,0-2c-11.3-2.9-20.3-11.8-23.1-23.1c-0.3-1.1-1.7-1.1-2,0c-2.9,11.3-11.8,20.3-23.1,23.1
	C72.3,46.9,72.3,48.3,73.4,48.6z"/>
<path fill="#FFB636" d="M184.8,79.9c14.2,3.6,25.3,14.7,28.9,28.9c0.3,1.4,2.1,1.4,2.4,0c3.6-14.2,14.7-25.3,28.9-28.9
	c1.4-0.3,1.4-2.1,0-2.4c-14.2-3.6-25.3-14.7-28.9-28.9c-0.3-1.4-2.1-1.4-2.4,0c-3.6,14.2-14.7,25.3-28.9,28.9
	C183.4,77.8,183.4,79.6,184.8,79.9z"/>
</svg>
