<?xml version="1.0" encoding="utf-8"?>
<!-- Generator: Adobe Illustrator 18.0.0, SVG Export Plug-In . SVG Version: 6.00 Build 0)  -->
<!DOCTYPE svg PUBLIC "-//W3C//DTD SVG 1.1 Tiny//EN" "http://www.w3.org/Graphics/SVG/1.1/DTD/svg11-tiny.dtd">
<svg version="1.1" baseProfile="tiny" id="Layer_1" xmlns="http://www.w3.org/2000/svg" xmlns:xlink="http://www.w3.org/1999/xlink"
	 x="0px" y="0px" width="511.9px" height="512.3px" viewBox="0 0 511.9 512.3" xml:space="preserve">
<path fill="#FFD3B6" d="M377.6,192.8l1.7-26.1c-32.7-2.9-118.7-26-165.3-72.5c-0.6-0.6-1.1-1.1-1.6-1.7
	c-28.1,40.2-61.1,89.8-64.7,106.7c0,18.3,0,39,0,55.3c2.8,41.5,27.9,76.8,63.3,94.1v55.4c0,13.5,21.9,24.4,48.8,24.4
	s48.8-10.9,48.8-24.4c0-1.5-0.3-3-0.8-4.4v-49.8c39-17.9,66.1-57.3,66.1-103l0.2-3.7c1.1,0.1,2.2,0.2,3.3,0.2
	c13.9,0,25.2-11.3,25.2-25.2C402.7,204.1,391.5,192.9,377.6,192.8z"/>
</svg>
