<svg xmlns="http://www.w3.org/2000/svg" viewBox="0 0 512 512" enable-background="new 0 0 512 512"><path fill="#45565B" d="M230.485 52.17c0 10.31-8.358 18.668-18.67 18.668s-18.668-8.358-18.668-18.67 8.36-18.668 18.67-18.668 18.668 8.358 18.668 18.67zm78.698.766c-10.31 0-18.67 8.358-18.67 18.67s8.36 18.668 18.67 18.668 18.67-8.358 18.67-18.67c0-10.31-8.36-18.668-18.67-18.668zM231.768 242.08c0-11.93-9.67-21.6-21.6-21.6h-84.562v90.426h106.162V242.08zm63.458 68.826h106.162V220.48h-84.562c-11.93 0-21.6 9.67-21.6 21.6v68.826z"/></svg>