<?xml version="1.0" encoding="utf-8"?>
<!-- Generator: Adobe Illustrator 18.0.0, SVG Export Plug-In . SVG Version: 6.00 Build 0)  -->
<!DOCTYPE svg PUBLIC "-//W3C//DTD SVG 1.1 Tiny//EN" "http://www.w3.org/Graphics/SVG/1.1/DTD/svg11-tiny.dtd">
<svg version="1.1" baseProfile="tiny" id="Layer_1" xmlns="http://www.w3.org/2000/svg" xmlns:xlink="http://www.w3.org/1999/xlink"
	 x="0px" y="0px" width="511.9px" height="511.9px" viewBox="0 0 511.9 511.9" xml:space="preserve">
<path fill="#2B3B47" d="M198.7,225.8c-0.5-6.5-5.9-11.6-12.5-11.6c-6.6,0-12,5.1-12.6,11.6h-0.1v17.8h0c0,0,0,0,0,0
	c0,7,5.7,12.7,12.7,12.7c7,0,12.7-5.7,12.7-12.7c0,0,0,0,0,0v0v-17.8H198.7z"/>
<path fill="#2B3B47" d="M347.1,225.8c-0.6-6.5-5.9-11.6-12.6-11.6c-6.6,0-12,5.1-12.5,11.6h-0.2v17.8h0.1c0,0,0,0,0,0
	c0,7,5.7,12.7,12.7,12.7c7,0,12.7-5.7,12.7-12.7c0,0,0,0,0,0v0v-17.8H347.1z"/>
<path fill="#2B3B47" d="M295.4,333.1c-1.3-2.8-11-21.2-35.3-21.2c-25.7,0-35.1,20.6-35.4,21.5c-0.3,0.8-0.3,1.7,0.2,2.4
	c0.5,0.7,1.3,1.2,2.1,1.2h66.2c0,0,0,0,0,0c1.4,0,2.6-1.1,2.6-2.6C295.8,333.9,295.7,333.4,295.4,333.1z"/>
</svg>
