<?xml version="1.0" encoding="iso-8859-1"?>
<!-- Generator: Adobe Illustrator 18.1.0, SVG Export Plug-In . SVG Version: 6.00 Build 0)  -->
<!DOCTYPE svg PUBLIC "-//W3C//DTD SVG 1.1//EN" "http://www.w3.org/Graphics/SVG/1.1/DTD/svg11.dtd">
<svg version="1.1" xmlns="http://www.w3.org/2000/svg" xmlns:xlink="http://www.w3.org/1999/xlink" x="0px" y="0px"
	 viewBox="0 0 512 512" enable-background="new 0 0 512 512" xml:space="preserve">
<g id="Layer_2">
	<path fill="#FF473E" d="M504.505,377.843H207.503V105.962c0-26.6,21.563-48.163,48.163-48.163h200.677
		c26.6,0,48.163,21.563,48.163,48.163V377.843z"/>
</g>
<g id="Layer_3">
	<path fill="#FFB636" d="M95.789,198.558h67.837c13.801,0,24.989,11.188,24.989,24.989v153.961H6.812v-75.8
		c0-8.864,2.949-17.477,8.382-24.481l49.037-63.211C71.797,204.264,83.446,198.558,95.789,198.558z"/>
</g>
<g id="Layer_4">
	<path fill="#76DFFF" d="M41.144,282.906l43.121-55.394c1.005-1.291,2.549-2.046,4.185-2.046h50.974
		c2.929,0,5.304,2.375,5.304,5.304v55.394c0,2.929-2.375,5.304-5.304,5.304H45.33C40.915,291.468,38.432,286.389,41.144,282.906z"/>
</g>
<g id="Layer_5">
	<path fill="#FF473E" d="M20.039,352.665H6.812v-35.062h13.227c6.202,0,11.229,5.027,11.229,11.229v12.603
		C31.268,347.638,26.241,352.665,20.039,352.665z"/>
</g>
<g id="Layer_6">
	<path fill="#597B91" d="M15.467,420.116h482.79c7.354,0,13.315-5.961,13.315-13.315V384.22c0-3.707-3.005-6.712-6.712-6.712H6.908
		c-2.626,0-4.756,2.129-4.756,4.755v24.537C2.152,414.154,8.114,420.116,15.467,420.116z"/>
</g>
<g id="Layer_7">
	<path fill="#D32A2A" d="M478.683,118.429H233.042c-4.612,0-8.351-3.739-8.351-8.351s3.739-8.351,8.351-8.351h245.641
		c4.612,0,8.351,3.739,8.351,8.351S483.295,118.429,478.683,118.429z M487.033,184.901c0-4.612-3.738-8.351-8.351-8.351H233.042
		c-4.612,0-8.351,3.739-8.351,8.351s3.739,8.351,8.351,8.351h245.641C483.295,193.251,487.033,189.513,487.033,184.901z
		 M487.033,259.724c0-4.612-3.738-8.351-8.351-8.351H233.042c-4.612,0-8.351,3.739-8.351,8.351c0,4.612,3.739,8.351,8.351,8.351
		h245.641C483.295,268.074,487.033,264.336,487.033,259.724z M487.033,334.547c0-4.612-3.738-8.351-8.351-8.351H233.042
		c-4.612,0-8.351,3.738-8.351,8.351s3.739,8.351,8.351,8.351h245.641C483.295,342.897,487.033,339.159,487.033,334.547z"/>
</g>
<g id="Layer_8">
	<path fill="#2B3B47" d="M136.64,428.278c0,24.422-19.798,44.22-44.22,44.22S48.2,452.7,48.2,428.278s19.798-44.22,44.22-44.22
		S136.64,403.856,136.64,428.278z M301.898,384.058c-24.422,0-44.22,19.798-44.22,44.22s19.798,44.22,44.22,44.22
		s44.22-19.798,44.22-44.22S326.32,384.058,301.898,384.058z M410.11,384.058c-24.422,0-44.22,19.798-44.22,44.22
		s19.798,44.22,44.22,44.22c24.422,0,44.22-19.798,44.22-44.22S434.532,384.058,410.11,384.058z"/>
</g>
<g id="Layer_9">
	<path fill="#9BA5A8" d="M121.404,428.278c0,16.007-12.976,28.983-28.983,28.983s-28.983-12.976-28.983-28.983
		c0-16.007,12.976-28.983,28.983-28.983S121.404,412.271,121.404,428.278z M301.898,399.295c-16.007,0-28.983,12.976-28.983,28.983
		c0,16.007,12.976,28.983,28.983,28.983c16.007,0,28.983-12.976,28.983-28.983C330.882,412.271,317.905,399.295,301.898,399.295z
		 M410.11,399.295c-16.007,0-28.983,12.976-28.983,28.983c0,16.007,12.976,28.983,28.983,28.983
		c16.007,0,28.983-12.976,28.983-28.983C439.093,412.271,426.117,399.295,410.11,399.295z"/>
</g>
</svg>
