<?xml version="1.0" encoding="iso-8859-1"?>
<!-- Generator: Adobe Illustrator 18.1.1, SVG Export Plug-In . SVG Version: 6.00 Build 0)  -->
<!DOCTYPE svg PUBLIC "-//W3C//DTD SVG 1.1//EN" "http://www.w3.org/Graphics/SVG/1.1/DTD/svg11.dtd">
<svg version="1.1" xmlns="http://www.w3.org/2000/svg" xmlns:xlink="http://www.w3.org/1999/xlink" x="0px" y="0px"
	 viewBox="0 0 512 512" enable-background="new 0 0 512 512" xml:space="preserve">
<g id="Layer_3">
	<path fill="#8299A3" d="M233.441,172.617c69.986,69.986,117.003,136.438,105.017,148.424
		c-11.987,11.987-78.439-35.031-148.424-105.017S73.03,79.587,85.017,67.6S163.455,102.631,233.441,172.617z M382.4,155.819
		c-1.94-34.966-16.645-67.858-41.404-92.618c-24.761-24.76-57.653-39.465-92.619-41.405c-12.484-0.692-24.16,5.81-30.223,16.549
		c34.897,7.826,68.064,25.312,95.229,52.477c27.163,27.163,44.647,60.326,52.472,95.219
		C376.592,179.978,383.093,168.306,382.4,155.819z"/>
</g>
<g id="Layer_1">
</g>
</svg>
