<?xml version="1.0" encoding="iso-8859-1"?>
<!-- Generator: Adobe Illustrator 18.1.0, SVG Export Plug-In . SVG Version: 6.00 Build 0)  -->
<!DOCTYPE svg PUBLIC "-//W3C//DTD SVG 1.1//EN" "http://www.w3.org/Graphics/SVG/1.1/DTD/svg11.dtd">
<svg version="1.1" xmlns="http://www.w3.org/2000/svg" xmlns:xlink="http://www.w3.org/1999/xlink" x="0px" y="0px"
	 viewBox="0 0 512 512" enable-background="new 0 0 512 512" xml:space="preserve">
<g id="Layer_2">
	<path fill="#2B3B47" d="M244.921,498.451c-65.893,0-119.5-53.607-119.5-119.5V132.137c0-65.893,53.607-119.5,119.5-119.5h22.158
		c65.893,0,119.5,53.607,119.5,119.5v246.814c0,65.893-53.607,119.5-119.5,119.5H244.921z"/>
</g>
<g id="Layer_3">
	<circle fill="#FF473E" cx="256" cy="112.052" r="62.541"/>
</g>
<g id="Layer_4">
	<circle fill="#FFB636" cx="256" cy="255.984" r="62.541"/>
</g>
<g id="Layer_5">
	<circle fill="#009E83" cx="256" cy="399.916" r="62.541"/>
</g>
<g id="Layer_6">
	<path fill="#D32A2A" d="M256,68.36c31.337,0,57.288,23.048,61.833,53.117c0.465-3.074,0.708-6.221,0.708-9.424
		c0-34.541-28.001-62.541-62.541-62.541s-62.541,28.001-62.541,62.541c0,3.204,0.243,6.35,0.708,9.424
		C198.712,91.408,224.663,68.36,256,68.36z"/>
</g>
<g id="Layer_7">
	<path fill="#E2A042" d="M256,212.292c31.337,0,57.288,23.048,61.833,53.117c0.465-3.074,0.708-6.221,0.708-9.424
		c0-34.541-28.001-62.541-62.541-62.541s-62.541,28.001-62.541,62.541c0,3.204,0.243,6.35,0.708,9.424
		C198.712,235.34,224.663,212.292,256,212.292z"/>
</g>
<g id="Layer_8">
	<path fill="#007F67" d="M256,356.223c31.337,0,57.288,23.048,61.833,53.117c0.465-3.074,0.708-6.221,0.708-9.424
		c0-34.541-28.001-62.541-62.541-62.541s-62.541,28.001-62.541,62.541c0,3.204,0.243,6.35,0.708,9.424
		C198.712,379.271,224.663,356.223,256,356.223z"/>
</g>
<g id="Layer_9">
	<path fill="#BFBCAF" d="M267.079,24.137c59.647,0,108,48.353,108,108v246.814c0,59.647-48.353,108-108,108h-22.158
		c-59.647,0-108-48.353-108-108V132.137c0-59.647,48.353-108,108-108H267.079 M267.079,1.137h-22.158
		c-34.991,0-67.888,13.626-92.631,38.369c-24.743,24.743-38.369,57.64-38.369,92.631v246.814c0,34.991,13.626,67.888,38.369,92.631
		c24.743,24.743,57.64,38.369,92.631,38.369h22.158c34.991,0,67.888-13.626,92.631-38.369c24.743-24.743,38.369-57.64,38.369-92.631
		V132.137c0-34.991-13.626-67.888-38.369-92.631C334.968,14.763,302.071,1.137,267.079,1.137L267.079,1.137z"/>
</g>
</svg>
