<?xml version="1.0" encoding="utf-8"?>
<!-- Generator: Adobe Illustrator 18.0.0, SVG Export Plug-In . SVG Version: 6.00 Build 0)  -->
<!DOCTYPE svg PUBLIC "-//W3C//DTD SVG 1.1 Tiny//EN" "http://www.w3.org/Graphics/SVG/1.1/DTD/svg11-tiny.dtd">
<svg version="1.1" baseProfile="tiny" id="Layer_1" xmlns="http://www.w3.org/2000/svg" xmlns:xlink="http://www.w3.org/1999/xlink"
	 x="0px" y="0px" width="511.9px" height="511.9px" viewBox="0 0 511.9 511.9" xml:space="preserve">
<path fill="#FFFFFF" d="M99.2,243.8l-5.7,45.6c-1.5,12-12.4,20.5-24.4,19.1C57.1,307,48.5,296,50,284c0.7-5.9,3.8-11,8.1-14.5
	l36-28.6c1.3-1.1,3.3-0.8,4.4,0.5C99.1,242.2,99.3,243.1,99.2,243.8z"/>
<path fill="#FFFFFF" d="M205.5,274.3c2.5,0.2,5,0.4,7.6,0.5c6.9,0.3,14.1,1,21.4,1c7.3,0.1,14.7,0.3,22.1,0.4
	c7.4-0.1,14.8-0.3,22.1-0.4c7.3,0,14.5-0.7,21.4-1c2.6-0.1,5-0.3,7.5-0.5c-14.4-10-32-16-51-16C237.4,258.4,219.9,264.3,205.5,274.3
	z"/>
</svg>
