<?xml version="1.0" encoding="iso-8859-1"?>
<!-- Generator: Adobe Illustrator 18.1.1, SVG Export Plug-In . SVG Version: 6.00 Build 0)  -->
<!DOCTYPE svg PUBLIC "-//W3C//DTD SVG 1.1//EN" "http://www.w3.org/Graphics/SVG/1.1/DTD/svg11.dtd">
<svg version="1.1" xmlns="http://www.w3.org/2000/svg" xmlns:xlink="http://www.w3.org/1999/xlink" x="0px" y="0px"
	 viewBox="0 0 512 512" enable-background="new 0 0 512 512" xml:space="preserve">
<g id="Layer_2">
	<path fill="#BFBCAF" d="M345.03,274.685c-24.241-3.874-49.331-5.314-72.43-12.814c-39.998-12.986-64.2-47.286-64.022-83.748
		c0.187-38.294,25.36-72.093,64.738-87.101c32.116-12.24,65.549-16.541,98.924-9.709c17.283,3.538,33.203,13.983,49.56,21.686
		c7.981,3.758,15.146,9.606,23.399,12.35c14.991,4.984,22.429-0.408,22.874-16.245c0.311-11.075,6.165-12.279,14.608-10.359
		c19.441,4.42,30.518,23.59,25.326,43.462c-6.105,23.364-32.355,43.087-60.583,44.612c-14.273,0.771-28.743,1.77-42.878,0.583
		c-49.573-4.163-52.993,36.558-3.42,40.721c11.233,0.943,22.66,1.372,33.822,3.144c21.97,3.488,34.926,17.281,35.963,36.949
		c1.058,20.061-9.801,33.493-32.511,39.632c-9.512,2.571-19.487,3.66-28.746,6.879c-14.816,5.151-16.7,14.821-6.457,26.796
		c0.034,0.04,0.068,0.08,0.101,0.12c3.557,4.299,1.165,11.089-4.332,12.045c-0.627,0.109-1.241,0.134-1.838,0.042
		c-7.722-1.188-15.585-3.05-22.717-6.179c-23.011-10.094-25.024-26.985-5.625-42.526c0.527-0.422,1.114-0.909,1.737-1.437
		c4.548-3.856,3.046-11.214-2.654-12.965C360.265,278.286,350.937,275.629,345.03,274.685z"/>
</g>
<g id="Layer_1">
</g>
</svg>
