<?xml version="1.0" encoding="utf-8"?>
<!-- Generator: Adobe Illustrator 18.0.0, SVG Export Plug-In . SVG Version: 6.00 Build 0)  -->
<!DOCTYPE svg PUBLIC "-//W3C//DTD SVG 1.1 Tiny//EN" "http://www.w3.org/Graphics/SVG/1.1/DTD/svg11-tiny.dtd">
<svg version="1.1" baseProfile="tiny" id="Layer_1" xmlns="http://www.w3.org/2000/svg" xmlns:xlink="http://www.w3.org/1999/xlink"
	 x="0px" y="0px" width="511.9px" height="511.9px" viewBox="0 0 511.9 511.9" xml:space="preserve">
<path fill="#FFB636" d="M487.6,266.2c0.1-3.4,0.2-6.8,0.2-10.3c0-62-24.3-118.3-64-159.8c22.4,36.3,35.4,79.1,35.4,124.9
	c0,131.6-106.7,238.3-238.3,238.3c-45.8,0-88.6-13-124.9-35.4c41.6,39.6,97.9,63.9,159.9,63.9c105.5,0,194.6-70.4,222.7-166.8h5.4
	c15.2,0,27.6-12.3,27.6-27.6C511.5,279.5,501.1,268,487.6,266.2z"/>
</svg>
