<?xml version="1.0" encoding="iso-8859-1"?>
<!-- Generator: Adobe Illustrator 18.1.1, SVG Export Plug-In . SVG Version: 6.00 Build 0)  -->
<!DOCTYPE svg PUBLIC "-//W3C//DTD SVG 1.1//EN" "http://www.w3.org/Graphics/SVG/1.1/DTD/svg11.dtd">
<svg version="1.1" xmlns="http://www.w3.org/2000/svg" xmlns:xlink="http://www.w3.org/1999/xlink" x="0px" y="0px"
	 viewBox="0 0 512 512" enable-background="new 0 0 512 512" xml:space="preserve">
<g id="Layer_26">
	<path fill="#E5AB83" d="M172.956,80.074c0,0,0.189-0.057,0.52-0.157c0.325-0.095,0.785-0.219,1.34-0.351
		c0.554-0.134,1.206-0.269,1.911-0.393c0.708-0.114,1.466-0.226,2.244-0.279c0.772-0.067,1.565-0.073,2.32-0.025
		c0.372,0.006,0.751,0.08,1.099,0.121c0.348,0.037,0.694,0.152,1.001,0.219c0.308,0.062,0.6,0.211,0.85,0.299
		c0.253,0.087,0.468,0.209,0.644,0.319c0.348,0.212,0.547,0.333,0.547,0.333c0.577,0.352,0.76,1.105,0.407,1.683
		c-0.327,0.536-1.001,0.732-1.558,0.474l-0.254-0.117c0,0-0.116-0.054-0.319-0.148c-0.096-0.053-0.216-0.113-0.388-0.15
		c-0.17-0.036-0.325-0.122-0.554-0.142c-0.225-0.023-0.442-0.089-0.714-0.092c-0.269-0.005-0.536-0.044-0.842-0.02
		c-0.595,0.013-1.246,0.068-1.903,0.183c-0.655,0.099-1.316,0.254-1.931,0.407c-0.616,0.163-1.188,0.332-1.673,0.493
		c-0.485,0.159-0.886,0.304-1.158,0.409c-0.265,0.105-0.417,0.165-0.417,0.165l-0.041,0.016c-0.884,0.35-1.885-0.083-2.234-0.968
		c-0.35-0.884,0.083-1.885,0.968-2.234C172.864,80.104,172.912,80.087,172.956,80.074z"/>
</g>
<g id="Layer_1">
</g>
</svg>
