<?xml version="1.0" encoding="iso-8859-1"?>
<!-- Generator: Adobe Illustrator 18.1.0, SVG Export Plug-In . SVG Version: 6.00 Build 0)  -->
<!DOCTYPE svg PUBLIC "-//W3C//DTD SVG 1.1//EN" "http://www.w3.org/Graphics/SVG/1.1/DTD/svg11.dtd">
<svg version="1.1" xmlns="http://www.w3.org/2000/svg" xmlns:xlink="http://www.w3.org/1999/xlink" x="0px" y="0px"
	 viewBox="0 0 512 512" enable-background="new 0 0 512 512" xml:space="preserve">
<g id="Layer_2">
	<path fill="#FFB636" d="M204.854,309.75c0,0,0.227,0.595,0.668,1.748c0.208,0.564,0.522,1.32,0.791,2.115
		c0.28,0.805,0.604,1.739,0.971,2.795c0.38,1.069,0.689,2.149,1.094,3.4c0.386,1.234,0.843,2.615,1.201,3.973
		c0.388,1.388,0.805,2.879,1.25,4.47c0.412,1.558,0.758,3.122,1.175,4.826c1.656,6.804,3.021,14.419,3.798,22.366
		c0.426,4.01,0.607,8.007,0.696,12.117c0.006,4.028-0.091,8.159-0.468,12.194c-0.379,4.033-0.978,8.03-1.825,11.94
		c-0.862,3.895-1.972,7.702-3.351,11.379c-2.757,7.354-6.624,14.15-11.647,20.157c-2.485,3.031-5.389,5.734-8.266,8.533
		c-2.918,2.758-5.904,5.517-9.021,8.191c-6.204,5.378-12.798,10.549-19.729,15.385c-6.908,4.858-14.174,9.358-21.627,13.487
		c-3.736,2.055-7.531,4.005-11.347,5.865c-3.834,1.842-7.702,3.581-11.582,5.217c-7.784,3.247-15.627,6.066-23.403,8.401
		c-7.761,2.35-15.446,4.225-22.815,5.681c-14.714,2.934-28.219,4.137-38.257,4.394c-1.265,0.022-2.462,0.043-3.589,0.062
		c-1.147-0.001-2.222-0.002-3.223-0.003c-2.054-0.055-3.801-0.101-5.218-0.139c-1.465-0.086-2.588-0.152-3.345-0.196
		c-0.78-0.068-1.182-0.102-1.182-0.102s-0.035-0.403-0.102-1.182c-0.044-0.757-0.11-1.88-0.196-3.345
		c-0.038-1.417-0.084-3.164-0.139-5.218c-0.001-1-0.002-2.076-0.003-3.223c0.02-1.127,0.04-2.324,0.062-3.589
		c0.257-10.038,1.459-23.543,4.394-38.257c1.456-7.368,3.331-15.053,5.68-22.815c2.335-7.776,5.154-15.62,8.401-23.403
		c1.636-3.88,3.375-7.747,5.217-11.582c1.86-3.816,3.81-7.611,5.865-11.347c4.129-7.453,8.629-14.719,13.487-21.627
		c4.835-6.931,10.007-13.525,15.385-19.729c2.674-3.117,5.432-6.104,8.191-9.021c2.799-2.877,5.502-5.781,8.533-8.266
		c6.008-5.023,12.803-8.89,20.157-11.647c3.677-1.378,7.484-2.489,11.379-3.351c3.91-0.847,7.907-1.446,11.94-1.825
		c4.035-0.377,8.167-0.474,12.194-0.468c4.11,0.088,8.106,0.27,12.117,0.696c7.947,0.777,15.562,2.141,22.366,3.798
		c1.703,0.416,3.267,0.763,4.826,1.175c1.591,0.445,3.082,0.862,4.47,1.25c1.358,0.359,2.74,0.815,3.973,1.201
		c1.252,0.404,2.331,0.714,3.4,1.094c1.056,0.367,1.989,0.691,2.795,0.971c0.795,0.269,1.551,0.583,2.115,0.791
		C204.259,309.522,204.854,309.75,204.854,309.75z"/>
</g>
<g id="Layer_3">
	<path fill="#FF473E" d="M76.86,181.752L4.346,254.266c-5.012,5.012-1.462,13.582,5.626,13.582h60.945
		c2.11,0,4.134,0.838,5.626,2.33l39.572,39.572l64.271-130.328h-97.9C80.376,179.421,78.352,180.26,76.86,181.752z"/>
</g>
<g id="Layer_4">
	<path fill="#FF473E" d="M216.161,392.592l39.572,39.572c1.492,1.492,2.33,3.516,2.33,5.626v60.945
		c0,7.088,8.57,10.638,13.582,5.626l72.514-72.514c1.492-1.492,2.33-3.516,2.33-5.626v-97.9L216.161,392.592z"/>
</g>
<g id="Layer_5">
	<path fill="#ADBBBC" d="M505.647,17.875c0,0,0.026,0.215,0.077,0.637c0.047,0.419,0.139,1.065,0.205,1.862
		c0.131,1.593,0.428,4.061,0.569,7.033c0.452,6.114,0.756,14.721,0.543,25.076c-0.207,10.361-0.937,22.464-2.519,35.602
		c-0.354,3.326-0.859,6.619-1.347,10.041c-0.453,3.457-1.098,6.834-1.687,10.373c-1.21,7.047-2.72,14.218-4.463,21.533
		c-3.499,14.618-8.067,29.676-13.805,44.697c-5.738,15.021-12.624,30.025-20.695,44.6c-8.083,14.563-17.278,28.768-27.555,42.27
		c-10.263,13.515-21.594,26.34-33.751,38.338c-12.157,11.999-25.124,23.187-38.748,33.341c-3.407,2.537-6.834,5.032-10.338,7.419
		c-3.466,2.426-7.007,4.746-10.536,7.044c-7.092,4.562-14.334,8.831-21.651,12.837c-14.639,8.007-29.64,14.897-44.669,20.626
		c-15.029,5.729-30.067,10.318-44.644,13.858c-7.299,1.759-14.432,3.307-21.467,4.528c-1.749,0.315-3.476,0.626-5.179,0.933
		c-1.716,0.294-3.457,0.536-5.147,0.801c-1.696,0.259-3.368,0.514-5.015,0.765c-1.684,0.214-3.342,0.426-4.974,0.633
		c-13.067,1.653-25.09,2.463-35.375,2.746c-10.274,0.294-18.832,0.04-24.876-0.343c-2.942-0.111-5.394-0.393-6.968-0.504
		c-0.789-0.058-1.43-0.145-1.844-0.187c-0.418-0.047-0.631-0.07-0.631-0.07c-4.782-0.533-8.409-4.329-8.919-8.919
		c0,0-0.024-0.212-0.07-0.63c-0.042-0.414-0.129-1.055-0.187-1.844c-0.111-1.574-0.393-4.025-0.504-6.968
		c-0.382-6.044-0.636-14.601-0.343-24.876c0.283-10.285,1.093-22.308,2.746-35.375c0.208-1.632,0.419-3.291,0.633-4.974
		c0.251-1.647,0.506-3.319,0.765-5.015c0.265-1.69,0.508-3.43,0.801-5.147c0.307-1.703,0.618-3.43,0.933-5.179
		c1.221-7.035,2.769-14.168,4.528-21.467c3.539-14.578,8.128-29.615,13.858-44.644c5.73-15.029,12.62-30.03,20.626-44.669
		c4.007-7.316,8.276-14.559,12.837-21.651c2.298-3.529,4.618-7.07,7.044-10.536c2.387-3.505,4.882-6.931,7.419-10.338
		c10.154-13.624,21.342-26.592,33.341-38.748c11.998-12.157,24.823-23.488,38.338-33.751c13.502-10.276,27.707-19.472,42.27-27.555
		c14.575-8.071,29.58-14.957,44.6-20.695c15.021-5.738,30.079-10.306,44.697-13.805c7.315-1.743,14.486-3.253,21.533-4.463
		c3.539-0.589,6.916-1.234,10.373-1.687c3.422-0.488,6.714-0.994,10.041-1.347c13.138-1.582,25.241-2.312,35.602-2.519
		c10.355-0.213,18.962,0.09,25.076,0.543c2.972,0.141,5.44,0.439,7.033,0.569c0.797,0.066,1.443,0.157,1.862,0.205
		c0.422,0.051,0.637,0.077,0.637,0.077C501.496,9.531,505.097,13.31,505.647,17.875z"/>
</g>
<g id="Layer_6">
	<path fill="#FF473E" d="M243.106,271.497c0,0,0.198,0.537,0.583,1.577c0.325,0.981,0.763,2.392,1.065,3.964
		c0.716,3.255,0.953,7.217-0.341,10.663c-0.638,1.732-1.818,3.176-2.929,4.922c-1.141,1.716-2.375,3.572-3.693,5.555
		c-2.639,3.963-5.617,8.434-8.865,13.312c-3.278,4.848-6.841,10.088-10.652,15.587c-3.812,5.499-7.869,11.26-12.115,17.172
		c-2.137,2.941-4.31,5.932-6.51,8.959c-2.231,2.996-4.489,6.029-6.764,9.085c-4.589,6.076-9.285,12.215-14.06,18.274
		c-4.757,6.077-9.574,12.095-14.364,17.97c-4.781,5.885-9.469,11.692-14.083,17.235c-2.298,2.781-4.557,5.516-6.769,8.192
		c-2.242,2.646-4.281,5.389-6.649,7.677c-2.353,2.302-5.068,4.116-8.188,5.376c-3.093,1.287-6.479,2.133-9.753,2.923
		c-6.57,1.556-12.882,2.693-18.695,3.482c-2.904,0.397-5.681,0.709-8.304,0.944c-2.609,0.248-5.133,0.347-7.345,0.506
		c-2.229,0.141-4.357,0.129-6.135,0.192c-1.805,0.036-3.43-0.023-4.702-0.025c-1.299-0.029-2.337-0.094-3.016-0.117
		c-0.703-0.047-1.066-0.072-1.066-0.072s-0.024-0.363-0.072-1.066c-0.023-0.679-0.088-1.718-0.117-3.016
		c-0.002-1.272-0.061-2.896-0.025-4.702c0.062-1.779,0.051-3.906,0.192-6.135c0.158-2.212,0.258-4.736,0.506-7.345
		c0.234-2.622,0.546-5.4,0.944-8.304c0.789-5.813,1.926-12.125,3.482-18.695c0.79-3.273,1.636-6.659,2.923-9.753
		c1.26-3.121,3.074-5.835,5.376-8.188c2.288-2.367,5.031-4.406,7.678-6.648c2.677-2.212,5.411-4.471,8.192-6.769
		c5.543-4.614,11.35-9.303,17.235-14.083c5.875-4.79,11.893-9.607,17.97-14.364c6.059-4.776,12.198-9.471,18.274-14.06
		c3.057-2.276,6.089-4.534,9.085-6.764c3.027-2.2,6.017-4.373,8.959-6.51c5.912-4.245,11.673-8.303,17.172-12.115
		c5.5-3.811,10.739-7.375,15.587-10.652c4.878-3.248,9.349-6.226,13.312-8.865c1.983-1.318,3.839-2.552,5.555-3.693
		c1.745-1.111,3.189-2.291,4.922-2.929c3.446-1.294,7.408-1.057,10.663-0.341c1.572,0.302,2.983,0.74,3.964,1.065
		C242.569,271.299,243.106,271.497,243.106,271.497z"/>
</g>
<g id="Layer_7">
	<path fill="#2B3B47" d="M362.113,206.66c0,29.917-24.253,54.17-54.17,54.17c-29.917,0-54.17-24.253-54.17-54.17
		s24.253-54.17,54.17-54.17C337.86,152.49,362.113,176.743,362.113,206.66z M389.342,90.779c-19.044,0-34.482,15.438-34.482,34.482
		s15.438,34.482,34.482,34.482s34.482-15.438,34.482-34.482S408.386,90.779,389.342,90.779z"/>
</g>
</svg>
