<?xml version="1.0" encoding="utf-8"?>
<!-- Generator: Adobe Illustrator 18.1.1, SVG Export Plug-In . SVG Version: 6.00 Build 0)  -->
<!DOCTYPE svg PUBLIC "-//W3C//DTD SVG 1.1//EN" "http://www.w3.org/Graphics/SVG/1.1/DTD/svg11.dtd">
<svg version="1.1" xmlns="http://www.w3.org/2000/svg" xmlns:xlink="http://www.w3.org/1999/xlink" x="0px" y="0px"
	 viewBox="0 0 512 512" enable-background="new 0 0 512 512" xml:space="preserve">
<g id="Layer_2">
	<rect x="258.1" y="98.8" fill="#E5E4DF" width="98.5" height="42.1"/>
</g>
<g id="Layer_3">
	<path fill="#2B3B47" d="M264.2,140.9H250v-14h14.2V140.9z M264.2,98.7h-11.1c-1.7,0-3.1,1.4-3.1,3.1v10.9h14.2V98.7z M342.6,140.9
		h14.2v-14h-14.2V140.9z M342.6,112.8h14.2v-10.9c0-1.7-1.4-3.1-3.1-3.1h-11.1V112.8z"/>
</g>
<g id="Layer_4">
	<path fill="#FFB636" d="M511.7,290.7v41.9c0,18.6-15.1,33.7-33.7,33.7H9c-4.3,0-7.8-3.5-7.8-7.8v-27.7c0-4.3,3.5-7.8,7.8-7.8h0
		c4.3,0,3.6-3.5,3.6-7.8c0-17.5,1.2-38.3,17.3-45.5c0,0,42-28.7,86.1-29.9l45.1-79.5c7.9-14,22.8-22.6,38.9-22.6h188.5
		c18.5,0,35.5,10.6,43.6,27.2l37.3,76.4l29.3,22.6C506.9,270.4,511.7,280.3,511.7,290.7z M264.2,112.8H250v14h14.2V112.8z
		 M342.6,126.8h14.2v-14h-14.2V126.8z"/>
</g>
<g id="Layer_5">
	<path fill="#E08820" d="M55,357.7c0-39,31.6-70.6,70.6-70.6s70.6,31.6,70.6,70.6v8.6H55V357.7z M313.6,366.2h141.2v-8.6
		c0-39-31.6-70.6-70.6-70.6s-70.6,31.6-70.6,70.6V366.2z"/>
</g>
<g id="Layer_6">
	<path fill="#2B3B47" d="M184.1,359.2c0,31.6-25.6,57.1-57.1,57.1s-57.1-25.6-57.1-57.1s25.6-57.1,57.1-57.1
		S184.1,327.7,184.1,359.2z M385.7,302.1c-31.6,0-57.1,25.6-57.1,57.1s25.6,57.1,57.1,57.1s57.1-25.6,57.1-57.1
		S417.2,302.1,385.7,302.1z"/>
</g>
<g id="Layer_7">
	<path fill="#FFFFFF" d="M164.7,232l260.3,0.7c5.3,0,8.8-5.6,6.5-10.4L411,180.3c-5.3-10.9-16.6-17.9-28.7-17.9H208.4
		c-10.1,0-19.5,5.4-24.5,14.2l-25.4,44.7C155.8,226.1,159.2,232,164.7,232z"/>
</g>
<g id="Layer_8">
	<path fill="#2B3B47" d="M277.8,129.7h-1.4c-0.9,0-1.7-0.7-1.7-1.7v-12.9c0-0.9-0.7-1.7-1.7-1.7h-2.2c-0.9,0-1.7-0.7-1.7-1.7v-0.3
		c0-0.9,0.7-1.7,1.7-1.7h12.5c1,0,1.8,0.9,1.7,1.9l0,0.3c-0.1,0.8-0.8,1.4-1.7,1.4h-2.2c-0.9,0-1.7,0.7-1.7,1.7v12.9
		C279.4,129,278.7,129.7,277.8,129.7z"/>
</g>
<g id="Layer_9">
	<path fill="#2B3B47" d="M290.6,126.7l-0.4,1.7c-0.2,0.7-0.9,1.3-1.6,1.3h-1.4c-1.1,0-1.9-1.1-1.6-2.2l5-16.5
		c0.2-0.7,0.9-1.2,1.6-1.2h3.3c0.7,0,1.4,0.5,1.6,1.2l5,16.5c0.3,1.1-0.5,2.2-1.6,2.2H299c-0.8,0-1.4-0.5-1.6-1.3l-0.4-1.7
		c-0.2-0.7-0.9-1.3-1.6-1.3h-3.1C291.4,125.5,290.7,126,290.6,126.7z M293.7,122c1.1,0,1.9-1,1.6-2.1l-1.6-6.7l-1.6,6.7
		C291.9,121,292.7,122,293.7,122L293.7,122z"/>
</g>
<g id="Layer_10">
	<path fill="#2B3B47" d="M311.1,110.9l1,2.2c0.6,1.3,2.4,1.3,3,0l1.1-2.2c0.3-0.6,0.9-0.9,1.5-0.9h1.1c1.3,0,2.1,1.4,1.4,2.5
		l-3.4,5.8c-0.3,0.5-0.3,1.1,0,1.6l4,7.5c0.6,1.1-0.2,2.5-1.5,2.5h-1.3c-0.7,0-1.2-0.4-1.5-1l-1.5-3.2c-0.6-1.3-2.4-1.3-3,0
		l-1.5,3.2c-0.3,0.6-0.9,1-1.5,1h-1.2c-1.3,0-2.1-1.3-1.5-2.4l3.9-7.3c0.3-0.5,0.3-1.1,0-1.6l-3.4-6c-0.6-1.1,0.2-2.5,1.5-2.5h1.2
		C310.2,109.9,310.8,110.3,311.1,110.9z"/>
</g>
<g id="Layer_11">
	<path fill="#2B3B47" d="M335.1,113.4h-0.8c-0.9,0-1.7,0.7-1.7,1.7v9.5c0,0.9,0.7,1.7,1.7,1.7h0.8c0.9,0,1.7,0.7,1.7,1.7v0.2
		c0,0.9-0.7,1.7-1.7,1.7h-9.6c-0.9,0-1.7-0.7-1.7-1.7v-0.2c0-0.9,0.7-1.7,1.7-1.7h0.8c0.9,0,1.7-0.7,1.7-1.7V115
		c0-0.9-0.7-1.7-1.7-1.7h-0.8c-0.9,0-1.7-0.7-1.7-1.7v-0.1c0-0.9,0.7-1.7,1.7-1.7h9.6c0.9,0,1.7,0.7,1.7,1.7v0.1
		C336.8,112.6,336,113.4,335.1,113.4z"/>
</g>
<g id="Layer_12">
	<rect x="306.6" y="145.1" fill="#FFB636" width="27.9" height="101.6"/>
</g>
<g id="Layer_13">
	<path fill="#9BA5A8" d="M164.5,359.2c0,20.7-16.8,37.4-37.4,37.4s-37.4-16.8-37.4-37.4c0-20.7,16.8-37.4,37.4-37.4
		S164.5,338.5,164.5,359.2z M385.7,321.8c-20.7,0-37.4,16.8-37.4,37.4c0,20.7,16.8,37.4,37.4,37.4c20.7,0,37.4-16.8,37.4-37.4
		C423.1,338.5,406.3,321.8,385.7,321.8z"/>
</g>
<g id="Layer_14">
	<path fill="#E5E4DF" d="M140.1,359.2c0,7.2-5.9,13.1-13.1,13.1s-13.1-5.9-13.1-13.1c0-7.2,5.9-13.1,13.1-13.1
		S140.1,352,140.1,359.2z M385.7,346.1c-7.2,0-13.1,5.9-13.1,13.1c0,7.2,5.9,13.1,13.1,13.1c7.2,0,13.1-5.9,13.1-13.1
		C398.8,352,392.9,346.1,385.7,346.1z"/>
</g>
<g id="Layer_15">
	<path fill="#FF473E" d="M511.6,321h-7.7c-8.3,0-13.5-6.8-13.5-15.1v0c0-8.3,5.2-15.1,13.5-15.1h7.7V321z M12.3,318.9h8.7
		c8.3,0,13.5-6.8,13.5-15.1v0c0-8.3-5.2-15.1-13.5-15.1h-5.9C12,294.9,12.3,318.9,12.3,318.9z"/>
</g>
<g id="Layer_16">
	<path fill="#2B3B47" d="M206.8,214.9v19.5c0,5.7-7.9,9-13.6,5.8c-4-2.2-8.1-5-11-7.9l-19.7,0c-5.2,0-8.3-5.7-5.6-10l19.7-32.9
		l8.4,25.3c2.4-2,5.2-3.8,8-5.5C198.7,205.8,206.8,209.2,206.8,214.9z M429.9,232.7c4.3,0,7.2-4.6,5.3-8.5l-27.4-55.9
		c-1.7-3.4-5.2-5.6-9-5.6h-13.1v70.2L429.9,232.7z"/>
</g>
</svg>
