<?xml version="1.0" encoding="utf-8"?>
<!-- Generator: Adobe Illustrator 18.1.0, SVG Export Plug-In . SVG Version: 6.00 Build 0)  -->
<!DOCTYPE svg PUBLIC "-//W3C//DTD SVG 1.0//EN" "http://www.w3.org/TR/2001/REC-SVG-20010904/DTD/svg10.dtd">
<svg version="1.0" id="Layer_1" xmlns="http://www.w3.org/2000/svg" xmlns:xlink="http://www.w3.org/1999/xlink" x="0px" y="0px"
	 width="72px" height="72px" viewBox="0 0 72 72" enable-background="new 0 0 72 72" xml:space="preserve">
<path fill="#FF6F1F" d="M60,44.8h-2.7c0-1.3,0-2.6,0-2.7c0-11-6.4-20.6-16.1-23.5C40.5,13.7,38.5,3.8,34.9,4
	c-3.3,0.2-3.3,8.7-3,13.9c-1.6,0.2-3.1,0.5-4.6,0.9C26,15.1,22.1,5.9,18.3,7c-3.3,0.9-1.4,10.1,0.1,15.7c-5.5,3.7-9.8,9.3-13.5,17
	c-0.2,0.4-0.2,0.8,0,1.2c3.8,6.9,13.3,9,22.3,8.3V38.6c0-0.1,0-0.2,0-0.2s0-0.2,0-0.2V38h0c0.1-2.9,1.6-5.4,3.9-6.9
	c0.3-0.2,0.7-0.4,1-0.6c0,0,0.1,0,0.1-0.1c0.4-0.2,0.7-0.3,1.1-0.4c0,0,0,0,0,0c0.4-0.1,0.8-0.2,1.1-0.3c0.1,0,0.2,0,0.3,0
	c0.4-0.1,0.8-0.1,1.2-0.1c4.7,0,8.5,3.7,8.8,8.4h0v4.9v9.5c0,0,0,0,0,0c0.1,4.1,3.4,7.3,7.5,7.3h5.2c4.1,0,7.5-3.4,7.5-7.5
	S64.2,44.8,60,44.8z"/>
</svg>
