<?xml version="1.0" encoding="iso-8859-1"?>
<!-- Generator: Adobe Illustrator 19.1.0, SVG Export Plug-In . SVG Version: 6.00 Build 0)  -->
<!DOCTYPE svg PUBLIC "-//W3C//DTD SVG 1.1//EN" "http://www.w3.org/Graphics/SVG/1.1/DTD/svg11.dtd">
<svg version="1.1" xmlns="http://www.w3.org/2000/svg" xmlns:xlink="http://www.w3.org/1999/xlink" x="0px" y="0px"
	 viewBox="0 0 512 512" enable-background="new 0 0 512 512" xml:space="preserve">
<g id="Layer_2">
	<circle fill="#2B3B47" cx="256" cy="256" r="256"/>
</g>
<g id="Layer_3">
	<rect x="96" y="64" fill="#FF473E" width="320" height="368"/>
</g>
<g id="Layer_4">
	<rect x="104" y="72" fill="#F9F9F7" width="304" height="224"/>
</g>
<g id="Layer_5">
	<path fill="#FFD469" d="M207,340c0,11.046-8.954,20-20,20s-20-8.954-20-20s8.954-20,20-20S207,328.954,207,340z M323,320
		c-11.046,0-20,8.954-20,20s8.954,20,20,20s20-8.954,20-20S334.046,320,323,320z"/>
</g>
<g id="Layer_6">
	<path fill="#E5E4DF" d="M192.12,432h32l-14.854,59.414c-20.149-3.988-39.394-10.486-57.386-19.175L192.12,432z M320,432h-32
		l14.854,59.414c20.149-3.988,39.394-10.486,57.386-19.175L320,432z"/>
</g>
<g id="Layer_7">
	<path fill="#132028" d="M396,280H116V136h280V280z M353,88H161v32h192V88z M320,400H192v32h128V400z"/>
</g>
</svg>
