<?xml version="1.0" encoding="utf-8"?>
<!-- Generator: Adobe Illustrator 18.0.0, SVG Export Plug-In . SVG Version: 6.00 Build 0)  -->
<!DOCTYPE svg PUBLIC "-//W3C//DTD SVG 1.1 Tiny//EN" "http://www.w3.org/Graphics/SVG/1.1/DTD/svg11-tiny.dtd">
<svg version="1.1" baseProfile="tiny" id="Layer_1" xmlns="http://www.w3.org/2000/svg" xmlns:xlink="http://www.w3.org/1999/xlink"
	 x="0px" y="0px" width="511.9px" height="511.9px" viewBox="0 0 511.9 511.9" xml:space="preserve">
<path fill="#FFA1E0" d="M425.4,241c-17.5-8.9-38.9-1.8-47.8,15.7l-0.4,0.7l-70.2,138.8c-19.5-5.2-45.6-8.4-80.5-8.4
	c-122,0-130.1,45.7-141.3,90.6c-7.3,29.3,73.6,33.4,146.6,33.4c67.3,0,122.8-2.8,131.1-26.8c4.4-4.5,8-9.9,10.3-16.1l0.4-1
	l68.9-182.7C448.9,268.6,441.7,249.3,425.4,241z"/>
<path fill="#FFD3B6" d="M334.5,212.9C334.5,212.9,334.5,212.9,334.5,212.9l2.2-33.4c0-57.8-50-87.7-107.8-87.7
	c-57.8,0-101.6,29.9-101.6,87.7l3.3,49.8c-11.5,0.7-20.6,10.2-20.6,21.9c0,12.1,9.8,21.9,21.9,21.9c0.6,0,1.1,0,1.6-0.1l0.2,3.1
	c0,38.8,22.5,72.4,55.2,88.3v48c0,11.7,19,21.2,42.3,21.2c23.4,0,42.3-9.5,42.3-21.2c0-1.3-0.3-2.6-0.7-3.9v-43.2
	c33.8-15.5,57.3-49.7,57.3-89.3l1.1-16.1c1,0.1,2.1,0.2,3.2,0.2c13.1,0,23.6-10.6,23.6-23.7S347.6,212.9,334.5,212.9z"/>
<path fill="#E5AB83" d="M231.5,288.6C231.5,288.6,231.5,288.6,231.5,288.6c-7.4,0-14.1-3.7-17.9-9.8c-1.3-2-0.7-4.7,1.3-5.9
	c2-1.3,4.7-0.7,5.9,1.3c2.3,3.6,6.2,5.7,10.6,5.7c0,0,0,0,0,0c4.4,0,8.4-2.2,10.6-5.8c1.3-2,3.9-2.6,5.9-1.3c2,1.3,2.6,3.9,1.3,5.9
	C245.5,285,238.8,288.6,231.5,288.6z"/>
<path fill="#2B3B47" d="M178.3,233.7c-0.5-5.6-5.1-10-10.8-10c-5.7,0-10.4,4.4-10.9,10h-0.1v15.4h0c0,0,0,0,0,0c0,6.1,4.9,11,11,11
	c6,0,11-4.9,11-11c0,0,0,0,0,0v0v-15.4H178.3z"/>
<path fill="#FFFFFF" d="M166.1,233.1c-0.1-1.3-1.2-2.4-2.6-2.4c-1.4,0-2.5,1.1-2.6,2.4h0v3.7h0v0c0,1.4,1.2,2.6,2.6,2.6
	c1.4,0,2.6-1.2,2.6-2.6v0l0,0L166.1,233.1L166.1,233.1z"/>
<path fill="#2B3B47" d="M306.8,233.7c-0.5-5.6-5.1-10-10.9-10c-5.7,0-10.4,4.4-10.9,10h-0.1v15.4h0c0,0,0,0,0,0c0,6.1,4.9,11,11,11
	c6,0,11-4.9,11-11c0,0,0,0,0,0v0L306.8,233.7L306.8,233.7z"/>
<path fill="#FFFFFF" d="M294.5,233.1c-0.1-1.3-1.2-2.4-2.6-2.4c-1.4,0-2.5,1.1-2.6,2.4h0v3.7h0v0c0,1.4,1.2,2.6,2.6,2.6
	c1.4,0,2.6-1.2,2.6-2.6v0l0,0L294.5,233.1L294.5,233.1z"/>
<path fill="#EDC0A2" d="M223.2,364.1c-22.5,0-43.3-6.8-60.6-18.5c17.8,17.7,42.3,28.7,69.4,28.7c54.2,0,98.2-44,98.2-98.2l0.3-5
	C323,323.7,277.9,364.1,223.2,364.1z"/>
<path fill="#2B3B47" d="M275.5,312.5c-0.6-0.9-1.6-1.5-2.7-1.5h-84.7c-1.1,0-2.1,0.6-2.7,1.5s-0.7,2.1-0.3,3.1
	c0.5,1.1,12.5,27.5,45.3,27.5s44.8-26.4,45.3-27.5C276.2,314.6,276.1,313.4,275.5,312.5z"/>
<path fill="#E5AB83" d="M279.8,203.2c0,0,0.4-0.2,1.1-0.7c0.3-0.2,1-0.5,1.6-0.8c0.7-0.4,1.4-0.6,2.2-0.9c0.8-0.3,1.7-0.5,2.6-0.8
	c0.9-0.2,1.9-0.4,2.9-0.5c0.5,0,1-0.1,1.6-0.1c0.5,0,1.1,0,1.6,0c0.5,0,1.1,0,1.6,0.1c0.5,0,1.1,0.1,1.6,0.2l1.6,0.3
	c0.5,0.1,1.1,0.3,1.6,0.4c0.5,0.1,1,0.3,1.5,0.5c0.5,0.2,1,0.4,1.5,0.6c0.9,0.5,1.8,0.9,2.6,1.5c0.8,0.5,1.5,1.1,2.1,1.7
	c0.6,0.5,1.1,1.2,1.5,1.7c0.5,0.5,0.8,1,1,1.4c0.5,0.8,0.8,1.3,0.8,1.3c0.7,1,0.4,2.4-0.7,3c-0.9,0.6-2.2,0.4-2.9-0.4l-0.2-0.2
	c0,0-0.3-0.3-0.7-0.9c-0.2-0.3-0.5-0.6-0.9-0.9c-0.4-0.3-0.7-0.7-1.3-1.1c-0.5-0.3-1-0.7-1.6-1c-0.6-0.4-1.3-0.6-2-0.9
	c-0.3-0.2-0.7-0.2-1.1-0.3c-0.4-0.1-0.7-0.2-1.1-0.2c-0.4-0.1-0.8-0.1-1.2-0.2l-1.2-0.1c-0.4,0-0.8,0-1.2,0c-0.4,0-0.8,0-1.2,0.1
	c-0.4,0.1-0.8,0.1-1.2,0.2c-0.4,0.1-0.8,0.2-1.1,0.3c-0.7,0.1-1.4,0.4-2.1,0.6c-0.6,0.3-1.3,0.5-1.8,0.8c-0.5,0.3-1,0.5-1.3,0.7
	c-0.4,0.2-0.6,0.3-1,0.6c-0.7,0.5-1.1,0.8-1.1,0.8l0,0c-1.8,1.4-4.4,1-5.7-0.8c-1.4-1.8-1-4.4,0.8-5.7
	C279.5,203.4,279.7,203.3,279.8,203.2z"/>
<path fill="#E5AB83" d="M176.9,210c0,0-0.4-0.3-1.1-0.8c-0.4-0.3-0.6-0.4-1-0.6c-0.3-0.2-0.8-0.5-1.3-0.7c-0.5-0.3-1.1-0.5-1.8-0.8
	c-0.7-0.2-1.3-0.5-2.1-0.6c-0.4-0.1-0.7-0.2-1.1-0.3c-0.4-0.1-0.8-0.1-1.2-0.2c-0.4-0.1-0.8-0.1-1.2-0.1c-0.4,0-0.8-0.1-1.2,0
	l-1.2,0.1c-0.4,0.1-0.8,0.1-1.2,0.2c-0.4,0-0.8,0.2-1.1,0.2c-0.4,0.1-0.8,0.2-1.1,0.3c-0.7,0.3-1.4,0.5-2,0.9
	c-0.6,0.3-1.1,0.7-1.6,1c-0.5,0.3-0.9,0.7-1.3,1.1c-0.4,0.3-0.7,0.7-0.9,0.9c-0.5,0.6-0.7,0.9-0.7,0.9l-0.2,0.2
	c-0.8,0.9-2.2,1-3.1,0.3c-0.9-0.7-1-2-0.4-2.9c0,0,0.3-0.5,0.8-1.3c0.3-0.4,0.6-0.9,1-1.4c0.4-0.5,0.9-1.1,1.5-1.7
	c0.6-0.6,1.3-1.2,2.1-1.7c0.8-0.6,1.7-1.1,2.6-1.5c0.5-0.3,1-0.4,1.5-0.6c0.5-0.2,1-0.4,1.5-0.5c0.5-0.1,1.1-0.3,1.6-0.4l1.6-0.3
	c0.5-0.1,1.1-0.1,1.6-0.2c0.5,0,1.1-0.1,1.6-0.1c0.5,0,1.1,0,1.6,0c0.5,0,1,0.1,1.6,0.1c1,0.1,2,0.3,2.9,0.5
	c0.9,0.3,1.8,0.4,2.6,0.8c0.8,0.3,1.5,0.5,2.2,0.9c0.7,0.3,1.4,0.6,1.6,0.8c0.7,0.4,1.1,0.7,1.1,0.7c2,1.1,2.6,3.6,1.5,5.6
	c-1.1,2-3.6,2.6-5.6,1.5C177.2,210.2,177.1,210.1,176.9,210L176.9,210z"/>
<path fill="#FFFFFF" d="M232,317.3c16.7,0,31.8-2.4,42.2-6.2c-0.1,0-0.3,0-0.4,0h-84.1C200.2,314.9,215.2,317.3,232,317.3z"/>
<path fill="#FFD3B6" d="M445,18.6c-4.2,0-7.5,3.4-7.5,7.5v30.3h-5.1V13.9c0-4.2-3.4-7.5-7.6-7.5c-4.2,0-7.5,3.4-7.5,7.5v42.5h-5v-48
	c0-4.2-3.4-7.5-7.6-7.5c-4.2,0-7.5,3.4-7.5,7.5v48h-5.5V14.8c0-4.2-3.4-7.6-7.6-7.6c-4.2,0-7.5,3.4-7.5,7.6v75.1c-3.2-2-6.5-4-9-5.5
	c-18-8.7-24-0.4-24-0.4c-2.1,3.7-0.8,8.3,2.7,10.5c19.6,9.9,29.6,20,31.8,22.4c2.2,3.3,6.3,6.7,9.9,8.2
	c-2.8,53.9-4.5,127.2-4.5,127.2c-0.5,16.3,12.1,27.5,29.6,32.9c15.6,4.8,27.7-5.2,28.3-21.4c0-1,0-2,0-2.9l-9.1-137.6
	c11.9-5.1,20.3-17,20.3-30.8V26.2C452.6,22,449.2,18.6,445,18.6z"/>
<path fill="#68442A" d="M348.5,175.8c0-64.4-55.6-113.1-119.9-113.1c-64.4,0-113.1,48.7-113.1,113.1l2.2,33.5l0.5,70.2
	c0,0,0,0,0.1,0c1.1,35.9,15.5,73.2,15.5,73.2c0,6.4,24.7,10.6,56.9,12.5c-25.1-11.6-44.5-33.6-52.7-60.4c-0.1-0.4-0.2-0.7-0.3-1.1
	c-0.2-0.7-0.4-1.3-0.6-2c-0.1-0.4-0.2-0.9-0.3-1.3c-0.2-0.6-0.3-1.2-0.4-1.8c-0.1-0.5-0.2-1-0.3-1.5c-0.1-0.4-0.2-0.9-0.3-1.3
	c-0.3-1.4-0.5-2.8-0.8-4.2c0-0.1,0-0.2-0.1-0.4c-0.1-0.8-0.2-1.7-0.3-2.5c0-0.2,0-0.4-0.1-0.6c-0.1-0.9-0.2-1.7-0.3-2.6
	c0-0.1,0-0.2,0-0.3c-0.1-0.9-0.2-1.8-0.2-2.7c0-15.9,0-36.4,0-53.5c1.8-26.9,12.6-85.4,57.5-85.4c41.1,41.1,98.1,66.5,143,69
	l-4.2,63.4c0,1.4,0,2.9-0.1,4.3c0,0.4,0,0.9-0.1,1.3c-0.1,1-0.1,2-0.2,3c0,0.5-0.1,1-0.1,1.4c-0.1,1-0.2,2-0.4,3
	c-0.1,0.4-0.1,0.8-0.2,1.2c-0.2,1.4-0.4,2.8-0.7,4.1c0,0,0,0.1,0,0.1c-0.3,1.3-0.5,2.6-0.8,3.9c-0.1,0.4-0.2,0.8-0.3,1.1
	c-0.2,1-0.5,2-0.8,2.9c-0.1,0.4-0.2,0.8-0.3,1.2c-0.3,1-0.6,2.1-1,3.1c-0.1,0.3-0.2,0.6-0.3,0.9c-0.9,2.6-1.9,5.2-3,7.7
	c-0.1,0.3-0.3,0.6-0.4,0.8c-0.4,1-0.9,2-1.4,2.9c-0.1,0.3-0.3,0.6-0.4,0.9c-0.5,1.1-1.1,2.1-1.7,3.2c-0.1,0.1-0.2,0.3-0.2,0.4
	c-1.4,2.4-2.8,4.8-4.4,7.1c-0.1,0.2-0.3,0.4-0.4,0.6c-0.7,1-1.3,1.9-2,2.8c-0.2,0.2-0.3,0.4-0.5,0.6c-0.8,1-1.6,2.1-2.4,3.1
	c0,0-0.1,0.1-0.1,0.1c-0.9,1.1-1.8,2.2-2.8,3.3h0c-9.1,10.3-20.4,18.6-33.1,24.4c35.7-1.7,64.3-6,64.3-12.9c0,0,3.1-6.5,5.9-34.9
	C349,270.8,348.5,175.8,348.5,175.8z"/>
</svg>
