<?xml version="1.0" encoding="utf-8"?>
<!-- Generator: Adobe Illustrator 18.0.0, SVG Export Plug-In . SVG Version: 6.00 Build 0)  -->
<!DOCTYPE svg PUBLIC "-//W3C//DTD SVG 1.1//EN" "http://www.w3.org/Graphics/SVG/1.1/DTD/svg11.dtd">
<svg version="1.1" id="Layer_1" xmlns="http://www.w3.org/2000/svg" xmlns:xlink="http://www.w3.org/1999/xlink" x="0px" y="0px"
	 width="511.9px" height="511.9px" viewBox="0 0 511.9 511.9" enable-background="new 0 0 511.9 511.9" xml:space="preserve">
<path fill="#D32A2A" d="M499,44.7c-0.5-4.7-0.8-8.4-1.4-11.6c-1.6-6.5-2.6-9.8-2.6-9.8c-0.7-2.1-2.1-4.1-4.1-5.4
	c-4.7-3.1-10.9-1.8-14,2.9l-1.6,2.5c0,0-1.4,2.2-3.9,6c-1.3,1.8-3.4,3.9-5.3,6.1c-2.2,2.2-5,4.6-7.9,7c-3.4,2.4-6.3,4.8-10.4,7
	c-1.9,1.1-3.8,2.2-5.8,3.4c-2.1,1-4.2,2-6.4,3.1c-4.2,2-9,3.7-13.5,5.3c-4.8,1.4-9.3,2.8-14.2,3.6c-4.6,1.1-9.4,1.3-13.7,1.7
	c-4.4,0.1-8.6,0.1-12.4-0.5c-3.8-0.6-7.2-1.1-10.1-2.4c-1.4-0.6-2.8-1-4-1.6c-1.1-0.7-2.1-1.4-3.1-2.1l-1.3-1l-0.6-0.4
	c-0.1-0.2,0-0.5,0-0.7c0.2-1,0.5-1.8,0.9-2.6c0.4-0.7,0.8-1.3,1.2-1.8c-1.1-0.5-2.9-1.1-4-1.5c-5.2-1.8-8.1-2.9-8.1-2.9l-0.5-0.2
	c-24.1-8.4-51.5-7.4-76,5.2c-7.4,3.8-14,8.4-19.9,13.7c-25.5-22.5-62.1-30.9-96.4-18.8l-0.2,0.1c0,0-3,1-8.1,2.9c-1.2,0.5-3,1-4,1.5
	c0.4,0.5,0.8,1.1,1.2,1.8c0.4,0.7,0.7,1.6,0.9,2.6c0,0.2,0.2,0.5,0,0.7l-0.6,0.4l-1.3,1c-1,0.7-2,1.4-3.1,2.1c-1.2,0.6-2.6,1-4,1.6
	c-2.9,1.3-6.3,1.8-10.1,2.4c-3.8,0.6-8,0.6-12.4,0.5c-4.3-0.4-9.1-0.7-13.7-1.7c-4.8-0.8-9.4-2.2-14.2-3.6
	c-4.5-1.6-9.3-3.3-13.5-5.3c-2.2-1-4.3-2.1-6.4-3.1c-2-1.1-3.9-2.3-5.8-3.4c-4.1-2.2-7-4.7-10.4-7c-2.9-2.3-5.6-4.7-7.9-7
	c-2-2.2-4-4.3-5.3-6.1c-2.5-3.8-3.9-6-3.9-6L35,20.7c-1.2-1.9-3.1-3.3-5.4-4.1c-5.3-1.7-11,1.3-12.7,6.6c0,0-1,3.3-2.6,9.8
	c-0.6,3.2-1,7-1.4,11.6c-0.3,4.5-0.2,9.5,0.1,15.2c0.6,5.3,1,11.7,2.4,17.7c0.6,3.1,1.3,6.4,2,9.7c0.9,3.2,1.9,6.5,2.8,9.9
	c2,6.8,4.7,13.5,7.5,20.5c3.1,6.7,6.3,13.8,10.3,20.5c3.7,6.9,8.3,13.4,12.9,20c4.9,6.4,9.9,12.7,15.5,18.6
	c5.7,5.8,11.3,11.5,17.7,16.3c3.1,2.5,6.1,4.9,9.3,7.2c3.4,2.1,6.6,4.2,9.7,6.2c1.6,1,3.2,1.9,4.7,2.8l2.3,1.4c0.8,0.5,2,0.9,3,1.3
	c4.1,1.7,8,3.3,11.8,4.7c3.8,1.4,7.4,2.6,10.8,3.7c1.9,0.8,3,1.5,4.3,2.1c4.9,2.5,7.7,3.9,7.7,3.9c22.8,11.5,50.4,14.3,76.4,5.1
	c12.1-4.3,22.8-10.7,31.8-18.7c29,25.5,71.7,32.3,108.1,13.7c0,0,2.8-1.4,7.7-3.9c1.3-0.6,2.3-1.3,4.3-2.1c3.4-1.1,7-2.3,10.8-3.7
	c3.8-1.4,7.8-3,11.8-4.7c1-0.4,2.1-0.9,3-1.3l2.3-1.4c1.5-0.9,3.1-1.9,4.7-2.8c3.1-2,6.4-4,9.7-6.2c3.2-2.2,6.2-4.7,9.3-7.2
	c6.4-4.9,12-10.5,17.7-16.3c5.6-5.8,10.7-12.2,15.5-18.6c4.6-6.6,9.2-13.1,12.9-20c4-6.7,7.2-13.8,10.3-20.5
	c2.9-7,5.5-13.6,7.5-20.5c1-3.3,1.9-6.6,2.8-9.9c0.8-3.3,1.4-6.6,2-9.7c1.4-6.1,1.8-12.4,2.4-17.7C499.1,54.2,499.2,49.2,499,44.7z"
	/>
<path fill="#FF473E" d="M495.3,260.2c0,132.2-107.1,239.3-239.3,239.3c-132.2,0-239.3-107.1-239.3-239.3
	C16.7,128.1,123.8,20.9,256,20.9C388.1,20.9,495.3,128.1,495.3,260.2z"/>
<path fill="#D32A2A" d="M429.3,95.3c23.1,37.5,36.5,81.6,36.5,128.8C465.8,360,355.7,470,219.9,470c-47.2,0-91.4-13.3-128.8-36.5
	c42.9,40.9,101,66,164.9,66c132.2,0,239.3-107.1,239.3-239.3C495.3,196.3,470.2,138.3,429.3,95.3z"/>
<path fill="#2B3B47" d="M135.4,223.5c14.5,0,26.3-8.8,26.3,5.7v52.1c0,14.5-11.8,26.3-26.3,26.3l0,0c-14.5,0-26.3-11.8-26.3-26.3
	v-58.9c0-14.5,11.8-12.4,26.3-12.4V223.5z"/>
<path fill="#2B3B47" d="M374.1,216.7c14.5,0,26.3-8.8,26.3,5.7v58.9c0,14.5-11.8,26.3-26.3,26.3l0,0c-14.5,0-26.3-11.8-26.3-26.3
	v-45.3C347.8,221.4,359.6,216.7,374.1,216.7L374.1,216.7z"/>
<path fill="#2B3B47" d="M253.9,403.5c-17.7,0-35.5-3.9-51.6-11.8c-6-3-8.5-10.2-5.5-16.2c3-6,10.2-8.4,16.2-5.5
	c33.3,16.4,75.4,11,102.2-13.3c5-4.5,12.6-4.1,17.1,0.9c4.5,5,4.1,12.6-0.9,17.1C310.5,393.6,282.3,403.5,253.9,403.5z"/>
<path fill="#D32A2A" d="M341.9,239.2c-3.6,0-7-2.2-8.3-5.8c-1.7-4.6,0.6-9.7,5.2-11.4l69.2-25.7c4.6-1.7,9.7,0.6,11.4,5.2
	c1.7,4.6-0.6,9.7-5.2,11.4L345,238.6C344,239,342.9,239.2,341.9,239.2z"/>
<path fill="#D32A2A" d="M170,239.2c-1,0-2.1-0.2-3.1-0.6l-69.2-25.7c-4.6-1.7-7-6.8-5.2-11.4c1.7-4.6,6.8-6.9,11.4-5.2l69.2,25.7
	c4.6,1.7,7,6.8,5.2,11.4C177,237,173.7,239.2,170,239.2z"/>
</svg>
