<?xml version="1.0" encoding="iso-8859-1"?>
<!-- Generator: Adobe Illustrator 18.1.1, SVG Export Plug-In . SVG Version: 6.00 Build 0)  -->
<!DOCTYPE svg PUBLIC "-//W3C//DTD SVG 1.1//EN" "http://www.w3.org/Graphics/SVG/1.1/DTD/svg11.dtd">
<svg version="1.1" xmlns="http://www.w3.org/2000/svg" xmlns:xlink="http://www.w3.org/1999/xlink" x="0px" y="0px"
	 viewBox="0 0 512 512" enable-background="new 0 0 512 512" xml:space="preserve">
<g id="Layer_4">
	<path fill="#00B1FF" d="M475.685,234.033l0.269,0c-5.691-23.763-9.862-36.122-12.446-48.815
		c-5.411-26.579-13.728-52.483-25.716-76.814l-4.409-8.949c-11.906-24.166-36.507-39.47-63.447-39.47H142.342
		c-27.019,0-51.678,15.393-63.544,39.667l-4.763,9.743c-11.64,23.811-19.892,49.092-25.122,75.075
		c-2.589,12.863-6.808,25.386-12.584,49.294l0.785,0c-9.224,5.302-15.441,15.246-15.441,26.649v129.969
		c0,16.969,13.756,30.725,30.725,30.725h407.538c16.969,0,30.725-13.756,30.725-30.725V260.414
		C490.66,249.203,484.653,239.399,475.685,234.033z"/>
</g>
<g id="Layer_1">
</g>
</svg>
