<svg xmlns="http://www.w3.org/2000/svg" viewBox="0 0 512 512" enable-background="new 0 0 512 512"><path fill="#FF473E" d="M440.326 193.702v33.618c0 1.193-.967 2.16-2.16 2.16h-32.072v32.072c0 1.193-.967 2.16-2.16 2.16h-33.618c-1.193 0-2.16-.967-2.16-2.16V229.48h-32.072c-1.193 0-2.16-.967-2.16-2.16v-33.618c0-1.193.967-2.16 2.16-2.16h32.072V159.47c0-1.193.967-2.16 2.16-2.16h33.618c1.193 0 2.16.967 2.16 2.16v32.072h32.072c1.193 0 2.16.967 2.16 2.16zm63.007 109.79H10.39v39.617h492.943V303.49z"/></svg>