<?xml version="1.0" encoding="iso-8859-1"?>
<!-- Generator: Adobe Illustrator 18.1.1, SVG Export Plug-In . SVG Version: 6.00 Build 0)  -->
<!DOCTYPE svg PUBLIC "-//W3C//DTD SVG 1.1//EN" "http://www.w3.org/Graphics/SVG/1.1/DTD/svg11.dtd">
<svg version="1.1" xmlns="http://www.w3.org/2000/svg" xmlns:xlink="http://www.w3.org/1999/xlink" x="0px" y="0px"
	 viewBox="0 0 512 512" enable-background="new 0 0 512 512" xml:space="preserve">
<g id="Layer_5">
	<path fill="#C3CCD1" d="M480.645,300.069h-22.001V75.726c0-39.273-31.951-71.225-71.225-71.225s-71.225,31.951-71.225,71.225
		c0,0.342,0.024,0.678,0.051,1.012c-25.435,4.184-46.57,21.109-56.633,44.014c-3.649,8.306,2.324,17.638,11.396,17.638h115.075
		c9.072,0,15.044-9.332,11.396-17.637c-10.062-22.906-31.197-39.832-56.633-44.015c0.027-0.335,0.051-0.67,0.051-1.012
		c0-25.652,20.87-46.522,46.522-46.522s46.522,20.87,46.522,46.522v224.343h-44.829h-85.168H20.228
		c0,101.865,82.578,184.443,184.443,184.443h202.228c37.918,0,69.999-28.028,75.089-65.602l13.759-101.554
		C496.986,308.208,489.875,300.069,480.645,300.069z"/>
</g>
<g id="Layer_1">
</g>
</svg>
