<?xml version="1.0" encoding="utf-8"?>
<!-- Generator: Adobe Illustrator 18.0.0, SVG Export Plug-In . SVG Version: 6.00 Build 0)  -->
<!DOCTYPE svg PUBLIC "-//W3C//DTD SVG 1.1 Tiny//EN" "http://www.w3.org/Graphics/SVG/1.1/DTD/svg11-tiny.dtd">
<svg version="1.1" baseProfile="tiny" id="Layer_1" xmlns="http://www.w3.org/2000/svg" xmlns:xlink="http://www.w3.org/1999/xlink"
	 x="0px" y="0px" width="511.9px" height="511.9px" viewBox="0 0 511.9 511.9" xml:space="preserve">
<path fill="#E576CB" d="M271.5,281.8c0,0-2.2,2.9-5.5,4.9c-3.3,2.2-7.7,3.6-12.2,3.7c-4.4-0.1-8.8-1.5-12.2-3.6
	c-3.3-2-5.5-4.9-5.5-4.9c-0.5-0.7-0.5-1.6,0-2.2c0,0,2.2-2.9,5.5-4.9c3.3-2.2,7.7-3.6,12.2-3.6c4.4,0.1,8.8,1.5,12.2,3.7
	c3.3,2,5.5,4.9,5.5,4.9C272,280.3,272,281.2,271.5,281.8z"/>
<path fill="#E576CB" d="M293.4,338.1c-9.8-13.9-24.8-22-40.2-21.7c-15.2,0.3-29.4,8.2-38.9,21.7c-1.1,1.6-1.6,3.4-1.6,5.2
	c0,0.9,0.1,1.9,0.4,2.8c7.4,23.5,23,38,40.8,38s33.4-14.6,40.8-38c0.3-0.9,0.4-1.8,0.4-2.7v-0.3C295,341.4,294.5,339.6,293.4,338.1z
	"/>
</svg>
