<?xml version="1.0" encoding="utf-8"?>
<!-- Generator: Adobe Illustrator 18.0.0, SVG Export Plug-In . SVG Version: 6.00 Build 0)  -->
<!DOCTYPE svg PUBLIC "-//W3C//DTD SVG 1.1 Tiny//EN" "http://www.w3.org/Graphics/SVG/1.1/DTD/svg11-tiny.dtd">
<svg version="1.1" baseProfile="tiny" id="Layer_1" xmlns="http://www.w3.org/2000/svg" xmlns:xlink="http://www.w3.org/1999/xlink"
	 x="0px" y="0px" width="511.9px" height="511.9px" viewBox="0 0 511.9 511.9" xml:space="preserve">
<path fill="#FFD469" d="M255.9,35.3C134,35.3,35.2,134.1,35.2,256c0,3.3,0.1,6.6,0.2,9.9c-12.8,1.7-22.8,12.6-22.8,25.9
	c0,14.5,11.7,26.2,26.2,26.2h5.2c26.8,91.7,111.4,158.7,211.7,158.7c121.8,0,220.6-98.8,220.6-220.6
	C476.5,134.1,377.7,35.3,255.9,35.3z"/>
<path fill="#FFB636" d="M476.2,265.8c0.1-3.3,0.2-6.6,0.2-9.9c0-58.9-23.1-112.5-60.8-152c21.3,34.5,33.6,75.2,33.6,118.8
	c0,125.2-101.5,226.7-226.7,226.7c-43.6,0-84.2-12.3-118.8-33.6c39.6,37.7,93.1,60.8,152,60.8c100.3,0,185-67,211.7-158.7h5.2
	c14.5,0,26.2-11.7,26.2-26.2C499,278.4,489.1,267.5,476.2,265.8z"/>
<path fill="#F2A74E" d="M402.6,152.4c-2.1,0-4.2-0.9-5.7-2.6c-13.2-14.9-31.5-19.1-47.9-11c-3.8,1.9-8.3,0.3-10.2-3.4
	c-1.9-3.8-0.3-8.3,3.4-10.2c22.8-11.3,48.1-5.7,66,14.5c2.8,3.1,2.5,8-0.7,10.7C406.2,151.8,404.4,152.4,402.6,152.4z"/>
<path fill="#FF473E" d="M326.2,343.2c-5.6-3.4-17.5-14.3-17.5-14.3s-0.7-0.6-1.8-1.4c-5.7-4.4-10.9-9.5-17.4-12.8
	c-7-3.6-14.9-4.2-22.4-1.7c-3.6,1.2-7.1,3-10.3,5.1c-1,0.7-2.3,0.7-3.3,0.2c-3.1-1.6-9-5-10.1-5.3c-14.9-5-24.3,4.8-34.7,13.5
	c-9.5,6.7-19.2,14.6-22.2,16.6c-5.1,3.5-6.3,10.4-2.7,15.5c9.9,13.7,32.3,36.7,71.7,37v0c0,0,0.5,0,0.7,0l0.1,0l0.1,0
	c0.2,0,0.7,0,0.7,0v0c39.4-0.3,61.8-23.3,71.7-37C332.5,353.6,331.5,346.4,326.2,343.2z"/>
<path fill="#F2A74E" d="M116.9,152.4c-1.8,0-3.6-0.6-5-1.9c-3.1-2.8-3.4-7.6-0.7-10.7c18-20.3,43.3-25.8,66-14.5
	c3.8,1.9,5.3,6.4,3.4,10.2c-1.9,3.8-6.4,5.3-10.2,3.4c-16.3-8.1-34.7-3.9-47.9,11C121.1,151.5,119,152.4,116.9,152.4z"/>
<path fill="#2B3B47" d="M281.2,352.8c0,0,0,0.3-0.3,1.1c-0.3,0.6-0.8,1.4-1.4,2.2c-0.5,0.4-1,0.9-1.7,1.5c-1.3,0.9-2.8,2-4.7,2.9
	c-1.8,1-4,1.7-6.3,2.5c-2.3,0.7-4.9,1.3-7.6,1.4l-2.1,0.1l-0.5,0l-0.5,0l-0.2,0l-1-0.1c-1.3-0.1-2.7-0.2-4.1-0.4
	c-3-0.6-6.2-1.5-9.2-2.8c-3-1.6-6-2.6-8.8-5.8c-0.4-0.6-0.7-0.6-1-1.6c-0.2-0.4-0.3-0.9-0.3-1.3l0-0.2l0-0.1c0,0.1,0.2-1.6,0.1-0.9
	l0-0.1c0-0.6,1.6-2,1.7-1.8c1.4-0.5,1.7-0.3,2.3-0.4l1.4,0l4.7,0.4c2.9,0.3,5.8,0.6,8.6,0.9c1.3,0.2,2.6,0.3,3.9,0.5
	c1.3,0.2,2.2,0.3,2.6,0.2c1.9-0.2,4.4-0.6,6.6-0.8c4.5-0.4,8.3-0.8,11-1c1.4-0.1,2.5-0.3,3.6-0.2c0.6,0.1,1.2,0,2.4,0.9
	c1,0.8,1.1,2.4,1,2.2L281.2,352.8z M275.9,352.2c-0.1-0.2,0,1.2,0.8,1.8c0.9,0.7,0.9,0.4,0.9,0.5c-0.3,0-1.2,0-2.4,0.3
	c-2.4,0.5-5.8,1.9-10.1,3.4c-2.2,0.8-4.3,1.5-7.5,2c-2.1,0.3-3.9-0.2-5.2-0.5c-1.4-0.3-2.7-0.7-4.1-1.2c-2.6-0.9-5.3-1.9-8.1-2.8
	c-1.3-0.5-2.7-0.9-4-1.1c-0.3-0.1-0.6-0.1-0.9-0.1c-0.2-0.1-0.6,0.1,0.1-0.1c0,0,0.3-0.1,0.7-0.5c0.3-0.3,0.6-0.9,0.6-1l0,0.1
	c-0.1,0.7,0.1-1,0.1-0.8l0,0l0,0c0-0.1,0-0.2,0-0.3c-0.2-0.2,0.2,0.1,0.2,0.2c1.1,1.3,4,2.3,6.5,2.6c2.7,0.3,5.2,0.2,7.6,0.2
	c1.4-0.1,2.8-0.1,4.1-0.1c1.2,0,2.4,0,3.5,0c2.3,0,4.6,0,6.6,0.1c2-0.1,3.9-0.2,5.4-0.6c1.6-0.2,2.8-0.8,3.7-1.3
	c0.4-0.3,0.7-0.5,1-0.7c0,0,0,0.1,0.1,0.1c0.2-0.4,0.3-0.9,0.3-0.9L275.9,352.2z"/>
<path fill="#2B3B47" d="M366.4,184c13.3,0,24.1,10.8,24.1,24.1v54.1c0,13.3-10.8,3-24.1,3l0,0c-13.3,0-24.1,10.3-24.1-3v-54.1
	C342.3,194.8,353.1,184,366.4,184L366.4,184z"/>
<path fill="#F2A74E" d="M344.5,275.5c-2.8,0-5.5-1.5-6.8-4.2c-1.9-3.8-0.3-8.3,3.4-10.2c16.1-8,34.5-8.2,50.5-0.7
	c3.8,1.8,5.4,6.3,3.6,10.1c-1.8,3.8-6.3,5.4-10.1,3.6c-11.7-5.6-25.3-5.4-37.2,0.5C346.8,275.2,345.6,275.5,344.5,275.5z"/>
<path fill="#2B3B47" d="M147.8,184c13.3,0,24.1,10.8,24.1,24.1v54.1c0,13.3-10.8,3-24.1,3l0,0c-13.3,0-24.1,10.3-24.1-3v-54.1
	C123.7,194.8,134.5,184,147.8,184L147.8,184z"/>
<path fill="#F2A74E" d="M125.9,275.5c-2.8,0-5.5-1.5-6.8-4.2c-1.9-3.8-0.3-8.3,3.4-10.2c16.1-8,34.5-8.2,50.5-0.7
	c3.8,1.8,5.4,6.3,3.6,10.1c-1.8,3.8-6.3,5.4-10.1,3.6c-11.7-5.6-25.3-5.4-37.2,0.5C128.2,275.2,127.1,275.5,125.9,275.5z"/>
</svg>
