<?xml version="1.0" encoding="iso-8859-1"?>
<!-- Generator: Adobe Illustrator 18.1.0, SVG Export Plug-In . SVG Version: 6.00 Build 0)  -->
<!DOCTYPE svg PUBLIC "-//W3C//DTD SVG 1.1//EN" "http://www.w3.org/Graphics/SVG/1.1/DTD/svg11.dtd">
<svg version="1.1" xmlns="http://www.w3.org/2000/svg" xmlns:xlink="http://www.w3.org/1999/xlink" x="0px" y="0px"
	 viewBox="0 0 512 512" enable-background="new 0 0 512 512" xml:space="preserve">
<g id="Layer_2">
	<path fill="#D7F4F7" d="M501.617,489.617c0,6.6-5.4,12-12,12H22.383c-6.6,0-12-5.4-12-12V22.383c0-6.6,5.4-12,12-12h467.234
		c6.6,0,12,5.4,12,12V489.617z"/>
</g>
<g id="Layer_3">
	<path fill="#00BEEA" d="M391.239,349.185c-12.264-0.064-24.613,7.329-37.001,7.264c-19.632-0.104-39.361-7.667-58.999-7.771
		c-100.261-0.529-208.125-1.037-284.856-1.305v142.244c0,6.6,5.4,12,12,12h467.234c6.6,0,12-5.4,12-12V349.773
		C467.954,349.594,431.012,349.393,391.239,349.185z"/>
</g>
<g id="Layer_4">
	<path fill="#BFBCAF" d="M143.539,251.458l74.734,39.3l-6.648-13.114l-8.435,56.47c-0.676,4.523,2.443,8.737,6.966,9.413
		c4.101,0.613,7.949-1.895,9.134-5.739l0.374-1.213l17.077-55.18c1.508-4.874-0.739-10.013-5.1-12.302l-1.549-0.812l-74.734-39.3
		c-6.207-3.264-13.884-0.878-17.148,5.328S137.332,248.194,143.539,251.458z"/>
</g>
<g id="Layer_5">
	<path fill="#0074A8" d="M203.739,289.884l-62.988-33.124c-17.75-8.149-4.011-30.937,0.785-40.058
		c1.891-3.595,4.825-6.419,8.484-8.165c5.299-2.528,2.935,12.41,8.128,15.141l74.726,39.296l1.553,0.814
		c6.995,3.672,10.376,11.822,8.038,19.378"/>
</g>
<g id="Layer_6">
	<path fill="#FF473E" d="M204.466,150.816c-28.473-18.422-64.127,29.682-71.17,71.954c-2.802,16.817,34.869,21.349,55.891,23.155
		C208.144,247.554,225.192,164.225,204.466,150.816z"/>
</g>
<g id="Layer_7">
	<path fill="#FFD3B6" d="M253.89,126.301c-1.453-4.082-3.384-13.627-3.217-13.734l-0.001,0.002l0.556-4.401
		c1.98-18.623-10.605-29.67-29.227-31.65c-18.629-1.981-35.332,11.514-37.312,30.137c0,0-2.281,21.479,7.397,35.964
		c-1.584,3.64-0.257,7.974,3.245,10.054l7.213,4.284c3.421,2.032,7.735,1.21,10.206-1.748c0.289,0.038,0.575,0.08,0.87,0.111
		c14.85,1.579,27.523,0.67,32.137-10.363c0.334-0.798-0.153-1.728-0.991-1.942c-1.49-0.381-3.649-1.014-4.662-1.706
		c-0.902-0.614-1.133-1.841-0.52-2.74c0.605-0.897,1.827-1.134,2.74-0.519c1.206,0.821,4.973,1.415,5.112,0.106l0.901-7.131
		C252.7,131.351,255.459,130.709,253.89,126.301z"/>
</g>
<g id="Layer_8">
	<path fill="#2B3B47" d="M237.882,114.313c0.276-1.424,1.585-2.428,3.051-2.272c1.469,0.156,2.538,1.413,2.511,2.863l0.034,0.004
		l-0.419,3.944l-0.012-0.001c-0.001,0.006-0.001,0.008-0.001,0.008c-0.165,1.552-1.555,2.675-3.104,2.51s-2.672-1.555-2.507-3.104
		c0,0,0.006-0.004,0.007-0.01l-0.006-0.001l0.419-3.944L237.882,114.313z"/>
</g>
<g id="Layer_9">
	<path fill="#68442A" d="M216.729,70.153c13.67,1.454,32.373,6.587,32.923,7.147c0.554,0.564-1.735,4.278-1.195,4.915
		c1.126,1.328,2.226,2.819,3.325,4.498c1.015,1.552-0.857,2.149-6.772,1.755c-1.539-0.103-0.178,3.853-1.958,3.691
		c-0.972-0.088-17.587-9.667-20.521,17.926c-0.234,2.204-1.501,3.588-3.671,3.358c-1.598-0.17-7.859-0.478-8.613,6.617
		c-0.86,8.086-23.078,13.304-23.682,12.503c-4.059-5.393-7.257-18.556-5.914-31.181S192.97,67.627,216.729,70.153z"/>
</g>
<g id="Layer_10">
	<path fill="#E5AB83" d="M246.234,106.519c0,0-0.155-0.034-0.425-0.094c-0.266-0.056-0.641-0.128-1.093-0.201
		c-0.452-0.074-0.981-0.143-1.552-0.2c-0.574-0.049-1.186-0.093-1.812-0.089c-0.621-0.008-1.256,0.035-1.857,0.119
		c-0.297,0.027-0.596,0.109-0.872,0.163c-0.276,0.051-0.546,0.163-0.788,0.235c-0.243,0.068-0.467,0.205-0.662,0.29
		c-0.197,0.085-0.362,0.195-0.496,0.293c-0.266,0.191-0.417,0.299-0.417,0.299c-0.441,0.316-0.541,0.93-0.225,1.37
		c0.294,0.41,0.845,0.526,1.275,0.286l0.196-0.109c0,0,0.09-0.05,0.247-0.137c0.073-0.048,0.166-0.104,0.301-0.143
		c0.134-0.039,0.253-0.117,0.435-0.147c0.178-0.032,0.349-0.098,0.566-0.116c0.215-0.02,0.426-0.067,0.672-0.066
		c0.476-0.025,1.001-0.02,1.533,0.033c0.53,0.04,1.068,0.124,1.569,0.21c0.502,0.093,0.97,0.194,1.368,0.294
		c0.398,0.098,0.727,0.191,0.951,0.258c0.219,0.068,0.344,0.107,0.344,0.107l0.034,0.011c0.728,0.227,1.503-0.179,1.73-0.908
		c0.227-0.728-0.179-1.503-0.908-1.73C246.309,106.537,246.27,106.527,246.234,106.519z"/>
</g>
<g id="Layer_11">
	<path fill="#EDC0A2" d="M216.045,129.002c0.861,0.092,1.632-0.532,1.724-1.392s-0.532-1.632-1.392-1.724
		c-2.82-0.3-4.87-2.839-4.57-5.661c0.3-2.822,2.838-4.874,5.658-4.574c0.861,0.092,1.632-0.532,1.724-1.392
		c0.091-0.86-0.532-1.632-1.392-1.724c-4.538-0.483-8.624,2.819-9.106,7.359S211.507,128.52,216.045,129.002z"/>
</g>
<g id="Layer_12">
	<path fill="#AF773F" d="M461.868,280.385c-53.565,59.256-124.917,95.421-203.266,95.421c-189.626,0-176.513-38.35-203.266-95.421
		H461.868z"/>
</g>
<g id="Layer_13">
	<path fill="#D19B61" d="M452.977,250.878H61.023c-11.503,0-20.828,9.325-20.828,20.828v2.809c0,11.503,9.325,20.828,20.828,20.828
		h391.954c11.503,0,20.828-9.325,20.828-20.828v-2.809C473.805,260.203,464.48,250.878,452.977,250.878z"/>
</g>
<g id="Layer_14">
	<path fill="#FFB636" d="M316.477,188.342c-3.818-3.683-9.899-3.572-13.584,0.247l-95.305,98.84
		c-11.114-6.102-25.354-4.302-34.578,5.263l-41.485,43.024c-11.04,11.45-10.709,29.682,0.741,40.723l2.943,2.838
		c11.45,11.04,29.682,10.709,40.723-0.741l41.485-43.023c9.223-9.565,10.503-23.862,4.001-34.746l95.306-98.839
		C320.407,198.106,320.296,192.024,316.477,188.342z"/>
</g>
<g id="Layer_15">
	<path fill="#FC6868" d="M170.247,176.37c0.177,0.227,0.476,0.601,0.4,0.532c0.005,0.014,0.012,0.026,0.022,0.037l0.01,0.011
		l0.054,0.081l0.108,0.162l0.44,0.658l0.469,0.724c0.633,0.982,1.284,2.025,1.934,3.072c1.302,2.104,2.607,4.26,3.907,6.421
		c2.601,4.327,5.188,8.702,7.766,13.085l2.882,4.406l7.654,13.22l0,0l4.13,6.924c4.078,10.277,76.478,0.281,76.478,0.281
		c2.963-2.049,3.704-6.113,1.655-9.076c-1.862-2.692-5.386-3.548-8.237-2.147l-54.836-6.881l0,0l-7.552-13.393l-2.783-4.586
		c-2.552-4.454-5.114-8.903-7.726-13.363c-1.308-2.232-2.622-4.461-3.983-6.717c-0.684-1.131-1.373-2.263-2.11-3.437l-0.563-0.89
		l-0.613-0.942l-0.361-0.542l-0.526-0.748c-0.43-0.601-0.536-0.721-0.747-1.001c-3.786-5.021-10.925-6.021-15.945-2.236
		c-5.021,3.786-6.021,10.925-2.236,15.945c0.027,0.036,0.055,0.072,0.083,0.108L170.247,176.37z"/>
</g>
<g id="Layer_16">
	<path fill="#FFD3B6" d="M302.799,220.268l-0.078-0.94c-0.173-2.099-0.42-4.186-0.649-6.276c-0.439-4.004-3.902-6.934-7.865-6.785
		c-0.174-0.223-0.359-0.44-0.56-0.648c-2.722-2.805-7.044-3.12-10.125-0.903c-0.805,0.578-1.603,1.165-2.388,1.767
		c-0.79,0.596-1.575,1.199-2.348,1.814c-0.775,0.613-1.561,1.215-2.323,1.845l-2.301,1.871c-3.49,2.837-4.018,7.967-1.181,11.456
		c0.083,0.102,0.179,0.185,0.266,0.281c0.031,0.639,0.164,1.283,0.424,1.908c0.889,2.145,2.939,3.46,5.119,3.524
		c1.508,0.042,3.003,0.015,4.493-0.043c0.747-0.018,1.489-0.062,2.23-0.108c0.741-0.048,1.486-0.077,2.224-0.14
		c2.959-0.222,5.902-0.535,8.831-0.921C300.384,227.47,303.106,224.062,302.799,220.268z"/>
</g>
<g id="Layer_17">
	<path fill="#00A6C1" d="M461.328,360.805c0,5.496-4.455,9.951-9.951,9.951c-18.504,0-36.136-7.857-48.609-21.123
		c-12.472,13.266-30.104,21.123-48.609,21.123c-18.738,0-36.583-8.055-49.08-21.626c-12.497,13.571-30.342,21.626-49.08,21.626
		c-5.496,0-9.951-4.455-9.951-9.951s4.455-9.951,9.951-9.951c16.56,0,31.541-8.495,40.074-22.725
		c1.95-3.251,5.465-4.986,9.006-4.821c3.541-0.165,7.055,1.57,9.005,4.821c8.533,14.229,23.515,22.725,40.074,22.725
		s31.541-8.495,40.074-22.725c0.015-0.025,0.033-0.048,0.049-0.073c0.155-0.255,0.321-0.504,0.5-0.745
		c0.057-0.076,0.119-0.146,0.178-0.22c0.142-0.181,0.285-0.361,0.441-0.532c0.101-0.112,0.21-0.213,0.315-0.319
		c0.122-0.123,0.241-0.248,0.37-0.365c0.153-0.139,0.314-0.265,0.474-0.393c0.093-0.075,0.182-0.153,0.278-0.225
		c0.215-0.16,0.439-0.305,0.665-0.446c0.05-0.031,0.095-0.067,0.146-0.098c0.005-0.003,0.01-0.005,0.015-0.008
		c0.261-0.156,0.529-0.297,0.802-0.427c0.601-0.289,1.219-0.512,1.846-0.671c0.014-0.003,0.027-0.009,0.04-0.012
		c0.264-0.066,0.529-0.115,0.795-0.159c0.051-0.008,0.102-0.022,0.153-0.029c0.226-0.034,0.452-0.052,0.678-0.069
		c0.098-0.008,0.195-0.022,0.293-0.027c0.179-0.009,0.358-0.004,0.537-0.003c0.148,0,0.295-0.005,0.443,0.003
		c0.13,0.006,0.259,0.024,0.389,0.036c0.195,0.017,0.389,0.031,0.583,0.06c0.088,0.013,0.174,0.035,0.261,0.05
		c0.23,0.04,0.46,0.081,0.688,0.138c0.07,0.017,0.138,0.043,0.207,0.061c0.238,0.065,0.476,0.131,0.712,0.215
		c0.619,0.219,1.216,0.501,1.784,0.84c0.003,0.002,0.006,0.003,0.01,0.005c0.033,0.02,0.061,0.043,0.094,0.063
		c0.246,0.151,0.488,0.31,0.721,0.483c0.086,0.064,0.165,0.135,0.249,0.201c0.17,0.135,0.341,0.269,0.503,0.416
		c0.124,0.112,0.237,0.232,0.355,0.35c0.11,0.111,0.224,0.217,0.329,0.334c0.154,0.169,0.294,0.347,0.434,0.525
		c0.06,0.077,0.125,0.148,0.184,0.227c0.178,0.24,0.342,0.488,0.497,0.742c0.016,0.026,0.035,0.049,0.051,0.076
		c8.534,14.229,23.516,22.725,40.075,22.725C456.873,350.854,461.328,355.309,461.328,360.805z M292.766,397.952
		c-4.715-2.826-10.826-1.296-13.652,3.416c-8.533,14.229-23.515,22.725-40.075,22.725s-31.541-8.495-40.074-22.725
		c-0.016-0.026-0.035-0.05-0.051-0.076c-0.155-0.253-0.319-0.501-0.497-0.741c-0.06-0.081-0.126-0.154-0.188-0.233
		c-0.139-0.176-0.278-0.352-0.43-0.519c-0.107-0.118-0.222-0.226-0.334-0.339c-0.116-0.116-0.227-0.234-0.35-0.345
		c-0.163-0.148-0.334-0.282-0.505-0.418c-0.083-0.066-0.161-0.136-0.247-0.2c-0.233-0.173-0.474-0.331-0.719-0.482
		c-0.033-0.02-0.063-0.044-0.096-0.064c-0.003-0.002-0.007-0.003-0.01-0.005c-0.286-0.171-0.58-0.328-0.88-0.469
		c-0.003-0.001-0.006-0.003-0.009-0.005c-0.291-0.136-0.588-0.258-0.89-0.365c-0.257-0.091-0.516-0.165-0.777-0.234
		c-0.048-0.013-0.094-0.03-0.142-0.042c-0.241-0.06-0.484-0.104-0.727-0.145c-0.074-0.013-0.147-0.031-0.222-0.042
		c-0.206-0.03-0.412-0.046-0.618-0.063c-0.118-0.01-0.235-0.026-0.354-0.032c-0.158-0.008-0.315-0.003-0.473-0.003
		c-0.17,0-0.339-0.005-0.509,0.003c-0.105,0.005-0.208,0.02-0.313,0.029c-0.22,0.018-0.44,0.035-0.659,0.067
		c-0.056,0.008-0.112,0.023-0.168,0.032c-0.261,0.043-0.522,0.091-0.781,0.156c-0.018,0.004-0.034,0.011-0.052,0.015
		c-0.496,0.127-0.985,0.299-1.466,0.507c-0.094,0.04-0.192,0.073-0.285,0.117c-0.023,0.011-0.044,0.024-0.067,0.035
		c-0.28,0.133-0.555,0.279-0.823,0.438c-0.004,0.003-0.009,0.004-0.013,0.007c-0.043,0.026-0.081,0.057-0.124,0.083
		c-0.234,0.145-0.466,0.296-0.688,0.462c-0.092,0.068-0.176,0.143-0.264,0.214c-0.165,0.131-0.331,0.261-0.488,0.404
		c-0.127,0.115-0.244,0.239-0.364,0.359c-0.107,0.108-0.218,0.211-0.32,0.324c-0.156,0.172-0.299,0.352-0.441,0.532
		c-0.058,0.074-0.121,0.143-0.177,0.22c-0.181,0.243-0.347,0.495-0.504,0.752c-0.014,0.023-0.031,0.043-0.045,0.066
		c-8.534,14.229-23.515,22.725-40.075,22.725s-31.541-8.495-40.075-22.725c-0.014-0.023-0.031-0.044-0.045-0.067
		c-0.156-0.257-0.323-0.508-0.503-0.75c-0.06-0.08-0.125-0.153-0.187-0.231c-0.139-0.176-0.278-0.352-0.43-0.519
		c-0.11-0.121-0.227-0.232-0.342-0.346c-0.113-0.113-0.222-0.229-0.341-0.336c-0.169-0.154-0.347-0.295-0.526-0.435
		c-0.076-0.06-0.147-0.124-0.225-0.182c-0.246-0.183-0.5-0.352-0.76-0.51c-0.02-0.012-0.038-0.027-0.058-0.039
		c-0.002-0.001-0.004-0.002-0.006-0.003c-0.57-0.341-1.17-0.624-1.791-0.844c-0.205-0.073-0.414-0.129-0.621-0.187
		c-0.1-0.028-0.197-0.063-0.298-0.088c-0.212-0.053-0.426-0.089-0.639-0.128c-0.103-0.019-0.206-0.044-0.31-0.059
		c-0.184-0.027-0.369-0.04-0.554-0.057c-0.139-0.013-0.277-0.031-0.417-0.038c-0.141-0.007-0.282-0.002-0.424-0.002
		c-0.185-0.001-0.37-0.006-0.556,0.003c-0.093,0.005-0.184,0.018-0.277,0.025c-0.231,0.018-0.462,0.036-0.693,0.071
		c-0.048,0.007-0.096,0.02-0.144,0.028c-0.269,0.044-0.537,0.094-0.803,0.161c-0.01,0.003-0.02,0.006-0.03,0.009
		c-0.509,0.129-1.01,0.306-1.503,0.52c-0.089,0.038-0.18,0.069-0.268,0.11c-0.022,0.011-0.044,0.024-0.067,0.035
		c-0.28,0.133-0.555,0.279-0.823,0.439c-0.004,0.003-0.009,0.004-0.013,0.007c-0.044,0.026-0.082,0.057-0.125,0.084
		c-0.234,0.145-0.464,0.295-0.686,0.46c-0.093,0.069-0.179,0.145-0.269,0.217c-0.163,0.13-0.328,0.259-0.483,0.4
		c-0.128,0.116-0.245,0.24-0.366,0.361c-0.107,0.107-0.217,0.21-0.319,0.323c-0.156,0.171-0.298,0.351-0.44,0.531
		c-0.059,0.075-0.122,0.144-0.178,0.221c-0.179,0.24-0.343,0.489-0.498,0.743c-0.016,0.026-0.035,0.049-0.05,0.075
		c-8.533,14.229-23.514,22.725-40.074,22.725c-13.254,0-25.486-5.453-34.221-14.921v25.286c10.212,6.122,22.027,9.537,34.221,9.537
		c18.504,0,36.136-7.857,48.609-21.123c12.473,13.266,30.105,21.123,48.609,21.123s36.136-7.857,48.609-21.123
		c12.472,13.266,30.104,21.123,48.609,21.123c23.265,0,45.162-12.411,57.143-32.391
		C299.009,406.892,297.479,400.778,292.766,397.952z"/>
</g>
</svg>
