<?xml version="1.0" encoding="utf-8"?>
<!-- Generator: Adobe Illustrator 18.0.0, SVG Export Plug-In . SVG Version: 6.00 Build 0)  -->
<!DOCTYPE svg PUBLIC "-//W3C//DTD SVG 1.1 Tiny//EN" "http://www.w3.org/Graphics/SVG/1.1/DTD/svg11-tiny.dtd">
<svg version="1.1" baseProfile="tiny" id="Layer_1" xmlns="http://www.w3.org/2000/svg" xmlns:xlink="http://www.w3.org/1999/xlink"
	 x="0px" y="0px" width="513px" height="511.9px" viewBox="0 0 513 511.9" xml:space="preserve">
<path fill="#6EBCF0" d="M495.6,361.6l-103.6-79.8c-2.4-2.9-5-5.8-7.7-8.5c-35.9-35.9-87.8-43.1-125.9-12.6
	c-38-30.5-90-23.3-125.9,12.6c-1.9,1.9-3.8,3.9-5.6,6l-106,81.7C1.3,375.9-2.3,404,12.7,423.5c8.8,11.4,22,17.4,35.4,17.4
	c9.5,0,19.1-3,27.2-9.3l43.7-33.6c2.4,3.1,5,6,7.9,8.9l30,21.4c16.8,16.8,36.6,23.9,56.6,23.2h89.6c1.7,0.1,3.5,0.1,5.2,0h2.5v-0.1
	c17.3-1.2,34.2-8.5,48.8-23.1l30-21.4c2.7-2.7,5.2-5.5,7.4-8.4l43.9,33.8c8.1,6.3,17.7,9.3,27.2,9.3c13.4,0,26.6-6,35.4-17.4
	C518.8,404.7,515.1,376.6,495.6,361.6z"/>
</svg>
