<?xml version="1.0" encoding="utf-8"?>
<!-- Generator: Adobe Illustrator 18.0.0, SVG Export Plug-In . SVG Version: 6.00 Build 0)  -->
<!DOCTYPE svg PUBLIC "-//W3C//DTD SVG 1.1 Tiny//EN" "http://www.w3.org/Graphics/SVG/1.1/DTD/svg11-tiny.dtd">
<svg version="1.1" baseProfile="tiny" id="Layer_1" xmlns="http://www.w3.org/2000/svg" xmlns:xlink="http://www.w3.org/1999/xlink"
	 x="0px" y="0px" width="511.9px" height="511.9px" viewBox="0 0 511.9 511.9" xml:space="preserve">
<path fill="#009E83" d="M408.9,157.4c-2.1,0-4.2-0.9-5.8-2.6c-13.2-15-31.6-19.2-48-11c-3.8,1.9-8.4,0.3-10.3-3.5
	c-1.9-3.8-0.3-8.4,3.5-10.3c22.9-11.4,48.3-5.8,66.4,14.6c2.8,3.2,2.5,8-0.7,10.9C412.6,156.7,410.7,157.4,408.9,157.4z"/>
<path fill="#009E83" d="M108.3,157.4c-1.8,0-3.6-0.6-5.1-1.9c-3.2-2.8-3.5-7.7-0.7-10.9c18.1-20.4,43.5-26,66.4-14.6
	c3.8,1.9,5.4,6.5,3.5,10.3c-1.9,3.8-6.5,5.4-10.3,3.5c-16.4-8.1-34.8-3.9-48,11C112.5,156.5,110.4,157.4,108.3,157.4z"/>
<path fill="#009E83" d="M254.9,403.6c-8.5,0-16.9-1.9-24.8-5.6c-4.1-1.9-5.8-6.8-3.9-10.9c1.9-4.1,6.8-5.8,10.9-3.9
	c11.7,5.5,25.1,5.3,36.9-0.5c4-2,8.9-0.4,11,3.7c2,4,0.4,8.9-3.7,11C272.9,401.5,263.9,403.6,254.9,403.6z"/>
</svg>
