<?xml version="1.0" encoding="utf-8"?>
<!-- Generator: Adobe Illustrator 18.0.0, SVG Export Plug-In . SVG Version: 6.00 Build 0)  -->
<!DOCTYPE svg PUBLIC "-//W3C//DTD SVG 1.1 Tiny//EN" "http://www.w3.org/Graphics/SVG/1.1/DTD/svg11-tiny.dtd">
<svg version="1.1" baseProfile="tiny" id="Layer_1" xmlns="http://www.w3.org/2000/svg" xmlns:xlink="http://www.w3.org/1999/xlink"
	 x="0px" y="0px" width="511.9px" height="511.9px" viewBox="0 0 511.9 511.9" xml:space="preserve">
<path fill="#FFD469" d="M255.9,35.4C134,35.4,35.3,134.2,35.3,256c0,3.3,0.1,6.6,0.2,9.9c-12.8,1.7-22.8,12.6-22.8,25.9
	c0,14.5,11.7,26.2,26.2,26.2h5.2c26.8,91.7,111.4,158.6,211.7,158.6c121.8,0,220.6-98.7,220.6-220.6
	C476.4,134.2,377.7,35.4,255.9,35.4z"/>
<path fill="#FFB636" d="M476.2,265.8c0.1-3.3,0.2-6.6,0.2-9.9c0-58.9-23.1-112.4-60.8-152c21.3,34.5,33.6,75.2,33.6,118.7
	c0,125.1-101.5,226.6-226.6,226.6c-43.5,0-84.2-12.3-118.7-33.6c39.6,37.7,93.1,60.8,152,60.8c100.3,0,184.9-67,211.7-158.6h5.2
	c14.5,0,26.2-11.7,26.2-26.2C499,278.4,489,267.5,476.2,265.8z"/>
<path fill="#F2A74E" d="M137.1,193.3c-1.8,0-3.6-0.6-5-1.9c-3.1-2.8-3.4-7.6-0.6-10.7c8.7-9.8,21.2-15.4,34.3-15.4c0,0,0,0,0,0
	c13.1,0,25.6,5.6,34.3,15.4c2.8,3.1,2.5,8-0.7,10.7c-3.1,2.8-8,2.5-10.7-0.7c-5.8-6.5-14.1-10.3-22.9-10.3c0,0,0,0,0,0
	c-8.8,0-17.1,3.7-22.9,10.3C141.3,192.4,139.2,193.3,137.1,193.3z"/>
<path fill="#F2A74E" d="M165,282.4c-8.4,0-16.8-1.8-24.6-5.5c-3.8-1.8-5.4-6.3-3.6-10.1s6.3-5.4,10.1-3.6
	c11.8,5.6,25.4,5.4,37.4-0.5c3.8-1.9,8.3-0.3,10.2,3.4c1.9,3.8,0.3,8.3-3.4,10.2C182.8,280.3,173.9,282.4,165,282.4z"/>
<path fill="#2B3B47" d="M189.5,247.1c-2.8,0-5.6-1.2-7.6-3.4c-4.1-4.6-10-7.2-16.2-7.2c0,0,0,0,0,0c-6.2,0-12.1,2.6-16.2,7.2
	c-3.7,4.2-10.2,4.6-14.4,0.9c-4.2-3.7-4.6-10.2-0.9-14.4c7.9-9,19.4-14.1,31.5-14.1c0,0,0,0,0,0c12.1,0,23.5,5.1,31.5,14.1
	c3.7,4.2,3.4,10.7-0.9,14.4C194.4,246.2,191.9,247.1,189.5,247.1z"/>
<path fill="#2B3B47" d="M188.7,244.4c-3.9,0-7.6-2.3-9.3-6.1c-2.8-6.3-7.9-10-13.7-10c-5.8,0-10.9,3.7-13.7,10
	c-2.3,5.2-8.3,7.5-13.5,5.2c-5.2-2.3-7.5-8.3-5.2-13.5c6.1-13.6,18.4-22.1,32.3-22.1S192,216.4,198,230c2.3,5.2,0,11.2-5.2,13.5
	C191.5,244.1,190.1,244.4,188.7,244.4z"/>
<path fill="#F2A74E" d="M415.3,159.6c-2.1,0-4.2-0.9-5.7-2.6c-5.8-6.5-14.1-10.3-22.9-10.3c0,0,0,0,0,0c-8.8,0-17.1,3.7-22.9,10.3
	c-2.8,3.1-7.6,3.4-10.7,0.6c-3.1-2.8-3.4-7.6-0.6-10.7c8.7-9.8,21.2-15.4,34.3-15.4c0,0,0,0,0,0c13.1,0,25.6,5.6,34.3,15.4
	c2.8,3.1,2.5,8-0.6,10.7C418.9,159,417.1,159.6,415.3,159.6z"/>
<path fill="#2B3B47" d="M386.7,181.9c13.4,0,24.2,10.8,24.2,24.2v54.3c0,13.4-10.8,8.1-24.2,8.1l0,0c-13.4,0-24.2,5.3-24.2-8.1
	v-54.3C362.4,192.8,373.3,181.9,386.7,181.9L386.7,181.9z"/>
<path fill="#F2A74E" d="M410.5,275.2h-47.7c-4.2,0-7.6-3.4-7.6-7.6s3.4-7.6,7.6-7.6h47.7c4.2,0,7.6,3.4,7.6,7.6
	S414.7,275.2,410.5,275.2z"/>
<path fill="#FF7DDA" d="M481.8,340.5c-7.2-7.2-18.9-7.3-26.2,0c-0.7,0.7-1.3,1.5-1.9,2.3c-0.6-0.8-1.2-1.6-1.9-2.3
	c-8-8.1-21.6-7.2-28.4,2.7c-3.3,4.8-4,11.3-1.9,16.8c1.6,4.2,4.2,7.1,7.2,9.1l20.3,16.4c2.9,2.3,7,2.3,9.9,0l23-18.7
	C489,359.4,489,347.7,481.8,340.5z"/>
<path fill="#FF473E" d="M494.9,402.5c-5.6-5.7-14.8-5.7-20.5,0c-0.6,0.6-1,1.2-1.5,1.8c-0.5-0.6-0.9-1.3-1.5-1.8
	c-5.6-5.7-14.8-5.7-20.5,0c-5.7,5.6-5.7,14.8,0,20.5c0.7,0.7,1.5,1.4,2.3,1.9l14.7,11.9c2.9,2.4,7.1,2.4,10,0l16.8-13.7
	C500.5,417.4,500.5,408.2,494.9,402.5z"/>
<path fill="#FF473E" d="M353.2,349.9c-5.6-3.4-17.5-14.3-17.5-14.3s-0.7-0.6-1.8-1.4c-5.7-4.4-10.9-9.5-17.4-12.8
	c-7-3.6-14.9-4.2-22.4-1.7c-3.6,1.2-7.1,3-10.3,5.1c-1,0.7-2.3,0.7-3.3,0.2c-3.1-1.6-9-5-10.1-5.3c-14.9-5-24.2,4.8-34.6,13.5
	c-9.5,6.7-19.2,14.6-22.2,16.6c-5.1,3.5-6.3,10.4-2.7,15.5c9.9,13.7,32.3,36.7,71.7,37v0c0,0,0.5,0,0.7,0l0.1,0l0.1,0
	c0.2,0,0.7,0,0.7,0v0c39.4-0.3,61.8-23.3,71.7-37C359.5,360.4,358.4,353.2,353.2,349.9z"/>
<path fill="#2B3B47" d="M307.3,356.7c-1.2-0.9-1.7-0.8-2.4-0.9c-1.1-0.1-2.2,0.1-3.6,0.2c-2.6,0.2-6.4,0.6-10.9,1
	c-2.1,0.1-4.7,0.6-6.6,0.8c-0.4,0-1.3,0-2.6-0.2c-1.3-0.2-2.6-0.3-3.9-0.5c-2.8-0.3-5.7-0.6-8.6-0.9l-4.7-0.4l-1.4,0
	c-0.6,0-0.9-0.1-2.3,0.4c-0.1-0.2-1.7,1.2-1.7,1.8l0,0.1c0.1-0.7-0.2,1-0.1,0.9l0,0.1l0,0.2c0.1,0.4,0.2,0.9,0.3,1.3
	c0.3,1,0.7,1.1,1,1.6c2.8,3.2,5.8,4.3,8.8,5.8c2.9,1.3,6.1,2.2,9.2,2.8c1.4,0.2,2.7,0.3,4.1,0.4l1,0.1l0.2,0l0.5,0l0.5,0l2.1-0.1
	c2.7-0.1,5.3-0.7,7.6-1.4c2.4-0.8,4.5-1.4,6.3-2.5c1.8-0.9,3.4-1.9,4.7-2.9c0.6-0.6,1.2-1.1,1.7-1.5c0.7-0.8,1.1-1.6,1.4-2.2
	c0.3-0.9,0.3-1.1,0.3-1.1l0.1-0.7C308.3,359.1,308.3,357.5,307.3,356.7z M263.9,358.6C263.9,358.6,263.9,358.6,263.9,358.6
	C263.8,358.6,263.8,358.5,263.9,358.6z"/>
</svg>
