<?xml version="1.0" encoding="utf-8"?>
<!-- Generator: Adobe Illustrator 18.0.0, SVG Export Plug-In . SVG Version: 6.00 Build 0)  -->
<!DOCTYPE svg PUBLIC "-//W3C//DTD SVG 1.1 Tiny//EN" "http://www.w3.org/Graphics/SVG/1.1/DTD/svg11-tiny.dtd">
<svg version="1.1" baseProfile="tiny" id="Layer_1" xmlns="http://www.w3.org/2000/svg" xmlns:xlink="http://www.w3.org/1999/xlink"
	 x="0px" y="0px" width="511.9px" height="511.9px" viewBox="0 0 511.9 511.9" xml:space="preserve">
<path fill="#AF773F" d="M443.1,215.3c-2.3-14-4.1-29.8-3.8-43.5c-5.4-1.4-11-2.1-16.8-2.1c-6.9,0-13.5,1-19.8,3
	c-18.1-18.4-43.3-29.9-71.2-29.9c-22.5,0-43.2,7.5-59.9,20c-10.7,8.1-25.1,8.1-35.8,0c-19.2-14.5-43.8-22.2-70.3-19.5
	c-22.9,2.3-45.2,12.6-61.7,28c-4.7-1-9.5-1.6-14.5-1.6c-5.1,0-10.1,0.6-14.9,1.7c0.4,13.8-1.4,29.7-3.8,43.9c0,0,8.2,52.1-5.1,82.4
	c0.7,0.9,1.3,1.8,1.9,2.7c6.5,2.2,13.5,3.5,20.8,3.6c26.7,81.6,97.9,112.6,166.2,112.6c75.1,0,145.3-32.9,168.6-112.6
	c7.8-0.1,15.3-1.5,22.3-4c0.7-1.2,1.5-2.3,2.3-3.3C435.1,266.4,443.1,215.3,443.1,215.3z"/>
</svg>
