<?xml version="1.0" encoding="utf-8"?>
<!-- Generator: Adobe Illustrator 18.1.0, SVG Export Plug-In . SVG Version: 6.00 Build 0)  -->
<!DOCTYPE svg PUBLIC "-//W3C//DTD SVG 1.0//EN" "http://www.w3.org/TR/2001/REC-SVG-20010904/DTD/svg10.dtd">
<svg version="1.0" id="Layer_1" xmlns="http://www.w3.org/2000/svg" xmlns:xlink="http://www.w3.org/1999/xlink" x="0px" y="0px"
	 width="72px" height="72px" viewBox="0 0 72 72" enable-background="new 0 0 72 72" xml:space="preserve">
<path fill="#597B91" d="M43.6,23.2c0-2-1.9-3.7-4.6-4.3v1.1c0,0.1,0,0.1,0,0.2c0,0.7-1.2,1.3-2.6,1.3s-2.6-0.6-2.6-1.3v-1.2
	c-2,0.7-2.7,2.3-2.7,4.2l-0.6,8l2.8,0.4l2.2-3.9l0.4-0.7c0.3,1,1,1.9,2,2.4c0.4,0.2,0.9,0.3,1.4,0.3c0,0,0.1,0,0.1,0l-0.2,0.3
	l-3,5.1l-0.1,0.2c-0.5,0.8-1.4,1.1-2.2,0.9l-3.8-1.1l-0.5,6c0,1.6,2,2.9,6.7,2.9s8.5-1.3,8.5-2.9L43.6,23.2z"/>
</svg>
