<?xml version="1.0" encoding="utf-8"?>
<!-- Generator: Adobe Illustrator 18.0.0, SVG Export Plug-In . SVG Version: 6.00 Build 0)  -->
<!DOCTYPE svg PUBLIC "-//W3C//DTD SVG 1.1 Tiny//EN" "http://www.w3.org/Graphics/SVG/1.1/DTD/svg11-tiny.dtd">
<svg version="1.1" baseProfile="tiny" id="Layer_1" xmlns="http://www.w3.org/2000/svg" xmlns:xlink="http://www.w3.org/1999/xlink"
	 x="0px" y="0px" width="511.9px" height="511.9px" viewBox="0 0 511.9 511.9" xml:space="preserve">
<path fill="#FFD469" d="M255.9,35.4C134,35.4,35.2,134.2,35.2,256c0,3.3,0.1,6.6,0.2,9.9c-12.8,1.7-22.8,12.6-22.8,25.9
	c0,14.5,11.7,26.2,26.2,26.2h5.2c26.8,91.7,111.4,158.7,211.7,158.7c121.8,0,220.6-98.8,220.6-220.6
	C476.5,134.2,377.7,35.4,255.9,35.4z"/>
<path fill="#FFB636" d="M476.2,265.8c0.1-3.3,0.2-6.5,0.2-9.8c0-58.9-23.1-112.5-60.8-152c21.3,34.5,33.6,75.2,33.6,118.8
	c0,125.2-101.5,226.7-226.7,226.7c-43.6,0-84.2-12.3-118.8-33.6c39.6,37.7,93.1,60.8,152,60.8c100.3,0,185-67,211.7-158.7h5.2
	c14.5,0,26.2-11.7,26.2-26.2C499,278.4,489.1,267.5,476.2,265.8z"/>
<path fill="#2B3B47" d="M171.7,217c-8.4-12.5-22.3-18.8-36.1-16.4c-13.8,2.4-24.7,13.1-28.3,27.7c-0.2,0.9-0.3,1.7-0.3,2.6
	c-1.2,4.3,0.5,9.1,4.5,11.5c1.7,1,3.5,1.5,5.4,1.5c3.5,0,6.9-1.7,8.8-4.9c3.3-5.3,8.7-9,14.9-10.1c6.2-1.1,12.5,0.5,17.4,4.4
	c4.5,3.6,11,2.8,14.5-1.7c2.9-3.6,2.8-8.4,0.4-12.1C172.6,218.7,172.2,217.8,171.7,217z"/>
<path fill="#2B3B47" d="M403.6,231.3c0-0.9-0.1-1.7-0.3-2.6c-3.6-14.7-14.5-25.3-28.3-27.7c-13.8-2.4-27.6,3.8-36.1,16.4
	c-0.6,0.8-0.9,1.7-1.2,2.6c-2.4,3.6-2.5,8.5,0.4,12.1c3.5,4.5,10.1,5.2,14.5,1.7c4.9-3.9,11.2-5.5,17.4-4.4
	c6.2,1.1,11.6,4.8,14.8,10.1c1.9,3.2,5.3,4.9,8.8,4.9c1.8,0,3.7-0.5,5.4-1.5C403.1,240.3,404.8,235.6,403.6,231.3z"/>
<path fill="#FFFFFF" d="M481.4,259.2c-2.7-5-8.9-6.9-13.9-4.3l-87.1,46.2c-9.2-13.6-24.7-22.6-42.4-22.6H173.6
	c-17.7,0-33.2,9-42.4,22.6L44.2,255c-5-2.7-11.2-0.7-13.9,4.3c-2.7,5-0.7,11.2,4.3,13.9l88.9,47.1c-0.6,3-0.9,6.2-0.9,9.4v35.2
	l-44.2,9.1c-5.6,1.1-9.1,6.6-8,12.1c1,4.9,5.3,8.2,10,8.2c0.7,0,1.4-0.1,2.1-0.2l42.3-8.7c6.4,20.9,25.8,36.1,48.8,36.1h164.4
	c23,0,42.4-15.2,48.8-36.1l42.3,8.7c0.7,0.1,1.4,0.2,2.1,0.2c4.8,0,9-3.3,10-8.2c1.1-5.5-2.4-11-8-12.1l-44.2-9.1v-35.2
	c0-3.2-0.3-6.3-0.9-9.4l88.9-47.1C482.2,270.5,484.1,264.3,481.4,259.2z"/>
<path fill="#F2A74E" d="M408.5,190.1c-2.8,0-5.5-1.5-6.9-4.2c-7.2-14.2-24.9-20.7-39.5-14.3c-3.9,1.7-8.4-0.1-10.1-4
	c-1.7-3.9,0.1-8.4,4-10.1c21.9-9.5,48.5,0.2,59.3,21.5c1.9,3.8,0.4,8.4-3.4,10.3C410.9,189.8,409.7,190.1,408.5,190.1z"/>
<path fill="#F2A74E" d="M106.6,184.5c-1.6,0-3.2-0.5-4.6-1.6c-3.4-2.6-4.1-7.4-1.5-10.8c12.7-16.8,35.9-23,55.1-14.8
	c3.9,1.7,5.7,6.2,4,10.1c-1.7,3.9-6.2,5.7-10.1,4c-12.8-5.5-28.3-1.3-36.8,9.9C111.3,183.4,109,184.5,106.6,184.5z"/>
</svg>
