<?xml version="1.0" encoding="iso-8859-1"?>
<!-- Generator: Adobe Illustrator 18.1.1, SVG Export Plug-In . SVG Version: 6.00 Build 0)  -->
<!DOCTYPE svg PUBLIC "-//W3C//DTD SVG 1.1//EN" "http://www.w3.org/Graphics/SVG/1.1/DTD/svg11.dtd">
<svg version="1.1" xmlns="http://www.w3.org/2000/svg" xmlns:xlink="http://www.w3.org/1999/xlink" x="0px" y="0px"
	 viewBox="0 0 500 500" enable-background="new 0 0 500 500" xml:space="preserve">
<g id="Layer_3">
	<path fill="#E08820" d="M13.607,174.128l36.858-1.941c6.697-0.353,12.272,6.702,12.272,15.53v19.744
		c0,8.828-5.575,15.883-12.272,15.53l-36.858-1.941c-6.329-0.333-11.329-7.188-11.329-15.53v-15.861
		C2.278,181.315,7.279,174.461,13.607,174.128z M498.047,205.519v-15.86c0-8.343-5-15.197-11.329-15.53l-36.858-1.941
		c-6.697-0.353-12.272,6.702-12.272,15.53v19.744c0,8.828,5.575,15.883,12.272,15.53l36.858-1.941
		C493.047,220.716,498.047,213.861,498.047,205.519z"/>
</g>
<g id="Layer_1">
</g>
</svg>
