<?xml version="1.0" encoding="utf-8"?>
<!-- Generator: Adobe Illustrator 18.0.0, SVG Export Plug-In . SVG Version: 6.00 Build 0)  -->
<!DOCTYPE svg PUBLIC "-//W3C//DTD SVG 1.1 Tiny//EN" "http://www.w3.org/Graphics/SVG/1.1/DTD/svg11-tiny.dtd">
<svg version="1.1" baseProfile="tiny" id="Layer_1" xmlns="http://www.w3.org/2000/svg" xmlns:xlink="http://www.w3.org/1999/xlink"
	 x="0px" y="0px" width="511.9px" height="511.9px" viewBox="0 0 511.9 511.9" xml:space="preserve">
<path fill="#2B3B47" d="M312.4,353c-3.6-2.5-17.9-10.5-53.6-10.5c-35.7,0-50.1,8.1-53.6,10.5c-6.1,4.2-8.9,11.9-7,19
	c1.9,7.2,8.2,12.4,15.6,13c0.6,0,15.2,1.2,42.8,1.2c27.4,0,46.1-1.1,46.9-1.2c7.5-0.5,13.9-5.6,15.9-12.8S318.6,357.3,312.4,353z"/>
<path fill="#2B3B47" d="M396,243.3c-4.1-4.7-9.2-8.3-14.9-10.7c3.1-0.8,5.9-1.4,7.8-1.6c5.6-0.8,9.5-6,8.7-11.5
	c-0.8-5.6-5.9-9.5-11.5-8.7c-4.3,0.6-42.4,6.7-53.9,32.5c-0.4,0.8-0.6,1.6-0.7,2.4c-1.9,4-1,9,2.4,12c1.9,1.7,4.4,2.6,6.8,2.6
	c2.8,0,5.6-1.2,7.7-3.4c4.1-4.6,10-7.2,16.2-7.2c0,0,0,0,0,0c6.2,0,12.1,2.6,16.2,7.2c3.7,4.2,10.2,4.6,14.4,0.9
	C399.4,254,399.8,247.5,396,243.3z"/>
<path fill="#2B3B47" d="M177.9,243.3c-11.5-25.8-49.6-31.9-53.9-32.5c-5.6-0.8-10.7,3.1-11.5,8.7c-0.8,5.6,3.1,10.7,8.7,11.6
	c2,0.3,4.7,0.8,7.8,1.6c-5.6,2.4-10.7,6-14.9,10.7c-3.7,4.2-3.3,10.7,0.9,14.4c1.9,1.7,4.4,2.6,6.8,2.6c2.8,0,5.6-1.2,7.6-3.4
	c4.1-4.6,10-7.2,16.2-7.2h0c6.2,0,12.1,2.6,16.2,7.2c3.7,4.2,10.2,4.6,14.4,0.9c3.5-3.1,4.4-8,2.4-12.1
	C178.4,244.9,178.2,244.1,177.9,243.3z"/>
</svg>
