<?xml version="1.0" encoding="utf-8"?>
<!-- Generator: Adobe Illustrator 18.0.0, SVG Export Plug-In . SVG Version: 6.00 Build 0)  -->
<!DOCTYPE svg PUBLIC "-//W3C//DTD SVG 1.1 Tiny//EN" "http://www.w3.org/Graphics/SVG/1.1/DTD/svg11-tiny.dtd">
<svg version="1.1" baseProfile="tiny" id="Layer_1" xmlns="http://www.w3.org/2000/svg" xmlns:xlink="http://www.w3.org/1999/xlink"
	 x="0px" y="0px" width="511.9px" height="511.9px" viewBox="0 0 511.9 511.9" xml:space="preserve">
<path fill="#D32A2A" d="M169.3,208.3c-0.8,0-1.5-0.1-2.3-0.3l-51.5-15.1c-4.3-1.3-6.8-5.8-5.5-10.1c1.3-4.3,5.8-6.8,10.1-5.5
	l51.5,15.1c4.3,1.3,6.8,5.8,5.5,10.1C176.1,206,172.8,208.3,169.3,208.3z"/>
<path fill="#D32A2A" d="M342.2,208.3c-3.4,0-6.6-2.2-7.8-5.6c-1.4-4.3,0.9-8.9,5.2-10.3l54.2-17.7c4.3-1.4,8.9,0.9,10.3,5.2
	c1.4,4.3-0.9,8.9-5.2,10.3l-54.2,17.7C343.9,208.2,343.1,208.3,342.2,208.3z"/>
</svg>
