<?xml version="1.0" encoding="utf-8"?>
<!-- Generator: Adobe Illustrator 18.0.0, SVG Export Plug-In . SVG Version: 6.00 Build 0)  -->
<!DOCTYPE svg PUBLIC "-//W3C//DTD SVG 1.1 Tiny//EN" "http://www.w3.org/Graphics/SVG/1.1/DTD/svg11-tiny.dtd">
<svg version="1.1" baseProfile="tiny" id="Layer_1" xmlns="http://www.w3.org/2000/svg" xmlns:xlink="http://www.w3.org/1999/xlink"
	 x="0px" y="0px" width="511.9px" height="511.9px" viewBox="0 0 511.9 511.9" xml:space="preserve">
<path fill="#E5AB83" d="M231.5,288.6C231.5,288.6,231.5,288.6,231.5,288.6c-7.4,0-14.1-3.7-17.9-9.8c-1.3-2-0.7-4.7,1.3-5.9
	c2-1.3,4.7-0.7,5.9,1.3c2.3,3.6,6.2,5.7,10.6,5.7c0,0,0,0,0,0c4.4,0,8.4-2.2,10.6-5.8c1.3-2,3.9-2.6,5.9-1.3c2,1.3,2.6,3.9,1.3,5.9
	C245.5,285,238.8,288.6,231.5,288.6z"/>
<path fill="#EDC0A2" d="M223.2,364.1c-22.5,0-43.3-6.8-60.6-18.5c17.8,17.7,42.3,28.7,69.4,28.7c54.2,0,98.2-44,98.2-98.2l0.3-5
	C323,323.7,277.9,364.1,223.2,364.1z"/>
<path fill="#E5AB83" d="M279.8,203.2c0,0,0.4-0.2,1.1-0.7c0.3-0.2,1-0.5,1.6-0.8c0.7-0.4,1.4-0.6,2.2-0.9c0.8-0.3,1.7-0.5,2.6-0.8
	c0.9-0.2,1.9-0.4,2.9-0.5c0.5,0,1-0.1,1.6-0.1c0.5,0,1.1,0,1.6,0c0.5,0,1.1,0,1.6,0.1c0.5,0,1.1,0.1,1.6,0.2l1.6,0.3
	c0.5,0.1,1.1,0.3,1.6,0.4c0.5,0.1,1,0.3,1.5,0.5c0.5,0.2,1,0.4,1.5,0.6c0.9,0.5,1.8,0.9,2.6,1.5c0.8,0.5,1.5,1.1,2.1,1.7
	c0.6,0.5,1.1,1.2,1.5,1.7c0.5,0.5,0.8,1,1,1.4c0.5,0.8,0.8,1.3,0.8,1.3c0.7,1,0.4,2.4-0.7,3c-0.9,0.6-2.2,0.4-2.9-0.4l-0.2-0.2
	c0,0-0.3-0.3-0.7-0.9c-0.2-0.3-0.5-0.6-0.9-0.9c-0.4-0.3-0.7-0.7-1.3-1.1c-0.5-0.3-1-0.7-1.6-1c-0.6-0.4-1.3-0.6-2-0.9
	c-0.3-0.2-0.7-0.2-1.1-0.3c-0.4-0.1-0.7-0.2-1.1-0.2c-0.4-0.1-0.8-0.1-1.2-0.2l-1.2-0.1c-0.4,0-0.8,0-1.2,0c-0.4,0-0.8,0-1.2,0.1
	c-0.4,0.1-0.8,0.1-1.2,0.2c-0.4,0.1-0.8,0.2-1.1,0.3c-0.7,0.1-1.4,0.4-2.1,0.6c-0.6,0.3-1.3,0.5-1.8,0.8c-0.5,0.3-1,0.5-1.3,0.7
	c-0.4,0.2-0.6,0.3-1,0.6c-0.7,0.5-1.1,0.8-1.1,0.8l0,0c-1.8,1.4-4.4,1-5.7-0.8c-1.4-1.8-1-4.4,0.8-5.7
	C279.5,203.4,279.7,203.3,279.8,203.2z"/>
<path fill="#E5AB83" d="M176.9,210c0,0-0.4-0.3-1.1-0.8c-0.4-0.3-0.6-0.4-1-0.6c-0.3-0.2-0.8-0.5-1.3-0.7c-0.5-0.3-1.1-0.5-1.8-0.8
	c-0.7-0.2-1.3-0.5-2.1-0.6c-0.4-0.1-0.7-0.2-1.1-0.3c-0.4-0.1-0.8-0.1-1.2-0.2c-0.4-0.1-0.8-0.1-1.2-0.1c-0.4,0-0.8-0.1-1.2,0
	l-1.2,0.1c-0.4,0.1-0.8,0.1-1.2,0.2c-0.4,0-0.8,0.2-1.1,0.2c-0.4,0.1-0.8,0.2-1.1,0.3c-0.7,0.3-1.4,0.5-2,0.9
	c-0.6,0.3-1.1,0.7-1.6,1c-0.5,0.3-0.9,0.7-1.3,1.1c-0.4,0.3-0.7,0.7-0.9,0.9c-0.5,0.6-0.7,0.9-0.7,0.9l-0.2,0.2
	c-0.8,0.9-2.2,1-3.1,0.3c-0.9-0.7-1-2-0.4-2.9c0,0,0.3-0.5,0.8-1.3c0.3-0.4,0.6-0.9,1-1.4c0.4-0.5,0.9-1.1,1.5-1.7
	c0.6-0.6,1.3-1.2,2.1-1.7c0.8-0.6,1.7-1.1,2.6-1.5c0.5-0.3,1-0.4,1.5-0.6c0.5-0.2,1-0.4,1.5-0.5c0.5-0.1,1.1-0.3,1.6-0.4l1.6-0.3
	c0.5-0.1,1.1-0.1,1.6-0.2c0.5,0,1.1-0.1,1.6-0.1c0.5,0,1.1,0,1.6,0c0.5,0,1,0.1,1.6,0.1c1,0.1,2,0.3,2.9,0.5
	c0.9,0.3,1.8,0.4,2.6,0.8c0.8,0.3,1.5,0.5,2.2,0.9c0.7,0.3,1.4,0.6,1.6,0.8c0.7,0.4,1.1,0.7,1.1,0.7c2,1.1,2.6,3.6,1.5,5.6
	c-1.1,2-3.6,2.6-5.6,1.5C177.2,210.2,177.1,210.1,176.9,210L176.9,210z"/>
</svg>
