<?xml version="1.0" encoding="utf-8"?>
<!-- Generator: Adobe Illustrator 18.0.0, SVG Export Plug-In . SVG Version: 6.00 Build 0)  -->
<!DOCTYPE svg PUBLIC "-//W3C//DTD SVG 1.1 Tiny//EN" "http://www.w3.org/Graphics/SVG/1.1/DTD/svg11-tiny.dtd">
<svg version="1.1" baseProfile="tiny" id="Layer_1" xmlns="http://www.w3.org/2000/svg" xmlns:xlink="http://www.w3.org/1999/xlink"
	 x="0px" y="0px" width="511.9px" height="511.9px" viewBox="0 0 511.9 511.9" xml:space="preserve">
<path fill="#2B3B47" d="M293.6,296.9h-75.1c-11.9,9.5-19.6,23.2-19.6,38.7c0,19.2,11.7,35.7,28.9,44.6c8.4-4.3,17.9-3,28.3-3
	c10.3,0,19.9-1.4,28.3,3c17.2-8.9,28.9-25.5,28.9-44.6C313.2,320.1,305.5,306.4,293.6,296.9z"/>
<path fill="#2B3B47" d="M365.8,157.6c13.4,0,24.2,10.8,24.2,24.2v54.3c0,13.4-10.8,24.2-24.2,24.2l0,0c-13.4,0-24.2-10.8-24.2-24.2
	v-54.3C341.6,168.5,352.5,157.6,365.8,157.6L365.8,157.6z"/>
<path fill="#2B3B47" d="M146.2,157.6c13.4,0,24.2,10.8,24.2,24.2v54.3c0,13.4-10.8,24.2-24.2,24.2l0,0c-13.4,0-24.2-10.8-24.2-24.2
	v-54.3C122,168.5,132.8,157.6,146.2,157.6L146.2,157.6z"/>
</svg>
