<?xml version="1.0" encoding="utf-8"?>
<!-- Generator: Adobe Illustrator 18.0.0, SVG Export Plug-In . SVG Version: 6.00 Build 0)  -->
<!DOCTYPE svg PUBLIC "-//W3C//DTD SVG 1.1 Tiny//EN" "http://www.w3.org/Graphics/SVG/1.1/DTD/svg11-tiny.dtd">
<svg version="1.1" baseProfile="tiny" id="Layer_1" xmlns="http://www.w3.org/2000/svg" xmlns:xlink="http://www.w3.org/1999/xlink"
	 x="0px" y="0px" width="512px" height="512px" viewBox="0 0 512 512" xml:space="preserve">
<path fill="#FFD8CA" d="M256,436.1c132.5,0,195.4-34.4,254.1-140.2c1.3-2.3,1.9-5,1.7-7.6h-60.3v-23.1h-0.2c0.1-1.6,0.2-3.3,0.2-4.9
	c0-34.6-28.1-62.7-62.7-62.7c-34.6,0-62.7,28.1-62.7,62.7c0,1.7,0.1,3.3,0.2,4.9H185.7c0.1-1.4,0.2-2.9,0.2-4.4
	c0-34.6-28.1-62.7-62.7-62.7s-62.7,28.1-62.7,62.7c0,1.5,0.1,2.9,0.2,4.4h-0.1l0,23.1H0.2c-0.2,2.6,0.4,5.2,1.7,7.6
	C60.7,401.7,123.5,436.1,256,436.1z"/>
</svg>
