<?xml version="1.0" encoding="utf-8"?>
<!-- Generator: Adobe Illustrator 18.0.0, SVG Export Plug-In . SVG Version: 6.00 Build 0)  -->
<!DOCTYPE svg PUBLIC "-//W3C//DTD SVG 1.1 Tiny//EN" "http://www.w3.org/Graphics/SVG/1.1/DTD/svg11-tiny.dtd">
<svg version="1.1" baseProfile="tiny" id="Layer_1" xmlns="http://www.w3.org/2000/svg" xmlns:xlink="http://www.w3.org/1999/xlink"
	 x="0px" y="0px" width="511.9px" height="511.9px" viewBox="0 0 511.9 511.9" xml:space="preserve">
<path fill="#F2A74E" d="M119.1,249.2c-1.8,0-3.6-0.6-5-1.9c-3.1-2.8-3.4-7.6-0.6-10.7c8.7-9.8,21.2-15.4,34.3-15.4c0,0,0,0,0,0
	c13.1,0,25.6,5.6,34.3,15.4c2.8,3.1,2.5,8-0.7,10.7c-3.1,2.8-7.9,2.5-10.7-0.7c-5.8-6.5-14.1-10.3-22.9-10.3c0,0,0,0,0,0
	c-8.8,0-17.1,3.7-22.9,10.3C123.3,248.3,121.2,249.2,119.1,249.2z"/>
<path fill="#F2A74E" d="M394.8,249.2c-2.1,0-4.2-0.9-5.7-2.6c-5.8-6.5-14.1-10.3-22.9-10.3c0,0,0,0,0,0c-8.8,0-17.1,3.7-22.9,10.3
	c-2.8,3.1-7.6,3.4-10.7,0.6c-3.1-2.8-3.4-7.6-0.6-10.7c8.7-9.8,21.2-15.4,34.3-15.4c0,0,0,0,0,0c13.1,0,25.6,5.6,34.3,15.4
	c2.8,3.1,2.5,8-0.7,10.7C398.4,248.6,396.6,249.2,394.8,249.2z"/>
</svg>
