<?xml version="1.0" encoding="iso-8859-1"?>
<!-- Generator: Adobe Illustrator 18.1.1, SVG Export Plug-In . SVG Version: 6.00 Build 0)  -->
<!DOCTYPE svg PUBLIC "-//W3C//DTD SVG 1.1//EN" "http://www.w3.org/Graphics/SVG/1.1/DTD/svg11.dtd">
<svg version="1.1" xmlns="http://www.w3.org/2000/svg" xmlns:xlink="http://www.w3.org/1999/xlink" x="0px" y="0px"
	 viewBox="0 0 512 512" enable-background="new 0 0 512 512" xml:space="preserve">
<g id="Layer_3">
	<path fill="#0096D1" d="M14.215,162.34l38.656-2.037c7.024-0.37,12.871,7.03,12.871,16.288v20.708
		c0,9.258-5.847,16.658-12.871,16.288l-38.656-2.037c-6.638-0.35-11.882-7.539-11.882-16.288v-16.635
		C2.333,169.878,7.578,162.689,14.215,162.34z M510,195.262v-16.635c0-8.749-5.244-15.938-11.882-16.288l-38.656-2.037
		c-7.024-0.37-12.871,7.03-12.871,16.288v20.708c0,9.258,5.847,16.658,12.871,16.288l38.656-2.037
		C504.756,211.2,510,204.011,510,195.262z"/>
</g>
<g id="Layer_1">
</g>
</svg>
