<?xml version="1.0" encoding="utf-8"?>
<!-- Generator: Adobe Illustrator 16.0.4, SVG Export Plug-In . SVG Version: 6.00 Build 0)  -->
<!DOCTYPE svg PUBLIC "-//W3C//DTD SVG 1.1//EN" "http://www.w3.org/Graphics/SVG/1.1/DTD/svg11.dtd">
<svg version="1.1" id="Layer_1" xmlns="http://www.w3.org/2000/svg" xmlns:xlink="http://www.w3.org/1999/xlink" x="0px" y="0px"
	 width="500px" height="500px" viewBox="0 0 500 500" enable-background="new 0 0 500 500" xml:space="preserve">
<path fill="#FFD46A" d="M250,30C128.5,30,30,128.5,30,250c0,3.3,0.1,6.6,0.2,9.8c-12.8,1.7-22.7,12.5-22.7,25.8
	c0,14.4,11.7,26.1,26.1,26.1h5.2C65.5,403.2,149.9,470,250,470c121.5,0,220-98.5,220-220C470,128.5,371.5,30,250,30"/>
<path fill="#FCB537" d="M469.7,259.8c0.1-3.3,0.2-6.5,0.2-9.8c0-58.8-23.1-112.1-60.7-151.6c21.3,34.4,33.5,75,33.5,118.4
	c0,124.8-101.2,226-226,226c-43.4,0-84-12.3-118.4-33.5C137.8,446.9,191.2,470,250,470c100.1,0,184.4-66.8,211.1-158.2h5.2
	c14.4,0,26.1-11.7,26.1-26.1C492.5,272.4,482.5,261.5,469.7,259.8"/>
<path fill="#F2A84E" d="M107,160.1c-1.1,0-2.3-0.3-3.4-0.8c-3.7-1.9-5.3-6.4-3.4-10.2c5.8-11.7,16.4-20.3,29.1-23.7
	c12.6-3.4,26.1-1.2,37,6c3.5,2.3,4.5,7,2.1,10.5c-2.3,3.5-7,4.5-10.5,2.1c-7.2-4.8-16.2-6.2-24.7-4c-8.5,2.3-15.6,8-19.4,15.8
	C112.4,158.5,109.8,160.1,107,160.1"/>
<path fill="#F2A84E" d="M391.5,160.1c-2.8,0-5.5-1.5-6.8-4.2c-3.9-7.8-11-13.5-19.4-15.8c-8.5-2.3-17.5-0.8-24.7,4
	c-3.5,2.3-8.2,1.3-10.5-2.2c-2.3-3.5-1.3-8.2,2.1-10.5c10.9-7.2,24.4-9.4,37-6c12.7,3.4,23.3,12,29.1,23.7c1.9,3.8,0.3,8.3-3.4,10.2
	C393.8,159.8,392.7,160.1,391.5,160.1"/>
<path fill="#2C3C48" d="M389.3,200.7c-4.2-3.7-10.7-3.3-14.4,0.9c-4.1,4.6-10,7.2-16.1,7.2c-6.2,0-12.1-2.6-16.2-7.2
	c-3.7-4.2-10.2-4.6-14.4-0.9c-3.4,3-4.2,7.7-2.5,11.7c0.1,0.9,0.3,1.9,0.7,2.8c6.1,13.6,18.4,22.1,32.2,22.1
	c13.8,0,26.2-8.5,32.2-22.1c0.4-0.9,0.6-1.8,0.7-2.8C393.5,208.4,392.7,203.7,389.3,200.7"/>
<path fill="#2C3C48" d="M169.5,200.7c-4.2-3.7-10.7-3.3-14.4,0.9c-4.1,4.6-9.9,7.2-16.1,7.2c-6.2,0-12.1-2.6-16.2-7.2
	c-3.7-4.2-10.2-4.6-14.4-0.9c-3.4,3-4.2,7.7-2.5,11.7c0.1,0.9,0.3,1.9,0.7,2.8c6,13.6,18.4,22.1,32.2,22.1
	c13.8,0,26.2-8.5,32.2-22.1c0.4-0.9,0.6-1.8,0.7-2.7C173.7,208.4,172.9,203.7,169.5,200.7"/>
<path fill="#2C3C48" d="M270.2,311.3l-2.4,0c-2.6,0-5.3,0-8.1,0.1c-5.8,0.1-12.1,0.1-17.8,0c-2.8-0.1-5.2,0-8.5-0.1
	c-10,0-18.4,6.2-21.4,15.8c-3,9.5,0.5,19.8,8.6,25.5c11.2,7.9,21.1,11.5,31.2,11.5c10.1,0,20-3.6,31.1-11.5
	c8.2-5.8,11.5-15.7,8.6-25.3C288.6,317.7,280.2,311.4,270.2,311.3"/>
</svg>
