<?xml version="1.0" encoding="iso-8859-1"?>
<!-- Generator: Adobe Illustrator 18.1.1, SVG Export Plug-In . SVG Version: 6.00 Build 0)  -->
<!DOCTYPE svg PUBLIC "-//W3C//DTD SVG 1.1//EN" "http://www.w3.org/Graphics/SVG/1.1/DTD/svg11.dtd">
<svg version="1.1" xmlns="http://www.w3.org/2000/svg" xmlns:xlink="http://www.w3.org/1999/xlink" x="0px" y="0px"
	 viewBox="0 0 512 512" enable-background="new 0 0 512 512" xml:space="preserve">
<g id="Layer_4">
	<path fill="#F9F9F7" d="M289.993,77.789H143c-17.434,0-31.566,14.133-31.566,31.566s14.133,31.566,31.566,31.566h146.993
		c46.557,0,84.434,37.877,84.434,84.434c0,46.557-37.877,84.434-84.434,84.434h-92.568v-50.04c0-8.166-9.092-13.045-15.897-8.531
		L58.515,332.824c-6.104,4.049-6.104,13.012,0,17.062l123.013,81.606c6.805,4.514,15.897-0.365,15.897-8.531v-50.039h92.568
		c81.368,0,147.566-66.198,147.566-147.567C437.56,143.987,371.361,77.789,289.993,77.789z"/>
</g>
<g id="Layer_1">
</g>
</svg>
