<?xml version="1.0" encoding="iso-8859-1"?>
<!-- Generator: Adobe Illustrator 18.1.1, SVG Export Plug-In . SVG Version: 6.00 Build 0)  -->
<!DOCTYPE svg PUBLIC "-//W3C//DTD SVG 1.1//EN" "http://www.w3.org/Graphics/SVG/1.1/DTD/svg11.dtd">
<svg version="1.1" xmlns="http://www.w3.org/2000/svg" xmlns:xlink="http://www.w3.org/1999/xlink" x="0px" y="0px"
	 viewBox="0 0 512 512" enable-background="new 0 0 512 512" xml:space="preserve">
<g id="Layer_3">
	<path fill="#FFB636" d="M242,427.504c9.777,0,59.476,54.092,59.476,54.092H182.524C182.524,481.596,232.223,427.504,242,427.504z
		 M236.75,355.681c-3.262,0-5.906,2.644-5.906,5.906c0,3.262,2.644,5.906,5.906,5.906s5.906-2.644,5.906-5.906
		C242.656,358.326,240.012,355.681,236.75,355.681z M242.656,376.68c-3.262,0-5.906,2.644-5.906,5.906
		c0,3.262,2.644,5.906,5.906,5.906s5.906-2.644,5.906-5.906C248.562,379.324,245.918,376.68,242.656,376.68z M228.346,411.931
		c-3.262,0-5.906,2.644-5.906,5.906s2.644,5.906,5.906,5.906c3.262,0,5.906-2.644,5.906-5.906S231.608,411.931,228.346,411.931z
		 M245.906,328.762c-3.262,0-5.906,2.644-5.906,5.906c0,3.262,2.644,5.906,5.906,5.906c3.262,0,5.906-2.644,5.906-5.906
		C251.812,331.406,249.168,328.762,245.906,328.762z M144.252,118.927c0,24.516,27.73,46.485,44.951,61.325
		c12.716,12.716,34.457,36.779,34.457,66.987c0,1.012,0.048,1.981,0.127,2.921c0.639,24.677,3.799,52.197,11.638,62.017
		c-0.831,1.018-1.331,2.317-1.331,3.733c0,3.262,2.644,5.906,5.906,5.906s5.906-2.644,5.906-5.906c0-0.381-0.039-0.752-0.108-1.112
		c10.525-6.473,14.175-40.104,14.515-69.728c1.8-25.503,22.332-52.666,34.484-64.818c17.221-14.84,44.951-36.808,44.951-61.325
		C339.748,107,144.252,107,144.252,118.927z M248.786,400.679c-3.262,0-5.906,2.644-5.906,5.906s2.644,5.906,5.906,5.906
		c3.262,0,5.906-2.644,5.906-5.906S252.047,400.679,248.786,400.679z"/>
</g>
<g id="Layer_1">
</g>
</svg>
