<?xml version="1.0" encoding="iso-8859-1"?>
<!-- Generator: Adobe Illustrator 19.1.0, SVG Export Plug-In . SVG Version: 6.00 Build 0)  -->
<!DOCTYPE svg PUBLIC "-//W3C//DTD SVG 1.1//EN" "http://www.w3.org/Graphics/SVG/1.1/DTD/svg11.dtd">
<svg version="1.1" xmlns="http://www.w3.org/2000/svg" xmlns:xlink="http://www.w3.org/1999/xlink" x="0px" y="0px"
	 viewBox="0 0 512 512" enable-background="new 0 0 512 512" xml:space="preserve">
<g id="Layer_2">
	<path fill="#6B8DA1" d="M275.816,58.999v123.14c0,10.899-8.917,19.816-19.816,19.816h0c-10.899,0-19.816-8.917-19.816-19.816
		V58.999c0-10.899,8.917-19.816,19.816-19.816h0C266.899,39.183,275.816,48.1,275.816,58.999z M367.565,162.043
		c7.738,7.738,20.284,7.739,28.022,0.001l50.586-50.586c7.738-7.738,7.738-20.285,0-28.023c-7.738-7.738-20.285-7.738-28.023,0
		l-50.586,50.586C359.827,141.759,359.828,154.306,367.565,162.043 M144.442,162.044c7.738-7.738,7.739-20.284,0.001-28.022
		L93.857,83.436c-7.738-7.738-20.285-7.738-28.023,0c-7.738,7.738-7.738,20.285,0,28.023l50.586,50.586
		C124.158,169.782,136.704,169.782,144.442,162.044 M403.426,482.619L403.426,482.619c7.706-7.706,7.706-20.317,0-28.023
		l-87.073-87.073c-7.706-7.706-20.317-7.706-28.023,0l0,0c-7.706,7.706-7.706,20.317,0,28.023l87.073,87.073
		C383.109,490.325,395.72,490.325,403.426,482.619z M136.597,482.619l87.073-87.073c7.706-7.706,7.706-20.317,0-28.023h0
		c-7.706-7.706-20.317-7.706-28.023,0l-87.073,87.073c-7.706,7.706-7.706,20.317,0,28.023l0,0
		C116.28,490.325,128.891,490.325,136.597,482.619z"/>
</g>
<g id="Layer_1">
</g>
</svg>
