<?xml version="1.0" encoding="iso-8859-1"?>
<!-- Generator: Adobe Illustrator 19.1.0, SVG Export Plug-In . SVG Version: 6.00 Build 0)  -->
<!DOCTYPE svg PUBLIC "-//W3C//DTD SVG 1.1//EN" "http://www.w3.org/Graphics/SVG/1.1/DTD/svg11.dtd">
<svg version="1.1" xmlns="http://www.w3.org/2000/svg" xmlns:xlink="http://www.w3.org/1999/xlink" x="0px" y="0px"
	 viewBox="0 0 512 512" enable-background="new 0 0 512 512" xml:space="preserve">
<g id="Layer_2">
	<path fill="#6B8DA1" d="M275.816,58.999v123.14c0,10.899-8.917,19.816-19.816,19.816h0c-10.899,0-19.816-8.917-19.816-19.816
		V58.999c0-10.899,8.917-19.816,19.816-19.816h0C266.899,39.183,275.816,48.1,275.816,58.999z M367.565,162.043
		c7.738,7.738,20.284,7.739,28.022,0.001l50.586-50.586c7.738-7.738,7.738-20.285,0-28.023c-7.738-7.738-20.285-7.738-28.023,0
		l-50.586,50.586C359.827,141.759,359.828,154.306,367.565,162.043 M144.442,162.044c7.738-7.738,7.739-20.284,0.001-28.022
		L93.857,83.436c-7.738-7.738-20.285-7.738-28.023,0c-7.738,7.738-7.738,20.285,0,28.023l50.586,50.586
		C124.158,169.782,136.704,169.782,144.442,162.044 M403.426,482.619L403.426,482.619c7.706-7.706,7.706-20.317,0-28.023
		l-87.073-87.073c-7.706-7.706-20.317-7.706-28.023,0l0,0c-7.706,7.706-7.706,20.317,0,28.023l87.073,87.073
		C383.109,490.325,395.72,490.325,403.426,482.619z M136.597,482.619l87.073-87.073c7.706-7.706,7.706-20.317,0-28.023h0
		c-7.706-7.706-20.317-7.706-28.023,0l-87.073,87.073c-7.706,7.706-7.706,20.317,0,28.023l0,0
		C116.28,490.325,128.891,490.325,136.597,482.619z"/>
</g>
<g id="Layer_3">
	<path fill="#FFB636" d="M354.319,45.692c36.12-30.974,90.561-29.384,124.768,4.823c34.242,34.242,35.8,88.76,4.727,124.879
		c-2.812,1.987-6.524,2.121-9.46,0.405L353.826,55.271C352.085,52.293,352.25,48.517,354.319,45.692z M37.669,175.783
		L158.197,55.255c1.717-2.936,1.582-6.648-0.405-9.46c-36.12-31.073-90.637-29.515-124.879,4.727
		C-1.293,84.729-2.883,139.17,28.091,175.29C30.916,177.36,34.692,177.524,37.669,175.783z"/>
</g>
<g id="Layer_4">
	<path fill="#FFD469" d="M477.511,108.534c-4.411,0-8.386-3.056-9.377-7.541c-2.136-9.668-6.91-18.579-13.807-25.772
		c-6.88-7.176-15.559-12.318-25.098-14.871c-5.128-1.372-8.173-6.643-6.801-11.771c1.373-5.128,6.643-8.173,11.771-6.801
		c12.934,3.461,24.693,10.425,34.005,20.137c9.338,9.739,15.805,21.818,18.702,34.931c1.145,5.184-2.129,10.314-7.313,11.46
		C478.895,108.46,478.198,108.534,477.511,108.534z M42.749,100.38c2.553-9.539,7.695-18.218,14.871-25.098
		c7.193-6.897,16.105-11.671,25.772-13.807c5.184-1.145,8.458-6.276,7.313-11.46c-1.145-5.184-6.276-8.458-11.46-7.313
		c-13.112,2.897-25.191,9.364-34.931,18.702c-9.713,9.313-16.676,21.071-20.137,34.005c-1.372,5.129,1.672,10.398,6.801,11.771
		c0.833,0.223,1.668,0.329,2.491,0.329C37.714,107.51,41.599,104.676,42.749,100.38z"/>
</g>
<g id="Layer_5">
	<path fill="#FB5046" d="M256,64.394c-117.011,0-211.863,94.852-211.863,211.863c0,117.011,94.852,211.872,211.863,211.872
		c117.011,0,211.863-94.861,211.863-211.872C467.863,159.246,373.011,64.394,256,64.394"/>
</g>
<g id="Layer_6">
	<path fill="#F9F9F8" d="M83.765,276.261c0,94.973,77.267,172.239,172.239,172.239s172.23-77.267,172.23-172.239
		c0-94.972-77.258-172.239-172.23-172.239S83.765,181.289,83.765,276.261"/>
</g>
<g id="Layer_7">
	<path fill="#6B8DA1" d="M256,289.451h123.172c6.11,0,11.071-4.96,11.071-11.079c0-6.11-4.961-11.07-11.071-11.07H256
		c-6.119,0-11.08,4.961-11.08,11.07C244.92,284.49,249.881,289.451,256,289.451"/>
</g>
<g id="Layer_8">
	<path fill="#6B8DA1" d="M256,289.451c6.119,0,11.08-4.96,11.08-11.079V157.844c0-6.119-4.961-11.08-11.08-11.08
		c-6.119,0-11.08,4.961-11.08,11.08v120.527C244.92,284.49,249.881,289.451,256,289.451"/>
</g>
</svg>
