<?xml version="1.0" encoding="iso-8859-1"?>
<!-- Generator: Adobe Illustrator 18.1.1, SVG Export Plug-In . SVG Version: 6.00 Build 0)  -->
<!DOCTYPE svg PUBLIC "-//W3C//DTD SVG 1.1//EN" "http://www.w3.org/Graphics/SVG/1.1/DTD/svg11.dtd">
<svg version="1.1" xmlns="http://www.w3.org/2000/svg" xmlns:xlink="http://www.w3.org/1999/xlink" x="0px" y="0px"
	 viewBox="0 0 512 512" enable-background="new 0 0 512 512" xml:space="preserve">
<g id="Layer_2">
	<path fill="#597B91" d="M500.951,39.183c0-15.84-12.96-28.8-28.8-28.8H35.636c-14.256,0-25.92,11.664-25.92,25.92v439.394
		c0,14.256,11.664,25.92,25.92,25.92h436.514c15.84,0,28.8-12.96,28.8-28.8V39.183z"/>
</g>
<g id="Layer_3">
	<path fill="#2B5770" d="M475.031,10.383h-0.149v453.166c0,6.6-5.4,12-12,12H9.716v0.149c0,14.256,11.664,25.92,25.92,25.92h439.394
		c14.256,0,25.92-11.664,25.92-25.92V36.303C500.951,22.047,489.287,10.383,475.031,10.383z"/>
</g>
<g id="Layer_4">
	<path fill="#F9F9F7" d="M154.556,419.73l223.447-148.234c11.088-7.355,11.088-23.636,0-30.992L154.556,92.27
		c-12.361-8.2-28.876,0.663-28.876,15.496v296.468C125.681,419.067,142.196,427.93,154.556,419.73z"/>
</g>
</svg>
