<?xml version="1.0" encoding="iso-8859-1"?>
<!-- Generator: Adobe Illustrator 19.1.0, SVG Export Plug-In . SVG Version: 6.00 Build 0)  -->
<!DOCTYPE svg PUBLIC "-//W3C//DTD SVG 1.1//EN" "http://www.w3.org/Graphics/SVG/1.1/DTD/svg11.dtd">
<svg version="1.1" xmlns="http://www.w3.org/2000/svg" xmlns:xlink="http://www.w3.org/1999/xlink" x="0px" y="0px"
	 viewBox="0 0 511.92 511.92" enable-background="new 0 0 511.92 511.92" xml:space="preserve">
<g id="Layer_3">
	<path fill="#EDC0A2" d="M350.466,265.813c-18.101-15.296-31.123-20.22-55.434-19.661V199.22c0-2.501-2.027-4.528-4.528-4.528
		s-4.528,2.027-4.528,4.528v47.343c0.822-0.054,1.63-0.102,2.428-0.147c-0.828,0.046-1.665,0.096-2.519,0.152
		c-0.072,0.005-0.138,0.027-0.21,0.035l-3.288-0.085l-32.565-0.571c-3.052-0.045-6.11,0.216-9.179,0.854
		c-0.763,0.156-1.525,0.339-2.283,0.548c0,0,0,0,0,0V199.22c0-2.501-2.027-4.528-4.528-4.528s-4.528,2.027-4.528,4.528v52.165
		c0,0,0,0,0,0c-4.67,3.018-8.544,7.358-10.991,12.299c-2.874,5.771-4.018,12.185-3.652,18.456
		c0.372,6.227,2.233,12.419,5.721,17.822c-4.363,2.371-9.367,3.72-14.685,3.72c-16.978,0-30.242-13.646-30.242-30.501v-57.535
		l-0.454,0.006v-16.43c0-2.501-2.027-4.528-4.528-4.528s-4.528,2.027-4.528,4.528v21.564c-0.208,0.676-0.321,1.394-0.321,2.138
		v54.94c0,1.67,0.116,3.307,0.321,4.912v2.443c-4.702,10.856-15.562,18.463-28.195,18.463c-7.78,0-14.774-2.871-20.075-7.598v8.981
		c6.124,4.709,13.829,7.485,22.301,7.485c12.677,0,23.874-6.404,30.511-16.129c6.243,10.923,17.917,18.133,31.578,18.133
		c8.922,0,17.113-3.172,23.497-8.439c0,0,0,0,0,0c0.461,0.425,0.924,0.85,1.413,1.247c2.555,2.089,5.481,3.77,8.576,4.91
		c1.543,0.587,3.131,1.027,4.727,1.354c1.603,0.344,3.163,0.518,4.939,0.641c0.406,0.026,0.697,0.024,1.051,0.036l1.16,0.022
		l2.024,0.005l4.04,0.022c5.369,0.056,10.731,0.148,15.885,0.546c2.569,0.202,5.087,0.49,7.393,0.949
		c2.279,0.462,4.346,1.164,5.529,1.995c0.601,0.414,0.984,0.812,1.31,1.312c0.323,0.499,0.6,1.161,0.811,2.025
		c0.105,0.429,0.186,0.91,0.263,1.408c0.056,0.517,0.125,1.06,0.144,1.56c0.043,0.432,0.045,1.216,0.062,1.868
		c-0.001-0.029-0.003-0.071-0.002,0.002l-0.003,0.082l-0.004,0.165l-0.008,0.329c-0.025,0.215-0.026,0.434-0.06,0.646
		c-0.21,1.703-0.868,3.327-1.998,4.858c-0.557,0.764-1.232,1.493-1.978,2.167c-0.373,0.336-0.767,0.656-1.168,0.951
		c-0.2,0.147-0.401,0.288-0.598,0.418l-0.429,0.271l-0.643,0.396l-2.378,1.796l-2.296,1.899l-2.209,1.998l-2.118,2.093
		c-0.686,0.716-1.349,1.455-2.023,2.183c-0.652,0.747-1.277,1.517-1.915,2.276c-0.618,0.774-1.209,1.57-1.812,2.356
		c-0.583,0.8-1.139,1.62-1.707,2.43c-0.547,0.824-1.067,1.667-1.599,2.5l-1.489,2.564l-1.377,2.624l-1.264,2.679l-1.148,2.728
		l-1.031,2.773l-0.912,2.813l-0.792,2.848l-0.667,2.879l-0.536,2.906l-0.412,2.925l-0.288,2.939l-0.162,2.948l-0.036,2.951
		c0.03,0.984,0.044,1.967,0.091,2.95c0.072,0.981,0.128,1.963,0.218,2.943c0.115,0.977,0.212,1.956,0.346,2.93
		c0.157,0.971,0.305,1.943,0.485,2.91c0.204,0.962,0.392,1.927,0.614,2.884c0.246,0.952,0.477,1.907,0.74,2.853l0.865,2.816
		l0.991,2.778l1.147,2.811l1.147,2.486c1.018,2.199,3.607,3.223,5.861,2.28c2.307-0.966,3.395-3.619,2.429-5.927l-1.057-2.525
		l-0.833-2.292l-0.761-2.408l-0.655-2.443l-0.546-2.468l-0.436-2.488l-0.329-2.504l-0.231-2.514l-0.122-2.521l-0.013-2.523
		l0.095-2.521l0.203-2.514l0.31-2.503l0.416-2.487l0.52-2.466l0.615-2.443l0.715-2.414l0.817-2.381l0.916-2.343l1.014-2.301
		l1.11-2.254l1.204-2.203l1.296-2.148l1.386-2.089l1.474-2.025l1.559-1.957l1.641-1.886l1.712-1.819l1.789-1.741l1.864-1.66
		l1.934-1.576l1.79-1.331c0.105-0.061,0.191-0.113,0.305-0.18l0.579-0.361c0.372-0.241,0.729-0.485,1.078-0.737
		c0.697-0.503,1.362-1.034,2.004-1.599c1.28-1.131,2.474-2.389,3.534-3.806c2.132-2.803,3.688-6.329,4.163-10.019
		c0.069-0.459,0.096-0.919,0.139-1.379l0.029-0.688l0.017-0.774c-0.014-0.703-0.001-1.274-0.057-2.195
		c-0.032-0.857-0.12-1.663-0.212-2.494l-0.196-1.278c-0.077-0.431-0.186-0.879-0.282-1.316c-0.432-1.769-1.14-3.676-2.297-5.455
		c-1.143-1.783-2.726-3.332-4.369-4.439c-3.337-2.222-6.6-3.058-9.608-3.707c-3.02-0.595-5.907-0.903-8.748-1.125
		c-5.674-0.425-11.174-0.501-16.659-0.551l-4.102-0.016l-2.047-0.002l-1.859-0.045c-0.928-0.072-2.077-0.162-3.13-0.387
		c-1.064-0.205-2.104-0.478-3.101-0.848c-4.007-1.423-7.437-4.176-9.874-7.833c-4.925-7.297-5.693-17.872-1.794-25.833
		c1.901-4,4.945-7.293,8.803-9.42c3.84-2.16,8.506-3.123,13.278-3.169l32.57-0.109l3.174-0.041c0.32,0.048,0.648,0.069,0.984,0.045
		c0.41-0.027,0.804-0.049,1.207-0.073l2.688-0.034l3.922-0.013l3.948,0.062c5.269,0.113,10.572,0.403,15.879,1.066
		c0.644,0.083,1.287,0.171,1.931,0.265c10.134,2.333,18.367,7.235,28.564,15.852c0.851,0.719,1.889,1.069,2.921,1.069
		c1.286,0,2.565-0.546,3.461-1.605C352.616,270.284,352.376,267.427,350.466,265.813z"/>
</g>
<g id="Layer_1">
</g>
</svg>
