<?xml version="1.0" encoding="iso-8859-1"?>
<!-- Generator: Adobe Illustrator 18.1.0, SVG Export Plug-In . SVG Version: 6.00 Build 0)  -->
<!DOCTYPE svg PUBLIC "-//W3C//DTD SVG 1.1//EN" "http://www.w3.org/Graphics/SVG/1.1/DTD/svg11.dtd">
<svg version="1.1" xmlns="http://www.w3.org/2000/svg" xmlns:xlink="http://www.w3.org/1999/xlink" x="0px" y="0px"
	 viewBox="0 0 512 512" enable-background="new 0 0 512 512" xml:space="preserve">
<g id="Layer_2">
	<path fill="#597B91" d="M279.034,106.239c-0.374-10.88-9.317-19.621-20.287-19.621c-10.969,0-19.913,8.742-20.287,19.621
		c-0.023,0.23-0.036,0.464-0.036,0.701v18.242c0,3.579,2.749,6.512,6.25,6.814v314.267c0,16.488-13.415,29.902-29.903,29.902
		s-29.903-13.414-29.903-29.902c0-8.258-6.694-14.951-14.951-14.951s-14.951,6.693-14.951,14.951
		c0,32.977,26.829,59.805,59.805,59.805s59.805-26.828,59.805-59.805V131.602c2.619-0.96,4.492-3.468,4.492-6.42v-18.242
		C279.069,106.703,279.057,106.469,279.034,106.239z"/>
</g>
<g id="Layer_3">
	<path fill="#FF473E" d="M495.212,301.08c-28.708-104.623-121.848-181.503-235.586-181.503S50.99,196.456,22.282,301.08h0.208
		l-0.208,0.208c0,21.244,17.222,38.466,38.466,38.466c13.274,0,24.976-6.723,31.89-16.95c3.823-5.656,12.085-6.118,16.433-0.854
		c9.653,11.685,24.25,19.133,40.591,19.133c18.092,0,34.046-9.129,43.519-23.031c3.87-5.679,12.144-5.87,16.511-0.564
		c11.857,14.406,29.819,23.594,49.935,23.594c19.689,0,37.319-8.801,49.178-22.681c4.397-5.146,12.384-4.638,16.349,0.847
		c9.561,13.226,25.112,21.834,42.68,21.834c16.331,0,30.92-7.438,40.573-19.11c4.34-5.247,12.594-4.79,16.407,0.851
		c6.918,10.231,18.625,16.957,31.906,16.957c21.259,0,38.493-17.234,38.493-38.493l-0.208-0.208H495.212z"/>
</g>
<g id="Layer_4">
	<path fill="#FF6E83" d="M96.786,319.269c-1.611,0.756-3.062,1.928-4.148,3.535c-6.913,10.227-18.616,16.95-31.89,16.95
		c-21.244,0-38.466-17.222-38.466-38.466l0.208-0.208h-0.208c28.663-104.461,123.313-181.259,236.816-181.497
		c-77.847,0.239-162.34,111.687-162.34,193.272C96.758,315.089,96.768,317.215,96.786,319.269z M495.212,301.08
		c-28.673-104.496-121.623-181.312-235.173-181.498c77.862,0.187,162.395,111.669,162.395,193.273c0,2.611-0.012,5.094-0.036,7.461
		c0.913,0.673,1.737,1.504,2.416,2.508c6.917,10.231,18.625,16.957,31.906,16.957c21.259,0,38.493-17.234,38.493-38.493
		l-0.208-0.208H495.212z M258.941,119.584c-0.154,0-0.308,0.004-0.463,0.005c-26.365,0.518-54.939,111.783-54.939,193.266
		c0,0.334,0.001,0.649,0.001,0.979c2.309,0.44,4.507,1.657,6.152,3.655c11.857,14.406,29.819,23.594,49.934,23.594
		c19.689,0,37.319-8.801,49.178-22.681c1.425-1.668,3.229-2.732,5.149-3.235c0.001-0.766,0.002-1.523,0.002-2.312
		C313.955,231.295,285.327,119.894,258.941,119.584z"/>
</g>
<g id="Layer_5">
	<path fill="#59CAFC" d="M61.678,81.864l16.711,42.054c4.023,13.266-3.468,27.282-16.737,31.305
		c-13.266,4.026-27.282-3.468-31.309-16.737c-1.498-4.941-1.4-9.976,0-14.568l16.712-42.054c1.222-4.037,5.492-6.315,9.529-5.093
		C59.103,77.537,60.953,79.532,61.678,81.864z M416.931,36.836c-4.037-1.222-8.307,1.056-9.529,5.093L390.69,83.983
		c-1.4,4.592-1.498,9.627,0,14.568c4.026,13.269,18.043,20.764,31.309,16.737c13.269-4.023,20.76-18.039,16.737-31.305
		l-16.711-42.054C421.3,39.597,419.45,37.602,416.931,36.836z M189.113,0.037c-3.878-1.174-7.979,1.014-9.154,4.892l-16.053,40.396
		c-1.345,4.411-1.439,9.248,0,13.994c3.868,12.746,17.332,19.945,30.074,16.077c12.746-3.864,19.942-17.328,16.077-30.071
		L194.006,4.929C193.309,2.689,191.532,0.772,189.113,0.037z"/>
</g>
</svg>
