<svg xmlns="http://www.w3.org/2000/svg" viewBox="0 0 512 512" enable-background="new 0 0 512 512"><path fill="#FF6E83" d="M96.786 319.27c-1.61.755-3.062 1.927-4.148 3.534-6.913 10.227-18.616 16.95-31.89 16.95-21.244 0-38.466-17.222-38.466-38.466l.208-.208h-.208c28.663-104.46 123.313-181.26 236.816-181.497-77.847.24-162.34 111.687-162.34 193.272 0 2.234.01 4.36.028 6.414zm398.426-18.19C466.54 196.584 373.59 119.768 260.04 119.582c77.86.187 162.394 111.67 162.394 193.273 0 2.61-.012 5.094-.036 7.46.913.674 1.737 1.505 2.416 2.51 6.917 10.23 18.625 16.956 31.906 16.956 21.26 0 38.493-17.232 38.493-38.49l-.208-.21h.207zm-236.27-181.496c-.155 0-.31.004-.464.005-26.365.516-54.94 111.78-54.94 193.264l.002.98c2.31.44 4.507 1.656 6.152 3.654 11.857 14.405 29.82 23.593 49.934 23.593 19.69 0 37.32-8.8 49.178-22.68 1.425-1.67 3.23-2.732 5.15-3.235v-2.312c0-81.56-28.627-192.96-55.013-193.27z"/></svg>