<?xml version="1.0" encoding="iso-8859-1"?>
<!-- Generator: Adobe Illustrator 18.1.1, SVG Export Plug-In . SVG Version: 6.00 Build 0)  -->
<!DOCTYPE svg PUBLIC "-//W3C//DTD SVG 1.1//EN" "http://www.w3.org/Graphics/SVG/1.1/DTD/svg11.dtd">
<svg version="1.1" xmlns="http://www.w3.org/2000/svg" xmlns:xlink="http://www.w3.org/1999/xlink" x="0px" y="0px"
	 viewBox="0 0 512 512" enable-background="new 0 0 512 512" xml:space="preserve">
<g id="Layer_5">
	<path fill="#E5E4DF" d="M215.353-1.166c0,0,0.952,0.011,2.734,0.032c1.71,0.059,4.987,0.438,8.47,1.497
		c3.544,1.151,7.921,3.046,12.114,6.577c4.243,3.438,8.282,8.419,11.005,14.691c2.744,6.238,4.243,13.701,3.664,21.66
		c-0.551,7.916-3.232,16.49-8.902,23.876c-5.503,7.492-14.31,13.085-23.575,15.454c-9.089,1.88-12.69,2.777-17.923,5.769
		c-4.75,2.852-8.817,6.734-11.835,11.475c-1.527,2.352-2.732,4.929-3.804,7.554c-0.962,2.671-1.758,5.412-2.225,8.203
		c-0.981,5.566-1.001,11.225-0.046,16.429c0.899,5.216,2.629,10.008,4.91,14.085c2.276,4.084,5.065,7.493,7.959,10.189
		c2.886,2.725,5.932,4.603,8.505,6.147c2.662,1.336,4.839,2.485,6.419,2.999c1.563,0.638,2.398,0.978,2.398,0.978l0.307,0.124
		c1.501,0.612,2.22,2.324,1.608,3.824c-0.47,1.153-1.597,1.844-2.771,1.825c0,0-1.003-0.019-2.88-0.055
		c-1.893-0.016-4.68-0.259-8.229-0.976c-3.481-0.878-7.898-1.993-12.43-4.631c-4.572-2.502-9.483-6.129-13.749-11.18
		c-4.275-5.021-7.911-11.356-10.269-18.582c-2.386-7.217-3.417-15.321-2.724-23.682c0.623-8.351,3.104-17.01,7.688-24.91
		c4.471-7.957,11.421-14.857,19.471-19.721c2.089-1.05,4.121-2.287,6.293-3.105c2.147-0.873,4.26-1.75,6.757-2.392
		c1.177-0.33,2.461-0.704,3.55-0.961l2.744-0.479c1.671-0.284,3.336-0.568,4.994-0.85c5.015-1.146,9.305-3.349,12.544-6.904
		c3.279-3.473,5.556-8.092,6.594-12.902c1.092-4.8,1.006-9.736,0.046-14.065c-0.953-4.349-2.683-8.188-4.918-11.163
		c-2.232-2.97-4.765-5.252-7.126-6.88c-2.528-1.539-4.225-2.58-5.945-3.218c-1.659-0.652-2.545-1-2.545-1
		c-1.524-0.6-2.274-2.322-1.674-3.847C213.017-0.463,214.159-1.177,215.353-1.166z M280.036,55.94
		c-0.717-1.156-2.236-1.511-3.392-0.794c0,0-0.455,0.283-1.309,0.812c-0.421,0.271-0.942,0.606-1.552,0.998
		c-0.607,0.348-1.321,0.875-2.119,1.606c-0.785,0.697-1.689,1.475-2.621,2.36c-0.824,0.931-1.715,1.938-2.668,3.013
		c-0.909,1.12-1.692,2.444-2.619,3.797c-0.881,1.376-1.577,2.948-2.423,4.556c-1.351,3.331-2.574,7.118-3.064,11.289
		c-0.674,4.165-0.341,8.662,0.411,13.246c0.787,4.609,2.64,9.175,5.111,13.495c1.355,2.091,2.716,4.221,4.445,6.088
		c0.818,0.971,1.639,1.947,2.607,2.776l2.503,2.255l2.358,2.123c0.348,0.336,0.891,0.746,1.075,1.021l0.678,0.848
		c0.957,0.957,1.891,2.391,2.84,3.74c1.649,2.843,3.034,5.8,3.854,8.887c0.75,3.078,1.338,6.169,1.3,9.16
		c0.113,2.997-0.281,5.833-0.749,8.481c-0.375,1.268-0.549,2.593-0.962,3.76c-0.439,1.151-0.795,2.305-1.237,3.343
		c-0.472,1.044-0.915,2.02-1.324,2.924c-0.506,0.848-0.979,1.644-1.388,2.397c-0.784,1.544-1.724,2.511-2.208,3.347
		c-0.538,0.801-0.823,1.229-0.823,1.229l-0.145,0.216c-0.462,0.694-0.564,1.602-0.193,2.416c0.572,1.249,2.048,1.799,3.299,1.228
		c0,0,0.521-0.239,1.473-0.766c0.925-0.555,2.479-1.193,4.049-2.531c0.821-0.629,1.755-1.329,2.698-2.173
		c0.879-0.92,1.829-1.915,2.843-2.979c1.883-2.272,3.734-5.095,5.366-8.441c1.445-3.391,2.756-7.28,3.193-11.566
		c0.638-4.268,0.322-8.891-0.602-13.543c-0.948-4.67-2.952-9.277-5.599-13.559c-1.445-2.063-2.838-4.133-4.868-6.177l-1.443-1.501
		c-0.502-0.529-0.836-0.731-1.264-1.113l-2.433-2.038l-2.291-1.906c-0.701-0.484-1.268-1.103-1.851-1.708
		c-1.258-1.135-2.228-2.508-3.265-3.829c-1.824-2.804-3.359-5.802-4.342-8.949c-0.92-3.147-1.493-6.364-1.487-9.458
		c-0.17-3.111,0.313-6.05,0.876-8.757c0.399-1.309,0.655-2.646,1.113-3.831c0.502-1.16,0.879-2.343,1.408-3.359
		c0.536-1.032,1.036-1.997,1.499-2.89c0.534-0.805,1.024-1.544,1.468-2.211c0.745-1.386,2.025-2.521,2.584-3.273
		c0.645-0.771,0.988-1.182,0.988-1.182C280.493,58.025,280.61,56.865,280.036,55.94z"/>
</g>
<g id="Layer_1">
</g>
</svg>
