<?xml version="1.0" encoding="iso-8859-1"?>
<!-- Generator: Adobe Illustrator 19.1.0, SVG Export Plug-In . SVG Version: 6.00 Build 0)  -->
<!DOCTYPE svg PUBLIC "-//W3C//DTD SVG 1.1//EN" "http://www.w3.org/Graphics/SVG/1.1/DTD/svg11.dtd">
<svg version="1.1" xmlns="http://www.w3.org/2000/svg" xmlns:xlink="http://www.w3.org/1999/xlink" x="0px" y="0px"
	 viewBox="0 0 511.92 511.92" enable-background="new 0 0 511.92 511.92" xml:space="preserve">
<g id="Layer_3">
	<path fill="#2B3B47" d="M365.731,179.481c13.38,0,24.227,10.847,24.227,24.227v54.313c0,13.38-10.847,0.158-24.227,0.158l0,0
		c-13.38,0-24.227,13.222-24.227-0.158v-54.313C341.504,190.328,352.351,179.481,365.731,179.481L365.731,179.481z M146.132,179.481
		c-13.38,0-24.227,10.847-24.227,24.227v54.313c0,13.38,10.847,0.158,24.227,0.158l0,0c13.38,0,24.227,13.222,24.227-0.158v-54.313
		C170.359,190.328,159.512,179.481,146.132,179.481L146.132,179.481z M254.337,376.071c17.331-0.098,33.531-7.233,44.444-19.572
		c3.711-4.196,3.318-10.605-0.878-14.316c-4.197-3.712-10.606-3.319-14.316,0.878c-7.095,8.021-17.799,12.659-29.366,12.725
		c-0.084,0.001-0.167,0.001-0.251,0.001c-11.535,0-22.251-4.54-29.434-12.476c-3.759-4.153-10.173-4.475-14.326-0.714
		c-4.153,3.758-4.473,10.172-0.715,14.325c11.026,12.183,27.217,19.15,44.475,19.15
		C254.092,376.072,254.216,376.072,254.337,376.071z"/>
</g>
<g id="Layer_1">
</g>
</svg>
