<?xml version="1.0" encoding="iso-8859-1"?>
<!-- Generator: Adobe Illustrator 19.1.0, SVG Export Plug-In . SVG Version: 6.00 Build 0)  -->
<!DOCTYPE svg PUBLIC "-//W3C//DTD SVG 1.1//EN" "http://www.w3.org/Graphics/SVG/1.1/DTD/svg11.dtd">
<svg version="1.1" xmlns="http://www.w3.org/2000/svg" xmlns:xlink="http://www.w3.org/1999/xlink" x="0px" y="0px"
	 viewBox="0 0 511.92 511.92" enable-background="new 0 0 511.92 511.92" xml:space="preserve">
<g id="Layer_2">
	<path fill="#464A4C" d="M255.856,23.976c-128.124,0-231.983,103.872-231.983,231.985c0,3.438,0.09,6.855,0.238,10.257
		C10.6,267.99,0.166,279.541,0.166,293.536c0,15.222,12.34,27.563,27.563,27.563h5.428c28.151,96.416,117.191,166.845,222.7,166.845
		c128.126,0,231.985-103.847,231.985-231.983C487.841,127.849,383.982,23.976,255.856,23.976z"/>
</g>
<g id="Layer_3">
	<path fill="#132028" d="M487.603,266.217c0.148-3.402,0.238-6.818,0.238-10.257c0-61.982-24.34-118.256-63.968-159.844
		c22.417,36.309,35.367,79.079,35.367,124.891c0,131.621-106.715,238.346-238.346,238.346c-45.801,0-88.573-12.95-124.9-35.352
		c41.608,39.603,97.882,63.942,159.862,63.942c105.51,0,194.551-70.428,222.701-166.845h5.428c15.222,0,27.563-12.34,27.563-27.563
		C511.548,279.541,501.115,267.99,487.603,266.217z"/>
</g>
<g id="Layer_4">
	<path fill="#FFFFFF" d="M371.392,175.54c14.07,0,25.475,11.406,25.475,25.475v57.112c0,14.07-11.406,0.167-25.475,0.167l0,0
		c-14.07,0-25.475,13.903-25.475-0.167v-57.112C345.917,186.945,357.323,175.54,371.392,175.54L371.392,175.54z M140.478,175.54
		c-14.07,0-25.475,11.406-25.475,25.475v57.112c0,14.07,11.406,0.167,25.475,0.167l0,0c14.07,0,25.475,13.903,25.475-0.167v-57.112
		C165.953,186.945,154.548,175.54,140.478,175.54L140.478,175.54z M254.258,382.26c18.224-0.104,35.258-7.605,46.734-20.58
		c3.902-4.412,3.489-11.151-0.923-15.054c-4.413-3.903-11.152-3.49-15.054,0.923c-7.461,8.435-18.716,13.312-30.879,13.381
		c-0.088,0.001-0.176,0.001-0.264,0.001c-12.129,0-23.397-4.773-30.951-13.119c-3.953-4.367-10.697-4.705-15.064-0.751
		c-4.367,3.952-4.704,10.696-0.751,15.063c11.594,12.811,28.619,20.137,46.767,20.137
		C254.001,382.261,254.131,382.261,254.258,382.26z"/>
</g>
<g id="Layer_5">
	<path fill="#132028" d="M348.233,272.163c-2.941,0-5.772-1.629-7.17-4.443c-1.964-3.956-0.35-8.756,3.607-10.721
		c17.015-8.449,36.449-8.698,53.317-0.686c3.99,1.895,5.688,6.666,3.793,10.656c-1.895,3.989-6.661,5.69-10.656,3.793
		c-12.41-5.896-26.749-5.689-39.341,0.564C350.642,271.895,349.429,272.163,348.233,272.163z M120.871,271.327
		c12.591-6.253,26.93-6.459,39.34-0.564c3.991,1.895,8.761,0.196,10.656-3.793c1.896-3.99,0.197-8.762-3.793-10.657
		c-16.871-8.012-36.303-7.762-53.318,0.686c-3.957,1.965-5.571,6.765-3.607,10.721c1.397,2.814,4.228,4.443,7.17,4.443
		C118.514,272.163,119.728,271.895,120.871,271.327z"/>
</g>
</svg>
