<?xml version="1.0" encoding="utf-8"?>
<!-- Generator: Adobe Illustrator 18.0.0, SVG Export Plug-In . SVG Version: 6.00 Build 0)  -->
<!DOCTYPE svg PUBLIC "-//W3C//DTD SVG 1.1 Tiny//EN" "http://www.w3.org/Graphics/SVG/1.1/DTD/svg11-tiny.dtd">
<svg version="1.1" baseProfile="tiny" id="Layer_1" xmlns="http://www.w3.org/2000/svg" xmlns:xlink="http://www.w3.org/1999/xlink"
	 x="0px" y="0px" width="511.9px" height="511.9px" viewBox="0 0 511.9 511.9" xml:space="preserve">
<path fill="#2B3B47" d="M172.8,238.8c-6.4-14.4-19.4-23.3-34-23.3c-14.6,0-27.6,8.9-34,23.3c-0.4,0.8-0.6,1.7-0.8,2.5
	c-2,4.2-1.1,9.4,2.6,12.7c4.4,3.9,11.2,3.5,15.2-0.9c4.3-4.8,10.5-7.6,17-7.6c0,0,0,0,0,0c6.5,0,12.7,2.8,17,7.6
	c2.1,2.4,5.1,3.6,8,3.6c2.5,0,5.1-0.9,7.1-2.7c3.7-3.3,4.6-8.5,2.6-12.7C173.5,240.5,173.2,239.6,172.8,238.8z"/>
<path fill="#2B3B47" d="M405.4,241.3c-0.1-0.9-0.4-1.7-0.8-2.5c-6.4-14.4-19.4-23.3-34-23.3s-27.6,8.9-34,23.3
	c-0.4,0.8-0.6,1.7-0.8,2.5c-2,4.2-1.1,9.4,2.6,12.7c4.4,3.9,11.2,3.5,15.2-0.9c4.3-4.8,10.5-7.6,17-7.6c0,0,0,0,0,0
	c6.5,0,12.7,2.8,17,7.6c2.1,2.4,5.1,3.6,8,3.6c2.5,0,5.1-0.9,7.1-2.7C406.5,250.7,407.4,245.5,405.4,241.3z"/>
<path fill="#2B3B47" d="M257.9,395.4c-24.3,0-46.5-11.4-59.3-30.5c-3.3-4.9-2-11.5,2.9-14.8c4.9-3.3,11.5-2,14.8,2.9
	c8.8,13.2,24.3,21.1,41.5,21.1c17.2,0,32.7-7.9,41.5-21.1c3.3-4.9,9.9-6.2,14.8-2.9s6.2,9.9,2.9,14.8
	C304.3,384,282.2,395.4,257.9,395.4z"/>
</svg>
