<?xml version="1.0" encoding="iso-8859-1"?>
<!-- Generator: Adobe Illustrator 18.1.1, SVG Export Plug-In . SVG Version: 6.00 Build 0)  -->
<!DOCTYPE svg PUBLIC "-//W3C//DTD SVG 1.1//EN" "http://www.w3.org/Graphics/SVG/1.1/DTD/svg11.dtd">
<svg version="1.1" xmlns="http://www.w3.org/2000/svg" xmlns:xlink="http://www.w3.org/1999/xlink" x="0px" y="0px"
	 viewBox="0 0 512 512" enable-background="new 0 0 512 512" xml:space="preserve">
<g id="Layer_2">
	<path fill="#A97DFF" d="M508.333,32.666C508.333,16.35,494.984,3,478.668,3H29.032C14.348,3,2.333,15.015,2.333,29.699v452.602
		C2.333,496.985,14.348,509,29.032,509h449.635c16.316,0,29.666-13.35,29.666-29.666V32.666z"/>
</g>
<g id="Layer_3">
	<path fill="#7F4AFF" d="M478.668,488.915H29.032c-14.684,0-26.699-12.015-26.699-26.699v20.085
		C2.333,496.985,14.348,509,29.032,509h449.635c16.316,0,29.666-13.35,29.666-29.666v-20.085
		C508.333,475.565,494.984,488.915,478.668,488.915z"/>
</g>
<g id="Layer_4">
	<path fill="#FFFFFF" d="M420.311,366.099H90.356c-10.217,0-18.5,8.283-18.5,18.5s8.283,18.5,18.5,18.5h329.954
		c10.218,0,18.5-8.283,18.5-18.5S430.528,366.099,420.311,366.099z"/>
</g>
<g id="Layer_5">
	<path fill="#FFFFFF" d="M90.356,319.103H198.63c0.008,0,0.017,0.001,0.025,0.001c0.576,0,1.152-0.034,1.725-0.087
		c0.094-0.009,0.188-0.014,0.281-0.024c0.503-0.055,1.002-0.133,1.499-0.229c0.152-0.029,0.304-0.059,0.455-0.092
		c0.465-0.101,0.927-0.219,1.384-0.356c0.151-0.045,0.299-0.096,0.448-0.145c0.43-0.141,0.856-0.294,1.276-0.467
		c0.097-0.04,0.194-0.081,0.29-0.122c0.439-0.189,0.87-0.4,1.295-0.624c0.095-0.05,0.192-0.099,0.286-0.151
		c0.454-0.25,0.898-0.52,1.332-0.809c0.07-0.047,0.138-0.095,0.208-0.143c0.877-0.602,1.708-1.284,2.484-2.047
		c0.079-0.078,0.158-0.155,0.236-0.234c0.349-0.356,0.689-0.726,1.013-1.115c0.088-0.105,0.169-0.214,0.254-0.321
		c0.129-0.162,0.261-0.32,0.386-0.487c0.067-0.09,0.12-0.185,0.184-0.276c0.229-0.319,0.446-0.645,0.654-0.978
		c0.121-0.192,0.24-0.385,0.352-0.58c0.188-0.326,0.363-0.66,0.531-0.999c0.107-0.214,0.213-0.428,0.31-0.644
		c0.146-0.325,0.278-0.656,0.405-0.991c0.091-0.239,0.182-0.478,0.263-0.719c0.106-0.318,0.199-0.642,0.288-0.968
		c0.073-0.266,0.145-0.531,0.205-0.799c0.07-0.308,0.127-0.621,0.181-0.935c0.051-0.293,0.098-0.586,0.134-0.881
		c0.037-0.298,0.063-0.599,0.085-0.901c0.023-0.314,0.04-0.627,0.047-0.941c0.003-0.147,0.022-0.29,0.022-0.438
		c0-0.16-0.02-0.315-0.024-0.473c-0.008-0.297-0.023-0.592-0.045-0.887c-0.024-0.333-0.055-0.663-0.097-0.991
		c-0.032-0.249-0.071-0.496-0.113-0.744c-0.061-0.361-0.128-0.719-0.21-1.073c-0.05-0.216-0.108-0.43-0.166-0.644
		c-0.099-0.366-0.202-0.729-0.322-1.085c-0.071-0.212-0.152-0.421-0.231-0.631c-0.129-0.342-0.262-0.682-0.411-1.014
		c-0.102-0.229-0.215-0.453-0.327-0.679c-0.149-0.299-0.299-0.597-0.464-0.886c-0.14-0.248-0.292-0.489-0.444-0.731
		c-0.162-0.258-0.325-0.514-0.5-0.763c-0.173-0.247-0.357-0.487-0.543-0.726c-0.183-0.236-0.367-0.469-0.562-0.696
		c-0.191-0.223-0.391-0.439-0.595-0.654c-0.221-0.234-0.445-0.464-0.678-0.687c-0.193-0.184-0.392-0.363-0.594-0.54
		c-0.273-0.239-0.552-0.47-0.838-0.692c-0.1-0.078-0.189-0.165-0.292-0.241c-19.895-14.814-31.304-37.514-31.304-62.277
		c0-42.781,34.805-77.585,77.585-77.585c42.781,0,77.586,34.805,77.586,77.585c0,23.452-10.247,45.059-28.238,59.866
		c-6.929,2.672-11.854,9.378-11.854,17.249c0,10.218,8.283,18.5,18.5,18.5h108.316c10.217,0,18.5-8.282,18.5-18.5
		s-8.283-18.5-18.5-18.5H354.37c10.443-17.555,16.216-37.81,16.216-58.615c0-63.183-51.403-114.585-114.586-114.585
		s-114.585,51.403-114.585,114.585c0,20.811,5.772,41.063,16.214,58.615H90.356c-10.217,0-18.5,8.282-18.5,18.5
		S80.139,319.103,90.356,319.103z"/>
</g>
</svg>
