<?xml version="1.0" encoding="iso-8859-1"?>
<!-- Generator: Adobe Illustrator 18.1.1, SVG Export Plug-In . SVG Version: 6.00 Build 0)  -->
<!DOCTYPE svg PUBLIC "-//W3C//DTD SVG 1.1//EN" "http://www.w3.org/Graphics/SVG/1.1/DTD/svg11.dtd">
<svg version="1.1" xmlns="http://www.w3.org/2000/svg" xmlns:xlink="http://www.w3.org/1999/xlink" x="0px" y="0px"
	 viewBox="0 0 512 512" enable-background="new 0 0 512 512" xml:space="preserve">
<g id="Layer_5">
	<path fill="#FFFFFF" d="M445.612,184.451c-0.587-1.133-14.725-28.056-45.975-54.626c-28.674-24.38-78.038-53.443-150.377-53.443
		c-73.598,0-119.569,10.889-158.675,37.585c-1.122,0.766-2.125,1.639-3.021,2.588c-15.005,12.434-24.58,31.202-24.58,52.167
		c0,37.349,30.385,67.734,67.734,67.734s67.734-30.385,67.734-67.734c0-19.691-8.452-37.441-21.912-49.828
		c20.362-3.787,44.1-5.511,72.72-5.511c48.463,0,90.593,14.679,125.221,43.628c26.099,21.819,38.086,44.102,38.303,44.51
		c3.299,6.318,9.74,9.94,16.414,9.94c2.863,0,5.771-0.667,8.489-2.075C446.761,204.688,450.309,193.524,445.612,184.451z
		 M130.718,199.455c-16.947,0-30.734-13.787-30.734-30.734s13.787-30.734,30.734-30.734s30.734,13.788,30.734,30.734
		S147.665,199.455,130.718,199.455z"/>
</g>
<g id="Layer_1">
</g>
</svg>
