<?xml version="1.0" encoding="iso-8859-1"?>
<!-- Generator: Adobe Illustrator 18.1.1, SVG Export Plug-In . SVG Version: 6.00 Build 0)  -->
<!DOCTYPE svg PUBLIC "-//W3C//DTD SVG 1.1//EN" "http://www.w3.org/Graphics/SVG/1.1/DTD/svg11.dtd">
<svg version="1.1" xmlns="http://www.w3.org/2000/svg" xmlns:xlink="http://www.w3.org/1999/xlink" x="0px" y="0px"
	 viewBox="0 0 512 512" enable-background="new 0 0 512 512" xml:space="preserve">
<g id="Layer_4">
	<path fill="#FFFFFF" d="M255.9,433.504c-7.872,0.001-14.884-4.981-17.472-12.421c-0.754-2.168-75.682-217.443-96.434-269.931
		c-7.073-17.888-18.074-21.658-26.005-19.22c-6.042,1.856-12.199,8.055-9.663,19.414c2.226,9.972-4.054,19.86-14.026,22.086
		c-9.97,2.226-19.859-4.053-22.085-14.026c-6.308-28.262,8.373-54.691,34.909-62.843c13.516-4.153,27.95-2.669,40.643,4.176
		c13.373,7.211,23.966,19.94,30.636,36.809c14.863,37.593,55.595,153.121,79.307,220.809
		c23.226-67.725,63.13-183.194,78.002-220.809c6.669-16.869,17.263-29.597,30.635-36.809c12.693-6.844,27.128-8.327,40.644-4.176
		c26.536,8.152,41.218,34.581,34.909,62.843c-2.226,9.972-12.112,16.257-22.086,14.026c-9.972-2.226-16.251-12.114-14.025-22.086
		c2.535-11.359-3.621-17.558-9.663-19.414c-7.936-2.438-18.933,1.331-26.005,19.22c-20.729,52.431-93.968,267.642-94.705,269.81
		c-2.544,7.477-9.553,12.515-17.45,12.542C255.943,433.504,255.921,433.504,255.9,433.504z"/>
</g>
<g id="Layer_1">
</g>
</svg>
