<?xml version="1.0" encoding="iso-8859-1"?>
<!-- Generator: Adobe Illustrator 18.1.1, SVG Export Plug-In . SVG Version: 6.00 Build 0)  -->
<!DOCTYPE svg PUBLIC "-//W3C//DTD SVG 1.1//EN" "http://www.w3.org/Graphics/SVG/1.1/DTD/svg11.dtd">
<svg version="1.1" xmlns="http://www.w3.org/2000/svg" xmlns:xlink="http://www.w3.org/1999/xlink" x="0px" y="0px"
	 viewBox="0 0 512 512" enable-background="new 0 0 512 512" xml:space="preserve">
<g id="Layer_4">
	<path fill="#FFFFFF" d="M448.574,403.488l-46.086-38.434c-6.013-5.014-15.145-0.739-15.145,7.09v18.867c0,0,0,0,0,0h-25.426
		c-22.042,0-29.756-4.325-29.756-52.798V134.597c0-36.131-29.394-65.525-65.524-65.525c-17.948,0-34.228,7.258-46.074,18.987
		c-11.846-11.729-28.127-18.987-46.074-18.987c-17.377,0-33.183,6.812-44.923,17.889c-12.773-12.185-31.248-17.889-58.01-17.889
		c-10.807,0-19.567,8.76-19.567,19.567s8.76,19.567,19.567,19.567c15.703,0,26.524,2.533,31.295,7.325
		c4.113,4.132,6.113,12.46,6.113,25.46v193.99c0,10.807,8.76,19.566,19.567,19.566s19.567-8.76,19.567-19.566V140.99
		c0-1.576-0.021-3.228-0.074-4.936c0.036-0.483,0.074-0.966,0.074-1.458c0-14.552,11.839-26.392,26.392-26.392
		s26.392,11.839,26.392,26.392V334.98c0,10.807,8.76,19.566,19.567,19.566s19.567-8.76,19.567-19.566V137.449
		c0.137-0.933,0.231-1.881,0.231-2.852c0-14.552,11.839-26.392,26.392-26.392c14.552,0,26.392,11.839,26.392,26.392v203.617
		c0,25.278,1.751,45.403,10.299,61.458c10.766,20.221,30.478,30.473,58.59,30.473h25.426c0,0,0,0,0,0v18.867
		c0,7.829,9.133,12.104,15.145,7.09l46.086-38.434C453,413.977,453,407.179,448.574,403.488z"/>
</g>
<g id="Layer_1">
</g>
</svg>
