<?xml version="1.0" encoding="iso-8859-1"?>
<!-- Generator: Adobe Illustrator 18.1.1, SVG Export Plug-In . SVG Version: 6.00 Build 0)  -->
<!DOCTYPE svg PUBLIC "-//W3C//DTD SVG 1.1//EN" "http://www.w3.org/Graphics/SVG/1.1/DTD/svg11.dtd">
<svg version="1.1" xmlns="http://www.w3.org/2000/svg" xmlns:xlink="http://www.w3.org/1999/xlink" x="0px" y="0px"
	 viewBox="0 0 512 512" enable-background="new 0 0 512 512" xml:space="preserve">
<g id="Layer_4">
	<path fill="#FFFFFF" d="M414.257,357.146c-0.662-10.196-9.466-17.929-19.66-17.262c-10.195,0.662-17.924,9.464-17.262,19.66
		c0.455,7.006-0.889,29.826-12.628,42.353c-6.274,6.695-15.069,9.95-26.887,9.95c-14.197,0-24.785-6.393-31.47-18.999
		c-15.991-30.16-9.718-96.846,55.845-193.559c9.578-14.129,19.369-31.489,19.369-53.118c0-45.776-37.241-83.018-83.018-83.018
		c-36.98,0-67.769,14.514-89.036,41.973c-26.516,34.236-37.265,87.782-31.218,149.531c-8.817-3.543-18.429-5.512-28.498-5.512
		c-42.29,0-76.694,34.405-76.694,76.694s34.405,76.694,76.694,76.694s76.695-34.405,76.695-76.694c0-3.779-0.286-7.491-0.817-11.125
		c0.336-2.349,0.228-4.801-0.403-7.242c-19.389-75.058-14.218-143.91,13.493-179.689c14.399-18.591,33.954-27.629,59.783-27.629
		c25.374,0,46.018,20.644,46.018,46.018c0,11.588-6.246,22.399-12.996,32.356c-33.117,48.854-54.726,94.56-64.224,135.85
		c-8.805,38.275-6.62,71.403,6.316,95.803c13.029,24.573,36.415,38.667,64.159,38.667c21.979,0,40.611-7.486,53.885-21.649
		C416.339,400.911,414.543,361.548,414.257,357.146z M149.795,365.532c-21.888,0-39.694-17.807-39.694-39.694
		s17.807-39.694,39.694-39.694s39.695,17.807,39.695,39.694S171.683,365.532,149.795,365.532z"/>
</g>
<g id="Layer_1">
</g>
</svg>
