<?xml version="1.0" encoding="iso-8859-1"?>
<!-- Generator: Adobe Illustrator 18.1.1, SVG Export Plug-In . SVG Version: 6.00 Build 0)  -->
<!DOCTYPE svg PUBLIC "-//W3C//DTD SVG 1.1//EN" "http://www.w3.org/Graphics/SVG/1.1/DTD/svg11.dtd">
<svg version="1.1" xmlns="http://www.w3.org/2000/svg" xmlns:xlink="http://www.w3.org/1999/xlink" x="0px" y="0px"
	 viewBox="0 0 512 512" enable-background="new 0 0 512 512" xml:space="preserve">
<g id="Layer_2">
	<path fill="#A97DFF" d="M508.333,32.666C508.333,16.35,494.984,3,478.668,3H29.032C14.348,3,2.333,15.015,2.333,29.699v452.602
		C2.333,496.985,14.348,509,29.032,509h449.635c16.316,0,29.666-13.35,29.666-29.666V32.666z"/>
</g>
<g id="Layer_3">
	<path fill="#7F4AFF" d="M478.668,488.915H29.032c-14.684,0-26.699-12.015-26.699-26.699v20.085
		C2.333,496.985,14.348,509,29.032,509h449.635c16.316,0,29.666-13.35,29.666-29.666v-20.085
		C508.333,475.565,494.984,488.915,478.668,488.915z"/>
</g>
<g id="Layer_4">
	<path fill="#FFFFFF" d="M447.683,343.279c0-37.349-30.386-67.734-67.734-67.734s-67.734,30.386-67.734,67.734
		c0,19.691,8.452,37.44,21.912,49.828c-20.362,3.787-44.1,5.511-72.72,5.511c-48.463,0-90.593-14.679-125.221-43.628
		c-26.101-21.82-38.087-44.104-38.303-44.51c-4.716-9.029-15.851-12.552-24.903-7.865c-9.074,4.697-12.622,15.86-7.925,24.935
		c0.586,1.133,14.724,28.056,45.974,54.626c28.674,24.38,78.039,53.442,150.377,53.442c73.599,0,119.569-10.889,158.675-37.585
		c1.122-0.766,2.124-1.639,3.021-2.587C438.107,383.012,447.683,364.244,447.683,343.279z M379.948,312.545
		c16.947,0,30.734,13.787,30.734,30.734c0,16.946-13.787,30.733-30.734,30.733s-30.734-13.787-30.734-30.733
		C349.214,326.332,363.001,312.545,379.948,312.545z"/>
</g>
<g id="Layer_5">
	<path fill="#FFFFFF" d="M445.612,184.451c-0.587-1.133-14.725-28.056-45.975-54.626c-28.674-24.38-78.038-53.443-150.377-53.443
		c-73.598,0-119.569,10.889-158.675,37.585c-1.122,0.766-2.125,1.639-3.021,2.588c-15.005,12.434-24.58,31.202-24.58,52.167
		c0,37.349,30.385,67.734,67.734,67.734s67.734-30.385,67.734-67.734c0-19.691-8.452-37.441-21.912-49.828
		c20.362-3.787,44.1-5.511,72.72-5.511c48.463,0,90.593,14.679,125.221,43.628c26.099,21.819,38.086,44.102,38.303,44.51
		c3.299,6.318,9.74,9.94,16.414,9.94c2.863,0,5.771-0.667,8.489-2.075C446.761,204.688,450.309,193.524,445.612,184.451z
		 M130.718,199.455c-16.947,0-30.734-13.787-30.734-30.734s13.787-30.734,30.734-30.734s30.734,13.788,30.734,30.734
		S147.665,199.455,130.718,199.455z"/>
</g>
</svg>
