<?xml version="1.0" encoding="iso-8859-1"?>
<!-- Generator: Adobe Illustrator 18.1.1, SVG Export Plug-In . SVG Version: 6.00 Build 0)  -->
<!DOCTYPE svg PUBLIC "-//W3C//DTD SVG 1.1//EN" "http://www.w3.org/Graphics/SVG/1.1/DTD/svg11.dtd">
<svg version="1.1" xmlns="http://www.w3.org/2000/svg" xmlns:xlink="http://www.w3.org/1999/xlink" x="0px" y="0px"
	 viewBox="0 0 512 512" enable-background="new 0 0 512 512" xml:space="preserve">
<g id="Layer_4">
	<path fill="#00D1AE" d="M182.448,286.662l-22.433-120.159c-1.341-7.183-9.247-11.023-15.722-7.634L35.993,215.547
		c-7.904,4.136-7.733,15.508,0.292,19.405l22.597,10.973L6.445,353.91c-2.475,5.096-2.831,10.883-1.14,16.145
		c0.061,0.912,2.342,4.998,2.342,4.998l47.811,75.315c3.327,5.241,9.111,8.408,15.319,8.386l4.65-0.016l70.786-0.243
		c11.998-0.041,21.659-9.858,21.509-21.855l-0.649-51.911c-0.148-11.846-9.816-21.358-21.662-21.315l-37.659,0.138l36.72-76.068
		l22.547,10.948C175.043,302.33,184.086,295.432,182.448,286.662z"/>
</g>
<g id="Layer_1">
</g>
</svg>
