<?xml version="1.0" encoding="iso-8859-1"?>
<!-- Generator: Adobe Illustrator 18.1.1, SVG Export Plug-In . SVG Version: 6.00 Build 0)  -->
<!DOCTYPE svg PUBLIC "-//W3C//DTD SVG 1.1//EN" "http://www.w3.org/Graphics/SVG/1.1/DTD/svg11.dtd">
<svg version="1.1" xmlns="http://www.w3.org/2000/svg" xmlns:xlink="http://www.w3.org/1999/xlink" x="0px" y="0px"
	 viewBox="0 0 512 512" enable-background="new 0 0 512 512" xml:space="preserve">
<g id="Layer_2">
	<path fill="#FFB636" d="M12.51,470.379L234.371,16.008c6.439-13.187,25.17-13.363,31.855-0.299l232.51,454.371
		c6.064,11.849-2.542,25.92-15.853,25.92H28.512C15.348,496,6.734,482.209,12.51,470.379z"/>
</g>
<g id="Layer_3">
	<path fill="#2B3B47" d="M284.332,173L272.15,336.498c-0.911,12.233-11.567,21.411-23.8,20.499
		c-11.116-0.828-19.706-9.707-20.499-20.499L215.668,173c-1.413-18.961,12.813-35.478,31.774-36.89s35.478,12.813,36.89,31.774
		C284.456,169.546,284.441,171.384,284.332,173z M250,391.873c-17.432,0-31.564,14.131-31.564,31.564
		C218.436,440.869,232.568,455,250,455s31.564-14.131,31.564-31.564C281.564,406.004,267.432,391.873,250,391.873z"/>
</g>
</svg>
