<?xml version="1.0" encoding="iso-8859-1"?>
<!-- Generator: Adobe Illustrator 18.1.1, SVG Export Plug-In . SVG Version: 6.00 Build 0)  -->
<!DOCTYPE svg PUBLIC "-//W3C//DTD SVG 1.1//EN" "http://www.w3.org/Graphics/SVG/1.1/DTD/svg11.dtd">
<svg version="1.1" xmlns="http://www.w3.org/2000/svg" xmlns:xlink="http://www.w3.org/1999/xlink" x="0px" y="0px"
	 viewBox="0 0 512 512" enable-background="new 0 0 512 512" xml:space="preserve">
<g id="Layer_2">
	<path fill="#E5E4DF" d="M256,491.427c-129.815,0-235.427-105.612-235.427-235.427C20.573,126.185,126.185,20.573,256,20.573
		s235.427,105.612,235.427,235.428C491.427,385.815,385.815,491.427,256,491.427z"/>
</g>
<g id="Layer_3">
	<path fill="#464A4C" d="M425.78,418.927l-24.498-42.432l26.671-46.196h51.451c7.791-23.367,12.023-48.346,12.023-74.298
		c0-26.017-4.251-51.058-12.08-74.475h-51.495l-26.569-46.021l24.497-42.431c-34.536-35.975-80.361-61.023-131.716-69.408
		L272.462,61.08h-53.255l-19.456-33.699c-50.168,12.346-94.063,40.807-125.849,79.57l16.414,28.429l-26.642,46.145h-31.02
		c-7.829,23.417-12.08,48.458-12.08,74.475c0,25.952,4.232,50.931,12.023,74.298h31.026l26.718,46.278l-16.438,28.472
		c31.786,38.763,75.681,67.224,125.849,79.57l19.506-33.785h53.156l21.651,37.501C345.419,479.95,391.244,454.902,425.78,418.927z
		 M385.798,144.394l26.565,46.011l-32.724,56.679h-45.808l-36.295-62.865l22.993-39.825H385.798z M219.264,78.836h53.142
		l32.724,56.679l-22.986,39.811h-72.54l-23.024-39.879L219.264,78.836z M105.769,144.394h65.407l23.016,39.867l-36.271,62.823
		h-46.16l-32.64-56.534L105.769,144.394z M105.77,367.606L79.07,321.364l32.589-56.447h46.363l36.22,62.734l-23.068,39.955H105.77z
		 M272.462,433.065h-53.255l-32.653-56.556l23.101-40.011h72.386l23.087,39.987L272.462,433.065z M320.579,367.606l-23.068-39.956
		l36.219-62.733h46.011l32.648,56.547l-26.64,46.142H320.579z"/>
</g>
</svg>
