<?xml version="1.0" encoding="iso-8859-1"?>
<!-- Generator: Adobe Illustrator 19.1.0, SVG Export Plug-In . SVG Version: 6.00 Build 0)  -->
<!DOCTYPE svg PUBLIC "-//W3C//DTD SVG 1.1//EN" "http://www.w3.org/Graphics/SVG/1.1/DTD/svg11.dtd">
<svg version="1.1" xmlns="http://www.w3.org/2000/svg" xmlns:xlink="http://www.w3.org/1999/xlink" x="0px" y="0px"
	 viewBox="0 0 512 512" enable-background="new 0 0 512 512" xml:space="preserve">
<g id="Layer_9">
	<path fill="#E53939" d="M170.608,163.011c-2.995,0-5.972-1.266-8.07-3.722c-3.803-4.456-3.275-11.153,1.181-14.953
		c24.011-20.489,51.562-35.743,81.887-45.336c24.096-7.62,48.899-11.349,74.067-11.018c5.854,0.071,10.544,4.879,10.469,10.737
		c-0.074,5.813-4.805,10.476-10.605,10.476c-0.041,0-0.088-0.003-0.135-0.003c-22.779-0.274-45.461,3.096-67.401,10.036
		c-27.605,8.73-52.671,22.607-74.51,41.241C175.491,162.176,173.045,163.011,170.608,163.011z"/>
</g>
<g id="Layer_1">
</g>
</svg>
