<?xml version="1.0" encoding="iso-8859-1"?>
<!-- Generator: Adobe Illustrator 19.1.0, SVG Export Plug-In . SVG Version: 6.00 Build 0)  -->
<!DOCTYPE svg PUBLIC "-//W3C//DTD SVG 1.1//EN" "http://www.w3.org/Graphics/SVG/1.1/DTD/svg11.dtd">
<svg version="1.1" xmlns="http://www.w3.org/2000/svg" xmlns:xlink="http://www.w3.org/1999/xlink" x="0px" y="0px"
	 viewBox="0 0 512 512" enable-background="new 0 0 512 512" xml:space="preserve">
<g id="Layer_2">
	<path fill="#4C311E" d="M425.325,218.576c-4.277-4.277-11.318-4.277-15.595,0L386,242.195V224.17c0-6.047-4.95-10.95-11-10.95
		c-6.05,0-11,4.903-11,10.95v39.925l-32.282,32.443c-4.277,4.277-4.196,11.207,0.081,15.484c2.138,2.139,4.981,3.208,7.782,3.208
		s5.624-1.069,7.762-3.208l30.457-30.447l27.218,11.484c1.387,0.582,2.838,0.859,4.253,0.859c4.27,0,8.332-2.511,10.098-6.693
		c2.348-5.57-0.263-11.992-5.833-14.347l-19.012-8.017l30.801-30.801C429.602,229.784,429.602,222.854,425.325,218.576z"/>
</g>
<g id="Layer_3">
	<path fill="#E5E4DF" d="M362.033,299.556c-3.749-28.865-19.351-54.006-41.771-70.372c-6.299-4.594-7.279-13.572-2.327-19.59
		l-0.547-0.001c11.676-14.185,18.689-32.352,18.689-52.158c0-45.359-36.771-82.129-82.129-82.129
		c-45.359,0-82.129,36.77-82.129,82.129c0,26.055,12.146,49.258,31.07,64.304c-0.763,2.979-2.499,5.728-5.184,7.705
		c-22.233,16.37-37.693,41.397-41.423,70.11c-24.465,20.259-39.496,47.73-39.496,77.984c0,62.306,63.741,112.815,142.371,112.815
		c78.629,0,142.371-50.509,142.371-112.815C401.527,347.285,386.496,319.815,362.033,299.556z"/>
</g>
<g id="Layer_4">
	<path fill="#FFB636" d="M291.378,164.887c0,0,0.464,0.312,1.226,0.922c0.403,0.291,0.832,0.714,1.352,1.164
		c0.527,0.443,1.095,0.977,1.705,1.58c0.603,0.617,1.261,1.275,1.934,2.017c0.672,0.735,1.386,1.504,2.12,2.301
		c1.476,1.601,3.043,3.306,4.615,5.004c1.58,1.691,3.112,3.458,4.567,5.08c1.448,1.635,2.82,3.132,3.957,4.484
		c2.287,2.668,3.811,4.442,3.811,4.442c1.282,1.49,1.109,3.735-0.381,5.01c-0.887,0.762-2.058,1.005-3.112,0.769
		c0,0-2.287-0.527-5.71-1.317c-1.718-0.374-3.68-0.894-5.801-1.414c-2.113-0.541-4.393-1.074-6.618-1.691
		c-2.238-0.603-4.477-1.199-6.576-1.76c-1.053-0.284-2.065-0.554-3.028-0.811c-0.964-0.249-1.857-0.527-2.682-0.776
		c-0.818-0.263-1.552-0.513-2.19-0.769c-0.638-0.256-1.22-0.443-1.656-0.658c-0.901-0.395-1.386-0.658-1.386-0.658
		c-6.508-3.541-8.905-11.684-5.364-18.184c3.534-6.5,11.677-8.898,18.178-5.364C290.691,164.451,291.052,164.673,291.378,164.887"/>
</g>
<g id="Layer_5">
	<path fill="#132028" d="M242.398,130.782c6.188,0,11.205,5.017,11.205,11.206v13.77c0,6.188-5.017,11.206-11.205,11.206
		c-6.189,0-11.206-5.017-11.206-11.206v-13.77C231.192,135.799,236.21,130.782,242.398,130.782 M314.92,130.782
		c-6.189,0-11.206,5.017-11.206,11.206v13.77c0,6.188,5.017,11.206,11.206,11.206c6.188,0,11.205-5.017,11.205-11.206v-13.77
		C326.125,135.799,321.108,130.782,314.92,130.782 M297.385,283.697c0-5.807-4.706-10.513-10.513-10.513
		c-5.8,0-10.506,4.705-10.506,10.513c0,5.807,4.706,10.513,10.506,10.513C292.679,294.21,297.385,289.504,297.385,283.697
		 M297.385,349.388c0-5.807-4.706-10.513-10.513-10.513c-5.8,0-10.506,4.705-10.506,10.513c0,5.807,4.706,10.513,10.506,10.513
		C292.679,359.9,297.385,355.195,297.385,349.388"/>
</g>
<g id="Layer_6">
	<path fill="#4C311E" d="M195.795,294.969l-39.952-22.575l-10.689-38.463c-1.619-5.826-7.653-9.238-13.482-7.618
		c-5.829,1.62-9.237,7.656-7.618,13.482l4.825,17.363l-29.075-16.429c-5.266-2.976-11.943-1.12-14.919,4.146
		s-1.12,11.943,4.146,14.919l37.133,20.982l-18.049,12.901c-4.923,3.517-6.056,10.358-2.54,15.274
		c2.749,3.851,7.529,5.381,11.839,4.183c1.2-0.333,2.363-0.874,3.435-1.643l26.345-18.833l37.828,21.375
		c2.633,1.488,5.619,1.768,8.318,1.018c2.699-0.75,5.113-2.531,6.6-5.164C202.916,304.621,201.061,297.944,195.795,294.969z"/>
</g>
<g id="Layer_7">
	<path fill="#FF473E" d="M331.986,212h-87.886c-1.467-6-7.259-11-14.149-11h-7.047c-6.884,0-12.68,5-14.149,11H187.92
		c-8.718,0-15.92,7.496-15.92,16.214v0.582c0,8.718,7.201,16.203,15.92,16.203H208v69.536c0,7.983,6.92,14.464,14.903,14.464h7.047
		c7.99,0,14.05-6.481,14.05-14.464V245h87.986c8.717,0,16.014-7.486,16.014-16.203v-0.582C348,219.496,340.703,212,331.986,212z"/>
</g>
<g id="Layer_8">
	<path fill="#FF473E" d="M323.48,103.02c-11.998-37.925-49.227-60.844-87.329-56.154c0.578-2.212,0.808-4.552,0.582-6.96
		c-1.039-11.074-10.858-19.209-21.932-18.17c-11.074,1.039-19.209,10.858-18.17,21.932c0.543,5.789,3.498,10.757,7.765,14.049
		c-31.709,18.856-47.503,57.639-35.895,94.331c3.315,10.477,34.666-22.435,73.795-34.749
		C280.686,105.218,326.933,113.935,323.48,103.02z"/>
</g>
<g id="Layer_9">
	<path fill="#E53939" d="M170.608,163.011c-2.995,0-5.972-1.266-8.07-3.722c-3.803-4.456-3.275-11.153,1.181-14.953
		c24.011-20.489,51.562-35.743,81.887-45.336c24.096-7.62,48.899-11.349,74.067-11.018c5.854,0.071,10.544,4.879,10.469,10.737
		c-0.074,5.813-4.805,10.476-10.605,10.476c-0.041,0-0.088-0.003-0.135-0.003c-22.779-0.274-45.461,3.096-67.401,10.036
		c-27.605,8.73-52.671,22.607-74.51,41.241C175.491,162.176,173.045,163.011,170.608,163.011z"/>
</g>
</svg>
