<svg xmlns="http://www.w3.org/2000/svg" viewBox="0 0 512 512" enable-background="new 0 0 512 512"><path fill="#FFB636" d="M267.524 172.44s.475.32 1.262.948c.406.293.85.73 1.386 1.19.537.457 1.12 1.007 1.747 1.627.62.63 1.292 1.308 1.98 2.066l2.18 2.365 4.732 5.136c1.622 1.73 3.192 3.55 4.69 5.21 1.487 1.678 2.89 3.217 4.056 4.6l3.914 4.56c1.312 1.527 1.137 3.83-.39 5.142-.91.78-2.11 1.03-3.196.788l-5.856-1.35c-1.766-.388-3.78-.917-5.958-1.456-2.167-.554-4.505-1.1-6.792-1.732l-6.747-1.806-3.104-.83c-.99-.258-1.905-.54-2.75-.797-.84-.268-1.6-.53-2.25-.793-.657-.26-1.25-.45-1.7-.675-.923-.404-1.425-.677-1.425-.677-6.67-3.632-9.135-11.984-5.503-18.655 3.632-6.67 11.984-9.135 18.655-5.503.36.198.73.423 1.066.646zM152.83 302.04l-33.296-33.297V227.78c0-6.206-5.03-11.236-11.235-11.236s-11.237 5.03-11.237 11.235v18.492l-24.23-24.23c-4.387-4.387-11.5-4.387-15.888 0-4.387 4.388-4.387 11.5 0 15.89l24.23 24.23H60.663c-6.205 0-11.235 5.028-11.235 11.233s5.03 11.234 11.235 11.234h42.98l33.3 33.297c2.193 2.194 5.068 3.29 7.943 3.29s5.75-1.097 7.944-3.29c4.388-4.386 4.388-11.5 0-15.887zm288.482-39.877H420.8l24.23-24.23c4.387-4.388 4.387-11.5 0-15.89-4.39-4.387-11.5-4.387-15.89 0l-24.23 24.23V227.78c0-6.206-5.03-11.236-11.234-11.236s-11.234 5.03-11.234 11.235v40.962l-33.298 33.298c-4.388 4.39-4.388 11.502 0 15.89 2.193 2.193 5.07 3.29 7.944 3.29s5.75-1.097 7.944-3.29l33.298-33.298h42.98c6.206 0 11.235-5.03 11.235-11.234s-5.028-11.235-11.233-11.235z"/></svg>