<?xml version="1.0" encoding="iso-8859-1"?>
<!-- Generator: Adobe Illustrator 18.1.1, SVG Export Plug-In . SVG Version: 6.00 Build 0)  -->
<!DOCTYPE svg PUBLIC "-//W3C//DTD SVG 1.1//EN" "http://www.w3.org/Graphics/SVG/1.1/DTD/svg11.dtd">
<svg version="1.1" xmlns="http://www.w3.org/2000/svg" xmlns:xlink="http://www.w3.org/1999/xlink" x="0px" y="0px"
	 viewBox="0 0 512 512" enable-background="new 0 0 512 512" xml:space="preserve">
<g id="Layer_2">
	<path fill="#A97DFF" d="M508.333,32.666C508.333,16.35,494.984,3,478.668,3H29.032C14.348,3,2.333,15.015,2.333,29.699v452.602
		C2.333,496.985,14.348,509,29.032,509h449.635c16.316,0,29.666-13.35,29.666-29.666V32.666z"/>
</g>
<g id="Layer_3">
	<path fill="#7F4AFF" d="M478.668,488.915H29.032c-14.684,0-26.699-12.015-26.699-26.699v20.085
		C2.333,496.985,14.348,509,29.032,509h449.635c16.316,0,29.666-13.35,29.666-29.666v-20.085
		C508.333,475.565,494.984,488.915,478.668,488.915z"/>
</g>
<g id="Layer_4">
	<path fill="#FFFFFF" d="M443.658,211.196c-19.908-21.507-46.654-36.33-75.312-41.738c-0.268-0.051-0.538-0.094-0.807-0.143v-70.67
		c0-10.217-8.282-18.5-18.5-18.5c-10.217,0-18.5,8.283-18.5,18.5v68.993c-17.366,1.545-34.401,6.343-49.984,14.248
		c-14.589,7.401-27.642,17.263-38.797,29.31c0,0,0,0,0,0c-8.168,8.821-17.719,16.038-28.388,21.45
		c-10.37,5.26-21.629,8.62-33.152,10.031V98.645c0-10.217-8.283-18.5-18.5-18.5s-18.5,8.283-18.5,18.5v141.724
		c-18.649-4.746-35.892-14.949-49.058-29.173c-6.941-7.498-18.646-7.95-26.144-1.009c-7.498,6.941-7.95,18.646-1.009,26.144
		c19.909,21.506,46.655,36.33,75.312,41.737c0.299,0.056,0.599,0.104,0.899,0.159v49.156c0,61.846,50.315,112.16,112.16,112.16
		s112.161-50.314,112.161-112.16V207.181c18.613,4.756,35.821,14.95,48.966,29.149c3.646,3.939,8.605,5.933,13.581,5.933
		c4.495,0,9.003-1.629,12.562-4.924C450.147,230.399,450.599,218.694,443.658,211.196z M255.379,402.542
		c-41.443,0-75.16-33.717-75.16-75.16v-47.498c17.334-1.554,34.336-6.352,49.892-14.242c14.589-7.402,27.642-17.263,38.797-29.309
		c0.001-0.001,0.002-0.002,0.003-0.004c8.167-8.82,17.717-16.036,28.385-21.448c10.397-5.275,21.688-8.638,33.244-10.043v122.543
		C330.54,368.825,296.823,402.542,255.379,402.542z"/>
</g>
</svg>
