<?xml version="1.0" encoding="iso-8859-1"?>
<!-- Generator: Adobe Illustrator 18.1.1, SVG Export Plug-In . SVG Version: 6.00 Build 0)  -->
<!DOCTYPE svg PUBLIC "-//W3C//DTD SVG 1.1//EN" "http://www.w3.org/Graphics/SVG/1.1/DTD/svg11.dtd">
<svg version="1.1" xmlns="http://www.w3.org/2000/svg" xmlns:xlink="http://www.w3.org/1999/xlink" x="0px" y="0px"
	 viewBox="0 0 512 512" enable-background="new 0 0 512 512" xml:space="preserve">
<g id="Layer_2">
	<path fill="#369E65" d="M510.748,443.907c0,66.292-113.436,68.014-253.366,68.014S4.017,517.087,4.017,443.907
		c0-87.964,113.436-131.506,253.366-131.506S510.748,355.943,510.748,443.907z"/>
</g>
<g id="Layer_3">
	<path fill="#15844A" d="M411.483,334.899c-25.341-8.911-54.456-15.169-86.066-18.782c-12.504,3.081-25.055,6.466-37.39,10.119
		c-33.261,9.85-63.385,21.146-87.117,32.667c-29.004,14.081-48.383,28.15-59.245,43.014l28.143,20.566
		c14.531-19.885,62.426-43.371,128.118-62.826C336.95,348.1,377.88,339.302,411.483,334.899z"/>
</g>
<g id="Layer_4">
	<ellipse fill="#2B3B47" cx="155.737" cy="407.58" rx="79.98" ry="41.222"/>
</g>
<g id="Layer_5">
	<path fill="#D19B61" d="M155.737,436.564c-6.383,0-11.557-5.174-11.557-11.557V23.059c0-6.383,5.174-11.557,11.557-11.557
		s11.557,5.174,11.557,11.557v401.949C167.293,431.391,162.12,436.564,155.737,436.564z"/>
</g>
<g id="Layer_6">
	<path fill="#FF473E" d="M155.737,32.526v99.491c0,8.351,4.863,11.619,10.83,7.284c17.542-12.745,54.644-32.918,98.393-14.269
		c54.514,23.238,84.668-10.38,102.696-49.17c2.431-5.23-0.303-11.748-5.26-12.552c-15.39-2.494-46.076-10.442-77.115-35.665
		c-37.755-30.681-78.71-34.885-125.924-2.544C157.373,26.46,155.737,29.792,155.737,32.526z"/>
</g>
</svg>
