<?xml version="1.0" encoding="utf-8"?>
<!-- Generator: Adobe Illustrator 18.0.0, SVG Export Plug-In . SVG Version: 6.00 Build 0)  -->
<!DOCTYPE svg PUBLIC "-//W3C//DTD SVG 1.1 Tiny//EN" "http://www.w3.org/Graphics/SVG/1.1/DTD/svg11-tiny.dtd">
<svg version="1.1" baseProfile="tiny" id="Layer_1" xmlns="http://www.w3.org/2000/svg" xmlns:xlink="http://www.w3.org/1999/xlink"
	 x="0px" y="0px" width="511.9px" height="512.4px" viewBox="0 0 511.9 512.4" xml:space="preserve">
<path fill="#FFD3B6" d="M472.9,241.8c-10.9-9.7-35-23.1-84.5,24.5c-9.2,8.8-14.7,12-21.7,19.6V51.1c0-15.2-12-27.6-27.3-27.6
	c-15.3,0-27.7,12.4-27.7,27.6v139c0,0.1,0,0.2,0,0.3c0,13-16.8,14.1-19.7,3.4V27.6c0-15.2-12-27.6-27.3-27.6
	c-15.3,0-27.7,12.3-27.7,27.6v166.7c-2.1,10.2-17.1,9.8-18.2-1.2V47.5c0-15.2-12-27.5-27.3-27.5c-15.3,0-27.7,12.3-27.7,27.5v143.3
	c-0.1,0.2-0.1,0.5-0.1,1c0,12.5-16.1,13.6-19,3.5V92.7c0-15.2-12-27.5-27.3-27.5c-15.3,0-27.7,12.3-27.7,27.5v241.4
	c0,49,28.8,91.3,70.4,110.9v39.2c0,15.2,12.4,27.6,27.6,27.6h110.4c15.2,0,27.6-12.4,27.6-27.6v-27.8c18.3-2.1,34.3-11.8,44.7-25.9
	c0.2-0.2,0.3-0.4,0.4-0.6c0.3-0.4,0.6-0.8,0.8-1.2c0.9-1,2-2.8,3.3-5.4c0.7-1.2,1.3-2.4,1.9-3.7c12.7-25.7,41.7-95.3,93.7-140.3
	C481.2,268.6,483.8,251.5,472.9,241.8z"/>
</svg>
