<?xml version="1.0" encoding="iso-8859-1"?>
<!-- Generator: Adobe Illustrator 18.1.1, SVG Export Plug-In . SVG Version: 6.00 Build 0)  -->
<!DOCTYPE svg PUBLIC "-//W3C//DTD SVG 1.1//EN" "http://www.w3.org/Graphics/SVG/1.1/DTD/svg11.dtd">
<svg version="1.1" xmlns="http://www.w3.org/2000/svg" xmlns:xlink="http://www.w3.org/1999/xlink" x="0px" y="0px"
	 viewBox="0 0 512 512" enable-background="new 0 0 512 512" xml:space="preserve">
<g id="Layer_2">
	<path fill="#2B2622" d="M478.507,435.281l23.617,55.765c1.768,4.174-0.183,8.99-4.357,10.758c-2.121,0.898-4.432,0.826-6.401,0
		l-55.765-23.617c-16.646-7.05-24.426-26.259-17.376-42.906c7.05-16.646,26.259-24.426,42.906-17.376
		C469.255,421.346,475.3,427.76,478.507,435.281z"/>
</g>
<g id="Layer_3">
	<path fill="#E5AA6E" d="M447.855,357.41l43.144,106.593l-26.676,26.676L357.73,447.535L447.855,357.41z"/>
</g>
<g id="Layer_4">
	<path fill="#FFD469" d="M181.099,88.77l264.484,264.484c2.812,2.812,2.812,7.371,0,10.182l-81.827,81.827
		c-2.812,2.812-7.371,2.812-10.182,0L89.09,180.779c-6.025-6.025-6.025-15.794,0-21.819l70.191-70.191
		C165.306,82.744,175.074,82.744,181.099,88.77z"/>
</g>
<g id="Layer_5">
	<path fill="#FF6E83" d="M113.459,21.129l33.615,33.615c2.812,2.812,2.812,7.371,0,10.182l-81.827,81.827
		c-2.812,2.812-7.371,2.812-10.182,0L21.45,113.138c-14.522-14.522-14.522-38.066,0-52.588l39.421-39.421
		C75.393,6.607,98.937,6.607,113.459,21.129z"/>
</g>
<g id="Layer_6">
	<path fill="#B9C5C6" d="M207.739,115.409l-92.009,92.009L52.921,144.61L144.93,52.6L207.739,115.409z"/>
</g>
<g id="Layer_7">
	<path fill="#96A9B2" d="M76.014,167.702l-8.33-8.33l92.009-92.009l8.33,8.33L76.014,167.702z M191.134,98.804l-8.33-8.33
		l-92.009,92.009l8.33,8.33L191.134,98.804z"/>
</g>
</svg>
