<?xml version="1.0" encoding="iso-8859-1"?>
<!-- Generator: Adobe Illustrator 18.1.1, SVG Export Plug-In . SVG Version: 6.00 Build 0)  -->
<!DOCTYPE svg PUBLIC "-//W3C//DTD SVG 1.1//EN" "http://www.w3.org/Graphics/SVG/1.1/DTD/svg11.dtd">
<svg version="1.1" xmlns="http://www.w3.org/2000/svg" xmlns:xlink="http://www.w3.org/1999/xlink" x="0px" y="0px"
	 viewBox="0 0 512 512" enable-background="new 0 0 512 512" xml:space="preserve">
<g id="Layer_2">
	<path fill="#96A9B2" d="M511.96,425.623c-0.076,0.14-0.204,0.238-0.287,0.374c-6.971,18.262-24.524,31.291-45.241,31.291H45.711
		c-1.579,0-3.044-0.37-4.584-0.517h-0.612c-0.159-0.019-0.287-0.102-0.446-0.121c-10.136-1.193-19.259-5.374-26.495-11.827
		c-0.136-0.121-0.317-0.177-0.453-0.298l0.083-0.064c-1.707-1.556-3.482-3.051-4.955-4.837c-3.452-4.184-6.216-8.965-8.119-14.158
		c-0.03-0.042-0.068-0.072-0.091-0.117l0.045-0.038c-1.873-5.174,220.659-173.311,220.659-173.311
		c27.59-20.913,42.265-20.589,70.164,0c0,0,222.857,168.273,220.916,173.519L511.96,425.623z"/>
</g>
<g id="Layer_3">
	<path fill="#B9C5C6" d="M256.133,232.687L1.216,423.874V153.025c0-26.4,21.397-47.797,47.797-47.797h414.24
		c26.4,0,47.797,21.397,47.797,47.797v270.849L256.133,232.687z"/>
</g>
<g id="Layer_4">
	<path fill="#DCE2E2" d="M3.984,136.661c0.074-0.138,0.201-0.234,0.283-0.368c6.864-17.981,24.146-30.809,44.543-30.809h414.238
		c1.554,0,2.997,0.364,4.514,0.509h0.602c0.156,0.019,0.283,0.1,0.439,0.119c9.979,1.175,18.963,5.291,26.086,11.645
		c0.134,0.119,0.312,0.175,0.446,0.294l-0.082,0.063c1.681,1.532,3.428,3.004,4.878,4.763c3.398,4.12,6.12,8.827,7.994,13.939
		c0.03,0.041,0.067,0.071,0.089,0.115l-0.045,0.037c1.844,5.094-217.258,170.64-217.258,170.64
		c-27.165,20.591-41.613,20.271-69.083,0c0,0-219.422-165.68-217.511-170.845L3.984,136.661z"/>
</g>
</svg>
