<?xml version="1.0" encoding="utf-8"?>
<!-- Generator: Adobe Illustrator 18.1.0, SVG Export Plug-In . SVG Version: 6.00 Build 0)  -->
<!DOCTYPE svg PUBLIC "-//W3C//DTD SVG 1.0//EN" "http://www.w3.org/TR/2001/REC-SVG-20010904/DTD/svg10.dtd">
<svg version="1.0" id="Layer_1" xmlns="http://www.w3.org/2000/svg" xmlns:xlink="http://www.w3.org/1999/xlink" x="0px" y="0px"
	 width="72px" height="72px" viewBox="0 0 72 72" enable-background="new 0 0 72 72" xml:space="preserve">
<path fill="#FFD3B6" d="M53.3,0.3c-2.5-0.4-4.8,1.3-5.2,3.8L45,23.6v0c-0.3,1.6-1.4,1.9-1.7,0.4c0-0.1,0-0.1,0-0.1
	c-1.2-8.4-2.7-19.3-2.7-19.3c-0.3-2.5-2.6-4.2-5.1-3.9c-2.5,0.3-4.2,2.6-3.9,5.1l2.7,19.4c0.2,1.7-1.2,2.2-2.6,0.8
	c-0.8-0.9-2-1.4-3.3-1.4c-1.4,0-2.6,0.6-3.4,1.5c-0.7,0.6-1.3,0.6-2.1-0.1c-0.8-0.9-2-1.4-3.3-1.4c-2.6,0-4.6,2.1-4.6,4.6v7.2v2
	c0,1.3,0.6,2.4,1.4,3.2v9.2c0,4,1.8,7.6,4.7,10V69c0,1.7,1.3,3,3,3h18.9c1.7,0,3-1.3,3-3v-6.4c5.1-2.1,8.4-6.9,8.4-13.2
	c0-0.3,0-0.6,0-0.9c0,0,0-0.1,0-0.1c0-8.7-1.7-11.7-1.7-14.5s4.3-28.4,4.3-28.4C57.5,3,55.8,0.7,53.3,0.3z"/>
</svg>
