<?xml version="1.0" encoding="iso-8859-1"?>
<!-- Generator: Adobe Illustrator 19.1.0, SVG Export Plug-In . SVG Version: 6.00 Build 0)  -->
<!DOCTYPE svg PUBLIC "-//W3C//DTD SVG 1.1//EN" "http://www.w3.org/Graphics/SVG/1.1/DTD/svg11.dtd">
<svg version="1.1" xmlns="http://www.w3.org/2000/svg" xmlns:xlink="http://www.w3.org/1999/xlink" x="0px" y="0px"
	 viewBox="0 0 512 512" enable-background="new 0 0 512 512" xml:space="preserve">
<g id="Layer_5">
	<path fill="#FFD469" d="M403.416,223.955c0.073-0.104,0.147-0.208,0.216-0.315c9.851-14.117-5.223-48.099-35.188-78.064
		c-29.966-29.966-63.949-45.039-78.065-35.187c-0.105,0.068-0.208,0.141-0.311,0.213c-0.127,0.094-0.259,0.183-0.383,0.281
		c-0.348,0.268-0.688,0.551-1.007,0.87l-0.161,0.161c0,0,0,0-0.001,0s0,0,0,0.001L108.477,291.954c0,0-50.978,126.152-31.77,145.359
		s145.359-31.77,145.359-31.77l180.2-180.2c0.319-0.319,0.603-0.659,0.871-1.008C403.234,224.212,403.322,224.081,403.416,223.955z"
		/>
</g>
<g id="Layer_1">
</g>
</svg>
