<?xml version="1.0" encoding="iso-8859-1"?>
<!-- Generator: Adobe Illustrator 19.1.0, SVG Export Plug-In . SVG Version: 6.00 Build 0)  -->
<!DOCTYPE svg PUBLIC "-//W3C//DTD SVG 1.1//EN" "http://www.w3.org/Graphics/SVG/1.1/DTD/svg11.dtd">
<svg version="1.1" xmlns="http://www.w3.org/2000/svg" xmlns:xlink="http://www.w3.org/1999/xlink" x="0px" y="0px"
	 viewBox="0 0 512 512" enable-background="new 0 0 512 512" xml:space="preserve">
<g id="Layer_6">
	<path fill="#E5AA6E" d="M108.477,291.954l-4.002,24.94c-0.589,3.668,2.588,6.835,6.254,6.237l17.873-2.919
		c3.53-0.576,6.647,2.349,6.296,5.908l-1.99,20.174c-0.349,3.542,2.737,6.461,6.253,5.915l18.063-2.802
		c3.693-0.573,6.853,2.66,6.195,6.339l-3.09,17.282c-0.636,3.559,2.309,6.739,5.906,6.376l20.33-2.05
		c3.43-0.346,6.314,2.542,5.963,5.971l-2.096,20.51c-0.361,3.529,2.696,6.455,6.206,5.941l25.871-3.79L76.709,466.995
		c11.631-11.631-18.485-41.748-30.117-30.117L108.477,291.954z"/>
</g>
<g id="Layer_1">
</g>
</svg>
