<?xml version="1.0" encoding="iso-8859-1"?>
<!-- Generator: Adobe Illustrator 18.1.1, SVG Export Plug-In . SVG Version: 6.00 Build 0)  -->
<!DOCTYPE svg PUBLIC "-//W3C//DTD SVG 1.1//EN" "http://www.w3.org/Graphics/SVG/1.1/DTD/svg11.dtd">
<svg version="1.1" xmlns="http://www.w3.org/2000/svg" xmlns:xlink="http://www.w3.org/1999/xlink" x="0px" y="0px"
	 viewBox="0 0 512 512" enable-background="new 0 0 512 512" xml:space="preserve">
<g id="Layer_5">
	<path fill="#707D7F" d="M137.859,259.344c0,0-0.135,0.246-0.395,0.722c-0.261,0.436-0.648,1.054-1.153,1.68
		c-0.252,0.357-0.534,0.644-0.845,0.971c-0.155,0.165-0.317,0.337-0.487,0.516c-0.169,0.149-0.345,0.304-0.528,0.464
		c-0.732,0.594-1.573,1.144-2.516,1.498c-0.942,0.366-1.986,0.454-3.122,0.666c-1.136,0.192-2.364,0.4-3.677,0.622
		c-2.625,0.442-5.587,0.94-8.818,1.484c-3.231,0.51-6.731,1.063-10.434,1.648c-3.702,0.537-7.607,1.104-11.645,1.69
		c-4.039,0.559-8.212,1.091-12.453,1.597c-4.241,0.493-8.549,0.988-12.857,1.399c-4.308,0.417-8.616,0.865-12.857,1.214
		c-4.241,0.359-8.414,0.712-12.453,1.053c-2.019,0.161-4.005,0.32-5.949,0.476c-1.944,0.136-3.845,0.369-5.696,0.342
		c-1.851-0.023-3.652-0.313-5.394-0.938c-1.742-0.611-3.425-1.46-5.04-2.282c-3.231-1.675-6.193-3.405-8.818-5.083
		c-1.313-0.836-2.541-1.71-3.677-2.469c-1.136-0.77-2.179-1.594-3.122-2.276c-1.885-1.438-3.366-2.679-4.375-3.566
		C0.539,259.84,0,259.344,0,259.344s0.539-0.496,1.548-1.427c1.01-0.886,2.491-2.127,4.375-3.566
		c0.942-0.682,1.986-1.506,3.122-2.276c1.136-0.759,2.364-1.633,3.677-2.469c2.625-1.679,5.587-3.408,8.818-5.083
		c1.616-0.822,3.298-1.671,5.04-2.282c1.742-0.625,3.542-0.915,5.394-0.938c1.851-0.028,3.753,0.206,5.696,0.342
		c1.944,0.155,3.929,0.314,5.949,0.476c4.039,0.342,8.212,0.695,12.453,1.053c4.241,0.349,8.549,0.797,12.857,1.214
		c4.308,0.411,8.616,0.906,12.857,1.399c4.241,0.506,8.414,1.037,12.453,1.597c4.039,0.586,7.943,1.153,11.645,1.69
		c3.702,0.585,7.203,1.137,10.434,1.648c3.231,0.544,6.193,1.042,8.818,1.484c1.313,0.222,2.541,0.43,3.677,0.622
		c1.136,0.212,2.179,0.3,3.122,0.666c0.942,0.354,1.784,0.904,2.516,1.498c0.183,0.161,0.359,0.316,0.528,0.464
		c0.169,0.179,0.331,0.352,0.487,0.516c0.31,0.327,0.592,0.614,0.845,0.971c0.505,0.626,0.892,1.244,1.153,1.68
		C137.725,259.098,137.859,259.344,137.859,259.344z M418.08,236.937c1.669,1.558,4.004,3.688,6.491,6.156
		c2.475,2.462,5.107,5.325,6.98,8.251c0.936,1.462,1.663,2.918,2.163,4.316c0.496,1.406,0.738,2.765,0.823,4.217
		c0.004,0.183,0.02,0.365,0.033,0.548l0.012,0.137l0.002,0.017c-0.006,0.307,0.01-0.401,0.008-0.316l-0.002,0.058l-0.004,0.115
		l-0.014,0.461l-0.023,0.921l-0.004,0.215l-0.015,0.091l-0.023,0.182c-0.012,0.122-0.018,0.245-0.017,0.37l-0.072,0.52
		c-0.024,0.364-0.112,0.707-0.178,1.058c-0.282,1.394-0.747,2.789-1.489,4.205c-1.445,2.837-3.854,5.701-6.273,8.114
		c-1.205,1.22-2.412,2.334-3.522,3.34c-1.11,1.01-2.132,1.889-2.988,2.641c-1.775,1.543-2.789,2.424-2.789,2.424
		s1.349,0.466,3.747,0.689c2.395,0.223,5.849,0.228,9.957-0.798c2.042-0.531,4.269-1.29,6.531-2.504
		c2.26-1.205,4.584-2.845,6.699-5.066c2.116-2.2,3.986-5.049,5.146-8.282c0.302-0.804,0.558-1.626,0.752-2.464
		c0.102-0.424,0.214-0.824,0.3-1.273l0.213-1.451l0.093-0.73l0.043-0.365l0.019-0.244l0.053-0.92l0.024-0.46l0.006-0.115
		l0.009-0.472l-0.009-0.324l-0.048-1.295c-0.2-3.455-1.176-6.955-2.758-9.926c-1.574-2.984-3.66-5.44-5.846-7.366
		c-4.411-3.861-9.125-5.742-13.127-6.764c-4.029-1.006-7.448-1.106-9.837-0.972c-2.391,0.133-3.761,0.526-3.761,0.526
		S416.403,235.391,418.08,236.937z"/>
</g>
<g id="Layer_1">
</g>
</svg>
