<?xml version="1.0" encoding="iso-8859-1"?>
<!-- Generator: Adobe Illustrator 19.1.0, SVG Export Plug-In . SVG Version: 6.00 Build 0)  -->
<!DOCTYPE svg PUBLIC "-//W3C//DTD SVG 1.1//EN" "http://www.w3.org/Graphics/SVG/1.1/DTD/svg11.dtd">
<svg version="1.1" xmlns="http://www.w3.org/2000/svg" xmlns:xlink="http://www.w3.org/1999/xlink" x="0px" y="0px"
	 viewBox="0 0 512 512" enable-background="new 0 0 512 512" xml:space="preserve">
<g id="Layer_5">
	<path fill="#B9C5C6" d="M142.561,475.941l78.068-120.517l-0.227-0.498c5.102-6.565-4.083-25.053-21.05-42.02
		c-17.088-17.088-35.715-26.277-42.154-20.933l-0.036-0.016h0L36.644,370.024c-1.473,0.867-2.54,2.285-2.965,3.94L6.941,478.049
		c-1.224,4.765,4.622,8.1,8.101,4.621l63.177-63.177c3.166-3.166,4.419-7.712,3.531-12.101c-2.077-10.265,1.249-21.404,9.983-28.861
		c11.222-9.581,28.061-9.467,39.164,0.25c13.206,11.558,13.707,31.657,1.502,43.862c-7.442,7.442-17.819,10.158-27.405,8.15
		c-4.313-0.903-8.788,0.457-11.904,3.573l-63.175,63.175c-3.479,3.479-0.144,9.325,4.621,8.101l104.085-26.738
		C140.276,478.481,141.694,477.414,142.561,475.941z"/>
</g>
<g id="Layer_1">
</g>
</svg>
