<?xml version="1.0" encoding="iso-8859-1"?>
<!-- Generator: Adobe Illustrator 19.1.0, SVG Export Plug-In . SVG Version: 6.00 Build 0)  -->
<!DOCTYPE svg PUBLIC "-//W3C//DTD SVG 1.1//EN" "http://www.w3.org/Graphics/SVG/1.1/DTD/svg11.dtd">
<svg version="1.1" xmlns="http://www.w3.org/2000/svg" xmlns:xlink="http://www.w3.org/1999/xlink" x="0px" y="0px"
	 viewBox="0 0 512 512" enable-background="new 0 0 512 512" xml:space="preserve">
<g id="Layer_4">
	<path fill="#445056" d="M442.645,183.292c0.073-0.104,0.147-0.208,0.216-0.315c9.851-14.117-5.223-48.099-35.188-78.064
		c-29.966-29.966-63.948-45.039-78.065-35.188c-0.106,0.068-0.209,0.142-0.313,0.215c-0.127,0.094-0.258,0.182-0.381,0.28
		c-0.348,0.268-0.688,0.552-1.007,0.871l-89.292,89.292c-40.875,40.875-69.54,92.477-81.883,148.95
		c-4.707,21.535-6.103,39.82,0.3,46.222s24.688,5.006,46.222,0.3c56.472-12.343,108.075-41.009,148.95-81.883l89.292-89.292
		c0.319-0.319,0.603-0.659,0.871-1.008C442.464,183.548,442.552,183.418,442.645,183.292z"/>
</g>
<g id="Layer_1">
</g>
</svg>
