<?xml version="1.0" encoding="iso-8859-1"?>
<!-- Generator: Adobe Illustrator 18.1.1, SVG Export Plug-In . SVG Version: 6.00 Build 0)  -->
<!DOCTYPE svg PUBLIC "-//W3C//DTD SVG 1.1//EN" "http://www.w3.org/Graphics/SVG/1.1/DTD/svg11.dtd">
<svg version="1.1" xmlns="http://www.w3.org/2000/svg" xmlns:xlink="http://www.w3.org/1999/xlink" x="0px" y="0px"
	 viewBox="0 0 512 512" enable-background="new 0 0 512 512" xml:space="preserve">
<g id="Layer_4">
	<path fill="#FFFFFF" d="M425.833,236.5H299.996l88.98-88.98c7.225-7.225,7.226-18.938,0-26.163c-7.225-7.225-18.938-7.225-26.162,0
		l-88.98,88.98V84.5c0-10.217-8.283-18.5-18.5-18.5s-18.5,8.283-18.5,18.5v125.837l-88.98-88.98c-7.224-7.225-18.938-7.224-26.163,0
		c-7.225,7.225-7.225,18.938,0,26.163l88.981,88.98H84.833c-10.217,0-18.5,8.283-18.5,18.5c0,10.217,8.283,18.5,18.5,18.5h125.837
		l-88.981,88.98c-7.225,7.225-7.225,18.938,0,26.162c3.612,3.612,8.347,5.419,13.082,5.419c4.734,0,9.469-1.807,13.082-5.419
		l88.98-88.98V425.5c0,10.217,8.283,18.5,18.5,18.5s18.5-8.283,18.5-18.5V299.663l88.98,88.98c3.612,3.612,8.347,5.419,13.081,5.419
		s9.469-1.807,13.081-5.419c7.226-7.225,7.225-18.938,0-26.162l-88.98-88.98h125.837c10.217,0,18.5-8.283,18.5-18.5
		C444.333,244.783,436.05,236.5,425.833,236.5z"/>
</g>
<g id="Layer_1">
</g>
</svg>
