<?xml version="1.0" encoding="iso-8859-1"?>
<!-- Generator: Adobe Illustrator 18.1.1, SVG Export Plug-In . SVG Version: 6.00 Build 0)  -->
<!DOCTYPE svg PUBLIC "-//W3C//DTD SVG 1.1//EN" "http://www.w3.org/Graphics/SVG/1.1/DTD/svg11.dtd">
<svg version="1.1" xmlns="http://www.w3.org/2000/svg" xmlns:xlink="http://www.w3.org/1999/xlink" x="0px" y="0px"
	 viewBox="0 0 512 512" enable-background="new 0 0 512 512" xml:space="preserve">
<g id="Layer_4">
	<path fill="#FFFFFF" d="M317.727,256l96.059-96.059c5.488-5.488,5.488-14.385,0-19.872l-41.854-41.854
		c-5.488-5.488-14.385-5.488-19.872,0L256,194.273l-96.059-96.059c-5.488-5.488-14.385-5.488-19.872,0l-41.854,41.854
		c-5.488,5.488-5.488,14.385,0,19.872L194.273,256l-96.059,96.059c-5.488,5.488-5.488,14.385,0,19.872l41.854,41.854
		c5.488,5.488,14.385,5.488,19.872,0L256,317.727l96.059,96.059c5.488,5.488,14.385,5.488,19.872,0l41.854-41.854
		c5.488-5.488,5.488-14.385,0-19.872L317.727,256z"/>
</g>
<g id="Layer_1">
</g>
</svg>
