<?xml version="1.0" encoding="iso-8859-1"?>
<!-- Generator: Adobe Illustrator 18.1.1, SVG Export Plug-In . SVG Version: 6.00 Build 0)  -->
<!DOCTYPE svg PUBLIC "-//W3C//DTD SVG 1.1//EN" "http://www.w3.org/Graphics/SVG/1.1/DTD/svg11.dtd">
<svg version="1.1" xmlns="http://www.w3.org/2000/svg" xmlns:xlink="http://www.w3.org/1999/xlink" x="0px" y="0px"
	 viewBox="0 0 512 512" enable-background="new 0 0 512 512" xml:space="preserve">
<g id="Layer_4">
	<path fill="#FFFFFF" d="M421.654,312.01c-12.03-7.311-26.524-7.078-37.99-0.66L290.952,255l92.713-56.35
		c11.466,6.418,25.96,6.651,37.99-0.66c17.777-10.805,23.429-33.974,12.624-51.751c-10.805-17.777-33.974-23.429-51.751-12.624
		c-12.029,7.311-18.497,20.285-18.08,33.418l-90.614,55.074V116.068C285.273,109.603,293,97.338,293,83.262
		c0-20.803-16.864-37.667-37.667-37.667s-37.667,16.864-37.667,37.667c0,14.077,7.728,26.342,19.167,32.807v106.039l-90.615-55.075
		c0.417-13.133-6.05-26.107-18.08-33.418c-17.777-10.805-40.947-5.152-51.751,12.624c-10.805,17.777-5.152,40.947,12.624,51.751
		c12.029,7.311,26.524,7.078,37.989,0.661L219.715,255l-92.712,56.35c-11.466-6.418-25.961-6.651-37.99,0.66
		c-17.777,10.805-23.429,33.974-12.624,51.751s33.974,23.429,51.751,12.624c12.029-7.311,18.497-20.285,18.08-33.418l90.615-55.075
		v106.039c-11.439,6.465-19.167,18.73-19.167,32.807c0,20.803,16.864,37.667,37.667,37.667S293,447.541,293,426.738
		c0-14.077-7.727-26.341-19.166-32.806V287.894l90.614,55.074c-0.417,13.133,6.05,26.107,18.08,33.418
		c17.777,10.805,40.947,5.152,51.751-12.624S439.431,322.815,421.654,312.01z"/>
</g>
<g id="Layer_1">
</g>
</svg>
