<?xml version="1.0" encoding="iso-8859-1"?>
<!-- Generator: Adobe Illustrator 18.1.1, SVG Export Plug-In . SVG Version: 6.00 Build 0)  -->
<!DOCTYPE svg PUBLIC "-//W3C//DTD SVG 1.1//EN" "http://www.w3.org/Graphics/SVG/1.1/DTD/svg11.dtd">
<svg version="1.1" xmlns="http://www.w3.org/2000/svg" xmlns:xlink="http://www.w3.org/1999/xlink" x="0px" y="0px"
	 viewBox="0 0 512 512" enable-background="new 0 0 512 512" xml:space="preserve">
<g id="Layer_2">
	<path fill="#D9DDE8" d="M307.983,407.133c0,27-21.6,49.14-49.139,49.14c-27.54,0-49.14-22.14-49.14-49.14
		c0-26.999,21.6-49.139,49.14-49.139C286.384,357.994,307.983,380.134,307.983,407.133z M278.332,308.854h-39.48
		c-8.453,0-15.411-6.647-15.798-15.091l-9.352-204.348c-0.412-9.008,6.78-16.537,15.798-16.537h58.652
		c9.032,0,16.23,7.552,15.796,16.573l-9.82,204.348C293.723,302.228,286.771,308.854,278.332,308.854z"/>
</g>
<g id="Layer_1">
</g>
</svg>
