<?xml version="1.0" encoding="iso-8859-1"?>
<!-- Generator: Adobe Illustrator 18.1.1, SVG Export Plug-In . SVG Version: 6.00 Build 0)  -->
<!DOCTYPE svg PUBLIC "-//W3C//DTD SVG 1.1//EN" "http://www.w3.org/Graphics/SVG/1.1/DTD/svg11.dtd">
<svg version="1.1" id="Layer_2" xmlns="http://www.w3.org/2000/svg" xmlns:xlink="http://www.w3.org/1999/xlink" x="0px" y="0px"
	 viewBox="0 0 512 512" enable-background="new 0 0 512 512" xml:space="preserve">
<path fill="#2B3B47" d="M379.063,148.114c0,89.948-99.942,83.84-99.942,146.026v0.336c0,7.174-5.815,12.989-12.989,12.989h-54.53
	c-7.174,0-12.989-5.815-12.989-12.989v-3.668c0-96.055,87.727-89.947,87.727-134.921c0-19.433-14.436-31.093-38.311-31.093
	c-19.423,0-39.271,8.493-57.314,25.851c-4.624,4.448-11.854,4.729-16.907,0.776l-35.862-28.05
	c-6.044-4.727-6.745-13.685-1.402-19.193c29.94-30.865,68.846-49.343,120.369-49.343C338.531,54.836,379.063,98.699,379.063,148.114
	z M290.225,408.517c0,27.762-22.209,50.526-50.525,50.526c-27.762,0-50.526-22.764-50.526-50.526
	c0-27.761,22.764-50.525,50.526-50.525C268.017,357.992,290.225,380.756,290.225,408.517z"/>
</svg>
