<?xml version="1.0" encoding="iso-8859-1"?>
<!-- Generator: Adobe Illustrator 18.1.1, SVG Export Plug-In . SVG Version: 6.00 Build 0)  -->
<!DOCTYPE svg PUBLIC "-//W3C//DTD SVG 1.1//EN" "http://www.w3.org/Graphics/SVG/1.1/DTD/svg11.dtd">
<svg version="1.1" xmlns="http://www.w3.org/2000/svg" xmlns:xlink="http://www.w3.org/1999/xlink" x="0px" y="0px"
	 viewBox="0 0 512 512" enable-background="new 0 0 512 512" xml:space="preserve">
<g id="Layer_2">
	<path fill="#2B3B47" d="M468.433,210.554H301.446V43.567c0-17.164-13.914-31.079-31.079-31.079h-28.735
		c-17.164,0-31.079,13.914-31.079,31.079v166.987H43.567c-17.164,0-31.079,13.914-31.079,31.079v28.735
		c0,17.164,13.914,31.079,31.079,31.079h166.987v166.987c0,17.164,13.914,31.079,31.079,31.079h28.735
		c17.164,0,31.079-13.914,31.079-31.079V301.446h166.987c17.164,0,31.079-13.914,31.079-31.079v-28.735
		C499.512,224.468,485.597,210.554,468.433,210.554z"/>
</g>
<g id="Layer_1">
</g>
</svg>
