<?xml version="1.0" encoding="iso-8859-1"?>
<!-- Generator: Adobe Illustrator 18.1.1, SVG Export Plug-In . SVG Version: 6.00 Build 0)  -->
<!DOCTYPE svg PUBLIC "-//W3C//DTD SVG 1.1//EN" "http://www.w3.org/Graphics/SVG/1.1/DTD/svg11.dtd">
<svg version="1.1" xmlns="http://www.w3.org/2000/svg" xmlns:xlink="http://www.w3.org/1999/xlink" x="0px" y="0px"
	 viewBox="0 0 512 512" enable-background="new 0 0 512 512" xml:space="preserve">
<g id="Layer_2">
	<circle fill="#FF473E" cx="256" cy="256" r="254.106"/>
</g>
<g id="Layer_3">
	<path fill="#D32A2A" d="M256,487.106C119.516,487.106,8.18,379.5,2.165,244.5c-0.17,3.813-0.271,7.645-0.271,11.5
		c0,140.339,113.767,254.106,254.106,254.106S510.106,396.339,510.106,256c0-3.855-0.101-7.687-0.271-11.5
		C503.82,379.5,392.484,487.106,256,487.106z"/>
</g>
<g id="Layer_4">
	<path fill="#FFFFFF" d="M224.141,310.49c-3.351,0-6.742-0.91-9.792-2.818c-8.663-5.418-11.292-16.832-5.875-25.495
		c12.384-19.799,13.578-28.852,13.305-58.97c-0.093-10.217,8.114-18.575,18.331-18.667c0.057,0,0.115-0.001,0.171-0.001
		c10.14,0,18.403,8.172,18.496,18.332c0.309,34.08-1.317,50.761-18.934,78.927C236.333,307.409,230.306,310.49,224.141,310.49z
		 M341.102,122.964c5.418-8.662,2.788-20.077-5.874-25.495c-28.166-17.617-44.846-19.241-78.928-18.934
		c-10.217,0.092-18.424,8.45-18.331,18.667c0.092,10.16,8.356,18.332,18.496,18.332c0.057,0,0.115,0,0.171-0.001
		c30.116-0.266,39.172,0.921,58.971,13.305c3.051,1.908,6.441,2.818,9.793,2.818C331.564,131.656,337.592,128.576,341.102,122.964z
		 M433.706,320.715c10.215-0.185,18.348-8.615,18.163-18.831c-0.384-21.285-6.309-42.276-17.134-60.703
		c-5.176-8.81-16.513-11.755-25.322-6.58s-11.756,16.513-6.58,25.322c7.717,13.137,11.769,27.479,12.042,42.629
		c0.183,10.102,8.429,18.166,18.49,18.166C433.479,320.718,433.592,320.717,433.706,320.715z"/>
</g>
<g id="Layer_5">
	<path fill="#FFFFFF" d="M204.292,206.797c0-10.217-8.283-18.5-18.5-18.5h-25.53v-44.812c0-0.839-0.075-1.659-0.184-2.469
		c5.687-4.198,11.64-9.117,18.425-14.912c7.77-6.635,8.689-18.312,2.054-26.082c-6.635-7.769-18.312-8.69-26.082-2.054
		c-22.905,19.561-30.609,24.462-53.737,27.693c-10.119,1.414-17.176,10.763-15.763,20.882c1.292,9.251,9.217,15.943,18.299,15.943
		c0.852,0,1.715-0.059,2.583-0.18c6.461-0.903,12.179-1.997,17.405-3.335v29.326H95.35c-10.217,0-18.5,8.283-18.5,18.5
		s8.283,18.5,18.5,18.5h26.73c-2.038,5.755-7.587,17.669-22.713,39.584c-12.748,18.471-25.613,34.297-25.741,34.455
		c-6.454,7.919-5.266,19.571,2.654,26.025c3.433,2.799,7.568,4.161,11.677,4.161c5.369,0,10.694-2.326,14.351-6.812
		c0.473-0.58,9.903-12.176,20.955-27.521v85.378c0,10.217,8.283,18.5,18.5,18.5s18.5-8.283,18.5-18.5V278.949
		c0.794,1.034,1.538,1.976,2.218,2.806c3.658,4.466,8.968,6.779,14.323,6.779c4.123-0.001,8.272-1.372,11.711-4.188
		c7.905-6.474,9.064-18.13,2.591-26.034c-5.657-6.907-15.279-21.247-22.358-33.014h17.045
		C196.01,225.297,204.292,217.015,204.292,206.797z"/>
</g>
<g id="Layer_6">
	<path fill="#FFFFFF" d="M394.792,337.516c-10.218,0-18.5,8.282-18.5,18.5c0,12.958-10.542,23.5-23.5,23.5h-11
		c-12.958,0-23.5-10.542-23.5-23.5v-22.609c53.896-51.516,84.27-125.249,88.977-217.955c0.518-10.204-7.334-18.896-17.538-19.414
		c-10.229-0.529-18.897,7.333-19.415,17.538c-2.549,50.214-13.244,94.296-31.788,131.022c-5.925,11.734-12.68,22.737-20.235,33.011
		v-98.593c0-10.217-8.282-18.5-18.5-18.5s-18.5,8.283-18.5,18.5V316.86c-19.408,16.129-41.886,29.325-67.349,39.473
		c-9.491,3.783-14.119,14.544-10.336,24.035c2.888,7.244,9.84,11.655,17.191,11.655c2.28,0,4.597-0.424,6.844-1.319
		c19.533-7.785,37.546-17.171,54.018-28.086c3.301,30.264,29.005,53.898,60.133,53.898h11c33.359,0,60.5-27.141,60.5-60.5
		C413.292,345.798,405.01,337.516,394.792,337.516z"/>
</g>
</svg>
