<?xml version="1.0" encoding="iso-8859-1"?>
<!-- Generator: Adobe Illustrator 18.1.1, SVG Export Plug-In . SVG Version: 6.00 Build 0)  -->
<!DOCTYPE svg PUBLIC "-//W3C//DTD SVG 1.1//EN" "http://www.w3.org/Graphics/SVG/1.1/DTD/svg11.dtd">
<svg version="1.1" xmlns="http://www.w3.org/2000/svg" xmlns:xlink="http://www.w3.org/1999/xlink" x="0px" y="0px"
	 viewBox="0 0 512 512" enable-background="new 0 0 512 512" xml:space="preserve">
<g id="Layer_5">
	<path fill="#FFFFFF" d="M216.393,152.815c0-10.217-8.283-18.5-18.5-18.5H164.9c0.022-0.366,0.056-0.73,0.056-1.102v-16.599
		c0-10.217-8.283-18.5-18.5-18.5s-18.5,8.283-18.5,18.5v16.599c0,0.372,0.034,0.735,0.056,1.102H95.018
		c-10.217,0-18.5,8.283-18.5,18.5s8.283,18.5,18.5,18.5h78.029c-6.896,17.861-16.42,33.651-28.118,46.4
		c-15.278,16.65-33.962,27.875-54.033,32.464c-9.96,2.277-16.189,12.197-13.912,22.158c1.959,8.572,9.582,14.381,18.018,14.381
		c1.365,0,2.752-0.152,4.139-0.469c9.933-2.271,19.578-5.71,28.815-10.208v119.344c0,10.217,8.283,18.5,18.5,18.5
		s18.5-8.283,18.5-18.5V276.451c6.637,4.124,13.369,7.275,20.159,9.41c1.847,0.581,3.717,0.857,5.556,0.857
		c7.864,0,15.158-5.056,17.643-12.955c3.065-9.746-2.351-20.132-12.098-23.198c-6.522-2.051-13.467-6.107-20.442-11.881
		c18.661-21.756,32.478-49.451,40.087-80.46c0.407-1.661,0.557-3.321,0.51-4.951C216.374,153.12,216.393,152.97,216.393,152.815z"/>
</g>
<g id="Layer_1">
</g>
</svg>
