<?xml version="1.0" encoding="iso-8859-1"?>
<!-- Generator: Adobe Illustrator 18.1.1, SVG Export Plug-In . SVG Version: 6.00 Build 0)  -->
<!DOCTYPE svg PUBLIC "-//W3C//DTD SVG 1.1//EN" "http://www.w3.org/Graphics/SVG/1.1/DTD/svg11.dtd">
<svg version="1.1" xmlns="http://www.w3.org/2000/svg" xmlns:xlink="http://www.w3.org/1999/xlink" x="0px" y="0px"
	 viewBox="0 0 512 512" enable-background="new 0 0 512 512" xml:space="preserve">
<g id="Layer_6">
	<path fill="#FFFFFF" d="M394.792,337.516c-10.218,0-18.5,8.282-18.5,18.5c0,12.958-10.542,23.5-23.5,23.5h-11
		c-12.958,0-23.5-10.542-23.5-23.5v-22.609c53.896-51.516,84.27-125.249,88.977-217.955c0.518-10.204-7.334-18.896-17.538-19.414
		c-10.229-0.529-18.897,7.333-19.415,17.538c-2.549,50.214-13.244,94.296-31.788,131.022c-5.925,11.734-12.68,22.737-20.235,33.011
		v-98.593c0-10.217-8.282-18.5-18.5-18.5s-18.5,8.283-18.5,18.5V316.86c-19.408,16.129-41.886,29.325-67.349,39.473
		c-9.491,3.783-14.119,14.544-10.336,24.035c2.888,7.244,9.84,11.655,17.191,11.655c2.28,0,4.597-0.424,6.844-1.319
		c19.533-7.785,37.546-17.171,54.018-28.086c3.301,30.264,29.005,53.898,60.133,53.898h11c33.359,0,60.5-27.141,60.5-60.5
		C413.292,345.798,405.01,337.516,394.792,337.516z"/>
</g>
<g id="Layer_1">
</g>
</svg>
