<?xml version="1.0" encoding="iso-8859-1"?>
<!-- Generator: Adobe Illustrator 18.1.1, SVG Export Plug-In . SVG Version: 6.00 Build 0)  -->
<!DOCTYPE svg PUBLIC "-//W3C//DTD SVG 1.1//EN" "http://www.w3.org/Graphics/SVG/1.1/DTD/svg11.dtd">
<svg version="1.1" xmlns="http://www.w3.org/2000/svg" xmlns:xlink="http://www.w3.org/1999/xlink" x="0px" y="0px"
	 viewBox="0 0 512 512" enable-background="new 0 0 512 512" xml:space="preserve">
<g id="Layer_4">
	<path fill="#FFFFFF" d="M416.982,325.714c-10.217,0-18.5,8.283-18.5,18.5v23.029c0,5.316-4.325,9.642-9.642,9.642
		c-6.423,0-11.647-5.225-11.647-11.647V237.697h15.061c10.217,0,18.5-8.283,18.5-18.5v-86.983c0-10.217-8.283-18.5-18.5-18.5
		H259.113c-10.217,0-18.5,8.283-18.5,18.5v86.983c0,10.217,8.283,18.5,18.5,18.5h15.12c0.026,48.089-3.151,114.258-60.373,140.918
		c-9.261,4.315-13.271,15.321-8.956,24.583c3.138,6.733,9.812,10.691,16.781,10.691c2.616,0,5.274-0.559,7.801-1.735
		c36.216-16.875,60.604-46.768,72.486-88.848c8.431-29.861,9.268-60.959,9.26-85.61h28.96v127.541
		c0,26.824,21.823,48.647,48.647,48.647c25.719,0,46.642-20.924,46.642-46.642v-23.029
		C435.482,333.997,427.199,325.714,416.982,325.714z M277.613,150.713h96.141v49.983h-96.141V150.713z"/>
</g>
<g id="Layer_1">
</g>
</svg>
