<?xml version="1.0" encoding="iso-8859-1"?>
<!-- Generator: Adobe Illustrator 18.1.1, SVG Export Plug-In . SVG Version: 6.00 Build 0)  -->
<!DOCTYPE svg PUBLIC "-//W3C//DTD SVG 1.1//EN" "http://www.w3.org/Graphics/SVG/1.1/DTD/svg11.dtd">
<svg version="1.1" xmlns="http://www.w3.org/2000/svg" xmlns:xlink="http://www.w3.org/1999/xlink" x="0px" y="0px"
	 viewBox="0 0 512 512" enable-background="new 0 0 512 512" xml:space="preserve">
<g id="Layer_5">
	<path fill="#FFFFFF" d="M433.345,86.436H197.656c3.063-7.353,6.089-14.894,9.065-22.632c3.667-9.536-1.09-20.24-10.627-23.907
		c-9.535-3.667-20.24,1.091-23.907,10.627c-4.813,12.515-9.765,24.486-14.79,35.913H94.168c-10.217,0-18.5,8.283-18.5,18.5
		s8.283,18.5,18.5,18.5h45.821c-21.417,42.649-42.795,75.559-59.273,98.278c-26.815,36.97-46.771,55.664-47.243,56.104
		c-7.507,6.918-7.991,18.611-1.079,26.127c3.648,3.967,8.626,5.977,13.622,5.977c4.476,0,8.965-1.615,12.519-4.884
		c3.036-2.792,65.8-61.431,122.674-181.602h252.137c10.218,0,18.5-8.283,18.5-18.5S443.562,86.436,433.345,86.436z"/>
</g>
<g id="Layer_1">
</g>
</svg>
