<?xml version="1.0" encoding="iso-8859-1"?>
<!-- Generator: Adobe Illustrator 19.1.0, SVG Export Plug-In . SVG Version: 6.00 Build 0)  -->
<!DOCTYPE svg PUBLIC "-//W3C//DTD SVG 1.1//EN" "http://www.w3.org/Graphics/SVG/1.1/DTD/svg11.dtd">
<svg version="1.1" xmlns="http://www.w3.org/2000/svg" xmlns:xlink="http://www.w3.org/1999/xlink" x="0px" y="0px"
	 viewBox="0 0 512 512" enable-background="new 0 0 512 512" xml:space="preserve">
<g id="Layer_2">
	<path fill="#FFB636" d="M508.333,32.666C508.333,16.35,494.984,3,478.668,3H29.032C14.348,3,2.333,15.015,2.333,29.699v452.602
		C2.333,496.985,14.348,509,29.032,509h449.635c16.316,0,29.666-13.35,29.666-29.666V32.666z"/>
</g>
<g id="Layer_3">
	<path fill="#ED9B43" d="M478.668,488.915H29.032c-14.684,0-26.699-12.015-26.699-26.699v20.085
		C2.333,496.985,14.348,509,29.032,509h449.635c16.316,0,29.666-13.35,29.666-29.666v-20.085
		C508.333,475.565,494.984,488.915,478.668,488.915z"/>
</g>
<g id="Layer_4">
	<path fill="#FFFFFF" d="M433.345,86.436H197.656c3.063-7.353,6.089-14.894,9.065-22.632c3.667-9.536-1.09-20.24-10.627-23.907
		c-9.535-3.667-20.24,1.091-23.907,10.627c-4.813,12.515-9.765,24.486-14.79,35.913H94.168c-10.217,0-18.5,8.283-18.5,18.5
		s8.283,18.5,18.5,18.5h45.821c-21.417,42.649-42.795,75.559-59.273,98.278c-26.815,36.97-46.771,55.664-47.243,56.104
		c-7.507,6.918-7.991,18.611-1.079,26.127c3.648,3.967,8.626,5.977,13.622,5.977c4.476,0,8.965-1.615,12.519-4.884
		c2.411-2.217,42.487-39.645,87.367-115.137v79.544v0.762v70.448v24.786v73.793c0,10.217,8.283,18.5,18.5,18.5s18.5-8.283,18.5-18.5
		V383.94h194.944v27.629c0,5.054-4.112,9.166-9.167,9.166h-19.456c-10.217,0-18.5,8.283-18.5,18.5c0,10.218,8.283,18.5,18.5,18.5
		h19.456c25.457,0,46.167-20.71,46.167-46.166v-46.09c0-0.013,0.002-0.026,0.002-0.039s-0.002-0.026-0.002-0.039v-95.157
		c0-0.013,0.002-0.026,0.002-0.039s-0.002-0.026-0.002-0.039v-0.684c0-0.013,0.002-0.026,0.002-0.039s-0.002-0.026-0.002-0.039
		v-95.156c0-0.013,0.002-0.026,0.002-0.039c0-10.217-8.283-18.5-18.5-18.5H165.063c5.398-10.216,10.796-20.975,16.144-32.275
		h252.137c10.218,0,18.5-8.283,18.5-18.5S443.562,86.436,433.345,86.436z M182.901,346.94v-6.286v-51.948h194.944v58.234H182.901z
		 M377.845,192.71v58.234H182.901V192.71H377.845z"/>
</g>
</svg>
