<?xml version="1.0" encoding="iso-8859-1"?>
<!-- Generator: Adobe Illustrator 18.1.1, SVG Export Plug-In . SVG Version: 6.00 Build 0)  -->
<!DOCTYPE svg PUBLIC "-//W3C//DTD SVG 1.1//EN" "http://www.w3.org/Graphics/SVG/1.1/DTD/svg11.dtd">
<svg version="1.1" xmlns="http://www.w3.org/2000/svg" xmlns:xlink="http://www.w3.org/1999/xlink" x="0px" y="0px"
	 viewBox="0 0 512 512" enable-background="new 0 0 512 512" xml:space="preserve">
<g id="Layer_2">
	<path fill="#FFB636" d="M508.333,32.666C508.333,16.35,494.984,3,478.668,3H29.032C14.348,3,2.333,15.015,2.333,29.699v452.602
		C2.333,496.985,14.348,509,29.032,509h449.635c16.316,0,29.666-13.35,29.666-29.666V32.666z"/>
</g>
<g id="Layer_3">
	<path fill="#ED9B43" d="M478.668,488.915H29.032c-14.684,0-26.699-12.015-26.699-26.699v20.085
		C2.333,496.985,14.348,509,29.032,509h449.635c16.316,0,29.666-13.35,29.666-29.666v-20.085
		C508.333,475.565,494.984,488.915,478.668,488.915z"/>
</g>
<g id="Layer_4">
	<path fill="#FFFFFF" d="M100.542,462.616c-4.734,0-9.469-1.807-13.082-5.419c-7.225-7.225-7.225-18.938,0-26.162l37.416-37.416
		c7.225-7.225,18.938-7.225,26.163,0s7.225,18.938,0,26.162l-37.416,37.416C110.011,460.81,105.276,462.616,100.542,462.616z"/>
</g>
<g id="Layer_5">
	<path fill="#FFFFFF" d="M411.458,462.616c-4.734,0-9.469-1.807-13.081-5.419l-37.416-37.416c-7.226-7.225-7.226-18.938,0-26.162
		c7.225-7.225,18.938-7.225,26.162,0l37.416,37.416c7.226,7.225,7.226,18.938,0,26.162
		C420.927,460.81,416.192,462.616,411.458,462.616z"/>
</g>
<g id="Layer_6">
	<path fill="#FFFFFF" d="M202.408,462.621c-2.427,0-4.893-0.48-7.265-1.495c-9.395-4.017-13.753-14.89-9.736-24.283l16-37.416
		c4.017-9.395,14.89-13.754,24.284-9.736c9.395,4.017,13.753,14.89,9.736,24.283l-16,37.416
		C216.424,458.412,209.59,462.621,202.408,462.621z"/>
</g>
<g id="Layer_7">
	<path fill="#FFFFFF" d="M309.161,462.798c-7.337,0-14.279-4.394-17.177-11.62l-15.144-37.771
		c-3.803-9.483,0.803-20.254,10.286-24.056c9.484-3.806,20.253,0.803,24.056,10.286l15.144,37.771
		c3.803,9.483-0.803,20.254-10.286,24.056C313.783,462.369,311.452,462.798,309.161,462.798z"/>
</g>
<g id="Layer_8">
	<path fill="#FFFFFF" d="M433.345,243.494c10.218,0,18.5-8.283,18.5-18.5s-8.282-18.5-18.5-18.5h-31.088v-83.058h31.088
		c10.218,0,18.5-8.283,18.5-18.5s-8.282-18.5-18.5-18.5H121.36c3.584-8.014,6.994-16.471,10.091-25.331
		c3.372-9.645-1.714-20.197-11.359-23.568c-9.642-3.371-20.196,1.713-23.568,11.359c-20.287,58.034-56.498,97.867-57.116,98.541
		c-6.934,7.493-6.486,19.188,1.001,26.13c3.561,3.301,8.073,4.934,12.574,4.934c4.969,0,9.926-1.991,13.571-5.922
		c1.079-1.164,17.669-19.252,35.528-49.143h23.175v83.058H94.168c-10.217,0-18.5,8.283-18.5,18.5s8.283,18.5,18.5,18.5h31.088
		v83.058H94.168c-10.217,0-18.5,8.283-18.5,18.5s8.283,18.5,18.5,18.5h339.176c10.218,0,18.5-8.283,18.5-18.5s-8.282-18.5-18.5-18.5
		h-31.088v-83.058H433.345z M365.257,206.494h-43v-83.058h43V206.494z M242.256,206.494v-83.058h43v83.058H242.256z
		 M285.257,243.494v83.058h-43v-83.058H285.257z M162.256,123.436h43v83.058h-43V123.436z M162.256,243.494h43v83.058h-43V243.494z
		 M365.257,326.552h-43v-83.058h43V326.552z"/>
</g>
</svg>
