<?xml version="1.0" encoding="iso-8859-1"?>
<!-- Generator: Adobe Illustrator 18.1.1, SVG Export Plug-In . SVG Version: 6.00 Build 0)  -->
<!DOCTYPE svg PUBLIC "-//W3C//DTD SVG 1.1//EN" "http://www.w3.org/Graphics/SVG/1.1/DTD/svg11.dtd">
<svg version="1.1" xmlns="http://www.w3.org/2000/svg" xmlns:xlink="http://www.w3.org/1999/xlink" x="0px" y="0px"
	 viewBox="0 0 512 512" enable-background="new 0 0 512 512" xml:space="preserve">
<g id="Layer_3">
	<path fill="#FF473E" d="M22.051,87.816c158.611,37.323,317.223-51.454,475.834-9.093c6.924,1.849,11.734,8.14,11.734,15.307v14.699
		c-169.54-52.36-339.079,52.36-508.619,0v-4.282C1,93.405,11.303,85.286,22.051,87.816z M1,135.357v8.875v17.754
		c169.54,52.36,339.079-52.36,508.619,0v-17.754v-8.875C340.079,82.998,170.54,187.717,1,135.357z M1,188.616v8.875v11.267v1.196
		v5.291c169.54,52.36,339.079-52.36,508.619,0v-5.291v-1.196v-11.267v-8.875C340.079,136.256,170.54,240.975,1,188.616z M1,241.874
		v8.875v11.267v1.196v5.288v0.003c169.54,52.36,339.079-52.36,508.619,0V268.5v-5.288v-1.196v-11.267v-8.875
		C340.079,189.514,170.54,294.233,1,241.874z M1,295.132v3.585v5.29v11.267v1.196v5.288v0.003c169.54,52.36,339.079-52.36,508.619,0
		v-0.003v-5.288v-1.196v-11.267v-5.29v-3.585C340.079,242.772,170.54,347.492,1,295.132z M1,348.39v3.585v5.29v1.193v1.196v8.878
		v1.196v5.288v0.003c169.54,52.36,339.079-52.36,508.619,0v-0.003v-5.288v-1.196v-8.878v-1.196v-1.193v-5.29v-3.585
		C340.079,296.03,170.54,400.75,1,348.39z M1,401.648v3.585v5.29v5.823c0,7.167,4.81,13.458,11.734,15.307
		c159.129,42.499,318.258-46.998,477.387-8.724c9.944,2.392,19.499-5.177,19.499-15.405v-2.293v-3.585
		C340.079,349.289,170.54,454.008,1,401.648z"/>
</g>
<g id="Layer_1">
</g>
</svg>
