<?xml version="1.0" encoding="iso-8859-1"?>
<!-- Generator: Adobe Illustrator 18.1.1, SVG Export Plug-In . SVG Version: 6.00 Build 0)  -->
<!DOCTYPE svg PUBLIC "-//W3C//DTD SVG 1.1//EN" "http://www.w3.org/Graphics/SVG/1.1/DTD/svg11.dtd">
<svg version="1.1" xmlns="http://www.w3.org/2000/svg" xmlns:xlink="http://www.w3.org/1999/xlink" x="0px" y="0px"
	 viewBox="0 0 512 512" enable-background="new 0 0 512 512" xml:space="preserve">
<g id="Layer_5">
	<path fill="#FFD469" d="M13.51,110.627l-3.94,2.071c-0.584,0.307-1.267-0.189-1.156-0.84l0.752-4.387
		c0.044-0.258-0.041-0.522-0.229-0.705l-3.187-3.107c-0.473-0.461-0.212-1.263,0.441-1.358l4.405-0.64
		c0.259-0.038,0.484-0.201,0.6-0.436l1.97-3.992c0.292-0.592,1.136-0.592,1.428,0l1.97,3.992c0.116,0.235,0.34,0.398,0.6,0.436
		l4.405,0.64c0.653,0.095,0.914,0.898,0.441,1.358l-3.187,3.107c-0.188,0.183-0.273,0.447-0.229,0.705l0.752,4.387
		c0.112,0.651-0.571,1.147-1.156,0.84l-3.94-2.071C14.019,110.505,13.742,110.505,13.51,110.627z M98.951,120.281l3.94,2.071
		c0.584,0.307,1.267-0.189,1.156-0.84l-0.752-4.387c-0.044-0.258,0.041-0.522,0.229-0.705l3.187-3.107
		c0.473-0.461,0.212-1.263-0.441-1.358l-4.405-0.64c-0.259-0.038-0.484-0.201-0.6-0.436l-1.97-3.992
		c-0.292-0.592-1.136-0.592-1.428,0l-1.97,3.992c-0.116,0.235-0.34,0.398-0.6,0.436l-4.405,0.64
		c-0.653,0.095-0.914,0.898-0.441,1.358l3.187,3.107c0.188,0.183,0.273,0.447,0.229,0.705l-0.752,4.387
		c-0.112,0.651,0.571,1.147,1.156,0.84l3.94-2.071C98.441,120.159,98.719,120.159,98.951,120.281z M56.601,117.875l3.94,2.071
		c0.584,0.307,1.267-0.189,1.156-0.84l-0.752-4.387c-0.044-0.258,0.041-0.522,0.229-0.705l3.187-3.107
		c0.473-0.461,0.212-1.263-0.441-1.358l-4.405-0.64c-0.259-0.038-0.484-0.201-0.6-0.436l-1.97-3.992
		c-0.292-0.592-1.136-0.592-1.428,0l-1.97,3.992c-0.116,0.235-0.34,0.398-0.6,0.436l-4.405,0.64
		c-0.653,0.095-0.914,0.898-0.441,1.358l3.187,3.107c0.188,0.183,0.273,0.447,0.229,0.705l-0.752,4.387
		c-0.112,0.651,0.571,1.147,1.156,0.84l3.94-2.071C56.092,117.754,56.369,117.754,56.601,117.875z M141.3,120.281l3.94,2.071
		c0.584,0.307,1.267-0.189,1.156-0.84l-0.752-4.387c-0.044-0.258,0.041-0.522,0.229-0.705l3.187-3.107
		c0.473-0.461,0.212-1.263-0.441-1.358l-4.405-0.64c-0.259-0.038-0.484-0.201-0.6-0.436l-1.97-3.992
		c-0.292-0.592-1.136-0.592-1.428,0l-1.97,3.992c-0.116,0.235-0.34,0.398-0.6,0.436l-4.405,0.64
		c-0.653,0.095-0.914,0.898-0.441,1.358l3.187,3.107c0.188,0.183,0.273,0.447,0.229,0.705l-0.752,4.387
		c-0.112,0.651,0.571,1.147,1.156,0.84l3.94-2.071C140.791,120.159,141.068,120.159,141.3,120.281z M183.65,116.942l3.94,2.071
		c0.584,0.307,1.267-0.189,1.156-0.84l-0.752-4.387c-0.044-0.258,0.041-0.522,0.229-0.705l3.187-3.107
		c0.473-0.461,0.212-1.263-0.441-1.358l-4.405-0.64c-0.259-0.038-0.484-0.201-0.6-0.436l-1.97-3.992
		c-0.292-0.592-1.136-0.592-1.428,0l-1.97,3.992c-0.116,0.235-0.34,0.398-0.6,0.436l-4.405,0.64
		c-0.653,0.095-0.914,0.898-0.441,1.358l3.187,3.107c0.188,0.183,0.273,0.447,0.229,0.705l-0.752,4.387
		c-0.112,0.651,0.571,1.147,1.156,0.84l3.94-2.071C183.141,116.82,183.418,116.82,183.65,116.942z M226,110.596l3.94,2.071
		c0.584,0.307,1.267-0.189,1.156-0.84l-0.752-4.387c-0.044-0.258,0.041-0.522,0.229-0.705l3.187-3.107
		c0.473-0.461,0.212-1.263-0.441-1.358l-4.405-0.64c-0.259-0.038-0.484-0.201-0.6-0.436l-1.97-3.992
		c-0.292-0.592-1.136-0.592-1.428,0l-1.97,3.992c-0.116,0.235-0.34,0.398-0.6,0.436l-4.405,0.64
		c-0.653,0.095-0.914,0.898-0.441,1.358l3.187,3.107c0.188,0.183,0.273,0.447,0.229,0.705l-0.752,4.387
		c-0.112,0.651,0.571,1.147,1.156,0.84l3.94-2.071C225.491,110.474,225.768,110.474,226,110.596z M34.426,129.313l3.94,2.071
		c0.584,0.307,1.267-0.189,1.156-0.84l-0.752-4.387c-0.044-0.258,0.041-0.522,0.229-0.705l3.187-3.107
		c0.473-0.461,0.212-1.263-0.441-1.358l-4.405-0.64c-0.259-0.038-0.484-0.201-0.6-0.436l-1.97-3.992
		c-0.292-0.592-1.136-0.592-1.428,0l-1.97,3.992c-0.116,0.235-0.34,0.398-0.6,0.436l-4.405,0.64
		c-0.653,0.095-0.914,0.898-0.441,1.358l3.187,3.107c0.188,0.183,0.273,0.447,0.229,0.705l-0.752,4.387
		c-0.112,0.651,0.571,1.147,1.156,0.84l3.94-2.071C33.917,129.191,34.194,129.191,34.426,129.313z M119.125,138.968l3.94,2.071
		c0.584,0.307,1.267-0.189,1.156-0.84l-0.752-4.387c-0.044-0.258,0.041-0.522,0.229-0.705l3.187-3.107
		c0.473-0.461,0.212-1.263-0.441-1.358l-4.405-0.64c-0.259-0.038-0.484-0.201-0.6-0.436l-1.97-3.992
		c-0.292-0.592-1.136-0.592-1.428,0l-1.97,3.992c-0.116,0.235-0.34,0.398-0.6,0.436l-4.405,0.64
		c-0.653,0.095-0.914,0.898-0.441,1.358l3.187,3.107c0.188,0.183,0.273,0.447,0.229,0.705l-0.752,4.387
		c-0.112,0.651,0.571,1.147,1.156,0.84l3.94-2.071C118.616,138.846,118.893,138.846,119.125,138.968z M76.776,136.562l3.94,2.071
		c0.584,0.307,1.267-0.189,1.156-0.84l-0.752-4.387c-0.044-0.258,0.041-0.522,0.229-0.705l3.187-3.107
		c0.473-0.461,0.212-1.263-0.441-1.358l-4.405-0.64c-0.259-0.038-0.484-0.201-0.6-0.436l-1.97-3.992
		c-0.292-0.592-1.136-0.592-1.428,0l-1.97,3.992c-0.116,0.235-0.34,0.398-0.6,0.436l-4.405,0.64
		c-0.653,0.095-0.914,0.898-0.441,1.358l3.187,3.107c0.188,0.183,0.273,0.447,0.229,0.705l-0.752,4.387
		c-0.112,0.651,0.571,1.147,1.156,0.84l3.94-2.071C76.266,136.44,76.544,136.44,76.776,136.562z M161.475,138.968l3.94,2.071
		c0.584,0.307,1.267-0.189,1.156-0.84l-0.752-4.387c-0.044-0.258,0.041-0.522,0.229-0.705l3.187-3.107
		c0.473-0.461,0.212-1.263-0.441-1.358l-4.405-0.64c-0.259-0.038-0.484-0.201-0.6-0.436l-1.97-3.992
		c-0.292-0.592-1.136-0.592-1.428,0l-1.97,3.992c-0.116,0.235-0.34,0.398-0.6,0.436l-4.405,0.64
		c-0.653,0.095-0.914,0.898-0.441,1.358l3.187,3.107c0.188,0.183,0.273,0.447,0.229,0.705l-0.752,4.387
		c-0.112,0.651,0.571,1.147,1.156,0.84l3.94-2.071C160.966,138.846,161.243,138.846,161.475,138.968z M203.825,135.629l3.94,2.071
		c0.584,0.307,1.267-0.189,1.156-0.84l-0.752-4.387c-0.044-0.258,0.041-0.522,0.229-0.705l3.187-3.107
		c0.473-0.461,0.212-1.263-0.441-1.358l-4.405-0.64c-0.259-0.038-0.484-0.201-0.6-0.436l-1.97-3.992
		c-0.292-0.592-1.136-0.592-1.428,0l-1.97,3.992c-0.116,0.235-0.34,0.398-0.6,0.436l-4.405,0.64
		c-0.653,0.095-0.914,0.898-0.441,1.358l3.187,3.107c0.188,0.183,0.273,0.447,0.229,0.705l-0.752,4.387
		c-0.112,0.651,0.571,1.147,1.156,0.84l3.94-2.071C203.316,135.507,203.593,135.507,203.825,135.629z M34.426,167.062l3.94,2.071
		c0.584,0.307,1.267-0.189,1.156-0.84l-0.752-4.387c-0.044-0.258,0.041-0.522,0.229-0.705l3.187-3.107
		c0.473-0.461,0.212-1.263-0.441-1.358l-4.405-0.64c-0.259-0.038-0.484-0.201-0.6-0.436l-1.97-3.992
		c-0.292-0.592-1.136-0.592-1.428,0l-1.97,3.992c-0.116,0.235-0.34,0.398-0.6,0.436l-4.405,0.64
		c-0.653,0.095-0.914,0.898-0.441,1.358l3.187,3.107c0.188,0.183,0.273,0.447,0.229,0.705l-0.752,4.387
		c-0.112,0.651,0.571,1.147,1.156,0.84l3.94-2.071C33.917,166.94,34.194,166.94,34.426,167.062z M119.125,176.717l3.94,2.071
		c0.584,0.307,1.267-0.189,1.156-0.84l-0.752-4.387c-0.044-0.258,0.041-0.522,0.229-0.705l3.187-3.107
		c0.473-0.461,0.212-1.263-0.441-1.358l-4.405-0.64c-0.259-0.038-0.484-0.201-0.6-0.436l-1.97-3.992
		c-0.292-0.592-1.136-0.592-1.428,0l-1.97,3.992c-0.116,0.235-0.34,0.398-0.6,0.436l-4.405,0.64
		c-0.653,0.095-0.914,0.898-0.441,1.358l3.187,3.107c0.188,0.183,0.273,0.447,0.229,0.705l-0.752,4.387
		c-0.112,0.651,0.571,1.147,1.156,0.84l3.94-2.071C118.616,176.595,118.893,176.595,119.125,176.717z M76.776,174.311l3.94,2.071
		c0.584,0.307,1.267-0.189,1.156-0.84l-0.752-4.387c-0.044-0.258,0.041-0.522,0.229-0.705l3.187-3.107
		c0.473-0.461,0.212-1.263-0.441-1.358l-4.405-0.64c-0.259-0.038-0.484-0.201-0.6-0.436l-1.97-3.992
		c-0.292-0.592-1.136-0.592-1.428,0l-1.97,3.992c-0.116,0.235-0.34,0.398-0.6,0.436l-4.405,0.64
		c-0.653,0.095-0.914,0.898-0.441,1.358l3.187,3.107c0.188,0.183,0.273,0.447,0.229,0.705l-0.752,4.387
		c-0.112,0.651,0.571,1.147,1.156,0.84l3.94-2.071C76.266,174.189,76.544,174.189,76.776,174.311z M161.475,176.717l3.94,2.071
		c0.584,0.307,1.267-0.189,1.156-0.84l-0.752-4.387c-0.044-0.258,0.041-0.522,0.229-0.705l3.187-3.107
		c0.473-0.461,0.212-1.263-0.441-1.358l-4.405-0.64c-0.259-0.038-0.484-0.201-0.6-0.436l-1.97-3.992
		c-0.292-0.592-1.136-0.592-1.428,0l-1.97,3.992c-0.116,0.235-0.34,0.398-0.6,0.436l-4.405,0.64
		c-0.653,0.095-0.914,0.898-0.441,1.358l3.187,3.107c0.188,0.183,0.273,0.447,0.229,0.705l-0.752,4.387
		c-0.112,0.651,0.571,1.147,1.156,0.84l3.94-2.071C160.966,176.595,161.243,176.595,161.475,176.717z M203.825,173.378l3.94,2.071
		c0.584,0.307,1.267-0.189,1.156-0.84l-0.752-4.387c-0.044-0.258,0.041-0.522,0.229-0.705l3.187-3.107
		c0.473-0.461,0.212-1.263-0.441-1.358l-4.405-0.64c-0.259-0.038-0.484-0.201-0.6-0.436l-1.97-3.992
		c-0.292-0.592-1.136-0.592-1.428,0l-1.97,3.992c-0.116,0.235-0.34,0.398-0.6,0.436l-4.405,0.64
		c-0.653,0.095-0.914,0.898-0.441,1.358l3.187,3.107c0.188,0.183,0.273,0.447,0.229,0.705l-0.752,4.387
		c-0.112,0.651,0.571,1.147,1.156,0.84l3.94-2.071C203.316,173.256,203.593,173.256,203.825,173.378z M34.426,203.811l3.94,2.071
		c0.584,0.307,1.267-0.189,1.156-0.84l-0.752-4.387c-0.044-0.258,0.041-0.522,0.229-0.705l3.187-3.107
		c0.473-0.461,0.212-1.263-0.441-1.358l-4.405-0.64c-0.259-0.038-0.484-0.201-0.6-0.436l-1.97-3.992
		c-0.292-0.592-1.136-0.592-1.428,0l-1.97,3.992c-0.116,0.235-0.34,0.398-0.6,0.436l-4.405,0.64
		c-0.653,0.095-0.914,0.898-0.441,1.358l3.187,3.107c0.188,0.183,0.273,0.447,0.229,0.705l-0.752,4.387
		c-0.112,0.651,0.571,1.147,1.156,0.84l3.94-2.071C33.917,203.689,34.194,203.689,34.426,203.811z M119.125,213.466l3.94,2.071
		c0.584,0.307,1.267-0.189,1.156-0.84l-0.752-4.387c-0.044-0.258,0.041-0.522,0.229-0.705l3.187-3.107
		c0.473-0.461,0.212-1.263-0.441-1.358l-4.405-0.64c-0.259-0.038-0.484-0.201-0.6-0.436l-1.97-3.992
		c-0.292-0.592-1.136-0.592-1.428,0l-1.97,3.992c-0.116,0.235-0.34,0.398-0.6,0.436l-4.405,0.64
		c-0.653,0.095-0.914,0.898-0.441,1.358l3.187,3.107c0.188,0.183,0.273,0.447,0.229,0.705l-0.752,4.387
		c-0.112,0.651,0.571,1.147,1.156,0.84l3.94-2.071C118.616,213.344,118.893,213.344,119.125,213.466z M76.776,211.06l3.94,2.071
		c0.584,0.307,1.267-0.189,1.156-0.84l-0.752-4.387c-0.044-0.258,0.041-0.522,0.229-0.705l3.187-3.107
		c0.473-0.461,0.212-1.263-0.441-1.358l-4.405-0.64c-0.259-0.038-0.484-0.201-0.6-0.436l-1.97-3.992
		c-0.292-0.592-1.136-0.592-1.428,0l-1.97,3.992c-0.116,0.235-0.34,0.398-0.6,0.436l-4.405,0.64
		c-0.653,0.095-0.914,0.898-0.441,1.358l3.187,3.107c0.188,0.183,0.273,0.447,0.229,0.705l-0.752,4.387
		c-0.112,0.651,0.571,1.147,1.156,0.84l3.94-2.071C76.266,210.938,76.544,210.938,76.776,211.06z M161.475,213.466l3.94,2.071
		c0.584,0.307,1.267-0.189,1.156-0.84l-0.752-4.387c-0.044-0.258,0.041-0.522,0.229-0.705l3.187-3.107
		c0.473-0.461,0.212-1.263-0.441-1.358l-4.405-0.64c-0.259-0.038-0.484-0.201-0.6-0.436l-1.97-3.992
		c-0.292-0.592-1.136-0.592-1.428,0l-1.97,3.992c-0.116,0.235-0.34,0.398-0.6,0.436l-4.405,0.64
		c-0.653,0.095-0.914,0.898-0.441,1.358l3.187,3.107c0.188,0.183,0.273,0.447,0.229,0.705l-0.752,4.387
		c-0.112,0.651,0.571,1.147,1.156,0.84l3.94-2.071C160.966,213.344,161.243,213.344,161.475,213.466z M203.825,210.127l3.94,2.071
		c0.584,0.307,1.267-0.189,1.156-0.84l-0.752-4.387c-0.044-0.258,0.041-0.522,0.229-0.705l3.187-3.107
		c0.473-0.461,0.212-1.263-0.441-1.358l-4.405-0.64c-0.259-0.038-0.484-0.201-0.6-0.436l-1.97-3.992
		c-0.292-0.592-1.136-0.592-1.428,0l-1.97,3.992c-0.116,0.235-0.34,0.398-0.6,0.436l-4.405,0.64
		c-0.653,0.095-0.914,0.898-0.441,1.358l3.187,3.107c0.188,0.183,0.273,0.447,0.229,0.705l-0.752,4.387
		c-0.112,0.651,0.571,1.147,1.156,0.84l3.94-2.071C203.316,210.005,203.593,210.005,203.825,210.127z M34.426,241.561l3.94,2.071
		c0.584,0.307,1.267-0.189,1.156-0.84l-0.752-4.387c-0.044-0.258,0.041-0.522,0.229-0.705l3.187-3.107
		c0.473-0.461,0.212-1.263-0.441-1.358l-4.405-0.64c-0.259-0.038-0.484-0.201-0.6-0.436l-1.97-3.992
		c-0.292-0.592-1.136-0.592-1.428,0l-1.97,3.992c-0.116,0.235-0.34,0.398-0.6,0.436l-4.405,0.64
		c-0.653,0.095-0.914,0.898-0.441,1.358l3.187,3.107c0.188,0.183,0.273,0.447,0.229,0.705l-0.752,4.387
		c-0.112,0.651,0.571,1.147,1.156,0.84l3.94-2.071C33.917,241.439,34.194,241.439,34.426,241.561z M119.125,251.215l3.94,2.071
		c0.584,0.307,1.267-0.189,1.156-0.84l-0.752-4.387c-0.044-0.258,0.041-0.522,0.229-0.705l3.187-3.107
		c0.473-0.461,0.212-1.263-0.441-1.358l-4.405-0.64c-0.259-0.038-0.484-0.201-0.6-0.436l-1.97-3.992
		c-0.292-0.592-1.136-0.592-1.428,0l-1.97,3.992c-0.116,0.235-0.34,0.398-0.6,0.436l-4.405,0.64
		c-0.653,0.095-0.914,0.898-0.441,1.358l3.187,3.107c0.188,0.183,0.273,0.447,0.229,0.705l-0.752,4.387
		c-0.112,0.651,0.571,1.147,1.156,0.84l3.94-2.071C118.616,251.093,118.893,251.093,119.125,251.215z M76.776,248.809l3.94,2.071
		c0.584,0.307,1.267-0.189,1.156-0.84l-0.752-4.387c-0.044-0.258,0.041-0.522,0.229-0.705l3.187-3.107
		c0.473-0.461,0.212-1.263-0.441-1.358l-4.405-0.64c-0.259-0.038-0.484-0.201-0.6-0.436l-1.97-3.992
		c-0.292-0.592-1.136-0.592-1.428,0l-1.97,3.992c-0.116,0.235-0.34,0.398-0.6,0.436l-4.405,0.64
		c-0.653,0.095-0.914,0.898-0.441,1.358l3.187,3.107c0.188,0.183,0.273,0.447,0.229,0.705l-0.752,4.387
		c-0.112,0.651,0.571,1.147,1.156,0.84l3.94-2.071C76.266,248.687,76.544,248.687,76.776,248.809z M161.475,251.215l3.94,2.071
		c0.584,0.307,1.267-0.189,1.156-0.84l-0.752-4.387c-0.044-0.258,0.041-0.522,0.229-0.705l3.187-3.107
		c0.473-0.461,0.212-1.263-0.441-1.358l-4.405-0.64c-0.259-0.038-0.484-0.201-0.6-0.436l-1.97-3.992
		c-0.292-0.592-1.136-0.592-1.428,0l-1.97,3.992c-0.116,0.235-0.34,0.398-0.6,0.436l-4.405,0.64
		c-0.653,0.095-0.914,0.898-0.441,1.358l3.187,3.107c0.188,0.183,0.273,0.447,0.229,0.705l-0.752,4.387
		c-0.112,0.651,0.571,1.147,1.156,0.84l3.94-2.071C160.966,251.093,161.243,251.093,161.475,251.215z M203.825,247.876l3.94,2.071
		c0.584,0.307,1.267-0.189,1.156-0.84l-0.752-4.387c-0.044-0.258,0.041-0.522,0.229-0.705l3.187-3.107
		c0.473-0.461,0.212-1.263-0.441-1.358l-4.405-0.64c-0.259-0.038-0.484-0.201-0.6-0.436l-1.97-3.992
		c-0.292-0.592-1.136-0.592-1.428,0l-1.97,3.992c-0.116,0.235-0.34,0.398-0.6,0.436l-4.405,0.64
		c-0.653,0.095-0.914,0.898-0.441,1.358l3.187,3.107c0.188,0.183,0.273,0.447,0.229,0.705l-0.752,4.387
		c-0.112,0.651,0.571,1.147,1.156,0.84l3.94-2.071C203.316,247.754,203.593,247.754,203.825,247.876z M14.251,148.345l3.94,2.071
		c0.584,0.307,1.267-0.189,1.156-0.84l-0.752-4.387c-0.044-0.258,0.041-0.522,0.229-0.705l3.187-3.107
		c0.473-0.461,0.212-1.263-0.441-1.358l-4.405-0.64c-0.259-0.038-0.484-0.201-0.6-0.436l-1.97-3.992
		c-0.292-0.592-1.136-0.592-1.428,0l-1.97,3.992c-0.116,0.235-0.34,0.398-0.6,0.436l-4.405,0.64
		c-0.653,0.095-0.914,0.898-0.441,1.358l3.187,3.107c0.188,0.183,0.273,0.447,0.229,0.705l-0.752,4.387
		c-0.112,0.651,0.571,1.147,1.156,0.84l3.94-2.071C13.742,148.223,14.019,148.223,14.251,148.345z M98.951,158l3.94,2.071
		c0.584,0.307,1.267-0.189,1.156-0.84l-0.752-4.387c-0.044-0.258,0.041-0.522,0.229-0.705l3.187-3.107
		c0.473-0.461,0.212-1.263-0.441-1.358l-4.405-0.64c-0.259-0.038-0.484-0.201-0.6-0.436l-1.97-3.992
		c-0.292-0.592-1.136-0.592-1.428,0l-1.97,3.992c-0.116,0.235-0.34,0.398-0.6,0.436l-4.405,0.64
		c-0.653,0.095-0.914,0.898-0.441,1.358l3.187,3.107c0.188,0.183,0.273,0.447,0.229,0.705l-0.752,4.387
		c-0.112,0.651,0.571,1.147,1.156,0.84l3.94-2.071C98.441,157.878,98.719,157.878,98.951,158z M56.601,155.594l3.94,2.071
		c0.584,0.307,1.267-0.189,1.156-0.84l-0.752-4.387c-0.044-0.258,0.041-0.522,0.229-0.705l3.187-3.107
		c0.473-0.461,0.212-1.263-0.441-1.358l-4.405-0.64c-0.259-0.038-0.484-0.201-0.6-0.436l-1.97-3.992
		c-0.292-0.592-1.136-0.592-1.428,0l-1.97,3.992c-0.116,0.235-0.34,0.398-0.6,0.436l-4.405,0.64
		c-0.653,0.095-0.914,0.898-0.441,1.358l3.187,3.107c0.188,0.183,0.273,0.447,0.229,0.705l-0.752,4.387
		c-0.112,0.651,0.571,1.147,1.156,0.84l3.94-2.071C56.092,155.472,56.369,155.472,56.601,155.594z M141.3,158l3.94,2.071
		c0.584,0.307,1.267-0.189,1.156-0.84l-0.752-4.387c-0.044-0.258,0.041-0.522,0.229-0.705l3.187-3.107
		c0.473-0.461,0.212-1.263-0.441-1.358l-4.405-0.64c-0.259-0.038-0.484-0.201-0.6-0.436l-1.97-3.992
		c-0.292-0.592-1.136-0.592-1.428,0l-1.97,3.992c-0.116,0.235-0.34,0.398-0.6,0.436l-4.405,0.64
		c-0.653,0.095-0.914,0.898-0.441,1.358l3.187,3.107c0.188,0.183,0.273,0.447,0.229,0.705l-0.752,4.387
		c-0.112,0.651,0.571,1.147,1.156,0.84l3.94-2.071C140.791,157.878,141.068,157.878,141.3,158z M183.65,154.661l3.94,2.071
		c0.584,0.307,1.267-0.189,1.156-0.84l-0.752-4.387c-0.044-0.258,0.041-0.522,0.229-0.705l3.187-3.107
		c0.473-0.461,0.212-1.263-0.441-1.358l-4.405-0.64c-0.259-0.038-0.484-0.201-0.6-0.436l-1.97-3.992
		c-0.292-0.592-1.136-0.592-1.428,0l-1.97,3.992c-0.116,0.235-0.34,0.398-0.6,0.436l-4.405,0.64
		c-0.653,0.095-0.914,0.898-0.441,1.358l3.187,3.107c0.188,0.183,0.273,0.447,0.229,0.705l-0.752,4.387
		c-0.112,0.651,0.571,1.147,1.156,0.84l3.94-2.071C183.141,154.539,183.418,154.539,183.65,154.661z M226,148.314l3.94,2.071
		c0.584,0.307,1.267-0.189,1.156-0.84l-0.752-4.387c-0.044-0.258,0.041-0.522,0.229-0.705l3.187-3.107
		c0.473-0.461,0.212-1.263-0.441-1.358l-4.405-0.64c-0.259-0.038-0.484-0.201-0.6-0.436l-1.97-3.992
		c-0.292-0.592-1.136-0.592-1.428,0l-1.97,3.992c-0.116,0.235-0.34,0.398-0.6,0.436l-4.405,0.64
		c-0.653,0.095-0.914,0.898-0.441,1.358l3.187,3.107c0.188,0.183,0.273,0.447,0.229,0.705l-0.752,4.387
		c-0.112,0.651,0.571,1.147,1.156,0.84l3.94-2.071C225.491,148.192,225.768,148.192,226,148.314z M14.251,186.064l3.94,2.071
		c0.584,0.307,1.267-0.189,1.156-0.84l-0.752-4.387c-0.044-0.258,0.041-0.522,0.229-0.705l3.187-3.107
		c0.473-0.461,0.212-1.263-0.441-1.358l-4.405-0.64c-0.259-0.038-0.484-0.201-0.6-0.436l-1.97-3.992
		c-0.292-0.592-1.136-0.592-1.428,0l-1.97,3.992c-0.116,0.235-0.34,0.398-0.6,0.436l-4.405,0.64
		c-0.653,0.095-0.914,0.898-0.441,1.358l3.187,3.107c0.188,0.183,0.273,0.447,0.229,0.705l-0.752,4.387
		c-0.112,0.651,0.571,1.147,1.156,0.84l3.94-2.071C13.742,185.942,14.019,185.942,14.251,186.064z M98.951,195.719l3.94,2.071
		c0.584,0.307,1.267-0.189,1.156-0.84l-0.752-4.387c-0.044-0.258,0.041-0.522,0.229-0.705l3.187-3.107
		c0.473-0.461,0.212-1.263-0.441-1.358l-4.405-0.64c-0.259-0.038-0.484-0.201-0.6-0.436l-1.97-3.992
		c-0.292-0.592-1.136-0.592-1.428,0l-1.97,3.992c-0.116,0.235-0.34,0.398-0.6,0.436l-4.405,0.64
		c-0.653,0.095-0.914,0.898-0.441,1.358l3.187,3.107c0.188,0.183,0.273,0.447,0.229,0.705l-0.752,4.387
		c-0.112,0.651,0.571,1.147,1.156,0.84l3.94-2.071C98.441,195.597,98.719,195.597,98.951,195.719z M56.601,193.313l3.94,2.071
		c0.584,0.307,1.267-0.189,1.156-0.84l-0.752-4.387c-0.044-0.258,0.041-0.522,0.229-0.705l3.187-3.107
		c0.473-0.461,0.212-1.263-0.441-1.358l-4.405-0.64c-0.259-0.038-0.484-0.201-0.6-0.436l-1.97-3.992
		c-0.292-0.592-1.136-0.592-1.428,0l-1.97,3.992c-0.116,0.235-0.34,0.398-0.6,0.436l-4.405,0.64
		c-0.653,0.095-0.914,0.898-0.441,1.358l3.187,3.107c0.188,0.183,0.273,0.447,0.229,0.705l-0.752,4.387
		c-0.112,0.651,0.571,1.147,1.156,0.84l3.94-2.071C56.092,193.191,56.369,193.191,56.601,193.313z M141.3,195.719l3.94,2.071
		c0.584,0.307,1.267-0.189,1.156-0.84l-0.752-4.387c-0.044-0.258,0.041-0.522,0.229-0.705l3.187-3.107
		c0.473-0.461,0.212-1.263-0.441-1.358l-4.405-0.64c-0.259-0.038-0.484-0.201-0.6-0.436l-1.97-3.992
		c-0.292-0.592-1.136-0.592-1.428,0l-1.97,3.992c-0.116,0.235-0.34,0.398-0.6,0.436l-4.405,0.64
		c-0.653,0.095-0.914,0.898-0.441,1.358l3.187,3.107c0.188,0.183,0.273,0.447,0.229,0.705l-0.752,4.387
		c-0.112,0.651,0.571,1.147,1.156,0.84l3.94-2.071C140.791,195.597,141.068,195.597,141.3,195.719z M183.65,192.38l3.94,2.071
		c0.584,0.307,1.267-0.189,1.156-0.84l-0.752-4.387c-0.044-0.258,0.041-0.522,0.229-0.705l3.187-3.107
		c0.473-0.461,0.212-1.263-0.441-1.358l-4.405-0.64c-0.259-0.038-0.484-0.201-0.6-0.436l-1.97-3.992
		c-0.292-0.592-1.136-0.592-1.428,0l-1.97,3.992c-0.116,0.235-0.34,0.398-0.6,0.436l-4.405,0.64
		c-0.653,0.095-0.914,0.898-0.441,1.358l3.187,3.107c0.188,0.183,0.273,0.447,0.229,0.705l-0.752,4.387
		c-0.112,0.651,0.571,1.147,1.156,0.84l3.94-2.071C183.141,192.258,183.418,192.258,183.65,192.38z M226,186.033l3.94,2.071
		c0.584,0.307,1.267-0.189,1.156-0.84l-0.752-4.387c-0.044-0.258,0.041-0.522,0.229-0.705l3.187-3.107
		c0.473-0.461,0.212-1.263-0.441-1.358l-4.405-0.64c-0.259-0.038-0.484-0.201-0.6-0.436l-1.97-3.992
		c-0.292-0.592-1.136-0.592-1.428,0l-1.97,3.992c-0.116,0.235-0.34,0.398-0.6,0.436l-4.405,0.64
		c-0.653,0.095-0.914,0.898-0.441,1.358l3.187,3.107c0.188,0.183,0.273,0.447,0.229,0.705l-0.752,4.387
		c-0.112,0.651,0.571,1.147,1.156,0.84l3.94-2.071C225.491,185.911,225.768,185.911,226,186.033z M14.251,223.782l3.94,2.071
		c0.584,0.307,1.267-0.189,1.156-0.84l-0.752-4.387c-0.044-0.258,0.041-0.522,0.229-0.705l3.187-3.107
		c0.473-0.461,0.212-1.263-0.441-1.358l-4.405-0.64c-0.259-0.038-0.484-0.201-0.6-0.436l-1.97-3.992
		c-0.292-0.592-1.136-0.592-1.428,0l-1.97,3.992c-0.116,0.235-0.34,0.398-0.6,0.436l-4.405,0.64
		c-0.653,0.095-0.914,0.898-0.441,1.358l3.187,3.107c0.188,0.183,0.273,0.447,0.229,0.705l-0.752,4.387
		c-0.112,0.651,0.571,1.147,1.156,0.84l3.94-2.071C13.742,223.66,14.019,223.66,14.251,223.782z M98.951,233.437l3.94,2.071
		c0.584,0.307,1.267-0.189,1.156-0.84l-0.752-4.387c-0.044-0.258,0.041-0.522,0.229-0.705l3.187-3.107
		c0.473-0.461,0.212-1.263-0.441-1.358l-4.405-0.64c-0.259-0.038-0.484-0.201-0.6-0.436l-1.97-3.992
		c-0.292-0.592-1.136-0.592-1.428,0l-1.97,3.992c-0.116,0.235-0.34,0.398-0.6,0.436l-4.405,0.64
		c-0.653,0.095-0.914,0.898-0.441,1.358l3.187,3.107c0.188,0.183,0.273,0.447,0.229,0.705l-0.752,4.387
		c-0.112,0.651,0.571,1.147,1.156,0.84l3.94-2.071C98.441,233.315,98.719,233.315,98.951,233.437z M56.601,231.031l3.94,2.071
		c0.584,0.307,1.267-0.189,1.156-0.84l-0.752-4.387c-0.044-0.258,0.041-0.522,0.229-0.705l3.187-3.107
		c0.473-0.461,0.212-1.263-0.441-1.358l-4.405-0.64c-0.259-0.038-0.484-0.201-0.6-0.436l-1.97-3.992
		c-0.292-0.592-1.136-0.592-1.428,0l-1.97,3.992c-0.116,0.235-0.34,0.398-0.6,0.436l-4.405,0.64
		c-0.653,0.095-0.914,0.898-0.441,1.358l3.187,3.107c0.188,0.183,0.273,0.447,0.229,0.705l-0.752,4.387
		c-0.112,0.651,0.571,1.147,1.156,0.84l3.94-2.071C56.092,230.909,56.369,230.909,56.601,231.031z M141.3,233.437l3.94,2.071
		c0.584,0.307,1.267-0.189,1.156-0.84l-0.752-4.387c-0.044-0.258,0.041-0.522,0.229-0.705l3.187-3.107
		c0.473-0.461,0.212-1.263-0.441-1.358l-4.405-0.64c-0.259-0.038-0.484-0.201-0.6-0.436l-1.97-3.992
		c-0.292-0.592-1.136-0.592-1.428,0l-1.97,3.992c-0.116,0.235-0.34,0.398-0.6,0.436l-4.405,0.64
		c-0.653,0.095-0.914,0.898-0.441,1.358l3.187,3.107c0.188,0.183,0.273,0.447,0.229,0.705l-0.752,4.387
		c-0.112,0.651,0.571,1.147,1.156,0.84l3.94-2.071C140.791,233.315,141.068,233.315,141.3,233.437z M183.65,230.098l3.94,2.071
		c0.584,0.307,1.267-0.189,1.156-0.84l-0.752-4.387c-0.044-0.258,0.041-0.522,0.229-0.705l3.187-3.107
		c0.473-0.461,0.212-1.263-0.441-1.358l-4.405-0.64c-0.259-0.038-0.484-0.201-0.6-0.436l-1.97-3.992
		c-0.292-0.592-1.136-0.592-1.428,0l-1.97,3.992c-0.116,0.235-0.34,0.398-0.6,0.436l-4.405,0.64
		c-0.653,0.095-0.914,0.898-0.441,1.358l3.187,3.107c0.188,0.183,0.273,0.447,0.229,0.705l-0.752,4.387
		c-0.112,0.651,0.571,1.147,1.156,0.84l3.94-2.071C183.141,229.976,183.418,229.976,183.65,230.098z M226,223.751l3.94,2.071
		c0.584,0.307,1.267-0.189,1.156-0.84l-0.752-4.387c-0.044-0.258,0.041-0.522,0.229-0.705l3.187-3.107
		c0.473-0.461,0.212-1.263-0.441-1.358l-4.405-0.64c-0.259-0.038-0.484-0.201-0.6-0.436l-1.97-3.992
		c-0.292-0.592-1.136-0.592-1.428,0l-1.97,3.992c-0.116,0.235-0.34,0.398-0.6,0.436l-4.405,0.64
		c-0.653,0.095-0.914,0.898-0.441,1.358l3.187,3.107c0.188,0.183,0.273,0.447,0.229,0.705l-0.752,4.387
		c-0.112,0.651,0.571,1.147,1.156,0.84l3.94-2.071C225.491,223.629,225.768,223.629,226,223.751z M14.251,261.501l3.94,2.071
		c0.584,0.307,1.267-0.189,1.156-0.84l-0.752-4.387c-0.044-0.258,0.041-0.522,0.229-0.705l3.187-3.107
		c0.473-0.461,0.212-1.263-0.441-1.358l-4.405-0.64c-0.259-0.038-0.484-0.201-0.6-0.436l-1.97-3.992
		c-0.292-0.592-1.136-0.592-1.428,0l-1.97,3.992c-0.116,0.235-0.34,0.398-0.6,0.436l-4.405,0.64
		c-0.653,0.095-0.914,0.898-0.441,1.358l3.187,3.107c0.188,0.183,0.273,0.447,0.229,0.705l-0.752,4.387
		c-0.112,0.651,0.571,1.147,1.156,0.84l3.94-2.071C13.742,261.379,14.019,261.379,14.251,261.501z M98.951,271.156l3.94,2.071
		c0.584,0.307,1.267-0.189,1.156-0.84L103.294,268c-0.044-0.258,0.041-0.522,0.229-0.705l3.187-3.107
		c0.473-0.461,0.212-1.263-0.441-1.358l-4.405-0.64c-0.259-0.038-0.484-0.201-0.6-0.436l-1.97-3.992
		c-0.292-0.592-1.136-0.592-1.428,0l-1.97,3.992c-0.116,0.235-0.34,0.398-0.6,0.436l-4.405,0.64
		c-0.653,0.095-0.914,0.898-0.441,1.358l3.187,3.107c0.188,0.183,0.273,0.447,0.229,0.705l-0.752,4.387
		c-0.112,0.651,0.571,1.147,1.156,0.84l3.94-2.071C98.441,271.034,98.719,271.034,98.951,271.156z M56.601,268.75l3.94,2.071
		c0.584,0.307,1.267-0.189,1.156-0.84l-0.752-4.387c-0.044-0.258,0.041-0.522,0.229-0.705l3.187-3.107
		c0.473-0.461,0.212-1.263-0.441-1.358l-4.405-0.64c-0.259-0.038-0.484-0.201-0.6-0.436l-1.97-3.992
		c-0.292-0.592-1.136-0.592-1.428,0l-1.97,3.992c-0.116,0.235-0.34,0.398-0.6,0.436l-4.405,0.64
		c-0.653,0.095-0.914,0.898-0.441,1.358l3.187,3.107c0.188,0.183,0.273,0.447,0.229,0.705l-0.752,4.387
		c-0.112,0.651,0.571,1.147,1.156,0.84l3.94-2.071C56.092,268.628,56.369,268.628,56.601,268.75z M141.3,271.156l3.94,2.071
		c0.584,0.307,1.267-0.189,1.156-0.84L145.643,268c-0.044-0.258,0.041-0.522,0.229-0.705l3.187-3.107
		c0.473-0.461,0.212-1.263-0.441-1.358l-4.405-0.64c-0.259-0.038-0.484-0.201-0.6-0.436l-1.97-3.992
		c-0.292-0.592-1.136-0.592-1.428,0l-1.97,3.992c-0.116,0.235-0.34,0.398-0.6,0.436l-4.405,0.64
		c-0.653,0.095-0.914,0.898-0.441,1.358l3.187,3.107c0.188,0.183,0.273,0.447,0.229,0.705l-0.752,4.387
		c-0.112,0.651,0.571,1.147,1.156,0.84l3.94-2.071C140.791,271.034,141.068,271.034,141.3,271.156z M183.65,267.817l3.94,2.071
		c0.584,0.307,1.267-0.189,1.156-0.84l-0.752-4.387c-0.044-0.258,0.041-0.522,0.229-0.705l3.187-3.107
		c0.473-0.461,0.212-1.263-0.441-1.358l-4.405-0.64c-0.259-0.038-0.484-0.201-0.6-0.436l-1.97-3.992
		c-0.292-0.592-1.136-0.592-1.428,0l-1.97,3.992c-0.116,0.235-0.34,0.398-0.6,0.436l-4.405,0.64
		c-0.653,0.095-0.914,0.898-0.441,1.358l3.187,3.107c0.188,0.183,0.273,0.447,0.229,0.705l-0.752,4.387
		c-0.112,0.651,0.571,1.147,1.156,0.84l3.94-2.071C183.141,267.695,183.418,267.695,183.65,267.817z M226,261.47l3.94,2.071
		c0.584,0.307,1.267-0.189,1.156-0.84l-0.752-4.387c-0.044-0.258,0.041-0.522,0.229-0.705l3.187-3.107
		c0.473-0.461,0.212-1.263-0.441-1.358l-4.405-0.64c-0.259-0.038-0.484-0.201-0.6-0.436l-1.97-3.992
		c-0.292-0.592-1.136-0.592-1.428,0l-1.97,3.992c-0.116,0.235-0.34,0.398-0.6,0.436l-4.405,0.64
		c-0.653,0.095-0.914,0.898-0.441,1.358l3.187,3.107c0.188,0.183,0.273,0.447,0.229,0.705l-0.752,4.387
		c-0.112,0.651,0.571,1.147,1.156,0.84l3.94-2.071C225.491,261.348,225.768,261.348,226,261.47z"/>
</g>
<g id="Layer_1">
</g>
</svg>
